<svg xmlns="http://www.w3.org/2000/svg" viewBox="0 0 189.08 188.1"><defs><style>.cls-1{fill:#fefefe;}.cls-2{fill:#5c4425;}.cls-3{fill:#594224;}.cls-4{fill:#6d552f;}.cls-5{fill:#fdfdfd;}.cls-6{fill:#54411f;}.cls-7{fill:#83642b;}.cls-8{fill:#614929;}.cls-9{fill:#d4caa1;}.cls-10{fill:#77592e;}.cls-11{fill:#674e2b;}.cls-12{fill:#685230;}.cls-13{fill:#d3cba2;}.cls-14{fill:#7a5f33;}.cls-15{fill:#3b2e21;}.cls-16{fill:#4a3a25;}.cls-17{fill:#785b2e;}.cls-18{fill:#644b27;}.cls-19{fill:#5b4425;}.cls-20{fill:#6b4f28;}.cls-21{fill:#382d23;}.cls-22{fill:#8d7a48;}.cls-23{fill:#745330;}.cls-24{fill:#957141;}.cls-25{fill:#957242;}.cls-26{fill:#a47e48;}.cls-27{fill:#8b693d;}.cls-28{fill:#a5824c;}.cls-29{fill:#bb9d6a;}.cls-30{fill:#89683d;}.cls-31{fill:#aa8a57;}.cls-32{fill:#957343;}.cls-33{fill:#c2a878;}.cls-34{fill:#433321;}.cls-35{fill:#9a7745;}.cls-36{fill:#856138;}.cls-37{fill:#7f5c35;}.cls-38{fill:#dad1ab;}.cls-39{fill:#795632;}.cls-40{fill:#8f6c3e;}.cls-41{fill:#9e945f;}.cls-42{fill:#7e5f39;}.cls-43{fill:#e6dab6;}.cls-44{fill:#d1c29b;}.cls-45{fill:#d8d1aa;}.cls-46{fill:#c1ba92;}.cls-47{fill:#866338;}.cls-48{fill:#75652c;}.cls-49{fill:#66582b;}.cls-50{fill:#978d58;}.cls-51{fill:#e6deb7;}.cls-52{fill:#ece2c3;}.cls-53{fill:#e9ddb8;}.cls-54{fill:#a68959;}.cls-55{fill:#e3d5b2;}.cls-56{fill:#dfd4ab;}.cls-57{fill:#d7be92;}.cls-58{fill:#e3d2ad;}.cls-59{fill:#efe7cb;}.cls-60{fill:#d0bd93;}.cls-61{fill:#d5cda8;}.cls-62{fill:#ceb180;}.cls-63{fill:#382c18;}.cls-64{fill:#725a32;}.cls-65{fill:#926f40;}.cls-66{fill:#5f4c29;}.cls-67{fill:#e9e3c8;}.cls-68{fill:#957544;}.cls-69{fill:#e3d3af;}.cls-70{fill:#dac59c;}.cls-71{fill:#cbae7d;}.cls-72{fill:#3a2c18;}.cls-73{fill:#6d512f;}.cls-74{fill:#795e35;}.cls-75{fill:#c0b78e;}.cls-76{fill:#9b7643;}.cls-77{fill:#8e6b3e;}.cls-78{fill:#8f6c3f;}.cls-79{fill:#8b663a;}.cls-80{fill:#e2d4af;}.cls-81{fill:#c4aa79;}.cls-82{fill:#d6c295;}.cls-83{fill:#c5a774;}.cls-84{fill:#71532f;}.cls-85{fill:#a17a45;}.cls-86{fill:#846138;}.cls-87{fill:#c4bb94;}.cls-88{fill:#47381d;}.cls-89{fill:#322c27;}.cls-90{fill:#6c4e2d;}.cls-91{fill:#87653b;}.cls-92{fill:#674a2a;}.cls-93{fill:#3a3731;}.cls-94{fill:#7c5a34;}.cls-95{fill:#bb9f6c;}.cls-96{fill:#584925;}.cls-97{fill:#75672e;}.cls-98{fill:#e1d4b2;}.cls-99{fill:#b18e58;}.cls-100{fill:#d2caa3;}.cls-101{fill:#d1caa4;}.cls-102{fill:#b2915d;}.cls-103{fill:#342f29;}.cls-104{fill:#937243;}.cls-105{fill:#c5af80;}.cls-106{fill:#8d6b3f;}.cls-107{fill:#c8be92;}.cls-108{fill:#987646;}.cls-109{fill:#3c3933;}.cls-110{fill:#937143;}.cls-111{fill:#725833;}.cls-112{fill:#44423c;}.cls-113{fill:#825f36;}.cls-114{fill:#372916;}.cls-115{fill:#56432a;}.cls-116{fill:#c5bd91;}.cls-117{fill:#886b3d;}.cls-118{fill:#b0a579;}.cls-119{fill:#a88a57;}.cls-120{fill:#e5d7b4;}.cls-121{fill:#8d6b3d;}.cls-122{fill:#906e41;}.cls-123{fill:#d6cea4;}.cls-124{fill:#9a7947;}.cls-125{fill:#413f3a;}.cls-126{fill:#574a27;}.cls-127{fill:#a5814b;}.cls-128{fill:#3f3e38;}.cls-129{fill:#433420;}.cls-130{fill:#9f804b;}.cls-131{fill:#3d3a34;}.cls-132{fill:#42403a;}.cls-133{fill:#48463f;}.cls-134{fill:#474642;}.cls-135{fill:#87693f;}.cls-136{fill:#87673b;}.cls-137{fill:#3b342e;}.cls-138{fill:#8a663b;}.cls-139{fill:#b4945d;}.cls-140{fill:#d6caa2;}.cls-141{fill:#e8dbb9;}.cls-142{fill:#535049;}.cls-143{fill:#5c5950;}.cls-144{fill:#484640;}.cls-145{fill:#7b5c35;}.cls-146{fill:#46341d;}.cls-147{fill:#81623a;}.cls-148{fill:#382a17;}.cls-149{fill:#363029;}.cls-150{fill:#dfd9bb;}.cls-151{fill:#c2a06b;}.cls-152{fill:#e6d8b7;}.cls-153{fill:#bfa26e;}.cls-154{fill:#d1b98a;}.cls-155{fill:#3f3c37;}.cls-156{fill:#a77d45;}.cls-157{fill:#cfbe93;}.cls-158{fill:#c4a671;}.cls-159{fill:#b78b4e;}.cls-160{fill:#c2a069;}.cls-161{fill:#533e23;}.cls-162{fill:#c5bd93;}.cls-163{fill:#c9af7e;}.cls-164{fill:#2f2414;}.cls-165{fill:#3e3c37;}.cls-166{fill:#292524;}.cls-167{fill:#7d5b36;}.cls-168{fill:#3f3d38;}.cls-169{fill:#5d4c36;}.cls-170{fill:#5f4729;}.cls-171{fill:#826239;}.cls-172{fill:#725735;}.cls-173{fill:#5d5a52;}.cls-174{fill:#4a4740;}.cls-175{fill:#525048;}.cls-176{fill:#59574f;}.cls-177{fill:#56534b;}.cls-178{fill:#4e4c45;}.cls-179{fill:#6c5333;}.cls-180{fill:#745835;}.cls-181{fill:#b79859;}.cls-182{fill:#4c4b46;}.cls-183{fill:#5e4e39;}.cls-184{fill:#4d4b43;}.cls-185{fill:#504e49;}.cls-186{fill:#947344;}.cls-187{fill:#59564e;}.cls-188{fill:#4d4b44;}.cls-189{fill:#8b7046;}.cls-190{fill:#695234;}.cls-191{fill:#43423c;}.cls-192{fill:#9d7a47;}.cls-193{fill:#7e5e38;}.cls-194{fill:#b19259;}.cls-195{fill:#9f7c48;}.cls-196{fill:#6c512e;}.cls-197{fill:#c1a461;}.cls-198{fill:#795a34;}.cls-199{fill:#5a4e3b;}.cls-200{fill:#c4bd93;}.cls-201{fill:#4e4b45;}.cls-202{fill:#8d6d40;}.cls-203{fill:#473926;}.cls-204{fill:#494740;}.cls-205{fill:#514f47;}.cls-206{fill:#40311e;}.cls-207{fill:#af8e52;}.cls-208{fill:#5d5b52;}.cls-209{fill:#57554d;}.cls-210{fill:#977645;}.cls-211{fill:#88683d;}.cls-212{fill:#795a35;}.cls-213{fill:#9a7847;}.cls-214{fill:#8a693e;}.cls-215{fill:#caaf70;}.cls-216{fill:#503e25;}.cls-217{fill:#d1bf8f;}.cls-218{fill:#c3a96d;}.cls-219{fill:#362917;}.cls-220{fill:#c3ac79;}.cls-221{fill:#5b5950;}.cls-222{fill:#261c0f;}.cls-223{fill:#8f7e64;}.cls-224{fill:#a37f4a;}.cls-225{fill:#2b1f11;}.cls-226{fill:#eee6c6;}.cls-227{fill:#a5885a;}</style></defs><g id="Layer_2" data-name="Layer 2"><g id="Layer_1_Image" data-name="Layer 1 Image"><path class="cls-1" d="M182.06,119.11c1.34,3.36.66,6.08-1.44,9.21-2.41,3.58-3.7,7.88-5.79,11.77a65.58,65.58,0,0,1-14.57,18.67c-7.81,6.67-15.51,13.79-25.27,18.45-5.48,2.62-11.64,2.88-16.94,6.19-1.44.9-6.81,3.43-10-.3a1.09,1.09,0,0,1-.37-.81c0-.3,0-.46.1-.46a3.32,3.32,0,0,1,1.53-1.41,12.56,12.56,0,0,1,2.71-.63c1.53-.21,3-.84,4.62-.35,1.62,1,2.58-.14,3.6-1.12a78,78,0,0,1,14.85-6,2.82,2.82,0,0,0,2.56-1.56,6.4,6.4,0,0,1,4-2.28c1.49.12,2.27-.75,2.8-2a110.85,110.85,0,0,1,11.92-9.93,2.24,2.24,0,0,0,2-1.86,5.51,5.51,0,0,1,.48-1.18c3.22-3.12,5.27-7.25,8.77-10.11,1.67-.64,3-1.55,2.64-3.65.13-1.67,1.25-2.74,2.31-3.83a2.57,2.57,0,0,0,1.08-2.64c1.41-5.28,3.93-10.11,6.08-15.08C180.87,117.5,181.53,118.13,182.06,119.11Z"/><path class="cls-1" d="M102.07,186.1c-6.75,3-13.54,2.21-20.39.35-7.24-2-15-2.12-21.83-5.47-9.25-4.54-19.05-8-27.08-15-3.33-2.9-6.29-6.09-9.47-9.1-1.38-1.31-2.5-2.68-2.22-4.74a7.07,7.07,0,0,1,3.48-.16c3,2.52,6.19,4.79,7.85,8.49-.38,1.73,1.12.93,1.77,1.28a12,12,0,0,1,4.08,3,2.75,2.75,0,0,0,2.1,1.77,2.62,2.62,0,0,1,1,.68c.59,2.63,2.87,2.11,4.67,2.49,10,5.84,20.95,8.87,32,11.64,3.91,2.35,8,3.24,12.47,1.74,1.62-.17,3.25-.11,4.86-.41a4.36,4.36,0,0,1,1.35,0,5.78,5.78,0,0,1,1.2.58c1.25.95,3,.62,4.22,1.7A.92.92,0,0,1,102.07,186.1Z"/><path class="cls-2" d="M112,2.29c10.46,1.47,19.66,6.26,28.92,10.9a19.52,19.52,0,0,1,5.22,2.57,34.93,34.93,0,0,1,6.1,4.66c.72.75,1.51,1.44,2.26,2.16,1,1,2,2.05,3,3,.73.74,1.47,1.46,2.22,2.18a65.36,65.36,0,0,1,4.86,5.13c.52.74,1,1.48,1.61,2.18A81,81,0,0,1,180,59.54c.64,1.85,1.52,3.71.65,5.74.56.94,0,2.4,1.37,3,1.9,2.22,2,4.86,1.82,7.59a3.9,3.9,0,0,1-1.89,2.51c-2.66-.76-2.69-3.19-3.06-5.2a68.18,68.18,0,0,0-4.5-15.27,105,105,0,0,0-5.91-12,36,36,0,0,0-4.21-6c-1.41-1.49-2.15-3.44-3.53-4.94-.47-.49-.92-1-1.38-1.47q-1.85-1.92-3.8-3.75c-1.1-1.1-2.43-1.94-3.43-3.15a26.27,26.27,0,0,0-8.34-6.53,20.07,20.07,0,0,1-4.43-3c-1.63-1.58-3.76-2.29-5.74-3.26a42.49,42.49,0,0,0-9-3.89c-4-1.48-7.91-3.18-12.1-4.12-1.38-.3-3-.45-3.66-2.11C109.36,1.9,111.14,3.14,112,2.29Z"/><path class="cls-3" d="M41,167.39a1,1,0,0,0-.82-.36,3,3,0,0,1-2.15-1.79c-1.2-1.3-3.45-1.19-4.19-3.11-.55-.33-1.24-.49-1.52-1.17q-4.28-4.41-8.54-8.81A6.66,6.66,0,0,1,21.14,150c-.1-.75.12-1.65-.94-1.94-.86-.46-1.67-1-1.82-2.06s.27-1.88,1.41-2.17c2.44.65,3.67,2.68,5.09,4.49a22.61,22.61,0,0,0,4,4.43c2.9,3.28,6.68,5.54,9.78,8.59,2.49,1.9,5.16,3.55,7.82,5.2a42.23,42.23,0,0,0,8.84,4.91c2.82,1.14,5.52,2.54,8.35,3.64,2.56.84,5.21,1.37,7.78,2.18,4.71,1.37,9.65,1.43,14.4,2.58a5.47,5.47,0,0,1,1.52.57,1.63,1.63,0,0,1,.78,2.09c-3.4,3.63-6.67.12-10-.18-11.6-2.46-23-5.51-33-12.24C43.45,169.64,41.74,169.28,41,167.39Z"/><path class="cls-1" d="M180.62,65.28a96.39,96.39,0,0,0-15.56-30.17,15.37,15.37,0,0,1-.41-3.51l.41-.48c7.74,4.5,9.64,13.06,13.7,20.07.94,1.62,1.72,3.42,2.7,5.11C183.24,59.34,184.86,62.67,180.62,65.28Z"/><path class="cls-4" d="M20,144.15a2.3,2.3,0,0,0-.95,2.1c-4.28-1.67-5.12-6-7.29-9.33-.44-1-.67-2-1.15-3-.22-.35-.42-.7-.63-1.06-.55-.89-1.08-1.78-1.56-2.7a4,4,0,0,1-.5-3.07l-.93-2c-1.82-1.09-2.16-2.75-1.83-4.68a3.22,3.22,0,0,1,.7-1.36c1.09-.55,1.93,0,2.76.62,2.93,3.56,3.7,8.24,6.16,12.06,1.27,3.26,3.77,5.82,5.18,9C20.25,141.89,20.81,143,20,144.15Z"/><path class="cls-1" d="M7.9,127.13c.48.94,1.42,1.69,1.22,2.92.27,1.24.57,2.47,1.89,3.08l0,.07c1,.64-.26,2.23,1.13,2.71L19,146.25,20.2,148A5.76,5.76,0,0,1,14.44,146a48.59,48.59,0,0,1-8.12-14.6A3.27,3.27,0,0,1,7.9,127.13Z"/><path class="cls-1" d="M182.06,119.11l-1.84-1c-.53-3.74,1.19-7.12,1.65-10.71a14.06,14.06,0,0,1,.36-1.42c.56-1.32.58-2.9,1.87-3.87,3.46.41,3.4,3.1,2.78,5.27C185.71,111.44,185.38,115.92,182.06,119.11Z"/><path class="cls-1" d="M182.89,76.19l-.9-8c.38-.27.9-.86,1.13-.76,4.33,1.83,3,6.13,3.82,9.4.53,2.12.63,4.87-2.84,5.22l-.49-.41c-.87-1.32-.45-2.89-.81-4.32A1.3,1.3,0,0,1,182.89,76.19Z"/><path class="cls-1" d="M164,33.25a18,18,0,0,1-4.93-5.14,2.79,2.79,0,0,0-2-2A6.23,6.23,0,0,1,154,23.23c-.55-1.16.22-1.64,1.05-2.1,4,2.64,9.17,4.16,10,10h0C164.31,31.64,164.84,32.79,164,33.25Z"/><path class="cls-1" d="M6,120.25l1,4.86c-3.08.28-4.82-.62-5-4.2-.19-3.29-2-6.54.15-9.8a1,1,0,0,1,1.34.06C5,114,6.21,116.92,6,120.25Z"/><path class="cls-5" d="M185.13,98.11l-.93,2c-2.76-2.6.18-6-1.17-8.73a21.65,21.65,0,0,1-.27-3.12,10.55,10.55,0,0,1,0-1.59c.14-1.34.17-2.73,1.51-3.56l.81,1C189.31,89.2,189.32,94.17,185.13,98.11Z"/><path class="cls-6" d="M184,91.18c2.73,2.93-1.18,6,.17,8.93a1.23,1.23,0,0,0-.19.93c-1,1.56,0,3.45-.78,5l-.33,1a.93.93,0,0,1-1.22-.15c-1.54-2,.06-5-2.12-6.91a3.51,3.51,0,0,1-1-1.74,3.4,3.4,0,0,1,1.56-2.84,5,5,0,0,0,2.05-3.06C182.56,91.66,182.82,90.67,184,91.18Z"/><path class="cls-1" d="M185.13,98.11c3.43-4.67,2-9.33,0-14,4.39,1,3.85,4.57,4,7.8C189.19,94.92,188.77,97.53,185.13,98.11Z"/><path class="cls-1" d="M152,21.26l-6.09-4.73a.92.92,0,0,1,.15-1.4c3.76-.32,5.36,2.36,7,5A1.32,1.32,0,0,1,152,21.26Z"/><path class="cls-5" d="M2.89,111.11H2.08v-1c-1.06-1.65-2.44-3.18-2-5.4.26-1.33,1-.9,1.81-.6C4,106.19,5.12,108.42,2.89,111.11Z"/><path class="cls-1" d="M102.07,186.1v-1c-1.47-1.33-3.51.23-5-1v-.85c1.52-1.81,3.52-1.43,5.49-1.22a3.45,3.45,0,0,1,2.51,2.07A3,3,0,0,1,102.07,186.1Z"/><path class="cls-5" d="M146.06,15.13l-.15,1.4c-1.84-.84-3.7-1.65-5-3.34,1.36-1,2.75-.15,4.12-.06C145.4,13.79,145.73,14.46,146.06,15.13Z"/><path class="cls-5" d="M21.14,150c1.31.2,2.38.69,2.67,2.17-.93.81-1.83.44-2.73-.05Z"/><path class="cls-7" d="M184.27,83.11l-.38,3.74c-1.59.74-1.62-.74-2.17-1.5a3.24,3.24,0,0,1,0-1.28,4.14,4.14,0,0,1,1.25-2.21,1,1,0,0,1,1.14.2l0,0Z"/><path class="cls-5" d="M152,21.26l1.06-1.13,2,1L154,23.23Z"/><path class="cls-5" d="M105.07,184.1l-2.07-1c1.29-2.8,3.1-2.33,5.07-.79v.84C107,183.13,105.79,182.93,105.07,184.1Z"/><path class="cls-5" d="M183.23,106.09c0-1.72-.82-3.58.78-5l.09,1.07C183.9,103.46,184.48,105,183.23,106.09Z"/><path class="cls-8" d="M19,37.87c9.9-15,23.87-24.84,40.21-31.5A82.12,82.12,0,0,1,85.89.24a1.58,1.58,0,0,1,.58,2c-1.17,2-3.45,1.93-5.22,2.83a12.16,12.16,0,0,1-1.41.56c-3,1.13-6,.71-9.09.93-9.38,1.1-16.91,6.37-24.73,11a16.57,16.57,0,0,1-3.38,2.37,6.52,6.52,0,0,0-3.46,2.67,7.76,7.76,0,0,1-.77,1c-1.23,1.22-2.8,2-4,3.32-1.77,2-4.29,3.12-5.74,5.42-1.57,1.87-3.64,3.24-5.1,5.23a6.82,6.82,0,0,1-2.35,1.53C20.23,39.17,18.71,40.13,19,37.87Z"/><path class="cls-9" d="M1.2,97.28c1-3.78-.56-7.54,0-11.32C2.11,85.06,3,84.09,4,83.27A4,4,0,0,0,5,81.6c.37-1.24.41-2.93,2.2-2.84,1.62.09,1.91,1.63,2.31,2.9.31,2.1,1.81.89,2.84,1a4.37,4.37,0,0,1,2.5,1.16c1,1.09,2.33,2.27,1.37,3.82s-2.39.46-3.6.18A7.16,7.16,0,0,0,7.82,88c-1.66.81-2.78,1.88-2,3.93.29,1.47,1.44,2.59,1.64,4.1A3.06,3.06,0,0,1,4.1,98.61,3.89,3.89,0,0,1,1.2,97.28Z"/><path class="cls-10" d="M4.23,84.15c-.8,1-1.49,2.12-3,1.81.91-5.08.67-10.37,2.7-15.25.73.59.94,1.26.44,1.9.53-1.17.33-2.74,1-4.07,1.5-4.63,2.66-9.38,4.82-13.77.69-1.4.73-3.27,2.59-3.9a1.9,1.9,0,0,1,1.07,1,6.08,6.08,0,0,1,.1,3.75,41,41,0,0,1-2.06,4.59A14.92,14.92,0,0,0,10,65.39c-.18,1-.47,1.87-.6,2.84A73,73,0,0,1,4.23,84.15Z"/><path class="cls-11" d="M13,51.11c-3.35,5.6-4.5,12-6.93,18-1.42-1.05,0-2.72-.83-3.89,2.78-10,7-19.29,13.72-27.36.61,1.27,1.53.36,2.33.33,1,2-.55,3.12-1.49,4.46C17.29,45.26,17.07,49.73,13,51.11Z"/><path class="cls-12" d="M2.89,111.11c.74-2.48-1.15-4.6-1-7L2,100.32c-.63-1.73.58-1.62,1.66-1.64a1.81,1.81,0,0,1,1.14,1c.71,1.73.48,3.57.64,5.36a21.69,21.69,0,0,0,.83,4.59c-.25,3.16,2.35,6.37-.17,9.49,0,.38,0,.76-.07,1.14C5.07,117.17,2.78,114.55,2.89,111.11Z"/><path class="cls-13" d="M86.09,2.14C86,1.5,86,.87,85.89.24c4,.71,8.24-.77,12.21.9a1.17,1.17,0,0,1,.3.81c0,.3-.06.45-.11.45a3.19,3.19,0,0,1-2.18,1.45c-1.23.12-2.5-.32-3.72.17S90.16,5.18,89,5.55a2.24,2.24,0,0,1-1.27-.31C86.35,4.61,88,2.48,86.09,2.14Z"/><path class="cls-14" d="M98.27,2.05c0-.3-.11-.61-.17-.91C102-1,105.7.19,109.32,2a6.42,6.42,0,0,1-3.21,1.93,9,9,0,0,1-3.06.33C101.25,4,99.45,3.69,98.27,2.05Z"/><path class="cls-15" d="M5.25,65.23c1.31,1.07.67,2.57.83,3.89A7.65,7.65,0,0,0,5,73.34c-1.36-.8-.69-1.89-1.07-2.63Q4.56,68,5.25,65.23Z"/><path class="cls-16" d="M106.11,3.07c.78-1.24,2.08-.89,3.21-1.08l2.7.3c-.8,1-2,.77-3.08.93A1.91,1.91,0,0,1,106.11,3.07Z"/><path class="cls-17" d="M3.92,99.15A1.9,1.9,0,0,0,2,100.32c-1.33-.74-.87-1.94-.79-3,1.14-.22,1.93.46,2.75,1.06.25.19.32.37.23.55S4,99.15,3.92,99.15Z"/><path class="cls-18" d="M136,173l-15.92,6.34c-.81.93-1.61,1.87-3,1-1.84-.8-3.36.81-5.11.67-1.22-.93-3,.41-4.1-1.07,2-3.8,6.17-2.6,9.27-3.88a11.38,11.38,0,0,1,1.41-.29c2.48-.6,5-1,7.26-2.33A59.83,59.83,0,0,0,138.4,167a7.11,7.11,0,0,1,1.09-.77,32.5,32.5,0,0,0,7-4.74,59.63,59.63,0,0,1,5.71-4.7c1.16-1,2.19-2.07,3.32-3.08a3.28,3.28,0,0,1,2.38-.89,1.89,1.89,0,0,1,1.26,1.39,2.62,2.62,0,0,0-.17.91,3.43,3.43,0,0,1-2,2L145,167c-.46,1.46-1.83,1.61-3,2.09l-4,2.35C137.41,172,137,172.93,136,173Z"/><path class="cls-19" d="M159.21,154.16,158,153c-.38-2.29,1.58-3.25,2.66-4.71A35.85,35.85,0,0,0,167,139a5.57,5.57,0,0,0,.08-5.19c-.48-.92-1.84-1.81-.51-3a2.68,2.68,0,0,1,3.23,0c.53.29.95,1,1.71.53,2.58-3.94,3.67-8.5,5.52-12.73.89-2.77,1.43-5.62,2.21-8.42.67-1.24.62-3.14,2.76-3h.89a30.59,30.59,0,0,1-2.68,11c-1,5.7-4.14,10.62-6,16,.42,1.06-.52,1.42-1,2,.4,1.93-2.6,1.94-2.18,3.88a4.89,4.89,0,0,1-3.05,4.07C165,147.39,163,151.52,159.21,154.16Z"/><path class="cls-20" d="M108.07,182.26c-1.73,0-3.51-.31-5.07.79l-5.93.2-.47-.14h-.48c-1,.44-1.29-.21-1.5-1,1-3.51,4-2.1,6.22-2.54a9.56,9.56,0,0,1,5.14-.24c1.07.6,2.17,1.13,3.21,1.79Z"/><path class="cls-5" d="M168,144.06,171,140C172.87,143.51,170.18,143.61,168,144.06Z"/><path class="cls-21" d="M109.19,181.15c-1.09-.18-2.34.17-3.1-1A1.37,1.37,0,0,1,108,180c1.32.29,2.86-.38,3.93.93Z"/><path class="cls-5" d="M117.07,180.27l3-1c-.1,1.05-.42,2.05-1.49,2.39S117.2,181.14,117.07,180.27Z"/><path class="cls-5" d="M136,173c.36-1,1.25-1.2,2.08-1.51-.2.73-.19,1.65-.64,2.14S136.33,173.53,136,173Z"/><path class="cls-5" d="M142.05,169.09l3-2.09C145,169,144.32,170.21,142.05,169.09Z"/><path class="cls-5" d="M157.07,157.1c.66-.67,1.31-1.35,2-2,.21.72.92,1.42.2,2.18S157.78,157.31,157.07,157.1Z"/><path class="cls-5" d="M173.18,136.11l1-2c.65.1,1.51.26,1.38,1C175.35,136.48,174.06,135.94,173.18,136.11Z"/><path class="cls-5" d="M78.11,182.31c3.26-.8,6.64,2.2,9.85-.29.9-.62,1.68-.14,2.47.27a2,2,0,0,1,.95,1.65C86.68,185.67,82.18,185.76,78.11,182.31Z"/><path class="cls-22" d="M91.38,183.94l-1.31-.85a2.58,2.58,0,0,1-.4-2.83,2,2,0,0,1,2-.7A9.41,9.41,0,0,1,95,182l1.17,1.17C94.77,184.7,92.91,183.41,91.38,183.94Z"/><path class="cls-5" d="M41,167.39l4.09,2.68C42.36,171.31,40.47,171.22,41,167.39Z"/><path class="cls-5" d="M97.07,184.1c1.64.44,3.66-1,5,1C100.38,184.85,98.47,185.77,97.07,184.1Z"/><path class="cls-5" d="M38.06,165.24c1.11.12,1.65.93,2.15,1.79-.72.2-1.39.94-2.19.32S37.8,165.94,38.06,165.24Z"/><path class="cls-5" d="M32.35,161c.71.13,1.6,0,1.52,1.17-1.08.66-2.31.76-2.86-.43C30.66,160.94,31.86,161.19,32.35,161Z"/><path class="cls-23" d="M175.12,57.08c2.94,4.81,4,10.21,4.94,15.66.32,1.93.64,3.85,2,5.41,1.53,1.38.77,3,.47,4.57-1.87,1.63-3.25.52-4.59-.82,0-1.75.49-3.54-.54-5.62-1,1.36-1,3.22-2.41,4-3.83-2.68-2.35-7-3.47-10.63-1,.56-.42,2.18-1.63,2.64-2.74-1-2.56-3.56-3-5.76.28-4.39-1.3-8.91.84-13.18,1.85-1.8,3.11-.23,4.47.78C173.24,55,173.57,56.68,175.12,57.08Z"/><path class="cls-24" d="M125.08,9.07a17.46,17.46,0,0,1,9,4c.69,1.4,2.86,1,3.27,2.76a8.72,8.72,0,0,0-1.3,3.33c-2.55,1.6-4.84-.44-7-1a24.55,24.55,0,0,0-10.23-.92c-3-.62-6.15-.93-9.06-2.11-2-.87-4.11-1-6.14-1.56-2.34-.66-3.72-1.89-3.75-4.41a6.22,6.22,0,0,1,.39-2.3,2,2,0,0,1,1-1,2,2,0,0,1,1.35.43c3.29,3.19,7.84,2.1,11.68,3.43a15.5,15.5,0,0,1,2.7.69c3.52,2.31,7.85,1.63,11.79,3.54C128.16,11.45,124.57,11.92,125.08,9.07Z"/><path class="cls-25" d="M165,39.24c2,1.55,3,3.75,4.06,5.88.66,1.39,1.15,2.77-.11,4.11-1.38.56-2.82.28-4.25.27-2.62-3.44-7-4-10.32-6.41a6.83,6.83,0,0,1-3-4.92,4.69,4.69,0,0,1,1.52-3.37c2.22-1.11,3.82,0,5.31,1.47a13.06,13.06,0,0,1,.9,1.07C160.69,39.17,162.79,39.38,165,39.24Z"/><path class="cls-26" d="M125.08,9.07c1.09,1.61,3,1.86,4.51,2.84.91.6,2.4.9,1.88,2.41-.4,1.14-1.86,1.08-2.57.73-3.78-1.86-8.69-.25-11.85-3.9.11-1.44-.29-2.54-1.92-2.79-3.45-.71-6.68-2.14-10.1-2.95a4.91,4.91,0,0,1-2-1,.91.91,0,0,1,0-1.32l3,0,2.84.15C114.24,5.39,120.16,5.86,125.08,9.07Z"/><path class="cls-27" d="M153.09,35.05,152,38.21C146.24,36.16,143,31,138.4,27.35c-1.78-2.79-4.24-5.46-1.9-9.12a2,2,0,0,1,.5-2c-.52-1.47-3.2-1-2.91-3.19,2.22.57,4.38,1.24,5.87,3.17-.07,4.81,1.76,8.51,6.23,10.69,2.11,1,3.1,3.33,5.09,4.51C152.29,32.44,153.57,33.31,153.09,35.05Z"/><path class="cls-28" d="M151,32.19c-3.22-2.46-6.66-4.67-9.6-7.43C139,22.51,138,19.49,140,16.24l4.06,3c1.36,1.66,3.94,2.19,4.38,4.7-.17.72-.91,1.49-.14,2.12.2.17.28-1,.93-1.27,1.51-.25,2.64.56,3.78,1.33.86,1.18,2.7,1.31,3.14,2.94C154.43,30.17,151.68,29.48,151,32.19Z"/><path class="cls-29" d="M151,32.19c-1.75-6.79,2.82-3.08,5.14-3.09a12.34,12.34,0,0,1,3.94,4c-.53,1.44-.67,3.08-2.06,4.1-1.5-1-2.84-2.4-4.9-2.17C152.39,34.1,151.68,33.14,151,32.19Z"/><path class="cls-30" d="M168.28,49.14c1.18-1.16.64-2.66.78-4a45.06,45.06,0,0,1,6.06,12c-.4,2.17-1.15,1.52-2,.24-1.25-2-2.49-3.91-5.1-4.21a2.89,2.89,0,0,1-1.39-2.17C166.79,50,167.2,49.26,168.28,49.14Z"/><path class="cls-31" d="M165,39.24c-2.65,1.7-5,1.69-6.91-1.17,1-1.26,1.54-2.85,2.91-3.82C163.33,35.11,163.39,37.8,165,39.24Z"/><path class="cls-32" d="M148.06,24.13c-.68-2.17-4.08-2.08-4-4.86A17.42,17.42,0,0,1,153,26.16l-3.92-1C148.15,25.37,147.81,25,148.06,24.13Z"/><path class="cls-33" d="M161,34.25c.41,2.32-1.18,3.12-2.91,3.82,0-.28-.07-.56-.1-.84.31-1.56-.68-3.77,2.06-4.1Z"/><path class="cls-34" d="M182,83.12c0-1.66,0-3.31,0-5l.87-2,.33,1a7.88,7.88,0,0,1,0,4.66,2.88,2.88,0,0,1-1.33,2.45c-.07-.19-.15-.39-.23-.59Z"/><path class="cls-5" d="M164,33.25a2.34,2.34,0,0,1,1.07-2.13c0,1.33,1,2.66,0,4Z"/><path class="cls-5" d="M157.1,26.11c.7-.21,1.41-.89,2.14-.14s0,1.44-.18,2.14Z"/><path class="cls-35" d="M20,144.15l-.92-3c4.23-1.13,2.65-3.24.8-5.23-1.36-1.45-4.12-2-3-4.92a3.29,3.29,0,0,1,1.86-.87c2.15.73,2.79-1,3.76-2.26,3,.71,3.29,3.32,3.91,5.69,1.47,3,1.32,6.34,2.28,9.48,2.23,7.29,8.4,10.61,13.85,14.74a3.45,3.45,0,0,1,1.06,4c-1.72,2-3.64.19-5.47.29-3.47-2.85-7.4-5.18-10-9A15.37,15.37,0,0,0,24.21,149Z"/><path class="cls-36" d="M71,178.14A28,28,0,0,1,63.08,176c-.71-.43-1.76-.82-1.85-1.56-.61-4.85-3.51-3.2-6.18-2.31-3.67-.48-6.45-2.56-9-5a2.27,2.27,0,0,1,1.31-.89c.53-.31.37.48.26-.18,0-.11-.47-.19-.84-.34-1.93-1.48-1.27-2.81.19-4.09,1.27-.63,2.93-1,3.78-.07,4.94,5.28,12.37,5.25,18.09,8.76,1.06,1.62,2.94,1.92,4.47,2.78C72.3,174.66,77.63,179.13,71,178.14Z"/><path class="cls-37" d="M71,178.14c.47-.56,2.91,1,1.6-1.36-.85-1.5,0-2.5.46-3.68a1.84,1.84,0,0,1,1.3-.35c2.81.95,5.58,2.1,8.63,2.05.94.66,1.32,1.77,2,2.61.73,1.1,1.72,2.13,1.1,3.64C81.12,180,75.82,180.31,71,178.14Z"/><path class="cls-38" d="M86.14,181.05l-1.91-3a9.6,9.6,0,0,1-.54-7.23,7.84,7.84,0,0,1,.54-1.39,4.84,4.84,0,0,1,1.47-1.65,4.15,4.15,0,0,1,1.38-.45,3.74,3.74,0,0,1,1.4.26,1.67,1.67,0,0,1,.87,1.73,10.1,10.1,0,0,0-.58,7.63,6.36,6.36,0,0,1,.17,1.38,2.86,2.86,0,0,1-1.89,2.76A6.93,6.93,0,0,1,86.14,181.05Z"/><path class="cls-39" d="M55.05,172.15c1.2-1.63,2-3.85,4.82-3,2.4.76,2.05,2.42,1.85,4.32-.08.78.88,1.67,1.36,2.5C60.32,174.9,57.41,174.08,55.05,172.15Z"/><path class="cls-40" d="M47.09,162.11c-.65,1.36-1.52,2.8,1.06,3a1.39,1.39,0,0,1,.16,1.83l-2.26.15c-3.11-1-5.55-3-7.94-5,1.66-1.38,3.31-.12,5,0C44.42,160.16,45.76,160.57,47.09,162.11Z"/><path class="cls-41" d="M87.05,181.09c.38-1,.75-2.06,1.12-3.09,1.45-.2,2,.52,2,1.9,0,1.06-.09,2.13-.13,3.19L88,182Z"/><path class="cls-42" d="M24.21,149c2.21.49,3.64,1.73,3.87,4.09A8.82,8.82,0,0,1,24.21,149Z"/><path class="cls-43" d="M18.91,130.87l-1.81.33c-.84,1-1.28,3.36-3.16,1-2.88-3.6-3.7-8.24-6.08-12.1-1.12-2.14-1.17-4.55-1.66-6.85-.15-1.14-.06-2.3-.16-3.45-.41-4.75-.39-4.77,4.22-3,3.3,2,5.27,5.28,7.44,8.34a26.51,26.51,0,0,1,1.2,4.29C18,123.21,20.72,127,18.91,130.87Z"/><path class="cls-44" d="M13.94,132.17c1.06.27,2.38,1,1.71-1.26-.19-.64.24-1.29,1-1,.27.1.29.84.42,1.29A2.52,2.52,0,0,0,19.35,134c2.49.62,3.21,2.69,3.63,4.81.25,1.23.57,2.86-.59,3.69-1.47,1.06-2.14-1-3.33-1.34C17.23,138.2,14.8,135.64,13.94,132.17Z"/><path class="cls-17" d="M6.94,113.39q.45,3.35.92,6.68l-1.77-1c.49-3.49-1.61-6.75-.91-10.26C7.76,109.59,5.85,112.07,6.94,113.39Z"/><path class="cls-5" d="M11,133.13c-2-.18-3-1-1.89-3.08Z"/><path class="cls-5" d="M12.18,135.91c-3.2.28-.51-1.91-1.13-2.71C12.19,133.78,12,134.92,12.18,135.91Z"/><path class="cls-5" d="M183.24,81.8l0-4.66c1.42,1.44.62,3.27.86,4.92A2.65,2.65,0,0,0,183.24,81.8Z"/><path class="cls-45" d="M182,85.24l1.9,1.61c0,.45,0,.9.05,1.35-.59,1.16-.65,3-2.76,2.34-1.53-1.28-3.63-2-4.41-4.07C178,83.7,180.09,85,182,85.24Z"/><path class="cls-46" d="M181.18,90.08c1.46.17,1.8-1.31,2.76-1.88l.09,3c-.36.56-.73,1.12-1.1,1.68-.62.66-1.27.83-1.92.08A1.93,1.93,0,0,1,181.18,90.08Z"/><path class="cls-47" d="M182,107.11l-1.85,3.09c-.77,0-.55-1.74-1.09-1.08-.95,1.16-1.83,1.91-3.27,1.44s-1.75-1.85-1.88-3.17a11.83,11.83,0,0,1,.46-5.81c1.39-2,4.41-.2,5.69-2.45C184.05,101,181.14,104.5,182,107.11Z"/><path class="cls-48" d="M180.07,99.13c.29,5.64-3.06,2.09-5,2-1.95.31-2.13-1.42-2.88-2.5-.3-1.27-1.84-2.22-1-3.8a3.1,3.1,0,0,1,2-.56,15.74,15.74,0,0,1,4.76,1.31c1,.54.71,1.67,1.15,2.47Z"/><path class="cls-49" d="M181.18,90.08c.1,1.24-.47,2.88,1.75,2.78A2.82,2.82,0,0,1,181,96.09c-.66-.54-1.77-.15-2.24-1.09-.32-1.22.16-2.6-.79-3.68-1.39-1.83-5.21-.11-5.42-3.69.25-1,1.06-1.44,1.89-1.86a3.7,3.7,0,0,1,1.36-.26,2,2,0,0,1,1.17.66C178,87.9,181,87.51,181.18,90.08Z"/><path class="cls-50" d="M179.1,95.17c.78,0,1.55,0,1.9.92l-2,2c-.84-.38-.91-1.13-.92-1.91A1.71,1.71,0,0,1,179.1,95.17Z"/><path class="cls-51" d="M177,86.17h-.46l-.44-.14c-1.17-1.25-5.17,1.34-4-3,3.63-2.29,6.78-.76,9.87,1.24h0a2.08,2.08,0,0,0,.08,1C180.62,87.19,178.43,84.69,177,86.17Z"/><path class="cls-52" d="M70.25,5.32c3.29-.29,6.66.06,9.83-1.22a3.44,3.44,0,0,1,.62,3.72c-.81,1.41-2.19,2.27-3.26,3.43-2.88,1.61-6.12,1.61-9.25,2.15-2.83-.05-5.51-.36-6.41-3.72C63.8,6.66,67.61,7.12,70.25,5.32Z"/><path class="cls-53" d="M22.93,36.89c1-2.25,3-3.48,4.86-4.89,1.15-.46,1.79-2.69,3.18-1.68,1.82,1.32.59,3.33.2,5.06-1.65,3.81-3.22,7.67-6.63,10.35a4.36,4.36,0,0,1-5.09.65c-1.35-.74-2-1.72-.85-3.17C20.78,41.61,21.89,39.28,22.93,36.89Z"/><path class="cls-54" d="M70.25,5.32C68,7.63,64.87,8,62.08,9.13,60.5,11.34,57.36,11.66,56,14.2c1.4.41,3.05-.52,4.23.82.26,1.93-1.49,2.08-2.53,2.88-2.71,2.28-5.06-.27-7.58-.56-.69.55-.18-2.63-1.4-.44-1.23.68-2.45,1.41-3.72.09C52.74,11.69,60.76,6.9,70.25,5.32Z"/><path class="cls-55" d="M45,17l4.09-1c1.43,2.17-.55,3.7-1,5.52-1.63,2.54-3.22,5.14-6.71,5.34C40,25.77,37,26,38,22.9a1,1,0,0,1,.13-.7,44.21,44.21,0,0,1,4-3Z"/><path class="cls-56" d="M86.09,2.14c3.29-.6,1,2.46,2.13,3.26.17,3,1.92,6.11-.8,8.84-1.5.5-2.16-.63-2.94-1.52a4.07,4.07,0,0,1-.9-3.23C84.14,6.92,81.4,6,80.82,4Z"/><path class="cls-57" d="M30.16,35.24,31,31.08c-1.53-.63-2.06,1.13-3.23.92,1.12-3,4.26-3.94,6.15-6.14a4,4,0,0,1,2.47,3.08c-.69,1.95-2.09,3.5-3.07,5.29C32.44,35.07,31.47,35.7,30.16,35.24Z"/><path class="cls-58" d="M36.12,29c-.86-.94-2.21-1.55-2.17-3.11l4-3c.1,2.11,2.42,2,3.31,3.33C40.68,29.24,39.33,30.86,36.12,29Z"/><path class="cls-59" d="M80.82,4c2,1.18,4.86,1.84,3.16,5.25l-.6,0c-1.21-.11-2.48,0-3.28-1.23,0-1.31,0-2.63,0-3.94A.64.64,0,0,1,80.82,4Z"/><path class="cls-60" d="M22.93,36.89C22.56,39.5,22,42,19.21,43.18c-.36-.18-.52-.4-.47-.67s.12-.43.22-.43c.94-1.2,2.11-2.26,2.34-3.88Z"/><path class="cls-54" d="M42.15,19.18a5.45,5.45,0,0,1-4,3C38.86,20.4,40,19.16,42.15,19.18Z"/><path class="cls-61" d="M6.94,113.39l-1.77-4.54c-.91-1-.89-2.25-1-3.48.55-2.05.87-4.09-.18-6.1l-.08-.12a5.49,5.49,0,0,0,0-.81L7.34,96a3.32,3.32,0,0,1,2.77-.87c5.11,1.22.28,4.16,1.07,6.14.12,2.29.7,4.64-.84,6.72l-3.4-1.61Z"/><path class="cls-62" d="M4.23,84.15l3.92-17a1.54,1.54,0,0,1,2.17,1.14c0,2.17,1.5.09,1.95.79,1.26,1.82.31,3.55-.17,5.3a11.6,11.6,0,0,1-.51,1.27c-1.21,2,.27,4.54-1.23,6.5a1.05,1.05,0,0,1-1.25,0L7.2,79.34C5.06,80.32,8,84.44,4.23,84.15Z"/><path class="cls-63" d="M10.07,96.22,7.34,96c-.91-1.12-2.62-1.69-2.46-3.55-.39-1.49-.39-2.79,1.71-2.29,5.17,1.25,10.44.14,15.62.74a5.17,5.17,0,0,1,1.59.5c3.88,5.08-1.93,3.13-3.22,4.46a9.29,9.29,0,0,1-1.48.32C16.1,97,13.07,94.23,10.07,96.22Z"/><path class="cls-64" d="M6.83,87c3-2.38,5.92,0,8.84.58.6-1.89-1.35-2.29-1.55-3.54q-.42-.37-.27-.72c.09-.24.18-.36.28-.36,2.53-.18,3.22,2,4.53,3.47a2.6,2.6,0,0,0,2.82.76,10.69,10.69,0,0,1,2.71-.08,3.62,3.62,0,0,1,1.94.79,1.73,1.73,0,0,1,.17,1.37,6.78,6.78,0,0,1-3.52,2.31c-2.52.2-5-.19-7.56-.06a15.36,15.36,0,0,0-4.45-1.68C9.21,89.2,7.46,88.85,6.83,87Z"/><path class="cls-65" d="M14.21,83q-.06.48-.09,1L12,83.17a.91.91,0,0,1-1.39-.45c.19-2.54-.67-5.14.38-7.65h0c1.61-1.83,1.64-5.64,5.64-4.47C17.4,75.06,16.06,79.1,14.21,83Z"/><path class="cls-66" d="M6.83,87l4.22,2.12c.56,2.21,3.15.3,4,2l8,.08a.55.55,0,0,1,.32.53c0,.22-.07.32-.13.32-5.92-.27-11.91,1.09-17.77-.78a11.22,11.22,0,0,0-.57,1.24C2.79,89.64,4.73,88.27,6.83,87Z"/><path class="cls-67" d="M11.13,82.87a5.1,5.1,0,0,1,.91.3,2.91,2.91,0,0,1-3.41,1.06c-.79-.34.28-1.35.48-2.07a5.55,5.55,0,0,1,.82.07C10.58,82,10.66,82.78,11.13,82.87Z"/><path class="cls-68" d="M19,42.08c.08.36.17.73.25,1.1.38,3.14,1.76,3.69,4.42,1.86,3.49-2.41,4.31-6.56,6.52-9.8l2.75-1.31.43.51c-.56,1.72-1.44,3.46.25,5.08-.48,2.39-2.08,4.12-3.53,5.92A67.71,67.71,0,0,0,20,63.13c-.82,1.39-.63,3.37-2.41,4.22a1.61,1.61,0,0,1-1.18-.75A16.25,16.25,0,0,1,15,60.12,18,18,0,0,1,16.76,54c.68-1.21,1.83-2.34.63-3.83-1.54.48-2.24,2.55-4.19,2.16-.06-.39-.12-.79-.19-1.18Q16,46.6,19,42.08Z"/><path class="cls-69" d="M18,54l-1.94,6.12a.76.76,0,0,1-1,.33c-.67-.93-2.35.62-2.7-1.1A6.07,6.07,0,0,1,13,56c.05-1.25.11-2.5.16-3.75,1.9-1.08,2.24-4,4.88-4.18C19.46,50.08,17.75,52,18,54Z"/><path class="cls-70" d="M13,56l.05,4.08a5.76,5.76,0,0,1,1.7,3,5.4,5.4,0,0,1,0,2.82c-.54,1.35-1.12,2.66-2.65,3.18-3.07,2.76-2.08-2.47-4-2,.32-.67.64-1.33.95-2,1.17-1.56,1.31-3.48,1.81-5.27A5.29,5.29,0,0,1,13,56Z"/><path class="cls-71" d="M10.91,59.86c.26,2,.61,4.13-1.81,5.27A7.17,7.17,0,0,1,10.91,59.86Z"/><path class="cls-17" d="M4,99.27a4.69,4.69,0,0,1,.18,6.1Z"/><path class="cls-72" d="M92.1,3.19c1.29-1.23,2.58-.07,3.87,0a3.28,3.28,0,0,1,2.19,3,9,9,0,0,1-1,5.18c-1.37,2.19.1,4.31.2,6.48.06.56.1,1.1.14,1.66.1,6.28-.19,12.55.09,18.81,0,7.15-.23,14.29-.07,21.44A55.92,55.92,0,0,1,97.29,69c-.34,1.23-.78,2.38-2.3,2.53-2.7-1-2.12-3.37-2.27-5.39-.26-3.58.38-7.2-.57-10.75a8.93,8.93,0,0,1,0-3.64c1.13-8,.4-16,.46-23.92,0-6.81.51-13.64-.35-20.44C91.76,6,91,4.62,92.1,3.19Z"/><path class="cls-73" d="M93.09,52.12v3A55.12,55.12,0,0,1,93,71.24c-3.17-1.21-2.31-4-2.33-6.31-.1-14.23,0-28.46,0-42.68-.33-4.84.81-9.77-.72-14.56a7.69,7.69,0,0,1-1-1.21,1,1,0,0,1,.1-1.39,3.12,3.12,0,0,1,3-1.9c.32,1,.65,2,1,2.94,1.1,6.23.44,12.52.42,18.77C93.46,34,94.13,43.06,93.09,52.12Z"/><path class="cls-74" d="M90.2,6.11C92.54,6.56,92,8.42,92.06,10c0,3.73,0,7.45,0,11.18-.83.47-.14,2.67-2.11,1.87-1.39-1.27-.6-3.48-2-4.73a4.06,4.06,0,0,1-1.53-2.23A2.26,2.26,0,0,1,87,14.11c2-2.68-.94-6,1.18-8.71a5.46,5.46,0,0,1,.83-.31l.06,1.09c.9,1.07.06,2.47.7,3.69.09.56,1.06-.23.43,0-.27.09-.39,0-.44-.21C89.52,8.43,89.22,7.2,90.2,6.11Z"/><path class="cls-75" d="M97.21,6C96.8,5,96.39,4.11,96,3.19l2.3-1.14,4.83,1.06a7.91,7.91,0,0,0,.13.85c-.4,1-1.63,1.15-2.21,2a1.69,1.69,0,0,1,.08.5C99.67,7.34,98.23,8.35,97.21,6Z"/><path class="cls-76" d="M119,177c-.32,0-.63,0-1,0-2.94-1.12-5.48-3.16-8.61-3.66-.08.07-.32-.26-.24-.1.3.59-.31-.11,0,.49-1.85,3-4.75,1.72-7.3,1.85a2.56,2.56,0,0,1-2.29-2.42c.35-2.3,2.3-3,4-4a8.77,8.77,0,0,1,2-1c7.23-.39,13.65-3.7,20.42-5.74,1.62,0,.71,2.14,2,2.42a.43.43,0,0,0,.28-.68c-.1-.2-.2-.3-.34-.3a3.13,3.13,0,0,1-1.16-1.34c.53-2.18,2.24-2.86,4.14-3.31a3.18,3.18,0,0,1,2,.45c1.06,3.28,3.65,5.32,6.1,7.47-3.39,4-8.24,5.39-13,6.93-.4.31-1,.6-1.31.3-1.49-1.74-3.1-1.49-4.8.92C119.63,175.87,119.5,176.55,119,177Z"/><path class="cls-77" d="M102,175.17c1.81-2.4,5.53,1.45,7-2.13h0c4.34-1.66,6.45,1.76,9.08,4-3.21,1.45-7.08.68-10,3l-1.94.13a11.83,11.83,0,0,0-5.23.77,3.32,3.32,0,0,1-.67-2.73A4.44,4.44,0,0,1,102,175.17Z"/><path class="cls-78" d="M161.07,149.11c-1,1.29-2,2.59-3.08,3.89l-1.67,1.19c-.92-.09-1.84.16-2.76.06-2.3-.46-4.45-.95-3.79-4.22.16-.79-1.38-.09-1.82-.83.86-4.15,3.6-6.75,7.18-8.64a3,3,0,0,1,2.72,3.09c-.15,2.71-2.68,3.95-3.87,6.13,2,.08,3.5-.92,5.16-1.52C159.92,148,161.12,147.27,161.07,149.11Z"/><path class="cls-79" d="M119,177c1.41-1.24-2.89-6.65,3.26-4.46,0,0,.46-.54.4-.75-.79-3,.95-3.26,2.86-2.25,2.35,1.25.89,2.41-.4,3.69-.76.76.51.69,1,.9C124.29,176.44,121.26,175.76,119,177Z"/><path class="cls-80" d="M139.08,167.21c-4.54-1-6.72-3.61-5.9-7.12a2,2,0,0,1,2.09-1.53,3.32,3.32,0,0,1,2.52,2.12,6.84,6.84,0,0,0,1.46,2.83c.7,1,2.13,1.91.71,3.39C139.67,167,139.38,167.12,139.08,167.21Z"/><path class="cls-81" d="M140,166.9a2.81,2.81,0,0,0-1.88-2.84c-.44-2.12,1.84-2.65,2.43-4.16a3.59,3.59,0,0,1,1.57-1.15,2,2,0,0,1,1.23.24c.76.81,1.86.81,2.83,1.13a3.14,3.14,0,0,1,1.2,2.23C145.11,164.24,142.89,166.14,140,166.9Z"/><path class="cls-82" d="M147.34,162.35a2.24,2.24,0,0,1-1.28-2.24c0-.23,0-.46-.05-.69,0-3.06,2.82-2.4,4.44-3.32a2.94,2.94,0,0,1,2-.41c.68.33,1.15.75.79,1.59Z"/><path class="cls-83" d="M153.22,157.28,152,156.05c-.58-1.89,1.18-2.1,2.09-2.92a2.31,2.31,0,0,1,2.22,1.06Z"/><path class="cls-84" d="M161.07,149.11l-8.75,2.49c-.31-3.88,3.76-4.75,4.73-7.5.63-2.82,1.32-5.58,4.75-6.26,1.43-.43,1,3.47,3,1.38,1.58-1.67-.76-1.92-1.35-2.79a8.88,8.88,0,0,1-1-1.59c-.35-1.19-.36-2.56.56-3.28,2.84-2.24,4.35-5.26,5.87-8.42,1-2,3.07-2.57,5.12-1.34s.7,2.73,0,4.24c-.95,2.24-2.2,4.44-2,7-.51.62-1.1,2.35-1.8.61-.61-1.55-.82-2.82-3.25-2.39,2.71,3.05,2.58,6,.53,9.38C165.65,143.76,164,146.9,161.07,149.11Z"/><path class="cls-85" d="M173,98.05c.69,1,1.37,2,2.05,3.08,0,1.66-.05,3.33.06,5,.1,1.36-.74,3.44,1.39,3.67,1.86.21,2.07-1.77,2.51-3.16.23-.73-.06-1.73,1.43-2-.09,1.93-.18,3.78-.26,5.62a26.27,26.27,0,0,1-2.15,8.89c-2.8,1.43-6,1.38-8.94,2.56-1.18.47-2.37-.88-2.79-2.31.69-6.71,3.66-13,3.72-19.81a3.89,3.89,0,0,1,.73-1.45A1.78,1.78,0,0,1,173,98.05Z"/><path class="cls-86" d="M167.05,120.11c1,.43,2.58,1.56,3.13.72,2.16-3.28,5.07-1.93,7.83-1.74-1.66,4.8-3.31,9.61-6,14-1-2.82-1-5.48,1.28-7.77.68-.67,1.77-1.41.73-2.43s-3.28-1.17-3.48-.07c-.92,5.17-6.7,7.26-7.46,12.38a2.34,2.34,0,0,1-1,2.94,17.11,17.11,0,0,0-5,6,3,3,0,0,0-2-3c-.54-1.44.31-2.56,1-3.65,2.93-4.94,6.1-9.72,8.38-15C164.82,121.35,165.24,119.79,167.05,120.11Z"/><path class="cls-87" d="M100.93,178.07c0,1,0,1.89-.07,2.84-1.94.5-4.28-1.22-5.91,1.05-1.4.19-2.74.28-2.77-1.73,1.08-1.53,2.76-2.08,4.39-2.72A9.4,9.4,0,0,1,100.93,178.07Z"/><path class="cls-88" d="M96.9,178c-1.48.94-2.77,2.28-4.72,2.2l-2-.33-2-1.9c-.07-.25-.14-.51-.19-.76-.56-2-1-3.87,1-5.29a1.5,1.5,0,0,1,1.3.18c1.12,1.16.55,3.49,2.71,3.92,2.78,0,1.29-3.76,3.67-4,1.61,1,1.53,2.5,1.43,4.06A3,3,0,0,1,96.9,178Z"/><path class="cls-89" d="M139.08,27.07c4.8,3.15,8.64,7.42,12.94,11.14a9.65,9.65,0,0,0,3,4,43.68,43.68,0,0,1,9.52,12.36,37.52,37.52,0,0,1,3.55,11.59,10.19,10.19,0,0,0,2,6,10.88,10.88,0,0,1,1.68,10.41c-3,.93-3.8.57-4.53-3.11a96.54,96.54,0,0,0-3.08-12.55c-4.6-13.4-12.3-24.53-23.82-32.91-5.66-6.58-13.49-9.79-21-13.51-1.57-.78-3.47-1.07-4.39-2.79,1.06-2,2.73-.78,4.06-1A31.46,31.46,0,0,1,139.08,27.07Z"/><path class="cls-90" d="M168.05,66.14c-2.55-9-7.92-16.4-13.06-24,3,2.75,8.63,1.77,9.9,7a2.23,2.23,0,0,1,2,1.8,2.18,2.18,0,0,1,1.19,2.14Q168.06,59.62,168.05,66.14Z"/><path class="cls-91" d="M171,83.1c.71-3.75-.89-7.29-.94-11a20.36,20.36,0,0,1,0-2.47c.13-1.11-1.82-2.8.38-3.23S173,67.94,173,69.7a23.83,23.83,0,0,0,2,10.43,2.9,2.9,0,0,1,3,1l4,2c0,.38-.07.76-.11,1.14-3.26-1.19-6.51-2.8-9.81-.1l-.57.33-.61-.24A.88.88,0,0,1,171,83.1Z"/><path class="cls-92" d="M178,81.14c-1.1-.06-2.28.16-3-1,0-.65-.11-1.44.19-1.93.9-1.45,0-3.72,2.07-4.56.26-.1,1.1.42,1.12.7C178.63,76.62,180.83,79.05,178,81.14Z"/><path class="cls-93" d="M119.07,17.12h-4.15c10,4.75,19.49,8.15,26.14,16-1.84,1.39-3.09-.2-4.44-1a108.91,108.91,0,0,0-18.87-8.94q-.7-.21-1.38-.48a20.32,20.32,0,0,0-7.18-1.51c-4.3-1.33-9.26.1-13.11-3.12,0-.32,0-.64,0-1,2.1-2.57,4-5.64,8.12-4,.57.22-.75,1.21.36,1.08,1.46-.16,3,.05,4.39-.42a1.22,1.22,0,0,1,1.2.23l8.86,2.1c.37.18.5.38.4.59S119.19,17.12,119.07,17.12Z"/><path class="cls-94" d="M119.07,17.12c0-.31,0-.63-.08-.94,5.29-2,9.77.91,14.45,2.46,1.08.35,1.85.48,2.66-.34A.59.59,0,0,1,137,18c-2.17,3.65,1.37,6,2,9C132.68,23.21,126.54,18.83,119.07,17.12Z"/><path class="cls-95" d="M105,4.16l11,3c1.51,2.43-1.07,2.76-2,3.94-3-.62-6-1.41-9-1.81-1.91-.25-3.14-.76-3.07-2.89,2.33-1.27,3.72,1.1,5.63,1.27C106.31,6.89,104.48,6.35,105,4.16Z"/><path class="cls-96" d="M110.13,14.08l-1.17.15a5.91,5.91,0,0,1-4.87-.14c-4-2.46-5,3.08-8,3.06.06-2-2.27-4,0-6,2.72.82,2-4.11,4.92-2.94-.09,2.3.4,3.77,3.21,4.3C106.16,12.88,108.47,12.47,110.13,14.08Z"/><path class="cls-97" d="M101,8.21c-1.88.62-1.73,2.52-2.47,3.87-.41.73-.67,2.15-1.93,1.29-.46-.32-.36-1.45-.52-2.22A9.2,9.2,0,0,0,97.21,6C98.4,7,99.84,6,101.1,6.45Z"/><path class="cls-98" d="M105,4.16c.89,1.87,2.78,2.7,4.68,4.36a15.2,15.2,0,0,1-7.78-2.14L101,6c-1-2.65,1.26-1.56,2.21-2Z"/><path class="cls-99" d="M114,11.08l2-3.94c2.58.78,3.49,2,1,4Z"/><path class="cls-100" d="M137,18a7.7,7.7,0,0,0-.94.26c-.68-.25-1.9-.09-1.75-1.12.25-1.61,1.62-1,2.65-.92C137,16.85,137,17.45,137,18Z"/><path class="cls-101" d="M166.87,51l-2-1.8c1.12-1.53,2.24-1.72,3.39,0Z"/><path class="cls-102" d="M148.06,24.13l1,1c-.14.75-.11,2-.46,2.13-1,.35-1.68-.64-2-1.46C146,24.41,147.12,24.31,148.06,24.13Z"/><path class="cls-103" d="M18,119.31c-1.05-1.17-.49-2.72-.94-4a24,24,0,0,1-2.84-7.59c-.39-1.86-.13-3.79-.67-5.63a13.7,13.7,0,0,1-.45-1.37c-.7-3.08.45-4.33,3.58-3.57a6.44,6.44,0,0,1,2.66,5.1c1.53,18.61,9.85,33.77,23.55,46.18a79,79,0,0,0,36.39,16.8c2.42.45,5.51-.06,6.94,2.95l-1,1c-1.65,1.45-3.67,1.31-5.66,1.32-2.47.12-4.8-.68-7.18-1.15-7.11-1.61-13.49-5.11-20.17-7.82a24.84,24.84,0,0,0-5.91-4.31,10.22,10.22,0,0,1-1-.84,19.35,19.35,0,0,0-3.58-2.79c-2.91-2.47-5.43-5.34-8.22-7.93-3.86-3.11-5.51-7.77-8.23-11.67a7.7,7.7,0,0,0-3-6C18.4,126.25,19.35,122.21,18,119.31Z"/><path class="cls-104" d="M52,160.11c6.68,2.67,13.08,6,20,8,.74.9,2.18,1.08,2.53,2.41a1.84,1.84,0,0,1-.79,1.94c-1.73,0-3.66.78-4.75-1.38-4.64-1.06-8.83-3.57-13.63-4.12-1.53-.17-2.08-1.46-2.76-2.58-1.29-2.15-3.32-2.51-5.58-2.3-1.34-.05-2.67-1-4,0a6.72,6.72,0,0,0-1-4c.89-1.58,1.76-3.21,4.05-2h0C47.24,158.63,50.3,158.4,52,160.11Z"/><path class="cls-40" d="M46.13,156.06l-4.05,2c-5.34-2.94-10.5-5.75-13.33-11.88-1.86-4-2-8.32-3.58-12.28l8.9,11.18A15.73,15.73,0,0,0,42.18,153,5.82,5.82,0,0,1,46.13,156.06Z"/><path class="cls-105" d="M18,119.31c2.06,2.57,2.7,5.84,4.22,8.68,1.76,4.17-.81,3.45-3.25,2.88C18.23,127.05,17.06,123.27,18,119.31Z"/><path class="cls-106" d="M69.06,171.11a8.34,8.34,0,0,0,5,1c1-.27,1.2.24,1.17,1.07a.79.79,0,0,1-1.18,0h-1C71.35,173.22,68.73,175.15,69.06,171.11Z"/><path class="cls-107" d="M48.31,167c-.05-.61-.11-1.22-.16-1.83l2.34.36C50.28,166.76,49.43,167.06,48.31,167Z"/><path class="cls-108" d="M75.07,173.1l-1-1c0-.66,0-1.32,0-2,1.56-1,3.3-.24,4.93-.48,2,.15,3.94-.36,5.85.35a18.87,18.87,0,0,0-.62,8.08c-1.35-.57-1.1-1.82-1.24-2.9C80.22,175,77.48,174.68,75.07,173.1Z"/><path class="cls-36" d="M75.07,173.1c2.67.58,5.53.41,7.92,2.05-3.52,1.71-6.24-.07-8.92-2Z"/><path class="cls-109" d="M86.17,168.14c-6.6-2-13.53-2.57-20-5.1-8.79-3.41-17.12-7.42-24-13.94-4.55-6.07-9.95-11.51-13.44-18.39-2.33-4.59-5.21-9-6.27-14.06-.36-1.71-1.85-5.77,3.09-3.77,2.35,4.7,3.65,9.84,6.22,14.49,3.56,6.4,8.45,11.72,13.19,17.18a68.85,68.85,0,0,0,40.61,20.5c1.23.56,2.57,1.06,1.57,2.84A1.8,1.8,0,0,1,86.17,168.14Z"/><path class="cls-110" d="M89.06,169.11,88,167.88c-.63-1.06-.22-2,.24-3,1.33-4.7-.33-9.62,1.07-14.31,3.64-3.86,3.53.1,4.38,2.09a5.84,5.84,0,0,1,.07,1.56,22,22,0,0,0,.12,8.89,7.28,7.28,0,0,1,0,2.33c-.59,1.92-.17,4-.79,5.89-.54,1.65-1.35,2.91-3,.77h0C89.14,171.3,88.48,170.41,89.06,169.11Z"/><path class="cls-111" d="M89.06,169.11c.34,1,.68,2,1,3-2.42,1-1.9,3.22-2.09,5.15C86.33,174.26,86,171.46,89.06,169.11Z"/><path class="cls-112" d="M89.08,166.1A1.94,1.94,0,0,0,88,167.88l-.46.1-.46-.09a1.74,1.74,0,0,0-2-1.79c-.46-3.54,1.59-3.11,3.81-2.42A1.68,1.68,0,0,1,89.08,166.1Z"/><path class="cls-109" d="M84.85,170l-5.74.11c-.3-.14-.42-.32-.38-.53s.11-.36.19-.36l6.21-.06C85.05,169.41,85,169.69,84.85,170Z"/><path class="cls-113" d="M15.1,107.08C16,109.75,17,112.4,17,115.27c-3.11-1.62-3.53-5.7-6.67-7.29-.12-2.61-.23-5.23-.35-7.84,1.78-1.46,3-.61,4.1,1h0C15.33,103,13.75,105.27,15.1,107.08Z"/><path class="cls-114" d="M179.1,95.17l-1,1a7.65,7.65,0,0,1-5-1.11c-2.36-1.12-4.54,1-6.88.42a19.76,19.76,0,0,1-3.26-.2c-1.67-.5-3.36-1-2.93-3.33a3.86,3.86,0,0,1,1.45-.85,124.84,124.84,0,0,1,16.75-.16l.82.17C181,92.41,179.58,93.8,179.1,95.17Z"/><path class="cls-115" d="M166.06,94.14c2.35.25,4.87-.9,7,.89l-2,.08c-1,1.06.14,2.2-.12,3.29q-.06.39-.09.78a1.78,1.78,0,0,1-2,.28C167.25,98.05,165.65,96.62,166.06,94.14Z"/><path class="cls-116" d="M170.93,98.4c-.8-.72-2.07-1.19-1.84-2.53.19-1.05,1.23-.68,2-.76.67,1,2.17,1.37,1.93,2.94Z"/><path class="cls-117" d="M173.14,87.35c.17,1.76,1.47,1.77,2.77,1.78s2.94-.09,3.12,2l0,0c-3.59,1-7.26.23-10.89.48-2.14-.28-2.75-1.49-2.07-3.46a2.72,2.72,0,0,1,1.68-1.45C169.55,87,171.54,85.58,173.14,87.35Z"/><path class="cls-118" d="M173.14,87.35c-1.68-.6-3.48,2.13-5.08-.2-.38-2.36.93-3.13,3-3.18l.06.55c.89,1.73,3.07.43,4.12,1.78Z"/><path class="cls-45" d="M175.24,86.3c-1.41-.5-3.58.75-4.12-1.78l1-.36c.58,2.2,3.67-.93,4,1.87A2.45,2.45,0,0,1,175.24,86.3Z"/><path class="cls-119" d="M84,9.22l1.18,2.92c-2.28,2-5.39,1.8-8,2.92-2.06.51-4.06,1.32-6.23,1.34a14.6,14.6,0,0,1-7.77-2c-.53-1.39.31-1.66,1.41-1.79s2.32.45,3.23-.6c3.14-.4,6.31-.65,9.25-2,2.24-1,4.46-2.16,7-.84Z"/><path class="cls-120" d="M67.8,12c-1.13,1.92-3.77.09-4.91,2a2.22,2.22,0,0,1-2.81,1.3c-2-.56-3.83-.09-5.89,2,.64-5.68,4-7.22,7.89-8.16A4.87,4.87,0,0,0,67.8,12Z"/><path class="cls-56" d="M84,9.22c-2.47-.89-4.61.92-7,.84a3.4,3.4,0,0,1,3-2C81.45,8.29,83.1,7.53,84,9.22Z"/><path class="cls-121" d="M50.25,17.19c.71-.12,1-2.23,2-.69,1.49,2.34,3.09,1.54,4.85.62,3.22-.18,6-2.86,9.48-1.56,1.91,2.15-.49,2.51-1.47,2.93-4,1.74-7.91,3.93-12.21,5-5.31-.32-5.31-.32-3.69-4.67C49.45,18.26,49.56,17.54,50.25,17.19Z"/><path class="cls-122" d="M67.15,16.16c-3.42-.24-6.64,1.6-10.09,1,1-.61,2-1.21,3-1.81L62.89,14l8.22,1.14C70.36,17.7,68.82,17.17,67.15,16.16Z"/><path class="cls-123" d="M50.25,17.19,50,19c-.78,1-1.1,2.54-2.88,2.25-.37-2.13,2.2-3.19,1.91-5.29C50.51,15.35,49.87,16.78,50.25,17.19Z"/><path class="cls-124" d="M47.15,21.29,50,19c.18,1.35-.73,2.31-1.32,3.18.86,2,2.94-2.61,3.36.91,0,2.69-2.36,3.29-4,4.36-2.62,1.68-4.71,4.09-7.58,5.39a23.92,23.92,0,0,0-7.39,1.29l-.19-.24a5.73,5.73,0,0,1,3.22-5c2.54.63,3.8-1.17,5.17-2.74C44,25.49,45.35,23.11,47.15,21.29Z"/><path class="cls-125" d="M76.83,14a19.33,19.33,0,0,1,8.33-1.82c.62.66,1.25,1.31,1.88,2,0,.68-.05,1.35-.07,2-1.3,1.51-3.1,1.84-4.92,2.14C56,22.49,37.47,36.81,25.44,60c-1.77,3.42-2.19,3.54-4.26,1.27,2.51-9.7,8.87-17.11,15.45-24.05A73.54,73.54,0,0,1,74.12,15.76c2.24-.51,4.55-.21,6.68-1.12C79.41,14.84,77.92,15.57,76.83,14Z"/><path class="cls-126" d="M14.09,101.11a6.88,6.88,0,0,0-4.1-1c-.84-1.28.5-1.51,1-2.07,1.67-1.69,0-1.54-1-1.85,2.48-4.56,6.07,0,9-1.1.08,2.23-1.27,2.39-3,2C13.87,97.69,13.41,99.11,14.09,101.11Z"/><path class="cls-127" d="M12.12,69.14,14,66c1.35-.71,2.13.23,2.95,1l.29.11c.74,1.39,1,2.62-1.08,3l-5.09,5C11.39,73.1,11.75,71.12,12.12,69.14Z"/><path class="cls-127" d="M11.13,82.87l-1.2-.64C11.05,80,8,77.06,11,75.07Q11.08,79,11.13,82.87Z"/><path class="cls-128" d="M16.09,97.16l3-2,1,0a3,3,0,0,1,3.34.08c1.77,5.87,3.53,11.74,1.66,18-3.88,0-1.84,2.62-1.46,3.87,2,6.71,5.79,12.6,9.41,18.54a45.34,45.34,0,0,0,8,10.09c.88.81,3,1.66,1.08,3.49-14.3-12.28-22.46-27.76-23.89-46.59C18,100.3,16.37,99.09,16.09,97.16Z"/><path class="cls-129" d="M23.08,95.12l-3,0c.76-1.14,1.94-1,3.05-1,1.61,0,1.35-.9.93-1.88a3.51,3.51,0,0,1,2.35-1.33c3.35-.31,6.71-.1,10.06-.19,11,0,21.89-.12,32.83.09,2.29,0,6-.79,4.73,4A3.74,3.74,0,0,1,72.58,96a8.93,8.93,0,0,1-2.71.53c-5,.2-9.91.13-14.87,0-2.39-.08-4.73-.91-7.16-.4a24.64,24.64,0,0,1-4,.36c-2.19,0-4.39,0-6.58,0-1.4.07-2.79,0-4.18,0-1.69.06-3.39,0-5.08,0A6.57,6.57,0,0,1,23.08,95.12Z"/><path class="cls-130" d="M26.06,92l-2,.23a4,4,0,0,0-.85-.24c-.05-.29-.11-.58-.18-.86a3.25,3.25,0,0,1,3-2.06.91.91,0,0,1,1.16-.14,2.06,2.06,0,0,1,.36,1.87C27.28,91.46,26.61,91.66,26.06,92Z"/><path class="cls-131" d="M16.11,70.13c1-.76,1-1.9,1.07-3l1.88-4.08a2.23,2.23,0,0,1,.45,2.22c.91-1.36-.26-4,2.57-4.17,1.4.21,1.48.24,1.92-.84,3.65-9.13,9.76-16.58,16.74-23.21,11.47-10.89,25-17.89,40.87-20,1.8-.23,3.57-.63,5.36-1l2.07,1c-.13,2.62-2.57,2-4,2.79-22.31,3.66-40.15,14.42-53,33.23A63.31,63.31,0,0,0,21.35,81.35c-.29,2.28.3,5.25-3.25,5.76-1.3-1.36-2.6-2.71-3.89-4.07C13.6,78.56,16.14,74.53,16.11,70.13Z"/><path class="cls-132" d="M85.07,19.12c.85-1.6,3.09-.38,4-1.94,1.92,1.71.62,4,1,5.95-.15.2-.29.41-.43.62a4.92,4.92,0,0,1-1.23.85c-10.29,2-20.49,4.11-29.58,9.81C42.66,44.55,31.47,58.33,27.1,77.2c-.33,1.46-.76,2.89-1.18,4.33-.88,2.12,0,4.72-1.85,6.56l-3,0c-1.59-1.42-.64-3.17-.42-4.7C25,52.9,48.6,26.92,80.07,20.93,81.75,20.61,83.94,21.17,85.07,19.12Z"/><path class="cls-133" d="M24.07,88.09c.4-2.31-.91-4.88,1-7,3.09-3.67,3-8.52,4.69-12.72C38.14,48.13,52.51,34.47,73.44,28c5.07-1.58,10.18-4.36,15.84-2a2.28,2.28,0,0,1,.1,2.18c-1.09,1.22-2.73,1.23-4.08,1.9-7.37,1.89-14.76,3.57-21.55,7.36C47.38,46.57,36.83,60.14,32,78.2c-.91,2.83-1,5.86-2.13,8.64a3.77,3.77,0,0,1-1.56,1.65,2.3,2.3,0,0,1-2.19-.33Z"/><path class="cls-134" d="M85.07,19.12c1.15.28,2.67-.63,3.62,1.47-7,1.38-14,2.31-20.55,4.93C45.62,34.46,31.32,50.78,24,73.6c-1.51,4.73-3.37,9.4-3,14.52-1.36.76-2.43.64-3-1,3.29-2.76,1.95-6.86,2.71-10.27,5.49-24.45,20.35-41,42.5-51.63A58.89,58.89,0,0,1,85.07,19.12Z"/><path class="cls-135" d="M26.09,88.16l2-.15a9.75,9.75,0,0,1,7.16-.89c2.11,1.62,5,.41,7.14,2a2.07,2.07,0,0,1-.21,2.19c-2,.76-4.16-.28-6.11.68h-10l1.07-.94c1-1,2.26-.92,3.51-1-1.26,0-2.54.09-3.52-.94l-1.07-.1C26.07,88.76,26.08,88.46,26.09,88.16Z"/><path class="cls-136" d="M15,91.05c-2.42-.09-4.88.47-7.47-.41.49-2.28,2.33-1.2,3.49-1.56C12.56,89.37,14.71,88.35,15,91.05Z"/><path class="cls-137" d="M22.08,61.12l-2.52,5.07c-.88-.94-.29-2.09-.5-3.12,2.44-9.28,8.74-16.3,14.08-23.88a10.63,10.63,0,0,1,7-7l12-9,15.08-7c1.38-.1,2.88.26,4-1L76.83,14c2.43.84,5-1,8.58.52-8.87,1.88-16.76,3.16-24,6.66C43.49,29.78,29.74,42.45,22.08,61.12Z"/><path class="cls-138" d="M40.11,32.15q-3.49,3.51-7,7c-.91-1.64-2.33,1.29-2.79-.11-.78-2.35,2.13-3.08,2.74-4.91C34.66,30.81,37.44,31.66,40.11,32.15Z"/><path class="cls-139" d="M16.9,67,14,66l.15-2.88c-.63-1.32.13-2.11,1.09-2.81l.88-.23C15.88,62.47,17.65,64.6,16.9,67Z"/><path class="cls-140" d="M18,54c-1.54-2,.46-3.9.07-5.86C20.92,50.1,18.6,52,18,54Z"/><path class="cls-141" d="M15.19,60.32c-.36.94-.73,1.88-1.09,2.81-1.21-.71-1-1.9-1-3C13.79,60.14,14.78,57.19,15.19,60.32Z"/><path class="cls-142" d="M96.06,60.12v-22c1.11-1.26,0-3,.94-4.3,4.91-2.08,11.08-1.44,13.57,1.73C116,42.38,124.22,43.94,130.42,49c4.09,3.31,6.28,7.58,8.67,11.93,3.67,6.69,7.84,13.18,8.24,21.12.21,4.26,3.61,3.54,6.21,4.12.91.51,2.23.79,1.31,2.33-3.2,1.71-6.59.91-9.93.75-5.77-.42-8.6-3.79-10.23-9.17a59.69,59.69,0,0,0-9.49-18c-5.13-6.91-11.4-13.38-20.44-15.65-5.9-1.48-6.38-1.07-6.37,4.9,0,.83,0,1.66,0,2.5C98.09,56.08,99.47,59,96.06,60.12Z"/><path class="cls-143" d="M96.06,60.12c1.94-2.1.61-4.67,1-7,4.91-1.41,9.16.92,13.15,3a42.48,42.48,0,0,1,11.59,9.34c1.42,1.56,4.32,3.48.74,6-1.2.86.21,1.74.69,2.41,2.06,2.86,3.22,6.18,4.83,9.27s.43,4.86-2.93,5.08a33.07,33.07,0,0,1-8.94-.23c-2.3-.83-2.81-3-3.63-4.91-1.62-3.83-3.75-7.22-7.9-8.77-2.92-1.6-6.41-2.26-8.52-5.19Q96.1,64.63,96.06,60.12Z"/><path class="cls-144" d="M97.07,34.12c-.15,1.38.47,3-1,4q0-10,0-20l14,2c2.26.89,4.71,1.17,7,2h0c-.42,2.6-2.49,2.22-4.1,2a90,90,0,0,1-11-1.94c4.53,1.4,8.61,1.07,12.2,2.82,1.72,1,3.72,1.49,5.36,2.66.77.54,1.9,1.08,1.4,2.28s-1.6,1.11-2.6,1c-1.79-.13-3.39-1.25-6-1.34.13,0,.78.94.74.27,0-.22.14-.26.47-.16,1.11.34,2.31.53,2.76,1.85a1.36,1.36,0,0,1-.75,1.12c-3.91.66-7.37-1.26-11-2.16C100.76,29.58,98.34,30.31,97.07,34.12Z"/><path class="cls-145" d="M96.16,69.15l8.88,4a21.91,21.91,0,0,1,9.57,15.4,1.53,1.53,0,0,1-.88.93A15,15,0,0,1,109.62,88c-1.09-1.7-1.89-3.58-3.35-5a7.33,7.33,0,0,1-1.13-1.67c-.46-2-2.44-2.93-3.33-4.62.27-2.41-.81-2-2.17-1a11.22,11.22,0,0,1-6.34-1.17,1.82,1.82,0,0,1-.49-1.15c.41-1.1,1.51-1.44,2.32-2.11Z"/><path class="cls-146" d="M93.09,52.12q0-23,0-46c1.07.82,1,2,1,3.16V49C94.06,50.1,94.15,51.29,93.09,52.12Z"/><path class="cls-146" d="M95.13,71.18A1.71,1.71,0,0,1,93.25,73,1.17,1.17,0,0,1,93,71.12l.06-16c2,3.18.53,6.69,1,10C94.34,67.16,93.28,69.43,95.13,71.18Z"/><path class="cls-147" d="M93,71.12,93.25,73l-.23.16a3.23,3.23,0,0,1-3.19.66c-1.46-.77-3.73-1-2.58-3.6,1.59-1.79,1.4-4,1.41-6.14q0-14.67,0-29.34A69,69,0,0,1,90,23.09l.06,0,2-2c0,14.76,0,29.53,0,44.3C92.1,67.35,91.39,69.46,93,71.12Z"/><path class="cls-148" d="M90.2,6.11l-.34,4.56c-1.23-1.8-.72-3.19-.75-4.49Z"/><path class="cls-149" d="M127.07,163.1c-7.1,2.64-13.84,6.56-21.81,6.11-1.5.58-3,1.15-4.65.57a1.76,1.76,0,0,1-1-1.16c-.09-2,1.45-2.44,2.92-2.76a151.78,151.78,0,0,0,26.68-8.2,2.37,2.37,0,0,1,2,1.05,1.16,1.16,0,0,1-.15,1.43c-1.39.92-3.32,1.09-4,3Z"/><path class="cls-77" d="M97.19,176.2c-.28-1.38.36-3-1.14-4.07l-.52-.53a5.6,5.6,0,0,1,0-5,2.13,2.13,0,0,1,1.12-.78,2.17,2.17,0,0,1,1.8,1.72c.14.44-.08,1.12.75,1.09a1,1,0,0,1,.88.4l0,.06c1.09,1.18,2.85-.12,3.94,1l-4,3C98.82,173.91,99.23,176.19,97.19,176.2Z"/><path class="cls-150" d="M97.19,176.2c2,0-.51-4.26,2.84-3.07l2,2c-.36,1-.73,1.93-1.1,2.9-1.35,1.17-2.69.8-4,0C97,177.42,97.1,176.81,97.19,176.2Z"/><path class="cls-151" d="M118.06,171.72c0,.79,0,1.81-1.15,1.59s-2.25-.67-2.45-2c-.16-1,.8-1.4,1.52-1.58C117.56,169.36,117.78,170.62,118.06,171.72Z"/><path class="cls-152" d="M128.08,166.16c-.85.24-1.86,1.37-2.54.17-.84-1.5,1.29-2,1.53-3.23h0l1.95.09C130.31,164.68,128.92,165.33,128.08,166.16Z"/><path class="cls-153" d="M109,173c-1.21-.13-2.65.63-3.71-1.13,1.85-1.33,2.85-.39,3.69,1.14Z"/><path class="cls-154" d="M128.08,166.16l.93-3c.77-.05,1.75-.15,1.68.93C130.59,165.61,129.45,166.11,128.08,166.16Z"/><path class="cls-155" d="M104.07,170.14c-1.34-.24-3,.58-3.94-1l5.13.12Z"/><path class="cls-155" d="M131.07,160.14l0-1a3,3,0,0,1,3.82-1.32.76.76,0,0,1,.28.81c-.09.27-.18.41-.27.41l-1.74,1.07Z"/><path class="cls-103" d="M135.35,158.27l-4.26.85-1-1c-.27-2.24,1.71-2.65,3-3.48,17.82-11.78,28.82-28.06,32.81-49.09.44-2.33-.19-5.48,3.22-6.44l1.77.08c.81,5.35-1,10.29-2.4,15.29-.53,1.86-1.66,3.58-1.39,5.64a168.33,168.33,0,0,1-12,21L147.89,149c0,1.14-.77,1.84-1.42,2.62a14.7,14.7,0,0,1-1.34,1.28A15.1,15.1,0,0,1,141.3,155a10.08,10.08,0,0,0-3.58,2.4A2.94,2.94,0,0,1,135.35,158.27Z"/><path class="cls-156" d="M146,151l1.93-2c.61.92,3.3-2.18,2.62,1.46-.52,2.82,1.83,2.51,3.59,2.66L152,156.05l-1.14.87c-2.05,1.16-3.21-.19-4.36-1.55a5.09,5.09,0,0,1-.13-1.29A11.91,11.91,0,0,0,146,151Z"/><path class="cls-157" d="M135.35,158.27l1.74-1.18c1.16-.64,2.09-1.75,3.59-1.7,2.15.6,2.55,1.87,1.4,3.71l-1,1.05c-1.16,1-2.37,1.71-3.95,1a4,4,0,0,0-2.19-2.11A5.59,5.59,0,0,0,135.35,158.27Z"/><path class="cls-158" d="M137.11,161.13a6.2,6.2,0,0,1,3.95-1c.2,2.22-2,2.61-3,3.92C136.84,163.38,137.11,162.21,137.11,161.13Z"/><path class="cls-158" d="M142.08,159.1c.12-1.72-.31-3-2.34-3.15-.11-1,.75-1.34,1.4-1.79l3.85-2.22c1,.41,2.55.35,2.11,2.18h0c-.81.7-.84,1.8-1.39,2.64a6.91,6.91,0,0,1-2.7,2.36Z"/><path class="cls-159" d="M143,159.12c-.1-1.54,1.42-2,2.07-3,2.71.72,1.39,2.42.95,3.91l0,0c-.91.26-1,1.91-2.19,1.51S143.2,160,143,159.12Z"/><path class="cls-160" d="M146,160.07c-.13-1.35.54-2.89-.95-3.91a3.14,3.14,0,0,1,2-2c.27,2.26,2,2.63,3.77,2.81C149.69,158.63,146.6,157.41,146,160.07Z"/><path class="cls-161" d="M162.07,138.11c.34-1,.68-2,1-2.94l4.31,2.52c-.76,1.64-2,3.36-3.66,3.56C162.49,141.4,162.27,139.4,162.07,138.11Z"/><path class="cls-162" d="M167.28,133.14a4,4,0,0,1,.48,1.18,1,1,0,0,1-1,1.25,2,2,0,0,1-1.3-1.1C165.16,133.81,165.57,133.28,167.28,133.14Z"/><path class="cls-163" d="M171.74,116.61c-.29.22-.79.92-1.25.9-1-.05-1.36-.87-1.14-1.8a1.14,1.14,0,0,1,1.45-1C171.49,114.92,171.84,115.5,171.74,116.61Z"/><path class="cls-111" d="M90.08,172.1c1.47.63,2,.16,2-1.45.08-1.87-.73-3.94.92-5.57,2.35,3.67,1.53,7.52.68,11.37l-.63.67C89,177.32,90.39,174.19,90.08,172.1Z"/><path class="cls-164" d="M96.05,172.13c-.89,1.72,2.12,5.75-3,5h0c1.41-1.87-.58-4.45,1.3-6.22.94-.19,1.22.64,1.71,1.13Z"/><path class="cls-165" d="M114.07,26.13a81.56,81.56,0,0,0-17-3.37c2.18-2.36,4.16-1.18,6.08-1.18,4.65,0,9.18,2.86,13.9.55,7.91,1.56,14.57,5.81,21.36,9.81a24.1,24.1,0,0,0,2.64,1.18C156.49,44.2,165,59.45,168.12,78c.33,2,.1,4.46,2.87,5.15a5.1,5.1,0,0,1,.07.87,7,7,0,0,0-3,3.17l-1,1a6.77,6.77,0,0,1-2.14,1,4.08,4.08,0,0,1-3-.63c-2.25-6.37-5-12.68-3.72-19.68.42-2.33-.38-4.23-1.33-6.2-6.19-12.87-15.38-22.9-28.29-29.18C123.73,31,119.68,27,114.07,26.13Z"/><path class="cls-165" d="M117.06,22.13a10.07,10.07,0,0,1-7-2A10,10,0,0,1,117.06,22.13Z"/><path class="cls-166" d="M104.09,14.09l4.87.14C107.3,15.36,105.66,16,104.09,14.09Z"/><path class="cls-167" d="M42.18,153c-4.93-.35-7.73-2.89-8.11-7.91A50.16,50.16,0,0,1,42.18,153Z"/><path class="cls-40" d="M52,160.11c-2.2-1-5.63-.25-5.9-4.06C48.08,157.41,50.77,157.71,52,160.11Z"/><path class="cls-106" d="M78.92,169.19a3.08,3.08,0,0,1,.19.89l-5,0a1.81,1.81,0,0,1-2-2Z"/><path class="cls-126" d="M15.1,107.08c-1.79-1.74-.73-4-1-6C15.83,102.86,14.8,105.09,15.1,107.08Z"/><path class="cls-112" d="M23.08,95.12h5c1.83,2.06,1.59,4.74,1.82,7.13A57.86,57.86,0,0,0,42.18,133.4a10.33,10.33,0,0,1,2.22,3.87c-.45,1.94.56,3.36,1.49,5s1.81,3.84-1.81,2.87c-9.21-9-16.38-19.12-19-32Q24.08,104.13,23.08,95.12Z"/><path class="cls-168" d="M44.08,145.1c4-1.41.37-2.53-.21-3.65s-3.22-2.41.2-3.34c2.27.53,3.43,2.51,5.1,3.83,9.6,10.3,21.87,15.32,35.38,17.87,1.79.34,3.71.24,4.76,2.16a2,2,0,0,1-.26,2.13c-1.56.19-3.66-.67-4,2A65,65,0,0,1,44.08,145.1Z"/><path class="cls-169" d="M89.05,164.1v-2a8.63,8.63,0,0,1-1.34-5.55c0-1.57,0-3.15,0-4.72a25.14,25.14,0,0,0-.52-3.77,8.13,8.13,0,0,1,.15-2.31c.67-2.26.39-4.58.42-6.88,0-1.59,0-3.19,0-4.79,0-1.89,0-3.78,0-5.66a23.23,23.23,0,0,1,0-2.36c-.25-3.38,1-6.88-.88-10.11-1.64-1.58-4.8-1.58-5-4.71,3.23-1.47,6.93.28,10.13-1.45,1.48,2.18.16,5,1.54,7.15a2.47,2.47,0,0,1-.27,1.36,10.56,10.56,0,0,1-1,1c-1.74,4.87-.38,9.88-.69,14.82-.42,5.36,1.32,10.9-1.4,16-.56,5.31,1.12,10.76-1,16Z"/><path class="cls-111" d="M90.1,150.13l0-17c1.42-1.5.71-3.47,1.15-5.19.32-1.25.75-2.74,2.51-1.2,1.51,5.73.37,11.58.74,17.36-.36,3.05.9,6.35-1.46,9.08C91.13,153,93.59,148.69,90.1,150.13Z"/><path class="cls-88" d="M93,153.14c0-3,0-6,.08-9,4.06,1.68,1.35,5.82,3.05,8.37.3,4.48.8,9-.31,13.41-.72,1.68.27,3.61-.79,5.24-2.06,1.53.12,4.45-2,6q0-6,0-12c0-.66,0-1.31,0-2a19.1,19.1,0,0,1,0-9C93,153.77,93,153.45,93,153.14Z"/><path class="cls-111" d="M93,154.09c0,3,0,6,0,9A9.49,9.49,0,0,1,93,154.09Z"/><path class="cls-155" d="M169.07,99.1c-2.46,4.23-2.44,9.15-3.69,13.72-5.19,19-16.42,33.23-32.92,43.58-.83.52-1.6,1.14-2.4,1.71-8.39,4.93-17.81,6.77-27.12,8.92-1.32.31-2.7.18-2.85,2a7.55,7.55,0,0,1-.83,0,1,1,0,0,1-1.12-1.1L97,166.21a3.75,3.75,0,0,1-.51-3.82c1.36-2,3.54-2.23,5.7-2.53,24.36-3.38,41.52-16.77,52.68-38.24,4-7.64,5.47-16,6.07-24.56a5.36,5.36,0,0,1,.41-1.47c.36-.72,1.1-1,1.72-1.42l3,0Z"/><path class="cls-115" d="M163,94.17l-1,1c-1.43,1.31-3.21,1.34-5,1.36-2,0-4.08,0-6.12,0-2.36-.06-4.72.07-7.08.07-4.74-.48-9.58,1-14.24-.81.24-2.64.91-3.1,4.13-2.73.78.09,1.47.65,2.31.51-.2-.57-1.39-.25-1.12-1.23a1.59,1.59,0,0,1,.57-.75c5-1.68,10.08-.46,15.11-.84,1.78,0,3.57,0,5.35,0,1.51.08,3.05.08,4.13,1.41A3.1,3.1,0,0,0,163,94.17Z"/><path class="cls-170" d="M162.06,88.09l3,0c.25,1.28.6,2.48,2,3l12,0c-5.91,2.17-12,.48-18,.94,0-1.47-1.6-2.62-.83-4.23A1.5,1.5,0,0,1,162.06,88.09Z"/><path class="cls-171" d="M160,88.15c1.22,1.08,4.3,1.68,1,3.91l-.93.1L156,92a1.23,1.23,0,0,1,.23-1.14c.73-.62,1.72-.94,2.09-1.94a3.12,3.12,0,0,1,.64-1A1.06,1.06,0,0,1,160,88.15Z"/><path class="cls-172" d="M167.07,91.1c-2.39.18-3.42-.56-2-3h2A2.59,2.59,0,0,0,167.07,91.1Z"/><path class="cls-173" d="M82,111.1c1.36,2.31,3.54,3,6,3,1,2.72.27,5.54.48,8.31-6.74,5.5-10.84,5.38-17.24-1-2.69-2.69-5.06-5.64-8.46-7.54A6.7,6.7,0,0,1,60,110.49a48.16,48.16,0,0,0-5.54-9.94c-1.17-1.66-2-3.51-.39-5.45l16,.06c2.49,2.17,2.68,5.64,4.56,8.16,1.08,1.45,2,3.09,3.59,4C79.53,108.58,81.42,109.2,82,111.1Z"/><path class="cls-174" d="M89.06,151.1v5c-1.86,1.66-4,1.26-6.14.84-9.19-1.82-18-4.81-25.39-10.68-2.88-2.27-6.46-2.44-9.46-4.15a10.46,10.46,0,0,1-4-4,64.15,64.15,0,0,1-16-43h5c2,3.24,1.83,7,2.3,10.54,1.55,11.72,7.41,21,15.41,29.37,2.05,2.13,4.44.62,6.48,1.57,8,6.87,16.83,11.72,27.62,12.26A4.55,4.55,0,0,1,89.06,151.1Z"/><path class="cls-175" d="M89.06,134.11v5c-1.17,1.59.07,3.59-.88,5.23-7.05.19-14.11.55-20.54-3.29-3.26-2-6.45-4.19-9.87-5.68-8.65-3.76-13.58-10.75-16.76-18.93-2.63-6.74-4.84-13.81-3.94-21.33h7c1.48,6.73,1.49,13.75,4.78,20.13,1.57,3.07,3,5.84,6.38,7.16a12.25,12.25,0,0,1,4.5,3.06c5.8,6.3,13.81,8.08,21.4,10.86C84.62,137.6,86.5,135.07,89.06,134.11Z"/><path class="cls-176" d="M54.07,95.1c.09,1.3-.15,2.6.75,3.8,2.55,3.38,5.06,6.78,6.2,11a3.27,3.27,0,0,0,1.4,2c6.4,3,9.46,10,15.83,13,1.59.76,2.7,1.92,4-.45s3.89-.92,5.86-1.35c.94.79,0,2.2,1,3v2c-1.15,6.87-1.75,7-8.68,4.81-7.79-2.48-14.77-6-20-12.49-.63-.79-1.42-1.73-2.42-1.59-4.72.66-6-2.89-7.27-6.07-1.76-4.32-2.61-8.93-3.58-13.48a4.52,4.52,0,0,1,1-4.22C50.07,93,52.06,95.71,54.07,95.1Z"/><path class="cls-177" d="M48.06,95.08c.9,7.18,1.82,14.35,5.76,20.69.42.67,1.15,2,1.16,2,6-3.37,7.07,3,9.45,5.3,5.6,5.55,12.9,7.07,19.66,9.86,4.61,1.9,3.3-3.16,5-4.77v6c-1.29,4.26-4.2,4.75-8,3.51-8.43-2.8-17.08-5.12-23.25-12.2-2-2.32-5.91-1.8-7.5-4.61-2.84-5-5.58-10.29-6.08-16-.27-3.12-2.16-6.42-.21-9.65Z"/><path class="cls-178" d="M37.07,95.11c1.27,5.61,2.27,11.31,3.87,16.82,2.86,9.8,7.78,17.85,17.75,22.47,3.65,1.69,7.72,3.43,10.78,6.49a4.93,4.93,0,0,0,2.63,1.16c5.31.75,10.64,1.38,16,2a1.4,1.4,0,0,1,0,2v2c-4.64,2.12-9.19.45-13.35-1.11-6.31-2.37-12.47-5.33-17.64-9.88-8.45,3.06-10.33-5-13.7-9-7.83-9.34-10-21-10.29-33Z"/><path class="cls-179" d="M36.06,92c1.8-1.66,4.06-.53,6.06-1,4-1.84,8.14-.47,12.18-.9H64.58c-4,0-8,0-12.08,0-2.82-.85-6.47,1.91-8.57-2,3.17-2.53,6.89-1,10.34-1.4a10.69,10.69,0,0,1,2,0c7.35.8,14.23.79,16.56-8.4a4.49,4.49,0,0,1,2.32-2.47,2.72,2.72,0,0,1,1.44-.15c2.19,2.52-.5,4.06-1.3,5.89-1.13,2.6-2.5,5,.55,7.25,1.43,3,2.16,5.94-.48,8.7-1.62,0-2.21-1-2.29-2.44,1.9-3.53-.8-3-2.71-3C58.9,92,47.48,92,36.06,92Z"/><path class="cls-180" d="M73,95.08l2.08,2A13.29,13.29,0,0,1,77,99.7c2.68,2.22,4.5,5.44,8,6.7,3.73,1,8.07-.48,11.27,2.72a2.24,2.24,0,0,1,.25,1.46,1.18,1.18,0,0,1-1.06.9,4.4,4.4,0,0,1-3.37-1.35c-3,3.89-6.61,1.46-10,1-1.45-.82-3.23-1.2-4-3-3.29-3.75-7.33-7.15-6-13Q72.55,95.08,73,95.08Z"/><path class="cls-179" d="M72.07,95.11c-.35,5.42,3.65,8.84,6,13-5.37-2.66-6.4-8-8-13Z"/><path class="cls-181" d="M27.12,89.17c2.48,0,5-.52,8.47,1-3.46,1.4-6,.89-8.46.92C27.13,90.43,27.12,89.8,27.12,89.17Z"/><path class="cls-182" d="M89.06,26.12c-15.33.62-28.54,6.49-39.93,16.5A65.53,65.53,0,0,0,27.71,79.7a12.33,12.33,0,0,1-.95,2.82c-.24.53-.77,1.33-1.41.51-.35-.44-.2-1.26-.27-1.91,4.05-28.27,28.61-51.45,54.82-56,3.07-.54,6.1-1.3,9.16-1.95A2.39,2.39,0,0,1,89.06,26.12Z"/><path class="cls-183" d="M89.06,26.12v-3l1-.05q0,21.41,0,42.79c0,2.29.46,4.9-3,5.24-3.06,2.22-6.16,4.36-10,5h-1c-.5-2.74,1.55-4.24,3.39-4.82,6.42-2,8.57-6.47,8.18-12.72.17-4.84-.07-9.67,0-14.5.25-3.28-.17-6.56,0-9.85,0-2.14-.13-4.32,1.42-6.1Z"/><path class="cls-142" d="M89.06,34.13v10c-6.15,2-12.51,3.07-18.32,6.31-12.47,7-20.67,17-24.41,30.79-.64,2.37-.72,5-2.8,6.8a1.56,1.56,0,0,1-1.34.61c-2-.4-4.19,1-6.15-.47l-8-.15,1-.9c3.11-1.47,4.31-4,5.13-7.32,6.08-24.7,22.15-39.58,46.29-46.28C83.34,32.72,86.34,32.06,89.06,34.13Z"/><path class="cls-184" d="M89.06,34.13C75.35,34,64.13,40,54.13,48.63,43.63,57.7,36.92,69,35,82.94c-.49,3.52-2.5,4.78-5.88,4.17a22.2,22.2,0,0,1,2-9,.92.92,0,0,1,.47.83c-.09.55.16.65.26.18a54.88,54.88,0,0,1,5.51-14.87C47.18,46.45,61.55,34.65,82,31.08c1.22-.22,2.68-.3,3.06-2,1.05-1.45,2.61-.85,4-1Z"/><path class="cls-185" d="M85.07,29.12c.77.19,2,.14,2.24.62C88,30.91,86.78,31,86,31.12c-2.73.64-5.49,1.17-8.19,1.9C57,38.64,43.16,52,35.27,71.84c-.61,1.54-1.25,3.07-1.82,4.62s-1.07,3.11-1.64,4.79c-1.26-1-.49-2.15-.73-3.14,3.63-17.51,14-30.25,28.64-39.79A61.88,61.88,0,0,1,85.07,29.12Z"/><path class="cls-186" d="M55.05,91.08,42.12,91c0-.63,0-1.27,0-1.9s.67-.65,1-1l0,0c.34-.4.65-.38.94,0,2.85,1.91,6,.51,9,1C53.51,90,55.66,89.14,55.05,91.08Z"/><path class="cls-179" d="M43.1,88.15l-1,1c-2-.57-4.5,2.38-6-1Z"/><path class="cls-187" d="M116.05,87.12H125c2.75,0,3.73-.85,2.06-3.57-2.63-4.3-4.4-9.1-7.57-12.8,1.28-2.53,2.81,1.18,4.23-1.25C116.78,61,108.38,54.82,97.08,53.13c0-10.15-.06-10,9.74-7.67,3.38.82,6.16,2.09,8.16,5,2.73,4,8.3,4.76,10.68,9.46,3.35,6.6,8,12.6,10.27,19.68,1.42,4.45,3.27,7.67,8.14,8.41-3.73,2.74-8,.92-12,1.48-3.94,0-7.89.12-11.82-.1C118.58,89.33,116.41,89.75,116.05,87.12Z"/><path class="cls-188" d="M97.07,34.12c0-6.06.06-6.16,6.13-5,4.32.83,8.58,2,12.87,3,2.79,5,7.83,7.24,12.49,9.89,14.9,8.46,22.38,21.52,23.73,38.31.18,2.28,1.64,4.41.77,6.78-4.77.63-7.22-.54-7.22-6.26,0-7.29-5.11-13-7.82-19.44-4.92-11.72-15.2-16.08-25.7-20.44a2.77,2.77,0,0,1-1.14-.89c-3.61-5.27-4.86-5.9-12.12-6Z"/><path class="cls-144" d="M153.06,87.11c-3.4-4.52-2.51-10.24-3.52-15.26-2.71-13.4-10.68-22-21.63-28.78-2.26-1.39-4.46-3.06-6.93-3.87-3.65-1.2-4.35-4-4.91-7.07h0c3.82-1.92,6.81.89,9.59,2.33,12.64,6.57,23,15.64,28.8,29.08,1.66,3.84,2.86,7.8,2.14,12-.36,2.09.59,3.88,1,5.81.5,2.33,2.08,4.66.36,7.12a2.23,2.23,0,0,1-2.88-.49A2.22,2.22,0,0,0,153.06,87.11Z"/><path class="cls-189" d="M155.08,88l3,0a.6.6,0,0,1,1,.2c0,.31,0,.61,0,.92-1.41,1.2-3.2,1-4.85,1.29-.85,0-1.7,0-2.55,0-6.41.5-12.95-1.24-19.23,1.22-1.77.3-3.5.53-3.76-2,.55-1.84,2.55-.51,3.44-1.59l12-.08Z"/><path class="cls-190" d="M132.08,88.13c-.74,1.13-1.92.93-3,1a18,18,0,0,1-15,0c-.67-6.65-4.85-11.32-9-16,4.66,1.44,6.78,5.26,8.62,9.3.73,1.6.81,3.52,2.39,4.69C121.28,89.23,126.75,87.56,132.08,88.13Z"/><path class="cls-191" d="M159,88.24c-.32-.08-.64-.14-1-.2-.68-5.19-2.39-10.05-2.73-15.5-.79-12.35-8.67-21.66-18-29.13-6.27-5-13.06-9.61-21.23-11.29-1-1.4-2.69-1.66-4.39-2.44,3.16-1.61,5.73.86,8.57.22-1.45-2.44-4.5-2-6.18-3.77a9.54,9.54,0,0,1,4.37.68c10.38,5.18,20.91,10.06,28.87,19,5.14,5.77,8.79,12.4,12.16,19.24.29.58.69,1.39.49,1.87-3.07,7.46,2.11,14.06,2.1,21.18l-2,.06Z"/><path class="cls-192" d="M90.09,73.14H93c2.1,1.53,4.82.88,7,2a1,1,0,0,1,0,1.23,3.78,3.78,0,0,1-1.23.55c-1.33.29-2.92.53-1.4,2.39,1,1.22,2.88,1.61,3.25,3.45a2.48,2.48,0,0,1-.32,1.3c-1.91.72-4-1-5.84.31a1.81,1.81,0,0,1-1.08-.8c-.72-.68-.58-3.06-2.57-1.18a14.13,14.13,0,0,0-4,5.32,2.19,2.19,0,0,1-1.17.73,1.57,1.57,0,0,1-1.15-.67,12,12,0,0,1-.83-3.29c-.08-2.69-2.7-3.77-3.75-5.85C82.72,75.7,85.46,72.69,90.09,73.14Z"/><path class="cls-193" d="M114.08,89.11h15c.14,2.1,1.63,2,3.11,1.93,6-1.67,12.06-1,18.11-.51a1.63,1.63,0,0,1,.86,1.51l-16.09.17c-4.35,2.11-8.81.11-13.21.37-2.57-.19-5.19.2-7.72-.37-2.21-.51-2.31-1-1.07-3.1Z"/><path class="cls-194" d="M100.08,84.11l0-1a1.74,1.74,0,0,1,1.91-.39c1.09.59,1,1.79,1.47,2.72.93,1.88,1.45.63,1.82-.49A4.28,4.28,0,0,1,107,82.18c1.66,1.64,3.26,3.3,3,5.92a2.65,2.65,0,0,1-1.08,1.8c-3.33,2.68-6.32,1.22-9.27-.78a4,4,0,0,1-.59-1.41A3.83,3.83,0,0,1,100.08,84.11Z"/><path class="cls-190" d="M109,89.07c.33-.32.65-.65,1-1,1.35-.67,2.49-.69,3,1-1.38,1.72,0,1.92,1.19,2,2.61.09,5.24.06,7.86.08-.66,3.09-3.22,1.9-5.06,2.16-1.56.21-3.39-.3-3.63,2.11-1.07,2.12-2.35,2.56-4,.52C108.77,93.68,107.67,91.45,109,89.07Z"/><path class="cls-195" d="M99,76.14l1.15-.07a1.19,1.19,0,0,1,1.81.11c2,1.16,4.17,2.12,4.06,5a2.06,2.06,0,0,1-1.19.6,4.35,4.35,0,0,1-1.33-.25C101.44,80.21,99.18,79.05,99,76.14Z"/><path class="cls-196" d="M102,76.18l-1.81-.11c-.06-.3-.1-.6-.13-.9-.07-.68-.92-1.64.34-1.92a2.65,2.65,0,0,1,2.77,1.59C103.86,76,102.69,76,102,76.18Z"/><path class="cls-197" d="M105,81.22l1-.07,1,1-1,2.94C103.46,84.41,104.12,82.85,105,81.22Z"/><path class="cls-198" d="M90.09,73.14c-3.88,1.09-6.55,4.19-10,6-.07.19-.13.39-.2.59a19.11,19.11,0,0,1-2.46,3.6c-1.75,1.53-.54,4.29-2.4,5.78-2.82-.92-3.09-2.57-2.14-5.28s3.13-5,4.17-7.72c2.91-2.51,6.09-4.49,10-5Z"/><path class="cls-199" d="M97.06,162.1c0,1.37,0,2.74-.08,4.11a7.54,7.54,0,0,0-.82,0l-.51-.8c-.2-17.12-1.73-34.22-.78-51.35.19-.81.47-1.85,1.26-2,7.86-1.54,12.27-7.44,16.86-13.15a1.44,1.44,0,0,1,1.42.36,3.38,3.38,0,0,1,.45,2.26c-2.26,5.92-6.83,9.73-12.24,12.38-3.18,1.56-4.48,3.47-4.27,6.89.18,3,.07,6,.1,8.94s.08,6.17,0,9.25q.12,3,0,6c.1,1.73,0,3.45,0,5.18,0,2.31,0,4.63,0,6.95A6.73,6.73,0,0,1,97.06,162.1Z"/><path class="cls-200" d="M98.14,167.89l1.12,1.1c-.35.76-.36,2.37-1.6,1.61C96.62,170,96.94,168.63,98.14,167.89Z"/><path class="cls-199" d="M95.05,171.13c0-1.66,0-3.33,0-5,.28-.49.6-.49.94-.06l.12.11L96.1,172Z"/><path class="cls-155" d="M141.14,154.16c-.47.59-.93,1.19-1.4,1.79-.92.31-1.46,1.47-2.65,1.14C138,155.45,139.05,154.11,141.14,154.16Z"/><path class="cls-160" d="M147.1,154.12,145,151.94l1-.94C147,151.81,148.84,152.31,147.1,154.12Z"/><path class="cls-112" d="M48.07,142.11c4.49-1,7.81,1.29,11.22,3.73A53.77,53.77,0,0,0,89.06,156.1c0,2,0,4,0,6-5.56-1.33-11.28-2-16.66-4.07C63.16,154.42,54.23,150.39,48.07,142.11Z"/><path class="cls-201" d="M57.07,137.11c4.52,2.26,9.17,4.3,13.52,6.84,5.46,3.19,11.43,3.7,17.47,4.15.33,1,.67,2,1,3-3.69-1.76-7.86-.63-11.64-2C69.86,146.42,62.09,144.11,57.07,137.11Z"/><path class="cls-114" d="M95.06,152.09c-2.36-2.25.36-5.74-2-8q0-9,0-18a4.16,4.16,0,0,1-1-1.41c-.5-2.3-.7-4.56.88-6.57,0-.34,0-.67,0-1-.4-.62-.24-1,.47-1.23,1.7.62,1.92,2.09,2.06,3.6C95.25,130.36,96.17,141.24,95.06,152.09Z"/><path class="cls-202" d="M93.09,125.11c0,.33,0,.67,0,1-2.59,1.64,1.1,6-3,7,0-4.31,0-8.63,0-12.94,0-1.27-.37-3,2-2C93.41,120.3,91.68,122.94,93.09,125.11Z"/><path class="cls-203" d="M93.08,116.1l-.06,1c-2.59-2-1.66-4.52-.94-7,1.11,0,2.28-.19,3.07.9l-.21.58C94.12,113,94.46,114.92,93.08,116.1Z"/><path class="cls-177" d="M89.06,126.1c-1.17-.72-1-1.9-1-3,0-3,0-6,0-9C90.16,118,88.57,122.12,89.06,126.1Z"/><path class="cls-111" d="M93.09,125.11c-1.93-2.1-.58-4.68-1-7h1Z"/><path class="cls-201" d="M88.07,146.11v-2c.24-1.68-.66-3.59,1-5C88.69,141.44,90,144,88.07,146.11Z"/><path class="cls-203" d="M95.06,152.09q0-17,0-34c-.91-2.3-1.61-4.6-.09-6.92l.16-.17a6.94,6.94,0,0,0,.9.12.59.59,0,0,1,.25.64c-.07.23-.14.34-.21.34q0,27,0,54c-.31,0-.63,0-.94.06Q95.07,159.12,95.06,152.09Z"/><path class="cls-204" d="M97.07,157.1v-7c.86-1.71,2.45-2,4.15-2.28,25.16-4.09,40.2-19.09,46.29-43.43,1.33-5.31,3.43-9.2,9.55-9.26h5c0,.33,0,.66,0,1-3.42,1.82-4.35,4.75-4.94,8.5a57.67,57.67,0,0,1-13.41,29,69.64,69.64,0,0,1-29,20.34C109.18,156,103.45,158.88,97.07,157.1Z"/><path class="cls-191" d="M97.07,157.1a67.42,67.42,0,0,0,30.81-10.91c14-9.44,24.39-22.34,27.84-39.63a42.71,42.71,0,0,0,.36-5c.28-3.68,1.84-6,6-5.5-.58,22.51-11,39.67-28.73,52.88a61.61,61.61,0,0,1-31.92,12.15,33.54,33.54,0,0,0-4.35,1C97.07,160.43,97.07,158.77,97.07,157.1Z"/><path class="cls-177" d="M97.07,139.1v-10c1.82-1.65,4.21-1.94,6.41-2.6,12.2-3.7,19.53-12.17,23.45-23.91,1.34-4,.53-4.89-3.87-5.17-1.66-.1-3.36.11-4.91-.63-1.35-.65-1.8-1.49-.24-2.49,3.79-.72,7.58-1.61,11.15.76l15,.06c-4.09,3.95-4.42,9.55-6.22,14.46-5.57,15.19-16.72,24.3-31.59,29.29C103.42,139.82,100.16,140.44,97.07,139.1Z"/><path class="cls-188" d="M157.06,95.13c-5.09,1.42-7.15,4.79-8.32,10-4.13,18.43-15.06,31.87-32.07,40a42.21,42.21,0,0,1-14.8,3.93,10.81,10.81,0,0,0-4.8,1v-5c2-2,4.78-2.24,7.33-2.89,21.2-5.37,33.67-19.17,38.44-40.15,1.08-4.77,3.87-6.53,8.22-6.93Z"/><path class="cls-205" d="M151.06,95.13c-5.34,1.29-6.15,5.22-7.45,10.06A53.28,53.28,0,0,1,123.54,135c-8,5.95-17.08,8.23-26.47,10.08v-6c7.71-1.09,14.93-3.2,21.63-7.58,7.93-5.19,13.81-11.86,17.17-20.58,1.46-3.78,3.68-7.46,3.27-11.88-.31-3.47,3.55-2.26,4.92-3.94Z"/><path class="cls-206" d="M129.06,95.06l-12,.07a2,2,0,0,1-.87.68,4.73,4.73,0,0,1-1.12.16A4.67,4.67,0,0,1,114,95.8a1.9,1.9,0,0,1-.87-.71c-.75-1.38-2.89-3,1-3.09,2.65,0,5.49,1,8-.85l13,1.06,2.17,1.42C134.59,95,131.41,92.94,129.06,95.06Z"/><path class="cls-207" d="M151.14,92l-.23-.77c.13-.18.26-.37.38-.56a5.23,5.23,0,0,1,3.92-.34,2.1,2.1,0,0,1,1,.88L156,92Z"/><path class="cls-207" d="M154,89.17h5c1,3.37-1.82,1.48-2.84,2.08L156,91C155.47,90.26,153.52,91,154,89.17Z"/><path class="cls-208" d="M89.06,60.12a25.45,25.45,0,0,1-9.67,12.44,24.47,24.47,0,0,0-3.32,3.56c-2.36,2.58-4.34,5.44-4.95,8.92-.45,2.58-2,3.11-4.19,3.08-4,0-7.91,0-11.86,0-2.87-1.5-1-3.75-.9-6.45a7.81,7.81,0,0,1-1.32,4.08c-.56.85-1.35,1.65-2.41,1.39s-1.3-1.41-1.37-2.41a15.66,15.66,0,0,1,1.21-6.31C55.91,62.59,67.15,53,83.21,48.81c1.8-.47,4.21-1.55,5.17,1.1s-1.84,2.9-3.88,4c-.1,0,.75.82.49.21-.13-.28,0-.35.23-.44,2.07-.81,3.14-.14,3.34,2.08C88.7,57.23,88.08,58.77,89.06,60.12Z"/><path class="cls-209" d="M89.06,60.12c-2.25-1.59,1.2-8.39-5.32-5.54a1.59,1.59,0,0,1,.65-2c1-.95,4.21.22,3.21-2.52-.7-1.93-2.65-.3-3.94,0C66.44,54.39,55.22,64.93,50.54,82.2c-.37,1.38-1,2.76.2,4.25,2.84-1.91,2-5.86,4.59-8.14.77,3.51-1.94,6.61-.26,9.79l-11,.06c-.32,0-.63,0-1,0,2.32-7.55,3.93-15.34,8.5-22,8.64-12.69,20.81-19.74,35.64-22.62.55-.1,1.22.44,1.84.68Z"/><path class="cls-210" d="M75.05,89.13c.38-2.42-1.12-5.38,2-7a2.15,2.15,0,0,1,.65,1.16,6.05,6.05,0,0,1-.08,1.35c-.42,3.1.83,4.43,4,3.73,1.11-.25,2.16-.91,3.36-.37l.35.38c1.31,2.28-.4,3.73-1.5,5.31-2.77,4-2.79,4,1.72,6.17A5.51,5.51,0,0,1,87.2,101a2.11,2.11,0,0,1-.93,2.46c-4.09,1.07-6.45-3.31-10.22-3.27-1.15-.75-.93-1.93-.94-3C75.69,94.46,76.41,91.78,75.05,89.13Z"/><path class="cls-211" d="M55.05,91.08l-2-1.94H70.4v1.94Z"/><path class="cls-212" d="M113.09,95.09a7.46,7.46,0,0,1,1,.06c.81,1.6.06,2.82-1,4-2.51,6.58-7.49,10.6-13.73,13.37-1.28.57-2.22.11-3.26-.36a8,8,0,0,1,0-1l0-1.07c.85-1.64-2.78-2.13-1-4,1.19-1.26,2.7-.74,4.12-.51a5.7,5.7,0,0,0,5.66-2,21.76,21.76,0,0,0,2.57-3.81c.82-1.3,1.25-2.89,2.69-3.73C111.58,97.25,112.18,95.69,113.09,95.09Z"/><path class="cls-213" d="M76.05,100.16c.27-2.06,1.25-2.16,2.63-.91,2.12,1.93,4.75,2.87,7.36,3.87,2,.87,4.53,1.13,5.1,3.91a10.47,10.47,0,0,1-7.07.09C80.4,105.94,78.58,102.65,76.05,100.16Z"/><path class="cls-214" d="M84.07,107.12c2.32-.39,4.87.86,7-1,1.85-2.17,4.42-2.21,7-2.38,2.66.49,5.43-1.12,8,.35-1.45,2.41-3.73,3.13-6.34,2.93-3.85-.29-3.84-.35-3.65,3C92.66,106.72,87.74,109.43,84.07,107.12Z"/><path class="cls-209" d="M41,86.47C40,63.37,63.85,41,87.89,40.19,62.69,46,47.08,61.36,41,86.47Z"/><path class="cls-207" d="M150.91,91.27,132.17,91c.91-2.16,2.83-1.91,4.63-1.91l15.31.05c.49,1-.42,1.36-1,1.87Z"/><path class="cls-215" d="M151.14,91.05l1-1.87H154L156,91Z"/><path class="cls-216" d="M87,101.15a15.33,15.33,0,0,1-2.9-.55c-5-1.92-5.1-2.45-2-6.74,1.23-1.7,3.16-3,3.16-5.46a3.9,3.9,0,0,1,.73-.31c2.14-2.4,3.37-6.61,8-4h0c2.3.35,5.71-1.11,5.48,3.36,0,2.55-1.76,2.28-3.46,2.14a13.6,13.6,0,0,0-4.41.07c-3.11.74-3.49,3.68-3.59,5.82s2.56,1.37,4,1.28c2.1-.13,4.7,1.23,6.14-1.56a34.3,34.3,0,0,0,1.63-5.06,1.69,1.69,0,0,1,1.31-.5c1.51.33,2.61,1.38,3.9,2.1a2,2,0,0,1,1.1,2c-.46,2.88-6,7.38-9.31,7.68C93.55,101.37,90.26,101.92,87,101.15Z"/><path class="cls-197" d="M99,76.14l5.12,4.94a3.63,3.63,0,0,1-2.1,2.07l-1.92-.07A4.65,4.65,0,0,0,97,80.92c-2.22-.76-2.41-2.73-1.78-4.46C96.08,74.21,97.76,76.47,99,76.14Z"/><path class="cls-217" d="M85,88c-2.25,1.3-4.45,3.32-7.18,1.2-1.74-1.36-2.43-3.12-.74-5.1,1.89-1.38,3.76-2.87,6.1-.84,0,1.3-1.21,1.77-1.82,2.68,1.42.07,1.11-1.42,1.81-2a1.29,1.29,0,0,1,1.86.18Z"/><path class="cls-27" d="M94.07,84.11c-3.76-.86-5.43,2.47-8,4-.8-4,3.77-5,4.5-8.2.07-.3,1.24-.66,1.7-.48C94.51,80.28,94,82.34,94.07,84.11Z"/><path class="cls-218" d="M85,84.16l-1.93-.06h0c-2-2.28-4,.78-6,0,0-.32,0-.63,0-.94,1.77-.77,1.17-3.3,3-4h0C83.4,79.2,84.21,81.67,85,84.16Z"/><path class="cls-27" d="M99.08,88.09c.6-4.19-3.74-2.15-5-4,2-3,4-1.55,6,0,0,1.33,0,2.67,0,4Q99.55,88.83,99.08,88.09Z"/><path class="cls-219" d="M99.08,88.09a8.19,8.19,0,0,0,1,0c0,.31.1.61.16.91.28.28.34.53.21.75s-.24.31-.35.31l0,1c-2.51,1-5.6,1-7.32,3.88,2.11,2.19,4.29-.62,6.34.11.68,1.49,1.24,3-1.32,3a25.34,25.34,0,0,1-4.93,0c-2.51-.45-6.43,1.79-7-2-.2-1.28,1.06-4.67,2.65-6.44C89.8,88.1,92,88.26,94,88,95.75,87.81,97.4,89.88,99.08,88.09Z"/><path class="cls-214" d="M100.09,90.09c0-.35.09-.71.14-1.06,2.94.39,5.86,2.5,8.81,0,.61,2.31,1.31,4.6,1,7a5.43,5.43,0,0,1-2,4c-1.06-.74-2.15-2.53-2.93.32-.67,2.46-2,4.08-4.93,2.74-.8-.42-1.59-.84-2.37-1.3-.57-.42-1-.88-.73-1.68,2.69,0,5.54.25,5-3.9-.32-2.43,2.33-1.68,3.44-3.06C103.73,92,102.28,90.45,100.09,90.09Z"/><path class="cls-220" d="M102,83.15a1.94,1.94,0,0,1,2.1-2.07l.88.13c.21,1.34-.41,2.9,1,3.91.24.86,1.29,1.82.19,2.58a3.67,3.67,0,0,1-3.71,0c-1.2-.56-1-1.45-.29-2.35S102.34,83.88,102,83.15Z"/><path class="cls-192" d="M80.1,79.15c-1.09,1.28-.53,3.78-3,4,0-.34,0-.69,0-1C78.36,81.42,77.86,78.91,80.1,79.15Z"/><path class="cls-221" d="M116.08,95.17a6.56,6.56,0,0,1,1,0c2.53,2,5.47.91,8.18.89,3.19,0,4.09,1.29,3.8,4.2C128,110.63,116,124.55,105.73,127.13c-2.87.72-5.54,2.34-8.66,2a43.6,43.6,0,0,0,0-4.43c-.6-5.94-.29-10.8,6.95-13.2,4.55-1.5,7.86-5.77,10.08-10.36C115.12,99.26,113.89,96.64,116.08,95.17Z"/><path class="cls-177" d="M116.08,95.17a9.58,9.58,0,0,1-2,5.94v-2c-1.17-1.7.38-2.7,1-3.93Z"/><path class="cls-190" d="M115.07,95.18l-1,3.93h-1a6.6,6.6,0,0,1,1-4Z"/><path class="cls-222" d="M95,111.2l.09,6.92-2-2C93.56,114.4,91.72,111.81,95,111.2Z"/><path class="cls-223" d="M97.1,100.19l1,.92a7.89,7.89,0,0,1,.55,2.92,1.64,1.64,0,0,1-.57,1l-7,1.08c-2.4.18-4-1-5-3l1-2C90.22,99.08,93.74,100.49,97.1,100.19Z"/><path class="cls-224" d="M98.08,105.07c0-.32,0-.64,0-1,.61-.73,1-1.7,2-2,3,1.75,3.73,0,4.07-2.56.15-1.07.38-2.6,1.76-2.62,2,0,2.19,1.62,2.13,3.22.11,1.72-1.39,2.64-2,4A19.87,19.87,0,0,1,98.08,105.07Z"/><path class="cls-225" d="M99.08,95.11c-2.25,2.79-5.2,2.24-8.09,1.61-.73-.16-.6-1.07-.21-1.65,1.91-2.81,4.33-4.75,7.94-4.56a4.11,4.11,0,0,1,1.34.61C102.12,93,99.17,93.72,99.08,95.11Z"/><path class="cls-226" d="M83.08,84.1c.69,1.4,1.33,2.86-.64,3.71-1.47.63-3.15.58-3.81-1.08s1.22-1.51,2.1-2a13,13,0,0,1,2.35-.68Z"/><path class="cls-227" d="M100.1,102.07a1.87,1.87,0,0,1-2,2,2.52,2.52,0,0,1,0-3A2.18,2.18,0,0,1,100.1,102.07Z"/></g></g></svg>