<svg xmlns="http://www.w3.org/2000/svg" viewBox="0 0 188.2 187.04"><defs><style>.cls-1{fill:#fefefe;}.cls-2{fill:#fdfdfd;}.cls-3{fill:#73512e;}.cls-4{fill:#584124;}.cls-5{fill:#594225;}.cls-6{fill:#5b4324;}.cls-7{fill:#654c27;}.cls-8{fill:#634b28;}.cls-9{fill:#5e4423;}.cls-10{fill:#624d28;}.cls-11{fill:#73582c;}.cls-12{fill:#6e532a;}.cls-13{fill:#705631;}.cls-14{fill:#624926;}.cls-15{fill:#5d4424;}.cls-16{fill:#5e4627;}.cls-17{fill:#6d4e24;}.cls-18{fill:#75582e;}.cls-19{fill:#4c3924;}.cls-20{fill:#3b3024;}.cls-21{fill:#9d8f51;}.cls-22{fill:#dacda3;}.cls-23{fill:#b9ab71;}.cls-24{fill:#bfb071;}.cls-25{fill:#715327;}.cls-26{fill:#453a30;}.cls-27{fill:#926f40;}.cls-28{fill:#86643a;}.cls-29{fill:#ac9f62;}.cls-30{fill:#d3c584;}.cls-31{fill:#67492a;}.cls-32{fill:#b6aa6b;}.cls-33{fill:#332a21;}.cls-34{fill:#a27d49;}.cls-35{fill:#8b683c;}.cls-36{fill:#b49158;}.cls-37{fill:#a6824c;}.cls-38{fill:#9a7644;}.cls-39{fill:#977342;}.cls-40{fill:#825e36;}.cls-41{fill:#dac88b;}.cls-42{fill:#bda86d;}.cls-43{fill:#89683c;}.cls-44{fill:#785531;}.cls-45{fill:#312822;}.cls-46{fill:#7e5f38;}.cls-47{fill:#73522f;}.cls-48{fill:#8c6a3e;}.cls-49{fill:#9d7946;}.cls-50{fill:#8a663a;}.cls-51{fill:#8a673c;}.cls-52{fill:#bc9d62;}.cls-53{fill:#312921;}.cls-54{fill:#987443;}.cls-55{fill:#d1b97c;}.cls-56{fill:#b39057;}.cls-57{fill:#cbb378;}.cls-58{fill:#84653a;}.cls-59{fill:#8b6b3c;}.cls-60{fill:#312922;}.cls-61{fill:#86733b;}.cls-62{fill:#6b5b2b;}.cls-63{fill:#7b6d2c;}.cls-64{fill:#775a2d;}.cls-65{fill:#3e3224;}.cls-66{fill:#c2b173;}.cls-67{fill:#c1b477;}.cls-68{fill:#987644;}.cls-69{fill:#d7c589;}.cls-70{fill:#8f6d3e;}.cls-71{fill:#bb9a61;}.cls-72{fill:#dac688;}.cls-73{fill:#cfb67a;}.cls-74{fill:#c3ae71;}.cls-75{fill:#d2ba7f;}.cls-76{fill:#dfce93;}.cls-77{fill:#d9cb91;}.cls-78{fill:#44331d;}.cls-79{fill:#6b512e;}.cls-80{fill:#79692d;}.cls-81{fill:#775d34;}.cls-82{fill:#bc9e63;}.cls-83{fill:#514324;}.cls-84{fill:#b5a868;}.cls-85{fill:#9c988b;}.cls-86{fill:#8c8778;}.cls-87{fill:#908b7a;}.cls-88{fill:#7d5b34;}.cls-89{fill:#8c683d;}.cls-90{fill:#302a26;}.cls-91{fill:#e9dc99;}.cls-92{fill:#8c6d3e;}.cls-93{fill:#9c7845;}.cls-94{fill:#b7aa6b;}.cls-95{fill:#332d28;}.cls-96{fill:#403e37;}.cls-97{fill:#8c683c;}.cls-98{fill:#8d693d;}.cls-99{fill:#b89c62;}.cls-100{fill:#92793f;}.cls-101{fill:#c9bf8d;}.cls-102{fill:#aea062;}.cls-103{fill:#805d37;}.cls-104{fill:#a27e49;}.cls-105{fill:#5a4326;}.cls-106{fill:#a59759;}.cls-107{fill:#4d4335;}.cls-108{fill:#ac884f;}.cls-109{fill:#c3a264;}.cls-110{fill:#927941;}.cls-111{fill:#ae8a51;}.cls-112{fill:#caaf72;}.cls-113{fill:#b79358;}.cls-114{fill:#7d6034;}.cls-115{fill:#514735;}.cls-116{fill:#bf9d61;}.cls-117{fill:#312b27;}.cls-118{fill:#a37f48;}.cls-119{fill:#ccb073;}.cls-120{fill:#d5c083;}.cls-121{fill:#42321c;}.cls-122{fill:#41321d;}.cls-123{fill:#aea060;}.cls-124{fill:#917043;}.cls-125{fill:#3c3932;}.cls-126{fill:#3a332c;}.cls-127{fill:#cbb175;}.cls-128{fill:#8e6b3f;}.cls-129{fill:#ae8a50;}.cls-130{fill:#8a6a3c;}.cls-131{fill:#9d7c46;}.cls-132{fill:#a4804a;}.cls-133{fill:#a89d5e;}.cls-134{fill:#967444;}.cls-135{fill:#bf9f64;}.cls-136{fill:#424039;}.cls-137{fill:#8f6d40;}.cls-138{fill:#d8c589;}.cls-139{fill:#7c5e38;}.cls-140{fill:#7d5e37;}.cls-141{fill:#312414;}.cls-142{fill:#7b5e39;}.cls-143{fill:#81623a;}.cls-144{fill:#362918;}.cls-145{fill:#5d4c2c;}.cls-146{fill:#7c5c36;}.cls-147{fill:#43413a;}.cls-148{fill:#362917;}.cls-149{fill:#725a32;}.cls-150{fill:#5d4827;}.cls-151{fill:#a8a495;}.cls-152{fill:#979383;}.cls-153{fill:#afab9a;}.cls-154{fill:#acaaa0;}.cls-155{fill:#b9b6ad;}.cls-156{fill:#a19d8e;}.cls-157{fill:#7e633f;}.cls-158{fill:#7f5d36;}.cls-159{fill:#494740;}.cls-160{fill:#45423b;}.cls-161{fill:#584a36;}.cls-162{fill:#868173;}.cls-163{fill:#989589;}.cls-164{fill:#7a6e59;}.cls-165{fill:#aca160;}.cls-166{fill:#342616;}.cls-167{fill:#8e6d40;}.cls-168{fill:#261b0f;}.cls-169{fill:#332715;}.cls-170{fill:#7a6b53;}.cls-171{fill:#574328;}.cls-172{fill:#494640;}.cls-173{fill:#ccc6b3;}.cls-174{fill:#ece5cb;}.cls-175{fill:#6d5230;}.cls-176{fill:#816138;}.cls-177{fill:#887e6a;}.cls-178{fill:#9d7846;}.cls-179{fill:#c5a862;}.cls-180{fill:#36291a;}.cls-181{fill:#aa8750;}.cls-182{fill:#a98b57;}.cls-183{fill:#906c3e;}.cls-184{fill:#7b5f3c;}.cls-185{fill:#cfc6b0;}.cls-186{fill:#d1cbbb;}.cls-187{fill:#7b705c;}.cls-188{fill:#684e2d;}.cls-189{fill:#5e5c55;}.cls-190{fill:#594d3b;}.cls-191{fill:#c6ac6b;}.cls-192{fill:#655238;}.cls-193{fill:#8f7449;}.cls-194{fill:#ebe4cb;}.cls-195{fill:#48453e;}.cls-196{fill:#4d4b44;}.cls-197{fill:#4f402c;}.cls-198{fill:#3f301c;}.cls-199{fill:#8c6c3f;}.cls-200{fill:#8a693c;}.cls-201{fill:#b4b0a0;}.cls-202{fill:#b1ac9b;}.cls-203{fill:#bcb7a6;}.cls-204{fill:#c4c1b6;}.cls-205{fill:#b59b65;}.cls-206{fill:#483822;}.cls-207{fill:#4f4d47;}.cls-208{fill:#999485;}.cls-209{fill:#a5a299;}.cls-210{fill:#a8a492;}.cls-211{fill:#5c5a51;}.cls-212{fill:#56544c;}.cls-213{fill:#b6b19f;}.cls-214{fill:#c1bcaa;}.cls-215{fill:#d4ceba;}.cls-216{fill:#e6dfc9;}.cls-217{fill:#c3beaa;}.cls-218{fill:#c4c0b3;}.cls-219{fill:#dad4bf;}.cls-220{fill:#7d5d36;}.cls-221{fill:#dfdacb;}.cls-222{fill:#a48b60;}.cls-223{fill:#745b39;}.cls-224{fill:#baab86;}.cls-225{fill:#ddd6c0;}.cls-226{fill:#e3dcc5;}.cls-227{fill:#d4d0c2;}.cls-228{fill:#e9e1c9;}.cls-229{fill:#dad5c6;}.cls-230{fill:#56544d;}.cls-231{fill:#4c4a44;}.cls-232{fill:#504f49;}.cls-233{fill:#e5e1d1;}.cls-234{fill:#d8cba5;}.cls-235{fill:#dfd9c4;}.cls-236{fill:#dad4c0;}.cls-237{fill:#c9c5b8;}.cls-238{fill:#54524d;}.cls-239{fill:#b89c5b;}.cls-240{fill:#bcb8a8;}.cls-241{fill:#cbc5b3;}.cls-242{fill:#aeaba0;}.cls-243{fill:#b7b3a7;}.cls-244{fill:#d5cfb9;}.cls-245{fill:#cec9bc;}.cls-246{fill:#48361f;}.cls-247{fill:#504e48;}.cls-248{fill:#3a2c1b;}.cls-249{fill:#2a1f11;}</style></defs><g id="Layer_2" data-name="Layer 2"><g id="Layer_3_Image" data-name="Layer 3 Image"><path class="cls-1" d="M.08,88.07C.08,59.82.13,31.57,0,3.33,0,.58.52,0,3.31,0c26.25.14,52.5.08,78.76.08.57,1-.09,1.73-.73,2.42A14.26,14.26,0,0,1,79,3.91c-1.8,1-3.86,1.23-5.75,2a9.41,9.41,0,0,1-3.38.81c-8,1.2-15.08,4.8-21.92,8.87C27.7,27.6,14,44.81,7.29,67.46c-.41,1.69-1,3.34-1.38,5-1.32,3.88-1,8.12-2.54,12C2.14,85.53,2.57,88.12.08,88.07Z"/><path class="cls-2" d="M81.07,2l1-1.89h23l1,1.91c-1.74,2-4.23,1.06-6.33,1.67a5.71,5.71,0,0,1-1.49,0,26,26,0,0,1-2.86-.83c-3-1-5.92.9-8.93.58C84.55,3.32,82.52,3.71,81.07,2Z"/><path class="cls-2" d="M.08,88.07c1.62-.79.28-3.36,2.33-3.88,1.17,1.48.94,3.26,1.06,5-.08,3.09,0,6.19,0,9.28a8.46,8.46,0,0,1-.83,4.11l-.63.58c-1.49-1-.3-3.17-1.91-4.06Z"/><path class="cls-3" d="M186,86.29a.41.41,0,0,0,0,.61c-.45.73,0,1.76-.86,2.35-1.32.23-1.86-.8-2.55-1.57A20.28,20.28,0,0,0,181,85.79c-.79-.88-2.31-1.21-2.17-2.81a6.59,6.59,0,0,0-.26-4.44c-1.41,1-1.1,3.11-2.73,3.76-3.26-2.17-2-5.85-2.89-8.81-.53-1.76-.51-3.68-3.18-3.09-4.23-8.48-8.85-16.77-12.84-25.38,4.47-1,7.44,1.15,9.8,4.61a25.09,25.09,0,0,0,2.75,2c2.46,2.63,4.77,5.42,7.82,7.44,3.06,4.14,3.8,9.11,4.92,13.92a14.39,14.39,0,0,0,1.45,4.69A7.82,7.82,0,0,1,184,82c0,.13-1.15,1.12.31.83C186.35,83.27,185,85.3,186,86.29Z"/><path class="cls-4" d="M183.09,78.08c-1.6-.69-1.92-2-2.06-3.63A39.51,39.51,0,0,0,176.13,59a29.81,29.81,0,0,1-3.66-4.72,21.3,21.3,0,0,0-1.35-3c-2-3.09-3.13-6.69-5.58-9.52-1.5-1.61-2.59-3.55-4.1-5.15-1.64-1.8-3.39-3.48-5.14-5.16a116.61,116.61,0,0,0-15.78-12.67,39.23,39.23,0,0,0-7.28-4c-5-2.66-10.78-3.64-15.54-6.88-.35-1.73.45-2.48,2.12-2.47,2-.46,3.66.38,5.19,1.58l.1,0c2.85.48,5.74.85,7.83,3.19.41,1,1.3.81,2.09.84,1.74.84,3.94.86,5,2.85l2,1.13a17.21,17.21,0,0,1,8.07,5.69l1.83,1.35c1.35.65,2.64,1.35,3.11,2.93a2.84,2.84,0,0,0,2.66,2.15c3.31,1.15,4.57,4.2,6.34,6.8l0,.06a5.33,5.33,0,0,1,2.83,3.28.57.57,0,0,0,.33.67c2.42,1.78,3.72,4.32,4.78,7l0,0A16.49,16.49,0,0,1,176,52.17a13.84,13.84,0,0,0,2.84,6c1.41.51.57,2,1.2,2.83l0,.08c1.53,1.63.62,3.86,1.41,5.67-.3,2.16,1.23,3.6,2.12,5.29-.16,2,.92,3.79.71,5.77A.86.86,0,0,1,183.09,78.08Z"/><path class="cls-5" d="M28.05,158.21l-1.13-1.16c-2.77-1.59-4.13-4.39-5.84-6.87L19,147.05A7,7,0,0,1,16.2,143l0,0c-.71-1-1.78-1.68-2-3l-.32-.95c-2.17-1.82-2.67-4.55-3.79-6.94l-1.81-4c.62-1.09-.55-3.17,1.83-3.28,1.71.77,2.28,2.38,3,3.93,1.14,4.27,4.38,7.49,5.84,11.6a9.73,9.73,0,0,0,2.31,3.85,9.72,9.72,0,0,1,.78,1c1.06,1.91,2.79,3.31,3.95,5.14a23.19,23.19,0,0,0,3.94,4.34,122.18,122.18,0,0,0,11.47,9.74,43.62,43.62,0,0,0,7.25,4.88,84.81,84.81,0,0,0,9,4.76,45.61,45.61,0,0,1,5.32,2.17c3.53,1.5,7.28,2.23,10.91,3.36,1.36.43,3.08.35,3.46,2.28-.8,1.33-2.28,1.07-3.46,1.5-3.26-.68-6.69-.63-9.72-2.25l-7.62-3.24c-1.75-1-3.95-1.07-5.4-2.66-.84-.24-1.84-.14-2.25-1.19a34,34,0,0,1-12.77-8.82l-.17-.15c-2.25-1.32-4.61-2.5-5.74-5.08l0,0A3,3,0,0,1,28.05,158.21Z"/><path class="cls-6" d="M173.06,140.06c-1.21.19-.95,1.17-1,2-1.06,2.73-2.33,5.31-4.83,7.05L164,153c-2.47,2.64-3.28,7-7.79,7.53a1.53,1.53,0,0,1-1.52-1.22,7.28,7.28,0,0,1,2-4.38c3.77-2.31,6-6,8.66-9.38,2.15-2.39,3.15-5.48,4.92-8.1,2.17-3.77,4.85-7.31,5.54-11.78a22.24,22.24,0,0,1,1.48-4.12c2.55-3.86,1.21-9,4.3-12.73a2.84,2.84,0,0,1,1.54-.35,2,2,0,0,1,1.31.85,11.87,11.87,0,0,1-1.57,7.68c-1.41.67-.84,1.95-.94,3-1,3-.75,6.43-3.2,8.9-.91.43-.85,1.24-.81,2-.48,1.44-.57,3.06-2,4h0A8.12,8.12,0,0,1,173.06,140.06Z"/><path class="cls-7" d="M155.07,159.21l1.23.95c.26.41.17.7-.28.87l-1,1A3.06,3.06,0,0,1,153,164l-2,1.86a27,27,0,0,1-10.85,7.2l-1.16.77c-1.55,2-4,2.3-6.15,3.11-.78,0-1.53.06-1.8,1-.61,1.3-2,.5-2.89,1.12l-.07,0a1.46,1.46,0,0,1-1.3.33c-.83-.42-1.82-.68-1.92-1.86,4-4.17,9.8-5.08,14.41-8.14,2.77-2.24,6.17-3.56,8.81-6a15.58,15.58,0,0,1,1.52-1.3C151.46,161.27,152.25,158.3,155.07,159.21Z"/><path class="cls-8" d="M120.41,5.88c-1.22.19-2.25.59-2.32,2.06a1.76,1.76,0,0,1-1.17.67,6.33,6.33,0,0,1-2.63-.86A14.09,14.09,0,0,0,107,6.32a18.88,18.88,0,0,1-2.91-.18,9.5,9.5,0,0,1-1.48-.31c-1.33-.85-3.86-.22-3.66-3,2.18-1.81,4.79-.17,7.1-.88l2,.15a89.69,89.69,0,0,0,12,2.92l.08,0A.55.55,0,0,1,120.41,5.88Z"/><path class="cls-9" d="M124.91,177.93l2.14,1c-.38,1-1.48.61-2.13,1.07L122,181.19c-2,2-4.65,1.29-7,1.78h0a1.88,1.88,0,0,1-2,.4c-1.19-.28-2.54-.24-3.13-1.65,1.64-3.19,5.06-2.44,7.67-3.48.45-.19,1.12-.25,1.33-.61C121.08,173.89,123,175,124.91,177.93Z"/><path class="cls-2" d="M106.06,185.07A5,5,0,0,1,102.2,187q-8.64.1-17.29,0a4.88,4.88,0,0,1-3.84-1.93c1.65-1.71,3.79-1.25,5.81-1.34a34.39,34.39,0,0,0,14.25,0C102.89,183.77,104.71,183.56,106.06,185.07Z"/><path class="cls-10" d="M186,99.08c-.34,1.6-.67,3.2-1,4.8a.77.77,0,0,1-.95.53,4.59,4.59,0,0,1-1.51-1.1,4.79,4.79,0,0,0-2.08-1.23,3.27,3.27,0,0,1-1.6-1c-.26-1.89,1.18-2.73,2.3-3.78A10,10,0,0,0,183.3,94c1.51-1.84,2.54-.9,3.48.59A4.94,4.94,0,0,1,186,99.08Z"/><path class="cls-2" d="M5.89,120.06c-2.83-5.29-6-10.52-3.9-16.94l.37-.28c3.53,3.13,1.81,7.82,3.45,11.51a20.49,20.49,0,0,1,.58,2.21C6.58,117.78,7.15,119.05,5.89,120.06Z"/><path class="cls-2" d="M183.92,78.14c-1.28-1.87-.34-4.12-1-6.09a1.45,1.45,0,0,1,.22-2C186.9,75,185.54,80.79,186,86.29c-.6-1.17-1.2-2.34-1.79-3.51C183.12,81.28,183.49,79.71,183.92,78.14Z"/><path class="cls-2" d="M36.05,165.23l12.77,8.82C42.85,173.59,38.88,170.24,36.05,165.23Z"/><path class="cls-2" d="M186,99.08l.18-5c-1.11-1.55-2.08-3.13-1.24-5.15l1-2C188.94,91.62,189,95.76,186,99.08Z"/><path class="cls-11" d="M10,125.06l-1.75,3L7.91,127a10.45,10.45,0,0,1-1.86-4.84c-.61-.48-.78-.91.14-1.21,1.19-1.53-.79-3.73,1.08-5.12A7.88,7.88,0,0,1,10,125.06Z"/><path class="cls-2" d="M64.09,181.14l10.1,1.75a5,5,0,0,1,2.75-.26c1.25.27,2.26.79,2.39,2.24C74.24,183.66,68.53,185,64.09,181.14Z"/><path class="cls-2" d="M140.1,173.05l10.85-7.2A12.4,12.4,0,0,1,140.1,173.05Z"/><path class="cls-2" d="M184.13,104.29l.82-.41c1.33,4.68,1.75,9.23-2,13.13-.23-2.75,1.59-5.24,1-8C182.78,107.36,182.61,105.79,184.13,104.29Z"/><path class="cls-2" d="M156,161a8,8,0,0,0,.28-.87c3.47-1.42,4.69-5.26,7.72-7.15C162.78,157.1,161.18,160.84,156,161Z"/><path class="cls-2" d="M120,5.06a23.6,23.6,0,0,1-12-2.92C112.14,2.63,116.28,3.05,120,5.06Z"/><path class="cls-2" d="M150.1,20.8,142,15.11C145.56,15,149.53,17.8,150.1,20.8Z"/><path class="cls-2" d="M172,45.06l-4.78-7C169.88,38.47,172.39,42.14,172,45.06Z"/><path class="cls-2" d="M167.19,149.08,172,142C172.4,145,169.88,148.68,167.19,149.08Z"/><path class="cls-2" d="M164,34l-6.34-6.8C161.43,28,163.8,30,164,34Z"/><path class="cls-2" d="M178.79,128.93q1.61-4.46,3.2-8.9C182,123.37,182.86,127,178.79,128.93Z"/><path class="cls-2" d="M132.94,10.29,125.11,7.1Q130.47,5.15,132.94,10.29Z"/><path class="cls-2" d="M21.08,150.18a23.94,23.94,0,0,1,5.84,6.87C23,156.48,22.1,153.26,21.08,150.18Z"/><path class="cls-12" d="M79.34,184.87l-2.48-1.75c2.74-2.17,5.89.52,8.71-.75a3.57,3.57,0,0,1,2.23.3c1.11,1.21.14,1.73-.77,2.27l-6,.11Z"/><path class="cls-2" d="M176,52.17l-3.95-7.06C174.7,46.72,177.09,48.47,176,52.17Z"/><path class="cls-2" d="M30.14,160l5.74,5.08C32.54,165,30.42,163.53,30.14,160Z"/><path class="cls-2" d="M10.08,132.12a24.8,24.8,0,0,1,3.79,6.94C10.54,137.88,9.92,135.21,10.08,132.12Z"/><path class="cls-2" d="M115,183c2.11-1.48,4.76-.84,7-1.78C120.4,184.55,117.78,184,115,183Z"/><path class="cls-2" d="M181.2,66.59c-1.51-1.6-.62-3.69-1.12-5.49,3.6,1,1.31,4,1.93,5.95C181.49,67.33,181.21,67.2,181.2,66.59Z"/><path class="cls-2" d="M113,182.94l2,0a8.61,8.61,0,0,1-7.11,2,1.46,1.46,0,0,1,.17-1.44C109.56,182,111.27,182.44,113,182.94Z"/><path class="cls-13" d="M108.38,184.09c-.16.28-.32.56-.49.84l-1.83.14-5-.13c-.88-.49-1.72-1-.93-2.2a3.37,3.37,0,0,1,2.07-.57,8.91,8.91,0,0,1,1.45.22C105.24,183,107.16,182.57,108.38,184.09Z"/><path class="cls-2" d="M132.79,176.93l6.15-3.11C138.16,177.36,135.24,176.67,132.79,176.93Z"/><path class="cls-14" d="M7.18,115.89c-.45,1.67.59,3.64-1,5.09a7.6,7.6,0,0,0-.3-.92l-.7-3.15c1-1.16-.6-3.09,1.15-4.06C8,113.48,8,114.58,7.18,115.89Z"/><path class="cls-2" d="M173.06,140.06,176,135C177.68,138.22,175.28,139.08,173.06,140.06Z"/><path class="cls-2" d="M120.41,5.88a3.58,3.58,0,0,0-.3-.79c2.58-1.7,3.8,0,4.9,2Z"/><path class="cls-2" d="M140.06,14l-5-2.85C137.28,11.07,139.7,10.71,140.06,14Z"/><path class="cls-2" d="M16.2,143c1.5.95,2.05,2.56,2.75,4.05C16.82,146.53,14.79,145.93,16.2,143Z"/><path class="cls-2" d="M6.05,122.19c1.53,1.27,1.2,3.24,1.86,4.84C6.19,125.84,4.35,124.7,6.05,122.19Z"/><path class="cls-2" d="M155,25.08l-3.11-2.93C153.78,22.27,156.39,21.59,155,25.08Z"/><path class="cls-2" d="M176,135q1-2,2-4C178.93,133.12,178.64,134.65,176,135Z"/><path class="cls-2" d="M51.07,175.24c2,.43,4,1,5.4,2.66C54.41,177.54,52,177.87,51.07,175.24Z"/><path class="cls-2" d="M14.19,140a3.87,3.87,0,0,1,2,3C15.31,142.12,12.34,142.67,14.19,140Z"/><path class="cls-2" d="M166.91,37.37a6.76,6.76,0,0,1-2.83-3.28C167.41,33.12,166.5,35.82,166.91,37.37Z"/><path class="cls-15" d="M181.2,66.59a5.43,5.43,0,0,1,.81.46,3.12,3.12,0,0,0,1.11,3l-.22,2A6,6,0,0,1,181.2,66.59Z"/><path class="cls-2" d="M128.1,179c.66-1.14,1.87-.88,2.89-1.12C130.93,180.61,129.46,179.68,128.1,179Z"/><path class="cls-2" d="M28.05,158.21c1.16,0,1.6.92,2.07,1.76-.69.25-1.35,1-2.13.32S27.79,158.9,28.05,158.21Z"/><path class="cls-2" d="M180,61c-1.11-.64-1-1.82-1.21-2.84C181.57,58.13,180.71,59.62,180,61Z"/><path class="cls-2" d="M153,164l2.09-1.94c.22.73,1,1.46.13,2.2S153.68,164.2,153,164Z"/><path class="cls-2" d="M124.92,180l2.13-1.07,1,.18C127.72,181.89,126.17,180.41,124.92,180Z"/><path class="cls-16" d="M6.22,67.08c6.62-23.29,21-40.51,41.48-52.93,6.11-3.7,12.73-6.23,19.44-8.58,1.11-.39,2.14-1,3,.34.65,1.47-.64,2.09-1.31,3a8.44,8.44,0,0,1-3,1.94A35.86,35.86,0,0,0,58.45,13c-4,1.14-7.45,3.37-10.81,5.72-5,3.6-10,7-14.09,11.72a40.27,40.27,0,0,0-7.74,7.24c-1.78,2.29-3.15,4.88-5.12,7a40.23,40.23,0,0,0-5.6,9.7,13.14,13.14,0,0,1-.39,1.36c-1.8,4.55-3.83,9-4.75,13.86a4.67,4.67,0,0,1-2.19,3.65c-2.09-.53-1.62-2.12-1.35-3.51C6.59,68.81,7.22,67.92,6.22,67.08Z"/><path class="cls-17" d="M2.23,88.91l.18-4.72c1.27-4.09.37-8.6,2.48-12.51C6.62,73,6.25,75.18,7,76.91a17.64,17.64,0,0,1,.08,7.2,11,11,0,0,1-1.85,3.32C4.41,88.3,3.75,89.49,2.23,88.91Z"/><path class="cls-18" d="M68.09,8.13l2-2.22L73,5.05c2.74-.45,5.45-1.33,8.29-.71a1.58,1.58,0,0,1,1,1.29A16.5,16.5,0,0,1,68.09,8.13Z"/><path class="cls-19" d="M6.15,77.1c-1.89-1.47-.68-3.65-1.26-5.42s1.2-3,1.33-4.6c1-.37,2.1-.7,1.66,1a12.53,12.53,0,0,0-.75,5.14C8.33,74.86,7.88,76.14,6.15,77.1Z"/><path class="cls-20" d="M81.89,4.85,73,5.05c1.54-1.82,3.88-1.35,5.82-2,1.19-.7,2.5-.4,3.77-.4.84,0,1.72.26,1.33,1.33C83.63,4.78,82.74,4.94,81.89,4.85Z"/><path class="cls-18" d="M81.89,4.85c.36-.32,1-.59,1-1,.24-1.13-.73-.61-1.19-.66-1-.12-2-.13-2.92-.19L81.07,2,87,2.1a1.8,1.8,0,0,1,.27,2.21c-1.5,1.41-3.11,2.21-5.1.93Z"/><path class="cls-21" d="M99,2.87c.88,1.73,3.12.72,4.19,2.08a4.64,4.64,0,0,1-.82,3.41,4.35,4.35,0,0,1-3.21,1.29C96.88,8.74,95.72,6,93,6a3.23,3.23,0,0,1-1.1-.84c.86-4.21,4-1.93,6.21-2.15A2.32,2.32,0,0,1,99,2.87Z"/><path class="cls-22" d="M87,3.92,87,2.1c3,.68,6.07-2.51,9.15-.1a11,11,0,0,0-6.41,4.21,10.21,10.21,0,0,0-1,1c-1,1.19-1.65,4-3.77,2.37-1.61-1.25-.33-3.29,1-4.65C86.26,4.61,86.65,4.3,87,3.92Z"/><path class="cls-23" d="M89.12,5.11c2-1.7,4-3.57,7-3.11l1.93,1C96.35,4.49,93.4,2.42,92,5a2.86,2.86,0,0,1-2.1,2.41,1.54,1.54,0,0,1-1.2-.5A1.49,1.49,0,0,1,89.12,5.11Z"/><path class="cls-24" d="M2.23,88.91,4.1,87.06c1.11-.42,1.77.16,2.28,1a3.82,3.82,0,0,1-.8,2.62c-2.14,4,.56,5.57,3.61,6.92a4,4,0,0,1,1.82,3A5.63,5.63,0,0,1,11,102c-1.1,2-.48,4.54-2,6.44a2.72,2.72,0,0,1-2.61.08c-1.51-1.3,0-3.43-1.36-4.78s-1.69-3.2-2.83-4.62Z"/><path class="cls-25" d="M2.2,99.15c2.48.19,2.22,2.81,3.56,4,2.53,1.68-1.59,4.22.77,5.92a3.48,3.48,0,0,1,.12,2.25c-1.07,1.16-.74,2.91-1.73,4.11-2.18-3.93-1.19-8.51-2.56-12.6C2.31,101.61,2.25,100.38,2.2,99.15Z"/><path class="cls-26" d="M157,45.16A82.5,82.5,0,0,1,170,70.1c3.66,4.5,3.69,9.7,2.86,15.05a2.28,2.28,0,0,1-1.1,1.15c-2.84-.47-2.75-2.87-3.16-4.9-1.09-5.3-1.74-10.71-4.21-15.63a79.82,79.82,0,0,0-12.06-20.42C142,32.5,128.47,24.46,112.86,19.62c-1.49-.46-3.47-.2-4-2.33a3.43,3.43,0,0,1,2.28-1.77c2.48-.39,4.74.61,7.08,1.12a15.45,15.45,0,0,1,2.74.75,18.3,18.3,0,0,1,1.87,1c6,1.93,11.27,5.46,16.67,8.65a101.49,101.49,0,0,1,14.07,12.37C155,41.12,157.14,42.46,157,45.16Z"/><path class="cls-27" d="M157,45.16c-1.31-1.7-2.61-3.4-3.92-5.09a2.66,2.66,0,0,1,.95-3.23c1.89-.38,3.22.62,4.47,1.83,1.81,3.18,4.45,3.61,7.63,2.32,3.23,2.6,3.67,6.9,6,10a3.84,3.84,0,0,0,.88,3.07c1.14,1.59,2.76,2.88,3.09,5C173,57.46,170.38,55.36,169,52c-.84-.8-1.6-1.83-3-.92C164.44,46.93,160.67,46.11,157,45.16Z"/><path class="cls-28" d="M172,86c.52-5.46-.63-10.71-2-15.93.16-1,.51-2,1.81-1.85,1.57.23,2.15,1.42,2.18,2.87a32,32,0,0,0,2,11,2.9,2.9,0,0,1,3,1c.6,1.22,2.55.64,2.92,2.18a3.43,3.43,0,0,1-2,.92c-1.46.18-2.93.1-4.39.18C174.37,86.38,173.15,86.77,172,86Z"/><path class="cls-29" d="M184.9,88.92a8.87,8.87,0,0,1,1.24,5.15c-.88-.29-1.93-1.18-2.21.63-.27.25-.75.46-.85.29-2.63-4.23-7.15-4.46-11.32-5.41-.18-2.74,2-2.5,3.63-2.74,2.57-.37,5.13.43,7.71.16Z"/><path class="cls-30" d="M183.1,87c-.34,2.52-1.94,1.19-3.29,1.25-2.67.11-5.92-1.93-7.83,1.71l-.52.54a2.22,2.22,0,0,1-2.73-.5c-.74-2.87,1.23-3.4,3.32-3.82V86l3-1c1.67.54,3.33,1.6,5.05.1l1.9.17C182.33,85.85,182.71,86.43,183.1,87Z"/><path class="cls-31" d="M179,83.09c-1.09-.06-2.27.16-3-1a4.76,4.76,0,0,1,.09-1.47c.63-1.62.45-3.67,2.12-4.77.71-.47,1.5.37,1.43.83C179.37,78.8,181.89,81.24,179,83.09Z"/><path class="cls-32" d="M166.07,51.06c.43-.89,1-1.84,2.1-1.52S169,51.09,169,52Z"/><path class="cls-33" d="M183.92,78.14l.24,4.64c-.4.15-.32,2.15-1,.56s-.12-3.49-.11-5.26C183.37,78.09,183.65,78.11,183.92,78.14Z"/><path class="cls-34" d="M141.06,18.08A69.33,69.33,0,0,1,157.17,31c-3.66.71-3.66.71-5.64,4.55a25.19,25.19,0,0,1-12.06-11C138.39,22.68,137.27,19.41,141.06,18.08Z"/><path class="cls-35" d="M141.06,18.08c-2,3.33-1.64,6.5,1.41,8.8,3.37,2.55,5.38,6.67,9.61,8.17a2.41,2.41,0,0,1,2,2l-1,3L139.08,28a7,7,0,0,1-1.87-7.65,4.11,4.11,0,0,0-.56-1.63c-.8-.91-2.08-1.25-2.81-2.25a2.84,2.84,0,0,1-.37-1.24,2,2,0,0,1,.58-1.14C136.55,15.13,139.19,15.92,141.06,18.08Z"/><path class="cls-36" d="M154.05,37.08c-.66-.68-1.31-1.36-2-2,.18-1.57-1.88-3-.32-4.65,2-2.11,3.52,1.07,5.41.61a17.22,17.22,0,0,1,4.88,5.07c.7,1.55,2.28,3.2.25,4.7s-3.18-.25-4.27-1.69Z"/><path class="cls-37" d="M158,39.09c1.27.34,2.14,2.34,3.78,1,1.46-1.2-.28-2.69.24-4,2,1.13,2.68,3.3,4.06,4.91C162.46,44.32,160.27,43.8,158,39.09Z"/><path class="cls-38" d="M134.05,14.1c0,.33,0,.65,0,1-2.11,1.46-3.78-.18-5.53-.88-3.24-1.28-6.47-2.57-9.73-3.82-.9-.48-1.89-.88-1.74-2.18l1-.26A62.31,62.31,0,0,1,134.05,14.1Z"/><path class="cls-39" d="M173,54.07c-1.12-.78-2.84-1.4-.88-3.07C173.29,51.79,173,53,173,54.07Z"/><path class="cls-39" d="M41,165.12a41.29,41.29,0,0,1-11.9-10.07A15.18,15.18,0,0,0,25.21,151c-1.15-2.13-3.88-3.15-4.15-5.9,4-2.15,1.61-5,.87-7.71a3.79,3.79,0,0,1-.07-3.48,4.75,4.75,0,0,1,3.43-1.21c2.84,1.59,3,4.79,4.38,7.26-.21,5.83,3.29,9.79,6.9,13.7,2.82,3.74,6.34,5.36,11,3.67,7,2.63,12.83,7.58,20.09,9.67,5.87,1.69,11.64,3.82,17.91,3.36a3,3,0,0,1,1.43.46c.71,1,.23,1.93-.07,2.88-1,2-.11,4.47-1.58,6.34-4.39-2.4-8.63-4.95-14.12-3.71-1.87.42-2.85-2.42-4.83-3.14C61,171.23,55,170.65,50.94,165.82c-.49-.58-1.59-.31-2.42-.38C46,165.19,43.43,166.67,41,165.12Z"/><path class="cls-40" d="M49.07,164.05c1,.17,2.39,0,2.8.58,3.83,5.38,10.78,4.48,15.34,7.7,4.06,2.87,8.36,2.16,12.46,3.22,2.92.75,4.4,2,5.38,4.51a2.15,2.15,0,0,1,.49,2.32c-3,2.6-5.6-.09-8.38-.45-4.92-2-10.43-2.1-15.08-4.9-1.64-5.17-1.64-5.17-5-2.05A33,33,0,0,1,48.1,170c.41-.64,1.2-.88,1.59-1.5a3,3,0,0,0-1.39-.67C45.27,165.92,47.85,165.13,49.07,164.05Z"/><path class="cls-41" d="M6.15,111,6,109.17a.68.68,0,0,1,.13-1.07l3,0c2.85.89,4.53,3.07,5.73,5.57a8.06,8.06,0,0,0,3.06,3.63,4.31,4.31,0,0,1,.92,1.07,9,9,0,0,1,1,4.81,9.82,9.82,0,0,0,.31,4.41,5.06,5.06,0,0,1-3.58,6.23c-3,1-2.28-2.47-3.62-3.56-.36-.29-.54-.82-.91-1.16l-2-4q-1.42-4.57-2.84-9.17a4.11,4.11,0,0,0-.94-3.1C5.42,112.24,5.54,111.64,6.15,111Z"/><path class="cls-42" d="M12,129.07c2,.63,2.15,2.82,3.32,4.11,4.19-1.51,4.5-4.38,3-8a2.08,2.08,0,0,1,.66-2.26,2.43,2.43,0,0,1,1.22.55,3.7,3.7,0,0,1,.69,1.18c.61,1-.52,2.64,1.24,3.2a2.24,2.24,0,0,1,.66,1c.52,2-2.32,2.35-2.12,4.21-.62,2.2,1.12,2.92,2.44,3.91a11.82,11.82,0,0,1,1.24,6.1c-.3,2.59-1.6,2.26-3.25,1.94h0c-.84-1.45-2.09-2.6-2.95-4C16.27,137,13.08,133.55,12,129.07Z"/><path class="cls-43" d="M52,168c-.18,2.81-2.34,1.87-3.9,2.07-2.55-1.38-5.52-2.17-7.12-4.92,2.73-.15,5.28-1.54,8.09-1.07.45,1-3.42,2.13.08,3C49.86,168.17,51,167.71,52,168Z"/><path class="cls-44" d="M57.05,175c-.15-2.42.23-4.5,3.41-3.84,4.22.88,1.75,3.74,1.62,5.89Z"/><path class="cls-45" d="M77.16,181.93c2.65-.84,5.25,2.39,7.92.1.83-.29,1.1.12,1.1.87-3.05,2.61-6.23-.32-9.32.22l-2.67-.23C74.92,181.79,76.13,182.13,77.16,181.93Z"/><path class="cls-46" d="M25.21,151a4.39,4.39,0,0,1,3.87,4.08A9,9,0,0,1,25.21,151Z"/><path class="cls-39" d="M18.11,141c1.58.9,2.88,2,2.95,4C19.47,144.17,18.24,143,18.11,141Z"/><path class="cls-47" d="M171.05,138.05c-1.71,2.65-2.14,6.07-5,8a4.76,4.76,0,0,0-2.86,2.56c-2.4,4.4-6.29,5.94-11.08,5.73a1.88,1.88,0,0,1-.52-1.25c.91-3.28,4-5,5.54-7.85,1.7-1.75,2.46-4.68,5.67-4.55,2.73,1.45,4.34,1.11,3.93-2.46a11.26,11.26,0,0,1,2.12-3.09c2-.48,1.9,1.05,2.14,2.26C171,137.63,171,137.84,171.05,138.05Z"/><path class="cls-47" d="M177,126c-.71,4.65-3.26,8.39-6,12h0c0-2.79-2.13-4.49-3.41-6.64a10.66,10.66,0,0,1,.67-4.92c.76-1.86,1.67-3.8,4-4C174.8,122.29,176.34,123.66,177,126Z"/><path class="cls-48" d="M177,126c-4.82-4-6.81-3.28-8,2.79a31.17,31.17,0,0,1-1,3.25l-.54.52a3.75,3.75,0,0,1-2.19.35,2.25,2.25,0,0,1-1.77-1.26,39.43,39.43,0,0,1,5.94-15.82,1.49,1.49,0,0,1,1.18.75,4.73,4.73,0,0,1,.44,2.09c.17.61-.48,1.61.83,1.67,3.33-3.22,3.44-3.19,6.05,1.67C177.67,123.35,177.34,124.68,177,126Z"/><path class="cls-49" d="M178,122l-3.56-3.1c-.64,1.07-.77,2.68-2.4,3.12-1.26-4.37.95-7.5,3.72-10.44a11,11,0,0,0,3.8-4.29c.47-.8,1.28-1.74,2.33-1.12,1.24.74,1,1.87.19,2.9C180.13,113.21,181.62,118.42,178,122Z"/><path class="cls-50" d="M182.07,109.09c-.2-.75-.24-2-.61-2.13-.94-.26-1.3.74-1.33,1.52-.09,2.69-1.5,3.78-4.08,3.58-3.12-1.8-1-4.51-1.18-6.82a4.43,4.43,0,0,1,.75-2c2-.18,4.47.67,5.48-2.13,1.33,0,1.9.74,2,2a8.93,8.93,0,0,1,0,6Z"/><path class="cls-51" d="M152.07,154c4.12-1.48,9.31-1.19,10.78-7a2.09,2.09,0,0,1,3.24-1c-1.3,3.71-4.91,5.67-6.77,9-.51.9-1.44.41-2.17,0a4.28,4.28,0,0,1-2.21,1C153.61,155.92,152,156.15,152.07,154Z"/><path class="cls-52" d="M155.08,155.08l2.07,0c.14,1.81-1.15,2.89-2.08,4.16l-5,3.72a9.37,9.37,0,0,1-2.62-1.85c-1.75-5.06,2.88-2.82,4.55-4C152.9,156.28,154.08,155.82,155.08,155.08Z"/><path class="cls-53" d="M183.12,109.05c0-2,0-4,0-6,.35.4.7.8,1.06,1.19-.08,1.57-.15,3.13-.23,4.69Z"/><path class="cls-54" d="M124.91,177.93c-2.8-2.7-4.46,1.4-6.85,1.14-1.57-.93-3.4-1.66-3-4,.41-.84,1.85-.36,2-1.59-2-.71-1.42,1.57-2.38,2a4.69,4.69,0,0,1-4.09.39A28.22,28.22,0,0,0,106.1,174a3.51,3.51,0,0,1-1.19-.78,1.75,1.75,0,0,1,0-1.4,5.47,5.47,0,0,1,2.47-1.56,18.38,18.38,0,0,1,3.61-.59c5.1-.47,9.57-3.19,14.57-4,1.76,2.34,4.26,1.05,6.45,1.3a3.75,3.75,0,0,1,1.71,1.72c1,2.7,1.25-.07,1.86-.24,1.87-.53,3.5-.42,4.42,1.6C135.55,173.74,129.65,174.73,124.91,177.93Z"/><path class="cls-52" d="M140,170a9.79,9.79,0,0,0-4.86-1.09,2.69,2.69,0,0,1-1-2.7,3.39,3.39,0,0,1,.6-1.29c1.44,0,2.78-.08,2.79-2,1-1.77,4.82-1.88,3.11-5.27.71-2.89,3-3.89,5.51-4.52,1.61,0,3.07.18,3.4,2.16-.11,1.89-2.09,2.32-2.89,3.67-.7,1.18-2,2.46.21,3.5a4.33,4.33,0,0,1,2,1.57C146.43,166.72,143,168,140,170Z"/><path class="cls-55" d="M148.92,164a2,2,0,0,1-2-1c-.56-1.13-.5-2,1-2,1.24.07,2,.62,2,2Z"/><path class="cls-56" d="M117,8.2l2,.9c1.79,4.09,1.11,5.23-3.09,5.23-2.28,0-4.42-1.05-6.72-.85-2.26-.06-4.56,0-6.3-1.81a3,3,0,0,1-.43-3,1.14,1.14,0,0,1,1.45-.79c.62.15,1.67.68,1.71.59.41-1-.75-1-1.11-1.63a2,2,0,0,1-.47-1.71l2.91.06c2.73.49,5.4,1.23,8.1,1.85Z"/><path class="cls-57" d="M104.05,5.17c1.38,1.47,3.66,2.06,4.29,4.37-2.31,1.52-3.81-.21-5.46-1.26l-.47.13-.3-.38C102,6.85,102,5.7,103.15,5A4,4,0,0,1,104.05,5.17Z"/><path class="cls-58" d="M115.06,7.08c-3,.72-5.53-.67-8.09-1.85C109.88,4.9,112.65,5.2,115.06,7.08Z"/><path class="cls-59" d="M110,175h5.07c.39,1.79,3.1,1.87,3,4-2.36,1.91-5.83.67-8.09,2.87-2,1.73-4.43.87-6.66,1.23l-1.53-.32c-2.32-2.14-.11-3.68.71-5.41,1.59-2.76,4.47-1.84,6.83-2.41Z"/><path class="cls-60" d="M103.31,183.17c2-1.62,4.43-.9,6.66-1.23,1,.22,2.29-.17,3,1-1.5.58-3.36-.32-4.62,1.15C106.76,183.4,104.81,184.57,103.31,183.17Z"/><path class="cls-61" d="M100.16,182.71l.93,2.23a26.83,26.83,0,0,1-14.06,0l1-2a2.81,2.81,0,0,1,.82-3.13,2.92,2.92,0,0,1,1.28-.38c1.75.22,3.11,1.51,4.85,1.78,1.26.36,2.45-.21,3.68-.31S101,181,100.16,182.71Z"/><path class="cls-62" d="M172,90c5.87-3.18,9,.64,12,4.74A5.08,5.08,0,0,1,182,98.06c-.64-.58-1.76-.18-2.26-1.09-.48-1.41.54-3.23-1.22-4.27-2.07-1.07-5.37.92-6.46-2.59Z"/><path class="cls-63" d="M180.05,97.06a2,2,0,0,1,2,1,6.73,6.73,0,0,0-3,3c-.77,1.17-2.1,1.11-3.24,1.47-2.85.33-2.65-2.32-3.7-3.77a1.68,1.68,0,0,1,.11-2C174.87,95.87,177.45,96.49,180.05,97.06Z"/><path class="cls-64" d="M176,102.12c.71-1.22,1.91-1,3-1.06l2,.06c-.18,1.57.45,3.56-1.39,4.39-2.23,1-2.29-1.81-3.65-2.45a.57.57,0,0,1-.27-.62C175.86,102.23,175.93,102.12,176,102.12Z"/><path class="cls-65" d="M6.15,111l.09,1.77c-.5,1.33.41,3-1,4.13l-.27-1.49C5.44,114,4.44,112.13,6.15,111Z"/><path class="cls-66" d="M89,180.06c-.32,1-.64,1.92-1,2.88l-1.87,0-1.1-.87,0-2c.5-2.36-1-5,.93-7.14.45-.28.11,1.5.83.35.55-.89,1.12-1.6,2.3-1.38a2.7,2.7,0,0,1,.6,1.25C89.22,175.42,89.85,177.81,89,180.06Z"/><path class="cls-67" d="M100.16,182.71c-.27-1.44-1.17-1.14-2.07-.73-1.09.5-2.18,1.51-3.21-.07-.24-2.15,1.7-3.12,2.51-4.71.89-1.32,1.43-3.15,3.67-2.52,1.07.88,2.51,1.55,2,3.37-.6,1.55-2.16,2.85-1.29,4.8Z"/><path class="cls-68" d="M14.05,54.05a28.06,28.06,0,0,1,6-10c3.4,2.91,4.43,2.74,6.45-1.1,1-1.86,1.24-4.1,2.87-5.64,1.31-1,2.54-2.24,4.45-1.6.9,3-3,5.45-1,8.59A34.89,34.89,0,0,1,25,54.47c-2.52.68-2.65-1.7-4-3.57a23.57,23.57,0,0,1,2.19,7.21c.15,2.67-1.27,4.87-2.18,7.23-1,1.31-.43,3.85-3.07,3.84-1.43-1.67-1.58-3.78-2-5.81a15.38,15.38,0,0,1,.82-5.2,8.71,8.71,0,0,1,1.14-2.57c.58-1,1.41-2.15.47-3.08-.68-.68-1.23.61-1.85,1S15,54.64,14.05,54.05Z"/><path class="cls-69" d="M89.12,5.11l.11,2.18c.8,1.22.1,2.24-.4,3.29-.74,1.13-1,2.72-2.79,2.84-2.18-.9-4.38-1.32-6.63-.22a27,27,0,0,1-9.18,1.32c-1.8.19-3.55,1-5.38.41-1.27-.38-2.7-.8-2.78-2.38s1.16-1.83,2.38-1.94c.68-.06,1.29-.17,1.51-.93l2.13-1.55L82.18,5.24c1.75.13,3.23-.72,4.78-1.32-.33,1.84-2.17,3.3-1.63,5.58C87.71,8.72,86.75,5.53,89.12,5.11Z"/><path class="cls-70" d="M47.09,18.1A23.11,23.11,0,0,1,58,12.05a1,1,0,0,1,.33.81c0,.3-.06.45-.13.45-.85,1.48-3.18,1.67-3.38,4,2.07.81,3.6-.69,5.32-1.21a9.16,9.16,0,0,1,4.26-1.08c2.34,0,4.69,0,6.59,1.7.49,2.77-2.24,2.17-3.38,3.24-4.8,1.58-9.13,4.33-14,5.62-1.49-1.3-4.05,1.26-5.16-1.43C47.65,22.25,51.23,19.32,47.09,18.1Z"/><path class="cls-71" d="M6.15,77.1c.33-1.31.65-2.62,1-3.93C9.83,67.25,10.52,60.59,14,55a2.31,2.31,0,0,1,1.71,2.14c-1.5,5.16-3.66,10.09-4.5,15.5a4,4,0,0,0,1.37,4,13.13,13.13,0,0,1-1,7.32c-1.77,1.13-3.74,1-5.71.91Z"/><path class="cls-72" d="M30.07,38.06c-1.76,2.37-1.87,5.52-3.82,7.85C25.1,47.28,24,48.38,22.15,48c-2.11-.47-2.09-2.23-2.09-3.9l5.07-7a36.61,36.61,0,0,0,4.37-3.88c.68-.63,1.42-1.72,2.44-1s.68,2,.07,3S30.68,37.1,30.07,38.06Z"/><path class="cls-73" d="M30.07,38.06l1.8-5.28c-3,.65-3.75,4.28-6.74,4.32,2.25-2.74,4.31-5.67,7.75-7.12,2.42-1.63,3.92-4.48,7-5.26,1.51.69,2.37,2.6,4.4,2.35-.19,3.15-2.79,3.93-5,4.77-1.78.67-3.4,1.27-4.19,3.14a3,3,0,0,1-1,.89Z"/><path class="cls-74" d="M40.06,25.07,32.88,30c3.63-5.28,9-8.53,14.21-11.88,1.22.32,2.63-1.51,3.53-.19C52.29,20.34,49,21.8,49,24a1.37,1.37,0,0,1-1.85.36c-.83-.52.1-3.58-2.48-1.65C43.29,23.74,41.92,24.91,40.06,25.07Z"/><path class="cls-75" d="M57.93,12.89a4.7,4.7,0,0,0,.1-.84A19.37,19.37,0,0,1,66,9.68c-.21,1.86-2.72,1-3.15,2.73,2.16,3,4.91.9,7.42.78-.51,4.4-4.46,1.23-6.24,2.83l-3.87,1.13C57.22,16.85,55.77,15.8,57.93,12.89Z"/><path class="cls-76" d="M15.11,57.05c-.39-.7-.78-1.4-1.16-2.1a2.71,2.71,0,0,1,.1-.9L16,53c2.21-.18,3.26.77,3,3l-1,2C16.5,59.16,15.76,58.24,15.11,57.05Z"/><path class="cls-77" d="M5.84,84.86c1.51-1.76,3.42-.68,5.18-.73,1.06,0,2,.18,2.29,1.38C11.47,88,8.77,88,6.05,88L4.1,87.06Z"/><path class="cls-78" d="M93.13,5.19c3.41-.82,4.48,1.79,5.84,4,1.12,2,0,2.76-1.73,3.12-.38-.17-.76-.09-.76.24.14,19.95-.4,39.9.28,59.85a4.31,4.31,0,0,1-.09,1.75c-.67,1.4-1.61,1.7-2.89.74a5.51,5.51,0,0,1-1.09-3.55c-.2-21.27.24-42.54-.24-63.81A3.25,3.25,0,0,1,93.13,5.19Z"/><path class="cls-79" d="M93.13,5.19a27.38,27.38,0,0,1,1,7.81Q94,42.54,94,72.07c-4.07-1.85-1.62-5.54-2.38-8.33,0-13.52,0-27,0-40.55-.27-4.49.73-9.06-.65-13.5a8.44,8.44,0,0,1-1-1.17.94.94,0,0,1,.08-1.34L92,5Z"/><path class="cls-80" d="M97.1,12.14a2.94,2.94,0,0,0,1.87-3L102.11,8a6.91,6.91,0,0,1,.77.25c.07.93.13,1.85.2,2.78.73,1,.53,1.76-.61,2.24-2-1.6-1.69.9-2.38,1.5-2.35,2.06-3.81,2.21-3.8-1.52A2.38,2.38,0,0,1,97.1,12.14Z"/><path class="cls-81" d="M90.1,7.18l0,1c.72,1.07.25,2.42.64,3.56.32.61.69-.57.19-.13a3.16,3.16,0,0,1,.18-3.55c2.36.4,1.89,2.26,1.9,3.81,0,3.4,0,6.81,0,10.21-.8.6-.24,2.58-2.12,2.09-.84-.83-.92-2-1.26-3-.45-1.22-2-1.69-2.21-3.05a5,5,0,0,1,0-1.34,52,52,0,0,0,.65-6.7l1.14-2.79A5.18,5.18,0,0,1,90.1,7.18Z"/><path class="cls-82" d="M18.06,118.07c-2.08-.28-3.7-.95-4.08-3.43-.46-3-3.74-4-4.92-6.57-.24-2.23-.66-4.49,1.21-6.31a1.47,1.47,0,0,1,1.26.5c.71,5.44,4.87,9.1,7.07,13.78A2.11,2.11,0,0,1,18.06,118.07Z"/><path class="cls-83" d="M11.14,102l-.88-.27,0-.37c.87-1.35.61-2.89.77-4.37,2.64-2.66,5.36-2.6,8.15-.25a3.14,3.14,0,0,1-.82,3.53c-.57.71-3.44-.22-1.44,2.4.89,1.17.5,3.12-.69,4.48C13.27,106.69,13.51,103.07,11.14,102Z"/><path class="cls-84" d="M6.05,88c1.9-2,5-1.1,7-2.84a1.8,1.8,0,0,1,2-.45,5.5,5.5,0,0,1,1.87,2.24c1,2.84-.83,3-2.77,2.81-2.23-.22-4.45-.85-6.53.57a2.67,2.67,0,0,1-2.09.16L5,90Z"/><path class="cls-84" d="M9,98.21C3.74,97.3,2.09,93.88,5,90l.16.13c1.16,1.11.95,2.77,1.63,4.07S9,96.13,9.3,97.69Z"/><path class="cls-84" d="M11.07,98.06c4.24,2.25-.76,2.17-.84,3.32L9,98.21l.11-.12A1.31,1.31,0,0,1,11.07,98.06Z"/><path class="cls-82" d="M6.1,108.1c0,.36-.09.71-.13,1.07-2.13-1.93.79-4-.21-6C8.35,104.64,6.57,106.41,6.1,108.1Z"/><path class="cls-85" d="M153.23,45A55.14,55.14,0,0,1,165.1,65a2.27,2.27,0,0,1,.4.9c.23,2,2.63,4.94.4,5.74-2.83,1-2.67-2.83-3.75-4.62-6.39-14.86-16.43-26.38-30.91-33.86a5.72,5.72,0,0,0-4.35-.29,6.84,6.84,0,0,1-2.21,0c-5.06-1.27-9.49-4.6-15-4.56-4.12-.79-8.32-1.23-12.3-2.66a1.53,1.53,0,0,1-.72-1.34A2.85,2.85,0,0,1,98,22.53c6.6-1.63,12.61,1.54,18.57,2.23-2.68-1.14-6.66-.08-8.72-3.64,1.76-1.71,3.71-.88,5.62-.39A78.43,78.43,0,0,1,153.23,45Z"/><path class="cls-86" d="M153.23,45a112.15,112.15,0,0,0-23.66-16.95,64,64,0,0,0-21.52-6.95c-1.65,1.65-3.67,1.16-5.56.8-1.72-.32-3.24-.43-4.4,1.15l-.92,1.06c-2.25-5.86.35-9,7.06-8.45,1.67.18,3.46,0,4.68,1.53A85.38,85.38,0,0,1,150.4,41C151.53,42.2,152.9,43.23,153.23,45Z"/><path class="cls-87" d="M163.05,66.07c.72,1.65,1.43,3.3,2.17,4.94.05.1.3.11.5.19,1-2.2-1.18-4.08-.62-6.21,3.44,5.13,3.74,11.2,5,17,.35,1.62.1,3.38,2,4.22-1,1.25-3.23,1.53-2.91,3.78a2.92,2.92,0,0,1-1.33,1c-2.25.54-4.46.71-6.56-.55-.9-1.44.3-1.78,1.19-2.29,3.16-.19,3.67-2.22,3.24-4.81a58.61,58.61,0,0,0-4-13.26,6.43,6.43,0,0,1-.42-1.42C161.35,67.44,161,65.93,163.05,66.07Z"/><path class="cls-88" d="M138,20a15,15,0,0,0,1.12,8c-5.59-3.16-11-6.61-17.06-8.9.51-2,1.91-2.76,3.83-2.86a20.46,20.46,0,0,1,4.08,1c1.89.62,4,.21,5.78,1.45A5.29,5.29,0,0,1,138,20Z"/><path class="cls-89" d="M102.14,13.11c.31-.68.63-1.36.94-2,1.83,1.25,3.93,1,6,1.07,3.25,2.63,7.66.44,11,2.65.78,2-1.19,2.21-2,3.2L111,16.11l-.63,0c-1.48,0-3,0-4.45-.1a7.13,7.13,0,0,1-1.29-.31C103.64,15,101.79,15.13,102.14,13.11Z"/><path class="cls-38" d="M118.09,18c-.16-1.53,1.41-1.87,2-2.9,1.24-.76,2-.31,2.59.92,0,1.12.15,2.33-1.6,2.09Z"/><path class="cls-90" d="M105,15.14a6.37,6.37,0,0,0,1,.07c1.58.95,3.51-.21,5.07.84l0,.06-2.12,1.08-4.82-.33C103.44,15.76,103.39,15,105,15.14Z"/><path class="cls-89" d="M121.05,18.09a2.12,2.12,0,0,0,1-2c1.66-1,3.25-1.65,4,1-1.75-.14-2.64,1.44-4,2Z"/><path class="cls-91" d="M180.05,85.1c.23.85.87,2.15-.83,1.77-1.47-.33-3.16-.48-4.22-1.87Z"/><path class="cls-92" d="M168.05,90.12l1.09-.16,3,.15c2.25,2.34,5.84-.46,8,2.09-3.57,4.18-7.8,2.29-11.93,1.31A2.38,2.38,0,0,1,168.05,90.12Z"/><path class="cls-93" d="M126.05,17.09c-1-1.48-2.61-.87-4-1a2.06,2.06,0,0,0-2-1c-3.54-1.46-8.18,1.14-11-2.95,2,.3,4.11.56,6.15.92,3.28.58,4.87-.39,3.81-4l15,6q0,.49,0,1c-.87,1.63-1.89,3-4,2A6.47,6.47,0,0,1,126.05,17.09Z"/><path class="cls-38" d="M130,18.1c1.75.12,2.65-1.45,4-2,1.18.95,3,.6,3.94,2.08-.81,1-2.25.93-3,2C134,17.76,131.17,20,130,18.1Z"/><path class="cls-94" d="M135,20.1c.08-2.07,1.47-2.12,3-2,0,.62,0,1.24,0,1.87Z"/><path class="cls-95" d="M16,107.09c0-1.6.44-3.46-.22-4.74-1.85-3.62,1.22-1.85,2.24-2.3,2.9.5,2.1,2.9,2.28,4.67A68,68,0,0,0,39.73,146.3C50.9,157.23,63.81,164.76,79.52,167c2.26.32,4.65.45,6.65,1.82a1.58,1.58,0,0,1-.16,2.12c-6.47,2.44-12.19-1-18-2.59-7.55-2-14.07-6.5-20.81-10.34a40.78,40.78,0,0,1-4.52-2.53c-2.9-2.42-5.38-5.26-8.13-7.84a28.6,28.6,0,0,1-5.46-7.49l-4-7.08c-2.54-.77-1.87-3.43-2.95-5h0c-1.46-1-1.23-2.73-1.94-4.06l0,0c-1-1.85-.89-4.15-2.15-5.93h0l-.1-1.92C16.9,113.22,14.22,110.63,16,107.09Z"/><path class="cls-96" d="M86,170.94l0-1.88a69.53,69.53,0,0,1-32.61-13c-2.49-1.83-5.57-3.07-6.72-6.32a7.5,7.5,0,0,0-.74-4.54c-.92-2.12.32-2.89,2.37-2.7a3.64,3.64,0,0,1,1.69,1.31c10.34,9,21.3,16.72,35.52,18,1.83.17,3.66.32,4.89,2a4.66,4.66,0,0,1,.43,3.63,6.86,6.86,0,0,1-2.8,3.13,4,4,0,0,1-1.28.5A7.2,7.2,0,0,1,86,170.94Z"/><path class="cls-97" d="M29.05,140.15c2.92,1.51,3.89,4.72,6,6.91,1.16,3.51,4.83,5.21,6.22,8.56-2.63,2.46-3.74-.19-5.23-1.56C31.11,150.77,28.09,144.8,29.05,140.15Z"/><path class="cls-98" d="M36.06,154.06c1.84-.47,2.74,3.66,5,1a1.54,1.54,0,0,1,2.12-.08,5.88,5.88,0,0,1,4,3C41.48,160.53,39.07,159.67,36.06,154.06Z"/><path class="cls-99" d="M22.11,128c1,1.68,2,3.37,2.95,5-.73,1.16-1.88,1-3,1a2,2,0,0,1-2-1.07C19.22,130.7,22.94,130.3,22.11,128Z"/><path class="cls-100" d="M20.05,133a2.3,2.3,0,0,1,2,1.07c.34,1,.67,2,1,3a18.73,18.73,0,0,1-3.54-1.33C17.67,134.53,17.85,133.5,20.05,133Z"/><path class="cls-101" d="M86.81,171a4.68,4.68,0,0,0,.5-.8,1.56,1.56,0,0,1,2.39-.28c1,.92.17,1.59-.67,2.1-1.46.58-1.94,1.95-2.66,4.81-.24-2.37-.31-3.14-.39-3.92Z"/><path class="cls-102" d="M52,168c-1.29.8-2.64,1.83-2.85-.87C50.21,167,51.32,166.77,52,168Z"/><path class="cls-99" d="M18.07,118.06c1.75,1.6,2,3.76,2.15,5.93l-1.28-1.06Z"/><path class="cls-99" d="M20.17,124A6.09,6.09,0,0,1,22.11,128C17.92,128.37,21.05,125.2,20.17,124Z"/><path class="cls-103" d="M164,132.05h2.09c.69,1.95-1,3.48-.91,5.34-.32,1.44-.71,2.84-2.11,3.64-2.7.63-3.29,3.37-5,5a7.41,7.41,0,0,1-2.34-3.28C158,138.86,158.91,133.85,164,132.05Z"/><path class="cls-104" d="M149,156c-.08-2.12-1.74-1.92-3.12-2.11.23-2.93,2-4.26,4.75-4.58,2.27.55,2.33,1.95,1.42,3.72,0,.33,0,.65,0,1,.69,1.26,1.92,1,3,1L153,158C151,158.73,149.55,158.31,149,156Z"/><path class="cls-51" d="M152.06,153.06c0-1.45,0-2.91-2-3,.48-3.64,2.63-5.85,6-7,2,.1,2,1.55,2,3Q155.07,149.56,152.06,153.06Z"/><path class="cls-105" d="M163,141l1-4a1.67,1.67,0,0,1,1.84-.48,1.83,1.83,0,0,1,1.12,1.58c2.56,2,.87,3.14-.86,4.45C163.87,144.34,163.31,143.08,163,141Z"/><path class="cls-6" d="M168.05,132.05c4.1.45,2.94,3.54,3,6L169,135.13l-.68-.1c-1.79-.84-1.88-1.84-.26-3Z"/><path class="cls-106" d="M167,138.17l-1-1.09c-.65-3.22,1.12-2.7,3-2h0C169.31,136.77,168.82,137.89,167,138.17Z"/><path class="cls-107" d="M156.07,143.06q-3,3.51-6,7l-4.17,3.86c-1.72,1.31-3.81,2.14-5.09,4-.39,2.42-2.86,2.53-4.24,3.84a15.51,15.51,0,0,1-1.68,1.14c-3,.84-5,4.19-8.68,3.32-4.94,2-9.88,3.93-15.16,4.8-.83-1-2.54.16-3.21-1.28.68-2.16,2.69-2.28,4.39-2.71,30.93-7.78,51.39-32,56.49-61.7.29-1.72-.12-3.79,2.1-4.66,3.27,1.39,2.11,4.32,2.38,6.76-1.08,2.85.29,6.62-3.19,8.57q-3,8-6,16.05C160.42,135.07,159.26,139.79,156.07,143.06Z"/><path class="cls-108" d="M170,116l2.13-8.93c.68-1.86.6-5.22,3.87-2,.71,2.31-1.62,4.65.05,7-1.71,3.18-3.41,6.36-4,10-2.91.52-2.29-1.33-2-3,.7-.64.89-1.3.06-2Z"/><path class="cls-47" d="M169,135.12c-1.62-.29-2.82.07-3,2h-1.92c-.43-2.11,1.08-3.44,2-5h2C166.9,133.54,168.52,134.15,169,135.12Z"/><path class="cls-109" d="M170.1,117.08c.68-.16,1.62-1,1.82.36s-.86,1.53-1.88,1.63Z"/><path class="cls-110" d="M176,105.11c-2.24-1.22-3,.46-3.87,2-.22-2.06,0-4.18-1.09-6.09a1.09,1.09,0,0,1-.11-1.21,7.13,7.13,0,0,1,2-1.65c1.81.73.29,4,3,4,0,.31,0,.62.05.94Z"/><path class="cls-111" d="M149,156a5.52,5.52,0,0,0,4,2c-1,1.43-2.1.67-3.34.42-2.2-.43-2.4.83-1.7,2.52-.34.68-.68,1.36-1,2-.86.28-1.84,1.42-2.56.12a3,3,0,0,1,.36-3.7C146.06,158.19,147.59,157.16,149,156Z"/><path class="cls-112" d="M126.2,166.22l8.81-4.35c.64.9.17,1.65-.31,2.4a21.36,21.36,0,0,1-2.07,2.49l-.57.29C130.08,167,127.32,172.28,126.2,166.22Z"/><path class="cls-59" d="M100.92,175.18c-2.28-.22-1.35,2.38-2.66,3a13.34,13.34,0,0,1-2.87-9.47,1.65,1.65,0,0,1,1-1,2.26,2.26,0,0,1,1.85.83c.57.53.58,2,2,1.15a2.37,2.37,0,0,1,1.18.15c1.13.91,2.8,1,3.65,2.32,0,.29,0,.58,0,.87a3.71,3.71,0,0,1-1.37,1.24C102.79,174.67,102.14,175.82,100.92,175.18Z"/><path class="cls-113" d="M115.08,175c-.09-1-2.69-1.23-1.07-2.59a3.62,3.62,0,0,1,3.68-.89,2.24,2.24,0,0,1,1.25,2.93c-.87,2.07-2.61-.07-3.86.55Z"/><path class="cls-114" d="M134.88,166.14c.09.93.18,1.86.28,2.79.35.51,1,1.06,1,1.54-.1.91-1,.54-1.43.31a4.29,4.29,0,0,1-2.64-3.73h0C132.82,166.2,133.41,164.8,134.88,166.14Z"/><path class="cls-115" d="M105.09,172.17c-1.47-.36-3.66.72-4-2a2.67,2.67,0,0,1,2.8-.89,4.8,4.8,0,0,1,3.27,1.87Z"/><path class="cls-116" d="M106,173c1.74-.16,3.22.17,4,2h0a3.93,3.93,0,0,1-4,.3A1.65,1.65,0,0,1,106,173Z"/><path class="cls-117" d="M107.19,171.17c-1.09-.23-2.38.1-3.13-1.1A2.67,2.67,0,0,1,108,170c1.09.14,2.33-.14,3.06,1Z"/><path class="cls-118" d="M106,173l.08,2c-1.88.74-3.6,1.23-3-1.92l2-.05C105.38,173,105.71,173.05,106,173Z"/><path class="cls-119" d="M136.08,161.07l4.72-3.15c1.2.21,2.17.63,2.16,2.11s-.93,1.84-2.17,2.07a17.33,17.33,0,0,0-2.73,1A2.47,2.47,0,0,1,136.08,161.07Z"/><path class="cls-120" d="M136.08,161.07l2,2c.51,3-1.52,2.24-3.12,2.14a.86.86,0,0,1-1-.86l1.09-2.46Z"/><path class="cls-54" d="M133.92,164.33l1,.86a3.39,3.39,0,0,1-.07.95l-2.82.91A2.5,2.5,0,0,1,133.92,164.33Z"/><path class="cls-54" d="M103.1,173.09c.09,2.09,1.59,1.95,3,1.92H110c-1.46,3-5.4.28-7,3-.56-1.08-2.12-1.41-2.15-2.88Z"/><path class="cls-121" d="M96.4,168.06c-.57,3.6,2,6.61,1.86,10.14-1.13,1.23-2.25,2.47-3.38,3.71-2,.43-3.35-.88-4.8-1.89a.79.79,0,0,1-.29-.79c.06-.27.14-.41.21-.41a5,5,0,0,1,1.2-.67c3.3-3.22.9-7.23,1.49-10.82a38.47,38.47,0,0,1,.12-4.8c-.06-10.95-.35-21.9-.17-32.85-.25-2.94-1.12-5.89.08-8.83a2.14,2.14,0,0,1,2.2-1A3,3,0,0,1,96,121.2c.94,8.52.21,17.07.44,25.61.06,2.46-.18,4.94.68,7.32C97.3,158.8,98.35,163.51,96.4,168.06Z"/><path class="cls-13" d="M90.08,179v1l-1.06,0c-1.52-2.36-1.63-4.69.11-7,.8-1.19,1.61-1.85,2.45,0a3.27,3.27,0,0,1-.13,1.32C90.37,175.72,90.77,177.54,90.08,179Z"/><path class="cls-122" d="M168.05,93.07c4-.32,8.18,1.1,12.08-.87,1.85,1.66.72,3.26-.08,4.86-2.67,2.39-5.36-.3-8,0a2.08,2.08,0,0,1-1.45.49c-2.83-.51-5.81.28-8.55-1-.91-.76-1.57-1.59-1-2.86C163.23,91.79,165.53,91.25,168.05,93.07Z"/><path class="cls-123" d="M171.11,96.91a4.73,4.73,0,0,1,.91.18l1,1c0,1.35-.69,1.92-2,1.94-2.36.14-2.79-1.09-2.2-3.06A2.17,2.17,0,0,1,171.11,96.91Z"/><path class="cls-124" d="M91.17,174c-.07-1.7-1-1.42-2-.89,0-.34-.07-.69-.1-1,.17-.57.35-1.13.53-1.7l-2.25-.12c.38-1.41,1.76-1.55,2.76-2.17,1.59-3.25-.88-6.32-.42-9.55.29-2.08-.14-4.24.58-6.29.54-1.06,1.19-2.33,2.49-2s.8,1.64.81,2.58c0,3.45.16,6.89.53,10.31v5c-1,1.8-.17,3.79-.54,5.65C93,176.11,92.11,175.32,91.17,174Z"/><path class="cls-125" d="M16.26,86.53,15,85.17c-2.52-5.07.84-9.44,1.66-14.11a3.63,3.63,0,0,1,1.48-1.92L20,65c.83.42.76,1.61,1.68,1.91,7.6-19,20.24-33.42,38.72-42.28,7.77-3.73,16-6.49,24.74-7.06,1-.07,2-.3,2.78.53l3,2a3.72,3.72,0,0,1-1.46,1.72A71.8,71.8,0,0,0,51.38,36.09,74.64,74.64,0,0,0,24.06,73.83c-1.13,3.49-.69,7.26-1.68,10.81-.5,1.77-.71,3.62-2.45,4.71C17.41,90.09,17.49,87.46,16.26,86.53Z"/><path class="cls-126" d="M21.06,69.06C19.59,68,20.24,66.39,20,65c-.11-2.52,2.47-4.2,2.12-6.79.38-1.78,1.06-3.35,2.84-4.16L32,44c1.53-4.5,5-7.5,8.28-10.66,4.23-2.76,7.65-6.81,12.79-8.16a91,91,0,0,1,14-6.08c1.45-.8,3-.44,4.5-.34,1.48,2.71-1.07,2.08-2.14,2.45-18.09,6.27-31.76,18-41.83,34C24.86,59.55,23.37,64.51,21.06,69.06Z"/><path class="cls-127" d="M15.11,57.05,18,58c-.31,1.67-.62,3.35-.92,5-.67,2.86-1.11,5.81-3,8.21-1,1.26-1,2.88-1.49,4.34l-.45.5c-1.13-.2-3.7,1.33-2.82-1.48C11.09,68.71,11.33,62.28,15.11,57.05Z"/><path class="cls-128" d="M41,34.06,32,44c-3.47-3.7,1-5.46,2-8.08a2.83,2.83,0,0,1,.15-.81C36,31.78,38.3,31.65,41,34.06Z"/><path class="cls-129" d="M13.05,71.05c1.82-2.43,1.75-5.8,4-8q.54,3.06,1.09,6.12c-.09.61-.17,1.23-.26,1.84-1.71,1-1.18,5.54-5,3.18A3.25,3.25,0,0,1,13.05,71.05Z"/><path class="cls-127" d="M19,56a6.37,6.37,0,0,0-3-3C17.16,52.06,17,48.8,18.93,50S20.69,54,19,56Z"/><path class="cls-130" d="M25,54.05,22.16,58.2c-.51-2.31-1.67-4.54-.84-7.12C23.1,51.34,22.81,54.31,25,54.05Z"/><path class="cls-131" d="M80,12c2.38-1.63,4.44-1.45,6.07,1.11.92.49,1.56,1.1,1,2.25a3.58,3.58,0,0,1-2,.56c-3.82-.19-7.26,1.73-11,1.95a4.24,4.24,0,0,1-1.4-.35c-.81-.75-2.2-1.17-1.9-2.62s1.73-1.2,2.83-1.26C75.79,13.47,78.19,13.9,80,12Z"/><path class="cls-132" d="M80,12c.55,1.27.58,2.19-1.24,2.13a45.14,45.14,0,0,0-5.33,0c-4,.35-1.1,1.76-.38,2.82a1.26,1.26,0,0,1-1.86.24L64,16c1.67-1.84,5-.07,6.23-2.84C73.57,13.46,76.77,12.63,80,12Z"/><path class="cls-133" d="M86.91,15.29l-.84-2.22,2-3c.89,2.4,2,4.8-.11,7.16C86.54,17.18,86.47,16.38,86.91,15.29Z"/><path class="cls-134" d="M41,34.06c-2.32.09-4.91-1.66-6.85,1,.31-2.33,1.08-3.85,4-4.05a8,8,0,0,0,5.93-4c0-2,1-3,3-3L49,24c.67,1.09,1.48,1,2.37.26,1.21-1,1.61-.35,1.71.88Q47,29.59,41,34.06Z"/><path class="cls-135" d="M57.93,12.89c-1,2.29.51,3.33,2.19,4.26A19.69,19.69,0,0,0,56.77,19c-1.79,1.48-2.42.25-3.39-1-1.17-1.49-.69-2.24.76-3C55.43,14.38,56.67,13.61,57.93,12.89Z"/><path class="cls-136" d="M71.19,17.18l1.86-.24,1,.22c.38,1.19-.48,1.53-1.3,1.9l-.67,0-5,0Z"/><path class="cls-137" d="M13.12,74.12C16,75,15.76,71.24,17.86,71c-1.18,4.68-2.68,9.3-2.88,14.19l-2,0c-.78-.11-1.57-.2-2-1,.07-2.72.05-5.45,1.06-8.05h0C12.76,75.6,12.33,74.54,13.12,74.12Z"/><path class="cls-138" d="M47.07,24.07l-3,3c-2.05.79-3.36.09-4-2,1.87-2.68,5-3.55,7.37-5.6C48.62,21.45,47.62,22.73,47.07,24.07Z"/><path class="cls-139" d="M94.22,74.92a2.12,2.12,0,0,0,2-.91,3.17,3.17,0,0,1,3-2,7.87,7.87,0,0,1,3.72.47,27.15,27.15,0,0,1,12.79,15.23,9.09,9.09,0,0,0,1.7,2.29c2.6,1.39,5.41.47,8.09.79,1.82.22,4-.34,4.7,2.27a3.57,3.57,0,0,1-2.09,1.2,34.11,34.11,0,0,1-5.62.23c-2.57,0-5.16-.37-7.68.27-.74,1,.27,1.22.79,1.64a2.73,2.73,0,0,1,.93,1,3.9,3.9,0,0,1,.12,2.06c-.81,4.86-3.43,8.68-6.85,12.06a10.25,10.25,0,0,1-1.69,1.32,21.93,21.93,0,0,1-5.25,2.3c-1.88.17-3.71,1-5.64.43-2-2.07-3.9-3.29-6.75-.9-2.5,2.1-5-.17-7.42-.92a22.48,22.48,0,0,1-7.54-6.4,16.26,16.26,0,0,1-1.61-3.3c-.43-1.36-1-2.72-.7-4.17.6-2.54,1.8-2.18,3.17-.54.55.77,1,1.6,1.58,2.35,3.36,3.84,7.14,6.63,12.66,5.17,2.65.06,5.18-1.1,7.85-.79,5.35,1.66,7.5.71,9.64-4.34a19.87,19.87,0,0,0,1.51-4.18c.27-2-.72-4-.55-6a6,6,0,0,0-1.8-6.55,7.49,7.49,0,0,1-1.13-1.66c-.46-2-2.49-3-3.35-4.72.21-3-1.2-1.67-2.4-.9-2.34-.17-4.87.26-6.52-2.06Z"/><path class="cls-140" d="M93.07,64.07c.39,2.66-1,5.53,1,8,.06,1,.12,1.9.19,2.85l-.19.2C90.55,77.3,86.56,78.48,83.19,81a12.58,12.58,0,0,0-3.87,3.67,10.1,10.1,0,0,1-.86,1c-1.09.88-1.23,2.16-1.36,3.44A4,4,0,0,1,76.36,91a1.51,1.51,0,0,1-1.36.23c-2.43-1.42-2.14-3.71-1.92-6a44.58,44.58,0,0,1,1.78-4.84A6.06,6.06,0,0,1,76,78.49c2.71-2.34,5.29-4.9,8.93-5.87s5.57-3.09,5-7.1a4.44,4.44,0,0,1,.83-3.27C92.87,61,92.19,63.58,93.07,64.07Z"/><path class="cls-141" d="M97.1,12.14c0,.31,0,.62,0,.93-.9,5.88.08,11.72.31,17.58.37,9.27.1,18.56.1,27.85v4.67c-.39,3.32.94,6.87-1.37,9.91-1.27-1-1-2.35-1-3.65q0-29.37,0-58.74c0-1-.51-2.36,1-3.06C97.82,8.85,96.74,10.67,97.1,12.14Z"/><path class="cls-142" d="M96.1,73.08l.15-10a1,1,0,0,1,1.3.34A7.41,7.41,0,0,1,98.31,67c-.4,2.12,1,4,.77,6.1l-2.83,1A6.94,6.94,0,0,1,96.1,73.08Z"/><path class="cls-143" d="M93.07,64.07l-1.95-2a4.26,4.26,0,0,1-1.38-3.58c.05-10.93-.5-21.87.28-32.8a3.54,3.54,0,0,1,1.11-1.59l1.92-2Q93.07,43.08,93.07,64.07Z"/><path class="cls-144" d="M91.15,8.07,91,12.22c-1.66-1.3-.69-2.75-.81-4Z"/><path class="cls-145" d="M96.17,59.12q0-21.43-.07-42.85c0-1.16-.09-2.35,1-3.2a17.43,17.43,0,0,0,.56,2.22c1.53-.21,2-1.43,2.47-2.72.27-.77.25-2.28,1.73-1.35.36.23.23,1.24.32,1.89l2.89,2a1.7,1.7,0,0,0-.93,1.72c-5.45-.69-7.1,1-6.93,7.25l0,1a5.35,5.35,0,0,1,1.22,3.56c.09,8.37.1,16.75,0,25.12C98.38,55.76,99.08,58.28,96.17,59.12Z"/><path class="cls-136" d="M91.13,24.09c0,.33-.08.65-.1,1-.42.62-.72,1.35-1.45,1.71-10,1.74-19.77,3.7-28.7,9.11-19,11.54-30.75,27.83-33.94,50-.44,1.47-.64,3-1.6,4.31a2.88,2.88,0,0,1-1.43.59c-3.43-.32-2.61-2.72-2.33-4.83a71.93,71.93,0,0,1,20-41.34A73.21,73.21,0,0,1,85.81,22.18c1.47-.2,3-.05,4.25-1.1l.93-1C91,21.43,91.08,22.76,91.13,24.09Z"/><path class="cls-136" d="M86.91,15.29c.36.65.72,1.3,1.07,1.95a3.53,3.53,0,0,1,0,.86C77.73,19.58,67.72,22,58.57,26.89c-16,8.64-27.77,21.31-34.7,38.3-.58,1.43-.63,3.5-2.81,3.87,2.61-11.54,9.38-20.64,17.24-29,9.36-10,21-16.35,33.77-20.94h0c4-2.37,8.85-2.18,13-4.07Z"/><path class="cls-146" d="M16,107.09,18,116.15c-3.18-4.27-7.63-7.92-6.82-14.12C15.62,101,14.57,105.24,16,107.09Z"/><path class="cls-147" d="M48.07,143.06c-2.4.41-1.5,1.25-.51,2.52.82,1.07,2.79,2.78-.49,3.48-3.06.41-4.32-2.09-5.86-3.86-7.35-8.39-13.17-17.7-16.32-28.54a72.2,72.2,0,0,0,13.47,25.22c2.48,3,2.3,3.16.71,5.19-10.39-9.29-15.41-21.48-19.1-34.52-1.17-4.16.21-8.58-1.91-12.5l1-3a4.43,4.43,0,0,1,3.11-1.28c2.24,0,4.52-.35,6.63.73,1.64,1.32,1.4,3.24,1.58,5,1,10.35,3.7,20.18,9.19,29.14,1.75,2.88,4.31,5,6.25,7.72C46.87,139.8,48.66,140.87,48.07,143.06Z"/><path class="cls-148" d="M22.07,97.05h-3c-2.79-.65-5.67-2-8,1l-2,0c-.78-1.22-2.59-1.45-3-3.07-.51-1.4-1.28-3.42,1.29-2.88,5.3,1.1,10.63,0,15.9.75a4.55,4.55,0,0,1,1.55.62,2,2,0,0,1,.66,2.19C24.76,97.15,23,96,22.07,97.05Z"/><path class="cls-149" d="M16.26,86.53c1.85-.15,1.53,2.07,2.8,2.57,1,.84,2.64.84,3.32,2.23a2.22,2.22,0,0,1-1.56,2.14,35.43,35.43,0,0,1-4.25,0,25.72,25.72,0,0,0-4.32-1.67C10.54,91,8.55,90.94,6.88,90c1.7-3.36,4.52-2.12,6.92-1.43C16,89.16,17,89.17,16.26,86.53Z"/><path class="cls-150" d="M16,93h5.13c1.31-.71,2.51-1,3,.92-5.76-.35-11.59,1.23-17.3-.84C6,92.76,6.32,94.32,6.1,95c-1.69-1.36-.85-3.22-1-4.89L6.88,90A4.81,4.81,0,0,1,12,91C12.6,93.23,15.2,91.32,16,93Z"/><path class="cls-151" d="M125.06,32.08h2l.7,0a14,14,0,0,1,4,1.44c12.07,6.77,21.95,15.65,27.54,28.65a10.64,10.64,0,0,1,1.36,4.69c-2.17,1.14-2.17,1.14-3.79-1.45.31,1.57,1.84,3.12.35,4.73-3.4-.29-2.9-4-4.81-5.54-6.31-13-17.29-21.09-29.52-27.84C120.2,33.65,123.88,33.45,125.06,32.08Z"/><path class="cls-152" d="M160.06,67.06c-5.09-15-16-24.93-29-33-1.1-1.13-2.66-1.33-4-2h0c1.42-1.64,3-1,4.49-.22,14.45,7.3,24.34,18.92,31.35,33.23a3.19,3.19,0,0,1,.15,1c-1.18.72-1,1.9-1,3C160.22,69.56,160.7,67.76,160.06,67.06Z"/><path class="cls-153" d="M125.06,32.08c.63,1.31.44,2-1.24,2s-1,1.09-.75,2a2.29,2.29,0,0,1-1.37.63c-4.57-.42-8.56-3.19-13.22-3.27-3.7-.54-7.71,0-10.62-3.17a2.85,2.85,0,0,1,0-2.29c3.77-2,7.58-1,11.22.22,2.1.72.47-.94,1-1.11C115.58,27.19,120.18,30.05,125.06,32.08Z"/><path class="cls-154" d="M98.09,23.05c-.22-2.44,1-3.46,3.21-2.69s4.49.64,6.75.74c3.62,2.86,8.89,1.91,12.28,5.51C113.1,24,105.58,23.68,98.09,23.05Z"/><path class="cls-155" d="M110.06,27.08l3.24,2.3a55,55,0,0,0-15.42-1.19c-.34.33-.6.29-.78-.17,0-1,.07-1.92.1-2.89C101.63,24.82,105.73,26.73,110.06,27.08Z"/><path class="cls-156" d="M160.06,67.06l2,2h0a80.61,80.61,0,0,1,4.28,13.51c.62,2.75,1.2,6-3.28,6.47a2.13,2.13,0,0,0-2,1,3,3,0,0,1-1.33.94,5.27,5.27,0,0,1-4.67-.67,1.71,1.71,0,0,1,.75-2.14c3.33-2.58,3.08-5.91,2.23-9.51-.66-2.81-2.66-5.51-1-8.59-.28-1.58-.57-3.17-.89-5C157.92,64.93,157.93,68.35,160.06,67.06Z"/><path class="cls-157" d="M160.1,90.12a7.61,7.61,0,0,0,1-.08l7,.08v2.95a16.68,16.68,0,0,0-7,1c-1.75,1.7-4,1.34-6.09,1.35-5.77,0-11.54.07-17.3,0a5.59,5.59,0,0,1-3.54-1.06,1.23,1.23,0,0,1,.09-1.64c6.36-2.32,13-.59,19.42-1.14C155.88,91.41,158.32,92.18,160.1,90.12Z"/><path class="cls-152" d="M163.05,89.05c3.13-1.39,3.51-3.75,2.61-6.78-1.31-4.37-2.41-8.8-3.61-13.2,3.23,4.91,4.41,10.45,5,16.18C167.4,88.38,166,89.43,163.05,89.05Z"/><path class="cls-145" d="M111.08,16.05c-1.72-.11-3.57.58-5.07-.85C107.75,15.2,109.59,14.54,111.08,16.05Z"/><path class="cls-125" d="M39.07,147.07c1.47-1.13.42-2-.33-2.84a79.63,79.63,0,0,1-14.63-26.07c-.52-1.52-2.05-3.71-.25-4.38,2.32-.86,1.94,1.9,2.38,3.34a67.84,67.84,0,0,0,20.83,31.94c6.44,6.65,14.58,10.65,22.65,14.86,5.21,2.72,11.2,2.48,16.34,5.14A68.77,68.77,0,0,1,39.07,147.07Z"/><path class="cls-158" d="M43.19,155l-2.12.08a8.59,8.59,0,0,1-6-8Z"/><path class="cls-159" d="M48.07,143.06c-5.1-6.16-11-11.79-13.76-19.54-3.08-8.54-5.8-17.17-5.23-26.44,1.34-1.38,2.9-1.28,4.54-.73,2.63,1.69,2.54,4.45,2.75,7.08,1,11.83,4.77,22.48,12.41,30.77-.67-.77-2.56-2.28-.67-4s3.28.41,4.43,1.69A73.22,73.22,0,0,0,65.9,143.75a43,43,0,0,0,18.92,6.87c1.8.22,2.73-.75,3-2.56.21-1.57-.1-3.43,1.91-4.23,1.4.52,1.57,1.82,1.93,3a5,5,0,0,1,0,1.49,29.36,29.36,0,0,0-1.25,5.78c-1.09,5-2.36,5.79-7.54,4.68-11.86-2.54-22.57-7.24-31.1-16.2-.44-.46-.1.54-.3.85-.63,1-1.33,1.4-2.39.62Z"/><path class="cls-160" d="M49.07,144.06c3.43-.39.49-2.36.93-3.93,5.82,4.19,10.94,9,17.29,12.19,5.69,2.85,11.83,3.85,17.76,5.68,3.48,1.08,3.84-2,5-3.95a20.63,20.63,0,0,1,0,10c-2.69-1.8-5.87-.5-8.73-1.38-6.86-2.11-13.53-4-19.62-8.59-3.19-2.39-6.41-5.57-10.49-7A3,3,0,0,1,49.07,144.06Z"/><path class="cls-161" d="M90.06,164.05l0-10c.36-2-.75-4.24,1-6,1.14,1.33.65,2.69.07,4.05-.57,5.3,1.13,10.75-1,15.95C90.07,166.71,90.06,165.38,90.06,164.05Z"/><path class="cls-162" d="M169.1,97.28a2.87,2.87,0,0,0,1.92,2.78l0,.93c-1.86,7.67-3.08,15.5-6.36,22.79-10.36,23.09-27.58,38.06-52.17,44.42-1.57.41-3.32.45-4.54,1.78l-3.92.09-2.94.12-1-.09a1.06,1.06,0,0,1,.11-1.39c4.77-2.05,10-2.37,14.92-3.87,30.4-9.3,49.48-33.48,51.76-65.65a4.08,4.08,0,0,1,.91-2.17A.81.81,0,0,1,169.1,97.28Z"/><path class="cls-163" d="M168.05,99.06c-1.19,38.53-31.51,66.68-68,70a1.33,1.33,0,0,1-2,0l-.87-1c-1.07-1.07-.39-1.85.43-2.61a18.15,18.15,0,0,1,6.24-1.57c25-2.61,42.26-15.91,53.22-38.13,2.29-4.63,3.61-9.63,5.85-14.24,1.11-2.26-1.47-.89-1.45-1.87a7.31,7.31,0,0,1-.11-5.92c1.56-.73,2.69-1.53,3-3.6C164.66,98.3,166,96.61,168.05,99.06Z"/><path class="cls-164" d="M98,166c-.27.67-.55,1.34-.83,2l-.76,0q-.18-7-.37-14c-1-9.17-.29-18.36-.36-27.54a1.11,1.11,0,0,1,1.59-.44c1.62,2,1.1,4.42,1.19,6.7.34,9.1-.64,18.23.59,27.31a9.91,9.91,0,0,1,.27,2.71A4.55,4.55,0,0,1,98,166Z"/><path class="cls-165" d="M98,169l2,0c0,.34,0,.69.07,1-.19.88.21,2.54-1,2.31C97.36,172.09,98.27,170.23,98,169Z"/><path class="cls-13" d="M91.1,152.09c0-1.35,0-2.7-.07-4.05,0-.33,0-.65,0-1-1-3.92-2-7.85-.92-11.93,2.76-1.54.26-6,3.94-7.08.54,10.38-.94,20.81.78,31.17.2,1.2-.49,2.55-.77,3.83-2.08-3.28-.68-6.9-.91-10.35C93,149.79,92.05,151.36,91.1,152.09Z"/><path class="cls-161" d="M96.93,126l-.79.15c-1.11-1.6-.32-3.4-.56-5.09,0-1.09-.55-2.09-.58-3.19.16-.64-.34-.55-.27-.31a2.42,2.42,0,0,1-.62,2.47l-1,1.09c-2.46,1.39.39,5-2.58,6.18-3.46-2.37-.64-6.45-2.54-9.23-1.55-1.66-4.51-1.63-5.18-4.32l.21-.68c2.81-.42,6.42,3.91,8.39-1.43,2.13.83,5.79-.84,5.76,3.52a5.44,5.44,0,0,1,.88,1.53C98.27,119.85,99.4,123.14,96.93,126Z"/><path class="cls-166" d="M96,120q.1,3,.19,6.09,0,14-.11,27.91c-1.58-1.49-.93-3.42-.94-5.17-.06-9.59,0-19.19,0-28.79A.56.56,0,0,1,96,120Z"/><path class="cls-167" d="M91,127c0-2.16-.38-4.47.26-6.44.73-2.25,1.46-.65,1.87.5.79,2.25-.66,4.79.89,7-1.54,1.27-.9,3-.93,4.58s-.54,2.11-2,1.4c-1.64-1.63-1.37-3.6-1-5.59A3.5,3.5,0,0,1,91,127Z"/><path class="cls-13" d="M91.17,174c1.59.89,1.88.1,1.94-1.36s-.57-3.28.94-4.54c0,3.08,0,6.17,0,9.25.05,2.46-1,2.83-3,1.74a4.05,4.05,0,0,1-.14-4.85Z"/><path class="cls-168" d="M96,120c-.3,0-.6,0-.9,0l-.94-.06a8.17,8.17,0,0,1,.76-6.77C97.09,115.39,95.66,117.87,96,120Z"/><path class="cls-169" d="M91,174.19c.05,1.61.1,3.23.14,4.85h-1C89,177.17,88.43,175.4,91,174.19Z"/><path class="cls-170" d="M169.1,97.28H168c-2,.52-3.92,1.29-6,1.17-2.65.14-5.31-.08-8,0-3-.06-6,0-9,0q-5,0-10.08,0c-6.17-.58-12.49,1.25-18.54-1.14a6.7,6.7,0,0,1-.6-.45c.88-2.42,3-2,4.9-2.17,3.08-.22,6.15-.11,9.23,0,2.51-.08,5,.6,7.49.41h18.87c2,0,4-.18,5.8.93,3,.65,6.16-.72,9.05.91Z"/><path class="cls-171" d="M162.06,96l-25,0a1.17,1.17,0,0,1,0-1.79l24.06-.08C161.41,94.73,161.73,95.37,162.06,96Z"/><path class="cls-172" d="M22.1,91.08c-1.4-.07-2.93.06-3-2,2.81-2.5,2.57-6.16,2.83-9.25.87-10.17,5.4-18.86,11-26.79,8-11.21,18.14-20.29,31-25.84,8.31-3.6,16.77-7,26.18-6.14-1.36,2.78-4.3,2.43-6.52,2.82C53.36,29.23,34.46,47.12,24.9,75.76a84.44,84.44,0,0,0-2.61,9.52c-.36,1.71-1.24,4.14,1.8,4.82.31.81-.16,1.19-.83,1.45A1.35,1.35,0,0,1,22.1,91.08Z"/><path class="cls-71" d="M13.12,74.12a2.14,2.14,0,0,1-1,1.95c-.35-1.8-1-3.67,1-5C13.07,72.07,13.1,73.1,13.12,74.12Z"/><path class="cls-126" d="M85.1,15c.18.92.78,1.86-.94,2.1-4,.56-8.07,1.3-12.09,2l2-1.92C77.65,16,81.1,14.11,85.1,15Z"/><path class="cls-173" d="M116.06,90l-1-1.94.59-.43c1.47-.41,2.91.15,4.37.13s3.06,0,4.59,0h8.82c1.75,0,3.51.18,5.22-.38,2.68-.43,3-2.09,2.4-4.39-1.36-5.54-4.59-10.26-6.63-15.47-3-7.79-10-11.57-15.8-16.58a6.12,6.12,0,0,0-3.5-1.78c-4.51-.28-5-2.85-3.79-6.47,2.67-1.38,5.26-.55,7.55.74a56.85,56.85,0,0,1,10.64,7.1c4.77,5.69,9.54,11.38,13.22,17.88a37,37,0,0,1,4.25,10c-.09,3.51,3.18,6.79.69,10.46a11.84,11.84,0,0,1-4.5,2.31,55.8,55.8,0,0,1-14.32,0C124.58,90.56,120.16,92.17,116.06,90Z"/><path class="cls-49" d="M78.06,85.06c3.42-6.37,9.25-8.87,16-9.94,2.09,1.52,4.8.87,7,2a1.88,1.88,0,0,1,2,1c2,1.15,4.17,2.13,4,5-4.11,1.85-5.32-3.3-9-3.66-.16,2.85,3.58,3,3.6,5.41a2.35,2.35,0,0,1-.41,1.3c-2.66-1-6.41,2.6-8.27-2-.2-.51-1,.36-1.43.76A6.65,6.65,0,0,1,87,86.47C83.31,84.45,83.31,84.45,78.06,85.06Z"/><path class="cls-174" d="M107.92,111.76l.92-.81c5.1-2.61,6.08-7.81,7.89-12.5,1-1.26,2.24-.94,3.5-.54,2.12,3.64,0,6.89-1.39,9.86-3.49,7.53-10,11.71-17.66,14.18a3.65,3.65,0,0,1-2.89-.39c-.92-.76-.66-1.83-.7-2.81.58-2.52,2.73-3.09,4.76-3.79.42-.16.85-.29,1.29-.41C105.27,113.94,107,113.54,107.92,111.76Z"/><path class="cls-175" d="M74.06,85.07c.17,2.16-.7,4.64,1.91,6,2.43,3,2.29,6,.09,9-.49-.37-1-1-1.44-1-.93,0-.56,1-.48,1.45.22,1.21.6,2.4.91,3.61-1.09.49-1.8-.15-2.49-.85a10.47,10.47,0,0,1-1.88-5.87c.12-.4.27-.79.41-1.16-2-1.65-4.4-.6-6.59-.74-9-.58-18.14,1-27.15-.89-1.25-1.37-.43-2.5.41-3.63a2.71,2.71,0,0,1,2.35-.27c1.58,1.09,3.38,1,5.2,1,7.06,0,14.12,0,21.18,0,1.52,0,3.37.73,4.37-1.25C72,88.68,70.88,85.58,74.06,85.07Z"/><path class="cls-176" d="M110,91c-.14,2.43,1.53,4.63.95,7.13-2.37.61-4.59,1.23-5.23,4.19a3.31,3.31,0,0,1-3.65,2.53A4.76,4.76,0,0,1,99,103.31,1.67,1.67,0,0,1,99,102c1.93-2.67,3.44-5.45,2.57-8.93a2.25,2.25,0,0,1,.2-1.94A40.62,40.62,0,0,1,110,91Z"/><path class="cls-177" d="M99.07,102.06q0,.48.06,1a7,7,0,0,0,.46,3,1.37,1.37,0,0,1-.52,1.08c-3.08-.28-5.92,1.62-9,1-1.89-1-5-1-3.92-4.6,3.73-3.12,7.95-3.19,12.37-1.94Z"/><path class="cls-178" d="M99.07,107.06v-1c.68-1.1,2-1.17,3-2,1.67-.1,2.84-.88,3-2.62.29-4.28,2.86-4.29,6-3.33-2,2.9-1.89,6.9-5.43,9.07C103.1,108.71,101.19,109.14,99.07,107.06Z"/><path class="cls-179" d="M101.11,85c-.72-1.84-2.75-1.68-4-2.65a2.86,2.86,0,0,1-.76-3.63c.84-1.9,2.2-.87,3.35-.36,2.69,1.19,3.93,4.63,7.32,4.76l1,1c.55,1.74-.62,2.57-1.8,3.4a3.23,3.23,0,0,1-2.06.12A7.49,7.49,0,0,1,101.11,85Z"/><path class="cls-180" d="M130.06,96c-4.74.69-9.62-.88-14.29.92-2.15.07-4.79.55-2.58-3,2.94-.79,6,.44,9-.73H128c1.18,1.15,2.83-.31,4,.73C132.85,95.88,130.7,95.24,130.06,96Z"/><path class="cls-181" d="M86,104.16c.79,1.85,2.79,2.45,4,3.86-6.11,1.9-9.61-1.94-13-6-.16-2.63,1.42-2.55,3-1.72s3.26,2,5,2.79A2.76,2.76,0,0,1,86,104.16Z"/><path class="cls-182" d="M101.11,85A3.13,3.13,0,0,1,104,87c.14.62.4,1.27,1.1,1.26s.9-.68,1-1.31L108,84.1c1.76,2,4.17,3.78,2,6.91-2.65,1.54-5.3,1.75-7.94,0-1.83-1.32-2.46-2.89-1-4.91Z"/><path class="cls-183" d="M85.06,104.05a8,8,0,0,1-5.1-2.61c-1.37-1.44-2.22-.82-2.94.63a2.14,2.14,0,0,1-1-2,24.81,24.81,0,0,0-.09-9l.37-.12a2.22,2.22,0,0,1,2.28,1.18c.67,1.49.6,3.38,2.3,4.33a2.35,2.35,0,0,1,.63,1.13,3.81,3.81,0,0,0,1.3,2.91C83.79,101.57,85.7,102,85.06,104.05Z"/><path class="cls-184" d="M116.06,90l13,.2c1.35,1,4.67-.43,4,3.16a3.13,3.13,0,0,1-3-.29c-3.12-2-6.59-.56-9.87-1C118.55,91.86,116.43,92.69,116.06,90Z"/><path class="cls-142" d="M115,88.05a36.87,36.87,0,0,0-12-14.8l.55-.55c7,1,13,8.76,11.87,15.41Z"/><path class="cls-185" d="M120.05,98.09c-1.1,0-2.27-.21-3,1-.38.41-.74.42-1.09,0,.13-.57.26-1.14.4-1.7L135,97.2a1.27,1.27,0,0,1-.36,1.25,5.08,5.08,0,0,1-2.66.74c-.7.06-1.39.07-2.09.07s-1.41,0-2.11,0l-2.86,0a16.18,16.18,0,0,1-2.95-.17A4.36,4.36,0,0,1,120.05,98.09Z"/><path class="cls-186" d="M116,99l1.09,0c-1,3.33-2,6.67-4.21,9.44-1.07,1.31-2,2.72-4,2.45A28.66,28.66,0,0,0,116,99Z"/><path class="cls-187" d="M99.08,73.06c-2.24-1.6-2.34-3.84-1.88-6.25,2.1,1.91,4.59,3.42,6,6l-.11.39Z"/><path class="cls-161" d="M76.07,107.06q3.51,3,7,6v0c-4.47,1-6.57-1.35-7.42-5.38Z"/><path class="cls-188" d="M103,78.14l-2-1c-.07-.69-.92-1.64.34-1.92a2.66,2.66,0,0,1,2.77,1.59C104.85,78,103.69,78,103,78.14Z"/><path class="cls-186" d="M107.92,111.76c-.27,3.22-2.61,3.21-5,3.2-.23-.26-.28-.47-.14-.64a.49.49,0,0,1,.36-.21Z"/><path class="cls-142" d="M122.15,93.1c-2.87,1.62-6,.66-9,.73C116.07,92.25,119.17,93.41,122.15,93.1Z"/><path class="cls-164" d="M103.18,114.11a3.67,3.67,0,0,0-.22.85H103a21,21,0,0,1-4.43,1.77,2.29,2.29,0,0,1-1.28-.46c0-.38,0-.75-.08-1.13C99.17,114.56,101.07,113.73,103.18,114.11Z"/><path class="cls-161" d="M73.09,103.05l2,1,1,3h0C73.3,107,72,105.9,73.09,103.05Z"/><path class="cls-142" d="M130.06,93.06l3.1,0a.6.6,0,0,1,.9,0c0,.31,0,.61,0,.91a1.38,1.38,0,0,1-2,.12c-1.38-.2-2.92.27-4-1Z"/><path class="cls-189" d="M76.07,79.1l0,1.92a9.06,9.06,0,0,0-3.53,5.61c-.69,3.46-2.82,5-6.37,4.31-1.72-.6-3.67-.44-5.23-1.58-2.59-5,.79-8.85,3-12.36,5-7.74,11.79-13.51,20.92-16,1.56-.43,3.2-1.18,4.67.3.95,2.33.35,4.76.5,7.14.15,2-.94,3.1-2.76,3.56C82.77,73.13,79.41,76.1,76.07,79.1Z"/><path class="cls-190" d="M76.07,79.1A18.62,18.62,0,0,1,86,71.58c1.27-.45,3.08-.43,3.12-2.51,1.66-6.2-1.09-12.28-.53-18.49.27-2.92-.1-5.9.08-8.85.09-2.59.07-5.18,0-7.77,0-.55,0-1.11,0-1.66a29.44,29.44,0,0,1,.23-4.09,4.69,4.69,0,0,1,1.13-2.13l1-1,.09,37a10.14,10.14,0,0,0,0,2.46c1.28,5.72-1.6,8.55-6.76,9.55C80.89,74.74,79.52,78.58,76.07,79.1Z"/><path class="cls-191" d="M78.07,92.13,76.33,91l-.15-1.78c.7-1.34,0-3.29,1.85-4.14h0c.57-.26,1.45-.37,1.65-.8,2.06-4.35,3.8-3,5.61.18A8.4,8.4,0,0,0,87,86.09c.14.18.27.36.41.53.13,1.09-.26,1.74-1.43,1.75a4.9,4.9,0,0,1-1.22-.53l-.57-.35c-1.62-.8-3.11-1.08-4,1a2,2,0,0,0,1.06,1.16c1.08.57,2.64.41,3.08,2a4.05,4.05,0,0,1-1.33,2C80,96.48,79.5,96.32,78.07,92.13Z"/><path class="cls-192" d="M66.05,90c3.41.29,5.64-.77,6.17-4.59.29-2.07,1.12-4.2,3.83-4.43q-1,2-2,4c-1.44,1.76-1.28,4.05-2,6.05-6.84,2-13.83.56-20.74.87-2.14.09-4.73,1-6.41-1.42,3-3.44,7-1.28,10.53-1.93a8.61,8.61,0,0,1,1.83,0C60.16,89.27,63.14,89.45,66.05,90Z"/><path class="cls-193" d="M78,85.05c-.62,1.38-1.24,2.76-1.85,4.14C76.24,87.56,75.32,85.49,78,85.05Z"/><path class="cls-187" d="M97.1,28l.78.17c.08.64.15,1.28.23,1.92a7.16,7.16,0,0,1,1.11,2.78,15.55,15.55,0,0,1,.11,2.26c0,1,0,2,0,3,0,.77,0,1.54,0,2.32,0,1.58.05,3.15,0,4.73s.06,3.24,0,4.86c-.08,1.92.06,3.85,0,5.77,0,1.12,0,2.25,0,3.37-.35,1.55.2,3.66-2.36,3.86-.27,0-.53,0-.79-.05,0-1.3,0-2.61-.08-3.92,1.6-6.18.41-12.46.73-18.69C97.1,36.3,97,32.16,97.1,28Z"/><path class="cls-194" d="M97,63.09c1.18-1.14.48-2.72.93-4,1.32-1.11,3.27-1.43,4-.1,1.68,3.27,5,3.45,7.64,5,2.79,1.62,5,3.64,5.77,7,1,4.46,4.66,7.52,6.73,11.44,2.54,4.83,2.22,5.65-3,6.62l-3.61-.9c-1.08-7.52-5.67-12.21-12.31-15.25-2.29-1.72-6.34-1.7-6-6C97.15,65.57,97.09,64.33,97,63.09Z"/><path class="cls-195" d="M90.06,28.07v4c-16.14,1.43-30,7.63-41.26,19.48C41.31,59.43,36.4,68.69,33,78.87a16.06,16.06,0,0,0-.86,4.76A8.89,8.89,0,0,1,31.86,85c-.47,1.32-.65,2.72-1.19,4a4.16,4.16,0,0,1-1.48,1.58,5.42,5.42,0,0,1-1.42.43,3,3,0,0,1-2.69-1c.13-1.38-.47-2.94,1-4,2-5,2.47-10.48,4.63-15.55Q45.94,34.81,83.87,27.46C86,27.05,88.13,26.53,90.06,28.07Z"/><path class="cls-196" d="M90.06,28.07c-23.37,2-41.32,12.71-53.21,33.2-4.18,7.2-8,14.49-8.82,22.95a1.93,1.93,0,0,1-2,1.85c.65-12.32,5.44-23,13-32.54C45.28,45.66,52.37,39,61.3,34.15a64.33,64.33,0,0,1,28.76-8.07Z"/><path class="cls-149" d="M25.08,90.06l3,.06a1.13,1.13,0,0,1,0,1.32,4.58,4.58,0,0,1-3.31,1.35c-.84-.29-2.08-.2-1.72-1.71l1-1C24.42,90.1,24.75,90.08,25.08,90.06Z"/><path class="cls-197" d="M34.09,97.1l-5,0-7,0c.73-1.15,1.92-.92,3-1,2.11-1.86,4.72-1.52,7.16-1.37,11.31.68,22.63.17,33.94.42,1.74,0,4.2-1,4.9,1.93l0,.11c-3.45,2.46-7.41,1.17-11.14,1.45-3.16.23-6.32-.17-9.48-.09-2.79.17-5.57.06-8.35,0S36.51,99,34.09,97.1Z"/><path class="cls-198" d="M71.08,97.05c-1.48-1.61-3.43-1-5.17-1-13.61,0-27.22,0-40.83,0,0-.67,0-1.33,0-2a12.51,12.51,0,0,1,12-.16H74.94C74,96.64,72.55,96.84,71.08,97.05Z"/><path class="cls-199" d="M37,93.92l-12,.16a5.79,5.79,0,0,0-.91-.16c-.8-1-1.94-.83-3-.92l1-1.92c.32,0,.63,0,.95,0a2.48,2.48,0,0,0,2.2,1.06c3.25-.26,6.56.11,9.73-1a5.32,5.32,0,0,1,1.19-.6A1.81,1.81,0,0,1,38,91.1Z"/><path class="cls-200" d="M16,93H8.45C9,90.3,10.89,91.41,12,91,13.55,91.33,15.72,90.3,16,93Z"/><path class="cls-201" d="M122.06,36.08h1c13,6.11,23.87,14.52,30,28-.54,2.37-.43,2.13-2,1.37-1.2-.58-.82-3.45-3.18-2.12-3.1-1.17-4.62-4-6.57-6.31-2.52-3-5-6-8.38-8.13a25,25,0,0,1-5.38-4.11,12.74,12.74,0,0,0-5.1-2.91A3.55,3.55,0,0,1,121.4,41C120,39.18,122.93,37.88,122.06,36.08Z"/><path class="cls-202" d="M148.05,63.07c.56-.37-1-2.86,1.21-1.4,1.3.84,2.15,2.38,3.22,3.59a.59.59,0,0,0,.37-.23,7.82,7.82,0,0,0,.21-1c2.71,1.08,1.7,4.64,4,6,.84,3,1.67,6,2.51,9,1.52,5.5.37,8.25-4.54,10.91A9.63,9.63,0,0,1,144,90l3-1.83c.94.61,1.74-.15,2.6-.3,2.45-.29,3.2-1.75,3.23-4.1a30.4,30.4,0,0,0-3-12.88C148.76,68.43,146.51,66.14,148.05,63.07Z"/><path class="cls-85" d="M127.06,32.08c1.71-.1,3.25.17,4,2A5.48,5.48,0,0,1,127.06,32.08Z"/><path class="cls-203" d="M122.06,36.08l2.32,3.12c.24,1.88-4-1.83-2.32,1.87-1.7,1.49-3.3.44-4.89-.23a14.19,14.19,0,0,0-5.52-1.46c-3.54-.57-6.83-2.26-10.52-2.18a3.54,3.54,0,0,1-3.08-2.13l0-2c1.87-1.53,4-1.11,6-.61,1.75.42,3.45,1.07,5-.39C113.63,32.62,117.79,34.54,122.06,36.08Z"/><path class="cls-204" d="M109.05,32.09c-.26,2.14-1.79,2.28-3.26,1.7-2.57-1-5.19-.59-7.79-.7,0-1,.07-2,.11-3A34.27,34.27,0,0,0,109.05,32.09Z"/><path class="cls-205" d="M144,90,155,90l5.08.11c.25,2.9-1.61,3.08-3.8,3-7.41-.07-14.83-.07-22.24-.11l-.45,0h-.45c-.72-1.89-2.9-1.64-4.11-2.82Z"/><path class="cls-206" d="M132,94.09l2-.12,3,.2c0,.6,0,1.2,0,1.79h-7C130.72,95.34,131.38,94.72,132,94.09Z"/><path class="cls-207" d="M34.09,97.1h8a8,8,0,0,1,2.67,4.69,40.69,40.69,0,0,0,8.74,21.4c5.34,6.56,12,11.92,20.37,14.26,3.19.9,6.43,2.22,10.12,1.7,2.74-.38,3.89-1.17,3.89-3.86,0-1.47-.11-3.15,1.29-4.11,1.17-.79,1.29.29,1.4,1.14-.32,3.91.6,7.86-.51,11.73a5.66,5.66,0,0,0-.9,1.69c-.93,7.23-.87,7-8.05,5.57-5.21-1.05-10.79-2.69-14.65-5.31a77.52,77.52,0,0,1-15-13.34c-.77-.9-1.15-3.07-2.75-1.85-1.39,1.07.13,2.33,1,3.3s2,2.16,3,3.27a1.83,1.83,0,0,1-2.82-.28A51.39,51.39,0,0,1,35,101.94,29.33,29.33,0,0,0,34.09,97.1Z"/><path class="cls-161" d="M90.05,144.05q0-6.5,0-13c-.79-1.37-1.22-2.62,1-3,0,2,0,4,0,6l-.06,13C89.89,146.32,90.1,145.14,90.05,144.05Z"/><path class="cls-208" d="M162,97.2l5.94.07c0,.6.06,1.2.1,1.79-2.28-1.07-2.84.22-3,2.15-.12,1.4.39,2.89-.55,4.24-1.9.3-1.19-2-2.42-2.39-1.45-1.42-.64-3.16-.7-4.78A2.36,2.36,0,0,1,162,97.2Z"/><path class="cls-208" d="M98,166l0-2.94a5,5,0,0,1,3.66-1.27c27-1.53,50.05-22.88,57.28-45.83.67-2.11.49-4.78,3.1-5.92,1-.8,2.08-2.14,2,.7-.06,3.79-2.07,7-3.39,10.24-9.61,23.24-26.31,38.55-51.39,43.76C105.61,165.53,101.77,165.62,98,166Z"/><path class="cls-209" d="M162.05,110.06c-3.49,13.49-9.88,25.24-20.23,34.8C129.4,156.34,115.26,163.37,98,163.08c0-.67,0-1.35,0-2,2.37-1.91,5.35-1.82,8.07-2.12,24-2.69,46.47-24.8,51.17-46.57.81-3.73,1.81-7.43,2.54-11.18.25-1.29,0-3.23,2.27-3.12,1.12,1.66-.34,3.33,0,5Z"/><path class="cls-210" d="M162.05,98.07c-2,4.71-2.38,9.83-3.62,14.73-4.94,19.69-17.53,33-34.77,42.27-7.83,4.2-16.67,5.84-25.66,6-1.76-5.51-.49-11.16-.76-16.74C97,138.22,97,132.1,96.93,126c.12-3.24.24-6.47.37-9.71a3.45,3.45,0,0,1,.85-.08,1.47,1.47,0,0,1,0,1.91l0,2.94a4.75,4.75,0,0,1,.93,2,19.07,19.07,0,0,1,.17,2.92c0,.72,0,1.45,0,2.17,0,1,0,1.92,0,2.87,0,.73,0,1.45,0,2.18,0,1,0,2,0,2.93,0,.75,0,1.5,0,2.25,0,1,0,2,0,3.07,0,1.82,0,3.64,0,5.46,0,1.3,0,2.59,0,3.88,0,1,0,2,0,3a11,11,0,0,0,.24,2.74c2.31,2,4.81.47,7,0,24.82-4.94,45-25.31,49.73-50,.45-2.37,1.28-4.94-.92-7-.71-.6-1.6-1.1-1.35-2.28l7.94,0A8.44,8.44,0,0,1,162.05,98.07Z"/><path class="cls-211" d="M50.07,97.07l21,.09,2,5.89c0,2,1.37,3.13,3,4,.9,3.67,3.61,5.23,7,6,1.35,2.3,3.53,2.94,6,3,1.35,4.2.1,8.47.27,12.71.11,2.76-2.4,2.45-4,1.9-3.64-1.19-7.12-2.68-11-1a2.21,2.21,0,0,1-2.85-1.44c-1.53-4.26-5.34-5.73-9-7.22a8.81,8.81,0,0,1-4.66-4.85c-1.22-2.52-2.08-5.29-5.42-6-1-.19-2.14-1.46-1.57-2.16C53.94,104.07,49.4,100.75,50.07,97.07Z"/><path class="cls-212" d="M50.07,97.07c3.21.44.73,4,2.67,5,4.63,2.53.48,3.57-.78,5.22s.7,2.37,1.39,2.26c3.27-.51,3.95,1.74,4.43,4,1.16,5.47,6.16,6.45,10,8.84.55.34,1.65.36,1.77.76,2.81,8.78,12,1.87,16.45,6.69a2.34,2.34,0,0,0,2.26-.26c.91-1-.24-1.27-.93-1.61s-1.1-1-.41-1.48c4.24-2.76,1.28-7,2.17-10.39,2.66,3.3-.63,7.66,2,11,0,.34,0,.68,0,1-1.16.73-1,1.9-1,3a5.58,5.58,0,0,0-.91,1.69c-1,7.59-2.13,9.9-9,8.18-5.69-1.43-12.67-2.15-17-7.41-1.61-2-3.82-2.92-5.74-4.36-6.91-5.19-9.86-12.93-12.66-20.63-1.33-3.64-1.78-7.61-2.63-11.43Z"/><path class="cls-213" d="M98.12,157v-3c3.2-2.36,7.13-2.7,10.78-3.62,18.79-4.74,31.31-16.38,39-33.92a44.21,44.21,0,0,0,3.36-13.4c.16-1.58.52-3-1.56-3.53-1.41-.33-2.92-.24-4.2-1.07a1.45,1.45,0,0,1-.46-1.32h9l2,.9c1.4,2,.92,4.1.52,6.24-3.21,17.22-11.58,31.17-25.85,41.56-8.92,6.51-18.93,9.94-29.71,11.53A4.35,4.35,0,0,1,98.12,157Z"/><path class="cls-214" d="M145,97.18l0,.87c-.18.18-.36.36-.53.55a9.65,9.65,0,0,1-4.47.72,9.43,9.43,0,0,1-4.48-.71l-.53-.56c0-.28,0-.56,0-.85Z"/><path class="cls-215" d="M98,45.06l0-5c5-1.83,9.24-.16,13.1,3,.22,1,2.43,1.17,1.27,2.75s.18,2.43,1.17,2c3.07-1.18,4.93.85,6.31,2.56,3.07,3.81,8.41,4.68,11,8.86,5.07,8.14,10,16.36,12.06,25.9.7,3.28-1.88,2.79-3.81,2.88l-.64-.27c-1.89-1.16-2.12-3.11-2.66-5-2-7.06-5.38-13.34-11.1-18.14-2.19-2.47-5.6-3.56-7.42-6.45-.47-1.21-.52-3-1.9-3.29-5.93-1-8.63-7.92-15-8.14C99.36,46.72,98.73,45.7,98,45.06Z"/><path class="cls-216" d="M119.08,89c3.81-1,3.86-3,2-6.13-2.79-4.51-6.67-8.32-7.8-14-.57-2.86-4.16-4.89-6.78-5-3-.15-4-.79-4.66-3.53-.43-1.94-2.45-1.07-3.82-1.3,0-1,0-2,0-3a4.41,4.41,0,0,1,5.11-.77c5.61,3,12.23,4.21,16.63,9.41,1.7,2,4,3.53,2.36,6.79-.77,1.53,1.08,2.58,1.7,3.88,2,4.22,5.71,7.73,5.33,12.93-1.61.7-3.48-.34-5,.74Z"/><path class="cls-217" d="M111.06,43.07c-4.37-1-8.49-3-13.1-3,0-.65,0-1.3,0-1.95,3.66-2,7.19-.09,10.74.42,1.21.17,2.41,1.26,3.33-.43,3.77-.43,6.37,3,10,3h0c2,1,4.2,1.61,6,3s3.33,2.67,5,4c2.05,3.49,5.47,5.79,7.88,9,1.55,2,2.84,4.14,1.51,6.82-1.4,1.06-2.3-.09-2.84-1-2.86-4.54-7.31-7.65-10.55-11.83C123,48.47,118.62,42.23,111.06,43.07Z"/><path class="cls-218" d="M129.06,51.07c5.23,3.43,9.11,8.22,13,13a2.78,2.78,0,0,1,1.83,1.32,33.18,33.18,0,0,1,3.49,9.48c.26,1.21,1.2,3-1.32,3.2-3.79-8.89-8.64-17.09-15.49-24A4.13,4.13,0,0,1,129.06,51.07Z"/><path class="cls-217" d="M146.05,78.07c1.1-3.49-1-6.36-2-9.36a10.12,10.12,0,0,1-1-3.64c2-.43,3.21.89,3.79,2.41,1.95,5.21,4.2,10.36,4.5,16,.11,2.16,0,4.34-2.28,5.55a2.12,2.12,0,0,1-2-.94C148.5,84.59,144.87,81.56,146.05,78.07Z"/><path class="cls-219" d="M124.05,89c1.42-1.62,3.32-.73,5-1a3.63,3.63,0,0,1,4.52-.45,1.28,1.28,0,0,1,.48,1.43Z"/><path class="cls-215" d="M134.05,89c0-.32,0-.65,0-1l.57-.55a3.78,3.78,0,0,1,4.42.54h0C137.65,89.72,135.74,88.83,134.05,89Z"/><path class="cls-220" d="M101.05,86.08l1,4.91c0,.63,0,1.26,0,1.89a1,1,0,0,1-1.25,0C96.94,87.16,93.4,86.63,89,91.14a3.23,3.23,0,0,1-2.48,1.1,1.7,1.7,0,0,1-1-1.69,2.82,2.82,0,0,1,.54-1.24c1-.88,2.22-1.67,1-3.23h0c1.36-1.44,3.92-1,4.73-3.73.56-1.9,2.95-1.09,2.86.75-.13,2.89-.59,4.41,2.51,1.43C97.55,84.13,99.7,85.52,101.05,86.08Z"/><path class="cls-221" d="M98.21,123.07c0-.68,0-1.35,0-2,10.72-1.29,21.48-10.32,21.85-23l2,0c1.25,1.36,1.26,3,1.05,4.69-1.13,8.81-12.74,20.14-21.66,21.15A3.79,3.79,0,0,1,98.21,123.07Z"/><path class="cls-186" d="M98.18,118.1l0-1.91L103,115C101.92,116.8,99.68,116.88,98.18,118.1Z"/><path class="cls-199" d="M45,90.09c4.07,2.06,8.41.68,12.62.92,4.78.28,9.59.09,14.39.11.75,1.68-.1,1.95-1.57,1.94q-14.43,0-28.86,0c-1.56,0-2.25-.37-1.48-2,.93-1.21,2.32-1.21,3.64-1.41A2.11,2.11,0,0,1,45,90.09Z"/><path class="cls-192" d="M44.09,90.09c-1.05,1.38-2.58.88-4,1H38L36.16,91a1,1,0,0,1,.11-1.31,4,4,0,0,1,1.37-.62c2-.24,4-.46,5.93.49C43.75,89.72,43.92,89.91,44.09,90.09Z"/><path class="cls-78" d="M86.09,92.09,88,91A.85.85,0,0,1,89.25,91c1.36,2.53.79,5-.45,7.76,3.39-.21,6.52.89,9.48-.76,1-1.46.93-3.43,2.29-4.71l.6-.31a2.55,2.55,0,0,0,.91-.07c.26,1,3.72.65,1.09,2.76-1.19,1-1.19,2.3-1.08,3.61.18,2.27-1.1,2.86-3,2.81v0a13,13,0,0,0-8.11-.28,12.77,12.77,0,0,1-8.91-.67c-1-.78-2.78-1.3-1-3,2.56-1,2.78-3.88,4.42-5.62C85.7,92.34,85.89,92.21,86.09,92.09Z"/><path class="cls-222" d="M102,104.09c-.08,2-1.52,2-3,2-.91-1-2.48-2.06,0-3Z"/><path class="cls-223" d="M82.06,101.09c5.62,1.24,11.46-1.37,17,1-4.45.12-9-.38-13,2.12a6.26,6.26,0,0,0-1-.11Z"/><path class="cls-224" d="M106.1,87c.76.57,2,1,1.07,2.24a2.41,2.41,0,0,1-3.15.59c-1.38-.76-1-1.86,0-2.78Z"/><path class="cls-193" d="M86.06,90.06l0,2h0c-1.55,1.78-2.56,4.11-5,5-4.07.23-2.77-2.83-3-4.93,2.89,5.08,4-.59,6-1C84.39,90.18,85,89.64,86.06,90.06Z"/><path class="cls-223" d="M81.08,97.06a14.23,14.23,0,0,1,5-5c-1.64,2,.59,7.29-5,6C81.08,97.75,81.08,97.41,81.08,97.06Z"/><path class="cls-225" d="M98.16,136l0-2.95c4.6-3,10.29-2.94,15.07-5.89,9.91-6.11,16.33-14.17,17.54-26a4.87,4.87,0,0,1,1.25-3.15l3,0v0a5.83,5.83,0,0,1,1.25,4.63c-3.83,18-15,29.1-32.5,34.14C101.84,137.4,99.85,137.63,98.16,136Z"/><path class="cls-226" d="M98.19,131l0-3c1.22-1.33,3-1.25,4.53-1.77,12.09-4.09,20.55-11.6,23.12-24.61.3-1.53.75-2.86,2.24-3.61h2c2.91,5.86-.61,10.83-3.07,15.29a35.32,35.32,0,0,1-24.16,18.09C101.19,131.82,99.62,132.45,98.19,131Z"/><path class="cls-227" d="M98.19,131c15.53,0,32.31-16.91,31.86-32.95h2c1.34,18.22-16.28,34-33.86,35C98.2,132.39,98.2,131.71,98.19,131Z"/><path class="cls-228" d="M98.21,123.07c13.13-1.09,23.78-12.24,23.86-25l3,0c1.85,1,1.09,2.61.9,4-1.57,10.91-13.15,22.65-24,24.38-1.27.2-2.61.72-3.77-.39Z"/><path class="cls-229" d="M98.19,126c14-1.81,22.21-10.31,26.47-23.23.5-1.51,1.4-3.06.4-4.72h3c-1.16,9.23-5.11,17-12.41,22.83-5.08,4.06-10.68,7.16-17.48,7.16C98.18,127.39,98.19,126.71,98.19,126Z"/><path class="cls-230" d="M45,90.09h-.95l0-.08c-4.65-.65-4.64-3.89-3.9-7.32A52.84,52.84,0,0,1,56.64,54.33c9-8.24,19.54-13.64,32.11-14.07a4.26,4.26,0,0,1,1.31.82c0,7.78,0,15.56,0,23.33,0,1.59.54,3.36-1,4.66,0-2.66,0-5.33,0-8a6.81,6.81,0,0,1-2-4.47c-.15-4.43-2.86-3.64-5.32-2.8C67.87,58.57,58.36,68,53.11,81.62c-1.06,2.77-1.6,5.56,2.34,6.76a1.21,1.21,0,0,1,.61,1.67Z"/><path class="cls-211" d="M56.06,90.05c-5.81-3.6-6.2-5.2-3-12.06A48,48,0,0,1,79.33,53.18,15.86,15.86,0,0,1,88.74,52c-2.1,3.1,1,6,.32,9-12.87,3-22,10.44-27.23,22.71-.76,1.8-.63,3.51-.76,5.28-1.14,1.09-2.86-.12-4,1Z"/><path class="cls-230" d="M57.08,90.05c1.05-1.45,2.61-.84,4-1,1.68.25,3.58-.66,5,1Z"/><path class="cls-231" d="M90.06,41.08h-1a6.67,6.67,0,0,1-1.49-2.42c-1-1.45-2.27-1-3.58-.74-22,4.31-41.34,21-45.81,43.8-.26,1.3-.57,2.59-.82,3.89-.89,4.74-2.39,5.42-7.3,3.46.15-1.38-.46-2.94,1-4,2.57-6.38,4.07-13.12,7.44-19.24C49.08,46.62,65.07,35.47,86.76,32.42a4,4,0,0,1,3.29.65Z"/><path class="cls-232" d="M90.05,33.07C74.47,34.78,60.58,40.32,49.78,52c-8.55,9.23-14.5,20-16.72,32.59-.32,1.81-.32,1.81-2,.51v-1c1.24-1.49-.18-3.51,1-5,4.18-16.71,14.07-29.28,28.28-38.61a62.85,62.85,0,0,1,24-9,8.07,8.07,0,0,1,5.75.66C90.06,32.41,90.06,32.74,90.05,33.07Z"/><path class="cls-233" d="M80,90.12l-1-1c1-3.76,3.47-3.08,6.07-2h0C85.42,91.49,82.63,90.65,80,90.12Z"/><path class="cls-234" d="M85,87.09c-2.23.06-4.73-.69-6.07,2-1.46-1.63-.25-2.46,1.08-2.85C81.76,85.75,83.85,84.1,85,87.09Z"/><path class="cls-234" d="M80,90.12c2.21-.13,4.76.31,5-3l1.07,1a1.33,1.33,0,0,1,0,2h0l-2,1.08C82.67,90.91,81.1,91.51,80,90.12Z"/><path class="cls-193" d="M86.06,90.06c0-.65,0-1.3,0-2l1-2C89,88,87.71,89.07,86.06,90.06Z"/><path class="cls-235" d="M134.06,88.07h-5c-2.7-5.12-4.75-10.6-8.57-15.08-1.08-1.27-2.27-2.24.78-2.73,1.68-.27.5-2-.28-2.65-3.74-3.09-6.73-7.16-12-8.18-3.74-.72-6.57-4.65-11-3.36,0-2,0-4,0-6,8.33-1.46,14.28,3.07,20.06,8,2.24,2.1,5.64,2.87,7,6,2,2.73,6.66,4.21,3.81,9.12-.6,1,1.06,2.27,1.63,3.44,1.78,3.62,4.65,6.91,3.56,11.43Z"/><path class="cls-236" d="M118.06,58.07c-3.17.46-4.26-2.71-6.53-3.91-4.33-2.29-9-2.95-13.53-4.11,0-1.66,0-3.33,0-5,3.07,1,6.49.81,9.37,2.61,1,.67,3.24.31,1.6,2.81-.68,1,.89,1,1.83,1.27C114.2,52.64,118.37,52.84,118.06,58.07Z"/><path class="cls-237" d="M112.05,38.08c2,2,.71,2.2-1.1,2-4.33-.61-8.64-1.29-13-1.94,0-1,0-2,.07-3Z"/><path class="cls-238" d="M30.07,89.06c3.69.41,5.7-.1,6.35-4.89,2.25-16.58,11.47-29.26,25-38.49a59.76,59.76,0,0,1,23.83-9.44c1.59-.27,3.47-.69,3.83,1.83-1.25,1.26-2.91,1.58-4.53,1.92-24.18,5.06-38.29,20.51-45,43.58-.64,2.22-.75,4.64-2.42,6.47l-1,0c-2.35,1.66-4.68,1.83-7-.1Z"/><path class="cls-199" d="M29.05,90l7,.1a6.57,6.57,0,0,0,.12.89l-.2.2c-2.66,1.22-5.3,1.48-7.91-.15,0-.3,0-.6.05-.91C28.42,90.09,28.74,90.05,29.05,90Z"/><path class="cls-231" d="M32.07,79.07c-.24,1.68.67,3.6-1,5C31.32,82.38,30.41,80.47,32.07,79.07Z"/><path class="cls-239" d="M28.05,91l7.91.14c-3.28,3.62-7,1.8-10.71,1Z"/><path class="cls-240" d="M149.06,89.06c2.15-6.4-1.23-19.88-6-24l-1-1c1.06-4.91-3.18-7.28-5.5-10.26a52.37,52.37,0,0,1-3.49-5.74c6.54,2.77,9.32,9.31,14,14,.34.34.67.7,1,1,1.74,4.43,3.4,8.9,5.25,13.28,1.42,3.37.8,6.91.83,10.3C154.15,89.25,151,88.69,149.06,89.06Z"/><path class="cls-203" d="M128.06,44.07a11,11,0,0,1-6-3C124.55,41.1,126.72,41.76,128.06,44.07Z"/><path class="cls-214" d="M145.07,98.05l5,0c4.25,3.44,1.39,7.89.45,11-4.84,16.11-14.08,28.91-29.46,37-5.26,2.78-10.8,4-16.28,5.63-2.13.64-4.6,1.21-6.6-.72l0-4c2.67-3.07,6.7-2.58,10.07-3.61,18.24-5.53,29.25-17.95,35-35.61,1-3.14.14-6.65,1.73-9.71Z"/><path class="cls-241" d="M145.05,98.07c1.37,9-2.33,16.77-6.75,24-8.36,13.73-20.9,21.5-36.74,24-1.13.18-2.23.57-3.34.86q0-3,0-6c3.09-2.24,7-1.83,10.36-3.09,17.17-6.38,27.11-18.77,30.75-36.51.23-1.12.13-2.32.76-3.35Z"/><path class="cls-242" d="M98.12,157c4.92-1.33,9.93-2.14,14.84-3.67,17.08-5.31,28.92-16.4,36.87-32a58,58,0,0,0,6.23-23.25c3.15,1.71,2.32,4.82,1.84,7.14-3.19,15.75-10.55,29-23.3,39.26-9.73,7.87-20.64,12.22-32.75,14.2C100.16,158.94,98.45,159.64,98.12,157Z"/><path class="cls-243" d="M98.17,151c12.3,0,22.63-4.89,32.05-12.52,11.19-9.08,17.29-21,20.47-34.67a7.66,7.66,0,0,0-.63-5.76c2,.15,3.08,1.23,2.91,3.24a55.5,55.5,0,0,1-5.85,20.22c-6.7,13.34-17.4,22.46-30.81,28.19A60.79,60.79,0,0,1,98.13,154C98.14,153,98.15,152,98.17,151Z"/><path class="cls-244" d="M140.05,98.08c2,4.5-.72,8.33-2,12.24-5.87,17.89-23.64,30.41-39.87,30.71,0-1,0-2,0-3,3.1-1.59,6.59-1.84,9.87-2.84,14.39-4.4,26.73-18.72,28.53-33.64a3.56,3.56,0,0,0-.05-1.27c-.35,1,1,2.8-1.45,2.75,0-1.66,0-3.32,0-5Z"/><path class="cls-245" d="M135.06,103.06c1.25-.57.64-2.1,1.47-2.91,3.55,14.77-17.45,38-38.37,37.91v-2c13.66.15,30-11.87,34.85-26.32C133.75,107.51,134.38,105.28,135.06,103.06Z"/><path class="cls-219" d="M134.06,88.06a43.21,43.21,0,0,0-6.46-13.81,10.61,10.61,0,0,1-1.09-2c6.32-4-2.65-5.16-1.45-8.14,5.69,3.07,7.74,8.84,10.51,14.1,1.66,3.13,1.36,6.93,3.48,9.89Z"/><path class="cls-246" d="M89.08,91.08,88,91c1.31-4.43,4.85-4.27,8.34-3.89s4.64,2.67,4.81,5.8l-.16.17a2.45,2.45,0,0,1-2-.33C96,90.32,92.22,92.56,89.08,91.08Z"/><path class="cls-247" d="M37.08,90c3.91-26.71,23.41-49.3,52-52,0,1,0,2,0,3C72.11,42.79,59,51.15,49.13,64.71,45.2,70.13,43,76.59,41.19,83.08c-.89,3.2.41,5.24,2.87,6.93Z"/><path class="cls-248" d="M89.08,91.08c3.79-1.22,7.53-1.76,11,1-1.81,1.86-4.71,2.2-6.5,4.7,1.83,1.87,4.88.28,6.51,2.26-4.24,2.26-8.59.38-13.22.6C89.56,97,88.63,93.9,89.08,91.08Z"/><path class="cls-249" d="M100.05,99.05c-2,0-4,0-6,0-1.13,0-2.47.19-2.8-1.35a2.32,2.32,0,0,1,1.27-2.51C95,94,96.9,91.54,100,92.09l1,1Z"/></g></g></svg>