<svg xmlns="http://www.w3.org/2000/svg" viewBox="0 0 188.16 187.2"><defs><style>.cls-1{fill:#fdfdfd;}.cls-2{fill:#584225;}.cls-3{fill:#75512f;}.cls-4{fill:#584124;}.cls-5{fill:#594224;}.cls-6{fill:#5d4525;}.cls-7{fill:#5e4524;}.cls-8{fill:#877135;}.cls-9{fill:#715327;}.cls-10{fill:#6c532b;}.cls-11{fill:#644c29;}.cls-12{fill:#5c4425;}.cls-13{fill:#5e4a23;}.cls-14{fill:#775a32;}.cls-15{fill:#73582c;}.cls-16{fill:#5b4426;}.cls-17{fill:#75572b;}.cls-18{fill:#6f532a;}.cls-19{fill:#4a3824;}.cls-20{fill:#4d381e;}.cls-21{fill:#d6c489;}.cls-22{fill:#9d8f50;}.cls-23{fill:#beb170;}.cls-24{fill:#926e40;}.cls-25{fill:#dccb8d;}.cls-26{fill:#9a7645;}.cls-27{fill:#bda56a;}.cls-28{fill:#816037;}.cls-29{fill:#866239;}.cls-30{fill:#7c5a34;}.cls-31{fill:#a98851;}.cls-32{fill:#7a5632;}.cls-33{fill:#302822;}.cls-34{fill:#745f3b;}.cls-35{fill:#7e5f39;}.cls-36{fill:#453a30;}.cls-37{fill:#6d4a2b;}.cls-38{fill:#87653b;}.cls-39{fill:#6b492b;}.cls-40{fill:#87663b;}.cls-41{fill:#c5b87b;}.cls-42{fill:#9d8e52;}.cls-43{fill:#322a22;}.cls-44{fill:#3d3020;}.cls-45{fill:#a37e48;}.cls-46{fill:#a27f4b;}.cls-47{fill:#b29259;}.cls-48{fill:#947241;}.cls-49{fill:#967343;}.cls-50{fill:#6f4f2d;}.cls-51{fill:#a07a44;}.cls-52{fill:#825f37;}.cls-53{fill:#8d693d;}.cls-54{fill:#bd9b5f;}.cls-55{fill:#785a31;}.cls-56{fill:#957242;}.cls-57{fill:#a6844e;}.cls-58{fill:#9b7441;}.cls-59{fill:#8a683a;}.cls-60{fill:#352d25;}.cls-61{fill:#a79a5c;}.cls-62{fill:#a69a5b;}.cls-63{fill:#4e3d20;}.cls-64{fill:#342715;}.cls-65{fill:#b3945b;}.cls-66{fill:#bda265;}.cls-67{fill:#bda368;}.cls-68{fill:#d1b779;}.cls-69{fill:#cab278;}.cls-70{fill:#785b2e;}.cls-71{fill:#8a663a;}.cls-72{fill:#302821;}.cls-73{fill:#957443;}.cls-74{fill:#c8a96c;}.cls-75{fill:#ab8a52;}.cls-76{fill:#dbc88d;}.cls-77{fill:#d3bb80;}.cls-78{fill:#c09d61;}.cls-79{fill:#d2ba7d;}.cls-80{fill:#d8ca90;}.cls-81{fill:#6d512f;}.cls-82{fill:#9e7e4a;}.cls-83{fill:#a89d5e;}.cls-84{fill:#7d7037;}.cls-85{fill:#362917;}.cls-86{fill:#7b6c2d;}.cls-87{fill:#46351d;}.cls-88{fill:#5f4f2b;}.cls-89{fill:#372b17;}.cls-90{fill:#584a27;}.cls-91{fill:#b3a667;}.cls-92{fill:#322d28;}.cls-93{fill:#977444;}.cls-94{fill:#7a5a35;}.cls-95{fill:#907a40;}.cls-96{fill:#aa9c5d;}.cls-97{fill:#906c3f;}.cls-98{fill:#967544;}.cls-99{fill:#c2b173;}.cls-100{fill:#9e9989;}.cls-101{fill:#8e8878;}.cls-102{fill:#989282;}.cls-103{fill:#8f8977;}.cls-104{fill:#88653b;}.cls-105{fill:#7b5b34;}.cls-106{fill:#473c30;}.cls-107{fill:#87633a;}.cls-108{fill:#3b332b;}.cls-109{fill:#b6aa6a;}.cls-110{fill:#e3d693;}.cls-111{fill:#8c7140;}.cls-112{fill:#625327;}.cls-113{fill:#47391d;}.cls-114{fill:#af8f57;}.cls-115{fill:#85643c;}.cls-116{fill:#b5a86a;}.cls-117{fill:#332e28;}.cls-118{fill:#88663c;}.cls-119{fill:#533e22;}.cls-120{fill:#5d4426;}.cls-121{fill:#a69859;}.cls-122{fill:#3f3c36;}.cls-123{fill:#ad8c52;}.cls-124{fill:#9d9155;}.cls-125{fill:#c2a265;}.cls-126{fill:#a87e45;}.cls-127{fill:#b58a4b;}.cls-128{fill:#c7ad70;}.cls-129{fill:#bd9759;}.cls-130{fill:#806234;}.cls-131{fill:#845e35;}.cls-132{fill:#be9e61;}.cls-133{fill:#977746;}.cls-134{fill:#b9ad6e;}.cls-135{fill:#3b2d18;}.cls-136{fill:#c2b785;}.cls-137{fill:#716029;}.cls-138{fill:#795b35;}.cls-139{fill:#bd995b;}.cls-140{fill:#ddca8c;}.cls-141{fill:#3c3933;}.cls-142{fill:#39322c;}.cls-143{fill:#ac8a51;}.cls-144{fill:#3d362d;}.cls-145{fill:#937041;}.cls-146{fill:#b9a469;}.cls-147{fill:#c3a96f;}.cls-148{fill:#c5a96e;}.cls-149{fill:#d2bd81;}.cls-150{fill:#a07d49;}.cls-151{fill:#d7c285;}.cls-152{fill:#8d6b3e;}.cls-153{fill:#957241;}.cls-154{fill:#816139;}.cls-155{fill:#332714;}.cls-156{fill:#775a34;}.cls-157{fill:#292524;}.cls-158{fill:#403d37;}.cls-159{fill:#473721;}.cls-160{fill:#7f643e;}.cls-161{fill:#5b4626;}.cls-162{fill:#775934;}.cls-163{fill:#775f32;}.cls-164{fill:#383630;}.cls-165{fill:#39322a;}.cls-166{fill:#aaa697;}.cls-167{fill:#b2afa1;}.cls-168{fill:#b1ada1;}.cls-169{fill:#c9c2af;}.cls-170{fill:#bcb7a6;}.cls-171{fill:#625745;}.cls-172{fill:#a8a08d;}.cls-173{fill:#c4c0b4;}.cls-174{fill:#2c2826;}.cls-175{fill:#a5a192;}.cls-176{fill:#a19c8c;}.cls-177{fill:#795e3b;}.cls-178{fill:#43413c;}.cls-179{fill:#534024;}.cls-180{fill:#544630;}.cls-181{fill:#564835;}.cls-182{fill:#aba05e;}.cls-183{fill:#a38049;}.cls-184{fill:#937142;}.cls-185{fill:#413f39;}.cls-186{fill:#484641;}.cls-187{fill:#413f3a;}.cls-188{fill:#947243;}.cls-189{fill:#7a5934;}.cls-190{fill:#8c693d;}.cls-191{fill:#4c4a43;}.cls-192{fill:#795a35;}.cls-193{fill:#9c7947;}.cls-194{fill:#5b4c38;}.cls-195{fill:#7d603a;}.cls-196{fill:#44423d;}.cls-197{fill:#545149;}.cls-198{fill:#59564e;}.cls-199{fill:#4e4c44;}.cls-200{fill:#5e5b51;}.cls-201{fill:#494741;}.cls-202{fill:#8d6d40;}.cls-203{fill:#b49658;}.cls-204{fill:#47453f;}.cls-205{fill:#514f46;}.cls-206{fill:#89683d;}.cls-207{fill:#5b4b36;}.cls-208{fill:#b5b0a0;}.cls-209{fill:#d1cbb8;}.cls-210{fill:#bfbbac;}.cls-211{fill:#bbb6a5;}.cls-212{fill:#dad4be;}.cls-213{fill:#e1dac4;}.cls-214{fill:#ebe5cd;}.cls-215{fill:#e5dfc8;}.cls-216{fill:#ada898;}.cls-217{fill:#ae9158;}.cls-218{fill:#846842;}.cls-219{fill:#4d4b44;}.cls-220{fill:#41311c;}.cls-221{fill:#525048;}.cls-222{fill:#58564d;}.cls-223{fill:#40311e;}.cls-224{fill:#4c4a46;}.cls-225{fill:#504e49;}.cls-226{fill:#54524c;}.cls-227{fill:#5a574e;}.cls-228{fill:#5e5c54;}.cls-229{fill:#7b5d37;}.cls-230{fill:#967646;}.cls-231{fill:#bda166;}.cls-232{fill:#5f4e36;}.cls-233{fill:#523f26;}.cls-234{fill:#caaf67;}.cls-235{fill:#e9e2c9;}.cls-236{fill:#b18f52;}.cls-237{fill:#bca16e;}.cls-238{fill:#684e2d;}.cls-239{fill:#b59b6a;}.cls-240{fill:#55534b;}.cls-241{fill:#dcd5c2;}.cls-242{fill:#4a4741;}.cls-243{fill:#8d6c3f;}.cls-244{fill:#5d5a50;}.cls-245{fill:#241b0f;}.cls-246{fill:#887c67;}.cls-247{fill:#937042;}.cls-248{fill:#87643a;}.cls-249{fill:#ad8c54;}.cls-250{fill:#a4804a;}.cls-251{fill:#d8ca9f;}.cls-252{fill:#372a17;}.cls-253{fill:#705430;}.cls-254{fill:#a78d60;}.cls-255{fill:#291e10;}</style></defs><g id="Layer_2" data-name="Layer 2"><g id="Layer_2_Image" data-name="Layer 2 Image"><path class="cls-1" d="M81,1.91,82,0h23l1,1.9C104.14,4,101.48,3,99.28,3.72A7,7,0,0,1,95.47,3c-3.07-1.46-6,.72-9,.34C84.51,3.24,82.46,3.64,81,1.91Z"/><path class="cls-1" d="M0,88c1.62-.8.29-3.34,2.31-3.9,1.21,1.5,1,3.31,1.09,5-.1,3.16.05,6.32,0,9.49-.06,1.46-.08,2.93-1.1,4.14-2-.49-.65-3.05-2.28-3.78Z"/><path class="cls-2" d="M14.12,139.92l-.33-.94c-2.16-1.82-2.67-4.55-3.79-6.94L7.82,127a8.33,8.33,0,0,1-.69-2.06,2.89,2.89,0,0,1,.67-2,1.77,1.77,0,0,1,1.39-.07A15.38,15.38,0,0,1,13,128.73c1.49,5,4.86,9.08,7.35,13.58.56.92,1,1.91,1.47,2.86a13.7,13.7,0,0,0,2.64,3.33,16.83,16.83,0,0,1,1.48,2,16.94,16.94,0,0,0,2.94,3.27c3.14,3.57,7.19,6.11,10.58,9.38a52.84,52.84,0,0,0,6,4.22c3.26,2.12,6.7,3.92,10.11,5.76,2.49,1.34,5.29,1.89,7.85,3,3.91,1.28,7.56,3.35,11.75,3.74,1,.31,2,.68,2,2-.85,1.27-2.31,1-3.51,1.43-3.22-.67-6.59-.72-9.65-2.17-2.21-1.87-5.21-1.92-7.62-3.32-1.75-1-3.95-1.07-5.41-2.67-.83-.23-1.84-.13-2.25-1.18A34.07,34.07,0,0,1,36,165.15L35.8,165c-2.25-1.32-4.61-2.51-5.74-5.09h0A3.1,3.1,0,0,1,28,158.13L26.84,157c-2.77-1.59-4.13-4.39-5.84-6.88L18.88,147a6.92,6.92,0,0,1-2.76-4.05l0,0C15.39,141.94,14.32,141.22,14.12,139.92Z"/><path class="cls-3" d="M185.87,86.2a.44.44,0,0,0,0,.63c-.23.59-.4,1.22-1.06,1.51a2.19,2.19,0,0,1-1.26-.16,8.17,8.17,0,0,1-2.62-2.89,19.79,19.79,0,0,1-1-1.73c-1.81-2.76-.23-6.63-2.95-9.16-1.18.63-.88,2.17-1.94,2.75-2.64-.24-2.08-2.44-2.29-4-.27-2-.84-3.41-3.26-2.86-1.34-.54-1.53-1.73-1.72-2.93C168,63.43,166,59.12,170,55.91c4.94-1.12,5.26,3.8,7.74,5.9a10.9,10.9,0,0,1,1,1,9,9,0,0,1,1.7,3.21c1.23,4.71,1.92,9.54,3.18,14.24a3.62,3.62,0,0,1-.06,2.41c-.19.4-.28.66,0,.64s.45-.73,1-.62C186.08,83.44,185,85.18,185.87,86.2Z"/><path class="cls-4" d="M155,25a2.86,2.86,0,0,0,2.66,2.15c2.11.89,3.9,2.07,4.07,4.67a2.11,2.11,0,0,1-1.33,1.61c-1.63.26-2.66-.78-3.74-1.71-.83-.79-1.62-1.62-2.45-2.4a53.37,53.37,0,0,0-9.37-7.65c-1.11-.78-2.24-1.53-3.4-2.23-4.24-2.36-8.09-5.49-13-6.57-2.91-1.08-5.69-2.47-8.62-3.51-1.72-.6-3.38-1.41-3.24-3.72.88-1.49,2-1.56,3.37-.65l.1,0a8.16,8.16,0,0,1,4.9,2l.1,0c2.85.48,5.74.85,7.83,3.19.41,1,1.29.82,2.09.84,1.75.83,3.94.86,5,2.85L142,15A17.14,17.14,0,0,1,150,20.72l1.84,1.34C153.2,22.72,154.5,23.42,155,25Z"/><path class="cls-5" d="M182.85,116.93c-1.41.66-.84,1.95-.94,3-1,3-.75,6.43-3.2,8.9-.91.42-.85,1.24-.81,2-.48,1.43-.57,3.06-2,4h0A8,8,0,0,1,173,140c-1.21.2-.95,1.18-1,2-1.05,2.74-2.33,5.32-4.83,7.05l-3.17,3.94c-2.47,2.64-3.28,7-7.8,7.52a1.47,1.47,0,0,1-1.5-1.25c.13-1.83,1.26-3,2.56-4.13a80.43,80.43,0,0,0,8.05-9.44c1.91-2.14,3-4.79,4.6-7.15.21-.39.44-.76.67-1.13.7-1.14,1.23-2.37,1.86-3.54,2.69-4.25,3.92-9.08,5.63-13.73.61-2.23,1.14-4.47,1.6-6.74.31-1.55.28-3.42,2.48-3.76,1.82.45,1.8,1.91,1.85,3.33S183.94,115.79,182.85,116.93Z"/><path class="cls-6" d="M159.92,33l1.24-1.38c1.69-.15,2,1.41,2.81,2.3l0,.06a5.48,5.48,0,0,1,2.83,3.28.58.58,0,0,0,.33.68c2.41,1.78,3.71,4.32,4.78,7l0,.05a16.84,16.84,0,0,1,3.94,7.07,14.09,14.09,0,0,0,2.84,6c1.13.58.87,1.57.74,2.52A2.87,2.87,0,0,1,178,63l-1,0c-2-5.32-5.06-10.07-7.6-15.1-1.31-2-2.23-4.34-3.9-6.15a24.44,24.44,0,0,0-2.45-2.21C161.6,37.56,159.67,35.81,159.92,33Z"/><path class="cls-7" d="M132.69,176.84c-.78,0-1.52.06-1.79,1-.59,1.32-2,.52-2.88,1.12l-.08,0c-.78,1.15-2.15.31-3.1.91L122,181.11c-2,2-4.65,1.29-7,1.78h0a1.92,1.92,0,0,1-2,.4c-1.18-.28-2.53-.24-3.13-1.65,1.73-3.06,5.22-2.22,7.75-3.49,2.24-3.08,5.6-2.23,8.69-2.76,5-.88,9.12-4.3,13.85-6.14,1.28-.21,2.48-.19,3.18,1.18-.11,2.07-2,1.9-3.22,2.52l-1.15.77C137.31,175.77,134.87,176.05,132.69,176.84Z"/><path class="cls-8" d="M81,185l-1.78-.16a.7.7,0,0,1-.14-1.21c2.12-1.48,4.69-.61,7-1.33,1.63-.49,1.84-2.18,2.75-3.28a1.78,1.78,0,0,1,1.21-.33,36.21,36.21,0,0,1,4.13,3c.3,1.64,1.17.81,2,.46,1.63-.71,3.28-1.4,4.7.43a2.89,2.89,0,0,1,.5,2.17,2.33,2.33,0,0,1-1.22,1C93.66,187.06,87.32,186.34,81,185Z"/><path class="cls-9" d="M2.28,102.76l-.16-3.7c1.92-1.33,2.72.15,3.61,1.43a14.09,14.09,0,0,1,1,5,10.17,10.17,0,0,0-.24,3.39c.22.93.47,1.85.65,2.79-.08,3,2,6,.33,9.07a1,1,0,0,1-1.37.26l-.28-1c-2.2-5.5-4.31-11-3.51-17.15Z"/><path class="cls-10" d="M143,170.72c-.79-.93-1.85-.72-2.87-.72a1.07,1.07,0,0,1-.34-.78c0-.29,0-.44.09-.44a4.23,4.23,0,0,1,1-.91,76,76,0,0,0,7.19-4.58,18.55,18.55,0,0,1,1.51-1.28c1.89-.86,2.7-3.76,5.49-2.92l1.24,1a.53.53,0,0,1-.28.87l-1,1a3.19,3.19,0,0,1-2.09,1.93l-2,1.86C148.71,168.19,146.35,170.29,143,170.72Z"/><path class="cls-11" d="M98.83,2.74C101,1,103.65,2.61,106,1.9l2,.15c2,.41,3.92,1.27,6,1.52,1.48.18,1.77,1.16,1.32,2.46-3.16,2.61-6.62-.42-9.87.54a6.65,6.65,0,0,1-3-.71C101.17,4.86,98.54,5.46,98.83,2.74Z"/><path class="cls-1" d="M81,185c6.67-.72,13.36,2.09,20-.17,1.69-1.22,3.35-1.39,5,.14a4.09,4.09,0,0,1-3.36,1.83C95.42,186.22,87.92,189,81,185Z"/><path class="cls-12" d="M182.87,81c-2.37-4.78-2-10.23-3.83-15.14.7-.56.12-1.85,1.24-2.17,2,.34.57,2.43,1.65,3.24a3.16,3.16,0,0,0,1.12,3c1.15,2.4.46,5.15,1.49,7.58A4.26,4.26,0,0,1,182.87,81Z"/><path class="cls-1" d="M183.86,78.07c-1.17-2.6-.74-5.36-.81-8.07,3.77,4.91,2.41,10.71,2.82,16.2-.59-1.17-1.19-2.34-1.79-3.5C183,81.2,183.41,79.64,183.86,78.07Z"/><path class="cls-1" d="M2.29,102.83c1,5.74,1.47,11.61,3.51,17.15C2.63,116.61.59,106.66,2.29,102.83Z"/><path class="cls-13" d="M185.16,99l-.3,4.79a.66.66,0,0,1-.84.59,3.67,3.67,0,0,1-1.07-.61,12.32,12.32,0,0,1-.9-.87c-.6-.61-1.35-1.06-1.94-1.69-1-3.39,1.78-5,3.42-7.13a2,2,0,0,1,2.72-.06C187.18,95.94,186.17,97.46,185.16,99Z"/><path class="cls-1" d="M36,165.15,48.74,174C42.77,173.51,38.8,170.16,36,165.15Z"/><path class="cls-1" d="M185.16,99c-1-1.85,1.31-3.16.81-4.93-1.34-1.87-2.46-3.76-.94-6.07l.85-1.15C189.16,92,188.89,96.62,185.16,99Z"/><path class="cls-1" d="M184.05,104.2l.81-.43c1.34,4.7,1.76,9.25-2,13.16.08-1.22.15-2.45.23-3.67.78-1.56.3-3.06-.21-4.56C182.68,107.05,182.61,105.43,184.05,104.2Z"/><path class="cls-1" d="M143,170.72l7.93-4.94A12.43,12.43,0,0,1,140,173Z"/><path class="cls-1" d="M78.8,184a7.44,7.44,0,0,1,.42.85c-5-1.42-10.75,0-15.2-3.73l10,1.68C75.88,182.25,77.56,182.26,78.8,184Z"/><path class="cls-1" d="M115.28,5.84C114.07,2.2,109.8,4.47,108,2.05c4.1.56,8.27.83,12,2.94-1,.3-2.3-.53-3.05.78C116.39,6.7,115.84,6.41,115.28,5.84Z"/><path class="cls-1" d="M156,161a8.81,8.81,0,0,0,.28-.87c3.43-1.46,4.68-5.26,7.7-7.16C162.71,157,161.1,160.74,156,161Z"/><path class="cls-1" d="M150,20.72,142,15C145.47,14.92,149.45,17.72,150,20.72Z"/><path class="cls-1" d="M172,45l-4.78-7C169.79,38.39,172.3,42.07,172,45Z"/><path class="cls-1" d="M181.93,67c-.59-1.11-1.18-2.23-1.78-3.34-1.09-.54-1.68-1.3-1.13-2.56-.09-1-.17-2-.26-3C182.51,60.09,182,63.63,181.93,67Z"/><path class="cls-1" d="M167.11,149l4.83-7.05C172.32,144.93,169.81,148.6,167.11,149Z"/><path class="cls-1" d="M164,33.94l-2.81-2.3-3.54-4.49C161.35,27.9,163.71,29.94,164,33.94Z"/><path class="cls-1" d="M178.71,128.85q1.6-4.45,3.2-8.9C181.88,123.28,182.78,127,178.71,128.85Z"/><path class="cls-1" d="M132.86,10.21,125,7C128.6,5.72,131.22,6.78,132.86,10.21Z"/><path class="cls-1" d="M21,150.09A24.12,24.12,0,0,1,26.84,157C22.87,156.4,22,153.17,21,150.09Z"/><path class="cls-1" d="M175.92,52.09,172,45C174.61,46.64,177,48.39,175.92,52.09Z"/><path class="cls-1" d="M10,132A24.54,24.54,0,0,1,13.79,139C10.46,137.8,9.84,135.13,10,132Z"/><path class="cls-1" d="M30.06,159.91,35.8,165C32.46,164.92,30.34,163.45,30.06,159.91Z"/><path class="cls-1" d="M115,182.89c2.11-1.47,4.76-.84,7-1.78C120.33,184.46,117.71,184,115,182.89Z"/><path class="cls-1" d="M112.93,182.87l2,0c-2,1.86-4.49,2.21-7.1,2a1.39,1.39,0,0,1,.15-1.44C109.48,182,111.2,182.35,112.93,182.87Z"/><path class="cls-1" d="M173,140l2.91-5.05C177.6,138.14,175.2,139,173,140Z"/><path class="cls-1" d="M132.69,176.84l6.17-3.11C138.08,177.3,135.15,176.59,132.69,176.84Z"/><path class="cls-1" d="M140,13.9l-5-2.85C137.2,11,139.62,10.63,140,13.9Z"/><path class="cls-1" d="M124.93,7,120,5C122.61,3.3,123.82,5,124.93,7Z"/><path class="cls-1" d="M16.12,142.92c1.5,1,2.06,2.55,2.76,4.05C16.74,146.45,14.71,145.85,16.12,142.92Z"/><path class="cls-1" d="M7.87,125.42l0,1.54c-1.69-1.21-3.59-2.34-1.82-4.85C8.68,122.06,6.84,124.55,7.87,125.42Z"/><path class="cls-1" d="M175.89,134.91l2-4C178.84,133,178.57,134.57,175.89,134.91Z"/><path class="cls-1" d="M51,175.15c2,.43,4,1,5.41,2.67C54.33,177.46,51.93,177.79,51,175.15Z"/><path class="cls-1" d="M155,25l-3.1-2.94C153.7,22.19,156.31,21.51,155,25Z"/><path class="cls-14" d="M108.34,184l-.51.84L106,185l-5-.14a8.7,8.7,0,0,1,0-.89A5.54,5.54,0,0,1,108.34,184Z"/><path class="cls-1" d="M166.84,37.28A6.86,6.86,0,0,1,164,34C167.32,33,166.42,35.73,166.84,37.28Z"/><path class="cls-15" d="M7.87,125.42c-1.54-.58-.17-2.81-1.87-3.31-.53-.41-1-.83.08-1.14H7c1.69,0,1.68.8,1,2Z"/><path class="cls-1" d="M14.12,139.92a3.9,3.9,0,0,1,2,3C15.23,142,12.26,142.59,14.12,139.92Z"/><path class="cls-1" d="M152.89,163.92,155,162c.21.72.93,1.45.12,2.18S153.61,164.13,152.89,163.92Z"/><path class="cls-1" d="M28,158.13c1.17,0,1.61.92,2.08,1.77-.7.24-1.36.95-2.14.31S27.71,158.82,28,158.13Z"/><path class="cls-1" d="M128,178.94c.65-1.15,1.87-.88,2.88-1.12C130.85,180.54,129.38,179.59,128,178.94Z"/><path class="cls-1" d="M124.84,179.89c.78-1.17,2-.82,3.1-.91C127.65,181.82,126.09,180.33,124.84,179.89Z"/><path class="cls-16" d="M6.15,67c6.56-23.23,20.91-40.37,41.27-52.83,7.9-4.83,16.54-7.83,25.46-10,1.17-.29,2.72.66,4-.49,1,.33,2.08.46,2.38,1.72-1.37,2.68-4,2.57-6.44,2.89-2.16.29-4.14,1.14-6.23,1.63-7.66,1.09-13.38,6.26-20,9.56-5.81,3.66-10.81,8.31-15.82,13-2.44,2.29-4.79,4.66-7.1,7.08a28.47,28.47,0,0,0-4,5.9c-1.12,3.09-3.67,5.45-4.43,8.73a10.61,10.61,0,0,1-.49,2c-1.25,2.45-2.16,5.07-3.63,7.42-1,1.23-1.42,3-2.94,3.83A1.78,1.78,0,0,1,6.15,67Z"/><path class="cls-17" d="M8,67c1-1.17.61-3.07,2.12-4,1.09,1.12,1,2.47.78,3.85C9.39,72.64,7.61,78.33,7.07,84.3a6.84,6.84,0,0,1-1.88,3.19c-.86.81-1.58,1.93-3.05,1.37.06-1.59.11-3.18.17-4.77C3.6,80,2.64,75.49,4.8,71.58c1.22,1.22.58,2.54.49,3.61C6.18,72.68,5.11,69.15,8,67Z"/><path class="cls-18" d="M81,1.91,87,2a1.83,1.83,0,0,1,.28,2.18,4.24,4.24,0,0,1-4.86,1.3c.31-2.94-3-.9-3.57-2.56Z"/><path class="cls-19" d="M8,67,5.52,76c-1.18-1.34-.18-3-.72-4.37-.44-1.79,1.2-3,1.35-4.57Z"/><path class="cls-20" d="M78.8,2.93a18.51,18.51,0,0,0,2.46.12c2.67-.24,1.63.86.73,1.93a1.93,1.93,0,0,1-2.8.13,2.72,2.72,0,0,1-2.35-1.42C77.26,2.84,78.05,2.94,78.8,2.93Z"/><path class="cls-21" d="M86.94,3.93c0-.64,0-1.28,0-1.92,3,.86,6-2.55,9,0-1.15,1.87-3.74,2-4.78,4-.4.73-.75,1.47-1.1,2.22-.16.39-.35.77-.54,1.14-.39.79-.76,1.58-1.22,2.33-.69,1-1.48,1.86-2.89,1.52-2.23-1.22-4.46-.69-6.65.06a29.52,29.52,0,0,1-8.24,1.08c-3,.8-6.17.42-9.23,1.5-2.6.92-4.34-.23-2.65-3.39,2.33-1.57,4.69-3,7.64-3a111,111,0,0,1,17.65-4A6.24,6.24,0,0,0,86.94,3.93Z"/><path class="cls-22" d="M90.08,6.06c.66-3.21,3.6-3.11,5.85-4l2.9.69c.81,1.91,3.19.71,4.25,2.14-.38,1.22-.39,2.59-1.37,3.59a3.7,3.7,0,0,1-2.65.35,4.25,4.25,0,0,1-1.23-.55,5.52,5.52,0,0,0-5.17-2A4.3,4.3,0,0,1,90.08,6.06Z"/><path class="cls-23" d="M2.14,88.86,4.06,87c1.1-.39,1.75.17,2.25,1a4.06,4.06,0,0,1-.69,2.62C4,94.4,5,96.58,9.35,96.75A9.72,9.72,0,0,1,11.5,97c2.27.87,2.49,2.19.89,3.93-2,1.91-1.58,4.88-3,7.06a3.9,3.9,0,0,1-4.11,1c-.27-1.1-.47-2.2.51-3.1C7.38,104,5.26,102.63,5,101c-.68-1.06-1.4-2.08-2.89-1.93C2.13,95.66,2.13,92.26,2.14,88.86Z"/><path class="cls-24" d="M45,168c-2.55-.52-4.05-2.55-5.92-4.06.3-1.11,1.28-1.44,2.37-2-9.47-6.15-16.2-13.89-15.61-26,2.09-.79,3.1.77,3.95,2.08,1.88,2.91,4.33,5.4,6.08,8.39.62,4.32,2.36,7.54,7.43,7.43,4.35,2.44,8.94,4.56,12,8.77a4.64,4.64,0,0,1-2.3,2.62c-2,.32-4.31-.26-5.48,2.29A1.6,1.6,0,0,1,45,168Z"/><path class="cls-25" d="M5.29,109A5.12,5.12,0,0,1,9,108c3,.5,4.51,2.73,5.57,5.18a11.92,11.92,0,0,0,3.73,4.54A5.41,5.41,0,0,1,19,119c1.07,2.87.54,5.94,1.08,8.88s-1,4.92-3.53,5.83c-3.09,1.11-2.35-2.42-3.69-3.51-.36-.29-.55-.82-.91-1.18l-3-6c-1.58-4-1.93-8.23-2.76-12.37Z"/><path class="cls-26" d="M26.08,135.8c1.33,4.87,2.86,9.71,3.91,14.64.63,2.95,3.55,2.55,5.09,4.24,2.1,2.32,3.38,6.25,7.83,5.6.91-.13,1.06,1.13,1,1.95s-.53,1.71-1.57,1.28A3.69,3.69,0,0,0,39,164c-3.89-3.1-8.1-5.84-11-10a10.24,10.24,0,0,0-2.88-3.09L24,149.05a1,1,0,0,1-.34-.79c0-.3.07-.45.13-.45,2.33-4.41.29-8.08-2-11.71a1.88,1.88,0,0,1,.23-1.39,3.25,3.25,0,0,1,2.83-.52A1.65,1.65,0,0,1,26.08,135.8Z"/><path class="cls-27" d="M11.93,129c2.05.62,2.11,2.86,3.29,4,6.42-2,2.54-7.14,3.25-10.89a12.49,12.49,0,0,0-.31-3.4c4.47,3,4.47,8.36,6.74,12.51.27,3-1.68,2.94-3.74,2.69-1.41,1.14.42,1.52.54,2.3a6.84,6.84,0,0,1,2.84,4.4c.31,1.63-.07,3.45-1.66,4.24s-2-1.16-3-1.86A41.76,41.76,0,0,1,11.93,129Z"/><path class="cls-28" d="M45,168c2.63-1.13,3.69-6.42,8-3a2.81,2.81,0,0,1,1.72,1c1.83,2.68,4.93,2.49,7.56,3.37a2.17,2.17,0,0,1,1.2,1.61,2,2,0,0,1-.49,1.26c-3-.76-5,2.48-8,1.79C51.52,172.21,47.87,170.74,45,168Z"/><path class="cls-29" d="M63,172v-1c2.48-1.39,4.58-.12,6.69,1,.74.53,1.12,1.6,2.28,1.53a4.11,4.11,0,0,1,1.16,0,2,2,0,0,1,1.49,1.8c-.6,1.94,1.63,3.71.35,5.69-4.45.09-8.12-2.24-12-3.9C61.77,175.32,61.44,173.64,63,172Z"/><path class="cls-30" d="M75,180.91c-.5-1.95-3.14-3.55-1-5.94a3.07,3.07,0,0,1,2-.95c3.66,1.34,8.87.08,9.91,5.86.22,1.21,1.17,2.49-.36,3.51-2.83-.5-5.9.29-8.5-1.52Z"/><path class="cls-31" d="M19.87,143c1.16-.18,1.84,2.39,3.2.66a3.07,3.07,0,0,0,.46-3.61c-.82-1.38-1.71-2.71-2.56-4.06a.63.63,0,0,1,1-.05c5.22,2.18,2.79,7.57,4.56,11.21.26.53-1.58.73-2.55.77a12.13,12.13,0,0,1-2.88-2Z"/><path class="cls-32" d="M63,172l0,5c-2.71-.87-5.56-1.34-7.94-3C57.4,172.18,59.51,169.34,63,172Z"/><path class="cls-33" d="M77.05,181.87l9,1,.5-.24.31.45c-2.52,1.78-5.44,0-8.06.9l-4.74-1.2C74.81,181.73,76,182,77.05,181.87Z"/><path class="cls-34" d="M6.15,110.64A57.51,57.51,0,0,1,8.91,123L8,122.94a2,2,0,0,0-1-2C7.56,117.45,5.29,114.17,6.15,110.64Z"/><path class="cls-35" d="M25.11,150.89A2.92,2.92,0,0,1,28,154,5.77,5.77,0,0,1,25.11,150.89Z"/><path class="cls-24" d="M21.13,145.91A3.25,3.25,0,0,1,24,148l-.06,1.1A6.62,6.62,0,0,1,21.13,145.91Z"/><path class="cls-36" d="M169,67c.05,1.1-.11,2.26,1,3,3.05,2.62,2.6,6.28,2.88,9.72-.44,1.53-.55,3.2-1.8,4.4-2.57-.28-2.18-2.54-2.66-4.12-.91-3-1-6.18-2.37-9-1.19-1.67-1.14-3.76-1.86-5.58a75.57,75.57,0,0,0-11.7-20C148,39,141.76,34.59,135.57,30.11c-2.11-1.53-4.78-2.45-5.89-5.15a1.69,1.69,0,0,1,1.23-1.6c3-.49,4.87,1.7,7.21,2.81a86,86,0,0,1,15.22,13,30.84,30.84,0,0,1,3.52,4.13A32.4,32.4,0,0,0,159,46C163.13,52.62,168,58.87,169,67Z"/><path class="cls-37" d="M169,67c-2.39-7.67-7.29-14-11-21,4.48-1.73,6.31,1.84,8.66,4.35a8.57,8.57,0,0,1,1.61,1.33,3.36,3.36,0,0,1,.52,1.25c.55.78-1.72,2.44.82,2.59L170,56C168.27,59.54,169.11,63.33,169,67Z"/><path class="cls-38" d="M171.92,80c-.66-3.33-1.31-6.67-2-10,.19-1.31.72-2.24,2.25-1.74,1.24.4,1.58,1.46,1.77,2.66.31,2-.81,4.28,1,6,1.76,2.51,2.9,5.56,6,6.94.3.44.61.87.91,1.3a3,3,0,0,1-1.29.74c-2.47.35-5,.38-7.44.71l-.76-.17a1.81,1.81,0,0,1-1-1.13C171.57,83.59,171.15,81.75,171.92,80Z"/><path class="cls-39" d="M180.94,83.92c-4.35-.27-6.46-2.49-6-6.94,0-1.6,0-4,1.73-3.88A3.43,3.43,0,0,1,180,77.15C179.56,79.47,180.43,81.69,180.94,83.92Z"/><path class="cls-40" d="M168,53c0-.3,0-.61-.05-.91a4.27,4.27,0,0,1,.45-1.79c.52-1.1.49-2.47,1.59-3.3,3.19,5,6.42,9.92,7,16-2.42-2.26-2.86-6.51-7-7h0C168.61,55.44,168.63,54,168,53Z"/><path class="cls-41" d="M172,86.21l1.17,0c2.52-.8,5.3.46,7.74-1a2.49,2.49,0,0,1,1,0l2.06,2.8c.35,2.25-1.47,2.26-2.83,2.75a4.73,4.73,0,0,1-2.83-.72,5.17,5.17,0,0,0-5.21,0c-1.38.65-2.8,1.1-4.23,0C168,87.29,169.39,86.29,172,86.21Z"/><path class="cls-42" d="M180.89,90.08l3-2.06L185,88q.47,3,.94,6.07a1.9,1.9,0,0,0-2.11.77c-.45.76-1.12.75-1.85.51a3.15,3.15,0,0,1-.85-1.13C180.8,92.85,180.29,91.5,180.89,90.08Z"/><path class="cls-43" d="M183.86,78.07c.07,1.55.15,3.09.22,4.63L183.51,84c-1.11-.78-.31-2-.64-2.92C183.06,80,182.72,78.79,183.86,78.07Z"/><path class="cls-44" d="M179,61.07c.38.86.75,1.71,1.13,2.56L179,65.9,178,63C178,62.17,178.15,61.42,179,61.07Z"/><path class="cls-45" d="M115.28,5.84l1.6-.07C120,9.7,125.37,9.11,129,12c.14.1.28.18.4.28,1.59,1.34,5.07,1.62,3.7,4.73-1.27,2.87-3.94,1.28-6.09.83a15.78,15.78,0,0,0-1.9-.43c-4.67.57-8.68-2.26-13.25-2.54a24,24,0,0,0-6.23.12,3.89,3.89,0,0,1-2.9-.86,2.91,2.91,0,0,1-.23-2.92c1.73-2,3.87-1.25,6-.9,2.85.48,5.68,1.27,9.62.65-4.42-2.31-8.64-2.3-12.2-4.13a2.48,2.48,0,0,1-1-1C108.35,3.63,111.81,7.14,115.28,5.84Z"/><path class="cls-46" d="M142.07,18.93a3.54,3.54,0,0,1,3,2,61,61,0,0,0,10.08,8l2,2c-1.92.85-5,.63-4,4.22a2.73,2.73,0,0,1-1.39.4c-5.35-3-10.49-6.23-12.81-12.39C139.08,21.12,138.18,18.2,142.07,18.93Z"/><path class="cls-47" d="M153,35c-.49-1.47-2.92-2.61-1.48-4.29,1.63-1.91,3.68.42,5.59.24L159.92,33,164,39c-1.8,3.2-2.13,3.26-6.38,1.22C155.52,39,153.37,37.75,153,35Z"/><path class="cls-48" d="M142.07,18.93c-3.24.64-1.71,3.25-2.09,5.07a2,2,0,0,1-1.84.68c-2.88-1-1.18-2.71-.6-4.2-.23-.86-.32-.06-.35.07a1.19,1.19,0,0,1-.33.72c-4.17-.58-8.41-.89-12.12-3.18A1.77,1.77,0,0,1,125,16c.32.05.65.1,1,.13,2.13.21,4.64,3,6.2.63,1.45-2.24-2.89-2.55-3.18-4.75C134.07,13,138.11,15.86,142.07,18.93Z"/><path class="cls-49" d="M155.1,28.92c-4.7-1-7.72-4.09-10.08-8A28.13,28.13,0,0,1,155.1,28.92Z"/><path class="cls-50" d="M173,135c-.66,1-1.32,2-2,3-1-1.11.08-3-1.45-3.88-.05,0-.23.15-.34.23.64.18-.74.6-.06.43-.24.33-.25.36.06.13a.7.7,0,0,1,.48-.12c1.36.71.3,2.38,1.31,3.21-1.17,3-2.44,5.87-5,8-1.8.48-2.44,2.06-3.36,3.43a10,10,0,0,1-10.59,4.6c-1-2.8,1.35-4,2.69-5.68s2.86-3.27.83-5.44c-.43-3.15,1.58-4.75,3.89-6.17,2,.56,1,3.92,3.67,3.79.76.14,1.63.61,2.19-.2.44-.64-.23-1.16-.64-1.63a7.35,7.35,0,0,1-1.36-1.95c-.52-1.93-.1-3.9,1.51-4.79,2.73-1.52,3.55-4.07,4.56-6.62A4.54,4.54,0,0,1,173,123c2.81-.25,4.09,1.36,2.77,3.81A20.09,20.09,0,0,0,173,135Z"/><path class="cls-51" d="M181.91,109.9c-1.65,3.51-1,7.65-3,11.07-1.14,2.2-3.18.66-4.74,1.17-.87.14-1.77.45-2.55-.29-.69-1.37-.06-2.7.12-4a12.34,12.34,0,0,1,.3-1.34,23,23,0,0,0,1.31-7.33c0-1.78-1.61-.48-1.87-1.39-1.11-2-.73-4.2-1.12-6.29a4,4,0,0,1,.2-1.45,4.45,4.45,0,0,1,2.76-2.28c2.16,1.07,2.42,3.41,3.48,5.21.76,2-.12,4.31,1,6.31,1.95-.43,1.37-4.77,4.67-2.91A2.89,2.89,0,0,1,181.91,109.9Z"/><path class="cls-52" d="M174,121c1.64-1.6,3.32,1.57,5,0-1.81,4.74-2.84,9.82-6,14-1.91-2.3,0-4.6.2-6.86.09-1.17,3.61-1.84,1.85-3.61s-3.64-.07-5,1.49c-1.2-2-.74-3.38,1.71-3.57A2.75,2.75,0,0,0,174,121Z"/><path class="cls-53" d="M152.05,153.92c4.11-1.45,9.26-1.19,10.73-6.95a2.09,2.09,0,0,1,3.23-1c-1.91,4-5.12,6.86-8.19,9.86-1.08-.39-2.1.35-3.17.17s-2.28-.22-2.84-1.45Z"/><path class="cls-54" d="M155,155c1,.05,2.13-.21,2.83.87L155,159.09l-5.06,3.74a9.11,9.11,0,0,1-2.58-1.81c-.94-1.44-.64-2.43,1.09-2.76,1.25-.24,2.57-.12,3.66-.93A20.82,20.82,0,0,1,155,155Z"/><path class="cls-55" d="M181.91,109.9,182,106c-.79-1.33-1.21-2.54.9-3l.22,0c1,1.84-.25,4,.8,5.83.09,1.52.51,3.11-.8,4.38C182.87,112.08,183.19,110.71,181.91,109.9Z"/><path class="cls-56" d="M153,35c1.89,1.06,2.68,3.47,5,4,1.81,4.23,5.22,1.89,8,2,2.26,1.39,2.7,4,4,6-.15,1.38.4,2.9-.83,4.05-1.13-.09-2.33.09-3.27-.78-1.7-4.62-6.35-4.56-9.89-6.25l-3-4c-.25-1.68-1.63-3.14-1-5Z"/><path class="cls-57" d="M166,41c-4.11,2.82-6,2.35-8-2,2,1.51,4,2.7,6,0A3.18,3.18,0,0,1,166,41Z"/><path class="cls-58" d="M140.09,169.18a3.22,3.22,0,0,0,0,.82c-4.46,3.27-9.55,5.27-14.66,7.22-.76.28-2.13.71-2.31.45-2-2.88-1.92.06-2.77.79-.54.46-1.56.36-2.36.51a29,29,0,0,0-8.18-3.63,3.57,3.57,0,0,1-1.59-2.51,3,3,0,0,1,.68-2.17,137.52,137.52,0,0,1,16.45-5.28c1.69,1.24,3.44,2.24,5.6,1.13a2.59,2.59,0,0,1,1.31.29,3.52,3.52,0,0,1,1,1.06c.79,1.44,1.55,2.72,2.71.26C137.52,167.8,139,167.68,140.09,169.18Z"/><path class="cls-59" d="M109.94,174.94c3.4-.1,6.63.15,8,4-2.29,2.08-5.71,1-8.08,2.89-2.34,1.72-5.16,1-7.73,1.46a3,3,0,0,1-1.17-2.75,10.37,10.37,0,0,1,1-3.53c1.71-3.16,4.91-1.16,7.27-2.09Z"/><path class="cls-60" d="M102,183a26.46,26.46,0,0,1,7.91-1.13c1,.2,2.3-.18,3,1-1.48.59-3.35-.36-4.6,1.15L101,184l-1-.92A1.24,1.24,0,0,1,102,183Z"/><path class="cls-61" d="M102,183l-2,0c-1.87-2.16-3.09.34-4.59.68-1.72.38-2.17-.05-1.37-1.64a4.75,4.75,0,0,1,1.45-2,2.89,2.89,0,0,1,2.33-.73c1.34.45,2.86-.18,4.15.62Z"/><path class="cls-62" d="M88.92,179.08c.07,1.73.46,3.63-2.06,4l.13-.21c-1.24-2-1.32-4.22-1.23-6.47a3.21,3.21,0,0,1,1.61-2.65c2.33.86,1.63,2.83,1.66,4.54C89,178.58,89,178.83,88.92,179.08Z"/><path class="cls-63" d="M95.67,180.91c-.16.91-.93,1-1.61,1.17-1.82-.39-3.61-.82-4.27-2.91a2.08,2.08,0,0,1,1-.93,4,4,0,0,1,2.73.14A4.72,4.72,0,0,1,95.67,180.91Z"/><path class="cls-64" d="M91.19,178.93l-1.4.24a2.58,2.58,0,0,0-.87-.09l0-.08c-.36-2.18-1.64-4.76,2.25-5A3.93,3.93,0,0,1,91.19,178.93Z"/><path class="cls-65" d="M5,101c1.07,1.51,3.3,2.83.79,4.92C5.53,104.27,5.27,102.63,5,101Z"/><path class="cls-66" d="M148.8,163.93a28.18,28.18,0,0,1-7.82,5,3.29,3.29,0,0,1-.92-2.05,4,4,0,0,1,3-3.85,12.31,12.31,0,0,1,3.47-.53A3.12,3.12,0,0,1,148.8,163.93Z"/><path class="cls-67" d="M141,167c0,.65,0,1.3,0,2a4.72,4.72,0,0,1-.89.25l-5.06-.27a2.8,2.8,0,0,1-1-2.63,4.13,4.13,0,0,1,.5-1.36,4,4,0,0,1,3.19-1.35C139.59,164,140,165.7,141,167Z"/><path class="cls-68" d="M148.8,163.93a1.88,1.88,0,0,1-1.87-1c-.6-1.14-.57-2,1-2,1.21.06,2,.59,2,1.9Z"/><path class="cls-69" d="M104.88,5.83,106,6c1.72,1.58,5.82,1.83,4.77,4.72-.63,1.73-4-.79-6.32-.47-.6.09-1.18-.54-1.67-1A3,3,0,0,1,102,8c-1-1.46-.39-2.42,1-3.07Z"/><path class="cls-70" d="M176,103c-2.11-1-1.53-3.61-3-5-1,.24-1.3-.21-1.06-1.14,3.28-.92,6.85-.31,10-1.84l1.89-.16c-.4,2.33-4.06,3.16-2.85,6.23,1.08,2.26.86,4.43-1.63,5.23S176.88,104.36,176,103Z"/><path class="cls-71" d="M176,103c1.37.61,1.44,3.44,3.66,2.44,1.84-.83,1.22-2.81,1.38-4.38,1.33,0,2,.62,1.85,2-1.07.76-.84,1.92-.9,3-1.61.69-2,2-2,3.65,0,1.32-.5,2.27-2,2.2s-1.89-1.09-1.9-2.38Q176,106.23,176,103Z"/><path class="cls-72" d="M183.88,108.88c-1.73-1.75-.62-3.88-.8-5.83.33.38.65.77,1,1.15C184,105.76,183.94,107.32,183.88,108.88Z"/><path class="cls-73" d="M14,53.92c.68-3.54,3.49-5.91,4.91-9.05l.61.27c1.42,1.31,2.75,3.1,4.76.78,2.27-1.74,2.51-5.42,5.84-6.15a5.14,5.14,0,0,1,2.74,3.93,4.4,4.4,0,0,1-.27,1.39c-2.07,3.3-4.95,6-6.65,9.61C23.5,58.16,22.2,62.12,20.78,66a7.31,7.31,0,0,1-1.73,3.17,1.43,1.43,0,0,1-1.4-.27A14.28,14.28,0,0,1,15.9,63.2a11.29,11.29,0,0,1,1-5.06,11.14,11.14,0,0,1,1-1.85,4.53,4.53,0,0,0,.51-4.16c-1.64.09-2.12,1.63-3.29,2.14A1,1,0,0,1,14,53.92Z"/><path class="cls-74" d="M30,32A60.3,60.3,0,0,1,45.9,18.92a.83.83,0,0,1,1.19-.06c-1.3,4.53-6.14,5.46-8.75,8.6-.11.64-.71-.08-.19.32.68.52.87-.51,1.39-.62a2.72,2.72,0,0,1,3.65.78c-.24,2.67-2.45,3.53-4.42,4.1-2.4.69-3.5,2.34-4.48,4.3a3.34,3.34,0,0,1-3.69,1.28c-2-1.34-.18-3-.37-4.49C30.17,32.76,30.1,32.38,30,32Z"/><path class="cls-75" d="M47,19.07l-1.11-.15c6.32-4.1,12.31-8.85,20.13-9.86.33.25.42.46.27.64a.52.52,0,0,1-.4.25C63.3,10.3,61.28,12,59,13a4.11,4.11,0,0,0-2.07,3.11c1.78.2,3.6-.21,5.21.78-2.86,3.75-5.13,4.28-10.84,2.55C49.88,19.19,48.38,19.75,47,19.07Z"/><path class="cls-76" d="M14,53.92a2.76,2.76,0,0,0,.86-.13c1-.77,2.08-2,3.36-.72,1,1,1.85,2.3.73,3.84L18,58c-1.55,1.28-1.51,3.1-1.61,4.87-.34.83-.49,1.77-1.33,2.32-3.45-.89-1.45-3.68-2-5.59,0-1.28.78-2.37.82-3.63Z"/><path class="cls-77" d="M65.9,10a2.49,2.49,0,0,0,.13-.9c4-2.48,9.1-1.52,13.16-3.94L82,5c1.81.39,3.28-.8,5-1.05C85.24,7.25,81.73,6,79.1,6.87,74.83,8.28,70.32,9,65.9,10Z"/><path class="cls-78" d="M13.93,56c1.35,1-.18,2,.09,3-1.95,2.41.58,6.68-3.44,8.22l-.68-.29c.06-1.29.13-2.59.19-3.89Z"/><path class="cls-79" d="M30,32l1,.11c-1.31,3.74-3.28,6.77-7.64,7.34L22.8,39A41.07,41.07,0,0,1,30,32Z"/><path class="cls-73" d="M18.86,44.87A13.84,13.84,0,0,1,22.8,39l.43-.08c.85,1.48.14,2.76-.54,4-.87,1.18-1.77,2.32-3.48,2.14Z"/><path class="cls-78" d="M6,85c-.26-6.35,1.86-12.19,3.92-18l.18.12c1.67,1.48,1.32,4.26,3.52,5.4A4.17,4.17,0,0,1,14,74.59c-1.28,3.11-1.32,6.56-2.71,9.64C9.61,85.3,8,86.33,6,85Z"/><path class="cls-80" d="M6,85l4.94-.91c1.07,0,2,.18,2.31,1.36C11.4,88,8.69,87.94,6,87.93L4.06,87Z"/><path class="cls-81" d="M90.08,6.06l2-.84c.86.71,2,1,2.59,2.11A5.68,5.68,0,0,1,95.23,9c.36,15.15,0,30.29.17,45.43,0,.63,0,1.26,0,1.89,0,3.93,0,7.85-.06,11.78,0,1.78.12,3.64-1.4,5-3.16-1.24-2.31-4.08-2.32-6.37-.1-14.14-.06-28.27-.06-42.39-.25-4.77.8-9.61-.58-14.33-.66-.62-1.23-1.33-1.84-2Z"/><path class="cls-82" d="M70.19,13.1a22.31,22.31,0,0,0,9.75-1.59c2.29-.95,4.57-1.2,6,1.48.91.5,1.57,1.09.93,2.24-2.64.6-5.49.15-8,1.57a15,15,0,0,1-2.07.55c-2.81.8-5.73.95-8.59,1.47-2.26.11-2.63-2.58-4.51-3C65.27,13.35,68.56,15.22,70.19,13.1Z"/><path class="cls-77" d="M70.19,13.1c-1.27,2.77-4.59,1-6.28,2.85a1.87,1.87,0,0,1-2,1c-2.14,0-4.33-.17-6.28,1.6-.56-3.06.56-4.77,3.32-5.49-.93,1.8.91,3,1.49,2.28C63.3,12,67.26,15,70.19,13.1Z"/><path class="cls-83" d="M86.8,15.24,86,13l1.92-2c2.54,1.15,2.36,3.2,1.8,5.38-.71,1.25-1.6,1.06-2.56.32A1.39,1.39,0,0,1,86.8,15.24Z"/><path class="cls-84" d="M88.93,17c.13-2.09.25-4.18-1-6,.08-.81.17-1.61,1-2,1.61,1,2,2.59,2.24,4.32C90.89,14.76,91.57,16.86,88.93,17Z"/><path class="cls-85" d="M90,12.91c-.36-1.33-.72-2.66-1.09-4a3.75,3.75,0,0,1,.22-.86,1.86,1.86,0,0,1,2,.93C91.89,10.62,92.68,12.25,90,12.91Z"/><path class="cls-86" d="M102,8c.25.08.51.14.77.2,1.07.85.78,1.82.26,2.81l0,3c-2.54-.1-1.76-1.64-1.39-2.94-1.12,1.75-1.16,4.72-4,4.94-1.5.11-1.37-1.49-1.24-2.66.86-1.71,1.23-3.67,2.55-5.15Z"/><path class="cls-87" d="M94,7c-1.14-.06-1.9-.52-1.89-1.79C94.63,5,97.3,4.49,98.15,8l-.57.32C96.19,8.39,95.23,7.29,94,7Z"/><path class="cls-88" d="M98.9,8.15c.2,1.94.22,3.82-1.82,4.94l-.49-.51A4.85,4.85,0,0,1,97.76,8h.39A2,2,0,0,1,98.9,8.15Z"/><path class="cls-89" d="M11,98.06,8.85,98c-1.95-1-4.18-1.77-3.63-4.7.29-.81.77-1.67,1.7-1.43,5.53,1.42,11.16.33,16.73.77a11.13,11.13,0,0,1,2.5.39c.31.09.64.17,1,.29,1.68.63,4.89-.16,4.57,2.36-.26,2.09-3.32,1.46-5.25,1.6a19,19,0,0,0-4.45.4c-1.23.3-2.46.59-3.7.78C15.81,99,13.57,95.93,11,98.06Z"/><path class="cls-65" d="M18,118c-1.85-.3-3.68-.73-4-3-.41-3.3-3.47-4.62-5.06-7,.12-2.79.17-5.6,2.23-7.84a7,7,0,0,1,1.14,1.8c.22,4.72,3.22,8.14,5.62,11.84C18.69,115.18,19.28,116.58,18,118Z"/><path class="cls-90" d="M11.07,102l.15-1.81c.69-.27,1.57-.52,1.3-1.44-.1-.33-1-.44-1.51-.64,2.27-4.11,4.65-.72,7-.1a1.6,1.6,0,0,1-.49,1.79c-2.12,2.5,1.44,6.2-1.8,8.46C12.76,107.16,14.57,102.59,11.07,102Z"/><path class="cls-91" d="M6,87.93c1.9-2,5-1.1,7-2.94a2,2,0,0,1,2.09-.43A3.8,3.8,0,0,1,16.7,86c1.19,2.58.4,3.74-2.46,3.47-2.28-.22-4.59-.7-6.7.72a2.67,2.67,0,0,1-2.09.17l-.54-.47Z"/><path class="cls-91" d="M5.82,94.21c0,2.11,2.18,2.43,3,3.83-5.11-.71-6.53-3.65-3.94-8.11l.19.14C6.33,91.28,5,92.93,5.82,94.21Z"/><path class="cls-92" d="M16,108c-.38-2.29.57-4.66-.88-7-.88-1.41,1.13-1.39,1.87-2,2.18,1.35,3,3.42,3.2,5.86,1.73,18.81,10.26,34,24.5,46.22,7.44,6.62,16.27,10.77,25.46,14.26,5,1.9,10.58.95,15.55,3a2,2,0,0,1,.78,2.09,2,2,0,0,1-1,1.18c-1.77.73-3.64.55-5.49.59a8.66,8.66,0,0,1-4.46-1,16.29,16.29,0,0,0-7.66-2.07c-4.67-1.21-9.47-2.17-12.76-6.22l-12-8c-3.8-1.51-5.89-4.78-8.13-7.89l-8.9-11.19c-.31-.29-.62-.58-.94-.86-1.24-.79-.27-2.26-1-3.21l-6-13A1.23,1.23,0,0,0,18,118c.32-1.51-.48-2.72-1.06-4C16.7,112,14.74,110.23,16,108Z"/><path class="cls-93" d="M55.1,162.92c4.32,1.54,8.17,4.23,12.75,5.12,1.87.61,4,.64,5.55,2,.85,1.78.15,3-1.41,3.91h0c-1.14.62-1.44-.46-2-1l-7-2-1-1c-2.74-1.2-6.26-.82-8-4-.32-.34-.65-.67-1-1C53,163.6,53.81,163,55.1,162.92Z"/><path class="cls-94" d="M35,147a51.87,51.87,0,0,1,8.13,7.89C37.25,155.5,35.39,152,35,147Z"/><path class="cls-95" d="M22,136,21,136c-1.17-.16-2.58-.43-2.61-1.74,0-1.68,1.6-1.15,2.63-1.31.77.45,1.57.88,1,2Z"/><path class="cls-31" d="M22,135l-1-2c.65-1.44,3.23,2,3.17-1.24,1.14.82.75,2.11,1,3.21Z"/><path class="cls-24" d="M54,166c2.25,2.18,5.64,2.07,8,4C58.87,169.55,55.16,170.29,54,166Z"/><path class="cls-96" d="M50.64,169.05c-.5-.34-1.12-.53-1.2-.85-.23-.84.44-1.18,1.13-1.11a1.29,1.29,0,0,1,.89.85C51.48,168.26,51,168.61,50.64,169.05Z"/><path class="cls-97" d="M72,174A6.63,6.63,0,0,0,73,170c1-.67,2-1,2.94.21,1.13,1.14,2.58.67,3.92.8a.71.71,0,0,1,.41.68c0,.28-.07.43-.15.43-1.26,1.09-3.38,1-4.11,2.83H74A2.07,2.07,0,0,0,72,174Z"/><path class="cls-97" d="M70,173l2,1c-.19.69-.13,1.83-1.24,1.44S70.09,173.85,70,173Z"/><path class="cls-98" d="M76,175c-1.71-5.12,2.62-2.15,4.07-3,1.82-.88,3.73-.34,5.6-.36,1.45,1.14.17,2.53.34,3.79-.18,1.58.4,3.32-1,4.61C83.63,175.33,78.92,176.75,76,175Z"/><path class="cls-99" d="M85,180c0-1.67,0-3.35,0-5,1.14-.67,1.45.35,2,1q0,3.5.08,7l-.47.06-.47-.06C85.69,181.93,85.33,181,85,180Z"/><path class="cls-100" d="M153.15,44.92A53.37,53.37,0,0,1,165,65c.62,1.09,1,2.48-.3,3s-2.19-.85-2.63-1.85c-2.56-5.82-6.43-10.79-10-16C148.94,45.71,145,42.27,140.77,39c-1.36-1.07-2.56-1.35-4-.45-2.23.38-3.74-1.09-5.4-2.13-3.12-1.94-6.22-3.87-10-4.26-7.45-3.4-15.51-4.72-23.35-6.79a2.13,2.13,0,0,1-.42-2.11c5.46-3,10.85.18,16.28.21,1.53,0,3,1.75,4.6.12,2.27-.88,4.29.1,6.22,1C135.44,29.55,145.39,35.72,153.15,44.92Z"/><path class="cls-101" d="M98,22.94v2.11c1.18,1.33,1.26,3,1.28,4.61,0,1.08,0,2.15,0,3.23,0,.83,0,1.65,0,2.48-.08,1.71,0,3.48-1.53,4.71a1.2,1.2,0,0,1-1.46-.66c-1.4-6.15-.56-12.37-.54-18.56,1.19-4.16,3.76-6.2,8.22-5.27a24.44,24.44,0,0,1,5.49,1c7.2,1.9,14.85,2.71,20.51,8.39,7,4.73,14.2,9.27,20,15.59,1.22,1.33,2.8,2.41,3.18,4.36a103.38,103.38,0,0,0-27.21-18.44c-2.54-1.21-5.07-2.45-8-2.47l-.7,0c-3.2-.5-6.23-1.9-9.54-1.72C104.53,22.93,101.07,19.72,98,22.94Z"/><path class="cls-102" d="M137,38c.52-2.7,1.93-2.16,3.51-1A71,71,0,0,1,161.39,62.7c.65,1.32,1.27,2.93,2.39,3.68,2.2,1.47.64-1,1.21-1.42,1.93,1.22.29,3.82,2,5.14,2.18,4.31-2.32,1.87-3.17,3.13-2.49-.47-2.48-3-3.78-4.47-1.32-1.87-1.34-4.37-3-6.08-4.15-9.19-10.85-16.24-18.71-22.31C137.54,39.78,136.58,39.26,137,38Z"/><path class="cls-103" d="M164,73c.57-.38-1-2.93,1.19-1.44,2.9,2,1.36-.81,1.8-1.45,2.57,4.34,2,9.55,3.92,14.07.63.33.54,1.12,1,1.56l.09.47c-1.16,1.1-3.11,1.58-2.92,3.73a2.76,2.76,0,0,1-1.3,1,7.12,7.12,0,0,1-5.45-.42L162,90.1c5.27-4.08,2.36-9.09,1.6-13.86C163.39,75.12,163,74,164,73Z"/><path class="cls-104" d="M152,35c.92,1.55,2.67,2.93,1,5L138,27c-1.37-1-1.82-2,0-3h2C143.09,28.63,147.67,31.67,152,35Z"/><path class="cls-105" d="M138,24a2.76,2.76,0,0,0,0,3c-2.62-.31-4.17-3-6.87-3.11-3.3-1.26-7-1.71-9.34-4.83.83-1.12,1.83-1.72,3.25-1.12,3.55.52,7.19.68,10.32,2.84.27.18,1.11-.46,1.69-.71a.52.52,0,0,1,.84-.19C139.67,21.22,135.53,22.7,138,24Z"/><path class="cls-106" d="M121.92,19c2.76,2.2,7,1.57,9.18,4.88L130,25c-6.81-2.93-13.55-6.1-21-7.2,0-1.65,1.24-2,2.49-2.45C115.15,16,119.17,15.75,121.92,19Z"/><path class="cls-107" d="M156,44c4.19.6,9.09,0,10,6a1.28,1.28,0,0,1,.08,1.85c-1.89-3.11-4.27-5.53-8.15-5.86A3.34,3.34,0,0,1,156,44Z"/><path class="cls-108" d="M171.87,85.73c-.92-.15-1-.83-1-1.56.32-1.39-.4-3,1-4.15C171.9,81.93,171.89,83.83,171.87,85.73Z"/><path class="cls-3" d="M168,53l2,3-4.3.38C165.85,54.53,168.45,54.83,168,53Z"/><path class="cls-109" d="M166.09,51.89c0-.61-.05-1.23-.08-1.85,1.18-.11,2.39-.32,3.13,1l-1.19,1Z"/><path class="cls-110" d="M180.87,85.24c-2.21,3.36-5.13.86-7.74,1C175.48,84,178.18,84.64,180.87,85.24Z"/><path class="cls-111" d="M168,90.06l1.09-.13c3.35.34,6.25-4.14,9.86-.91a2.7,2.7,0,0,1-1.64.89c.41.35,1,.23,1.43.4,1.47.52,2.17,1.3,1.23,2.85a14.18,14.18,0,0,1-11.85.22A2.38,2.38,0,0,1,168,90.06Z"/><path class="cls-112" d="M180,92c-1.65-1.94-4.05-.43-6.19-1.42,1.36-1.85,3.26-1.6,5.07-1.59l2,1.06a5.87,5.87,0,0,1,1,3.92C180.11,94.49,180.6,92.74,180,92Z"/><path class="cls-113" d="M180,92l1.91,2a4,4,0,0,1,0,1c-2.66,4-6.33,2.74-9.92,1.94a4.71,4.71,0,0,1-3.65,1.36,24.45,24.45,0,0,1-3.92-.17,8.79,8.79,0,0,1-1.54-.33c-1.23-.46-2.54-.78-3.33-2a2.24,2.24,0,0,1,.57-2.25c2.5-1.59,5-2.55,7.79-.55C172,92.56,176.15,94.16,180,92Z"/><path class="cls-114" d="M103.06,11c-.09-.93-.17-1.87-.26-2.81,2,2.28,4.89,1.73,7.86,2.7C109.2,8.58,106.72,8.13,106,6c3.61.19,6.73,2.36,10.44,2.39,2,0,2.88,1.86,2.85,3.86C113.69,13.7,108.5,10.87,103.06,11Z"/><path class="cls-115" d="M121.92,19l-11-3a1.32,1.32,0,0,1-1.31.2c-1.35-.53-3.61.44-3.66-2.23,4.37-2.25,8.47.51,12.6,1.07,2.07.29,4.16,1.19,6.41.91l0,2Z"/><path class="cls-88" d="M106,14c.93,1.57,3.08.45,4.08,1.87-1.79,1.58-4.06-.1-5.93.9-3.31-1-5.63.2-7.14,3.2a1,1,0,0,1-1.49-.36c-.16-2.36-2.06-5.1,1.47-6.65l.12.11c0,.63-.11,1.41.2,1.85.63.88,1.13,0,1.41-.44.76-1.21,1.4-2.5,2.15-3.89,1.87.53.54,2.93,2.17,3.35Z"/><path class="cls-116" d="M137.86,19.9l-.84.19c-.67-.24-1.69-.08-1.62-1.19,0-.28.57-.73.91-.77C137.56,18,137.83,18.89,137.86,19.9Z"/><path class="cls-117" d="M126,166.05c-5.62,1.95-11.15,4.22-17,5.32a10.58,10.58,0,0,1-4.47,1.68c-2,0-3.93,0-4.2-2.7.41-2.4,2.42-2.46,4.18-2.75C120,165,133.73,158.87,145.09,148c9.73-9.36,17.13-20.23,19.94-33.69.81-3.9,2.65-7.5,3-11.53.14-1.57,1.1-2.87,3.11-1.85,1.84,2.22.48,4.69.57,7.05,1.49,4-.77,7.4-1.82,11-2.23,6.61-4.37,13.28-9.93,18.06-1.41,1.94-3.48,3.42-4.09,5.91-.5,3.34-3.13,5.19-5.17,7.45-1.09,1-2.14,2.08-3.23,3.1-.78.7-1.68,1.25-2.52,1.87-.32.27-.65.52-1,.77-1.12.92-2.35,1.69-3.5,2.56a26.88,26.88,0,0,1-3.49,2.52,11,11,0,0,1-1.06.59,28.39,28.39,0,0,0-3.05,1.92c-1.26.68-2.56,1.29-3.83,2C128.09,166,127.14,166.62,126,166.05Z"/><path class="cls-118" d="M160,137a100.48,100.48,0,0,0,9-18c1.25.76,1.88,2.15,3,3l2-1c.05,2.78-5,1.41-4,5-.82,2.62-.26,5.92-4.39,6.68-1.44.26-1.71,2.63-1.58,4.36a3.33,3.33,0,0,1-1.05,4C156.87,143.45,160.87,138.38,160,137Z"/><path class="cls-53" d="M149.83,149.88l6.06-7c2.46-.07,3.37.72,2,3.22-1.56,2.93-4.86,4.5-5.88,7.81L152,154C149.35,153.6,150.6,151.22,149.83,149.88Z"/><path class="cls-119" d="M163,141a6.56,6.56,0,0,1,1.05-4,17.38,17.38,0,0,1,3.42,2.64c.73.91-.37,1.75-1.08,2.37C164.67,143.47,163.75,142.38,163,141Z"/><path class="cls-120" d="M171,138,168.91,135h0c-.34-.54-1.08-1.39-.95-1.56a1.51,1.51,0,0,1,2.46.15c1,1.24.41,2.88.54,4.35Z"/><path class="cls-121" d="M168.91,135c0,1.1.45,2.49-1.3,2.54-.42,0-1.25-.84-1.23-1.27.05-1.8,1.47-1.26,2.54-1.26Z"/><path class="cls-122" d="M171.15,100.88c-.82.18-2,.46-1.92,1.28.43,5.42-2.67,10-3.46,15.2-.92,6-4.19,11.39-7.41,16.54a74.4,74.4,0,0,1-34,29.31A76.46,76.46,0,0,1,104,169c-1.15.15-2.34,0-3.08,1.18a2.41,2.41,0,0,1-1.35.41,2.91,2.91,0,0,1-1.31-.63,4.91,4.91,0,0,1-1.32-2.67,5.92,5.92,0,0,1,.81-4.47,5.82,5.82,0,0,1,3.77-1.06c29.84-1.18,55.21-28.69,58.65-51.72.45-3,1.24-5.87,1.55-8.86.18-1.7.48-3.32,2.27-4.14l4.13.05c1.11.84,2.67,1.24,2.91,2.94A3.92,3.92,0,0,0,171.15,100.88Z"/><path class="cls-123" d="M172,122c-2.37.36-3.07-1-3-3l2.79-11c1.49-.13.83-2.55,2.91-2.42-.18,3.91.5,7.87-1.68,11.49-.65.32-.66.64,0,1Z"/><path class="cls-124" d="M171,100A7,7,0,0,1,168.1,97l4-.12,1,1A1.85,1.85,0,0,1,171,100Z"/><path class="cls-125" d="M172.94,118l-2.25.61c-.08-.43-.37-1-.22-1.27.62-1.27,1.59-.66,2.48-.3C173,117.32,173,117.64,172.94,118Z"/><path class="cls-126" d="M149.83,149.88c3.45,0,.3,3.32,2.13,4.11.72,1.2,1.93.93,3,1-.68,1-1.35,2-2,3-1.85,1.1-3.31.52-4.54-1.05a11.33,11.33,0,0,1-1.54-4Z"/><path class="cls-127" d="M149,156c.77,1.81,2.29,2.12,4,2a3,3,0,0,1-3.72,1.21c-1.76-.56-1.87.42-1.31,1.76-.34.67-.68,1.34-1,2L144,164a3.89,3.89,0,0,1-1-3.58,5,5,0,0,1,2-3.07C146.26,156.62,147.29,155.36,149,156Z"/><path class="cls-128" d="M126,166.05l2.73-1.18c2.05-.64,3.08-.21,2.26,2.16C129.1,168,126.62,171.8,126,166.05Z"/><path class="cls-129" d="M119,173.63c0,1-.06,1.91-1.21,1.57s-2.75-.58-3-2c-.16-.93.95-1.74,1.9-1.88C118.38,171.09,118.74,172.42,119,173.63Z"/><path class="cls-66" d="M131,167c-.07-1.44-.93-2-2.26-2.16a8.15,8.15,0,0,1,4.12-2.13,2.69,2.69,0,0,1,1.39.78,2.36,2.36,0,0,1,.71,1.42v1c-.82.8-1.61,1.7-2.95,1.06Z"/><path class="cls-130" d="M132,167A4.11,4.11,0,0,1,135,166l.06,2.94,1.1,1.48c-.35.16-.77.54-1,.45A4.09,4.09,0,0,1,132,167Z"/><path class="cls-131" d="M123.31,171.27c2.53-.32,3.64.56,4,2.37,0,.25-.61.92-.92.91C124.57,174.47,124.44,172.75,123.31,171.27Z"/><path class="cls-132" d="M109,173l1,1.9h0a3.92,3.92,0,0,1-4,.28,2,2,0,0,1-.11-2.41A2.36,2.36,0,0,1,109,173Z"/><path class="cls-133" d="M109,173l-3-.07a.7.7,0,1,1-1-.94,4.74,4.74,0,0,1,4-.67Z"/><path class="cls-134" d="M102,180c-1.47.65-3,1.79-4.23-.35a2.57,2.57,0,0,1-.3-2.06c.56-1.56,1-3.31,3.23-3.06,1.22.39,1.59,1.59,2.31,2.46Z"/><path class="cls-133" d="M103,177a2,2,0,0,1-2.11-1.89c0-1.27.5-2.23,1.93-2.39a31,31,0,0,1,3.22,2.25H110C108.46,178.42,104.87,174.75,103,177Z"/><path class="cls-135" d="M98.17,178c-.13.53-.27,1.06-.41,1.59l-2.08,1.28c-1.25-.06-1.64-.85-1.7-1.95l-.18-.87a138.92,138.92,0,0,1-.1-14.43c0-1.41,0-3.59,1.8-3.51s1.4,2.24,1.48,3.67c0,.5,0,1,0,1.49a24.26,24.26,0,0,0,1,8A7,7,0,0,1,98.17,178Z"/><path class="cls-136" d="M86.91,175.92l-2-1,.84-3.1c-.28-.4-.17-.67.26-.85v.05c.74-1.24,1.27-2.72,3.14-2.56a1.92,1.92,0,0,1,1.37,2.27c-.45,1.45-1,2.81-2.74,3.11Z"/><path class="cls-137" d="M87.82,173.88,90,171c1.55-.29,1.59.8,1.69,1.84a2,2,0,0,1-.76,1.28c-2.4.93-1.88,3-2,4.9C87.22,177.59,88.27,175.57,87.82,173.88Z"/><path class="cls-138" d="M90.91,174.1l.09-1.16c1.65-1.36.29-3.53,1.36-5,.81-1.14,1.59-2,2.12.18-.28,3.63.54,7.3-.5,10.89h0l-2.79,0C91.1,177.32,91,175.71,90.91,174.1Z"/><path class="cls-139" d="M144,160l0,4a2.85,2.85,0,0,0-3,3,6.35,6.35,0,0,1-3-3,1.27,1.27,0,0,1-.16-1.3A8.44,8.44,0,0,1,144,160Z"/><path class="cls-140" d="M138,163a8,8,0,0,0,0,1l-3,1-1-1c-.58-1.84,1.3-2.06,2-3.06h0C137.59,160.62,138.27,161.32,138,163Z"/><path class="cls-141" d="M15.85,86.08l-.91-1c-2.07-3.58-.79-6.83,1-10,2-.6,1.38.89,1.47,1.82a8.09,8.09,0,0,0,.25-2.64,22.38,22.38,0,0,1,1.22-5.31c.12-1.1.12-2.25,1-3.09,2.15-1.47,1.26-4.88,3.85-6.06-.68.1.91-.13.42.3-.15.13.5.6.53.49.95-3.31,3.09-6,4.45-9.15A7.06,7.06,0,0,1,30,50.22C38.62,39.06,48.87,29.81,61.78,23.7a57,57,0,0,1,11.81-3.8c-.29.29-1.37.13-2.27.49A4.94,4.94,0,0,1,68,19.29.93.93,0,0,1,68.05,18c2.78-1.56,6.09-.79,9-2,2.07,1,4.21.21,5.14.37a3.86,3.86,0,0,1-3.33-.53c2.56-1.56,5.18-2.31,8-.63a5.66,5.66,0,0,0,.12.84c.56,2.42,5.45,1.16,4.28,5.05a3.44,3.44,0,0,1-1.29.79c-25.23,1.6-44,14.2-57.91,34.58-5.48,8-8.51,17.17-9.84,26.87-.3,2.21.49,5.84-3.86,5.47C17.25,88.13,16.87,86.83,15.85,86.08Z"/><path class="cls-142" d="M67.81,18.9c1.13.15,2.41-.11,3.18,1.09-9.54,4-18.64,8.64-26.68,15.23C40.19,38.59,37.16,43,32.94,46.29c-.81-.15-1.41-.45-1-1.44,0-.33,0-.65.05-1,.85-1.5,1-3.39,2.51-4.52a23.75,23.75,0,0,1,3.71-3.79,26.29,26.29,0,0,0,2.4-2.2,20.68,20.68,0,0,1,2.49-2.18A109.16,109.16,0,0,1,53,24.1C57.61,21.37,62,18.15,67.81,18.9Z"/><path class="cls-25" d="M21.89,42.9c.45-1.32.89-2.63,1.34-3.94,3.6-1.14,5.43-4.29,7.8-6.84,1.83,2.05-1.07,3.3-.84,5.08a1.82,1.82,0,0,1-.27,2.64l-5,7.07c-1.29.83-2.85,1.3-3.81,0S21.39,44.19,21.89,42.9Z"/><path class="cls-143" d="M13,74l0-2c-.74-2.75.3-5,2-7a2.12,2.12,0,0,1,1-2c.36-.44.7-.43,1,0l1.09,6.12a1.8,1.8,0,0,1,.21,2.08C16.82,72.65,16,75.39,13,74Z"/><path class="cls-144" d="M24,60a50.23,50.23,0,0,1-3,6.46c-1,1.58-.69-.36-1-.64A27.85,27.85,0,0,1,25.13,54c.92-.15,1.3.42,1.54,1.16C26.53,57.21,26,59,24,60Z"/><path class="cls-141" d="M26,55l-.88-1a27.61,27.61,0,0,1,6.77-9.18L33,46c.23,2.4-2.07,3.29-3,5h0C28.7,52.36,28.94,55.25,26,55Z"/><path class="cls-145" d="M29.92,39.84l.27-2.64a6.65,6.65,0,0,0,3.73-1.37l.45.51A3.62,3.62,0,0,0,35,40l-3,3.91C31.27,42.53,30.6,41.18,29.92,39.84Z"/><path class="cls-146" d="M18.9,56.91c-.24-2.51-.95-4.41-4.09-3.12,1.11-1.65,2.34-4.86,4-3.79C21,51.35,20.67,54.55,18.9,56.91Z"/><path class="cls-147" d="M21.89,42.9c.13,2-1.17,5,3,4-3.07,3.2-4.78,2-5.68-1.76Z"/><path class="cls-144" d="M17.76,70.92c.1-.61.21-1.22.31-1.83a4.43,4.43,0,0,1,.8-.19c2,3.39-1.43,6-.71,9.74-1.59-1.53-1-2.74-1.23-3.78C15.66,73.22,16.74,72.08,17.76,70.92Z"/><path class="cls-148" d="M17,63l-1,0c.5-1.73-1.14-4.34,2.05-4.95Z"/><path class="cls-149" d="M47,19.07c1.3-.54,2.59-1.86,4-.09.9,2.06-.57,3.46-1.41,5-.91,1-2.09,1.68-3.06,2.61-1.06.72-1.88,2.09-3.5,1.36-1,.32-2-1.13-3,0-1.28.61-2.61,1.39-3-.93Z"/><path class="cls-150" d="M43,28l3-2.09c2.32,3.61-1.7,4.24-2.91,6.2L41,34c-1.18,1.17-2.93,0-4.14,1.06-.86.55-1.59,1.48-2.82,1.06l-.12-.29c.18-2.45.85-4.22,3.9-4.48C39.89,31.17,41.48,29.47,43,28Z"/><path class="cls-151" d="M37,27.07c.74,1.1,1.89.89,3,.93-.83,2-2.28,2.28-3.81,1C34.86,27.91,36.25,27.52,37,27.07Z"/><path class="cls-152" d="M48.88,23.83c.69-1.62,1.39-3.24,2.08-4.85.5-.39,1.44-1.13,1.45-1.12,3.69,4.49,6.4-.41,9.54-.95l2-1c2.09-.72,2.4,2.1,4.14,2.08a5.08,5.08,0,0,1-.24.87A67.25,67.25,0,0,0,53,25.05C51.63,24.65,49.44,27,48.88,23.83Z"/><path class="cls-148" d="M15,64.94c.14,2.58-1.07,4.77-2,7-3.91.07-2.21-3.13-2.9-4.94,3.32-1.7.82-6.25,3.95-8.05C15.4,60.8,12.67,63.28,15,64.94Z"/><path class="cls-153" d="M17.76,70.92c-.28,1.32-.55,2.63-.83,3.94-1.44,3.24-1.75,6.71-2,10.19L13,85c-.79-.09-1.62-.1-2.07-.94-.16-3.53.22-6.94,2.1-10C15.46,74.31,15.67,71.17,17.76,70.92Z"/><path class="cls-154" d="M93,23c0,14.77,0,29.55,0,44.32,0,1.91-.69,4,.95,5.68a1.6,1.6,0,0,1,0,2.14,3.48,3.48,0,0,1-3,.58c-4.67-.92-2.22-3.56-1.41-5.82.17-12.23,0-24.45.06-36.67,0-.57,0-1.14,0-1.71.08-1.92,0-3.85.24-5.77a5.29,5.29,0,0,1,.49-1.55C91,23.26,91.7,22.53,93,23Z"/><path class="cls-155" d="M97,13c-1.79,2.16-.63,4.69-.87,7a2.76,2.76,0,0,1,.32.94c-.29,15.44,1.67,30.83,1,46.27-.08,1.81.15,3.68-.91,5.32-2.78,1.1-1.85-1.23-1.94-2.28-.38-4.75.55-9.55-.51-14.28,0-.33,0-.67,0-1,1.07-9.06.39-18.16.42-27.23,0-6.92.72-13.87-.46-20.76h0c1.86-2.06,2.5.71,3.78,1C98.43,9.79,97.07,11.28,97,13Z"/><path class="cls-87" d="M94,7c1.08.82,1,2,1,3.16V51.81c0,1.16.09,2.34-1,3.18Q94,31,94,7Z"/><path class="cls-156" d="M93,23l-2,1a2.16,2.16,0,0,1-.12-3c.07-2.77-4.38-1.87-4-4.91l2,.9c1.6-1,.85-2.68,1.09-4.06,1.46-1,.78-2.61,1.1-3.93,1.75-.77,1.9.22,1.89,1.62C93,14.74,93,18.87,93,23Z"/><path class="cls-87" d="M94,56c2,3.33.46,7,1,10.47.31,2.17-.85,4.58,1,6.52a1.64,1.64,0,0,1,.35,1.86,1.53,1.53,0,0,1-1.79.53l-.5-.45L94,73Q94,64.5,94,56Z"/><path class="cls-157" d="M78.81,15.87c1.69.46,3.54-.4,5.84,1-3.05-.1-5.45.91-7.65-.85Z"/><path class="cls-158" d="M44,152c-14.75-12.24-23.37-27.77-24.9-47-.18-2.35-2-3.8-2.09-6,.33-.35.67-.7,1-1.06.72-1.17,1.9-.95,3-1a3.44,3.44,0,0,1,3.09-.19c3.3,3.77,2.24,8.59,2.75,12.9A54.25,54.25,0,0,0,36.25,134c1,1.49,2.2,2.94,2.32,4.87-2,2.12.14,3.23,1.16,4.58,2,2.66,5.5,4.43,5.1,8.52,0,.06-.25.15-.37.14A1.74,1.74,0,0,1,44,152Z"/><path class="cls-159" d="M24,97l-3,0c3.05-2.22,6.71-.08,10-1.36-1.5-1.36-3.79.24-5-1.53l.3-.67c3.45-1.59,7.22-.12,10.73-1.17A13.87,13.87,0,0,0,43,92c9.79,1.57,19.53-1,29.31-.35,1.9.33,3.48,1.07,3.46,3.3,0,2.43-1.78,3.2-3.79,3.66-5.94-.18-11.88-.2-17.83-.23-2.06.18-4.12-.09-6.17,0-3.21.09-6.41,0-9.62,0-1.43.09-2.87,0-4.31,0-1.72,0-3.43.05-5.15,0A6.69,6.69,0,0,1,24,97Z"/><path class="cls-160" d="M42.05,93c-1.7,1.65-3.38.72-5.07,0-3.71-.65-7.45-2-11,.44,0,.22.05.43.06.65l-2-.15c-.92-.8-2.19-.15-3.16-.75a2,2,0,0,1,.7-2.41,12.59,12.59,0,0,1,3.15-1.37A9.67,9.67,0,0,1,26.1,89a27.94,27.94,0,0,1,3.65-.31A32.1,32.1,0,0,1,40.9,90C42.77,90.44,41.71,92,42.05,93Z"/><path class="cls-161" d="M21,92.94c1.08.09,2.24-.08,3,1-5.85-.46-11.81,1.24-17.59-.9a10.59,10.59,0,0,0-.63,1.2c-1.26-1.2-.69-2.72-.73-4.14l1.69-.21c2-1.57,4-2.76,5.7.28-1.39,4,2.11.35,2.5,1.56C17.08,91.69,19.35,90.88,21,92.94Z"/><path class="cls-162" d="M16,108c.31,2,1.36,3.91.94,6-3.23-3.4-5.47-7.28-5.88-12.06C16.53,100.84,14,106.3,16,108Z"/><path class="cls-163" d="M12,90.94c-1-3.79-3.33-1.27-5.17-1.08C8.83,86.39,11.9,88,14.6,88.45c3.53.67.87-1.58,1.25-2.37A3.14,3.14,0,0,1,18.08,88c.56,2,3,1.51,3.93,3-.33.65-.66,1.3-1,2C19,92.2,17,93,15,93,14.26,91.86,12.6,92.16,12,90.94Z"/><path class="cls-158" d="M89.08,169.07l-3,2c0-.69,0-1.38-.07-2.07-12-1.84-23.33-5.45-33.25-12.76-2.8-2.07-5.7-4-7-7.49.58-2.3-.77-3.73-2.28-5.12-3.11-2.85-5.21-6.49-7.43-10-1.31-2.06-1.71-4.53,2.35-3.21,3.57,4.1,7.28,8.07,10.61,12.38,10.31,9.95,22.34,16.54,36.57,18.85,1.62.26,3.35,0,4.74,1.18a5,5,0,0,1,.46,4.58A3.75,3.75,0,0,1,89.08,169.07Z"/><path class="cls-164" d="M46,148c5.7,7.68,14.07,11.34,22.34,15.38,5.68,2.77,12,2.95,17.65,5.62-16-.66-29.92-6.58-42-17-.06-3.18-2.43-4.91-4.38-6.86-1.39-1.4-3-2.77-3.25-4.73-.22-1.49,1-.42,1.63-.41,1.71.33,2.64,1.65,3.65,2.86a21.71,21.71,0,0,0,4,4.52C45.79,147.57,45.89,147.77,46,148Z"/><path class="cls-165" d="M75.92,170.24,73,170l-5.13-2C70.75,168,73.6,168.16,75.92,170.24Z"/><path class="cls-165" d="M86.05,171a1.7,1.7,0,0,1-.26.85l-5.73.08a4,4,0,0,0-.22-.9Z"/><path class="cls-166" d="M137,38c9,6.27,16.42,13.88,21,24,.59.77.64,1.56-.23,2.1-1.08.68-1.93,0-2.51-.82-1.3-1.92-2.62-3.83-3.87-5.79a50.66,50.66,0,0,0-7.65-9.78c-1.44-1.37-2.88-2.86-5.2-2-2.8-.18-4.87-1.78-7-3.45-3.64-2.9-7.58-5.28-12.29-6.06-4.33-1.89-9-2.65-13.53-3.7-1.41-1.29-3.91-.88-4.89-3.21,2.23-2.19,4.83-1.27,7.41-1.16C113,28.3,117,31.85,122,31c4,.22,7,2.6,10.26,4.51C133.77,36.4,135,38,137,38Z"/><path class="cls-167" d="M122,31c-4.88,2.54-9.09-1.35-13.71-1.52-2.08-.08-4.15-.64-6.4-.22,1.13,1.43,4.07-.1,4.12,2.71l-.58.46c-2.68,0-5.49.42-7.29-2.33,0-1.69-.05-3.37-.08-5.05C106.62,24.63,114.18,28.3,122,31Z"/><path class="cls-168" d="M98,22.94c-.33-3,1.62-3.26,3.7-2.73A22.24,22.24,0,0,0,108,21c3.31,1.09,6.75,1.72,10,3h0c.25.93,1.85,1,1.38,2.69C112.59,23.38,105.21,23.81,98,22.94Z"/><path class="cls-169" d="M97.83,40l.22-5c5.19-1.61,9.93.32,14.71,1.89,9.34,2.68,15,10.65,22.55,15.87,2.35,1.63,2.73,4.75,3.93,7,4.17,7.88,8.54,15.82,10.58,24.67a6.16,6.16,0,0,1-.19,3.93,3.17,3.17,0,0,1-1,1.17,11.4,11.4,0,0,1-7.81.25c-2.27-4,2.49-2.47,3.17-4.53-4.11-6.93-7.11-14.84-10.34-22.64a5.19,5.19,0,0,0-1.51-2c-9.7-8-17.8-18.7-32-19.38a4,4,0,0,1-1.84-.74C98.13,40.36,98,40.18,97.83,40Z"/><path class="cls-170" d="M113,38,98.05,35c0-.68,0-1.36,0-2,2.41-2.16,5.36.1,7.9-1l0,0c5.05-.75,9.44,1.5,14,3a14.27,14.27,0,0,0,1.65,1.09c1.47.88,4,1.28,3.27,3.55-.59,1.82-2.91.75-4.45,1C118,39.75,115.41,39.06,113,38Z"/><path class="cls-171" d="M95.91,74.9c0-.64,0-1.28.08-1.92q.06-26.48.1-53L97,20l.12,20.06c1.56,1.81,1.27,4,1.27,6.16,0,8.1,0,16.21,0,24.31C98.1,72.29,98.79,74.61,95.91,74.9Z"/><path class="cls-172" d="M97,70.89l.06-30.84a4.48,4.48,0,0,1,.73,0l.29,0c1.36,1.73,1.29,3.77,1.25,5.81,0,1.69.08,3.39,0,5.09.06,2,0,3.94,0,5.92a8.88,8.88,0,0,1,0,1.71c-.43,4,.84,8.15-.87,12.07A1,1,0,0,1,97,70.89Z"/><path class="cls-173" d="M106,32c-2.43,2-5.28.56-7.9,1,0-1,0-1.92.05-2.88Z"/><path class="cls-100" d="M118,24a19.93,19.93,0,0,1-10-3C111.52,21.29,115.1,21.45,118,24Z"/><path class="cls-174" d="M104.12,16.79c1.78-1.59,4-.37,5.93-.9.3,0,.59.09.89.16L109,17.77Z"/><path class="cls-175" d="M139,45c1.33-2.76,2.41-.87,3.67.13,5.82,4.59,9.24,11,13.19,17.07,1.32,2,1.6,1.83,2.14-.2,2.32,1.34,1.29,4.35,3,6,.34.38.67,1.05.44,1.31-2.15,2.32-.28,5.3-1.33,7.78-4.3-.24-3-4.54-4.78-6.57-3.44-8-7.71-15.42-14.28-21.34C139.87,48.13,138.35,47,139,45Z"/><path class="cls-176" d="M160,77c-2.58-3.32,1-6,1-9,1.6,1.31,1.1,3.88,3,5,1.52,3.49,1.19,7.41,2.75,11,2,4.53-2.05,4.86-4.77,6a3.17,3.17,0,0,1-2.06,1.16,7,7,0,0,1-4.69-.67,1.34,1.34,0,0,1-.45-1.4,3,3,0,0,1,1.17-.93c3.11-.49,3.8-2.57,3.76-5.37C159.65,80.81,158.52,78.82,160,77Z"/><path class="cls-177" d="M160.11,90.09l1.84-.17,6,.14c0,1,0,2,0,2.93-2.78-.4-5.34.73-8,1.16l-.42-.47a3.5,3.5,0,0,1-.24-1.24A3.7,3.7,0,0,1,160.11,90.09Z"/><path class="cls-178" d="M164,97c-1.22,6.13-2.07,12.35-3.73,18.35-4.25,15.3-13.93,26.86-26.45,36.08-10.56,7.78-22.46,12-35.78,11.56-1.15-1.08-1.07-2.38-.7-3.74,3.26-3.73,8.13-3.46,12.3-4.28,7.47-1.47,13.47-5.16,19.27-9.73,4.26-3.37,7.88-7.45,12.69-10.24,3.08-1.78,5-5.3,6.67-8.5,3.84-7.2,7.3-14.55,7.31-23a6.81,6.81,0,0,1,2.65-5.67c1-.82,2.31-.73,3.48-1A1.16,1.16,0,0,1,163,97Z"/><path class="cls-179" d="M160,94.15,160,96c-2.21,2-5,1.43-7.5,1.37-5.05-.14-10.15.71-15.15-.61-1.05-.82-2.22-1.59-1.05-3.15,7.92-1.37,15.83-2.08,23.69.38Z"/><path class="cls-180" d="M137,96h23c1.1,0,2.27-.15,3,1l-1,0A30.9,30.9,0,0,1,152,98.39c-3.94-.12-7.87.19-11.81.1-2.95-.49-6.09.6-8.9-1.06-1.15-1.74.39-1.94,1.4-2.45A5.38,5.38,0,0,1,137,96Z"/><path class="cls-67" d="M138,163l-2.07-2.07,4.12-2.9c1.55-.68,3.17-1.26,4-2.95l0,0c2.2-.06,2.94.85,1.92,2.92l-2,2C142.6,162.21,139.92,161.83,138,163Z"/><path class="cls-59" d="M98.17,178c-.4-1.36-.79-2.72-1.19-4.09-.08-2-2-4.37,1-5.91l1.13,1.73c0,.81.28.82.81.37l1,0c.51,2.48,2.57,1.6,4.09,1.91,0,.31,0,.62,0,.93a1.38,1.38,0,0,1-2,.06l-2.12,2C98.56,174.76,99.46,177.4,98.17,178Z"/><path class="cls-139" d="M146,158A2.88,2.88,0,0,0,144,155l2.85-2.13A3.11,3.11,0,0,1,149,156C148,156.62,147,157.28,146,158Z"/><path class="cls-139" d="M144,155.05c-.21,2.48-1.88,3-4,2.95Z"/><path class="cls-67" d="M135.94,160.9l-2,3.06-1.05-1.21A3.91,3.91,0,0,1,135.94,160.9Z"/><path class="cls-181" d="M98,168c-1.87,1.72-.62,4-1,5.91-2-2.45-.56-5.33-1-8,1.27-3.09.35-5.89-1.15-8.61.67-6.12-.1-12.4,2-18.37,4.18,1.43,2.08,5,2.6,7.66a51,51,0,0,1,0,5.39c.15,2.43,0,4.81-1.4,6.93,0,1.33,0,2.67,0,4Z"/><path class="cls-182" d="M99.89,170.14c-.06.88.37,1.94-.83,2.37a.86.86,0,0,1-.74-.37,1.68,1.68,0,0,1,.76-2.37Z"/><path class="cls-183" d="M103,173l2-.06h1l.06,2C104.61,175,103.12,175.09,103,173Z"/><path class="cls-63" d="M96,158c1.15,2.68,1.84,5.35,0,8v-4.77l-1,0c0,4.22.07,8.45,0,12.68,0,1.73.64,3.65-1,5.1q0-6,0-12a3.78,3.78,0,0,1-1-1.56c-.14-6.42-1.38-12.89.74-19.23,3.56-.19,2.13,2.59,2.15,4.08C95.88,152.82,94.88,155.39,96,158Z"/><path class="cls-184" d="M93.94,166a8,8,0,0,1,0,1c-1.47,1.3-.88,3-.9,4.6s-.55,2.09-2,1.38a2.1,2.1,0,0,0-1-2,1.94,1.94,0,0,0-.9-1.91L90,168c1.49-2.93-.31-5.74-.34-8.61,0-2.12-.21-4.26.54-6.32.56-1,1.18-2.3,2.5-1.94,1.12.31.71,1.66.77,2.59C93.76,157.78,92.88,161.92,93.94,166Z"/><path class="cls-185" d="M90.91,21,91,24c0,.32-.08.63-.1.95a6.83,6.83,0,0,1-1.8,1.36c-6.87,2.42-14.24,2.71-21,5.82-23,10.53-36.95,27.93-41.25,52.94-.57,1.66-.49,3.56-1.83,4.93h0c-2.93,1.14-4.26-.15-3.83-3,3.46-22.24,13.87-40.25,32.7-53a71.81,71.81,0,0,1,32.34-12c1.32-.16,2.66-.14,3.76-1.06Z"/><path class="cls-186" d="M90,21c-1.35,2.78-4.29,2.45-6.51,2.81C57,28.19,38.85,43,28,67.33c-2.65,5.93-4,12.19-5.71,18.36-.64,2.25-.66,4.46,2.74,4.32-.74,1.13-1.92.9-3,1-2.11,0-3.89-.33-3.93-3,3.38,1,2.59-2.3,2.7-3.36C23,63,34.46,46.8,51.36,34.38,62.66,26.09,75.41,20.54,90,21Z"/><path class="cls-187" d="M30,51c-.09-2.32,2.3-3.15,3-5,8.69-11.76,20.5-19.32,33.7-25A24.27,24.27,0,0,1,71,20a7.21,7.21,0,0,1,6.58-.38C61.88,23.25,49.18,31.15,38.29,42.17,35.44,45,34,49.19,30,51Z"/><path class="cls-187" d="M26,55l4-4c-.53,4.35-3.79,7.38-5.2,11.36-1.05-.74-.71-1.61-.81-2.36C24.67,58.33,25.34,56.66,26,55Z"/><path class="cls-188" d="M48.88,23.83c.65,1.09,1.45,1.11,2.38.36,1.2-1,1.66-.43,1.75.86L43,32.1c0-2.53,4-3.15,2.91-6.2A3.93,3.93,0,0,1,48.88,23.83Z"/><path class="cls-189" d="M34,36.12,36,34c1.79-.56,2.26.85,2.93,2l-4,4c-1.16-2.12-2.43,1-3.64,0C31.53,38.13,34.11,38.07,34,36.12Z"/><path class="cls-190" d="M38.93,36c-1.53.18-1.9-1.39-2.93-2,1.66-2.2,3.33.28,5,0Z"/><path class="cls-191" d="M91,31c0,.33,0,.66,0,1-1,1.26,0,2.9-.82,4.21a4,4,0,0,1-1.28.75c-22,3.39-38.2,14.68-47.95,34.91-2,4.24-2.52,8.91-4,13.29-.73,4.62-3.68,4.76-7.28,3.61-.74-3-.46-5.69,1.8-8,1.9.46.69,1.62.88,2,3.68-17.1,12.67-31.38,28-41.1,7-4.43,14.43-8.19,22.91-9.08,1.33-.14,2.8-.1,2.54-2.14.86-1.67,2.26-1.6,3.77-1.21C90.25,29.66,90.53,30.39,91,31Z"/><path class="cls-192" d="M72,98c.75-1.3,3.33-.9,3-3.25-.28-1.85-1.71-1.58-3-1.71-2.78-1.72-5.8-1-8.74-.8-1.41.08-3,1.06-3.68-1.17.84-2.81,3.28-2,5.25-2.37s4.34.86,5.67-1.64a11.09,11.09,0,0,1,.91-1.94A17,17,0,0,0,75.24,80c2.66-4.2,6.69-6.56,11.15-8.36C88,71,89.52,70.7,91,72,88.72,73,88.88,74,91,75c-2.2,3.37-6.14,4.44-9.07,6.85-1.61,2.64-5,4.27-4.59,8a32.06,32.06,0,0,1,.46,6.42c0,6.23,3.54,10.52,9.9,12.27,2.09.25,4.35-.34,6.18,1.2,0,2.75-2.9,3.48-3.83,5.59a3.79,3.79,0,0,1-1.33.26c-2-.32-3.77-1.5-5.84-1.61a4.53,4.53,0,0,1-2.41-1.2c-1.42-1.7-3-3.27-4.5-4.88a8.15,8.15,0,0,1-.77-1.08,33.11,33.11,0,0,0-3-5.09C71.66,100.55,70.78,99.31,72,98Z"/><path class="cls-193" d="M81,81c3.47-1.77,6.11-4.93,10-6l3-.1h0c2.06,1.48,4.73-.69,6.75,1.12.84.4,1.67.84,2.53,1.21a10.24,10.24,0,0,1,3.15,1.66c.92,1.21,1.53,2.49.84,4-2.14,1.51-3.65,0-5.26-1.09-1.14-.78-1.91-2.35-4.06-1.71,1,2.43,4.1,2.82,4.8,5.24a6.23,6.23,0,0,1-.27,5,1.29,1.29,0,0,1-2.08.1c-5.79-5.21-8.78-4.83-13.57,1.7a10.33,10.33,0,0,1-3.82,3,1.66,1.66,0,0,1-1.28-.29c-.64-1.15-.16-2.15.43-3.13a17.79,17.79,0,0,0,1.19-2.19,18.66,18.66,0,0,0,.91-3C85.21,83.61,82.13,82.87,81,81Z"/><path class="cls-194" d="M91,72a20.47,20.47,0,0,0-15,9,.78.78,0,0,1-1.27-.1c-.27-4.64,3.55-6.16,6.48-8.26C83.41,71,86.36,70.53,88,68.1c1.24-5.64.27-11.33.49-17,.15-2.54.09-5.08,0-7.62a9,9,0,0,1,0-1.72c.06-2-.1-4.1,1.4-5.77.16-1.38-.44-2.94,1-4Q91,52,91,72Z"/><path class="cls-194" d="M91,31l-1-1a3.75,3.75,0,0,1-1-1.71A4.77,4.77,0,0,1,89,25L90.93,25C90.94,27,90.94,29,91,31Z"/><path class="cls-195" d="M100.91,77.07C98.78,75.81,96,76.69,94,74.92l1.88,0c1.64-1,.87-2.64,1.13-4l1,0c4.87-1.67,7.79,1.93,11.22,4.16,1,1.08,2.11,2.11,2,3.77-1.69,2.93-3.53,1.4-5.36.17-1.09-.07-2.26.11-3-1C102.86,76.46,102.19,76.13,100.91,77.07Z"/><path class="cls-196" d="M41,143a6.29,6.29,0,0,1-3-3c-2.94-6.61-7.75-12.16-10.12-19.2-1.62-4.8-2-9.66-2.7-14.49-.43-3.07-.88-6.19-1.17-9.3h5a5.66,5.66,0,0,1,1.39,3.61c.53,6.4,2.32,12.56,3.55,18.81.07,1.13-.77,2.5.82,3.27a2.9,2.9,0,0,1,1,2.81A1.7,1.7,0,0,0,37,127.73c1.18.83,2.06,1.75,1,3.25-2.15.75-2.24.81-.86,2.58,2.94,3.75,5.3,8,9,11.13,1,.88,3.28,2.35-.14,3.29h0A18.58,18.58,0,0,1,41,143Z"/><path class="cls-197" d="M38,97H48c1.93,1,2.1,2.79,2.27,4.64a40,40,0,0,0,1.87,8.22c3.59,11.36,11.8,17.94,22.64,21.68a7.78,7.78,0,0,1,3.4,2.71c1.1,1.3,2.11.63,3.58.54,7.81-.48,5.78-5.82,5.91-10.22.22-2.89-.64-5.79.18-8.67a2,2,0,0,1,1.63-.27c1.58.77,1.68,2.27,1.84,3.74,0,6.15.28,12.3-.15,18.43,0,.32-.12.65-.19,1-2,8.57-2,8.5-10.64,6.73-7.35-1.5-13.85-5.07-20.58-8.1-1.06-.48-1.12-1.56-1.51-2.46-1.41-3.23-3.23-5.79-7.41-5.31-2.11.25-3.26-1.47-4.25-3-3.72-5.78-7-11.81-7.58-18.8C38.7,104.21,38.05,100.63,38,97Z"/><path class="cls-198" d="M89,125a51.83,51.83,0,0,0,0,6c.42,3.61-.54,5.3-4.51,4.13-.47-.14-3-1.79-2.5,1.37.09.57-2.52,1.64-3.28.53-3.86-5.62-10.76-6.4-15.88-10.12-6.84-5-10.18-11.4-12.61-18.76-1.17-3.57-1.53-7.4-2.25-11.11l6,0c3.36,3,7.68,5.5,6.2,11.3-.39,1.5,1,2.43,2.34,2.75,4.41,1,7,4.22,9.2,7.81,1,1.55,2.14,3.11,3.9,3.7s3.24,3.94,6.13.55C82.79,121.88,86.75,123.38,89,125Z"/><path class="cls-199" d="M38,97c3.74,4,1.5,9.24,2.76,13.83a54.4,54.4,0,0,0,7.8,16.39c.56.82,1.06,2,2.25,1.59,6.27-1.92,7.5,2.56,8.88,6.89.1.29.16.58.24.87,4.73-1.33,6.38,4.58,9.5,4.67,5.29.15,9.36,3.52,14.45,3.83,3.3.2,5.94.84,5.18-3.91-.11-.66.59-1.45.91-2.18,2.45,3.8,1.3,7.89,1,11.91-2.29,3-5.67,2.53-8.58,2-9.95-1.68-19-5.57-26.26-12.77-1.74-1.73-3.53-1.31-5.35-1.74C40.25,130.77,36,119.63,33.67,107.52,33,104,31.52,100.43,34,97Z"/><path class="cls-200" d="M89,125a12.54,12.54,0,0,1-7.14-1.41c-1.38,1.16,1,2.54-.49,3.7-4.89-2.71-10.13-5-12.68-10.74-1.24-2.78-4-4-6.84-4.34-2.37-.3-3.85-2.13-3.17-3.46,2.22-4.3-.75-6.24-3-8.73A14.45,14.45,0,0,1,54,97c6,.46,12.09-1.14,18,1l1,4a27.51,27.51,0,0,0,3,5h0a17,17,0,0,0,5,5,2.06,2.06,0,0,0,2,1c1.56,1.19,3.7,1.4,5,3C89.66,118.83,88.76,122,89,125Z"/><path class="cls-201" d="M34,97c.19,15.93,5.42,29.77,17,41,1,.75,3.13.67,2.27,2.89-2.3,1.15-3.24-.71-4.45-2s-2.42-2.71-3.07-3.36c-1.15-1.06-1.49.18-1.08-.35.13-.17.25-.2.36-.11a22,22,0,0,1,4.87,5.5c1.19,2,.74,3.19-1.9,2.43-3.44-3.91-7.34-7.44-10-12a3,3,0,0,0-2-3,2.27,2.27,0,0,1-1-2c0-1.1.17-2.28-1-3-.88-.39-1.57-.88-1-2-1.71-7.93-4.33-15.71-4-24Z"/><path class="cls-202" d="M60,91c1.29,1.57,2.66.22,4,.2,2.77,0,6-1.57,8,1.77-10-.47-20,2.29-29.95,0-3.26-.57.39-1.39-.07-2.06-.17-1,.49-1.47,1.3-1.8a6.82,6.82,0,0,1,3.36,0c2.74.8,5.53.17,8.29.39C56.7,89.7,58.57,89.53,60,91Z"/><path class="cls-203" d="M26,93.41c-.32-.59-.68-1.53.05-1.69,3.77-.82,7.69-2.28,11,1.26C33.36,94.57,29.63,93.51,26,93.41Z"/><path class="cls-204" d="M90,28v2c-1.38.13-2.94-.46-4,1a3.84,3.84,0,0,1-2.82,1.85C57.94,38,41.57,53,33.63,77.4,33.23,78.64,33.07,80,32,81c-1.5,2.46-1.45,5.31-2,8a2.06,2.06,0,0,1-1,.9L25,90c.2-1.7-.69-3.61,1-5,2.64-4.8,2.86-10.35,5-15.39,9.68-22.34,26.2-36.17,49.88-41.46C83.83,27.47,86.93,25.63,90,28Z"/><path class="cls-205" d="M29,89.88l1-.9c2.3-.88,5.64-.2,6-4,.11.12.3.25.31.38,0,1,.49.33.53.09a58.71,58.71,0,0,1,9-22.35c9.2-13.69,21.73-22.33,38.08-25.27,1.76-.32,3.66-.43,5-1.84h1c0,2,0,4,0,6C71.45,43.46,57.82,53,48.25,68.36,44.26,74.76,41,81.87,43,90l-1,1C37.61,91.08,33.4,89.37,29,89.88Z"/><path class="cls-206" d="M12,90.94c1.41.08,3,0,3,2-2.1-.14-4.26.47-6.49-.45C8.9,90.19,10.79,91.33,12,90.94Z"/><path class="cls-196" d="M48,143c2.85-.52,1.59-1.81.52-3-1.68-1.8-3.7-3.34-4.36-6.37,4.07,1.4,5.16,6,8.84,7.33,4.91,2.62,8.51,7,13.77,9.37A58.75,58.75,0,0,0,80.19,155c3.57.64,7.66.7,10.17,4.2,0,1.29.46,2.61-.38,3.81-13.16,0-24.38-5.32-34.51-13.16C52.83,147.78,48.83,147,48,143Z"/><path class="cls-207" d="M90,163v-4c-1.33-2.34-2-4.67,0-7V139q0-10,0-20c1.49-.87,2.17-.16,2.49,1.26-.2,4.73-.1,9.47-.08,14.2C92.11,140.64,93.58,147,91,153c-.62,5,1.25,10.12-1,15C90,166.31,90,164.64,90,163Z"/><path class="cls-158" d="M41,143a15.22,15.22,0,0,1,5,5A5.91,5.91,0,0,1,41,143Z"/><path class="cls-208" d="M156,89l-1,0a2.28,2.28,0,0,1-2.8.35c2.26-7.59,0-14.38-3.8-20.86-4.14-9.85-11.34-17-20.16-22.69A41.78,41.78,0,0,1,121,40c.82-1.66,2.33.11,3.43-.36-.72-2.57-3.71-2.47-4.43-4.63,6.55.9,10.92,5.8,16.32,8.84A27.59,27.59,0,0,0,139,45c5.93,6.58,12.47,12.72,15.67,21.3.46,1.23.89,2.46,1.34,3.69.33,4.41,1.66,8.71,1.77,13.12C157.79,85.08,158.27,87.55,156,89Z"/><path class="cls-209" d="M98.08,46c0-2,0-4,0-6,7.65.45,14.59,3.12,21.25,6.72a6,6,0,0,1,2.47,3,12.38,12.38,0,0,0,5.86,5.81c6.88,3,7.89,9.67,10.7,15.18,1.82,3.56,2.44,7.61,5.6,10.64,2.51,2.41.7,5.54-4,7.65-1.54,1.53-3.34,1.3-5.18.81a2.17,2.17,0,0,1-1.1-1,1.47,1.47,0,0,1,.54-1.27c2-.73,3-1.86,2.08-4.14C134.4,78.8,133.66,73.71,130,70c-1.09-1.11-1-2.75-1.5-4.08-1-2.73-1.42-6.18-5.18-7a3.31,3.31,0,0,1-2.08-1.32c-5.2-8.22-13.75-9.61-22.3-11A1.64,1.64,0,0,1,98.08,46Z"/><path class="cls-210" d="M121,40A69.68,69.68,0,0,1,145.3,59.94,17.08,17.08,0,0,1,149,68a6.39,6.39,0,0,0,.42,6.14,21.59,21.59,0,0,1,2.68,10.48c0,1.81.19,4.34-3.1,3.37-.6-8.23-4.66-15.24-8.32-22.3-1.16-2.22,0-6.76-4.86-6.32a.54.54,0,0,1-.16-.42c2.43-5.12-2.79-6-5-8.13-2.82-2.75-6.19-4.78-8.73-8.09-2-2.55-6.33-2.36-9-4.72Z"/><path class="cls-211" d="M149,88c4.4-3.94.53-7.81-.18-11.67-.51-2.82-3.5-5.61.18-8.32,5.9,6.7,7.19,15.77,3,21a2,2,0,0,1-2.52.47L149,89Z"/><path class="cls-211" d="M134,89h6l9,0,0,0a1.13,1.13,0,0,1-.46,1.57c-5.7,1.82-11.57.48-17.35.89-2.73-.13-5.58.53-8.07-1.21.26-3.3,2.93-2.21,4.77-2.63C130,87.66,132.2,87.37,134,89Z"/><path class="cls-212" d="M98.08,46c8.77-.14,16.71,1.76,22.48,9.06.61.78,1.36,2.29,1.84,2.21,5-.81,4.63,4.82,7.74,6.38,1,.5-1.93,3.44.11,5,2.83,2.2,4.25,5.12,5.21,8.43a41.25,41.25,0,0,0,2.15,6.07c1.9,4.07.44,5.37-3.63,4.79A4.75,4.75,0,0,1,131.43,85C129,77.73,124.94,71.3,121,64.79A15.57,15.57,0,0,0,116.14,60a66.13,66.13,0,0,0-18-9Z"/><path class="cls-213" d="M98.11,51c5,.42,9.77,1.07,13.67,4.8a16.68,16.68,0,0,0,6.73,4,4.76,4.76,0,0,1,2.67,2.07c4.39,8.63,9.92,16.7,12.8,26.06h0c-1.67,1-3.49.31-5.23.45-2.62-.91-2.59-3.63-3.78-5.53-1.83-3-3.31-6.12-5.25-9-.9-1.33-2.23-2.87-.13-4.24,1.43-.93.27-1.26-.26-1.7A56,56,0,0,0,98.1,57Z"/><path class="cls-214" d="M108.91,76c-3.43-2.11-6.71-4.53-10.86-5.09l.06-12.87a25.74,25.74,0,0,0,13.35,7.23,11.72,11.72,0,0,1,5.35,3.5c1.76,1.75,1.9,3.43.38,5.63-.6.87,1.13,2.2,1.79,3.32,1.88,3.23,4.8,6,4.27,10.26-1.57,1.43-3.57,1.27-5.47,1.46a2.41,2.41,0,0,1-1.28-.54c-2.43-3-1.39-7.64-4.69-10.4A24,24,0,0,0,108.91,76Z"/><path class="cls-215" d="M123,88c-1.34-4.71-4.3-8.53-7-12.46-2-2.93-2.09-2.89,1.93-3.39-2-3.4-4.74-5.69-8.52-6.07-3.42-.33-5.64-3.26-9.19-3.44-2.15-.1-.35-3.43-2.06-4.56,0-.36,0-.73,0-1.09,1.19-.62,2.55-1.5,3.73-.5,4.25,3.6,10.82,2.79,14.35,8,1.68,2.49,6.36,2.25,6.7,6.39-1.3,1.25-2.35-1.7-3.61.15,3.2,5.45,7.37,10.51,8.71,17l-.62.42C125.89,88.32,124.36,88.91,123,88Z"/><path class="cls-216" d="M156,89c.67-4.64,1.37-9.33-1.17-13.65C153.47,73,157,72.06,156,70c2.73,1.53.89,5.67,4,7a35.63,35.63,0,0,1,1.08,6.78C161.21,87.55,160,89.48,156,89Z"/><path class="cls-217" d="M131,90.18l18-.28a9.3,9.3,0,0,1,6,0l5.15.14a3,3,0,0,1-.1,3c-8.56,1.08-17.17-.13-25.75.63C132.3,93.88,130.93,92.42,131,90.18Z"/><path class="cls-216" d="M155,90l-6,0c0-.31,0-.61,0-.91h6C155,89.31,155,89.63,155,90Z"/><path class="cls-218" d="M131,90.18c1.31,2.24,3.32,2.88,5.84,2.86,7.73-.07,15.47,0,23.21,0l0,.89-24,.11c-1.24,1.07-2.74.85-4.19.91-5.85-.84-11.8-.08-17.64-1-3.76-2.37.14-4,.59-6,1.22-.64,1.69.24,2.17,1.09h0c2,.44,4.22-.84,6.06.81Z"/><path class="cls-201" d="M98,159c0-2.34,0-4.67,0-7,1.68-1.57,3.9-1.67,6-2.18,14.21-3.49,26.7-10,35.42-22.09A64.12,64.12,0,0,0,148.78,107a37.57,37.57,0,0,1,1.21-4.3c2.18-5.39,2.78-5.71,9-4.73a10.31,10.31,0,0,0-2.41,6.87c0,9.9-4,18.54-9.84,26-7.14,9.2-16.95,15.75-26.58,22.11-5.15,3.4-11.85,3.45-17.86,4.94C100.87,158.25,99.34,158.22,98,159Z"/><path class="cls-219" d="M159,98c-5.27,0-7.64,2.27-8.89,8.15-2.81,13.22-9.18,24.46-19.8,32.85A62.51,62.51,0,0,1,98,152v-5c1.39-2.53,4-2.76,6.4-3.27,20.34-4.35,35.46-19.55,39.08-40.18,1-5.57,4.92-5.35,8.5-6.52h10C161.24,98.17,160.07,97.94,159,98Z"/><path class="cls-220" d="M132,94l4,.1c.33.64.67,1.27,1,1.91h-4C132.44,95.41,131.34,95.12,132,94Z"/><path class="cls-221" d="M152,97c-6.26,1.49-6.91,6.42-8.18,11.75-2.64,11.12-10.07,19.38-18.28,26.95-6.21,5.74-13.74,8.21-21.9,9.39A30.92,30.92,0,0,0,98,147c-.51-2.63,1.11-5.55-1.11-7.95-2-.45-1.35-1.53-.61-2.63a5.76,5.76,0,0,1,1.86-1.14c14.38-1.83,24.73-9.59,32.07-21.81,1.82-3,1.89-6.72,3.69-9.73.85-1.43,1.42-4,4-1.84C134.7,98,134.7,98,140,97Z"/><path class="cls-222" d="M140,97c-.75,1.44-2.54.54-3.65,1.73,2.79,1.63,4.46,3.6,1.58,6.59-1.77-.77-.22-2.63-1.85-3.8-5.9,19-16.79,32.61-38.07,34.46-1.88-1.64-.75-4.26-2-6.11a2.76,2.76,0,0,1,.21-3.44A8,8,0,0,1,98,125.14c5.15-1.74,10.6-2.73,14.93-6.44a29.12,29.12,0,0,0,10.26-17.22c-.76,2.14-.89,4.31-2.09,6.06-.66.95-1.61,1.91-2.9,1.3-1-.48-.92-1.63-.86-2.64.13-2,1.56-3.62,1.36-5.89-2.72,1.72-1.15,7.19-6,6.55a3.81,3.81,0,0,1-.64-2.25c.74-3,1.06-6.2,3.63-8.41,5.18-.88,10.35-1.81,15.35.75Z"/><path class="cls-223" d="M131,97,115,97.06c-1.41.84-2.49.3-3.19-1s-.2-2.44,1.16-3.12c6.31.57,12.74-.92,19,1l1,2A2.22,2.22,0,0,0,131,97Z"/><path class="cls-135" d="M96.89,126.92c-1,.7-1,1.4,0,2.12a11.14,11.14,0,0,1,0,7.88c-.95.71-.93,1.41,0,2.1.68,6.36-.57,12.62-.9,18.93-1.88-2.09-.64-4.64-1-6.95-.26-1.69.6-3.6-1-5a3,3,0,0,1-.73-2.47c.89-7.21-.15-14.47.6-21.68.92-2.36.51-5,1.49-7.36a1.38,1.38,0,0,1,1.42-.74,2.67,2.67,0,0,1,1.11,1.3C98.38,119.06,99.23,123.12,96.89,126.92Z"/><path class="cls-138" d="M94,144l0,2q0,10,0,20c-2-4-.66-8.23-.88-12.35-.14-2.88-1.08-1.38-2-.64V134c1.9-2.53.58-5.44,1-8.15.29-2-.71-4.35,1.27-6a1.62,1.62,0,0,1,1.2,1.12C94.19,128.58,95.07,136.3,94,144Z"/><path class="cls-224" d="M90,28C70.14,29.62,53.8,37.87,41.6,53.74A68.67,68.67,0,0,0,28,83.48c-.4,2.16-.54,2.13-2.05,1.5.83-12.73,6.23-23.73,14.07-33.32C49.94,39.58,62.5,31.15,77.93,27.53c3.68-.87,7.56-.86,11.06-2.51Z"/><path class="cls-225" d="M32,81c1.25-11.53,7.25-20.74,14.68-29.1C57.15,40.09,70.5,33.49,86,31c.78.19,2,.16,2.24.6.7,1.54-.91,1.52-1.66,1.61a60.85,60.85,0,0,0-17.89,5.4C53.36,45.46,43,56.91,36.82,72.27,35.27,76.09,34,80,32.59,84,31.46,83.16,32.24,82,32,81Z"/><path class="cls-226" d="M89,36c-.58,2.83-2.86,2.73-5,3C71,40.69,60.71,47.17,52.15,56.7c-8.06,9-12.48,19.76-15.22,31.54C35.46,87.17,36.24,86,36,85c3.45-19.2,13.77-33.21,31.14-42.27C74.08,39.1,81.17,36.54,89,36Z"/><path class="cls-227" d="M60,91c-4.64-.59-9.44,1-14-1,0,.67.18-1,.4-.33,0,0,.29,0,.45,0-2.36-1.75-2.12-4.13-1.6-6.58,3.84-18,20.6-34.22,38.72-37.45,1.75-.31,3.57-1.12,5.27.24.76,1.63-.35,3.54.77,5.11-.55,6.32,1.19,12.75-1,19-2.21-2.79-.94-6.12-1.39-9.18-.32-2.22-.74-3.46-3.4-2.54-13.28,4.57-22.69,12.9-26.43,26.4C62.51,86,66.92,89,72,87c.24,2.52-1.18,3-3.36,3.08C65.73,90.24,62.63,89,60,91Z"/><path class="cls-228" d="M72,87c-5.39,3.41-9.6,2.91-11.86-1.45-1.77.23-1.11,3.81-3.2,2.85s-.45-2.89-.07-4.37C60.19,70.9,69,62.85,81.17,58.09c7.57-3,7.61-2.88,7.81,5.42,0,2.15,0,4.31,0,6.47-5.22,3-11.66,4.38-14,11A12.46,12.46,0,0,1,72,85Z"/><path class="cls-229" d="M113,93c-1.45,2.42-.6,3.7,2,4.09.54,2.94-1.66,5.17-2,7.87-.94,1.26-1.27,2.88-2.35,4.06a7,7,0,0,1-1,1,34.4,34.4,0,0,1-8,4.94c-1.8.76-3.48,1.16-4.73-.88h0c-.49-.73-1.35-.94-2-1.44A2.54,2.54,0,0,1,94,111c-2.1-1.95-4.7-.6-7-1,.07-2.28,2-1.91,3.35-2.4,2.39-.5,4.72-1.33,7.18-1.44,2.9.84,5.85,2.36,8.39-.75a15.07,15.07,0,0,0,2.48-4.38,5.31,5.31,0,0,0,.81-4.1c.53-2.11-1.06-4.17-.17-6.29,1.09-2.27.08-4.08-1.28-5.81A3.22,3.22,0,0,1,107,83L106,79c1.63-1.07,3.28,2.15,4.9,0,.91.33,1.33,1.15,1.82,1.88,1,1.6,1.08,3.64,2.56,5a1.81,1.81,0,0,1,0,1.8C116.24,90.17,113.39,91.06,113,93Z"/><path class="cls-230" d="M91,108.93c-1.38.2-3-.39-4,1-5.62-2.14-12-6.87-10.39-14.71.4-2-.52-3.53-.54-5.3,1.07-.46,1.73.2,2.4.86,1.06,1.47,1.65,3.34,3.52,4.12L82,95c1,1,.41,1.9-.07,2.83a9.26,9.26,0,0,0-.53,1.1c.76,3.11,4.2,2.85,5.91,4.72C88.37,105.54,91.26,106.14,91,108.93Z"/><path class="cls-231" d="M78,91.11,76,90c-.85-4.37,3.48-5.87,5-8.94,3.09.82,6,1.74,4,6-.64.47-1.25.17-1.86-.07-2.32-.71-3.66.2-4.15,2.52a4.74,4.74,0,0,1-.55,1.24Z"/><path class="cls-181" d="M95,112A1.79,1.79,0,0,1,96.93,114c-.3,0-.6-.06-.91-.09-2.09,1.45-.28,4-1.6,5.68l-.57.41-.92,0a.59.59,0,0,1-.94-.11,2.11,2.11,0,0,0-2-1c0-1.1.16-2.29-1-3-.34-.22-.46-.44-.34-.66s.22-.34.33-.34l1,0C91.83,114.28,91.79,110.35,95,112Z"/><path class="cls-207" d="M95,112c-2.49-.36-2.72,3.09-5.06,3,.62-2,.71-4.65,4-4Z"/><path class="cls-207" d="M89,115c0,.33,0,.67,0,1H88c-2-.35-3.93-1-5-3C85.29,112.7,87,114.14,89,115Z"/><path class="cls-207" d="M81,112a6,6,0,0,1-5-5A15.06,15.06,0,0,1,81,112Z"/><path class="cls-232" d="M72,85c0-2,1.38-3.1,2.95-4h1C75,82.68,74.63,84.94,72,85Z"/><path class="cls-207" d="M76,107c-2-1-3.24-2.61-3-5C75,103.06,75.65,104.92,76,107Z"/><path class="cls-233" d="M86,92c1.76-6.15,6.8-6.27,11.8-6.27,3.45,0,1.83,4.3,4.21,5.31l.25.69-.43.59-.68.25c-2.44-.29-4.71-1.56-7.27-1.24-1.16.15-2.41.09-3.29.93C89,93.65,88,95.74,88.35,97.54c.4,2,2.8,1.09,4.31,1.13,3.06.08,6.32.7,8.53-2.51.44-.64,1.1.29,1.52.78,1,3.35.34,5.78-3.58,6.34-3,.27-5.94.18-8.92.17-2.47-.29-5-.44-7.19-1.77-1.37-.82-3.25-1.42-2-3.69h0C83.22,96.46,84.25,93.93,86,92Z"/><path class="cls-234" d="M107,83l1,1a1.74,1.74,0,0,1-.08,1.75c-.94,1.55,1.31,3.22-.15,4.75-1.43.85-2.89,1.5-4.59.89-1.84-1.85,1-4.58-1.19-6.37a38.62,38.62,0,0,0-3.83-2.11c-1.88-.78-2.71-2.23-1.82-3.88,1.08-2,3-1,4.25-.1C102.65,80.37,104,83,107,83Z"/><path class="cls-235" d="M83.89,86.11,85,87c-.12,1.12.29,2.4-1,3.15a3.77,3.77,0,0,1-3.86.46C78.3,87,78.54,86.69,83.89,86.11Z"/><path class="cls-236" d="M81.94,94.93c-4.43,2-2.81-2.39-4-3.82L78,91a5.65,5.65,0,0,1,5,1Z"/><path class="cls-237" d="M83,92a8,8,0,0,1-5-1l0-1a1.42,1.42,0,0,1,2,0l4,.2A2,2,0,0,1,83,92Z"/><path class="cls-192" d="M86,92c-1.41,2.22-1.15,5.81-5,6l1-3Z"/><path class="cls-238" d="M100.91,77.07c0-.69-.88-1.66.36-1.95a2.68,2.68,0,0,1,2.79,1.57c.73,1.19-.42,1.18-1.13,1.36Z"/><path class="cls-239" d="M102,85c4.58,1.17,0,4,1.09,5.86a.62.62,0,0,1-1,.09L102,91Z"/><path class="cls-240" d="M89,46C67.7,49.53,53.17,61,46.85,82c-1.11,3.69-1.13,3.67,2.19,5.85a1.43,1.43,0,0,1,.5,1.22c-.82,1.53-2.36.66-3.58.94l-3,0c-3-2.46-2.38-5.7-1.55-8.7a56.49,56.49,0,0,1,12.21-22.5C61.74,49.54,72,44.2,83.7,41.24A8.13,8.13,0,0,1,90,42v1C89,43.78,89.93,45.2,89,46Z"/><path class="cls-205" d="M89,46c0-1.09-.17-2.27,1-3,0,2.67,0,5.33,0,8C88.33,49.59,89.23,47.68,89,46Z"/><path class="cls-241" d="M115.19,87.66,114.88,86c-1.34-1.47-1.52-3.6-2.9-5.05-.37-.66-.75-1.31-1.13-2-.64-1-1.29-2-1.94-3,6.54,2,6.92,7.74,8,13.07Z"/><path class="cls-158" d="M35,126a2.08,2.08,0,0,1,1,2c-.54.71-1,.46-1.46-.11A1.16,1.16,0,0,1,35,126Z"/><path class="cls-158" d="M33,121l1,2c-.39.58-1,1-1.51.39C31.69,122.47,32.11,121.63,33,121Z"/><path class="cls-242" d="M90,152v7c-4.24-1.24-8.55-2.25-12.84-3.31C67.69,153.33,59,149.15,53,141c.16-1.56-1.39-2-2-3,4.28-3.68,4.82,1,7.15,2.78a63.35,63.35,0,0,0,20.7,10.37C82.65,152.23,86.36,150.72,90,152Z"/><path class="cls-243" d="M92,119.94l.94.11c0,4.13,0,8.26.08,12.39,0,1.55-.39,2.23-2,1.52C91.5,129.3,89.88,124.49,92,119.94Z"/><path class="cls-212" d="M128,88h6c0,.34,0,.67,0,1h-6c-.33-.22-.44-.45-.33-.67s.22-.33.33-.33Z"/><path class="cls-213" d="M128,88v1c-1.68.25-3.55-.59-5,.9-2-.15-4.22.85-6.06-.81,1.85-1.32,4-1.1,6.07-1.1Z"/><path class="cls-181" d="M96.88,136.92V129c2.15,2,.65,4.64,1.1,6.94Z"/><path class="cls-244" d="M113,107c2.35-1.26,2.68-3.56,3.19-5.86.4-1.84,1.34-3.83,3.69-2.81,2.09.91.53,2.55.05,3.82-.74,2-1.78,3.82-1.76,6.41,3.66-1.61,2.71-5,3.76-7.35.48-1.08-.27-3.24,1.74-2.84s1.19,2.26.83,3.67c-3.6,13.77-12.25,22-26.48,24-1-2.38-.22-4.89-.5-7.32-.22-1.93.5-2.83,2.45-3.5A28.64,28.64,0,0,0,110,109h0C110.89,108.2,111.1,106.34,113,107Z"/><path class="cls-181" d="M110,109a10.61,10.61,0,0,1-6.79,5.3c-4.74,1.34-6,4.33-5.24,8.76a19.33,19.33,0,0,1,0,3l-1.1.94L97,114c3.93,1.68,6.35-1.56,9.29-3C107.51,110.48,108.31,108.93,110,109Z"/><path class="cls-181" d="M113,107l-3,2c.09-2,1.45-3.11,3-4Z"/><path class="cls-63" d="M94,144l-.15-24,.24-.08c.81-.11,1.36,0,.89,1,0,6.11,0,12.23,0,18.34C95,140.9,95.48,142.66,94,144Z"/><path class="cls-245" d="M95,121l-.9-1A52,52,0,0,1,94,114.5c.12-1.34,1-1.58,2-.57C95.59,116.26,96.91,118.85,95,121Z"/><path class="cls-246" d="M89.93,102h9a1.57,1.57,0,0,1,.58,1q-.06,1.45-.24,2.91c-.24.6-.87.75-1.32,1.1l-7,2c-.76-2.12-4.15-2.06-4-4.9C86.61,101.4,89.32,103.24,89.93,102Z"/><path class="cls-247" d="M98,107l1-1c1.17-.9,1-2.73,2.42-3.48,1.69-.51,1.54-1.92,1.6-3.23.09-1.94,1-3.09,3-3.1,1.32.19,2.69.12,3.88.88,1.11,1.66,1.16,3.06-.94,3.95-3.68.45-2.74,2.76-2,5C104.31,109.23,101.33,109.75,98,107Z"/><path class="cls-248" d="M109.93,97c-1,.23-2,1.51-3,0a5.58,5.58,0,0,0-2.53-1.88,5.13,5.13,0,0,1-2.72-1.87,1.35,1.35,0,0,1,.1-1.29l.44,0c2.56-.35,5-1.6,7.67-1C108.87,92.94,111.27,95,109.93,97Z"/><path class="cls-249" d="M109.94,90.9c-2.4,1.48-5,1.32-7.67,1L102,91l1-.09L108,90c1.11-1.94-2.76-2.9-1-5l1-1C110.45,85.78,111.77,87.89,109.94,90.9Z"/><path class="cls-250" d="M107,106c-3.69-1.46-2-4-.82-5.91S108.58,99,109,101,107.94,104.43,107,106Z"/><path class="cls-195" d="M112,81c2.25,1,2.44,3.08,2.9,5.05C111.39,85.77,113.22,82.49,112,81Z"/><path class="cls-192" d="M89.93,102l-3,2a14.32,14.32,0,0,1-6.47-3.18c-1.19-1-2.3-2.4.51-2.86C82.32,103,86.49,101.7,89.93,102Z"/><path class="cls-251" d="M80,89.94H78c-.25-4.64,2.2-5.16,5.86-3.84C82.81,87.59,78.5,85.81,80,89.94Z"/><path class="cls-252" d="M101.83,92a5.23,5.23,0,0,1,.22,1,2.6,2.6,0,0,1,.39,2.56L102,96c-1,3.27-3.07,4.57-6.53,4.09a63.68,63.68,0,0,0-6.49-.09c-2.52-.08-4.68-.21-2-3.58,1.82-2.32,1-6.63,5.93-6.51A19.37,19.37,0,0,1,101.83,92Z"/><path class="cls-253" d="M104.92,94C107,94,107,95.52,107,97c-2-.17-3.16.59-3,2.75s-.69,3.43-3,3.29A1.23,1.23,0,0,1,99,102.9L99,102c4.83-.11,2.42-3.81,3-6h0C102.53,94.67,103.91,94.64,104.92,94Z"/><path class="cls-239" d="M107,85c-.74,1.87,3.2,2.82,1,5C107.54,88.33,104.54,87.2,107,85Z"/><path class="cls-254" d="M99,102.9l1.92.15c1.48,2.4.4,3.09-2,2.92A2.64,2.64,0,0,1,99,102.9Z"/><path class="cls-233" d="M104.92,94,102,96c0-1,0-2,.08-3Z"/><path class="cls-255" d="M94.21,98.78c-.55-.22-3.19,1-2.56-1.36.79-3,4-3.71,6.73-4.28,1-.21,2.2.42,2,1.62C99.73,97.63,98.27,99.68,94.21,98.78Z"/></g></g></svg>