<svg xmlns="http://www.w3.org/2000/svg" viewBox="0 0 188.12 186.96"><defs><style>.cls-1{fill:#fdfdfd;}.cls-2{fill:#584125;}.cls-3{fill:#574123;}.cls-4{fill:#604825;}.cls-5{fill:#584224;}.cls-6{fill:#6d4e2d;}.cls-7{fill:#634b29;}.cls-8{fill:#624d28;}.cls-9{fill:#5d4425;}.cls-10{fill:#634722;}.cls-11{fill:#7b6438;}.cls-12{fill:#6f542a;}.cls-13{fill:#6f5429;}.cls-14{fill:#715631;}.cls-15{fill:#5e4627;}.cls-16{fill:#6d4e24;}.cls-17{fill:#74582d;}.cls-18{fill:#392f25;}.cls-19{fill:#443321;}.cls-20{fill:#d7c58a;}.cls-21{fill:#9d8f51;}.cls-22{fill:#bdae71;}.cls-23{fill:#715427;}.cls-24{fill:#decc8e;}.cls-25{fill:#916c3e;}.cls-26{fill:#997543;}.cls-27{fill:#bca469;}.cls-28{fill:#856038;}.cls-29{fill:#7c5934;}.cls-30{fill:#785431;}.cls-31{fill:#7b5e35;}.cls-32{fill:#302821;}.cls-33{fill:#9e7a45;}.cls-34{fill:#a27e49;}.cls-35{fill:#8b683c;}.cls-36{fill:#795532;}.cls-37{fill:#916e3f;}.cls-38{fill:#b39258;}.cls-39{fill:#9f7b47;}.cls-40{fill:#846239;}.cls-41{fill:#977342;}.cls-42{fill:#88643a;}.cls-43{fill:#946f3f;}.cls-44{fill:#bfa569;}.cls-45{fill:#89663b;}.cls-46{fill:#a68048;}.cls-47{fill:#967341;}.cls-48{fill:#a27c46;}.cls-49{fill:#bb9c5f;}.cls-50{fill:#302923;}.cls-51{fill:#71512e;}.cls-52{fill:#9d7844;}.cls-53{fill:#815e37;}.cls-54{fill:#87653b;}.cls-55{fill:#d3c485;}.cls-56{fill:#a99d5f;}.cls-57{fill:#332a21;}.cls-58{fill:#ae8c54;}.cls-59{fill:#cab378;}.cls-60{fill:#876f37;}.cls-61{fill:#41321d;}.cls-62{fill:#856237;}.cls-63{fill:#796c2d;}.cls-64{fill:#322921;}.cls-65{fill:#403526;}.cls-66{fill:#a6985b;}.cls-67{fill:#a89b5d;}.cls-68{fill:#987845;}.cls-69{fill:#b6945b;}.cls-70{fill:#cbb072;}.cls-71{fill:#ddca8d;}.cls-72{fill:#ac8c54;}.cls-73{fill:#c5b074;}.cls-74{fill:#e0cf95;}.cls-75{fill:#c4ab70;}.cls-76{fill:#d8ca8e;}.cls-77{fill:#9d7d4a;}.cls-78{fill:#d0b97d;}.cls-79{fill:#534326;}.cls-80{fill:#342715;}.cls-81{fill:#88673c;}.cls-82{fill:#775d35;}.cls-83{fill:#54472c;}.cls-84{fill:#b4a668;}.cls-85{fill:#bc9e63;}.cls-86{fill:#554c3d;}.cls-87{fill:#9f7e4a;}.cls-88{fill:#4a4034;}.cls-89{fill:#977443;}.cls-90{fill:#856138;}.cls-91{fill:#b19d63;}.cls-92{fill:#aa8950;}.cls-93{fill:#554c3e;}.cls-94{fill:#927a40;}.cls-95{fill:#8d6f43;}.cls-96{fill:#8f6b3f;}.cls-97{fill:#c6b980;}.cls-98{fill:#7d5c35;}.cls-99{fill:#b4a669;}.cls-100{fill:#453b30;}.cls-101{fill:#6f4d2d;}.cls-102{fill:#b6a86c;}.cls-103{fill:#997a46;}.cls-104{fill:#a0824e;}.cls-105{fill:#a99e5e;}.cls-106{fill:#3e362e;}.cls-107{fill:#bc985a;}.cls-108{fill:#866037;}.cls-109{fill:#b58a4c;}.cls-110{fill:#c7ad6f;}.cls-111{fill:#bc995b;}.cls-112{fill:#806235;}.cls-113{fill:#d6c286;}.cls-114{fill:#a47c45;}.cls-115{fill:#916e40;}.cls-116{fill:#5b4327;}.cls-117{fill:#a49558;}.cls-118{fill:#a7864d;}.cls-119{fill:#ece19e;}.cls-120{fill:#3c342a;}.cls-121{fill:#8e8978;}.cls-122{fill:#8a7244;}.cls-123{fill:#42321b;}.cls-124{fill:#3e3117;}.cls-125{fill:#7c613c;}.cls-126{fill:#675235;}.cls-127{fill:#aea060;}.cls-128{fill:#5f4e31;}.cls-129{fill:#c1b478;}.cls-130{fill:#3a332c;}.cls-131{fill:#cdb275;}.cls-132{fill:#b08e53;}.cls-133{fill:#937142;}.cls-134{fill:#8e6b3e;}.cls-135{fill:#987744;}.cls-136{fill:#d8c488;}.cls-137{fill:#d6c183;}.cls-138{fill:#85633a;}.cls-139{fill:#3f3c35;}.cls-140{fill:#795f35;}.cls-141{fill:#2a2625;}.cls-142{fill:#6c512f;}.cls-143{fill:#62522b;}.cls-144{fill:#755b3a;}.cls-145{fill:#786c58;}.cls-146{fill:#4c443a;}.cls-147{fill:#494741;}.cls-148{fill:#4e3d26;}.cls-149{fill:#43341d;}.cls-150{fill:#b79b5b;}.cls-151{fill:#89693c;}.cls-152{fill:#a1814b;}.cls-153{fill:#9a9586;}.cls-154{fill:#302b26;}.cls-155{fill:#9e9c93;}.cls-156{fill:#898475;}.cls-157{fill:#918d7d;}.cls-158{fill:#989384;}.cls-159{fill:#312b27;}.cls-160{fill:#9d998a;}.cls-161{fill:#927347;}.cls-162{fill:#8c8778;}.cls-163{fill:#999484;}.cls-164{fill:#98958a;}.cls-165{fill:#878273;}.cls-166{fill:#5e523e;}.cls-167{fill:#d7c384;}.cls-168{fill:#473d31;}.cls-169{fill:#837d6c;}.cls-170{fill:#413b33;}.cls-171{fill:#c1a164;}.cls-172{fill:#3c342c;}.cls-173{fill:#a09b8c;}.cls-174{fill:#453928;}.cls-175{fill:#aa8f5f;}.cls-176{fill:#bea260;}.cls-177{fill:#795b37;}.cls-178{fill:#241b0f;}.cls-179{fill:#a6a395;}.cls-180{fill:#9a9686;}.cls-181{fill:#b6b09e;}.cls-182{fill:#cdc6b1;}.cls-183{fill:#adaa9f;}.cls-184{fill:#8d693c;}.cls-185{fill:#434039;}.cls-186{fill:#806139;}.cls-187{fill:#c1bdab;}.cls-188{fill:#d2ccb8;}.cls-189{fill:#aba99f;}.cls-190{fill:#2c2826;}.cls-191{fill:#ebe4cb;}.cls-192{fill:#9c7946;}.cls-193{fill:#e5dfc8;}.cls-194{fill:#7e613c;}.cls-195{fill:#dbd5bf;}.cls-196{fill:#e0dac4;}.cls-197{fill:#d6d0bb;}.cls-198{fill:#a7a393;}.cls-199{fill:#c3beac;}.cls-200{fill:#775934;}.cls-201{fill:#8d6d40;}.cls-202{fill:#816541;}.cls-203{fill:#cec8b5;}.cls-204{fill:#aba797;}.cls-205{fill:#c5c0ac;}.cls-206{fill:#bdb8a7;}.cls-207{fill:#b6b1a0;}.cls-208{fill:#9e9a8b;}.cls-209{fill:#a7a394;}.cls-210{fill:#ada999;}.cls-211{fill:#9f9c91;}.cls-212{fill:#ada898;}.cls-213{fill:#715534;}.cls-214{fill:#c8bea6;}.cls-215{fill:#c1bdac;}.cls-216{fill:#b6b3a7;}.cls-217{fill:#d6cfb8;}.cls-218{fill:#ddd6bf;}.cls-219{fill:#c7c3b6;}.cls-220{fill:#cecabc;}.cls-221{fill:#e3dcc4;}.cls-222{fill:#d4d0c1;}.cls-223{fill:#e6dfc7;}.cls-224{fill:#dad5c6;}.cls-225{fill:#e9e2c9;}.cls-226{fill:#dedaca;}.cls-227{fill:#49463f;}.cls-228{fill:#4d4b45;}.cls-229{fill:#584c3b;}.cls-230{fill:#cbc5b1;}.cls-231{fill:#bcb7a8;}.cls-232{fill:#d4ceb8;}.cls-233{fill:#b7b4a9;}.cls-234{fill:#e0d9c4;}.cls-235{fill:#6f5331;}.cls-236{fill:#aa8b56;}.cls-237{fill:#ccb267;}.cls-238{fill:#c6ae6c;}.cls-239{fill:#ddd5bf;}.cls-240{fill:#684f2f;}.cls-241{fill:#b99f68;}.cls-242{fill:#d7cba4;}.cls-243{fill:#967343;}.cls-244{fill:#514f49;}.cls-245{fill:#ebe4cc;}.cls-246{fill:#dfd8c2;}.cls-247{fill:#e5dec7;}.cls-248{fill:#b7b19f;}.cls-249{fill:#aca99f;}.cls-250{fill:#b8b5aa;}.cls-251{fill:#5d5a52;}.cls-252{fill:#55524c;}.cls-253{fill:#58564f;}.cls-254{fill:#ad894e;}.cls-255{fill:#8b673c;}.cls-256{fill:#9f7b48;}.cls-257{fill:#8a7659;}.cls-258{fill:#a98850;}.cls-259{fill:#4c4a43;}.cls-260{fill:#493922;}.cls-261{fill:#372916;}.cls-262{fill:#2c2012;}.cls-263{fill:#b7a47c;}.cls-264{fill:#ccb571;}.cls-265{fill:#b08f54;}.cls-266{fill:#a38b61;}.cls-267{fill:#897e69;}</style></defs><g id="Layer_2" data-name="Layer 2"><g id="Layer_4_Image" data-name="Layer 4 Image"><path class="cls-1" d="M81,1.9,82,0h23l1,1.9c-1.38,1.67-3.37,1.27-5.17,1.52A8.07,8.07,0,0,1,95.46,3c-3.07-1.42-6,.72-9,.35C84.5,3.23,82.46,3.64,81,1.9Z"/><path class="cls-1" d="M0,88c1.62-.79.28-3.36,2.34-3.88,1.17,1.48.93,3.26,1.05,5-.08,3.09,0,6.19,0,9.28a8.46,8.46,0,0,1-.83,4.11l-.63.57c-1.49-.94-.29-3.16-1.91-4Z"/><path class="cls-2" d="M14.12,139.92l-.33-.94c-2.16-1.82-2.67-4.55-3.79-6.94l-1.81-4c.62-1.08-.54-3.18,1.85-3.27,1.71.79,2.28,2.42,3,4,2.15,5.71,5.71,10.63,8.85,15.79a83.88,83.88,0,0,0,17.6,18.62,44.64,44.64,0,0,0,7.65,5.2A24.55,24.55,0,0,0,51.57,171c1.41.69,2.76,1.49,4.14,2.23,3.21,1.23,6.31,2.74,9.54,3.93,2.3.7,4.66,1.21,7,2,1.65.92,4.29.06,5,2.74-.82,1.28-2.29,1-3.48,1.45-3.24-.7-6.67-.62-9.69-2.26l-7.62-3.23c-1.74-1-4-1.07-5.4-2.67-.83-.23-1.84-.14-2.25-1.18A34.15,34.15,0,0,1,36,165.15L35.8,165c-2.25-1.32-4.61-2.5-5.73-5.09l0,0A3,3,0,0,1,28,158.12L26.84,157c-2.77-1.59-4.12-4.39-5.84-6.87L18.88,147a6.92,6.92,0,0,1-2.76-4.05l0,0C15.39,141.94,14.32,141.22,14.12,139.92Z"/><path class="cls-3" d="M155,25a2.84,2.84,0,0,0,2.66,2.15c3.31,1.14,4.58,4.2,6.34,6.8l0,.06a5.38,5.38,0,0,1,2.84,3.28.55.55,0,0,0,.32.67c2.43,1.78,3.72,4.32,4.79,7l0,.05a16.42,16.42,0,0,1,3.95,7.07,13.88,13.88,0,0,0,2.84,6c1.41.51.58,2,1.2,2.84l0,.08a3.64,3.64,0,0,1,.9,2.87c-.08,1.07-.35,2-1.54,2.34-1.79-.68-2.14-2.47-3-3.86-1.23-2.06-1.22-4.7-3.05-6.49a5.53,5.53,0,0,1-1.07-1.64,11.2,11.2,0,0,0-1.27-3c-2.14-2.41-2.51-5.82-4.64-8.23A22.09,22.09,0,0,0,164,40.7c-2.77-2.88-4.4-6.7-7.67-9.16a112.19,112.19,0,0,0-15.87-12.79,38,38,0,0,0-7.3-4c-3.93-1.78-8-3.32-12-4.9-1.49-.58-3.32-.83-3.64-2.92a1.82,1.82,0,0,1,2.3-1.52c2-.48,3.6.36,5.08,1.56l.1,0c2.85.47,5.74.84,7.83,3.18.41,1,1.29.82,2.1.85,1.74.82,3.93.85,5,2.84L142,15A17.14,17.14,0,0,1,150,20.72l1.84,1.34C153.2,22.72,154.5,23.42,155,25Z"/><path class="cls-4" d="M155.94,161l-1,1a3,3,0,0,1-2.1,1.95l-2,1.85A26.67,26.67,0,0,1,140,173l-1.15.77c-1.55,2-4,2.32-6.17,3.11-.78,0-1.51.07-1.78,1-.6,1.31-2,.5-2.89,1.12l-.07,0c-.79,1.15-2.15.31-3.1.91L122,181.11c-2,2-4.65,1.29-7,1.78l0,0a1.87,1.87,0,0,1-2,.39c-1.17-.25-2.47-.25-3.16-1.51,1.72-3.35,5.46-2.28,8.06-3.7.39-.21.8-.4,1.2-.61,1.17-1.43,1.83-3.37,4.56-1.78,1.91,1.12,4-.9,6-1.44a40.54,40.54,0,0,0,4.22-2,32.2,32.2,0,0,0,5.78-3.18c3.94-2.87,8.45-5,11.6-8.92a16.25,16.25,0,0,0,5.51-5.27c2.23-.31,2.84-3.32,5.33-3.23a2.27,2.27,0,0,1,1.31,1.49C161.67,156.54,159.9,159.78,155.94,161Z"/><path class="cls-5" d="M163.19,153.07,162,151.93c-.27-2.89,2.29-4.27,3.38-6.43a62.31,62.31,0,0,0,5-7.94c1.74-3.69,4.53-6.88,5.28-11,.34-2.16,1.64-3.93,2.37-5.93.54-1.12,1-2.32,2.28-2.84,1.43.3,1.13,1.46,1.2,2.44-.1,3.15-.57,6.18-2.76,8.68-.9.42-.84,1.23-.8,2-.47,1.43-.56,3.06-2,4h0A8,8,0,0,1,173,140c-1.21.2-.95,1.18-1,2-1.05,2.74-2.32,5.32-4.83,7.05L164,152.93C163.78,153.39,163.52,153.44,163.19,153.07Z"/><path class="cls-6" d="M185.86,86.23a.37.37,0,0,0,0,.58c-.44.74-.05,1.8-.92,2.38-1.37.15-1.92-.94-2.67-1.74a14.74,14.74,0,0,0-1.92-2c-4.08-1.32-7.3-3.33-6.7-8.38.29-2.63-.39-6.58,3.41-6.37s4.08,4,4,7.22c0,.66-.32,0,0,.45.54.7.34-.52.77-.5a1.45,1.45,0,0,1,1.25-.11c1.31,1.42,1,3,.64,4.7-.51,2.13.59-.49.58.19C186.25,83.23,185,85.22,185.86,86.23Z"/><path class="cls-7" d="M120.33,5.8c-.92.19-1.87.33-2.38,1.28-2.54,2-5.11,0-7.66.07a28.37,28.37,0,0,0-6.06-1,7.82,7.82,0,0,1-1.52-.36c-1.31-.89-4-.82-2.6-3.64L106,1.9l2,.15A88.22,88.22,0,0,0,120,5L120,5A.54.54,0,0,1,120.33,5.8Z"/><path class="cls-1" d="M106,185a5,5,0,0,1-3.86,1.92q-8.64.1-17.29,0A4.9,4.9,0,0,1,81,185c1.65-1.71,3.79-1.25,5.81-1.34a32.18,32.18,0,0,0,14.25,0C102.81,183.69,104.63,183.48,106,185Z"/><path class="cls-8" d="M185.88,99l-1,4.79a.77.77,0,0,1-1,.53,4.61,4.61,0,0,1-1.53-1.09c-.83-1-2.15-1.35-2.84-2.46-.63-2.63,1.94-4,2.46-6.14a5,5,0,0,1,.88-1.2c1.68-1.16,2.91-.67,3.82,1A4.89,4.89,0,0,1,185.88,99Z"/><path class="cls-9" d="M183,78h-1c-1.94-3.77-4.13-7.48-3-12,.9-.54,1-1.47,1.2-2.37,2.06.35.69,2.48,1.74,3.35a3.11,3.11,0,0,0,1.12,3c1.07,2.43.68,5.1,1.22,7.62A.81.81,0,0,1,183,78Z"/><path class="cls-1" d="M5.78,119.93C3,114.63-.2,109.44,1.91,103l.38-.28c3.52,3.13,1.81,7.82,3.44,11.51.33,1.71,1.21,3.36.62,5.18Z"/><path class="cls-1" d="M183.85,78.05c-1.16-2.59-.71-5.35-.8-8,3.83,4.91,2.42,10.73,2.81,16.23l-1.78-3.52C183.05,81.2,183.41,79.63,183.85,78.05Z"/><path class="cls-1" d="M36,165.15,48.74,174C42.77,173.51,38.8,170.16,36,165.15Z"/><path class="cls-1" d="M184.05,104.21l.82-.42c1.34,4.69,1.74,9.24-2,13.15-2-2.61-1.06-5.38-.44-8.13C182.76,107.2,182.53,105.39,184.05,104.21Z"/><path class="cls-1" d="M185.88,99l.18-5c-1.09-1.56-2.08-3.14-1.23-5.17l1-2C188.87,91.54,188.87,95.67,185.88,99Z"/><path class="cls-10" d="M183.85,108.9c-1.27,2.57-.5,5.38-1,8-1.42.66-.83,1.94-.94,3l-.28.38h-.48l-1-2.34c-1.56-3.18-.67-6.17.74-9.11a2.71,2.71,0,0,1,1.5-.56A2.6,2.6,0,0,1,183.85,108.9Z"/><path class="cls-1" d="M140,173l10.87-7.2C149.42,169.32,143.77,173.06,140,173Z"/><path class="cls-1" d="M64,181.05l10.09,1.77a4.91,4.91,0,0,1,2.76-.27c1.25.27,2.26.79,2.4,2.25C74.17,183.58,68.45,184.92,64,181.05Z"/><path class="cls-1" d="M163.19,153.07a2.83,2.83,0,0,0,.77-.14c-1.27,4.08-2.84,7.85-8,8Q159.57,157,163.19,153.07Z"/><path class="cls-11" d="M6,122.14c-1.11-.65.23-1.5-.18-2.21l.35,0c1.2-3.06-2.63-6-.27-9.06,4.44,2.43,3.12,7,4,10.72-.33,2-1.58,1.5-2.83,1A2.16,2.16,0,0,1,6,122.14Z"/><path class="cls-1" d="M150,20.72,142,15C145.48,14.92,149.45,17.72,150,20.72Z"/><path class="cls-1" d="M120,5c-4.31.29-8.23-1-12-2.93C112.07,2.55,116.2,3,120,5Z"/><path class="cls-1" d="M172,45l-4.79-7C169.8,38.39,172.31,42.06,172,45Z"/><path class="cls-1" d="M167.11,149l4.83-7.05C172.32,144.94,169.81,148.61,167.11,149Z"/><path class="cls-1" d="M132.86,10.21,125,7C128.6,5.72,131.22,6.77,132.86,10.21Z"/><path class="cls-1" d="M164,34l-6.34-6.8C161.36,27.9,163.72,29.93,164,34Z"/><path class="cls-1" d="M181.16,120.33a4.15,4.15,0,0,0,.76-.38c0,3.34.86,7-3.22,8.91Z"/><path class="cls-1" d="M21,150.1A23.66,23.66,0,0,1,26.84,157C22.87,156.4,22,153.18,21,150.1Z"/><path class="cls-12" d="M79.26,184.8,76.78,183c2.63-2.17,5.63.48,8.34-.66a6.28,6.28,0,0,1,1.43-.17,3.34,3.34,0,0,1,1.35.46c.77,1.2-.06,1.7-1,2.18L81,185Z"/><path class="cls-1" d="M175.92,52.1Q174,48.56,172,45C174.62,46.64,177,48.39,175.92,52.1Z"/><path class="cls-1" d="M30.07,159.91,35.8,165C32.46,164.92,30.34,163.45,30.07,159.91Z"/><path class="cls-1" d="M10,132A24.41,24.41,0,0,1,13.79,139C10.46,137.8,9.84,135.13,10,132Z"/><path class="cls-13" d="M6.89,122.16c1.33-1.42,1.3,1,2.21.78,1.57.15,1.49,1,.84,2s-1.17,2-1.75,3l-.36-1C7.19,125.42,5.45,124.1,6.89,122.16Z"/><path class="cls-1" d="M115,182.89c2.12-1.47,4.77-.83,7-1.78C120.33,184.46,117.71,184,115,182.89Z"/><path class="cls-14" d="M106,185l-5-.13c-.86-.47-1.65-1-1-2.14a3.1,3.1,0,0,1,2-.61,7.18,7.18,0,0,1,1.39.21c1.54.54,3.3.34,4.68,1.41a.72.72,0,0,1-.25,1.13Z"/><path class="cls-1" d="M107.78,184.86l.53-.85c1-2.4,2.89-1.54,4.62-1.15l2,0C112.87,184.76,110.41,185.12,107.78,184.86Z"/><path class="cls-1" d="M181.93,67l-1.74-3.35c-.06-.87-.13-1.73-.19-2.6C183.6,62,181.31,65,181.93,67Z"/><path class="cls-1" d="M132.69,176.84l6.17-3.11C138.08,177.3,135.15,176.6,132.69,176.84Z"/><path class="cls-1" d="M173,140l2.91-5.05C177.6,138.14,175.21,139,173,140Z"/><path class="cls-1" d="M140,13.9l-5-2.84C137.2,11,139.62,10.63,140,13.9Z"/><path class="cls-1" d="M16.12,142.92c1.5,1,2.05,2.56,2.76,4.05C16.74,146.45,14.71,145.85,16.12,142.92Z"/><path class="cls-1" d="M120.33,5.8A3.12,3.12,0,0,0,120,5c2.58-1.7,3.79,0,4.89,2Z"/><path class="cls-1" d="M6.89,122.16c.32,1.6.63,3.2.94,4.8-1.69-1.19-3.57-2.31-1.87-4.82A1,1,0,0,1,6.89,122.16Z"/><path class="cls-1" d="M51,175.15c2,.43,4,1,5.4,2.67C54.33,177.46,51.93,177.79,51,175.15Z"/><path class="cls-1" d="M155,25l-3.1-2.94C153.7,22.19,156.31,21.5,155,25Z"/><path class="cls-1" d="M175.9,134.91q1-2,2-4C178.84,133,178.58,134.57,175.9,134.91Z"/><path class="cls-1" d="M14.12,139.92a3.91,3.91,0,0,1,2,3C15.23,142,12.26,142.59,14.12,139.92Z"/><path class="cls-1" d="M166.84,37.29A6.88,6.88,0,0,1,164,34C167.34,33,166.42,35.74,166.84,37.29Z"/><path class="cls-1" d="M180,60.94c-1.11-.65-1-1.82-1.2-2.84C181.49,58.05,180.64,59.53,180,60.94Z"/><path class="cls-1" d="M28,158.12c1.17,0,1.61.92,2.08,1.77-.7.25-1.36,1-2.14.32S27.72,158.82,28,158.12Z"/><path class="cls-1" d="M152.86,163.91,155,162c.22.73,1,1.46.13,2.2S153.6,164.12,152.86,163.91Z"/><path class="cls-1" d="M128,179c.66-1.15,1.87-.88,2.89-1.12C130.86,180.54,129.38,179.59,128,179Z"/><path class="cls-1" d="M124.85,179.89c.78-1.17,2-.81,3.1-.91C127.65,181.8,126.1,180.34,124.85,179.89Z"/><path class="cls-15" d="M6.16,67c5.8-21.24,18.6-37.4,36.42-49.81a88,88,0,0,1,24-11.5c1.22-.39,2.34-1.45,3.44.11.62,1.52-.67,2.15-1.4,3A5.23,5.23,0,0,1,66,10.08c-6.82.79-11.77,5.46-17.54,8.44-5,3.05-9.9,6.27-13.87,10.68-3,2.59-6.21,5-8.61,8.22a18.2,18.2,0,0,1-1.3,1.47C23,40.6,22,42.78,20.5,44.66c-2.05,3.07-4.19,6.09-5.48,9.59a13.49,13.49,0,0,1-.39,1.38C10.86,62.29,10.52,70.18,7.07,77a1.23,1.23,0,0,1-1.33,0C3.45,73.53,7.47,70.39,6.16,67Z"/><path class="cls-16" d="M2.15,88.83c.07-1.57.13-3.15.19-4.72,1.27-4.08.35-8.6,2.49-12.5,1.49,1.47,0,3.57,1.06,5.12l.19.35A10.66,10.66,0,0,1,6,85.67a13.71,13.71,0,0,1-1,1.78C4.2,88.3,3.6,89.44,2.15,88.83Z"/><path class="cls-17" d="M68,8.06l2-2.23L72.93,5c2.75-.45,5.45-1.33,8.29-.71a1.57,1.57,0,0,1,1,1.29A16.48,16.48,0,0,1,68,8.06Z"/><path class="cls-18" d="M81.81,4.77,72.93,5c1.54-1.83,3.88-1.34,5.82-2,1.2-.7,2.51-.4,3.78-.4.84,0,1.71.26,1.32,1.34C83.55,4.7,82.66,4.86,81.81,4.77Z"/><path class="cls-17" d="M81.81,4.77c.36-.32,1-.59,1-1,.24-1.13-.73-.6-1.19-.66C80.7,3,79.73,3,78.75,3L81,1.9,87,2c.25,3.94-1.84,4.27-4.86,3.16Z"/><path class="cls-19" d="M5.89,76.73c-1.74-1.42-.44-3.47-1.06-5.12-.46-1.79,1.2-3,1.33-4.58,2.63.93.75,2.83.53,4A39.69,39.69,0,0,0,5.89,76.73Z"/><path class="cls-20" d="M82.11,5.16c2-.46,4.68.12,4.86-3.16,3,.88,6-2.53,9,.06-1.47,2.59-5.46,2.79-6,6.29-.41,1.12-.86,2.22-1.33,3.31s-1.24,2.84-2.16,2.26c-5.26-3.25-10.15,1.26-15.21.42-3.2.64-6.51.33-9.67,1.5-2.42.9-3.24-.64-3.29-2.82,1.71-3,5.16-2.63,7.69-4l2-.93Z"/><path class="cls-21" d="M89.07,8.07c.24-4.34,4-4.71,6.86-6,1.38,1,2.78.29,4.17,0-.37,2.39,2.27,1.54,3,2.76a4.45,4.45,0,0,1-.8,3.33,5.25,5.25,0,0,1-3.9,1.17,2.15,2.15,0,0,1-1-.77c-.61-1-1-2.2-2.45-2.31-.4,0-.8,0-1.2.07C92,6.54,91,8.62,89.07,8.07Z"/><path class="cls-22" d="M2.15,88.83,4,87c1-.52,1.66,0,2.24.77A2.43,2.43,0,0,1,6.39,89C5.94,90.22,5,91.19,4.84,92.49c-.12,2.56,1.31,4,3.5,5A4.37,4.37,0,0,1,11,100.69a6.12,6.12,0,0,1,0,1.42c-1.17,1.88-1.19,4.14-1.92,6.17a2.77,2.77,0,0,1-2.64.26c-1.75-1.19-.19-3.36-1.42-4.71s-1.74-3.3-2.92-4.76Z"/><path class="cls-23" d="M2.12,99.07c2.51.16,2.18,2.84,3.56,4,2.49,1.72-1.48,4.15.65,5.92A1.64,1.64,0,0,1,6,110.4c-1.22,1.46.3,3.56-1.15,5-2.17-3.94-1.2-8.51-2.55-12.62C2.23,101.53,2.18,100.3,2.12,99.07Z"/><path class="cls-24" d="M5.87,110.07l0-1c-.24-.26-.3-.49-.18-.71s.21-.31.3-.31l3,0c2.12.43,3.24,2.29,4.88,3.42,1.5,2.26,3.18,4.4,4.77,6.6a16.79,16.79,0,0,1,1,4.12,23.26,23.26,0,0,0,.42,5.39c.21,1.64.33,3.4-1.11,4.59-1.94,1.59-4,3.47-5.38-.66A6.4,6.4,0,0,0,11.93,129q-1-2-2-4l-.84-2c-.87-4.07-1.3-8.26-3-12.14-.36,0-.52-.18-.48-.37S5.77,110.07,5.87,110.07Z"/><path class="cls-25" d="M47,169c-3.39-.52-5.47-3.09-7.93-5.06.29-1.57,2.09-1.32,2.9-2.37-2.66-1.79-5-3.88-7.61-5.67-7-4.84-7.32-12.71-9.18-19.88-.05-.19.44-.42.78-.52,5,1.43,5.71,6.76,8.88,9.85.47,1,1.25,2.07,1.26,3.13.07,4.91,3.14,5.83,7.14,5.68a22.71,22.71,0,0,1,10.15,7.4,3.77,3.77,0,0,1-1,2.58c-.83,1.19-3.56.77-2.79,3.33a2,2,0,0,1-.63,1.82A1.86,1.86,0,0,1,47,169Z"/><path class="cls-26" d="M26.08,136c1.44,4.89,2.26,10.08,4.48,14.59,2.07,4.21,7.18,5.86,10.57,9.12,1,1,3.82.22,3.39,2.63-.46,2.63-2.77.53-4.14,1.06-.46.18-.91.4-1.36.6a66.18,66.18,0,0,1-18-19,1.44,1.44,0,0,1,1.3-.22,6.24,6.24,0,0,0,1.82.76c.82,0,.55-.64.47-1.07-.44-2.26-.43-4.58-1.44-6.76-.77-1.66-.9-3.4,1.85-3.27C25.78,134.66,26.26,135.09,26.08,136Z"/><path class="cls-27" d="M22,145l-.93-.07A57.61,57.61,0,0,1,11.93,129c.6.51,1.23,1,1.82,1.53.8.72.69,3.07,2.18,2.18s3.89-1.63,3.11-4.55c-.52-1.92-1.77-4-.13-6,1.62-.76,2,.72,2.69,1.52a49.47,49.47,0,0,1,2.12,5,11.71,11.71,0,0,1,1,3.21c0,3-2.05,2-3.62,2-1.28,1.45.8,1.26,1,2C25.55,141,25.53,142.43,22,145Z"/><path class="cls-28" d="M71.93,180a16.53,16.53,0,0,1-7-2c-3.83-1.06-3.2-4.74-4.31-7.39a1.33,1.33,0,0,1,.78-1.1,15.39,15.39,0,0,1,8.63,2.86c.57.72.72,2.09,2.2,1.43a4.27,4.27,0,0,1,1.26-.29c1.14,0,2.25.25,3.37.39,1.58.47,3.45.67,3,3.1-1.79,1.3-5.17-.13-5.8,3.36C74.08,180.61,72.64,180.53,71.93,180Z"/><path class="cls-29" d="M71.93,180c.5,0,1.3.12,1.45-.13,2.23-3.59,2.21-3.61,6.62-2.92l.64,0c1,.27,2.08.38,3.12.6a5.39,5.39,0,0,1,1.7,1.76c.39.46.77.93,1.14,1.4.42.68,1,1.34.41,2.2l-1.22.11c-3.12,1.17-5.84-.64-8.73-1.19C75.76,180.12,73.22,181.8,71.93,180Z"/><path class="cls-30" d="M61,170c2.62,2,1.14,6.09,4,8-3.59-.68-6.75-2.41-10-4C56,171.16,57.48,169.05,61,170Z"/><path class="cls-31" d="M49.06,167c-.6-.09-1.58-.23-1.34-.87.72-1.89,2.4-2.31,4.27-2.18,1.79.42,2.57,1.73,3,3.38.44,3-.92,4.51-3.94,4.56-1.53-.73-3.25-1.19-4.08-2.9L49,169C49.73,168.33,49.8,167.69,49.06,167Z"/><path class="cls-28" d="M51,171.92c1.9-1.1,3.68-2.28,3-4.95,2.62.35,5.61-.19,7,3l0,0c-2.68.26-3.65,3.12-5.95,4Z"/><path class="cls-32" d="M77.06,181.87l8.73,1.19c-3,2.15-6-.54-9,0l-2.68-.22C74.83,181.71,76,182.05,77.06,181.87Z"/><path class="cls-33" d="M110,6l8,1.09L134,14c.54,2.27,3.87,1.37,4.29,3.77-.7,1.25-2,1.7-3.11,2.43-1.19.29-2.16-.55-3.29-.61-6.42-1.17-12.4-4.26-19.17-4a3.58,3.58,0,0,1-3.84-3.68c2.51-2.18,5.61.51,8.4-.73C115.64,7.93,110.14,10.79,110,6Z"/><path class="cls-34" d="M141,18a70.59,70.59,0,0,1,16.12,12.94c-2.18.78-4.71,1-5.8,3.57A19.33,19.33,0,0,1,140,25.74C138.53,23.26,136.9,20.05,141,18Z"/><path class="cls-35" d="M141,18c-2,3.3-1.38,6.13,1.28,8.85A34.07,34.07,0,0,0,152,34a3.64,3.64,0,0,1,2.77,2.36,5.18,5.18,0,0,1-.32,4.38c-1.69,1.25-2.85-.06-3.76-1C147.19,36,143,33.11,139.5,29.49c-2.87-2.69-4.09-5.79-2.32-9.6a2.86,2.86,0,0,1,.73-1.8c-1.06-1.61-4.19-1.2-3.94-4.07C136.48,15,139.11,15.85,141,18Z"/><path class="cls-36" d="M179,66c1.75,3.81.74,8.31,3,12v4.42c-2.3-1.73-1.86-3.71-2-5.54-.2-2.3-.36-5.48-3.15-5.29S175.33,75,175,77c-2.64-.25-1.76-2.55-2.32-4s-.57-3.8-3.32-2.8c-1.23-.63-1.4-1.79-1.51-3,1.28-4.59,1.79-4.77,5.62-2,.51-1.89-.8-3.71-.14-5.53,3-2.18,2.15,2,3.69,2.25A5.85,5.85,0,0,1,179,66Z"/><path class="cls-37" d="M172.91,54,174,55c-.26,2.27-1.67,1.49-2.76.91a6.66,6.66,0,0,1-2.71-3.39c.42-3.72-1.93-.82-2.91-1.21-2.27-2.23-4.68-4.21-8.1-4.3-2.14-.7-3.26-2.11-3-4.43,1.43-2,3.46-1.47,5.26-1a21.73,21.73,0,0,0,7.18.49c2.9,2.24,2.64,6.35,5.21,8.79A3.93,3.93,0,0,0,172.91,54Z"/><path class="cls-38" d="M154,36l-2-2c-1.2-4.43-1-4.53,5.15-3.09,3.73,2.07,4.93,6.31,7.81,9.12-1.12,3.31-3.5,2.05-5.35,1.17A13.1,13.1,0,0,1,154,36Z"/><path class="cls-39" d="M154,36a14,14,0,0,1,4.87,3.31c1.79,1.89,3.82,2.5,6.09.73l2,2.07c-4,3.43-8-.66-12-.06-.76.1-1.09-.21-.93-1Z"/><path class="cls-40" d="M168.87,51.93c1.83.8,1.75,4.76,5.09,3.08,2.91,1.49,1.88,4.7,3,7-2.3.33-1.4-2.6-3-3-4.08-.37-5.62-3.11-6.27-6.69A.85.85,0,0,1,168.87,51.93Z"/><path class="cls-41" d="M172.91,54c-1.13-.78-2.77-1.43-.82-3.05C173.2,51.71,173,52.85,172.91,54Z"/><path class="cls-42" d="M103.15,183l-1.27-.16c-1.09-1.35-.63-2.8-.29-4.25a6.39,6.39,0,0,1,1-2.67c1.66-1.7,4,0,5.75-1.13a8.88,8.88,0,0,1,1.94-.79,8.68,8.68,0,0,1,2.92-.15c2.57.94,5.57,1.4,5.82,5l-9.09,3C107.89,183.56,105.43,182.8,103.15,183Z"/><path class="cls-43" d="M130,175c-2.76.33-4.8,5.12-8.38,1.22-.43-.47-.06,2.37-1.67,2.62-1.48-1.6-.72-4-2.09-5.66-.8-.86-1.95-1.42-2.34-2.64,1.86-4.17,5.9-4,9.47-4.79,1.35,1.33,1.5,3,1.42,4.79-.11.63-1.16,1.09-.9,1.44.5.67,1-.23,1.52-.44C130.49,170.55,130.56,172.49,130,175Z"/><path class="cls-44" d="M152,161c-3.29,3.94-7.64,6.49-12,9a6.92,6.92,0,0,1-4.74-.43c-1.2-1.22-1.12-2.88-1.47-4.4a2,2,0,0,1,1-.79c1.24-.31,2.46.34,3.71.08,2,.15,3.52-1.19,5.34-1.61,2.8-.52,3.29-5.93,7.47-3.52C151.85,159.68,152.32,160.14,152,161Z"/><path class="cls-45" d="M166,146,162,151.93c-2.14.19-1.57,4.7-4.86,3a4.41,4.41,0,0,1-2.22,1.05c-2.49-.15-4.3-.84-3-3.91,4.08-.22,7.62-1.09,9.8-5.27C163.09,144.08,163.82,144.24,166,146Z"/><path class="cls-46" d="M130,175c-1.61-.41.33-4.31-3-3a1.17,1.17,0,0,1-1-1,7.33,7.33,0,0,1-1-4.86,1.12,1.12,0,0,1,1.23,0c1.2,1.71,3.32.79,4.81,1.67-.08,2.4,3.09,3,3,5.34A6.57,6.57,0,0,1,130,175Z"/><path class="cls-47" d="M134.1,173.1c-1.17-1.64-5.56-1.33-3.13-5.16-.21-.93.27-1.19,1.09-1.15,1.54-.12.83,3.11,3,2a10,10,0,0,1,4.89,1.12C138.42,171.76,136.19,172.29,134.1,173.1Z"/><path class="cls-48" d="M119,172c1.92,2.05.65,4.56,1,6.85a3.29,3.29,0,0,1-.94.08,10.83,10.83,0,0,0-6-4c-.82-.52-1.65-1.08-1.34-2.23.37-1.36,1.46-1.5,2.64-1.41C115.82,171.63,117.05,174.14,119,172Z"/><path class="cls-49" d="M155,155l2.06-.05c-.31,3.18-2.64,4.64-5.11,6l-1-1c-.47-1.26.67-1.81,1.16-2.65C152.8,156.16,154,155.72,155,155Z"/><path class="cls-50" d="M103.15,183c2.07-1.49,4.5-.85,6.76-1.17,1,.2,2.3-.19,3,1-1.5.57-3.36-.33-4.63,1.15C106.66,183.32,104.65,184.5,103.15,183Z"/><path class="cls-51" d="M176.93,126.92a33.46,33.46,0,0,1-6,11l-.5-.47c-.66-.92-.35-2.08-.76-3.05-.26-.62-1-.48-.44-.06s-.69.35,0,.46a1.93,1.93,0,0,1-.7.82c-1.09.57-1.93,1.53-3.14,1.88a2,2,0,0,1-1.86-.73c-1-2.25.32-3.75,1.72-5.22,1.83-1.4,2.19-3.71,3.4-5.5s2.87-3.4,5.53-3.11S176.15,125.53,176.93,126.92Z"/><path class="cls-51" d="M166,146c-3-1.39-3.26,1-4.15,2.81-1.79,3.66-6,5.06-9,3.14a1.2,1.2,0,0,1-.08-1.24c1.78-1.66,2.92-3.82,4.44-5.68s2.4-4.6,5.57-4.37c2.91,1.6,4.26.84,3.85-2.56a11.58,11.58,0,0,1,2.16-3L169,135c2.56-.22.69,2.43,2,3h0C169.81,141,168.52,143.85,166,146Z"/><path class="cls-52" d="M181.94,108.93c-1.62,2.82-.66,6.15-1.81,9.06L179,121c-1,1.78-2.28,1.39-3.57.3a9.16,9.16,0,0,1-2.07-4.6c-.1-2.2,1.24-3.72,2.46-5.3a17.89,17.89,0,0,0,3.16-4.35c.61-1.11,1.47-2.68,2.91-1.87S183.06,107.63,181.94,108.93Z"/><path class="cls-53" d="M176,121a2.49,2.49,0,0,0,3,0c0,2.21-2.51,3.58-2,6-2.82-4.1-3.5-4.09-7.93.08C168.64,122.64,170.6,120.94,176,121Z"/><path class="cls-54" d="M170,70c2.35-1.44,3.5-.88,4,2,.29,1.68-.62,3.61,1,5-1.78,6.16,4.31,5.71,6.89,8.2a3.5,3.5,0,0,1-2.07.94c-1.52.18-3,.1-4.58.2-1.29,0-2.65.37-3.69-.78-1.05-1.69-.79-3.6-.93-5.45C170.67,76.72,168.33,73.49,170,70Z"/><path class="cls-55" d="M180,85l1.89.17L183,86.93c.27,4.46-3,2-4.76,2.44-3.06-.72-5.75,1.37-8.75,1.13-2.07-2.48,0-3.43,1.68-4.51l.75-.06,3-1C176.59,85.46,178.26,86.52,180,85Z"/><path class="cls-56" d="M178,88c1.54-1,4.09,2.72,5.06-1.06l1.8,1.9A9.1,9.1,0,0,1,186.06,94a2.55,2.55,0,0,0-3.16.22c-1.62.24-2.24-1-3.07-2-.27-.32-.52-.67-.78-1a9.17,9.17,0,0,1-1.43-2.1A1.06,1.06,0,0,1,178,88Z"/><path class="cls-57" d="M183.85,78.05c.08,1.56.15,3.11.23,4.66-.4.13-.31,2.15-1,.53S183,79.76,183,78A7.92,7.92,0,0,1,183.85,78.05Z"/><path class="cls-58" d="M110,6c.89,2.09,2.75,1.89,4.56,2.06,2.28.21,5.47.73,5,3.39-.5,2.87-3.76,1.53-5.79,1.24a22.08,22.08,0,0,0-4.8-.63c-2.45,1.67-4.53,1.44-6.18-1.14.71-2.78,2.89-1.77,4.64-1.86-1-1.39-3.59-1.53-3.45-4C106,5,108.09,5,110,6Z"/><path class="cls-59" d="M104,5.07l6.51,5c-2.61-.12-5-.07-7.38-.16a1.8,1.8,0,0,1-1-1.95c-.16-1.18-.16-2.32,1-3.07A5.34,5.34,0,0,1,104,5.07Z"/><path class="cls-60" d="M100,182.88l1,2a27,27,0,0,1-14.06,0c.34-.6.68-1.21,1-1.82-.08-1.39-.22-2.8.89-3.93,2.37-.42,3.37,1.87,5.16,2.57.43,2.09,1.47.57,2.31.36C97.68,181.7,99.29,180.35,100,182.88Z"/><path class="cls-61" d="M180,91l2.93,3.26a4.93,4.93,0,0,0,.07.66c-2.82,4.66-6.84,4.74-11.34,3-3.72-1.28-7.74.25-11.43-1.23a2.42,2.42,0,0,1-1.35-2.79c2.23-2,4.89-2.44,7.81-2.38C171.1,91.57,175.58,92.17,180,91Z"/><path class="cls-62" d="M181.94,108.93c-.1-1.07-.19-2.14-.32-3.64C179,107.35,180,111.8,176,112c-1.45.23-1.88-.9-1.71-1.8.51-2.85-.64-5.58-.4-8.38,1.89-1.39,4-1.26,6.08-.76,1.52-.08,2.94,0,3.07,2a8.66,8.66,0,0,1,0,5.92Z"/><path class="cls-63" d="M180,101c-1.75,1.74-4,.63-5.94.95-1.08-.73-1-2.08-1.73-3a3.3,3.3,0,0,1-.56-1.69c.13-.16.26-.31.4-.46,4.08,2,7.61.87,10.85-1.92C183.21,97.54,179.85,98.45,180,101Z"/><path class="cls-64" d="M183,109c0-2,0-4,0-5.92l1,1.16c-.06,1.56-.13,3.13-.2,4.69A7.93,7.93,0,0,1,183,109Z"/><path class="cls-65" d="M5.87,110.07a1,1,0,0,1,.26.73c-1.36,3,2.11,6.1,0,9.15,0-1.64-1.82-2.79-1.29-4.58S4.26,111.59,5.87,110.07Z"/><path class="cls-66" d="M89,179c-.09,1.4.51,3-1,4L87,183c-.39-.58-.78-1.15-1.18-1.72.35-2.5-1.17-5.36,1.45-7.41,2.5.7,1.67,2.76,1.81,4.43C89,178.5,89,178.76,89,179Z"/><path class="cls-67" d="M100,182.88c-1.95-1.87-3.13.56-4.68.87-1.87.38-2-.3-1.29-1.72a4,4,0,0,1,3.87-3.39,5.23,5.23,0,0,0,3.81-.17,1.61,1.61,0,0,1,1.19.49c-.34,1.31-.67,2.62-1,3.92Z"/><path class="cls-68" d="M14,54a32.13,32.13,0,0,1,5.9-10.07c.77.54.8,1.5,1.28,2.2a4.21,4.21,0,0,0,1,.63,2,2,0,0,0,2.09-1c1.46-1.68,1.4-4.82,4.61-4.81,1.81,1.67,1.42,3.78,1.18,5.85-3.11,6.89-7.51,13.16-9.76,20.47-.33,1.06-.9,2.22-2.45,1.87-1.4-1.7-1.57-3.81-1.95-5.86A14.09,14.09,0,0,1,16.8,58a17.87,17.87,0,0,0,1-6C16.53,52.74,16,54.85,14,54Z"/><path class="cls-69" d="M4.87,85.86c1.36-2.8.44-5.9,1.21-8.78C9,69.8,9.69,61.72,13.86,54.88a2,2,0,0,1,1.62,1.27c-1,5.94-4.26,11.26-4.85,17.17.62-.76,1.14-2.16,2.74-1.21a4,4,0,0,1,.73,2.08c-.31,3.3-1.79,6.28-2.5,9.47A12.54,12.54,0,0,1,4.87,85.86Z"/><path class="cls-70" d="M25.11,37a26,26,0,0,1,8.64-8.09,11.09,11.09,0,0,1,4.83-3.4,10.66,10.66,0,0,1,5.64,1.54c-.1,3.14-2.63,4.1-4.9,4.8a8.15,8.15,0,0,0-5.1,4.27,3.37,3.37,0,0,1-3.12,1.12c-1.1.18.1-2.79-1.9-1.36C28,36.77,26.9,38.24,25.11,37Z"/><path class="cls-71" d="M25.11,37c1.69.07,2.52-1.48,3.87-2,1.68-.36,1.38.92,1.53,1.84.61,2.07-.58,3.3-2.05,4.4l-3.56,5.7a3.72,3.72,0,0,1-4,.2l-.08,0c-.42-3.51,2-6,3.23-8.9Z"/><path class="cls-72" d="M66,9c-1.78,2.34-5.24,1.65-7,3.92-.44,1.85-3.87,2.86-1.53,5.49a1.78,1.78,0,0,1-1.1,2.15c-1.49.43-2.52-.31-3.44-1.32s-1.77-.4-2.69-.32a2.52,2.52,0,0,1-2.29-1C53.48,14,58.91,9.86,66,9Z"/><path class="cls-73" d="M47.89,17.93,51,18a2.17,2.17,0,0,1,.61,2.05c-.91,1.93-1.2,4.49-4.25,4.32-1.41-.9-.26-2.29-.59-3.34A36.4,36.4,0,0,1,39,26l-5.25,2.94A38.62,38.62,0,0,1,47.89,17.93Z"/><path class="cls-74" d="M14.93,56.05l-1.07-1.17A3.5,3.5,0,0,1,14,54c1.95-.78,3-2.48,4.29-5.24.91,3.86,1.33,6.55-.34,9.22C15.5,59.57,15.9,56.73,14.93,56.05Z"/><path class="cls-75" d="M24.07,38.19c-.37,3.22-2,6-3.23,8.9-2.47-.42-.45-2.18-.95-3.19C21.23,42,22.06,39.64,24.07,38.19Z"/><path class="cls-76" d="M4.87,85.86C6.7,84.54,8.48,83.08,11,84c1,0,2,.24,2.24,1.45C11.38,87.93,8.68,88,6,87.93L4,87C4.31,86.61,4.59,86.23,4.87,85.86Z"/><path class="cls-77" d="M71.07,13a18.72,18.72,0,0,0,8.68-1.46c1.88-.76,4-1.43,5.48.44,2.3,2.9,1.64-1.27,2.75-1,.94-.26,1.41.31,1.8,1,.22,2,2.07,4.46-1.33,5.65-3-1.41-6-2.65-9.37-.91a17.18,17.18,0,0,1-2,.49A27.65,27.65,0,0,0,70,19.6a4.74,4.74,0,0,1-2.15.08c-2.78-1.73-6.34.42-9-1.82a9.16,9.16,0,0,1,7.13-3.34C67.81,14.58,69.38,13.63,71.07,13Z"/><path class="cls-78" d="M71.07,13C67.53,16,62.4,14.93,58.89,17.92a1.22,1.22,0,0,1-1.82.17c-.6-.2-1.85,1.16-1.77-.5a4.71,4.71,0,0,1,3.64-4.68c.22,1.1.82,3.14,1.68,2.31C63.8,12.2,67.82,14.66,71.07,13Z"/><path class="cls-79" d="M89.11,12,88,11c-.3-1.22.47-2,1.09-2.92,1.72-.87,2.51-3.29,4.94-3A1.69,1.69,0,0,1,94.37,7c-.47.78-1.18,1.37-1.66,2.15-.51,1.06-.44,2.28-.85,3.36-.28.73-.52,1.71-1.6,1.48S89.63,12.55,89.11,12Z"/><path class="cls-80" d="M93.93,7c0-.65.06-1.31.08-2a2.07,2.07,0,0,1,1,.07A6,6,0,0,1,97.88,8c.1.29.19.58.29.87a3.62,3.62,0,0,1,.42,3.6c-1.45,2.43-1.17,5.15-1.18,7.78,0,12.14,0,24.28,0,36.42,0,3.32,0,6.64,0,10-.15,2.33.36,4.75-.88,6.94-3.82.67-2.26-2.82-3.32-4.29a8,8,0,0,1-.08-3.24,17.81,17.81,0,0,0,0-9.14,8.4,8.4,0,0,1,0-3.2A31.88,31.88,0,0,0,93,40.85a15.33,15.33,0,0,1,0-6,42.71,42.71,0,0,0-.13-16.25C92.79,14.73,91.64,10.72,93.93,7Z"/><path class="cls-81" d="M97.92,11.94c.09-1,.17-2,.25-3l3.89-1,1,2c1.07,3.1,3.77,1.81,5.86,2.16,3.43,4.5,8.85,2,13.23,3.47,3.31,1.15,6.75,3.91,10.81,2.51-.69,3-.88,3.19-4,2.38-2.36-.62-4.62-1.87-7.13-.62A64.66,64.66,0,0,1,111,17c-1.54-.78-3.28-.74-4.91-1.17-1.09-.34-2.35-.41-3.22-1.11-1.29-1.05-2.29-2.83-3.55,0a1.33,1.33,0,0,1-2.13.26C96.3,13.89,97.52,13,97.92,11.94Z"/><path class="cls-79" d="M97.88,8,95,5.14C97,5.06,97.88,6.08,97.88,8Z"/><path class="cls-82" d="M4,92a3.25,3.25,0,0,1,2-3c1.4-2,3.61-1.79,5.63-1.94,1.59-.12,3.23,0,4.45-1.28,1.36-.14,2.1.73,2.78,1.7,1.07,3,4.21,1.91,6.19,3.12a6.05,6.05,0,0,0,4,1.07c2.65.28,5.56-.79,7.84,1.45-1,3.07-3.71,2-5.83,2.28A68.18,68.18,0,0,1,15.93,94c-1.6-.68-3-1.73-4.68-2.27C6.89,89,7.8,94.16,6,95.2,4,94.9,3.93,93.49,4,92Z"/><path class="cls-83" d="M10.13,101.71v-.45a7.1,7.1,0,0,0,.74-4.15c2.78-2.45,5.27-2,7.54.75.35,3.33-.28,6.7.48,10a7.73,7.73,0,0,1-.24,1.44c-.5,1.34-.45,3-1.84,3.88-1.18-.1-1.56-1-1.89-1.92-1.33-2.83.4-7.06-3.93-8.52A2.62,2.62,0,0,1,10.13,101.71Z"/><path class="cls-84" d="M15.83,86.09c-.37.8,2.28,3.24-1.24,2.29A11.69,11.69,0,0,0,6,89c0-.34,0-.69,0-1,1.9-2,5-1.1,7-2.92a1.71,1.71,0,0,1,1.82-.49A1.64,1.64,0,0,1,15.83,86.09Z"/><path class="cls-85" d="M10.13,101.71,11,102a7.22,7.22,0,0,1,.85,1.27c-.15,3,2.3,5.61,1.14,8.72A10.08,10.08,0,0,1,9,108,8.41,8.41,0,0,1,10.13,101.71Z"/><path class="cls-84" d="M4,92l1.91,3.09a2.58,2.58,0,0,1,2.33,2.31L8,98C4.07,97.7,3.33,95.31,4,92Z"/><path class="cls-84" d="M11,98.05c2.16,1,2.16,1-.86,3.21C10.2,99.66,8.79,99,8,98l.26-.33A2,2,0,0,1,11,98.05Z"/><path class="cls-85" d="M6,108l-.12,1c-2.14-1.91.81-4-.23-6C8.29,104.56,6.46,106.35,6,108Z"/><path class="cls-86" d="M21,124l-2.09-1.86c-1.25-1.15-.66-2.71-.93-4.08-.66-1.3-1.64-2.49-1.31-4.1,1.52-1.32.35-3.3,1.17-4.79l.33-.27c2.9.87,2.64,3.52,3.12,5.68a59.17,59.17,0,0,1,1.55,7.32C22.65,123,22.62,124.16,21,124Z"/><path class="cls-87" d="M17.11,113.87,18,118c-2.54-1.3-3.67-3.76-5-6.08-1.22-2.88-2.7-5.71-1.94-9,3.25,1.7,2.66,5.74,4.91,8l1,2c.3.14.42.32.36.52S17.2,113.87,17.11,113.87Z"/><path class="cls-88" d="M24.11,131.82,23,129c-.63-1-.53-1.83.64-2.34,2.52.43,3.26,2.64,4.33,4.45,3.24,5.44,6.68,10.72,11.44,15q2.56,2.75,5.3,5.32a33.29,33.29,0,0,0,7.22,5.2,67.6,67.6,0,0,0,24.56,10.45c1.75.36,4.19.14,4.74,2.8-1.07,1.32-2.67,1.37-4.13,1.78-1.55.26-3-.33-4.55-.38-7-2.23-14.14-4-19.66-9.26A55.81,55.81,0,0,0,43,155c-5.21-.75-6.23-5.74-9-8.93-3.12-3-4.44-7.35-7.89-10.07l-.87-1C23.81,134.25,25,132.68,24.11,131.82Z"/><path class="cls-89" d="M52.84,162.05c6.76,2.56,12.87,6.74,20.13,8,1.29,1.29,2.19,2.59,0,3.9h0c-1.49,1.15-2.25.08-3-1l-9-3c-1.91-2-5.59.15-7-3-.66-1-1.33-2-2-3Z"/><path class="cls-90" d="M34,146c3.44,2.54,5.3,6.69,9,8.93-5.43.69-6.76-.37-7.71-5.88A13.39,13.39,0,0,0,34,146Z"/><path class="cls-91" d="M49.06,167c.9,0,2.28-.42,2.38.72C51.58,169.43,50,168.9,49,169,49,168.31,49.05,167.67,49.06,167Z"/><path class="cls-92" d="M24.11,131.82c1.11.77.9,2,1.1,3.1-.78.16-1.92.16-1.44,1.37,1,2.41,2.28,4.6,1.86,7.47-.16,1.11,2.4,2.69.54,3.76-2,1.16-3.14-1-4.19-2.5,3.43-3.42,1.58-6.26-1-9-.16-1-.8-2,0-3.05C21.62,131.46,24.13,135.11,24.11,131.82Z"/><path class="cls-93" d="M24,127A2.34,2.34,0,0,0,23,129,9.08,9.08,0,0,1,21,124a2.25,2.25,0,0,0,1-2.09,1.1,1.1,0,0,1,1.37.2C24.33,123.63,25.26,125.18,24,127Z"/><path class="cls-94" d="M21,133c.31,1,1.6,2,0,3.05-1.18-.13-2.59-.4-2.62-1.71C18.32,132.61,20,133.14,21,133Z"/><path class="cls-95" d="M84.78,180,84,178c-1.11-1.15-2.88.24-4-1h0c-.77-1.81-2.31-2.06-4-2-2.09-3.09-2.09-3.09,3.34-4,2.12.15,4-.71,6-1.29,1.26.42,1.46,1.45,1.47,2.58C85.23,174.63,87.06,177.86,84.78,180Z"/><path class="cls-96" d="M80.15,171.9c-1.43,1-5.83-2.09-4.16,3.08l-3-1c1-1.3.09-2.6,0-3.9l4.09.82C78.32,170.54,79.71,169.75,80.15,171.9Z"/><path class="cls-96" d="M70,173l3,1c-.64,1.21-1.51,2.44-3,1.68C69,175.12,70.2,173.9,70,173Z"/><path class="cls-97" d="M84.78,180c.66-2.62-.68-5.56,1.23-8,.72-.72.3-1.84.9-2.61a2.41,2.41,0,0,1,3.25-.6c.91,1.49.32,2.86-.31,4.24-.42.65-.92,1.16-1.8.94-2.54,1.85.4,5.39-2.22,7.22Z"/><path class="cls-28" d="M80,177c1.28.51,3.47-2.48,4,1C82.29,179,80.85,179.1,80,177Z"/><path class="cls-98" d="M122,19c1.45-2.25,3.08-1.13,5-.7s4.28,3.93,6-.28L135,20a2.1,2.1,0,0,1,2.93-.09,9.82,9.82,0,0,0,2.13,9c-4,.42-6.09-3.34-9.46-4.32a26.72,26.72,0,0,0-5.69-2.89C123.63,21.19,121.76,21.15,122,19Z"/><path class="cls-99" d="M137.88,19.93,135,20c.08-2,1.44-2.11,3-1.93Z"/><path class="cls-100" d="M131.07,23.88c3.52.71,5.88,3.5,8.94,5,5.23,3.38,9.28,8.11,13.91,12.18l.93,1c.65,1.62.74,3.68,3.09,4,5.86,5.84,10.15,12.5,11,21,0,1.1-.11,2.26,1,3l1.95,10c-1.14,1.56.32,3.65-1,5.16-2.41-.56-2-2.72-2.39-4.36-1-4.33-1.6-8.73-3.12-12.92-.39-.9-.75-1.81-1.16-2.7a82.76,82.76,0,0,0-11.77-19.83c-4.58-6.5-10.92-11-17.28-15.56-2-1.41-4.48-2.31-5.45-4.88C129.81,24.15,130.1,23.56,131.07,23.88Z"/><path class="cls-101" d="M169,67c-2.29-7.71-7.13-14.09-11-21,3.7,0,6.65,1.12,7.85,5a2.06,2.06,0,0,1,2.16,1A15.82,15.82,0,0,0,174,59c.09,3,1.92,6,.66,9.08-3.06.54-1.68-4.6-4.81-3.7C168.76,64.68,169,66.05,169,67Z"/><path class="cls-102" d="M168,52.07l-2.16-1c.67-.94,1.57-1.73,2.71-1.27.82.33.41,1.38.37,2.14A5.85,5.85,0,0,0,168,52.07Z"/><path class="cls-103" d="M109,176c-2,2.3-4-.75-6.06,0-1.34,1.19-2.9.34-4.36.46a1.83,1.83,0,0,1-1-.76,3.09,3.09,0,0,1,0-2.61c.73-1.08,1.43-2.19,2.27-3.2a1.69,1.69,0,0,1,1.23-.16c1,.73,1.43,2.07,2.64,2.61C105.59,173.25,107.69,174,109,176Z"/><path class="cls-104" d="M109,176a17.55,17.55,0,0,1-6-3.1c1.32-3,3.66-2.08,5.9-1.52,1.3.92,2.2,2,1.15,3.65Z"/><path class="cls-103" d="M110,175l-1-3a3.9,3.9,0,0,1,2.34-1.73,4.25,4.25,0,0,1,3.64.38.92.92,0,0,1,0,1.34c-2.37-.15-3.36.62-2,3Z"/><path class="cls-105" d="M98.9,176.07c1.29-2,2.67.27,4-.09v3H102c-.89-.83-2.25-.86-3.1-1.77A1,1,0,0,1,98.9,176.07Z"/><path class="cls-106" d="M115,171.07l-4,0-.71-.06c-1.28-.3-3.08.47-3.5-1.66,5.75-3.13,12.3-3.87,18.33-6.15,1.45.24,2.58.69,1.57,2.48l-.62.47-1,0c-2.87,1.93-6.78,1.85-9.12,4.79A.53.53,0,0,1,115,171.07Z"/><path class="cls-107" d="M115,171.07a2.86,2.86,0,0,1,.87-.17L119,172c-.11,1.08.34,2.59-1.29,2.78-1.89.21-2.56-1.13-2.73-2.79C115,171.67,115,171.37,115,171.07Z"/><path class="cls-108" d="M126,171l1,1c-.13.88.3,2.28-.83,2.43-1.52.2-2.16-1.5-2.31-2.51C123.66,170.43,125.22,171.23,126,171Z"/><path class="cls-109" d="M153,157.94l-2,2c-1.62-.34-3.12-.55-3.79,1.57A3.08,3.08,0,0,1,144,164a4.24,4.24,0,0,1-.84-4.37,4.72,4.72,0,0,1,1.86-2.3,9.5,9.5,0,0,1,3.81-1.83C150.73,155.4,152.61,155.4,153,157.94Z"/><path class="cls-110" d="M132,167l-1,.95c-1.76-.26-5,3.34-4.9-1.81l-.1-.21c2.55-1.95,4.68-4.7,8.39-4.49,1.59.91,1.1,2.21.66,3.5l-1.14.12A2.58,2.58,0,0,1,132,167Z"/><path class="cls-111" d="M144,159c0,1.66,0,3.32,0,5-2.1-.19-3.59,3.17-6,1a1.6,1.6,0,0,1-.41-1.8c1.1-1.6,3.52-1.5,4.39-3.41a3.71,3.71,0,0,1,.86-.95A1.24,1.24,0,0,1,144,159Z"/><path class="cls-112" d="M132,167l1.89-1.94c1.68.85,1.45,2.31,1.19,3.77.35.52,1,1.06,1,1.54-.07.95-1,.57-1.41.34A4.24,4.24,0,0,1,132,167Z"/><path class="cls-113" d="M138,163c0,.67,0,1.34,0,2-1,1.12-2-.29-2.95,0-.82-1-.43-2.14-.2-3.23a1.35,1.35,0,0,1,1.46-1.2C137.5,160.87,138.51,161.4,138,163Z"/><path class="cls-114" d="M153,157.94c-.76-1.81-3-.66-4-2a5.26,5.26,0,0,1-2.35-3.35,4,4,0,0,1,3.4-3.39,2.61,2.61,0,0,1,3,1.75c0,.33,0,.65-.06,1-2,2.89.08,3,2.11,3.08Z"/><path class="cls-53" d="M163,141c-2.69.64-3.28,3.37-5,5a7,7,0,0,1-2.34-3.32c3-5.54,5.53-11.39,10.15-15.89,1.94,1.67.66,3.46.19,5.22-.9,1.58-2.42,2.91-2,5A3.22,3.22,0,0,1,163,141Z"/><path class="cls-115" d="M166,132c-1.77-1.67.75-3.37,0-5-.13-3,.34-5.77,2.35-8.13,1.27-.07,2.58,2.12,3.82-.07A5.47,5.47,0,0,1,174,117l2,4c-2.5,1.81-6.79,1.56-7,6C168.3,128.84,168.75,131.39,166,132Z"/><path class="cls-116" d="M163,141a7.1,7.1,0,0,1,1-4h1.89a1.15,1.15,0,0,1,1.07,1.11c2.63,2.06.83,3.13-.88,4.43C163.78,144.27,163.24,143,163,141Z"/><path class="cls-117" d="M167,138.11,165.88,137c.24-1.81,1.33-2.29,3-1.9C169.27,136.77,168.7,137.81,167,138.11Z"/><path class="cls-5" d="M171,138l-2-3c-.37-.52-1.15-1.26-1-1.5.51-.92,1.51-.53,2.08-.1C171.7,134.57,170.7,136.42,171,138Z"/><path class="cls-45" d="M156,143c2,.09,2,1.53,2,3-2,1.35-1.67,5-5,5l-3-1A8.33,8.33,0,0,1,156,143Z"/><path class="cls-118" d="M174,117a2.21,2.21,0,0,1-1,2l-.61-.3c-1.09-1.11-2.6-1.87-3.07-3.54a49.18,49.18,0,0,1,1.25-9,15.42,15.42,0,0,0-.11-4.65,3.6,3.6,0,0,1,.1-1.31c.46-1.08,1.52-1.49,2.39-2.11,1.56,1,.78,2.6,1.06,3.93,3.73,2.72.27,6.86,2,10Z"/><path class="cls-119" d="M180,85c.24.85.86,2.15-.83,1.76-1.47-.33-3.17-.46-4.22-1.86Z"/><path class="cls-120" d="M171,85c.31-1.67-.62-3.58,1-5,0,2,0,3.93,0,5.9v.14C171,86.33,170.75,85.91,171,85Z"/><path class="cls-121" d="M171,85l1,1c-1.07,1.17-2.5,2.08-2.87,3.79-1.85,2-4.11,1.23-6.29.91-1.14-.57-1.43-1.85-.45-2.26,3.81-1.57,2.33-4.26,2-7-.42-3.57-2.46-6.79-2.17-10.48,1.29-1.37,3.37-2,3.83-4.18C169.19,72.53,168.87,79.11,171,85Z"/><path class="cls-122" d="M161.94,89.88l7.15,0c3-.39,5.6-2.75,8.88-1.87,0,.29.05.57.07.86-.54,1.81,1.43,1.31,2,2.14l0,0c-.27,3-2.55,2-4.19,2.08-5.56.35-11.23-1-16.67,1.06-4.08,2.41-8.55.81-12.82,1.29-3.32-.31-6.78.69-10-1-1-1-.2-1.57.54-2.14,3.67-1.28,7.48-.43,11.21-.68h1.59c2.89-.13,5.85.62,8.69-.52a8.37,8.37,0,0,1,1.57-1.46A1.86,1.86,0,0,1,161.94,89.88Z"/><path class="cls-123" d="M180,91c-.83,0-1.67,0-2.5-.09s-2,.21-1.89-1,1.54-.87,2.43-1.1C178.7,89.56,179.35,90.28,180,91Z"/><path class="cls-124" d="M98.9,176.07c0,.29,0,.58,0,.87a1.93,1.93,0,0,1-.94,2L94,182c-2.5.36-3.68-1.51-5.07-3l.07-.12c-1-2.13-.44-3.81,1.4-5.15,1.71.34,1.4,1.94,1.91,3,1-.74.2-1.73.42-2.55a16.45,16.45,0,0,1,.4-3.7A41.25,41.25,0,0,0,93,156a29.31,29.31,0,0,1-.38-5.84c0-1.92,0-3.84,0-5.75a24.2,24.2,0,0,1,.3-4c.49-2.11-.31-4.17-.29-6.27.08-4.55-.35-9.12.27-13.66a3.78,3.78,0,0,1,.94-1.54c2.08-.23,2.53,1.38,3.15,2.8.81,16.46.23,32.93.32,49.39,0,1.65-.45,3.32.81,4.73A4.75,4.75,0,0,1,98.9,176.07Z"/><path class="cls-125" d="M160.05,95.92c4,.53,8.14-.72,12.07.88l-.24.3c-1.1,1.14-2.54,1.14-4,1.22-1.95.06-3.91,0-5.87.06-1.69.07-3.38,0-5.08,0-.87,0-1.75,0-2.62,0q-5.88-.06-11.77,0c-7-.08-13.91,0-20.86,0-2,0-4,.25-5.68-1.22.36-3.32,3.09-2.49,5-2.57a159.84,159.84,0,0,1,17.91.41C146,95.48,153.08,93.91,160.05,95.92Z"/><path class="cls-126" d="M160.05,95.92l-21.12,0c1.67-3,4.85-.3,6.92-1.8h13.26Z"/><path class="cls-127" d="M168,97.23l3.89-.13,1.07,1a1.75,1.75,0,0,1-2,1.91c-1,.65-1.77.14-2.59-.34C167.67,98.93,167.16,98.19,168,97.23Z"/><path class="cls-128" d="M90.9,174.06A5.5,5.5,0,0,0,89,178.89c-1.77-1.35-.8-3.23-1-4.89l1-1c.73-1.06,1.45-2,2.37-.15A1.61,1.61,0,0,1,90.9,174.06Z"/><path class="cls-129" d="M98,178.93c.31-.67.62-1.33.94-2,1.42.06,3-.07,3.06,2C100.63,179.8,99.26,183.15,98,178.93Z"/><path class="cls-130" d="M68,18.73l1.8.1c2.54,2.1-.39,2.32-1.14,2.63A94.85,94.85,0,0,0,53.93,28.8c-16.22,10-27.46,23.89-32.57,42.44a43.79,43.79,0,0,1-3.45,9c-2.07-1-2.05-2.6-2.17-4.18a13.68,13.68,0,0,1,.91-5.25A3.48,3.48,0,0,1,18,69.06c3-7.62,6.27-15.15,11-21.92a19.58,19.58,0,0,1,2.4-3.94,60.81,60.81,0,0,1,8.87-10.09c4.13-3.09,8.2-6.26,12.6-9C57.54,21.2,62.2,18.38,68,18.73Z"/><path class="cls-131" d="M14.93,56.05c1.09.48,1.48,2.09,3,1.9-.33,1.66-.67,3.32-1,5-.91,3.18-.84,6.8-4,9-2.57.25-.16,5.29-3.3,4-2-.8.2-3.49.42-5.3C10.69,65.47,12.84,60.75,14.93,56.05Z"/><path class="cls-132" d="M13,71.93c1.2-3.06,1.79-6.38,4-9L18,69.06c-.09.61-.18,1.22-.26,1.83-1.74.82-.93,5.43-4.73,3.18Z"/><path class="cls-133" d="M32,43.91a7.73,7.73,0,0,1-2.9,3.23c-.34-2,.5-4-.61-5.92.56-1.32,1.12-2.65,1.67-4,.1-.71.39-.79.87-.26l2.91-1.11c.11.2.23.39.34.58A37.58,37.58,0,0,0,32,43.91Z"/><path class="cls-75" d="M20.92,47.12l4-.2C23.65,48.57,22.37,49.5,20.92,47.12Z"/><path class="cls-134" d="M13.05,74.07c2.8.77,2.63-2.89,4.73-3.18-.3,1.64-.59,3.29-.88,4.93-1.25,3,.79,6.61-2,9.24l-2,0c-.78-.11-1.6-.13-2-1C10.15,80.38,12.57,77.42,13.05,74.07Z"/><path class="cls-135" d="M53,25.08,40.93,34C38.72,35,36.29,35.27,34,36l-.1-.16c.24-2.42.84-4.16,3.92-4.55A8.48,8.48,0,0,0,44.07,27c.37-1.6.67-3.26,2.92-3.06,2.62,0,2.28-3,4-4,1.17-.16,1.14-1.52,2-2,1,.65,1.46,2.18,3,2C56.52,22.6,54.33,23.58,53,25.08Z"/><path class="cls-136" d="M47,24,44.07,27A6.05,6.05,0,0,1,39,26c2-3.17,5.43-4.49,8.44-6.43C48.53,21.37,47.55,22.65,47,24Z"/><path class="cls-137" d="M31,37c-.29.08-.58.16-.87.26C30,36.36,29.89,35.47,29,35c.68-1,1.09-2.32,2.71-2.18C32.38,34.39,30.81,35.54,31,37Z"/><path class="cls-138" d="M53,25.08l3-5,1.06-1.94,1.82-.17c3,.4,6.26-1.65,9.1.81A74.39,74.39,0,0,0,53,25.08Z"/><path class="cls-138" d="M53,18c-.32,1.08.76,2.53-.79,3.21C52,21.3,51.4,20.43,51,20c0-.67,0-1.33,0-2C51.64,17.94,52.32,16.92,53,18Z"/><path class="cls-139" d="M14.94,85.06a21.68,21.68,0,0,1,2-9.24c.08,1,.16,2,.34,4.22,3.42-11.55,6.52-21.87,13-30.89A79.41,79.41,0,0,1,69.28,20.06c.29-.1.69-.19.79-.4s-.17-.55-.28-.83c1.79-2.5,4.85-1.76,7.2-2.82,2.07,1,4.22.22,5.17.39a3.88,3.88,0,0,1-3.35-.54c3.32-1.66,6.54-2.66,9.09,1.24,1.26,1.23,3.94,1.45,3,4.23a3.78,3.78,0,0,1-1.34.68C57.67,25.29,36.43,42.48,24.83,72c-1.87,4.75-2.2,10-2.67,15.17-.1,1.12-.14,2.53-1.53,2.83s-1.91-1-2.54-2a3.13,3.13,0,0,0-2.26-1.9Z"/><path class="cls-140" d="M90.93,21c-.34-1.81-3-1.84-3-3.89C91,16,88.1,13.53,89.11,12c.63,0,1.31,2.59,1.89,0,.3-1.32-.38-2.89,1-3.94,2-.13,1.46,1.43,1.45,2.4-.06,4,.17,7.93.34,11.89a2.48,2.48,0,0,1-2.71,1.89A2.26,2.26,0,0,1,90.93,21Z"/><path class="cls-141" d="M78.81,15.86c1.68.47,3.54-.4,5.85,1-3.06-.11-5.47.92-7.67-.88Z"/><path class="cls-142" d="M93,23c-.57-5,1.22-10.12-1-15a2,2,0,0,1,1.94-1L94,19A59.09,59.09,0,0,1,94,35V41a39.42,39.42,0,0,1,0,13v3a18.93,18.93,0,0,1,0,9V69c.37,1.48,1.4,3.05-.63,4.17-1.89-1.14-1.76-3.06-1.77-4.85-.08-13.37-.05-26.74,0-40.1A9.14,9.14,0,0,1,93,23Z"/><path class="cls-143" d="M97.92,11.94l-.24,2.66c2.64-.67,1.54-3.8,3.86-5-.16,3.27,2,4.51,4.51,5.34-.08.19-.16.38-.23.57a4.89,4.89,0,0,1-2.35,2.05c-2.37.09-4.4.69-5.08,3.35-.06.72-.08,1.43-.08,2.14,0,2.6,0,5.19.06,7.78a20,20,0,0,1,0,2.45c-.09,2.24,0,4.48,0,6.73a24,24,0,0,1,0,3.5c-.08,3.09.11,6.18-.11,9.25-.12,1.64.33,3.76-2.19,4.25q0-20.4-.1-40.8C96,14.45,96.19,12.87,97.92,11.94Z"/><path class="cls-144" d="M96,73.93q.11-3.48.19-7a1,1,0,0,1,1.23.19,7.31,7.31,0,0,1,.91,2.54c.53,2.68,3.06,1.83,4.67,2.62a5.26,5.26,0,0,1,2.3,1.58c.63,2.27,1,4.44-2.2,5-3-.32-5.81-1.67-8.71-2.5a1.9,1.9,0,0,1-.6-1.19C94.11,74.16,95.33,74.54,96,73.93Z"/><path class="cls-145" d="M97.09,67h-.47l-.47,0q0-5,0-10c1.69-4.58.24-9.34.85-14,1.61-.24,1.78,1,2.16,2.06A34.36,34.36,0,0,1,99.37,51c.08,1.42,0,2.84,0,4.26C98.57,59.16,99,63.31,97.09,67Z"/><path class="cls-79" d="M94,35Q94,27,94,19A28.64,28.64,0,0,1,94,35Z"/><path class="cls-79" d="M94,54q0-6.52,0-13A19.13,19.13,0,0,1,94,54Z"/><path class="cls-79" d="M94,66V57A9.48,9.48,0,0,1,94,66Z"/><path class="cls-79" d="M96,73.93c-.35.85-1.08,1-1.86,1A1.26,1.26,0,0,1,94,73c0-1.34,0-2.69.07-4C95.81,70.17,94.1,72.75,96,73.93Z"/><path class="cls-146" d="M131.07,23.88,130,25a2.14,2.14,0,0,1-2.31.42c-6.33-3.15-13.27-4.68-19.73-7.5-.36-2,1.28-1.66,2.35-2l.72-.08L122,19C124.66,21.25,128.93,20.58,131.07,23.88Z"/><path class="cls-143" d="M106.05,14.93c1.66.29,3.52-.46,5,1l-.1.21c-1.73,0-3.82,1.8-5-1Z"/><path class="cls-147" d="M18.09,88c1.13.3,2.74,3.18,2.94-.81C22.21,64.11,34.1,46.77,52.09,33.93,63.06,26.1,75.7,20.47,90,21c.3,2.85-2.17,2.52-3.69,3-7.62,2.27-15.65,3.17-22.82,7C41.12,43,28,61.47,23.71,86.39a2.58,2.58,0,0,0,.81,2.68,3.67,3.67,0,0,1,.68,1.24L25,91C22.57,90.32,18.79,92.68,18.09,88Z"/><path class="cls-148" d="M31,94.1c2-.51,4.28.75,6-1.13l.65-.32a18.87,18.87,0,0,0,5.73-.77c9.7,1.35,19.38-.73,29.08-.17,4.37,2.19,4.52,3.21,1,6.32a11.62,11.62,0,0,1-2.81.34c-7.17,0-14.33,0-21.49,0-4.63-.07-9.26,0-13.89.09-3.32-.3-6.66,0-10,0-2.28-.34-4.72.37-6.84-1,.68-2.55.68-2.52,3.51-2.59C24.94,94.78,28.08,95.8,31,94.1Z"/><path class="cls-149" d="M31,94.1c.94,3.1-1.55,1.59-2.58,1.82-3.37.79-7.13-1.43-10.25,1.36l.13.42-.35.27c-2.33-1.41-4.66-2.32-6.94.08L8.23,97.7,5.91,95.07c.12-1.77-.18-3.68,1.54-5C8.91,89,10.36,88,10.9,90.92,11.56,93,14.19,91.26,15,93Z"/><path class="cls-150" d="M37,93l-9,0a1.62,1.62,0,0,1,.16-2.39c3.35-.74,7.1-2.92,8.8,2.41Z"/><path class="cls-151" d="M15,93c-1.46,0-2.92.07-4.38,0-.92,0-2.31.13-2.18-1.18.12-1.15,1.5-.92,2.44-1C12.47,91.23,14.7,90.27,15,93Z"/><path class="cls-152" d="M28,91c0,.64,0,1.28,0,1.92-1.45,0-3,.17-3-2h0A2,2,0,0,1,28,91Z"/><path class="cls-153" d="M17.94,98a1.41,1.41,0,0,0,.22-.69L25,97c1,5.17,2,10.34,1,15.63a7.18,7.18,0,0,1-1.85,3.49c-2.82-.75-2.34-3.21-2.54-5.19-.23-2.3,0-4.64-.1-6.41-.08,4.41-.21,9.36,2.12,14a2.9,2.9,0,0,1-.68,3.65c-.29-.08-.59-.16-.88-.27-1.88-4.16-1.59-9-3.85-13C17.35,105.26,16.52,101.64,17.94,98Z"/><path class="cls-98" d="M16,111c-3.13-1.78-3.86-5-4.91-8a6.44,6.44,0,0,1-.05-1c2.35-.13,4.15.17,4.06,3.3A30.88,30.88,0,0,0,16,111Z"/><path class="cls-154" d="M17.11,113.87A2.75,2.75,0,0,1,17,113c.29-1.3-.5-2.83.87-3.87C17.77,110.75,18.63,112.49,17.11,113.87Z"/><path class="cls-155" d="M22.9,122.16a105.1,105.1,0,0,1-2.15-22.52c2.6,5.19-.64,11.44,3.24,16.35,2.7,3.42,3.53,7.74,5.39,11.57a89.53,89.53,0,0,0,10.13,15.79,3.83,3.83,0,0,1,1,2.8c-.31.78-.74,1.33-1.7,1C31.94,141.81,28.64,133.9,24,127,23.62,125.37,23.26,123.76,22.9,122.16Z"/><path class="cls-156" d="M87.13,170,86,172c0-.8-.1-1.59-.93-2-1.37.93-2.72,1.2-4.06-.06-6-2.4-12.49-2.94-18.32-5.85-4.13-2.07-8.42-3.81-11.87-7,1-2,2.27-1.14,3.69-.57,2.73,1.1,5.08,3,8.07,3.54,6.36,2.42,12.53,5.36,19.43,6.22C84.07,166.54,86.83,166.89,87.13,170Z"/><path class="cls-157" d="M62,161c-3.39.12-5.58-2.66-8.52-3.68a3.17,3.17,0,0,0-2.64-.2,17.21,17.21,0,0,1-7-5c-.21-2.71-3.33-3.58-3.86-6.09l-1-2c-.28-1.5.75-1.48,1.75-1.52,2.54,1,4,3.34,6,5,3.52,4.09,8.36,6.53,12.46,9.9C60.33,158.33,62.31,158.78,62,161Z"/><path class="cls-158" d="M40,146c1.41,2,5.59,2.15,3.86,6.09a18.63,18.63,0,0,1-5.08-4.93Z"/><path class="cls-159" d="M81,170l4.06.06c-.66,3.18-3.18,1.54-4.93,1.89-.81-1-2-.84-3.09-1C78.13,169.48,79.69,170.19,81,170Z"/><path class="cls-160" d="M62,161c-5.06-4.66-11.9-7.14-16-13,.91-2.14-3.51-4-.28-6.29,1.72.29,2.66,1.68,3.86,2.7a17,17,0,0,0,4.3,3.29A68.81,68.81,0,0,0,83,161.21c3.08.59,5,.08,4.67-3.55,0-1.53,0-3.06,0-4.58,0-1.07,0-2.13,0-3.2-.07-1.37,0-2.75,0-4.13-.11-1.74-.05-3.47,0-5.21.53-1.68-.94-4.75,2.88-4.13,1.92,7.48.65,15.1.9,22.65.11,3.32,1.18,7-1.5,10l-2.76,1a9.2,9.2,0,0,0-6.63-2.85C73.72,166.74,68,163.5,62,161Z"/><path class="cls-161" d="M89.89,169,90,135.92c-2.37-6.34-1.63-12.77-.55-19.21,3.06-1.77,2.59,1.31,3.49,2.52a18.34,18.34,0,0,1,.52,7.88c-2.11,13,.35,26,.6,39a29.22,29.22,0,0,1-.69,6.88c-.45,2-1.53,1-2.33,0s-1.29,0-1.93,0C89.34,171.68,89.61,170.36,89.89,169Z"/><path class="cls-162" d="M107.87,17.09A132.76,132.76,0,0,1,130,25c7.25,4.7,14.45,9.47,20.35,15.91,1.11,1.21,2.51,2.22,2.84,4-1.54.83-2.56-.24-3.44-1.13-3.4-3.43-7.48-6-11.33-8.8a15,15,0,0,0-5.16-3.24c-5.06-2.56-9.55-6.45-15.64-6.53A77.49,77.49,0,0,1,105.13,22c-2.11-1-4.46-.48-6.63-1a3.65,3.65,0,0,1-1.27-.82c1.12-3.44,3.74-3.83,6.79-3.34A3.43,3.43,0,0,1,107.87,17.09Z"/><path class="cls-163" d="M134,31c2.14.21,3.52,1.69,5,3-.44.76,0,1.18.6,1.55,10.68,6.39,17.28,16.3,23.18,26.83.53.94.41,2.68,2.24,2.54.35.65.69,1.31,1,2,.63,2.59-1.18,3.37-3.06,4.1-2,.33-2-1.64-2.89-2.58-3.92-7.83-8-15.5-14.46-21.71a77.77,77.77,0,0,0-18.56-13,5.2,5.2,0,0,1-1.62-1.37c-1.3-2.28-.35-3,2-2.8S131.53,31.64,134,31Z"/><path class="cls-164" d="M165,64.92c0,.65-.08,1.29-.19,2.86-3.52-5.63-6.5-10.67-9.75-15.54a54.51,54.51,0,0,0-15.77-16.1c-.67-.43-2.12-.51-1.24-1.93.11-.19.61-.15.93-.21,5.17,3.07,9.43,7.33,14.19,10.94A53.85,53.85,0,0,1,165,64.92Z"/><path class="cls-128" d="M91.93,119c-1.24-.58-.57-2.49-2-2.91l-.67-.51c-1-1.44-.4-2.71.44-4,5.29-3.11,8-1.52,8.71,5.12q0,25,0,50.09c-.32,2,.91,4.14-.4,6.09,0,1,.09,1.94.14,2.9-2.56-1.64-2.14-4.27-2.15-6.7q-.08-24.14-.1-48.25c-.61-1.3-.68-2.76-1.23-4.14-.39.74-.09,1.61-.66,2.21l-.12,1C92.81,120.52,92.52,119.48,91.93,119Z"/><path class="cls-165" d="M125.94,163.9c-6.15,2.73-12.7,4.15-19.14,6-.93,1.3-2.34,1-3.64,1.09a3.7,3.7,0,0,1-2.17-.9q-.49,0-1-.06a1,1,0,0,1,.13-1.38c1.73-1.23,4-.68,5.78-1.66a129.09,129.09,0,0,0,22.18-7.29,3,3,0,0,1,2.43,0C131.63,163.91,127.93,163,125.94,163.9Z"/><path class="cls-128" d="M101,170.06h2.06c2.53,1.08,5.27-.14,7.82.72l.13.27-2,.93c-2,.13-4.2-.65-6,.88C100.85,172.93,101,171.47,101,170.06Z"/><path class="cls-105" d="M100,169c0,.34,0,.68,0,1,0,1.43,0,2.86-2,3-.23-1.67-1.28-3.21-.79-5l.43-.35.56.06A3,3,0,0,1,100,169Z"/><path class="cls-166" d="M125.94,163.9c1.27-1.86,4.12-1.62,5.11-3.86l.33-.62c3.31-2.12,6.15-5,10.22-5.86a2.37,2.37,0,0,1,1.62,1.22c.37,1.59-.7,2.53-1.6,3.56a8.66,8.66,0,0,1-1.54,1.23c-1.24,1-2.8.88-4.2,1.31l-1.06.82L126,165.92C126.06,165.25,127.1,164.56,125.94,163.9Z"/><path class="cls-159" d="M110.87,170.78c-2.62-.14-5.36,1.09-7.82-.72l3.75-.19C108.15,170.2,109.73,169.51,110.87,170.78Z"/><path class="cls-111" d="M146.82,152.85A3.18,3.18,0,0,1,149,156l-3,2a3.42,3.42,0,0,1-1.46-3.79A2.07,2.07,0,0,1,146.82,152.85Z"/><path class="cls-44" d="M145,154.17c.33,1.26.66,2.52,1,3.77L144,159l-1,0c-.85.3-1.15-.16-1.26-.9.6-1.12,1.89-1.87,1.79-3.36C143.83,154.12,144.2,153.61,145,154.17Z"/><path class="cls-44" d="M135.88,160.88l4-2.08a19.71,19.71,0,0,0,3.06,1.13c-.48,2.92-2.78,2.87-4.95,3Z"/><path class="cls-167" d="M142.94,159.93c-1.5.94-2.78,1.27-3.06-1.13l1-.94A.67.67,0,0,1,142,158c.33.33.67.65,1,1C143,159.29,143,159.61,142.94,159.93Z"/><path class="cls-168" d="M145,154.17c-.63-.14-.89.2-1,.75s-.4.48-.75.23l-1.34-1.3c-.27-2.12,1.59-2.72,2.75-3.8,5.39-5,10.38-10.34,13.32-17.25a7.63,7.63,0,0,1,.59-1.22c1-1.46,2-3,3-4.39,2.42-3.2,2.79-7.52,5.73-10.43a1.6,1.6,0,0,1,1.71.89,1.58,1.58,0,0,1,0,1.33c-1.51,2.46-1.18,5.62-3,7.94-3.14,5.46-6,11.11-10,16l-6,7-3.14,2.89Z"/><path class="cls-118" d="M169,119l-.22-1.1.59-.28a4.51,4.51,0,0,1,3.55,1.3l.1.11c-.78,1.08-.87,3-2.81,2.73C168.67,121.5,169.15,120,169,119Z"/><path class="cls-169" d="M167.84,116.77c-2.22,3.66-2.77,8.16-5.76,11.43a2.26,2.26,0,0,1-.86-1.3c.36-6.64,4.32-12.35,4.84-19,1-3,.68-6.37,2.85-9l2.08,1c0,.31,0,.61,0,.92a1.26,1.26,0,0,1,.22,1.46C170.4,107.22,170.68,112.36,167.84,116.77Z"/><path class="cls-170" d="M167.84,116.77l3.1-14.86c1.12,1.15,0,2.82.92,4-.62,3.36-1.23,6.71-1.85,10.07.52,1-.12,1.55-.85,2l-.4-.17Z"/><path class="cls-171" d="M169.16,118.05c.29-.68.57-1.36.85-2a2.64,2.64,0,0,1,2.89,2.9A5.21,5.21,0,0,1,169.16,118.05Z"/><path class="cls-172" d="M171.86,105.93c-1.34-1.11-.7-2.66-.92-4l0-1C172.83,102.29,171.91,104.18,171.86,105.93Z"/><path class="cls-173" d="M161,68l2,3c1,4.21,1.9,8.47,3.15,12.61,1,3.24,1.71,5.84-3.24,5.23-.27,0-.62.69-.94,1.06l-1.93.16a3.2,3.2,0,0,1-3.62.47,1.21,1.21,0,0,1-.57-1.23c.86-1.54,2.89-1.4,3.91-2.72.63-3.72-.21-7.23-1.28-10.74-.62-2-1.83-4-.95-6.25.29-.4.95-.86,1.12-.64C160.59,71.41,160.17,68.2,161,68Z"/><path class="cls-174" d="M145.85,94.09c-1.92,2.09-5-.26-6.92,1.8-6.1,0-12.2,0-18.29.15-1.57,0-3.35-.6-4.59,1a2.69,2.69,0,0,1-1.58.65c-1.65-.12-2.9-.94-2.86-2.63,0-1.84,1.73-2.12,3.17-2.32a24.65,24.65,0,0,0,4.27-.76,23.31,23.31,0,0,1,8.37,0,17.41,17.41,0,0,0,5.56.75,4.13,4.13,0,0,1,3,1.18Z"/><path class="cls-175" d="M135.94,93.88l-2.82,0c-.65-.31-1.35-.55-2-.89-1.07-1.06-3.77-1.61-1.2-3.82a21.17,21.17,0,0,1,10.46.14c.58,2.23.58,2.23-3.35,3.63Z"/><path class="cls-176" d="M137,92.91l3.94-2.8a2.5,2.5,0,0,1,2.25-.82c2,1.07,6-1.07,5.73,3.62Z"/><path class="cls-175" d="M149,92.91c-.69-3.68-4.59-.6-6-2.84,1.37-1.64,3.29-1.34,5.09-1.47,2.66.26,5.52-.7,7.89,1.31l4,.13L160,92c-3.3.51-6.79-1-10,1Z"/><path class="cls-176" d="M150,92.94c3-4,6.54-1.69,10-1C156.8,94,153.32,92.67,150,92.94Z"/><path class="cls-177" d="M91.93,119l1.95,1q0,7.48.07,15c-1.21,1.67.12,3.33,0,5l-.06,4a8.41,8.41,0,0,0,0,6l.11,6A55.19,55.19,0,0,1,94,171L94,175c-1.4,1,.78,3.74-2,4-1.58-1.38-.68-3.3-1.08-4.93L91,173c2.3.94,2.11-.71,2-2-.72-7.3,1.2-14.64-1.63-22-1.41-3.68-1-8.51.43-12.76A28.65,28.65,0,0,0,91.93,119Z"/><path class="cls-178" d="M94,119a5.53,5.53,0,0,1-.84-3.78c.2-.84.54-1.7,1.46-1.78,1.48-.14,1.4,1.1,1.41,2,0,1.81-.08,3.63-.14,5.45Z"/><path class="cls-128" d="M94,171q0-7.55,0-15.08A26.08,26.08,0,0,1,94,171Z"/><path class="cls-128" d="M94,140a3.39,3.39,0,0,1,0-5C93.37,136.65,95.69,138.29,94,140Z"/><path class="cls-128" d="M93.94,150a4.75,4.75,0,0,1,0-6Z"/><path class="cls-128" d="M92,179c1.64-.85.41-3.14,2-4C93.24,176.28,95.7,179.17,92,179Z"/><path class="cls-179" d="M157,97.05l5,0c3.49,2.18,2.49,5.65,2,8.57a68.32,68.32,0,0,1-14.63,32.93c-12,14.59-27.22,23.75-46.27,25.81-5.18.56-5.54.09-5.37-5.39,5.05-3.25,11.14-2.83,16.62-4.78,17-6.06,29.43-16.95,37.2-33.29C155.15,113.33,156.36,105.28,157,97.05Z"/><path class="cls-180" d="M98.06,158.94c-.39,3.57.42,4.67,4.67,4.24,30.83-3.1,55.13-28.23,60.1-57.81.46-2.71.76-5.67-.86-8.28l6,.14c.31.58.61,1.17.92,1.76a20.82,20.82,0,0,1-1.92,9c-1.79-2.6-1.05-5.27-.48-8-.69,6-1.07,12.06-3.18,17.94-10.4,29.13-30.94,45.35-61.44,49.28A17.75,17.75,0,0,0,98,168h-.78Q97.15,142,97.1,116.1a.82.82,0,0,1,1.22,0,4.08,4.08,0,0,1,.75,2A25,25,0,0,1,99.2,121c0,.71,0,1.42,0,2.13,0,.94,0,1.88,0,2.83,0,.71,0,1.42,0,2.13,0,1,0,1.9,0,2.85,0,.72,0,1.43,0,2.15,0,1,0,1.92,0,2.88,0,.73,0,1.45,0,2.18,0,1,0,2,0,2.94s0,2,0,3c0,.75,0,1.5,0,2.26,0,2,0,4.05,0,6.07,0,.51,0,1,0,1.52a19.25,19.25,0,0,1-.2,3A4.67,4.67,0,0,1,98.06,158.94Z"/><path class="cls-181" d="M98.05,157l0-3c2.34-1.81,5.26-2.1,8-2.68,17.53-3.74,30.21-13.91,39.23-29.06,3.82-6.41,5.34-13.55,6.57-20.79.22-1.32-.37-1.83-1.53-2-1.49-.15-3-.09-4.48-.21-1.25-.33-2.8-.25-2.84-2.16l12,0c3.26,2.18,2.1,5.4,1.59,8.17a64.08,64.08,0,0,1-20.87,37c-10.11,9.07-22.5,13-35.43,15.63A2.58,2.58,0,0,1,98.05,157Z"/><path class="cls-182" d="M143,97.06c.77,1.09,1.93.87,3,.92,1.79,3.28.41,6.56-.46,9.61-5.92,20.71-19.3,33.86-40.36,38.93-2.39.58-4.87,1.39-7.09-.57l0-2c3-3.23,7.37-3.3,11.22-4.28,14-3.59,29.05-19.51,31.18-34.26.24-1.62.49-3.3-.39-4.84a3.8,3.8,0,0,0-3.33-1.37l-2,0c-.7,0-1.41,0-2.11,0-1,0-2,0-2.92,0h-4.45c-1,0-2,0-2.92,0-.72,0-1.43,0-2.14,0a23,23,0,0,0-3.51.42,2.43,2.43,0,0,1-2-.69c-.26-.74-.34-1.43.57-1.81a1.55,1.55,0,0,0,.77-.1Z"/><path class="cls-183" d="M98.05,157c16.81-2.74,31.87-8.48,43.23-22.24a65.91,65.91,0,0,0,14.29-29.91c.52-2.66.8-5.24-.57-7.73l2,0c1.4,3.69.7,7.13-.11,11a67.17,67.17,0,0,1-6.4,17.39c-6.28,12.15-15.79,20.66-27.81,26.66a68.76,68.76,0,0,1-24.61,6.84C98.06,158.28,98.05,157.62,98.05,157Z"/><path class="cls-184" d="M34,36c1.54-3.31,4.28-2.53,6.93-2.05l-9,9.93C30,40.6,32.06,38.33,34,36Z"/><path class="cls-185" d="M25,90c-2.42.13-3.23-.92-2.8-3.34,4.28-24.58,17-43.37,38.64-55.87,8.27-4.78,17.73-6.12,26.88-8.23A2.76,2.76,0,0,0,90,21l1,0c0,1,.07,2,.11,3a1.16,1.16,0,0,1-.12,1.35c-1.24.91-2.77,1-4.16,1.54-10.19,1.9-20,4.72-28.84,10.48a70.73,70.73,0,0,0-27,32.43c-2,4.74-4,9.52-4.05,14.81-.58,1.59-.56,3.36-1.35,4.89Z"/><path class="cls-186" d="M90.89,25,91,24,93,23c0,14.77,0,29.54,0,44.31,0,1.91-.68,4,.94,5.69,0,.64.09,1.29.14,1.93L94,75a3.15,3.15,0,0,1-3,.71c-4.65-.93-2.17-3.62-1.45-5.89.16-12.61,0-25.2.07-37.8a21.12,21.12,0,0,1,.35-5.44A6.5,6.5,0,0,1,90.89,25Z"/><path class="cls-187" d="M97.08,32.86V31.13a3.32,3.32,0,0,1,1.42-1.85c5.19-1,9.77,1.36,14.53,2.69,1.65.78,3.43,1.26,5.07,2.06,1.07.53,2.25,1.34,1.81,2.61s-1.8,1.11-3,.73a49.45,49.45,0,0,0-8.23-2.11c9.27,2.12,17.85,5,24.65,11.61a9.36,9.36,0,0,0,4,3.64,6,6,0,0,1,1.42,1.58,59.82,59.82,0,0,0,5.18,10.1,45.34,45.34,0,0,1,7.35,25.72,2.12,2.12,0,0,1-1.34.58c-1.43-.22-2.07-1.28-2.64-2.43a101.06,101.06,0,0,0-8.61-22.15,36.93,36.93,0,0,0-14.4-14.59c-3.93-2.15-7.76-4.47-12.06-5.86-1.25-.4-2.66-1-2.54-2.63.15-1.91,2.13-1,2.81-1.5-4.73-.95-9.69-1.64-14.54-3C97.12,35.32,97.87,33.9,97.08,32.86Z"/><path class="cls-188" d="M97.93,45c-.32-.65-.65-1.3-1-2,0-1,0-2,0-3a4.84,4.84,0,0,1,1.36-.82c5.61-.54,10.26,2.27,15.06,4.42,2,.89,2.59,2.53,1,4.43-4,.83-7.72-1.26-11.66-.9A8,8,0,0,1,97.93,45Z"/><path class="cls-189" d="M105,21l13,3c1,.89,3.54.54,2.87,2.61-.59,1.81-2.43,1.1-3.83.58-5.94-2.23-12.4-1.66-18.43-3.4a3.56,3.56,0,0,1-1.52-1.89c.05-.59.11-1.19.16-1.78l.74-.06C100.2,21.25,102.77,19.77,105,21Z"/><path class="cls-145" d="M97.07,21.9,98,23a4,4,0,0,1,1.07,2,9.4,9.4,0,0,1,0,3A3.83,3.83,0,0,1,98,30l-.86,1.15Q97.07,26.53,97.07,21.9Z"/><path class="cls-190" d="M107.87,17.09,104,16.78c.06-1.2.75-1.68,1.88-1.65,1.46,1.4,3.34.65,5,1C110.15,17.23,108.91,16.84,107.87,17.09Z"/><path class="cls-145" d="M97.69,39.87,97,40c0-2.37.07-4.75.1-7.12.94.86.69,2,.81,3.11C99,37.34,99.21,38.65,97.69,39.87Z"/><path class="cls-191" d="M105,74.13,103,73c-1.21-.86-2.91-.68-4-1.86-2.62-3.19-1.56-6.95-1.31-10.43C97.9,58.17,101.55,57,103,59c3.75,5.34,10.35,6.15,14.87,10.12,3,2.27,4.7,5.51,6.55,8.65.28,2.84-1.14,2.74-2.92,1.57-2.09-1.37-3.55-3.42-5.08-5,2.57,4,6.59,7.59,7.12,13.06a2.18,2.18,0,0,1-.87,1.13,6.94,6.94,0,0,1-5,.18,2.55,2.55,0,0,1-1.06-.92c.41-5.73-2.52-9.12-7.7-10.92A8.07,8.07,0,0,1,105,74.13Z"/><path class="cls-192" d="M91,75h3l9,3c2.09.61,4.89.47,4.28,4a2.93,2.93,0,0,1-2,.89c-2.23.16-3.45-1.61-5.08-2.64-.67-.42-1.54-.92-2,.18-.29.63.21,1.23.6,1.76.61.89,1.85,1.52,1.18,2.91-2.19,1.55-4.44,2.84-6.93.6-1.27-1.13-1.53.43-2.18.78-1.81,1-2,3.26-3.49,4.57a3.12,3.12,0,0,1-2,.66,3,3,0,0,1-1.32-.53c-.66-1.22,0-2.28.43-3.35A2.77,2.77,0,0,0,83.43,84c-1.53-1.15-2.23.68-3.28,1.27a2.59,2.59,0,0,1-1.4.19,1.7,1.7,0,0,1-1.17-1.69C80.33,78.21,84.89,75.41,91,75Z"/><path class="cls-193" d="M118,70c-5-3.19-11.73-3.72-15-9.55a2.27,2.27,0,0,0-2.82-1.28,2.48,2.48,0,0,0-2.07,2.46c-.16,3.28-.67,6.65,1.89,9.39-1.59,1-2.33.1-2.85-1.29,0-.91,0-1.82,0-2.73q.39-6,.79-12c4.11-2.24,7.66.62,10.48,2.3,5.54,3.3,11.75,6,15.6,11.67a4.06,4.06,0,0,1,.58,1.27c-.09,2.49-1.45,2.62-3.29,1.72C120.11,71.38,119.47,70,118,70Z"/><path class="cls-194" d="M107,82c-.55-2.14-2.41-2.93-4.06-3.93,3.06-.07.83-2.9,2-3.93,1.76-.27,2.58,1.46,4,1.87,3.75,2.25,6.41,5.24,6.61,9.88-.43.51.2-.09-.14.47-.83,1.37-1.63,2.49-3.21.83.51,1.38.9,2.7-1.23,3C109.15,87.7,107.2,85.27,107,82Z"/><path class="cls-145" d="M97.13,69.72c.75.88,1.57,1.59,2.85,1.29,1,.69,2.45.66,3,2C100.63,72.64,97.22,74.17,97.13,69.72Z"/><path class="cls-195" d="M97.93,45l5,1c3.71.6,6.86,1.79,9.62,4.82,3.53,3.86,9.41,4.75,12.86,9.08a75.73,75.73,0,0,1,13.19,23.65c.49,1.51,1.26,3.13.09,4.73-1.42.94-2.93.75-4.46.41a3.63,3.63,0,0,1-2-2.05C130.15,80.75,126.88,75.47,124,70h0a27.88,27.88,0,0,0-12.54-13.57c-3.21-1.8-6.12-3.91-10-3.94A4.94,4.94,0,0,1,97.89,51C97.9,49,97.92,47,97.93,45Z"/><path class="cls-196" d="M97.89,51c8.92-.34,14.8,5.27,21.66,9.81,4.3,2.84,1.73,6.87,4.43,9.2-4.07-5-10-7.86-15.1-11.39-2.73-1.88-6.85-3.92-11-3.62C97.88,53.65,97.89,52.32,97.89,51Z"/><path class="cls-82" d="M28,91l-3,0V90h0a6.47,6.47,0,0,1,4.79-1.39c3.73,0,7.48-.14,11,1.31,1.86.46,1,2,1.22,3.11-1.71,1.69-3.39.71-5.07-.06C34.62,89.44,31.09,91.3,28,91Z"/><path class="cls-197" d="M89.9,116.12q0,9.9,0,19.8c-1.46,1.47-.61,3.38-1,5.06-2.09,1.44-4.24.42-6.22-.13-3.36-.94-6.61-2.22-10.2-2a3.16,3.16,0,0,1-2.76-.92c-2.87-4.18-9.23-3.95-11.35-9.06A3,3,0,0,0,57,127.62c-10.85-5.33-12.6-15.33-13.36-25.87-.15-2.11.33-3.63,2.71-3.89.86-.42,1.94-.13,2.69-.89l22,0a1,1,0,0,1-.29,1.46,4.57,4.57,0,0,1-1.52.66c-3.75.42-7.52.13-11.28.24-1.15,0-2.31-.08-3.48-.1-2.79-.05-3.93,1.11-3.34,4,1.18,5.75,2.27,11.51,8,14.75.58.32,0-.23.38.31,5.37,8.27,14.17,10.83,22.73,13.89,2.17.78,3.17.85,3.41-1.75.06-.59,1.3-.94,1.65-1.75a11.8,11.8,0,0,0,.36-4.14c.2-2.86-.56-5.72.11-8.57a1.47,1.47,0,0,1,2.15,0Z"/><path class="cls-198" d="M46,142c-1.88,1.75.24,2.47,1,3.45,1.09,1.47,1,2.31-1,2.55a16.37,16.37,0,0,1-5-5,3.05,3.05,0,0,1-.65-1.2c-2.22-5.36-6.33-9.65-8.47-15-1.5-3.79-4-7.18-4.21-10.54.21.35.32,1.34-1.06,2-2-1.29-2.23-3.12-1.58-5.22,1.13-5.33-2.22-10.66,0-16l10,0c.21.9-.33,1.37-1,1.75-3.33.62-4.12,2.77-3.41,5.77.56,2.37.55,4.84,1.26,7.19,2.38,9.23,5.91,17.86,12.76,24.8A6.18,6.18,0,0,1,46,139.1,3.49,3.49,0,0,1,46,142Z"/><path class="cls-199" d="M34,98l1-1,14,0a2,2,0,0,1-2,1c-6.42,1.5-6.38,1.5-5.6,8.05.29,2.39,1.28,4.76.35,7.21.1.94-2.06.22-1.18,2.14,2.78,6.06,6.25,11.72,9.55,17.48,1.13,2,2,3.9-1.71,3.61-7.08-6-11.16-13.78-13.24-22.66-.79-3.38-1.31-6.81-2.08-10.2C32.65,101.67,32.47,99.67,34,98Z"/><path class="cls-200" d="M91,75c-4.8,2.31-9.77,4.41-13,9a10.58,10.58,0,0,0-.75,5c.06.45.1.91.15,1.37.34,4.06,1.58,8.24-1.63,11.8-2.52-.88-4.4-2.1-2.81-5.19,1.33-.18,2.09-.86,2-2.29C74.77,92.84,73.26,93.1,72,93c-2.93-1.72-6-1-9.14-.7-1.23.1-2.71.83-3.07-1.24,1.13-1.76,3-2.09,4.81-2.31,3.53.34,5.92-.8,6.71-4.63a8.49,8.49,0,0,1,3.27-4.73c3.49-2.4,6.28-5.76,10.4-7.29,2-.74,3.93-1.8,6-.15C88.77,73,88.83,74,91,75Z"/><path class="cls-201" d="M60,91c1.28,1.6,2.66.25,4,.23,2.77,0,6-1.59,8,1.76-10-.18-20,1.59-29.95,0-3.25-.59.39-1.4-.07-2.08-.18-1.54,1-1.62,2-1.83a6.49,6.49,0,0,1,1.59.14c2.61.68,5.28.3,7.93.36C55.71,89.8,58.11,89.12,60,91Z"/><path class="cls-202" d="M73,97c-.3,2.45,1.68,3.51,3,4.94a.83.83,0,0,1,1.17,0,2.05,2.05,0,0,1,.07,1.36c-.71,1.23-1.32,2.58-3,2.79-2.37-2.18-4.8-4.32-3.41-8.08.05-.34.1-.68.14-1Z"/><path class="cls-158" d="M41,142c0,.33,0,.67,0,1a2,2,0,0,0-2,1,59.35,59.35,0,0,1-15-28c0-1.1-.17-2.29,1-3,.42,1.76.65,3.61,2,5C31.41,126.13,35.68,134.36,41,142Z"/><path class="cls-203" d="M41,114c-.38-3.59-.21-7.35-1.27-10.73-1.44-4.59.12-5.72,4.29-5.28a26.9,26.9,0,0,0,3,0c-4.11,3.37-2,7.79-1.45,11.58.51,3.5,2.28,6.93,4,10.11,1.28,2.35,2.57,4.74,5.88,5.62,2,.54,5.07,1.37,5.44,4.81a2.36,2.36,0,0,0,3.3,2,2,2,0,0,1,1.81.5c6,7.45,15.57,5,23,8.34v5c-6.73,1.78-12.9-.15-18.65-3.33a66.52,66.52,0,0,1-15.71-11.84c-1.56-1.6-.79,2.4-2.51,1.5A27.43,27.43,0,0,1,41,114Z"/><path class="cls-204" d="M46,142l-1-2c-.14-1.11,2.47.46,1.45-1.52.27-2.08,1.49-1.8,2.74-1s2.5,2,3.89,2.84a9.48,9.48,0,0,1,1.1.91c8,7.2,17.13,12.35,27.76,14.65,2.39.51,5,.46,7,2.16.68,4.82-1.56,5.58-5.8,4.64C71.93,160.11,61.51,156,53,148c-1.38-.94-2.58-2.11-4-3A6.25,6.25,0,0,1,46,142Z"/><path class="cls-205" d="M52,132c1.67-2.55,3-2.77,5.38-.27C63.31,138,70.94,142,78.84,145c2.77,1,6.74.57,10.16,1,0,1.33,0,2.66,0,4a4.66,4.66,0,0,1-2.68,1.16c-9.54,1.06-29.57-9.06-34.16-17.27A2.17,2.17,0,0,1,52,132Z"/><path class="cls-206" d="M52,132c9.22,12.38,22,17.44,37,18v3c-1.85,1.63-4,1.42-6.14.94A94.37,94.37,0,0,1,53,141h0c-1.49-1.54-4.13-2.17-4-5,2.43-.33,1-1.24.38-2.16a131.14,131.14,0,0,1-9.88-18c-.71-1.64-.76-2.67,1.51-1.83A58.37,58.37,0,0,0,52,132Z"/><path class="cls-207" d="M53,141c9.32,2.55,17.12,8.79,26.67,10.87A36.52,36.52,0,0,0,89,153l0,5c-13.3-.48-24.2-6.72-34.44-14.47C53.8,142.94,53.49,141.83,53,141Z"/><path class="cls-198" d="M49,145c2,.07,3.12,1.39,4,3C51,147.89,49.88,146.58,49,145Z"/><path class="cls-208" d="M98,25c0-.67,0-1.34,0-2,7.43.65,15,.66,22,4.09.65-2.19-1.71-1.88-2-3.09,6.29.14,11,4,16,7-2.38,3.28-4.43-.29-6.6-.49-1.81-.17-2-.12-1.4,1.48-2.3,1.49-4.06-.35-6-1s-4-1.63-6.19-1.63a9.3,9.3,0,0,1-4.41-1.13c-3-1.52-6.2-1.74-9.41-2.09A4.55,4.55,0,0,1,98,25Z"/><path class="cls-208" d="M105,21c-2.34-.29-4.87.84-7-.91C100.32,20.28,102.85,19.14,105,21Z"/><path class="cls-209" d="M161,68v3.3L158,69l-.51-.4c-1.29-1-.59-3.91-3.38-3.42a1.67,1.67,0,0,1-1.24-.19c-6-12.21-16.47-20-27.46-27.25-1.94-2.41,1.11-3.15,1.6-4.75,6.3,1.45,11.09,5.58,15.84,9.49A62.08,62.08,0,0,1,161,68Z"/><path class="cls-210" d="M127,33c1.48,1.93,1.48,1.93-.61,2.28-1.55.26-.39,1.13-.4,1.74a3.41,3.41,0,0,1-4.56-.35C119,34.34,115.92,33.92,113,33c-5-.94-9.8-3.15-15-3,0-.66,0-1.32,0-2,3.72-2.37,7.43-1,11.2-.08,1.52.37,3.19,2.7,4.82.09,4.47-.08,7.85,3.12,12,4Z"/><path class="cls-177" d="M75,106a3.1,3.1,0,0,1,2.06-3,2.81,2.81,0,0,1,2.62.32,8.15,8.15,0,0,1,2.5,2.32c3.47,4.15,7.72,2.08,11.79,1.48a9.18,9.18,0,0,1,4.77-1c5.5,1.44,6.1,1.07,10.37-6.53a6.11,6.11,0,0,1,1.81-1.06c3.3-1.59,4.1.64,4.77,3.1C113.57,110,105.16,116.85,98,116l-.47,0-.47.09c0-2,0-4-2.54-4.79-2-.59-3.6-.33-4.6,1.69-1.45,1-2.72,2.32-4.7,2a4.07,4.07,0,0,1-2.6-1.09A10.13,10.13,0,0,0,79.15,111a7.45,7.45,0,0,1-1-.85,30.49,30.49,0,0,1-2.93-3.58C75.13,106.39,75.06,106.18,75,106Z"/><path class="cls-202" d="M84.69,114.16,90,113a3.12,3.12,0,0,0,0,3L88,115.93C86.23,116.56,85.17,115.9,84.69,114.16Z"/><path class="cls-211" d="M98,168c2.14-3.85,6.21-2.28,9.22-2.78,23.22-3.82,39.71-16.42,50.3-37.19,4.08-8,7.42-16.19,7.54-25.36,0-1,.36-1.94,1.94-3.06V108c.07,6.77-3.65,12.54-5,18.92a42.29,42.29,0,0,0-2.84,5.15v0c-6.44,12.26-16.48,20.9-28.08,28h0c-8.25,3-16.27,6.67-25.07,7.93a13.85,13.85,0,0,1-8,0Z"/><path class="cls-180" d="M98,168h8c-1.77,1.74-4,.65-6,1A2,2,0,0,1,98,168Z"/><path class="cls-165" d="M131,160c3.78-4.41,9.29-6.58,13.38-10.75,5.33-5.42,10-11.35,14.7-17.23-2.45,8.56-8.77,14.19-15.05,19.84l-2.19,1.95C138.1,155.65,135.31,159.14,131,160Z"/><path class="cls-111" d="M143.21,155.15l.75-.23a3,3,0,0,1-2,3.08l-1.11-.14Z"/><path class="cls-165" d="M159.11,132.08a5.94,5.94,0,0,1,2.84-5.15c0,.43.08.85.13,1.27C161.12,129.52,160.89,131.4,159.11,132.08Z"/><path class="cls-212" d="M161,88a8.35,8.35,0,0,1-5,1c-.12-.2-.23-.41-.35-.6-.78-5.33-.6-10.83-3.61-15.69-1.89-3-1-5.72,1.94-7.71v0c1.7-.35,2,1.07,2.68,2.07a23.79,23.79,0,0,0,1.63,6.57C160.41,78.12,160.36,83.14,161,88Z"/><path class="cls-209" d="M161,88l-5-21c1.93-.61,1.13,1.54,2,2h0c.94,5.51,3.31,10.69,3.71,16.34C161.76,86.37,162,87.3,161,88Z"/><path class="cls-212" d="M156,89.91h-8c0-1.82,1.38-1.32,2.4-1.42,1.93-.49,3.88-1.27,5.6.49l0,0Z"/><path class="cls-125" d="M128.9,90.16l3.17,2.78A4.1,4.1,0,0,1,128,93H119a2.68,2.68,0,0,1-1.86.43c-1.49-.25-3.73.91-4.3-1-.68-2.31,1.65-2.72,3.29-3.34C120.38,89.81,124.89,87.11,128.9,90.16Z"/><path class="cls-213" d="M116.11,89.76c-.32,1.35-2.48.81-2.58,2.53,1.71,1.3,3.7.39,5.5.73-1,1.15-2.39.79-3.67.92-1,.11-2.67-.49-2.84,1.09-.19,1.73,1.55,1.77,2.76,2.13,0,.63.08,1.25.11,1.88a1.57,1.57,0,0,1-.49,1.94c-.3-2.58-2.61-1.29-3.88-2-1.87-2.25-1.68-5-1.78-7.63.25-.82.66-1.47,1.67-1.4a7.57,7.57,0,0,1,4-4c.9.36,1.11,1.24,1.46,2A1.53,1.53,0,0,1,116.11,89.76Z"/><path class="cls-213" d="M128,93l4.12-.07,1.05.91C131.36,93.81,129.47,94.53,128,93Z"/><path class="cls-214" d="M116.11,89.76l-.24-1.71A.72.72,0,0,1,117,88h0c2.07.94,4.2.52,6.32.3,2.13-.94,4.38-.58,6.58-.66,2.69,0,5.24,1.33,8,.88a51.11,51.11,0,0,1,5-1,11.67,11.67,0,0,1,1.32-.36A35.15,35.15,0,0,0,148,86l2,2q.5.33.33.66T150,89l-2,.92-5,.17-2,0-12.07,0Z"/><path class="cls-215" d="M98.08,146c10.78-.35,20-4.5,28.46-11C138.65,125.53,144,112.67,146,98h5c2.54,2.89.32,5.82-.24,8.53-2.78,13.5-9.49,24.93-20.37,33.32-7.74,6-16.41,10.72-26.42,12.1-2,.27-3.8,1.26-5.85,1Q98.09,149.43,98.08,146Z"/><path class="cls-216" d="M98.09,152.91c4.43-3.22,10-2.62,14.92-4.61,15.74-6.4,27.44-16.6,33.59-32.66C148.78,110,150.93,104.23,151,98c1.64.19,2.95.67,2.59,2.76-3.12,18-11.06,32.81-26.95,43.13A63.9,63.9,0,0,1,98.07,154C98.08,153.61,98.08,153.26,98.09,152.91Z"/><path class="cls-217" d="M137,98a6.62,6.62,0,0,1,4,1c.59,9.29-3.26,17.19-8.49,24.29a45.77,45.77,0,0,1-28.25,18.08c-2.13.45-4.19,1.23-6.15-.39l0-3c3-2.07,6.67-1.49,9.92-2.78,15.62-6.21,26.11-16.49,27.77-34A4.9,4.9,0,0,1,137,98Z"/><path class="cls-218" d="M133,98h2c2.1,1.25,1.36,3.07,1.07,4.88-2.66,16.36-17,31-33.29,33.88-1.63.29-3.33.53-4.73-.78l0-3c4.29-2.58,9.38-2.81,13.89-5.13,10.27-5.3,15.84-13.76,18.7-24.47C131.18,101.46,131.42,99.46,133,98Z"/><path class="cls-219" d="M98.09,141c18.38-.36,35.75-14.58,40.8-33.34.77-2.86,1.39-5.76,2.09-8.64,1.84,2.59,1.2,5.39.44,8.06-5,17.65-15.86,29.36-34,34.24-3.08.84-6.42,1.19-9.36,2.66Z"/><path class="cls-220" d="M98,136c14.75-.3,29.92-11.74,34.9-26.73,1.19-3.57,4.16-7,2.05-11.25h2c2.33,21-21.12,41-38.92,40C98.05,137.31,98.05,136.64,98,136Z"/><path class="cls-221" d="M98.06,131v-3c3.38-2.11,7.45-2.43,11-4.36,8.72-4.79,14.68-11.58,16.66-21.48.53-2.66,1.37-4.47,4.55-3.27,2.18,6.32-1.54,11.32-4.35,16.1-5.35,9.11-13.66,14.6-24.08,16.75A3.8,3.8,0,0,1,98.06,131Z"/><path class="cls-222" d="M98.06,131c17.72-.59,31.55-17.56,31.92-32-.35-.22-.47-.43-.35-.65s.23-.33.35-.33h3c-1.68,11.14-5.67,21-15.31,27.77-5.88,4.12-12.17,7.22-19.59,7.22C98.07,132.31,98.07,131.64,98.06,131Z"/><path class="cls-223" d="M117,99c.7-1.21,1.89-1,3-1,2.35,3,.44,5.67-.6,8.37-2.86,7.44-8.32,12.18-15.69,14.85-1.87.68-3.82,1.38-5.62-.24l0-3c1.22-1.48,3.07-1.78,4.71-2.48C110.24,112.32,114.62,106.53,117,99Z"/><path class="cls-224" d="M130,98v1c-2.5-.22-2.78,1.22-3.07,3.34-1.79,13.07-15.73,25.36-28.86,25.66,0-.67,0-1.34,0-2a6.1,6.1,0,0,1,3.31-2c12.43-2.69,19-11.07,22.22-22.78A6.39,6.39,0,0,1,125,98Z"/><path class="cls-225" d="M125,98c-.22,12.59-10.65,24.78-23.08,27-1.3.23-2.57.63-3.85,1,0-1,0-2,0-3,3.55-1.68,7.51-2.25,10.9-4.42,6.94-4.46,11.08-10.62,12.11-18.83A3.22,3.22,0,0,1,122,98Z"/><path class="cls-226" d="M122,98c1,12.8-12.3,25-23.92,25,0-.67,0-1.34,0-2A23.81,23.81,0,0,0,120,98Z"/><path class="cls-226" d="M117,99c-.83,9.77-7.41,14.57-15.58,18a34.12,34.12,0,0,1-3.31,1L98,116c8-2.36,14.46-6.43,16.86-15,.17-.64.33-1.29.49-1.94Z"/><path class="cls-227" d="M30,89.82,25,90c.22-1.7-.68-3.61,1-5,2-4.86,2.64-10.08,4.79-15,9.81-22.17,25.9-36.65,49.81-42,2.18-.49,4.55-.45,6.4-2,1-1.45,2.55-.86,3.9-1,0,.33,0,.67,0,1-1,1.56,0,3.42-.71,5a3.21,3.21,0,0,1-1.21.85c-28.6,4.06-47.17,20-56.08,47.37-1.06,3-1.3,6.27-2.08,9.38A4.24,4.24,0,0,1,30,89.82Z"/><path class="cls-228" d="M87,26c1.38.33,2.62,1,.45,1.83-2,.74-4.2.75-6.3,1.15-19,3.66-33.22,14.36-43.5,30.23-4.51,7-8.28,14.58-9.55,23.06-.17,1.11,0,2.39-1.25,3-.19.09-.56-.19-.84-.3,0-10.92,5-20.06,10.91-28.69C49,38.66,65.62,28.38,87,26Z"/><path class="cls-229" d="M90,31c.23-1.68-.64-3.58,1-5q0,23,0,45.94c-4.57.06-8.18,2.33-11.54,5.13C78,78.21,77.1,80,75,80c0-3.92,3.25-5.28,5.75-7.15,2.21-1.64,5.11-2.1,7.19-4,1.48-5.47.58-11,.45-16.51a27.14,27.14,0,0,1,.13-5.84c.3-3.47-.12-6.94.07-10.41C88.63,34.27,88.64,32.45,90,31Z"/><path class="cls-230" d="M148,86c-.33,2.67-2.43,1.81-4,2-2.86-2.44-2.8-6.22-4.09-9.34-3.07-7.41-7.63-13.84-12.19-20.29-2.13-3-5.64-4.49-8.7-6.41a11.66,11.66,0,0,0-4.6-3.46c-.14-.16-.28-.33-.41-.5,1.24-2.77-.49-4.06-2.67-4.69-4.5-1.29-8.91-3-13.63-3.43.07-1.3.13-2.6.2-3.89,5.77-.43,11.06,1.37,16.47,3.41-.78,2.27-3-.45-4,2.15C132.63,47.84,143.78,64.06,148,86Z"/><path class="cls-207" d="M150,89V88h1c1.08-8.74-.25-17-4.9-24.61-2.44-4-5.58-7.46-8.1-11.38l-1-1c-1.3-1-2.78-1.86-4-3-7.14-6.51-16-9.64-25.24-12.5,4.2-1.75,7.69,1.31,11.84,1.24-1.78-2.66-5-1.78-6.59-3.74,4.92-.6,8.42,3.45,13,4,8.09,5.54,16.84,10.3,22.37,18.87,1.93,3,3.75,6.08,5.62,9.13-2.77,4.73-.28,8.39,1.58,12.77,1.28,3,2.12,7.41.42,11.21Z"/><path class="cls-231" d="M138,52c8.26,6.17,12.21,15.05,14.48,24.59.73,3.06-.33,6.69.31,10.08.17.9-1,1.19-1.79,1.32-1.43-6.3-2.62-12.67-4.39-18.87a19.32,19.32,0,0,0-4.17-7A18.77,18.77,0,0,1,138,52Z"/><path class="cls-231" d="M133,48c2,.08,3.12,1.39,4,3C135.16,50.64,133.28,50.36,133,48Z"/><path class="cls-232" d="M119,51c8.92,2.65,12.7,10.51,17,17.48,3.71,6,6.89,12.37,7.94,19.52h0c-1.39.89-2.92.35-4.39.42L139,88a80.25,80.25,0,0,0-12-24.26c-2.34-3.27-5-6.29-9.06-8-3.24-1.4-6.72-2.88-8.42-6.76-1-2.38-4.65-1.13-6.48-2.94,3.81-.09,7.54.21,11,2h0A15.65,15.65,0,0,1,119,51Z"/><path class="cls-233" d="M114,28c.4,1.12,2.19,1,2.26,3.07-6.07-1.8-12-3.79-18.28-3.08l0-3,2,0c3.26,1,6.68,1.22,10,2C111,28.43,112.6,27.85,114,28Z"/><path class="cls-234" d="M130,89h-7c-.33-.22-.43-.44-.33-.66s.22-.33.33-.33h0c2.74-1,3.76-2.64,2.1-5.38-.86-1.4-.11-3.22-1.1-4.61-2.81-2.06-3.9-5.41-6-8,1.21-3,2-.1,2.74.31,1.26.67,2.44,3,3.26-.31,5.7,4.68,7.29,11.65,10,18C132.83,89.07,131.12,87.86,130,89Z"/><path class="cls-193" d="M124,78c2.79,2.36,1.86,6.54,5,9-2.16,1.48-4.15.74-6,1-1.7-6.26-6.06-10.9-10.91-16.78,5.1,1.18,6.74,4.71,9.45,6.77C122.19,78.47,123.16,81.09,124,78Z"/><path class="cls-193" d="M117,88l-1.12.08-1-2.06c-.47-4.23-3.75-6.79-5.94-10C115.32,77.24,118.56,82.07,117,88Z"/><path class="cls-193" d="M123,88v1c-2-.3-4.25.87-6-1Z"/><path class="cls-235" d="M86.88,90.83c.24-4.23,4.26-5.58,6.58-9.31-.19,7.64,4.27,2.65,6.52,3.48l.58.37c1.13,1.23,1.45,2.83,2,4.33a5.45,5.45,0,0,1,.25,2,3.29,3.29,0,0,1-.52,1.27,1.82,1.82,0,0,1-1.3.31A3.38,3.38,0,0,1,99.41,92a9.27,9.27,0,0,1-.65-1.2c-1.06-2.7-3.1-2.36-5.39-2S89.64,91,87.44,91.23Z"/><path class="cls-236" d="M102.19,91.8,101.83,90c.19-.12.38-.24.56-.37,2.21-.29,4.15-.83,3.47-3.77a6.17,6.17,0,0,0-1.15-2.71,1,1,0,0,1,.21-1.09L107,82c1.66,2.48,4,4.61,3.93,8l-1,1C107.64,93.73,105.11,94.52,102.19,91.8Z"/><path class="cls-237" d="M104.92,82q.06.46.09.93a4.51,4.51,0,0,1-2.1,2.31c-2.06.11-2.87-2.4-4.91-2.34-1.89-1-2.88-2.68-1.36-4.38,1.35-1.5,3.14-.27,4.45.66S102.92,82.06,104.92,82Z"/><path class="cls-238" d="M80,85c.42-2.07,1.32-4.52,3.65-2.83,1.26.92,4.66,3,1.63,6A17.62,17.62,0,0,1,81.36,87C80.55,86.54,79.56,86.24,80,85Z"/><path class="cls-239" d="M82,86a3.42,3.42,0,0,1,3.25,2.1L83.89,91c-1.57,1.37-3.06,1.07-4.49-.23C77,87.38,79.31,86.6,82,86Z"/><path class="cls-240" d="M84.85,91l2-.15L87,91c1.38,3.19-1.12,5.24-2.42,7.53-.7,1.24-2,.62-2.85-.45-1-2.65.7-4.35,2.17-6.13A12.51,12.51,0,0,0,84.85,91Z"/><path class="cls-241" d="M84.85,91a2,2,0,0,1,.08,1,5,5,0,0,1-2,1,6.54,6.54,0,0,1-5-.88,5.36,5.36,0,0,1-1.92-2.14,6.32,6.32,0,0,1,0-.87c1.08-.83-.54-3.3,2-3.26.86,1.36.1,3.4,1.85,4.39,1.12,1.33,2.62.78,4,.81A7.69,7.69,0,0,0,84.85,91Z"/><path class="cls-236" d="M98,82.94c2.57-1.5,3.21,1.64,5,2.07a1.51,1.51,0,0,1,1.28,1.35,1.57,1.57,0,0,1-2.11,1.07c-1-.56-1.45-1.62-2.18-2.44h0Z"/><path class="cls-242" d="M79.88,90.17c-2.43-.57-1.84-2.46-1.78-4.12-.06-.67.52-.77.93-1L80,85c.41.86,1.23.93,2,1C80.72,87.1,78.11,87.53,79.88,90.17Z"/><path class="cls-243" d="M79,85l-.93,1c-1.51.43-.84,2.35-2,3-.07-2-.44-4,2-5Z"/><path class="cls-232" d="M130,89c1.06-1.44,2.62-.84,4-1h5c.33.22.44.44.32.66s-.22.32-.33.32Z"/><path class="cls-244" d="M90,36c0,3.66,0,7.33,0,11a1.82,1.82,0,0,1-2-.47c-1.52-3.65-3.57-3.63-7.45-2.67C66.26,47.4,56.18,56.07,48.31,68c-3.64,5.52-4.67,12-6.58,18.13-.12.38.23-.19.39-.26a1.91,1.91,0,0,1,2.57.81c.84,1.3.85,2.49-.69,3.33l-2,1L30,89.83c0-.29,0-.57.05-.85,3.44-1.15,4.46-3.89,5.24-7.16,6.12-25.88,23.19-40.56,48.38-46.71C85.69,34.61,88.2,33.4,90,36Z"/><path class="cls-245" d="M84.69,114.16,88,115.93c1.61,2.87.82,6,.92,9-6.24,1.37-10.9-1.43-14.49-6.06-1.72-2.23-3.22-4.12-6.25-4.1a2.89,2.89,0,0,1-2.23-1,53.54,53.54,0,0,1-7.25-11.44c-1.06-2.41-.15-4,3-4,2.75.07,5.58.61,8.3-.41.28,0,.57,0,.86,0A17.26,17.26,0,0,0,75,106v0c1.56,1.16,2.28,3.08,3.85,4.23l-.09-.1c1,1.55,3.26,1.4,4.12,3.13A1.6,1.6,0,0,0,84.69,114.16Z"/><path class="cls-246" d="M88.91,130c-.55,1.37-2.12.66-3,1.46.73,1.09,3.43.87,2.42,2.86-.7,1.37-2.35.54-3.6.1-5.67-2-11.29-4.19-17-6-3.1-1-4.46-3.9-6.5-5.79-5.83-5.44-11.38-11.4-11.78-20.37-.12-2.89.28-4.1,3.08-4.2,1.5-.05,3,0,4.49,0-2.39,7.59,1.24,14,8.36,19A104.07,104.07,0,0,0,88.91,130Z"/><path class="cls-247" d="M88.91,130c-5.35-.5-10.41-1.73-14.29-5.83-.23-.25-.54-.71-.7-.67-4.78,1.39-5.82-4-9.36-5.12-3.91-1.2-11.05-14.15-10.42-17.9.28-1.72,2.29-1.18,2.85-2.43l13,0c-2,1.8-4.45.63-6.67,1-1.26.18-3.31-.55-3.58.74-.33,1.59,0,4.55,1,5,3.11,1.38,3.84,3.52,4.32,6.56.22,1.39,2.15,3.31,4.28,2.42a3.17,3.17,0,0,1,4.5,1.83c2.7,7,9,8,15.08,9.45Z"/><path class="cls-248" d="M49,136l4,5c-2,0-3-1.65-4.28-2.78s-1.61-.51-1.71.77c-5.73-4.44-8.91-10.68-11.92-17-1.55-3.24-2.3-6.82-4.09-10-1.61-2.73-1.33-5.88-1.94-8.83-.81-3.9.76-5.88,4.95-5.17C35,112.24,38.49,125.49,49,136Z"/><path class="cls-249" d="M41,142a54.71,54.71,0,0,1-14-24v-2.92l.66-.2c1.69,3.57,3.39,7.13,5.07,10.7a68,68,0,0,0,6.56,11.55C40.18,138.32,43,139.53,41,142Z"/><path class="cls-250" d="M31,112c1.47-.22,1.53-.24,1.82.86C35.41,122.71,40.94,131,47,139a6.21,6.21,0,0,1,1.2.86,6.57,6.57,0,0,1,.63,1.54L45,140c-.09-2.3-2.07-3.28-3.32-4.78A48.6,48.6,0,0,1,31,112Z"/><path class="cls-251" d="M89,71c-6,.91-10.56,4.13-14,9-.91,1.55-2.46,3-2.6,4.65C72,89.57,69.16,90.58,65,90c-2.85-1.25-5.87,1-8.72-.42-1.38-1-1.35-2.49-1.32-4.32-.9,1.88-1.55,3.78-3.62,2.83-1.8-.82-1.6-2.84-1.19-4.43,1.84-7.2,5.08-13.8,10.35-19s11-10.12,18.35-12.48A15.11,15.11,0,0,1,82.63,51c1.78-.09,4.12-.51,4.53,1.82s-1.94,2.31-3.48,2.68c-2.08.5-3.59,2.1-4.71,2.31C89,53,89.5,53.3,89.44,65.12,89.43,67.06,90,69.08,89,71Z"/><path class="cls-243" d="M76.07,89.91,77.91,91c1.33,2.24,2.93,3,5.09,1l1.93-.11c-1,2-2.86,3.56-3,6l-.09.64c.45,2.69,3.87,3,4.49,5.52a1.57,1.57,0,0,1-.5,1.21c-2.29.79-3.76-1-5.58-1.73C79.2,103,78.38,101.91,77,102H76C76.39,98,77.29,93.94,76.07,89.91Z"/><path class="cls-252" d="M56,89c3,.45,6.18-1,9,1l-5,1-7-.17c-.73-.42-1.49-1.1-.79-1.82C53.29,87.83,54.7,87.92,56,89Z"/><path class="cls-252" d="M44,90c.68-1.34.7-2.66-.7-3.45-1.25-.71-.95,1.6-2.33,1.33C41.28,77.6,45.37,68.78,51.61,61c8.44-10.58,19.84-16.6,32.8-19.78,1.53-.38,5.52-1.69,3.11,3-.14.28,1,1.21,1.47,1.83a5.46,5.46,0,0,1-4.22,2.18,34.61,34.61,0,0,0-18.94,8.52c-8.14,6.45-14.69,14-17.19,24.45-1.09,2.25-2.38,4.24.86,6.22,1.87,1.15,1.36,2.92-1.18,3.07C47.21,90.5,46,90.79,45,90h-.5Z"/><path class="cls-253" d="M65,56c6.52-6.89,15.24-8.49,24-10l1,1c0,6.27,0,12.53,0,18.79,0,1.75.67,3.71-1,5.18,0-4,0-8,0-11.95,0-2.44-.79-2.94-3.35-2.51C82,57.11,78.9,60,74.75,58.91c3.8-2.09,7.21-4.86,11.53-6-7.34-1-13,2.81-18.44,6.94C57,68.12,50.09,80.3,51.81,87.56c2.79-1.1,1.65-5,4.76-6.51-.22,3-.4,5.46-.58,7.93-1,.67-3.71-1.54-3,1.85-2.66-.18-5.47,1-8-.84,1.3-.06,2.6-.07,3.88-.24.28,0,.7-.72.66-1a1.51,1.51,0,0,0-.87-1C45.14,86.51,44.94,84.61,48,81a2.14,2.14,0,0,0,1.39-1.9c1.68-8.42,7.15-14.42,13-20.15A18.39,18.39,0,0,0,65,56Z"/><path class="cls-254" d="M77,102c1.67-1.67,2.6-1.14,3,1a1.46,1.46,0,0,1-1,.87l-2-.92Q77,102.46,77,102Z"/><path class="cls-210" d="M110,27c-3.48.07-6.9-.13-10-2A21.38,21.38,0,0,1,110,27Z"/><path class="cls-173" d="M158,69l-2-2c-.66-.68-1.32-1.35-2-2,.45-.71-.91-3.61,1.71-1.62A6.41,6.41,0,0,1,158,69Z"/><path class="cls-255" d="M102.19,91.8a11.33,11.33,0,0,0,7.76-.86A22.34,22.34,0,0,1,111,99l-1,1c-2.73-1.24-3.34.7-4,2.64-.75,2.12-2,3.41-4.4,2.07a1.85,1.85,0,0,1-.81-1.81c1.34-2,1.75-4.54,3.48-6.36s-.58-1.87-1.27-2.61a2.65,2.65,0,0,1-.9-1Z"/><path class="cls-256" d="M101.94,104c2.82,1.17,2.72-.86,3.15-2.68.75-3.1,2.21-4.61,4.88-1.39-1.38,2.34-1.76,5.24-4.33,6.91-2.29,1.49-4.4,2.16-6.64.09a1.12,1.12,0,0,1,.1-1.23C99.86,104.86,101,104.68,101.94,104Z"/><path class="cls-257" d="M99,106c0,.33,0,.67,0,1l-5,1c-2.33.93-4.58.46-6.83-.33-.94-.65-1.57-1.43-1.19-2.66l0-1a2,2,0,0,1,2.85-1.37c1.49,2.48,3.52,3.54,6.43,2.6a4.15,4.15,0,0,1,3.27.23C98.7,105.63,98.86,105.8,99,106Z"/><path class="cls-258" d="M86,105l1,2c-1.93,2-1.93,2-6-1l-2-2.08,1-.88C82.4,102.4,83.77,104.91,86,105Z"/><path class="cls-243" d="M81,106c2.13-.45,3.46,3.71,6,1,2.29.58,4.57,1.31,7,1C89.36,109.22,84.6,111.34,81,106Z"/><path class="cls-202" d="M78.85,110.22c-2.24-.54-3-2.44-3.85-4.23C77.37,106.41,78,108.44,78.85,110.22Z"/><path class="cls-202" d="M82.88,113.25c-1.69-.63-3.46-1.15-4.12-3.13C80.27,111,82.93,110.32,82.88,113.25Z"/><path class="cls-230" d="M139,89c0-.33,0-.65,0-1h5C142.57,89.65,140.66,88.75,139,89Z"/><path class="cls-259" d="M90,36c-10.13-.27-19,3.55-27.24,8.86-14.3,9.21-23.83,21.86-26.7,38.94-.6,3.61-1.86,6-6,5.18a22,22,0,0,1,2-10c1.39,1.56.12,3.34.36,4.56C33.7,74,38,65.28,43.83,57.21c7.55-10.4,17.73-17.19,29.46-22,3.41-1.4,7.07-1.7,10.62-2.51,1.76-.4,3.67-.33,5.08-1.74h1Z"/><path class="cls-244" d="M89,31c-.33,2.34-2.18,2.75-4,3-17.73,2-30.93,11.27-41.14,25.38-5.68,7.83-9.62,16.43-10.91,26.12a1.75,1.75,0,0,1-1.81,1.77c.42-2.79,1.22-5.48.88-8.23C38,58.4,50.39,43.7,70.53,35.54,76.55,33.1,82.48,31.09,89,31Z"/><path class="cls-188" d="M119,51c-2.14-.22-3.52-1.69-5-3C116.47,47.62,118.21,48.5,119,51Z"/><path class="cls-260" d="M102.05,92.89A7.3,7.3,0,0,0,103,93c1.46,3.22,0,8-3.06,9.82a5.32,5.32,0,0,1-1.69-.07c-3.74-.59-7.54-.22-11.27-.71-2.39-.32-5.57,0-5-4.08h0c1.29.59,2.36,1.2,2.61-1.15C84.78,94.71,87,93.3,87,91a15.67,15.67,0,0,1,6.81-3.6c3.45-.76,5.45,0,6.16,3.55a2.83,2.83,0,0,1-2.29.64c-6.8-.26-6.8-.25-9,6.77,3.57-.33,7.27,2.44,10.08-1.84.47-1.39.84-2.84,2.27-3.62Z"/><path class="cls-261" d="M100,97c.15,2.06-.69,3.16-2.87,3-.66,0-1.34.08-2,0-2.74-.36-6.47,1.38-7.93-1-.94-1.56,1-5.14,2.14-7.14,1.5-2.66,5.26-2.09,8.27-1.44.8.17,1.59.42,2.39.63,0,.32.06.64.08,1-2.44,2.81-6.65,3-8.49,6.1C94.13,98,97,97.15,100,97Z"/><path class="cls-262" d="M100,97c-2.71,3.44-6.45,1.48-10.25,2.15,2.41-4.57,6-6.38,10.34-7.19l1,1C100.69,94.28,100.34,95.63,100,97Z"/><path class="cls-192" d="M100,85a3.44,3.44,0,0,1,2,2,2.2,2.2,0,0,1,.15,3h-.33C100.66,88.53,100.39,86.73,100,85Z"/><path class="cls-263" d="M102.16,90,102,87a2.08,2.08,0,0,0,1.93-1c.77-1.05,1.69-1.65,3-1C107.74,90.36,107.17,90.94,102.16,90Z"/><path class="cls-264" d="M107,85l-3,1-1-1a1.87,1.87,0,0,1,2-2A1.8,1.8,0,0,1,107,85Z"/><path class="cls-265" d="M83,92c-.91,1.23-1.06,3.73-2.88,3.4s-1.56-2.84-2.2-4.4A9.61,9.61,0,0,0,83,92Z"/><path class="cls-240" d="M81.94,97.94c.82,3.3,3.54,2.81,6,3.08,3.69.4,7.55-1.14,11.1,1-3.16,2.27-6.61,1.49-10,1L86,104a54.22,54.22,0,0,1-4.84-3.45C79.82,99.4,79.82,98.25,81.94,97.94Z"/><path class="cls-251" d="M65,56c-.3,3-2.92,4.3-4.71,6.14C55.86,66.69,52.1,71.58,51,78a8.08,8.08,0,0,1-2.41,4.1s-.35-.09-.39-.19A7.31,7.31,0,0,1,48,81c-.33-5.58,2.88-10,5.86-13.9C57,63,60.13,58.52,65,56Z"/><path class="cls-235" d="M99.91,102.05c3.33-2.24,2.25-6,3.08-9.07,1.19.46,2.42.84,3.57,1.39.75.37,1.2,1.87.84,1.88-4.55.07-2.92,5.88-6.44,6.77a.88.88,0,0,1-1.09.12A.85.85,0,0,1,99.91,102.05Z"/><path class="cls-266" d="M100,103c.32,0,.63,0,.95,0l1,1c-.06,2-1.52,1.93-2.92,1.93l0,0c-.59-.74-2.57-.3-1.94-2A1.82,1.82,0,0,1,100,103Z"/><path class="cls-267" d="M100,103c-2.6.21-3,1.18-1,3a45.92,45.92,0,0,1-5.77.94c-2.57.1-5.26,0-4.24-3.94,3.19-1.91,6.71-.44,10-1,.3,0,.6.06.91.08C100,102.36,100,102.66,100,103Z"/></g></g></svg>