<svg xmlns="http://www.w3.org/2000/svg" viewBox="0 0 188.05 187.04"><defs><style>.cls-1{fill:#fefefe;}.cls-2{fill:#fdfdfd;}.cls-3{fill:#564123;}.cls-4{fill:#553f24;}.cls-5{fill:#543e23;}.cls-6{fill:#553f23;}.cls-7{fill:#bcb17c;}.cls-8{fill:#544221;}.cls-9{fill:#776435;}.cls-10{fill:#715428;}.cls-11{fill:#342b22;}.cls-12{fill:#735c31;}.cls-13{fill:#3e3224;}.cls-14{fill:#75582b;}.cls-15{fill:#6e532d;}.cls-16{fill:#624728;}.cls-17{fill:#594326;}.cls-18{fill:#503b21;}.cls-19{fill:#684d27;}.cls-20{fill:#4e3d28;}.cls-21{fill:#6e522a;}.cls-22{fill:#372d23;}.cls-23{fill:#cbbc8b;}.cls-24{fill:#9f925e;}.cls-25{fill:#896a3d;}.cls-26{fill:#7d5f36;}.cls-27{fill:#8f6f40;}.cls-28{fill:#644929;}.cls-29{fill:#b7a16e;}.cls-30{fill:#795a34;}.cls-31{fill:#7c5f36;}.cls-32{fill:#654b2a;}.cls-33{fill:#7e5f37;}.cls-34{fill:#2e2721;}.cls-35{fill:#a9905b;}.cls-36{fill:#30271f;}.cls-37{fill:#82633a;}.cls-38{fill:#8b6c3e;}.cls-39{fill:#d2c492;}.cls-40{fill:#b6a573;}.cls-41{fill:#745631;}.cls-42{fill:#795933;}.cls-43{fill:#71512f;}.cls-44{fill:#6c4c2c;}.cls-45{fill:#907040;}.cls-46{fill:#927241;}.cls-47{fill:#7e5e36;}.cls-48{fill:#a18351;}.cls-49{fill:#403325;}.cls-50{fill:#84663a;}.cls-51{fill:#71522f;}.cls-52{fill:#7a5c35;}.cls-53{fill:#967745;}.cls-54{fill:#312514;}.cls-55{fill:#896b3e;}.cls-56{fill:#634d28;}.cls-57{fill:#5a4826;}.cls-58{fill:#9d925e;}.cls-59{fill:#c0b482;}.cls-60{fill:#cbbf89;}.cls-61{fill:#332817;}.cls-62{fill:#695527;}.cls-63{fill:#785e34;}.cls-64{fill:#baaf7b;}.cls-65{fill:#a49a66;}.cls-66{fill:#7b7138;}.cls-67{fill:#a09867;}.cls-68{fill:#49391d;}.cls-69{fill:#aba06c;}.cls-70{fill:#a49964;}.cls-71{fill:#bca672;}.cls-72{fill:#2e251e;}.cls-73{fill:#d2c690;}.cls-74{fill:#cbba87;}.cls-75{fill:#7e6137;}.cls-76{fill:#997d4d;}.cls-77{fill:#d2c496;}.cls-78{fill:#c7b482;}.cls-79{fill:#aeaba0;}.cls-80{fill:#503c24;}.cls-81{fill:#7e623a;}.cls-82{fill:#715b3d;}.cls-83{fill:#cab887;}.cls-84{fill:#332716;}.cls-85{fill:#3a2d18;}.cls-86{fill:#6b5e28;}.cls-87{fill:#c7b685;}.cls-88{fill:#584c39;}.cls-89{fill:#3f3a34;}.cls-90{fill:#c8b483;}.cls-91{fill:#72582f;}.cls-92{fill:#a78955;}.cls-93{fill:#785732;}.cls-94{fill:#caba8a;}.cls-95{fill:#a78a55;}.cls-96{fill:#473f33;}.cls-97{fill:#b1afa4;}.cls-98{fill:#332615;}.cls-99{fill:#5a4a26;}.cls-100{fill:#bcb381;}.cls-101{fill:#8e6f3f;}.cls-102{fill:#443a2f;}.cls-103{fill:#544a3a;}.cls-104{fill:#9f804c;}.cls-105{fill:#3a3229;}.cls-106{fill:#715230;}.cls-107{fill:#503b22;}.cls-108{fill:#b8ae7a;}.cls-109{fill:#a2834f;}.cls-110{fill:#ab8e5a;}.cls-111{fill:#423626;}.cls-112{fill:#9d9781;}.cls-113{fill:#937342;}.cls-114{fill:#483d31;}.cls-115{fill:#a3a093;}.cls-116{fill:#795934;}.cls-117{fill:#3e362c;}.cls-118{fill:#ab9260;}.cls-119{fill:#534b3e;}.cls-120{fill:#af945f;}.cls-121{fill:#b9a16e;}.cls-122{fill:#a89d68;}.cls-123{fill:#6e502d;}.cls-124{fill:#aa8d59;}.cls-125{fill:#85653a;}.cls-126{fill:#826339;}.cls-127{fill:#41372d;}.cls-128{fill:#493e31;}.cls-129{fill:#b2a774;}.cls-130{fill:#614627;}.cls-131{fill:#654829;}.cls-132{fill:#7b5b34;}.cls-133{fill:#b1a773;}.cls-134{fill:#41311e;}.cls-135{fill:#514429;}.cls-136{fill:#514433;}.cls-137{fill:#261b0f;}.cls-138{fill:#bfa774;}.cls-139{fill:#b29663;}.cls-140{fill:#c7b584;}.cls-141{fill:#b79f6b;}.cls-142{fill:#937443;}.cls-143{fill:#574b3b;}.cls-144{fill:#70593d;}.cls-145{fill:#785c35;}.cls-146{fill:#a4a195;}.cls-147{fill:#7a603c;}.cls-148{fill:#a8a598;}.cls-149{fill:#6f5431;}.cls-150{fill:#c7bf98;}.cls-151{fill:#c9be8b;}.cls-152{fill:#8a6e42;}.cls-153{fill:#8c6e40;}.cls-154{fill:#c4b07c;}.cls-155{fill:#4e4437;}.cls-156{fill:#bcad7a;}.cls-157{fill:#bfbbb0;}.cls-158{fill:#ccc9bd;}.cls-159{fill:#c8c6bf;}.cls-160{fill:#544533;}.cls-161{fill:#d1cfc8;}.cls-162{fill:#38322c;}.cls-163{fill:#5e5240;}.cls-164{fill:#f7f4ec;}.cls-165{fill:#5a4125;}.cls-166{fill:#241b0e;}.cls-167{fill:#e7e5da;}.cls-168{fill:#544529;}.cls-169{fill:#99958a;}.cls-170{fill:#c0bdb2;}.cls-171{fill:#d8d6cc;}.cls-172{fill:#e0ddd2;}.cls-173{fill:#cac7be;}.cls-174{fill:#f3f1e7;}.cls-175{fill:#e6e4d9;}.cls-176{fill:#d0cec4;}.cls-177{fill:#ece9df;}.cls-178{fill:#f0ede3;}.cls-179{fill:#b6b3aa;}.cls-180{fill:#9c988d;}.cls-181{fill:#493d2d;}.cls-182{fill:#938f84;}.cls-183{fill:#4c3922;}.cls-184{fill:#a09d92;}.cls-185{fill:#1f160d;}.cls-186{fill:#b1aea3;}.cls-187{fill:#b3b1a5;}.cls-188{fill:#88693c;}.cls-189{fill:#2f2924;}.cls-190{fill:#72532e;}.cls-191{fill:#785934;}.cls-192{fill:#b4b1a7;}.cls-193{fill:#a8a599;}.cls-194{fill:#262321;}.cls-195{fill:#644f35;}.cls-196{fill:#cecbc0;}.cls-197{fill:#896d40;}.cls-198{fill:#cbba89;}.cls-199{fill:#312b26;}.cls-200{fill:#cac6bb;}.cls-201{fill:#4f3c24;}.cls-202{fill:#bfbcb1;}.cls-203{fill:#f2efe5;}.cls-204{fill:#d7d4c8;}.cls-205{fill:#e0ddd0;}.cls-206{fill:#d3d0c9;}.cls-207{fill:#dcd9d2;}.cls-208{fill:#edebe0;}.cls-209{fill:#e3e0d9;}.cls-210{fill:#332616;}.cls-211{fill:#745833;}.cls-212{fill:#999181;}.cls-213{fill:#654b2b;}.cls-214{fill:#766e61;}.cls-215{fill:#c4c3bc;}.cls-216{fill:#f5f2e9;}.cls-217{fill:#5c4326;}.cls-218{fill:#52473b;}.cls-219{fill:#f2f0e5;}.cls-220{fill:#c1beb3;}.cls-221{fill:#b9b6ab;}.cls-222{fill:#d8d5ca;}.cls-223{fill:#e2ded3;}.cls-224{fill:#e7e5d9;}.cls-225{fill:#edeadf;}.cls-226{fill:#c2bfb5;}.cls-227{fill:#c3c1b7;}.cls-228{fill:#bbb8ad;}.cls-229{fill:#d8d5cb;}.cls-230{fill:#f1efe4;}.cls-231{fill:#cfccc1;}.cls-232{fill:#d0cdc1;}.cls-233{fill:#f5f3ea;}.cls-234{fill:#19120a;}.cls-235{fill:#7d6744;}.cls-236{fill:#cbc8be;}</style></defs><g id="Layer_2" data-name="Layer 2"><g id="Layer_5_Image" data-name="Layer 5 Image"><path class="cls-1" d="M.08,88.07C.08,59.82.13,31.57,0,3.33,0,.58.52,0,3.31,0c26.25.14,52.5.08,78.76.08.55,1.08-.12,1.78-.78,2.48a24.47,24.47,0,0,1-4.37,2.27,18.28,18.28,0,0,1-2.73.72c-2.26.82-4.72.59-7,1.37C39.08,16.4,19.49,34.82,8.87,62.63A79.9,79.9,0,0,0,5,77.12c-.89,3.5-.55,7.17-1.6,10.63a4.93,4.93,0,0,1-.89,2.12C.31,91.11.94,88.59.08,88.07Z"/><path class="cls-2" d="M81.07,2l1-1.94h23l1,1.91c-1.83,2.07-4.52,1-6.7,1.84A6.2,6.2,0,0,1,97,3.78c-3.44-1.91-7-.1-10.54-.35C84.56,3.38,82.56,3.68,81.07,2Z"/><path class="cls-2" d="M.08,88.07l2,2a5.3,5.3,0,0,1,0,7l-2,2Z"/><path class="cls-3" d="M146.9,168.68l-.85.52a7.37,7.37,0,0,1-4.12,2.78c-3.27,2.69-7.88,3-10.87,6.2-.83,1-2.14.18-3.06.82-2.7-.39-4.6,1.64-6.94,2.32-1.5,2.67-4.23.71-6.19,1.63a.83.83,0,0,0-.83.23,1.53,1.53,0,0,1-1.35.11c-1.13-.29-2.51-.19-2.85-1.75,1.92-2.72,5.24-2.1,7.79-3.3,2.19-3.33,5.81-2,8.79-2.78,5.75-1.59,10.93-4.57,15.85-8,3.86-2.81,8-5.32,11.23-8.87,1.45-1,2.53-2.5,3.93-3.6a84.09,84.09,0,0,0,7.95-9.42,67.18,67.18,0,0,0,5.64-9.06c.41-.82.83-1.63,1.28-2.44C175,129.9,176,125,178,120.51c1.57-3.61,1-7.82,3.12-11.29a2.74,2.74,0,0,1,1.3-.74,2.49,2.49,0,0,1,1.47.26,1.08,1.08,0,0,1,.28,1.35c-.09.9-.19,1.81-.28,2.71-.53,1.36.5,3.08-1,4.21q-3.48,9-6.94,17.93c-.36,1.16-.51,2.43-1.71,3.12.33,1.94-2.72,1.92-2.28,3.92a5.63,5.63,0,0,1-2.79,4.07l-.51.85c.07,1.24-.8,1.71-1.74,2.11-1.24,3-4.45,4.25-5.92,7a7.12,7.12,0,0,1-5.07,5l-.95,1a2.84,2.84,0,0,1-2.11,2l-2.83,2.25A3.61,3.61,0,0,1,146.9,168.68Z"/><path class="cls-4" d="M60.07,179.13c-4.44-1.81-9.31-2.76-12.88-6.35-4.62-1.14-7.91-4.25-11.12-7.49l-1.3-1.19A7.44,7.44,0,0,1,30.16,160v0a3,3,0,0,1-2.1-1.76l-1.11-1.14A9,9,0,0,1,23,152.4c-2-1.3-2.54-3.72-4.11-5.34a7,7,0,0,1-2.71-4.23.69.69,0,0,0-.34-.77c-.61-.64-1.57-1-1.65-2.06a3.13,3.13,0,0,0-.3-.94c-.93-.84-2-1.62-1.52-3.13l-.55-.87c-1.12-.69-1.28-1.93-1.73-3l-2.19-5a6.49,6.49,0,0,1-.67-2.15c.12-1.06.43-2,1.71-2.07,2.55,1.73,3.49,4.56,4.83,7.12,2,5.29,5.21,9.85,8.14,14.6a89.91,89.91,0,0,0,17.6,18.63,50.59,50.59,0,0,0,6,4.26,90.34,90.34,0,0,0,12.61,6.84,48.77,48.77,0,0,1,4.54,1.89c3.14,1.2,6.39,2,9.58,3,1.66.88,4.14.15,5,2.55-.65,1.46-2.07,1.2-3.25,1.44a2.06,2.06,0,0,0-1-.15c-2.25-.91-5.2.84-7-1.82-1-.74-2.51.18-3.29-1.11C62,179.58,60.76,180,60.07,179.13Z"/><path class="cls-5" d="M140,14.2c.32,1.05,1.22.85,2,.93a5.47,5.47,0,0,1,4.08,2.73l.89.45a4.16,4.16,0,0,1,3.14,2.55l1.82,1.29c1.39.63,2.67,1.37,3.11,3a6.08,6.08,0,0,0,3.88,3.28c2.66,1,3.67,3.55,5.11,5.68v0a1.59,1.59,0,0,1,.56,1.23,2.41,2.41,0,0,1-1.75,2c-3.14-1.53-4.88-4.67-7.62-6.67-4.34-4.66-9.55-8.24-14.7-11.9A30.09,30.09,0,0,0,133.1,15c-6.4-2.7-12.67-5.72-19.5-7.26-1.39-.31-3-.46-3.75-2.07.28-1.69,1.73-1.5,2.88-1.8a1.14,1.14,0,0,1,1.3.32c1.75,1.81,4,.51,6,1a7.52,7.52,0,0,1,5,2l0,0c.92.55,2.24-.21,3,.92l.06,0c1.84.26,3.7.47,4.85,2.23A7.58,7.58,0,0,0,137,12.22C138.56,12,139.38,13,140,14.2Z"/><path class="cls-6" d="M163.05,37.09,164.11,35c1.09-.3,1.53.23,1.59,1.25l1.47,1.83c.9.44,1.65,1,1.59,2.15l.49.87A5.78,5.78,0,0,1,172,45.13c-.23,1.9,1.51,2.64,2.3,3.94,1.18.7,1.32,2,1.68,3.12a14.49,14.49,0,0,0,2.8,6c1.54.48.53,2,1.23,2.9a18.94,18.94,0,0,0,2.91,9c1.44,1.54.66,3.24.37,4.91l-.08,2a1,1,0,0,1-.44,1.11A2.19,2.19,0,0,1,180.55,77c-.59-1.21-.69-2.57-1.17-3.82a8.41,8.41,0,0,1-.36-1.33c0-4.57-2.75-8.29-3.74-12.55-1.46-4.09-3.89-7.68-5.83-11.51-1.31-2-2.21-4.28-3.88-6-.75-.81-1.63-1.48-2.41-2.27C162.59,38.73,162.19,37.93,163.05,37.09Z"/><path class="cls-7" d="M2.12,97.06c0-2.33,0-4.66,0-7,0-.73.05-1.45.08-2.17a2.68,2.68,0,0,1,1.93-1.51c.43-.06.87-.08,1.3-.1,2.6-.73,5.14-1.69,7.9-1.67a2.23,2.23,0,0,1,1.92,1.81c-1,2.49-3.6,1.43-5.33,2.28a9.94,9.94,0,0,0-2.7,1.68c-1.75,1.13-1.22,2.54-.48,4,.68,1.14,1.71,2.12,1.64,3.6A3,3,0,0,1,5,100.55a3.71,3.71,0,0,1-2.82-1.4Z"/><path class="cls-8" d="M185.09,103.05a.35.35,0,0,0-.19.57.73.73,0,0,1-.73.76,3.24,3.24,0,0,1-1.52-1,9.78,9.78,0,0,0-2.29-1.86,2.25,2.25,0,0,1-.85-1.58c-1.07-1.09,3.2-1.59.3-2.88-.42-1.25.17-2.71-.82-3.83s-2.45-.9-3.66-1.4c-1.71-.69-1.73-1.79-.78-3.14a3.29,3.29,0,0,1,3.21-1.18,13,13,0,0,1,3.67,2.1c.86,2.75,4.3,2.85,5.46,5.3C187,97.81,185.21,100.24,185.09,103.05Z"/><path class="cls-2" d="M106.06,185a4.62,4.62,0,0,1-3.81,2q-8.69.12-17.36,0a4.66,4.66,0,0,1-3.82-2c2.55-2.05,5.46-1.18,8.28-1a13.74,13.74,0,0,0,5.55.65c2.14-.29,4.22-1,6.42-.9C103,183.78,104.73,183.61,106.06,185Z"/><path class="cls-9" d="M101.06,184.89c-2.18-.85-3.86,1.34-6,1-1.59-.87-3.5.28-5-.82l-9-.06-2.21-.25c1.75-3.17,5.1-1.3,7.51-2.4A10.13,10.13,0,0,1,87.8,182c1.39-.18,2.79-.31,4.17-.63a3,3,0,0,1,2,.3c.4,1,.82,1.46,2.06.69s3-1.61,4.57-.08A2.49,2.49,0,0,1,101.06,184.89Z"/><path class="cls-10" d="M2.2,99.15c1.15-.18,1.92.57,2.76,1.14,1.89.44,2.12,1.94,2.26,3.51,0,2.19-.61,4.34-.54,6.55-.74,1.94.48,4.67-2.32,5.79L3.85,113c-2-3.4-1.58-7.2-1.78-10.9Z"/><path class="cls-2" d="M185.09,103.05c.31-3,.61-5.93.92-8.9-1.15-1.92-2.34-3.83-2.23-6.21,0-1.43.08-2.87,1.35-3.87C189.06,90.41,189,96.73,185.09,103.05Z"/><path class="cls-2" d="M36.07,165.29l11.12,7.49c-.6,1.13-1.62,1.34-2.44.54C41.91,170.59,37,170,36.07,165.29Z"/><path class="cls-11" d="M87,183.2c-2.4,2.09-5.74-.79-8.1,1.54-1.17-1.89-3.63.25-4.82-1.56.66-1.29,1.91-1.12,3-1.22,2.93-2.19,5.8-.74,8.68.11A2.71,2.71,0,0,1,87,183.2Z"/><path class="cls-2" d="M2.07,102.12c1.71,3.45.9,7.31,1.78,10.9C.56,109.83.53,106.1,2.07,102.12Z"/><path class="cls-12" d="M9,123.07c-.9.49-.93,1.41-1.1,2.26-2.26-.15-1.17-2.21-1.86-3.25-.72-.76,0-1.43.14-2.13.34-1.39-.67-3.29,1.5-4C10.11,118,10.92,120.27,9,123.07Z"/><path class="cls-2" d="M164,34.1a19.67,19.67,0,0,1-5.11-5.68C162.77,28.36,163.79,30.87,164,34.1Z"/><path class="cls-13" d="M7.05,116.09c-.3,1.28.52,2.81-.83,3.86l-1.86-3.82c1.86-1.66-.37-4.35,1.51-6a1.74,1.74,0,0,1,.9.87,11.78,11.78,0,0,1,.37,4.46Z"/><path class="cls-2" d="M183.19,78a1,1,0,0,1,0-.93c3.54.12,3.58.25,1.6,6.12a1,1,0,0,1-1.14-.25,6.86,6.86,0,0,1-.61-4.32Z"/><path class="cls-2" d="M156,161l5.07-5C161.42,159.79,159.77,161.5,156,161Z"/><path class="cls-2" d="M184.06,104.14a3.28,3.28,0,0,1,.84-.52c.38,1.78.85,3.54,1.12,5.33.23,1.53-.68,1.61-1.82,1.14l-.31-1.1C182.73,107.33,182.59,105.71,184.06,104.14Z"/><path class="cls-14" d="M99,3c2.1-2,4.73-.34,7-1l1.84.17a.81.81,0,0,1,0,1.32c-2.13,1.28-4.61.73-6.88,1.29C99.94,4.62,98.75,4.62,99,3Z"/><path class="cls-2" d="M66.07,181.21c2.16,1.24,5,0,7,1.82C70.41,183.64,67.54,185.12,66.07,181.21Z"/><path class="cls-2" d="M108,3.23c0-.36,0-.71-.07-1.07,2.32-.18,4.57-.13,6.14,2h-1C111.28,4.19,109.21,6,108,3.23Z"/><path class="cls-2" d="M23,152.4a9.85,9.85,0,0,1,3.93,4.65C23.87,157,22.68,155.34,23,152.4Z"/><path class="cls-2" d="M30.16,160l4.61,4.13C31.1,165.11,30.65,162.52,30.16,160Z"/><path class="cls-2" d="M113,182.91l1,.27c-2,2.12-4.56,2-7.14,1.75a1.32,1.32,0,0,1,.3-1.41C109,182,111,182.43,113,182.91Z"/><path class="cls-2" d="M114.87,183c1.76-1.71,4.31-.4,6.19-1.63C120.05,185.89,117.11,183.09,114.87,183Z"/><path class="cls-15" d="M107.41,184.17a3.89,3.89,0,0,1-.51.76l-.43-.14-.41.18-5-.08-1-2a2.73,2.73,0,0,1,2-.73,7,7,0,0,1,1.45.21C104.88,182.87,106.48,182.8,107.41,184.17Z"/><path class="cls-2" d="M125,7.13l-5-2C122.6,3.44,123.93,5,125,7.13Z"/><path class="cls-2" d="M132.93,10.34l-4.85-2.23C130.81,6.43,132,8,132.93,10.34Z"/><path class="cls-2" d="M146.9,168.68c1-1,1.76-2.11,3.18-2.45C150.76,169.31,149.27,169.56,146.9,168.68Z"/><path class="cls-2" d="M146.06,17.86A9.94,9.94,0,0,1,142,15.13C144.69,14,146,15,146.06,17.86Z"/><path class="cls-2" d="M169.21,146.05,172,142C173.87,145.25,171.31,145.5,169.21,146.05Z"/><path class="cls-2" d="M6.08,122.08c1.75.43.28,2.71,1.86,3.25l0,1.71C6.09,125.83,4.4,124.58,6.08,122.08Z"/><path class="cls-2" d="M172,45.13l-2.76-4.05C171.32,41.64,173.87,41.89,172,45.13Z"/><path class="cls-2" d="M16.19,142.83a7.72,7.72,0,0,1,2.71,4.23C16.66,146.5,14.8,145.71,16.19,142.83Z"/><path class="cls-2" d="M141.93,172c1-1.43,2.62-2,4.12-2.78C145.52,171.37,144.83,173.31,141.93,172Z"/><path class="cls-2" d="M150.09,20.86A5.79,5.79,0,0,1,147,18.31C149.16,17.72,150.84,17.79,150.09,20.86Z"/><path class="cls-16" d="M184.08,82.93a2.84,2.84,0,0,0,.74.26.81.81,0,0,0,.31.88L185,88a1,1,0,0,1-1,.39,3.05,3.05,0,0,1-1.35-1.24,3.49,3.49,0,0,1-.27-1.19,4.49,4.49,0,0,1,.24-1.2A3.57,3.57,0,0,1,184.08,82.93Z"/><path class="cls-2" d="M183.3,75c-.13-1.63-.25-3.27-.37-4.91C186.18,71.52,184.51,73.3,183.3,75Z"/><path class="cls-2" d="M155,25.14l-3.11-3C153.81,22.25,156.4,21.62,155,25.14Z"/><path class="cls-2" d="M167,149l1.74-2.11c.83.39,1.39,1,.85,1.91C168.83,150,167.86,149.32,167,149Z"/><path class="cls-2" d="M12.38,135.93c.51,1,1,2.08,1.52,3.13C12.41,138.49,9.93,138.41,12.38,135.93Z"/><path class="cls-2" d="M174.28,138.06c.58-1,.45-2.46,1.71-3.12C177.13,136.92,177.06,138.23,174.28,138.06Z"/><path class="cls-2" d="M176,52.19c-1.31-.63-1.08-2.1-1.68-3.12C177.11,48.9,177.1,50.25,176,52.19Z"/><path class="cls-2" d="M168.76,40.21l-1.59-2.15c.87-.38,1.8-.9,2.43.31C170.06,39.26,169.55,39.83,168.76,40.21Z"/><path class="cls-2" d="M182.93,117c.42-1.38-.46-3.07,1-4.21C184.84,114.5,185.49,116.13,182.93,117Z"/><path class="cls-2" d="M140,14.2l-3-2C139.82,10.12,139.58,12.66,140,14.2Z"/><path class="cls-2" d="M128,8.08c-1.07-.08-2.24.21-3-.92C126.31,6.58,127.78,5.35,128,8.08Z"/><path class="cls-2" d="M180,61.1c-1.21-.63-.91-1.9-1.23-2.9C181.66,58.12,180.63,59.7,180,61.1Z"/><path class="cls-2" d="M14.2,140a2.58,2.58,0,0,1,1.65,2.06C14.73,141.83,12.51,142.49,14.2,140Z"/><path class="cls-2" d="M10.1,132.05c.58,1,1.16,2,1.73,3C9.87,134.85,9,134,10.1,132.05Z"/><path class="cls-2" d="M165.7,36.23,164.11,35a4.19,4.19,0,0,1-.09-.86c.71-.21,1.47-.94,2.06.14C166.48,35,166.82,35.77,165.7,36.23Z"/><path class="cls-2" d="M28.05,158.19c1.18,0,1.61.93,2.1,1.76-.7.25-1.36,1-2.16.34S27.8,158.89,28.05,158.19Z"/><path class="cls-2" d="M128,179c.77-1.21,1.91-1,3.06-.82C130.67,180.82,129.22,179.46,128,179Z"/><path class="cls-2" d="M60.07,179.13c1,0,2.2-.45,2.71,1C61.49,180.86,60.27,181.41,60.07,179.13Z"/><path class="cls-2" d="M152.91,164l2.11-2c.2.74,1,1.48.16,2.24S153.66,164.19,152.91,164Z"/><path class="cls-17" d="M7.73,61.92C17.32,36.9,34.35,19,59.14,8.75,61.66,7.7,64.05,6,67,6.05c1-.55,2.24-.93,3,.2.64,1-.41,1.72-1,2.48a5.1,5.1,0,0,1-2.64,1.39c-8.49,1.55-15.06,6.94-22.2,11.16A32.35,32.35,0,0,0,41.7,23.5a18.4,18.4,0,0,1-1.45,1.34c-1.19.95-2.51,1.73-3.61,2.8s-2.18,2.17-3.31,3.21C30.17,34,26.92,37,23.71,40c-4.05,4.14-5.86,9.66-8.92,14.41-1.66,3.39-2,7.49-5.49,9.89C8.22,63.88,8.06,62.84,7.73,61.92Z"/><path class="cls-18" d="M7.73,61.92a2.34,2.34,0,0,1,1.4,2.24c.25,5.15-.23,10.11-3.72,14.28-.9,0-1.61-.26-1.43-1.4C4.06,71.71,6.11,66.87,7.73,61.92Z"/><path class="cls-19" d="M68.12,8.24C69.61,6.55,69.2,5.83,67,6.05c2.1-1.8,5-.65,7.2-1.85,2.45,1.34,5.11-1.24,7.55.39A1.07,1.07,0,0,1,82.11,6,19.24,19.24,0,0,1,68.12,8.24Z"/><path class="cls-20" d="M4,77l1.09,1C7.19,81.33,6.93,84.29,4,86.92l-1.79,1C3,84.31,2.56,80.52,4,77Z"/><path class="cls-21" d="M81.07,2,87,2.15c.08,3.67-.73,4.19-4.78,3.09-.12-.13-.25-.25-.36-.38-1.48-1.52-3.65.77-5.1-.92Z"/><path class="cls-22" d="M76.74,3.94c1.5.44,2.83-.3,4.23-.57s1.76.3.87,1.49c-2.56-.2-5.24,1.08-7.66-.66Z"/><path class="cls-23" d="M82.2,5.24c2-.37,4.78.4,4.78-3.09C90.35,3,94.05-.47,97.21,3c-1.47,2-4.73.79-5.93,3.29a18.63,18.63,0,0,0-1.12,2.29c-.14.42-.29.82-.43,1.23-.9,2.37,1.24,4.86-.3,7.2a1.65,1.65,0,0,1-1.26.45c-2.09-.86-2.69-3.13-4.26-4.49-5.62-.79-10.72,2.14-16.22,2.23-2.86,0-5.7-.06-7.81-2.44,1.13-2.89,4.28-2.19,6.28-3.53l2-.95Z"/><path class="cls-24" d="M90.14,6.17c1-4,4.45-2.72,7.07-3.21L99,3a1.93,1.93,0,0,0,2.14,1,5.53,5.53,0,0,1,4,.88,1.74,1.74,0,0,1,0,1.36,19.68,19.68,0,0,1-3.4,2.47,4.39,4.39,0,0,1-3.41,0C97,7.9,96.06,6.09,94,6.35,92.73,6.25,91.4,6.79,90.14,6.17Z"/><path class="cls-25" d="M143.12,168.14a43,43,0,0,1-18.28,9c-2.24.53-4.37,1.92-6.78,1.9-2.53-1.54-5-3.3-8-3.56-1.4-.76-3-1.28-4-2.56a1.25,1.25,0,0,1,.26-1.29c1.2-.85,2.68-1,4-1.51a26.58,26.58,0,0,1,5.63-1.36c4,.32,6.73-3.48,10.69-3.26.88.21,1.26,1.69,2.36,1.14s0-1.28-.11-1.94c.61-2,2.1-2.39,3.91-2.27a4.33,4.33,0,0,1,2.65,2.37,2.39,2.39,0,0,1-.07,1.4c-.31.55-.88,1-1.11,1.55a1.64,1.64,0,0,0,.93,2.31c-.46-.88-.09-1.43.72-1.83C138.26,167.82,140.67,166.59,143.12,168.14Z"/><path class="cls-26" d="M110,175c3.77-.78,6.41.67,8.08,4.06-2.3,2-5.72,1-8.07,2.89-2,1.68-4.45.89-6.7,1.18l-1.38-.2a3.59,3.59,0,0,1-.8-2.57c.48-2.32-.42-3.65-2.82-3.91a2.85,2.85,0,0,1-1-.94c-1-2.27-1.86-4.55-.77-7,2.13-1.67,3.1,2,5.08,1.09.51.18.94.67.72,1.07-1.16,2.18.69.22.8.59a4.28,4.28,0,0,1,2,.06,2.3,2.3,0,0,1,1,.78l0,.94s-.13.44-.12.44c.12.71.71.54,1.18.62A4.93,4.93,0,0,1,110,175Z"/><path class="cls-27" d="M182.07,109.08c-1.62,3.84-1,8.25-3,12-2.55,2-5.66,1.52-8.53,1.72-1.93.13-2.47-1.73-2.51-3.49a3.72,3.72,0,0,1,.66-2c3.25,0,4.06-1.09,1.75-3.71-.88-2.22.3-4.31.4-6.47a9,9,0,0,1,.55-2.1c.75-1.31,1.59-2.93,3.38-2.08,2.69,1.26,2.18,4.18,2.48,6.58,2.44-.22,2-4.54,5-3C183.12,107,182.82,108.23,182.07,109.08Z"/><path class="cls-28" d="M172,137.05c-1.87,3.07-3.13,6.55-5.92,9-2,.21-2.39,2-3.25,3.28a10.12,10.12,0,0,1-10.73,4.72c-.75-4.29,3.68-5.6,5-8.71,1.72-1.76,2.51-4.64,5.62-4.75,1.93.37,4,1,4-2.2a6.86,6.86,0,0,1,1.49-2.82,2.85,2.85,0,0,1,1-.79,2.55,2.55,0,0,1,2.1,1.23A9.49,9.49,0,0,0,172,137.05Z"/><path class="cls-29" d="M135,166.09l-.06-.91c.56-1.47,1-3,1.44-4.49a6.94,6.94,0,0,1,4.46-3.36c4,.68,3.95,2.65,1.66,5.32-.5.58-.46.74-.33.71.48-.1.93-.29,1.41-.42,3.46-1.36,5.09-6.23,9.84-5.14.72.26,1.26.62.87,1.52-3.15,3.65-7.11,6.29-11.14,8.82a16,16,0,0,1-7.93.72C134.09,168,134.74,167,135,166.09Z"/><path class="cls-30" d="M169.05,119.06c-.06,1.89.67,3.83,2.68,2.78,2.5-1.32,4.94-.09,7.29-.79-2.06,4.63-2.81,9.82-6,14-2.92-.61-1-2.8-1.38-4.24-.47-1.91,1-3.35,1.46-5.41-2.08.17-2.36,1.68-2.86,3a8.36,8.36,0,0,1-2.67,4.19,3,3,0,0,1-2.79.76,2.75,2.75,0,0,1-1.38-1.76C164.23,126.89,165.66,122.53,169.05,119.06Z"/><path class="cls-31" d="M182.07,109.08c-.08-.65.09-1.58-.28-1.9-1-.9-1.42.25-1.57.93-.39,1.76-.34,4.1-2.91,3.72-3.38-.5-1.25-3-1.3-4.72,0-1.38-.4-2.78-1.58-3.44s-1.4,1-2.23,1.44c-1.37-.91-1.39-2.39-1.61-3.79,0-1.6,1.09-2.57,2.19-3.51a2.88,2.88,0,0,1,1.35-.34,2.32,2.32,0,0,1,1.23.61c.52.87.53,1.92,1,2.82,1.46,2.95,3,3.12,4.75.22,1.36,0,1.94.73,2,2a9.22,9.22,0,0,1,0,5.94Z"/><path class="cls-32" d="M165.05,133l2-1c1.39-1,3.35-1.64,2-4-.09-1.67,1.2-2.63,2-3.84,1.12-1.74,2.32-.4,3.38.1,1.49.7,1.28,1.79.16,2.65-2.92,2.26-1.73,5.25-1.55,8.07-.35.67-.69,1.35-1,2h-1c-1-.39.28-2.9-2-2V136c-1.11.5-2.25.95-3.38,1.44a2.49,2.49,0,0,1-2.12-1.49A2.21,2.21,0,0,1,165.05,133Z"/><path class="cls-33" d="M152.11,154c4.28-1.44,9.46-1.44,10.94-7.29.25-.95,1.61-2.33,3-.66-1.9,4-5.16,6.84-8.17,9.9-1.07-.48-2.1.33-3.16.14s-2.29-.22-2.86-1.44Z"/><path class="cls-34" d="M103.29,183.14c2-1.55,4.45-.89,6.7-1.18,1.05.18,2.26-.17,3,.95l-5.6,1.26C106.13,183.44,104.43,184.44,103.29,183.14Z"/><path class="cls-35" d="M155.05,155.05c1,0,2.19-.24,2.87.92l-3.66,3.35-1.15-1.25-.27-.62C153,156.08,154.25,155.79,155.05,155.05Z"/><path class="cls-36" d="M183.13,109.05l0-5.94,1,1c-.06,1.62-.12,3.24-.17,4.85Z"/><path class="cls-37" d="M45.05,168.08c-2.58-.47-4-2.58-5.95-4,.32-.94,3-1.25.48-3-1.58-1.08-4.14-2.47-2.22-5.33,3.41-.58,6.16,3.09,9.74,1.52,5.44,2.44,10.41,5.76,15.92,8.11a60.23,60.23,0,0,0,13.22,4.22c2.93.2,5.82,2.06,8.79.16a1.86,1.86,0,0,1,1.36.39,3.82,3.82,0,0,1,.45,2.86,15.33,15.33,0,0,0-.09,7.19,2.74,2.74,0,0,1-.59,2.05c-3,.33-2.93-3.26-5.11-4.11a40.33,40.33,0,0,0-6-2.19c-4.16-.61-7.81-2.73-11.77-3.91-3.93-1.56-8.86-.91-11.34-5.71-.75-1.47-2.59-.91-3.65.59C47.48,168,46.64,169.1,45.05,168.08Z"/><path class="cls-38" d="M37.07,156.06c.65,3.81,4.82,4.34,7.12,7.24L39.1,164a70.26,70.26,0,0,1-18-19c2.62-3.31,1.1-5.72-1.59-8-1.72-1.47-3.47-3.19-.05-4.82,1.71-.3,3.48.2,5.18-.37,2.62,1.59,3.32,4.35,4.25,7a16.72,16.72,0,0,0,1,7.21c-.09,4.87,4,6.72,6.83,9.49Z"/><path class="cls-39" d="M9,123.07c-.07-2.5-.27-5-2-7H7c-.86-1.53-.28-3.19-.45-4.78.15-1.47-.72-3.41,1.76-3.78,2.53.45,3.79,2.43,5.17,4.26,1.17,2.74,2.11,5.64,5,7.23a4.93,4.93,0,0,1,.7,2c.24,1.65-.7,3.48,0,4.91,2.19,4.47,0,6.64-3.62,8.32-1.78-.94-1.4-3.06-2.73-4.08C11.57,127.8,10.31,125.43,9,123.07Z"/><path class="cls-40" d="M12.84,130.17c1.84-.45.78,4,3.85,2.07,2.8-1.71,2.8-3,1.24-5.66-.8-1.37.1-3.73.23-5.65a1.58,1.58,0,0,1,1.65,1c1,2,.69,4.46,2.56,6a3.16,3.16,0,0,1,.44,1.27c.06,2-2.4,2-2.79,3.67-3,1.06-1.79,2.28.06,3,3,1.17,3.62,3.59,4,6.27.26,2.16-.87,3-2.94,2.81C17.91,140.31,14.28,135.84,12.84,130.17Z"/><path class="cls-41" d="M45.05,168.08c1.42-.05,1.72-1.13,2.28-2.19,1.29-2.42,4.49-2.76,5.21-1,2.09,5.09,7.11,4,10.53,6.15l-.46.51c-2,.54-3.77,1.35-4.54,3.48A35.16,35.16,0,0,1,45.05,168.08Z"/><path class="cls-42" d="M63.07,171.05c4.37.24,7.89,3,12,4a9.68,9.68,0,0,0-.13,2.89c.67,3-.78,3-2.91,2.15a40.75,40.75,0,0,1-10-3,6,6,0,0,1,1-6Z"/><path class="cls-43" d="M72,180.09c.51-.51,2.8,1,1.62-1.43-.87-1.76-1-3.16,1.42-3.61,5.19-.08,8.52,2.68,10.81,7,.32.15.45.33.41.56s-.11.38-.2.38l-9-1.08C75.83,180.2,73.28,181.89,72,180.09Z"/><path class="cls-44" d="M63.05,171.06c.06,2.06.21,4.14-1,6l-4-2C56.11,169.17,60.71,171.54,63.05,171.06Z"/><path class="cls-45" d="M105.12,6,105,5.13c1.65-1.44,3.29-.83,4.92,0,8.21,2.51,16.45,4.94,24.09,9,1.12,1.45.83,2.78-.33,4a3.83,3.83,0,0,1-1.31.69c-2.2.35-4.3-.71-6.5-.49a9.41,9.41,0,0,1-3.53-.61,17.92,17.92,0,0,0-5.39-3,5,5,0,0,1-2.24-1.63c0-2.19-.37-4-3.23-4.28A15.56,15.56,0,0,1,106,7,2.74,2.74,0,0,1,105.12,6Z"/><path class="cls-46" d="M141.06,18.07c5.51,3.35,10.73,7.06,14.94,12-1.89.81-3.85,1.52-5.13,3.3a4.71,4.71,0,0,1-3.44-1.06A27.53,27.53,0,0,1,140,25C138.19,22,138.52,20.23,141.06,18.07Z"/><path class="cls-47" d="M141.06,18.07c-3.32,5.71,1.8,8,4.6,11.21.81.91,2.4,1.14,2.41,2.77,3,2.28,8.36,2.85,6.43,8.76-1.85,1.32-2.67-.39-3.63-1.33a68,68,0,0,0-10.1-8.68,9,9,0,0,1-1.69-2.24c-.75-2.6-3.92-4.75-1.48-7.92-.12-.77-.29-.33-.36,0a1.21,1.21,0,0,1-.36.73c-3.06.95-3.88-.65-3.81-3.29a6.7,6.7,0,0,0,1-4C136.56,15.11,139.18,15.94,141.06,18.07Z"/><path class="cls-48" d="M151.07,33.07c-.18-4,2.33-3.57,4.93-3a30.22,30.22,0,0,1,7.05,7,2.07,2.07,0,0,0,1,2c-1.39,4.07-3.85,2.71-6.33,1.25C155,38.35,153.13,35.64,151.07,33.07Z"/><path class="cls-49" d="M110,5.15l-4.92,0A7.08,7.08,0,0,1,101.16,4c2.11-1.75,4.55-.42,6.81-.77,1.45,1.59,3.47.06,5,.94C112.26,5.32,111,5,110,5.15Z"/><path class="cls-16" d="M181.07,77.06l2.12.94-.08,0a10.91,10.91,0,0,1,.1,6.15c-5.78,1.54-9-.45-9.48-6.12a18.62,18.62,0,0,1,.46-7.75c3.74-2.81,4.23,1.22,5.87,2.81h0C181.2,74.18,179.77,76,181.07,77.06Z"/><path class="cls-50" d="M166.09,41c2.26,1.39,2.69,4,4,6,.62,1.35,1.1,2.71,0,4.05-1.32.69-2.74.26-4.11.4a1.63,1.63,0,0,1-1.37-1.29c1.45-1.76-.78-1.82-1.25-2.69-.7-1.35-2.16-2.16-2.65-3.67a1.66,1.66,0,0,1,.49-1.17C162.71,41.82,164.46,41.6,166.09,41Z"/><path class="cls-51" d="M180.06,73.07l-5-4-.45-.5c.8-3.07-1-5.8-1.13-8.75.48-1.55,1.63-.92,2.63-.79C178,63.55,180.75,67.82,180.06,73.07Z"/><path class="cls-52" d="M176.1,59c-.66,1.15-1.37.15-2.06,0-3-1.39-6-2.84-6.35-6.75a1.72,1.72,0,0,1,1.56-1.24c1.21-1.15.67-2.67.82-4C172.46,50.85,175.06,54.54,176.1,59Z"/><path class="cls-53" d="M166.09,41c-.64,3.22-3.24,1.64-5,2-2.76,0-3.95-1.19-3-4,2,1.48,4.05,2.71,6.05,0A3.4,3.4,0,0,1,166.09,41Z"/><path class="cls-51" d="M181.07,77.06c-2.21-.86-.48-2.72-1-4C181.5,74.11,180.9,75.68,181.07,77.06Z"/><path class="cls-54" d="M8.21,97.84,6.06,95.09c-.89-2.19-.9-3.59,2.19-2.79a18,18,0,0,0,8.8-.12,8.72,8.72,0,0,1,3.3,0c6.06,1.09,12.19,0,18.26.63a9.48,9.48,0,0,1,1.57.31,13.69,13.69,0,0,0,8.4-.1,12.25,12.25,0,0,1,5.08.11c4.38,1,8.84.12,13.22.6,1.59.17,4.29-.71,4,2.62-2.07,1.5-4.47,1-6.75,1-14.27,0-28.54,0-42.8,0-3.51.28-7.07.27-10.5,1.32a3.32,3.32,0,0,1-2.16-.36C8.49,98.25,8.35,98.05,8.21,97.84Z"/><path class="cls-55" d="M4,86.92c1.26-2.84,1.22-5.84,1.09-8.85,2.47-4.31,2.1-9.45,4.06-13.91Q11.52,59,13.89,53.81a2.26,2.26,0,0,1,1,1.09,6.5,6.5,0,0,1-.2,4.37c-2.15,3-2.66,6.6-3.74,10-.82,2.54-1.32,5.17-2,7.76C8,79.84,7.67,82.82,6.79,85.66A2.84,2.84,0,0,1,5,87Z"/><path class="cls-47" d="M15,86.29l-2-1.16a1.06,1.06,0,0,1-1.49-.38C10,78.25,11.22,75.19,16,73.83c2.64,3.73-.11,7.44,0,11.17A2.85,2.85,0,0,1,15,86.29Z"/><path class="cls-56" d="M20.06,93.12l-2.95,0a1,1,0,0,1-1.14.22,14.52,14.52,0,0,0-4.13-1.6c-1.6-.82-3.52-.72-5-1.78a2.64,2.64,0,0,1,2.24-2c3.41-.75,6.59.11,9.73,1.33a3,3,0,0,1,1.72,3.24Z"/><path class="cls-57" d="M6.81,89.93c1.94-.5,3.75-.4,5.26,1.12.57,2.14,3.12.31,3.94,2l1.1.08c-3.1,1.68-6.39,1.38-9.49.35-2.43-.8-1.1,1.08-1.56,1.65C4.08,92,4.23,91,6.81,89.93Z"/><path class="cls-58" d="M19.06,90.14c-3.48-.12-6.45-2.5-10-2.23,1.62-1.86,4.28.09,5.94-1.62l.09-.43A2.24,2.24,0,0,1,17,85.55a7.09,7.09,0,0,1,3.28,3.3,2,2,0,0,1-.05,1.33A.8.8,0,0,1,19.06,90.14Z"/><path class="cls-59" d="M6.13,104,5,100.29l3.25-2.44-.05,0c.75,1.1,2.44,1.37,2.62,3a4,4,0,0,1,0,1.38,2.79,2.79,0,0,1-1.33,1.54C8.34,104.2,7.28,104.73,6.13,104Z"/><path class="cls-60" d="M12.14,84.83a4.76,4.76,0,0,1,.9.3c-2.6,1-5.17,2-8,1.86l.85-1.07c1.09-1,2.1-2,3.66-2.26a3.23,3.23,0,0,1,1.24,0C11.39,83.85,11.58,84.55,12.14,84.83Z"/><path class="cls-61" d="M175,98.1c-.32-.06-.63-.14-.94-.22-2.49-1-5.14,0-7.64-.61-2.32-.54-5.34.15-6.32-3.15a5.93,5.93,0,0,1,5.4-1.78c4.57.69,9.18,0,13.74.58l.8.16c1.83,1.34.51,2.64,0,4a2.22,2.22,0,0,1-1.38,1.73A3.48,3.48,0,0,1,175,98.1Z"/><path class="cls-62" d="M175,98.1l4,0c.81.42.41,1.43,1,2,.36.36.71.73,1.06,1.1-.39,1.54.68,4.71-1.89,4.06A5.52,5.52,0,0,1,175,98.1Z"/><path class="cls-63" d="M175,89c-.8,2,.36,2.15,1.88,2.09s3-.1,3.18,2h0c-4.95.56-9.9,1.3-14.71-.71-1.23-2.3.78-2,1.83-2,1.44,0,2.91.4,3.93-1.08C172.34,88.33,173.61,87.85,175,89Z"/><path class="cls-64" d="M175,89a4.46,4.46,0,0,0-3.92,1.22,2.31,2.31,0,0,1-2.74.3c-1.41-2.49.86-3.33,2.08-4.65a4,4,0,0,1,1.33-.5,6.56,6.56,0,0,1,1.4,0c1.71.72,4.37-.71,5.13,2.22l-.34.59Z"/><path class="cls-65" d="M184,88.11l1-.08c.33,2,.65,4.08,1,6.12-3.95,1.57-3.94-1.88-5-4C180.71,87.63,182.67,88.31,184,88.11Z"/><path class="cls-64" d="M184,88.11l-3,2.09a5,5,0,0,1-3.05-2l.23-.37c1.35-2,3.17-.88,4.84-.73Z"/><path class="cls-66" d="M180,100a2,2,0,0,1-1-2l1-1C183.69,98,179.56,99,180,100Z"/><path class="cls-67" d="M90.05,185.05c1.72,0,3.52-.44,5,.82C93.33,186.13,91.54,186.47,90.05,185.05Z"/><path class="cls-68" d="M94.09,182.08l-2,0c-1.85.44-2.88-.77-3.94-1.94-1.34-2.2-1.77-4.38.1-6.52,1.69-1.12,3.06-1.08,3.78,1.11.44,1.38.59,2.91,2,3.78.32,2,2.75.43,3.34,2C96.81,182.14,96,183.16,94.09,182.08Z"/><path class="cls-69" d="M89,174c-1.92,2-.76,4,0,6,.63,1.29-.16,2.05-1,2.78L87,183.2c-.29,0-.58-.1-.87-.16a7.51,7.51,0,0,0-.21-.94c0-.64,0-1.27,0-1.91l.09-.65c.11-2,.09-4,0-5.94l-.06-.66.3-2.84A1,1,0,0,1,87.4,170a6.5,6.5,0,0,1,2.14,2.28A1.73,1.73,0,0,1,89,174Z"/><path class="cls-70" d="M94.09,182.08c1.28-.2,2.41-.6,2.71-2.08a1.06,1.06,0,0,1,.33-1.14A30.06,30.06,0,0,1,102,180c0,1,0,1.94-.07,2.91l-1.83,0c-2-1.8-3.17.66-4.76,1C93.32,184.29,93.38,183.44,94.09,182.08Z"/><path class="cls-67" d="M88,182.84c.35-.93.69-1.86,1-2.78l3,2C91,183.68,89.43,182.86,88,182.84Z"/><path class="cls-71" d="M6.13,104l3-1c.86,1.68,1.41,3.36,0,5-2.15,0-1.87,1.71-2,3.06-.38.34-.67.3-.87-.18a1.61,1.61,0,0,0-.27-.85C4.71,108,6.1,106.07,6.13,104Z"/><path class="cls-12" d="M6.14,111a6.72,6.72,0,0,0,.87.18l0,4.92C5.49,114.6,6.12,112.74,6.14,111Z"/><path class="cls-72" d="M183,84.08l.09-6.1c1.88,1.34.69,3.29,1,5l-1,2c-.28-.17-.39-.36-.32-.56S182.94,84.08,183,84.08Z"/><path class="cls-51" d="M183,84.08c0,.3.08.6.1.89-.07.45-.13.9-.2,1.34-3.32.54-6.58-1.09-9.9-.29l-.5,0L172,86c-2.21-4.91-1.31-10.45-3.17-15.43,0-2.23-1-5.48,1.47-6.2,3.07-.91,3.29,2.92,4.72,4.73h0v5.87C175.05,82.74,175.07,82.76,183,84.08Z"/><path class="cls-73" d="M173,86c3.37-2.46,6.64-1.24,9.9.29a7.28,7.28,0,0,0,.1.8c-1.34,2-3.35-.3-4.84.73C177.14,85.31,174.18,88.2,173,86Z"/><path class="cls-74" d="M23.06,39.07c3.29-3,6.08-6.65,10-9,2-.2,1.82,1.38,2.15,2.57A6.66,6.66,0,0,1,35,34.85c-1.31,2.72-4.24,4.3-5.14,7.31A9.9,9.9,0,0,1,26.8,45.9c-1.55,1-3,2.35-5.06,1.81a2,2,0,0,1-1-.92,9.76,9.76,0,0,1,.49-4.08A12.58,12.58,0,0,1,23.06,39.07Z"/><path class="cls-75" d="M23.06,39.07,22,42.86c-.33,1.45-1.87,2.62-1,4.35l0,0a8.09,8.09,0,0,1,1.84,1.71c.9,1.49,2.89,1.86,3.63,3.52-.47,3.82-3.77,6.32-4.6,10-1.47,1.79-.89,4.76-3.44,5.93-1.73-1-1.84-2.69-2.05-4.38a5.61,5.61,0,0,1,.28-1.4c.83-3.45,3.89-6.34,2.63-10.3-2.17-.93-2.55,1.54-3.94,2.06a1.06,1.06,0,0,1-1.22-.19l-.2-.28C16.79,48.8,18.74,43.2,23.06,39.07Z"/><path class="cls-76" d="M66.16,9.19c-1.47,2.12-4,2-6,3-1.53,2.35-4.12,4.17-3.71,7.48-1.81,2.48-3.59.31-5.38,0-2.3-.08-4,1.62-6.13,2.09A2.05,2.05,0,0,1,43,21.05C50.07,15.79,57.19,10.7,66.16,9.19Z"/><path class="cls-77" d="M45,21a11,11,0,0,1,6-2.86,1.72,1.72,0,0,1,.62,1.83,29.2,29.2,0,0,1-2.85,4.61,7.15,7.15,0,0,1-2.51,2.38,8.15,8.15,0,0,1-2.78.84c-2.24-.34-3.9-1.21-3.55-3.9l1-.86C42.17,22.11,43.78,21.91,45,21Z"/><path class="cls-78" d="M39.92,23.85c.91,1.6,1.91,3.07,4,3.18-.55,4-3,4.95-6.59,4.33a1.7,1.7,0,0,1-.51-1.15c.55-1.05,0-1.82-.65-2.61L36,27Z"/><path class="cls-78" d="M34.09,33.11c-.07-1.11.15-2.32-1-3.05a5.91,5.91,0,0,1,3-3l.17.22c.34.92,1.57,1.55.91,2.8l-.13.23C36.31,31.52,36.31,33.44,34.09,33.11Z"/><path class="cls-78" d="M45,21a4.4,4.4,0,0,1-4.13,2L43,21.05Z"/><path class="cls-79" d="M88.16,17.11h.56c3.41,1.2,2.59,4.22,2.75,6.72a14.31,14.31,0,0,1-.58,6.39,1.86,1.86,0,0,1-1.29,1.05c-1.21-.48-1.48-1.56-1.69-2.67a23.86,23.86,0,0,1-.13-3.05,16.08,16.08,0,0,0-.28-2.07c-1.8-2-4.14-1.28-6.08-.81C55.93,28.8,37,43,26.67,67.62c-.71,1.69-1.18,3.54-3.43,3.84a3.49,3.49,0,0,1-2.91-2.25c-.59-2.13.28-4,1-5.95C26.73,52.35,32.54,41.7,42.44,34A85.05,85.05,0,0,1,71.28,18.2c2.73-.63,5.43-1.32,8.13-2.08a19.73,19.73,0,0,1,4.85-.36A7.42,7.42,0,0,1,88.16,17.11Z"/><path class="cls-80" d="M90.14,6.17c1.23-.71,2.48-1.33,4-.88a5.24,5.24,0,0,1,1.31,4.12c0,12.07.31,24.14-.16,36.2-.66,2.2.23,4.49-.31,6.71-1,7.31-.8,14.68-1,22-2.63,3.42-7,4-10.35,6.42s-5.64,4.94-6.79,8.72C75,90.66,72.94,90.63,71,91.22A2.45,2.45,0,0,1,70.44,90,15.71,15.71,0,0,1,71,86.44c2.5-9,9.35-13.42,17.32-16.74a3.1,3.1,0,0,0,1.06-1c.83-7.09.68-14.23,1.06-21.31.6-11.21,1.39-22.46,1.2-33.72,0-1.33.1-2.66-.71-3.83-.55-.57-1.1-1.13-1.63-1.71Z"/><path class="cls-81" d="M88.16,17.11l-4-.21c-2.82-2.28-5.46.62-8.21.3-2.11,1.26-4.74.44-6.85,1.72-6.34,2.31-12.63,4.69-18.05,8.9C49.59,29,48,30.63,45.76,29.07a2.25,2.25,0,0,1,.33-2.87L47.94,24c2-.65,2.24-2.55,3.06-4.06,0-.62,0-1.24,0-1.86,1.88-.65,2.78,3.78,5.09,1,1.64-2.79,4.77-2.87,7.32-4,5.77-.4,11.5-1,17-3.15A4.82,4.82,0,0,1,85,12.1Z"/><path class="cls-82" d="M91.16,8.09c3.88,2.07,1.75,5.63,1.75,8.4,0,6.21-.27,12.43-.71,18.65C91.43,46,91.45,57,91.14,67.93c0,1.15.11,2.36-1,3.16-1.38-1.45-1.44-3.28-1.45-5.12q0-14.89,0-29.79c0-1.81-.08-3.68,1.39-5.1-.23-4.68,1.24-9.52-1.35-14C90,14.45,86.47,11.62,89,9,91.16,12.14,90,7.24,91.16,8.09Z"/><path class="cls-83" d="M63,16c-1.72,2.33-4.84,1.53-6.91,3.07-1.86-4.17,1.32-5.42,4-6.94a17.15,17.15,0,0,0,8.12,2C67.31,17.08,64.44,14.56,63,16Z"/><path class="cls-76" d="M63,16c1.35-1.73,3.82-.32,5.24-1.87l14.6-3.46c1.2-.28,1.82.41,2.21,1.42-4.92,1.06-9.91,1.84-14.71,3.28C67.82,16.14,65.44,15.92,63,16Z"/><path class="cls-84" d="M91.16,8.09l-.25,4.3C89.26,11.58,89.42,10.14,89,9a2.47,2.47,0,0,1,.29-.88Z"/><path class="cls-85" d="M94,47.05q0-20.88.07-41.76c2.14-.34,3.6.38,4.09,2.62,1.62,1.5,2,3,0,4.42a2,2,0,0,1-1.23-.08c-1.14,9.73-.08,19.48-.56,29.19C96.27,43.45,97.45,46.3,94,47.05Z"/><path class="cls-86" d="M98.06,12.09c1-1.36.72-2.76.14-4.18l3.93.08a1,1,0,0,1,1.35.27,4.7,4.7,0,0,1,.72,2.18,5,5,0,0,1-.89,3.63c-2.72.14-2-1.34-1.52-2.65-1.56,1.27-1.34,5.4-4.66,4.32C95.58,15.23,97,13.19,98.06,12.09Z"/><path class="cls-87" d="M102.86,8.25a3.73,3.73,0,0,1-.73-.26c0-2.22,1.65-1.86,3-2a6.66,6.66,0,0,0,.89.17c1.43.81,2.55,2.13,1.22,3.47C105.35,11.5,104.18,9.23,102.86,8.25Z"/><path class="cls-88" d="M140.94,158,137,161c-.92,1.41-1.9,2.69-3.89,2A5.65,5.65,0,0,0,129,165c-.36.92-.85,1.6-2,1-3.85.83-6.73,4.38-11,4-2-1.11-3.77.15-5.61.55-2.07.46-4.11,1-6.09-.29.55-4,4.17-1.92,6.12-3.14,6.64-.36,12.37-3.44,18.2-6.18.39-.22.8-.42,1.21-.6a13.1,13.1,0,0,0,4.91-3c1.91-1.47,3.57-3.39,6.24-3.51a5.12,5.12,0,0,1,2.34,2.35C143.36,157.81,141.71,157.33,140.94,158Z"/><path class="cls-89" d="M104,170c4,1.28,8-2.21,12,0l-5.77,1.17c-1.61.94-3.56-.23-5.14.85l-2,.05c-.47-.7-.11-1.25.33-1.78Z"/><path class="cls-90" d="M127,166l2-1c.79.33,2.47-.43,2.22,1.1-.36,2.22-2.55,2.72-4.25,2.42C125.65,168.28,126.83,166.89,127,166Z"/><path class="cls-91" d="M135,166.09c1.18.84-.14,1.87.22,2.77.33.53.67,1.06,1,1.6-.35.16-.76.52-1.06.44a3.37,3.37,0,0,1-2.68-2.56C132.2,166.66,133.56,166.22,135,166.09Z"/><path class="cls-92" d="M119.06,173.47c0,1,0,2-1.15,1.81s-2.24-.68-2.45-2c-.17-1,.79-1.39,1.51-1.58C118.58,171.31,118.7,172.67,119.06,173.47Z"/><path class="cls-93" d="M126.43,174.88c-1.61-1-2.51-2-2.7-3.5,0-.21.84-.82,1-.73C126.15,171.47,127.48,172.42,126.43,174.88Z"/><path class="cls-94" d="M133.14,163.06l3.89-2c0,1.72.59,3.78-2.12,4.14A3.24,3.24,0,0,1,133.14,163.06Z"/><path class="cls-95" d="M110,175l-3.91,0a1.39,1.39,0,0,1,0-2v0C107.72,173,109.26,173.17,110,175Z"/><path class="cls-96" d="M105.08,172c1.5-1.6,3.39-.77,5.14-.85-1.19,1.18-2.75.67-4.15.92Z"/><path class="cls-97" d="M111.07,168.12,104,170l.05,0a1.47,1.47,0,0,1-2.05.18c-2.91,2.18-4,.27-4.89-2.16-1.92-1.86-1.4-4.29-1.42-6.54-.1-13.35.06-26.71-.1-40.06-.08-2-1.42-4.33,1.27-5.75a1.93,1.93,0,0,1,1.62.58c1.66,3,.84,6.35,1,9.55.09,1.71,0,3.42,0,5.13s.07,3.37,0,5.05,0,3.33,0,5,.06,3.3,0,4.95,0,3.26,0,4.89c0,1.06,0,2.12,0,3.19,0,1.53,0,3.07,0,4.6-.58,3.87,1.91,3.37,4.33,3.07,18.31-2.26,32.69-11.39,44.35-25.33,3.55-4.25,6-9.15,8.81-13.85,1.42-1.66,1.76-3.73,2.14-5.78a2.63,2.63,0,0,1,1.76-2.07c3,.68,2,2.91,1.67,4.71-1.07,5.44-4.05,10-6.64,14.83-1.45,2.69-4,4.83-4.19,8.19-.05,3.92-3.65,5.31-5.62,7.87-1.09,1-2.15,2-3.24,3a3.07,3.07,0,0,1-1.69.8l-5.86,4.06c-1.7,1-3.62,1.61-5.11,3h0C123.87,163.75,117.73,166.65,111.07,168.12Z"/><path class="cls-98" d="M97,115.91c-1.74,1.37-.19,2.79-.07,4.19-.92,8.1-.26,16.22-.38,24.34s0,16.27-.06,24.41A12.7,12.7,0,0,0,98.13,176l.87.11c.66,1.66-.58,2.27-1.64,3l-.56.94c-1-.15-2.59,1.54-2.75-1,0-.28-.11-.56-.17-.84-.74-7.64.61-15.35-.79-23a11.91,11.91,0,0,1-.38-2.58c-.07-8.71,0-17.41,0-26.12,0-2.31,0-4.63-1.67-6.5a7.36,7.36,0,0,1-1.23-3.12,8.89,8.89,0,0,1-.19-3.33c.58-2.36,1.94-3.81,4.53-3.35,2.28.41,4,1.55,3.75,4.25A3.39,3.39,0,0,1,97,115.91Z"/><path class="cls-99" d="M98.13,176c-1.67-1.18-2-2.93-2-4.81q0-24.42.06-48.84A7,7,0,0,1,97,120.1q.08,24,.14,47.91C96.48,170.79,98,173.3,98.13,176Z"/><path class="cls-100" d="M97.36,179.06c.54-1,1.09-2,1.64-3,3.31-.5,4,.43,3,3.94Q99.11,182.21,97.36,179.06Z"/><path class="cls-101" d="M106,173c0,.67,0,1.35,0,2-.93-.22-2.57.49-2.43-1.21C103.73,172.83,105.15,173.14,106,173Z"/><path class="cls-96" d="M102,170.17,104,170l-1,2.06-1.63.2Z"/><path class="cls-102" d="M141.06,154.09l1-1.08a16.42,16.42,0,0,0,4-3.43c6-5.68,10.26-12.68,14.35-19.77a82.14,82.14,0,0,0,4.87-10.25c1.39-2.36,1-5.39,2.78-7.61,2.57-1,2.38,1,2.57,2.47a3.15,3.15,0,0,1-1.35,2.67l-.22,2q-2.52,6.5-5.05,13a37,37,0,0,1-6.87,11.53c-2.08,2.88-4.77,5.19-7.23,7.72-.76.73-1.53,1.45-2.27,2.2a17.34,17.34,0,0,1-2.34,2,3.78,3.78,0,0,1-2.35.52A1.7,1.7,0,0,1,141.06,154.09Z"/><path class="cls-103" d="M170.06,115c0-1.36.1-2.79-1.81-3l-.53-.41c-.56-1.4.2-2.59.61-3.84.74-1.63.42-3.48,1-5.15a2.16,2.16,0,0,1,1-.93,1.26,1.26,0,0,1,1.11.64c.38,1.52-.38,3.18.53,4.65-.29,2.36-.59,4.72-.88,7.09C171.27,115,170.9,115.25,170.06,115Z"/><path class="cls-104" d="M170.06,115l1-1c3.06-1.07,1.74,1.4,1.91,2.49s-.05,2.56-1.3,3c-2.07.66-1.32-1.9-2.43-2.44A1.84,1.84,0,0,1,170.06,115Z"/><path class="cls-105" d="M172,107c-1.59-1.43-.54-3.39-1-5a.51.51,0,0,1,.18-.84c1.4,1.06.71,2.67,1.06,4C172.13,105.74,172.05,106.36,172,107Z"/><path class="cls-106" d="M156.09,143.09C159.49,140,160.41,135,164,132l1,1c-.32,1-.65,2-1,3.05,1.24,2,.79,3.62-1,5-2.72.61-3.28,3.38-5,5A5.38,5.38,0,0,1,156.09,143.09Z"/><path class="cls-33" d="M156.09,143.09a2.93,2.93,0,0,1,1.95,3c-1.61,2.92-4.74,4.72-5.93,8l-.07,0c-2,0-1.24-2.78-3-3Z"/><path class="cls-18" d="M163,141.05c.34-1.65.69-3.31,1-5l2.2.91a1.82,1.82,0,0,1,.81.88c1.37,1.38,1.47,2.53-.2,3.92S164,143,163,141.05Z"/><path class="cls-107" d="M169.08,135c-.36-.51-1.12-1.12-1-1.52.2-.78,1.11-.47,1.65-.28,2,.69,1.12,2.47,1.34,3.84Z"/><path class="cls-108" d="M167.09,137.88l-.81-.88c.13-2.53,1.49-1.73,2.8-1C168.94,137.15,168.07,137.57,167.09,137.88Z"/><path class="cls-109" d="M145,154.84,147,153c3.36,0,3.49,3.95,6,5l.1,0c-4.21.2-5.35,5-9.05,6C142.45,160.8,144.52,157.9,145,154.84Z"/><path class="cls-110" d="M145,154.84c2.73,3.37-2.51,6-.9,9.21a15.44,15.44,0,0,0-2.63,1.13c-1.17.79-2.2.85-2.82-.47s.37-2.23,1.53-2.47c3.88-.81,4.06-2.18.8-4.26l2-2Z"/><path class="cls-106" d="M169.07,128.05c1.89,2.63,1.16,3.94-2,4C167.64,130.67,169.18,129.78,169.07,128.05Z"/><path class="cls-111" d="M160.09,94.18c3,1.68,6.2,1.85,9.51,1.89,1.65,0,3.82-.81,4.49,1.81l-1.19.27c-2.14.79-4.35,0-6.51.33-2.86,0-5.72-.08-8.58,0q-4.55,0-9.07,0c-10.7-.21-21.41.37-32.11-.31a3.8,3.8,0,0,1-1.6-.93c.45-3.23,3.12-2.48,5-2.5A87.3,87.3,0,0,0,137.26,93c7.41-.51,14.83-1.29,22.19.47Z"/><path class="cls-112" d="M167.05,97.08c2-.21,4.12-.48,5.85,1.07.43,1.59-1.38,1.84-1.76,2.95a1.52,1.52,0,0,0-.18.84,6.11,6.11,0,0,1-.85.18c-1.37-.74-1.77-2.27-2.77-3.32C167,98.27,166.65,97.73,167.05,97.08Z"/><path class="cls-113" d="M153,158c-4.53,1.36-3.32-4.14-6-5l2-2c3-1,1.76,2.25,3,3,.72,1.19,1.91,1,3,1Z"/><path class="cls-114" d="M22.14,128.93a1.5,1.5,0,0,0-.19-.8,5,5,0,0,1-1.32-4,2.37,2.37,0,0,1,1.62-1.35c2,.34,2.31,2.11,3.06,3.51,2.48,4.6,4.8,9.3,8.25,13.31,3.17,4.69,7.6,8.19,11.52,12.16,9.85,7.73,20.53,13.72,33,16.11,1.35.26,3.18,0,3.11,2.29-1.55,1.1-3.51-.31-5.06.84a85.15,85.15,0,0,1-29-12.93c-9.12-3.56-14.38-11-19-19l-3.91-7.09C22.28,131.77,22.86,129.91,22.14,128.93Z"/><path class="cls-115" d="M81.37,169.88c-12.47-2-23.55-7.2-33.72-14.51-1.33-1-2.49-2.13-3.74-3.21.5-2.68,2-3.27,4.25-1.92,1.54.93,2.77,2.35,4.55,2.91,10.09,7,20.9,12.36,33.31,13.82a2.75,2.75,0,0,1,2.38,1.59c.07.88-.19,1.5-1.19,1.56l-.48,0h-.47l-1.15.06C83.79,171,82.52,171.28,81.37,169.88Z"/><path class="cls-116" d="M28.1,139c5.91,6.76,11.14,14.19,19,19-4,2.71-6.77-.79-10-2h0a24.15,24.15,0,0,1-8-10C27.72,143.85,26.84,141.59,28.1,139Z"/><path class="cls-117" d="M81.37,169.88l3.74.28c-.36,2.45-2.17,2-3.75,1.81-1.76-.23-3.5-.65-5.25-1C77.6,169.34,79.66,170.42,81.37,169.88Z"/><path class="cls-69" d="M85.92,180.19c-1.26-2.42-1.63-4.84,0-7.24l.21.26a12.36,12.36,0,0,1,0,6.69Z"/><path class="cls-37" d="M29.08,146.05c3.37,2.77,5.27,6.71,8,10C32,154.61,29,150.76,29.08,146.05Z"/><path class="cls-118" d="M22.14,128.93l2.05,3c-.7,3.24-2.86.34-4.17,1C19.27,130.83,22.19,130.67,22.14,128.93Z"/><path class="cls-119" d="M22.15,122.82,21,124.07c-1.93.42-1.05-1.58-1.84-2.14l-1-1c-.06-.6-.13-1.2-.19-1.81a5.32,5.32,0,0,1-1-1.84,10.7,10.7,0,0,1-.42-3.56c.35-1.43.26-3.09,1.91-3.88C22.07,113.49,22.77,118,22.15,122.82Z"/><path class="cls-120" d="M9.05,108.1c.39-1.67-1.1-3.36,0-5,.37-.4.75-.8,1.12-1.21a1.24,1.24,0,0,1,1.25.3,4.34,4.34,0,0,1,.56,1.24c-.08,2.72,1,5.19,1.63,7.77a1.76,1.76,0,0,1-.69,1.11Z"/><path class="cls-121" d="M17.93,117.21c0,.64,0,1.28,0,1.91-4.31-.34-4.17-4-5-6.83l.16-.32C16.64,112,16.22,115.56,17.93,117.21Z"/><path class="cls-118" d="M19.14,121.93c.62.71,1.23,1.43,1.84,2.14.32,1.35.65,2.71,1,4.06C18.27,127.3,19.81,124.12,19.14,121.93Z"/><path class="cls-122" d="M51.68,167.55c-.39.48-.6,1-1,1.11a1.23,1.23,0,0,1-1.15-.28c-.38-.67,0-1.2.73-1.24A4.52,4.52,0,0,1,51.68,167.55Z"/><path class="cls-123" d="M133.07,18.1c1.36.68,1,4.59,4,2.13A.52.52,0,0,1,138,20c-1,3.13,1.08,5.47,2.05,8.09-.13.1-.3.3-.4.27-6.88-2.07-13-5.66-18.86-9.7a1.61,1.61,0,0,1,1.3-1.62l4,0c2.33.43,4.39,2.69,7,1Z"/><path class="cls-124" d="M102.86,8.25c1.39,0,2.6,1.9,3.86.84,1-.84-.34-2-.71-2.95,2.16.62,4.3,1.72,6.48,1.77,4.59.11,4.64,2,2.55,5.15-4.41.69-8.63.61-12-2.89Z"/><path class="cls-125" d="M103,10.17l12,2.89a2.18,2.18,0,0,1,2,1l-.39.61a4.19,4.19,0,0,1-5.08.69c-1.95-1.1-3.84-.71-5.81-.33a3.06,3.06,0,0,1-2.72-1Z"/><path class="cls-125" d="M122.06,17.07l-1,1.05a2.07,2.07,0,0,1-3.2-.25c.44-1.4-.77-2.47-.77-3.79h0C119.24,14.23,121.49,14.24,122.06,17.07Z"/><path class="cls-47" d="M133.07,18.09c-2.9,3.6-4.77,0-7-1Z"/><path class="cls-126" d="M158,39.09c.12,2,1.42,3.11,3,4v1c-1.34,1.39-3,1.24-4.61.78-1.5-.8-2.86-1.71-2.39-3.77,1-5-3.89-6.08-6-9l3,1Z"/><path class="cls-127" d="M154.05,41.08l2,3c.81.81,2,1,2.81,1.82a44.51,44.51,0,0,1,5.16,7.32c3.79,5,5.13,10.85,6,16.88A40.06,40.06,0,0,1,172,86l-1.06.32c-1.95-1.43-2-3.68-2.47-5.74-1.15-5-1.69-10.08-4.06-14.7-2.69-7-6.68-13.23-10.95-19.32-3-4.43-6.94-7.88-10.9-11.35-1.35-1.18-3-2.08-3-4.22.26-.74.62-1.31,1.55-1C146.49,32.47,150,37.13,154.05,41.08Z"/><path class="cls-128" d="M141.13,30l-1.21,1.4a2.63,2.63,0,0,1-2.81-.35c-7.86-5.4-16.58-8.88-25.66-11.6A4.2,4.2,0,0,1,109,17.94c-.35-1.33.7-1.7,1.52-2.22a3.26,3.26,0,0,1,1.45-.21c1.9,1,4.43-.33,6.08,1.63.75,1.11,1.94.89,3,1l19,10Z"/><path class="cls-129" d="M138,20a5.34,5.34,0,0,0-.88.2c-.68-.27-1.78-.09-1.68-1.26,0-.3.6-.77,1-.8C137.69,18,138,19,138,20Z"/><path class="cls-130" d="M170,70.08c-2.13-5.75-3.94-11.63-7-17,.22-1.31-.31-3.12,2-3l.83,1.06a2.07,2.07,0,0,1,2.14,1c.73,3.41,4.69,4,6,6.93a9.23,9.23,0,0,0,.67,2.29,7.22,7.22,0,0,1,.34,7.7c-2.14-.68-2.6-3.18-4.42-4.46C169.59,66.56,170.28,68.37,170,70.08Z"/><path class="cls-131" d="M165.06,50.07l-2,3-5-7c2.36-1.79,4.13-.1,6,1C164.64,48,166.18,48.58,165.06,50.07Z"/><path class="cls-132" d="M164.05,47.08l-6-1a3.18,3.18,0,0,1-2-2h5C162.33,44.8,164,45.1,164.05,47.08Z"/><path class="cls-133" d="M168,52.15c-.79-.17-1.68-.14-2.14-1,1.1-1.42,2.22-1.57,3.36,0Z"/><path class="cls-134" d="M71.06,91.05c1.54-.93,2.74-3.6,5-1,2.7,3.75,2.66,6.73-.14,10.18-2.21.09-3.46-.85-3.46-3.17.54-3.21-1.93-2.43-3.53-2.53-5.26-.34-10.55.5-15.8-.48H48a15.09,15.09,0,0,1-7.92,0l0-.11a1.1,1.1,0,0,1,.44-1.51,6.48,6.48,0,0,1,3.82-.77c8.4.45,16.71-.92,25.08-1.18A2.73,2.73,0,0,1,71.06,91.05Z"/><path class="cls-135" d="M11.08,102.06q-.44-.11-.87-.18c0-.22,0-.44,0-.66.78-1.08-.57-2-.28-3,2.71-2.22,6.19-1.09,9.19-2.09a2.11,2.11,0,0,1,.59,1.34c-1.61,3.75-.64,7.75-1.14,11.61-1.54,1-.5,2.94-1.44,4.17-2.41-.22-2.31-2.37-3-3.91C13.51,106.73,14.43,103.52,11.08,102.06Z"/><path class="cls-136" d="M19.08,97.07v-1l52,0,.18.94a3.49,3.49,0,0,1-1.52,1.08c-11.88.87-23.78.14-35.67.4C29.08,97.81,23.85,99.9,19.08,97.07Z"/><path class="cls-137" d="M71.42,96.84a2.77,2.77,0,0,1-.36-.78c-3.14-2-6.65-.51-9.94-1-2.66-.39-5.53,1-8-1,6.46-.41,13,.7,19.4-.72.82-.18,1.76-.39,2.18.55.73,1.62-.38,2.44-1.62,3.12C72.43,97.68,71.89,97.55,71.42,96.84Z"/><path class="cls-57" d="M40.08,93.06c0,.32,0,.64,0,1-6.66-.39-13.41,1.16-20-.9l.05-.13c1.44-1.24,3.18-1.32,4.94-1.31,3.66-.23,7.36.36,11-.57C37.65,91.2,39.72,90.37,40.08,93.06Z"/><path class="cls-137" d="M40.11,94.12l7.92,0A7.66,7.66,0,0,1,40.11,94.12Z"/><path class="cls-7" d="M9.89,98.2c1.57.87,2.8,1.78.28,3l-2-3.34Z"/><path class="cls-138" d="M10,69c.89-3.53.92-7.39,3.92-10.09a2.16,2.16,0,0,1,1.63,1.2c.55,1.8-.34,3.7.37,5.49a7.09,7.09,0,0,1-2.48,6.08C10.58,72.91,9.35,72.12,10,69Z"/><path class="cls-139" d="M10,69c.29,1.77.72,3.33,3.07,2.09.48.47,1,1.14.7,1.69-1.84,3.6-2.05,7.58-2.79,11.43q-.43-.06-.87-.09c-4-1.37-1.16-4.75-2-7A18.72,18.72,0,0,1,10,69Z"/><path class="cls-140" d="M15.08,60.07l-1.18-1.2c.06-1.59.12-3.19.19-4.78a2.45,2.45,0,0,1,.65-.15c2-1.74,3.76-2,4.76,1A46.35,46.35,0,0,1,17,63V63a.77.77,0,0,1-1.12.17C15.07,62.26,16.07,60.91,15.08,60.07Z"/><path class="cls-141" d="M8,77c2.32,1.87-.24,5.16,2,7-1.1,1.28-2.82,1.19-4.2,1.84C6.25,82.88,6.38,79.77,8,77Z"/><path class="cls-142" d="M16.06,63,17,63c.39,1.71.77,3.42,1.16,5.14,1.13,1.19.67,2.46.21,3.74A6.65,6.65,0,0,1,17.72,73a2.44,2.44,0,0,1-1.64,1c-5,2.24-3.88,6.72-3.94,10.77L11,84.17C9.65,79.48,12.81,75.5,13,71.05c.92-1.9,2.31-3.65,2.07-6C14.43,64,15.22,63.47,16.06,63Z"/><path class="cls-143" d="M16.08,74.06,17,73c1.63,1.4,1.35,3.47,1.87,5.26C18.67,81,19,83.78,17,86l-1.92-.18C14.47,81.85,16.29,78,16.08,74.06Z"/><path class="cls-144" d="M25.12,93h-5l-1.05-2.85,1-.16c1.26-1.19,2.73-1.11,4.25-.7a2.56,2.56,0,0,1,1.18.92A2.39,2.39,0,0,1,25.12,93Z"/><path class="cls-145" d="M16,93H8.45c.64-2.68,2.46-1.59,3.62-2C13.57,91.32,15.72,90.29,16,93Z"/><path class="cls-146" d="M17,86,17.89,78a4.76,4.76,0,0,1-.15-2.89c.72-2.26.37-5.06,3.14-6.29l2.2,2.31c1.76,2.32.18,4.6-.06,6.9-1.4,3.42-1.16,7.21-2.44,10.66l-.6.51Z"/><path class="cls-146" d="M25.12,89.93l-5.05,0c0-.28,0-.55-.08-.83l.15-.15C22.06,87.92,24.1,86.14,25.12,89.93Z"/><path class="cls-8" d="M165.05,91.09c4.59,3.78,10,1.21,15,2-3.57,2.1-7.48,1-11.16.79a73.76,73.76,0,0,0-8.81.3L160,94C160.7,91.32,162.7,90.91,165.05,91.09Z"/><path class="cls-147" d="M165.05,91.09,160,94H136.35a13.32,13.32,0,0,1-4.57-.52c-3.6-1.44-7.4-.92-11.11-1.2-2.9-.21-2.9-.31-3-2.94,4.21-1.4,8.55-.63,12.83-.7,8.45-.13,16.9,0,25.35,0,4.1.48,8.37-1,12.3,1.17l2.93.39c.68,1.54,0,2.06-1.45,1.8S166.58,91.4,165.05,91.09Z"/><path class="cls-148" d="M168.16,89.81l-12.1.24c-.21-1.53,1-1.72,2-2.08a23.52,23.52,0,0,1,3.93-.25c3.31.32,3.9-1.58,3.58-4.31-.51-4.29-2.16-8.29-3.17-12.45-.19-.79-.62-1.53-.77-2.34-.2-1.17-.37-2.44,1.15-2.81,1.33-.33,1.54.78,1.88,1.74a8.25,8.25,0,0,0,1.13,2.63c-.54-1.77-2.15-3.32-.66-5.24,4,6.56,4.25,14.14,5.85,21.35Z"/><path class="cls-149" d="M94,153.07l0,2a122.48,122.48,0,0,1,0,24h0c-2.42.27-3.09-1.07-2.93-3.19.11-1.52-.18-2.61-2.1-1.83v-2c-.61-1.45.33-3-.22-4.42-.3-16.05-.13-32.1-.07-48.16a5.76,5.76,0,0,1,.72-2.86,1.2,1.2,0,0,1,1.63-.51l.19,2.91c3.12,4.43,1.33,9.55,1.93,14.33a18.39,18.39,0,0,1-.25,4.41,10.84,10.84,0,0,0,0,6.5C93.2,147.18,92.82,150.23,94,153.07Z"/><path class="cls-150" d="M89.88,169.05c.57,1.23-.14,2.1-.86,3-1.29,0-1.93-.57-1.81-1.89.29-.36.59-.71.88-1.06A1.12,1.12,0,0,1,89.88,169.05Z"/><path class="cls-151" d="M86.16,179.9q0-3.35,0-6.69A6.19,6.19,0,0,1,86.16,179.9Z"/><path class="cls-33" d="M29,42c.29-3.33,2.79-5,5.08-6.91,3.33-4.2,3.33-4.2,7.08-.77-4,5-8.57,9.58-12.06,15-.5.78-1.4,1.56-2.43.43C25.64,46.61,28.62,44.68,29,42Z"/><path class="cls-152" d="M41,34c-2.57-1.5-4.9-1.33-6.9,1,0-.65,0-1.31,0-2,1.18-.73,1.28-2.54,2.88-2.84,3.61,1.69,5-1.44,7-3.24a1.94,1.94,0,0,1,2.17-.83c0,1,0,1.95,0,2.93.2,3.12-2.33,3.76-4.39,4.83Z"/><path class="cls-153" d="M29,42c.27,2.91-1.62,5.31-2,8.08.53,1.14-.12,1.64-1.07,2-1.81-.32-3.64-.62-3.92-3,1-1.76,3.28-2.1,4.2-3.91Z"/><path class="cls-154" d="M26.27,45.15c-.37,2.4-2.52,2.9-4.2,3.91L21,47.17C23.1,47.49,24.52,45.86,26.27,45.15Z"/><path class="cls-154" d="M20.94,47.21c-2-.87-1.8-1.5,1-4.35A5.91,5.91,0,0,1,20.94,47.21Z"/><path class="cls-155" d="M26,52l1.07-2C32,45,35,38.16,41,34l.08,0c1-.72,1.73-.7,1.9.74-9,7.92-15.23,17.88-20.8,28.33-.94.24-1.42,0-1.11-1.07C21.25,58,24.65,55.53,26,52Z"/><path class="cls-143" d="M21.08,62.08l1.11,1.06c-.44,1.88-.87,3.76-1.31,5.63l-2.64,6.49c-1.22-.73-.19-2.23-1-3.08l1-4.06C19.74,66.4,18.79,63.45,21.08,62.08Z"/><path class="cls-142" d="M17,63c-.2-2.9,1.19-5.36,2.12-8-1-1.73-.42-3,1.12-4C22.24,55.87,19.18,59.33,17,63Z"/><path class="cls-156" d="M20.23,51c-.37,1.35-.74,2.7-1.12,4C18,53.57,16.55,53,14.74,53.94,16.75,53.31,16.07,47.58,20.23,51Z"/><path class="cls-152" d="M51,20c.2,2.28-.27,4.05-3.06,4.06C48.83,22.56,49.42,20.88,51,20Z"/><path class="cls-74" d="M37.1,30c-.3-.94-.61-1.87-.91-2.81,1.06.53,2.69.82,3,1.64S38,30,37.1,30Z"/><path class="cls-157" d="M25.12,89.93c-1.24-2.62-3.38-.28-5-.93-.22-3.8-.09-7.54,1.92-11,2.69-3.75,3.37-8.37,5.32-12.45C39.12,41,58.31,26.48,85.27,22.29c1.34-.21,2.65-.29,3.74.75l0,2.13c-.94,1.95-2.83,2-4.62,2.4A69.73,69.73,0,0,0,69.58,31.8C53.11,37.7,42,49.52,33.52,64.32c-2.67,4.66-4,9.77-5.56,14.83-1.4,6.65.27,8.52,7.67,8.58l4.66,0c1.94,0,3.87,0,5.81,0,3.1,0,6.2,0,9.31,0a11.92,11.92,0,0,1,5.12.72,1.41,1.41,0,0,1,.78,1.47A2.94,2.94,0,0,1,59.91,91c-7.32.87-14.63.52-21.95.07-4.33.06-8.77,1.69-12.92-.88Z"/><path class="cls-158" d="M35.08,89.05c-2-.67-5.25,1.74-6-2.28,0-.16-.06-.39-.16-.45-3.41-1.9-3.56-2.5-1.83-7.25,2.12-2.29,2.26-5.42,3.41-8.12C38.55,51.9,51.59,38,71.34,30.93c4.19-1.85,8.74-2.41,13.1-3.68a4.6,4.6,0,0,1,4.6.82c0,1,.09,2,.13,3l-.5.55c-5.63,2-11.71,2.2-17.22,4.66C51.65,45.07,38.3,59.42,33,80.74,30.66,84.27,34.23,86.32,35.08,89.05Z"/><path class="cls-159" d="M89,23C58.71,25.13,32.23,47.57,24.88,76.2a19.89,19.89,0,0,1-1.14,3.28c-.23.53-.77,1.33-1.41.49-.34-.46-.2-1.28-.27-1.93l1-7c2.08-.81,2-2.92,2.68-4.53Q39.44,34.84,72.25,24.12c4.19-1.37,8.29-3.53,13-3.05C86.74,21.22,88.74,20.47,89,23Z"/><path class="cls-160" d="M43,34.82l-1.9-.74c1.07-2.26,4.08-2.55,5-4.95,6.36-2.71,11.32-8,18.23-9.74,1.58-.4,3-1.46,4.73-1.35,1.3-.59,2.29-.64,2.14,1.24A99.46,99.46,0,0,0,43,34.82Z"/><path class="cls-161" d="M89,28.07c-6.33-.21-12,2.5-18,4-.49-.7-1.56-.25-2-1,6-4,13.36-3.73,20-5.89Z"/><path class="cls-157" d="M90.07,31.08q0,20,.05,40l-1.06,0c-2.77-4.59-1.11-9.61-1.43-14.43,0-1.76-.11-3.52,0-5.27,0-1.68-.07-3.36,0-5s0-3.22,0-4.83c0-1,0-2.07,0-3.1,0-.77,0-1.53,0-2.29a18.2,18.2,0,0,1,.2-3,4.45,4.45,0,0,1,1-2l.14,0Z"/><path class="cls-162" d="M76.08,16.1a20.78,20.78,0,0,0,7-1.54c.83-.28,1.72-.35,2.14.5s-.87,1.13-1.11,1.84l-4.86.39C78.08,17.27,76.39,18.56,76.08,16.1Z"/><path class="cls-163" d="M76.08,16.1c.75,1.27,2.13.83,3.21,1.19l-8.09,2A2.24,2.24,0,0,0,69.06,18C71.07,16.19,74,17.76,76.08,16.1Z"/><path class="cls-164" d="M89.05,56.07v15c-8.42,2.42-14.37,7.5-17.1,16-2.82,5.12-7.12,2.23-10.93,2l0,0c-1.47-1.59-1-3.27-.43-5.1A36.15,36.15,0,0,1,71.9,67.37,36.08,36.08,0,0,0,60.68,83.55c-.43,1.32-.93,3.31-2.88,2.78-2.2-.61-1.49-2.63-1.22-4.22a22.19,22.19,0,0,1,4.58-9.83C67.65,63.89,75.86,58,86.28,55.49A2.71,2.71,0,0,1,89.05,56.07Z"/><path class="cls-165" d="M76.05,100.06a16.67,16.67,0,0,0,0-10c-.08-4.89,2.58-7.79,6.63-10.17C86,78,89,75.47,93.08,75.05a2,2,0,0,1,1.28-.48c1.73.4,3.79,0,4.92,1.92,0,1.29-1.37,1.5-1.94,2.35a4.93,4.93,0,0,0-.49,1.1c-.11,2,1.81,2.12,2.88,3,2.52,2,4.13,4.26,3,7.65a1.56,1.56,0,0,1-1.08.77c-2.46-.54-2.16-4.42-5.57-4.22s-6.38.57-8.38,4c-1.89,3.24-5.08,5.7-5.78,9.67a3.75,3.75,0,0,1-.53,1.25c-2,.88-3.34-.71-4.9-1.42C76.32,100.42,76.18,100.24,76.05,100.06Z"/><path class="cls-166" d="M94,47.05c1.66-1.44,1-3.39,1-5.12.07-9.91,0-19.83.07-29.74,0-1.53-.35-3.18.69-4.76,2,1.41,1,3.21,1.3,4.67-.91,2.81.39,5.52.38,8.29,0,16.91.14,33.82-.09,50.74-.31,1.43-.4,3.33-2.36,3.15-2.27-.21-1.31-2.3-1.4-3.58a105.4,105.4,0,0,1,.45-18.63Z"/><path class="cls-144" d="M38.07,90.26l23-.32c3.29-1.27,6.57-.37,9.86,0,0,.38,0,.76.08,1.15a7.26,7.26,0,0,1-.93.06c-10.48.26-20.93,2.64-31.44.38A.79.79,0,0,1,38.07,90.26Z"/><path class="cls-85" d="M94.06,52.07q0,9.74,0,19.46c0,.81,0,2,1,1.92,1.25-.13.88-1.52,1-2.44a1.15,1.15,0,0,1,1.32.09,5.24,5.24,0,0,1,.87,1.17c1.79,5.79-2.32,2.67-4.26,2.82-.33,0-.66,0-1,0-1.07-6.13,0-12.26,0-18.39C93.09,55.1,92.56,53.35,94.06,52.07Z"/><path class="cls-167" d="M71,89.91l-9.86,0L61,89.1c3.38-2.12,7.85,1.71,10.93-2C72.33,88.26,71.46,89,71,89.91Z"/><path class="cls-168" d="M96.9,71.13c-.26,0-.51-.07-.77-.12q0-26.82-.06-53.63a9.53,9.53,0,0,1,1-5.28h1c-.21,1.05-.43,2.1-.69,3.41,2.37-.91,2-3.45,3.72-4.66,1.82.28.36,2.79,2,3.22l3,0c1.57.91,4.37-1.42,5,1.89l-.09.15c-1.81.58-3.62,1.16-5.46,1.63-2.59.7-6.46-1.19-7.07,3.51,0,1.08,0,2.15,0,3.24,0,13.38.05,26.75,0,40.13C98.43,66.88,99,69.35,96.9,71.13Z"/><path class="cls-169" d="M111.07,168.12c6.33-2.39,12.45-5.32,19-7C124.24,164.75,118.12,167.71,111.07,168.12Z"/><path class="cls-169" d="M130.09,161.11c1-2.11,2.89-2.85,5.11-3A8.45,8.45,0,0,1,130.09,161.11Z"/><path class="cls-170" d="M158.05,123.06a79.89,79.89,0,0,1-16.85,22.39,66.75,66.75,0,0,1-39,17.69c-3.78.4-4.7-.81-4-4.15,2.47-2,5.54-2.19,8.43-2.85,22.16-5.1,37.82-18.11,46.93-38.83,2.34-5.32,2.56-11.33,4-17,.27-1.1,0-2.4,1.58-2.74,4.33-.72,5.69,1.66,5.25,5.38-.5,4.17-.52,8.52-3.31,12.08a2.1,2.1,0,0,0-1,2C158.86,118.88,158.81,121.09,158.05,123.06Z"/><path class="cls-171" d="M98.23,151v-5c2.21-1.78,5-1.67,7.54-2.31,16.7-4.22,28.77-13.79,35.42-30a44.47,44.47,0,0,0,3.73-15.83c1.23-.56,2.52-.23,3.79-.32a5.21,5.21,0,0,1,1.52.2c2,.41,3.37,1,2.81,3.61-4.75,22.51-16.88,39.05-38.58,47.85-3.39,1.38-7,1.95-10.6,2.8C101.94,152.5,99.87,152.64,98.23,151Z"/><path class="cls-172" d="M145.05,98.08c1.75,2.87.86,5.74.06,8.66-6.47,23.43-24.79,37.92-46.88,39.29l0-5c1.88-1.63,4.3-1.65,6.55-2.08C120.22,136,136.27,119.7,139,104.21c.31-1.76.32-3.24-1.22-4.48-.72-.58-1.62-1.46,0-2.14C140.21,97.81,142.69,97,145.05,98.08Z"/><path class="cls-173" d="M158.05,98.06a6,6,0,0,1,.8,3.32c-3.2,21.53-14,38.1-32.85,48.94A68.27,68.27,0,0,1,98.2,159c0-1.66,0-3.31,0-5a4.12,4.12,0,0,1,2.69-1.14c8.44-.79,15.89-4.23,23.39-8,18.18-9.1,25.79-25.33,30.64-43.64.26-1-.21-2-.14-3,.69-1,1.73-.63,2.66-.65Z"/><path class="cls-174" d="M98.24,126l-.12-9.83c.92-1.86,3-2,4.49-3a45.2,45.2,0,0,1,6-3.07c3-1.08,4.27-3.66,5.32-6.39.93-2,.63-4.74,3.45-5.55,2.44-.22,4.88-.08,7.32-.12,1.32.06,2.67-.15,3.94.42,1,.72,1.22,2,.34,2.49-3.41,1.91-4,5.52-5.55,8.53-4.26,8.09-10.41,14-19.41,16.48A8.41,8.41,0,0,1,98.24,126Z"/><path class="cls-175" d="M137.05,98.07c4.12.91,4.07,3.3,3.11,6.87-4.64,17.3-15.81,28.52-32.15,34.84-3,1.15-6.49.87-9.75,1.25,0-1.66,0-3.33,0-5,1.67-1.59,3.9-1.65,6-2.2,15.24-4.07,24.6-14.1,29.35-28.87,1-3,.26-4.77-3-5.24a1.72,1.72,0,0,1-.88-1.18,1.16,1.16,0,0,1,1.09-.94C132.86,97.8,135,97.05,137.05,98.07Z"/><path class="cls-176" d="M155.05,98.08c3.79,3.06.27,6.33-.43,8.89-1.72,6.24-3.79,12.42-7.67,18-5.69,8.2-11.31,16-20.75,20.51-9,4.27-17.65,9-28,8.55,0-1,0-2,0-3,11.88-.06,22-4.83,31.22-11.82,8.24-6.21,14-14.35,18.13-23.61,2.17-4.87,2.46-10.42,4.6-15.4.68-1.57-1.93-.85-2.13-2.11A5.73,5.73,0,0,1,155.05,98.08Z"/><path class="cls-177" d="M130.06,99.06c6.47,0,6.47,0,4.79,6.22-4.58,16.94-19.48,29.46-36.6,30.76,0-1.67,0-3.33,0-5,2.07-2.25,5.09-2.36,7.71-3.26,11.81-4,19.09-12.22,22.56-24A31.07,31.07,0,0,1,130.06,99.06Z"/><path class="cls-178" d="M130.06,99.06c1.22,11-11.32,26.43-21.82,29.2-3.33.88-6.47,2.5-10,2.79,0-1.69,0-3.37,0-5.05,7.58-1.1,14.15-4,19.38-9.87a36.33,36.33,0,0,0,4.64-7c2-3.59,2.63-8,6.8-10.07a.61.61,0,0,1,1,0Z"/><path class="cls-179" d="M161.05,115.05c.66-3.88,1.35-7.75,2-11.63s-.6-6.1-5-5.36h0c-.32-.23-.43-.46-.32-.69s.22-.34.33-.34l9,0,1,1c2,4.47.82,8.82-.47,13.17-.22,1.82-.46,3.64-.85,5.43-1.92,4.51-3.65,9.1-6.19,13.32-2.52,4.51-4,9.85-9.43,12.07-.73.07-2.66.85-1.39-.84A97.19,97.19,0,0,0,159,125.56C160.57,122.3,162.57,119,161.05,115.05Z"/><path class="cls-180" d="M151.08,142.07c4.44-2.92,6.17-7.87,8.95-12a.84.84,0,0,1,1.22.08A53.4,53.4,0,0,1,146,150c-.36.44-.71.42-1,0C146.56,147,150.43,145.77,151.08,142.07Z"/><path class="cls-181" d="M103.06,114.06l-4.94,2.11L97,115.91a4.83,4.83,0,0,1,0-.85C98.7,112.6,100.72,112.34,103.06,114.06Z"/><path class="cls-179" d="M158.05,123.06c-.08-2.25.06-4.43,2-6A9.32,9.32,0,0,1,158.05,123.06Z"/><path class="cls-182" d="M145,150l1,0c-.9,1.55-1.91,3-4,3A7.32,7.32,0,0,1,145,150Z"/><path class="cls-183" d="M103.06,114.06c-2.07,0-4.15-.18-6,1,.29-2.46-1.23-3.36-3.27-3.9-2.59-.69-2.45,2-3.68,2.92-1.27,1.25-2.86,1.28-4.49,1.22-7.45-1.66-11.21-7.15-14.11-13.56a23.08,23.08,0,0,1-.89-3.41,1.63,1.63,0,0,1,.44-1.24l.36-.24,1.66.2c0,2,1.7,2.29,3,3h0c2.14,2.11,4.74,3.66,6.91,5.74,1.14,1.09,2.36,2,3.89.58,4-.6,8.09-.11,12.09-.79,5.52,1.75,6.35,1.44,9-3.62a10.53,10.53,0,0,1,2.34-3.19c1.09-.78,2-1.81,3.37-2.21A1.59,1.59,0,0,1,115,97l1.32.17c-.38,2.58-1.33,5-1.81,7.57-1.9,2.05-2.8,5-5.58,6.26Z"/><path class="cls-183" d="M94,153.07c-2.15-2.69-2-5.87-2-9a8.05,8.05,0,0,1,0-6A89.55,89.55,0,0,0,91.27,119c3.06,1.13,2.76,3.79,2.77,6.24C94.07,134.5,94,143.79,94,153.07Z"/><path class="cls-68" d="M94.05,179q0-12,0-24A58.93,58.93,0,0,1,94.05,179Z"/><path class="cls-181" d="M84.86,114.15l5.24-.07c.32.66.65,1.32,1,2l-.89,0a2.57,2.57,0,0,1-1.3.66C87.18,116.42,85.29,116.44,84.86,114.15Z"/><path class="cls-184" d="M161.25,130.12,160,130q3-6.51,6-13a2.83,2.83,0,0,1,.11,3.2C164.81,123.66,163.78,127.26,161.25,130.12Z"/><path class="cls-112" d="M166.12,120.2c0-1.07-.07-2.13-.11-3.2a7.86,7.86,0,0,1,1.05-4.93c.29-.47.57-.45.82,0l.37-.08C168,114.86,167.86,117.74,166.12,120.2Z"/><path class="cls-184" d="M167.88,112.11a7.63,7.63,0,0,0-.82,0c.63-4.64,1.37-9.28,1-14a5.67,5.67,0,0,1,2.09,4v0c-1.38,1.88.12,4.21-1,6.14Z"/><path class="cls-112" d="M169.14,108.22c.2-2.07-.94-4.34,1-6.14C170,104.17,170.66,106.36,169.14,108.22Z"/><path class="cls-185" d="M115,97c-.3,0-.6,0-.9,0-1.48-.46-3.07-1-2.19-3,.76-1.73,2.43-2,4.18-2a99.4,99.4,0,0,1,21,2h0c-4.68,1.69-9.56,1.84-14.47,2C120.07,96.07,117.31,95.11,115,97Z"/><path class="cls-176" d="M113.84,104.94q1.22-3.89,2.45-7.77c10.92-.54,21.84-.44,32.77-.11q.48.33.33.66c-.11.22-.22.34-.32.34l-4,0h-15c-1.56,1-3.27.29-4.9.49-2.7.26-5.47-.56-8.12.5q-1,3-2,5.94C114.61,105.5,114.22,105.49,113.84,104.94Z"/><path class="cls-170" d="M149.07,98.06c0-.34,0-.67,0-1l9,0c0,.35,0,.69,0,1l-3,0h-6Z"/><path class="cls-186" d="M19.08,97.07l15,.05c-.58,2.71-2.86,2-4.63,2.31-2.68-.08-3.84.95-3.49,3.87A107.91,107.91,0,0,1,27,116.51a9,9,0,0,0,.74,7.16c2.37,4.92,5.24,9.56,8,14.28.71,1.23,1.76,2.94.12,4-1.44.91-1.93-1.39-3.13-1.76-4.92-4.92-7.09-11.52-10.56-17.33-1.42-4.28-1.78-8.88-4-12.92-.35-.13-.49-.31-.42-.51s.17-.34.27-.34C17.64,105,15.94,100.82,19.08,97.07Z"/><path class="cls-79" d="M32.71,140.16l3.5,1.59c-3.48-6.39-6.66-12.12-9.72-17.91-1.13-2.13-2.56-4.38-.41-6.78,1.64.47,2.23,1.88,2.77,3.26a69.17,69.17,0,0,0,15,23.67c2.74,3.1,6.51,5.18,8.71,8.82a1.6,1.6,0,0,1-.5,1.25,4.49,4.49,0,0,1-3.59-2.14c-1.71-2.18-3.13-1.51-4.57.24C39.63,148.67,35.61,144.94,32.71,140.16Z"/><path class="cls-187" d="M52.07,154.06v-1c.94-1.27-1.68-2.92.28-3.93,1.38-.7,2.41.67,3.49,1.35a19.68,19.68,0,0,0,4.08,1.77,69.81,69.81,0,0,0,23.34,9.06c3.24.58,4.77-.31,4.45-3.72,0-1.86-.06-3.71,0-5.56-.06-1.66-.06-3.33,0-5,.08-2-.07-3.95,0-5.92s-.08-4,0-6c0-1.72-.06-3.44,0-5.15-.11-1.76,0-3.51,0-5.27.07-3-.75-6.1,1.45-8.72l1.09,0c.3,17.67.25,35.34-.31,53H88.09c-5.79-2.34-12.12-2.35-18-4.77C63.55,161.62,57.89,157.78,52.07,154.06Z"/><path class="cls-188" d="M15.07,109.07,17,113.13c.31.16.43.34.36.55s-.16.33-.25.33c.27,1.07.53,2.13.8,3.2L13.12,112c-1.47-2.79-2.66-5.65-1.93-8.92C14.43,103.81,12.7,107.76,15.07,109.07Z"/><path class="cls-189" d="M17.13,114a6.41,6.41,0,0,1-.11-.88c.25-1.38-.43-3,1-4.07a1.38,1.38,0,0,1,.15.85C17.73,111.25,18.64,112.94,17.13,114Z"/><path class="cls-190" d="M15.07,109.07c-4.23-.11-2-4.38-3.88-6a5.36,5.36,0,0,1-.11-1C17.23,101.65,14.42,106.35,15.07,109.07Z"/><path class="cls-191" d="M111.09,16c-1.28-1.71-3.81-.08-5-1.89,1.64-.86,3.49-1.76,5-.29,2.06,2,4,.52,6,.27.66.91,2.12,1.57,1,3.06A18.54,18.54,0,0,1,111.09,16Z"/><path class="cls-192" d="M165.12,64.94c-.62,2.14,1.61,4,.47,6.46l-2.19-4.92-.84.27c1.21,4.37,2.43,8.73,3.61,13.11a38.91,38.91,0,0,1,.86,3.85c.64,3.89-.6,6.1-5,5.34.55-9.14-.23-18-4.8-26.25-5.71-11.39-14.61-19.84-24.91-27-.63-.77-1.7-2.07-1.32-2.5,1.78-2-.2-2.17-1.16-2.94-.78-.63-1.41-1.44-.73-2.55,2-.92,3.52.35,5,1.3,7.42,4.74,14.44,10,20,16.92A52.89,52.89,0,0,1,165.12,64.94Z"/><path class="cls-193" d="M154.15,46c-6.34-5.75-12.73-11.42-20.22-15.72-1.57-.9-3-2.08-4.87-2.25-2.16.86-3.81-.64-5.65-1.23-5.5-1.79-10.82-4.3-16.77-4.41-3.21-.53-6.57-.42-9.45-2.31,1.22-4.59,4.92-3,7.92-3.18,1.28-.36,2.57-.85,3.72.32A98,98,0,0,1,139.92,31.4C144.92,36,150.78,39.83,154.15,46Z"/><path class="cls-194" d="M108.83,17.26l-3.72-.32c1.78-1.61,3.92-.57,5.89-.8Z"/><path class="cls-195" d="M38,91c10.7,1.85,21.4-.88,32.1.09-7.09,1.71-14.32,2-21.57,2-2.83,0-5.66,0-8.48,0-1-1.46-2.59-.86-4-1C35.92,90.21,36.9,90.49,38,91Z"/><path class="cls-196" d="M89,152v6c-4.69,1.68-9.28.16-13.44-1.38-8.85-3.27-17.58-7.12-24.11-14.32-1.68-1.85-.95.37-1.4.51-2.47.8-3.45-1.34-5-2.4-10.92-10-15.42-23-17.13-37.19-.22-1.83-.27-3.68,1.15-5.17,1.66-.29,3.56.6,5-1l37,0a1.07,1.07,0,0,1,.16.9c-2,2.07-4.63,1.24-7,1.48q-4.94,0-9.86,0c-3.1-.09-6.21.08-9.31,0-10.26-.36-10.51-.22-8.41,9.64,1.68,7.87,4.63,15.26,9.83,21.58,2,2.43,4,4.4,7.47,5.21,4,.94,7,4.4,10.35,6.74a46,46,0,0,0,22.08,8.23A4.3,4.3,0,0,1,89,152Z"/><path class="cls-197" d="M38,91a1.94,1.94,0,0,0-1.91,1c-3.52,2.14-7.34.61-11,.92,0-.94-.05-1.88-.08-2.81l13,.07C38.07,90.52,38.05,90.78,38,91Z"/><path class="cls-198" d="M16.06,63c-.32.7-.64,1.39-.95,2.09-2.23-1.67.19-3.36,0-5C16.24,60.77,16,61.93,16.06,63Z"/><path class="cls-199" d="M17.19,72.18c1.16.75.75,2,1,3.08-.11.9-.23,1.8-.35,2.69-1.49-1.43-.51-3.3-.88-4.93A3.93,3.93,0,0,1,17.19,72.18Z"/><path class="cls-200" d="M158.06,89.07a2.11,2.11,0,0,0-2,1l-39,.19a1.8,1.8,0,0,1-1.41.24,1.25,1.25,0,0,1-.57-1.89,3.17,3.17,0,0,1,2.92-1c4.77.26,9.54,0,14.3,0,4.06.12,8.12,0,12.17,0,1.61,0,3.23,0,4.84,0,5.71-.14,5.91-.45,5.38-5.85-.39-4-2.18-7.51-3.7-11.12-.61-2.79-.54-5.43,1.72-7.58a1.35,1.35,0,0,1,1.46-.07c5,6.69,6.68,14.54,7.67,22.6C162.24,88.68,159.64,88.29,158.06,89.07Z"/><path class="cls-111" d="M115.78,88.7c-.46.57-.17,1,.28,1.38,1,1.8,2.6,1.65,4.32,1.54a32.4,32.4,0,0,1,12.71,1.43c1.37.15,2.91-.4,4,1l-21.39-.87c-1.19,0-2.4,0-3,1.14-.84,1.51,1,1.77,1.43,2.74-1,.62-1.45,2.18-3,2a2.78,2.78,0,0,1-.84-1.08c-.46-1.75-1.15-3.56-.9-5.32.46-3.22,1.58-6.12,5.77-5.77A2.48,2.48,0,0,1,115.78,88.7Z"/><path class="cls-201" d="M133.09,93.05c-4.84.15-9.56-1.91-14.5-.63-1.29.33-2.44-.73-2.53-2.34l1,.16c2.55,1.71,5.41.65,8.12.8S130.76,91.19,133.09,93.05Z"/><path class="cls-202" d="M158.06,89.07c2.14-1.19,2.81-2.39,2.3-5.32-1.29-7.38-3.17-14.39-7.3-20.69-1.54-1.35-1.94-3.38-3-5-.54-.85-.9-2,0-2.71,1.17-.9,2.15.13,2.94.93,1.5,1.54,2.22,3.63,3.51,5.32.39.5.77,1.16,1.54.49a40.23,40.23,0,0,1,5.41,23.35c-.09,1.24-.92,2.42-1.41,3.63Z"/><path class="cls-181" d="M92.06,138.05c0,2,0,4,0,6A4.69,4.69,0,0,1,92.06,138.05Z"/><path class="cls-203" d="M89.05,56.07C71.86,59.68,57.23,73.46,58.16,85.79c3.71-8.59,8.2-16.53,17.16-20.87-7,6.76-14.09,13.46-14.25,24.14l-5,0c-1.58-1.2-3.57,0-5.19-.88-1.53-4.31.28-8.17,2-11.86,6.18-13.48,16.51-22.12,31-25.61,1.71-.42,3.57-1.09,5.21.34Z"/><path class="cls-204" d="M89,33.06v3c-4.55,2-9.57,2.46-14.18,4.32C55.33,48.26,42.43,61.82,38,82.74c-.28,1.28-.82,2.59.27,3.76.75.75,2.22,1,1.85,2.53l-5,0c-3.23-1.82-6-3.82-3-8a2,2,0,0,0,.28.41c.41.41.34.31.44-.14,6.19-26.1,26.71-45,53-48.9C87,32.25,88.06,32.16,89,33.06Z"/><path class="cls-205" d="M40.07,89c-.73-1.14-1.91-.93-3-1,.09-9.86,4.37-18.28,9.71-26.08,8.94-13.07,21.49-21,37-24.18,1.73-.35,3.56-1.21,5.24.27l0,3c-4.17,2.1-8.88,2.36-13.2,4.1C59.91,51.59,49.33,62.87,43.61,79,42.3,82.7,42.34,85.59,46,87.69a1.54,1.54,0,0,1,0,1.37Z"/><path class="cls-206" d="M69,31.06a2.13,2.13,0,0,1,2,1C59.76,35.92,50.53,42.9,43,51.89a70.88,70.88,0,0,0-14.93,30.5c-1.52-1.07-.73-2.31-1-3.32,3.85-18.48,14.85-32,30-42.41C60.68,34.18,64.32,31.38,69,31.06Z"/><path class="cls-167" d="M46.07,89.06v-1c.06-.23.13-.46.19-.69.7-1.22,1.22-2.82,3-2.69,2.11.15.76,2.49,1.85,3.37,1.69.25,3.61-.67,5,1Z"/><path class="cls-207" d="M89,33.06c-15.6,2-29.17,8.18-40,19.66-8.37,8.84-13,19.75-16.28,31.36-1.18-.83-.39-2-.64-3,.74-8.58,4.67-16,9.53-22.66C52.48,43.45,67.07,34.05,85.55,31.17A25.16,25.16,0,0,1,89,31.08C89,31.74,89,32.4,89,33.06Z"/><path class="cls-167" d="M46.07,88.07c-6.57-.13-5.12-4.17-4-8.13,6.24-22.07,27.22-38,47-38.86,0,1.66,0,3.33,0,5-1.67,1.58-3.91,1.75-6,2.3C65.22,53.15,53.42,64.11,48.36,82.07a19.38,19.38,0,0,1-2.28,6Z"/><path class="cls-208" d="M46.08,88.06c1.45-21.23,21.14-40.46,43-42,0,1.66,0,3.33,0,5-20.08,2.11-36.35,18.67-38,37C49.41,83.2,47.74,88.26,46.08,88.06Z"/><path class="cls-209" d="M89,38.07C75.6,39.67,63.75,45,54.3,54.53,45.16,63.79,39.74,75.3,37.07,88.06c-2.16-5.47.33-10.48,2.3-15.13C47.87,52.8,63.44,41,84.54,36.2A22.26,22.26,0,0,1,89,36.1Z"/><path class="cls-201" d="M115.12,87.06c-6.12,1.91-4.43,6.72-4.09,11-2.25,1.35-4.26,2.7-5.41,5.4s-3.17,2.62-4.82.06c1.29-2.46.77-5.47,2.92-7.78,1.82-2-2.94-2.42-1.66-4.68l.07-.14c2-1.13,5.51.61,6.28-2.56.8-3.32-2.54-4.47-4.36-6.44-1.59-1.71-4.51-2-5-4.85-1.14-2-3.81-.14-5-2,2-.11,5.21.92,3.13-3.19,2-1.37,3.87-.16,5.8.14a62.4,62.4,0,0,1,6.54,3.53C112.49,78.87,116.77,81.53,115.12,87.06Z"/><path class="cls-210" d="M102.06,91.09a13.65,13.65,0,0,0,2.06,2c2,1.25,5.4,2.23.08,3.7-1.18.33-1.11,1.87-1.13,3,0,1.48.13,3.07-2,3.24-1.44.87-3,.22-4.51.39-2,0-4.11,0-6.16,0-3.38.25-6.89,1-9.33-2.41-.4-1-1-1.83,0-3.09a79.38,79.38,0,0,0,7-9.48C90,85.31,92.87,86.61,95.42,86c3.47-.87,4.69.73,5.46,3.58C101,90.13,101.65,90.58,102.06,91.09Z"/><path class="cls-211" d="M99.05,77.1c3.53,2.07,7,4.29,9.59,7.49.85,1.07,3.35,2.41,1.3,4.56-1.6,1.68-3.14,3.57-5.92,2.39a19.7,19.7,0,0,0-1.89-.58c.28-3.78-.84-6.66-4.77-8-2-.66-3.09-1.88-1.31-3.92,1,.11,1.66.92,2.58,1.41-.75-1-1.81-1.5-2.53-2.38C96.78,76.86,98,77.11,99.05,77.1Z"/><path class="cls-212" d="M81.86,91.12c-2.19-.13-3.75-.74-3.75-2.82,0-2.84,2.62-2.72,4.32-3C84,85,86,85.78,85.78,87.91,85.55,90.24,83.67,91,81.86,91.12Z"/><path class="cls-213" d="M87.08,107.06c-.12,1.39-1.22,2.59-2.17,1.69-3-2.83-7.45-4.21-8.81-8.68,2.09-.41,3.4,1.09,5,2,2.09.12,3.48,1.61,5.15,2.57A3.2,3.2,0,0,1,87.08,107.06Z"/><path class="cls-183" d="M86.07,105.08c-2.13-.24-3.51-1.72-5-3,0-.34,0-.68,0-1,2.9,1.18,5.84,2,9,1.06C89.79,104.53,88.32,105.33,86.07,105.08Z"/><path class="cls-25" d="M96.1,78.09a10.34,10.34,0,0,1,5.56,2.71c-3.31,1.72-3.31,1.72-5.61-1.74C96.05,78.74,96.07,78.41,96.1,78.09Z"/><path class="cls-214" d="M103.25,72.93c-2.15.44-4-.84-6.06-1a2.31,2.31,0,0,0-.29-.77q.09-24,.17-48.07a1,1,0,0,1,1.4.19,4.92,4.92,0,0,1,.8,2.25c.17,1.6.12,3.21.15,4.82,0,1.9,0,3.79,0,5.69,0,1.38,0,2.76,0,4.14,0,2,0,3.91,0,5.86,0,1.68.06,3.36,0,5s.05,3.32,0,5a27.27,27.27,0,0,1,0,3.94C99,64.8,99.5,69.33,103.25,72.93Z"/><path class="cls-215" d="M97.83,23.19l-.76-.13.12-2.94c3.38-.61,6.54,1.06,9.87,1,1.91.83,4.13.76,5.85,2.1C110.17,26.17,104.94,26.17,97.83,23.19Z"/><path class="cls-178" d="M113.84,104.94l1.2,0c-1.89,2.17-2.31,5.83-6.14,6Z"/><path class="cls-178" d="M117,99.05c2.46-2,5.35-.58,8-1,.33.23.44.45.33.67s-.22.33-.33.33Z"/><path class="cls-177" d="M125.06,99.06v-1h5v1h-5Z"/><path class="cls-216" d="M89.1,116c0,3,0,6,0,9-2.76,2-5.09.54-7.16-1.12-2.47-2-5.48-3.1-8-4.83-5.85-4.11-11.79-8.46-14.43-15.65-.59-1.58-.84-3.22.5-4.64a15.49,15.49,0,0,1,4-.24c2.85.28,6.23-1.14,8.06,2.47,2.82,5.75,6.21,11,12.74,13.1Z"/><path class="cls-217" d="M97.09,102.18a6.1,6.1,0,0,1,4,.85c1.63,1.59,3.47,2.73,3.89-.68.48-4,2.77-4.66,6.07-4.26,0,.32,0,.65,0,1-1,1.88-1.84,3.78-2.85,5.63-2.09,3.82-5.63,4.33-9.15,1.39C97.49,105.24,96.44,104.13,97.09,102.18Z"/><path class="cls-218" d="M97.09,102.18l2,3.9c-3.86,2-7.93,1.4-12,1a2,2,0,0,1-1-2l4-3Z"/><path class="cls-219" d="M72.12,101.05c-2.33-2.1-5.16-2.17-8.06-2-.32-.23-.43-.45-.32-.68S64,98,64.06,98L71.21,98C72.27,98.79,72.2,99.92,72.12,101.05Z"/><path class="cls-220" d="M29.09,98.08c.31,16.16,5.44,30.37,17,42a.7.7,0,0,1,.31.76c-.08.26-.17.39-.26.39-1.73.33-2.7-.72-3.57-2,.6,1.34,2.11,2,2.62,3.34.74,2,.51,3.26-2.09,2.47-8-7.92-12.83-17.75-17-28-.48-4.58-.46-9.28-1.55-13.7C23.38,98.74,25,97.59,29.09,98.08Z"/><path class="cls-221" d="M43.08,145.05c2.78-.48,1.62-1.75.55-2.91-1.41-1.52-3-2.88-3.27-5.79l5.71,4.71c3.59,2.61,7,5.49,10.48,8.22,1.21.94,3.06,1.6,2.52,3.77-2.57-.2-4.36-1.85-6-3.4-2.21.79,2.58,3-1,3.4Z"/><path class="cls-222" d="M89,152c-13.06.74-23.29-5.85-32.65-13.61-2.45-2-4.94-.41-7-2.44-9.47-9.3-13.54-20.94-15.25-33.68-.38-2.87,1-4.38,4-4.25,2,.08,4,0,6,0A1.05,1.05,0,0,1,44,99.37c-2.43,1-3.38,2.4-3,5.33a49.2,49.2,0,0,0,9.59,23.68c.26.34,0,1.23,1,1,4-.9,4.1-1,6.32,1.42,7.18,7.75,16.26,11.82,26.39,13.91,1.78.37,3.69.37,4.64,2.34Z"/><path class="cls-223" d="M89,147C79.8,145.1,70.62,143,63,137c-3.46-2.71-6.54-5.9-9.88-8.94-1.68,2.41,1.47,2.87,1,5-7.47-5.27-10.38-13.05-13-20.94-.81-2.46-.42-5.34-1.31-7.76-1.65-4.49,0-5.79,4.21-5.29,1.79,1.1,2.19,2.94,2.19,4.77,0,6.67,3.38,12.07,6.33,17.64A6.9,6.9,0,0,0,54.94,124c10,6.45,19.66,13.48,31.91,15.13,1.08.15,1.65,1,2.19,1.9C89,143,89,145,89,147Z"/><path class="cls-224" d="M89,141c-6.4-.71-12.14-3.76-18.37-5.17-3.86-.88-6.84-3.86-9.51-6.78a7.3,7.3,0,0,0-3-2.44c-10-3.12-10.52-12.43-12.92-20.32-.68-2.23-.51-4.87-1.15-7.27,0-.33,0-.65,0-1l10,0c-3.9,5.29-3,12.92,2.17,18.21,6,6.14,12.56,11.55,20.6,15.09,4,1.75,8.43,1.6,12.24,3.7C89.06,137.05,89.05,139.05,89,141Z"/><path class="cls-225" d="M89.08,135.06c-11.87-.56-21.33-5.53-29.48-14.28-3.46-3.73-7.6-6.59-8.71-11.9-.51-2.42-1-4.83-1.49-7.26-.77-4.21,3.86-1.39,4.67-3.56l10,0v1h-4c-4.28,3-4.92,7.24-1.25,11.67a56.38,56.38,0,0,0,14.7,12.34c5,3,10.55,4.31,15.58,7C89.09,131.73,89.08,133.39,89.08,135.06Z"/><path class="cls-219" d="M89.1,130.06c-13.33-1.51-23-9.38-31.66-18.66-2.35-2.51-2.69-6.34-2.35-9.94s3.13-2,5-2.4c.43,4.72,1.47,9,6.34,11.33.8.38,1.33,1.4,1.92,2.17,2.32,3,4.76,5.84,8.85,6.4,1.8.24,2.9,1.54,4,2.75,2.14,2.32,4.65,3.67,7.89,3.35C89.09,126.73,89.09,128.4,89.1,130.06Z"/><path class="cls-226" d="M59.07,153.05c-4-4.33-9.79-6.77-13-12v-1l3.23,2.38c1.46-1.56-1.8-2.19-.48-3.87C60,149.67,73.26,156.46,89,158c.72,4.81-1.49,5.56-5.75,4.67A69.34,69.34,0,0,1,59.07,153.05Z"/><path class="cls-227" d="M158.05,62.07c-.57,2-.48,1.91-1.56,1.1-2.58-1.94-2.79-5.8-6.52-8,1.2,3.26,3.52,5.1,3.09,7.92v0c-1.26.39-1.89-.52-2.34-1.35-6.4-11.5-16.5-18.89-27.73-25-.94-2.32-2.7-4.36-2.58-7.07,5.32-.73,8.73,2.95,12.65,5.46C143.64,42,152.46,50.54,158.05,62.07Z"/><path class="cls-228" d="M133.05,35.08c-4.67-.78-8.07-4.88-13-5-7.48-1.1-14.94-2.25-22-5-.06-.62-.12-1.25-.19-1.87,4.76-.8,9.36,2,14.45.53l-5.22-2.63c7.84.74,15,3.54,22,7C131.8,29.61,131.86,32.67,133.05,35.08Z"/><path class="cls-229" d="M98,36.07l.08-6c7.21-1.38,13.68,1,20,4,2.2,3.93,6,6,9.71,8.15a53.79,53.79,0,0,1,23.73,28.38c1.29,4.58,2.47,9.1,2.36,14-.07,3.08-1.42,3.94-3.84,4.42h-5c4.19-7.4-.54-13.85-2.84-20.15-3.44-9.42-11.33-15.31-18.87-21.76S106.86,38.72,98,36.07Z"/><path class="cls-172" d="M98,36.07c6.83-.75,14.12.73,18.83,4.48,9.3,7.42,20.52,13.25,25.49,25.38a95.15,95.15,0,0,1,5.77,17.68c.54,2.72-.76,4.32-3,5.43h-13c-.17-1.49,1-1.71,2-2.06a25.69,25.69,0,0,1,4.64-.24c2.69.18,3.86-1.17,2.93-3.63-4.17-11-8.4-21.65-18.09-29.55-7.13-5.81-14.49-10.28-23.45-12.11a4.61,4.61,0,0,1-2-1.38C98,38.73,98,37.4,98,36.07Z"/><path class="cls-230" d="M134.06,88.07a2.15,2.15,0,0,0-2,1c-5-.53-10.12,1.26-15-1l.48-.52c2.16-1.4,5.51.43,7-1.77s-1.9-3.66-2.31-6a21.16,21.16,0,0,0-9.31-14.16C108,62.4,103.92,57.73,98,56.07c0-1.67,0-3.33,0-5,2.73-2.1,5.51-1,7.91.37C112,55,119,57.6,122.94,63.86,127.64,71.42,133.81,78.42,134.06,88.07Z"/><path class="cls-231" d="M151.05,70.07c-3.72-4.4-5.85-9.79-9.39-14.4-5.23-6.8-12.2-11.13-19.23-15.23-2.59-1.51-3.23-3.34-4.37-5.37,2.09-1.78,3.45.1,5,1A56.82,56.82,0,0,1,151.37,60.7c.49.84,1.12,1.59,1.68,2.38.08,2.39-2.15,4.45-1,7C151.72,70.54,151.39,70.56,151.05,70.07Z"/><path class="cls-232" d="M151.05,70.07h1a51.09,51.09,0,0,1,4.17,12.41c1,5.7-1.55,6.8-6.18,6.56,4.65-2.07,1.87-6.16,2.25-9.24S150.75,73.43,151.05,70.07Z"/><path class="cls-230" d="M115.12,87.06c-.24-4.67-3.76-7.5-6.17-11,5.44-.19,9.26,5.4,8.15,11.92l0,0-1.27.62Z"/><path class="cls-233" d="M117.1,88c-1.21-5-2.31-10.09-8.15-11.92-2.5,0-3.75-2.21-5.7-3.18-7-1.35-5.36-6.83-5.44-11.44,0-1.81.13-3.61.21-5.42,3.73-.32,6.63.66,8.92,4,1.86,2.72,5.94,2.79,8.12,5.45,3.75,4.58,8.58,8.55,8.39,15.3a1,1,0,0,0,.41.82c2.18,1,3.88,2.54,2.64,5s-3.86,1.21-5.92,1.4A33.67,33.67,0,0,1,117.1,88Z"/><path class="cls-234" d="M95,101.08c-2.3-.09-4.09-.92-6.17-.29a2.07,2.07,0,0,1-2.6-2.63c1-2.62.84-6.34,3.81-7.5s6.06-3.76,9.48-.51c2.9,2.74,2.7,5.86,1.45,9.08S96.42,99.22,95,101.08Z"/><path class="cls-235" d="M106.43,86.53c.77,2.39.41,3.55-1.41,3.42-3.8-.26-.14-4.12-2.49-5.42-.7-.39.07-1.91,1.3-1.84C106.93,82.86,106.28,85.46,106.43,86.53Z"/><path class="cls-167" d="M98,40.07c9.87,1.29,17.91,5.74,25.76,12.06,10.48,8.43,15.07,19.69,19.29,31.56,1.42,4-.53,4.88-4,4.37-2-1-2.31-3.07-3.05-4.93-4.26-10.63-9-20.48-19.19-27.53-6-4.17-12.26-6.91-18.81-9.53Z"/><path class="cls-225" d="M98,46.07c7,.28,13.39,2.13,17.95,7.83,1.79,2.24,4.74,2.07,6.66,4.13a63.45,63.45,0,0,1,14.57,24.9c.54,1.74,1.24,3.42,1.87,5.13h-5c-1.59-7.74-6.47-14-9.94-20.84-2.78-5.47-8.39-9.31-14.25-12.13-3.82-1.83-7.19-4.79-11.87-4C98,49.4,98,47.74,98,46.07Z"/><path class="cls-236" d="M123.06,36.07l-5-1c-6.37-2.85-13.23-3.75-20-5,0-1.67,0-3.34,0-5,7.59.59,15.08,1.62,22,5C122.56,31.32,123.88,33.16,123.06,36.07Z"/></g></g></svg>