<svg xmlns="http://www.w3.org/2000/svg" viewBox="0 0 185.14 186.96"><defs><style>.cls-1{fill:#fdfdfd;}.cls-2{fill:#584124;}.cls-3{fill:#624b29;}.cls-4{fill:#614926;}.cls-5{fill:#563e1e;}.cls-6{fill:#5f4b25;}.cls-7{fill:#493822;}.cls-8{fill:#5e4822;}.cls-9{fill:#694d2c;}.cls-10{fill:#624622;}.cls-11{fill:#4e3920;}.cls-12{fill:#6a5126;}.cls-13{fill:#5d492a;}.cls-14{fill:#74582d;}.cls-15{fill:#70542b;}.cls-16{fill:#6c5025;}.cls-17{fill:#755a2f;}.cls-18{fill:#928146;}.cls-19{fill:#3b3023;}.cls-20{fill:#75572b;}.cls-21{fill:#7b5f30;}.cls-22{fill:#b49964;}.cls-23{fill:#72542f;}.cls-24{fill:#d3c38b;}.cls-25{fill:#71632f;}.cls-26{fill:#b5aa73;}.cls-27{fill:#936f40;}.cls-28{fill:#836138;}.cls-29{fill:#987443;}.cls-30{fill:#4f4021;}.cls-31{fill:#785732;}.cls-32{fill:#735530;}.cls-33{fill:#372e25;}.cls-34{fill:#aa8851;}.cls-35{fill:#9c7845;}.cls-36{fill:#b09059;}.cls-37{fill:#906d3e;}.cls-38{fill:#87673b;}.cls-39{fill:#b08f59;}.cls-40{fill:#382e24;}.cls-41{fill:#816239;}.cls-42{fill:#d5c68a;}.cls-43{fill:#997746;}.cls-44{fill:#8a6a3d;}.cls-45{fill:#d7c68f;}.cls-46{fill:#a2844d;}.cls-47{fill:#cbb179;}.cls-48{fill:#b7ab70;}.cls-49{fill:#755c33;}.cls-50{fill:#d0be88;}.cls-51{fill:#755732;}.cls-52{fill:#9e7c49;}.cls-53{fill:#c3a770;}.cls-54{fill:#85683a;}.cls-55{fill:#8f6c3f;}.cls-56{fill:#bdaa6f;}.cls-57{fill:#4b3922;}.cls-58{fill:#c9b681;}.cls-59{fill:#7c6039;}.cls-60{fill:#a89c5e;}.cls-61{fill:#382d22;}.cls-62{fill:#6f532f;}.cls-63{fill:#7a5834;}.cls-64{fill:#a89e62;}.cls-65{fill:#9e9254;}.cls-66{fill:#342a21;}.cls-67{fill:#7e612f;}.cls-68{fill:#342b22;}.cls-69{fill:#846338;}.cls-70{fill:#796c2d;}.cls-71{fill:#a79b5c;}.cls-72{fill:#312821;}.cls-73{fill:#c3b477;}.cls-74{fill:#75652a;}.cls-75{fill:#4d3d26;}.cls-76{fill:#9b7846;}.cls-77{fill:#826038;}.cls-78{fill:#493827;}.cls-79{fill:#7c5216;}.cls-80{fill:#392e23;}.cls-81{fill:#c0b372;}.cls-82{fill:#7a5a34;}.cls-83{fill:#a49859;}.cls-84{fill:#513d23;}.cls-85{fill:#bfb174;}.cls-86{fill:#ddcc95;}.cls-87{fill:#e2d49a;}.cls-88{fill:#c7bb7d;}.cls-89{fill:#ada261;}.cls-90{fill:#c5b87c;}.cls-91{fill:#b1a568;}.cls-92{fill:#a5854f;}.cls-93{fill:#3c2f19;}.cls-94{fill:#463b30;}.cls-95{fill:#d1ba85;}.cls-96{fill:#2f2a27;}.cls-97{fill:#2b2211;}.cls-98{fill:#795a35;}.cls-99{fill:#795a34;}.cls-100{fill:#947341;}.cls-101{fill:#6c5736;}.cls-102{fill:#493f33;}.cls-103{fill:#50473c;}.cls-104{fill:#8b683c;}.cls-105{fill:#805f36;}.cls-106{fill:#967444;}.cls-107{fill:#8f6f43;}.cls-108{fill:#c1b676;}.cls-109{fill:#ac9e60;}.cls-110{fill:#908546;}.cls-111{fill:#685930;}.cls-112{fill:#7d5c35;}.cls-113{fill:#ac8952;}.cls-114{fill:#c1b674;}.cls-115{fill:#906d40;}.cls-116{fill:#b4a668;}.cls-117{fill:#7b5f37;}.cls-118{fill:#88673c;}.cls-119{fill:#a1814c;}.cls-120{fill:#715f36;}.cls-121{fill:#39322b;}.cls-122{fill:#c8ab73;}.cls-123{fill:#3e3b35;}.cls-124{fill:#453c32;}.cls-125{fill:#c7ba7d;}.cls-126{fill:#564c3d;}.cls-127{fill:#c9b47c;}.cls-128{fill:#a78750;}.cls-129{fill:#8f783d;}.cls-130{fill:#ddcd96;}.cls-131{fill:#d2bc83;}.cls-132{fill:#bd9c63;}.cls-133{fill:#987645;}.cls-134{fill:#342e28;}.cls-135{fill:#b99960;}.cls-136{fill:#cfb57e;}.cls-137{fill:#926f40;}.cls-138{fill:#816137;}.cls-139{fill:#42331e;}.cls-140{fill:#86703f;}.cls-141{fill:#ad8b52;}.cls-142{fill:#d8c68f;}.cls-143{fill:#8f8b7b;}.cls-144{fill:#856239;}.cls-145{fill:#453c33;}.cls-146{fill:#654b2b;}.cls-147{fill:#ada161;}.cls-148{fill:#302613;}.cls-149{fill:#564723;}.cls-150{fill:#b2a065;}.cls-151{fill:#40341a;}.cls-152{fill:#4e3e1f;}.cls-153{fill:#87683f;}.cls-154{fill:#504320;}.cls-155{fill:#e6dca6;}.cls-156{fill:#9a824f;}.cls-157{fill:#3d3218;}.cls-158{fill:#ab8c56;}.cls-159{fill:#3e372e;}.cls-160{fill:#7f623c;}.cls-161{fill:#7a5f34;}.cls-162{fill:#baac71;}.cls-163{fill:#765531;}.cls-164{fill:#3e301c;}.cls-165{fill:#8b6d40;}.cls-166{fill:#dace91;}.cls-167{fill:#cdb67f;}.cls-168{fill:#9b9788;}.cls-169{fill:#7a5d35;}.cls-170{fill:#d2c791;}.cls-171{fill:#292624;}.cls-172{fill:#685d4a;}.cls-173{fill:#7e5f39;}.cls-174{fill:#8c8778;}.cls-175{fill:#5d5b53;}.cls-176{fill:#997544;}.cls-177{fill:#7c5e39;}.cls-178{fill:#3a2d1c;}.cls-179{fill:#c4aa68;}.cls-180{fill:#514e46;}.cls-181{fill:#57442c;}.cls-182{fill:#948f81;}.cls-183{fill:#98958b;}.cls-184{fill:#302a26;}.cls-185{fill:#483d31;}.cls-186{fill:#443420;}.cls-187{fill:#424039;}.cls-188{fill:#48453e;}.cls-189{fill:#49463f;}.cls-190{fill:#4d4b44;}.cls-191{fill:#7b5b35;}.cls-192{fill:#9e7b48;}.cls-193{fill:#999485;}.cls-194{fill:#979488;}.cls-195{fill:#bfa269;}.cls-196{fill:#544a3e;}.cls-197{fill:#453d32;}.cls-198{fill:#39322d;}.cls-199{fill:#ada998;}.cls-200{fill:#b9b4a2;}.cls-201{fill:#8c8879;}.cls-202{fill:#a19d8f;}.cls-203{fill:#bebbb0;}.cls-204{fill:#cac5b4;}.cls-205{fill:#6f5230;}.cls-206{fill:#4d3c26;}.cls-207{fill:#a19f95;}.cls-208{fill:#9c988a;}.cls-209{fill:#534737;}.cls-210{fill:#3e372f;}.cls-211{fill:#9f7d47;}.cls-212{fill:#e1dac5;}.cls-213{fill:#c3beac;}.cls-214{fill:#afab9b;}.cls-215{fill:#d8d1bc;}.cls-216{fill:#d1cbb7;}.cls-217{fill:#896b44;}.cls-218{fill:#cbc5b2;}.cls-219{fill:#745735;}.cls-220{fill:#8d6a3e;}.cls-221{fill:#927349;}.cls-222{fill:#9b8e76;}.cls-223{fill:#4c3c25;}.cls-224{fill:#5b4427;}.cls-225{fill:#7f5d36;}.cls-226{fill:#947142;}.cls-227{fill:#908470;}.cls-228{fill:#9d998a;}.cls-229{fill:#a28456;}.cls-230{fill:#5d4a2f;}.cls-231{fill:#a6a394;}.cls-232{fill:#c1bcab;}.cls-233{fill:#b6b09d;}.cls-234{fill:#806440;}.cls-235{fill:#392e1f;}.cls-236{fill:#705434;}.cls-237{fill:#7c6343;}.cls-238{fill:#473824;}.cls-239{fill:#574d3d;}.cls-240{fill:#a9a594;}.cls-241{fill:#b0ab9a;}.cls-242{fill:#adaba0;}.cls-243{fill:#d3cdb9;}.cls-244{fill:#694e2d;}.cls-245{fill:#ebe3cb;}.cls-246{fill:#56534c;}.cls-247{fill:#3c2e1a;}.cls-248{fill:#624b2c;}.cls-249{fill:#b29459;}.cls-250{fill:#c6aa63;}.cls-251{fill:#eae4cc;}.cls-252{fill:#a1804f;}.cls-253{fill:#a78854;}.cls-254{fill:#e3dcc6;}.cls-255{fill:#ddd7c1;}.cls-256{fill:#dacfad;}.cls-257{fill:#a29e8f;}.cls-258{fill:#a9a79c;}.cls-259{fill:#bcb8a7;}.cls-260{fill:#b1ac9a;}.cls-261{fill:#483b29;}.cls-262{fill:#4e4c45;}.cls-263{fill:#58462e;}.cls-264{fill:#ccc9be;}.cls-265{fill:#c2beb1;}.cls-266{fill:#c4bfab;}.cls-267{fill:#d2cec0;}.cls-268{fill:#b4b2a8;}.cls-269{fill:#aba89d;}.cls-270{fill:#d5ceba;}.cls-271{fill:#d9d5c5;}.cls-272{fill:#a9a595;}.cls-273{fill:#e8e1c9;}.cls-274{fill:#604c32;}.cls-275{fill:#6c5334;}.cls-276{fill:#b8b3a2;}.cls-277{fill:#bdb7a4;}.cls-278{fill:#cac5b2;}.cls-279{fill:#dad4bf;}.cls-280{fill:#e1dbc5;}.cls-281{fill:#c1bca9;}.cls-282{fill:#e6e0ca;}.cls-283{fill:#a6824b;}.cls-284{fill:#62492a;}.cls-285{fill:#a7844c;}.cls-286{fill:#6b502e;}.cls-287{fill:#997443;}.cls-288{fill:#a48e64;}.cls-289{fill:#b4af9f;}.cls-290{fill:#adaa9f;}.cls-291{fill:#d9d5c6;}.cls-292{fill:#7f613c;}.cls-293{fill:#3e2e1a;}.cls-294{fill:#302516;}.cls-295{fill:#6e5230;}.cls-296{fill:#7e5d36;}.cls-297{fill:#926e40;}.cls-298{fill:#8c7352;}.cls-299{fill:#aaa696;}.cls-300{fill:#cac4b2;}.cls-301{fill:#b7b2a1;}.cls-302{fill:#c4bfaa;}.cls-303{fill:#a49982;}.cls-304{fill:#cdc7b3;}.cls-305{fill:#775b38;}.cls-306{fill:#d2cdbb;}.cls-307{fill:#b7b3a6;}.cls-308{fill:#e5dec9;}.cls-309{fill:#bab5a2;}.cls-310{fill:#bfbbae;}.cls-311{fill:#bbb7ad;}.cls-312{fill:#291e10;}.cls-313{fill:#887b66;}.cls-314{fill:#bbab82;}.cls-315{fill:#d1bb72;}.cls-316{fill:#ede9d9;}.cls-317{fill:#503e26;}.cls-318{fill:#b5b2a7;}.cls-319{fill:#dad3bf;}.cls-320{fill:#e2dbc4;}.cls-321{fill:#dcd5bf;}.cls-322{fill:#e3dbc4;}.cls-323{fill:#836948;}.cls-324{fill:#d1cbb8;}.cls-325{fill:#e9e2cb;}.cls-326{fill:#958e7c;}</style></defs><g id="Layer_2" data-name="Layer 2"><g id="Layer_6_Image" data-name="Layer 6 Image"><path class="cls-1" d="M80,1.87,81,0h23l1,1.91c-1.57,1.82-3.76,1.21-5.73,1.44-.72,0-1.43.15-2.14.2C94.75,3.42,92.49,1.69,90,3a12.57,12.57,0,0,1-5,.31C83.22,3.17,81.31,3.53,80,1.87Z"/><path class="cls-2" d="M53,177c-.86-.12-1.75-.16-2.23-1.07-1.11-.93-2.81-.69-3.78-1.91L43.78,172A17.27,17.27,0,0,1,37,167.14l-1.84-1.26c-4.47-2.8-8.65-5.91-11.2-10.72l-.12-.18a10.53,10.53,0,0,1-4.62-5.19v0a2.55,2.55,0,0,1-1.56-2.67A2.41,2.41,0,0,1,19,145.66a3.06,3.06,0,0,1,2.5.89,8.18,8.18,0,0,1,1.35,1.53c2.45,3.58,5.86,6.27,8.83,9.36,4,4.43,9.08,7.5,13.89,10.91A58.88,58.88,0,0,0,56.32,174c1.73.68,3.4,1.5,5.18,2,2.81,1.32,5.88,1.9,8.75,3,1.75.86,3.85.4,5.55,1.46a1.47,1.47,0,0,1,.47,1.3c-.73,1.22-2,1.23-3.21,1.48a1.84,1.84,0,0,1-2-.4h0c-2.37-.49-5,.26-7-1.78-1.06-.4-2.47.23-3.21-1.11-.84-.57-2.1,0-2.78-1L58,179A9,9,0,0,1,53,177Z"/><path class="cls-2" d="M121.89,6.21c.39.94,1.21,1,2,1,4.27.23,7.7,2.42,11,4.8l.05,0a30.88,30.88,0,0,1,12.86,8.09h0c4.37,2.57,8.36,5.56,11,10l.94,1c2.67,1.19,3.77,3.7,5.08,6l.88,1.55c1,1.19.93,2.09-.62,2.66-5.28-2.45-7.17-8.41-11.88-11.45-1.8-2-4.14-3.43-6.14-5.23-6.39-5-13.1-9.38-20.9-11.86a8.08,8.08,0,0,1-1.76-1.06c-1.34-1.37-3.16-1.49-4.89-1.84-1.81-.52-3.47-1.5-5.4-1.59-2.27-.81-5.3-.11-6.41-3.22,1.16-1.43,3-.81,4.4-1.38C115.4,4.69,119.13,3.61,121.89,6.21Z"/><path class="cls-3" d="M34.82,21C35.2,20,36.2,20,37,19.8c2.39-2.32,4.8-4.59,8.12-5.55a1.07,1.07,0,0,0,.89-.38c1.06-1.94,3.26-1.93,4.92-2.85l.12,0c2-1.82,4.49-2.44,7-2.94A4.94,4.94,0,0,0,59,7.85a2,2,0,0,1,1.35,2,5.06,5.06,0,0,1-1.81,1.78,10.47,10.47,0,0,1-1.63,1.08,8.89,8.89,0,0,1-1.23.52c-3.27,1.56-7,2.36-9.26,5.53-1.24,1.78-3.22,2.42-5.06,3.27-3.16,1-4.36,4.55-7.44,5.62a11.78,11.78,0,0,0-4,4.18,11,11,0,0,1-.79,1.14c-2.74,2.84-5.25,5.89-7.92,8.79-1.43,1.54-3.66,3.73-4.78-.53a6,6,0,0,1,2.76-4.06h0C23.12,30.53,28.76,25.56,34.82,21Z"/><path class="cls-4" d="M168.06,144,167,147c-.5,1.1-.64,2.45-2.05,2.91h0c-1.59,2.67-2.93,5.57-6,7v0c-.68,1.31-1.35,2.62-3,3l0,0c-4.86,5.37-10.18,10.12-17,12.87-.8.08-1.66.07-2,1.08-1.5,2-3.71,2.54-6,3.07l-5,2.17a1.26,1.26,0,0,1-1.27.12,2.09,2.09,0,0,1-1-1.7c.36-1.23,1.39-1.78,2.38-2.37a62.76,62.76,0,0,0,11.33-5.88c2.6-1.64,5.41-2.93,7.76-5,1.09-1.09,1.93-2.44,3.26-3.29a30.9,30.9,0,0,0,6.9-5.57c1.41-1.42,2.37-3.24,4-4.49,2.82-2,3.88-5.54,6.82-7.39A1.84,1.84,0,0,1,168.06,144Z"/><path class="cls-5" d="M3.84,67,5,63a14,14,0,0,1,2.82-7L9,54c.64-.8.33-2.69,2.28-2A3.6,3.6,0,0,1,12,53.32a6.15,6.15,0,0,1,.15,1.54C10.2,61.94,7.1,68.67,5.9,76a3.09,3.09,0,0,1-2.69,2.55A2.23,2.23,0,0,1,1.71,78a3.89,3.89,0,0,1,.37-3.91l0,0c.54-.93-.18-2.18.75-3L3,70A4.4,4.4,0,0,1,3.84,67Z"/><path class="cls-6" d="M180.11,66l.06,1c.59,1,1.51,1.93.83,3.27a2.8,2.8,0,0,1-2.08.48,3.27,3.27,0,0,1-1.26-.64c-1.81-2.64-1.87-5.89-3-8.77-.78-1.95-1.64-3.24-3.87-1.71a2.58,2.58,0,0,1-3.15-1c-.48-2.46,1.41-3.91,2.45-5.73.72-.9,1.34-1.92,2.55-2.27a1,1,0,0,1,1.05.66l0,0c2,1.56,3.39,3.47,3.11,6.19.29.91-.2,2.13,1.06,2.65A7.21,7.21,0,0,1,180.11,66Z"/><path class="cls-7" d="M1.17,104.68C-.88,98,.53,91,.13,84.22a3.7,3.7,0,0,1,2.43-1.58,1.66,1.66,0,0,1,1.15.9c.18,5.41.3,10.82.16,16.23a7.72,7.72,0,0,1-.1,3.76,3.16,3.16,0,0,1-1.47,1.69A.76.76,0,0,1,1.17,104.68Z"/><path class="cls-8" d="M108.76,183.85,105,185a41.11,41.11,0,0,1-14.94,1.11c-1.23-2.3.65-2.87,2.08-3.53,1.93-.89,4-1.51,5.4-3.24a5.35,5.35,0,0,1,1.38-1.61c1-.36,2.49-.14,2.34.88-.53,3.59,2.15,2.24,3.68,2.67,1.38.38,2.85.53,4,1.45A.72.72,0,0,1,108.76,183.85Z"/><path class="cls-1" d="M18,147l1.22,2.79a26.38,26.38,0,0,1-10-12.21c-.62-1.5-2.76-3.58-.87-5.77a1.49,1.49,0,0,1,1.2.18,28.13,28.13,0,0,1,2.63,2.82c1.23,2.08,1.54,4.6,3.13,6.51.46.72.87,1.48,1.33,2.2A5.9,5.9,0,0,1,18,147Z"/><path class="cls-1" d="M89.85,185.3C94.94,187,99.92,183.69,105,185a4.8,4.8,0,0,1-3.83,2q-8.64.12-17.29,0A5,5,0,0,1,80,185c1.67-1.77,3.86-1.27,5.92-1.38C87.44,183.71,89,183.78,89.85,185.3Z"/><path class="cls-1" d="M34.82,21,19.16,37.14C22.07,29.51,27.78,24.61,34.82,21Z"/><path class="cls-9" d="M183.84,100l-.13,2.84-.24,1.38c-.41,2.11,0,4.3-.66,6.39-1,1.37.84,3.79-1.7,4.6-1.44-1.11-1.51-2.82-1.9-4.39-.05-2.47.65-4.91.41-7.4.23-5.76-.5-11.54.43-17.28a3,3,0,0,1,1-1.33,1.3,1.3,0,0,1,1.41.52c1,3.14.24,6.4.52,9.59C183.15,96.59,182.39,98.47,183.84,100Z"/><path class="cls-1" d="M138.91,172.78l17-12.87c-1,5.67-6.72,6.64-10.07,10C144.18,171.56,142.3,174.45,138.91,172.78Z"/><path class="cls-1" d="M10.94,52,9,54c-1.32-6.28,2.4-9.87,6.93-13l.49.56C16.14,45.8,13.48,48.89,10.94,52Z"/><path class="cls-10" d="M60,10c-.35-.71-.71-1.41-1.07-2.11l3.06-1c.88-1.7,2.62-1.39,4.08-1.74h0c2.05-1,4.4-.76,6.51-1.52a1.09,1.09,0,0,1,.79,1.12c-.74,2.49-3.66,2.23-5,4a7.72,7.72,0,0,1-4.08,1.64C62.86,10.33,61.36,11.19,60,10Z"/><path class="cls-11" d="M183.84,100c-1.8.84-1.87-.26-1.86-1.6,0-4.46,0-8.92,0-13.38,1.91-.51,1.19,1.39,1.85,2Z"/><path class="cls-1" d="M183,103a1.69,1.69,0,0,1,.7-.18c.13.1.32.18.37.31,1.61,4-.62,13.64-3.89,16.87-1.24-.92-.69-2.06-.39-3.16a2.87,2.87,0,0,1,1.28-1.6c1.17-1.46,1.11-3.16,1-4.88C183.22,108,181.75,105.31,183,103Z"/><path class="cls-12" d="M172.8,139.88a3.46,3.46,0,0,0-.78.09c-1.51.39-1.57-.76-1.81-1.71a37.55,37.55,0,0,1,.65-4.34,9.06,9.06,0,0,1,1.31-3.35c1.42-1.47,1.13-4.3,3.78-4.8a2.94,2.94,0,0,1,1.41,2.43c-.79,2.74-.93,5.78-3.56,7.65h0C173.38,137.18,174.55,138.89,172.8,139.88Z"/><path class="cls-1" d="M108.76,183.85a5.9,5.9,0,0,1,.45-.82c1-1.33,2.63-1.41,4-2,4-.34,7.51-3.09,11.72-2.22l1,.25C121,183.42,115.07,184.32,108.76,183.85Z"/><path class="cls-13" d="M4.16,120.59A.4.4,0,0,0,4,120a5.07,5.07,0,0,1-1-3l-.18-1c-.72-.9-.43-2-.51-3s-.4-2.64.92-2.84c1.9-.29,1.75,1.86,2.54,2.92a15.41,15.41,0,0,1,1,2c.49,2.09,1.44,4.12,1,6.36-.86.84.06,3-2.09,2.91C3.83,123.61,4.93,121.74,4.16,120.59Z"/><path class="cls-1" d="M24,155.16l11.2,10.72C29.67,164.15,25.61,160.92,24,155.16Z"/><path class="cls-1" d="M147.89,20.1,135,12C139.6,11.84,146.09,15.92,147.89,20.1Z"/><path class="cls-1" d="M158.93,30.1l-11-10C153.12,21.73,157.33,24.48,158.93,30.1Z"/><path class="cls-1" d="M173.8,135.85l3.15-7.91c-.37-1.16.13-2.21.38-3.3.67-1.42.88-3.2,2.8-3.66.2.25.62.58.56.75C179,126.74,178.78,132.46,173.8,135.85Z"/><path class="cls-14" d="M6.33,123.91c.45-.56-.54-1.52.53-1.9a1,1,0,0,1,1.2-.34c1.8,1.67,2.27,3.92,2.67,6.19a5.31,5.31,0,0,1-.17,1.32A5.41,5.41,0,0,1,9,132a3.27,3.27,0,0,0-.66-.24A.88.88,0,0,0,8,131C7.06,128.7,4.49,126.82,6.33,123.91Z"/><path class="cls-15" d="M180.13,121q-1,2.17-2,4.35c-1.26-.74-1.53-2-1.87-3.31.06-3.12.51-6.11,3.16-8.25,1.79.42.54,2.22,1.38,3.07-.07,1.07-1.16,1.94-.64,3.14Z"/><path class="cls-1" d="M182.08,73c1.89,3.51,4.84,6.85,1.65,11.11-.83,0-1.22-.51-1.51-1.17-.54-1.75-.21-3.62-.83-5.36a9.22,9.22,0,0,1-.31-1.36C181,75,181,73.81,182.08,73Z"/><path class="cls-16" d="M98,2.21l7-.3c1.58.34,2.94,1.56,4.69,1.22.62.25.7.63.27,1.12-2.48.86-5.13,0-7.63.76C100.43,4.8,97.57,6,98,2.21Z"/><path class="cls-1" d="M110.33,3.87c-.23-.24-.44-.49-.64-.74,4.18.61,9-1.48,12.2,3.08l-10-2.1C111.3,4.5,110.75,4.63,110.33,3.87Z"/><path class="cls-1" d="M135,12l-11-4.8C128.83,6,132,8.75,135,12Z"/><path class="cls-17" d="M80,1.87l5.91.18c0,3.39-.63,3.81-5.09,3.57.1-2.95-3-1.12-3.9-2.64C77.6,1.63,79,2.36,80,1.87Z"/><path class="cls-1" d="M45.13,14.25,37,19.8C38.88,16.73,40.68,13.56,45.13,14.25Z"/><path class="cls-1" d="M6.33,123.91c-1,2.71,1.89,4.53,1.63,7.07-3.52-2.64-4.23-6.31-3.8-10.39C5.41,121.35,4.79,123.33,6.33,123.91Z"/><path class="cls-1" d="M168.22,42c3.17.72,5.11,2.42,4.79,6l-.57.29a5.88,5.88,0,0,1-4.11-2.83A7.88,7.88,0,0,1,167.6,43,1.14,1.14,0,0,1,168.22,42Z"/><path class="cls-18" d="M170.93,138c0,.84.19,1.63,1.09,2a13.27,13.27,0,0,1-4,4l-2.12.18c-.09-.2-.17-.41-.26-.61a4.66,4.66,0,0,1,1.52-2.88c.92-.89,1.61-2,2.56-2.87A1,1,0,0,1,170.93,138Z"/><path class="cls-19" d="M76.93,3c4.14.27,4.14.27,3.11,2.06l-.63.58C77.17,6.47,75,6.74,73,5l.1-1a1.65,1.65,0,0,1,1.87-.33C75.89,4.26,76.17,2.93,76.93,3Z"/><path class="cls-1" d="M158.93,156.89q3-3.48,6-7C164,153.12,163.33,156.63,158.93,156.89Z"/><path class="cls-1" d="M7.86,56C7.63,58.61,6.27,60.78,5,63,4.22,60,4.89,57.51,7.86,56Z"/><path class="cls-1" d="M37,167.14c2.35,1.5,5,2.62,6.77,4.87C39.92,172.62,38.4,170,37,167.14Z"/><path class="cls-1" d="M74.94,3.69,73.07,4l-7,1.07C68.71,2.62,71.75,2.68,74.94,3.69Z"/><path class="cls-1" d="M1.17,104.68l.7.54c1.21.8,1.24,2,1.23,3.27A11.22,11.22,0,0,0,2.5,112a1.17,1.17,0,0,1-.65,1.11C-.79,110.48.23,107.58,1.17,104.68Z"/><path class="cls-1" d="M19.23,149.79A19.91,19.91,0,0,1,23.85,155C20.27,155.06,19.42,152.72,19.23,149.79Z"/><path class="cls-1" d="M64,181.11c2.24,1,4.91.27,7,1.78C68.29,184,65.67,184.47,64,181.11Z"/><path class="cls-1" d="M58.1,8l-7,2.94C52.6,8.05,54.91,7,58.1,8Z"/><path class="cls-1" d="M165,37.08l-5.08-6C163.18,31.71,164.92,33.68,165,37.08Z"/><path class="cls-20" d="M86,184.78,80,185l-1.81-.13a.72.72,0,0,1-.38-.75c.06-.29.13-.43.22-.43,1.88-1.34,4.17-.67,6.2-1.3a6,6,0,0,1,1.4-.15,2.93,2.93,0,0,1,1.31.45C87.66,183.84,87,184.36,86,184.78Z"/><path class="cls-1" d="M180.11,66q-1.11-3-2.23-5.91C180.31,61.39,182.12,63,180.11,66Z"/><path class="cls-1" d="M176.82,57.4l-3.11-6.19C176.4,52.44,178.88,53.78,176.82,57.4Z"/><path class="cls-1" d="M131,176.93l6-3.07C136.22,177.33,133.48,176.9,131,176.93Z"/><path class="cls-1" d="M180.84,70.09c0-1.08-1.21-1.9-.67-3.1,2.25,1.14,3.06,2.74,1.67,5.08a.93.93,0,0,1-1.15-.17A1.62,1.62,0,0,1,180.84,70.09Z"/><path class="cls-1" d="M2.08,74.05c0,1.33,0,2.66,0,4a.93.93,0,0,1,.31.66c0,.25,0,.37-.08.37A1.79,1.79,0,0,1,1,80C-1,77.57.35,75.77,2.08,74.05Z"/><path class="cls-1" d="M77.72,184.06l.48.81c-2.62.24-5.09-.1-7.13-2l2,0C74.87,182.2,76.52,182.24,77.72,184.06Z"/><path class="cls-21" d="M168.22,42c-.05.33-.1.67-.14,1a1.92,1.92,0,0,1-2,.45,2,2,0,0,1-1.15-2.38c1.17-.48.86-1.52.9-2.43Z"/><path class="cls-1" d="M19.17,37.14c-.09,1.64-1.5,2.47-2.26,3.7-.21.55-.5.63-.88.16l-.09-.08C16,38.82,16.41,37,19.17,37.14Z"/><path class="cls-1" d="M50.94,11A13.66,13.66,0,0,1,46,13.87C46.36,10.68,48.73,11,50.94,11Z"/><path class="cls-1" d="M53,177A8.69,8.69,0,0,1,58,179C55.39,180.69,54.19,178.9,53,177Z"/><path class="cls-1" d="M156,159.89a7.17,7.17,0,0,1,3-3C158.82,158.79,159.42,161.37,156,159.89Z"/><path class="cls-1" d="M66.09,5.08c-1,1.51-2.91.72-4.08,1.74C62.41,4,63.92,3.77,66.09,5.08Z"/><path class="cls-1" d="M172.8,139.88c.48-1.3-.41-2.94,1-4C174.54,137.46,176.45,139.36,172.8,139.88Z"/><path class="cls-1" d="M173.68,51.24A.64.64,0,0,1,173,51a2.05,2.05,0,0,1-.32-2.79L173,48C175.48,48,175.5,48,173.68,51.24Z"/><path class="cls-1" d="M47,174.06c1.75-.34,2.79.73,3.78,1.91C49.3,175.81,47.34,176.57,47,174.06Z"/><path class="cls-22" d="M1,80l.88-1.24c1.46,1.31,1.31,2.74.28,4.22l-2,1.25C.17,82.76,1.66,81.59,1,80Z"/><path class="cls-1" d="M3.84,67c.26,1.15.34,2.25-.85,3C1.47,68.47,1.78,67.48,3.84,67Z"/><path class="cls-1" d="M164.94,149.92A5.45,5.45,0,0,1,167,147C168.11,149.26,166.9,149.86,164.94,149.92Z"/><path class="cls-1" d="M58,179c1,.19,2.29-.53,2.78,1C59.53,180.67,58.2,181.46,58,179Z"/><path class="cls-9" d="M182.88,83l.85,1.1c0,1,.07,1.94.11,2.9L182,85h0a1.52,1.52,0,0,1-.3-1.88A.86.86,0,0,1,182.88,83Z"/><path class="cls-23" d="M181.09,71.73a6.36,6.36,0,0,0,.75.34l.24.92c0,1.29,0,2.58,0,3.86a1.13,1.13,0,0,1-1.3.22,3.51,3.51,0,0,1-.71-1.28C179.85,74.3,179.71,72.82,181.09,71.73Z"/><path class="cls-1" d="M2.85,71c.17,1.11.42,2.24-.75,3C1.58,72.81.26,71.41,2.85,71Z"/><path class="cls-1" d="M2.9,113.3,2.84,116c-2.4-.26-1.31-1.7-1-2.89l.21-.15C2.54,112.61,2.82,112.72,2.9,113.3Z"/><path class="cls-1" d="M3,117c1.27.69,1,1.87,1,3C2.92,119.21,1.24,118.65,3,117Z"/><path class="cls-24" d="M80,5c2.34-.24,5.24.61,5.88-3,1.38.77,2.74.08,4.1-.08-1,5.78-6,7.62-10.26,10.08-3.62,2.34-7.91,2.07-11.87,3.09-2.13.55-2.86-1.1-3.69-2.53-.38-1.13-1.45-2.3.09-3.38L68,7.65C71.68,5.35,76.08,6.19,80,5Z"/><path class="cls-25" d="M98,2.21c.79,2.94,3.23,1.35,4.93,1.8a1.13,1.13,0,0,1,.23,1.11,8.44,8.44,0,0,1-.76.92c-.74.88-.37,1.89-.3,2.86-.1,2.53,1,3.83,3.59,4.31,1.71.32,4.13.19,4.36,3a3.28,3.28,0,0,1-1.33.76c-3,.46-5.8-.45-8.57-1.43-.91-.74-.7-1.74-.63-2.72.18-.64-.61-.23-.55-.07.64,1.7-.33,2.86-1.74,3.47-2.18.94-3-.47-3.27-2.32-.66-2.1,2.51-3.92.42-6.12-.91-1.27-2.53-1.57-3.6-2.63a1.9,1.9,0,0,1,0-1.31c1.65-2.65,4.26.37,6.12-1Z"/><path class="cls-26" d="M96.88,2.77C95.48,5.54,92.6,2.28,91,4.21a22,22,0,0,1-2.12,3c-.24.34-.5.66-.75,1-1.55,2.11-.43,4,.51,5.88a3.27,3.27,0,0,1-.21,2.65C86.87,18,86,16.61,84.9,15.9a16.36,16.36,0,0,1-1.36-1.4,24.66,24.66,0,0,0-1.68-1.87A7,7,0,0,1,80,11,27.41,27.41,0,0,0,90,2C92.53.35,94.67,1.86,96.88,2.77Z"/><path class="cls-27" d="M45,169c-5.26-2.94-10.23-6.24-14.12-11,.61-1.61.41-3.36.87-5a1.87,1.87,0,0,1,1.77-.61,2,2,0,0,1,1,.75,8.75,8.75,0,0,1,.67,2.4c.15,1,.87,1.71,1.1,2.64-.24,2.21,1.05,0,1.41.46,2.4-.51.88-4.11,3.5-4.43,3.95.28,6.13,3.62,9.14,5.47a80.89,80.89,0,0,0,7.11,4.4,76.84,76.84,0,0,0,14.45,5.32,4.87,4.87,0,0,1,1.75,2.44,3.64,3.64,0,0,1-.23,2.89c-2.81,1.93-5.38,2.48-7.54-1a4.7,4.7,0,0,0-3-1.65c-.45-.12-.89-.26-1.32-.41-4.64-.45-8.93-3.71-13.92-1.59C46.83,170.47,45.83,169.53,45,169Z"/><path class="cls-28" d="M63,171a15.27,15.27,0,0,1,2.72.92A37.88,37.88,0,0,0,73,175c3.88-1.87,7.19-.65,10.28,1.86,1.15,1.92,3.09,3.48,2.82,6.06l-1.28.18a12.19,12.19,0,0,1-8.74-1.17Q76,181.45,76,181c-1.19-1.25.26-1.83.68-2.67-1.5-.27-2.76-.41-3.62,1.46-.5,1.09-2,.84-3.08.22-3-.84-6.2-1.34-8.94-3.06a1.62,1.62,0,0,1-.47-1.71c.38-.83,1.35-1.4,1.09-2.52C61.68,171.81,62.42,171.44,63,171Z"/><path class="cls-29" d="M32,153c.1,1.8,2.41,4.1-1.15,5.07-3.32-3-7-5.78-9-10,.19-.68,1.71-.57,1.18-1.39-.33-.5-1.39.21-2.11.4l-1.86-1.2c-.74-3.73,2.24-2.72,4-3.2C30.08,142.67,30.11,148.63,32,153Z"/><path class="cls-28" d="M45,169c.82.15,1.94.72,2.39.38,5.42-4,9.79,1.09,14.66,1.57-1.88,1.53-4.68,1.68-6,4C52.12,173.33,48,172.13,45,169Z"/><path class="cls-30" d="M23.91,143.9c-1.65.54-4.17-1.06-4.81,2L18,147a5,5,0,0,1-2-2.91c-.23-3.88,3.33-2.72,5.14-3.89,2.31-.64,3.53-3,5.82-3.69a2.52,2.52,0,0,1,1.84,1,3.51,3.51,0,0,1,.61,3.44C28.13,143,25.84,143.08,23.91,143.9Z"/><path class="cls-31" d="M70,180c.77-.2,2.19-.36,2.2-.59.37-7.63,4.82.39,6.56-1.74a4.07,4.07,0,0,1,.57,1.34c0,.95-.75,1-1.36.78-1.2-.39-1.9-.19-2,1.2C74,180.64,71.74,181.72,70,180Z"/><path class="cls-32" d="M56,174.92c-.58-5.27,3.35-3.69,6-4l1,0-1,1.9c0,.89-.81,1.41-1,2.2L61,177Z"/><path class="cls-33" d="M76.1,181.88l8.74,1.17c-2.17,1.84-4.83.07-7.12,1l-4.67-1.19C73.79,181.7,75,182.05,76.1,181.88Z"/><path class="cls-34" d="M21,147.06c.38-2.35,1.89-2.39,3.62-1.65a1.83,1.83,0,0,1,1.18,2.39c-1,2-2.59-.32-3.87.25Z"/><path class="cls-35" d="M126.09,11.94C134.74,13.51,141.42,18.66,148,24c0,1.22,1.95,1.93.83,3.41-1.15.76-2.53.89-3.77,1.41-3.07,1.38-5-.46-6.75-2.52-2.28-2.65-4.78-5-8.39-5.66a22.33,22.33,0,0,1-4-2.25c-1.33-.94-2.6-2-2.68-3.76S123.35,10.94,126.09,11.94Z"/><path class="cls-36" d="M164.93,41.06,166,43c-1.93,1.73-4.25,1.8-6.65,1.58-3.43-2.89-6.3-6.36-9.47-9.53a4.26,4.26,0,0,1-1.43-4.51c1.4-2.07,3.13-3,5.48-1.45C158.38,32.35,161.39,36.94,164.93,41.06Z"/><path class="cls-37" d="M126.09,11.94c-4.94,2.81-.43,4.2.91,6.06-3.31,1.71-4.39-.39-5.16-3-.18-.43,0-1.06-.56-1.32a1.74,1.74,0,0,0,.1.87c.05,2.26.16,4.55-3.1,4.53-2.82-.88-6.4.22-8.23-3.19-1.06-1.31-2.74-1.21-4-1.29-4.48-.27-5.76-2.6-5-6.64,1.2-.28,1.64.65,2.21,1.38,3.28,2.37,7.23,2.18,10.83,2.12,4.05-.07-.27-3.07.91-4.42,1.92,0,3.35,1.27,5,1.93s3.62.69,5.07,2Z"/><path class="cls-38" d="M154,29A5.52,5.52,0,0,0,149,31c-2,2.06.17,2.76,1.25,3.81,1.8,1.74,3.9,3.38,2,6.28a1.56,1.56,0,0,1-1.79-.41c-4.44-5.13-10.07-8.85-15.35-13a6.15,6.15,0,0,1-1.83-2.28c0-2.44-3.8-2.64-3.18-5.43,4.05-.47,6.18,2.37,8.51,4.89,1.72,1.86,3.08,4.52,6.4,3.14a6.51,6.51,0,0,0,3.89-.81c-.24-1.07-2-1.75-.84-3.18C150,25.65,152.5,26.73,154,29Z"/><path class="cls-39" d="M115,7.05c.56,1.78,3.93,2.15,2.75,4.63s-4.23,1.81-5.64,1.11c-3.25-1.62-7.7,1.39-10.07-2.81,1-1.29,2.6-.75,3.8-1.1-1.2-1.37-3.65-1.4-3.85-3.8l1.16-.29a4.18,4.18,0,0,1,4.72.31A19.88,19.88,0,0,0,115,7.05Z"/><path class="cls-40" d="M107.85,5.1l-4.72-.31c0-.26-.1-.52-.17-.78,2.42-2.1,4.93,1.15,7.37-.14l1.57.24C110.81,5.51,109.19,4.73,107.85,5.1Z"/><path class="cls-41" d="M125.07,11c-1.82-.32-3.66-.59-5.07-2C121.93,9,124,8.78,125.07,11Z"/><path class="cls-42" d="M16,41l.88-.15c1.27,4,2.84,1.09,3.62-.09a43.28,43.28,0,0,1,8.26-8.88c3.38-1.17,4.46-.18,2.9,3.16a23.78,23.78,0,0,0-1.3,2.63c-.15.45-.34.89-.53,1.32a9.16,9.16,0,0,0-1,9.58,3.17,3.17,0,0,1-.8,2.76,2.62,2.62,0,0,1-3.43-.55c-2.65-5-6.74-5.19-9.83-.47-.81,1.25-.87,3.81-3.55,2.57a2.27,2.27,0,0,1-.29-.84C11.08,47.64,15.35,45.15,16,41Z"/><path class="cls-43" d="M33.1,27c3.33-1.09,4-5.68,8-6,.7,1.42-1.54,3.07-.12,4.06,1.68,1.18,2.86-.83,4.12-1.64a48.06,48.06,0,0,1,4.85-3.23c1.31-.57,2.62-1.29,4.08-.44.72,2.49-1.4,3.93-2.14,5.89-3.55,3.09-6.69,6.81-11.65,7.82C36.87,32.43,35.12,29.58,33.1,27Z"/><path class="cls-44" d="M51.1,25.17,54,20c-.2-2.47,2.21-2.41,3.41-3.54a14.45,14.45,0,0,0,2.51-2c2.86-3.14-2-1.92-2-3.45a2.19,2.19,0,0,1,2-1l4.27-.73L65,12c-.18,3.62,3.22,3.5,5.15,4.92-.09,2.53-2.5,2.05-3.84,3-3.91,1.53-8,2.56-11.58,5A3.09,3.09,0,0,1,51.1,25.17Z"/><path class="cls-45" d="M50.11,21.15C48,22.7,46,24.33,43.85,25.75c-1.08.71-1.65,3.41-3.76,1.25-1.89-1.94-1.61-3.6.52-5.12.24-.17.32-.55.48-.84,1.5-1.14,3.58-1.4,4.7-3.13a4.26,4.26,0,0,1,1.51-.78C51.77,17.33,52.07,17.76,50.11,21.15Z"/><path class="cls-46" d="M33.1,27c4,.13,4.26,4.5,7,6.1.11,1.58-1,1.92-2.21,2.21-1-3.22-3.49-.35-5.05-1.27.62-3.31-1.81-2.87-3.75-3A10.52,10.52,0,0,1,33.1,27Z"/><path class="cls-47" d="M29.05,31c2,.3,2.73-2.23,4.62-2.28,1,2-.74,3.5-.6,5.28,0,2.72-1.31,4-4,4a4.82,4.82,0,0,1,1.38-3.47c2.77-3-.2-2.35-1.64-2.71A1.8,1.8,0,0,1,29.05,31Z"/><path class="cls-48" d="M58,11c.48,0,1,0,1.44.07,1.38.1,3.4-.6,3.8,1.11s-1.29,2.66-3,2.94c-2.39.38-2.45-1.61-3.09-3Z"/><path class="cls-49" d="M46.77,17.83l-1,.08c2.51-3.72,6.51-4.72,10.5-5.74a1.82,1.82,0,0,1-.18,1.35C53.59,16.24,50.16,17,46.77,17.83Z"/><path class="cls-50" d="M56,13q.13-.4.3-.78a4.05,4.05,0,0,0,.84-.12c2.17-.16,1.58,2.5,3.09,3-.18,1.27-.79,2.06-2.19,2C55.54,16.58,54.69,15.3,56,13Z"/><path class="cls-51" d="M165.94,144.19a23.29,23.29,0,0,1-6,7.75c-2.13-.54-2.73,2.09-4.61,2.2-1.57.09-3.35,1.19-4.54-.47s0-3,1-4.38c1.33-1.8,4.3-3.11,2-6.13-.42-1.92.7-3.14,1.94-4.32a2,2,0,0,1,2,.46c2.17,2.56,5.61,2.82,8.26,4.5Z"/><path class="cls-52" d="M138.09,170.1c-3.77,2.48-7.53,5-12.07,5.89-.39.33-1.27.49-1.28.33-.3-3.3-3.57-5.82-2.49-9.46a2,2,0,0,1,2.24-1.33c1.37,1.32,2.74,2.32,4.7.91a4.27,4.27,0,0,1,3.75-.93C135,166.62,137.37,167.45,138.09,170.1Z"/><path class="cls-53" d="M138.09,170.1c-1.67-1.39-3.89-2.09-5.12-4l.39-.48c1.27-1,2.7.72,4-.22.36-.27.58-.68,1-.86-.72-.06-1,.79-1.71.79-2-.82-2.13-2.82-2.94-4.41.79-2.47,2.87-2.86,5-3.15.5.16.46.87,1,1-.31-.34-.61-.7-.93-1.07.62-2.12,2.29-2.92,4.21-3.42a2.15,2.15,0,0,1,2.32,1.32c0,2.47-1.81,4.78-.67,7.35A19.26,19.26,0,0,1,146,165Z"/><path class="cls-54" d="M123,166.94a4.29,4.29,0,0,0,0,1.48c1,2.54,2.8,4.73,3,7.57l-2.12,1.86c-1.42,1.06-2.91,1.94-4.81,1.52a5.83,5.83,0,0,1-2.13-3.69,12.6,12.6,0,0,0-1.22-3.72c-.48-1-1.86-1.25-2-2.52.85-1.79,2.76-1.67,4.23-2.35C119.65,166.77,121.29,165.66,123,166.94Z"/><path class="cls-55" d="M154,143c2.82,0,3.78,1,1.91,3.49-.49.65-1.25,1.16-1.55,1.88-.74,1.76-4.39,2.5-2.92,4.43,1.33,1.76,4.08.17,6-.86.91-.48,1.64-1.14,2.47,0L156,156c-1.06,0-2.1.26-3.15.31-3.21.44-4.4-4.2-7.87-3.1a1.8,1.8,0,0,1-.33-1.31A33.55,33.55,0,0,1,154,143Z"/><path class="cls-56" d="M153.08,155c1.1-.06,2.23-.24,2.93.94a17.84,17.84,0,0,1-7,5.93c-1.12-.82-2.6,1.46-3.6-.42a3.76,3.76,0,0,1,.16-3.38C147.78,156.43,151.51,158.39,153.08,155Z"/><path class="cls-57" d="M119,178.89l4.92-1,1,1c-3.83,1.56-7.67,3.08-11.88,3.17-1.28.72-2.61.45-3.94.24-.77-2,.93-2.09,2-2.37,1.85-.48,3.71-.94,5.55-1.51A2.82,2.82,0,0,1,119,178.89Z"/><path class="cls-58" d="M145.92,161.93c1-.13,2-1.55,3.05,0L146,165a2,2,0,0,1-2-1.21C143.88,162.37,144.41,161.62,145.92,161.93Z"/><path class="cls-59" d="M2.84,100.15A95.71,95.71,0,0,1,3,83a6.06,6.06,0,0,1,0-5c.5-.41,1.36-.77,1.44-1.24,1.21-7.94,4.41-15.28,6.77-22.87,3.11,1.55,1.36,3.9,1,6-1.38,2.8-2,5.86-3.16,8.75-.67,1.74-1.6,3.45-.79,5.41.25.34.47.7.7,1a2.65,2.65,0,0,1,.2,3.07A9.3,9.3,0,0,1,8.1,79c-2.58,2.74-2.75,6.15-2.83,9.65S6,95.94,4,99.29A2.61,2.61,0,0,1,2.84,100.15Z"/><path class="cls-60" d="M11,60c.13-2,2.09-4,.22-6.06,0-.34,0-.67,0-1,2.6-.22,2-2.72,2.84-4.15,1.7-3.12,4.69-3,7.36-3.09,2.41,0,3.9,1.65,3.6,4.35-1.3.57-2-.64-3-1a3.71,3.71,0,0,0-4.91.71c-1.53,1.86-.44,3.66.87,5.24,3.26,1.67,4.37,3.4.26,5.45-.71.35-1.09,1.21-1.76,1.69a2.16,2.16,0,0,1-1.27.27c-1.13-.49-1.91-1.66-3.26-1.75A1.68,1.68,0,0,1,11,60Z"/><path class="cls-61" d="M3,78l0,5H2.12c-.09-1.41-.19-2.81-.28-4.22A1,1,0,0,1,2.12,78C2.42,78,2.71,78,3,78Z"/><path class="cls-62" d="M167.9,57.83c.68,1.31,1.92,1.14,3.08,1.16q6.81,2.91,1.83,10.24a2.06,2.06,0,0,1-2.06-.25c-.92-.07-.67-2.72-2.39-1.07a1.25,1.25,0,0,1-1.13.26c-1.79-1.84-1.93-4.9-4.55-6.13a3.1,3.1,0,0,1-.23-1.44C163.55,58.27,165.1,56.81,167.9,57.83Z"/><path class="cls-63" d="M172,69c2.59-3.63,2.55-7-1-10,1.08-2.38,2.22-4.1,3.85-.35A42.16,42.16,0,0,1,178,70c0,3.8-3.17,3.22-5.42,3.91C171.64,72.34,170.72,70.8,172,69Z"/><path class="cls-23" d="M173,74c.25-3.13,4-1.93,5-4,.32,0,.65,0,1,0,1.72,2,.76,4.83,2,7h0a3.07,3.07,0,0,1,.76,2.86A5.72,5.72,0,0,1,180,83.2c-4.26-.5-7.23-2.42-7.65-7.08A2.56,2.56,0,0,1,173,74Z"/><path class="cls-64" d="M172.71,48.23c.1.93.21,1.86.32,2.79L171,53c-1,.51-1.69-.05-2.36-.69A22.73,22.73,0,0,1,167.18,50c-.86-1.94-3.06-2.37-4.33-3.84,1.18-4.91,4-1.35,6.12-1.16Z"/><path class="cls-65" d="M169.29,52,171,53l-3,4.87c-2,.58-3.92,1.33-5.16,3.17-2,1.1-3.2.08-4.16-1.57.09-2.78,2.45-3.11,4.32-3.9,1.32-.55,3-.2,4-1.45C167.67,53.33,168.08,52.19,169.29,52Z"/><path class="cls-66" d="M181,77a10,10,0,0,1-2-7l1.84.1c.09.55.17,1.09.25,1.64Z"/><path class="cls-67" d="M2.9,113.3a6.24,6.24,0,0,0-.84-.36c0-1.36,0-2.72,0-4.08,1.1-1.46-.13-3.34.86-4.82l-.09-3.89.34-.27c4,2.32,1.47,6.53,2.82,9.61.21,1.62.39,3.23-1,4.49a11.61,11.61,0,0,1-.81-1.17c-.33-.61.24-1.63-.88-1.88C3.17,111.72,3,112.51,2.9,113.3Z"/><path class="cls-68" d="M2.93,104c0,1.65.66,3.43-.86,4.82-.07-1.21-.13-2.42-.2-3.64Z"/><path class="cls-69" d="M117.06,179c-2,2.9-5.77.95-8.14,2.87a3.67,3.67,0,0,1-3.82.15l-5,.7c-1.44-1.5,2.85-3.78-.94-4.73a1.83,1.83,0,0,1-.62-1.29,2.42,2.42,0,0,1,2.58-2.15,7.88,7.88,0,0,0,7.1.16C112.43,173,115,174.46,117.06,179Z"/><path class="cls-70" d="M86,184.78l.92-2c-1.21-2.33-2.67-4.62-1.43-7.43a2.21,2.21,0,0,1,1.9-1c1.81.42,2.23,1.83,2.31,3.4a2.49,2.49,0,0,0,1.82,2.64c2.34.33,3.07-2.19,4.9-2.76,1.36,0,1.57,1.35,2.34,2-1.84,3.69-6.5,2.84-8.93,5.56Z"/><path class="cls-71" d="M98.78,179.74c-1.41.25-1.65-.66-1.71-1.73a2.13,2.13,0,0,1-.46-2.76c2-1.19,1.82.77,2.35,1.68.05.37.11.73.16,1.09C99,178.6,98.89,179.17,98.78,179.74Z"/><path class="cls-72" d="M105.1,182.05l3.82-.15,4.15.12c-.92,1.73-2.55.77-3.86,1C107.87,182.6,106.19,183.55,105.1,182.05Z"/><path class="cls-73" d="M14.86,142.12c-2.71-1.65-2.18-5.11-4-7.24-.28-2-1.58-3.76-1-5.88a2,2,0,0,1,.55,0,2.33,2.33,0,0,1,2.49-.65c1.78.56,3.11-.79,4.68-1.1,1.88-.38,3.61-.29,4.68,1.65a1.68,1.68,0,0,1-.18,1.33c-1.29,1.08-3.08.78-4.45,1.64-3.76,2.31-.55,4.76-.15,7.15A3,3,0,0,1,14.86,142.12Z"/><path class="cls-74" d="M14.86,142.12l2-3.05a1.82,1.82,0,0,1,1.24-.55,8.07,8.07,0,0,1,4,1.19.88.88,0,0,1-.08,1.22c-1.5,2-5.12,0-6,3.13Z"/><path class="cls-75" d="M9.79,129c.73,1.89,2,3.69,1,5.88A4.92,4.92,0,0,1,9,132C9.22,131,8.81,129.83,9.79,129Z"/><path class="cls-76" d="M179.83,113.88c-.92,2.72-1.84,5.45-2.77,8.17a.73.73,0,0,1,.21.78c-.11.24-.2.36-.29.36-2.15-.48-4.31-1-6.31.54a4.92,4.92,0,0,1-2.19.16c-1.81-.42-2.48-1.65-2.4-3.4a3.55,3.55,0,0,1,.52-1.35c2.24.12,4-.31,4.46-3a8.69,8.69,0,0,1,2.43-4.23c.89-.81,2.25-1,2.82-2.21.41-.93.24-2,.73-2.9a18.85,18.85,0,0,1,2.66-2.7,1.13,1.13,0,0,1,1.2,0c.38,2.4-.4,4.65-.88,7C180.6,112,180.82,113,179.83,113.88Z"/><path class="cls-77" d="M180.9,104.06A4.44,4.44,0,0,0,180,104l-.61-.65c-1.26-2.53-.59-5.27-.89-7.9.42-4.17-1.21-8.58,1.49-12.47,0-1.07-.2-2.23.92-3,1.46,1.62.66,3.28.09,5Q181,94.51,180.9,104.06Z"/><path class="cls-78" d="M181,85l-.09-5c0-1,0-2,.07-3l1.1-.12,0,.08a9.33,9.33,0,0,1,0,6c0,.67,0,1.34,0,2Z"/><path class="cls-79" d="M183,103c-.29,2.45.73,5.08-.95,7.36C182.37,107.88,181.08,105.22,183,103Z"/><path class="cls-80" d="M179.83,113.88c.06-1,.13-1.92.19-2.87,1.57,1.09.59,2.84,1.07,4.21-.09.54-.18,1.08-.26,1.62C179.64,116.14,180.11,114.89,179.83,113.88Z"/><path class="cls-17" d="M80,5C76.19,6.7,72,6.89,68,7.65c.76-2.6,3.63-1.19,5-2.62Z"/><path class="cls-81" d="M173.11,131l-1.25,2.92c-1.11.7-2.17.19-3.25-.12a11.07,11.07,0,0,1-2.75-1.9c-1.25-1.15-3.9-.38-4.1-3,1.29-2.34,3.73-2,5.8-2.48a5.18,5.18,0,0,1,1.47,0C171.08,127.33,173.26,128.09,173.11,131Z"/><path class="cls-82" d="M173.11,131c-.9-1.81-2.69-2.66-4.19-3.82A3.1,3.1,0,0,1,169,123l2-.06c2.1-.65,3.6.47,5.05,1.71a1.1,1.1,0,0,1-.13,1.28C174.48,127.34,174.87,129.75,173.11,131Z"/><path class="cls-83" d="M168.86,133.05l3,.83a6.15,6.15,0,0,1-.92,4.07l-.86.06a2.32,2.32,0,0,1-1.75-1.36A3.29,3.29,0,0,1,168.86,133.05Z"/><path class="cls-84" d="M175.89,125.94a5.35,5.35,0,0,0,0-1c-.47-1.07.25-1.58,1-2.09,0-.28.1-.55.16-.82,1.24.8.8,2.17,1.1,3.28-.4.87-.8,1.74-1.21,2.61C176.09,127.54,176,126.74,175.89,125.94Z"/><path class="cls-85" d="M5,114c0-1.66-.11-3.31-.16-5a2.46,2.46,0,0,1,2.94-1.59c1.58.67,3.06,1.46,3.55,3.3a2.51,2.51,0,0,1-1.1,1.66,5.11,5.11,0,0,1-2.43.5c-1.13.34-.91,1.81-1.89,2.27Z"/><path class="cls-86" d="M5.9,115.15c.9-.88-1.13-2.8,1.13-3.2,1.85,3.29,3.44,6.61.87,10.28l-1-.22Z"/><path class="cls-87" d="M7.9,122.23c.79-3.52-1.43-6.78-.87-10.28l3-.06c3,2.55,4.78,6.1,7.52,8.86a4.4,4.4,0,0,1,.14,2.13,13.79,13.79,0,0,1-2.21,5.2c-.74.52-1.34,1.43-2.47.9l-2.69,0Z"/><path class="cls-23" d="M182,83l0-6c1.72,1.83.78,4,.81,6.06Z"/><path class="cls-88" d="M169,45c-1.74,1.9-4.5-2.54-6,1a3.69,3.69,0,0,1-1.44,2.89c-1.5,1.29-2.59,3.11-4.67,3.65-3,0-2.6-1.83-2-3.75a8.84,8.84,0,0,1,.58-1.2c1-1.42,1.57-3.19,3.58-3.56A16.61,16.61,0,0,1,166,43l2.06,0A1.8,1.8,0,0,1,169,45Z"/><path class="cls-89" d="M166,143.8a8.55,8.55,0,0,1-8.8-3.92c.87-1.3-.39-3.11,1-4.28,3.21-.57,4.27,3.05,6.93,3.55,1,.51,2.16.82,2.84,1.86Z"/><path class="cls-90" d="M168,141c-1.07-.09-2.24.18-3-.91.74-1.79,1.69-3.32,4-3.1l1,1A3,3,0,0,1,168,141Z"/><path class="cls-91" d="M86.24,175.23c-.81,2.62,1.26,5,.7,7.57a7.35,7.35,0,0,1-.82.07c-1-1.63-2.08-3.27-3.13-4.9-.65-1.6-1.36-3.21-.17-4.87,1.76-1.11,1.66,1.27,2.73,1.44A.83.83,0,0,1,86.24,175.23Z"/><path class="cls-92" d="M70.1,17.07c-3.65.28-5.63-1.13-5.09-5.06,1.12.52.68,3.06,3.14,2,3.76-1.61,8.16-1,11.84-3.06,1.06.14,2.31-.19,3,1.07-.71.81-1.93,1.1-2.26,2.28a3.74,3.74,0,0,1-.65,1.13,7.81,7.81,0,0,1-2.32,1.34c-.89.32-1.82.51-2.73.74C73.33,17.85,71.62,18.5,70.1,17.07Z"/><path class="cls-93" d="M91.05,5.15c1.73-.27,3.2.09,4.1,1.75,0,2-1.06,4-.17,6.08.18.91-.28,2.43.88,2.54,2.27.22,2.64-2,3.62-3.58,1,1,.33,2.1.41,3.11a3.15,3.15,0,0,1-.74,2.18,17.56,17.56,0,0,1-1.83,1.61c-1.32,1.78-.88,3.85-.89,5.8-.07,15.29,0,30.58-.06,45.87a5.57,5.57,0,0,1-1,3.45,2.29,2.29,0,0,1-2.48.3c-2-1.66-2.29-4-2.17-6.34.59-11.07-.93-22.17.08-33.18.63-6.83-.27-13.52-.16-20.26,0-1.93-.7-1.85-2-1.22-2.52-1.85-1.14-4.06-.58-6.2l0,0A10.51,10.51,0,0,1,91.05,5.15Z"/><path class="cls-94" d="M134,25.09c5.9,5.42,13.2,9.23,18.07,15.83,2.69,1.56,5.36,3.13,4,7l0,.26c-2.24,1.08-3.28-.62-4.39-2a89.54,89.54,0,0,0-6.42-6.65C137,30.71,126.71,25,115.4,20.88c-2.58-.93-5.6-.89-7.6-3.21-.18-1,.61-1.22,1.18-1.64l1.06-.12,8.88,2.17C124.44,19.31,129.69,21.14,134,25.09Z"/><path class="cls-95" d="M102,5.08c2.36,1.32,4.91,2.41,6.4,5.3L102,10c-.13-.76-.16-1.58-1-2C100.79,6.83,99.12,5.22,102,5.08Z"/><path class="cls-96" d="M109,16l-1.14,1.1c-2.27,1.73-4.73,1.26-7.21.68A3,3,0,0,1,99,16l.87-.92Z"/><path class="cls-97" d="M95,13c-.65-2.05-2.9-4.13.17-6.08C98.75,9,95.41,11,95,13Z"/><path class="cls-98" d="M91.05,5.15a3.4,3.4,0,0,1-3,1.88A4.37,4.37,0,0,1,91,4.21C91,4.53,91,4.84,91.05,5.15Z"/><path class="cls-99" d="M88.14,12.79c2.36-.53,1.17-3.28,2.72-4.41,2.07,1,1.09,2.89,1.19,4.34,1,13.55-.67,27.13.16,40.65.42,6.9-1.07,13.83.66,20.65A3.54,3.54,0,0,1,92,75.1C88.62,77,85,78.43,81.7,80.61A14.54,14.54,0,0,0,77,85.34a3.1,3.1,0,0,1-1.68,1.16,2.44,2.44,0,0,1-1.3-.27c-.63-2.21-2.6-3.34-4-4.93-.89-1.65-2.49-3.47,1-4.1a5.6,5.6,0,0,0,5.68-1.72,10.75,10.75,0,0,1,4.55-2.68,22.23,22.23,0,0,1,4.45-1.15c2.41-.11,3-1.62,3-3.71C88.54,58,88.9,48,88.69,38c-.14-6.12,1-12.28-.53-18.35a7,7,0,0,1-.62-1.5,2,2,0,0,1,.34-1.53c0-.83,0-1.66.05-2.49A.81.81,0,0,1,88.14,12.79Z"/><path class="cls-98" d="M88.14,12.79l-.21,1.37c-2.5-2.41-3.24-4.79.12-7.1A9.5,9.5,0,0,1,88.14,12.79Z"/><path class="cls-100" d="M80,14c-.91-3.49,1.91-1.41,3-2l1,2C82.65,15.23,81.33,15,80,14Z"/><path class="cls-101" d="M80,14l4,0,1,1a.73.73,0,0,1-.19,1.25c-1.86.27-3.63.19-5-1.43A6.45,6.45,0,0,1,80,14Z"/><path class="cls-98" d="M85,16c0-.34,0-.67,0-1l2.88,1.62c0,.43.08.85.13,1.28C86,19,85,18.23,85,16Z"/><path class="cls-102" d="M29,141.1,28,138a1.57,1.57,0,0,1,1.22-.51c4.32,2.78,6.24,7.83,10.32,10.84a30.75,30.75,0,0,0,6.23,5.2c3.32,2.79,7.11,4.89,10.69,7.28,1.45,1,3.46,1.48,3.78,3.67-.89,1.38-2,1.19-3.22.5-6.17-2-10.22-7.38-16-10.07-2.95-.91-4.47-3.67-6.89-5.27C32.29,146.89,28.57,145.25,29,141.1Z"/><path class="cls-103" d="M57,165c1.07-.05,2.23.19,3-.92a2.67,2.67,0,0,1,3.19-.67c5.34,2.34,11,3.54,16.64,4.79a1.78,1.78,0,0,1,1.27,1.39c-1.37,2.21-3.82,1.43-5.75,2.1A3.3,3.3,0,0,1,72,170.1C66.42,170.13,61.79,167.36,57,165Z"/><path class="cls-104" d="M29,141.1c1.38,3.13,4.12,5.24,6,8,1.17,1.66.38,2.84-1,3.89H32c-1.57-1.7-3.31-3-3.33-5.93,0-2.31-2.43-3.19-4.78-3.14C25.53,142.85,26.72,141,29,141.1Z"/><path class="cls-105" d="M34,153c.33-1.3.65-2.6,1-3.89,2.53,1.41,4.3,3.62,6.1,5.81-1.6,1.34,1.08,5.29-3.09,5.07-.59-.66-1.31-1.2-1.86-1.9-1.26-.13-2.08-.7-2.1-2.09,1.18-1,1.26-2,0-3Z"/><path class="cls-106" d="M84,172.92c-1.63,1.44-.77,3.34-1,5.05-2.78-2.81-6.48-2.57-10-3,0-1,0-2,0-3a10.94,10.94,0,0,1,4.33-.9c2.15.39,4.43-.83,6.5.54a1,1,0,0,1,.3.85C84.09,172.77,84,172.92,84,172.92Z"/><path class="cls-104" d="M34,153c1,.15,2.63-.39,2.58,1.29,0,1.27-1.37,1.63-2.56,1.71C34,155,34,154,34,153Z"/><path class="cls-107" d="M78.08,172,73,172a1.94,1.94,0,0,1-1-1.87l3.1.77a3.59,3.59,0,0,1,2.8-.2,1,1,0,0,1,.32.83Q78.19,172,78.08,172Z"/><path class="cls-108" d="M36.13,158.07c1.25,0,1.91.61,1.86,1.9-1-.17-2.26.68-3-.54C34.9,159.26,35.73,158.53,36.13,158.07Z"/><path class="cls-109" d="M61,175.07c-1.07-1.37.39-1.59,1-2.2.74.23,1.92.25,1.56,1.38S61.9,174.93,61,175.07Z"/><path class="cls-110" d="M22,140.93c0-.36-.07-.71-.1-1.07-.43-2.1.58-3.45,2.28-4.46,1.25-.14,2.66-.56,2.71,1.49A7.8,7.8,0,0,1,22,140.93Z"/><path class="cls-111" d="M26.91,136.89c-.64-1.11-1.68-.84-2.67-.76-.7-.83-.12-1.31.48-1.79a5.87,5.87,0,0,1,4.42-.53,3,3,0,0,1,.73,1.34A2.93,2.93,0,0,1,29,138l-1,0Z"/><path class="cls-112" d="M134,25.09l-15-7c3.37.05-.49-3.67,2.1-4a.58.58,0,0,1,.87-.15c1.48,1.64,1.73,4.82,5.11,4.1l3,2C130.54,22.29,134.92,21.62,134,25.09Z"/><path class="cls-113" d="M138.61,19.3a6.06,6.06,0,0,1,4.71,5.32c.08.63-.83,1.31-1.4.91A7.76,7.76,0,0,1,138.61,19.3Z"/><path class="cls-114" d="M148.81,27.2c-1,1.77-2.21,2.39-3.89.81C146,26.47,147.42,27,148.81,27.2Z"/><path class="cls-115" d="M156.05,47.92c0-3.13-3.06-4.45-4-7,.5-3.34-1.51-5-4-6.67-2.23-1.47-2.8-3.18,1-3.27.63,3.44,3.83,4.82,5.76,7.22,1.52,1.89,4.07,3,4.33,5.83C158,45.33,157.05,46.63,156.05,47.92Z"/><path class="cls-116" d="M121.89,13.9a6.33,6.33,0,0,0-.87.15c-.75-.21-1.86-.29-1.51-1.38.28-.87,1.36-.84,2.12-.63C123,12.41,122.11,13.23,121.89,13.9Z"/><path class="cls-117" d="M22.87,48.22,25,50c.72,1.16,1.84.84,2.89.76.72.55.92,1.51,1.61,2.07.17.11.32.24.49.35s.34.2.51.3c.89.44,1.87.65,2.75,1.13a6.57,6.57,0,0,1,1.39,1.24,10.5,10.5,0,0,0,3,2.37,3.12,3.12,0,0,1,1.5,2.28c-.4,1.1-1.32,1.33-2.34,1.44-5.06-1.09-9.17-3.91-13-7.16.44-2-1.49-2.81-2.11-4.28A2.42,2.42,0,0,1,22.87,48.22Z"/><path class="cls-118" d="M29.05,38.06a10.34,10.34,0,0,0,4-4c1.9-1.22,3.76-2.27,4.82.91-.83,4.33-4.51,8.36-8.25,9a4.14,4.14,0,0,1-.67-5C29,38.64,29,38.35,29.05,38.06Z"/><path class="cls-119" d="M29,38.92c.37,1.73.75,3.45,1.12,5.17a1.26,1.26,0,0,1,.11,1.19c-.74,1-1.12,2.3-2.37,2.87C25.33,44.72,26.51,41.74,29,38.92Z"/><path class="cls-120" d="M27.83,48.15c.24-1.37.05-3,2.07-3.25.89,1.05.36,2.28.42,3.44,0,.48,0,1,0,1.45,0,1.51-.12,3-1.25,4.18-1.86-.56-1.58-1.86-1.12-3.22Z"/><path class="cls-121" d="M29,48c.29-1,.57-2,.86-3.07a4,4,0,0,0,.19-.81l7.8-9.16,2.17-1.82c4-2.18,7.47-5.14,11-7.94C56,23,60.55,20,65.93,19a3.76,3.76,0,0,1,4.3.39c-2,3.14-5.73,3.21-8.57,4.48-11.12,5-20.31,12.37-28.41,21.31C32.11,46.39,31.41,48.46,29,48Z"/><path class="cls-122" d="M56,13c-.41,1.91.95,2.93,2,4.09L54,20l-3.9,1.17c1.73-4-1.52-2.92-3.34-3.32Z"/><path class="cls-123" d="M29,48c7.41-8.44,15.26-16.36,25.25-21.82a70.65,70.65,0,0,1,14.95-6.39c-1.07-1.25-2.29-.55-3.31-.81l4.17-1.88,5-.94c2.07.82,4.24.14,6.93.51-1.76-.4-3.12.34-4.16-.75l2-1c1.76.17,3.59.07,5.13,1.18a3,3,0,0,0,3,1.9L89,18c1,2.37.27,4.85.46,7.26a1.17,1.17,0,0,1-.93,1.11,3,3,0,0,1-3.17-2.63c-.8-2.45-2.78-1.46-4.19-1.17-18.7,3.8-34.42,12.62-46.31,27.81-1.27,1.62-2,4-4.82,3.59l0,0c-1.14-1.5.13-3.43-.88-5Z"/><path class="cls-124" d="M154,143c-2.18,3.8-5.61,6.38-8.9,9.11-.93.28-1.34-.26-1.6-1,3.16-5.34,6.51-10.51,12.34-13.38a.91.91,0,0,1,.34.83c0,.3-.11.45-.19.45C156.18,140.73,154.57,141.6,154,143Z"/><path class="cls-125" d="M156,139a3.07,3.07,0,0,1-.25-.74c-.66-1.33-.84-2.58.62-3.55.9-.15,1.56.08,1.7,1.11.07,1.43,2.45,3.36-.86,4.08Z"/><path class="cls-126" d="M143.89,150.79l1.23,1.32a3.39,3.39,0,0,0-.16.83c-.13,1.22-1.28,1.4-2,2L139.07,158l0,0L134,161a4.19,4.19,0,0,1-2,2.72c-2.27.92-4.16,3-7,2.29l-2,1-5,1c-1-.08-1.88-.25-2.27-1.32.21-1.39,1.34-1.89,2.4-2.44A65.87,65.87,0,0,0,139,152.77C140.45,151.64,141.8,150.28,143.89,150.79Z"/><path class="cls-127" d="M125,166l7-3.08a2.33,2.33,0,0,1,1.08,2.87l-.08.29c-2.39-.11-3.61,2.25-5.73,2.71C124.59,169.35,123.69,168.55,125,166Z"/><path class="cls-128" d="M142.92,154.93l2-2c2.16-.42,5-3.39,5.59,1.77.14,1.28,1.62.51,2.53.33-.76,4.64-3.8,4-7,3a1.52,1.52,0,0,0-1.13-2.13C144.52,155.12,143.73,155,142.92,154.93Z"/><path class="cls-129" d="M145,155.94l3.51-.24c.14,1.78-2.26,1-2.38,2.37s-.11,2.57-.17,3.86l-2,1.82C142.13,160.86,142.85,158.31,145,155.94Z"/><path class="cls-130" d="M133.05,165.77,132,162.9a2.9,2.9,0,0,1,2-1.93c2.73.08,1.47,3.09,3,4.06q.4.28.3.6c-.07.22-.14.33-.22.33C135.65,167,134.39,165.57,133.05,165.77Z"/><path class="cls-131" d="M139.07,158c1.6.19,3,.56,2,2.67-.36.77-1,1.47-1.86,1.06-2.15-1.06.25-2.47-.17-3.71Z"/><path class="cls-132" d="M137,166A7.3,7.3,0,0,1,137,165c.21-2.09,1.54-2.14,3.31-1.9C139.43,164.6,138.71,165.83,137,166Z"/><path class="cls-133" d="M117.06,179c-3.08-3.52-6.43-5.51-10.91-2.15-2.57,1.92-3.66-.62-5.14-1.89-2.85-1.33-3.75-3.35-2.23-6.24a5.3,5.3,0,0,1,3.14-1.06,6.63,6.63,0,0,1,3.78.77c1.4,1.75-.55,1.66-1,2.22,2.85-.43,5.85-2.61,9.2-.74,1.09.12,2.34-.21,3,1.1-2.45,2-.93,3,1,3.88.34,1.32.68,2.65,1,4Z"/><path class="cls-134" d="M114,169.94c-4.42.53-8.71,2.29-13.79,1.62,1.58-2.61,4.42-.83,5.76-2.52a10.33,10.33,0,0,1,10-2.14L118,168Z"/><path class="cls-135" d="M118,174.92c-2,1.06-4,.31-4.37-1.48-.48-2.12,1.84-2.12,3.38-2.4Z"/><path class="cls-22" d="M7.86,108l-3,1c-1.59-2.85.41-6.36-1.66-9.12C4.42,95.32,4,90.63,4,86c0-3.18,1.86-5.58,2.5-8.44.12-.52,1.16-.1,1.65.42-1.22,3.13,3.08,4,2.81,6.71.2,5.55-1.25,11.07-.21,16.63C11.44,104.27,9.55,106.11,7.86,108Z"/><path class="cls-136" d="M11,60h1c1.84,2,.73,3.59-.51,5.2.95,0,1.4-2.41,2.94-.93,1.34,4.09-2,7-2.56,10.68-1.23,2.25-2.54.82-3.84.1l.1-.18c-1.25-1.93-.66-3.9-.14-5.88C8.88,65.91,9.17,62.68,11,60Z"/><path class="cls-137" d="M8,75c1-.45,2,1.15,3,0,1-1.67,2.36-2.3,4.19-1.21,1.48,2.18.16,4.24-.27,6.34-.38.89-.54,1.85-1,2.72s-1.06,1.68-2.19,1.5c-.95-.14-1.07-1-1.3-1.77C10,81,9.16,79.62,9.05,78Z"/><path class="cls-138" d="M9.05,78c2.63.94,1.47,3.89,2.55,5.64,2.1-.72.9-2.91,2.3-3.64l.6.51A7.63,7.63,0,0,1,15.17,85c-.85,2.59-.37,5.54-2.09,7.9a1.2,1.2,0,0,1-1.3,0c-1.2-2.52-.65-5.44-1.8-8,.43-2.6-3.54-4-1.87-7Z"/><path class="cls-22" d="M8,68.94q.06,2.94.14,5.88C6.11,73.41,6.11,73.26,8,68.94Z"/><path class="cls-139" d="M22.87,48.22A1.52,1.52,0,0,1,22,50c-.77.49-1.74.9-.32,1.82A5.44,5.44,0,0,1,24,54c4.19,2.54,8.1,5.6,12.89,7,5.89,1.84,10.67,5.44,15.22,9.43.09.22.17.45.25.67a1.51,1.51,0,0,1-.57,1.21c-1.41.59-2.75,0-4.12-.25a12.91,12.91,0,0,1-3.83-1.46A39.44,39.44,0,0,0,37,66.75a38,38,0,0,0-4-1.86,5.72,5.72,0,0,1-1.55-1.07,16,16,0,0,0-2.95-2.21,16.69,16.69,0,0,0-2.34-1.11c-3.27-1-5.28-4.56-9-4.59C15.15,53.82,13.94,51.38,16,49,17.83,46.88,20.32,46,22.87,48.22Z"/><path class="cls-140" d="M17.07,55.91c4.21-.95,6.68,2.7,10.11,3.84-1.08,1.72-3.48,1.52-4.61,3.17a2,2,0,0,1-1.17.43c-2.17-.11-1.65,1.91-2.34,3s-.82,2.71-2.61,1.3C15.69,65.78,14.66,64,16,62c.68-2.11,1.42-4.16,4.44-3.6C19.89,56.21,17.48,57.62,17.07,55.91Z"/><path class="cls-141" d="M16,62c.27,2,1.34,3.8.87,5.87.42,2.39.34,4.6-2,6.05L11,75c-.55-4.09,3.4-7,3-11-.46-1.13.15-1.66,1.12-2Z"/><path class="cls-142" d="M15.13,62,14,64l-2.7,2.18C11.54,64,11.77,62,12,60,14.65,58.19,14.6,60.53,15.13,62Z"/><path class="cls-143" d="M159,59a5.73,5.73,0,0,0,3.76,2c.11.33.23.66.34,1,4.9,7.45,6.78,15.79,7.31,24.54-.13,7.25.77,14.55-1,21.71-.86,3.86-3,7.35-3.44,11.33a11.2,11.2,0,0,1-2.21,5c-.65.86-1.27,1.78-2.49,1.89-3.24-1.66-1.19-4-.52-5.87,6.24-17.35,4.86-34.49-1.24-51.52-1-2.87-2.93-5.36-3.87-8.29C156.13,59,157,57.87,159,59Z"/><path class="cls-144" d="M173,74c0,.67,0,1.34,0,2,3.28,7,3.3,14.63,4.38,22.07-.1,2.82.28,5.78-2.15,8-2.2.28-2.25-1.51-2.47-2.83a12.05,12.05,0,0,0-1.57-4.53c-1.34-6.4-.27-13-1.85-19.41.06-3.83-3.49-7.21-1.4-11.3l.08,0a2.12,2.12,0,0,1,3,0l1,1C172.33,70.66,172.66,72.32,173,74Z"/><path class="cls-145" d="M168,68c.21,3.76,2.25,7.19,2,11,.41,2.4,1.67,4.91-.89,6.93-.4-8.39-3.53-16.09-6-24C167.66,61.59,166.05,66.21,168,68Z"/><path class="cls-63" d="M171,68h-3c.17-1.18-.56-2.59.89-3.56C170.48,65.14,170.1,67,171,68Z"/><path class="cls-146" d="M176,98q-1.5-11-3-22c.53,4.13,4.41,4.9,7,7q0,6.51,0,13C179,97.31,178.09,98.83,176,98Z"/><path class="cls-147" d="M177.51,78.8c-.28.22-.77.8-1,.71-.52-.24-1.16-.69-1.28-1.17-.18-.7.41-1.2,1.16-1.07S177.49,77.91,177.51,78.8Z"/><path class="cls-148" d="M169.29,52l-1.59,3c-2.14.36-4.43,1.84-6.16-.83.29-2.3,2.28-2.94,3.85-4a3,3,0,0,1,2.79-.26C169.14,50.24,169,51.21,169.29,52Z"/><path class="cls-149" d="M168.18,49.83,166,51c-1-.83-2.15,0-3.2-.2-1.46-.33-3.05-.6-1.76-2.72l2-2C165.37,46.4,167.59,47,168.18,49.83Z"/><path class="cls-139" d="M162,53.94c1.59,2.19,4-.35,5.73,1-2.3,2.66-6.65.87-8.72,4a3.91,3.91,0,0,0-3.13,1.92c-1.55,2.41-4.5,2.86-6.5,4.65a28.26,28.26,0,0,0-6.56,4.25,7,7,0,0,1-1.65,1.11,29.2,29.2,0,0,0-7,3.74,50.34,50.34,0,0,0-7,4,51,51,0,0,0-7,4,43.56,43.56,0,0,1-5,2.38c-1.78.52-3.25,2-5.31,1.73a2.82,2.82,0,0,1-2.12-1.83c1.13-4.58,6.08-4.21,8.76-6.78,9.51-5.87,19.3-11.26,29-16.81,2.45-1.37,4.84-2.84,7.31-4.17C155.87,55.94,158.07,52.51,162,53.94Z"/><path class="cls-150" d="M99,169.08c-.45,2.35.79,4.12,2,5.91L99,176.93,96.82,175c-2.27-.3-2.45-2.06-2.65-3.81a3.62,3.62,0,0,1,.41-1.43,3.51,3.51,0,0,1,2.48-1.56A2.19,2.19,0,0,1,99,169.08Z"/><path class="cls-151" d="M95,171c.39,1.46.56,3,1.85,4.07.08,1,.16,2,.25,3-1.77,1.66-2.71,4.59-6,3.87a3.81,3.81,0,0,1,0-2.76,11.2,11.2,0,0,1,.4-1.4c.72-3.16-.6-6.57,1.19-9.59C95.67,167.26,94,170.23,95,171Z"/><path class="cls-152" d="M91.94,179.84c-.3.68-.59,1.36-.88,2-4.11-1-1.67-4.89-3.17-7a1,1,0,0,1,.36-1.24,2,2,0,0,1,2,.27C91.68,175.63,90.91,178,91.94,179.84Z"/><path class="cls-91" d="M88.05,174a6.07,6.07,0,0,1-.16.85l-1.65.37-.28-.3c-.67-1.19-.42-2.46-.36-3.73a2.67,2.67,0,0,1,.75-1.1,1.65,1.65,0,0,1,2-.1,3.4,3.4,0,0,1,.6,1.31A3.19,3.19,0,0,1,88.05,174Z"/><path class="cls-153" d="M22,129.93a3.31,3.31,0,0,0,.06-.89c.11-.18.21-.36.31-.55a9.92,9.92,0,0,1,2-1.49c1.47-.9,2.88-1.89,4.41-2.68a58.6,58.6,0,0,0,5.23-3,5.56,5.56,0,0,1,1.39-.35,5.77,5.77,0,0,1,4.69,1.7,1.86,1.86,0,0,1,.1,1.41c-5,4.47-11.25,6.93-16.79,10.54a8.14,8.14,0,0,1-4.63,2.11c-5.12-2.44-1.05-4,.55-5.81C20.16,130.41,21.29,130.73,22,129.93Z"/><path class="cls-154" d="M20,131c.36,1.78-4.88,2.49-.95,5,.88,1.42-2.5,1.41-1,3l-1.12.07c-2.59-2.79-4.59-5.58.08-8.29A2.89,2.89,0,0,1,20,131Z"/><path class="cls-155" d="M13,129l2.08-1.07a4.35,4.35,0,0,1,4.13-2.37c1.55.65,5.07-.27,2.81,3.47l0,0c-2.41-1.59-4.68-1.06-6.89.47C14.25,130.16,13.2,131.34,13,129Z"/><path class="cls-156" d="M20,131l-3-.24c1.48-1.5,3.37-.53,5-.85C21.59,130.81,20.79,130.93,20,131Z"/><path class="cls-157" d="M18,139c-1.12-1.49.38-2.11,1-3l3.91-2c1.16-.58,2.08-.7,2.08,1-.25.39-.51.77-.77,1.16l-2.32,3.73C20.54,139.91,19.06,140.42,18,139Z"/><path class="cls-158" d="M174,112c-.82,2.25-1.48,4.57-2.49,6.73-1.22,2.58-2.8,3.77-4.5.26-1.3-1.88.11-3.23.9-4.71,2-2.34,1.71-5.27,2.14-8a3.52,3.52,0,0,1,.67-1.25c1.47-.7,2.12.23,2.69,1.34C173.19,108.27,173.91,110.11,174,112Z"/><path class="cls-159" d="M168.91,115c-.94,1.2-2.25,2.22-1.92,4a3.94,3.94,0,0,0-.05.91,1.05,1.05,0,0,1-1.9.08c-.26-4,1.66-7.44,2.9-11,1.63-.19,1.75.95,1.87,2.09C169.32,112.29,169.9,113.81,168.91,115Z"/><path class="cls-160" d="M166.05,120a6.73,6.73,0,0,0,.89-.1c.1,1.43,0,3,2.06,3.11,0,1.38-.05,2.75-.08,4.13l-1.07,0a1.75,1.75,0,0,1-1.31,0c-1.45-.48-3.29.34-4.39-1.29a1.64,1.64,0,0,1,.77-1.85C165.41,123.81,164.75,121.14,166.05,120Z"/><path class="cls-161" d="M174,112c-1.16-1.52-3.08-2.89-1-5.06.89-.6,1.55,0,2.25.43a5.68,5.68,0,0,1,1.72,2.54C177.9,113.37,175.07,111.46,174,112Z"/><path class="cls-160" d="M176.9,122.87c-.32.7-.65,1.4-1,2.09l-5-2C172.91,119.88,174.89,120.71,176.9,122.87Z"/><path class="cls-162" d="M176.94,109.91a3,3,0,0,1-2-1.92c-.36-1.42.52-1.52,1.54-1.45l.58.39A2.54,2.54,0,0,1,176.94,109.91Z"/><path class="cls-77" d="M180,104c-.12,1.83-1,2.9-2.93,2.93l0,0a1.06,1.06,0,0,1-.31-1.19c.8-1.11,1.53-2.35,3.24-1.75Z"/><path class="cls-163" d="M180,104l-3,2a1.33,1.33,0,0,1-2,0,21,21,0,0,0,1-8l4-2C180,98.64,180,101.31,180,104Z"/><path class="cls-164" d="M158.08,135.8l-1.1-1c-2.78-.2-5.07-1.68-7.47-2.89a64.91,64.91,0,0,0-5.7-3.35c-1.94-1.32-3.83-2.74-6.22-3.2-1.75-.93-3-2.49-4.38-3.81-.9-1.29-2.24-2.28-2.59-3.94a1.46,1.46,0,0,1,.73-1.12c4-.29,6.77,2.36,10,4,2.2,1.13,4.34,2.43,6.56,3.54,1.79,1,3.44,2.15,5.21,3.13.79.42,1.59.82,2.39,1.23,3.17,1.74,6,4.08,9.28,5.65.13-1.73.81-2.68,2.07-2.91l2,1.89c.06,1.31.11,2.63.17,3.95l-4,3.1C161.76,140.2,161,136.32,158.08,135.8Z"/><path class="cls-165" d="M166.82,131.16c-1.09,0-1.64.3-.8,1.38s2.55,1.87,1.37,3.25c-1.48,1.73-2.68-.4-3.76-1-3-1.72-5.82-3.78-8.71-5.7-.49-1.62.81-1.91,1.8-2.45a5,5,0,0,1,3.28.66,3.71,3.71,0,0,1,1.91,1.79C163,131,165.93,128.7,166.82,131.16Z"/><path class="cls-166" d="M161.91,129.07a2.21,2.21,0,0,1-2-1c1.95-2.65,4.63-1.28,7-1.28a2.19,2.19,0,0,1,.9.42Z"/><path class="cls-138" d="M7.86,108c-2.52-3.13,3.53-3.24,2.11-6-.87-2.83-.45-5.75-.35-8.61.07-2.17,1.21-1.87,2.35-.52l.13.1c3.47,2.85,1.63,7.26,3.09,10.73.48,1.12.15,2.56.23,3.85.08,2,1.22,4,.08,6.07-2.88,1.34-3.62-.71-4.38-2.75Z"/><path class="cls-167" d="M11.12,110.92,15,114.1a6.36,6.36,0,0,1,2.76,5.84,2,2,0,0,1-.86,1.19A19.68,19.68,0,0,1,10,111.89Z"/><path class="cls-167" d="M18.91,126.11l-3.81,1.8a10.12,10.12,0,0,1,1.87-5,4.6,4.6,0,0,1,2,1.52,1.77,1.77,0,0,1,.33,1.2Z"/><path class="cls-73" d="M19,125a1.91,1.91,0,0,1-2-2.07l-.09-1.78c.06-.41.11-.81.17-1.22C20,120.74,19.55,122.83,19,125Z"/><path class="cls-168" d="M99,16l1,.8c1.25,1.67,3.54-.08,4.92,1.38-.65,2.23-2.49.85-3.66,1.43,1.4.09,3-.72,4,1-.69,1.64-2.16,1.45-4.08,1.5,4.5.84,8.58.86,12.44,2.46-2.4-2-6.27.11-7.79-3.65,2.34-1.8,4.73-.79,7.09-.11A86.41,86.41,0,0,1,146.07,39c4.19,2.14,5.44,7.48,10,9.21.19,1.32-2.39,3.2.79,3.91-.38,2.84-2.89,2.76-4.8,3.51a2.83,2.83,0,0,1-1.35-.46c-7.39-9.87-16-18.2-28.11-22-3.86-.91-7.24-3-10.92-4.32C106.9,27.15,102,26,96.91,26.48a1.62,1.62,0,0,1-1.3-.8c.32-3-1.6-6.67,2.44-8.63Z"/><path class="cls-169" d="M152,55l4.88-3L161,48c.14,1.79,1.15,2.21,2.67,1.58s2.16-.19,2.29,1.34l-4,3c-3.41.42-5.7,3.31-8.95,4.08C151.66,57.38,151,56.49,152,55Z"/><path class="cls-170" d="M86,170.93a3.09,3.09,0,0,1-.05,4l-1.78,1.16C84.1,175,84,174,84,172.92a2.33,2.33,0,0,0-.07-1c-.2-.8.24-1.19.93-1.43A1.76,1.76,0,0,1,86,170.93Z"/><path class="cls-171" d="M77.87,15.89c1.36.36,2.91-.4,4.6,1-2.77-.06-5.15.91-7.37-.73Z"/><path class="cls-172" d="M98.05,17.05C95.32,19.55,96,22.83,96,26c2.25,2.54,1.32,5.64,1.43,8.52.14,3.78,0,7.57.05,11.36-.48,8.21.9,16.49-.83,24.67A1.21,1.21,0,0,1,95,71q0-25.1,0-50.19C94.92,18.68,95.05,16.69,98.05,17.05Z"/><path class="cls-98" d="M91.92,74c.32,0,.64,0,1,0L95,74c1.55-1.41,3.26-2.25,5.4-1.47,1.45,1.29.11,2.07-.53,3a6.17,6.17,0,0,1-2.1,1.8c-1.48.12-2.82-.57-4.27-.7S91,75.82,91.92,74Z"/><path class="cls-173" d="M100.9,73,95,74c0-1,0-2-.05-3,.33,0,.65,0,1,0a3,3,0,0,1,1.17-.74,3.71,3.71,0,0,1,4.07,2.12C101.09,72.6,101,72.82,100.9,73Z"/><path class="cls-174" d="M146.07,39c-4.73-2.9-9.41-5.9-14.22-8.65C123.79,25.69,115.47,21.72,106,21a.64.64,0,0,1-1,0c-1.28-1.78-3.44-.4-5-1.38,1.14-1.29,2.82,0,4-1-1-1.33-3.32.16-3.94-1.84l7.77.36c11.07,3.14,21.46,7.71,30.73,14.66A32.74,32.74,0,0,1,146.07,39Z"/><path class="cls-175" d="M81,74c-1.6.85-3.43,1.48-4.39,3.12-1.53,2.59-3.44,2-5.51.91-3.58-2.06-7.61-3.46-10.34-6.82-4.1-3.52-4-3.8-.3-7.9,5-5.54,11.4-9.1,18-12,2.93-1.29,7.19-2.87,10.42.68.33,4.77,0,9.54.18,14.3.15,3.38-.46,5.86-4.55,6C83.14,72.25,82.11,73.3,81,74Z"/><path class="cls-176" d="M91.92,74c1,3.29,4.94.06,6.13,2.85,1.06-.68,1.8-.32,2.34.71a2.17,2.17,0,0,1-.27,1.34,2.8,2.8,0,0,1-2.69.42c-1.59-.29-2.07.37-1.49,1.84.94,1.28,2.54,1.58,3.68,2.56a4.44,4.44,0,0,1,1.22,1.8,6,6,0,0,1-.52,5.17,1.6,1.6,0,0,1-1.34.41c-2.44-4.84-7.13-5.62-11.58-1.91a3.24,3.24,0,0,1-2.16,1,2,2,0,0,1-1-1.06c-2.08-5.7-2.07-5.69-7.3-3.76-.28.1-.61-.12-.87-.34,1.67-5.36,7-6.28,10.91-8.92A28.78,28.78,0,0,1,91.92,74Z"/><path class="cls-177" d="M74,86l1.17,0c1,1,1,2.22,1.15,3.44,0,1.93,1.81,3.5,1.17,5.58a28,28,0,0,0-.7,3.37c-1,4-2.66,4.64-6.86,2.92-3.33-5.5-3.3-10.92.46-16.23C71.93,84.14,73,84.87,74,86Z"/><path class="cls-178" d="M74,86l-3.24-.84a4.3,4.3,0,0,1-3.24-.72c-3.11-2.16-6.61-3.65-9.77-5.73-1.94-1.19-4-2.22-5.44-4.09C51.89,73.79,51.43,73,52,72h0c3.61-2,6,1.45,9,2.07a31.87,31.87,0,0,1,10,7C71.83,82.78,76.29,82.32,74,86Z"/><path class="cls-98" d="M89,26q0-4,0-8c2.15,3.08,1.52,6.9,1.41,10C90,41.4,90,54.75,90.11,68.1c0,4-1.28,5.46-5.1,4.88,3.41-1.94,3.51-5,3.63-8.58.25-7.76-1.14-15.41-1-23.14.24-4.57-.42-9.16.4-13.72A6.19,6.19,0,0,1,89,26Z"/><path class="cls-179" d="M75,90c.06-1.31.12-2.62.17-3.93l.91-1,.48-.11c2.2-.46,2.3-4.88,5.24-3.3s3.5,4.92,3.1,8.22a1,1,0,0,1-1.23,0c-1.19-1.86-2.15-4.35-5.07-2,.78,2.32,3.66,1.4,4.62,3.25a2,2,0,0,1-1.38,1.64C78.79,93.76,76.58,92.63,75,90Z"/><path class="cls-180" d="M89,41c0,8.49-.15,17,.13,25.45C89.23,69.85,88.29,72,85,73l-4,1c.29-.4.53-1.11.87-1.16C89.48,71.69,88,65.92,88,60.88q0-5,0-9.88c-1.65-3.16-2.73-6.34-.51-9.7A1.53,1.53,0,0,1,89,41Z"/><path class="cls-181" d="M71,81l-10-6c0-1.35-1.25-2.32-1.06-3.72A.84.84,0,0,1,61,71c3.42,2.25,7.59,3.41,10.08,7C67.53,78.87,71.63,80,71,81Z"/><path class="cls-174" d="M86,170.93l-1.26-.13c-1.07-.2-2.23.32-3.24-.4-.14-.17-.28-.34-.41-.52L60,164.05c-5.24-3-10.71-5.7-15.08-10-.13-1.33-2.38-2.48-.89-3.78s2.87.55,4.3,1c.65.33,1.28.68,1.91,1.05,9.52,6.79,19.7,12,31.33,14.3,2,.39,5.37.35,4.42,4.26Z"/><path class="cls-182" d="M48,152l-3.46-1.23c-1,1.26,2.05,2,.38,3.28A14.59,14.59,0,0,1,39,149a168.87,168.87,0,0,0-9.93-14l-.14-1c0-2.06,1.44-2.26,3-2.29,4.48,4.65,7.7,10.38,12.63,14.64C45.79,148.14,48.52,149.08,48,152Z"/><path class="cls-183" d="M29.05,135c1.42-.08,2.61.18,3.28,1.66a40.21,40.21,0,0,0,7.39,10.55c1.05,1.14.67,1.68-.74,1.8-4.21-2.88-6.64-7.37-10-11Z"/><path class="cls-184" d="M77.91,171l-2.8-.17c1.76-1.73,4-.42,6-1l0,0C80.76,172.4,79.2,171.35,77.91,171Z"/><path class="cls-185" d="M77.91,171c1.13-.15,2.41.13,3.16-1.12,1.29,0,2.69-.42,3.68.88l-.87,1.14h-5.8A7.27,7.27,0,0,0,77.91,171Z"/><path class="cls-186" d="M32.07,132.16,28.91,134a6.33,6.33,0,0,1-3.9,1,2.28,2.28,0,0,0-2.08-1A138.53,138.53,0,0,1,40,124c1.27-1.47,3.08-2.24,4.52-3.49a3.41,3.41,0,0,1,2.47-.81,2.24,2.24,0,0,1,1.32,1.42c-.13,1.73-1.75,2.41-2.59,3.65-1.19,1.3-2.83,1.94-4.23,2.94-1.09.74-2.23,1.39-3.37,2-1.6.83-3,2-4.72,2.65A1.82,1.82,0,0,1,32.07,132.16Z"/><path class="cls-187" d="M86,23c-.16,1.55,1.39,2,2,3-1.09,1.29-2.66,1.18-4.11,1.4A70.89,70.89,0,0,0,46.67,44.82c-3.14,2.79-5.44,6.24-8.23,9.29C37.26,55.4,36.33,57.34,34,56l-1-1c.75-6,5.71-9.1,9.35-12.86C51.64,32.55,63.38,26.8,76.2,23.38,79.29,22.56,82.7,22,86,23Z"/><path class="cls-188" d="M89,41H88l-.52-.51A7.94,7.94,0,0,1,86.8,37c0-.47,0-.94-.07-1.41-.19-4-2.9-3.3-5.4-2.83-15.86,3-28.7,11-38.74,23.56a21.55,21.55,0,0,1-2.93,3.39L39,60l-2-1.11c-1.49-2.55.6-4.08,1.85-5.61C50,39.58,64.09,30.67,81.6,27.46A34.54,34.54,0,0,1,89,27Z"/><path class="cls-189" d="M86,23c-4.61,1.86-9.62,1.29-14.44,2.78C55,30.88,42.79,41.25,33,55c-1.07-.09-2.25.12-2.93-1.05,3.13-1.66,4-5.2,6.24-7.59C45,37.22,54.83,29.48,66.88,25.32c6-2.07,12-4.71,18.6-4.29.85,0,2.24-.28,1.8,1.4C87.21,22.71,86.45,22.81,86,23Z"/><path class="cls-190" d="M89,27a183.36,183.36,0,0,0-19.62,4.93c-13.11,4.15-22,13.72-30.85,23.32-.83.9-1,2.4-1.48,3.62-1.33-.61-2.92-1-3-2.87,1.49,0,2.27-1,3.1-2.14,9-12.57,21.19-20.66,35.8-25.35A49.69,49.69,0,0,1,88,26h1C89,26.33,89,26.67,89,27Z"/><path class="cls-191" d="M52,71,36.9,61A2.31,2.31,0,0,0,39,60l0-.12c4.16-1.16,6.08,3.19,9.51,3.83a14.69,14.69,0,0,1,5.87,4,2.62,2.62,0,0,1,.08,2.09A2.79,2.79,0,0,1,52,71Z"/><path class="cls-192" d="M24,54c-1.45.13-2.33-.91-3.33-1.66s-2.9-1.07-2-2.64S20.9,49.59,22,50c.92.67,1.87,1.29,2.75,2C26.5,53.35,25.29,53.7,24,54Z"/><path class="cls-189" d="M29.13,49c1.49,1.44.67,3.29.88,5l-.48,0H29Z"/><path class="cls-193" d="M150,131.07a27.23,27.23,0,0,1,7,3.78c-1.27.82-.92,2.22-1.22,3.39-4.6,3.57-7.57,8.69-11.87,12.55-6,4.36-11.91,9-18.77,12.05-2.27,1-4.5,2.13-7.06,2.21l-.24-.67c3.84-3.83,9.29-4.79,13.68-7.76,8.65-5.87,15.06-11.49,19.07-17.42-9.74,13.06-24.28,22.67-42.21,26.79-3.6.82-7.75,1.91-11.62,0a2.1,2.1,0,0,1,.16-2.11c2.62-2,5.89-2,8.93-2.66C124.87,157.48,139.42,147.22,150,131.07Z"/><path class="cls-193" d="M115.92,166.9l-10,2.13-3.88-.11c0-.35-.07-.85.12-.93,5.06-2.09,10.2-3.8,15.82-3.06l.08.12C117.35,165.67,116.64,166.29,115.92,166.9Z"/><path class="cls-194" d="M118,164.93c-5.3,1.37-10.87,1.7-15.94,4l-3,.16-2-.14c-2-1.78-2-2,0-3,24.06-.93,42.14-12.64,56.47-31.42-.25,5.13-4,8.17-7,11.2a75.83,75.83,0,0,1-26.07,17.58A13.82,13.82,0,0,0,118,164.93Z"/><path class="cls-195" d="M107.78,174.16c-.73.39-1.15.79-1.43.71-.57-.16-1.34-.47-1.52-.93-.43-1,.58-1,1.1-.85A8.12,8.12,0,0,1,107.78,174.16Z"/><path class="cls-137" d="M12,92.92c-1-.28-2-.51-2,1.14,0,2.66,0,5.32,0,8-1.69-1.84-1-4.12-.93-6.18.11-3.64.61-7.28.94-10.92C13.84,86.81,11.3,90.27,12,92.92Z"/><path class="cls-196" d="M14.88,73.9q1-3,2-6.05c1.73-1.43,1-3.95,2.42-5.53,1.09-1.19,1.51-.62,1.78.58.9,1.25.35,2.42-.18,3.6-1.64,3.1-1.71,6.63-2.7,9.91-.52,1.71-.74,3.56-2.37,4.71-1,.28-1.36-.36-1.69-1.08L13.9,80C14.23,78,14.55,75.93,14.88,73.9Z"/><path class="cls-197" d="M14.08,107.93,12.1,93c1.56-2.46.74-5.49,1.93-8a1.11,1.11,0,0,1,1.55.44c1.69,4.43.62,9,.86,13.56C15.58,101.94,18.26,105.85,14.08,107.93Z"/><path class="cls-198" d="M15.05,85H14c.05-1.65.09-3.3.14-4.94l1,1.07A2.74,2.74,0,0,1,15.05,85Z"/><path class="cls-199" d="M34.3,122.16a9.77,9.77,0,0,1-5.13,3c-3.91-.19-4-3.58-4.72-6.08C21.31,108.39,21,97.47,21.92,86.47c1.34-2.4-.34-5.88,2.7-7.69,3,2.28-.15,5.34,1,7.67C25.53,79.09,29,68.52,33,64.09a5.68,5.68,0,0,1,4.19,1.62c-.07.22-.13.45-.19.67a33.87,33.87,0,0,0-5.23,11.2c-.63,2.72-.7,5.57-1.85,8.18C28.68,98.22,29.28,110.46,34.3,122.16Z"/><path class="cls-200" d="M34.3,122.16c-5.13-2.06-4-7.17-4.91-11-1.9-7.86-1.5-16-1.31-24A6.52,6.52,0,0,1,29,85c2.56,3.14-.55,6.85.66,9.79-.32-4.34.68-8.85,1.38-13.38a42.92,42.92,0,0,1,5.86-15.2,2.27,2.27,0,0,0,.27-.48C39.56,67,42.32,67.63,44,70a2.28,2.28,0,0,1-1.83.68c-3.07-.73-3.17,2.07-4.3,3.63a19.14,19.14,0,0,0-2,6.2c-.09.46-.21.91-.34,1.36-.45,1.66-.41,3.4-.87,5.06a85,85,0,0,0,3.13,32.34c0,1.84-1.61,2-2.72,2.73A5.71,5.71,0,0,1,34.3,122.16Z"/><path class="cls-201" d="M15.05,85l.09-3.88C18,76.49,17,70.58,20,66c1.8-.41,1.18-2.24,1.92-3.28,0-4,3.33-2.25,5.22-3L29,61a3.9,3.9,0,0,1-.86,1.08c-3.93,4-4.66,9.44-6.35,14.44-.68,2.78-1.08,5.61-2,8.34-.64,9-.83,18,.58,27,.35,2.24,1.26,4.49,0,6.74-3.53.61-3.12-2.48-3.69-4.26-1.62-5-.76-10.36-1.65-15.5Z"/><path class="cls-202" d="M28,61.05l1,0c.92.75,2.47.62,2.91,2.06C29.5,68.32,28.76,74.3,25,79c-2.29,1.86.25,5.11-2,7-1.51-1.3-1.17-3.26-1.78-4.88C21.06,75.6,23.89,71,25.66,66A44.78,44.78,0,0,1,28,61.05Z"/><path class="cls-203" d="M25,79c2-5.44,2.59-11.49,6.87-15.94l1.09,1c-2.73,7.48-5.88,14.83-8,22.75Z"/><path class="cls-204" d="M42,70h2l3.59,1.16c1,.27,1.89.67,1.49,2a3.18,3.18,0,0,1-2.71.61c-2.21-.83-2.68.78-3.33,2.29-.74,1.72-.57,3.86-2.33,5.12a1.26,1.26,0,0,1-1.23-.49,13.35,13.35,0,0,1-1.22-4.2C38.89,74,38.24,70.7,42,70Z"/><path class="cls-205" d="M52,71A2.15,2.15,0,0,1,54.06,70c2-1.4,3.67,0,5.46.49L60,71c-.36,1.51,4.1,1.88,1,4C57.72,74.77,55.36,71.94,52,72,52,71.67,52,71.36,52,71Z"/><path class="cls-206" d="M49.36,72.82l-1.74-1.68L52,72c.28.79.55,1.58.83,2.36a2.22,2.22,0,0,1-1.8.15A2.68,2.68,0,0,1,49.36,72.82Z"/><path class="cls-207" d="M22,62.73C21.42,63.88,23.62,66.65,20,66c.35-1,.71-2.07,1.07-3.11A3.06,3.06,0,0,0,22,62.73Z"/><path class="cls-208" d="M167,126.74c-2.35.4-4.92-.38-7,1.28l-2.9-1a31.36,31.36,0,0,1-4.22-1.45,7.39,7.39,0,0,1-2.33-1.44c-.54-.79-1.16-1.58-.2-2.49,3.37.3,5.2-1,6.32-4.47a97.94,97.94,0,0,0,3.66-14.88,34.12,34.12,0,0,0-.17-12.38,12.58,12.58,0,0,1-.31-5.44,23.16,23.16,0,0,0-.44-13.22A3,3,0,0,1,160,68c4.63,6.85,5.11,14.93,5.83,22.65,1,10.89.34,21.8-4.49,32-.33.71-2.35,2.92.82,3.19C163.72,126.33,165.55,125.37,167,126.74Z"/><path class="cls-202" d="M160,68c.37,1.6.7,3.21,1.09,4.8.8,3.26,1.6,6.18.24,9.84-1.73,4.67,1.33,9.72.67,14.7-.25,1.9.73,4-1,5.65-2.68-4.68-1.38-10-2.18-15-.93-5.73-1.87-11.37-4.21-16.7-.93-3-2.45-5.5-5.74-6.39,1.81-2.23,4.47-3,7-4C158.5,62.51,159.25,65.25,160,68Z"/><path class="cls-209" d="M169.09,111.1a2.46,2.46,0,0,0-1.15-2.17c1.68-7.6.82-15.33,1.16-23,1.74-2.13.54-4.63.89-6.93,2,6.5,2.17,13.18,1.91,19.9.49,2.15.76,4.26-.9,6.09a3.23,3.23,0,0,0,0,.93C169.45,107.32,172,110.19,169.09,111.1Z"/><path class="cls-210" d="M166.05,120c-.52,1.74,1.11,5.17-3.13,4l2.12-4Z"/><path class="cls-211" d="M171,105c.22-2-.7-4.25.9-6.09,4.19,1,.5,5.4,3.1,7.07l2,0,.06.92A2.3,2.3,0,0,0,175,108l-2-1A3.3,3.3,0,0,0,171,105Z"/><path class="cls-212" d="M114.94,84l4.71-2.13a13.33,13.33,0,0,0,2.71-1.25c6.8-3.39,8.32-3,10.67,4.44a34.48,34.48,0,0,1-1.18,24.32,2.13,2.13,0,0,1-2,1.17,1.81,1.81,0,0,1-1.28-.81c-1-3,1.29-5.37,1.22-8.22-.84,2.7-.42,6.26-4.13,7.28a5,5,0,0,1-1.49-.1c-2.64-1.25-5.58-2-7.46-4.53a3.46,3.46,0,0,1-.14-1.43,24.07,24.07,0,0,1,1-3.33c.56-1.54-.24-4.47,2.24-4.18,2.21.26,2.13,2.93,2.35,4.81,1.45-4.21-.35-8.22-1.31-12.33-.82-3.5-3.87-1.53-5.73-2.44a.94.94,0,0,1-.32-.82Q114.84,84,114.94,84Z"/><path class="cls-213" d="M141,70l1.07-1c1.4-1,2.5-.2,3.61.6a7.27,7.27,0,0,1,1.49,2A83.56,83.56,0,0,1,150.45,102a41.41,41.41,0,0,1-3.5,13.12c-.72,1.64-1.37,3.37-3.46,3.76-2.58.08-4.73-.63-5.78-3.27A27.31,27.31,0,0,0,142,105.49c.11-.45.25-.89.39-1.34,1.75-9.67,3.62-19.3-.94-28.82A6.62,6.62,0,0,1,141,70Z"/><path class="cls-214" d="M145,70l-2.93-1a14.67,14.67,0,0,1,6.8-4.09c4.8-1.65,5.2,2,6.13,5.07,5.8,15.69,4.15,31.32-.39,46.93-.91,3.12-3.16,4.53-6.15,5.07-1.81,0-3.22-.6-3.73-2.51,4.54-2,5.08-6.26,6.33-10.41,3.69-12.28,3-24.29-1.29-36.21C149,70.71,148.32,68.05,145,70Z"/><path class="cls-215" d="M131,110c.63-5.17,2.49-10.11,2.16-15.52a37.91,37.91,0,0,0-2.22-11.52c-1.36-3.52-3.15-4.84-6.67-2.62-1.36.87-2.82,1.8-4.61,1.54a19.75,19.75,0,0,1,7-4c7.62-3.52,7.72-3.52,11.06,4.38,2.89,6.85,1.53,14.06,1.52,21.14-1,3.13-1.12,6.65-4.12,8.83-2.21-.28-2.06-1.87-1.63-3.31a59.49,59.49,0,0,0,1.24-6.71C133.53,104.8,135.36,108.88,131,110Z"/><path class="cls-216" d="M138,104c0-4.64-.21-9.29.06-13.91.28-5-2.89-8.63-4.28-12.95-.49-1.52-1.82-1-2.93-.53-1.35.58-2.6,1.51-4.21,1.26a16.45,16.45,0,0,1,7-4c3-1.84,5-1.42,6.54,2.05A38,38,0,0,1,144,92.72,98.81,98.81,0,0,1,143,105h0c-1.05,1.51-2.6,1.48-2.62-.22C140.34,101.2,138.54,104.84,138,104Z"/><path class="cls-217" d="M146.13,62.06,117,79a6.92,6.92,0,0,1-5.39.67c-1.35-3.66,2.52-3.41,3.81-5.09,2.49-1.2,4.78-2.76,7.18-4.11a27.19,27.19,0,0,0,4-2.19c1.08-.74,2.23-1.4,3.37-2.07,2.75-1.55,5.34-3.37,8-5.12A10.34,10.34,0,0,1,142.2,60,4.61,4.61,0,0,1,146.13,62.06Z"/><path class="cls-218" d="M143,105c-1-7.75.91-15.69-1.83-23.42-.89-2.52-2.54-4.55-3.3-7.1s-2.87.14-4.24-.61A12.77,12.77,0,0,1,141,70C146.21,81.4,147,93.05,143,105Z"/><path class="cls-219" d="M114.94,84a2.24,2.24,0,0,1-.2.92,22.85,22.85,0,0,1,1.26,12,11.28,11.28,0,0,0,.88,6.17c.06.29.14.58.22.87-1,1.56-2.48,2-4.16,2.09a11.21,11.21,0,0,1-6-1.91,3.19,3.19,0,0,1-.5-3,8.49,8.49,0,0,0,1.15-5.58c-.12-1.37-.79-3,1.06-3.82,2.92.77,2.09,3.29,2.38,5.07a10.28,10.28,0,0,0-1.72-7.2,3.33,3.33,0,0,1,.69-3.52Z"/><path class="cls-173" d="M110.7,78.79,117,79c-2.45,2.68-6.58,2.76-8.81,5.76l-.44.48c-1.43-.16-2.19-1.28-3.12-2.16a8.11,8.11,0,0,0-4.19-3.55L100,79l0-1c1.55-1.64-.56-2-1-3L100.9,73l.31-.31c2.15-.88,3.58.55,5.15,1.57C107.82,75.78,109.54,77,110.7,78.79Z"/><path class="cls-220" d="M109,92c-1.7,1.55.42,3.06,0,4.64s.82,3.87-2,4.42c-3.36-.51-2.45,3-4,4.22a3.18,3.18,0,0,1-3.44-.44,1.87,1.87,0,0,1-.82-1.9c2.28-3.29,5.22-6.42,3-11,3.22-1.22,5.9-2.94,6.12-6.86l.21-.38L110,86.07,110,90C110.52,91.1,109.88,91.6,109,92Z"/><path class="cls-221" d="M146.13,62.06l-4.26-1.14a1.22,1.22,0,0,1,0-1.24A29.84,29.84,0,0,1,146.6,56c1.4-.57,2.66-1.82,4.38-1l1,0,1,3A24,24,0,0,1,146.13,62.06Z"/><path class="cls-222" d="M97,166c-1.55,1-.27,2,0,3l-1.65,1c-2.59-3.5-1.55-7.55-1.72-11.4-.13-2.8,0-5.61-.1-8.41-1-2.93,0-5.85.07-8.77.05-6.23,0-12.45,0-18.67a16.75,16.75,0,0,1,.42-4.46,3.14,3.14,0,0,1,1-1.44,1.91,1.91,0,0,1,1.52.86c1.5,4.11.46,8.39.81,12.58,0,9.07,0,18.15,0,27.21-.2,1.9,0,3.82-.3,5.72,0,.26-.09.52-.14.79Z"/><path class="cls-223" d="M94.94,149q.19,10.48.41,21c-.13.33-.25.67-.38,1-.64-1-1.28-2-1.91-3-2.6-3.92-1.15-8.22-1.17-12.38C93.25,153.57,91.48,150.07,94.94,149Z"/><path class="cls-224" d="M93,154.92q0,6.54,0,13.08c-.56,3.64,1.06,7.49-1,11-1.45-1.56-.78-3.57-1.14-5.36-.63-7.18-.09-14.38-.29-21.57,0-5.91,0-11.83,0-17.74.19-4.61-.32-9.24.34-13.84a3.86,3.86,0,0,1,1-1.6c1.24-.1,1.65.73,1.92,1.71C94.11,132,94.28,143.5,93,154.92Z"/><path class="cls-225" d="M92,173.94c0,1.68,0,3.36.07,5,0,.29-.06.57-.08.86-2.78-1.23-1.71-3.76-2-5.84A1.38,1.38,0,0,1,92,173.94Z"/><path class="cls-226" d="M92,173.94,90,174H88.05c0-1,.1-2,.14-3a6.63,6.63,0,0,0,.37-2.38c.66-5.51-1-11.16,1.09-16.57A1.62,1.62,0,0,1,92,152Q92,163,92,173.94Z"/><path class="cls-208" d="M86,170.9c-.79-3.62-4.18-3.07-6.45-3.48C68,165.34,58.34,159.56,49,153c1-1.89,2.11-3.56,4.5-3.72a10.74,10.74,0,0,1,4,1.87c8.56,5.64,17.71,9.75,28.07,10.7a3.57,3.57,0,0,1,3,1.53c.47,2.24.87,4.49-.56,6.57Z"/><path class="cls-227" d="M88.05,169.91l-.09-7c-1.24-1.43-1.37-3.16-1.34-4.94-.13-2.29,0-4.57,0-6.86-.09-1.73,0-3.47,0-5.2s-.09-3.7,1.56-5a1.26,1.26,0,0,1,1.52.73c1.45,4.07.18,8.06-.18,12.11-.47,5.37.45,10.8-.47,16.18L88.19,171C88.15,170.64,88.1,170.27,88.05,169.91Z"/><path class="cls-228" d="M22,81c1.67,1.4.75,3.32,1,5-.19,11.7-.4,23.4,3.41,34.7.56,1.66.71,3.66,2.74,4.44-1.61,1-3,2.52-4.94,2.93a9.74,9.74,0,0,0-2.74-2.16c-1.36-2.1-2.85-4.18-1.51-6.87-2.3-9.86-2.1-19.89-1.94-29.92,0-1.74-.62-3.67,1-5.14,1.8,1.74.62,4,1,5.76.1-2.68-.51-5.71,1.42-8.32Z"/><path class="cls-229" d="M35.12,122,37,120c1.45-1.88,3.67-2.58,5.63-3.68,1.85-.77,3.49-1.95,5.26-2.87a2.54,2.54,0,0,1,1.93.16c.75,1.16.51,2.49.69,3.76-.59,1.66-1.4,3-3.51,2.67l-2,1c-1.6.79-2.94,2.24-5,2Z"/><path class="cls-167" d="M22,125.91a2.34,2.34,0,0,1,2.27,2.15A2.31,2.31,0,0,1,22,129c1.22-3.4-2.79-1.18-3.13-2.9.11-.13.23-.26.35-.38A2.06,2.06,0,0,1,22,125.91Z"/><path class="cls-230" d="M40.07,123c1.63-.7,3-2,5-2-1.09,2-3,2.6-5,2.94C40,123.65,40.05,123.33,40.07,123Z"/><path class="cls-211" d="M169.09,111.1c1.53-1.4.24-3.82,1.87-5.18.09,3.19.33,6.41-2.05,9Z"/><path class="cls-231" d="M150,131.07c.47,5.5-4.18,8.15-7.11,11.25-12.36,13.1-27.93,20-45.85,21.64h0c-.93-1.42-.34-3-.46-4.5,1.77-2.51,4.66-2.25,7.17-2.74,15.25-3,28-10.17,37.88-22.32,1.27-1.56,2.57-3.12,1.92-5.37a1.85,1.85,0,0,1,.57-1.28C146.46,128.14,148.12,129.79,150,131.07Z"/><path class="cls-232" d="M134,121.08l4,3.65a3.5,3.5,0,0,1,1.61,1.68c.39,2.42-1.08,4.05-2.45,5.73-8.15,10.07-19.34,15.41-31.13,19.65a10.23,10.23,0,0,1-9.14-.67,9.41,9.41,0,0,1-.25-3.73c2.82-2.84,6.63-3.62,10.24-4.41,10.22-2.23,17.83-8.29,24.63-15.77,2-2.17.47-3.53-.82-5a2.31,2.31,0,0,1,.12-2.11C132.19,119.23,133,120.44,134,121.08Z"/><path class="cls-233" d="M139,126l-1.06-1.26c2.77-.47,4.33,1.55,6.17,3,0,.41-.07.82-.1,1.23-.38,5.14-4.2,8.26-7.51,11.19-8.88,7.86-19,13.81-30.76,16.41a30.51,30.51,0,0,1-5.93.5c-1.72,0-3.4-.43-3.19-2.81.91-1.57,2.53-1.29,4-1.55a63.27,63.27,0,0,0,36.9-20.64C139,130.41,140.84,128.61,139,126Z"/><path class="cls-234" d="M144.78,119.09A3.76,3.76,0,0,0,148,121c.49.62,1.52.25,1.91,1l1.28,1.79c-.66,1.49-1.69,2-3.2,1.19-6.08-1.82-10.78-6.45-16.88-8.22a2.31,2.31,0,0,1-2.73-1.9c-.16-1.76.84-2.7,2.34-3.28a4.21,4.21,0,0,1,3.32.83c1.39.7,3.08,1,3.81,2.62a8.8,8.8,0,0,0,5.1,3C143.41,118.6,144.44,118.22,144.78,119.09Z"/><path class="cls-235" d="M129,115l2.06,1.83L131,118a2.57,2.57,0,0,1-1.92.91,3.8,3.8,0,0,1-2.61-1,7.81,7.81,0,0,0-5-2.83c-1.54-.37-3.06-.76-4.56-1.25-2.28-1.48-4.25-3.39-6.57-4.82-1.4-1.35-4.06-1.64-3.74-4.44L107,104c2.12-.4,4,.68,6,1,4.61.52,8.15,3,11.42,6.06A26.43,26.43,0,0,1,129,115Z"/><path class="cls-236" d="M147.94,125l3.2-1.18,1.9,1.07a2.26,2.26,0,0,1-.08,3.13C150.89,127.71,149.47,126.28,147.94,125Z"/><path class="cls-237" d="M153,128.05c0-1,0-2.08.08-3.13,1.69,0,3.2.33,4,2.09l-2.08,2.06Z"/><path class="cls-238" d="M128.69,118.16,131,118a5.76,5.76,0,0,1,3,3.11L131,120C129.77,120,128.86,119.52,128.69,118.16Z"/><path class="cls-239" d="M22,125.91l-2.7-.18A2.21,2.21,0,0,0,19,125l-1.92-5.07L15,114.09c.47-2.16-.71-4.09-.9-6.16,2-2.83.36-6.08,1-9.07,1,5.07,2,10.15,3,15.21.36,1.74.63,3.55,1.88,5Z"/><path class="cls-240" d="M151,55l-4,2c-6.55-5.94-12.1-13-20.14-17.24a9.59,9.59,0,0,0-4.21-1.83c-1.53-.48-3.11-.87-4.23-2.15-1.12-2.52-2.17-5,2.41-3.12A1.84,1.84,0,0,0,123,32c6.23,1.11,11.06,5,15.82,8.64,4,3.09,7.35,7.12,11,10.71A4.36,4.36,0,0,1,151,55Z"/><path class="cls-241" d="M123,32c-.4,2.49-1.66,2.11-3.37,1.18-1-.54-1.1-.32-.63,1.83-1.65,1.32-3.34.2-5,.08-4-1-7.94-2.2-12-2.86-1.56-.26-3.46-.87-3.62,1.81,0,.7,0,1.39,0,2.09,0,1.19,0,2.38,0,3.58A29.66,29.66,0,0,1,98,44.77a3.58,3.58,0,0,1-.67,1.3A1,1,0,0,1,96,46q0-10,0-20h1l.66.21c4.56.61,9.11,1.34,13.69,1.82l.69,0C116.05,28.31,119.06,31.41,123,32Z"/><path class="cls-242" d="M105,21l1,0,9.07,3.36c-5.89-.49-11.86,0-18.7-2.33C99.93,20.48,102.54,21.23,105,21Z"/><path class="cls-241" d="M97,26c5.4-2.21,10.21,0,15,2l0,.05a36.87,36.87,0,0,1-15-2Z"/><path class="cls-243" d="M96,46h1c1.44,1.34,1.34,3.12,1.39,4.85s.07,3.44,0,5.16a27.25,27.25,0,0,1,0,3.5C98,63.3,99.63,67.36,97,70.9L95.94,71Q96,58.5,96,46Z"/><path class="cls-244" d="M99,75c1.45,0,3.28-.1,3.52,1.71S101,77.78,100,78l-2-1.09A1.92,1.92,0,0,1,99,75Z"/><path class="cls-245" d="M97,70.9c0-4,0-7.93,0-11.89,6.83,3.78,14.4,6.29,20.22,11.8a1.84,1.84,0,0,1-.7,2.52c-.53,1-3-1.81-2.68,1.65.21,2.45-2.63,2.35-4.49,2.08-1.26-.19-2.24-1.31-3.27-2.11l-4.92-2.22Z"/><path class="cls-246" d="M54,68,48,64.9c-.65-.66-.32-2.12-.67-2.24-5.08-1.65-2.48-4.29-.69-6.36A61.44,61.44,0,0,1,83.33,35.37C85,35.08,86.6,34.61,88,36c0,.33,0,.66,0,1-1.5,3.13-4.61,2.8-7.29,3.4A55.28,55.28,0,0,0,54.2,54.94,57.69,57.69,0,0,1,82.37,40.32c1.92-.42,3.93-1,5.64.67h0c-1.37,3.33.56,6.67,0,10-12.71.79-22,7.47-29.47,16.73-1.79,3.69,7.3-2.8,2.47,3.27H60A14,14,0,0,1,54,68Z"/><path class="cls-247" d="M99.17,90.86a3.55,3.55,0,0,0,.92,0l.56.46c1.2,1.93,2.33,3.87.56,6.08,0,3.64-2,5-5.39,4.93-3.15,0-6.33.35-9.43-.27-4-.81-5.13-3.34-3.06-6.91s3.66-7.3,8.73-7.83C95.53,86.92,97.8,87.67,99.17,90.86Z"/><path class="cls-248" d="M99.17,90.86c-5.48-4.45-10.54-3.27-13.34,3.08a12.42,12.42,0,0,1-1.49,1.9c-1.79,2.5-1.34,4.57,1.78,4.9a84.22,84.22,0,0,0,11.89.15c3.24-.12,1-3.88,3-5,.7,2.89,2,6-2.58,6.9-3.07,1-6.24.35-9.36.55-1.83-.2-3.62.43-5.45.28-2.28-1-4.6-1.92-5.18-4.75a3.14,3.14,0,0,1,.42-1.33c1.57-2.14,3.62-3.94,4.66-6.47a1.23,1.23,0,0,1,.58-1.1,3.56,3.56,0,0,0,.86-.11c2.55-5,7.56-4.11,11.71-4.37C100.12,85.31,98.54,88.93,99.17,90.86Z"/><path class="cls-249" d="M107.94,85.1c1.26,5.16.15,6.46-5.94,6.9-1.16.62-1.43-.48-2-1l.08-.15L100,85a1.92,1.92,0,0,1,1.26-.55,2.45,2.45,0,0,1,2.08,1.68c0,.58-.17,1.67,0,1.65,1.15-.09.53-1.12.7-1.77a4.48,4.48,0,0,1,.47-2.69l.52-.47C106.62,82.83,107,84.35,107.94,85.1Z"/><path class="cls-250" d="M101.05,84.94,100,85l-1-1c-.94-1.44-2.69-1.27-4-2-1.29-1.21-1.45-2.8-.3-3.88,1.91-1.79,3.38,1.35,5.3.87l0,0c1.14,1.21,3,1.73,3.32,3.71C103,83.91,101.88,84.3,101.05,84.94Z"/><path class="cls-249" d="M95,82c1.56.21,3.72-.77,4,2A5.81,5.81,0,0,1,95,82Z"/><path class="cls-251" d="M68,84a3.5,3.5,0,0,1,2.84,1.15c-1.73,5.33-2.64,10.66-.17,16-1.52,4.23-5.27,5-9,5.89-2.88-1.19-5.7-7-5.29-10.93a14.71,14.71,0,0,1,.6-2.92c-.21.63.07-.19,0,0-.87,3.16-2.3,5.6-3.86.65-1.42-4.51-.39-9.41,1.93-13.5,2.53-4.45,4.87-.41,7.18.84-.07,3.12-1.59,5.92-2.14,9,1-2.74,1.27-5.67,2.71-8.2C64.91,81.61,66.22,83.35,68,84Z"/><path class="cls-252" d="M62.16,106c3.26-.85,5.85-2.88,8.46-4.85,3.76.94,5.77-.14,4.84-4.34-.31-1.42.46-1.7,1.51-1.89,1.28-.69,2.23,0,3.15.78.49,1.18-.37,1.67-1.14,2.2h0c-1.36,3.17,1.62,3.44,3.13,4.69.93,1.18,2.53,1,3.66,1.77,1.17,1.21,2.35,2.42,2.46,4.25-1.16,1.78-3,1.52-4.73,1.52-3.37-.07-4.51-3.26-6.79-4.86-4.34,0-7.43,3.22-11.33,4.33-2.32,1-4.77,2.41-5.62-1.64a1.77,1.77,0,0,1,.08-1.2C60.55,106.38,61.47,106.59,62.16,106Z"/><path class="cls-253" d="M80,96l-3-1-2-5a8.66,8.66,0,0,0,7,2.06C83.11,94.26,81.34,95,80,96Z"/><path class="cls-254" d="M62.16,106l-1.85,1.07a28.48,28.48,0,0,1-4.22,2.78c-1,.41-1.91.72-2.78-.19-2.66-3.69-1.12-8.06-2-12-.36,1.37.07,3.78-1.73,3.94-2,.16-2.34-2.32-2.31-3.77.14-6.25.06-12.55,2.49-18.54,1.4-3.46,3.09-5,6.46-2.1.47.41,1.29.25,1.83.67C61.53,79.73,65.22,81.09,68,84c-2.08.4-3.37-1.17-5-2a.59.59,0,0,1-1,0c-5.45-4.18-5.32-4.14-7.14,2.62a25.86,25.86,0,0,0-.45,11.17c3-2.24.2-6,3-8.23a5.82,5.82,0,0,1,.37,5.24c-2.65,4.7,2.58,8.12,1.75,12.5C59.39,106,61.2,105.92,62.16,106Z"/><path class="cls-255" d="M58.1,78c-6.45-1.15-6.69-1.14-8.19,6-1.16,5.55-2.13,11.2-.53,17.72,1.34-3.34-.33-6.47,1.76-9.17,3.07,5.73.79,12,2.89,17.45-1.89,3.29-4.42,3.33-6,.23-2.22-4.38-3.33-9.19-1.64-13.73-2.63,2-3.21,1.79-3.66-2-.72-6.06.59-11.87,2.58-17.52.89-2.56,2.65-4.22,5.72-3l1.8.39Z"/><path class="cls-256" d="M84.07,90a6.14,6.14,0,0,0-.12.86c-.24.63-.58.68-1,.15L82,91c-2.34-.12-5.21-.22-5.37-3.09-.13-2.39,2.75-2,4.36-2.2C84.26,85.24,84,87.87,84.07,90Z"/><path class="cls-177" d="M83,91l1-.15c-.55,3.13-1.89,5.72-5,7.07l1-2c.57-1.38,2.08-2.26,2.06-3.94Z"/><path class="cls-257" d="M53,150c-1.92.22-2.22,2.6-4,3l-1-1c-1.33-1.66-2.66-3.33-4-5-3.58-5.15-7.29-10.21-11.19-15.12,1.58-1.23,3.1-2.59,5.15-3A2.28,2.28,0,0,1,38.6,130c1,5.91,6.28,8.8,9.36,13.25C49,146,53.41,146.17,53,150Z"/><path class="cls-258" d="M32.81,131.87c5,1.07,5.43,6.28,8.14,9.41,1.27,1.47,4.86,2.39,3,5.71a41.87,41.87,0,0,1-11.93-14.83A1,1,0,0,1,32.81,131.87Z"/><path class="cls-259" d="M41.06,127.1l4-3a1.48,1.48,0,0,1,1.9-.36c.73,6,6.35,8.6,9.28,13.08,7.71,6.48,16.15,11.31,26.47,12.06,1.83.13,3.61.56,4.68,2.33-.22,4.13-3.35,3.15-5.5,2.72C76,152.7,70.1,151.24,65,148.14a47.87,47.87,0,0,0-11.72-5.09c-5.22-2.67-8.56-7.23-11.8-11.87C40.65,130,39.82,128.6,41.06,127.1Z"/><path class="cls-260" d="M41.06,127.1C43.17,133.57,48.13,137.74,53,142c1.43,1.65,4.73,1.86,4,5.18-3.34,1-6.22.35-8.44-2.5C45.31,139.57,41.05,135.19,38,130l0-1.12Z"/><path class="cls-261" d="M47,120.07l3.1-3c2.54-3.91,6.36-5.51,10.78-6,1.28,0,2.58,0,3.32,1.32a2.65,2.65,0,0,1-.64,2.07c-2.42,2.79-5.91,3.86-9,5.58A16.25,16.25,0,0,1,50,121.78,2.48,2.48,0,0,1,48,121Z"/><path class="cls-230" d="M48,121l2.31.15c-.18,2.08-1.43,2.8-3.36,2.66l-1.93.26C45.36,122.38,47.25,122.22,48,121Z"/><path class="cls-262" d="M88,36C70.08,38,55.73,46.09,44.77,60.73c2.21,1.29,2.93-2.6,4.52-.67S47.56,63,48,64.9l-9-5C44.79,49.29,54.09,42.67,64.35,37c5.62-3.12,11.73-4.34,17.8-5.78C85.93,30.29,88.87,31,88,36Z"/><path class="cls-180" d="M88,41c-10.93,1-20.9,4.39-29.26,11.78a23.14,23.14,0,0,1-9,5.37c4.75-6.07,10-9.62,15.46-13.08C72.22,40.59,80.52,40,88,37Z"/><path class="cls-263" d="M54,68c2.62-.23,4.06,1.91,6,3-2.1.33-4-.65-5.94-1Z"/><path class="cls-264" d="M36.91,66.19C36.19,71.42,33.34,75.94,32,81c-2.65-.75-1.38-2.47-1-4C32.16,72.94,32.42,68.41,36.91,66.19Z"/><path class="cls-265" d="M31,77c.17,1.37-.47,2.94,1,4,.24,5.12-2,9.83-3,14.85V85C30.24,82.46,29.28,79.38,31,77Z"/><path class="cls-266" d="M43.17,117.06A13.47,13.47,0,0,1,37,120c-4.35-9.91-4.09-20.42-4-30.91C33,88,33,86.79,34,86c2.13,2.87.49,6.12.76,9.74.32-3.75.05-6.94.73-10.08a6.38,6.38,0,0,0,.1-1c.65-2.78-.45-6.33,3.42-7.67,1.47,1,.86,2.61,1,4a10,10,0,0,1-.21,4.61C38.58,96.33,38,107,43.17,117.06Z"/><path class="cls-267" d="M39,77c-1.92,2.35-2.08,5.15-2,8-1,1.21-2,1.91-2.4-.31A4.6,4.6,0,0,1,35,81h0c.88-2.27,1.17-4.71,2-7,1.58-1.43.23-6.51,5-4C40,71.88,39.73,74.53,39,77Z"/><path class="cls-204" d="M35,81c1,1.17-2.06,4.35,2,4-1.54,3.45-.2,7.54-3,11.9V86C34.26,84.29,33.36,82.38,35,81Z"/><path class="cls-204" d="M37,74a10.16,10.16,0,0,1-2,7A10,10,0,0,1,37,74Z"/><path class="cls-268" d="M28,61.05c.31,5.16-3.27,9.07-4.48,13.76C23,76.86,21.76,78.74,22,81l0,0c-2.62-1.21-1.35-3.2-1-5C22.44,70.57,22.81,64.69,28,61.05Z"/><path class="cls-269" d="M21,76c.29,1.68-.67,3.6,1,5q-.81,6.63-1.63,13.26L19,94.11V84C19.57,81.27,19.52,78.43,21,76Z"/><path class="cls-270" d="M39,85c.14-1.38-.45-3,1-4v0c2,1.93-.48,4.07.38,5.34,1.19-4.22.9-9.81,5.62-13.36l3.33-.16L51.05,74c-2.66-.3-4,1.22-4.69,3.5-1.81,6.34-3.18,12.74-2.06,19.47,1.37-.63.18-2.79,2.09-3.09.61,0,.6.61.58,1A53.14,53.14,0,0,0,48,107.2c.72,3.86,2.4,5.32,6,2.74l2-1a.77.77,0,0,1,1.22,0c-.94,3.89-4.12,4.41-7.33,4.89l-1.73.16c-3.36,1.59-4.67-.78-5.38-3.2-1.3-4.39-2.56-8.8-1.59-13.57.5-2.47-.58,1-.75-.07a1.66,1.66,0,0,1-2.15-1.95C38.89,91.84,37.88,88.34,39,85Z"/><path class="cls-271" d="M46,73c-2.15,4.79-4.5,9.51-6,14.83V81c.93-2.53,1.8-5.08,2.82-7.58C43.58,71.62,44.59,70.4,46,73Z"/><path class="cls-272" d="M149.86,122.05,148,121c3.33.2,4.61-1.84,5.42-4.68,4.2-14.82,5.47-29.73,1.7-44.84A8.22,8.22,0,0,1,155,70c3.47,4.5,4.1,10,4.86,15.29C160.7,91.12,161.49,97,161,103c.2,6.84-2.63,12.92-5,19C154.39,126.22,151.94,120.89,149.86,122.05Z"/><path class="cls-273" d="M116.88,103.06c-1.76-.34-3.54-1.12-2.81-3.15a20.13,20.13,0,0,0-.15-13.42,1.34,1.34,0,0,1,.82-1.59c6.45-1.6,6.35-1.58,8.19,5.31,1.1,4.09,1.52,8.09,0,12.16-.32.86-.69,1.56-1.7,1.34-1.18-.27-.87-1.15-.64-2,.59-2.15.78-4.22-1.26-6C118.66,98.31,119.5,101.3,116.88,103.06Z"/><path class="cls-274" d="M124,111.91c-3.24-3-7.37-4.57-11-6.91l4.11-1.07,7,4C125,109.24,125.23,110.58,124,111.91Z"/><path class="cls-216" d="M134,113l-3-1c-1.68.42-2.15-.47-2.09-1.94L131,110c2.51-2.41,2.54-5.8,3.45-9.22,1.87,3.92-1.06,7.69.56,11.23C135.16,112.8,135.1,113.4,134,113Z"/><path class="cls-275" d="M128.91,110.07,131,112c-.63,1-2.16,1.42-2,3-2.13-.26-3.51-1.73-5-3.07l0-4a4,4,0,0,1,1,.07c1.2.88,3.14.4,3.9,2.11Z"/><path class="cls-216" d="M128.93,110.08c-1.49-.36-3-.74-3.9-2.11,3.48-1,3.27-4.48,4.47-7.36C130.9,104.16,129.07,107.06,128.93,110.08Z"/><path class="cls-276" d="M144.78,119.09,142.9,118c4.89-4.26,5.19-10.27,6.1-16,.79-.64,1.77-1.36,1.64-2.38-.83-6.83,1.33-13.92-1.87-20.55-1.24-2.56.48-6.17-2.77-8.07l-1-1c.11-1.45.63-2.62,2.24-2.82s1.93,1.14,2.39,2.14C153.2,77,154,85,154.59,93.43c.54,8.07-2.84,15-4.12,22.43C150,118.89,148,120.35,144.78,119.09Z"/><path class="cls-277" d="M146,71c1.25,0,3.1-1.27,3,1.57-.12,4.32,1.25,8.47,2.63,12.4,1.91,5.45-1.84,10.52-.22,15.85.34,1.13-1,2-2.43,1.18,1.23-5.86-.12-11.72-.27-17.56C148.62,79.93,147,75.47,146,71Z"/><path class="cls-218" d="M134,113l1-1,3-8c1.93-1.2.06-3.93,2.43-5.35,1,1.59.53,3.34.53,4.93s.59,2,2,1.42c-1.24,3.62.14,8.58-5.2,10.1A5.65,5.65,0,0,1,134,113Z"/><path class="cls-278" d="M97,40l0-4c6.87-3.07,12.67.22,18.54,3.1.11,3.13.11,3.13-3.37,2.39a58.16,58.16,0,0,1,22.4,14.17c1.65,1.62,3.79,3.39,3.4,6.29A19.47,19.47,0,0,1,130,67.09c3.13-4.33-.43-6.45-3-8.78-5.14-4.65-11.24-8.08-16.38-12.78-2.18-2-5.4-2.45-8.32-3.1C100.36,42,98.37,41.72,97,40Z"/><path class="cls-279" d="M97,51c0-1.68,0-3.36,0-5h0c6.54-2.58,12.2.09,17,3.87,3.61,2.83,7,6.09,10.56,9.06s3.89,6.12,2.4,10A6.37,6.37,0,0,1,123,71C116.4,61.7,108.48,54.07,97,51Z"/><path class="cls-243" d="M127,68.91c.72-7.9-5.69-10.71-10.34-15-3.91-3.61-7.79-6.59-13.25-7.38-2.14-.32-4.25-.43-6.39-.55,0-2,0-4,0-6,2.4.53,4.77,1.17,7.19,1.57,7.56,1.25,11.84,7.71,17.94,11.28,2.61,1.53,4.65,4,7.09,5.85,3.42,2.58,4.82,5.2.77,8.39Z"/><path class="cls-280" d="M97,51c8.44-.18,14.32,4.37,19.18,10.58,1,1.31,1.36,2.2,2.29.08.21-.47,1.23-.25,1.14.17-.84,3.82,3.67,5.63,3.38,9.19-2.14,1.68-4.22,3.46-7,4A1.44,1.44,0,0,1,116,73a2.06,2.06,0,0,0,1-2c-3.31-2.87-5-7-9-9.62-3.53-2.35-7.67-2.94-11-5.37C97,54.34,97,52.67,97,51Z"/><path class="cls-281" d="M138,61.93c-6.67-10.15-16.83-15.64-27.87-20.61,2-1.6,4.79,1.94,5.9-1.32,2.35-1.78,4.45-.4,6.42.67,3,1.66,6,3.53,8.85,5.47,3.88,2.23,6.76,5.58,9.77,8.77,1.36,1.44,2.55,3.09,1,5.18-.07.27-.13.55-.18.83Z"/><path class="cls-282" d="M116,73l0,2.08c-1.18,2.1-3.8,2.12-5.33,3.72-2.51-.11-3.21-2.38-4.57-3.84,2.33.32,4.46,2.68,7.07.56.51-1.66-3.08-2.38-1.45-4S114.52,72.58,116,73Z"/><path class="cls-283" d="M103,105c0-1.6-.13-3.26.92-4.65,1.54-2,2.57-1.58,3.16.71,0,1,0,2,0,3l0,0c-.75.87-1,2.22-2.33,2.52C103.67,106.47,102.69,106.42,103,105Z"/><path class="cls-284" d="M109,92l1-2c4,2.48,1.74,5.29.56,8.81C109.66,96.08,110.38,93.77,109,92Z"/><path class="cls-285" d="M103,83c-1-1.3-3.17-1.72-3.07-3.91,3.07-.56,4.67.85,5.09,3.82l-.14.32A1.4,1.4,0,0,1,103,83Z"/><path class="cls-286" d="M100,91l2,1c.93.65,1.9,1.25,2.76,2a7.67,7.67,0,0,1,1.09,1.51C101.06,95.69,104,103,99,103a.85.85,0,0,1-1.09.2.92.92,0,0,1,0-1.13c4.87-.1,2.54-3.83,3.08-6.11C102.5,93.92,99.65,92.77,100,91Z"/><path class="cls-287" d="M103,105a2,2,0,0,0,2,1,1.39,1.39,0,0,1,.24,1.29,3.61,3.61,0,0,1-2.18,1.62c-1.94.28-4.1,1.5-5.33-1.24a2.8,2.8,0,0,1,.56-1.83A7.34,7.34,0,0,1,100,104Z"/><path class="cls-288" d="M100,104a2.07,2.07,0,0,1-1,2c-1.37.3-2.72.07-3-1.43-.23-1.25.66-2,2.08-1.64a6.17,6.17,0,0,1,1,0C99.35,103.31,99.67,103.65,100,104Z"/><path class="cls-289" d="M142.05,60.09c-.07-4.85-4.61-6.44-7.06-9.53A29.69,29.69,0,0,0,131,47c-3.17-1.76-3.82-5.12-5.13-8.07A.7.7,0,0,1,127,39a47.39,47.39,0,0,1,20,18C145.19,57.77,144.24,59.91,142.05,60.09Z"/><path class="cls-290" d="M97,154c3.59,4.17,7.82,1.83,11.59.76,9.9-2.8,18.45-8.23,26.35-14.71,3.76-3.09,6.29-7.14,9-11,3.06,1.74.79,3.31-.27,4.72-10.11,13.34-23.63,21.1-39.92,24.24-2.25.44-4.54.7-6.81,1-.36.49-.66.45-.9-.11l.09-29a1.14,1.14,0,0,1,1.23.3,4.45,4.45,0,0,1,.55,1.31,12.74,12.74,0,0,1,.23,2.15c.06,1,.09,2,.11,3,.07,1.59.06,3.17.07,4.76.05,2,.06,4-1.35,5.6v4A2.18,2.18,0,0,1,97,154Z"/><path class="cls-291" d="M97,130.05a2.82,2.82,0,0,1-.77-.2Q96.1,123.43,96,117l.64-.29a2.19,2.19,0,0,1,1.09.85c.66,2,3.69,3.32,1,6.29,6.14-.06,10.44-2.87,14.47-6.3,1.61-1.38,2.82-3.27,5-3.87a1.74,1.74,0,0,1,1.5,1.39c-1.2,6-6.39,8-10.79,10.54A39,39,0,0,1,97,130.05Z"/><path class="cls-292" d="M105,107l0-1,2-2c-.32,2.92,2.86,2.5,3.91,4.11-2.43,4.08-6.36,6.11-10.57,7.77-1.37.59-3.12-.23-4.3,1.14v0l-.41,0-.41,0c-1.27-.88-1.24-2.11-.93-3.4,1.44-2.44,4.4-1.77,6.34-3.11C102.17,109.46,104.3,109.07,105,107Z"/><path class="cls-293" d="M93,154.92Q93,137.46,93,120c.71-.6.12-2.47,1.94-2,0,1.33,0,2.66,0,4a91.86,91.86,0,0,0,0,20c.56,2.34-1.81,4.68,0,7C93,150.54,95.09,153.4,93,154.92Z"/><path class="cls-223" d="M94.94,142a43.69,43.69,0,0,1,0-20Z"/><path class="cls-294" d="M94.93,118,93,120l-1-1c-2.08-4.93-1.44-6.25,2.91-6,.1,1.34.19,2.68.29,4C95.12,117.35,95,117.67,94.93,118Z"/><path class="cls-193" d="M96.1,158.87a6.91,6.91,0,0,0,.9.11c0,1.66,0,3.32,0,5C95.33,162.51,96.22,160.6,96.1,158.87Z"/><path class="cls-295" d="M94.92,113c-5,0-2.27,3.82-2.91,6,0,.37-.07.75-.11,1.12a1.7,1.7,0,0,1-1.92.2,7.55,7.55,0,0,1-1.62-2.93c-.18-.39-.34-.8-.5-1.2-.92-2.56-3.39-.71-4.86-1.7-2.29-.81-2.71-4.58-6-3.8a2.59,2.59,0,0,1-1.6-1.18,6.24,6.24,0,0,1-.78-2.59,4,4,0,0,1,2.43-3c2.72.83,2.63,5,6,5,6.69.18,13.49,2.55,20-1l2-1c1,3.46-2.39,3.58-3.95,4.74A8.92,8.92,0,0,1,94.92,113Z"/><path class="cls-296" d="M92,152l-2,0c-.68-5.39-.69-10.82-.92-16.24.56-1.23,1.37-2.07,2.88-1.77Z"/><path class="cls-297" d="M92,134l-2,1a17.94,17.94,0,0,1,0-15.08l1.86.17Q91.93,127,92,134Z"/><path class="cls-298" d="M90,119.92q0,7.55,0,15.08,0,8.49,0,17c-.56,6,1.17,12.07-.93,18q-.08-14.51-.14-29c-2.66-5-1-10.32-1.25-15.49-.16-2.84-1-6,1.4-8.49C90.12,117.71,90,118.84,90,119.92Z"/><path class="cls-299" d="M49,144c1.72,3.53,5.25,2.23,8,3a3.14,3.14,0,0,1,3.28.49c7.73,5.16,16.37,7.82,25.43,9.36a4.42,4.42,0,0,1,2.19,1.12c0,1.66,0,3.33,0,5-10.66.48-19.77-4-28.64-9.12-2.12-1.24-4.2-2.56-6.3-3.85-1.12-2.88-4.9-3.1-6-6A1.31,1.31,0,0,1,49,144Z"/><path class="cls-300" d="M47,123.79l3.36-2.66,3.72-1.82a1.81,1.81,0,0,1,.23,2c-2,2-2.1,3.75.09,5.87,6.27,6,13.13,11,21.89,12.77a7.93,7.93,0,0,1,2.35.78c2.63,1.52,5.24,3.22,7.64-.4.18-.27.94,0,1.41.16.18.15.35.31.52.47-.08,1.67-.16,3.35-.25,5-1.24,2.32-3.22,2.34-5.55,2.11-6.3-.62-11.88-3.2-17.09-6.46A31.73,31.73,0,0,0,55,137c-2.35-2.51-4.58-5.13-7.08-7.48C46,127.72,45.76,126,47,123.79Z"/><path class="cls-301" d="M87.91,157.94a53,53,0,0,1-27.45-9c-1.11-.73-2.3-1.33-3.45-2-1.33-1.66-2.66-3.33-4-5,6.69-.2,11.09,5.15,16.95,7,4.09,1.27,8.12,2.77,12.27,3.8,1.65.4,4.13,1.28,4.78-1.79a.55.55,0,0,1,.9,0Z"/><path class="cls-302" d="M87.91,151l-.9,0c-5.41-1.23-10.93-1.53-16.25-3.71A46.86,46.86,0,0,1,55,137c5.88-2.4,9.11,2.86,13.14,5,5,2.68,10.29,3.86,15.58,5.22,1.21.31,2.79-.79,4.2-1.24C87.92,147.64,87.92,149.29,87.91,151Z"/><path class="cls-303" d="M89.09,116.94l-.15,24a3.84,3.84,0,0,1-.76,0l-.31,0c-1.2-1.47-1.2-3.22-1.24-5-.08-2-.07-4,0-6,0-1.71-.06-3.42,0-5.13.09-2.86-.47-5.8.85-8.55a.93.93,0,0,1,1.45-.28Z"/><path class="cls-304" d="M39,85c0,3.16,0,6.31,0,9.46.06,3.74,1.63,1.34,2.94.54a53.74,53.74,0,0,0,2.07,15.66c.57,2.13,1.63,3.62,4.11,3.41-1.2,1.76-3.08,2.42-5,3-3.63-.8-3.55-4.21-4.05-6.65C37.37,102,36.63,93.46,39,85Z"/><path class="cls-305" d="M49.9,113.89c2.18-2,5.41-2.42,7.36-4.78.83-.69,1.45-1.89,2.84-1.12,1,3.38,3.19.94,4.87.94.57,3.55-2.79,1.86-4,3-4.23.39-7.21,3.39-10.8,5.13A3.11,3.11,0,0,1,49.9,113.89Z"/><path class="cls-306" d="M119,115l-1-1c-.91.21-1.21-.16-1-1,1.86-.81,3.14.8,4.74,1.11,1.77,1,3.73,1.61,5.2,3.07.26.91.93,1.08,1.75,1L131,120v2a5,5,0,0,1-1.46,3.6c-7.64,8.87-17,14.71-28.8,16.24A4.15,4.15,0,0,1,97,141c0-1.66,0-3.33,0-5,2.32-1.84,5.29-1.84,7.94-2.72a40.29,40.29,0,0,0,17.93-12c-5.71,6.41-13.25,9.74-21.18,12.33-1.58.52-3.28.82-4.69-.56l0-2c3-1.83,6.43-2.28,9.59-3.6a31.41,31.41,0,0,0,12-8.28C119.72,117.81,120.9,116.57,119,115Z"/><path class="cls-278" d="M97,141c14.39-.85,25.29-7.95,34-19,5,1.27,3.62,3.46,1.19,6.38C123,139.42,110.57,144.2,97,147,97,145,97,143,97,141Z"/><path class="cls-307" d="M97,154v-3c10,1,17.89-4.25,26.18-8.57,5.31-2.76,8.9-7.28,13.09-11.22A8.1,8.1,0,0,0,139,126c2.75.8,2.61,2.4,1.29,4.43-3,4.67-7.22,8.18-11.66,11.37C119.16,148.58,109.06,153.83,97,154Z"/><path class="cls-308" d="M117,113l1,1c-4.73,6.09-10.35,10.68-18.5,11-1.11,0-3.21.17-2.22-1.15,2.06-2.75-1.06-4.72-.28-7-.14-2.45,2.44-.61,3-1.91,4.24-1.35,7.19-4.73,10.91-6.88C113,109.64,115.79,110.33,117,113Z"/><path class="cls-238" d="M126.94,117.16c-1.84-.83-3.8-1.48-5.2-3.07C124,114.21,126,114.83,126.94,117.16Z"/><path class="cls-309" d="M126,39c3.67,1.42,2.37,5.94,5,8-3.28-1.94-6.48-4-9.87-5.75-1.52-.78-3.41-.85-5.13-1.24-6.15-2.21-12.24-4.73-19-4l0-2c3.74-2.33,7.61-1.1,11.48-.48,1.81.3,3.55,1.69,5.49.5l5,1,4,2C123.92,37.79,125.58,37.46,126,39Z"/><path class="cls-241" d="M126,39l-3-2c1.72-.11,3.24.18,4,2Z"/><path class="cls-310" d="M114,34c.32.37.91.75.9,1.11,0,1.73-1.42.87-2,.67-5.16-2-10.54-1.86-15.92-1.8-.18-2.7,0-4.38,3.73-3.36C105.14,31.81,109.68,32.48,114,34Z"/><path class="cls-311" d="M97,26l15,2C108.05,29.45,99.09,28.24,97,26Z"/><path class="cls-282" d="M97.05,56c9.66,1,16.62,5.57,20,15-6.37-4.45-14.53-5.94-20-12Z"/><path class="cls-312" d="M93,99c-1.43-.19-3.68.67-4.23-1.33-.43-1.53,1.94-2,2.79-3.16.34-.47,1.31-.45,1.73-.89,1.56-1.63,3.29-2.33,5.26-1a1.85,1.85,0,0,1,.53,2.64C98,97,97.7,99.64,94.64,99A8.66,8.66,0,0,0,93,99Z"/><path class="cls-313" d="M98.06,102.93c-3.37,2.11.06,2.21.91,3.07l-1,1c-3.13,2.38-6.45,2.95-10,1-2.18.18-1.69-2.3-3-3-.5-2.52,1.88-2.08,3-2.91l9.88,0A8.72,8.72,0,0,1,98.06,102.93Z"/><path class="cls-177" d="M82,103c-4.62-2-5.08-2.8-3.06-5-.16,2.93,3.27,2.9,4.11,5C82.73,103.36,82.38,103.39,82,103Z"/><path class="cls-292" d="M82,103l1,0,5-.87c-.82,1.16-2.58,1.34-3,2.91Z"/><path class="cls-314" d="M104.92,86c.72,1.34,1.48,2.74-.49,3.65-1.05.48-2.35.73-3-.49-1-1.66,1.1-2,1.59-3.13A1.33,1.33,0,0,1,104.92,86Z"/><path class="cls-315" d="M104.92,86,103,86,101,84.94c0-1.33.73-1.92,2-2l1.88.23C104.91,84.12,104.92,85.05,104.92,86Z"/><path class="cls-316" d="M62,82l1,0c.47,3.64-2,6.58-2.91,10A10.37,10.37,0,0,1,62,82Z"/><path class="cls-317" d="M60.94,111.94c1.11-1.33,3.53-.89,4-3,4.11-1.47,7.2-5.39,12.07-5,.12,1.55-1.37,2-2,3-.65,1.28-1.88,2-2.88,2.92-2.6,1.28-4.44,4.63-8.12,3C63.25,111.78,62,112,60.94,111.94Z"/><path class="cls-292" d="M88,108c3.42.65,6.62-1.15,10-1,1.18,2.8,3.39.41,5,1-6.39,6-13.24,2.59-20,1C84.69,108.74,86.6,109.63,88,108Z"/><path class="cls-255" d="M60.1,108l-2.84,1.12L56,109a5,5,0,0,1,4.3-1.85A2.23,2.23,0,0,0,60.1,108Z"/><path class="cls-318" d="M49,144l-2,0c-2.39-3.55-6.28-5.84-8.21-9.76-.64-1.31-2.58-2.45-.83-4.25,3.06.13,3.27,3,4.45,4.81C44.48,138,48,140.05,49,144Z"/><path class="cls-319" d="M87.89,130c0,2,0,4,0,6-2.24,2-4.25.31-6.8-.56A20.3,20.3,0,0,0,85,136.93c1.17.26,2.46.58,2.35,2-.15,2-2,1.82-3.08,1.55-11-2.8-21.54-6.7-29-16-.81-1-1.72-2.09-1.19-3.59,0-.56,0-1.12,0-1.67q4.5-2.58,9-5.15c-.25,5.58,3.27,9.1,7.15,12.12,3.44,2.67,7.13,5.16,11.54,6.12.69.07-.11-.86,0-.21,0,.21-.1.26-.44.15l-.95-.29c-1.91-.62-4.61-1.59-4.1-3.52.65-2.51,3.31-1.09,5-.54C83.51,128.69,86,128.26,87.89,130Z"/><path class="cls-320" d="M87.89,130c-3.71.38-7.17-.67-10.71-1.81,1.59,2.54,4,3.68,7.83,4.17-7.41,1.14-14.58-2.85-20.42-9.86-2.26-2.73-4.1-4.95-1.53-8.3l1-1.23c3.2-.31,5.35-2.66,8-4.07,1.36-.65,2.71-1.09,3.92.29l1,.91a.74.74,0,0,1,.32.76c-.08.27-.16.41-.24.41-2.44.78-5.21.2-7.36,2.27-1.46,1.42-1.92,2.49-.46,4.11,2.93,3.26,5.92,6.12,10.91,5.34,2.78-.43,5.62-.2,7.83,2Z"/><path class="cls-321" d="M97,133c9.74-1.15,17.85-5.54,24.82-12.3,1-.94,1.64-3.56,3.18-2.29,2,1.66-.78,2.78-1.64,3.82-6.85,8.22-15.58,13-26.36,13.77Z"/><path class="cls-322" d="M119,115c2.65.43,3.74,1.49,1.59,3.88-6.33,7-14.08,11.31-23.61,12.11,0-.31,0-.63,0-.94,2.73-3.3,7.18-3,10.56-5C112,122.35,116.78,120.18,119,115Z"/><path class="cls-222" d="M100,115l-3,1.91L96,117C96.3,114.28,98.39,115.09,100,115Z"/><path class="cls-323" d="M77,111a3.59,3.59,0,0,0-.12-.93c3.91-1.81,4.44,2.09,6.3,3.74l-.48.55C79.88,114.77,78,113.55,77,111Z"/><path class="cls-323" d="M88.91,116.1H87.85c-2.39,1.2-4.11.71-5-2l.29-.35C85.08,114.58,88.85,110.72,88.91,116.1Z"/><path class="cls-323" d="M75.92,109.15,72,108.86A3.17,3.17,0,0,1,75,107,1.92,1.92,0,0,1,75.92,109.15Z"/><path class="cls-324" d="M54,121c7.66,11.65,19.84,15.35,32.3,18.55-1.48-2.32-4.18-2.59-6.91-4.39l8.47.81V141l-2.33.59c2,3.59,0,3.15-2.39,2.38-11.1-3.6-22-7.4-30.25-16.44C49.88,124.24,49.67,122.51,54,121Z"/><path class="cls-325" d="M82.88,114.15c1.4,1.3,3.23,1.52,5,2,0,3,0,5.9,0,8.85-3.57-.42-7-1.31-10.77-.45-2.16.49-4.79-1.63-6.62-3.57-1.68-1.79-3.31-3.62-5.16-5.64C69,113,71.6,108.4,77,111Z"/><path class="cls-326" d="M94.06,105.08c-2.2,1.3-3.89,1.94-5.54,0C90.2,105.47,91.92,103.11,94.06,105.08Z"/></g></g></svg>