<svg xmlns="http://www.w3.org/2000/svg" viewBox="0 0 185.26 186.96"><defs><style>.cls-1{fill:#fdfdfd;}.cls-2{fill:#564223;}.cls-3{fill:#dfd2a0;}.cls-4{fill:#5c4527;}.cls-5{fill:#5f4728;}.cls-6{fill:#d1bd8b;}.cls-7{fill:#604826;}.cls-8{fill:#735935;}.cls-9{fill:#5d4824;}.cls-10{fill:#604a24;}.cls-11{fill:#cabf87;}.cls-12{fill:#644c2e;}.cls-13{fill:#543d20;}.cls-14{fill:#6d542d;}.cls-15{fill:#b0a670;}.cls-16{fill:#6f592d;}.cls-17{fill:#4b3923;}.cls-18{fill:#6a4f29;}.cls-19{fill:#382e24;}.cls-20{fill:#372e24;}.cls-21{fill:#755a31;}.cls-22{fill:#382d22;}.cls-23{fill:#774f18;}.cls-24{fill:#45341f;}.cls-25{fill:#cabf89;}.cls-26{fill:#71562b;}.cls-27{fill:#352b20;}.cls-28{fill:#74572b;}.cls-29{fill:#92814a;}.cls-30{fill:#4d3e26;}.cls-31{fill:#302822;}.cls-32{fill:#71542f;}.cls-33{fill:#6f5426;}.cls-34{fill:#dbcf9b;}.cls-35{fill:#a89e65;}.cls-36{fill:#493f34;}.cls-37{fill:#936f41;}.cls-38{fill:#866339;}.cls-39{fill:#42341e;}.cls-40{fill:#948f80;}.cls-41{fill:#977444;}.cls-42{fill:#8e6c3e;}.cls-43{fill:#846138;}.cls-44{fill:#99968c;}.cls-45{fill:#7a5632;}.cls-46{fill:#75552f;}.cls-47{fill:#ab8a55;}.cls-48{fill:#968b4f;}.cls-49{fill:#413e37;}.cls-50{fill:#352f29;}.cls-51{fill:#846339;}.cls-52{fill:#87683d;}.cls-53{fill:#c3a670;}.cls-54{fill:#615329;}.cls-55{fill:#d6c48e;}.cls-56{fill:#dfd0a3;}.cls-57{fill:#8b7441;}.cls-58{fill:#c0a573;}.cls-59{fill:#b7ad76;}.cls-60{fill:#9e7a46;}.cls-61{fill:#b79762;}.cls-62{fill:#88683c;}.cls-63{fill:#9e7b48;}.cls-64{fill:#aa8b56;}.cls-65{fill:#936f40;}.cls-66{fill:#7e643d;}.cls-67{fill:#977646;}.cls-68{fill:#88653a;}.cls-69{fill:#aea369;}.cls-70{fill:#c2b884;}.cls-71{fill:#8c6a3d;}.cls-72{fill:#a37e4a;}.cls-73{fill:#8b6b3c;}.cls-74{fill:#c6ab78;}.cls-75{fill:#6b4d2c;}.cls-76{fill:#806237;}.cls-77{fill:#d5c08e;}.cls-78{fill:#c1b07a;}.cls-79{fill:#cdbc8c;}.cls-80{fill:#d2bc8a;}.cls-81{fill:#85673a;}.cls-82{fill:#d6c292;}.cls-83{fill:#957848;}.cls-84{fill:#b39a69;}.cls-85{fill:#3a2f23;}.cls-86{fill:#70522e;}.cls-87{fill:#7a5732;}.cls-88{fill:#a39a60;}.cls-89{fill:#856238;}.cls-90{fill:#70612d;}.cls-91{fill:#aea368;}.cls-92{fill:#9a9586;}.cls-93{fill:#876a41;}.cls-94{fill:#916f41;}.cls-95{fill:#584a25;}.cls-96{fill:#483723;}.cls-97{fill:#352c21;}.cls-98{fill:#825f37;}.cls-99{fill:#604a30;}.cls-100{fill:#41331b;}.cls-101{fill:#7b5833;}.cls-102{fill:#c4b97d;}.cls-103{fill:#a99f64;}.cls-104{fill:#9a7744;}.cls-105{fill:#7a5f35;}.cls-106{fill:#977443;}.cls-107{fill:#796d30;}.cls-108{fill:#c4a672;}.cls-109{fill:#b7ad70;}.cls-110{fill:#4c3d21;}.cls-111{fill:#493a24;}.cls-112{fill:#9c7c48;}.cls-113{fill:#cabc84;}.cls-114{fill:#3a2f16;}.cls-115{fill:#d8ca9d;}.cls-116{fill:#8b8677;}.cls-117{fill:#987545;}.cls-118{fill:#806036;}.cls-119{fill:#302b26;}.cls-120{fill:#8d6e42;}.cls-121{fill:#c9be86;}.cls-122{fill:#c2b781;}.cls-123{fill:#b2a66c;}.cls-124{fill:#c7c1af;}.cls-125{fill:#bdb8a8;}.cls-126{fill:#a39e90;}.cls-127{fill:#b2ae9f;}.cls-128{fill:#413525;}.cls-129{fill:#a9a69c;}.cls-130{fill:#a2804a;}.cls-131{fill:#5d4a2e;}.cls-132{fill:#9e988a;}.cls-133{fill:#46433c;}.cls-134{fill:#3b3832;}.cls-135{fill:#a07f4a;}.cls-136{fill:#4c4a43;}.cls-137{fill:#54514a;}.cls-138{fill:#d2bc8b;}.cls-139{fill:#d7c799;}.cls-140{fill:#9a7948;}.cls-141{fill:#7d6733;}.cls-142{fill:#87683c;}.cls-143{fill:#7f5c36;}.cls-144{fill:#b4925b;}.cls-145{fill:#ccb887;}.cls-146{fill:#bbae77;}.cls-147{fill:#453c31;}.cls-148{fill:#bcb179;}.cls-149{fill:#ac8b56;}.cls-150{fill:#54524b;}.cls-151{fill:#5a574f;}.cls-152{fill:#434039;}.cls-153{fill:#48453e;}.cls-154{fill:#494740;}.cls-155{fill:#3f311b;}.cls-156{fill:#4d4b44;}.cls-157{fill:#423f39;}.cls-158{fill:#38322b;}.cls-159{fill:#6b502f;}.cls-160{fill:#9d7a47;}.cls-161{fill:#52432c;}.cls-162{fill:#84623a;}.cls-163{fill:#a28550;}.cls-164{fill:#61542c;}.cls-165{fill:#574d3c;}.cls-166{fill:#443c32;}.cls-167{fill:#b3955d;}.cls-168{fill:#d8c592;}.cls-169{fill:#322d29;}.cls-170{fill:#dbca98;}.cls-171{fill:#c19f68;}.cls-172{fill:#ccc18b;}.cls-173{fill:#e2d4a6;}.cls-174{fill:#908b7b;}.cls-175{fill:#4b3f32;}.cls-176{fill:#a99f66;}.cls-177{fill:#63492a;}.cls-178{fill:#b3a76d;}.cls-179{fill:#3a2d18;}.cls-180{fill:#372c15;}.cls-181{fill:#cabe81;}.cls-182{fill:#4d4537;}.cls-183{fill:#8e897a;}.cls-184{fill:#a8a395;}.cls-185{fill:#aea999;}.cls-186{fill:#a09b8c;}.cls-187{fill:#d0cab7;}.cls-188{fill:#d8d2bd;}.cls-189{fill:#c6c1af;}.cls-190{fill:#41321e;}.cls-191{fill:#b6b09f;}.cls-192{fill:#bfbaa9;}.cls-193{fill:#7d623e;}.cls-194{fill:#73512e;}.cls-195{fill:#896c3e;}.cls-196{fill:#e2d79c;}.cls-197{fill:#bc9c64;}.cls-198{fill:#60523c;}.cls-199{fill:#b29058;}.cls-200{fill:#7c6034;}.cls-201{fill:#40372d;}.cls-202{fill:#c7aa74;}.cls-203{fill:#c1b580;}.cls-204{fill:#282011;}.cls-205{fill:#3e311f;}.cls-206{fill:#947243;}.cls-207{fill:#816138;}.cls-208{fill:#80623c;}.cls-209{fill:#6d5837;}.cls-210{fill:#2e2a28;}.cls-211{fill:#3c3933;}.cls-212{fill:#89704b;}.cls-213{fill:#dad4bf;}.cls-214{fill:#d0cab6;}.cls-215{fill:#b6b1a0;}.cls-216{fill:#aba697;}.cls-217{fill:#e4ddc7;}.cls-218{fill:#514028;}.cls-219{fill:#624d31;}.cls-220{fill:#765c39;}.cls-221{fill:#4e4c45;}.cls-222{fill:#52504b;}.cls-223{fill:#927444;}.cls-224{fill:#5b4f3c;}.cls-225{fill:#5e5b54;}.cls-226{fill:#57452c;}.cls-227{fill:#504e49;}.cls-228{fill:#59564d;}.cls-229{fill:#342817;}.cls-230{fill:#978f7c;}.cls-231{fill:#332c27;}.cls-232{fill:#c4a771;}.cls-233{fill:#ac8951;}.cls-234{fill:#9d9889;}.cls-235{fill:#a19c8e;}.cls-236{fill:#4f4130;}.cls-237{fill:#9a7845;}.cls-238{fill:#4b3d29;}.cls-239{fill:#b6b2a7;}.cls-240{fill:#aaa79d;}.cls-241{fill:#bdb8a7;}.cls-242{fill:#c3bfb3;}.cls-243{fill:#eae3ca;}.cls-244{fill:#e0dac5;}.cls-245{fill:#e6dfc8;}.cls-246{fill:#b3af9e;}.cls-247{fill:#c3beab;}.cls-248{fill:#cbc5b3;}.cls-249{fill:#755936;}.cls-250{fill:#d8d2bc;}.cls-251{fill:#d2cbb8;}.cls-252{fill:#92754e;}.cls-253{fill:#7d623f;}.cls-254{fill:#a8a496;}.cls-255{fill:#c1bcab;}.cls-256{fill:#b6b09e;}.cls-257{fill:#999485;}.cls-258{fill:#342919;}.cls-259{fill:#7b5e39;}.cls-260{fill:#4a3c27;}.cls-261{fill:#513f26;}.cls-262{fill:#7b5d36;}.cls-263{fill:#c9ae66;}.cls-264{fill:#c5ad70;}.cls-265{fill:#86765d;}.cls-266{fill:#bea774;}.cls-267{fill:#ab874e;}.cls-268{fill:#997544;}.cls-269{fill:#684e2c;}.cls-270{fill:#a99165;}.cls-271{fill:#e9e2c9;}.cls-272{fill:#785b38;}.cls-273{fill:#3f301b;}.cls-274{fill:#624b2d;}.cls-275{fill:#a27f49;}.cls-276{fill:#917142;}.cls-277{fill:#5d5a52;}.cls-278{fill:#775933;}.cls-279{fill:#5c4c36;}.cls-280{fill:#989386;}.cls-281{fill:#d3cdbc;}.cls-282{fill:#2f2416;}.cls-283{fill:#a9a495;}.cls-284{fill:#9a9689;}.cls-285{fill:#bbb6a5;}.cls-286{fill:#ddd7c1;}.cls-287{fill:#5f4b2f;}.cls-288{fill:#624a2a;}.cls-289{fill:#b7b3a7;}.cls-290{fill:#d2cdbb;}.cls-291{fill:#cac4b3;}.cls-292{fill:#2a1f11;}.cls-293{fill:#967649;}.cls-294{fill:#b1925b;}.cls-295{fill:#e9e3cd;}.cls-296{fill:#d4c9aa;}.cls-297{fill:#8c8370;}.cls-298{fill:#e1dac6;}.cls-299{fill:#ece5cb;}.cls-300{fill:#dcd5bf;}</style></defs><g id="Layer_2" data-name="Layer 2"><g id="Layer_5_Image" data-name="Layer 5 Image"><path class="cls-1" d="M104.12,0l1,1.93c-1.7,1.88-4,1.21-6.11,1.51-2.82.79-5.62-.3-8.43-.08a26.57,26.57,0,0,1-5.35,0c-1.79-.2-3.75.18-5.1-1.49.33-.63.66-1.26,1-1.89Z"/><path class="cls-2" d="M20.43,150.84,19.05,149c-.91-.44-1.68-1-1.62-2.15L16,145a2.6,2.6,0,0,1-1.34-3,3.84,3.84,0,0,1,2.24-3.31c1.71-.64,3.44-.22,5.17-.08,2.82.56,3.16-1,2.77-3.23.81-2.05,2.22-3,4.46-2.52a3.52,3.52,0,0,1,.89,2,6.07,6.07,0,0,1-.35,2.86c-.94,1-2,2-.53,3.43a14.19,14.19,0,0,1-5,3.46c-.82.64-2.72-.08-2.4,1.95.34.53.71,1,1.06,1.55,2.12,3.27,5.31,5.56,7.75,8.53a35,35,0,0,0,6.72,5.78c2.56,2.23,5.46,4,8.21,6,2.61,2.21,5.75,3.48,8.82,4.86,2.38.93,4.7,2,7.13,2.79,2.82,1.35,5.91,1.92,8.8,3.06,1.76.89,3.92.36,5.6,1.54a1.52,1.52,0,0,1,.34,1.37c-1.15,1.34-2.77.84-4.21,1.08a1.65,1.65,0,0,0-.81-.18c-2-.92-4.68,1-6.19-1.61l-7-2.32c-2.58.27-4-1.8-6-2.83A20.53,20.53,0,0,1,43.94,172a6,6,0,0,1-3.81-2.83l-4.8-3.31c-4.43-2.88-8.53-6.1-11.2-10.8l-.07-.1C22.47,153.93,20.68,153.06,20.43,150.84Z"/><path class="cls-3" d="M17.1,139l-2,3c-.35.4-.67.38-1-.05l-2-3c-1.31-1.08-1.14-2.67-1.41-4.1-.35-1.93-1.2-3.71-1.72-5.58-1.08-4.3-3.16-8.23-4.56-12.41a5.28,5.28,0,0,1,.06-2.34c.52-3.64,2.41-5.37,6.19-4.45,4.55,1.94,6,6,7.09,10.32a6.65,6.65,0,0,1-.15,3.85c-.05.12-1.15.77.1.76.26,0,.55-.3.9-.38a4.09,4.09,0,0,1,1.95.53c.64.3,1.32.51,2,.75,3,1.38,2.52,2.9.12,4.4-1.38.87-3.08.78-4.55,1.4-3.73,1.61-2.34,4.15-1.19,6.64Z"/><path class="cls-4" d="M55.17,9.09l3-1.27c.83-.92,2.08-.19,3-.76l0,0a7.81,7.81,0,0,1,5-2l6.11-.79c.75.18,1.2.6,1.08,1.44-1.4,2-4.2,1.24-5.8,2.87-2.34,1.6-4.68,3.21-7.66,3.32-4.09,1.26-7.41,4-11.19,5.83a10.78,10.78,0,0,1-2.45,1.22c-6.8,2.6-11.37,8-16.26,13-2.67,3.57-6.1,6.45-8.89,9.93-1.31,1.64-3.35,3.38-4.42-.46A3.5,3.5,0,0,1,19,38l2.12-3.11A40.66,40.66,0,0,1,33,23a25.28,25.28,0,0,1,7.17-5.27A6.4,6.4,0,0,1,43.9,15c.39-1.11,1.56-.53,2.23-1,.78-1,1.55-2,3-1.81l2-1.28C52.52,10.33,53.49,8.89,55.17,9.09Z"/><path class="cls-5" d="M162.73,34.16A3.89,3.89,0,0,0,165,37a2.4,2.4,0,0,1,1.59,2.83,1.39,1.39,0,0,1-1.25,1.43c-2.12-.56-3.27-2.46-5-3.59-2.32-2.7-4.43-5.6-7.14-8s-5.14-5.2-8.47-6.85c-2.31-1.09-3.85-3.24-6.13-4.38a61,61,0,0,0-11.82-5.77c-5.22-2.06-10.72-3.4-15.67-6.16-.67-1.17-.13-1.89.91-2.43L113.16,4c2.9,1,6.38-.42,8.85,2.23,1.29,1.53,3.39.94,4.9,1.88,2.37.27,4.29,1.53,6.19,2.82l2,1.09c1.9.56,3.85,1,5.05,2.82l.86.48c2.82.41,4.64,2.23,6.17,4.45l3,2.23a19.85,19.85,0,0,1,8.92,8.11l.95.95C161.34,31.71,162.55,32.49,162.73,34.16Z"/><path class="cls-6" d="M17.1,40.89c.57,3.41,2.28,1.7,3,.4,2.35-4,6.23-6.68,9-10.3,1.95-.66,2.64-3.48,5.23-3.06A3.44,3.44,0,0,1,35,29.22c.25,3.73-1.85,6.45-4,9.15-2.77,3.07-3.72,6.51-2.1,10.47-1.58,3.73-2.37,3.8-5.59.49-3.92-3.42-6.68-2.83-8.34,1.91-.58,1.64-1,3.21-3.12,3.2-1.19-.38-1.37-1.26-1.16-2.34.23-3.36.31-6.81,4.41-8.06,1.26-.64.83-1.88,1-2.89C16.37,40.62,16.67,40.53,17.1,40.89Z"/><path class="cls-7" d="M140.2,172l-10.08,5.32c-.82,1.11-2.05,1.31-3.28,1.52a.64.64,0,0,0-.72.24,1.56,1.56,0,0,1-1.27.29c-.82-.39-1.71-.69-2-1.72.37-1.57,1.88-1.83,3-2.59,4.2-1.56,8.33-3.26,11.76-6.29a5.68,5.68,0,0,1,1.14-.67,19,19,0,0,0,6.62-3.82c1.3-1.39,2.25-3.14,4-4.07a11,11,0,0,0,4-2.92,10.27,10.27,0,0,1,1.39-1.33,25,25,0,0,0,6.32-7.4,6.3,6.3,0,0,1,.85-1c1.67-1.08,2.56-3,4.37-4a1.74,1.74,0,0,1,1.86.43l-1,3a3.66,3.66,0,0,1-1.63,2.07l-2.29,3.27a7.39,7.39,0,0,1-4.16,4.57h0c-.62,1.37-1.32,2.65-3,3h0a10.44,10.44,0,0,1-5.87,5.09l0,.05C147.39,168.18,144.33,170.85,140.2,172Z"/><path class="cls-8" d="M11.06,52,12,54.14c2,1.88.78,3.93.33,6C10.49,63.73,10.13,67.93,8,71.47c-1.95,3.32-2.32,7-2.58,10.73,0,1.59,0,3.21-.93,4.61a1.35,1.35,0,0,1-1.47.34,3.65,3.65,0,0,1-1-2.92,12.81,12.81,0,0,0-.57-6A3.14,3.14,0,0,1,2,76L3.1,70a3.83,3.83,0,0,1,1-3c1.83-.66-.34-2.51,1-3.33.52-.82.1-2,1-2.68l0-.07c.52-1.35.1-3.15,1.82-3.95-.24-2.09,1.18-3.41,2.24-4.9C10.46,51.69,10.75,51.7,11.06,52Z"/><path class="cls-9" d="M180.21,66c-.41,1.47.25,2.77.69,4.1a2.4,2.4,0,0,1-2,.59,2.61,2.61,0,0,1-1.2-.75c-1.26-2.89-1.89-6-3-8.94-.75-2-1.77-2.71-3.68-1.39-2,.34-3.49,0-3-2.58a16.37,16.37,0,0,1,2.37-4.44c.78-.85,1.33-2.09,2.85-1.74a9.06,9.06,0,0,1,3.88,7.12c.08.79-.2,1.73.85,2.12A7,7,0,0,1,180.21,66Z"/><path class="cls-10" d="M110.12,183l-5,1.88c-3.81,2-8.06.61-12,1.6-2.64-.74-2.87-2.09-.74-3.67,1.72-1.26,4-1.74,5.33-3.57a4.73,4.73,0,0,1,1.41-1.57c.86-.25,2.17-.16,2.09.61-.34,3.61,2.19,2.83,4.16,3C107,181.75,108.87,181.51,110.12,183Z"/><path class="cls-11" d="M168.07,43l1.13,1.95c-1,2.75-3.67,1-5.32,2a20,20,0,0,0-2.35,2.16c-1.71,1.47-2.93,3.75-5.71,3.4-2.87-2.1,0-3.89.31-5.82a8.59,8.59,0,0,1,3-3.45A9.9,9.9,0,0,1,166,42,3.53,3.53,0,0,1,168.07,43Z"/><path class="cls-12" d="M3.1,83.92l.1,3.15c2.48,4.76,1.07,9.78,1,14.72A3.77,3.77,0,0,1,2.8,104a1.37,1.37,0,0,1-1.61,0A46.66,46.66,0,0,1,1.19,83a.75.75,0,0,1,.9-.38C2.55,83,2.7,83.54,3.1,83.92Z"/><path class="cls-1" d="M92.13,185.82c4.34-.33,8.61-1.48,13-1a4.53,4.53,0,0,1-3.79,2q-8.7.13-17.39,0a4.67,4.67,0,0,1-3.83-2c1.43-1.47,3.34-1.12,5.1-1.32C88,182.94,90.09,184.28,92.13,185.82Z"/><path class="cls-13" d="M184.11,84.92c-.23,5.41.59,10.86-.59,16.23l-.87.11c-2.2-1.21-1.77-3.38-1.89-5.31-.22-3.48.38-7-.51-10.44a19.77,19.77,0,0,1-.29-6.6,5,5,0,0,1,.52-1.49c.16-.2.34-.4.5-.59l.74-.16a6.77,6.77,0,0,0,.66.33c1.31,1.84.68,4.07,1.2,6.07A3.92,3.92,0,0,0,184.11,84.92Z"/><path class="cls-14" d="M5.21,117c2.51,3.67,3.69,7.86,4.79,12.09-.8.87.21,2.26-.89,3C8,131.77,8.28,130.74,8,130c-1.65-.86-1.21-2.67-1.82-4l0,0c-1.14-.75-.28-2.12-1-3-.38-1-.77-2-1.15-3A2.72,2.72,0,0,1,3.86,117,.91.91,0,0,1,5.21,117Z"/><path class="cls-15" d="M163.13,46c1.65-2.45,4.39,1.16,6.07-1.09,2.06,1.13,2.72,3.39,4.09,5.09a.66.66,0,0,1-.21,1l-2,1.88c-1,.5-1.69-.06-2.32-.73a26.86,26.86,0,0,0-1.59-2.82C166,48,164.11,47.57,163.13,46Z"/><path class="cls-1" d="M33,23,21.12,34.86c-.15-.46-.57-1.19-.42-1.34C24.56,29.75,26.93,24.22,33,23Z"/><path class="cls-16" d="M174.32,135a.52.52,0,0,0-.38.62c-.44,1.09.36,2.44-.72,3.39l-1,1.07c-1,.56-1.83.5-2.39-.62-.05-1.94,1.11-3.59,1.34-5.47a26.27,26.27,0,0,1,1.22-3.35c1-1.86,1.07-4.41,3.7-5.09a1.82,1.82,0,0,1,1.64,1.33A2.4,2.4,0,0,1,177,129c-1.42.68-.69,2-.88,3C176.16,133.36,175.22,134.16,174.32,135Z"/><path class="cls-1" d="M24.13,155.06l11.21,10.8C30.13,164.52,24.38,159,24.13,155.06Z"/><path class="cls-17" d="M123.07,177.91l2,.91c-.33,1-1.42.57-2,1.12l-3,1.2c-.92.58-1.75,1.46-3,1-1.85-1-3.27,1.25-5.07.66-.9-.78-2.5.31-3.14-1.17,1.75-3,5.33-1.5,7.61-3.18a10.15,10.15,0,0,1,2-.55,29.4,29.4,0,0,1,3.36-.55A2.11,2.11,0,0,1,123.07,177.91Z"/><path class="cls-1" d="M11.06,52,10.61,52l-.44.09c-1.21-3.6.91-8.63,4.1-9.53.14,0,.58,1,.88,1.51C12.72,46.15,12.47,49.39,11.06,52Z"/><path class="cls-18" d="M177.23,127.21,176.09,126c-1-1.12-.5-2.34-.24-3.54,1.24-2.83,1.23-6.18,3.47-8.61,1.75-.1,1.65,1.33,2,2.4,0,.23,0,.46,0,.7L180.21,121C180.28,123.58,179.82,125.9,177.23,127.21Z"/><path class="cls-19" d="M72.13,183.05c1-1.58,2.69-.92,4.09-1.18,1.35-1.17,2.9-1.12,4.51-.8,1,.25,2.07.56,3.1.88.74.37,1.6.64,1.43,1.75-2.67,1.36-5.39.92-8.12.27C75.49,183.54,73.5,185,72.13,183.05Z"/><path class="cls-1" d="M159.05,30.11,150.13,22C154.2,22.16,158.31,25.9,159.05,30.11Z"/><path class="cls-1" d="M140.2,172l9.92-7C148.05,169.11,145.44,172.43,140.2,172Z"/><path class="cls-1" d="M183.52,101.15c2.85,4.28,2,8.19-1.24,11.83-2.07-3.51,0-7.08-.18-10.63a3.53,3.53,0,0,1,.92-1.42A.58.58,0,0,1,183.52,101.15Z"/><path class="cls-1" d="M184.11,84.92l-1-.89c-1.21-2.23.32-4.82-.93-7v0a1.91,1.91,0,0,1,.16-3C185.31,77.24,186.15,80.84,184.11,84.92Z"/><path class="cls-20" d="M112,4.16,111.12,6c-2.2,1.82-4.45.11-6.67.1A5,5,0,0,1,103,5.49a2.4,2.4,0,0,1-1.09-2c1.56-1.56,3.25-1.19,5-.31C108.31,4.85,110.37,3.49,112,4.16Z"/><path class="cls-21" d="M80.13,1.89,86,2.08c0,3.35-.63,3.79-5.08,3.53.17-3-3-1.05-3.86-2.61C77.77,1.74,79.16,2.41,80.13,1.89Z"/><path class="cls-22" d="M77.07,3c4.07.31,4.07.31,3.13,2.09l-.65.55c-2.23.84-4.42,1.06-6.41-.61l-.89-.79C73.4,2.05,75.72,4.38,77.07,3Z"/><path class="cls-1" d="M147.15,19.77,141,15.32C143.89,14.54,146.66,16.54,147.15,19.77Z"/><path class="cls-23" d="M183.21,101.87,182.28,113l-.17,1a1,1,0,0,1-1.27,0,7.73,7.73,0,0,1-1.37-3.31,5.28,5.28,0,0,1,.71-2.83C181.64,106.08,179.61,102.54,183.21,101.87Z"/><path class="cls-24" d="M5.21,117l-1.28.1-.41.24L3.2,117,2,111a2.43,2.43,0,0,1-.34-2.73,1.41,1.41,0,0,1,1.22-.57,3.68,3.68,0,0,1,1.78,2.06c.62,1.46.32,3,.51,4.54,0,.21.06.42.08.63C5.26,115.6,5.23,116.28,5.21,117Z"/><path class="cls-25" d="M170.2,139.07c.32,1,1.18,1,2,1a1.63,1.63,0,0,1-1.8.93,4.12,4.12,0,0,1-2.06,1c-1.33.08-2.59-.07-3.41-1.33a2.12,2.12,0,0,1,.78-2c1.16-.89,2.27-1.9,3.84-2C170.67,137.23,170.78,138.05,170.2,139.07Z"/><path class="cls-1" d="M173.08,51.07l.21-1c2.51,2,5.68,3.77,3.83,7.92C175.7,55.69,175.38,52.8,173.08,51.07Z"/><path class="cls-1" d="M11,134.92C12.34,136,12,137.55,12.14,139c-.85.23-1.81,1.25-2.54.25-1.12-1.53,0-3,.6-4.41C10.5,134.48,10.75,134.51,11,134.92Z"/><path class="cls-1" d="M150.17,165l5.87-5.09C155.52,163.24,154,165.46,150.17,165Z"/><path class="cls-1" d="M122,6.23,113.16,4C116.34,3.85,119.93,2,122,6.23Z"/><path class="cls-26" d="M106.84,3.16c-1.53.28-3.28-.68-4.61.78a3,3,0,0,1-3.94.47,1.36,1.36,0,0,1,0-2.21l6.86-.27C105.7,2.33,106.72,2.11,106.84,3.16Z"/><path class="cls-1" d="M177.23,127.21c2.13-1.53,1.31-4.47,3-6.21,2.3,4-1,5.74-3.18,8Z"/><path class="cls-1" d="M2.23,108c-.07,1-.13,2-.2,3-4.42-1.85.2-4.78-.84-7a2.9,2.9,0,0,0,.78.36C3.32,105.43,3.11,106.67,2.23,108Z"/><path class="cls-1" d="M2,82.65a3.6,3.6,0,0,0-.77.36c1-2.26-3.5-5.12.77-7l.27,2.1C2.71,79.64,3.14,81.19,2,82.65Z"/><path class="cls-27" d="M179.14,70l1.76.08a1.27,1.27,0,0,1,.2.91,7.76,7.76,0,0,1,0,6l0,0C177.58,75.44,177.51,73,179.14,70Z"/><path class="cls-1" d="M180.21,66,178,60.06C180.44,61.38,182.25,63,180.21,66Z"/><path class="cls-1" d="M133.1,10.93l-6.19-2.82C130.06,6.67,131.58,8.79,133.1,10.93Z"/><path class="cls-28" d="M77.14,184c2.56-.81,5.39.82,7.85-.89a1,1,0,0,1,1.18-.08,1.15,1.15,0,0,1,0,1.71l-6,.2Z"/><path class="cls-1" d="M159,156.87c1.28-1.62,2.3-3.48,4.16-4.57C163.63,155.51,162.17,157,159,156.87Z"/><path class="cls-1" d="M20.43,150.84,24.06,155C21.22,155,19.53,154.07,20.43,150.84Z"/><path class="cls-1" d="M52.15,176.11l6,2.83C54.74,181,53.77,177.84,52.15,176.11Z"/><path class="cls-1" d="M65.13,181.26c1.88,1.23,4.44-.13,6.19,1.61C69.08,183,66.15,185.8,65.13,181.26Z"/><path class="cls-1" d="M140.12,14.84A14.46,14.46,0,0,1,135.07,12C137.84,11,139.47,12.05,140.12,14.84Z"/><path class="cls-29" d="M168.15,141l2.24,0c.38,1.85-1.25,2.2-2.26,3l-2,.16-.27-.66C165.94,142.06,167.22,141.7,168.15,141Z"/><path class="cls-30" d="M11,134.92a6.42,6.42,0,0,1-.75-.1c-.48-.86-1.36-1.57-1.09-2.73s-.18-2.25.89-3C10.82,130.92,12.2,132.71,11,134.92Z"/><path class="cls-1" d="M66.14,5l-5,2C62.26,5,63.53,3.34,66.14,5Z"/><path class="cls-1" d="M43.9,15c-.79,1.55-2.36,2-3.77,2.74C40.16,15.1,41.26,14,43.9,15Z"/><path class="cls-1" d="M7.93,57c-.6,1.32-1.21,2.64-1.82,3.95C5.21,58.9,4.53,57,7.93,57Z"/><path class="cls-1" d="M40.13,169.17c1.39.78,3.1,1.14,3.81,2.83C41.19,173,40.13,171.82,40.13,169.17Z"/><path class="cls-1" d="M55.17,9.09a4.39,4.39,0,0,1-4,1.75C52.29,9.79,52.7,7.09,55.17,9.09Z"/><path class="cls-31" d="M109.07,181.92c1,.13,2.19-.17,3,.87l-1.91.18c-1.6-.56-3.54.75-4.94-.92A2.61,2.61,0,0,1,109.07,181.92Z"/><path class="cls-1" d="M6.14,126c1.27,1,1.2,2.68,1.82,4C4.56,129.94,5.64,127.84,6.14,126Z"/><path class="cls-1" d="M17.1,40.89l-.91.26c.19-1.73-.76-4.45,2.81-3.18Z"/><path class="cls-1" d="M117.1,182.13c1-.41,1.69-1.64,3-1a2.72,2.72,0,0,1-3,2.48C116.28,183.62,117,182.66,117.1,182.13Z"/><path class="cls-1" d="M162.73,34.16,160,31.06C163,30.28,163.26,31.86,162.73,34.16Z"/><path class="cls-1" d="M156,159.88l3-3C158.94,158.78,159.57,161.38,156,159.88Z"/><path class="cls-1" d="M17.43,146.84,19.05,149c-.87.35-1.81.91-2.45-.29C16.12,147.8,16.63,147.22,17.43,146.84Z"/><path class="cls-32" d="M181.07,77l0-6,1.2,3c-.05,1-.11,2-.16,3Z"/><path class="cls-1" d="M14.12,142a5.21,5.21,0,0,0,1,.05L16,145C13.52,145.14,12.85,144.19,14.12,142Z"/><path class="cls-1" d="M4.08,67c0,1.11.23,2.28-1,3C1.54,68.36,2,67.4,4.08,67Z"/><path class="cls-1" d="M173.22,139c-.06-1.19-.48-2.46.72-3.39C175.49,139,175.49,139,173.22,139Z"/><path class="cls-1" d="M174.32,135l1.83-3C177.62,134.26,176,134.63,174.32,135Z"/><path class="cls-33" d="M168.07,43l-1.9-.11c-.71-.41-1.52-.78-1.1-1.86l1.2-1.4a.63.63,0,0,1,.85.33C167.34,41,168.47,41.75,168.07,43Z"/><path class="cls-1" d="M49.18,12.12l-3,1.81C46.63,12.46,46.58,10.05,49.18,12.12Z"/><path class="cls-1" d="M3.2,117l.73.11L4,120C3,119.16,1.31,118.54,3.2,117Z"/><path class="cls-1" d="M181.28,114.43a2.85,2.85,0,0,0,.83-.43c.41,1.17,1.79,2.61-.82,2.93h-.43C180.69,116.05,180.23,115.11,181.28,114.43Z"/><path class="cls-1" d="M165.46,149l1.63-2.07c.22.74,1,1.46.17,2.27C166.6,149.85,166,149.3,165.46,149Z"/><path class="cls-1" d="M61.14,7.06c-.8,1.07-1.89,1-3,.76C58.54,5.25,59.94,6.55,61.14,7.06Z"/><path class="cls-1" d="M6.08,61c-.12,1,.21,2.12-1,2.68C4.27,62.34,3.86,61.17,6.08,61Z"/><path class="cls-1" d="M167.12,40a5.76,5.76,0,0,0-.85-.33c-.42-.86-.84-1.72-1.27-2.58C167,37.11,168.24,37.66,167.12,40Z"/><path class="cls-1" d="M126.84,178.83c.76-1.22,2.28-.81,3.28-1.52C129.85,179.6,128.63,179.82,126.84,178.83Z"/><path class="cls-1" d="M5.17,122.94c1,.8.87,1.94,1,3C3.43,125.7,4.65,124.21,5.17,122.94Z"/><path class="cls-1" d="M123.11,179.94l2-1.12,1,.25C125.78,181.68,124.34,180.45,123.11,179.94Z"/><path class="cls-34" d="M80.2,5.09c2.34-.23,5.21.57,5.81-3,1.39.9,2.8-.05,4.2,0,.4,1.66-.88,2.82-1.27,4.24a3.84,3.84,0,0,1-.8,1.08,5.71,5.71,0,0,1-1.2.63C83.63,10,80.1,11.39,76.63,13a16.89,16.89,0,0,1-7.56,1.31c-1.69-.14-3.25-.53-4.21-2.11C64,9.61,65.87,9,67.63,8.24c2.16-1.38,4.84-.9,7.08-2,1.79-.59,3.72-.47,5.48-1.19Z"/><path class="cls-35" d="M88.18,6.07c-.26-1.79,1.41-2.59,2-3.94C92.9.79,95.56,3.5,98.26,2.2c0,.6-.08,1.19-.13,1.79-1.35,3.66-4.64.1-6.52,1.77C90.48,6.06,89.38,6.63,88.18,6.07Z"/><path class="cls-36" d="M29,141.23c-.22-1.08-2.54-2.16,0-3.23,2.39-.62,2.94,1.57,3.89,2.79a67.67,67.67,0,0,0,6.81,7.54c2.62,3.1,6.26,4.92,9.41,7.36A73.52,73.52,0,0,0,73.75,167c2.25.59,5.56-.43,6.51,3.11-1.41,1.37-3.36,1.12-5,1.7a8.83,8.83,0,0,1-4.52-.46c-6-2.18-12.06-4-17.53-7.4A89.88,89.88,0,0,1,41,155.7c-2.66-2.17-4.92-4.77-7.43-7.12C31.78,146.3,28.71,144.81,29,141.23Z"/><path class="cls-37" d="M41.19,154.9l12,8c-.38,1.47.82,3-.19,4.47-2.41,1.65-4.62,4.3-7.9,1.58-2.92-1.61-6-3.07-8.06-5.82-.6-1.17-2.75-1.46-1.95-3.43a4.92,4.92,0,0,1,2.59-1c1.28-.14,2-.69,2-2.16C39.62,155.63,39.71,154.57,41.19,154.9Z"/><path class="cls-38" d="M86.09,183.05l-1.1,0-1.85-.14c-.1-1.56-1.28-.79-2-.94l-4.89-.12a6.5,6.5,0,0,1-.12-.87c-2.17-1.07,2-2.24,0-3.11-1.71-.76-2.42.27-3,1.92-.42,1.1-1.91.79-3,.21-3-.84-6.21-1.36-9-3.05a1.65,1.65,0,0,1-.44-1.78c.38-.75,1.14-1.32,1-2.29s-.76-1.58-.92-2.45a1.49,1.49,0,0,1,.79-1c3.94-.94,6.41,2.55,9.81,3.27.7.14,1.39.33,2.08.52,3.14,1.25,6.72,1,9.69,2.87a12.23,12.23,0,0,1,3.24,6.33Z"/><path class="cls-39" d="M22.25,139c-1.72,1.25-3.43.11-5.15,0v0c-1.26-1.07-2.12-2.2-.51-3.68a215.79,215.79,0,0,0,20.93-11.75,6.38,6.38,0,0,1,1.26-.54,12.11,12.11,0,0,0,5.46-2.24,5.83,5.83,0,0,1,1.23-.6,5.2,5.2,0,0,1,2.74,0,2.57,2.57,0,0,1,1.12.77c.18,1.39-.92,2-1.75,2.69-2,1.35-4,2.64-6,4-1.07.75-2.21,1.39-3.34,2-1.55.83-3,1.89-4.5,2.71a10.67,10.67,0,0,1-1.18.57c-1,.37-2,.9-3.14.24-1.78.39-3.44,1-4.34,2.74C25.16,137.89,25.19,139.84,22.25,139Z"/><path class="cls-40" d="M29.46,133.2l2.72-1.09c4.5,4.4,7.61,10,12.4,14.15,1.91,2.25,4.43,4,5.93,6.6a3.05,3.05,0,0,1,0,1.41c-.54,1-.92,2.32-2.55,1.83-3.27-2-6.73-3.73-8.87-7.11-2.8-5.06-6.56-9.43-10-14Z"/><path class="cls-41" d="M21.08,147.06c-.84-.5-2-1.21-1.42-2.14,1-1.62,2.9-.7,4.39-1,1.89-.94,4.16-.77,4.76,1.05,1.31,4,4.58,6.73,6.16,10.5a3.84,3.84,0,0,1-.34,1.56c-1.54,2.11-3.1,1.69-4.66,0-2.91-2.76-6.3-5.1-8-9,.14-.44.74-.91.4-1.26S21.53,146.94,21.08,147.06Z"/><path class="cls-42" d="M34.14,156a3.13,3.13,0,0,0-2.09-3,4.15,4.15,0,0,1-3-4.43c.1-3.25-1.94-4.6-5-4.61,1.58-1,2.7-2.9,4.95-2.69L34.13,148c1,1.41,1.28,3.1,2.43,4.56C38.59,155.12,37.53,156.63,34.14,156Z"/><path class="cls-43" d="M61.13,170v1c-2.25,1.22-4,3.68-7,3.07-3.31-1.12-6.63-2.22-9-5,3.34,2,5.08-2.4,8-2C56.19,166.91,59,167.59,61.13,170Z"/><path class="cls-44" d="M29.09,135c5.66,2.91,7.47,9,11.3,13.48L39.1,149c-4.26-2.84-6.56-7.49-10.09-11C29,137,29.06,136,29.09,135Z"/><path class="cls-45" d="M70.09,180c.67-.36,2.26.64,2-1-.39-2.63.9-3.36,3-2.78,1.5.4,3.58.38,4.12,2.29.87,3-3.77-.48-3.15,2.5C74.1,180.65,71.87,181.72,70.09,180Z"/><path class="cls-46" d="M54.11,174c2.26-1.22,3.73-4.23,7-3.07,1.62,0,1.64.79,1,1.94,0,.89-.8,1.41-1,2.21l0,1.89A23.9,23.9,0,0,1,54.11,174Z"/><path class="cls-42" d="M30,157c1.4.68,2.79,1,4.16-.07a2.72,2.72,0,0,1,2.18.9c.61,1.28-1.29,1.24-1.19,2.26l1.93,3A16.56,16.56,0,0,1,30,157Z"/><path class="cls-47" d="M21.08,147.06a2,2,0,0,1,2.64-1.95c.7.13,1.24.57,1.19,1.27-.11,1.93-1.74,1.43-2.9,1.68Z"/><path class="cls-48" d="M22.25,139c1.77-.28,2.16-1.84,2.87-3.1,2.95,1.08.91,2.5,0,3.33C24.52,139.8,22.92,142,22.25,139Z"/><path class="cls-49" d="M21.08,126.61c-.7.11-.78-.37-.84-.87.08-4.54-2.13-8.65-2.46-13.13-1.33-7.17-1.06-14.42-1.05-21.64,0-2.19-.57-4.73,2-6.18,2.18,1.12,1.19,3.16,1.44,4.82.23-1.3.29-2.89,2.15-2.88,1.12,0,1.58,1,1.89,2a6.17,6.17,0,0,1,.31,1.95A117.7,117.7,0,0,0,28.94,124a4,4,0,0,1-.2,2.45c-1,1.61-2.48,1.55-3.86.7A5.3,5.3,0,0,0,21.08,126.61Z"/><path class="cls-50" d="M19.13,114a71.85,71.85,0,0,0,2.22,8c.72,1.8.13,2.73-1.11,3.71L19,125c-1.41-1.21-1.18-3-1.65-4.56-1.61-6-4.86-11.43-5.11-17.94A136.46,136.46,0,0,1,12,88.22c.72-2.4.41-5.08,2-7.25,4.2.15,3.24,3.26,3.19,5.72C16.91,95.86,17,105,19.13,114Z"/><path class="cls-51" d="M13.16,88c-.35,10.68.43,21.19,4.79,31.15a5.51,5.51,0,0,1,.09,2,.54.54,0,0,1-.94,0c-1.13-3.88-2.82-7.44-5.94-10.17-2.75-1.1-5.86-1.95-4.4-6.09C8.94,103.29,9,101,8.81,98.65a14.32,14.32,0,0,1,3-10.62A1,1,0,0,1,13.16,88Z"/><path class="cls-52" d="M21.08,126.61c2.42-1.94,4.67,1,7.05.24a7.81,7.81,0,0,1,4.62-3.77c1.75-.41,3.08-1.59,4.52-2.56a2.16,2.16,0,0,1,2,.33c.6,1.39-.28,2.26-1.12,3.14a71.28,71.28,0,0,1-20.94,11.9c-1.86-1.6,1.62-3.38-.16-5,1.12-1.75,3.07-.48,4.43-1.2.88-.47,2.55-.57,2.13-2.05C23.43,127.12,22,127,21.08,126.61Z"/><path class="cls-53" d="M7.24,105.05c-.69,3.3,2.35,4.12,3.92,5.91-3.34-.75-5.07.91-5.88,4L4.9,115c-.44-1.37-.17-2.79-.25-4.18-1.4-2.35-.63-4.7,0-7.06,1-2.59.79-5.38,1.27-8.06-.58,2.94-.58,2.94-2.25,2.3,0-3.14,0-6.28,0-9.41a1.14,1.14,0,0,1,1.1-.94c1.84,1.55,2.69,3.82,4.09,5.69.59,2.69-.14,5.48.65,8.16C10.14,103.56,8.75,104.35,7.24,105.05Z"/><path class="cls-54" d="M17,130.91c.84.46,3.89-.78,1.62,2.06-.71.89-1.51,1.68-1.46,2.92-1.66,1-.25,2.11-.1,3.17C13.16,135.85,13.14,133.54,17,130.91Z"/><path class="cls-55" d="M17.1,121.13a2.48,2.48,0,0,1,.94,0L19,125c-1.12,1.12-2.07,2.48-4.33,2.74C15.54,125.4,17.49,123.61,17.1,121.13Z"/><path class="cls-56" d="M46.11,18,48,16.86c2.1-.07,4.31-.33,4.69,2.65A27.23,27.23,0,0,1,40.07,29.2c-3.11-4.93-2.91-5.76,1.83-8.82C43.27,19.5,44.81,19,46.11,18Z"/><path class="cls-57" d="M46.11,18c-.38,1.25-1.49,1.72-2.51,2.18-3.9,1.77-6,4.18-3.27,8.46-.45,2.69-1.59,3.56-3.85,1.46-.25-1.27-.68-2.34-2.34-2-2,.39-2.67,3.09-5,2.88C34.31,26,38.7,20,46.11,18Z"/><path class="cls-58" d="M52,19.88c-.13-2.64-2.92-1.71-4-3,4-2,7.43-5.3,12.12-5.94a1.32,1.32,0,0,1,.17,1.26c-.13,1.8-5.87,1-2.09,4.62a1.45,1.45,0,0,1-.07,1.3,13.34,13.34,0,0,1-4.18,2.45A1.87,1.87,0,0,1,52,19.88Z"/><path class="cls-59" d="M60,12.19l.09-1.27c2.72-.15,4.53-2.38,7-3.07a.91.91,0,0,1,1.17,0A.79.79,0,0,1,68.08,9c-1.84.23-3.16.9-2.58,3.13l-.27.61a7.5,7.5,0,0,1-3,2.65,2.48,2.48,0,0,1-1.37-.15C59.85,14.39,59.16,13.49,60,12.19Z"/><path class="cls-21" d="M68.17,8.1l-1-.25c1.12-2.84,4.46-.93,6-2.82l7,0L75.08,7.14C72.8,7.65,70.44,7.5,68.17,8.1Z"/><path class="cls-60" d="M104.06,5.12c2.5-.89,4.62,1.3,7.06.86,5.38,1.87,10.94,3.28,16,6,2.89,1.78,6.34,2.62,8.7,5.27a2.67,2.67,0,0,1-.74,2.18,7.51,7.51,0,0,1-4.69.83c-2.31-.37-4.56-.88-6.35-2.53-1-1-.92-2.55-1.74-3.65-1-1-2-.56-2.89.18-2,1.57-3.71,2.14-4.61-1,.91-1.77,1.34-3.37-1.39-3.82-1.73-.29-3.44-.69-5.16-1a15.21,15.21,0,0,1-2-.4A4,4,0,0,1,104,6.41,1.27,1.27,0,0,1,104.06,5.12Z"/><path class="cls-61" d="M154,29.1a39.77,39.77,0,0,1,7.06,8c.63,1.1,2.18,2.22,1.18,3.46-1.38,1.71-3.34.58-5.06.18-3.73-2.67-8.57-4.39-8.66-10.17C150,28.46,151.65,27.46,154,29.1Z"/><path class="cls-62" d="M154,29.1a5.29,5.29,0,0,0-5,1.89c-2,2,.11,2.73,1.2,3.77,1.78,1.71,3.89,3.31,2.07,6.22A30.42,30.42,0,0,1,140.9,30.45a5.61,5.61,0,0,1,2-2.77,3.41,3.41,0,0,1,2-.37c.68-.06,1.61.49,1.76-.77-.44-1.54-2.21-2.61-1.56-4.5C148.92,23.34,151.23,26.53,154,29.1Z"/><path class="cls-63" d="M145.1,22l3.07,4.78c-.72,1.28-2,1.11-3.16,1.2h-1.88c-1.63.42-2.14-.44-2.14-1.88a2.74,2.74,0,0,0,.2-3.68c.42,1.32.91,2.65-.35,3.77-2.7-1.78-6.41-2.76-5.72-7.22V17c1.71-1.22,2.74.49,4,1C141.94,18.17,142.85,21.08,145.1,22Z"/><path class="cls-64" d="M157.1,40c1.41-.86,6,2.61,4-2.92,1.78.85,2.83,2.44,4,3.94.37.62.74,1.24,1.1,1.86a17.25,17.25,0,0,0-7,1.15C157.72,43.06,156.62,41.94,157.1,40Z"/><path class="cls-65" d="M139.17,18l-4-1c-2.63-1.73-5.92-2.43-8-5.05A26.89,26.89,0,0,1,139.17,18Z"/><path class="cls-66" d="M24.09,48.08c.77,1.09.86,3,2.81,2.7,1.57-.25,1.09-1.67,1.18-2.71-.61-1-.6-1.89.75-2.3a2.32,2.32,0,0,1,1.27,1.69,7.63,7.63,0,0,1,.16,1.42c-.37,2.38-.35,4.56,2.58,5.34a9.83,9.83,0,0,1,1.66,1c1,.74,2.1,1.4,3.14,2.1,1.24.86,2.62,1.45,3.91,2.22a67,67,0,0,0,6.94,4.32,39.7,39.7,0,0,1,4.73,2.62,4.72,4.72,0,0,1,.85,1.13,2.75,2.75,0,0,1,.26,2.1c-.84,1.19-2,1.26-3.32,1.07-8.87-5.22-17.94-10.1-26.95-15.09a4.38,4.38,0,0,1-2.13-2,4.55,4.55,0,0,0-.15-3.51,3.65,3.65,0,0,1,1.15-2.41A.81.81,0,0,1,24.09,48.08Z"/><path class="cls-67" d="M52,19.88l2.07.11a.71.71,0,0,1,1.14-.09c0,2.26-2.2,3.41-2.66,5.43-4.49,3.76-8.72,7.9-14.33,10.07-1.7-.23-3.19-.1-4.4,1.43C33,38,31.87,39.18,30.15,38c1.72-2.8,4.07-5.33,4-8.93a2,2,0,0,1,2.94-.1c1.41,3.06,2.24.64,3.22-.35Z"/><path class="cls-68" d="M30.15,38c2.25.07,2.8-1.87,3.78-3.25,1.52-2.15,2.83-1.37,4.12.22a17.49,17.49,0,0,1-9.14,11l-.83,2.1C25.31,44,27.36,40.92,30.15,38Z"/><path class="cls-69" d="M24.09,48.08,23,48.21c-6.33.53-6.57.75-5.81,5.51.79,1.36,2.35,1.73,3.43,2.69,1.5,1.33,1.42,2.5-.66,3.16a14.25,14.25,0,0,0-3.86.06c-1.67-.27-3.25.87-4.93.35.23-1.95,1.43-3.76.82-5.84,1.21-.66,2-1.37,1.84-3.06a4.22,4.22,0,0,1,3.36-4.8C19.57,45.78,22.5,44.82,24.09,48.08Z"/><path class="cls-70" d="M37.11,29l-2.94.1a7.8,7.8,0,0,1,0-1c.61-1,1.48-1.7,2.59-1.2C37.09,27.06,37,28.25,37.11,29Z"/><path class="cls-71" d="M162.13,148.92c-1.95,3-3.82,6.1-7,8.07-1-.89-1.53.09-2.14.64-2,1.75-6.09.68-6.52,4.69-.75,1-1.54,2-3,1.87-2.4-2.2-1.68-4.59-.45-7,1-1.54,2.84-1.89,4.23-2.92-.57-.66-1.5-.46-2.1-1a1.84,1.84,0,0,1-.4-1.28c1.81-3.67,5.77-5.29,8.09-8.48,1.54-.88,3.08-1.49,4.48.25.51,1.82-.53,3.12-1.47,4.46-.73.95-1.78,1.65-2.22,2.8,1.94.81,3.26-.46,4.68-1.33C159.5,149,160.57,147.76,162.13,148.92Z"/><path class="cls-72" d="M138.23,169.19c-2.93,4.24-7.75,5.09-12.11,6.78-2.06-2.65-4-5.36-3.48-9a2.34,2.34,0,0,1,2.42-1.2c1.25-.2-1.26,3.31,1.77,1.68,1.9-1,3.85-2.51,6.32-2C135,166.51,137.12,167.15,138.23,169.19Z"/><path class="cls-73" d="M123.12,167c-.39,3.46,3.89,5.38,3,9l-3.05,1.94h-.48l-.47,0c-2.92-.59-2.62-3.91-4.56-5.34-1.08-1.17-3-1.32-3.68-2.94.88-2.29,3.25-1.85,4.91-2.71C120.24,166.59,121.7,165.82,123.12,167Z"/><path class="cls-74" d="M144.21,157.06c-1.2,2.2-1.83,4.43-.24,6.73A2.56,2.56,0,0,1,146,165c-2.14,1.62-4,3.68-6.92,4a9.19,9.19,0,0,1-.74-3.62c2.57-2.59-.81-1.28-1.26-1.89a6.06,6.06,0,0,1-2.27-2.59,3.61,3.61,0,0,1,4.08-3c.38.14.39.74.89.77a4.52,4.52,0,0,1-.93-1.1,4.42,4.42,0,0,1,4.59-3A1.55,1.55,0,0,1,144.21,157.06Z"/><path class="cls-75" d="M155.11,148l2-4c.81-1.63,2.1-2,3.5-1a4.05,4.05,0,0,1,1.5,5.06c0,.29,0,.57,0,.85-3.09,1.11-5.44,3.71-8.82,4.31-1.61.28-1.59.44-1.19-2.25A8,8,0,0,0,155.11,148Z"/><path class="cls-76" d="M162.12,148.07c-1.5-1.56-.26-6.47-5-4.09-1.28-.93-2.54-.14-3.81,0-.83-2.56,1.79-3.38,2.6-5.12a1.91,1.91,0,0,1,1.94.37c2.35,2.22,5.61,2.78,8.24,4.5v.4C165.06,145.76,164.6,147.94,162.12,148.07Z"/><path class="cls-77" d="M139.11,166a2.59,2.59,0,0,1,0,2.94l-.89.25c-2-.58-4-1.21-5-3.25a4.63,4.63,0,0,1,.69-1c1-.9.43-1.83,0-2.76a1,1,0,0,1,1-1.35c1.25.2,2.21.7,2.26,2.16C138.16,163.75,138.1,165.22,139.11,166Z"/><path class="cls-78" d="M146,161.91c-.4-2.59-.06-4.41,3.34-4.07,1.17.11,2.44-.68,3.66-1.05.68.08.8.71,1.11,1.16a6.06,6.06,0,0,1-3.94,3C148.34,159.52,147.71,163.24,146,161.91Z"/><path class="cls-79" d="M146,161.91c1.64.8,1.67-5.64,4.17-.92L146,165a2.16,2.16,0,0,1-2.07-1.16Z"/><path class="cls-80" d="M154.06,158,153,156.79c.33-.48.61-1.3,1-1.36,1.07-.17,1.06.81,1.19,1.56Z"/><path class="cls-81" d="M13.16,88h-1c-4.54-.57-2.28-5.16-4.29-7.2-1.32-.37-1.53,1.13-2.44,1.43a1.21,1.21,0,0,1-1.23-.16c.52-3.82.18-7.88,3-11.07,1,.9,1.23,2.43,2.37,3.26,2,1.77,4.46-2.44,6.32.53.63,2.41.38,4.57-1.67,6.25C13.89,83.35,14.45,85.81,13.16,88Z"/><path class="cls-82" d="M9.12,75c-2.61-.41-1.71-2.49-1.92-4,1.79-3.5,1.63-7.7,4-11a4.29,4.29,0,0,1,5-.95c1,5.88-2.15,10.6-4.49,15.52C11.13,75.56,10.11,75.68,9.12,75Z"/><path class="cls-83" d="M4.3,88c0,3.65-.07,7.31-.1,11,1.27,1.47,1.94,3.07,1,5,1.88,2.12-1.93,4-.23,6.14-.3.37-.58.34-.84,0L3,108a6.85,6.85,0,0,1,.16-5L3.2,87.07A7.28,7.28,0,0,1,4.11,87a.71.71,0,0,1,.34.68Q4.4,88,4.3,88Z"/><path class="cls-84" d="M4.3,88c-.06-.36-.12-.71-.19-1.07,0-1.63,0-3.27.07-4.9l.87-.17c1.78,2,1.75,4,0,6.07C4.82,88,4.56,88,4.3,88Z"/><path class="cls-85" d="M2,82.65l.27-4.56C4,79.81,2.82,82,3.1,83.92Z"/><path class="cls-86" d="M169.13,57.05c-1.2,2.52.79,1.82,2,1.94,2.92-1.22,3.28,1.22,3.87,2.91,1,2.71,1.59,5.5-1.8,7.19-2.06,1.24-2.92-3.51-5.24-1.06-2.81-.8-2-4.85-4.95-5.51a2.73,2.73,0,0,1-1.12-2.45,7.2,7.2,0,0,1,2.77-2.21C166.07,57.3,167.31,55.52,169.13,57.05Z"/><path class="cls-32" d="M179.14,70a9.63,9.63,0,0,0,2,7c0,.37,0,.74,0,1.11-1.06,1.56.08,3.47-.8,5.07-3.17-.27-5.9-1.37-7.76-4.11a7.26,7.26,0,0,1-.31-4.44c.64-3.28,2.6-4.85,6-4.62Z"/><path class="cls-87" d="M178.14,70c-1.06,2.11-4.79.9-5,4a4.52,4.52,0,0,1-1.43-4.46l.44-.55c3.54-3.83,3.22-7-1-10,1.08-2.36,2.3-4.17,3.84-.34C176.39,62.29,178.15,65.88,178.14,70Z"/><path class="cls-88" d="M169.13,57.05c-1.69-.16-2.61,1.39-4,1.83a1.81,1.81,0,0,1-.41-2c1.54-1.7,2.61-3.84,4.76-4.95l1.61,1C170.41,54.32,169.77,55.68,169.13,57.05Z"/><path class="cls-89" d="M109.07,181.92l-3.89.13-4.82.77c-2.21-1.14,2.92-4.06-1.1-4.8-1.16-1.6-.21-2.33,1.19-2.86,4.3,2,8.22-1.82,12.47-.85,2,1.08,4.09,2,4.25,4.71C115.16,181.94,111.41,180,109.07,181.92Z"/><path class="cls-90" d="M86.13,184.71c0-.55,0-1.11,0-1.66l.08-.28c.36-1.54-.76-2.81-.81-4.28-.06-1.94.24-3.66,2.75-3.73,1,.84,1.13,2.06,1.39,3.22,2.42,5.58,4.61.68,6.89-.15,1.32,0,1.76,1.14,2.53,1.86-1.13,2-3,2.84-5.07,3.53-1.1.37-2.86.62-1.72,2.6C90,186.33,88.43,183.45,86.13,184.71Z"/><path class="cls-91" d="M98.92,179.69c-1.56.43-1.69-.63-1.79-1.72l-.12-.58c-.26-1-.61-2,.27-2.85,1.31-.51,1-2.16,2.08-2.88a2,2,0,0,1,1.35.3c1.25,1.22,1.6,2.53.38,4-1.26.12-2,.72-1.83,2.08C99.15,178.58,99,179.13,98.92,179.69Z"/><path class="cls-92" d="M157,46.86c.79,2-3.14,3.13-.86,5.31-.65,2.69-2.43,3.58-5,3.17-6.76-10.08-16-17.17-26.88-22.28A6.75,6.75,0,0,1,122.59,32c-1.19-1.34-3-1.61-4.41-2.65a1.25,1.25,0,0,1-.13-1.24c2.33-2,4.53-.9,6.72.29,2,1.09,4,2.19,6.46,1.23C135.77,30,139,33,142.46,35.5c1.61,1.14,2.91,2.72,4.82,3.44,3.58,1.61,5.19,5.53,8.58,7.35A3.19,3.19,0,0,1,157,46.86Z"/><path class="cls-93" d="M151.12,55c2-.32,3.4-1.86,5-2.86,2.3-.6,2.87-3.27,5-4.12.77.19-.22,2,1.79,1.45,2.21-.62,2.94.83,1.69,2.89-3.6,3.53-8.64,4.92-12.34,8.3-7.48,2.9-13.48,8.61-21.13,11.22a4.1,4.1,0,0,1-4.08-1.45,2.28,2.28,0,0,1,.57-2.7,12.81,12.81,0,0,1,3-1.79c2.61-1.16,4.82-3,7.2-4.53,1.5-.86,3.1-1.56,4.63-2.36.57-.32,1.15-.62,1.72-.92C146.6,57.34,148.1,54.5,151.12,55Z"/><path class="cls-94" d="M157,46.86a2.6,2.6,0,0,1-.71.2c-2.27-1.46-4.46-3-4.18-6.14.5-3.36-1.53-5-4-6.67-2.26-1.51-2.74-3.2,1-3.26,1,4.47,5.57,5.81,8,9,.59,1.39,2.16,2.28,2,4Z"/><path class="cls-95" d="M164.06,52c.75-1.5.42-2.35-1.33-1.69-3.54,1.35-1.24-1.36-1.6-2.21l2-2A6,6,0,0,1,168.19,49C167.7,51.17,167.12,53.25,164.06,52Z"/><path class="cls-96" d="M1.44,98.67V88.08h.49V98.82Z"/><path class="cls-97" d="M3.14,103c-.05,1.66-.11,3.32-.16,5H2.23c-.09-1.21-.17-2.43-.26-3.65Z"/><path class="cls-98" d="M180.11,83c.25-1.66-.66-3.54.94-4.94q0,3.47.07,6.93c1,5.46.26,11,.44,16.44a1.09,1.09,0,0,1-1.4.77c-1.74-1.65-1.33-3.85-1.5-5.89C177.92,91.73,177.46,87.19,180.11,83Z"/><path class="cls-99" d="M181.09,102l0-17c2,3.13.53,6.61,1,9.9.28,2-.73,4.23.91,6.05a4.53,4.53,0,0,1,.26.6.86.86,0,0,1-.07.34c-2.43,1.84.26,5.26-2.18,7.1C179.29,106.63,179.43,104.31,181.09,102Z"/><path class="cls-32" d="M182.15,77c1.85,2.14.69,4.68.93,7C181.3,81.88,182.4,79.34,182.15,77Z"/><path class="cls-100" d="M164.06,52c2.31.28,2.71-2.06,4.13-3,1.29.63.91,2,1.26,3a6.18,6.18,0,0,1-4.33,4.91c-1.09,1.47-2.93,1.45-4.38,2.2A37.87,37.87,0,0,1,156.07,61c-1.43-.09-3.37,1.6-4-1.14C155.14,55.85,160.24,54.88,164.06,52Z"/><path class="cls-101" d="M177,122.85l-.93,3.13c-1.86,1.15-1.44,3.6-2.86,5a8.67,8.67,0,0,1-5.65-4.48c-.19-3.41,2-5,4.75-6.06C174.62,119.55,176,120.93,177,122.85Z"/><path class="cls-102" d="M168.12,126.71c1.81,1.29,4,2.08,5.11,4.27L172,134c-1.36,2.38-2.38.63-3.48-.27a20.51,20.51,0,0,0-2.52-1.93c-1.32-1-3.75-.32-4.15-2.72,1.19-2.37,3.44-2.19,5.56-2.35Z"/><path class="cls-103" d="M169.2,132.94c.88.5,1.32,2.21,2.81,1a6.65,6.65,0,0,1-1.81,5.12l-1-2.06A2.65,2.65,0,0,1,169.2,132.94Z"/><path class="cls-104" d="M117.17,179l-4.08-4,.59-.58a4.93,4.93,0,0,1,4.74.17c1.23,1.29,2,2.64.68,4.34Z"/><path class="cls-105" d="M119.1,178.93a6.35,6.35,0,0,0-1-4,2.16,2.16,0,0,1-.62-1.82,2.09,2.09,0,0,1,.71-1.1c3,.81,1.67,4.6,4,5.91Z"/><path class="cls-106" d="M177,122.85c-4.46-2.67-6.62-1.73-8.9,3.87,0,.18-.07.36-.11.54a1.89,1.89,0,0,1-1.24-.07c-1-.32-2.18-.24-2.9-1.24-.29-1.5.8-2.44,1.41-3.58.86-1.19.67-3.1,2.47-3.67.86-.2,2.15,2.53,2.61-.4.86-2.28,1.48-4.67,3.28-6.45.89-.79,2.25-1,2.8-2.23.41-.93.22-2,.74-2.91A8.6,8.6,0,0,0,179.3,103a2.54,2.54,0,0,1,.81-1c.33,0,.65,0,1,0l-.06,7a2,2,0,0,0-.85,2.07c.5,1,.75,2-.21,2.84Q178.49,118.37,177,122.85Z"/><path class="cls-85" d="M180,113.88l.21-2.84c1.3.83.78,2.25,1.1,3.39l-.42,2.51C179.87,116.12,180.2,114.92,180,113.88Z"/><path class="cls-28" d="M81.11,182c1.22-.47.49-1.9,1-2.9,1.49,1.29.9,2.65,1.08,3.84A2,2,0,0,1,81.11,182Z"/><path class="cls-107" d="M91,4.92c2.09-2.47,4.91.68,7.1-.93l4.1-.05,1,.91c-.88,1.21-1.78,2.43-1.07,4.07.23,1.76.42,3.51-.78,5-3,.23-1-1.88-1.48-2.38-1,5-2,5.71-5.43,3.37a4.24,4.24,0,0,1-.06-1.42c.31-1.73,2.31-3.21.81-5.23-.6-.52-1.25-1-1.87-1.47S91.53,5.87,91,4.92Z"/><path class="cls-108" d="M101.17,8.27c-2.17-2.84-.31-3.27,2-3.42.29.1.57.19.86.27a8.13,8.13,0,0,0,.13.84,6.47,6.47,0,0,1-1.89,1.72A3.7,3.7,0,0,1,101.17,8.27Z"/><path class="cls-14" d="M4.08,110.06a2.64,2.64,0,0,1,.84,0c0,1.63,0,3.27,0,4.9C3.62,113.52,4.32,111.71,4.08,110.06Z"/><path class="cls-109" d="M166.09,143.76c-3.8.72-6.38-1.32-8.73-3.87.9-1.61-.64-3.54.7-5.08a2.38,2.38,0,0,1,2.44.79c1.06,2,3.24,2.87,4.64,4.52.78,1.06,1.94.8,3,.89C167.46,141.92,166.78,142.84,166.09,143.76Z"/><path class="cls-110" d="M169.2,132.94c0,1.36,0,2.71,0,4.07l-2.81,2.24-.54-.28c-.28-1.12-1.37-2.09-.72-3.41.74-1.1.23-2.17,0-3.29-.32-1.62.29-2.17,1.79-1.15Z"/><path class="cls-110" d="M165.14,140.12c-2.7-.12-4.28-1.73-5.38-4,3.38-2,4.06,2.14,6.29,2.77l.31.36Z"/><path class="cls-111" d="M91,4.92c1.09.17,2.38-.21,3,1.11a21.22,21.22,0,0,1,1,8c2.27,2.08,2.91,1.65,4.41-3.17l1.6,3.19c2-.08,4.47-1,5.06,2.21A7.51,7.51,0,0,1,102.36,18c-4.55-.22-5.93,2.12-5.9,6.43.12,15.37.08,30.74,0,46.12a8.7,8.7,0,0,1-.82,4.4c-.81.94-1.66,1.78-3,.92-2.25-2.26-1.89-5.17-1.9-8,0-17.36,0-34.73-.06-52.09,0-1.16.85-2.58-.61-3.52a1.87,1.87,0,0,1-1.3-.34,5.13,5.13,0,0,1-.68-5,1.65,1.65,0,0,1,.08-.88Z"/><path class="cls-112" d="M69.36,13.1c2.73.56,5.14-1,7.76-1.12,4.9-2.42,5.94-2.19,7.34,1.63-1.09,1.77-3.13,1.46-4.72,2.13a11.21,11.21,0,0,1-4.06,1c-1.84-.6-3.37.25-4.91,1.08a6.22,6.22,0,0,1-1.41.3c-1.83-.08-3.71-.1-3.74-2.68C66.16,13.46,68.06,13.77,69.36,13.1Z"/><path class="cls-113" d="M84.15,14c-1.08-5.12-4.49-2-7-2,3.34-1.73,6-4.77,10.14-4.91a3.18,3.18,0,0,1-.39,2.39c-.83,1.52.44,4-2.13,4.74Z"/><path class="cls-114" d="M86.19,9c.35-.65.71-1.29,1.07-1.93A6.07,6.07,0,0,0,88.1,7a8.4,8.4,0,0,1,1,5.05c.26,1-.29,1.24-1.13,1.22C86.65,12.13,85.58,10.92,86.19,9Z"/><path class="cls-115" d="M68.17,8.1c2.15-1.41,4.54-1.09,6.91-1L68.08,9A6.56,6.56,0,0,0,68.17,8.1Z"/><path class="cls-115" d="M69.36,13.1l-3.18,1.72a1.66,1.66,0,0,1-1.53-1,1.9,1.9,0,0,1,.5-1.8l.35.12A6.72,6.72,0,0,0,69.36,13.1Z"/><path class="cls-116" d="M48,156.1,50.13,154c1.87-.8,3.13.43,4.49,1.33,7.78,5.17,16,9.29,25.35,10.86,2.68.45,5.75.44,7.33,3.43.27,2.16-1.21,2.46-2.81,2.64-1.49-.66-3.18-1-4.34-2.27-9.57-2.39-19-5.16-27.54-10.27C50.9,158.67,49.11,157.82,48,156.1Z"/><path class="cls-117" d="M61.13,170c-2.74-.81-5.6-1.28-8-3,.21-1.35-4.1-2.77.08-4.05,5.94,2.43,11.64,5.49,17.92,7.08.89,1.31,2.16,2.63,0,3.95C67.56,173.22,65.12,169.66,61.13,170Z"/><path class="cls-118" d="M36.24,158A2.47,2.47,0,0,1,34.13,157c0-.33,0-.66,0-1,2.06-.59,4.58-1.13.81-3.14-2.49-1.34-.25-3.3-.82-4.86a35.61,35.61,0,0,1,7.06,6.92c-1.46,1.42,1.62,5.61-3.07,5.07C37.51,159.31,36.79,158.76,36.24,158Z"/><path class="cls-119" d="M80.15,170c1.52.31,3.74-.77,4,2l-.51.52c-1.6.83-3.3.67-5,.54a6.86,6.86,0,0,1-1.4-.36,3.48,3.48,0,0,1-2.08-1.86C76.63,169.35,78.49,170.27,80.15,170Z"/><path class="cls-120" d="M75.18,170.82l2,1.12c-1,1.33-2.66,1.49-4.09,2h-2c1-1.32.06-2.64,0-3.95C72.41,170.61,73.69,171.21,75.18,170.82Z"/><path class="cls-121" d="M36.24,158A1.68,1.68,0,0,1,38.12,160l-3,.16C34,158.65,36.09,158.86,36.24,158Z"/><path class="cls-122" d="M84.17,172l2.73-2a1.27,1.27,0,0,1,1.73.55,4.42,4.42,0,0,1,.48,2,5.14,5.14,0,0,1-.21,1.35,2.36,2.36,0,0,1-.86,1c-1.8.84-2.23,2.17-1.48,4,.56,1.36,1.08,2.75-.39,3.93C84.39,181.24,84,178.93,83,177a3.29,3.29,0,0,1,.1-4l.94-1.05Z"/><path class="cls-117" d="M83.87,173,83,177c-3.09-1.72-7-.76-9.91-3,.35-2.71,2.51-1.79,4.09-2l.94.11C79.93,173.18,82.1,171.78,83.87,173Z"/><path class="cls-123" d="M61.1,175.08c-1-1.36.43-1.59,1-2.21.76.22,1.94.26,1.58,1.39S62,174.93,61.1,175.08Z"/><path class="cls-124" d="M47.15,123.05l2.19-2c1.22-1.79,2.73-2.85,5-2.09a2.37,2.37,0,0,1,.22,2.09c-2.27,1.93-3,3.5-.55,6.33,7.53,8.75,17.24,13.28,28.17,15.8,2.08.48,4.35.24,6.19,1.66a2.85,2.85,0,0,1,.25,2.16c-.7,2.48-1.85,4-4.93,3.66-14.85-1.9-27.23-8.1-36.45-20.19C45.25,127.87,44.55,125.57,47.15,123.05Z"/><path class="cls-125" d="M47.15,123.05c-2.36,6.89,3.61,9.67,7.09,13.21,8.15,8.27,18.78,11.42,30,13.48,3.36.62,1.87-3.07,3.93-2.77,1.35,1.38,1.23,3,.71,4.65-2.48,3.62-6.06,2.91-9.37,2a42.22,42.22,0,0,1-10.2-3.75C62.77,146,55,144.69,49.05,139.79c-3-2.18-5.08-5.21-7.16-8.2-.91-1.31-2.06-2.75-.71-4.49A19.9,19.9,0,0,1,47.15,123.05Z"/><path class="cls-126" d="M50.13,153a21.79,21.79,0,0,1-6-6c-3.46-5.26-7.57-10-11.23-15.14,1.62-1.2,3.12-2.61,5.21-3,.75,3.94,3.59,6.68,5.67,9.86a18.51,18.51,0,0,0,5.33,5.57c1.57,1.13,3.2,2.27,3.4,4.47a14.74,14.74,0,0,0-.24,3.25C52.19,153.41,51.46,154,50.13,153Z"/><path class="cls-127" d="M43.12,139c-2.09-3.18-6.85-5-5-10.15l3.08-1.74c1.11,5,5.33,7.9,8,11.87,0,.22,0,.44.08.67A16.91,16.91,0,0,1,50.1,142c.23.8.44,1.67-.4,2.22s-1.58.06-2.22-.49A24.88,24.88,0,0,1,43.12,139Z"/><path class="cls-128" d="M54.17,119.28c-1.81.06-2.9,2-4.83,1.79l-1.22-.1c-.58-.93-.13-1.76.24-2.6a7.62,7.62,0,0,1,2.35-2.51,21.59,21.59,0,0,1,8.49-4.64,7.85,7.85,0,0,1,2.16-.33c1.28.09,2.52.28,3.09,1.69a3.82,3.82,0,0,1-1.05,2.74C60.48,117,57.82,119.31,54.17,119.28Z"/><path class="cls-129" d="M32.89,131.85c4.61,1.45,5.62,6.18,8.18,9.42,1.23,1.56,4.85,2.4,3,5.72a40.8,40.8,0,0,1-11.94-14.88A.88.88,0,0,1,32.89,131.85Z"/><path class="cls-130" d="M51,116.92l-2,1.85c-.87,1.46-2.64,1.36-3.85,2.22h0a32.29,32.29,0,0,1-6,3l-.5,0h-.5c.34-1,.67-2,1-3a3.67,3.67,0,0,1,1.38-2.25,7.47,7.47,0,0,1,1.11-.8c2-1,3.61-3,6.15-3.06C49.11,115.13,51,114.51,51,116.92Z"/><path class="cls-131" d="M39.13,124a11.79,11.79,0,0,1,6-3C43.78,123.29,41.61,124,39.13,124Z"/><path class="cls-131" d="M45.15,121c1-1.3,2.44-1.7,3.85-2.22l-.88,2.2Z"/><path class="cls-132" d="M50.13,153c1.49-.08,1.57-.7.78-1.81-1.08-1.51-.18-2,1.22-2.18,1.48-.56,2.53.4,3.61,1.1,9.37,6.12,19.31,10.76,30.64,11.82A3.48,3.48,0,0,1,88.56,163c.6,2.69,3.29,5.46-.31,8l-1.35-1c-1.73-1.87-4.11-2-6.38-2.3-11.38-1.77-21.07-7.3-30.39-13.66Z"/><path class="cls-133" d="M33.13,123.91l-5,2.94a128.1,128.1,0,0,1-5.08-40c-3,2-.8,5.26-3.92,6.73V85C17.37,81.26,18,77.89,20.61,74.8c2.13,1.27.63,4,2.15,5.47a6.26,6.26,0,0,1,.3,1.92,2.1,2.1,0,0,0,0-1.19,11.59,11.59,0,0,0-1.23-3.19c.46-1.48-.2-3.54,2.12-4,1,.75,1.06,2.51,2.71,2.63.75,3.72-2,7-1.18,9.76.95-7.34,2.7-15.44,7.09-22.73,2.58-1.52,4.22,0,5.75,1.8a1.47,1.47,0,0,1-.41,1.32c-4.19,2.76-4.32,7.66-6.16,11.67a77.2,77.2,0,0,0-1.24,30.5c.6,3.59.93,7.21,2.5,10.56C33.72,120.79,34.43,122.34,33.13,123.91Z"/><path class="cls-134" d="M21.13,75c-1.48,3.16-1.64,6.6-2,10-2.06,7.49-1,15.07-.51,22.6.14,2.11.43,4.26.51,6.4-3.08-5.34-2.16-11.39-2.9-17.13-.46-3.65-1.18-7.38-.17-11.16C16.52,84,16.31,82,14.23,81c.35-2.35,1.25-4.62.89-7.06-1.42-2.34-.06-4.33.78-6.39,1.31-1.76,1.29-4.19,2.89-5.82,2.16-1.22,4.29-2.53,7-2.27a1.85,1.85,0,0,1,1,1.06A28.87,28.87,0,0,1,21.13,75Z"/><path class="cls-135" d="M8.23,79c3.16,2.21.47,7,3.91,9-2.45,4.64-2.11,9.67-2,14.66,0,2-1.29,2.37-2.89,2.4,2.6-1.7,1.25-4,1-6.17-.23-2-.12-4-.16-6-1.15-1.58-.58-3.28-.37-5a8.22,8.22,0,0,0-1-6C6.53,80.59,6.81,79.47,8.23,79Z"/><path class="cls-136" d="M33.13,123.91c-4.5-10.28-5.22-21.16-5-32.17a45.87,45.87,0,0,1,3-14.76,2.18,2.18,0,0,1,.46,2.87c1.58-4.68,2-10.21,6.51-13.82l0-.06c1.95-.38,3.22.17,3.27,2.39-3.08,6.66-5.57,13.5-6.25,20a19,19,0,0,1,.78-3.85c.35-1.26.59-3,2.3-2.75,2,.26,1.83,2.07,1.81,3.58a10.89,10.89,0,0,1-.34,2.47c-2,8-.93,15.83,1.38,23.62.73,2.46,2,5.07.1,7.64h0c-1.21.93-2.92.86-4,2C36.74,123.3,35,123.71,33.13,123.91Z"/><path class="cls-137" d="M37.17,121.05c.69-1.93,2.25-2.18,4-2l-2,2Z"/><path class="cls-138" d="M9,88l-1,4.92c-2.52-.74-3.3-2.52-3-5l0-6.07c1.51-.48-.28-4.56,3.18-2.93-.49,1-1.32,1.79-1.08,3C8.76,83.68,8.18,86.06,9,88Z"/><path class="cls-138" d="M5.15,104c-.31-1.65-.63-3.31-1-5,1.64-1.39.4-3.47,1.76-6.2C6,97.28,8.3,100.69,5.15,104Z"/><path class="cls-139" d="M60,12.19l1,2.68c-.15,1.82-.61,3.21-2.89,2.15-1.23-.19-3.41.16-3.24-1.31C55.21,13.12,57.62,12.39,60,12.19Z"/><path class="cls-140" d="M58.16,17c1.66.22,1.92-1.44,2.89-2.15l1.05.1c1.43.52,2.1-1,3.23-1.22l.85,1.07c.15,2.92,2.45,1.94,4,2.22-.06,1.88-1.57,1.85-2.82,2.17-3-.19-6.17,1.94-9-.65L58,17.88C58.06,17.59,58.11,17.31,58.16,17Z"/><path class="cls-140" d="M55.15,20l-1,0c.79-1.66,2.26-2.06,3.92-2.11l.14.18C58.08,20.13,56.84,20.42,55.15,20Z"/><path class="cls-141" d="M65.33,13.75c-.33,1.18-.4,2.62-2,2.83-1.08.14-1.06-.89-1.25-1.61a6.48,6.48,0,0,1,3.05-3Z"/><path class="cls-142" d="M106.26,15.89c-1.32-1.71-3.85-.13-5.15-1.89l.06-5.73-.07-.47c1.09-.23,1.65.56,2.29,1.17,2.08,1.59,4.67,1.58,7,2.25,1.56.61,3.46.32,4.67,1.81,1.32,2.77,2.63,1.47,3.94,0,1.16,0,2.33,0,3.12,1.06,0,2.54-.41,4.75-3.6,5a68.32,68.32,0,0,1-8.86-1.62C108.42,17.23,107.09,17.1,106.26,15.89Z"/><path class="cls-143" d="M119,18.08c2.79-.11,1.27-3.33,3-4.2l.61-.22c1.6.62.44,2.47,1.5,3.33l6,2c3.6,1.94,8.39,2.54,8.83,8a2.54,2.54,0,0,1-.78,1.29c-1.64.74-2.81-.24-4.07-1a60.56,60.56,0,0,0-11.93-6C120.59,20.69,118.85,20.32,119,18.08Z"/><path class="cls-144" d="M115.1,13c-1.71-.2-3.6.57-5-1a1.65,1.65,0,0,0-.74-1.52,3.31,3.31,0,0,1-.85-.82C108,8.85,107.36,8,108.15,7c2.24.47,4.52.81,6.69,1.49,1,.3,2.67.15,2.81,1.57A2.61,2.61,0,0,1,115.1,13Z"/><path class="cls-65" d="M138.12,27c.11-3.47-2.88-4.37-5-5.78-1.05-.68-2.4-.88-3-2.2l5,0c.95,3.23,4,4.61,6,7h0a3.44,3.44,0,0,0,2,2,1.9,1.9,0,0,1-2,2l-.55-.3C139.55,29,139,27.81,138.12,27Z"/><path class="cls-145" d="M102.13,10c-.34-.73-.68-1.46-1-2.19.22-2,1.72-1.8,3.09-1.84l1.93,1a9.28,9.28,0,0,1,3,3h0c.3,1.65-.87,1.66-1.74,1.24C105.69,10.43,103.88,10.4,102.13,10Z"/><path class="cls-146" d="M122,13.88c-1.1.08-2.22.25-3-.86q2-2.2,4-.09a1.41,1.41,0,0,1-1,1Z"/><path class="cls-108" d="M109.12,10a6.14,6.14,0,0,1-3-3l2,0C108.47,8,108.79,9,109.12,10Z"/><path class="cls-142" d="M122.06,13.89l1-1c1.53,1,.94,2.65,1.08,4.06Z"/><path class="cls-147" d="M119,18.08c1.76,2.68,5.09,2,7.46,3.48,3.73,2.39,7.73,4.35,11.62,6.5,1.38.08,2.14,1.1,3,2h0c3.61,3.7,7.9,6.71,11.06,10.88l4.18,6.14c-1.44,1.78-2.24.42-3-.66A25.71,25.71,0,0,0,147.18,40c-11.24-10.27-24.35-17.19-38.87-21.56-1.25-2.13,1.06-1.57,1.71-2.27Z"/><path class="cls-148" d="M145,28c.71-1.31,2-1,3.16-1.2C148.08,29.74,146.66,29.19,145,28Z"/><path class="cls-149" d="M141.12,26c-.78-2.1-1.56-4.2-2.36-6.37,4.75,2.09,5.12,3.12,2.36,6.37Z"/><path class="cls-150" d="M53.12,67l-5-2.13c-4.42-4.52-4.78-5.89-1.21-9.6C56.77,45.07,68.39,37.81,82.53,35.1c2.1-.4,4.29-.75,6.08,1,1.06,1.77.81,3.73.86,5.64a8.34,8.34,0,0,1-.73,3.94c-1.48,1.85-3.76,1.93-5.8,2.37a45,45,0,0,0-25.2,14.56C56.34,64.2,55.08,66,53.12,67Z"/><path class="cls-151" d="M53.12,67A40.64,40.64,0,0,1,75.17,49.07c4.17-1.44,8.37-3.16,13-3.07,2.17,2.78,1.34,5.89,1,9-1.12,2.6-3.77,2.48-5.9,3.13C75,60.57,67.92,64.59,63.34,72.17a3,3,0,0,1-2.05.57,4.71,4.71,0,0,1-1.94-.82A65.17,65.17,0,0,0,53.17,68C53.15,67.67,53.13,67.34,53.12,67Z"/><path class="cls-152" d="M34.13,56l-1.05-1c-.62-2.52,1.16-4.06,2.51-5.63,9.67-11.29,21-20.39,35.46-24.65,5.49-1.61,11.16-3.18,17.07-2.32a2.77,2.77,0,0,1,1.36,3.42,2.68,2.68,0,0,1-1.22,1c-8.5,1.49-17.11,2.47-24.86,6.82C54.19,38.81,45.46,44.48,39.14,53.2,37.94,54.86,37,57.2,34.13,56Z"/><path class="cls-153" d="M88.13,26h1c2.49,5.08,1.62,10.29.64,15.52a1.14,1.14,0,0,1-1.59.48c0-2,0-4,0-6a5.9,5.9,0,0,1-1.38-2.35c-.89-1.86-2.47-1.3-3.89-1.06C67.42,35.2,54.72,42.69,44.3,54.24a10.75,10.75,0,0,0-2.76,5.19l-.41.57a5.46,5.46,0,0,1-4-2c1.2-5.71,5.55-9.2,9.48-12.8C57.76,35,70.78,28.63,85.92,27A3.57,3.57,0,0,0,88.13,26Z"/><path class="cls-154" d="M88.18,23C64.53,24.59,46.61,36,33.09,55.05c-4.5,0-4.74-2.66-3.85-6,.71-.24,1.21.18,1.75.5,1,.37,1.59-.24,2.1-.89,11.54-14.37,26.44-23.4,44.23-27.82,4-1,8.06-2,12.05.15C89.64,22,89.81,23,88.18,23Z"/><path class="cls-136" d="M88.12,33v3c-12.66.51-23.36,5.8-33,13.56-1.92,1.54-3.68,3.29-5.52,4.91-2.66,2.33-6.86,5-1.57,9,.26.2.1,1,.13,1.44-2.64-1.19-5.2-2.49-7-4.89v0c5.27-10,13.93-16.35,23.55-21.44a54.76,54.76,0,0,1,18.23-6.15C84.76,32.12,86.52,31.63,88.12,33Z"/><path class="cls-155" d="M41.1,68l-3-2c-1.33-1.56-3.32-2-5-3l-.65.05A9.39,9.39,0,0,1,28.7,62a7.65,7.65,0,0,1-2.57-2h0c-3-2.6-6.94-3.71-10.22-5.88-1.09-2.1-1.24-4.09.82-5.72s4.1-2.08,6.23-.17a1.51,1.51,0,0,1-.83,1.72c-2.38,1,0,2,0,3.06,7.31,4.15,14.57,8.4,22,12.4a62.38,62.38,0,0,1,7,4.62c2.06,1.31,5.46.43,6.26,3.82a3.19,3.19,0,0,1-2.31,1.6c-2,0-3.65-1.06-5.41-1.8C47.05,71.38,42.45,72.16,41.1,68Z"/><path class="cls-156" d="M88.13,26a2,2,0,0,1-1.86,2c-20.86,2.65-37,13-49.13,30l-3-1.94c2,0,2.59-1.72,3.62-3C50.68,36.83,67.18,27.25,88.13,26Z"/><path class="cls-157" d="M30.15,50l-.91-1c0-.34-.07-.68-.1-1C39.24,33.42,52.5,23.26,69.87,18.85c2.15-.78,5-2.2,6,.59.61,1.86-2.66,2.61-4.43,3.08-15.65,4.23-27.92,13.38-38,25.75C32.54,49.28,31.79,50.49,30.15,50Z"/><path class="cls-158" d="M70.11,20c-11.89,2.47-21.52,9.06-30.34,17-3.79,3.4-7.1,7.34-10.63,11-.08-.68-.15-1.35-.23-2q4.57-5.51,9.14-11l14.05-10c3.91-4.84,9.64-5.36,15.15-6.41C68.29,18.84,70.1,17.67,70.11,20Z"/><path class="cls-159" d="M57.22,73.93,51.11,70c1.08-.07,2.28.19,3-1,2.22,0,3.85,1.78,6,2l1,1c.85.7,2.28,1.07,2,2.51s-1.63,1.34-2.78,1.37A4,4,0,0,1,57.22,73.93Z"/><path class="cls-160" d="M22.14,53a10.51,10.51,0,0,1-1.3-.65c-1-.67-2.95-1.07-2.12-2.63s2.28-.18,3.43.22c.33,1.23,2.47,1.06,2.13,2.64C24.22,52.85,22.89,52.86,22.14,53Z"/><path class="cls-161" d="M60.1,71c-2.36.43-4.2-.7-6-2l-.93-1C56.16,67.42,57.92,69.69,60.1,71Z"/><path class="cls-162" d="M66.94,18.9c-5.35,1-10,3.77-14.84,6-.48-2.57,1.61-3.54,3-4.91l3-2c3,1.52,6-.25,9-.07.34.27.43.5.26.68A.6.6,0,0,1,66.94,18.9Z"/><path class="cls-163" d="M17.08,67.82c-.65,2.05-1.31,4.1-2,6.15-2.09-.15-3.34,4.41-6,1.06C12.93,71.84,13.26,67,15,62.78A28.17,28.17,0,0,0,16.1,59c1-1.28,2-1.33,3-.05-.05.22-.11.43-.16.65C17.07,62.06,18.22,65.21,17.08,67.82Z"/><path class="cls-164" d="M15.93,54.1c3.77,1.33,8.33,1.27,10.22,5.88L19.32,62.1a2.41,2.41,0,0,1-.09-3L19.14,59c1.2-.21,2.79-.59.91-1.86C18.63,56.17,16.43,56.35,15.93,54.1Z"/><path class="cls-165" d="M134.87,160.82l-1.11.94a1.71,1.71,0,0,1-.72.93c-.71.41-1.45.74-2.18,1.11a29.43,29.43,0,0,0-3.26,1.78c-.76.4-1.5.89-2.41.44l-2.07.95-4,1c-.67-.61-2-.16-2.28-1.41.4-1.69,1.86-2.31,3.21-2.83A68.11,68.11,0,0,0,140.15,152a5.07,5.07,0,0,1,3.63-1.4,1.91,1.91,0,0,1,1.45,1.52,5.07,5.07,0,0,0-.13.87c-.14,1.19-1.15,1.51-2,2l-3.89,3-.05,0Z"/><path class="cls-166" d="M145.23,152.1,144,150.81c2.62-5.58,6.86-9.7,11.93-13.05a.84.84,0,0,1,.38.77c0,.29-.1.44-.17.44.68,2.6-2.27,3.15-2.84,5C151.56,147.65,148,149.44,145.23,152.1Z"/><path class="cls-167" d="M143.11,155c.66-.68,1.33-1.35,2-2a14.69,14.69,0,0,0,2.4-.26c.86-.23,1.65-.32,2.06.57.6,1.3-.54,1.68-1.36,2.08-1.3.62-2.66,1.14-4,1.7A2.31,2.31,0,0,0,143.11,155Z"/><path class="cls-76" d="M155.11,148a2.81,2.81,0,0,1-3,3A6.33,6.33,0,0,1,155.11,148Z"/><path class="cls-168" d="M131,162.89c.5-.84,1.32-.8,2.12-.8,1,1.09,1.67,2.27,1,3.8-.33,0-.66.05-1,.05-2.45-.07-3.94,2.06-6.15,2.67-3.41.93-2-1.18-1.85-2.59l1.91-1C128.33,164.14,130.18,164.44,131,162.89Z"/><path class="cls-104" d="M118.15,172c-.05.36-.1.71-.14,1.06-1.22.4-2.32-.75-3.53-.24a1.38,1.38,0,0,0-.92,1.08,1.27,1.27,0,0,1-.3.94l-.17.17a6.82,6.82,0,0,0-5.1,1.08c-2.42,2-4.63,1.3-6.9-.14a6.28,6.28,0,0,0-.94-4c1.6-1.69,3.91-1,5.78-1.81a17.64,17.64,0,0,1,3.76-.44c1.45,0,3-.47,4.37.25C115.78,169.91,117.38,170.13,118.15,172Z"/><path class="cls-169" d="M114.06,169.94a5.85,5.85,0,0,1-4,.81c-1.58-.92-3.74.68-5.1-1.18A13.43,13.43,0,0,1,117,166.82c.83.18,1.72.25,2.17,1.17C117.65,169.14,115.42,168.41,114.06,169.94Z"/><path class="cls-170" d="M139.22,158c2.07.33,2.23,1.59,1.47,3.18a1.11,1.11,0,0,1-1.67.39c-1.45-1.18.42-2.33.15-3.54Z"/><path class="cls-171" d="M139.11,166c-2-.11-2.05-1.53-2-3C140.27,162.36,140.16,163.87,139.11,166Z"/><path class="cls-172" d="M156.15,139a3,3,0,0,1-.29-.69c-.91-1.45-.74-2.68.77-3.62a1.3,1.3,0,0,1,1.43.65c-.21,1.53,2.83,3.55-.7,4.58Z"/><path class="cls-173" d="M134.18,165.89a5.27,5.27,0,0,1-1-3.8.75.75,0,0,1,.61-.33C136.59,162.87,137.66,164.15,134.18,165.89Z"/><path class="cls-174" d="M156.09,60l4-1.57c.79.36,1.6.69,1.94,1.6l1.11,2c4.87,6.73,6.06,14.65,7.26,22.55a28.69,28.69,0,0,1,.09,3.94c-.12,5.21.27,10.44-.25,15.64-1.28,5-2.87,9.82-4,14.82-.24,2.81-2,5-3.17,7.38a2.73,2.73,0,0,1-2.38.17c-2.4-1.93-.75-4-.06-5.88,6-16.18,5-32.33-.11-48.46a60.75,60.75,0,0,0-4.74-10.77A1.54,1.54,0,0,1,156.09,60Z"/><path class="cls-175" d="M169.33,88c-.3-9.09-3.34-17.53-6.18-26,4.61-.38,3,4.23,4.92,6.06l.64.49c1.91,3.32,2.49,7,2.73,10.72-.16,2.68.46,5.44-.73,8A1.51,1.51,0,0,1,169.33,88Z"/><path class="cls-176" d="M162,60c-1-.06-1.79-.47-1.94-1.6a5.67,5.67,0,0,1,5-1.54c0,.67,0,1.34,0,2Z"/><path class="cls-87" d="M168.07,68c.16-1.19-.25-2.53,1-3.91,1.11,1.78,2.07,3.33,3,4.87h0c-1.75,1.31-3,.65-4-1Z"/><path class="cls-38" d="M168.11,68a6.83,6.83,0,0,0,4,1c.33,1.67.67,3.33,1,5l0,5c.89,1.73,2.15,3.27,2.77,5.16.56,4.32-.84,8.78.87,13a10.73,10.73,0,0,1,.36,1.46c.28,2.57.36,5.09-1.52,7.19-2.43.92-2.41-1-2.34-2.32a7.45,7.45,0,0,0-1.72-5.32,5.57,5.57,0,0,1-.53-1.48c-.7-5.9.35-11.89-.89-17.77C170.37,75.13,168.23,71.75,168.11,68Z"/><path class="cls-177" d="M175.09,84a5.82,5.82,0,0,1-2-5c1.94,2,5.23,1.64,7,4,.27,4.33-1.62,8.66,0,13-1,1.35-1.9,2.84-4,2h0C174.12,93.44,176.24,88.6,175.09,84Z"/><path class="cls-178" d="M177.77,78.2c-.23.93-.68,1.57-1.36,1.33-.47-.17-.82-.9-1-1.45,0-.16.7-.88.92-.81A5.51,5.51,0,0,1,177.77,78.2Z"/><path class="cls-179" d="M97.13,178c-4.13,5.15-5.37,5.28-8.86.93.77-.92-.1-2.31.93-3.15,1.3.26,3.12,1.65,2.78-1.43a4.54,4.54,0,0,1,.77-3.19c1.51-1,2,.37,2.76,1.17a7.44,7.44,0,0,1,.64,1.22c0,1.55,1.4,2.81,1,4.46Z"/><path class="cls-180" d="M89.14,175.93c-.07,1.06.19,2.2-.87,3-.08-1.35-.15-2.7-.23-4a6,6,0,0,1,.25-.75C89.82,174.14,89.74,174.91,89.14,175.93Z"/><path class="cls-181" d="M99.41,171.63c-.43,1.28,1.1,3.85-2.15,3.28a2.1,2.1,0,0,1-1.59-1.44c-.47-2.66-.64-5,3.28-3.26A1.72,1.72,0,0,1,99.41,171.63Z"/><path class="cls-182" d="M99.41,171.63a2.88,2.88,0,0,0-.17-.73c.23-2.62,2.11-1.75,3.6-1.73a24.6,24.6,0,0,1,3.4,1.9c-1.86,1.46-4,.86-6.09.87A3.22,3.22,0,0,0,99.41,171.63Z"/><path class="cls-90" d="M96.18,173.71l1.08,1.2c0,1,1.48,2.11-.13,3.07l-1.89-4.18A.61.61,0,0,1,96.18,173.71Z"/><path class="cls-183" d="M108.14,17.83a70.29,70.29,0,0,1,39,22.13c-5.78-2.63-9.88-8-16.07-10-5.33-.07-9.17-4.39-14.31-5a10.31,10.31,0,0,1-1.32-.46,26.88,26.88,0,0,0-9.29-2.34,11.52,11.52,0,0,1-2-.34,9.41,9.41,0,0,0-5.7-.25,2.06,2.06,0,0,0-.61,2.06,7.31,7.31,0,0,1-.12,2,14.82,14.82,0,0,0-.25,3.7c.07,4-.11,8,.16,12.05-.24,7.88-.07,15.75-.14,23.62,0,1.79.16,3.62-.67,5.32a1.12,1.12,0,0,1-1.55.58c0-16.39-.11-32.77,0-49.15,0-4.22,2.2-5.41,7.93-4.93C105,16.39,106.8,16,108.14,17.83Z"/><path class="cls-184" d="M151.12,55c-2.44,1.12-4,3.77-7,3.95,1.4-2.91.39-5.12-1.93-7-3.56-3-6.48-6.64-10.39-9.19-1.73-1.67-3.49-3.29-6-3.64a18.92,18.92,0,0,1-3.88-1.26,3.88,3.88,0,0,1-1.5-1.37c-.66-1.48-.91-2.91,1.32-2.94,1.27,0,2.11-.21,2.42-1.52,10.84,4.06,19.24,11.33,26.42,20.16C151.08,52.84,151,54.06,151.12,55Z"/><path class="cls-185" d="M124.12,32l1.23,2.6a13.44,13.44,0,0,1-2.36.21c-1-.08-2.93-1.89-1.88,1.19-3,1.59-5.27-1-7.93-1.43-1.94-.31-3.84-.93-5.78-1.29-2.35-.48-4.67-1.08-7.06-1.42-1.31-.19-1.74.37-1.86,1.49-.07.92-.07,1.85-.08,2.77A11.49,11.49,0,0,1,98,39.82c-.34.74-.8,1.31-1.72,1.24l0-13.11c3.25-2.18,6.62-1,10-.49,3,.45,5.87,2.54,9.1,1a2.48,2.48,0,0,1,2.73.56h0c1.57.9,3.4,1.16,5,2Z"/><path class="cls-186" d="M118.12,29h-3c-4.17.69-7.82-1.49-11.76-2.11-1.65-.57-3.43-.53-5.1-1A2.5,2.5,0,0,1,97.09,25l0-1.94c4.42-2.52,8.84.15,13.26.08,1.91,0,3.78.95,5.77.89,5.69.26,10.12,3.67,15,6-2.27,3.49-4.48.51-6.37-.35C122.48,28.62,120.58,26.86,118.12,29Z"/><path class="cls-186" d="M123.11,31a5.85,5.85,0,0,1-5-2A5.66,5.66,0,0,1,123.11,31Z"/><path class="cls-187" d="M96.24,41.06,97.12,40c6.81-2,12.64,1.35,18.49,3.75,8,3.3,12.61,11,19,16.35,1.64,1.38,1.16,3-.46,4.19-1.05.79-2.32,1.32-3.05,2.51l-3,1.3c.16-4.52-2-7.44-5.63-10.17-5.86-4.44-11.52-9-18.93-10.55-4.85-1-4.86-1.08-5.14,4,0,1.28,0,2.56,0,3.84s0,2.75,0,4.12c-.14,3.74.67,7.55-.81,11.19a1,1,0,0,1-1.47.36Z"/><path class="cls-188" d="M97.16,51c0-6.47,0-6.59,6.13-5,4.36,1.15,8.34,2.51,12.26,5.57a112.92,112.92,0,0,0,10,7.27c3.21,2,5.63,5,2.57,9.2l-1.28,1.73A2.73,2.73,0,0,1,123,71.24q-6.5-15.73-23.21-19A4.79,4.79,0,0,1,97.16,51Z"/><path class="cls-189" d="M131.1,66.79c5.55-4.76,1.26-7.84-2.21-10.34-4-2.89-6.18-7.41-10.9-10-6.69-3.59-13.62-5.3-20.87-6.51,0-1.34,0-2.67,0-4,3-2.17,6.36-1.47,9.54-.63a54.39,54.39,0,0,1,12.07,4.46,6.28,6.28,0,0,1,2.47,1.61c4.34,6.2,10.92,10,16,15.45,1.44,1.54,3.35,3.09,1,5.39C136.25,64.41,133.67,65.59,131.1,66.79Z"/><path class="cls-190" d="M156.09,60a5.52,5.52,0,0,0-.11.91c-2.19,2.74-5.63,3.64-8.33,5.63a17.07,17.07,0,0,0-4.7,3.3,5.22,5.22,0,0,1-1,.79,34.73,34.73,0,0,0-7.44,3.84c-1.3.76-2.67,1.37-4,2.12a22.6,22.6,0,0,0-2.71,1.73,10.88,10.88,0,0,1-1.12.69c-2.2,1.07-4.45,2.06-6.09,4-1.51,1.27-3.5,1.34-5.21,2.1-2.17.47-4.35,3.09-6.52,0,.84-5.06,5.81-5.31,9-7.7,4.3-2.39,8.36-5.27,13.25-6.42,7.27-3.19,13.28-8.73,21-11.12C153.34,61.14,154.75,59.48,156.09,60Z"/><path class="cls-191" d="M132.12,42c5.1,2.38,8.16,7.13,12.31,10.62,2.67,2.24,2,4.36-.32,6.37l-1.07.83c-3.76-2.5-6.2-6.36-9.58-9.26a82.41,82.41,0,0,0-13.37-9.27c-.71-1-2.92-.77-2.28-2.69.72-2.16,3.06-.51,4.3-1.58l4,1A68.78,68.78,0,0,1,132.12,42Z"/><path class="cls-192" d="M120.12,41c9.94,3.48,17.09,10.35,22.92,18.83l-4.84,2.44c1.22-3.5-1.94-4.71-3.69-6.22a127.9,127.9,0,0,1-15.39-15A.58.58,0,0,1,120.12,41Z"/><path class="cls-193" d="M131.06,71a85.94,85.94,0,0,1-12.82,7.15l-.38-.52c.06-1.57,1.07-2.78,1.55-4.19.84-1.43,1.9-2.51,3.75-2.29l3.7-1.3A6.74,6.74,0,0,0,131.06,71Z"/><path class="cls-194" d="M176.12,98l4-2c0,2,0,4,0,6v1c-.78,1.39-1,3.29-3,3.57a1.85,1.85,0,0,1-2-.59A21.18,21.18,0,0,0,176.12,98Z"/><path class="cls-195" d="M166.91,131.12c-2.39.51-.74,1.39-.16,2.06,2.28,2.57.45,2.81-1.63,2.93a13.05,13.05,0,0,1-10.42-5.93c-.5-1.78.4-2.8,1.91-3.48,1.52-.43,2.66.51,3.92,1.06a3.16,3.16,0,0,1,1.51,1.29C163.12,131,166,128.74,166.91,131.12Z"/><path class="cls-196" d="M162,129.05l-1.69-.25c-.45-1.32.21-2,1.4-2.28,1.81.07,3.66-.44,5.41.42a1.53,1.53,0,0,1,.85.32C166.24,128.6,163.75,127.53,162,129.05Z"/><path class="cls-197" d="M114.12,172c1.76-1.31,2.71.31,3.89,1.08,0,.62,0,1.24,0,1.86l-4.8-.08c-.05-.29-.08-.59-.11-.88C112.48,172.8,113.6,172.53,114.12,172Z"/><path class="cls-198" d="M165.19,119c.51-4.94,2.17-9.57,3.78-14.22,1.64-1.89-.23-4.71,1.71-6.53A1.44,1.44,0,0,1,172,98l.21,0c1.45,2.25.16,4.61.25,6.91a74,74,0,0,1-2.94,12.18,3.43,3.43,0,0,1-1.48,1.81c-.62,1.36-1.24,2.72-1.87,4.08C164.64,122,166.25,120.18,165.19,119Z"/><path class="cls-199" d="M168.29,117l2.87-12c1.57-.52,2.05.52,2.43,1.7-.27,1.79.57,3.49.5,5.27l-3,7A6.62,6.62,0,0,1,168.29,117Z"/><path class="cls-200" d="M174.09,112c-1.05-1.54-3.14-2.88-1-5.06.9-.61,1.56,0,2.26.43a5.66,5.66,0,0,1,1.72,2.56C178,113.37,175.17,111.44,174.09,112Z"/><path class="cls-201" d="M165.19,119c1.43,1.06.71,2.63.95,4l-2.1,2.87c-.28.44-.58.43-.9,0C162.62,123.26,164.82,121.42,165.19,119Z"/><path class="cls-202" d="M168.29,117c1.51-.17,2.75,0,2.83,1.95-1.1,2.8-2.12,2.23-3.11-.07C168.11,118.29,168.2,117.67,168.29,117Z"/><path class="cls-102" d="M163.14,125.92c.3,0,.6,0,.9,0,1.06.28,2.35-.08,3.12,1.07l-6,0c-.24-.22-.31-.43-.22-.64s.17-.3.25-.3Z"/><path class="cls-203" d="M177.06,109.93a3.18,3.18,0,0,1-2-1.94c-.36-1.46.64-1.41,1.58-1.43l.59.37A2.48,2.48,0,0,1,177.06,109.93Z"/><path class="cls-98" d="M177.11,106l3-3c.08,2.08-.3,3.83-2.89,4l-.06,0c-.36-.19-.48-.38-.38-.59S177,106,177.11,106Z"/><path class="cls-204" d="M95.1,14a11.65,11.65,0,0,1-1-7.95l2,1.13c1.44,2.21.16,4-.83,5.91C95.18,13.37,95.15,13.68,95.1,14Z"/><path class="cls-111" d="M95.2,13.07c.09-2,1.38-3.83.83-5.91C98.07,9.45,97.4,11.36,95.2,13.07Z"/><path class="cls-205" d="M155.15,129.81c3.14,2.38,6,5.21,10,6.29.62.83,2.16,1.35.93,2.79-3,1.16-3.62-3.16-6.29-2.77l-1.7-.81-1-.37a42.72,42.72,0,0,1-6.12-2,6.74,6.74,0,0,1-1.19-.55,29.49,29.49,0,0,0-6-3.9,47.37,47.37,0,0,0-6.81-3.9,21.13,21.13,0,0,1-3.61-2.93c-.89-1.28-2.52-2-2.79-3.76a2.11,2.11,0,0,1,.56-1.26,2.94,2.94,0,0,1,1.4-.29c6.5,2.44,12.29,6.3,18.53,9.26A10.31,10.31,0,0,1,155.15,129.81Z"/><path class="cls-206" d="M93.21,75.94l1.88-1c1.77-.74,2.81.86,4.22,1.32.8.4,1.61.77,2.45,1.11,2.79,1.3,5.66,2.53,5.7,6.3a2.2,2.2,0,0,1-1.17.71c-3.88-.35-6.11-4.25-10.53-5,1,3.4,4.4,3.4,5.71,5.52a4.83,4.83,0,0,1,.42,1.91c.07,1.43.38,2.74,2.2,2.59A2.26,2.26,0,0,0,106.2,87c.1-1,0-2,.67-2.82,1.85-1.24,1.52,1.09,2.39,1.46,1.08,1,1.94,2.08,1.62,3.69a5,5,0,0,1-.5,1.3c-1.6,1.92-.69,4-.55,6.12.1,1.7,1,3.69-1.56,4.5-1.18-.4-2.4-1.31-3.37.33-.65,1.15-.68,2.58-1.62,3.6a3.49,3.49,0,0,1-3.45-.17,4.15,4.15,0,0,1-2-2.06,1.7,1.7,0,0,1,.41-1.31c3.36-2.72,4.14-6.42,1.89-9-5.53-6.27-5.53-6.27-14.93-2.7a4.64,4.64,0,0,1-1.3-2.63c-.93-3.27-2.3-5.35-5.76-2.22a1.57,1.57,0,0,1-2.24-.27c2-7.09,8-9,14.12-10.86A4.09,4.09,0,0,1,93.21,75.94Z"/><path class="cls-207" d="M93.21,75.94l-3.1-1c-2.52-.49-4.16-1.38-1.86-4.09a5.73,5.73,0,0,0,.41-1.59c0-14.44,1.2-28.84,1-43.27a40.76,40.76,0,0,0-.78-7.86A8.15,8.15,0,0,1,90.08,12c.17-1.42-.46-3,1.38-4.33,1.17,1.61.66,3.43.66,5.07q.06,27.21,0,54.41C92.11,70.1,92.09,73.09,93.21,75.94Z"/><path class="cls-208" d="M107.08,84c-.68-3.3-3.53-4.47-6-6.05,0-1.65-.88-1.63-2-1-1.72.07-2.62-1.47-4-2.06.06-1.36.13-2.71.2-4.07a3,3,0,0,0,.95,0,1.24,1.24,0,0,0,.91,0c3.74-1.39,6.16,1.27,8.81,3,2.18,1.43,4,3.47,7,3.19,1.67.56,3.58-.32,5.15.84l.15.19c-2.58,2.86-7.23,3-9.08,6.82.29.25.38.48.28.71s-.21.35-.32.35l-2-2Z"/><path class="cls-209" d="M90.08,12q0,27.68,0,55.36c0,1.59.54,3.37-1,4.67-2.37-2.88-1.59-6.37-1.3-9.49.63-6.83.52-13.7,1.28-20.51q0-8,0-16c-.31-1-.61-2-.91-3a2,2,0,0,0,.94-2c-.43-.43-.84-.87-1.25-1.32-.81-.86-2.23-1.3-2-2.9.73-1.26,1-2.8,2.23-3.8l1-1C89.45,12,89.77,12,90.08,12Z"/><path class="cls-210" d="M108.14,17.83l-4.94-1c.8-1,2-.71,3-.91l3.77.24Z"/><path class="cls-211" d="M89.09,19l0,2C72.78,21,59,27.51,46.31,37.24a81.16,81.16,0,0,0-13.65,13.7C31.12,52.83,30,53,30.15,50c6-7.06,12.22-13.86,20-19,6-3.95,12.16-7.3,19.16-9a56.58,56.58,0,0,0,6.23-2.34c-2.15-1.17-3.79-.37-5.43.39-.76-1.23-2-.92-3.17-1.09a3.58,3.58,0,0,0,.18-.91c1.11-.06,2.26,0,3.11-.95a2.16,2.16,0,0,0,.91-.08,3.51,3.51,0,0,1,2.94-.61c1.17.74,2.54.59,3.82.87C81.62,17.87,85.5,17.54,89.09,19Z"/><path class="cls-158" d="M77.13,18c-1.15,0-2.37.13-3.06-1.14-.14-.81.13-1.21,1-1l4-.83c1.55-.91,3.2-.43,4.83-.34a1.75,1.75,0,0,1,.61,1.47C82.72,19.29,79.66,17.58,77.13,18Z"/><path class="cls-140" d="M75.08,15.84l-1,1-2.93.1C72.11,15.38,73.18,14.16,75.08,15.84Z"/><path class="cls-209" d="M84.11,15l-5,0c1.4-1.66,3.32-.82,5-1l.08-.07A.84.84,0,0,1,84.11,15Z"/><path class="cls-35" d="M84.11,15l.12-1.13c2.93-.73-.44-4,2-4.9.66,1.33,1.31,2.66,2,4-.28,1.55.73,3.74-2,4-1.17.44-1.56-.3-1.83-1.22A4.18,4.18,0,0,0,84.11,15Z"/><path class="cls-120" d="M83.87,173c-1.92-.24-4,.76-5.72-.9l5.92-.1C84,172.28,83.94,172.62,83.87,173Z"/><path class="cls-212" d="M88.25,171c1.7-2.7-.94-5.32-.13-8-1.29-1.45-1.43-3.22-1.39-5A8.65,8.65,0,0,1,88.16,152c0-1.67,0-3.33,0-5,0-.66,0-1.33,0-2-2.16-2.63-1.11-5.76-1.38-8.69-.11-2,0-4.08,0-6.11-.08-1.72,0-3.44,0-5.15.08-2.85-.4-5.75.71-8.51a1.58,1.58,0,0,1,1.42-.86c2.46,1,3.47,3.16,4.35,5.43.69,9.93.13,19.87.33,29.81-.43,6.89.86,13.85-.89,20.68-.31,1.2.56,2.89-.94,3.55-1.89.82-2.17-1.64-3.49-2.11Z"/><path class="cls-90" d="M88.22,173c2.75,1.78,4.09,1.68,4-2.23-.23-6.6,0-13.22,0-19.83,3.35,1.14,1.95,4.06,2.37,6.29-.59,4.56,1.34,9.38-1.41,13.72,0,1.29,0,2.59,0,3.88-.11,1.55.64,3.84-1.16,4.35-2.24.65-1.33-2.53-2.76-3.26-.28-.61-.56-1.22-.85-1.82C88.27,173.74,88.25,173.37,88.22,173Z"/><path class="cls-213" d="M88.19,130c0,2,0,4,0,6a1.29,1.29,0,0,1-1.32.4c2,6.62-2.66,4.09-5.13,3.47a72,72,0,0,1-24.17-11.16A8.21,8.21,0,0,1,54.12,121c0-.57,0-1.13.05-1.7L63,114.72c-.19,4.28,2.71,6.49,5.46,9.18,5,4.91,11.77,3,17.35,5.31A11.83,11.83,0,0,1,88.19,130Z"/><path class="cls-214" d="M54.12,121c6.38,12.63,19.17,14.54,30.79,18.39.81.27,1.75.54,2-.63.37-2.14-1.86-1.32-2.74-2.25,1.3-1,2.75-.28,4.08-.51l-.09,9c-15.58-.75-28.06-7.65-37.52-19.75C48,121.88,53,122.53,54.12,121Z"/><path class="cls-215" d="M88.16,152l0,6c-1.85,1.64-4,1.41-6.17,1A66.42,66.42,0,0,1,52.33,144.3c-1.56-1.33-3.22-2.9-3.21-5.32h0c7.85,3.69,15.57,7.71,23.61,10.93C77.55,151.83,82.56,154.89,88.16,152Z"/><path class="cls-216" d="M49.12,139c10.56,11.36,23.29,18.24,39,19,0,1.66,0,3.33,0,5-13.82,0-25.18-6.27-36-14-1.25-2.72-4.12-3.69-6.08-5.63-1.26-1.24-2.91-2.27-2.93-4.36,2.42,1,3.39,4,5.71,4.61C51.28,141.9,45.51,140.6,49.12,139Z"/><path class="cls-217" d="M88.19,130c-2,1.43-3.79.13-5.65-.32-2.1-.5-4.11-2.34-6.35,0-.69.71-2.17.14-2.7-.6-2.35-3.26-6.38-4.26-9.13-7.09-2.35-2.42-3.1-4.39-1.32-7.22l1.07-1.79a25.06,25.06,0,0,1,9.28-5.59c2.34,0,3.81,1,4,3.51-.72.9-1.75.74-2.74.78-2.63.11-5.15.87-5.52,3.78-.3,2.38,3.73,4.92,6.61,5.21A31.38,31.38,0,0,1,88.18,125Z"/><path class="cls-218" d="M73.24,108.23c-3,1.59-5.54,4.2-9.13,4.7-.75-1.15-2-.91-3-1a1.25,1.25,0,0,1,0-1.33c2.39-2.89,6-3.79,9.06-5.57,2.52-.64,4.6-5,7.67-.9C78.27,107.72,74.82,106.93,73.24,108.23Z"/><path class="cls-219" d="M51,116.92c-.95-1.53-2.5-.85-3.81-1,.2-2.95,3-3.23,4.72-4.63,1.63-.76,3-2.28,5.09-1.72A4.55,4.55,0,0,1,59.19,112Z"/><path class="cls-220" d="M59.19,112a1.87,1.87,0,0,1-2-2.05,2,2,0,0,1,2.58-1.44c.83.61.48,1.9,1.41,2.46a7.16,7.16,0,0,1-.09.92Z"/><path class="cls-137" d="M52.15,112l-5,3.9c-2.32.44-3.39,3.24-6,3.14.12-5.24-2.27-10-3.28-15-1.25-6.28-.31-12.17.81-18.17.21-1.15.71-2.24-.52-3.58C35.8,85.92,37,90.57,34.58,94c-.68-9.39.47-18.3,6.52-26,2.54,2.55,6.65,2.21,9.09,4.93-5.1,10.41-7.64,20.9-1.18,31.74C50.38,107,50.61,109.76,52.15,112Z"/><path class="cls-221" d="M33.12,63C31.18,69,29.17,74.86,27.34,80.83c-.84,2.74-1.33,5.6-2.93,8.24q.86-6.54,1.72-13.08c-1.39-5.22,1.71-8.95,4.36-12.77A1.77,1.77,0,0,1,33.12,63Z"/><path class="cls-154" d="M26.13,60l3,1c.56,5.18-2.51,9-5,13l-2,4a2.1,2.1,0,0,1,0,3c-1.81-1.76-.67-4-1-6Q23.64,67.49,26.13,60Z"/><path class="cls-49" d="M24.13,74c.55-4.76,3.95-8.42,5-13l4,2c-3.94.68-3.56,4.56-5,7-1.05,1.75-1.34,4-2,6C23.68,77.11,24.21,75.24,24.13,74Z"/><path class="cls-222" d="M38.1,66c-2.19,4.69-4.43,9.37-5.77,14.74-1.62-1.47-1-2.7-1.2-3.79,1-2.77,2.1-5.5,2.92-8.32C34.68,66.45,36.07,65.85,38.1,66Z"/><path class="cls-49" d="M22.13,81c0-1,0-2,0-3,3.89,2.38,1.94,5,0,7.59Z"/><path class="cls-223" d="M19.23,59.09a3.6,3.6,0,0,1,.08,3c-1,1.81-.67,4.13-2.23,5.72C17.85,64.92,14.12,60.92,19.23,59.09Z"/><path class="cls-53" d="M9,88a10.38,10.38,0,0,1-1.88-6C10.84,83,8.45,86,9,88Z"/><path class="cls-108" d="M102.13,10c2.33-1.7,4.65,1.92,7,0,.9.21,2.13-1,2.6,0s-.84,1.55-1.67,2C107.28,11.88,104.51,11.68,102.13,10Z"/><path class="cls-62" d="M141.08,30a3.36,3.36,0,0,1-3-2l0-1.05A2.76,2.76,0,0,1,141.08,30Z"/><path class="cls-224" d="M89.11,42q0,15,0,30v0a71,71,0,0,0-11.25,7.06c-1.65,1.27-3.51,3-5.23,0A2.51,2.51,0,0,1,73,77.56,28.19,28.19,0,0,1,82.72,71c3.28-1.46,4.23-3.6,4.13-6.93-.07-2.71-.74-5.63,1.27-8.06V46c0-1.34,0-2.67,0-4Z"/><path class="cls-225" d="M88.12,56c0,15.27,0,15.27-15,22-4.71.29-7.49-2.62-10-6-.36-.92-.72-1.71.14-2.68C69.92,61.8,78,57.06,88.12,56Z"/><path class="cls-226" d="M63.13,72l10,6c0,.34,0,.68,0,1a7.44,7.44,0,0,0-2.66,2.48c-3.79-1.63-8.09-2.46-10.33-6.53,4.14.27,1.51-1.7,1-3Z"/><path class="cls-227" d="M88.12,33C69.91,34.36,55.65,43,44.25,56.87c-1,1.15-1.69,2.45-3.11,3.09-1.55-2-.15-3.35.92-4.79,6-8.16,14.2-13.72,23.07-18.23a53.94,53.94,0,0,1,17.7-5.66C84.72,31,87.25,29.71,88.12,33Z"/><path class="cls-228" d="M52.15,112c-1.13-.1-2.71.17-2.81-1.37-.34-5-4-8.59-5.18-13-.87-3.17-.42-6.86.08-10.22.64-4.24,2-8.36,2.9-12.56.4-1.83,1.73-1.74,3-1.84l5,2c2.28-.2,3.21,1,3.34,3.13-2,5.31-4.94,10.34-4.12,16.43.67,5,2.62,9.11,6.74,12.1.57,1.18,0,1.85-1,2.31L57.16,110Z"/><path class="cls-229" d="M58.24,77.91l-3.09-3a2.29,2.29,0,0,1,2.06-1l2.93,1,11,6c2.32.23,4.47.68,4.44,3.72a2.44,2.44,0,0,1-2.14,1.73A10.66,10.66,0,0,1,70.56,86C66.49,83.25,61.64,81.67,58.24,77.91Z"/><path class="cls-230" d="M151.12,132c2.43.08,4,1.9,6,3-1.39.75-.88,2.2-1.22,3.34L144,150.81c-8.19,6.72-17.4,11.72-27,16l-12.1,3c-.61.74-1.22.65-1.85,0-1.37,0-2.8-.32-3.8,1-3.6-1.86-3,.83-3.06,2.81l-.46.13-.48,0a2.35,2.35,0,0,0-.12-.83,11.55,11.55,0,0,1-1-5.34c0-15.63-.77-31.26-.39-46.89a5.8,5.8,0,0,1,1.06-3.65,1.22,1.22,0,0,1,1.69.14c2,4.49.58,9.23,1,13.83,0,6.12,0,12.25,0,18.36,0,4.24-.29,8.5.44,12.71a23.83,23.83,0,0,1,.3,3.76c.42,2.35,2.12,1.61,3.5,1.37,19.46-3.41,36.24-11.54,48.46-27.63,1.05-1.38,2.84-2.52,1.85-4.71C151.56,134,150.45,133.27,151.12,132Z"/><path class="cls-72" d="M131,162.89c-.15,2.85-2.4,1.81-3.93,2.12A6.27,6.27,0,0,1,131,162.89Z"/><path class="cls-231" d="M103,169.89l1.85,0c1.69.4,3.61-.5,5.13.89l-3.78.32C105.11,170.86,103.79,171.16,103,169.89Z"/><path class="cls-232" d="M108,174.3c-.81.31-1.21.61-1.59.58-.83-.08-1.59-.45-1.45-1.45,0-.18.88-.43,1.25-.32A8.36,8.36,0,0,1,108,174.3Z"/><path class="cls-233" d="M114.12,172l-1,2c-.7-.17-1.84-.09-1.47-1.21S113.24,172.07,114.12,172Z"/><path class="cls-234" d="M161.18,126.05a7.32,7.32,0,0,0,0,.94c-.27.6-.54,1.2-.8,1.81l-3.28-1.72a2.28,2.28,0,0,1-.57-1.2c.45-2.45,2-4.9-.07-7.34C159.17,110,160,101.21,160,92.31a17.11,17.11,0,0,0-.61-9.56,4.71,4.71,0,0,1,.2-2.14c2.3-2.92-.81-6.7,1.5-9.62,5.18,11.5,5.74,23.61,4.49,35.88a57.65,57.65,0,0,1-4.94,17A1.55,1.55,0,0,0,161.18,126.05Z"/><path class="cls-235" d="M161.11,71c-.91,3.27,3.52,7.08-1,10-2.56-.65-3-2.88-3.47-4.93a34.3,34.3,0,0,0-3-8.34c-.61-1.12-1.28-1.92-2.7-1.41s-2.79.94-4-.4a26.48,26.48,0,0,1,9-5C159.42,63.37,160,67.31,161.11,71Z"/><path class="cls-236" d="M171.12,98a24.33,24.33,0,0,0-1.12,7.77c0,.06-.31.18-.32.17-.25-.36-.48-.74-.71-1.11q.18-8.43.35-16.84h.78l.54.51c.93,2.88.25,5.85.47,8.76C171.11,97.5,171.11,97.74,171.12,98Z"/><path class="cls-236" d="M172,98h-.85v0c-1.36-3.22.41-6.75-1-10l0,0,0-9A55,55,0,0,1,172,98Z"/><path class="cls-237" d="M177.11,106c0,.31,0,.61,0,.92a2.21,2.21,0,0,0-2.11,1.09l-2-1a3.1,3.1,0,0,0-1.92-1.92c-.51-2.46,1-4.63,1-7,2,1.1,3.3,2.41,2.12,5a2.26,2.26,0,0,0,.83,3Z"/><path class="cls-194" d="M175.09,84c1.93,4.54.06,9.36,1,14C173.16,93.51,175.07,88.68,175.09,84Z"/><path class="cls-238" d="M95.05,120l.07,53-2-2,0-14c1.42-4.6-.34-9.18-.09-13.81.38-7.13-.08-14.29.2-21.43C93.49,120.76,93.82,119.91,95.05,120Z"/><path class="cls-239" d="M103.12,26a63.49,63.49,0,0,1,12,3c.89,2.36-.37,2-1.89,1.59-5.53-1.64-11.1-3.06-17-2.63-.12-1.11-.28-2.23.82-3l1,.06C99.61,26.21,101.62,24.82,103.12,26Z"/><path class="cls-240" d="M116.14,24c-4.63,2-9.14-.46-13.72-.5-1.71,0-3.52-.45-5.31-.47-1-.68-1-1.37,0-2.06a12,12,0,0,1,7,0l2,0c3.25,1.29,6.84,1.41,10,3Z"/><path class="cls-186" d="M116.13,24c-3.46-.58-7-.91-10-3C109.66,21.3,113.24,21.47,116.13,24Z"/><path class="cls-186" d="M104.14,21l-7,0A6,6,0,0,1,104.14,21Z"/><path class="cls-241" d="M120.12,41h-1c-7.19-2.35-14.06-6-22-5,0-1,0-2,0-3,1.8-1.7,3.93-1,6-.75,1.38.18,2.76,1.11,4-.24,4.94.36,9.37,2.52,14,4l1,1c-.11.81-.23,1.79-1.31,1.66C115.64,38.05,119.88,40.09,120.12,41Z"/><path class="cls-185" d="M132.12,42a10.18,10.18,0,0,1-6-4A7.63,7.63,0,0,1,132.12,42Z"/><path class="cls-242" d="M107.12,32c-.25,2.11-1.75,2.3-3.23,1.72-2.23-.88-4.49-.66-6.76-.73,0-1.92.27-3.31,2.8-2.6C102.29,31.05,104.72,31.47,107.12,32Z"/><path class="cls-185" d="M103.12,26c-1.69-.22-3.59.65-5-1C99.81,25.22,101.71,24.34,103.12,26Z"/><path class="cls-243" d="M112.89,77.82c-2.14,1.07-3.73.07-5.31-1.32a24.75,24.75,0,0,0-10.43-5.6q0-6,0-11.9a3,3,0,0,1,4.4.16,25,25,0,0,0,5.29,3.57c5.05,2.9,9.12,6.33,7.86,13A2.14,2.14,0,0,1,112.89,77.82Z"/><path class="cls-244" d="M123.16,71.12,120,73.77c-.87,1.33-1.94,2.17-3.64,1.62-1.85-2,.27-3.3.84-4.87.21-.38.45-.75.68-1.11-.9-4.2-4.52-5.56-7.79-6.57-5-1.57-8.66-5.16-12.92-7.83,0-1.33,0-2.66,0-4,6.91,0,13.3,1,17.25,7.79a7.58,7.58,0,0,0,3.36,2.51C124.19,62.25,122.84,67.08,123.16,71.12Z"/><path class="cls-245" d="M118.12,70c.66,2.2-2,3.1-2,5,.12,1.6-.82,1.54-1.92,1.23-.57-1.66-3.09-3-.84-5.13a1.37,1.37,0,0,0,0-2.18c-5.44-3.23-9.78-8.27-16.17-9.93,0-1.33,0-2.66,0-4,3.12.93,6,2,8.34,4.65,1.92,2.23,5.4,1.67,8,3.14a22.77,22.77,0,0,1,6.21,5.46c2.19,2.62-.92,1.25-1.61,1.73l-.67-.67C117.67,69.55,117.89,69.77,118.12,70Z"/><path class="cls-246" d="M147,65.91a6,6,0,0,0,4.14-.93c1.88-1.08,1.94.39,2.64,1.59,3.55,6,2.53,12.92,3.93,19.34,2.35,10.83-1,21-3.63,31.3-.71,2.77-2.28,4.81-5.49,4.88-2.53-.28-4.68-1.15-5.73-3.71a3.5,3.5,0,0,1,1.78-2.36c6.09-4.67,6-11.83,6.87-18.35.74-5.36,0-10.87-.17-16.31-.1-3.81-1.82-7-3.2-10.36-.62-1.51-1.77-1.83-3.23-1.26a3,3,0,0,1-2.7-.74C143.37,67.34,145.16,66.6,147,65.91Z"/><path class="cls-247" d="M142.18,69l2.94,0c3.64,4.42,4.74,9.9,5.12,15.23.6,8.4,1.11,16.9-1.53,25.22a21.12,21.12,0,0,1-3.6,7.54l-2.14,1.1c-3.5.81-5.86-.47-7.11-3.83,4.92-1.4,5.38-5.79,6.52-9.74a71.34,71.34,0,0,0,1.83-18.66,22.14,22.14,0,0,0-2.63-10.93c-1.15-2-1.22-3.66.45-5.3A.44.44,0,0,1,142.18,69Z"/><path class="cls-217" d="M115.06,84l5-2a8.25,8.25,0,0,1,3.81-1.68,4.2,4.2,0,0,1,.92.26c.66.2.72,1,1.35,1.26a4.63,4.63,0,0,1-.64-1.8c0-1,1-1.45,1.5-2.22H127a1.56,1.56,0,0,1,1.47-.07A6.81,6.81,0,0,1,131,81.4a65.26,65.26,0,0,1-3.51,25.66,2.24,2.24,0,0,1-2,.39c-2.44-1.17,0-4.79-2.85-5.74-1.25-3.65.32-7.52-1.09-11.25-1-2.72-1.71-5.07-5.36-4.08-.68.18-1.19-.44-1.48-1.09A1.67,1.67,0,0,1,115.06,84Z"/><path class="cls-248" d="M142,69.61c-2.08,3.78,2.1,5.75,2.62,9,1.49,9,1.27,17.74-1.53,26.41l-.54-.52c-1.36-3.18-.71-6.54-.72-9.81a45.31,45.31,0,0,0-3-15,7.39,7.39,0,0,0-4-4.82,2.33,2.33,0,0,1-1-1.07A15,15,0,0,1,142,69.61Z"/><path class="cls-249" d="M115.06,84a1.88,1.88,0,0,1,0,.85c1,4.68,1.89,9.34.91,14.15a3.93,3.93,0,0,0,1.13,3.21,2.67,2.67,0,0,1,.41,1.37c-.62,1.59-2,1.93-3.48,2.11a5,5,0,0,1-1.33-.25c-1.37-.59-2.73-1.26-4.31-.84a4.29,4.29,0,0,1-1.29,0c-1.5-.57-1.26-1.54-.61-2.61a2.45,2.45,0,0,1,1.65-1c2.39-2.19.63-5,.09-6.83-.77-2.62.44-3.17,1.9-4.17,1.36,1.75.71,3.82,1,5.75-.28-1.93.55-4-1-5.76a6.44,6.44,0,0,0-1-4c0-.35,0-.7,0-1C111.55,87.27,113,83.68,115.06,84Z"/><path class="cls-250" d="M124.12,81l-4,1c1.73-2.36,4.29-3.34,6.94-4.18l-.9,2.19C125.69,80.79,124.67,80.41,124.12,81Z"/><path class="cls-251" d="M128.08,78.06,127,77.81a4.51,4.51,0,0,1,3-1.92,1.34,1.34,0,0,1,1.33-.09,1.69,1.69,0,0,1,.06,1.36A2.79,2.79,0,0,1,128.08,78.06Z"/><path class="cls-248" d="M131.17,76.07l-1.27-.18a6.86,6.86,0,0,1,4-2.16l.28.34c.33,1.47-.55,2.08-1.76,2.45A1.94,1.94,0,0,1,131.17,76.07Z"/><path class="cls-252" d="M114.21,76.24,116.13,75,120,73.77c.37,1.86-1.24,2.79-1.92,4.16-1.74.36-3.49,1.41-5.19-.11Z"/><path class="cls-253" d="M135.92,114.08a17,17,0,0,0,7.05,4c1.58,1.18,3,2.67,5.1,2.93.69.68,1.69.39,2.46.8,1.81.89,3.6,1.81,5.46,2.6.64.41.77,1.11,1,1.75q0,.46.06.93c-.58,1-2.08,1.26-1.92,2.73-7.16-5.23-15.57-8.21-23-12.93-1.21-2,.43-2.61,1.73-3.35A2,2,0,0,1,135.92,114.08Z"/><path class="cls-254" d="M97.1,163c-2-4.26-.56-8.73-.83-13.1a1.05,1.05,0,0,1,1.27.24,4.72,4.72,0,0,1,.69,2c.1.69.14,1.39.22,2.09.39,2.29,2,2.45,3.79,2,13-3,24.91-7.88,34.17-18,3-3.26,7.1-5.6,7.76-10.54a9.74,9.74,0,0,1,6.05,4c1.23,2.4-.24,4.13-1.54,5.82a69.24,69.24,0,0,1-42,26.23C103.53,164.5,100.15,165.08,97.1,163Z"/><path class="cls-255" d="M97.13,152c0-.66,0-1.32,0-2-.72-.86-.43-1.84-.37-2.8,2.57-3.11,6.44-3.26,9.91-4.05,9.66-2.21,17.13-7.77,23.75-14.77,1.83-1.94,3.31-4,.41-6.24a2.21,2.21,0,0,1,.06-2.09c1.44-.78,2.24.41,3.22,1l3.13,2.6c.55,1.16,2.09,1.44,2.46,2.76-1,6.86-6.55,10.29-11.29,13.8-8.16,6.05-17.27,10.54-27.52,12.17C99.53,152.64,98.27,153,97.13,152Z"/><path class="cls-256" d="M139.1,126a2.87,2.87,0,0,1-1.88-2.31,16.52,16.52,0,0,1,6.95,4.08,4.2,4.2,0,0,1-1,5.73c-6.28,5.8-11.62,12.38-19.79,16.28-6.82,3.26-13.55,6.29-20.91,7.91-3,.66-5.89.85-5.34-3.72,4-2.11,8.54-2.53,12.8-3.83,11.33-3.45,20.39-10.12,28-18.94C139.27,129.7,140.86,128.19,139.1,126Z"/><path class="cls-257" d="M97.1,163c15.41.09,28.54-5.49,40.12-15.5,5.28-4.57,10.47-9,13-15.74.3.05.6.11.9.19a3.4,3.4,0,0,0,2,2c-.08,5-4.14,7.71-7,10.66C135.23,156,122.23,164,106.23,166.05c-3,.39-5.89,2.6-9.12.91Z"/><path class="cls-258" d="M107.08,104l1-.07c1.93-.85,3.34.65,5,1.09h0c5.9.74,10,4.69,14.4,8.11,1.2,1.27,3.69,1.3,3.65,3.77l0,1.08a2.67,2.67,0,0,1-1.9.93,3.74,3.74,0,0,1-2.59-1,7.84,7.84,0,0,0-5-2.86,12.47,12.47,0,0,1-3.76-1.49c-2.38-1.7-5-3.11-7.46-4.62-1.38-1.14-3.44-1.58-3.88-3.72A1.82,1.82,0,0,1,107.08,104Z"/><path class="cls-259" d="M131.16,116.88l-4-2.92c.86-2.43-3-2.3-2.47-4.54,1.08-1.76,2.48-.91,3.83-.5a8.89,8.89,0,0,1,1.21.67c1.36,1.14,3.06,1.8,4.4,3a1.14,1.14,0,0,1,.09,1.23c-.51,1.14-2.17,1.51-2.06,3.07l-.48,0Z"/><path class="cls-260" d="M128.85,118.14l2.26-.18c.76,1.26,2.66,1.45,3,3.13l-3-1.07C129.51,120.41,129,119.52,128.85,118.14Z"/><path class="cls-261" d="M85.07,89.93c2.35-1.76,3.87-4.52,7.76-4.06,3.3.39,6.15.21,7,4.37.58,3,4.17,3,6.18,5.48-3.28.25-4.54,1.61-4.13,4.94.32,2.67-2.31,1.3-3.73,1.48-4.15,2.37-8.89.46-13.18,1.8a11,11,0,0,1-7-3.71,2,2,0,0,1,.62-2.71c4.5-.28,3.77-5,6-7.15Z"/><path class="cls-262" d="M75.09,84.91c-.08-2.57-3-2.25-4-3.92-1.07-2.43.72-1.94,2-2,1.89,2.09,2.79-.07,3.94-1,3.63-2.81,7.21-5.7,12.05-6.07-2.68,2,.79,1.93,1,3C84.46,77,79,79.18,76.22,85.12c0,.87-.42,1.18-1.25.95A.82.82,0,0,1,75.09,84.91Z"/><path class="cls-263" d="M101,85.05a21.34,21.34,0,0,0-3.94-1.91c-2.41-.66-3.66-2.2-2.58-4.34,1.52-3,3.52-.31,4.89.41,2.43,1.27,4.51,3.19,6.74,4.84C105.38,89.33,102.91,85.74,101,85.05Z"/><path class="cls-264" d="M75.14,86l1.08-.91c.16,0,.31-.09.47-.12,2.2-.46,2.39-5,5.19-3.26s3.8,4.8,3.2,8.19l.08.11-.6.35a2.06,2.06,0,0,1-1.09-.79c-.77-1.74-1.81-2.93-3.9-1.93-.54.77,0,1.31.44,1.85s1.45,1.1,1.29,2.17c-1.76,2-3.64.81-5.5.2C73.15,90.21,73.17,88.23,75.14,86Z"/><path class="cls-265" d="M84.19,103.17c4.52-1.93,9.25-1.16,13.93-1,0,.3,0,.59,0,.88a2.8,2.8,0,0,1-1.11.81c-2.16.6-4.51.21-6.9,1.35,2.67.76,4.78-1.07,7.1-.74A1.87,1.87,0,0,1,98.61,106a2,2,0,0,1-.52,1.38c-2.77,1.07-5.37,2.77-8.55,2.36C87,108.11,84.34,106.68,84.19,103.17Z"/><path class="cls-266" d="M101,85.05c1.53-1.22,4.06,2.61,5.12-1a5.13,5.13,0,0,1,1,0h0c-.55,1.75,1.57,3.35.26,5.15a4.05,4.05,0,0,1-4.76,1.63C99.36,89.75,100.79,87.18,101,85.05Z"/><path class="cls-267" d="M107.08,104a2.76,2.76,0,0,1-.06,1,3.41,3.41,0,0,1-2.24,1.62c-1-.08-2-.12-1.65-1.57s-.45-2.94,1-4c.7-1,1.53-1.89,2.81-1.11.79.48.79,1.35.2,2.12C107.13,102.65,105.82,103.28,107.08,104Z"/><path class="cls-268" d="M103.13,105a2,2,0,0,0,2,1c.25,2.78-1.9,3.18-3.78,3.53S98,109.4,98.1,107l0-1a7.11,7.11,0,0,1,2-2Z"/><path class="cls-269" d="M99.09,77c-.22-.91-.8-2,.92-2,1.22,0,2.38.3,2.68,1.63.27,1.15-.79,1.18-1.57,1.34A2.24,2.24,0,0,1,99.09,77Z"/><path class="cls-270" d="M100.11,104a1.78,1.78,0,0,1-2,2l-1-1a1.26,1.26,0,0,1,.08-2l.95,0Z"/><path class="cls-268" d="M107.13,102c-.25-2.58-1.7-1.58-3-1a1.86,1.86,0,0,1,2.24-1.93c1.22.08,1.64.87,1.76,1.93Z"/><path class="cls-157" d="M84.28,15.81,86.11,17l3,2c-4-.51-8.12,1.08-12-1C79.18,16.19,82.37,18.09,84.28,15.81Z"/><path class="cls-271" d="M88.18,125a34.29,34.29,0,0,1-8.6-2.19c-1.45-.58-2.9-3.07-4.85.06-.79,1.26-2.16-1.21-3.2-2-2.26-1.76-5.56-5.07-4.43-6.54,2.08-2.72,5.61-5.7,10.08-3.33,4.48-.11,7.63,2.67,11,5Q88.17,120.48,88.18,125Z"/><path class="cls-272" d="M88.17,116c-4.16-.59-7.41-3.17-11-5a4.67,4.67,0,0,0-3.94-2.73c.88-1.84,4.23-1.4,4-4.3,3.38-.25,4.38,3.37,7,4.29,3.23,1.51,7.44-.06,10.11,3.22-1.71,3-4.24-.09-6,.9,2.6.44,2.59,1.75.76,3.57C88.82,115.92,88.49,115.94,88.17,116Z"/><path class="cls-273" d="M94.13,121c0,10.27,0,20.54,0,30.81,0,1.74.65,3.69-1,5.16-.33-2,.68-4.22-1-6q0-15.47-.05-30.95a1.62,1.62,0,0,1-.15-2C94.62,117.57,93.33,120,94.13,121Z"/><path class="cls-274" d="M92.14,118c0,.67,0,1.35,0,2-1.82-.75-2.15-2.59-2.95-4.08,0-4.65,0-4.65,5-4,.94-.2,1.23.27,1.17,1.11C93.52,114.23,93.56,116.57,92.14,118Z"/><path class="cls-275" d="M83.13,109l-5.93-5.07c-3.06-1.71-4.44,2.06-7,2.13-1.19.51-2.36.88-3.32-.42,0-2.43,2.07-3.08,3.61-4.18.39-.25.8-.46,1.21-.67a4.22,4.22,0,0,0,2.67-4.12A6.75,6.75,0,0,1,76,91.8c2.68-.07,3.15,2.3,4.32,3.91.37,1.17-.41,1.72-1.22,2.25a1.91,1.91,0,0,0-1,2c1.48,1.34,3.3,2.23,4.77,3.5,1.63,1.41,4.14,2.74,2.39,5.68A1.85,1.85,0,0,1,83.13,109Z"/><path class="cls-276" d="M67.13,105c.72,1.26,2,1,3.11,1.11l-9.09,5c-1.76,0-1.51-1-1.07-2.08L61.16,107C62.75,105.15,64.48,103.71,67.13,105Z"/><path class="cls-277" d="M67.13,105l-6,2c-3.58.25-4.77-2.95-6.19-5C51.05,96.28,53.12,83,58.24,77.91c4.68,1.66,8.55,4.77,12.82,7.17A93.86,93.86,0,0,0,71.13,102Z"/><path class="cls-278" d="M76.12,92c-1.24,3.36,1.52,8.33-4,9.94-2.18-3.57-2.29-7.53-1.81-11.48.21-1.76.18-4.09,2.85-4.48l2-1c0,.37,0,.75,0,1.12.33,1.67-1.78,3.76.85,5,.42.15.58.33.48.55S76.24,92,76.12,92Z"/><path class="cls-279" d="M73.14,86c-4,5.08-1.51,10.59-1,16a5.31,5.31,0,0,1-1,.09,18.52,18.52,0,0,1-.07-16.93A2,2,0,0,1,73.14,86Z"/><path class="cls-280" d="M97.11,167c6.43-2.13,13.35-1.94,19.75-4.35,12.19-4.59,22.84-11.3,30.92-21.71,1.79-2.3,3.56-4.62,5.33-6.92,2.81,1.24.87,2.65,0,3.84a71.9,71.9,0,0,1-30.88,25c-6.7,2.93-13.89,4.27-21,5.89C99.9,169,97.36,170.29,97.11,167Z"/><path class="cls-259" d="M83.13,109h2c1.31-1.12,2.65-.88,4,0,3.21.34,5.69-2.69,9-1.93,2.88,3.31,4.93,1.06,7-1.06l1.93-1c.56,2.08,3.07,1.56,4.06,3.06-3.67,5.19-8.8,8-15,8.94a5.58,5.58,0,0,0-.81.09C94,115.79,94,114.47,95,113.09l-.92-1.15c-1.56-1.82-3.65-1.94-5.84-2C86.53,109.9,84.6,110.62,83.13,109Z"/><path class="cls-281" d="M96.09,116.93c5.1-2.81,10.43-5.23,15-8.94l7.27,4.75a1.49,1.49,0,0,1-1,.81c-1.88.16-3.34-1.12-5.06-1.51-5.21.49-8.64,4.53-13.06,6.57-1.06.49-.81,2.07-.79,3.24-.14,2.84.52,5.75-.79,8.47a1.29,1.29,0,0,1-1.39.56Z"/><path class="cls-282" d="M95,113.09c.09,1.31.17,2.62.25,3.93-.07,1-.15,2-.23,3-.31.33-.61.67-.92,1-.67-1-1.33-2-2-3C92.53,116,90.69,112.72,95,113.09Z"/><path class="cls-256" d="M96.27,130.88a3.87,3.87,0,0,0,.84.12l.57.57c.8,1.5.71,3.15.77,4.77s0,3.29,0,4.94c.06,2,.08,4-1.34,5.67,0,1,0,2,0,3a7.93,7.93,0,0,1-.84-.07Z"/><path class="cls-283" d="M150,122.06,148.07,121c2.34.22,4.09-.84,4.46-3,1.37-8.11,5.29-15.78,4.54-24.24-.48-5.47-1.81-10.9-1.92-16.36-.07-3.75-.19-7.24-1.93-10.61-.52-1-1-1.66-2.11-1.76,2.19-2,2.37-.07,3.32,1.39,2.94,4.5,2.51,10.25,5.68,14.62v2c1.4,2.53,0,5.41,1,8,.6,9.93-.38,19.65-4,29,.75,1.64.17,3-.91,4.23C153.66,124.85,152.05,122.81,150,122.06Z"/><path class="cls-284" d="M156.1,124a6.66,6.66,0,0,1,1-4c1.36-.6,2.36-.36,1.9,1.32a39.71,39.71,0,0,1-2,4.85l-1-1C155.52,124.73,155.55,124.33,156.1,124Z"/><path class="cls-235" d="M161.11,91c-2-2.45-.56-5.34-1-8C162.34,85.42,161.73,88.2,161.11,91Z"/><path class="cls-175" d="M170.12,88c2,3.16.55,6.66,1,10C169.08,94.82,170.56,91.31,170.12,88Z"/><path class="cls-244" d="M118.12,70c-1.18-.11-2.29-.35-2.57-1.73a.67.67,0,0,1,.84-.85c1.39.28,1.63,1.4,1.73,2.58Z"/><path class="cls-285" d="M145.11,117a70.41,70.41,0,0,0,0-48c2-3.39,2.88-1,3.9.78,4.07,7.13,3.78,15,4,22.81.18,6.13-1.35,11.93-2.81,17.8C149.44,113.55,148.15,115.8,145.11,117Z"/><path class="cls-248" d="M134.19,113.81a4.67,4.67,0,0,0-.08-.83,4.36,4.36,0,0,1,.35-2,26.69,26.69,0,0,1,2-3.53c.69-2.55,1.09-5.16,1.72-7.72.36-1.51.62-3.79,2.61-3.55,1.81.22,1.05,2.42,1.34,3.8.34,1.64-1,3.64,1,5h0c-.46,1.91-1.05,3.79-1.36,5.72-.58,3.61-2.58,4.51-5.84,3.37Z"/><path class="cls-271" d="M117,103.06c-1.77-.35-3.48-1.14-2.75-3.22a18.81,18.81,0,0,0-.13-13,1.5,1.5,0,0,1,1-2c1.9,1.67,5-2.82,6.28,1.08,1.2,3.62,2.91,7.2,2.26,11.23-.26,1.6-.31,3.23-.46,4.84.19,1.66-.49,2.38-2.17,2-1.82-2-.38-4.49-1.09-6.81,0-.51-.75.22-.11,0,.18-.06.23.09.25.42a7.18,7.18,0,0,1-1.72,5.53A1.2,1.2,0,0,1,117,103.06Z"/><path class="cls-286" d="M131.17,76.07c.31,0,.62,0,.93-.06a3.79,3.79,0,0,1,1.73,1.22c1.08,2.41,3.13,4.57-.13,7.26-1.4,1.16.16,3.71.43,5.62s.87,3.82,1.19,5.77a21.05,21.05,0,0,1-1.86,11.56c-.81,1.77-1.7,3.81-4.38,2.58h0c-1.89-2.73,1.2-4.77.63-7-.9,1,.5,4.06-2.6,4,.22-5.62,3.39-11,1.23-16.84-.21-.58-.11-1.74.58-1.57,3.84,1,1.78-1.41,1.64-2.72-.16-1.62-.3-3.24-.46-4.86,0-1.41-.27-2.9,1-4C131.12,76.68,131.14,76.37,131.17,76.07Z"/><path class="cls-286" d="M121.13,104a3.43,3.43,0,0,0,2-2c.89-.28,1.06-1.89,2.26-1.41,1,.38.52,1.32.39,2.1-.24,1.41-.42,2.84-.63,4.27a2.5,2.5,0,0,1-1.24.76c-2.82-.2-5.36-.93-6.71-3.77l-.24-.87,1.14-.16C119.58,101.89,120.37,102.87,121.13,104Z"/><path class="cls-251" d="M123.87,107.11l1.27-.17,2,0c1.66-1.24,1.93-3.22,2.32-5.75,1.58,3.57-.46,6.1-.35,8.8l-3.91-1.18A1.47,1.47,0,0,1,123.87,107.11Z"/><path class="cls-286" d="M124.12,81a2.07,2.07,0,0,1,2-1c.55,1.79,2.58,3.28,1.21,6C125.6,84.39,125.82,82,124.12,81Z"/><path class="cls-250" d="M131.12,77c-.14,1.39.46,3-1,4-.67-1-1.35-1.95-2-2.93Z"/><path class="cls-251" d="M133.12,77l-1-1,2.08-1.94c2.27-1,3.46-.19,4.56,2a45.35,45.35,0,0,1,4.39,23c-.1,2,0,4,0,5.94-.67,0-1.76,2.59-2-.22-.18-2.56,0-5.14,0-8.65-2.84,4.54-1.76,9.21-4,12.86-2.07-2.48-1.21-5.28-.91-8C137.11,92.7,137.23,84.57,133.12,77Z"/><path class="cls-287" d="M123.87,107.11l1.31,1.74c-.24,2,3.63,2.52,1.95,5.11a91.34,91.34,0,0,0-14-9l4.08-1.07Z"/><path class="cls-288" d="M110.11,90c4.08,2.47,1.75,5.31.52,8.09-.39-2.68-1.27-5.34-.52-8.08Z"/><path class="cls-287" d="M113.11,105l-5-1.09C110.28,102,111.65,103.71,113.11,105Z"/><path class="cls-234" d="M156.1,124l-.06,1.2a8.18,8.18,0,0,1-6.06-3.1Z"/><path class="cls-289" d="M139.1,126c2.67.83,2.7,2.13,1.18,4.33-4.68,6.85-11.34,11.46-18.08,15.82C114.65,151,106,153.1,97.14,154c0-.67,0-1.34,0-2,15-2.7,28.16-8.7,38.61-20.08C137.33,130.16,138.87,128.47,139.1,126Z"/><path class="cls-290" d="M97.13,141v-5c3.38-1.75,7.21-2.15,10.69-3.71,5.73-2.57,10.85-5.84,14.72-10.48-3.45,2.3-5.47,7.33-11.12,6.47-1.2-2.11.6-3,1.76-4,1.38-1.18,2.81-2.29,4.07-3.6,1.58-1.62,3.8-3.12.52-5.31-.67-.44-.34-1.53.2-2.25l.39-.39,3.52,1.36c1.76,1,3.71,1.61,5.19,3,.27.91,1,1.07,1.79,1l2.26,1.88c0,.65,0,1.31,0,2-1.18,5.34-5.59,8.09-9.43,11a41.17,41.17,0,0,1-19.85,8.63C100.18,141.88,98.54,142.3,97.13,141Z"/><path class="cls-291" d="M97.13,141c14.33-1,25.25-8,34-19,3.83.45,4.45,2.06,2,5.07-6.32,7.7-13.89,13.64-23.53,16.6-4.09,1.26-8.27,2.21-12.41,3.3Z"/><path class="cls-260" d="M127.06,117.14c-1.87-.77-3.82-1.4-5.18-3C124.14,114.2,126.09,114.84,127.06,117.14Z"/><path class="cls-251" d="M129.08,110c4.77-1.61,3.91-6.19,4.94-9.67.49-1.65.1-3.57.1-5.36,2.79.5,2.16,2.81,2.27,4.57A41,41,0,0,1,135.11,112l-1,1C132.18,112.43,130.27,111.84,129.08,110Z"/><path class="cls-292" d="M92.13,99.89c-2-.64-4.87,1.57-6.29-1.65,3.64-1.23.2-5.31,2.8-6.95A7.25,7.25,0,0,1,93.33,90c3.09.31,6.45,1.09,6.53,4.67C100,99.53,96.79,101.08,92.13,99.89Z"/><path class="cls-293" d="M89.11,108.94l-4,0c.28-2.91-1.51-4.72-3.77-5.69A5.76,5.76,0,0,1,78.13,100l6.05,3.2Z"/><path class="cls-278" d="M79.1,98l1-2c-1-3.62,2-4.38,4.11-5.76a1.45,1.45,0,0,1,1-.16C84.14,93.44,84.08,97.58,79.1,98Z"/><path class="cls-294" d="M84.2,90.2C83.67,92.72,80,93,80.09,96c-2.66,0-1.67-3.63-4-4q-.08-.45-.12-.9c1.72-.42,3.42,2,5.17,0a2.39,2.39,0,0,1,2.88-1.4Z"/><path class="cls-295" d="M79.08,90c-1.14-.78-2.77-1.4-1-3.08a2.31,2.31,0,0,1,1.36-.43c1.41.27,3.87-.92,3.86,1.47S81.27,90.92,79.08,90Z"/><path class="cls-296" d="M79.08,90c1.43-.13,3.72,0,3.5-1.72-.33-2.5-2.93-.86-4.45-1.36,3-1.34,6.12-2.78,5.92,2.77l-2.88,1.4Z"/><path class="cls-297" d="M97.18,103.06c0,.65-.05,1.3-.08,2-3.07.69-6.18,3.94-9.47-.29A17,17,0,0,1,97.18,103.06Z"/><path class="cls-298" d="M118,113.13c.08.48,0,1.32.26,1.4,6.64,2.3,1.86,4.48,0,6.87-2,2.63-5.51,3.58-7.14,6.58-.18.18-.35.37-.52.56-3.59,1.1-6.57,4-10.66,3.64a4.38,4.38,0,0,1-2.81-1.2l0,0,.06-10a68.53,68.53,0,0,0,15.94-10Z"/><path class="cls-299" d="M113.11,111a21.22,21.22,0,0,1-15.94,10c-.27-2.15.18-3.59,2.62-4.45a23.27,23.27,0,0,0,8.43-4.91C109.55,110.34,111.29,109.61,113.11,111Z"/><path class="cls-300" d="M97.13,131h3c4.46,1.89,7.21-2.45,11-3h0c4.17-.33,6.54-3.54,9.41-5.92,1.57-1.3,2.66-3.26,5.19-4.06-3.7,9.2-17.92,17.92-28.6,18C97.12,134.31,97.12,132.64,97.13,131Z"/><path class="cls-250" d="M135.11,112c-.59-4.45,1.06-8.88,0-13.35-.28-1.24.24-2.68-1-3.64-.83-3.67-1.68-7.34-2.49-11a3.33,3.33,0,0,1,.09-1.33c7.17-.25-1-4.27,1.4-5.65,6.11,6.77,5.43,15,4.64,23.1-.29,3-.48,5.92-.65,8.88C136.45,110,135.78,111,135.11,112Z"/><path class="cls-217" d="M121.13,104l-3-1.07c.46-2.38.92-4.76,1.47-7.63C122.16,98.17,120.66,101.25,121.13,104Z"/><path class="cls-290" d="M111.12,128c-3.33,2.25-6.38,5.49-11,3C104.28,131.78,106.9,126.93,111.12,128Z"/></g></g></svg>