<svg xmlns="http://www.w3.org/2000/svg" viewBox="0 0 185.29 186.96"><defs><style>.cls-1{fill:#fdfdfd;}.cls-2{fill:#584224;}.cls-3{fill:#584225;}.cls-4{fill:#5e4627;}.cls-5{fill:#5f4a25;}.cls-6{fill:#634b27;}.cls-7{fill:#654b27;}.cls-8{fill:#563e1f;}.cls-9{fill:#664f32;}.cls-10{fill:#624b24;}.cls-11{fill:#583f20;}.cls-12{fill:#674d2c;}.cls-13{fill:#73582f;}.cls-14{fill:#6f562e;}.cls-15{fill:#6a4f29;}.cls-16{fill:#6c5025;}.cls-17{fill:#3a2e22;}.cls-18{fill:#6d522b;}.cls-19{fill:#7b642c;}.cls-20{fill:#45341f;}.cls-21{fill:#8e7b40;}.cls-22{fill:#7c6031;}.cls-23{fill:#6f532e;}.cls-24{fill:#736531;}.cls-25{fill:#a3995b;}.cls-26{fill:#d1c287;}.cls-27{fill:#957142;}.cls-28{fill:#45361c;}.cls-29{fill:#795933;}.cls-30{fill:#7b5b35;}.cls-31{fill:#856339;}.cls-32{fill:#856239;}.cls-33{fill:#9d7c49;}.cls-34{fill:#2d2622;}.cls-35{fill:#8d6a3d;}.cls-36{fill:#927041;}.cls-37{fill:#af8f58;}.cls-38{fill:#87663a;}.cls-39{fill:#9d7b47;}.cls-40{fill:#936f40;}.cls-41{fill:#382e24;}.cls-42{fill:#d3c38d;}.cls-43{fill:#947643;}.cls-44{fill:#c7aa72;}.cls-45{fill:#6b522c;}.cls-46{fill:#a5854c;}.cls-47{fill:#b2a267;}.cls-48{fill:#70522f;}.cls-49{fill:#7a5a34;}.cls-50{fill:#a89e62;}.cls-51{fill:#93874d;}.cls-52{fill:#342b21;}.cls-53{fill:#7e7234;}.cls-54{fill:#755832;}.cls-55{fill:#8c6a3d;}.cls-56{fill:#bcaa6f;}.cls-57{fill:#765c2f;}.cls-58{fill:#c1a36c;}.cls-59{fill:#9d7844;}.cls-60{fill:#816436;}.cls-61{fill:#4b3922;}.cls-62{fill:#d7c58b;}.cls-63{fill:#775d33;}.cls-64{fill:#7c5e38;}.cls-65{fill:#634a28;}.cls-66{fill:#4b3a23;}.cls-67{fill:#8f7042;}.cls-68{fill:#493823;}.cls-69{fill:#836237;}.cls-70{fill:#796d2e;}.cls-71{fill:#aa9e5e;}.cls-72{fill:#6d5823;}.cls-73{fill:#342b23;}.cls-74{fill:#bdb072;}.cls-75{fill:#504026;}.cls-76{fill:#7e5c35;}.cls-77{fill:#9c7845;}.cls-78{fill:#3a2f23;}.cls-79{fill:#dfcf96;}.cls-80{fill:#7e602f;}.cls-81{fill:#685026;}.cls-82{fill:#795b34;}.cls-83{fill:#c7bb7f;}.cls-84{fill:#aea164;}.cls-85{fill:#a59a5a;}.cls-86{fill:#c5b87b;}.cls-87{fill:#b0a563;}.cls-88{fill:#3c2e19;}.cls-89{fill:#473d32;}.cls-90{fill:#2f2b27;}.cls-91{fill:#d1ba84;}.cls-92{fill:#ba9b63;}.cls-93{fill:#785a35;}.cls-94{fill:#332d28;}.cls-95{fill:#816037;}.cls-96{fill:#c7bb85;}.cls-97{fill:#c2b776;}.cls-98{fill:#55534b;}.cls-99{fill:#4f4c46;}.cls-100{fill:#494740;}.cls-101{fill:#3b3831;}.cls-102{fill:#44423b;}.cls-103{fill:#86673d;}.cls-104{fill:#a3814a;}.cls-105{fill:#352817;}.cls-106{fill:#908546;}.cls-107{fill:#5e5027;}.cls-108{fill:#816138;}.cls-109{fill:#564228;}.cls-110{fill:#5b4e26;}.cls-111{fill:#ac9f61;}.cls-112{fill:#7f5d36;}.cls-113{fill:#9e7a46;}.cls-114{fill:#c0b475;}.cls-115{fill:#937142;}.cls-116{fill:#b4a96a;}.cls-117{fill:#ab8953;}.cls-118{fill:#9c7b46;}.cls-119{fill:#816d33;}.cls-120{fill:#9a7947;}.cls-121{fill:#39332b;}.cls-122{fill:#d9c791;}.cls-123{fill:#846239;}.cls-124{fill:#d7c590;}.cls-125{fill:#86653b;}.cls-126{fill:#8e6a3c;}.cls-127{fill:#856138;}.cls-128{fill:#4b3e31;}.cls-129{fill:#644b2b;}.cls-130{fill:#ada161;}.cls-131{fill:#3e301b;}.cls-132{fill:#564723;}.cls-133{fill:#918c7c;}.cls-134{fill:#8a8474;}.cls-135{fill:#453c31;}.cls-136{fill:#c4b77c;}.cls-137{fill:#a9854c;}.cls-138{fill:#8e753b;}.cls-139{fill:#544b3c;}.cls-140{fill:#dbc993;}.cls-141{fill:#d2bb82;}.cls-142{fill:#bf9b60;}.cls-143{fill:#c5ad74;}.cls-144{fill:#8d6b3e;}.cls-145{fill:#aa874f;}.cls-146{fill:#9a7644;}.cls-147{fill:#b59359;}.cls-148{fill:#785c36;}.cls-149{fill:#ac9d5f;}.cls-150{fill:#89673c;}.cls-151{fill:#a07e49;}.cls-152{fill:#be9f67;}.cls-153{fill:#b7aa6c;}.cls-154{fill:#a1824a;}.cls-155{fill:#a79357;}.cls-156{fill:#c0a167;}.cls-157{fill:#cab078;}.cls-158{fill:#3a2c18;}.cls-159{fill:#4e3e1e;}.cls-160{fill:#c0b371;}.cls-161{fill:#e0d59d;}.cls-162{fill:#9c9889;}.cls-163{fill:#51473a;}.cls-164{fill:#7b5f34;}.cls-165{fill:#b9ac70;}.cls-166{fill:#403e37;}.cls-167{fill:#363029;}.cls-168{fill:#c0b472;}.cls-169{fill:#dacd91;}.cls-170{fill:#81633b;}.cls-171{fill:#8d6f3f;}.cls-172{fill:#4e3e21;}.cls-173{fill:#3d2f1d;}.cls-174{fill:#8d8879;}.cls-175{fill:#7d5f39;}.cls-176{fill:#6c624f;}.cls-177{fill:#424039;}.cls-178{fill:#403d36;}.cls-179{fill:#947244;}.cls-180{fill:#5c5950;}.cls-181{fill:#5a4d3a;}.cls-182{fill:#6e583a;}.cls-183{fill:#56534a;}.cls-184{fill:#514e48;}.cls-185{fill:#45433c;}.cls-186{fill:#4b4842;}.cls-187{fill:#624c31;}.cls-188{fill:#4a3821;}.cls-189{fill:#826339;}.cls-190{fill:#2a2624;}.cls-191{fill:#544635;}.cls-192{fill:#322c26;}.cls-193{fill:#d2ccb8;}.cls-194{fill:#ddd6c0;}.cls-195{fill:#c3bdab;}.cls-196{fill:#e2dcc7;}.cls-197{fill:#cac4b2;}.cls-198{fill:#b0ac9c;}.cls-199{fill:#735735;}.cls-200{fill:#a09c8f;}.cls-201{fill:#886a43;}.cls-202{fill:#80633e;}.cls-203{fill:#8e7148;}.cls-204{fill:#443d35;}.cls-205{fill:#9c998d;}.cls-206{fill:#9d9a8f;}.cls-207{fill:#524638;}.cls-208{fill:#999484;}.cls-209{fill:#4e4637;}.cls-210{fill:#342d27;}.cls-211{fill:#c1a369;}.cls-212{fill:#53514a;}.cls-213{fill:#48453e;}.cls-214{fill:#3c3a32;}.cls-215{fill:#3f301a;}.cls-216{fill:#4c4a43;}.cls-217{fill:#4c4b44;}.cls-218{fill:#6d512f;}.cls-219{fill:#977544;}.cls-220{fill:#544631;}.cls-221{fill:#a98750;}.cls-222{fill:#d2bb83;}.cls-223{fill:#60542c;}.cls-224{fill:#3d3932;}.cls-225{fill:#ceb27b;}.cls-226{fill:#d7c08b;}.cls-227{fill:#5e4729;}.cls-228{fill:#978f7c;}.cls-229{fill:#4b3c27;}.cls-230{fill:#7e5d36;}.cls-231{fill:#a8a495;}.cls-232{fill:#7b603c;}.cls-233{fill:#4d4b45;}.cls-234{fill:#a9a495;}.cls-235{fill:#afaa9a;}.cls-236{fill:#aca89f;}.cls-237{fill:#b6b2a8;}.cls-238{fill:#a8a496;}.cls-239{fill:#c2bcaa;}.cls-240{fill:#b6b09f;}.cls-241{fill:#7d603b;}.cls-242{fill:#483a25;}.cls-243{fill:#59564e;}.cls-244{fill:#9d7947;}.cls-245{fill:#785934;}.cls-246{fill:#5b4e3c;}.cls-247{fill:#684e2d;}.cls-248{fill:#d4cebb;}.cls-249{fill:#ece4cb;}.cls-250{fill:#af8f55;}.cls-251{fill:#90754f;}.cls-252{fill:#bcb7a5;}.cls-253{fill:#c8c2b1;}.cls-254{fill:#5d5a52;}.cls-255{fill:#9b7946;}.cls-256{fill:#342919;}.cls-257{fill:#514f49;}.cls-258{fill:#826541;}.cls-259{fill:#635037;}.cls-260{fill:#6f5738;}.cls-261{fill:#b9b4a2;}.cls-262{fill:#e9e2c9;}.cls-263{fill:#544025;}.cls-264{fill:#392d1d;}.cls-265{fill:#877b66;}.cls-266{fill:#977343;}.cls-267{fill:#a5824b;}.cls-268{fill:#634a2a;}.cls-269{fill:#a99165;}.cls-270{fill:#cdc7b3;}.cls-271{fill:#e1dac5;}.cls-272{fill:#b5b0a0;}.cls-273{fill:#504f49;}.cls-274{fill:#57452c;}.cls-275{fill:#5d5b53;}.cls-276{fill:#3e2e19;}.cls-277{fill:#926f40;}.cls-278{fill:#2e2315;}.cls-279{fill:#d2cdbb;}.cls-280{fill:#cbc5b3;}.cls-281{fill:#b6b2a6;}.cls-282{fill:#c8b481;}.cls-283{fill:#e4d9b2;}.cls-284{fill:#d4c9a9;}.cls-285{fill:#dbd5c1;}.cls-286{fill:#e7e1c9;}.cls-287{fill:#cdb469;}.cls-288{fill:#c4ad76;}.cls-289{fill:#5d4e38;}.cls-290{fill:#a07e4b;}.cls-291{fill:#2b1f11;}.cls-292{fill:#e3ddc8;}.cls-293{fill:#948e7d;}.cls-294{fill:#e2dcc5;}.cls-295{fill:#d9d4c5;}.cls-296{fill:#ede5cc;}.cls-297{fill:#6a4e2d;}</style></defs><g id="Layer_2" data-name="Layer 2"><g id="Layer_4_Image" data-name="Layer 4 Image"><path class="cls-1" d="M104.15,0l1,1.91c-1.58,1.82-3.76,1.21-5.73,1.44-.71,0-1.41.15-2.12.19-2.39-.23-4.72-1.48-7.18-.36a15.66,15.66,0,0,1-5,.17c-1.74-.18-3.65.18-4.95-1.48.34-.62.67-1.25,1-1.87Z"/><path class="cls-2" d="M53.17,177.05c-.86-.13-1.75-.17-2.22-1.08-1.12-.93-2.82-.69-3.79-1.9L43.93,172a17.65,17.65,0,0,1-6.77-4.87l-1.85-1.26c-4.47-2.8-8.65-5.91-11.19-10.72L24,155a10.53,10.53,0,0,1-4.62-5.19v0c-1.72-1.12-2.95-2.53-2.64-4.78a2.62,2.62,0,0,1,3-1.47c1.1,1.4,1.77,3.11,3.13,4.32,2.06,3.3,5.26,5.58,7.7,8.53a20.45,20.45,0,0,0,3.65,3.55c.33.27.63.57.93.87A13.19,13.19,0,0,0,38,163.19c2.56,1.73,5.17,3.39,7.69,5.2,2,1.93,4.78,2.46,7.07,3.88a84.73,84.73,0,0,0,11.54,4.88c2.31.7,4.67,1.21,7,1.95,1.67.87,4.13.17,5.06,2.52-.56,1.45-1.93,1.39-3.11,1.68-.74.14-1.47.26-2.05-.4h0c-2.36-.49-5,.27-7-1.78-1.06-.39-2.48.23-3.21-1.11-.84-.57-2.11,0-2.78-1l-.09,0A9.19,9.19,0,0,1,53.17,177.05Z"/><path class="cls-3" d="M165.09,37.09l.89,1.52c1.06,1.19.9,2.1-.61,2.72-2.45-.25-3.61-2.2-4.84-3.89a43.64,43.64,0,0,0-7.05-7.57c-2.81-2.48-5.41-5.24-8.75-7.08a51.19,51.19,0,0,0-6.07-4.25,48.14,48.14,0,0,0-11.91-5.91c-4.31-1.67-8.5-3.65-13-4.73-1.54-.37-3.34-.66-3.79-2.69.5-1.1,1.57-1.26,2.55-1.55,3.13,1.06,6.84-.05,9.56,2.55.38.93,1.2,1,2,1,4.28.23,7.71,2.44,11.07,4.8l0,0A31.07,31.07,0,0,1,148,20.1h0c4.36,2.57,8.35,5.56,11,10l.94,1C162.68,32.25,163.78,34.76,165.09,37.09Z"/><path class="cls-4" d="M57.55,8.16a.43.43,0,0,0,.61-.24c.68-.91,1.86-.46,2.69-1l1.31-1a3.06,3.06,0,0,1,3.16-.53A1,1,0,0,0,66.16,5c1.09-1.4,2.88.19,4-1l3,.13a1.16,1.16,0,0,1,.12,1.24c-1.39,2-4.14,1.56-5.67,3.28a14.51,14.51,0,0,1-2.29,1.49c-3.15,1.37-6.73,1.6-9.63,3.64a58.74,58.74,0,0,1-8,4.11c-2.36.77-4.24,2.35-6.28,3.68-2.94,1.57-4.43,4.93-7.62,6.2-1.47,1-2.7,2.37-4.21,3.35-1.71.31-3.53,4.58-5.11-.12C27,26.64,31.23,24.09,35,21c.37-1,1.37-.94,2.18-1.19,2.38-2.33,4.79-4.62,8.12-5.55a1,1,0,0,0,.88-.38c1.06-2,3.26-2,4.93-2.85l.12,0C53.12,9.58,55.07,8.28,57.55,8.16Z"/><path class="cls-5" d="M180.26,66l.06,1a2.23,2.23,0,0,1,.25,2.05,2.61,2.61,0,0,1-1.64,1.32,1.84,1.84,0,0,1-1.27-.52c-1.71-2.69-1.75-5.94-3-8.81-.75-1.76-1.54-3-3.54-1.41-1.53.63-3,1.35-4.76.79a1.83,1.83,0,0,1-.76-1.12c.53-2.86,3.68-4,4.47-6.65a4,4,0,0,1,2.64-2.1,1.1,1.1,0,0,1,1.07.7l0,0c2,1.56,3.38,3.46,3.11,6.19.28.91-.2,2.12,1.06,2.64A7.21,7.21,0,0,1,180.26,66Z"/><path class="cls-6" d="M168.18,144l-1,3c-.5,1.09-.65,2.44-2.06,2.9h0c-1.59,2.68-2.93,5.57-6,7h0c-.69,1.31-1.35,2.63-3,3h0a11.14,11.14,0,0,1-7,5.58,1.8,1.8,0,0,1-1.42-1.43c.9-4.6,6.07-5.59,7.92-9.39,1.39-1.12,2.51-2.53,3.87-3.69,2.83-1.95,3.89-5.54,6.82-7.4A1.8,1.8,0,0,1,168.18,144Z"/><path class="cls-7" d="M131.13,176.93l-5,2.17a1.25,1.25,0,0,1-1.25.14,2.42,2.42,0,0,1-1.16-1.62,2.37,2.37,0,0,1,.41-1.28c1.67-1.73,4.09-1.86,6.1-2.86.39-.22.8-.4,1.2-.6,2.17-1.23,4.34-2.44,6.43-3.8,2.73-1.29,4.88-3.84,8.22-3.78a1.77,1.77,0,0,1,1.36,1.49,12.92,12.92,0,0,1-8.39,6c-.8.1-1.66.08-2,1.08C135.59,175.82,133.38,176.41,131.13,176.93Z"/><path class="cls-8" d="M4,67a5.06,5.06,0,0,0,1.2-4A14.15,14.15,0,0,1,8,56l1.17-2c.53-.93,1.17-1.57,2.31-.85A3.26,3.26,0,0,1,12,54.47c-.08,2.55-1.2,4.78-2.15,7.06-1.91,3.68-2.18,7.8-3.16,11.72-.43,1.73-.45,3.58-1.95,4.86a2.73,2.73,0,0,1-1.51.48,2.15,2.15,0,0,1-1.41-.72A4,4,0,0,1,2.22,74l0,0c.55-.93-.17-2.18.76-3l.14-1A4.39,4.39,0,0,1,4,67Z"/><path class="cls-9" d="M1.3,105.75a58.45,58.45,0,0,1,0-24.53.72.72,0,0,1,1.23-.08c.91,1.29,1.06,2.86,1.58,4.31a12,12,0,0,1,.37,2.38c0,4.73.32,9.46-.22,14.17a9.36,9.36,0,0,1-1.61,3.75A.82.82,0,0,1,1.3,105.75Z"/><path class="cls-10" d="M108.92,183.86l-3.77,1.1c-2.68,1.36-5.57.92-8.4,1a12.8,12.8,0,0,1-3.92-.17c-3.07-1.07-1.4-2.16.09-3.18a8.76,8.76,0,0,0,4.33-3.35,4.59,4.59,0,0,1,2-1.76c1.3-.22,2.51.33,2.28,1.59-.5,2.78,1.37,2.09,2.76,2.22,1.6.43,3.35.32,4.76,1.36A.75.75,0,0,1,108.92,183.86Z"/><path class="cls-1" d="M16.87,145.11l2.49,4.66a26.33,26.33,0,0,1-10-12.21c-.61-1.51-2.77-3.58-.87-5.78a1.56,1.56,0,0,1,1.21.19,30.37,30.37,0,0,1,2.62,2.82c1.3,2.82,2.32,5.78,4.17,8.33A2.89,2.89,0,0,1,16.87,145.11Z"/><path class="cls-11" d="M183.86,84.16,184,101c-3.26.84-2.88-1.79-3.09-3.49-.46-3.87.3-7.81-.53-11.67-.67-2.32-.3-4.76-.86-7.09a4.48,4.48,0,0,1,.13-2.27,1.49,1.49,0,0,1,1.13-.81,2.86,2.86,0,0,1,1.31.54,3.6,3.6,0,0,1,.78,1.11c.62,1.84.23,3.82.8,5.67C183.73,83.34,183.8,83.75,183.86,84.16Z"/><path class="cls-12" d="M181.14,85c2.07,3.7.47,7.71,1,11.54.22,1.62-.89,3.83,1.82,4.43,0,.64-.09,1.27-.14,1.9,1,4.48-.3,8.5-2.55,12.32-1.75-1.46-1.43-3.6-1.84-5.51a73.91,73.91,0,0,0,.31-10.31C180.29,94.56,178.44,89.55,181.14,85Z"/><path class="cls-1" d="M96.2,185l9,0a4.82,4.82,0,0,1-3.84,1.94q-8.64.12-17.3,0A5,5,0,0,1,80.15,185c1.58-1.68,3.66-1.25,5.61-1.37a10.33,10.33,0,0,1,4,.61A6.06,6.06,0,0,0,96.2,185Z"/><path class="cls-13" d="M67.15,8c1.13-2.73,4.23-1.49,6-3,2.51-1.23,5.52-.43,8.94-2.28-.36.11-1.46-.19-1,.33a2.76,2.76,0,0,1-4-.06c.68-1.35,2.11-.64,3.09-1.13l5.91.19a1.71,1.71,0,0,1,.22,2.31C80.43,8.37,74,9.08,67.15,8Z"/><path class="cls-14" d="M9.17,132a3.55,3.55,0,0,0-.65-.22.85.85,0,0,0-.41-.8,26.84,26.84,0,0,1-3.82-10.34A.48.48,0,0,0,4.1,120a2.83,2.83,0,0,1-.49-2.6c1-1.44-.89-3.23.56-4.61a1.91,1.91,0,0,1,1.39.08c2.49,4.64,3.29,9.9,5.34,14.71a6.14,6.14,0,0,1-.11,1.42A5.35,5.35,0,0,1,9.17,132Z"/><path class="cls-1" d="M139.06,172.78l8-5.93a2.72,2.72,0,0,1,2.41-1.72l6.58-5.22c-1,5.66-6.72,6.64-10.07,10C144.32,171.56,142.45,174.45,139.06,172.78Z"/><path class="cls-1" d="M35,21c-2.47,4.15-7.28,6-9.78,10.15-1.05,2.71-2.23,5.3-5.44,6.08l-.66-.3A32.84,32.84,0,0,1,35,21Z"/><path class="cls-1" d="M11.17,52.85,9.16,54c-1.32-6.28,2.4-9.87,6.93-13l.51.52C16.14,45.89,13.25,49.18,11.17,52.85Z"/><path class="cls-1" d="M181.23,115.22c2.15-3.85,1.27-8.34,2.59-12.37.13.1.33.16.39.29,1.65,3.93-.59,13.6-3.89,16.84-1.22-.93-.68-2.06-.38-3.17A2.86,2.86,0,0,1,181.23,115.22Z"/><path class="cls-1" d="M108.92,183.86a5.07,5.07,0,0,1,.46-.82c1-1.34,2.61-1.42,4-2,4-.35,7.5-3.1,11.71-2.23l1,.25C121.16,183.42,115.22,184.3,108.92,183.86Z"/><path class="cls-1" d="M24.12,155.16l11.19,10.72C29.81,164.15,25.75,160.93,24.12,155.16Z"/><path class="cls-1" d="M148,20.1,135.18,12C139.76,11.85,146.23,15.93,148,20.1Z"/><path class="cls-1" d="M159.08,30.1l-11-10C153.27,21.73,157.47,24.48,159.08,30.1Z"/><path class="cls-1" d="M180.26,121c.28.56,1,1.36.78,1.65-2.61,4.3-2.26,10.1-6.79,13.41l-.49-.53c.06-3.17,1.64-5.89,2.63-8.78C177.77,124.88,177.57,122,180.26,121Z"/><path class="cls-15" d="M180.26,121c-1.61,1.79-.81,4.72-2.94,6.27a2.3,2.3,0,0,1-1.67-1.37,6.27,6.27,0,0,1,.3-3.66c1.38-2.76.93-6.34,3.75-8.46,1.62.54.46,2.21,1.26,3.09-.05,1.08-1.17,1.94-.64,3.13Z"/><path class="cls-1" d="M183.86,84.16a1.26,1.26,0,0,1-.7-.22c-1.28-2.21.22-4.78-.93-7l0,0c-1-1.29-1.3-2.59,0-3.9C184.14,76.51,187.06,79.89,183.86,84.16Z"/><path class="cls-16" d="M98.18,2.2l7-.29c1.58.34,2.93,1.55,4.68,1.22.62.26.7.65.25,1.15-2.39,1.67-5.14-.4-7.59.73C100.59,4.79,97.7,6.07,98.18,2.2Z"/><path class="cls-1" d="M135.14,12l-11.07-4.8C129,6,132.14,8.77,135.14,12Z"/><path class="cls-1" d="M110.47,3.87c-.22-.24-.44-.48-.64-.74,4.18.6,9-1.48,12.21,3.08L112,4.1C111.45,4.5,110.89,4.63,110.47,3.87Z"/><path class="cls-1" d="M168.36,42c3.17.72,5.12,2.42,4.8,6l-.58.29a5.86,5.86,0,0,1-4.1-2.83,7.88,7.88,0,0,1-.73-2.42A1.13,1.13,0,0,1,168.36,42Z"/><path class="cls-1" d="M45.28,14.26l-8.12,5.55C39,16.73,40.82,13.54,45.28,14.26Z"/><path class="cls-1" d="M4.29,120.64Q6.21,125.8,8.11,131C4.64,128.34,3.87,124.71,4.29,120.64Z"/><path class="cls-1" d="M8,56c-.19,2.63-1.68,4.75-2.81,7C4.36,60,5,57.52,8,56Z"/><path class="cls-1" d="M37.16,167.14c2.34,1.51,5,2.61,6.77,4.87C40.06,172.62,38.54,170,37.16,167.14Z"/><path class="cls-1" d="M159.08,156.9l6-7C164.11,153.13,163.47,156.62,159.08,156.9Z"/><path class="cls-17" d="M77.06,3l4.61.39C78.73,5.56,75.84,4.73,73.14,5c0-.29,0-.58,0-.87A6.38,6.38,0,0,0,77.06,3Z"/><path class="cls-1" d="M19.37,149.79A19.91,19.91,0,0,1,24,155C20.42,155.06,19.56,152.73,19.37,149.79Z"/><path class="cls-1" d="M165.09,37.09l-5.07-6C163.32,31.71,165.07,33.68,165.09,37.09Z"/><path class="cls-1" d="M2,80.65a5.86,5.86,0,0,1-.66.57C-.23,78.59-.32,76.15,2.22,74l0,4C2.9,79,3,79.88,2,80.65Z"/><path class="cls-1" d="M1.3,105.75l.7.55a2.74,2.74,0,0,1,1.23,2.37,8.89,8.89,0,0,1-.31,3.44,2.06,2.06,0,0,1-.93,1C0,110.81-.4,108.38,1.3,105.75Z"/><path class="cls-1" d="M64.18,181.11c2.24,1,4.9.28,7,1.78C68.43,184,65.81,184.47,64.18,181.11Z"/><path class="cls-18" d="M86.14,184.78l-6,.21-1.79-.13q-.49-.26-.45-.66c0-.29.08-.44.17-.44,1.78-1.37,4-.68,5.94-1.22a9.79,9.79,0,0,1,1.31-.26,2.62,2.62,0,0,1,1.9.5C87.71,183.91,87,184.41,86.14,184.78Z"/><path class="cls-1" d="M57.55,8.16c-2.08,1-3.95,2.5-6.34,2.82C52.71,8.65,54.35,6.65,57.55,8.16Z"/><path class="cls-1" d="M180.26,66q-1.12-3-2.23-5.91C180.46,61.39,182.26,63,180.26,66Z"/><path class="cls-19" d="M173,139.9l-1.92,1a.79.79,0,0,1-1.27-.07,3,3,0,0,1-.11-2.94,3,3,0,0,1,2.56-1.52,1.77,1.77,0,0,1,1.31.74A2,2,0,0,1,173,139.9Z"/><path class="cls-1" d="M180,69.06l.3-2.07c2.24,1.14,3.06,2.74,1.66,5.08a1,1,0,0,1-1.17-.06A2.94,2.94,0,0,1,180,69.06Z"/><path class="cls-1" d="M177,57.41l-3.11-6.2C176.56,52.44,179,53.79,177,57.41Z"/><path class="cls-20" d="M4.24,113c-.44,1.36,1.75,2.94-.36,4.15l-.39.19-.3-.33L3,116c-.77-1-.37-2.18-.33-3.29.2-1-.48-2.83,1.18-2.6C5.09,110.27,4.94,111.85,4.24,113Z"/><path class="cls-1" d="M77.89,184q.23.43.48.84c-2.64.26-5.11-.09-7.16-2l2,0C75,182.21,76.67,182.26,77.89,184Z"/><path class="cls-1" d="M131.13,176.93l6-3.07C136.36,177.32,133.63,176.9,131.13,176.93Z"/><path class="cls-21" d="M170.08,141a6.26,6.26,0,0,1,1,0c-.43,1.51-1.75,2.19-2.87,3.07l-2.07.16c-.09-.21-.18-.41-.28-.62a3.77,3.77,0,0,1,2.4-3.07A1.77,1.77,0,0,1,170.08,141Z"/><path class="cls-1" d="M51.09,11l-4.93,2.85C46.5,10.68,48.87,11,51.09,11Z"/><path class="cls-1" d="M53.17,177.05A8.67,8.67,0,0,1,58.1,179C55.53,180.69,54.34,178.9,53.17,177.05Z"/><path class="cls-22" d="M168.36,42c-.05.33-.09.67-.14,1a1.91,1.91,0,0,1-2,.45,1.94,1.94,0,0,1-1.15-2.37c1.17-.5.86-1.55.9-2.46Z"/><path class="cls-1" d="M16.09,40.92c0-2.08.55-3.76,3-4l.22.2c1,2.08-.43,3.1-1.83,4.13A1.3,1.3,0,0,1,16.17,41Z"/><path class="cls-1" d="M173,139.9c0-1,0-2,0-2.94-.2-.79.2-1.11.92-1.17l.32.25C174.69,137.61,176.4,139.6,173,139.9Z"/><path class="cls-1" d="M156.09,159.9a7.34,7.34,0,0,1,3-3C159,158.79,159.56,161.37,156.09,159.9Z"/><path class="cls-1" d="M4,67c.26,1.15.32,2.24-.84,3C1.62,68.47,1.92,67.48,4,67Z"/><path class="cls-1" d="M173.82,51.24a.62.62,0,0,1-.65-.21,2.08,2.08,0,0,1-.33-2.79l.32-.29C175.63,48,175.65,48,173.82,51.24Z"/><path class="cls-1" d="M70.19,4c-1,1.58-2.65.8-4,1C66.76,1.51,68.89,4.52,70.19,4Z"/><path class="cls-1" d="M47.16,174.07c1.75-.34,2.8.73,3.79,1.9C49.45,175.81,47.48,176.58,47.16,174.07Z"/><path class="cls-1" d="M3,71c.17,1.11.4,2.24-.76,3C1.71,72.8.4,71.41,3,71Z"/><path class="cls-23" d="M181.23,71.73a5.07,5.07,0,0,0,.75.34l.24.92,0,3.9L181.14,76C180.07,74.54,179.85,73.12,181.23,71.73Z"/><path class="cls-1" d="M3.06,113.26c0,.91,0,1.82-.05,2.72-2.41-.24-1.37-1.68-1-2.89l.22-.14C2.67,112.58,3,112.69,3.06,113.26Z"/><path class="cls-1" d="M60.85,6.94c-.57,1.23-1.69.94-2.69,1C58.35,5.66,59.55,6.17,60.85,6.94Z"/><path class="cls-1" d="M3.19,117c.23.06.46.1.69.14C4,118.05,4,119,4.1,120,3,119.19,1.37,118.6,3.19,117Z"/><path class="cls-1" d="M165.08,149.92l2.06-2.9C168.26,149.26,167,149.86,165.08,149.92Z"/><path class="cls-1" d="M65.32,5.45A3.41,3.41,0,0,1,62.16,6C63,4.65,63.85,3.1,65.32,5.45Z"/><path class="cls-1" d="M58.19,179c1,.19,2.28-.53,2.78,1C59.68,180.67,58.34,181.46,58.19,179Z"/><path class="cls-24" d="M98.18,2.2c.77,3,3.23,1.35,4.92,1.82a1,1,0,0,1,.27.74c0,.27-.05.4-.1.4-.63.75-1.38,1.44-1.12,2.59.08.43.13.85.18,1.28-.18,2.59,1.12,3.6,3.56,4.2,1.91.47,4.88-.38,5.34,2.94a3.48,3.48,0,0,1-1.32.78c-3.27.7-6.28-.46-9.33-1.28-1.19-.77-1.07-1.76-.78-2.79-.67.5-.4,1.78-1.18,2.48s-1.87,1.5-3.07.9a2.25,2.25,0,0,1-1-3c1.66-3.93-.27-6.19-3.42-8,.49-4.38,4.24-1,5.93-2.47C97.26,2.29,97.59,2,98.18,2.2Z"/><path class="cls-25" d="M97.06,2.81c.1,1.2-.27,1.68-1.61,1.39-1.5-.33-3.11-.68-4.39.69-.2,1.77-1.44,2.71-2.81,3.54a2.14,2.14,0,0,1-1.93-.26c-.69-.84-.37-1.71-.07-2.58A4,4,0,0,1,87,4.45c1-.93,2.27-1.43,3.23-2.39C92.67.72,94.85,1.92,97.06,2.81Z"/><path class="cls-26" d="M90.21,2.06C90.1,3.9,88.39,4.26,87.3,5.2A1.58,1.58,0,0,1,86,3.92c0-.62,0-1.24,0-1.86C87.44,2.84,88.83,2.07,90.21,2.06Z"/><path class="cls-27" d="M45.15,169l-8-5.1a8.85,8.85,0,0,0-3-2.91h0a.85.85,0,0,1-.27-.84c.07-.28.15-.42.23-.42a4.77,4.77,0,0,1,3.41-.68c1.83.1,2.1-1,2.15-2.53.07-2.1,1.4-2.35,3.12-1.82,12.11,8.07,25.08,14,39.61,16.21a3.89,3.89,0,0,1,1.77.85c.87,2.1.34,4.07-.56,6a1.59,1.59,0,0,1-1.31.6c-4.22-1.66-8.43-3.33-13.12-1.94-.64.19-1.2-.36-1.67-.83-2.15-3.6-5.89-3.94-9.48-4.58C54.06,168.35,49.35,170.31,45.15,169Z"/><path class="cls-28" d="M16.87,145.11l-.81-.94c-.63-2.62-.72-5.32-2-7.83-1.07-2-.71-4.14,2-5.05a2.26,2.26,0,0,1,2.43,1c-.16,3.51,1.46,1.19,2.5.75,5.65-3.31,11.74-5.81,17.07-9.67,2.5-.78,4.65-2.35,7.09-3.28a6.27,6.27,0,0,1,2.92,0,3.4,3.4,0,0,1,1.26.7c.41,3.38-3,3.09-4.47,4.63a17,17,0,0,0-3.21,2.31c-1.58,1.65-3.7,2.34-5.7,3.25-1.34.7-2.56,1.6-3.89,2.33l-1,.65A20.06,20.06,0,0,1,29,135.43c-1.09.38-2.38.38-3.1,1.52-.31.66-1.13.94-1.21,1.76a8.61,8.61,0,0,1,.76-.48,5.24,5.24,0,0,1,2.94-.82,1.92,1.92,0,0,1,1.06.68c.3,1.31.52,2.6-.71,3.61-1.74,1-3.15,2.52-5.14,3.1a3.39,3.39,0,0,1-3.36-.77Z"/><path class="cls-29" d="M58.16,170c3.89.54,8.25.16,10,5-1,1.18-2,2.48-3.84,2.1a4.74,4.74,0,0,1-1.13-1.4c-.16,0-.07-.57-.43-.22a20.49,20.49,0,0,0,1.4,1.52.71.71,0,0,1,.2.7c-.08.22-.15.34-.22.34a35.58,35.58,0,0,1-12-5C53.6,170.92,55.8,170.28,58.16,170Z"/><path class="cls-30" d="M82.17,178l.89.05a2.1,2.1,0,0,1,1.6,1,5,5,0,0,1,.59,3.74,2.69,2.69,0,0,1-.31.44,13.68,13.68,0,0,1-8.76-1.24c-1.26-1.82-3.82-.12-5.11-1.89-.23-4.25.66-5.18,4.54-4.41A25.8,25.8,0,0,1,82.17,178Z"/><path class="cls-27" d="M30,157.06c-2.88-2.81-6.33-5.13-8-9,1.8-.9,2.62.87,3.87,1.49-.7-1.92,0-3.4,1.26-4.73A32.08,32.08,0,0,1,35,155.87a4,4,0,0,1-.47,1.42C32.9,159.21,31.42,158.54,30,157.06Z"/><path class="cls-31" d="M82.17,178a3,3,0,0,1-2.71,0c-6-2.76-6-2.69-8.39,2.11a16.77,16.77,0,0,1-6.94-2l0-1h0c1.39-.56,2.26-2.14,4-2,4.17-.87,8.19-.09,12.21,1A2.14,2.14,0,0,1,82.17,178Z"/><path class="cls-32" d="M58.16,170c-2,1.08-3.44,3.18-6,3-2.3-1.38-5.46-1.25-7-4,1.79-.35,4.07.94,5.14-1.76.54-1.37,1.78-1,2.28-.06C53.83,169.47,56.49,168.68,58.16,170Z"/><path class="cls-33" d="M27.15,145a10.14,10.14,0,0,1-1.53,5.39L22,148c-1.27-1-3.23-1.75-1.78-4l3.79-.16A2,2,0,0,1,27.15,145Z"/><path class="cls-34" d="M76.18,181.92l8.76,1.24c-2.2,1.54-4.77,0-7,.86l-4.69-1.16C73.94,181.71,75.14,182.05,76.18,181.92Z"/><path class="cls-35" d="M30,157.06c1.41.65,2.8.94,4.18-.09a2.39,2.39,0,0,1,2.21,1c.25,1.66-1.27,1.31-2,1.81l-.15,1.2C32.6,159.84,30.63,159.16,30,157.06Z"/><path class="cls-35" d="M34.18,161a2.82,2.82,0,0,1,3,2.91A5.93,5.93,0,0,1,34.18,161Z"/><path class="cls-36" d="M111.08,16.08c-1.21-1.84-3.34-1.3-4.91-1.44-4.47-.38-5.78-2.62-5-6.68,1.14-.32,1.62.57,2.24,1.22,3.76,2.59,8,1.85,12.25,1.89-3.28-2.56-7.52-2.62-11.07-4.42a1.72,1.72,0,0,1-.85-1.18,1.49,1.49,0,0,1,1-1.09c1.76.19,3.63-.35,5.26.75,5.6,2.6,12,3.13,17.2,6.79l-.15.63c-.8,1.54-.58,3.5-2,4.78-2.52.64-2.92-1.36-3.64-2.9a.46.46,0,0,1-.22-.66c-.5.37.3.56.12.91.18.85-1.72.18-.95,1.25,2,2.84-.39,2.71-2,3.15C115.87,18.24,112.55,19.4,111.08,16.08Z"/><path class="cls-37" d="M165.08,41.07,166.16,43c-1.64,1.64-3.74,1.51-5.81,1.5-4.1-2.78-7.2-6.63-10.74-10a3.86,3.86,0,0,1-1-4.11c1.37-2.44,3.24-2.78,5.54-1.32C158.65,32.23,161.36,37.11,165.08,41.07Z"/><path class="cls-38" d="M154.12,29c-2-.1-4-.27-5,2-1.89,2,.15,2.77,1.26,3.83,1.8,1.72,3.87,3.37,2,6.26a32.51,32.51,0,0,1-11.39-10.63,5.62,5.62,0,0,1,2-2.77,3.38,3.38,0,0,1,1.95-.36c.71,0,1.6.5,2-.62-.42-1.63-2.49-2.64-1.73-4.67C149,23.29,151.21,26.57,154.12,29Z"/><path class="cls-39" d="M145.14,22l3.88,5.1a6.84,6.84,0,0,1-4,.9h-1.92c-1.6.46-2.09-.5-2.3-1.81.3-.91,1.11-1.71.7-2.79-.29-.77-.57-1.85-1.36-1.88-.47,0-.5,1.45-1.37,1.79a3.33,3.33,0,0,1-3.48-2.46c-.21-1.46,0-2.73,1.54-3.41a3.16,3.16,0,0,1,2.35.5C141.8,18.43,143.35,20.39,145.14,22Z"/><path class="cls-40" d="M139.23,18l-2.07,0c-3.74-1.32-8.15-1.51-10-5.95l.1-.12A24.59,24.59,0,0,1,139.23,18Z"/><path class="cls-41" d="M110,5.13l-5.91-.06c-.38.27-.67.19-.85-.24A4.47,4.47,0,0,0,103.1,4c2.42-2.1,4.93,1.12,7.37-.15l1.57.24Z"/><path class="cls-42" d="M86,3.92,87.3,5.2c-.06.27-.13.53-.21.8-2.48,3.3-5.88,5.31-9.6,6.87-3.39,1.88-7.31,1.5-10.9,2.57a3,3,0,0,1-1.9-1.28,4.86,4.86,0,0,1-.59-2.27A5.14,5.14,0,0,1,65.17,9l2-1C73.44,6.63,80,6.62,86,3.92Z"/><path class="cls-43" d="M33.22,27c3.2-1.31,4.23-5.33,7.76-6.23l.43.53a3.5,3.5,0,0,1-.57,1.85c-.5.88-1,1.86.14,2.57.84.53,1.5-.21,2.15-.67,2.28-1.6,4.33-3.51,6.84-4.78A7.47,7.47,0,0,1,54,19.23a2.82,2.82,0,0,1,1.26.65c.41,2.5-1.83,3.72-2.69,5.62-3.69,3.28-7.18,6.86-12.27,8C37,32.38,35.24,29.56,33.22,27Z"/><path class="cls-44" d="M54.1,20l-3.86,1.18a11.49,11.49,0,0,0-3.26-3A1,1,0,0,1,47.11,17L55.24,13a.82.82,0,0,1,1.11-.22C57.29,14,58.26,15,59.93,14c1.21-.3,1.67.39,1.89,1.41C60.81,19.58,56.55,18.24,54.1,20Z"/><path class="cls-45" d="M17,40.84c.76-1.23,2.14-2.09,2.28-3.71l5.88-6c2.15,2.62,2.51-1.53,4.08-1.08a2,2,0,0,1,.41,1.44c-2.18,4.28-5.88,7.34-9,10.82C19.25,43.89,16.74,45.06,17,40.84Z"/><path class="cls-46" d="M29.29,31.13c0-.36,0-.71,0-1.07l3.94-3c4,.12,4.3,4.48,7,6.1.12.83-.37,1.23-1.06,1.49-1.73.24-3.4-1-5.15-.19a1.85,1.85,0,0,1-1.2-.52C33,31.31,31,31.34,29.29,31.13Z"/><path class="cls-47" d="M56.29,13.14l-1-.11c2.66-3,6.73-2.41,9.93-4l0,3c-.87,1.1-1.2,2.63-2.65,3.24A1.33,1.33,0,0,1,61.18,15c-.34-.66-.68-.75-1,0C58.58,15,58.48,11.93,56.29,13.14Z"/><path class="cls-43" d="M47.11,17l0,1c-.69,3.32-3,3.8-5.8,3.22L41,20.79A13.59,13.59,0,0,1,47.11,17Z"/><path class="cls-48" d="M166.18,60l4.94-1c4.58.51,4.15,4.47,4.91,7.42.53,2,0,4-2.7,4.31-1.9-.26-2.9-1.71-4-3-1-1.16-.79.88-1.49.57-2.53-1.36-2.26-4.81-4.69-6.24C163.11,59.75,164.73,60,166.18,60Z"/><path class="cls-23" d="M180.17,76l0,2c.9,1.37.32,2.91.47,4.36-2.58,2-4.93-1.47-7.47-.33-1.89-2.14-1.27-4.63-1-7.07.74-3.21,2.26-5.48,6.06-5l1,0A7.08,7.08,0,0,1,180.17,76Z"/><path class="cls-49" d="M178.17,70c-1.61,1.42-4.61,1.11-5,4a3.26,3.26,0,0,1-1-4c2,.16,3.37-.66,2.9-2.82-.65-3-.93-6.27-3.94-8.16,1.09-2.36,2.21-4.11,3.86-.35A42.91,42.91,0,0,1,178.17,70Z"/><path class="cls-50" d="M172.84,48.24l.33,2.79L171.11,53c-1,.49-1.69,0-2.36-.68-.68-.85-1.1-1.87-1.72-2.76-.9-1.81-3.45-1.9-4.13-3.93,1.84-2.68,4.08-1.06,6.21-.57Z"/><path class="cls-51" d="M169.44,51.93l1.67,1c-.8,2.73-2.74,4.49-5.05,6-1.14,1.23-2.93,1.33-4.17,2.4a3.19,3.19,0,0,1-3.06-2.66,5.1,5.1,0,0,1,4.24-3.5C165.57,54.69,167.3,53,169.44,51.93Z"/><path class="cls-52" d="M180.17,76c-.41-2-1.37-3.88-1-6l.87-.92c.4.9,1.65,1.4,1.21,2.67L181.14,76h-.49Z"/><path class="cls-53" d="M162.17,60.92c.74-1.75,2.28-2,3.89-2l.12,1-3,2-.55.24C162.11,61.93,161.64,61.62,162.17,60.92Z"/><path class="cls-54" d="M166.11,144.17a24,24,0,0,1-6,7.78c-2.29.15-3.94,2-6.22,2.26-1,.1-2,.54-2.76-.32-.91-1-.46-2.18.11-3.21a20.77,20.77,0,0,1,2.41-3.12c1.11-1.36,2-2.72.41-4.33-.6-1.88.62-3,1.69-4.28a2,2,0,0,1,1.32-.29,4.43,4.43,0,0,1,1.12.76c2.19,2.29,5.47,2.62,8,4.39Z"/><path class="cls-55" d="M154.16,143c2.81,0,3.78,1,1.93,3.5-1.58,2.17-3.9,3.85-5,7.14,3.42-.34,6-2.86,9-1.68-1.66.6-1.86,3.14-4,3a5.69,5.69,0,0,1-2.73,1.1c-1.69,0-3.56-.3-3.82-2.14-.36-2.46-2.26-1-3.25-1.74C147,147.48,150.4,145.1,154.16,143Z"/><path class="cls-56" d="M153.23,155.05l2.82-.06c-1.27,4.23-5.57,5.66-8.06,8.76-.75.5-1.36.17-2-.29a3.62,3.62,0,0,1-.73-1.26,5.42,5.42,0,0,1,.43-4.19C148.11,156.74,151.48,158,153.23,155.05Z"/><path class="cls-57" d="M146.31,163.12l1.68.63,1.51,1.38a3.64,3.64,0,0,1-2.41,1.72l-1.26-1.1A1.84,1.84,0,0,1,146.31,163.12Z"/><path class="cls-58" d="M146.31,163.12l-.48,2.63-7.61,4.36c-2.93.5-4.84-.55-5.45-3.58,1-2.09,2.87-.88,4.36-1.06.41-.22.73-.57,1.11-.82-.61-.1-.83.66-1.43.64-2-.79-2.11-2.84-3-4.4.77-2.49,2.87-2.86,5-3.17.51.17.47.91,1,1l-.93-1.07c.5-2.17,2.34-2.83,4-3.66,1.95-.48,4-1.07,4.35,1.94-2.28,2-4.88,3.95-1.22,7Z"/><path class="cls-59" d="M133.13,166c.89,2.37,3.21,3,5.09,4.12L131.16,174l-7,3c-1.89,0-1-1.21-.64-1.86a3.14,3.14,0,0,0-.29-4,4.91,4.91,0,0,1-.8-4.18,2,2,0,0,1,2.28-1.36c1.16,1.31,2.13,3,4.26,1.19a4,4,0,0,1,3.62-1.18Z"/><path class="cls-60" d="M124.15,171c4.45,2-.48,4,0,6,0,.3,0,.6-.07.9-1.48,1-3,2-4.92,1.47a6.67,6.67,0,0,1-2.21-4.09c-.21-1.33-.61-2.68.27-4C119.43,169.23,121.76,169.48,124.15,171Z"/><path class="cls-61" d="M119.12,178.9l4.95-1,1,1c-3.82,1.56-7.65,3.08-11.87,3.17-1.27.72-2.6.44-3.93.25-.8-2,.91-2.1,2-2.38,1.85-.48,3.71-.94,5.55-1.51A2.82,2.82,0,0,1,119.12,178.9Z"/><path class="cls-62" d="M29.29,31.13c2,.14,2.74-2,4.79-2.6l-1,5.42c.88,2-.94,2.9-1.83,4.14-1.81,2.56-3.86,5-3.25,8.48.07,2-.48,3.48-2.64,3.92a2.59,2.59,0,0,1-2.21-1.68c-3.1-2.61-5.9-2.24-8,1.1-.94,1.5-1.11,3.54-3,4.39-.53,0-.8-.21-.77-.75a1.94,1.94,0,0,1-.2-.7c-.31-4.79,4.16-7.55,5-11.85l.87-.16c.74,4.15,2.67,1.47,3.36.3C22.74,37.2,26.47,34.58,29.29,31.13Z"/><path class="cls-63" d="M4.16,78c1-4.26,2.06-8.51,3-12.79a8.37,8.37,0,0,1,2-4.38l.53.45c1.36,2.67.21,5.17-.67,7.59-1,2.82-.73,5.1,1.78,6.93.81,1.76,2.18,3.62-.8,4.75a3,3,0,0,1-1.89-.76,4.48,4.48,0,0,0-2.83-1.16A2.06,2.06,0,0,1,4.16,78Z"/><path class="cls-64" d="M4.16,78l1,0A3.19,3.19,0,0,1,6,80.87c-.63,1.93-.28,4.1-1.39,5.92A1,1,0,0,1,3.23,87l-.1-2.1A10.53,10.53,0,0,1,3.22,78C3.53,78,3.85,78,4.16,78Z"/><path class="cls-65" d="M11.37,53.55l.79.43c1.5,1.68.57,3.38,0,5.09-.6,1.2-1.33,2.25-2.9,2.14l-.19-.4Q10.25,57.18,11.37,53.55Z"/><path class="cls-66" d="M3.22,78l-.09,6.92C1.64,83.81,2.57,82,2,80.65c.1-.88.19-1.76.29-2.64C2.57,78,2.9,78,3.22,78Z"/><path class="cls-67" d="M3.23,87l.86-.1a3,3,0,0,1,1,1.35c.87,4.74.2,9.54.5,14.3,0,.82.21,1.62.3,2.43A4.44,4.44,0,0,1,4,109.29a1.12,1.12,0,0,1-1.29-.72c.08-1.86-.53-3.77.41-5.57Q3.19,95,3.23,87Z"/><path class="cls-68" d="M2.17,87.26c0,3.45,0,6.89,0,10.33a3.93,3.93,0,0,1-.7,2.38,23.75,23.75,0,0,1-.23-2.37c0-3.46,0-6.91,0-10.37Z"/><path class="cls-52" d="M3.16,103v6c-.35.41-.66.36-.93-.09L2,106.29C2.52,105.24,2,103.82,3.16,103Z"/><path class="cls-69" d="M117.2,179c-2,2.89-5.77.95-8.15,2.87-1.55,1-3.16.66-4.77.17s-2.71,1.35-4.15.61c-1.32-1.45,3-3.75-.88-4.67-1.15-1.81,0-2.46,1.47-3a38.23,38.23,0,0,0,9.19-.73C113.41,173.41,116.34,175,117.2,179Z"/><path class="cls-70" d="M86.14,184.78l1-1.92a8.7,8.7,0,0,1-1.8-6.67,2.22,2.22,0,0,1,2.16-1.76c1.72.3,2.25,1.57,2.37,3.08.1,1.33.33,2.51,1.83,2.94,2.44.42,3.14-2.52,5.25-2.72,1.08.38.64,1.6,1.23,2.24-.86,1.63-2,2.87-4,3-1.46.62-3.36.44-4.11,2.31Z"/><path class="cls-71" d="M98.15,180c-.91-.38-.85-1.26-1-2a2.92,2.92,0,0,1-1.28-3c1.11-1.72,3.17-1.63,4.74-2.47,3.06.71,1.57,2.11.53,3.45-1.28.11-2,.73-1.87,2.08Z"/><path class="cls-72" d="M90,185.28c.26-2.75,2.34-2.25,4.11-2.31l-2.56,2H96.2A5.39,5.39,0,0,1,90,185.28Z"/><path class="cls-73" d="M104.28,182.07l4.77-.17,4.17.12c-.91,1.74-2.54.78-3.84,1C107.71,182.54,105.72,183.76,104.28,182.07Z"/><path class="cls-74" d="M16.09,131.94c-2.3,1-2.16,2.73-1,4.34a7.71,7.71,0,0,1,1,7.89c-2.84-2.47-3.15-6.34-5.1-9.31-.27-2-1.55-3.75-1.05-5.85a1.57,1.57,0,0,1,.53,0c1.26-1.21,2.44.85,3.69.08,2.69-1.44,5.37-3.08,8.18-.25-.35,2.77-2.6,2.08-4.32,2.38A4,4,0,0,0,16.09,131.94Z"/><path class="cls-75" d="M9.91,129c.74,1.88,2,3.67,1.05,5.85A4.87,4.87,0,0,1,9.17,132C9.34,131,9,129.83,9.91,129Z"/><path class="cls-76" d="M180.13,83c0-1.68,0-3.35,0-5,1.87,2.11.6,4.68,1,7l0,15c-.92,1.32-.39,2.81-.47,4.21-.13,2.08-.93,3.38-3.21,3.33a4.13,4.13,0,0,1-2.76-1.69c-.87-2.58-.1-4.85,1.29-7,2.1.17,2.44-1,2.69-2.86C179.23,91.68,177.51,87.07,180.13,83Z"/><path class="cls-23" d="M182.23,76.93c1.79,2.14.6,4.68.93,7C181.26,81.81,182.45,79.28,182.23,76.93Z"/><path class="cls-77" d="M177.24,106.85c4.83-.26,1.56-5.13,3.87-6.82-.21,3.38.49,6.84-.82,10.13.36,1.27.79,2.55-.3,3.71l-2.94,8.94c-4.18-.82-7.18,1.54-10.23,3.78a2.23,2.23,0,0,1-2-.67,8.22,8.22,0,0,1,2.72-7.18c1.45,0,1.88,1,2.11,2.09.19-3.28.06-6.75,2.62-9.49a3,3,0,0,1,1.07-.73c1.05-.3,2.41.31,3.11-1a15.59,15.59,0,0,0,.4-2.25Z"/><path class="cls-78" d="M180,113.87l.3-3.72c1.57,1.46.41,3.42.94,5.07l-.27,1.63C179.83,116.12,180.25,114.88,180,113.87Z"/><path class="cls-79" d="M14.11,131c-2.69,2.14-1.54-3-3.67-1.94a69.52,69.52,0,0,1-5.31-16,1,1,0,0,1,0-1.38c3.11-2.89,5.8-2,8.15,1,1,1.27,1.69,2.76,3.12,3.63A9.56,9.56,0,0,1,19,120.53a11.74,11.74,0,0,0,2.45,5.39,1.74,1.74,0,0,1-.22,1.28C18.84,128.4,14.92,126.72,14.11,131Z"/><path class="cls-80" d="M5.29,112.07a2.19,2.19,0,0,1-.16.91l-.89,0c-.18-.72.23-1.66-.85-2.15-.11.85-.22,1.66-.33,2.46L2.21,113c0-1.36,0-2.72,0-4.07a2.94,2.94,0,0,0,.93.09l1,0C6.5,109.27,5.77,110.72,5.29,112.07Z"/><path class="cls-81" d="M173.93,135.79,173,137h-1a3.62,3.62,0,0,1-.91-2.84,7.5,7.5,0,0,1,1.22-3.52c1.49-1.37.95-4.44,3.85-4.63.4.43.79.86,1.19,1.28A32.68,32.68,0,0,1,173.93,135.79Z"/><path class="cls-82" d="M176.13,126c-.95,1.68-1.91,3.35-2.87,5-1.82-.29-3.11-1.69-4.8-2.26a3.76,3.76,0,0,1-1.49-1.36,1.27,1.27,0,0,1,.12-1.26c2.65-3.12,5-7.05,10-3.31C176.74,123.86,176.44,124.92,176.13,126Z"/><path class="cls-83" d="M169.11,45c-1.69,2.12-4.33-1.49-6,1a4,4,0,0,1-1.51,3c-1.73,1.47-2.95,3.78-5.75,3.49-2.68-1.65-.49-3.34-.06-5,.89-1.77,1.66-3.68,4.13-3.67a13.78,13.78,0,0,1,6.2-.82l2.06,0A1.78,1.78,0,0,1,169.11,45Z"/><path class="cls-84" d="M86.11,176c.33,2.3.67,4.6,1,6.9l-1.86-.14a5.73,5.73,0,0,1-1.23-3.6C84.43,177.87,83.74,175.91,86.11,176Z"/><path class="cls-85" d="M172,133.9c0,1,0,2,0,3.06l-1.63,1.15a3.09,3.09,0,0,1-1.74-.52,2.21,2.21,0,0,1-.9-1.56c.16-1.19-.48-2.56.79-3.5C170,132.07,171,132.85,172,133.9Z"/><path class="cls-86" d="M168.76,137l1.58,1.1c-.08.95-.17,1.9-.26,2.85l-1.91,0c-1.18.77-2.3.92-3.29-.31a1.84,1.84,0,0,1,.35-2C166.23,137.81,167.59,137.6,168.76,137Z"/><path class="cls-87" d="M165.08,139.86c.7,1.27,1.95,1.07,3.09,1.15-.67.93-1.35,1.86-2,2.8-3.82.68-6.41-1.37-8.79-3.91,1.28-1.52-.62-3.39.56-4.91.88-.59,1.63-.16,2.38.31,1.09.9,1.77,2.23,3,3A6.68,6.68,0,0,1,165.08,139.86Z"/><path class="cls-88" d="M88,7.89l3-3c5.35,1.21,6.56,3,5.06,7.18-.4,1.14-1.82,2.62-.1,3.4,1.4.64,2.2-1.06,2.92-2.15a9.92,9.92,0,0,0,.63-1.43c1,1,.38,2.16.43,3.18a3.57,3.57,0,0,1-1,2.05c-.52.62-1.12,1.17-1.66,1.78-1.17,2-.77,4.22-.78,6.35-.07,15.14,0,30.27-.06,45.4a5.42,5.42,0,0,1-1,3.29c-5.37.82-4.5-3.54-4.45-6.16.08-4-.24-7.92-.24-11.87,0-9.27-.6-18.54.54-27.8.61-4.92-1-9.86-.69-14.86.11-1.65-1.08,0-1.66-.18C86.34,11.79,87.31,9.82,88,7.89Z"/><path class="cls-89" d="M141.09,30c3.69,3.63,7.87,6.76,11.08,10.87,3.12,1.38,5.3,3.3,4.17,7.15-4.14,1.39-4.78-2.71-6.94-4.42a77.79,77.79,0,0,0-39.74-24.41c-1.12-.29-2.32-.46-2.74-1.82.56-1.57,2.22-.43,3.08-1.26l1.08-.07c2.49,1.35,5.33,1.3,8,2,7.08,1.16,13.12,4.51,18.69,8.85a21.11,21.11,0,0,1,3,2.54Z"/><path class="cls-90" d="M110,16.15c-.76,1.06-2,.74-3,1-3,1.65-5.79,2.27-7.84-1.39l.83-.66Z"/><path class="cls-91" d="M102.2,9.93l-1-2c0-.3-.09-.6-.14-.9.3-2.49,1.88-1.4,3.16-1.13h0c1,1,3.79.65,3,3C106.26,11.62,104,10.29,102.2,9.93Z"/><path class="cls-92" d="M104.21,5.93c-1.16.09-2.42-.12-3.16,1.13-1.53-3,1.17-1.79,2.21-2.23a5.93,5.93,0,0,0,.85.24C104.14,5.36,104.18,5.64,104.21,5.93Z"/><path class="cls-26" d="M77.15,11.94,87.09,6c-.31.67-.61,1.35-.91,2,0,.23.07.46.1.69.07,2.09.37,4.21-.78,6.15a1.44,1.44,0,0,1-1.87,0c-1.28-1.44-3-1.63-4.78-1.82A2.6,2.6,0,0,1,77.15,11.94Z"/><path class="cls-93" d="M88,7.89a8.81,8.81,0,0,1,.29,4.93l-.69.38C84.88,12.1,85.5,10.07,86.18,8h0Z"/><path class="cls-94" d="M29.14,141a2.74,2.74,0,0,1,0-3c5.07,2.12,7.61,6.94,11.27,10.57,11.65,10.15,24.81,17.08,40.33,19,1.48.18,3,.16,4.33,1a2.44,2.44,0,0,1,.74,1.37c0,1.12-.14,2.2-1.69,2.11C68.41,170.6,54.51,164.57,42,155c-3.74-1-5.87-4.09-8.52-6.51C31.73,146.21,28.87,144.52,29.14,141Z"/><path class="cls-95" d="M34.2,147.88,42,155c-1.17.12-1.69.46-1.35,1.9.48,2.09.31,2.13-2.56,3a25.37,25.37,0,0,1-1.86-1.88A2.43,2.43,0,0,1,34.16,157c0-.33,0-.66,0-1,1-1.08.74-1.94-.27-2.94C32.12,151.28,32.61,149.51,34.2,147.88Z"/><path class="cls-96" d="M84.15,172.05l1.14-1.79a1.76,1.76,0,0,1,2-.85c1.9.84,2,2.42,1.63,4.14a2.22,2.22,0,0,1-1,1.22L86.11,176c-.7,1-1.4,2.1-2.09,3.16l-1-1.12C83.24,176,82.87,173.87,84.15,172.05Z"/><path class="cls-97" d="M36.27,158.05c1.21,0,1.9.6,1.86,1.88l-3.81-.17Z"/><path class="cls-98" d="M44.14,125c.74-2.52,4.3-1.47,5-4,3.53-2.88,7.29-5.31,11.92-6,1.93,4.26,4.84,8.54,8.24,10.87,4.18,2.88,9,7.59,15.44,4.36a3.13,3.13,0,0,1,4,1.13c1.07,2.71.66,5.51.49,8.29a8.75,8.75,0,0,1-.34,1.43c-2.1,3.78-6.4,5.46-9.3,2.9-2.24-2-4.46-2.36-7.1-2.75-5.76-.84-10.43-4.29-14.9-7.57S50,125.74,44.14,125Z"/><path class="cls-99" d="M44.14,125c6-2,8.34,3.08,12.12,5.88,5.88,4.35,11.56,9.79,19.78,9.2,1.84-.14,1.9,1.41,2.75,2.14,3.16,2.7,6.9,2.29,9.36-1.21,2.13,2.84,1.22,6,1,9.11a3.18,3.18,0,0,1-3,2.9,9,9,0,0,1-4.46-.14c-8.39-2.92-17.4-4.51-24.14-11.06a7.82,7.82,0,0,0-4.8-2.38c-5-.5-11.18-6.57-12-11.59-.05-.3.21-.61.43-.87A3.09,3.09,0,0,1,44.14,125Z"/><path class="cls-100" d="M41.14,127c1.72,4.47,5.11,7.64,8.4,10.89,1.91,1.89,4.26-2,6.53.91,2,2.62,5.37,4.24,8.08,6.37,1.68,1.32,3.1,3.9,5.34.67.32-.46.94-.59,1.2,0,2.37,5.3,7.77,4.7,12,6,3.79,1.17,6.06-.35,5.45-4.83a46,46,0,0,1,0-6h0c2.6.25,2,2.39,2.35,4a82.63,82.63,0,0,1-.23,9.83c-.69,4.19-3,5.17-7.13,4.44-13.58-2.4-24.65-9.2-34.43-18.46.46.35,0-.45.13-.3,1.79,2.73,2.93,4.94-2.12,3.56a5.38,5.38,0,0,1-1.17-.77c-3.08-4.7-8.34-7.71-10.38-13.23Z"/><path class="cls-101" d="M85.12,169c-11.71-.62-22.54-3.64-32.47-10.29C48,155.6,42.89,153.3,39.17,149c-.27-3.26-3.22-4.62-4.9-6.87-2.05-2.76-4.37-5.32-4.11-9.1l1,0c2.76-.53,3.45,1.89,4.73,3.38,1.78,2.09,3.32,4.38,5.08,6.49a77.6,77.6,0,0,0,25.9,19,59.44,59.44,0,0,0,15.18,4.77C83.33,166.86,85.28,166.7,85.12,169Z"/><path class="cls-102" d="M40.15,143c-4-2.42-5-7.59-9-10l4-3c3.73,4.26,8.29,7.82,11,13-.45,1.34.24,3.7-1.37,3.87C42.46,147.09,41.51,144.54,40.15,143Z"/><path class="cls-103" d="M21.47,126.82a3.34,3.34,0,0,1-.31-.87c2.14-2.14,4.33.49,6.47-.08a40.67,40.67,0,0,1,5.08-2.52c1.62-.61,2.79-1.9,4.24-2.77a3,3,0,0,1,1.3-.21,2.07,2.07,0,0,1,1.14.66c.35,1.3-.39,2.15-1.23,3-4.64,5-11.31,6.62-16.87,10.07a1.7,1.7,0,0,1-2.42-.33c.54-1.59-.48-2.22-1.69-2.74,1.21-2,3.9.09,5.12-1.87C22.16,128.3,21.54,127.66,21.47,126.82Z"/><path class="cls-35" d="M34.2,147.88c.22,1.94-1.51,4,1.87,5.58,2.12,1-1.31,1.53-1.9,2.52l-7-11L24,143.88c1.61-1.12,2.61-3.34,5.11-2.87Z"/><path class="cls-104" d="M38.16,124l1-3a14.58,14.58,0,0,1,9.15-6.07c1.34,0,2.59.25,3.24,1.64a2.85,2.85,0,0,1-1.71,3.07c-1.55.57-3.29.45-4.76,1.32C42.84,122.07,41.07,124.32,38.16,124Z"/><path class="cls-105" d="M49.17,119l2.08-2a4.55,4.55,0,0,1,.92-.94,27.79,27.79,0,0,0,3.71-2.6c1.33-.76,2.7-1.43,4.09-2.06a4.59,4.59,0,0,1,1.33-.24c3.29.75,2.14,2.18.55,3.68l-.65.2c-3.89,2.22-7.63,4.71-12,5.92h-1C47.53,119.83,48.58,119.55,49.17,119Z"/><path class="cls-102" d="M30.16,133c2.13,5.28,5.67,9.6,9.34,13.83.69.8,2.15,1.8-.33,2.14l-10-11,0-.06a2.21,2.21,0,0,1,0-3A2,2,0,0,1,30.16,133Z"/><path class="cls-106" d="M26.14,139c-1.4.55-2.26,2.52-4.52,1.56L25.15,136c.71-.53,1.57-.65,2,.14C27.71,137.24,26.64,138.06,26.14,139Z"/><path class="cls-107" d="M26.14,139c-.3-1,1.7-2.78-1-3,.81-2.35,2.58-1,4-1,0,1,0,2,0,3Z"/><path class="cls-108" d="M19.15,133c.45.88,1.28,1,2.14,1.09-1.23,1-2.65,2.54-4.17,1.54-1-.68.15-1.91,1.07-2.59C18.5,132.58,18.82,132.57,19.15,133Z"/><path class="cls-109" d="M49.17,119l-1,1.94-3.08,0A6,6,0,0,1,49.17,119Z"/><path class="cls-110" d="M19.15,133c-.32,0-.64,0-1,0-.41-.94-1.28-.95-2.1-1.06l1.09-1C18.4,131.08,20.29,130.51,19.15,133Z"/><path class="cls-111" d="M61.16,175c-.88-1.29.21-1.69,1-1.91,1.46-.38,1.92.58,2,1.85A2.32,2.32,0,0,1,61.16,175Z"/><path class="cls-31" d="M61.16,175l3-.06c0,.66,0,1.33,0,2h0A3.05,3.05,0,0,1,61.16,175Z"/><path class="cls-112" d="M138.12,28.05c-6-4-12.6-6.83-19.05-10,.64-.21,2.11-.54,1.11-1.2-3.81-2.52.8-1.91.95-2.88h0c2.31-.29,1.7,3.29,4,3,2.16-.86,3.7.71,5.46,1.41,3.26,2.33,7.87,3.32,8.36,8.41A2.37,2.37,0,0,1,138.12,28.05Z"/><path class="cls-92" d="M102.2,9.93c1.23-1.18,3.56,1,4.26-1.19.51-1.59-1.9-1.51-2.26-2.8,4,0,7.44,2.3,11.33,2.83a2.26,2.26,0,0,1,2.07,2.8c-.33,2.63-1.95,1-2.92.93C110.43,12.14,105.86,13.17,102.2,9.93Z"/><path class="cls-113" d="M130.13,19l-5-2c.47-1.74-1.26-4.35,2-5l10,6c-1.19.72-1,1.9-1,3A52.81,52.81,0,0,0,130.13,19Z"/><path class="cls-114" d="M121.13,14c-.69-.36-1.72-.73-1.19-1.65a1.43,1.43,0,0,1,2.15-.12c.7.86-.8,1.06-1,1.77Z"/><path class="cls-115" d="M156.09,47.89c.54-3.36-2.94-4.47-3.92-7,.36-3-1-4.87-3.65-6.35-2.27-1.29-3-2.94.58-3.58,1.45,5.3,7.38,6.71,9.76,11.21a15.53,15.53,0,0,0,1.1,1.59c-1.32,1.07-2.78,2-3,3.93C156.79,48.33,156.49,48.36,156.09,47.89Z"/><path class="cls-40" d="M130.13,19c2.53-.95,4.89-1.36,6,2l3,2a2.79,2.79,0,0,1,2,3l2,2a1.9,1.9,0,0,1-2.06,2h0c-.92-1.08-2-2-3-3.05.11-3.46-2.89-4.36-5-5.77C132.06,20.53,130.7,20.34,130.13,19Z"/><path class="cls-116" d="M145.07,28c1-1.55,2.54-1,4-.9C148.06,29,146.83,29.68,145.07,28Z"/><path class="cls-117" d="M141.14,26l-2-3c-.08-1.12-.17-2.24-.28-3.71,3,.71,4,3.1,4.56,5.43C143.66,25.65,142.13,25.92,141.14,26Z"/><path class="cls-118" d="M77.15,11.94l2,.11c2.87,2.58-.36,2.55-1.46,3.44a7.28,7.28,0,0,1-1.3.41,14.89,14.89,0,0,0-5.8,2,5.63,5.63,0,0,1-1.52.26c-1.84-.32-4.1-.28-2.89-3.28C69.46,12.37,73.76,13.9,77.15,11.94Z"/><path class="cls-119" d="M62.16,15c.76-1.22,1.5-2.47,3-3,.07.58.13,1.16.2,1.74.62,1.85-.09,3.21-1.57,4.3a1.94,1.94,0,0,1-1.38.12A2.17,2.17,0,0,1,62.16,15Z"/><path class="cls-120" d="M63.15,18c.71-1.43,2.14-2.47,2.19-4.24.29.36.58.71.86,1.07.17,2.92,2.48,1.93,4.09,2.23-.2,2-1.79,1.92-3.17,2.18C65.66,19.26,64.22,19.21,63.15,18Z"/><path class="cls-121" d="M67.17,18c1.12,0,2.26,0,3.11-1a1.88,1.88,0,0,0,.88-.08,7.44,7.44,0,0,1,4-1.26c1.35.49,3-.08,4.12,1.22-.11,2.46-2.19,2.13-3.66,2.45C58.26,23.21,44.28,32.44,33,46c-1,1.16-1.89,2.37-3.64,2.26a2.24,2.24,0,0,1-.95-1.89C30,42.06,33.27,39,36.29,35.76c.84-.84,2-1.07,3-1.67l.95-1,11.91-8.18C56.06,20.26,61.76,19.46,67.17,18Z"/><path class="cls-122" d="M41.33,21.2,47.13,18c2,.09,4.77-.54,3.11,3.17L41,28.3C38.57,25.77,38.25,23.39,41.33,21.2Z"/><path class="cls-123" d="M67.17,18l-15,6.92c0-2.28,2.3-3.12,3.06-4.92,2-3.12,5.28-1.46,8-2h4Z"/><path class="cls-120" d="M63.16,18c-2.28,2.15-5.66,0-8,2L54.1,20c1.13-3.41,6-1.42,7.08-4.93.32,0,.65,0,1,0C62.2,16.11,62,17.29,63.16,18Z"/><path class="cls-124" d="M56.29,13.14c2.35-1.54,2.89.6,3.86,1.89C57.67,16.82,56.26,16.46,56.29,13.14Z"/><path class="cls-125" d="M37.21,36,29,46a1.28,1.28,0,0,1-.9.61,1.73,1.73,0,0,1-1-.49c-1.7-3.73,1.48-5.78,2.95-8.38a28.1,28.1,0,0,1,3-3.74l1,0C36.41,32.77,36.8,34.41,37.21,36Z"/><path class="cls-126" d="M37.21,36c-1.07-.63-1.51-2.2-3.09-2.06,1.8-3.73,3.43.34,5.15.12Z"/><path class="cls-127" d="M176.15,99l-1,7c-2.3,0-2.17-1.86-2-3.13.37-2.52-.83-4.4-1.9-6.4-1-7.2-1.12-14.5-2.86-21.58a13.68,13.68,0,0,1-.47-1.54c-.26-1.78-1.33-3.6.19-5.32.17-.88-.29-2,1.17-2.89-.31,2.52,2.82,2.57,2.87,4.85a7.08,7.08,0,0,1,1,4c.42,2.66-1,5.54,1,8a3.5,3.5,0,0,1,2.27,3C176.31,89.64,177.37,94.33,176.15,99Z"/><path class="cls-128" d="M168.12,68c.33,1.66.67,3.33,1,5-.91.87.35,2.72-1.43,3.2-3.46-4.14-4.72-9-4.63-14.27l.16,0C167.8,61.6,166.21,66.22,168.12,68Z"/><path class="cls-129" d="M176.15,99a20.79,20.79,0,0,1-.94-9.57A14.07,14.07,0,0,0,174.13,82c2.58-3.19,4.17-.36,6,1-.25,5,.47,10-.46,14.92C179.12,100.86,177.85,100.36,176.15,99Z"/><path class="cls-130" d="M177.68,78c0,1-.47,1.67-1.11,1.54-.47-.09-.9-.8-1.15-1.33-.07-.16.56-.93.8-.9A4.93,4.93,0,0,1,177.68,78Z"/><path class="cls-131" d="M169.44,51.93c-.67,2.46-2,4.18-4.81,4.14-2.36,0-3.92,1.55-5.63,2.83-.25,1.58-1.61,2.07-2.74,2.8a43,43,0,0,0-6.84,3.86,28.36,28.36,0,0,0-6.5,4.23,6.73,6.73,0,0,1-1.64,1.1,28.89,28.89,0,0,0-7,3.75,49.11,49.11,0,0,0-7,4,69.12,69.12,0,0,0-8.91,4.94,26.23,26.23,0,0,1-3.17,1.5c-2.4.9-4.83,2.93-7.16-.12.93-4.78,5.9-4.31,8.67-6.7,4.34-2.71,8.8-5.25,13.15-8,5.66-2.3,10.22-6.53,15.8-9A46.17,46.17,0,0,0,150,59.19c4.74-3.52,10.18-5.89,15-9.22,1-.32,1.76-1.42,3-.9C168.5,50,169,51,169.44,51.93Z"/><path class="cls-132" d="M168,49.07l-2,1.85c-1-1.12-2.09-.11-3.12-.23-1.57-.17-3-.58-1.79-2.69l2-2C165.2,46.35,167.19,46.79,168,49.07Z"/><path class="cls-133" d="M156,60.89l3-2,3.17,2c.3.34.59.68.89,1L168,76.17a3.08,3.08,0,0,1,1.17,2.31c1.78,7.25,1.42,14.64,1.36,22a27.3,27.3,0,0,1-.38,5.11c-1.47,5.25-2.78,10.56-4.6,15.7-.69,1.93-1.66,4-3.73,5.1-4.13-.78-2-3.5-1.36-5.28,3-8.52,5-17.18,4.22-26.27-.57-6.4-.61-12.92-3.15-19C160.18,70.69,157.67,65.94,156,60.89Z"/><path class="cls-134" d="M157,139l-.45,0h-.45c-3.62,4.48-7.57,8.66-11.56,12.8-7.91,7.23-17.5,11.64-27,16.21-4.41.7-8.66,3-13.3,1.28a1.38,1.38,0,0,1-.24-1.43c4-2.94,9.22-2.34,13.34-4.86,14-4.25,24.83-12.88,33.87-24.09,1.11-1.38,2-3.16,4.07-3.39C157,136.11,157.83,137.15,157,139Z"/><path class="cls-135" d="M144.06,150.88c4.13-3.84,7.18-8.78,12-11.89.27,1.77-1.39,2.62-1.93,4l-7.92,9a1.93,1.93,0,0,1-1.31.4C144.22,152.15,143.68,151.77,144.06,150.88Z"/><path class="cls-136" d="M157,139l-1.83-3.1a.94.94,0,0,1,0-1.23,2.49,2.49,0,0,1,2-.35,1.41,1.41,0,0,1,.89,1c-.19,1.53,2.84,3.58-.73,4.58A7.46,7.46,0,0,1,157,139Z"/><path class="cls-137" d="M145.35,152.16l.89-.13c1.74-.32,4.35-3,4.16,1.73-.05,1.45,1.75,1.11,2.83,1.29-.76,4.64-3.83,3.93-7,3-1.09-1.23,1.39-1.12.82-2.17-.82-2.46-2.66-.75-4-1C142.67,153,143.92,152.53,145.35,152.16Z"/><path class="cls-138" d="M147.06,155.9c.36.3,2.84-1.5.95.92-.36.48-1.46.4-1.77,1.25,0,1.63-.07,3.26-.11,4.89-1.23,0-3.11,1.23-3-1.54S143.25,156,147.06,155.9Z"/><path class="cls-139" d="M145.35,152.16,143,154.91,139.19,158l0,0-4.84,3c.07,1.48-1.11,2-2.07,2.63-2.35.84-4.26,3.07-7.13,2.25l-2,1a4.32,4.32,0,0,1-3.78,1.79,2.53,2.53,0,0,1-2.14-1.74c1.75-2.29,4.62-2.34,7-3.4,7.26-3.29,13.57-8,19.88-12.72Z"/><path class="cls-140" d="M132.09,162.87l2.24-1.8c2.67.09,1.22,3.08,2.79,4,.25.19.35.38.29.6s-.13.33-.21.33c-1.34,1.13-2.72-.49-4.07,0l0,0C132,165.21,131,164.38,132.09,162.87Z"/><path class="cls-141" d="M139.19,158c1.59.2,3,.55,2,2.68-.36.78-1,1.48-1.87,1.06-2.16-1.06.26-2.48-.17-3.72Z"/><path class="cls-142" d="M137.2,166a5.84,5.84,0,0,1-.08-.93c.24-2,1.42-2.32,3.21-1.74C139.58,164.6,138.87,165.82,137.2,166Z"/><path class="cls-143" d="M132.09,162.87l1.06,3.09c-2.27.1-3.54,2.19-5.56,2.81-.88.27-1.72,1.14-2.67.26-1.19-1.09-.09-2.06.21-3.07Z"/><path class="cls-144" d="M119.22,168l3.92-1.06a6.62,6.62,0,0,0,1,4c-2.36.09-4.8-.41-7,1a3.24,3.24,0,0,1-1.07-.64c-.59-.59-1.37-1.1-1.14-2.13C116.06,167.62,117.93,168.85,119.22,168Z"/><path class="cls-145" d="M131.17,174c-.77-.15-1.73-.16-1.52-1.31,0-.26.83-.64,1.16-.56,1.31.33.44,1.2.35,1.87Z"/><path class="cls-146" d="M115.09,169.94a2.07,2.07,0,0,1,2,1.08c-3.08,2.16-1.06,3,1,3.91l1,4-1.92.13c-2.91-3.22-6-5.45-10.45-2.48-1.78,1.17-3.67-1-5.63-.62-.34-1,1.76-2.8-1.05-2.84-1-.16-1.36-.6-.68-1.51,2-1.35,4.56-.6,6.72-1.44a32.71,32.71,0,0,0,3.81-.45C111.66,169.5,113.44,168.45,115.09,169.94Z"/><path class="cls-147" d="M118.09,174.93c-2.42,1.25-3.89-.46-5.8-1.85a8,8,0,0,1,4.82-2.06c0,.32,0,.64.08,1Z"/><path class="cls-148" d="M28.13,46c.28,0,.57,0,.85,0,.07.68.13,1.35.2,2a3.05,3.05,0,0,1,1,1.68c.15.81.17,1.65.38,2.45.44,1.25,1.65,1.58,2.61,2.2a16.85,16.85,0,0,1,1.5,1c1,.73,2,1.35,3.07,2,1.21.83,2.56,1.4,3.82,2.15a73.88,73.88,0,0,0,7.31,4.24,20.54,20.54,0,0,1,4.74,2.89,3.81,3.81,0,0,1,1.32,2.59,2.35,2.35,0,0,1-1.57,2.35,2.54,2.54,0,0,1-1.94-.1c-8.49-5.8-18-9.9-26.53-15.61A3,3,0,0,1,24,54.76c.43-2-1.6-2.83-2.13-4.39a3.33,3.33,0,0,1,1.06-2.47.88.88,0,0,1,1.21.19c.33.67.66,1.35,1,2C28.7,50.66,27,47.28,28.13,46Z"/><path class="cls-149" d="M24.09,48.09,23,48.24a3.31,3.31,0,0,1-1.42.22c-1.86-.19-3.8-.08-4.66,1.75-1,2.1.28,3.69,2,4.89,1.07.9,3.31.72,3.24,2.53-.08,2.24-2.51,2.22-4,3.11-.93.55-1.66,1.47-2.85,1.51-1.23-.65-1.66-2.32-3.24-2.53a2.52,2.52,0,0,1-.94-.74c.32-1.67.65-3.33,1-5,1.53-4.14,2.61-8.64,8.56-8.37C22.57,45.69,24,45.88,24.09,48.09Z"/><path class="cls-149" d="M28.13,46c.1,5,.1,5-3,4.11,1.75-.81,2.11-2.31,2-4Z"/><path class="cls-150" d="M9.19,80c3.41-.5.6-2.53.94-3.79a2.4,2.4,0,0,1,1.21-1.86c1.43-.52,2.87-1.43,4.33,0,1.21,2.31.25,4.6,0,6.9s.18,4.81-1.71,6.7a2.78,2.78,0,0,1-1.42.63C6.89,87.43,9.26,83.23,9.19,80Z"/><path class="cls-151" d="M9.19,80c2.25,2.2-.92,6.41,3,8-.25,5.5-.31,11-1.5,16.43-.23,1-1.37,1.29-2.43,1.22a2,2,0,0,1-1.29-.84C6,97.24,9.33,89.66,6.78,82.11c-.37-1.49,0-2.65,1.54-3.2Z"/><path class="cls-152" d="M11.23,75.07l-1.1,1.12c-3.36-.88-4-2.86-2.86-6,1-2.87,2.19-5.77,2-8.94L11.19,59l1,0c.89,3-.39,5.7-1.13,8.46-.89,3.29-.95,3.28,1.59,2.9C13.58,72.37,12.94,73.89,11.23,75.07Z"/><path class="cls-153" d="M8.32,78.91c-.38,1-.75,2-1.12,3l-.46.43A1.76,1.76,0,0,1,5,82.11,1,1,0,0,1,5.11,81c0-1,0-2,.08-3C6.55,77.2,7.85,76.64,8.32,78.91Z"/><path class="cls-154" d="M5.11,81,5.26,82a5.17,5.17,0,0,1,.94,4.36,3.82,3.82,0,0,1-.59,1.41,1.09,1.09,0,0,1-1.36.31c0-.39-.11-.78-.16-1.17C4.48,85,3.39,82.71,5.11,81Z"/><path class="cls-155" d="M5.29,112.07c-.33-1,0-2.34-1.17-3.07.34-1.32.67-2.65,1-4a1.38,1.38,0,0,1,2-.06l.21.08c2.16,3.5,7,4,8.83,7.88.72,1.35,1.25,2.71.05,4.08-2,.06-2.79-1.34-3.47-2.89C11.11,110.36,8.5,110.09,5.29,112.07Z"/><path class="cls-156" d="M7.12,105l-2,.06-.78-1.09c1.83-1.52,1-3.49,1.09-5.38.16-2.37-.76-4.87.65-7.12a5.76,5.76,0,0,0,.75-3.85c0-1.85-1.23-3.77.28-5.55L7.2,82c4,2.16,1.85,5.9,1.76,8.74-.12,3.71-1.45,7.36,0,11.11C9.57,103.5,7.8,104,7.12,105Z"/><path class="cls-157" d="M7.17,92A10.81,10.81,0,0,0,7,100.2c1.12,3.09-.49,3.37-2.61,3.73L4.25,88.1a5.26,5.26,0,0,1,.88-.17C6.34,89,7.51,90.11,7.17,92Z"/><path class="cls-158" d="M96.41,174.86l.72,3.09c-1.65,1.78-2.62,4.58-5.89,3.91a3.56,3.56,0,0,1,0-2.7,13.14,13.14,0,0,1,.39-1.36c.65-2.79-.36-5.77,1-8.48,2.56-1.11,2.27,1.27,3,2.43.3.59.59,1.2.84,1.82A2.18,2.18,0,0,1,96.41,174.86Z"/><path class="cls-159" d="M92.09,179.86c-.29.67-.57,1.33-.85,2-4.22-.91-1.63-5-3.3-7.09l.18-.83a1.8,1.8,0,0,1,2.07-.26C92,175.38,91,177.93,92.09,179.86Z"/><path class="cls-160" d="M96.41,174.86l-.28-1.06c-1-1.78-1.56-3.52.31-5.13a2.51,2.51,0,0,1,2.9.88,2.16,2.16,0,0,1,.09,2.27l.64,1.27C100,176.11,97.3,173.59,96.41,174.86Z"/><path class="cls-161" d="M21.47,126.82c1.77.22,2.2.92.83,2.29-3.1-1-6-1.1-8.19,1.84-1.67-2.15.25-2.55,1.57-2.94C17.57,127.46,19.54,127.2,21.47,126.82Z"/><path class="cls-77" d="M172.22,97c2,1.11,3.22,2.41,2.12,5a3.19,3.19,0,0,0,.8,4l2.1.87-.1.13a4.7,4.7,0,0,1-1.89,1.5c-1.08.47-1.23,1.71-2,2.43l-.16.11a9.87,9.87,0,0,0-2.65,4.49c-.36,1.24-1.14,2.44-2.73,1.08-.61-3.34,1.34-6.24,1.58-9.44a14.53,14.53,0,0,1,.52-1.44C170.72,102.85,169.22,99.32,172.22,97Z"/><path class="cls-162" d="M162.15,75c4.07,5.57,3.16,12.27,3.88,18.51,1.17,10.18-.89,20-4.87,29.47-.61,1.43-1.55,3,1.28,2.81a1.78,1.78,0,0,1,2.45.1l2.2.25a5.34,5.34,0,0,1,0,.69c-1.76,2.11-4.44,1.26-6.62,2.05a5.83,5.83,0,0,1-3.73-1.07c-1.15-1.44-4.18-1.31-3.58-4.24,4.22-5.45,5.09-12.08,6.5-18.5.32-1.45.22-3,.56-4.44a22.13,22.13,0,0,0,.2-10.29C159.18,84.9,160.47,80,162.15,75Z"/><path class="cls-163" d="M164.89,125.87l-2.45-.1,6.57-20c.64.13.73.79,1.11,1.17l-1.92,10a1.21,1.21,0,0,1-.21,1.86Q166.45,122.37,164.89,125.87Z"/><path class="cls-156" d="M168,118.86l.21-1.86c2.09-.9,2.08-3.06,2.69-4.77.46-1.27.76-2,2.19-1.21-.86,2.63-2.36,5-2.19,8,0,.63-.19,2.26-1.56,1.87C168.74,120.73,168.43,119.57,168,118.86Z"/><path class="cls-164" d="M173.24,110.91c.52-1-1.66-3.78,1.85-2.91,1.12.16,1.62,1,2,1.91.55.41,1,1.12.48,1.54C176,112.63,174.61,111.7,173.24,110.91Z"/><path class="cls-165" d="M177.09,109.91a3.07,3.07,0,0,1-2-1.91,2,2,0,0,1,2-1A2.31,2.31,0,0,1,177.09,109.91Z"/><path class="cls-166" d="M28.15,126.92c-2.74,2.63-4.36-2.75-7-1-2.55-.71-3-2.71-3-5,.3-.87,1.62.79,1.35-.32a81,81,0,0,1-1.72-8.19c-1.59-7.53-.9-15.16-1-22.75,0-1.64,0-3.33,1.24-4.65,3-.07,1.65,2.35,2.1,3.42,0-7,2.74-13.65,5-20.38,1.13-3.4,2.74-3.62,4.63-1.32Q28.12,72.9,26,78.87c-2.77,13.95-1.79,27.73,1.9,41.38C28.54,122.46,29.75,124.65,28.15,126.92Z"/><path class="cls-167" d="M19.16,114c.84,3.42,1.67,6.83,2.58,10.54-2.35-.21-2-2.86-3.58-3.52l-1.95-4c.3-1.5-.56-2.71-1-4a35.91,35.91,0,0,1-2-25c1.27-2.18.75-4.64,1.07-7,3.49.26,3,2.81,2.94,5.1C17.17,95.46,16.77,104.82,19.16,114Z"/><path class="cls-168" d="M172,133.9l-3.6-1c-2.11-1.37-5.92-.44-6.06-4.48,2-1.43,4.18-1,6.34-.45,2.4-.27,3.48,1.46,4.63,3.07C172.82,132,172.39,132.93,172,133.9Z"/><path class="cls-169" d="M168.63,127.93c-2.23.08-4.53-.2-6.56,1.11-1.14.55-2,.56-2-1.06,2.14-1.6,4.67-.89,7-1.17C167.64,127.18,168.14,127.55,168.63,127.93Z"/><path class="cls-162" d="M156.09,47.89a1.53,1.53,0,0,0,.87-.17c.2,1.55-3,2.57-.7,4.46-.49,2.15-2.34,2.67-4,3.35a2.53,2.53,0,0,1-1.33-.4c-6.67-10.16-16.24-16.8-26.94-22.05a9.67,9.67,0,0,1-1.2-.61,10.13,10.13,0,0,0-4.27-1.66c-2.21-.64-4.39-1.42-6.66-1.84a48.62,48.62,0,0,0-8.25-2.08,12.09,12.09,0,0,0-6.23-.37l-.74-.08a1.24,1.24,0,0,1-.9-1.08c.13-1.24-.47-2.6.63-3.67,6.3-.18,12.27,1.81,18.37,2.8a2.18,2.18,0,0,1,.93.21,1.6,1.6,0,0,0-.27-.16c-3.19-1.09-7.17,0-9.36-3.58,2.12-1.81,4.39-.94,6.6-.3,13.29,3.81,25.18,10.07,34.85,20.15a13.8,13.8,0,0,0,2.7,2.18C152.59,44.06,152.64,48,156.09,47.89Z"/><path class="cls-170" d="M152.13,55l4.13-2.83c2.29-.62,2.8-3.32,4.88-4.18.12,1.74,1.06,2.29,2.62,1.66,1.35-.54,2.2-.38,2.29,1.26L150.15,60C149.51,57.85,151,56.48,152.13,55Z"/><path class="cls-171" d="M160.11,128a2,2,0,0,0,2,1.06c2,1.49,5.49.39,6.28,3.82,0,1,1.62,2.15-.14,3.11a3.64,3.64,0,0,1-2.8,1.1c-4.55-1.21-8.3-3.53-10.71-7.71,0-1.61.91-2.26,2.41-2.29Z"/><path class="cls-172" d="M165.15,136.11l3.06-.14.55,1c-.5,1.14-1.14,2.11-2.62,1.92C167.54,137.39,164.49,137.4,165.15,136.11Z"/><path class="cls-173" d="M165.15,136.11c.69.82,2.09,1.38,1,2.82l-1.06.93c-.75.06-1.5.14-2.05-.55-1.05-1.07-1.42-2.83-3.17-3.2l-1.77-.79-1-.42c-1.27-.82-2.93-.44-4.2-1.3-1.14-.6-2.29-1.18-3.43-1.77-1.83-1.18-3.71-2.29-5.65-3.29a29.59,29.59,0,0,0-7-3.73,12.93,12.93,0,0,1-3.54-3.22c-.64-1.19-2-2.21-.92-3.81,1.74-.85,3.29,0,4.89.5,5.74,3.91,12.77,5.68,17.77,10.79C158.22,131.71,161.1,134.75,165.15,136.11Z"/><path class="cls-172" d="M159.86,136.11c2.32-.19,2.67,1.57,3.17,3.2C161.36,138.85,160.77,137.33,159.86,136.11Z"/><path class="cls-93" d="M88.3,12.82c2.72-.62.77-4.19,3.89-5.36-.68,7.82,1.12,15.19.44,22.73a212.77,212.77,0,0,0-.12,28.9,32.5,32.5,0,0,1,0,6.83c-.48,3-1,6.32,2.68,8.07,1.53-1.14,3-1.28,4.3.34a2.15,2.15,0,0,1,0,1.54c-2.25,1.15-4.45.32-6.67-.13-.87-1.3-2-.13-3-.27-1.69-.38-3.69-.29-4.06-2.66A12.5,12.5,0,0,0,88,63.08c-.83-5.22.67-10.56-.54-15.8a6.21,6.21,0,0,1,0-1.61c0-.28.1-.54.15-.81.45-6.39,0-12.78.18-19.16a49.7,49.7,0,0,0-.06-5.18c-.13-1.39-1.85-1.93-1.84-3.4.67-1.35,1-2.86,2.11-4Z"/><path class="cls-174" d="M150.14,43c-2.31,0-3.32-2-4.76-3.29-10.29-9.33-22.49-15-35.76-18.59a14.81,14.81,0,0,0-3.47-.11,2.67,2.67,0,0,1-2.15.7c-2.47-.69-5.18.06-7.56-1.19C95,18.43,97.37,18,98,16.86l1.14-1.14c2.36,1.89,5.2,1.06,7.84,1.39,15.82,3.91,29.71,11.24,41,23.17C148.79,41.11,149.43,42.08,150.14,43Z"/><path class="cls-175" d="M99.15,75c-1.05-1.45-2.61-.85-4-1,0-1,0-2,0-3a4.4,4.4,0,0,1,1.18-.78,5.1,5.1,0,0,1,1.4-.15,21,21,0,0,1,9.46,4.9c1.68,1.53,3.42,2.45,5.71,2.17a10.37,10.37,0,0,1,3.32.95,2.82,2.82,0,0,1,1,.93c-2.48,2.66-6.76,2.6-8.84,5.87l-.58.35c-3-1.59-5.2-4.09-7.74-6.22a1.77,1.77,0,0,1,0-1.26C100.68,76.52,100,75.74,99.15,75Z"/><path class="cls-176" d="M96.09,71h-1q0-24.6,0-49.21c0-2.26.1-4.41,3-4.91L96.22,20a1.62,1.62,0,0,1,.51,1,1.36,1.36,0,0,1-.58,1l0,4c1.32,1.39,1.35,3.14,1.41,4.89.08,1.46.07,2.92,0,4.37,0,1.81.07,3.62,0,5.43,0,8.41-.07,16.81-.06,25.21C97.54,67.72,97.48,69.54,96.09,71Z"/><path class="cls-38" d="M138.15,27a2.76,2.76,0,0,1,3,3.05,3.34,3.34,0,0,1-3-2Z"/><path class="cls-177" d="M86.14,17l3,2a5.1,5.1,0,0,1-3.66,1.26c-20.28.92-36.13,10.49-49.53,25.08-1.77,1.93-2.57,5.81-6.64,4.68,0-.68-.08-1.36-.11-2,6-6.07,11.51-12.55,18.64-17.52,9.08-6.33,18.77-10.74,29.67-12.54A6.35,6.35,0,0,0,79.17,17c1-.9,2.41-.34,3.55-.72.61-.28-.52-.7-.12-.16-1.73.7-3.5.25-5.26.18A.81.81,0,0,1,77.21,15l0,0c2.34.18,4.23-3.11,6.83-.88l1.14.85A2,2,0,0,1,86.14,17Z"/><path class="cls-25" d="M86.14,17c-.85-.41-1-1.2-1-2,.4-2.33-1-4.93,1-7,0,1.91-.22,3.9,1.8,5.1C88,14.74,88.73,16.66,86.14,17Z"/><path class="cls-120" d="M84,14.18l-6.83.88c.16-1.34,3.47-.6,2-3C81.11,12,83.41,11.17,84,14.18Z"/><path class="cls-178" d="M40.15,143l4.26,3.41c1.06-.92-1.12-3.56,1.75-3.41,8.55,6.51,17.19,12.82,27.55,16.32,3.62,1.22,7.12,2.62,11,2.47a5.27,5.27,0,0,1,4.85,2,4.48,4.48,0,0,1,.28,3.7c-.5,1.28-1.67,1.76-2.78,2.32l-1.81.48c-.05-.42-.11-.84-.17-1.26-6.22-2.3-13-2.73-19-6C56.37,157.75,46.6,152.55,40.15,143Z"/><path class="cls-179" d="M87.1,169.78c0-1.33.89-1.72,2-1.86.6-5.22-.52-10.51.67-15.71.75-1,1.45-2.17,2.88-.83,1.69,5.27,1,10.67.52,16-.19,2.07-.39,4.19-.65,6.28a1.6,1.6,0,0,1-2.43.37l-2-.07C87.78,172.56,88.84,170.83,87.1,169.78Z"/><path class="cls-180" d="M88.14,131c-1.12.84-3.71-2-3.9,1.85-.07,1.52-2.21,0-3.38-.09-4.39-.41-7.51-4.23-12.19-4.58-.86-.07-3-5.15-5.3-7.38a6.23,6.23,0,0,1-2.18-5.7l0-.12c3.55-2.67,6.81-5.84,11.31-7,1.34-.2,2.87-.3,3.82.58,3.77,3.49,8.88,4.9,12.68,8.31C89.51,121.61,90.66,126.4,88.14,131Z"/><path class="cls-181" d="M88.14,131V116l.78-.14a3.52,3.52,0,0,1,1.84,3.35c-.2,6.54-.75,13.09.34,19.6.36,2,.61,4-.44,5.84a1.08,1.08,0,0,1-1.49.33c-.16-1.38.45-3-1-4C88.15,137.64,88.15,134.3,88.14,131Z"/><path class="cls-102" d="M89.09,164c-6.57-1.19-13.21-1.85-19.39-4.87-8.67-4.23-17.56-8-23.54-16.13l3.34.69c-.62-2.63-3.85-3.31-4-7.16,4.9,3.42,7.79,7.93,12.22,10.58,8.88,5.31,17.76,10.42,28.4,11.45,2.47.25,1.69-2.08,3-2.55A12.35,12.35,0,0,1,89.09,164Z"/><path class="cls-182" d="M89.09,164v-8c0-3.67,0-7.33.07-11l1,0c2.08,2.33,1.35,4.68,0,7-.59,5.3,1.15,10.75-1.06,15.93C89.1,166.61,89.1,165.3,89.09,164Z"/><path class="cls-183" d="M48.22,115.74l-9,5.24-1,0c-.46-2.39,1.58-3.09,2.95-4.11,2.16-1.62,3-3.45,1.77-6-1.39-2.93-1.62-6.12-1.73-9.25-.1-2.7.26-5.27-3-6.6-1.08-.45-1.26-2-1.12-3.14,1-7.72,1.66-15.54,6.72-22,4.72-.74,8,2.63,11.91,4.2,1,.8,2,1.58,1.5,3.11-3.6.61-5.27,2.94-5.78,6.4-.38,2.63-1.32,5.16-1.56,7.81-.16,1.73-.79,3.43,1.77,4.44,2.82,1.11,1.12,4.19,1.61,6.28.93,3.9,2.33,6.13,6.62,5.46a1.53,1.53,0,0,1,.64,1.21A3.79,3.79,0,0,1,58,111.08C54.52,112.2,51.56,114.38,48.22,115.74Z"/><path class="cls-184" d="M44.16,70a67.31,67.31,0,0,0-5.8,20.28c-.21,1.7-1.67,4.71,2.43,4.45,2-.12,1.84,1.88,1.75,2.87-.44,5,0,9.7,2.32,14.28.9,1.77.46,3.79-1.68,5.14-1.77,1.13-3.92,1.88-5,3.92a6.51,6.51,0,0,1-1,.1c-2.79-3-3.37-6.87-4.11-10.53a67.24,67.24,0,0,1,2.78-37.33c.85-2.3,1.45-4.87,4.26-5.77A3.92,3.92,0,0,1,44.16,70Z"/><path class="cls-185" d="M28.15,126.92a109.74,109.74,0,0,1-5-38,36.7,36.7,0,0,1,2-11c2.35,2.46-.51,5,.36,6.66.68-6.86,3.52-13.87,6.63-20.81a3.13,3.13,0,0,1,1.06-1.11c1.77-.1,3.09.42,3.33,2.42-1.68,5.31-4.44,10.25-5.65,15.74a77.62,77.62,0,0,0,1.77,37.87c.52,1.67,1.77,3.33.5,5.19Z"/><path class="cls-186" d="M33.16,124c-6-13.66-6.12-27.87-3.93-42.29A5.35,5.35,0,0,1,30.16,80c2,2.18.4,4.18-.19,6.27,2.19-7,2.56-14.74,8-20.5,1.72-.18,3.22-.06,3.22,2.23-3,.74-3.22,3.5-4,5.71a65.83,65.83,0,0,0-.62,44,26.44,26.44,0,0,1,.67,3.37C36.28,122.61,35.18,123.91,33.16,124Z"/><path class="cls-187" d="M48.22,115.74c2.12-3.29,5.91-4,9-5.73.7,1.1,2.33.8,3,2a5.81,5.81,0,0,1-4,2c-1.4.91-2.62,2.06-4,3-.3,0-.61,0-.91,0C50.55,115.86,49.33,116,48.22,115.74Z"/><path class="cls-188" d="M72.15,109c-3.8,1.75-6.93,4.73-11,6-.31-1,3.22-2,0-3,0-2.41,2.64-2.3,3.67-3.74,2.58-1.84,5.51-3,8.26-4.55,1.47-.82,3-1.62,4.42.15a2.33,2.33,0,0,1-.45,2.66C75.76,108,73.74,108.07,72.15,109Z"/><path class="cls-189" d="M65.1,109c-.53,2.07-2.91,1.67-4,3a4.9,4.9,0,0,0-.94.06c-1.4,0-2.92.08-3-2l2.91-1.07C61.78,108.85,63.44,107.71,65.1,109Z"/><path class="cls-109" d="M52.16,117c.89-1.59,2-2.93,4-3C55.26,115.56,54.17,116.88,52.16,117Z"/><path class="cls-120" d="M77.21,15a6,6,0,0,1-.19.84c-.5.74-1.12.63-1.79.26L71.16,17C72.5,14.21,75,15.16,77.21,15Z"/><path class="cls-190" d="M75.23,16.14,77,15.88H83.7c-1.7,1.67-3.21.88-4.53,1.15C77.84,16.84,76.32,17.46,75.23,16.14Z"/><path class="cls-191" d="M172.22,97l-2,9.07c-1.3-1.51.15-3.56-1-5.1-.23-7.68.5-15.41-1-23,1.1-1.15-.19-2.92,1-4C171.69,81.43,172,89.22,172.22,97Z"/><path class="cls-192" d="M169.22,73.92c-.29,1.36.42,3-1,4-.05-.6-.11-1.19-.17-1.79.26-1.1-.11-2.41,1.11-3.17C169.16,73.31,169.2,73.61,169.22,73.92Z"/><path class="cls-193" d="M126.82,77.82a16.36,16.36,0,0,1,6.93-4c3.42-2.17,5-.76,6.69,2.58,3.42,6.63,2.46,13.9,3.73,20.82.34,1.83.87,5.69-3.65,5.37-.77,0-.58,2-.93,3-1,2.91-1,6.4-4.72,7.64-1.86-.23-2.66-2.57-4.74-2.39,1.06-5.61,3.45-11,3-16.86,0-.63.36-1.68.85-1.68,4.15,0,2.07-2.92,2-4.64,0-1.45-.87-2.83-1.25-4.26-.89-3.26-2-6.1-6.36-4.69C127.84,78.92,127.2,78.43,126.82,77.82Z"/><path class="cls-194" d="M126.82,77.82c7.17-.71,7.14-.7,9.8,7.07.86,2.5,1.84,4.89.69,7.59-.39.91,1,2.43-.63,3-2.14.71-.85-2.18-2.51-2.44.23,6.33,0,12.52-4,17.81l-.6.38c-2.44-.3-4.59-1.08-5.76-3.48a2.08,2.08,0,0,1,.45-1.31c3.56-3.68,3.23-8.45,3.7-13,.22-2.09-1.12-4.34,1.49-6.28,1.41-1-.43-3.36-1.22-4.88-1-1.93-2.57-.59-3.91-.21-2.07.58-3.89,3-6.33.87C120.52,80.52,123.66,79.17,126.82,77.82Z"/><path class="cls-195" d="M141.14,70l1.06-1a3.1,3.1,0,0,1,2.27-.5c2.76.14,4.14,1.35,4.25,4.34.17,4.16,1.35,8.23,2.28,12.24,2.39,10.3-.58,19.76-3.69,29.21-1.54,4.67-3.6,4.83-7.53,1.21-.27-2.08.67-3.9,1.4-5.71,2.9-7.14,3.16-14.8,3.73-22.26a26.23,26.23,0,0,0-2.48-11.94C141.66,73.84,140.28,72.14,141.14,70Z"/><path class="cls-196" d="M118,82.91c3.13.76,5.36-1.72,7.64-2.85,3-1.49,3.28-.33,4,1.77.58,1.72,1.28,3.39,2,5.06.37.85.24,2.23-.28,2.12-4.85-1-2,2.71-2,3.73,0,3.69-.92,7.18-1.52,10.73-.33,2-1.09,3.91-3.79,3.58-3.2,1.16-5.17-.83-7.13-2.81a3.17,3.17,0,0,1-.19-1.43c.36-1.6,1-3.14,1.25-4.77.23-1.22.15-3,1.89-3,1.53,0,2,1.4,2.31,2.76a5.68,5.68,0,0,0,.41,1.76c-2.17-4.9,2.58-13.19-7.33-14.3a1,1,0,0,1-.3-.83q.07-.45.18-.45Z"/><path class="cls-197" d="M141.14,70c8.54,15.2,4.84,30.12-1,45-1.3,1.2-2.67.35-4,.16-.92-.28-1.82-.6-2.18-1.63.1-.21.19-.43.28-.65,5.18-3.32,3.39-9.6,5.86-14.23,1.75.72.53,2.55,1.63,3.59,1.53-3.6,2.48-6.93,0-10.37a2.93,2.93,0,0,1-.47-2.35c2.27-4.83-1.05-8.58-2.18-12.78-.84-3.11-2.58-3.75-5.34-2.89A12.48,12.48,0,0,1,141.14,70Z"/><path class="cls-198" d="M144.13,69H142.2a14.76,14.76,0,0,1,6.8-4.09c3.22-2.3,5.17-1.28,6.14,2.34,4.48,12.68,4,25.66,2.39,38.73-.52,4.16-2.06,8-3.36,12a5.64,5.64,0,0,1-5.56,4.18c-1.73-.14-3.19-.69-3.72-2.56,2.7-1.72,4.12-4.13,5.2-7.22,4.72-13.53,4-26.79-.63-40.16C148.38,69.07,146.84,68.5,144.13,69Z"/><path class="cls-199" d="M117,103.07c.07.29.16.57.26.86-.92,1.54-2.41,1.95-4.06,2.08a14.54,14.54,0,0,1-5.92-1.55,2.35,2.35,0,0,1-.75-2c-.23-1.24,2.23-2.9-.09-3.62-2.73-.84-2.43,1.71-2.73,3.35a3.09,3.09,0,0,1-.5,1.28,2.83,2.83,0,0,1-1.81.93,13.56,13.56,0,0,1-2.76-.43,2.89,2.89,0,0,1-1.74-1.09,1.58,1.58,0,0,1,.33-1.29c2.83-2.17,4.75-7.1,3.67-9.42a1.56,1.56,0,0,1,1.14-.84c5.61-.32,6.17-.9,5.95-6.3l.36-.18c2.57,2.16,4.47-.69,6.73-.9a2.12,2.12,0,0,1-.22.93,22.12,22.12,0,0,1,1.34,11.51A12,12,0,0,0,117,103.07Z"/><path class="cls-200" d="M154.14,67c-1-2.51-2.8-2.94-5.14-2.08,1.8-2.26,4.48-3,7-4,4,3.84,5,9,6.15,14.09,1,3-.29,5.79-.86,8.72-.81,4.17,1.45,8.36.86,12.67-.22,1.57.51,3.33-1,4.62-2.61-4-1.65-8.7-2.07-13A82.11,82.11,0,0,0,154.14,67Z"/><path class="cls-201" d="M146.29,62.07c-5.43,2.82-10,7.18-16,9a2.3,2.3,0,0,1-3.32-.78c-.53-2.29,1.31-3,2.69-3.93,1.86-1,3.6-2.21,5.43-3.26,2.34-1.26,4.4-3.15,7.29-3.12A4.54,4.54,0,0,1,146.29,62.07Z"/><path class="cls-202" d="M126.87,69.84l3.45,1.25A77.46,77.46,0,0,1,117.19,79l-1.08,0c-.15-2.29,2.74-3,2.71-5.21.94-1.68,2.55-2.56,4.16-3.44C124.23,69.79,125.45,69,126.87,69.84Z"/><path class="cls-203" d="M146.29,62.07,142,60.92a1.2,1.2,0,0,1,0-1.24A30.23,30.23,0,0,1,146.74,56c1.41-.57,2.66-1.81,4.38-1l1,0c.45,2.11-1.13,3.42-2,5A6.56,6.56,0,0,1,146.29,62.07Z"/><path class="cls-204" d="M169.19,101c1.62,1.45.65,3.41,1,5.1a3.25,3.25,0,0,1-.09.88L169,105.81Z"/><path class="cls-205" d="M155.19,135.08a7.86,7.86,0,0,1,0,.84c-7.92,10.71-17.47,19.52-29.59,25.29-2.37,1.13-4.94,1.85-7.42,2.76-.68-.32-1.28-.69-1.24-1.57,2.73-3.15,6.94-3.63,10.28-5.72,8.63-5.4,16.45-11.66,22.43-20a7.68,7.68,0,0,1,3.29-2.94A2,2,0,0,1,155.19,135.08Z"/><path class="cls-206" d="M117.15,163l1,1c-4.36,2.39-9.2,3.1-14,4-2.18,1.94-4.55,1-6.89.46-2.2-.82-1.83-1.93-.37-3.17,5.58-1.56,11.48-1.47,17-3.23A3.14,3.14,0,0,1,117.15,163Z"/><path class="cls-207" d="M115.09,169.94l-5,.94c-2.34-1.3-4.76.5-7.12-.18a2.11,2.11,0,0,1-1-1c.44-1.26,1.17-1.54,2.24-.67,4.5.29,8.64-1.75,13.06-2l2,1Z"/><path class="cls-208" d="M104.16,169l-2.16.83a1.84,1.84,0,0,1-2.83.14l-2-1.05c-.3-.2-.4-.4-.3-.61s.18-.32.28-.32h7C104.16,168.32,104.16,168.66,104.16,169Z"/><path class="cls-134" d="M155.19,135.08l-2-1.12a.91.91,0,0,1,.07-1.16c1.49.35,3,.72,3.89,2.1Z"/><path class="cls-209" d="M99.17,170l2.83-.14.38.3c1.16.89,2.82-.28,3.89.94-2.14,1.55-4.53.85-6.85.75C99.34,171.21,99.26,170.59,99.17,170Z"/><path class="cls-210" d="M106.27,171.07c-1.28-.38-2.86.45-3.89-.95,2.57.18,5.28-1,7.69.76Z"/><path class="cls-211" d="M106.28,174.93c-.3-.19-1-.4-1.29-.87-.48-.89.37-1.13,1-1a2.54,2.54,0,0,1,1.44,1C107.68,174.63,107.11,174.87,106.28,174.93Z"/><path class="cls-212" d="M53.17,67l-5-2.12c-4.68-5.27-4.84-6.24.41-11.48,9.57-9.57,21-15.95,34.39-18.36,2-.36,4.33-.91,5.67,1.58-.22,3.12.55,6.29-.46,9.36v0C84,48.49,79,48.52,74.64,50.44c-8.36,3.65-15.06,9.31-20.81,16.25Z"/><path class="cls-213" d="M88.16,46V36c-1.27-.63-1.4-1.92-1.81-3.06-3.6-1.51-6.89.37-10.06,1.3C61.79,38.5,49.38,45.86,41.56,59.42l-.4.57a5.4,5.4,0,0,1-4-2c.62-4.1,3.11-7.32,5.89-9.92,10.64-10,22.51-17.87,37.28-20.45,1.85-.33,4.07-.08,5.37-2a2.15,2.15,0,0,1,2.22-1.23,2.53,2.53,0,0,1,1.17.66C88.69,32,90.3,39.08,88.16,46Z"/><path class="cls-214" d="M89.11,25h-1a15.84,15.84,0,0,1-1.36-1.59c-2.38-2-5.06-1.16-7.56-.56-17.05,4.15-31.68,12.3-43,26-1.74,2.1-3.18,5.34-7,4.15l.09-3c3.29-.48,4.11-3.68,5.84-5.68C46.32,31.45,60.31,23.52,76.79,19.59c4.13-1,8.23-.29,12.33-.6C89.12,21,89.11,23,89.11,25Z"/><path class="cls-177" d="M88.14,23c0,.67,0,1.33,0,2a2.08,2.08,0,0,0-2,1c-4.06,2.37-8.83,2.2-13.18,3.67-13.6,4.62-25.21,11.86-33.82,23.56-1.2,1.62-2.13,4-5,2.77l-1-1c.79-5.52,5-8.91,8.59-12.29C53.4,31.59,67.18,24.35,83.42,22.37,85.08,22.17,86.71,21.68,88.14,23Z"/><path class="cls-100" d="M88.14,23A72.25,72.25,0,0,0,42.45,43.4c-3.56,3.38-6.23,7.71-9.31,11.61a5.32,5.32,0,0,1-3.94-2c2.84-.26,4.29-2.57,5.75-4.42C46.43,34,61.74,25.78,79.39,21.52,82.22,20.84,85.83,19.06,88.14,23Z"/><path class="cls-215" d="M41.15,68l-3-2c-1.11.55-2,.76-2-1l-3-2.05c-2.45.39-4.16-1.21-6.09-2.22-.78-.42-1.56-.84-2.31-1.33-1.71-2.09-3.61-3.83-6.62-3.43-3-1.38-3.88-4-2.31-6.52s4.29-3.71,7.18-1.25a1.47,1.47,0,0,1-.81,1.66c-1.36.32-1.52.91-.41,1.8.87.69,1.88,1.22,2.31,2.34l29,17c1.56,1.29,4.81-.24,5.16,3.08-.82,1.08-2.18.25-3.12.89l-11-5Z"/><path class="cls-216" d="M88.15,33a2.69,2.69,0,0,0,0,3c-16.4.8-29.13,8.87-40.5,20-3.7,3.61-.29,6,.5,8.9-2.18-1.84-5.35-2.28-7-4.9v0c5.09-9.85,13.58-16.15,23-21.3,6.12-3.36,13-5,19.8-6.35C85.42,32,86.89,31.82,88.15,33Z"/><path class="cls-217" d="M34.18,56A3.37,3.37,0,0,0,37,54.28C46.14,40.43,59.57,32.72,75,28c3.59-1.1,7.45-1.34,11.18-2,2.93,1.43,1.4,1.71-.49,2C78.36,29.1,71.17,30.64,64.52,34a86.93,86.93,0,0,0-21,15.26C41,51.75,39.26,55,37.18,58Z"/><path class="cls-218" d="M58.14,74c-1.09-2-4.33-.34-5-3a2.13,2.13,0,0,0,1-2c2.33-.48,4.15,1,6.23,1.56,3.94,3.61,3.94,4,.05,5.31A2.74,2.74,0,0,1,58.14,74Z"/><path class="cls-219" d="M24.1,54c-1.46.11-2.33-1-3.35-1.72s-2.92-1.09-1.92-2.7c.81-1.29,2.3-.64,3.37.28.86.64,1.69,1.31,2.56,1.93C26.74,53.23,25.61,53.69,24.1,54Z"/><path class="cls-220" d="M60.15,71c-2.35.38-4.23-.64-6-2l-1-2v0c2-1.41,3.4.17,5,1a5.7,5.7,0,0,1,2.24,2.4C60.29,70.58,60.22,70.79,60.15,71Z"/><path class="cls-221" d="M11.23,75.07a10.14,10.14,0,0,0,1-5.06,8.44,8.44,0,0,1,3.11-8L17.22,60c1.88-1,2.43.22,2.87,1.67-.59,4.53-1.42,9-5,12.31Z"/><path class="cls-222" d="M15.3,62l-3.11,8-2,2.54c-1.7-5.13.92-9.23,2.07-13.53C15.61,57.6,14.93,60.36,15.3,62Z"/><path class="cls-223" d="M19.3,62.06c-.12-1.27-.67-2.11-2.08-2.08.91-1.64,3.21-.37,4.34-2.36-.68-1.25-2.8-.21-3.42-1.61,3.55-1.84,5.3.62,7.09,3C24.61,62.62,22.44,63.27,19.3,62.06Z"/><path class="cls-224" d="M19.3,62.06c2.41-.19,4.58-.84,5.93-3.07a2,2,0,0,1,1.94,1C26.43,66,23,71.29,21.85,77.27c-.51,2.64-.29,5.68-2.69,7.71-2,7.82-1,15.73-.53,23.6.11,1.77.5,3.58.53,5.4-3.27-8.84-3-18.06-3-27.26,0-2.07.65-4.44-1.9-5.7.35-2.35,1.27-4.62.89-7.06Z"/><path class="cls-108" d="M13.17,88c-.66,8.43,1,16.69,2,25-1.55-1.54-2.78-3.27-5.33-3.75C8.45,109,7.18,107.06,7.33,105c1.38-.06,2.74-.18,2.81-2,.19-5.07-.77-10.3,2-15Z"/><path class="cls-225" d="M7.11,82l1,6c-1.47,1.12-2.23.14-3-1l.06-5Z"/><path class="cls-226" d="M5.2,87l3,1c-.1,1.39.49,2.94-1,4-1.15-1.12-2.38-2.19-2-4A5.7,5.7,0,0,1,5.2,87Z"/><path class="cls-227" d="M92.09,173.93l0-22.87c-1.9-5.38-.33-11-1.31-16.49.1-4.41-.11-8.82.16-13.23a5.54,5.54,0,0,1,.53-1.72,1.29,1.29,0,0,1,1.5-.73,3.42,3.42,0,0,1,1.41,2.32c.46,11.57.07,23.15.22,34.73-.53,4.36,1.19,8.95-1.38,13.09-.45,3.31.93,6.81-1,10C90.82,177.33,91,175.64,92.09,173.93Z"/><path class="cls-228" d="M97.14,168c0,.31,0,.62,0,.93-1.68,1.35-.72,3.25-1,4.88l-1-.83c-1.83-7.8-.68-15.72-1-23.58V142c0-6.61,0-13.23,0-19.84a11,11,0,0,1,.34-3.57,1.38,1.38,0,0,1,1.45-.84,2.93,2.93,0,0,1,1.14,1.39c.94,6.92.2,13.89.54,20.83,0,7.52-.57,15.06.45,22.57a4.3,4.3,0,0,1-.94,3.43C96.14,166.64,96.16,167.31,97.14,168Z"/><path class="cls-229" d="M95.11,149q0,12,0,24c-1.64-.82-.39-3.09-2-3.94V155.91c1-1.63.27-3.42.48-5.13C93.78,149.88,93.61,148.76,95.11,149Z"/><path class="cls-230" d="M92.09,173.93l.09,5.06q-.06.44-.09.87c-2.77-1.24-1.71-3.77-2-5.85Z"/><path class="cls-231" d="M154.14,67A43.89,43.89,0,0,1,160,84.13c.64,5.58,1.7,11.18,1.14,16.86.68,7.45-3,14-4.56,20.94-.39,1.72-1.82,2.18-3.46,2-2.89,1.07-4.37-.28-5.06-3,2.9,0,4.14-1.43,5.2-4.18,4.94-12.85,3.93-26.2,3.6-39.46C156.78,73.91,153.79,70.81,154.14,67Z"/><path class="cls-232" d="M148.07,121c1.53,1.25,3,2.58,5.06,3,1,1.47,3.48,1,4,3.09l-2.05,2c-6-3.29-12.51-5.79-18-10a4.45,4.45,0,0,1,2.31-2.51,8.12,8.12,0,0,1,5.58,2.56A3.7,3.7,0,0,0,148.07,121Z"/><path class="cls-185" d="M19.16,85c1.49-8.71,3.21-17.36,8-25l6,3,0,0c-1.71.93-1.28,4-4,4-2-.93-2.28-1-2.94,1.53-2,7.5-5.38,14.68-5.08,22.7a1.94,1.94,0,0,1-1.44,2.34C18.71,90.69,19.36,87.78,19.16,85Z"/><path class="cls-233" d="M29.15,67c1.49-1.16,1.07-4.23,4-4-.92,6.06-4.43,11.25-5.74,17.21a20.31,20.31,0,0,1-2.23,5.6V78C26.62,74.37,26.44,70.15,29.15,67Z"/><path class="cls-234" d="M151.12,55l-4,2c-4.42-3-7.24-7.56-11.51-10.77-5-3.77-10.6-6.72-15.53-10.62-.1-.21-.19-.42-.28-.63a1.67,1.67,0,0,1,.38-1.25c.87-.77,2.51-.2,3-1.7a50.19,50.19,0,0,1,21.22,13.7C147,48.42,151.17,50.24,151.12,55Z"/><path class="cls-235" d="M123.15,32c1,3.71-2,1.33-3,2v1a3.29,3.29,0,0,1-3,.94,119.29,119.29,0,0,0-21-4.95c0-1.67-.07-3.33-.1-5l1,0c5,1.21,10.42.9,15.17,3.4,0-.47-.54-.88-.14-1.39,2.53,0,4.74,1.08,7,2,1.28.77,2.86.94,4,2Z"/><path class="cls-236" d="M96.15,22a2.49,2.49,0,0,1,.06-1,13.8,13.8,0,0,1,8-.05l2,0c2.85,2.54,7.15,1.44,10,4h0C109.48,24,102.61,24.38,96.15,22Z"/><path class="cls-237" d="M112.15,28c.12.71,1.67,1.13.78,1.87S98.07,27,97.12,26h0a8.49,8.49,0,0,1,6,0C106.37,25.69,109.29,26.69,112.15,28Z"/><path class="cls-235" d="M103.16,26l-6,0A4.61,4.61,0,0,1,103.16,26Z"/><path class="cls-236" d="M116.14,25c.89.15,2-.35,2.51.86a.83.83,0,0,1-.38.69c-1.23.24-1.65-.72-2.12-1.56Z"/><path class="cls-234" d="M123.15,32a5.38,5.38,0,0,1-4-2C120.86,29.9,122.39,30.17,123.15,32Z"/><path class="cls-238" d="M97.14,163c-2-7.65-.56-15.43-.86-23.14A1.91,1.91,0,0,1,98,141.3a19.72,19.72,0,0,1,.45,5.58c0,1.54,0,3.09,0,4.63,0,.73,0,1.47,0,2.2,0,1.86.15,3.19,2.74,2.79,14.58-2.21,26.35-9.78,37.32-19.06,3.1-2.63,2.78-7.08,5.72-9.68,2.39.34,4,2.06,5.89,3.31,1.51,2,.58,3.83-.66,5.46-11.9,15.68-27.37,25.36-47.13,27.66C100.51,164.4,98.66,164.34,97.14,163Z"/><path class="cls-239" d="M97.16,152v-5a7.48,7.48,0,0,1,4.41-2c11.66-2.13,21-8.25,29.08-16.66,2.12-2.21,2.57-4,.11-6.14a2.31,2.31,0,0,1,.13-2.11c1.45-.8,2.24.4,3.22,1l3,3c1,.75,2.25,1.21,2.6,2.6-.72,5.09-4.73,7.87-8.06,11a59.88,59.88,0,0,1-30.3,14.91C99.93,152.76,98.44,153.19,97.16,152Z"/><path class="cls-240" d="M139.13,126l-2-2c2.88.26,5.06,1.84,7.08,3.73a17.61,17.61,0,0,1-8.08,13.51c-5.59,3.7-11.09,7.54-17,10.87-5.55,3.13-11.56,3.42-17.17,5.5-4.15,1.55-5.42.46-4.83-3.67,5.93-2,12-3.3,17.91-5.59,9.79-3.83,17.05-10.69,23.72-18.41C139.87,128.72,140.43,127.44,139.13,126Z"/><path class="cls-208" d="M97.14,163c21.74-.07,38-10.57,51.25-26.89a6.91,6.91,0,0,0,1.73-5.05l3.1,1.74c0,.38-.05.77-.07,1.15-9,13.45-21.33,22.66-36,29-6.69.87-13.15,3.24-20,3Z"/><path class="cls-241" d="M139.14,117c0,1.35-.81,1.93-2.08,2l-4.89-1.1-.69-.08c-1.54-.68-2.93-1.49-3-3.44a2.07,2.07,0,0,1,2.41-2c2.28.51,3.77,2.75,6.24,2.86A4.36,4.36,0,0,1,139.14,117Z"/><path class="cls-242" d="M134.11,121.08l-3-1.07c-1.67.09-2.47-.53-1.89-2.29a2.53,2.53,0,0,1,2.94.23l0,0Z"/><path class="cls-243" d="M58.15,69l-5-2c2.63-6.16,7.78-10.06,13.1-13.42C72.88,49.37,80,46.06,88.17,46c0,.32,0,.64,0,1,1,2.62.34,5.34.46,8-3.13,3.47-5.29,3.75-8,.55-1.3-1.55-2.31-.81-3.43-.36A43.45,43.45,0,0,0,62.09,65.29C60.83,66.58,59.86,68.19,58.15,69Z"/><path class="cls-244" d="M90.13,75c.68-.07,1.37-1,2,0,1.5,1.38,3.88-.54,5.24,1.39-.25,1.68-3.12,2.75-1.15,4.94,1.5,1.43,3.73,2,4.63,4.13a4.78,4.78,0,0,1-.28,4.29c-.24.26-.61.52-.82.37-6.35-4.44-8.37-4.22-14,1.6a2.79,2.79,0,0,1-.85.51,1.87,1.87,0,0,1-1.87-.75,2.72,2.72,0,0,1-.37-1.31c.21-1.45,1.22-2.82.46-4.38-.86-1.88-2-2.54-3.78-1-1.22,1-2.37,2.4-4.28,1.39a2.11,2.11,0,0,1-.28-1.37C78.46,79.23,83.18,75.35,90.13,75Z"/><path class="cls-245" d="M90.13,75A36.72,36.72,0,0,0,75.22,85a1.28,1.28,0,0,1-1.25.31A10.43,10.43,0,0,1,70.44,82C70,80.42,67,78.49,71,77.42c4.44,2.37,6.38-1.82,9.26-3.55a6.35,6.35,0,0,1,1.21-.7c1.54-.4,3.06-1.49,4.67-.22C87,74.61,89.25,73.38,90.13,75Z"/><path class="cls-246" d="M86.14,73l-5,1a1.76,1.76,0,0,1,.69-2.19c5.52-2.06,5-6.67,4.94-11.16A6.28,6.28,0,0,1,88.14,56q0-4.5,0-9c1.45,1,1.42,2.86,1.25,4.06-.81,5.71.22,11.39-.06,17.08A5.29,5.29,0,0,1,86.14,73Z"/><path class="cls-175" d="M97.18,77c-1.19-1.91-3.85-.06-5-2,2.36.09,4.81-.41,7,1,.91.31,1.41.86,1.1,1.88l-.09.12C98.68,79,97.8,78.35,97.18,77Z"/><path class="cls-247" d="M100.23,77.88c-.37-.63-.73-1.26-1.1-1.88,0-.34,0-.68,0-1,1.41.27,3.27.34,3.42,2C102.68,78.31,101.12,77.8,100.23,77.88Z"/><path class="cls-162" d="M104.16,21l-8,.05a2.75,2.75,0,0,1,0-1C98.86,20.36,101.7,19.05,104.16,21Z"/><path class="cls-248" d="M126.87,69.84l-3.69,1.25a1.83,1.83,0,0,1-.41-2c1.74-1.48,2.27-3,.68-5.07-2.22-2.9-4.3-5.71-7.78-7.44s-7-3.6-9.55-6.9a6,6,0,0,0-6.34-1.88c-1.89.47-1.17,2.45-1.3,3.87.06,1.57.07,3.14.06,4.71.14,2.56,0,5.13.07,7.69,0,2.38.29,4.83-1.44,6.84L96.09,71q.07-15.5.16-31c5.9-1.83,11,.52,15.91,3.26.9,4.51,5.11,5.63,8.26,7.56a41.06,41.06,0,0,1,10.2,8.65c2.09,2.49,3.15,5.26-.45,7.58Z"/><path class="cls-249" d="M97.17,70.91c0-2.31,0-4.62,0-6.92.48-.67.87-1.41,1.73-1.68,2.32-.72,4.06.75,6,1.45,1.31.46.84,3.46,3.72,2,1.5-.77,4.29.89,5.33,2.82,1.15,2.16-1.37,5,.7,7.22a2.1,2.1,0,0,1-1.77,2.06c-2,.54-3.69,1.06-5.49-1.21C104.92,73.46,101,72.08,97.17,70.91Z"/><path class="cls-250" d="M97.18,77l3,1c2.74,2.21,6,3.88,7.85,7,1.07,1.79,1.7,3,.4,5.6-2.26,4.46-4.84,1.06-7.22,1.28-.91-.33-1.49-.85-1-1.92l0-5,.55-.45a2.07,2.07,0,0,1,2,.35c1,.78.53,2,1,3,1.23-.53.5-1.59.69-2.36-3.5-4.19-5.92-5.31-8.65-4q-.27.21-.54.39C93.64,79.47,93,77.23,97.18,77Z"/><path class="cls-251" d="M112.93,77.83l1.34-1.6a3.59,3.59,0,0,1,1.78-1.9c1-.39,2-1.09,3.13-.2,1.51,3.23-2.17,3.14-3.07,4.82Z"/><path class="cls-252" d="M96.23,31c7.56-1.77,14.12,1.75,20.92,4,.52.51,1.19.45,1.84.56,1.56.26,3.07,1,3.16,2.65.11,1.89-1.82,2-3.13,2.61a7.73,7.73,0,0,1-3.21.15c-5.44-1.38-10.62-3.89-16.42-3.83A3.3,3.3,0,0,1,96.25,35Z"/><path class="cls-253" d="M96.25,35c6.74,1.21,13.64,1.81,19.9,5,.77.79,2.94.44,2.24,2.42-.51,1.43-1.6.93-2.79.57s.47,1.46-.78,1.45a2.28,2.28,0,0,1-2.67-.45,58.25,58.25,0,0,0-15.9-4Z"/><path class="cls-112" d="M92.11,134q0,8.55,0,17.11l-1.89.93c0-2.34,0-4.69,0-7,0-2,0-4,0-6-.87-1.58-.46-3.25-.29-4.89A1.55,1.55,0,0,1,92.11,134Z"/><path class="cls-181" d="M72.15,109l4-2.91c3.29,3.86,7.88,5.71,12.26,7.89a1.7,1.7,0,0,1-.29,2l0,0c-4.28.13-7.34-2.45-10.27-4.94A7.15,7.15,0,0,0,72.15,109Z"/><path class="cls-227" d="M88.17,116c0-.63,0-1.25,0-1.88-.73-1.19-3.31-.54-3-2.59.32-1.86,2.27-1.55,3.64-1.82a7.49,7.49,0,0,1,6,1.55,1.49,1.49,0,0,1,.07,2.43c-2,1.18-1.13,3.89-2.74,5.29l-.11.08c-1.07.45-1.49-.3-1.93-1Z"/><path class="cls-182" d="M90.15,118l1.94,1L92,120.1c-1.63,2.58-.6,5.46-.88,8.19-.19,1.92.46,4-1,5.68,0,1.67,0,3.34,0,5A45.62,45.62,0,0,1,90.15,118Z"/><path class="cls-254" d="M60.2,108c-1.29.27-2.57.6-3.87.79-2.29.33-4.6.74-3.32-3,1-2.88-3.75-5.16-1.08-8.37,0-.06-.4-.72-.52-.69-7,1.69-2.7-3.93-2.65-5.15.15-3.87,1.56-7.69,2.38-11.55.77-3.58,2.76-4.47,6-3a23.93,23.93,0,0,1,14.45,8.29,33.28,33.28,0,0,0,0,16.47C68.78,105.6,65.53,108.69,60.2,108Z"/><path class="cls-255" d="M60.2,108c4.27-.87,7.38-3.84,10.94-6l.9-1c3.51-1.61,1.38-5.9,3.81-8,1.7-.22,3.92,2.15,5-1a4.87,4.87,0,0,1,.89-1,1.16,1.16,0,0,1,1.24,0l1.13,1c.46,3.32-2.37,4.7-4,6.8-1.19,1.78.37,2.35,1.43,2.92a46.34,46.34,0,0,1,5.09,3c1.16,1.05,2.23,2.15,1.86,3.92-4.92,2.91-7.86,1.73-11.3-4.53-4.8-.18-7.9,3.78-12.13,5-1.66-.16-3.33,2.23-5,0C60.14,108.62,60.17,108.31,60.2,108Z"/><path class="cls-256" d="M71.07,85.09,57.14,77l-2-2c.71-1.17,1.88-.94,3-1l2,1a16.06,16.06,0,0,1,11,6.93,7.27,7.27,0,0,1,3,3.09c.27,1.43-.69,1.49-1.69,1.51C71.83,86.3,71.47,85.67,71.07,85.09Z"/><path class="cls-257" d="M36.11,65l2,1c-1,3.83-3.66,7-4.51,10.92-.78,3.58-1.46,7.29-4.24,11.27.32-3.43.55-5.83.78-8.23A36.53,36.53,0,0,1,36.11,65Z"/><path class="cls-258" d="M77.23,104c3.41,2,5.47,7.62,10.93,4a15.88,15.88,0,0,1,10.27-1.79,2.36,2.36,0,0,1,1.13,1,2.71,2.71,0,0,1,0,1.44c-2.36-.06-.94,4.88-4.43,3.36-3-1.16-6-1.91-9.13-.59-.69,2,2.91.57,2.15,2.68-5.14-1-10-2.3-12-8A2.45,2.45,0,0,0,77.23,104Z"/><path class="cls-197" d="M130.14,110.84c2-.53,3.41,0,4.09,2l-.11.14c-1.22,1.07-2.08,0-3.05-.5-.72-.21-1.22-.58-1-1.44Z"/><path class="cls-259" d="M113.16,105l4.1-1.06,6.73,3.12a4,4,0,0,0,.21.84c.56,1.35,2.22,2.4,1.14,4.19A23.8,23.8,0,0,1,113.16,105Z"/><path class="cls-260" d="M125.13,112l-.93-4.11,5.9,3.18,1.05,1c.29.21.39.41.29.62s-.2.3-.3.3a1.83,1.83,0,0,0-2,2C126.73,115.44,125.1,114.83,125.13,112Z"/><path class="cls-261" d="M139.14,117l-2.07-1c-.5-.55-1.4-.85-1.15-1.86l4.22.87c2.56,2.29,4.26,3.24,6-1.27,4.4-11.58,5.74-23.18,2.35-35.2-.63-2.21-1.76-4.31-1.15-6.77.71-2.87-2.8-1-3.17-2.74,2.72-2.43,4.39-2.44,5.91,1.52,3,8,4,16.07,4.46,24.6.42,7.77-3,14.05-4.45,21.05-.67,3.32-2.27,3.95-5.11,2.89Z"/><path class="cls-262" d="M117,103.07c-1.76-.34-3.52-1.12-2.78-3.16a20,20,0,0,0-.17-13.41,1.34,1.34,0,0,1,.81-1.6c5.61-1.12,7.44.1,8.2,5.73a45.07,45.07,0,0,1,.59,8.81c-.1,1.48-.09,3.84-2.91,4.15-.43-2.59,1.64-5.46-1-8.23C118.64,98.13,119.71,101.38,117,103.07Z"/><path class="cls-232" d="M135.92,114.12c.39.62.77,1.24,1.15,1.86a11.2,11.2,0,0,1-5.93-3c0-.31,0-.62,0-.92l3,1Z"/><path class="cls-263" d="M79.15,98c2.2-1.6,3.43-4,5-6.12,2.71-2.5,3.83-6.65,9.2-6.12,3.53.34,5.7.92,6.8,4.26.35.64.7,1.28,1,1.92-.47,1.57,3.48,1.81,1.46,3.16-2.72,1.81.61,8.16-5.5,6.92-1.92,1.7-4.28,1.23-6.52,1.35-3.11-.06-6.3.5-9.15-1.35C80,101.05,78,100.46,79.15,98Z"/><path class="cls-264" d="M125.13,112c.79,1.73,2.55,2.15,4,3,.8,1.21,2.61,1.39,3,3l-3.36.21a1.91,1.91,0,0,1-2.39-.48,7.66,7.66,0,0,0-4.9-2.64c-1.52-.36-3-.74-4.5-1.23-2.24-1.49-4.23-3.31-6.46-4.83-1.36-1.49-3.35-2.25-4.6-3.88-.1-.83.2-1.29,1.1-1.2,2.14-.28,4.06.69,6.08,1.09A45.87,45.87,0,0,1,125.13,112Z"/><path class="cls-265" d="M90.08,102h7c0,.32,0,.64,0,1-.19,1.67,1.72,1.7,2.22,2.82a1.36,1.36,0,0,1-.27,1.21c-3.72-.44-7.23,1.62-11,1l-2-3C85,100.67,89.18,103.56,90.08,102Z"/><path class="cls-266" d="M103.14,103a3.6,3.6,0,0,1-.24-3.66c.5-1,.54-2.54,2.06-2.12,1.3.36,3.1-.43,3.87,1.31s-.28,2.73-1.65,3.52C105.46,100.74,104.7,103.56,103.14,103Z"/><path class="cls-267" d="M103.14,103c1.57-.74.63-3.93,3.22-3.47,1.06.19.7,1.61.82,2.52,0,.62-.06,1.25-.1,1.87-.24.32-.49.64-.74.95.15,1.12-.53,1.54-1.46,1.75-2.53-.28-2.83-1.62-1.74-3.62Z"/><path class="cls-268" d="M111.56,89.74c.77,3.48,1.08,6-1.11,8.9C110.57,95.46,108.62,92.88,111.56,89.74Z"/><path class="cls-266" d="M103.14,103c0,1.45,0,2.92,2,3-.68,3.68-2.82,4.39-6,3,0-.33,0-.66,0-1,1.22-1.07.52-3.09,2-4Z"/><path class="cls-269" d="M99.12,106c-1-.77-3.2-.82-2-3.06l2,0C100.36,104,102,105,99.12,106Z"/><path class="cls-266" d="M99.12,106c1.64-1,.37-2,0-3a2.06,2.06,0,0,1,2,.92c.07,1.71-.16,3.27-2,4,0-.33,0-.65,0-1S99.13,106.35,99.12,106Z"/><path class="cls-239" d="M115.15,44c-1-1.79-1-1.85.41-1.75.8.06,1.93,1.19,2.07-.51.05-.53-1-1.15-1.48-1.73h3a4,4,0,0,1,1.8.61,29.38,29.38,0,0,0,4.84,1.92c6.07,2.57,10.6,7.09,14.84,11.91,1.35,1.53,3,3.23,1.58,5.66a7.51,7.51,0,0,0-.19.82l-6.83,3.24c-.32-7.51-7-9.95-11.37-14.23-.68-.66-1.61-1.1-2.27-1.82-1.42-1.74-3.52-2.35-5.46-3.23A2.56,2.56,0,0,1,115.15,44Z"/><path class="cls-270" d="M115.15,44h1c1.77,1.45,3.93,2.13,6,3,3.21,2.69,6.26,5.59,9.66,8s4.48,5.28,3.38,9.16c-1.53,1.21-3,2.51-5,2.9,1.84-2.24,1.81-4.62-.15-6.59-3.31-3.34-6.25-7.21-11.08-8.68-2.81-.86-3.85-4.47-7.7-4.35-1.61.05,1.56-2,.91-3.45Z"/><path class="cls-271" d="M119.18,74.13l-3,.86c-.1-8-4.51-12.56-11.82-14.82-2.69-.83-5.38-1.71-7.14-4.16V51c2.1-1.88,4.42-1.1,6.51-.24,7.6,3.15,12.57,9.63,18.39,15a4.19,4.19,0,0,1,1,3.22c0,.7,0,1.4,0,2.1Z"/><path class="cls-272" d="M142.2,60.1c-2.38-7-8.27-10.83-13.79-15-1-.77-2.18-1.43-3.27-2.14-1.56-.92-3.4-1.17-5-2l-1-1c5.63-4.18-1.59-3.24-2-5h3c10.38,5.62,20.44,11.63,27,22C145.33,57.78,144.39,59.92,142.2,60.1Z"/><path class="cls-273" d="M88.15,33C70.14,35.08,54.9,42.23,44,57.27A7.18,7.18,0,0,1,41.17,60c-.45-1-1.21-2-.25-3.18A69.64,69.64,0,0,1,65.09,36.93a67.23,67.23,0,0,1,17.32-5.49C84.47,31.06,87,29.6,88.15,33Z"/><path class="cls-274" d="M71.22,81.9,60.18,75c2.57-.47,2.57-.47,0-4h0c5.17-1,7.86,2.85,11.11,5.63a1.51,1.51,0,0,1-.11,1.4C67.73,79.37,72.38,80.59,71.22,81.9Z"/><path class="cls-275" d="M71.13,77c-3.82-1.71-6.65-5.24-11-6l-2-2c3.16-6.83,9.49-10.11,15.52-13.68,1.53-.91,3.21-2,4.88-2,1-.07,5.27-2.7,3.27,2.39-.55,1.39,1,1.13,2,1,1.45-.23,2.9-.43,4.34-.65,0,2,0,3.95,0,5.92.07,4.63,1.08,9.73-5.79,10.61-.46.06-.82,1-1.22,1.47h0c-1.65,1.29-3.62,2.13-5.14,3.6C74.16,79.38,72.57,78.83,71.13,77Z"/><path class="cls-276" d="M95.11,149c-2.17,1.89.27,5.05-1.92,6.93q0-18,0-35.91c.68-.64.16-2.43,1.93-2v3a99.89,99.89,0,0,0,0,21Z"/><path class="cls-277" d="M90.16,134c0-3.5,0-7,0-10.49,0-1.42-.4-3.18,1.88-3.38q0,6.93.08,13.85Z"/><path class="cls-278" d="M95.07,118l-1.93,2c-.32-.34-.64-.69-1-1,.64-2.13-2-5.81,2.82-6,1.69,1.59,1.46,3.29.3,5Z"/><path class="cls-279" d="M127.09,117.15c.25.91.93,1.08,1.74,1l2.31,1.85v2c-.36,2.87-2.39,4.69-4.26,6.54-6.89,6.79-14.91,11.55-24.56,13.24-1.82.32-3.64.65-5.19-.78l-.85-1.11-.21-22c-.78-2,0-2.94,2-3.14,1.12,1,.66,2.33.53,3.56-.06,1-.14,2-.14,2.93,0,1.44,0,2.88,0,4.32,0,.69,0,1.39,0,2.08.14,2.31,1.88,2.26,3.25,1.77,6.62-2.36,13-5.18,17.5-10.93.72-.93.89-1.74-.11-2.55-.5-.41-1-.81-1.5-1.25s-.85-1-.48-1.72c1.85-.8,3.13.81,4.72,1.12C123.66,115,125.6,115.71,127.09,117.15Z"/><path class="cls-229" d="M95.09,142a49.22,49.22,0,0,1,0-21Q95.07,131.48,95.09,142Z"/><path class="cls-258" d="M98.18,115.12c-1.49.34-1.88,1.5-2.11,2.79l-.76.12-.3-5,.22,0a4.78,4.78,0,0,1,6.09,1C100.88,116,99.62,115.83,98.18,115.12Z"/><path class="cls-234" d="M120.15,34c-.89-.15-2,.36-2.5-.86a.81.81,0,0,1,.38-.69c1.23-.24,1.64.72,2.12,1.55Z"/><path class="cls-280" d="M97.13,141c13.26-.73,23.69-6.81,32-16.93.61-.75,1.35-1.38,2-2.07,5.05,1.28,3.74,3.58,1.17,6.37-9.55,10.34-21,17-35.15,18.62Z"/><path class="cls-281" d="M139.13,126c2.65.84,3,2.33,1.14,4.3-8.36,8.93-16.93,17.39-29.31,20.85-4.58,1.28-9,3-13.8,2.83v-2c16.79-2.55,31-9.59,41.12-23.71A9.44,9.44,0,0,0,139.13,126Z"/><path class="cls-49" d="M72.15,86a2.17,2.17,0,0,0,2.12-1c.32,0,.64,0,1,0v1.06c1.22,1.3.43,2.89.61,4.34A1.89,1.89,0,0,1,75,92.07c-.56.36.1-.14-.49.09-.89.35-1.42.88-1.25,1.8.09.44.26.32.26-.23a1.68,1.68,0,0,1,.76-1.22,3.73,3.73,0,0,1,.84-.5c.93-.3,1.27,0,1.07,1-1.25,3,1.17,7.7-4,8.93C69.69,96.6,68.85,91.29,72.15,86Z"/><path class="cls-282" d="M75.08,90.07c-.85-1.37.37-2.65.14-4a5.4,5.4,0,0,0,3-1.65c3.64-3.6,4-3.49,5.91,1.58a2.81,2.81,0,0,1-1.06.81c-1.13.58-3.06,0-3.39,1.53s2,1.42,2.51,2.69a3.64,3.64,0,0,0-.13.72C79,94.43,77,92.41,75.08,90.07Z"/><path class="cls-283" d="M82.19,91c-2-.17-4.89-.2-4.69-2.5.25-2.83,3.24-2.62,5.6-2.42,1.08,1.29.7,2.61.09,3.94a4.17,4.17,0,0,1-.19.85C82.73,90.94,82.46,91,82.19,91Z"/><path class="cls-250" d="M100.1,85l-5-3,.07-.08c4.08-1.29,4.85-.82,5,3Z"/><path class="cls-284" d="M83.19,90.06l-.09-3.94,1-.11C85.59,87.77,84.45,88.93,83.19,90.06Z"/><path class="cls-246" d="M71.13,77c1.94,1.15,3.63,1.11,5.26-.69A7.23,7.23,0,0,1,81.15,74c-3.1,1.92-4.28,8.59-10,4Z"/><path class="cls-285" d="M123.14,69c-4-5.88-10-9.65-14.89-14.6-2.75-2.79-6.92-3.7-11.06-3.38.3-1.65-1-4.19,1.34-4.71,3.08-.68,7.36-.16,8.62,2.17,2.08,3.87,5.62,5.61,8.75,6.81,5.42,2.07,7.46,6.78,10.34,10.7C128.19,68.65,125.08,68.83,123.14,69Z"/><path class="cls-286" d="M97.19,56c5.26,2.27,10.55,4.48,15.77,6.83,2.51,1.13,4.58,9.41,3.19,12.15l-1.88,1.24c-.82-1-1.66-2-2.44-3.09-.37-.5-1-1.19-.85-1.64.85-3.24.9-3.22-2.72-5.14-2.11.63,1.17,3.36-1.44,3.78-1.42-6.06-4.29-7.89-9.64-6.15C97.18,61.33,97.19,58.67,97.19,56Z"/><path class="cls-287" d="M100.2,84.93c-.35-3.21-2.79-2.91-5-3-.48-3.89,1.35-4.84,3.87-2.21,1.9,2,5.58,1.81,6.08,5.25a2.39,2.39,0,0,1-3.09.05Z"/><path class="cls-288" d="M102.05,85l3.09-.05a13.89,13.89,0,0,1,.79,3.33c0,2-1.71,1.68-3,1.61-1.46-.08-2.25-1.06-1.34-2.32C102.3,86.69,102.68,86,102.05,85Z"/><path class="cls-199" d="M101.4,114.13,95.23,113c0-.34-.06-.68-.1-1,.78-.15,1.68-.2,1.53-1.35-.33-2.49-.35-2.48,2.49-1.68,2.5,0,4.64-.71,6-3l1.17-1.15a8.63,8.63,0,0,1,4.64,3.33,2.76,2.76,0,0,1-1.2.62c-3.69-.17-5.38,2.48-7.11,5.07A1.36,1.36,0,0,1,101.4,114.13Z"/><path class="cls-289" d="M72.15,86c-1.77,5.31-1,10.62,0,15.93a4.6,4.6,0,0,1-1,0,18.57,18.57,0,0,1-.07-16.88Z"/><path class="cls-258" d="M90.08,102c-.85,1.62-3.93.23-4,2.95-2.68-1.06-5.46-1.93-7.53-4.08-1.08-1.13-2.25-2.43.55-2.89.75,3.66,3.58,4.13,6.58,4.22C87.17,102.26,88.63,102.08,90.08,102Z"/><path class="cls-290" d="M75.08,90.07c2.12,1.42,4.31,2.57,7,1.69a13.11,13.11,0,0,1-3.26,4.69c-2-.43-1.21-2.76-2.64-3.46l-1-1h0Z"/><path class="cls-291" d="M92,99.93c-2.1-.56-5.37,1.48-6.36-1.81-.89-3,4.15-8.18,7.42-8.09s6.69.93,6.79,4.85C100,100.1,96.3,100.7,92,99.93Z"/><path class="cls-292" d="M110.33,108.09a1,1,0,0,0,.65.09c1.8,1.93,5.12,1.91,6.17,4.8l1,1c.54,2.63-1.48,4-3,5.19-5.21,4.11-10.36,8.65-17.88,6.75l0-5c4.09-3.07,9.47-4,12.78-7.92-3.94,2-7.2,6.46-12.77,5l1-2.89c1.08-.31,2.34,0,3.22-1a.75.75,0,0,0,.74-.3C104.39,111.23,106.92,109,110.33,108.09Z"/><path class="cls-242" d="M127.09,117.15c-1.86-.81-3.82-1.45-5.22-3.05C124.14,114.21,126.11,114.83,127.09,117.15Z"/><path class="cls-293" d="M89.77,105.77c1.28-1.5,2.37-1.9,4.06-1.31C93,106.59,91.53,105.84,89.77,105.77Z"/><path class="cls-253" d="M122.14,47c-2.48,0-4.65-.68-6-3A11,11,0,0,1,122.14,47Z"/><path class="cls-252" d="M120.15,41a5.72,5.72,0,0,1,5,2A5.79,5.79,0,0,1,120.15,41Z"/><path class="cls-194" d="M100.24,136c-1.42-.12-2.66,0-2.8-1.29-.2-2,1.69-2,2.76-2.16,6.38-.9,11.76-3.92,16.93-7.53a19.14,19.14,0,0,0,5.45-5.67c.63-1,1.76-1.88,2.86-.82s-.23,1.71-.78,2.45C118.4,129.33,109.62,133.52,100.24,136Z"/><path class="cls-294" d="M119.15,115c2.58.42,3.67,1.36,1.64,3.86-5,6.09-11.77,9.31-18.88,11.89-1.92.7-4.92,1.17-4.73-2.75C105.56,125.45,113.39,122,119.15,115Z"/><path class="cls-295" d="M119.15,115c-5.09,8.11-12.62,12.09-22,13,0-.68,0-1.36,0-2,8.69-1,15.75-4.8,20.92-11.94Z"/><path class="cls-296" d="M97.22,118c5.73-.85,9.91-4.79,15-7.13-3.15,6-8.62,8.69-15,10.08C97.21,120,97.21,119,97.22,118Z"/><path class="cls-297" d="M75.14,92c-.48,1.69-1,3.39-1.55,5.42-2.26-1.86-1.8-4.38-1.14-6.18.56-1.54,1.66.74,2.69.75Z"/><path class="cls-258" d="M110.33,108.09c-2.48,2.27-4.88,4.66-8.19,5.74C103.24,109.6,105.44,106.93,110.33,108.09Z"/></g></g></svg>