<svg xmlns="http://www.w3.org/2000/svg" viewBox="0 0 185.44 186.96"><defs><style>.cls-1{fill:#fdfdfd;}.cls-2{fill:#6a4d2b;}.cls-3{fill:#563f22;}.cls-4{fill:#533e21;}.cls-5{fill:#584223;}.cls-6{fill:#5e4724;}.cls-7{fill:#6a522c;}.cls-8{fill:#5a4622;}.cls-9{fill:#baaf76;}.cls-10{fill:#5a4521;}.cls-11{fill:#543d1e;}.cls-12{fill:#553f20;}.cls-13{fill:#6b542c;}.cls-14{fill:#685126;}.cls-15{fill:#674f29;}.cls-16{fill:#4e3b21;}.cls-17{fill:#674c26;}.cls-18{fill:#4a371e;}.cls-19{fill:#493720;}.cls-20{fill:#9e8253;}.cls-21{fill:#674c23;}.cls-22{fill:#89773e;}.cls-23{fill:#6b522c;}.cls-24{fill:#6b5029;}.cls-25{fill:#695333;}.cls-26{fill:#ccbc88;}.cls-27{fill:#998f56;}.cls-28{fill:#aeaa9e;}.cls-29{fill:#775631;}.cls-30{fill:#927040;}.cls-31{fill:#5c4426;}.cls-32{fill:#89683b;}.cls-33{fill:#755531;}.cls-34{fill:#3e3731;}.cls-35{fill:#837844;}.cls-36{fill:#31281e;}.cls-37{fill:#372c20;}.cls-38{fill:#7a5113;}.cls-39{fill:#a3975c;}.cls-40{fill:#89673b;}.cls-41{fill:#8c6b3c;}.cls-42{fill:#74532f;}.cls-43{fill:#7a5a34;}.cls-44{fill:#7a5a33;}.cls-45{fill:#45371c;}.cls-46{fill:#6d4f2c;}.cls-47{fill:#2d261f;}.cls-48{fill:#9f7e4a;}.cls-49{fill:#8f6d3e;}.cls-50{fill:#7d5d34;}.cls-51{fill:#aa8a55;}.cls-52{fill:#a5844f;}.cls-53{fill:#8c6d3d;}.cls-54{fill:#967746;}.cls-55{fill:#8f7040;}.cls-56{fill:#785b34;}.cls-57{fill:#c7b77f;}.cls-58{fill:#cfbd8a;}.cls-59{fill:#896a3c;}.cls-60{fill:#b29562;}.cls-61{fill:#967b46;}.cls-62{fill:#bfa571;}.cls-63{fill:#cebc89;}.cls-64{fill:#aea068;}.cls-65{fill:#8d6f42;}.cls-66{fill:#816138;}.cls-67{fill:#b99e6a;}.cls-68{fill:#926f3f;}.cls-69{fill:#7a5d34;}.cls-70{fill:#b4a16a;}.cls-71{fill:#48371f;}.cls-72{fill:#9c7d49;}.cls-73{fill:#c1b07d;}.cls-74{fill:#a0975e;}.cls-75{fill:#92884f;}.cls-76{fill:#b5b2a7;}.cls-77{fill:#463b2e;}.cls-78{fill:#715734;}.cls-79{fill:#88683c;}.cls-80{fill:#514320;}.cls-81{fill:#7f5f36;}.cls-82{fill:#726529;}.cls-83{fill:#9f9458;}.cls-84{fill:#2e271e;}.cls-85{fill:#6a5529;}.cls-86{fill:#c2b47a;}.cls-87{fill:#9b9055;}.cls-88{fill:#615220;}.cls-89{fill:#b39560;}.cls-90{fill:#7f6437;}.cls-91{fill:#6e502d;}.cls-92{fill:#d5c790;}.cls-93{fill:#b3a76a;}.cls-94{fill:#70502d;}.cls-95{fill:#9b9155;}.cls-96{fill:#c2b67c;}.cls-97{fill:#7e5e35;}.cls-98{fill:#433420;}.cls-99{fill:#b0a069;}.cls-100{fill:#6d6129;}.cls-101{fill:#7b6033;}.cls-102{fill:#a59b5e;}.cls-103{fill:#806137;}.cls-104{fill:#927445;}.cls-105{fill:#afaca0;}.cls-106{fill:#4b3a1f;}.cls-107{fill:#6f5e48;}.cls-108{fill:#6e5430;}.cls-109{fill:#8e6f3f;}.cls-110{fill:#3d362e;}.cls-111{fill:#302612;}.cls-112{fill:#c2bfb4;}.cls-113{fill:#b5b3a7;}.cls-114{fill:#372b1a;}.cls-115{fill:#a29e92;}.cls-116{fill:#524433;}.cls-117{fill:#302a24;}.cls-118{fill:#a07f4c;}.cls-119{fill:#71572f;}.cls-120{fill:#584f40;}.cls-121{fill:#b69863;}.cls-122{fill:#b1a46c;}.cls-123{fill:#483e32;}.cls-124{fill:#775932;}.cls-125{fill:#4d4336;}.cls-126{fill:#8e6c3d;}.cls-127{fill:#b7ac71;}.cls-128{fill:#805f36;}.cls-129{fill:#a69a60;}.cls-130{fill:#a2955c;}.cls-131{fill:#aba89e;}.cls-132{fill:#867b41;}.cls-133{fill:#4c3c1f;}.cls-134{fill:#625230;}.cls-135{fill:#745430;}.cls-136{fill:#9c7a47;}.cls-137{fill:#aa9c63;}.cls-138{fill:#ab9f65;}.cls-139{fill:#8a6b3f;}.cls-140{fill:#c1ab77;}.cls-141{fill:#7b5b34;}.cls-142{fill:#aca165;}.cls-143{fill:#604d27;}.cls-144{fill:#4e4336;}.cls-145{fill:#4b4238;}.cls-146{fill:#54493a;}.cls-147{fill:#674a2a;}.cls-148{fill:#463d32;}.cls-149{fill:#9b7b47;}.cls-150{fill:#745930;}.cls-151{fill:#5d513e;}.cls-152{fill:#c4ac77;}.cls-153{fill:#856d39;}.cls-154{fill:#d3c18e;}.cls-155{fill:#cab580;}.cls-156{fill:#b2935d;}.cls-157{fill:#3b332c;}.cls-158{fill:#ac8c57;}.cls-159{fill:#c4c1b6;}.cls-160{fill:#a9a69a;}.cls-161{fill:#bbb8ad;}.cls-162{fill:#949086;}.cls-163{fill:#3f3b37;}.cls-164{fill:#755d40;}.cls-165{fill:#a59461;}.cls-166{fill:#302a25;}.cls-167{fill:#b39660;}.cls-168{fill:#48361e;}.cls-169{fill:#2b2112;}.cls-170{fill:#b4b1a5;}.cls-171{fill:#765d3e;}.cls-172{fill:#544a3a;}.cls-173{fill:#836a3f;}.cls-174{fill:#524620;}.cls-175{fill:#c6b17d;}.cls-176{fill:#d9cf9a;}.cls-177{fill:#312514;}.cls-178{fill:#967544;}.cls-179{fill:#c6ae7b;}.cls-180{fill:#7b6036;}.cls-181{fill:#544625;}.cls-182{fill:#cfc486;}.cls-183{fill:#755731;}.cls-184{fill:#c8b17d;}.cls-185{fill:#322514;}.cls-186{fill:#504028;}.cls-187{fill:#997a47;}.cls-188{fill:#ccb684;}.cls-189{fill:#ad9f66;}.cls-190{fill:#46381f;}.cls-191{fill:#cec08c;}.cls-192{fill:#5b4f3f;}.cls-193{fill:#bfbcb0;}.cls-194{fill:#c7c6be;}.cls-195{fill:#725a39;}.cls-196{fill:#584d3b;}.cls-197{fill:#483721;}.cls-198{fill:#69502d;}.cls-199{fill:#493821;}.cls-200{fill:#251b0f;}.cls-201{fill:#f6f3eb;}.cls-202{fill:#e1dfd3;}.cls-203{fill:#e8e5da;}.cls-204{fill:#edebe0;}.cls-205{fill:#ccc9bf;}.cls-206{fill:#d2d0c8;}.cls-207{fill:#d7d4c8;}.cls-208{fill:#dbd9d1;}.cls-209{fill:#f1efe5;}.cls-210{fill:#cbc8be;}.cls-211{fill:#675033;}.cls-212{fill:#2a2116;}.cls-213{fill:#464037;}.cls-214{fill:#3e362d;}.cls-215{fill:#a09c90;}.cls-216{fill:#aaa79b;}.cls-217{fill:#2e2824;}.cls-218{fill:#c8bd86;}.cls-219{fill:#c1beb2;}.cls-220{fill:#3b2e1e;}.cls-221{fill:#3a2d1b;}.cls-222{fill:#968a52;}.cls-223{fill:#b1aea2;}.cls-224{fill:#918d82;}.cls-225{fill:#cac8be;}.cls-226{fill:#ccc9bd;}.cls-227{fill:#9c9589;}.cls-228{fill:#c4c1b8;}.cls-229{fill:#e0ddd2;}.cls-230{fill:#614c32;}.cls-231{fill:#847b6d;}.cls-232{fill:#7d5e35;}.cls-233{fill:#867863;}.cls-234{fill:#352d22;}.cls-235{fill:#362816;}.cls-236{fill:#291e11;}.cls-237{fill:#1a130a;}.cls-238{fill:#c1beb3;}.cls-239{fill:#a3a094;}.cls-240{fill:#c8c6bf;}.cls-241{fill:#cecbc0;}.cls-242{fill:#795e3b;}.cls-243{fill:#474036;}.cls-244{fill:#554a3b;}.cls-245{fill:#33281a;}.cls-246{fill:#362d22;}.cls-247{fill:#c2a774;}.cls-248{fill:#624b2f;}.cls-249{fill:#8f6e3e;}.cls-250{fill:#282015;}.cls-251{fill:#4a3921;}.cls-252{fill:#392a18;}.cls-253{fill:#84693f;}.cls-254{fill:#867557;}.cls-255{fill:#7c5f39;}.cls-256{fill:#f3f0e7;}.cls-257{fill:#f5f2e9;}.cls-258{fill:#372917;}.cls-259{fill:#685131;}.cls-260{fill:#d8d5ca;}.cls-261{fill:#d2d0c4;}.cls-262{fill:#d9d7cc;}.cls-263{fill:#e0ddd0;}.cls-264{fill:#292016;}.cls-265{fill:#f2f0e6;}.cls-266{fill:#ece9de;}.cls-267{fill:#e5e2d7;}.cls-268{fill:#483824;}.cls-269{fill:#b3b0a5;}.cls-270{fill:#bab7ac;}.cls-271{fill:#dedcd0;}.cls-272{fill:#d9d6c9;}.cls-273{fill:#33291b;}.cls-274{fill:#d2d0c5;}.cls-275{fill:#e0ddd1;}.cls-276{fill:#e7e4d8;}.cls-277{fill:#d3d1c5;}.cls-278{fill:#ada99e;}.cls-279{fill:#c0bdb1;}.cls-280{fill:#cac7bd;}.cls-281{fill:#d0cec5;}.cls-282{fill:#ccc8bd;}.cls-283{fill:#eae7dc;}.cls-284{fill:#eeece1;}.cls-285{fill:#503e27;}.cls-286{fill:#f3f0e6;}.cls-287{fill:#edeadf;}.cls-288{fill:#e4e0d5;}.cls-289{fill:#45351f;}.cls-290{fill:#d0cec6;}.cls-291{fill:#dad8d0;}.cls-292{fill:#322c26;}.cls-293{fill:#d9d6ca;}.cls-294{fill:#e6e3d9;}.cls-295{fill:#f3f0e5;}.cls-296{fill:#f6f3ea;}.cls-297{fill:#6c5335;}.cls-298{fill:#5e4b32;}.cls-299{fill:#5e5446;}.cls-300{fill:#3d2d19;}.cls-301{fill:#231a0f;}.cls-302{fill:#877652;}.cls-303{fill:#a09b8d;}.cls-304{fill:#634a2a;}.cls-305{fill:#ebe9de;}.cls-306{fill:#776d5f;}.cls-307{fill:#382c1d;}.cls-308{fill:#746041;}</style></defs><g id="Layer_2" data-name="Layer 2"><g id="Layer_7_Image" data-name="Layer 7 Image"><path class="cls-1" d="M104.3,0l1,1.92c-1.63,1.85-3.87,1.21-5.89,1.45a10.73,10.73,0,0,1-5.15-.49c-3.08-1.32-6,1.38-9,.48-1.74-.19-3.64.17-4.93-1.48l1-1.88Z"/><path class="cls-2" d="M184.14,100c0,.94-.09,1.88-.14,2.82-.07.46-.15.92-.23,1.38-.41,2.11,0,4.3-.66,6.38-1,1.37.84,3.75-1.62,4.62-1.76-1.27-1.4-3.29-1.82-5.05a14,14,0,0,1,.74-4.52,9.86,9.86,0,0,0,.34-4.25,11,11,0,0,1-.09,2.93,3.07,3.07,0,0,1-3.66,2.49c-1.77-.16-2.55-1.35-2.63-3-.1-2,.2-3.93-.21-5.88a6.9,6.9,0,0,1,.66-4.4c2.31-1.79,1.71,1.58,3.65,1.79-.91-5,3.16-10.81-3.75-14.4-1.4-.72-1.66-2.41-.48-3.85,0-.52,1.44.52.82-.76a1.11,1.11,0,0,1,.87-.63,1.15,1.15,0,0,0-.86,0,2.28,2.28,0,0,1-2.11-.55c-1.37-2.17-1.06-5.57-4.54-6.19-2.6-.5-1.56-4.7-4.73-4.64a2.43,2.43,0,0,1-1.24-1.64c-.23-2.28.58-3.83,3-4.25,2.16,1.12,4.18-.72,6.31-.32,2.68.6,3.22,2.9,4,5,.72,2,.74,4.13,1.62,6.07.27.59.1,1.89,1.21.54a1.69,1.69,0,0,1,1.28.56,14,14,0,0,1,1.82,5.68c1,6,1.89,12,1.48,18.14C183,96,182.39,98.26,184.14,100Z"/><path class="cls-3" d="M37.31,167.14l-1.84-1.26c-4.48-2.8-8.65-5.91-11.2-10.72l-.12-.18a10.44,10.44,0,0,1-4.62-5.19v0A2.52,2.52,0,0,1,18,147.1a2.37,2.37,0,0,1,1.35-1.44,3.09,3.09,0,0,1,2.49.89,9,9,0,0,1,1.36,1.54c3.4,4.59,7.8,8.22,11.78,12.25a127.85,127.85,0,0,0,10.94,8A56,56,0,0,0,56.68,174c1.77.64,3.58,1.2,5.3,2,3,1.62,6.34,2.14,9.52,3.17,1.66.86,4.12.16,5,2.51-.58,1.43-1.94,1.39-3.13,1.67a1.92,1.92,0,0,1-2-.4h0c-2.36-.49-5,.26-7-1.78-1.06-.4-2.47.23-3.21-1.11-.84-.58-2.1,0-2.78-1l-.09,0A9.07,9.07,0,0,1,53.32,177c-.85-.12-1.74-.16-2.22-1.07-1.11-.93-2.82-.69-3.79-1.91L44.08,172A17.73,17.73,0,0,1,37.31,167.14Z"/><path class="cls-4" d="M122.19,6.21c.38.94,1.2,1,2,1,4.29.21,7.71,2.42,11.06,4.8l.05,0a30.75,30.75,0,0,1,12.85,8.09h0c4.37,2.56,8.35,5.55,11,10l.95,1c2.32.91,3.08,3.07,4.07,5.06l3.21,5.77c-.09,1.92-1.13,1.7-2.36,1.06-1.11-1.35-1.8-3.05-3.32-4.07a5.66,5.66,0,0,1-1.21-1.5,9.93,9.93,0,0,0-2.93-3.91c-1.42-1.31-3.16-2.26-4.3-3.87-1.63-1.92-3.84-3.16-5.63-4.88-2.35-1.7-4.56-3.59-7.06-5.07-3.91-2.8-8.39-4.56-12.59-6.83-2.56-.86-4.74-2.81-7.66-2.58a15,15,0,0,1-2.13-.14,8.36,8.36,0,0,1-4.53-2.33,1.69,1.69,0,0,1-.44-2c.94-1,2.3-.89,3.43-1.39A7.56,7.56,0,0,1,122.19,6.21Z"/><path class="cls-5" d="M45.43,14.27a1,1,0,0,0,.88-.38c1.06-2,3.26-2,4.94-2.86l.11,0c1.92-.83,3.35-2.78,5.75-2.48,1.79-.06,3,.3,2,2.49a4.86,4.86,0,0,1-1.56,1.5,6.66,6.66,0,0,1-1.3.52c-2.69.54-4.79,2.27-7.11,3.55A38.27,38.27,0,0,1,46,18.8a23,23,0,0,0-3.25,1.91c-.49.41-1,.79-1.54,1.16-2.69,1.51-4.06,4.64-7.06,5.77a11.93,11.93,0,0,0-3.91,4.17,9.93,9.93,0,0,1-.79,1.13c-2.62,2.94-5.45,5.68-8,8.7-1.38,1.64-3.53,3.83-4.7-.44a6,6,0,0,1,2.78-4v0C23.4,30.51,29.07,25.56,35.14,21c.37-1,1.37-.93,2.17-1.19C39.69,17.49,42.09,15.19,45.43,14.27Z"/><path class="cls-6" d="M139.21,172.77c-.81.09-1.67.08-2,1.09-1.5,2-3.72,2.55-6,3.06l-5,2.18a1.25,1.25,0,0,1-1.25.14A2.16,2.16,0,0,1,124,177.6c.27-1.21,1.26-1.81,2.15-2.49,2-1.32,4.59-1.53,6.54-3.05a44.77,44.77,0,0,0,5.17-2.84c2.56-1.64,5.34-2.91,7.65-4.92a20.08,20.08,0,0,1,3.2-3.25,31.86,31.86,0,0,0,7.14-5.79c4-3.5,6.13-8.6,10.52-11.7a1.87,1.87,0,0,1,2,.45l-1,3c-.5,1.1-.64,2.45-2.06,2.9h0c-1.58,2.68-2.92,5.57-6,7l0,0c-.67,1.31-1.34,2.62-3,3h0C151.37,165.27,146.05,170,139.21,172.77Z"/><path class="cls-7" d="M58.28,10.89C59,9.67,58.79,9,57.26,9c-.46-.57-.33-.84.41-.82a.51.51,0,0,0,.64-.27C59,7,60.16,7.46,61,6.93l1.34-1a3.23,3.23,0,0,1,3.15-.54,1.1,1.1,0,0,0,.84-.47c1.47-1.43,3.54.39,5-.93L77.18,3c2.86-.87,5.78-.3,8.67-.37C86.25,6.46,83,5.45,81,6.24c-1.75.16-3.58-.12-5.16,1-4.08,1.38-8.46,2-12.1,4.54C61.8,12.29,59.87,12.63,58.28,10.89Z"/><path class="cls-8" d="M179.31,70l-1,0c-2.67-2.55-1.8-6.47-3.61-9.4-.89-1.45-1.21-3.26-3.4-1.58-1.67-1.44-3.38,3.35-5,0-.44-1.42.83-1.87,1.49-2.67a22.43,22.43,0,0,0,2.78-3.58c.69-.87,1.28-1.84,2.45-2.14a.94.94,0,0,1,1,.67l0,0c2.06,1.55,3.39,3.47,3.12,6.2.27.91-.21,2.12,1.06,2.64A7.14,7.14,0,0,1,180.4,66l.06,1c.58,1,1.54,1.91.81,3.23A1.54,1.54,0,0,1,179.31,70Z"/><path class="cls-9" d="M165.16,42.14c.87.9,1.67,1.16,2.29-.25l.85.1a2.39,2.39,0,0,1,1.49,2.84c-1.18,2.73-3.9,1.17-5.73,2.08a19.88,19.88,0,0,0-2.34,2.15c-2.05,1.63-3.3,4.61-6.7,3.93a6.5,6.5,0,0,1-1.08-4.69,3.32,3.32,0,0,1,1.42-1.43c1.55-.94,2.37-2.63,3.79-3.71C161,42,162.93,41.15,165.16,42.14Z"/><path class="cls-10" d="M109.06,183.84l-3.76,1.1c-3.81,1.82-8,.51-11.93,1.51-2.48-.6-3-1.85-1-3.55,1.48-1.23,3.57-1.58,4.8-3.21a9.92,9.92,0,0,1,2.07-2,2.09,2.09,0,0,1,2.42,2,3.74,3.74,0,0,1-2.11,3.06c1.85-1,3.23-1.84,4.93-1.45s3.34.3,4.76,1.37A.71.71,0,0,1,109.06,183.84Z"/><path class="cls-11" d="M184.14,100c-.66.24-1.54,2.58-1.87-.24-.66-5.65.4-11.35-.85-17-.47-2.18-.61-4.51-1.11-6.74a1.13,1.13,0,0,1,1.22-.28,3.92,3.92,0,0,1,1.05.85,4.65,4.65,0,0,1,.56,1.22c.38,1.69.18,3.45.63,5.14.1.41.18.83.24,1.25Q184.07,92.07,184.14,100Z"/><path class="cls-1" d="M18.3,147c.4.93.81,1.86,1.22,2.79a26.42,26.42,0,0,1-10-12.2c-.6-1.48-2.81-3.56-.83-5.74,1.79.06,2.46,1.63,3.55,2.63,1.38,1.68,1.29,4,2.56,5.74.64,1,1.24,2.07,1.92,3.06a14.63,14.63,0,0,1,1,1.47A4.49,4.49,0,0,1,18.3,147Z"/><path class="cls-1" d="M92.32,185.82c4.32-.44,8.6-1.41,13-.88a4.78,4.78,0,0,1-3.83,2c-5.76.08-11.54.08-17.3,0A4.93,4.93,0,0,1,80.31,185c1.32-1.48,3.12-1.27,4.84-1.36A9.66,9.66,0,0,1,92.32,185.82Z"/><path class="cls-12" d="M8.29,56l1-2.22c.6-.82.52-2.6,2.36-1.7a3.76,3.76,0,0,1,.64,1.3c.45,3.07-.85,5.73-2,8.42-.41.86-.84,1.71-1.2,2.6-.86,1.55-.54,4.08-3.31,4.11A1.77,1.77,0,0,1,4.42,67a6.87,6.87,0,0,0,.91-4C6,60.51,6.47,58,8.29,56Z"/><path class="cls-1" d="M35.14,21,19.48,37.14C22.36,29.49,28.08,24.6,35.14,21Z"/><path class="cls-1" d="M139.21,172.77l17-12.86c-1,5.67-6.72,6.64-10.07,10C144.47,171.56,142.59,174.46,139.21,172.77Z"/><path class="cls-13" d="M11.22,134.92c-.83-1-1.67-2.06-2.5-3.1a1,1,0,0,0-.45-.84c-1.71-3-3.52-6-3.37-9.73.34-1,.52-2,1.6-2.5,3.65,2.35,3.76,6.56,5.26,10C12.37,130.9,13.11,133,11.22,134.92Z"/><path class="cls-14" d="M173.09,139.88l-1.93,1a.73.73,0,0,1-1.15,0,2.76,2.76,0,0,1-.29-2,17.35,17.35,0,0,0,1.5-5,7.75,7.75,0,0,1,1.21-3.11,21,21,0,0,0,1.27-2.39c.65-1.23,1-2.81,2.83-2.84a1.9,1.9,0,0,1,1.4,1.57c-.8,3.12-1,6.52-3.83,8.74h0C173.68,137.18,174.84,138.89,173.09,139.88Z"/><path class="cls-1" d="M11.24,52.06l-2,1.71c-1.28-6.23,2.54-9.7,7-12.84l.48.56C16.7,46,13.75,48.89,11.24,52.06Z"/><path class="cls-15" d="M6.46,118.7A2.78,2.78,0,0,1,5.29,121c-.55.43-.82.3-.83-.4a.44.44,0,0,0-.19-.64,5.17,5.17,0,0,1-1-3l-.18-1c-.92-.85-.18-2.09-.73-3l0,0a4.05,4.05,0,0,1-.48-3.77,2.26,2.26,0,0,1,1.31-.86,3.23,3.23,0,0,1,1.57.16c2.38,1.58,1.51,4.34,2.38,6.47C7.38,116.27,7.48,117.59,6.46,118.7Z"/><path class="cls-1" d="M181.38,115.23c1.18-1.46,1.11-3.17,1-4.88,1.16-2.35-.32-5,.95-7.37a1.68,1.68,0,0,1,.69-.18c.13.11.33.18.38.31,1.62,4-.63,13.66-3.91,16.87-1.21-.93-.68-2.06-.37-3.17A2.83,2.83,0,0,1,181.38,115.23Z"/><path class="cls-1" d="M109.06,183.84a4.2,4.2,0,0,1,.45-.8,3.42,3.42,0,0,1,1.85-1.31c4.71-.57,8.86-3.86,13.89-2.88l1,.25C121.3,183.42,115.37,184.32,109.06,183.84Z"/><path class="cls-1" d="M148.18,20.1,135.33,12C139.91,11.84,146.39,15.93,148.18,20.1Z"/><path class="cls-1" d="M24.27,155.16l11.2,10.72C30,164.15,25.9,160.93,24.27,155.16Z"/><path class="cls-16" d="M116.29,5.15c-.8,1-2,.81-3,.86-3.28,1.75-6.53-.1-9.79-.08C102,5.28,100,5.45,99.12,3.55c2.61-2,5.43-1,8.22-.55h2C111.54,4.11,114.4,3.08,116.29,5.15Z"/><path class="cls-17" d="M181.1,116.83c-.06,1.08-1.15,2-.63,3.15l-.07,1c.09,2.59-.51,4.85-2.94,6.25L176.29,126a2,2,0,0,1-.62-1.23,13.35,13.35,0,0,1,.42-2.8c1.1-2.81,1.11-6.12,3.8-8.2C181.44,114.32,180.33,116,181.1,116.83Z"/><path class="cls-1" d="M177.46,127.25c2.13-1.54,1.32-4.47,2.94-6.25.21.25.64.58.59.74-1.69,5-1.92,10.72-6.89,14.12A35,35,0,0,0,177.46,127.25Z"/><path class="cls-1" d="M159.22,30.1l-11-10C153.42,21.73,157.62,24.48,159.22,30.1Z"/><path class="cls-1" d="M169.22,45c-.3-1-.61-2-.92-3,3.9.33,7.21,5.74,5.66,9.25a.65.65,0,0,1-.66-.2C171.75,49.17,169.31,47.91,169.22,45Z"/><path class="cls-18" d="M3.16,71l.15-1a2.72,2.72,0,0,1,2.55-1.3,2.11,2.11,0,0,1,1.26,1.8c-.68,2.92.37,6.65-3.68,8A2.09,2.09,0,0,1,2,77.9,4.27,4.27,0,0,1,2.31,74h0C3,73.09,2.2,71.8,3.16,71Z"/><path class="cls-19" d="M2.42,78h.92a11,11,0,0,1-.53,11.86A1.45,1.45,0,0,1,1.16,90c-.41-1.73-.69-3.45.17-5.14a2.52,2.52,0,0,1,.11-2.58C2.37,81,.87,79.15,2.42,78Z"/><path class="cls-1" d="M184,84.16a1.27,1.27,0,0,1-.71-.22c-1.27-2.21.24-4.78-.93-7l0,0c-.95-1.3-1.27-2.6,0-3.91C184.3,76.51,187.21,79.88,184,84.16Z"/><path class="cls-1" d="M116.29,5.15,109.35,3c4.37.73,9.46-1.44,12.84,3.22C120.12,6.43,118.43,4.55,116.29,5.15Z"/><path class="cls-1" d="M135.28,12l-11.06-4.8C129.13,6,132.3,8.76,135.28,12Z"/><path class="cls-20" d="M1.33,84.88c0,1.71,0,3.41,0,5.11,2.29,3.35,1.29,7,1,10.62a3.25,3.25,0,0,1-1,1.48A29,29,0,0,1,1.33,84.88Z"/><path class="cls-1" d="M45.43,14.27l-8.12,5.54C39.18,16.74,41,13.53,45.43,14.27Z"/><path class="cls-1" d="M4.46,120.61a2.89,2.89,0,0,1,.83.4c.07,3.6,2.57,6.47,3,10C4.81,128.33,4,124.71,4.46,120.61Z"/><path class="cls-1" d="M8.29,56a16,16,0,0,1-3,7C4.54,59.91,5.13,57.4,8.29,56Z"/><path class="cls-1" d="M37.31,167.14c2.35,1.5,5,2.62,6.77,4.87C40.21,172.62,38.7,170,37.31,167.14Z"/><path class="cls-1" d="M159.23,156.89l6-7C164.26,153.13,163.62,156.62,159.23,156.89Z"/><path class="cls-1" d="M2.42,78c-.33,1.44-.65,2.87-1,4.31C.7,79.42-.76,76.47,2.31,74,2.35,75.33,2.38,76.66,2.42,78Z"/><path class="cls-1" d="M57.67,8.16a2.11,2.11,0,0,1-.41.82c-2.32-.36-3.42,2.86-5.9,2C52.85,8.67,54.47,6.65,57.67,8.16Z"/><path class="cls-1" d="M64.33,181.11c2.24,1,4.91.27,7,1.78C68.59,184,66,184.47,64.33,181.11Z"/><path class="cls-1" d="M2.39,108.92c0,1.34,0,2.67,0,4-2.51-2.09-2.51-4.5-.92-7.12a1.18,1.18,0,0,1,1.27.4A2.31,2.31,0,0,1,2.39,108.92Z"/><path class="cls-1" d="M19.53,149.79A19.91,19.91,0,0,1,24.15,155C20.57,155.06,19.7,152.73,19.53,149.79Z"/><path class="cls-1" d="M180.4,66l-2.22-5.9C180.61,61.39,182.42,63,180.4,66Z"/><path class="cls-1" d="M177.12,57.42,174,51.22C176.74,52.43,179.16,53.81,177.12,57.42Z"/><path class="cls-21" d="M107.34,3c-2.63.51-5.46-.88-8,.87A1.08,1.08,0,0,1,98.11,4a1.26,1.26,0,0,1,.31-1.86l6.88-.26Z"/><path class="cls-22" d="M170.37,141a1.63,1.63,0,0,1,.79-.07c-.36,1.56-1.73,2.2-2.82,3.1l-2,.07c-.09-.24-.17-.48-.26-.71a3.69,3.69,0,0,1,2.24-2.87A2,2,0,0,1,170.37,141Z"/><path class="cls-1" d="M164.24,36.12c-2-1.16-2.66-3.41-4.07-5.06C163.28,31.33,164.41,33.2,164.24,36.12Z"/><path class="cls-1" d="M131.28,176.92l6-3.06C136.51,177.33,133.78,176.9,131.28,176.92Z"/><path class="cls-23" d="M86.18,3l-9,0c.74-1.23,2.13-.58,3.13-1.07l5.88.18c.37.21.5.42.37.63S86.31,3,86.18,3Z"/><path class="cls-1" d="M181.12,70.1c0-1.08-1.21-1.91-.66-3.11,2.25,1.14,3.09,2.75,1.66,5.09a.94.94,0,0,1-1.14-.17A1.66,1.66,0,0,1,181.12,70.1Z"/><path class="cls-1" d="M5.39,69,3.31,70c-1.7-1.77-1-2.65,1.11-3l1,1c.26.26.34.5.23.73S5.49,69,5.39,69Z"/><path class="cls-1" d="M71.36,182.9l2-.05a4.9,4.9,0,0,1,4.85.64,1.41,1.41,0,0,1,.27,1.35A8.57,8.57,0,0,1,71.36,182.9Z"/><path class="cls-1" d="M19.48,37.16c-.07,1.64-1.52,2.44-2.23,3.69-.2.52-.49.6-.89.19l-.11-.11C16.33,38.82,16.69,37,19.48,37.16Z"/><path class="cls-1" d="M53.32,177A8.62,8.62,0,0,1,58.25,179C55.69,180.69,54.49,178.9,53.32,177Z"/><path class="cls-1" d="M51.25,11a13.54,13.54,0,0,1-4.94,2.86C46.65,10.68,49,11,51.25,11Z"/><path class="cls-1" d="M71.33,4c-1.43,1.59-3.33.69-5,.93C67.37,1.33,69.8,5.1,71.33,4Z"/><path class="cls-1" d="M156.24,159.9a7.08,7.08,0,0,1,3-3C159.11,158.79,159.71,161.37,156.24,159.9Z"/><path class="cls-1" d="M173.09,139.88c.49-1.3-.4-2.94,1-4C174.83,137.46,176.75,139.35,173.09,139.88Z"/><path class="cls-24" d="M78.48,184.84c-.15-.27-.29-.54-.43-.82,2-1.86,4.25-1.54,6.53-.65a1.52,1.52,0,0,1,.71,1.48l-5,.13Z"/><path class="cls-1" d="M47.31,174.06c1.76-.35,2.8.74,3.79,1.91C49.6,175.81,47.63,176.57,47.31,174.06Z"/><path class="cls-25" d="M2.11,106.32a8.11,8.11,0,0,0-.65-.51c.63-1.27-1.45-2.41-.18-3.72L1.55,101C4.21,102.48,3.76,104.34,2.11,106.32Z"/><path class="cls-1" d="M58.34,179c1,.2,2.29-.53,2.78,1C59.83,180.67,58.5,181.47,58.34,179Z"/><path class="cls-1" d="M3.16,71c.17,1.12.45,2.28-.84,3C1.85,72.77.61,71.35,3.16,71Z"/><path class="cls-1" d="M2.4,113c1.17.79.85,1.93.73,3C.53,115.54,1.9,114.14,2.4,113Z"/><path class="cls-2" d="M181.38,71.74a3.82,3.82,0,0,0,.74.34.76.76,0,0,0,.24.91l0,3.91L181.28,76C180.64,74.55,180.36,73.13,181.38,71.74Z"/><path class="cls-1" d="M3.31,117c1.25.7,1,1.87,1,3C3.21,119.21,1.54,118.65,3.31,117Z"/><path class="cls-1" d="M61,6.93c-.58,1.18-1.68.93-2.67,1C58.51,5.67,59.7,6.16,61,6.93Z"/><path class="cls-1" d="M165.23,149.91a5.36,5.36,0,0,1,2.06-2.9C168.41,149.26,167.21,149.86,165.23,149.91Z"/><path class="cls-1" d="M65.47,5.41A3.4,3.4,0,0,1,62.32,6C63.19,4.73,64,3,65.47,5.41Z"/><path class="cls-26" d="M86.18,3a1.76,1.76,0,0,0,0-.94C89,3.7,91.64-.69,94.45,1.88,89.71,4.14,87.4,9.1,83.2,12c-4.67.76-9.15,2.36-13.85,3-2,.29-3.56.32-4.45-1.78a5.08,5.08,0,0,1-.54-1.42V11c1.14-3.25,4.32-3,6.79-3.86,1.33-.46,3,.24,4.17-1,1.6-1.31,3.69,0,5.35-1C82.72,5,84.71,4.66,86.18,3Z"/><path class="cls-27" d="M83.28,11.07c2.81-1.61,2.87-5.46,5.84-7,1.72-.91,3.24-2.19,5.33-2.16a5,5,0,0,0,4,.3c0,.6,0,1.2-.07,1.8-1.25,3.48-4.41.2-6.2,1.78a6,6,0,0,0-3.07,2.56,4.85,4.85,0,0,0,0,3.93,9.91,9.91,0,0,1,.35,2,12.52,12.52,0,0,1-.2,3.51A3.64,3.64,0,0,1,88.58,19c-2.07.71-3.47-.75-5.08-1.54-.92-.9-.49-2-.44-3a10.42,10.42,0,0,0-.21-2.36A1.21,1.21,0,0,1,83.28,11.07Z"/><path class="cls-28" d="M163.28,62.84l.81,1.3c3,2.42,3.34,5.85,3.61,9.31,1.08,10.43,2.77,20.84.94,31.36-.46,2.68-.15,5.67-3,7.38-2.39-1.79-1.26-4.19-1.1-6.41,1-13.25-.15-26.17-5.7-38.44-1.14-2.06-2.51-4-3-6.4A2.91,2.91,0,0,1,159,58.21C161.87,58.45,162.36,60.84,163.28,62.84Z"/><path class="cls-29" d="M175.29,93v5a2.48,2.48,0,0,1-3.23.12c-2.23-5.16-.81-10.78-2-16.1-.47-2.07-.35-4.28-1.36-6.25A12.83,12.83,0,0,1,168,73.4c-.12-1.81-1.28-3.68.27-5.41,5.5-.41,4.6,3.78,5,7,.57,2.94.83,6,2.84,8.45.83,3-.3,5.89-.7,8.81C175.4,92.5,175.34,92.74,175.29,93Z"/><path class="cls-30" d="M180.15,113.88l-3,9c-2.25.09-4.63-1.15-6.73.64a4.09,4.09,0,0,1-1.39.14,3.33,3.33,0,0,1-2.27-1.62,3.24,3.24,0,0,1,0-2.69c.87-1.46,2.83-.64,3.84-1.83.82-2,1.28-4.26,3.2-5.66.94-.74,2.28-1,2.84-2.19a7,7,0,0,1,1.25-2.12c1.06-.55,1.74-2,3.27-1.44l-.75,4.07C180.84,111.41,181.21,112.7,180.15,113.88Z"/><path class="cls-31" d="M175.29,84a13.36,13.36,0,0,1-2-9h4.3l-2.27,2h0c-1.94,1.73-.81,2.85.83,3.72.84.45,2,.4,2.7,1,2.67,2.26,1.25,13.38-1.93,15.5-1.42-1.07.09-3.32-1.67-4.25h0C173.79,90,177.35,87,175.29,84Z"/><path class="cls-32" d="M181.15,106.06l-2.94,2a8.35,8.35,0,0,1-3.14.43,2.93,2.93,0,0,1-2.12-1.31c-.5-1.25-2-1.67-2.49-3-.52-2.4-.39-4.6,1.87-6.14l2.95,0a4.76,4.76,0,0,1,.3,4.71c-.5,1.24-.58,2.78,1.3,3.11a2.51,2.51,0,0,0,3.25-2.24c.25-1.77.22-3.58,1-5.41Z"/><path class="cls-33" d="M171.3,59c.58-.93.69-2.44,2.06-2.45,1.14,0,1.39,1.29,1.69,2.16,1.27,3.7,3.08,7.25,3.26,11.27-2.08,1.77-2.28-.85-2.54-1.47-.74-1.75-.88-3.75-1.4-5.62C173.91,61.19,173.63,59.26,171.3,59Z"/><path class="cls-34" d="M168.27,68c.31,1.69.62,3.37.94,5.05-.65.59-.16,1.74-1.09,2.19-1.62.07-1-1.66-1.82-2.26.13-3.16-1.26-5.94-2.21-8.83.43-1.53.87-2.78,2.42-.68C167.53,64.84,166.73,66.86,168.27,68Z"/><path class="cls-35" d="M163.28,62.84c-1.28-1.36-2.2-3.09-4-3.88,1.54-4.65,5.3-4.45,9.1-4.16a1.6,1.6,0,0,1-.06,2.17l-2,2C163.84,59.15,163.25,60.75,163.28,62.84Z"/><path class="cls-36" d="M181.38,71.74c0,1.41-.07,2.82-.1,4.23l-.48,0h-.49c-.33-2-.67-4-1-6l1.81.11C181.21,70.65,181.29,71.2,181.38,71.74Z"/><path class="cls-37" d="M180.15,113.88c.08-1.25.16-2.5.25-3.75,1.67,1.44.42,3.44,1,5.09-.09.54-.18,1.07-.28,1.61C180,116.1,180.4,114.89,180.15,113.88Z"/><path class="cls-38" d="M183.31,103c-.29,2.46.71,5.08-.95,7.36C182.67,107.89,181.36,105.22,183.31,103Z"/><path class="cls-39" d="M175.34,77.05c1.13,0,2.32,0,2.4,1.56,0,.3-.6.92-.88.89-1.51-.14-1.48-1.34-1.5-2.46Z"/><path class="cls-40" d="M45.3,169a41.78,41.78,0,0,1-11-8,.88.88,0,0,1,0-1.33,6.57,6.57,0,0,1,3.52-1c3.07.46,3.64-1.31,3.41-3.81,5.58,1.35,9.71,5.48,14.84,7.76a69.45,69.45,0,0,0,8.21,3.56c2.49,1.3,5.24,2,7.79,3.13a12.44,12.44,0,0,1,2.55,2.31,4.06,4.06,0,0,1,1,3.18,2.09,2.09,0,0,1-1,.83,8.43,8.43,0,0,1-1.33.25c-2.44.78-4.79,1.55-6-1.9-.47-1.32-2.05-1.55-3.39-1.73a20.66,20.66,0,0,1-4.68-1.33C55.46,170,52,167.8,48,169.83,47.21,170.23,46.1,169.6,45.3,169Z"/><path class="cls-41" d="M34.46,159.75c-.06.42-.11.84-.16,1.26-4.44-3.94-9.12-7.66-12.1-13,.19-.68,1.71-.57,1.17-1.39-.33-.5-1.39.2-2.11.39l-1.87-1.16c-.77-3.76,2.23-2.74,4-3.22,3.09,0,5.29,1.23,6.31,4.28s4.25,4.89,5.48,7.94a14.51,14.51,0,0,0,1.33,3C36.79,159.55,35.3,159.29,34.46,159.75Z"/><path class="cls-42" d="M73.31,175l1,0c2.64.6,5.27,1.28,7.9,2a6.62,6.62,0,0,1,1.34.58A5,5,0,0,1,85,179.25c.36,1.41,1.62,2.89-.24,4.17-2.87-.16-5.82.11-8.43-1.5-1.27-1.82-3.83-.12-5.11-1.89C71,178,70.19,175.65,73.31,175Z"/><path class="cls-43" d="M73.31,175c-2.58.92-.18,3.87-2.08,5.07A27.06,27.06,0,0,1,61.32,177a1.82,1.82,0,0,1-.47-1.76c.44-.82,1.34-1.46,1.12-2.58.2-1.37,1.7-.87,2.32-1.63,2.13.59,4.17.75,4.82,3.83C69.83,178.24,71.93,172.33,73.31,175Z"/><path class="cls-44" d="M45.3,169c1.78-.35,4.12,1,5.11-1.77.36-1,1.45-1.23,1.94-.47,1.69,2.6,5,1.51,7,3.23a19.11,19.11,0,0,1-3,5C52.42,173.33,48.33,172.13,45.3,169Z"/><path class="cls-45" d="M24.2,143.9c-1.64.56-4.21-1.1-4.81,2L18.3,147c-.37-.53-.73-1.06-1.1-1.58-1.65-4.61,1.94-4.37,4.6-5,1.78-.67,2.87-2.18,4.15-3.45.91-.56,1.73-.16,2.55.27a7.72,7.72,0,0,1,2.12,1.65,2.49,2.49,0,0,1-1.28,3.47C27.65,142.92,25.85,143.15,24.2,143.9Z"/><path class="cls-46" d="M56.29,174.93c-.34-2.48.56-4.2,3-5l5,1-2,1.91c0,.87-.81,1.38-1,2.16l0,1.9Z"/><path class="cls-47" d="M76.34,181.92l8.88,1.14.3.38-.31.37-7.16.21-4.69-1.17C74.09,181.71,75.29,182,76.34,181.92Z"/><path class="cls-48" d="M21.26,147.05c.38-2.35,1.89-2.38,3.62-1.64a1.82,1.82,0,0,1,1.18,2.38c-1,2.05-2.58-.31-3.86.26C21.89,147.72,21.57,147.39,21.26,147.05Z"/><path class="cls-49" d="M128.3,12c4.6,1.83,9.18,3.69,13,7a.82.82,0,0,1,.35.7c0,.28-.06.41-.12.41-2.07,2,1.41,3.94,0,5.92a2.15,2.15,0,0,1-1.25.52c-2.32-.65-3.52-3-5.76-3.75-2.55-1.11-5-2.54-7.48-3.68s-4.31-2.88-4.45-5.87c0-.25.09-.5.13-.75a1.86,1.86,0,0,1,1-1.08A8.68,8.68,0,0,1,128.3,12Z"/><path class="cls-50" d="M135.3,22c2.19.67,3.6,2.32,5,4,1.44,1,3.14,1.12,4.81,1.33.9.07,1.87.43,2.43-.7.2-.9,0-1.92.75-2.63,2,1.69,4.52,2.71,6,5.05-3.8,1.71-2.85,4.17-1.05,6.76.49,1.66,1,3.34-1,4.47-6.13-3.32-11-8.18-15.85-13.08C136.2,25.43,134,24.08,135.3,22Z"/><path class="cls-51" d="M152.3,36c-4.13-5.28-3.92-6,1.95-6.94l4,4c1,1.31,2.08,2.58,3.05,3.92l.95,1.12c3,5-1.28,3.51-3.48,3.87C155.79,40.88,154.09,38.39,152.3,36Z"/><path class="cls-52" d="M114.3,7l3.94,2.12c1.36,2.42-.08,3.68-2,4.74A35.24,35.24,0,0,1,102.37,12a2.28,2.28,0,0,1-1.29-1.86c.71-1.1,1.85-1.18,3-1.3,1.76-.19,3.12.81,4.6,1.46-1.69-.92-2.22-2.05-.69-3.59C110.15,5.64,112.16,7.93,114.3,7Z"/><path class="cls-53" d="M148.29,24c.31,1,.61,2.07.91,3.11-1.24.73-2.67.59-4,.91-2.26.85-3.92.23-4.89-2h1c2.89-2-.46-4,0-6,0-.34,0-.68,0-1C144,20.12,146.12,22.11,148.29,24Z"/><path class="cls-54" d="M158.29,41c1.65-.5,5.22,1.61,4-2.88,1.66.84,3,1.9,2.91,4L159.3,44C158,43.33,157.25,42.46,158.29,41Z"/><path class="cls-55" d="M114.3,7c-2,2.25-4-.08-6,0-2.22,1.17-3.92.49-5.23-1.51.07-.25.14-.5.2-.74l10,1.26Z"/><path class="cls-55" d="M116.3,13a5.12,5.12,0,0,0,1.94-3.87L120.29,9c.86,1.14,3.36.59,3,2.94l-.1.1c-.94,1-2.32,1.12-3.45,1.76a5.79,5.79,0,0,1-1.88.75C117,14.47,116,14.41,116.3,13Z"/><path class="cls-56" d="M123.34,12l-3-2.94c3.2-.41,5.51,1.54,8,3Z"/><path class="cls-54" d="M161.3,37c-1.56-.88-2.88-2-3.05-3.92C159.9,33.89,161.14,35,161.3,37Z"/><path class="cls-57" d="M16.36,41l.89-.19c1,4.2,2.67,1.11,3.37,0a43.88,43.88,0,0,1,8.45-9c3.2-1.16,4.42-.31,3,3-.43,1-1.14,1.93-1.65,2.92-2.14,2.75-2,6.21-2.9,9.35-.26.21-.59.52-.84.44-6.32-2-10.87.2-14,5.81a1.5,1.5,0,0,1-1.27-.5,5.18,5.18,0,0,1-.11-.87C11.32,47.63,16,45.34,16.36,41Z"/><path class="cls-58" d="M41.19,20.92l1.11-.87c1.33-.21,2.38-1.06,3.57-1.59C50.28,15.85,51,16.1,52,20.61c-.52,1.43-1.82,2.1-2.92,3l-1.61,1.31c-2.39,1.3-4,4.1-7.25,3.77a3,3,0,0,1-1.9-2C37,23.62,39.58,22.51,41.19,20.92Z"/><path class="cls-59" d="M40.15,28.28c3-.45,4.37-3.47,7-4.49,1.53.46,3.65-1.63,4.65,1.1a2.69,2.69,0,0,1-.26,1.33,118.11,118.11,0,0,1-10.08,7.12,2.65,2.65,0,0,1-1.37-.05c-3.3-1-4.7-4-6.77-6.28,3.23-1.23,4.2-5.4,7.86-6.09-.22,1.91-3.43,2.66-2,5.2C38.66,27.22,38.52,28.15,40.15,28.28Z"/><path class="cls-60" d="M51.24,20.92c-.14-6.33-3.7-1.9-5.86-1.86-.34-.22-.45-.44-.34-.66s.22-.33.34-.33L48.31,16c2.74-.58,4.68-2.87,7.41-3.47,1.61,1.17,1.54,3.38,2.87,4.74-.52,2.07-2.31,2.74-4,3.58C53.51,21.18,52.38,21.73,51.24,20.92Z"/><path class="cls-61" d="M33.34,27c3.85.14,4.34,4.25,6.93,5.88a2.18,2.18,0,0,1-2,1.73c-1.76-.24-3.62.24-5.31-.66.82-3.54-1.93-2.61-3.68-2.94A10.79,10.79,0,0,1,33.34,27Z"/><path class="cls-62" d="M29.33,31c2,.22,2.83-2.05,4.56-2.42,1.11,2.09-.61,3.63-.59,5.39.12,2.79-1.23,4.1-4,4,.48-1.14.71-2.51,1.49-3.4,2.73-3.13-.43-2.26-1.72-2.68A2.32,2.32,0,0,1,29.33,31Z"/><path class="cls-63" d="M58.34,17c-3-.25-3-2-2.22-4.23-.24-.36-.16-.62.23-.78a6.42,6.42,0,0,0,.87-.09c3-1,3.17,1.31,3.74,3.16C60.79,16.69,60.39,18,58.34,17Z"/><path class="cls-64" d="M60.5,15c-1.47-.63-1.08-3.24-3.28-3.1l1.06-1,6.08.11,0-.06C65.17,14.29,63.93,15.68,60.5,15Z"/><path class="cls-7" d="M56.35,12c-.07.26-.14.52-.23.78-2.65.95-4.66,3.46-7.81,3.21C50.81,14.32,53,12,56.35,12Z"/><path class="cls-65" d="M45.38,18.07q0,.49,0,1c-.92.65-1.64,2-3.08,1C43,18.85,44.2,18.49,45.38,18.07Z"/><path class="cls-66" d="M166.3,144.08c-3.11,4.15-5.81,8.65-10,11.89-1.06.05-2.1.28-3.17.33-3.26.4-4.42-4-7.8-3.39,1.6-5.07,6.07-7.43,9.82-10.49a2.71,2.71,0,0,1,2.41,1.38c.54,3.12-2.17,4.85-3.24,7.46,3.27,0,4.82-2.28,6.33-4.56a11.71,11.71,0,0,1,2.83-3.24,2.51,2.51,0,0,1,2.78.34Z"/><path class="cls-67" d="M146.26,165l-7.9,5.15c-3.11.73-4.32-1.33-5.35-3.64a1.49,1.49,0,0,1,.79-1.05c1.24-.68,2.5.6,3.75,0,.39-.26.62-.7,1.06-.89-.68-.08-.92.72-1.56.78-1.81-.44-2.34-2-3.07-3.42.48-2.79,2.55-3.72,5-4.23.53.11.62.73,1.07,1,.15-.43-.1-.82-.11-1.25.59-1.72,1.64-2.85,3.57-2.85a2.22,2.22,0,0,1,1.62,2.11c0,2.11-1.08,4.2-.14,6.33A16.64,16.64,0,0,1,146.26,165Z"/><path class="cls-68" d="M133.25,166a12.44,12.44,0,0,0,5.11,4.11c-1.42,1.47-3.37,1.95-5.16,2.73-2.5-.45-4.23,2.58-6.87,1.53a14.33,14.33,0,0,1-2.84-3.13,5,5,0,0,1-1-4.22A2.26,2.26,0,0,1,124,165.5a2.53,2.53,0,0,1,1.35.23c.56,1.37,1.2,2.05,2.91,1.21C129.75,166.2,131.28,164.6,133.25,166Z"/><path class="cls-69" d="M124.31,171a3.1,3.1,0,0,1,2,3c.64.67,0,1.33,0,2l-2.06,1.91c-1.55,1.05-3.15,1.88-5.11,1.35a6.62,6.62,0,0,1-2-4.46,6.72,6.72,0,0,1,.28-2.6C119.2,168.9,121.68,169.51,124.31,171Z"/><path class="cls-70" d="M153.37,155c1.09,0,2.23-.23,2.92.95a17.58,17.58,0,0,1-7,5.92c-1.12-.76-2.59,1.47-3.59-.42a3.74,3.74,0,0,1,.18-3.37C148.08,156.44,151.82,158.4,153.37,155Z"/><path class="cls-71" d="M119.27,178.9l5-1,1,1a87.15,87.15,0,0,1-14,4c-.61-.66-2.09,0-2.18-1.47,2.12-2.53,5.55-1.53,8.06-3A2.62,2.62,0,0,1,119.27,178.9Z"/><path class="cls-72" d="M126.3,176c-1.08-.67-.09-1.33,0-2,2.51.91,4.06-3.95,6.88-1.14C131.43,175.05,128.48,174.66,126.3,176Z"/><path class="cls-73" d="M146.2,161.92c1-.1,2-1.55,3.05,0l-3,3.07a2.1,2.1,0,0,1-2.06-1.21C144.17,162.37,144.72,161.63,146.2,161.92Z"/><path class="cls-23" d="M80.67,5.11c-1.66,1-3.56.72-5.35,1C76.81,4.21,78.85,5.25,80.67,5.11Z"/><path class="cls-74" d="M169.22,45c1.26,2.07,4.5,2.79,4.08,6l-2,1.94c-1,.51-1.71,0-2.38-.69-.69-.86-1.12-1.9-1.76-2.79-.93-1.55-2.92-1.94-3.84-3.49C164.92,43.54,167.54,47.17,169.22,45Z"/><path class="cls-75" d="M169.59,52l1.69,1c-.86,1.43-1.11,3.32-3,4V55A2.14,2.14,0,0,1,169.59,52Z"/><path class="cls-76" d="M154.39,48.05a8.07,8.07,0,0,1,.91,4.72c-.45,2.11-1.7,3-3.86,2.62-5.31-8.12-12.73-14-20.63-19.37a15.31,15.31,0,0,0-4.15-3.27,2.1,2.1,0,0,1-.67-1.12c.51-1.41.34-3.12,1.78-4.13,4.76.51,8.24,3.66,12.1,6,1.67,1,3.22,2.24,4.83,3.35,2,1.26,3.45,3.1,5.44,4.33C152.28,43,155,44.5,154.39,48.05Z"/><path class="cls-77" d="M154.39,48.05a18,18,0,0,0-4.89-6.17c-1.76-1.78-3.18-3.93-5.64-4.9-8.86-7.13-18.38-13.09-29.37-16.39-1.26-.38-2.64-.53-3.54-1.67a2.2,2.2,0,0,1,.27-2.21,6.08,6.08,0,0,1,4.61-.81,14.45,14.45,0,0,1,3.66,1.27c6.18,2.83,13,4.44,17.77,9.9l15,13c2.89,1.82,5.44,3.81,4.11,7.84Z"/><path class="cls-78" d="M151.31,55c1.73,0,2.67-1.48,4-2.25,2.81-.56,3.7-3.55,6-4.75,1.42,1.47,5.58-1,5,3.43-6.12,4.36-12,9.16-19.52,11-2.06-2.07,2.05-2.91.95-4.79A3.41,3.41,0,0,1,151.31,55Z"/><path class="cls-79" d="M156.35,47.92c.26-3.47-3.27-5-4.11-7.84,1-1.35.11-2.73.06-4.09a19.79,19.79,0,0,1,6,5c.34,1,.67,2,1,3Z"/><path class="cls-80" d="M166.23,50.94c-.52-1.3-1.35-1.64-2.72-1.16s-2.12-.36-2.21-1.75l2-2c2,.33,4,.78,4.86,3.07C167.73,49.91,168.07,51.55,166.23,50.94Z"/><path class="cls-81" d="M117.32,179c-2,3-5.76,1-8.12,2.9-1.55,1-3.16.67-4.77.18s-3,1.88-4.34.24c-.51-.63.34-1.77,1.18-2.37.93-2.17-1.25-2.08-2.14-2.92-.36-1.32,1.6-2.6.05-4-.82-2.4.17-3.51,2.57-3.61,2.81,1.56,5.67-.1,8.5.13,3.19-.73,6.52-.91,9.49-2.48,1.13-.5,2.24-1.14,3.47-.28a7.58,7.58,0,0,0,1.1,4.13c-2,.66-5.09-1.59-6.07,2.12-.88.81-3.35-1.57-3.06,1.54C115.8,176.13,117.43,177.14,117.32,179Z"/><path class="cls-82" d="M85.29,184.85c0-.35-.05-.69-.08-1l.2,0c1.84-2.82-1.43-6,.7-8.84a1.91,1.91,0,0,1,1.94-.39c1.7,1.89.43,6.69,5.33,5.42,1.29-.65,2.07-2.22,3.78-2.13a2.45,2.45,0,0,1,1.19,2.2,7.14,7.14,0,0,1-4.76,3.28c-1.15.31-2.28.89-1.27,2.44C89.91,186,87.79,184,85.29,184.85Z"/><path class="cls-83" d="M98.35,180.1c-.87-.45-.92-1.3-1-2.12,0-.2-.09-.4-.13-.6-.28-1-.62-2,.31-2.91.8-.72,2-.75,2.78-1.46,4.34,2.26-1,2.58-.81,4,.25.24.33.47.23.69s-.19.33-.27.33Z"/><path class="cls-84" d="M104.43,182.07l4.77-.18,2.07,1-1.76.18C107.85,182.51,105.86,183.73,104.43,182.07Z"/><path class="cls-85" d="M99.44,178c0-.34,0-.68,0-1,2.2,0,3.83.34,1.79,2.92Z"/><path class="cls-2" d="M182.37,76.94c1.79,2.14.61,4.67.93,7C181.41,81.82,182.6,79.29,182.37,76.94Z"/><path class="cls-86" d="M11.22,134.92a7.84,7.84,0,0,0-.61-6,2.12,2.12,0,0,1,2.47-.42c.8-.68-.16,2.83,1.32.55A9.31,9.31,0,0,1,16,127.28a12.65,12.65,0,0,1,3.56-2,7.56,7.56,0,0,1,2.87-.32,5.94,5.94,0,0,1,4,1.84,1.76,1.76,0,0,1-.57,2c-2.2,2-5.12,2.14-7.75,3a6.51,6.51,0,0,0-3,2.31c-1.08,2.22,1.42,4.86-.8,6.94C12.2,139.52,12.8,136.67,11.22,134.92Z"/><path class="cls-87" d="M14.32,141c1.11-2.66-2.59-5.35,0-8,2.51,1.17,2.12,4.46,4.31,5.88a2.84,2.84,0,0,1,.17,1.38,13,13,0,0,0-2.61,3.89C15,143.45,15,142,14.32,141Z"/><path class="cls-88" d="M16.22,144.14c-.34-2,.87-3.13,2.19-4.24A4,4,0,0,1,22,138.77a2.29,2.29,0,0,1,1.27,2.16c-1.48,2.25-6.72-.66-6.1,4.46Z"/><path class="cls-89" d="M8.22,64c.35-.69.7-1.38,1.06-2.07a1.1,1.1,0,0,1,1.27-.09c3.34,3.07-.76,6.35.21,9.59-.27.5,1.13.29.51,0-.23-.1-.28-.2-.27-.3,0-1.38.64-1.65,1.77-.9a4.83,4.83,0,0,1-.61,5.19A2.86,2.86,0,0,1,10,76.57C5.83,76,6.47,73,6.84,70.19,7.64,68.2,7.71,66.05,8.22,64Z"/><path class="cls-90" d="M10.3,62l-1,0c.51-3,2.49-5.74,2.08-9,.26.09.53.17.79.24,1.75,1.46,1.42,3.35,1.08,5.24C12.69,60,12,61.41,10.3,62Z"/><path class="cls-91" d="M8.22,64a9.44,9.44,0,0,1-.88,6c-.32.43-.64.45-1,0l-1-1c0-.35.05-.71.08-1.06C8.13,67.85,6.68,64.89,8.22,64Z"/><path class="cls-92" d="M13.32,129l-2.71-.06q-2.07-5.11-4.15-10.22c-.07-1.21-.15-2.42-.23-3.63-.51-4.92-.51-4.92,4.77-4.57,2,1.28,2.19,3.54,2.9,5.51.42,1.36,1.63,1.95,2.65,2.74a4.24,4.24,0,0,1,.67,1.24c.68,3.08.31,5.9-2.07,8.21C14.69,128.81,14.2,129.35,13.32,129Z"/><path class="cls-93" d="M173.36,131l-1.17,3c-1.37,2.37-2.4.62-3.5-.29a19,19,0,0,0-2.54-1.92c-1.32-1-3.79-.31-4.11-2.79,1.18-2.33,3.56-2,5.57-2.51a5.62,5.62,0,0,1,1.42,0,7.57,7.57,0,0,1,2.59,1.09C172.69,128.42,173.8,129.3,173.36,131Z"/><path class="cls-94" d="M171.21,128l-2-.89c-1.72-1.42-1.51-2.8.06-4.16.33,0,.66,0,1,0,2.64-1.29,4.36.22,6,2,0,.34,0,.69,0,1-.66,1-1.31,2-2,3A11,11,0,0,1,171.21,128Z"/><path class="cls-95" d="M169.41,132.94c.84.56,1.3,2.19,2.78,1a6.39,6.39,0,0,1-1.79,5.12,3.82,3.82,0,0,1-1.91-2.47C168.21,135.24,168.15,133.92,169.41,132.94Z"/><path class="cls-96" d="M169.4,137l1,2,0,1.9-2.06,0c-1,.79-1.77.51-2.29-.6A3.84,3.84,0,0,1,169.4,137Z"/><path class="cls-97" d="M171.21,128c1,.32,2.8-1.71,3.12,1-.33.66-.65,1.32-1,2Z"/><path class="cls-98" d="M2.11,106.32c.36-1.85.69-3.69-.56-5.37a49,49,0,0,1-.24-11h1c2.82,2,2.16,5,2.35,7.78-.62,3.71,1.53,7.73-1.25,11.2l-1,0C2.3,108.05,2.21,107.19,2.11,106.32Z"/><path class="cls-99" d="M11.11,111.18c-2.82-.2-5.3,0-4.88,3.89-1.86-1.68-.1-4.46-1.87-6.17-1.21-2.32.43-2.48,2-2.69,2.19.55,3.65,2.09,5,3.74A1.08,1.08,0,0,1,11.11,111.18Z"/><path class="cls-20" d="M7.32,107c-1.38,0-2.85-.06-3,1.93a7.3,7.3,0,0,1-.94.06q-.06-5.5-.13-11a1,1,0,0,1,1.25-.1c1.25,1.43,1.44,3.3,2,5,.24.84.88,1.49,1.2,2.3A1.79,1.79,0,0,1,7.32,107Z"/><path class="cls-100" d="M101.42,9.92l.79,1.21a2,2,0,0,1,.51,2.57,1.14,1.14,0,0,1-1.22.45A3,3,0,0,1,100,11.33c-.48,2.22-1.11,4.72-4.67,4-1.26-1.28-.77-2.69-.26-4.07A3.42,3.42,0,0,0,93.8,7c-.83-.69-2-1-2.56-2,2.07-2.52,4.92.71,7.11-1l1-.11c1.31.21,2.78-.27,3.87.88l0,.42C101.87,6.44,102.57,8.54,101.42,9.92Z"/><path class="cls-97" d="M176.25,124.94l-6-2c2.25-3.16,4.57-2.47,6.91-.13Z"/><path class="cls-101" d="M4.29,98h-1a23.73,23.73,0,0,0-1-8c1.34-3.91,1.08-8,1-12,3.13-1.86,1.51-5.52,3-8,.33,0,.66,0,1,0-.36,2.69-.13,5.1,3,6.11,2.62,2.35,3,5,1,7.89-2.59.18-2-2.52-3.28-3.54C6.89,80,7,81.2,6.53,81.64c-1.51,2.28-.78,4.84-.89,7.29a14.59,14.59,0,0,1,0,1.48c0,1.56,0,3.11-.07,4.66A4,4,0,0,1,4.29,98Z"/><path class="cls-102" d="M166.3,140a2.15,2.15,0,0,0,2,1l-2.06,2.81-3,.24c-3.11-.14-5.51-1.32-6.65-4.42.2-1.57-.39-3.22.49-4.73,1.19-.6,2.19,0,3.19.51,1.65,1.28,2.68,3.39,5,3.75A2.44,2.44,0,0,1,166.3,140Z"/><path class="cls-103" d="M60.5,15c2.41-.3,3.48-1.85,3.81-4.09l1,1.07a7.18,7.18,0,0,0,3.28,5,1.74,1.74,0,0,1-.36,1.37c-4.57,3-10.06,3.94-14.63,6.88A1.83,1.83,0,0,1,51.32,25c-.92-2-3.31,1-4.15-1.22l1-.87A18.25,18.25,0,0,0,54.31,20l4-3C59.71,17.06,60.3,16.25,60.5,15Z"/><path class="cls-104" d="M68.37,17c-3.28-.3-3.1-2.71-3.07-5,1,1.49,1.66,2.1,4.06,1.79,4.73-.61,9-3.22,13.92-2.73,0,.31,0,.62,0,.94-2.94,2-5.94,3.82-9.76,3.32-1.54-.2-2.32,1-3.19,2A1.69,1.69,0,0,1,68.37,17Z"/><path class="cls-105" d="M83.3,16.82c2-.11,3.44,1.16,5,2.12a1.86,1.86,0,0,1,.3,2.09C83.2,23.12,77.38,23.19,71.84,25A73.11,73.11,0,0,0,36,49.59c-.94,1.17-2.23,2.19-.77,3.81a2.18,2.18,0,0,1,.18,2.76c-3.71.46-6.08-1.07-7-4.73a7.74,7.74,0,0,1,1.13-4.34,45.22,45.22,0,0,1,4.21-5.62c2.82-2.65,5.38-5.58,8.33-8.1a93.81,93.81,0,0,1,10.28-7.2,62.11,62.11,0,0,1,16.75-7.45c3-1.48,6.39-1.86,9.62-2.68C80.3,15.78,81.92,15.57,83.3,16.82Z"/><path class="cls-106" d="M91.24,5c1.1.11,2.32-.15,3.13,1,.39,9.2.32,18.4.34,27.6-.09,12.56-.67,25.12-1,37.68-.07,1.67,0,3.16,2,3.82,1,.32,2.3.81,1.35,2.39-2.25,1.32-4.59,1.09-7,.43-1.27-1.9-4.51-2.58-3.67-5.83,2.09-1.78,2.46-4.11,2.49-6.73.1-6.64-.49-13.3.35-19.92A19.93,19.93,0,0,0,91,36.24c-.07-7.85-.09-15.71,0-23.53-.76.5-1.27,1.81-2.64,1.27l-.13-1.89A27,27,0,0,0,88.26,8C88.38,6.1,90,5.72,91.24,5Z"/><path class="cls-107" d="M90.36,45.05c0,7.16-.19,14.33,0,21.49.1,3.3-.85,5.47-4.07,6.46a2.31,2.31,0,0,1-3,.23c1.83-3.67,4.82-7,3.56-11.6,0-1.94,0-3.87,0-5.8.07-2.86-.09-5.72-.08-8.58.16-2-.08-3.94.08-5.9,0-1.62,0-3.25,0-4.87,0-1,0-2.08,0-3.12,0-.76,0-1.52,0-2.27,0-1,0-2,0-3,0-.75,0-1.49,0-2.23a17.65,17.65,0,0,1,.19-3A3.69,3.69,0,0,1,88.38,21l-.09-2c0-.32.06-.64.07-1a2.47,2.47,0,0,1,2.8,2.76C91,28.84,92.27,37,90.36,45.05Z"/><path class="cls-108" d="M90.36,45.05,90.3,23.17c0-2,.34-4.07-1.94-5.19l0-4c3.11-1,.89-4.69,4-6.75V23.74c0,5.13-.07,10.26,0,15.39C92.29,41.35,92.1,43.43,90.36,45.05Z"/><path class="cls-109" d="M70.29,16.93c-.57-1.17-.68-2.58.83-2.66,4.18-.19,8.32-.36,12.16-2.26a2,2,0,0,1,.84,2.23c-2.78,2.18-6.28,2-9.46,2.8C73.19,17.26,71.7,18.54,70.29,16.93Z"/><path class="cls-110" d="M74.39,16.07l9.73-1.83c.31,1-.4,1.77-.82,2.58l-4.77.34C77,17.19,75.17,18.71,74.39,16.07Z"/><path class="cls-111" d="M88.26,8c1.52,1.39,1.43,2.76-.06,4.12C86.82,10.69,86.88,9.32,88.26,8Z"/><path class="cls-112" d="M156.05,60.86c1.82,1.24,2.19,3.4,3.24,5.13a40.6,40.6,0,0,1,3.32,14.81c.48,9.91,1.13,19.79-.88,29.62a52.9,52.9,0,0,1-2.56,8.55c-2.4,6.17-2.87,6.38-9,4.3-1-.44-2-.89-2-2.24a12.79,12.79,0,0,0,4.74-7.36c2-7.7,4.55-15.2,3.29-23.49-.91-6,1-12.21-1.74-18.2-1.47-3.19-3-5.44-6.72-5.51-1.27-2.92,1.52-3,2.89-3.92C152.17,61.52,153.91,60.4,156.05,60.86Z"/><path class="cls-113" d="M150.06,122.11c5.62,3,6.89-.74,8.41-5,4.31-12.16,3.19-24.63,2.74-37.12a61.88,61.88,0,0,0-1.92-14c3.75,5.6,5,12,6,18.51a92.45,92.45,0,0,1,0,27.49c.55,6.31-.94,11.82-6.29,15.78a4.43,4.43,0,0,1-1.54-.07C154.78,126.13,150.94,126.08,150.06,122.11Z"/><path class="cls-114" d="M156.05,60.86,147.25,66a1.93,1.93,0,0,1-2.88,1.27c-.82-1.43.27-2,1.16-2.53-1.75.48-3.11,3.09-5.45,1.17.69-3.51,3.31-3.91,6.22-3.83,6.23-2.16,11.22-6.52,17-9.56,1-.53,1.76-1.45,3-1.55l1.93-1.87L169.59,52c-.44,1-.87,2-1.3,3-2.88,1.62-6.82.84-9,4A5.34,5.34,0,0,0,156.05,60.86Z"/><path class="cls-115" d="M158.2,127c4.44-2.23,4.65-6.86,6-10.8.45-1.36.39-2.92,1.14-4.25a51.42,51.42,0,0,0,2.45-23.26c-.72-5.22-1-10.5-1.45-15.76l1.8,2.32c1.08.74,1.29,1.93,1.6,3.07,1.57,9.68,1.16,19.38.32,29.08-.53,1.78-1.23,3.51-1.75,5.3-.69,2.31-1.45,4.6-2,6.94-.27,1.88-1.29,3.46-2.08,5.12-.31.61-.64,1.21-1,1.81a9.92,9.92,0,0,1-2.11,2.68C159.59,129.23,158.21,129,158.2,127Z"/><path class="cls-116" d="M168.49,108.05a107.91,107.91,0,0,0-.06-30.14c.8-.84-.13-2.24,1-3,3.27,4.61,1.69,10.16,2.82,15.19.57,2.51.11,5.26.12,7.9-.61,2.28-1.39,4.54-1,7a2.19,2.19,0,0,1,.6,1.92c-.39,1.33-.61,2.77-2.2,3.31C168.47,110,169,108.71,168.49,108.05Z"/><path class="cls-2" d="M175.29,84c2.59,3-.23,6,0,9C172.85,90,176.44,87,175.29,84Z"/><path class="cls-117" d="M169.39,74.93c-.15,1,.12,2.23-1,3l-.33-2.62L169.21,73Z"/><path class="cls-118" d="M171.24,106.92c0-.64,0-1.28.07-1.92,1.22.08,3.1-.51,1.95,1.94.08,1.74,1.22,3.27,1,5.07l-3,7c-.8-.77-2-.82-2.83-1.45a2.27,2.27,0,0,1-.71-1.11,3.78,3.78,0,0,1,.79-2.55C169.46,111.56,170.88,109.45,171.24,106.92Z"/><path class="cls-119" d="M174.27,112c-1-1.55-3.15-2.88-1-5.07l2,1.06c1.17.13,1.61,1,2,1.92C178.18,113.36,175.37,111.46,174.27,112Z"/><path class="cls-97" d="M162.39,125.92l.86-.92c.78-.74,1.53-1.5,2.29-2.26a3.11,3.11,0,0,1,1.75-.78l2,1c-.12,1.38-.85,2.76-.06,4.16l-1.1,0C166.22,126.76,164,127.6,162.39,125.92Z"/><path class="cls-120" d="M167.29,122l-1,1c-1.2-.69-.36-2.09-1-3a18.57,18.57,0,0,1,1.89-7.16c1.57,1.08,0,2.87.92,4.11l.36,0c.37,1.07-.48,1.43-1.1,1.93C167.36,119.92,167.33,120.94,167.29,122Z"/><path class="cls-121" d="M167.39,118.9c.37-.64.74-1.28,1.1-1.93,1.46-.06,2.75.1,2.8,2C170,119.94,168.69,119.15,167.39,118.9Z"/><path class="cls-122" d="M177.25,109.92a3.3,3.3,0,0,1-2-1.92c1-1.7,2-.44,3,0Z"/><path class="cls-123" d="M29.31,141.91l1.12-2.18c4.62,1.25,5.78,6.27,9.42,8.6a31.76,31.76,0,0,0,6.24,5.2c6,4.95,13,8.32,19.44,12.56-.08.85-.36,1.42-1.36,1-8.58-2.24-15.74-7.15-22.85-12.15-3.73-1.45-5.63-5-8.58-7.39C31.3,145.85,29.27,144.51,29.31,141.91Z"/><path class="cls-124" d="M33.31,147a43.12,43.12,0,0,1,8,8c1.48,3.19.39,4.82-3,5-.58-.65-1.29-1.19-1.83-1.88-1.26-.14-2.1-.71-2.12-2.1,1.15-1,.84-1.82-.15-2.81A4.88,4.88,0,0,1,33.31,147Z"/><path class="cls-125" d="M64.17,167.09,65.31,166a23,23,0,0,1,15.2,3.58c-1.05,2.06-3.19,1.53-4.89,2.07a3.66,3.66,0,0,1-3.35-1.56C69.36,169.64,66.52,169,64.17,167.09Z"/><path class="cls-126" d="M83.3,178c-.32,0-.64,0-1,0-2-1.69-4.93-1.4-7-3l-1-3c3.29-1.63,6.34-.68,9.34.89C84.67,174.65,84.8,176.37,83.3,178Z"/><path class="cls-43" d="M83.41,173.06,74.31,172a1.85,1.85,0,0,1-2-1.91l3.14.82c2.82-.83,5.56,0,8.32.39a1.52,1.52,0,0,1,.85,1.22A.79.79,0,0,1,83.41,173.06Z"/><path class="cls-43" d="M75.31,175c2.44.75,5.59-.16,7,3-3-.25-5.76-.86-8-3Z"/><path class="cls-127" d="M36.44,158.08c1.26,0,1.89.61,1.84,1.88l-3.83-.2Z"/><path class="cls-128" d="M33.31,147c1.1,2.15-.38,5.22,3.21,6.7,1.36.56-.76,2-2.2,2.3-1.7-4.09-5.77-6.67-7-11.15-.29-1.1-2-.8-3.14-.93,1.57-1,2.47-3.7,5.1-2Z"/><path class="cls-129" d="M86.53,175.21c-1.35,2.75,3,6.25-1.12,8.63a4,4,0,0,0-.19-.78c-.35-1.32-.69-2.64-1-4,0-.22,0-.43.08-.65.13-1.27-.11-2.67,1.15-3.59A.91.91,0,0,1,86.53,175.21Z"/><path class="cls-129" d="M83.41,173.06l.88-.11c1.26,1.89.43,3.85.17,5.78l-.27.37L83.3,178C83.34,176.34,83.37,174.7,83.41,173.06Z"/><path class="cls-130" d="M61.29,175.06c-1.09-1.38.39-1.57,1-2.16.74.22,1.92.23,1.55,1.36S62.19,174.92,61.29,175.06Z"/><path class="cls-131" d="M39.17,149c-3.7-2.36-5.57-6.44-8.74-9.3a1,1,0,0,0-.32-.73c-1.17-1-2-2.16-1.33-3.8a17,17,0,0,1,3.49-3.49,1.78,1.78,0,0,1,1.35.26,8,8,0,0,1,1.51,4.65c.47,3.94,3.82,6.26,5.41,9.56C41.14,147.45,43.32,149.87,39.17,149Z"/><path class="cls-132" d="M23.3,140.93c-.83-.36-.91-1.09-.91-1.87.07-.2.14-.4.2-.6a9.68,9.68,0,0,1,2-2.48l.57-.32a1.79,1.79,0,0,1,1.26.18,1.17,1.17,0,0,1,.08,1.21C26.28,139,24.9,140.08,23.3,140.93Z"/><path class="cls-133" d="M26.53,137.05l-.23-1c-.85-2.16.1-2.67,2.06-2.24a4.33,4.33,0,0,1-.07,4.19Z"/><path class="cls-134" d="M28.29,138c0-1.33,0-2.65.05-4a1,1,0,0,1,1.12-.12.87.87,0,0,1,0,1.1c-.58,1.47.13,2.73.65,4Z"/><path class="cls-135" d="M116.28,17h-5c-3.34,1.64-6.14.17-8.9-1.54a1.22,1.22,0,0,1-.14-1.48l.07,0c4.8-2.86,9.43.62,14.16.41.65,0,1.28.15,1.81-.37l.88-.95c1.38.15,2.74-.48,4.12-.08.68,5,5.59,5,8.56,7.25A21.08,21.08,0,0,0,135.3,22c.08,1.91,2.7,2.83,2,5.06l-18-9A2.1,2.1,0,0,0,116.28,17Z"/><path class="cls-136" d="M141.3,20c1.78,2,6.1,4,0,6a30,30,0,0,1-2.11-5.2C138.51,17.36,140.6,20.3,141.3,20Z"/><path class="cls-137" d="M123.3,13c-1.36.59-2.71,1.79-4.11.08,1-1.57,2.61-1,4-1A7,7,0,0,1,123.3,13Z"/><path class="cls-138" d="M145.19,28c.88-2.34,2.54-1.2,4-.91C148.22,29,147,29.68,145.19,28Z"/><path class="cls-139" d="M118.3,14c-2.9,1.24-5.72,2.08-8.78.23-2.24-1.35-4.79-.05-7.19-.27l-.12-2.83L116.3,13A2.07,2.07,0,0,0,118.3,14Z"/><path class="cls-140" d="M101.42,9.92c1.21-1.35-3.66-5.11,1.87-4.75l5,1.83c-1.24,1.68.41,2.5,1.5,4.09A27.92,27.92,0,0,0,101.42,9.92Z"/><path class="cls-141" d="M29.3,38a8.38,8.38,0,0,0,4-4,4.16,4.16,0,0,1,5.05,0c.83,3.78-2.89,4.82-4.34,7.22-1.83,1.74-3,4-4.44,6-.8.45-1.73,2.21-2.22-.23C26.24,43.61,27.15,40.65,29.3,38Z"/><path class="cls-142" d="M27.35,47c.65,1,1.29.21,1.93,0,.41-.35.73-.26,1,.19-.34,1.29-.67,2.57-1,3.86-2.83,2-4.63,0-6.53-1.63-4.86-1.61-5.55-1.08-6.48,5-.47,1.69-.57,3.51-1.86,4.88a1.85,1.85,0,0,1-2.16-.31l-.09-5.77c2-3.33,3-7.57,8.23-7.8C23,45.26,24.78,47.62,27.35,47Z"/><path class="cls-59" d="M54.31,20c-1.42,2.31-3.57,3.06-6.15,2.9l3.08-2Z"/><path class="cls-143" d="M40.15,28.28c-.35.56-.95,1.46-1.43.88a2.08,2.08,0,0,1,.45-3C39.49,26.84,39.82,27.56,40.15,28.28Z"/><path class="cls-144" d="M69.26,19.67c-6,1.65-11.37,4.61-16.84,7.39-1.12.36-1.37-.16-1.17-1.14,0-.3,0-.61.07-.91,5.45-2.84,10.9-5.69,17-7.06C69.88,17.8,70,18.48,69.26,19.67Z"/><path class="cls-145" d="M33.26,41l5.09-7,1.92-1.12,1,.07c1-.17,1.44.14,1.12,1.18l-8,7.91C33.38,42.35,33.08,41.91,33.26,41Z"/><path class="cls-146" d="M42.4,34.14c-.37-.39-.74-.79-1.12-1.18,2.6-3.37,6.24-5.28,10-7l1.17,1.14Z"/><path class="cls-147" d="M161.29,147c-.92,5.35-5.68,5.1-10.33,7.19L157.28,144c.68-1.36,1.72-1.89,3.09-1C162,143.93,162.41,145.3,161.29,147Z"/><path class="cls-148" d="M155.25,142.94l-10,10-.59.42c-1.23.11-1.76-.54-1.85-1.69,3.08-5.3,7.55-9.32,12.17-13.21C157.88,139.76,157.42,141.29,155.25,142.94Z"/><path class="cls-149" d="M153.37,155c-.73,4.65-3.81,4-7,3.08.76-3-1.85.18-2-1.11a2.1,2.1,0,0,0-1.07-2c-.67-1.83,1.53-1.14,1.84-2.11l.09,0c2.14-.31,5.06-3.44,5.62,1.77C151,156,152.46,155.22,153.37,155Z"/><path class="cls-150" d="M155.25,142.94c.51-1.44,2.41-3.11-.65-4-.67-1.68.61-1.5,1.56-1.64.81.23,1.4.61,1.17,1.6.64,3.27,4.22,3.11,5.95,5.12a3,3,0,0,1-2,2.92c0-2.77-.62-4.75-4-3Z"/><path class="cls-151" d="M145.14,152.89,143.3,155l-3.18,2.82c-.13.4-.37.52-.76.34L134,161.72a2.48,2.48,0,0,1-.68,1.21c-2.54,1.31-4.39,4.44-8,3.1l-1.17-.15c-.77-.38-1.9-.12-2.23-1.27a1.82,1.82,0,0,1,.51-1.25c5.81-3.31,11.8-6.32,17.06-10.53a4.08,4.08,0,0,1,3.62-1.08A1.92,1.92,0,0,0,145.14,152.89Z"/><path class="cls-152" d="M125.37,166l8-3.91c1,1.1,1.69,2.28,1,3.82l-1.08.06c-1.89.8-3.8,1.57-5.67,2.41C124.4,169.85,124.81,168,125.37,166Z"/><path class="cls-153" d="M144.37,157l4.54-1.67c-.07,2.06-2.39,1.42-2.52,2.77s-.13,2.55-.19,3.83l-2,1.83C142.47,161.45,143.19,159.21,144.37,157Z"/><path class="cls-154" d="M134.33,165.94a5.48,5.48,0,0,1-1-3.82,1.75,1.75,0,0,1,.68-.4c2.25,0,2,2.31,3.24,3.3q.39.28.3.6c-.06.22-.14.33-.21.33C136.33,167.16,135.34,165.67,134.33,165.94Z"/><path class="cls-155" d="M139.36,158.16a1.43,1.43,0,0,1,.76-.34,2.34,2.34,0,0,1,.8,3.3,1.25,1.25,0,0,1-1.18.35C138,160.61,139.47,159.28,139.36,158.16Z"/><path class="cls-156" d="M137.35,166a7.32,7.32,0,0,1-.09-.93c.25-2,1.42-2.33,3.22-1.74C139.73,164.6,139,165.82,137.35,166Z"/><path class="cls-157" d="M122.21,164.9l2,1-1,1L120.29,168c-1.5.59-3,1.22-4.2-.56C117.44,164.91,119.61,164.38,122.21,164.9Z"/><path class="cls-158" d="M114.3,175c-.15-1-2.91-1.39-.83-2.8,1.66-1.12,3.57-1.4,4.77.91,0,.62,0,1.24,0,1.86C117,177.17,115.63,176.07,114.3,175Z"/><path class="cls-68" d="M114.3,175c1.32,0,2.64,1,4,0l1,4-2,.09C116.25,177.7,114.5,176.91,114.3,175Z"/><path class="cls-159" d="M151.31,55l-3.15,2.71c-.83,1.45-1.95,2.2-3.67,1.58,1.57-6.34-3.33-9.26-7-12.57A72,72,0,0,0,122,36.38c-1.89-2.37-.13-3.62,1.51-4.91a2.48,2.48,0,0,1,2.83.53h0c1.5,1.27,3.45,1.79,5,3,6.44,4.51,12.95,8.92,17.86,15.27C150.3,51.75,151.55,53,151.31,55Z"/><path class="cls-160" d="M111.31,18.75c12.87,2.65,23.65,9.13,33.11,18,.47.46.43.86-.12,1.21-5.48-3.65-10.65-7.83-17-10-2.14.86-3.76-.56-5.5-1.32-4.06-1.76-8.16-3.37-12.65-3.63-3.7-1-7.66-.86-11.23-2.47-1.65-1.62-.27-2.8.58-4.06,1.06-1.1,2.32-.93,3.61-.58C105.26,16.59,108.65,16.48,111.31,18.75Z"/><path class="cls-161" d="M109.3,22c6.72-.16,12.26,3.24,18,6,1.38,1.77.17,2.88-1,4h-3a2.42,2.42,0,0,1-2.77.31c-6.7-3.33-13.92-4.82-21.21-6.09a4.38,4.38,0,0,1-2.19-1,2.3,2.3,0,0,1,0-2.36c3.92-2.09,7.72.06,11.57.34,2,.14,3.72,1.39,5.64,1.39C112.61,23.93,110.11,24.66,109.3,22Z"/><path class="cls-162" d="M144.3,38l.12-1.21a8.89,8.89,0,0,1,5.08,5.1C147.17,41.38,146.4,38.8,144.3,38Z"/><path class="cls-161" d="M131.3,35c-2.06-.36-3.94-1-5-3C128.36,32.34,130.24,33,131.3,35Z"/><path class="cls-163" d="M111.31,18.75l-10-2.2c-.65-1.17-.41-1.76,1-1.58l9,2.06Z"/><path class="cls-139" d="M116.28,17a2.28,2.28,0,0,1,3.38-.54c.61.43.17,1.13-.39,1.55Z"/><path class="cls-164" d="M144.3,59l3.86-1.25c1.73,2.45-1.75,2.65-1.86,4.31-1.84,1.63-4.87,1.36-6.14,3.88a2.47,2.47,0,0,1-2.06,1.91,4.89,4.89,0,0,1-4.7-1.62c-.61-2.25,1.42-2.67,2.56-3.7a26,26,0,0,0,5.85-2.86A4.13,4.13,0,0,1,144.3,59Z"/><path class="cls-165" d="M100.29,173c-.07,2-1.49,2-2.91,2a2.34,2.34,0,0,1-1.76-1.34,5.37,5.37,0,0,1-.42-1.52c-.09-1.62-.18-3.25,1.26-4.44,2.88.06,6.16-1.28,8,2.31a1.67,1.67,0,0,1-2.29.08C100.21,170.17,98.88,170.71,100.29,173Z"/><path class="cls-116" d="M116.32,167.06c1.07,1.4,2.62.75,4,.91-2.94,2.4-6.75,1.83-10.07,2.93-1.2-1-2.74,0-4-.74-.25-2.58,2.09-2,3.34-2.77a13.14,13.14,0,0,1,1.36-.39C112.72,166.92,114.54,165.54,116.32,167.06Z"/><path class="cls-166" d="M106.27,169.93c1.34.24,2.91-.46,4,1-2.3.23-4.62,0-6.89.85-1.58.56-1.47-.65-1.14-1.7l2-.37a1.63,1.63,0,0,1,1.1-.37A1.8,1.8,0,0,1,106.27,169.93Z"/><path class="cls-167" d="M107.79,173.82c.11.9-.58,1.12-1.17,1.1a2.35,2.35,0,0,1-1.67-.64c-.41-.61,0-1.17.82-1.27S107.36,172.94,107.79,173.82Z"/><path class="cls-168" d="M96.14,173.06a3,3,0,0,0,.11,1,1.61,1.61,0,0,1,.38,1.83c-2.56.87-2.58,2.92-2.35,5.08-4.64,1.55-6.89-.7-6.11-6.11a.91.91,0,0,1,.56-1.23c.33-1.18,2.92,2.84,2.33-1.15A43.23,43.23,0,0,1,91,161c.8-6.43-2.18-12.33-2.08-18.61,0-3.46-.34-7,1.65-10.16.68-1.08.76-2.32-.93-2.81a18.78,18.78,0,0,1,0-11c1.07-1.45,2.1-.6,3.15,0a5.56,5.56,0,0,1,1.71,3.26c.15,10.12.66,20.24-.27,30.34-1.15,3.71.14,7.63-.47,10.31.25-2.1-.07-5.32.08-8.51a1.21,1.21,0,0,1,.93-1.24,1.83,1.83,0,0,1,1.32,1,34.2,34.2,0,0,1,0,13.56A11.86,11.86,0,0,0,96.14,173.06Z"/><path class="cls-169" d="M94.28,181c-1.55-1.3-1.07-3.08-.84-4.62.43-2.92,1.79-1.21,2.89-.38.73.48,1.55.92,1,2h0Z"/><path class="cls-129" d="M88.4,174a4.42,4.42,0,0,1-.23.81l-1.65.37-.26-.28a4.84,4.84,0,0,1,0-4.14,2.44,2.44,0,0,1,1.39-.36,2,2,0,0,1,1.18.82A2.57,2.57,0,0,1,88.4,174Z"/><path class="cls-82" d="M97.33,178c-.33-.67-.67-1.35-1-2,0-.64,0-1.27-.08-1.91l1.13.92C97.54,176,98.94,177,97.33,178Z"/><path class="cls-170" d="M26.18,127l-3.89-1a7.18,7.18,0,0,1-2.42-5.47c-3.63-10.54-3.07-21.48-3-32.36,0-1.81,0-3.67,1.42-5.1,4,1.35.93,4.79,2.05,6.68-.34-2.88.6-6,.62-9.15.42-2.66.05-5.69,3.33-7,2.89,1.13,2.08,3.4,1.57,5.45-3.22,12.79-1.89,25.4,1.24,38a29.9,29.9,0,0,0,3.38,7.75C30.09,127.51,28.54,128,26.18,127Z"/><path class="cls-171" d="M26.18,127a7.31,7.31,0,0,0,4.16-2c.65-1.95,2.53-2.6,4-3.72,1.31-.64,2.61-1.36,4.09-.45.62,1.23.16,2.39-.23,3.57-2.61,4.19-6.61,6.17-11.28,7.09-.62-1.09-1.63-2-1.53-3.43Z"/><path class="cls-172" d="M21.17,121.24c.37,1.57.74,3.14,1.12,4.71l-2.78-.29c-3-1.35-1.79-4.64-3.11-6.76h0a3.55,3.55,0,0,1-1.27-1.57,6.26,6.26,0,0,1-.58-3.33,2.61,2.61,0,0,1,.64-1.16c1.6,1.46,1.55-1.38,2.73-1C19.47,114.79,19.78,118.2,21.17,121.24Z"/><path class="cls-173" d="M25.35,128.05c.71.86,2,1.54,1,3,.43,1.52-.63,2.14-1.67,2.78-1.5.61-3,1.26-4.46,2-1.08.32-2.29,1-3.1-.3a1.57,1.57,0,0,1,.6-2.18c3.68-1.77-.46-1.68-.57-2.52C19.77,129.57,22.87,129.74,25.35,128.05Z"/><path class="cls-174" d="M17.14,130.79l3.3.38c.21,2.16-2.18,2.22-2.73,3.71.86,1,1.74-.22,2.58,0a1.4,1.4,0,0,1,.26,1.23c-.75,1-1.56,2-2.37,3-3.62-.62-2.48-4.18-3.83-6.2Z"/><path class="cls-175" d="M16.4,118.9c2,1.81,1.92,4.57,3.11,6.76-.64,1.32-2,1.66-3.13,2.31a1.36,1.36,0,0,1-2,0C16.93,125.36,16.18,122,16.4,118.9Z"/><path class="cls-176" d="M14.33,127.94l2,0c-1.91,2.74-2.17,2.83-3.06,1Z"/><path class="cls-177" d="M18.18,139.19c-1-2.18.8-2.56,2.12-3.25a5.87,5.87,0,0,1,4.38-2.36c1.05.58,1.48,1.31.63,2.39l0,0c-1.42.59-1.74,2.27-3,3l.05.05-4,.84A3.47,3.47,0,0,1,18.18,139.19Z"/><path class="cls-178" d="M11.41,75a10.47,10.47,0,0,0,.95-5c-.1-3.87,1.31-7.32,3.06-10.66,1.46-1.47,2.94-2.43,4.51-.14.77,5.62-2,10.29-4.1,15.12C14.52,75.58,13.13,76.36,11.41,75Z"/><path class="cls-179" d="M16.17,60c-1.64,3.21-1.65,7-3.81,10.06l-1.7,2.15C7,68.87,12.75,65.29,10.3,62c.65-1,1.3-2,1.94-3l2.16,0C15.5,58.39,16.39,58.25,16.17,60Z"/><path class="cls-81" d="M11.41,75a6.08,6.08,0,0,0,3.81-1.12c1.88,2,.38,4,0,6-1.31,4-1.44,8.11-2.14,12.17A2.26,2.26,0,0,1,12,93.24a2.82,2.82,0,0,1-2.56-1.88C9,88.8,8.34,86.23,10.35,84c2.19-2.63.4-5.25,0-7.87Z"/><path class="cls-99" d="M15.29,114.07l.87,3c-1,1.78-1.94,1.15-2.87-.06-.73-1.94-1.45-3.89-2.18-5.83l.31-.34C14.62,109.63,14.48,112.42,15.29,114.07Z"/><path class="cls-175" d="M13.29,117a2.7,2.7,0,0,0,2.87.06l.27,1.82C14.93,119,13.48,119.07,13.29,117Z"/><path class="cls-180" d="M158.2,127l3.07,1.86a.58.58,0,0,1,.95.15c1.13,1.91,3.89-.2,4.9,2,.4,2.35,4.27,5.86-2,6-4.26-1.44-8-3.56-10.27-7.69,0-1.6,1-2.19,2.41-2.23C157.57,127.06,157.88,127,158.2,127Z"/><path class="cls-181" d="M165.25,136.06c1.66-.15,3.84-.06,1.74-2.58-.85-1-2.55-1.74.13-2.43l2.29,1.89c0,1.36,0,2.73,0,4.1l-3.1,3-1-.21a1.49,1.49,0,0,1-.29-1.19A13.5,13.5,0,0,1,165.25,136.06Z"/><path class="cls-182" d="M162.22,129.05a3.84,3.84,0,0,1-.95-.15c.37-1,.75-2,1.12-3,1.88.59,4.07-.26,5.75,1.24Z"/><path class="cls-183" d="M15.29,114.07C14,113,13.51,111,11.42,110.85c-1.44-1.21-3.28-2-4.1-3.88,0-.62.07-1.25.1-1.88a4.62,4.62,0,0,1,.65-1.27c1.47-2,.7-4.11.39-6.24S7.7,93.19,10.31,92l2,1c2.31,6.47,4.36,13,3.1,20Z"/><path class="cls-184" d="M4.29,98c0-1,0-2,0-3,1.08-1.27,0-3,.91-4.28a2.73,2.73,0,0,1,2.82-.22,1.92,1.92,0,0,1,.84,1.84,2.68,2.68,0,0,0-.35,3.5,5.06,5.06,0,0,1-.42,2.55c-1.08,1.74.85,5-2.73,5.48Z"/><path class="cls-99" d="M5.4,103.87c2.85-1.24-.32-4.44,1.9-5.89,3.1,1.93,3.32,4.26,1,7l-.86.15C6.58,105,5.72,104.87,5.4,103.87Z"/><path class="cls-185" d="M93.32,34c0-7.81,0-15.63,0-23.45,0-1.59-.52-3.37,1-4.65,5.45,2.45.66,6,1,9a4.05,4.05,0,0,1,.79,3.29c-1.35,5.06.59,10.39-1.32,15.4A1.09,1.09,0,0,1,93.32,34Z"/><path class="cls-186" d="M95.26,18c0-1,.06-2,.1-3.05,3.84-.28,3.81-3.36,4.29-6.38,1,2,.8,4.23,2.61,5.44,0,.32,0,.64.07,1l-1,1.58c-.64.31-1.52-.59-2,.41-1.4.65-2.17,2.45-4.06,2.23a.78.78,0,0,1-.23-.8C95.09,18.13,95.18,18,95.26,18Z"/><path class="cls-187" d="M8.28,104.94c1.32-2.55.27-4.77-1-7,.33-.64.65-1.29,1-1.93a2.4,2.4,0,0,1,0-3.1c0-.65.06-1.3.08-1.94a30.73,30.73,0,0,0-.85-3.53c-.3-1.92-.13-3.9-.79-5.77C6.88,80.54,7,79.35,8.39,79a6.42,6.42,0,0,1,2,5c0,2.67,0,5.33,0,8-1.24,2.2-.74,4.37-.39,6.74C10.22,100.75,12.12,103.78,8.28,104.94Z"/><path class="cls-188" d="M8.41,87.93a1.87,1.87,0,0,1,0,3.08l-3,0c-.62-.08-.68-.68-1-1V89c.66-.65.23-1.78,1.07-2.35C6.73,86.39,7.55,87.21,8.41,87.93Z"/><path class="cls-20" d="M5.38,87l-1,2c.61-2.73-1.74-6.1,1.79-8.19a1.32,1.32,0,0,1,.54,1.27C6.69,83.87,6.7,85.63,5.38,87Z"/><path class="cls-189" d="M6.26,81.93c0-.36-.06-.72-.1-1.08.18-1,0-2.43.63-3.06S8,78.31,8.39,79C8,80,7.67,81,7.3,82A.8.8,0,0,1,6.26,81.93Z"/><path class="cls-20" d="M4.37,89.93l1,1c-.16,1.38.37,3-1,4C4.34,93.31,4.36,91.62,4.37,89.93Z"/><path class="cls-190" d="M165.3,139c0,.27,0,.53,0,.79-3,.61-3.9-1.73-5.19-3.57.15-.18.29-.37.43-.56C163.06,135.4,164.24,137.12,165.3,139Z"/><path class="cls-190" d="M160.08,136.21l-2.83-1.16a1.28,1.28,0,0,1-1.36,0c-.66-.75-1.36-1.51-.28-2.47,2.36,0,4.41.42,4.75,3.31Z"/><path class="cls-191" d="M156.29,134.81l1,.24c-.33,1.3,1.91,2.55.08,3.88l-1-1.2A2,2,0,0,1,156.29,134.81Z"/><path class="cls-192" d="M69.26,19.67a1.75,1.75,0,0,0-1-1.72c0-.3,0-.61.08-.91l1.92-.11,4.1-.86c1.09,1.46,2.78.66,4.14,1.09Z"/><path class="cls-193" d="M88.31,23l.1,3c-1.29,1.36-3,1.05-4.64,1.33C66.34,30.28,51.64,38.11,40.39,52A11.83,11.83,0,0,0,38,56.27a2.33,2.33,0,0,1-.92,1.09c-1,.11-2,.14-1.75-1.36a2.05,2.05,0,0,0-1-2c-1.07-1.4-.26-2.46.6-3.53C47.44,34.69,63.62,25.24,83.59,22.37,85.25,22.13,86.89,21.69,88.31,23Z"/><path class="cls-194" d="M88.31,23c-22,1.91-39.82,11.72-53.43,29.12A5.69,5.69,0,0,0,34.31,54c-2.82-.5-2.14-2-.93-3.5,10.24-12.63,22.5-22.2,38.5-26.73,5.47-1.55,10.77-3.18,16.5-2.8C88.36,21.64,88.34,22.32,88.31,23Z"/><path class="cls-195" d="M35.31,56l1.85,1.09a1,1,0,0,1,.27.86q-.1.45-.21.45a4.94,4.94,0,0,1-4.08,1.4c-4-1.5-8-2.82-11-6.1A4.06,4.06,0,0,0,22,50.31a2.59,2.59,0,0,1,1.23-2.14c1.69,1.65,3.31,3.47,6.07,2.87C29.89,54.39,32.74,55,35.31,56Z"/><path class="cls-196" d="M33.26,41l1.13,1.08-4.12,5.13-1-.19A10.83,10.83,0,0,1,33.26,41Z"/><path class="cls-197" d="M83.12,72.87l3.19.13c.6,1.63,5.38.14,3,4,.1.34.18.77,0,.92a59.24,59.24,0,0,1-13.9,7.39C69,79.71,61.13,76.72,53.66,73c-.92-1-2.87-1.23-2.4-3.25,2.15-1.81,4.55-1.77,7.05-.91,3.63,1.25,6.63,3.7,10.07,5.3,3.54,2.75,7,3.58,10.63,0A4.22,4.22,0,0,1,83.12,72.87Z"/><path class="cls-198" d="M75.43,85.07c4.08-3.62,9.24-5.4,13.88-8.07h8a1.29,1.29,0,0,1,.06,1.29c-1.84,1.9-.58,3,1,4.23,2.38,2,4,4.3,2.18,7.53-2.36.39-2.81-2.5-5-2.77a10.91,10.91,0,0,0-9.15,2.89A1.68,1.68,0,0,1,85.05,90a6.25,6.25,0,0,1-.85-1.74c-1.79-4.94-1.89-4.95-5.84-1-.85,1-.94,2.41-1.59,3.54a1.44,1.44,0,0,1-1.18.52,2,2,0,0,1-1-.94,6.76,6.76,0,0,1-.1-4.22A2.39,2.39,0,0,1,75.43,85.07Z"/><path class="cls-199" d="M97.28,78l0-1c-1.79-1.55-6.24-.5-5-5.06.83-.32,2,.47,2.56-.69a2,2,0,0,1,1-.54,1.16,1.16,0,0,0,1.73-.1,8.73,8.73,0,0,1,3.28.58c2.87,1.11,5.58,2.45,7.38,5.11,1.16,2,2.8,2.23,4.94,1.73,2-.45,4-1.59,6-.27.19,3.24-2.9,3.06-4.59,4.29s-4.24,1.59-3.42,4.6c.11,1.71.49,3.51-1.47,4.55-.84-.12-1.17-.75-1.46-1.42-.95-3.07-2.53-5.67-5.52-7.17C101,81,97.91,81,97.28,78Z"/><path class="cls-200" d="M95.5,70.83c-.4,1.15.39,3-.89,3.44-1.73.65-1.06-2-2.28-2.33l1-37.94h1c1.69,1.56,1.39,3.64,1.4,5.59,0,10.1.11,20.2,0,30.31C95.59,70.22,95.55,70.52,95.5,70.83Z"/><path class="cls-201" d="M83.12,72.87a22.41,22.41,0,0,0-4,2.62c-3.85,3.82-7.35,3.12-10.77-.51C66.62,72.77,63,73,62,69.86c5.93-8.76,14.74-12.63,24.7-14.54a1.88,1.88,0,0,1,1,1c.44,1.87-.63,3.92.68,5.69.06.32.13.65.19,1C89.48,67.78,88.36,71.46,83.12,72.87Z"/><path class="cls-202" d="M88.4,36l0,5c-3.53,2-7.59,2.1-11.34,3.34A50.16,50.16,0,0,0,56.92,56.6C54.5,59,52.49,62,49.12,63.39c-5.13-2-5.67-3.83-2-8.26,8.25-9.88,19.1-15.68,31.23-19.34C81.71,34.79,85.1,33.71,88.4,36Z"/><path class="cls-203" d="M49.31,63C59.43,50.47,71.77,41.9,88.42,41v6C77.5,48.14,68.23,52.76,60.18,60.12c-2.24,2.05-3.81,4.55-5.61,6.91-2.62.67-4.42-.45-5.71-2.65A1.51,1.51,0,0,1,49.31,63Z"/><path class="cls-204" d="M54.31,67c.73-6,5.81-8.62,9.79-11.7a45.88,45.88,0,0,1,19.11-8.85,7.49,7.49,0,0,1,5.21.57c0,3,0,6,0,9-.37.44-.74.46-1.11,0h0c-1.28-3.18-3.87-3.56-6.53-2.46-6.42,2.68-12.69,5.64-17.68,10.79-1.84,1.9-2.09,3.56-.78,5.67,1.45,2.32,5.43,1.61,6,5l-10-5C57.49,68.28,54.48,69.53,54.31,67Z"/><path class="cls-205" d="M37.14,58a1.73,1.73,0,0,0,0-.93l.34-.25c8-13.75,20.31-22,35.12-26.82a87.23,87.23,0,0,1,9.53-2.81c2-.42,4.32-.8,6.21.79l.06,3c-2.72,1.93-6,1.57-9.06,2.35-15.31,4-28.18,11.5-37.06,25a3.86,3.86,0,0,1-1,1.12,4,4,0,0,1-2.21.47C38,59.67,37.07,59.38,37.14,58Z"/><path class="cls-206" d="M88.36,28c-19,1.66-34.79,9.6-46.79,24.61-1.25,1.56-2.28,3.23-4.08,4.23-1.34-1.53-.37-2.84.55-4C51,36.77,67.4,27,88.41,26,88.39,26.64,88.38,27.32,88.36,28Z"/><path class="cls-207" d="M49.31,63l-.06,1.15c-2.15,1.14-3.44-.69-5-1.44-1.19-1-2.85-1.62-3.16-3.45l.38-.3C52,44.6,65.7,35.17,83.65,32.56c1.6-.23,3.27-1,4.73.44,0,1,0,2,0,3-16.56.53-29.51,8.36-40.51,20.07C45.18,58.94,45.28,61.41,49.31,63Z"/><path class="cls-208" d="M88.38,33C69.86,34.53,55.26,43.13,43.94,57.64A3.15,3.15,0,0,1,41.41,59c0-4.82,4-7.38,6.73-9.93C59.4,38.5,72.53,31.48,88.42,31,88.4,31.65,88.39,32.32,88.38,33Z"/><path class="cls-209" d="M87.3,56h1.11q0,3,0,6C86.43,60.3,87.65,58,87.3,56Z"/><path class="cls-210" d="M144.3,66.88l2.95-.91c4.53-1.65,6.44.24,8.06,4.61,2.09,5.6,1.7,11.18,2.24,16.85,1,10.55-1.38,20.24-4.48,30-.82,2.59-2.07,4-4.91,3.6q-4.28,1.38-5.06-3a2.85,2.85,0,0,1,2-.83c2.47.21,3.54-1.34,4.23-3.37,2.19-6.41,4.25-12.89,3.82-19.75-.45-7.17.59-14.58-3.08-21.33-1.07-2-1.75-4.09-4.66-3a6.14,6.14,0,0,1-2.95.14,2.79,2.79,0,0,1-1.3-.77C141.19,66.91,142.5,66.54,144.3,66.88Z"/><path class="cls-211" d="M143.05,118.11a9.44,9.44,0,0,0,5.11,2.94l1.9,1.06c1.8,2.52,5.36,2.5,7.19,5l-2,1.95c-1.78,1.23-3.08-.18-4.47-.88-6.31-3.14-12.21-7-18.53-10.16a5.65,5.65,0,0,1-1.74-1.37c-1.11-1.65-2.58-3.3-.17-5.08,2.38-.66,4.14.84,6.08,1.72C138.44,115.13,141.51,115.58,143.05,118.11Z"/><path class="cls-212" d="M144.3,66.88l-3,2.09c-1,2.48-3.4,2.85-5.41,3.86a8.68,8.68,0,0,0-4.8,2.9,21.26,21.26,0,0,1-3.56,2.86,41.17,41.17,0,0,0-5.06,3,27.68,27.68,0,0,1-4.89,2.24c-2.33.18-3.83,2.26-6.05,2.67a1.91,1.91,0,0,1-1.21-.55c-2-2.06-.18-2.76,1.25-3.64,2.53-1.55,5.59-2.17,7.72-4.42-.1-2.33,1.82-3.13,3.35-3.77,5.31-2.23,10.25-5.25,15.69-7.18l1.87-1.06,5.74-1.75Z"/><path class="cls-213" d="M168.13,117c-1.3-1.15-.62-2.74-.92-4.11-.39-1.82.69-3.24,1.28-4.79.3.69.6,1.38.91,2.07.53,1.63.79,3.25-.22,4.82Z"/><path class="cls-214" d="M165.32,120c1.2.7.9,1.9,1,3a3,3,0,0,1-3.08,2Z"/><path class="cls-32" d="M169.18,114.94c.07-1.61.14-3.22.22-4.82l1.84-3.2A12.27,12.27,0,0,1,169.18,114.94Z"/><path class="cls-215" d="M87.45,170.88l-1.13.12a1.78,1.78,0,0,1-2,.49c-1.32-.49-2.95-.22-3.88-1.64L65.31,166c-7.71-2.29-14-6.9-20.09-12,3-2.56,5.58-.22,8.25.81,8.47,5.32,17.16,10.07,27.36,11.32a9.47,9.47,0,0,1,6.54,3.26A1.53,1.53,0,0,1,87.45,170.88Z"/><path class="cls-216" d="M53.31,156c-2.65-.85-5.05-2.74-8.09-2a17.18,17.18,0,0,1-6-5c1.11-.16,2-.36.95-1.75-1.87-2.47-3.65-5-5.51-7.5-.69-.91-1.75-1.71-.28-2.81,4.25.05,4.61,4.69,7.5,6.34,2.45,2.27,4.25,5.19,7.06,7.1C50.43,152.21,53.7,152.65,53.31,156Z"/><path class="cls-217" d="M80.47,169.85c1.48-.26,2.65.6,3.91,1.11a.59.59,0,0,1-.21,1c-3,.52-5.79-1.12-8.76-1C76.83,169.25,78.83,170.42,80.47,169.85Z"/><path class="cls-218" d="M84.17,171.93a3.9,3.9,0,0,0,.21-1l1.94,0a3,3,0,0,1-.06,3.93l-1.8,3.81c-.06-1.93-.12-3.86-.17-5.79Z"/><path class="cls-219" d="M41.29,144c-3.27-1.4-3.86-5.46-7-7-.37-1.73-.73-3.45-1.1-5.18,1.33-3.23,3.6-4.8,7.18-4,1.05,2.06-1.57,4.38.67,6.5,3.73,3.52,6.45,8.58,11.39,10.17a70.85,70.85,0,0,1,12.2,5.45,57.17,57.17,0,0,0,20.72,6.88c1.32.15,2.68.25,3.53,1.52a4.74,4.74,0,0,1-.16,4.59c-2.14,1.93-4.67,1.39-7.1,1a63,63,0,0,1-27.22-11.67c-2.8-2.75-6.42-4.66-8.76-7.84C44.08,142.2,42.78,143.66,41.29,144Z"/><path class="cls-220" d="M40.31,128c-2.8.46-4.81,2.38-7.08,3.82l-.92.34c-.93.74-1.23,2.54-3,1.83H28.8l-.47,0a1.84,1.84,0,0,0-2,2l-1-.06a2,2,0,0,0-1-2c-.35-.21-.46-.42-.35-.63s.24-.31.36-.31l2-2c4-1.9,8.39-3,11-7.08a36.12,36.12,0,0,1,11.24-5.52c1.32.44,1.1,2,2,2.78-.24,1.76-1.77,2.35-2.93,3.29a43.92,43.92,0,0,0-4.4,2.57,6.6,6.6,0,0,1-1.11.6A3.93,3.93,0,0,1,40.31,128Z"/><path class="cls-216" d="M29.27,134l3-1.83A2.76,2.76,0,0,1,29.45,135Z"/><path class="cls-133" d="M22.34,139c.7-1.29,1-3,3-3C24.59,137.25,24.26,138.92,22.34,139Z"/><path class="cls-221" d="M51.34,70l2.95,2c-.81.61-.35,1.92-1.34,2.44-1.35.43-2.5-.18-3.68-.7s-2.33-1.2-3.5-1.78a9.15,9.15,0,0,1-1.13-.68c-.87-.63-1.78-1.21-2.69-1.79A24.84,24.84,0,0,0,37,66.59c-1.76-.87-3.33-2.07-5.07-3-2.15-1.2-4.15-2.63-6.23-3.94a12.73,12.73,0,0,0-7.45-2.81,4,4,0,0,1-2.88-3c.08-6.33,2.55-8.14,7.8-5.71A1.65,1.65,0,0,1,22.33,50c-2.41,1,.09,2,0,3,3.3,2.66,7.37,3.93,11,6A54.34,54.34,0,0,1,47.83,65.7C49.36,66.65,51.44,67.5,51.34,70Z"/><path class="cls-222" d="M15.4,53.88l3,2.13a2.92,2.92,0,0,0,1.86.51c.93,0,2.37-.14,2.09,1.28S20.86,60,19.3,59c-1.51-1.21-2.1.58-3.13,1-.32-.81-1.05-.93-1.78-1.06A7.21,7.21,0,0,1,15.4,53.88Z"/><path class="cls-223" d="M156.29,134.81v2.92c-.68.26-1.49.34-1.69,1.24-3.12,4.88-7.6,8.54-11.44,12.78-6.67,4.53-13,9.7-20.78,12.28-3.83,1.91-8.09,2.49-12,4h0c-1.57,1-3.92-.32-5.1,1.77l-1-.12c-2.37-1.69-5.58.36-7.85-1.77-1.21-5.3-.15-10.69-.64-16a1.26,1.26,0,0,1,1.18-1.08,3.45,3.45,0,0,1,1.63,2.84,41.31,41.31,0,0,1,.09,4.72c-.38,3,1.06,3.81,3.8,3.4,11.47-1.76,22.13-5.58,31.38-12.69a77.6,77.6,0,0,0,12.7-11.81c2.08-2.52,2.3-4.68-.75-6.55a1.61,1.61,0,0,1-.43-2c4.46-1.25,7.11,1.5,9.7,4.38Z"/><path class="cls-224" d="M110.34,168a30.27,30.27,0,0,1,12-4,5.15,5.15,0,0,1-.17.87l-5.89,2.16C114.3,167.28,112.46,168.54,110.34,168Z"/><path class="cls-225" d="M97.31,25c9.23.22,17.71,3.22,26,7,.34,1.5-2.34,2.24-1,4a1.94,1.94,0,0,1-1.82.56,5.45,5.45,0,0,1-1.23-.49,13.25,13.25,0,0,0-6.83-1.91,80.17,80.17,0,0,1-9.26-1.82c-3.6-.95-5,.29-4.52,3.89,0,1.28,0,2.54,0,3.81,0,1.59,0,3.19,0,4.78s0,3.2,0,4.8A12.31,12.31,0,0,1,98,54.46a1.42,1.42,0,0,1-1.36.8A2.18,2.18,0,0,1,95.51,54c-.33-9.09-.36-18.17,0-27.26A2.36,2.36,0,0,1,97.31,25Z"/><path class="cls-226" d="M120.3,36h2c9.5,3.27,16.47,9.9,23.12,17.09,2.77,3,.07,4.12-1.13,5.91l-1.85,1.18-.49-.49c-2.8-6.57-8.48-10.31-14.08-14A17.54,17.54,0,0,1,120.3,36Z"/><path class="cls-227" d="M96.47,26.14q0,14.45.07,28.9c1.75,5.35,2,10.67-.24,16-.27-.07-.53-.12-.8-.17l0,.1a2.42,2.42,0,0,1-.61-1.31q-.09-24.54,0-49.08c0-.57.37-.88.63-1.29,1.2-.87,2.12-2.22,3.81-2.29l-2,3.05c0,.23,0,.46.08.69C97,22.5,96.83,24.34,96.47,26.14Z"/><path class="cls-228" d="M109.3,22c1.66,1.66,4.1,1.57,6,3l-18-2a2.42,2.42,0,0,1,0-3h0A42,42,0,0,1,109.3,22Z"/><path class="cls-160" d="M97.31,20v5l-.84,1.14C96.6,24.07,95.52,21.84,97.31,20Z"/><path class="cls-229" d="M97.35,40c0-1.33,0-2.67,0-4,1.8-1.67,4.11-1.62,6.12-1.06,6.28,1.75,12.64,2.81,17.61,8.23,4.17,4.55,9.74,7.89,14.14,12.42,1.37,1.41,3,2.66,3.44,4.76.12,1.63-1.69,1.75-2.26,2.86L133.33,66l-.27.64c-.94.93-1.92,1.34-3,.21a3.39,3.39,0,0,1,.88-2.56c1.55-2,.31-3.37-1.07-4.72-4.16-4.07-8.55-7.9-12.84-11.83-4-3.62-9.55-3.59-14.38-5.28C100.78,41.8,98.7,41.76,97.35,40Z"/><path class="cls-230" d="M138.29,67c-4.3,3.69-9.53,5.64-14.61,7.9A28.24,28.24,0,0,0,119.25,78a36.83,36.83,0,0,0-6.16,1.31c-3,1.16-4.68.32-5.65-2.55,6.5,1,10.54-4,15.65-6.44a32.5,32.5,0,0,1,5-2.18c1.88-.35,4.09.15,5.23-2.08h0Z"/><path class="cls-226" d="M136.39,63.22A2.87,2.87,0,0,1,138.27,61c1.08-1.22,2.25-2.12,3.95-1.08l.23.28A10,10,0,0,1,136.39,63.22Z"/><path class="cls-231" d="M96.44,150.91q0,8.51-.08,17c-.07,1.71-.14,3.43-.22,5.15-1.86-6.62-.24-13.42-1-20.1-1.13-1.64-.82-3.52-.82-5.32,0-10.14-.09-20.27,0-30.4a3,3,0,0,1,1.18-1.49,1.57,1.57,0,0,1,1.54.93c1.24,10.83.65,21.69.33,32.54A2.72,2.72,0,0,1,96.44,150.91Z"/><path class="cls-224" d="M105.25,169.8c.89-2.94,3.26-1.59,5.1-1.77l-4.08,1.9Z"/><path class="cls-232" d="M88.4,174c0-1,.09-2.05.14-3.07,1.35-10.91-1.28-21.75-.6-32.66.19-3-.15-6,2.37-8.33,4-.36,1.84,2.37,1.4,3.43-2.35,5.6-2,11.13,0,16.65.83,2.28.56,4.58.58,6.87.06,7.37,0,14.74,0,22.28C88.94,178.51,91.84,174.13,88.4,174Z"/><path class="cls-233" d="M90.31,130c-1.79,10.29-.44,20.6-.41,30.9,0,3.24,2.07,7.18-1.37,10.09l-1.08-.08a2.47,2.47,0,0,1-.07-.81c-.46-2.46-.87-4.92.87-7.11,0-1.67,0-3.33,0-5-1.19-1.37-1.26-3-1.29-4.72-.06-1.09,0-2.19,0-3.28,0-1.36.07-2.72,0-4.08,0-1.64.06-3.29,0-4.93s0-3.32,0-5,0-3.35,0-5c0-1.94,0-3.89,0-5.83,0-2.73-.28-5.48.51-8.17.39-.73.83-1.39,1.84-1a2.22,2.22,0,0,1,.8,2.11Z"/><path class="cls-234" d="M95.36,116q-.1,18.47-.22,36.94h-.85c-1.06-10.49-.18-21-.48-31.51C94.12,119.58,91.7,116.93,95.36,116Z"/><path class="cls-235" d="M90.07,118.07l-.51-1.13c0-2.23-2.09-2.71-3.33-3.89-.72-.68-1.51-1.33-1.2-2.46A2.19,2.19,0,0,1,87.27,109c3.37,0,7-.42,8.26,4-2.16,1.4-1.82,4.17-3.23,6Z"/><path class="cls-236" d="M94.29,121v32h0c-.33.48-.65.45-1,0l-.06-32C93.61,120.51,94,120.51,94.29,121Z"/><path class="cls-237" d="M94.29,121l-1,0-1-2c.74-2.11-2-5.94,3-5.95a2,2,0,0,1,.75,1.81,3.88,3.88,0,0,1-.59,1.23l-.06-.06C93.63,117.37,94.59,119.31,94.29,121Z"/><path class="cls-234" d="M93.34,153c.32,0,.64,0,1,0v11.8h-1Z"/><path class="cls-238" d="M32.47,62.9l4.93,2.9c-.1.19-.19.38-.29.58-1,.82-2,1.67-3,2.45-1.74,1-2.14-.56-2.92-1.6-3.52,5.71-3.59,12.39-5.74,17.84a3.57,3.57,0,0,1,1.14-1.81c3.57-.84,3,2,2.75,3.6-1.35,9.19.5,18.07,2.1,27a31.87,31.87,0,0,0,3.19,8.27c-.91,1.72-3,1.72-4.26,2.85-4.6-1-4-5.39-4.79-8.38-3.27-13.07-4.62-26.28-.45-39.49A2.58,2.58,0,0,0,24.31,74c-1.63-4.92,1.45-8.39,3.73-12.11C29.69,61.5,31,62.64,32.47,62.9Z"/><path class="cls-239" d="M21.17,121.24c-2.9-2.34-1.48-6.53-3.88-9.08-2.35-.58-1.39-2.71-1.94-4.14a19.6,19.6,0,0,0-1-7.56c-.9-4.94-.45-9.91-.3-14.87.32-1.39.16-2.83.39-4.23,1.57-2.37.52-6.12,3.93-7.53,2.25,1.85,2.24,4.38,2.07,7A3.31,3.31,0,0,1,19.31,83c-1.61,1.46-.93,3.39-1,5.12C18,99.25,18.08,110.38,21.17,121.24Z"/><path class="cls-240" d="M28.34,62c-.86,4.17-3.75,7.67-4,12a10.4,10.4,0,0,0-2,7c-2.71-.24-1.65-2.42-2-3.88-.11-5.15,2-9.7,4.22-14.12C25.13,61.83,26.13,58.64,28.34,62Z"/><path class="cls-238" d="M21.29,77c.18,1.38-.45,3,1,4q-.79,6.63-1.6,13.25l-1.4-.13V83c0-.66,0-1.33,0-2C20.79,80.05,18.43,77.23,21.29,77Z"/><path class="cls-241" d="M34.6,122.14a3.59,3.59,0,0,1-3.4-3c-2.52-10.58-4.8-21.16-3.12-32.16.16-1,1.85-3.81-1.75-2.93.05-2.77-1.31-6.32,3.56-6.44a2,2,0,0,1,1.15,1,8.19,8.19,0,0,1,.14,4.85C30.7,88.85,30,94.21,29.75,98.58c.17,1.71,1.23.86.6,1.08-.15.06-.25,0-.26-.24-.08-2-1.4-5.22,1-5.46,3.3-.34,2.22,3.27,2.53,5.36a21,21,0,0,0,.47,3.94,76.6,76.6,0,0,0,4.6,16.4,2,2,0,0,1-.4,1.48Z"/><path class="cls-242" d="M38.33,121.14c.07-.33.15-.67.22-1,1-2,3.16-2.59,4.73-3.9,3-1,5.22-4.15,8.89-3.56,1.08,1.4.27,2.73-.15,4.08a3.39,3.39,0,0,1-2.76,2c-4,1.73-7.43,4.68-11.95,5.14Z"/><path class="cls-243" d="M15.35,85q0,7.88.08,15.75c1.08,2.31-.49,5,1,7.25.14,1.42-.39,3,.9,4.16-.13.68.4,1.65-.52,1.93-.31.1-.89-.71-1.35-1.11-.74-6.71-3-13.18-3.1-20h0c1.27-2.5-.36-5.63,1.69-8A.91.91,0,0,1,15.35,85Z"/><path class="cls-133" d="M24.34,133c0,.31,0,.63,0,.94l-4,2c0-.34,0-.68,0-1A5.47,5.47,0,0,1,24.34,133Z"/><path class="cls-244" d="M18.25,73.87c-.91,2.43-1.83,4.87-2.75,7.3a1.72,1.72,0,0,1-1.06-.57L14.23,80l1-6.09c1.21-5,4-9.6,4.08-14.93.95-.16,2.54-.27,2.17-1.3-.29-.83-2-1.14-3.11-1.68,3.27-.61,5.81.68,7.93,3.05C24.2,61.23,22,63.35,21.2,66.39c-1.18,2-1.47,4.25-2.06,6.43A2.51,2.51,0,0,1,18.25,73.87Z"/><path class="cls-183" d="M14.32,85c-1.23,2.52-.31,5.59-2,8-.09-4.43-.06-8.84,1.91-13h.16A6.2,6.2,0,0,1,14.32,85Z"/><path class="cls-245" d="M155,133.12c-3.56-.61-5.68-4.65-9.73-4.08-3-.88-5.2-3.34-8.14-4.38a51.64,51.64,0,0,0-6.46-3.81c-1-.72-1.86-1.49-1.59-2.89.81-1.17,2.24-.31,3.2-1,7.21,2.81,13.41,7.49,20.31,10.87.87.42,1.76.79,2.64,1.19,3,2.83,6.06,5.56,10,7,.92,1,2.55,1.91.05,2.93l-4.94-3.09A6,6,0,0,0,155,133.12Z"/><path class="cls-20" d="M8.3,93l0,3.1c-1.15-.72-2.33-1.54-1.68-3.1C6.9,92.19,7.71,92.86,8.3,93Z"/><path class="cls-246" d="M95.48,19.25q0,25.85,0,51.68c-1.88-1.34-1.1-3.34-1.11-5.05-.08-10.63-.06-21.25-.06-31.87.56-5.32-1.09-10.78,1-16C95.33,18.42,95.4,18.83,95.48,19.25Z"/><path class="cls-247" d="M6.26,81.93l1,.06c3,1.49.26,4.05,1.11,5.94l-3-.9C5.52,85.31,4.71,83.41,6.26,81.93Z"/><path class="cls-248" d="M51.34,70c-5-5.24-12.4-6.67-18-11l3.8-.95,2.16,1.1c1.49,1.31,3.52,1.64,5.07,2.83l4.88,2.19L54.31,67l4,3C56,68.81,53.66,69.93,51.34,70Z"/><path class="cls-249" d="M22.33,53A11.46,11.46,0,0,1,21,52.33c-1-.67-3-1.07-2.12-2.64s2.28-.15,3.43.26c.34,1.21,2.47,1,2.13,2.62C24.39,52.85,23.07,52.86,22.33,53Z"/><path class="cls-250" d="M53.15,74.37c0-1-.93-2.39,1.14-2.37,6,3.35,12.74,5.09,18.17,9.5,1.29,1,2.87,1.63,3,3.57a5.54,5.54,0,0,0-.13.91c-1.35,1.22-2.77.77-4.21.21-3.48-1.51-6.55-3.77-9.92-5.5C58.67,78.37,54.67,78,53.15,74.37Z"/><path class="cls-251" d="M71.08,85.11,75.3,86c0,1.66,0,3.33,0,5-2,1.07-1.63,2.94-1.54,5.34.58-2.19,0-4.11,1.54-5.34.33,0,.65,0,1,0,1.69,1.41,2.95,5.82,5.52.76,1-.84,1.82-2.15,3.45-1.93l.07.33c1.77,2.27,0,4-.87,5.91-1.65,3.63-1.35,4.22,2.69,4,2.82-.17,5.64-.56,8.43-.12,1.14.17,3.51-.14,2.27,2.48-2.78,1.57-6,.51-8.85,1.38-3.11,1-6.12,1.2-8.85-1.06-2-1.67-4.08-.32-6.13,0a4.41,4.41,0,0,1-3.5-1.46,13.14,13.14,0,0,1-2.16-10.68C69,88.61,69.34,86.5,71.08,85.11Z"/><path class="cls-252" d="M98.29,102c-3.22-2-6.73-1-10.08-.7a13.26,13.26,0,0,1-4.32-.23c-2.39-.58-4.9-.47-1.41-3.83,1.48-1.43,3.29-4.17,2.85-7.08,2.16-2.45,4.09-4.64,8.15-4.35C96.89,86.05,99,87,100.27,90a1.82,1.82,0,0,1,.45,1.32,2,2,0,0,1-1,.92,5.34,5.34,0,0,1-2-.08c-7.52-1.44-7.67-1.35-10.27,5.89,8.73,1.87,9.79,1.37,12.59-5.93,2.07-1,3.08.5,4.21,1.72-.09,2.6-2.76,4.24-2.45,7.15.15,1.48-1.51,1.92-3,1.45Z"/><path class="cls-253" d="M100.39,90.93a7.09,7.09,0,0,1-.12-.91c.15-3.38-.4-6.28-4.31-7.35-1.22-.34-1.66-1.54-1.58-2.82.12-1.93,1.54-1.83,2.9-1.84l6.08,3.93a1,1,0,0,1,.3.75c0,.27-.07.41-.12.41-.57,2.66.11,5.64-2,7.94A.82.82,0,0,1,100.39,90.93Z"/><path class="cls-254" d="M85.26,89.83c-1,.71-1.35,2.29-3,2.17-4.81,1.34-5.67.49-5.08-5,1.56-1.76,3-5.11,5.19-4.31C84.88,83.56,85.52,86.92,85.26,89.83Z"/><path class="cls-255" d="M77.23,87c-.38,3.77,1.3,5.45,5.08,5a13.7,13.7,0,0,1-1.16,2.58c-.62.87-.91,2.31-2.33,2.2-1.9-.13-1.34-1.88-1.72-3-.3-.91-.54-1.85-.81-2.78C76.46,89.63,75.87,88.08,77.23,87Z"/><path class="cls-256" d="M123.34,71.09c-3,1.9-6.06,3.72-9,5.74-2.43,1.68-4.65,1.78-6.93-.12-1.72-2.57-4.68-3.31-7.12-4.82,2.82-3.33,5-.19,6.76,1.12,3.3,2.43,5.92,2.3,8.69-.59-4.16-5.64-9.82-8.68-16.26-10.51-1.07-.31-2.4-.15-2.69-1.69.18-1.75-.44-3.57.44-5.26l.08,0c.39-.52.72-1.38,1.44-1.17,9.91,2.76,19.8,5.59,25,15.86A1.66,1.66,0,0,1,123.34,71.09Z"/><path class="cls-257" d="M97.36,61c4.86-.93,8.93,1.8,12.52,4a36,36,0,0,1,7.66,6.89c-4.88,5.64-5.27,5.58-11.55,1.62-1.57-1-3.19-3.25-5.67-1.61-1.27.72-2-.57-3-.83A20.2,20.2,0,0,1,97.36,61Z"/><path class="cls-258" d="M110.28,86h1c2.23,2.82,2.55,6.19,2.08,9.48a20.67,20.67,0,0,0,.54,8.3,2.56,2.56,0,0,1-.55,1.41c-2.24,1-3.91-.35-5.66-1.36a2.41,2.41,0,0,1-.79-1.22,2.29,2.29,0,0,1,.52-1.32c1.8-1.15,1-2.79.86-4.35-.19-2-.77-4.2,1-5.94C111,89.59,110.09,87.69,110.28,86Z"/><path class="cls-259" d="M100.39,90.93c.32,0,.63,0,1-.05,5.49-1.42,2.55-5,2-7.94,0-.34,0-.67,0-1,3.76.83,4.63,4.1,5.93,7-.69.64-.39,1.62-.8,2.36A5.2,5.2,0,0,1,105,94h-.66c-1.73.12-2.58-1.5-4-2h0C100.32,91.64,100.35,91.29,100.39,90.93Z"/><path class="cls-251" d="M108.29,91a2.19,2.19,0,0,1,1-2c0,.68,0,1.36,0,2,.11,2.59-.25,5.17.71,7.74.85,2.29-.36,3.37-2.71,3.24-2.87-1.36-1.12-3.64-.92-5.45A12.52,12.52,0,0,1,108.29,91Z"/><path class="cls-260" d="M97.36,61q0,5,0,10.07c-.42,1.13-.74.84-1-.06l.24-16c.24,0,.48-.06.72-.07Q97.31,58,97.36,61Z"/><path class="cls-209" d="M62.31,70c-3.92-1.27-4-2.79-1-5.66A48,48,0,0,1,82.88,51.92c4.07-1.06,5,.53,4.42,4.07A48.26,48.26,0,0,0,62.31,70Z"/><path class="cls-195" d="M44.37,62c-1.9-.57-4.32-.2-5.07-2.83l1.74.13Z"/><path class="cls-261" d="M145.3,69c2.21-2.51,3.79-2,5,1a50.22,50.22,0,0,1,4,18.67A111.93,111.93,0,0,1,152.39,109c-.49,2.84-2.1,5.12-2.84,7.82-.42,1.52-2.2,3.2-4.26,1.1-1.6-1.95-.31-3.77.25-5.63,3.93-13,5.38-26,.11-39C145.09,71.94,144.51,70.5,145.3,69Z"/><path class="cls-262" d="M145.3,69c4.26,9.07,5.27,18.32,4.52,28.5-.53,7.29-3.32,13.61-4.53,20.47l-2.24.15a20.51,20.51,0,0,1-7-4c4.73-1.47,6.35-5.23,7-9.63,1.34-9.3,4.52-18.5.93-28-.85-2.26-3.63-4.26-1.7-7.23Z"/><path class="cls-263" d="M142.25,69.2a54.38,54.38,0,0,1,5.15,18c.08.8.78,1.87.47,2.31-4.35,6.23-2,14-5.2,20.75-1.73,3.65-3.26,4.51-6.63,3.84-2.06-.31-3.43-2.34-5.64-2.27-1.05-.42-1.81-1-.88-2.18a3,3,0,0,1,2.15-.21c5,1.78,7.78.83,9.27-4,3-9.56.87-19-1.22-28.43-.65-2.89-3.5-1.94-5.31-2.81-.79-1.36.23-1.73,1.17-2.14L141.26,69Z"/><path class="cls-264" d="M107.4,103l5.9,2c5.06.22,8.75,3.16,12.45,6.15,1.91,1.54,3.42,3.53,5.52,4.85l1,1c-.81,1.23-2.18.9-3.33,1.17a1.91,1.91,0,0,1-2.38-.47,7.62,7.62,0,0,0-4.87-2.65,23.07,23.07,0,0,1-5.53-2.35c-1.8-1.32-3.82-2.33-5.54-3.76a27.36,27.36,0,0,0-2.25-1.63C107,106.12,105.76,104.89,107.4,103Z"/><path class="cls-245" d="M131.27,116c-5.1-1.13-7.49-6.41-12.35-8-2-.65-3.75-2-5.62-3l0,0a4.28,4.28,0,0,1,4-.92,6.1,6.1,0,0,1,1.3.46,13.72,13.72,0,0,0,6,2.63c1.69.67,3.53,1.11,4.39,3l1.4,1.7C128.9,113.59,130.74,114.65,131.27,116Z"/><path class="cls-265" d="M117.18,82.94l4.76-2.09C130.8,76.24,132,79,132.89,87c.75,6.55-2.63,12.43-4.08,18.62a2.15,2.15,0,0,1-3.55,1.27c-2.54-2.15-5.87-1.71-8.64-3-3.1-.77-3.67-3-3.18-5.72a20.47,20.47,0,0,0,.1-8.32C112.75,86.37,113.8,84.1,117.18,82.94Z"/><path class="cls-266" d="M117.07,103.09c2.36-.49,4.58,2.73,7.26-.07.9-1,.79,1.15,1,1.9s.31,1.77,1.39,1.56c.52-.11,1.29-.84,1.3-1.3.14-6.62,4.87-12.32,3.44-19.38-1.4-6.87-1-7-8-5a6.08,6.08,0,0,1-1.48.07,9.25,9.25,0,0,1,5.07-3,12.12,12.12,0,0,0,3.11-1.57c2.9-2,4.46-.7,5.87,1.93,4.7,8.72,4.14,17.91,2.59,27.19-.21,1.26-.58,2.82-2.3,2.8-1.49,0-1.78-1.22-1.68-2.75-.81,1.89-.31,4.56-3.3,4.51l-2.3.14L124.25,108c-1.94-1.1-4.27-1.45-5.86-3.18l.06,0C117.67,104.52,116.87,104.19,117.07,103.09Z"/><path class="cls-267" d="M131.3,110c2.48-2.17,2.15-5.64,3.65-8.36,2.56,1.67-1.25,4.3,1.31,5.84,1.91-1.11,1.42-3.37,1.5-4.83.45-7.65,1.35-15.29-2.29-22.74-1.81-3.69-3.26-4.44-6.52-2.32a5.17,5.17,0,0,1-1.94.3l3.31-2.82c1.15-.68,2.07-2.06,3.72-1.19,4.89-2.07,7,.39,7.61,4.85,1.25,9.08,3.57,18.15.66,27.36C140.54,111.69,136.15,113.31,131.3,110Z"/><path class="cls-268" d="M117.07,103.09l1.38,1.77-5.13.11c-2.94-6.09,0-12.79-2-19,2-1,3.11-3.56,5.85-3.06-2.41,1.52-3.8,3.07-2.35,6.38a11.5,11.5,0,0,1-.26,9.17C113.53,100.92,114.12,102.71,117.07,103.09Z"/><path class="cls-114" d="M134,73.87l-3.72,1.19c1.09-2.16,3-2.9,5.26-3Z"/><path class="cls-269" d="M88.25,163c-.26,2.37,1,4.93-.87,7.11-5.84-3.93-13.23-2.82-19.36-6-5-2.57-10.28-4.56-14.71-8.12-.81-2.53-4-2.72-5-5,2-4,4-1.28,6,0,8.43,5.22,17.06,9.93,27.05,11.59A57.09,57.09,0,0,0,88.25,163Z"/><path class="cls-270" d="M54.31,151c-2-.86-4-1.51-6,0-3.21-1.45-4.83-4.5-7-7,1.69-.89-.15-2.41,1-4.21Z"/><path class="cls-210" d="M88.26,153c0,1.66,0,3.32,0,5-9.82.29-18.3-3.76-26.63-8.24-2.81-1.52-5.12-4.07-8.87-3.36-1.26.24-2.43-.89-3.39-1.85-2.82-2.83-5.66-5.62-8.45-8.47-2.47-2.5-4.15-5.11-.59-8.07l1-.79c2.18,1.47,3.24,3.91,5,5.73C52.56,141.3,61.47,145.45,71,148.6A115.21,115.21,0,0,0,88.26,153Z"/><path class="cls-271" d="M88.3,141v5c-.85,3.53-3.42,3-5.88,2.37-9.25-2.3-17.5-6.75-25.53-11.76-4.31-2.7-9.18-4.67-11-10.06,0-1.15.79-1.86,1.34-2.72l3.43-2.69c0-1.2.83-1.64,1.85-1.88a2.47,2.47,0,0,1,2,.68,2.17,2.17,0,0,1,0,1.4c-2.11,2.27-1.53,4,.46,6.3,7,8,16.78,10.68,26.17,14.21C83.84,142.83,85.81,140.14,88.3,141Z"/><path class="cls-272" d="M46.32,126c5.07,7.75,13.58,10.66,21.07,15a64.83,64.83,0,0,0,16.71,6.54c2.16.55,3-.48,4.2-1.54,0,1.33,0,2.67,0,4-1.28,2.46-3.47,2.3-5.63,1.8C71,149.12,60.08,145,51.42,136.32c-2.14-2.15-3.62-4.74-5.67-7.12.86,1.49,2.2,2.92-.44,3.78a10.4,10.4,0,0,1-4-5.8.39.39,0,0,1,.53-.35C43.36,126.62,44.67,125.37,46.32,126Z"/><path class="cls-273" d="M52.32,119.89l-1.65,1.23c-1.72,0-2-.87-1.41-2.31l2-1.87a21,21,0,0,1,8.07-5.73c5.36-2.64,10.1-6.55,16-8a2.29,2.29,0,0,1,2.36,1.43c.15,1.46-.82,2.16-1.87,2.81a14.81,14.81,0,0,0-4,2.15,17.47,17.47,0,0,1-3.29,2,9.36,9.36,0,0,0-3.74,2.09,31.78,31.78,0,0,1-3.38,3,24,24,0,0,1-4.77,2.2C55.21,119.24,53.57,118.8,52.32,119.89Z"/><path class="cls-274" d="M46.32,126a6.21,6.21,0,0,1-4.45.84,13.44,13.44,0,0,1,5.37-3A2.06,2.06,0,0,1,46.32,126Z"/><path class="cls-275" d="M52.29,113.06c-3.32.42-5.41,3.44-8.64,4.07-2.36,1-3.27-.65-4.15-2.31-2.2-4.15-3.68-16.74-2.56-21.8-1,1.49-2,3.42-3.42.56-.9-1.8-.5-3.89-.6-5.86-.09-5.88,1.75-11.27,4.16-16.51,1.11-2.41,2.76-3.63,5.47-2.32a4.5,4.5,0,0,1,3,1.77C43.77,75.14,42,79.6,41.24,84.39c-.59,3.61-.64,6.71,1.35,10.36,2.11,3.88,1.13,9.06,2.67,13.48.73,2.1,1.24,4.45,4.35,2.78,1.39-.64,2.78-1.18,4.32-.54a1.3,1.3,0,0,1,.71,1.25A1.8,1.8,0,0,1,52.29,113.06Z"/><path class="cls-276" d="M50.31,112c-3.25,3-5.05,2-5.93-2.08s-2.71-8.06-2.1-12.44c.11-.78,0-2.23-.32-2.33-5-1.54-2.88-5.78-2.38-8.23,1.15-5.61.9-12,5.92-16.23l0,0c.86,1.72,2.66,1.65,4.14,2.19l3.54,1.5,8.36,5.53c-3.82,1.89-6-1.71-9-2.63C50,76,48.24,76.49,47.67,79.34c-1.17,5.88-3.15,11.36,0,17.76C49.83,101.3,51.48,106.67,50.31,112Z"/><path class="cls-277" d="M42.55,68.89c-1.63.16-3.34.07-4.09,2-2.07,5.52-4.55,10.93-4.15,17a15,15,0,0,0,.07,8.11c.63,2.67,1,5.49-1.07,7.89-2.33-2.77.08-6.42-1.78-9.75-2.18,2-.54,4.56-2.2,7.76.43-7.22-1.16-13.14,1-19,1,1.24.12,2.79.51,3.79,0-7.31,2.8-14,6.42-20.51l.16-.46A12.83,12.83,0,0,1,42.55,68.89Z"/><path class="cls-278" d="M20.33,66c.73-3.4,1.85-6.46,6-7l6.18,3.84A5.66,5.66,0,0,1,28.34,62c-1.93-1.59-2.23.42-2.66,1.38-2,4.38-3.94,8.77-4.39,13.64-1.57.89-.38,3.14-2,4,.29-2.47-.43-4.79-1.07-7.12a2.05,2.05,0,0,1,.13-.89C20.09,71,19.27,68.22,20.33,66Z"/><path class="cls-275" d="M49.61,72.87c-1.87.19-3.64.21-4.14-2.19A8.11,8.11,0,0,1,49.61,72.87Z"/><path class="cls-279" d="M146.25,130c4.89,2.61,5.26,3.35,1.58,7.64-12.68,14.74-28.47,23.83-48.1,25.65-4.23.39-1.7-2.85-2.4-4.36a7.83,7.83,0,0,1,4.45-2c17.15-3.15,31.6-10.84,42.15-25.08A5.05,5.05,0,0,1,146.25,130Z"/><path class="cls-280" d="M146.25,130c-6.43,11.8-17,18.59-28.88,23.76a66.24,66.24,0,0,1-20,5.17c0-1.66,0-3.32,0-5a181.28,181.28,0,0,0,22.55-7.53,51.85,51.85,0,0,0,18.6-13.61c1.48-1.64,2.87-4,0-6-.82-.89-1.95-1.66-1.09-3.13,3.08,1.12,6.05,2.39,7.9,5.34Z"/><path class="cls-281" d="M139.28,126c3.35,2.29,2.12,7.73-2.22,10.89-3.82,2.79-7.82,5.25-11.35,8.59-3.27,3.1-8.72,2.4-12.77,4.72A30.56,30.56,0,0,1,97.31,154c0-1,0-2,0-3l.51-.53c7.32-1.85,14.67-3.33,21.51-7s12.13-9,17.22-14.65A12.47,12.47,0,0,1,139.28,126Z"/><path class="cls-282" d="M96.44,150.91l-.06-34.85a1,1,0,0,1,1.51.41c1.66,4.63.63,9.43.82,14.15,0,1.73.1,3.47,0,5.2s.07,3.42,0,5.12c0,2,.06,4,0,6a5.81,5.81,0,0,1-1.33,4l-.08,0A7.58,7.58,0,0,1,96.44,150.91Z"/><path class="cls-260" d="M142.22,59.89,138.27,61c-4.68-5.73-10.27-10.43-16.15-14.92-4.05-3.09-7.11-7.16-12.67-8.34-4-.86-8-2-12.11-1.7,0-6,0-6,5.75-5,3.41.61,6.8,1.32,10.2,2,2.21,1.29,5,1.33,7,3h0c5,8.32,14.59,11.59,20.47,18.93C142,56.43,144.13,57.53,142.22,59.89Z"/><path class="cls-283" d="M123.34,71.09c0-.37,0-.73,0-1.1,1-2.39,1-4.51-1.24-6.3-6.18-4.88-11.63-10.95-20.16-11.86A7.09,7.09,0,0,1,97.35,50V45a2.74,2.74,0,0,1,2.22-.91c13.07,2.1,24,7.75,31.56,19a2.06,2.06,0,0,1,.16,1.9l-1,2.07c.32,2-1.58,1.12-2.29,1.79C126.43,69.53,125.22,71,123.34,71.09Z"/><path class="cls-267" d="M131.29,65a45.91,45.91,0,0,0-15.71-14.72c-5.32-3.12-11.88-4.4-18.23-5.27V40c5.45,1.35,10.88,2.77,16.35,4a10.08,10.08,0,0,1,4.87,3.29c4.14,4.3,8.83,8,13.05,12.12C133.16,60.94,135.59,63.4,131.29,65Z"/><path class="cls-284" d="M97.35,50c12.54.13,20.91,7.76,28.58,16.3,2.72,3-2.36,2-2.64,3.69-6.46-8.79-15.43-13.24-25.95-15C97.34,53.33,97.35,51.67,97.35,50Z"/><path class="cls-226" d="M120.3,36c-2.46-.72-5.12-1-7-3C115.89,33.4,118.68,33.33,120.3,36Z"/><path class="cls-164" d="M128,68.85l2.29-1.79,3-1C132.58,68.88,130.4,69.05,128,68.85Z"/><path class="cls-285" d="M97.3,116l-.47-.11-.45.19-.48,0-.48,0c0-.37,0-.74-.08-1.1,1.34-3.77,3.51-3,5.87-1.06C101,116.64,99.18,116.38,97.3,116Z"/><path class="cls-286" d="M68.16,111l3.18-1.93a5.23,5.23,0,0,1,4.46-.88c4,3,8.83,4.45,12.55,7.79,0,3,0,6,0,9-.3.4-.77.77-.83,1.22-.76,5.24-1.67,5.91-6.66,3.83-5.19-2.18-10.42-4.44-15-7.74-5.23-3.75-5.14-5.38-.06-9A10.32,10.32,0,0,0,67.27,112C67.57,111.68,67.87,111.33,68.16,111Z"/><path class="cls-287" d="M68.28,111.9c.06,1.41-.93,2-2,2.59-4.38,2.68-4.7,3.82-.26,6.49,6.36,3.82,12.67,8.14,22,9.38-3.31-3.29-4.19-5.36.28-5.38,0,2,0,4,0,6-1.08,5.41-1.36,5-6.79,4.36-9.79-1.21-16.93-7.2-24.61-12.3-2.19-1.45-2.5-2.94.37-4.26a9.91,9.91,0,0,0,4-2.92l3.05-2.93C65.58,112.39,66.61,110.91,68.28,111.9Z"/><path class="cls-203" d="M61.26,115.86c-.79,2.67-2.77,4-5.3,4.81C64.41,127,73,133,83.83,134.83c3.93.67,3-2.66,4.48-3.85,0,1.66,0,3.33,0,5-1.1,5.39-2.22,6-7.69,4.38-9.06-2.71-17.94-5.72-23.95-13.76-1.26-1.69-3.14-3.08-2.37-5.61l-.05-1.15c-.34-1.8,1.6-1,2.1-1.83Z"/><path class="cls-288" d="M54.31,121c4.61,6.66,9.36,13,18,15A39.66,39.66,0,0,1,80.51,139c4.25,2.06,6.33.89,7.81-3,0,1.67,0,3.34,0,5-3.73,3.33-7.47,2.29-11.67.61-8.53-3.44-17-6.62-23.36-13.9C50.21,124.22,50.6,122.71,54.31,121Z"/><path class="cls-274" d="M45.31,133c2-1.57-.81-2.89.09-5.18,4.18,4.1,7.71,8.46,12.07,12,8.11,6.55,17.73,9,27.52,11.09,1,.22,2.17-.57,3.26-.9,0,1,0,2,0,3-4.29,2.66-8.29-.36-11.91-1.42-9.59-2.8-19.31-5.84-26.9-13A16.26,16.26,0,0,1,45.31,133Z"/><path class="cls-289" d="M88.35,116c-4.62-1.26-8.91-3.09-12.14-6.82-.35-.66-1.43-1-.93-2L77.34,105c1.07-1,2-.38,3,.17a8.15,8.15,0,0,1,1,.82c1.64,1.85,3.8,1.92,6,1.74,3.72.35,7.28-.94,11-1,2.77-.06,5.47-.26,7.09-3,.49-.53,1-1,1.8-.66l.11,0c-.55,1.9.84,2.85,1.92,4a3.85,3.85,0,0,1-.7,2.43,5.64,5.64,0,0,1-1.46,1.34,33.52,33.52,0,0,0-5.14,3.09l-.62.26c-2.06,0-4.4-1.87-6.06.89,0-.65,0-1.3-.08-1.94-2.43-3.25-5.74-3.25-9.57-2.69.49,2.89,6.52,2.33,3.87,6.59Z"/><path class="cls-290" d="M29.31,78c-2.95,1-2.13,3.93-3,6-.14,1.73.42,3.6-1.06,5.39-1.95-2.51-.4-4.72,0-6.92.9-5.54,2-11,4.77-16,.52-.93.39-2.65,2-2.25,2,.48.43,1.83.38,2.8-.09,1.8.94,1.25,1.87.92,1.34,3.35-.08,5.91-2.33,8.23C28.83,73.5,30.93,78.48,29.31,78Z"/><path class="cls-291" d="M31.31,76c2.46-2.12,2-5.35,3-8,.15-2,1.44-2,3-1.7.31,4.88-3.34,8.48-4.23,13-.56,2.85-2.07,5.51-2.7,8.59V83c0-1.66,0-3.32,0-5C29.7,76.86,30.45,76.39,31.31,76Z"/><path class="cls-172" d="M16.39,108c-2-2.19-.78-4.81-1-7.25C16.74,103,16.16,105.57,16.39,108Z"/><path class="cls-292" d="M14.32,85c0-1.66,0-3.31.07-5l1.11,1.15L15.35,85Z"/><path class="cls-293" d="M33.31,104c.54-5.32-1.11-10.77,1-16v6.54c3.15-1.55,1-4.49,4.08-7.15-1.64,6.16-.07,10.92-.12,15.78,0,3.91,1.23,7.5,2.3,11.14.43,1.5,1.29,2.72,3.08,2.83-1.31,1.66-3.28,2.22-5.1,3C34.36,115.55,34.09,109.68,33.31,104Z"/><path class="cls-238" d="M31.31,76l-1,2h-1c.28-2-.86-4.41,1.82-5.74C32.16,73.51,30.91,74.79,31.31,76Z"/><path class="cls-220" d="M52.29,113.06l1.88-1.16c1.73-1.39,3.47-2.71,5.14.07-2.69,1.66-4.88,4.13-8.08,5Z"/><path class="cls-239" d="M20.33,66c-.39,2.39,1.73,5.48-1.95,7A10.66,10.66,0,0,1,20.33,66Z"/><path class="cls-260" d="M97.34,151c0-1.34,0-2.67,0-4a7.53,7.53,0,0,1,4.42-2c11.71-2.07,21-8.27,29.14-16.64,2.43-2.5,2.7-4.16,0-6.24a1.8,1.8,0,0,1,.4-2c2.2.93,4.42,1.85,6.1,3.65a2.94,2.94,0,0,0,1.89,2.31c-3,6.89-8.55,11.71-14.45,15.62C116.64,147.06,107.6,151.08,97.34,151Z"/><path class="cls-294" d="M131.29,120.05V122c.09,2.23-1.32,3.75-2.68,5.17a48.91,48.91,0,0,1-26.09,14.6c-1.81.36-3.64.69-5.18-.79v-5c4.75-2.28,10-3.1,14.74-5.56a47.75,47.75,0,0,0,10.27-7.63c2.16-2,1.18-3.23-.53-4.58a2.93,2.93,0,0,1,.11-1.41,2.85,2.85,0,0,1,1.61-1.34,4.68,4.68,0,0,1,3.69,1.73c.23.95.9,1.1,1.73,1Z"/><path class="cls-295" d="M53.33,76.07c2.62,1.49,4.92,3.68,8.18,3.83,3.64.91,6.15,3.9,9.57,5.21a8.05,8.05,0,0,1-1.7,5A13.8,13.8,0,0,0,62,82.88c-2,4.36-1.81,9-1.17,13.58s2,5.52,6.8,5a2.49,2.49,0,0,1,1.86.51c-.9,4.47-5.12,4.53-8.16,6.17a20.45,20.45,0,0,0-3.32,1c-3,1.21-5.21,0-5.46-3-.51-5.9-2.27-11.87-.27-16.77.5-1.65-.61-.82,0-1,.25,2-1.07,3.21-2.14,4.65C46.79,88.75,48.51,80.09,53.33,76.07Z"/><path class="cls-296" d="M69.64,102.15a5.12,5.12,0,0,0-1.47.06c-6.27,2.11-7.37,1.82-8.58-4.36a27.36,27.36,0,0,1-.19-11.26c.41-1.82,1.31-5.12,2.67-4.57,2.61,1.06,6.33,1.45,7.18,5.17a15.31,15.31,0,0,1,.13,3c.05,3.72.11,7.44,1.88,10.85C71.54,102.55,70.65,102.43,69.64,102.15Z"/><path class="cls-297" d="M69.64,102.15,71.26,101l3,1a1.78,1.78,0,0,1,1.34,1,.71.71,0,0,1-.45.9L59.31,112c-1.69-1.51-3.43.14-5.14-.07a1.76,1.76,0,0,0,0-.94c1.61-2.7,4.92-2.35,7.12-4A28.76,28.76,0,0,0,69.64,102.15Z"/><path class="cls-298" d="M75.28,103l-1-1c2.25-1.9,4.59-2.3,6.8-.06s4.68,1.41,7.17,1.06c.46,2.72,2.15,3.53,4.65,2.87,1.75-.47,3.43-1.25,5.31-.67a2.33,2.33,0,0,1,1.51,1.47,1.72,1.72,0,0,1-.44,1.35c-4.36-.1-8.59,1.62-13,1a12.73,12.73,0,0,1-6-3h0C79.11,104.19,77.62,102.86,75.28,103Z"/><path class="cls-299" d="M98.29,106c-3.21-.52-5.88,2.44-9.4,1.06-3.26-1.27-2.21-2.45-.61-4.07,3.18-2,6.69-.51,10-1h0a1.17,1.17,0,0,1,.44,1.06C98.42,104,98.83,105.06,98.29,106Z"/><path class="cls-300" d="M75.32,91v9.23c-3.46-3-3.29-6-2.79-8.92.32-1.82,1.8-.54,2.79-.31Z"/><path class="cls-301" d="M100.29,92c.56,6.42-.79,8-6.88,8a5.45,5.45,0,0,1-1,0c-2.45-.48-5.29,1.22-7.37-1.3,3-1.54,1.34-5.35,3.54-7.2a7,7,0,0,1,6.09-1.39,50,50,0,0,1,5.61,1.9Z"/><path class="cls-251" d="M98.34,103c0-.32,0-.64,0-1,1.24-.14,3.39,0,2.72-1.76-1.36-3.65,1.57-4.5,3.28-6.22l0-.09c1.37-.77,2.27-.26,2.52,1.17.3,1.81-5,8-7.21,8.69A2.45,2.45,0,0,1,98.34,103Z"/><path class="cls-302" d="M103.37,82.94c2.31,1,3,3.67,3.19,5.29.54,4.17-3.17,2.22-5.22,2.65-.8-2.3,2.54-4.58-.16-7.11C100.54,83.17,102.6,83.26,103.37,82.94Z"/><path class="cls-303" d="M84,87.9c-.16,1.65-1.44,2.2-2.71,2.44-1.44.27-2.83-.36-2.75-2s1.65-1.94,2.93-2.18A2,2,0,0,1,84,87.9Z"/><path class="cls-304" d="M99.31,103c1.28-.06,2.71.13,2.94-1.72.28-2.2.58-4,3.34-4.94,1.54-.53.23-2.08-1.28-2.39q2-1.49,4-3c.57,3.75-1.84,7.23-1,11,0,.34,0,.67,0,1l-1,1a7.5,7.5,0,0,1-6.12,3.1C99.72,105.74,98.51,104.57,99.31,103Z"/><path class="cls-209" d="M107.27,110l1-1c.85-.76,1.68-1.57,3-1,1.46,1.57,3.94,1.72,5.12,3.67a2,2,0,0,0,.63.75c1.73,1.16,2,2.51.53,4.09,1.12-.83,1.89-2.52,3.76-1.45.75.43,1.43.84,1,1.87h0c-2.62,7.62-17.61,16.22-25,14q0-7.5,0-15l4.1-1.89h0C103,112.23,105.53,111.68,107.27,110Z"/><path class="cls-305" d="M122.3,117c-1.09-1.16-2.09-2.27-3.49-.21a4.53,4.53,0,0,1-4.29,2.4c.63-2.56,5.21-4.17,1.86-7.45l5.57,2.39c.81.25,1.67.45,1.44,1.62Z"/><path class="cls-245" d="M123.39,115.73,122,114.11c2.32.07,4.31.69,5.29,3.07Z"/><path class="cls-285" d="M111.26,108.05l-3,1a2.07,2.07,0,0,1,1-2C110.14,107,110.94,107.1,111.26,108.05Z"/><path class="cls-268" d="M118.39,104.82a12.82,12.82,0,0,1,5.86,3.18C121.76,107.92,119.5,107.42,118.39,104.82Z"/><path class="cls-220" d="M56.36,118l-2.1,1.83-1.94.06C53.14,118.13,54.65,117.85,56.36,118Z"/><path class="cls-251" d="M75.28,103c3.57-2.18,4.22.53,5,3l-3-1c-.45-.86-1.3-1-2.13-1.08A3.91,3.91,0,0,0,75.28,103Z"/><path class="cls-306" d="M75.28,107.12l.93,2-4.87-.09C72,107.15,73.63,107.07,75.28,107.12Z"/><path class="cls-307" d="M68.28,111.9l-4,1c.75-1.71,2.18-2.06,3.85-2A1.23,1.23,0,0,1,68.28,111.9Z"/><path class="cls-266" d="M61.27,107c-1.91,2.15-4.75,2.66-7.12,4a6.51,6.51,0,0,0-3.84,1c-1-4.33-3.14-8.52-2.86-13,.18-3-3.26-2.94-3.24-5.72A55.94,55.94,0,0,1,47,76.69c1.52-4.82,4.17-.62,6.3-.62-3.17,4.84-3.64,10.29-4.11,17,1.57-2.7,2.53-4.36,3.48-6-.72,5.08.62,10.08.62,15.13,0,6.53.21,6.66,6.47,4.86A6,6,0,0,1,61.27,107Z"/><path class="cls-275" d="M97.35,141c14.36-.9,25.24-8,34-19,5.32,2.17,5.17,2,1.17,6.39-9.53,10.37-21,17-35.11,18.58C97.36,145,97.36,143,97.35,141Z"/><path class="cls-305" d="M97.35,131c10.24-1.23,18.28-6.38,25-14,.09.93.37,1.38,1.53,1.29,3.44-.27,2.72,1.66,1.35,3.23C117.79,129.9,108.63,135,97.35,136Z"/><path class="cls-285" d="M100.26,107l6-3c-.75,4.07-4.29,3.31-7,4v-1C99.6,106.5,99.92,106.51,100.26,107Z"/><path class="cls-285" d="M107.27,110c-1.09,2.63-3.57,3.26-5.89,4.12C102,110.81,104.94,110.83,107.27,110Z"/><path class="cls-251" d="M80.31,106l6,3C83.67,109.26,81.5,108.59,80.31,106Z"/><path class="cls-308" d="M100.26,107l-1,0-1-1c-.84-1-2.46-2.07,0-3,.33,0,.65,0,1,0A6.12,6.12,0,0,1,100.26,107Z"/></g></g></svg>