<svg xmlns="http://www.w3.org/2000/svg" viewBox="0 0 189.27 189.99"><defs><style>.cls-1{fill:#fdfdfd;}.cls-2{fill:#fefefe;}.cls-3{fill:#604828;}.cls-4{fill:#5c4426;}.cls-5{fill:#784f14;}.cls-6{fill:#3b2f24;}.cls-7{fill:#413425;}.cls-8{fill:#624a29;}.cls-9{fill:#e9e2c8;}.cls-10{fill:#8b8046;}.cls-11{fill:#795e34;}.cls-12{fill:#7a5d31;}.cls-13{fill:#654c27;}.cls-14{fill:#ccc59c;}.cls-15{fill:#dbd5b5;}.cls-16{fill:#7e6e30;}.cls-17{fill:#d0c89e;}.cls-18{fill:#725933;}.cls-19{fill:#5c4822;}.cls-20{fill:#cec69d;}.cls-21{fill:#e8e0bf;}.cls-22{fill:#785d2d;}.cls-23{fill:#6f522b;}.cls-24{fill:#4f3c23;}.cls-25{fill:#5b4325;}.cls-26{fill:#d1c79a;}.cls-27{fill:#715830;}.cls-28{fill:#56491f;}.cls-29{fill:#8b6d3d;}.cls-30{fill:#96774d;}.cls-31{fill:#906f40;}.cls-32{fill:#9b7845;}.cls-33{fill:#87673b;}.cls-34{fill:#bea274;}.cls-35{fill:#b29462;}.cls-36{fill:#ceb88f;}.cls-37{fill:#614727;}.cls-38{fill:#755730;}.cls-39{fill:#6c512a;}.cls-40{fill:#3c2f21;}.cls-41{fill:#695826;}.cls-42{fill:#5c4523;}.cls-43{fill:#7f5f35;}.cls-44{fill:#342a20;}.cls-45{fill:#8b7a3e;}.cls-46{fill:#decba8;}.cls-47{fill:#e2d8bc;}.cls-48{fill:#cfc8a1;}.cls-49{fill:#755e3b;}.cls-50{fill:#9e8253;}.cls-51{fill:#453621;}.cls-52{fill:#9c7a48;}.cls-53{fill:#c2bb93;}.cls-54{fill:#6e5836;}.cls-55{fill:#836f38;}.cls-56{fill:#6a5e25;}.cls-57{fill:#dccfb0;}.cls-58{fill:#8e6f41;}.cls-59{fill:#997746;}.cls-60{fill:#ddc9a4;}.cls-61{fill:#816539;}.cls-62{fill:#916e40;}.cls-63{fill:#87693c;}.cls-64{fill:#d7c6a3;}.cls-65{fill:#dfd6b7;}.cls-66{fill:#6a4d2d;}.cls-67{fill:#514024;}.cls-68{fill:#e8e3c9;}.cls-69{fill:#cdc59b;}.cls-70{fill:#42331d;}.cls-71{fill:#e1d4b4;}.cls-72{fill:#795d37;}.cls-73{fill:#e4d5b7;}.cls-74{fill:#5b5129;}.cls-75{fill:#9d804e;}.cls-76{fill:#725430;}.cls-77{fill:#6f542f;}.cls-78{fill:#7a5833;}.cls-79{fill:#ada575;}.cls-80{fill:#3e301c;}.cls-81{fill:#81633b;}.cls-82{fill:#927042;}.cls-83{fill:#5a4c26;}.cls-84{fill:#d3caa0;}.cls-85{fill:#957242;}.cls-86{fill:#846138;}.cls-87{fill:#977443;}.cls-88{fill:#8e6b3e;}.cls-89{fill:#785632;}.cls-90{fill:#725431;}.cls-91{fill:#ae8d5c;}.cls-92{fill:#403e37;}.cls-93{fill:#eee7cb;}.cls-94{fill:#39332b;}.cls-95{fill:#8b6f42;}.cls-96{fill:#554823;}.cls-97{fill:#ede5bc;}.cls-98{fill:#d4c29c;}.cls-99{fill:#3e3c36;}.cls-100{fill:#352f29;}.cls-101{fill:#322714;}.cls-102{fill:#5d5329;}.cls-103{fill:#a9a070;}.cls-104{fill:#3b3832;}.cls-105{fill:#d3bc93;}.cls-106{fill:#eae0c7;}.cls-107{fill:#a88652;}.cls-108{fill:#e5d9bd;}.cls-109{fill:#3a3731;}.cls-110{fill:#7e5c35;}.cls-111{fill:#b49461;}.cls-112{fill:#cfb990;}.cls-113{fill:#dcd6b2;}.cls-114{fill:#2a2726;}.cls-115{fill:#b1905e;}.cls-116{fill:#d2cba6;}.cls-117{fill:#332d27;}.cls-118{fill:#987544;}.cls-119{fill:#ded5af;}.cls-120{fill:#86653a;}.cls-121{fill:#ae8e5c;}.cls-122{fill:#d5cda9;}.cls-123{fill:#52461f;}.cls-124{fill:#cec7a0;}.cls-125{fill:#332715;}.cls-126{fill:#9a7847;}.cls-127{fill:#ebe2ca;}.cls-128{fill:#45433d;}.cls-129{fill:#826138;}.cls-130{fill:#775a36;}.cls-131{fill:#4c4943;}.cls-132{fill:#2c2312;}.cls-133{fill:#3a342d;}.cls-134{fill:#85643b;}.cls-135{fill:#42403a;}.cls-136{fill:#35302a;}.cls-137{fill:#a98652;}.cls-138{fill:#bfa574;}.cls-139{fill:#eae0c5;}.cls-140{fill:#c1a474;}.cls-141{fill:#b09061;}.cls-142{fill:#f0e8d1;}.cls-143{fill:#eadfc3;}.cls-144{fill:#d1b584;}.cls-145{fill:#caaf83;}.cls-146{fill:#392b19;}.cls-147{fill:#8b6e40;}.cls-148{fill:#535149;}.cls-149{fill:#4c4942;}.cls-150{fill:#46433e;}.cls-151{fill:#474641;}.cls-152{fill:#473620;}.cls-153{fill:#9d7c49;}.cls-154{fill:#89663c;}.cls-155{fill:#54514a;}.cls-156{fill:#4e4c45;}.cls-157{fill:#4c4a45;}.cls-158{fill:#48463f;}.cls-159{fill:#6f5230;}.cls-160{fill:#564835;}.cls-161{fill:#b89965;}.cls-162{fill:#64492a;}.cls-163{fill:#c8c092;}.cls-164{fill:#cac4a0;}.cls-165{fill:#58554c;}.cls-166{fill:#494740;}.cls-167{fill:#5c5950;}.cls-168{fill:#524f48;}.cls-169{fill:#44423c;}.cls-170{fill:#4e4b44;}.cls-171{fill:#765834;}.cls-172{fill:#584935;}.cls-173{fill:#5d5a51;}.cls-174{fill:#57544c;}.cls-175{fill:#3f3d37;}.cls-176{fill:#816137;}.cls-177{fill:#e5debd;}.cls-178{fill:#d5cea9;}.cls-179{fill:#c5bc91;}.cls-180{fill:#4c4a46;}.cls-181{fill:#83633a;}.cls-182{fill:#43331e;}.cls-183{fill:#484640;}.cls-184{fill:#554a3b;}.cls-185{fill:#947344;}.cls-186{fill:#554a20;}.cls-187{fill:#464440;}.cls-188{fill:#b49664;}.cls-189{fill:#d7d1ad;}.cls-190{fill:#b79865;}.cls-191{fill:#d2bc94;}.cls-192{fill:#3f3d36;}.cls-193{fill:#5a4b36;}.cls-194{fill:#604829;}.cls-195{fill:#7d5d36;}.cls-196{fill:#cdb78d;}.cls-197{fill:#5d472b;}.cls-198{fill:#7c5d37;}.cls-199{fill:#c5ab6a;}.cls-200{fill:#c7b171;}.cls-201{fill:#ad8d54;}.cls-202{fill:#6a4e2e;}.cls-203{fill:#3c3a34;}.cls-204{fill:#5b4e3d;}.cls-205{fill:#43413c;}.cls-206{fill:#4d4b44;}.cls-207{fill:#514f48;}.cls-208{fill:#3d2e1b;}.cls-209{fill:#705331;}.cls-210{fill:#59564d;}.cls-211{fill:#9b7a47;}.cls-212{fill:#654e31;}.cls-213{fill:#765c3a;}.cls-214{fill:#8c6d40;}.cls-215{fill:#504f49;}.cls-216{fill:#3e2e1c;}.cls-217{fill:#5b5850;}.cls-218{fill:#977847;}.cls-219{fill:#795a35;}.cls-220{fill:#8c7c65;}.cls-221{fill:#a5814b;}.cls-222{fill:#664b2c;}.cls-223{fill:#a48c60;}.cls-224{fill:#4e4b45;}.cls-225{fill:#4a3822;}.cls-226{fill:#4a4741;}.cls-227{fill:#545149;}.cls-228{fill:#58554d;}.cls-229{fill:#6f5534;}.cls-230{fill:#785c38;}.cls-231{fill:#2e2214;}.cls-232{fill:#56534b;}.cls-233{fill:#5b584f;}.cls-234{fill:#3d2e1c;}.cls-235{fill:#916f40;}.cls-236{fill:#382a18;}.cls-237{fill:#896a3f;}.cls-238{fill:#e8debd;}.cls-239{fill:#5e5c55;}.cls-240{fill:#9d7b48;}.cls-241{fill:#4c3a23;}.cls-242{fill:#36291a;}.cls-243{fill:#84663e;}.cls-244{fill:#8e7654;}.cls-245{fill:#2c2011;}</style></defs><g id="Layer_2" data-name="Layer 2"><g id="Layer_1_Image" data-name="Layer 1 Image"><path class="cls-1" d="M83.26,0h23c.8.63,1.84,1.17.79,2.41-2,1.27-4.48.59-6.62,1.38a6.84,6.84,0,0,1-1.5.18c-3.65-1.19-7.32,0-11-.06-.72-.12-1.43-.31-2.13-.5a7.73,7.73,0,0,1-3.45-1.09C81.53,1.11,82.49.59,83.26,0Z"/><path class="cls-2" d="M83.26,0l-1,2a4.92,4.92,0,0,1-2.22,2,28.74,28.74,0,0,1-11,2.12,6.22,6.22,0,0,1-3.39-1.47L65.27,4c2.47-2.52,6.69-1.12,9-4Z"/><path class="cls-2" d="M107.14,2.35c-.29-.79-.59-1.57-.88-2.35h5a6.49,6.49,0,0,1,1,3.83,1.52,1.52,0,0,1-1.17.58C109.6,4.06,107.77,4.35,107.14,2.35Z"/><path class="cls-2" d="M179.25,134c.66,6.54-3.37,11.28-7.37,15.13-4.47,4.31-6.91,10.11-11.94,13.94-7.59,5.77-14.64,12-23.92,15.44a106.59,106.59,0,0,0-15,6.72c-3.08,1.73-6.75.66-9.81-1.35-.12-1.36.94-1.67,1.86-2.09,7.38-1.15,14-4.59,21.12-6.64,1.46-.18,3.43.82,3.9-1.7a4.61,4.61,0,0,1,3.95-2.31c2.65.07,5.09-.18,5.68-3.48a6.17,6.17,0,0,1,4.11-3.29c.93-.75,3.33.86,3-1.89,1.14-4.23,5.09-5.89,7.82-8.67a2.51,2.51,0,0,0,1.94-2.32c1-3.14,3.81-5.22,4.89-8.32a6.52,6.52,0,0,1,1.17-1.6c.88-.87,2.07-1.42,2.79-2.48.9-1.41.48-3.41,2-4.55a5.14,5.14,0,0,1,3.16-.85Z"/><path class="cls-2" d="M2.2,86c-3-1.92-2.27-6.21-1.59-7.39,2.7-4.74,1.58-10,2.87-14.87C5,57.82,9.69,53.31,9.73,46.77c0-4.07,4.91-5.72,7.1-9.1A70.36,70.36,0,0,1,40.36,15.5a7,7,0,0,1,1.91-.5l.48.52a2.87,2.87,0,0,1-.15,2.7c-2.39,2.39-4.73,4.85-7.82,6.37-1.53.13-2.71.71-3.06,2.37a3.69,3.69,0,0,1-1.2,1.34,3.73,3.73,0,0,0-2,2,5.56,5.56,0,0,1-2.23,2.07c-.84.35-1.87.54-1.59,1.87a3,3,0,0,1-.25,1.2C23,37.62,21.39,39.62,20,41.8c-2,2.88-3.5,6.14-6.27,8.43-.39,0-.46-.65-1-.46a1.68,1.68,0,0,1,1,.83,3,3,0,0,1-.17,2C9.23,60.5,6.9,69.06,5.17,77.82A22.84,22.84,0,0,0,4.41,83C4.15,84.36,3.69,85.56,2.2,86Z"/><path class="cls-2" d="M150.26,18c8.05,2.39,12.55,8.94,17.49,15,1.67,2,3.39,4,5,6.05a49.5,49.5,0,0,1,10.47,23l-.62.29a4.58,4.58,0,0,1-3.12-1.23,7.37,7.37,0,0,1-2.2-5.54,2.29,2.29,0,0,0-1.53-2.82,4.3,4.3,0,0,1-1.34-1.41,27.69,27.69,0,0,0-3.63-5.58,9.2,9.2,0,0,1-1.13-1.64,14,14,0,0,0-1.81-3.37,18.35,18.35,0,0,1-1.42-2.06c-.53-.87-1.19-1.66-1.67-2.57a8.32,8.32,0,0,1-.39-1.16,3.21,3.21,0,0,0-1.68-1.68A61,61,0,0,1,154,24.51a2.73,2.73,0,0,0-2.16-1.87,4.59,4.59,0,0,1-2.91-2.5A1.87,1.87,0,0,1,150.26,18Z"/><path class="cls-2" d="M21.27,151c-5.43-3.4-11-6.7-12-13.92-.16-1.14-.08-2.28-.82-3.3-5.18-7.16-5.85-15.87-8-24-.58-2.2-.26-4.4,2.79-4.73,1.32,1,1.38,2.64,1.9,4A65.49,65.49,0,0,0,7,117.54c1.72,5.89,3.27,11.86,6.67,17.09a2.7,2.7,0,0,1,.08,1.79c-.26.23-.35.39-.27.41.64.19-.23-.05.49-.05,2.84,1.33,3.19,4.38,4.74,6.59a16.16,16.16,0,0,0,1.34,2.22c1,1.39,2.31,2.66,2.54,4.51C22.44,150.81,22.15,151.35,21.27,151Z"/><path class="cls-3" d="M6.15,118c-1.49-2.84-1.47-6-2.06-9.08-.67-1.75.07-3.69-.67-5.43C1.31,97.79,3.11,91.79,2.2,86l1.2-2.59c.79-1.72,0-3.64.69-5.38,1-8.38,4-16.15,7.14-23.87a3,3,0,0,1,2-2,2.71,2.71,0,0,1,1,1.33c.69,3-.81,5.49-1.67,8.17C9.68,70.33,6.87,79,6.65,88.29c-.09,6.47.07,12.94.14,19.41.41,2.41.94,4.81,1.2,7.25C8.13,116.3,8.48,118,6.15,118Z"/><path class="cls-2" d="M79.27,185c-4.2.63-8.4,1.35-12.41-.85A9.75,9.75,0,0,0,64.18,183a53.32,53.32,0,0,1-29.69-16.6,1.81,1.81,0,0,1-.22-.44,2.92,2.92,0,0,1,2.27-1.41c2.66.39,4.26,2.38,6,4.08.89,2.05,2.63,2.64,4.68,2.72,9.54,4.85,19.21,9.33,29.94,10.92a3.79,3.79,0,0,1,2.07,1.29A1.06,1.06,0,0,1,79.27,185Z"/><path class="cls-4" d="M165.24,35a2.76,2.76,0,0,0,.07.86c.49.84-.06,1.22-.69,1.57a3.12,3.12,0,0,1-2.55-.72,14.75,14.75,0,0,1-1.5-1.35,29.54,29.54,0,0,1-3.47-4,65.84,65.84,0,0,0-10.38-8.84C141.11,18.68,135,15.75,129,12.7c-5.41-2.83-11.58-3.78-16.87-6.9-.26-1,.39-1.33,1.11-1.64l2,0c5.68-.66,10.46,2.35,15.62,3.8,1.22.62,2.4,1.34,3.64,1.94l2.89,1.46c1.11.61,2.23,1.18,3.36,1.76a24.78,24.78,0,0,1,2.19,1.35c2.35,1.53,5.25,2.43,6.36,5.42L152.17,22a3.3,3.3,0,0,1,2.11,1.77l9.26,9.13A3.54,3.54,0,0,1,165.24,35Z"/><path class="cls-2" d="M131.21,9l-16-4.9c.91-3.14,3.17-3.54,5.83-2.69,9.12,2.91,17.39,7.68,25.87,12A4,4,0,0,1,149.26,17c-2.94,1.46-4.28-2.65-7-2l-2-1.09c-.46-1.58-1.92-1.5-3.12-1.86-1.22.17-2-.7-2.89-1.26C133.63,9.53,132.38,9.35,131.21,9Z"/><path class="cls-2" d="M186.4,101c2.37.24,3.16,1.84,2.78,3.85-1.86,9.91-3.65,19.86-9.1,28.62-.16.25-.55.36-.83.53a4.53,4.53,0,0,1-1.68-2.22,6.1,6.1,0,0,1,.94-4.73,5.6,5.6,0,0,1,1.4-1.51c1.17-.49,1.4-1.26.63-2.31-.34-2.59.74-4.93,1.3-7.35a19.18,19.18,0,0,1,.63-2,15.09,15.09,0,0,1,1.43-3.17c.58-1.61,4.54-2.63.87-5a3.93,3.93,0,0,1-.15-3.49A2.22,2.22,0,0,1,186.4,101Z"/><path class="cls-2" d="M42.27,15c.07-.32,0-.85.22-.93C50.09,10.72,55.89,3.3,65.27,4h0c.67,1.36,0,2.41-.82,3.42-5.87,2.75-11.69,5.6-17.62,8.22-1.52-.18-3.17.46-4.56-.64Z"/><path class="cls-2" d="M107.26,186c-5.59,5.36-20.47,5.36-25,0a3.29,3.29,0,0,1,2.35-2,12.31,12.31,0,0,1,4.8-.07c.94.39,2.18.54,1.76,2.08-1.21.79-2.57.39-3.86.44-.58,0-1.34.32-1.57-.28,1.93.41,3.94,1,5.84-.58,1.72-1.16,3.63-.93,5.53-.74C100.36,186.44,104,184.56,107.26,186Z"/><path class="cls-2" d="M185.25,71c4.47,3.23,2.91,8.34,3.82,12.65.29,1.39-1.19,2.21-2.67,2.34a2.17,2.17,0,0,1-1.77-1.24,3.87,3.87,0,0,1,.17-3.52c-.05-1,2,.64,1.47-1.21a9.88,9.88,0,0,0-2.5-4,4.45,4.45,0,0,1-.41-2.85A2.7,2.7,0,0,1,185.25,71Z"/><path class="cls-2" d="M31.27,164c-4.64-2-7.69-5.64-10-10,1.31-1.14,2.76-.5,4.17-.33a8.32,8.32,0,0,1,3.13,3,3.63,3.63,0,0,0,1.95,2,3.27,3.27,0,0,1,1.18,1.47C31.84,161.44,32.37,162.8,31.27,164Z"/><path class="cls-2" d="M183.25,62c4,1.83,1.75,5.23,2,8a2,2,0,0,1-2.22.33,4.56,4.56,0,0,1-1.88-4.22A5.17,5.17,0,0,1,183.25,62Z"/><path class="cls-1" d="M107.26,186c-3.37.91-6.74,1.85-10.1-.05.61-2.64,2.86-2.19,4.64-2.28s3.46-.76,5.24-.68a2.78,2.78,0,0,1,2.22,1.17Z"/><path class="cls-1" d="M31.27,164c.06-1.27-1.06-2.54,0-3.81,3.39-.29,4.64,1.75,5.07,4.67A2.08,2.08,0,0,1,34.27,166Z"/><path class="cls-5" d="M185.28,84.86,186.4,86v15l-1.12,1.12A22.72,22.72,0,0,1,185.28,84.86Z"/><path class="cls-1" d="M142.28,15c3.22-2.46,4.34,2.41,7,2l1,1-1,1.86Z"/><path class="cls-1" d="M25.11,154c-1.28,1.05-2.56,0-3.84,0v-3l1-.64C25,150.16,25.55,151.68,25.11,154Z"/><path class="cls-6" d="M109.26,184.13l-1.87-.23a1.57,1.57,0,0,1-.24-2.17,4.63,4.63,0,0,1,3.07-.93c1.28.24,2.87,0,3,2-.7.25-1.7,0-2,1Z"/><path class="cls-7" d="M113.22,4.16l-1,.9a3.63,3.63,0,0,1-5,.11c.6-2.92,2.48-1.53,4.05-1.2a1.62,1.62,0,0,0,1-.14Z"/><path class="cls-1" d="M84.36,184.9,82.27,186c-.73-1.18-1.91-1-3-1,0-.27,0-.53,0-.8,1.33-1.65,2.94-1.47,4.63-.73A1.13,1.13,0,0,1,84.36,184.9Z"/><path class="cls-1" d="M183.36,70h1.89v1l-1.09,2.16a1.12,1.12,0,0,1-1.22-.19,2.57,2.57,0,0,1-.37-1.93A1.92,1.92,0,0,1,183.36,70Z"/><path class="cls-1" d="M3.42,103.52c1.28,1.68.7,3.59.67,5.43-1.23-1.11-.66-2.62-.86-4C3.29,104.49,3.35,104,3.42,103.52Z"/><path class="cls-8" d="M46.37,15.05c5.73-3.25,11.48-6.47,17.9-8.23.89-1.75,2.68-1.37,4.15-1.74,4.06,0,7.89-1.31,11.82-2.08,1.89-1.18,4.13.15,6.05-.86.67-.14.93.3,1.13.81.15.93-.39,1.43-1.11,1.84-4.43,1.79-9.46.9-13.79,3.1a24,24,0,0,1-3.74,2c-2.58,1.33-5.48,1.74-8.16,2.81a16.29,16.29,0,0,0-3.27,2.2,34.45,34.45,0,0,1-7.53,3.2c-2.48.5-4.29,2.23-6.34,3.51-4,3-7.63,6.43-11.63,9.43-1.91,1.23-3.24,3.18-5.16,4.36-.74.45-2.26,2.17-2.49-.56.06-.27.12-.54.16-.82A2.58,2.58,0,0,1,26.09,32l2.13-2.29a4.1,4.1,0,0,1,1.7-1.75l1.32-1.15A4.61,4.61,0,0,1,34.34,24c2.92-1.72,4.6-5,7.93-6.19A5.32,5.32,0,0,1,46.37,15.05Z"/><path class="cls-9" d="M68.26,8.9l3.07-1.72c5-1.51,10.22-1.5,15.16-3.07L87.42,3c4-.1,8-2.2,11.93.11-.93,3.42-4.22,1.48-6.11,2.71a20.4,20.4,0,0,0-2.41,1.36c-3.07,1.4-1.69,5-3.46,7a2,2,0,0,1-1.39,0,4.46,4.46,0,0,0-5.34-1.13c-3.39,1.37-7.13,1.07-10.6,2.13a2.83,2.83,0,0,1-3.12-.92,4,4,0,0,1-.63-2.18C66.3,10.62,67.25,9.74,68.26,8.9Z"/><path class="cls-10" d="M92.35,5.09c1.71-2.82,5-.09,7-2a2.89,2.89,0,0,0,.83-.21c1.7.43,3.66-.38,5.11,1.15a1.28,1.28,0,0,1-.06,1.27,22.06,22.06,0,0,1-3,1.69c-1.83,1.15-3.6.51-5.37-.18C95.44,6.09,93.58,6.43,92.35,5.09Z"/><path class="cls-11" d="M105.45,4.86c-1.42-1.55-4,0-5.27-2,2.2-1.89,4.63-.53,7-.5,1.1,1.26,3.23-.1,4.15,1.62-1.28.3-2.82-.54-3.86.86A1.24,1.24,0,0,1,105.45,4.86Z"/><path class="cls-12" d="M86.29,2.14c-1.85,1.49-4,.75-6.05.86l2-1Z"/><path class="cls-1" d="M68.42,5.08c-1,1.45-3,.66-4.15,1.74l1-2.82Z"/><path class="cls-13" d="M113.2,182.82c-.74-1.08-1.91-.78-3-.93.21-2.42,2.37-2.22,3.87-2.9,2.13-.35,4.23-.83,6.33-1.34a28.22,28.22,0,0,0,5.19-1.48c2.12-1.19,4.49-1.76,6.72-2.69l1.17-.57c2.09-1.2,4.21-2.32,6.19-3.68,1.87-1.52,3.88-2.84,5.88-4.19,2.08-1.53,4.18-3,6.14-4.72a40.74,40.74,0,0,0,5.14-4.77,18.27,18.27,0,0,0,3.69-3.5c2.58-2.82,4.8-5.93,7.17-8.93a1.84,1.84,0,0,1,2.57-.13c-.06,3.9-3.69,5.79-5.08,8.94a3.42,3.42,0,0,1-1.77,2.08l-8.52,8.8c-.41,1.39-1.7,1.62-2.78,2.11l-3.95,3a8.41,8.41,0,0,1-6,4.06c-1.91-.33-2.56,1.58-3.94,2.2-.61,1.36-2,1.33-3.12,1.77C127.86,178.27,121,182,113.2,182.82Z"/><path class="cls-14" d="M170.31,143l-2.07,1a5.66,5.66,0,0,1-4.49,1,5.32,5.32,0,0,1-2.07-1c-1.37-1.33-3.37-2.31-2.9-4.77a5.57,5.57,0,0,1,2.51-2.52c2.35-.16,3.63,2.12,5.73,2.54,1.53.88,4.22,0,4.43,2.9Z"/><path class="cls-15" d="M171.45,142.13c-1.2-2-3.82-.36-5.17-2,1.24-1.62,3.11-2.38,4.76-3.44a1.76,1.76,0,0,1,1.7.65,11.15,11.15,0,0,1,1.53,2.66Z"/><path class="cls-1" d="M142.22,171.94l6-4.06C147.84,171.64,146,173.17,142.22,171.94Z"/><path class="cls-16" d="M174.27,140c-1.42.16-2.08-.44-1.91-1.89.66-1.87-.13-4.38,2.39-5.43a2,2,0,0,1,1.74,1,1,1,0,0,1-.31,1.23C174.26,136.15,176.21,138.81,174.27,140Z"/><path class="cls-1" d="M152.16,164.92a3.39,3.39,0,0,1,2.78-2.11c.5.23,1.77.18,1.33.77C155.34,164.83,154.06,166.14,152.16,164.92Z"/><path class="cls-1" d="M135.16,175.91l3.12-1.77C139,177.76,136.72,176.24,135.16,175.91Z"/><path class="cls-1" d="M176.18,135c.09-.31.17-.61.24-.92.06-1.15.06-2.36,1.79-2.07a2.07,2.07,0,0,1,1,2Z"/><path class="cls-1" d="M163.46,154l1.77-2.08c.2.7.89,1.36.28,2.13S164.14,154.29,163.46,154Z"/><path class="cls-17" d="M13.26,53a2.22,2.22,0,0,1-.07-.85c.06-.7.11-1.4.17-2.1l0,0q3-4.56,5.9-9.13A3.39,3.39,0,0,1,20.77,43c.52,1.67,2.05,1.27,3.24,1.63,1.6.47,3.32,1,2.36,3.32a2.57,2.57,0,0,1-1.21.63c-2.23,0-4.88-.9-6.14,1.72-1,2,0,3.81,2,5,1.5,1.12,4.51,1.8,1.33,4.33-1.44-.32-2.7.35-4,.76-1.59-.6-3.56-.27-4.68-2C13.3,56.6,14.51,54.71,13.26,53Z"/><path class="cls-18" d="M20.28,43.13c-1-.41-.93-1.34-1.05-2.18,1.62-2.06,2.67-4.59,5-6.11C27.78,35,28.49,31,31.33,30a2,2,0,0,1,.49,1.3C28.47,35.76,26,41,20.28,43.13Z"/><path class="cls-1" d="M13.36,50c-4,0-1.63-1.86-1.17-3.72,1.51,1.31.9,2.65,1.14,3.76Z"/><path class="cls-1" d="M34.34,24c-.84,1.13-1.56,2.39-3.1,2.75C30.57,23.93,31.67,23.09,34.34,24Z"/><path class="cls-1" d="M46.37,15.05c-1,1.42-2.6,2.05-4.1,2.79V15C43.64,14.92,45,14.05,46.37,15.05Z"/><path class="cls-1" d="M26.09,32c0,1.17-.91,1.58-1.73,2.05-.58-.13-1.65,0-1.34-.88C23.49,31.74,24.54,31,26.09,32Z"/><path class="cls-1" d="M29.92,27.93c-.29.85-.7,1.59-1.7,1.75-.36-.68-1-1.47,0-2C28.64,27.47,29.35,27.83,29.92,27.93Z"/><path class="cls-1" d="M4.09,78c0,1.83.62,3.73-.69,5.38C3.45,81.58,2.69,79.66,4.09,78Z"/><path class="cls-19" d="M183.36,70l-.27,1.09c-.79.89.27,2.45-1.12,3.13-2-.57-1.8-2.56-2.49-4-1-2.92-1.45-6-2.61-8.86-.56-1.41-.89-3.46-3.3-2.18-1.75.65-3.78,3.23-4.88-.68.67-2.31,2.61-3.79,3.75-5.79.78-.7,1.16-2.13,2.68-1.54l1,.86c1.48.45,1.64,1.82,2.07,3-.22,2.34,1.09,4.11,2.22,5.94,2.35,1,.8,3.45,1.82,4.95C182.19,67.41,182.15,68.87,183.36,70Z"/><path class="cls-20" d="M175.12,51.19,173.24,53a.83.83,0,0,1-1.13.24c-1-1.14-1.41-2.74-2.63-3.75-1.62-1.61-3.36-2.17-5.34-.62-.92.58-1.66,1.57-2.95,1.35a6.28,6.28,0,0,1-2.31-3.3c0-1.58,1-2.55,2.12-3.42a4.69,4.69,0,0,1,3.29-.83c2.35.72,4.85,1,7,2.29C173.12,46.69,174.85,48.49,175.12,51.19Z"/><path class="cls-21" d="M171.31,44.94c-2.47-.08-5.08.42-7-1.81.89-1.23,2.14-1.17,3.44-.93A4.94,4.94,0,0,1,170.15,44Z"/><path class="cls-1" d="M182.25,65.94c-1.42-1.35-1.12-3.34-1.82-4.95l2.82,1C182.92,63.31,182.58,64.62,182.25,65.94Z"/><path class="cls-22" d="M170.15,44c-.79,0-1.6,0-2-.87-.43-.66-1.37-1.05-1.18-2.07a1.84,1.84,0,0,1,1.37-1.18C170.13,40.69,170.5,42.17,170.15,44Z"/><path class="cls-23" d="M164,37.19l1.35-1.33c.86.52,1.82,1,1.8,2.19-.34.78,0,2-1.27,2.23C164.19,39.87,163.36,39,164,37.19Z"/><path class="cls-24" d="M166.25,40c0-.76.08-1.52.86-1.94l1.2,1.8-1.13,1.21C166.36,41.15,166,40.85,166.25,40Z"/><path class="cls-1" d="M165.24,35l-1.7-2.06c.66-.31,1.35-.86,2,0S165.44,34.32,165.24,35Z"/><path class="cls-1" d="M154.28,23.81A2.87,2.87,0,0,1,152.17,22c.71-.2,1.37-.91,2.16-.3S154.56,23.12,154.28,23.81Z"/><path class="cls-1" d="M178.21,55.05l-2.07-3C178.22,52.09,179.36,52.79,178.21,55.05Z"/><path class="cls-25" d="M83.86,184.1l-4.6.07c-5.54-2.06-11.5-2.35-17.08-4.55A156.69,156.69,0,0,1,46.4,171.9a6.81,6.81,0,0,1-4.13-2.74l-5.93-4.33c-1.46-1.8-2.89-3.65-5.07-4.67L30,159a3.65,3.65,0,0,1-1.73-1.8c-1-1.08-2.09-2.16-3.13-3.25-.48-1.57-1.72-2.56-2.84-3.64l-3.05-4.28c-.56-1.57.45-2,1.67-2.37,1.43.44,2,1.82,2.93,2.75A14,14,0,0,1,25.08,148c2.63,3.81,6.3,6.66,9.41,10,.62.62,1.22,1.26,1.84,1.87.32.28.61.59.91.9a12.69,12.69,0,0,0,2.93,2.38c2.56,1.68,5.08,3.43,7.67,5.07,2.73,2,5.87,3.26,8.8,4.91,2.35,1,4.71,2,7,3,2.86,1.31,6,1.68,8.93,2.88a36,36,0,0,0,8.1,1.55c2.47.19,5.09,0,6.6,2.59C86.62,185.25,85.15,184.32,83.86,184.1Z"/><path class="cls-26" d="M13.36,136.94l-.16-2.07c-.68-1.6-.38-3.28-.39-5,1.7-3.11,4.6-4.48,7.83-5.38a3.94,3.94,0,0,1,1.37,0,2.66,2.66,0,0,1,1.52,1.23A2.27,2.27,0,0,1,23.6,127c-.66,1-.48,2.39-1.3,3.37-.82.64-1.85,1-2.66,1.63-3.53,3.09.2,5.44.83,8.09a5.34,5.34,0,0,1-2.3,4c-2.37-1.88-2.17-5.5-4.84-7.18Z"/><path class="cls-27" d="M13.4,129.89a8,8,0,0,1-.2,5c-4.69-4.63-5-11.1-7-16.84,1.92-3.55-.8-6.74-.79-10.15a1.36,1.36,0,0,1,1.43.06c2,1.63,1.56,4.17,2.37,6.24C9.44,119.72,13.24,124.32,13.4,129.89Z"/><path class="cls-28" d="M18.17,144.07A3.46,3.46,0,0,1,20,140.21a1.49,1.49,0,0,1,.85-.89,5.78,5.78,0,0,1,2.55-.08,5.79,5.79,0,0,0,4-1.27c1.36-.57,2-3.2,4.18-1.47a3.44,3.44,0,0,1,.23,1.27c-.25,1.26.16,2.66-.76,3.79a16.19,16.19,0,0,1-5.37,3.27,4.43,4.43,0,0,1-4.26-.73,2.91,2.91,0,0,0-2.28,2C18.18,145.76,18.38,144.81,18.17,144.07Z"/><path class="cls-1" d="M13.33,136.89c-.17.89.28,2.18-.87,2.49s-1.12-.87-1.12-1.6c0-1.74,1.16-1,2-.84Z"/><path class="cls-29" d="M13.26,53c1.67,1.78,1.19,3.83.73,5.88.47,1.71-.53,3.09-1,4.59a35.79,35.79,0,0,0-2,7c-.4,2-.19,3.68,2.55,3.35,1.49-.2,2.9-2.28,4.49-.22,1,2.7-.18,5.31-.3,8-2,9.87-.56,19.71.3,29.56-1.69,2.49-3.44,0-5.16,0-2.94-1.25-5.41-2.76-3.53-6.59a4.7,4.7,0,0,0,1.7-3.94c-.37-3.89-.92-7.53,1.13-11.54.82-1.6-.81-5.88-2.1-8.68-1.77-.11-.9,1.47-1.38,2.17a20.41,20.41,0,0,1-.62,4,3.23,3.23,0,0,1-1.35,1.59A1.25,1.25,0,0,1,5.34,88c.26-9.35,3.11-18.14,5.93-26.93C12.12,58.41,13.65,56,13.26,53Z"/><path class="cls-30" d="M5.34,88l.93,0c2.78,4.29.58,9.14,1.59,13.63a10.79,10.79,0,0,1,.48,1.49c.39,2.13.53,4.16-2.19,4.92a3.54,3.54,0,0,1-.79-.14Q5.36,98,5.34,88Z"/><path class="cls-1" d="M42.27,169.16c1.53.68,3.15,1.22,4.13,2.74C43.66,173,42.29,172.11,42.27,169.16Z"/><path class="cls-31" d="M105.45,4.86l2,0,4.77.23c5.65,2.45,11.93,3.34,17.13,6.9-1,1.46-1.82,2.83.37,4.06,1.21.69,2.91,1.09,2.67,3.09a3,3,0,0,1-1.27.66c-3.4-.09-6.24-1-7-4.84-.14-.29,0-.82-.34-.93s-.33.35-.13.68c.28,2.75-.37,4.7-3.7,4.38-2.85-.41-5.57-1.37-8.41-1.78a12.09,12.09,0,0,1-2.14-.5c-.93-.32-1.83-.71-2.76-1.05-2.44-.82-5-1.53-4.07-5.07a2.18,2.18,0,0,1,1-1c1.64-.24,3.22.26,4.83.42a9.75,9.75,0,0,1,1.31.36c1,.36,2.12.66,3.21.92a7.43,7.43,0,0,0,5.68-.42c-2.23-2.35-5.21-1.66-7.43-2.81A24.22,24.22,0,0,0,107,7c-.93-.35-1.91-.66-1.81-2Z"/><path class="cls-32" d="M132.26,19a6.36,6.36,0,0,0-3.72-2.06,2.72,2.72,0,0,1-2.2-2.78c0-2.16,1.51-2.11,3-2.19,6.45,2.48,12.63,5.47,18,10,1.54,1.53,3.85,2.42,4.22,4.95-1.08,1.17-2.87.69-4,1.74-1.11.55-1.93,1.93-3.48,1.28C140.53,25.81,136,22.78,132.26,19Z"/><path class="cls-33" d="M144.26,30c1-.54,1.33-2.09,2.81-2,1.38-.18,2.81-.08,4.06-.84l-3.84-5.24a34.3,34.3,0,0,1,10.91,9.13c-2.07,1.31-4.56-1.4-6.54.69-1.62,1.77.42,2.19,1.17,2.93,1.85,1.85,3.28,3.71,1.59,6.41-4.78-1-7-5.13-9.93-8.36a4.49,4.49,0,0,1-.52-2.09C144.07,30.43,144.17,30.21,144.26,30Z"/><path class="cls-34" d="M151.19,31c2.38-3.33,4.68-.58,7,.09l3.11,3.9c-.36,1.63-.78,3.23-2.21,4.32C154.7,38.2,151.84,35.65,151.19,31Z"/><path class="cls-35" d="M166.25,40l.93,1.07c.32.68.63,1.36.94,2l-3.79,0-3,1c.41-2-2.93-2-2.31-4.17,1.66-.89,1.73-3.07,3.3-4L164,37.19A4.22,4.22,0,0,0,166.25,40Z"/><path class="cls-36" d="M162.31,35.9c0,2.06-.31,3.93-3,4-.24-.16-.34-.33-.3-.53s.09-.31.16-.31c0-1.73.21-3.37,2.13-4.11Z"/><path class="cls-1" d="M137.15,12.05c1.63-.36,3.89-1.77,3.12,1.86Z"/><path class="cls-1" d="M131.21,9c2-1.07,2.86-.25,3,1.76A5.42,5.42,0,0,1,131.21,9Z"/><path class="cls-37" d="M183.31,72.82a6.23,6.23,0,0,0,.85.33l.27,2.84c1.21,1.5,2.4,3,1,5,0,1.29-.08,2.57-.13,3.85V102.1c0,1.29.08,2.57.13,3.85,1.42,2,.23,3.53-1,5-.4,1,.14,2.39-1.16,3.07a5.19,5.19,0,0,1-1.78-3.52,72.86,72.86,0,0,0,.39-8.87c0-2,0-3.93,0-5.89,0-6.38.19-12.75-.5-19.1A15.85,15.85,0,0,1,183.31,72.82Z"/><path class="cls-38" d="M178.21,132,176.42,134l-1.23-1.13c-1.12-1-1.54-2.49-2.73-3.4a5.37,5.37,0,0,1-2-2.67,3.9,3.9,0,0,1,1.23-3.91,2.8,2.8,0,0,1,1.31-.44c2.11.14,3.66,1.66,5.59,2.27.69.63,1.35,1.28.73,2.32C178.94,128.7,178.57,130.33,178.21,132Z"/><path class="cls-39" d="M179.3,127.07,178.22,125c-.64-1.1-.2-2.22-.06-3.34a21.13,21.13,0,0,1,1.29-3.89c.73-1.35.54-3.26,2.35-4,1.26.23.72,1.54,1.3,2.17-.39,2.72-2,5.19-1.75,8,.52,1.06-.45,1.42-.92,2Z"/><path class="cls-1" d="M184.43,111c.32-1.67.65-3.35,1-5,.65-.11,1.45-1.77,1.64-.7C187.45,107.49,188.11,110.4,184.43,111Z"/><path class="cls-40" d="M183.1,115.91l-1-2a2,2,0,0,1,.27-2.89c1.07.77.73,2,.89,3C183.22,114.67,183.16,115.29,183.1,115.91Z"/><path class="cls-1" d="M180.43,126c.31-.67.61-1.34.92-2,.53-.09,1.42-.76,1.51,0C183.05,125.52,181.68,125.79,180.43,126Z"/><path class="cls-41" d="M107.35,182.06c0,.61,0,1.22,0,1.84-3.18,1.84-7.1-.05-10.23,2l-5.71-.12h0c-.38-1.16-1.49-.81-2.28-1.09a1.88,1.88,0,0,1-1.31-2.13c.41-2.23-1.07-4.48.07-6.71a2.2,2.2,0,0,1,2.36-1.11c2,1.61.39,6.63,5.24,5.48a22,22,0,0,1,2.35-.85c1.08-.27,1.59-1.19,2.22-2a2.83,2.83,0,0,1,2.4-.92C104.6,177.91,104,181.73,107.35,182.06Z"/><path class="cls-1" d="M91.45,185.8c-1.89,2.07-4.09.81-6.21.36l6.2-.36Z"/><path class="cls-42" d="M88.25,183.06c.3.55.6,1.1.91,1.65l-4.8.19c-.16-.27-.33-.53-.5-.8,1.18-.19,2.5.1,3.41-1l.47-.36Z"/><path class="cls-1" d="M185.41,81c-.32-1.67-.65-3.35-1-5,3.68.59,3,3.49,2.62,5.72C186.86,82.77,186.06,81.12,185.41,81Z"/><path class="cls-1" d="M28.24,157.22c1.11.08,1.49.88,1.73,1.8-.58.1-1.31.48-1.72.25C27.24,158.73,27.91,157.92,28.24,157.22Z"/><path class="cls-43" d="M107.35,182.06c-5.89,2.48-3.9-3-5.16-5.13a1.84,1.84,0,0,1,1.22-2.3,2,2,0,0,1,1.32.36c1.18,1.49,2.23,2.4,4.55,1.6,2.54-.87,5.39-.75,5,3.39l-4,1.91Z"/><path class="cls-44" d="M183.31,72.82c-.24,1.07.18,2.36-1,3.12a1.34,1.34,0,0,1-.1-2c.12-1-.16-2.18.9-2.92C183.16,71.66,183.24,72.24,183.31,72.82Z"/><path class="cls-45" d="M31.35,31.15c0-.37,0-.74,0-1.11L43,20.87l.52.41c-1.33,2.66,0,5.54-.67,8.27-1.35,1.42-2.7,3-4.27.22-.42-1.77-1.27-1.29-2.34-.52C34.76,30.27,33.67,32.32,31.35,31.15Z"/><path class="cls-46" d="M49.36,17.06l7.8-3.34A6.85,6.85,0,0,1,59.56,17c-.1,2-1.79,2.62-3.05,3.62-1.26.66-2.51,1.33-4,.76a11.4,11.4,0,0,0-3.33-3.16A.82.82,0,0,1,49.36,17.06Z"/><path class="cls-47" d="M59.42,17.09c-2.16-.18-2.15-1.81-2.26-3.37.6-1.23,1.8-1.48,3-1.81,2.79-.9,3.34.88,3.6,3C63,17,61.89,18.43,59.42,17.09Z"/><path class="cls-48" d="M63.26,15c-.75-1.33-1.17-3-3.14-3.07,2.33-2,5.76-1.11,8.14-3-.31,1-.63,2-.94,3-.91,1.17-1.26,2.81-2.85,3.41A1.43,1.43,0,0,1,63.26,15Z"/><path class="cls-49" d="M86.49,4.11A38.36,38.36,0,0,1,71.33,7.18C76,4.33,81.38,4.84,86.49,4.11Z"/><path class="cls-50" d="M49.36,17.06a5.16,5.16,0,0,1-.06,1c-1.14,2.51-2.86,3.95-5.81,3.15l-.52-.3C44.88,19.22,46.72,17.47,49.36,17.06Z"/><path class="cls-51" d="M92.35,5.09c1.73.15,3.64-.75,5.12.87-.06.21-.12.42-.17.63-1.15,2.17-.08,4.1.66,6,4-1.29,4-1.29,5.62,2.67-.72,2.52-3.5,3.32-4.59,5.52-.7,5.26-.17,10.52-.32,15.78,0,11.2.06,22.39,0,33.58-.12,2.24-.35,4.43-2.95,5.28A2.39,2.39,0,0,1,94,75c-1.48-2.12-.91-4.57-1.08-6.9,0-1.15,0-2.29,0-3.43q0-24.33,0-48.66c0-1.54.76-3.32-.78-4.63a3.61,3.61,0,0,1-2.53-3.28,2.32,2.32,0,0,1,.94-2Z"/><path class="cls-52" d="M67.43,13.74a35.73,35.73,0,0,0,13.25-2.08c2.63-.89,5-1.42,5.67,2.29C85.08,15.53,83,15.14,81.43,16c-4,1.17-7.89,2.71-12.06,3.23-1.68-.28-3.92.39-4.14-2.41C65.77,15.67,66.19,14.41,67.43,13.74Z"/><path class="cls-53" d="M90.47,6.1l-.38,1.7c-.71,1.82.14,3.39.63,5.08.56,1.93,1.43,4.33-2.11,4.46a2.54,2.54,0,0,1-1.37-3.12C87.45,11.17,86.19,7.53,90.47,6.1Z"/><path class="cls-54" d="M87.24,14.22l1.23,2.56-.55.48a4.47,4.47,0,0,1-2.1-.39c-1.43-.79-3.32-.46-4.51-1.83,1.38-1.72,3.34-.83,5-1.09A4.57,4.57,0,0,0,87.24,14.22Z"/><path class="cls-55" d="M67.43,13.74c-.25,1.12.09,2.46-1.16,3.23-.56-.66-1.44-.5-2.12-.86a.68.68,0,0,1,.16-1c.85-1.23,1.41-2.72,3-3.25C67.36,12.49,67.4,13.11,67.43,13.74Z"/><path class="cls-56" d="M103.25,15c-1.18-.41-2.13-6.08-3.62-.15a1.1,1.1,0,0,1-1.58.71c-1.1-.55-.64-1.71-.83-2.62.31-2.31-.83-4.58-.22-6.9L97.47,6c1.53.22,3,1.51,4.61.09,1.78.73,3.46,1.51,1.4,3.69-1.37,3.64,1.72,4.07,3.77,5.25A2.74,2.74,0,0,1,103.25,15Z"/><path class="cls-57" d="M103.48,9.74c.71-1.67-.85-2.49-1.4-3.69.75-1.23,2-.87,3.1-1l2.07,1c1.39.78,3,1.37,3.71,2.91.82,1.75.77,3-1.73,2h0c-1.44-1.33-3.49.18-4.95-1.06A5.78,5.78,0,0,0,103.48,9.74Z"/><path class="cls-58" d="M159.31,139c-.29,2.25,2.19,2.52,2.91,4-1.87,2.54-3.59,5.18-5.62,7.73,1.16.88,2.65-.27,3.8.55.65.36,1.18.79.83,1.66-1.33.92-1.57,3.19-3.77,3a4.67,4.67,0,0,1-1.9.71c-1.81.1-3.51,0-4.31-2.06-.53-1.36-1.7-1.14-2.8-1.11a2.2,2.2,0,0,1-1.19-.63c-.37-2.6,1.77-3.72,3.18-5.19,2.83-2.95,5.93-5.67,7.62-9.53C158.9,137.75,159.37,137.93,159.31,139Z"/><path class="cls-59" d="M140.31,170.08a24.72,24.72,0,0,1-7,3.88h0c-2,1.76-4.8,1.67-7,3-2.44.67-2.79-.1-1.24-1.92,1.31-1.55,1.26-2.36-.85-3.12-4.44-1.59-4.4-1.7-.49-5.35.94-.76,1.91-1.4,3.21-.93a2.17,2.17,0,0,1,.79,1.09c.27.75-.16,2.31,1.59,1.34,1.84-1.24,3.4-3.09,6-2.63A10,10,0,0,1,140.31,170.08Z"/><path class="cls-60" d="M140.31,170.08a11.49,11.49,0,0,1-5.06-4.11,2.15,2.15,0,0,1,1.76-.74c.83-.06,1.53,1.43,2.47.23.38-.27.61-.69,1-.91-.65-.08-.88.69-1.49.74-2-.68-2.67-2.34-3.06-4.21a4.85,4.85,0,0,1,3.16-2.65,3.07,3.07,0,0,1,1.92.1c.35.12.6.89.93.55s-.19-1.07-.05-1.65c1-1.75,2.27-3,4.53-2.55a3.08,3.08,0,0,1,.67,2c-.37,2.26-.9,4.51-.24,6.81a2.37,2.37,0,0,1-.57,1.94C144.82,167.81,142.15,168.38,140.31,170.08Z"/><path class="cls-61" d="M124.29,167c.27,2-2.32,1.55-2.67,3.19.44.22.89.66,1.22.58,2.1-.51,4.1-.35,5,1.77s-1.39,2.5-2.56,3.42c-.11.08-.16.23-.24.34l1.16.62c-1.33,1.54-3.54.8-5,1.92a7.36,7.36,0,0,1-1.87-3.68,12.21,12.21,0,0,1-.24-1.32c.6-2.6-2.67-2.59-3-4.52C118.44,167.3,121,165.74,124.29,167Z"/><path class="cls-62" d="M120.19,174.85a6.45,6.45,0,0,1,1,4c-2.38,0-4.51,1.6-7,1.1-.69-2.67-2.73-3.77-4.8-2.36-3.79,2.56-4.54.34-5.23-2.61,1.53-1.43,3.44.1,5-.65.39-.19.79-.36,1.18-.54,2-1,3.87-.07,5.81.07A13.71,13.71,0,0,1,120.19,174.85Z"/><path class="cls-63" d="M161.23,152.93l-1-1c0-3,1.62-5.41,3-7.89l5-.08A53.27,53.27,0,0,1,161.23,152.93Z"/><path class="cls-64" d="M155.26,156h2.2a10.37,10.37,0,0,1-5.16,5.1c-1.71-.9-2.64,2-4.4.91-1.17-1.48-1.44-2.94.11-4.36C150.24,156.25,153.16,157.89,155.26,156Z"/><path class="cls-65" d="M148.19,161.94c1.55.58,1.65-5.72,4.11-.87-1.69,1.93-3.47,3.75-6,4.57-.05-.67-.11-1.34-.16-2C146.29,162.42,146.85,161.71,148.19,161.94Z"/><path class="cls-66" d="M163.23,144.05c.51,3.21-1.29,5.54-3,7.89l-6.13.81c3.27-2.89,3.57-8.14,8.14-9.76C162.56,143.34,162.9,143.69,163.23,144.05Z"/><path class="cls-67" d="M171.38,137c-1.4,1.52-2.77,3.1-5.1,3.11s-2.91-2.83-5.07-3.09c-1.64.21-2-1-2.36-2.16a1.71,1.71,0,0,1,.56-1.24c2.75-.76,4.21,1.3,5.86,2.8,1.19,1.09,1.57.64,1.82-.62,1.47-1,1-3.23,2.6-4.15C172.47,132.77,174.29,134.16,171.38,137Z"/><path class="cls-68" d="M159.31,134.88l1.9,2.17c0,1.22-.61,1.92-1.9,1.9l-1.1-.92-.47-.6C157.55,136.14,157.26,134.79,159.31,134.88Z"/><path class="cls-69" d="M171.38,137c1-2.38.16-4-2.13-5a1.82,1.82,0,0,1-.49-1.8c1-2.28,3-1.08,4.56-1.32,1.72.83,2.12,2.28,1.87,4-1.93,1.21-.67,4.14-2.83,5.22Z"/><path class="cls-70" d="M20.12,56.09c-3.42-1.46-3.63-4.49-2.1-6.87s4.36-3.58,7.16-1c.87,1,.41,1.65-.48,2.23-.38.35-2.43-.07-.62,1.33a19.32,19.32,0,0,0,2.79,1.62c7,3.78,14,7.68,20.94,11.64,2.08,1.19,4.67,2.11,4.93,5.15a2.41,2.41,0,0,1-2.22,1.75A12.43,12.43,0,0,1,43,69.26a20.5,20.5,0,0,0-3.13-2.51c-1.58-1.09-3.34-1.9-5-2.93-1.27-.77-2.71-1.17-4-1.81-1-.45-2-.81-3-1.2a4.76,4.76,0,0,1-1.13-.73C25,58,23.43,55.6,20.12,56.09Z"/><path class="cls-71" d="M31.35,31.15c2.58-.24,3.4-3,5.52-3.89,1.93-.84,3.36-1.23,2.4,1.76-2.17,2-3,4.8-4.44,7.27-2.62,3-5.36,6-5.17,10.37a2.89,2.89,0,0,1-2.79,1.65l-.64-.26C26,45.21,24,45.65,22,45.66c-1.38,0-3.53-.07-1.74-2.53Z"/><path class="cls-72" d="M24.3,49.93l.88-1.73,1.05-.15h0c1.27,1,2.44,1.35,3.28-.51.39-.76.44-1.85,1.71-1.73a2.94,2.94,0,0,1,1.07,1.78,7.79,7.79,0,0,1,.17,1.35c-.16,2.25.29,4.2,2.63,5.2a13.86,13.86,0,0,1,1.53,1.11c1,.76,2.06,1.4,3.09,2.08.73.45,1.49.85,2.26,1.24,3,1.58,5.54,4,8.79,5.18a18.68,18.68,0,0,1,4.89,2.88,4,4,0,0,1,1.41,2.6,2.7,2.7,0,0,1-.82,2.13c-1.76.77-3.11.42-3.9-1.44C45.59,63.91,37,61,29.55,56.12c-1.09-.72-2.2-1.41-3.3-2.11C26.46,52.24,23.52,52,24.3,49.93Z"/><path class="cls-73" d="M12.12,62.83a6.89,6.89,0,0,1,1.87-4c1.71-.52,3.27-.53,4.34,1.22.62,1.4,0,2.69-.34,4-.64,1.71-1.12,3.48-1.84,5.16A9.59,9.59,0,0,1,15,71.07c-.8.71-1.14,2.28-2.54,1.86s-1.7-1.72-1.8-3.12C10.51,67.33,12.48,65.32,12.12,62.83Z"/><path class="cls-74" d="M20.12,56.09c4-1.64,6.06.21,7.16,3.89-1.53,2.65-3.61,3.83-6.63,2.46a2.79,2.79,0,0,1,.69-3.35c.7-.26,1.8-.35,1.68-1.28C22.8,56.22,20.72,57.33,20.12,56.09Z"/><path class="cls-75" d="M21.34,59.09,21.25,63c.56,3,.05,5.54-2.77,7.22a2.31,2.31,0,0,1-1-1.11c-.33-1.72-.91-3.43-.26-5.21l1.14-3.79C19.25,59.51,19.79,57.78,21.34,59.09Z"/><path class="cls-76" d="M182.19,74c0,.65.06,1.3.1,2,1.47,6.63.88,13.36,1,20.06a1.27,1.27,0,0,1-1.29-.28c-1.51-2.72-1.36-5.63-1.18-8.62.25-4.06-1.08-5.17-5.42-5-1.86-1.71-1.42-4-1.4-6.07a25.37,25.37,0,0,0-1.38-7.25,4.2,4.2,0,0,1,.1-1.5c1.06-1.62,1.2-3.66,2.32-5.25,4.53,1.12,2.67,5.71,4.51,8.29.05.06.29,0,.41,0a1.32,1.32,0,0,0,.36-.31Z"/><path class="cls-77" d="M175.25,62c-.43,1.76,1.21,4.35-2,5-.86.25-2.09-.21-2.35,1.22a2.22,2.22,0,0,1-1,.87c-2.82-1.08-2.09-4.5-4.05-6.14-2.06-1.38-5.92-1.07-4.95-5.29,2-3,4.7-3.39,7.86-2.28a1.07,1.07,0,0,1,.29,1.82,5.93,5.93,0,0,1-2.08.42c.44.25.85-.1,1.3-.08a1.09,1.09,0,0,1,1,.59c1.44,3.92,2.65-.43,4-.11C174.9,58.85,176.57,59.68,175.25,62Z"/><path class="cls-78" d="M175.25,62c.15-1.73-1.42-2.6-2-4,1.39-1.66,2.57-2.36,3.71.33A45.34,45.34,0,0,1,180.27,70a5.39,5.39,0,0,1-.1,1.46c-.49,1.29-.71.49-1-.15Q177.24,66.62,175.25,62Z"/><path class="cls-79" d="M168.18,57.13l1-1.2c.55-1.46.95-3.06,3-3l1.07,0c-.9,2-1.79,4.09-4,5.14l-1.12-.31C168.17,57.58,168.17,57.36,168.18,57.13Z"/><path class="cls-80" d="M172.17,53l-3,3c-2.87-.18-5.67,0-7.94,2.07a8.62,8.62,0,0,1-3.57,3.7,12.37,12.37,0,0,1-2.9,1.47,20.77,20.77,0,0,0-5,2.86c-2.41,1.5-4.67,3.24-7.18,4.58a45.53,45.53,0,0,0-5.66,3,18.92,18.92,0,0,1-1.58,1.06,34,34,0,0,0-4.85,2.91,22.61,22.61,0,0,0-4.77,3,8.53,8.53,0,0,1-2.2,1.29,16.5,16.5,0,0,0-5,2.63,15,15,0,0,1-2.3,1.15,12.88,12.88,0,0,1-3.24.84,2.56,2.56,0,0,1-1.29-.49c-1.59-2-.18-3.23,1.21-4.37s2.74-1.63,4-2.57c16.81-9.61,33.8-18.89,50.2-29.19,1-.38,1.86-1.54,3.18-.93C172.17,49.73,172,51.43,172.17,53Z"/><path class="cls-81" d="M168.13,50.92c-16.76,10-33.62,19.86-50.83,29.09-1.25.66-2.44.92-3.38-.51.49-4.06,4.37-4.35,6.86-6.19,4-2.32,8.16-4.53,12.12-7,2.38-1.35,4.68-2.83,7.14-4,3.5-1.52,6.23-4.31,9.65-6,1.75-1.25,4-1.54,5.67-2.91.61-.58,1.13-1.25,1.74-1.84a7,7,0,0,1,4.14-1.62l2.07-1.71C164.76,49.42,168.22,47,168.13,50.92Z"/><path class="cls-82" d="M159.18,39.08a6.13,6.13,0,0,0,.14.84c0,1.7,3.35,1.82,2,4.18-.66,1-1.33,1.94-2,2.92.14,1-.36,1.23-1.22,1.12C156.33,46,154,44.24,154.25,41c.4-3-.94-4.93-3.58-6.42-2.22-1.24-3.12-2.9.53-3.6A16,16,0,0,0,159.18,39.08Z"/><path class="cls-83" d="M168.13,50.92c-.47-1.3-1.28-1.62-2.6-1.13s-2.13-.1-2.22-1.56c2.69-3.2,5-2.3,7.05.7Z"/><path class="cls-84" d="M158.18,47.82l1.15-.81a3,3,0,0,1,1.91,2.93c-1,1.33-2.15,2.27-3.94,2a2.67,2.67,0,0,1-.8-2.83A1.66,1.66,0,0,1,158.18,47.82Z"/><path class="cls-85" d="M47.27,169l-8-5.1a8.92,8.92,0,0,0-3-2.9h0a.85.85,0,0,1-.31-.8c.06-.28.13-.42.2-.42,1.14-.91,2.57-1,3.9-1.34a1.87,1.87,0,0,0,1.71-2c.11-2,1.38-2.32,3.06-1.8,10.92,7.2,22.46,13,35.45,15.45,1.84.73,3.95.35,5.74,1.33a2.36,2.36,0,0,1,.92,1.92,14.52,14.52,0,0,1-1,4.15,1.83,1.83,0,0,1-1.08.85A3.11,3.11,0,0,1,83.5,178c-3.44-1.21-6.87-2.59-10.63-1.94-1.6.27-2.5-.63-3.4-1.61a9,9,0,0,0-4.65-2.76C59,170.94,53.36,168.36,47.27,169Z"/><path class="cls-86" d="M65.28,171c.33,0,.79-.11,1,.05,4.77,4.31,11,3.84,16.67,5.11,1,.22,1.21,1,1.34,1.87-.15.48-.49,1.18-.82,1.12a22.65,22.65,0,0,0-11.2.9c-3-1.07-6.34-1-9-3a1.73,1.73,0,0,1-.44-1.75c.33-.67,1-1.29.35-2.12-.34-1.33.51-1.79,1.53-2.12Z"/><path class="cls-87" d="M21.5,144.1l4.69-.17c7.68-1.33,6,6.85,9.68,9.76A3.18,3.18,0,0,1,34.2,159c-3.7-3.33-7.74-6.36-10-11,.12-.3.4-.68.3-.91-.28-.67-.81-.17-1.25-.13A2.48,2.48,0,0,1,21.5,144.1Z"/><path class="cls-88" d="M34.2,159c1.78-2.68,1.93-5.19-1.05-7.09-1.44-.92-1.69-2.21-2-3.69-.56-2.57-1.79-4.61-4.94-4.33,1.57-1.1,2.78-2.8,5-2.81,2.88,1.45,4.57,3.94,5.94,6.72.32,1.09-.38,2.66.54,3.28,3.25,2.2,1.44,4.41.34,6.7a2.41,2.41,0,0,1-1.58,2c0,.4-.08.79-.11,1.19Z"/><path class="cls-86" d="M47.27,169c4.85-2.75,9.32,0,13.93.94,1.38.29,3-.35,4.08,1l0,0c-3.22.32-5.45,3.62-9,3C53.08,172.65,49.8,171.48,47.27,169Z"/><path class="cls-89" d="M72.24,180c.48,0,1.35,0,1.39-.11,1.67-6.19,5-2.47,7.9-1.35,1.12.44,1.84-.29,2.73-.56h0c1.54,4.25-3.47,1.76-4,3.88C77.53,181.47,74.73,181.41,72.24,180Z"/><path class="cls-90" d="M56.26,174c2.5-2.49,5.4-3.78,9-3l-1.83,2.28c.21.66-.14,1.26-.18,1.89s0,1.24,0,1.86Z"/><path class="cls-86" d="M80.26,181.86c-.53-.59-1.52-1.21-1.49-1.77.08-1.25,1.08-.69,1.83-.48,1.65.45,3.3.84,3.66-1.63h1a3.19,3.19,0,0,1,1,.77c.72,1.2,2.1,2.21,1.16,3.91l-.14.45A18,18,0,0,0,80.26,181.86Z"/><path class="cls-91" d="M23.27,147a1.85,1.85,0,0,1,2.3-1.93c.71.08,1.42.43,1.3,1.18-.24,1.4-1.45,1.65-2.65,1.79C23.9,147.67,23.59,147.32,23.27,147Z"/><path class="cls-88" d="M36.29,161a2.81,2.81,0,0,1,3,2.9A5.87,5.87,0,0,1,36.29,161Z"/><path class="cls-92" d="M31.27,61l4,2c-.1.21-.19.43-.29.65-3.62,3.81-4.3,9-6.26,13.55-3.81,14.17-2.31,28.2,1,42.18.56,2.38,1.92,4.66.81,7.22a2.45,2.45,0,0,1-3.32,1.35c-1.37-.57-2.9-.82-4-2l-1.17-.85c.39-4.6-2.26-8.69-2.23-13.23-1.42-7.32-1-14.71-1-22.08,0-1.94-.25-4,1.18-5.63,2.66-.73,1.8,1.49,2,2C23.59,77.62,25.42,68.62,31.27,61Z"/><path class="cls-93" d="M13.4,129.89a39.55,39.55,0,0,1-5.29-15.68c-1.3-5.13,2.32-3.67,4.87-3.65,5.39,2.67,6.49,8.18,8.61,13a1.55,1.55,0,0,1-.31,1.36C18.57,126.45,15.7,127.71,13.4,129.89Z"/><path class="cls-94" d="M21.28,124.93a2.13,2.13,0,0,0-.11-.79c-1.33-4-3.88-7.71-4-12.16A75.09,75.09,0,0,1,16.36,81c3.25.56,2.87,3.11,2.89,5.38.11,8.9-.42,17.85,2,26.57.7,3,1.31,6,2.14,8.94.44,1.54,1,2.88-1.3,3.17A2.66,2.66,0,0,1,21.28,124.93Z"/><path class="cls-95" d="M23.28,125.94c1.44,0,2.95-.35,4,1.07s3.29,2.31,1.74,4.66c-1.86,2.76-4.88,3.67-7.72,4.87-5-.32-.83-3.81-1.89-5.5.61-1.27,1.89-.93,2.91-1.19,1-.79,1.79-1.63,1.15-3A3.73,3.73,0,0,1,23.28,125.94Z"/><path class="cls-96" d="M19.41,131c1.43.05,3.44-.31,1.33,2.06-.94,1.07-2.39,2.31.47,2.78a1.23,1.23,0,0,1,.31,1.12c-.7.79-.54,1.92-1.06,2.78l-.42.43C15.79,135.67,15.67,133.94,19.41,131Z"/><path class="cls-97" d="M23.47,126.82c.93.13,2.55,0,2.29,1.13-.31,1.38-1.8,2.13-3.44,1.9C22.29,128.69,20.94,127,23.47,126.82Z"/><path class="cls-98" d="M13.2,111c-2.18.3-5.13-.65-5.09,3.19-1.65-1.75-.31-4.45-2-6.19.84-1.24,2.18-2.33,1.19-4.09,1.7-2.55-.3-5.5,1-8.25-1.56,2.41.82,5.21-1.13,7.4C5,98.17,7,93,6.27,88l.9-1.15c1.56,1.65,2,4,3.58,5.65a57.5,57.5,0,0,0,.77,9.27c.18,1.48.12,2.58-1.47,3.11-1.75,3.43.33,4.52,3.15,5.16.28.22.37.45.28.67S13.29,111,13.2,111Z"/><path class="cls-99" d="M31.27,138c0-.34,0-.67,0-1,.94-1.29-.87-2.41-.23-3.68a2.34,2.34,0,0,1,2.43-1c3.34,1,4.35,4.37,6.56,6.53a43.9,43.9,0,0,0,6,6.64c1.44,1.44,2.84,2.76,5.2,1.66,1.59-.73,2.9.46,4,1.37A61.27,61.27,0,0,0,88.87,162a3.19,3.19,0,0,1,1.75.88,5.37,5.37,0,0,1,.5,4.49,4.82,4.82,0,0,1-1.27,2,4.15,4.15,0,0,1-2.86,1.1c-17.94-3-34.49-9.08-48-21.73C35.74,145.69,32.6,142.44,31.27,138Z"/><path class="cls-100" d="M31.27,138C37.86,147,46,154.87,56,159.44c9.12,4.17,18.6,8.43,28.91,9.52a3.44,3.44,0,0,1,2.61,1.16l-.47.64a9.66,9.66,0,0,1-6.88.29c-13.48-2-25.27-7.87-36-16a13,13,0,0,1-7.81-7.14l-5.16-6.78C31.13,140.07,29.65,139,31.27,138Z"/><path class="cls-101" d="M20.46,139.78c0-1-1.82-2.53.76-2.85,1.57-1.19,2.77-3.59,5.29-1.6.26,1.58-.62,2.7-1.54,3.81a2.71,2.71,0,0,1-1.91.77Z"/><path class="cls-102" d="M31.28,134c1.25,1,1.3,2,0,3-2.15-1.11-1.65,1.94-3.07,2a4.06,4.06,0,0,1-1.12-3.41C28,133.72,29.25,132.8,31.28,134Z"/><path class="cls-103" d="M27.28,136c1.39.65,1,1.83.91,2.94-1.71.31-2.92,3.28-5.13,1l1.19-1a6.19,6.19,0,0,0,2.57-2.5Z"/><path class="cls-104" d="M21.27,113c-3.1-7.6-2.89-15.62-3-23.61-.05-2.89.71-6-1.9-8.34l1-8c-.79-1.34,0-2.15,1-2.86,1-2.38,1.93-4.77,2.9-7.16l6-3,1,0a3.23,3.23,0,0,1,.43,3.71,104.13,104.13,0,0,0-6,18.28,3.35,3.35,0,0,1-1.39,2c-2,7.82-1,15.73-.53,23.6C20.85,109.35,21.24,111.16,21.27,113Z"/><path class="cls-30" d="M10.05,104.86c1.34-4.24-.38-8.55.3-12.81,0-.22-.07-.44-.11-.66-.54-2.81.53-5.79-.91-8.5a3.69,3.69,0,0,1-.46-1.25c.28-1.06.34-2.27,1.66-2.69,2.88,2.69.48,7.35,3.67,10,.15.12-.07,1.11-.36,1.3-3.35,2.2-2.12,5.14-1.82,8.22C12.23,100.53,14.11,103.81,10.05,104.86Z"/><path class="cls-105" d="M12.12,62.83c.62,1.16,1.36,2.27.22,3.58-1.7,2-1.19,3.9.21,5.79l1.83-2.14c1.57,2,.71,3.6-1,5-3.26.75-4.74-.46-3.87-3.79C10.24,68.41,11.24,65.64,12.12,62.83Z"/><path class="cls-106" d="M10.35,92.05c-4.12.12-2.76-3.09-3.18-5.22.09-1.59.18-3.18.28-4.76A1.14,1.14,0,0,1,9.29,82h0c2,3.19,1.77,6.6,1.05,10.06Z"/><path class="cls-30" d="M13.2,111v-1c1.77-.24,2.65,1.33,4,2,1.25,4.08,3.47,7.84,4,12.16C18.37,119.85,17.2,114.58,13.2,111Z"/><path class="cls-107" d="M13.37,75c.34-1.66.67-3.32,1-5l.93-1A8.67,8.67,0,0,1,18.23,69l.12,1.19-1,2.86C15.93,73.5,15.06,75.07,13.37,75Z"/><path class="cls-98" d="M9.29,82l-1.84.1a16.47,16.47,0,0,1,.88-3.63C9.56,76,10,78.05,10.53,79,10.12,80,9.71,81,9.29,82Z"/><path class="cls-108" d="M7.21,103.08V94.21c.93,3.24,3.27,6.48.13,9.72A1.9,1.9,0,0,1,7.21,103.08Z"/><path class="cls-109" d="M103.25,15h4l2.16.91a3.11,3.11,0,0,1-2.78.55c1-.17,2.83.53,4.61-.41l9,2a.75.75,0,0,1,.33.91c6.53,4.09,13.61,7.26,19.82,11.87,1.86,1.37,4.57,2.26,3.75,5.5-2.81,1-4.59-1.1-6.62-2.31-5.19-3.06-10.06-6.78-16.22-7.82a9.1,9.1,0,0,1-3.44-1.29,9.27,9.27,0,0,0-6.16-1.59c-2.85-.15-5.6-1-8.41-1.36-1.63-1-4.56.15-5-2.91Z"/><path class="cls-110" d="M120.36,19c0-.31-.09-.63-.13-.94,4,1,1.11-3.34,3-4l.26-.35.43.11A8.32,8.32,0,0,0,131.26,19c1.91,1.91,5,2.08,6.64,4.27,1.09,1.45,3.31,2.55,2.21,5-.45.22-1,.5-1.43.29C132.6,25.32,126.09,22.87,120.36,19Z"/><path class="cls-33" d="M140.15,28.19c-1-5-6.49-5.58-8.89-9.19h1c5.15,2.41,9.63,5.56,12,11h0c-1.11.71-2.11.13-3.13-.25A1.61,1.61,0,0,1,140.15,28.19Z"/><path class="cls-111" d="M111.2,7.08c2.07.37,4.18.59,6.21,1.14,1.36.38,2.91,1,2.73,2.91-.2,2.18-1.9,1.86-3.32,1.86-1.59,0-3.29.45-4.63-.9.73-1,2.39-2.08-.19-3A1.56,1.56,0,0,1,111.2,7.08Z"/><path class="cls-112" d="M111.2,7.08c1.06,2.26,3.32,1.82,5.54,2.12-1.08,2.13-2.89,2.4-4.55,2.89-1.07-.13-2.27.11-3-1.05,1.12-.17,1.88-.5.81-1.72-.94-1.06-1.86-2.14-2.79-3.22A6,6,0,0,1,111.2,7.08Z"/><path class="cls-113" d="M124,13.82a1.2,1.2,0,0,0-.69.24c-.71-.25-1.84-.29-1.58-1.34.3-1.2,1.51-1.05,2.34-.72C125.37,12.54,124.11,13.2,124,13.82Z"/><path class="cls-114" d="M111.24,16c-1.84,1.83-4,.56-6.82,1.13,2.1-1.67,3.63-.89,5-1.27Z"/><path class="cls-112" d="M104.29,10c1.68.23,3.6-.67,4.95,1.06C107.54,10.93,105.65,11.69,104.29,10Z"/><path class="cls-115" d="M142.45,18.42c1,1.46,2,2.95,3,4.38a1.59,1.59,0,0,1-.3,2.52c-1.14.8-1.76,0-2.22-1-.75-1.55-1.48-3.12-2.21-4.68Z"/><path class="cls-116" d="M151.13,27.18c-1,2.14-2.32,2.41-4,.84C148,25.69,149.64,26.79,151.13,27.18Z"/><path class="cls-117" d="M140.15,28.19l1,.88c1.56.74,2.71,2,4.12,3l9,9c1.16,2.36,3.59,4,3.93,6.82l-1.07,1.12c-4.76-1.59-6.55-6.53-10.38-9.19-1.22-.85-3-1.6-2.48-3.75C137.13,28.6,128,24.35,119,20c-.29-.14-.57-.31-1.36-.74l2.76-.35A119.13,119.13,0,0,1,140.15,28.19Z"/><path class="cls-110" d="M145.24,32.05c-2-.18-3.06-1.55-4.12-3l3.13.93Z"/><path class="cls-118" d="M182.38,111l-.27,2.89-1.8,4.1c.59.31-1-.26-.37-.31s.64-.81.09-.44c-1.36.9-1.23,2.45-1.6,3.78-2,1.16-3.14-.14-4.35-1.38a4.77,4.77,0,0,1-.64-1.3c-.58-2.63.71-4.61,2.28-6.48.9-.83,2.3-1,2.86-2.27.4-.93.22-2,.73-2.9a7.77,7.77,0,0,0,2.05-3.73,3.39,3.39,0,0,1,.67-1.13.89.89,0,0,1,1.17.14A29.85,29.85,0,0,1,182.38,111Z"/><path class="cls-86" d="M183.2,102l-.94,0c-1.55-1.66-1.38-3.5-.59-5.41l.59-.59h1C183.23,98,183.21,100,183.2,102Z"/><path class="cls-119" d="M173.32,128.87c-1,1.93-3.15-.23-4.27,1.23-2.31,1.57-4.3,1.24-6-1,.69-3.49,3.4-3.25,6-3.27a3.71,3.71,0,0,1,2.17,1.24Z"/><path class="cls-120" d="M174.3,119c1.36.55,2.22,2.09,3.92,2a1.63,1.63,0,0,1,.9.81l-.9,3.14c-2.31,1-3.3-1.36-5-2A3.12,3.12,0,0,1,174.3,119Z"/><path class="cls-120" d="M171.2,127.1l-1.69-.27c-1.07-.59-2.35-.12-3.42-.69a2.52,2.52,0,0,1-.27-1.38c.81-1.85.77-4.26,3.27-5a20.31,20.31,0,0,1,3.17,3.25A7.33,7.33,0,0,0,171.2,127.1Z"/><path class="cls-118" d="M172.26,123c-2.29.23-3.19-.9-3-3.07a1.93,1.93,0,0,1,.11-3,1.18,1.18,0,0,1,1.2.11,4.53,4.53,0,0,1,.77,1.63c.52.92,1.17.37,1.8.14a1.26,1.26,0,0,1,1.13.15l.07.07a7,7,0,0,1-1,3.94Z"/><path class="cls-121" d="M179.12,121.81l-.9-.81c-2.39-2.72,1.37-3.92,1.48-6.14,1.05,1,.34,2.17.61,3.17C179.91,119.29,179.52,120.55,179.12,121.81Z"/><path class="cls-122" d="M103.38,175l-1.19,1.93-1.92,1a6.18,6.18,0,0,1-2.49-2.67,5.48,5.48,0,0,1-.51-1.44c-.12-2.51-.1-4.92,3.53-4.47a4.21,4.21,0,0,1,2,2.15C103.34,172.62,104,173.72,103.38,175Z"/><path class="cls-123" d="M96.29,181c-4.76,1.48-5.93.3-6.08-6.13a.81.81,0,0,1,.3-1.12c1.61-.93,1.79,2.87,3.67,1.09a1.45,1.45,0,0,1,1.23.2C96.88,176.86,96,179,96.29,181Z"/><path class="cls-124" d="M90.46,174.06a4.73,4.73,0,0,0-.25.81l-1.82,1.2-.61-.23a4.12,4.12,0,0,1-1.67-2c.08-.6.17-1.19.25-1.79a2.59,2.59,0,0,1,1.12-2l0,0,1.79-1.31c2.45.35,2,2.21,2,3.82A2.94,2.94,0,0,1,90.46,174.06Z"/><path class="cls-125" d="M96.29,181c-2.82-1.59-.15-4.1-1-6,.07-.19.13-.39.2-.58a1.91,1.91,0,0,1,1.58-.75c.6.25.8.88,1.25,1.28l0,0c.74,1.68,1.46,3.36-.23,4.93Z"/><path class="cls-124" d="M87.41,182.65l-1.86-3.76c.92-.95.57-2.94,2.5-3.06l.34.24c-.68,2.32,2.91,4.72-.14,7A3,3,0,0,0,87.41,182.65Z"/><path class="cls-43" d="M98.12,179.82c.07-1.64.15-3.28.23-4.93a3.08,3.08,0,0,1,1.92,3.05C99.88,178.94,101.18,181.88,98.12,179.82Z"/><path class="cls-59" d="M103.38,175c-.58-.92-1.35-1.77-1.23-3,1.39-1.62,3.51-1.27,5.24-2,2.93-.08,5.83-1.84,8.78-.12,3.09-.29,4.66.88,4,4.18-1.26.28-3-1.54-3.79.82-2,.46-4.12-1.53-6.16,0l-.22-.17.24.16c-2,2.4-4-.1-6,.07h-.84Z"/><path class="cls-126" d="M34.21,36c1.43-2.5.9-6.44,5.06-7,1.35,2.91,2.17.63,3.13-.32,2.47-3.63,5.4-6.63,10-7.49l3.74-1.29a1,1,0,0,1,1.25-.09c.08,2.6-2.61,3.67-3.24,5.87a61.38,61.38,0,0,1-13.51,9.84C38.39,34.54,36.37,36.3,34.21,36Z"/><path class="cls-127" d="M52.35,21.21l-10,7.49c-.9-2.69-2.48-5.49,1.09-7.53L49.3,18C51.45,18,54,17.59,52.35,21.21Z"/><path class="cls-52" d="M57.3,20l-1.21-.09,3.33-2.84c1.87.38,2.82-.92,3.84-2.1l1.05.13c0,.29,0,.59,0,.88C63.92,20.11,62.94,20.67,57.3,20Z"/><path class="cls-128" d="M98.28,19c1.18,1.89,3.82.09,5,2-.54,1.2-2.52.65-2.68,2.24,3.69,1.16,7.55,1.25,11.26,2.13A76.07,76.07,0,0,1,151.1,48.64c1.68,1.83,3.47,3.55,5.16,5.37-1.47,2-4.13,1.72-6,3-3,.4-4.41-2.05-5.95-3.81C133.66,41,119.72,35,104.28,31.61c-3.68-.81-4.69,1.34-5.61,4a1.41,1.41,0,0,1-1.33.41C97.79,30.35,96.09,24.57,98.28,19Z"/><path class="cls-32" d="M94.4,74.89l.86.11c2.22-.16,4.46-.5,6.43,1,.82.43,1.62.92,2.44,1.37,1.76,1.1,4.34,1.62,3.41,4.68a2.65,2.65,0,0,1-1.93.75c-2.1-.15-3.25-1.94-4.92-2.84-1.32-.7-3-1.71-2.48,1.27.92,1.28,2.52,1.57,3.65,2.53a4.38,4.38,0,0,1,1.21,1.76,5,5,0,0,1-.38,4.26,3.59,3.59,0,0,1-.37.27c-5-4.94-10-2.58-15,0-1.7-3.07-3.09-6.32-5.22-9.15,2-4.41,5.91-5.77,10.16-6.7A3.58,3.58,0,0,1,94.4,74.89Z"/><path class="cls-129" d="M92.23,10.93c.06-1.13-.2-2.37,2-3.62V65c-3.59.76-3.2-2-3.3-4-.27-5.32-.15-10.64-.09-16,.11-10.3-.4-20.61.38-30.91C91.34,13,91.23,11.8,92.23,10.93Z"/><path class="cls-130" d="M107.33,81.92c.09-2.8-2.82-2.51-4.07-3.93-.16-1.33-.79-1.73-2-1-1.72-1.52-4.12-1-6-2,1.78-.74,2.13-2.25,2.11-4a2.11,2.11,0,0,1,1.26-.67c6.25,1,11,4.73,15.63,8.57.71,1.22,1.92,1,3,1.06-1.36,2.25-6.19,1.57-5,5.95a1.55,1.55,0,0,1,.21,2C108.88,87.54,108.25,84.61,107.33,81.92Z"/><path class="cls-54" d="M92.23,10.93c0,16.41,0,32.82.07,49.22,0,1.75-1.08,4.21,2,4.84,0,1,0,2,0,3-1.57.43-.51,4-3.43,2.85a4.43,4.43,0,0,1-.7-1.47c-.56-14.07-.11-28.14-.25-42.19,0-1.82.09-3.65,0-5.46,0-1.53-1.71-2.06-2-3.4a1.62,1.62,0,0,1,.37-1.25l.3-.29c3.16-.61,1.77-2.63,1-4-1.17-2-1.65-3.59.65-5C90.8,8.84,91.51,9.89,92.23,10.93Z"/><path class="cls-131" d="M98.3,71c-.31,0-.62,0-.93.07l0-35,.91,0,.62.66c1.43,3.14.41,6.5.89,9.73,0,4.56-.27,9.11,0,13.67C99.51,63.72,100.75,67.6,98.3,71Z"/><path class="cls-132" d="M97,6c1.91,2.24,1.6,4.55.22,6.9C96.37,10.66,93.42,8.45,97,6Z"/><path class="cls-129" d="M92.26,71c.7-1-1.72-4,2-3l.15,6.9L92.25,75C90.05,73.64,91.05,72.31,92.26,71Z"/><path class="cls-133" d="M40.32,35l13-9.9c4.42-4.36,10.14-5.82,15.91-7.15L81.31,15c1.67.28,3.58-.71,5,.92-.43,3.09-3.21,2.43-5,2.74A75.08,75.08,0,0,0,46.14,34.9,91.34,91.34,0,0,0,35.56,45.32c-1.15,1.31-1.93,3.24-4.26,2.65l-.2-2A18.94,18.94,0,0,1,40.32,35Z"/><path class="cls-134" d="M69.25,18,53.34,25.14c.48-2.36,2.25-3.72,4-5.13,2-2,6.52.53,7-4,1.09-.55,2-.71,1.94,1C66.72,18.91,68.31,17.48,69.25,18Z"/><path class="cls-135" d="M31.3,48c5.53-5.64,10.59-11.71,17-16.47A79,79,0,0,1,83.67,17c1-.15,2-.13,2.64-1.07l1.86,1.11a4.17,4.17,0,0,1,.07.93,5.89,5.89,0,0,1-3.93,1.94C64.43,22.6,48.81,32.66,36,47.59A7.89,7.89,0,0,1,33,50.22c-1,.16-1.29-.54-1.63-1.22Z"/><path class="cls-136" d="M116.17,169.9c-2.93.34-5.71,1.72-8.76,1.16a1.49,1.49,0,0,1-.92.33c-1.59-.32-4.16,1.25-4.49-1.47-.25-2.09,2.2-2.21,3.7-2.56,3.57-.82,7.18-1.41,10.69-2.5a73.35,73.35,0,0,0,34.19-22.34c1.78-2.05,2.89-5.05,6.27-5.23a2.56,2.56,0,0,1,1.36.73h0c.7,3.08-1.39,4.82-3.22,6.7-2.63,2.69-5.21,5.43-7.82,8.15l-.31.6c-2.52,1.88-5.15,3.59-7.55,5.63L136.23,161c-.33.51-.45,1.16-1,1.55a17.17,17.17,0,0,1-2.15,1.25q-2.57,1.2-5.22,2.16l-.63,0c-1.21-.22-2,.59-3,1.1Z"/><path class="cls-137" d="M155.26,156c-1.34,3.91-4.62,1.43-6.94,2.09a2,2,0,0,1-.72-1.79,8.68,8.68,0,0,1,.63-3.26c1.86-1.11,4.14-3.59,4.08,1.32C152.28,156.61,154.58,154.86,155.26,156Z"/><path class="cls-138" d="M148.23,153c.39,1,1.59,2.06,0,3.07-.51.54-.84,1.39-1.85,1,0-.68-.06-1.36-.1-2.05-.69-1.14.52-1.45.93-2.11h0Z"/><path class="cls-139" d="M133.08,162.8l2.14-.93c1.05,1.17,2.47,2.17,2,4.08l-2,0c-2.57-.13-3.88,2.22-6,3s-2.66-.13-2.21-2.09a2.14,2.14,0,0,0,.17-1h0C128.83,164.25,131.75,165,133.08,162.8Z"/><path class="cls-140" d="M127.07,166.91a2.27,2.27,0,0,0,2.21,2.09c-.1,1.32-.75,1.66-1.87,1C126,169.13,125.85,168.08,127.07,166.91Z"/><path class="cls-141" d="M133.25,174c-.76-.15-1.72-.17-1.46-1.31.06-.27.83-.63,1.17-.55,1.33.34.39,1.19.31,1.85Z"/><path class="cls-58" d="M146.35,157.05l1.85-1,.12,2c-.94,1.27,0,2.6-.13,3.89l-2.05,1.7C144.45,161.38,145.12,159.21,146.35,157.05Z"/><path class="cls-58" d="M147.18,152.89l-.93,2.11-4,2.94a1.31,1.31,0,0,1-1.06.77l-1.84.4C141.19,156.09,144.15,154.44,147.18,152.89Z"/><path class="cls-142" d="M137.26,166c-1.18-1.11-2.37-2.22-2-4.08.07-.61.35-1,1-.91l3,4.08c.27.16.38.34.34.55s-.11.33-.19.33C138.66,167.08,138,166.11,137.26,166Z"/><path class="cls-143" d="M141.15,158.71l1.07-.77a2.27,2.27,0,0,1,.46,3.45,1.11,1.11,0,0,1-1.73.07C140.11,160.53,141.15,159.64,141.15,158.71Z"/><path class="cls-144" d="M139.33,165.92c-.06-.29-.11-.58-.15-.88.25-2,1.42-2.36,3.24-1.78C141.71,164.59,141,165.81,139.33,165.92Z"/><path class="cls-145" d="M116.38,174.9c-1-1.36-.63-2.57.78-3.16,2.15-.91,1.82,1.77,3,2.34,0,.26,0,.51,0,.77C118.93,176,117.65,175,116.38,174.9Z"/><path class="cls-146" d="M167.2,136.13c.25.77,2.15,1,1,2.19a2,2,0,0,1-3.07-.23c-1.64-1.86-3.19-3.77-5.88-4.08a2.15,2.15,0,0,1-1.91.5,54.22,54.22,0,0,1-5.37-2.74,57.93,57.93,0,0,0-5-3.12c-2.28-1.27-4.35-2.9-6.79-3.88-.83-.37-1.69-.68-2.53-1-1.54-.85-2.87-1.87-2.89-3.86a1.83,1.83,0,0,1,1.5-1.43c4.85.82,9.07,3.12,13.23,5.59,2.31,1.51,4.7,2.91,7.15,4.2C160.5,130.4,164.34,132.61,167.2,136.13Z"/><path class="cls-147" d="M167.2,136.13C163,134.6,160,131.2,156.27,129c-1.44-1-1.77-2,.29-2.45,1.38-.29,2.85.25,4.28,0a3.31,3.31,0,0,1,1.32.19c.88.49.56,1.6,1.17,2.24,1.62,1.72,3.82.79,5.72,1.22.07.63.13,1.26.2,1.89C169.41,133.79,171.05,136.32,167.2,136.13Z"/><path class="cls-58" d="M157.3,134.07l1.91-.06a3.57,3.57,0,0,1,.1.87c-1.6.62-.86,2.05-1.1,3.14a3.86,3.86,0,0,1-.9-.07C156.25,136.66,156.08,135.37,157.3,134.07Z"/><path class="cls-148" d="M43.25,68c1.88,2,4.55,2.22,7,3,.81.71,2.78.39,2.16,2.39-5.62,9.42-7,19.57-4.67,30.14.89,4.07,5,5.32,8.28,7,1.29,2.35-.88,2.87-2.07,3.91a30,30,0,0,0-4.34,2.38c-2.83,1.76-5.42,4-8.77,4.77a2.31,2.31,0,0,1-2-.82c-.29-.6-.73-1.42-.36-1.89,4.84-6.14-.74-12.08-.31-18.12a1.4,1.4,0,0,0-.28-.94C36.17,98,33.65,97,34.1,93.59c1.09-8.38,1.57-16.88,5.94-24.44C40.71,68,41.67,66.94,43.25,68Z"/><path class="cls-149" d="M43.25,68c-1.39,0-2,1-2.5,2.08C36.67,77.89,36.38,86.54,35.3,95a7.61,7.61,0,0,0,.24,1.93c6.8-1.32,3.72,4.72,4.35,6.92,1,3.53,1.48,7.38,2.47,11,.67,2.5.66,2.5-2.09,3.17-.74.18-.74.18-1,3a1.46,1.46,0,0,1,0,1.51c-1.83,1.81-3.44,4.41-6.49,1.77a31.24,31.24,0,0,0-1.44-7.84c-2.58-9.42-3-19-2.41-28.72.15-2.54.12-5.42,2.88-7,2.62,4.37-1.63,8.3-.33,11.64,1.25-8.44,1.8-18.16,7.94-26.15l.75-.29Z"/><path class="cls-150" d="M32.27,81c-3.56,7.72-2,15.81-1.49,23.74a51,51,0,0,0,3.72,16.73c.71,1.66-.88,2.32-1.23,3.5-.71,1.86-1.71,3.19-4,2.07,1.5-5-1.84-9.12-2.56-13.74a111.52,111.52,0,0,1-.36-33.92A4.93,4.93,0,0,1,28.27,76c1.82,3.49-1.14,6.56-.64,9.26C29.1,78,30.26,69.83,35.25,63l0,0,5,3,0,0c-3.52,2-4.11,5.82-5.44,9.14C34,77.14,34.11,79.48,32.27,81Z"/><path class="cls-151" d="M21.27,84c1.25-6.79,2.77-13.51,5.89-19.74A7.64,7.64,0,0,0,28.27,60l3,1c-2.71,7.4-5.95,14.6-7.71,22.34-.58,2.58.73,5.57-2.29,9.05Z"/><path class="cls-152" d="M52.3,73,50.21,71a2.2,2.2,0,0,0,2.12-1.11A5.84,5.84,0,0,0,56.27,71c2,.14,3.92.49,4.15,3.07a6,6,0,0,1-3.29,1.57C55,75.73,53.16,75.2,52.3,73Z"/><path class="cls-153" d="M24.3,49.93c.92.67,1.87,1.3,2.74,2,1.73,1.42.47,1.76-.79,2.06-1.44.1-2.32-.93-3.33-1.68s-2.9-1.06-2-2.64S23.16,49.6,24.3,49.93Z"/><path class="cls-154" d="M40.32,35,31.1,46l-.84,2c-.9.25-1.25-.06-1-1-1.49-5.08,1.41-8.18,4.94-11C36.22,35.48,37.63,31.13,40.32,35Z"/><path class="cls-17" d="M29.28,47l1,1c0,1.21.58,2.87-1.4,3S26.53,49.54,26.22,48Z"/><path class="cls-155" d="M55.28,67l-5-2.09c-1.42-1.81-.31-3.08.93-4.3,1.78-1.75,3.08-3.93,5-5.52C53.89,57,52.36,59.71,50,61.64c-.81.67-1.69,1.18-2.67.42a2.36,2.36,0,0,1-.61-2.73A6.52,6.52,0,0,1,48.3,56.8C58.18,45.59,70.17,38,85,35.3c2-.36,4.32-1.24,5.7,1.36q0,4.29,0,8.56c-.33,1.69-1.78,1.81-3,2.05A50.93,50.93,0,0,0,56,66.67Z"/><path class="cls-156" d="M90.26,36c-13.54.92-25.06,6.43-35,15.5-2.2,2-4.25,4.19-6.33,6.33-.9.92-2.43,2.18-1.22,3.29,1.6,1.46,2.69-.64,3.39-1.63a41.94,41.94,0,0,1,9-9.25c-1,4.77-4.3,6.13-6.2,8.55-1.48,1.89-4,3.11-3.66,6.11a37.51,37.51,0,0,1-9-5.92c1-5.92,5.68-9.3,9.71-12.81,9.4-8.2,20.08-14.16,32.65-16,2.4-.36,5-1.13,7,1.13C90.65,32.85,91.16,34.48,90.26,36Z"/><path class="cls-135" d="M91.24,20c0,2,0,4,0,6a4.8,4.8,0,0,1-1.22.88,69.66,69.66,0,0,0-38.84,16,63.14,63.14,0,0,0-8.69,8.84c-1.6,2-3,4.53-6.18,4.28l-1-1c.64-6.06,5.65-9.13,9.33-12.87A65.92,65.92,0,0,1,84.49,22.59c1.73-.22,2.24-.82,1.68-2.42C87.83,18.82,89.53,19.39,91.24,20Z"/><path class="cls-151" d="M86.26,21c1.21.1,2.58-.29,4.33,1.77-23.85,2.4-42.2,13-55.34,32.26-3.91-.33-4.31-2.9-3.86-6l.9,1c1.92,1.12,2.19-.75,2.93-1.65a80.23,80.23,0,0,1,45.86-28C82.84,20,84.7,19.5,86.26,21Z"/><path class="cls-157" d="M36.3,56c6.78-6,12-13.57,19.82-18.47C66.65,31,77.62,26.11,90.26,26a1.84,1.84,0,0,1,.2,2.13c-7.19,2.26-14.74,3.23-21.7,6.41A67.62,67.62,0,0,0,43,54.9c-1,1.3-1.88,2.75-3.72,3Z"/><path class="cls-158" d="M39.29,57.94c7.78-10.71,17-19.76,29.55-24.64C75.7,30.63,82.6,27.62,90.27,28a2.5,2.5,0,0,1,0,3c-19.38.66-34.14,10-46.24,24.46-1,1.14-1.83,2.35-2.73,3.52A2,2,0,0,1,39.29,57.94Z"/><path class="cls-159" d="M60.3,74l-4-3V69c2.09-.57,3.66,1.16,5.6,1.25a5.75,5.75,0,0,1,1.23.64,21.78,21.78,0,0,1,3.58,3.33c1.62,2.1-.09,2.4-1.64,2.71C63,76.69,61.12,76.17,60.3,74Z"/><path class="cls-160" d="M62.27,71c-2.36.41-4.23-.65-6-2l-1-2v0C59.18,65.57,61.19,67.47,62.27,71Z"/><path class="cls-161" d="M18.23,69a2.4,2.4,0,0,1-2.92.06,9.86,9.86,0,0,1,1.88-5.12C17.54,65.57,17.88,67.26,18.23,69Z"/><path class="cls-86" d="M170.23,69q0-.49.06-1a2.08,2.08,0,0,1,3,0c1.82,2.71,2.18,5.71,2.06,8.9-.06,1.71-.67,3.65.95,5.09a3.84,3.84,0,0,1,1.73,2.2c1.15,2.77-.87,5.53,0,8.31a13.17,13.17,0,0,1,.34,1.41,58.9,58.9,0,0,0,1.4,6.82c.5,2.32.17,4.29-2.18,5.48a1.46,1.46,0,0,1-1.67-.69c-.8-1.52-2.39-3.13-3.41-3.35a8.55,8.55,0,0,1-.43-5.35c1.21-4.45.15-8.8-.12-13.18.46-4.75-.52-9.31-1.73-13.85Z"/><path class="cls-162" d="M177.23,84a2.1,2.1,0,0,1-1-2c.79-2.87,2.83-1,3.87-.64,1.93.6,2.41,2.74,2,4.51-.69,3.42.14,6.76.09,10.13h0c-3.59,2.67-3.85,2.51-5-3h0C175.74,90,179.33,87,177.23,84Z"/><path class="cls-78" d="M173.24,68l-3,0c.24-1.19-.76-3,.93-3.41,1.3-.32.85,2,2,2.38C173.25,67.33,173.25,67.66,173.24,68Z"/><path class="cls-163" d="M180.19,78.47c-.64.52-1.17,1.25-1.56,1.18a2,2,0,0,1-1.23-1.28,1,1,0,0,1,1.15-1.16C179.08,77.31,179.51,77.92,180.19,78.47Z"/><path class="cls-92" d="M162.32,127.06l-1.1,0c-2.37.95-4.1,0-5.46-1.9-.14-1.42.68-2.52,1.2-3.73,6.55-15.35,7.06-30.86,1.22-46.54a29.79,29.79,0,0,1-1.72-5.19c-.24-1.32-.26-3.52.88-3.52,3.47,0,1.3-1.37.83-2.36a6.43,6.43,0,0,1-.91-2.81l4-3c.09,4.22,4.44,2,6,4-1.31,1.43-.3,2.77.23,4.07.64,1.57,1.08,3.08.07,4.65-2.85,1-3.19-1.21-4-2.93,7.7,16.79,7.66,34.09,3,51.65.24,1.88-2.6,3.6-.28,5.59-.06.29-.11.59-.14.88A4.49,4.49,0,0,1,162.32,127.06Z"/><path class="cls-100" d="M166.32,125c-5.47-.6.06-3.51-1.06-5a76.43,76.43,0,0,0,3-42.66,32.55,32.55,0,0,1-1-7.33c.21-2.11-.88-3.82-1.81-5.55-1.15-2.12-.16-2.6,1.77-2.46,1,2.34,2,4.69,3,7v0c2.17,4.45,2.15,9.35,3,14.08,1.65,6.64-.12,13.27,0,19.91,1.28,4-1,7.7-1.09,11.58a3.74,3.74,0,0,1-2,2.39,4,4,0,0,0-.91,3C167.73,121.32,168.22,123.85,166.32,125Z"/><path class="cls-164" d="M168.18,57.13c0,.23,0,.45,0,.68-1.39,1-2.66,2.37-5,1.25A4.65,4.65,0,0,1,168.18,57.13Z"/><path class="cls-165" d="M125.18,80c1.15-1.88,3-2.59,5-3,1.57-1.17,3.57-1.65,5-3l1-.93c3.62-1.55,4.71.76,5.45,3.58.17.64.18,1.77-.23,1.85-5.76,1.14-1.08,4.12-.69,5.66a45.51,45.51,0,0,1-.33,24.45c-.61,2.08-1.35,4.11-3.65,5-5.41-1.46-10.63-3.22-13.86-8.32,2.78-5.18,3.23-5.34,6-2.17,1.58-5,.79-10.44,2.33-15.6C132.51,83.13,130.83,81.48,125.18,80Z"/><path class="cls-166" d="M149.26,65l5-3a5.92,5.92,0,0,1,1.69,3c2.59,16.12,6.61,32.18,1.54,48.56-1.2,3.89-2.27,7.71-6.78,9-3.14.3-5.5-.8-6.74-3.83,4.93-6.34,5.67-14.37,8.45-21.57,1.47-3.8-.44-8.18-.94-12.27a50.28,50.28,0,0,0-2.67-12.62C147.82,69.87,148.56,67.43,149.26,65Z"/><path class="cls-167" d="M125.18,80c2.12,1.26,4.42-3.29,6-.21,1.55,2.91,2.64,6.25.84,9.77-1.93,3.78.05,8.19-1.7,12.12-.69,1.57-.66,3.46-1.94,4.89-2.5-1.17.15-3.41-1.2-4.81-2.59-.48-1.41,3.76-4,3.28-5.52.25-8-2.12-7.49-7.27a41.47,41.47,0,0,0,0-8.41,7.88,7.88,0,0,1-.35-1.51,3.51,3.51,0,0,1,.82-2.86l2-1c1.57-1.16,3.51-1.71,5-3Z"/><path class="cls-168" d="M136.26,113c4.88-6.07,5.1-13.3,4.57-20.47-.37-4.85-1.19-9.8-4.22-14a2.61,2.61,0,0,1,0-2.76c2,0,2.16,2.46,4.32,3-.55-3.13-.58-6-4.68-5.75a11.69,11.69,0,0,1,6-3c2.2-1.13,3.09.55,3.76,2,3.65,7.86,5.44,16,3.13,24.61q-1.83,6.72-3.35,13.5c-.66,3-2,5.24-4.91,6.39-2.13.53-3.87.06-5-2A1.62,1.62,0,0,1,136.26,113Z"/><path class="cls-169" d="M150.22,122c3.67-1.92,5.18-5.16,6.05-9.05a78.1,78.1,0,0,0-.17-37.13c-1.07-4.25-1.3-9.19-1.85-13.82l3-1c3.18,2,2.88,5.59,4.53,8.45-2.75.38-2-2.55-3.91-3.16-1.34,2.74.25,4.93,1.11,7,6.49,15.87,5.77,31.67-.2,47.45a26.58,26.58,0,0,1-2.55,4.25c-1.43,1.17-2.81.33-4.21-.1C150.92,124.28,149.83,123.62,150.22,122Z"/><path class="cls-170" d="M140.24,116a9.93,9.93,0,0,0,4.38-7.22c.88-6,3.52-11.76,3.89-17.72.47-7.52-.14-15.28-6.29-21.09l7-4.93c1.43,10.09,5.3,20,4.62,30.14-.5,7.42-4.32,14.64-6.85,21.89-.3.84-1.82,1.25-2.77,1.86C141.84,119.42,140.23,118.81,140.24,116Z"/><path class="cls-171" d="M112.21,88.06l.06-2.1c.33,0,.66,0,1,0,2.41-1.4,2.18,1.1,3,2h0c.69,3.71,1,7.41-.27,11.08-.49,1.41-.83,2.75.7,4,1.12.89,1,2-.49,2.66-2.09.64-4.34-1.13-6.38.44-1.07-.28-1.34-1.14-1.54-2.07-.26-1.45.49-2.85.55-4.74-2.92,1.44-2.28,6.45-6.51,5.52a3.39,3.39,0,0,1-2.28-1.61,2.11,2.11,0,0,1,0-1.38,10.69,10.69,0,0,0,3.09-8.36c-.09-.21-.17-.41-.26-.61a1.75,1.75,0,0,1,.44-1.22A14.53,14.53,0,0,0,112.21,88.06Z"/><path class="cls-168" d="M135.24,73.92c-1,2.12-2.93,2.73-5,3C131.32,75,133.22,74.37,135.24,73.92Z"/><path class="cls-165" d="M123.26,81c-1.08,2-3,2.67-5,3A6.42,6.42,0,0,1,123.26,81Z"/><path class="cls-172" d="M116.26,88c-1-.64-1.46-2.15-3-2,.73-1.11,1.89-.95,3-1C116.23,86,116.24,87,116.26,88Z"/><path class="cls-173" d="M98.3,71l0-11c1-2.2.43-4.54.47-6.81,0-2.5,1.41-3.81,3.36-2.59C109,54.9,117.43,57,122.38,64.36c3.69,5.48,3.89,5.34-1.12,9.64l-7,5a4.81,4.81,0,0,1-4.35-1.79C106.73,73.85,102.32,72.76,98.3,71Z"/><path class="cls-131" d="M98.25,36c.08-6.39,1-6.87,7.34-5.41,10.07,2.33,19.56,5.84,28.21,11.62a54.22,54.22,0,0,1,11.38,10.15A51.75,51.75,0,0,0,150.29,57c-3.45,1.82-6,5.22-10,6a61.3,61.3,0,0,0-16.42-14.91,3.81,3.81,0,0,1-1.18-.9c-5.53-7.5-13.48-9.63-22.2-10.12A3.56,3.56,0,0,1,98.27,36Z"/><path class="cls-174" d="M121.26,74c-.56-2.9,4.4-2.9,3.37-4.4-2.25-3.29-4.27-7-7.7-9.35-2.83-1.92-5.73-4.14-8.93-5-3-.81-4.94-5.37-8-3.51-2.38,1.45.55,5.74-1.73,8.24V46c.22-.26.37-.55.56-.82,1.13-1.6-1.43-5.51,2.68-5,2.92.34,7.29-.57,7.26,4.78,0,1,1.22.93,2,1.16,8.56,2.6,14.89,8.48,21.14,14.42,1.81,1.72,3.44,3.82,1.39,6.52C129.71,70.12,125.49,72.06,121.26,74Z"/><path class="cls-168" d="M133.27,67a6.42,6.42,0,0,0-2.54-6.09c-6.88-5.82-13.16-12.57-22.68-14.19-.89-.15-2.15-.5-2.2-1.67-.08-1.62,2-.5,2.46-1.7-1.5-.68-3-1.48-4.5-2-2.36-.81-2.47-.54-2.4,2,0,1.94-2.08,1.73-3.14,2.6V36a34.36,34.36,0,0,1,11.78,1.19,19.36,19.36,0,0,1,10.41,6.07c5,5.6,12.34,8.74,17.27,14.65,1.29,1.54,2.86,2.8,2.53,5.09A22.19,22.19,0,0,1,133.27,67Z"/><path class="cls-175" d="M156.26,54c-1.78.09-2.91-.64-4.13-2.1-13-15.68-29.77-24.59-50-26.91-1.55-.17-3.51.51-3.83-2,6.65-1.89,13-.06,19.35,1.65,1.22.32,2.28,1.54,3.63.35,6.12.32,10.56,4.35,15.59,7.07,2.46,1.34,4.4,3.63,7.4,3.93a105.49,105.49,0,0,1,12.86,12.94c.06,1,.12,2,.19,3A2.3,2.3,0,0,1,156.26,54Z"/><path class="cls-176" d="M36.31,147.9,44.12,155c-1.18.11-1.88.53-1.26,1.87,1.65,3.64-.7,2.49-2.46,2.05-1.06,0-2.15,0-2.94-.88,0-2.67.64-5.41-1.33-7.81C35.77,149.83,36.23,148.71,36.31,147.9Z"/><path class="cls-177" d="M88.05,175.83c-1,.84-.41,3.07-2.5,3.06a5.12,5.12,0,0,0-.28-.92c.36-1.35-.5-2.95.84-4.1C87.28,174,88.21,174.38,88.05,175.83Z"/><path class="cls-99" d="M87.48,170.08l-1.12,2c-2.08-.3-4.35.58-6.21-1C82.62,170.93,85.14,171.21,87.48,170.08Z"/><path class="cls-178" d="M37.46,158.08c1,.16,2.26-.41,2.94.88-1,1.76-2.55,1.14-4,.81Z"/><path class="cls-179" d="M63.24,175.15c-.84-.72-.09-1.28.18-1.89,1-.13,2.52-.81,2.47.89C65.85,175.65,64.18,174.89,63.24,175.15Z"/><path class="cls-180" d="M35.25,63c-1.24,6-4.6,11.24-5.66,17.29-.39,2.22-1.19,4.36-1.89,6.82-1.21-4,.18-7.54.57-11.16a33.87,33.87,0,0,1,3.5-10C32.61,64.51,33.22,63,35.25,63Z"/><path class="cls-181" d="M29.29,127c1.72.06,2.61-1.47,4-2.07,2.43-.11,4.06-1.86,6-3a2.79,2.79,0,0,1,1.37,2.51c-3,4.2-6.9,6.84-12.31,6.62,1.24-1.77-1.29-2.59-1.06-4.11C28,127.1,28.62,128.05,29.29,127Z"/><path class="cls-182" d="M28.34,131.12c4.42-1.66,8.67-3.61,12-7.05.59-1,1.69-1.2,2.64-1.63a5.6,5.6,0,0,1,1.26-.34c1.31.05,2.85-.27,3,1.73-.93,1.61-2.49,2.61-3.77,3.88-3.4,1.82-6.59,4-10.29,5.27a2.06,2.06,0,0,0-2,1,5.32,5.32,0,0,0-4,2v0a.64.64,0,0,1-1-.05c-2.1-1.8-3.3.88-5,1,0-.35,0-.7,0-1.05C23.25,133.79,26.62,133.7,28.34,131.12Z"/><path class="cls-169" d="M90.26,163c-13.62,0-25.23-5.36-35.82-13.45-1.17-.9-2.33-3.39-3.83-.12-.36.79-1.61.07-2.18-.41-3.49-2.93-7.46-5.44-9.16-10-.39-1.84-1.67-3.2-2.59-4.75-.65-1.07-1-2.12.17-3.08a2.31,2.31,0,0,1,3.51.28c1.9,2.07,3.86,4.09,5.68,6.23,3.05,3.57,6,7.08,11.31,7,1.09,0,2.06,1,3.07,1.56a63.14,63.14,0,0,0,26.92,10.51c1.3.17,2.64.32,3.5,1.53C91.58,159.94,91.67,161.55,90.26,163Z"/><path class="cls-183" d="M59.27,147c-2-3.25-5.77,0-8.4-2.62-3.72-3.72-7.25-7.56-10.66-11.54-.77-.9-1.42-2.18-2.72-1.23-1.55,1.14.11,1.88.62,2.78.8,1.42,2.87,2.56,1.16,4.62-2.88-1.13-3.12-4.89-6-6,2.63-3.17,6.46-4.35,10-6,3.39,4.39,7.57,8.09,11.06,12.39.91,1.46,2.41,2.28,3.59,3.43S60.64,145,59.27,147Z"/><path class="cls-184" d="M90.26,163v-5c-1.49-1.72-1.45-3.8-1.4-5.89s-.07-4.08,0-6.12,0-4.06,0-6.1c-.09-3.16-.1-6.32,0-9.48-.22-5,.89-10.23-1.81-15,1.93-2.29,4.59-2.55,7.33-2.58,1.41,1.72,1.22,3.62.65,5.58a4.25,4.25,0,0,1-1,1.39c-2.95,6-.85,12.24-1.14,18.37-.47,9.82.54,19.7-1.17,29.47a1.07,1.07,0,0,1-1.51.3Z"/><path class="cls-185" d="M90.25,167.94h1c1.17-4.65.2-9.38.53-14.07.11-1.69-.44-4,2.71-3,2.17,7.39,1.23,14.86.59,22.32-1.66,2.48-3.14.67-4.66-.2-.37-1.4.49-3.14-1.14-4.2Z"/><path class="cls-186" d="M26.23,135.92l1,.05c-.37,1.63-.95,3.05-3,2.93Z"/><path class="cls-98" d="M10.34,92,9.29,82C12.91,85,11.35,88.54,10.34,92Z"/><path class="cls-187" d="M121.26,25c-.15,1.5-.81,2-2.3,1.34-6.59-3-13.74-2.55-20.68-3.34.63-3.23,3.24-1.56,5-2l9,1c1.95.8,4.15.89,6,2Z"/><path class="cls-175" d="M118.26,24a9.43,9.43,0,0,1-6-2C114.51,21.91,116.68,22.05,118.26,24Z"/><path class="cls-76" d="M177.26,93c1.36,1.52,1.05,5.79,5,3v6c0,.33,0,.66,0,1-.79,1.38-.95,3.29-3,3.57a1.88,1.88,0,0,1-1.95-.6,5.38,5.38,0,0,0,1.06-5.78A15.68,15.68,0,0,1,177.26,93Z"/><path class="cls-188" d="M170.12,117c.32-.67.65-1.35,1-2,1.14-1.68.78-3.74,1.42-5.54.87-2.46,1.93-1.55,3-.18a3.94,3.94,0,0,1,.64,2.81c-.27,2.42-2.73,4.22-2,6.93-.29,0-.58.09-.87.12l-.55-.18a8,8,0,0,1-2.25-1.83Z"/><path class="cls-86" d="M176.19,112l-1-2c-.54-1.71-1.34-3.59,1.87-2.89a4.82,4.82,0,0,1,2.15,2.83C180.08,113.39,177.26,111.42,176.19,112Z"/><path class="cls-189" d="M179.22,110a3.33,3.33,0,0,1-2.1-2c-.26-1.41.69-1.41,1.65-1.42l.57.38C180,108,180.18,109,179.22,110Z"/><path class="cls-86" d="M179.27,106l3-3c.09,2.1-.32,3.82-2.91,4l-.05,0c-.35-.2-.47-.41-.36-.62S179.15,106,179.27,106Z"/><path class="cls-69" d="M162.32,127.06l3.86-1.17c1.15.15,2.42-.1,3.33.94-2.22.19-4.56,0-6.18,2C162.31,128.65,162.42,127.8,162.32,127.06Z"/><path class="cls-190" d="M173.35,119.07c-.83.77-.76,2.74-2.4,2.29-1-.28-.58-1.6-.54-2.5a2,2,0,0,1,2.74,0Z"/><path class="cls-191" d="M173.15,118.89l-2.74,0c.05-.61.09-1.21.14-1.81C172,116.86,173.21,117,173.15,118.89Z"/><path class="cls-192" d="M157.3,134.07c0,1.29,0,2.59,0,3.88a3.53,3.53,0,0,0-2.87,1.66c-10.57,14.43-24.86,23.25-42,27.79-3.16.83-6.58.54-9.8,2.31,1.21,2,3.23.92,4.75,1.35-1.57,1.34-3.47.84-5.26.95l-1-1.67a2.55,2.55,0,0,1-.37-1.5c1.66-2.38,4.48-1.73,7.32-2.68-8.8,1.9-8.8,1.9-9.6-2.3a2.86,2.86,0,0,1,.82-1.28c4.74-1.48,9.77-1.22,14.56-2.71C130.13,154.78,143,145.3,152.26,131,153.87,132.11,156.44,131.7,157.3,134.07Z"/><path class="cls-193" d="M101.26,169l-.15,1.37c-5.67-1.36-1.92,3-2.81,4.59l-1.11-.86c-2.31-3.3-1.07-7-1.3-10.61-.17-2.8,0-5.62,0-8.44,0-11.08,0-22.17,0-33.25.11-2.33-.29-4.71.59-7,2.6-2,5.45-3,8.75-2.1.68,3.75-3.22,3.1-4.63,4.84-1.78,2.14-.69,4.66-.89,7,0,1.93.11,3.86,0,5.8.08,3.57.16,7.13,0,10.7,0,5.11,0,10.22,0,15.32a18.62,18.62,0,0,1-.56,5.9C97.93,165.11,99,167.23,101.26,169Z"/><path class="cls-194" d="M94.21,173.93l0-22.88a6.69,6.69,0,0,1-1.33-5.55c.59-3.43.08-6.81,0-10.2.14-4.6-.1-9.2.17-13.79A3.79,3.79,0,0,1,94.15,119l.12-.09c1.24-.07,1.61.78,1.86,1.75.3,11.1.05,22.19.13,33.29,0,5.25,0,10.5,0,15.75,0,1.81.09,3.64-1,5.24h0l-1,0c-.28-.22-.39-.44-.33-.69S94.13,173.93,94.21,173.93Z"/><path class="cls-195" d="M94.21,173.93c0,.35.07.71.11,1.07-.17,1.17.25,2.51-.91,3.7-1.82-1.17-.67-4.07-3-4.64l0-1.05Z"/><path class="cls-24" d="M95.28,175q0-10.51,0-21c1.1-.57,1.4.45,1.93,1q0,9.57,0,19.13Z"/><path class="cls-196" d="M110.24,174.94c-1.26.06-2.57.27-3.44-1.39,1.84-1.08,2.74-.15,3.42,1.4Z"/><path class="cls-197" d="M103.23,93l4.56,2.41c-3.44-.05-4.89.88-4.54,3.41.31,2.28-.8,3.32-3.06,3.21-3.48,2.39-7.64.77-11.33,1.93-6.1-.36-7.71-1.71-8-6.62a14.41,14.41,0,0,1,5.67-7.16l.66-.26c2.33-2.12,4.27-4.06,8.14-4.26,4.07-.22,5.56,1.34,6.88,4.33.89.33,1.46.84,1.06,1.9l-.08,1.1a2.05,2.05,0,0,1-2-.19,8.29,8.29,0,0,1-1.14-.83c-3.26-3.36-6.62-1.24-9.48.36-1.75,1-2.46,3.81-2,5.83.44,1.79,2.61.59,4,.74a14.71,14.71,0,0,1,1.49.1c3.74.86,6.94.83,7.52-4.13C101.74,94.08,102.56,93.53,103.23,93Z"/><path class="cls-198" d="M92.26,71c0,1.33-1,2.66,0,4a24,24,0,0,0-10,6c-.1.2-.19.4-.28.6-1.27,1.23-2.06,3-3.75,3.76a2.32,2.32,0,0,1-1.35-.22c-1.69-1.82-4.71-2.42-5-5.5.55-1.37,1.7-1.51,3-1.47,1.93.56,3-.86,4.4-1.76C82.93,73.94,86.46,71,91.28,71Z"/><path class="cls-199" d="M97.25,82c-1.3-1.24-1.42-2.76-.24-3.93s2.88-.16,4,.51A31.41,31.41,0,0,1,105.27,82a5.14,5.14,0,0,1,4,4.47c.22,1.44,1.17,2.92-.51,4.06a5.27,5.27,0,0,1-4.33.51c-1.84-.48-1.75-2.17-1.54-3.71a2.53,2.53,0,0,0-.66-2.29l-1-1C100.28,82.59,98.54,82.76,97.25,82Z"/><path class="cls-200" d="M77.43,85.15a3.5,3.5,0,0,0,.85-.13c1.77-.91,2.25-3.09,4-4h0c3.95,1.72,5.06,5,5,9h0c-.69,1-1.42,2-2.86,1.19-1-.93.68-3.19-1.66-3.48a.62.62,0,0,0-.71.55c0,1.56,1.76,1.75,2.34,2.89-2.65,3.36-2.82,3.36-7.22.08-1.77-1.52-.78-3.32-.51-5A1.82,1.82,0,0,1,77.43,85.15Z"/><path class="cls-201" d="M102.23,85c1.28.47,1.62,1.21,1.3,2.64-.63,2.75.93,2.8,3.13,2.46,2.41-.38,1.92-1.05,1.56-3.12a7.43,7.43,0,0,0-3-5l2.06,0c2.39,1.44,2.89,4.37,4.88,6.13-1.72,4.17-4.82,5.14-8.9,3.85L102.25,90C102.24,88.34,102.24,86.68,102.23,85Z"/><path class="cls-202" d="M101.27,77c.12-.77.22-1.85,1.22-1.58a3.43,3.43,0,0,1,2,1.74c.32.7-.66.77-1.24.86Z"/><path class="cls-201" d="M97.25,82c1.55.22,3.71-.76,4,2A5.68,5.68,0,0,1,97.25,82Z"/><path class="cls-203" d="M86.26,21c-13.18,1.43-25,6.46-35.6,14.19a69.7,69.7,0,0,0-15.21,15c-.65.88-1.29,2.5-2.93,1.72-.3-.14-.16-1.23-.23-1.88,14.37-18.16,32.59-29.58,56-32l3,2C89.56,20.23,87.66,19.34,86.26,21Z"/><path class="cls-204" d="M91.28,71c-4.56,2.72-10,4-13.53,8.42-.73.91-1.78.5-2.49-.41a1.09,1.09,0,0,1-.1-1.37,18.25,18.25,0,0,1,7.66-5.42c5.59-2,7-5.91,6.13-11.23,0-.79,0-1.57,0-2.35-.1-1.11,0-2.21,0-3.32.11-3.16-.8-6.48,1.39-9.32V36c0-1.67,0-3.34,0-5V28c0-.66,0-1.33,0-2,.33,0,.65,0,1,0Q91.26,48.49,91.28,71Z"/><path class="cls-59" d="M133.08,162.8c-.65,3.45-4,2-5.85,3.15C128.54,163.72,131,163.57,133.08,162.8Z"/><path class="cls-166" d="M98.28,163v-6c1-6.39,1.09-6.14,7.75-7.45,13.64-2.67,24.3-10.27,33.07-20.79,1.2-1.44.53-3.22,1.16-4.74,2.86.39,4.93,2.19,7,4,3,2.06,1.17,4.2-.2,5.91-6.63,8.29-14.53,15-24.37,19.31-6.1,2.68-12.25,5.16-18.88,6.17-2.26.34-3.23,2.16-4.54,3.61h0C98.94,163.43,98.61,163.41,98.28,163Z"/><path class="cls-205" d="M99.27,163c-.35-2.74.65-4.48,3.54-4.93,16.46-2.6,30.33-10,41.33-22.54,1.8-2.05,4.92-3.86,3.12-7.53,2.12.24,3.51,1.71,5,3-.26,6.23-5.31,9.63-9,13.17-9.69,9.2-21.11,15.73-34.56,18.26C105.5,163,102.39,162.75,99.27,163Z"/><path class="cls-206" d="M140.26,124c1.26,1.77,2.54,3.28.15,5.43-6.24,5.63-11.29,12.64-19.34,16.1-5.76,2.47-11.39,5.62-17.85,5.37-4.87-.19-3.14,4.21-4.94,6.08V141a1,1,0,0,1,1.29,0c1.14,3.35,3.25,3.61,6.58,3,11.8-2.33,20.76-8.92,28.38-17.78,1.07-1.25,2-2.68,3.69-3.13A2,2,0,0,1,140.26,124Z"/><path class="cls-207" d="M138.22,123.06a51.35,51.35,0,0,1-33.59,22.68c-4.23.88-6-.47-5.37-4.76a4.63,4.63,0,0,1,3.78-2.07c11.7-1.46,20.68-7.46,27.87-16.52a8.41,8.41,0,0,1,2.93-2.63,1.24,1.24,0,0,1,1.38.28A7.4,7.4,0,0,0,138.22,123.06Z"/><path class="cls-208" d="M135.22,120h-.5l-.5,0c-4.19.48-6.62-3.18-10.13-4.31a114.4,114.4,0,0,1-12-6.93,6.57,6.57,0,0,1-1.75-2.16c0-.23-.1-.45-.14-.68.72-5.28,3.45-.26,5.06-1,5.77.41,9.91,4,14.27,7.22,2.27,2.24,5.85,3.17,6.81,6.73Z"/><path class="cls-195" d="M136.35,118.94,129.17,113c.09-2.08,1.52-2,2.77-1.44a20.85,20.85,0,0,1,4.32,2.42,5.7,5.7,0,0,0,4,2c.76,1.75,2.5,2.19,4,2.93,1.87,1.26,3.59,2.82,6,3.12l2,2c-.31,2.38-1.7,1.42-2.93.95Z"/><path class="cls-209" d="M149.29,125c1.07,0,2.23.21,2.93-.95l4,1a6.22,6.22,0,0,0,5,2c-1.2,1.46-2.56.89-4,.42-1.95-.63-1.17.64-.95,1.49A19.68,19.68,0,0,1,149.29,125Z"/><path class="cls-210" d="M52.3,73l5,2.05a1.4,1.4,0,0,1,.08,1.36c-2.42,2.84-4.2,6-4.18,9.65.13-.19.05-.66.18-1.06.59-1.81.68-4.68,3.24-4.14s1.52,3.2,1.26,5.09c-.17,1.15-.55,2.26-.78,3.4-1.49,7.36-1.2,14.11,6.34,18.35-1.78,2.38-4,3.84-7.11,3.32-4.25.84-9.32-3.35-10.11-7.39a46.3,46.3,0,0,1,2.21-25.36C49.14,76.18,49.4,73.52,52.3,73Z"/><path class="cls-211" d="M41.22,120.88q4-2.49,8-5c.93-.47,2.07-.82,2.75,0,1.08,1.31-.11,2.44-.75,3.55-1.87,2.79-5.21,2.38-7.81,3.59l-.22-.1c-1,.71-2.16.89-2.9-.14C39.81,122.11,40.63,121.4,41.22,120.88Z"/><path class="cls-212" d="M56.28,111l6.94-3,.31.53a5,5,0,0,0,1.06,2.78,1.79,1.79,0,0,1-.39,1.22,35.39,35.39,0,0,1-8.61,3.85A3.79,3.79,0,0,1,53.25,114Z"/><path class="cls-213" d="M53.25,114a1.83,1.83,0,0,1,2,2c.28,2.22-1.61,2.61-2.92,3.49a2,2,0,0,1-2-.41c.54-1.37,2.9-3.37-1.1-3.16A5.85,5.85,0,0,1,53.25,114Z"/><path class="cls-214" d="M41.22,120.88c-1,2.27.53,2.16,2,2.07-.6,1.25-1.79,1-2.84,1.12a2.12,2.12,0,0,1-1.1-2.08c0-.31,0-.62,0-.93Z"/><path class="cls-215" d="M32.27,81c.22-4.29,2.14-8.09,3.55-12,.74-2.06,2.08-3.26,4.42-2.92-1.55,4.64-3.81,9-5.34,13.67s-2.12,9.45-3,14.78C30.08,89.52,32.66,85.3,32.27,81Z"/><path class="cls-216" d="M57.33,76c0-.32,0-.63-.08-.95.72-1.21,1.93-1,3-1l5,2c2.63.8,5.37,1.4,7,4,1.44,2,4.67,2.22,5.18,5.17-.08.25-.17.51-.27.75a2.6,2.6,0,0,1-2.74.79C68.59,83.34,62,81.22,57.33,76Z"/><path class="cls-217" d="M90.26,46V56a5.61,5.61,0,0,1-2.45,1.62C78.55,59.79,71.08,65,64.37,71.46A2.3,2.3,0,0,1,62.26,71h0c-2.2-1.56-3.74-4.29-7-4,2.24-6.39,7.64-9.83,12.85-13.23C74.81,49.37,82,46.12,90.26,46Z"/><path class="cls-160" d="M62.26,71l2,0c4.47,1.08,8.4,3,11,7v1c-1.1,0-2.28-.18-3,1a21.45,21.45,0,0,1-7-4c.59-.2,2,0,.6-1.19A12.54,12.54,0,0,1,62.26,71Z"/><path class="cls-218" d="M179.27,106c0,.31,0,.62,0,.94a2.17,2.17,0,0,0-2.17,1.07c-2.6-1.17-1.62,1-1.92,2-.69.1-1.13-2.28-1.88-.36s-.55,3.89-2.22,5.27a45.38,45.38,0,0,1,2.12-12c2.13-.77-.16-4.91,2.53-4.29s-.05,3.37.49,5.15c.24.79.28,1.6,1,2.11Z"/><path class="cls-78" d="M173.2,83.07q-1.47-7-3-14.08C173.53,73.2,173.34,78.14,173.2,83.07Z"/><path class="cls-76" d="M177.23,84c2.63,3-.22,6,0,9C174.79,90,178.41,87,177.23,84Z"/><path class="cls-109" d="M167.26,70c6.47,14.9,4.44,29.92.46,44.92-.47,1.79-.06,4.17-2.46,5.07,1.1-7,3.1-13.72,3.14-21a81.39,81.39,0,0,0-6.21-32.19c-.42-1-1.32-2-.26-3.38C165,64.58,162.89,70.07,167.26,70Z"/><path class="cls-172" d="M136.26,114c-2.46.37-4.32-3.55-7.09-1-4.56-2.8-8.92-6-13.9-8l1-.2c-3.51-3.46.44-6.89.07-10.36a60.3,60.3,0,0,1,0-6.45c2,2.52,1.52,5.74.83,8.12-1.75,6,2,7.38,6.16,8.89,3.65,3.79,8.77,5.19,13,8Z"/><path class="cls-219" d="M105.28,113c-2.79-.73-5,3.13-8,1a2,2,0,0,1-.62-1.13,6.53,6.53,0,0,1,.1-1.32c-.33-3.31.57-5,4.38-3.85,2.4.73,4.45-.32,5.89-2.41.54-.74,1-1.6,2.16-1.37a2.37,2.37,0,0,0,1,2.1h.07c1.81,3-.58,4.55-2.26,6.33C107.2,112.89,106.37,113.48,105.28,113Z"/><path class="cls-220" d="M88.23,103c3.87-1.84,8-.67,12-.93q.07.45.12.9c-.28,1.26.65,2.38.4,3.65a1.44,1.44,0,0,1-1,.86c-2.29-.36-4.13,1.31-6.33,1.38-3-.11-4.76-1.7-5.68-4.43A2,2,0,0,1,88.23,103Z"/><path class="cls-221" d="M100.26,107c0-.34,0-.67,0-1a3.18,3.18,0,0,1,2-2c2,.17,3-.65,3.16-2.73a3.28,3.28,0,0,1,2-3.1c1-.31,2.13-1.26,3.15-.09.85,1,.18,1.83-.45,2.59a5,5,0,0,0-.92,3.22c-.32.68-.65,1.36-1,2C105.71,107.34,103.29,109.5,100.26,107Z"/><path class="cls-222" d="M112.64,97.9c.33-2.48-2-5.21,1-8.25C114.46,93.14,114.78,95.66,112.64,97.9Z"/><path class="cls-223" d="M102.24,104a3.38,3.38,0,0,1-2,2c-.86-1-2.5-2,0-3Z"/><path class="cls-224" d="M90.26,146v6c-4.52,2.59-9.13,1.46-13.46-.2-5.88-2.26-11.86-4.52-16.8-8.65-2-1.67-4.67-1.71-6.73-3.15-2.57-2.74-5.15-5.47-7.7-8.22a8.08,8.08,0,0,1-2.3-4.77c.89-1.58,2-2.86,4-3l.67.32C57,130.35,65.14,138,75.62,141.84,80.37,143.59,85.74,143.28,90.26,146Z"/><path class="cls-225" d="M50.35,119.06l1.84-.16c1,.09,1.93.3,2.32,1.4-1.78,2.47-4,4-7.24,3.74l0-.11c-1-1.38-2.48-.84-3.8-.88Z"/><path class="cls-226" d="M53.27,140c3.72-.53,6.25,1.45,9.3,3.35,8.38,5.2,17.17,9.93,27.69,8.65v6c-11.63,0-21.53-4.87-31-11C59.11,143.06,54.34,143.1,53.27,140Z"/><path class="cls-167" d="M87.25,115c2.08,1.15,3.38,2.54,3.1,5.29a95.43,95.43,0,0,0-.09,9.72c-8.53,3.24-23.88-3-27.34-11.17a5.23,5.23,0,0,1-.38-3.39c.52-1.63,1.85-2.48,3.2-3.29,3.82-.94,6.31-4.7,10.47-4.93C80,109.57,84.21,111.47,87.25,115Z"/><path class="cls-227" d="M47.27,124l7-4.08a2,2,0,0,1,2.13-.3c3.37,3.17,6.38,6.69,10,9.64,6.12,5,13.4,7.14,20.71,9.34,1.11.34,2.28.45,3.15,1.33v6c-10.44-1.36-20.7-3.09-28.84-10.76-2.48-2.33-5.12-4.47-8.69-5.36A7.5,7.5,0,0,1,47.27,124Z"/><path class="cls-228" d="M90.26,140c-14.23-1.79-26.14-7.52-34-20.07.91-3.71,3.39-5.12,7-4.8,1.33,7.3,8.63,12.89,16.41,13.11,3.53.1,6.88,2.12,10.57,1.77Z"/><path class="cls-229" d="M87.25,115a37.14,37.14,0,0,1-11-7c-.45-2.45,1.27-3.4,3-4.34,3.24.16,4.4,3.55,7.1,4.55,2.19.74,4.51.5,6.73.89,1.82.33,3.47.93,4.14,2.9l-.06,1.11a2.24,2.24,0,0,1-3-.11C92.24,114.89,89.84,115.25,87.25,115Z"/><path class="cls-230" d="M94.15,119l.06,2a22.17,22.17,0,0,0,0,13.9v16.14c-2.81.49-1.71,2.74-1.91,4.35-.54,4.17,1.11,8.51-1,12.55.45-8.92.09-17.85.54-26.8.31-6.11-.4-12.52-.48-18.79C91.3,120.76,90.33,117.65,94.15,119Z"/><path class="cls-231" d="M94.19,113l3,.11a4.41,4.41,0,0,0,.09.89c0,2.34,0,4.67,0,7-1.14.64-1.43-.47-2-1l-1-1C94.24,117,94.22,115,94.19,113Z"/><path class="cls-205" d="M98.28,163h1c-.24,3.16.64,4.77,4.22,3.48,1.46-.52,3.16-.38,5.61-.64-2.91,2.07-5.83,1.41-7.83,3.16C98.07,168.06,98.06,165.58,98.28,163Z"/><path class="cls-232" d="M124.26,115c3.84.69,6.45,3.77,10,5.1a48.24,48.24,0,0,1-21.48,17.8c-4.39,1.92-9.08,1.71-13.48,3.11h-1V130C109.06,128.64,117.84,123.84,124.26,115Z"/><path class="cls-233" d="M124.26,115c-2,7.34-8.17,10.43-14.3,13.06-3.56,1.53-7.31,4.34-11.68,1.95v-6c1.34-2.54-.34-5.45,1-8,2.14-.72,4.72-.58,6-3l2-1c2-.89,3-3.13,5-4Z"/><path class="cls-234" d="M95.24,120l2,1q0,17,0,34l-1.93-1Z"/><path class="cls-232" d="M99.27,116c-.44,2.65,1,5.53-1,8C98.7,121.32,97.27,118.45,99.27,116Z"/><path class="cls-235" d="M94.18,134.91c-2.21-.25-1.9-1.94-1.92-3.4,0-3,0-6,0-9,0-1.52.33-2.28,2-1.52Z"/><path class="cls-236" d="M101.25,92l2,1h0c.14,2-2,3.46-1.32,5.66.14.44-.36,1.2-.75,1.66s-13.25.15-13.79-.43-1-1.41-.91-1.54c2.19-2.35.48-7.26,4.52-8,3.4-.63,7.78-4.44,10.27,1.62-2.14,1.91-5.8,1.68-7.07,4.92C98.08,97.71,98.08,97.71,101.25,92Z"/><path class="cls-237" d="M88.23,103l0,1a2.29,2.29,0,0,1-2.12,1.57A6,6,0,0,1,83,104.17c-2.23-1.68-4.29-3.6-7.45-1.77-.89.51-1.83-.37-2.36-1.32-1.41-5.12-3-10.25,1-15l2.93-.18c1.79,1.34-.9,2.77.09,4.13,2.44,1.76,1.24,6.12,5,6.94C80.59,102.62,85.09,102.12,88.23,103Z"/><path class="cls-32" d="M82.24,97c-1.89,0-6,3-3.77-2.84.41-1.06-.77-2.72-1.22-4.1,2.22,1.11,4.08,4.84,7,1l0,0,3-1C86.3,92.82,82.93,94,82.24,97Z"/><path class="cls-32" d="M82.26,81c-1,1.63-1.32,4-4,4C79.23,83.31,79.56,81,82.26,81Z"/><path class="cls-238" d="M84.23,91c-2.08-.07-4.42-.46-4.5-2.81-.07-1.92,2.3-2.39,3.83-2.1,4.45.85,1.65,3.07.71,4.89Z"/><path class="cls-239" d="M75.26,78l-11-7c6.37-9,15.7-12.86,26-15v3c-4.53,2.28-9.92,2.64-13.26,5.74,3.79-1.68,7.74-5.27,13.26-3.74,1,5.77,0,10.36-6.61,12.16C80.51,74,78.5,77.12,75.26,78Z"/><path class="cls-217" d="M90.26,61c-5.77,1.22-11.38,2.85-16.4,6.15,4.48-4.72,9.49-8.32,16.4-8.15Z"/><path class="cls-193" d="M112.26,108c-1.25,1.87-2.46,3.79-5,4,1-2,3.59-3.2,3-6Z"/><path class="cls-173" d="M74.23,86.08c-1.75,5.3-1,10.59,0,15.88-3.08,3-6.1,6.16-10.92,6l-.08,0c-9.63-3.79-8.25-6.16-7.57-18.5.14-2.62,2.24-5.05.89-8.32-2.84,2.69-1.56,7-4.62,9.34C50.87,83.74,53,78.15,57.33,76,63,79.26,69,82,74.23,86.08Z"/><path class="cls-240" d="M63.3,108l10.92-6c5.4-4.57,8.26,1,12,3,1.64,1,4.11,1.51,2.73,4.39-1.25,0-2.55.47-3.71-.39l-6-5c-5,2.21-9.28,6.16-15,7C60.23,111.18,62.69,109.28,63.3,108Z"/><path class="cls-241" d="M64.27,111c4.81-2.72,9.18-6.38,15-7l-3,4c-3.83.68-6,4.74-10.07,5-.56-.52-1.56-.14-2-1Q64.27,111.47,64.27,111Z"/><path class="cls-242" d="M64.24,112a2.14,2.14,0,0,1,2,1l-2.93,2.18c-2.58,1.25-5.21,2.44-7,4.8l-2,.06a2.18,2.18,0,0,1-2.07-1.06L55.27,116A21.59,21.59,0,0,1,64.24,112Z"/><path class="cls-243" d="M85.27,109l4,0c1.09-1.43,2.89.24,4-.94,2.17-1.41,4.62-.9,7-1,2.85,1.11,5.32-.67,8-1-1.66,2.69-4.46,4-7.11,3.06-3.05-1.12-4.06-1.72-2.4,2.06.26.59-.8.84-1.45.92C93.83,108.74,89,111.21,85.27,109Z"/><path class="cls-244" d="M93.27,108c-1.08,1.44-2.63.85-4,.94l-3-4,2-1C89.51,105.84,90.74,107.73,93.27,108Z"/><path class="cls-245" d="M101.25,92c-.43,6.51-1.16,7.31-6.57,7-.94-.06-2.26-.06-2.7-.64-.92-1.19.45-2.13,1.13-2.89,2.15-2.37,4.73-4,8.14-3.44Z"/></g></g></svg>