<svg xmlns="http://www.w3.org/2000/svg" viewBox="0 0 185.17 186.96"><defs><style>.cls-1{fill:#fdfdfd;}.cls-2{fill:#73522f;}.cls-3{fill:#624b29;}.cls-4{fill:#594225;}.cls-5{fill:#634a27;}.cls-6{fill:#5a4324;}.cls-7{fill:#5e4a25;}.cls-8{fill:#543c1f;}.cls-9{fill:#493722;}.cls-10{fill:#78692c;}.cls-11{fill:#5e4823;}.cls-12{fill:#c7bb7e;}.cls-13{fill:#6f552e;}.cls-14{fill:#6c5428;}.cls-15{fill:#563f22;}.cls-16{fill:#483826;}.cls-17{fill:#6a4e27;}.cls-18{fill:#523e24;}.cls-19{fill:#71562c;}.cls-20{fill:#382d22;}.cls-21{fill:#45341f;}.cls-22{fill:#6b5027;}.cls-23{fill:#8d7c40;}.cls-24{fill:#b89e69;}.cls-25{fill:#7d7131;}.cls-26{fill:#c7b57e;}.cls-27{fill:#a89d62;}.cls-28{fill:#836138;}.cls-29{fill:#654b2b;}.cls-30{fill:#9e7b47;}.cls-31{fill:#473d32;}.cls-32{fill:#957443;}.cls-33{fill:#7d5b35;}.cls-34{fill:#9d9259;}.cls-35{fill:#332a21;}.cls-36{fill:#3a2e22;}.cls-37{fill:#845b20;}.cls-38{fill:#4a3928;}.cls-39{fill:#ada161;}.cls-40{fill:#ceb981;}.cls-41{fill:#977646;}.cls-42{fill:#8d6b3d;}.cls-43{fill:#decf98;}.cls-44{fill:#775f36;}.cls-45{fill:#d1bc86;}.cls-46{fill:#8d6c3e;}.cls-47{fill:#9e7946;}.cls-48{fill:#b5935b;}.cls-49{fill:#88683b;}.cls-50{fill:#b08e56;}.cls-51{fill:#a3844f;}.cls-52{fill:#916e3f;}.cls-53{fill:#c1a56e;}.cls-54{fill:#846539;}.cls-55{fill:#a07c49;}.cls-56{fill:#806337;}.cls-57{fill:#bca86f;}.cls-58{fill:#4b3923;}.cls-59{fill:#8d6a3e;}.cls-60{fill:#8f693c;}.cls-61{fill:#c9b781;}.cls-62{fill:#785532;}.cls-63{fill:#947343;}.cls-64{fill:#836037;}.cls-65{fill:#936e40;}.cls-66{fill:#977342;}.cls-67{fill:#574823;}.cls-68{fill:#ab8952;}.cls-69{fill:#43341e;}.cls-70{fill:#a69c60;}.cls-71{fill:#312714;}.cls-72{fill:#7c6233;}.cls-73{fill:#be9f66;}.cls-74{fill:#654b2a;}.cls-75{fill:#392f23;}.cls-76{fill:#352b22;}.cls-77{fill:#bcb077;}.cls-78{fill:#392c18;}.cls-79{fill:#382e25;}.cls-80{fill:#4f3f1f;}.cls-81{fill:#88663a;}.cls-82{fill:#b3a365;}.cls-83{fill:#735d2d;}.cls-84{fill:#2f2821;}.cls-85{fill:#999484;}.cls-86{fill:#886b41;}.cls-87{fill:#967243;}.cls-88{fill:#bdb072;}.cls-89{fill:#4f3f25;}.cls-90{fill:#e2d49a;}.cls-91{fill:#dccb93;}.cls-92{fill:#7e5b35;}.cls-93{fill:#c0b372;}.cls-94{fill:#a59a59;}.cls-95{fill:#c4b779;}.cls-96{fill:#624825;}.cls-97{fill:#a07d48;}.cls-98{fill:#bb9c64;}.cls-99{fill:#89693d;}.cls-100{fill:#ada261;}.cls-101{fill:#493b25;}.cls-102{fill:#ceb781;}.cls-103{fill:#4e4335;}.cls-104{fill:#b4935a;}.cls-105{fill:#7a5f34;}.cls-106{fill:#baae71;}.cls-107{fill:#969182;}.cls-108{fill:#775c36;}.cls-109{fill:#87643a;}.cls-110{fill:#a29458;}.cls-111{fill:#37312b;}.cls-112{fill:#dccd97;}.cls-113{fill:#a58751;}.cls-114{fill:#c9ac75;}.cls-115{fill:#3c3933;}.cls-116{fill:#d7c590;}.cls-117{fill:#453b31;}.cls-118{fill:#2e2a27;}.cls-119{fill:#c0b576;}.cls-120{fill:#afa262;}.cls-121{fill:#805f37;}.cls-122{fill:#332e28;}.cls-123{fill:#a6854e;}.cls-124{fill:#8f773d;}.cls-125{fill:#dbc993;}.cls-126{fill:#bb9d65;}.cls-127{fill:#d6c189;}.cls-128{fill:#be9e65;}.cls-129{fill:#9b7846;}.cls-130{fill:#bb9b62;}.cls-131{fill:#bea772;}.cls-132{fill:#3f3c36;}.cls-133{fill:#6b4d2c;}.cls-134{fill:#cabd81;}.cls-135{fill:#997644;}.cls-136{fill:#997745;}.cls-137{fill:#7a5632;}.cls-138{fill:#785a31;}.cls-139{fill:#ada061;}.cls-140{fill:#7e5e35;}.cls-141{fill:#c2b777;}.cls-142{fill:#3e301a;}.cls-143{fill:#4e411f;}.cls-144{fill:#8c8043;}.cls-145{fill:#c3beab;}.cls-146{fill:#a29d8f;}.cls-147{fill:#d0cab7;}.cls-148{fill:#745936;}.cls-149{fill:#b1ad9f;}.cls-150{fill:#7d603a;}.cls-151{fill:#c8c3b0;}.cls-152{fill:#7c603c;}.cls-153{fill:#544622;}.cls-154{fill:#d8d1bd;}.cls-155{fill:#e2dbc5;}.cls-156{fill:#8e6c3f;}.cls-157{fill:#c7ab74;}.cls-158{fill:#d6c18a;}.cls-159{fill:#947344;}.cls-160{fill:#dad2b1;}.cls-161{fill:#604829;}.cls-162{fill:#48361f;}.cls-163{fill:#7f6037;}.cls-164{fill:#554938;}.cls-165{fill:#8e8879;}.cls-166{fill:#a8a494;}.cls-167{fill:#9f9a8c;}.cls-168{fill:#d9d2bd;}.cls-169{fill:#b7b2a0;}.cls-170{fill:#c5c0ac;}.cls-171{fill:#84673b;}.cls-172{fill:#dfd59d;}.cls-173{fill:#d2bd85;}.cls-174{fill:#937040;}.cls-175{fill:#8a6c3e;}.cls-176{fill:#e0d395;}.cls-177{fill:#4d3d21;}.cls-178{fill:#816138;}.cls-179{fill:#6f5b38;}.cls-180{fill:#7e7235;}.cls-181{fill:#352b14;}.cls-182{fill:#b8aa75;}.cls-183{fill:#9e9a8e;}.cls-184{fill:#54514a;}.cls-185{fill:#4e4c45;}.cls-186{fill:#413f3a;}.cls-187{fill:#48453e;}.cls-188{fill:#474641;}.cls-189{fill:#4c4a45;}.cls-190{fill:#6c512f;}.cls-191{fill:#987644;}.cls-192{fill:#463620;}.cls-193{fill:#544530;}.cls-194{fill:#a7854e;}.cls-195{fill:#8f743f;}.cls-196{fill:#2a2624;}.cls-197{fill:#bfa168;}.cls-198{fill:#43413c;}.cls-199{fill:#372a18;}.cls-200{fill:#3b3832;}.cls-201{fill:#403e38;}.cls-202{fill:#4c483f;}.cls-203{fill:#4d4b44;}.cls-204{fill:#a3804a;}.cls-205{fill:#5b462a;}.cls-206{fill:#b9b4a2;}.cls-207{fill:#c9c4b4;}.cls-208{fill:#aaa596;}.cls-209{fill:#eae2c8;}.cls-210{fill:#493820;}.cls-211{fill:#2f2415;}.cls-212{fill:#887e69;}.cls-213{fill:#aa864c;}.cls-214{fill:#b09157;}.cls-215{fill:#624e33;}.cls-216{fill:#654d2d;}.cls-217{fill:#61492a;}.cls-218{fill:#58472f;}.cls-219{fill:#7c613e;}.cls-220{fill:#ece5cb;}.cls-221{fill:#9b7744;}.cls-222{fill:#beb9aa;}.cls-223{fill:#8f734e;}.cls-224{fill:#694f2d;}.cls-225{fill:#dfd9c4;}.cls-226{fill:#3c3832;}.cls-227{fill:#35302a;}.cls-228{fill:#775a36;}.cls-229{fill:#3c2e1b;}.cls-230{fill:#916e40;}.cls-231{fill:#2b2113;}.cls-232{fill:#525048;}.cls-233{fill:#494640;}.cls-234{fill:#4e4b44;}.cls-235{fill:#aea998;}.cls-236{fill:#b4b0a5;}.cls-237{fill:#aeaca3;}.cls-238{fill:#cac5b7;}.cls-239{fill:#ccc9bd;}.cls-240{fill:#cdc8b4;}.cls-241{fill:#d2cdba;}.cls-242{fill:#beb9a8;}.cls-243{fill:#45433d;}.cls-244{fill:#3f3d37;}.cls-245{fill:#4b4841;}.cls-246{fill:#4f4d44;}.cls-247{fill:#7a5b35;}.cls-248{fill:#5e4f3a;}.cls-249{fill:#5a574f;}.cls-250{fill:#5e5c54;}.cls-251{fill:#545249;}.cls-252{fill:#342818;}.cls-253{fill:#58452b;}.cls-254{fill:#59564d;}.cls-255{fill:#7b613e;}.cls-256{fill:#535149;}.cls-257{fill:#58554d;}.cls-258{fill:#5d5a51;}.cls-259{fill:#44423c;}.cls-260{fill:#281d10;}.cls-261{fill:#795b35;}.cls-262{fill:#57554c;}.cls-263{fill:#5c5951;}.cls-264{fill:#a17e48;}.cls-265{fill:#c5a862;}.cls-266{fill:#bfb28d;}.cls-267{fill:#e7e1c9;}.cls-268{fill:#c4a863;}.cls-269{fill:#bda46d;}.cls-270{fill:#4c4b46;}.cls-271{fill:#504f49;}.cls-272{fill:#54524c;}.cls-273{fill:#5e5b52;}.cls-274{fill:#5c4d37;}.cls-275{fill:#8a6b3e;}.cls-276{fill:#564125;}.cls-277{fill:#a4824b;}.cls-278{fill:#d2c6a3;}.cls-279{fill:#e4ddc7;}</style></defs><g id="Layer_2" data-name="Layer 2"><g id="Layer_3_Image" data-name="Layer 3 Image"><path class="cls-1" d="M80,1.87c.33-.62.66-1.25,1-1.87h23l1,1.91c-1.57,1.82-3.74,1.2-5.71,1.43-.72.05-1.44.15-2.17.2a10.35,10.35,0,0,1-3.42-.76c-3-1.09-5.8,1.45-8.81.57C83.2,3.18,81.32,3.51,80,1.87Z"/><path class="cls-2" d="M182.86,100.93l.39,1.08a4.26,4.26,0,0,1,.21,1.5c-.24,2.28.08,4.61-.56,6.85-1.07,1.44.72,3.8-1.57,4.83-1.84-1.1-1.46-3.09-1.89-4.75a22.11,22.11,0,0,1,.41-4.44c.06-.58.41-1.1.36-1.68a4.16,4.16,0,0,1-3.43,2.43,2.43,2.43,0,0,1-2.06-1c.48-4.13-1.45-8.21-.28-12.36,1.62-1.79,2.08.84,3.62.8.41-2.6.15-5.36.5-8.07a3.88,3.88,0,0,0-2.87-4.57c-2.14-.76-3.25-2.31-1.66-4.6.12-.35,1.3.38.78-.75a1.07,1.07,0,0,1,.95-.6c-.15-.2-.38-.15-.74,0a2.39,2.39,0,0,1-2.16-.35c-1.48-2.62-1.29-6.56-5.53-7-1.79-2.07-2.46-4.94-4.77-6.64-.64-2.33.47-3.32,2.66-3.48,1.95.26,3.89-.3,5.84-.17,5.33,2.3,5.63,7.18,6.15,12,0,.07.12.19.15.18a4.11,4.11,0,0,0,.91-.41,1.54,1.54,0,0,1,1.19.45,10.57,10.57,0,0,1,1,5.17c.54-.65-.34-2,.2-3.1a.87.87,0,0,1,1.2-.13l.24.94c.93,3.64,2.71,7.15,1.66,11.08l.09,2.94c-1.77.13-1.14-1.89-2.17-2.44a14.34,14.34,0,0,1-.17-3.52c.06,1.16-.4,3.18,1,4.94C183.46,91,182.92,96,182.86,100.93Z"/><path class="cls-3" d="M45.16,14.25a1,1,0,0,0,.88-.38C47.11,11.92,49.31,11.94,51,11l.12,0a15.37,15.37,0,0,1,6-3c1.15-1.95,4.13.83,5-1.92,1.08-1.39,2.74-.51,4-1h0C67.7,3.61,70,5,71.66,3.67A2.22,2.22,0,0,1,73.29,5C73,7.27,70.8,6.94,69.54,7.89A21,21,0,0,1,65.08,10c-1.79.42-3.56.94-5.35,1.35C54.89,13.5,49.59,14.87,46,19.23A34,34,0,0,1,41.35,22c-3.94,3.2-8.47,5.73-11.49,10-2.71,3.57-6.1,6.53-9,10-1.35,1.63-3.54,3.39-4.48-.63a6.07,6.07,0,0,1,2.78-4.14h0C23.14,30.52,28.79,25.56,34.85,21c.38-1.05,1.38-.95,2.19-1.2C39.42,17.48,41.84,15.2,45.16,14.25Z"/><path class="cls-4" d="M121.92,6.2c.39.94,1.21,1,2,1,4.27.24,7.7,2.43,11,4.8l.05,0a31,31,0,0,1,12.86,8.09h0c4.37,2.57,8.35,5.57,11,10l.94,1c2.67,1.19,3.77,3.7,5.07,6A9.87,9.87,0,0,1,167.1,42a1.84,1.84,0,0,1-1.22.51c-2.13-.61-2.91-2.75-4.5-4-2.82-2.79-5.16-6-8.14-8.68-1.58-2.09-4-3.26-5.73-5.18a12.65,12.65,0,0,0-3.28-2.1c-5.22-4.24-11.2-7.14-17.31-9.81a61.77,61.77,0,0,0-11.85-4.53c-.47-.12-.92-.28-1.38-.44-1.36-.81-3.63-.39-3.84-2.79a3.94,3.94,0,0,1,2.66-1.32C115.59,4.72,119.25,3.64,121.92,6.2Z"/><path class="cls-5" d="M131,176.93l-5,2.17a1.27,1.27,0,0,1-1.26.14,2.16,2.16,0,0,1-1-1.66c.32-1.24,1.35-1.78,2.33-2.37,2-1.09,4.29-1.51,6.21-2.79.53-.38,1.09-.74,1.65-1.08a29.6,29.6,0,0,0,3.94-2.27c2.44-1.59,5.1-2.83,7.32-4.74,1.11-1.09,2-2.46,3.3-3.31a32.83,32.83,0,0,0,6.78-5.42c1.38-1.28,2.23-3,3.75-4.22a10.09,10.09,0,0,0,1.61-1.78c.63-.82,1.34-1.57,2-2.34,1.21-1.22,1.89-3,3.59-3.71a1.72,1.72,0,0,1,1.84.46c-.34,1-.69,2-1,3-.51,1.09-.65,2.44-2.06,2.89h0c-1.58,2.68-2.93,5.57-6,7h0c-.68,1.31-1.35,2.63-3,3h0c-4.86,5.36-10.18,10.12-17,12.87-.8.09-1.66.07-2,1.08C135.47,175.82,133.26,176.41,131,176.93Z"/><path class="cls-6" d="M47,174.06,43.81,172A17.27,17.27,0,0,1,37,167.14l-1.85-1.26C30.73,163.07,26.55,160,24,155.16l-.13-.18a10.62,10.62,0,0,1-4.62-5.19v0a7,7,0,0,1-3.36-6.15c1.5-1.77,3.19-2.11,5.13-.71.65,1.11-.42,2.56.7,3.59.4.51.78,1,1.15,1.56,2.08,3.25,5.25,5.5,7.65,8.45a35.13,35.13,0,0,0,6.32,5.61,115.28,115.28,0,0,0,10.48,7.22c2.11,2,5.47,2.37,7,5.14a2.51,2.51,0,0,1-1.27,2.34,1.88,1.88,0,0,1-2.26-.85C49.72,175,48,175.27,47,174.06Z"/><path class="cls-7" d="M171,59c-1.68-.68-3.4,1.84-5.06-.08-.34-1.57,1.27-2.13,1.71-3.3a12.72,12.72,0,0,1,.58-1.17,4.79,4.79,0,0,1,.8-1c1.25-.88,2.08-2.32,3.64-2.81a1,1,0,0,1,1,.65l0,0c2,1.56,3.39,3.47,3.11,6.2.29.9-.2,2.13,1.06,2.65a7.15,7.15,0,0,1,2.23,5.9l.06,1c.57,1,1.53,1.91.8,3.24a1.56,1.56,0,0,1-2-.24l-1,0c-2-3-2-6.76-3.78-9.87C173.33,58.51,172.69,57.67,171,59Z"/><path class="cls-8" d="M2.89,71c0-.34.09-.67.14-1a4.34,4.34,0,0,1,.84-3,5.1,5.1,0,0,0,1.2-4,14,14,0,0,1,2.8-7L9,54c.48-.9,1.09-1.49,2.2-1a3.08,3.08,0,0,1,.59,1.22c.07,2.34-1,4.37-1.78,6.48-.17.41-.38.8-.58,1.2a25.76,25.76,0,0,0-2.17,7.6,20.46,20.46,0,0,1-.48,2.78c-.84,2.23-.26,5.19-3.26,6.3l-.77,0a1.73,1.73,0,0,1-1.22-.85A4.68,4.68,0,0,1,2,74v0C2.73,73.09,1.93,71.79,2.89,71Z"/><path class="cls-9" d="M1.19,104.69c-2.18-4.54-.62-9.37-1-14-.18-2.13,0-4.29,0-6.43a2.07,2.07,0,0,1,2.09-.88,2.17,2.17,0,0,1,1.3.85c.38,6.37.38,12.74.34,19.12a3.2,3.2,0,0,1-1.43,1.82A.85.85,0,0,1,1.19,104.69Z"/><path class="cls-10" d="M80.05,185l-1.85-.13a.78.78,0,0,1-.33-.79c.07-.29.15-.43.23-.43,1.8-1.33,4.05-.64,6-1.34.74-.35,1.4-.77,1.44-1.72,0-2.25-1.87-5.06,1.84-6.2,3.55.51,1.21,4.91,3.94,6,1.71.33,3.17-1.18,4.9-.66a2.26,2.26,0,0,1,1.17,1.55c-1.19,3-4.25,3.6-6.57,5.17C87.29,185.38,83.48,186.68,80.05,185Z"/><path class="cls-11" d="M92.08,185.83c-1-1.61-.38-2.56,1.32-2.76s2.94-.53,3.7-2.06a5.1,5.1,0,0,1,1.46-2.91,1.38,1.38,0,0,1,1.26-.3,2.85,2.85,0,0,1,1.06,3.08,5,5,0,0,1-.56,1.31c.28.11.38-.16.55-.27a5.47,5.47,0,0,1,4.16-.67c1.37.4,2.83.53,4,1.45a.71.71,0,0,1-.25,1.14L105,185A28.67,28.67,0,0,1,92.08,185.83Z"/><path class="cls-12" d="M166.06,42.19l1-.22a5.13,5.13,0,0,1,1,0,2.42,2.42,0,0,1,1.34,3.2,4.34,4.34,0,0,1-3.16,1.91c-2.5.08-4.76.47-6.27,2.91a4.78,4.78,0,0,1-4,2.5c-3.39-1.89-.24-3.8,0-5.71a10.52,10.52,0,0,1,2.8-3.58C161,41.31,163.56,42,166.06,42.19Z"/><path class="cls-1" d="M16.06,144l3.19,5.78a26.3,26.3,0,0,1-10-12.22c-.62-1.5-2.78-3.58-.87-5.77a1.52,1.52,0,0,1,1.21.19,30.37,30.37,0,0,1,2.62,2.82c1.22,2.12,1.58,4.65,3.17,6.6A4.55,4.55,0,0,1,16.06,144Z"/><path class="cls-1" d="M92.08,185.83c4.3-.47,8.58-1.41,13-.88a4.79,4.79,0,0,1-3.82,2q-8.64.12-17.28,0A5.09,5.09,0,0,1,80.05,185C84.09,184.9,88.13,184.69,92.08,185.83Z"/><path class="cls-1" d="M138.94,172.78l17-12.87c-1,5.66-6.72,6.64-10.06,10C144.2,171.56,142.33,174.45,138.94,172.78Z"/><path class="cls-13" d="M9.06,132a3.79,3.79,0,0,0-.65-.21A.86.86,0,0,0,8,131a26.68,26.68,0,0,1-3.82-10.34A.49.49,0,0,0,4,120a2.82,2.82,0,0,1-.42-2.75c.39-.87.55-1.88,1.44-2.47a1.6,1.6,0,0,1,1.34.25c1.29,2,1.36,4.41,2.39,6.49.79,2.09,1.81,4.11,2,6.38a5.29,5.29,0,0,1-.17,1.31A5.35,5.35,0,0,1,9.06,132Z"/><path class="cls-1" d="M34.85,21,19.19,37.13C22.06,29.47,27.86,24.65,34.85,21Z"/><path class="cls-14" d="M172.83,139.88l-1.92,1a.76.76,0,0,1-1.17,0,2.79,2.79,0,0,1-.29-2,17.7,17.7,0,0,0,1.51-5.19,9,9,0,0,1,1.31-3.27c1.38-1.56,1.2-4.38,3.9-4.89a1.85,1.85,0,0,1,1.48,1.51c-.74,3.16-1,6.55-3.83,8.79h0C173.42,137.18,174.57,138.88,172.83,139.88Z"/><path class="cls-15" d="M53.09,176.82a1.88,1.88,0,0,1,1-1.91,22.75,22.75,0,0,1,14.09,4.89c.18,1.43-.77,1.79-1.9,2a5.65,5.65,0,0,1-2.27-.68c-1.06-.4-2.47.23-3.21-1.11-.84-.58-2.05,0-2.81-.85l-1-.27c-1.69.21-2.65-1.31-4.07-1.74Z"/><path class="cls-1" d="M11,53,9,54c-1.31-6.28,2.39-9.88,6.94-13l.48.55C16,45.93,13.15,49.27,11,53Z"/><path class="cls-1" d="M181.12,115.24c1.2-1.44,1.1-3.14,1-4.85,1.06-2.38-.18-5,.83-7.4l.32-1c.45.46,1.13.84,1.34,1.4,1.32,3.6-1.38,13.62-4.38,16.57-1.22-.92-.68-2-.38-3.16A2.8,2.8,0,0,1,181.12,115.24Z"/><path class="cls-16" d="M182.86,100.93c-1.87-5.24-.4-10.64-.83-16l0,0,1.86,2C183.6,91.67,185.26,96.44,182.86,100.93Z"/><path class="cls-1" d="M108.79,183.84a4.28,4.28,0,0,1,.45-.81,4.09,4.09,0,0,1,2.6-1.5c4.51-.26,8.44-3.35,13.14-2.68l1,.25C121,183.41,115.1,184.33,108.79,183.84Z"/><path class="cls-1" d="M24,155.16l11.19,10.72C29.7,164.15,25.63,160.92,24,155.16Z"/><path class="cls-1" d="M147.92,20.1,135.06,12C139.63,11.85,146.12,15.93,147.92,20.1Z"/><path class="cls-17" d="M180.85,116.84c0,1.08-1.18,1.94-.64,3.14,0,.34-.05.68-.07,1,.08,2.59-.53,4.86-2.94,6.27L176,126c-1.17-1.33-.35-2.76-.19-4.15a26.75,26.75,0,0,1,1.36-4.08c.77-1.38.54-3.4,2.54-4C181.12,114.4,180.07,116,180.85,116.84Z"/><path class="cls-1" d="M177.2,127.27c2.11-1.56,1.32-4.48,2.94-6.27.21.25.64.58.58.74-1.69,5-1.91,10.73-6.9,14.11A34.69,34.69,0,0,0,177.2,127.27Z"/><path class="cls-1" d="M159,30.1l-11-10C153.15,21.73,157.35,24.49,159,30.1Z"/><path class="cls-1" d="M183.78,84.09Q183,78.56,182.12,73C184,76.5,186.92,79.84,183.78,84.09Z"/><path class="cls-1" d="M121.92,6.2,112,4.1c-1.18.16-2.76,1.41-2.91-1.11C113.45,3.72,118.54,1.57,121.92,6.2Z"/><path class="cls-18" d="M109.09,3,112,4.1l-2.11,1c-1.6,1.49-3.55,1.12-5.44,1a9,9,0,0,1-1.63-.32c-1.34-.79-3.51-.29-3.93-2.51,2.67-1.54,5.43-.86,8.18-.34Z"/><path class="cls-19" d="M80,1.87l5.88.21a1.57,1.57,0,0,1,.43,2,5.15,5.15,0,0,1-2.51,1.66,4.33,4.33,0,0,1-3.6-.33C80.29,3.08,77.75,4.23,77,3,77.64,1.65,79.06,2.38,80,1.87Z"/><path class="cls-1" d="M135,12l-11-4.8C128.86,6,132,8.76,135,12Z"/><path class="cls-1" d="M45.16,14.25,37,19.8C38.91,16.73,40.71,13.55,45.16,14.25Z"/><path class="cls-1" d="M4.18,120.64Q6.09,125.82,8,131C4.53,128.34,3.75,124.71,4.18,120.64Z"/><path class="cls-1" d="M169,45,168.06,42c3.44.51,5.29,2.34,5,6l-.59.29C170.82,47.68,168.93,47.41,169,45Z"/><path class="cls-1" d="M159,156.9l6-7C164,153.13,163.35,156.62,159,156.9Z"/><path class="cls-1" d="M37,167.14c2.34,1.51,5,2.63,6.77,4.87C40,172.62,38.43,170,37,167.14Z"/><path class="cls-20" d="M77,3c.79,1,3.86-1.54,3,2a3,3,0,0,1-1.36,1c-2,.44-3.93.64-5.6-.88l-1-.93c.84-1,1.88-.55,2.88-.43C75.92,4.28,76.2,2.93,77,3Z"/><path class="cls-1" d="M7.87,56c-.19,2.63-1.67,4.75-2.8,7C4.24,60,4.92,57.52,7.87,56Z"/><path class="cls-1" d="M75,3.69l-2.88.43-6,1C68.74,2.63,71.78,2.67,75,3.69Z"/><path class="cls-21" d="M5,115.17a2.09,2.09,0,0,1-1.21,1.93l-.4.19L3.08,117l-.19-1c-1-.82-.16-2.12-.82-3h0a2.15,2.15,0,0,1-.44-1.92,2.45,2.45,0,0,1,1.43-1.39,2.26,2.26,0,0,1,2.24,1.16C5.74,112.3,5.13,113.72,5,115.17Z"/><path class="cls-1" d="M2.25,110.91,2.07,113c-3.12-2.46-1.67-5.41-.88-8.28.25.17.48.35.71.54C4,107,3,109,2.25,110.91Z"/><path class="cls-1" d="M64.06,181.11h1.55c1.71,1.09,4.13-1.19,5.56,1.18,0,.25-.11.5-.16.75C68.27,183.91,65.64,184.42,64.06,181.11Z"/><path class="cls-1" d="M165,37.09l-5.07-6C163.21,31.71,165,33.68,165,37.09Z"/><path class="cls-1" d="M19.25,149.79a19.83,19.83,0,0,1,4.63,5.2C20.3,155.06,19.45,152.72,19.25,149.79Z"/><path class="cls-22" d="M107.07,3c-2.63.52-5.46-.87-7.95.85-1.66.27-1.84-.38-1-1.64L105,1.91Z"/><path class="cls-1" d="M57.1,8a15.14,15.14,0,0,1-6,3C52.51,8.81,54,6.76,57.1,8Z"/><path class="cls-1" d="M176.85,57.41c-1-2.07-2.07-4.14-3.11-6.2C176.44,52.44,178.91,53.79,176.85,57.41Z"/><path class="cls-1" d="M180.14,66l-2.23-5.91C180.34,61.39,182.14,63,180.14,66Z"/><path class="cls-1" d="M180.87,70.1c0-1.09-1.23-1.91-.67-3.11,2.24,1.14,3.06,2.75,1.68,5.08a4.78,4.78,0,0,1-.76-.35A1.07,1.07,0,0,1,180.87,70.1Z"/><path class="cls-1" d="M131,176.93l6-3.07C136.25,177.33,133.51,176.9,131,176.93Z"/><path class="cls-23" d="M170.09,141a1.76,1.76,0,0,1,.82-.07c-.37,1.56-1.74,2.21-2.85,3.1l-2,.1c-.09-.24-.18-.48-.28-.71a3.68,3.68,0,0,1,2.24-2.9A2.07,2.07,0,0,1,170.09,141Z"/><path class="cls-1" d="M77.74,184.07c.15.28.3.55.46.82A10.12,10.12,0,0,1,71,183l.08-.13a3.17,3.17,0,0,1,1.28-.82C74.53,181.75,76.52,181.87,77.74,184.07Z"/><path class="cls-1" d="M51,11A13.48,13.48,0,0,1,46,13.87C46.39,10.68,48.76,11,51,11Z"/><path class="cls-1" d="M19.2,37.14c-.08,1.64-1.51,2.46-2.24,3.7-.19.54-.48.61-.88.19l-.1-.1C16.05,38.82,16.43,37,19.2,37.14Z"/><path class="cls-1" d="M2,74C2,75.32,2,76.65,2,78a1.9,1.9,0,0,1-1,2C-1,77.58.45,75.77,2,74Z"/><path class="cls-1" d="M156,159.9a7.4,7.4,0,0,1,3-3C158.85,158.79,159.44,161.37,156,159.9Z"/><path class="cls-1" d="M172.83,139.88c.49-1.3-.4-2.94,1-4C174.56,137.46,176.49,139.35,172.83,139.88Z"/><path class="cls-24" d="M1,80l1-2,.43,0C3.6,80,3.63,82,2,83.91l-1.82.31C.18,82.76,1.67,81.58,1,80Z"/><path class="cls-1" d="M53,177.14a5,5,0,0,1,4.07,1.74C54.53,181.07,54.25,178,53,177.14Z"/><path class="cls-1" d="M47,174.06c1.75-.32,2.8.73,3.79,1.91C49.33,175.81,47.36,176.57,47,174.06Z"/><path class="cls-1" d="M66.11,5.07c-1,1.72-2.73.53-4,1C62.91,3.77,64.41,4,66.11,5.07Z"/><path class="cls-1" d="M173.71,51.23a.66.66,0,0,1-.66-.22,2.06,2.06,0,0,1-.33-2.77L173,48C175.51,48,175.53,48,173.71,51.23Z"/><path class="cls-1" d="M3.87,67c.26,1.15.31,2.24-.84,3C1.5,68.48,1.8,67.48,3.87,67Z"/><path class="cls-1" d="M3.08,117a5.27,5.27,0,0,0,.69.14L4,120C2.92,119.19,1.26,118.6,3.08,117Z"/><path class="cls-1" d="M2.07,113c1.33.72,1,1.89.82,3C.31,115.61,1.61,114.17,2.07,113Z"/><path class="cls-1" d="M2.89,71c.17,1.12.42,2.27-.85,3C1.58,72.77.34,71.34,2.89,71Z"/><path class="cls-1" d="M165,149.91A5.28,5.28,0,0,1,167,147C168.14,149.26,166.93,149.86,165,149.91Z"/><path class="cls-1" d="M58,179.15c1,0,2.26-.71,2.81.85C59.65,180.6,58.35,181.52,58,179.15Z"/><path class="cls-25" d="M98.1,2.2c0,.73.14,1.42,1,1.64,1.35.24,2.89-.25,4,1-.4.87-1.22,1.57-1.07,2.66.06.43.08.84.11,1.27a4.57,4.57,0,0,1-.79,3.14c-2.37-.32-1.45,2.24-2.63,3-1,.67-2,1.49-3.16,1.05-1.47-.55-1.11-1.94-.73-3,1.44-4,.2-6.46-4.06-7.26a2.47,2.47,0,0,1-1-1,1.65,1.65,0,0,1,.39-1.29c2-2.41,4.67.87,6.78-.74Z"/><path class="cls-26" d="M85.92,3.91V2.08c2.81,1.64,5.47-2.66,8.3-.2C93,3,91.11,2.66,90.05,4h0a3.21,3.21,0,0,1-2.88,1.34A1.86,1.86,0,0,1,85.92,3.91Z"/><path class="cls-27" d="M90.05,4c.72-2,2.52-1.94,4.17-2.14l2.7.92c.15,1.33-.37,1.76-1.66,1.29A8.66,8.66,0,0,0,90.05,4Z"/><path class="cls-28" d="M168,68c4.67.29,4.89.6,5,7a25.63,25.63,0,0,0,3,8.61c1.73,2.94,1,6.41-1,9.37-.52,4.33,2.61,8.65,0,13-2.38.05-2.15-1.87-2-3.16.26-2.22-.79-3.8-1.86-5.47-.89-6-.9-12.1-2.08-18.06C169,75.49,165.92,72,168,68Z"/><path class="cls-29" d="M175,93c1.85-6.27-2.4-11.87-2-18h4.31l-2.28,2h0c-1.94,2.07-.67,3.83,1.27,3.67,2.72-.22,2.93,1.38,3.39,3,1.06,3.66-1.42,7.35.06,11.1.32.81-.74,1.84-1.83,2C175.08,97.05,176.76,93.67,175,93Z"/><path class="cls-30" d="M172.05,98c1.84.21,3.11.84,2.43,3.07-.51,1.68-1.07,3.41.56,4.87l2,0,.39.47a1.52,1.52,0,0,1-.58,1c-.5.33-1.05.58-1.57.86a16.19,16.19,0,0,0-2.16,2.06c-1.29.93-1.56,2.5-2.38,3.72s-1.74,1.53-2.53-.1C168.48,108.44,168.58,102.82,172.05,98Z"/><path class="cls-31" d="M168,68c.22,3.74,2.28,7.13,2,11,.6,1.29,1.06,2.54-.77,3.25-2-1-2.29-3.12-2.74-5-1.2-4.91-3.49-9.53-3.9-14.65.16-.21.33-.41.5-.61C167.71,61.6,166.08,66.24,168,68Z"/><path class="cls-32" d="M179.9,113.9l-1.81,4.18c.26-2.84-4.25-2.28-3.77-5.27.28-1.29,1.63-1.87,2-3.07.4-.88.09-1.93.67-2.76l.15-.1A7.54,7.54,0,0,0,180,104c0-.93.08-1.87.13-2.8.85,3,1.21,6,0,9C180.57,111.44,180.92,112.71,179.9,113.9Z"/><path class="cls-33" d="M171,59c.58-.92.7-2.43,2.06-2.46,1.15,0,1.39,1.29,1.69,2.17C176.05,62.4,177.86,66,178,70c-.32,1.75-.95,1.44-1.4.12-.84-2.43-1.38-5-2.33-7.34C173.69,61.19,173.32,59.16,171,59Z"/><path class="cls-34" d="M169,55.71c-.29,1.75-2.16,2-3,3.2-2,.05-3.33.71-2.85,3.06l-.36-.14a6.89,6.89,0,0,1-6-2C159.74,55.06,164.18,54.81,169,55.71Z"/><path class="cls-35" d="M180.87,70.1c.08.54.17,1.08.25,1.63-.09,1.43-.17,2.87-.25,4.31l-.59.07c-.41-2-.83-4.08-1.24-6.12Z"/><path class="cls-36" d="M179.9,113.9c.08-1.25.16-2.5.25-3.74,1.67,1.44.41,3.43,1,5.08l-.27,1.6C179.73,116.12,180.13,114.91,179.9,113.9Z"/><path class="cls-37" d="M182.93,103c0,2.49.78,5.08-.82,7.4C182.34,107.92,181.22,105.29,182.93,103Z"/><path class="cls-38" d="M182,85c-1.87-1.8-.58-3.92,0-5.93v6Z"/><path class="cls-39" d="M175.07,77c1.14,0,2.34,0,2.41,1.58,0,.3-.61.91-.89.89-1.53-.14-1.5-1.35-1.51-2.48Z"/><path class="cls-28" d="M180,104c-.1,1.8-.88,2.92-2.83,2.91A3.4,3.4,0,0,1,177,106Z"/><path class="cls-40" d="M16.08,41c.3-.05.59-.12.88-.19.47,3.33,2.22,1.89,3,.52,2.39-4,6.2-6.74,9.08-10.31,1.87-.65,2.86-4.21,5-2.65s.49,4.2-.22,6.33c-1.06,2.07-3.06,3.41-4.22,5.42-1.44,2.5-2.45,5-1.16,7.9.25,1.49.44,3-1.48,3.5s-2.87-1-3.82-2.32c-3.62-2.92-6.22-2.47-8,1.46-.69,1.49-1,3.21-2.88,3.76a1.31,1.31,0,0,1-1.16-.59A6.86,6.86,0,0,1,11,53C10.78,48.16,15.24,45.36,16.08,41Z"/><path class="cls-41" d="M32.9,35c-.21-2.13,1.85-4,.85-6.25-1.94.06-2.63,2.59-4.67,2.35,3.14-4.36,7.58-7.19,12-10.06a1.3,1.3,0,0,1,.3,1.22c-.23,1-1.49,2.17-.34,3.05,1.34,1,2.22-.67,3.32-1.13,1.13-.66,2.16-1.59,3.62-1.45,1.17.81,3.34.3,3.42,2.58-3,5-8.08,7.45-12.88,10.2C36.66,35,34.74,35.41,32.9,35Z"/><path class="cls-42" d="M51.05,25.05c-.28-1.74-3.24.46-3-2-.62-1.36.62-1.91,1.2-2.75a3.58,3.58,0,0,1,1.1-.75,24.41,24.41,0,0,0,7.22-3.22c2-1.37,1.48-3.23,1.06-5.09A1.37,1.37,0,0,1,59.07,10l6.11-.89a29,29,0,0,1,.92,3.31c0,2.78,2.89,3.14,4.18,4.85-.58,2.07-2.67,1.82-4.06,2.65-3.86,1.52-7.92,2.55-11.45,4.91C53.68,25.58,52.35,26,51.05,25.05Z"/><path class="cls-43" d="M65.09,11.94c-.5-1-.93-1.91.09-2.81L69,7c2.93-.8,6-.68,8.95-1.41,2,0,4.12.64,5.92-.85l2-.78,1.26,1.16a1.51,1.51,0,0,1-.06,1.34c-2.54,3.65-6.87,4.57-10.35,6.81-2.34,1.33-5,1-7.5,1.54S65.68,14.07,65.09,11.94Z"/><path class="cls-44" d="M59.07,10v1.1C59.3,13,57.6,13.21,56.56,14c-2.62,1.34-5.35,2.47-7.69,4.32a4.28,4.28,0,0,1-2.62,1c-.43-.11-.6-.28-.51-.5s.2-.38.32-.38c-1.35-1.91.48-2.18,1.49-2.7C51.37,13.81,55.22,11.94,59.07,10Z"/><path class="cls-44" d="M79,5.92A21.07,21.07,0,0,1,69,7l4-1.9,6.08,0c.23.22.29.43.17.6S79.1,5.92,79,5.92Z"/><path class="cls-45" d="M41.06,22V21l5-2.5A1.46,1.46,0,0,1,46,19C45.78,22.31,43.91,23,41.06,22Z"/><path class="cls-46" d="M101,12,101.07,8c1.12-.31,1.62.55,2.23,1.19,1.79,2.13,4.48,1.37,6.72,2,.66.1-.17,0,.48.1,5.68.89,5.77.81,4.52-4.26,4.2,1.24,8.55,2.1,12.12,4.89-1.61,2.64-.72,4.1,2.07,5.1,2.34.84,5.31.88,6.31,3.94a1.94,1.94,0,0,1-.55,1.27c-5.52-.77-11-1.61-13.54-7.61-.36-.52.08.27-.27-.29a1.25,1.25,0,0,1,.15.24c.47,2.95-.34,4.79-3.73,4.48-2.62-.55-5.28-.89-7.87-1.58a33.35,33.35,0,0,1-3.73-.62c-1.4-.48-3-.45-4.28-1.15C100.1,14.83,98.85,13.71,101,12Z"/><path class="cls-47" d="M135,21c-2.16-2.35-5.4-2.24-8-3.55-1.14-.57-2.75-.91-2.63-2.57a2.87,2.87,0,0,1,2.75-3A46.85,46.85,0,0,1,145,22c1.35,1.06,1.56,2.54,1.5,4.13a3.39,3.39,0,0,1-1.31,2.29,5.07,5.07,0,0,1-1.23.62c-2.54.44-3.41-.69-2.92-3.1,1.51-1.29,1.25-2.58,0-3.75,0,1.12,1.15,2.32.19,3.6-1.26,1-2.07-.08-3-.61a10.79,10.79,0,0,1-1-.91C136.15,23.43,135.8,22.08,135,21Z"/><path class="cls-48" d="M154,29.05c2.86,2.83,5.91,5.49,8,9,1.56,3.43-.62,3.84-3.18,4-3.23-1-5.16-3.72-7.73-5.6-1.58-1.85-3.91-3.62-2.22-6.38A3.29,3.29,0,0,1,154,29.05Z"/><path class="cls-49" d="M154,29.05c-5.89.93-6.09,1.65-2,7a4.27,4.27,0,0,1,.59,4.53c-.53.81-1.17.76-1.85.21-1.75-.86.32-4.61-3.17-4.18-2.79-1.61-6.16-2.62-6.8-6.48.86-1,2.74-.48,3.23-2.09l.91,0a2.44,2.44,0,0,0,2.39-1.34c.12-.93-.12-2,.71-2.7C150,25.7,152.55,26.71,154,29.05Z"/><path class="cls-50" d="M115,7a6.81,6.81,0,0,0,1.23,1.47c1.14.79,2.1,1.63,1.6,3.17s-2,1.32-3.3,1.31c-1.57,0-3.28.47-4.6-.92.89-1.86,3-1.74,4.53-2.88-1.31.7-2.23.56-2.68-.89.37-1.07,1.28-1.23,2.23-1.32A5.49,5.49,0,0,1,115,7Z"/><path class="cls-46" d="M114,7a2.14,2.14,0,0,1-2,1c-1.91,1.66-3.91.33-5.88.2a3.35,3.35,0,0,1-2.49-1.67A1.54,1.54,0,0,1,104,5.08l5.91,0Z"/><path class="cls-51" d="M158,41c2.08,0,4.31.26,4-3,2,.76,2.57,2.89,4.06,4.14-2.13,1.41-5,.13-7,1.82C158,43.25,157.4,42.32,158,41Z"/><path class="cls-52" d="M148,24l.95,3.08c-1.42.88-2.3.26-2.93-1.05-.35-1.33-.69-2.66-1-4A3,3,0,0,1,148,24Z"/><path class="cls-53" d="M146,165l-7.88,5.13c-2.05,1-3.39-.82-5.09-1.24a2.28,2.28,0,0,1-1.29-1.56,2.43,2.43,0,0,1,1.07-1.69c1.16-.69,2.46-.25,3.65-.48.4-.2.41-.44,0-.74-.2-.16-.32-.26-.44-.27a7.42,7.42,0,0,1-2.3-3.61,4.77,4.77,0,0,1,5.05-2.72c.51.17.43.91,1,1-.3-.35-.59-.7-.91-1.06a1.92,1.92,0,0,1,1-1.66,26.94,26.94,0,0,1,3.89-2.08c1.79-.61,3.27-.47,3.49,1.9-2.08,1.74-3.78,3.6-2,6.52C145.56,163.27,145.72,164.13,146,165Z"/><path class="cls-54" d="M126,176,124,177.87c-1.45,1-2.93,1.92-4.83,1.5a5.72,5.72,0,0,1-2.13-3.81,13.29,13.29,0,0,1-.2-1.39c.56-2.55-2.65-2.82-3-4.86a10.56,10.56,0,0,1,8.9-2.87C124.22,169.48,128.31,171.64,126,176Z"/><path class="cls-55" d="M126,176c1-3.75-3.92-5.48-3.11-9.17.1-1.33.93-1.41,2-1.14.79,2.91,3.4,1.2,5,2,.66,2,4.72,2,3.11,5.32C131.12,174.94,128.47,175.2,126,176Z"/><path class="cls-56" d="M166,144.11c-.9,1.37-1.31,3.1-2.94,3.92a4,4,0,0,1-1.91-.48,3.73,3.73,0,0,1-.93-1,3.34,3.34,0,0,0-3.21-1.9c-1.46-.64-2.82,1.12-4.29.2-.93-2.71,1.69-4,2.36-6.15a3.13,3.13,0,0,1,1-1c1.09-.06,1.61.71,2.15,1.46,1.92,2.66,5.35,2.75,7.76,4.58Z"/><path class="cls-57" d="M156.05,156a18,18,0,0,1-7.06,5.93c-1.12-.82-2.6,1.47-3.6-.43a3.77,3.77,0,0,1,.18-3.38c2.76-1,6-.92,7.91-3.74C154.73,154.29,156.13,154,156.05,156Z"/><path class="cls-58" d="M119,178.9l5-1,1,1c-4.12,2.06-8.61,2.93-13,4-.88-.83-2.57.33-3.13-1.27,2-2.81,5.54-1.64,8-3.17A2.65,2.65,0,0,1,119,178.9Z"/><path class="cls-59" d="M156.05,156c-.71-1.17-1.85-1-3-.93-2.73,1.23-4,.47-3.47-2.6a2,2,0,0,1,1.16-.77,7.72,7.72,0,0,0,6.39-.91,4.12,4.12,0,0,1,1.32-.4c.89.15,2,.12,1.49,1.58C158.67,153.29,157.36,154.64,156.05,156Z"/><path class="cls-60" d="M133,173c-.16-1.59-.64-2.63-2.61-2.75-2.23-.14-.36-1.46-.39-2.25a.85.85,0,0,1-.24-.82q.12-.42.24-.42a1.61,1.61,0,0,1,2,.26l1,1c2.18.9,3.81,1.94,1,4.07Z"/><path class="cls-61" d="M146,161.92c1-.11,2-1.55,3,0L146,165c-1.9,0-1.25-1.19-1.06-2.18C144.9,162.06,145.18,161.71,146,161.92Z"/><path class="cls-55" d="M134,172c1.38-1.78.22-2.93-1-4.07,2.27-.67,3.16,2,5.08,2.13A6.41,6.41,0,0,1,134,172Z"/><path class="cls-62" d="M160,152a1.93,1.93,0,0,0-2-1c-.23-2.24.49-3.78,3-4h.08a2.35,2.35,0,0,1-.06,3.06A1.9,1.9,0,0,1,160,152Z"/><path class="cls-63" d="M161,150.05l.06-3.06a2.05,2.05,0,0,1,2,1Z"/><path class="cls-64" d="M68,180l-13.85-5.12c-2-2.21-5.53-2.15-7.15-4.89,2.4-5.42,6.34-2.84,10-1.93,4.4,1.28,10,0,12.32,5.76a10.11,10.11,0,0,1,6.18-.21c2.78.79,6,.5,7.81,3.53a3.08,3.08,0,0,1,.21,1.38c-1.29,1.17-1,3.43-2.94,4.17a6.47,6.47,0,0,1-4.21-.25,1.94,1.94,0,0,1-.9-1c-.62-1.24,1.18-2.69.63-3.05-1.64-1.07-2.45.43-3.24,1.72a2.44,2.44,0,0,1-2.19.82A3.36,3.36,0,0,1,68,180Z"/><path class="cls-65" d="M57,169c-3.43-.37-7-2.25-10.06,1.05-4.19-1.55-7.47-4.49-10.93-7.15-.54-1-1.71-1.74-1.06-3.12a5.65,5.65,0,0,1,2.5-1.05c2.36-.69.42-6,4.8-4.52,4.16,2.14,8.12,4.57,11.05,8.35C52.1,166.09,57,166.13,57,169Z"/><path class="cls-66" d="M29.89,157c-2.91-2.76-6.3-5.11-8-9,.33-.75,1.83-1,1.63-1.23-.75-.79-1.7,0-2.57.23-1.41-1.06-3.09-2.13.07-3.09a4.08,4.08,0,0,1,2.88-1.19c3.26,0,5.48,1.62,6.19,4.72.74,3.26,4.41,4.63,4.76,8a3.74,3.74,0,0,1-.36,1.54C33,159.15,31.42,158.71,29.89,157Z"/><path class="cls-67" d="M24,143.93l-2.92,0c-1.67-1.91-3.33-.72-5,0L15,142.06a4.06,4.06,0,0,1,1.79-3.34,2.92,2.92,0,0,1,1.27-.23c1.05.16,2.06.52,3.11.71,1.76.41,3.33-.84,5.08-.61,1.33.34,2.87.43,3.08,2.28C28.18,143.05,25.81,143,24,143.93Z"/><path class="cls-42" d="M29.89,157c1.4.69,2.78.94,4.15-.07a2.54,2.54,0,0,1,2.17.88c.62,1.27-1.22,1.27-1.18,2.25l1,2.77C33.8,161.14,31.31,159.66,29.89,157Z"/><path class="cls-68" d="M21,147.07c.36-2.29,1.83-2.4,3.55-1.71.95.38,1.78,1.39,1.27,2.27-.94,1.61-2.62-.23-3.88.43Z"/><path class="cls-69" d="M169,55.71c-4.19.72-8.6.86-11.81,4.3a3,3,0,0,1-1,1.7c-2,1.6-4.9,1.87-6.53,4.12-2.09,1.58-4.95,1.83-6.75,3.92a7.75,7.75,0,0,1-1.67,1.12,29,29,0,0,0-7,3.76,51.07,51.07,0,0,0-7,4c-3.1,1.42-6,3.3-8.9,5-1,.53-2.12,1-3.2,1.43-2.13.57-4.3,3-6.38-.08,1-4.94,5.84-5.26,9-7.63,4.26-2.51,8.63-4.82,12.91-7.28,9.43-6,19.49-11,29-17a9.35,9.35,0,0,1,4-1.78,2.89,2.89,0,0,1,1.32.35c-.41,3.07,3.09,1.47,3.83,3.19A3.82,3.82,0,0,0,169,55.71Z"/><path class="cls-70" d="M172.72,48.24l.33,2.77c-1.5.69-1.66,3.23-3.93,2.86C168.06,53.19,168,52,167.77,51c-.22-1.55-1.52-2.52-2.11-3.87A1.11,1.11,0,0,1,166,46l3-.94Z"/><path class="cls-71" d="M169,50l.15,3.85c-.11.34-.23.68-.34,1-1.9.25-3.76-1-5.87-.24L165,52C165.74,50.14,166.71,48.81,169,50Z"/><path class="cls-72" d="M3,104c-.49-6.69-.91-13.38,0-20.07A9.52,9.52,0,0,1,3,78c3.14-.93,1-4.52,3-6a38.25,38.25,0,0,0,3.13,2.55,6.05,6.05,0,0,1,.95,1c1,1.57,2.27,3.07,1.42,5.14a1.49,1.49,0,0,1-1,.68c-1.23.08-1.73-1.71-3.12-1.2-2.25,3.21-1.91,6.87-2,10.47-.07,4.42.23,8.84-.19,13.26-.28,1.08-.63,2.1-1.94,2.3C2.42,105.57,2.52,104.82,3,104Z"/><path class="cls-73" d="M9,75.14C6.81,75.21,6,74,6,72l.15-2.76c1.72-2.47,1.26-5.72,3-8.2l0,.06a.81.81,0,0,1,1.15-.21,3.46,3.46,0,0,1,.65,1.21,6.18,6.18,0,0,1,.18,1.36,14.72,14.72,0,0,1-.79,4c-.15.65-.35,1.29-.54,1.93C8.85,71.2,10.12,73.33,9,75.14Z"/><path class="cls-74" d="M9.13,61c-.64,2.86-.43,6-3,8.2C7,66.41,6.54,63.17,9.13,61Z"/><path class="cls-74" d="M10.07,61.05l-1,0q1-3.61,2-7.22c.23.13.48.25.73.36,1.8,1.5.63,3.15.23,4.77A3.23,3.23,0,0,1,10.07,61.05Z"/><path class="cls-75" d="M3,78q0,3-.07,6a7.78,7.78,0,0,1-1,0l.42-6A2.58,2.58,0,0,0,3,78Z"/><path class="cls-76" d="M3,104c.09.64.17,1.28.26,1.92A3,3,0,0,1,3,110.09c-.26.27-.51.55-.76.82-.12-1.89-.24-3.79-.35-5.68Z"/><path class="cls-77" d="M82.93,179c0-.34.07-.68.1-1-.65-1.34-1.11-2.69,0-4,.46-.79,1.34,1.37,1.83-.31a3.64,3.64,0,0,1,2.94-2.92,3,3,0,0,1,1.56,2.9,1.5,1.5,0,0,1-1.53,1.19c-4.13,1.89-.13,4.78-.87,7.09-2,1.18-3.11-.11-4.14-1.56A1.31,1.31,0,0,1,82.93,179Z"/><path class="cls-78" d="M96,179.86c-1.51.9-3,2-4.84,2a3.12,3.12,0,0,1-.16-2.38,11.46,11.46,0,0,1,.5-1.8,14.59,14.59,0,0,1,1.22-3,2.47,2.47,0,0,1,2.37-1,4.5,4.5,0,0,1,2.42,4A2.82,2.82,0,0,1,96,179.86Z"/><path class="cls-79" d="M76.11,181.85,81,182a9.26,9.26,0,0,1,2.41.06,2.13,2.13,0,0,1,1.48,1c-2.17,1.87-4.87.1-7.18,1l-5.56-1.29C73,180.27,74.55,181.08,76.11,181.85Z"/><path class="cls-80" d="M92,179.86l-.84,2c-4.22-.89-1.64-4.94-3.26-7l1-1a1.27,1.27,0,0,1,1.34,0C91.9,175.53,90.44,178.12,92,179.86Z"/><path class="cls-64" d="M84.92,183l-1.87-.1a2.18,2.18,0,0,1,0-3.06c1.34.61,2.11,2.32,3.91,2C86.62,182.85,85.77,182.94,84.92,183Z"/><path class="cls-81" d="M96,179.86c.24-.69.48-1.37.71-2.06a.94.94,0,0,1,1.09-.35c.64.26.8.93,1.17,1.42A3.07,3.07,0,0,1,97.1,181Z"/><path class="cls-81" d="M117,179c-2,2.95-5.75.95-8.1,2.89a3.61,3.61,0,0,1-3.81.16,7.48,7.48,0,0,0-3.75.67c-1.85.6-1.91-.37-1.3-1.73,2-2.19-.19-3.2-1.28-4.51a2.74,2.74,0,0,1,2.11-1.65c3.17-.36,6.33,0,9.58-.56C113.47,173.71,116.61,175,117,179Z"/><path class="cls-82" d="M101,175.9c-.78.07-1.49.22-1.75,1.11a.62.62,0,0,1,.23.71c-.1.22-.19.34-.28.34a4.4,4.4,0,0,0-.22.81L97.87,178c-1-2.41-2.82-4.44-3.5-7a2.94,2.94,0,0,1,.45-2.12,3.06,3.06,0,0,1,2.83-.52,6.27,6.27,0,0,1,2.85,2.29,7.75,7.75,0,0,1,.74,1.28C101.76,173.24,102.31,174.64,101,175.9Z"/><path class="cls-83" d="M99.16,178.06c0-.35,0-.7,0-1.05,1.11,0,2.46-.21,2.67,1.36.17,1.3-.74,2.06-1.8,2.62C100,179.94,100.25,178.79,99.16,178.06Z"/><path class="cls-84" d="M105.13,182.05l3.81-.16c1,.18,2.23-.16,3,.92l-2.7.22C107.9,182.59,106.23,183.54,105.13,182.05Z"/><path class="cls-85" d="M157,46.87c.76,1.94-3.18,3.1-.87,5.3-.8,2.45-2.53,3.43-5,3.15a63.44,63.44,0,0,0-24.38-21.06,4.36,4.36,0,0,1-1.91-1.51c-.15-3.58,2.4-2.75,4.39-2.58,1.6.14,2.93,1.48,4.67,1.16,5.23.13,8.23,4.41,12.36,6.6,4,1.9,5.81,6.26,9.62,8.34A3.21,3.21,0,0,1,157,46.87Z"/><path class="cls-86" d="M151,55l5.06-2.86c3.52-1.73,4.32-7.84,9.95-6.18a8.69,8.69,0,0,0,.07.88c-.37,1.21-4.6,1.34-1,3.74.3.2-.58,1-1.12,1.34L131,71a2.84,2.84,0,0,1-4-.5c-.66-2.85,1.66-3.61,3.36-4.82,2.49-.37,4.21-2.28,6.39-3.28a32.27,32.27,0,0,0,5.05-2.88c.74-.46,1.5-.88,2.27-1.3C146.48,57.36,148,54.5,151,55Z"/><path class="cls-87" d="M157,46.87a2.58,2.58,0,0,1-.71.19c-2-1.61-4.36-3-4.22-6.07,0-1.66,0-3.32,0-5a19.17,19.17,0,0,1,6,5l1,3C158.34,45,157.65,45.92,157,46.87Z"/><path class="cls-88" d="M17,139A5.62,5.62,0,0,1,15,142.06c-2.85-1.56-2.18-5.12-4.11-7.2-.28-2-1.55-3.75-1.06-5.85a1.4,1.4,0,0,1,.54,0,2,2,0,0,1,2.4-.54c1.56.93,2.72-.39,4.05-.73,2.13-.55,4.13-.77,5.51,1.46-.59,2.36-3,1.61-4.41,2.64C14.22,133.81,16.87,136.55,17,139Z"/><path class="cls-89" d="M9.79,129c.73,1.88,2,3.67,1.06,5.85A4.8,4.8,0,0,1,9.06,132C9.23,131,8.85,129.83,9.79,129Z"/><path class="cls-24" d="M4.08,103.93c0-6.13.15-12.26,0-18.39-.09-3,1.91-5.2,2.42-8,.09-.51,1.15-.14,1.62.41.85,1.31-.13,3.71,2.4,4a4.08,4.08,0,0,1,.4,2.7c-.74,2.08.44,4.18-.05,6.27-1.68,5.06,1.05,10.5-1.4,15.58C8.76,108,11,109,11.31,110.44c-.07,1.08-.9,1.48-1.69,1.93a6,6,0,0,1-1.81.41c-1.1.39-.89,1.86-1.89,2.33l-.47,0-.47.09c-1.56-1.35-.74-2.73-.06-4.11C2.4,108.94,5.12,106.22,4.08,103.93Z"/><path class="cls-90" d="M7.05,111.89l1.93,0c.43-.24,1-.51,1.38-.27a12.4,12.4,0,0,1,4.53,16.69c-.51.57-1,1.14-1.91.72H10.33c-.78-2.29-1.57-4.57-2.35-6.85C7.58,118.74,5.59,115.47,7.05,111.89Z"/><path class="cls-91" d="M7.05,111.89c-.55,3.5,1.61,6.75.93,10.26-1.5-2.11-1.85-4.56-2.06-7C6.87,114.23,4.68,112.26,7.05,111.89Z"/><path class="cls-92" d="M177,121.91,176,126l-2.87,5a8.49,8.49,0,0,1-5.06-3.85c-.18-4.5,1.12-5.88,6.49-6.9A4.72,4.72,0,0,1,177,121.91Z"/><path class="cls-93" d="M168.92,127.17c1.55,1.11,3.31,2,4.21,3.82l-1.23,2.93c-1.5,1.28-2.79.3-4.11-.36-1.44-2.26-5.07-1.66-6-4.58,1.06-2.17,3.22-2.17,5.16-2.61C167.7,126.38,168.47,126.39,168.92,127.17Z"/><path class="cls-94" d="M168.22,132.86l3.68,1.06a6.59,6.59,0,0,1-1.76,5.19,5.18,5.18,0,0,1-2.37-2,3.35,3.35,0,0,1-.29-1.24C167.6,134.86,167.27,133.7,168.22,132.86Z"/><path class="cls-95" d="M168.45,137c1.26.12,1.53,1,1.69,2.07,0,.62,0,1.25,0,1.87l-2,0c-1.37.52-3.15,2.65-3.5-.89A5.21,5.21,0,0,1,168.45,137Z"/><path class="cls-96" d="M76.11,181.85c-1.31.3-2.86-.42-3.93.93l-1.09.12c-1.42-1.85-4,0-5.48-1.8.89-.14,1.83-.17,2.38-1.07h3c1.52,1.13,3.63-.84,5,1Q76.05,181.42,76.11,181.85Z"/><path class="cls-97" d="M177,121.91a1.82,1.82,0,0,1-2-.91,12.46,12.46,0,0,1-3.63-4.3A5.54,5.54,0,0,1,172.6,111c1.23-.73,1.9-.07,2.41,1-1,3,4.89,2.59,3.08,6.06C177.71,119.36,177.33,120.63,177,121.91Z"/><path class="cls-98" d="M104,5.08A4.14,4.14,0,0,1,104,6a3.33,3.33,0,0,1-3,1c-1.55-2.92,1.06-1.77,2.11-2.16A4.5,4.5,0,0,0,104,5.08Z"/><path class="cls-26" d="M79,5.92c0-.29.09-.57.13-.85A2.18,2.18,0,0,0,80,5l3.9-.26C82.68,6.72,80.84,6.34,79,5.92Z"/><path class="cls-99" d="M4.08,103.93C7,106,3,108.87,4.92,111.06l-1.91-1c.07-1.38.14-2.76.22-4.14C3.51,105.28,3.79,104.6,4.08,103.93Z"/><path class="cls-100" d="M165.06,140.13c.33,2.56,2.08.33,3,.89-.68.93-1.37,1.85-2.06,2.78-3.79.63-6.37-1.41-8.72-4,1.41-1.16-.62-3.22,1.12-4.3C161.64,135.59,163.14,138.16,165.06,140.13Z"/><path class="cls-101" d="M101,12c-1,1.79-.32,2.71,1.57,2.94,1.25.14,2.61-.22,3.61.89-.89,1.35-2.34,1.7-3.77,2.12-5.74.93-6,1.1-6,6.88-.06,15.37,0,30.75,0,46.13-.87,4.84-1.19,5-4.82,3.17a7.52,7.52,0,0,1-.92-4.31c.08-18.77-.31-37.53.2-56.3,0-.66,0-1.16,0-.49,0,0-.31,0-.48,0a2.33,2.33,0,0,1-1.68.4,1.7,1.7,0,0,1-1-.79c-.22-1.54.24-3.11-.28-4.63a4.14,4.14,0,0,1,0-1.36A2.53,2.53,0,0,1,90.2,5.11C97,5,98.07,7.06,95.41,15.31c2.41-.25,3.16-1.56,3.76-3.66C99.73,9.75,100.31,12.13,101,12Z"/><path class="cls-102" d="M101,7.05c.71-1.23,1.91-1.06,3-1l2,1.08c1,.51,1.65,1.19.91,2.29-1.36,2-3.17.86-4.85.59l-1-2C101.05,7.65,101,7.35,101,7.05Z"/><path class="cls-27" d="M90.2,5.11,88,6.94a.78.78,0,0,1-1.11.17,1,1,0,0,1,.08-1.18c.07-.29.15-.58.24-.86L90.05,4Z"/><path class="cls-103" d="M169,82c1.18-.73.95-1.92,1-3,2,6.21,2,12.63,2,19-1.05,5.65-2.65,11.2-3,17,.67,1.25,0,2.39-.29,3.57-1,2.84-1.23,6.12-4.12,8a2.55,2.55,0,0,1-3-.85c-1-3.29,1.6-5.58,2.45-8.33a80.64,80.64,0,0,0,3.55-27.85C167.51,87,167,84.21,169,82Z"/><path class="cls-104" d="M167.87,117.89c.39-1,.78-1.94,1.16-2.9,2.28-.89,0-5.37,3.91-5,.25.17.36.36.31.57s-.11.34-.18.34c-.35,2-1.43,3.91-1,6a1.82,1.82,0,0,1,.38,1.85c-.81,1.58-1.54,3.89-3.68,3.31S167.6,119.46,167.87,117.89Z"/><path class="cls-105" d="M173.07,110.94c0-.31-.07-.61-.12-.91a3.1,3.1,0,0,1,2.18-3,7.73,7.73,0,0,1,1.85,3c1.51,2.75-1,1.73-2,2.08Z"/><path class="cls-106" d="M177,109.94a2.57,2.57,0,0,1-1.85-3H177A2.32,2.32,0,0,1,177,109.94Z"/><path class="cls-107" d="M169,82c-.07,11.28.88,22.65-3.12,33.57-1.25,3.39-2.43,6.8-3.64,10.2a2,2,0,0,1-1.58,1.57,1.41,1.41,0,0,1-1.24-.82c-.82-3.33,1.44-5.89,2.21-8.82A46.71,46.71,0,0,0,163,111.5c.88-4.46,1.91-8.91,1.66-13.51-.12-3.19.41-6.42-.52-9.57a34.27,34.27,0,0,1-1.36-6.1,14.26,14.26,0,0,0-1.7-7.79,97.54,97.54,0,0,1-5.27-13.7l1.39-.82c2.19-.4,3.95.5,5.57,1.82C165.63,68.3,167.11,75.21,169,82Z"/><path class="cls-108" d="M24,48.11c.85,1.07.94,3.19,3,2.64,1.64-.45.61-1.93.71-3-.1-1.06-.1-2,1.38-2a3,3,0,0,1,1,1.86,11.59,11.59,0,0,1,.17,2c.06,1.2,0,2.45,1,3.39a13,13,0,0,0,1.92,1.31c.5.31,1,.67,1.44,1,1,.7,2,1.3,3,2,.72.44,1.47.82,2.22,1.21,2.8,1.47,5.19,3.66,8.25,4.67a29.12,29.12,0,0,1,5.39,3.36,4,4,0,0,1,1.41,2.58,2.73,2.73,0,0,1-.76,2.12c-1.53.87-3,.43-4.38-.34-6-4.49-12.6-7.83-19.09-11.44-2.42-1.34-5.1-2.41-6.78-4.83.44-2-1.62-2.8-2.11-4.37a3.47,3.47,0,0,1,1.1-2.5A.78.78,0,0,1,24,48.11Z"/><path class="cls-109" d="M28.87,46l-1.21,1.84C25.31,41.84,28.93,38.32,32.9,35c1.78-1,3.57-2.6,5.26.11C36.33,39.77,33.46,43.6,28.87,46Z"/><path class="cls-110" d="M24,48.11l-1.09.15c-6.77.44-7.54,1.5-4.83,6.64,3.22,1.69,4.4,3.44.25,5.5-.71.35-1.09,1.22-1.77,1.7a2,2,0,0,1-1.25.23c-1.23-.66-1.61-2.39-3.22-2.6a2.37,2.37,0,0,1-.94-.72l.75-4.79c1.4-1.07,1.76-2.64,2.24-4.24C15.44,45.51,20.32,44.64,24,48.11Z"/><path class="cls-111" d="M28.87,46l9.29-10.89,12.89-10c5-2,9.52-5.1,14.91-6.1,1.18-.74,2.47-.36,3.72-.38,1.33,1.92-.51,2.35-1.52,2.71A79.25,79.25,0,0,0,32.07,46.84c-.72.89-1.65,1.69-3,1.13C29,47.3,28.93,46.63,28.87,46Z"/><path class="cls-112" d="M41.06,22c2.06-.34,3.92-1,5-3l1.79-1.22c1.78-.11,2.7.62,2.44,2.5A2.19,2.19,0,0,1,50,21c-2.54.18-3.73,2.11-5,3.89-1.62.66-2.51,3.72-4.25,2.61C38.66,26.17,37.48,23.64,41.06,22Z"/><path class="cls-45" d="M45,24.88c.76-2.49,1.34-5.19,5-3.89-.67.67-1.33,1.35-2,2Z"/><path class="cls-113" d="M65.09,11.94c4,3.65,7.94.44,11.92,0,5.15-2.38,6.31-2.06,7.37,2-2.79,2.41-6.72,1.46-9.71,3.31-1.54.76-3.08,1.16-4.56-.15C66.41,17.34,64.86,15.51,65.09,11.94Z"/><path class="cls-114" d="M50.27,20.28a5,5,0,0,0-2.44-2.5c2.16-2.59,5.55-3.07,8.22-4.8,1,1.18,2.51,2.12,2,4.05C55.64,18.55,53.56,20.85,50.27,20.28Z"/><path class="cls-115" d="M70.11,17.05c1.38-.12,2.85.15,4-1a1.05,1.05,0,0,1,1.37-.26c1.29.55,3.39-.43,3.72,2C76.43,20.44,73.43,21.16,70,19L66,19Z"/><path class="cls-116" d="M58.06,17c-1.07-1.15-2.45-2.15-2-4.05l3-1.86C61.05,13.48,61.51,15.59,58.06,17Z"/><path class="cls-26" d="M84.12,13.89c-1.13-5.06-4.56-2-7.11-2l9.93-6c0,.35,0,.69.08,1-.18,3.08,1.49,6.22-.34,9.24C85.06,16.28,84.38,15.32,84.12,13.89Z"/><path class="cls-117" d="M152,41c1.14,2.21,3.7,3.43,4.22,6.07-1.43,1.71-2.23.42-3-.66a34.67,34.67,0,0,0-7.09-7.47c-10.87-9-22.69-16.16-36.44-19.84a2.81,2.81,0,0,1-1.9-1.48c0-1.48,1.52-.84,2.12-1.49L118,18c7.49,1.2,14,4.62,20,9.06,1.14.82,2.57,1.36,2.92,3,1.71,2.74,4.84,3.82,7,6,2,.56,2,2.67,3.1,3.91Z"/><path class="cls-33" d="M138,28C131.72,24,124.87,21,118,18c4,1,1-3.39,3-4h0c3.57,4.57,9,6,14,8a33.89,33.89,0,0,0,3,2h0C138.47,25.35,138.81,26.69,138,28Z"/><path class="cls-98" d="M102.06,10c.75-1.73,5.61,2.16,3.94-2.88L112,8c.2,1.25,2.75.55,2.09,2s-2.55,1.81-4.17,2.08C107.21,11.77,104.15,12.69,102.06,10Z"/><path class="cls-118" d="M109.94,16.12l-2.08,1c-1.7,1.22-3.33,1.32-4.82-.36.86-1,2.08-.68,3.15-.9Z"/><path class="cls-119" d="M121,14c-.74-.22-1.89-.35-1.47-1.37a1.52,1.52,0,0,1,2.43-.44c.69.73-.76,1.09-1,1.8Z"/><path class="cls-52" d="M138,24c-1.45,0-2.89,0-3-2,0-.34,0-.68,0-1A6.16,6.16,0,0,1,138,24Z"/><path class="cls-52" d="M138,28a3.42,3.42,0,0,1,0-4l3,2h0c.72,1.09.75,3.21,3,2-.1,2.09-1.64,2-3.09,2Z"/><path class="cls-68" d="M141,26c-.78-2.11-1.55-4.23-2.57-7,2.76,1.35,4.72,2.75,5.14,5.25.21,1.23-1.34,1.68-2.57,1.75Z"/><path class="cls-120" d="M146.05,26,149,27.07c-1,1.85-2.21,2.68-4,1C145.3,27.36,145.67,26.69,146.05,26Z"/><path class="cls-121" d="M151,40c-1.68-.78-2.19-2.51-3.1-3.91C151.57,35.31,150.74,38.09,151,40Z"/><path class="cls-122" d="M100.07,171.9a4.62,4.62,0,0,1-.15-.74c-1-3.19,1.49-3.19,3.31-3.45a73.83,73.83,0,0,0,23.9-8.1,65.27,65.27,0,0,0,20.51-16.22,23.32,23.32,0,0,1,4.94-4.88c1.1-.74,2.4-1.51,3.19.47.62,2.73-2.92,3.49-2.83,6-1.12,3.39-4.28,5.05-6.4,7.59-2.22,1.42-4.46,2.82-6.59,4.39l-1,1h0l-5.12,2.94a2.24,2.24,0,0,1-1,1.78c-1.73,1.13-3.69,1.85-5.42,3-.82.35-1.62,1-2.52.19l-2,1-9,3.12C109.66,172.86,105.07,173.84,100.07,171.9Z"/><path class="cls-123" d="M140,156.93c1.57-2.22,3.88-3.54,6.12-4.93,1.62-.07,3.16-5.14,4.87-.08-1.93,2.87.1,3,2.16,3.13-.75,4.64-3.83,3.91-7,3-.6-1.08.24-1.24.94-1.6s.66-.86.26-.32-.37-.92-.4-.26c-.84-2.19-2.23-1.33-3.53-.58C142.29,156,141.45,157.15,140,156.93Z"/><path class="cls-124" d="M146.93,155.9c.36.31,2.84-1.52,1,.92-.36.48-1.47.4-1.78,1.26-.05,1.28-.11,2.56-.17,3.84l-1,.86C142,159.33,142.54,157.36,146.93,155.9Z"/><path class="cls-125" d="M132.83,161.65l1-.77c2.11,0,2,2.18,3.09,3.16a1.25,1.25,0,0,1,.12,1.91c-1.35,1.13-2.69-.46-4,0C130.31,164.65,131.88,163.13,132.83,161.65Z"/><path class="cls-126" d="M132.83,161.65c-.35,1.45-1,2.92.22,4.29L132,167l-1.88.12a6.24,6.24,0,0,1-3.2-2.18Z"/><path class="cls-127" d="M139,157.94c1.49.29,3.11.5,2.11,2.71-.36.79-1,1.5-1.88,1.08-2.14-1.06.33-2.54-.22-3.79Z"/><path class="cls-128" d="M137.09,166,137,164c1-1,1.51-.24,1.68.57C138.88,165.74,137.92,165.86,137.09,166Z"/><path class="cls-129" d="M100.07,171.9c4.75.16,9.28-1.26,13.9-2,2.85-.12,4.37,1.06,4,4.09-.62.29-1.16-.14-1.74-.2.46.55,1.23.59,1.74,1.06l1,4-2,.1c-2.63-3-5.44-5.53-9.65-2.7-2.32,1.56-4.21-1.67-6.43-.4C101.3,174.43,100.58,173.19,100.07,171.9Z"/><path class="cls-130" d="M118,174.89l-.49,0c-1.5.07-3.13.26-3.93-1.38-.46-.93.38-1.52,1.18-1.82,2.19-.84,2.05,1.68,3.24,2.3A6.17,6.17,0,0,1,118,174.89Z"/><path class="cls-131" d="M126.91,164.93c1.55,0,3.07.07,3.2,2.18,0,.28-.05.57-.08.86a15.69,15.69,0,0,0-2.27.69c-3.72,1.78-4,.23-2.78-2.82Z"/><path class="cls-132" d="M155.77,139c-4-.64-5.3,2.93-7,5.08-7.7,9.61-17.77,15.73-28.85,20.41A52.18,52.18,0,0,1,102.68,169c-1.55.09-2.55.58-2.76,2.21l-2-2c-.91-.92-2-1.74-2-3.22-.09-3.82,2.6-3.89,5.39-4.26,20.77-2.71,37.14-12.42,48.14-30.56,3-1.65,5.08.62,7.46,1.68a2.44,2.44,0,0,1,.46,1.36c-.38,1.35-.2,2.91-1.47,3.93C155.9,138.38,155.84,138.68,155.77,139Z"/><path class="cls-59" d="M150.94,151.92c-1.68-3.47-3.23.85-4.87.08,1.83-2.8,4.37-4.9,6.87-7.05,1.33-.44,2.34-2.28,4.09-1,.68,1.21,0,2.27-.39,3.35-1.39,2.13-2.55,4.53-5.6,4.65Z"/><path class="cls-133" d="M156,147l1-3c3.4-1.74,4,.21,4,3l-3,4h0C155,150.84,155.23,149,156,147Z"/><path class="cls-134" d="M156,138.08c-.18-1.38-.66-2.83.81-3.87,1.12,0,1.57.57,1.3,1.68.14,1.4,2.49,3.24-.79,4Z"/><path class="cls-62" d="M156,147c-.07,1.72.19,3.26,2,4-2.05,2.31-4.22,3.75-7,1Z"/><path class="cls-135" d="M57,169c-1.55-1.37-3.8-1.67-5-3.56s-.39-2.28,1.24-2.54a1.9,1.9,0,0,1,1.85-.38c7,3,14.31,4.93,21,8.51.48,1.54-.49,2.7-1,4-1.66.18-3.3-2-5,0-.43.51-1.08,1-1.4,0-1.61-5.12-5.93-4.78-10-5.1C58.12,169.81,57.59,169.28,57,169Z"/><path class="cls-136" d="M75,175c-.61-1.35-1.53-2.8,1.06-3a3.41,3.41,0,0,1,2.19-1.14c2-.15,3.93-.37,5.7.82a1.45,1.45,0,0,1-.11,2.21c-1.35,1.16-.65,2.74-.85,4.13C80.92,175.5,77.92,175.39,75,175Z"/><path class="cls-137" d="M76,181c-1.68-.26-3.58.59-5-1,2.25-5.16,5.23-3.63,8.41-1.13C79,181.14,75.86,178.1,76,181Z"/><path class="cls-138" d="M83.09,179.86c0,1,0,2,0,3.06a2,2,0,0,1-2-.93c1-.77-.36-3,1.9-3A5,5,0,0,1,83.09,179.86Z"/><path class="cls-139" d="M62.92,173.12c.19.22.64.53.68.87.08.85-.64,1-1.25.89-.34-.07-.86-.49-.88-.79C61.41,173.3,62.06,173.15,62.92,173.12Z"/><path class="cls-122" d="M78.09,171.83l-2,.12-22.87-9.08q-5.59-3.94-11.18-7.9c-3.25-.76-5.32-3.26-7.74-5.25-2.14-2.65-5.11-4.78-5.43-8.58-.3-1.53-2.24-.89-2.78-2.1l.36-.59a3.31,3.31,0,0,1,3.22-.88c4,3.26,6.31,8.13,10.52,11.2a90.78,90.78,0,0,0,29.55,16.77c3.33,1.16,6.88.82,10.23,1.67,1.75.45,4.67.34,4.28,3.06-.31,2.15-2.78.88-4.27,1.16A5.17,5.17,0,0,0,78.09,171.83Z"/><path class="cls-140" d="M35,149.05l7,5.92c-1.06.22-3.11-.54-2,1.87,1,2.17.1,3-2,3.13-.61-.65-1.33-1.2-1.88-1.91A2.42,2.42,0,0,1,34,157c0-.33,0-.66,0-1,.76-.73,1.16-1.48.3-2.45C32.81,151.8,33.5,150.35,35,149.05Z"/><path class="cls-141" d="M36.16,158.06A1.67,1.67,0,0,1,38,160l-3,.12C34,158.64,36.07,158.89,36.16,158.06Z"/><path class="cls-42" d="M35,149.05c.41,1.26-1.71,2.48.28,4,1.59,1.18,1.31,1.55-1.25,3-1.64-3.74-5.65-6-6.24-10.52-.18-1.41-2.32-1.54-3.84-1.53,1.56-1.07,2.74-2.81,4.91-2.79Q32,145.1,35,149.05Z"/><path class="cls-142" d="M21,140c-1.08,0-2.25.2-3-1-2.37-1.67-.5-2.68.59-3.83,5.62-4.78,13-6.76,18.61-11.54a5.49,5.49,0,0,1,2.42-1.12,8.6,8.6,0,0,0,3.72-.87,4.22,4.22,0,0,1,1.31-.25c2.21.51,1.66,1.71.77,3-1.24,1.3-2.83,2.17-4.16,3.37-2.88,1.62-6,2.78-8.63,4.86a24.85,24.85,0,0,1-3.4,1.94,10.83,10.83,0,0,0-2.8,1.36C24.78,137.45,23.8,139.94,21,140Z"/><path class="cls-143" d="M19,136c-.58.93-2.16,1.52-1,3H17c-2.78-2.68-4.43-5.37,0-8.07,2.73-.89,4-.37,2.55,2.68A3.66,3.66,0,0,0,19,136Z"/><path class="cls-144" d="M21,140l5-5c3,1.29.85,2.68.08,4h0C24.37,139.19,23.12,142,21,140Z"/><path class="cls-145" d="M141,70l1.08-1c1.4-.52,2.66-1.48,4.26-1.38a72.19,72.19,0,0,1,1.27,47.11c-.63,2.08-1.07,4.38-4.13,3.92-1.74-.66-3.32-1.51-3.92-3.46-.12-2.31.91-4.42,1.12-6.67.61-2.64.86-5.37,2-7.86,2.15-4.1,1.08-8.55.84-12.72-.31-5.42.85-11.28-3-16.13C140.2,71.31,140.52,70.53,141,70Z"/><path class="cls-146" d="M155.8,60.83c3.85,3.55,3.73,9,6.22,13.16,1,2.57,1.2,5.37,2,8,.33,2,.67,4,1,6,1.38,3.24-.42,6.78,1,10a42.55,42.55,0,0,1-2,14c-2,.08-1.87-1.51-2.23-2.73,0-4.26,2.32-8.33,1.15-12.19-.91,1.94,2.12,5.45-2.12,7-2.09-4.33-1.64-9.12-1.86-13.61-.35-7.31-2.4-14-5.14-20.53-.17-.44-.32-.89-.48-1.33-.47-1.29-.52-3-2.57-2.85a2,2,0,0,1-1.66-.71C150.5,62.26,153.71,62.44,155.8,60.83Z"/><path class="cls-147" d="M144,101c-1.49,2.46-1.44,5.3-2,8-2.56.86-3,.59-2.85-2.19s1.52-5.4-.72-7.83c-2-2.57-1.77-5.62-1.64-8.56.17-3.86-1.4-7-3.37-10.12-1-1.65-2.24-2.31-4.1-1.68a4.42,4.42,0,0,1-1.45.05,2.16,2.16,0,0,1-1.18-.83,16.37,16.37,0,0,1,7-4c5.2-2.16,5.91-2,7.62,3.1A55.85,55.85,0,0,1,144,101Z"/><path class="cls-148" d="M109.07,84.93c2.4,2.34,3.84-1.21,5.89-1a2,2,0,0,1,.62,1.26c.22,4.54,1.23,9,.24,13.62-.3,1.38.55,2.5,1.28,3.59a2.27,2.27,0,0,1,.24,1.4,3.79,3.79,0,0,1-2.24,1.7c-2.59.53-4.79-1.54-7.37-1.15a2.31,2.31,0,0,1-1.11-.79c-.69-1,0-2.28-.54-3.71-2.38,1.54-2.52,6.38-6.81,4.82a3.44,3.44,0,0,1-2.48-2.33,2.16,2.16,0,0,1,.74-1.13c2.62-2.62,2.77-6.14,3.43-9.47,3.3-.82,7.41-.6,7.34-5.74A2.29,2.29,0,0,1,109.07,84.93Z"/><path class="cls-149" d="M149.11,65,151,65c2.56-.55,2,2,3,3h0c1.25,8.25,3.73,16.36,3.92,24.69a56.45,56.45,0,0,1-5.76,27,4.07,4.07,0,0,1-4.05,2.36c-1.66-.21-3-.81-3.38-2.67,2.63-1.3,3.93-3.42,5-6.2,2.87-7.64,2.66-15.37,2.66-23.37a48.22,48.22,0,0,0-3.87-19.12c-.45-1.07,0-3.37-2.49-2.71a6.54,6.54,0,0,1-3.92,1C143.77,66.49,146.78,66.34,149.11,65Z"/><path class="cls-150" d="M109.07,84.93,109,86.11c-2.6.15-3-2.26-4.36-3.63-.72-1.61-2.28-2.33-3.56-3.35a2.22,2.22,0,0,1-.35-1.17c-.36-3.32-1.7,0-2.5-.35-2.38-.27-5,.23-6.57-2.34a1.67,1.67,0,0,1,.47-1.39c4.07,2.14,2.55-1.51,3.11-3a4.09,4.09,0,0,1,1.22-.69,5.48,5.48,0,0,1,1.4-.1,18.45,18.45,0,0,1,10.51,6.19c.89,1.29,2,1.91,3.6,1.25a4.91,4.91,0,0,1,1.27-.08c1.49.34,3-.39,4.52.18l.44.5C115.57,81,110.94,81.1,109.07,84.93Z"/><path class="cls-151" d="M144,101c-.05-4,.76-8.22-2.39-11.61,3.31-4.48-1-7.93-1.6-11.88s-2.82-4.93-6.37-3.65A12.34,12.34,0,0,1,141,70a10.76,10.76,0,0,0,.57,1.88c1.59,3.28,3.66,5.87,3,10.42S145,92,145,96.82C145,98.26,145.45,99.85,144,101Z"/><path class="cls-152" d="M126.78,69.85A7,7,0,0,0,131,71a88,88,0,0,1-12.83,7.15l-.16-.18c-.57-1.75.83-3,1.24-4.43a7.53,7.53,0,0,1,3.56-3.2C124.09,69.79,125.33,68.92,126.78,69.85Z"/><path class="cls-153" d="M164,51.94c1-4.62-2.66.15-3.16-2.07.34-2.84,2.75-3,5.31-3,1,1,2.47,1.6,2.86,3.16-1.73-.16-2.57,1.43-3.93,2Z"/><path class="cls-154" d="M126.71,77.82l1.34.22c-1.14,3.75-5,3.87-7.58,5.65a4.41,4.41,0,0,1-1.45,0,2.35,2.35,0,0,1-1.18-.82A30.34,30.34,0,0,1,126.71,77.82Z"/><path class="cls-155" d="M117.84,82.9,119,83c-.56,2.62-2,3.1-4.29,1.87A2.31,2.31,0,0,0,115,84Z"/><path class="cls-99" d="M10,84.91V82.09a.7.7,0,0,1-.22-.77c.1-.24.2-.36.29-.36l1,0c1.67.58,1.26-3.75,3.63-1.53a5.58,5.58,0,0,1,.64,2.15c-2.06,11.32,0,22.47,1.4,33.65-3.2.66-3.25.62-5.57-4.34-1.85-2-6.76-3.17-1.8-7.15,1.29-1-.57-3.05-.32-4.7.4-2.69-.91-5.59,1-8.12C12.7,88.93,9.59,86.92,10,84.91Z"/><path class="cls-156" d="M14.08,79c-1,.6-1,1.58-1.05,2.57,0,.68.26,1.92-1,1.48-.49-.17-.65-1.34-1-2.06.46-2.12-1.15-3.43-1.95-5.07a4.34,4.34,0,0,1,2.13-2c1.47-.45,3-1.14,4.31.3C16.31,76.19,16.22,77.9,14.08,79Z"/><path class="cls-157" d="M11,75l-1.94.93a4,4,0,0,1-.1-.77C8.31,73.08,7.11,71,9,69a3.68,3.68,0,0,1,2.71,2.45A3.29,3.29,0,0,1,11,75Z"/><path class="cls-156" d="M10.07,81c0,.38-.05.75-.07,1.13-3.85.14-1.42-2.66-1.91-4.09Z"/><path class="cls-158" d="M11.07,71a3.55,3.55,0,0,1-2-2l.09-1.87c1.63-1.09,2-2.48,1-4.21l.06-.79c.83-.89,1-2.19,1.91-3,3.4-1.54,2.72,1.27,3.12,2.93.77,1.2.21,2.25-.38,3.29C13.64,67,13,69,11.66,70.64,11.47,70.77,11.27,70.89,11.07,71Z"/><path class="cls-157" d="M10.14,62.9c1.7,2.16,1.34,3.63-1,4.21Z"/><path class="cls-157" d="M12.11,59.08c0,1.39-.13,2.74-1.91,3,0-.35-.09-.71-.13-1.06.35-.68.69-1.36,1-2Z"/><path class="cls-159" d="M89.94,174l-1-.21L88.06,171a3.21,3.21,0,0,1-1.41-2.33c.14-1.3,1.26-2,1.89-2.94.46-3.89-.26-7.81.29-11.67.28-2,.4-4.82,3.8-2.68a60.79,60.79,0,0,1-.11,22.34A1.85,1.85,0,0,1,89.94,174Z"/><path class="cls-160" d="M87.1,168.89a2.19,2.19,0,0,1,1,2.1,34.72,34.72,0,0,1-3,3.71c-1.28,1.23-.83-.52-1.21-.86l.24-1.81a13.67,13.67,0,0,1,.75-2.43C85.47,168.91,86.11,168.37,87.1,168.89Z"/><path class="cls-161" d="M92,173.92V151.05c-2.78-5.05-.7-10.51-1.36-15.74.14-4.58-.13-9.17.19-13.76a3.7,3.7,0,0,1,1.27-2.44c1.27-.22,1.61.7,2,1.59.81,10.76.15,21.54.39,32.31-.08,5.92.12,11.84-.34,17.75A8.36,8.36,0,0,1,93,175c-.05,1.1.16,2.28-1,3C90.78,176.68,91.05,175.31,92,173.92Z"/><path class="cls-162" d="M93,175q0-11,0-22c1.5-.32,2.3.51,2.88,1.73a31.41,31.41,0,0,1-.79,14.42v1.76A2.86,2.86,0,0,1,95,174Z"/><path class="cls-163" d="M92,173.92c0,1.37.07,2.73.11,4.09,0,.62-.07,1.23-.11,1.85-2.76-1.22-1.69-3.76-2-5.82Z"/><path class="cls-10" d="M95,174l.15-3.1c.82,2.39,2.6,4.41,2.71,7.07l-1.19-.15C96.12,176.53,95.57,175.25,95,174Z"/><path class="cls-164" d="M95.15,169.12q-.09-7.59-.16-15.19c-1.57-5.19-1.24-10.42-.31-15.66,1.88-.86,2.11.71,2.44,1.8a15.82,15.82,0,0,1,.36,5.27c0,2.51-.29,5,.48,7.51a16.71,16.71,0,0,1,.32,4.89c.32,2.86-2.88,5.18-1.25,8.24.31,1.05.63,2.11,1,3.17Z"/><path class="cls-165" d="M96.09,70.92h-.45l-.44,0c0-16.26-.1-32.52,0-48.78,0-4.44,1.9-5.59,7.88-5.32l4.83.36c11.72,3.35,22.68,8.24,32.28,15.92a28.64,28.64,0,0,1,6,5.88C141.59,37.54,138.9,32.87,134,32c-5.4-1.66-10.32-4.47-15.59-6.46a29.91,29.91,0,0,0-9.15-2.27c-3-.29-5.8-1.11-8.72-1.58-1.24-.2-2.34-.28-2.59,1.34a15,15,0,0,1-.29,1.88A11.74,11.74,0,0,0,97.19,28V29.9c0,.45,0,.9,0,1.34,0,.7,0,1.39,0,2.08s0,1.48.06,2.22c.06,1.06.07,2.12.1,3.19,0,.59,0,1.17,0,1.75,0,8.11,0,16.21,0,24.31C97.41,66.91,97.7,69.14,96.09,70.92Z"/><path class="cls-166" d="M151,55c-2.43,1.15-4,3.78-7,4,.51-8-6.42-10.68-11-15-2.73-2.59-6.59-3.74-9.55-6.17-1.67-2.06.17-3.12,1.27-4.4L125,33c5.36.6,9.07,4.23,13.22,7.1,4.51,3.12,7.9,7.37,11.64,11.28A4.67,4.67,0,0,1,151,55Z"/><path class="cls-167" d="M97,25V23c4.61-2.54,9,.38,13.47.63,1.39.08,2.66,1.44,4.29.42.56,0-.46-.56-.16,0,.13.26,0,.38-.38.32-2-.32-4.3.18-5.19-2.43,9.27,1,17.33,5,25,10-1.38,1.7-2.52.5-3.86-.18-1.92-1-4.09-2.09-5.15,1.17v0c-2.35.92-4.23-.51-6.25-1.23-3.24-2-7.07-2.33-10.5-3.77a14,14,0,0,0-4.46-1.1,11.4,11.4,0,0,1-1.28-.32c-1.46-.53-3-.36-4.52-.81A2.27,2.27,0,0,1,97,25Z"/><path class="cls-168" d="M126.78,69.85l-3.71,1.27c.72-5.69-2.47-8.82-6.95-11.57-5.25-3.21-10.23-6.78-16.56-7.56a3.38,3.38,0,0,1-3-2.35,34.59,34.59,0,0,1,0-4.32c2-2.36,4.31-.61,6.47-.32,4.63.62,8.21,4.16,12.88,4.68,5.76,4.47,12.63,7.77,15.64,15.09a2,2,0,0,1-.59,1.28Z"/><path class="cls-169" d="M124,37a65.86,65.86,0,0,1,19.45,14.92c2,2.29,4.08,4.42.54,7.06l-1.87,1.15-.59-.37c-7.18-9.44-15.82-16.87-27.57-20a34.79,34.79,0,0,1-4.7-1.91c-1.13-.81-3.57-.78-3.11-2.55s2.69-1.53,4.31-1.33a25.27,25.27,0,0,1,6.08,2c2.21.85-.91-1.35.55-1.23C120.21,33.1,121.93,35.62,124,37Z"/><path class="cls-170" d="M110,37l4,2a24.09,24.09,0,0,1,13.43,7.71c3.14,3.4,6.21,6.91,10,9.7,1.33,1,2.45,2.3,2.07,4.23-.51,1.12-1.84,1.43-2.44,2.47-1.94,1.16-3.32,3.45-6.06,2.95,0-.35,0-.71,0-1.06,3.49-3,1.72-5.06-.73-8-5.54-6.75-12.83-10.23-20.71-13-4-1.13-8.12-1.82-12.06-3.19A3.21,3.21,0,0,1,96.2,39V38c3.65-2.31,7.41-.51,10.81.35,3.76,1-1-2.24,1-1.55A1.8,1.8,0,0,1,110,37Z"/><path class="cls-169" d="M137.08,63.1A1.82,1.82,0,0,1,139,61c.75-1,1.49-2.09,3-1l.18.2A9.38,9.38,0,0,1,137.08,63.1Z"/><path class="cls-171" d="M19,136c-2.79-.41-1.68-1.65-.6-2.85,2.32-2.57-.36-1.86-1.44-2.2,1.31-1.82,3.93.15,5.19-1.8-.18-.87-.72-1.66-.58-2.6a1.64,1.64,0,0,1,.73-1c1.88-1,3.52,1.23,5.38.38a29.92,29.92,0,0,1,5.08-2.65c1.67-.65,2.52-2.51,4.34-2.95a2.57,2.57,0,0,1,2,.54c.58,1.38-.56,2.2-1.07,3.22C32.75,129.66,25,131.33,19,136Z"/><path class="cls-172" d="M22.18,126.89c1.17.74.94,1.47,0,2.22a7.61,7.61,0,0,0-7.84,1.08c-1.71,1.33-1.91.38-1.37-1.18L14.06,128C16.55,125.94,19.08,124.26,22.18,126.89Z"/><path class="cls-173" d="M22.18,126.89A14.58,14.58,0,0,0,14.06,128c1.68-3.66,3.28-7.22-1.1-10.37-1.9-1.37-.92-5-4-5.7l2.15-1L16,116.07c2.81,1.89,2.74,5.42,4.51,7.9a7.34,7.34,0,0,1,1.38,2.14A3.63,3.63,0,0,0,22.18,126.89Z"/><path class="cls-156" d="M10,84.91c2.78.9,2.06,3.2,2,5.19,0,1.76-1.14,1.09-2,.84C10.66,88.93,8,86.91,10,84.91Z"/><path class="cls-174" d="M167.87,117.89c.43,1.15-.35,2.64,1.27,3.77,1.28-1.36,2.73-2.56,2.9-4.67,2.57.16,1.89,2.74,3,4-2.79,1.31-7.19,1-6.09,6.17l-1.84-.23-.66,0a1.9,1.9,0,0,1-1.53-1.1C165.88,123.16,166.88,120.52,167.87,117.89Z"/><path class="cls-175" d="M168.22,132.86c0,1,1.64,2.18-.19,3.12-4.31,2.14-6.59-1.95-9.8-3.18a6.37,6.37,0,0,1-1-1c-.78-1.68-4.56-3.15-.39-5.21a3.91,3.91,0,0,1,3.13.9c.76.39,1.67.6,2,1.53C163.9,130.56,167.44,129.44,168.22,132.86Z"/><path class="cls-176" d="M162,129.05a2.21,2.21,0,0,1-2-1c-.26-.22-.32-.42-.21-.6s.22-.25.32-.25a4.54,4.54,0,0,0,1-.26,9.3,9.3,0,0,1,6,0l0,0C165.76,128.59,163.4,127.71,162,129.05Z"/><path class="cls-177" d="M158.09,131.85c3.67.52,5.86,4.6,9.94,4.13l.42,1.06a6.16,6.16,0,0,1-3.39,3.09c-3.29.17-4.06-3.82-7-4.24l-1.3-1.68.29-.36C157.68,133.32,157.47,132.37,158.09,131.85Z"/><path class="cls-178" d="M92.09,73.88,92,75a2.47,2.47,0,0,1-2.1.65c-1.6-.59-3.82-.25-4.13-2.77.48-1.35,1.88-2,2.47-3.25.83-16,.1-32.06.38-48.09,0-2.91-.7-6,1.32-8.63.31-1.69-.64-3.66,2.12-5.88Z"/><path class="cls-179" d="M90,12.91q0,27.45,0,54.89c0,1.45.43,3-1,4.17a6.27,6.27,0,0,1-1.37-4.42c-.05-8.76.06-17.51-.16-26.26.37-5,0-10,.16-15-.19-2.65.91-5.56-1.58-7.75a1.65,1.65,0,0,1-.15-1.4c2-.75,1.24-2.91,2.21-4.19Z"/><path class="cls-180" d="M88.13,12.9c-.31,1.58.67,3.82-2.11,4.12l-.3-.38a.62.62,0,0,1,.38-.8C88.21,13.07,83.86,9.63,87,7a3.77,3.77,0,0,0,1,0c.06.38.11.75.17,1.13-.06,1.28.69,2.57,0,3.85A6.43,6.43,0,0,0,88.13,12.9Z"/><path class="cls-181" d="M88.14,11.92c-.33-1.28-1.06-2.57,0-3.85A2.43,2.43,0,0,1,88.14,11.92Z"/><path class="cls-182" d="M167.06,126.91l-6,0,1.21-1.16,2.63,0Z"/><path class="cls-183" d="M160.09,127.19a2.24,2.24,0,0,1-.11.85l-3-1a2.42,2.42,0,0,1-.62-1.42c.77-5.59,4-10.38,5.07-15.9.13-.68.85-.93,1.58-.76,0,1.1-.17,2.28,1,3C164.37,117.48,160.33,121.84,160.09,127.19Z"/><path class="cls-85" d="M166,98c-2-3.17-.54-6.68-1-10C167.06,91.15,165.57,94.67,166,98Z"/><path class="cls-85" d="M164,82a15.24,15.24,0,0,1-2-8C164,76.34,164.11,79.13,164,82Z"/><path class="cls-184" d="M89,41l0,27a1.05,1.05,0,0,1-1.48-.31C86,64.2,86.84,60.53,86.64,57c.39-10.55.25-10.82-9.9-7.23a43.47,43.47,0,0,0-19.23,13,30.88,30.88,0,0,1-3.8,4l-.65.31c-2.13-.24-3.52-1.71-5-3-4.69-2.91-5-3.74-1.49-7.9C56.31,44.45,68.87,37.59,83.82,35a5.14,5.14,0,0,1,4.29.69C89.11,37.34,87.88,39.35,89,41Z"/><path class="cls-185" d="M88,36c-12.11.53-22.6,5.4-32,12.67a63.1,63.1,0,0,0-8,7.28c-3,3.26-2.85,5.34-.07,8.06-3.84-.18-6.21-3-9-5-.35-3.06,1.93-4.86,3.61-6.73C53.31,40.38,66.36,32.71,82.22,30.13,87.93,29.2,88.93,30.21,88,36Z"/><path class="cls-115" d="M86.07,18c5.35.52,2.06,4.63,2.92,7a1,1,0,0,1-1.25,0,8.08,8.08,0,0,1-1.15-1.74c-2.45-1.84-5.11-1-7.63-.42C61.84,27,47.16,35.2,35.94,49.1,34.5,50.88,33.1,52.79,31.05,54c-2.75-.34-1.84-2.4-1.88-4,10-13.25,22.58-23.36,38.38-28.72C73.43,19.3,79.47,16.58,86.07,18Z"/><path class="cls-186" d="M88,23v2a4.08,4.08,0,0,1-2.3,1.82c-10.15,1.83-20,4.46-28.69,10.36C50.75,41.46,44.5,45.79,39.81,52c-1.43,1.89-2.66,4.35-5.74,4l-1-1c-.81-2.14.65-3.39,1.83-4.79,10.89-12.9,24-22.47,40.6-26.54C79.52,22.68,83.73,21.1,88,23Z"/><path class="cls-187" d="M86,26a2.08,2.08,0,0,1,2-1h1q0,8,0,16c-1.63-1.4-.72-3.3-1-5,.67-4.79-1.53-5.46-5.79-4.66C64.09,34.77,49.72,43.93,39.06,59a2,2,0,0,1-2-1c.77-5.16,4.75-8.23,8.06-11.47,10.05-9.85,21.9-16.43,36-18.6C82.79,27.62,84.76,27.53,86,26Z"/><path class="cls-188" d="M88,23C64.39,24.55,46.55,36.08,33,55a2.09,2.09,0,0,1-2-1c2.73-5.36,6.81-9.67,11.19-13.63A80.35,80.35,0,0,1,79.29,21.52C82.13,20.88,85.72,19.06,88,23Z"/><path class="cls-189" d="M86,26c1.27,1.59,1.28,1.61-.48,2a124.7,124.7,0,0,0-18.92,5.38C55,38,46.32,45.93,38.89,55.62c-.6.78-1.22,1.55-1.83,2.33-1-.66-2-1.31-3-2,2.65-1.57,4-4.32,6.06-6.44C52.69,36.43,67.49,27.52,86,26Z"/><path class="cls-142" d="M17.09,55.88c-1.83-2.18-3.15-4.62-.83-7.07,1.82-1.94,4.22-2.71,6.61-.55a1.38,1.38,0,0,1-.78,1.65c-1.38.32-1.5.92-.4,1.8.86.68,1.87,1.23,2.26,2.37,7.41,4.3,14.84,8.57,22.22,12.93a39.1,39.1,0,0,1,3.88,3c.2,2-1.3,1.74-2.48,1.94a8.07,8.07,0,0,1-3.37-1.13c-1.13-.69-2.14-1.55-3.32-2.16s-2.24-1.25-3.3-2c-1.58-1-3.31-1.85-4.91-2.87-1.27-.78-2.73-1.15-4-1.85a13,13,0,0,1-2.16-1.46,27.4,27.4,0,0,0-4.41-2.88C20.86,55.71,18.5,57.18,17.09,55.88Z"/><path class="cls-186" d="M86.07,18C63.56,20.42,45.63,31,31.68,48.64A3.44,3.44,0,0,1,29.17,50c0-.68-.07-1.36-.11-2,5.32-5.13,10-10.89,15.84-15.54C52.54,26.4,61.35,22.88,70,19c3.16.05,6.33.16,9-2,1.31-1.47,3-1.33,4.75-1.2A4.5,4.5,0,0,1,86,17h0C86,17.34,86.06,17.66,86.07,18Z"/><path class="cls-190" d="M54,71c0-.68,0-1.37,0-2,2.23-.54,4,1,6,1.32a6.14,6.14,0,0,1,2.44,1.63c1.36,2.42.95,3.9-2.12,4a7.42,7.42,0,0,1-2.77-1C56.25,73.77,53.67,73.78,54,71Z"/><path class="cls-191" d="M24,54.08c-1.45.06-2.31-1-3.34-1.77s-2.9-1.09-1.88-2.7c.82-1.29,2.29-.64,3.36.3.86.64,1.71,1.3,2.58,1.93C26.69,53.31,25.36,53.7,24,54.08Z"/><path class="cls-192" d="M54,71c.57,2,3,1.53,4,3a5.08,5.08,0,0,1-3.1,1.64c-2.06.3-3.65-.83-5.31-1.77C48.66,73,46.76,73,47,71c1.1,0,2.3.18,3-1A7,7,0,0,0,54,71Z"/><path class="cls-193" d="M60,71c-2.35.39-4.22-.65-6-2l-1-2v0C56.73,66,58.94,67.51,60,71Z"/><path class="cls-194" d="M14,65c.41-1,.82-2,1.24-3l.85,0c2.06,1.46,2.18,3.54,1.85,5.77-.72,2.18-.65,4.75-2.93,6.2l-4,1c0-1.32,0-2.65,0-4h0A20.84,20.84,0,0,0,14,65Z"/><path class="cls-195" d="M17,67.82c.42-2.06-.68-3.88-.91-5.83.66-2.12,1.41-4.15,4.43-3.61-.6-2.17-3-.77-3.42-2.5,2.07.11,4.2-.14,6,1.13,1.24,2.69-1.59,3.71-2.29,5.61C19,63.94,20.32,67.61,17,67.82Z"/><path class="cls-179" d="M86,17l-2,0c-2.77-2.28-6,.55-8.86-.8l-1.11-.12a21,21,0,0,1,10-2.18l2,1.95Z"/><path class="cls-196" d="M75.2,16.19c1.73-.27,3.47-.52,5.19-.84s3.29-.79,3.67,1.64l-5,.05C77.75,16.83,76.26,17.49,75.2,16.19Z"/><path class="cls-197" d="M107.78,174.14c-.7.39-1.11.8-1.38.72-.57-.15-1.33-.45-1.53-.9-.46-1,.54-1,1-.86A7.62,7.62,0,0,1,107.78,174.14Z"/><path class="cls-198" d="M97,166c-2.26-2.67-.35-5.34,0-8,4.68-1.62,9.7-1.77,14.38-3.59,11.66-4.53,21.86-11,29.84-20.77,1.49-1.82,2.1-4.15,3.67-5.9,2.76-.56,4.61.3,5.11,3.27.07,4.68-3.38,7.5-6.07,10.41-10,10.82-22.59,17.41-36.66,21.25-2.18.6-4.61.36-6.91.3S96.83,163.5,97,166Z"/><path class="cls-199" d="M150,131c-1.49-1.3-2.87-2.78-5-3-2.84-.12-4.64-2.47-7.14-3.29-2.17-1.14-4.12-2.64-6.3-3.75a4.1,4.1,0,0,1-1.88-2,2.45,2.45,0,0,1,1.4-2.38,3.56,3.56,0,0,1,1.45-.15c8.92,4.12,17.74,8.42,25.44,14.68a5.31,5.31,0,0,0,.09.79c.18.94,1,2.22-1,2Z"/><path class="cls-200" d="M85.1,170.11c-.33.64-.66,1.28-1,1.92l-6-.2c1.38-1.79,4,.09,5.78-2.18-2-.59-3.81-1.47-5.62-1.57-13.13-.74-23.76-7.3-34.06-14.57C42.35,152.22,40,151.35,39,149c-2.2-4-5.49-7.24-7.92-11.08-.72-1.15-1.32-2.53-.19-3.6,1.33-1.25,2.32.16,3.33.89a8.89,8.89,0,0,1,.92,1.11c9.42,12.64,21.66,21.58,36.16,27.55,3.41,1.39,7.12,1.51,10.58,2.61C83.59,167,86.26,167,85.1,170.11Z"/><path class="cls-201" d="M34,136l-3.74-2.15c2.67,5.49,6,8.92,8.76,12.71.51.69,3,1.67,0,2.44-4.41-2.7-6.57-7.44-10-11-1.19-1.34-1-2.68,0-4l3-2C34,132.68,35.18,133.73,34,136Z"/><path class="cls-67" d="M29,133.93c0,1.35,0,2.69,0,4L26.12,139c-.37-1.34,1.71-2.73-.08-4C26.75,133.81,27.94,134,29,133.93Z"/><path class="cls-202" d="M34,136c.15-1.75-1.43-2.62-2-4,2.46-2.65,5.81-3.69,9-5,3.44,3.11,5.8,7.17,9.27,10.14-.2-1-1.47-2.31.09-3.2s2.85.4,3.72,1.56c4.3,5.77,10.18,9.2,16.62,12.14a47.07,47.07,0,0,0,12.91,3.33c5.31.78,2.33-3.7,3-5.86,0-3-.11-5.91,0-8.86a23.75,23.75,0,0,1,.38-6,3.46,3.46,0,0,1,1-1.46,1.39,1.39,0,0,1,1.55.5c1.39,2.75.71,5.72.91,8.59,0,2.25,0,4.51,0,6.76.44,4.56-2,8.93-.9,13.52-.42,1.72-1.72,1.19-2.79,1a68.49,68.49,0,0,1-32.95-13.84c-1.34-1.05-2.19-2.3-4.94-1.33-3,1-4.81-3.28-7.21-5.19-1.51-1.51-2.88-3.14-4.32-4.85.78,1.58,2.61,3.53.69,4.7s-2.73-1.59-4-2.71Z"/><path class="cls-203" d="M88,146c0,1.16,0,2.32,0,3.48.16,2.84-.79,3.77-3.84,3.16-12.69-2.58-24.51-6.58-32.28-18-.14-.2-.61-.16-1.3-.32,0,2,2.4,3.23,1.26,5.82-4.1-4.22-9-7.37-10.85-13.19.76-1.77,2.57-2.14,4-3l.68.32c3.57,3.59,6.73,7.51,12.38,8.39,2.59.41,4.72,2.91,6.7,4.92a17.33,17.33,0,0,0,11.46,5.18C80.35,143.06,84.46,143.6,88,146Z"/><path class="cls-204" d="M38.05,124l.93-3.11c-.33-1.55.74-2.2,1.81-2.86,3-1,5.36-3.33,8.61-3.7,4,1.32,1.78,3.09.35,4.81-1.66,1.45-3.88,1.75-5.77,2.74h0a8.79,8.79,0,0,1-4,1.29Z"/><path class="cls-205" d="M44,121.9c1.09-1.92,3.08-2.38,4.93-3.08l.45.38c.32.93,1.19,1.69.87,2.83-1.27,1.86-2.73,3.24-5.19,2v-.08C45.71,122.73,45.56,122,44,121.9Z"/><path class="cls-205" d="M40,123.19a6.14,6.14,0,0,1,4-1.29C42.94,123.12,41.91,124.44,40,123.19Z"/><path class="cls-206" d="M146,68c3-2.34,3.16.64,3.86,2.18,3.43,7.57,3,15.67,3.88,23.71.9,8.52-2.16,15.63-3.93,23.3-.75,3.29-3.06,2-5,1.91a1.31,1.31,0,0,1-1.91-.45l.17-.73c1.72.16,2.56-.4,3-2.3,3.22-12.45,5.3-25,1.79-37.66C147,74.65,145.13,71.61,146,68Z"/><path class="cls-207" d="M139,99c2.85-1,1.85,1.24,2,2.41a13.83,13.83,0,0,1-.81,5.72c-.45,1.37-.35,2.78,1.82,1.87-.71,2-.55,4.27-2,6-1.24,1.19-2.59.36-3.9.23a11.16,11.16,0,0,1-2-.54c-1.24-.54-2.45-1.15-3.66-1.76a4.81,4.81,0,0,1-1.1-.86c-.55-.8-1-1.61-.21-2.53.52-.39,1.16-1,1.72-.82,5.58,1.32,5.58-2.62,6-6.22C137.08,101,137.32,99.54,139,99Z"/><path class="cls-206" d="M135.82,114.11l4.2.88,3.06,2.92-.16.21C139.44,118.77,136.9,117.73,135.82,114.11Z"/><path class="cls-208" d="M148,121c1.64.06,2.49-.54,3.32-2.2,3.94-7.87,6-16.59,5.22-24.86-.54-6,1.09-12.9-3.22-18.43-2.06-2.65,1.34-4.93.73-7.53,7,11.1,6.59,23.62,7,36,2.23,3.88-.44,7.31-1,10.93-.39,2.49-1.86,4.6-2.56,7a3.9,3.9,0,0,1-4,3.17C150.93,124.73,148.51,124.14,148,121Z"/><path class="cls-85" d="M153,124c1.62.11,3-.33,3.5-2,1.86-5.91,4.62-11.59,4.55-18,2.44-3.83-.15-8.37,2.06-13.64,1.87,7.08.6,12.86-.07,18.64q-3,8.56-6.08,17.15C155.11,126.37,153.34,126.49,153,124Z"/><path class="cls-208" d="M154,68q-1.5-1.5-3-3C153.49,64.18,153.73,64.41,154,68Z"/><path class="cls-155" d="M120,83l8-5,1-.05c5.17,5.23,4.33,12.27,5.56,18.67.19,1-.64,2.47-1.46,2.33-4.44-.79-3.17,2.83-3.78,4.8-.84,2.73-1.61,5.23-5.29,4.47-2.67-.87-5.63-1.28-6.93-4.33-.09-.29-.16-.57-.23-.87-.13-1.86.67-3.56.95-5.36.17-1.11.32-2.62,1.74-2.67s2.08,1.34,2.41,2.7c.17.74-.23,1.54.3,2.28.89-4.28-.18-8.29-1.37-12.27C120.46,86.18,119.33,84.77,120,83Z"/><path class="cls-154" d="M123.85,107.07c2.75.77,3.92-.47,4.19-3.13a23.43,23.43,0,0,1,2.09-8.07c1.54.42.39,3.1,2.29,2.63s1.11-1.92.88-3.28c-1-5.86-1.84-11.73-4.27-17.23,2.21-2.09,3.09-2,5.37.89,4.86,6.24,2.54,13.57,4.63,20.1-1.85,3.23-.27,7.28-2.63,10.44-1,1.34-1,4.81-3.15.56-.89-1.74-2.86.64-4.36.07-1.48,1.08-2.7.18-4-.5A2.44,2.44,0,0,1,123.85,107.07Z"/><path class="cls-209" d="M120,83c3,5.65,5.23,11.41,3.14,17.94-.39,1.23-.64,3.07-2.35,2.44-1.38-.52-.26-2-.06-3.06.29-1.57.82-3.25-1.23-4.8-1,2.6.07,5.85-2.63,7.54-1.75-.34-3.51-1.12-2.79-3.16A20.48,20.48,0,0,0,114,86.49c-.13-.41.49-1.06.76-1.59A5.16,5.16,0,0,0,119,83C119.36,83,119.69,83,120,83Z"/><path class="cls-210" d="M101,92c1.36,2.66-.41,8.58-3,9.94a72.67,72.67,0,0,1-12.07.36c-2.43-.16-4.93-.39-6.38-2.84a2.3,2.3,0,0,1,.2-1.48c2.66-.67,3.17-3.1,4.23-5.13,3.38-6.44,9.48-8.09,15.18-4.17a7.67,7.67,0,0,1,1.1.85C101,90.22,101.59,90.93,101,92Z"/><path class="cls-211" d="M131.06,116.9l-1.05,2c-1.18.74-2.22.11-3.27-.36-3.23-2-6.38-4.11-9.8-5.78a54.65,54.65,0,0,1-6.06-3.94,13.69,13.69,0,0,0-3.16-2.1,1.93,1.93,0,0,1-1.06-2.18l.41-.51c.32,0,.64,0,1-.07,2.65-1.22,4.28,1.93,6.72,1.58,5.24,1.24,9.14,4.85,13.49,7.66C129.49,114.18,131.43,114.67,131.06,116.9Z"/><path class="cls-212" d="M97,102.05c.72.6,1.45,1.19,2.18,1.78a5.38,5.38,0,0,1-2.17,3.7c-2.46,1.08-4.87,2.38-7.71,2-.9-2.23-4.41-2.07-4.61-5,.51-2.27,2.38-2.65,4.23-3C91.57,101.77,94.33,100.9,97,102.05Z"/><path class="cls-213" d="M97,106.9a3.4,3.4,0,0,1,2.12-3.06c1.85.15,3.78.55,4-2.28a5.92,5.92,0,0,1,.89-2.3,2.75,2.75,0,0,1,3.92-1c1.68.88,0,1.87-.34,2.83a22.66,22.66,0,0,0-.52,2.89v0C104.68,109.25,101.43,110.19,97,106.9Z"/><path class="cls-214" d="M101,92,100,90.09a4.19,4.19,0,0,1-.59-4.56c1.26-1.55,2.08-.51,2.91.5.36.61.21,1.66,1,1.85s.69-.72.85-1.25c1-1.84-1.63-3-.91-4.77a1.32,1.32,0,0,1,1.83.1c2,.7,2,3.36,3.9,4.15C109.49,91.19,107.16,92.92,101,92Z"/><path class="cls-215" d="M128,114l-13-8c-.34-.24-.45-.48-.33-.71s.25-.34.37-.34a2.38,2.38,0,0,1,2.1-1.06l6.72,3.14,1.26,1.7c1.37,1.6,3.38,2.14,5.14,3.09a.82.82,0,0,1,.72.22C131,114.32,129.22,113.78,128,114Z"/><path class="cls-216" d="M97,102.05H88c-1.75.38-3.16,1.76-5,1.75-2.65-1.21-6.76-1.4-4.35-6.17a1.64,1.64,0,0,1,1.46.42c1.33,3.35,4.34,2.66,7,3,3.66.4,7.47-1,11,.91Z"/><path class="cls-217" d="M111.37,89.86c1,3.36.94,5.79-.93,8.06C110.83,95.45,108.33,92.88,111.37,89.86Z"/><path class="cls-218" d="M115,105c0,.35,0,.7,0,1.05-2.6.24-4.5-1.86-7-2.09C110.77,101.53,112.59,105.37,115,105Z"/><path class="cls-219" d="M153,124l4,2.13c0,.31,0,.62.05.93-2.78,2.12,1.21,2.53,1,4l-26-14.18c-1.23-2.33.58-2.6,2.08-3.09l1.7.32a16.5,16.5,0,0,0,7.11,4l1.89,1A3.86,3.86,0,0,0,148,121C149.49,122.26,151,123.56,153,124Z"/><path class="cls-220" d="M113,77.77A1.41,1.41,0,0,0,112,78c-1.64,1-2.91.43-4-.9A22.06,22.06,0,0,0,97,71c-1-2.59-.24-5.29-.5-7.91.52-2.61,2.31-1.88,3.8-1.27,2,.81,4,1.54,5.93,2.41,2.6,1.16,3.75,4.64,7.49,4.24,1.13-.12,2.38,2,1.2,3.52-1,1.29-.44,2.47-.35,3.73A2,2,0,0,1,113,77.77Z"/><path class="cls-221" d="M100,85l0,5.08c-.29,0-.59-.08-.88-.14a7.49,7.49,0,0,0-11.43-1.61c-.83.7-1.17,2.08-2.65,1.83a4.14,4.14,0,0,1-1.19-2.5c-.17-3-2.84-4.57-4.06-7,2.27-4,5.62-6,10.26-5.73l2,0c2.07,1.59,4.79.91,7,2,1.1-.52,1.61.12,2,1l.06.94-.53.46a3.53,3.53,0,0,1-1.37.19c-1.06,0-2.45-1-3.1.37s.8,1.93,1.68,2.58S99.74,83.75,100,85Z"/><path class="cls-222" d="M97,62l0,9-.48.07-.47-.12q0-15.95.11-31.9l.85,1a3.68,3.68,0,0,1,0,5v5a8.47,8.47,0,0,1,1.38,5.11C98.4,57.5,98.81,60,97,62Z"/><path class="cls-223" d="M113,77.77l1.2-1.54a3.86,3.86,0,0,1,1.83-2c1.26-.55,2.49-1.36,3.93-.49.35,1.85-1.24,2.8-1.92,4.17C116.32,77.76,114.56,80.28,113,77.77Z"/><path class="cls-224" d="M101,78c-.66-.34-1.32-.68-2-1-.28-.93-.81-2,.91-2,1.21,0,2.37.3,2.66,1.64C102.86,77.81,101.79,77.82,101,78Z"/><path class="cls-221" d="M105.06,82l-2,0-.67-.17c-1-.68-1.9-1.38-1.35-2.8l.07-.08C103.2,78.9,104.88,79.45,105.06,82Z"/><path class="cls-223" d="M108,77.14a6.73,6.73,0,0,0,4,.9C110,80.86,108.92,79.35,108,77.14Z"/><path class="cls-225" d="M119.92,73.77,116.05,75c.81-2.9-1.94-5.41-.66-8.67.55-1.39-2.65-2.68-4.42-2.94-5.91-.84-9.22-5.72-13.9-8.42,0-1.67,0-3.33,0-5,7.86,1.05,14.43,5,21,9.05,3.28,2,5.1,5.17,7.25,8,1.65,2.19-3.14,1.71-2.26,4Z"/><path class="cls-226" d="M17,67.82c1.77-1.57.85-4.5,3-5.88,5-.23.14,2.76,1.44,3.46a12.68,12.68,0,0,1,2.34-4.53c1.22-1.31,2.52-1.65,3.08.7A224.41,224.41,0,0,0,19.89,85c-.84,7.73-.44,15.45.06,23.16.13,2,.68,3.94-.65,5.72-3,.2-2.79-2.4-3-4-1.06-7.48-2.4-15-1.43-22.56.27-2.15.46-4.28-.72-6.25,0-.68,0-1.35-.05-2A8.53,8.53,0,0,0,15,74C15.66,71.91,16.33,69.86,17,67.82Z"/><path class="cls-227" d="M14.13,81c2.53,1.26,1.94,3.63,1.89,5.7a117,117,0,0,0,2.09,25.6A6.25,6.25,0,0,0,19,114c2.93,2.53,2.84,6.21,3.47,9.54.32,1.68-1,2.28-2.61,1.55-2.27-2.58-2.45-6.06-3.89-9-1.29-7.88-3.72-15.63-3-23.76C13.31,88.54,13.74,84.78,14.13,81Z"/><path class="cls-157" d="M14,65c.07,2.52-.66,4.65-2.92,6A11.25,11.25,0,0,1,14,65Z"/><path class="cls-201" d="M34,136l3.57,2.48c.88-2.32-1-3.1-1.89-4.31-.55-.72-1.76-1.39-.65-2.42s2-.1,2.76.85c1.39,1.81,2.81,3.6,4.21,5.4,11.56,12.44,25.3,21,42.32,23.66,1.46.23,3,.06,4.32.89,1.22,1.4,1.06,2.92.38,4.48l-2,1.88-2,1.22c-2.35-4.33-7-2.71-10.52-4-6.82-2.4-13.45-5-19.29-9.42-3.17-2.37-6.51-4.53-9.62-7A50.79,50.79,0,0,1,34,136Z"/><path class="cls-228" d="M89.06,167c-.2-1.38.47-3-1-4-.77-1.58-.17-2.85.93-4l.07-14a10.6,10.6,0,0,0,0-7l0-9a4.89,4.89,0,0,1-1.1-2.13c-.22-2.57-.54-5.2.47-7.62.61-1.46,1.48-3.78,3.54-1L92,119c0,.67,0,1.33,0,2a22,22,0,0,0,0,13.89q0,8.07,0,16.15c-2.55.34-1.87,2.37-1.92,3.89-.13,4-.12,8-.18,11.94a.47.47,0,0,1-.33.26A1.23,1.23,0,0,1,89.06,167Z"/><path class="cls-229" d="M95.07,138q0,8-.08,16l-1.93-1q0-16.5,0-33c1.29-.46,2,.27,2.67,1.24.8,1.79.57,3.71.71,5.59a11.09,11.09,0,0,1,0,1.63c-.11,2.45.09,4.91-.19,7.36A3.42,3.42,0,0,1,95.07,138Z"/><path class="cls-230" d="M92,134.9c-2.21-.24-1.9-1.93-1.92-3.39,0-3,0-6,0-9,0-1.53.35-2.28,2-1.52Q92,128,92,134.9Z"/><path class="cls-231" d="M95,121l-2-1-1-1V119c-.7-2-1.76-4-.17-6.15,2.25-1.12,3.58-.26,4.3,2C96.37,116.94,96.81,119.16,95,121Z"/><path class="cls-232" d="M95.07,138v-2c1.07-1.85.08-3.93.63-5.84a1.13,1.13,0,0,1,1.91.65c1,4.67,3.88,3.86,7.14,2.78a40.53,40.53,0,0,0,19-12.77c.93-1.12,1.67-2.5,3.27-2.88l2.94,1,2,1.14c4,3.67,4.31,4.53.84,8.83-6.38,7.94-14.38,13.53-24.53,15.68-2.9.61-5.9.88-8.56,2.4-1.53.87-2.85.72-3.74-1C95.6,143.32,97,140.44,95.07,138Z"/><path class="cls-233" d="M138,124c2.86.42,4.94,2.19,7,4,.36,4-2.52,6.66-4.79,9-10.89,11-23.55,19-39.3,21.26A23.81,23.81,0,0,1,97,158v-5c-1-2.85,1.19-3.08,2.88-3.12,12.9-.31,22.73-7.39,32.12-15C135.18,132.34,138,128.69,138,124Z"/><path class="cls-234" d="M138,124c1.67,2,1.46,3.32-.05,5.86-4.5,7.58-12.1,11.44-18.82,15.88A32.43,32.43,0,0,1,101.88,151c-1.75,0-4.22-1.11-4.85,1.95-1.9-2.11-.62-4.68-1-7,3.52,1.53,5.79-1.92,9-2.2,10.45-.87,18.53-6.7,25.59-14,2.68-2.78,5.21-5.9,1.36-9.74A20.2,20.2,0,0,1,138,124Z"/><path class="cls-235" d="M124,37c-2.49-.14-4.36-2.42-7-2-2.52,1.77-4.39-.63-6.46-1.19-4.77-1.29-9.8-1.62-14.36-3.74l0-2.11c2.72-2.13,5.67-1.27,8.51-.52,4.77,1.26,9.58,2.34,14.36,3.54l6,2c-.08.67,3.05,1.8-.3,2C123.09,35.12,123.81,36.18,124,37Z"/><path class="cls-222" d="M96.21,30.07a35.62,35.62,0,0,1,17.53,4.13A6.89,6.89,0,0,0,117,35c.59.92,2.46,2.45-.66,1.86s-5.84-2.49-9.48-1.63L110,37h-2c-4.3,1.59-8.18.68-11.78-2,0-.7,0-1.41,0-2.11,1.58-1.44,3.25-.82,5-.32-1.53-.85-3.59-.17-4.94-1.57A2.93,2.93,0,0,1,96.21,30.07Z"/><path class="cls-236" d="M119.05,31c-4.13,1.25-8-.65-11.73-1.57A43.51,43.51,0,0,0,96.18,28c-.13-1.11-.29-2.24.82-3L98,25c1.5,1.19,3.5-.17,5,1h0c1.49,1.24,3.5-.16,5,1C111.74,28.23,115.93,28.14,119.05,31Z"/><path class="cls-237" d="M109,22c1.66,1.47,3.82,1.7,5.78,2.87L97,23c-1.18-3.18,1-3.09,2.94-2.82C103,20.65,106,21.39,109,22Z"/><path class="cls-238" d="M96.25,35.05,108,37c1,.78,2,1.55,3.8,2.92L96.19,38Z"/><path class="cls-239" d="M96.23,31.05c2.18-.32,4.07.41,6.92,1.89h-7Z"/><path class="cls-235" d="M108,27c-1.69-.22-3.6.67-5-1C104.72,26.22,106.63,25.35,108,27Z"/><path class="cls-235" d="M103,26c-1.69-.22-3.59.65-5-1C99.72,25.22,101.63,24.34,103,26Z"/><path class="cls-240" d="M110,43c7.79,2.77,15.61,5.46,20.53,12.83a10.4,10.4,0,0,0,2,2.16c3.72,3.08,3.37,4.71-1.55,7-2.39-4.88-7-7.51-10.93-10.89C118.63,52.82,117,51.75,116,50a7.32,7.32,0,0,0-3.57-1.71C108.51,47.87,108.09,46,110,43Z"/><path class="cls-241" d="M110,43c.41,2.14-.09,4.88,3.76,4.21,1.44-.25,2.15,1.32,2.24,2.79-1.34-.47-.1,3.34-2.3,1.4C109,47.2,103,46.12,97.07,45c0-1.66,0-3.33,0-5C101.56,40.2,105.79,41.62,110,43Z"/><path class="cls-242" d="M142,59.93l-3,1c-1.48-5-6.76-6.47-9.65-10.25-4-5.22-8.56-10-15.32-11.72,9.11.55,15.13,6.76,21.42,12.15C138.15,53.44,142.09,55.34,142,59.93Z"/><path class="cls-243" d="M33,63l5,3-.4.6c-4.53,4.08-5.5,9.79-7,15.27-3,12.55-1.32,24.83,2.08,37,.47,1.69,1.72,3.32.28,5.11l-5,3c-3-3-3.16-7.21-4.31-11C20.62,105.79,20.52,95.39,22,85c.29-2,.37-4.36,2.07-6,3.84,1.26.32,4.19,1.45,5.75.67-7.4,3.72-14.39,7-21.32C32.66,63.25,32.85,63.11,33,63Z"/><path class="cls-244" d="M25.05,79c-3.85,12-3.15,24-.15,35.94,1,4,2.09,8,3.14,12-2.45,2.79-3.85-2.39-6.14-.8l-2-1c1.26-.23,2.4-.69,1.52-2.21-1.58-2.77-1.31-6-2.38-8.88-1.35-8.4-1-16.87-1-25.32,0-1.59-.55-3.37,1-4.68,1.67,1.65.73,3.74.9,5C20.73,79.35,22.79,69.52,29,61l4,2V63a37.44,37.44,0,0,0-5.29,11C27.2,75.82,27.38,78.14,25.05,79Z"/><path class="cls-245" d="M33.05,124c-4.79-10.73-4.93-22.26-5.51-33.65-.15-3.08.22-6.61,2.5-9.33,1,1.54.29,3.22.37,4C31.2,78.54,32.79,71.59,38,66l0,0,3,2c0,.22-.11.44-.16.67a102.1,102.1,0,0,0-5,11.93c-.81,1.55-.54,3.26-.72,4.9a12.28,12.28,0,0,1-.38,2.34c-.69,9.63-.83,19.21,2.37,28.5.55,1.61,1.09,3.18-.15,4.7C35.74,122,35.28,124.17,33.05,124Z"/><path class="cls-246" d="M37.05,121c-3.59-9.48-4.43-19.34-4-29.37.07-1.58-.53-3.34,1-4.63a2.11,2.11,0,0,1,.65,2.25C35.19,82.37,38,75.16,41,68l0-.07a3.38,3.38,0,0,1,3,2,9.23,9.23,0,0,1-.74,5.83,54.74,54.74,0,0,0-2,35.59c.7,2.5,1.63,5.18-.36,7.63L39,120.91Z"/><path class="cls-247" d="M90,75a24.75,24.75,0,0,0-10,6c-.7,2.55-1.73,4.81-4.71,5.34a2.7,2.7,0,0,1-1-.82c-1-1.8-3-2.51-4.18-4.09-.59-1.31-2.52-2.66.07-3.92,3.26,1.18,5.84.32,8.47-2,1.94-1.71,4.19-4,7.42-2.45C86.9,74.6,89.16,73.37,90,75Z"/><path class="cls-248" d="M86,73a13.65,13.65,0,0,0-7.59,4.07c-2.6,2.81-5.29,3.39-8.39.93-.9-.51-1.62-1.09-.92-2.25,7.78,1,12.65-5.07,18.91-7.76h1c0,1.33,0,2.66,0,4Z"/><path class="cls-249" d="M60,71c-2.05-1.83-4.12-3.61-7-4,2.35-5.11,6.43-8.72,10.85-11.85a52.17,52.17,0,0,1,19.33-8.52c4.23-.91,5.09.21,4.82,3.91-.12,1.82,0,3.65,0,5.48-5.71,2.85-12.23,3.9-17.31,8.22-2.79,2.37-5.66,4.55-7.44,7.83A1,1,0,0,1,62,72,2.14,2.14,0,0,1,60,71Z"/><path class="cls-250" d="M63,72c-1.28-2.08.49-3,1.62-4.1C71.24,61.57,78.58,56.71,88,56q0,6,0,12c-.07,1,.16,2.37-.88,2.62-4.78,1.13-8.47,4.06-12.31,6.83-2.35,1.69-3.67-1.69-5.79-1.47C66.34,75.73,64.09,74.78,63,72Z"/><path class="cls-251" d="M41.05,119c.15-7.45-3.67-14.2-3.21-21.9.57-9.52,2-18.59,6.26-27.15L47,71l3,2a44.22,44.22,0,0,0-4,11.64c-.67,4.08-1.89,8,1.51,12,2.09,2.47,1.59,6.62,2.55,10a17.1,17.1,0,0,0,2,5c.67,2.66-2.08,2.27-3.08,3.45C46.32,116.23,44.14,118.52,41.05,119Z"/><path class="cls-188" d="M29,61c-.38,3.55-2.56,6.4-3.83,9.61A58.61,58.61,0,0,0,21,90.24c0,.82-.21,1.66-1.94,2V84a99.5,99.5,0,0,1,7-23c.29-.37.39-.94,1-1Z"/><path class="cls-244" d="M27,60l-1,1c-2.86.12-2.93,2.76-4,4.48-.79,1.3-.49,3.21-2.17,4.13-1.63-1.72.34-2.62.6-3.87s2.48-3-.54-3.79L23.13,57C24.54,57.87,26.33,58.21,27,60Z"/><path class="cls-252" d="M71,81.05c1,1.63,3.93,1.27,4,3.85a2.49,2.49,0,0,1-2.76,1.71,8.85,8.85,0,0,1-2-.6c-4-2.62-8.13-4.9-12.23-7.3-1.3-1-2.64-1.95-3-3.72.71-1.19,1.89-.95,3-1l2,1A17.34,17.34,0,0,1,71,81.05Z"/><path class="cls-253" d="M71,81.05,60.07,75c2.88.49,2.28-1.32,2-3h1l6,4,1,2C68.83,79.48,71.15,79.89,71,81.05Z"/><path class="cls-254" d="M55.05,75l3.08,2.93c-.9,3.36-2,6.64-2.83,10-1.9,7.93,2.25,13.64,6.23,19.55a2.67,2.67,0,0,1-.15,1.48c-1,1.32-2.43,1.74-3.88,2.18-1.84.11-3.37,2.29-5.44.82-5.32-2-2.56-7.41-4.55-10.88-1.08-1.89.3-4.66-2.88-6.16-1.6-.76-.84-4.06-.49-6,1-5.65.66-11.87,5.93-15.94Z"/><path class="cls-255" d="M134.12,113.79c-.51,1.16-2.2,1.52-2.08,3.09l-.49.05-.49,0c-.46-1.58-2.28-1.67-3.09-2.86l3-2A5.35,5.35,0,0,1,134.12,113.79Z"/><path class="cls-256" d="M45,124c2-.42,3.94-1,5-3a3.23,3.23,0,0,1,4.26-2.14c5.63,5.28,11.87,9.84,17.76,14.81,2.18,1.83,4.83,1.85,7.53,1A8.58,8.58,0,0,1,88,136v10c-6.78-1.75-14.11-.94-20.51-4.58a19.86,19.86,0,0,1-3.39-2.67c-3-2.66-5.78-5.29-10.35-6.07C49.68,132,46.76,128.14,45,124Z"/><path class="cls-257" d="M88,136c-3.56-.27-7.12-1.35-10.6.67-1.43.84-3.2-.09-4.22-.86-6.11-4.56-12-9.34-18-14.15-.67-.54-.82-1.73-1.2-2.62,4.26-4,8.51-8.09,14.88-8.32.32.42.53,1.09.2,1.35-4.08,3.2-1.85,5.09.86,8,5,5.38,11.73,7.19,18,10Z"/><path class="cls-258" d="M88,130c-9.65.07-15.81-6.4-22.27-12.12-1.34-1.18-2.12-3.56.81-4.67A3.71,3.71,0,0,0,69,110.9c-.36-1.57.73-2.2,1.82-2.83a7.43,7.43,0,0,1,4.32-.78c2.65,1.36,4.55,3.73,7.1,5.22,6.13,1.83,7.26,6.3,6.26,11.88a1.89,1.89,0,0,1-1.26,1.34,5.28,5.28,0,0,1-2.9.19c1.27,1,3.84.41,3.69,3.06C88,129.31,88,129.64,88,130Z"/><path class="cls-259" d="M89,159a6.66,6.66,0,0,1-.93,4c-11.57-.28-21.93-4.19-31.24-10.84-4.29-3.07-8.82-5.9-12.23-10.06-1-1.26-2.58-2.17-2.56-4.08l6.68,5.8c1.62-1.13-1-2.49.63-3.64A88.78,88.78,0,0,0,70.89,154C76.7,156.62,83.3,156.1,89,159Z"/><path class="cls-257" d="M88,129c-1.89-2.49-6.16-.65-7.91-4.38L88,125c.71.47.31,1.48,1,2v2H88Z"/><path class="cls-161" d="M89,138a5.9,5.9,0,0,1,0,7Z"/><path class="cls-205" d="M52.06,112l5.08-2c.77,1.11,2.62.89,3,2.47-3.23,3-6.26,6.23-11,6.62l-.23-.28c.18-1.26,3.9-2.39.13-3.79C49.44,113.41,51.28,113.23,52.06,112Z"/><path class="cls-199" d="M49.14,119.1,60.05,112c.16-.16.31-.33.46-.51,1.91-.74,3.77-1.56,4.94-3.39a6.49,6.49,0,0,1,3.84-2c1.72.29,4.21.13,1.78,2.93L69,110.91c-5.66,1.46-9.66,6-15,8.11l-4,2C48.46,121,48.36,120.26,49.14,119.1Z"/><path class="cls-255" d="M130.25,111.86c-2.26-.12-4.22-.74-5.14-3.09l3.78,1.28Z"/><path class="cls-260" d="M91.58,100c-1.73-.09-4.67.39-5-2.26-.49-4.56,2-6.78,6.43-6.69,2.75,0,6.21-.38,6.49,3.55C99.79,97.87,96.39,100,91.58,100Z"/><path class="cls-216" d="M85,90c2.43-5.87,8-3.69,12.24-4.42,2-.35,1.62,2.7,1.82,4.4-5.81-4.29-11-2.84-14.14,4C83.18,97.72,82.94,98,81,98c-1.57-3.06,1.93-4.41,2.3-6.82A2.49,2.49,0,0,1,85,90Z"/><path class="cls-261" d="M84.07,91.14c.65,3-3.09,4.1-3,6.85a7.3,7.3,0,0,0-.94.06L79,97.93a2.73,2.73,0,0,1,.26-2.51,24.33,24.33,0,0,1,2.7-3.62,3.93,3.93,0,0,1,1-.85A1,1,0,0,1,84.07,91.14Z"/><path class="cls-262" d="M127.07,117.92c-5.63,10.07-15,14.89-25.52,18-5.8,1.69-3.63-4-5.49-5.92-.73-.48-.35-1.5-1-2,0-.33,0-.66,0-1,1-2.51.19-5.14.49-7.7.16-1.34-.66-3.06,1.34-3.73,2.43.32,1.42,2.18,1.46,3.47.15,4.72,1.8,5.82,6.12,3.67,5-2.52,9.72-5.54,12.55-10.7A25.13,25.13,0,0,1,127.07,117.92Z"/><path class="cls-263" d="M117,112a2.51,2.51,0,0,1-.14,2.71c-3.37,5.06-8.57,7.72-13.8,10-4.5,1.91-6.38.06-6-4.89A22.54,22.54,0,0,1,98,116c1.13-1.68,3.18-2.19,4.53-3.58a10.54,10.54,0,0,1,2.25-1.36c2.36-.41,3.34-3.67,6.2-3A21.12,21.12,0,0,1,117,112Z"/><path class="cls-228" d="M105,112l-2,1c-2.56.9-4.73,3.4-7.88,1.93-.32-1.91-1.63-2.19-3.24-2-1.83,3.42-4.62,3.26-7.46,1.72-1.14-.61-2.35-1.07-3.47-1.71-2.2-1.4-4.42-2.77-5.93-5-.68-2,.69-3.08,1.89-4.23a2.19,2.19,0,0,1,2.24.58c2.54,3.14,6.28,3.6,9.81,4.54l8-2c4.14,1.77,7.42.57,10.06-2.9.09.78.14,1.57,1,2C110.89,109.94,106.26,110.09,105,112Z"/><path class="cls-218" d="M105,112c.49-2.25,4.55-2.69,3-6a3,3,0,0,1,3,2C108.73,108.89,107.87,111.94,105,112Z"/><path class="cls-264" d="M89,108.88c-5.54,2.12-8.49-2-11.91-5-2.59,1.3-5.17,2.65-8.1,3L66,108.84a7.59,7.59,0,0,1-3.22,1.73c-1-.09-2.1-.15-1.78-1.68,0-.31.07-.62.1-.93,2.52-3.1,6.34-4.32,9.47-6.54a13.27,13.27,0,0,1,1.17-.64c1.92-.84,2.61-2.36,2.65-4.38a6.47,6.47,0,0,1,1.57-4.59,1.69,1.69,0,0,1,1.27,0c1,1.32,1.58,3,2.87,4.16-.36.64-.71,1.29-1.07,1.94-1.67,4.1,2.55,3.49,4,5.06.75.57,1.64,1,2,2C86.26,106.37,88.51,106.74,89,108.88Z"/><path class="cls-228" d="M85,105a3.38,3.38,0,0,1-2-2l5-.94Z"/><path class="cls-265" d="M100,85c-.72-.37-1.42-.78-2.16-1.12-2.29-1.06-5-2.32-3.34-5.28,1.49-2.61,3.65,0,5.49.44A9.49,9.49,0,0,0,103,82h0c1.73,1.23,3.1,2.61,2,5-1-.17-2-.65-3,0A3.29,3.29,0,0,0,100,85Z"/><path class="cls-266" d="M102.06,87c1.48-.37,0-2.08,1.18-2.63L105,87c.91,1.8.35,3-1.64,2.83C101.91,89.67,100.33,88.93,102.06,87Z"/><path class="cls-267" d="M97.07,55,119,66.32c.17.44.35.88.53,1.32-4.05-.68-5.44.43-3,3.07,1.78,1.94-.79,2.86-.48,4.33l-1.89,1.19c-.19-1.72-4.69-3.52.26-5.3.9-.32-1-1.63-1.88-2.13-1.08-.58-2.35-1.18-2.05,1,.11.79.61,1.81-.81,1.7-.89-.08-1.7-1-1.43-1.74,1.5-4-1.77-4.53-4-5-2.6-.59-4.45-2.9-7.24-2.77Z"/><path class="cls-268" d="M75,86c2.48-.88,2.75-3.92,5-5.06,3.31.65,4.09,3.42,5,6a1.21,1.21,0,0,1-1.1.43c-.82-.2-1.6-.52-2.44-.65-2.19-.39-4.21,1.59-6.44.46A1,1,0,0,1,75,86Z"/><path class="cls-214" d="M103,82a2.87,2.87,0,0,1-3-2.94l1,0Z"/><path class="cls-269" d="M84.13,87h.92c0,1,0,2,0,3l-1,1.17-.46-.06h-.47l-.38-.45a3.23,3.23,0,0,1,0-1.16C83.05,88.55,83.17,87.53,84.13,87Z"/><path class="cls-202" d="M81,113c3.64.47,7.29,3.88,10.93,0l.06,6c-1-.84-2.17-2-2.5.33-.37,2.53-.34,5.11-.49,7.67a2,2,0,0,1-1-2C90,118.47,85.77,115.57,81,113Z"/><path class="cls-164" d="M95.18,114.92c2.9.46,5-2.38,7.88-1.93-1.09,2-3,2.64-5,3-2.47.34-1.81,2.28-2,3.84-.31,2.39.9,5-1,7.16,0-2,0-4-.08-6S95.12,116.94,95.18,114.92Z"/><path class="cls-164" d="M95.06,128a2.18,2.18,0,0,1,1,2c-.37,2,.78,4.24-1,6Q95.07,132,95.06,128Z"/><path class="cls-270" d="M25.05,79c1.69-4.6,2.27-9.57,5-13.82.79-1.23,1.47-2.13,3-2.15C32.3,69.49,28.51,74.94,27,81.2c-.67,2.67,0,5.78-2.51,8.13Q24.74,84.16,25.05,79Z"/><path class="cls-271" d="M38,66c-2.58,6.53-6,12.74-7.39,20.07-1-1.78-.39-3.5-.58-5.11-.28-5.15,3-9.15,4.55-13.7C35.08,65.87,36.69,66,38,66Z"/><path class="cls-272" d="M41,68c.15.47.55,1,.43,1.38-2.11,6.94-5,13.61-6.21,21.21C33.55,89.22,34.26,88,34,87c0-.66,0-1.33,0-2,1.22-1.49-.19-3.51,1-5C36.89,75.92,36.89,70.93,41,68Z"/><path class="cls-246" d="M35.05,80c-.25,1.68.66,3.6-1,5C34.28,83.3,33.38,81.39,35.05,80Z"/><path class="cls-261" d="M75,86c0,.36,0,.72.07,1.08a4.52,4.52,0,0,1,1.7,3,2.54,2.54,0,0,1-.74,1.9c-1.38,3.32,1.56,8.4-4,10-3.33-5.17-3.32-11.71,0-16l3-1C75,85.27,75,85.63,75,86Z"/><path class="cls-273" d="M71,102a34.75,34.75,0,0,1-10,5.94c-3.62-2.83-7.5-7.63-7.3-10.65.43-6.41-1.85-14.11,4.38-19.39,4.7,1.64,8.56,4.76,12.83,7.16A37.42,37.42,0,0,0,71,102Z"/><path class="cls-274" d="M71,102A18.6,18.6,0,0,1,71,85.08L72,85.9c-1.71,5.34-1.11,10.69,0,16A4.58,4.58,0,0,1,71,102Z"/><path class="cls-273" d="M49.21,91.17c-.42-4.93,1.21-9.17,3-13.36.37-.87,1.07-1.88,2.25-1.14a1.79,1.79,0,0,1,.24,1.74C51.93,82.18,52.9,87.49,49.21,91.17Z"/><path class="cls-275" d="M61,108.89a2,2,0,0,0,2,1c.44,2.72-2.41.71-2.93,2h0c-1.37-.07-2.93.13-2.92-2Z"/><path class="cls-203" d="M51.65,127.22a4.92,4.92,0,0,1,1,1.44c.16.59-.41.8-.84.45a8.87,8.87,0,0,1-1.15-1.48Z"/><path class="cls-276" d="M69,107c2.76-.85,4.54-4.32,8.1-3,.09,1.74-1.51,2.64-2,4.08l-4,1C72.17,106.53,70.21,107.13,69,107Z"/><path class="cls-205" d="M60.05,112,63,110c.72-1.1,1.92-.9,3-1.11C64.94,111.67,62.69,112.2,60.05,112Z"/><path class="cls-277" d="M80.05,96c-3.15.31-3.1-1.81-3-4,1.94-.69,3.88-1.48,5.86-.14C82,93.26,81,94.62,80.05,96Z"/><path class="cls-269" d="M82.89,91.89c-2-.14-3.87,1.64-5.86.14q-.48-.06-1-.09c0-.67,0-1.34,0-2a2.13,2.13,0,0,1,1.16-.6,5.28,5.28,0,0,1,1.32.11c1.43.5,3.11.21,4.33,1.36l.28.29C83.06,91.36,83,91.63,82.89,91.89Z"/><path class="cls-278" d="M77.16,89.77l-1.11.16c-.52-.88-1.24-1.7-.94-2.85,2.38-.21,4.4-2.52,7-1.24-.06.22-.12.43-.17.64C80.74,88.11,78.58,88.4,77.16,89.77Z"/><path class="cls-278" d="M84.13,87c-.13,1.09.08,2.3-1.06,3-.16-.13-.32-.26-.49-.38A4,4,0,0,1,82,86.08l.16-.23Z"/><path class="cls-278" d="M82.86,90.8c-1.65.06-3.43.84-4.78-.84a3.47,3.47,0,0,1,4.81-.13l.18.19A3.46,3.46,0,0,1,82.86,90.8Z"/><path class="cls-279" d="M82.89,89.83,78.08,90a4.07,4.07,0,0,1-.92-.19c.08-3.23,3.15-2.55,4.83-3.69A4.45,4.45,0,0,1,82.89,89.83Z"/></g></g></svg>