<svg xmlns="http://www.w3.org/2000/svg" viewBox="0 0 185.22 186.96"><defs><style>.cls-1{fill:#fdfdfd;}.cls-2{fill:#745430;}.cls-3{fill:#574224;}.cls-4{fill:#584225;}.cls-5{fill:#634b2a;}.cls-6{fill:#624a27;}.cls-7{fill:#553d1f;}.cls-8{fill:#5f4a24;}.cls-9{fill:#5f4922;}.cls-10{fill:#c7bb7d;}.cls-11{fill:#644b2e;}.cls-12{fill:#75572b;}.cls-13{fill:#5e4a2a;}.cls-14{fill:#6c5428;}.cls-15{fill:#4e3920;}.cls-16{fill:#614622;}.cls-17{fill:#6a4e28;}.cls-18{fill:#473623;}.cls-19{fill:#71572d;}.cls-20{fill:#73582f;}.cls-21{fill:#6c5025;}.cls-22{fill:#382d22;}.cls-23{fill:#8e7d40;}.cls-24{fill:#644a28;}.cls-25{fill:#ba9f6a;}.cls-26{fill:#e2d49d;}.cls-27{fill:#7c6d37;}.cls-28{fill:#c3b277;}.cls-29{fill:#403d37;}.cls-30{fill:#836038;}.cls-31{fill:#63492a;}.cls-32{fill:#312b26;}.cls-33{fill:#9a8f4e;}.cls-34{fill:#825f37;}.cls-35{fill:#362a20;}.cls-36{fill:#4b3928;}.cls-37{fill:#ada061;}.cls-38{fill:#332d28;}.cls-39{fill:#926f40;}.cls-40{fill:#846138;}.cls-41{fill:#977443;}.cls-42{fill:#8d6b3e;}.cls-43{fill:#7d5a34;}.cls-44{fill:#735430;}.cls-45{fill:#392f24;}.cls-46{fill:#736737;}.cls-47{fill:#a98751;}.cls-48{fill:#8c7f41;}.cls-49{fill:#87653a;}.cls-50{fill:#997543;}.cls-51{fill:#b3935b;}.cls-52{fill:#926f3f;}.cls-53{fill:#89663b;}.cls-54{fill:#b08f57;}.cls-55{fill:#9f804c;}.cls-56{fill:#372e24;}.cls-57{fill:#ceba81;}.cls-58{fill:#987746;}.cls-59{fill:#d9c892;}.cls-60{fill:#c7aa72;}.cls-61{fill:#b0a368;}.cls-62{fill:#8f7847;}.cls-63{fill:#c0a46d;}.cls-64{fill:#9e7845;}.cls-65{fill:#906b3e;}.cls-66{fill:#bca86f;}.cls-67{fill:#4b3922;}.cls-68{fill:#7c6035;}.cls-69{fill:#8b6d3e;}.cls-70{fill:#c9b680;}.cls-71{fill:#86673c;}.cls-72{fill:#b3a767;}.cls-73{fill:#a38653;}.cls-74{fill:#392e23;}.cls-75{fill:#352c22;}.cls-76{fill:#a79c60;}.cls-77{fill:#856237;}.cls-78{fill:#8a7d3e;}.cls-79{fill:#342c23;}.cls-80{fill:#745e2d;}.cls-81{fill:#9d9887;}.cls-82{fill:#80633b;}.cls-83{fill:#8f6e3f;}.cls-84{fill:#554622;}.cls-85{fill:#cabb7e;}.cls-86{fill:#4f3f25;}.cls-87{fill:#987442;}.cls-88{fill:#3a2f23;}.cls-89{fill:#4e3c22;}.cls-90{fill:#2d2312;}.cls-91{fill:#e2d39a;}.cls-92{fill:#aa995f;}.cls-93{fill:#bfb270;}.cls-94{fill:#a39758;}.cls-95{fill:#c6b87c;}.cls-96{fill:#a08756;}.cls-97{fill:#a37c47;}.cls-98{fill:#b0a563;}.cls-99{fill:#a0814d;}.cls-100{fill:#493a24;}.cls-101{fill:#c0a169;}.cls-102{fill:#d1b983;}.cls-103{fill:#7c5f38;}.cls-104{fill:#937341;}.cls-105{fill:#48453f;}.cls-106{fill:#43413c;}.cls-107{fill:#3d2e1a;}.cls-108{fill:#393731;}.cls-109{fill:#745833;}.cls-110{fill:#8d7040;}.cls-111{fill:#d8cc8f;}.cls-112{fill:#aca06b;}.cls-113{fill:#373129;}.cls-114{fill:#75522f;}.cls-115{fill:#9d7c47;}.cls-116{fill:#3a3831;}.cls-117{fill:#7f5f36;}.cls-118{fill:#42403a;}.cls-119{fill:#352f28;}.cls-120{fill:#c1b676;}.cls-121{fill:#afa364;}.cls-122{fill:#cfc593;}.cls-123{fill:#3f301b;}.cls-124{fill:#ab8852;}.cls-125{fill:#c1b574;}.cls-126{fill:#2e2a27;}.cls-127{fill:#bfb475;}.cls-128{fill:#463c31;}.cls-129{fill:#7b5e36;}.cls-130{fill:#87643a;}.cls-131{fill:#9f804a;}.cls-132{fill:#3b342c;}.cls-133{fill:#8a6a3d;}.cls-134{fill:#68552b;}.cls-135{fill:#d1bf89;}.cls-136{fill:#35302a;}.cls-137{fill:#a3824c;}.cls-138{fill:#d2bc82;}.cls-139{fill:#8e753c;}.cls-140{fill:#dbcb93;}.cls-141{fill:#d2bc83;}.cls-142{fill:#8a6c3d;}.cls-143{fill:#815d34;}.cls-144{fill:#a98650;}.cls-145{fill:#71512f;}.cls-146{fill:#7e6135;}.cls-147{fill:#9d7643;}.cls-148{fill:#9b7946;}.cls-149{fill:#b9985f;}.cls-150{fill:#3b3831;}.cls-151{fill:#342f29;}.cls-152{fill:#d2bb83;}.cls-153{fill:#8d6a3e;}.cls-154{fill:#b99d66;}.cls-155{fill:#a5834d;}.cls-156{fill:#89703d;}.cls-157{fill:#c2b572;}.cls-158{fill:#8e8878;}.cls-159{fill:#aaa595;}.cls-160{fill:#aca797;}.cls-161{fill:#ada99b;}.cls-162{fill:#b7b4a9;}.cls-163{fill:#8b6e45;}.cls-164{fill:#826338;}.cls-165{fill:#ddd192;}.cls-166{fill:#80643b;}.cls-167{fill:#e5dbac;}.cls-168{fill:#a2834f;}.cls-169{fill:#7c6134;}.cls-170{fill:#baac71;}.cls-171{fill:#957445;}.cls-172{fill:#604829;}.cls-173{fill:#cdbe7f;}.cls-174{fill:#d6c38c;}.cls-175{fill:#936f3f;}.cls-176{fill:#4c3c21;}.cls-177{fill:#c7bb7e;}.cls-178{fill:#81633c;}.cls-179{fill:#392d15;}.cls-180{fill:#48463e;}.cls-181{fill:#413f3a;}.cls-182{fill:#3b3933;}.cls-183{fill:#9e7a47;}.cls-184{fill:#795a34;}.cls-185{fill:#5c503c;}.cls-186{fill:#4d4b43;}.cls-187{fill:#58554c;}.cls-188{fill:#514e47;}.cls-189{fill:#5d5a50;}.cls-190{fill:#866941;}.cls-191{fill:#735631;}.cls-192{fill:#362918;}.cls-193{fill:#57452d;}.cls-194{fill:#2a2012;}.cls-195{fill:#392c1b;}.cls-196{fill:#c4a56b;}.cls-197{fill:#44423c;}.cls-198{fill:#3f3d37;}.cls-199{fill:#9c7946;}.cls-200{fill:#4f4c45;}.cls-201{fill:#9e7d48;}.cls-202{fill:#4a3822;}.cls-203{fill:#54514a;}.cls-204{fill:#4d4b44;}.cls-205{fill:#474642;}.cls-206{fill:#6c512f;}.cls-207{fill:#47351f;}.cls-208{fill:#9d7a46;}.cls-209{fill:#544530;}.cls-210{fill:#3e3c36;}.cls-211{fill:#474541;}.cls-212{fill:#535048;}.cls-213{fill:#4e4b44;}.cls-214{fill:#45433d;}.cls-215{fill:#c1a268;}.cls-216{fill:#3c2d1a;}.cls-217{fill:#5a4c36;}.cls-218{fill:#d3cdb8;}.cls-219{fill:#c6c0ad;}.cls-220{fill:#bfbbab;}.cls-221{fill:#b7b2a1;}.cls-222{fill:#beb9a9;}.cls-223{fill:#4a4740;}.cls-224{fill:#b08e55;}.cls-225{fill:#6d5332;}.cls-226{fill:#2b2013;}.cls-227{fill:#ebe5ce;}.cls-228{fill:#af9058;}.cls-229{fill:#e5e0ca;}.cls-230{fill:#8c704a;}.cls-231{fill:#684e2c;}.cls-232{fill:#5f4729;}.cls-233{fill:#c9af68;}.cls-234{fill:#b3955e;}.cls-235{fill:#c4ac70;}.cls-236{fill:#d8cdab;}.cls-237{fill:#856339;}.cls-238{fill:#7c5d36;}.cls-239{fill:#342818;}.cls-240{fill:#57442b;}.cls-241{fill:#5a574f;}.cls-242{fill:#5e5c54;}.cls-243{fill:#e0dbc5;}.cls-244{fill:#866b46;}.cls-245{fill:#a5824a;}.cls-246{fill:#624a2a;}.cls-247{fill:#372a19;}.cls-248{fill:#6b502e;}.cls-249{fill:#a78f65;}.cls-250{fill:#48463f;}.cls-251{fill:#43413b;}.cls-252{fill:#4d4a43;}.cls-253{fill:#58554d;}.cls-254{fill:#5c5a50;}.cls-255{fill:#525048;}.cls-256{fill:#504a3f;}.cls-257{fill:#55524b;}.cls-258{fill:#3a2c19;}.cls-259{fill:#745b3a;}.cls-260{fill:#4c4b46;}.cls-261{fill:#7a5c36;}.cls-262{fill:#dad5bf;}.cls-263{fill:#ccc6b2;}.cls-264{fill:#59564e;}.cls-265{fill:#5d5b51;}.cls-266{fill:#9c7a46;}.cls-267{fill:#574226;}.cls-268{fill:#c2b089;}.cls-269{fill:#3f301c;}.cls-270{fill:#897b63;}.cls-271{fill:#e6e0c8;}.cls-272{fill:#5e5b52;}.cls-273{fill:#5e4d36;}.cls-274{fill:#2b1f11;}</style></defs><g id="Layer_2" data-name="Layer 2"><g id="Layer_2_Image" data-name="Layer 2 Image"><path class="cls-1" d="M80,1.87c.33-.62.66-1.25,1-1.87h23l1,1.91c-1.37,1.65-3.31,1.27-5.09,1.44-1.23,0-2.44.26-3.67.18a8.88,8.88,0,0,0-8.46.17,6,6,0,0,1-2.19,0C83.74,3.06,81.45,3.73,80,1.87Z"/><path class="cls-2" d="M181.85,72.07l.23.94c.71,3.38,2.8,6.55,1.62,10.21a2.36,2.36,0,0,1-.9,1.1c-1.94,0-1.25-2-2.11-2.76.18.92-.36,1.34-1,1.7-2.72-.82-5.52-1.48-7.22-4.1-.92-2-.45-4.16-.84-6.22s-.62-4.46-3.82-3.69c-3.09-1-2.1-4.93-4.62-6.32-1-1.12-3.61-.64-3.2-3.17,1.68-1.31,3.69-1.48,5.7-1.64a8,8,0,0,0,5.51-1.79c2.12-1.65,3.76-.73,4.65,1.54a80.34,80.34,0,0,1,3.9,11.77c.5,1.84.06,3.75.77,5.39.11-.75-.55-1.93.15-2.86A.88.88,0,0,1,181.85,72.07Z"/><path class="cls-3" d="M47,174.06,43.78,172A17.27,17.27,0,0,1,37,167.14l-1.84-1.27c-4.48-2.79-8.65-5.9-11.2-10.71l-.12-.18a10.48,10.48,0,0,1-4.62-5.19v0c-2.31-1.41-3-3.85-3.95-6.14.56-3.43,3.71-2.8,5.86-3.74,1.69-.15,3.13-1.28,4.86-1.29,1.41.27,3,.36,3.27,2.25-1.18,1.9-3.13,2.75-5,3.72-.83.66-2.75-.07-2.46,2,.34.53.7,1,1,1.54,2.07,3.22,5.22,5.46,7.6,8.39a19.28,19.28,0,0,0,4.3,3.91c3.55,2.71,7,5.55,10.78,8,2.59,2.22,5.72,3.47,8.77,4.86,3,1.13,5.83,2.52,8.7,3.87a9.93,9.93,0,0,0,2.63.7,21.46,21.46,0,0,1,4.81,1.34c1.84,1.06,4.62-.1,5.8,2.48-.75,1.84-2.52,1.18-3.86,1.59a1.1,1.1,0,0,1-1.3-.27h0c-2.36-.49-5,.26-7-1.78-1.06-.39-2.47.23-3.21-1.11-.83-.58-2.1,0-2.77-1l-.1,0A9,9,0,0,1,53,177c-.85-.12-1.75-.16-2.22-1.07C49.69,175,48,175.28,47,174.06Z"/><path class="cls-4" d="M121.89,6.2c.38.94,1.2,1,2,1,4.27.24,7.7,2.43,11,4.8l.05,0a31,31,0,0,1,12.86,8.09h0c4.37,2.57,8.35,5.56,11,10l.94,1c2.32.91,3.08,3.07,4.07,5.05l3.23,5.79c-.12,1.9-1.15,1.7-2.38,1.05-1.11-1.36-1.8-3.05-3.32-4.07a5.66,5.66,0,0,1-1.21-1.5,10,10,0,0,0-2.93-3.92c-1.41-1.3-3.15-2.24-4.29-3.84a27.4,27.4,0,0,0-5.91-4.71c-3.67-2.14-6.4-5.64-10.49-7.18a26.07,26.07,0,0,0-8.82-4.66,11.58,11.58,0,0,1-1.28-.48c-3.8-1.62-7.54-3.41-11.6-4.32-.48-.09-.94-.21-1.4-.34-1.45-.73-3.58-.62-3.71-3a4,4,0,0,1,2.67-1.28C115.57,4.74,119.23,3.61,121.89,6.2Z"/><path class="cls-5" d="M34.83,21c.37-1,1.37-.95,2.18-1.2,2.38-2.32,4.8-4.59,8.11-5.55a1,1,0,0,0,.89-.38c1.49-2.59,4.74-1.91,6.69-3.63,2-.76,4-1.08,6-1.81a2.44,2.44,0,0,1,1.34.39c.51,1.06,0,1.82-.71,2.55a10.05,10.05,0,0,1-2.46,1.37,87.36,87.36,0,0,0-9.06,4.71c-.87.71-1.67,1.51-2.52,2.25A12.33,12.33,0,0,1,41.08,22c-4.7,2.25-7.91,6.19-11.25,10-2.68,3.57-6.15,6.44-8.89,10-1.26,1.62-3,2.67-5.17,1.18a1.58,1.58,0,0,1,.33-2l0,0c.85-1.45,1.51-3.06,3.1-3.93h0C23.12,30.53,28.76,25.56,34.83,21Z"/><path class="cls-6" d="M131,176.92l-5,2.18a1.25,1.25,0,0,1-1.25.14,2.44,2.44,0,0,1-1.17-1.61,2.31,2.31,0,0,1,.42-1.29c1.66-1.73,4.07-1.86,6.07-2.85.4-.21.8-.4,1.2-.59,2.12-1.19,4.23-2.39,6.29-3.68,2.56-1.64,5.34-2.91,7.65-4.93a20.23,20.23,0,0,1,3.25-3.29,31.48,31.48,0,0,0,6.83-5.5c1.58-1.57,2.61-3.6,4.22-5.16,2.55-1.92,3.63-5.27,6.59-6.8A1.87,1.87,0,0,1,168,144l-1,3c-.5,1.09-.64,2.44-2.05,2.89h0c-1.58,2.68-2.93,5.57-6,7h0c-.68,1.31-1.35,2.63-3,3h0c-4.86,5.37-10.18,10.12-17,12.87-.8.09-1.66.08-2,1.08C135.44,175.82,133.23,176.41,131,176.92Z"/><path class="cls-7" d="M.28,87.11c-.05-1-.11-2-.16-3,.33-.58,1-.78,1.43-1.19a4.77,4.77,0,0,0-.06-4.35,5.57,5.57,0,0,1-.3-1.33c.21-1.11.09-2.3.89-3.24l0,0c.54-.93-.18-2.18.75-3L3,70a4.34,4.34,0,0,1,.84-3A5.09,5.09,0,0,0,5,63a14,14,0,0,1,2.8-7L9,54.66c.51-.44,1-1,1.75-.94a1.91,1.91,0,0,1,.93,1,4.23,4.23,0,0,1,0,2.15C9.43,61.8,7.37,66.79,6.84,72.27c-.68,2-.4,4.19-1,6.22C3.93,86.21,4.69,94.13,4.11,102a5.73,5.73,0,0,1-1.59,2.91.84.84,0,0,1-1.37-.15,5.14,5.14,0,0,1-.87-4.86A23.56,23.56,0,0,0,.28,87.11Z"/><path class="cls-8" d="M179,70c-1.26-3.56-2.56-7.1-3.77-10.68C174.44,57,174,54.8,171.16,58c-1.09,1.21-3.09,2.7-5.2,1,.36-2.79,3.26-3.85,4.24-6.23.69-.86,1.29-1.84,2.47-2.14a1,1,0,0,1,1,.66l0,0c2,1.56,3.39,3.47,3.11,6.2.29.91-.2,2.13,1.06,2.65a7.15,7.15,0,0,1,2.23,5.9l.06,1a2.07,2.07,0,0,1,.31,1.85A2,2,0,0,1,179,70Z"/><path class="cls-9" d="M108.76,183.85,105,185c-4.29,1.72-8.88.74-13.27,1.49-2.08-1-1.14-2.21-.1-3.29s2.48-1.41,3.56-2.36c1.42-.9,2.53-2.24,4.1-2.93,1.57.31,1.6,1.5,1.57,2.73-.2.6-.36,1.23-1.16,1.3a1.8,1.8,0,0,0,1.21-.12,5.79,5.79,0,0,1,3.28-.45c1.6.43,3.36.31,4.78,1.36A.73.73,0,0,1,108.76,183.85Z"/><path class="cls-10" d="M164.84,42.15c.88.88,1.7,1.22,2.33-.25L168,42a2.4,2.4,0,0,1,1.46,2.85c-1.18,2.72-3.89,1.17-5.73,2.07a19.79,19.79,0,0,0-2.33,2.15c-1.7,1.47-2.93,3.72-5.69,3.43-2.67-1.64-.5-3.33-.06-5a8.78,8.78,0,0,1,3-4C160.64,42.49,162.49,41.13,164.84,42.15Z"/><path class="cls-1" d="M16,144l3.23,5.72a26.25,26.25,0,0,1-10-12.2c-.62-1.51-2.77-3.58-.87-5.78A1.55,1.55,0,0,1,9.6,132a15.51,15.51,0,0,1,2.4,3.06c1.2,2.11,2,4.43,3.33,6.47C15.64,142.34,15.29,143.32,16,144Z"/><path class="cls-11" d="M183.83,100l-.16,2.88c1,4.47-.32,8.49-2.51,12.32-1.55-1.13-1.58-2.92-2-4.56a78.37,78.37,0,0,0,.43-11c.34-4.7-.74-9.48.76-14.11a1.45,1.45,0,0,1,1.39-.76c1.78,2.84,1,6,1.26,9.09C183.18,95.85,182.29,98.08,183.83,100Z"/><path class="cls-1" d="M91,185.81c4.67,0,9.25-1.58,14-.86a4.8,4.8,0,0,1-3.83,2q-8.64.12-17.3,0A5,5,0,0,1,80,185C83.85,183,87.59,182.43,91,185.81Z"/><path class="cls-1" d="M34.83,21,19.16,37.13C22.07,29.51,27.78,24.6,34.83,21Z"/><path class="cls-1" d="M138.91,172.78l17-12.87c-1,5.67-6.72,6.64-10.07,10C144.17,171.56,142.3,174.45,138.91,172.78Z"/><path class="cls-1" d="M11,53.68,9,54.66C7.67,48.19,10.87,44.08,16.1,41c0,.63,0,1.26.07,1.89C14.44,46.51,13.37,50.42,11,53.68Z"/><path class="cls-12" d="M91,185.81c-3.61-1.25-7.34-.79-11-.81l-1.81-.13a.78.78,0,0,1-.34-.8c.08-.28.16-.42.25-.42,1.88-1.34,4.19-.66,6.2-1.35,1.57-.27,2.55-1.39,3.56-2.48,2-.54,3.71,1.37,5.71.56a4.71,4.71,0,0,1,1.35,0A2,2,0,0,1,96,181C95.76,184.09,91.13,182.57,91,185.81Z"/><path class="cls-13" d="M4.16,120.59A.4.4,0,0,0,4,120a5,5,0,0,1-1-3l-.18-1c-.92-.83-.19-2.09-.76-3l0,0a4.15,4.15,0,0,1-.47-3.73,2,2,0,0,1,1.3-.81,2.73,2.73,0,0,1,1.5.35c2.33,1.81,1.55,4.7,2.46,7,.43,1.87,1.34,3.67.86,5.68-.85.86.06,3-2.08,2.94C3.83,123.62,4.93,121.74,4.16,120.59Z"/><path class="cls-14" d="M172.8,139.88l-1.92,1a.76.76,0,0,1-1.17,0,2.72,2.72,0,0,1-.29-2,18.16,18.16,0,0,0,1.51-5.2,9,9,0,0,1,1.31-3.27c1.38-1.56,1.2-4.38,3.9-4.89a1.85,1.85,0,0,1,1.48,1.51c-.74,3.16-1,6.54-3.82,8.79h0C173.39,137.18,174.54,138.88,172.8,139.88Z"/><path class="cls-15" d="M183.83,100c-1.83.82-1.85-.31-1.85-1.63,0-4.47,0-8.93,0-13.39-.25-.21-.33-.42-.25-.63s.16-.32.24-.32c.3,0,.6,0,.89,0s.51.29.49.52-.09.4-.18.4C184.37,89.92,184.08,95,183.83,100Z"/><path class="cls-1" d="M181.08,115.2c2.15-3.85,1.26-8.33,2.59-12.35.13.1.34.16.39.29,1.65,3.93-.59,13.6-3.88,16.84-1.23-.93-.68-2.07-.38-3.18A2.83,2.83,0,0,1,181.08,115.2Z"/><path class="cls-16" d="M60.2,9.14,59,9a.78.78,0,0,1-.38-.66c0-.27,0-.41.11-.41.53-.77,1.6-.33,2.19-1L62,6.82c.88-1.7,2.62-1.39,4.07-1.74h0c1.59-1.5,3.92,0,5.54-1.4a1.42,1.42,0,0,1,1,1,3.15,3.15,0,0,1-.18,1.46C71.25,8,69,8,67.38,8.93A10.44,10.44,0,0,1,64.59,10C63,10.21,61.48,10.36,60.2,9.14Z"/><path class="cls-1" d="M108.76,183.85a4.59,4.59,0,0,1,.46-.81c1-1.34,2.62-1.42,4-2,4-.35,7.5-3.09,11.71-2.24l1,.26C121,183.42,115.07,184.32,108.76,183.85Z"/><path class="cls-1" d="M24,155.16l11.2,10.71C29.66,164.15,25.6,160.93,24,155.16Z"/><path class="cls-1" d="M147.89,20.1,135,12C139.6,11.85,146.08,15.92,147.89,20.1Z"/><path class="cls-17" d="M180.82,116.84c-.06,1.08-1.18,1.94-.64,3.14,0,.34-.05.68-.07,1,.08,2.58-.52,4.85-2.94,6.26L176,126c-1.17-1.33-.35-2.76-.19-4.15a26.75,26.75,0,0,1,1.36-4.08c.78-1.37.54-3.4,2.54-4C181.09,114.39,180,116,180.82,116.84Z"/><path class="cls-1" d="M177.17,127.26c2.12-1.55,1.33-4.47,2.94-6.26.21.25.64.58.58.74-1.69,5-1.91,10.73-6.89,14.11A35.29,35.29,0,0,0,177.17,127.26Z"/><path class="cls-18" d="M.28,87.11a11.92,11.92,0,0,1,0,12.74Z"/><path class="cls-1" d="M158.93,30.1l-11-10C153.12,21.73,157.32,24.48,158.93,30.1Z"/><path class="cls-1" d="M183.18,85c-.1-.31-.2-.61-.31-.92.88-3.76-.78-7.33-.79-11C184,76.85,187.42,80.56,183.18,85Z"/><path class="cls-19" d="M6.29,123.93c.52-.54-.47-1.59.64-1.94,3.56.39,3,3.5,3.81,5.73a5.27,5.27,0,0,1-.14,1.37A5.48,5.48,0,0,1,9,132a3.11,3.11,0,0,0-.65-.22A.88.88,0,0,0,8,131C6.91,128.75,4.6,126.82,6.29,123.93Z"/><path class="cls-1" d="M52.72,10.89l-6.71,3c3-3.49,6.4-6.1,11.35-5.66C56.54,10.36,54.35,10.14,52.72,10.89Z"/><path class="cls-1" d="M121.89,6.2l-10-2.1a1.93,1.93,0,0,1-1.83.21,1.15,1.15,0,0,1-.31-1.15C113.92,3.7,118.73,1.68,121.89,6.2Z"/><path class="cls-1" d="M135,12l-11-4.8C128.83,6,132,8.76,135,12Z"/><path class="cls-20" d="M80,1.87c2,.75,4.39-1,6.16,1C86.45,4.63,85.11,5.08,84,5.7a4.37,4.37,0,0,1-3.67-.23c.6-3.16-2.88-.79-3.36-2.48C77.6,1.65,79,2.37,80,1.87Z"/><path class="cls-21" d="M109.76,3.16c.18.24.36.48.57.71-2.21,2.39-5.11.09-7.52,1.12a6.34,6.34,0,0,1-3.43-.16C97.78,4.16,97.2,3.27,99,2.1l6-.19C106.6,2.27,108,3.47,109.76,3.16Z"/><path class="cls-1" d="M169,45,168,42c3.44.5,5.29,2.33,5,6l-.59.3C170.79,47.68,168.9,47.41,169,45Z"/><path class="cls-1" d="M45.12,14.25,37,19.8C38.88,16.73,40.68,13.56,45.12,14.25Z"/><path class="cls-1" d="M6.29,123.93c-.93,2.7,1.93,4.51,1.67,7-3.51-2.64-4.23-6.3-3.8-10.39Z"/><path class="cls-22" d="M76.93,3a16,16,0,0,0,2.39.13C82,2.87,80.83,4,80,5a3.44,3.44,0,0,1-2.26,1.22c-2,.13-4.13.47-5.66-1.43a1.06,1.06,0,0,0,.07-.56c.77-1.11,1.83-.59,2.81-.5C75.89,4.27,76.16,2.93,76.93,3Z"/><path class="cls-1" d="M158.93,156.9l6-7C164,153.13,163.32,156.62,158.93,156.9Z"/><path class="cls-1" d="M37,167.14c2.34,1.5,5,2.62,6.77,4.87C39.92,172.62,38.4,170,37,167.14Z"/><path class="cls-1" d="M7.84,56c-.18,2.64-1.65,4.76-2.8,7C4.21,60,4.89,57.52,7.84,56Z"/><path class="cls-1" d="M74.94,3.69l-2.81.5-6.06.9C68.71,2.62,71.75,2.68,74.94,3.69Z"/><path class="cls-1" d="M2.12,108.88l-.06,4.05c-3.17-2.42-1.66-5.36-.91-8.22l.71.59C3.17,106.41,3,107.62,2.12,108.88Z"/><path class="cls-1" d="M64,181.11c2.24,1,4.91.26,7,1.78C68.29,184,65.67,184.47,64,181.11Z"/><path class="cls-1" d="M19.23,149.79A19.57,19.57,0,0,1,23.85,155C20.27,155.06,19.41,152.73,19.23,149.79Z"/><path class="cls-1" d="M179.87,69.06l.3-2.07c2.24,1.14,3.06,2.75,1.68,5.08a4.75,4.75,0,0,1-.76-.34A2.2,2.2,0,0,1,179.87,69.06Z"/><path class="cls-1" d="M180.11,66c-.74-2-1.49-3.93-2.23-5.9C180.31,61.39,182.11,63,180.11,66Z"/><path class="cls-1" d="M176.82,57.41l-3.11-6.2C176.42,52.44,178.87,53.79,176.82,57.41Z"/><path class="cls-1" d="M163.94,36.11c-2-1.15-2.65-3.41-4.07-5.05C163,31.34,164.11,33.2,163.94,36.11Z"/><path class="cls-23" d="M170.06,141a1.76,1.76,0,0,1,.82-.07c-.38,1.55-1.73,2.21-2.84,3.1l-2,.06-.27-.71A3.66,3.66,0,0,1,168,140.5,2,2,0,0,1,170.06,141Z"/><path class="cls-1" d="M77.71,184c.16.28.32.56.49.83-2.63.24-5.09-.1-7.13-2l1.07-.14C74.18,182.42,76.25,181.9,77.71,184Z"/><path class="cls-1" d="M131,176.92l6-3.06C136.22,177.33,133.48,176.9,131,176.92Z"/><path class="cls-24" d="M52.72,10.89,57.36,8.2A.51.51,0,0,0,58,7.91a.63.63,0,0,1,1,.21V9C57,9.9,55.15,11.38,52.72,10.89Z"/><path class="cls-1" d="M53,177A8.71,8.71,0,0,1,58,179C55.39,180.7,54.19,178.9,53,177Z"/><path class="cls-1" d="M2.08,74.05,1.93,78a2,2,0,0,1-1,2C-1,77.57.34,75.77,2.08,74.05Z"/><path class="cls-1" d="M19.17,37.14a5.61,5.61,0,0,1-3.1,3.93C16,38.85,16.32,37,19.17,37.14Z"/><path class="cls-25" d="M.94,80l1-2,.42.06c0,2,.69,4-.47,5.88l-1.76.25C.22,82.73,1.6,81.56.94,80Z"/><path class="cls-1" d="M66.08,5.08c-1,1.51-2.9.72-4.07,1.74C62.41,4,63.92,3.77,66.08,5.08Z"/><path class="cls-1" d="M155.94,159.9a7.22,7.22,0,0,1,3-3C158.81,158.79,159.41,161.37,155.94,159.9Z"/><path class="cls-1" d="M172.8,139.88c.48-1.3-.41-2.94,1-4C174.54,137.46,176.45,139.35,172.8,139.88Z"/><path class="cls-1" d="M47,174.06c1.75-.32,2.8.73,3.79,1.91C49.3,175.81,47.33,176.57,47,174.06Z"/><path class="cls-1" d="M3.84,67c.23,1.14.3,2.24-.84,3C1.47,68.48,1.77,67.48,3.84,67Z"/><path class="cls-1" d="M173.67,51.24A.62.62,0,0,1,173,51a2.08,2.08,0,0,1-.32-2.8L173,48C175.48,48,175.5,48,173.67,51.24Z"/><path class="cls-1" d="M59,8.12l-1-.21c.26-2.5,1.67-1.49,2.92-.94Z"/><path class="cls-1" d="M2.85,71c.17,1.11.42,2.24-.75,3C1.57,72.8.26,71.41,2.85,71Z"/><path class="cls-1" d="M164.94,149.91,167,147C168.11,149.26,166.9,149.86,164.94,149.91Z"/><path class="cls-1" d="M3,117c1.25.69,1,1.87,1,3C2.92,119.21,1.24,118.65,3,117Z"/><path class="cls-1" d="M2.08,113c1.22.76.88,1.91.76,3C.26,115.56,1.58,114.16,2.08,113Z"/><path class="cls-1" d="M58.05,179c1,.19,2.28-.52,2.77,1C59.53,180.67,58.19,181.47,58.05,179Z"/><path class="cls-26" d="M83.88,4.74l2.29-1.85,1.81,0c.84,5.36-4.5,5.56-7,8.08-.86.86-2.68,1.12-3.88,2-2.38,1.48-5,1.28-7.65,1.25a6.36,6.36,0,0,1-4.87-2.17c-.91-1.2-1.25-2.3.57-3L67,8c3.31-.43,6.46-1.58,9.72-2.22a4.48,4.48,0,0,1,1.5-.23C80.09,5.17,82.17,6.29,83.88,4.74Z"/><path class="cls-27" d="M99,2.1c-.2,3.68,2.71,1.07,3.91,1.93l.36.52a2.2,2.2,0,0,1-.5,1.17c-1,1.15-.81,2.44-.51,3.75a11,11,0,0,1,.36,2c-.07,1-.37,1.73-1.47,1.85-.32-.09-.75-.23-1,0-1.44,1.23-2.55,3.79-4.77,2.68s-.4-3.27-.05-4.9c1-4.58-3.07-4.34-5.36-5.79C90.6.67,93.73,2.85,96.08,3Z"/><path class="cls-28" d="M96.08,3c-1.84,1.14-4.75-.74-6,2.12.25,1.38-.93,1.95-1.58,2.82-1.62,1.64-1.11,3.49-.63,5.41.78,3.16-.27,4.05-3.17,2.37-1.54-1.94-3.14-3.74-6-2.86a2.16,2.16,0,0,1-1.78-.93c2.65-2.16,6.25-2.77,8.63-5.45,1-1.09,2.5-1.7,2.42-3.49C90.69.83,93.38.26,96.08,3Z"/><path class="cls-29" d="M160.06,59.94c.85,1.65,3.08.5,4,2-.06,2.8,2.51,5,2,7.88-2,3-2,3-4.77-1.91,7.94,17,7.6,34.07,3,51.33-1.11,2.21-2.44,4.34-2.71,6.89a2.5,2.5,0,0,1-.62,1.26,4.44,4.44,0,0,1-1.36.58A5.77,5.77,0,0,1,158,128c-1.7-.23-3.12-.84-3.66-2.66-.07-3.06,1.21-5.82,2.15-8.61,4.18-12.46,4.21-25,1-37.62a6.91,6.91,0,0,0-1-2.24,87.85,87.85,0,0,1-5.86-13.64c1.3-3.84,4.91-4.38,8-5.61C159.77,58.05,160.38,58.72,160.06,59.94Z"/><path class="cls-30" d="M168,69.05c2.54-1.75,4.4-1,4.88,2.2A60.72,60.72,0,0,1,173,79a48.55,48.55,0,0,1,2.59,4.75c1.59,3-1.47,6,.07,9a9.54,9.54,0,0,1,.42,1.38c.41,3.9,2.52,7.87-.52,11.6-1.12.8-2.24.11-2.13-.79.33-2.62-1.11-3.39-3.19-3.82A71.52,71.52,0,0,0,169,80.54c-.36-1.8-.21-3.68-.86-5.44C167.88,73.09,166.6,71.1,168,69.05Z"/><path class="cls-31" d="M175,84a5.82,5.82,0,0,1-2-5c2,2,5.23,1.64,7,4,1.13,4.13.21,8.34.44,12.5-.57,1.62-1.72,2.5-3.41,2.07-2.49-.63-.84-3.26-2-4.57h0C173.36,90,177.13,87,175,84Z"/><path class="cls-32" d="M168,69.05c.29,2,1.43,3.78,1.09,5.87.74,1.25.42,2.58.28,3.89a1.28,1.28,0,0,1-1.44.35c-3-2.81-2.08-6.74-2.88-10.17.32-2-.94-3.3-1.86-4.78-.7-1.14-.83-2.12.94-2.29C167,63.42,165.9,67.08,168,69.05Z"/><path class="cls-33" d="M160.06,59.94l-.87-1.83A5.36,5.36,0,0,1,163.8,55c2.13-.29,3.5-1.56,4.85-3,1.13-.53,1.81,0,2.29,1-.78,2.73-2.76,4.46-5,6C164,59.41,162.13,60.23,160.06,59.94Z"/><path class="cls-34" d="M180,96V83c.14-1.36-.44-2.89.92-4a7.7,7.7,0,0,1,.11,6L181,100a1,1,0,0,1-1.38-.27A3.33,3.33,0,0,1,180,96Z"/><path class="cls-35" d="M179.87,69.06c.39.89,1.64,1.4,1.22,2.67-.08,1.41-.16,2.83-.25,4.57-1.78-2-1.91-4.14-1.85-6.31Z"/><path class="cls-36" d="M181,85c0-2-.07-4-.11-6,2.19,1.28.59,3.36,1.07,5v1l-.48,0Z"/><path class="cls-37" d="M176.43,76.93c.43.63,1,1.1,1,1.61a.92.92,0,0,1-1.3.92,1.16,1.16,0,0,1-.88-1.48C175.41,77.62,175.91,77.39,176.43,76.93Z"/><path class="cls-38" d="M28.85,141.15c-.3-1.53-2.23-.9-2.78-2.1l.36-.6a3.56,3.56,0,0,1,3.24-1c3.43,2.6,5.95,6.07,8.76,9.26,7,7.65,15.91,12.17,25.15,16.29a58.74,58.74,0,0,0,16.16,4.38c1.76.24,4.72,0,4.45,2.74-.25,2.51-3,1.89-4.9,2.08a9.33,9.33,0,0,1-2.92-.46c-2.46-1.3-5-2.43-7.87-1.94-5.61-.75-10.4-3.65-15.43-5.94a99.84,99.84,0,0,1-11.46-8,59.46,59.46,0,0,1-8.16-7.29C31.53,146.34,29,144.47,28.85,141.15Z"/><path class="cls-39" d="M42,155l11.23,7.88c-.48,1.48.63,3.06-.3,4.51C50.52,169,48.3,171.71,45,169c-4.22-1.89-7.52-5.05-11-8a.89.89,0,0,1,0-1.31,6.78,6.78,0,0,1,3.41-1.07c1.38-.11,1.74-1.07,2-2.25C39.68,155,40.3,153.9,42,155Z"/><path class="cls-40" d="M45,169c3.35,2,5.08-2.4,8-2,2.88.66,5.67,1.63,8.67,1.87,3.55.29,6,2.4,7.7,5.5.61,1.28,2.4.79,3.08,2a2.48,2.48,0,0,1-1.18,2.87c-2.13.66-4-2.11-6.24-.4a2,2,0,0,1-2-.88,1,1,0,0,1-.47-.94,9.53,9.53,0,0,0,.23-2.19,3.19,3.19,0,0,0-1.06-1.9c-3-2.37-4.94,2.38-7.74,1.1C50.69,172.87,47.36,171.79,45,169Z"/><path class="cls-41" d="M21,147.05c-.83-.51-2-1.21-1.43-2.14,1-1.64,2.9-.68,4.39-1,1.87-.92,4.46-.69,4.64,1,.49,4.72,5.79,6.33,6.27,10.81a3.56,3.56,0,0,1-.42,1.46c-1.59,2-3.09,1.44-4.56-.16-2.92-2.76-6.31-5.1-8-9,.34-.74,1.83-1,1.63-1.21C22.78,146.05,21.84,146.87,21,147.05Z"/><path class="cls-42" d="M34,156c-1.2-3.8-5.86-5.46-5.94-10.14,0-1.55-2.41-2-4.15-1.92,1.57-1.06,2.73-2.82,4.93-2.77q2.59,3.38,5.2,6.74a35.28,35.28,0,0,1,2.91,5C38,155.4,37.12,156.93,34,156Z"/><path class="cls-43" d="M71,179c.33-1,.66-2,1-3-.31-.9.23-1.28,1-1.55a3.77,3.77,0,0,1,1.42.07c3,1.45,6.47,1.81,9.16,4a4.52,4.52,0,0,1,1.19,2,2.75,2.75,0,0,1-.91,2.89c-2.65-.11-5.37.21-7.74-1.42-1.63-2-4.5.09-6.12-1.89C70.15,179.5,71.1,179.75,71,179Z"/><path class="cls-44" d="M63,177c0,.32,0,.64,0,1-3.26-.74-6.11-2.43-9-3.93,2.84-1.64,5.33-6.1,9-1.14-.23.7-.77,1.28-.72,2.06A10.93,10.93,0,0,1,63,177Z"/><path class="cls-45" d="M76.07,181.9l8,1c.35-.28.64-.26.89.13-2.19,1.84-4.89.1-7.21,1l-5.58-1.28C73.24,181.49,74.75,182.14,76.07,181.9Z"/><path class="cls-46" d="M16,144l-1.17-1.89c-.81-1.87.23-2.81,1.75-3.51,1.91-.21,3.82-.45,5.67.33a1.59,1.59,0,0,1-.2,2C20.1,142.13,16.86,140.77,16,144Z"/><path class="cls-47" d="M21,147.05c.35-2.3,1.84-2.36,3.54-1.68.95.38,1.78,1.39,1.26,2.27-.95,1.6-2.61-.23-3.87.41Z"/><path class="cls-48" d="M22,140.94c0-.63,0-1.26,0-1.89.41-2.22,1.37-3.83,4-3.68,2.28,1.18.89,2.42.06,3.65l0,0C24.64,139.51,23.73,141.07,22,140.94Z"/><path class="cls-49" d="M71,179l1.12.61L70,180,65,178.81C67.11,175.25,69,179.08,71,179Z"/><path class="cls-42" d="M29.86,157c1.39.69,2.78,1,4.15-.07a2.55,2.55,0,0,1,2.22,1c.23,1.66-1.3,1.3-2.07,1.81L34,161C32.52,159.79,30.45,159.18,29.86,157Z"/><path class="cls-50" d="M127.1,11.94a4,4,0,0,1,.91.11c2.82,2,6.16,3,9,4.93,4.66.8,7,5.14,10.93,7.1.6.93,1.59,1.69,1.22,3-1,1-2.44,1-3.67,1.52a12,12,0,0,1-1.27.45,3.75,3.75,0,0,1-3.85-.67A43.27,43.27,0,0,1,134,21.5c-1.23-1.8-3.3-1.13-5-1.65-3.8-.88-7.09-2.16-5.66-7.16C124.33,11.12,125.66,11.27,127.1,11.94Z"/><path class="cls-51" d="M153.94,29.06l4,4c1,1.29,2.09,2.55,3,3.9l1,1.13c2.11,2.65,1.06,3.8-1.92,3.88-1.73,0-3.09-1-4.4-2-2.9-2.77-7.49-4.29-7.18-9.5C149.84,28.44,151.56,27.5,153.94,29.06Z"/><path class="cls-52" d="M127.1,11.94c-1.12.11-2.36-.14-3.11,1.06a1.45,1.45,0,0,1-1.14.47,2.11,2.11,0,0,0-2.57,1.25c-3.54,1.88-7.5,1.41-11.27,2a5.09,5.09,0,0,1-2.68-.13,6.56,6.56,0,0,1-1.16-.64c-1.27-1-3-.69-4.35-1.34-.57-.58-1.82-1.18,0-1.73.88-.28,1.08-1,1.12-1.8,2.41-2.35,5-.81,7.45-.26.47.13.92.34,1.39.44,4.89,1,5.27.59,4.17-4.23C119.21,8.21,123.4,9.46,127.1,11.94Z"/><path class="cls-53" d="M153.94,29.06A5.48,5.48,0,0,0,149,31c-1.95,1.95,0,2.69,1.13,3.73,1.76,1.65,3.85,3.19,2.3,6.1-.39.38-1,.58-1.32.25-3.34-3.42-7.23-6.27-10.29-10a1.89,1.89,0,0,1,.14-1.28c1-.59,2.56-.36,3.09-1.82h.92a6.54,6.54,0,0,0,3.9-.82c-.28-1-.57-2.07-.86-3.11C150,25.64,152.5,26.74,153.94,29.06Z"/><path class="cls-54" d="M115,7.07c.6,1.82,4.56,2.6,2.48,4.91-1.86,2.07-5,1.54-7.49.06,0-2-3.57-2.8-1.78-5.39,2-.79,3.81,1.3,5.81.36A4,4,0,0,1,115,7.07Z"/><path class="cls-55" d="M156,39c1.34.56,2.23,1.85,3.88,2,2.69.3,2.57-1.1,2.07-2.9,1.66.84,3,1.9,2.89,4L159,44c-1.31-.11-2.37-.92-3.61-1.24-1-.25-1.9-.74-1.78-1.9C153.73,39.49,154.77,39.06,156,39Z"/><path class="cls-52" d="M114,7c-2,2.21-4,0-6-.08a7.41,7.41,0,0,1-4-.19,1.51,1.51,0,0,1-1.07-1.57,5.06,5.06,0,0,1,.24-.46c2.3-.94,4.51-.3,6.71.41Z"/><path class="cls-52" d="M137,17c-3.36-1-6.66-2.11-9-4.93C131.38,13,134.64,14.19,137,17Z"/><path class="cls-56" d="M109.88,5.12l-6.71-.41c-.09-.22-.17-.45-.25-.68,2.42-2.11,5,1.12,7.4-.16l1.58.23Z"/><path class="cls-55" d="M161,37c-1.55-.88-2.85-2-3-3.9A4.66,4.66,0,0,1,161,37Z"/><path class="cls-57" d="M11,53.68c.46-4.21,1.85-8,5.22-10.76A3.46,3.46,0,0,0,20,41.28c2.26-4.11,6.3-6.61,9-10.26,1.87-.63,2.89-4.1,5-2.66s.56,4.13-.12,6.23c-1,2-2.77,3.26-4.06,5-2.38,2.52-2.36,5.62-2.13,8.78a2.91,2.91,0,0,1-2.65,2.17,2.83,2.83,0,0,1-2.13-1.78c-3.27-2.46-5.84-2-8,1.28-1.05,1.63-1,4.39-4,4.09Z"/><path class="cls-58" d="M32.86,34.94c.38-1.75.77-3.5,1.1-5.27.06-.28-.16-.61-.27-1-1.9.09-2.6,2.61-4.66,2.32,3.81-3.55,6.35-8.66,12.08-9.88.22,2.07-1.7,3.21-2.18,5a1.35,1.35,0,0,0-.35,1.15A1.62,1.62,0,0,1,39.06,26c4.64,0,7.09-4.14,10.86-5.77,1.31-.56,2.61-1.28,4.07-.46.8,2.48-1.36,3.89-2.07,5.83-4.23,3.72-8.29,7.71-13.7,9.78C36.46,34.91,34.61,35.52,32.86,34.94Z"/><path class="cls-59" d="M39,26c-1.47-2.57,1.5-3.21,2.12-4.87,1.23-.76,2.46-1.52,3.7-2.27,1.08-.35,1.94-1.13,3-1.52a2.63,2.63,0,0,1,3.1.57c1.19,1.37.13,2.31-.79,3.22-2.32,1.78-4.91,3.31-6.9,5.41s-2.94.63-4.2-.53Z"/><path class="cls-60" d="M50.11,21.14c.71-6.54-3.69-1.16-5.3-2.27L47,17c2.92-1.54,6.07-2.55,8.92-4.22,1.42,1.08,1.92,2.68,2.45,4.27-.52,2.34-2.28,2.89-4.34,3Z"/><path class="cls-61" d="M56.65,11.93l2.27-1.06c1.8-.9,3.51-1.16,5,.63,1.05,2.35-.6,3.12-2.27,3.87-1.83,0-3-1.19-4.21-2.31A5,5,0,0,1,56.65,11.93Z"/><path class="cls-62" d="M56,13.05A21.1,21.1,0,0,1,47,17a26.16,26.16,0,0,1,9.67-5l.6.1C57.24,12.85,56.91,13.27,56,13.05Z"/><path class="cls-62" d="M64,12c-1.54-1.09-3.34-1-5.09-1.12L60.2,9.14h5c0,.66-1.47,1.1-.31,1.95a.71.71,0,0,1,.44.64q0,.42-.12.42A.94.94,0,0,1,64,12Z"/><path class="cls-63" d="M146,165l-7.89,5.16c-3,.52-4.87-.63-5.54-3.63a1.87,1.87,0,0,1,.87-1.08c4.57-1.2.46-3,.32-4.57.71-2.54,2.7-3.05,5-3.11.53.19.52.94,1.1,1.1l-.93-1.07a2,2,0,0,1,1-1.68,23.15,23.15,0,0,1,3.93-2.09c1.83-.56,3.35-.44,3.37,2.06-2.31,1.72-3.56,3.85-2.53,6.81A20,20,0,0,1,146,165Z"/><path class="cls-64" d="M132.93,166c1,2.3,3.24,3,5.15,4.09L131,174l-7,3c-2,1.35-3.42.7-4.31-1.42.08-1.19.84-1.7,1.9-1.93.74,0,1.62.65,2.22-.06.86-1-.38-1.63-.7-2.42-.79-1.26-1.28-2.56-.5-4a1.68,1.68,0,0,1,1.25-.52c1.73,1,3.37.54,5.06-.19C130.19,165.88,131.46,164.78,132.93,166Z"/><path class="cls-65" d="M160,151c-1.26,1.73-2,3.9-4,5-1.07.05-2.11.28-3.18.34-1.64.18-3.26-.36-3.38-2-.2-2.65-2.32-1.48-3.46-2.18.12-4.24,3.77-5.71,6.29-8.06,1.65-.86,3.29-2.54,5-.14.3,3.11-1.88,5.05-3.53,7.31,2,.47,3.73-1.09,5.66-.7Z"/><path class="cls-66" d="M153.1,155.05c1.07,0,2.19-.23,2.89.92a17.76,17.76,0,0,1-7,5.95c-1.11-.85-2.6,1.46-3.6-.43a3.76,3.76,0,0,1,.16-3.38C147.8,156.46,151.49,158.34,153.1,155.05Z"/><path class="cls-67" d="M125,178.84c-3.82,1.58-7.66,3.08-11.88,3.18-1.26.72-2.59.44-3.92.26-.82-1.73.62-2,1.63-2.3a45.11,45.11,0,0,0,5.72-1.66,12.62,12.62,0,0,1,2.24-.62c1.74-.1,3.5-.62,5.21.21Z"/><path class="cls-68" d="M124,177.91l-5,1a5.82,5.82,0,0,1-1.93-5.54,2.36,2.36,0,0,1,1.44-1.82c2.56.21,2.53,1.6,1.53,3.42.76,1.8,2.31,2.07,4,2A7.26,7.26,0,0,1,124,177.91Z"/><path class="cls-69" d="M166,144.07c-1.91,2.38-3.06,5.44-6,6.89l0,0c-1.41-2.1-.08-3.75.91-5.46a9,9,0,0,1,2.18-2,2.56,2.56,0,0,1,2.82.31Z"/><path class="cls-70" d="M145.91,161.92c1-.11,2-1.55,3.06,0l-3,3a2.09,2.09,0,0,1-2.07-1.21C143.87,162.37,144.41,161.63,145.91,161.92Z"/><path class="cls-71" d="M5,78c.31-2-.76-4.22,1-5.95a16.74,16.74,0,0,0,3.14,2.42,7.26,7.26,0,0,1,1.54,1.33c.64.75,1.74,1.61,1.57,2.42-.49,2.3,1.57,1.52,2.35,2.26a4.59,4.59,0,0,1,.55,1.47c-1.73,10.12.25,20.16.59,30.22-.6,1.32-1.59,1.25-2.7.77-2.39-1.69-5.61-2.44-6.62-5.74a3.36,3.36,0,0,1,.1-2.08c.83-1.23,2.16-2.19,2.15-3.88.21-3.62-.3-7.27,1.74-10.68a4.08,4.08,0,0,0-1-5c-1.35-2.15-3-4.16-3.62-6.7A3.48,3.48,0,0,1,5,78Z"/><path class="cls-72" d="M10.93,54.09c2.28-.85,2.06-3.24,3-4.92,2.38-4.26,7.51-4.84,10-1.07a3,3,0,0,1-1.26.54c-6.29-.3-7.42,1.21-4.8,6.4,2.79,1.4,5.16,2.78.15,4.52-.9.31-.93,1.7-1.63,2.41a1.71,1.71,0,0,1-1.22.33c-1.19-.82-1.91-2.15-3.14-2.93-1-1-.08-2.4-.79-3.44Z"/><path class="cls-73" d="M7.05,105V107a5.69,5.69,0,0,1-3,2l-1,0a8.47,8.47,0,0,1,0-6c.29-8.37-.91-16.86,2-25a5.34,5.34,0,0,0,1,0c1.41,3.18.17,6.38,0,9.56C5.71,93.39,4.4,99.32,7.05,105Z"/><path class="cls-73" d="M11.27,55.93c2.45.47,1.21,1.87.77,3.07-.23,5.51-2.88,10.55-3.14,16.06-2.22.17-3.06-1-2.86-3C5.9,66,8.38,60.92,11.27,55.93Z"/><path class="cls-74" d="M1.88,83.91C2,82,2.19,80,2.35,78,3.18,80.07,3.78,82.09,1.88,83.91Z"/><path class="cls-75" d="M3,103l0,6-.86-.08C2,107.69,2,106.5,1.86,105.3,2.24,104.53,2.62,103.76,3,103Z"/><path class="cls-76" d="M170.94,53l-1.64-1c-1.28-.24-1.65-1.41-2.33-2.27-.93-1.65-3-2.1-4-3.65,1.63-2.52,4.28,1.14,6-1l3.74,3.2c.1.94.21,1.87.32,2.8Z"/><path class="cls-77" d="M117,179c-2,2.94-5.76,1-8.14,2.88-1.56,1-3.16.67-4.78.18-1.17-1-3.72,3.06-4.07-1.09,1.63-1.41-.09-3.32.7-4.86,2.58-1.89,6,0,8.58-2C113.16,173.77,116,174.91,117,179Z"/><path class="cls-78" d="M96,181a4.62,4.62,0,0,0-1-.07c-1.58-1.86.76-3.54.23-5.36a2.52,2.52,0,0,1,.68-1.82c2.58-.12,2.9,1.8,3.31,3.64l0,.7A3.23,3.23,0,0,1,96,181Z"/><path class="cls-79" d="M104.12,182.07l4.78-.18,4.18.13c-.92,1.74-2.55.78-3.86,1C107.56,182.53,105.57,183.74,104.12,182.07Z"/><path class="cls-80" d="M101,176.91c.95,1.66,1.16,3.14-1,4.07-.08-1,.2-2.11-.81-2.85l-.35-.25a2,2,0,0,1-.09-2C99.9,175.42,100.52,176,101,176.91Z"/><path class="cls-81" d="M156.75,47.73c.24,1.54-2.91,2.59-.66,4.44-.51,2.15-2.33,2.71-4.08,3.36a2.52,2.52,0,0,1-1.32-.45A57.79,57.79,0,0,0,122.62,33c-2.52-.53-4.42-2.65-7.1-2.77-4.19-.31-7.81-2.69-11.93-3.28a23,23,0,0,0-5-.93,5.25,5.25,0,0,1-1.39-.5,2.17,2.17,0,0,1-.8-1.21,1.92,1.92,0,0,1,.82-1.89c6.13-.77,12,.57,17.8,2.33,1.89.57.17-1.07.88-1,2.15-1.42,4.16-.43,6.17.33,9.11,3.43,16.87,9.14,24.74,14.65,3.78,1.81,5.78,5.57,8.87,8.14A10.35,10.35,0,0,1,156.75,47.73Z"/><path class="cls-82" d="M152,55c1-1.51,2.72-1.93,4.1-2.87,2.3-.59,2.82-3.29,4.91-4.14,1.41,1.5,5.6-1,5,3.44-3.9,3.24-7.73,6.61-13.19,6.86C151.7,57.42,151,56.43,152,55Z"/><path class="cls-83" d="M156.75,47.73a1.57,1.57,0,0,1-.8.15c-1.39-2.27-4.34-3.66-3.93-7s-1.51-5-4-6.68c-2.24-1.48-2.79-3.19,1-3.27.92,3.94,4.54,5.48,7.05,8,.42.82-4.44,2.11.23,2.54,1.5.14,2.12,1.32,2.76,2.45Z"/><path class="cls-84" d="M165.93,51c-.51-1.34-1.37-1.63-2.74-1.16S161.07,49.42,161,48l2-2c2.05.34,4,.75,4.86,3C167.43,49.93,167.76,51.55,165.93,51Z"/><path class="cls-85" d="M16.82,139.11c-.76.95-1.91,1.64-2,3-2.5-1.78-2.51-4.9-3.92-7.27-.42-2-1.64-3.75-1.1-5.88a3.51,3.51,0,0,1,.56,0,2,2,0,0,1,2.37-.59c1.5,1.11,2.69-.39,4.05-.52a7.84,7.84,0,0,1,5,.57,1.5,1.5,0,0,1,.57,1.24c-.94,1.63-2.89,1.2-4.19,2.08-.53.36-1.08.7-1.62,1.06a2.08,2.08,0,0,0-.79,2.75C16.08,136.77,17,137.79,16.82,139.11Z"/><path class="cls-86" d="M9.8,129c.78,1.88,2,3.69,1.1,5.88C9.72,134.28,9.44,133.1,9,132,9.2,131,8.82,129.81,9.8,129Z"/><path class="cls-87" d="M180,100H181c0,3.7.24,7.42-.93,11a2.12,2.12,0,0,1-.17,2.87l-1.81,4.18c-2.46-.69-5.2-1.1-4.9-4.68a3.83,3.83,0,0,1,.36-1.28c.72-1,2.22-1.18,2.75-2.41a10.78,10.78,0,0,0,.35-2.38,2.85,2.85,0,0,1,.6-1.09,4.76,4.76,0,0,0,1.68-3.85A3.18,3.18,0,0,1,180,100Z"/><path class="cls-88" d="M179.86,113.89c0-1,.11-1.91.17-2.87,1.55,1.09.59,2.81,1.05,4.18l-.27,1.64C179.69,116.12,180.1,114.9,179.86,113.89Z"/><path class="cls-89" d="M94.05,181.05c-2.49,2.29-4.13-.08-6-1.09-2.19-1.67-2-3.64-.71-5.74a2.29,2.29,0,0,1,1.17-.75c2.4-.39,2,2.82,4,3a2,2,0,0,1,1.07.69C94.27,178.4,93.92,179.76,94.05,181.05Z"/><path class="cls-78" d="M87.94,173.92c-.46,2-.88,4,.08,6,.21,2.27-.88,3.24-3.09,3.08l-.89-.13c0-.92-.05-1.84-.08-2.75C84.51,177.58,84.12,174.41,87.94,173.92Z"/><path class="cls-90" d="M94.05,181.05c-1.5-1.06-.86-2.67-1-4.08a1.83,1.83,0,0,1-.4-2c2-2.55,2.61-.4,3.47,1,2,2.16-1.6,3.17-1,5A6.61,6.61,0,0,0,94.05,181.05Z"/><path class="cls-91" d="M13.05,129l-2.69.05c-1.44-2.2-1.1-5.26-3.43-7-.34-2-.67-4-1-5.95-.71-6-.6-6.08,5.08-5.19a3.89,3.89,0,0,1,.8,1.09,16.81,16.81,0,0,0,1.5,4.12c.23.32.46.65.71,1,.65.79,1.67,1.12,2.35,1.88a3.33,3.33,0,0,1,.42,1.23c0,1.3-.88,2.54-.23,3.87a3.63,3.63,0,0,1-.71,3,14.22,14.22,0,0,1-1.2,1.49C14.2,129,13.75,129.43,13.05,129Z"/><path class="cls-92" d="M11.12,112c-4.86-2.62-5.22.49-5.2,4.08-1.8-2-.39-4.93-1.92-7,.1-2,1.58-2,3.05-2,1,2.82,4.68,2.52,6,5A1.28,1.28,0,0,1,11.12,112Z"/><path class="cls-43" d="M176.92,121.89c-.32,1.36-.63,2.72-.95,4.08q-1.42,2.52-2.87,5c-1.66-.23-2.69-1.52-4-2.34a4.63,4.63,0,0,1-.92-1.05c-1.83-5.89,3-5.86,6.36-7.22A4.08,4.08,0,0,1,176.92,121.89Z"/><path class="cls-93" d="M169.83,128.2c1.69.23,2.41,1.6,3.27,2.79l-1.23,2.92c-1.1,1.13-2.11.38-3.13-.14s-1.85-1.31-2.8-1.94c-1.3-1.12-4-.29-4.17-3C164.19,125.22,167.11,128,169.83,128.2Z"/><path class="cls-94" d="M169.05,133l2.82,1a6.53,6.53,0,0,1-1.76,5.19,3.82,3.82,0,0,1-1.91-2.46C167.9,135.28,167.85,134,169.05,133Z"/><path class="cls-95" d="M169.05,137l1.06,2.09c0,.63,0,1.25-.05,1.88l-2,0c-1.21.76-2.34,1-3.26-.44C165.18,138.16,167,137.42,169.05,137Z"/><path class="cls-96" d="M77,6c-3,2.43-6.54,1.95-10,2,1.32-1.59,3.62-.61,5-1.94A5.65,5.65,0,0,1,77,6Z"/><path class="cls-20" d="M77,6,72,6l0-1.27,6,.31c.25.26.31.48.17.65a.55.55,0,0,1-.36.22l-.47,0Z"/><path class="cls-97" d="M176.92,121.89A1.79,1.79,0,0,1,175,121a11.3,11.3,0,0,1-3.62-4.45c-.2-2,0-3.71,2.64-3.59a16.63,16.63,0,0,0,.94,2.79c2,3.71,1.87.06,2.35-1.08,1.16,1.19.5,2.37.77,3.39C177.67,119.34,177.3,120.62,176.92,121.89Z"/><path class="cls-28" d="M77.92,5.94c.07-.29.13-.58.19-.87L80,5l3.9-.22C82.28,7.08,80,5.79,77.92,5.94Z"/><path class="cls-98" d="M165,140.13c.78,1.05,1.95.78,3,.88-.7.93-1.41,1.86-2.12,2.78L163,144c-2.79,0-5.14-.77-6.31-3.6.9-1.51.38-3.52,1.72-4.89C161.66,135.54,163,138.42,165,140.13Z"/><path class="cls-99" d="M76.93,11.88,79,12c2.41,1.88.49,2.62-.94,3.31-2.18,1-4.78.85-6.83,2.31a6.27,6.27,0,0,1-1.48.42c-2.42.13-4.67-.05-5.29-3,.75-2.63,3.49-.22,4.65-1.83C71.71,12.68,74.56,13.75,76.93,11.88Z"/><path class="cls-28" d="M69.12,13.16c-1.06,1.76-2.36,2.08-4,.68-.79-.5-.7-1.13-.29-1.81a7.23,7.23,0,0,0,0-.93C66.16,12,67.24,13.41,69.12,13.16Z"/><path class="cls-100" d="M100.85,12.92c-.63.45-.6.82.13,1.1,1.49,1.21,3.53-.25,5,1a4.93,4.93,0,0,0,.13.87c-.94,1.3-2.37,1.68-3.8,2.06-5.21.68-6.44,2-6.22,6.82.7,15.4.13,30.8.3,46.21-.23,2.1-.06,4.51-3.26,4.39-2.13-1-2.48-3.06-2.48-5-.09-19.2-.19-38.39,0-57.5.68-.46-.79-.51-.18-.23-.61,1.08-1.29,2-2.67,1-.75-1.74.07-3.55-.22-5.31a2.62,2.62,0,0,1,.36-1.42l2.22-1.82c7.17,0,8,1.59,5.29,10.21,2.89-.2,3.7-2.12,3.82-5.64Z"/><path class="cls-101" d="M104,5.94c1.39.15,2.91-.25,4,1,.49,1,.67,2.43,1.86,2.64,4.32.79.8,1.63.07,2.46-2.7-.07-5.23-1.55-8-.92l-.72-1.21C102.21,8.62,105,8.57,104,5.94Z"/><path class="cls-102" d="M104,5.94c.4,1.25,2.83,1.32,2.28,2.7-.93,2.3-3.5.18-5.06,1.27,1.21-1.35-3.69-4.87,1.69-4.74Z"/><path class="cls-103" d="M87.89,6.89c.07.39.14.79.22,1.18-.06,1.29.7,2.57,0,3.85.15,1.43.68,1.95,1.57.48S89.3,9,91.36,7.63c1.15,1.61.64,3.43.64,5.07,0,18.15,0,36.3,0,54.45,0,2.63-.52,5.37,1,7.8a2.29,2.29,0,0,1-1.26.8,5.41,5.41,0,0,1-2.3-.09c-1.44-.75-4-.31-3.52-3.16a11.06,11.06,0,0,0,2.48-8.86c-1.2-6.43-.15-12.9-.87-19.32,0-6.11,0-12.22,0-18.32,0-1.29,0-2.6.07-3.89a17.14,17.14,0,0,0-.09-2c-.54-2.06-3.11-2.14-3.89-4a1.84,1.84,0,0,1,.2-1.3,1,1,0,0,1,1.23.08c1.36.72,3.18,2,1.73-1.21C85.73,11.15,85,8.77,87.89,6.89Z"/><path class="cls-104" d="M85.14,14.88,84,15c-4.21,1.56-8.33,3.7-13,2,.88-2,2.84-1.6,4.42-2.18,1.3-.48,4.43.63,3.59-2.8C82.61,9.64,83.73,12.56,85.14,14.88Z"/><path class="cls-105" d="M151,63c3.14,3.81,4.13,8.61,6,13,1.81,7.12,1.49,14.39,1.3,21.62a63.79,63.79,0,0,1-4.21,19.81c-.84,2.33-1.82,4.66-4.33,5.79-3.69-.2-6.93-1.07-7.85-5.34a5.8,5.8,0,0,0,4.07-5,17,17,0,0,1,4-9.48c2-2.29,1.87-5.19,1.49-8.05-1.27-9.67-1.5-19.5-4.86-28.81a3.14,3.14,0,0,1,0-1.49C147.59,63.31,148.65,61.75,151,63Z"/><path class="cls-106" d="M149,122.94c5-4.55,5.29-11.14,6.88-17,2.65-9.81.06-20,1.13-29.94,2.94,3.93,3.52,8.61,4,13.25,1.18,12.73-1.3,24.9-6,36.7C151.82,127.28,150.15,125.63,149,122.94Z"/><path class="cls-107" d="M151,63c-1.75-.12-2.64,1.42-4,2.05-1.21,3.13-4.56,3.67-6.77,5.58a50.54,50.54,0,0,0-7.07,4.06c-4,2.27-8,4.45-11.84,6.91-2.73,1.3-5.13,3.18-7.87,4.45a5.85,5.85,0,0,1-3.55.68,2.63,2.63,0,0,1-1.23-.81c-.75-2.75,1.26-3.87,3.06-5,2-1.23,4.08-2.19,6-3.52C127,72,136.36,66.77,145.6,61.32c2.65-.71,4.51-3.13,7.36-3.39,4.79-1.47,8.53-4.87,13-7l1.93-1.87L169.3,52c-.67,2.67-2,4.5-5.13,4.17-2-.21-3.15,1.74-5,2Z"/><path class="cls-108" d="M165,69q1.49,5,3,10c3,3.69,2.15,8.21,2.35,12.38.42,8.65-1.7,17-3.9,25.31-.39,1.49-1,2.81-2.57,3.4L163,120c5.08-19.18,4.36-38-4-56.45,3.42,1.27,2.82,4.53,4.51,6.41.29.32.29,2.26,1.37.52C165.12,70.09,165,69.48,165,69Z"/><path class="cls-109" d="M149,122.94c1.91,1.19,3.55,2.9,6,3l4,1.16c.95,1.94-.33,2.17-1.72,2.1-1.56-.07-3.08-.68-4.68-.44-6.63-1.6-12-5.79-17.89-8.83-3.36-2.14-6.83-4.1-10.07-6.44a3.65,3.65,0,0,1-1.18-1.81c.09-2.64,1.69-2.48,3.43-1.76,2.29,1,4.57,2,6.9,2.81a10.19,10.19,0,0,1,1.33.52c2.34,1.48,5,2.51,6.82,4.74C143.61,120.62,146.86,121,149,122.94Z"/><path class="cls-110" d="M152.91,128.09c1.12-1.7,2.35-.2,3.52-.13,1,.06,2.33,1.24,2.59-.86l1.1.05c.65.59,1.52,1,1.78,1.92,1.15,1.88,4-.31,4.92,2-.29,1,.48,1.44.91,2.09.57.83,1,1.78.34,2.69a2.58,2.58,0,0,1-3.12.62c-2.62-.91-4.74-2.82-7.38-3.72C156,131.29,153,131.09,152.91,128.09Z"/><path class="cls-111" d="M161.9,129.07a1.65,1.65,0,0,1-1.78-1.93,5.05,5.05,0,0,1,.74-.27,6.66,6.66,0,0,1,5.58-1,4.7,4.7,0,0,1,2.57,2,4.87,4.87,0,0,1,.83.31C167.33,129.75,164.31,126.61,161.9,129.07Z"/><path class="cls-108" d="M161.07,126c-.74-2.45.31-4.33,1.92-6h0c1.39,1.48.62,3.53,1.38,5.18a1.47,1.47,0,0,1-.6,1.19C162.85,126.43,161.9,126.7,161.07,126Z"/><path class="cls-112" d="M161.07,126l2.8-.16c1.36-.63,2.66-1.1,3.18,1l-6.19,0A3.18,3.18,0,0,1,161.07,126Z"/><path class="cls-113" d="M164.19,125.06c-3.95-.86-.17-3.53-1.19-5.08,4-4.62,3.55-10.65,4.87-16.07,2-8.22,1.58-16.61.12-24.92h1c.6.07.63.72,1,1,1.89,7.27,2.6,14.58.95,22a2.63,2.63,0,0,1,.89,2,7.08,7.08,0,0,1-.16,1.45c-.65,3-1.28,6-1.8,9-.24.91-.55,1.8-.82,2.7a12.52,12.52,0,0,1-.44,1.35C167.23,120.71,168.06,124.48,164.19,125.06Z"/><path class="cls-114" d="M180,100l0,3c-1.08,1.13-1,3.28-3.08,3.51A1.7,1.7,0,0,1,175,106c2.2-4.33-.27-8.65,0-13,1.37,1.49,1,5.82,5,3C180,97.32,180,98.67,180,100Z"/><path class="cls-115" d="M175,106l2,0c.32.14.46.31.4.53s-.14.34-.23.34L177,107a2.92,2.92,0,0,1-1.93.94,3.73,3.73,0,0,1-2.06-.5c-1.23-.82-.88-2.58-2.06-3.44,0-.67,0-1.34,0-2,1.58-.56.62-3.87,2.79-3.18s.75,2.67.4,4.15C173.9,104.07,173.87,105.2,175,106Z"/><path class="cls-114" d="M175,84c2.62,3-.23,6,0,9C171.43,90,176.71,87,175,84Z"/><path class="cls-108" d="M170,80l-1-1c0-1.35,0-2.7,0-4.06C170.52,76.39,169.83,78.27,170,80Z"/><path class="cls-116" d="M78.86,171.08c1.49-.42,3.3.58,4.94-1.39-2.23-.58-4.17-1.44-6.14-1.55-10.4-.58-19-5.74-27.71-10.63C45,154.76,40.47,151.54,37,147c-.44-4-4.58-5.79-5.73-9.41-.58-1.86-2.11-4,1.64-4,3.88,4.2,7.44,8.67,11.28,12.91A69.41,69.41,0,0,0,75,164.93c3.33,1,6.86,1.22,10.2,2.28a2.43,2.43,0,0,1,1.4,1.82,4,4,0,0,1-2.73,3.86C81.87,173.1,79.73,173.82,78.86,171.08Z"/><path class="cls-41" d="M74,175l-1,0c-1.73-1.25-2.36,1.92-4,1-1.91-4-4.82-6.05-9.47-6.15-2.26-.05-5.34.33-6.54-2.82.07-1.38-4.14-3,.23-4.13,5.41,1.66,10,5.31,15.77,6.15,2-.16,3.64,1.26,5.59,1.37a2,2,0,0,1,.85,1,8.71,8.71,0,0,1-.3,3.83A.88.88,0,0,1,74,175Z"/><path class="cls-117" d="M36.13,158.05A2.48,2.48,0,0,1,34,157c0-.33,0-.66,0-1,1.85-.57,4.39-.74,1.06-3.22-1.47-1.1-.41-3.28-1-4.87L42,155c-1,.17-2,.41-1.53,1.84.79,2.33-.61,2.92-2.48,3.15C37.39,159.31,36.67,158.76,36.13,158.05Z"/><path class="cls-118" d="M33,134c-1.46.17-2.21.71-1.2,2.23,1.37,2,2.77,4.05,4,6.15.83,1.38,2.87,2.54,1.17,4.59l-8-9a3.83,3.83,0,0,1-.91-3.71,3.54,3.54,0,0,1,3.56-2.64C32.77,132,33.4,132.72,33,134Z"/><path class="cls-3" d="M29,134c0,1.33,0,2.67,0,4L26.09,139c-.36-1,1.08-2.14-.11-3.15C25.43,132.78,27.07,133.14,29,134Z"/><path class="cls-119" d="M75,171c-2.33.29-4.19-.8-6-2a5.71,5.71,0,0,1,7,1.84A.64.64,0,0,1,75,171Z"/><path class="cls-49" d="M75,171l1-.19,2.86.22c1.51,1.48,3.46.7,5.2,1a1.11,1.11,0,0,1-.44,1.45A7.58,7.58,0,0,1,75,172C75,171.65,75,171.34,75,171Z"/><path class="cls-120" d="M36.13,158.05c1.24,0,1.91.62,1.86,1.92l-3.83-.2Z"/><path class="cls-49" d="M69,176c1.24-.72,2-3.32,4-1-.33.34-.67.67-1,1C71,176.24,70,177.56,69,176Z"/><path class="cls-121" d="M61,175.14c-1.19-2.37.9-1.89,2-2.28a2.24,2.24,0,0,1,1,2.06C63.06,175.86,62,175.61,61,175.14Z"/><path class="cls-49" d="M61,175.14l3-.22A2.07,2.07,0,0,1,63,177Z"/><path class="cls-122" d="M83.83,172.93a1.54,1.54,0,0,0,.24-.88l2-3a1.5,1.5,0,0,1,1.56-.39c2,1.62,1.77,3.39.33,5.23v0c-2.94,1.05-1.62,4.81-4,6.24L83,179a7,7,0,0,1-.91-2.09A3.79,3.79,0,0,1,83.83,172.93Z"/><path class="cls-49" d="M83,177v2c-2.82-1.7-6.51-1.43-9-4l1,0C78.28,173.19,81,173.79,83,177Z"/><path class="cls-123" d="M29,134c-1.39,0-2.84,0-3,1.92-2.08.1-2.18,2.66-3.93,3.18-1.73,1.22-3.48.89-5.23.06a3.05,3.05,0,0,1-1.89-3c-.74-1.66-.58-3.07,1.11-4.06l1.13-.92c.31-.44,1.11-.7,1.2-.45,1.55,4.31,4,1.92,6.06.74,4.56-2.58,9.26-4.92,13.49-8a16.68,16.68,0,0,1,4.14-1.27c1.27,0,2.51,0,3.09,1.43-.56,2-2.21,3.06-3.71,4.25C38.25,129,35.51,131.35,32,132Z"/><path class="cls-53" d="M122.86,12.94,124,13c-1,5,3.24,4.77,6,6,1.49,1.1,3.67.5,5,2l6,7a1.36,1.36,0,0,1,0,2l-.09.11a1.54,1.54,0,0,1-1.83.31c-6.36-4.46-13.37-7.74-20.23-11.29-.65-1.83-2-1.73-3.47-1.19a7.29,7.29,0,0,1-5.56-.89,2.85,2.85,0,0,1-.87-1.18c3.59-1.11,7.5-.31,11-1.85C120.7,12.94,121.45,12,122.86,12.94Z"/><path class="cls-124" d="M138.31,18.72c2.8,1.79,5.41,2.57,5.27,5.68a1.38,1.38,0,0,1-1.84,1.2C139.15,24.33,139.2,21.75,138.31,18.72Z"/><path class="cls-52" d="M135,21a5.9,5.9,0,0,1-5-2C131.76,19.43,134.35,17.78,135,21Z"/><path class="cls-125" d="M148.82,27.19c-1,1.63-2.2,2.45-3.9.82C146,26.45,147.43,27,148.82,27.19Z"/><path class="cls-83" d="M141,30l0-2a2.67,2.67,0,0,0,3,0C143.9,30,142.49,30,141,30Z"/><path class="cls-126" d="M109,15.83a4.72,4.72,0,0,0,.9.29c.14,1.62-1.15,1.69-2.2,2-1.72.12-3.46.29-4.67-1.35.84-1,2-.72,3.09-.86Z"/><path class="cls-127" d="M122.86,12.94,120,14c-.23-.71-1-1.6.29-2A2,2,0,0,1,122.86,12.94Z"/><path class="cls-27" d="M106,15.06c-1.66-.34-3.58.51-5-1C102.67,14.24,104.61,13.27,106,15.06Z"/><path class="cls-128" d="M107.83,17.14l2.06-1a13.83,13.83,0,0,0,6.07.93c1.11,0,2.25-.11,3,1a130,130,0,0,1,22,12c3.66,3.66,7.92,6.71,11.08,10.87.91,2.54,4.15,3.76,3.93,7-4.4-1-5.11-6.19-8.88-7.93-10.88-9.4-22.81-16.92-36.85-20.7C109.14,19,107.91,18.64,107.83,17.14Z"/><path class="cls-129" d="M22.88,48.22,24,48.1l1,2c2.39.57,2.45-1.11,2.61-2.7-.05-1.47-.18-3,2-2.79,1.4.8.69,2.08.74,3.19,0,.66-.12,1.32-.2,2-.12,1.16-.39,2.34.42,3.38A7.44,7.44,0,0,0,33,54.44a10.42,10.42,0,0,1,1.48,1c1,.7,2,1.3,3,2,.72.44,1.47.82,2.22,1.22,3,1.64,5.66,3.88,8.78,5.35a22.19,22.19,0,0,1,4.77,2.86,3.68,3.68,0,0,1,1.06,2.65c-.6,1.39-1.83,1.55-3.13,1.59a6.09,6.09,0,0,1-1.45-.28c-6.59-4.69-13.8-8.33-20.89-12.19-1.84-1-3.89-1.86-5.05-3.82.48-2-1.51-2.78-2.1-4.26A2.41,2.41,0,0,1,22.88,48.22Z"/><path class="cls-130" d="M32.86,34.94c1.69-.73,3.39-2.94,5.06,0-1,4.39-4.6,8.37-8.29,9A3.94,3.94,0,0,1,29,39Z"/><path class="cls-131" d="M29,39l1.09,5.1a.5.5,0,0,1-.23.81c-1.94.24-1.86,1.73-1.93,3.12-.33.44-.63.44-.87-.08C25.52,44.48,26.62,41.59,29,39Z"/><path class="cls-72" d="M27.07,47.94l.87.08c.2,2.45-.19,4-3,2.06Z"/><path class="cls-132" d="M29.87,44.9a3.75,3.75,0,0,0,.23-.81L37.92,35l13.16-9.79c5.18-5.44,12-7.15,19-8.08A2.32,2.32,0,0,0,71,17c4.4-.33,8.48-2.75,13-2,0,.31,0,.62.07.93-.4,3.12-3.19,2.46-5,2.78A75.76,75.76,0,0,0,43.9,34.91,84.32,84.32,0,0,0,33.29,45.34C32.14,46.66,31.35,48.57,29,48,29.3,47,29.58,45.93,29.87,44.9Z"/><path class="cls-133" d="M70.13,17.09c-6.47,2.42-13,4.67-19,8.07L54,20l4.08-2.92c.58-1.19,1.13-2.42,2.83-2.14,1.57-.4,2.36-1.62,3.09-2.92l.87,0c.09.6.19,1.2.29,1.81C65.07,17.59,68,16.78,70.13,17.09Z"/><path class="cls-134" d="M39,26c-.2,1.17.55,2.55-1.1,3.81C37.73,28.18,37.85,27,39,26Z"/><path class="cls-135" d="M60.92,14.92c-.94.71-1.16,2.38-2.83,2.14-1.79-.77-2.26-2.22-2.05-4l1.2-1C59,12.31,59.71,13.93,60.92,14.92Z"/><path class="cls-136" d="M152.91,144.94c-2.46,2.18-5,4.25-6.84,7.07-1.36,2.5-4.21,3.13-6.16,4.91l-1,1h0l-5.1,3a2.18,2.18,0,0,1-.86,1.68,16.07,16.07,0,0,1-3.89,2.26,9.5,9.5,0,0,0-3.41,1.47,2.77,2.77,0,0,1-1.8.53,2.85,2.85,0,0,0-.92.09c-2.4,2.4-5.66,2.86-8.69,3.84l-3.5,1.05c-1.91.49-3.92.36-5.8,1a7.38,7.38,0,0,1-4.6-.21,2.15,2.15,0,0,1-1-1.18c-.46-2.26.91-3.15,2.76-3.73s3.71-1,5.54-1.49a70,70,0,0,0,41.87-24.8c1.54-1.86,3.15-5.27,6.74-2.62C157.33,142,153.89,142.81,152.91,144.94Z"/><path class="cls-137" d="M139.91,156.92c1.59-2.23,3.9-3.54,6.16-4.91l3.31-1.28c1.7,1-.95,5.92,3.72,4.31-.77,4.66-3.88,3.89-7,3-.57-1.08.25-1.25,1-1.61s.71-.81.28-.29-.34-.92-.4-.25c-.83-2.2-2.23-1.39-3.55-.63C142.26,155.94,141.43,157.15,139.91,156.92Z"/><path class="cls-138" d="M129.06,164c1.36-.64,2.1-2.29,3.82-2.35a3.39,3.39,0,0,1,1.13,4.25l-1.08.09c-2.19-.19-3.42,1.81-5.36,2.35s-3.23.87-3.67-1.55l1-1A27,27,0,0,1,129.06,164Z"/><path class="cls-139" d="M146.93,155.93l1.66-.06c-.23.33-.39.85-.7,1-.73.27-1.5.4-1.81,1.25-.06,1.28-.12,2.56-.17,3.84l-2,1.83C142.65,160.27,141.65,156.88,146.93,155.93Z"/><path class="cls-140" d="M134,165.94a7.91,7.91,0,0,1-1.13-4.24c.32-.28.65-.54,1-.81,2.43.31,3.32,1.79,3.09,4.11C136.69,167.53,135,165.65,134,165.94Z"/><path class="cls-141" d="M138.94,157.93c1.5.29,3.14.48,2.14,2.72-.36.8-1,1.51-1.89,1.09-2.16-1.06.32-2.56-.23-3.82Z"/><path class="cls-142" d="M114,170c3-1.13,5.79-2.68,9-3a6.76,6.76,0,0,0,1,4c-.56,1.06.26,3-1.93,3L120,175c0-1.41.06-2.92-2-3A6.07,6.07,0,0,1,114,170Z"/><path class="cls-143" d="M122.07,174c1.59-.4-.61-3.23,1.93-3,1.5,1,2.93,2.1,1.08,3.79C124.1,175.66,122.39,176.83,122.07,174Z"/><path class="cls-144" d="M131,174c-.76-.16-1.72-.17-1.51-1.31.05-.27.82-.65,1.16-.56,1.31.32.43,1.19.35,1.86Z"/><path class="cls-145" d="M162,146c-1.33,1.41-1.54,3.27-2,5l-9,2.84c1.41-4.17,5.22-6.13,6-9.84C160,141.13,161.24,142.92,162,146Z"/><path class="cls-146" d="M162,146c-1.12-2-2.41-3.61-5-2-1.74-1.31-2.74.53-4.07,1-.08-2.48,3.44-3.24,2.85-6a.9.9,0,0,1,.39-1.2c1.28.23,1.54,1,1.09,2.1,1,2.68,4.19,2.28,5.74,4.16A1.87,1.87,0,0,1,162,146Z"/><path class="cls-147" d="M104.8,171.87c1.91-1.32,4.14-.56,6.2-1a3,3,0,0,0,2.7,2.21c1.46.48,3.07.62,4.24,1.78l1,4L117,179c-2.26-2.18-4.39-4.61-8-4a6.55,6.55,0,0,1-1.77-1.12c-.3-.19-.59-.39-.88-.59C105.77,172.88,105.1,172.58,104.8,171.87Z"/><path class="cls-148" d="M113,174c-2-.12-3.06-.9-2-3.05.75-1,1.89-.94,3-1,1.71-.05,3.28.17,4,2,0,.68-.06,1.35-.08,2C116.29,174.3,114.66,172.25,113,174Z"/><path class="cls-149" d="M113,174c1.68-4.53,3.31-2,4.94,0a6.91,6.91,0,0,1,0,.91A7.44,7.44,0,0,1,113,174Z"/><path class="cls-150" d="M14.11,81,14,80c-.87-2-.09-4-.12-5.94.28-2.29,1.46-4.25,2.25-6.36,1-2.19.89-5.06,3.58-6.31,2.26.5,4.48-2,6.77-.08.62,1.95-.42,3.55-1.18,5.16-2.76,5.88-3.46,12.35-5.41,18.46-.89,7.41-.44,14.81.06,22.2.13,2,.68,3.94-.65,5.73-2.93.32-3.09-2-3.3-3.81-.85-7.22-2.13-14.42-1.16-21.73C15.1,85.16,15.28,83,14.11,81Z"/><path class="cls-151" d="M14.11,81c2.33,1.13,1.95,3.28,1.89,5.23a171.89,171.89,0,0,0,1,22.34A6.13,6.13,0,0,0,19,113c2.59,2.7,2.55,6.38,3.53,9.67.49,1.65-.33,2.9-2,3.55a1.91,1.91,0,0,1-2-.64,9.33,9.33,0,0,1-1.25-2.65c-.29-2.08-.27-4.25-2-5.85-.53-1.31-1.47-2.6-.31-4-.58-4.24-1.09-8.49-1.76-12.71C12.19,93.81,13.66,87.45,14.11,81Z"/><path class="cls-25" d="M7.05,105c-3.1-.68-3-3.21-3-5.49A111.55,111.55,0,0,1,6,78q2,3.48,4,7c1.91,3.7-.61,7.22-.43,10.85.11,2.11-.5,4.29.44,6.35C9.9,104,8.83,104.85,7.05,105Z"/><path class="cls-152" d="M8.9,75.06c-2.12-6,.86-11,3.14-16.06,2.34-.3,3.15.93,3.08,3.06,1.36,4.85-2.33,8.34-3.35,12.56A2.31,2.31,0,0,1,10,75.87Z"/><path class="cls-153" d="M10,75.87l.92-1C12.12,74,13.37,73.19,15,74c.07,2.08.12,4.15-1,6L12.1,83.9C10.46,81.25,12.08,78,10,75.87Z"/><path class="cls-153" d="M10,102.11C8.29,100.25,9,98,9,95.9c.11-3.67.6-7.33.93-11,3.29,1.22,2.77,4.82,1.83,6.06C9.06,94.58,10.5,98.42,10,102.11Z"/><path class="cls-154" d="M15,113l1.2,3.8-.28.66c-1.19,1.14-2.1.72-2.86-.52h0c-.69-1.34-1-2.86-1.95-4.08a7.23,7.23,0,0,1,0-.93H13Z"/><path class="cls-123" d="M24,54c6,4.5,13,7.2,19.27,11.06A31,31,0,0,1,50,70c.31,1.46-.77,1.64-1.75,1.92-2.91.17-5-1.77-7.3-3-1.67-1.14-3.71-1.61-5.33-2.85a17.24,17.24,0,0,0-3-2.27c-1.26-.77-2.71-1.13-4-1.83a7.9,7.9,0,0,1-2.09-1.52,23.78,23.78,0,0,0-3.44-2c-1.41-2.29-4-1.67-6-2.54-2.18-2.06-3-4.6-1-7,1.78-2.15,4.31-3,6.88-.75a1.57,1.57,0,0,1-.84,1.7c-.68.51-1.8.9-.34,1.85A5.32,5.32,0,0,1,24,54Z"/><path class="cls-155" d="M15,74a5.9,5.9,0,0,1-4.08.94c.16-4.69,3.56-8.32,4.22-12.85A5.47,5.47,0,0,1,16,62c2.53,1.64,1.54,3.86,1,6Z"/><path class="cls-156" d="M17,68c0-2,.21-4.15-1-6,.25-2.47.5-4.94,4.42-3.9-1.09-1.55-2.91-.64-3.4-2.14,2.51,0,5.18-.54,6.86,2.13-.07,2.56-2.57,2.64-3.95,3.87C17.84,63.41,18.66,66.3,17,68Z"/><path class="cls-148" d="M107,173a1.83,1.83,0,0,1,2,2c-2,3.58-5.64,0-8,1.93l-1.9-.89c-.69-1.5.31-2.64.83-3.88l4.86-.27c.86.11,1.72.2,2.22,1.07l-.1.14Z"/><path class="cls-89" d="M96.08,175.93c-1-.43-1.57-2.13-3-.93-2.61-6.09-1.56-12.3-.65-18.51,1.23-1.49,2.14-.45,3.08.38,1.72,3.95.56,8.12,1,12.17-.11,1.62.87,3.32-.33,4.87Z"/><path class="cls-157" d="M96.08,173.91l-1-3.79c1-2.17,2.42-1.55,3.9-.6.63.64.2,1.77,1,2.33l-.11.29c1.49,1.67.11,2.73-.83,3.88-.08.62-.15,1.24-.23,1.86C97.72,176.72,98,174.56,96.08,173.91Z"/><path class="cls-158" d="M107.83,17.14c11.73,3.29,22.64,8.22,32.22,15.87a31.45,31.45,0,0,1,7,6.94c-5.07-3.23-10.12-6.5-15.24-9.67-4.89-3-9.9-5.84-15.82-6.29-5.09.19-9.83-2-14.87-2.22-1.6-.07-3.28-.86-4.17,1.27,0,.63,0,1.26,0,1.89.51,2.08.25,4.19.38,6.29.06,1.38,0,2.75,0,4.12.15,1.75,0,3.5,0,5.24-.42,9.89.76,19.81-.71,29.67a1.14,1.14,0,0,1-1.54.61c0-16.36-.13-32.73,0-49.09,0-4.27,2.17-5.47,7.87-5Z"/><path class="cls-159" d="M123,32c11.1,3.76,19.69,11,27.15,19.72A4.51,4.51,0,0,1,151,55c-1.76,3.09-4.12,5.27-7.94,5.23a2.15,2.15,0,0,1-.59-1.26c.4-1.73,1.22-2.85,3-2.34-5.61-9-15.1-13.89-23.62-19.9C119.63,34.49,121.87,33.38,123,32Z"/><path class="cls-160" d="M123,32c1.8,1.87-2.8,2.14-1,4-2.9,1.68-5.4-.93-8.15-.76C107.91,34.07,102.3,31.5,96.2,31c.14-2.05-.92-4.26.79-6.11l0,.15c6.22,1.83,12.17,4.92,19,3.94C118.82,28.84,120.45,31.51,123,32Z"/><path class="cls-161" d="M97,23c-1.58-3,.85-3.17,2.45-2.87C105,21.23,110.8,21.36,116,24c.62,1.4,2.93.67,3.47,3.25A85.16,85.16,0,0,0,97,23Z"/><path class="cls-162" d="M116,29c.35,1,.68,2.1-1,1.94-5.76-.55-11.06-3.42-17-3.33-1,0-.91-1.58-1-2.55A5.27,5.27,0,0,1,98,25c1.51,1.18,3.51-.19,5,1C107.72,25.33,111.39,29.16,116,29Z"/><path class="cls-163" d="M143,59.89c3.16-.85,5.21-3.5,8-4.91l1,.05c.33,1,.65,1.93,1,2.9a12.64,12.64,0,0,1-6.78,4.15,3.46,3.46,0,0,1-4.16-.77C141.65,60.39,142,59.9,143,59.89Z"/><path class="cls-160" d="M103,26c-1.7-.21-3.59.64-5-1C99.69,25.21,101.59,24.34,103,26Z"/><path class="cls-164" d="M38,124.07c-5.79,5.63-13.35,8.1-19.71,11.82-2.75-1.66,2.94-3.72-1.15-4.8,1.25-2.09,3.32-.56,4.92-1.09.95-1.17,2.38-1.65,3.55-2.5.72-.43,1.47-.8,2.2-1.2,1.14-.58,2.15-1.36,3.22-2,2.06-.88,3.71-2.65,6.09-2.85a2.14,2.14,0,0,1,1.21.68A1.72,1.72,0,0,1,38,124.07Z"/><path class="cls-165" d="M18.91,125l1.23.65c.66.22,1.35.32,2,.55,1.26.93,2.44,1.87,0,2.84L16,128.93c-.53-.54-1.52-.15-1.94-.93l1-1C16.4,126.49,16.94,124.34,18.91,125Z"/><path class="cls-166" d="M22.17,129.06c1.83-1.86.08-2.07-1.16-2.52,2.46-2.41,4.22-2.25,5,1.38-.72,1.83-2.23,2.14-3.94,2.08A4.22,4.22,0,0,1,22.17,129.06Z"/><path class="cls-46" d="M16,132l-1.11,4.06C13.6,134.25,12.85,132.59,16,132Z"/><path class="cls-167" d="M14,128a1.88,1.88,0,0,1,1.94.93c-1-.33-1.89,3.18-2.91,0Z"/><path class="cls-168" d="M171,104c2,.07,2.07,1.5,2,3,.23,1.69,1.08,3.26,1,5v1c-1.83.78-2.1,2.32-2,4,.88,1.16.92,2.22-.35,3.13a1.26,1.26,0,0,1-1.18-.48A5,5,0,0,0,168,117a2.11,2.11,0,0,1,.81-2c1.32-3.25,1.45-6.75,2.1-10.14A1.46,1.46,0,0,1,171,104Z"/><path class="cls-169" d="M174,112c-1.15-1.5-3.08-2.86-1-5l2.08,0a7.33,7.33,0,0,1,1.87,2.93C177.88,113.38,175.09,111.46,174,112Z"/><path class="cls-34" d="M177.16,106.86A3.2,3.2,0,0,1,177,106l3-3C180,105,179.8,106.81,177.16,106.86Z"/><path class="cls-170" d="M176.94,109.92a2.6,2.6,0,0,1-1.87-2.93H177A2.28,2.28,0,0,1,176.94,109.92Z"/><path class="cls-171" d="M87.94,173.9c-.46-1.65,1-3.63-.86-5-.37-1.25.69-1.92,1.15-2.83.9-4.25,0-8.57.56-12.79.33-2.41.93-5.25,4-1.71-.82,8.46.31,17-.83,25.43-.28,1.21-.72,2.67-1.75.55C89.59,176.18,90.41,174.06,87.94,173.9Z"/><path class="cls-172" d="M92,177q0-13,0-25.93c-2.68-5.06-1-10.49-1.37-15.75.2-4.93-.32-9.87.35-14.79a3.66,3.66,0,0,1,1-1.61c1.21-.09,1.68.74,2.07,1.66.83,10.75.3,21.51.29,32.27A4.09,4.09,0,0,1,93,156q0,9.53,0,19.05c0,.66,0,1.32,0,2Z"/><path class="cls-173" d="M18.91,125c-1.31.62-2.19,2.1-3.89,2,.33-1,.67-2,1-3a1.84,1.84,0,0,1,1.06-1.42,1.08,1.08,0,0,1,1.08.35A2.07,2.07,0,0,1,18.91,125Z"/><path class="cls-174" d="M17,123l-1,1c-3.2-1.35.64-2.68,0-4C18.41,120.27,17.41,121.71,17,123Z"/><path class="cls-154" d="M17,123c-.05-1.1.12-2.26-1-3q-.06-.46-.15-.93a1.5,1.5,0,0,1-.11-1.75l.41-.46a9.61,9.61,0,0,1,2,6.09Z"/><path class="cls-174" d="M15.77,117.28c0,.59.07,1.17.11,1.75C14.46,119,13,119,13,117A3,3,0,0,0,15.77,117.28Z"/><path class="cls-174" d="M11.09,112.89c1.71.85,2,2.37,1.95,4.08A5,5,0,0,1,11.09,112.89Z"/><path class="cls-175" d="M171,120c1.17-.7,1-1.88,1-3,2.59.14,1.88,2.73,2.95,4-2.27,2-8,1.06-6,6.88l-2-1c-.82-1.1-2.09-.77-3.18-1,.1-.26.2-.53.32-.79,2.64-1.69,1.83-5.1,3.6-7.23a2,2,0,0,1,.91.75C169.12,119.6,170.22,119.53,171,120Z"/><path class="cls-176" d="M158,131.92c2.42.23,4,2,6,3.07,1,.5,2.09,1.59,3.11.61,1.28-1.22-.28-1.94-.93-2.74-.76-1-1.15-1.69.59-1.76l2.23,1.85V137l-4,3.12c-3.46.42-4-3.88-7-4.27a1.47,1.47,0,0,1-1.16-1.84A6.7,6.7,0,0,1,158,131.92Z"/><path class="cls-177" d="M156.87,134.16c.38.57.77,1.14,1.16,1.7.17,1.42,2.48,3.27-.79,4l-1.32-1.77c-1.09-1.41-1.2-2.77.19-4.06Z"/><path class="cls-178" d="M95.19,70.86a3.36,3.36,0,0,0,1,0,3.57,3.57,0,0,1,1.24-.64,4.3,4.3,0,0,1,2.07.26c3.11,1.42,6.24,2.82,8.61,5.38,1.28,1.38,2.84,1.37,4.49,1.24,1.68.38,3.45,0,5.13.51l.42.5c-1.31,2.06-3.72,2.43-5.6,3.61-1.64,1-3.54,1.76-3.39,4.2a1.41,1.41,0,0,1-1.23.33c-1.28-.64-1.87-1.92-2.76-2.93-1.14-2-3.48-2.9-4.43-5,0-3.74-1.77-.34-2.61-.66C95.9,77.09,93,78.24,92,75l1.1,0C95.77,74.62,94.76,72.37,95.19,70.86Z"/><path class="cls-179" d="M88.1,11.92c-.27-1.28-1.09-2.57,0-3.85A2.41,2.41,0,0,1,88.1,11.92Z"/><path class="cls-180" d="M39,59a2.09,2.09,0,0,1-2-1c1-5,4.14-8.52,7.63-11.84C56,35.34,69.22,28.65,85,27.42c-2.75.06-2.88,0-5.14-1.05A8.29,8.29,0,0,1,89,25q0,10,0,20a1,1,0,0,1-1.45-.27c-1.38-2.55-.81-5.32-.91-8,.6-3.59-.14-4.88-4.41-4.09a64.06,64.06,0,0,0-39.85,24C41.53,57.72,41,59.43,39,59Z"/><path class="cls-181" d="M89,25c-3,.67-6.19.44-9,2-5.41,2.87-11.6,3.57-17.06,6.56C54.11,38.39,45.89,43.77,39.8,52c-1.45,1.94-2.69,4.36-5.77,4l-1-1c1.11-5.29,4.72-8.89,8.44-12.41C53.36,31.27,67.24,24,83.75,22a10.49,10.49,0,0,0,3.82-1.1A1.61,1.61,0,0,1,89,21C89,22.34,89,23.67,89,25Z"/><path class="cls-182" d="M89,21H88l-.64.07a15,15,0,0,0-5.05.87C67,24.89,53.45,31.35,42,42c-2.94,2.74-5.09,6.1-7.73,9.06-1.13,1.26-1.8,3.36-4.18,2.88-2.54-.81-1-2.55-.91-4,5.86-7.74,12.48-14.7,20.7-20C59.3,24,69.49,19.66,80.68,18.09A13.7,13.7,0,0,1,89,19Z"/><path class="cls-183" d="M101,78a12.6,12.6,0,0,1,5.11,4.89,2,2,0,0,1-1.15.67c-2.77.11-4.45-1.83-6.42-3.3-1-.76-2.5-1.74-2.34.92.38,1,1.32,1.72,1,2.9a6.17,6.17,0,0,1-2.35,2.35,2.27,2.27,0,0,1-2-.21c-.69-.75-.64-1.85-1.06-2.74-1.37.44-1.49,2-2.6,2.43a10.28,10.28,0,0,1-1.11.64c-1,.6-1.21,1.67-1.57,2.66a12.2,12.2,0,0,1-3,4.57c-1.15.74-2.17,2-3.79,1.18-1.07-2.28,1-3.24,2-4.67a5.71,5.71,0,0,0,1-4.15c0-2.4-2.48-3.48-2.91-5.64C82.16,76.74,85.41,74.62,90,75l2,0c2,1.64,4.8.83,7,2.06A2,2,0,0,1,101,78Z"/><path class="cls-181" d="M89,19c-19.64-1-35.16,8.19-49.47,20.15-2.86,2.39-5,5.66-7.33,8.66-.85,1.1-1.53,2.13-3,2.21,0-.68-.09-1.35-.13-2,5.56-5.63,10.57-11.78,17.06-16.48A79.61,79.61,0,0,1,81.48,17c1-.15,2-.19,2.62-1.12Q86.55,17.44,89,19Z"/><path class="cls-184" d="M90,75a24.31,24.31,0,0,0-10,6c-.09.19-.19.39-.28.59a17.07,17.07,0,0,0-2.66,3.69,4.52,4.52,0,0,1-.88,1,3,3,0,0,1-1.31.29,2.18,2.18,0,0,1-1.14-.65c-.44-2.12-2.43-3-3.65-4.49-.6-1.33-2.57-2.67,0-4a7,7,0,0,0,7.56-1.66c2.12-1.9,4.8-4.21,8.35-2.79C86.87,74.6,89.13,73.37,90,75Z"/><path class="cls-185" d="M86,73c-3.11.62-6.44,1.75-8.19,4-2.67,3.51-4.94,2.81-7.79.94-.9-.58-1.84-1.15-.72-2.34,6.66,1.28,10.76-4,16-6.3,1.51-.65,1.33-2.52,1.36-4,0-3.3,0-6.6,0-9.9,0-3-.32-6.09.38-9.09A3.07,3.07,0,0,1,88,45h1c.88,6.14-.28,12.32.75,18.53C90.29,66.77,90.81,71.28,86,73Z"/><path class="cls-186" d="M142,118c-2.86-.41-4.91-2.22-7-4,1.35-2,4.37.87,5.21-1.5,1.27-3.57,3.31-7,3.58-10.75.34-4.78,1-9.54,1.15-14.28.17-6.2-2.56-11.87-5-17.5,1.72-2.54,4.91-3,7.06-4.92,3,7.8,5.29,15.71,4.64,24.24-.14,1.73.74,3.52,1.05,5.3.71,4.05.7,7.94-2.74,11-2.8,2.46-2.13,6.08-3,9.17C146.21,117.53,144.94,118.88,142,118Z"/><path class="cls-187" d="M121,81c3.48-3.22,7.66-5.25,12-7,4.18-1.58,8.07,1.55,7.17,6.33s-.23,9.16-.06,13.77c.25,6.85.17,13.89-5.4,19.24-5.37-2-11.12-3.33-15-8.16A15.4,15.4,0,0,0,122,98.67c.18-1.74,1.19-3.42,3.22-3s2.16,2.31,2,4a11.14,11.14,0,0,1-1.2,4.36C128.58,97,126.08,84.94,121,81Z"/><path class="cls-188" d="M134,113c4.64-6.14,5.47-13.2,4.61-20.51-.49-4.09-1.23-8,.38-12.1,1.19-3-2.45-6.65-6-6.4,1.69-2.43,4.31-3.25,7-4,5.12,2.82,5.1,8.6,5.69,12.87a57.33,57.33,0,0,1-4.47,30.91c-1.73,4-4.16-1.21-6.18.25-.32,0-.65,0-1,0-.35-.22-.46-.44-.35-.66S133.89,113,134,113Z"/><path class="cls-189" d="M121,81c1.32-.06,2.38-.73,3.41,1.35,4,8.09,5.36,16.22,2,24.75-1.6-2.55-1.76-2.62-.66-5.35a5.31,5.31,0,0,0,0-4.71,1,1,0,0,0-1.63-.35c-1.44,1.06-1.11,2.66-1.1,4.1,0,2.17-.3,4-3,4.22-1.83.8-3.18-.47-4.68-1.1a5.52,5.52,0,0,1-1.14-.9,5.31,5.31,0,0,1-1.14-4.11,11.1,11.1,0,0,1,.25-1.4,16.51,16.51,0,0,0-.09-8.23c-.36-1.39-.8-2.77-.2-4.2C115.8,84,117.82,81.35,121,81Z"/><path class="cls-190" d="M141.93,61l4.25,1.13a316.69,316.69,0,0,1-28.08,16l-.15-.2c-3-2,1.39-2.61.8-4.17a3.78,3.78,0,0,1,2-1.56,5.87,5.87,0,0,0,3.64-2.07,35.3,35.3,0,0,1,6.21-4.58c3-.57,4.81-3.1,7.33-4.46C139.24,60.64,140.56,59.83,141.93,61Z"/><path class="cls-191" d="M114,98c0,.32,0,.64,0,1-1.12,1.72-1.25,3.18,1,4h0c2.1,1.56,2.12,2.88-.46,3.89a4.82,4.82,0,0,1-2.23-.15c-1.65-.91-3.46-1.47-5.09-2.41a2,2,0,0,1-.53-1.26c.5-1.8,1.79-3.17,2.66-4.77a7.37,7.37,0,0,0-.06-8.7,3.41,3.41,0,0,1,.66-3.47L113,85A6.28,6.28,0,0,1,114,89,17.72,17.72,0,0,1,114,98Z"/><path class="cls-153" d="M109.94,86.11c0,1.29,0,2.57,0,3.86.19,1.2-1,2.3-.24,3.53a22.81,22.81,0,0,1,.55,4.35A1.07,1.07,0,0,1,110,99c-.83,1.46-1.2,3.27-3,4-.81-1.4-1.64-2.6-2.64-.12A5.86,5.86,0,0,1,103,105.3a3.29,3.29,0,0,1-3.44-.53,1.82,1.82,0,0,1-.74-1.9c2.52-1.8,1.72-5.45,4.27-7.43,1-.73-1.55-1.85-1.35-3.27,2.34-1.81,6-2.32,6.26-6.2l1.08,0C109.39,86,109.67,86,109.94,86.11Z"/><path class="cls-192" d="M158,131.92c.66,1.27.42,2.09-1.14,2.24l0,0c-2.4-.52-5-.55-6.94-2.32-1.74-1-3.4-2.17-5.17-3.14a75.77,75.77,0,0,0-6.87-4c-.81-.42-1.61-.87-2.39-1.36-1.28-1-3.07-1.65-2.93-3.77.58-1,1.32-1.42,2.37-.61l17.93,9.1C154,130.22,156.86,129.91,158,131.92Z"/><path class="cls-193" d="M114,106c2.56-.26,1.59-1.71,1-3l5,2q7,4,14,8c0,.33,0,.66,0,1-2.57-1-5.2-2-7.67-3.18-1.52-.75-2.11-.47-2.3,1.11C119.92,111.24,116.08,110.11,114,106Z"/><path class="cls-194" d="M114,106,124,111.9c.34.32.67.65,1,1,1.77,1.58,1.21,2.5-.84,3-2.87.06-4.78-2.12-7.23-3.06-2.2-1.36-4.61-2.45-6.28-4.55a2.83,2.83,0,0,1-.21-1.41c.29-.72.66-1.29,1.58-.92Z"/><path class="cls-195" d="M123.92,115c1.78,0,1.57-1,1.12-2.16,3.69,1.43,6.68,4,9.94,6.11a2,2,0,0,0-2,1,1.62,1.62,0,0,1-1.17.58c-2.07-.35-3.56-1.9-5.44-2.64C125.33,117.16,123.73,116.87,123.92,115Z"/><path class="cls-115" d="M170.92,104.81c.22,3.57.15,7.08-2.09,10.14A31.73,31.73,0,0,1,170.92,104.81Z"/><path class="cls-196" d="M168.11,118.91c-.11-.36-.21-.72-.32-1.08A2.49,2.49,0,0,1,168,117c2.31-1.35,3.18-.52,3,2A1.91,1.91,0,0,1,168.11,118.91Z"/><path class="cls-197" d="M32,132c2.44-2.67,5.78-3.72,9-5,4.07,4.38,7.13,9.65,11.92,13.38a17.46,17.46,0,0,0,9,5.84A29,29,0,0,1,69.52,150a16.48,16.48,0,0,0,13.27,2.23c1.8.57,3.84-.46,5.56.76a3,3,0,0,1,.57,1.39c-.3,3,1.86,6.11-.56,8.95-4.32,2-8.43.53-12.57-.75-13.14-4.05-24.61-10.72-33.54-21.41a11.86,11.86,0,0,1,2.82,3.33c.82,1.88.6,3.28-2.06,2.52-3.15-4.46-8.17-7.5-10-13C32.68,133.32,32.35,132.65,32,132Z"/><path class="cls-198" d="M43,147c1.47-.19,2.3-.75,1.16-2.24-1-1.28-2.47-2.25-2.39-5.17C55,152.62,69.29,162.32,88,163c2.27-.06,1.23,1.64,1.44,2.68-.77,2.11-2.87,1.7-4.42,2.32C68.34,166.32,54.55,158.9,43,147Z"/><path class="cls-197" d="M85,168l3.88-2a1.25,1.25,0,0,1,.12,2l-1.93.93-1,.2Z"/><path class="cls-199" d="M83,177c-2.35-1.86-5.13-2-7.95-2-.31-1-1.58-2,0-3,3,.25,5.78,1.57,8.81,1Z"/><path class="cls-200" d="M88,153c-1.66-.22-3.33,2.18-5,0-9.78-.28-17.83-5-25.48-10.39-1.84-1.3-3.86-.52-5.51-1.6-4.52-4-9-8-11-14,1.26-1.1,2.12-2.71,4-3.06l.69,0c3.22-1,5.55,0,7.85,2.57a49.66,49.66,0,0,0,23.39,14.14c2.47.72,5,1.59,7.64,0a2.89,2.89,0,0,1,4.47,1.6C89.5,145.83,89.93,149.51,88,153Z"/><path class="cls-201" d="M38,124.07c0-.73-.08-1.46-.11-2.18-.32-2.21,1.32-3,2.81-3.85,2.13-.61,3.63-2.42,5.76-3.05,1.84-.24,3.67-.42,4.89,1.44a2.78,2.78,0,0,1-.89,2.79,30,30,0,0,1-8.6,3.7A6,6,0,0,1,38,124.07Z"/><path class="cls-202" d="M41.89,122.92c2.57-1.56,4.79-3.78,8-4.11,1,.15,1.93.36,2.37,1.41-1.43,3.12-4.33,3.46-7.23,3.81l-.05-.12C44.21,122.75,43,123.06,41.89,122.92Z"/><path class="cls-52" d="M118.93,18.06c-1.08-.07-2.21,0-3-1a2.27,2.27,0,0,1,3.4-.55C120,16.94,119.5,17.64,118.93,18.06Z"/><path class="cls-203" d="M88,45c0,.34,0,.67,0,1a7.21,7.21,0,0,1-4,1.75A49.11,49.11,0,0,0,53.67,66.68L53,67,48,64.9c-4.61-5.15-4.85-5.38.07-10.65A62.6,62.6,0,0,1,82.82,35.06c1.81-.35,3.66-.51,5.18.94C88,39,88,42,88,45Z"/><path class="cls-204" d="M88,36c-12.48.26-22.86,5.78-32.52,13a48.11,48.11,0,0,0-9.38,9.42c-.82,1.09-2.39,3.11.49,3,4.6-.17.55,2.5,1.42,3.43A38,38,0,0,1,39,59,66.46,66.46,0,0,1,62.88,37.75,60.93,60.93,0,0,1,85.37,31C90.55,30.38,86.89,34.44,88,36Z"/><path class="cls-205" d="M30.05,54c2.75-3.25,5.35-6.65,8.28-9.72A72.27,72.27,0,0,1,71.11,24C75,22.84,78.76,20.87,83,21a5.87,5.87,0,0,1,5,0h0c-1.39,3.41-4.79,2.48-7.2,2.84-13.48,2-24.88,7.89-35.16,16.77C40.67,44.9,36.81,49.88,33,55,31.91,55,30.74,55.14,30.05,54Z"/><path class="cls-204" d="M34,56c1.47-1.31,3.22-2.42,4.37-4,7.53-10.27,18-16.55,29.24-21.87C71.57,28.29,75.8,27.71,80,27h7.35C66.58,30.82,48.57,39.15,37,58Z"/><path class="cls-206" d="M51,70c1.09,0,2.26.21,3-1,2.23-.59,4,1,6,1.35a6.61,6.61,0,0,1,1.78,1.28c1.81,2.26,2.47,4.1-1.55,4.22a8.44,8.44,0,0,1-2.74-1C55.36,73.14,51.74,73.49,51,70Z"/><path class="cls-207" d="M51,70l7,4a5.06,5.06,0,0,1-3.06,1.64c-2.06.29-3.65-.75-5.23-1.82-.84-.76-2.06-1.29-1.77-2.77A2.24,2.24,0,0,0,50,70C50.35,70,50.69,70,51,70Z"/><path class="cls-208" d="M24,54c-1.46.14-2.34-.9-3.35-1.66s-2.91-1.07-2-2.65,2.26-.14,3.4.24c.91.67,1.85,1.31,2.73,2C26.5,53.36,25.28,53.7,24,54Z"/><path class="cls-209" d="M60,71c-2.36.41-4.22-.69-6-2a2.12,2.12,0,0,1-1-2v0C56.7,66,58.91,67.51,60,71Z"/><path class="cls-210" d="M150,131l6.91,3.21c-1.71,1-1.14,2.5-1,3.92a8.85,8.85,0,0,1-.16.87c-3.35-1.15-4.39,2-5.65,3.61-7.28,9.4-16.78,15.59-27.45,20.46A43.46,43.46,0,0,1,108,167h-.76a33,33,0,0,0-6.94.66c-2,.32-3.82.2-4.1-2.31s1.31-3.36,3.35-3.44c6.08-.24,11.75-2.1,17.41-4.11A63,63,0,0,0,150,131Z"/><path class="cls-210" d="M100.05,171.85c-1.1,0-1-.92-1.14-1.64-.35-.84-2-1.43-.53-2.64,3.2-.29,6.32-2,9.62-.6h0c-1.62,1.5-3.82,1.44-5.76,1.88S99.94,170.23,100.05,171.85Z"/><path class="cls-64" d="M129.06,164a5.37,5.37,0,0,1-4.16,1.81A3.93,3.93,0,0,1,129.06,164Z"/><path class="cls-198" d="M26,127.92c-1.25-2-2.87-2.64-5-1.38-.7.12-.8-.37-.87-.87,1.83-1,1.45-2.45.93-4.14-.86-2.79-1.39-5.69-2.06-8.54-1.32-8.07-1-16.21-1-24.33,0-1.59-.55-3.37,1-4.68,2,2.53.51,5.22.54,7.88A65.46,65.46,0,0,1,24,70c1.27-3.21,2.19-6.61,5-8.93l4,2c-.12.21-.24.42-.35.64-4.38,4.69-4.45,11.17-6.93,16.66a88.47,88.47,0,0,0,2.48,41.4c.53,1.73,1.2,3.52-.24,5.19A2,2,0,0,1,26,127.92Z"/><path class="cls-211" d="M29,61c-2.64,7.36-6.55,14.27-7.62,22.2-.44,3.2-.16,6.56-2.38,10.7V84a100,100,0,0,1,7-23,1.19,1.19,0,0,1,1-1Z"/><path class="cls-198" d="M27,60l-1,1c-2,.26-3.8,2.2-6.07,1,.6-2,2.4-2.83,4-3.88A2.89,2.89,0,0,1,27,60Z"/><path class="cls-212" d="M47.94,71,50,73c-6.28,10.78-6.44,22.2-3.65,34,.65,2.76,2.41,3.3,4.78,3.07,1.91-.18,3.76-1.55,5.75-.29.81,3.24-1.81,3.74-3.8,4.66-2.24,1-4.86.52-7.11,1.58-1.47,1.33-2.72,3-5,3-5.2-10.16-5.28-20.88-3.5-32.58-.76,2.31-.23,4.13-.94,5.68-.42.92-1,2-2.07,1.89s-1.38-1.29-1.57-2.26c-.64-3.18.16-6.26.62-9.37A49.83,49.83,0,0,1,36.9,70.89c.69-1.71,1.32-4,4.13-2.92C43.65,68.29,45.24,70.91,47.94,71Z"/><path class="cls-213" d="M41,68a2.5,2.5,0,0,0-2.28,1.63c-3,7.51-5.13,15.16-4.62,24.48,2.64-4.17,2.11-8.15,4.45-11.47C38.39,86.3,38.24,90,38,93.68c-.44,6.95-.26,13.8,2.47,20.4.6,1.45.39,3.25.55,4.88l-3.1,2.93-.46,0-.46,0c-4.81-6.34-4.48-14-5.45-21.29-.18-1.38,2.15-4.93-2.53-4-.88.17-1.25-2.13-1.29-3.46a63.53,63.53,0,0,1,.14-8.94c.95-5.22,1.76-10.49,4.26-15.25C33,67.29,33.34,65,36,65,37.36,66.52,39.87,66.09,41,68Z"/><path class="cls-214" d="M36,65c-4.53,5.51-5.26,12.42-7,19C27.14,96,30,107.51,32.59,119c.55,2.4,1.29,4.54-1.58,5.89a2.93,2.93,0,0,1-3,1.94c-1.61-7-4-13.87-4.54-21.12-.66-9-1.2-18,1.58-26.76,2.05,2.22,0,4.6.39,6.5C26.48,77.8,28.36,70,33,63l0,0Z"/><path class="cls-215" d="M107,173c.24.86,1,2-.8,1.91-.51,0-1.44-.69-1.42-1,.1-1.54,1.43-.66,2.21-.92Z"/><path class="cls-216" d="M93,156l0-36a1.72,1.72,0,0,1,2.57.39c1.51,3.49.74,7.16.81,10.75.12,6.75.07,13.51,0,20.27,0,1.94.26,4-1.43,5.55Z"/><path class="cls-217" d="M95,156.94l0-37a5,5,0,0,1-.78-5.21,11.74,11.74,0,0,1,8.21-2.38,1.31,1.31,0,0,1,.85,1.15c-.58,2.35-2.81,2.83-4.47,3.95C97,119,97.41,121.05,97.39,123c0,4.44.1,8.87,0,13.31.13,2.92.1,5.84.07,8.76-.06,4.46-.11,8.92-.09,13.38.81,3.15-3,6.58.6,9.55.3.75.6,1.5.91,2.24-1.26-.43-2.5-1.39-3.8-.09Z"/><path class="cls-218" d="M131,66.07l-6,4.62c-.39.88-1.07.85-1.83.58a1.67,1.67,0,0,1-.4-1.32c3-4.69,2.09-8.36-3.12-11.25a24,24,0,0,1-7.46-6.24c-2.82-3.53-7.47-4.34-11.63-5.11-3.37-.63-1.78,2.65-2.17,4.31,0,1.55.06,3.1.07,4.65s.08,3.37,0,5.06c-.15,3.22.87,6.6-1.37,9.52l-.45.08-.45-.1L96.23,40a2.58,2.58,0,0,1,2.2-.94c7.49.77,14.52,2.83,20.65,7.39-.46,2.32.42,3.7,2.54,4.94,5.15,3,9.64,6.76,10.77,13.16A2.21,2.21,0,0,1,131,66.07Z"/><path class="cls-219" d="M119,47c-7.28-3.34-14.57-6.61-22.77-7,0-1.67,0-3.35,0-5,2.28-2,4.59-.29,6.89-.06a10.79,10.79,0,0,1,1.38.37c1.6.54,3.32.49,4.93,1,4.7,2.09,10.51,1.52,14.22,6,3.74,3.06,6.69,6.92,10.32,10.15,2.44,2.17,5.59,5.18,4,9.55-2,1.92-3.77,4.29-7,4.12L132,65c1.42-3.32.36-6.73-2.26-8.08C125.09,54.5,122.56,50.27,119,47Z"/><path class="cls-220" d="M104,36l-7.76-1c0-1.33,0-2.66,0-4,1.93-1.35,3.92-1.16,6.07-.47,3.88,1.24,7.82,2.3,11.73,3.43.55.71,2.25.32,2,1.67-.22,1-1.42,1.23-2.4,1.21C110.35,36.82,107.31,35,104,36Z"/><path class="cls-221" d="M104,36c1.64-4.29,4.41.09,6.62-.79,1-.4,2.65,1,3.71.66,1.82-.58-.42-1.16-.34-1.86,2.87-.15,5.25,1.67,8,2,7.61,4.34,15.11,8.81,21,15.48,2.36,2.66,4.38,5-.07,7.52-2.28.25-2.94-1.84-4.15-3-4.88-4.81-9.66-9.71-15.8-13-2.1-3-5.71-2.79-8.66-3.9-1.8-.68-3.83-.7-5.35-2.09s-3.5.17-5-1Z"/><path class="cls-222" d="M123,43c8.89,2.54,14.07,9.71,20,16,0,.3,0,.6,0,.9-.35.35-.69.71-1,1.06L138,62c-1.17-3.67-2.27-7.21-6.15-9.3-2.13-1.15-5.1-3.39-5.15-5.2C126.61,44.34,121.28,46.63,123,43Z"/><path class="cls-223" d="M31,124.93c.29-1.16,1.9-1.69,1.08-3.47-3.67-7.91-3.91-16.63-4.65-25C27.1,92.6,27,87.93,29,84V96c2-.5-.13-4,2.65-3.33,1.71.45,1.4,2.47,1.33,3.94-.41,8.72,1.56,17,4,25.31C35.11,123.11,33.45,124.78,31,124.93Z"/><path class="cls-224" d="M168.11,118.91l2.86,0c0,.35,0,.69,0,1-.88.31-1,1.93-2.21,1.48S168.12,119.83,168.11,118.91Z"/><path class="cls-225" d="M89,167.93l-.12-2c.07-1.1.27-2.25-.9-3,2.29-3-.58-6,0-9a35.61,35.61,0,0,0,.09-13.57c-.67-3.77-.26-7.51-.49-11.24,0-.53,0-1.08,0-1.61,0-1.13.12-2.27.15-3.42.19-7.24.19-7.24-6.81-10-2.85-1.28-5.61-2.68-6.61-6-.17-2,1-3.33,2.55-4.38,3.93.09,5.15,5.13,9.19,5,2.93,1.68,7.47-.34,9.24,4-2.42,1.37-1.37,4.56-3.26,6.21l-.1,1.13c-2,5-.08,10.39-1.29,15.49a1.14,1.14,0,0,1,1.35-.67V151c-3-1.09-1.79,1.41-1.92,2.46C89.43,158.28,91.08,163.23,89,167.93Z"/><path class="cls-39" d="M92,134.93c-.68.18-1.77,1.56-1.78.8-.07-5-.85-10.14.4-15.14.06-.25.86-.32,1.32-.48Z"/><path class="cls-226" d="M92,119c.7-2.1-2.19-6,3-5.87.25.18.34.37.28.57s-.14.31-.22.31l0,6H93Z"/><path class="cls-227" d="M97,70.89q0-5,0-9.88c1.73-1.06,3.66-1.19,5,.26,3.46,3.76,8.44,4.94,12.43,7.77a4.9,4.9,0,0,1,1.39,1.58c.58,3.2-1.52,5.09-3.74,6.47s-3.95-.6-5.51-2a19,19,0,0,0-7.82-4Z"/><path class="cls-228" d="M108,86c.86,4.57-.17,5.6-6,6-1.13.44-1.79-.24-2.41-1A64.75,64.75,0,0,0,97,84l-2-2c4.18-2.59,5.57,1.61,8,3.28.81.61-.24,1.87.83,2.39a6,6,0,0,0,.26-1c.29-1.25.18-2.59.94-3.71l1-.07C106.73,83.93,107.38,85,108,86Z"/><path class="cls-229" d="M98.77,71.08c3.61-.19,6.19,1.85,8.83,3.92,3.32,2.6,4.5,2.31,4.57-1.65,0-2.76,4.61,1.43,2.84-2.37,3.6,0,3.85.54,1.93,4.32a4.71,4.71,0,0,1-4.13,2.56c-2,.43-3.79,1.21-5.47-1.2C105.33,73.76,101.62,73,98.77,71.08Z"/><path class="cls-230" d="M112.81,77.86,116,75c.93-.52,1.66-1.69,3-1,1.77,1.87-2.8,2-1.06,3.84C116.23,78.3,114.5,79.33,112.81,77.86Z"/><path class="cls-231" d="M101,78l-2-1c-.16-.9-.8-2,.94-2,1.23,0,2.41.3,2.7,1.65C102.83,77.82,101.74,77.83,101,78Z"/><path class="cls-181" d="M88,21H83A3.37,3.37,0,0,1,88,21Z"/><path class="cls-232" d="M83,93,86,89c.79-.92.53-2.54,2-3h0c1.67-.76,3.34-1.31,5,0h2c3.53-1.14,4.12,1.14,4.39,3.78-1.17,1.2-2.48.38-3.73.21a8.93,8.93,0,0,0-6.23,1.14c-2.5,1.65-4.06,4.58-3.61,7.17s3.64,1.3,5.61,1.38c3.34.14,7.08,1,8.69-3.53.25-.69,1.11-.1,1.43.57-.38,2.39,1.28,5.8-3.12,6.13-4.23,1.14-8.75,0-12.91,1.65-6.07-.95-7.69-2.42-7.36-6.7C81.13,97.59,81.41,94.6,83,93Z"/><path class="cls-233" d="M102.91,86c-3-.66-4.12-4.94-7.91-4-.84-1.37-1.15-2.89.16-4s2.46.25,3.47.86c2.17,1.29,3.7,3.59,6.39,4.11.94,1.34,0,2.66,0,4C103.88,87.51,103.42,86.7,102.91,86Z"/><path class="cls-234" d="M75.1,86c.27-.06.54-.12.82-.16a3,3,0,0,1,1,.91c.86,3,4.08,2.59,6,4.08-.74,1.54-3.23,1.88-2.84,4.18a.91.91,0,0,1-.14,1.25c-3.12.7-3-2.57-4.65-3.74C73.53,90.41,72.77,88.26,75.1,86Z"/><path class="cls-235" d="M76.13,87.14l-.21-1.28q.08-.37.18-.75C77.73,84.05,78.29,82,80,81h0c2.33.88,3.86,2.4,4,5-1.33,1.44-3.21.93-4.82,1.39a9,9,0,0,1-1.25.26A2.44,2.44,0,0,1,76.13,87.14Z"/><path class="cls-236" d="M78,87c1.77-1.84,4-.75,6-1a5.32,5.32,0,0,1-1.1,4.86c-3.09.28-6.2.58-6.78-3.71L78,87a5.21,5.21,0,0,0,1.48,1.16C79,87.69,78.39,87.47,78,87Z"/><path class="cls-237" d="M93,86l-5,0a17.84,17.84,0,0,1,1.37-1.38c1.14-.94,0-4,2.56-3.31C94.29,82,93.21,84.25,93,86Z"/><path class="cls-237" d="M98.91,90C98.8,87.51,97.33,86.32,95,86a1.83,1.83,0,0,1,2-2c3.12,1.31,3,4.06,3.06,6.79l-.6.35A1,1,0,0,1,98.91,90Z"/><path class="cls-238" d="M80,96c0-.31.06-.61.09-.92l3-2c-1.33,1.67-.4,5.19-4.06,4.93C78.44,96.85,79.46,96.52,80,96Z"/><path class="cls-237" d="M88,86l-2,3C86.75,88,84.26,84.89,88,86Z"/><path class="cls-239" d="M55,75c.7-1.19,1.89-.95,3-1l2,1A17.39,17.39,0,0,1,71,81c.83,1.77,5.34,1.26,3,4.94a1.8,1.8,0,0,1-1.2.41,16.25,16.25,0,0,1-2.59-.51c-3.94-2.64-8.38-4.41-12.26-7.13C56.69,77.71,55.35,76.75,55,75Z"/><path class="cls-238" d="M73,86h1l1.1,0c-.27,2.08-1,4.22.89,6a8.85,8.85,0,0,1,.24,7.52c-.77,2-2.25,3.69-4.86,2.11-2.36-3.76-1.84-7.91-1.47-12C70.05,87.92,70.53,86,73,86Z"/><path class="cls-240" d="M71,81,60,75c4.18.26,1.45-1.73,1-3a2.43,2.43,0,0,1,2-.75c2.35,1.12,5.35,1.43,6,4.73l1,2C68.79,79.48,71.12,79.88,71,81Z"/><path class="cls-183" d="M80,81c-1,1.7-1.4,3.89-3.9,4.13C76.93,83.28,77.3,81,80,81Z"/><path class="cls-241" d="M63,72H61l-1-1c-2-1.83-4.11-3.62-7-4,1.38-5,5.27-7.82,9.15-10.66C69.91,50.7,78.2,46.47,88,46V56c-5.48,3-12,3.81-17,7.94C68.05,66.37,65.16,68.79,63,72Z"/><path class="cls-242" d="M63,72c-.25-.76-.84-1.54-.15-2.29C69.69,62.31,77.67,57,88,56v.5c0,14.25-.54,15.06-13.1,21C72.28,78.74,71.16,75.75,69,76Z"/><path class="cls-193" d="M114,98V89A8.93,8.93,0,0,1,114,98Z"/><path class="cls-193" d="M115,103c-1.09,0-2.57.25-3-.81-.66-1.61,1.27-2.14,2-3.21A6.72,6.72,0,0,0,115,103Z"/><path class="cls-243" d="M119,74.09l-3,1c.79-1.63,3.13-3.65-1-4.06-.34-.33-.67-.66-1-1-1.23-8-8.38-9.27-13.94-12.34-1-.55-2.2-.75-3-1.64V51c6.78-2.84,10-2.07,13.65,3.6a16.52,16.52,0,0,0,6.82,6c4.73,2.05,5.26,5.36,5.49,9.41l0,1.09c.3,2-1.61,1.11-2.3,1.81Z"/><path class="cls-244" d="M120.73,72.89l2.3-1.81,1.89-.38C124.34,73,122.61,73.08,120.73,72.89Z"/><path class="cls-245" d="M103,105a11.37,11.37,0,0,1,.21-2.94c.55-1.6,1.66-3.31,3.49-2.78,2.38.7-.2,2.47.3,3.71l.12,1.09-.23.69a3.59,3.59,0,0,1-2.18,1.75C103.7,106.47,102.7,106.44,103,105Z"/><path class="cls-246" d="M109,93c-.93-1.43.16-2.19,1-3,4,3,2.06,6,0,9,0-.32,0-.64,0-1C108.86,96.5,110.25,94.49,109,93Z"/><path class="cls-247" d="M112.06,105.93l-1.12,1.14c-1.3.91-2.43.34-3.54-.4-.81-.79-1.31-1.63-.33-2.64l0,0C109.06,103.87,111,103.74,112.06,105.93Z"/><path class="cls-248" d="M97.93,102c4.85-.1,2.49-3.82,3-6.08-.62-1.55-2.17-2.9-1-4.82l.11-.35L102,92c.93.65,1.91,1.24,2.77,2a7.24,7.24,0,0,1,1,1.51c-4.62.36-2.1,7.18-6.79,7.48a.85.85,0,0,1-1.1.19A.88.88,0,0,1,97.93,102Z"/><path class="cls-41" d="M103,105a2,2,0,0,0,2,1c-2,4.44-4.58,4.87-9,1.51-.48-1.16.17-1.78,1.08-2.28s2.15-.39,3-1.21Z"/><path class="cls-249" d="M100,104a1.77,1.77,0,0,1-2,2c-.65-.64-2.23-.38-2-1.74a1.46,1.46,0,0,1,2.13-1.3A7.3,7.3,0,0,1,99,103C99.35,103.31,99.67,103.65,100,104Z"/><path class="cls-191" d="M109,93c1.74,1.4.8,3.32,1,5C108.35,96.6,109.25,94.68,109,93Z"/><path class="cls-250" d="M138,124c2.86.42,4.94,2.2,7,4,2.91,2,1.51,4.2,0,5.93-9.72,11.22-20.64,20.78-35.86,23.59-4,.73-7.68,3.47-12,1.93a3.24,3.24,0,0,1-.6-2.33c-.25-6.68-.23-6.5,6.48-7.17,10.26-1,18.7-6.07,26-13,2.56-2.4,6.67-3,7.76-7.29A38.77,38.77,0,0,0,138,124Z"/><path class="cls-251" d="M97,159c10.67-2.16,21.17-4.27,30.57-10.69,6-4.11,10.53-9.49,15.78-14.23,1.72-1.55,3.29-3.45,1.65-6.07,2.13.22,3.51,1.7,5,3,.43,5.2-3.9,7.88-6.66,10.86A65.21,65.21,0,0,1,100.47,163c-1.67.16-3.78-.09-3.24,2.47.5,2.4,2.26.87,3.61.79,2.41-.15,5-1.1,7.16.75l-10,1c-3.93-2.27-1.12-6-2-9C96.35,158.5,96.67,158.47,97,159Z"/><path class="cls-252" d="M97,159l-1,0q0-7,0-14c11.87-.47,21.94-5.16,30.73-13,3.1-2.75,5.4-6.25,8.57-8.92l.7-.14a2.12,2.12,0,0,1,2,1c1.45,2.76.1,9.47-2.41,10.56-6.16,2.65-10.56,7.69-15.94,11.39a15.09,15.09,0,0,1-6.47,2.62c-4.91.87-9.41,3.79-14.8,2.71C97.26,151,97,152.47,97,153.5,97,155.32,97,157.15,97,159Z"/><path class="cls-252" d="M132,120l1,0,3,3-.06,0C133.34,123.72,131.38,123.55,132,120Z"/><path class="cls-253" d="M96,136c0-5.41,0-10.81,0-16.21,0-2.16.1-4,3-3.79.31,2.53-2.38,5.68,0,7.4s5.07-1.26,7.64-2.06c4.92-1.51,8-5,10.31-9.35,2.76,0,4.28,2.8,6.92,3.07l3.07,2c1.32,2-.08,3.54-1.14,4.86-6.4,8-14.45,13.35-24.7,15.06C99.34,137.26,97.53,137.37,96,136Z"/><path class="cls-254" d="M117,112c.66,4.42-2.69,6.56-5.5,8.51s-6.29,2.93-9.46,4.38c-3.81,1.73-5.46.79-5.12-3.62.17-2.09.35-3.91,2.09-5.26,1.45-.83,3.26-1.19,4-3,2.46-1.95,4.35-4.82,7.94-5A21.12,21.12,0,0,1,117,112Z"/><path class="cls-217" d="M111,108c-2.69,1.59-4.38,4.79-7.94,5l0,0c-.12-3.62,3.66-4.42,5-7l2.93,1.07C111,107.38,111,107.7,111,108Z"/><path class="cls-255" d="M96,136c13.8-.62,24.34-6.57,31-18.94l5,3c.3,2.34,2.18,2.61,4,3-8.42,13.47-21.36,20-36.21,23.66-2,.5-2.61-.86-3.73-1.68Q96,140.48,96,136Z"/><path class="cls-256" d="M52,141c2.42-1.71,4-1.29,6.53.75a48.09,48.09,0,0,0,19,9.39c1.84.46,4,.34,5.46,1.85-6.1,2.44-11.17.23-16.06-3.37-3.18-2.33-7.53-2-10.75-4.59C54.64,143.77,53,142.71,52,141Z"/><path class="cls-256" d="M89,128c0,7.1.06,14.21,0,21.31,0,1.58.54,3.35-1,4.64V141c-1.53-1.76-1.44-3.89-1.41-6C87.05,132.53,85.34,129.35,89,128Z"/><path class="cls-257" d="M88,135v6c-.67,0-1.56-.24-2,.09-5.1,4.21-9.43.36-14.09-1.1-8.32-2.61-14.86-7.64-20.53-14.05-1.16-1.31-2.3-2.39-4.17-.8-1.08.92-1.73-.18-2.23-1.08,2.26-1.49,5-2,7-4,1.62-2.69,3.84-4,7-3.18.48,6.1,5.44,10.82,13.44,13.12C77.73,131.42,82.9,133.09,88,135Z"/><path class="cls-258" d="M59,116.87,52,120a2.18,2.18,0,0,1-2.14-1.17c.38-.61.77-1.21,1.16-1.81a4.27,4.27,0,0,1,.89-.86A10.87,10.87,0,0,0,55.68,113c2.22-1.89,5.3-2,7.64-3.62a13.6,13.6,0,0,1,2.33-1.22,15.29,15.29,0,0,0,4.09-2,5,5,0,0,1,2.58-.93c2.22.26,2.06,1.52,1.29,3-1.62,2.16-4.06,3.11-6.32,4.34C64.23,113.46,62.45,116.82,59,116.87Z"/><path class="cls-259" d="M64,110c-2,2.68-5.69,1.9-8,3.94-1.31,1-2.58,2.14-4,3.08-.32,0-.64,0-1,0-1.4-1.72-3.34-.76-5-1,3.23-2.79,8.69-1.49,11-6a1.94,1.94,0,0,1,2.58-1.34C60.72,110.12,62.8,108.5,64,110Z"/><path class="cls-253" d="M60,109l-3,1c-3.24-.29-6,3.28-9.5,1.06-.67-.42-2.08-.75-2.06-1,.47-5.24-2.81-9.9-2.37-15.07.63-7.48.75-15.14,5.58-21.53.24-.32.92-.31,1.39-.46l5,2,3.09,2.93c-.78,3.21-2,6.29-2.78,9.52-.85,3.73-2.91,7.61,2.14,10.29,1.17.62,1.21,2.66,1.24,4.16,0,1.76.41,3.28,1.94,4.34a1.54,1.54,0,0,1,0,2.46Z"/><path class="cls-260" d="M33,63c-1.92,5.89-3.87,11.78-5.75,17.68A32.49,32.49,0,0,1,25,86.83V79c1.73-4.38,2.14-9.18,4.54-13.37C30.44,64.09,30.91,62.67,33,63Z"/><path class="cls-261" d="M108,106c.72,4-4.09,4.1-5,7-2.79-.7-5,3.11-8,1a3.26,3.26,0,0,1-.06-.88c-2.56-3.46-6.87-1.37-10-3.14.12-2.39,2.14-1.92,3.55-2.37,2.51,0,4.85-2.22,7.49-.61,3.24,2,6.34,2.61,9-1a3.44,3.44,0,0,1,2.09-1.93C107.39,104.69,107.7,105.34,108,106Z"/><path class="cls-262" d="M123,70c-1.35-1.36-1.5-3.21-2-4.92-.22-.76-.64-2.15-.85-2.13-3.66.42-5-3.1-7.69-4.35-.72-.34-1.68-.92-1.84-1.57-2-7.86-8.18-6-13.58-6,0-6.45.1-6.16,6.21-4.52,5.94,1.6,9.48,6.39,14.33,9,3.58,2,4.58,7.56,10.26,6.48-1.88,1.21-3.62,1.53-1.6,4.23C128,68.55,124.33,68.86,123,70Z"/><path class="cls-229" d="M97,56c6.13,1.75,12.48,2.89,16.5,8.85,1.31,2,.06,3.47.47,5.13-4.08-2.75-9.43-3.48-12.47-7.89-1.14-1.67-3.17,0-4.51-1.08C97,59.34,97,57.67,97,56Z"/><path class="cls-263" d="M119,47c1.68,0,2.71,1.08,3.67,2.19a30.11,30.11,0,0,0,8.5,7c3.67,2,3.81,6.25.8,8.76a24.3,24.3,0,0,0-13.23-13.8C114,49.07,117.5,48.28,119,47Z"/><path class="cls-220" d="M104,36c1.69.25,3.6-.67,5,1C107.32,36.75,105.4,37.66,104,36Z"/><path class="cls-264" d="M59,116.87c2.59-1.76,4.57-4.53,8-4.89.78,7,5.29,10.85,12.21,10.66,3-.08,5.8.91,8.6,1.85.84.6.45,1.78,1.16,2.45,0,.36,0,.72,0,1.08-1.87,2.1-.58,4.65-1,7a50.94,50.94,0,0,1-27.86-10.69C57.86,122.55,56.07,119.84,59,116.87Z"/><path class="cls-265" d="M88,125c-4.16.72-7.92-2-12.55-.42-3.89,1.35-10.36-9-8.45-12.58l6-4.07a1.46,1.46,0,0,1,2,.08,11.77,11.77,0,0,0,6,5,22.09,22.09,0,0,0,2,1.3C89.24,117.4,89.24,117.39,88,125Z"/><path class="cls-266" d="M89,108.91c-1.37.23-2.95-.37-4,1.06-3.83-.45-5.2-4.16-7.95-6a19.9,19.9,0,0,1-5.15,1.93L70,107a20.07,20.07,0,0,0-4.09,1.92l-2,1c-1,.21-2.08.43-3.13.62-1.95.35-.9-.86-.8-1.56h0c1.65-1.06,2.73-2.74,4.29-3.9a20.29,20.29,0,0,1,6.41-3.52,1.54,1.54,0,0,1,1.25.35c5.54-1.61,2.79-6.58,4-9.94,2.31.34,1.3,4,4,4-.34.66-.67,1.33-1,2-2,2.11.36,2.78,1.39,3.56A30.78,30.78,0,0,0,85,104C87.21,104.93,88.8,106.36,89,108.91Z"/><path class="cls-256" d="M88,125a22.24,22.24,0,0,1,0-2.45c.41-3.64.19-6.8-4.51-7.38A3.36,3.36,0,0,1,81,113c2.47.15,4.35,2.19,7,2.08,1.77-.07,2.21,1.13,1.64,2.66-1.11,3-.36,6.15-.61,9.21A2,2,0,0,1,88,125Z"/><path class="cls-267" d="M71.89,105.87c1.7-.66,2.57-3.58,5.15-1.93l-2,4-2-.08C73.74,106.63,73.36,106,71.89,105.87Z"/><path class="cls-268" d="M102.91,86,105,87c.54,1.1.9,2.19-.68,2.74-1,.33-2.18.55-2.7-.34C100.75,87.94,102.7,87.24,102.91,86Z"/><path class="cls-269" d="M100,91.13c-.17,1.71,2.54,2.82,1,4.82-2,1.07.27,5-3,4.93-4.45-.06-9,.88-13.34-.68a1.63,1.63,0,0,1-1.16-1.89c.58-7.92,8.24-12,15.47-8.28Z"/><path class="cls-270" d="M89,108.91q-2-2.44-4-4.9c3.84-3.66,8.6-1.4,12.92-2,0,.29.11.59.15.88-2.43,1-1.09,2-.08,3a2.09,2.09,0,0,0-2,1Z"/><path class="cls-271" d="M78,87a2.07,2.07,0,0,1,.5,0c1.35.32,3.15-.81,4,1,.42.9-.5,1.6-1.3,1.77-2.16.46-3-.83-3.2-2.76Z"/><path class="cls-272" d="M71,102,65,106c-1.26.51-2.43,1.41-3.93,1-2.4,0-4.2-.41-3.73-3.66.32-2.21,1.29-5.36-3.09-5-.31,0-1-1-1-1.54-.37-6.8.74-13.24,4.93-18.87l12.82,7.16A37.15,37.15,0,0,0,71,102Z"/><path class="cls-273" d="M71,102a18.48,18.48,0,0,1-.07-16.91A2,2,0,0,1,73,86c-4,5.09-1.48,10.59-1,16A5.32,5.32,0,0,1,71,102Z"/><path class="cls-202" d="M52,117c.93-1.54,2-2.88,4-3.08C55.18,115.62,54.05,116.88,52,117Z"/><path class="cls-267" d="M65.92,108.91c.88-1.66,2.37-2,4.09-1.92A5.08,5.08,0,0,1,65.92,108.91Z"/><path class="cls-259" d="M61,107A7,7,0,0,1,65,106c-1.42,1.39-2.85,2.74-4.93,3Z"/><path class="cls-274" d="M87.63,99.38c1.36-3.3,3.51-4.85,5.54-6.51a4.6,4.6,0,0,1,5.12-.4,2,2,0,0,1,1,2.53c-.67,1.63-1.14,3.29-3.17,4.14C93.23,100.37,90.73,98,87.63,99.38Z"/></g></g></svg>