<svg xmlns="http://www.w3.org/2000/svg" viewBox="0 0 186.98 186.96"><defs><style>.cls-1{fill:#fefefe;}.cls-2{fill:#fdfdfd;}.cls-3{fill:#5a4324;}.cls-4{fill:#624a28;}.cls-5{fill:#584124;}.cls-6{fill:#594124;}.cls-7{fill:#664e2a;}.cls-8{fill:#584123;}.cls-9{fill:#53421d;}.cls-10{fill:#302721;}.cls-11{fill:#46351f;}.cls-12{fill:#746425;}.cls-13{fill:#7a5b35;}.cls-14{fill:#e1d4a4;}.cls-15{fill:#654b29;}.cls-16{fill:#503e28;}.cls-17{fill:#d0b783;}.cls-18{fill:#6f5327;}.cls-19{fill:#71542b;}.cls-20{fill:#674f2d;}.cls-21{fill:#755a30;}.cls-22{fill:#c4b783;}.cls-23{fill:#352c24;}.cls-24{fill:#71562d;}.cls-25{fill:#d7c998;}.cls-26{fill:#936e40;}.cls-27{fill:#6d6124;}.cls-28{fill:#88643a;}.cls-29{fill:#775a33;}.cls-30{fill:#856239;}.cls-31{fill:#463819;}.cls-32{fill:#997644;}.cls-33{fill:#86643a;}.cls-34{fill:#c6ab78;}.cls-35{fill:#9b7847;}.cls-36{fill:#87673a;}.cls-37{fill:#4c3c17;}.cls-38{fill:#30240f;}.cls-39{fill:#d5c190;}.cls-40{fill:#a98955;}.cls-41{fill:#755632;}.cls-42{fill:#977342;}.cls-43{fill:#856339;}.cls-44{fill:#a58550;}.cls-45{fill:#74652a;}.cls-46{fill:#42321e;}.cls-47{fill:#6b502a;}.cls-48{fill:#977343;}.cls-49{fill:#d5ca93;}.cls-50{fill:#a5824d;}.cls-51{fill:#d6c597;}.cls-52{fill:#9b7b48;}.cls-53{fill:#c5a973;}.cls-54{fill:#ada065;}.cls-55{fill:#d1be8f;}.cls-56{fill:#86653b;}.cls-57{fill:#6b4f2e;}.cls-58{fill:#a3804d;}.cls-59{fill:#755832;}.cls-60{fill:#8d6e40;}.cls-61{fill:#6a502d;}.cls-62{fill:#564120;}.cls-63{fill:#816037;}.cls-64{fill:#aba168;}.cls-65{fill:#635428;}.cls-66{fill:#aea46a;}.cls-67{fill:#a79d63;}.cls-68{fill:#40321e;}.cls-69{fill:#948f7e;}.cls-70{fill:#927241;}.cls-71{fill:#997746;}.cls-72{fill:#cbb17f;}.cls-73{fill:#9f7d4a;}.cls-74{fill:#5a4a2b;}.cls-75{fill:#dcc99a;}.cls-76{fill:#c8bf8b;}.cls-77{fill:#795e36;}.cls-78{fill:#c2b785;}.cls-79{fill:#4f3c23;}.cls-80{fill:#957443;}.cls-81{fill:#c3a671;}.cls-82{fill:#ab8a56;}.cls-83{fill:#71542e;}.cls-84{fill:#45371c;}.cls-85{fill:#caae7b;}.cls-86{fill:#937042;}.cls-87{fill:#b9af76;}.cls-88{fill:#a69d65;}.cls-89{fill:#75662c;}.cls-90{fill:#c5ab77;}.cls-91{fill:#403c35;}.cls-92{fill:#8d6b3e;}.cls-93{fill:#6b5d26;}.cls-94{fill:#987444;}.cls-95{fill:#4b4135;}.cls-96{fill:#5d4e27;}.cls-97{fill:#979281;}.cls-98{fill:#312614;}.cls-99{fill:#5e4628;}.cls-100{fill:#aba064;}.cls-101{fill:#ac945b;}.cls-102{fill:#c8bd86;}.cls-103{fill:#b0a467;}.cls-104{fill:#4f4537;}.cls-105{fill:#c0a16b;}.cls-106{fill:#cfc792;}.cls-107{fill:#b3a972;}.cls-108{fill:#7e725b;}.cls-109{fill:#c4a773;}.cls-110{fill:#312b26;}.cls-111{fill:#4a4033;}.cls-112{fill:#6e5e29;}.cls-113{fill:#ac915a;}.cls-114{fill:#e0cea2;}.cls-115{fill:#b59761;}.cls-116{fill:#decca0;}.cls-117{fill:#c9b384;}.cls-118{fill:#c3b884;}.cls-119{fill:#211a0c;}.cls-120{fill:#62571f;}.cls-121{fill:#372b16;}.cls-122{fill:#62581e;}.cls-123{fill:#44392f;}.cls-124{fill:#6b502f;}.cls-125{fill:#87653b;}.cls-126{fill:#674b2d;}.cls-127{fill:#54482a;}.cls-128{fill:#725331;}.cls-129{fill:#c5bb84;}.cls-130{fill:#afa66e;}.cls-131{fill:#9c9787;}.cls-132{fill:#7e5d36;}.cls-133{fill:#493e33;}.cls-134{fill:#b3915b;}.cls-135{fill:#53462a;}.cls-136{fill:#564838;}.cls-137{fill:#dac89a;}.cls-138{fill:#c4b987;}.cls-139{fill:#7e6239;}.cls-140{fill:#6b5b2f;}.cls-141{fill:#4f4435;}.cls-142{fill:#443e36;}.cls-143{fill:#c8ae7a;}.cls-144{fill:#856f3b;}.cls-145{fill:#51483c;}.cls-146{fill:#493f33;}.cls-147{fill:#5e4529;}.cls-148{fill:#9c7744;}.cls-149{fill:#b08f57;}.cls-150{fill:#4f3b22;}.cls-151{fill:#695a22;}.cls-152{fill:#45371b;}.cls-153{fill:#2c2211;}.cls-154{fill:#493b1e;}.cls-155{fill:#a2804a;}.cls-156{fill:#bcb17a;}.cls-157{fill:#d7cd95;}.cls-158{fill:#8e6e3f;}.cls-159{fill:#938d78;}.cls-160{fill:#7a662f;}.cls-161{fill:#41321d;}.cls-162{fill:#272011;}.cls-163{fill:#d0c697;}.cls-164{fill:#7b5f35;}.cls-165{fill:#a49e8d;}.cls-166{fill:#cac3af;}.cls-167{fill:#b2ac9c;}.cls-168{fill:#bfb9a7;}.cls-169{fill:#e4ddc7;}.cls-170{fill:#816038;}.cls-171{fill:#8f6d3f;}.cls-172{fill:#dad4be;}.cls-173{fill:#eae2cb;}.cls-174{fill:#7c5f3c;}.cls-175{fill:#d3cdb8;}.cls-176{fill:#b4b1a7;}.cls-177{fill:#8d887a;}.cls-178{fill:#9b978c;}.cls-179{fill:#635842;}.cls-180{fill:#615029;}.cls-181{fill:#3e352c;}.cls-182{fill:#5a4e40;}.cls-183{fill:#4d4338;}.cls-184{fill:#dac899;}.cls-185{fill:#bfaa75;}.cls-186{fill:#b29159;}.cls-187{fill:#d7c294;}.cls-188{fill:#7b5d3a;}.cls-189{fill:#806441;}.cls-190{fill:#5b4d37;}.cls-191{fill:#3c2c19;}.cls-192{fill:#8b6a3d;}.cls-193{fill:#a17f4c;}.cls-194{fill:#584d3e;}.cls-195{fill:#302413;}.cls-196{fill:#765734;}.cls-197{fill:#433f38;}.cls-198{fill:#4a4740;}.cls-199{fill:#372f28;}.cls-200{fill:#282523;}.cls-201{fill:#735733;}.cls-202{fill:#8b8575;}.cls-203{fill:#3c332b;}.cls-204{fill:#a9a392;}.cls-205{fill:#9f9c91;}.cls-206{fill:#adaba1;}.cls-207{fill:#725635;}.cls-208{fill:#9d998a;}.cls-209{fill:#4b3b26;}.cls-210{fill:#aaa696;}.cls-211{fill:#969285;}.cls-212{fill:#999484;}.cls-213{fill:#3e311f;}.cls-214{fill:#755a3a;}.cls-215{fill:#543f23;}.cls-216{fill:#969181;}.cls-217{fill:#98958c;}.cls-218{fill:#6c5e2d;}.cls-219{fill:#8f8a7a;}.cls-220{fill:#afaa9b;}.cls-221{fill:#aaa594;}.cls-222{fill:#a9a69c;}.cls-223{fill:#6a5134;}.cls-224{fill:#746956;}.cls-225{fill:#2e2a28;}.cls-226{fill:#45371e;}.cls-227{fill:#898374;}.cls-228{fill:#a59a5f;}.cls-229{fill:#644c2f;}.cls-230{fill:#989382;}.cls-231{fill:#7f6e55;}.cls-232{fill:#584429;}.cls-233{fill:#7c603d;}.cls-234{fill:#795a37;}.cls-235{fill:#b2ae9e;}.cls-236{fill:#a5a08f;}.cls-237{fill:#96774c;}.cls-238{fill:#886b45;}.cls-239{fill:#c9c3b0;}.cls-240{fill:#bdb7a6;}.cls-241{fill:#8b6d46;}.cls-242{fill:#bfbcb1;}.cls-243{fill:#a78a57;}.cls-244{fill:#d2cec1;}.cls-245{fill:#d9d6c8;}.cls-246{fill:#dfdccd;}.cls-247{fill:#f0ecde;}.cls-248{fill:#cbc7bc;}.cls-249{fill:#ede8d9;}.cls-250{fill:#e8e4d6;}.cls-251{fill:#efeadb;}.cls-252{fill:#57544c;}.cls-253{fill:#4e4b44;}.cls-254{fill:#524f49;}.cls-255{fill:#5d5a53;}.cls-256{fill:#9c7845;}.cls-257{fill:#b19158;}.cls-258{fill:#eae3cd;}.cls-259{fill:#917249;}.cls-260{fill:#a37f4a;}.cls-261{fill:#8c693d;}.cls-262{fill:#d5cfbc;}.cls-263{fill:#c3bca9;}.cls-264{fill:#ddd7c0;}.cls-265{fill:#b6b19f;}.cls-266{fill:#b8b5aa;}.cls-267{fill:#8d6e45;}.cls-268{fill:#b7b2a1;}.cls-269{fill:#c3bdaa;}.cls-270{fill:#cec8b5;}.cls-271{fill:#463620;}.cls-272{fill:#b59861;}.cls-273{fill:#846844;}.cls-274{fill:#a6895b;}.cls-275{fill:#9c8058;}.cls-276{fill:#a8a496;}.cls-277{fill:#d8d3c0;}.cls-278{fill:#b6b09e;}.cls-279{fill:#cac4b3;}.cls-280{fill:#c2bcab;}.cls-281{fill:#6d5334;}.cls-282{fill:#614d34;}.cls-283{fill:#45341e;}.cls-284{fill:#a8a395;}.cls-285{fill:#b6b2a3;}.cls-286{fill:#c2bdac;}.cls-287{fill:#aeaca1;}.cls-288{fill:#9e9a8b;}.cls-289{fill:#a7a59c;}.cls-290{fill:#e8e1ca;}.cls-291{fill:#b9b4a2;}.cls-292{fill:#d2ccb8;}.cls-293{fill:#d9d3be;}.cls-294{fill:#e0dac5;}.cls-295{fill:#bfbbaf;}.cls-296{fill:#b9b6ad;}.cls-297{fill:#9f9d93;}.cls-298{fill:#322614;}.cls-299{fill:#775a37;}.cls-300{fill:#cbc5b3;}.cls-301{fill:#433826;}.cls-302{fill:#e1dac5;}.cls-303{fill:#4a3922;}.cls-304{fill:#af9159;}.cls-305{fill:#7c603c;}.cls-306{fill:#a88f62;}.cls-307{fill:#e5dfc9;}.cls-308{fill:#e0d9c4;}.cls-309{fill:#a37f49;}.cls-310{fill:#8a683d;}.cls-311{fill:#d9d3c0;}.cls-312{fill:#d8d4c5;}.cls-313{fill:#846138;}.cls-314{fill:#aca797;}.cls-315{fill:#c3bda9;}.cls-316{fill:#d9d3bf;}.cls-317{fill:#543f24;}.cls-318{fill:#c2a562;}.cls-319{fill:#c5ac70;}.cls-320{fill:#b59e6d;}.cls-321{fill:#ddd5ba;}.cls-322{fill:#62492d;}.cls-323{fill:#e3ddc8;}.cls-324{fill:#765b39;}.cls-325{fill:#877254;}.cls-326{fill:#ccc6b3;}.cls-327{fill:#c2bfb4;}.cls-328{fill:#d6d0bb;}.cls-329{fill:#e5dec7;}.cls-330{fill:#ddd7c2;}.cls-331{fill:#d2ccb9;}.cls-332{fill:#e3ddc9;}.cls-333{fill:#e4ddc5;}.cls-334{fill:#b7b3a7;}.cls-335{fill:#cdc9bc;}.cls-336{fill:#21190d;}.cls-337{fill:#d5d0ba;}.cls-338{fill:#e3ddc5;}.cls-339{fill:#e7e0c8;}.cls-340{fill:#c8b174;}.cls-341{fill:#291f11;}.cls-342{fill:#4c3e2a;}.cls-343{fill:#a47f4a;}.cls-344{fill:#a48d64;}.cls-345{fill:#362a16;}.cls-346{fill:#bfb08c;}.cls-347{fill:#877e6a;}</style></defs><g id="Layer_2" data-name="Layer 2"><g id="Layer_8_Image" data-name="Layer 8 Image"><path class="cls-1" d="M141.22,0a47.59,47.59,0,0,1-9,9c-1.84.56-3.65-.89-5.49-.05A4.72,4.72,0,0,1,123,7.63a3.45,3.45,0,0,0-4.37-1.56,14.3,14.3,0,0,1-4.84-.17c-.68-.14-1.34-.35-2-.54a18.75,18.75,0,0,1-4.51-1.53A14.43,14.43,0,0,1,105,2.42c-.64-.69-1.3-1.37-.72-2.42Z"/><path class="cls-2" d="M104.23,0l1,1.92c-1.74,1.92-4.11,1.23-6.24,1.51-4-.14-7.93.27-11.9.41-2.21-.9-5,.18-6.85-1.92l1-1.92Z"/><path class="cls-3" d="M65.24,181.16c-1-.64-2.53.16-3.34-1.12a13.75,13.75,0,0,1-5.78-1.34L50,175a5.29,5.29,0,0,1-2.73-1.91l-.9-.36c-2.8,0-4.49-1.81-6.05-3.79l0,0a12.83,12.83,0,0,1-5-3.06l-.93-.93a2.92,2.92,0,0,1-2-2.25c-.17-2.43.65-4.11,3.34-4.35a4.11,4.11,0,0,1,2.59,1.33c.12,5.33,4.8,6.38,8.16,8.67,2,1.5,4.3,2.61,6.44,3.93A107.42,107.42,0,0,0,64.47,177c2.29.68,4.54,1.47,6.83,2.13,1.68.82,4,.28,5.14,2.25-.15,1.64-1.58,1.61-2.64,2.07l-.72.12a3.52,3.52,0,0,1-1.4-.26C69.55,182.52,66.78,183.71,65.24,181.16Z"/><path class="cls-4" d="M151,164.87l-1.79,1.23c-.58,1.93-2.35,2.27-3.9,2.91l-.11.05a10.07,10.07,0,0,1-6.06,3.86c-2.59,2.42-6.5,2.55-8.95,5.19-.9.85-2.24.92-3.13,1.79l-1.86.27a5.83,5.83,0,0,1-4,.93l-1,.12c-1.59,2.51-4.13,1.29-6.28,1.61-.28,0-.57-.07-.86-.13-1.25-.75-3,.57-4.07-1,1.38-3,4.55-2.52,7-3.54a31.71,31.71,0,0,1,3.51-.58,13.33,13.33,0,0,0,4.4-1.53c2.12-1.25,4.53-1.79,6.78-2.71a16.08,16.08,0,0,0,2.29-1.2c1.27-.85,2.74-1.31,4-2.12,2.85-1.77,5.58-3.7,8.36-5.55a41.44,41.44,0,0,0,3.46-3,3.05,3.05,0,0,1,2.55-.77,2.65,2.65,0,0,1,1.39,1.51C153,163.64,152.23,164.39,151,164.87Z"/><path class="cls-5" d="M177.14,54.14c-.25,1-1.94,1.91,0,2.92a9.23,9.23,0,0,1,2.16,3.72,20.92,20.92,0,0,0,2.84,9.27c1.44,1.55.69,3.24.34,4.91-.23.65.12.92.68,1.07a1.53,1.53,0,0,1,.3,2.06,2.35,2.35,0,0,1-1.44.5,2.72,2.72,0,0,1-1.42-.56c-2.75-5.89-3.42-12.47-6.08-18.4a47.93,47.93,0,0,0-2.94-6.34,64.8,64.8,0,0,0-7.09-11.4,34.47,34.47,0,0,1-3.27-4.41c-.58-1.57-2.72-3.44.81-4.22a4.54,4.54,0,0,1,2.44,1.17c.87,1,1.43,2.15,2.28,3.14,1.11.82.93,2.26,1.57,3.31l0,.1c2.3,1.37,3.28,3.59,3.9,6l1.17,2C175.23,50.28,175.71,52.55,177.14,54.14Z"/><path class="cls-6" d="M123.23,6.75c1,1.26,2.49,1.34,4,1.28,1.82.35,3.82.33,4.88,2.31.8,1.18,2,.59,3,.69,1.48.86,3.07,1.58,4,3.11.33,1,1.22.82,2,.91,3,1.55,6.27,2.64,8.12,5.77l2.82,2.26c1,.46,1.83,1,1,2.26a4.05,4.05,0,0,1-3.63.35c-3.13-1.81-5.74-4.38-8.87-6.21-7.21-4.78-15.27-7.7-23.32-10.66-1.61-.6-3.73-.47-4.47-2.61a1.77,1.77,0,0,1,.49-1.38l5.87.24C120.56,5.47,122.32,5.07,123.23,6.75Z"/><path class="cls-7" d="M9.24,132c.5-2.71-2.6-3.71-2.87-6-1.32-1-.5-2.44-.6-3.68A1.64,1.64,0,0,1,7,120.56c1.94,0,2.28,1.65,3,2.93A48.43,48.43,0,0,0,12,127.91c1.56,4.06,4,7.71,5.83,11.62.89,1.81,2.1,3.43,3.07,5.2,1.15,2.54,3.77,4,4.95,6.48a3,3,0,0,1-.41,2.78c-2.82.78-4-1.18-5.19-3.12-.39-.63-.78-1.26-1.16-1.9-3-2.19-3.27-6.34-6.27-8.49a7.34,7.34,0,0,1-2.47-4l0-1.55C9.07,134.35,9.9,132.9,9.24,132Z"/><path class="cls-8" d="M166.38,149l-1.11,1.3c-.56.75-.53,2.08-2,2a2.44,2.44,0,0,1-1.43-1.19,2.56,2.56,0,0,1,0-1.26,37.24,37.24,0,0,1,1.93-3.29c1-1.38,1.94-2.82,2.86-4.26a46.33,46.33,0,0,0,4.67-8.18c2.67-4.3,3.75-9.26,5.7-13.85,1.22-3.38,1.32-7.06,2.88-10.34a2.67,2.67,0,0,1,3-.35,1.15,1.15,0,0,1,.45,1.42,2.41,2.41,0,0,0-.2.92c-.88,1.6-.28,3.72-1.81,5.08a33,33,0,0,0-2.13,9.18,13.22,13.22,0,0,1-2,3.78l0,.1c-.45,3.07-1.38,5.89-3.9,7.94-.54.64.16,1.88-1.06,2.19-.77,1.78-1,3.92-3.21,4.71l-.81,1.13C167.74,147.08,167.57,148.35,166.38,149Z"/><path class="cls-2" d="M20.29,150.87c2,.4,2.58,3,4.85,3,2.44-.26,1.9,2.15,2.88,3.2,1.55,2.13,4.15,3.32,5.24,5.85.36.67.73,1.34,1.09,2-3.31,1.65-4.07-2-6-3C24,159.57,22.05,155.22,20.29,150.87Z"/><path class="cls-2" d="M105.23,184.89a4.65,4.65,0,0,1-3.81,2q-8.69.12-17.37,0a4.64,4.64,0,0,1-3.81-2,4.3,4.3,0,0,1,3-1.21c3.27-.31,6.47.32,9.68.81,1.66,0,3.19-.77,4.84-.82C100.31,183.79,103,183,105.23,184.89Z"/><path class="cls-9" d="M185.35,96l-.22,1c-.38,2,0,4.09-1,6h0c-1.11,1.94,1.14,4.36-.87,6.17-2.67-.37-2-2.59-2.4-4.26.51-2.47-3.82-4-1.34-6.89a8.72,8.72,0,0,0,3.06-4.27c1-1.37,2-1,2.87.17A2.27,2.27,0,0,1,185.35,96Z"/><path class="cls-2" d="M164.14,35.13l-1.75-1.19c-.53-.31-1.11-.5-1.66-.79A9.64,9.64,0,0,1,158.38,31a8.17,8.17,0,0,1-1.94-4.21,2.27,2.27,0,0,1,.78-1.83c4.29,1,4.21,6.46,8,8C165.7,34.13,165.11,34.72,164.14,35.13Z"/><path class="cls-2" d="M13.33,139.94a31.61,31.61,0,0,1,5.8,9c-4.32-.92-3.95-5.88-6.89-8C12.05,140.05,12.31,139.59,13.33,139.94Z"/><path class="cls-10" d="M73.22,182.8c.8-1,2-.8,3-.92,3-2.16,5.93-.78,8.89.08a3.15,3.15,0,0,1,1.28,1.09c-.41,2.23-2.2,1.1-3.4,1.4-1.94-.22-4,.5-5.81-.48a4.4,4.4,0,0,1-1-.08C75.12,183.9,73.91,184.07,73.22,182.8Z"/><path class="cls-2" d="M149.25,20.82l-8.12-5.77C144.76,15.09,148.8,18,149.25,20.82Z"/><path class="cls-2" d="M173.31,138l3.9-7.94C178.41,133.91,177,136.49,173.31,138Z"/><path class="cls-11" d="M109.17,181.84c1.31.27,2.82-.33,3.93.86L108.19,184a4.85,4.85,0,0,1-4.11.1,2,2,0,0,1,.15-2.44A3.92,3.92,0,0,1,109.17,181.84Z"/><path class="cls-2" d="M183.08,108.93c.69-1.94-.67-4.24,1.06-6,.26,2.73,3.09,5.7-.75,8l-.33-1a.66.66,0,0,1-.25-.73C182.9,109.05,183,108.93,183.08,108.93Z"/><path class="cls-2" d="M183,78c0-.66.05-1.32.07-2,4.44,2,1.1,5.21,1.2,7.89l-.7.33a1.79,1.79,0,0,1-1.13-1A5.35,5.35,0,0,1,183,78Z"/><path class="cls-2" d="M40.29,169l6.05,3.79C42.54,174.33,41.21,172,40.29,169Z"/><path class="cls-2" d="M65.24,181.16c2.15,1.26,5,0,7,1.81a1.78,1.78,0,0,1-1,1C68.92,183.7,65.87,185,65.24,181.16Z"/><path class="cls-2" d="M56.12,178.7c2.28-1.08,4,.21,5.78,1.34C59.55,181.42,57.49,181.55,56.12,178.7Z"/><path class="cls-2" d="M139.17,172.92l6.06-3.86C144.34,172.12,142.73,174.05,139.17,172.92Z"/><path class="cls-12" d="M104.31,183.69l3.88.3-3,.9h-8C99,181.26,101.7,182.7,104.31,183.69Z"/><path class="cls-1" d="M164.14,35.13,165.22,33a5.49,5.49,0,0,1,2,4c.19.94-.07,1.39-1.09,1A2.93,2.93,0,0,1,164.14,35.13Z"/><path class="cls-2" d="M172.21,47l-3.9-6C171.36,41.87,173.27,43.49,172.21,47Z"/><path class="cls-2" d="M114,182.83c1.82-1.59,4.37-.37,6.28-1.61C119.08,185.42,116.46,183.9,114,182.83Z"/><path class="cls-2" d="M177.14,54.14c-2.83-.57-2.77-3.23-3.76-5.15C176.33,49.47,176.8,51.76,177.14,54.14Z"/><path class="cls-2" d="M181.38,117c-.5-2.08.36-3.69,1.81-5.08C183.37,113.87,185.39,116.5,181.38,117Z"/><path class="cls-2" d="M163.24,152l2-1.72c1.14,3.58-1.68,3.95-3.91,4.81l-.37-.62A2.63,2.63,0,0,1,163.24,152Z"/><path class="cls-2" d="M35.28,165.86a7.64,7.64,0,0,1,5,3.06C37.36,169.92,36.09,168.27,35.28,165.86Z"/><path class="cls-2" d="M145.34,169l3.9-2.91C150.09,170,147.6,169.33,145.34,169Z"/><path class="cls-2" d="M169,144.88c1.15-1.51,1.35-3.67,3.21-4.71C173.11,143.06,172,144.59,169,144.88Z"/><path class="cls-1" d="M159.22,160c-.54,3.15-3.15,1.55-4.83,2.1l-.37-.52c.35-1.48,1.67-1.86,2.8-2.47a3,3,0,0,1,2.56-.22A.73.73,0,0,1,159.22,160Z"/><path class="cls-2" d="M132.08,10.34,127.2,8c2.06-1.7,3.46.05,5,1Z"/><path class="cls-2" d="M139.15,14.14c-1.61-.68-3.31-1.25-4-3.11C137.37,10.91,139.16,11.36,139.15,14.14Z"/><path class="cls-2" d="M184.15,102.93c.46-2-.48-4.17,1-6C186.39,99.2,185.33,101.08,184.15,102.93Z"/><path class="cls-2" d="M151,164.87l1.28-2.87a1.27,1.27,0,0,1,1.84-.11l.24.18C155.31,165.45,152.9,164.84,151,164.87Z"/><path class="cls-2" d="M159.22,160c0-.39-.07-.79-.1-1.18-.75-2-.35-3.49,2-3.86l.19.16C162,157.32,161.49,159,159.22,160Z"/><path class="cls-2" d="M166.13,38l1.09-1c2,.85,2.1,2.21,1.05,3.89Z"/><path class="cls-1" d="M157.22,25c0,.75-.05,1.5-.08,2.25-1.37.69-2.33.07-3.14-1A1.72,1.72,0,0,1,155.22,24,2,2,0,0,1,157.22,25Z"/><path class="cls-2" d="M155.22,24l-1,1.94c-.93.2-1.38-.07-1.06-1.09-.36-.59-.72-1.18-1.09-1.77C153.44,22.3,154.59,22.25,155.22,24Z"/><path class="cls-1" d="M121.25,181.1c1.16-1,2.42-1.61,4-.93C124.43,182.73,122.93,182.28,121.25,181.1Z"/><path class="cls-1" d="M13.33,139.94l-1.09,1c-2-.9-2.1-2.61-1.85-4.46Z"/><path class="cls-2" d="M182.43,75c-.11-1.64-.22-3.27-.34-4.91C185.38,71.47,183.67,73.23,182.43,75Z"/><path class="cls-13" d="M77.22,184l6-.12c.31.2.42.4.31.59s-.22.29-.33.29l-3,.17Z"/><path class="cls-2" d="M127.09,179.9c.12-2.22,1.61-2,3.13-1.79C130,180.16,128.51,180,127.09,179.9Z"/><path class="cls-2" d="M179.25,60.78c-1.6-.73-1.41-2.5-2.16-3.72C178.58,57.85,180.46,58.42,179.25,60.78Z"/><path class="cls-2" d="M184.31,83.92c.64,1.69,1.27,3.38,1.91,5.06a1.73,1.73,0,0,1-2,.3,3.14,3.14,0,0,1-.82-1.18,4,4,0,0,1,.81-4.1Z"/><path class="cls-1" d="M184.44,89l1.78,0c1,.67,1,1.34,0,2a1.44,1.44,0,0,1-1.4.39C183.76,90.71,183.38,89.94,184.44,89Z"/><path class="cls-2" d="M177.24,129.94c.43-1.39.44-3,2-3.78C180.48,128.43,178.61,129.05,177.24,129.94Z"/><path class="cls-2" d="M166.38,149l1.85-3C169.52,148.18,168.84,149.14,166.38,149Z"/><path class="cls-2" d="M47.24,173.1c1,.5,2.23.7,2.73,1.91C47.8,176.17,47.47,174.71,47.24,173.1Z"/><path class="cls-2" d="M9.24,132A3,3,0,0,1,10.37,135a2.18,2.18,0,0,1-2.12-1Z"/><path class="cls-2" d="M73.22,182.8c1,.52,2.42-.36,3,1.09a2.08,2.08,0,0,1-2,1.08c-.48-.52-1.49-.75-.93-1.8Z"/><path class="cls-1" d="M73.31,183.17l.93,1.8c-1.1,0-2.29.17-3-1l1-1Z"/><path class="cls-2" d="M184.83,91.11l1.39-.13c-.23,1.67.61,3.52-.87,5-.08-.61-.16-1.22-.23-1.83A3,3,0,0,1,184.83,91.11Z"/><path class="cls-14" d="M30.28,26a5.58,5.58,0,0,0,.89-.24,3.52,3.52,0,0,1,1.58-1.52C36.42,24,39.19,21.9,42,19.74a12.52,12.52,0,0,1,5.77-2.8C50,16.86,52,17.21,52,20.19c-1.83,3.9-6.31,5.19-8.58,8.65-1.4,1.41-1.21,4.2-3.88,4.52-1.51-.25-2.38-1.54-3.63-2.22-2-1.05-3.67-1.09-4.79,1.18-1.8,3.76,1.23,5,3.47,6.58A3.28,3.28,0,0,1,35,40.27c-.11,2.2-1.74,2.79-3.46,3.28-4-.8-5.45,4-9,4.13-2.32-.51-2.37-2.39-2.54-4.2a14.28,14.28,0,0,1,.2-3,16.52,16.52,0,0,1,3.2-6.18c.41-.49,1.13-.68,1.36-1.35A11.63,11.63,0,0,1,27.36,28C27.57,26.26,29.26,26.63,30.28,26Z"/><path class="cls-15" d="M47.18,18c-2.56,1.74-5.23,3.34-7.64,5.27-2.23,1.77-4.45,2.69-7.22,1.6a1.16,1.16,0,0,1,1.06-1.54l6.86-5.5c2.62-3,6.23-4.28,9.68-5.85.42-1.15,1.58-.66,2.34-1.07,1.89-1.25,3.63-2.83,6.11-2.8l3.87-1.24a5.81,5.81,0,0,1,5-2l1.06,0c1.14-1,2.77.27,3.89-.85l.09,0A.9.9,0,0,1,73.5,4a2.58,2.58,0,0,1,.19,1.4c-1.23,2.29-4.22,1.71-5.75,3.53a12.42,12.42,0,0,1-3.7,1.83,19,19,0,0,0-6.78,3C54.36,16,50.72,16.85,47.18,18Z"/><path class="cls-16" d="M6.36,61A6.41,6.41,0,0,0,8.3,57a5.58,5.58,0,0,1,2.06-5l4.91-8c.56-.91.31-2.46,2-2.52a1.76,1.76,0,0,1,1.52,1.26A5.67,5.67,0,0,1,18,46.05c-.87,1.74-2.05,3.3-3,5q-.6,1.14-1.17,2.28a44,44,0,0,0-1.92,4.12c-.78,2.12-1.74,4.17-2.45,6.32-.82,2-.93,4.12-1.38,6.18-.81,2.29-.47,5-2.33,6.91-2.06,1-2.69-.35-3.19-1.93L5.28,65C6.42,63.91,4.75,62,6.36,61Z"/><path class="cls-17" d="M1.36,94.92c-2.54-2.38.82-4.72,0-7.08a15.13,15.13,0,0,1,2.12-3.09c1-1.39,1-3.43,2.82-4.24,1.91-.46,3,1,4.43,1.8,1.43,1,3,1.87,3.22,3.84,0,2.24-1.68,2.84-3.34,3.46a37.09,37.09,0,0,1-4.68,1c-1.78.18-2.09,1.69-2.65,3C2.88,94.34,2.54,95.26,1.36,94.92Z"/><path class="cls-18" d="M7.42,120.93l-1.24,1.2c-.42.26-.71.15-.85-.32-1.13-3.59-3.19-7-2.62-11-2.89-2.53-.71-5.91-1.49-8.79-.84-1.35-1.43-2.69.15-3.94,1-.59,1.76,0,2.52.56,2.4,1.89,1.54,4.7,2,7.15,0,3.29,1.09,6.37,1.75,9.54C8,117.23,8.9,119.14,7.42,120.93Z"/><path class="cls-19" d="M4,85.7,1.4,87.84v-3.5c.4-2.78-1.08-5.76.92-8.36l.24-1,2.67,2C6.57,80.13,4.47,82.8,4,85.7Z"/><path class="cls-20" d="M18.41,43.29l-1.32-1.35c-.37-1.83.78-2.89,2-3.95.39-.4.78-.8,1.16-1.21.79-1.88,1.46-3.92,4.24-3,0,2.59-2.15,4.11-3.12,6.21-.95.76-.89,2.09-1.65,3A1.57,1.57,0,0,1,18.41,43.29Z"/><path class="cls-2" d="M49.92,12a49.11,49.11,0,0,1-9.68,5.85C42,13.47,45.73,12.3,49.92,12Z"/><path class="cls-2" d="M1.22,102.06c2.16,2.64.11,6,1.49,8.79C-1.72,108.58.43,105.21,1.22,102.06Z"/><path class="cls-2" d="M2.32,76c-.53,2.76.74,5.72-.92,8.36C.3,81.4-1.29,78.4,2.32,76Z"/><path class="cls-21" d="M80.24,1.92c2.31.72,5-1.09,7.1,1,.22,1.59-.92,1.64-2,1.78-2.29-.53-4.77,0-6.91-1.27a.8.8,0,0,1,0-1.32Z"/><path class="cls-22" d="M3.15,99.09l-1.78-1c0-1.07,0-2.13,0-3.2l1-2a1,1,0,0,1,1.39.36C5.31,97.39,5.29,97.58,3.15,99.09Z"/><path class="cls-2" d="M19.05,38c-.65,1.32-1.31,2.63-2,3.95L15.27,44C14.71,40.87,16.18,39,19.05,38Z"/><path class="cls-2" d="M24.45,33.77c-2.48-.49-2.71,2.18-4.24,3C19.63,33,21.63,32.34,24.73,33A1.15,1.15,0,0,1,24.45,33.77Z"/><path class="cls-2" d="M10.36,52C9.67,53.69,9,55.35,8.3,57,6.42,54.29,7.78,52.91,10.36,52Z"/><path class="cls-2" d="M58.37,8.08l-6.11,2.8C53.78,8.83,55.26,6.67,58.37,8.08Z"/><path class="cls-2" d="M30.28,26l-2.92,2c-.7-.16-1.9-.06-1.21-1.29C27.16,25,28.68,25,30.28,26Z"/><path class="cls-2" d="M78.4,2.09c-.11.28-.23.57-.34.86-1.24,1.88-2.82,2.36-4.81,1.16l-1-.17C73.91,2,76.09,1.85,78.4,2.09Z"/><path class="cls-2" d="M67.2,4.86l-5,2C63.21,4.48,64.67,3.31,67.2,4.86Z"/><path class="cls-2" d="M33.38,23.3l-1.06,1.54-1.15.94c-.45-1-1.21-2-.05-3C32.11,21.93,32.82,22.29,33.38,23.3Z"/><path class="cls-2" d="M6.36,61c-.48,1.31.58,3-1.08,4C5.77,63.74,2.69,61.47,6.36,61Z"/><path class="cls-2" d="M5.33,121.81a5.12,5.12,0,0,1,.85.32c.06,1.29.13,2.57.19,3.85C2.68,125.42,5.8,123.17,5.33,121.81Z"/><path class="cls-2" d="M72.15,4c-1.07,1.32-2.51.93-3.89.85C69.14,2.64,70.79,4,72.15,4Z"/><path class="cls-23" d="M107.3,3l4.89,1.12c0,2-1.65,1.75-2.87,2.1A17.77,17.77,0,0,1,104.44,6,3.49,3.49,0,0,1,103,5.14a2.22,2.22,0,0,1-.17-1.6C104.17,2,105.71,2.33,107.3,3Z"/><path class="cls-24" d="M107.3,3c-1.34.41-3-.37-4.08,1a3.91,3.91,0,0,1-4,.75c-1-.66-2.12-1.28-.66-2.57l6.72-.27Z"/><path class="cls-2" d="M123.23,6.75c-1.23-.89-3.08-.27-4.09-1.68C121.24,3.83,122.79,3.93,123.23,6.75Z"/><path class="cls-24" d="M109.2,5.12c1-.21,2.27.16,3-1,.65-.21,1,.12,1.08.7l-.09,1.22C111.55,7.06,110,7.54,109.2,5.12Z"/><path class="cls-25" d="M98.51,2.19c0,.67-.55,1.46.44,1.9.3,2.45-1.5,1.36-2.39,1.25-1.72-.22-3.43-1-5,.48-3,1.58-4.21,3.82-3,7.19.6,1.66,1.22,3.51-1.34,4.27a3.69,3.69,0,0,1-1.76-1.19c-1.58-2.89-3.78-4-7-2.7-2.67,1.07-5.58.79-8.39,1.1-1.76.25-3.48.87-5.3.51s-3.2-1.1-3.54-2.9c-.46-2.46,2.38-.91,3-2.22l3.09-1.75c4-1.87,8.43-2.6,12.64-3.91,1.77.1,3.48-1.14,5.29-.26A2.07,2.07,0,0,0,87.34,2.9,30.67,30.67,0,0,1,98.51,2.19Z"/><path class="cls-26" d="M46.17,169c-3.43-.5-5.48-3.31-8.22-5-2.4-1.45-1.24-2.82.39-4,.24-1.47,1.61-2,2.44-3s1.93-2,3.51-1.63c3.49,1.81,6.81,3.85,9.31,7,.16,1.57.69,3.16-.17,4.7C51.21,168.48,49.31,171.12,46.17,169Z"/><path class="cls-27" d="M33.26,162.91l-5.91-5.06c-.54-2.85-2.32-5.57-1-8.64a12.42,12.42,0,0,1,2.34-2.91c1.77-1.89,4.09-2.56,6.55-3a2.31,2.31,0,0,1,1.95.7c.17,3.26-3.31,2.72-4.61,4.45-2.45,1.76-3.08,4.24-.91,6.16,2.37,2.1,4.07-.16,5.46-2.07a4.5,4.5,0,0,1,2.54-2.15c3.25.55,2.37,2.65,1.75,4.65-1.24,2-2.35,4.08-5.19,3.91C33.7,159.1,33.1,160.72,33.26,162.91Z"/><path class="cls-28" d="M71.19,180c-2.49-.09-4.71-1.11-7-2.05-4.41-1.71-2.51-4.47-1.19-7.13,4.24-1.15,7.61,1.86,11.52,2.43a35.73,35.73,0,0,1,8.22,2,1.77,1.77,0,0,1,.8,1.17c-.8,2.61-2.87,2.68-4.78,1.87-2.82-1.19-4.88-1.06-6.29,1.95C72.39,180.59,71.6,180.34,71.19,180Z"/><path class="cls-13" d="M71.19,180c2.06-4.63,2.1-4.72,7.75-2.64a4.61,4.61,0,0,0,4.21-.39A4.77,4.77,0,0,1,85,178.72a5,5,0,0,1,1,2.36,2.57,2.57,0,0,1-.66,1.81l-9.07-1C75,180.12,72.45,181.8,71.19,180Z"/><path class="cls-29" d="M63.22,171c.67,2.28-2,5.05,1,7a44.65,44.65,0,0,1-12-5c1.66-1.66,3.15-3.51,5.27-4.67C60,167.9,62.09,168.44,63.22,171Z"/><path class="cls-30" d="M57.24,169c-1.36,1.71-2,4.37-5,4-2-1.28-4.7-1.62-6.07-3.95,2.87,1.08,4.4-2.45,7.07-2.05C55.14,166.51,56.82,166.48,57.24,169Z"/><path class="cls-31" d="M36.26,159a10.81,10.81,0,0,0,4-3.95c2.47.27,1.32,1.74,1,2.95l-2.92,2C37.52,159.94,36.71,159.84,36.26,159Z"/><path class="cls-32" d="M120.07,178.77l-3.85.31c-1.38-1-2.55-2.12-2-4.07.43-.94,1.83-.31,2.27-1.39-1.52-.27-1.78,1.22-2.66,1.79a3.8,3.8,0,0,1-4,.1,4.51,4.51,0,0,0-4.47-1.38c-.46,0,.36.76.17.12-.06-.22.06-.26.37-.26a4.36,4.36,0,0,1,3.51,1.26c-2,3.91-4.93,2.61-7.85,1.45a4,4,0,0,1-1.56-4.81,3.17,3.17,0,0,1,1.28-.82c1.69-.46,3.48-.36,5.15-1a24.4,24.4,0,0,1,3.71-.54c3-.38,5.82-1.69,8.89-1.69,3.25.52,4.37,2.24,2.68,5.2C120.63,174.88,120.9,177,120.07,178.77Z"/><path class="cls-33" d="M101.25,176c2.67-.1,5.7,2.38,7.93-1.06h0l5.11,0h0c.52,1.45,2.2,2.34,2,4.14-2.06,1.66-5.07.89-7,2.76l-4.9.26a2.76,2.76,0,0,1-3.49,1.15c-1.66-.74-1.06-2.19-.76-3.46a4.36,4.36,0,0,0-.07-3.06C100.14,176.06,100.44,175.58,101.25,176Z"/><path class="cls-34" d="M146.24,165c-2.6,2.6-5.9,4.12-9,5.94-1.82-1.35-3.95-2.39-4.56-4.88a2.26,2.26,0,0,1,.51-1.25c4.85.45,1.9-2.43,1.75-4.12.6-1.89,2-2.39,3.8-2.25,1.33.86,1.32,0,1.22-1a2.23,2.23,0,0,1,1.47-1.23c2.12-.28,3.44.45,3.38,2.79,0,1.42-.28,2.87.68,4.13A3.62,3.62,0,0,1,146.24,165Z"/><path class="cls-35" d="M133.16,166.06c.87,2,4.23,2,4.07,4.86L133.29,173c-.86,0-1.71,0-1.94,1.06l-7.1,2.9c-.71.49-1.56.7-2-.18-.53-1.21.59-2,1.16-2.84s1.55-1.43,1-2.65c-.88-1.46-2.48-2.64-1.83-4.69a1.87,1.87,0,0,1,2.26-1.11c1.67,1.95,3.55,2.14,5.63.64C131.41,165.84,132.26,165.44,133.16,166.06Z"/><path class="cls-36" d="M124.24,174c.93,1-2.8,2,0,3.05-1.11,1.26-2.8,1.16-4.18,1.77-.91-2.2-1.48-4.2.61-6.29,1.78-1.78,1.22-3.26-1.47-3.52.38-2.52,1.84-3,4-2-.23,2.27,2.14,2.68,3,4.18C125.44,172,125.15,173.17,124.24,174Z"/><path class="cls-37" d="M151.17,161l-1.78.95a2,2,0,0,1-1.64-1,5.9,5.9,0,0,1-.36-1.29c-.07-2.69-3.78-4.81-1.24-7.9,1.64-.69,2.49.31,3.12,1.54,1,2,2.71,2.2,4.63,2a4.06,4.06,0,0,1,1.38.3,3.36,3.36,0,0,1,1.05,1l.24.68C155.92,160.07,153.61,160.61,151.17,161Z"/><path class="cls-38" d="M151.17,161c1.3-1.84,4.11-1.74,5.1-4,.72-.53,1.55-.67,1.91.24s-.39,1.75-1,2.45l-3,2.17-1.84.11Z"/><path class="cls-39" d="M148.27,160.93l1.12,1a5.24,5.24,0,0,1-3.15,3l-1-1C145,161.7,146,160.68,148.27,160.93Z"/><path class="cls-40" d="M131.35,174.1c-.59-.5-1.3-1.1-.34-1.77s1.71-.16,2.28.71Z"/><path class="cls-41" d="M175.25,59c3.14,6,4.27,12.59,6,19,1.35,1.65,1.05,3.51.7,5.37a1.56,1.56,0,0,1-1.08,1c-3-1.09-2.46-3.93-3-6.2-.65-2.85-1.94-2.59-3.65-.9-3.29-.84-1.38-4-2.92-5.8-.74.12-.29,1.7-1.36,1.83-2.4-.7-2.6-2.75-2.91-4.73.21-2.76-.22-6,4.51-4.39,1.8.62,1.2-1.42,1.6-2.32A3.28,3.28,0,0,1,175.25,59Z"/><path class="cls-42" d="M165.17,41.14a36.27,36.27,0,0,1,7.13,11.8c-2,2-3.08,2.37-4.19.39-2.84-5-7.6-7-12.59-8.76-1.23-1.44.14-2.19.82-3.12.86-.77,1.53-1.89,2.95-1.61C160.85,42.09,163.17,40.89,165.17,41.14Z"/><path class="cls-43" d="M155.29,44c6,.53,10.85,2.71,13.44,8.66.68,1.57,2.22,1.88,3.57.32a12.91,12.91,0,0,1,2.95,6c-.35,1-.69,2-1,3a1.41,1.41,0,0,1-1.72.41c-.83-.93-.83-2.33-1.83-3.17a18.62,18.62,0,0,0-2.41-3c-2.65-4.4-5.62-8.4-11.26-9.11a2.68,2.68,0,0,1-2.18-1.73A1.83,1.83,0,0,1,155.29,44Z"/><path class="cls-44" d="M165.17,41.14c-2.21.85-4.7,3.11-5.94-1.13-.26-2.25,0-4,3-3Z"/><path class="cls-45" d="M162.23,37c-2,0-2.22,1.82-3,3l-2,2a3.06,3.06,0,0,1-1.5-2.27,6.94,6.94,0,0,1,1-3.4c1.42-1.22,1.12-4.73,4.49-3.39l1.12,1C158.82,34.75,162.55,36,162.23,37Z"/><path class="cls-46" d="M183,78c.1,1.88.2,3.76.31,5.63.49,1.37-.1,1.53-1.22,1.12a10.81,10.81,0,0,1,.12-6.77Z"/><path class="cls-47" d="M182.25,78l0,6.92-.66.22a.89.89,0,0,1-.41-1.13c0-2,0-4,0-6Z"/><path class="cls-48" d="M109.2,5.12c1.11,1.26,2.62.79,4,.93,8.23,2.94,16.53,5.7,24.19,10,1.42.81,3.11,1.26,3.92,2.9-1.56,1.15-2.73.58-3.85-.72A34.85,34.85,0,0,1,141.83,24c1.42,2.08,2.84,4.11,2.51,6.83a4.2,4.2,0,0,1-.71,2,1.62,1.62,0,0,1-1.31.42c-1.49-.9-2.19-2.46-3.18-3.77A16.33,16.33,0,0,0,130,20.43c-2.18-.85-3.92-2.53-3.08-5.35-1-.19-.1.81-.58,1A27.37,27.37,0,0,1,119.47,19a6.55,6.55,0,0,1-2.16-.14c-2.27-.68-4.72-.72-6.87-1.86a28.5,28.5,0,0,0-3.23-1.21c-1.53-.61-3.24-.5-4.75-1.21a2.72,2.72,0,0,1-.94-1.13,3.54,3.54,0,0,1,.59-3.6c3.09-.79,5.84.79,8.76,1.24,2.33.8,4.8.72,7.76,1.15-2.58-3.43-6.32-2.82-9.31-3.92a34,34,0,0,1-3.95-1.22,4.25,4.25,0,0,1-1.17-.75,1.05,1.05,0,0,1,0-1.26Z"/><path class="cls-49" d="M143.09,32.9l.15-1.89c1-3,2-6.06,6-6.08l3.92-.08,1.06,1.09,2.92,1.31,2.16,3.68c-.92,1.12-2.14,1.11-3.4.93-2.29-.51-4.46-2.57-7-.53-1.16,1-1.41,2.65-2.34,3.8s-1.83,3.08-3.91,1.47A3.32,3.32,0,0,1,143.09,32.9Z"/><path class="cls-50" d="M149.24,24.93a16.43,16.43,0,0,0-6,6.08c.07-5.53-4.64-8.51-7-12.89,2-1.1,3.29,1.27,5,.84A20.28,20.28,0,0,1,149.24,24.93Z"/><path class="cls-51" d="M7.42,120.93c-.81-3.79-1.39-7.66-2.55-11.35A6.6,6.6,0,0,1,5.25,105c-1-3.21.93-3.42,3.29-3.15a5,5,0,0,1,1.38.62c1.62,5.41,5.62,9.48,8.15,14.38,1.18,2.2,1.38,4.66,1.94,7a35.47,35.47,0,0,1-.24,7.06c-1.93,2.35-.08,4.63.09,6.95.15,2,.31,4.36-2.88,2.26-2.11-3.88-5-7.37-5.85-11.87-.68-1.42-.2-2.31,1.2-2.77-.38-.57-1-.43-1.5-.52a3.61,3.61,0,0,1-1.65-1Z"/><path class="cls-52" d="M29.33,147.13l-1.95,1.92c-1.22.14-1.28,1.56-2.22,2-1.95-1.76-4.27-3.21-5-6,2.94-1.5,1.71-3.82,1.27-6.05-.4-2-2.61-3.67-1.2-6a13.51,13.51,0,0,1,3.62-1.25c3.32,3.44,5.48,7.63,7.76,11.75C31.46,145.07,29.23,145.37,29.33,147.13Z"/><path class="cls-53" d="M21.22,133c-.77,3.46,1.89,6.08,2.31,9.39.5,4-.55,3.89-3.37,2.62L17,140.11c3.52.7,1.35-1.5,1.63-2.77.48-2.15-4-4.75.57-6.4C21.35,130.19,22,130.94,21.22,133Z"/><path class="cls-54" d="M25.16,151.05c.5-.93-.81-3.85,2.21-2-1.56,2.93.3,5.87,0,8.8-1.73-.78-.76-3-2.21-4C25.14,152.92,25.15,152,25.16,151.05Z"/><path class="cls-55" d="M9.18,124h2.14c.86.84,2.69.32,2.93,2.06-.54,1.43-3.4-.46-3.12,2.17A7.4,7.4,0,0,1,9.18,124Z"/><path class="cls-56" d="M178.06,120.93c-1.91,4.68-3,9.7-5.86,14-1.91.32-1.65-1.14-1.7-2.19-.08-1.4,1-2.87-.7-4.64-.19,3.49-3.14,4.86-4.53,7.35-1.28,2.33-2.26,4.84-4.07,6.86-3.78.43-3.47-2-3.18-4.49,2.83-6.48,6.48-12.56,9.41-19,1.6-.24,2.09,2,3.73,1.66,1.4-.23,2.78-.7,4.22-.27C176.16,120.87,177.21,120.53,178.06,120.93Z"/><path class="cls-57" d="M164.23,135c1.14-3.22,6-4.62,3.88-9.42,3.74,1.76,5.25,3.8,3.34,7.26a1.59,1.59,0,0,0,.75,2.11c-1.36,2.87-2.68,5.77-5,8a1.55,1.55,0,0,1-1.92.26c-.92-2.37,1.31-3.7,1.84-5.59.26-.85,1.29-1.69.48-2.56-.59-.63-1.46.1-2.2.26A1.25,1.25,0,0,1,164.23,135Z"/><path class="cls-58" d="M178.06,120.93c-.61.17-1.2,1.14-1.84,0-1.27-1.15-2.68-3.25-1.35-4.1,3.3-2.13,2.61-5.34,3.27-8.22.45-1.59,1.08-3,3.11-2.86a3,3,0,0,1-.91,4.23C180.4,113.83,179.05,117.34,178.06,120.93Z"/><path class="cls-37" d="M157.15,159.72c-.31-.89,1.77-2.57-.88-2.69l-.07-.09c-.59-1.58.69-2.49,1.3-3.64s1.16-2.59,2.72-3a2.33,2.33,0,0,1,1.95.62c.36.36.71.72,1.07,1.07l-2.07,2.93a7.81,7.81,0,0,0-2,3.86Z"/><path class="cls-59" d="M162.17,150.93l-1.93,0a5.3,5.3,0,0,1-1.36-4.86c1.6-2.07,3.58-3.39,6.34-3.11h2c-.74,1.49-1.24,3.16-2.81,4.08-1.64.31-2,1.51-2.14,2.94C162.23,150.31,162.21,150.62,162.17,150.93Z"/><path class="cls-60" d="M162.24,150c-1.3-1-1.17-2.1-.18-3.18.82-.89,1.63-.68,2.31.24A3.72,3.72,0,0,1,162.24,150Z"/><path class="cls-61" d="M180.34,110c.29-1.34.58-2.69.88-4-.69-1.14-.62-1.92.93-2,.32,1.66-.57,3.54.93,5l0,1.08Z"/><path class="cls-12" d="M83.22,184.73c0-.3,0-.59,0-.88,1,0,2.13.31,2.88-.75.66-1.37.88-2.93,1.88-4.14,2.25-.83,3.69,2.6,6.06,1.13a10,10,0,0,1,2.15-1.47,2,2,0,0,1,1.29.24,3.65,3.65,0,0,1,1.13,2.42c-.54,3-4.16,2.33-5.36,4.54Z"/><path class="cls-62" d="M93.27,185.82c-1.2-1.95.56-2.17,1.64-2.58,1.37-.53,2.92-.72,3.13-2.6a1.71,1.71,0,0,1,.91-1.46,2.12,2.12,0,0,1,2.28-.2c.32,1.26-1.63,2.5-.23,3.64,1.06.87,2.17-.31,3.26-.52,0,.53,0,1.06,0,1.59-2.31.79-5-.59-7.12,1.21C95.75,184.66,94.79,186.42,93.27,185.82Z"/><path class="cls-63" d="M182.15,104l-.93,2a3,3,0,0,0-2,3c-1.24,3-2.73,4.2-4.91.71,0-3.21-1.37-6.06-2.59-8.93,1.55-1.55-1.82-2.42-.56-3.94,3-1.13,5.93-.42,8.81.56.11.22.21.43.31.65-.38,1.14-1.65,2.43.66,3C182.46,101.48,182.14,102.82,182.15,104Z"/><path class="cls-64" d="M184.83,91.11c.1,1,.19,2,.29,3-.61,0-1.23-1.2-1.84,0-.85,1-1.63,3.73-2.86.44-.68-1.8-1.88-3.33-2.33-5.2.86-1.54,2.59-1.77,3.93-2.6,1.77-.31,1.53,1.22,2,2.15a.31.31,0,0,1,.46,0A1.86,1.86,0,0,0,184.83,91.11Z"/><path class="cls-65" d="M178.35,88.9c1.35,1.54,3,2.72,3.1,5.21.1,2.15,1.19-.32,1.83,0,0,2.06-.55,3.72-3,3.87l-.07-.1c-1.2-1.39-1-3.36-1.93-4.84-1.38-1.29-3.43-.58-4.87-1.67-.84-.93-.32-1.67.32-2.41,1.27-.81,2.67-.49,4-.41Z"/><path class="cls-66" d="M155.54,31l3.76-.07,2,2c-2.71.05-1.69,3.51-3.78,4.12a1.09,1.09,0,0,1-1.21.25,2.65,2.65,0,0,1-.8-1c-.38-1.23-.37-2.54-.65-3.8a2.53,2.53,0,0,1,.12-1.25Z"/><path class="cls-67" d="M88.15,179c-.07,1.67.59,3.69-2,4.1a5.41,5.41,0,0,0-.79-.21l-.06-2c.5-1.7-.62-3.38-.1-5.09.31-1.3.85-2.35,2.42-2.35a1.65,1.65,0,0,1,1.09.82C89.15,175.93,88.46,177.44,88.15,179Z"/><path class="cls-47" d="M184,88.92,182.21,87a1.65,1.65,0,0,1-.55-1,1.34,1.34,0,0,1,.51-1l.11-.11,1.07-1.26a3.05,3.05,0,0,1,.86.35Z"/><path class="cls-68" d="M34.27,40.08a1.14,1.14,0,0,1-.17-.7c-.62-1.53-2.71-1.3-3.36-2.75s-1.63-2.91,1.05-3.22c4.07.92,6.13,4.48,9.05,6.93,7.65,7,15.34,14,22,22,3.74,4.47,8.78,7.53,12.71,11.78,1.23,1.33,2.73,2.44,3.35,4.25-1.1,4.22-1.74,4.33-5.92,1a45.31,45.31,0,0,1-5.12-4.67c-1.34-1.42-2.72-2.8-4.12-4.17s-2.67-2.72-4-4c-1.05-1.08-2.12-2.15-3.21-3.18-1.58-1.58-3.17-3.16-4.76-4.72-1.64-1.72-3.33-3.39-5-5.06q-2-2.07-4.07-4.07c-1.36-1.41-2.75-2.78-4.17-4.13A19.05,19.05,0,0,1,34.27,40.08Z"/><path class="cls-69" d="M34.27,40.08l5.16,4.82a9.69,9.69,0,0,1-1.49,2.2c-5.48,6-8.69,13.46-13.31,20a2.8,2.8,0,0,1-1.34.44A2.29,2.29,0,0,1,22,67c.12-6.54,4.51-11.13,7.52-16.34,1.05-1.83,2.8-3.25,3.37-5.38a3.39,3.39,0,0,0-1.37-1.62,1,1,0,0,1-.38-1C32.13,41.74,34.28,42.19,34.27,40.08Z"/><path class="cls-70" d="M40.22,41.06q-4-3.56-7.94-7.09c-.92-.54-.37-2.64-2.27-2.14,3-4.39,5.08-4.14,9.24,1.15a3.42,3.42,0,0,1,1.38,2c-.19,1.33.74,2.28,1.18,3.4A2.26,2.26,0,0,1,40.22,41.06Z"/><path class="cls-71" d="M42.16,28c3-2.44,5.53-5.34,9.07-7a1.63,1.63,0,0,1,2-.19c.8,1.48.19,2.9-.2,4.33-2.51,3.53-6.23,5.4-10,7.27a1.44,1.44,0,0,1-1.27-.68C41.81,30.45,41.48,29.18,42.16,28Z"/><path class="cls-72" d="M53.21,20.87l-2,.11c.36-3.29-2-3-4-3,2.88-2.63,6.77-3.3,10-5.18.24,1.69,2.32,2.43,2.23,4.29C57.65,18.82,56.07,20.91,53.21,20.87Z"/><path class="cls-73" d="M23.47,47.11c2.18-2.15,3.78-5.31,7.7-4.41a3.91,3.91,0,0,0,.24.51c.23,1.61-1,2.76-1.36,4.17a4.35,4.35,0,0,1-.71,1.09c-1.67,1.05-2.35,3.25-4.44,3.81-1.91-.74-1.8-2.52-2.12-4.08A1.17,1.17,0,0,1,23.47,47.11Z"/><path class="cls-74" d="M30,31.83c2.32-.95,2.3.58,2.27,2.14-1.91.14-1.55,1.15-.81,2.23s2.64,1.38,2.63,3.18C30,38.37,27.83,36.26,30,31.83Z"/><path class="cls-75" d="M23.47,47.11q-.13.44-.24.87a3.77,3.77,0,0,1-.76,1.2c-.9.75-1.86,1.54-2.8.15-1.41-2.07-1.55-4.17.19-6.18a1.19,1.19,0,0,1,1.24-.43C21.43,44.43,20.63,46.75,23.47,47.11Z"/><path class="cls-76" d="M42.16,28l.21,4.07c.16,1.62.22,3.16-2.16,2.85a1.87,1.87,0,0,1-1-1.93C41.9,32.29,40.47,29.23,42.16,28Z"/><path class="cls-77" d="M21.1,42.72a2.65,2.65,0,0,0-.8.37.7.7,0,0,1-1.07-.16,3,3,0,0,1,2.1-3C21.25,40.9,21.18,41.81,21.1,42.72Z"/><path class="cls-78" d="M59.24,16.68c-1.35-.94-3.37-1.54-2-3.89,2-1.66,4.11-3.24,7-2.91-.11,1.33-2.53.65-2.1,2.13a2.93,2.93,0,0,0,3.11,2c1.77-.13,3.52-.5,5.27-.76-.19,2.36-2,2.92-3.79,2.86C64.15,16,61.73,16.76,59.24,16.68Z"/><path class="cls-79" d="M85.2,4c-1.6.39-3,1.52-4.78,1.15-2.4.21-4.81,1.38-7.2-.06,0-.31,0-.63,0-.94l4.81-1.17C80.39,3.61,83,2.06,85.2,4Z"/><path class="cls-21" d="M73.22,5.05l7.19.06c-4.19,1.83-8.79,1.87-13.14,3C68.49,5.62,71.58,6.74,73.22,5.05Z"/><path class="cls-80" d="M22.35,48.07a2.61,2.61,0,0,1,.88-.09c1.63.86.43,3,1.85,4,.76.94.3,1.86,0,2.79a66.17,66.17,0,0,0-4.4,8.89c-.72,1.71-.81,4.05-3.26,4.59-1.83-1.34-1.72-3.7-2.87-5.39-.49-2-3-1-3.84-2.49.2-1.12-.24-2.34.58-3.35a5.38,5.38,0,0,1,2-4,2.87,2.87,0,0,1,.83,1c.53.91.52,2.55,1.94,2.38,1.92-.24,1.83-2.38,2.69-3.64C19.71,51,21.9,50.22,22.35,48.07Z"/><path class="cls-81" d="M22.35,48.07a5.28,5.28,0,0,1-3.06,5c-2-.25-3.81,1.1-5.82,1L13.26,53c.32-.67.64-1.35,1-2,1.16-1.54,2.55-2.95,2.89-5l1.29-2.71a6,6,0,0,0,.82-.36l1.07.16c-.33,1.66-1.05,3.15-.24,5C21.16,50.71,21.61,47.59,22.35,48.07Z"/><path class="cls-82" d="M4,85.7Q4.63,81.34,5.23,77q1-3.57,1.94-7.14a1.17,1.17,0,0,1,1.47.32C10,74.24,8.13,77.62,6.27,81,4.91,82.27,6.16,84.8,4,85.7Z"/><path class="cls-83" d="M8.14,69.88l-.49,0-.48-.06c-.23-2.37.49-4.6,1.11-6.84a.89.89,0,0,1,1.25,0,4.45,4.45,0,0,1,.78,2.76,6.28,6.28,0,0,1-.37,2.1A3.49,3.49,0,0,1,8.14,69.88Z"/><path class="cls-20" d="M9.41,63,8.28,63l3-6c0,1.31,0,2.63-.07,3.94C11.77,62.63,10.82,63,9.41,63Z"/><path class="cls-20" d="M17.12,46a4.42,4.42,0,0,1-2.89,5C14.43,48.87,16,47.54,17.12,46Z"/><path class="cls-84" d="M9.63,102.18a1.84,1.84,0,0,1-.8.15c-1.78-.78.69-3.65-2.62-4.34-2.66-.55-2-4.07-1.78-6.55a2.17,2.17,0,0,1,1-1.14C6.77,89,8.58,89.19,10.26,89l.39.49a2.06,2.06,0,0,1-.2,1.7c1.66,1.32,3.51.23,5.26.43,6.88.27,13.69,1.57,20.6,1,5.19,0,10.39-.58,15.53.5,1.23.76,3.18,1.06,2.13,3.29-1.93,1.36-4.15,1-6.29,1-9.16.14-18.33-.19-27.47.19a6.75,6.75,0,0,0-2,1.07C15.64,100.56,13.87,104.35,9.63,102.18Z"/><path class="cls-85" d="M8.14,69.88c.32-.71.64-1.41,1-2.11,1.29,1.14,2.43,2.44,3.72,3.6A4.86,4.86,0,0,1,13,74.79c-1.83,2.43-1.4,5.65-2.85,8.21L6.27,81C5.76,77.1,8.87,73.81,8.14,69.88Z"/><path class="cls-86" d="M10.16,83c-.65-3-.65-5.87,1.88-8.15,1.08-.65,2.06-1.76,3.51-.79,1.9,3.59-.45,7.06-.3,10.6A3.45,3.45,0,0,1,14.51,86c-.55.37-.91.24-1.1-.4Z"/><path class="cls-22" d="M13.41,85.63a7.32,7.32,0,0,0,.86.49c1.39.45,2.57,1,2,2.87-2,1.69-4,1.46-6.09.16l.11-.19C11.19,87.73,13.57,87.88,13.41,85.63Z"/><path class="cls-87" d="M5.4,90.3a.92.92,0,0,1-.23.69c-.8.5,0,2.54-1.88,2a5.62,5.62,0,0,1-.92-.07C3.65,92.36,1.86,88.24,5.4,90.3Z"/><path class="cls-88" d="M3.29,93l1.88-2c-.37,3.12-.37,6.14,3.27,7.42,3.11,1.1-.66,2.72.39,3.92-1.54.4-3.7,0-3.58,2.63-1.55-1.66,0-4.41-2.1-5.87C5,97.09,2.44,95,3.29,93Z"/><path class="cls-89" d="M102.25,10c0,1.35,0,2.69-.07,4-2.6-.38-1.43-2-1.16-3.17-1.3,1.77-1.3,5-4.49,5.14-1,.05-1.2-1.41-1.26-2.44.83-3.39.93-6.46-3.32-7.64a2.58,2.58,0,0,1-.94-1c2.28-3.82,5.41.58,7.94-.81L103.22,4a3.51,3.51,0,0,1,.12.79c-2.27.78-.75,2.18-.55,3.36A1.83,1.83,0,0,1,102.25,10Z"/><path class="cls-90" d="M102,8.16c-1.58-1.9-2.1-3.39,1.3-3.36a3.15,3.15,0,0,0,.84.26c.06.28.11.56.16.85A4.36,4.36,0,0,1,103,7.7,1.78,1.78,0,0,1,102,8.16Z"/><path class="cls-91" d="M86.34,16l.91.94c1,1,2.7.92,3.41,2.32a2.2,2.2,0,0,1-.36,2.11,4.57,4.57,0,0,1-2.12.85c-14.11,1-26.7,6.17-38.26,14.15-2.21,1.52-4,4.25-7.42,3.13a1.77,1.77,0,0,1-.76-1.31c-.74-1.64-.08-3,.82-4.35A79.27,79.27,0,0,1,64,20.32a27.79,27.79,0,0,1,4.17-.71c.84.11.34-1,.3-.34a.26.26,0,0,0-.2,0c-1,.4-1.89.47-2.27-.84,2.72-3,6.48-2.61,10-3.09,2.16.27,4.12,1.84,6.46,1,.66-.08-.11-1.09.08-.45.09.28,0,.43-.21.44-1.19.06-2.54.75-3.29-.86C81.67,12.77,84.07,13.42,86.34,16Z"/><path class="cls-92" d="M76.28,16.06c-3.21,1.45-7,.9-10,2.92-.41,1.44-1.82,1.37-2.84,1.9C59.59,22,56.48,25.07,52.23,25c.33-1.37.65-2.74,1-4.11l6-4.19c1.13-1.47,1.88-2.92,4.5-1.81a5.55,5.55,0,0,0,6.72-1.66c2.66,0,5.36.17,7.82-1.1,4.4-2.25,6.82-.47,8.06,3.84-2.41-1-4.82-1.81-7.26-.1C78.21,16.82,77.25,16.58,76.28,16.06Z"/><path class="cls-93" d="M90.22,19c-1.45-.07-3,0-3-2.13,1.27-1.07,1-2.37.41-3.59-2-4.08-1-6.91,3.35-8.4l1.41.23a2.44,2.44,0,0,1,.29,2.13,18.61,18.61,0,0,1-.86,2.08C90.88,12.49,92.71,16.13,90.22,19Z"/><path class="cls-94" d="M57.24,169l-4-2c.35-1.35-1.87-2.78.14-4.08,1.61-1.31,3-.4,4.51.35a70.24,70.24,0,0,0,17.5,6.23c2.62.37,5.17,1.06,7.77,1.56a3.78,3.78,0,0,1,1.21.71,2.51,2.51,0,0,1,.29,1.34A4.19,4.19,0,0,1,83.14,176c-7-.33-13.45-2.67-19.92-5C61.3,170.09,59.55,168.71,57.24,169Z"/><path class="cls-95" d="M75.33,170.84c-7.79-1.36-14.68-5.18-21.95-8L44.21,156c-1-1-4.43-1.21-1.12-3.56,2.36-.06,4,1.54,5.73,2.69,8.79,5.74,17.84,10.8,28.46,12.33,1.58.23,3.9-.13,4.06,2.58C79.48,171.47,77.22,169.66,75.33,170.84Z"/><path class="cls-96" d="M43.31,152.93c-2.18,1.76.86,2,.9,3.11-1.58-.25-1.93,1.36-3,2-.09-1.06.24-2.27-1-2.95.34-1.51,2.35-3.43-1-4.05.26-2.89,1.59-4.61,4.74-4.34a1.76,1.76,0,0,1,.65,1.31C44.53,149.71,44.69,151.54,43.31,152.93Z"/><path class="cls-97" d="M17.25,98l1-1c1.66-.82,3.36-.52,5.06-.21a5,5,0,0,1,1.29,4.11c-.28,5.52,1.44,10.74,2.31,16.07a66.64,66.64,0,0,0,11.63,21.77c.56.68,1.21,1.28,1.77,2,.53,2.09-1.22,2.45-2.44,3.21l-.64.07-1.92.14a3.1,3.1,0,0,1-.77-1.19c-.79-2.42-2.42-4.34-3.84-6.36-6.94-9.9-9.76-21.08-10.38-31.62,1.07,3.64.2,8.92,2.24,13.76a4.23,4.23,0,0,1-.08,4.28,1.45,1.45,0,0,1-1.46.16c-2.75-4.65-3.55-10-5.22-15C14.71,104.53,14.76,101.08,17.25,98Z"/><path class="cls-98" d="M44,146.89c-2.35.47-3.05,2.81-4.66,4.11-.53,1-1.14,2-1.59,3a4.43,4.43,0,0,1-5.16,2.75,3.75,3.75,0,0,1-3.32-3.69c-.15-2.35-.22-4.75,3-5.16,2.5.1.29,2.38,1.4,3.22,2.28-1.7,4-3.85,6-5.73,2.4-2,3.89-5,6.86-6.36,1.81-.91,3-2.72,4.86-3.5,1-.2,1.82,0,2.19,1.05a4.89,4.89,0,0,1-1.69,2.84c-1.38,1.37-2.79,2.71-4.09,4.16C46.45,144.67,46,146.74,44,146.89Z"/><path class="cls-99" d="M40.24,146A41.08,41.08,0,0,1,37,149.65c-1.55,1.39-2.9,4.45-4.79,3.71-2.83-1.1,1.7-3.5.06-5.43.27-3.07,4.53-1.14,5-4v0C39,143.52,39.57,144.79,40.24,146Z"/><path class="cls-100" d="M35.23,143c0,.37,0,.74.07,1.11-1.88,1.25-4.41,1.19-6,3-2.19-2.84,1.25-2.19,2-3.22a3.79,3.79,0,0,1,2.12-1.51A1.76,1.76,0,0,1,35.23,143Z"/><path class="cls-101" d="M83.14,176c.14-1.08-.16-2.35,1.23-2.89A3.61,3.61,0,0,1,85.2,176a3.51,3.51,0,0,1-.88,2.86c-.86-.33-1-1.1-1.17-1.87A3.5,3.5,0,0,0,83.14,176Z"/><path class="cls-102" d="M84.32,178.86,84.24,176a1.33,1.33,0,0,1,2,0c-.28,1.66.75,3.57-.94,5C85,180.24,84.64,179.55,84.32,178.86Z"/><path class="cls-103" d="M60.1,174.48c-1-.07-1.5-.42-1.61-1.12a1,1,0,0,1,1-1.31c.66-.05,1.42.09,1.33.94A4.34,4.34,0,0,1,60.1,174.48Z"/><path class="cls-104" d="M123.2,166.92a6.11,6.11,0,0,0-4,2l-9,2c-1.55-1.15-3.49.12-5.08-.83a1.37,1.37,0,0,1,.13-1.44c4.43-2.35,9.56-2.41,14.16-4.42,6.4-2.8,12.62-5.79,18.26-9.94,1.87-1.37,3.76-2.84,6.34-1.78a2.05,2.05,0,0,1,.75,2.05c-.54,1.88-2.42,1.59-3.68,2.3l-1.07,1a1.06,1.06,0,0,1-1,.86l-4,2.14c0,1.64-1.21,2.33-2.46,3a16.82,16.82,0,0,0-4.11,2c-1,.54-2,1.15-3.11.29A2,2,0,0,0,123.2,166.92Z"/><path class="cls-105" d="M114.26,175c0-1.69-.13-3.59,2.21-3.57a2,2,0,0,1,1.71,2.57c-.57,2.85-2.7.27-3.93,1Z"/><path class="cls-106" d="M100,172l1.14,2.93c-1.35,1.17-2.64.85-3.9-.17a3.88,3.88,0,0,1-.77-1.22c-.3-1.74-.52-3.46,1.77-4.09a2.28,2.28,0,0,1,1.31.52A2.45,2.45,0,0,1,100,172Z"/><path class="cls-107" d="M97.12,174a7.36,7.36,0,0,0,4.06.89c0,.35,0,.7.07,1l-1,1a3.52,3.52,0,0,1-1.14,3l-1.06.73c-.79-.3-.68-1-.77-1.64A5.28,5.28,0,0,1,97.12,174Z"/><path class="cls-108" d="M100,172c-.28-.67-.56-1.34-.83-2,1.66-2.64,3.73-2.72,6.08-.94a8.1,8.1,0,0,1-.13.86,2.32,2.32,0,0,1-1.64,1,3.23,3.23,0,0,0-2.33,1.05Z"/><path class="cls-109" d="M109.18,174.91c-1.53,0-3.27.61-4.42-1.42,2.1-1.05,3.43-.41,4.4,1.43Z"/><path class="cls-110" d="M103.3,170.05l1.86-.15c1.67.43,3.64-.65,5,1l-3.88.11C105.15,171.24,103.62,172.47,103.3,170.05Z"/><path class="cls-111" d="M103.3,170.05c.74,1.15,2,.81,3,1-1.52,1.38-3.37.9-5.14.91A1.72,1.72,0,0,1,103.3,170.05Z"/><path class="cls-112" d="M99.1,179.91c.24-1,0-2.26,1.14-3,1.24.23,2.53.43,1,2Z"/><path class="cls-113" d="M141.09,156.88l3.08-2.21c2.39,1.05,2.78,3.53,3.92,5.47l.18.79a6,6,0,0,0-3,3.06c-3-.59-2.2-2.82-1.65-4.49C144.49,156.72,142.59,157.1,141.09,156.88Z"/><path class="cls-114" d="M132.24,162.93l2.78-2.1c3.37.68,1.72,3.62,2.65,5.54-1.94.6-3-1-4.48-1.34C132.32,164.58,131.62,164.05,132.24,162.93Z"/><path class="cls-115" d="M132.24,162.93l.95,2.1,0,1-2,.81c-1-.68-2.49-.7-3.11-2A6.91,6.91,0,0,1,132.24,162.93Z"/><path class="cls-116" d="M139.06,158.69l1-.86c1.32.58,2.19,1.38,1.23,2.89-.22.35-.77.83-1,.76C138.74,161.06,139.41,159.65,139.06,158.69Z"/><path class="cls-117" d="M128,164.86c1.35.19,3-.16,3.11,2-2.12,1.12-4.62,5.11-5.79-.79Z"/><path class="cls-118" d="M124.24,174c0-1.4.37-2.55,2-2.85C126.35,172.6,126.28,174,124.24,174Z"/><path class="cls-119" d="M154.26,156c-3.09,1.49-5.38,1.17-6.16-2.68-.19-.95-.95-1.24-1.77-1.44a4.09,4.09,0,0,1-2.67-1.57,4.63,4.63,0,0,1-1.08-1.67,4.28,4.28,0,0,1-.11-1.38,2.36,2.36,0,0,1,1.81-2,3.83,3.83,0,0,1,3.66,1.78,26.29,26.29,0,0,0,5.68,5.71C154.28,153.76,154.91,154.75,154.26,156Z"/><path class="cls-120" d="M144.28,149.83l2.05,2c-.09,1.81-.43,3.74,1.51,4.89,1.75,1.05.8,2.21.25,3.38-3.05-.57-2.09-4-3.92-5.47V153.2a4.29,4.29,0,0,1-.68-1.35A2.2,2.2,0,0,1,144.28,149.83Z"/><path class="cls-121" d="M154.26,156l-1.09-2.9c-.28-1.84-2.94-3.57-.29-5.57a4,4,0,0,1,3.43,1,3.53,3.53,0,0,1,.78,1.3c.48,2.37.58,4.63-1.84,6.13Z"/><path class="cls-122" d="M155.25,156c1.43-2.18.91-4.61.91-7,3.42.51,1.51,3.27,2.09,5l-2.05,2.94Z"/><path class="cls-123" d="M155.15,45a2.24,2.24,0,0,0,2,1c2.54,1.24,3.56,3.76,5,5.93,3.06,5,6.14,9.88,6.07,16a6.32,6.32,0,0,0,2,5c2.65,3.68,2.76,7.76,1.89,12A2.44,2.44,0,0,1,171,86.21c-2.64-.3-2.79-2.43-3.13-4.35A67.89,67.89,0,0,0,164.66,69a20.8,20.8,0,0,0-1.24-2.56,9,9,0,0,1-1.26-3.16,8.48,8.48,0,0,0-1.66-4.19c-1.72-4.49-5.08-7.92-7.62-11.88C153.21,46,153.47,44.76,155.15,45Z"/><path class="cls-124" d="M168.22,68c-1.35-5.77-4.55-10.72-7-16,2-1,3.78-1.25,4.76,1.25.61,1.57,2.24,1.78,3.29,2.74a3,3,0,0,1,2,2.95,15.92,15.92,0,0,0,.89,3l2.11.06c-.11,4.91-.11,4.91-3.79,3C168.72,64,168.67,64.06,168.22,68Z"/><path class="cls-125" d="M171.18,85.92c.36-4.35-.45-8.61-1-12.89.82-1.55-2-4.28.38-4.58,2.65-.34,2.53,2.77,2.65,4.88.07,1.29-.29,2.7,1,3.66,1.71,2.56,3.24,5.27,6,6.94l1,.07,1,1c0,.42-.1.83-.14,1.24C178.39,86.74,174.8,85.83,171.18,85.92Z"/><path class="cls-126" d="M180.18,83.93c-4.3-.32-6-2.91-6-6.94.18-1.36-.39-3.34,1.85-3.31,1.68,0,2.52,1.54,2.86,3C179.47,79.08,179.78,81.52,180.18,83.93Z"/><path class="cls-127" d="M155.15,45l-1.5,2a4.29,4.29,0,0,1-4-2.72,3.54,3.54,0,0,1,0-1.45c.66-1.85,2.64-1.85,3.94-2.82.86-.44,1.73-.84,2.61,0,.91.41,1,1.23,1.12,2.08l-2,1.93C155.24,44.32,155.2,44.68,155.15,45Z"/><path class="cls-128" d="M169.23,56c-1.43-1.12-5.5,1.37-4.39-3.21L161.18,52l-4-6C163.61,46.42,166.66,50.9,169.23,56Z"/><path class="cls-129" d="M172.1,61.89c-1.3-.68-2.42-1.41-.89-3C172.8,59.53,173,60.54,172.1,61.89Z"/><path class="cls-130" d="M156.15,40l-1.93,1c-1.75.91-2.44.21-2.42-1.58,1.07-1.55,2.35-2.73,4.45-2.39l1.24.09C157,38.05,156.59,39,156.15,40Z"/><path class="cls-131" d="M143.09,32.9l.12,4a1.31,1.31,0,0,1,.36,1.3c-1.93,2.21-2.51,5.92-6.49,5.87.26-5-3.87-6.29-7.09-8.3A19.42,19.42,0,0,0,123.13,33c-8-4.8-17.24-5.43-26-7.74a2.25,2.25,0,0,1-.3-2.14c1.61-1.78,3.62-1.24,5.55-.89,6,1.07,12.27.87,17.74,4.18.16.1-.31-.77-.13-1.23,2.08-2.07,4-.45,5.87.31,5.35,2.16,9.74,6.2,15.33,7.88a7.41,7.41,0,0,1,1.16-.35A2.62,2.62,0,0,0,143.09,32.9Z"/><path class="cls-132" d="M127,13.88c.6,4.09,3.22,6.13,7,7.24s4.12,5.27,6.18,7.92c-.4.32-.93.68-1.35.47-6.5-3.27-12.68-7.18-19.36-10.13-.42-.18-.39-.86-.28-1.36l7-3.14C126,14.16,126.31,13.88,127,13.88Z"/><path class="cls-133" d="M119.2,18a201.5,201.5,0,0,1,21,11c.8,1.3,2.17,2.28,2.18,4a2.34,2.34,0,0,0-.19.86c-2.31.57-3.59-1.31-5.18-2.31a112.19,112.19,0,0,0-18.34-9.66c-1.59-.62-3.69-.81-3.84-3.23.52-1.28,1.39-1.4,2.49-.76Z"/><path class="cls-134" d="M109.21,7c4.19,1.32,9.62.4,11.62,6.88-3.43-1.06-6.7-.14-9.61-1.89C111.15,10.11,108.16,9.38,109.21,7Z"/><path class="cls-135" d="M96.19,13c.08.65,0,1.45.29,1.92.64.9,1.26.06,1.41-.44a6.48,6.48,0,0,1,2.67-3.55c1.32.59.16,2.58,1.63,3.1l0,0c1.5,1.15,3.49-.21,5,1,1.13.06,2.31-.07,3.19.88q-.23.27-.45.57c-2,1.15-4.23.57-6.29,1.19-3.24-.69-5.37,2.11-8.23,2.66a2.27,2.27,0,0,1-1-1.12C94.12,16.85,92.87,14.25,96.19,13Z"/><path class="cls-90" d="M109.21,7c.13,1.89,3.12,2.61,2,5a22.8,22.8,0,0,1-9-2L102,8.16l.31-.25c1.15-.31,2.57-.19,2.85-1.83Z"/><path class="cls-136" d="M117.31,17.94A2.35,2.35,0,0,0,115.22,19c-2.72,1.64-5,.65-7.12-1.2-.31-1.72,1.5-1,2-1.72l.28-.2C112.54,17.09,115.28,16.34,117.31,17.94Z"/><path class="cls-137" d="M105.2,6.08c0,1.16,2.61,1.87,1,3.1-1.27,1-2.56-.68-3.8-1.27-.13-1.46.8-1.85,2-2A4.19,4.19,0,0,1,105.2,6.08Z"/><path class="cls-138" d="M127,13.88l-.84,1c-1,0-2,0-1.93-1.36a1.35,1.35,0,0,1,.68-1.06C126.07,12.14,126.55,13,127,13.88Z"/><path class="cls-89" d="M107.2,15c-1.68-.21-3.55.56-5-1C103.91,14.21,105.8,13.34,107.2,15Z"/><path class="cls-139" d="M143.16,38c0-.35,0-.71.05-1.06,3.43-.92,2.51-5.11,5-6.7.29.23.56.48.82.73.69.6,1.39.23,2.1,0,.88-.24,1.78-.59,2.47.39,0,5.07-3.42,7.5-7.43,9.44A2.69,2.69,0,0,1,143.16,38Z"/><path class="cls-140" d="M148.35,31.14l-.09-.95c2.66-1.92,5-1.23,7.28.81h-.66a1,1,0,0,1-1.58,0l-2.11,1C150.4,31.16,149.13,32,148.35,31.14Z"/><path class="cls-141" d="M17.25,98c-1.32,3.33-.92,6.68-.1,10-1,1.77-.13,3.43.4,5.07.47,1.42.91,2.75-.35,4-3-4.74-7.59-8.64-7.58-14.9C13.1,102.48,15.05,100,17.25,98Z"/><path class="cls-142" d="M17.2,117.08c.37-3-2.51-6-.05-9q2.12,7.34,4.24,14.69a1.59,1.59,0,0,1-.47,2.45c-.87.22-1.19-.59-1.76-1Q18.17,120.65,17.2,117.08Z"/><path class="cls-143" d="M19.16,124.22l1,.79a7.86,7.86,0,0,1,3.07,7c-.14,1.37-.41,2.5-2,1.06a1.88,1.88,0,0,0-2-2.1C18.25,128.7,19,126.46,19.16,124.22Z"/><path class="cls-144" d="M14.25,126.07c-.94-.74-2.43-.7-2.93-2.06C12.46,124.46,15.24,122.57,14.25,126.07Z"/><path class="cls-145" d="M23.25,132c-1.61-2.07-2.18-4.59-3.07-7,1-.47,1.05-1.39,1.21-2.29a2.49,2.49,0,0,0,.85.27c4.08,6.46,8.62,12.66,11.22,20-.45.91-1.3.93-2.14,1C27.85,140.47,26,135.89,23.25,132Z"/><path class="cls-146" d="M168.2,119c-2.11,6.75-6,12.63-9,19-.92,1.17-1.14,2.76-2.08,3.86-1.34,1.55-2.94,3.06-4.44.05a6.44,6.44,0,0,1,1.62-4.09,75.85,75.85,0,0,0,13.57-32.84c.33-1.94-.13-4.74,3.38-4.2a8.41,8.41,0,0,1,1.08,6,9.26,9.26,0,0,1-.31,1.46c-.61,1.61-.51,3.34-.86,5C170.39,115.21,169.91,117.4,168.2,119Z"/><path class="cls-147" d="M165.22,143l-6,3a1.64,1.64,0,0,1-1.33-1.33c.08-2.17,2.16-1.85,3.32-2.68-.37-2.92,2.29-4.53,3-7l1,0a6,6,0,0,1,3,3Z"/><path class="cls-148" d="M175.19,109c1.36,4.29,2.68.73,4,0,.15,3.11-.08,6-3.15,7.91-.84.51-.73.7.17,4.1a8.89,8.89,0,0,0-5,1c-1.2-1.61-.19-3.11.21-4.64.62-1.83,2.29-3.27,2-5.45a6.77,6.77,0,0,1,0-1.35C173.68,109.6,173.89,108.65,175.19,109Z"/><path class="cls-149" d="M174.2,111c0,.33,0,.65,0,1,.26,2-1.82,3.14-2,5l-1.08,5c-2.37.38-3.07-.9-3-3s1.19-4,2-6c1.27-1.49-.15-3.51,1-5h0C173.9,107.3,173.29,109.9,174.2,111Z"/><path class="cls-59" d="M161.21,142l-3,3c.74,1.08.46,1.82-.74,2.26-1.73-1.29-3.83-1.95-5.57-3.24-.23-1-.33-2,1.22-2,4.21,1.9,3.44-3.57,6-4.06C159,139.69,157.92,141.93,161.21,142Z"/><path class="cls-150" d="M168.21,138c-1.3-.7-3-1-3-3,.9-1.6,2.24-2.79,3.86-1.3S168.55,136.51,168.21,138Z"/><path class="cls-151" d="M157.22,147a2,2,0,0,0,1-2c.32.34.65.67,1,1a8.39,8.39,0,0,1,1,5l-2,3.05c-2-1.13-.07-3.88-2.09-5h0a1.7,1.7,0,0,1-.22-2A1,1,0,0,1,157.22,147Z"/><path class="cls-152" d="M88.15,179c-1.43-1.4-.6-2.69.19-4,.41-.84.89-1.54,2-1,1.1,1.08.83,2.67,1.46,3.92a4.16,4.16,0,0,0,1.59,1.47,4.89,4.89,0,0,1,1.7,1.46C91.86,183.56,90.23,180.47,88.15,179Z"/><path class="cls-153" d="M95.08,180.9a1.84,1.84,0,0,1-1.87-1c0-.28-.11-.56-.16-.83a45.6,45.6,0,0,1-.08-8.26c.11-1.61-.31-3.81,2.39-4,1.63,1.7.66,3.8.87,5.72-.44,2.17,1.52,4.3.12,6.5Z"/><path class="cls-152" d="M96.35,179.11q-.52-3.12-1.06-6.24a.87.87,0,0,1,.95-.25,4,4,0,0,1,.82,1.37l.06,0c.19,1.65,1.65,3.26.15,5A4.81,4.81,0,0,0,96.35,179.11Z"/><path class="cls-154" d="M179.22,92c1.9,1.72.67,4,1,5.92l-9-.87a3.37,3.37,0,0,1-1.92,1,14.91,14.91,0,0,1-2.91.14,10.27,10.27,0,0,1-2.86-.43,14.36,14.36,0,0,1-2.65-1.2c-1-.74-2.28-1.29-1.59-2.92,2.45-2.63,5.65-2,8.72-2C171.72,91.57,175.45,92.24,179.22,92Z"/><path class="cls-155" d="M174.2,111c-1.22-.8-1.42-2.6-3-3q0-3.55,0-7.12a.79.79,0,0,1,0-1,.88.88,0,0,1,1,.23c1.78,2.72,4,5.31,3,9A2.14,2.14,0,0,0,174.2,111Z"/><path class="cls-156" d="M172.23,100l-1.09-.12c-2.28.13-2.8-1-2-2.92l2.06,0C171.14,98.16,173.39,98.48,172.23,100Z"/><path class="cls-157" d="M171.18,85.92a10.35,10.35,0,0,1,10.85.34,4.7,4.7,0,0,0,.18.74c-.28,2.69-2.28,1.87-3.86,1.9l-.14-.05c-2.27-.12-4.6-.72-6.59,1-1.11.58-2.23,1-3.45.29-.76-2.68.89-3.57,3-4.11Z"/><path class="cls-158" d="M168.37,89.86l2.91-1,.52.29c.62.5.89,1.29,1.46,1.84,2,.4,4.22-.73,6,1-3.85,2.2-8,.57-12,1-1.6-1-1.61-2.13-.14-3.3A1.31,1.31,0,0,1,168.37,89.86Z"/><path class="cls-159" d="M171.28,88.82c2.32-1.24,4.63-1.56,6.93,0-1.28,1-2.6.73-4,.19a2.56,2.56,0,0,1-3,.15Z"/><path class="cls-160" d="M171.28,89.19l3-.15-1,1.91C172.06,91,171.3,90.5,171.28,89.19Z"/><path class="cls-161" d="M153.3,31l1.59,0a1.78,1.78,0,0,1,.37.91c.61,1.29-.63,3,.82,4.06.06.35.11.69.17,1-1.08,1.06-2.14,2.13-3.81,2.12a34.58,34.58,0,0,0-3.66,4.34c-1.33,1.38-2.72,2.7-4.05,4.1s-2.78,2.75-4.13,4.17c-2.25,2.23-4.47,4.47-6.7,6.72-1.78,1.69-3.5,3.43-5.2,5.2-2.32,2.18-4.38,4.65-7,6.48A70.25,70.25,0,0,0,111.89,80c-1.12,1.36-2.48,3.3-4.44,1.47s-.28-3.32.9-4.72c1-1.13,2.05-2.16,3.11-3.22,4.14-4,8.13-8.06,12.16-12.13s8.06-8,12-12c3.23-3.45,5.57-7.9,10.53-9.4C149.23,37.52,152.52,35.26,153.3,31Z"/><path class="cls-162" d="M156.08,36c-3.3-.74-1.21-2.57-.82-4.06C157,33,156.33,34.5,156.08,36Z"/><path class="cls-163" d="M86.21,176h-2c.05-.95.09-1.9.13-2.84V173c.6-1.13.63-2.54,1.62-3.5,1.25-1.1,2.43-1.1,3.54.21a3,3,0,0,1-1.4,4.15A2,2,0,0,0,86.21,176Z"/><path class="cls-164" d="M88.14,173.89,89.31,171c1.93,0,1.64,1.25,1.37,2.48-.16.18-.33.35-.5.52l-1.84,1C88.27,174.64,88.2,174.27,88.14,173.89Z"/><path class="cls-165" d="M37.26,46c.44-.92,1.32-1,2.17-1.12l4,4a4.09,4.09,0,0,1-.81,1.2C34.78,58,30.27,67.65,27.46,78.24c-.47,1.76-.92,3.53-1.31,5.32-2,3.69,1.78,3.7,3.26,5.18l.18.73a1.59,1.59,0,0,1-.89,1.19,9.6,9.6,0,0,1-4,.66c-2,0-4.05.2-5.77-1.19-1.79-4.29-1.72-8.39,1.3-12.16,2.84,0,1.37,2.22,1.33,3.24-.07,1.87-1,3.67-.89,5.62,0,.66,1-.29.43,0-.21.11-.31,0-.28-.41,1-12.7,6-23.85,13.22-34.17C35.38,50.33,37.66,48.85,37.26,46Z"/><path class="cls-166" d="M52.22,58a15.88,15.88,0,0,1,5.05,4.94l-.46.45a2.45,2.45,0,0,1-1.88,0c-.57-.28-1.12-.61-1.71-.86-1.87-.23-2.56,1.29-3.38,2.41A48.05,48.05,0,0,0,42,82.26c-.38,1.55-1,3.25.89,4.36,2.28,1.11,4.7,1.06,7.13,1q6.57-.06,13.12,0l2.35,0c.51,0,1-.06,1.53-.09,1.57.42,3.31-2.2,4.79.23a2.58,2.58,0,0,1-.93,2.29,6.46,6.46,0,0,1-4.17,1.33c-8.59,0-17.18.52-25.76-.27-2.2-.84-4.73-.47-6.8-1.82-1.26-1.86-1.43-3.66.25-5.38,2,0,1.59,1.1,1.49,1.35C38,75.46,41.49,65.21,50.07,57.54A2.25,2.25,0,0,1,52.22,58Z"/><path class="cls-167" d="M29.24,89c-2.55-.71-7.5.51-4-5,2.55-3.29,2.27-7.51,3.62-11.22C32,64.07,37.3,56.69,42.21,49l1.21-.13L47.28,53a3.42,3.42,0,0,1-1,1.05c-5.69,4.82-8.75,11.36-11.61,18-1,2.25-1.58,4.66-2.64,6.89C30.92,82.21,31.55,86,29.24,89Z"/><path class="cls-168" d="M29.24,89a30,30,0,0,1,2-11c1.63,1.24.25,3,.52,4,2-10.82,7.17-20.4,14.42-29l1.1-.1c1.87,1.46,3.78,2.88,4.94,5l-2,0c-2.22,0-3,1.86-4,3.24a53.66,53.66,0,0,0-8.82,18c-.46,1.74-.64,3.56-2.18,4.79-1.66,1.39-.76,3.3-1,5-.63,1.19-1.28-2.3-2.17.06-.38,1-1.89.86-2.85,0Z"/><path class="cls-169" d="M64.23,89l-15,0a2.3,2.3,0,0,1-.68-1.35c.5-2.09-.45-4.82,2.56-5.79,1.4,1.08.37,2.54.59,3.81.55-5.06,2.9-9.42,5.27-13.77.88-1.62,2-3.08,4-3.43a3.15,3.15,0,0,1,2.41,1.46c-.31,3.64-3.34,6-4.44,9.28-.57,1.71-1.7,3.23-1.78,4.94,1.56-4.73,4.72-8.86,6.62-13.61l.45-.53L68.2,74l-.32.63c-2.66,2.42-4.09,5.61-5.5,8.81-.56,1.26-1.05,2.54.59,3.43C63.67,87.42,64.64,87.78,64.23,89Z"/><path class="cls-170" d="M42.23,38c0,.32.07.64.11,1,1.2.9,2.93.75,3.95,2,.33.28.64.58.94.89,1.47,1.58,3,3.08,4.57,4.59,1.37,1.44,2.83,2.79,4.17,4.26,1.57,2.85,4.36,4.48,6.63,6.62a3.49,3.49,0,0,1,1,2.37c-.65,1-.53,2.34-1.33,3.29l-22-21.94c.33-1,.65-2,1-3A.62.62,0,0,1,42.23,38Z"/><path class="cls-171" d="M62.23,63c.47-.94-1.71-2.71.93-3a3.78,3.78,0,0,1,2.61.65c4.93,4.71,10.16,9.13,14.12,14.76a4.12,4.12,0,0,1,.83,2.64c-.89,2-1.75.67-2.62,0C72.92,72.92,66.82,68.76,62.23,63Z"/><path class="cls-172" d="M63.28,70.08,61.21,69c-2.64-.69-3.14,1.53-4.29,3-2.38,3.06-2.56,7.36-5.68,10-1.81,1.62-.46,4.29-2,6a1.82,1.82,0,0,1-2.18.15,3.87,3.87,0,0,1-.65-3.78c2.11-7.22,4.88-14.1,10.35-19.55,1.48-.53,2.39.6,3.49,1.18a10.41,10.41,0,0,1,4,4l-.22.34C63.7,70.53,63.45,70.44,63.28,70.08Z"/><path class="cls-173" d="M64.23,89a2,2,0,0,0-2-1C61.58,82.34,66,78.82,68,74.3L68.2,74,73,78.13c3,3.77.27,6.23-2,8.81-1.24.74-2.09,2.23-3.83,2-.41-3,1.86-5.17,2.57-8.08C67,83,67.07,86.2,66.23,89Z"/><path class="cls-174" d="M71.06,86.94c.27-3,3.68-5.34,2-8.81,1.07.12,1.47,1.06,2.16,1.68,2.79,2.53,3.07.71,2.9-1.76.71,0,1.47,1.06,2.15-.06,1.06-.5,1.69.1,2.26.87a1.91,1.91,0,0,1-.11,1.31,7.43,7.43,0,0,1-1.57,1.22c-2,1.52-2.27,5.1-5.76,4.85-.42-.25-.66-.9-1-1-.54-.13-.15.52-.29.8-.64,1.29-.34,3.48-2.87,2.88Z"/><path class="cls-175" d="M60.25,66l-3-1a1.25,1.25,0,0,1-.2-1.66l.23-.39Z"/><path class="cls-176" d="M37.26,46c3.54.85.94,2.39.25,3.4-3.6,5.33-7.33,10.51-9.88,16.53a88.72,88.72,0,0,0-6.72,22.53c-1.81-4,.79-7.17.28-10.52-1.67-2-.69-3.91.07-5.86.95-1.72,1.57-3.64,2.95-5.12A86.41,86.41,0,0,1,37.26,46Z"/><path class="cls-177" d="M22.25,72c-.35,2-.71,4-1.06,6-2.7,3.64-1.87,7.83-1.87,11.89-1.95.9-2.39-.68-3.06-1.87l-2-1.86.16-.4c1.55-2.55.33-5.69,1.79-8.26.09-3.45.7-6.75,2.95-9.53,1.35.75,2.14-.36,3.1-.93h1C24.25,68.92,22.61,70.33,22.25,72Z"/><path class="cls-178" d="M22.26,67c-.53.74-.53,1.94-1.7,2.07-.12,0-.34-.85-.5-1.31-.52-5,2.53-8.71,4.65-12.75,1.44-2.5,2.68-5.13,4.6-7.33l0-.24c2-.39,1.33-3.86,4-3.44,3.42,1,.95,2.24.13,3.33C28.84,53.41,24.73,59.74,22.26,67Z"/><path class="cls-179" d="M33.27,44c-1.63.81-1.2,4-4,3.43-.36-2,1.17-3,2.15-4.23C32.2,43.07,32.91,43.13,33.27,44Z"/><path class="cls-178" d="M22.25,72l1-5h1A5.81,5.81,0,0,1,22.25,72Z"/><path class="cls-180" d="M42.23,38l-1,0c-1.59-.66-1.67-1.79-1-3.15l2.16-2.85c.29,0,.58-.05.88-.06a1.37,1.37,0,0,1,0,2A6.59,6.59,0,0,0,42.23,38Z"/><path class="cls-181" d="M43.29,34l0-2c2.32-3.2,6.36-4.2,9-7l11-4.95c.3.36,1,.37,1,1C57.14,25.14,49.78,28.87,43.29,34Z"/><path class="cls-182" d="M29.31,47.68c-.17,3.1-2.35,5.12-4,7.43-.65-.1-.77-.72-1.11-1.14.29-.67.58-1.35.86-2C26.17,50.21,26.89,48.1,29.31,47.68Z"/><path class="cls-183" d="M24.22,54l1.11,1.14c-1.67,4.25-4.23,8.14-5.27,12.65a33.43,33.43,0,0,0-3,10.12c-2.58-.74-.55-3.16-1.63-4.44a5.36,5.36,0,0,1-.3-2.35c.2-1.37.62-2.6,2.18-3C19.89,63.52,20.79,58.13,24.22,54Z"/><path class="cls-184" d="M13.47,54.06c1.81-1.1,3.23-4.35,5.82-1A5.66,5.66,0,0,1,19,55c-.82,1.43-1,4-3.32,3.45C13.7,58,13,56.1,13.47,54.06Z"/><path class="cls-185" d="M9.41,63l1.78-2.11c2.11-2.62,3.07-.56,4.14,1,.5,1.1.73,2.17-.24,3.15-2-.35-3.48,2.89-5.77.92Z"/><path class="cls-186" d="M14.33,65.05c1.07-.8.89-2,1-3.1a11.65,11.65,0,0,1,2,6.15L16.22,71c-1.46.62-2.53,0-3.45-1.1A3.72,3.72,0,0,1,14.33,65.05Z"/><path class="cls-187" d="M14.33,65.05,13.2,70a1.74,1.74,0,0,1-.95,1c-3.56,1.38-2.68-1.58-3.14-3.22L9.32,66a3.37,3.37,0,0,0,3.31-1.66C13.65,62.89,14.12,63.92,14.33,65.05Z"/><path class="cls-188" d="M70.93,89c2-1.13,1.54-3.53,2.68-5.13,1.07.36,1.19,1.46,1.69,2.28,1.31,1.8.31,4.22,1.62,6,.54,3-.52,6.14.2,9.18.47,1,1.28,1.83,1.44,3a4.22,4.22,0,0,1-4.23,3,3,3,0,0,1-.93-1c-.89-2-1.4-4.22-2.75-6a5.05,5.05,0,0,1-.76-2.53c0-1.06,1.59-1.19,1.37-2.34-6.35-.57-12.8,1.11-19-1.29l-16.06-.18a3.84,3.84,0,0,1-.79-1.37,2.7,2.7,0,0,1,.94-2.86c1.31-.13,2.62-.44,3.87.27,8.86.1,17.72.17,26.58.3A6.14,6.14,0,0,0,70.93,89Z"/><path class="cls-189" d="M36.19,92.9c0,.33,0,.65,0,1-7.38.87-14.64-1-22-.92-1-1.43-3.16-.49-4.1-2,0-.59,0-1.18,0-1.78,2-.52,4.4.91,6.11-1.17l3.06,1.87,5.84.24c1.15,2,3.14,1.44,4.88,1.59C32.14,91.86,34.36,91.34,36.19,92.9Z"/><path class="cls-190" d="M74.18,95.94c-.79,1.76-3,.44-4,1.83a1.77,1.77,0,0,1-1.39.69,64.67,64.67,0,0,0-6.53-.1l-14.18,0c-4.61-.09-9.23.07-13.84.08-3.65-.62-7.58,1-11-1.36l-5-.14c1.48-1.61,3.42-1,5.16-1,10.27-.14,20.54-.18,30.81-.25A48.34,48.34,0,0,1,74.18,95.94Z"/><path class="cls-191" d="M74.18,95.94l-20-.19-1.93-1.69C58.66,94,65,94,71.41,93.67,73.4,93.57,74.17,94.06,74.18,95.94Z"/><path class="cls-192" d="M10.14,90.93c1.55.3,3.75-.69,4.1,2-2.48-.08-5.06.64-7.57-.51C7.49,90.32,9,91.14,10.14,90.93Z"/><path class="cls-193" d="M12.25,71l.95-1,3,1c0,.64,0,1.28,0,1.92-.3.37-.3,1-.91,1.1L12,74.85Z"/><path class="cls-194" d="M15.27,74c.31-.36.61-.73.91-1.09.35,1.65-.6,3.53.9,5-2.13,2.19,1.28,6.26-2.66,7.84C13.43,81.72,15.54,77.94,15.27,74Z"/><path class="cls-195" d="M96.19,13c-1.81,2.19-.64,4.73-.84,7.11,1.63,3.23,1.21,6.76,1.24,10.15.11,12.89.08,25.78,0,38.67-.08,2.18,0,4.4-1.45,6.26-1.19,1.28-2.13,1-2.85-.48a7,7,0,0,1-.41-1.85C92,50.89,91.4,29,92.2,7c.07-.63.15-1.25.22-1.88C97.38,6,98.37,8.72,96.19,13Z"/><path class="cls-196" d="M93.33,74a1.37,1.37,0,0,1,0,.85c-1.88,2.19-4.78,2-7.14,3.08-1.31.38-2.38,1.7-4,1l-2-1c-.35-.67-.7-1.34-1-2l.36-.59c2.37-2.33,6.18-2.14,8.37-4.78a3.31,3.31,0,0,0,.83-2.78c-1.43-6.91.72-13.8.07-20.71.11-5.25-.15-10.5,0-15.74,0-2.07-.13-4.13,0-6.19A6.19,6.19,0,0,1,90.13,21l.09-2c.54-3.65-1.11-7.51,1-11,2.79.72,1.4,3,1.41,4.46.11,18.75.06,37.51.11,56.27C92.75,70.49,92.14,72.38,93.33,74Z"/><path class="cls-197" d="M90.13,21l0,4c-4.48,3.38-10.15,2.44-15.15,4.16A88.29,88.29,0,0,0,52.43,40.47c-1.83,1.29-3.58,3.26-6.19,1.53h0c-1.28-2.64,1.07-3.48,2.45-4.61C59.29,28.71,71.63,24.07,85,22c1.14-.17,2.32-.1,3.19-1Z"/><path class="cls-198" d="M88.23,21c-.22,2.16-1.87,1.81-3.34,2C71,25.1,58.4,30.11,47.82,39.64c-.77.7-1.53,1.24-1.58,2.35l-3.9-3c6-1.65,10.06-6.54,15.52-9.17C67.52,25.15,77.35,21.34,88.23,21Z"/><path class="cls-199" d="M64.25,21l-1-1,3-1.05h3.33A7.16,7.16,0,0,1,64.25,21Z"/><path class="cls-200" d="M76.28,16.06l2.8-.2,4.2.41C80.89,16.75,78.48,17.83,76.28,16.06Z"/><path class="cls-201" d="M93.33,74c-1.84-1.59-1.06-3.73-1.06-5.62-.06-18.42,0-36.84-.07-55.26,0-1.74.66-3.69-1-5.16l1-1c1.82,1.6,1,3.75,1,5.64C93.3,33.11,93.3,53.57,93.33,74Z"/><path class="cls-202" d="M86.32,170a3.82,3.82,0,0,1-1.94,3l-.12-1c.3-2.36-2.47-.69-2.85-2.16a85.05,85.05,0,0,1-38.1-16.92c-.09-1.77-.73-3.6.69-5.16l.74.14c4.25,2.27,7.69,5.7,11.7,8.31,7.25,4.72,14.8,8.61,23.57,9.82C82.42,166.39,86,165.9,86.32,170Z"/><path class="cls-203" d="M81.41,169.86c1.15.46,3.85-1.13,2.85,2.16-3.09.48-5.92-1.05-8.93-1.18C77.14,169.17,79.42,170.39,81.41,169.86Z"/><path class="cls-202" d="M44,146.89c1.32-1,1.32-3.27,3.38-3.57,1.28,3,0,4.44-3,4.69l-.3-.23A1.91,1.91,0,0,0,44,146.89Z"/><path class="cls-204" d="M23.28,97.11l11-.07c.16.91-.4,1.38-1.09,1.76-2.27.62-3.91,1.73-3.35,4.47.9,4.32.61,8.83,2.2,13,2.9,7,5.35,14.34,11.51,19.44a4.55,4.55,0,0,1,.9,1c.33,1.38-.77,2-1.5,2.85-.83.6-1.3,2-2.72,1.31a2,2,0,0,1-2-1c-.07-2.89-2.47-4.53-3.74-6.77-2.92-5.16-6-10.21-7.32-16.08-.07-.31-.43.75-.93.86A47.21,47.21,0,0,1,23.28,97.11Z"/><path class="cls-205" d="M33.46,143c-4.27-6.36-8.94-12.49-11.22-20-1.42-8-3.61-16-2.31-24.33,2.39,3.55,1.45,7.76,1.95,11.56,1.33,10.17,5.43,18.92,11,27.27,1.06,1.59,3.36,2.91,2.36,5.48Z"/><path class="cls-206" d="M26.24,118c.46-.63.6-3.29,1.16-1.75,3,8.3,7.84,15.58,12.11,23.18l-1.28.56A54,54,0,0,1,26.24,118Z"/><path class="cls-207" d="M40.2,141l2.11-2c1.51-.7,3-1.24,4.69-.42a.89.89,0,0,1,.19,1.39c-3.14,1.06-4.1,4.63-6.95,6-1.57.15-2-1.4-3-2.05Z"/><path class="cls-208" d="M44.31,148c1.73-1.1,3.14-2.41,3-4.69a7,7,0,0,1,4-4,2.47,2.47,0,0,1,.62,2,4.22,4.22,0,0,1-.51,1.33c-1.29,1.69-.72,3,.78,4.23a68.44,68.44,0,0,0,30.47,14.58c3.4.67,4.56-.91,4.23-4.08,0-1.55-.07-3.1,0-4.65,0-2-.1-3.92,0-5.88s-.27-4.28,1.53-5.93a1.19,1.19,0,0,1,1.54.66c1.44,8.54.69,17.14.6,25.72a3.5,3.5,0,0,1-1.29,2.6,2.37,2.37,0,0,0-2.91.12c-1.71-2.93-4.87-2.54-7.49-3C65.05,164.77,54.23,157.23,44.31,148Z"/><path class="cls-209" d="M53.22,136.91a1.87,1.87,0,0,0-1.92-.86l-.34-.59a3.85,3.85,0,0,1,.44-2c.74-1.46,2.11-2.28,3.32-3.26,2-1.67,3.74-3.64,5.65-5.43A6.21,6.21,0,0,1,62,123.66a2.47,2.47,0,0,1,1.32,0,2.44,2.44,0,0,1,1.27,1.52,3.74,3.74,0,0,1-1,2.49c-1.22,1.36-2.55,2.62-3.8,4-1.58,1.37-2.59,3.22-4,4.75C55,136.93,54.23,137.51,53.22,136.91Z"/><path class="cls-210" d="M53.22,136.91l2-.92a2,2,0,0,1,.58,1.15,3.14,3.14,0,0,1-.32,1.27c-1.15,1.26-2,3.06-4.18,2.59v-1.68A4.12,4.12,0,0,1,53.22,136.91Z"/><path class="cls-209" d="M47.19,139.94v-1c0-2.64,1.21-3.84,3.93-3.11l.18.23A10.74,10.74,0,0,1,47.19,139.94Z"/><path class="cls-211" d="M144,152c.06.41.13.82.2,1.23-2.45-.69-4,.88-5.79,2.13-10,7.09-20.76,12.3-33.09,13.71-2.11-.2-4.19-.24-6.08.94l0,0c-1-2.86,1.24-3,2.91-3.22a72.77,72.77,0,0,0,35.79-14.6C139.73,150.77,141.85,149.51,144,152Z"/><path class="cls-212" d="M144,152c-2.06-.74-3.71-.22-5.44,1.15A67.85,67.85,0,0,1,102,168c-1.46.14-2.61.38-2.84,2.06-2.92.16-1.53,2.59-2.1,4l-.83-1.07c-.5-3.2-1.44-6.41.31-9.53a3.93,3.93,0,0,1,2.69-1.14c14.59-1.12,27.13-7.32,38.81-15.64,2.5-.84,3.64,1.2,5.15,2.45l1.09.77C144.18,150.54,144.07,151.26,144,152Z"/><path class="cls-213" d="M144.36,145.84c-.93.47-1.07,1.38-1.22,2.27-2.17,0-3.11-2.35-5.12-2.63-1.91-1.77-3.17-4.13-5.19-5.81-1-1.08-2.09-2.15-3.17-3.19-1.35-1.39-2.72-2.76-4.13-4.09-2.65-2.68-5.31-5.36-8-8-2.89-3.6-7.34-5.87-9-10.52.16-2.68,1.92-2.34,3.7-2a6.42,6.42,0,0,1,1.31.53c2.81,2.06,4.95,4.79,7.32,7.29,1.35,1.44,2.71,2.89,4.84,3.16,2.23.45,3.23,2.06,3.9,4a11.28,11.28,0,0,0,3.21,4.31c3,3.33,6.18,6.47,9.41,9.58C143.53,142.12,145.5,143.38,144.36,145.84Z"/><path class="cls-214" d="M144.36,145.84c-2.72-5.79-9-8.47-12.18-13.84-.41-1.38-.89-2.76-.05-4.16,2.13-.49,3,1.28,4.34,2.32.74.75,1.46,1.52,2.2,2.27s1.46,1.47,2.21,2.19q2,2,4.06,4a43.15,43.15,0,0,0,4.37,4.07c1.28,2.37,5.15.38,6,3.53-1,.94-2.24.66-3.38.93-1.58,0-2.95,1.24-4.6.75A3.53,3.53,0,0,0,144.36,145.84Z"/><path class="cls-215" d="M147.29,147.88c1.1-1,2.08-2.31,3.88-1.87.51.83,2.58,0,2.06,1.93-2.59,1.69,2.67,3.46-.06,5.15C150.37,152.3,148.66,150.28,147.29,147.88Z"/><path class="cls-211" d="M138.31,144.75c2.25.21,3,2.5,4.83,3.36,0,.32,0,.63.05.95-2.13.84-2.35-2-4-2.09C138.3,146.48,137.63,145.89,138.31,144.75Z"/><path class="cls-122" d="M153.23,147.94,151.17,146H155a1.11,1.11,0,0,1,1.24,1.09c0,.64,0,1.28,0,1.92Z"/><path class="cls-216" d="M144.33,47,148.22,43a1.39,1.39,0,0,1,2,0,2.17,2.17,0,0,1,.06,1c-.66.81-.36,1.45.26,2.14A67.91,67.91,0,0,1,163.1,65.54c.53,1.3.79.69,1.26.11a2.28,2.28,0,0,1,.95,2.14c1.09,3.19.65,5.09-3.36,4a4.45,4.45,0,0,1-1.34-.37c-2.53-2.28-1.87-6.13-4.19-8.52-3-5.51-5.5-11.37-11.15-14.89A3.29,3.29,0,0,1,144.33,47Z"/><path class="cls-159" d="M162.22,71c2.35.21,3.48-.76,3.09-3.19,2.4,4.4,3.09,9.28,3.91,14.11.27,1.63.08,3.35,2,4.14-1,1.22-2.52,2.07-2.84,3.81l-1.19.19a7,7,0,0,1-6.56.49,1.37,1.37,0,0,1-.66-1.35c4.47-1.55,5-4.38,3.49-8.65C162.42,77.58,161.16,74.35,162.22,71Z"/><path class="cls-217" d="M164.36,65.65l-.33,3c-4.68-8-8.53-15.77-14.69-22-1.33-1.36-1.05-2.34.95-2.58l3.36,3a28.82,28.82,0,0,1,7.66,11.79c.81,1.33,1.18,2.86,1.93,4.21Z"/><path class="cls-216" d="M163.24,63a5,5,0,0,1-1.93-4.2A4.55,4.55,0,0,1,163.24,63Z"/><path class="cls-218" d="M150.23,43l-2,0c1.1-1.62,2.17-3.26,4.21-3.84-.21,1.39.6,1.8,1.79,1.85C153.37,42.6,151.07,41.37,150.23,43Z"/><path class="cls-219" d="M108.06,17.18c2.24,1.19,4.71,1.46,7.16,1.82a116.93,116.93,0,0,1,27,14.9c-.64,3.28-2.24.77-3.07.33-4.65-2.45-9.18-5.11-13.78-7.67-1.58-.88-3.18-1.78-5.11-1.55-3.57,1.52-6.51-1.15-9.79-1.61a78,78,0,0,1-9.2-1.62,3.45,3.45,0,0,0-4,1.18c0,.68,0,1.37,0,2.06A4.36,4.36,0,0,1,98,26.17a7.3,7.3,0,0,1,.34,2.08c.06.71.07,1.43.07,2.14,0,1.22,0,2.43.07,3.65,0,.5,0,1,0,1.51,0,1.56,0,3.12,0,4.67s0,3.25,0,4.88.06,3.37,0,5c.08,2,.08,4.06,0,6.1-.21,4.8.9,9.68-.92,14.38a1.3,1.3,0,0,1-1.65.42,4.19,4.19,0,0,1-.33-1.85q0-22.17,0-44.33c0-1.63-.42-3.33.45-4.89,1.5-3,3.85-4.14,7.12-3.18C105,16.56,106.58,15.94,108.06,17.18Z"/><path class="cls-220" d="M97.32,30l0-2.07c4.41-2.09,8.55,0,12.42.64-3.69-1.78-8.46-.47-12.47-2.61a6.4,6.4,0,0,1,0-1c9.61-.06,18.47,2.76,27,7-.56,2.88-1.33,3.29-3.89,2.53-.72-.21-1.74-2.79-2.53,0-2,.82-4-.3-6-.31C107,32.77,101.84,32.54,97.32,30Z"/><path class="cls-221" d="M118.22,34c-.37-.49-1.16-1.17-1-1.44.46-1.05,1.32-.39,1.88,0,1.9,1.22,3.77,3,5.15-.53,4.94,1.19,8.76,4.44,13,6.92,3.24,1.89-.57,3.31,0,4.94a1.74,1.74,0,0,1-1.29,1.54,2.9,2.9,0,0,1-1.39-.29,65.69,65.69,0,0,0-13.57-8.19C119.69,36.39,117.91,36.1,118.22,34Z"/><path class="cls-222" d="M97.27,23c-.23-3.08,1.43-2.88,3.79-2.61,6.6.74,12.69,3.46,19.16,4.66l3,2.34A146.84,146.84,0,0,0,97.27,23Z"/><path class="cls-223" d="M136.28,45.15l.91-1.29c2.87-1.09,3.17-4.76,6-5.91,1.07.59,1.45,2.2,3,2l-10,10A5.37,5.37,0,0,1,136.28,45.15Z"/><path class="cls-224" d="M96.22,20,96.1,70l-.68-.1q0-24.92-.08-49.84A8.46,8.46,0,0,1,96.22,20Z"/><path class="cls-225" d="M108.06,17.18l-4.72-.38c2.12-1.58,4.52-.47,6.77-.72Z"/><path class="cls-226" d="M148.35,31.14c1,.13,2.58-1.82,2.84.83-.82.44-1.69,1.32-2.44,1.22S148.29,31.9,148.35,31.14Z"/><path class="cls-227" d="M169.11,97a3,3,0,0,0,2,2.92c0,.31,0,.63,0,.94a2.11,2.11,0,0,0-1.85,2c-1.54,14.1-7,26.59-15.47,37.86a9.58,9.58,0,0,0-.69,1.31,1.84,1.84,0,0,0-.88,1.91c-1.25.55-1.91-.14-2.41-1.16a4.77,4.77,0,0,1,1.26-3.64c7.21-8.56,11.31-18.51,13.25-29.44a9.37,9.37,0,0,1,.87-2.31c1.57-3.35-.21-7,1-10.4Z"/><path class="cls-155" d="M171.21,108c-.19,1.7.67,3.61-1,5C170.31,111.27,169.7,109.4,171.21,108Z"/><path class="cls-155" d="M172.26,117c-.47-2.11,1.07-3.43,2-5C175.88,114.55,173,115.33,172.26,117Z"/><path class="cls-228" d="M150.2,143l2.07,1c2.21.12,4.72-.26,4.95,3l-1,.16L155,146c-1.74-2.21-5.5.32-6.8-2.9.12-.17.25-.33.37-.49A1.28,1.28,0,0,1,150.2,143Z"/><path class="cls-164" d="M91.23,179c-1.59-1.38-.71-3.3-1-4.95l.12-.12a1.63,1.63,0,0,1,2.3.35C93.07,176.09,94.4,178.18,91.23,179Z"/><path class="cls-229" d="M91.23,179c1.68-1.39.77-3.3,1-5l.7-.26a1.29,1.29,0,0,1,.76,1.15c-.19,1.69.51,3.47-.49,5.09h0A2,2,0,0,1,91.23,179Z"/><path class="cls-152" d="M93.21,180v-6c-1.83-2.1-1.33-4.66-1.36-7.09-.07-5.11,0-10.21,0-15.31,0-2.7.05-5.4,0-8.1a33.86,33.86,0,0,1,0-3.49c0-2,0-4,0-6,0-4.25.1-8.5-.11-12.75a2.08,2.08,0,0,1,.86-1.5,1.91,1.91,0,0,1,2.32,1c1.42,5.23.43,10.57.71,15.85.34,6.45-.68,12.95.65,19.37A19.47,19.47,0,0,1,95.17,167c-1.82,2.48-.53,5.32-.92,8C94,176.64,94.84,178.55,93.21,180Z"/><path class="cls-108" d="M95.17,167l0-11.05c-.94-10.49-.28-21-.36-31.5a1.1,1.1,0,0,1,1.59-.48,5.81,5.81,0,0,1,1.17,4.21c0,11.31.3,22.62-.18,33.93-.07.3-.15.6-.22.91-1.12,3.23-.84,6.59-1,9.91h-.47l-.47,0Z"/><path class="cls-230" d="M166.22,97c1.38,3.68,1.77,7.36,0,11-1.42-1.13-.79-2.74-.88-3.2a71.72,71.72,0,0,1-17.07,38.12l-.1.21L144.1,139c11.05-11.13,16.33-24.66,16.63-40.23a4.62,4.62,0,0,1,.36-1.94,2,2,0,0,1,2.21,0Z"/><path class="cls-231" d="M163.3,96.88l-2.1.24c-1.4,1.36-3.19,1.14-4.91,1.23-1.16,0-2.32,0-3.48.09-2.94,0-5.87-.18-8.81,0-8.12-.18-16.23,0-24.35-.12-.6,0-1.2,0-1.8-.07a4.6,4.6,0,0,1-2.48-1,1.17,1.17,0,0,1,.17-1.59c5.12-2.27,10.51-.67,15.76-1.09q3.18,0,6.38,0c7.84.6,15.83-1.35,23.54,1.39Z"/><path class="cls-232" d="M161.22,96l-24-.08c-.1-1.81,1.31-2.23,2.56-2.8,1.92-.56,3.9-.38,5.86-.51,4.07.18,8.16-.32,12.21.44a3,3,0,0,1,1.4,1.07Z"/><path class="cls-233" d="M159.26,94.08l-1.16-.23a2.29,2.29,0,0,1-.18-1.21,10.57,10.57,0,0,1,.47-1.84,3.15,3.15,0,0,1,.71-1,.88.88,0,0,1,1.11.21l7,.09a2.58,2.58,0,0,0,0,2.92C164.42,92.26,161.82,93,159.26,94.08Z"/><path class="cls-234" d="M96.23,71a2.09,2.09,0,0,0,.93,0c3-1.64,5,.5,7.24,1.77a3.42,3.42,0,0,0,3.59.35c1.57-.68,3.09-.74,4.23.85-1.08,1.24-2.19,2.46-3.24,3.72-.8.94-2.5,1.93-1,3.24s2.2-.58,2.93-1.49c3.12-3.85,6.29-7.63,10.56-10.29a2.19,2.19,0,0,1,.31,1.3,5.56,5.56,0,0,1-1.33,2.38c-1.55,1.68-3.18,3.28-4.81,4.89S113.49,81,114.37,83a26,26,0,0,1,1.48,6.74c-.14,1.71-2,2.24-2.51,3.71-.76,1.79.82,2.44,1.68,3.44a4.74,4.74,0,0,0,.54.31c.41,2.63-.77,5-1.4,7.39-.72,1.9.13,3.32,1.43,4.6.76.82,1.55,1.61,2.24,2.49.5.77,1,1.55.38,2.49-2,1-3.32-1-5-1.17l-1,0c-2.23-1.85-6.16-1.9-6.33-6,1.08-1.71,1.09-3.73,1.6-5.61a7,7,0,0,0,1-4.73c.25-2-.43-3.91-.16-5.87,1.49-5.8-3-8.16-6.41-11.13-2-1.41-5-1.58-5.93-4.46.18-.08.68-.9.59-1C95.37,73.27,95.54,72.15,96.23,71Z"/><path class="cls-235" d="M133.28,58a31.71,31.71,0,0,1,7-7c2.31-2.19,4.29-1.16,5.89.83,4.89,6.07,9.07,12.57,11.09,20.23-1.28,3.52-1.05,7.08-.32,10.67.43,2.11.83,4.25-.41,6.27a3.3,3.3,0,0,1-1.28.83,4.8,4.8,0,0,1-3.71-.34c-1.55-2.88,1-5.57.31-8.55-2-8.08-4.77-15.74-9.84-22.44-1.34-1.76-2.77-2.92-4.93-1.21a5.37,5.37,0,0,1-2.54,1.19A2.12,2.12,0,0,1,133.28,58Z"/><path class="cls-236" d="M156.22,72a65.32,65.32,0,0,0-10.49-19c-1.34-1.77-2.91-3.23-5.41-2,.88-1.79,2.47-2.88,4-4l.92,0c3.63,4.84,7.94,9.2,10.49,14.82.33.73.92.82,1.48.12,2.75,2.36,2,6.27,4,9,1.06,5.63,1.88,11.26.18,16.92a1.1,1.1,0,0,1-1.47,0A62.12,62.12,0,0,1,156.22,72Z"/><path class="cls-237" d="M112.22,74c-2.66-2.07-5.31,3.12-8,0a70.23,70.23,0,0,0,9.21-8.37c1.42-1.34,2.82-2.71,4.15-4.13,1.06-1.06,1.88-2.34,3-3.31,1.64-1.09,2.59-2.91,4.23-4a2.62,2.62,0,0,1,2.63-.24c1.31,1.45,1.42,2.87-.06,4.3a22.81,22.81,0,0,0-3.23,3.71A96.71,96.71,0,0,1,112.22,74Z"/><path class="cls-238" d="M124.21,61.94c-.08-3,4.94-4.08,3-7.82-.74-.94-.08-1.68.36-2.45,1.28-1.51,2.78-2.81,4.09-4.3,1.16-.81,1.48-2.87,3.52-2.37l1.06.15a8.61,8.61,0,0,1-.08,4.8A80.9,80.9,0,0,1,124.21,61.94Z"/><path class="cls-239" d="M121.47,70a5.17,5.17,0,0,0,0-.88L128.32,63a.67.67,0,0,1,1.12,0,3.14,3.14,0,0,1-.85,2.6c-1.62,1.67-3.09,3.51-5.14,4.73A1.85,1.85,0,0,1,121.47,70Z"/><path class="cls-240" d="M129.24,63.08l-.92,0a15.65,15.65,0,0,1,5-5l1,.05c.51,1.61-.73,2.45-1.54,3.47C131.7,62.36,130.86,63.59,129.24,63.08Z"/><path class="cls-241" d="M92.29,120l0,1c1,4,.19,8.12.47,12.17a9.48,9.48,0,0,1-.12,1.69c-1.35,5.72-1.72,11.44.1,17.15-.24,7.34.58,14.7-.45,22h0l-1.94-.08c-.11-1,.1-2.18-1-2.88,0-.36,0-.73-.08-1.1l-.06-29c-1.71-1.74-1.33-4-1.3-6,.08-5.72-.4-11.46.29-17.17,2.93-4,3,.13,4,1.45C92.23,119.41,92.26,119.68,92.29,120Z"/><path class="cls-242" d="M42.21,49c.32.74.81,1.48.17,2.28a83.88,83.88,0,0,0-15.94,33.4,10.39,10.39,0,0,1-.52,1.37c-.2-.21-.51-.4-.57-.65A8.93,8.93,0,0,1,25.22,84C27.23,70.55,32.23,58.58,42.21,49Z"/><path class="cls-243" d="M36.19,92.9c-3,0-6,0-9,.1-2.18,0-3.27-.6-2-2.91L29.21,90c2.4-.78,4.78-1.08,7.12.17Z"/><path class="cls-167" d="M36.33,90.17,29.21,90l0-1c.78-.14,2.09,0,2.28-.46,1.59-3.54,1.83.43,2.74.44,2,.34,4.21-.79,6,1Z"/><path class="cls-175" d="M47.23,88h2c0,.32,0,.64,0,1-2.78.58-5.33-.91-8-1-.73-4.84,1.69-8.91,3.28-13.17a56.84,56.84,0,0,1,5.5-10c.95-1.49,1.86-3.28,4.2-2.79l1,1c.91,2.72-1.21,4.37-2.41,6.2a51.55,51.55,0,0,0-6.09,14.12C46.26,85,45.89,86.55,47.23,88Z"/><path class="cls-244" d="M35.24,84A57.76,57.76,0,0,1,47.13,58c1.3-1.62,2-2.15,3.12-.05-7.19,8.5-11.35,18.49-14,29.39C34.7,86.23,35.49,85,35.24,84Z"/><path class="cls-245" d="M54.22,62C50,65.26,48.14,70.12,46,74.68c-2,4.25-3.22,8.85-4.78,13.3-1.45-1.11-1.2-2.75-.91-4.11A50.23,50.23,0,0,1,51,61.38C52.71,59.39,53.38,60.59,54.22,62Z"/><path class="cls-246" d="M47.23,88c-3.32-.94-1.74-3.2-1.43-5.17C47,75.27,51.52,69.34,55.24,63l1.8.31c.07.56.14,1.11.2,1.67C52.84,72.19,47.79,79.1,47.23,88Z"/><path class="cls-247" d="M66.23,89c-2.28-4.15,1.37-6.74,2.69-9.92a1.37,1.37,0,0,1,2.14-.47,1.7,1.7,0,0,1,.44,2.57c-1.48,2.57-2.85,5.2-4.27,7.8l-.5,0Z"/><path class="cls-248" d="M46.18,53.07c-1.12,3.9-4.13,6.67-6,10.12a139,139,0,0,0-8.91,20.67V78c2.66-8.28,6.29-16,11.85-22.82C44,54.1,44.59,53,46.18,53.07Z"/><path class="cls-249" d="M63.28,70.08a1.45,1.45,0,0,1,.76.21c1,2.63-1.05,4.42-1.94,6.44-1.63,3.72-3.66,7.26-5.7,11.21C55.27,82.76,57.6,77,63.28,70.08Z"/><path class="cls-250" d="M51.24,82c1.44-4.24,3.07-8.43,5.76-12,.8-1.06,1.94-4.6,4.21-1-5.48,4.34-6.14,11.35-9.74,17.52C51.37,84.64,51.31,83.31,51.24,82Z"/><path class="cls-251" d="M68,74.3C68,79.67,63.15,83,62.24,88c-.82-.13-1.65-.3-1.84-1.28C59.8,83.68,64.75,75.64,68,74.3Z"/><path class="cls-252" d="M90.14,47.93c.68,6.81-1.67,13.61,0,20.44A3.06,3.06,0,0,1,88.23,72c-1.86.63-3.58,1.89-5.72,1.37-1.15-1.51.19-2.27,1.11-2.61,3.54-1.32,4.09-3.82,3.51-7.18-.45-2.59.14-5.35-.89-7.86-.43-1.07.75-2.87-.61-3.07-2-.3-4.25,1-6.06-.91-1,5.67-7.3,4-10.08,7.3-.91,1.09-2.29,2.52-4.26,2a2.24,2.24,0,0,1-2.06-1c-.32-.67-.63-1.35-.94-2-1.55-3.12,1.51-3.84,2.53-5.41-1.72.63-3.36,4.81-5.52,2-2.27-2.94,1.44-4.72,3.49-5.93,6.16-3.6,12.29-7.45,19.71-7.93,2-.12,4-.28,5.84.85C89.86,43.44,88.88,46,90.14,47.93Z"/><path class="cls-198" d="M46.24,42c5-.23,7.89-4.48,11.73-6.75A78.24,78.24,0,0,1,90.09,25c0,2,0,4,0,6-1.42,1.46-3.35,1.26-5.13,1.53-10.51,1.58-20.28,4.91-28.54,11.91-1.5,1.26-3,2.68-5.22,2.63A16.08,16.08,0,0,1,46.24,42Z"/><path class="cls-253" d="M51.21,47.05C62.19,36.89,75,31.22,90.1,31q0,8.48.05,17c-1.86-1.58-2-3.72-1.92-5.94-3-5.63-1.9-5.28-9.32-3.29A66.6,66.6,0,0,0,55.23,51,11.11,11.11,0,0,1,51.21,47.05Z"/><path class="cls-254" d="M55.23,51c2.89-6,9.09-7.74,14.29-10.25a43.61,43.61,0,0,1,12-4.11c6.72-1.07,6.68-1.34,6.73,5.32-10.45-1-18.94,3.71-27.06,9.45-.92.65-2.51,1.4-1.57,2.59,1.31,1.65,2.25-.29,3.09-1.05,1.73-1.55,3.39-3,6.51-2.58-2.12,3.15-6.69,3.52-7,7.61C59.42,56.16,56.37,54.55,55.23,51Z"/><path class="cls-255" d="M65.23,61c3.46-3,6.91-6.18,11.59-6.89,3.35-.51,1.4-2.57,1.48-5,1.77,2.41,3.39,3.34,5.68,2.51s5.62-2.79,3.44,2.85c-.5,1.29.53,4.26.87,6.46.84,5.54.47,10.3-6.06,12.06.23,2.24-2.22,1.77-3,3h0Z"/><path class="cls-256" d="M96.16,75l6.07,4a2.35,2.35,0,0,1-1.14.71c-1.29.4-2.53-.74-4.16,0,.85,2.93,5,3.32,5.28,6.56a6.72,6.72,0,0,1-.17,3.64,1.91,1.91,0,0,1-1.62,1.29c-4.06-4.78-4.53-6.17-14.92-1-1.9-2.05-1.06-5.32-3.24-7.23-.54-1.08-2.46-1.23-2.06-3l2-.1c1.39-.6,2.7-1.28,3-3l8.11-2.11c.24.57.53.55.84.06A1.32,1.32,0,0,1,96.16,75Z"/><path class="cls-257" d="M80.2,80.07l3,1.91c-1.33,1.29-2.87,2.4-3.54,4.23-1.79,4,1.84,3.05,3.53,3.88a3.26,3.26,0,0,1,1.19.77,2,2,0,0,1,0,1.42,6.26,6.26,0,0,1-.6.76c-4.58,4.89-5,4.83-7.56-1-2.48-1.64-.72-3.93-.92-5.92C77.9,84.88,78.33,81.88,80.2,80.07Z"/><path class="cls-171" d="M85.24,77c.49,1,1,2,1.56,3.2-1.6.94-3.09-.7-4.58-.23l0-1Z"/><path class="cls-258" d="M69.37,97.92a1.29,1.29,0,0,0,.86-.15L71.35,100c1.29,1.91,1.57,4.27,2.74,6.23a1,1,0,0,0,0,.75c-1.09,3.07-3.53,4.89-6.06,6.63a4.61,4.61,0,0,1-1.48.21c-4.56-1.35-6.36-5.36-7.69-9.16-1-2.79-.31-6.1,3.75-6.83a5,5,0,0,1,1.48-.32C65.87,97.66,67.67,97.1,69.37,97.92Z"/><path class="cls-259" d="M68.35,113l5.77-6,4.07-3c2.27-.5,3,.89,3.34,2.73a3.5,3.5,0,0,1-.79,1.18c-3.11,2-5.26,5.26-8.83,6.63a4,4,0,0,1-2.65-.57A3,3,0,0,1,68.35,113Z"/><path class="cls-260" d="M81.26,106.93A6.08,6.08,0,0,0,78.19,104c-.66-.68-1.33-1.35-2-2-1-2.11.22-2.62,2-2.75a3.55,3.55,0,0,1,1.33.48,13.92,13.92,0,0,0,4.55,3.17c1.94,1.78,4.22,3.45,2.06,6.53C83.61,110.3,81.69,110.08,81.26,106.93Z"/><path class="cls-261" d="M79.2,100c-1.47,0-2.89,0-3,2-1.58-3.33,0-6.65,0-10,.5.38,1.27.67,1.45,1.17,1,2.92,2.15,3.5,3.79.41A3.05,3.05,0,0,1,84.22,92c.59,2.55-1.59,4-2.33,6.07A4,4,0,0,1,79.2,100Z"/><path class="cls-259" d="M74.09,106.23c-1.86-1.66-2.48-3.87-2.74-6.23C73.67,101.46,73.69,103.93,74.09,106.23Z"/><path class="cls-262" d="M48.23,97h15c.32.21.43.41.32.62s-.21.32-.32.32h0c-2.58.69-5.14,1.53-7.87,1.38-5.55.06-5.4.17-5.06,5.62.34,5.63,4.84,9.35,6.2,14.48,0,.08,2.39-.78,3.62.18,1,2.51-1.22,3.5-2.34,5a6.33,6.33,0,0,1-4.14,2.1c-2.26-.21-3.35-1.9-4.47-3.54a42.15,42.15,0,0,1-6.9-21.33c-.1-1.54.12-3,1.5-3.94S46.89,98.05,48.23,97Z"/><path class="cls-263" d="M48.23,97c-1.07,1.4-2.62.82-4,1-4.58,1.21-4.88,4.16-4.16,8.37,1.48,8.72,5.36,16.22,10.41,23.27.29,1.56-.53,2.41-1.87,2.91a3.17,3.17,0,0,1-1.5-.1c-5.23-4.18-7.48-10.23-9.85-16.14-.56-1.41-1.34-1.4-2.4-1.47-2.67-5.41-3.91-11-1.63-16.85l1-.94Z"/><path class="cls-264" d="M63.24,98V97c2.07,0,4.34-1.16,6.13.88Z"/><path class="cls-201" d="M96.16,75l-2-.08c1-1.52,1.1-3.28,1.22-5l.68.1a5.05,5.05,0,0,1,.13,1c.09,1-.1,1.93.8,2.73S97.9,74.66,96.16,75Z"/><path class="cls-201" d="M79.22,76l3-3,6-1C85.64,74.24,82.33,74.89,79.22,76Z"/><path class="cls-265" d="M33.24,98c.37,5.78-.19,11.73,3,17,2.43,4.27,4,9,6.91,13,1.14,1.6,1.88,3.53,4.1,4h1a1.64,1.64,0,0,1,.45,1.24,6.44,6.44,0,0,1-4.66,3.7l-.87-.05c-4.91-7.15-9.92-14.25-11.58-23-.12-.63-.74.14-.09,0,.1,0,.12.14.18.46.19,1,.44,2-.49,2.72-2.72-4.9-2-10.46-2.91-15.7C27.6,97.2,30.92,98.11,33.24,98Z"/><path class="cls-266" d="M31.23,117V114.1c2.71,8.34,9.31,14.56,12,22.78C36.52,131.88,33.87,124.44,31.23,117Z"/><path class="cls-267" d="M44.08,136.93,48.32,133c1.65-1.16,2.8-.31,3.86.95l-1.06,1.88a6,6,0,0,0-3.93,3.11l-4.88,0Z"/><path class="cls-210" d="M88.2,158c.75,4.34-1.31,5.74-5.31,5a73.77,73.77,0,0,1-33.34-16.41c-3-2.49-.19-3.48,1.68-4.51,1.61-1.2,2.88-.17,4,.8a57.37,57.37,0,0,0,29.86,13.77A5.73,5.73,0,0,1,88.2,158Z"/><path class="cls-268" d="M88.2,158c-12.34-.61-23.06-5.29-32.53-13-1.38-1.13-2.32-2.93-4.44-2.92,0-.33.05-.65.09-1l3.91-3c2.78.38,4.77,2.27,6.85,3.85a41.59,41.59,0,0,0,19.37,8.43c2.4.34,5,.48,6.74,2.7Z"/><path class="cls-269" d="M88.19,153c-8.17-1.74-16.67-2.55-23.6-7.85-3.12-2.38-6.79-4-9.36-7.13,0-.32.05-.65.08-1,1.21-1.44,1.75-3.83,4.45-3.19,6.27,5.65,13.45,9.24,22,9.91A8.82,8.82,0,0,1,88.2,147Z"/><path class="cls-270" d="M88.2,147c-4.63-1.62-9.55-2.09-14.2-3.3-5.7-1.48-11.35-4.19-14.78-9.69a1.26,1.26,0,0,1-.17-1.4c1-1.2,2-2.35,3.73-2.13,6.38,4.51,13.87,6.16,21.23,8.1,1.44.37,3,.45,4,1.76l.27.71Z"/><path class="cls-269" d="M89.18,116.05q0,12.44,0,24.86l-.87.1-.15-.09a8.78,8.78,0,0,1-1.32-5c0-2-.1-4,0-6,.11-4.27-.45-8.57.46-12.82a2.91,2.91,0,0,1,1.06-1.34Z"/><path class="cls-271" d="M71.27,114l9-7c2.81,2,1.23,3.59-.57,5.12a84.88,84.88,0,0,0-10.21,10.21,13.57,13.57,0,0,1-1.77,2.16c-.94.74-1.9,1.42-3.16.65l-1.36-1.29c-1.08-3.13,2.29-3.47,3.31-5.29C68.12,117.09,68.89,114.7,71.27,114Z"/><path class="cls-272" d="M54.34,126l2.88-2c1.41.12,3.41-2.13,4.07,1a25.7,25.7,0,0,1-6,6c-1.93,1-2.71-.23-3.38-1.71C51.57,127.37,53.06,126.78,54.34,126Z"/><path class="cls-273" d="M67.22,118.94c-.62,2.24-3.66,2.47-4.06,4.89a6,6,0,0,1-.93.15c-1.62-.72-2-2-1.49-3.56.22-1.44,1.2-2.48,1.91-3.67a9.67,9.67,0,0,1,4.79-3.68l.91-.07.92.09C69.36,115.31,67.67,116.91,67.22,118.94Z"/><path class="cls-274" d="M52.29,129c1,.7,1.46,2.18,3,2.05l-3.12,2.92L48.32,133a8.29,8.29,0,0,1,0-1l2.05-2C50.66,129.09,51.16,128.45,52.29,129Z"/><path class="cls-275" d="M61.24,120.06a6.46,6.46,0,0,0,1,3.92c-.32.34-.63.69-.94,1-.94-2-3.12.95-4.07-1l3.14-4A.58.58,0,0,1,61.24,120.06Z"/><path class="cls-269" d="M62.23,131l-2.94,2a1,1,0,0,1,.05-1.71,7.18,7.18,0,0,1,4-4,2.11,2.11,0,0,1,.58,1.78A2.67,2.67,0,0,1,62.23,131Z"/><path class="cls-268" d="M59.34,131.31c0,.57,0,1.14-.05,1.71,0,.31-.06.63-.07.95l-3.91,3c0-.34-.05-.67-.07-1C56.45,134.29,56.93,132,59.34,131.31Z"/><path class="cls-270" d="M63.3,129c0-.55,0-1.11,0-1.66l1.21-2.21,2.74-1.06a2,2,0,0,1,.55,1.15,3.2,3.2,0,0,1-.35,1.26C66.31,127.7,65.5,129.49,63.3,129Z"/><path class="cls-276" d="M138.31,144.75l.9,2.22A75,75,0,0,1,100,163.53a10.34,10.34,0,0,1-2.84-.52h0c-.81-1.52-.35-3.14-.36-4.71,1.29-1.93,3.48-1.89,5.35-2.08,9.14-1,16.86-5.48,24.74-9.58,3.14-1.63,5.67-3.93,6.32-7.69C135.64,140.26,137.05,142.44,138.31,144.75Z"/><path class="cls-277" d="M109.24,114l9,10c.63,1.1,1.72,2,1.53,3.46-6.08,6.85-13.75,9.84-22.84,9.36a32.71,32.71,0,0,1-.14-5.33c.62-1.67,2.19-2,3.61-2.25a39.38,39.38,0,0,0,11.55-4.58c-4.93,1.54-9.06,6-14.83,3.55a2.84,2.84,0,0,1-.24-2c.67-1.31,1.94-1.71,3.23-2.06.81-.21,1.66-.18,2.45-.41,2.74-.82,6.95-.82,6.92-4.26s-4-3.78-7-4.07a1.45,1.45,0,0,1-.59-1.21c1.42-2.57,3.45-3.14,6.06-1.86C108.55,112.72,108.74,113.46,109.24,114Z"/><path class="cls-278" d="M133.24,138.94c2.95,5.8-2.75,6.7-5.41,8.83-5.12,4.09-11.81,5.28-17.59,8.33-3.64,1.92-8.61,1.32-13,1.86-.86-1.14-.41-2.43-.43-3.66,2.65-2.65,6.33-2.45,9.59-3.31,7.37-1.94,14.41-4.52,20.46-9.31,1.27-1,2.87-1.79,2.66-3.83a2.41,2.41,0,0,1,.7-1.89A6.4,6.4,0,0,1,133.24,138.94Z"/><path class="cls-279" d="M119.23,127c-.34-1-.67-2-1-3a37.14,37.14,0,0,1,8,8c1.44,2.16.38,3.81-1.22,5.18-7.41,6.36-16.51,8.77-25.75,10.77a2.53,2.53,0,0,1-2.24-.85c-.54-1.78-.18-3.6-.27-5.4.81-2.29,3-1.84,4.62-2.07,5.71-.77,10.75-3.21,15.73-5.88C120.06,132.12,121.28,130.09,119.23,127Z"/><path class="cls-280" d="M97.32,147c9.71-1.81,19-4.55,27-10.69a4.63,4.63,0,0,0,1.89-4.31,10.1,10.1,0,0,1,4,4l0,2c-6.18,7.23-14.55,10.57-23.38,12.91-3.2.85-6.61,2.69-9.9,0C96.79,149.55,96.33,148.18,97.32,147Z"/><path class="cls-281" d="M113.18,113c2-1.58,3.2,1.24,5,1,1.65-.82,2.42.61,3.47,1.34q2.07,2.08,4.17,4.16c.85,1,1.9,1.88,1.68,3.4-.51.86-1.68.33-2.24,1.07C119.43,122.29,117.27,116.59,113.18,113Z"/><path class="cls-282" d="M125.24,124a2.1,2.1,0,0,1,2-1,1.72,1.72,0,0,1,1.35-.1,9.6,9.6,0,0,1,4,3.9,1.27,1.27,0,0,1-.33,1.27c.06,1.33,1,2.66,0,4-2.1-1.41-4-2.92-4.11-5.8C128,124.64,126.69,124.06,125.24,124Z"/><path class="cls-283" d="M109.24,114l-1.08-.88c-1.71-1.62-5.22-2.23-3.32-5.89a1,1,0,0,1,1.38-.21c1.23,2.78,4.47,3.53,6,6C111.25,113.36,109.47,111.32,109.24,114Z"/><path class="cls-284" d="M156.23,97.11h5c2.7,6,0,11.67-1.37,17.28-2,8.4-6.35,15.75-11.56,22.62a4.67,4.67,0,0,1-4.17,2,13.65,13.65,0,0,1-4-4c7.43-6.46,11.57-14.83,13.8-24.22A69.72,69.72,0,0,0,156.23,97.11Z"/><path class="cls-285" d="M144.22,97.13h9c2.39.93,3.18,2.69,2.8,5.16a69.74,69.74,0,0,1-11.45,28.79c-1.67,2.47-3.45,4.16-6.46,1.91l-2-2c3.24-6.79,8.24-12.65,10.39-20,.73-2.53,1.29-5.08,1.86-7.64.62-2.74-.51-4-3-4.53C144.66,98.46,144.11,98,144.22,97.13Z"/><path class="cls-286" d="M145.22,98c4.73-.58,5.36,1.21,4.39,5.72C147.4,114,143.52,123.34,136.14,131l-3.92-3c-.05-.33-.09-.67-.13-1,5.85-7.8,10-16.36,11.41-26.09A4.76,4.76,0,0,1,145.22,98Z"/><path class="cls-287" d="M138.15,133c3,1.11,4.66-.55,6-2.85,5.06-8.81,9.54-17.84,11-28.09.3-2.16-.89-3.41-1.84-4.92l3,0c2.28,7-.91,13.32-2.65,19.64-1.56,5.67-5.13,10.7-8.53,15.61-1.24,1.8-2.73,2.83-5,2.67Z"/><path class="cls-288" d="M160.23,88a3.16,3.16,0,0,0,.93-3.57c-1.31-4.51-.09-9,.06-13.42h1c1.29,4.73,2.83,9.4,3.8,14.19,1.08,5.4-3.32,3.33-5.79,3.82A.79.79,0,0,1,160.23,88Z"/><path class="cls-289" d="M157.22,62c-.42.57-.2,2.76-.84,1.72-3.5-5.7-9-10.08-11.13-16.66,5.26,1.68,7,6.64,9.77,10.58A33,33,0,0,1,157.22,62Z"/><path class="cls-236" d="M160.23,88v1c0,.32,0,.64,0,1a5.63,5.63,0,0,1-.91.1,3.24,3.24,0,0,1-3.84.35,1,1,0,0,1-.24-1.42l1,0c1-1.63,2.27-2.3,4-1Z"/><path class="cls-290" d="M114.33,66.22c-3.19,2.82-4.78,7.69-10.08,7.77a14.64,14.64,0,0,0-7.09-3q0-7.52,0-15c3.67-2.39,6.57.45,9.67,1.53,2.33.82,4.15,2.64,6.18,4C114.76,62.74,115.39,64.25,114.33,66.22Z"/><path class="cls-239" d="M128.35,52.24c-.37.62-.73,1.25-1.1,1.88l-2,.85C121.3,52.24,117,50,113.56,46.65c-2.2-2.15-5.2-2.74-8.07-3.55s-5.95-.85-8.23-3.1c0-1.66,0-3.32,0-5,7.17-1.37,13.65.65,19.83,4.07A19.06,19.06,0,0,0,126.25,48C127.78,48.76,129.45,49.94,128.35,52.24Z"/><path class="cls-291" d="M117.23,40c-6.33-3-13.17-3.85-20-5,0-.34,0-.69,0-1,4.83-2.85,9.62-.52,14.34.3,3,.54-1.4-1.82.63-1.28l6,1c4.62,3,10.13,4.47,14.34,8.18,1,.86,1.78,1.88,2.66,2.82q-1.44,1.57-2.9,3.14C126.4,47.07,122.29,42.65,117.23,40Z"/><path class="cls-292" d="M97.26,40c10.87.31,18.74,7,27,12.79.55.38.64,1.44.94,2.18-1.38,1.3-1.84,3.51-4,4.05-5.35-6.28-11.59-11-20.11-12a6.27,6.27,0,0,1-3.87-2C97.26,43.33,97.26,41.66,97.26,40Z"/><path class="cls-293" d="M97.25,45c6.21.83,12.44,2,17.49,5.84,2.71,2.07,6.62,3.67,6.49,8.18l-2.9,3.24c-4.09-5.5-10-7.94-16.3-9.82-1.77-.53-3.55-.9-4.77-2.44C97.26,48.33,97.26,46.66,97.25,45Z"/><path class="cls-294" d="M97.26,50c6.65,1.59,13.25,3.17,18.74,7.75a5.48,5.48,0,0,1,2.33,4.51l-4,4c.46-3.68-3-3.93-4.92-5.47A20.22,20.22,0,0,0,97.2,56Z"/><path class="cls-295" d="M112.23,33l3.71,2.86c-6.69-.8-12.62-2.26-18.68-1.88L97.32,30C102.53,29.79,107.24,32.11,112.23,33Z"/><path class="cls-296" d="M97.24,26c4.78,0,9.35,1.24,13.93,2.6-4.66.38-9.23-1.23-13.88-.63C97.27,27.31,97.25,26.66,97.24,26Z"/><path class="cls-297" d="M148.28,142.91c2.37-5.95,6.95-10.61,9.36-16.6,3.27-8.12,6.91-16.07,6.63-25.1,0-.61,0-1.34,1.49-1.67.89,2.76.26,5.66.47,8.45-2.13,9.84-5,19.37-10.86,27.79-1.69,2.42-4.21,4.23-5.17,7.17Z"/><path class="cls-164" d="M92.25,174q0-11.49,0-23l.48-.37.47.39q0,11.46,0,22.93Q92.73,174,92.25,174Z"/><path class="cls-298" d="M95.39,124q-.11,16-.2,31.92c-1.57-1.49-.92-3.43-.93-5.17-.07-10.25-.05-20.51-.06-30.76l.66-.3a1.78,1.78,0,0,1,1,.9A3.37,3.37,0,0,1,95.39,124Z"/><path class="cls-299" d="M92.21,151c-2.83-2.78-2.83-11.55,0-16.05,1.22,1.5-.2,3.53,1,5l0,3c-1.25,2.55.33,5.43-.93,8Z"/><path class="cls-299" d="M92.25,134V121c2.17,4.2.49,8.67,1,13C92.9,134.42,92.59,134.43,92.25,134Z"/><path class="cls-298" d="M94.2,120,92.29,120l-.11.06c-.83-2.51-2.38-5.08.67-7.22,2.25,2,2.47,4.49,1.39,7.18Z"/><path class="cls-229" d="M92.25,151c.39-2.65-1-5.5.93-8,0,2.68,0,5.37,0,8.05Z"/><path class="cls-229" d="M92.25,134l1,0c0,2,0,4,0,6-1.64-1.42-.71-3.35-1-5C92.22,134.63,92.24,134.31,92.25,134Z"/><path class="cls-212" d="M97.32,147l0,4a2.26,2.26,0,0,1,0,3l0,4-.06,5c-1.55-1.71-.87-3.81-.89-5.72-.14-11.13-.17-22.26-.24-33.39-.66-1.58,0-3.34-.67-4.92a3.2,3.2,0,0,1,.87-3.19,1.39,1.39,0,0,1,1.54.63c1.2,3.27,1.52,6.49-.57,9.57l0,2a2.21,2.21,0,0,1,0,3v6c1.21,1.33,1,2.67,0,4Z"/><path class="cls-299" d="M96,119c0,1.65.07,3.29.1,4.93a5.28,5.28,0,0,1-.67.13L95.15,120a.74.74,0,0,1-.3-.64c0-.25.05-.37.11-.37A.75.75,0,0,1,96,119Z"/><path class="cls-300" d="M145.22,98c-1.3,10.07-4.21,19.5-10.74,27.54a3.31,3.31,0,0,1-2.39,1.5,13,13,0,0,1-3.94-4l.29-.63c5.55-5.4,7.72-12.51,9.6-19.65,1.24-4.74-2.7-3.19-5-3.54h-3.58c-.72,0-1.44,0-2.17,0l-2.88,0c-1,0-1.92,0-2.89,0A7.93,7.93,0,0,1,120.1,99c-.93-.3-1.92-.55-1.86-1.85l26,0Z"/><path class="cls-301" d="M115,96.92c-3.08.25-4.9-.4-2.77-3.87,4.77-2.6,9.85-1.37,14.84-1.24a19.48,19.48,0,0,1,4.76,1.6c1.24,1.18.37,1.85-.6,2.5C125.86,96.66,120.32,95,115,96.92Z"/><path class="cls-302" d="M118.24,97.17l2,.82c1.25,4.9-1,10.16-5.25,12.14-1.6-1.39-4.12-2.43-2-5.22,2.32-2.08.54-6.39,4.21-7.74Z"/><path class="cls-303" d="M131.25,95.91c.32-.63.64-1.27,1-1.9a3.08,3.08,0,0,1,1.38-1c2-.37,4-.71,5.58,1.1l-2,1.75Z"/><path class="cls-300" d="M117.23,97.17c-2.63,1.91-1.21,6-4.21,7.74.68-2.62,1.12-5.31,2.54-7.68Z"/><path class="cls-304" d="M158.33,93.07a7,7,0,0,1-.23.78l-12.8,0c-3.85-.92-7.76-.18-11.64-.42a7,7,0,0,1-2.57-.28c-.92-.86-1.8-1.73-.32-2.87,6.46-1.26,12.94-.92,19.42-.25.84.76.68,2.77,2.91,1.82a5.47,5.47,0,0,1,4.71.58Z"/><path class="cls-305" d="M133.22,93c4,.36,8.14-.73,12.08.86l-6.12.24-5.94-.23c-.34-.19-.45-.38-.34-.57S133.11,93,133.22,93Z"/><path class="cls-306" d="M151.25,91,130.3,91c-1.29.56-2.29.68-1.93-1.27,1.55-1.24,3.41-1,5.2-1.1,4.84,0,9.68,0,14.52,0,2.36.5,4.75.83,7.12,1.31l4.08.13-.06.92c-1.15,1.07-2.58,1-4,1S152.38,92.13,151.25,91Z"/><path class="cls-304" d="M155.19,91l4,0a2,2,0,0,1-.9,2.08l-.26-.18C157.41,91.79,154.92,93.51,155.19,91Z"/><path class="cls-307" d="M113.32,83c-1.47-1.82-1.62-3.5.29-5.2,2.24-2,4.34-4.09,6.5-6.15,3.2,2.4,4.68,6,6.24,9.43,2.81,6.14,2.2,7.19-4.26,8.87C115.73,92,115,86.9,113.32,83Z"/><path class="cls-308" d="M122.22,89c5.91-.73,4.47-4.25,2.92-7.77-1.45-3.3-4.17-6-5-9.56L121.47,70l1.75-.06c1.81-.55,2.79.69,3.57,1.9,3.13,4.79,6,9.69,6.84,15.52a1.59,1.59,0,0,1-.85,1.2c-1.69.65-3.65.08-5.26,1.14C125.63,90.36,123.8,90.54,122.22,89Z"/><path class="cls-305" d="M128.14,90.16l2.16.81,1,2a2.7,2.7,0,0,1-3.19.1l-15.9,0c-.25-2.28,2.51-1.77,3.07-3.31C119.6,89.59,123.91,88.82,128.14,90.16Z"/><path class="cls-309" d="M100.41,91l.83-1c1.54-1,3.41.27,4.92-.75a2,2,0,0,0,.28-2.27c-.18-.39-.33-.78-.5-1.17-.6-1.45-2-2-3.15-2.87s-2.8-1.87-1.66-3.88l1.1-.06c5,1.58,8.49,7.55,7,12-1.06,1.11-.94,3.12-2.78,3.66a4.1,4.1,0,0,1-2,0,21.81,21.81,0,0,1-3.12-1.1A3,3,0,0,1,100,92.15,1.13,1.13,0,0,1,100.41,91Z"/><path class="cls-310" d="M109.23,97c1,1.67,1.1,3.11-1,4l-.62-.18c-4.08.3-2.12,3.81-3.07,5.78a4.31,4.31,0,0,1-.2,1.38c-2.34,3.2-4.78,3.78-7.37.27-.38-2,1.79-2,2.48-3.12.36-.92.14-2,.94-2.8a4.31,4.31,0,0,0,1.82-2.76c.48-3,2.29-4.07,5.17-3.65A3.19,3.19,0,0,1,109.23,97Z"/><path class="cls-311" d="M124.21,98h3c.64,6.41-1.8,11.92-5,17.2a2.92,2.92,0,0,1-1.12.94L118.16,114l-1.1-1.83c.11-.21.23-.42.35-.63,3.58-2.14,4.24-6,5.35-9.48C123.2,100.68,123.06,99.12,124.21,98Z"/><path class="cls-239" d="M128.14,90.16l-12.82-.42c-.67-2.25-1.34-4.51-2-6.76.48.43,1.37.85,1.39,1.32.3,5.18,3.88,4.94,7.51,4.67h6c1.17-.85,2.51-.3,3.77-.46a3.66,3.66,0,0,1,1.27.23.86.86,0,0,1-.07,1.14Z"/><path class="cls-312" d="M115,110.13A21.75,21.75,0,0,0,120.22,98h1c2.45,5.67-.95,9.7-3.89,13.85l-.29.31Z"/><path class="cls-313" d="M109.23,97h-2c-.79-.85-1.76-1.64-1-3,1.24-.76,1.41-2.58,3-3C108.88,93,110.85,95,109.23,97Z"/><path class="cls-310" d="M106.22,107c-.3,0-.6,0-.9.05-.37.43-.73.44-1.07,0l0-.05c.87-2.31,1.1-5,4-6l0,0C107.55,103,109.82,106,106.22,107Z"/><path class="cls-240" d="M133.2,89.87c0-.29,0-.57,0-.85,2.35-2.09,5.28-1.16,8-1.53,5.56-.7,5.7-1,4.91-6a47.63,47.63,0,0,0-7.86-19.66c-1-1.44-2.6-2.7-2-4.82,1.69-3.3,3.66-3.49,5.93-.54a60.21,60.21,0,0,1,10.93,24.12c.64,2.93.45,6-1.87,8.4-.8.94-2.17.07-3,.93Z"/><path class="cls-239" d="M136.23,57c6.64,7.73,10,16.86,11.84,26.76,1,5.37-3.37,4.08-5.85,5.21-1.19-8.43-5.82-15.55-8.9-23.26-.61-1.53-1.37-3-1.09-4.72l2-2.93Z"/><path class="cls-314" d="M160.22,88a7.05,7.05,0,0,0-4,1,31.25,31.25,0,0,0-.67-6.78c-.8-3.37-1-6.9.68-10.2C158.08,77.19,160.48,82.25,160.22,88Z"/><path class="cls-314" d="M148.23,89.91c.75-1.08,1.91-.89,3-.93h4c0,.31,0,.63,0,.94Z"/><path class="cls-315" d="M117.23,40c6,1,10.1,5.35,15.09,8.14l-4,4.1c-.59-2.87-3.17-3.61-5.26-4.78C120.06,45.77,116.87,44.31,117.23,40Z"/><path class="cls-292" d="M132.23,61c4,7.35,7.14,15.09,10.41,22.78a5.5,5.5,0,0,1-.42,5.2l-9,0,0,0c-.32-.22-.43-.44-.32-.66s.22-.33.33-.33h0c2.82-1.34,3.12-3.4,1.76-6-1.81-3.49-3-7.29-5.38-10.5-1.4-1.9-2.24-4-1.38-6.47.34-.64.68-1.28,1-1.92Z"/><path class="cls-316" d="M128.23,65c2.86,6.07,5.69,12.15,8.6,18.19,1.94,4,.49,5.37-3.6,4.79-2.79-6.3-4.32-13.31-10-18A15.48,15.48,0,0,1,128.23,65Z"/><path class="cls-229" d="M96,119l-.6.05c-1.87-1.59-.31-4.4-2.12-6-2,2.09-.5,4.71-1.06,7-2.06-.52-1.4-3.09-3-4l0-.07c-1.4-2.41-1.89-4.62,1.5-5.73,3.12-1,5.41.61,6.35,4.43a4.86,4.86,0,0,1-.71,1.4C96.23,117,96.1,118,96,119Z"/><path class="cls-317" d="M100.41,91a4.55,4.55,0,0,0-.07.9,1.49,1.49,0,0,1-1.28.35c-7.58-3.14-10.63-1.15-12.3,8A2.3,2.3,0,0,1,86,101.5c-1.42.85-2.93.51-4.43.35A4.07,4.07,0,0,1,79.21,100h0a3.54,3.54,0,0,1,2-2,10.22,10.22,0,0,0,3.54-6.81,1.09,1.09,0,0,1,.62-1.07c2.43-2,4.26-4.13,8.22-4.39C98.38,85.38,99.69,87.23,100.41,91Z"/><path class="cls-318" d="M101.13,79.05c.16,2,1.58,2.75,3.13,3.43s3,1.45,2.9,3.51a4.24,4.24,0,0,1-5.86,0c-.8-1.29-1.71-2.55-3.25-2.89-2.87-.63-3.59-2.79-2.56-4.84,1.13-2.26,2.76.24,4.2.44A14.43,14.43,0,0,1,101.13,79.05Z"/><path class="cls-319" d="M85.37,90.08a1.59,1.59,0,0,0-.17.83c-.24.5-.53.57-.91.13l-1.12-.19c-.11-2.62-2.14-3.69-4-4.93q-.21-4.26,4-3.94C84.58,84.52,86.29,87,85.37,90.08Z"/><path class="cls-320" d="M101.3,86h5.86c0,.34,0,.68,0,1,.53,1.25-.41,1.35-1.18,1.55-.61-.17.25-.19-.41-.12-.27,0-.4.11-.39.22s.13.11.4.12A2.56,2.56,0,0,1,107.21,90c-2,1.87-4,.89-6,0Z"/><path class="cls-321" d="M79.21,85.92c3.46-.07,6.92-.14,4,4.93-2.3.26-4.67.37-5.77-2.18C76.77,87.22,77.69,86.24,79.21,85.92Z"/><path class="cls-322" d="M84.29,91a3.13,3.13,0,0,1,.91-.13c0,3.09,0,6.22-4,7,.15-2.43,2-4,3-6C84.26,91.66,84.28,91.35,84.29,91Z"/><path class="cls-323" d="M67.44,113.07a12.22,12.22,0,0,1-3.9,4c-1.82,2.1-3.36,2.54-5.46,0-3.51-4.27-4.9-9.29-5.94-14.47A3.92,3.92,0,0,1,54.24,98h9c-2.69,1-4.2,3.72-3.47,5.66C61.19,107.44,62.66,111.77,67.44,113.07Z"/><path class="cls-299" d="M96.36,115.08c0-3.23-2.06-4.14-4.82-4-3.67.19-1.4,3.33-2.32,4.9l-1,.09a1.86,1.86,0,0,1-2.28.28c-5.45-4.32-8.75-.65-12.05,3.15a23.68,23.68,0,0,1-1.74,1.73,6.59,6.59,0,0,1-1.71,1.2,2.18,2.18,0,0,1-2-.21c2.76-4.35,6.61-7.69,10.5-10.89C80.57,110,81.52,109,80.23,107l1,0a4.84,4.84,0,0,0,5,2c3.51-2,7.22-1.76,11-1q4,3.66,7-.94l1.07,0c-1.31,3.08,2.1,3.94,2.84,6-2.21-1.32-4,0-5.84.93C100.51,115.39,98.58,116.06,96.36,115.08Z"/><path class="cls-324" d="M67.22,118.94c-1.23-2.62.75-4.12,2-5.85l2,.94C69.88,115.63,69.28,117.89,67.22,118.94Z"/><path class="cls-325" d="M97.24,108c-3.57,1.33-7.3,1-11,1,.5-2.76-1.92-4-3-5.91l.54-.6A26,26,0,0,1,98,101a3.49,3.49,0,0,1,1.38.77,1.3,1.3,0,0,1,0,1.46,3.47,3.47,0,0,1-1.28.73c-2.49.64-5.18-.1-8.28.93,3.38,1.61,6.06,0,8.75,0A3.65,3.65,0,0,1,101.2,106C100.33,107.6,98.11,106.37,97.24,108Z"/><path class="cls-261" d="M79.21,100l2,1c.47.87,2.55.07,2,2l-.07.11C81.12,103,79.36,102.57,79.21,100Z"/><path class="cls-326" d="M52.29,129l-2,1.07c-5.22-4-7.42-9.89-9.7-15.64-1.2-3-1.62-6.36-2.23-9.58-1.13-5.9-.33-6.78,5.84-6.83-2.47,7.74,4,26.38,10.1,28.05Z"/><path class="cls-264" d="M54.24,98c-1.74,5.15,2.09,17.51,6.26,20,1.29.77,1.87-1.13,3-1l-2.3,3-.44,0-.44,0c-1.61,0-4.31.47-4.64-.2-2.11-4.25-5.65-7.81-6.43-12.7a24.18,24.18,0,0,0-.31-3.45C47.39,98.62,49.86,97.46,54.24,98Z"/><path class="cls-327" d="M47.24,132c-1.13,1.47-2.16.56-2.78-.37-3.42-5.2-7.61-10-8.23-16.62,1.36-.25,1.41-.28,1.69.34C40.52,121.17,43.24,126.93,47.24,132Z"/><path class="cls-328" d="M63.3,129l3.94-3c4.3,4.6,10.52,5,15.9,7.18,1.79.74,4,.64,5,2.77,0,1.66,0,3.33,0,5-6.19-1.68-12.35-3.47-18.59-5-3.14-.77-4.76-3.5-7.33-5Z"/><path class="cls-329" d="M71.09,120.62c7.09-8.2,7.09-8.2,17.09-4.55l0,13.89c-4.72,1.6-15.42-2.38-17.3-6.46A4.06,4.06,0,0,1,71.09,120.62Z"/><path class="cls-330" d="M71.09,120.62c0,4.13,3.89,4.67,6.22,6.16A19.18,19.18,0,0,0,88.15,130c0,2,0,4,0,6-6.43-1.11-12-4.9-18.7-5.46-1.93-.16-1.68-2.86-2.22-4.49q0-.49.09-1c.54-1.46,2.09-2.11,2.78-3.46Z"/><path class="cls-328" d="M70.11,121.53c-.19,1.74-1.46,2.62-2.78,3.46,0-.31-.06-.62-.07-.93l1.13-1.84Z"/><path class="cls-331" d="M97.29,141c0-1.34,0-2.68,0-4,6.87-2.06,14-3.44,19.89-8a21.8,21.8,0,0,0,2.06-2c3.92,2.23,4.42,4,0,6.73C112.43,137.88,105.48,141.17,97.29,141Z"/><path class="cls-332" d="M97.23,126c0-3.31.07-6.61.1-9.92,1.43-1,2.87-1.87,4.71-1.17,1.75.34,3.49-1.83,5.17-.23s4.58,2.9,4.52,5.52c0,2.16-3,2.24-4.53,3.31C104.18,125.54,100.43,124.66,97.23,126Z"/><path class="cls-333" d="M97.28,131l0-3c5.48.35,9.93-2.32,14.38-4.94,1-.6,2.17-1.66,3-.37s-.6,2.16-1.52,2.73A38.6,38.6,0,0,1,97.28,131Z"/><path class="cls-108" d="M102,114.89l-4.71,1.17-.48,0-.49,0v-1c1.94-.59,3.84-1.44,6-1.06C102.23,114.31,102.14,114.6,102,114.89Z"/><path class="cls-334" d="M97.28,154v-3c10,.22,18.56-3.68,26.62-9.08,2.06-1.38,4.21-2.61,6.31-3.91,1.08.63,2.19,1.07.41,2.37-2.55,1.85-4.62,4.62-7.4,5.82C114.9,149.73,106.53,153.4,97.28,154Z"/><path class="cls-311" d="M129.22,98l4,0a3.84,3.84,0,0,1,2.15,3.2c-.16,5.95-2.6,11.13-5.61,16.07-1,1.63-2.24,3.36-4.69,2.82a12.69,12.69,0,0,1-4-3.94l.26-.28c3.55-3.74,4.75-8.56,6.15-13.29C128,101,127.92,99.25,129.22,98Z"/><path class="cls-335" d="M125.07,120.07c6.33-4.79,8.07-11.78,9.16-19.08,2.7-.85,3.32-.37,3,2.81a31.29,31.29,0,0,1-4.9,13.91,21.05,21.05,0,0,1-4,5.11l-.19.26a4.63,4.63,0,0,0-.91-.12C126.52,122,125.79,121,125.07,120.07Z"/><path class="cls-336" d="M93.24,113c3.85.9,1.17,4.1,2.12,6l-.21.95h-.91C93.64,117.68,92.94,115.41,93.24,113Z"/><path class="cls-337" d="M128.34,122.82c.1-2.13,1.43-3.59,2.65-5.18,3.43-4.45,4.39-9.8,5.21-15.17.25-1.61-.42-2.17-2-1.48-.33-1-.67-2-1-3,7.79,0,7.69,0,5.37,7.42-1.62,5.17-3.3,10.27-6.44,14.76C131.2,121.51,130.33,123,128.34,122.82Z"/><path class="cls-338" d="M129.22,98c.3,5.86-2.67,10.77-4.68,15.94a3,3,0,0,1-3.19,1.91A134.71,134.71,0,0,0,127.23,98Z"/><path class="cls-339" d="M117.35,111.85c.84-4.74,4.52-8.69,3.89-13.85h3c.7,4.15-1.32,7.66-2.68,11.32C120.81,111.25,119.51,112.28,117.35,111.85Z"/><path class="cls-234" d="M128.15,93l3.19-.1,1.88.11c0,.29,0,.58,0,.87l-1,.11C130.83,93.81,129.28,94.3,128.15,93Z"/><path class="cls-340" d="M155.19,91l2.88,1.88a62.23,62.23,0,0,1-6.69,0c-2.7-.27-.09-1.25-.13-1.9Z"/><path class="cls-316" d="M133.23,88c0,.33,0,.66,0,1h-5C129.64,87.33,131.54,88.22,133.23,88Z"/><path class="cls-341" d="M99.23,92l1.11-.08,1,1c.78,1.16.34,2.15-.42,3.1-2,3.38-4.72,5-8.7,4.07-1.94-.48-2.84-1.51-2.07-3.63C91.4,92.87,95.12,91,99.23,92Z"/><path class="cls-342" d="M100.25,95a2.48,2.48,0,0,0,1-2.1c1.08.13,2.28-.07,3,1-.56,2.3-2.42,4.07-2.35,6.7,0,1.48-1.16,2.32-2.8,1.43l0-.06c-4.25-1.44-8.75.42-13-1v-1c2-2.19,4.39-.56,6.5-.41C96.54,99.87,99.44,99.33,100.25,95Z"/><path class="cls-234" d="M99.2,102c1.29-.18,2.21-.86,2-2.2-.47-2.85,1.19-4.44,3.16-5.93l1.88.08c.33,1,.66,2,1,3-2.22-.3-3.82.2-3.85,2.87,0,2.1-.85,3.44-3.22,3.2a.6.6,0,0,1-.91-.09C99.24,102.65,99.22,102.34,99.2,102Z"/><path class="cls-318" d="M105.3,88a1.94,1.94,0,0,0,1.91-1c1.38,1,1.27,2,0,3a2.06,2.06,0,0,1-2-1c-.25-.24-.33-.48-.23-.7S105.2,88,105.3,88Z"/><path class="cls-343" d="M108.23,101c-1.34,2-1.38,4.85-4,6-1.79-2.76-.23-5.45,1-7.45S107.84,99.15,108.23,101Z"/><path class="cls-344" d="M99.25,103c.3,0,.6.06.91.09.35,1,.69,2,1,3l-3-.07c-1.54-1-1.54-2,.05-2.95C98.59,103,98.92,103,99.25,103Z"/><path class="cls-345" d="M100.25,95c.32,4.19-1.59,5.62-5.71,5.07a60.58,60.58,0,0,0-8.31-.06c-.79-3.9.39-7.8,3.56-9.36,2.66-1.3,6.89-3,9.44,1.33-4.22.08-6.9,2.27-8.53,6.38C95,100.18,98,98.64,100.25,95Z"/><path class="cls-322" d="M86.23,101c4.32.55,8.81-1.16,13,1a75.59,75.59,0,0,0-16,1l-2-2Z"/><path class="cls-346" d="M105.3,88c0,.35,0,.69-.07,1-.77-.29-2.4.56-2.15-1C103.26,86.93,104.5,87,105.3,88Z"/><path class="cls-347" d="M98.26,103a2.51,2.51,0,0,0-.05,2.95,19.34,19.34,0,0,1-7.81,1c-1.38-.15-2.83-.41-2.7-2.18.1-1.41,1.39-1.75,2.6-1.77C93,103,95.6,103,98.26,103Z"/></g></g></svg>