<svg xmlns="http://www.w3.org/2000/svg" viewBox="0 0 186.98 186.96"><defs><style>.cls-1{fill:#fefefe;}.cls-2{fill:#fdfdfd;}.cls-3{fill:#5d4826;}.cls-4{fill:#624a27;}.cls-5{fill:#574124;}.cls-6{fill:#594224;}.cls-7{fill:#654d2a;}.cls-8{fill:#584123;}.cls-9{fill:#56421e;}.cls-10{fill:#675929;}.cls-11{fill:#2f2722;}.cls-12{fill:#47361f;}.cls-13{fill:#7a5a34;}.cls-14{fill:#e0d3a4;}.cls-15{fill:#5d4628;}.cls-16{fill:#6b512d;}.cls-17{fill:#6f5428;}.cls-18{fill:#6d532e;}.cls-19{fill:#dfd49e;}.cls-20{fill:#6a4e27;}.cls-21{fill:#513e29;}.cls-22{fill:#74592f;}.cls-23{fill:#634b29;}.cls-24{fill:#d6c996;}.cls-25{fill:#9f955b;}.cls-26{fill:#936f40;}.cls-27{fill:#3a3731;}.cls-28{fill:#332d28;}.cls-29{fill:#312514;}.cls-30{fill:#89663b;}.cls-31{fill:#6a5f24;}.cls-32{fill:#7d712f;}.cls-33{fill:#907043;}.cls-34{fill:#88663b;}.cls-35{fill:#997745;}.cls-36{fill:#c9ad7a;}.cls-37{fill:#88683b;}.cls-38{fill:#4e4018;}.cls-39{fill:#402f12;}.cls-40{fill:#d5c190;}.cls-41{fill:#ac8c56;}.cls-42{fill:#957141;}.cls-43{fill:#775632;}.cls-44{fill:#87653b;}.cls-45{fill:#856339;}.cls-46{fill:#a3834e;}.cls-47{fill:#74652a;}.cls-48{fill:#41311e;}.cls-49{fill:#987443;}.cls-50{fill:#cec38e;}.cls-51{fill:#a5824e;}.cls-52{fill:#987644;}.cls-53{fill:#daca9b;}.cls-54{fill:#c7ad78;}.cls-55{fill:#9a7946;}.cls-56{fill:#d4c495;}.cls-57{fill:#b1915a;}.cls-58{fill:#ada065;}.cls-59{fill:#ad9d63;}.cls-60{fill:#82623b;}.cls-61{fill:#9a7644;}.cls-62{fill:#755930;}.cls-63{fill:#6e512f;}.cls-64{fill:#7d6137;}.cls-65{fill:#a78551;}.cls-66{fill:#8d6f41;}.cls-67{fill:#41311f;}.cls-68{fill:#887a3b;}.cls-69{fill:#b4a972;}.cls-70{fill:#6e5e29;}.cls-71{fill:#47381d;}.cls-72{fill:#8e6e40;}.cls-73{fill:#a99d65;}.cls-74{fill:#908a76;}.cls-75{fill:#403417;}.cls-76{fill:#7b6530;}.cls-77{fill:#aea56b;}.cls-78{fill:#3c3933;}.cls-79{fill:#413f39;}.cls-80{fill:#3b342c;}.cls-81{fill:#907040;}.cls-82{fill:#987645;}.cls-83{fill:#4f3e23;}.cls-84{fill:#c8af7d;}.cls-85{fill:#dac899;}.cls-86{fill:#997b4b;}.cls-87{fill:#b1945b;}.cls-88{fill:#c3a570;}.cls-89{fill:#a1985f;}.cls-90{fill:#b7ad75;}.cls-91{fill:#cbc08f;}.cls-92{fill:#362d24;}.cls-93{fill:#a78854;}.cls-94{fill:#9c7a49;}.cls-95{fill:#cabe82;}.cls-96{fill:#d0b783;}.cls-97{fill:#c9ac79;}.cls-98{fill:#c0a470;}.cls-99{fill:#e4d7a9;}.cls-100{fill:#c0b37e;}.cls-101{fill:#726428;}.cls-102{fill:#4f421d;}.cls-103{fill:#967343;}.cls-104{fill:#403d37;}.cls-105{fill:#997645;}.cls-106{fill:#4b4942;}.cls-107{fill:#45423c;}.cls-108{fill:#654d2d;}.cls-109{fill:#4f3c23;}.cls-110{fill:#a07f4b;}.cls-111{fill:#785934;}.cls-112{fill:#b2a568;}.cls-113{fill:#a39758;}.cls-114{fill:#c9bd90;}.cls-115{fill:#3e352d;}.cls-116{fill:#be9f69;}.cls-117{fill:#7e7057;}.cls-118{fill:#cfc793;}.cls-119{fill:#c4a773;}.cls-120{fill:#312b27;}.cls-121{fill:#494034;}.cls-122{fill:#574d3c;}.cls-123{fill:#dfcd9f;}.cls-124{fill:#bea16c;}.cls-125{fill:#c3b984;}.cls-126{fill:#ac9159;}.cls-127{fill:#dfcea2;}.cls-128{fill:#c6ab76;}.cls-129{fill:#ddca9d;}.cls-130{fill:#20190d;}.cls-131{fill:#63591d;}.cls-132{fill:#392c16;}.cls-133{fill:#766a34;}.cls-134{fill:#443a2f;}.cls-135{fill:#5a4e30;}.cls-136{fill:#6e502f;}.cls-137{fill:#6b4e2e;}.cls-138{fill:#d6cc95;}.cls-139{fill:#c6bc85;}.cls-140{fill:#aea56e;}.cls-141{fill:#7d5b35;}.cls-142{fill:#8b6a3e;}.cls-143{fill:#bfb480;}.cls-144{fill:#9d9889;}.cls-145{fill:#806338;}.cls-146{fill:#b08e57;}.cls-147{fill:#dac99a;}.cls-148{fill:#38322b;}.cls-149{fill:#88673c;}.cls-150{fill:#44361c;}.cls-151{fill:#e4d8ac;}.cls-152{fill:#88673b;}.cls-153{fill:#453c31;}.cls-154{fill:#5b4327;}.cls-155{fill:#aa8a55;}.cls-156{fill:#88653b;}.cls-157{fill:#7e5e34;}.cls-158{fill:#a9854e;}.cls-159{fill:#878170;}.cls-160{fill:#9e9360;}.cls-161{fill:#44361b;}.cls-162{fill:#2c2211;}.cls-163{fill:#6c5536;}.cls-164{fill:#423524;}.cls-165{fill:#7a5d38;}.cls-166{fill:#7c603c;}.cls-167{fill:#947741;}.cls-168{fill:#352a17;}.cls-169{fill:#6c5f2c;}.cls-170{fill:#41321d;}.cls-171{fill:#484641;}.cls-172{fill:#7c5d37;}.cls-173{fill:#3d3932;}.cls-174{fill:#d7c293;}.cls-175{fill:#ae8d55;}.cls-176{fill:#dfd0a2;}.cls-177{fill:#ceb582;}.cls-178{fill:#7b5b35;}.cls-179{fill:#917242;}.cls-180{fill:#272423;}.cls-181{fill:#8c6b3e;}.cls-182{fill:#3a2c1a;}.cls-183{fill:#484540;}.cls-184{fill:#3f2f1b;}.cls-185{fill:#785f36;}.cls-186{fill:#453724;}.cls-187{fill:#564728;}.cls-188{fill:#947242;}.cls-189{fill:#5b4b36;}.cls-190{fill:#525048;}.cls-191{fill:#3f3c36;}.cls-192{fill:#716631;}.cls-193{fill:#483721;}.cls-194{fill:#81623a;}.cls-195{fill:#ad8c52;}.cls-196{fill:#695740;}.cls-197{fill:#535048;}.cls-198{fill:#494741;}.cls-199{fill:#4d4b44;}.cls-200{fill:#bfa263;}.cls-201{fill:#969286;}.cls-202{fill:#9a9485;}.cls-203{fill:#8a8577;}.cls-204{fill:#3e311f;}.cls-205{fill:#745939;}.cls-206{fill:#543f22;}.cls-207{fill:#99968c;}.cls-208{fill:#494035;}.cls-209{fill:#493f35;}.cls-210{fill:#87673e;}.cls-211{fill:#8e897a;}.cls-212{fill:#aca796;}.cls-213{fill:#b5b1a6;}.cls-214{fill:#adaaa1;}.cls-215{fill:#6a5234;}.cls-216{fill:#44361d;}.cls-217{fill:#3e3831;}.cls-218{fill:#473d2f;}.cls-219{fill:#9a9687;}.cls-220{fill:#9c998f;}.cls-221{fill:#bcb17a;}.cls-222{fill:#6b502e;}.cls-223{fill:#322514;}.cls-224{fill:#554027;}.cls-225{fill:#231a0e;}.cls-226{fill:#a8a496;}.cls-227{fill:#b7b2a3;}.cls-228{fill:#cac4b4;}.cls-229{fill:#d2ccb9;}.cls-230{fill:#c4bdaa;}.cls-231{fill:#b79a5f;}.cls-232{fill:#9f9b8b;}.cls-233{fill:#aa8f61;}.cls-234{fill:#c8b074;}.cls-235{fill:#969282;}.cls-236{fill:#a6a294;}.cls-237{fill:#b1ad9c;}.cls-238{fill:#866843;}.cls-239{fill:#423f39;}.cls-240{fill:#545149;}.cls-241{fill:#5a574f;}.cls-242{fill:#4e4b45;}.cls-243{fill:#9b7846;}.cls-244{fill:#e8e1c9;}.cls-245{fill:#9c7846;}.cls-246{fill:#836139;}.cls-247{fill:#795933;}.cls-248{fill:#7a5d3a;}.cls-249{fill:#b79559;}.cls-250{fill:#a4804a;}.cls-251{fill:#7f613d;}.cls-252{fill:#5b564e;}.cls-253{fill:#5e5c55;}.cls-254{fill:#4c4a43;}.cls-255{fill:#7a5b36;}.cls-256{fill:#89683e;}.cls-257{fill:#87673d;}.cls-258{fill:#4f402b;}.cls-259{fill:#8a693d;}.cls-260{fill:#2c2726;}.cls-261{fill:#57544d;}.cls-262{fill:#906d40;}.cls-263{fill:#5c5951;}.cls-264{fill:#6e5334;}.cls-265{fill:#8e6b3e;}.cls-266{fill:#95764a;}.cls-267{fill:#5d5951;}.cls-268{fill:#9d9a8e;}.cls-269{fill:#a6a395;}.cls-270{fill:#b7b2a2;}.cls-271{fill:#c1bcab;}.cls-272{fill:#cac5b3;}.cls-273{fill:#d2ccba;}.cls-274{fill:#d9d3c0;}.cls-275{fill:#aeaa9e;}.cls-276{fill:#e5dec9;}.cls-277{fill:#ded8c4;}.cls-278{fill:#73593a;}.cls-279{fill:#644e32;}.cls-280{fill:#685033;}.cls-281{fill:#7e603c;}.cls-282{fill:#aeaba0;}.cls-283{fill:#ded8c3;}.cls-284{fill:#d5cfbb;}.cls-285{fill:#c5bfab;}.cls-286{fill:#beb9a8;}.cls-287{fill:#c9c5b8;}.cls-288{fill:#c4c1b7;}.cls-289{fill:#b9b3a1;}.cls-290{fill:#795c39;}.cls-291{fill:#dcd6c0;}.cls-292{fill:#e1dbc7;}.cls-293{fill:#d3cdb9;}.cls-294{fill:#e6dfc8;}.cls-295{fill:#bfbaa7;}.cls-296{fill:#e0d9c4;}.cls-297{fill:#b7b2a1;}.cls-298{fill:#dad3bf;}.cls-299{fill:#96764b;}.cls-300{fill:#cec8b4;}.cls-301{fill:#5e5b54;}.cls-302{fill:#c7ae6d;}.cls-303{fill:#c1a15d;}.cls-304{fill:#8c683c;}.cls-305{fill:#61492b;}.cls-306{fill:#a17d48;}.cls-307{fill:#4f3b21;}.cls-308{fill:#2b2011;}.cls-309{fill:#887c65;}.cls-310{fill:#524029;}.cls-311{fill:#b09362;}.cls-312{fill:#a3885c;}.cls-313{fill:#ccb46e;}.cls-314{fill:#beae8c;}.cls-315{fill:#58554f;}.cls-316{fill:#4d4b46;}.cls-317{fill:#52504a;}.cls-318{fill:#b99c5e;}.cls-319{fill:#a6814b;}.cls-320{fill:#d3c398;}.cls-321{fill:#e9e1c6;}.cls-322{fill:#b99b64;}.cls-323{fill:#cfb56b;}.cls-324{fill:#352816;}.cls-325{fill:#958e7c;}</style></defs><g id="Layer_2" data-name="Layer 2"><g id="Layer_5_Image" data-name="Layer 5 Image"><path class="cls-1" d="M141.22,0a47.59,47.59,0,0,1-9,9c-1.83.56-3.64-.89-5.48-.05A4.71,4.71,0,0,1,123,7.61c-1.1-1.86-2.76-2-4.64-1.49a22.11,22.11,0,0,1-13.13-3.36c-.81-.75-1.49-1.54-1-2.76Z"/><path class="cls-2" d="M104.23,0l1,1.94c-1.85,2-4.55,1-6.72,1.87-2.09.54-4.08-.48-6.14-.37-1.8.13-3.56.82-5.4.37-2.18-.87-4.9.19-6.73-1.89l1-1.92Z"/><path class="cls-3" d="M65.23,181.19c-1.43-.19-3-.16-3.83-1.65-1.94.87-3.57-.23-5.28-.83A21.77,21.77,0,0,1,50,175c-3.57-1.48-7.37-2.59-9.69-6.06l0,0a30.27,30.27,0,0,1-4.48-2.34,26.44,26.44,0,0,1-3.16-2.42,3.74,3.74,0,0,1-1.13-2.45c.41-4,5.14-3.32,6.68-6.1a4.87,4.87,0,0,0,.75-3.69c-.16-2,.86-3.14,2.77-3.54,2.35.13,2.52,1.78,2.5,3.56-.55,1.5.7,3,.11,4.47A10.38,10.38,0,0,1,43.06,158c-4.85,5.29-4.87,5.32,1.27,9.12A40.62,40.62,0,0,0,50,170.33c2.14.89,4.18,2.54,6.23-.57.89-1.35,3-1.09,4.66-.36,1.51,1.71-.41,2.06-1.13,2.89a3.09,3.09,0,0,0-.61,1c3.25,3.92,8.14,4.34,12.48,5.92,1.63.81,4,.12,4.88,2.44-.58,1.35-1.85,1.53-3.06,1.82a4,4,0,0,1-1.47-.08C69.77,182.42,66.85,183.8,65.23,181.19Z"/><path class="cls-4" d="M151,164.87l-1.79,1.23c-.58,1.94-2.35,2.27-3.91,2.91l-.1.05a10.07,10.07,0,0,1-6.06,3.86c-2.59,2.41-6.49,2.55-8.95,5.19-.9.85-2.24.92-3.13,1.79l-1.86.27a5.83,5.83,0,0,1-4,.93l-1,.12c-1.59,2.51-4.13,1.29-6.28,1.61a8.32,8.32,0,0,1-.85-.13c-1.26-.76-3,.59-4.09-1,1.64-3.28,5.09-2.48,7.75-3.48,1.12-.33,2.26-.63,3.38-1a21.66,21.66,0,0,0,5.69-1.9c1.56-.78,3.25-1.24,4.78-2.07.74-.44,1.47-.88,2.22-1.28a14.5,14.5,0,0,0,4.34-2.59,93.81,93.81,0,0,0,8.13-4.86,15.72,15.72,0,0,0,3.19-3.12,2.16,2.16,0,0,1,1.75-.74,3.8,3.8,0,0,1,2.3,2.3C152.64,164.08,151.88,164.52,151,164.87Z"/><path class="cls-5" d="M182.43,75c-.24.65.12.92.68,1.07a2.46,2.46,0,0,1,.79,2.14c-.63,2.26-.14,4.78-1.54,6.88-1,.27-1.49-.27-1.91-1a111.25,111.25,0,0,0-5.93-24.26,23.76,23.76,0,0,0-3-6.43,103,103,0,0,0-7-11.64c-1.12-1.43-2.16-2.91-3.24-4.37-.77-1.52-2.92-3.27.66-4.08a4.58,4.58,0,0,1,2.43,1.17c.83,1,1.47,2.12,2.33,3.09,1,.89.88,2.3,1.51,3.36l0,.1c2.3,1.37,3.28,3.59,3.9,6.05l1.17,2c1.85,1.29,2.33,3.56,3.76,5.15-.26,1-1.94,1.91-.06,2.92a9,9,0,0,1,2.17,3.72,20.67,20.67,0,0,0,2.84,9.27C183.53,71.6,182.78,73.29,182.43,75Z"/><path class="cls-6" d="M123.23,6.75c1,1.26,2.49,1.33,4,1.28,1.82.35,3.82.33,4.88,2.31.8,1.18,2,.58,3,.69,1.48.86,3.07,1.57,4,3.11.33,1,1.22.82,2,.91,3,1.55,6.27,2.64,8.12,5.77l2.82,2.26c1,.47,1.85,1,1,2.27a4.06,4.06,0,0,1-3.65.33c-2.91-2.13-6.24-3.64-9.05-5.94-6-4.84-13.34-7-20.3-10-1.34-.63-3-.93-3.26-2.79C117,5.6,118,5.52,119.07,5.51,120.68,5.18,122.19,5.18,123.23,6.75Z"/><path class="cls-7" d="M9.24,132c.5-2.71-2.58-3.72-2.87-6-1.32-1-.49-2.44-.6-3.68A1.64,1.64,0,0,1,7,120.56c2.33.16,2.44,2.18,3.14,3.71a22.33,22.33,0,0,0,1,2.61c2.12,4.21,4.3,8.39,6.64,12.48a25.54,25.54,0,0,0,2,3.33c.45.74.85,1.51,1.28,2.26,1.17,2.46,3.75,3.83,4.87,6.32a3,3,0,0,1-.45,2.75c-2.8.71-4-1.2-5.17-3.15-.39-.63-.78-1.26-1.16-1.9-3-2.19-3.27-6.34-6.28-8.49a7.32,7.32,0,0,1-2.46-4l0-1.55C9.07,134.35,9.89,132.9,9.24,132Z"/><path class="cls-8" d="M181.38,117a33,33,0,0,0-2.13,9.18,13.22,13.22,0,0,1-2,3.78l0,.1c-.45,3.06-1.38,5.89-3.91,7.94-.53.64.17,1.88-1.05,2.19-.76,1.78-1,3.92-3.21,4.71l-.81,1.13c-.49,1.07-.66,2.34-1.85,3l-1.11,1.29c-.57.75-.53,2.09-2,2a2.44,2.44,0,0,1-1.43-1.19,2.56,2.56,0,0,1,0-1.26,36.09,36.09,0,0,1,1.93-3.28c1-1.38,1.93-2.8,2.84-4.24,1.51-2.71,3.29-5.25,4.63-8.05a39.64,39.64,0,0,0,3.87-8.73c1-2.29,2.59-4.34,2.77-7a24.44,24.44,0,0,1,.49-3.52c.76-2,.39-4.46,2.23-6.09a2,2,0,0,1,1.42-.34,1.94,1.94,0,0,1,1.35,2.36,2.41,2.41,0,0,0-.2.92C182.38,113.52,183.22,115.73,181.38,117Z"/><path class="cls-9" d="M106.17,183.94l-.92.9c-3.87,2-8.19.66-12.2,1.6-3.17-1.39-3.23-3-.12-4.44a17,17,0,0,0,4.27-2.17,7.57,7.57,0,0,1,1.3-.73c1.12-.34,2.27-.87,3.15.45a2.56,2.56,0,0,0,2.52,2.09A4.5,4.5,0,0,1,106.17,183.94Z"/><path class="cls-2" d="M20.29,150.87c2,.4,2.58,3,4.84,3C27.57,153.59,27,156,28,157c1.2,1.83,3.33,2.86,4.24,4.93l1.17,1.58c.56,1.26-.09,1.52-1.17,1.42C26.93,161.4,22.13,157.39,20.29,150.87Z"/><path class="cls-2" d="M92.3,185.83c4.3-.51,8.58-1.41,13-1a4.52,4.52,0,0,1-3.78,2q-8.7.13-17.41,0a4.63,4.63,0,0,1-3.82-2c1.65-1.61,3.76-1.17,5.75-1.28C88.46,183.31,90.36,184.63,92.3,185.83Z"/><path class="cls-10" d="M185.39,95.94l-.2,1a1.12,1.12,0,0,1-1,.27c-1.17-.24-1.42,1.31-2.48,1.29a2.16,2.16,0,0,1-1.83-.68c-1.14-1.44-.52-3.5-1.74-4.9-1.47-1.16-3.64-.44-5-1.83a2.2,2.2,0,0,1,1-2.58,4.92,4.92,0,0,1,3.63-.37c3.37.86,4.52,4.73,7.78,5.75A2.46,2.46,0,0,1,185.39,95.94Z"/><path class="cls-2" d="M164.14,35.13l-1.75-1.19c-.53-.31-1.12-.5-1.66-.79A9.64,9.64,0,0,1,158.38,31a8.17,8.17,0,0,1-1.94-4.21,2.27,2.27,0,0,1,.78-1.83c4.29,1,4.21,6.46,8,8C165.65,34.1,165.11,34.72,164.14,35.13Z"/><path class="cls-2" d="M40.28,169c3.27,2,6.83,3.45,9.69,6.06C45.47,175,41.74,173.79,40.28,169Z"/><path class="cls-2" d="M13.33,139.94a31.4,31.4,0,0,1,5.8,9c-4.32-.92-3.95-5.88-6.89-8C12.05,140.05,12.31,139.59,13.33,139.94Z"/><path class="cls-11" d="M73.3,182.81c.73-1.09,1.91-.8,3-.94,3-2.2,5.9-.71,8.84.15a3.19,3.19,0,0,1,1.26,1.13.88.88,0,0,1-.7,1.25c-2.81-.12-5.66.54-8.43-.43a4.45,4.45,0,0,1-1-.08,3.86,3.86,0,0,1-2.59-.51Z"/><path class="cls-2" d="M149.25,20.82l-8.12-5.77C144.76,15.09,148.8,18,149.25,20.82Z"/><path class="cls-2" d="M173.3,138q2-4,3.91-7.94C178.41,133.91,177,136.49,173.3,138Z"/><path class="cls-12" d="M106.17,183.94c-1.16-.08-1.91-.59-1.92-1.85,1.56-1.55,3.21-1.52,4.91-.26,1.32.28,2.82-.32,3.94.87C110.76,183,108.66,184.55,106.17,183.94Z"/><path class="cls-2" d="M183.39,111l-1-2a10.56,10.56,0,0,1,0-4.68,2.18,2.18,0,0,1,1.26-1.52l.67.18C184.29,105.69,187.25,108.71,183.39,111Z"/><path class="cls-2" d="M183,78.05l.07-2c4.44,2,1.1,5.21,1.21,7.88l-.67.34a1.16,1.16,0,0,1-.89-1C182.84,81.5,182.44,79.75,183,78.05Z"/><path class="cls-1" d="M164.14,35.13,165.22,33c1.81.73,2.17,2.54,3,4-.46.83-.95,1.6-2.1,1A2.92,2.92,0,0,1,164.14,35.13Z"/><path class="cls-2" d="M65.23,181.19c2.06,1.65,5-.22,7,1.79a1.76,1.76,0,0,1-1,1C68.93,183.7,65.9,185,65.23,181.19Z"/><path class="cls-2" d="M139.17,172.92l6.06-3.86C144.34,172.12,142.73,174.05,139.17,172.92Z"/><path class="cls-1" d="M160.22,160c-1.22,2.74-3.76,1.78-5.84,2.08l-.36-.55c.83-1.95,2.48-3,4.3-3.84C159.9,157.65,159.63,159.16,160.22,160Z"/><path class="cls-2" d="M172.21,47,168.31,41C171.36,41.87,173.27,43.49,172.21,47Z"/><path class="cls-2" d="M114,182.83c1.82-1.6,4.37-.37,6.28-1.61C119.08,185.42,116.46,183.9,114,182.83Z"/><path class="cls-2" d="M56.12,178.71c2.06-1.64,3.48.8,5.28.83C59.18,182.14,57.55,181.07,56.12,178.71Z"/><path class="cls-2" d="M163.25,152l2-1.74c1.14,3.59-1.68,4-3.91,4.82l-.37-.61A2.62,2.62,0,0,1,163.25,152Z"/><path class="cls-2" d="M177.14,54.14c-2.83-.56-2.78-3.23-3.76-5.15C176.33,49.47,176.8,51.76,177.14,54.14Z"/><path class="cls-2" d="M145.33,169l3.91-2.91C150.09,170,147.6,169.33,145.33,169Z"/><path class="cls-2" d="M36.22,166.14a7.89,7.89,0,0,1,4,2.79c-2.41,1.25-3.52-.85-5-2A1.41,1.41,0,0,1,36.22,166.14Z"/><path class="cls-13" d="M77.22,184l8.94-.09c.26.2.35.42.28.63s-.16.34-.24.34l-6,.05Z"/><path class="cls-2" d="M181.38,117a8.46,8.46,0,0,1,1.81-5.08C183.37,113.87,185.39,116.5,181.38,117Z"/><path class="cls-2" d="M160.22,160l-1.74-2c-.68-.59-.28-1.12.07-1.65.75-.7,1.29-1.82,2.64-1.39l.17.15A4.78,4.78,0,0,1,160.22,160Z"/><path class="cls-2" d="M169,144.88c1.16-1.5,1.35-3.67,3.21-4.71C173.11,143.06,172,144.59,169,144.88Z"/><path class="cls-2" d="M132.08,10.34,127.2,8c2.06-1.7,3.46.05,5,1Z"/><path class="cls-2" d="M139.15,14.14c-1.61-.68-3.31-1.25-4-3.11C137.37,10.91,139.16,11.36,139.15,14.14Z"/><path class="cls-2" d="M184.36,97.26a5.11,5.11,0,0,0,.83-.29c1.17,2.23.07,4.12-.93,6l-.15-.09c-1.24-1.32-1.14-2.86-.75-4.45A2.53,2.53,0,0,1,184.36,97.26Z"/><path class="cls-2" d="M151,164.87c.32-.66.65-1.32,1-2,.21-1.38,1-1.59,2.13-1l.25.18C155.33,165.45,152.9,164.83,151,164.87Z"/><path class="cls-1" d="M121.25,181.1c1.16-1,2.42-1.61,4-.93C124.43,182.73,122.93,182.28,121.25,181.1Z"/><path class="cls-2" d="M166.12,38l2.1-1a3.15,3.15,0,0,1,.05,3.89Z"/><path class="cls-1" d="M157.22,25c0,.77-.07,1.54-.11,2.32-1.37.6-2.33,0-3.12-1.08A1.72,1.72,0,0,1,155.22,24,2,2,0,0,1,157.22,25Z"/><path class="cls-2" d="M155.22,24l-1,2c-.93.18-1.38-.1-1.07-1.12l-1.08-1.76C153.44,22.3,154.59,22.25,155.22,24Z"/><path class="cls-1" d="M13.33,139.94l-1.09,1c-2-.9-2.1-2.61-1.85-4.46Z"/><path class="cls-2" d="M182.43,75c-.11-1.64-.22-3.27-.34-4.91C185.38,71.47,183.66,73.23,182.43,75Z"/><path class="cls-2" d="M127.09,179.9c.12-2.22,1.61-2,3.13-1.79C130,180.16,128.51,180,127.09,179.9Z"/><path class="cls-1" d="M186.22,89c1,.67,1,1.34,0,2a1.42,1.42,0,0,1-1.36.41,1.51,1.51,0,0,1-.66-2.46A1.42,1.42,0,0,1,186.22,89Z"/><path class="cls-1" d="M36.22,166.14l-1,.83-3-2,1.17-1.42Z"/><path class="cls-2" d="M186.22,89l-1.79,0-.65-.49a3.58,3.58,0,0,1,.44-4.48l.1-.07Z"/><path class="cls-2" d="M166.38,149c.61-1,1.23-2,1.85-3C169.52,148.19,168.84,149.14,166.38,149Z"/><path class="cls-2" d="M179.25,60.78c-1.61-.72-1.41-2.5-2.17-3.72C178.58,57.85,180.45,58.42,179.25,60.78Z"/><path class="cls-2" d="M177.24,129.94c.43-1.39.44-3,2-3.78C180.48,128.43,178.61,129.05,177.24,129.94Z"/><path class="cls-2" d="M9.24,132A3,3,0,0,1,10.37,135a2.18,2.18,0,0,1-2.12-1Z"/><path class="cls-1" d="M71.24,184l1-1,1.1-.17-.09.31c.69.42,1.64.7,1,1.85C73.14,184.93,72,185.14,71.24,184Z"/><path class="cls-2" d="M74.23,185l-1-1.85c1.08,0,2.33-.64,3.05.77A2.08,2.08,0,0,1,74.23,185Z"/><path class="cls-2" d="M184.81,91.12l1.41-.14c-.22,1.67.59,3.5-.83,5-.09-.62-.17-1.25-.26-1.88A2.89,2.89,0,0,1,184.81,91.12Z"/><path class="cls-14" d="M23.25,33c2.78-.51,2.24-3.73,4.09-5,.24-1.77,1.92-1.4,2.95-2a6.8,6.8,0,0,0,.89-.22,3.44,3.44,0,0,1,1.56-1.55C36.4,24,39.18,21.91,42,19.75a12.46,12.46,0,0,1,5.76-2.81c2.3-.08,4.3.24,4.27,3.23-1.22,3.24-4.52,4.27-6.81,6.35-1.3,1.09-2.78,2.07-2.25,4.15A8.5,8.5,0,0,1,43.1,32a4.5,4.5,0,0,1-.18,1.36,2.48,2.48,0,0,1-.84,1.08,3.28,3.28,0,0,1-1.34.31C38.87,34.62,38.1,33,36.85,32c-2-1.61-4-2.58-5.71.3-1.45,3,.34,4.77,2.59,6.3,2.86,2.68,1.86,4.28-1.54,4.83a12.85,12.85,0,0,0-6.69,2.91c-3.43,2.18-5.35,1.44-5.42-2.83a10.53,10.53,0,0,1,1.19-4.17c.72-1.66,2.33-3,1.63-5.16A1.29,1.29,0,0,1,23.25,33Z"/><path class="cls-15" d="M23.15,33.88c4.06,2.48-.66,3.4-.91,5.11-1.52,1.78-2,4.12-3.2,6l-1.23,2.4c-1.17,2.39-3.35,4.21-3.91,7-.87,2.2-1.23,4.57-2.24,6.72-2.17,1.91-1,5.92-4.46,7-1.13-.9-.9-2.35-1.39-3.5,0-1.24-.74-2.6.52-3.66l2.22-3.87a5,5,0,0,1,2-5l4.68-8.29c1.16-2,1.94-4.34,3.9-5.84l1.1-1.18C20.89,35.53,20.94,33.63,23.15,33.88Z"/><path class="cls-16" d="M47.19,18c-2.55,1.75-5.22,3.37-7.64,5.29-2.23,1.78-4.47,2.68-7.23,1.6a1.18,1.18,0,0,1,1.06-1.57q3.42-2.76,6.86-5.5c2.62-2.95,6.23-4.27,9.67-5.85.33-.44.58-1,1.33-.69,1.55,1.22,1.68,2.67.69,4.31C50.87,17.37,48.7,17,47.19,18Z"/><path class="cls-17" d="M7.43,120.93l-1.25,1.2c-.43.28-.7.15-.85-.32-1.13-3.59-3.2-7-2.62-11-2.89-2.53-.71-5.91-1.49-8.79-.87-1.35-1.37-2.69.11-4a1.13,1.13,0,0,1,1.28-.31,5.28,5.28,0,0,1,2.59,3.4c.3,1.44.52,2.89.7,4.35,0,3.36,1,6.51,1.73,9.73C8,117.14,8.92,119.09,7.43,120.93Z"/><path class="cls-18" d="M51.27,15.1c.83-1.29.16-2.57,0-3.85l1-.38c1.89-1.23,3.63-2.81,6.1-2.8l3.88-1.24a6,6,0,0,1,5-2l1.06,0c1.14-1,2.77.3,3.87-.84l.1,0a1.21,1.21,0,0,1,1.33-.07,1.75,1.75,0,0,1,.91,1.79c-1.5,2.1-4.35,1.4-6.12,2.94-2.51,1.1-5.23,1.68-7.64,3.05a26.63,26.63,0,0,0-3.51,2.22C55.33,14.79,53.68,16.77,51.27,15.1Z"/><path class="cls-19" d="M2.2,98,1.76,98l-.43.09c-.7-3.14-1.52-6.28.13-9.39C2,87.56,2,86.14,3.23,85.37a10.19,10.19,0,0,1,2.43-1.2,16,16,0,0,1,4.95-.85c1.56.39,3,1,3.14,2.86-1.39,4.38-5.52,2.34-8.27,3.55-2.18,1.32-1.74,3.54-2,5.57C3.4,96.31,4.42,98,2.2,98Z"/><path class="cls-20" d="M3.32,86.09l-1.86,2.6c0-1.44,0-2.89-.05-4.33.4-2.78-1.11-5.78.93-8.39C2.26,73.46,3.47,71.31,4.26,69c2.12,2.31.93,5.31,1.67,7.91C5.36,80.08,6.4,83.67,3.32,86.09Z"/><path class="cls-21" d="M5.16,77c-1.95-2.45-.37-5.3-.9-7.91.34-1.33.67-2.67,1-4,.17-.44.42-.47.74-.14,1.32.64,1.21,1.85,1.22,3a18.47,18.47,0,0,1,.16,4.87A7.71,7.71,0,0,1,7,74.84,3.61,3.61,0,0,1,5.16,77Z"/><path class="cls-2" d="M49.91,11.94a50.62,50.62,0,0,1-9.67,5.85C42,13.47,45.73,12.31,49.91,11.94Z"/><path class="cls-22" d="M80.24,1.92c2.3.73,5-1.09,7.09,1-.72,3.41-3.47,2.83-5.85,3a3.38,3.38,0,0,1-1.24-.59C81.33,2.77,78.61,4,78.06,3.12a.69.69,0,0,1,.35-1Z"/><path class="cls-2" d="M1.22,102.06c2.16,2.65.11,6,1.49,8.79C-1.72,108.58.43,105.21,1.22,102.06Z"/><path class="cls-2" d="M2.34,76c-.49,2.78.71,5.74-.93,8.39C.23,81.4-1.26,78.41,2.34,76Z"/><path class="cls-2" d="M19.12,38a11.71,11.71,0,0,1-3.9,5.84C14.84,40.77,16.21,38.87,19.12,38Z"/><path class="cls-2" d="M10.54,52.13c-.66,1.66-1.33,3.32-2,5C6.13,54.22,7.56,52.86,10.54,52.13Z"/><path class="cls-2" d="M78.41,2.09c-.13.3-.27.59-.41.89-1,2.57-2.83,1.95-4.68,1.13l-1.09-.18C73.92,2.06,76.09,1.84,78.41,2.09Z"/><path class="cls-2" d="M58.36,8.07l-6.1,2.8C53.79,8.84,55.26,6.68,58.36,8.07Z"/><path class="cls-2" d="M30.29,26l-2.95,2c-.71-.15-1.89-.07-1.18-1.3C27.18,24.94,28.7,25,30.29,26Z"/><path class="cls-2" d="M67.2,4.84l-5,2C63.22,4.47,64.68,3.32,67.2,4.84Z"/><path class="cls-2" d="M23.15,33.88l-2.93,2.94c-.79-2.7.55-3.72,3-3.81C23.22,33.3,23.18,33.59,23.15,33.88Z"/><path class="cls-2" d="M33.38,23.29c-.36.52-.71,1-1.06,1.57l-1.14.95c-.44-1-1.23-2-.07-3C32.08,21.94,32.8,22.26,33.38,23.29Z"/><path class="cls-2" d="M6,64.89a3.72,3.72,0,0,0-.74.14c.46-1.32-2.52-3.54,1.06-4C6.22,62.29,6.12,63.59,6,64.89Z"/><path class="cls-2" d="M5.33,121.81a6.72,6.72,0,0,1,.85.32c.06,1.28.13,2.57.19,3.85C2.68,125.42,5.8,123.17,5.33,121.81Z"/><path class="cls-2" d="M72.13,4c-1.06,1.3-2.5.93-3.87.84C69.14,2.64,70.78,4,72.13,4Z"/><path class="cls-23" d="M119.43,5.89c-.89.13-1.77.27-2.24,1.19-2.1,1.84-4.31.55-6.43.14a30.16,30.16,0,0,0-6.19-.93,12.46,12.46,0,0,1-2.42-.39c-1.44-.89-4.05-.27-4-3.08,2.17-1.84,4.78-.18,7.1-.88,4.5,1.67,9,3.36,13.92,3.11.35.1.51.25.47.47S119.52,5.89,119.43,5.89Z"/><path class="cls-2" d="M119.43,5.89c-.09-.28-.18-.56-.28-.84,2.11-1.23,3.65-1.1,4.08,1.7Z"/><path class="cls-24" d="M80.44,5.23c2.49-.19,5-.47,6.89-2.32l5-.83c.41,1.44-.59,2.05-1.57,2.68C89.35,5.37,88,6,87.48,7.59a14.74,14.74,0,0,1-.77,1.83c-1,1.53-2,2.62-3.74.86-.42-1.62-1-3.13-2.65-4A.74.74,0,0,1,80.44,5.23Z"/><path class="cls-25" d="M90.26,4l2-1.94,5.85.74c.91,1.74,3.1.77,4.25,2a2.76,2.76,0,0,1-1.14,2.4c-3.1.09-5.68-2.78-9-1.59a3,3,0,0,1-2-.39A.9.9,0,0,1,90.26,4Z"/><path class="cls-26" d="M61.19,170c-2.84,0-6.46-1-5.39,4.19A69.79,69.79,0,0,1,39,164.83c-2.2-1.66-3.93-3.26,0-4.65,2.33-.83,2.68-3.89,5.28-4.23,4.22,1.1,8,2.92,10.23,6.89-2.1,2.95.65,3.14,2.27,3.73,2,.74,4.7.18,5.59,3A.86.86,0,0,1,61.19,170Z"/><path class="cls-27" d="M43.23,153c-.19-1.55.69-3.63-2-4-.23-1.54.93-1.65,2-1.9a5.78,5.78,0,0,1,4.36,2c6.41,6.49,14.44,10.3,22.59,14A40.22,40.22,0,0,0,80.62,166c2.13.33,5.39.14,4.77,4.05-8.82.39-17.13-1.95-24.9-5.67C54.28,161.4,47.73,158.64,43.23,153Z"/><path class="cls-28" d="M43.23,153a94.87,94.87,0,0,0,29.48,14.57c4,1.15,8.54.47,12.49,2.48a1.35,1.35,0,0,1,0,1.49c-2.39,2.47-5.33,1.77-8.2,1.41a8.93,8.93,0,0,1-2-.9,8.76,8.76,0,0,0-3.4-1C65.6,168.8,59,167.9,54.29,163l-10-7C44.15,154.87,41.19,154.76,43.23,153Z"/><path class="cls-29" d="M43.22,148a2,2,0,0,0-1.95,1c-.53.91-2.25,1.39-1,2.92a8.25,8.25,0,0,0-1,1.28c-2.84,5-6.64,6.22-9.6,3.13s-1.76-7.29,2.66-8.92c2.2.47,1.09,2.28,1.45,3.79,2.16-3.07,5.16-5,7.62-7.49.47-.49,1-1,1.45-1.44,2-1.9,3.89-3.89,5.84-5.83,1.07-1,2.1-2,3.69-1.92a1.82,1.82,0,0,1,1.42,2.13,6.57,6.57,0,0,1-1.9,2.82,32.48,32.48,0,0,0-4.08,5A14.56,14.56,0,0,1,43.22,148Z"/><path class="cls-30" d="M61.19,170l1.05,0h.63c1.64.39,3.25.91,4.9,1.31,1.81,1.93,5.17.9,6.65,3.46-.36,1.54-1.11,2.94-1.12,4.63,0,1.35-1.13,1.22-2.09.65-4.39-.39-8.2-2.44-12.08-4.24-1.7-.79-2.79-2-.9-3.79.21.2.41.42.64.6-.21-.2-.43-.4-.63-.61Z"/><path class="cls-31" d="M33.28,147.88c-2.88.39-4.41,1.81-4.1,4.93.21,2.06,1.23,3.51,3.13,3.91,2.79.59,4.68-.65,5.49-3.51.15-.5,1-.81,1.45-1.2,1.08,1.33.11,2.67,0,4-.94,3.65-6.28,2.1-7,5.95l-4.89-4.11c-.71-2.82-1.7-5.6-1-8.58a12,12,0,0,1,2.54-3.41c1.74-.53,3.49-1.11,5.28-.14C34.79,146.83,34.22,147.43,33.28,147.88Z"/><path class="cls-13" d="M71.21,180c1.6-1.31,0-4.59,3-5l.67-.07c2.89.26,5.44,2,8.42,1.85a4.37,4.37,0,0,1,1.11,1.72c.35,1.5,1.72,2.83.79,4.55l-9-1.15C75,180.12,72.45,181.81,71.21,180Z"/><path class="cls-32" d="M39.27,156c-1.14-1.34.48-2.68,0-4a6.71,6.71,0,0,1,1-.13C40.1,153.3,40.68,154.89,39.27,156Z"/><path class="cls-33" d="M120.28,178c-.74,1.17-1.94.94-3,1-3.68-1.8-7.27-2.76-11.3-.59-1.65.89-3.36-.73-4.8-1.85a5.41,5.41,0,0,1-.88-1.15,3.58,3.58,0,0,1-.27-3.56,3.34,3.34,0,0,1,1.27-.78c1.43-.39,2.92-.51,4.33-1a28.32,28.32,0,0,1,4.49-.51c3-.44,5.83-2.06,9-1.83,3.65.22,4.39,2.12,3,5.25A44.74,44.74,0,0,0,120.28,178Z"/><path class="cls-34" d="M101.24,176c2.71,1.53,5.28,1.9,8.14,0,3.79-2.51,5.51,1.27,7.86,3-2.34,1.95-5.82.66-8.08,2.84l-4.91.26c-1.16.18-2.28,1.52-3.46.39-.87-.84.2-1.68.44-2.51,1-1.63-1.14-2-1.26-3.15C100.1,176.11,100.39,175.62,101.24,176Z"/><path class="cls-35" d="M131.33,174.09a12.6,12.6,0,0,1-5.08,1.9c-1.37.85-2.13.31-2.53-1.08-.11-1.26,1.29-2.11.94-3.43-.64-1.28-2.06-2.13-2-3.76a2.78,2.78,0,0,1,.51-1.23c.7-.63,1.44-1.09,2.4-.54,1.38,2,2.91.66,4.39.16a6.25,6.25,0,0,1,3.36-.41c2,.88,3.9,1.79,4,4.38-.3,2.42-2.74,1.86-4,2.89C132,172.3,131.53,173,131.33,174.09Z"/><path class="cls-36" d="M137.27,170.08,133.15,166l.47-.49c4.57-.6.88-3.33,1.29-5a3.34,3.34,0,0,1,3.93-2.06,5.62,5.62,0,0,0,3.31,1.26,5,5,0,0,1,1.63,1.81,11.62,11.62,0,0,0,1.58,1.85,2.63,2.63,0,0,1,.87,1.6A20.46,20.46,0,0,1,137.27,170.08Z"/><path class="cls-37" d="M124.23,174c0,1.34.75,1.94,2,2-1.58,1.91-3.76,2-6,2-2.37-2.42.21-4.16,1-6,1.19-2.66,0-3.13-2.19-3.11.53-2.39,2-2.93,4.1-2-.22,2.25,2.13,2.66,3,4.14C125.35,171.92,125.21,173.24,124.23,174Z"/><path class="cls-38" d="M150.25,161l-1,.81c-.78.74-1.29.12-1.84-.36a6.4,6.4,0,0,1-1.11-2c-.44-2.39-1.78-4.71-.6-7.23,1.56-1.49,2.59-.52,3.44.82,1,1.62,2.18,2.8,4.29,2.16a6.33,6.33,0,0,1,2.63-.58,2.85,2.85,0,0,1,1.15.74,2,2,0,0,1,.37,1.3C156,159.52,153.24,160.44,150.25,161Z"/><path class="cls-39" d="M150.25,161c1.85-2.34,5.51-2.11,7-4.95,1-.47,2-.95,1.93.89-.24.36-.47.72-.7,1.09-.95,1.85-3,2.52-4.35,3.89-.82.11-1.75,0-2.13,1C151.42,162.24,150.84,161.59,150.25,161Z"/><path class="cls-40" d="M148.05,161.13l1.21.63c-.17,1.86-1.61,2.52-3,3.22l-1-1C144.88,161.77,145.92,160.92,148.05,161.13Z"/><path class="cls-41" d="M131.33,174.09c-.56-.4-1.1-1-.54-1.57.88-.89,1.77-.48,2.44.45Z"/><path class="cls-42" d="M165.25,41a44.41,44.41,0,0,1,7,11.95c.64,1.05.46,2-.68,2.39a2.84,2.84,0,0,1-3.36-1.49,14.5,14.5,0,0,0-5.07-5.25c-1.64-2.6-4.5-2.14-6.93-2.75a2.44,2.44,0,0,1-1.49-1.52c-.08-2.32,1.43-3.53,3.17-4.58a2.26,2.26,0,0,1,1.36,0C161,41.5,163.11,41.26,165.25,41Z"/><path class="cls-43" d="M175.25,59a61.46,61.46,0,0,1,6,25A1.05,1.05,0,0,1,180,84c-2.53-2.76-1.08-7-3.34-9.85-1.91.31-1.12,2.84-2.89,3-2.79-2.24-1.72-5.46-2.13-8.31,1.6-2.14,1.68-4.63,1.58-7.16A3.1,3.1,0,0,1,175.25,59Z"/><path class="cls-44" d="M172.21,68c1.54,2.81.09,6.28,2,9a15.54,15.54,0,0,0,6,7l1,0,1,1,.24.68a1.58,1.58,0,0,1-1,.93c-3.53-1.36-7.46.29-10.95-1.41-.84-3.87-1-7.84-1.66-11.72.62-2.1-2.31-5.83,2.7-5.92Z"/><path class="cls-45" d="M175.25,59l-1,3a1.48,1.48,0,0,1-1.77.36,5.87,5.87,0,0,0-2-3.32c-2.71-3.38-5.91-6.4-7.62-10.51l.41-.54c2.56.48,4.47,1.5,5.36,4.34.38,1.21,1.82,4.36,3.68.61C173.66,54.74,175.39,56.39,175.25,59Z"/><path class="cls-46" d="M165.25,41c-3.19,2.25-5.1,1.95-6-1-.26-2.26.05-4,3-3Z"/><path class="cls-47" d="M162.22,37c-2,0-2.22,1.82-3,3-.31,0-.62,0-.93,0a1.72,1.72,0,0,1-2.09.18c-.72-1.31-.07-2.45.44-3.62,1.45-1.31,1.16-4.88,4.63-3.61l1.12,1C158.82,34.75,162.56,36,162.22,37Z"/><path class="cls-48" d="M182.45,85.77a5.93,5.93,0,0,1-.21-.83c.32-2.29-.8-4.75.8-6.89.1,1.85.21,3.71.31,5.56C183.64,84.58,184.32,85.71,182.45,85.77Z"/><path class="cls-49" d="M120.24,8.94c7.42,2.45,14.86,4.83,20.94,10.07-.83.82-1.71.65-2.73.1,1.3,2.29,3.8,4,2.8,7.1-1.64.82-2.64-.36-3.78-1.16a26.31,26.31,0,0,0-6.8-4.14c-2.55-1.23-4.34-3.05-4.4-6.09a4,4,0,0,0-2.39-2,10.07,10.07,0,0,1-3.66-2.67A1.28,1.28,0,0,1,120.24,8.94Z"/><path class="cls-50" d="M153.15,24.84,154.22,26l2.89,1.36c.72,1.21,1.45,2.42,2.17,3.64a3.21,3.21,0,0,1-3.22.9c-2-.39-3.75-2.11-6-1.24-.36.21-.72.43-1.06.67-1.22,1-1.46,2.6-2.35,3.77s-1.77,3-3.89,1.65a6.19,6.19,0,0,1-.69-3.56,9.92,9.92,0,0,1,.39-2.24c1.17-3.26,2.71-6.12,6.84-6Z"/><path class="cls-51" d="M149.28,24.91c-2.5,1.53-4.88,3.2-6.08,6-1.3-1.39-2.51-2.82-2-4.95-1.3-2.76-2.48-5.6-5.94-7.58,2.9-1.18,4.24.79,5.9.59C143.6,21.36,147.5,21.68,149.28,24.91Z"/><path class="cls-52" d="M120.24,8.94V10l-.64.31a61.75,61.75,0,0,1-10.24-2.16A33,33,0,0,0,105.45,7a4,4,0,0,1-1.21-.64,1,1,0,0,1-.06-1.24c4.53-.56,8.58,2,13,2Z"/><path class="cls-53" d="M7.43,120.93c-.8-3.79-1.36-7.66-2.52-11.34A7,7,0,0,1,5.25,105c-1-3.28,1-3.4,3.3-3.14a4.76,4.76,0,0,1,1.38.62c1.73,5.26,3.82,10.32,7.86,14.32.87,2.21,1.26,4.57,2.09,6.79a14.92,14.92,0,0,1-.58,7.38,1.55,1.55,0,0,1-1.27.23c-1.46-.82-1.71-2.41-2.36-3.75a4.13,4.13,0,0,0-1.47-1.81c-1.53-.83-3.35.25-4.85-.72Z"/><path class="cls-54" d="M18.25,131l.92-6.8c4.3.64,3.3,4.78,4.82,7.25-1.51,2.72-1,5.47,0,8.21-.95,2.07,0,6.84-4.83,3.37A4.9,4.9,0,0,1,17,140.08c1.84-1.56.27-3.31.19-4.93S16,131.91,18.25,131Z"/><path class="cls-55" d="M23.24,139a2.35,2.35,0,0,0-.22-.45c-1.59-2.34-2.7-4.65.41-6.7,2.14.28,2.34,2.1,2.93,3.62,1.62,2.92,1.08,6.55,3.14,9.32a1.17,1.17,0,0,1-.26,1.23,3.33,3.33,0,0,1-1.84,3.06c-1.24.11-1.3,1.56-2.25,2-1.94-1.79-4.31-3.22-5-6C25.35,145.12,22.74,141.26,23.24,139Z"/><path class="cls-56" d="M18.25,131c-1.35,2.62.64,4.91.82,7.4.15,2.22-.68,2-2.1,1.68A73.22,73.22,0,0,1,10.17,127c.67-3.36,3.41-1.49,5.19-2.06a2.19,2.19,0,0,1,.89,2c-1.15,2.19-.34,3.41,1.93,3.92Z"/><path class="cls-57" d="M23.24,139c1.15.75,1.09,2,1,3.07-.13,1.55,2,3.21.2,4.48s-2.78-1.13-4.28-1.51l-1-2C23.91,145.13,21.48,139.93,23.24,139Z"/><path class="cls-58" d="M25.15,151.06c.45-1-.72-3.84,2.25-2-1.27,2.92.28,5.87,0,8.8-1.74-.78-.76-3.07-2.22-4C25.14,152.92,25.14,152,25.15,151.06Z"/><path class="cls-59" d="M15.36,125c-1.22,2-4,0-5.19,2.06a2.09,2.09,0,0,1-.82-2.15C11.37,124,13.38,123.13,15.36,125Z"/><path class="cls-60" d="M179.05,118.9c-.05,2.72-1.9,4.71-2.88,7-2.07.72-4.07-3.23-6.16-.08,0,3.94-2.14,6.89-4.62,9.65-.5.87-1,1.78-2.23,1.61-1.18-1.16-1.33-2.71-1.66-4.21A19.75,19.75,0,0,1,167,121.49a10.14,10.14,0,0,1,3.62-.93c1.65-.32,3.29-.92,5-.26.5-.19.46,1.21.89.47C177.15,119.72,177.58,118.69,179.05,118.9Z"/><path class="cls-61" d="M176.22,121a8.59,8.59,0,0,0-5,1c-1.63-4,1.09-7.09,2.22-10.51,0-1.15.06-2.29,1.41-2.76,2.18.37,2.52-1.75,3.7-2.74,2.42-2,3.51-1.22,3.5,1.74a5,5,0,0,1-.63,1.24c-1.8,1.64-.28,4.46-2.15,6.08S177.21,119,176.22,121Z"/><path class="cls-62" d="M167.18,143c-.77,1.47-1.2,3.17-2.8,4.08-1.62.32-2,1.51-2.15,2.93,0,.31,0,.62-.07.93a1.67,1.67,0,0,1-1.9.39c-1.29-1.22-2-3-3.46-4-1-2.15-4.05-1.8-5-4a1.65,1.65,0,0,1,.95-1.65c3,.19,3.44-4.25,6.64-3.74.52,1.48,1.45,1.73,2.75.9,1.28,1,1.28,3.2,3.39,3.3A2.61,2.61,0,0,1,167.18,143Z"/><path class="cls-63" d="M167.18,143h-2c-.68-3.15,2.73-4.67,3-7.57-1.12-1.6-2.73.55-3.93-.41,2.3-3,4.45-6.11,5-10,4.37,2.31,3.78,6.11,3,10Z"/><path class="cls-64" d="M172.2,135c-.4-3.5-.78-7-3-10,3-4.61,4.79-.45,6.95,1A31.64,31.64,0,0,1,172.2,135Z"/><path class="cls-38" d="M160.23,151l1.93,0c.36.36.72.73,1.09,1.09l-2.06,2.93c-1.1.21-.53,2.14-2,1.95a1.94,1.94,0,0,0-1.93-.89l0-.05C156.88,153.48,158.18,152,160.23,151Z"/><path class="cls-65" d="M176.22,121c-1.06-3,0-5,3-6-.06,1.3-.13,2.6-.2,3.89C177.65,119,178.07,121.52,176.22,121Z"/><path class="cls-66" d="M162.23,150c-1.29-1-1.16-2.1-.17-3.17.82-.89,1.63-.67,2.32.24A3.69,3.69,0,0,1,162.23,150Z"/><path class="cls-67" d="M181.4,108.93a2.64,2.64,0,0,1-.12-.88c1-1.2,0-2.7.63-4a.93.93,0,0,1,1.21-.1c-.17,1.69,1,3.58-.78,5C182,109,181.72,108.94,181.4,108.93Z"/><path class="cls-68" d="M86.2,184.85a3.93,3.93,0,0,0,0-1,2,2,0,0,0-.07-.73c0-.23,0-.46,0-.69.19-2.62-2.5-6.06,2.1-7.44,1.89,1.8.89,6.91,5.9,5.15a7.16,7.16,0,0,1,1.81-.86,3.66,3.66,0,0,1,1.36,0,1.93,1.93,0,0,1,1,.83,5.32,5.32,0,0,1-4.8,2.88c-2.44,0-2.27,1.26-1.23,2.83C90.22,185.8,88.38,184.28,86.2,184.85Z"/><path class="cls-69" d="M98.33,180.12,97.15,180c-1.09-1.61-.35-3.4-.54-5.11a2.17,2.17,0,0,1,.72-1.13c1.52-.37,2.63.56,3.83,1.21,0,.35,0,.7.08,1.05l-1,1a3.53,3.53,0,0,1-1.1,3A2.64,2.64,0,0,0,98.33,180.12Z"/><path class="cls-70" d="M99.12,179.91c.21-1,0-2.25,1.1-3,2.09.42,2.68,1.34,1,3C100.55,178.85,99.82,180,99.12,179.91Z"/><path class="cls-71" d="M179.21,92c2,1.73.63,4,1,6a6.65,6.65,0,0,0-.56.36c-2,.43-3.93.93-6,.45-1.18-.32-2.32-.74-3.47-1.15a224.87,224.87,0,0,0-32-.44c-2,.14-4,.3-5.85-.59-1-.75-1.8-1.57-1-3a4.68,4.68,0,0,1,2.53-1c11-.37,22,.52,32.9-1.12C170.94,91.32,175.05,92.33,179.21,92Z"/><path class="cls-72" d="M179.21,92c-3.84,2.26-8,.56-12,1-1.43-.93-1.64-2-.4-3.25A4.46,4.46,0,0,1,168,89.1a8.18,8.18,0,0,1,2.53-.54,2.28,2.28,0,0,1,1.19.42c.67.54,1,1.38,1.55,2C175.22,91.34,177.46,90.22,179.21,92Z"/><path class="cls-73" d="M184.81,91.12c.11,1,.22,2,.32,2.94-4.4,1.19-4.22-4-7-5l.44-.51c1.16-.65,2.42-1.08,3.58-1.74,1.78-.27,1.38,1.32,1.85,2.17h.45A1.89,1.89,0,0,0,184.81,91.12Z"/><path class="cls-71" d="M183.12,104h-.85c-1.48-1.73-5.11-2.73-2-6h0l2-.07c.63.73,1.33-.54,2,.09,0,1.63,0,3.27,0,4.9Z"/><path class="cls-74" d="M178.11,89l-3.86,0a2.54,2.54,0,0,1-3,.14v-.36c2.34-3.35,4.72-2.89,7.13-.08Z"/><path class="cls-75" d="M184.15,98c-.88.28-.88,1.73-2.05,1.53a13.69,13.69,0,0,1,.09-1.61c.53-.73.54-1.93,1.73-2,.12,0,.29.87.44,1.34A.69.69,0,0,1,184.15,98Z"/><path class="cls-76" d="M171.29,89.19l3-.14c-.34.64-.67,1.28-1,1.91C172.05,91,171.29,90.5,171.29,89.19Z"/><path class="cls-77" d="M155.52,31l3.76,0,2,2c-2.73,0-1.68,3.53-3.8,4.12a1.07,1.07,0,0,1-1.2.24,2.7,2.7,0,0,1-.79-1c-.38-1.23-.37-2.53-.65-3.78a2.53,2.53,0,0,1,.12-1.25Z"/><path class="cls-68" d="M85.22,183l-1.83-4.28c3.24-.46,3,1.8,3.07,3.88-.12.18-.24.36-.37.53A6.53,6.53,0,0,1,85.22,183Z"/><path class="cls-43" d="M184,88.94,182.18,87a.56.56,0,0,1-.28-.82,2.49,2.49,0,0,0,.54-.43c.31-.72.61-1.44.91-2.16a2.79,2.79,0,0,1,.87.37Z"/><path class="cls-78" d="M41.34,34.13a1.61,1.61,0,0,1,.83-.25c2.37.24,4-1.23,5.75-2.46,11.85-8.3,24.63-14,39.46-13.93,1.57.69,2.84,1.55,2.1,3.59-4.86,2.16-10.26,1.54-15.33,3.25a89.79,89.79,0,0,0-25.1,12.61c-1.56,1.15-2.95,2.74-5.12,2.83-1.62,0-2.74-1.1-4-1.93C38,35.69,39.82,35,41.34,34.13Z"/><path class="cls-52" d="M25.46,45.07c1.56-2.53,4.26-2.57,6.69-2.79,3.35-.3,2.11-1.73,1.07-3.27,3.91,0,4.39.91,2.75,5-7.4,2.83-10.15,9.62-13.55,15.87-1.54,2.84-1.75,6.48-4.94,8.33-2-1.32-1.83-3.75-3-5.52a6.08,6.08,0,0,1-.84-2.61,2.48,2.48,0,0,1,1-1.68,7.13,7.13,0,0,0,2.88-3.1c.66-1.3.8-2.86,1.89-4,1.22-.92,1.63-2.43,2.57-3.56C23.6,47.46,24.39,46.08,25.46,45.07Z"/><path class="cls-79" d="M87.21,18C77.09,19.47,67.11,21.34,58,26.54a100.34,100.34,0,0,0-11.17,7.27c-1.46,1.11-3.1,3.17-4.7.07A1.87,1.87,0,0,1,42.3,33c9.3-6.17,18.56-12.36,29.61-15.15a50,50,0,0,1,7.34-1.22,24.93,24.93,0,0,1,4.42-.05c-.43,0-1.06-.57-1.14-.53a5.27,5.27,0,0,1-4.33.08c1.16-3.6,4-2.73,6.6-2.46a5.13,5.13,0,0,1,2.54,2.43,2.85,2.85,0,0,1,.25,1.35Z"/><path class="cls-80" d="M79.25,17A92,92,0,0,0,46.1,32a5.62,5.62,0,0,1-3.8,1c0-.33,0-.66,0-1,2.07-4.11,6.57-5.28,9.77-8,5.85-3.74,12.4-5.76,19-7.73a19.38,19.38,0,0,1,5-.77A12.21,12.21,0,0,1,79.25,17Z"/><path class="cls-81" d="M41.34,34.13c.07,1.12-2.22,1.33-1.11,2.86.81.58,1.67,1.21,1.34,2.35-.4,1.38-1.57,1.45-2.76,1.32-4-1.87-5.9-5.81-8.76-8.81,1.84-4.44,4.55-3.4,7.45-1.18C38.87,31.72,39,34.2,41.34,34.13Z"/><path class="cls-82" d="M52.23,25l-9.95,7a4.12,4.12,0,0,1-.06-1C41,28.56,43.77,27.8,44.31,26.1A30.18,30.18,0,0,1,51.24,21a1.61,1.61,0,0,1,2.06-.18C54.08,22.5,53,23.7,52.23,25Z"/><path class="cls-83" d="M30.05,31.85c4.07,1.39,5.73,5.28,8.39,8.13,0,.22,0,.43.07.65,0,1.27,1.58,2.29.6,3.73a3.67,3.67,0,0,1-1.31.54,2.74,2.74,0,0,1-2.61-1c1.53-2.51,1.41-4.37-2-4.92C29.19,37.94,28.31,35.47,30.05,31.85Z"/><path class="cls-84" d="M53.21,20.89l-2,.11c.36-3.3-1.94-3-4-3l4.07-2.87c2.38.35,3.74-2,5.92-2.23,1.23.84,2.63,1.46,3.44,2.82C59.3,19.05,56.41,20.19,53.21,20.89Z"/><path class="cls-85" d="M25.46,45.07a3.73,3.73,0,0,1-3.07,3c-.9.38-.65,2.4-1.87,1.83-1.85-.86-2.19-2.75-1.84-4.7.31-1.33.82-2.45,2.47-2.41C20.82,47,22.54,47.18,25.46,45.07Z"/><path class="cls-86" d="M21.15,42.82c-.65.71-1.31,1.41-2,2.11a.66.66,0,0,1-1.1-.13c1-2.21,2.05-4.39,4.15-5.81C21.88,40.27,21.51,41.55,21.15,42.82Z"/><path class="cls-87" d="M44.31,26.1c.5,2.14-2,3-2.09,4.92C40.07,28.17,42.58,27.3,44.31,26.1Z"/><path class="cls-88" d="M18.09,44.8l1.1.13c1.17,1-1,5.23,3.2,3.17-.15,1.61-.29,3.23-2.21,3.82-1.35-.4-3,.51-4.12-.84-.17-1.53.74-2.75,1.15-4.11Z"/><path class="cls-86" d="M6.45,73.13c0-1.78-.7-3.66.78-5.23C9.31,66,7.79,62.12,11,60.8l.58.48c.63,2.88-1.35,5.25-1.57,8C9.14,70.81,9.74,73.77,6.45,73.13Z"/><path class="cls-86" d="M15.51,58.84l-1.35,1.35c-1.58-1.53-1.55,1.28-2.67,1L11,60.8a21.37,21.37,0,0,1,2-7,2.05,2.05,0,0,1,1.1.72C14.87,55.83,15.81,57.13,15.51,58.84Z"/><path class="cls-86" d="M17.21,47a5.83,5.83,0,0,1-1,4,5,5,0,0,1-1.55,3,1.28,1.28,0,0,1-1.28.16c-.13-.13-.27-.25-.41-.37C13.34,50.84,15.63,49.12,17.21,47Z"/><path class="cls-89" d="M8.79,102.21c-1.55.44-3.61.22-3.54,2.75-1.38-1.14-.77-2.69-.85-4.1-.17-3.35-2.69-6.73.12-10a1.23,1.23,0,0,1,1.23.5c.84,2,1,4.44,3,5.88C10.82,98.85,11,100.52,8.79,102.21Z"/><path class="cls-90" d="M5.22,91C2.14,94,6.34,97.71,4.4,100.86L2.2,98c.88-3-1.2-6.63,2-9.08.88-.5,1.21.06,1.47.76A1.75,1.75,0,0,1,5.22,91Z"/><path class="cls-91" d="M60.14,15c-2.38,1.29-2.74-.3-3-2.09a3.74,3.74,0,0,1,3-2,2.39,2.39,0,0,1,2-.28,1.88,1.88,0,0,1,.69,1.77,4.34,4.34,0,0,1-2.08,2.36Z"/><path class="cls-22" d="M80.44,5.23a2,2,0,0,0-.34.69c-3.16,2.63-7,2.32-10.78,2.68a1.38,1.38,0,0,1-1.07-1c1.28-2.55,4.39-.77,6-2.55,1.9-.71,3.81-1.36,5.82-.33C80.19,4.92,80.31,5.08,80.44,5.23Z"/><path class="cls-92" d="M80.07,4.76l-5.82.33-.93-1c1.5-.66,3.39.33,4.68-1.13l3.23.45Z"/><path class="cls-93" d="M62.21,11l-2-.05c2.26-2.14,5.37-2.21,8.07-3.27a.65.65,0,0,1,0,.56C67.21,11.27,64.92,11.57,62.21,11Z"/><path class="cls-94" d="M13.39,85.83,10.25,84a3.94,3.94,0,0,1-.86-1.16c-1.36-3.65-.11-6.67,2.24-9.44,2-1.37,2.38-5.22,6.09-4.07.76,5.24-2.52,9.83-2.38,15a4,4,0,0,1-.62,1.44A.84.84,0,0,1,13.39,85.83Z"/><path class="cls-95" d="M13.39,85.83c.28.06.55.11.83.15,1.23.33,2.19,1,2.07,2.37s-1.5,1.56-2.62,1.78a17,17,0,0,1-2.94.19c-1.79-.22-3.57.86-5.36,0L4.23,89c1.28-1.5,3.05-1,4.62-1C10.76,88,12.49,87.84,13.39,85.83Z"/><path class="cls-96" d="M10.15,83a4.59,4.59,0,0,1,.1,1,8.92,8.92,0,0,1-4.91,1,3.37,3.37,0,0,1,.31-4.42C8.1,79.61,9,81.51,10.15,83Z"/><path class="cls-94" d="M6.18,81c-1.25,1.16-.81,2.66-.84,4.07l-2,1.07C5,83.25,3.55,79.8,5.16,77c.15-.78.26-1.57,1.1-2C8,77,7.73,79,6.18,81Z"/><path class="cls-97" d="M6.18,81c0-2,.05-4,.08-6,.06-.63.13-1.25.19-1.87,2.63-.37,1.18-3.24,2.64-4.31a12.27,12.27,0,0,1,3.7,2.6A2.71,2.71,0,0,1,12.27,74c-1.74,2.77-2.95,5.65-2.12,9Z"/><path class="cls-98" d="M104.18,5.08a7.08,7.08,0,0,1,.16.8A4.52,4.52,0,0,1,103,7.76a2.28,2.28,0,0,1-1,.52c-.62-.17-1-.48-.76-1.22a2.39,2.39,0,0,1,1.19-2.23Z"/><path class="cls-99" d="M62.21,11c2-1,4.33-1.14,6-2.76L80.1,5.92c2.91-.11,4.26,1,3.1,4-1.64,1.72-4.2,1.73-6,3.22-3.45,1.57-7.31,1.39-10.87,2.63-2,.69-3.93-.13-4.11-2.81C62.24,12.3,62.22,11.63,62.21,11Z"/><path class="cls-100" d="M77.17,11.92c1.65-1.78,3.8-2,6-2,1.49,1.18,2.12-.25,3-1C87.56,10.17,88,12,89,13.45c.16,1.58.75,3.37-1.76,3.65l-1.83-2.19c-1.52-2.67-4.22-1.35-6.38-1.86A2.78,2.78,0,0,1,77.17,11.92Z"/><path class="cls-25" d="M88,13.12c-2.46-.58-1.43-2.68-1.83-4.16l.15-1.85a1.35,1.35,0,0,1,1.83-.4c1,1.69.17,3.56.55,5.32A1.41,1.41,0,0,1,88,13.12Z"/><path class="cls-100" d="M88.13,6.94l-1.81.17c.76-1.74,1.88-3,3.94-3.09,0,.32,0,.63-.05,1A2.21,2.21,0,0,1,88.13,6.94Z"/><path class="cls-101" d="M101.19,7.06,102,8.18A2.38,2.38,0,0,1,103.19,10c.08,1.27-.06,2.46-1.32,3.18-1.73-1-4.74,1.57-5.62-1.95,0-2.74-2-4.14-3.77-5.75l-.26-.62C95.87,2.9,98.45,5.32,101.19,7.06Z"/><path class="cls-102" d="M88.13,6.94l2.08-2,2-.09v.31a2.1,2.1,0,0,1,.46,2.11c-.92,1.62-.93,3.52-1.59,5.2-1.37,3.46-2.09.47-3-.38C86.43,10.38,87.48,8.66,88.13,6.94Z"/><path class="cls-103" d="M74.23,175c-2.3-1.07-5.27-.59-7-3-1.58-.89-3.4-1.16-5-2h0c-1.67-2.07-4-1.85-6.34-2.08A4.24,4.24,0,0,1,52,164c-.18-1.48,1.45-.75,2.26-1,5.93,2.48,11.67,5.44,17.94,7.05.74,1.13,2.06.48,3,1l1.09.94a4.06,4.06,0,0,1-.88,3.2,1,1,0,0,1-1.21-.14Z"/><path class="cls-104" d="M43.22,148a10.94,10.94,0,0,1,4-4c2.4.47,4.06,2.17,5.82,3.62a64.66,64.66,0,0,0,33.7,14.22,5,5,0,0,1,2.76,1,4.92,4.92,0,0,1,.59,4.39,11.44,11.44,0,0,1-3.74,4.09,1.19,1.19,0,0,1-1.17-.45c0-.27,0-.53,0-.8-.57-2.86-3.12-2.68-5-2.95-12.33-1.68-22.37-7.94-31.82-15.49C46.7,150.26,45.7,148.05,43.22,148Z"/><path class="cls-105" d="M85.18,170.8a4.18,4.18,0,0,0,.71.09c1,3-1.24,4.11-3,5.54-2.84,1.07-5.13-.79-7.63-1.47,0-1.14-.15-2.34,1.08-3.05C79.27,171.48,82.47,173.11,85.18,170.8Z"/><path class="cls-30" d="M75.23,171c-1.28.56-2.74,1.61-3-1C73.36,169.93,74.48,169.87,75.23,171Z"/><path class="cls-106" d="M51.24,139l2-2a4.34,4.34,0,0,1,1.29-.73c5.49,1.21,10.6,3.48,15.67,5.82a41,41,0,0,0,12.67,4c3.2.36,4-.89,4.18-3.82.09-2.16-1.17-5.09,2.26-6.12,2.55,5.4,1.08,11,1,16.59-2.47,4.44-5.68,5.13-11,4.49C69.67,156,62.79,150,55,145.62,53,144.5,49.79,142.7,51.24,139Z"/><path class="cls-107" d="M51.24,139c1.67,3.63,3.93,6.38,8,7.75s6.8,4.84,10.83,6.54c3.26,1.36,6.84,1.2,9.68,2.53,4.13,1.93,6.43-.56,9.4-1.85a7.43,7.43,0,0,1,0,9c-16.61-.58-30.3-7.59-42-19C48.19,142,49.08,140,51.24,139Z"/><path class="cls-108" d="M33.28,147.88l.93-2a2.52,2.52,0,0,1,.29-2.46,2.77,2.77,0,0,1,.9-.87c1.22-.43,2.46,0,3.69-.15a5,5,0,0,1,1.22.13A3.33,3.33,0,0,1,42.23,144c-1.72,3.31-5.64,4.51-7.47,7.79-.49.89-1.54,2.73-3,1.43-1.09-.94.12-2.06.71-3A14,14,0,0,0,33.28,147.88Z"/><path class="cls-109" d="M54.25,137l-1,0a2.14,2.14,0,0,0-1.09-2.07c-.35-1.64.79-2.48,1.8-3.4a11.86,11.86,0,0,0,3.37-3,8.81,8.81,0,0,1,1.37-1.36,12.66,12.66,0,0,0,2.66-2.71,3.19,3.19,0,0,1,1-.8,2.13,2.13,0,0,1,1.31.23,2.06,2.06,0,0,1,.91,1.75c-.81,2.74-3.52,4.11-4.74,6.56A16.09,16.09,0,0,1,54.25,137Z"/><path class="cls-110" d="M54.34,132.08l-2.22,2.82L49.25,137c-1.36.63-2.88,2.52-3.77-.49a4.14,4.14,0,0,1,.16-1.4,15.51,15.51,0,0,1,3.06-3.69c1.34-1.13,2.35-2.82,4.45-2.71a3.53,3.53,0,0,1,1.54,2.14A1.6,1.6,0,0,1,54.34,132.08Z"/><path class="cls-108" d="M46.24,136c.2,2.66,2,.61,3,1a20.69,20.69,0,0,1-6,5.95c-.76-.86-.73-2.07-1.33-3a2.57,2.57,0,0,1,.08-1.32C43.08,137.22,43.92,135.41,46.24,136Z"/><path class="cls-111" d="M42.22,140c2.64.21.69,2,1,3l-1,1a2.09,2.09,0,0,1-2-1.05C39.29,140.86,40,139.93,42.22,140Z"/><path class="cls-112" d="M58.24,172c.79.26,2.16-.64,2.25,1,0,.47-.73,1.43-1,1.38-1.21-.24-1.2-1.35-1.28-2.34Z"/><path class="cls-26" d="M62.24,170a5.82,5.82,0,0,1,5,2A5.71,5.71,0,0,1,62.24,170Z"/><path class="cls-113" d="M35.2,144l-1,1.84c-1.66-.12-3.29,1-5,.13,0-.35,0-.69,0-1-.21-1.06.5-1.49,1.29-1.85A4.45,4.45,0,0,1,35.2,144Z"/><path class="cls-114" d="M83.27,176c-.06-2.18,2.23-3.14,2.62-5.08l1.6-1.77c1.47-1.24,2.07-.24,2.27,1a6.14,6.14,0,0,1-1,4.23l-.62.5c-3.58,1.92.48,5.5-1.69,7.73-.85-1.43-1-3.4-3.07-3.88-.08-.58-.16-1.15-.23-1.73-.32-.27-.4-.51-.27-.73S83.15,176,83.27,176Z"/><path class="cls-30" d="M83.27,176c0,.34-.08.69-.11,1-3.59,2-6.09-.78-8.93-2h1Z"/><path class="cls-115" d="M123.21,167a6.17,6.17,0,0,0-4.1,2c-3.18-.23-5.9,1.62-9,2-.87-.9-2.54.26-3.16-1.26.92-2.36,3.44-1.58,5-2.59a45.72,45.72,0,0,1,7.36-2.08c1.48.13,3.4-.57,3.66,1.9Z"/><path class="cls-116" d="M112,172.61c2.41-.45,4.07-2.71,5.81-.2.56.81.84,2.38-.07,2.61C115.65,175.57,113.9,174.52,112,172.61Z"/><path class="cls-117" d="M112.23,168c-1.29,1.75-3.78.29-5.12,1.91-.83.89-2.09.46-3,1-1,.11-2.11.15-2.84,1.08l-1.16,0c-1.81-.38-1.29-1.49-.82-2.58C103.41,167.32,107.58,165.5,112.23,168Z"/><path class="cls-118" d="M99.22,170c.28.67.57,1.35.86,2l1.08,2.93a5,5,0,0,1-3.83-1,2.4,2.4,0,0,1-1-1.93c.12-1.38.53-2.48,2.22-2.39Z"/><path class="cls-119" d="M104.88,173.31c1.58-.61,2.63-.47,3.41.51a1.2,1.2,0,0,1-.35,1C106.64,175.14,105.38,175.15,104.88,173.31Z"/><path class="cls-120" d="M103.31,170.06l3.8-.16c1.06.17,2.28-.16,3,1l-4.81.22C104.33,171.41,103.2,172,103.31,170.06Z"/><path class="cls-121" d="M103.31,170.06l2,1c-1.17,1.26-2.68.87-4.11.87C101.22,170.54,101.94,169.94,103.31,170.06Z"/><path class="cls-122" d="M123.07,166.83c-1-1.38-2.58-.62-3.89-.89a1.05,1.05,0,0,1,.14-1.35,102.37,102.37,0,0,0,19.59-10.86c1.52-1,3.08-2.11,5.08-1.23a2,2,0,0,1,.84,1.83c-.27,1.48-1.48,2.11-2.57,2.85l-1.49,1.08a2.08,2.08,0,0,1-1.68.46L135.25,161a4.13,4.13,0,0,1-2.67,2.78,15.81,15.81,0,0,0-4,1.93c-1,.54-1.93,1.17-3.07.43Z"/><path class="cls-123" d="M125.47,166.15l2.72-1.19c2.07-.79,2.83-.25,2,1.94C128.49,167.29,126.07,172.38,125.47,166.15Z"/><path class="cls-124" d="M130.15,166.9c0-1.35-.78-1.82-2-1.94a5.9,5.9,0,0,1,4.09-2c1.19.62,1.88,1.45,1.21,2.86l-.34.19Z"/><path class="cls-125" d="M124.23,174c0-1.4.38-2.55,2-2.88C126.35,172.61,126.29,174,124.23,174Z"/><path class="cls-126" d="M141.1,156.9l3.06-2.06c3,.46,1.54,3.72,3.12,5.08l.77,1.21a5.17,5.17,0,0,0-2.81,2.87,1.87,1.87,0,0,1-2.05-2C142.59,160.24,142.56,158.28,141.1,156.9Z"/><path class="cls-127" d="M133.49,165.83,132.28,163l3-2c2.61,1.12,1.8,3.52,2.4,5.7Z"/><path class="cls-128" d="M141.1,156.9c5.06-.11,1.39,3.38,2.09,5.06a2.24,2.24,0,0,1-1-2.05,2.84,2.84,0,0,1-2.14-2.07Z"/><path class="cls-129" d="M140,157.84a3.51,3.51,0,0,1,2.14,2.07c-.86.36-1,2-2.26,1.48-1.07-.47-.59-1.76-.83-2.67Z"/><path class="cls-130" d="M154.28,156c-2.93,1.82-5,1.14-6-2.17a2.27,2.27,0,0,0-2-1.9,4.44,4.44,0,0,1-2.8-1.8,4.1,4.1,0,0,1-1-2.59,2.32,2.32,0,0,1,1.61-2.19,3.64,3.64,0,0,1,3.74,1.62,27.38,27.38,0,0,0,4,4.52C152.89,152.86,154.84,153.75,154.28,156Z"/><path class="cls-131" d="M160.23,151l-3,5-1-1c-2-1.63-.41-5.21-3.42-6.29-.86-.8-2.15-1.37-1.6-2.93,1.08-.92,2.33-.75,3.59-.56a6.59,6.59,0,0,1,2.4,1.75C159.74,147.12,160.34,148.77,160.23,151Z"/><path class="cls-132" d="M153.23,147.91c4.44.9,2.6,4.45,3,7.06l-1.94,1-3.06-4c-.52-1,3,.82,1-1.49C151.53,149.66,150.93,148,153.23,147.91Z"/><path class="cls-133" d="M144.26,149.79l2,2.14c.33,2.66.66,5.33,1,8-2.18-1-1.44-3.78-3.12-5.07,0-.61,0-1.21,0-1.81A2.4,2.4,0,0,1,144.26,149.79Z"/><path class="cls-134" d="M170.2,73c.52,4.29,1.35,8.55,1,12.9l-.75.19c-2.36-.84-2.25-3-2.65-4.92-.94-4.52-1.41-9.17-3.39-13.43-2.92-8.33-7.77-15.57-12.92-22.63-.78-2.25-1-4.15,2.38-3.68,1.17.48.91,1.66,1.24,2.55l1.15,1a11.89,11.89,0,0,0,1.84,1.12c4.67,6.68,9.69,13.19,10.64,21.69C168.55,69.72,169.54,71.32,170.2,73Z"/><path class="cls-45" d="M157.16,46.06,156.24,45c2.55.5,6.17-1.54,7,3l0,0C160.31,50.12,159.21,46.62,157.16,46.06Z"/><path class="cls-135" d="M155.09,44c-.29-.68-.59-1.35-.88-2a1.59,1.59,0,0,1-.42-1.32c.52-1,1.25-1.42,2.32-.72l2.18.09Z"/><path class="cls-136" d="M157.16,46.06c2.47-.78,3.63,2.57,6.05,1.94,2.69,3.63,6,6.77,8,10.94a16.26,16.26,0,0,0,.89,3l2.11.07c-1,1.89,2.76,5.37-2,6h0c-1.33-1.13-2.66-2-4,0C166.14,59.86,161.31,53.14,157.16,46.06Z"/><path class="cls-137" d="M180.2,84c-4.16-.46-6.87-2.16-6-7,.36-1.83-1-5,1.45-5.1,1.83-.09,3.49,2.54,3.6,5.2C179.36,79.38,179.87,81.66,180.2,84Z"/><path class="cls-138" d="M181.9,86.2c.09.28.18.55.28.82-.28,2.69-2.13,2-3.76,1.73a6.85,6.85,0,0,0-7.13.09l-2.9,1c-1-2.67.92-3.24,2.81-3.8l0-.12C174.82,83.64,178.38,84,181.9,86.2Z"/><path class="cls-43" d="M168.23,68c.26-1.19-.71-3.19,1-3.41,2.06-.28,2.1,2.15,3,3.42-5.14-.11-1,3.51-2,5A6.26,6.26,0,0,1,168.23,68Z"/><path class="cls-139" d="M172.1,61.9c-1.28-.69-2.43-1.42-.89-3C172.8,59.54,173,60.54,172.1,61.9Z"/><path class="cls-140" d="M156.11,39.93l-1.91,1c-2.43.72-3.16-.13-1.77-2.21A4.65,4.65,0,0,1,156.28,37l1.19.09C157,38,156.56,39,156.11,39.93Z"/><path class="cls-141" d="M127,13.86c.66,3.93,3,6.09,6.82,7.25,1.61.49,2.95,1.9,4.41,2.89a4.24,4.24,0,0,1,.45,3.68c-3.81,1.68-5.7-2.2-8.67-3a24.89,24.89,0,0,0-6.89-3.36c-1.62-.57-3.51-.89-4-3a5.49,5.49,0,0,1,4.09-3.51C124.47,14.6,125.56,13.59,127,13.86Z"/><path class="cls-52" d="M124.46,15.73c-2.2-.28-3.29,2-5.25,2.29l-.69-.07c-4.6-2.4-9.35-3.87-14.58-2.29-1.61-.12-3-.47-2.64-2.6,1.1-.78.86-2,.94-3.06,4.16-.15,8.16.92,12.23,1.55A6.84,6.84,0,0,0,120.21,10l0,0c1.77-.13,2.65,1.5,4.08,2A5.69,5.69,0,0,1,124.46,15.73Z"/><path class="cls-142" d="M138.26,27.94c0-1.31,0-2.62,0-3.94,1.06.59,1.46,2.16,3,2,.93,1.55,2.39,2.88,2,4.95,0,.65-.09,1.3-.13,1.95a1,1,0,0,1-1.24.09C140.5,31.41,138.74,30.12,138.26,27.94Z"/><path class="cls-143" d="M124.46,15.73c-.57-1.21-1.07-2.42-.15-3.7A2.59,2.59,0,0,1,127,13.86Z"/><path class="cls-144" d="M142.34,33.08a2.24,2.24,0,0,0,.73-.18c.05,1.35.09,2.7.14,4.05a1.3,1.3,0,0,1,.32,1.3c-2,2-2.32,6-6.47,5.53-.73-1.41.09-3.43-1.72-4.42-7.21-3.93-13.87-9.07-22.36-10.17a7.75,7.75,0,0,1-3.44-1.07c-1.74-1.19-3.79-.67-5.69-1-2.25-.61-4.7-.52-6.74-1.9a2.28,2.28,0,0,1-.24-2.16c4.68-3,9.16.34,13.74.5,1.69.05,3.32,1.11,4.53,1-2.56-1.2-6.59-.28-9.12-3.34,1.93-2.22,4.21-1.12,6.4-.64,8.32,1.83,15.72,5.74,23,10,1.8,1.07,3.49,2.52,5.71,2.75C141.51,33.27,141.92,33.17,142.34,33.08Z"/><path class="cls-145" d="M143.25,38c0-.35,0-.71,0-1.06,3.74-.85,2.19-6.2,6-7,.26.25.38.45.36.62,0-.17-.1-.37-.36-.63,2.48-1.88,4.43-.54,6.34,1a2.78,2.78,0,0,1-.58.05c-.86,1.49-1,3.35-2.31,4.61-2.32,2.1-4,4.94-7.17,6C142.44,41.84,142.87,39.91,143.25,38Z"/><path class="cls-98" d="M114.16,12.91c-3.79-1.7-8.33-.38-11.92-2.91-.08-.61-.15-1.21-.23-1.82l.33-.26c1-.59,3.37,1,2.86-1.86a6.74,6.74,0,0,1,4,.94A11.91,11.91,0,0,0,113,8.82C114.92,9.54,115.72,11,114.16,12.91Z"/><path class="cls-146" d="M114.16,12.91c0-1.9.08-3.81-2.75-3.59-1.59.13-1.53-1.47-2.19-2.32,3.65,1.05,7.57,1.13,11,3C119.69,14.1,116.58,12.78,114.16,12.91Z"/><path class="cls-147" d="M105.2,6.06l2.56,3.5c-2.38.73-3.77-.87-5.42-1.64-.15-1.48.8-1.88,2-2C104.62,5.93,104.91,6,105.2,6.06Z"/><path class="cls-148" d="M25.32,135.85a6.61,6.61,0,0,0-1.89-4c-2-2.24-1.88-5.62-4.26-7.63l-2.05-7a19,19,0,0,1-3.23-9.38c.34-3-1-6.51,2.85-8.24,2.93.22,2.67,2.58,2.77,4.45.62,12,5,22.55,11.49,32.42,1.18,1.81,2.52,3.56,1.87,5.94-.68,1.37-1.67.71-2.61.41C27.81,141,27.26,138,25.32,135.85Z"/><path class="cls-149" d="M15.23,108l1.89,9.16A20.41,20.41,0,0,1,9.3,102.28a3.46,3.46,0,0,1,4.3-1.46c1.92.63.9,2.53,1.12,3.88C14.89,105.8,14.4,107,15.23,108Z"/><path class="cls-150" d="M15.23,108c-.32-.71-1-1.48-.89-2.13.69-4.62-1.89-4.47-5-3.59l-.26,0-.25-.11C8.71,100.79,11,99,8.16,98c4.49-3.76,5.81-3.8,9.48-.28a2.08,2.08,0,0,1-.41,2.25C13.82,102,15.77,105.3,15.23,108Z"/><path class="cls-151" d="M18.18,130.91c-1.48-.07-3.3,2.07-4.37-.25-.93-2,1.14-2.75,2.44-3.67C16.89,128.3,17.54,129.6,18.18,130.91Z"/><path class="cls-152" d="M25.32,135.85c2.38,1.47,3.3,4.1,4.9,6.18a1.22,1.22,0,0,1,.05,1.87L29.22,145c-2-.22-3.15-1.91-2.55-3.31C27.76,139.12,24.86,138,25.32,135.85Z"/><path class="cls-153" d="M159.16,137.9c-2.54.59-1.83,5.88-6,4.13a2.36,2.36,0,0,1,.26-2.78c4.78-6.15,7.95-13.2,11.3-20.15,1.64-.9,2.15.38,2.78,1.44a1.58,1.58,0,0,1-.24,1.38l-5.14,11A7.39,7.39,0,0,1,159.16,137.9Z"/><path class="cls-154" d="M164.25,135a21.07,21.07,0,0,1,2.87-1.79,2,2,0,0,1,2.62.54,2.66,2.66,0,0,1-.11,2.25c-1.38,2.38-2.93,4.66-4.42,7-4.28,1.14-2.49-2.31-3-4-.43-1.08.15-1.6,1.06-1.95A2.18,2.18,0,0,0,164.25,135Z"/><path class="cls-155" d="M167.28,121.92a5.4,5.4,0,0,0-.15-1c-1-2.67.44-4.92,1.17-7.31,1.11-1.92,0-4.83,2.62-6.08,3.34-.19,2.28,2.89,3.3,4.43q-1.5,5-3,10Z"/><path class="cls-156" d="M163.24,137,162.18,139c-1.24.18-.36,2.73-2.06,2.07-1.22-.48-.82-2-1-3.14a7.43,7.43,0,0,1,3-5C163.69,134,163.07,135.6,163.24,137Z"/><path class="cls-157" d="M180.23,98c-1.51,2.74,2.89,3.48,2,6-.28,1.36.37,3-1,4.06-.18-.77-.3-2.18-.57-2.21-1.35-.15-1.81,1.07-2.34,2.06-.73,1.37-.71,4.91-3.19,1.07a3.93,3.93,0,0,1-1.14-2.55c0-2.8-2.9-5.68.19-8.41C176.23,98.6,178.22,96.93,180.23,98Z"/><path class="cls-158" d="M175.23,106c0,1,0,2,0,3-1.15.74-.93,1.91-1,3-1.44-1-.94-3.54-3.09-4a2.54,2.54,0,0,1-.46-2.82C172.74,102.4,174,104.19,175.23,106Z"/><path class="cls-159" d="M165.5,119.07c-2.48,8.53-7.5,15.69-12.32,23l-1.07,1a1.52,1.52,0,0,1-2,0c-.37-2.47,1.53-3.89,2.72-5.56A68.56,68.56,0,0,0,163.38,116a24,24,0,0,0,1.76-7,12,12,0,0,1,.29-1.45c1.11-3.4,0-6.91.47-10.34.73-1,1.77-.62,2.72-.67,1.86.6,2.47,2.17,3,3.81a3,3,0,0,1-.29,1.35c-1.34,2.88-1.38,6.06-2.14,9.07C167.92,113.52,168.5,117.08,165.5,119.07Z"/><path class="cls-160" d="M150.24,143l1.87.06c1.41,1.67,5.24.22,5.08,3.93A2.39,2.39,0,0,1,155,146c-2-1.8-5.3,1.22-6.89-1.93a1.22,1.22,0,0,1,2.15-1.14Z"/><path class="cls-161" d="M95.14,180.94c-5.08,2.1-6.82.59-7-6.05h0c.65-.57,1.13-1.52,2.27-1,1.34,1.54.69,4.17,2.86,5.25A7,7,0,0,1,95.14,180.94Z"/><path class="cls-162" d="M95.14,180.94a2,2,0,0,1-1.93-1c0-.25-.09-.51-.14-.77.37-2.88-1.74-6.39,2.14-8.37a2.83,2.83,0,0,1,1,2.12c-.22,2.31,1.74,4.62,0,6.93Z"/><path class="cls-161" d="M96.19,179.85l-.9-7c1.85-.39,1.11,1.52,1.85,2.1,1.5,1.65.41,3.31,0,5A4.47,4.47,0,0,1,96.19,179.85Z"/><path class="cls-117" d="M97.14,175l-1.86-2.1c0-.63,0-1.26-.07-1.89-2.69-4.81-.8-10-1.4-15,.12-11.47-.15-23,.13-34.42a4.38,4.38,0,0,1,1.13-2.65,1.35,1.35,0,0,1,1.69.51c1,1.66.85,3.52.86,5.33,0,13.28-.06,26.56.08,39.84,0,2.51-1,4.85-.72,7.35.12.66.23,1.32.35,2C97.27,174.27,97.2,174.63,97.14,175Z"/><path class="cls-163" d="M169.19,97.06h-3c-1.37,1.41-3.18,1.19-4.89,1.32-3.1.07-6.21-.25-9.29.32a76,76,0,0,0-11.19-.31c-3.92-.06-7.83,0-11.76,0-4.62-.57-9.47,1.25-13.9-1.33,0-1.79,1.38-2.24,2.6-2.3,4.84-.22,9.75-1.13,14.42,1.07,7-.09,14-.43,21-.65,6-.19,12.06,1,18.09,1.56l-.31.56A1.47,1.47,0,0,1,169.19,97.06Z"/><path class="cls-164" d="M132.19,95.83c-5.62.86-11.43-1.07-17,1.15a2.89,2.89,0,0,1-1.6.83c-3.88-1.37-4-2.18-1.13-5.56,6.35-.68,12.81-2.44,18.71,1.73Z"/><path class="cls-165" d="M131.22,94c-6.26-1.54-12.64-.76-19-.92-1.22-3.13,1.53-3.11,3.15-4a43.39,43.39,0,0,1,11.72-.17,14.06,14.06,0,0,1,6.06,3.6,1.12,1.12,0,0,1,0,1.42Z"/><path class="cls-166" d="M133.23,93.91V93c3.14-2.55,6.83-1.2,10.3-1.41,1.93-.11,3.88,0,5.82,0,2.4,0,4.8.15,7.2-.06,1.35-.18,1.86-1.52,2.91-2.14a6,6,0,0,1,2.28-.65c1.93,0,3.95-.37,5.47,1.32a2.57,2.57,0,0,0,0,2.94C155.93,94.61,144.57,94.08,133.23,93.91Z"/><path class="cls-167" d="M175.23,106c-1.27-.39-2.15-2.39-3.87-1-1.38-1.25-1.14-2.6-.24-4l.15-.45c.44-1.14-.78-2.25-.06-3.39l0-.45,3,1.27C173.06,100.85,175,103.3,175.23,106Z"/><path class="cls-74" d="M167.21,90.05l-6-.14c5.86-5.19,1.38-10.92.83-16.45,0-1.49-1.15-3.48,1.52-3.95.49,0,.71.76.92.74.8-.1.07-.53,0-.76a2.37,2.37,0,0,1,.72-2.52c2.55,4.66,3,9.89,4,15,.3,1.61.1,3.31,2,4.11-1,1.2-2.52,2.06-2.81,3.8Z"/><path class="cls-168" d="M145.19,41l6.94-6c1.67-.37,1.54-2.61,3.14-3.06,1.7,1.06,1.08,2.61.87,4.07-2.12,2.47-5.53,3.5-7.21,6.45-1.39,1.35-2.8,2.68-4.13,4.1s-2.79,2.67-4.1,4.1c-1.16,1-2.1,2.4-3.8,2.69-1.1-.29-1.4-1.14-1.47-2.14a4.34,4.34,0,0,1,.32-1.37C138.48,46.41,140.66,42.42,145.19,41Z"/><path class="cls-169" d="M148.25,42.36c1.38-3.67,4.95-4.65,7.89-6.41,0,.35.09.7.14,1-.63,1.16-1.8,1.55-2.83,2.23-1.85,1.2-.42,1.51.75,1.69,0,.35,0,.7,0,1-2.76-.43-2.36,1.25-2,2.93-.75.84-1.53.6-2.33.09C149.15,44.25,148.21,43.61,148.25,42.36Z"/><path class="cls-170" d="M155.27,31.88c-.76,1.31-1,3.13-3.14,3.06,1.22-1.1.5-3.6,2.81-3.91A2.16,2.16,0,0,1,155.27,31.88Z"/><path class="cls-171" d="M43.24,39C48,37.1,51.47,33.11,56,30.74,66.44,25.28,77,20.42,89.23,21a.8.8,0,0,1,1.27.24,1.78,1.78,0,0,1-.32,1.43c-2.25,2.07-5.2,2-7.91,2.43a67.92,67.92,0,0,0-35.73,17C44.23,42.37,43.09,41.38,43.24,39Z"/><path class="cls-172" d="M43.24,39a6.41,6.41,0,0,0,3,2.95,3.37,3.37,0,0,1,1.77.82c1.28,1.16,2.48,2.41,3.73,3.61,1.35,1.4,2.72,2.78,4.13,4.12,2.29,2.35,4.63,4.65,7,7,.88,1,1.93,2,1.66,3.58a4.79,4.79,0,0,1-2.58,2.25c-1.85-.1-3-1.36-4.1-2.6C52.06,54,45.48,48.15,39,42.21A2.19,2.19,0,0,1,38.12,40l.32-.05c2.55.18,3-.9,1.79-3C41.81,36.81,42.21,38.38,43.24,39Z"/><path class="cls-79" d="M90.16,21h-.93c.16-1.55-1.37-2-2-3l0-.05C90.36,16.92,91.45,17.81,90.16,21Z"/><path class="cls-173" d="M14.33,84.92c-.7-5.61,2.16-10.58,2.87-15.93a.47.47,0,0,1,.17-.82c3.15-7.26,6.25-14.54,11.16-20.88,1.76-2.26,3.65-3.8,6.66-3.36l3.05.07c1.38,2.14-.35,3.4-1.44,4.72A68.78,68.78,0,0,0,21.38,83c-.33,2.22-.43,4.67-2.47,6.27C15.92,89.37,15.88,86.35,14.33,84.92Z"/><path class="cls-174" d="M12.24,71c-2.39,1.23-2.81-.4-3.15-2.16C9,66,10.72,63.73,11.49,61.18c.76-.69,1-2.6,2.67-1,.38.6.77,1.2,1.16,1.8C15.67,65.46,15.59,68.78,12.24,71Z"/><path class="cls-175" d="M12.24,71q1.55-4.49,3.08-9c1.44,1.81,1.78,4,2.05,6.18a2.55,2.55,0,0,1-.17.82l-4.93,5Z"/><path class="cls-176" d="M13.39,54.13a4,4,0,0,1,.65-.26c1.07-.59,1.61-2.58,3.12-1.77s1.36,2.45,1.15,3.95c-.69,1.18-1,2.78-2.8,2.79C14.38,57.46,13.3,56.05,13.39,54.13Z"/><path class="cls-177" d="M18.31,56.05c-.84-1.87-1.24-4.58-4.26-2.18A3.85,3.85,0,0,1,16.22,51c1.35.18,2.9-.45,4,.94C19.56,53.3,18.93,54.67,18.31,56.05Z"/><path class="cls-178" d="M90.16,21c.33-2.26-.71-3.2-2.91-3,0-.29,0-.59,0-.88,1.38-1.1,1-2.57.8-4l.09-1c.7-.39,1.71,2.46,2.11-.13.29-1.86-.28-4,2-5,3,1.6,2.42,4.47,2.41,7.05-.07,17.44-.81,34.87-.41,49.49-.07-7.66,0-18.14,0-28.62,0-1.64-.32-3.35.74-4.84a1.17,1.17,0,0,1,1.63.12c1.33,1.94,1,4.16,1,6.28q0,16.2,0,32.37c-.9,4.19,2.66,2.72,4.47,3.48a6.46,6.46,0,0,1,1.63,1.09c2.09,2.51,5,.22,7.3,1.2,1.15,1.41,0,2.36-.73,3.31s-1,2,.48,2.54c2.23,1.22,1.44,4.5,3.85,5.59a5.09,5.09,0,0,1,.6,3.88c-.68,1.33-3.24.86-3,3.1-1.82,2.76-.77,4,2.24,4.12a3,3,0,0,1,.33,2.87c-2,2.49-2.09,6.07-4.73,8.18-2.54-.58-2.7-2.66-3-4.67a6.29,6.29,0,0,1,.3-2.07,7.07,7.07,0,0,0,1.07-4.82,41.61,41.61,0,0,1,.26-7.65c-.27-2.5-2.33-4.07-3.23-6.24-.46-1.93-.88-3.9-3.57-3.68a51.67,51.67,0,0,0-12.07-3.3c-1.33-.58-3-.63-3.83-2.4,1.46-1.55,3.45-3,2.78-5.69.08-9.43-.11-18.86,0-28.28.09-3-.16-6,0-8.95a35.14,35.14,0,0,1,.12-5.23A9.1,9.1,0,0,1,90.14,22C90.15,21.69,90.15,21.34,90.16,21Z"/><path class="cls-179" d="M79.28,12c2.47,0,5.36-.85,6.09,2.87-2.59-1-4.94-.18-7.25,1-.54.72-1.17.65-1.84.18l-5,1.05-.59-.38c-1.07-1.78-1.32-3.16,1.46-3.23C74.63,13.46,77.18,13.82,79.28,12Z"/><path class="cls-180" d="M76.28,16.07l1.84-.18,5.43.28c-1.48,1.35-3,.6-4.3.86C78.19,16.94,77,17.21,76.28,16.07Z"/><path class="cls-181" d="M53.21,20.89c1.88-2.49,5.61-2.79,6.93-5.93l.17.08c3.6.66,7.49-.39,10.84,1.83l.16.25C64.86,19.53,58.26,21.55,52.23,25,52.56,23.62,52.89,22.25,53.21,20.89Z"/><path class="cls-182" d="M38.12,40C46.93,46.87,54,55.51,62.25,63c2.11.51,3.18,2.37,4.73,3.63,2.86,2.9,5.77,5.77,8.66,8.65,1.27,1.58,3.26,2.72,3.14,5.14a2,2,0,0,1-.81,1.1,3.48,3.48,0,0,1-2.74,0,18.4,18.4,0,0,1-3.7-3.11q-3.89-3.94-7.85-7.82c-2.21-2.31-4.5-4.53-6.75-6.79-.9-.94-1.79-1.9-2.75-2.79-.32-.28-.62-.59-.91-.9-1.15-1.25-2.38-2.43-3.6-3.62a25.2,25.2,0,0,1-2.17-2.44A86.38,86.38,0,0,0,41,47.54,4.52,4.52,0,0,1,39.24,44C38.55,42.77,36.05,42,38.12,40Z"/><path class="cls-183" d="M39.24,44l2,3c-.1.23-.19.45-.28.68A77.06,77.06,0,0,0,24.12,79.79a30.29,30.29,0,0,0-1,11.55,4,4,0,0,1-2.27.73c-1.67-.32-3.61-.42-2.66-3,1.53-1.87,1.67-4.23,2-6.44A67.5,67.5,0,0,1,36.38,47.36c.88-1,1.89-1.88,1.86-3.36Z"/><path class="cls-184" d="M17.24,98c-3-3.61-6-.49-9.08,0-2.59-1.24-3.65-3.18-2.74-6a1.54,1.54,0,0,1,1.4-.13c.46.21.92.41,1.4.58,4.49.4,9,.11,13.48.13,12.89-.09,25.78-.31,38.67,0,4.55.48,9.25-.93,13.68,1.07a1.5,1.5,0,0,1,.24,1.73c-1.75,2.41-4.38,2-6.8,2-12.06.06-24.12,0-36.18,0a20.93,20.93,0,0,0-5.91.38,14.64,14.64,0,0,1-2.54.42A18.59,18.59,0,0,1,17.24,98Z"/><path class="cls-150" d="M6.23,92H5.42c-.06-.34-.13-.68-.2-1a.68.68,0,0,0,.15-.64C7,90,8.29,88.27,10.22,89c.56,1.49-.76,1.78-1.53,2.42A4.17,4.17,0,0,1,6.23,92Z"/><path class="cls-93" d="M71.15,16.87C67.4,17,63.91,15.73,60.31,15c-.11-1.41.65-2,1.94-2.06,1,.83,1.83,2.47,3.2,1.76,3.72-1.9,8-1,11.72-2.82l2.11.12c-.16,4.37-3.32,1.39-5,1.85C72.5,14.39,70.17,13.63,71.15,16.87Z"/><path class="cls-185" d="M8.18,91l2-2c.83,0,1.67.06,2.5.14,3.48.36,3.31-1,1.5-3.16,0-.35.08-.7.11-1.06L18.19,89c.16,2,1.65,1.93,3.06,2a1.58,1.58,0,0,1-.07,2.26,33.15,33.15,0,0,1-6.53.17C12.72,92,9.92,92.86,8.18,91Z"/><path class="cls-186" d="M95.34,30.1V73.37c-2.67-1.56-2.13-3.59-2.14-5.41,0-18.22,0-36.43,0-54.64,0-2.14.28-4.34-1-6.3,0-.61,0-1.22,0-1.83,3.32.52,5.47,2,5,5.81-1.51,2.38,1,3.89,1.27,5.89a3.85,3.85,0,0,1-.68,1.24c-1.67,2.05-1.6,4.52-1.5,6.91C96.4,26.85,96.57,28.58,95.34,30.1Z"/><path class="cls-187" d="M98.28,17.05c-3.17-1.52-3.29-3.58-1-6.05,0,1.28.59,1.71,1.8,1.1s2.14-.87,2.27,1a2.53,2.53,0,0,0,2.94,1.8c1.48-.26,3.08-1.16,4.19.73-1,2-3,1.48-4.61,2A10.28,10.28,0,0,1,98.28,17.05Z"/><path class="cls-188" d="M90.2,174l-2,.89c-1.15-1.81,2.85-4.22-.66-5.77.19-1,1-1.05,1.73-1.19,1.09-4.25.24-8.58.54-12.87.13-1.79-.52-3.66.57-5.35,2.68-.47,3.09,1.49,3.15,3.3.18,6.38.56,12.78-.31,19.15C93,173.66,93.19,176.65,90.2,174Z"/><path class="cls-189" d="M90.27,150.05c-.69,5.94,1.26,12-1,17.88,0-1.65,0-3.3,0-5q0-4.5,0-9c-.5-6,1.22-12.1-1-18l-.5-.65a4.4,4.4,0,0,1-.07-2.44c.9-5.2-1-10.61,1.22-15.7,2-.82,2.52.57,2.9,2.08-.32,6-.15,12-.12,18C91.28,141.52,92.87,146,90.27,150.05Z"/><path class="cls-190" d="M54.25,137a15.8,15.8,0,0,1,4.92-5,6.76,6.76,0,0,1,3.3-2.59c1.47-.23,2.51.58,3.47,1.51a11.55,11.55,0,0,0,9.44,3.41,6.78,6.78,0,0,1,3.39.42c1.92.83,3.71,4.07,5.91-.09.68-1.28,2.68-.07,3.55,1.34h0c0,1.49,0,3,0,4.47,0,7.6-3.2,9.22-10.51,6.41C72.17,144.71,67.31,141,61,140.38,59,140.2,57,137.19,54.25,137Z"/><path class="cls-191" d="M17.24,98c1.4-1.67,3.32-.76,5-1a11.37,11.37,0,0,1,3.33,8.58c0,11.65,4.79,21.55,11.3,30.83,1.36,1.94,3.67,3.61,2.37,6.55-1.3,1.86-2.66-.32-4,0a2.41,2.41,0,0,1-3,0c.42-3.81-2.8-5.8-4.35-8.62-5.51-10-9.95-20.39-9.71-32.19,0-.71-.62-1.44-.95-2.15C17.23,99.31,17.24,98.64,17.24,98Z"/><path class="cls-107" d="M39.24,142.94c-2.31-5.88-7.25-10.11-9.67-16-2.91-7.11-6-14.1-5.23-21.94.31-3.11-2.5-5.07-2.1-8l2,0c1.29-.76,2.65-.49,4-.24,1.11,1,1.22,2.32,1.29,3.64.62,12.43,4.18,23.8,12,33.65,1.19,1.49,2,3.09.71,5,0,.33,0,.65,0,1a3.09,3.09,0,0,0-2,3l-.48,0Z"/><path class="cls-192" d="M32.24,142.94l3,0L35.2,144l-4.93-.13c0-.62,0-1.24-.05-1.87Z"/><path class="cls-193" d="M64.31,125l-1.1-1.1c1-4.62,4.78-7.27,7.69-10.53,3.29-2,4.73-6.45,9.21-6.81A3,3,0,0,1,81.69,108a4.48,4.48,0,0,1-1,4.07c-4.47,3.44-7.88,8-12.38,11.44-.54.37-1.1.7-1.66,1C66,125,65.23,125.49,64.31,125Z"/><path class="cls-194" d="M71.28,114l-8.07,9.9a4.35,4.35,0,0,1-1,.07,3.46,3.46,0,0,1-3.2-.95c-.27-2.49,2-3.11,3.32-4.42,2.19-2.18,4.55-4.21,6.22-6.86,1.54-1.74,2.9-3.72,5.34-4.35a2.57,2.57,0,0,1,1.3.33C75.52,110.84,72.38,111.79,71.28,114Z"/><path class="cls-195" d="M59.21,123c1.1.08,2.31-.15,3,1h0a29.57,29.57,0,0,1-3.17,3.8l-1,1a.71.71,0,0,1-1,.44c-.94-.56-2.15-.47-3-1.23-.34-1.59.76-2.51,1.63-3.54C56.71,123.65,57.56,122.38,59.21,123Z"/><path class="cls-196" d="M64.31,125l1.93-1c1.39,3.8-2,4.44-4,6l-3.08,2C59.61,128.71,63,127.64,64.31,125Z"/><path class="cls-194" d="M57.16,128.83a4.39,4.39,0,0,0,.89,0,4.4,4.4,0,0,1-3.71,3.28,6.56,6.56,0,0,1,0-1C54.61,129.51,55.45,128.62,57.16,128.83Z"/><path class="cls-194" d="M59.08,127.79a5.73,5.73,0,0,1,3.17-3.8A4.08,4.08,0,0,1,59.08,127.79Z"/><path class="cls-197" d="M56.31,125.1l-2,2.93a1.37,1.37,0,0,1-1.08,1l-4,3.08c-6.77-8.86-11.22-18.68-12.21-29.89-.16-1.87-1.22-3.9.52-5.62,3-.17,6-.06,9-.06,1.53.65.58,1.52.18,2.31-2.44,4.92-1,9.58.93,14.21.59,1.36,1.93,1.54,3,2.21C54.33,117.45,56.83,120.47,56.31,125.1Z"/><path class="cls-198" d="M42.25,139a5,5,0,0,0-1.16-3.65C31.7,124.27,28,111.3,28.25,97c1.81-1,3.75-.35,5.63-.43,1.63,3,1.17,6.37,1.58,9.54a50,50,0,0,0,9,23.31c1.18,1.65,3.19,3.16,1.87,5.68a3.57,3.57,0,0,1-.07.86Z"/><path class="cls-199" d="M46.31,135.1c-2.76-5.71-7.47-10.32-9.29-16.57-2.05-7-4.4-14-2.77-21.52a2.37,2.37,0,0,1,3,0c1.43,3.2,1.37,6.7,2,10.06,1.24,7.21,3.62,13.94,8.34,19.6a7.68,7.68,0,0,1,1.75,5.42Z"/><path class="cls-200" d="M53.27,129l1.08-1c.9.42,2.55-1.82,2.82.8-1,.75-1.92,1.5-2.87,2.26A2.27,2.27,0,0,1,53.27,129Z"/><path class="cls-201" d="M119.27,165.06c0,.29-.07.59-.09.88l-7,2.05a38.82,38.82,0,0,0-13,2l-.06,0a1.82,1.82,0,0,1,0-2.3c6.55-1.68,13-3.62,19.84-4.07A1,1,0,0,1,119.27,165.06Z"/><path class="cls-202" d="M99.23,168c0,.66,0,1.33-.07,2-1.4-.12-1.92.75-2.18,1.92-1.22-1.82-.64-3.87-.66-5.81-.14-15.76-.2-31.51-.28-47.27a2.27,2.27,0,0,1,.08-3,1.35,1.35,0,0,1,1.51.31,4.76,4.76,0,0,1,.86,2.32c.19,2.77.12,5.54.14,8.32.07,1.38,0,2.77,0,4.16,0,1.66,0,3.33,0,5s0,3.33,0,5c0,1.94,0,3.88,0,5.82,0,1.36.07,2.73,0,4.09,0,1.86,0,3.71,0,5.56,0,.75,0,1.49,0,2.23-.25,3.17,1.63,3.38,4.12,3.19,11.26-.82,20.85-5.77,30.15-11.68,2.78-1.77,4.18-3.92,4.18-7.13,3.64-.46,4.68,2.15,5.67,4.81a2.9,2.9,0,0,1-.26,1.42c-11.51,10.64-25.5,15.55-40.72,17.66C100.78,167.05,99.64,166.68,99.23,168Z"/><path class="cls-203" d="M142.17,149l.06-1c.37-.48.68-.42,1,.1l1.08,1.73-.15,3.25c-5.69.69-9.12,5.46-14,7.75-3.55,1.68-6.84,3.87-10.88,4.27,0-.36,0-.73,0-1.09,3.16-3.32,7.82-3.9,11.51-6.35C134.74,155,138.9,152.6,142.17,149Z"/><path class="cls-204" d="M143.18,148.06a4.32,4.32,0,0,0-1-.1,16.15,16.15,0,0,0-5-5c-2.15-.43-3.19-2.33-4.73-3.56-1.88-1.91-3.78-3.79-5.68-5.68q-2-2.13-4.14-4.17c-1.64-1.7-3.31-3.36-5-5-1.36-1.41-2.75-2.8-4.18-4.15-2-2.14-4.31-4-5.94-6.45a23.4,23.4,0,0,0-2-2.66,3.89,3.89,0,0,1-.89-3.82,1.46,1.46,0,0,1,1-.78c3.55,1.6,6.07,4.59,9.16,6.82,2.35,2.15,4.28,4.71,6.64,6.85,1.56,2.06,4.33,1.82,6.21,3.28,1.35,2.87,2.44,5.89,5,8,1,1.78,2.84,2.75,4.23,4.15,1.8,1.92,4,3.45,5.68,5.45,1.11,1.31,2.88,2.43,1.76,4.62C143.43,146.3,143.3,147.17,143.18,148.06Z"/><path class="cls-205" d="M144.36,145.85c-1.36-4.43-6.18-5.94-8.23-9.78a2.19,2.19,0,0,1,.62-3.15,2.43,2.43,0,0,1,2.65.37,11,11,0,0,1,1.56,1.34c1.24,1.26,2.51,2.5,3.77,3.74,1.23,1.54,3.17,2.54,3.47,4.75,1.29,3.25,5.05.7,6.79,2.9l-3.82,0c-1.12,1-2,2.37-3.88,1.89A3.46,3.46,0,0,0,144.36,145.85Z"/><path class="cls-206" d="M147.29,147.89c1.1-1,2.08-2.31,3.89-1.89l2,1.91c-1.06.76-.72,1.49-.14,2.43,2.49,4-1.42.89-1.87,1.64C149.59,150.92,148,149.8,147.29,147.89Z"/><path class="cls-207" d="M150.21,44a2.13,2.13,0,0,0,2,.9,62.31,62.31,0,0,1,13,22.07c0,1.26.34,2.73-.19,3.72s-.63-.29-.83-.69c-2.06-1.11-2.73-3.27-3.76-5.11-3.22-5.78-6.48-11.51-10.91-16.51C147.34,45.9,147.5,45.7,150.21,44Z"/><path class="cls-208" d="M119.21,18c3.09,3.15,8.42,2.05,11.16,5.87a2.27,2.27,0,0,1-1.5,1.67,193.39,193.39,0,0,1-20.72-7.39c-.3-1.77,1.07-2.16,2.23-2.73,3,.63,6.12,1,8.85,2.55Z"/><path class="cls-209" d="M129.21,25.06c.38-.39.77-.77,1.16-1.16,3.08.45,5,3.14,7.88,4,1.79,1.38,3.82,2.56,4.09,5.14a3.46,3.46,0,0,0-.16.84C137,32.23,132.45,29.61,129.21,25.06Z"/><path class="cls-210" d="M119.23,18l-9-1.95a1.2,1.2,0,0,1-1.88-.14c-1.14-1.24-2.71-.77-4.08-1.05,2.45-1.42,4.88-2.74,7.47-.18.41.41,1.46.83,1.77.61C117.1,12.69,117.9,15.87,119.23,18Z"/><path class="cls-211" d="M129.21,25.06l13,8.86c-1.15,3.25-2.5.53-3.5,0-8.41-4.65-16.49-9.93-26.11-12a22.13,22.13,0,0,0-6.35-.88c-1.44,1.59-3.31,1-5,.87-1.49-.13-2.9-.41-3.91,1.06v2.12a4.08,4.08,0,0,1,1.06,2.58,18.6,18.6,0,0,1,.07,2.11c0,.47,0,.93,0,1.4q0,1.05,0,2.1c0,1,0,1.91,0,2.87,0,.74,0,1.49,0,2.23s0,1.56,0,2.35c.07,1.92.06,3.84.06,5.76.16,3.21.07,6.42,0,9.63-.18,4.84.85,9.74-.86,14.48a1.21,1.21,0,0,1-1.59.48L96,30c-.61-2.87-.09-5.78-.3-8.67A4.13,4.13,0,0,1,98.28,17h0c1.62-1.35,3.39-.09,5.07-.27,1.78-.37,3.56-.75,4.88,1C115.69,18.87,122.37,22.2,129.21,25.06Z"/><path class="cls-212" d="M97.25,30V28c3.8-2.31,7.68-1.14,11.38.06a66.93,66.93,0,0,0,7.82,2.35c-1-.76-3.31,0-3.22-2.41,9.15,1.41,16.48,6.62,24,11.39,2.84,1.79-.67,3-.12,4.48l-.23.69a1.9,1.9,0,0,1-1.93.72c-6.28-3.88-12.21-8.46-19.67-10-2.58,0-4.6-1.75-7-2.19a11.12,11.12,0,0,1-1.24-.39,20,20,0,0,0-4.35-.83,10.82,10.82,0,0,1-1.25-.3C100,31,98.38,31.25,97.25,30Z"/><path class="cls-213" d="M113.23,28c1.7,1.76,4.69,1.38,6.31,3.87-7.7-.72-14.54-5-22.29-3.87,0-1,0-1.95,0-2.93,2.41-.42,4.66.39,6.94.93,1.83,1.32,4.15-.26,6,1C111,28.16,112.13,27.94,113.23,28Z"/><path class="cls-214" d="M97.29,22.94c-.16-2,.34-3.36,2.69-2.52,2,.75,4.15.45,6.24.59,4.14,2.43,9.47,2,13.24,5.51C112.28,23.77,104.73,23.73,97.29,22.94Z"/><path class="cls-215" d="M145.19,41l-9,9a5.15,5.15,0,0,1,1.07-5.83l-.11-.25c2.84-1.11,3.31-4.68,6.09-5.85C144.9,38.34,142.69,41.2,145.19,41Z"/><path class="cls-212" d="M110.21,27c-2-.34-4.23.79-6-1C106.23,26.31,108.48,25.17,110.21,27Z"/><path class="cls-216" d="M149.18,29.94c1.07.35,2.57.51,1.28,2.17-.43.57-1.1,1.68-1.85.93-1-1,.35-2,.57-3.09Z"/><path class="cls-217" d="M165.5,119.07c.94-2.68,1.87-5.37,2.81-8,2.37.38,1.23,1.85.95,3.06l-2.13,6.86Z"/><path class="cls-218" d="M169.26,114.08c-.11-1.08.16-2.29-.95-3.06,1.25-3.24-.67-7.38,2.81-10l.24,4c-.08,1-.15,2-.23,2.94C169.37,109.65,171.06,112.4,169.26,114.08Z"/><path class="cls-36" d="M171.12,117.75c-.19.21-.42.68-.76.79a.6.6,0,0,1-.78-.78,1.57,1.57,0,0,1,.79-1C171,116.57,171.11,117.07,171.12,117.75Z"/><path class="cls-219" d="M148.2,143.12,144.09,139c11.09-10.66,15.15-24.32,16.65-39.06a6.61,6.61,0,0,1,.48-2.92h5c1.42,3.64,1.72,7.28,0,10.93-1.08-.84-.95-2-.78-3.11-2.34,14.18-7.51,27.1-17.2,38Z"/><path class="cls-220" d="M148.25,142.89c2.05-6.14,7.21-10.47,9.41-16.61,2.65-7.41,6.45-14.45,6.62-22.58a1.7,1.7,0,0,1,1.41-1.89c1.1,2,.26,4.15.54,6.19,0,.33,0,.66,0,1-.9,2.28-1.2,4.72-2,7-1.76,10.49-7.95,18.68-14,26.93Z"/><path class="cls-219" d="M164.25,116a9.93,9.93,0,0,1,2-7A10.61,10.61,0,0,1,164.25,116Z"/><path class="cls-221" d="M171.21,97.19c.49,1.13,1.91,2.23.06,3.39-.85-1.08-2.22-1.86-2.08-3.52Z"/><path class="cls-222" d="M90.27,150.05q0-6.57,0-13.13c1.7-2.77.67-5.85,1-8.78.3-2.75-.81-5.66.94-8.25a1.58,1.58,0,0,1,1.57.74c.76,1.92.47,3.93.45,5.9-.2,16.85.67,33.72-.49,50.56-.07,1,.16,2-.51,2.87v0c-4-.45-2.7-3.61-3-5.94,1,.25,2,.65,2-1q0-10.57-.06-21.14C92.16,150.68,91.39,150.15,90.27,150.05Z"/><path class="cls-161" d="M93.21,180q0-30-.07-59.95l.87-.12c.86.64.67,1.58.7,2.46.28,11.19-.55,22.39.45,33.57q0,7.54,0,15.08C92.78,173.59,95.74,177.39,93.21,180Z"/><path class="cls-223" d="M95.16,155.92c-1.54-1.51-.89-3.44-.9-5.18-.06-9.93,0-19.85,0-29.78.31-.44.62-.46.92,0Z"/><path class="cls-224" d="M93.14,120h-.49l-.48,0c-.81.19-1.21,0-1-.94A3.15,3.15,0,0,0,89.25,117,1.8,1.8,0,0,1,88,114.65c1.47-2.62,3.62-4,6.72-3.66a4.57,4.57,0,0,1,1.38.5,3,3,0,0,1,.85,1.17,4.17,4.17,0,0,1,.09,2.16,5.68,5.68,0,0,1-.71,1.24l-.3,2.78a2.83,2.83,0,0,1-.67.24c-2.29-3.42-.86,1.8-2.06.89Z"/><path class="cls-225" d="M93.31,120c.08-2.15-.65-4.38.72-7,2,2,.77,4.26,1.34,6.06-.06.63-.13,1.26-.2,1.89h-.92Z"/><path class="cls-226" d="M161.22,97.06c2.24,5.88-.5,11.38-1.62,16.87a50.9,50.9,0,0,1-11.79,23.19c-1.09,1.27-2.1,2-3.72,1.92l-4-4c7.27-5.28,10.23-13.21,13-21.24a71.45,71.45,0,0,0,2.46-9.65c.32-1.66,1.16-3.69-1.21-4.77A3.87,3.87,0,0,1,152,97.81C154.94,95.91,158.14,97.26,161.22,97.06Z"/><path class="cls-227" d="M152,97.81l3.22.18c2,4-.23,7.69-.87,11.5-1.26,7.51-4.86,14-8.71,20.4-1.37,2.26-2.81,5.12-6.46,4.11l-2-1a1.82,1.82,0,0,1-1.44-1.48,3.43,3.43,0,0,1,.3-1.41c1.95-3.3,4.4-6.25,6.6-9.37,4.09-5.81,4.17-12.91,6.18-19.37,1.07-3.46-2.76-1.29-4.15-2.1-1.44-.32-3.34.07-3.49-2.24C144.84,97,148.52,96.11,152,97.81Z"/><path class="cls-228" d="M141.23,97c1.07,1.4,2.62.82,4,1a4.4,4.4,0,0,1,1.05,3.72c-1,8.83-4.85,16.55-9.72,23.82a4.75,4.75,0,0,1-3.72,2.25c-2.51,0-3.53-2-4.79-3.64a1.68,1.68,0,0,1,0-1.42c5.79-4.81,7.8-11.64,9.86-18.47,1.12-3.72,0-5.38-4-5a8.5,8.5,0,0,1-4.44-.82,1,1,0,0,1-.29-1.35Z"/><path class="cls-229" d="M129.22,97.1c0,.29,0,.59,0,.88-1.26,1.4-3,1.26-4.61,1.36-3.91-.23-7.67-.28-9.05,4.62a1.93,1.93,0,0,1-2.47,1.12c-1.31-2.09.26-3.52,1.17-5.11.07-.93.14-1.86.22-2.79a1.5,1.5,0,0,0,.75-.2Z"/><path class="cls-230" d="M115.23,90c-1.2-1-.6-2.68-1.24-3.92a1.11,1.11,0,0,1,.42-1.24c2.51,1.7,5,3.59,8.3,2.85,1.77,0,3.54,0,5.31,0l4.48.05c2.15,0,4.29.14,6.44,0,2.91-.11,4.13-1.92,3-4.27-1.58-3.34-1.57-6.79-2.22-10.21a27.85,27.85,0,0,0-6.64-14.07,1.8,1.8,0,0,1,0-1.42,4,4,0,0,1,3.4-1.38c2.67.63,4.32,2.68,5.51,4.78,4.26,7.55,7.63,15.46,8.25,24.28a4.69,4.69,0,0,1-1,3.27,3.91,3.91,0,0,1-1.22,1c-1.73.65-3.62.67-5.35,1.33a9.4,9.4,0,0,1-1.65.31c-4.35.27-8.68.43-12.85-1.16Z"/><path class="cls-231" d="M128.19,90.14l14.09-.07c2.85.52,5.78-.89,8.6.39,1.26,1.23.2,1.85-.66,2.53l-17,0C131.17,92.71,129.8,91.22,128.19,90.14Z"/><path class="cls-232" d="M163.22,73c.67,3.21,1,6.52,2.1,9.59,1.48,4.26.55,6.72-4.1,7.34l-1.89.15a3.24,3.24,0,0,1-3.82.33c-.74-.74-.4-1.34.23-1.92,3.24-.78,4.56-2.45,3.47-6-1-3.12-1.42-6.38-2.68-9.44-.73-1.77-2-3.9-.46-5.56,1.79-2,2.42,2.45,4.41,1.24C162.51,69.44,161.71,72,163.22,73Z"/><path class="cls-233" d="M155.2,89.92l4.13.15c-.14,1.06.21,2.3-1.11,2.91-2.16-1.23-4.94-.25-7-2-3-.49-6.15.92-9-1a7.89,7.89,0,0,1,1-.18c1.66-.8,3.47-.11,5.17-.54C150.77,88.54,153.08,88.13,155.2,89.92Z"/><path class="cls-234" d="M151.26,91a9.83,9.83,0,0,1,7,2h-8Z"/><path class="cls-235" d="M163.22,73c-2.08-.53-1.56-3-3-4-1.42-.79-1.94-2.25-2.53-3.6a55.49,55.49,0,0,0-13.22-18.93c.51-2,2.09-3.12,3.77-4.09l2,1.64c-2.73,1.32-.93,2.45.15,3.63,6,6.58,10.19,14.32,13.85,22.37C161.55,70.22,163.62,72,163.22,73Z"/><path class="cls-236" d="M144.48,46.45c4.66,1.18,6.81,5.24,9.08,8.72,2.78,4.25,5.45,8.72,6.67,13.81-.58,2.06-.64,2.12-1.25,1.45-.76-.83-1.42-1.77-2.93-3.69,1.32,6.45,3.64,11.3,4.62,16.57.84,4.44-.16,6-4.45,5.68-.65-7.82-.51-15.7-4-23.12A43.66,43.66,0,0,0,140.5,50.48,5.9,5.9,0,0,1,144.48,46.45Z"/><path class="cls-237" d="M140.5,50.48c1.17.79,2.64-.29,3.95,1.16,8.68,9.59,12.5,21,13.17,33.68.07,1.19-.9,2.44-1.4,3.67l-1,.93-7,0c-.32-.2-.42-.4-.31-.6s.21-.29.32-.29h0a7.76,7.76,0,0,1,1.88-1c2.69-.11,3.18-1.65,2.91-4a49,49,0,0,0-6.34-19.26c-1.35-2-2.94-3.9-4.28-5.93-1.61-2.43-3.53-3.19-6.18-1.8l-2.8,1a1.18,1.18,0,0,1-.5-1.12,7.9,7.9,0,0,1,4.25-4C138.25,52.09,138.79,50.51,140.5,50.48Z"/><path class="cls-170" d="M137.17,53c-.61,2-2.38,2.89-3.72,4.2-7.12,8.55-15.33,16-23.22,23.82-2.6.9-3.56.17-2.09-2.36A27,27,0,0,1,111.21,75,5.71,5.71,0,0,1,113,72.13c3.54-3.6,7.13-7.13,10.65-10.74,2.71-2.61,5.3-5.35,8-7.94,1.26-1.2,2.3-2.88,4.44-2.63A2.52,2.52,0,0,0,137.17,53Z"/><path class="cls-238" d="M136.11,50.82l-11.9,11.12c-1.65-3.21,3.19-4.61,2.14-7.65a5.34,5.34,0,0,1,.32-1.31,17.86,17.86,0,0,1,3-3.53c1.86-1.45,3-3.87,5.62-4.32l2-1c-.36,1.94-.71,3.89-1.07,5.83A6.4,6.4,0,0,0,136.11,50.82Z"/><path class="cls-239" d="M90.14,22,90.07,25c-2.38,2.16-5.49,2.21-8.38,2.72a68.52,68.52,0,0,0-30.1,13.42c-1.28,1-2.39,2.42-4.34,1.88l-1-1c2.51-5.89,8.43-7.65,13.27-10.49A66.83,66.83,0,0,1,86.82,23,18.92,18.92,0,0,0,90.14,22Z"/><path class="cls-240" d="M90.13,39,90.22,69c-1,4.56-4.36,4.71-8,4.2,0-.16-.12-.43-.06-.47,6.34-4,4.42-10.36,4.75-16.09.18-10-.24-10.24-9.9-6.84-5.39,1.9-9.83,5.49-14.73,8.25a29.63,29.63,0,0,1-7-7c-1.35-2.41.8-3.31,2.09-4.29,7.62-5.84,16.4-9.18,25.58-11.68C86.82,34,88.44,36.4,90.13,39Z"/><path class="cls-241" d="M62.24,58c3.69-5.57,9.63-8.19,15.49-9.76,11.79-3.14,10.39-4.87,10.5,7.74-2,2-4.84,2.08-7.3,3-7.12,2.68-7.14,2.63-8.42,9.41a4,4,0,0,1-2.76-.48c-2.36-1.87-5-3.52-5.55-6.86Z"/><path class="cls-198" d="M47.25,43C59.47,32.12,74,26.77,90.07,25l0,5.05A3.4,3.4,0,0,1,87,32.15C74.07,33.46,62.89,38.92,52.63,46.6a2.92,2.92,0,0,1-1.41.43A10.46,10.46,0,0,1,47.25,43Z"/><path class="cls-242" d="M51.22,47c8-8.14,17.92-12.48,28.8-15,3.34-.79,6.87-.57,10.09-2q0,4.48,0,9c-1.14,1.35-3.42,1.74-2.93-.12,1.14-4.36-1.88-3.11-3.3-2.76C73.76,38.68,64.13,42.43,56,49.27c-.44.37-.53,1.16-.78,1.75A10.89,10.89,0,0,1,51.22,47Z"/><path class="cls-243" d="M64.2,61.06l6,6c.92,1.42.53,2.21-1.13,1.81C68,68.6,67.23,67.58,66.3,67a11.07,11.07,0,0,1-4-4C62.29,61.72,62.87,61,64.2,61.06Z"/><path class="cls-244" d="M97.15,71q0-7.5.08-15c.51-.42.89-1.07,1.55-1.23,4.47-1.07,15.51,6.33,16.38,10.94-2.37,4.4-4.93,8.58-10.64,9.07a3.2,3.2,0,0,1-1.29-.85L102.11,73C100.7,71.74,98.44,72.6,97.15,71Z"/><path class="cls-245" d="M90.23,75c4.21.07,8.08,1.46,11.89,3.09a.76.76,0,0,1,.37.71c0,.27-.1.41-.18.41a3,3,0,0,1-1.17.55,6.52,6.52,0,0,1-3-.54,2.65,2.65,0,0,0-1.05,0c-1.47,2.15,2,3,1.29,4.91a11.22,11.22,0,0,1-3.31,2.21,1.74,1.74,0,0,1-1.25-.45c-.94-.68-.78-4.15-3.14-1.23-1.17,1.46-3.07,1-4.53,1.65-3-.75-4.46-4.38-8-4.08a.92.92,0,0,1,0-1.23h0a5.16,5.16,0,0,1,2.61-2.33C83.94,77.35,86.12,73.7,90.23,75Z"/><path class="cls-165" d="M110.23,81c2.11-4.87,6.46-7.82,10-11.37,4.28-4.26,8-9.13,13.18-12.45l0,.87-.25.94c.12,3.61-3.81,3.93-5.16,6.35q-2.1,2-4.12,4c-1,1-2.09,2-3.1,3.06-.74.73-1.47,1.46-2.19,2.21-1,1-2.09,2.1-3.08,3.2-2.56,2-1,4.75-1.34,7.16-.06.35-.13.69-.19,1C110.57,86,112.27,82.09,110.23,81Z"/><path class="cls-246" d="M110.2,88.92c-1.47,2.56.34,5.5-1,8.07-2.13,1.68-4.76,2.85-5.26,6.05-.19,1.22-1.39,1.74-2.67,1.72a4.62,4.62,0,0,1-3.15-1.54,1.56,1.56,0,0,1,.12-1.35c2.95-1.5,2.19-5.12,4.12-7.21a6.13,6.13,0,0,0-1.28-.77,2.81,2.81,0,0,1-1.34-1.54A2.41,2.41,0,0,1,99.94,91a2.35,2.35,0,0,1,1.18-.63,11.05,11.05,0,0,1,3.81.85C107.2,91.63,107.71,88,110.2,88.92Z"/><path class="cls-247" d="M90.23,75c-3.75.3-5.85,3.58-9,5-.49-.44-1.14-.63-1.61-1.1-.86-1.27-2.09-2.41-1.57-4.21,1.08-1.33,2.28-2.36,4.17-1.68,3.23-.21,6.38-.59,8-4,.06,2.16.35,4.5-3.2,4C87.82,74.55,89.7,73.59,90.23,75Z"/><path class="cls-26" d="M101.22,104c1.06-.12,1.9-.53,2-1.73.21-3.83,2.61-5.13,6-5.27,1,1.67,1.14,3.11-1,4-3.59.16-3,2.6-2.66,4.91a1.17,1.17,0,0,1-.28,1.16v0c-1.87,2.49-4,4-7.15,2a2.58,2.58,0,0,1-.44-1.34,2.46,2.46,0,0,1,.55-1.23A35.57,35.57,0,0,1,101.22,104Z"/><path class="cls-165" d="M105.29,107.06l0-1c.67-1.33.79-3.19,3-3.06a5.87,5.87,0,0,0,2,5c3.73.39,5.78,2.41,6,6.19a1.69,1.69,0,0,1-2.08-.15Z"/><path class="cls-248" d="M116.23,114a22.13,22.13,0,0,0-6-6c1-2.86,1-6.19,4-8q-.61,2.49-1.21,5c.7,3.43,4.13,5,5.41,8.08a1.48,1.48,0,0,1-.36,1.24A1.55,1.55,0,0,1,116.23,114Z"/><path class="cls-249" d="M110.2,88.92c-1.94.53-2.31,3.64-5,3-.69-.92-.15-1.85,0-2.77.07-.37.14-.73.2-1.1a7.59,7.59,0,0,0-.55-2.18,20.19,20.19,0,0,1,0-2.46l.24-.58a.9.9,0,0,1,1.13,0A12.4,12.4,0,0,1,110.2,88.92Z"/><path class="cls-250" d="M108.21,103c-1.26.75-.79,3.17-3,3.06-2.88-2.33-.82-4.61.52-6.33,1.13-1.47,2.2-.27,2.46,1.31C108.23,101.64,108.22,102.29,108.21,103Z"/><path class="cls-187" d="M98.28,17C94.59,20.83,96.78,25.65,96,30a4,4,0,0,0-.7.15c0-3-.07-6-.11-8.93C95.2,19,95.53,17.13,98.28,17Z"/><path class="cls-251" d="M103.23,73.92l1,0c1.48,1.09,2.76.53,4-.45,1.54-1.21,3.18-1.67,5-.52a3.29,3.29,0,0,1-2,2C108.49,75.1,105.37,78.23,103.23,73.92Z"/><path class="cls-251" d="M97.15,71c1.78.35,3.73.29,5,2-1.71-1.45-5.53,3.5-5.91-1.94A3.69,3.69,0,0,0,97.15,71Z"/><path class="cls-251" d="M106.25,82.84a5.14,5.14,0,0,1-.88.07,2.45,2.45,0,0,1-.93-.88c-.47-1.21-1.52-2-2.23-3a4.68,4.68,0,0,0-.09-.91C106.29,77.24,106.46,79.88,106.25,82.84Z"/><path class="cls-252" d="M57.31,62.94a33,33,0,0,1,7,7c-2.46,4.46-5.95,8.34-7.22,13.46-.53,2.14-.72,3.34,2.18,3.38,3.43,0,6.83,1.3,10.3.18a1.56,1.56,0,0,1,2.27,1.2c0,2.73-2.08,2.93-4,3.09a21.22,21.22,0,0,0-5.71.75c-4.4.28-8.87,1.34-13.11-.86a26.92,26.92,0,0,1-1.43-2.43,4.29,4.29,0,0,1,.73,2.12c-1.87,1.6-3.28.73-4.57-.83-.38-10.25,3.53-18.88,10.06-26.49A2.53,2.53,0,0,1,57.31,62.94Z"/><path class="cls-197" d="M57.31,62.94c-4,.73-5.36,4.44-7,7.24A47.6,47.6,0,0,0,44.24,90c-5.06,4.21-10.37,1.12-15.59.54-.88-.73-.54-1.39.12-2,3.52-.8,4.94-3.11,5.51-6.61,1.42-8.62,5.31-16.24,10.46-23.21C46,56.94,47.32,54.57,50.28,56a11.16,11.16,0,0,1,4,4c-7.62,7.25-11,16.65-13.56,26.48C43.3,76.63,46.82,67.3,54.27,60A6.92,6.92,0,0,1,57.31,62.94Z"/><path class="cls-253" d="M71.23,87c-3.1,3.53-7.11.92-10.64,1.55-.12,0-.27-.2-.42-.23-5.74-1.26-6.18-1.46-3.6-7.4,1.74-4,3.25-8.66,7.73-11a45.89,45.89,0,0,1,8,8c1.81,2.93.43,5.7-.44,8.49Z"/><path class="cls-183" d="M29.24,89l-1,.91c-1.25,1.33-2.59,2.17-4.35.84-.9-2.33-1.6-4.66.45-6.8,1-.15,1.6.06,1.1,1.25.85-.71.12-1.63.33-2.45A87.53,87.53,0,0,1,38.28,54.64c1.16-1.67,3.19-3.14,2.37-5.7A2.18,2.18,0,0,1,41.24,47l0,0a14.82,14.82,0,0,1,7,7,2.06,2.06,0,0,1-1.23.51c-3.2.46-4.36,3.27-5.91,5.44C37,65.7,34.5,72.31,32,78.91,30.94,82.23,32.63,86.3,29.24,89Z"/><path class="cls-254" d="M47.24,54l1,0,2,2c-5.55,1.57-6.81,7-9.31,11a40.88,40.88,0,0,0-5.79,17.29c-.38,3.54-2.13,5.45-5.94,4.69,1.81-3.46-.08-7.59,2-11,1.26,1.08.78,2.39.46,3.67A62.73,62.73,0,0,1,43.77,56.19C44.6,55.11,45.27,53.43,47.24,54Z"/><path class="cls-255" d="M62.21,91c1.65-1.71,3.77-.91,5.67-.94,2.19,0,3.6-.53,3.35-3.05v0c1.32-2-.17-5.83,3.94-6l3.06,0c.05.39.11.78.17,1.17,1.65,3.07-2,4.94-1.71,7.7.67,4,.16,8,.48,12.06.77,2.48.4,4.59-2,6h-1c-2.08-3-4.08-5.94-3.81-9.81.43-2.08,3.22-1.31,3.82-3.18a5.46,5.46,0,0,0,0-1c-1-1-2.4-.21-3.46-.88C68.1,91.61,64.67,93.26,62.21,91Z"/><path class="cls-256" d="M78.26,75c.53,1.42,2.13,2.3,2,4-2.46.3-3.14-2.33-5-3a49.68,49.68,0,0,1-9-9c1.32-1.19,2.51,3.35,3.88.09l2.08.93C75,69.66,78,71.11,78.26,75Z"/><path class="cls-252" d="M75.18,81c-2.61,1.15-2.19,4.29-3.94,6l1-9A6,6,0,0,1,75.18,81Z"/><path class="cls-255" d="M75.27,76c2.31,0,3.13,2.35,5,3l1,1-3,1C78.45,78.61,75.93,77.84,75.27,76Z"/><path class="cls-257" d="M62.21,91c3,.66,6.67-1.63,9,2-3.6,1.34-7.45-.31-11.06,1L21.31,94c-.33-.12-.47-.28-.41-.48s.15-.33.24-.33c0-.72.08-1.43.11-2.15l1.95-.12a.6.6,0,0,1,1,0l4-1c5.34-.44,10.67,2,16,.09,1.33.52,2.66,1.74,4,0l0,0C52.8,91.9,57.57,90.55,62.21,91Z"/><path class="cls-239" d="M24.23,90.85l-1,0c-4-2.86-1.38-6.6-.69-9.54A78.35,78.35,0,0,1,38.66,48.27,3.35,3.35,0,0,1,41.24,47v2c.69,1.56-.5,2.53-1.26,3.5A72,72,0,0,0,26.52,80.8,6.7,6.7,0,0,1,25.24,84C23.33,86,24.64,88.57,24.23,90.85Z"/><path class="cls-258" d="M74.23,95c.22,2.21-2.34,1.67-3,3a110.58,110.58,0,0,1-22.5,0,3.7,3.7,0,0,1-1.51-1h-19l-4,0c1.5-1.58,3.45-.94,5.2-.94,13-.06,26,0,39,0C70.42,96,72.43,96.13,74.23,95Z"/><path class="cls-259" d="M8.18,91c2,.77,5.05-1.62,6.07,2-2.67.67-5.33,1-7.95-.21A2.11,2.11,0,0,0,6.23,92,2.06,2.06,0,0,1,8.18,91Z"/><path class="cls-150" d="M6.3,92.78l8,.21,6.89.15a7.78,7.78,0,0,0,.17.81C16.33,93.29,11.12,95.47,6.3,92.78Z"/><path class="cls-258" d="M60.17,93.92c3.55-1.91,7.4-.36,11.06-1,1.08.09,2.3-.21,3,1Z"/><path class="cls-260" d="M108.23,17.81l-4.88-1c1.46-1.42,3.33-.45,5-.88l1.89.14Z"/><path class="cls-261" d="M62.25,130c.88-2.3,4-3.16,4-6l1.05-.88a84,84,0,0,1,21.32,7.12c0,1.27.44,2.58-.37,3.76,0,.67,0,1.33,0,2-1.33-.56-2.79-1.74-4-.18-1.46,1.82,2,1.87,1.51,3.51a1.5,1.5,0,0,1-2.2.18c-3.4-3-6.81-5.17-11.87-4-2.16.49-4.45-1.78-6.21-3.45C64.45,131.11,63.77,130,62.25,130Z"/><path class="cls-262" d="M91.19,119.09l1,.94q0,6.15.08,12.3c0,1.81.11,3.69-2,4.59C90.72,131,89.1,124.94,91.19,119.09Z"/><path class="cls-190" d="M88.24,134c0-1.33,0-2.67,0-4-.21-.25-.54-.51-.56-.79-.33-6.12-1.58-11.85-6.65-16,3-1.83,5.07.16,7.21,1.81l1,2C88.64,122.63,90.42,128.43,88.24,134Z"/><path class="cls-263" d="M81.22,113c8.71,3,7,10.38,7,17-4.33-.16-8.27-1.68-12.12-3.49-1.46-.69-2.77-1.91-4.59-1.13-2.36,1-3.2-.79-4.23-2.26,4.78-3.17,7.36-8.89,12.94-11.13A1.19,1.19,0,0,1,81.22,113Z"/><path class="cls-264" d="M81.22,113l-1-1c.31-1.31.63-2.62.94-3.92,2-1,3.63.68,5.47.84,2.85,1,7-1.44,8.6,3.07-3.1-.74-4.85,1.63-7,3C85.59,115.38,83.72,113.11,81.22,113Z"/><path class="cls-265" d="M75.21,108c.26-2,2.34-3.67,1-5.93l.69-.28c2.31.74,3.94,2,3.71,4.74l-.5.55c-3.75,1.3-5.06,5.7-8.84,7C70.89,110.9,74.59,110.43,75.21,108Z"/><path class="cls-266" d="M86.22,110l-5-1.9-1-1,.23-.12c.83-1.15,3-.28,3.29-2.28a3.32,3.32,0,0,1,.51-1.21,2.42,2.42,0,0,1,3.07-.72c.6,3,4.35,3.16,5.2,5.9C90.6,110.25,88.25,109.35,86.22,110Z"/><path class="cls-267" d="M48.25,97c7.66.52,15.41-1.23,23,1-.33,3.72,3.35,6.25,3,10l-5,4c-5.95,6.2-5.94,6.18-12.32.64-1.38-1.2-3.25-2.36-3.34-4.17A16.85,16.85,0,0,0,48.25,97Z"/><path class="cls-261" d="M48.25,97c4,1.48,6.64,3.95,6,8.68-.4,2.9,1.48,4.52,3.51,6,.92.68,2.13,1.2,2.66,2.12,1.59,2.75,2.92,3.91,5.16.47.72-1.11,2.43-1.57,3.69-2.33-1.73,5.15-6.82,7.21-10.06,11L56.3,125.1c-2.48-3.18-2-8.27-8.3-9.19-2.39-.35-4-7-3.77-11.52.15-2.82-.84-6.07,3-7.38Z"/><path class="cls-268" d="M142.17,149c-.12,2.5-2,3.66-3.79,4.87-6,4.15-12.18,7.84-19.15,10.1-6.58,1.79-13,4.11-20,4-.6.14-1.46.65-1.72-.07-.45-1.21.41-1.76,1.56-1.92,3.76-.52,7.56-.83,11.26-1.63a68.87,68.87,0,0,0,28.82-13.86C140.07,149.78,140.89,149,142.17,149Z"/><path class="cls-269" d="M133.24,139a10.47,10.47,0,0,1,4,4c2.33,3.51.59,5.34-2.44,7.35-10.2,6.75-20.77,12-33.33,13-4.52.35-4.23-1.53-4.21-4.34,1.76-1.8,4.06-2,6.38-2.24,10.17-1,18.82-5.66,27-11.4,1.42-1,3.19-2,2-4.34A2.32,2.32,0,0,1,133.24,139Z"/><path class="cls-270" d="M133.24,139c0,.67,0,1.34,0,2,0,2.51-1.62,4-3.52,5-7.25,3.95-14.29,8.45-22.49,10.24-3.22.7-6.53,2.07-10,.7q0-3,0-6c5.45-2.37,11.71-1.87,17-4.92,1.82-1,3.94-1.66,5.81-2.75,4.06-2.35,8.69-4.25,7.16-10.42A25.21,25.21,0,0,1,133.24,139Z"/><path class="cls-271" d="M127.27,132.87c2.49,6.18,2.47,6.33-4,10.06-8,4.64-16.35,8.53-26,8l0-4a19.86,19.86,0,0,1,8.21-3.29c5.94-1.11,11.51-3.11,16.24-7.09,1.79-1.51,2.67-2.91,1.16-5a3.57,3.57,0,0,1-.31-1.4,2.2,2.2,0,0,1,.65-1.26A12.7,12.7,0,0,1,127.27,132.87Z"/><path class="cls-272" d="M123.22,131c3.67,2,3.18,3.64,0,6.11A36.53,36.53,0,0,1,104.31,145c-2.44.27-4.27,2.74-7,2,0-2,0-4,0-6,5.49-2.68,11.78-2.9,17.25-5.84C117.34,133.63,119.47,130.52,123.22,131Z"/><path class="cls-273" d="M123.22,131c-7.78,5.56-16,10-25.93,10v-5c7.21-2.69,14.64-4.83,21.46-8.51a5,5,0,0,1,4.41,2.53Q123.21,130.48,123.22,131Z"/><path class="cls-274" d="M119.21,128c-6.76,4.18-13.7,7.86-21.93,8l0-5c5.94-3,12.28-5,18.42-7.48,1.08.05,1.82.8,2.69,1.29C119.3,125.69,120.34,126.56,119.21,128Z"/><path class="cls-275" d="M97.27,157c10.35-1,19.62-5,28.5-10.06,2.79-1.6,5.8-2.92,7.46-5.92,1.82,1,2.58,2.19.51,3.69-9.23,6.72-18.88,12.45-30.66,13.33-2,.15-3.88.63-5.82,1C97.26,158.29,97.26,157.63,97.27,157Z"/><path class="cls-276" d="M97.26,127l0-9c1.21-2.41,4-2.51,5.85-4,3.29-1.71,5.19-.24,6.41,2.79a16.68,16.68,0,0,1-8.17,4.42c3,.08,5.6-3,9-3.74a3,3,0,0,1,2.32,2.63C108.89,125.3,103.27,126.57,97.26,127Z"/><path class="cls-277" d="M97.26,127c4.89-2.56,10.83-2.84,15-7,1.07-.64,1.56.38,2.26.79.68,1,2.36,1.48,1.73,3.2-6,3.08-12,6.39-18.9,7C97.29,129.64,97.28,128.3,97.26,127Z"/><path class="cls-117" d="M96.34,116.06c0-.35,0-.69,0-1a4.7,4.7,0,0,1,3.09-2,3.67,3.67,0,0,1,2.88.69,1.16,1.16,0,0,1,0,1.41c-1.59.63-3,2-5,.89l-.49,0Z"/><path class="cls-277" d="M97.33,116.06l4.66-1.18a.8.8,0,0,1,1.27.14c-1.53,1.93-4.09,1.75-6,3C97.3,117.34,97.32,116.7,97.33,116.06Z"/><path class="cls-248" d="M102.12,114l-2.89,0c-.87-.71-2.27.16-3-1,0-.32-.06-.64-.08-1,.77-1.31-4.16-5.53,2.06-4,2.74,2.49,4.74-.42,7.07-1a5.13,5.13,0,0,0,.92,4c-.56,1-1.64,1.38-2.35,2.19A2.72,2.72,0,0,1,102.12,114Z"/><path class="cls-278" d="M128.18,123a4.34,4.34,0,0,0,.08,1c-.33.47-.68.46-1,0-2.24-.5-4.95,0-6-2.94-1.48-2.1-3.81-3.81-3.11-6.89l.16-.22c1.57-.6,2.37.64,3.38,1.39s1.78,1.81,2.72,2.67c.32.28.62.58.91.89C126.3,120.21,127.89,121.14,128.18,123Z"/><path class="cls-279" d="M127.21,124l1,0,3.83,3.09c.78.42,1.56.84,1.81,1.8a2.87,2.87,0,0,1-1.09,3l-.64.21C128.9,130.35,127.83,127.31,127.21,124Z"/><path class="cls-274" d="M102.12,114l1.11-1c1.69-1.65,3.32-1.47,4.92.14q3,3.48,6,7c.33.24.43.45.3.66s-.24.3-.36.3l-1.92-1c-.66-.67-1.32-1.34-2-2-.37-.3-.94-.39-1-1-1.38-2.51-3.14-3.87-6-2l-1.27-.14A2.1,2.1,0,0,0,102.12,114Z"/><path class="cls-280" d="M118.08,114.17c1,2.3,2.07,4.59,3.11,6.89-3-1.65-4.75-4.61-7-7l2-.07Z"/><path class="cls-272" d="M119.21,128l-1-3a.62.62,0,0,1-.2-.7c.09-.22.18-.33.26-.33a16.59,16.59,0,0,1,5,4.91c0,.37-.07.73-.1,1.1Z"/><path class="cls-279" d="M136.16,132l1.07,1-1.1,3.08c-1.59-1.08-3.82-1.53-4-4l.09-.07C133.57,131.14,134.84,134.1,136.16,132Z"/><path class="cls-273" d="M118.23,124l-.06,1a2.14,2.14,0,0,1-2-1l-2.06-3c0-.32,0-.64,0-1A10.16,10.16,0,0,1,118.23,124Z"/><path class="cls-281" d="M108.15,113.1c-1.62-.9-3.28-.24-4.92-.14.1-2,1.54-2,3-2A2.7,2.7,0,0,1,108.15,113.1Z"/><path class="cls-282" d="M139.18,134c2.82-.3,4.44-2.43,5.64-4.48,5.73-9.73,9.75-20.09,10.4-31.53,3.32.81,2.19,3.6,1.84,5.32-2.05,9.92-4.93,19.58-11,28-1.49,2.07-3.05,4-6,3.76C139.79,134.69,139.49,134.34,139.18,134Z"/><path class="cls-283" d="M114.32,66.22c-.09-3.42-1.87-5.3-5.13-6.3a20.57,20.57,0,0,1-7-3.32c-1.8-1.48-3.25-.9-4.94-.61V46c4.69-1.75,8.1-.93,10.52,2.91,1.82,2.88,5,3.62,7.6,5.18,2.39,1.43,4.23,3,5.23,5.58C119.72,63,118.07,65.61,114.32,66.22Z"/><path class="cls-284" d="M120.23,60.05c-3.57-3.71-7.4-7-12.6-8.2-.41-.1-1-.53-1.06-.84-.39-6.8-5.93-3.93-9.34-5,0-2,0-4,0-6a14.1,14.1,0,0,1,12.22,2.21,1.83,1.83,0,0,1-.61,2.18c.92.23-2.9-.08,0,.79,5,1.55,9.36,4.66,13.81,7.42a4.55,4.55,0,0,1,2.18,3.16C124.36,58.34,123.18,60.14,120.23,60.05Z"/><path class="cls-285" d="M109.24,43c-3.65-2.41-8.11-1.56-12-3,0-.67,0-1.34,0-2,4.78-2.11,9.12.26,14.12,1.55-1.73-.59-3.17-.67-3.33-2.4a2.16,2.16,0,0,1,1.2-.87A39.74,39.74,0,0,1,130,45.5c2,1.64,1.25,3,.36,4.68A5.91,5.91,0,0,1,127.24,53C122.08,48.17,115.78,45.37,109.24,43Z"/><path class="cls-286" d="M109.23,37h-1c-3.85,1.6-7.43.19-11-1l.06-3c3.08-2.81,6.75.4,10-1,3.07-.93,5.07,2.4,8,2,1.3.89,3.17.79,4.11,2.42-1.24,2.12-3,1-4.7.88S111.13,35.05,109.23,37Z"/><path class="cls-287" d="M97.2,36a39.27,39.27,0,0,1,11,1l4.84,3.15L97.24,38C97.23,37.32,97.21,36.65,97.2,36Z"/><path class="cls-288" d="M107.23,32c.51.89,2.46,2.66-.64,1.81s-6.2-.72-9.33-.82c0-.66,0-1.32,0-2a5.84,5.84,0,0,1,5,0h0c1.48,1.24,3.49-.17,5,1Z"/><path class="cls-286" d="M102.24,31h-5a5.46,5.46,0,0,1,0-1C98.94,30.2,100.83,29.34,102.24,31Z"/><path class="cls-289" d="M109.23,37c-.93-2.23.51-2.17,1.91-1.85,2.36.55,4.69,1.24,7.24,1.93-.47-2-2.58-1.69-3.15-3.08,7.66,2,14.61,5.23,20.08,11.14a20.81,20.81,0,0,1-5,5c.9-4.72-3.58-5.38-6-7.09C119.92,39.9,114.54,38.37,109.23,37Z"/><path class="cls-286" d="M107.23,32c-1.68-.23-3.6.68-5-1C103.92,31.21,105.83,30.34,107.23,32Z"/><path class="cls-281" d="M98.22,108c-.66.44-3.67-.83-1.45,1.65,1.44,1.61,1.33,2-.61,2.39a7,7,0,0,1-.92-.06c-2.5-2.95-6.2-.53-9-2,1.55-2,4.45.1,6-1.93s3.64-2.78,6-1C98.23,107.32,98.23,107.65,98.22,108Z"/><path class="cls-281" d="M96.24,113c1.1,0,2.28-.17,3,1l-2.87,1Z"/><path class="cls-271" d="M133.21,129.07l-1.12-2a4,4,0,0,0,3.35-1.89c5.17-8.36,9.68-17,9.78-27.16,6,.11,6.15.15,4.18,5.71-1.65,4.65-1.38,9.69-3.84,14.27A60.23,60.23,0,0,1,136.11,131C134.32,131.6,134.1,129.83,133.21,129.07Z"/><path class="cls-290" d="M133.21,129.07l2.9,2c0,.33,0,.66,0,1-1.33,2.13-2.61.85-3.9,0C132.58,131,132.89,130,133.21,129.07Z"/><path class="cls-229" d="M128.18,123a10.79,10.79,0,0,1-4.06-3.93c4.83-3.68,6.64-9,8.14-14.6.59-2.17.29-4.62,2-6.47,6.3.13,6.49.27,5,6.11-1.38,5.28-3,10.49-6.09,15.1C131.91,121,130.66,122.82,128.18,123Z"/><path class="cls-291" d="M134.22,98c.51,6.75-2.46,12.51-5.21,18.32a4.75,4.75,0,0,1-4.89,2.75h0c-.7-2.4.82-4.12,1.87-6,1.76-3.06,3.17-6.19,2.43-9.85-.3-1.47-1.07-2-2.68-1.93-2.47,0-2.19-1.67-1.54-3.33l5,0Z"/><path class="cls-292" d="M124.22,98c1.25-.18-1,4,2.58,1.74,3.25-2,1.89,1.86,2.43,3.24.35,4.78-2.06,8.59-4.36,12.42-1,1.62-2.36,1.42-3.8.65l-2.83-2.1c-1.55-1.64-3.12-3.26-4.65-4.92-1.11-1.22-2.38-2.46-.53-4.09.53-.37,1.49-.7,1.52-1.12C115.11,97.36,119.63,97.65,124.22,98Z"/><path class="cls-293" d="M127.09,64.68c1.33-2.65,4.35-3.49,6.08-5.7,2.06.1,3.68.05,3.78,3.19.08,2.37,2.28,4.6,2.85,7,.52,2.22,3.57,4.2.71,7.09-.8.81.28,3.47,1.55,4.35,2.74,1.88,1.67,4.72,1.39,6.67S140.21,89,138.2,89h-5a1.29,1.29,0,0,1,.22-1.29c1.93-1.18,2.45-2.71,2-5-.9-4.18-3.38-7.45-5.59-10.91C128.42,69.6,126.32,67.68,127.09,64.68Z"/><path class="cls-294" d="M118.08,73.62l2-2a42.75,42.75,0,0,1,8.46,15.64,1.18,1.18,0,0,1-.71,1.12c-1.86.39-3.85-.51-5.63.58-3.58.48-6.72.08-8-4-1.79-2.9-3.51-5.8.76-8.13,5.13-.65,4.65,3.87,6.46,6.2a14.41,14.41,0,0,0-2.64-5A3.77,3.77,0,0,1,118.08,73.62Z"/><path class="cls-295" d="M136.22,57c1.9-3.7,4-3.2,6.15-.26,1.69,2.36,3.24,4.83,4.85,7.26,2.87,6.87,5.75,13.72,5.46,21.43-.08,1.94-.64,3.06-2.46,3.55h-2a24.66,24.66,0,0,0-2.08-16C143.48,67.33,142.13,60.71,136.22,57Z"/><path class="cls-296" d="M122.23,89c1.75-1.81,4-.67,6-1,.25.22.33.43.25.65s-.17.32-.25.32Z"/><path class="cls-297" d="M148.22,89c0,.3,0,.59,0,.89h-5C144.69,88.37,146.55,89.21,148.22,89Z"/><path class="cls-298" d="M128.22,89V88h0a3.73,3.73,0,0,1,4.44-.55l.57.56c0,.32,0,.65,0,1Z"/><path class="cls-297" d="M150.22,89A13.28,13.28,0,0,0,151,78.62c-1.5-4.8-2.51-9.75-3.73-14.63,5.13,6.83,6.64,14.88,7.27,23.07C154.7,89.81,151.83,88.68,150.22,89Z"/><path class="cls-299" d="M120.23,60.05c1.88-.77,3-2.35,4.08-3.93.56-1.25,1-2.71,2.88-2.16,2.12,3.83-3.08,4.92-3,8a80.18,80.18,0,0,1-11,11c-3.11-.69-5.66,3.68-9,1,5.33,0,6.91-4.92,10.08-7.74C116.78,64.63,118.5,62.33,120.23,60.05Z"/><path class="cls-300" d="M127.19,54l-2.88,2.16c-5-5.39-11.72-7.84-18.27-11,.13-1.64,2.63-.7,3.2-2.16,7.73.25,13.79,3.48,18,10A4.15,4.15,0,0,0,127.19,54Z"/><path class="cls-301" d="M78.26,75l-6-7c-2.05-5.41-1.7-6.28,4.3-8.58C80.34,58,84.05,56.14,88.23,56c0,1.64,0,3.29,0,4.93.08,5.06,1.31,10.69-6,12Z"/><path class="cls-302" d="M75.27,89.94c-.36-3.16,3-4.82,3.14-7.78,4.43-2.29,5.47,2,7.72,4a1.4,1.4,0,0,1,.43,1.71,1.52,1.52,0,0,1-1.1.56,4.8,4.8,0,0,1-1.78-.66c-.54-.31-1.08-.65-1.66-.91-2.64-.67-3.45,1.24-4.32,3.05a2.12,2.12,0,0,1-1.21.65A1.75,1.75,0,0,1,75.27,89.94Z"/><path class="cls-303" d="M105.15,82.06a3.43,3.43,0,0,0,.22.85l-.24.13c-1,1.09-2.54,1.38-3.68,2.28a3.34,3.34,0,0,1-1.28.27A2.16,2.16,0,0,1,98.23,84c-1.64-1.47-3.77-2.66-3-5.46.36-1.29,1-1.53,2-.54a1.63,1.63,0,0,0-.2,1.29c.13-.42-.06-.89.2-1.29L101.14,79C102.32,80.26,104.15,80.61,105.15,82.06Z"/><path class="cls-304" d="M86.18,87.9c0-.59,0-1.19-.05-1.78a22.9,22.9,0,0,1,5.19-4.42C94.47,80.13,94,83.85,94.25,86a50.41,50.41,0,0,1-7.92,3.23.87.87,0,0,1-.35-.82C86,88.05,86.09,87.9,86.18,87.9Z"/><path class="cls-305" d="M86.35,89.11c1.87-3,4.69-3.53,7.9-3.16a5.24,5.24,0,0,0,1,0c2.32-1.33,4.13-1.36,4.69,1.82-.16,1.2-.92,1.76-2,1.33-4-1.54-7.2.27-10.47,2.09A1.93,1.93,0,0,1,86.05,91,1.43,1.43,0,0,1,86.35,89.11Z"/><path class="cls-304" d="M99.22,89c.34-3.22-1.88-3-4-3,.11-2,1.57-2,3-2l2,1c1.4,1.78,2.33,3.65,1.13,5.92l-1,0C99.36,90.65,98.76,90.12,99.22,89Z"/><path class="cls-306" d="M105.15,82.06c-2.11,0-3.74-.6-4-3l1.07-.05C104.46,78.81,105.51,79.76,105.15,82.06Z"/><path class="cls-298" d="M127.09,64.68c1.52,4.26,4.5,7.68,7,11.32,1.88,2.76,2.15,5.78,3,8.67.92,3.12-1.46,3.47-3.85,3.32h0a4.86,4.86,0,0,1-2.47-3c-1.56-5.92-6.18-10.4-7.67-16.35Z"/><path class="cls-296" d="M123.08,68.64C128,74.29,130.6,81.13,133.22,88h-5c-2.29-5.65-6.31-10.44-8.1-16.34Z"/><path class="cls-296" d="M118.08,73.62c-.11,4,3.83,6.39,4.12,11.06-2.86-2.85-2.88-7.49-7.26-7.81Z"/><path class="cls-307" d="M99.22,89l1.12,2L100.19,92a1.69,1.69,0,0,1-1.3.36c-.32-.07-.63-.16-.94-.25-6.62-1.91-8.47-.87-10.32,5.59-.35,1.23.49,2.65-.65,3.72-4.1.25-5.19-.75-4.39-4.34A9.17,9.17,0,0,1,86.28,91C92,86.49,94.62,86.07,99.22,89Z"/><path class="cls-308" d="M99.23,92l1,0,1,1c.94,1.17.34,2.1-.45,3-1.73,3.26-4.33,4.82-8.08,4.11-1.34-.25-2.61-.62-3-2.13a3.31,3.31,0,0,1,1.18-3.55C93.26,92.52,95.73,90.44,99.23,92Z"/><path class="cls-309" d="M98.23,107c-2.12-.37-4,.66-6,1-1.93-1.4-6.59-.06-5-5,2.94-3.89,6.72-2.37,10.38-1.61l.6.65c0,.29.07.59.11.89-.16,1.44,1.53,2.44.95,4Z"/><path class="cls-310" d="M100.25,95a2,2,0,0,0,.94-2c1.77-.08,3,1.06,5.28,2.34-3.39.64-5.61,1.2-4.62,4.92.62,2.34-2.3,1.35-3.67,1.78l.06-.1a1.7,1.7,0,0,1-.2-1.32C99.45,99,99,96.66,100.25,95Z"/><path class="cls-311" d="M101.32,90.94c-.38-2-.75-4-1.13-5.92l1.09-.07c1.6-.68,2.86-.09,4,1,.6.53,2.2.57,1,2-.27.2-.83.22-.86.3-.21.76.65.39.87.74l-1,2.91A5.77,5.77,0,0,1,101.32,90.94Z"/><path class="cls-312" d="M99.24,106.94c.52-1.53-4.74-1.68-.95-4l2.93,1A2.87,2.87,0,0,1,99.24,106.94Z"/><path class="cls-313" d="M105.26,86a5.94,5.94,0,0,1-4-1c.27-2.68,2.32-1.78,3.85-1.91A2.4,2.4,0,0,1,105.26,86Z"/><path class="cls-314" d="M106.23,89c-1.16.32-2.27,1.54-3.53.31a1.16,1.16,0,0,1,0-1.72c1.28-1.24,2.35,0,3.49.37C106.23,88.33,106.23,88.68,106.23,89Z"/><path class="cls-197" d="M48.25,90c-1.43-1.51-1.27-3-.13-4.93,1.38,1.92-.43,3.41.15,4.91Z"/><path class="cls-315" d="M54.27,60c-1,4.17-4.7,6.6-6.46,10.42-2.67,5.78-4.72,11.78-7.22,18.31C39.9,78.45,47.41,63.13,54.27,60Z"/><path class="cls-316" d="M25.24,84a59.56,59.56,0,0,1,11.93-29.4c1.42-1.82,2.72-3.72,4.07-5.59,2.1.27,2,1.23.87,2.62-8,9.69-12.33,21.14-15.85,33-.12.43.5,1.44-.72,1.26-.09,0-.19-.26-.2-.4C25.29,85,25.27,84.48,25.24,84Z"/><path class="cls-317" d="M47.24,54c-7.23,7-10.78,16-14,25.15a16.51,16.51,0,0,1-2,4.73V78C34.15,69.26,38,61.07,44.12,54,45.47,52.49,46.15,51.86,47.24,54Z"/><path class="cls-245" d="M75.27,89.94c.3,0,.61.07.92.09,1.79,1.31,3.43,1.69,7.92,1.82.21.27.43.67.26.87-3.2,3.71-3.2,7.44-.13,11.21,0,.35,0,.7,0,1-3.62,1.51-4.75-3.53-8-3l0,.08C75,98.07,76.79,93.88,75.27,89.94Z"/><path class="cls-318" d="M34.56,91.81c-2.54,1.46-5.09,1.55-8.75.26C29.36,90.31,32,91.18,34.56,91.81Z"/><path class="cls-319" d="M76.25,102c3.69-1.71,5,2.84,8,3,1.24,5.69-3,.47-3.88,2C79.91,104.51,78.09,103.23,76.25,102Z"/><path class="cls-305" d="M84.24,103.93c-5.27-5-5.27-5,0-12,.09-.19.17-.38.26-.58a1.47,1.47,0,0,1,1.66-.49l.17.14c-.2,2.06-1.83,3.49-2.43,5.32-.91,2.81-.8,5.36,3.41,4.58a3.39,3.39,0,0,1,1.38-.89c3,0,6-.37,9,.37l.6.56v1c-3.67.42-7.51-.87-11,1.06Z"/><path class="cls-197" d="M47.81,110.6c1.94.35,3.52.94,2.87,3.1-.11.37-.78.91-1.08.84C47.38,114.05,48.37,112,47.81,110.6Z"/><path class="cls-277" d="M109.23,117c.34.33.67.66,1,1-2.94,2.13-6.06,3.79-10.17,3.19Z"/><path class="cls-229" d="M121.07,116.05c2.12.22,3.29-.93,4-2.76,1.37-3.44,2.76-6.87,4.14-10.31,2.06,3.58-.15,6.6-1.43,9.63a62.4,62.4,0,0,1-3.66,6.45A6.54,6.54,0,0,1,121.07,116.05Z"/><path class="cls-320" d="M84.13,87.09l1.13.91c1,1.67-.14,2.52-1.29,3.37-2.28-.21-5,1.84-6.69-1.4-.29-4.68,2.17-5.19,5.85-3.88a8.27,8.27,0,0,1-2.2,2C82.43,88.51,83.17,87.46,84.13,87.09Z"/><path class="cls-321" d="M84.13,87.09c-.13,2.41-1.57,3.09-3.72,2.76-.87-.13-1.9-.76-1.69-1.49.61-2.13,2.78-1.78,4.41-2.27C83.46,86.42,83.8,86.75,84.13,87.09Z"/><path class="cls-322" d="M77.28,90c2.12,1.4,4.46,1.08,6.79.9.37.2.51.42.43.68s-.19.4-.3.4h0c-2.78-.65-3.1,2.27-4.78,3.48L76.19,90Z"/><path class="cls-245" d="M84.2,92c0-.36-.08-.72-.13-1.08L85.26,88c.3,0,.61,0,.92-.1,0,.4.11.8.17,1.21l-.24,1.78Z"/><path class="cls-323" d="M97.23,78l3.63,4.18c-3.08-1.13-5.69-.9-3.63-4.18Z"/><path class="cls-324" d="M88.19,100.94h-.93c-3.14-3.53,0-7.38,1.41-9.1,2.58-3.1,7-2.94,10.56.16-2.23-.49-3.58,1.46-5.44,2a4.08,4.08,0,0,0-3.33,3.25,1.31,1.31,0,0,0,1.39,1.63c2.05,0,4.41,1.07,6-.88.8-1,1-2.46,2.37-3-.27,2.13.76,4.69-2,6h0A21.21,21.21,0,0,0,88.19,100.94Z"/><path class="cls-325" d="M93,103.9c.75.29,1.75.06,1.33,1a2.08,2.08,0,0,1-1.48.87c-.58.08-1.42-.17-1.1-1C91.91,104.37,92.64,104.14,93,103.9Z"/><path class="cls-310" d="M88.19,100.94a11.79,11.79,0,0,1,10,0Z"/></g></g></svg>