<svg xmlns="http://www.w3.org/2000/svg" viewBox="0 0 186.97 186.96"><defs><style>.cls-1{fill:#fefefe;}.cls-2{fill:#fdfdfd;}.cls-3{fill:#5a4325;}.cls-4{fill:#594325;}.cls-5{fill:#624a28;}.cls-6{fill:#674e2a;}.cls-7{fill:#453517;}.cls-8{fill:#674d26;}.cls-9{fill:#7a6a2c;}.cls-10{fill:#5e4626;}.cls-11{fill:#654c29;}.cls-12{fill:#ddcf95;}.cls-13{fill:#604829;}.cls-14{fill:#6e5329;}.cls-15{fill:#694d26;}.cls-16{fill:#695331;}.cls-17{fill:#513e27;}.cls-18{fill:#765a2f;}.cls-19{fill:#594121;}.cls-20{fill:#705427;}.cls-21{fill:#392f25;}.cls-22{fill:#d7c78f;}.cls-23{fill:#9c8f55;}.cls-24{fill:#856238;}.cls-25{fill:#8d8878;}.cls-26{fill:#946f40;}.cls-27{fill:#695a24;}.cls-28{fill:#4b4236;}.cls-29{fill:#7a5a34;}.cls-30{fill:#302823;}.cls-31{fill:#6e502e;}.cls-32{fill:#947041;}.cls-33{fill:#775732;}.cls-34{fill:#836339;}.cls-35{fill:#a3814b;}.cls-36{fill:#74632b;}.cls-37{fill:#40311e;}.cls-38{fill:#8e6f43;}.cls-39{fill:#88663a;}.cls-40{fill:#987543;}.cls-41{fill:#87673a;}.cls-42{fill:#ba9e66;}.cls-43{fill:#cab179;}.cls-44{fill:#c6a972;}.cls-45{fill:#302923;}.cls-46{fill:#a88852;}.cls-47{fill:#a17e4a;}.cls-48{fill:#6e512e;}.cls-49{fill:#7d6136;}.cls-50{fill:#8d6e40;}.cls-51{fill:#694f2b;}.cls-52{fill:#d7c58d;}.cls-53{fill:#bda16a;}.cls-54{fill:#cebb86;}.cls-55{fill:#977b45;}.cls-56{fill:#b08e56;}.cls-57{fill:#a19456;}.cls-58{fill:#392e15;}.cls-59{fill:#675a20;}.cls-60{fill:#837851;}.cls-61{fill:#a79d5e;}.cls-62{fill:#43351b;}.cls-63{fill:#bdae71;}.cls-64{fill:#dfd39a;}.cls-65{fill:#aa9e64;}.cls-66{fill:#523f1e;}.cls-67{fill:#9e9155;}.cls-68{fill:#d9c790;}.cls-69{fill:#ccb07a;}.cls-70{fill:#baa36a;}.cls-71{fill:#362e25;}.cls-72{fill:#c9bd81;}.cls-73{fill:#977644;}.cls-74{fill:#907040;}.cls-75{fill:#4f3f23;}.cls-76{fill:#d6c089;}.cls-77{fill:#957343;}.cls-78{fill:#bfa068;}.cls-79{fill:#b59e64;}.cls-80{fill:#bcb173;}.cls-81{fill:#e4d9a5;}.cls-82{fill:#9c9154;}.cls-83{fill:#7f5e36;}.cls-84{fill:#9b7946;}.cls-85{fill:#d5c18a;}.cls-86{fill:#927141;}.cls-87{fill:#c2b67c;}.cls-88{fill:#3e3b34;}.cls-89{fill:#483c2b;}.cls-90{fill:#74652a;}.cls-91{fill:#765936;}.cls-92{fill:#987443;}.cls-93{fill:#a99b5a;}.cls-94{fill:#9e998a;}.cls-95{fill:#332715;}.cls-96{fill:#3c332b;}.cls-97{fill:#d3c78f;}.cls-98{fill:#dfd9b3;}.cls-99{fill:#989283;}.cls-100{fill:#66502f;}.cls-101{fill:#a79a5a;}.cls-102{fill:#86653a;}.cls-103{fill:#c5b97c;}.cls-104{fill:#ede2a0;}.cls-105{fill:#42392f;}.cls-106{fill:#4e4029;}.cls-107{fill:#6c4f2d;}.cls-108{fill:#beb475;}.cls-109{fill:#a49859;}.cls-110{fill:#3d352c;}.cls-111{fill:#bd9d64;}.cls-112{fill:#c3a56e;}.cls-113{fill:#494034;}.cls-114{fill:#312b26;}.cls-115{fill:#b4955d;}.cls-116{fill:#b6ab6d;}.cls-117{fill:#53493a;}.cls-118{fill:#d9c690;}.cls-119{fill:#ddcb98;}.cls-120{fill:#514333;}.cls-121{fill:#857f6b;}.cls-122{fill:#87653b;}.cls-123{fill:#826036;}.cls-124{fill:#756629;}.cls-125{fill:#977342;}.cls-126{fill:#c6a76f;}.cls-127{fill:#b6a86b;}.cls-128{fill:#5b4325;}.cls-129{fill:#44361d;}.cls-130{fill:#4e4334;}.cls-131{fill:#826237;}.cls-132{fill:#7d6531;}.cls-133{fill:#4e4538;}.cls-134{fill:#dccc96;}.cls-135{fill:#8e6d3e;}.cls-136{fill:#a7a394;}.cls-137{fill:#3f311f;}.cls-138{fill:#725838;}.cls-139{fill:#543f22;}.cls-140{fill:#938d7c;}.cls-141{fill:#9a8e55;}.cls-142{fill:#9e9b8f;}.cls-143{fill:#8c8675;}.cls-144{fill:#c6bc7e;}.cls-145{fill:#7f633e;}.cls-146{fill:#3d2d19;}.cls-147{fill:#9e9a8b;}.cls-148{fill:#82663c;}.cls-149{fill:#a98751;}.cls-150{fill:#4c4034;}.cls-151{fill:#645527;}.cls-152{fill:#987645;}.cls-153{fill:#795e38;}.cls-154{fill:#3f3c34;}.cls-155{fill:#3e362d;}.cls-156{fill:#dbca94;}.cls-157{fill:#b08e55;}.cls-158{fill:#c9ae76;}.cls-159{fill:#392b19;}.cls-160{fill:#c5a66f;}.cls-161{fill:#d0b781;}.cls-162{fill:#cdb27a;}.cls-163{fill:#4a4841;}.cls-164{fill:#896a3d;}.cls-165{fill:#967342;}.cls-166{fill:#8b7648;}.cls-167{fill:#8f6b3e;}.cls-168{fill:#baad73;}.cls-169{fill:#b29059;}.cls-170{fill:#bda46b;}.cls-171{fill:#bfa169;}.cls-172{fill:#2a2725;}.cls-173{fill:#795b33;}.cls-174{fill:#494740;}.cls-175{fill:#544629;}.cls-176{fill:#aaa697;}.cls-177{fill:#c5c0ad;}.cls-178{fill:#b8b4a2;}.cls-179{fill:#d0c9b5;}.cls-180{fill:#e4ddc6;}.cls-181{fill:#d7d1bc;}.cls-182{fill:#e9e2ca;}.cls-183{fill:#ded8c2;}.cls-184{fill:#705330;}.cls-185{fill:#826948;}.cls-186{fill:#4b3a24;}.cls-187{fill:#765935;}.cls-188{fill:#a9a493;}.cls-189{fill:#9f9c93;}.cls-190{fill:#979283;}.cls-191{fill:#adaba1;}.cls-192{fill:#938d7d;}.cls-193{fill:#8d7040;}.cls-194{fill:#989489;}.cls-195{fill:#635428;}.cls-196{fill:#3f311e;}.cls-197{fill:#221b0e;}.cls-198{fill:#cdb47c;}.cls-199{fill:#9b9686;}.cls-200{fill:#9c988d;}.cls-201{fill:#40311c;}.cls-202{fill:#7f6f54;}.cls-203{fill:#6b502d;}.cls-204{fill:#3e2e19;}.cls-205{fill:#8a693d;}.cls-206{fill:#574833;}.cls-207{fill:#b5b09d;}.cls-208{fill:#adaa9e;}.cls-209{fill:#cbc5b3;}.cls-210{fill:#c1bcab;}.cls-211{fill:#7a5d39;}.cls-212{fill:#6c5435;}.cls-213{fill:#d8d2bf;}.cls-214{fill:#634f34;}.cls-215{fill:#6c5332;}.cls-216{fill:#d2ccba;}.cls-217{fill:#7b5f3c;}.cls-218{fill:#a9a596;}.cls-219{fill:#b5b19f;}.cls-220{fill:#b7b4a8;}.cls-221{fill:#19130a;}.cls-222{fill:#e5dfc9;}.cls-223{fill:#dfd9c4;}.cls-224{fill:#b7b4a7;}.cls-225{fill:#8e8878;}.cls-226{fill:#aca797;}.cls-227{fill:#b8b6ac;}.cls-228{fill:#6b5335;}.cls-229{fill:#adaba2;}.cls-230{fill:#43361c;}.cls-231{fill:#2b2624;}.cls-232{fill:#393129;}.cls-233{fill:#434039;}.cls-234{fill:#a5824d;}.cls-235{fill:#4e4b44;}.cls-236{fill:#57544e;}.cls-237{fill:#524f48;}.cls-238{fill:#47453e;}.cls-239{fill:#9c7946;}.cls-240{fill:#54514a;}.cls-241{fill:#59564f;}.cls-242{fill:#5e5b54;}.cls-243{fill:#48453e;}.cls-244{fill:#4c4a43;}.cls-245{fill:#4e4c45;}.cls-246{fill:#675237;}.cls-247{fill:#775833;}.cls-248{fill:#8d6b3e;}.cls-249{fill:#b8965d;}.cls-250{fill:#b89c5d;}.cls-251{fill:#987644;}.cls-252{fill:#5e5a54;}.cls-253{fill:#43413a;}.cls-254{fill:#a07c48;}.cls-255{fill:#785933;}.cls-256{fill:#e8e1ca;}.cls-257{fill:#96774c;}.cls-258{fill:#473620;}.cls-259{fill:#ae8e57;}.cls-260{fill:#6a4e2d;}.cls-261{fill:#463620;}.cls-262{fill:#85643b;}.cls-263{fill:#a98c5a;}.cls-264{fill:#8d7048;}.cls-265{fill:#bfa160;}.cls-266{fill:#b6b19f;}.cls-267{fill:#b8b5aa;}.cls-268{fill:#a4a090;}.cls-269{fill:#7e633f;}.cls-270{fill:#a7a49b;}.cls-271{fill:#b4b09f;}.cls-272{fill:#775a37;}.cls-273{fill:#846640;}.cls-274{fill:#bfbaa8;}.cls-275{fill:#c4bca8;}.cls-276{fill:#584428;}.cls-277{fill:#ccc6b3;}.cls-278{fill:#c0bcac;}.cls-279{fill:#423726;}.cls-280{fill:#483821;}.cls-281{fill:#c3bdaa;}.cls-282{fill:#e9e2cb;}.cls-283{fill:#d6cfbb;}.cls-284{fill:#8e6a3d;}.cls-285{fill:#8b6a3e;}.cls-286{fill:#80633f;}.cls-287{fill:#e2dcc6;}.cls-288{fill:#a5814a;}.cls-289{fill:#957344;}.cls-290{fill:#d7d1bd;}.cls-291{fill:#cbc7bb;}.cls-292{fill:#907249;}.cls-293{fill:#d1cab7;}.cls-294{fill:#c4bfab;}.cls-295{fill:#e0dac4;}.cls-296{fill:#d9d3be;}.cls-297{fill:#bdb9aa;}.cls-298{fill:#c9c5b8;}.cls-299{fill:#b8b3a1;}.cls-300{fill:#525049;}.cls-301{fill:#b99b63;}.cls-302{fill:#ad8d52;}.cls-303{fill:#5a4528;}.cls-304{fill:#8d693d;}.cls-305{fill:#cbb573;}.cls-306{fill:#ceb469;}.cls-307{fill:#bfa05c;}.cls-308{fill:#baaa84;}.cls-309{fill:#ceb871;}.cls-310{fill:#826540;}.cls-311{fill:#745a39;}.cls-312{fill:#cdc7b4;}.cls-313{fill:#aba798;}.cls-314{fill:#b0935b;}.cls-315{fill:#ccb677;}.cls-316{fill:#e6dfc8;}.cls-317{fill:#d8d2be;}.cls-318{fill:#d2cbb8;}.cls-319{fill:#e3ddc6;}.cls-320{fill:#dcd6c1;}.cls-321{fill:#9d7a47;}.cls-322{fill:#8c826c;}.cls-323{fill:#d4c8a6;}.cls-324{fill:#382a17;}.cls-325{fill:#2d2212;}.cls-326{fill:#a3895c;}.cls-327{fill:#eee9d3;}</style></defs><g id="Layer_2" data-name="Layer 2"><g id="Layer_7_Image" data-name="Layer 7 Image"><path class="cls-1" d="M168,0a186.48,186.48,0,0,1-18,18c-1.87,1.44-3.29,0-4.7-.87s-2.57-1.88-4.33-1.58a2.78,2.78,0,0,1-1.24-.45c-1.13-2.76-3.7-3.42-6.19-4.2a7.51,7.51,0,0,1-1.19-.63,9.46,9.46,0,0,0-6.59-2.69,4.17,4.17,0,0,1-1.25-.36c-1.21-.77-2.35-1.72-3.92-1.68a5.77,5.77,0,0,1-1.23-.35c-1.7-.63-3.42,0-5.13-.05a8.79,8.79,0,0,1-1.36,0,7.63,7.63,0,0,1-2-.45c-1.64-.82-3.4-1.34-5-2.2-.71-.66-1.36-1.35-.83-2.44Z"/><path class="cls-2" d="M105,0l1,1.89C104.2,4,101.57,3,99.42,3.71,97.64,4,96,3.4,94.31,3c-2.4-.77-4.54,1.29-6.93.65C85.27,3,82.71,3.92,81,1.88c.34-.62.67-1.25,1-1.88Z"/><path class="cls-3" d="M57,178.08a.81.81,0,0,0-.77-.23C51,175.1,45.12,173.61,41,169l-.08,0a5.92,5.92,0,0,1-4-2.8L35.07,165a3.5,3.5,0,0,1-1.92-2.18c-.25-1.36-.1-2.84,1-3.55,3.24-2,6-4.38,7.58-8,.4-.88,1.41-.42,2.11.08a2.41,2.41,0,0,1,.6,1.29,12.85,12.85,0,0,1-.77,3.46c-.46,1.23-.75,2.75-1.91,3.34-5.06,2.56-1.76,4.05.57,5.85,2,1.5,4.16,2.58,6.21,3.92,7.66,4,15.44,7.61,23.77,10,1.65.85,4.22.08,4.82,2.75-.86,1.23-2.27,1.12-3.49,1.47A44.38,44.38,0,0,1,57,178.08Z"/><path class="cls-4" d="M177,53.8c1.68,1.75.16,5,2.84,6.25,1.5,1.08.45,2.79,1,4.09a8.74,8.74,0,0,0,2,5.9c1.49,1.15.47,2.86,1,4.23.08.58.15,1.15.23,1.72a2.76,2.76,0,0,1,.54,2.15c-.37,1.22-.6,2.54-2,3.06-3.13-2.24-2.33-6-3.43-9-.33-4.47-2.88-8.26-3.86-12.52A11.6,11.6,0,0,0,173,55.53a71.26,71.26,0,0,0-7.64-13.77c-1.28-1.9-2.91-3.53-4.19-5.44-.68-1.64-.56-2.87,1.58-3A3,3,0,0,1,165,34.92l2.12,3c3.11,2.27,4.56,5.61,5.85,9.05h0C175.15,48.76,176.06,51.29,177,53.8Z"/><path class="cls-5" d="M124.84,179.88,122,181.11c-2,2-4.67,1.3-7,1.76h0c-.55.7-1.27.59-2,.43-1.1-.45-2.55-.21-3.17-1.61,1.67-3.27,5.12-2.48,7.8-3.46.91-.25,1.84-.42,2.77-.59a22.72,22.72,0,0,0,4.48-1.44c2.2-1,4.41-2,6.68-2.85a18.6,18.6,0,0,0,2.29-1.23,23,23,0,0,0,3.82-2.49,36.38,36.38,0,0,1,4.87-3.09,7.82,7.82,0,0,1,1.16-.47,6.68,6.68,0,0,0,3.07-1.85c.82-1.12,2.64-1.22,2.92-2.9a1.42,1.42,0,0,1,.9-.83c1.7-.1,2.38,1,2.82,2.38.09,1.12-.64,1.63-1.52,2L150,166.16a3.72,3.72,0,0,1-3.18,2.47l-.85.51a10.81,10.81,0,0,1-6,3.81l-1.14.74c-.91,1.57-2.65,1.57-4.08,2.17L131,178.12C129.14,179.43,127,179.57,124.84,179.88Z"/><path class="cls-3" d="M182.14,117c-1.34,4.68-2.16,9.51-4.42,13.89a32.87,32.87,0,0,1-7.81,14l0,0c-.51,1.67-1.09,3.29-2.88,4l0,.09c-.84,1.14-.67,3.14-2.74,3.27a2.35,2.35,0,0,1-1.56-1.19,2.65,2.65,0,0,1,0-1.34,25.71,25.71,0,0,1,2-3.47c3-3.24,4.28-7.47,6.63-11.08,2.87-4.17,4.35-8.94,5.79-13.72,1.95-3.57,1.79-7.78,3.47-11.44a1.94,1.94,0,0,1,2.15-.45,1,1,0,0,1,.43,1.35c0,.35.05.69.07,1A5.21,5.21,0,0,1,182.14,117Z"/><path class="cls-6" d="M16,143.18,15,142a28.69,28.69,0,0,1-3.84-7.18v0c-2.42-1.59-1.84-4.62-3.21-6.72L7,126c-1.15-1.12-.4-2.48-.49-3.73a1.65,1.65,0,0,1,1.29-1.68c1.92.1,2.24,1.76,3,3a146.79,146.79,0,0,0,7.73,15.66,26.59,26.59,0,0,0,2,3.41c.56.93,1,1.93,1.6,2.86,1.23,2.17,3.62,3.44,4.58,5.84a3.05,3.05,0,0,1-.52,2.78c-3.09,1.06-3.74-1.7-5.14-3.28L19.85,149A14.83,14.83,0,0,1,16,143.18Z"/><path class="cls-7" d="M163,150.94l1,1.08c-1.33,2.89-2.18,6.09-5.22,7.83-1.71,0-2.66,1.25-3.78,2.21-.45.75-.94,1.39-2,.93s-1.48-2.2-3.06-2a1.23,1.23,0,0,1-1.32.21c-3.55-3-3.55-7-3-11.1,2.53-.94,3.17,1.19,3.81,2.67,1.23,2.84,3.16,3.53,5.92,2.64,3.12-.24,3.5-4.1,6.27-4.8A1.47,1.47,0,0,1,163,150.94Z"/><path class="cls-8" d="M109.25,183.91,106,185c-3.87,1.76-8.11.55-12.07,1.49-2.47-.75-2.75-2-.75-3.62,1.37-1.1,3.3-1.29,4.51-2.67,1.1-1.19,1.28-3.12,3-3.77,2.29-.35,2.81,1,2.52,2.83s1,2,2.29,2.16a22,22,0,0,1,2.82,1.63A3.29,3.29,0,0,1,109.25,183.91Z"/><path class="cls-9" d="M98.79,180.66c-.74,2-2.69,1.94-4.25,2.59-1.09.45-2.67.75-1.52,2.58A27.22,27.22,0,0,1,81,185l-1.85-.11a.75.75,0,0,1-.37-.74c0-.28.12-.43.2-.43,2-1.45,4.36-.57,6.45-1.25a4.33,4.33,0,0,0,.88-.83c1-2.16-1.82-6,2.81-6.55,3.16,6.26,3.17,6.27,8.26,3.62C98.67,178.75,98.53,179.85,98.79,180.66Z"/><path class="cls-2" d="M81,185c4-.08,8.08-.28,12,.83,4.34,0,8.58-1.52,13-.87a4.85,4.85,0,0,1-3.84,1.94q-8.64.12-17.28,0A5,5,0,0,1,81,185Z"/><path class="cls-2" d="M78.71,184.05c.14.28.28.56.43.84-7.08-.3-13.79-2.3-20.42-4.6A2.39,2.39,0,0,1,57,178.08c5.81,1.15,11,4.51,17.08,4.74C75.88,182.25,77.53,182.24,78.71,184.05Z"/><path class="cls-2" d="M165,34.92l-1.75-1c-.77-.48-1.72-.32-2.51-.71a13.35,13.35,0,0,1-1.87-2.73c-1.25-2.26-4-2.85-5.49-4.79a2.79,2.79,0,0,1-.52-2.62c4,.22,6.7,3.05,9,5.5C163.19,30,165.43,32.11,165,34.92Z"/><path class="cls-10" d="M152.84,23.06,154,24.91a2.53,2.53,0,0,1-2.63.82,27.68,27.68,0,0,1-9.3-6.36,2.09,2.09,0,0,1-.29-1.36,3.4,3.4,0,0,1,2.33-1.44c2.4.78,4.65,1.8,5.93,4.18Z"/><path class="cls-2" d="M41,169l15.2,8.84C50.53,176,44.21,175.18,41,169Z"/><path class="cls-2" d="M169.91,144.9l7.81-14c.14.09.39.17.4.27C178.46,134.8,173.4,143.26,169.91,144.9Z"/><path class="cls-2" d="M185.08,82.93c1.67,6.72,3.23,13.45,0,20.18l-.62-.49c-1.66-2.84,0-5.65.06-8.48.1-2.07-.81-4-.85-6.06a8.4,8.4,0,0,1,.75-4.63Z"/><path class="cls-2" d="M158.77,159.85,164,152l3-3C165.59,153.68,163.63,157.87,158.77,159.85Z"/><path class="cls-2" d="M150,20.75c-2.31-.71-3.49-3.33-6.07-3.59-1.42-.08-3,.1-3-2.09,1.53-1.92,2.78-.7,4,.4A8.73,8.73,0,0,0,150,18C150.47,18.91,150.81,19.82,150,20.75Z"/><path class="cls-2" d="M34,162.94c.35.68.71,1.35,1.07,2-3.86-.43-6.27-2.82-8.11-6l.56-.44a3.26,3.26,0,0,1,1.39-.09C31.43,159,32.82,160.85,34,162.94Z"/><path class="cls-2" d="M21,150.88c2,.47,2.54,3.2,4.9,3.05,2.29,1.14,2.49,2.81,1.24,4.85L27,159C23.53,157.35,22.46,154,21,150.88Z"/><path class="cls-2" d="M173,47,167.1,38C171.21,39.6,172.9,42.78,173,47Z"/><path class="cls-2" d="M183.14,111a1.06,1.06,0,0,1,0-1,12,12,0,0,1-.36-2.22c.35-1.79-.78-4.26,2.21-4.84l.19.14C184.88,105.84,188.78,109.62,183.14,111Z"/><path class="cls-2" d="M183.81,78.06l.24-2.07c3.5,1.85,1.66,4.48,1,6.94l-.36.29a1.12,1.12,0,0,1-1.25-.65A11.27,11.27,0,0,1,183.81,78.06Z"/><path class="cls-2" d="M140,173l6-3.81C145.05,172.1,143.48,174,140,173Z"/><path class="cls-2" d="M177,53.8c-2.26-1.72-2.57-4.61-4.06-6.79C175.72,48.42,177.73,50.29,177,53.8Z"/><path class="cls-2" d="M124.84,179.88c1.92-1,3.84-2.06,6.14-1.76C129.6,181,127.4,181.1,124.84,179.88Z"/><path class="cls-2" d="M114.91,182.87c2.12-1.5,4.8-.75,7-1.76C120.31,184.49,117.67,183.94,114.91,182.87Z"/><path class="cls-2" d="M16,143.18A12.09,12.09,0,0,1,19.85,149H19C17.22,147.44,15.15,146.07,16,143.18Z"/><path class="cls-2" d="M182.14,117c-.87-1.92,1-3.24,1.07-5C184.64,114.06,186.19,116.13,182.14,117Z"/><path class="cls-2" d="M37,166.16a8.17,8.17,0,0,1,4,2.8C38.49,169.62,36.84,169.14,37,166.16Z"/><path class="cls-2" d="M146.82,168.63a6.62,6.62,0,0,1,3.18-2.47C150.72,169.27,149.15,169.43,146.82,168.63Z"/><path class="cls-2" d="M167,149l2.88-4C170.05,147.07,170.26,149.25,167,149Z"/><path class="cls-2" d="M153,163l2-.93c1.28,3.58-1.4,2.7-3.18,2.82Z"/><path class="cls-2" d="M183.82,74.27c-1.37-1.16-.6-2.83-1-4.23C185.43,70.93,184.74,72.58,183.82,74.27Z"/><path class="cls-2" d="M112.92,182.85h2c-1.59,2-3.77.79-5.67,1l-.27-.14-.27.13C109.6,181.48,111.37,182.6,112.92,182.85Z"/><path class="cls-2" d="M180.87,64.14c-1.32-1.12-.72-2.72-1-4.09C182.32,60.88,181.86,62.44,180.87,64.14Z"/><path class="cls-2" d="M134.76,175.86l4.08-2.17C138.32,176,136.6,176,134.76,175.86Z"/><path class="cls-11" d="M68,4.85l4-.77a1.72,1.72,0,0,1,2-.33,2.18,2.18,0,0,1,.46,1.35c-1,2.69-4.22,2-5.75,3.83a12.64,12.64,0,0,1-4.52,2c-5.28,1.09-9.33,4.86-14.31,6.6l-1.64,1.23c-2.89,1.95-5.71,4-8.49,6.11-2.09,1.07-4.22,1.75-6.51.56C31.85,23.33,34,23,35,22c2.08-1.27,3.54-3.45,6-4.11,3.72-3.71,8.43-5.73,13.16-7.69v0C55.32,8.48,57.26,8.5,59,8.07l0,0c.7-1.18,2-.41,3-1l0,0A9,9,0,0,1,68,4.85Z"/><path class="cls-12" d="M26.08,30.13l1-1.06a2.17,2.17,0,0,1,1.9-1.59,2.35,2.35,0,0,1,1.7.94,4.77,4.77,0,0,1,.86,1.82,5.38,5.38,0,0,1,0,1.33c-.86,3.17.46,5.4,3,7.11,1.94,2.44.82,3.85-1.66,4.67C31,44,29,44,27.4,45.28a18.62,18.62,0,0,1-2.46,1.66c-2.67,1.14-4.05.08-3.81-2.89.13-1.67,1.05-3.12,1.47-4.7.42-1.87,1.76-3.57,1-5.65A39.45,39.45,0,0,0,26.08,30.13Z"/><path class="cls-13" d="M23.88,33.82c4.35,1.64-.69,3.23,0,4.85a27.41,27.41,0,0,1-2.43,4.57c-.89,1.47-1.85,2.91-2.8,4.35-1.35,2.21-3.35,4-4,6.67-.81,2.1-1.3,4.29-1.93,6.44A11.3,11.3,0,0,1,10.46,64a1.78,1.78,0,0,1-1.18.34c-.59-1.38-2.23.82-2.76-.8-.2-.91-.36-1.8.65-2.37v0c1.33-3,1.5-6.51,3.79-9.14l5-8.24A15.48,15.48,0,0,1,19.84,38L21,36.77C21.63,35.49,21.74,33.66,23.88,33.82Z"/><path class="cls-2" d="M3,111c-.41-.29-1.15-.56-1.16-.87-.49-8.37-3.93-16.76,0-25.12,1.2.88,1.26,2.2,1.34,3.51-.06,2-.51,4-.07,6,.15,1.34.19,2.67.22,4C3.05,102.68,6.06,106.92,3,111Z"/><path class="cls-14" d="M3,111c.69-4.36-1.22-8.54-.88-12.88,1.23-.47,2.06.19,2.84,1,1.77,2.41,1.17,5.24,1.42,7.93a21.19,21.19,0,0,1,0,2.52c-.37,2.79.83,5.85-1.42,8.31C3.32,115.85,3.2,113.41,3,111Z"/><path class="cls-15" d="M2.18,88.67C2.08,87.44,2,86.21,1.89,85a.67.67,0,0,0,.23-.76c.43-2.71-1-5.65.95-8.18v0c1.08-1.53-.17-3.48.89-5a.77.77,0,0,0,.16-.78.74.74,0,0,1,1.27,0c1.31,2.12.74,4.58,1.26,6.84-.4,3-.07,6.14-1.35,9C4.46,87.16,4.31,89.1,2.18,88.67Z"/><path class="cls-16" d="M5,117.86l.06-9c3.9,3.26,4.43,7.4,3.14,12l-1.32,1.26a.5.5,0,0,1-.8-.27A4.94,4.94,0,0,1,5,117.86Z"/><path class="cls-17" d="M5.88,77c-1.81-2.17-.43-4.74-.9-7.08-.36-1.43.35-2.62.84-3.86L6,65c.36-.32.44-.94,1.07-1,.64.44,1.34-3.42,1.95,0C9.31,68.67,8.88,73.12,5.88,77Z"/><path class="cls-2" d="M54.15,10.2,41,17.89C44,12.89,48.79,11.1,54.15,10.2Z"/><path class="cls-2" d="M29.09,28l-2.05,1C27.24,24,31.42,23.35,35,22c.21,1.49-1.67,1.59-1.87,2.81a1.14,1.14,0,0,1,.31.81c0,.3,0,.45-.11.45C32.29,27.58,30.5,27.41,29.09,28Z"/><path class="cls-18" d="M81,1.88c2.33.75,5-1,7.15,1C87.5,6.45,84.77,6,82.27,5.94A3.53,3.53,0,0,1,81,5.32c1.15-2.57-1.6-1.23-2.13-2.12A.87.87,0,0,1,79,2Z"/><path class="cls-2" d="M23.88,33.82c-1,1-1.95,2-2.92,3-.45-3.87,3.23-4.57,5.12-6.64C26.5,32.05,25,32.79,23.88,33.82Z"/><path class="cls-2" d="M11,52a19.58,19.58,0,0,1-3.79,9.14C8,57.9,6.77,53.83,11,52Z"/><path class="cls-2" d="M3.07,76.05c-.49,2.71.74,5.61-.95,8.18C1.06,81.35-.57,78.4,3.07,76.05Z"/><path class="cls-2" d="M11.2,134.79A17.08,17.08,0,0,1,15,142C12.39,140.31,10.94,138,11.2,134.79Z"/><path class="cls-2" d="M19.84,38A12.17,12.17,0,0,1,16,43.75C15.46,40.63,17.08,38.92,19.84,38Z"/><path class="cls-2" d="M8,128.05c2.24,1.68,2.23,4.44,3.21,6.73C7.56,133.77,8.25,130.68,8,128.05Z"/><path class="cls-2" d="M79,2a4.34,4.34,0,0,0-.36.86C77.52,4.81,76,5.3,74.07,4.09H72C74,2.25,76.43,1.91,79,2Z"/><path class="cls-2" d="M68,4.85l-5.9,2.2C63.53,5,65.08,3.15,68,4.85Z"/><path class="cls-2" d="M59,8.07l-4.86,2.16C55,7.86,56.59,7,59,8.07Z"/><path class="cls-2" d="M6.05,121.92c.27.1.53.19.8.27.05,1.26.11,2.53.16,3.79C3.49,125.38,6.51,123.24,6.05,121.92Z"/><path class="cls-2" d="M7.07,64,6,65c.63-1.2-2.68-3.6,1.17-3.83C7.14,62.11,7.1,63.06,7.07,64Z"/><path class="cls-2" d="M5.82,66c.53,1.46-.56,2.57-.84,3.86a4.06,4.06,0,0,1-.87.35C3.86,68.48,4.07,66.93,5.82,66Z"/><path class="cls-2" d="M4,71a7.45,7.45,0,0,1-.89,5C3.2,74.32,2.35,72.44,4,71Z"/><path class="cls-2" d="M62,7.07c-.75,1-1.9.86-3,1C59.23,5.28,60.71,6.48,62,7.07Z"/><path class="cls-19" d="M141,15.07l3,2.09-2.05.87c-4,.32-6.76-2.43-10.09-3.78a16.15,16.15,0,0,0-4.5-2.32c-.39-.17-.77-.37-1.15-.57a12.19,12.19,0,0,0-5-1.37c-3.38-1.65-7.63-1.26-10.4-4.37,0-1.46,1.5-.88,2.15-1.46L114,4c1.79,1.44,4.17-.58,5.93,1l.08,0a7.79,7.79,0,0,1,4.92,2l.1,0c2.85.42,5.7.89,7.85,3.1h0c2.39,1.54,5.74,1.62,7.13,4.67Z"/><path class="cls-20" d="M98.84,2.76C101,1,103.65,2.58,106,1.89A9.49,9.49,0,0,1,111,4c-1.23,1.21-2.6.92-3.89.24-1.76-.91-.52.73-.9,1a2.68,2.68,0,0,1-1.47,1.32,3.19,3.19,0,0,1-2.11-.2C101.5,5,98.62,5.52,98.84,2.76Z"/><path class="cls-2" d="M140,14.81c-2.06-2-5.51-2-7.13-4.67C136,10.56,139.79,9.93,140,14.81Z"/><path class="cls-2" d="M132.87,10.14,125,7C128.56,5.73,131.17,6.79,132.87,10.14Z"/><path class="cls-21" d="M106.05,4.86c-.91-1.66-.89-1.77-.3-1.7,1.75.22,3.49.54,5.24.83l1.93.17-2.06,1C109.18,6.4,107.57,6.43,106.05,4.86Z"/><path class="cls-2" d="M119.92,5c-2-.21-4.15.46-5.93-1C115.81,5.26,118.53,1.23,119.92,5Z"/><path class="cls-2" d="M124.92,7,120,5.05C122.59,3.3,123.82,5,124.92,7Z"/><path class="cls-22" d="M81.17,5.23c2.54-.11,5.09-.24,7-2.35,2.09.41,3.62-2.67,5.92-1a3.77,3.77,0,0,1-1.9,2.74c-2.48,1.63-4.05,3.69-4.07,6.83,0,1.25-.33,2.7-2.15,2.74a6.67,6.67,0,0,0-7-.84c-2.49,1.09-5.21.83-7.84,1.09-2.34.25-4.65,1.18-7,.27C61,13.2,60.31,11.6,64,9.94l4-1.81C72.29,6.67,76.4,4.46,81.17,5.23Z"/><path class="cls-23" d="M86.07,13.87c.54-5.39,2.57-9.8,8-11.95l4.79.84c.71,2,4,.44,4.23,3.07a1.78,1.78,0,0,1-1.26,1.47C99,6.73,96.42,4.16,93.19,5.87,89.64,7.38,88.83,10,90,13.5c0,1.56.06,3.1-1.65,3.91a2.47,2.47,0,0,1-2.88-2.11A1.85,1.85,0,0,1,86.07,13.87Z"/><path class="cls-24" d="M71.93,180a81.4,81.4,0,0,1-24-10c1.23-2.08,2.66-3.9,5.27-4.3C63.58,169,73.44,174,84.35,175.63a3.19,3.19,0,0,1,1.1,4c-1.34,1.38-2.39-.11-3.56-.37-2.66-.57-5.6-3.4-7.66,1.07C74,180.75,72.67,180.54,71.93,180Z"/><path class="cls-25" d="M44.07,152.92c-.11-.33-.21-.66-.31-1a6.22,6.22,0,0,1-.72-3.85c1-2.37,1.71-5.05,5-5.27.23.24.6.59.51.8-2.45,5.77,2.1,7.73,5.53,10.36a62.59,62.59,0,0,0,26.44,12c2.65.52,5.78.49,7.15,3.67a3,3,0,0,1-.26,2.14,1.61,1.61,0,0,1-1.25.56,18.35,18.35,0,0,0-4.67-1.62A74.16,74.16,0,0,1,48,157.16C46.43,156,44.41,155.24,44.07,152.92Z"/><path class="cls-26" d="M53,166c-1.39,1.7-2.86,3.31-5,4-4.31-2-7.93-4.95-12-8,2.6-2.13,6.09-2.7,7-6,5.38-.85,7.84,3.52,11.2,6.25A7.39,7.39,0,0,1,53,166Z"/><path class="cls-27" d="M43.81,148c0,1.33,0,2.66-.05,4-.78-.31-1.61-.64-1.75.65-.37,3.34-2.66,5.19-5.42,6.28A3.58,3.58,0,0,0,34,162.94l-5.81-4.39a17.48,17.48,0,0,1-1.1-7.84,10,10,0,0,1,2.2-4.16c1.74-2.1,4.16-2.79,6.69-3.25a2.76,2.76,0,0,1,2.13.56c.34,2.93-2,3.63-3.89,4.79-1.86.61-3.2,1.57-2.86,3.87.18,1.23.59,2.36,1.8,2.69,2.13.58,3.19-1,4.36-2.42C39.21,150.7,40.5,148,43.81,148Z"/><path class="cls-28" d="M54.14,162.89C50.39,160.65,47.51,157,43,156c0-1.14-.17-2.34,1.06-3.06a85.38,85.38,0,0,0,38.1,16.93c-1.6,1.93-4,1.24-6,1.76C68.07,170.68,60.6,168.06,54.14,162.89Z"/><path class="cls-29" d="M71.93,180c.77-.15,2.36-.06,2.13-.63-2.11-5.27,1.35-3.07,3.47-2.71,2.79.48,5.53,1,7.59,3.24,2,0,1.88,1.5,2,2.84a3.47,3.47,0,0,1-.46.4A16.31,16.31,0,0,1,77,181.87C75.75,180.12,73.21,181.8,71.93,180Z"/><path class="cls-30" d="M77,181.87l9.61,1.29c-2.5,1.63-5.37-.06-7.94.89l-4.64-1.23C74.81,181.71,76,182,77,181.87Z"/><path class="cls-31" d="M184,82.9a2.66,2.66,0,0,0,.73.32c.16,1.58.85,3.12.23,4.74a1,1,0,0,1-1.06.39c-1-.41-1.75-1.11-2.68-1.57a26.19,26.19,0,0,1-2.85-1.55c-.4-.25-.78-.52-1.17-.78C173.38,83.2,173.7,80,173.62,77a19.51,19.51,0,0,1,.08-2.42c.59-4.7,2-5.25,6.28-2.57,1.91,2.71.9,6.37,2.93,9C183.77,81.36,182.91,82.69,184,82.9Z"/><path class="cls-32" d="M166,41a45.52,45.52,0,0,1,7.91,14.08c-2,1.53-2.77,1.5-4.54-.7a35,35,0,0,0-4.78-5.52c-2.35-2-4.66-2.88-7.6-2.38a2,2,0,0,1-1.63-1.34c-.38-1.7.5-2.86,1.66-3.9.93-.68,1.72-1.72,3.11-1.35C161.78,41.79,163.81,41.8,166,41Z"/><path class="cls-33" d="M180,72c-5.47-2.12-5.34,1.35-5,5-3.48-.64-1.37-3.85-2.81-5.64-.84.18-.39,1.7-1.41,1.87-2.45-.61-2.62-2.66-3-4.61.14-3-.15-6.18,4.82-4.41,2,.7,1.7-1.74,1.83-3.1A2.27,2.27,0,0,1,176,59C177.42,63.28,180.44,67.1,180,72Z"/><path class="cls-34" d="M176,59l-1,2c.38,1.43-.59,1.4-1.52,1.41-1.06-1-1.06-2.61-2.29-3.45-4-3.78-6-9.88-12.62-10.48-1.09-.54-2.29-1-1.57-2.63,4.34-1.34,9.46,1.06,12,5.48,1.08,1.9,1.44,5,5,3.71A5,5,0,0,1,176,59Z"/><path class="cls-35" d="M166,41c-2.9,3.18-4.7,2.89-6-1-.42-1.78-.59-3.44,1.88-3.78A15,15,0,0,1,166,41Z"/><path class="cls-36" d="M161.85,36.22,160,40l-2,2a3.4,3.4,0,0,1-1.33-2.18,6.36,6.36,0,0,1,.75-3.14c1.42-1.07.1-4.88,3.72-3.77.81.13,1.73,0,2.12,1C161.4,33.87,161.47,34.94,161.85,36.22Z"/><path class="cls-37" d="M184,82.9l-.63,1.1-.45-3c.13-1-.16-2.21.9-3Z"/><path class="cls-38" d="M120.89,178.8,118,179c-2.42,0-3.47-1.3-3.36-3.64.42-1,1.72-.91,2.36-1.77-2.13-1.08-1.41,1.58-2.49,1.83-1.61,1.15-3.6,1.4-5.3,2.33-2.74,1.5-4.93.85-6.66-1.67a3,3,0,0,1,0-2.92,1.8,1.8,0,0,1,1.91-.61c.53.39-.2-.1.35.28a8.55,8.55,0,0,0,1.14.74c-.26-.21-.58-.32-.87-.54a1.18,1.18,0,0,1-.35-1.23,3.25,3.25,0,0,1,1.54-1.52,19.24,19.24,0,0,1,4.44-.78,21.31,21.31,0,0,1,5.26-.84c8.76-.64,8.75-.64,5.64,7.79C121.32,177.21,121.24,178.05,120.89,178.8Z"/><path class="cls-39" d="M115,175c.17,2,1.92,2.75,3,4-2.35,1.94-5.84.66-8.09,2.86A2.78,2.78,0,0,1,106,182l-4,.78c-1.19-2,1.93-4.44-1.07-5.88,0-1.6.78-1.6,1.91-1,1.88,1.6,3.77,2.35,6.08.63a8.56,8.56,0,0,1,6-1.58Z"/><path class="cls-40" d="M132.1,174.11,125,177c-.7.5-1.55.72-1.94-.17-.55-1.21.58-2,1.15-2.84a6.63,6.63,0,0,0,1.94-3.29,3.94,3.94,0,0,1,.7-1.14c2.39-1.27,4.22-3.58,7.12-4,2,.88,3.93,1.86,4.05,4.46-.23,2.45-2.78,1.82-4,3C133.18,173,132.33,173,132.1,174.11Z"/><path class="cls-41" d="M125,174c1,1-2.82,2,0,3l-4.11,1.81c-1.44-2-.43-3.61.69-5.39.65-1,1.24-2.81.77-3.68-.8-1.5-2.31,0-3.54.1-1,.09-2,0-3,.06,1.4-3.3,4.5-3,7.27-3.5,1.41.37,2.13,1.61,3.15,2.49A3.34,3.34,0,0,1,127,170c0,.35,0,.7,0,1.06C126.11,171.89,126,173.23,125,174Z"/><path class="cls-42" d="M149.1,160.78a5,5,0,0,0,.87.2c0,.33,0,.67,0,1-1.07.92-3,1.08-2.87,3.08a3.73,3.73,0,0,1-3.11,1.87,8.05,8.05,0,0,1-.48-9.85c1.1-.86,2.1-1,2.71.54S147.5,160.31,149.1,160.78Z"/><path class="cls-43" d="M144,156.87c-1.22,3.35-.51,6.7-.05,10.06a5,5,0,0,1-.86.13c-1.06.53-1.73-.12-2.41-.77-.18-1.71-1-2.78-2.83-2.88a2.43,2.43,0,0,1-1.19-2.27,3.63,3.63,0,0,1,2.63-1.69c1.11-.14,1.58-1,2-1.86a2.3,2.3,0,0,1,1.49-1.11A2,2,0,0,1,144,156.87Z"/><path class="cls-44" d="M141,166l2.14,1.09c-1.62,1.14-2.93,2.8-5.1,3l-4.1-4a.91.91,0,0,1-.26-.75c0-.27.09-.4.15-.4,1.89-.82,3.6,1,5.48.38A2.08,2.08,0,0,1,141,166Z"/><path class="cls-45" d="M106,182l3.87-.19c1,.22,2.29-.18,3,1-1.36.54-3-.27-4.21,1.05C107.55,183.66,106,184,106,182Z"/><path class="cls-43" d="M147.09,165.06c-1.57-3.37.95-2.95,2.87-3.08C150.13,164.05,148.17,164.15,147.09,165.06Z"/><path class="cls-46" d="M132.1,174.11c-.59-.51-1.3-1.11-.34-1.78s1.71-.16,2.29.71Z"/><path class="cls-47" d="M181.08,110c-.42,4.14-.37,8.41-3.2,11.89a.88.88,0,0,1-1.16.21,4.79,4.79,0,0,1-.85-1A6.13,6.13,0,0,0,173,118a1.94,1.94,0,0,1-.7-.49c0,.6.7.29.93.66.79,1.46.06,2.66-.59,3.88a4.14,4.14,0,0,1-1.68,1.42,3.13,3.13,0,0,1-1.52.07,3.2,3.2,0,0,1-2.15-2c-.5-4.79,2.86-8.71,3-13.44.05-2.12.47-4.25.18-6.4a4.23,4.23,0,0,1,.12-1.46A5.22,5.22,0,0,1,173,97.74c2.67.89,1.41,4.35,3.63,5.54.7,1.67.38,3.5.79,5.52,2-.36,1.76-4.83,4.85-2.76C183.21,107.77,182.53,109,181.08,110Z"/><path class="cls-48" d="M163,150.94c-.33,0-.66,0-1,0-3.18-.76-2.7-4.1-4.25-6,.07-3.39,2.55-4.82,5.07-6.21,2.88,3.28,3.74,2.78,6-3.47-1.19-1.43-3.19,1.24-4.26-.84,1.85-3.21,2.56-7.06,5.48-9.67,4.75,3,4.07,7,2,11.16-2.25,3.72-3.07,8.32-6.83,11.1-1.63.33-2,1.55-2.16,3Q163,150.48,163,150.94Z"/><path class="cls-49" d="M172,135.93a12.18,12.18,0,0,0-2-11,1.33,1.33,0,0,1,0-2c.32,0,.63,0,.95,0,2.07-.13,4-1.34,6.1-1a8.27,8.27,0,0,0,.86,0A28.42,28.42,0,0,1,172,135.93Z"/><path class="cls-50" d="M163,150c-1.3-1-1.18-2.11-.18-3.19.82-.89,1.63-.7,2.34.21A3.82,3.82,0,0,1,163,150Z"/><path class="cls-51" d="M181.08,110c.3-1.34.59-2.69.89-4-.77-1.18-.48-1.92.92-2.2,1.28,1.54,0,3.57,1,5.16.18.66-.18,1-.75,1.09Z"/><path class="cls-52" d="M8.17,120.93c-.64-4.12-1.25-8.24-3.14-12,0-.61.09-1.22.14-1.82.93-2-.39-5.83,4-5.09a4.53,4.53,0,0,1,1.39.45c2,5.18,4.24,10.24,8.08,14.4.86,2.11,1.74,4.21,1.1,6.57a3,3,0,0,1-2.05,1.93,5.76,5.76,0,0,1-2.07-.12c-.87-.13-1.73-.3-2.59-.49-1-.29-2.16-.08-3.08-.75C9.37,123,8.77,122,8.17,120.93Z"/><path class="cls-53" d="M19.87,143a4.47,4.47,0,0,1-2.15-2.93c2.39-2.91-.81-6,.24-8.93.66-1.41.11-3,.47-4.41a7.88,7.88,0,0,1,1.51-3,1.93,1.93,0,0,1,1.84.76,33.1,33.1,0,0,1,3,7.08c-.41,2.84-1,5.68.13,8.51C24,144.85,23.43,145.18,19.87,143Z"/><path class="cls-54" d="M19,131c-.7,2.56.83,4.83,1,7.3.12,2-.67,2.25-2.26,1.79A66.07,66.07,0,0,1,10,124c1-.27,2-1.56,3-.11,0,1,1.13.69,1.51,1.26a11.25,11.25,0,0,1,1.67,1.71,2.39,2.39,0,0,1,.1,1.27c-.91,2.31.93,2.12,2.22,2.44Z"/><path class="cls-55" d="M24,139c-2-2.41-.69-4.75.15-7.11,1.19,0,1.5.84,1.81,1.72a8.73,8.73,0,0,0,2.18,4.66,3.81,3.81,0,0,1,.48,1.25c-.1,1.76-.65,3.57.79,5.09a4.93,4.93,0,0,1,.67,2.52L28,150c-.91-.06-1.36.8-2.1,1.07-1.82-1.51-3.67-3-4.72-5.17C25.69,145,24.72,142,24,139Z"/><path class="cls-56" d="M24,139c1.33.91.9,2.34,1.07,3.59.19,1.51,1.84,3.18,0,4.49-1.49,1.09-2.4-1.39-3.92-1.15-.43-1-.87-1.92-1.31-2.87C24.46,144.94,23.87,141.59,24,139Z"/><path class="cls-57" d="M25.92,151.07c.18-.89-.26-2.15.81-2.54s1.06.78,1.29,1.47c.06,2.85.11,5.7.17,8.55l-1,.23c-.41-1.62-.82-3.23-1.24-4.85C25.93,153,25.92,152,25.92,151.07Z"/><path class="cls-58" d="M156,156c-3.66,2.18-6.33,1.91-7.52-2.79a3.87,3.87,0,0,0-2.72-3.15c-1.56.34-2.41-.81-3.41-1.64a13.65,13.65,0,0,1-3.2-4,5,5,0,0,0-2.9-2.93,2.57,2.57,0,0,1-1-1.7,1.92,1.92,0,0,1,1.43-2.14c3.59.52,5.39,3.5,7.74,5.68,1.57,1.46,3.29,2.69,5,4,1.13.94,2.06,2.08,3.15,3.14,0-1.58-.12-3.16,2.19-2.91C158.72,150.7,158.88,151.79,156,156Z"/><path class="cls-59" d="M156,156c.89-3.09,1.93-6.21-2-8.07-.91-.41-1.5-1-1.13-2.08a2.76,2.76,0,0,1,1.74-.69,12.89,12.89,0,0,0,2.91-.09l.56-.08c2.91,1,2.36,4.15,3.89,6C159.26,151.79,160.12,156.82,156,156Z"/><path class="cls-60" d="M143.05,148l2.75,2.09c1.35,3.5.32,7.73,3.3,10.73-3.24.72-3.07-3-5.07-3.91l-1.23-.29c-.4-1.09-.14-2.42-1.14-3.31a3.34,3.34,0,0,1-.35-1.23,7.3,7.3,0,0,1,1.21-3.7Z"/><path class="cls-61" d="M102.88,175.9a2.1,2.1,0,0,0-1.91,1l-2.18,3.72c-.81-.3-.69-1-.77-1.67a6,6,0,0,1-.33-5c1.22-.88,2.87-.4,4.09-1.3A1.33,1.33,0,0,1,103,173C102.93,174,102.9,174.93,102.88,175.9Z"/><path class="cls-62" d="M97.65,174.14c.56,1.58,1.65,3.13.37,4.85-1.55,1.53-2.67,3.86-5.56,2.71-3.15-1.25-3.64-3.81-3.48-6.74.13-.21.26-.42.4-.62,1.15-1.17,2,.45,3.14.41.19-6.94,0-13.84.11-20.74,0-2.1-.32-4.32,1.28-6.12,3.87,1,1.59,4.69,3,6.79.36,2.62,1,5.19,1.33,7.82s-1.47,5.28-.48,8A5.82,5.82,0,0,1,97.65,174.14Z"/><path class="cls-63" d="M87.11,182.76l-2-2.84c-.38-1.31-.76-2.63-1.15-3.94-.75-.89-.47-1.6.37-2.21a3.47,3.47,0,0,0,3.22-1.51,1,1,0,0,1,1.16-.46c1.25.95,1.09,2,.26,3.14v0C85.27,176.82,89.61,180.61,87.11,182.76Z"/><path class="cls-64" d="M150.94,25l3-.08c1.55,2.17,5.1,2.11,5.84,5.21a3.52,3.52,0,0,1-3.67,1.49c-1.52-.41-2.85-1.29-4.34-1.77-4.26-.76-4.11,3-5.34,5.26a2.66,2.66,0,0,1-1.74,1.18c-1.18-.24-1.52-1.15-1.75-2.16a6.61,6.61,0,0,1,.25-2.93c1.29-3,3.1-5.47,6.42-6.42A1.18,1.18,0,0,1,150.94,25Z"/><path class="cls-65" d="M156.18,30.83l3.63-.71,1.29,2.78c-2.6.3-1.09,3.54-3.06,4.29-1.61-1.32-1.25-3.5-2.25-5.08A1.3,1.3,0,0,1,156.18,30.83Z"/><path class="cls-40" d="M144.05,31.11l-.27,2.78a1.24,1.24,0,0,1-1.23-.29c-1-1.5-1.91-3.11-3-4.59-2-4.24-5.44-6.88-9.54-8.94-2.06-1-3.26-2.81-2.27-5.33.8-2,2-3,4.18-1.7l10,5a6.61,6.61,0,0,1,.15.89c-.08.2-.16.4-.23.6-.85,1.85.36,3.15,1.35,4.36A6.43,6.43,0,0,1,144.05,31.11Z"/><path class="cls-40" d="M150.94,25l-.37.16h-.4c-5.16.82-6.77-.37-8.25-6.07l.12-.15C145.42,20.34,148.08,22.81,150.94,25Z"/><path class="cls-66" d="M183.84,108.94c-1.53-1.43-.61-3.33-.94-5-.86-.73-1.53-1.65-2.44-2.34-1.06-1.47-1.19-2.91.15-4.3a5.8,5.8,0,0,0,2.73-3.61c1.1-1.45,1.89-.85,2.57.4-.32,3-.65,5.91-1,8.87C183.28,104.72,184.51,107,183.84,108.94Z"/><path class="cls-67" d="M185.91,94.1c-.63,0-1.26-1.16-1.88,0-.81.46-.5,2.31-1.74,1.89-1.56-.52-1.5-2.31-1.93-3.67a4.31,4.31,0,0,1,.06-2.14,3.42,3.42,0,0,1,3.42-2.08L185,88Z"/><path class="cls-68" d="M29.09,28a5.46,5.46,0,0,1,3.7-2.1c2.27-1.07,5.35.55,7.12-2.16C42,21,45,19.61,47.9,18c2.2-1,4.21-1.44,4.84,1.8-.59,3.34-3.9,4.24-5.84,6.38-1.57,1.74-3.29,3.23-3.29,5.79a4.55,4.55,0,0,1-1.49,2.36c-3.66.76-4.19-3.11-6.49-4.36-1.64-1.67-3.77-.25-5.57-.89C29.74,28.7,29.41,28.37,29.09,28Z"/><path class="cls-69" d="M52,20.89c.35-3.33-2.06-2.83-4.05-2.94L49,17c2.46-1,5-1.81,7.56-2.67a2,2,0,0,1,1.74,1.17,5.43,5.43,0,0,1-.49,2.89,5.85,5.85,0,0,1-3.88,3.18A2,2,0,0,1,52,20.89Z"/><path class="cls-70" d="M57,15c-2.75.31-5.13,2.17-8,2,5-2.35,9.35-6.06,15-7-1.81,1.36-2,2.7.06,4a.82.82,0,0,1,.25.78c-.06.27-.13.4-.21.4A3.43,3.43,0,0,1,61,14.56C59.52,13.61,58.29,14.59,57,15Z"/><path class="cls-18" d="M81.17,5.23,68,8.13C69.22,5.58,72.41,6.8,74,5c2.27-.53,4.52-1.52,6.83-.2Z"/><path class="cls-71" d="M80.82,4.77,74,5c0-.3,0-.59.08-.88L78.65,2.9,82,3.4Z"/><path class="cls-72" d="M39.91,23.77c-1.49,3.64-4.63,1.82-7.12,2.16l.3-1.12C35.57,25.83,37.7,24.58,39.91,23.77Z"/><path class="cls-73" d="M11.91,60.9a16.13,16.13,0,0,1,1.83-7.13,1.91,1.91,0,0,1,1,.76c.9,1.17,1.5,3.36,3.44,1,.55-.9.84-1.92,1.33-2.85a49.75,49.75,0,0,0,3.16-4.85c2-.63,3.19-2.22,4.35-3.83s3.19-1.24,4.92-1.54,3.78-.9,2-3.46c3.74-.08,4.22.69,3,4.72-1,1.19-2.7.74-3.86,1.58A50.41,50.41,0,0,0,22.83,60.53c-1.26,2.73-1.5,6.2-4.81,7.68C16.07,67,16.3,64.61,15.07,63,14.18,62.07,12.62,62.11,11.91,60.9Z"/><path class="cls-74" d="M36,28.93c2.56.94,2.85,4.59,5.91,4.94a1.34,1.34,0,0,1,.42,1.1c.12.9-2.1,1.59-.24,2.67.93,2.77-.54,3.23-2.81,3C36,37.86,32.85,35,31,31.06l.17-1C32.37,27.87,34.13,28.17,36,28.93Z"/><path class="cls-75" d="M31,31.06c3.38,2.37,5.77,5.64,8.16,8.92,0,.21,0,.42.08.63.26,1.45,1,3-.83,4A2.18,2.18,0,0,1,36,43.94c1.5-2.51,1.39-4.38-2-4.93C29.59,37.62,28.8,34.9,31,31.06Z"/><path class="cls-76" d="M27.05,44a4.86,4.86,0,0,1-3.92,4.09c-1,1.85-2.06,3-3.34.19-1-2.08.15-3.7,1.19-5.33.75-1.57,1.31-3.26,2.87-4.29A16.63,16.63,0,0,1,23.43,41c-.58,1.76-2.64,3.83-.73,5.25C24.38,47.53,25.3,44.33,27.05,44Z"/><path class="cls-72" d="M36,28.93A8,8,0,0,0,31.18,30l-1.12-1C32,28.63,34,25.85,36,28.93Z"/><path class="cls-77" d="M5.88,77Q7.46,70.5,9,64A7.45,7.45,0,0,1,10,64a2.89,2.89,0,0,1,1,2,7,7,0,0,1-.2,2.29c-.81,4.42-2.58,8.59-3.29,13a14,14,0,0,1-.72,3.78c-.56,1-1.33,1.62-2.57,1.13Z"/><path class="cls-78" d="M21,43c-.13,1.7-1,3.22-.18,5.14,1.07,2.6,1.59-.49,2.33,0,.05,2.33-1.2,3.85-3.06,5a6.86,6.86,0,0,1-3.36-2.2A12.36,12.36,0,0,1,18,47C18.82,45.53,19.12,43.67,21,43Z"/><path class="cls-79" d="M10.14,66.07C10.08,65.36,10,64.66,10,64a3.81,3.81,0,0,1,1.94-3c1.41.22,3-.4,4.13,1.06.56,1.44.94,2.86-.33,4.16-.9-.85-1.65-2.11-3-.4A1.76,1.76,0,0,1,10.14,66.07Z"/><path class="cls-73" d="M18,47A6.57,6.57,0,0,1,17,51a4.81,4.81,0,0,1-1.56,3,1.23,1.23,0,0,1-1.28.13c-.12-.12-.25-.23-.38-.34C14.1,50.84,16.3,49.08,18,47Z"/><path class="cls-80" d="M3.94,99.06l-1.81-1L2.1,94c.88-6.1,1.22-6.48,7.27-7.36,1.52-.22,3-.45,4-1.68a2.09,2.09,0,0,1,1.44-.33,4.56,4.56,0,0,1,2.71,3.42,2,2,0,0,1-.63,1.32c-1.31.86-2.82.79-4.29.85-.46,0-.93,0-1.39,0a7,7,0,0,0-3.8.9c-1.9,1.28-2,3.16-1.91,5.2C5.56,97.52,6.06,99.11,3.94,99.06Z"/><path class="cls-81" d="M13.88,85.15a2.62,2.62,0,0,1-3.36,2.71c-5-.79-7.32,1.79-8.42,6.16-1.22-1.8.17-3.56.08-5.35l2-2.45L6,85c1.31-1.33,3-1.54,4.73-1.56C12,83.66,13.2,83.94,13.88,85.15Z"/><path class="cls-82" d="M3.94,99.06c1.9-1.61-.73-3.42.22-5,.84-1.42.24-3.9,2.91-4a2.64,2.64,0,0,1,.34,1.31c-.38,2.42,0,4.47,2.41,5.79,3.47,1.87,2.41,3.58-.33,5.12-3.6-.31-2.25,3.79-4.32,4.84C4.86,104.4,5.61,101.54,3.94,99.06Z"/><path class="cls-83" d="M131.92,13c-2.17-.38-2.76,1-3.37,2.72-.78,2.21,1,2.87,2.14,3.29A17.62,17.62,0,0,1,141,29c-1.32,1.06-2.52.35-3.59-.37-4.89-3.31-9.91-6.35-15.62-8.11a3,3,0,0,1-2-2c.3-1.56,1.88-1.84,2.79-2.8.86-.59,1.9-.86,2.72-1.51a3.91,3.91,0,0,0,1-2.14,2.41,2.41,0,0,1,.66-1.05C128.72,11.42,130.58,11.58,131.92,13Z"/><path class="cls-84" d="M126.94,11c0,.36,0,.71,0,1.06a3.62,3.62,0,0,0-.85,3.12c-.86.94-2,.7-3.08.77-5-.34-10.57,1.38-14.18-4a2.66,2.66,0,0,1,1.95-.9c2.17,0,4.38,1.26,6.9-.17-2-2.21-4.5-1.47-6.62-2a32.22,32.22,0,0,1-4.88-1.38,2.34,2.34,0,0,1-1.22-1.78l1.13-1,4.81.27L122,9c1.6.83,3.41,1.11,5,2Z"/><path class="cls-83" d="M126.94,11a6.13,6.13,0,0,1-5-2A5.41,5.41,0,0,1,126.94,11Z"/><path class="cls-85" d="M104.92,5.85,106,6.94c.42.51,1.14.71,1.43,1.37A1.91,1.91,0,0,1,107,10.2c-1.76.45-3.07-.54-4.43-1.38a1.63,1.63,0,0,1-.7-1.79l1.18-1.2Z"/><path class="cls-86" d="M61,14.05,64,15c2.31-.92,5.1,0,7.17-1.83a19.21,19.21,0,0,0,9.15-1.64c2.43-1.13,5-1.13,5.74,2.37l-.18,1.28c-1.86,1.72-4.4.76-6.48,1.63-.71.21-1.43.37-2.16.51A36.33,36.33,0,0,0,71,19c-5.08,1.78-10.27,3.23-15.06,5.77-1,.53-2.11,1-3.22.13-1.08-1.83.11-3,1.24-4.12L57,18.06c.66-.83,1.64-1.39,2-2.45A2.76,2.76,0,0,1,61,14.05Z"/><path class="cls-87" d="M71.17,13.14C69.29,15.75,66.56,15,64,15c0-.34,0-.68,0-1C66.51,14.48,68.78,13.32,71.17,13.14Z"/><path class="cls-88" d="M78.86,15.9c2.21-1.51,4.63-1,7-.75l2.07,2c1.48.32,3.08.46,3.59,2.3a2.18,2.18,0,0,1-.75,2.07c-5,1.62-10.28,1.2-15.46,2.88a95.63,95.63,0,0,0-26.11,13c-1.47,1-2.76,2.48-4.79,2.38-1.84-.07-2-2.2-3.44-2.76-1.17-1.44.46-1.43,1-2S43.13,33.6,43.8,33c6.87-6.35,15.05-10.33,23.86-13.21,1.17-.39,2.69-.29,3.27-1.8,1.83-1.28,4-1.3,6.08-1.93,2.08,1,4.23.2,5.28.39A4.26,4.26,0,0,1,78.86,15.9Z"/><path class="cls-89" d="M89.06,12.94c-2.61-4.53,0-6.58,3.82-8.06,5-.21,6.15.88,6.1,6-2.1,2.09-.38,4.19,0,6.29a6.58,6.58,0,0,0-1.58,4.79c.13,16.06-.25,32.12.21,48.17.31,2.43-.14,4.3-3.13,4.33a2.28,2.28,0,0,1-1.27-1.17c-1.45-5.65.28-11.51-1.13-17.16a8.73,8.73,0,0,1,0-3.49c1.13-9.41.25-18.85.48-28.28.11-4.14.08-8.28,0-12.37-1.25-.34-.81,1.3-1.64,1.4A1.51,1.51,0,0,1,89.06,12.94Z"/><path class="cls-90" d="M98,11c1-4.25-1.43-5.73-5.11-6.11,3.64-2,6.43-.34,9,2.14l.87,1.1A3.16,3.16,0,0,1,104,10.77a2.71,2.71,0,0,1-1.36,2.44c-1.13,0-2.25-.17-3.41-.09C97.7,13.22,97.07,12.48,98,11Z"/><path class="cls-91" d="M89.06,12.94,91,13a4.23,4.23,0,0,1,0,6l-3-1.9C89.46,16,88.81,14.36,89.06,12.94Z"/><path class="cls-92" d="M84.93,173.9c-.32.7-.65,1.39-1,2.08-4.47,1-8.72-3.41-13.28-.56-.9-2.72-3.27-3.11-5.58-4.08-3.18-1.34-6-3.24-9.73-3-1.14.07-1.85-1.27-2.38-2.33-.73-1.45-1.37-2.86,1.15-3.09,7.26,2.81,14.17,6.54,21.93,8,3.06-.81,6,.07,8.9.78A1.63,1.63,0,0,1,84.93,173.9Z"/><path class="cls-93" d="M61.58,173.64c-.32.19-.87.8-1.26.71a1.81,1.81,0,0,1-1-1.31c-.1-.79.65-1,1.3-1S61.67,172.59,61.58,173.64Z"/><path class="cls-94" d="M87.12,170.13c-2.71-3.77-7.18-2.9-10.83-3.79C64.9,163.56,55.74,157,46.67,150.1c-1.37-1-1.41-2.11-.09-3.24a4.06,4.06,0,0,0,1.49-3.53c-.83-1-.08-1.26.65-1.57,8.51,11,20.41,16.26,33.47,19.36,4.76,1.13,5.17.56,5.44-4.64,0-1.86-.06-3.72,0-5.58s0-3.87,0-5.81c0-1.68-.06-3.36,0-5s-.06-3.36,0-5-.06-3.35,0-5,0-3.39,0-5.08c.08-2.87-.47-5.8.84-8.55a1.45,1.45,0,0,1,1.55-.61,5.63,5.63,0,0,1,2.2,3.85c1.11,11.73-1.34,23.38-.74,35.11a108.94,108.94,0,0,1-.06,14.34C90.42,171.21,88.76,170.63,87.12,170.13Z"/><path class="cls-95" d="M49.09,142.43c-.69-.11-.88.36-1,.9-2.28.75-2.56,3.33-4.25,4.62-2.18,1.78-4.61,3.41-5.64,6.12s-3,3.11-5.15,2.62-3-2.23-3.1-4.51c-.07-2.93,1.17-4.35,4.1-4.28.53-.21,1,0,1.08.49.18,1-.55,1.81-1.53,3.65,2.68-4.14,6.35-5.65,8.63-8.65,1.88-2.75,4.64-4.52,7.24-6.47,1.58-.65,3.1-2.82,4.83-.2A11,11,0,0,1,49.09,142.43Z"/><path class="cls-96" d="M85.09,172.11l-9-1.26c1.81-1.7,4.1-.44,6.1-1,1.43.19,3.34-.57,3.62,1.85C85.74,172.17,85.5,172.29,85.09,172.11Z"/><path class="cls-97" d="M85.09,172.11a4.43,4.43,0,0,1,.7-.41l1,.11c.68.05.74.74,1.13,1.09-.6,1-.6,2.58-2.23,2.55-.27,0-.52-1-.77-1.54C85,173.3,85,172.71,85.09,172.11Z"/><path class="cls-98" d="M87.93,172.9l-1.13-1.09c.1-.56.21-1.12.32-1.68A2.23,2.23,0,0,1,90,170c.66,1.65-.84,1.43-1.6,1.84Z"/><path class="cls-99" d="M38,143.91l-1.94.18a2.79,2.79,0,0,1-1-1.12c-2.46-6-7-10.81-9.27-16.94-1.19-3.27-2.82-6.37-2.86-10a2.89,2.89,0,0,1,1.46-2.42c3.74,1,2.72,4.93,4.42,7.19a71.19,71.19,0,0,0,10.57,18c.57.66,1.24,1.22,1.79,1.9a1.82,1.82,0,0,1,.08,1.26A4.66,4.66,0,0,1,38,143.91Z"/><path class="cls-100" d="M38,143.91a3.6,3.6,0,0,1,3-2.07,3.62,3.62,0,0,1,2,2.12c-2,3.89-6.9,5-8.81,9.09a1,1,0,0,1-1.63.22,3,3,0,0,1-.17-1.8c.12-1.39,2.72-1.62,1.7-3.57C35.28,146.5,37.34,145.91,38,143.91Z"/><path class="cls-101" d="M36,143l.06,1.12c-1.86,1.24-4.38,1.19-6,3A2,2,0,0,1,29,145c.46-1.75,2.1-1.88,3.39-2.48a5.91,5.91,0,0,1,1.23-.34A2.49,2.49,0,0,1,36,143Z"/><path class="cls-102" d="M171,73c.8-1.55-2-4.27.38-4.57,2.64-.33,2.52,2.77,2.64,4.89.07,1.29-.28,2.69,1,3.65-.55,3.39.24,6.06,3.87,7.22-1.21,1-2.84.71-4.17,1.37a8.71,8.71,0,0,1-1.29.48c-1.21.29-1.86-.34-2.29-1.35C171.12,80.81,168.87,76.94,171,73Z"/><path class="cls-103" d="M171.89,85.84l2.21-.73c2.72-.52,5.06,1.56,7.77,1.12,1.18.07,1.55,1,2,1.87l-3,2c-.95.41-1.79,0-2.65-.34-3.2-1.84-6,2.11-9.19.62-1.45-2.5.24-3.51,2.11-4.44Z"/><path class="cls-104" d="M181.87,86.23c-2.94,2-5.3,0-7.77-1.12v0a5.41,5.41,0,0,1,4.95-.15A3.8,3.8,0,0,1,181.87,86.23Z"/><path class="cls-103" d="M179,84.94l-4.95.15c1.32-1.73,3.13-.77,4.74-.88Z"/><path class="cls-105" d="M171,73c.46,4.27,1.45,8.49.94,12.82V86c-3.25,1-2.94-1.71-3.23-3.39a67.64,67.64,0,0,0-3.43-13.8,65.16,65.16,0,0,0-9.36-18.55c-.87-1.2-1.82-2.4-1.58-4,.26-.78.64-1.37,1.6-1.19l1.08.84a3.3,3.3,0,0,0,2,2.06c5.84,5.44,9.49,12,10,20.07A6.3,6.3,0,0,0,171,73Z"/><path class="cls-106" d="M155.9,45l-1,1.14a2.17,2.17,0,0,1-2.33-1,3.66,3.66,0,0,1-.36-1.29c.1-2.62,2.34-2.94,4.09-3.8l.66-.07a2.06,2.06,0,0,1,1,2A3.17,3.17,0,0,0,155.9,45Z"/><path class="cls-107" d="M169,68c-1.69-7.5-6.4-13.51-10-20.07,3.13-1.68,5.86,1.21,6.67,2.47,1.92,3,5.29,4.92,6.3,8.51a4.15,4.15,0,0,0,.92,3A2,2,0,0,0,175,61c2,1.93.43,3.92-.54,5.17-1.49,1.92-2.15-.8-3.28-1.2C167.45,63.66,169.57,66.87,169,68Z"/><path class="cls-108" d="M172.87,61.91c-2.4-.36-3.37-1.17-.92-3Q174.29,59.83,172.87,61.91Z"/><path class="cls-109" d="M156.26,32c2.94.92,1.23,3.45,1.78,5.2-.37.92-.74,1.84-1.1,2.76l0,0c-1.7.93-3.32,2.67-5.33.54a1.87,1.87,0,0,1,.63-1.93c1.1-.88,3-.75,3.35-2.59.29-1.21-.16-2.45.13-3.66Z"/><path class="cls-110" d="M124,166.94l-8.11,2.95-4.95,1c-1.56-1.07-3.65.44-5.12-1.08,1.2-3,4.2-2.14,6.38-2.89a50.8,50.8,0,0,1,8.2-2c1.37,0,2.72,0,3.64,1.25C124,166.41,124,166.68,124,166.94Z"/><path class="cls-111" d="M115,175c0-1-2.71-1.24-1-2.6.89-.72,2.32-1.52,3.69-.89a2.25,2.25,0,0,1,1.24,2.95c-.89,2.07-2.63-.07-3.88.54Z"/><path class="cls-112" d="M105,173c1.56,0,3.3-.59,4.41,1.34-2.11,1.32-3.4.46-4.4-1.35Z"/><path class="cls-113" d="M106.12,171.08,105,172a3.08,3.08,0,0,1-4.1-.7c-.43-1.34.41-1.79,1.47-2.07a4.27,4.27,0,0,1,1.47.11A5.3,5.3,0,0,1,106.12,171.08Z"/><path class="cls-114" d="M106.12,171.08l-2.08-1,.37-.49a1.21,1.21,0,0,1,1.6.36c1.64.26,3.48-.63,4.89.87Z"/><path class="cls-39" d="M101.11,170.86A5.32,5.32,0,0,0,105,172c0,.34,0,.67,0,1H103l-1.06.11c-.83.1-1.21-.37-1.37-1.1A1.5,1.5,0,0,1,101.11,170.86Z"/><path class="cls-115" d="M134,165l0,1.06c-2.32,1.29-3.95,3.8-6.94,3.91-.3,0-.6-.06-.9-.07a.75.75,0,0,1-.43-.68c0-.29.06-.43.13-.43,1.08-1.37,3.71-1.7,2.91-4.34a3.28,3.28,0,0,1,4.08-1.91A2.42,2.42,0,0,1,134,165Z"/><path class="cls-116" d="M125,174a2.61,2.61,0,0,1,2-3C127.1,172.55,127.05,174,125,174Z"/><path class="cls-40" d="M126.05,168.91l0,1a2.82,2.82,0,0,1-2.12-3l-.14-.13c.65-.85,1.36-1.53,2.48-.69A2.25,2.25,0,0,1,126.05,168.91Z"/><path class="cls-117" d="M126.1,166.08l-2.28.74c-.73-1.11-1.93-.75-3-.95-.06-.51,0-1.16.4-1.34,7.25-3.26,13.49-8.33,20.77-11.52,2.86.63,1.86,2.1.77,3.58l-.9,1.16a2.85,2.85,0,0,1-.88,1,12.82,12.82,0,0,0-4.64,2.46A3.72,3.72,0,0,1,133,162.9a7,7,0,0,0-4.15,2C128.37,166.32,127.54,166.88,126.1,166.08Z"/><path class="cls-118" d="M133,162.9l2.85-2.09a.66.66,0,0,1,1.08.29c.38.64.76,1.28,1.15,1.92A3.16,3.16,0,0,1,139,166c-2.11,1.93-3.32-.8-5-1Z"/><path class="cls-42" d="M139,166c-1.14-.72-.95-1.86-.94-2.95,2.62-.64,4.43-.49,2.95,2.95Z"/><path class="cls-42" d="M136.89,161.1l-1.08-.29c1.73-.94,3.06-2.6,5.15-2.91.65,1.17-.11,1.65-1,2.06Z"/><path class="cls-119" d="M140,160l1-2.06a7.65,7.65,0,0,1,.94-.15C141.51,158.72,143.18,161.51,140,160Z"/><path class="cls-120" d="M171,100.85c2.37,4.89-.17,9.46-1.07,14.1-.45,2.35-2,4.45-1.88,7,.9,3.26-1.13,5.76-2.5,8.23-2.88,5.23-5,11.12-10.64,14.33-1.62.18-2.49-.51-2.53-2.17a8.89,8.89,0,0,1,2.12-4.16c8-9.65,11.87-21,14.16-33.1C169,103.45,168.31,101.2,171,100.85Z"/><path class="cls-121" d="M171,100.85c-2,8-3.15,16.18-6.81,23.67-2.53,5.17-4.63,10.62-9.15,14.55a2.43,2.43,0,0,1-.82-2.08,80.11,80.11,0,0,0,11.87-28.1c1.07-3.67.41-7.4.39-11.11a1.58,1.58,0,0,1,.8-1.21,2.74,2.74,0,0,1,1.5-.11c1.42.71,2.62,1.56,2.2,3.45C171,100.22,171,100.53,171,100.85Z"/><path class="cls-122" d="M154.87,143.85c6.18-6.22,9.7-14,13.18-21.9l1.92,1v2c-.53,3.9-2.68,7-5,10,1.17,2.27-.18,3.25-2,4-.84,2.65-4.23,3.23-4.88,6h-.16A2.23,2.23,0,0,1,154.87,143.85Z"/><path class="cls-123" d="M181,101c2.12,0,2,1.49,1.92,2.93l-.93,2c-1.78.09-1.84,1.42-2.16,2.73s-.69,3.32-2.57,2.94-1.14-2.39-1.23-3.75c-.1-1.63-.06-3.27-.08-4.9C177.21,101.3,179.44,102.05,181,101Z"/><path class="cls-124" d="M181,101c-.7,3.17-3.28,1.53-5,2-3.36-.23-1.05-3.88-3-5-1,.06-1.32-.36-.91-1.29,2.59-1.18,5.27.08,7.89-.33.76.26,1.32.66,1.07,1.6A2.33,2.33,0,0,0,181,101Z"/><path class="cls-125" d="M172.93,118c3.67-2.09,2.87,1.78,4,3a8.85,8.85,0,0,1-5,1c.33-1.34.65-2.68,1-4Z"/><path class="cls-122" d="M172,122a8.15,8.15,0,0,1,5-1c0,.32,0,.65.05,1a7.93,7.93,0,0,1-6.1,1Z"/><path class="cls-126" d="M173,118l-2.57,1.56c-.6-1.78-.19-3,1.36-3.55a11.62,11.62,0,0,1,1.19,2Z"/><path class="cls-127" d="M172,97c.31.36.63.71.95,1.07a1.69,1.69,0,0,1-2,1.88l-2-2.87A2.11,2.11,0,0,1,172,97Z"/><path class="cls-128" d="M163,139c.6-1.36,2.2-2.21,2-4a15.19,15.19,0,0,1,2.9-1.78c1.05-.37,2.33-.51,2.85,1,.46,1.3-3.93,8.29-5.54,8.92s-1.95-.59-2.15-1.72A18.05,18.05,0,0,1,163,139Z"/><path class="cls-129" d="M9.49,102.25c.26-1.62,3.21-3.42-1-4.59C5.07,96.7,5,93.81,7,91l.72.19c2.71.81,5.49.4,8.25.41,6.82.09,13.57,1.54,20.41,1a16.33,16.33,0,0,1,3.34.35,14,14,0,0,0,8.74,0,22,22,0,0,1,7.8.09c3.5,1,7.12.2,10.63.68,1.54.21,4.3-.75,3.82,2.63-1.91,1.39-4.13,1-6.25,1q-19.41,0-38.81,0a25.3,25.3,0,0,0-5.36.19,10,10,0,0,0-1.71,1.06c-1.19,1-1.94,2.42-3.28,3.27a5.12,5.12,0,0,1-5.24.4l-.3,0Z"/><path class="cls-130" d="M14.89,101.09c1.31-.76,1.48-2.68,3.13-3.09,0,8.6,3.79,16.48,4.83,24.89-.2,1.09-.28,2.3-1.9,2.11l-1-.8a.51.51,0,0,1-.77-.29c.42-2.4-1-4.46-1.29-6.71-1.55-3.4-3.64-6.58-4-10.45A8.56,8.56,0,0,1,14.89,101.09Z"/><path class="cls-131" d="M14.89,101.09c-.49,5.64,2,10.74,3,16.11a22.5,22.5,0,0,1-7.78-14.9Z"/><path class="cls-54" d="M19.15,123.91a1,1,0,0,1,.77.29c0,1,.19,2.12-.9,2.8-.62-.15-.95.47-1.49.55A1.5,1.5,0,0,1,16,127l-.05-.08c-.43-1.08.14-1.62,1.07-2Z"/><path class="cls-132" d="M14,125.87c-.07-.81-2.26-.51-1-2l2.74.26C16.18,125.71,15.56,126.23,14,125.87Z"/><path class="cls-53" d="M14,125.87a2.4,2.4,0,0,0,1.7-1.73L17,125l-1.07,2C15.13,126.92,14.38,126.78,14,125.87Z"/><path class="cls-133" d="M21,125a2.63,2.63,0,0,0,1.16-2.32,1.79,1.79,0,0,1,1.39.36c3.39,5.29,5.8,11.15,9.58,16.21a3.15,3.15,0,0,1,.23,3.73L33,143c-3.81,1.28-3.66-2.3-5-4.07h0c-1.19-1.59-2.5-3.11-2.94-5.12l-.93-2C23.08,129.58,22,127.29,21,125Z"/><path class="cls-52" d="M18,127c.36-.71.7-.62,1,0-.36,1.34,1.74,2.67,0,4l-.05-.08C17.27,129.94,16.71,128.68,18,127Z"/><path class="cls-134" d="M18,127a6.8,6.8,0,0,0,1,4c-1.54-.13-3.19,2-4.49.3s1-2.79,1.54-4.22Z"/><path class="cls-135" d="M28,139c2.08.84,2.12,4.18,5,4.07l-4,2C24.89,143.63,27.76,141.07,28,139Z"/><path class="cls-135" d="M25.08,133.85c1.08,1.64,2.65,3,2.94,5.12C25.9,137.91,24.68,136.34,25.08,133.85Z"/><path class="cls-136" d="M135.92,140.12l.87.93c1.38.67,2.57,1.5,2.7,3.22,2.8,5.09-1.68,6-4.5,7.89-8.76,4.78-17.54,9.49-27.46,11.48-3.23.65-6.53,1.48-9.6-.62a9.71,9.71,0,0,1-.53-4.53c.49-1.09,1.48-1.2,2.49-1.25,11.06-.56,20.77-4.93,29.86-10.86,1.8-1.17,4.34-2.18,3.61-5.25a2.94,2.94,0,0,1,.36-2.07C135,138.33,135.42,139.27,135.92,140.12Z"/><path class="cls-137" d="M135.92,140.12,134,138.93c-1.63-.23-2.5-1.56-3.63-2.52-1.36-1.39-2.75-2.76-4.17-4.09-2.53-2.56-5.08-5.08-7.62-7.61q-2.05-2.17-4.21-4.24c-2.11-2.25-4.51-4.25-6.31-6.79-.74-1.14-2-1.8-2.69-3a3.47,3.47,0,0,1,.32-3.41c4.19-.51,5.84,3.39,8.79,5,4.48,4.44,8.4,9.58,14.77,11.64,1.07,2.66,1.75,5.55,4.23,7.41,1.12,1.73,2.89,2.91,4,4.67a1.94,1.94,0,0,1-.44,2C136.11,138.42,136,139.26,135.92,140.12Z"/><path class="cls-138" d="M137,138c0-.63-.08-1.25-.13-1.88a2.76,2.76,0,0,1,.7-3.09,1.85,1.85,0,0,1,1.24-.4,6.68,6.68,0,0,1,2.7,1.87c1.35,1.38,2.71,2.74,4.11,4.07a49.15,49.15,0,0,0,4.26,4c1.23,1.81,4.25.94,5.08,3.35l-2.06.1a8.55,8.55,0,0,1-3.93,2C144,145.81,141.35,140.89,137,138Z"/><path class="cls-139" d="M149,148c.31-2.66,2.37-1.82,3.93-2l1.09,1.9c-2.25,1.71,1.22,2.67.4,4.48C151.82,151.88,150.31,150.05,149,148Z"/><path class="cls-140" d="M135,151c2.54-1.66,6-2.81,4-7.05.39-.44.7-.39.94.14l3.11,3.9-.38.17c-1,2.21-2.89,3.55-4.81,4.73S135.56,153.72,135,151Z"/><path class="cls-137" d="M139.94,144.06a2.31,2.31,0,0,0-.94-.14l-2.21-2.87C138.86,141,139.9,142,139.94,144.06Z"/><path class="cls-141" d="M155,145.92c-1.6-1.79-4.89.11-6-2.75l.32-.58a4.52,4.52,0,0,1,1.16-.63c.86-.23,1.73-.54,2.56.08.07,1.18.59,1.89,1.87,1.81l3,1.12C157.78,147.92,156.2,146.38,155,145.92Z"/><path class="cls-142" d="M135,151c.27,2.05,1.29,2.14,2.58.87a15.27,15.27,0,0,1,5.12-3.71c.73,1.46-.09,2.63-.71,3.83a67.05,67.05,0,0,1-32.51,15.92c-2,.39-3.92.65-5.53,2l.12.25-1.08-.4c-1.35-.69-2.65.49-4,.13a3.73,3.73,0,0,1-1.27-.53c-2.06-1.89.34-3.89-.13-5.82L98,163c11.86.56,22.11-4.21,32.09-9.76C131.69,152.33,133.08,151.13,135,151Z"/><path class="cls-143" d="M103.92,169.86c.31-2.25,2.39-2.38,3.78-2.54,13.07-1.5,23.75-8.21,34.26-15.36,0,.35,0,.7.07,1-6.12,5.82-13.85,9-21.16,12.87L106,170Z"/><path class="cls-144" d="M98,168.92c.31,0,.63,0,.94,0,1.29.59,1.44,1.87,1.84,3l1.07,1.13c-.65,3.48-2.77.94-4.24,1-1.15-.88-.75-2.12-.73-3.26C96.58,169.82,97.09,169.24,98,168.92Z"/><path class="cls-145" d="M88.35,171.79c.53-.61,1.06-1.23,1.6-1.84q.51-25.48,1-51c2.88-.17,3.37,2.07,4.11,4.06.62,6.94.13,13.9.31,20.85A5,5,0,0,1,94,148c0,8.6.07,17.2,0,25.79,0,1.67,1,4.37-1.16,4.81-2.59.54-1.07-2.5-2-3.6-.25-.3-1.17,0-1.79,0C88.87,173.87,89.31,172.69,88.35,171.79Z"/><path class="cls-146" d="M94,148q0-13,0-26c-.46-1.6-1.67-2.94-1.92-4.53-.39-2.53-1.17-5.53,2.87-6.08a2,2,0,0,1,1.23.82,7.59,7.59,0,0,0-.74,6.4c.24-1.3-1.29-3.44.82-4.93a1.43,1.43,0,0,1,1.36.63,5.18,5.18,0,0,1,.73,2.42,178.22,178.22,0,0,0-1,19.74c.06,4.13,1.46,8.12,1,12.3-.23,2.29,0,4.68-2.28,6.22C93.62,153.18,96.3,149.8,94,148Z"/><path class="cls-140" d="M96.09,155c1.71-7.56-.35-15.15.13-22.73.34-5.44.5-10.89.74-16.33a1.62,1.62,0,0,1,2.26.15c.65,3.29-.08,6.6.14,9.89.07,1.66,0,3.32,0,5s0,3.32,0,5,0,3.31,0,5,0,3.27,0,4.9,0,3.18,0,4.77c0,1,0,2.08,0,3.11a10.16,10.16,0,0,1-.41,3A6.49,6.49,0,0,1,98,158l0,5H98c-.34.47-.68.45-1,0C96.64,160.32,96.37,157.65,96.09,155Z"/><path class="cls-143" d="M96.92,163h1c.6,2-1.14,4,.09,5.95-.38.65-.75,1.31-1.12,2C95.11,168.25,97,165.61,96.92,163Z"/><path class="cls-147" d="M142.87,33.83a4.59,4.59,0,0,0,.91.06c.37.74.74,1.47,1.12,2.2.49,1-.07,1.82-.6,2.61-2.29,1.61-2.52,5.89-6.64,5.13a8.1,8.1,0,0,0-4.86-6.43c-6.37-3.11-12.17-7.59-19.62-8.11-5.07-1.43-10.43-1.75-15.28-4a2.25,2.25,0,0,1-.28-2.18c1.93-2,4.25-1.1,6.52-.94s4.75,1.75,6.89-.51c2.14-1.27,4.16-.29,6.21.28,9,2.48,16.86,7.47,25,11.87Z"/><path class="cls-148" d="M143.87,37.92c.35-.61.69-1.22,1-1.83l.94-1.2c1.38-1.11.47-3.77,2.84-4.19.44.15.92.86,1.09.72.72-.61-.34-1.32-.07-2a1.48,1.48,0,0,1,2.32-.46,7.43,7.43,0,0,1,4.16,1.9c0,.39,0,.77.08,1.16l-.43.07a5.89,5.89,0,0,1-.84,1.88,44.51,44.51,0,0,1-8.84,7.53C142.91,41.89,143.85,39.61,143.87,37.92Z"/><path class="cls-149" d="M141.92,19.07c2.41,2.48,3.52,6.74,8.25,6.07a15.1,15.1,0,0,0-6.12,6c.77-3.68-1.76-6.05-3.37-8.83C139.92,21,138,18.77,141.92,19.07Z"/><path class="cls-65" d="M148.89,30.93c-1.56.9-1.18,3.3-3,4,.63-3.48.59-7.64,6.18-6L150,30A1.15,1.15,0,0,1,148.89,30.93Z"/><path class="cls-150" d="M119.93,18c7.38,2.95,14.19,7,21,11,1,1.46,2.52,2.71,1.92,4.8l.06.11c-3.37.19-5.12-2.69-7.64-4.09-7.13-4-14.29-7.78-22.19-10-1.63-.46-3.8-.39-4.33-2.72a3.71,3.71,0,0,1,2.47-1.79C114.2,16,117.69,15,119.93,18Z"/><path class="cls-151" d="M181,98l-1-1c-1-1.5-.07-2.91.22-4.35a1.79,1.79,0,0,1,.93-.87c1.66-.1-.68,4.73,2.85,2.31C184,96.17,183.49,97.85,181,98Z"/><path class="cls-151" d="M178.9,89l2,1,.3,1.73-.29.27a2.68,2.68,0,0,1-1.58.43,7.77,7.77,0,0,1-1-.08c-1.92-.41-5.37.37-5.07-2.16C173.6,87.48,176.71,88.32,178.9,89Z"/><path class="cls-152" d="M53.91,20.77,53,25c-1.6,4-5.88,4.79-8.71,7.31A1.59,1.59,0,0,1,42.94,32c-1.77-4.09,2.13-5.12,3.92-7.31A18.08,18.08,0,0,1,52,20.89Z"/><path class="cls-153" d="M42.94,32h1A1.36,1.36,0,0,1,44,34a2.19,2.19,0,0,1-2,1c0-.39-.06-.77-.1-1.16Z"/><path class="cls-87" d="M61,14.05,60,16a1.29,1.29,0,0,1-2,0l-1-1C58.16,13.9,58.84,10.79,61,14.05Z"/><path class="cls-70" d="M58,16l2,0A3.16,3.16,0,0,1,57,18.06,2.08,2.08,0,0,1,58,16Z"/><path class="cls-154" d="M17.07,88c-.66-1-2.24-1.33-2.2-2.88-1.92-3.68-.88-7,1.23-10.19,2.41-.15.63,1.53,1.41,2a13.65,13.65,0,0,1,1.37-7.21A82.36,82.36,0,0,1,33,44c1-1,2,.27,3-.06h3.1c1.19-.71,1.91-.38,2.16,1C30.67,55.59,24.8,68.62,21.83,83.13c-.78,1.83-.26,4.29-2.55,5.41A2.38,2.38,0,0,1,17.07,88Z"/><path class="cls-155" d="M33,44c-.66,3.8-3.84,6.07-5.61,9.21A96.44,96.44,0,0,0,20,70c-1,.61-1.59,0-2.16-.74A1.18,1.18,0,0,1,18,68.06c3.21-7,6.17-14.22,11-20.37C30.21,46.26,31.21,44.73,33,44Z"/><path class="cls-156" d="M14.12,54.11a5.63,5.63,0,0,1,.69-.24c1-.6,1.59-2.58,3.11-1.77s1.34,2.45,1.14,3.95c-.69.91-.71,2.73-2.52,2.18C14.55,57.63,13.93,56.07,14.12,54.11Z"/><path class="cls-157" d="M18,68.06a2.46,2.46,0,0,0,.11,1,1,1,0,0,1-.25,1.35,3.7,3.7,0,0,1-1.44.54,3.21,3.21,0,0,1-2.85-1C12.9,68.18,13.14,66.79,15,66c1.41-1.08.83-2.65,1-4C17.43,63.76,17.27,66.06,18,68.06Z"/><path class="cls-158" d="M19.06,56.05c-.85-1.84-1.24-4.57-4.25-2.18A3.67,3.67,0,0,1,17,51c1.53,0,3,.09,3.11,2.11C20,54.15,20.09,55.3,19.06,56.05Z"/><path class="cls-153" d="M41,37c1.57-.17,2,1.39,3,2a14.47,14.47,0,0,1,4.21,3.15c.75.77,1.49,1.56,2.26,2.3.48.44.94.89,1.4,1.35,1.52,1.54,3.07,3,4.62,4.57q2,2.15,4.19,4.18c1.6,2.1,4.48,3.28,4.58,6.44a4.9,4.9,0,0,1-2.54,2.31,3.72,3.72,0,0,1-2.67-1.2C53,55.32,46.44,48,39.15,41.44a1.44,1.44,0,0,1-.29-1.4l.31-.06C41.71,40.16,42.23,39.11,41,37Z"/><path class="cls-159" d="M38.86,40C47.69,46.86,54.53,55.77,63,63c2.12.5,3.19,2.36,4.74,3.62C71.1,70,74.53,73.4,78,76.78c1.55,2.22,3.35,4.52-1.41,5a5.58,5.58,0,0,1-2-.85c-3.38-3.39-6.6-6.95-10.09-10.24-2.31-2.47-4.79-4.76-7.11-7.23C55.7,60.6,52.79,59,50.61,56.73a20.74,20.74,0,0,1-2.52-3.09,14,14,0,0,0-4-4,4.78,4.78,0,0,1-.83-.91,10.71,10.71,0,0,0-2-2.21c-.41-.47-.78-.94-.31-1.58a2.08,2.08,0,0,0-1.93-1C39.32,42.63,37.31,41.43,38.86,40Z"/><path class="cls-160" d="M6.11,81,10,67.92a37.31,37.31,0,0,0,3.6,3.4,4.47,4.47,0,0,1,.34,2.7,7.49,7.49,0,0,1-1.47,3.2c-1.58,1.09-2.2,3-3.6,4.24A2.38,2.38,0,0,1,6.11,81Z"/><path class="cls-161" d="M13,71c-3.39,1.33-2.81-1.29-3.07-3.08l.18-1.85c1.27-.08,1.77-1.27,2.68-1.85,2.4-1.55,2.13.37,2.22,1.78A7,7,0,0,0,14,70C14.29,70.91,13.9,71.19,13,71Z"/><path class="cls-162" d="M6.11,81,9,81c1.19-.45,1.86.2,2.42,1.11a1.74,1.74,0,0,1-.58,2A9.42,9.42,0,0,1,6,85C6.06,83.68,6.09,82.35,6.11,81Z"/><path class="cls-163" d="M41,45l1,1c-2.69,5.22-6.9,9.43-9.6,14.65-3.95,7.63-7.31,15.46-8.57,24.07-.28,1.92-.42,3.58,1.21,4.93a1.32,1.32,0,0,1-.11,1.47C22,92.21,19.14,93,16.58,90.42a2.22,2.22,0,0,1,.26-1.61,2,2,0,0,1,.23-.82H19c.39-.22,1.66-3.39,2-5,1.74-13.62,7.76-25.28,16.31-35.78C38.23,46.07,39.29,45,41,45Z"/><path class="cls-164" d="M17,90A7.59,7.59,0,0,0,25,90c1.06-1.24,2.52-1.31,4-1.42,2.23.15,4.53-.31,6.63.81a1.15,1.15,0,0,1,.53,1.32c-2.38,2.33-5.33.71-8,1.34,2.6-.51,5.41.8,7.85-1.11,2.41-1,4.82-1.42,7.23,0a2.19,2.19,0,0,1-.13,2.25c-1.92,1.52-4.24-.62-6.18.68-7.37.87-14.62-1-22-.93-1.09-1.43-3.25-.52-4.32-2A1.69,1.69,0,0,1,11,89l1,.08C13.53,90.13,15.46,88.85,17,90Z"/><path class="cls-165" d="M10.85,84.07l.06-2c-1.14-2-1-3.72,1-5.09.39-1,.77-2,1.16-2.92,1.35-1.3,2.24-3,3.94-4l.84-.08c1.54,2-.16,3.35-1,4.88-1.48,3.27-1.72,6.79-2,10.29l-.5,0-.49.06C12.88,84.75,11.59,85.19,10.85,84.07Z"/><path class="cls-129" d="M11,89c0,.65-.07,1.3-.11,2C9.59,92.2,8.28,92,7,91L7,91a4.57,4.57,0,0,1,.05-1C8.3,89.38,9.49,88.57,11,89Z"/><path class="cls-166" d="M17,90c-1.67-.2-3.53.66-4.95-.89l4.82-.26C16.88,89.19,16.93,89.57,17,90Z"/><path class="cls-167" d="M119.93,18l-9-2a3.28,3.28,0,0,1-2.35.41,18.77,18.77,0,0,1-4.8-.39c-1.44-.42-2.88-1-1.77-3,.34-.72.68-1.44,1-2.16,1.47-1.4,3.12.14,4.65-.28a1.7,1.7,0,0,1,1.22,1.52c4,3.62,9.66,1.48,14,3.87C122.89,18.06,121.37,18,119.93,18Z"/><path class="cls-168" d="M126.05,15.22c-.75-.39-1.62-.89-1.47-1.78.19-1.19,1.27-1.36,2.32-1.34C128,13.5,127.29,14.44,126.05,15.22Z"/><path class="cls-169" d="M111,8c2.45,0,5-.37,7.19,1.09,1,.66,1.94,1.39,1.51,2.77C119.3,13.1,118.16,13,117.2,13c-2.13.06-4.3.24-6.23-1a3.1,3.1,0,0,1-.89-2A2.77,2.77,0,0,1,111,8Z"/><path class="cls-170" d="M111,10v2l-2,.13-1-.91c-.34-.4-.9-.62-1-1.23s0-1.32,0-2C108.91,7.46,110,8.63,111,10Z"/><path class="cls-171" d="M111,10l-4-2L106,6.94A8.46,8.46,0,0,1,111,8Z"/><path class="cls-171" d="M107,10l1,1.23c-1.67.71-3.22-.36-4.85-.33-.1-.92-.2-1.83-.31-2.75Z"/><path class="cls-110" d="M44,34c0-.68-.06-1.35-.08-2,2.43-3.09,6.43-4.16,9-7a62.68,62.68,0,0,1,18-7c.32,1.42.35,1.5-1.24,2A74.73,74.73,0,0,0,44,34Z"/><path class="cls-172" d="M78.86,15.9c1.67.41,3.5-.45,5.78,1-3-.13-5.44.9-7.63-.86Z"/><path class="cls-173" d="M91,19q0-3,0-6c.51-1.74-1.25-4.38,2-5,1.11,6.24.44,12.53.43,18.79,0,8.75.6,17.52-.4,26.26v2.89c1.37,6-.5,12.09,1,18h0a1.25,1.25,0,0,1-.32,1.33,3.74,3.74,0,0,1-2.87.4c-1.49-.6-3.5-.38-4.06-2.49,1.35-1.6,3.76-2.66,2.79-5.45-.36-3.5-.84-7-.4-10.53,1-10.47.18-21,.48-31.44a10.42,10.42,0,0,1,.16-2.55A5.14,5.14,0,0,1,90.88,21Z"/><path class="cls-174" d="M90.88,21v2c-1.87,1.72-4.36,1.66-6.57,1.86C72.38,26,62.2,31.29,52.38,37.6c-1.84,1.19-3.52,2.5-3.93,4.85-.15.19-.31.38-.47.56a10.91,10.91,0,0,1-4-4c4.2-1.62,7.35-4.89,11.15-7.15A99.08,99.08,0,0,1,74,23.57,45.63,45.63,0,0,1,90.88,21Z"/><path class="cls-91" d="M94,75c0-.35,0-.7,0-1a2.52,2.52,0,0,0,2.83-2.87l.44-.54a3.85,3.85,0,0,1,1.33-.39A13.23,13.23,0,0,1,105.45,73c2.42,1.67,5.47-2.09,7.74.89-.1,3.6-3.7,5-4.92,8a2,2,0,0,1-1.25.41c-1.67-1-3.35-2-4.31-3.87.22-1.9-.46-2.19-1.93-1a2.48,2.48,0,0,1-2.36-.4c-1.19-.91-2.78-.76-4-1.47C94.23,75.34,94.09,75.18,94,75Z"/><path class="cls-91" d="M96.82,71.11C95.61,69.68,96,68,96,66.33q0-23.11,0-46.22a1,1,0,0,1,1.5.62c1.44,14.53.6,29.09.79,43.64,0,2.29.34,4.7-1.41,6.64Z"/><path class="cls-91" d="M93,53.05,93,8c1.07.83,1,2,1,3.17V49.84C93.94,51,94,52.18,93,53.05Z"/><path class="cls-175" d="M102,13c1.09,4.07,5.3.39,7,2.84-.9,1.24-2.34,1.35-3.64,1.76a14.76,14.76,0,0,1-6-.3l-.54-.4C95.75,15.41,95.19,13.47,98,11c0,1.28.58,1.7,1.78,1.1S101.92,11.19,102,13Z"/><path class="cls-91" d="M94,74c-2.19-5.91-.46-12-1-18C95.16,61.85,93.32,68,94,74Z"/><path class="cls-175" d="M96.87,20a3,3,0,0,0-.79.13c-.11-2,1-2.95,2.84-3.17l.12.11C99.4,18.83,98.43,19.62,96.87,20Z"/><path class="cls-176" d="M49.09,142.43c1-2.39,3.13-3.77,4.86-5.51.56-.91,1.2-1.58,2.34-.78a2.49,2.49,0,0,1,.11,2.1c-2.51,2.66-1.46,4.18,1.25,6.15C67.07,151.23,77.3,155.79,89,157c0,6.34-.7,6.84-6.74,5.62-10.87-2.18-20.3-7.4-29.24-13.65A8,8,0,0,1,49.09,142.43Z"/><path class="cls-177" d="M56,138,56,136c-.87-3.75,2.46-5.12,4.18-7.41,1.49-1.39,2.91-2.83,4.34-4.28,1.07-.84,2-2.06,3.66-1.43a2.74,2.74,0,0,1,.57,2,6.93,6.93,0,0,1-2.16,3.58c-.79.83-1.61,1.64-2.39,2.49-2.15,1.89-1.23,3.23.61,4.73,5.71,4.65,12.73,6,19.52,7.9,1.55.43,3.34,0,4.62,1.37v6c-2.83,2.12-6.07,1.61-9.06.92-8.72-2-16-6.92-23-12.17A2.64,2.64,0,0,1,56,138Z"/><path class="cls-178" d="M56,138c7.16,4.16,13.67,9.42,21.78,12,3.79,1.23,7.47.65,11.2,1,0,2,0,4,0,6-7.09,1.9-13.14-1.56-19.32-3.95-5-1.92-9.11-5.37-13.5-8.32C51.53,141.58,51.53,141.57,56,138Z"/><path class="cls-179" d="M89,145c-10.41-.15-19.47-4.05-27.71-10.12-1.62-1.19-1.41-1.51,2.72-4.88a2.62,2.62,0,0,1,1,.14c7.84,3.72,15.37,8.19,24,9.87C89,141.64,89,143.31,89,145Z"/><path class="cls-180" d="M89.05,125l0,5c-.25.22-.51.55-.8.55-5.52.08-10.9-1.17-16.3-2a3.9,3.9,0,0,1-3.36-3.24c.65-3.75,3.12-5.83,6.47-7.11C80.28,119.25,84.13,123.23,89.05,125Z"/><path class="cls-181" d="M89,140c-9.87.48-17.35-5-25-10l2-2c.5,0,1.12-.39,1.44-.21,6.72,3.9,15,3.21,21.64,7.24C89,136.65,89,138.32,89,140Z"/><path class="cls-182" d="M89.05,125c-3.87.29-7-1.65-9.81-3.81-1.33-1-2.52-2.05-4.23-2.2-.62-1-.16-1.83.21-2.72,1.93-3,4.18-5.31,8.19-3.62.41.19.8.41,1.19.63C86,114.22,88,114.33,89,116Z"/><path class="cls-183" d="M89.05,135c-7.84-1.86-16.08-2.4-23.08-7L68.09,125q.42-.74.9,0c2.41,1.89,4.33,4.92,8.25,2.58,1.93-1.14,3.53,1.28,5.5,1.44s4.19.64,6.28,1Z"/><path class="cls-184" d="M95.9,112c-2.45-.23-3.2,1.12-2.94,3.27s.64,4.47,1,6.7c-1.18-.81-1.37-2.59-3-3-.33-1-.67-2-1-3-1.53-2-4.08-1-5.91-2l0,0c-.68-1.49-2.49-1.75-3.34-3.06A3.26,3.26,0,0,1,82,107.73c1.27-.35,2.42.15,3.6.47,3.46,1.2,7.78-.5,10.54,3.08Z"/><path class="cls-185" d="M84.06,113.94c1.88.93,5.33-2.65,5.91,2H89C87.25,115.49,85.39,115.35,84.06,113.94Z"/><path class="cls-186" d="M61.26,129.1,56,136l-2.06.89c-1.91-2-2.61,1.09-4.07,1a1.71,1.71,0,0,1-.43-1.18c.33-1.67,1.75-2.35,2.91-3.28a32.24,32.24,0,0,0,3.13-2.95,16,16,0,0,1,3.32-2.82,2.38,2.38,0,0,1,1.27,0A2.28,2.28,0,0,1,61.26,129.1Z"/><path class="cls-187" d="M49.89,136.92a5.13,5.13,0,0,1,0,1L42.94,144c-1.38,0-1.94-.84-2-2.12,0-.3,0-.6,0-.9A3,3,0,0,1,43,138.12C45.36,138.09,47.31,135.68,49.89,136.92Z"/><path class="cls-188" d="M43,139l-2.13,2A2,2,0,0,1,39,140c-1.19-4.2-4.34-7.3-6.19-11.14-1.36-2.81-3.14-5.42-3.81-8.54,0-.14.13-1.87-.44-.11A1.65,1.65,0,0,1,28,121c-1.65-2.06-2-4.65-3-7-1.72-5.52-3.86-11-.87-16.76,3.17-1,6.42-.78,9.66-.55A1.07,1.07,0,0,1,34,98.05c-3.45,1.57-4.07,4.32-3.33,7.75.81,3.7,1,7.5,2.12,11.14,3,6.6,5.77,13.33,10.76,18.79a4.86,4.86,0,0,1,.75,1.1C44.52,137.92,43.71,138.41,43,139Z"/><path class="cls-189" d="M33.31,143c-1.36-5-5.56-8.44-7.42-13.19-.9-2.28-2.66-4.17-2.95-6.71-2.55-6.51-3.18-13.43-4.31-20.24a5.73,5.73,0,0,1,.21-2.46c.36-1.25.52-2.86,2.3-2.68s1.75,1.73,1.81,3.06c.21,5.09.39,10.17,1,15.23,1.27,7.58,4.87,14.12,9,20.48,1.29,2,3.36,3.71,3,6.5Z"/><path class="cls-190" d="M24,116c-2.54-3.12-1.88-6.84-2-10.42-.09-2.33.42-4.75-1.1-6.9-1,8.29.57,16.35,2.06,24.41a3.34,3.34,0,0,1-.83-.4C20.44,114.5,15.49,106.87,18,98l1-1c1.47-.93,3.09-.3,4.62-.47a1.64,1.64,0,0,1,1.41.55c-2.16,3.82-.56,7.65-.09,11.49A48.9,48.9,0,0,1,25,114,2.07,2.07,0,0,0,24,116Z"/><path class="cls-191" d="M28,121v-2.9c3.71,7.28,8,14.09,12.22,20.92.45.74-.61.88-1.22,1C34.1,134.36,30.13,128.2,28,121Z"/><path class="cls-192" d="M166.06,67.81c2.41,4.61,3.25,9.64,3.94,14.7.19,1.44-.2,3.12,1.9,3.48-.9,1.35-3.11,1.73-2.89,3.91a2.94,2.94,0,0,1-1.31,1,8.64,8.64,0,0,1-6.45-.48c-.72-.74-.4-1.36.23-1.93,3.21-.74,4.19-2.55,3.19-5.79-1.16-3.76-1.41-7.8-3.42-11.31-1.36-3-2.19-6.24-4.14-9-1.21-2.1-2.69-4.08-2.93-6.61.6-2.68,2-3.09,3.65-1,3,4,5.7,8.18,7.08,13.06C165.58,70.29,165.62,67.21,166.06,67.81Z"/><path class="cls-193" d="M168,90l1-.13c3.35.34,6.28-4.1,9.89-.87-1.78.13-3.82-.68-5.3,1.27,2,1.6,4.72-.34,6.39,1.7-3.46,4.48-7.74,2.28-11.85,1.44A2.38,2.38,0,0,1,168,90Z"/><path class="cls-194" d="M166.06,67.81c-.1,1.11-.19,2.21-.43,4.86a68.8,68.8,0,0,0-8.51-16.89c-1.31-2-1.61-1.82-2.14.2-2.17.38-2.51-1.11-2.77-2.69.37-2.23-1.25-3.57-2.33-5.16-.82-1.19-2.12-2.54-1-3.91,1.51-1.79,2.89-.28,4.15.74l1.82,1.2c3.84,6.44,8.44,12.47,10.71,19.76C165.78,66.54,165.91,67.18,166.06,67.81Z"/><path class="cls-192" d="M153.06,45c-1.24.34-2.36-1.27-3.63-.27-.26,3.42,5.68,4.13,3.55,8.3-3.35-.47-4.28-4.37-7.39-5.19a2.54,2.54,0,0,1-.91-1.09c.37-2.59,2.13-3.85,4.42-4.6A3.28,3.28,0,0,1,152.94,44,7.32,7.32,0,0,1,153.06,45Z"/><path class="cls-195" d="M152.94,44l-4-1.1c-.17-2.14.82-3.11,2.95-3,1.67,2.09,3.37,0,5.06,0C156.58,42.29,152.93,41.33,152.94,44Z"/><path class="cls-196" d="M151.91,40a6.68,6.68,0,0,0-2.95,3c-1.31,1.36-2.61,2.73-3.92,4.1-.56,2.09-2.4,3.17-3.68,4.69-2.14,2-4.72,3.44-6.64,5.68-1.74,1.64-3.45,3.32-5.1,5.06a17.83,17.83,0,0,1-3.56,3,3,3,0,0,1-1.36.07A1.8,1.8,0,0,1,123.47,64a3.64,3.64,0,0,1,1.78-2.79A8.63,8.63,0,0,0,128,58.38a9.53,9.53,0,0,1,.77-1.11c2.44-2.75,5.15-5.23,7.66-7.9,3.07-2.92,4.73-7.45,9.52-8.41l9-8.07c1.11.73,1,2,1.35,3.07,0,2.24-2.29,1.91-3.28,3Z"/><path class="cls-195" d="M153,39l3-3a.57.57,0,0,1,.86-.1C156.82,38.53,155.18,39.12,153,39Z"/><path class="cls-197" d="M156.83,35.89,156,36c-1.21-.74-.93-2-1.07-3.1l.93-.83C156.81,33.17,157.44,34.37,156.83,35.89Z"/><path class="cls-143" d="M100.82,172c-.61-1-1.22-2-1.84-3,1.35.14,2.83-.46,4,.75l-1.85,1.16C101,171.23,100.92,171.6,100.82,172Z"/><path class="cls-198" d="M126.1,166.08l2.71-1.22c.72.23,2,.2,1.74,1.2-.52,2.28-2.62,2.48-4.5,2.85C126.07,168,126.08,167,126.1,166.08Z"/><path class="cls-199" d="M153,142l-3,.94c.17-3.26,2-5.13,5-6,0,.69,0,1.39,0,2.09Z"/><path class="cls-199" d="M149,143.17q-2.06-2.07-4.12-4.13c9.2-9.29,14.16-20.57,15.88-33.42.4-3.06.05-6.27,1.58-9.14,1.66-.78,3.22-.89,4.57.63A14.55,14.55,0,0,1,167,109a8.83,8.83,0,0,1-.76-7C166,116.83,159,130.48,149,142.89Z"/><path class="cls-200" d="M149,142.89c1.79-5.25,5.64-9.31,8.15-14.16,4.32-8.35,7.37-17,7.86-26.48a5.76,5.76,0,0,1,.5-1.89c.09-.22.51-.31,1.48-.86V109c-1.85,10.25-5,19.93-12,28l-5,6A4,4,0,0,1,149,142.89Z"/><path class="cls-201" d="M168,93c4-.42,8.17,1.28,12-1a3.9,3.9,0,0,1,.9.06,7.14,7.14,0,0,1-.86,5c-2.69,2.24-5.35-.29-8-.05l-3.06.08a1.44,1.44,0,0,0-.82-.16c-2-.88-4.09-.13-6.12-.51-1.3-.48-2.68-.9-1.86-2.8C162.64,91.9,165.2,91,168,93Z"/><path class="cls-202" d="M162,96c2,.48,4.27-.5,6.15.93l-1.25.22-4.91.05c-2.4,1.95-5.24,1-7.9,1.23q-4,0-8.09,0c-2.13,0-4.27,0-6.4,0-5.93,0-11.86,0-17.78,0-2,0-4,.25-5.68-1.14,0-3.11,2.51-2.51,4.2-2.64,3.76-.28,7.55,0,11.33,0,1.89,0,3.79,0,5.68,0,6.47,0,12.93,0,19.39.05A15.5,15.5,0,0,1,162,96Z"/><path class="cls-203" d="M25,97.06l-1-.32q-.46-.27-.3-.51c.11-.15.22-.23.33-.23l47-.06c.47-2.11-1.18-1.38-2-1.44C64.64,94.19,60.3,95,56,94H47.94A15.48,15.48,0,0,1,40,94L37,93.88c1.81-1.67,4.08-.52,6.08-1C46.79,90.52,51,92,54.94,91.57c5.53,0,11.06,0,16.59,0a8.06,8.06,0,0,1,4.34.89c1.76,1.85,1.51,4,1.09,6.28-2.36,4-4.28.21-6.39-.36a8.45,8.45,0,0,0-2.07.07,13.08,13.08,0,0,1-5.32.27c-4.75-.79-9.53-.2-14.3-.36-3.24,0-6.49,0-9.73,0-1.8-.09-3.69.14-5.14-1.32Z"/><path class="cls-204" d="M56,94h18.6c-.7,2.66-2.42,1.73-3.65,1.9-2.81-1.91-6-.53-8.93-1C60,94.69,57.82,95.74,56,94Z"/><path class="cls-205" d="M7,91l3.93,0c1.55.28,3.73-.7,4.09,2C12.33,92.25,8.78,95.11,7,91Z"/><path class="cls-204" d="M40,94h7.91A7.71,7.71,0,0,1,40,94Z"/><path class="cls-206" d="M24,96c0,.25,0,.49,0,.74L19,97C20.41,95.33,22.32,96.19,24,96Z"/><path class="cls-207" d="M98,157v-3c4-2.05,8.57-2.37,12.8-3.84,6.54-2.27,12-6.48,18.09-9.4a2.28,2.28,0,0,0,1.38-2.85A2.34,2.34,0,0,1,131,136a6.15,6.15,0,0,1,3,3v2c-.38,4.69-4.66,5.82-7.66,7.64-7.81,4.75-16.22,8.23-25.48,9A4,4,0,0,1,98,157Z"/><path class="cls-208" d="M98,157c13.83-1.19,26-6.05,36-16,2,1.1,2.11,2,.16,3.57-4.38,3.58-9,6.92-14.25,8.81-7,2.53-13.92,6.41-21.91,4.62Z"/><path class="cls-209" d="M98,146c0-1.67,0-3.33,0-5,1.84-1.66,4.21-1.81,6.48-2.15,5.55-.84,10.21-3.75,15-6.39,1.46-.81,2.31-2,1-3.63-.84-1.1-1.88-2.07-2.07-3.55A2.09,2.09,0,0,1,119,124a39.09,39.09,0,0,1,8,8c1.28,1.86.65,3.54-.76,4.87-7.3,6.88-16.25,9.65-26,10.21A3.29,3.29,0,0,1,98,146Z"/><path class="cls-210" d="M98,146a44.25,44.25,0,0,0,25.56-8.35c1.91-1.39,3.71-2.91,3.41-5.66a10.39,10.39,0,0,1,4,4c0,.67,0,1.34,0,2-1.35,4.45-5.92,4.88-9.06,7a45.27,45.27,0,0,1-19.25,7A5.16,5.16,0,0,1,98,151C98,149.3,98,147.63,98,146Z"/><path class="cls-211" d="M114,113l-7.83-5.9-.44-.49a2.15,2.15,0,0,1,.29-1.27c1-.91,1.17-3.23,3.44-2.2.32.38.42,1.07.74,1.22.62.28.19-.34.19-.48-.09-2.13.45-4,2.56-4.88,1.4-.56,2,.7,2.47,1.78.3,1.42-.24,2.72-.54,4.06-.55,2,.58,3.31,1.79,4.65s2.74,2.3,2.61,4.34C117.14,115.65,115.72,113.21,114,113Z"/><path class="cls-212" d="M114,113c2-1.56,3.22,1.33,5,1,1.61-.66,2.41.65,3.45,1.4,1.37,1.39,2.74,2.78,4.16,4.13a15.71,15.71,0,0,1,2.6,3l.18.65c0,.22-.07.45-.1.67l-.55.41C121.4,123.65,118.42,117.35,114,113Z"/><path class="cls-211" d="M95.87,113.05l0-1,.15-.06c1.26-1.44-1.43-2.44-.42-3.85a2.23,2.23,0,0,1,1-.79c1.79-.63,3.33,1.23,5.12.45,1.34-.51,2.47-2.1,4.15-.84l.19.18c0,1.25,0,2.5,0,3.75a4.79,4.79,0,0,1-1.83,2.74,4.89,4.89,0,0,1-2.36,1.15c-1.73.14-3.35-.5-5-.71l-.89-.14c-.26-.14-.37-.32-.34-.52S95.8,113.05,95.87,113.05Z"/><path class="cls-213" d="M102.44,114.13,104,113c1.69-1.35,3.33-1.62,4.93.14l6,7c.28.26.37.52.26.77s-.2.37-.3.37a3.35,3.35,0,0,1-2.64-.8c-3.07-2.85-6-6.06-10.88-3.69-.54.26-1.22-.27-1.65-.8C99.83,114.08,101.47,114.62,102.44,114.13Z"/><path class="cls-214" d="M132.94,132c-3.13-1.66-4.27-4.4-4.22-7.79L129,124c2.33-.6,3.16,1.44,4.53,2.55a4.34,4.34,0,0,1,1.08,2.56A3.45,3.45,0,0,1,132.94,132Z"/><path class="cls-215" d="M132.94,132l1-2.95c1.7-.92,2.43.59,3.46,1.38.53.75,1.14,1.5.56,2.5l-1.11,3.12A7.56,7.56,0,0,1,132.94,132Z"/><path class="cls-216" d="M114.9,121c0-.31,0-.63,0-.94a10.09,10.09,0,0,1,4,3.93c0,.34,0,.68,0,1-.94.83-1.74.37-2.52-.27C115.55,123.63,114.4,122.64,114.9,121Z"/><path class="cls-217" d="M108.91,113.1c-1.62-.9-3.28-.25-4.93-.14a3.76,3.76,0,0,1,2.18-2.1C107.5,111.09,108.59,111.62,108.91,113.1Z"/><path class="cls-218" d="M154,97.1l8,.05c1.58,7.37-.59,14.33-2.79,21.14-2.13,6.63-5.78,12.59-9.88,18.27-1.22,1.69-2.44,2.57-4.44,2.48a12.73,12.73,0,0,1-4-4c9.56-8.7,11.49-20.84,14.71-32.43C156.25,100.21,153.82,99.12,154,97.1Z"/><path class="cls-219" d="M154,97.1c3.5,1.58,3.82,3.79,2.43,7.36-1.68,4.35-1.77,9.34-3.63,13.58-2.79,6.36-4.19,14-11.92,17l-2-2c1.11-4.45,4.27-7.79,6.54-11.58,3.31-5.51,4.93-11.49,6.1-17.66.3-1.53,1.36-3.77-1.51-4.41-1.48-.52-3.68.22-4-2.28Z"/><path class="cls-220" d="M151,98c1.77.14,2.46.72,2.26,2.84C152,113.2,146.75,123.67,138.9,133A7.11,7.11,0,0,1,138,133l-1.14-1.92c1.68-4.87,5.64-8.39,7.64-13.13s4-9.37,4.31-14.57A7.74,7.74,0,0,1,151,98Z"/><path class="cls-140" d="M116.82,160.85c-1.58,3.3-4.45,3.13-7.46,2.65Z"/><path class="cls-140" d="M128.11,157.83c.22-1.89,1.09-2.78,3.63-2.75Z"/><path class="cls-140" d="M123.31,159.47a1.45,1.45,0,0,1-1.43,1.33c-.39,0-1.15-.31-1.15-.49,0-.78.68-1.11,1.35-1.17A3.53,3.53,0,0,1,123.31,159.47Z"/><path class="cls-221" d="M95.87,113.05a3.15,3.15,0,0,1,.18.85v5.82C94.8,117.48,92.11,115.2,95.87,113.05Z"/><path class="cls-217" d="M102.44,114.13l-2.7,1.72c-.28.47-.58.46-.89,0l-1.89,0c0-.63,0-1.26,0-1.88C98.81,111.75,100.6,114.38,102.44,114.13Z"/><path class="cls-216" d="M121,128c2.76,1.43,3.4,2.94.34,4.85-7.17,4.46-14.68,7.86-23.29,8.14l0-5c6.77-2.64,14-4.15,20.18-8.27A2.33,2.33,0,0,1,121,128Z"/><path class="cls-222" d="M98.85,115.88a1.68,1.68,0,0,1,.89,0c.49,0,1.11.28,1.44.06,5.7-3.71,8.78.07,11.8,4.07-2.55,4.72-8.85,7.24-15,6C97.94,122.58,97.26,119.14,98.85,115.88Z"/><path class="cls-213" d="M121,128c-5.33,1.69-9.64,5.55-15.25,6.84A32.86,32.86,0,0,1,98,136c0-1.67,0-3.34,0-5,6.31-2.37,12.4-5.36,19-7a2.1,2.1,0,0,0,2,1Z"/><path class="cls-223" d="M117,124c-5.9,3.51-11.9,6.72-19,7,0-1.67,0-3.34,0-5,5.38-1,10.75-2.09,15-6l1.92,1Z"/><path class="cls-224" d="M98,151c12.59-.25,23.35-5.14,32.94-13,1.45.75,2.32,1.74.37,2.78C120.74,146.43,110.88,154,98,154,98,153,98,152,98,151Z"/><path class="cls-225" d="M96.87,20,99,17.05c1.95-1.63,4,.35,6-.18,1.3-.4,2.6-.8,3.79.27a97.15,97.15,0,0,1,34.11,16.8c-1.16,3.2-2.55.57-3.48,0a89.43,89.43,0,0,0-23.64-11.13A14,14,0,0,0,111,22c-1.59,1.43-3.25.93-4.92.22a8.12,8.12,0,0,0-6.64-.54A11.71,11.71,0,0,0,98,22.94c0,.71,0,1.41,0,2.12a4.75,4.75,0,0,1,1.18,2.86c.07.77.09,1.55.09,2.34,0,1.8,0,3.6,0,5.4q0,1.17,0,2.34c0,.78,0,1.57,0,2.36,0,1.6,0,3.21,0,4.82.1,1.4,0,2.8,0,4.2,0,2.35.14,4.7.06,7.06-.34,4.88,1.43,10-1.52,14.57l-.47,0L97,71Z"/><path class="cls-226" d="M98,30,98,28c3.49-2.06,7-1.09,10.46,0,1.81.55,3.64,2,5.49.06,8.66,1.42,15.71,6.35,23.05,10.63,2.38,1.39,1.43,3.31.92,5.17a1.72,1.72,0,0,1-1.28,1.58,3,3,0,0,1-1.4-.27c-6.21-4.36-12.46-8.65-20.09-10.23C109.6,32.75,103.37,33,98,30Z"/><path class="cls-227" d="M114,28c.68,4.14-2.51,2-3.35,1.61-4.09-1.75-8.33-1.68-12.6-1.65,0-1,0-1.94,0-2.92C103.57,24.83,108.54,27.63,114,28Z"/><path class="cls-228" d="M137,45.18l.9-1.36c2.85-1.09,3.18-4.72,5.93-5.9,1.8.26-.44,3.24,2,3-3.68,2.3-5.49,6.48-9,9A5.09,5.09,0,0,1,137,45.18Z"/><path class="cls-229" d="M98,22.94c0-.64,0-1.28-.05-1.93a13.76,13.76,0,0,1,8,0,8.08,8.08,0,0,0,5,1c0,.67,2.58,1.95-.19,1.93C106.54,23.89,102.29,23.3,98,22.94Z"/><path class="cls-230" d="M148.89,30.93,150,30c.87.24,2.16.24,1.49,1.67-.3.64-1.14,1.48-1.7,1.46C148.37,33.09,149.21,31.7,148.89,30.93Z"/><path class="cls-231" d="M108.82,17.14,105,16.87c1.1-1.37,2.72-.61,4.06-1L111,16C110.51,16.9,109.62,16.93,108.82,17.14Z"/><path class="cls-232" d="M16.9,74.82c.31-1.63.63-3.25,1-4.88.09-.31.19-.61.3-.91L20,70c-.49,2.79-2.49,5.1-2.81,8.07C17.08,77,17,75.9,16.9,74.82Z"/><path class="cls-233" d="M21,83c0,1.82.38,3.79-.18,5.44-.75,2.19-1.47.94-1.83-.43C20.9,86.83,19.09,84.16,21,83Z"/><path class="cls-234" d="M17,70c-1.07,1.57-.81,4.46-3.94,4,0-1,0-2-.05-3l1-1Z"/><path class="cls-235" d="M90.85,25c0,10.6,0,21.19-.06,31.78,0,.39-.53.78-.81,1.17-3-2-1.52-5.18-2.06-7.82a55.13,55.13,0,0,1-.29-8.52C88,37.84,86.14,37,82.8,37.83c-9.88,2.5-19,6.6-26.82,13.19a16,16,0,0,1-5-5c6.56-7,14.86-11.07,23.8-13.91a75.91,75.91,0,0,1,10.06-2.61A64.45,64.45,0,0,0,55.46,41.66C53.73,42.92,52.23,44.59,50,45l-2-2,0,0c.51-.66.65-1.63,1.26-2.11C61.48,31.25,74.81,24.55,90.85,25Z"/><path class="cls-236" d="M89,41c0,3.33,0,6.67,0,10-1.92,2.22-4.87,1.74-7.29,2.67a57.62,57.62,0,0,0-15.47,8.55c-.84.08-1.38-.19-1.28-1.15Q62.47,58,60,55c-2.07-2.51-1.8-4.18,1.39-5.66,6.76-3.14,13.23-6.94,20.51-8.88C84.29,39.82,86.74,39.11,89,41Z"/><path class="cls-237" d="M89,41c-9.57-.11-17.35,4.88-25.42,9-1.93,1-5.71,1-3.58,5a10.43,10.43,0,0,1-4-4c3.18-5.9,9.15-8.32,14.73-10.53,4-1.58,8.08-3.39,12.48-4.19S89.64,36.22,89,41Z"/><path class="cls-238" d="M50,45c8.43-9.89,33.76-19.74,40.3-15.1-14.28,2-27,6.64-37.85,15.78-.34.28-1,.23-1.44.33Z"/><path class="cls-239" d="M65,61.06l1,.9c3,.45,4.15,2.93,5.49,5.19-1,2.34-1,2.34-4.44-.19A11.07,11.07,0,0,1,63,63C63,61.72,63.61,61,65,61.06Z"/><path class="cls-240" d="M36,90l-7-.14c-.12-.93.47-1.38,1.19-1.75,3.15-.2,4-2.47,4.44-5,1.57-8.66,5.36-16.37,10.3-23.53C46.34,57.49,47.53,54.63,51,56c2.51,2.17,5.75,3.61,7,7C53.38,68.78,49.49,75,48,82.47c-.35,1.76-1.09,3.2,1.43,4.39,2.2,1,1.52,2.92-.51,4.09C44.53,91.39,40.26,90.52,36,90Z"/><path class="cls-241" d="M50,90c-.29-.92.36-3.16-1.41-2.25-3,1.56-2.74-.47-2.52-2a43.79,43.79,0,0,1,9.76-21.88c.44-.54,1.48-.59,2.25-.87a33.33,33.33,0,0,1,7,7c-.1,1.59-1.15,2.68-2,3.88C60,78,57.3,82.29,57.11,87.69a3.38,3.38,0,0,1-1.53,3C53.59,91.41,51.67,91.61,50,90Z"/><path class="cls-242" d="M56,90c-.75-8.38,3.33-14.58,9.06-20A62.52,62.52,0,0,1,75,80C73.37,91,66.29,94.74,56,90Z"/><path class="cls-243" d="M30,89l-1,.91L25,90,25,90c-1.45-2-1.68-4.06.13-6,1.07.41,1.73.84,2-1.08,1.47-11.26,7-20.8,13.22-30A10.36,10.36,0,0,1,44,49c2.48.32,3.72,2.15,4.93,4a4.13,4.13,0,0,1-1.11.83C39.67,60.07,36.1,69,33.43,78.47a27.63,27.63,0,0,1-1.54,5.19C31,85.34,31.57,87.55,30,89Z"/><path class="cls-233" d="M26,84c-1.81,1.74-.65,4-1,6-3.06.27-3.15-1.62-2.82-3.85a64.66,64.66,0,0,1,3.77-14.23C29.65,62.26,34.1,53.08,42,46a3,3,0,0,1,2,2c-5.65,7.56-11,15.26-14.24,24.27C28.27,76.15,28.33,80.45,26,84Z"/><path class="cls-244" d="M30,89c.33-2-.81-4.24,1-6a2.11,2.11,0,0,1,.84,1.71C34.12,73.27,38.46,61.85,48,53h1L51,56c-2.6.31-3.84,2.25-5.12,4.2-5,7.57-9,15.58-10.32,24.64C35.09,88.22,33.4,89.64,30,89Z"/><path class="cls-245" d="M26,84C28,70,33.16,57.62,43.92,48c0,.32.06.63.09.95-2.6,4.18-5.34,8.28-7.76,12.56a71.44,71.44,0,0,0-8.6,22.92c-.09.5-.13,1.91-1.36,1.38C26,85.69,26.08,84.62,26,84Z"/><path class="cls-246" d="M56,90c8.43.7,16.68,1.06,19-10l1,.92c.71,3.62-2.63,6.27-2.32,9.93.11,1.29-2.16,1-3.45,1.1-6,.07-11.9,0-17.85,0-3.16,0-6.44,1.13-9.38-1-2.36.13-4.7,1.13-7.06,0h0c0-.34,0-.68,0-1L50,90Z"/><path class="cls-247" d="M71,91c.75-.15,2.3,0,2.09-.54-1.42-4,1.75-6.44,3-9.53,5.4,0,1.36-2.48,1-4,1.94-1.2,3,.2,4.06,1.42l.29.63c0,.23,0,.46.07.68s-.08.45-.11.67a27.12,27.12,0,0,1-3.56,6.29c-.69,1.2-.55,2.54-.67,3.84A3.39,3.39,0,0,1,76,93l-4.06,0C71.39,92.41,70.4,92.09,71,91Z"/><path class="cls-248" d="M81,79c-1.39-.53-2.23-2.12-3.94-2a60.64,60.64,0,0,1-10-10c1.33-1.19,2.51,3.35,3.89.1,4.62.25,6.09,4.42,8.8,7.06a17,17,0,0,1,1.76,3A2,2,0,0,1,81,79Z"/><path class="cls-249" d="M11.91,76.94a10.89,10.89,0,0,0-1,5.09L9,81C8.88,78.84,9.41,77.18,11.91,76.94Z"/><path class="cls-250" d="M35.94,91c-2.64,4-6.47,1-9.71,1.44,2.91-2.33,6.44-1.19,9.71-1.44Z"/><path class="cls-251" d="M43,91c3-.07,6,1,9,0,.6,1.25,3.28-.67,3,2L43,92.88Z"/><path class="cls-252" d="M79,75a36,36,0,0,0-8.07-7.89L66,62c6-7.19,14.29-9.49,23-11,.31,2.32,0,4.74,1,7q.49,5,1,10c-.16,4.45-4.4,4.41-6.91,6.29a10.68,10.68,0,0,1-1.22.61C81.58,75.32,80.31,76.12,79,75Z"/><path class="cls-253" d="M90.85,25c-1.89,1.4-4.17.93-6.27,1.22C70.72,28.17,58.91,34.56,48,43c-.95-2.19-.16-3.82,1.66-5.09C62.09,29.27,75.41,23.12,90.89,23,90.88,23.67,90.87,24.34,90.85,25Z"/><path class="cls-254" d="M99,76l2,1.09a1.8,1.8,0,0,1,2,.94c1.64,1,3.58,1.74,4,4a2.74,2.74,0,0,1-1.94.91,6.91,6.91,0,0,1-3.46-.94c-1.18-.44-2.07-2.12-3.34-1.58-1.08.46.13,1.7.14,2.62A4.25,4.25,0,0,1,96,86.28a1.74,1.74,0,0,1-1.3-.33c-.8-.87-.59-2.23-1.82-3.41C92.09,85,89,85.29,88.52,88c-.36,1.34-.61,2.75-2,3.45a2.38,2.38,0,0,1-1.37-.14A2,2,0,0,1,84.56,90,8.89,8.89,0,0,0,83,83c-.48-1.1-2.49-1.19-2-3L81,80c1.13-1.84,5.06.32,4.88-3.42,1.39-1.6,3-2.33,5.13-1.56l3,0v0C95.46,76.2,97.48,74.79,99,76Z"/><path class="cls-255" d="M91,75l-5,2c-1,2.32-2.67,3-5,2h0c0-.67,0-1.33,0-2-.63-1.85,1.17-2.09,2-3l0,0c1.3-.45,2.5-1.3,4-1C87.85,74.61,90.13,73.37,91,75Z"/><path class="cls-91" d="M87,73a6.65,6.65,0,0,1-4,1c2.35-2.42,6.81-2,8-6C91.18,70.87,90.76,73.26,87,73Z"/><path class="cls-256" d="M97.9,71,98,56c3.53-2.27,6.46-1.29,8.49,2,1.27,2.06,2.62,3.12,5.1,3.19s4.43,1.42,4.36,4.4c-2.45,5.48-6.59,8.66-10.91,8.4A14.71,14.71,0,0,0,97.9,71Z"/><path class="cls-257" d="M105,74c5.29-.09,6.91-4.94,10.08-7.77a12.51,12.51,0,0,1,3.37-4.82c1.81-1.58,2.91-3.8,4.78-5.34,1.19-1,2-2.55,3.85-2.65a2.78,2.78,0,0,1,1.32.53c.88,1.22,1.77,2.44.52,4a3.05,3.05,0,0,0,0,.8c-1,1.1-2.11,2.14-3.16,3.21l-1.85,1.92C121.25,68.3,118.33,72.45,113,74,110.31,71.92,107.66,77.12,105,74Z"/><path class="cls-258" d="M113,74l10.89-10.15,1.21,1.23c.46,1.79-.86,2.75-1.84,3.81-3.73,4-8,7.54-11.26,12a3.35,3.35,0,0,1-3.42,1.59L108,82C107.44,78,111.68,76.89,113,74Z"/><path class="cls-259" d="M105,82h3c1.83,2,4,3.79,3.44,6.93-2.24,3.19-5,4.78-8.9,2.86a3.79,3.79,0,0,1-1.17-.94c-1.17-1.77-1.81-3.63-.79-5.71a1.93,1.93,0,0,1,1.26-.73,2.75,2.75,0,0,1,2.42,1.3c.37.66.12,2,.8,2s.23-1,.29-1.53a9.28,9.28,0,0,0-.64-3A1.16,1.16,0,0,1,105,82Z"/><path class="cls-260" d="M102.9,78.05l-2-1c0-.69-.9-1.66.33-2A2.62,2.62,0,0,1,104,76.7C104.77,77.9,103.61,77.86,102.9,78.05Z"/><path class="cls-173" d="M99,76c-1.68-.31-3.6.59-5-1C95.65,75.23,97.58,74.29,99,76Z"/><path class="cls-261" d="M82,108l-1,3c-1.84,2.16-4.83,3.24-5.79,6.21a88.33,88.33,0,0,1-7.08,6.31c-1.42-.26-1.7,1.45-2.87,1.63-.88.45-1.31-.08-1.67-.77.1-3.46,3.32-5,4.71-7.69,1.47-1.77,3.69-2.69,5.12-4.51,2.29-2.25,3.86-5.43,7.6-5.77C81.72,106.65,82.24,107.06,82,108Z"/><path class="cls-181" d="M68.1,123.48c1.22-3.3,4.92-4.1,6.79-6.75a.73.73,0,0,1,.93-.07L75,119a21.76,21.76,0,0,0-6,6q-.45,0-.9,0C68.09,124.5,68.09,124,68.1,123.48Z"/><path class="cls-186" d="M63.94,123.88l1.29,1.23-4,4-1.34-1.32c-.34-1.55.79-2.35,1.66-3.28C62.28,124,63,123.47,63.94,123.88Z"/><path class="cls-185" d="M75.82,116.66l-.46.09-.47,0c1-3,3.43-4.49,6.08-5.77a2.89,2.89,0,0,1,3,3C80.18,111.52,77.92,113.85,75.82,116.66Z"/><path class="cls-254" d="M82,108l-1-1.07c-.94-.92-2.11-1.55-3.12-2.4a3.86,3.86,0,0,1-1.63-3.06c.32-1.88,1.59-2.43,3.3-2.38a9.33,9.33,0,0,1,5.06,3.06,19.46,19.46,0,0,1,3,4.19,2.9,2.9,0,0,1-.49,2.87A2,2,0,0,1,85,109Z"/><path class="cls-262" d="M85,109l2-.07c2.83-1.89,5.89-1.62,9-1a7.26,7.26,0,0,0,.81,1.68c.53.59,2.25.32,1.48,1.75-.24.45-1.45.38-2.21.55C92.92,108.87,88.37,111.14,85,109Z"/><path class="cls-263" d="M62.06,125c-.72.91-1.43,1.83-2.14,2.74q-.45.14-.9.24c-1.77.21-3.15.81-3.06,2.95-1,1-2,2-3,3-1.29.89-2.46.37-3.63-.29a1.94,1.94,0,0,1-.7-1.07c.09-1.43,1.08-2.33,1.95-3.3,1.38-1.38,2.76-2.77,4.09-4.2,2.18-1.44,3.12-4.93,6.69-4.1C62.44,122.23,63,123.51,62.06,125Z"/><path class="cls-264" d="M49.1,133l3.9,1-3.1,2.93c-2.34.52-4.15,2.78-6.86,2.05l1.05-1.81C44.67,134.45,46.45,133.18,49.1,133Z"/><path class="cls-265" d="M56,131c-1.33-.23-2.51-1-1-2.05,1-.71,2.11-3.76,4.09-.9Z"/><path class="cls-266" d="M49.1,133l-5,4.2-.12-.28c-5-6.73-9.15-13.89-11.47-21.25,0-1.44-.74-.86-.08-.93-.05,1.1.5,2.28-.42,3.27-2.09-4.85-2.23-10.08-3-15.18-.64-4.08,1.28-5.34,5-4.82.18.18.36.36.55.53,1.67,5.86,1.34,12.08,3.68,17.88,2.51,6.22,5.46,12,10.46,16.59Z"/><path class="cls-267" d="M32,118v-4.89c2.42,8.8,9.09,15.38,12,23.8-5.3-3-6.92-8.7-9.69-13.53A45,45,0,0,1,32,118Z"/><path class="cls-266" d="M34,97.05l5,0c-1.1,3.21-3,2-5,1l0,0Z"/><path class="cls-268" d="M141.09,51c.86-1.78,2.43-2.88,3.95-4l1,0a91,91,0,0,1,10,13.69c.34.6.5,2.28,2,1.23,2.39,2.53,3.15,5.78,4,9,2.37,5.2.58,10.75,1.36,16.09.13.91-.66,1.45-1.37,1.9l-1,1a3.13,3.13,0,0,1-1.39,1c-2.55.44-5.11.85-7.49-.66-.54-2.68,1.75-2.1,3-2.66,4.16-.14,5.26-2.56,4.05-6.06-2.07-6-3.56-12.14-6.69-17.7q-2.76-4-5.44-8.12A11,11,0,0,0,141.09,51Z"/><path class="cls-94" d="M162,89q0-9,0-18c3.71,4.43,3.35,10.18,4.65,15.33C167.38,89.29,164,88.85,162,89Z"/><path class="cls-269" d="M160,90.06a7.46,7.46,0,0,0,1-.11l7,.08v3c-2.74-.39-5.27.7-7.89,1.11-5.27,1.83-10.71.49-16.06.86-2.12.14-4.26,0-6.39,0-1.24-.06-2.53.12-3.6-.73a1.22,1.22,0,0,1,.2-1.65c5.21-2.13,10.66-.66,16-1,2.32.08,4.65.15,7,0A4,4,0,0,0,160,90.06Z"/><path class="cls-270" d="M158,62c-.42.58-.12,2.79-.85,1.76-3.85-5.45-8.66-10.31-11.14-16.68,3.66.42,4.71,3.89,7,5.93a3,3,0,0,0,2,3Z"/><path class="cls-271" d="M141.09,51c2.21-1,3.73,0,5.08,1.65A63.64,63.64,0,0,1,153,63c1.11,1.85,2.48,3.68,1,5.93-1.06,1.58.45,2.42.92,3.52,1.48,3.52,3.41,6.88,3.37,10.86,0,2.19,0,4.4-2.28,5.68-1.39.14-2.93-.4-4,.93-2,1.89-4.26,1.6-6.56.59-1.31-2,.57-2.07,1.65-2.6,3.72,0,5.16-1.36,4.67-5.53-1-8.3-3.45-15.89-8.49-22.55-1.27-1.69-2.47-4.42-5.52-2.37a4.19,4.19,0,0,1-2.59,1,1.09,1.09,0,0,1-.89-.94C135.32,54.1,138.69,53.08,141.09,51Z"/><path class="cls-272" d="M134,93c0,.3,0,.6,0,.89a2.93,2.93,0,0,1-2.67,1A70.25,70.25,0,0,0,117,94.37c-2.63.19-2.6,1.38-1.38,3.17.48,1.33.45,2.53-.81,3.44-3.71-3.53-3.18,1.13-3.34,2.13-.27,1.58,1.12,3.32,0,5.28-2-1.36-2.45-3.29-2.46-5.45-.81-.82-.42-1.65,0-2.49a5.61,5.61,0,0,0-.07-6c-1.22-2.55,1.12-3.74,2.09-5.46-.12-2.68-3-4.18-3-6.92,3.09-.14,3.68-3.07,5.35-4.78,3.94-4,7.85-8.13,11.77-12.19a8.17,8.17,0,0,1,1,0,2.26,2.26,0,0,1,.51,1.22,3.43,3.43,0,0,1-.34,1.29,16.8,16.8,0,0,1-4.46,4.78c-.8.71-1.57,1.45-2.32,2.21s-1.51,1.55-2.25,2.33c-3.53,2.53-2.28,5.62-1,8.72.28,2.59,2,3,4.24,3.08,2.63,0,5.29-.28,7.89.43C129.84,90.91,132.28,91.42,134,93Z"/><path class="cls-273" d="M128.92,57.89c-.3-1.22-.61-2.43-.91-3.65a4.32,4.32,0,0,1,1.63-3.74c2.74-1.1,2.81-5.3,6.34-5.48l1.06.16A8.63,8.63,0,0,1,137,50,38.74,38.74,0,0,1,128.92,57.89Z"/><path class="cls-274" d="M134.2,57.5l.79.55a1.23,1.23,0,0,1,.31.81c0,.3,0,.44-.08.45-1.3,1.86-2.61,3.73-5.1,4.12a1,1,0,0,1-.86-.87A8.43,8.43,0,0,1,134.2,57.5Z"/><path class="cls-275" d="M129.26,62.56A1.07,1.07,0,0,0,130,63c.45,1.72-.7,2.54-1.88,3.35a1.75,1.75,0,0,1-1.93-.33l-.16-1C127,64,127.55,62.57,129.26,62.56Z"/><path class="cls-258" d="M125.71,61.9a4.37,4.37,0,0,1,3.16-3.2A4.19,4.19,0,0,1,125.71,61.9Z"/><path class="cls-276" d="M136.94,94.07l23.14,0L162,96l-25,0A1.21,1.21,0,0,1,136.94,94.07Z"/><path class="cls-277" d="M114.78,101c.15-1.28.29-2.55.44-3.82.21-.44.47-.48.79-.11l24,.08c7.16.89,7.87,1.55,6.09,8.77a55.13,55.13,0,0,1-8.79,19.3c-1,1.45-2.24,3.06-4.48,1.84L129,124a3,3,0,0,1-.06-.94,37.59,37.59,0,0,0,8.73-17.89c.93-5.2.63-5.75-4.64-5.84-1.15,0-2.31,0-3.46,0a35.25,35.25,0,0,1-4.48,0c-3.9-.3-7.31.14-8.9,4.47a1.72,1.72,0,0,1-2.39,1.13Z"/><path class="cls-278" d="M132.84,127c.76-.29,1.81-.35,2.23-.9,4.75-6.22,7.56-13.38,9.94-20.78,1.58-4.89.21-7.63-5-8.23l6,0c1.44,1.48,3.3.66,5,.9-1.18,12.53-4.9,24-14.13,33.05l-2.88-2C133.59,128.4,133.21,127.72,132.84,127Z"/><path class="cls-279" d="M116,97.05a4.29,4.29,0,0,1-.79.11c-1.3-.37-3.35.15-3-2.2.23-1.84,2-1.49,3.16-1.59,5.23-.44,10.47-.89,15.64.59.51.56,1.59.83,1,2C126.68,96.75,121.19,94.82,116,97.05Z"/><path class="cls-280" d="M132,95.91l-1-2,3,0,2.95.15c0,.61,0,1.22,0,1.83Z"/><path class="cls-281" d="M34,98c1.67-.26,3.56.63,5-1H49c-.17,2.37-2.12,1.9-3.57,2.25-5,.55-5.17,1-4.61,5.79,1.1,9.33,5.65,17.15,10.29,25L48.68,133c-4.49.08-5.66-4-7.25-6.67A50.68,50.68,0,0,1,34,98Z"/><path class="cls-282" d="M64.23,97.86,69,97.05c2.08.73,2.79,2.72,4,4.3s2.31,3.4,2.4,5.56c-1.39,2.87-4,4.69-6.15,6.85a4.18,4.18,0,0,1-2.89.86c-4.53-1.11-7-4-7.59-8.63a11.24,11.24,0,0,0-.46-2.42c-1.81-5.14-1.81-5.14,3.68-5.91A3.27,3.27,0,0,1,64.23,97.86Z"/><path class="cls-283" d="M64.23,97.86,62,98c-1.9,1.06-4.18-.06-6.06,1.07-5.68.68-5.8.81-4.68,6.35a66.5,66.5,0,0,0,2.83,9.41c1.16,3.27,3.14,5.21,6.81,4.91A1.08,1.08,0,0,1,61,121l-5.88,5c-2.64,1.27-3.69-1-4.73-2.44a43.28,43.28,0,0,1-7.48-21.44A3.88,3.88,0,0,1,45,98c1.37-.15,2.92.44,4-1C54.07,97.22,59.24,95.79,64.23,97.86Z"/><path class="cls-284" d="M80,100c-1.48,0-2.91,0-3,2-1.61-.06-1.63-.88-1-2,0-2.33,0-4.66,0-7,0-1,0-2,0-2.93.79-.48,1.26,0,1.71.56,1.27,1.3.38,3.67,2.29,4.63a4.1,4.1,0,0,0,.91-.63,26.11,26.11,0,0,1,2.4-2.84A2.86,2.86,0,0,1,85.05,91l1,0C86.66,95.81,83,97.7,80,100Z"/><path class="cls-285" d="M55,93l-3-2H71l1,1.93Z"/><path class="cls-286" d="M76,100a2.17,2.17,0,0,0,1,2l2,2c0,2.89-1.64,3.45-4.07,3l-2.67-5.06c-1-1.47-1-3.2-1.32-4.85C73.1,97.11,73.53,100.31,76,100Z"/><path class="cls-283" d="M70.87,97.07a8.53,8.53,0,0,1,1.32,4.85q-1.6-2.43-3.2-4.87Z"/><path class="cls-287" d="M113.79,104.94C116.38,96.1,123.6,98,130,98c2.07,4.87-1.09,15.48-5.37,18.06a2.48,2.48,0,0,1-2.77,0L119,114c-1.55-1.65-3.1-3.28-4.63-4.94C113.22,107.81,112,106.57,113.79,104.94Z"/><path class="cls-288" d="M109.82,100.93a2,2,0,0,0-.86,2c-1.26.76-.79,3.19-3,3.06-3.14-2.82-2.91-4.66,1.07-8.57C109.93,97.07,111.32,97.86,109.82,100.93Z"/><path class="cls-289" d="M107,98c-1,2.58-3.51,5-1,8a9.23,9.23,0,0,1-.07.93c-1.69-.05-2.59,1.45-4,2-1.63.43-2.11-.56-2.32-1.89.61-1.29,1.36-2.52,2.06-3.77,1.24-1.61,1.28-3.76,2.4-5.41C105.06,96.53,106.11,95.71,107,98Z"/><path class="cls-290" d="M121.82,116.05c6.06-3,6.79-9,8.11-14.6A15.28,15.28,0,0,0,130,98c10.16-.06,10.35,0,8,10.32-1.3,5.82-2.73,11.85-9.07,14.7h0c-1.41-2,.22-3.48,1.17-4.89a42.3,42.3,0,0,0,4.39-8.8,45.59,45.59,0,0,1-4.71,9.06c-1,1.43-2,2.79-4,1.67A11.66,11.66,0,0,1,121.82,116.05Z"/><path class="cls-291" d="M125.8,120.06c4.85-1.55,4.94-6.59,7.22-10,.85-1.28,1-3,2.13-4.38,1.23,4.48-1,8.19-3.25,11.74-1.14,1.82-2.68,3.36-3,5.62A6.94,6.94,0,0,1,125.8,120.06Z"/><path class="cls-292" d="M96,108c-2.85,1.65-6,.79-9,1,0-1,0-2,0-3l.52-.43c3.19,1.46,6.93-1.64,10,1.18A1.47,1.47,0,0,1,97,108C96.63,108,96.3,108,96,108Z"/><path class="cls-262" d="M97,108c0-.32,0-.64,0-1a2,2,0,0,1,1.84-.7A2.17,2.17,0,0,1,100,107a3.37,3.37,0,0,0,2,2C99.79,111.14,98.84,107.24,97,108Z"/><path class="cls-293" d="M127,53.94c-1,1-2,2-3,3-3.44-1.36-7.49-.84-9.57-5.68-.89-2.06-5.73-2.79-9-3.65C102.88,47,100.11,46.86,98,45V40a4.5,4.5,0,0,1,4.15-1.09c7.67,1.47,15.05,3.72,21.5,8.34A7.08,7.08,0,0,1,127,53.94Z"/><path class="cls-294" d="M127,53.94c-2.12-6.36-7.83-8.33-13.2-10.44-5-2-10.17-3.9-15.77-3.51V38c3.53-2.38,6.94-.17,10.38.32,1.49.21,2.77,1.7,4.08,1-1.41,0-3.13.06-3.65-2.28,1.35-1.42,3-1.24,4.59-.67,5.74,2.06,11.37,4.34,16.41,7.9,3.31,2.35,3.38,4.53.27,7-.69,1-1.38,2-2.06,3Z"/><path class="cls-295" d="M119.1,62.26l-4,4c-.16-3.49-2-4.73-5.24-3.65-1.69.55-3.38.24-3.56-1.44-.58-5.54-4.41-5.29-8.32-5.14l0-7a31.54,31.54,0,0,1,20.31,8.78A3.46,3.46,0,0,1,119.1,62.26Z"/><path class="cls-296" d="M119.1,62.26c-1.54-6.3-7.33-7.9-12.11-10-2.82-1.25-6.13-1.77-9-3.25,0-1.33,0-2.66,0-4,6.18.18,11.65,2.8,17.26,5,.41.16,1,.48,1.07.78.3,3.08,1.28,4.83,5,3.69,1-.33,2.09,1.35,2.7,2.54C121.92,58.34,121.45,61.16,119.1,62.26Z"/><path class="cls-297" d="M98,30A62.82,62.82,0,0,1,116,34c.52.72,2.29.33,1.87,1.73a2.18,2.18,0,0,1-2.9,1.16c-3.86-1.18-8.13-.43-11.73-2.69-.62-.18-.34,1.22-.14.58,0-.12.15-.08.3-.09,1.53-.11,2.28.27,1.19,1.84-2.28.73-4.51.86-6.61-.53Q98,33,98,30Z"/><path class="cls-298" d="M98,36h7c1.46-.21,2.89-.25,4,1l4.7,3.08L98,38Z"/><path class="cls-147" d="M106,21l-8,0A7.41,7.41,0,0,1,106,21Z"/><path class="cls-299" d="M109,37c-1.38-.15-3,.46-4-1-.57-1.27-2.11-.64-3.29-1.83,4.76-.3,8.9,1,13.12,1.76,1.67.29,3.32.24,1.17-1.94a38.84,38.84,0,0,1,20,11c-2.08,2-2.83,5.21-5.91,6.23,1.85-2.53,1.94-4.34-1.3-6.14C122.47,41.61,116.42,37.66,109,37Z"/><path class="cls-300" d="M48,53c-.22,3.39-3.49,4.65-5,7.17A78.85,78.85,0,0,0,32.43,85.71c0,.22-.51.35-.79.54-1.07-.93-.48-2.17-.65-3.27,2.08-8.64,4.5-17.21,10.26-24.2C43.06,56.59,43.74,52.54,48,53Z"/><path class="cls-301" d="M85.05,91,84,92c-1.82.7-2.34,2.4-3,4l0,0c-3.68.22-1.92-3.9-4-5l-1-.92c.06-1.45-.45-3,.87-4.19a1.24,1.24,0,0,1,1.28-.13c1.21,1.93,1.7,4.83,5.11,3.81l.68,0,.67.14.48.47A5.16,5.16,0,0,0,85.05,91Z"/><path class="cls-248" d="M81,79c2.12.47,3.42-1.13,5-2,.27,1.2,2,1.78,1.45,3.42L81,80C81,79.64,81,79.31,81,79Z"/><path class="cls-302" d="M78.08,86.05l-1.26-.19L81,80.08,84,82c-1.64,1.32-3.14,2.79-4.69,4.2A1.2,1.2,0,0,1,78.08,86.05Z"/><path class="cls-91" d="M83,74l-2,3a3.34,3.34,0,0,1-2-2Z"/><path class="cls-303" d="M80,100c1.42-3.4,5.15-5.22,6.08-8.95L88,88c1.74-2.8,4-3.83,7-2a5.24,5.24,0,0,0,1,0c3.36-1.89,4.55-.4,4.55,2.92C100,91,98.37,90.28,97,90.39c-3.86.3-7.45,1-8.92,5.48-.81,2.49-1.12,3.93,2.24,3.25a22.49,22.49,0,0,1,4.42-.38c5.12-.33,5.54-.91,4.74-6.56a2.37,2.37,0,0,1,.33-2c1.17-.89,1.62.09,2.17.83l0,0c1.52,1.17,3.68,1.34,4.83,3.09.46,1,.66,2-.71,2.31a2.68,2.68,0,0,0-2.45,3.08c.06,3.12-2,3.78-4.58,3.85C94,102.66,89,104.72,84,103Z"/><path class="cls-304" d="M95,86c-2.59-.18-5,.18-7,2-.08-1.16-2.7-3.14,1-3.11,1.2,0,1.88-.42,2-1.63s.38-2.95,2.14-2.77c2,.21,1.83,2,1.89,3.52C95,84.62,95,85.29,95,86Z"/><path class="cls-305" d="M79,86c1.06-2.09,1.9-4.47,5-4,1,2.62,3.58,5,1.06,8.12L85,89.85C84.1,86.78,81.05,87.13,79,86Z"/><path class="cls-306" d="M98,83.06c-1.81-1-3-3-1.5-4.26C99,76.57,100,80.43,101.93,81c.3,2.11-1.53,1.88-2.66,2.41A1.69,1.69,0,0,1,98,83.06Z"/><path class="cls-304" d="M98,83.06,99,83a2.26,2.26,0,0,1,1.94,2l1,6L100,90h0c.44-3.14-1-4.35-4-4C95.82,84.42,97.32,84,98,83.06Z"/><path class="cls-307" d="M100.92,85,99,83l3-2,3,1c0,.32,0,.63,0,1-.63,1.2-2.07,1.18-3,2Z"/><path class="cls-289" d="M106,94c-1.43-.89-3.28-1.2-4-3,3.43,1.25,6.3,0,9-2,.82,1.9-3.13,2.89-1,5C108.66,97.13,107.3,94.35,106,94Z"/><path class="cls-308" d="M106,86c.18,1.15,2.37,1.81.93,3.33a2.35,2.35,0,0,1-2.77.44c-2.13-1.1-.51-2.49-.15-3.77A1.35,1.35,0,0,1,106,86Z"/><path class="cls-309" d="M106,86h-2L102,84.94c0-2.07,1.56-2,3-2C107.54,83.28,106.6,84.68,106,86Z"/><path class="cls-292" d="M74.86,107c1.52-.76,3.33-1.13,4.07-3A2.89,2.89,0,0,1,81,106.89c-2.91,1.37-4.77,4-7,6.07-1.16.81-2.29,1.69-3.84,1a2.73,2.73,0,0,1-1-1C71,111,72.94,109,74.86,107Z"/><path class="cls-310" d="M69.11,113l.89.09c.34,1.48-.83,2.58-1,3.94-1.09,2.74-3.52,4.48-5.1,6.85L62.05,125c-.35-1.34-.7-2.68-1.06-4l.12-1c.53-1.26,1.61-2.14,2.3-3.29a5.81,5.81,0,0,1,3.84-2.61Z"/><path class="cls-311" d="M69,117c-1.31-1.71.25-2.72,1-3.94,1.35.77,2.64,0,4-.13C72.9,115,70.63,115.62,69,117Z"/><path class="cls-292" d="M84,103a64.51,64.51,0,0,1,15.94-.92c.12.21.24.41.35.62a2.09,2.09,0,0,1-1,1,7,7,0,0,1-2.11.46c-3.47.24-7.1-.41-10.22,1.81l0,0A6.38,6.38,0,0,1,84,103Z"/><path class="cls-312" d="M45,98c-2,6.28.19,12.09,2.57,17.6,1.68,3.9,2.82,8.59,7.55,10.45a12.9,12.9,0,0,1-4,4c-5.45-4.51-7.81-10.86-10-17.22-.85-2.45-1-5.16-1.55-7.71C38.14,99.18,38.91,98.13,45,98Z"/><path class="cls-313" d="M156,89c2.63-5.14.36-9.87-1.46-14.51-1-2.46-3.76-4.35-.7-7.33.55-.53-.52-2.73-.83-4.15,4.31,6.69,6.61,14.14,7.93,21.88C161.53,88.54,158.16,88.25,156,89Z"/><path class="cls-314" d="M134,93c-2-.41-4.21-.4-5.08-2.83,5.32-2.69,10.69-2.22,16.09-.31l7,0,8.08.14c-.09,1.06.28,2.31-1.11,2.87-2.63-.57-5.27-1.4-7.9,0Z"/><path class="cls-315" d="M151,93c2.62-3,5.26-1.16,7.9,0Z"/><path class="cls-275" d="M145,89.88l-16.09.31c-2.77,0-5.56-.2-8.32,0-3.92.31-5.94-1.11-5.63-5.22,2.77,1.06,5.11,3.52,8.48,2.64,1.84,0,3.67,0,5.5,0h5.51c9.54.17,11.21-2,8-11.51A53,53,0,0,0,136.65,64c-1-1.55-2-3.07-1.67-5,0-.31,0-.62,0-.94L137,57a3.5,3.5,0,0,1,4.19,1.9c2.85,5.92,8.59,10.64,7.22,18.36-.42,2.33,1.6,4.61,1.87,7.12.23,2.11.31,4-2.27,4.61C146.9,89,145.75,88.81,145,89.88Z"/><path class="cls-274" d="M148,89a3.37,3.37,0,0,0,1.11-3.45c-1.21-5.5-1.07-11.59-3.47-16.45C143.51,64.83,142,59.45,137,57c1.23-2.4,2.62-3.37,4.75-.78,4.35,5.26,8.23,10.64,9.41,17.69.5,3,1.26,5.94,1.89,8.9C154.05,87.67,152.23,89,148,89Z"/><path class="cls-316" d="M123,89c-3.57.47-6.73.1-8-4-2.87-3.7-2.38-6.78,1.7-9.19,3.54,1.22,3.94,4.67,5.32,6.81.21-3-4.9-4.89-3.13-9l2-2a40.46,40.46,0,0,1,8.46,15.65,1.2,1.2,0,0,1-.73,1.12C126.75,88.8,124.76,87.88,123,89Z"/><path class="cls-317" d="M135,89h-6c-.32-.22-.43-.43-.32-.65s.22-.33.32-.33h0c3.21-1.45,3.28-3.74,1.73-6.46-1.14-2-2.26-4-3.55-6a9.49,9.49,0,0,1-1.29-9,.53.53,0,0,1,.36-.56L128,66c1.67-.38,2.37.93,3.09,1.94a52.83,52.83,0,0,1,7.72,14.26C140.46,87.29,140.06,88,135,89Z"/><path class="cls-295" d="M125.86,66.61c-.23,4.92,2.53,8.69,4.89,12.61a28.29,28.29,0,0,1,2.08,3.92c1.54,3.8.31,5.53-3.86,4.84l-8.1-16.35Z"/><path class="cls-211" d="M100,102.94c0-.29,0-.58-.07-.87.49,0,1.36,0,1.43-.17A26.26,26.26,0,0,1,106,94c1.33-.41,2.69,1.78,4,0,1.49,2.35,1.76,4.67-.15,6.94.47-2.36-.7-3.12-2.85-2.93-2.07-1.59-1.66.61-2.29,1.42-1.1,1.41.23,4.25-2.69,4.54A2,2,0,0,1,100,102.94Z"/><path class="cls-295" d="M118.83,73.61c-.44,3.81,4.21,5.72,3.7,9.84-2.92-2-3.33-5.68-5.89-7.65Z"/><path class="cls-318" d="M135,89c3.9-.88,3.86-3.47,2.69-6.43A60.34,60.34,0,0,0,128,66L130,63,135,59c2.8,4.38,5.18,9,7.54,13.61,2,4,1.71,8.14,2.39,12.22.48,2.86-1,4.3-4,4.17C138.94,88.9,137,89,135,89Z"/><path class="cls-319" d="M67.25,114.13l-3,3a2.7,2.7,0,0,1-1.36.54c-4.68-.35-6.77-3.63-8.11-7.5S50.49,102,55,98h7c-1.05,1.69-3.22.36-4.35,1.56C61.27,104.16,59,112.67,67.25,114.13Z"/><path class="cls-320" d="M55,98c-2.76,8.17,1.58,17.09,9.28,19.1A4.14,4.14,0,0,1,61.11,120c-4.86,1.66-6.67.6-8.88-6a86.65,86.65,0,0,1-3-11.9C48.33,97.14,52.17,98.15,55,98Z"/><path class="cls-321" d="M77,91c2.5.71,1.44,4.27,4,5-1.47.8-3.34,3-3.16-1.14A15.16,15.16,0,0,0,77,91Z"/><path class="cls-321" d="M81,96c0-2.11.44-3.85,3-4Z"/><path class="cls-288" d="M100,102.94l2,1c0,1.46,0,2.93-2,3l-1-.07a1,1,0,0,1-.29-1.1c.49-.9.77-1.9,1.3-2.78Z"/><path class="cls-322" d="M99,106c0,.32,0,.64,0,1L97,107c-3.3-.65-6.85,1.17-10-1,2.54-5.26,7.31-2.21,11-3C98.74,103.88,99.74,104.64,99,106Z"/><path class="cls-323" d="M79,86c3.05-.34,6.89-1.9,6,3.87l-1,.05a7.11,7.11,0,0,0-1.41-1.22c.28.61,1,.76,1.36,1.26-4.58,1.91-5.65,1.19-5.81-3.89A8.47,8.47,0,0,1,79,86Z"/><path class="cls-324" d="M95,100a11.77,11.77,0,0,1-2,0c-2.56-.42-6,2.93-7.59-1.42-.6-1.64,5.24-7.82,7.09-8.68A7.64,7.64,0,0,1,100,90h0c0,.67,0,1.34,0,2-2.61,2.25-6.19,3-8.61,5.69C92.48,98.48,95.1,97.31,95,100Z"/><path class="cls-325" d="M95,100c-1.32-1.79-3.4-.54-5.41-1.42A13,13,0,0,1,100,92c3.93,1.93.56,4.72.32,6.73C100,101.31,96.84,99.49,95,100Z"/><path class="cls-326" d="M99,106c-.32-1-.65-2-1-3l2,0C100.58,104.32,101.57,105.74,99,106Z"/><path class="cls-295" d="M129,88c0,.33,0,.66,0,1l-6,0C124.73,87.17,127,88.31,129,88Z"/><path class="cls-327" d="M83.89,89.94c-.32,0-.64,0-1,0-1.44,0-3.13.15-3.43-1.78-.15-1,1-1.06,1.77-1.15,2.19-.25,2.91.88,2.68,2.89Z"/></g></g></svg>