<svg xmlns="http://www.w3.org/2000/svg" viewBox="0 0 186.98 186.96"><defs><style>.cls-1{fill:#fefefe;}.cls-2{fill:#fdfdfd;}.cls-3{fill:#583f1f;}.cls-4{fill:#57401f;}.cls-5{fill:#604722;}.cls-6{fill:#59401f;}.cls-7{fill:#493619;}.cls-8{fill:#664c25;}.cls-9{fill:#715328;}.cls-10{fill:#614723;}.cls-11{fill:#d4c590;}.cls-12{fill:#644a24;}.cls-13{fill:#5c4321;}.cls-14{fill:#6c5024;}.cls-15{fill:#674921;}.cls-16{fill:#523c21;}.cls-17{fill:#66502b;}.cls-18{fill:#725529;}.cls-19{fill:#6c5023;}.cls-20{fill:#362a1d;}.cls-21{fill:#cdbd89;}.cls-22{fill:#b49964;}.cls-23{fill:#72532f;}.cls-24{fill:#8c6a3c;}.cls-25{fill:#7a5a33;}.cls-26{fill:#a1804b;}.cls-27{fill:#715d2c;}.cls-28{fill:#3d2c17;}.cls-29{fill:#89673a;}.cls-30{fill:#765731;}.cls-31{fill:#755531;}.cls-32{fill:#655823;}.cls-33{fill:#7f5d35;}.cls-34{fill:#4d3f26;}.cls-35{fill:#31261b;}.cls-36{fill:#b9a06b;}.cls-37{fill:#7e5d34;}.cls-38{fill:#8e6d3e;}.cls-39{fill:#7c5e34;}.cls-40{fill:#a58751;}.cls-41{fill:#8f6d3e;}.cls-42{fill:#31261c;}.cls-43{fill:#9d7f4b;}.cls-44{fill:#c9b881;}.cls-45{fill:#8b693c;}.cls-46{fill:#cabd87;}.cls-47{fill:#89693a;}.cls-48{fill:#9b7946;}.cls-49{fill:#846337;}.cls-50{fill:#8a693b;}.cls-51{fill:#957342;}.cls-52{fill:#7b5c34;}.cls-53{fill:#634829;}.cls-54{fill:#695528;}.cls-55{fill:#755730;}.cls-56{fill:#4f3c1c;}.cls-57{fill:#85673b;}.cls-58{fill:#292015;}.cls-59{fill:#2f2211;}.cls-60{fill:#6a5a2e;}.cls-61{fill:#726329;}.cls-62{fill:#322714;}.cls-63{fill:#a59a5e;}.cls-64{fill:#998d55;}.cls-65{fill:#9a7d4b;}.cls-66{fill:#cebe8a;}.cls-67{fill:#b29964;}.cls-68{fill:#83643a;}.cls-69{fill:#826739;}.cls-70{fill:#43331e;}.cls-71{fill:#ccb985;}.cls-72{fill:#948556;}.cls-73{fill:#9f7f4c;}.cls-74{fill:#cab983;}.cls-75{fill:#c7b480;}.cls-76{fill:#b69c67;}.cls-77{fill:#8e7143;}.cls-78{fill:#b39762;}.cls-79{fill:#b5a970;}.cls-80{fill:#d8cea0;}.cls-81{fill:#978d54;}.cls-82{fill:#372b1d;}.cls-83{fill:#876a3f;}.cls-84{fill:#544324;}.cls-85{fill:#cab783;}.cls-86{fill:#624829;}.cls-87{fill:#453a2c;}.cls-88{fill:#624728;}.cls-89{fill:#c6b982;}.cls-90{fill:#dace93;}.cls-91{fill:#584a2c;}.cls-92{fill:#805f35;}.cls-93{fill:#9b8b53;}.cls-94{fill:#8f844c;}.cls-95{fill:#4d4132;}.cls-96{fill:#88683c;}.cls-97{fill:#a29158;}.cls-98{fill:#ad9f67;}.cls-99{fill:#2e2317;}.cls-100{fill:#564024;}.cls-101{fill:#362915;}.cls-102{fill:#a39f92;}.cls-103{fill:#544736;}.cls-104{fill:#cebd8a;}.cls-105{fill:#a48853;}.cls-106{fill:#cdbb89;}.cls-107{fill:#8a6a3d;}.cls-108{fill:#a1965f;}.cls-109{fill:#ad9f69;}.cls-110{fill:#b1ada1;}.cls-111{fill:#64583e;}.cls-112{fill:#ae915b;}.cls-113{fill:#71512f;}.cls-114{fill:#4b3e30;}.cls-115{fill:#a6a196;}.cls-116{fill:#69512e;}.cls-117{fill:#a78652;}.cls-118{fill:#b1a36e;}.cls-119{fill:#493d2e;}.cls-120{fill:#b79b66;}.cls-121{fill:#463928;}.cls-122{fill:#523d22;}.cls-123{fill:#a29d91;}.cls-124{fill:#4f3b20;}.cls-125{fill:#948753;}.cls-126{fill:#675a24;}.cls-127{fill:#998d58;}.cls-128{fill:#766836;}.cls-129{fill:#7f753b;}.cls-130{fill:#46351f;}.cls-131{fill:#bfbcb1;}.cls-132{fill:#edeae0;}.cls-133{fill:#5b4a35;}.cls-134{fill:#4c3d2a;}.cls-135{fill:#e0ddd2;}.cls-136{fill:#cecbc0;}.cls-137{fill:#d7d4ca;}.cls-138{fill:#c9c6bb;}.cls-139{fill:#4c3c27;}.cls-140{fill:#1e160f;}.cls-141{fill:#302518;}.cls-142{fill:#7c5f38;}.cls-143{fill:#afaba0;}.cls-144{fill:#4f4434;}.cls-145{fill:#8c6a3d;}.cls-146{fill:#7c5b34;}.cls-147{fill:#c2b581;}.cls-148{fill:#aca89c;}.cls-149{fill:#51422e;}.cls-150{fill:#83663c;}.cls-151{fill:#4f4335;}.cls-152{fill:#785e3d;}.cls-153{fill:#61512d;}.cls-154{fill:#31271b;}.cls-155{fill:#72542e;}.cls-156{fill:#43361e;}.cls-157{fill:#50473b;}.cls-158{fill:#887640;}.cls-159{fill:#b69a65;}.cls-160{fill:#c6b07c;}.cls-161{fill:#bfa770;}.cls-162{fill:#cfbe8b;}.cls-163{fill:#9e7c49;}.cls-164{fill:#6c5431;}.cls-165{fill:#89673b;}.cls-166{fill:#cfc187;}.cls-167{fill:#2f2516;}.cls-168{fill:#635621;}.cls-169{fill:#b0aca1;}.cls-170{fill:#705434;}.cls-171{fill:#4f4233;}.cls-172{fill:#3e372f;}.cls-173{fill:#291f13;}.cls-174{fill:#2a231e;}.cls-175{fill:#322617;}.cls-176{fill:#b2afa3;}.cls-177{fill:#afab9e;}.cls-178{fill:#31281e;}.cls-179{fill:#cabf8a;}.cls-180{fill:#473b2b;}.cls-181{fill:#7f5f37;}.cls-182{fill:#b3afa4;}.cls-183{fill:#c2bfb4;}.cls-184{fill:#91764e;}.cls-185{fill:#6e5535;}.cls-186{fill:#483925;}.cls-187{fill:#b6a572;}.cls-188{fill:#c3ad79;}.cls-189{fill:#30281f;}.cls-190{fill:#b0945e;}.cls-191{fill:#4b4030;}.cls-192{fill:#afab9f;}.cls-193{fill:#56442f;}.cls-194{fill:#b8b5a9;}.cls-195{fill:#664e32;}.cls-196{fill:#46361d;}.cls-197{fill:#b5b2a7;}.cls-198{fill:#6a5439;}.cls-199{fill:#5d4a32;}.cls-200{fill:#524430;}.cls-201{fill:#2a2013;}.cls-202{fill:#f3f0e7;}.cls-203{fill:#f5f2e9;}.cls-204{fill:#cdcac0;}.cls-205{fill:#735a3c;}.cls-206{fill:#614628;}.cls-207{fill:#7a5e36;}.cls-208{fill:#533f25;}.cls-209{fill:#675e51;}.cls-210{fill:#ada699;}.cls-211{fill:#1e160d;}.cls-212{fill:#1d160f;}.cls-213{fill:#2b2219;}.cls-214{fill:#e6e2d7;}.cls-215{fill:#674b2a;}.cls-216{fill:#624d32;}.cls-217{fill:#644929;}.cls-218{fill:#cac6bc;}.cls-219{fill:#685236;}.cls-220{fill:#e6e3d8;}.cls-221{fill:#7c7467;}.cls-222{fill:#f1ede4;}.cls-223{fill:#2e2419;}.cls-224{fill:#664a2a;}.cls-225{fill:#5e4e38;}.cls-226{fill:#271e13;}.cls-227{fill:#453520;}.cls-228{fill:#e1ded3;}.cls-229{fill:#f2efe6;}.cls-230{fill:#eeebe1;}.cls-231{fill:#e7e4d9;}.cls-232{fill:#c2bfb5;}.cls-233{fill:#d6d3c9;}.cls-234{fill:#382b1a;}.cls-235{fill:#c1beb3;}.cls-236{fill:#b3b0a5;}.cls-237{fill:#bcb9ae;}.cls-238{fill:#cbc8bd;}.cls-239{fill:#ccc9be;}.cls-240{fill:#674e30;}.cls-241{fill:#cac7bd;}.cls-242{fill:#dedbd0;}.cls-243{fill:#2e2418;}.cls-244{fill:#695339;}.cls-245{fill:#e4e1d6;}.cls-246{fill:#362d21;}.cls-247{fill:#4b3921;}.cls-248{fill:#947850;}.cls-249{fill:#a58c5c;}.cls-250{fill:#7e5f36;}.cls-251{fill:#41301c;}.cls-252{fill:#93774c;}.cls-253{fill:#d9d6cc;}.cls-254{fill:#d3d0c6;}.cls-255{fill:#8c806e;}.cls-256{fill:#c4beb2;}.cls-257{fill:#e7e4da;}.cls-258{fill:#edeae1;}.cls-259{fill:#cdcabf;}.cls-260{fill:#7e6340;}.cls-261{fill:#c8c4ba;}.cls-262{fill:#c3c0b6;}.cls-263{fill:#eeebe2;}.cls-264{fill:#715737;}.cls-265{fill:#ebe8df;}.cls-266{fill:#b4ab98;}.cls-267{fill:#4d3a20;}.cls-268{fill:#342818;}.cls-269{fill:#6d522f;}.cls-270{fill:#866a40;}.cls-271{fill:#88765b;}.cls-272{fill:#f6f3ea;}.cls-273{fill:#44331c;}.cls-274{fill:#dedbd1;}.cls-275{fill:#d5d2c8;}.cls-276{fill:#5d482f;}.cls-277{fill:#5f4b31;}.cls-278{fill:#523e25;}.cls-279{fill:#47351e;}.cls-280{fill:#171009;}.cls-281{fill:#898275;}.cls-282{fill:#d6d3c8;}.cls-283{fill:#e2dfd4;}.cls-284{fill:#e9e6db;}.cls-285{fill:#755c3e;}.cls-286{fill:#f1eee5;}.cls-287{fill:#d4d1c7;}.cls-288{fill:#e5e2d7;}.cls-289{fill:#efece3;}.cls-290{fill:#9e9889;}.cls-291{fill:#f4f1e8;}</style></defs><g id="Layer_2" data-name="Layer 2"><g id="Layer_9_Image" data-name="Layer 9 Image"><path class="cls-1" d="M170,0a205.14,205.14,0,0,1-19,19c-4.35.86-6.51-3.69-10.32-4.17a4.57,4.57,0,0,1-1.14-.69c-1.51-2.07-3.91-2.51-6.12-3.3a6.65,6.65,0,0,1-1.17-.64,8.91,8.91,0,0,0-7.29-2.51,3.93,3.93,0,0,1-1.28-.46c-2.65-2.78-6-2.32-9.36-2.07a10.6,10.6,0,0,1-1.38,0,8.3,8.3,0,0,1-2-.46c-1.65-.81-3.42-1.36-5.06-2.21-.72-.66-1.38-1.35-.85-2.45Z"/><path class="cls-2" d="M105,0l1,1.9c-1.67,1.91-4,1.25-6.07,1.51-2.55.4-5.11-.28-7.66,0-1.54.07-3,.65-4.6.35C85.47,3,82.8,4,81,1.89c.33-.63.66-1.26,1-1.89Z"/><path class="cls-3" d="M165,34.84c1.18.72.62,2.61,2.11,3.13,3.1,2.27,4.55,5.61,5.85,9.05h0c2.2,1.75,3.12,4.28,4.05,6.8,1.68,1.75.16,4.95,2.84,6.25,1.51,1.07.45,2.78,1,4.09a8.74,8.74,0,0,0,2,5.9c1.44,1.53.65,3.23.38,4.9,0,.34,0,.69-.08,1a2.72,2.72,0,0,1,1.33,2.54c-.45,1.93.15,4.18-1.74,5.67-1.64-.35-1.84-1.73-2-3a119.14,119.14,0,0,0-5.43-21.37,24,24,0,0,0-3-6.45,65.39,65.39,0,0,0-7.11-11.46,35.18,35.18,0,0,1-3.27-4.41c-.56-1.56-2.79-3.44.79-4.22A3.07,3.07,0,0,1,165,34.84Z"/><path class="cls-4" d="M37,166.15,35.08,165c-1.3-.83-2.81-1.48-2.87-3.36.27-2.61,1.78-3.64,4.3-3.41a4.72,4.72,0,0,1,2.56,1.47c.39,5.88,5.78,6.89,9.41,9.62,4.68,2.85,9.84,4.68,14.82,6.89,2.79,1.55,6,1.94,8.94,2.94,1.64.92,4.3,0,4.94,2.77-.83,1.26-2.26,1.15-3.48,1.51A44.24,44.24,0,0,1,57,178.08a.75.75,0,0,0-.76-.23C51,175.11,45.13,173.62,41,169l-.09-.05A6,6,0,0,1,37,166.15Z"/><path class="cls-5" d="M146.83,168.62l-.85.52a10.88,10.88,0,0,1-6,3.81l-1.14.74c-.91,1.56-2.65,1.57-4.08,2.17L131,178.12c-1.84,1.31-4,1.45-6.14,1.76L122,181.11c-2,2-4.67,1.3-7,1.76h0c-.55.7-1.27.58-2,.43-1.1-.45-2.55-.21-3.18-1.6,1.22-3.31,4.47-2.6,6.9-3.5,1.37-.35,2.78-.53,4.13-1a16.67,16.67,0,0,0,3.83-1.19,57.48,57.48,0,0,1,6.8-2.68,17,17,0,0,0,2.28-1.19c1.26-.85,2.73-1.3,4-2.1,3.15-2,6.25-4,9.24-6.27a11.71,11.71,0,0,0,2.12-2.27,3.51,3.51,0,0,1,.93-.83,2.67,2.67,0,0,1,2.31.81,3.29,3.29,0,0,1,1,1.59c0,1.05-.73,1.42-1.51,1.78L150,166.15A3.67,3.67,0,0,1,146.83,168.62Z"/><path class="cls-6" d="M124,6.86,125,7c2.87.45,5.74.87,7.9,3.11h0c2.47,1.06,5.37,1.33,7.07,3.82l.14.05c3.79,1.55,7.38,3.39,9.92,6.76l2.83,2.31c.95.44,1.71,1,1.1,2.18a3.18,3.18,0,0,1-2.74.44c-2.48-.76-4.21-2.71-6.36-4-1.09-.78-2.19-1.53-3.34-2.22-2.55-1.92-5.56-3.06-8.22-4.78-3.89-1.59-7.72-3.3-11.67-4.7-3.49-1.74-7.92-1.09-10.81-4.3,0-1.53,1.46-1,2.13-1.53L114,4C117.32,5,121.12,4.28,124,6.86Z"/><path class="cls-6" d="M182.85,116.92c-2.88,4.22-2.24,9.73-5.13,14a32.67,32.67,0,0,1-7.81,14l0,0c-.51,1.67-1.08,3.29-2.88,4l0,.09c-.83,1.15-.66,3.13-2.7,3.29a2.31,2.31,0,0,1-1.56-1.14,2.36,2.36,0,0,1-.1-1.29,27.81,27.81,0,0,1,1.93-3.34c1-1.37,1.94-2.81,2.86-4.25a37.79,37.79,0,0,0,4-6.92c2.67-4.8,4.38-10,6.38-15.07,1.38-3.72,1.25-7.85,3.08-11.44a3.19,3.19,0,0,1,1.33-.62,3.26,3.26,0,0,1,1.42.22c1.13.73.51,1.65.28,2.53a1.92,1.92,0,0,1,.08.92C182.78,113.41,184.67,115.58,182.85,116.92Z"/><path class="cls-7" d="M162.94,150.93,164,152c-1.33,2.88-2.19,6.08-5.22,7.83l-1.74.19-.55-.27c-1.81-.41-2.71,1.05-3.9,1.91L152,162l-2.07-.95c-1,.76-1.74.36-2.43-.44-.72-1.42-1.13-3-2-4.36a5.09,5.09,0,0,1-.28-1.33c.41-1.69-.58-3.63.87-5.14a2.86,2.86,0,0,1,3,2.12c1.42,3.95,4,4.23,7.3,2.53,1.73-.33,2.14-1.79,2.75-3.13C160.16,149,161.53,149.62,162.94,150.93Z"/><path class="cls-2" d="M106,185a4.83,4.83,0,0,1-3.84,2q-8.64.12-17.3,0A4.9,4.9,0,0,1,81,185c1.58-1.66,3.66-1.24,5.61-1.35,3.47-.22,6.85,1.77,10.37.41a14.29,14.29,0,0,1,3.32-.4C102.27,183.73,104.37,183.29,106,185Z"/><path class="cls-2" d="M57,178.08c5.82,1.14,11,4.51,17.1,4.73a5,5,0,0,1,4.82.69,1.31,1.31,0,0,1,.34.87c0,.32,0,.48-.1.48-7.1-.21-13.79-2.27-20.42-4.57A2.39,2.39,0,0,1,57,178.08Z"/><path class="cls-2" d="M153.94,24.87l-1.1-1.8c3.9.14,6.39,3.16,8.92,5.31,1.43,1.23,3.5,3.65,3.24,6.46l-1.8-.94c-.58-.26-1.18-.47-1.75-.77a8,8,0,0,1-2.31-2.25C158.29,28.11,154,28.3,153.94,24.87Z"/><path class="cls-2" d="M169.91,144.9l7.81-14c.14.09.39.17.4.27C178.47,134.8,173.41,143.26,169.91,144.9Z"/><path class="cls-2" d="M41,169l15.2,8.85C50.54,176,44.22,175.18,41,169Z"/><path class="cls-2" d="M185.08,82.93c1.68,6.72,3.24,13.45,0,20.18l-.62-.5c-1.65-2.83,0-5.64.06-8.47,0-2.06-.76-4-.85-6.06a8.58,8.58,0,0,1,.75-4.63Z"/><path class="cls-2" d="M158.78,159.86,164,152l3-3C165.6,153.68,163.63,157.86,158.78,159.86Z"/><path class="cls-2" d="M27,159c-3.4-1.6-4.24-5.15-6.05-7.95l.16-.16c2.44-.29,3.79,1.8,5.73,2.62a4.05,4.05,0,0,1,.72,4.95Z"/><path class="cls-2" d="M150,20.76,140.09,14c4.65-.54,6.9,4.11,10.89,5Z"/><path class="cls-2" d="M33,162c.27,1.3,2.27,1.38,2.1,3A10.67,10.67,0,0,1,27,159l.26-.26a2.15,2.15,0,0,1,1.92-.29A6.56,6.56,0,0,1,33,162Z"/><path class="cls-2" d="M173,47,167.11,38C171.21,39.6,172.9,42.78,173,47Z"/><path class="cls-2" d="M183.87,111c-1.67-.64.53-1.37-.05-2-1.18-2.29-2.16-4.55,1.12-6l.19.15C184.93,105.78,188.26,109,183.87,111Z"/><path class="cls-2" d="M183.81,78.06,183.15,76c5.06,1.08,2.48,4.29,1.93,6.94l-.35.28a.92.92,0,0,1-1.18-.63C183.55,81.07,183.22,79.54,183.81,78.06Z"/><path class="cls-8" d="M106,185l-6.07-.14c-.13-1.41,1-1.84,1.89-2.46a5,5,0,0,1,3.12-.71,13.39,13.39,0,0,0,3.36,1.52,2.41,2.41,0,0,1,1,.76Z"/><path class="cls-2" d="M177,53.81c-2.25-1.73-2.58-4.61-4.05-6.8C175.73,48.42,177.74,50.3,177,53.81Z"/><path class="cls-2" d="M140,173l6-3.81C145.06,172.1,143.48,174,140,173Z"/><path class="cls-2" d="M114.91,182.87c2.12-1.53,4.82-.69,7-1.76C120.31,184.5,117.67,183.94,114.91,182.87Z"/><path class="cls-2" d="M124.84,179.88c1.92-1,3.84-2.06,6.14-1.76C129.61,181,127.4,181.09,124.84,179.88Z"/><path class="cls-9" d="M79.15,184.85c-.12-.27-.26-.55-.41-.82,2.4-2.07,5-1.57,7.71-.71a1.09,1.09,0,0,1,.52,1.51L81,185Z"/><path class="cls-2" d="M146.83,168.62a6.56,6.56,0,0,1,3.17-2.47C150.73,169.27,149.16,169.43,146.83,168.62Z"/><path class="cls-2" d="M37,166.15a8.08,8.08,0,0,1,4,2.8C38.49,169.62,36.84,169.15,37,166.15Z"/><path class="cls-2" d="M183.23,75c-.13-1.64-.25-3.27-.38-4.91C186.11,71.44,184.42,73.21,183.23,75Z"/><path class="cls-2" d="M151.81,164.88c.41-.63.83-1.26,1.24-1.9.36-.89.86-1.49,1.92-.9C156.29,165.7,153.56,164.74,151.81,164.88Z"/><path class="cls-7" d="M155,162.08l-1.92.9L152,162l.07-.1c1.18-1.62,2.55-2.81,4.76-2.11l.23.29Z"/><path class="cls-2" d="M167,149c1-1.34,1.92-2.69,2.89-4C170.05,147.07,170.27,149.25,167,149Z"/><path class="cls-2" d="M182.85,116.92c.52-1.63-.64-3.63,1.1-5C184,113.68,186.08,115.89,182.85,116.92Z"/><path class="cls-2" d="M112.9,182.85h2c-1.59,2-3.77.79-5.68,1.06l-.27-.16-.27.15C109.58,181.48,111.35,182.6,112.9,182.85Z"/><path class="cls-2" d="M180.87,64.15c-1.32-1.12-.73-2.72-1-4.09C182.34,60.88,181.85,62.45,180.87,64.15Z"/><path class="cls-2" d="M134.77,175.86a8.9,8.9,0,0,1,4.08-2.17C138.32,176,136.61,176,134.77,175.86Z"/><path class="cls-10" d="M68,4.85l2,.3c1.24,1.78-.4,2.59-1.24,3.67a10.51,10.51,0,0,1-3.83,2c-6.11,1.44-11.05,5.28-16.51,8.06-2.58,1.81-5.16,3.59-7.73,5.4-2.24,1.58-4.66,2.58-7.42,1.18C31.89,23.32,34,22.94,35,22l3-2.18c.64-1.11,1.85-1.35,2.87-1.86L41,17.9c3.71-3.72,8.42-5.75,13.17-7.69v0C55.32,8.47,57.27,8.5,59,8.08l0,0c.69-1.19,2-.42,2.94-1l0,0A9,9,0,0,1,68,4.85Z"/><path class="cls-11" d="M26.11,30.17l1-1.06c1.05-3,3.33-3.86,6.26-3.62,3.45.3,7.91-1.65,9,4a2.54,2.54,0,0,1-1.92,3c-2,.16-3.09-1.28-4.23-2.59-3.25-2.16-4.06-1.79-5.1,2.29.08,1.09.1,2.18.2,3.25.05,1.5,1.06,2.2,2.27,2.75a3.76,3.76,0,0,1,1,.87c2,3.5-.74,3.8-3,4.43a8.24,8.24,0,0,1-1.31.17c-2-.14-2.84,1.84-4.49,2.33-4.87,0-5.12-.52-3.05-6.85.44-1.81,1.67-3.48.95-5.49C24.47,32.49,25.4,31.41,26.11,30.17Z"/><path class="cls-12" d="M25.92,153.89c-2.35.2-2.89-2.55-4.85-3L19.85,149a14.79,14.79,0,0,1-3.89-5.8l-.91-1.2a28.27,28.27,0,0,1-3.84-7.19h0C8.79,133.17,9.37,130.14,8,128c-.33-.69-.65-1.38-1-2.06-1.18-1.11-.41-2.48-.51-3.73a1.65,1.65,0,0,1,1.3-1.68c1.93.11,2.24,1.78,3,3.06a148.43,148.43,0,0,0,7.84,15.84,26.64,26.64,0,0,0,3.41,5.2C23.93,147.49,28.21,149.31,25.92,153.89Z"/><path class="cls-13" d="M23.87,33.85c4.44,1.62-.72,3.23,0,4.85a29.08,29.08,0,0,1-2.44,4.53c-.91,1.45-2.18,2.65-2.87,4.24-1.17,2.36-3.31,4.16-3.88,6.86-.85,2.13-1.23,4.42-2.17,6.52-1,1.2-1.44,2.88-3.14,3.39-.64-1.56-2.1.77-2.8-.58-.2-.94-.42-1.87.62-2.49v0c1.3-3,1.49-6.52,3.77-9.15l5-8.23A15.2,15.2,0,0,1,19.85,38L21,36.78C21.64,35.52,21.72,33.65,23.87,33.85Z"/><path class="cls-2" d="M3,111c-.4-.29-1.14-.55-1.16-.86-.48-8.38-3.94-16.77,0-25.13,1.21.9,1.28,2.23,1.34,3.56-.2,2.25-.59,4.51,0,6.77.1,1.07.14,2.15.15,3.22C3.06,102.69,6.06,106.92,3,111Z"/><path class="cls-14" d="M3,111c.7-4.36-1.22-8.54-.86-12.87,1.23-.46,2.06.19,2.84,1,1.76,2.41,1.16,5.24,1.4,7.92a19.26,19.26,0,0,1,0,2.52c-.36,2.8.83,5.86-1.41,8.33C3.37,115.86,3.18,113.42,3,111Z"/><path class="cls-15" d="M2.22,88.66C2.11,87.43,2,86.21,1.9,85a.62.62,0,0,0,.23-.74c.45-2.72-1.07-5.66.94-8.2v0c1.07-1.54-.18-3.49.89-5a.69.69,0,0,0,.15-.77.74.74,0,0,1,1.28,0c1.3,2.12.73,4.57,1.25,6.83-.39,3-.07,6.12-1.34,9C4.49,87.13,4.32,89,2.22,88.66Z"/><path class="cls-16" d="M5.93,77c-1.88-2.15-.47-4.73-.95-7.07-.38-1.44.36-2.63.84-3.88L6,65c.36-.32.44-1,1.07-1,.64.42,1.36-3.38,1.94,0C9.32,68.67,8.86,73.11,5.93,77Z"/><path class="cls-17" d="M5,117.89q0-4.52.07-9c3.83,3.31,4.46,7.44,3.1,12.07l-1.29,1.25a.49.49,0,0,1-.8-.27A4.84,4.84,0,0,1,5,117.89Z"/><path class="cls-2" d="M54.16,10.21,41,17.9C44,12.88,48.79,11.09,54.16,10.21Z"/><path class="cls-18" d="M68,8.13c.41-1.14,2.07-1.47,1.93-3l2-.3a5.24,5.24,0,0,1,1.55-.73c2.56-.29,5.18-1.13,7.53.75C77.64,9.6,72.85,8.94,68,8.13Z"/><path class="cls-2" d="M32.79,25.92c-2.32.33-3.85,2.07-5.72,3.19,0-3.14,3.24-6,7.91-7.11.2,1.5-1.67,1.6-1.89,2.81Q33.86,25.61,32.79,25.92Z"/><path class="cls-18" d="M81,1.89c2.32.75,5-1,7.13,1-.52,3.22-3,2.75-5.25,2.85-.65-1.85-2.61-1.65-3.93-2.49A.88.88,0,0,1,79,2.05Z"/><path class="cls-2" d="M11,52a19.43,19.43,0,0,1-3.77,9.15C8,57.9,6.77,53.83,11,52Z"/><path class="cls-2" d="M23.87,33.85,21,36.78c.25-2.58,3.38-6.62,5.14-6.62C26.55,32.11,24.89,32.79,23.87,33.85Z"/><path class="cls-2" d="M3.07,76.05c-.48,2.71.74,5.62-.94,8.2C1.07,81.36-.58,78.4,3.07,76.05Z"/><path class="cls-2" d="M11.21,134.78A17.2,17.2,0,0,1,15.05,142,7.28,7.28,0,0,1,11.21,134.78Z"/><path class="cls-2" d="M19.85,38A12.2,12.2,0,0,1,16,43.76C15.58,40.71,17,38.88,19.85,38Z"/><path class="cls-2" d="M8,128c2.26,1.67,2.24,4.44,3.22,6.73C7.55,133.77,8.26,130.67,8,128Z"/><path class="cls-2" d="M16,143.17c2,1.45,3,3.58,3.89,5.8C17,148.09,15.59,146.23,16,143.17Z"/><path class="cls-2" d="M79,2.05a4.17,4.17,0,0,0-.36.84c-1.27,2.47-4,.91-5.73,2.08l-.49,0L72,4.85C73.43,1.65,76.36,2.17,79,2.05Z"/><path class="cls-2" d="M68,4.85,62.05,7.06C63.53,5,65.08,3.15,68,4.85Z"/><path class="cls-2" d="M59,8.08l-4.86,2.15C55,7.84,56.59,7,59,8.08Z"/><path class="cls-2" d="M7.08,64,6,65c.63-1.19-2.7-3.61,1.17-3.81C7.15,62.12,7.11,63.06,7.08,64Z"/><path class="cls-2" d="M5.82,66c.53,1.47-.55,2.59-.84,3.88a4.62,4.62,0,0,1-.87.34C3.86,68.48,4.07,66.93,5.82,66Z"/><path class="cls-2" d="M6.06,121.91c.27.1.53.19.8.27,0,1.27.11,2.53.17,3.8C3.49,125.38,6.51,123.24,6.06,121.91Z"/><path class="cls-2" d="M62,7.08c-.74,1-1.89.86-2.94,1C59.23,5.27,60.72,6.49,62,7.08Z"/><path class="cls-2" d="M40.86,18c-.8.86-1.45,1.95-2.87,1.86C38.2,18,38.81,16.88,40.86,18Z"/><path class="cls-2" d="M4,71a7.48,7.48,0,0,1-.89,5C3.2,74.32,2.35,72.44,4,71Z"/><path class="cls-19" d="M99.2,2.27,106,1.9A9.38,9.38,0,0,1,111,4a2.63,2.63,0,0,1-3.61.33c-2.33-1.95-1.22,1.39-2.24,1.31C102.46,5.75,99.26,6.76,99.2,2.27Z"/><path class="cls-2" d="M124,6.86,114,4c2.58.1,5.12-.84,7.76.16A2.88,2.88,0,0,1,124,6.86Z"/><path class="cls-2" d="M132.87,10.14,125,7C128.52,5.74,131.16,6.76,132.87,10.14Z"/><path class="cls-20" d="M106,5c.22-.59-2.74-1.73.24-1.77A26.11,26.11,0,0,1,111,4l1.94.16-2,.94a3.71,3.71,0,0,1-4.37.45Z"/><path class="cls-2" d="M140,14l-7.07-3.82C135.68,10.57,139.09,9.91,140,14Z"/><path class="cls-21" d="M82,5a7.81,7.81,0,0,0,6.16-2.09L92,2.05c.44,3.17-4.28,3.57-3.66,6.83a19.31,19.31,0,0,0,.15,2.95c.24,1.44.89,3.24-.68,4s-2.21-1-2.92-2c-1.24-1.75-2.84-1.39-4.41-.88a23.7,23.7,0,0,1-7.68,1.45c-2.46-.25-4.79,1.11-7.26.62-1.7-.33-3.2-1.1-3.56-2.89-.48-2.45,2.4-.92,2.94-2.27L68,8.13c4.3-1.25,9-1,13.08-3.05A.49.49,0,0,1,82,5Z"/><path class="cls-22" d="M87,8c0-3.42,3.85-3.54,5-6,2.43-.9,4.78.83,7.2.22,1.24,3.46,4.37,2.2,6.79,2.72l-.08.11a1,1,0,0,1-.12,1.18,8,8,0,0,1-3.4,1.94c-2.87-1.13-5.26-3.94-8.85-2.53a33.29,33.29,0,0,0-4,2.13C88.72,8.16,87.91,8.57,87,8Z"/><path class="cls-23" d="M184,82.89a2.8,2.8,0,0,0,.73.32c.11,1.57.93,3.11.16,4.71-.9.61-1.63,0-2.39-.34-.57-.29-1.15-.58-1.76-.82-2.18-.8-4.43-.53-6.68-.42a2.69,2.69,0,0,1-2.68-1c-.5-6-2.55-11.71-3.59-17.6.26-2,1-4,3.36-3.18,4.13,1.46,2.89-1.62,3.27-3.42A2.3,2.3,0,0,1,176,59c3.46,7.05,4.87,14.66,6,22.34.15,1,.07,2,1,2.67C183.62,83.91,183.52,83.13,184,82.89Z"/><path class="cls-24" d="M165.85,41.13A34.79,34.79,0,0,1,173.05,53c-2,2.16-2.91,2.29-4.49,0a16,16,0,0,0-4.25-4.72,10.09,10.09,0,0,1-1-1c-1.16-2.54-5.84-2.19-5.16-6.26a3,3,0,0,1,.66-1.19,2.07,2.07,0,0,1,1.32-.12A12.08,12.08,0,0,0,165.85,41.13Z"/><path class="cls-25" d="M164,47c2.41,1.08,4.52,2.28,5.34,5.22.49,1.78,2.11,2.47,3.75.72,1.38,1.81,3.14,3.45,2.93,6-.34.67-.67,1.34-1,2,.45,1.47-.58,1.4-1.5,1.44-1.14-1-1.64-2.51-2.89-3.41-1.93-3-4.38-5.73-6.1-8.93C164,49.08,163,48.23,164,47Z"/><path class="cls-26" d="M165.85,41.13c-2.19.84-4.51,2.38-5.86-1.12-.21-2.16-.17-4.08,2.93-2.93Z"/><path class="cls-27" d="M162.92,37.08c-2-.06-2.13,1.78-2.93,2.93l-1,0a1.81,1.81,0,0,1-1.43-1.37,6.84,6.84,0,0,1,.59-2.78c.9-1.5.93-4.15,3.88-3l1.13,1C159.55,34.64,163.38,36.05,162.92,37.08Z"/><path class="cls-28" d="M184,82.89c-.51.21.47,1.82-1,1.1.32-2-.73-4.14.84-5.93C183.87,79.67,183.94,81.28,184,82.89Z"/><path class="cls-29" d="M48,170c-3.74-1-6.15-4-9.29-6-2.4-1.48-1.18-2.83.46-4,1.77-1.77,2.67-4.66,5.89-4.58a142.87,142.87,0,0,0,27,13.71c1.35,1,3,1.53,4.29,2.7a2.88,2.88,0,0,1,.11,2.84,2,2,0,0,1-1.21.73c-4.41.14-7.92-2.74-12.05-3.6-3.07-2.44-7.63-.81-10.56-3.88-.44-.46-.13.68-.37,1.05C51.11,170.76,49.66,170.86,48,170Z"/><path class="cls-30" d="M48,170a5.43,5.43,0,0,0,1.92-.2c3.74-1.94,9.94-1.47,14.1,1.17,1.32,2.3,1.75,4.45-1,6C57.67,175.3,52.44,173.45,48,170Z"/><path class="cls-31" d="M75,175h1c2.75-.65,5.38.47,8.09.57,2.25,1.87,3,4.38,3.18,7.19a1.29,1.29,0,0,1-1.25.7c-3-.44-6.2.26-9-1.57-1.3-1.75-3.84-.06-5.13-1.84C72.51,178.08,70.07,174.29,75,175Z"/><path class="cls-32" d="M33,162l-4-3c-4.3-8.14-1.49-14.66,6.3-14.65,2,2.4-1,2.68-1.65,3.94-2.49,1.9-3.68,4-.87,6.58,2.05,1.19,3.38.08,4.59-1.43,1.09-1.36,1.86-3.22,4.17-2.74,1.62,4.51.28,6.93-4.57,8.32C34.84,158.88,33.14,159.41,33,162Z"/><path class="cls-33" d="M75,175c-2.39.34-2.67,2.08-2,3.79.54,1.49-.46,1.05-1,1.27-3.09-.72-6.42-.68-9-3,1.22-1.86,1.06-4,1-6Z"/><path class="cls-34" d="M37,159c2.78-2,5.41-4,3.95-8.08-.29-3,.9-4.82,4-5.12a2.43,2.43,0,0,1,.67,2c-.81,2.55.19,4.92.71,7.34-.2.73-.49,1.33-1.42.93-2.52.51-2.71,4.35-5.79,4C38.29,160,37.44,159.86,37,159Z"/><path class="cls-35" d="M77.05,181.87l9.7,1.31.43.24-.3.39-8.14.22-4.65-1.22C74.83,181.72,76,182,77.05,181.87Z"/><path class="cls-36" d="M148.23,164.18c-3,2.82-6.72,4.68-10.25,6.76-1.8-1.34-3.9-2.41-4.56-4.84a2.33,2.33,0,0,1,.45-1.27c4.8.35,1.65-2.64,1.78-4.25a3.24,3.24,0,0,1,3.84-2.13c.4,0,.61.65,1.12.31a2.74,2.74,0,0,1-.9-1.09,1.88,1.88,0,0,1,1.2-1.44c2.71-.45,5.14-.47,4.33,3.43-.36,1.7.75,1.86,1.88,2.13A3.51,3.51,0,0,1,148.23,164.18Z"/><path class="cls-37" d="M105.1,182.07l-3.3,1a.79.79,0,0,1-1.11-.37c-.25-1.95,1.45-3.91,0-5.87a1.76,1.76,0,0,1,1.1-1.57c2.47-1.15,5.28,1.2,7.68-.75a6.41,6.41,0,0,1,1.35-.49,6.08,6.08,0,0,1,4.34.62c1.22,1.2,3.14,2.12,1.84,4.38-2,1.78-5.33.32-7.08,2.8A3.67,3.67,0,0,1,105.1,182.07Z"/><path class="cls-38" d="M133.93,166c.86,2.05,4.2,2,4,4.91q-2,1-3.95,2.08c-.85,0-1.67,0-1.95,1.07L125,177c-.7.5-1.54.71-1.94-.17-.54-1.21.58-1.95,1.15-2.82a7.13,7.13,0,0,0,2-3.26,4.59,4.59,0,0,1,.73-1.12C129.27,168.44,130.83,165.72,133.93,166Z"/><path class="cls-39" d="M127,170c0,.37,0,.73,0,1.09-.87.85-1,2.19-2,2.95,1,1-2.83,2,0,3-1.07,1.4-2.62.85-4,1-3.3-.5-2-2.85-1.52-4.46s1.53-3,.39-4.64c.23-2.14,1.76-2.44,3.48-2.5,1.56.51,2.24,2,3.35,3C126.8,169.57,126.9,169.77,127,170Z"/><path class="cls-40" d="M147,162c-1,.11-1.25,2.44-2.69,1.17-.81-.71-1.61-1.89-.8-3.05,2.71-3.89-.56-2.94-2.45-3.12-.83-1.25.54-1.79.84-2.66.15-.81-.4-1.5-.4-2.29.17-1.55.2-3.14,1.47-4.31,1.54,0,2,1,2.37,2.24.33,1.65.26,3.34.55,5,0,.3.09.61.13.92a19.65,19.65,0,0,1,1.87,4.09l2,1a3.44,3.44,0,0,1,0,1A2.21,2.21,0,0,1,147,162Z"/><path class="cls-41" d="M120,169c2.71.25,3.08,1.68,1.44,3.5S119.27,176,121,178c-1,1.43-2.64.81-4,1.07q-1-2-2.06-4.05l.45-.48c1.14-.44,2.41-.75,2.13-2.43a3.12,3.12,0,0,1,.21-1.21,7.42,7.42,0,0,1,1.73-1.67Z"/><path class="cls-42" d="M105.1,182.07l4.82-.21c1,.19,2.27-.18,3,1-1.35.54-3-.27-4.19,1.06C107.46,183.39,105.3,184.64,105.1,182.07Z"/><path class="cls-43" d="M132.08,174.09c-.57-.4-1.11-1-.53-1.58.92-.9,1.8-.42,2.48.51Z"/><path class="cls-44" d="M147,162,150,162c0,1.15-.91,1.66-1.73,2.2A2.12,2.12,0,0,1,147,162Z"/><path class="cls-45" d="M134,14c2.69,1.67,6.09,2.16,8.09,5-1.25,1.33-2.29-.15-2.86-.23,2.31,3.74,6,7.11,6,12.4a5.15,5.15,0,0,1-.81,2.78,1.69,1.69,0,0,1-2.52,0c-.34-1.71-.69-3.42-2.09-4.67a19.5,19.5,0,0,0-9.15-8.59c-3.23-1.58-4.23-4-2.23-7.22C130.48,11.47,132.11,13.64,134,14Z"/><path class="cls-46" d="M143.82,33.84l.21-2.76c.76-3.11,2-5.78,5.64-6.33a1.3,1.3,0,0,1,1.3.19l3-.07c1.72,2.37,5.55,2.52,6.24,6-.92,1.25-2.22,1.24-3.56,1.06-3.76-1.75-7.13-2.34-9,2.67a2.69,2.69,0,0,1-3.1,1.81A1.64,1.64,0,0,1,143.82,33.84Z"/><path class="cls-47" d="M105.94,6q0-.47,0-.93h5L122,9c1.35.74,3.19.86,3.62,2.81-.1,1.59.53,3.31-.86,4.67a4.41,4.41,0,0,1-2.16.51c-2.58-.69-5.81-.17-6.88-3.67,1.92-1.78,2.77-3.36-.81-4a29.89,29.89,0,0,1-4.73-1.14,18,18,0,0,1-3.78-1.62Z"/><path class="cls-48" d="M150.12,25.09a13,13,0,0,0-6.09,6c-.16-5.37-4.57-8.62-6.33-13.29L142,19a3.61,3.61,0,0,1,3,2C146,23.14,148.15,24,150.12,25.09Z"/><path class="cls-49" d="M125,12.07c-.4-1.62-2.22-1.81-3-3a52.41,52.41,0,0,1,12,5c-1.66.68-3.32-1.81-5,0a1.1,1.1,0,0,1-1.09.36A7.35,7.35,0,0,1,125,12.07Z"/><path class="cls-50" d="M150.12,25.09c-2.79-.05-5.92.3-5.09-4.17,2.57.47,3.93,2.72,5.94,4A1.57,1.57,0,0,1,150.12,25.09Z"/><path class="cls-51" d="M181.92,108.93l-3.06,12c-3.43,2.6-7.17,2.58-11.06,1.3-1.26-2.19-.6-3.94,1.26-5.38.55-.34,1.5.46,1.57,0,.16-1-1.15-1.45-1.28-2.46-.16-3,.83-5.9,1.29-8.85a5.39,5.39,0,0,1,1.05-2.77c4.6-1,4.78-.82,5.91,5.38,1.79-.52,1.83-4,4.19-3C183.4,105.92,183.06,107.64,181.92,108.93Z"/><path class="cls-52" d="M168.07,121.93l10.79-1c-2.31,5-3.23,10.6-6.87,15-2.52-2.27.37-5.45-1.54-8.06.87,4.37-4.55,5-4.69,8.76a16.5,16.5,0,0,1-1.93,3c-.92,1-1.13,2.94-3.19,2.5-1.47-1-1.78-2.43-1.76-4C161.53,132.45,163.49,126.45,168.07,121.93Z"/><path class="cls-53" d="M165,137c.09-2.22-.55-4.44,2.81-5.39,2.53-.72.4-3.92,1.57-5.7,6.33,1.93,1.64,6.73,2.65,10-.4,2.89-2.19,5-4,7.06-1.69,1.1-2.85,2.86-4.69,3.78a3.36,3.36,0,0,1-2.06.62c-3.78-2.36-3.81-3.16-.23-5.41.67-1,1.34-2,2-3,5.22,3.76,3.72-2.46,6.44-3.63C166.92,135,166.74,137.61,165,137Z"/><path class="cls-54" d="M161,142c-2.54,2.24-2.06,3.88,1,5,1.06.76,1.05,1.88,1,3,0,.31,0,.63,0,.94-1.59-.24-3.05-.63-3.22,1.93-.06,1-.16,3.74-2.8,2.09-1.58-1.78-1.23-4.44-2.86-6.2-.56-2.08-4-1.08-4-3.71,1.44-1.61,3.07-.6,4.38-.42.88.34,0-.92.1-.26,0,.17-.13.14-.47.08a1.45,1.45,0,0,1-.63-2.78c3,.18,3.7-3.67,6.57-3.69A6.78,6.78,0,0,0,161,142Z"/><path class="cls-55" d="M181.92,108.93c-.13-1.07.47-2.28-.66-3.28-2.32,1.28-1.14,6.24-4.32,5.53-2.25-.5-.52-4.09-1-6.25-.52-2.43-2.32-1.83-3.88-1.88a1.82,1.82,0,0,1-.53-2,2.42,2.42,0,0,1,2.37-1.37c2.42,1.39,4.88,2.51,7.67.89,3.88,2.25,1.42,5.53,1.38,8.42Z"/><path class="cls-56" d="M183,109c0-2,0-4,0-5.92,0-1.34-.39-2.41-2-1.26-2.28-.28-1.33-1.71-1-2.91a10.25,10.25,0,0,1,1.5-2.34c.93-1,1.55-2.26,2.77-3a1.42,1.42,0,0,1,1.78.55l-1,8.84c-1.66,1.76-.4,4.07-1.12,6Z"/><path class="cls-57" d="M163,150c-1.18-.72-1-1.91-1-3l1-1c1.23-.73,2-.59,2.1,1A3.49,3.49,0,0,1,163,150Z"/><path class="cls-54" d="M165.08,147a2.32,2.32,0,0,0-2.1-1c1.48-1.29,2.85-2.78,5-3C167.18,144.45,166.74,146.16,165.08,147Z"/><path class="cls-58" d="M154.92,148a7.28,7.28,0,0,1,2,6.92c-5,3.27-6.09,3-8.48-2-.58-1.21-1.11-2.43-2.51-2.92a.61.61,0,0,1-1.06.09l-1.75-2.17c-2.6-.49-3.74-2.85-5.58-4.32-1.31-1.38-2.66-2.73-4-4.06-1-1.05-2-2.09-3.1-3.1-1.31-1.35-2.64-2.67-4-4s-2.67-2.7-4-4-2.74-2.77-4.16-4.11c-3.72-3.91-7.83-7.44-11.26-11.63-1.16-1.46-2.68-2.73-2.5-4.87a1.91,1.91,0,0,1,1.45-1.41c5.47,1.32,8.31,6.09,12.26,9.39,1.5,1.25,2.49,3.06,4,4.35,1.54,2.15,4.34,2,6.28,3.4,1.3,3,2.63,6,5.19,8.27,5.57,7.08,12.74,12.53,19.16,18.71,0,.69.77-.45.2-.1-.25.16-.23,0-.29-.41C152.46,148.26,152.48,146.84,154.92,148Z"/><path class="cls-59" d="M156.81,159.76l-4.76,2.11c.17-2.78,2.36-3.46,4.44-3.73C157.85,158,157.23,159.09,156.81,159.76Z"/><path class="cls-60" d="M144.87,150.11l1.06-.09c.29,1.67,1.44,3.33,0,5C144.38,153.63,145.31,151.72,144.87,150.11Z"/><path class="cls-60" d="M147.92,160a4.88,4.88,0,0,1-1.87-4.09C147.78,156.8,148.14,158.28,147.92,160Z"/><path class="cls-61" d="M86.88,183.81a1,1,0,0,0-.13-.63l.32-.36c.33-1.31.51-2.72,2.1-3.2,2-.05,3.82,1.85,5.91.47a6.93,6.93,0,0,1,1.83-.9,5.31,5.31,0,0,1,1.38-.14,2.88,2.88,0,0,1,1.89.83,2,2,0,0,1,0,1.37A9.17,9.17,0,0,1,97,184c-1.09.6.48.69.41,1.17-3.55,2.6-6.92-.81-10.41-.31Z"/><path class="cls-62" d="M97.38,185.14l-2.9-.49c2.13-1.29,3.35-3.11,5.5-3.68.81.44.47,1.43,1,2a7.53,7.53,0,0,0,.83.11l-1.89,1.72Z"/><path class="cls-63" d="M156.2,30.89l4-.05,1.9,2.1c-2.64,0-1.9,2.81-3.18,3.94-2.55-.06-1.61-2.62-2.69-3.75a4.54,4.54,0,0,1-.55-1.18A1.07,1.07,0,0,1,156.2,30.89Z"/><path class="cls-64" d="M185.9,94.12,184,94c-2.29,1.36-2.73-1-3.86-1.92-.7-.89-1.61-1.71-1.2-3,1.05-1.24,2.64-1.44,4-2.06l1.94.92C185.23,90,185.56,92.05,185.9,94.12Z"/><path class="cls-65" d="M36,145.06c-6.78-.28-10,5.64-7,13.89l-1.8-.2c-.13-1.7-.23-3.41-1.3-4.86.55-4.2-3.25-5.95-5-8.87,1.62-2.53,2-5.08.38-7.82-1.87-3.17-.5-4.87,2.78-5.53,3.23,1.81,3.89,5.4,5.49,8.28,1.13,2.05,2.2,3.08,4.51,2.35a3,3,0,0,1,3.07,1.48C37.29,144.67,37,145.16,36,145.06Z"/><path class="cls-66" d="M32.79,25.92l.3-1.11c2.77,1.07,5,0,7.2-1.66,2.47-1.83,5.06-3.5,7.59-5.24,2.26-1,4.28-1.39,4.86,1.9-2.15,4.57-6.93,6.5-10.14,10l-.69.22C40.27,25.59,36.53,25.76,32.79,25.92Z"/><path class="cls-67" d="M52,21c.35-3.34-2-3.05-4.13-3.11,5.54-3,10.46-7.27,17-8.06-.11,1.33-2.54.71-2.1,2.13S64.77,14,66.38,14c2.28,0,4.33-1.63,6.7-.89-3,3.51-5.71,4-11.13,1.88a9.67,9.67,0,0,0-1.47-.94c-.14.77.85.64,1,1.21a2.3,2.3,0,0,1-.2,1.9c-1.55,1.44-3.5,2.28-5.18,3.51C54.75,21.32,53.45,22.14,52,21Z"/><path class="cls-68" d="M30.08,42.9c.31,0,.61.06.91.07,1.19-.68,2.31-.78,3.3.37a1.67,1.67,0,0,1-.61,1.91c-4.17,2.09-5.66,6.37-8,9.91a18.5,18.5,0,0,1-3.45,3.62c-3.61,1.89-3.7-.33-3.44-3,.17-3.1,2.42-5.2,3.71-7.76a4,4,0,0,1,1.1-.9C26.59,47.08,27.12,43.12,30.08,42.9Z"/><path class="cls-69" d="M36.92,29.27l2.85,2.85c1,.5,2,.86,2.5,2a41,41,0,0,1-.88,4.52A2.37,2.37,0,0,1,39,39.72c-4-1.75-6.27-5.26-8.47-8.8C32,27.72,34.09,27.12,36.92,29.27Z"/><path class="cls-70" d="M30.88,31.89c3.18,0,3.21,3.85,5.74,4.8,1,.36,1.64,1.5,2.45,2.28a1.44,1.44,0,0,1,.33,1.21,3.26,3.26,0,0,1-1.55,2.09c-2.27.14-2.59-2.16-4-3.17a3.24,3.24,0,0,0-.81-.22,5.75,5.75,0,0,1-3-3V32.19C30.17,31.61,30.42,31.48,30.88,31.89Z"/><path class="cls-71" d="M24,48a5.72,5.72,0,0,0-.81.14c-.9.92-1.8,1.52-2.89.23-1.75-2.07-.37-3.7.73-5.37.79-1.53,1.29-3.26,2.87-4.27A16.33,16.33,0,0,1,23,41.93c-2,4.08.54,3.52,3,3.08C26.61,46.88,24.81,47.09,24,48Z"/><path class="cls-72" d="M33.9,39.1c2,.16,2.41,2.39,4,3.08,1,.27,1.52.87,1.17,2-1.71,1.09-3.38.72-5-.14-.69-1.3-2-.89-3.05-1C31.81,41.57,35.69,42.46,33.9,39.1Z"/><path class="cls-66" d="M30.88,31.89a6.24,6.24,0,0,1-.78.3c-1.51-2.86.86-3.93,2.59-4.83s3.55-.36,4.23,1.91C34.32,28.81,31.71,28.29,30.88,31.89Z"/><path class="cls-73" d="M24,48,26,45c1.41-.58,1.38-3.95,4-2.1C27.53,44,27.5,48.1,24,48Z"/><path class="cls-66" d="M41.94,33.85c-1.36.23-1.95-.52-2.17-1.73a3.41,3.41,0,0,0,2.14-2.07l.21-.14c1.33,0,1.51.9,1.58,1.91A2.13,2.13,0,0,1,41.94,33.85Z"/><path class="cls-72" d="M30.09,35.92l3,3C31,39,30.09,37.92,30.09,35.92Z"/><path class="cls-74" d="M8.15,120.93c-.62-4.13-1.28-8.24-3.1-12.07,0-.59.09-1.19.14-1.78.79-2.34-.13-5.93,4.17-5.73a3.25,3.25,0,0,1,1.3.58c2.24,2.75,1.51,6.49,3.17,9.43.3,3.2,2.15,5.38,4.66,7.13A5.27,5.27,0,0,1,19.85,121a4.26,4.26,0,0,1-.18,2.18c-1.29,2.32-3.37,1-5.14,1.12-1.14,0-2.25.32-3.39.3A2.27,2.27,0,0,1,10,124Z"/><path class="cls-75" d="M13.81,123.08c1.71-.89,3.55,1.74,5.22-.19,1.32-.13,1.6.82,1.87,1.78,0,4.53-1,9-.21,13.6.28,1.76,0,4.25-2.86,1.78A61.93,61.93,0,0,1,10,124l1.34.08C12.35,124.28,13.46,124.65,13.81,123.08Z"/><path class="cls-76" d="M17.83,140.05c1.79.57,2.34.18,1.84-1.83-1.09-4.38-.58-8.79.28-13.16,3.72.89,4.13,3.75,4.08,6.87-3.36,2-2,4.26-.73,6.87s1,5.11-2.36,6.22C19.74,143.47,18.35,142,17.83,140.05Z"/><path class="cls-77" d="M5.93,77C7,72.67,7.23,68.17,9,64c1.24-.81.84-3,2.77-3.23l.56.48c.71,2.64-1.24,4.69-1.56,7.1C10,72.53,8.56,76.52,7.91,80.7c-.44,1.46-.59,3-1.15,4.43a1.86,1.86,0,0,1-2.55,1.09C5.61,83.28,4.37,79.86,5.93,77Z"/><path class="cls-78" d="M21,43c.29,1.9-3.14,5.35,2.16,5.13.5,3.26-4,4.53-3.15,7.91a1,1,0,0,1-1.21.12c-1-1.47-2.14-2.83-3.12-4.32.46-1.76,1.93-3,2.3-4.84C18,44.92,19.37,43.84,21,43Z"/><path class="cls-77" d="M11.79,60.81a19.43,19.43,0,0,1,2-7,2,2,0,0,1,1,.76c.6,1.57,2.38,2.49,2.45,4.37-2.32,1,1,2.14-.08,3.17a2.18,2.18,0,0,1-1.2.47c-1.45.05-2.11-2-3.76-1.42Z"/><path class="cls-77" d="M18,47c.52,2.14-1.07,3.44-2,5-.06,1.18-.34,2.18-1.84,2.12l-.38-.31C14.06,50.83,16.39,49.13,18,47Z"/><path class="cls-79" d="M3.94,99.06l-1.79-1,0-3.09c.68-6.91,1.2-7.54,6.86-8.33a6.91,6.91,0,0,0,4.6-1.21,6.2,6.2,0,0,1,2.64-.87c2.2.79,3.26,2.58,4.07,4.6a1.31,1.31,0,0,1-.59,1.17c-4.23.31-8.6-.91-12.69,1.06-1.48,1.35-1.62,3.07-1.5,4.93C5.58,97.52,6.07,99.11,3.94,99.06Z"/><path class="cls-80" d="M10,87.81C4.34,87,3.12,90.86,2.12,95c-1-2.14-.14-4.25.1-6.36.66-.82,1.32-1.63,2-2.44L6,85a5.72,5.72,0,0,1,4.55-1.49,2.42,2.42,0,0,1,1.64,1.25C12.62,86.65,11.23,87.19,10,87.81Z"/><path class="cls-81" d="M3.94,99.06c1.37-2.81-1.2-6.61,2.23-8.91A3.79,3.79,0,0,1,7,92c.12,2,.4,3.91,2.25,5.15,1.11,1.06,2.75,2,1.29,3.86-.5.46-1.21.58-1.7,1-3.43.06-1.53,4-3.69,5C4.87,104.39,5.67,101.53,3.94,99.06Z"/><path class="cls-82" d="M82,5l-.41.12h-.43L72.94,5c1.47-1.92,3.91-1.13,5.73-2.08C79.46,4.07,82.8,1.22,82,5Z"/><path class="cls-83" d="M60.92,17l-.06-2A.67.67,0,0,1,61,14c4.15,1.49,8.2,1.57,12.07-.88,1.78-.16,3.62,0,5.29-.9,4-2.18,7.3-2.07,9.17,3.18-.23-2.72-.79-5-.52-7.4l2-.94A2.25,2.25,0,0,1,89.62,9c-.58,3.16,2,6,1,9.21a2,2,0,0,1-.82,1.08,12.91,12.91,0,0,1-5.8-2c-1-.3,1.2-2.25-.86-1.79-2.42.53-4.75,1.48-7.19,2a57.2,57.2,0,0,1-8.57,1.6A35.91,35.91,0,0,1,60.92,17Z"/><path class="cls-19" d="M92.78,4.86c4.44-2.3,7.32.32,10.1,3.23l.53.41a4,4,0,0,1,.56,1.89c.12,1.48-.56,2.95,0,4.43.24.83.61,1.66-.07,2.45a15.44,15.44,0,0,1-5.16.28c-2.72-.6-4-2.06-2.89-4.92a5,5,0,0,0-.77-5.48C94.42,6.28,93.25,5.92,92.78,4.86Z"/><path class="cls-84" d="M92.78,4.86c1.11.24,2.46-.13,3.14,1.23-1.44,9.43.15,18.94-.84,28.38-.76,1.87-.48,4.13-2.12,5.68-3.21-1.09-2.19-3.69-1.93-5.85a124.12,124.12,0,0,0,.12-23.84,4.83,4.83,0,0,0-1.79-1.08c-.17-.15-.34-.31-.5-.48L89,7.08C90.25,6.28,91.17,5,92.78,4.86Z"/><path class="cls-85" d="M102.88,8.09C103,6.11,104.4,6,105.94,6h0c.54.36,1.14.63,1.67,1,1,.69,2,1.58,1.24,2.79-.82,1.36-2.24.94-3.5.49s-1.7-1.47-2.49-2.27Z"/><path class="cls-86" d="M164,47c2.53,3,3.39,7.14,6.89,9.42,1.08.71.42,1.73.18,2.64A7.25,7.25,0,0,1,173,62a2,2,0,0,0,2-1c2.14,2,.09,4-.35,5.79s-1.8,1.21-2.66-.26c-1.33-2.27-2.34-1.88-3,.47-.34.1-.82.16-.91,0-2.92-6.77-6.85-13-10.31-19.48a1.63,1.63,0,0,1,.38-1.82c2.33-1.19,4.06.2,5.84,1.36Z"/><path class="cls-87" d="M157.94,46c4.14,6.75,8.62,13.31,11,21,.76,6.34,4.22,12.25,3,18.9l-.64.45c-2.66-.16-2.31-2.36-2.62-4-.86-4.53-1.59-9.08-3.6-13.29a15,15,0,0,1-2.17-5.44,8.68,8.68,0,0,0-1.63-4.46c-1.52-4-4.66-7.05-6-11.11a2.2,2.2,0,0,1,1.33-2.4A1.6,1.6,0,0,1,157.94,46Z"/><path class="cls-88" d="M180.88,81.26c0,.77.3,2-.84,1.92-1.36-.1-3.5.37-3.82-1.49-.52-3.07-1.88-6.1-1.11-9.3a2.92,2.92,0,0,1,1.38-1.87c1-.4,1.12.76,1.63,1.35C180.46,74.62,179.59,78.25,180.88,81.26Z"/><path class="cls-89" d="M183,87c-.24,2.74-2.24,1.87-3.83,1.86l-.64.11c-2.58.24-5.24.06-7.56,1.57a2.47,2.47,0,0,1-2-.37c-.69-2.59.77-3.52,3-3.86l0-.42,2.12-.78a27.17,27.17,0,0,0,7.87,1.06Z"/><path class="cls-90" d="M181.92,86.17c-2.95,2.11-5.35,0-7.87-1.07C176.8,84.56,179.54,84,181.92,86.17Z"/><path class="cls-91" d="M157,45.92a2.06,2.06,0,0,0-1.07,2c-3.05-.64-4.67-3.31-7-4.92-.35-2.1,1-2.93,2.65-3.47,2.18.6,4.17-.89,6.33-.61L159,40A7,7,0,0,0,159,41C157.73,42.38,157.8,44.31,157,45.92Z"/><path class="cls-92" d="M157,45.92c-1.9-2.63.16-3.74,1.91-5,.24,1-.49,2.17,1.37,2.61,1.62.39,3.42,1.24,3.65,3.43l-6-1C157.64,46,157.34,46,157,45.92Z"/><path class="cls-93" d="M173,62a2.52,2.52,0,0,1-2-2.93C173.21,59,174.06,59.86,173,62Z"/><path class="cls-94" d="M157.91,38.94C156.06,40,154.43,42.37,152,40c1.89-2.48,3.85-4.92,4.89-7.93,2.11,1,.19,3.71,2,4.82C158.56,37.57,158.24,38.26,157.91,38.94Z"/><path class="cls-95" d="M44.93,156,46,154.87c1.81-1.07,3.22.06,4.56,1A74.61,74.61,0,0,0,78.3,167.7c1.26.24,2.72.41,2.88,2.19-1.35,1.56-3.2,1.37-5,1.43A8.39,8.39,0,0,1,72,170C62.18,166.86,52.8,162.91,44.93,156Z"/><path class="cls-96" d="M83.94,176c-2.84,1.09-5.42.27-8-1v-3c.92-1,2.12-1,3.33-1,2.05.24,4,.18,5.63-1.43a2.22,2.22,0,0,1,2,.14c1,1.8-.32,3-1.07,4.42A5.07,5.07,0,0,1,83.94,176Z"/><path class="cls-33" d="M80,172H76c-1.71.1-3.23-.18-4-2l4.14.84a6.09,6.09,0,0,1,3.75-.17A.85.85,0,0,1,80,172Z"/><path class="cls-97" d="M61.69,174a1.92,1.92,0,0,1-1.12.4,1.82,1.82,0,0,1-1.23-1.07c-.23-.65.22-1.2,1-1.23S61.56,172.23,61.69,174Z"/><path class="cls-98" d="M83.94,176c.33-.69.67-1.38,1-2.06,2,.48,2.13-2.82,4.25-2a3,3,0,0,1,.54,2.55,13.12,13.12,0,0,0-1,5.61c-.47,1-.51,2.21-1.7,2.75C86,180.54,85,178.27,83.94,176Z"/><path class="cls-99" d="M45.27,146.16c-2.56.55-3.17,2.9-4.33,4.73-1.51.68-1.92,2.19-2.66,3.46C36.74,157,34.6,157.42,32,156c-.54-1.35.65-2,1.17-2.9,2.49-4.34,7-6.82,9.89-10.8,2.65-3.45,6.46-5.69,9.35-8.9,1.43-1.23,2.57-2.92,4.76-2.89a2.12,2.12,0,0,1,1.58,2.17,5.84,5.84,0,0,1-2,3.66c-1.44,1.41-2.88,2.81-4.27,4.27-1.27,1.24-2.52,2.5-3.78,3.75C47.69,145.19,46.82,146.31,45.27,146.16Z"/><path class="cls-100" d="M43.91,142.92c-2.55,4.35-7.61,6.44-9.94,11-2.6,1.05-2.77-.55-2.54-2.41.17-1.32,1.34-2.27,1.53-3.61-.1-2.14,2.31-1.6,3-2.84l1-1.13a3,3,0,0,1,1-.85C40,142.61,41.91,141.8,43.91,142.92Z"/><path class="cls-101" d="M33,147.9c2.2.35,1.23,1.22.42,2.2-1.2,1.45-2.73,3,.59,3.82L32,156C28.79,152.39,29.07,150.1,33,147.9Z"/><path class="cls-102" d="M86.87,170.07l-1.8,0a2.92,2.92,0,0,1-2.75.7,2.33,2.33,0,0,1-1.13-.9c-12.88-2.28-24.27-8.08-35.2-15-1.89-2.11-3.27-4.31-1.28-7.11l.74.13c3.93,3,7.8,6,12,8.67a70.27,70.27,0,0,0,23.77,9.54c2.57.51,5.82.27,6.94,3.72A.91.91,0,0,1,86.87,170.07Z"/><path class="cls-102" d="M45.27,146.16,48,144.1c.94,2.73-.38,3.78-2.91,3.94l-.41-.28C44.9,147.22,45.08,146.69,45.27,146.16Z"/><path class="cls-103" d="M143.88,154c-.21,1.67-2.13,1.76-2.79,3-.32.33-.63.67-1,1,.19.35.1.6-.3.71L136,161a4.17,4.17,0,0,1-2.66,2.76,15.38,15.38,0,0,0-4,1.88,9.63,9.63,0,0,1-2.87,1.38,3,3,0,0,1-2.49,0,5.23,5.23,0,0,0-4,2v0c-.9.87-2.18,1.05-3.18,1.76a10.73,10.73,0,0,1-5.85,1c-1.9-.65-4.1-.23-5.82-1.57a1.26,1.26,0,0,1-.19-1.42c4-2.2,8.62-2.14,12.87-3.6,7.78-2.67,14.67-6.91,21.65-11.08C140.94,153.81,142.39,153,143.88,154Z"/><path class="cls-104" d="M133,163l3-2c2.59,1,1.6,3.49,2.51,5.36-2.05.54-3.12-1-4.58-1.38C133.11,164.58,132.42,164.08,133,163Z"/><path class="cls-105" d="M133,163c.31.68.61,1.35.92,2,0,.35,0,.69,0,1-2.31,1.31-3.94,3.83-6.94,3.93h0a1.07,1.07,0,0,1-.29-1.19c.55-1.39,2.79-1.81,2.19-3.85A6.06,6.06,0,0,1,133,163Z"/><path class="cls-106" d="M139.84,158.76a1.17,1.17,0,0,1,.3-.71c1.47.07,2,.92,1.8,2.27-.06.49-.21,1.05-.83.84C140,160.78,140.08,159.66,139.84,158.76Z"/><path class="cls-107" d="M111,171l5.9-1.08c1-.4,1.23.12,1.08,1l0,.09a40,40,0,0,1-2.93,3.92l-.1.08-5-.07a2.09,2.09,0,0,0-.75-.46,2.58,2.58,0,0,1,.76.46c-2.16,4.27-5.43-.12-8,1a8.64,8.64,0,0,1-1.1-1c-.55-1.95-3.82-4.39.94-5.44,1.82,1,3.66,1.89,5.82,1C108.75,170.6,110,170.15,111,171Z"/><path class="cls-8" d="M101,183a2.09,2.09,0,0,1-1-2l-.06-1.1c-.73-1.34-1.06-2.55,1-3C105.43,178.88,101,181,101,183Z"/><path class="cls-108" d="M100.91,176.9c-1.15.72-.82,1.93-1,3L98,180c-.71-1.57-.08-2.94.65-4.3.93-1,2-1.68,3.32-.72,0,.33,0,.67,0,1Z"/><path class="cls-109" d="M125,174c0-1.45.46-2.56,2-2.95C127.12,172.59,127,174,125,174Z"/><path class="cls-38" d="M127,169c0,.32,0,.63,0,.94-1.87-.08-2.92-1-3-2.92l2.14-.89A3.45,3.45,0,0,1,127,169Z"/><path class="cls-110" d="M140.08,155c-10.67,7.2-21.88,13.06-35,14.11-6.71,1.33-7.59.88-8-4.05,1.46-3.13,4.51-2.9,7.22-3.35a72.47,72.47,0,0,0,26.84-9.85c3.36-2.11,6.52-4.48,6.88-9,2.2,1.18,3.57,3.2,5.12,5a9.8,9.8,0,0,1-1,5C141.78,154,140.7,154.26,140.08,155Z"/><path class="cls-111" d="M140.08,155l2-2.1c.76.11,1.51.24,1.8,1.12Z"/><path class="cls-112" d="M115,174.92c-.26-2.23.4-3.77,2.93-3.92C120.06,174.6,118.94,175.8,115,174.92Z"/><path class="cls-39" d="M118,170.91l-1.08-1c.8-1.07,2-.9,3.07-.9A1.74,1.74,0,0,1,118,170.91Z"/><path class="cls-113" d="M127.76,13.89,129,14c-.7,2.3-1.23,4.37,1.94,5.5A17.3,17.3,0,0,1,141,29a2,2,0,0,1-2.72.06c-5.35-3.53-10.78-6.89-17-8.81a2.41,2.41,0,0,1-1.53-1.8c.38-1.75,2.45-1.26,3.25-2.46l2,0C125.79,15.09,126.06,13.55,127.76,13.89Z"/><path class="cls-114" d="M120,18a143.29,143.29,0,0,1,21,11c1,1.26,3.29,2.2,1,4.22-2.58.24-4.15-1.69-6-2.88-3.18-2-6.2-4.29-9.91-5.29a12.84,12.84,0,0,1-2.43-1.29c-2-1.52-4.52-1.91-6.79-2.85a3.41,3.41,0,0,1-1.11-.89,2.63,2.63,0,0,1-.14-1.44A2.51,2.51,0,0,1,118,17.1,2.59,2.59,0,0,1,120,18Z"/><path class="cls-115" d="M126,24.05c6.33,1.32,10.83,5.8,16,9.18a1.63,1.63,0,0,0,1.87.61A2.86,2.86,0,0,0,145,36.13a3.39,3.39,0,0,1-.77,3.36c-.93.9-1.95,1.42-3.24.73.2-3.16-1.44-5.17-4-6.76-3.11-1.92-6.36-3.61-9.33-5.76C126.7,26.66,125.42,25.77,126,24.05Z"/><path class="cls-116" d="M143.86,38.69,145,36.13a13.2,13.2,0,0,0,1.77-2.3c2.6-5.48,4.14-6,9.43-2.94a2.89,2.89,0,0,0-.09.93c-2.66,4.35-5.63,8.36-10.88,9.87C143.57,41.24,143.14,40.23,143.86,38.69Z"/><path class="cls-49" d="M120,18l-1.9-.07c-1.94-.86-4.23.38-6.08-1-2.74-1-5.65-1.25-8.47-1.92l-.66-.06c-1.45-1.67.72-3.25.11-4.91,3.1.26,6.15,1,9.26,1.22,1.31.46,2.81.53,3.75,1.77,1.54,2.88,4.76,1.8,7,3C122.88,18,121.41,18,120,18Z"/><path class="cls-117" d="M116,13c-1.37-.16-2.93.41-4-1-.06-1.91-3.12-2.64-2-5a65.23,65.23,0,0,1,6.69,1.45c1.48.47,3.47,1.11,3,3.23S117.3,12.75,116,13Z"/><path class="cls-22" d="M110,7c.1,1.9,3.11,2.64,2,5-3.14-.08-6.22-.37-9-2,0-.66,0-1.32-.07-2,1.81.37,3.19,2.29,5.6,1.51L106,6A6.67,6.67,0,0,1,110,7Z"/><path class="cls-118" d="M127.76,13.89,125,16c-.29-1.29-.9-2.59,0-3.89A2.48,2.48,0,0,1,127.76,13.89Z"/><path class="cls-119" d="M160,138c-2.1,1.23-2.06,5.56-6,4.12-.75-1.25,0-2.3.63-3.19,7.75-10.68,12-22.8,14.77-35.55a1.39,1.39,0,0,1,1.26-.67c1.44.69.33,2.37,1.25,3.26q-.91,4.56-1.82,9.11A1.39,1.39,0,0,1,170,117a5.46,5.46,0,0,0-1.9,5Z"/><path class="cls-120" d="M170,117c0-.64.06-1.29.1-1.93,2.1.19,2.05,1.6,1.72,3.1-.14.61-.73,1.37-1.23.95S170.15,117.71,170,117Z"/><path class="cls-121" d="M171.89,105.94c-1.12-.79-.85-2-1-3.12-.47-1.07-.54-1.9,1-1.75,0,.66.09,1.32.14,2Z"/><path class="cls-122" d="M165,137a22.41,22.41,0,0,1,2-3.24,2.33,2.33,0,0,1,3.15-.34c1.27.9.66,2.05-.13,3a10.68,10.68,0,0,0-2.28,3.72,3.31,3.31,0,0,1-3.83,2.36c-1.6-.4-.69-2.26-.94-3.46C163.64,138.31,164.3,137.64,165,137Z"/><path class="cls-123" d="M170.09,103c-1.33,12.85-6.17,24.35-13.41,34.93-.93,1.37-1.8,2.78-2.7,4.17l-1.1.85a4,4,0,0,1-3.28,1.47,1.4,1.4,0,0,1-.71-1.9c10.76-11.66,16.44-25.53,17.85-41.24.12-1.32.16-2.69,1.46-3.53C171.54,98.52,170.75,100.78,170.09,103Z"/><path class="cls-124" d="M154.92,148c-4.81,1.83,1.76,2.68-.12,4.12-3.92-.77-19.21-14.63-21.86-20.15l.63-.33a4.61,4.61,0,0,1,4.65,2.65c4.41,2.68,6.13,8.31,11.23,10.22l.53.44C151,147.07,154.78,144.58,154.92,148Z"/><path class="cls-125" d="M150,144l2.93-1c1,1.88,4.18.15,4.75,3.43A14.32,14.32,0,0,0,150,145v0c-.34-.21-.46-.43-.36-.65S149.84,144,150,144Z"/><path class="cls-126" d="M181,99c-.12.94-1.6,1.85-.06,2.83-3.06,2.3-5.15.86-6.93-1.8-1-.83-1.62-1.77-1.15-3.13a3,3,0,0,1,1.24-.65c1.7-.19,3.22.49,4.77,1A4.87,4.87,0,0,1,181,99Z"/><path class="cls-127" d="M172.75,97.13c.41,1,.81,1.91,1.21,2.87l-2,1.07c-1,.23-1.05,1-1,1.75a3.17,3.17,0,0,1-.8.17c-.27-1.86.25-4-2.11-5a1,1,0,0,1,.3-1.43C169.9,95.74,171.44,95.59,172.75,97.13Z"/><path class="cls-128" d="M181,91c1.37.64.82,3.21,3,3a3.27,3.27,0,0,1-1.9,3,.93.93,0,0,1-1.41,0,5.53,5.53,0,0,1-.62-4.7A3.55,3.55,0,0,1,181,91Z"/><path class="cls-129" d="M180.68,96.8l1.41.22L181,99a2,2,0,0,1-2-1C178.84,96.51,179.63,96.45,180.68,96.8Z"/><path class="cls-130" d="M93,40c.27-1.68-.64-3.6,1-5,1.57,1.39,1.38,3.29,1.38,5.08,0,9.92.14,19.84-.06,29.72,0,.67.44.76,1,.56a5.49,5.49,0,0,1,1.13-.28,5.9,5.9,0,0,1,1.26,0c3.73.3,6.72,4.08,10.88,2.24a4.71,4.71,0,0,1,1.4.11A4,4,0,0,1,113.24,74c.21,2.39-2,3.23-3,4.77-.54.51.63.65.05.32-.11-.06,0-.19.23-.44,1-1,1.85-2.44,3.69-1.71a3.17,3.17,0,0,1,.52,2c-.45,3.26,1.35,6.13,1.64,9.25a4.59,4.59,0,0,0,1,1.71c4.74,1.59,9.85.11,14.56,1.81a4.5,4.5,0,0,1,2,1,1.58,1.58,0,0,1,.12,1.4c-5.74,2.36-11.72.77-17.59,1-.13,0-.39-.07-.48,0-.26.33-.15.64.24.86a3.2,3.2,0,0,1,.35,1.18,8.67,8.67,0,0,1-1.12,3.89c-3.13,5.17-3.05,6,1,10.22,1.83,1.89,3.83,3.61,5.48,5.66,1,1.27,2.25,2.71,0,4-4-3.73-8.1-7.38-12-11.25a14.71,14.71,0,0,0-4-2.76,1.25,1.25,0,0,1-.28-1.24c1.09-1.71,1.09-3.9,2.43-5.5,1.43-1.41,1-3.07.46-4.61-.67-1.94-.89-3.55.41-5.51,1.57-2.36,0-4.31-1.89-5.9a5.49,5.49,0,0,1-1.85-1.89,3.81,3.81,0,0,0-3.2-2.61,12.79,12.79,0,0,1-4.15-2c-.36-.27-.69-.57-1-.86-1.28-1.07-3.23-.67-4.4-2a5.28,5.28,0,0,1-.71-1.45c-1.31-10.37.33-20.75,0-31.12A3.9,3.9,0,0,1,93,40Z"/><path class="cls-131" d="M138,142.91c1,2.61,1.42,4.3-1.66,6.7-10,7.77-21.17,11.8-33.48,13.41-1.62.21-3.22.6-4.83.9-1.6-1.56-1.4-3.38-.79-5.27.64-1.3,1.88-1,3-1.21,11.14-2.05,22.12-4.56,31.08-12.16,1.13-.95,3.39-1.3,2.24-3.67a3.94,3.94,0,0,1-.21-1.4A2.24,2.24,0,0,1,134,139,10.63,10.63,0,0,1,138,142.91Z"/><path class="cls-132" d="M107.82,112.39,119,124a3.58,3.58,0,0,1,.76,2.23,5.83,5.83,0,0,1-2.3,4.23,35.79,35.79,0,0,1-19.12,6.11,2.65,2.65,0,0,1-1.09-1.18,16.44,16.44,0,0,1-.06-8.72c2.13-2.87,5.88-1.81,8.49-3.5,1.67-1.08,4.91-1,4.43-3.79-.41-2.36-2.64-3.69-5.32-3.59a2.92,2.92,0,0,1-1.84-.64,1.68,1.68,0,0,1-.16-1.46C104.16,112.15,105.51,110.43,107.82,112.39Z"/><path class="cls-130" d="M107.82,112.39c-1.89-.32-3.2,1-4.73,1.67a6.37,6.37,0,0,1-5.61,1.65c-1.08-.24-1.78-1.4-3-1.35-1.22,2.58,1.54,5.19-.25,7.64-2.62.27-2.74-2.11-3.75-3.54a18.5,18.5,0,0,1-.73-1.92c-.81-2.89-3-1.52-4.8-1.59-3.39-1.4-6-.48-8.18,2.44-1.27,1.69-2.56,3.53-4.81,4.17a2.43,2.43,0,0,1-2-.44c-.32-3.23,2.53-4.42,4.18-6.34,2.28-2.67,5.17-4.69,7.76-7,2-.45,4.43.34,5.86-1.91,2.48-1,5.11,1.14,7.57-.36,3.4.26,6.3,2.41,9.74,2.51Q106.42,110.19,107.82,112.39Z"/><path class="cls-100" d="M105,108c-4,2.67-6.64-1.37-10-2-.25-2,1.29-1.82,2.43-2,1.38-.22,2.87.18,4.07-.84a20.22,20.22,0,0,0,3.53-8c-1.23-.57-2.53-1-3.31-2.22a2,2,0,0,1,.19-2,3.17,3.17,0,0,1,2.16-1c3.27-.09,4.32-1.59,3.23-4.69a2.24,2.24,0,0,1,.61-2.22c2.41,2.74,5.18,5.37,1.18,9-1.2,1.1.86,1.93.73,3-.26,2,2.56,4.42-.86,5.93-4.5-.39-1.78,3.48-3,5,0,.33,0,.65,0,1Z"/><path class="cls-133" d="M122,121c1.14-1.75-.15-2.7-1.21-3.76q-3.36-3.33-6.7-6.68c-3.46-3.46-2.77-6.63.66-9.62,1.13,1,.37,2.12.24,3.2-1.28,3.57,1.67,5.09,3.49,7.15,2.27,2.39,4.63,4.69,7,7,1.31,1.5,3,2.7,3.89,4.52a1.9,1.9,0,0,1-.18,1.32.91.91,0,0,1-1.21-.08C125.73,123.42,123,123.88,122,121Z"/><path class="cls-134" d="M127.9,124.06l1-.08c1.54-.64,2.1.54,2.8,1.49,0,2.23,4.42,3.61,1.27,6.47l-.08.06C129.62,130.4,128.64,127.31,127.9,124.06Z"/><path class="cls-135" d="M119,126v-2a10.71,10.71,0,0,1,4,4,.68.68,0,0,1,.32.74c-.07.26-.16.39-.25.39C120.64,129.44,119.81,127.71,119,126Z"/><path class="cls-136" d="M127,132a9.78,9.78,0,0,1,4,4,.73.73,0,0,1,.34.73c-.06.27-.13.4-.21.41-1.64.5-2.52-.68-3.53-1.57a4.06,4.06,0,0,1-1.16-2.4A1.93,1.93,0,0,1,127,132Z"/><path class="cls-137" d="M127,132c0,.35,0,.7-.08,1.05-1.62.53-2.42-.7-3.4-1.57-.53-.73-1.06-1.47-.61-2.44,0-.34,0-.67.08-1A10.29,10.29,0,0,1,127,132Z"/><path class="cls-138" d="M130.9,137l.09-1a5.93,5.93,0,0,1,3,3l-.08,1c-1.66.52-2.41-.64-3.19-1.74A1.3,1.3,0,0,1,130.9,137Z"/><path class="cls-139" d="M91.13,118,94,122c1.42,1.24,1.44,3,1.37,4.61-.63,15,1.52,29.88,1.07,44.85-.09,3.15-.15,6.29-.55,9.42-2.71,2.85-4.78,0-7.08-.8-1.74-1.77-1.65-3.48.16-5.14,6.19-3.39,3.23-9,3.29-13.85.07-6.46-3-12.57-2.54-19.05a148.93,148.93,0,0,0,.12-20C89.71,120.52,89.7,119,91.13,118Z"/><path class="cls-140" d="M95.86,180.87c-.71-.07-1.31-.31-1.24-1.16,1.51-19.26-1.46-38.47-.65-57.72-.37-1.94-.69-3.88-1.11-5.8-.31-1.4-1.34-3,.66-3.83,2.37-1,2.59,1.28,3.42,2.56.13.91.4,1.8.51,2.72a10,10,0,0,1,0,3.14c-.82,15.57.44,31.15-.45,46.71-.2,4.12,2,8.25-.11,12.35Z"/><path class="cls-139" d="M96.89,179.84c0-4-1.75-7.87-.86-11.93a1,1,0,0,1,1.28.19c.93,2.55,1.91,5.08,1.64,7.88l-1,4Z"/><path class="cls-141" d="M145.9,41l10.21-9.15q.36.13.75.24C158,36.39,155.51,38.53,152,40a6,6,0,0,0-3,3c-.1.18-.19.37-.28.56a16.91,16.91,0,0,0-2.89,3.2,34.66,34.66,0,0,1-4.26,4.8c-1.42,1.37-2.8,2.76-4.16,4.19-2.55,2.51-5.05,5.07-7.59,7.59-1.11,1-2.2,2.11-3.26,3.2-1.43,1.34-2.73,2.8-4.22,4.08a2.44,2.44,0,0,1-2.55.51,3.57,3.57,0,0,1-1.18-2.5c.37-2.15,2.06-3.36,3.42-4.78,5.75-6,12-11.49,17.18-18.09C140.89,43.53,142.94,41.54,145.9,41Z"/><path class="cls-142" d="M181,91v1c-.48.72-.87,1.53-1.75,1.86-3.41.87-6.86.55-10.29.32a4.67,4.67,0,0,1-4.38-2.69,2.44,2.44,0,0,1,.33-1.71,3.3,3.3,0,0,1,4.17,0l1.89.24a4.65,4.65,0,0,1,3.25-.86c1.25.25,2.51.53,3.66-.36A1.13,1.13,0,0,1,179,89l.1-.09A3,3,0,0,0,181,91Z"/><path class="cls-143" d="M37.85,143.89H37.4l-.44.05-3-1c-1.61.25-1.45-.8-1.34-1.82,1.87-.68,1.19-1.45.29-2.63-5.14-6.78-8.26-14.53-10.22-22.75-.47-2-1.29-4.72,2.7-3.55a3.73,3.73,0,0,1,1.66,2.39c2.47,9.62,7.28,18,13.13,25.95C40.68,142.56,39.11,143.11,37.85,143.89Z"/><path class="cls-144" d="M33.15,141c0,.79,0,1.58.85,2-2.28,1.53-3.78,1.76-4.95-1.54s-3.31-6.35-5-9.51c-1.64-2.13-1.8-5.13-4.08-6.87-.12-.8.08-1.73-.92-2.17,0-.64.09-1.27.14-1.91a1.78,1.78,0,0,1,2-.41A6.62,6.62,0,0,1,23.76,123a92.37,92.37,0,0,0,8.37,14.86C32.79,138.78,33.57,139.68,33.15,141Z"/><path class="cls-145" d="M43,32c-.3-.69-.6-1.38-.89-2.08,2.23-4.14,6-6.63,9.89-8.89l4-1.09c.69,2.45-1.65,3.54-2.4,5.34-2.19,2.69-5.43,4-8,6.23C44.77,32,44,32.54,43,32Z"/><path class="cls-146" d="M53,25c-.07-2.31,2.38-3.13,3-5a6.7,6.7,0,0,1,5-3C63.21,15.89,65,17.72,67,18c.1.5.14,1.14-.28,1.35C62.3,21.59,58.12,24.48,53,25Z"/><path class="cls-147" d="M61,14a7.36,7.36,0,0,1-.15.94c-.91.48-1.84.91-2.45-.35-.36-.73.06-1.21.7-1.58C60.28,12.36,60.92,12.64,61,14Z"/><path class="cls-148" d="M20,89c-1.83-.79-2.58-2.55-3.63-4a1.39,1.39,0,0,1-.8-1.24c1.69-9.33,2.39-19,8.36-27,2.57-2.54,3.89-6,6.07-8.79.91-1.17,1.64-2.41,3-3.07l1-.9c1.64-1.07,3.31.25,5,0s2.24.58,2.19,2.09a4.21,4.21,0,0,1-1.07,1c-4.65,2.77-7,7.44-9.63,11.84A70.08,70.08,0,0,0,22.82,78.3c-1.06,3.34-1,6.94-2.29,10.21Z"/><path class="cls-149" d="M25,56.88C20,64.48,18.74,73.3,17,82c-.17.82-.19,1.64-1,2.15-2.78-.51-2.23-2.77-2.24-4.57,0-2.8,1.25-5.33,2.06-8,.43-1.22.89-2.42,1.26-3.66.92-3.64,2.13-7.15,4.84-9.93l2.93-3.19A1.37,1.37,0,0,1,25,56.88Z"/><path class="cls-150" d="M22,58Q20,63,18.08,68.08C16.25,66.31,15.49,64.35,17,62c.35-1-3.09-2,0-3,.62-1,.31-2.74,2.13-2.88L20,56c0,.87-.09,1.74-.13,2.61Z"/><path class="cls-151" d="M25,56.88l-.09-2.07c2.16-3.74,3-8.57,8.1-9.9Z"/><path class="cls-152" d="M39,40c0-.34.06-.69.1-1a2,2,0,0,0,2-1c1.44-1.07.42-4,3.13-4.1,1.37,1.51.85,3.86,2.34,5.32,1.27,1.58,2.76,2.93,4.17,4.37.8,1.08,2.09,2,1.35,3.62-3.26.78-5.45-1.38-7.79-3-1.45-1-2.55-2.51-4.47-2.71C39.11,41.2,38.52,40.88,39,40Z"/><path class="cls-153" d="M44,34c-1.25.7-1,1.94-1,3-.07,1.66-1,1.25-2,.9-1.59-1.8.13-2.85.92-4.12.36-.62.71-1.24,1.06-1.86l1.91-1.08a1.72,1.72,0,0,1,1.4,1.33C46.08,33.5,45.58,34.42,44,34Z"/><path class="cls-154" d="M39,40l1,.77A109.89,109.89,0,0,1,63.45,61.7c1.41,1.63,2.82,3.23,4.36,4.73a2.44,2.44,0,0,1,.46,1.24c-1,.94-.57,2.36-1.17,3.45a2.53,2.53,0,0,1-2.48-.56c-1.53-1.3-2.86-2.8-4.33-4.17q-3.87-3.89-7.78-7.74c-2.29-2.4-4.66-4.72-7-7C44,49.72,41.64,48.55,41.09,46c-.26-1.12-1.18-1.56-2.09-2-.37-.59-.73-1.19-1.09-1.78C38,41.34,38.09,40.48,39,40Z"/><path class="cls-155" d="M13.05,111.87c-2.69-2.72-1.35-6.77-3.25-9.74,5-2.68,5.76-2.27,6.58,3.56a11.83,11.83,0,0,0,.65,2.93c.46,1.63,1,3.24,1.32,4.92.23,1.2.61,2.4-.2,3.54C14.58,117.16,14.28,114.06,13.05,111.87Z"/><path class="cls-156" d="M15.06,106.92c.74-4.34-.91-6-5.26-4.79a5.62,5.62,0,0,1-.92-.08l1-1.13c2.33-1.16,3.71-3.82,6.56-4.19a2,2,0,0,1,1.19,1.83C16.56,101.27,19,105.11,15.06,106.92Z"/><path class="cls-157" d="M17.83,117.27c-.25-1.12-.51-2.25-.77-3.37,1-.78-.36-2.75,1.53-3.11A12.78,12.78,0,0,1,21,121H19.17l-1.42-2A1.46,1.46,0,0,1,17.83,117.27Z"/><path class="cls-75" d="M17.83,117.27c0,.56,0,1.11-.08,1.67-3.11-1.33-4.94-3.52-4.7-7.07Z"/><path class="cls-158" d="M13.81,123.08c.51.83,2.84,1.06,1.51,2.31s-3,.06-4-1.32Z"/><path class="cls-159" d="M6.94,81c0-4.57,1.71-8.75,3-13a46.09,46.09,0,0,0,3.58,3.41A4.18,4.18,0,0,1,13.72,74c-1.65,2.87-1.19,6.35-2.7,9.25C8.86,83.91,7.76,82.68,6.94,81Z"/><path class="cls-160" d="M13,71c-3.4,1.37-2.74-1.28-3-3-.17-2.57,1.74-4.46,2.21-6.82,2.13-3.43,2.39,1.16,3.78.89C16.51,65.51,16.28,68.75,13,71Z"/><path class="cls-161" d="M6.94,81l4,2a.74.74,0,0,1-.1,1.08C9.36,85,7.69,85,6,85,6.11,83.62,5.67,82.1,6.94,81Z"/><path class="cls-162" d="M19.12,56.11,17,59c-1.42-1.36-3.44-2.37-2.86-4.9L16,52C18.73,52.05,19,54.06,19.12,56.11Z"/><path class="cls-163" d="M13,71q1.5-4.49,3-9l1,0,1.08,6.09c-.17,1,0,2.19-1,2.94-1.16,1.24-.88,4.47-4.06,3C13,73,13,72,13,71Z"/><path class="cls-164" d="M6.05,92.05l.12-1.9c4.55-1.72,9.16-1.35,13.78-.35a4.53,4.53,0,0,1,4.46-.58c1.51.89,2.4,2.94,4.64,2.47H31.8c2.6.45,4.22-1.71,6.39-2.4a5.68,5.68,0,0,1,2.25,0,70.15,70.15,0,0,0,18.48-.15,8.26,8.26,0,0,1,3.21,0c2.52,1,5.49-.17,7.84,1.64.3,2.61-1.82,2.18-3.24,2.45-1.57.31-3.24,0-4.78.62a11.81,11.81,0,0,1-2.27.94,7.57,7.57,0,0,1-3.35,0c-6.5-.61-13-.9-19.48.26-3.2.5-6.42.25-9.62.33-4.9-.28-9.78-1.43-14.73-.18a4.92,4.92,0,0,1-4.22-.92A1,1,0,0,1,8.15,93a1.9,1.9,0,0,1,.73-.61c-.34,0-.5.31-.78.47C6.94,93.74,6.59,92.67,6.05,92.05Z"/><path class="cls-165" d="M13,74c2.27.26,2.6-2.13,4.06-3-.14,4.38-4,8.47-1,13.09a2.07,2.07,0,0,0,.28.87,2.25,2.25,0,0,1-2.22.89A2.29,2.29,0,0,1,12,85.05l-1.12-1c0-.36.07-.72.1-1.08C10.76,79.8,10.54,76.59,13,74Z"/><path class="cls-148" d="M24.92,90.2l-5-.39A7,7,0,0,0,20,89l.1-.1c1.54-1.9,3.57-1.76,5.67-1.36,1.68.42,3.89-.14,4.44,2.38A3.23,3.23,0,0,1,28,91.05,4.52,4.52,0,0,1,24.92,90.2Z"/><path class="cls-166" d="M12,85.05a1.78,1.78,0,0,1,2.14.82A3.32,3.32,0,0,1,10,87.81Z"/><path class="cls-167" d="M6.05,92.05,8,93H8a3.44,3.44,0,0,0,3.71.84c5.14-1.45,10.2-.26,15.3.17-.56,3-3.29,1.73-5,2.5A9.2,9.2,0,0,0,19.1,97.7a5,5,0,0,1-1.05.63A.93.93,0,0,1,17,98L16,97c-2.2,1.28-4.48,2-7,1C6,97,5.52,94.77,6.05,92.05Z"/><path class="cls-168" d="M9,98c2.3-.6,4.57-1.39,7-1a7.25,7.25,0,0,1-6.05,3.91C11.16,99.44,9.58,98.89,9,98Z"/><path class="cls-169" d="M44,34l2.12-1.91C49,28,53.38,26,57.56,23.83A66,66,0,0,1,77.17,17c2.3-.27,4.57-2.11,6.9-.11a6.77,6.77,0,0,1,5.78,2.24c1.83,1.61,1.48,3.78,1.54,5.85-.21,3.49.43,7-.75,10.45a1.18,1.18,0,0,1-1.4.69c-1.57-1.18-1.47-2.92-1.57-4.6,0-1,0-2.09,0-3.14,0-.72,0-1.46,0-2.18a13,13,0,0,0-.24-2.72c-1.18-1.8-3-1.31-4.53-1-13.41,2.62-25.7,7.67-35.95,17a3.5,3.5,0,0,1-1.26.64C43.28,38.61,44.11,36.2,44,34Z"/><path class="cls-170" d="M90,25c-.06-1.95-.12-3.89-.19-5.84.06-.39.11-.78.17-1.17.73-2.08.27-4.13-.12-6.19A4.89,4.89,0,0,1,91.07,8c2.42.4,2,2.32,1.89,3.86-.37,8,.93,16.07-.87,24-.3,1.36-.5,3,.89,4.11v2c-1.08,2.34-.23,4.83-.53,7.22-.14,1.09-.06,2.54-1.89,1.47-1.75-4.46-1.14-9.06-.53-13.57A37.19,37.19,0,0,0,90,25Z"/><path class="cls-171" d="M77,17.9c-11.35,2.42-21.41,7.6-30.82,14.22l-1.25-1.21c2.2-2.65,5.48-3.82,8.06-5.95C57.2,21.73,62.63,20.91,67,18l9-2C76.56,16.56,77.52,16.84,77,17.9Z"/><path class="cls-172" d="M77,17.9l-1-1.84a50.36,50.36,0,0,1,7-1.8c2.61-.3,2.74.94,1,2.62Z"/><path class="cls-84" d="M91,12c-.28,2,.85,4.23-.93,6,.65-3.15-2.8-5.77-1.16-9l.2.14C90,9.81,90.2,11.07,91,12Z"/><path class="cls-173" d="M96,73c-3.33.63-1.94-2-1.95-3.17C93.93,58.21,94,46.6,94,35c0-8.2,0-16.4.09-24.6,0-1.58-1-3.84,1.86-4.29,1.56,1.82,3,3.75,1.34,6.18-1.82,2.6-.05,3.65,1.78,4.77l-.24.77c-2.06,3-1.35,6.37-1.49,9.63a23,23,0,0,1-.52,5.43c-.89,8.46-.28,16.93-.36,25.4C96.37,63.18,96.24,68.08,96,73Z"/><path class="cls-115" d="M116,19c.06.29.12.58.19.86-1.87,3.25-4.77,2.44-7.6,1.94-2.59-2.52-6.21-2.22-9.3-3.37a.86.86,0,0,1-.17-1.33L99,17l4.89-.27c1.15-1.06,2.52-.86,3.89-.65C110.6,16.87,113.63,17,116,19Z"/><path class="cls-174" d="M107.88,17.11l-3.95-.34L102.85,15l.13,0c2.87-.88,5.4.91,8.14,1.08C110.72,18.31,109.18,17.37,107.88,17.11Z"/><path class="cls-175" d="M91,12a2.79,2.79,0,0,1-1.89-2.9l2-1.06Z"/><path class="cls-176" d="M141.06,51l4.09-4.73c1-1.42,2.54-2.21,3.81-3.32h0c3.42.12,5.06,2.77,7,5,2.16,3.52,5,6.66,6.11,10.77.72,1.39,1.19,2.89,1.91,4.28l2,5c.65,1.38,1,2.74-.52,4.22-2.63-2.54-2.64-6-4-8.74,1.08,4.56,3.62,8.82,5.08,13.46A34.61,34.61,0,0,1,168,83.23c.59,5-1,6.56-6.49,6.4-1.47-2.45-.62-5.31-.07-7.47,1.13-4.39.12-8.22-1.29-12.08a66.83,66.83,0,0,0-9.53-17.89c-2.09-2.71-4.13-3.75-6.89-1a3.52,3.52,0,0,1-1.38.42A2.28,2.28,0,0,1,141.06,51Z"/><path class="cls-177" d="M161,89c6.09-.14,6.89-1.19,5.46-7.14A157.56,157.56,0,0,0,160,62.5c3.61,2.18,3.78,5.76,5,8.78,1.48-1,.68-2.26.93-3.25,2.57,4.36,3.13,9.3,4.05,14.13.29,1.56-.28,3.46,1.88,4.15a7.27,7.27,0,0,0-2.85,3.42l-4.06.39c-3.1,1.88-6.28,1.62-9.49.32-.95-.92-.43-1.56.41-2.14C157.72,87.61,159.45,87.51,161,89Z"/><path class="cls-177" d="M164,63a4.94,4.94,0,0,1-1.91-4.28A4.75,4.75,0,0,1,164,63Z"/><path class="cls-128" d="M179,89l-1.14.07c-.88.65-1.63,1.7-3,1h-4C173.33,87.25,176.07,87.29,179,89Z"/><path class="cls-178" d="M81.19,169.83a1.31,1.31,0,0,1,.83.09c0,1.78-1,1.67-2.15,1.15l-3.74-.23C77.57,169.28,79.55,170.4,81.19,169.83Z"/><path class="cls-179" d="M86.87,170.07l1-.14a1.58,1.58,0,0,1,2-.22c.68,1.16.06,1.78-.92,2.24-.66,1-1.25,1.94-2,2.82-1.47,1.75-1.75.38-2-.84Z"/><path class="cls-180" d="M79.87,171.07c.86-.12,1.72-.24,2.15-1.15l3,.11c-.63,3.44-3.07,2.16-5.1,1.95A4.61,4.61,0,0,0,79.87,171.07Z"/><path class="cls-181" d="M89,172l.81-2a6.86,6.86,0,0,1-1.29-4.21c.22-15.26,0-30.53.13-45.8a7.09,7.09,0,0,1,.7-3.38,1.16,1.16,0,0,1,1.64-.53c.05.63.11,1.26.17,1.89-.25,5.14,1.39,10.4.72,15.27-.72,5.13-1.43,10.3-.3,15.1A106.91,106.91,0,0,1,94,168.81c.12,3.32-.75,6.41-1.62,10.12-1.67-1.48-.87-3.14-1.37-4.32-.82-1.92-1.29.5-2,.32Z"/><path class="cls-182" d="M90,116q-.14,27-.26,54l-1.87,0c-2.19-2.46-5.36-2.28-8.17-2.89a68.86,68.86,0,0,1-34.18-18.13,3.09,3.09,0,0,1-.44-.87c1.36-1,2.81-2,2.91-3.94a9.56,9.56,0,0,1,4-4c-2.24,6.78,2.74,9.16,7.24,11.76,7.49,4.33,15.26,7.91,23.86,9.62,3.83.76,5.32-.1,4.53-4.05-.06-1.56-.07-3.12,0-4.68,0-1.93-.08-3.86,0-5.8s-.07-4,0-5.93c-.08-2,0-4,0-6a42.66,42.66,0,0,1,0-4.38c.21-4.77-.93-9.62.89-14.29A1.11,1.11,0,0,1,90,116Z"/><path class="cls-183" d="M88.93,157.94c1.08,4.95-1.47,5.76-5.55,4.94-11.21-2.24-21-7.43-30.56-13.56-4.71-3-2.72-6-.79-9.21a11.75,11.75,0,0,1,4-4.06,2.42,2.42,0,0,1,.55,1.33,4.14,4.14,0,0,1-.4,1.38c-2.48,3.34-.26,5.11,2.29,6.71,8.6,5.39,17.65,9.7,27.8,11.3A4.64,4.64,0,0,1,88.93,157.94Z"/><path class="cls-184" d="M56.86,130.83,53,134c-1.75.9-3.45,2-5.59,1.45-1.17-.73-.63-1.62-.24-2.5a53.17,53.17,0,0,1,4.19-4.44c1.11-1.07,2.2-2.16,3.26-3.29,1.36-1,2.29-3,4.51-2.29.6,1.65.36,3.41.58,5.12A3.5,3.5,0,0,1,56.86,130.83Z"/><path class="cls-185" d="M47.1,135c2-.36,3.82-1.43,5.92-1-2.32,3.7-6.63,5.38-9.11,8.92l-6.06,1,2.37-2.76c-.29-3.24,3.09-3.6,4.38-5.6C45.36,135,46.09,134.31,47.1,135Z"/><path class="cls-186" d="M56.86,130.83c.7-1,1.4-1.93,2.11-2.89s1.28-2.46,3-2.36A3.44,3.44,0,0,1,64.23,127c.14,2.72-2.2,3.77-3.64,5.44a2.74,2.74,0,0,1-2.52.77A2.72,2.72,0,0,0,56.86,130.83Z"/><path class="cls-136" d="M58.07,133.16l2-1a1.87,1.87,0,0,1,.47,1.14,4.09,4.09,0,0,1-1.14,2.24c-.93.8-1.71,2-3.24,1.49,0-.31-.06-.63-.1-.95Z"/><path class="cls-187" d="M99,176c-2-2.32-2-5.14-2-7.95-1-10.44-.23-20.9-.4-31.35.19-.78.64-1,1.36-.64l.15-.08a7,7,0,0,1,1.31,4.91c0,2,.07,3.92,0,5.89,0,1.65,0,3.29,0,4.94a17.92,17.92,0,0,1-.41,4.9A3.62,3.62,0,0,1,98,158c0,2,0,4,0,6-1.33,6.7,3.8,4.66,7,5.19,0,.26-.09.52-.13.79l-.47.51a2.18,2.18,0,0,1-2.57-.37c-3.67,1.66.18,3.26,0,4.9Z"/><path class="cls-188" d="M127,169c-1.18-.7-1-1.78-.78-2.87l2.72-1.23C131.53,166.64,131.53,166.64,127,169Z"/><path class="cls-189" d="M111,171l-4,.08c-1.16.46-2.22.73-2.14-1.13v0C106.91,170.52,109.27,169.08,111,171Z"/><path class="cls-190" d="M109.94,174.93c-1.51-.11-3.32.72-4.37-1.49,2-1,3.4-.4,4.36,1.49Z"/><path class="cls-191" d="M104.93,169.94c.45.87,1.3,1,2.14,1.12-2,1.07-4,2.2-5.18-1Z"/><path class="cls-192" d="M108,21c2.75-.11,5.6.57,8.14-1.09a1.4,1.4,0,0,1,.85.21c2.2,1.28,4.37,2.66,7,2.75.65.4,1.3.8,1.94,1.21L128,27a3.48,3.48,0,0,1-2.83,1.1c-4.27-.63-8-3.14-12.27-3.66-2-.41-4.26-.19-5.08-2.72Z"/><path class="cls-193" d="M107.88,17.11c1-.32,2.35.14,3.07-1.09A.63.63,0,0,1,112,16c2,.78,4.27.58,6,2A2.34,2.34,0,0,0,116,19C113.26,18.41,110.42,18.39,107.88,17.11Z"/><path class="cls-115" d="M124,22.84c-3.31,1.54-5.06-.9-7-2.75C119.5,20.62,122,21.07,124,22.84Z"/><path class="cls-194" d="M125,27h3c4.1,2.12,8,4.62,11.85,7.08,3.09,2,3,3.7,1.35,6.23.57,2.64-.72,3.75-3.19,3.88.76-3.69-1.81-5.27-4.4-6.69-3-1.64-5.81-3.65-9.17-4.56-3.26-1.76-7.24-1.95-10-4.67-1.39-3.33.67-3.08,2.85-2.79C119.85,25.82,122.08,28.12,125,27Z"/><path class="cls-195" d="M138,43.73a6.56,6.56,0,0,0,3.23-3.43l2.68-1.61c.12,1.26.56,2.24,2,2.28L118.85,68.91c-.91,2.91-2.77,4.71-5.91,5a2,2,0,0,1-2-.9c-.72-1.3.3-2.07.9-3a9.05,9.05,0,0,1,.9-1,29.87,29.87,0,0,0,3.54-3.83,5.3,5.3,0,0,1,1.62-1.2c5.74-2.73,9.64-7.38,13.09-12.49a4.46,4.46,0,0,1,.91-.93c1.74-.64,2.26-2.25,2.92-3.74.35-.75.72-1.48,1.13-2.2a4,4,0,0,1,.8-1A1.26,1.26,0,0,1,138,43.73Z"/><path class="cls-196" d="M151.56,30.83c.14,1.41-.81,2-1.82,2.38-.08,0-.69-.66-.62-.91A1.82,1.82,0,0,1,151.56,30.83Z"/><path class="cls-19" d="M112,16,111,16l-8-1.12C106.23,13.15,109.07,15,112,16Z"/><path class="cls-197" d="M167.91,97.11A8.12,8.12,0,0,0,168,98c.11,15.93-5.79,29.7-15.09,42.27-1.08,1.45-2.59,2-4,2.81-2.77-.17-4.28-1.46-4-4.4,10.05-9.32,13.74-21.69,16.57-34.49,1-4.43-2.44-4.72-5.18-5.71A1.07,1.07,0,0,1,156,97C160,95,164,94.73,167.91,97.11Z"/><path class="cls-198" d="M144.87,139a13,13,0,0,0,4,4L150,144c0,.33,0,.66,0,1-3.41.42-6-1.06-6.83-4.22-.91-3.43-5.43-2.47-6.14-5.76.7-.58.2-1.72,1-2.24,1.51-.23,2.4.81,3.4,1.65C142.68,135.87,144.53,136.88,144.87,139Z"/><path class="cls-199" d="M138,133a2.19,2.19,0,0,1-1,2c-.18-2.53-2.78-1.88-4-3,1.62-2.77-2.52-3.53-2.05-5.9,1-.64,1.75,0,2.53.49a46.41,46.41,0,0,1,3.92,3.89C138,131.19,138.52,132,138,133Z"/><path class="cls-200" d="M167.91,97.11c-4.06.21-8.24-1.48-12.19.7-1.52,1.88-3.62,1.38-5.61,1.36a9.56,9.56,0,0,1-1.68-.31c-5.57-1.07-11.2-.25-16.8-.5-.8,0-1.62,0-2.42,0a18,18,0,0,0-6.15.51,10.49,10.49,0,0,1-5.42-.07,2.93,2.93,0,0,1-1.6-1.64l0-1.1c5.25-2.24,10.77-.51,16.14-1.07,9.8-.42,19.61-1,29.43-.39,2.75,0,5.51-.13,8.25.08,1.64.13,3.75-.27,4.17,2.25l-1.24.21Z"/><path class="cls-201" d="M174,96.92c-4.12-2.12-8.58-.43-12.83-1.12-.82-.64-.7-1.38-.2-2.15a4.05,4.05,0,0,1,1.5-.74c5.83.23,11.66,1.39,17.5.08l1-1c-.1,1.61-.19,3.22-.29,4.83L179,97.93C177.14,98.38,175.67,97.18,174,96.92Z"/><path class="cls-202" d="M115.55,88.73c.48-3.51-3.83-6.08-1.93-9.87a39.59,39.59,0,0,1,9.68-9.34,2.59,2.59,0,0,1,1.51,0c6,5.08,9.23,13.31,7.3,18.77-2.33,1.62-5.17.58-7.63,1.48C121.4,90.35,118.34,90.64,115.55,88.73Z"/><path class="cls-203" d="M109.72,72.84c-1.8,1.5-3.53,2-5.77.49C102.19,72.2,100,71.72,98,71c-2.62-4.87-1.28-10-1-15a1.18,1.18,0,0,1,.23-.43c4-3.43,7.16-.07,10.35,1.48,3.71,1.81,10,1.45,8.26,8.62a10.16,10.16,0,0,1-3.2,4.24l.12-.12A41.61,41.61,0,0,1,109.72,72.84Z"/><path class="cls-204" d="M115.55,88.73,124,89c5.2-.42,10.36-1.45,15.6-1.37,1.16-.08,2.32.08,3.48.1,8.69.19,10.82-2.32,8.55-10.87-2.2-8.3-6.46-15.63-11.83-22.32-.53-2,1-2.59,2.22-3.4.32-.06.63-.11.95-.14,1.73-1.18,2.81,0,3.77,1.13,6.24,7.31,10.69,15.45,11.64,25.2.25,2.59,1.46,5,.73,7.79-.5,1.91-1.15,3.33-3.11,3.92L155,90l-.69.6a6.32,6.32,0,0,1-2.66.68C140.32,92,129,91,117.62,90.83A4.82,4.82,0,0,1,116,90C115.54,89.66,115.22,89.32,115.55,88.73Z"/><path class="cls-205" d="M117,90.13,152.88,90c-.25,2.29,1.73,1.71,2.86,2.21-.34-.7-1.29-1.21-.68-2.21h0l10,.08c0,.3,0,.61,0,.91-.13,2.62-2.48,2.22-4,2.93h0c-6.36,1.68-12.86.46-19.27,1-2.55-.76-5.47,0-7.76-1.88L132,93c-3.45-2-7.27-1.27-11-1.55C119.67,91.3,117.62,92.74,117,90.13Z"/><path class="cls-206" d="M98,76l0,1c-.65,2.06-.64,3.87,1.48,5.21,1.26.8,2.52,1.8,1.62,3.65-1.4.93-2.55-.09-3.7-.58-5.45-2.32-7.5-1.33-9.34,4.64a4.39,4.39,0,0,1-1.68,2.21,1.62,1.62,0,0,1-1.33,0,2.31,2.31,0,0,1-.63-1.18c-.07-1.31.43-2.6.24-3.93-.27-2.36-1.7-3.53-3.94-3.88a6,6,0,0,1-1.31-.46,1.49,1.49,0,0,1-.69-1.13A2.83,2.83,0,0,1,80,79.89a5.1,5.1,0,0,1,4.16-.84c2.93,1,1.14-1.81,2.07-2.35,2.15-.94,4.28-2,6.74-1.71h0C94.47,76.21,96.48,74.82,98,76Z"/><path class="cls-207" d="M101,86c0-2-1.63-2.38-3-3.27C95.24,81,94.58,78.83,98,77l4,2c1.07,1.34,2.94,1.64,4,3a2.22,2.22,0,0,0,2,1,8.11,8.11,0,0,0,.25,1.94c2.11,5.35,1.69,6-4.2,6h-2c-.17-.16-.33-.31-.5-.45a7,7,0,0,1-.6-3.89Z"/><path class="cls-208" d="M93,75a8.44,8.44,0,0,1-7,2c-.06-.22-.11-.44-.17-.66a2.25,2.25,0,0,1,1.83-1.26c-1.32-.86-2.84,0-4.17-.57a1.32,1.32,0,0,1-.79-1.07c.83-2.83,3.73-2.61,5.65-3.85a3,3,0,0,0,1-1c.58-4,.1-8,.29-11.95.09-2-.34-4.05,1.44-5.57C93.4,48.37,90.52,44.62,93,42,93.54,53,92,64,93,75Z"/><path class="cls-209" d="M99.08,17.12c0,.3,0,.61,0,.91a8.65,8.65,0,0,1-.56,3.49c-.37,6.61-.16,13.22-.15,19.82,0,9.88-1.14,19.7-1.32,29.56h-.47l-.47-.05c-1.37-2.47-.62-5.15-.6-7.71.11-10.36-.53-20.73.34-31.08,0-3.43,0-6.86.14-10.27C96.13,19.73,96,17.34,99.08,17.12Z"/><path class="cls-210" d="M97.09,70.9l0-47.75a4.92,4.92,0,0,1,.73-3.32l.62.44a5.8,5.8,0,0,1,.79,2.93c.07.77.08,1.54.09,2.31,0,1.57,0,3.13,0,4.7s0,3.26,0,4.88.07,3.37,0,5.06c.12,2,.05,4.06,0,6.1,0,3,.64,6.06-1.29,8.76Q98.06,63,98,71l-.46.1Z"/><path class="cls-211" d="M132.83,95.83,116,96.05c-1.35.44-3.24,1.54-3.43-.83-.16-1.92,2-1.22,3.1-1.23,6.11-.08,12.22,0,18.32,0,1.62-.82,3.28-.52,4.94-.21.48,1.37-.4,1.59-1.43,1.69C136,95.61,134.34,95.15,132.83,95.83Z"/><path class="cls-212" d="M95.89,32.06q.12,19.39.26,38.8C96.1,71.57,96,72.28,96,73c-.12-.12-.33-.23-.34-.35C94.71,59.11,94.24,45.57,95.89,32.06Z"/><path class="cls-213" d="M112.94,73.93l5.91-5A2.1,2.1,0,0,1,120,71a12.7,12.7,0,0,1-5.9,6c-1.89.65-2.62,2.38-3.67,3.84-.63.88-1.59,1.29-2.49.32s-.08-1.48.46-2.09Z"/><path class="cls-214" d="M114.08,77c2-2,3.93-4,5.9-6l2.16-1c.37-.42.68-.39.94.1-3,3-5.46,6.73-9.46,8.72C113.78,78.24,113.93,77.63,114.08,77Z"/><path class="cls-215" d="M106,106c-1.73-1.76-1.21-3.71-.19-5.47,1.2-2.07,2.44-2.21,3.16.43C107,102.05,109.31,105.69,106,106Z"/><path class="cls-216" d="M117,90.13c2.73,1.77,5.76.61,8.64.81,2.32.16,4.62,0,6.32,2a49.65,49.65,0,0,0-12.7-1c-1.51,0-3.07.09-3.29-2Z"/><path class="cls-217" d="M105.94,82c-2.12,0-3.84-.46-4-3C104.13,78.92,106.34,78.78,105.94,82Z"/><path class="cls-218" d="M116,97.15l1,.78c.56,2.76.73,5.34-2.93,6.07.21-1,.43-2,.64-3.06C115.16,99.68,115.6,98.41,116,97.15Z"/><path class="cls-216" d="M138.82,94.06,134,94c0-.31,0-.62-.07-.93,2.38.24,4.91-.81,7.11.85A1.6,1.6,0,0,1,138.82,94.06Z"/><path class="cls-219" d="M109.72,72.84a5,5,0,0,1,3.1-3.13L111,73Z"/><path class="cls-208" d="M98,76c-1.68-.25-3.6.67-5-1C94.67,75.24,96.58,74.32,98,76Z"/><path class="cls-136" d="M98.05,157v-5c4.47-2.07,9.39-2.71,14-4.33,6.85-2.39,12.5-6.66,18.9-9.64l2.92,2a8.28,8.28,0,0,1,.09,1c-.35,4.89-4.77,6.14-7.94,7.82-7.33,3.89-15.3,6.4-23.3,8.68C101.14,157.93,99.5,158.21,98.05,157Z"/><path class="cls-138" d="M98.05,157c4.33.17,7.79-2.31,11.59-3.51q7.22-2.26,14.29-4.95A21.41,21.41,0,0,0,134,141c1.84,1.34,3,2.07.15,4.22a70.48,70.48,0,0,1-31.45,13.12c-1.72.29-3.17.63-4.67-.35Z"/><path class="cls-220" d="M98.06,141v-5c7.12-3,16.61-1.06,20.92-10l3.92,3,1.07,2c-1,4-4.8,4.59-7.69,6.33-4.36,2.61-9.35,3.17-14.07,4.59A4.05,4.05,0,0,1,98.06,141Z"/><path class="cls-202" d="M102.89,114.94c1.86.65,3.61-1.51,5.67.09,5.34,4.14,5.26,5.64-.87,8.6-3,1.45-6.07,2.69-9.52,2.32-2.4-2.61-.5-5.66-.86-8.47C98.36,114.85,100.53,114.68,102.89,114.94Z"/><path class="cls-131" d="M97.84,116.84l.33,9.11Q98.05,131,97.91,136a4.53,4.53,0,0,1-.64-.13c-1.42-5.62-.89-11.28-.29-16.93l-.84-1.9A1.08,1.08,0,0,1,97.84,116.84Z"/><path class="cls-221" d="M97.84,116.84l-1.7.24a1.78,1.78,0,0,1,.8-2.16l6.15-.86a3.75,3.75,0,0,1-.2.88C101.21,115.58,99.23,115.43,97.84,116.84Z"/><path class="cls-222" d="M89,116q0,7.5,0,15c-7.49,1.48-16.29-1.45-19.51-6.49-.45-2.06,1.79-2.5,2.38-3.93,1.41-1.53,2.92-3,4.2-4.61,2.43-3.09,5.14-4.33,8.7-1.85C86.11,114.78,88.07,114.2,89,116Z"/><path class="cls-223" d="M64,127a2.19,2.19,0,0,1-2-1,1.47,1.47,0,0,1-.15-1.32c1.44-2.4,3.72-4,5.51-6.11a68,68,0,0,1,5.77-6.23,13.57,13.57,0,0,1,2.78-2.93c2-.91,3.27-3.55,6.07-2.62a.9.9,0,0,1,.29.8c0,.29-.1.44-.17.44-.73,3.68-4.76,4.25-6.56,7-1.52,2.3-4.38,3.53-5.36,6.33.07,1.44-1.12,2.23-1.73,3.32C67.13,125.77,65.92,127.06,64,127Z"/><path class="cls-224" d="M82,108q0-.47-.06-.93c-2.21-1.35-4.44-2.67-5.44-5.26-.13-2.64,1.48-2.51,3.28-2.05a7.11,7.11,0,0,1,1.22.57c1.06.72,2.08,1.5,3.19,2.16a28.14,28.14,0,0,0,3.21,1.93c.51.42.94.87.55,1.6C87.51,111.18,84.46,108.64,82,108Z"/><path class="cls-225" d="M88,106l-1-1c-.32-.88.16-1.43.77-1.93,3.15-.52,6.28-1.3,9.5-1.23,1.82,0,3.63.35,4.69,2.16-1.54,3.35-5.26-.82-6.95,2C92.65,109.35,90.32,106.39,88,106Z"/><path class="cls-139" d="M89,116l-4.28-1.87c2.49-.64,5.24-2.14,6.24,2l-.46,0H90Z"/><path class="cls-135" d="M68,124.09l2.08-2.84,1.71-.7L70,124c-.37.45-.5,1.08-1.11,1.33a1.61,1.61,0,0,1-1.13-.26A.66.66,0,0,1,68,124.09Z"/><path class="cls-226" d="M86,92l1-2c5-6.5,10.12-6.86,14-1a5.65,5.65,0,0,0,1,2h0c0,.66,0,1.32,0,2l-.64.28a10,10,0,0,1-3.29-1.1c-5.67-2.29-6.39-2-8.45,3.58-.27.73-1.23,1.14-1,2.25,1.85,1.42,4.1.51,6.16.85,1.66.27,3.86-.43,4.31,2.22a2.69,2.69,0,0,1-1.35.81,61,61,0,0,1-6.48.17c-2.75,0-6.1.87-7.52-2.35C82.54,96.84,84,94.21,86,92Z"/><path class="cls-227" d="M102,104c-4.65-2-9.32-.42-14-.07-.82-.36-1.39-.85-1-1.86,3.6-1.2,7.32-.27,11-.56,1.54,0,2.69-.74,2.7-2.29,0-3.65,2.59-4.44,5.32-5.18,1.39,0,2.38,1.84,1.93,2C103.73,97.19,105.43,102.51,102,104Z"/><path class="cls-226" d="M105.94,94c1.34,4.23-4.59-.67-4,3.22.31,1.92,1,5-3,4.71-.33-.2-.45-.41-.35-.63s.21-.33.32-.33l0,0c.66-2.77-.26-6.13,2.94-8L102,93Z"/><path class="cls-228" d="M132.71,127.09,131,126,129,124a4.51,4.51,0,0,1,0-1c5.75-5.27,7.93-12.26,9.9-19.51.71-2.6-2.73-3.62-1.34-6,2.33-.06,4.65,0,7,0,4,3.36,4.47,5.94,2.07,10.08-3.16,5.46-4.5,11.86-8.64,16.82C136.53,126.05,135.52,128.32,132.71,127.09Z"/><path class="cls-229" d="M114.07,104c2.64-1.22,1.5-4.27,2.93-6.07l5.77-.09a3.21,3.21,0,0,1,2.18-.2c1.86.72,4-.1,5.77.87,1.12,5.63.28,7-5.11,8.9-1.39.48-1.56,2-2.24,3.14-1.43,2.27-3.05,3.41-5.56,1.5C115.82,109.71,110.87,108.75,114.07,104Z"/><path class="cls-230" d="M117.81,112.05c4.12,1,4.66-2.46,6-4.89.51-.94.25-2.53,1.82-2.49s1,1.92,2.13,2.7c2.43-2.29,1.69-5.81,3.25-8.38,4.92-1.58,5.51-1.06,4.68,3.79a38.48,38.48,0,0,1-4.46,13.48c-1.39,2.33-3.1,4.46-6.35,2.77A35.81,35.81,0,0,1,117.81,112.05Z"/><path class="cls-231" d="M124.85,119c3.27.26,4.58-2,5.85-4.42,2.45-4.74,3-10,4.31-15.23-1.09-.9-2.62-.19-4-.39-2-.34-4.25.82-6-1,1.17-1,2.81.07,4-.9l2,0c1.87,1.16,4.14-.28,6,.93,3.29.88,3.79,2.89,3,6a65.69,65.69,0,0,1-7,16.88c-1,1.76-2.38,2.15-4.14,2.11A10.2,10.2,0,0,1,124.85,119Z"/><path class="cls-137" d="M131,138a36.37,36.37,0,0,1-17.17,10c-3.66.92-6.7,3.39-10.73,3.83a19.36,19.36,0,0,1-5,.12c0-1.67,0-3.34,0-5,2.23-1.86,5.08-2.5,7.71-3.15a66.82,66.82,0,0,0,19.39-8.35A3,3,0,0,1,128,135l2.93,2C130.94,137.33,131,137.65,131,138Z"/><path class="cls-135" d="M128,135c-8.94,6.55-19.09,10.11-29.91,12v-6c9.57-.89,18.34-3.9,25.91-10l2.94,2C127.26,133.66,127.61,134.32,128,135Z"/><path class="cls-221" d="M97,119q.15,8.46.29,16.93Q97.1,152,97,168l-.92-.12c0-14.57,0-29.15.14-43.72C96.18,122.45,95.53,120.52,97,119Z"/><path class="cls-204" d="M129.13,63a41.14,41.14,0,0,1,8-8,.64.64,0,0,1,1.07,0,3,3,0,0,1-.81,2.51c-1.17,1.33-2.47,2.54-3.71,3.81a6.87,6.87,0,0,1-3.32,2.12A1.89,1.89,0,0,1,129.13,63Z"/><path class="cls-232" d="M138,55.12c-.29,0-.59,0-.88-.08a12,12,0,0,1,3.94-4l.94.08L140,54C139.63,54.91,139.05,55.44,138,55.12Z"/><path class="cls-135" d="M123.08,70.14a4.92,4.92,0,0,0-.94-.1,12,12,0,0,1,4-4,.63.63,0,0,1,1.06,0c.12,2.27-1.51,3.12-3.19,3.94A4.74,4.74,0,0,0,123.08,70.14Z"/><path class="cls-91" d="M149,43a6.81,6.81,0,0,1-3.81,3.32A4.18,4.18,0,0,1,149,43Z"/><path class="cls-233" d="M127,66.12l-.89-.08a6.77,6.77,0,0,1,3-3l.94.08a1.34,1.34,0,0,1,.11,1.23C129.41,65.43,128.63,66.51,127,66.12Z"/><path class="cls-122" d="M161,94,165,91c4.6,3.76,10,1.2,15,2C173.73,95.17,167.29,93.41,161,94Z"/><path class="cls-234" d="M174.92,90l3-1C177.57,91.44,176.44,91.31,174.92,90Z"/><path class="cls-235" d="M45.28,136.07c-.79,2.58-4,2.77-5.06,5.06-7.71-6.85-11.1-16.09-14.13-25.52-.29-.92-.13-2-1.09-2.63-1.86-4.75-3.05-9.58-1.61-14.69,1.38-1.86,3.67-1.47,5.5-2.22,2.22-.41,4.45-.68,6.62.26a1.45,1.45,0,0,1,.78,1.31,2.13,2.13,0,0,1-1,1.09c-4.34.42-5.08,2.7-4.46,6.83a66.42,66.42,0,0,0,7,22.07A22.55,22.55,0,0,0,45.28,136.07Z"/><path class="cls-236" d="M24,98q.49,7.5,1,15c-1.72-.69-1.8-.3-1.39,1.46a68.75,68.75,0,0,0,11,24.64c.42.58,2,1.25.43,2.17-.43.25-1.26-.17-1.91-.28A55.56,55.56,0,0,1,22.9,123.23a57.71,57.71,0,0,1-4.21-19.67C18.44,98.34,19,98,24,98Z"/><path class="cls-143" d="M24,98c-1.16.66-.91,2-1.21,3.09-1.35-.51-.29-2.46-2.38-2.5C18.88,107,21.88,115,22.9,123.23L21,121q-1.41-5.12-2.84-10.24a2.64,2.64,0,0,1-1.13-2c-.21-3.62-1.67-7.36,1-10.72L18,97.91c1.07-1.72,3-1.35,4.57-1.86,2.2.27,4.68-1,6.54,1.17C27.53,98.46,25.7,97.8,24,98Z"/><path class="cls-237" d="M25,88.94c-1.66-1.32-3.32-.11-5,0A22.8,22.8,0,0,1,22,78a2.78,2.78,0,0,1,.33.35c-.41.52-.51,1-.11.47,1.07-1.45,1.35-3.19,1.87-4.85A71.87,71.87,0,0,1,40,46L41.09,46C43,47.39,44.85,48.83,46,51a2.35,2.35,0,0,1-1.94.62c-2.73-.7-3.82,1.38-5,3.1a74.87,74.87,0,0,0-11.28,24C26.88,82.14,27.62,86,25,88.94Z"/><path class="cls-238" d="M40,46c-.53,3.06-2.77,5.3-4.48,7.5-6.4,8.22-9.15,18-12.86,27.48-1.13-.85-.37-2.06-.63-3,1.95-11.26,7.34-20.86,14.29-29.7C37.18,47.11,38.2,45.9,40,46Z"/><path class="cls-131" d="M88.88,22.94,89,26c-2.55,1.84-5.66,1.6-8.52,2.23C69.29,30.7,59,34.74,51,43.26a2.91,2.91,0,0,1-1.18.87l-4.05-4,.43-.17a71.49,71.49,0,0,1,39.47-17.8A3.82,3.82,0,0,1,88.88,22.94Z"/><path class="cls-239" d="M89,28l0,3c-1.28,1.28-3,1.29-4.61,1.54a59.44,59.44,0,0,0-31,14.55A1.42,1.42,0,0,1,51.92,47l-2.14-2.88.38-.25c7.17-8.19,16.68-12.23,26.9-14.75C80.88,28.18,84.73,25.47,89,28Z"/><path class="cls-240" d="M51.92,47l1,.15c1.68.1,2.53,1.45,3.66,2.39,1.34,1.37,2.7,2.71,4.08,4.05A11.64,11.64,0,0,1,63,56.84c1.55,3.31,3.92,6.17,5.25,9.6l-.32.62c-3.93-.78-5-4.61-7.31-7C54.1,53.21,46.84,47.23,40,40.78c4.39-.34,5.64,5,9.65,5.38A9.16,9.16,0,0,1,51.92,47Z"/><path class="cls-203" d="M64.93,70l2,1.18c4,1.51,6.34,4.74,8.63,8,.21,2.66-1.55,4.53-2.66,6.66-1.06,1.43-1.63,3.32-3.59,3.91-3.55.7-7-.51-10.58-.27-3.06-.27-3.81-2.22-3.43-4.88a22.77,22.77,0,0,1,8.12-14.82A1.51,1.51,0,0,1,64.93,70Z"/><path class="cls-241" d="M58,88.91l12-.07a.85.85,0,0,1,1.3.49,1.09,1.09,0,0,1-1,1.14c-2.75-.15-5.52.31-8.26-.27H59a123.59,123.59,0,0,1-19,0l-2,0c-1.62.4-3.16,1.16-4.89,1.1a3.78,3.78,0,0,1-3-1.33c-1.45-1.51-3.34-.66-5-1,.55-3.68.41-7.47,2-11,.12.11.31.2.35.33.14.49.51.59.61.15,2-9,6.5-16.81,11.56-24.35,1-1.57,1.91-3.63,4.47-3.13h2a31,31,0,0,1,7,7,1.86,1.86,0,0,1-1.83.51,8.78,8.78,0,0,1-2.64-1.92A12.49,12.49,0,0,0,47,55.41c-2.71-.74-3.3,1.59-4.37,3.09a61.11,61.11,0,0,0-8.79,17.78,25.61,25.61,0,0,0-1.59,5.08c-1.09,5.8-1,5.9,5,6.22,2.67,0,5.34.06,8,0,3.16.1,6.32-.19,9.47.23C55.73,88.3,56.92,88.39,58,88.91Z"/><path class="cls-242" d="M45,89H36c-3.49-3.23-1.8-6.21.42-9.16,2,.89,1.2,2.21,1.13,2.38,1-7,4.51-14.24,9.39-20.86C48,59.88,49,58.29,51,58l2,0a46.29,46.29,0,0,1,8,8l-.56.47c-2.06.7-3.12-.75-4.28-2-2-2.58-3.9-2.81-5.81.2a56,56,0,0,0-7.76,17.19c-.61,2.59-.09,4.59,2.44,5.81A1,1,0,0,1,45,89Z"/><path class="cls-243" d="M74.71,79.11c-2.8-2.44-5.68-4.8-7.79-7.92.57-1-1.63-2.85,1-3.2,4.23.44,5.89,4.32,8.81,6.53,1.29,2,4.76,3,3.18,6.42l-1,1C75.69,83.67,76.12,80,74.71,79.11Z"/><path class="cls-244" d="M76,75l-8-7a3.22,3.22,0,0,0,0-.93l.13-.12c.84-1.74,2.15-1.34,3.5-.77a4.84,4.84,0,0,1,1.06.8,6.67,6.67,0,0,0,3.05,2.29,63.35,63.35,0,0,0,7.13,4.56,1.14,1.14,0,0,1,.56.25c-.2,1.74-1.55,2.19-2.91,2.64C78.54,77.23,77.56,75.31,76,75Z"/><path class="cls-245" d="M64.93,70a5,5,0,0,1-1,.11c-2.54,0-3.71-1.2-3.22-3.79L61,66A10.22,10.22,0,0,1,64.93,70Z"/><path class="cls-157" d="M18,98c-1.68,3.66-.47,7.34-.08,11A1.28,1.28,0,0,1,16,109c-.31-.68-.63-1.36-.94-2,2.16-2.66-.22-6.3,2-9C17.34,98,17.68,98,18,98Z"/><path class="cls-156" d="M16,109l1.93,0c.07.57.15,1.15.22,1.73-.32,1.07.15,2.41-1.09,3.16C16.71,112.26,16.36,110.62,16,109Z"/><path class="cls-246" d="M20.94,95.89C22.55,94,25.39,96,27,94l10-.13a108.61,108.61,0,0,1,20.16,0l2.78,0c3.16-1.76,6.8-.18,10-1.43C72.47,91.55,75,91,76.66,94a3.62,3.62,0,0,1,0,1.7c-1,2.07-2.87,2.57-5,2.7a9.26,9.26,0,0,1-2.51-.73,47,47,0,0,0-9.41-.22c-12.4.57-24.73-1.11-37.11-1A2.2,2.2,0,0,1,20.94,95.89Z"/><path class="cls-247" d="M76,95c-1-3.63-4-1.34-6-2a18.05,18.05,0,0,1-9,0c2.61-2.48,6.43.56,9-2,0-.54.69-.65.84-1.12A1,1,0,0,0,71,89c.75-1.2-.1-2.89,1.19-3.93,1-1.91,2.43-3.65,2.49-6,1.69.52,1.94,3.15,4.19,2.85L79,82a2.39,2.39,0,0,1-.24,3.2c-1.75,2.2-1.62,4.59-1,7.09C77.7,93.52,78,95.05,76,95Z"/><path class="cls-247" d="M57.08,93.87l-20.16,0A46.48,46.48,0,0,1,57.08,93.87Z"/><path class="cls-248" d="M40,90.17l19,0C52.64,91.13,46.33,92.08,40,90.17Z"/><path class="cls-249" d="M30.05,89.9l3,.2c1.1,1.46.05,2.15-1,2.81l-3,0c-1-.68-2.11-1.33-1.06-2.79Z"/><path class="cls-250" d="M8,93c1.19-3.29,3.35-1.9,6.28-1.33C11.81,93.54,9.76,92.71,8,93Z"/><path class="cls-248" d="M32,92.91c.34-.93.69-1.87,1-2.81l5,0C36.32,91.8,34.73,93.59,32,92.91Z"/><path class="cls-251" d="M61,93l9,0c-3.22,2-6.75.6-10.13.91Z"/><path class="cls-252" d="M28,90.15,29,92.94c-2,.06-4.19.36-4.09-2.75Z"/><path class="cls-248" d="M70.81,89.86,70,91c-2.63-.39-5.42.72-7.94-.78Z"/><path class="cls-156" d="M20.94,95.89l1.26.2c.22.4.1.66-.32.79a6.05,6.05,0,0,0-3.92,1C18.06,95.92,19.56,96,20.94,95.89Z"/><path class="cls-253" d="M55.9,50.17a7.51,7.51,0,0,1-3-3,3.47,3.47,0,0,1,1.21-2.62C64.43,36.64,75.73,31.29,89,31c0,1.66.07,3.33.1,5l-.52.55c-8.35,2-16.62,4.28-24.2,8.58C61.49,46.74,59.32,49.51,55.9,50.17Z"/><path class="cls-138" d="M88.88,22.94a71.1,71.1,0,0,0-38,14.44c-1.38,1-2.72,2.52-4.73,2.56,0-3.65,3.41-4.36,5.48-5.87,9.25-6.73,19.78-10.74,31-12.85C84.51,20.85,87.7,19.22,88.88,22.94Z"/><path class="cls-254" d="M89,28a67,67,0,0,0-34.67,13.2c-1.31,1-2.75,1.81-4.13,2.7a3.21,3.21,0,0,1,1.19-3.51C62.46,31.84,74.79,26.53,89,26,89,26.68,89,27.33,89,28Z"/><path class="cls-255" d="M91.07,51c0,5.09,0,10.19-.14,15.28,0,1.55.65,3.34-1.06,4.53a96.4,96.4,0,0,1,0-34.79c.06-3.7.12-7.39.19-11.09,2,4.09.62,8.44.87,12.65C91.17,42.07,91,46.56,91.07,51Z"/><path class="cls-256" d="M89.85,36.05q0,17.39,0,34.79l-.44.18L89,70.93c-2.75-4.66-1.09-9.74-1.42-14.63-.06-3.31-.12-6.62,0-9.93,0-1.78-.11-3.55,0-5.32,0-1.81.07-3.58,1.3-5.06h.19A6.65,6.65,0,0,1,89.85,36.05Z"/><path class="cls-192" d="M97.79,19.83A2.2,2.2,0,0,1,99.12,18c3.13.48,7.15-1.76,8.88,2.94l0,0c-3.47,1.93-6.8,2.4-9.83-.83A3,3,0,0,0,97.79,19.83Z"/><path class="cls-232" d="M156,89c4.44-5.28,1.52-11.18.45-16.34-1.57-7.6-5.71-14.42-10.89-20.42A3.59,3.59,0,0,0,143,51c4-4.76,4.64-4.91,8.05-.33,6,8,11.14,16.71,12.06,26.88.33,3.63,1,8.1-2.1,11.47Z"/><path class="cls-137" d="M56.12,137,59,135c4.71.27,7.91,3.83,12,5.56,4.43,1.89,8.71,3.83,13.54,4.35a6.89,6.89,0,0,1,4.39,2v6a41.75,41.75,0,0,1-22.65-5.2c-2.85-1.54-5.93-3-8.29-5.37-1.17-1.18-3.32-2-2-4.4A5.36,5.36,0,0,1,56.12,137Z"/><path class="cls-136" d="M56,138c5.64,7.74,14,10.89,22.79,12.81,3.36.74,6.73,1.54,10.13,2.16,0,1.66,0,3.33,0,5-9.28.15-17.24-4-25.24-7.88a49.79,49.79,0,0,1-7.93-4.9C52.57,142.81,51.85,140.24,56,138Z"/><path class="cls-135" d="M88.91,147c-11.2-.9-20.92-5.52-29.91-12l1.11-2c.79-1.35,1.56-2.72,3.48-2.52,5.59,4.9,12.64,6.21,19.52,7.94,2.08.52,4.26.84,5.83,2.55Z"/><path class="cls-257" d="M88.94,141c-7.15-1.68-14.4-2.87-21.25-5.8-2.27-1-2.58-3.44-4.68-4.2.35-3.13,2.85-4.43,5.08-6l.89,0c5.23,6.17,13.12,7.05,20,10Z"/><path class="cls-258" d="M88.94,135c-7,.89-17.41-4.32-20-10l1-1a10.36,10.36,0,0,0,8.75,4.91c3.56.14,6.79,1.44,10.2,2.07C89,132.31,89,133.64,88.94,135Z"/><path class="cls-259" d="M45.28,136.07c-2.77,1.13-3.79-1.09-5.08-2.71-7.13-9-9.62-19.65-11.17-30.65-.68-4.86,2.59-4.91,6-4.72,1.26,5,.81,10.19,2.27,15.18a53.34,53.34,0,0,0,10.92,19.89L47.1,135Z"/><path class="cls-137" d="M48.19,133.06c-2.78-.14-3.65-2.46-5-4.3-5.91-8-8.19-17.31-9.12-27-.12-1.21.59-2.5.92-3.76l1,0c1.56-.59,3.16-1.41,4.42.55-.1,9,2.63,17.25,6.81,25.1,1.21,2.27,3.42,3.57,5,5.45Z"/><path class="cls-135" d="M52.23,129.07c-1.12-.15-2.5.16-3.25-.85-6.36-8.56-10-18.07-9.58-28.88,0-.45.4-.89.61-1.34,2.65-1.8,5.53-.9,8.34-.7a1.46,1.46,0,0,1,.94,1.17c-3.55,2.16-4.06,5-3.1,9,1.66,6.91,5,12.85,9,18.54A7.3,7.3,0,0,1,52.23,129.07Z"/><path class="cls-231" d="M55.2,126.06a2.7,2.7,0,0,1-1-.19c-4.47-2.91-11.45-20.15-10.19-25,.79-3,3.21-1.51,5-1.91,2,3.49,2,7.57,3.4,11.27,1.66,4.5,3.64,8.5,9.39,8.36,1.1,2.74-.83,3.63-2.75,4.53Z"/><path class="cls-260" d="M59,123.14l3.26-4c.38-1.61.93-3,3-1.89.64,3.32-2.6,5-3.23,7.84a6.44,6.44,0,0,0-.13.88l-3,2A8.35,8.35,0,0,1,59,123.14Z"/><path class="cls-137" d="M68.09,125q-2.53,3-5.08,6l-2.9,2a8.52,8.52,0,0,1-.08-.87c.85-2.07,3.43-2.83,3.93-5.17L68,124.09Q68,124.56,68.09,125Z"/><path class="cls-131" d="M98.09,25.05l0-2.1c3.18-1.94,6.41-.58,9.59,0,1.78.31,3.47,1.06,5.25.1l12,4c-2.91,2.36-5.49,0-8.17-.63-1.59-.4-2.7-.61-1.82,1.62A28,28,0,0,1,98.09,25.05Z"/><path class="cls-261" d="M113,23c-5,2.82-9.89-.75-14.84-.08,0-.92,0-1.85,0-2.77,3.18,1.41,6.55.58,9.83.83C109,23.28,111,23,113,23Z"/><path class="cls-238" d="M98.09,25.05c5.78.16,11.29,1.79,16.9,2.94l10,4c2.67,4.27,7.24,6.25,11,9.18a2.67,2.67,0,0,1,1.17,3v-.07a8.54,8.54,0,0,0-2.42,3.58c-.49,1.49-1.06,2.9-2.9,3.15h0c-.54.78-1.22.71-2,.31a3.11,3.11,0,0,1,.52-2.81c1.43-2.31,1.53-4.09-1.81-4.44-1.36-.14-2.73-.34-3.39-1.65-3.3-6.51-9.95-7-15.83-8.81-3.75-1.13-7.69-1.64-11.26-3.38Z"/><path class="cls-262" d="M137.16,44.15a12.2,12.2,0,0,0-1.88-2.25c-3.89-2.84-9.23-4.14-10.3-9.91,4.44,1.24,8.06,4,11.92,6.31,2.72,1.64,2.21,3.34,1,5.44A.86.86,0,0,1,137.16,44.15Z"/><path class="cls-263" d="M98.12,55V46c5.39-2,8.46-.75,11.16,4.55-.48.14-.54.47-.2.46s.67-.62,1.06-.86c1.75-1.08,3.48-1.65,4.09,1.12.34,1.55,1.43,2,2.61,2.7,5.6,3.17,5.87,4.41,2.28,9.55a2.41,2.41,0,0,1-1.6,1.29l-.67.67c-.22,1-.92,1-1.72.87-.35-3.63.52-7.15-5.9-7C106.16,59.43,102.49,55.12,98.12,55Z"/><path class="cls-264" d="M117.52,64.82c.2-.49.39-1,.58-1.47,2.85-2,3.68-5.56,6.19-7.82,1.94-1.39,3.3-3.61,5.83-4.19l1.72-.53C129.28,57.74,124.71,62.61,117.52,64.82Z"/><path class="cls-264" d="M131.84,50.81c.75-1.14,1.51-2.28,2.26-3.43.3-1,1-.92,1.75-.68C134.41,48,136.47,52.65,131.84,50.81Z"/><path class="cls-219" d="M115.13,66.36l1.72-.87a5.91,5.91,0,0,1-4.15,4.34Z"/><path class="cls-262" d="M135.85,46.7l-1.75.68a4.16,4.16,0,0,1,3.06-3.3Z"/><path class="cls-232" d="M144.87,139a12,12,0,0,1-4-4A60.77,60.77,0,0,0,157,98c5.75.15,7.09,1.44,5.83,6.7-2.46,10.26-5.21,20.45-11.72,29.1C149.41,136,148,138.51,144.87,139Z"/><path class="cls-259" d="M157,98c2.43,5.76-.67,11.08-1.94,16.29-1.84,7.52-7,13.62-11.42,20-.64.93-1.78.71-2.76.8L138,133c-.4-.64-.79-1.29-1.18-1.93,7.31-7.93,11.44-17.46,14.44-27.68.72-2.48-1.2-3.5-1.28-5.33l5.74-.22Z"/><path class="cls-253" d="M150,98c3.19,1,3.56,2.27,2.4,5.81-2.72,8.24-5.4,16.38-10.62,23.44-1.3,1.76-2.51,3.55-4.94,3.76l-4.11-3.95c4.94-1.78,6-6.7,8.39-10.51,2.22-3.6,2.54-8,5.62-11.47,1.32-1.47-1-4.7-1.74-7.12a4.94,4.94,0,0,1,4.23-.12A1.23,1.23,0,0,1,150,98Z"/><path class="cls-122" d="M138.82,94.06l2.21-.17L161,94c.07.62.15,1.23.22,1.85l-28.34,0C134.48,94.07,137.23,96,138.82,94.06Z"/><path class="cls-218" d="M149.21,97.87,145,98h-8c-2-.35-4.21.72-6-.93C137.07,97.11,143.22,95.54,149.21,97.87Z"/><path class="cls-218" d="M129,97.07c-1.1,1.31-2.63.74-4,.9l-2.22-.13C124.63,95.89,126.88,97.05,129,97.07Z"/><path class="cls-214" d="M130,64a4.31,4.31,0,0,1,.09-.88L133,61c4.49.75,6.71,4,7.72,7.91s1.85,8,4,11.56c1.56,2.59.94,5.07-.35,7.53-1,.89-2.43,0-3.39,1H124c2.47-1.94,5.34-.55,8-1a3.4,3.4,0,0,1,2.17-1.08c2.74-.17,3-1.34,2.34-3.93-1.48-5.6-5.54-10.16-6.23-16A15.23,15.23,0,0,1,130,64Z"/><path class="cls-265" d="M130,64c2.9,6.89,5.86,13.77,8.67,20.7.76,1.87.14,3.26-2.21,3.28H132c.11-7.22-3.16-12.94-8-18q1.5-2,3-3.89Z"/><path class="cls-233" d="M141,89c.75-1.13,1.92-.94,3-1,3.86-2.59,4.94-4.88,2.71-9.09A45.31,45.31,0,0,1,142.24,67a13.15,13.15,0,0,0-3.14-5.63C138,60.11,136.87,58.85,137,57c.33-.63.67-1.26,1-1.89L140,54c8.5,7.77,12.48,17.8,13.81,28.91.43,3.56-2.31,5.69-5.91,6C145.6,89.12,143.27,89,141,89Z"/><path class="cls-266" d="M155.06,90c.38,1.42,1.75,1.68,2.85,2.35-6.28.82-6.28.82-5-2.35Z"/><path class="cls-267" d="M101,90c-4.29-5.37-7.06-5.38-14,0-1.17-4.34,3.69-5.36,4.75-8.51.23-.66,1.63-.48,2.19.16,1.94,2.17,5,2.53,7.07,4.35v0A3.92,3.92,0,0,1,101,90Z"/><path class="cls-268" d="M99,101l0,1c-4,.55-8.17-1.08-12,1a1.54,1.54,0,0,1-1.87.42C83.89,102.3,82.21,102,81,101q-.46,0-.93-.06c-1.59-4.39,2.15-6.2,4.25-8.82L85,92h1c-1.42,9-1.42,9,8.08,9Z"/><path class="cls-269" d="M77,92C73.74,87.86,78.2,85.3,79,82l1,0a4.29,4.29,0,0,1,.74,4.3A4.15,4.15,0,0,1,80,87.51c-1.25,1.27-.53,1.9.76,2.38s3-.19,4.14,1c0,.36,0,.72,0,1.08l0,0a7,7,0,0,0-1.58,1.15C79.41,98,79.42,98,77,92Z"/><path class="cls-208" d="M76,75c1.78-1.37,2.55,1.32,4.06,1,1.85,1.17,4,.69,6,1l0,0,2.77,4c-3.36-.67-6.18-1.81-8.87-.06C80,78.06,76.85,77.28,76,75Z"/><path class="cls-270" d="M79.94,86.9c0-1.62.07-3.25.1-4.87,3.92-.66,5.4,1.58,5.93,5a2,2,0,0,1-1.1.61C83.24,87.32,81.49,87.76,79.94,86.9Z"/><path class="cls-271" d="M84.87,87.07,86,87a5.7,5.7,0,0,1-1,3.9c-2.23.27-4.48,1-6.53-.71-1.77-1.49-2-2.57.59-3.18C80.93,89.14,82.9,88.43,84.87,87.07Z"/><path class="cls-100" d="M101,90c0-1.34,0-2.68,0-4,1.68,1.38.75,3.3,1,5Z"/><path class="cls-272" d="M88.91,56l0,14.93c-2.11.87-4.57,1-6.18,2.89-4,1.54-5.25-2.51-7.84-3.82a10.5,10.5,0,0,1-3-3l0,0a3.34,3.34,0,0,1-1.74-2.37C72.56,58.56,83,53.77,88.91,56Z"/><path class="cls-273" d="M86,77c-2.38,2.12-4.45,2.37-6-1l3.31-2c2.4-1.31,4.65-.33,7,.31C89.72,76.86,86.85,75.22,86,77Z"/><path class="cls-231" d="M125.1,56.28c-2.07,2.62-4,5.36-7,7.07,3.37-5.61,3.39-5.65-3.27-8.53-2.23-1-2.7-2.45-1.55-4.47-1.64-.63-2.4.44-3.34,1a3.12,3.12,0,0,1-3,.31c2.65-1.87,1.68-3.55-.58-4.31-2.61-.87-5.34-1.79-8.22-1.38,0-2,0-4,0-6,1.62-1.46,3.44-.69,5.19-.42,6.15.91,11.56,3.87,17.08,6.4C124.39,47.82,125.92,51.86,125.1,56.28Z"/><path class="cls-274" d="M125.1,56.28c-.35-9.33-8.39-10.32-14.54-13.2-3.87-1.83-8.17-2.49-12.42-3.06,0-1.66,0-3.32,0-5,3.65-1.51,7.21-.25,10.68.61,7.84,1.93,14.64,6.13,21.34,10.48,1,.68,1.79,1.55.82,2.86-.28.79-.57,1.57-.85,2.36A15.69,15.69,0,0,1,125.1,56.28Z"/><path class="cls-275" d="M131,49a54.17,54.17,0,0,0-27.06-13c-1.93-.34-3.86-.65-5.78-1,0-1.66,0-3.33,0-5a69.53,69.53,0,0,1,24.46,6.75,6.35,6.35,0,0,1,3.25,4.15c.49,1.54,1.22,2.36,2.85,1.67s3.42-.74,4.05,1.3S133.29,47.89,131,49Z"/><path class="cls-276" d="M62.07,125c-1.23-3.44,2.41-5,2.95-7.82-.09-2.93,1.75-3.46,4.13-3.31,1.28,2.07-.3,3.49-1.17,5.07A26.15,26.15,0,0,1,62.07,125Z"/><path class="cls-277" d="M76,110,74,113c-1.41.91-2.8,2.18-4.27.08.28-3.51,3.46-5,5.28-7.37a3.77,3.77,0,0,1,2.12-.56C81.85,107.87,76.68,108.45,76,110Z"/><path class="cls-278" d="M76,110c-.48-1.54,4-1.89,1-4a4.92,4.92,0,0,1-.4-3.53L77,102a14.82,14.82,0,0,1,5,5C79.36,106.79,78.54,110.1,76,110Z"/><path class="cls-279" d="M69.66,112.8c1.4,1.11,2.86.33,4.31.15l-6,6c.32-1.71.63-3.42,1-5.13A1,1,0,0,1,69.66,112.8Z"/><path class="cls-278" d="M77,92c2.06.63,1.77,2.9,3,4.55,2.13-1.14,2-4.83,5-4.55-1.44,3.11-4.61,5.25-5,9-1.29-.46-2.81-1.63-3,1h0c-3.55-1.47-1.13-3.93-1-6,0-.33,0-.66,0-1C77.16,94.27,77,93.1,77,92Z"/><path class="cls-130" d="M85,103h2l1,1L87,105a3.12,3.12,0,0,1-3-2A.61.61,0,0,1,85,103Z"/><path class="cls-227" d="M85,103H84a3.11,3.11,0,0,1-3-2A5.41,5.41,0,0,1,85,103Z"/><path class="cls-280" d="M101.93,93c-2.22,2.2.08,6.06-2.94,8-2.86-2-6.09-.62-9.13-1-1.51-.17-3.07-.12-3.61-1.93-.47-1.62.81-1.87,1.91-2.28.59-.22,1.13-.49,1.06-1.38-.35-4.65,2.14-6.27,7.13-4.43A42.11,42.11,0,0,1,101.93,93Z"/><path class="cls-135" d="M137,57c2.69,3.09,6.33,6,6.58,10.18.34,5.77,5.12,9.65,5.36,15.47.17,4.18-.68,6-5,5.33.5-7.72-5.44-22.31-11-27A10.39,10.39,0,0,1,137,57Z"/><path class="cls-281" d="M21.88,96.88c.09-.26.2-.53.32-.79,14.48,0,29,0,43.45.06,1.7,0,3.7-.85,5.09,1-5.19,2.52-10.75,1.38-16,1.06-6.22-.37-12.45-.57-18.66-1l-7,0Z"/><path class="cls-259" d="M36,97.24l34.7-.09,1.1.94.57.55c.31,1.08.47,2.1-.91,2.58-3.56-2-7.45-2-11.38-1.84-3.74-.24-7.68,1.1-11.13-1.4l-9,0c-1.34,0-2.69,1-4,0A6,6,0,0,1,36,97.24Z"/><path class="cls-282" d="M44,51c-5.47,4.83-8.29,11.36-11.36,17.73-2,4-3.84,8.14-4.28,13.19C26.59,80.31,27.17,79.08,27,78c2.08-9.93,6.79-18.58,13-26.43C40.91,50.47,42.21,47.7,44,51Z"/><path class="cls-283" d="M88.89,36c0,1.67,0,3.35,0,5a4.92,4.92,0,0,1-2.63,1.29C76.5,44.1,68,48.61,59.91,54.21a13,13,0,0,1-4-4C65.2,41.49,76.35,37.12,88.89,36Z"/><path class="cls-284" d="M59.91,54.21c3.35-5,8.62-7.35,13.83-9.44,4.82-1.93,9.78-3.86,15.16-3.76,0,1.67,0,3.34,0,5-1.46,1.57-3.45,1.82-5.39,2.22-5.74,1.2-10.85,3.84-15.84,6.93,4.35,2.41,1.94,4.21-.42,6-2.89.06-3.68-2.54-5.25-4.16Z"/><path class="cls-285" d="M62,57l4.94,4.13c2.38.28,3.07,2.25,4,4L72,67c-1.3,0-2.6-1-3.92,0A32,32,0,0,1,62,57Z"/><path class="cls-286" d="M60.76,66.33A6.94,6.94,0,0,0,64,70.12c-3.33,4.46-6.68,8.8-7.56,14.64A4.18,4.18,0,0,0,58,88.91l-3,0c-1.54-1-3.34-.1-4.94-.67-1.48-6.41,2.61-11.14,4.41-15.8-1.95,2.87-3.32,6.83-4.59,10.84-.54,1.7-.55,3.62-2,5A2.36,2.36,0,0,1,45.76,88c-1.42-9.7,3.47-16.93,9.34-23.75A1.69,1.69,0,0,1,57,64C58.06,65.07,59.08,66.24,60.76,66.33Z"/><path class="cls-245" d="M72.22,85.07C72.06,86.45,72.33,88,71,89L70,88.85C71,87.77,70.53,85.76,72.22,85.07Z"/><path class="cls-287" d="M37,80c-1.14,2.9-2.59,5.77-1,9-5.35.3-7-1.85-5.13-7,.72-2,.65-4.22,2.1-5.94.12.11.31.22.34.35.08.48.53.65.61.31,1.38-6,4.43-11.29,7.61-16.46C43,57.77,44.31,54.8,48,55l1,1c-.22,4.45-3.85,7.11-5.73,10.69C41,71,39.77,75.87,37,80Z"/><path class="cls-288" d="M37,80c1.9-9,6.73-16.63,12-24l2,2C44.54,65.58,40.36,74.38,37.2,84Z"/><path class="cls-274" d="M48,55c-8.06,6.08-10.39,15.58-14.24,24.26C32.5,78.21,33.21,77,33,76c1.32-7.7,5.87-13.85,9.93-20.19C43.93,54.19,45.68,51.18,48,55Z"/><path class="cls-245" d="M50,88c1.68.25,3.58-.64,5,1H45c0-.32,0-.65,0-1a.61.61,0,0,1,1,0h2A1.37,1.37,0,0,1,50,88Z"/><path class="cls-257" d="M46,88H45c-3.45.5-4.47-1.31-4-4.35a46.11,46.11,0,0,1,10.22-22.1c2.86-3.47,4.09.9,5.72,2.49C50,70.51,46.92,78.74,46,88Z"/><path class="cls-285" d="M72,67a5.85,5.85,0,0,1,3,3A2.81,2.81,0,0,1,72,67Z"/><path class="cls-247" d="M76,96c2.18,1.7-1.38,4.35,1,6,.06,1.33,1,2.66,0,4l-2.1.09-.56-.41c-2.21-2.06-1-5.28-2.56-7.56h.07Z"/><path class="cls-289" d="M70.94,65.12a11.09,11.09,0,0,1-4-4c-.33-2,2.45-2.12,2.48-3.87-1-1.41-1.72-.3-2.5.16A1.42,1.42,0,0,1,64.77,57c-.54-1,.32-1.41,1-1.91a49.66,49.66,0,0,1,16.83-8A57.32,57.32,0,0,1,88.89,46q0,5,0,10C81.75,56.74,75.06,58.4,70.94,65.12Z"/><path class="cls-132" d="M49,98H61c.44.85-.1,1.56-.34,2.32a70.87,70.87,0,0,0-2.22,7.13c4.35-2,3.18,3,5.19,4.12a3.06,3.06,0,0,0,3.59-.36c2.37-1.61,3.93-3.91,5.5-6.21,1.22-.61,1.72.24,2.19,1.11h0c-.66,3.08-3.89,4.17-5.23,6.73l-.73,1c-1.77.58-2.82,2-3.91,3.37l-2.73,1.87c-6.48,2.42-8.8-2.13-10.46-6.74C50.29,108.08,48.45,103.74,49,99Z"/><path class="cls-290" d="M84.87,87.07a2.54,2.54,0,0,1-2.68,2.86C80.2,90,79.12,89,79,87a4.32,4.32,0,0,0,1-.1C81.61,86.11,83.27,85.69,84.87,87.07Z"/><path class="cls-291" d="M73.19,104.61c-.08,4.77-4,6.89-7.14,8.87-3,1.87-4.41-1.94-5.25-3.77-.73-1.61-.11-2.92-2.17-1-1.63,1.56-3-.59-2.41-1.11,3-2.64,1.51-7.33,4.77-9.67,3.83.4,8.34-1.7,11,3A2.55,2.55,0,0,1,73.19,104.61Z"/><path class="cls-277" d="M73.19,104.61,72,101c-.07-1-.13-1.92-.2-2.89,2.08,2.25,2.53,5.14,3.14,8Z"/><path class="cls-257" d="M50,88H48a30.86,30.86,0,0,1,9.41-19.45A57.8,57.8,0,0,0,50,88Z"/></g></g></svg>