<svg xmlns="http://www.w3.org/2000/svg" viewBox="0 0 186.95 186.96"><defs><style>.cls-1{fill:#fdfdfd;}.cls-2{fill:#5b4425;}.cls-3{fill:#594325;}.cls-4{fill:#624b28;}.cls-5{fill:#5d4526;}.cls-6{fill:#614a24;}.cls-7{fill:#847434;}.cls-8{fill:#3e2d11;}.cls-9{fill:#fefefe;}.cls-10{fill:#654c2a;}.cls-11{fill:#decf96;}.cls-12{fill:#654e2a;}.cls-13{fill:#523e26;}.cls-14{fill:#6e5329;}.cls-15{fill:#6a502e;}.cls-16{fill:#614d2e;}.cls-17{fill:#73582d;}.cls-18{fill:#74582f;}.cls-19{fill:#6e5328;}.cls-20{fill:#362d24;}.cls-21{fill:#513b1e;}.cls-22{fill:#d3c289;}.cls-23{fill:#9f9256;}.cls-24{fill:#926e3f;}.cls-25{fill:#3c372f;}.cls-26{fill:#775b33;}.cls-27{fill:#7b5b35;}.cls-28{fill:#716424;}.cls-29{fill:#88643a;}.cls-30{fill:#4c3921;}.cls-31{fill:#755531;}.cls-32{fill:#967242;}.cls-33{fill:#826238;}.cls-34{fill:#aa8a53;}.cls-35{fill:#79672e;}.cls-36{fill:#40311f;}.cls-37{fill:#8a6a3c;}.cls-38{fill:#c5a870;}.cls-39{fill:#8a673c;}.cls-40{fill:#997745;}.cls-41{fill:#b39055;}.cls-42{fill:#4e3c17;}.cls-43{fill:#d1ba81;}.cls-44{fill:#312923;}.cls-45{fill:#a68853;}.cls-46{fill:#977343;}.cls-47{fill:#d4c78d;}.cls-48{fill:#a7844e;}.cls-49{fill:#8c6d40;}.cls-50{fill:#6c512e;}.cls-51{fill:#7e6037;}.cls-52{fill:#866439;}.cls-53{fill:#52411d;}.cls-54{fill:#a3824d;}.cls-55{fill:#8c6e41;}.cls-56{fill:#bcae73;}.cls-57{fill:#41331a;}.cls-58{fill:#8b7e49;}.cls-59{fill:#9e9155;}.cls-60{fill:#c0b588;}.cls-61{fill:#a59a5c;}.cls-62{fill:#63581d;}.cls-63{fill:#937842;}.cls-64{fill:#d6c68e;}.cls-65{fill:#c5aa71;}.cls-66{fill:#503c23;}.cls-67{fill:#997846;}.cls-68{fill:#4f3e24;}.cls-69{fill:#d6c089;}.cls-70{fill:#dac88f;}.cls-71{fill:#bfa36b;}.cls-72{fill:#d7c58e;}.cls-73{fill:#cab781;}.cls-74{fill:#c2a066;}.cls-75{fill:#b8945b;}.cls-76{fill:#c4b87d;}.cls-77{fill:#c9bb7d;}.cls-78{fill:#bda069;}.cls-79{fill:#947243;}.cls-80{fill:#a1965a;}.cls-81{fill:#776a2a;}.cls-82{fill:#4d401b;}.cls-83{fill:#977443;}.cls-84{fill:#352f29;}.cls-85{fill:#3f3d37;}.cls-86{fill:#302514;}.cls-87{fill:#44423d;}.cls-88{fill:#ac9d5d;}.cls-89{fill:#5f4829;}.cls-90{fill:#392d15;}.cls-91{fill:#684d2c;}.cls-92{fill:#856339;}.cls-93{fill:#4a3f33;}.cls-94{fill:#64492b;}.cls-95{fill:#ece19e;}.cls-96{fill:#42382e;}.cls-97{fill:#40311d;}.cls-98{fill:#a59658;}.cls-99{fill:#c2b67a;}.cls-100{fill:#3f3c36;}.cls-101{fill:#be9c62;}.cls-102{fill:#c2a770;}.cls-103{fill:#b5a76b;}.cls-104{fill:#4b4030;}.cls-105{fill:#c5ae78;}.cls-106{fill:#e2d49e;}.cls-107{fill:#665b34;}.cls-108{fill:#b2965f;}.cls-109{fill:#594c1c;}.cls-110{fill:#ada263;}.cls-111{fill:#261d10;}.cls-112{fill:#7e5d36;}.cls-113{fill:#8d6b3e;}.cls-114{fill:#9b9685;}.cls-115{fill:#7b6037;}.cls-116{fill:#a17e49;}.cls-117{fill:#b49159;}.cls-118{fill:#bcae75;}.cls-119{fill:#88663b;}.cls-120{fill:#5a4226;}.cls-121{fill:#765e32;}.cls-122{fill:#9a7543;}.cls-123{fill:#7b672f;}.cls-124{fill:#a5824c;}.cls-125{fill:#645527;}.cls-126{fill:#5b4e1b;}.cls-127{fill:#766038;}.cls-128{fill:#947242;}.cls-129{fill:#785934;}.cls-130{fill:#2f2313;}.cls-131{fill:#342a17;}.cls-132{fill:#58442a;}.cls-133{fill:#9f9354;}.cls-134{fill:#3e362c;}.cls-135{fill:#a79a5a;}.cls-136{fill:#806638;}.cls-137{fill:#916f41;}.cls-138{fill:#907141;}.cls-139{fill:#cdc088;}.cls-140{fill:#3c3933;}.cls-141{fill:#dac891;}.cls-142{fill:#bea76e;}.cls-143{fill:#af8f56;}.cls-144{fill:#3a2c1a;}.cls-145{fill:#494743;}.cls-146{fill:#938043;}.cls-147{fill:#c7a56d;}.cls-148{fill:#d2ba84;}.cls-149{fill:#ccb279;}.cls-150{fill:#3a2c18;}.cls-151{fill:#816136;}.cls-152{fill:#4f4320;}.cls-153{fill:#69562f;}.cls-154{fill:#926f41;}.cls-155{fill:#d3be89;}.cls-156{fill:#3d3a34;}.cls-157{fill:#282524;}.cls-158{fill:#7b5c36;}.cls-159{fill:#453a29;}.cls-160{fill:#8e6b3e;}.cls-161{fill:#5b4b29;}.cls-162{fill:#514c42;}.cls-163{fill:#4a4840;}.cls-164{fill:#795b36;}.cls-165{fill:#44331e;}.cls-166{fill:#42382c;}.cls-167{fill:#8f8877;}.cls-168{fill:#979181;}.cls-169{fill:#9a9587;}.cls-170{fill:#85683d;}.cls-171{fill:#97784b;}.cls-172{fill:#43413c;}.cls-173{fill:#362917;}.cls-174{fill:#554937;}.cls-175{fill:#4b4034;}.cls-176{fill:#908a7a;}.cls-177{fill:#aba799;}.cls-178{fill:#a19c8d;}.cls-179{fill:#6a5233;}.cls-180{fill:#45361d;}.cls-181{fill:#332e28;}.cls-182{fill:#b08e56;}.cls-183{fill:#3f3c37;}.cls-184{fill:#3d2e19;}.cls-185{fill:#ab9f61;}.cls-186{fill:#775833;}.cls-187{fill:#553f24;}.cls-188{fill:#b2ad9f;}.cls-189{fill:#a4a092;}.cls-190{fill:#846640;}.cls-191{fill:#735531;}.cls-192{fill:#3c342d;}.cls-193{fill:#302c29;}.cls-194{fill:#795c37;}.cls-195{fill:#423f3a;}.cls-196{fill:#715633;}.cls-197{fill:#a5834d;}.cls-198{fill:#5d5a52;}.cls-199{fill:#57544c;}.cls-200{fill:#4f4d45;}.cls-201{fill:#47453f;}.cls-202{fill:#4c4b47;}.cls-203{fill:#755733;}.cls-204{fill:#54534e;}.cls-205{fill:#665238;}.cls-206{fill:#4c3a23;}.cls-207{fill:#88673c;}.cls-208{fill:#413f39;}.cls-209{fill:#474541;}.cls-210{fill:#4d4b45;}.cls-211{fill:#494741;}.cls-212{fill:#9b7745;}.cls-213{fill:#61523f;}.cls-214{fill:#2c2726;}.cls-215{fill:#535149;}.cls-216{fill:#59564d;}.cls-217{fill:#5d5a51;}.cls-218{fill:#594226;}.cls-219{fill:#916e40;}.cls-220{fill:#735431;}.cls-221{fill:#43413d;}.cls-222{fill:#494841;}.cls-223{fill:#545149;}.cls-224{fill:#4e4c44;}.cls-225{fill:#a1814b;}.cls-226{fill:#a09b8c;}.cls-227{fill:#aaa69c;}.cls-228{fill:#5c462a;}.cls-229{fill:#4f4d46;}.cls-230{fill:#725533;}.cls-231{fill:#544633;}.cls-232{fill:#715330;}.cls-233{fill:#43311c;}.cls-234{fill:#5c5951;}.cls-235{fill:#312514;}.cls-236{fill:#765733;}.cls-237{fill:#d6d0bc;}.cls-238{fill:#bab5a3;}.cls-239{fill:#ccc5b3;}.cls-240{fill:#dfd9c4;}.cls-241{fill:#e9e2ca;}.cls-242{fill:#e6e0c8;}.cls-243{fill:#afaba1;}.cls-244{fill:#c5c3b8;}.cls-245{fill:#d2ccb8;}.cls-246{fill:#bfbaa9;}.cls-247{fill:#b9b4a3;}.cls-248{fill:#ada897;}.cls-249{fill:#c4bba6;}.cls-250{fill:#96774c;}.cls-251{fill:#c3bdab;}.cls-252{fill:#545048;}.cls-253{fill:#5a574f;}.cls-254{fill:#b79b5b;}.cls-255{fill:#a98a53;}.cls-256{fill:#87673c;}.cls-257{fill:#655238;}.cls-258{fill:#5e5b53;}.cls-259{fill:#59564e;}.cls-260{fill:#b29357;}.cls-261{fill:#cab472;}.cls-262{fill:#cdb469;}.cls-263{fill:#654c2d;}.cls-264{fill:#5b4427;}.cls-265{fill:#6d512f;}.cls-266{fill:#3f301d;}.cls-267{fill:#7e5e36;}.cls-268{fill:#ba9d5d;}.cls-269{fill:#ac8b50;}.cls-270{fill:#20170c;}.cls-271{fill:#aa8f61;}.cls-272{fill:#3e2f1d;}.cls-273{fill:#bca05f;}.cls-274{fill:#c5ab6a;}.cls-275{fill:#e1dbc5;}.cls-276{fill:#e5dec7;}.cls-277{fill:#89653b;}.cls-278{fill:#937041;}.cls-279{fill:#a5804a;}.cls-280{fill:#5c5850;}.cls-281{fill:#84643d;}.cls-282{fill:#d9d3bf;}.cls-283{fill:#a4814b;}.cls-284{fill:#433520;}.cls-285{fill:#dcd2af;}.cls-286{fill:#c5af73;}.cls-287{fill:#917851;}.cls-288{fill:#6b4f2e;}.cls-289{fill:#a68c5a;}.cls-290{fill:#897f6a;}.cls-291{fill:#332715;}.cls-292{fill:#291d10;}</style></defs><g id="Layer_2" data-name="Layer 2"><g id="Layer_3_Image" data-name="Layer 3 Image"><path class="cls-1" d="M105,0l1,1.9C104.14,4,101.44,3,99.24,3.75c-2.07.3-4.07-.61-6.14-.39-1.81-.1-3.56.7-5.38.39C85.52,3,82.81,4,81,1.89c.34-.63.67-1.26,1-1.89Z"/><path class="cls-2" d="M37,166.16,35.07,165c-1.65-1-3.67-1.78-3.56-4.29,1.07-2.14,3-2.39,5.1-2.37a4.28,4.28,0,0,1,2.49,1.42c-.33,3.2,2,4.64,4.11,6.23,1.75,1.29,3.77,2.14,5.5,3.45,5.06,3.5,11,5.14,16.52,7.56,2.34.7,4.65,1.5,7,2.15,1.67.89,4.29.11,4.94,2.79-.85,1.25-2.28,1.14-3.51,1.49a49,49,0,0,1-17.55-5.62l0,0c-5.18-2.69-11-4.27-15.12-8.8l-.08,0A6.06,6.06,0,0,1,37,166.16Z"/><path class="cls-3" d="M180.87,64.14a8.79,8.79,0,0,0,2,5.9c1.44,1.54.65,3.24.38,4.91,0,.34-.06.69-.08,1a5.08,5.08,0,0,1,1,2.32c-.26,2.34,1.09,5.16-2,6.68-2.31-1.87-1.37-4.61-1.81-7a113.8,113.8,0,0,0-5.15-18.12,44.25,44.25,0,0,0-3-6.55,63.44,63.44,0,0,0-7.12-11.47,35,35,0,0,1-3.3-4.47c-.73-1.69-2.54-3.68,1.14-4.14,1.13.45,2.38.73,2.8,2.12-.5,1.32.55,1.86,1.28,2.57,2.64,1.51,3.31,4.59,5.31,6.61a17.58,17.58,0,0,1,1.36,2.24c.79,2.45,2.61,4.44,3.23,7,1.68,1.75.16,5,2.84,6.26C181.34,61.13,180.28,62.84,180.87,64.14Z"/><path class="cls-4" d="M124.84,179.89,122,181.12c-2,2-4.67,1.28-7,1.75h0c-.55.69-1.28.57-2,.42-1.1-.47-2.59-.2-3.16-1.68,1.55-3.63,5.2-2.42,7.87-3.46,2.94-.93,6-1.41,8.81-2.8,1.62-.77,3.34-1.32,5-2a15,15,0,0,0,2.28-1.2c1.27-.85,2.74-1.3,4-2.11,2.87-1.79,5.63-3.73,8.42-5.61a14.38,14.38,0,0,0,2.78-2.73,4.47,4.47,0,0,1,1-.89,2.41,2.41,0,0,1,1.33-.16,3.22,3.22,0,0,1,2.16,1.57c.36,1.43-.46,2.14-1.61,2.66L150,166.16a3.72,3.72,0,0,1-3.18,2.47l-.85.51a10.85,10.85,0,0,1-6,3.81l-1.14.73c-.91,1.58-2.65,1.58-4.08,2.18L131,178.12C129.14,179.43,127,179.57,124.84,179.89Z"/><path class="cls-5" d="M140,14l.21.25.32-.06A21.85,21.85,0,0,1,150,20.75l2.84,2.32c.92.41,1.65.93,1.2,2.12a3.82,3.82,0,0,1-3.36.62,4.74,4.74,0,0,1-1.27-.53c-1.59-1.19-2.87-2.8-4.88-3.39a9.68,9.68,0,0,1-3.39-2.2c-2.15-2.44-5.35-3.24-7.91-5-4.09-1.77-8.28-3.24-12.42-4.88-2-1.12-5-.72-6.07-3.54.64-1.35,2.12-1.11,3.16-1.68a1.8,1.8,0,0,1,2,.45L120,5a8.07,8.07,0,0,1,4.93,2L125,7c2.86.43,5.69.92,7.86,3.1h0C135.35,11.19,138.25,11.49,140,14Z"/><path class="cls-2" d="M183.87,111a1.92,1.92,0,0,1,.08.92c-1.17,1.49.71,3.65-1.1,5-2.87,4.22-2.23,9.74-5.13,14-.84,5.46-5,9.31-6.92,14.23A8.56,8.56,0,0,1,167,149l0,.1c-.84,1.14-.67,3.14-2.74,3.27a2.35,2.35,0,0,1-1.55-1.18,2.61,2.61,0,0,1-.06-1.33,36.26,36.26,0,0,1,2-3.47,109.77,109.77,0,0,0,6.74-11c3.1-4.61,4.41-10,6.55-15,1.47-3.69,1-7.87,2.91-11.45a3.27,3.27,0,0,1,1.32-.65,3.65,3.65,0,0,1,1.43.2C184.72,109.19,184.12,110.12,183.87,111Z"/><path class="cls-6" d="M110,183.92l-4,1c-3.93,1.58-8.14.93-12.19,1.49-2.91-1-3.05-2.57-.85-4.54a4.44,4.44,0,0,1,1.31-.5,4.69,4.69,0,0,0,3-.86,15.2,15.2,0,0,0,1.31-1.35c.71-.84,1.38-1.74,2.64-1.75a2,2,0,0,1,1.17.62c.36,2,1,3.74,3.63,3.25a9.73,9.73,0,0,1,3.94,1.38.82.82,0,0,1,.25.82C110.11,183.78,110,183.92,110,183.92Z"/><path class="cls-1" d="M93,185.84c4.35.1,8.56-1.64,13-.89a4.81,4.81,0,0,1-3.83,2c-5.76.08-11.52.07-17.28,0A5.18,5.18,0,0,1,81,185C85.19,182.4,89.17,183.28,93,185.84Z"/><path class="cls-1" d="M183.87,111c-1.67-.63.51-1.37-.05-2-2.5-5,.57-9.69.7-14.54.08-2.13-.72-4.15-.81-6.26a9.51,9.51,0,0,1,.76-4.71l.61-.53c1.28,5.59,2.78,11.11,1.16,17a15.3,15.3,0,0,0-.39,6.86C186.15,108.37,186.68,110.62,183.87,111Z"/><path class="cls-7" d="M93,185.84A42.37,42.37,0,0,0,81,185l-1.88-.13a.83.83,0,0,1-.27-.83c.08-.28.17-.42.25-.42,2-1.54,4.7-.34,6.77-1.65,1.07-1.18.32-2.53.37-3.81.06-1.75.31-3.41,2.72-3.2,1.43,2.51,2.19,5.5,5,7C92.88,183.13,91.43,184.12,93,185.84Z"/><path class="cls-1" d="M78.72,184.1c.12.27.25.54.38.8-7-.27-13.64-2.41-20.24-4.55a3.51,3.51,0,0,1-2.75-2.57c6.09,1.27,11.6,4.58,17.91,5.06C75.86,182.24,77.54,182.22,78.72,184.1Z"/><path class="cls-1" d="M154,24.88l-1.11-1.81c3.89,0,6.14,3.18,8.85,5.08,2.06,1.44,2.8,4.76,4.13,7.25l-2.58-1.49c-.59-.25-1.2-.47-1.76-.76a7.81,7.81,0,0,1-2.33-2.25C158.31,28.12,154,28.3,154,24.88Z"/><path class="cls-1" d="M169.89,144.91l7.83-14c2.29,1.84,0,3.27-.61,4.63-1.53,3.24-3.41,6.33-5.14,9.48a1.38,1.38,0,0,1-1.66.38Z"/><path class="cls-1" d="M41,169l15.12,8.8C50.47,176,44.22,175.1,41,169Z"/><path class="cls-1" d="M164,152l3-3c-1,5.3-5.05,10.18-9.1,10.88-.54-1.55.39-2.58,1.25-3.64C160.71,154.83,161.52,152.47,164,152Z"/><path class="cls-8" d="M159.93,157l-2.07,3-2.92,2a1.16,1.16,0,0,1-1.86.12c-.82-.11-1.64-.21-2.09-1.06.26-3.24,3.77-2.95,5.26-4.87a3.82,3.82,0,0,1,2-.82C159.19,155.43,160.32,155.44,159.93,157Z"/><path class="cls-1" d="M150,20.75l-9.51-6.61c4.5-.55,6.58,4.1,10.47,4.86Z"/><path class="cls-1" d="M31.93,161.15c.51,1.71,3,1.8,3.14,3.82-3.8.11-5.36-3.37-8.08-5a1.79,1.79,0,0,1,1.16-1.35,4.36,4.36,0,0,1,2.93.91A4.58,4.58,0,0,1,31.93,161.15Z"/><path class="cls-1" d="M21,152l1.29-.12c1.87-.12,3.3.9,4.74,1.88a3.41,3.41,0,0,1,.19,4.39A1.79,1.79,0,0,1,25,158Z"/><path class="cls-1" d="M171.91,45,167.1,38c1.49-.83,2.56-.4,2.79,1.25.29,2.13,2.37,3,3.08,4.77C173.22,45,172.85,45.27,171.91,45Z"/><path class="cls-1" d="M183,77.9c0-.64.09-1.28.14-1.91,5,1.09,2.47,4.29,1.93,6.94l-.35.28a1,1,0,0,1-1.15-.51C183.2,81.13,184,79.41,183,77.9Z"/><path class="cls-1" d="M140,173l6-3.81C145.05,172.1,143.48,174,140,173Z"/><path class="cls-1" d="M177,53.8c-2.26-1.73-2.57-4.62-4.08-6.79A1.43,1.43,0,0,1,175,47C174.75,49.53,178.65,50.84,177,53.8Z"/><path class="cls-1" d="M114.91,182.87c2.12-1.5,4.8-.75,7-1.75C120.3,184.49,117.67,183.93,114.91,182.87Z"/><path class="cls-1" d="M124.84,179.89c1.92-1,3.84-2.07,6.13-1.77C129.6,181,127.4,181.09,124.84,179.89Z"/><path class="cls-1" d="M146.82,168.63a6.64,6.64,0,0,1,3.18-2.47C150.7,169.24,149.16,169.44,146.82,168.63Z"/><path class="cls-1" d="M153.08,162l1.86-.12c1.38,3.53-1.21,2.92-3.13,3C152.23,163.93,152.65,163,153.08,162Z"/><path class="cls-1" d="M37,166.16a8.07,8.07,0,0,1,4,2.8C38.49,169.62,36.84,169.14,37,166.16Z"/><path class="cls-1" d="M167,149l2.88-4,.2.18A2.2,2.2,0,0,1,170,148C169.26,149.14,168.1,149,167,149Z"/><path class="cls-9" d="M175,47l-2.05,0c-1.12-.26-.91-1.2-1-2,.36-.34.71-.69,1.06-1A3,3,0,0,1,175,47Z"/><path class="cls-1" d="M183.23,75c-.13-1.64-.26-3.27-.38-4.91C186.1,71.43,184.42,73.21,183.23,75Z"/><path class="cls-1" d="M182.85,116.92c.52-1.63-.62-3.62,1.1-5C184,113.68,186.07,115.89,182.85,116.92Z"/><path class="cls-1" d="M180.87,64.14c-1.32-1.12-.72-2.71-1-4.08C182.32,60.88,181.85,62.44,180.87,64.14Z"/><path class="cls-9" d="M170,148l.12-2.88L172,145A3,3,0,0,1,170,148Z"/><path class="cls-9" d="M25,158h2.06A1.19,1.19,0,0,1,28,159L27,160A1.83,1.83,0,0,1,25,158Z"/><path class="cls-1" d="M110,183.92c.11-.29.21-.57.31-.86.82-.86,1.72-.64,2.64-.2h2C113.58,184.72,111.64,183.72,110,183.92Z"/><path class="cls-1" d="M134.76,175.86l4.08-2.18C138.32,176,136.6,176,134.76,175.86Z"/><path class="cls-10" d="M68,4.85c1.39-.1,3,1,4.07-.75.6-.71,1.36-.57,2.13-.42,2,.24,4.25-.42,6,1.26-.4,2.67-2.77,2.58-4.53,2.9a56.07,56.07,0,0,0-10,2.84c-1.86.5-3.8.79-5.45,1.91-4.06,1.93-8,4.08-11.87,6.38-2.47,1.63-4.89,3.32-7.3,5s-4.83,2.87-7.78,1.41C31.84,23.29,34,23,35,22l3-2.18c.64-1.11,1.84-1.34,2.86-1.87L41,17.9c3.72-3.72,8.43-5.74,13.17-7.71v0C55.31,8.49,57.26,8.5,59,8.07l0,0c.7-1.18,2-.41,3-1l0,0A9,9,0,0,1,68,4.85Z"/><path class="cls-11" d="M26.06,30.11l1-1.06A4.61,4.61,0,0,1,32,25.74c2,2.51-2.08,4.08-1,6.45a7.17,7.17,0,0,0,3.53,6.46c2.19,2.85.52,4.22-2.08,4.78a14.27,14.27,0,0,0-6.09,2.83c-1.42.74-2.88,2.1-4.44.62-1.39-1.3-.86-3-.35-4.62A28.22,28.22,0,0,0,22.64,39c.57-2.15,1.92-4,2.36-6.22C25.49,31.94,25.18,30.79,26.06,30.11Z"/><path class="cls-12" d="M25.9,153.87c-1.74.28-2.36-1.45-3.62-2L19.85,149a14.79,14.79,0,0,1-3.89-5.8L15,142a28.69,28.69,0,0,1-3.84-7.18v0c-2.42-1.59-1.85-4.62-3.22-6.72L7,126c-1.47-1.09.1-2.89-1-4.08L5.1,120c1.11-.83.64-2.8,2.32-3.23,2.58,1.54,2.06,4.61,3.36,6.79,1.92,3.95,3.27,8.17,5.67,11.89.6,1,1.08,2,1.59,3.07,1,2.37,2.91,4.1,4,6.37.67,1.73,2.12,2.87,3.19,4.3S27.65,152,25.9,153.87Z"/><path class="cls-13" d="M5.82,66,6,65c1.18-1.1-.48-3,1.06-3.94H7c1.72-2.84,1.4-6.6,4.07-9L16,44c.56-.94.41-2.49,2.11-2.45a1.89,1.89,0,0,1,1.48,2.16,9.32,9.32,0,0,1-1,2.71,46.85,46.85,0,0,0-5.09,10c-2.93,5.13-4.45,10.75-5.67,16.46-.48,1.43-.69,2.93-1,4.39-1.11,2.86.36,6.6-2.95,8.71-1.79,0-1.22-1.46-1.41-2.44C1.9,81,1.55,78.43,3,76l0-.09c1.15-1.49,0-3.36.8-4.91A3.17,3.17,0,0,0,4,70C5,68.85,5.11,67.31,5.82,66Z"/><path class="cls-14" d="M5,117.92c-1.65-2-1.81-4.49-2-6.94-1.69-4-1.07-8.23-1.53-12.35C4.68,98,6.58,99.56,7,103c.24,1.84-.62,3.59-.36,5.42a6.14,6.14,0,0,1-.09,1.48C5.27,112.42,7.21,115.58,5,117.92Z"/><path class="cls-1" d="M2.11,98.12c-.28,4.32,1.56,8.5.9,12.86-.41-.29-1.15-.55-1.16-.86-.5-8.38-3.91-16.77,0-25.13a6,6,0,0,1,1.4,3.08c.14,2.29.06,4.58.07,6.87A4.32,4.32,0,0,1,2.11,98.12Z"/><path class="cls-15" d="M19,43.93a2,2,0,0,0-1.15-2c-.35-1.82.79-2.9,2-3.93L21,36.76c1.12-1.9,1.48-4.84,4.9-3.55.45,2.24-1.52,3.6-2,5.51a24.76,24.76,0,0,1-2.55,4.58C20.66,44,20,44.51,19,43.93Z"/><path class="cls-1" d="M54.15,10.19,41,17.9C43.94,12.89,48.79,11.1,54.15,10.19Z"/><path class="cls-1" d="M32,26.07l-5,3c.25-5.05,4.39-5.72,7.94-7,.19,1.49-1.69,1.6-1.9,2.83C33.41,25.84,32.92,26.14,32,26.07Z"/><path class="cls-16" d="M5,117.92c.94-2.58-1.81-5.52.78-7.94,2.14,1.9,2.92,4.08,1.35,6.72-.18,1.4.09,3.08-2,3.28C5.06,119.3,5,118.61,5,117.92Z"/><path class="cls-1" d="M25.86,33.21c-2.72-.32-3.08,2.63-4.9,3.55.34-2.62,3.27-6.44,5.1-6.65C26,31.14,25.93,32.17,25.86,33.21Z"/><path class="cls-1" d="M11.11,52c-1,3.15-1.93,6.36-4.07,9C8.18,58,6.62,53.63,11.11,52Z"/><path class="cls-1" d="M3,76v7.86a.57.57,0,0,1-.86.33C1,81.32-.43,78.42,3,76Z"/><path class="cls-1" d="M11.2,134.79A17,17,0,0,1,15,142C12.39,140.31,10.94,138,11.2,134.79Z"/><path class="cls-17" d="M81,1.89c2.32.74,5-1,7.12,1,.26,1.59-.89,1.65-2,1.81-2.3-.51-4.77-.06-6.94-1.26A.94.94,0,0,1,79,2.05Z"/><path class="cls-1" d="M19.82,38l-2,3.93L16,44C15.51,40.85,16.93,39,19.82,38Z"/><path class="cls-1" d="M16,143.17c2,1.46,3,3.58,3.89,5.8C17,148.1,15.58,146.23,16,143.17Z"/><path class="cls-1" d="M8,128.05c2.25,1.68,2.24,4.44,3.22,6.73C7.55,133.77,8.25,130.68,8,128.05Z"/><path class="cls-1" d="M79,2.05a3.43,3.43,0,0,0-.3.83A3.53,3.53,0,0,1,74,4.07l-2,0C74,2.22,76.45,1.9,79,2.05Z"/><path class="cls-1" d="M68,4.85l-5.9,2.2C63.53,5,65.08,3.15,68,4.85Z"/><path class="cls-1" d="M59,8.07l-4.86,2.15C55,7.86,56.59,7,59,8.07Z"/><path class="cls-1" d="M6.06,121.9C7.35,123,7,124.55,7,126,3.48,125.38,6.52,123.23,6.06,121.9Z"/><path class="cls-1" d="M7.06,61C6.75,62.36,7.56,64,6,65,6.5,63.7,3.46,61.48,7.06,61Z"/><path class="cls-1" d="M5.82,66A3.52,3.52,0,0,1,4,70C3.89,68.37,4.13,66.87,5.82,66Z"/><path class="cls-18" d="M2.11,84.2A4.25,4.25,0,0,0,3,83.87l.81,1.92c.15.2.29.41.43.61-.26,1.08-.78,1.8-2.06,1.45-.09-1-.19-1.91-.28-2.86A.78.78,0,0,0,2.11,84.2Z"/><path class="cls-1" d="M3.8,71c.13,1.71.55,3.46-.8,4.92C3.19,74.27,2.44,72.47,3.8,71Z"/><path class="cls-1" d="M40.85,18C40,18.8,39.4,19.9,38,19.82,38.19,18,38.8,16.88,40.85,18Z"/><path class="cls-1" d="M62,7.07c-.75,1-1.9.86-3,1C59.23,5.28,60.71,6.48,62,7.07Z"/><path class="cls-19" d="M98.82,2.74C101,1,103.64,2.58,106,1.9A9.49,9.49,0,0,1,111,4c-1.23,1.22-2.61.86-3.9.22-1-.51-.88.12-.91.74a2.09,2.09,0,0,1-1,.76,5.57,5.57,0,0,1-2.78-.06C101,4.9,98.59,5.45,98.82,2.74Z"/><path class="cls-1" d="M132.88,10.13,125,7C128.56,5.72,131.16,6.81,132.88,10.13Z"/><path class="cls-20" d="M106,4.77c-.82-1.58-.81-1.68-.21-1.6,1.73.23,3.45.54,5.18.83l2,.17a1,1,0,0,1-.48,1.45C110.18,6.42,107.93,6.87,106,4.77Z"/><path class="cls-1" d="M140,14l-7.09-3.83C135.69,10.56,139.08,10,140,14Z"/><path class="cls-1" d="M119.93,5l-2,.16c-1.45,0-3.32,1.57-4-1.16C115.81,5.27,118.52,1.24,119.93,5Z"/><path class="cls-1" d="M124.93,7,120,5C122.59,3.3,123.82,5,124.93,7Z"/><path class="cls-21" d="M114,4c1,1.37,2.7.54,4,1.16-.79,1-2,.77-3,.87-1.12.58-2,.62-2-1,0-.29,0-.58,0-.87Z"/><path class="cls-22" d="M85.93,3.93A2.25,2.25,0,0,0,88.1,2.88L93,2c.72,2.12-1.17,2.73-2.27,3.69a5.92,5.92,0,0,0-2.46,4.92c-.28,1.44-.06,3.16-2.09,3.57-2.53-1.42-5-2.06-7.87-.58-2.22,1.14-4.86.68-7.31.95-1.79.17-3.53.87-5.37.52S62.34,14,62,12.13c-.5-2.48,2.42-.92,3-2.29,4.54-3.3,10.39-2.42,15.24-4.73A6.18,6.18,0,0,1,85.93,3.93Z"/><path class="cls-23" d="M87,10c-.62-4.64,4.36-5.1,6-8l5.85.79c.83,1.93,3.16.82,4.29,2.12a2,2,0,0,1-1.29,1.51c-2.84.34-5.47-2-8.39-.64-2.42.73-3.58,2.95-5.3,4.52A1,1,0,0,1,87,10Z"/><path class="cls-24" d="M48,170c-3.42-1.39-6.19-3.81-9.21-5.84-2.35-1.58-1.36-2.89.31-4.16,1.21-2.56,2.8-4.65,6-4.79,3.61,2.24,8,3.41,10.22,7.56-1.63,2.51.39,2.94,2,3.71,1.39.64,3.89,0,3.65,2.77C56.77,172.09,52.37,171,48,170Z"/><path class="cls-25" d="M45,155.85c-2.85.13-3.24,3.74-5.89,4.15a2.22,2.22,0,0,1-2-1c.82-3.31,5.43-5.16,3.62-9.48.69-2.26,2.28-3.09,4.53-2.89,5.07,3.68,9.3,8.38,15,11.4,7.7,4.11,15.58,7.34,24.23,8.59,1.48.26,3.16.15,3.81,2a2.11,2.11,0,0,1-1,1.08c-5.68,1.11-11.22-.06-16.5-1.83C62.3,165,54.15,161.44,47,155.93,46.34,155.41,45.68,154.89,45,155.85Z"/><path class="cls-26" d="M48,170c4.25-1.41,8.7-.15,13-1a3.7,3.7,0,0,1,3.52,1.89c.71,2.3.49,4.68.5,7.05C59.11,175.75,52.85,174.34,48,170Z"/><path class="cls-27" d="M77.09,181.85c-1.33-1.7-3.86-.06-5.17-1.83.19-2.57-.55-5.66,3.43-6.13,3.59.63,7.29,1,9.74,4.27.48,1.69,2.18,3.26.58,5.2C82.79,183,79.72,183.67,77.09,181.85Z"/><path class="cls-28" d="M41,149.94c2.05.22,1.63,1.34,1.23,2.8-.8,2.94-2.9,4.66-5.22,6.27-1.83.39-3.75.57-5.09,2.14l-1-.94c-4.6-4.32-5.19-8.86-1.62-12.47a1.28,1.28,0,0,1,1.27.65c1.24,2-.06,4.77,2,6.48,2.57,1.52,3.81-.27,5.12-2C38.6,151.68,38.79,149.64,41,149.94Z"/><path class="cls-29" d="M75,175c-2.07.19-2.23,1.61-1.81,3.13.35,1.27-.06,1.79-1.26,1.92A20,20,0,0,1,65,178c-3-1.94-.35-4.71-1-7C68.3,170.5,72.12,171.41,75,175Z"/><path class="cls-30" d="M77.09,181.85l8.9,1.09.52-.34.58.23c-2.48,2.48-5.67.23-8.37,1.27L74,182.84C74.79,181.72,76,182,77.09,181.85Z"/><path class="cls-31" d="M176,59a64.86,64.86,0,0,1,6.22,25.95l-.62.38a1.62,1.62,0,0,1-1.23-.58c-1.32-1.9-1.24-4.34-2.17-6.63-1.58,1.62-.61,3.94-2.28,5.1-3.7-2.11-2.11-6.06-3.13-9.09-.57-1.7.23-4.3-3-3.75a2.29,2.29,0,0,1-1.76-2c-.11-2.74-.48-5.64,4-4.46,1.73.46,1.54-1.25,1.9-2.25A3.27,3.27,0,0,1,176,59Z"/><path class="cls-32" d="M165.9,41.15A35.61,35.61,0,0,1,173.05,53c-2,2.1-2.44,2.19-4.17.54-1.14-1.09-1.57-2.85-3.25-3.43-2.67-2.6-6.08-3.66-9.55-4.62a2.2,2.2,0,0,1-.69-2,4.35,4.35,0,0,1,1.68-2.27c.92-.68,1.7-1.66,3.05-1.43C162,40.48,163.76,41.56,165.9,41.15Z"/><path class="cls-33" d="M166,49c1.76,0,2.57,1,3.09,2.67.67,2.06,1.9,3.23,4,1.28a12.75,12.75,0,0,1,3,6c-.35,1-.69,2-1,3a1.48,1.48,0,0,1-1.77.38c-.88-.92-1.26-2.22-2.28-3a5.67,5.67,0,0,0-1.85-3.15C167.46,54,165.29,52.12,166,49Z"/><path class="cls-34" d="M165.9,41.15c-2.24,1.06-4.52,2.27-5.91-1.13-.21-2.15-.19-4.07,2.91-3Z"/><path class="cls-35" d="M162.9,37.07c-2,0-2.11,1.8-2.91,3l-2.1,1.92a3.17,3.17,0,0,1-1.39-2.55c1.24-2.68,1-6.65,5.56-6.45l1.18,1C159.51,34.58,163.35,36.05,162.9,37.07Z"/><path class="cls-36" d="M183,77.9c1.94,1.35.64,3.33,1,5a2.52,2.52,0,0,1-.31,3.4,2,2,0,0,1-1.47,0,.92.92,0,0,1-.34-1.28l.34-.12C183.74,82.72,182.61,80.23,183,77.9Z"/><path class="cls-37" d="M102,178l-1.11-.12c-2.36-2.4.89-3.88,1-5.88,1.11-1.17,2.57-1.2,4-1.29,1.67,0,3.36.09,4.88-.84,4.13-1.67,8.18-3.61,12.8-3.46a9.07,9.07,0,0,1,3.79,4.08c.06,1.33-1.07,2.39-.86,3.75.14.61.42,1.16.57,1.76-2.55,2.35-5.86,2.42-9,3-3.86-2-7.68-2.68-11.79-.42C105,179.2,103.3,178.79,102,178Z"/><path class="cls-38" d="M147,165c-2.64,2.54-5.9,4.13-9,5.91a40.74,40.74,0,0,1-5.32-4.22,4.49,4.49,0,0,1-1.07-1.79,4.61,4.61,0,0,1,1.07-3.3c.71-.58,1.41-1.3,2.42-.53a8.27,8.27,0,0,1,.95,2.1c.16-1.1-.66-1.76-1.28-2.51,1.31-3,4-4,6.92-4.68a4.62,4.62,0,0,1,2.08.36c3,1.55-.18,5.21,2.37,6.92A3.09,3.09,0,0,1,147,165Z"/><path class="cls-39" d="M102,178a36.62,36.62,0,0,0,9.64-2.58c2.84-1.21,4.4,2.06,6.4,3.57-2.29,2.1-6,.06-8.09,2.86-1.23,1-2.52.72-3.83.2C101.5,183.94,100.94,181.77,102,178Z"/><path class="cls-40" d="M132.94,165.88c1.67,1.68,4.8,1.9,5,5l-3.92,2.14c-.86,0-1.72-.07-2,1L127,176c-.84-.07-1.61-.24-2-1.16,1-1.09.93-2.71,1.92-3.8-.93-1.42-3.24-1.85-3-4.11-.1-1.43.81-1.45,1.83-1.34C128,168.9,130.56,165.5,132.94,165.88Z"/><path class="cls-41" d="M146,164c-5.27-1-.69-4.87-2-7a1.61,1.61,0,0,1-.3-2,2.24,2.24,0,0,1,1.24-.61,2.59,2.59,0,0,1,1.29.41,30.51,30.51,0,0,0,3.6,5.53c.06.21.11.43.16.65a8,8,0,0,1,0,1A16.51,16.51,0,0,1,146,164Z"/><path class="cls-42" d="M156.94,156.92,151,161l-1,0,0,0c-1.28-2.68-3.23-5.05-3.67-8.11a2.57,2.57,0,0,1,.51-2,2.08,2.08,0,0,1,2.72,1.47c1.07,2.92,3.31,3.34,6,3.17A2.12,2.12,0,0,1,156.94,156.92Z"/><path class="cls-43" d="M146,164c.73-1.84,2.22-2.18,4-2-.25,1.72-1.61,2.36-2.94,3Z"/><path class="cls-44" d="M106.07,182l3.83-.2c1,.23,2.29-.17,3,1l-2.64.2C108.87,182.67,107.18,183.54,106.07,182Z"/><path class="cls-45" d="M132.09,174.09c-.59-.5-1.29-1.11-.32-1.77s1.72-.13,2.29.73Z"/><path class="cls-46" d="M133.92,14c2.65,1.69,6.13,2,8,5-1,1.06-2.1.31-3.1,0,1.78,2.05,4.08,3.91,3.11,7.2-1.66.77-2.72-.51-4-1.14a48.15,48.15,0,0,0-7.49-4.72c-2.85-1.58-4.06-3.79-2.15-6.91C130.4,11.4,132.07,13.62,133.92,14Z"/><path class="cls-47" d="M154,24.88c1.72,2.34,5.56,2.46,6.21,5.92-.79,1.23-2,1.21-3.22,1.06-2-.52-3.75-2.28-6.08-1.26a12.1,12.1,0,0,0-1.08.67c-1.25,1-1.49,2.58-2.37,3.75s-1.77,3.07-3.91,1.71a6,6,0,0,1-.69-3.54,7.79,7.79,0,0,1,.42-2.2c1.31-3.06,2.84-5.91,6.77-6Z"/><path class="cls-48" d="M150,25A16,16,0,0,0,144,31c-1.41-1.39-1.77-3.19-2-5-1.32-2.74-2.48-5.59-5.95-7.55,2.89-1.2,4.23.76,5.88.58l3,2.06c1.58,1.4,2.91,3.14,5.08,3.74Z"/><path class="cls-49" d="M113,5a2.12,2.12,0,0,0,2,1l6.12,2.89-.5.55a4,4,0,0,1-2.11.48,53.32,53.32,0,0,1-8.28-1.78,15.31,15.31,0,0,1-3.78-1.7,1.58,1.58,0,0,1-.46-1.24l.1-.46Z"/><path class="cls-49" d="M133.92,14c-1.65.66-3.3-1.82-4.95,0a1.15,1.15,0,0,1-1.15.34c-1.19-.51-2.29-1.2-3.51-1.64-1.35-1-3.46-1.33-3.37-3.66l.11-.13A49.46,49.46,0,0,1,133.92,14Z"/><path class="cls-46" d="M150,24.82c-2.93.42-4.53-.94-5.08-3.74C147.48,21.18,148.61,23.19,150,24.82Z"/><path class="cls-50" d="M163,150c0,.31,0,.61-.05.92a1.79,1.79,0,0,1-1.29.45c-1.84-.7-2-2.56-2.75-4-1.47-3.06.45-5,2.27-7a1.92,1.92,0,0,1,1.92-.57c.94.88,1.92,2.12,3.13.42,1.1-1.53,2.67-2.86,2.63-4.94-1.28-1.5-3.27,1.21-4.35-.89,1.75-3.3,2.42-7.23,5.66-9.67,5.51,2.93,3.45,7.09,1.81,11.18s-3.66,7.94-6.84,11.08C163.5,147.37,163.09,148.58,163,150Z"/><path class="cls-51" d="M172,135.94c.71-3.91,1.4-7.81-2-11-1.36-3.51,2.46-2.78,3.52-4.32a3.74,3.74,0,0,1,2.68-.38c.71,1,1.85.27,2.72.66C176.79,126,175.87,131.67,172,135.94Z"/><path class="cls-52" d="M183,109l-1-.1c-1.06-.95-1.33.05-1.74.71-.75,2-1.94,3.36-4.31,3a2.81,2.81,0,0,1-1.21-.82c-1-2.89.11-5.77,0-8.65,2.73-.22,5.39-.66,7.58-2.54C184.84,103.21,183.24,106.15,183,109Z"/><path class="cls-53" d="M183,109c-1.08-2.55,2.14-6.17-2-7.94l-.46-.46a3,3,0,0,1-.23-1.89,4.29,4.29,0,0,1,.52-1.18,13.73,13.73,0,0,0,1.54-2.91c1-1.35,2.18-1.86,3.57-.48q-1,7.42-2.08,14.85H183Z"/><path class="cls-54" d="M180,109c.14-1,.15-2.3,1.38-2.2.86.07.49,1.35.56,2.11-1.77,3.83-1,8.28-3,12.05-.64.13-1.25,1.16-1.93.06-1.39-1.4-2.05-2.58-.45-4.57A22.19,22.19,0,0,0,180,109Z"/><path class="cls-42" d="M162,151l1-.05c.36.36.71.73,1.06,1.09L159.93,157a2,2,0,0,0-2-1C157.5,152.87,159.5,151.74,162,151Z"/><path class="cls-55" d="M163,150c-1.3-1-1.19-2.1-.2-3.2.81-.88,1.63-.71,2.34.2A3.84,3.84,0,0,1,163,150Z"/><path class="cls-56" d="M102,172.79c2.21,2.29-2.7,2.94-1.18,5.08L99,180c-1.51-1.28-1.17-3.33-2-4.88-.56-2.41-2.37-5.28,2.12-5.86a3.28,3.28,0,0,1,1.94,1C101.75,170.92,101.54,172,102,172.79Z"/><path class="cls-57" d="M93.92,182c-4.87-.13-5.09-3.54-5-7.14l.35-.61a1.68,1.68,0,0,1,1.87-.44c1.45,1.57.71,4.4,3.13,5.4a5.28,5.28,0,0,1,2,1.81c-.07.8-.3,1.37-1.27.91Z"/><path class="cls-7" d="M95,182l.88-1c-.11-1.65.65-2.35,2.29-2.08A1.77,1.77,0,0,1,98,181C97.24,182,96.68,183.72,95,182Z"/><path class="cls-58" d="M98,181c0-.69,0-1.39-.07-2.08a2.83,2.83,0,0,1-.74-2.82,2.23,2.23,0,0,1,.88-1.21c1.68,1.46.8,3.37.92,5.1Z"/><path class="cls-59" d="M185.9,94.12c-1.45-.21-2.9-.41-3,1.74-2.58-.37-1.88-2.27-1.82-3.87.85-1.45.23-3.79,2.59-4.36a1.36,1.36,0,0,1,1.25.34Z"/><path class="cls-31" d="M184.94,88l-1.07.11c-.84-.43-1.37-1-1-2,1.27-.74.86-2.08,1.12-3.18a2.58,2.58,0,0,0,.74.33C184.89,84.79,185.61,86.35,184.94,88Z"/><path class="cls-60" d="M87.06,169a2.4,2.4,0,0,0,.83-.24,1.77,1.77,0,0,1,1.52-.21c2.43,2.32.75,4.3-.53,6.31v0a2.88,2.88,0,0,0-1.51,4c.51,1.38,1,2.72-.29,4v0c-1.25-1.11-1.58-2.77-2.5-4.09-1-2.68-1.72-5.35.38-7.89A5.24,5.24,0,0,1,87.06,169Z"/><path class="cls-61" d="M156.31,31l3.85-.16,1.9,2.14c-3.13,1.29-3.22,4.82-5.13,7-.91,2.17-2.84,2.62-4.29,1.32-2-1.78.53-2.6,1.48-3.65a10.76,10.76,0,0,0,1.19-1.52,6,6,0,0,0,.23-3.69,2.73,2.73,0,0,1,.17-1.23Z"/><path class="cls-62" d="M162,151l-4,5-1,.95-1-1c-.71-2.48.33-5.58-2.6-7.27-.74-.84-2-1.45-1.4-2.92,1.33-1,2.73-.54,4.12-.23a12,12,0,0,1,2.05.49,6.42,6.42,0,0,1,1.85,1Z"/><path class="cls-63" d="M30,147.91c-4.27,4.45-1.6,8.37.93,12.3L28,159,27.05,158c0-1.46-.09-2.92-1.15-4.1.69-4.26-4.61-5.18-4.94-8.87,3.31-.45,2.41-2.86,2.1-4.81-.46-2.9-1.61-5.8.87-8.38,3.95,1.07,3.79,5.13,5.63,7.74a22.8,22.8,0,0,1,.9,4,25,25,0,0,1,0,3.24A1.78,1.78,0,0,1,30,147.91Z"/><path class="cls-64" d="M32,26.07l1.05-1.24c2.79,1,5-.08,7.19-1.72,2.46-1.83,5.07-3.46,7.62-5.18,2.23-.75,4.41-1.35,5,2,0,2.36-1.86,3.35-3.42,4.56-2.08,1.62-4.48,2.94-5.21,5.77-2.25,5.08-2.3,5.14-6.7,1.66-2.22-1.75-4.16-1.83-6.15.19a1.42,1.42,0,0,1-1.33,0C28.19,29.31,32.43,28.44,32,26.07Z"/><path class="cls-65" d="M52,21.05c.32-3.32-2-3.08-4.15-3.12a57.77,57.77,0,0,1,11.94-6.18l.43.4A2.11,2.11,0,0,0,61.33,14a3.15,3.15,0,0,1,.4,1.27C59.53,19,56.79,21.74,52,21.05Z"/><path class="cls-65" d="M64.94,9.84c-.12,1.34-2.51.71-2.11,2.14a2.87,2.87,0,0,0,3.07,2c1.76-.12,3.51-.5,5.26-.78-1.31,4.23-4.61,2.94-7.53,2.74A5.71,5.71,0,0,1,61,14l-.15-.12c-.5-.5-.55-1.21-.84-1.8l-.23-.37C61.08,9.94,63,9.8,64.94,9.84Z"/><path class="cls-66" d="M85.93,3.93c-1.87.59-3.66,1.65-5.75,1.18-2-.62-4.35.78-6.15-1l4.69-1.19C81.07,3.6,83.75,2.08,85.93,3.93Z"/><path class="cls-67" d="M12.87,56a16.31,16.31,0,0,1,5.25-9.77c1.71,2.31.23,4.16-.86,6.07-.59,1.26-2.23,2.42-.91,3.93.71.81,1.38-.23,1.87-.86,1.2-2.62,3-4.89,4.39-7.39,1.56-.5,2.53-1.74,3.56-2.89,1.58-1.28,2.73-3,5.38-2.62,1.36.18,4.45-.29,2.4-3.42,3.86,0,4.35.81,2.83,4.87-7.69,2.74-10.22,9.85-13.73,16.16-1.55,2.79-1.58,6.51-5,8.17-2-1.26-1.86-3.7-2.91-5.48-.8-1.43-2.19-2.44-2.79-4A3.73,3.73,0,0,1,12.87,56Z"/><path class="cls-68" d="M35.94,43.94c1.46-2.5,1.42-4.39-2-4.92-4-.77-4.27-3.63-3.89-6.88a5.46,5.46,0,0,0,.77-.28c.75-.49,1.56-1.69,2.42-.58,2,2.64,5.19,4.46,6.11,8-.24,1.75,1.58,3.3.5,5.14a3.76,3.76,0,0,1-1.32.52A2.74,2.74,0,0,1,35.94,43.94Z"/><path class="cls-69" d="M26.17,45.06a3.48,3.48,0,0,1-3.06,3c-1,1.82-2,3-3.35.18-1-2.14,0-3.7,1.25-5.26.78-1.54,1.3-3.26,2.85-4.28.23,1.4-.52,2.53-1.07,3.7s-1.36,2.66-.38,3.68C24,47.7,24.77,45,26.17,45.06Z"/><path class="cls-70" d="M7.12,116.7,5.77,110a2.52,2.52,0,0,0,.08-.82c.12-2.86,1.59-3.4,3.75-1.9A13.17,13.17,0,0,1,13,111.34a51.5,51.5,0,0,0,4.6,7.52c2.08,2.52,1.47,4.55-2,5.28-1.47.15-2.93.44-4.41.49A2.68,2.68,0,0,1,10,124C8.05,121.94,8.51,119,7.12,116.7Z"/><path class="cls-71" d="M24.19,131.84c-1.66,4.71.64,9.14.82,13.84-1.41.87-2.69-.18-4.05-.68-1.14-2.11-3.37-3.53-3.89-6.05.52-.63,1.49-1.36,1.11-2.08-1.8-3.39-.33-6.63.17-9.93A5.26,5.26,0,0,1,20,123.77C23.72,125.27,23.88,128.59,24.19,131.84Z"/><path class="cls-72" d="M19,127c-.08,1.62,1.8,3.44-.63,4.82-1.58.9,0,1.37.32,2.13.79,2,2.24,4.45-1.64,5-.41-.89-.81-1.79-1.22-2.68-.64-2-2.16-3.65-2.38-5.85A4.08,4.08,0,0,1,15.82,126C17,125.44,18.66,124.44,19,127Z"/><path class="cls-73" d="M19,127c-3.78-.32-5.54,1.43-4.6,4.7.44,1.53,1.69,2.82,1.43,4.58-3.15-3.52-4.29-8-5.9-12.27l1.33.11c1.5.18,3,.66,4.43-.26,1.05-.25,2.15-.12,3.2-.42a1.62,1.62,0,0,1,1.05.7C19.9,125.17,20.14,126.3,19,127Z"/><path class="cls-74" d="M21,43c-.2,1.69-1,3.19-.21,5.1,1.08,2.59,1.57-.48,2.31,0,0,3.32-3.16,5.09-4,8-1.42-1-1.85-2.83-3.06-4,1.08-1.81,2.43-3.53,2.07-5.86.11-.81,0-1.71.86-2.26Z"/><path class="cls-15" d="M12.87,56,13,59c.81,3-2,4.89-2.15,7.58-.19.64-.41,1.28-.62,1.91a19,19,0,0,1-.62,1.94c-.7,1-.56,2.93-2.63,2.52C7.61,66.82,9.11,61,12.87,56Z"/><path class="cls-75" d="M7,72.94l2-3.07c2.37,4,.13,7.59-1,11.27-.55.68-1.12,1.34-2.13.77C5.51,80.25,5.09,78.59,6,77,6.27,75.62,5.72,74.07,7,72.94Z"/><path class="cls-18" d="M6,77c0,1.67,0,3.33,0,5a2.51,2.51,0,0,1,.55,2.85c-.6.93-1.33,1.6-2.55,1.14l-.21-.19C5.75,83.17,3.85,79.56,6,77Z"/><path class="cls-76" d="M12,112c-.9-1.14-1.88-2.23-2.69-3.43-1.66-2.47-2.52-.86-3.45.6-1.11-.91-.75-2-.39-3.08,1.18-3.61.13-6.31-3.35-8l.06-3.2c1.28-2.5-.73-7.6,5.12-6.49,1.75,1.24,0,2.54.07,3.81-.33,2.05.09,3.8,1.94,5,1.47,1.19,3.12,2.3.39,4-.37.23.87.34,1.11.83a20.2,20.2,0,0,1,2.48,9.79A.81.81,0,0,1,12,112Z"/><path class="cls-77" d="M8,89C3,88,4,92.86,2.17,94.92c0-2.36,0-4.71,0-7.07C2.76,87.22,3.38,86.6,4,86l1.5-1.12c1.56-1.07,3-2.43,5.18-1.75,1.58.47,3.2.9,3.91,2.66-.13,4.28-3.3,3.26-5.84,3.35Z"/><path class="cls-78" d="M105.92,5.23c0,.22.1.45.14.67-.11.18-.23.36-.34.55A21.94,21.94,0,0,1,103.64,8a2,2,0,0,1-1.22.31c-.9-.52-1.19-1.2-.59-2.13l1.28-1.27Z"/><path class="cls-79" d="M63,14.9c2.84,0,5.92,1.16,8.16-1.71,3,0,5.88,0,8.64-1.49s5.07-.92,6.31,2.25l-.49.42c-2-.69-3.49.32-4.86,1.62a5.64,5.64,0,0,1-1.19.74,16.14,16.14,0,0,1-2.83.74c-3.26.53-6.44,1.61-9.79,1.6C64.79,18.48,62.88,17.65,63,14.9Z"/><path class="cls-80" d="M87,10h.83a3.63,3.63,0,0,1,2,2.32c.39,1.87.68,3.72-1.23,5-1.59.32-2.52-.45-3.07-1.86A2.26,2.26,0,0,1,85.81,14l.3,0C87.41,12.85,86.72,11.33,87,10Z"/><path class="cls-81" d="M101.83,6.13l1,2A2.86,2.86,0,0,1,104,10.87a2.43,2.43,0,0,1-1.54,2.35c-.57-1.65-1.29-1.86-2.59-.51a1.4,1.4,0,0,1-2.39-.4c-.33-2-.08-4.15-2.1-5.46-.82-.67-2-.94-2.5-2C96.21,2.77,98.94,5,101.83,6.13Z"/><path class="cls-82" d="M92.87,4.87c1.13.18,2.4,0,3.2,1.11A6.2,6.2,0,0,1,94,8.45c-1.34.55-1.69,1.77-2.09,3-.62,1.94-1.71,2-3.12.75-.33-.73-.67-1.46-1-2.18A6.6,6.6,0,0,1,92.87,4.87Z"/><path class="cls-83" d="M86,171.15a8.64,8.64,0,0,0-.92,7.77c-.35.45-.71.44-1.09,0-2.25-3-5.75-3.26-9-4l-11-4-3-2c-2.12-1.88-5.41-.73-7.45-3s-1.42-3,1.33-3c3.09-1,5.4,1.12,7.89,2.16A96.66,96.66,0,0,0,86,171.15Z"/><path class="cls-84" d="M86,171.15c-5.42,2.09-10.35-.56-15.24-2-5.46-1.55-10.63-4.1-15.93-6.21L45,155.85c-.33-.86-2.11-1.11-1.35-2.27.64-1,1.8-.48,2.6.21,7.23,6.25,16,9.62,24.76,12.94,5.08,1.93,10.62,2.26,16.09,2.27Z"/><path class="cls-85" d="M84,168a74.12,74.12,0,0,1-30.18-12.48A39,39,0,0,1,45,147c-.23-2.4,1.19-3.27,3.27-3.55,4.06,1.93,7,5.39,10.73,7.84,8.16,5.34,16.81,9.17,26.52,10.44,1.82.23,3.66.34,4.88,2a3.2,3.2,0,0,1,.18,2.81C88.74,168.67,85.72,165.42,84,168Z"/><path class="cls-86" d="M48,144a6.61,6.61,0,0,0-3,3c-1.44.84-3.22,1.23-4,3-1.57,1.13-1.81,3.1-2.83,4.57-1.6,2.3-3.63,3.24-6.27,1.56-.57-1.36.62-2,1.16-2.91,2.77-3.52,6.25-6.36,9.18-9.72,2.15-2.61,4.93-4.57,7.25-7A5,5,0,0,1,52,135.24a2.06,2.06,0,0,1,2.26,1.31c-.06,1.26-.93,2-1.68,2.91C51,140.89,49.72,142.68,48,144Z"/><path class="cls-87" d="M84,168c.58-2.47,1.56-2.64,6-1a1.08,1.08,0,0,1,.32,1c-.24.56-.81.66-1.25.95l-1.14-.12C86.78,167.55,85.31,168.11,84,168Z"/><path class="cls-88" d="M61.8,173.94a3.41,3.41,0,0,1-1.22.48,1.17,1.17,0,0,1-1.31-1.09,1,1,0,0,1,1-1.27C61,172,61.57,172.2,61.8,173.94Z"/><path class="cls-7" d="M84,179l1.08,0a7.79,7.79,0,0,1,2,3.93l-1.1.09Z"/><path class="cls-89" d="M43,144l-9,9.93c-2.53,1.1-3.08-.63-2.47-2.26.71-1.89-.4-2.1-1.46-2.66,0-.36-.05-.72-.08-1.08s.11-.51.16-.77c.58-2.57,3.14-2,4.73-3,.73-.4,1.36-1,2.08-1.38,1.46.18,2.55-1.09,4-1A4.34,4.34,0,0,1,43,144Z"/><path class="cls-90" d="M30,149l3.75-1c1.76,2-5.15,4.09.18,5.91l-2.06,2.16C28.85,154.35,30.17,151.48,30,149Z"/><path class="cls-91" d="M170,56c1.65.58,1.73,1.68,1,3.06,1,.76,1.21,2.05,2,3l2,0c-.77,1.85,1.05,6.94-4.33,2.85-1.9-1.44-1.27,1.93-1.67,3.17a.94.94,0,0,1-1.33-.07c-1-4.85-4.64-8.68-5.18-13.69,1.11-2.13,2.31-4.92,4.12-.59C167.32,55.43,169.05,54.94,170,56Z"/><path class="cls-92" d="M169.94,70c.19-1.34.76-2.26,2.29-1.72S174,70.15,174,71.53A29.72,29.72,0,0,0,176,83c1.19-.86,2.26-.92,3.15.42-.57,2.24-2.74,1.41-4.1,2.15a10.32,10.32,0,0,1-1.34.52,2,2,0,0,1-2.06-.33,3.93,3.93,0,0,1-.67-1.34,29.88,29.88,0,0,1-.38-4.53C170.6,76.55,168.35,73.41,169.94,70Z"/><path class="cls-93" d="M171.89,84.93c0,.31,0,.63,0,.94l-.68.46c-.7,0-1.55-.15-1.65-.8-.92-5.78-3.77-11.23-3-17.3A1,1,0,0,1,168,68c.32,0,.64,0,1,0a2.24,2.24,0,0,0,1,2c.66,3.34,1.31,6.67,2,10A6,6,0,0,0,171.89,84.93Z"/><path class="cls-94" d="M179,84c-.68-1.21-1.88-1-3-1.07.32-2.57-1.24-6.68,2.06-7.07,2.58-.3,1.41,4,2.38,6.13a11.34,11.34,0,0,1,.52,2.84,1,1,0,0,1-1,.43A1.69,1.69,0,0,1,179,84Z"/><path class="cls-95" d="M180,85a1.85,1.85,0,0,0,1-.11,1.68,1.68,0,0,0,.91.19,6.33,6.33,0,0,1,.15.87c.58,1,.55,2.18-.69,2.24-2.84.16-5.92.46-7.26-3.08h0A7.61,7.61,0,0,1,180,85Z"/><path class="cls-96" d="M168,68,167,68a1,1,0,0,1-1.17.19,9.69,9.69,0,0,1-1.66-2,7.32,7.32,0,0,1-1.21-3A8.38,8.38,0,0,0,161.25,59c-2.07-5.05-5.89-9-8.58-13.67a2.4,2.4,0,0,1,0-1.38,2.62,2.62,0,0,1,3.12-1c.09.64.18,1.27.28,1.91,3.88,1.81,6,5,6.88,9.07C164.32,58.77,168.83,62.41,168,68Z"/><path class="cls-31" d="M163,54q-3.45-4.53-6.88-9.07A11.28,11.28,0,0,1,166,49q2,3.49,4,7c-1.26-1.2-6.09,3.64-4.43-2.63C165.75,52.59,165,52.59,163,54Z"/><path class="cls-97" d="M155.82,43l-2.71,1c-1.87.94-3.52.32-5.11-.71.88-4.91,4.13-7.58,8.86-7.27-.1,2.73-3.2,2.52-4.41,4.31,1.74,1.65,3.07.12,4.48-.35a2,2,0,0,1,1,2Z"/><path class="cls-98" d="M173,62c-1.94-.13-2.2-1.39-2-3C173.16,59,174.1,59.84,173,62Z"/><path class="cls-99" d="M174.07,85.07c2.57,1,5,3.66,8,.84l.85.15c.33.67.67,1.34,1,2l-2,3c-1.52.58-2.57-.41-3.71-1.09-2.71-1.85-5,.43-7.43.82a2.8,2.8,0,0,1-2-.71c-1.13-3.09,1.53-3.19,3.2-4.08l0-.13Z"/><path class="cls-100" d="M100.69,171.08l-.8-1c-.82-1-2.32-1.25-2.71-2.66a5.16,5.16,0,0,1,.46-4.57c1.2-1.09,2.72-1,4.2-1.17a62.31,62.31,0,0,0,32.83-12.77c1.85-1.4,3.73-2.75,5.7-4,2.22-.74,3,1.26,4.26,2.29a2.23,2.23,0,0,1,.56,2c-1.3,2.47-.93,5.64-3.24,7.69-2.85.44-4.68,2.62-6.95,4.06h0l-2,1.22a13.81,13.81,0,0,1-4.59,3.23A4.39,4.39,0,0,1,126,166c-.8.05-1.61.09-2,.95-4.4,1.24-8.88,2.24-13,4.23-1.67.59-3.41.19-5.11.31C104.09,171.26,102.34,171.9,100.69,171.08Z"/><path class="cls-101" d="M112.34,172.88c2.58-.78,4-2.45,5.72-1.1,1.42,1.1,1.26,2.81.42,4.64Z"/><path class="cls-102" d="M105.62,173.3c1.59-.61,2.65-.47,3.45.51a1.23,1.23,0,0,1-.35,1.05C107.41,175.14,106.13,175.15,105.62,173.3Z"/><path class="cls-103" d="M127,171c.21,1.7-.09,3.13-1.92,3.8C124.88,173.15,125,171.63,127,171Z"/><path class="cls-104" d="M100.69,171.08l5.5,0a.51.51,0,0,1-.33.79c-1.3.22-2.77-.34-3.84.88C101.06,172.62,101,171.73,100.69,171.08Z"/><path class="cls-39" d="M105.86,171.91c.1-.27.21-.53.33-.79l4.71,0C109.4,172.57,107.56,171.77,105.86,171.91Z"/><path class="cls-105" d="M126,166l2.09-.93c1.29-.82,2.59-1.08,3.9-.06l.95.9a20.88,20.88,0,0,1-3,2.42C127.49,169.58,125.75,169.34,126,166Z"/><path class="cls-106" d="M135,161a2.92,2.92,0,0,1,2.48,1.29c.54,1,.79,2.23-.14,3.14a2,2,0,0,1-1.75.17,1.84,1.84,0,0,1-1.09-2.74A14.56,14.56,0,0,0,135,161Z"/><path class="cls-107" d="M142,156.94c2-2.26-.84-6.33,3-7.94l.42.57c0,.23.05.47.08.7-.17,1.63-.18,3.3-1.24,4.69-.07.67-.13,1.33-.19,2Z"/><path class="cls-108" d="M132,165l-3.9.06a13.76,13.76,0,0,1,4.94-2.82C132.69,163.14,132.34,164.06,132,165Z"/><path class="cls-109" d="M147,153c.61,2.81,4.15,4.53,3,8-2.95-.92-4-3.11-4-6C145.33,153.81,145.27,152.93,147,153Z"/><path class="cls-107" d="M147,153a2.26,2.26,0,0,0-1.05,2h-1a6.65,6.65,0,0,1-.15-4.73,4.35,4.35,0,0,1,.34-.41,1.4,1.4,0,0,1,1.77,1.2Z"/><path class="cls-110" d="M144.79,150.25l.15,4.73-.79,0C144.17,153.36,143.25,151.64,144.79,150.25Z"/><path class="cls-111" d="M146.9,151l-1.77-1.19a6.28,6.28,0,0,1-.23-.85l-.9-1.06c-.85-1-.5-1.74.49-2.35,4-.07,6,3.27,8.55,5.27-.41-1.16-1.6-2.51.91-2.91,3.46,2,3.78,4.72,2,8-3.41,1.56-6.25,1.78-7.13-2.92A2.66,2.66,0,0,0,146.9,151Z"/><path class="cls-112" d="M127.8,13.92,129,14c-1.12,2.53-.3,4.24,2.11,5.49,2.68,1.4,5.25,3,7.88,4.51.37,1.64,2.07,2.94,1.27,4.9a2,2,0,0,1-2.31,0c-5.46-3.33-10.93-6.65-17-8.83a2.31,2.31,0,0,1-1.19-1.5c.27-1.59,1.88-1.84,2.78-2.81a8.5,8.5,0,0,1,1.74-.85C125.44,14.56,126.43,13.53,127.8,13.92Z"/><path class="cls-113" d="M140,28.91,139,24c1.06.58,1.46,2.16,3,2,2.34,1,1.94,3.12,2,5-.06.63-.11,1.27-.16,1.91a.86.86,0,0,1-1.12.17C141.63,31.83,140.31,30.7,140,28.91Z"/><path class="cls-114" d="M143.09,33.08a3.68,3.68,0,0,0,.75-.14l.12,4c.79,1.66-.66,2.51-1.3,3.66-1.33,1.53-2.1,3.78-4.7,3.67-.05-7.06-7.74-6.76-10.67-11.06-.94-1.68-.43-2.72,1.42-3.05,1.41-.26,2.83.19,4.24,0,3.51-.29,5.77,2.9,9,3.24A7.44,7.44,0,0,1,143.09,33.08Z"/><path class="cls-115" d="M142,40l2-3c3.72-.87,2.11-6.25,5.94-7,.09.11.2.2.28.32-.37-.55.1.21-.28-.33,2.48-1.77,4.54-.94,6.41,1.06l-.65.08c-.83,1.54-1,3.41-2.35,4.67-2.61,1.92-4.09,5.23-7.55,6.09A4,4,0,0,1,142,40Z"/><path class="cls-78" d="M103.09,10.85c-.09-.9-.19-1.81-.28-2.71l.28-.22c1.07-.37,2.57-.08,2.79-1.79l.18-.23L110,7a4.68,4.68,0,0,0,1.55,1.08c4,1.21,3.77,2.74.43,4.6a5.72,5.72,0,0,1-2,.33C107.66,12.21,104.74,13.52,103.09,10.85Z"/><path class="cls-116" d="M125,15.92,123,16c-2.94,1.25-5,.35-6.27-2.54,2.12-.78,1.16-3.12,2.25-4.42l2,0,4.09,3A3.74,3.74,0,0,1,125,15.92Z"/><path class="cls-117" d="M119,9c-.47,1.43,2,4.31-2,4a2.91,2.91,0,0,1-2,.9A2.84,2.84,0,0,1,112,12c.12-.91,4-2.22-.33-2.72C111,9.19,110.53,7.78,110,7Z"/><path class="cls-118" d="M125,15.92c-.27-1.29-.93-2.58,0-3.87a2.65,2.65,0,0,1,2.77,1.87Z"/><path class="cls-119" d="M174,121c.18,2.85-4.21,1.1-4,4-.42,4-2.9,6.89-5,10,1.27,2.46-.36,3.72-2,5l-1,1c-2.55,1.14-2.69-.79-3.09-2.41,2-7,5.8-13.25,9.14-19.67,1.71-.5,2.14,1.81,3.69,1.69A3.72,3.72,0,0,1,174,121Z"/><path class="cls-120" d="M162.94,140l2-5a13.55,13.55,0,0,1,2.45-1.6,4,4,0,0,1,2.36-.15c1.24.35,1.27,1.46.77,2.38-1.53,2.86-2.75,6.31-5.88,7.53C162.92,143.82,163.12,141.3,162.94,140Z"/><path class="cls-121" d="M159.88,137.85c.12,1.43,0,3,2.09,3.13-.74,2-4.16,3.06-2,6l-2,0c-2-2.74-5.41-1.29-7.83-2.75a1.51,1.51,0,0,1-.29-1.34,5.71,5.71,0,0,1,3.28-1.25C156,141.55,156.77,137.56,159.88,137.85Z"/><path class="cls-122" d="M174,121l-2,.94c-1.21-1.71-.21-3.26.32-4.85A41.41,41.41,0,0,1,176,112c2.23.19,2.66-2,4-3a8.29,8.29,0,0,1-2.21,7.61c-1.64,1.68-1,2.89-.79,4.41Z"/><path class="cls-123" d="M181,98l0,1.06c-1.17,1.52-2.34,3.06-4.5,2.18,1.44,1.18,2.94-.88,4.49-.31l0,.12c-.17,6.24-3.4,3-6,1.93a4.07,4.07,0,0,1-3.38-.15,2.66,2.66,0,0,1-.2-1.86c.83-1.35-.21-3,.73-4.35,2.48-1,5,.24,7.47-.07A2,2,0,0,1,181,98Z"/><path class="cls-124" d="M172.1,103A2.39,2.39,0,0,1,175,103c2.12,3,0,6,0,9l-.7.19c-1.77-1.14-2.29-3.1-3.16-4.83C170.83,105.74,170.64,104.21,172.1,103Z"/><path class="cls-124" d="M176,112c.25,2.41-1,3.94-3,5-1.77-2.61-.26-4,1.95-5l.06,0Z"/><path class="cls-125" d="M181,98,180,97.12c-1.11-1.3.48-3.53-1.56-4.51-.66-.17.13.12-.48-.15-1.44-.64-4.35,0-3.66-2.62.53-1.93,2.82-1.71,4.59-.8l3,2c.3,1.61-.4,3.44,1,4.8A1.77,1.77,0,0,1,181,98Z"/><path class="cls-126" d="M181,100.92c-1.6,1-3.27,1.44-6.56.31A10.73,10.73,0,0,0,181,99.05C181,99.67,181,100.29,181,100.92Z"/><path class="cls-127" d="M98,167.9a3.07,3.07,0,0,1,1.87,2.19c-5.57-.31-1.39,3.11-1.82,4.77,0,.37-.06.74-.1,1.12-3.14-.32-2.82-2.86-3.2-5a4.78,4.78,0,0,1,.94-3.14A1.84,1.84,0,0,1,98,167.9Z"/><path class="cls-128" d="M89,168.88,90,168c1.51-2.61-.42-5.08-.33-7.63.1-2.75-.49-5.58.78-8.23,2.24-2.3,3.18-1,3.78,1.35.34,5.56.27,11.13.07,16.69-.07,1.9.26,4.7-3.3,3.85l-2.09.88C88.17,172.85,90.85,170.92,89,168.88Z"/><path class="cls-129" d="M91,174c2.42-.33,2-2.2,2-3.78,0-5.74,0-11.49,0-17.23a1.12,1.12,0,0,1,1.56.45c1.8,6,.39,12,.43,18-.16,2.63,1,5.33-.43,7.88l-.65.62C90,179.41,91.29,176.29,91,174Z"/><path class="cls-130" d="M95.87,171c.16,1.88.43,3.72,2.1,5,0,1,0,1.93,0,2.9l-2.08,2.05a2,2,0,0,1-1.95-1l0,0c1.22-2.33.27-4.84.57-7.25a7.43,7.43,0,0,1,.12-1.49A.78.78,0,0,1,95.87,171Z"/><path class="cls-131" d="M145.92,41l7-6c2-.06.79-3.4,3.17-3,1.61,1.09,1,2.61.79,4.06-4.19.81-6.56,3.91-8.88,7.07-.35,1.55-1.61,2.42-2.57,3.53-1.36,1.33-2.71,2.68-4,4.07-1.15,1.06-2.12,2.36-3.7,2.86a1.84,1.84,0,0,1-2.19-1.34,3.63,3.63,0,0,1,.9-2.63C139.43,46.55,141.4,42.34,145.92,41Z"/><path class="cls-97" d="M156.07,31.93c-1.4.65-.89,3.3-3.17,3,1.22-1.09.48-3.57,2.76-3.91A3.27,3.27,0,0,1,156.07,31.93Z"/><path class="cls-132" d="M154,148c-2.28,2.05,2.27,3.16.5,5.32L145,145.93a.83.83,0,0,1-.24-.79c.07-.27.14-.4.22-.4,1.81-.94,3.35,1.06,5.14.45a2.24,2.24,0,0,1,1.79.81Z"/><path class="cls-133" d="M150.05,144c2.79.57,6.76-2,7.92,2.92l-1.9-.05c-1.35-2.17-3.54-1.24-5.41-1.48a1.1,1.1,0,0,1-.94-.8Z"/><path class="cls-121" d="M150.07,144.81c1.94.86,4.91-1.21,6,2.1a7.65,7.65,0,0,0-4.14-.91l-2-.07A.76.76,0,0,1,150.07,144.81Z"/><path class="cls-134" d="M20,124.13a.79.79,0,0,0-.74-.24c-1.12-2-.67-4.65-2.43-6.44-1.18-5.29-3.41-10.36-3.31-15.92.21-2.65,2.28-3.25,4.31-3.88a1.93,1.93,0,0,1,1.45.48c1,1.25,1,2.76,1.05,4.25.49,12.57,4.64,23.91,11.6,34.3,1.28,1.9,2.83,3.74,2.3,6.31-3.48,2.19-3.89-1.21-5.25-2.88l-4.75-8.27C22.23,129.57,22.3,126.19,20,124.13Z"/><path class="cls-135" d="M35.92,145l-5.8,2.19c-1.72-1-.54-2-.06-3.08C32.09,143.87,34.4,141.81,35.92,145Z"/><path class="cls-136" d="M35.92,145c-1.74-1.7-3.9-.68-5.86-.89-1.48-1-.94-2.58-1.12-3.95,1.92.49,2.34,3.68,5,2.8a2,2,0,0,1,3,.13C36.93,143.85,36.84,144.62,35.92,145Z"/><path class="cls-137" d="M63,14.9c1.23,1.27,2.15,2.93,4.16,3.18a1.55,1.55,0,0,1,0,1.36,5.78,5.78,0,0,1-3,1.9C57.81,22.88,53,27.42,47.24,30c-1.38.32-2.77,1.17-4.14,0,1-4.91,5.87-6,8.92-8.94,3.71-1.43,7.43-2.84,9-7A1.75,1.75,0,0,1,63,14.9Z"/><path class="cls-138" d="M43.1,30,47,29c.65,2.2-1.38,3-2.26,4.45-.67.83-1.39,1.61-2.08,2.41-1.07,1.54,1.38,5.56-3.23,4.62l-.5-.44c-2-3.38-4.26-6.59-8.11-8.18,2.42-3.68,4.92-4.19,7.52-.85C41.14,34.6,42.32,34.11,43.1,30Z"/><path class="cls-139" d="M60,12.12c.82.35.88,1.05.84,1.8-.8.32-1.77,1.49-2.39.28C58,13.21,59.63,12.93,60,12.12Z"/><path class="cls-140" d="M35.94,43.94,39,44c1.41,2.15-.4,3.35-1.46,4.71-6.93,8.86-12.21,18.53-14.71,29.59-.63,2.23-.8,4.54-1.44,6.76-.44,1.57-.62,3.37-2.88,3.4-2.08-.43-3.17-2-4-3.71-1.38-5.52,1.08-10.4,2.57-15.44a2.77,2.77,0,0,1,1.1-1.15c3.17-7.18,6.11-14.5,11.09-20.72C30.94,45.29,32.44,42.71,35.94,43.94Z"/><path class="cls-141" d="M16.05,52.05c3.38-.44,2.81,2.11,3.06,4-.81,1.34-1.38,3.3-3.53,1.68C12.77,55.66,14.67,53.86,16.05,52.05Z"/><path class="cls-142" d="M9.7,66.86C9.5,63.69,11.88,61.61,13,59a6.53,6.53,0,0,1,3,3,2.43,2.43,0,0,1-.17,3.13C13.48,64.55,12.39,68.53,9.7,66.86Z"/><path class="cls-143" d="M15,65c1.11-.77.93-1.94,1-3,1.45,1.8,1.23,4.18,2.1,6.18A2.76,2.76,0,0,1,18,69c-.44.6-.73,1.36-1.52,1.65a2.66,2.66,0,0,1-2.86-.74A3.66,3.66,0,0,1,15,65Z"/><path class="cls-144" d="M39.93,44c0-1.43-3-2.09-1-4l.12-.1c7,3.55,11.52,9.92,17.09,15.09,2.56,2.38,5,4.93,7.45,7.36,4.3,4.64,10,7.86,13.61,13.21,3.25,4.79,3.24,4.85-.76,6.06-1.46-.46-2.2-1.79-3.3-2.69-4.5-3.87-8.42-8.36-12.9-12.26-1.81-2.66-4.64-4.29-6.76-6.63a10.77,10.77,0,0,0-2.1-2.32,7.92,7.92,0,0,1-1.31-1.34c-1-1.33-2.14-2.53-3.06-3.91a9.87,9.87,0,0,0-3.1-2.9,7,7,0,0,1-1.63-1.83,8.74,8.74,0,0,0-2-2.17C39.87,45.16,39.52,44.68,39.93,44Z"/><path class="cls-145" d="M39.93,44l1,1c1.21,1.61.1,2.81-.8,4a84.66,84.66,0,0,0-14.4,27,14.89,14.89,0,0,1-1.66,3.6c-.51.78-1.1,2-2.19,1.12-.75-.62-.58-1.82.07-2.71,1.05-8.58,5.17-15.88,9.55-23.08,2.3-3.77,5.72-6.75,7.44-10.9C39.3,44,39.62,44,39.93,44Z"/><path class="cls-72" d="M17.88,117.14c.56,2.22,1.7,4.34,1.34,6.75A2.87,2.87,0,0,1,16,124c-.93.41-1.17-.11-1.19-.9,2.29-.15,4.55-.93,2.05-3.3s-3.3-5.18-4.9-7.77l1.16-.09C16.36,112.17,16.47,115.24,17.88,117.14Z"/><path class="cls-146" d="M14.84,123.06,16,124c-1.47,3.78-3.12,1.46-4.75.15A5.08,5.08,0,0,1,14.84,123.06Z"/><path class="cls-147" d="M7,81c.63-3.71,2.08-7.28,1.9-11.13.07-.63.13-1.25.19-1.88a1.79,1.79,0,0,1,2.23,1.91c-.13,2.13,1.53.3,1.89,1,1.2,1.86.27,3.58-.32,5.33a4.69,4.69,0,0,1-.74,1.13c-1.51,1-2,2.84-3.32,4A1.56,1.56,0,0,1,7,81Z"/><path class="cls-148" d="M13,71c-3.11,1.35-2.24-2.46-3.89-3l.59-1.13a6,6,0,0,0,3.75-2.57c1.05-1.4,1.4-.26,1.59.74-.36,1.65-.73,3.29-1.09,4.94A1.77,1.77,0,0,1,13,71Z"/><path class="cls-149" d="M7,81l2,0c1.14-.48,1.8.16,2.38,1A1.89,1.89,0,0,1,11,84l-5.53.87c.16-1,.33-1.92.5-2.87Z"/><path class="cls-150" d="M8.8,98.09c-3.5-.87-3.4-3.42-2.89-6.17a4,4,0,0,1,2.82-.16c2.71.55,5.4-.21,8.1-.07,7.79,1.29,15.64,1.07,23.49.94q.84,0,1.68,0c2,.12,4-.19,5.84,1a2,2,0,0,1,.57,1.59c-1.13,2.58-3.5,2.07-5.56,2.15C35.93,97.6,29,97,22.08,97.7c-1.33.52-2.74-.18-4.08.28h0C14.92,97.28,11.87,98.76,8.8,98.09Z"/><path class="cls-151" d="M17.88,117.14q-2.36-2.62-4.73-5.24c-2.42-2.85-1.64-6.74-3.24-9.86,1.13-1.34,2.58-1.29,4.09-.91Z"/><path class="cls-152" d="M14,101.13c-1.11,1.45-2.72.63-4.09.91-.41-.31-2.3-.07-.68-1.18,2.14-1.48,0-1.92-.43-2.77,3.06-.51,6.08-3.8,9.19-.12Z"/><path class="cls-153" d="M8,93l-2-1.11c-.32-1.68,1.5-1.87,2-3l0,0a5.17,5.17,0,0,1,3.41.51c1.38,1.38.31,2-.84,2.4C9.66,92.18,8.61,92.15,8,93Z"/><path class="cls-154" d="M11,84l-.1-2c-1.16-2-1-3.73,1-5.08L12,77c1.42-2.51,2.57-5.21,5-7,.33-.34.65-.68,1-1-.72,5.34-3.29,10.36-2.83,15.92a1,1,0,0,1-.1,1.29c-.54.22-.85,0-.88-.55Z"/><path class="cls-76" d="M14.16,85.64a2.17,2.17,0,0,0,.86.27,5.12,5.12,0,0,1,2.31,2.4c-1.59,3.27-4.25,1.56-6.57,1.39L8,88.94C9.45,86.72,13.69,89.7,14.16,85.64Z"/><path class="cls-155" d="M105.88,6.13c.34,1,2.25,1.76,1.34,2.74-1.5,1.62-2.76-.49-4.14-.95C103.05,5.82,104.49,6,105.88,6.13Z"/><path class="cls-156" d="M42.08,35.07,43.86,33a100.12,100.12,0,0,1,20.3-12.33c2-.18,3.79-1,5.7-1.32-1,.18-2,.58-2.87-.31a4.69,4.69,0,0,1,.16-.91L77,16c2.11.95,4.29.24,5.62.4,1.48-.22.72-1.22.94-.59.09.25,0,.36-.25.42-1.23.27-2.45.58-3.52-.42.06-.28.13-.56.19-.83a7.25,7.25,0,0,1,6,0l2,2q.6.42,1.23.81c1.63,1.55,1.89,2.94-.46,4A76.28,76.28,0,0,0,50.39,36.56c-1.9,1.4-3.63,3.56-6.51,3.08C42.47,38.44,40.85,37.31,42.08,35.07Z"/><path class="cls-138" d="M86,15H80c1.7-1.68,3.45-3.14,5.82-1C85.86,14.33,85.92,14.68,86,15Z"/><path class="cls-157" d="M79.8,15.85c1.36.43,2.93-.37,4.65,1-2.82-.14-5.24.95-7.44-.85Z"/><path class="cls-158" d="M88,18c0-.31,0-.62,0-.93,1.71-1.37.88-3.19.84-4.86,1.76.57,2.31-.14,2.28-1.9s.3-3.55,2.85-2.18c1.81,1.71,1.5,4,1.45,6.09-.29,13.3.07,26.6-.41,39.92A185.28,185.28,0,0,0,95.17,73a4.9,4.9,0,0,1-.55,1.57c-4.74,2.34-9,5.69-14.36,6.78-.84-.46-.73-1.27-.78-2,0-1.58-.37-3.24,1-4.54.36-.35.71-.81,1.18-.9,7.63-1.52,8.46-6.73,8.11-13.4-.49-9.13-.13-18.31-.13-27.47A14.9,14.9,0,0,0,89.17,29a11.17,11.17,0,0,1,.36-4.56C89.14,22.29,92.59,19.18,88,18Z"/><path class="cls-159" d="M94,74Q94,41,93.92,8.11A2,2,0,0,1,96.07,6c2.54,1.41,2.65,3.57,1.86,6-1.21,2.17,1.87,3.5,1.09,5.61-.28.46-.59.9-.91,1.34-1,2-.71,4.23-.71,6.36,0,14.4.08,28.81-.12,43.21C97.25,70.59,98.81,74.39,94,74Z"/><path class="cls-160" d="M115,13h2c1.32,2.39,3.86,2.28,6,3-.09,2.06-1.59,2-3,2-3.25,1.28-6.19-.1-9.18-1.06-2.79-1.58-7.05.11-8.72-3.94l1-2.18L110,12.08C111.65,12.36,113,14.16,115,13Z"/><path class="cls-161" d="M102,13c2.61,2.21,6.25,1.14,9,2.86l-.45.56c-1.94,1.13-4.19.57-6.21,1.19A10.42,10.42,0,0,1,99,17.05c-2.14-1.3-4.08-2.64-1.1-5.06.87,1,1.42.15,2-.37C102.61,9.1,101.72,12,102,13Z"/><path class="cls-162" d="M91,152c-.67,5.3,1.21,10.76-1,15.95,0-.33,0-.65,0-1,0-1,0-2,0-3a8.65,8.65,0,0,1-1.33-5.49c.57-4-1-6.13-5.17-6.75-2.58-.38-5.09-1.27-7.74-1.59-4.15-.51-8.15-1.72-11.2-4.81s-7.68-4-10-7.93c-.08-2.36.72-4.18,3.09-5a4,4,0,0,1,1.51,0,15,15,0,0,1,6.57,4.19c3.7,3.82,8.93,4.84,13.84,6.23,9.21,2.62,8.13,3.28,8.12-6,0-.5,0-1,0-1.51-.07-2.18-.09-4.35,0-6.52.28-4.08-.79-8.25.78-12.25,2.07-1.72,2.48.39,3.36,1.44a7.78,7.78,0,0,1,.59,2.69c.14,4.87,0,9.75.1,14.62C92,140.83,93.65,146.6,91,152Z"/><path class="cls-87" d="M90,158c0,2,0,4,0,6-4.48-1.77-9.4-1.28-14-2.91A75.79,75.79,0,0,1,48,144c.24-2.54,2.21-3.72,4-5.05a56.34,56.34,0,0,0,34,17.26A6.73,6.73,0,0,1,90,158Z"/><path class="cls-163" d="M90,158c-13.93-1.35-26.5-5.78-36.52-16a4.47,4.47,0,0,1-1.5-3l2-2a.6.6,0,0,1,1,0c5.87,3.53,10.68,8.69,17.26,11.16,3.89,1.46,8.13,1.77,12,2.35C89.74,151.29,90.46,153.65,90,158Z"/><path class="cls-164" d="M43,144a1.82,1.82,0,0,1-2-2,1.11,1.11,0,0,1-.28-1.18,6.16,6.16,0,0,1,1.78-1.85c1.58-.94,2.1-3.33,4.44-3.24,1,.63,2.21.51,3.09,1.3C48.28,139.92,45.19,141.5,43,144Z"/><path class="cls-137" d="M50,137c-1-.42-2.81,1.62-3-1a1.15,1.15,0,0,1-.3-1.17,7.52,7.52,0,0,1,3.17-3.15,2.25,2.25,0,0,1,1.26.08A7.09,7.09,0,0,1,53.26,134c.13,1.07-.63,1.47-1.39,1.87Z"/><path class="cls-165" d="M51.87,135.9,53.1,134a3.28,3.28,0,0,1,3.09-2.8c1,.16,2.06.25,1.77,1.73-1.72.79-2.19,2.51-3,4l-1,0C53.49,136.1,52.67,136,51.87,135.9Z"/><path class="cls-100" d="M41,141v1c-1.28.63-2.3,2.2-4.05,1.07l-3-.13C27.32,132.76,22,122.07,19.41,110.07c-.88-4,1-8.31-1.41-12.09.71-1.19,1.9-1,3-1a2.05,2.05,0,0,1,2.23-.16c2.35,1.6,2.71,4.25,2.79,6.62C26.47,117.79,32,130.08,41,141Z"/><path class="cls-99" d="M180,85l-5.95.1c1.33-1.77,3.29-.62,4.91-1Z"/><path class="cls-166" d="M171.89,84.93a3.43,3.43,0,0,1,0-4.9C171.9,81.66,171.89,83.3,171.89,84.93Z"/><path class="cls-167" d="M171.92,86c-.94,1.32-3.17,1.69-2.88,3.92a2.91,2.91,0,0,1-1.32,1,6.77,6.77,0,0,1-5.56-.54c-.63-.8-.23-1.39.4-1.92,5.24-1.69,3.47-5.84,2.47-8.87-1.41-4.29-.09-7.93,1.05-11.78L167,68c.67,5.58,3.2,10.8,3.23,16.52C170.18,85.49,171.08,85.8,171.92,86Z"/><path class="cls-168" d="M166.08,67.78c-.86,5.69-.15,11.35,1,16.87.86,4.1-1,4.6-4.12,4.33,2.3-4.1,1.72-8.12-.2-12.2-1.19-2.54-1.63-5.38-2.64-8-1.06-2.09-1.64-4.4-3-6.35-1.47-3.2-4.38-5.7-4.68-9.49,1.63-2.74,3-1,4.13.39,2.44,2.9,4.91,5.81,6.19,9.51.4,1.14,0,3.16,2.34,2.81A2.4,2.4,0,0,1,166.08,67.78Z"/><path class="cls-169" d="M165.1,65.64c-.08.8-.17,1.6-.33,3-3.19-5.61-5.54-11-9.58-15.31-.77-.82-1.26-1.56-2.23-.36-1.37.26-1.43-.69-1.53-1.62.31-1.44-.63-2.39-1.33-3.45s-1.34-2.43-.35-3.54c1.18-1.33,2.25.13,3.35.55,3.78,4.08,7.09,8.47,9,13.78.73,1.38,1.19,2.87,1.89,4.26C164.35,63.87,164.72,64.75,165.1,65.64Z"/><path class="cls-168" d="M153.1,45c-.93,0-2.31-.41-2.7,0-1,1.11.56,1.92.86,2.89s4.11,1.39.68,3.13c-2.91.43-4-2.56-6.21-3.35a1.52,1.52,0,0,1-.55-1.17c.19-1.75,1.71-2.42,2.8-3.43a7.42,7.42,0,0,1,5.13.91A8,8,0,0,0,153.1,45Z"/><path class="cls-168" d="M164,63a5,5,0,0,1-1.89-4.26A4.56,4.56,0,0,1,164,63Z"/><path class="cls-170" d="M178.84,89c-1.38.1-2.93-.5-4.24,1.24,1.5,1.55,4.23-.24,5.42,1.78a1,1,0,0,1-.4,1.46,13.07,13.07,0,0,1-9.2.08c-1.62-1.47-.27-2.47.57-3.56C173.42,88.21,175.91,86.93,178.84,89Z"/><path class="cls-171" d="M171,90c-.35,1-.7,1.92-1.06,2.88a1.33,1.33,0,0,1-1.33.16c-1-.86-1.66-1.8-.62-3.08l1.06-.08Z"/><path class="cls-172" d="M141,145c-5,5.92-11.59,9.82-18.44,12.71C114.83,161,106.73,163.87,98,163a3.11,3.11,0,0,1-.56-3.78c3.53-3.16,8.35-2.64,12.44-4.25,2.14-.84,4.06-2.27,6-2.93,7.7-2.66,14.2-7.83,22-10.11C139.68,142.2,140.94,143,141,145Z"/><path class="cls-173" d="M141,145c-1-.62-1.38-2.19-2.93-2.07-2.81-2.13-5.14-4.79-7.73-7.16-2.3-2.48-4.5-5.06-7-7.32a109.32,109.32,0,0,1-10.56-9.62c-1.54-1.7-3.27-3.29-3.27-5.85a1.72,1.72,0,0,1,1.41-1.42c4.34.29,6.53,3.66,9.12,6.42,1.48,1.57,3,3.09,4.42,4.74,1.35,1.47,3.22.08,4.71.83a2.63,2.63,0,0,1,1.2,1.52c-1.3,3.4,1.08,5.2,3.12,7.16,1.39,1.45,2.77,2.9,4.29,4.23,2.67,2.62,6.84,3.94,7.34,8.45,0,.33,0,.66,0,1a2,2,0,0,0-1,2C142.4,147.59,142.25,145.72,141,145Z"/><path class="cls-174" d="M98,159c0,1.33,0,2.67,0,4,0,1.64,0,3.28,0,4.92L96.1,168c-2.3-4.51-.57-9.34-1.13-14-.51-12.79-1.21-25.59,1.13-38.3,2.2-2.67,4.92-4,8.42-3.11a1.18,1.18,0,0,1-.15,2c-5.18,2.19-5.27,6.75-5.44,11.29.29,5.2-1,10.41.28,15.58a76.33,76.33,0,0,1,.2,9.56C99.42,153.81,99.91,156.62,98,159Z"/><path class="cls-175" d="M111.05,15.89,119.94,18c6.87,3.28,13.92,6.26,20.07,10.88,1.58,1,3,2.12,3.08,4.17a3,3,0,0,0-.16.84c-2.84.34-4.38-2-6.45-3.19C129,26.4,121.6,22,113.09,19.85c-1.55-.39-3.33-.55-4.3-2.19-.07-1.53,1.48-.89,2.07-1.53Z"/><path class="cls-176" d="M108.8,17.15c12.57,3.16,23.79,9.07,34.13,16.77-.24,2.7-1.79,1.19-2.62.64C138,33.05,135.77,31.48,133,31c-5.93-1-10.7-5.06-16.54-6.36-2.09-.47-4.07-1.42-6.28-1.36-2.57-.18-5-1.11-7.63-1.08-1.21,0-2.69-.57-3.15,1.29-.06.69-.08,1.37-.09,2.06,0,1.74,0,3.48,0,5.21,0,.78,0,1.56,0,2.33.06,1.07,0,2.13,0,3.19.07,1.63,0,3.26,0,4.9s0,3.37,0,5c-.1,3.48.17,7,0,10.43,0,.6,0,1.19,0,1.79-.3,4.2,1.1,8.56-1.23,12.57a1.11,1.11,0,0,1-1.58-.46c-.19-16,0-32.08-.11-48.12,0-2.3.24-4.29,2.56-5.39h0c1.63-1.34,3.38-.08,5.06-.26S107.31,16,108.8,17.15Z"/><path class="cls-177" d="M128,33c2,1.16,3.92,2.35,5.92,3.45,3,1.62,6.38,3,4,7.43a2.54,2.54,0,0,1-1.08,2.51,2.22,2.22,0,0,1-2.06-.19C128,38.11,118.32,35.4,108.68,32.72A41.24,41.24,0,0,0,101.92,31c-1.16-.19-2.39-.71-2.25-2.18s1.4-1.74,2.57-1.93c3.06-.5,5.9.61,8.8,1.29,1.15.28,2.44,1.37,3.14-.63C119.7,27.05,123.81,30.1,128,33Z"/><path class="cls-178" d="M128,33c-4.92-1-8.93-4.47-14-5-3.19,1.79-6-.69-9-.82-1.75-1.09-3.84-.73-5.7-1.33A6.7,6.7,0,0,1,98,25.05V23c3.64-2.27,7.27-.22,10.84.23,1.61.2,1-.55,1.1-1.18,8.51.84,15.88,4.61,23,9-1,1.45-2,.28-3.08.13C128.46,30.9,127,30.75,128,33Z"/><path class="cls-179" d="M136.81,45.8l1.13-1.92c2-.61,2.49-2.81,4-3.92l4,1-9,9C136.18,48.59,136.59,47.19,136.81,45.8Z"/><path class="cls-180" d="M149.9,29.9c3.91,1.34.77,2.29,0,3.58-1.75-1.42,0-2.45,0-3.57Z"/><path class="cls-116" d="M115,13c-2.11,2-3.5.17-5-.95l2-.09Z"/><path class="cls-181" d="M172.1,103c-.08,1.61-.15,3.22-.23,4.83,0,.2,0,.41,0,.62a8.29,8.29,0,0,1-.41,3.12c-.59,2.1-.93,4.27-1.72,6.31a2.32,2.32,0,0,1-.9,1l-9,19c-2.27,1.34-3.08,4.38-5.91,5.07-2.61-1.51-1.47-3.36-.28-5a68.25,68.25,0,0,0,13.11-34.25c.22-2.21,1.15-3.82,3.8-3.47a2.19,2.19,0,0,1,1.28.91C172,101.77,172,102.41,172.1,103Z"/><path class="cls-182" d="M168.89,118.88A6.89,6.89,0,0,1,169,118a22.82,22.82,0,0,0,1.69-5.29c1-1.46.45-3.27,1.17-4.79l0,0c2.08.58,1.69,3,3.08,4.12-.88,1.58-2.42,2.91-1.95,5-.36,1.65-.71,3.3-1.07,4.94C169.5,122.32,168.89,120.91,168.89,118.88Z"/><path class="cls-183" d="M171,100.94c-1.94-.06-3,.61-3.1,2.83A63.34,63.34,0,0,1,154.39,139c-1.1,1.42-1.37,2.51-.42,3.94l-4,.08c-2.16,1.27-3.18-.29-4.26-1.72-.07-.24-.13-.49-.2-.74a3.45,3.45,0,0,1,.34-1.48c8.11-10.41,13.77-21.86,15-35.22.25-2.6.59-5.34,2.77-7.28,1.85-.89,3.7-2,5.71-.37C170.25,97.65,171.49,99,171,100.94Z"/><path class="cls-132" d="M146,141c1.41.52,2.29,2.1,4,2l.09,1,0,0C146.91,145.42,145.93,144.7,146,141Z"/><path class="cls-184" d="M169,97.12c-1.62-2-3.36.57-5-.13a10.32,10.32,0,0,1-2.29,0c-1.75-.62-3-1.47-1.49-3.48a4.84,4.84,0,0,1,1.57-.67c4.67-.77,9.19,1.37,13.85.69,1.44-.21,3,.48,4.32-.57q.06-.44.09-.87c2,1.71.6,3.38-.07,5.06-2.7,2.09-5.3-.34-8-.18A2.19,2.19,0,0,1,169,97.12Z"/><path class="cls-185" d="M169,97.12l3-.18c1.61,1.45,2.57,2.87-.11,4.19a3.41,3.41,0,0,0-.84-.19C170.31,99.69,168.92,98.79,169,97.12Z"/><path class="cls-57" d="M96,154Q96,161,96.1,168c-.08,1-.15,2-.23,3-.29,0-.58,0-.88,0-1-5.46-.29-11-.43-16.45A.9.9,0,0,1,96,154Z"/><path class="cls-186" d="M91,152V135a1.81,1.81,0,0,1,2.11-.23,3.74,3.74,0,0,1,.92,1.2,14,14,0,0,1,.93,6.5,12.56,12.56,0,0,1-.13,2,7.19,7.19,0,0,0-.32,4.9,8,8,0,0,1,.28,1.27,2.4,2.4,0,0,1-.87,2.35H93C93,151.27,92.11,151.41,91,152Z"/><path class="cls-187" d="M93.92,153c0-1,0-2,.07-3,2.64.76,1.4,2.48,1,4v17c0,.33,0,.66,0,1-.29.44-.6.48-.93,0Z"/><path class="cls-57" d="M94,172l.93,0c-.43,2.65,1.07,5.55-1,8C94,177.3,94,174.65,94,172Z"/><path class="cls-188" d="M138,53c1-.89,1.59-2.42,3.27-2.46,2.41-1.84,4-.17,5.5,1.39a44.37,44.37,0,0,1,11.39,21.61c.27,1.79.28,3.6.48,5.39.15,1.47-.37,2.61-2.17,2.51-3.39-2.3-4.11-6.18-5.77-9.54-1.53-3.08-2.47-6.48-4.8-9.14a25.17,25.17,0,0,1-3.34-4.16c-1.58-2.82-3.29-2.68-5.2-.36a3.67,3.67,0,0,1-1.32.55,2.76,2.76,0,0,1-2-.55C133.3,55,136.13,54.36,138,53Z"/><path class="cls-97" d="M138,53l-3.88,5c-1.62,3.63-5.1,5.61-7.51,8.53a31.53,31.53,0,0,1-4.15,3.59,100.85,100.85,0,0,0-10.57,10.51c-2.26,2.47-4,2.2-4.41-1.42,1-2.45,3.3-3.89,5-5.83,5.38-5.26,10.67-10.62,16-16,2.56-1.79,3.82-5.36,7.56-5.55A2.1,2.1,0,0,0,138,53Z"/><path class="cls-189" d="M157,73c-2.53-7.69-5.65-15-11.61-20.84-1.43-1.4-2.8-1.07-4.15-1.63a5.86,5.86,0,0,1,3.95-4l.84.59c4.22,3.75,6.76,8.73,9.87,13.29.49.71.32,2.49,2.09,1.64,2,1.48,1.8,4.09,3,6a4.32,4.32,0,0,1,0,4.07c-2.23-.35-2.26-2.11-3-3.06,0,1,1.47,2.35.28,3.76A1.14,1.14,0,0,1,157,73Z"/><path class="cls-190" d="M135.92,51.87l-7,6.06a3.48,3.48,0,0,1-1.54-3.78,23.56,23.56,0,0,1,3.74-5.83c1.29-.75,1.83-2.73,3.82-2.35l1.84-.17c1.15,1.35.29,2.76.14,4.15Z"/><path class="cls-191" d="M146,141c.52,2.14,1.15,4.12,4.07,3,0,.27,0,.54,0,.8l-.09,1.12c-2,1.56-3.17-1.25-4.94-1-2.1-3.25-5.54-5.13-8.07-7.94a2.55,2.55,0,0,1-.42-2.74c.8-1,1.74-.58,2.67-.27a5.24,5.24,0,0,1,1.19.79c1.65,2.24,3.74,4.1,5.53,6.22Z"/><path class="cls-192" d="M64,21,43.86,33,47,29c5.63-3.05,10.6-7.34,17-8.95.34.21.45.43.34.64S64.1,21,64,21Z"/><path class="cls-193" d="M64,21v-.95L67,19h3.18C68.22,21,66.12,21,64,21Z"/><path class="cls-194" d="M42.08,35.07A4.92,4.92,0,0,0,44,39c1,.81,2.36,1.12,3.2,2.18.48.43.93.9,1.37,1.36,1,1.1,2.11,2.13,3.21,3.17,1.57,1.56,3.14,3.13,4.73,4.67,2.26,2.42,4.72,4.65,6.94,7.1A3.21,3.21,0,0,1,64.28,60c-.52,1-.51,2.19-1.31,3.05L39.06,39.94c1.57-.11,3.79.23,1.89-2.47C39.85,35.9,40.22,35.17,42.08,35.07Z"/><path class="cls-195" d="M22,78c0,.49-.15,1.17.11,1.44,1.38,1.47.94-.46,1-.72,3-7.26,5.35-14.81,9.72-21.44,2.69-4.08,5.4-8.14,8.1-12.22a2.92,2.92,0,0,1,2,2,9.18,9.18,0,0,1-2,5.39,70.15,70.15,0,0,0-14,32.31c-.64,1.83-.72,3.91-2.25,5.37-2.26,1.38-4.48,2-6.58-.29a2.22,2.22,0,0,1-.42-1.34l.51-.51c3.08-.64,1.26-3.55,2.38-5.14C21.52,81.43,20.31,79.26,22,78Z"/><path class="cls-196" d="M16.83,88.06,15,85.91l.12-1,3,3.09h-.21C17.59,88.48,17.23,88.48,16.83,88.06Z"/><path class="cls-197" d="M17,70c-.69,3-2.68,5.13-5,7,.34-2,.67-4,1-6L14,70Z"/><path class="cls-198" d="M61,66,74,78.1c1.32,2.19.68,4.38,0,6.58a8.74,8.74,0,0,1-.54,1.48c-2.23,6.2-7.26,5.32-12.14,4.8-.81-.15-1.59-.43-2.4-.59-5.09-1-5.36-1.49-3.93-6.64,0-.07,0,.22-.24.55-1.06,1.35-.38,4.82-3.39,3.72-2.18-.79-1.71-3.41-1.21-5.3C51.62,77,54.63,72.07,58,67.35,58.71,66.43,59.57,65.56,61,66Z"/><path class="cls-199" d="M61,66c-5.33,6.13-9.43,12.81-10.25,22.43,3.76-2.79,2.69-7.1,7-9.57C55,84.53,53.47,89.24,61,90c-4.79,2.8-10,.79-15,1.41-.59,0-1.18,0-1.77,0a6.06,6.06,0,0,1-3.28-1c-1.87-2.54-1.54-5.48-.94-8.17A51.45,51.45,0,0,1,49.8,61.13C50.82,59.86,52,58.5,54,59,56,61.61,59.51,62.78,61,66Z"/><path class="cls-200" d="M54,59C45.2,67.47,40.67,77.7,41,90c-1,1.18-2.39,1.24-3.78,1.32-1.61,0-3.23,0-4.85,0A7.75,7.75,0,0,1,30,90.85a2.78,2.78,0,0,1-1.25-1c1.38-12.58,5-24.34,12.93-34.44,1.51-1.93,2.82-4.81,6.27-3.43q1.53,2,3,4C47.13,61.56,42.64,66.7,40.23,73.2a83.26,83.26,0,0,0-2.72,9.67A49.13,49.13,0,0,1,47.87,60.44C49,59,50.12,57.54,52,57A3.1,3.1,0,0,1,54,59Z"/><path class="cls-201" d="M47.93,52c-7.12,3.52-9.6,10.62-12.73,17.05A47.27,47.27,0,0,0,30.87,85.3c-.16,1.56-1.25,3-1.92,4.55-1.6,1.61-3.26,1.56-4.95.14,1.24-1.44.41-3.7,2-5,2.48-4.47,2.54-9.68,4.52-14.39A81.57,81.57,0,0,1,44,49C46,49.12,47.1,50.37,47.93,52Z"/><path class="cls-202" d="M44,49c-1.38,5.86-6.78,9.24-9,14.68-2.24,5.61-5.85,10.64-6.26,17-.1,1.56-.49,3.81-2.8,4.35.66-10,4.44-19,9.84-27.28,2.32-3.57,4.72-7.1,7.09-10.65Z"/><path class="cls-203" d="M80,78.94c0,.68,0,1.35,0,2,.64.88.17,1.69-.15,2.51-.57,1.19-1.49,2.16-2.12,3.32-.67,1.5-.44,3.06-.34,4.62-.23,4.23.94,8.67-2,12.48-1.65.84-2.29-.53-3.16-1.43a5.5,5.5,0,0,1-1.1-4.22c.16-1.61,3.35-2.9.52-4.84a2.53,2.53,0,0,1-.93-2.36c2.44-1.39.93-4.25,2.25-6.06h0c.85-1.47,1-3.48,3-4.06,3.16-.66,3.16-.66,0-5C79,74.8,79.64,76.68,80,78.94Z"/><path class="cls-204" d="M52,57C44.13,65.61,39.72,76,36.53,87.1,37.61,75,41.09,64,51,56Z"/><path class="cls-128" d="M80,78.94c-.93-1.51-2-2.86-4-3C72.43,70.89,66.7,68,63,63c.53-.91-1.75-2.75,1-2.94,2.73.73,4.62,2.73,6.71,4.42,2.84,3,6,5.7,8.62,8.89A4.15,4.15,0,0,1,80,76C80.18,77,81.62,77.94,80,78.94Z"/><path class="cls-205" d="M76,80.93,73,85l1-6.89Z"/><path class="cls-75" d="M11.94,77a10.6,10.6,0,0,0-1,5.08L9,81C8.88,78.82,9.43,77.17,11.94,77Z"/><path class="cls-206" d="M72,93c1.25.09,2.65-.15,2.92,1.7.36,2.36-2.22,2-3,3.25-5,1.17-10,.21-15,.45-3,.09-5.92,0-8.89,0-3.23.09-6.47,0-9.7,0-1.74.15-3.47-.05-5.21,0-1.44.1-2.88,0-4.32,0A8.85,8.85,0,0,1,23,97l-2,0c7.32-2.21,14.81-.36,22.19-1,1.78-.16,4.23,1,4.84-2,3.29-2.15,7.14-1.29,10.69-2C63.14,92.29,67.77,90.33,72,93Z"/><path class="cls-196" d="M24,90,29,89.85l1.11.19c.19,1.16-.63,1.51-1.44,1.81l-.7.12a6.61,6.61,0,0,0,.82,0c.82,0,1.59-.24,2.37-.18a18.25,18.25,0,0,1,2.33.26c-.61-.6-1.82-.75-1.53-2L37,90c1.39,1,3,.26,4.48.54,1.75,1.3,0,2.16-.41,3.18-8.39,1-16.73.38-25-.7-3.09-3.25,0-3.39,2-4.07C19.72,91,22,90,24,90Z"/><path class="cls-79" d="M41.06,93.71c-1.37-1.5.58-1.83.95-2.71.49-.71,1.5-.36,2-1a6.91,6.91,0,0,0,.91,0c2.9,1.06,5.93.15,8.87.57,1.91,1.1,4.72-.75,6.16,1.89.32.59-.31-.17-.19.48,0,.09-.48.16-.84.1L48,93.94h0a9.39,9.39,0,0,0-6.19-.08A6.57,6.57,0,0,1,41.06,93.71Z"/><path class="cls-207" d="M18.05,88.94c-1.29,1-3.3,1.74-2,4.07-2.68-.14-5.37.83-8,0-.83-2.6,3.46-.88,2.8-3.33,1.83-1.27,4.53.69,6.07-1.64L17.92,88A7.9,7.9,0,0,1,18.05,88.94Z"/><path class="cls-206" d="M41.83,93.87A5.54,5.54,0,0,1,48,94Z"/><path class="cls-208" d="M48,43l-1-1c-1.3-2.57.8-3.45,2.3-4.63A71.05,71.05,0,0,1,84.36,22.48C86,22.26,87.69,22.24,89,21c2-1.78-.89-1.93-1-3,5.35.55,2.09,4.59,2.83,7a9.23,9.23,0,0,1-4.43,2.11c-13.1,1.34-24.55,6.56-34.82,14.64C50.55,42.53,49.52,43.49,48,43Z"/><path class="cls-209" d="M89,21c-1.15,3.27-4.09,2.66-6.57,3-13.26,1.8-24.68,7.6-34.81,16.14-.42.35-.41,1.21-.6,1.83a6.21,6.21,0,0,1-3-3c4.13-2.65,8.19-5.41,12.4-7.92C66.44,25.1,77.17,21.28,89,21Z"/><path class="cls-210" d="M56,51a16.19,16.19,0,0,1-5-5c9.44-9,21-13.73,33.58-16.09,1.8-.33,3.59-.7,5.41-.87,1.18.7.94,1.87,1,2.95-1,2.79-.2,5.68-.5,8.51-3.45,2.24-7.45,2-11.29,2.4A1.79,1.79,0,0,1,77,41.31a2.26,2.26,0,0,1,1.39-1.91c2-1.08,4.27-1.27,6.45-1.74A66,66,0,0,0,56,51Z"/><path class="cls-211" d="M90,29c-2,3.09-5.57,2.06-8.33,2.69A67.66,67.66,0,0,0,56.55,42.89C54.84,44.13,53.27,45.75,51,46a6.1,6.1,0,0,1-3-3C60.24,32.13,74.69,26.56,90.82,25,90.54,26.33,90.25,27.69,90,29Z"/><path class="cls-212" d="M79,83l1-2c4.75-1.81,8.31-6.38,14-6h.68c2.09-.12,4.15-.09,5.89,1.34a1.54,1.54,0,0,1,.49,1.84,4.14,4.14,0,0,1-2.42.94,3.58,3.58,0,0,0-1.64.6c-.77,1.5.56,1.92,1.32,2.64s2.36,1.33,1.48,3c-1.63,1.78-3.82,1.77-6,1.88C92,87.33,90.1,87.14,89,89a6.66,6.66,0,0,1-2,2c-.84.19-1.31-.28-1.67-1-.85-2.81-.21-6.81-5.11-6.4A2.09,2.09,0,0,1,79,83Z"/><path class="cls-161" d="M99,17c-1,1.5-2.19,2.78-2.18,4.85.08,16.41.06,32.83.07,49.25,1.25,3.8.89,4.26-2.94,3.84h0c0-.34,0-.69,0-1,3.09-.65,1.89-3.14,1.9-4.87C96,53.46,96,37.83,96,22.21,96,19.94,95.5,17.28,99,17Z"/><path class="cls-213" d="M90,41c.44-3-1-6.17,1-9,0,11.39-.14,22.78.15,34.16.11,3.89-.84,6.19-4.74,7.2A47.59,47.59,0,0,0,80,76l-1.06-2c2.4-2.84,6.35-3.14,9-5.55,1.47-7.09.29-14.25.66-21.35C88.69,45,88.2,42.74,90,41Z"/><path class="cls-214" d="M108.8,17.15l-4.71-.36c2.13-1.57,4.51-.5,6.78-.66Z"/><path class="cls-215" d="M89,136c0,2.81,0,5.61,0,8.42,0,1.83-.63,2.84-2.74,2.09-6.14-2.19-12.28-4.35-18.45-6.42-3.85-1.29-4.71-6.18-8.8-7.11-.27-.88.25-1.4.85-1.89,5.17-4.41,9.61-.69,13.92,1.58,2.46,1.3,4.51,2.29,7.39,1.47A7.85,7.85,0,0,1,89,136Z"/><path class="cls-216" d="M89,136c-3.49-.18-6.86-2.18-10.52.42-1.52,1.08-3.41-1.44-5-2.52C69.25,131,65.06,128.45,60,132c-.73-4.18,3.92-4.82,5.08-7.75,3.16-3,5-7.67,10.1-8.33a2.16,2.16,0,0,1,.56,1.83c-.63,2.41-2.68,5.31,1.4,6.38,2.11.56,4.19,3.24,6.85.4,1-1.06,3-.38,3.43,1.47A5.63,5.63,0,0,0,89,129Z"/><path class="cls-217" d="M89,129a2.82,2.82,0,0,1-2.52-1.31c-.53-.94.57-3-1.81-2.64-2.7.44,1.42,2.74-1.34,3.4a13.68,13.68,0,0,0-6.2-2.75c-3.59-.52-4.53-3.65-2.78-6.73a10.35,10.35,0,0,0,.67-2.84c.59-2.67,2.65-3.75,5-4.57,3.18,0,5.22,2.66,8,3.5a2.93,2.93,0,0,1,1,.94Z"/><path class="cls-218" d="M65.94,124.93c-1.2,3-5,3.83-6,7l-1,1H58a2.09,2.09,0,0,0-2-1,1.45,1.45,0,0,1-.33-1.22,7.07,7.07,0,0,1,2.69-3.63c1.46-.93,2.12-2.66,3.6-3.57a3.22,3.22,0,0,1,1.94-.16A4,4,0,0,1,65.94,124.93Z"/><path class="cls-219" d="M93,134.92l-2,0q0-7.48,0-15a1.73,1.73,0,0,1,2.31-.06,4.15,4.15,0,0,1,.78,1.52C94,126,95.6,130.62,93,134.92Z"/><path class="cls-187" d="M89,116l-1-.06c1.43-3.24,3.49-5.44,7.45-4.45a2.1,2.1,0,0,1,.79,1.16A14,14,0,0,0,95.08,118a4,4,0,0,1-.81,2A1,1,0,0,1,93,120h0c-.7-.64-1.07-1.59-2-2Z"/><path class="cls-220" d="M91,118c2.14-.78,1.7,1,2,2H91Z"/><path class="cls-221" d="M23,97h6c2.13,2.55,1.25,5.75,1.76,8.62,1.76,10.11,4.73,19.67,11,28,1.4,1.84,2.86,3.83,1.18,6.32L41,141c-4-.52-5.17-4.23-6.71-6.82-5.3-8.88-9.44-18.29-9.33-29A21.45,21.45,0,0,0,23,97Z"/><path class="cls-222" d="M43,139.89a7.06,7.06,0,0,0-1.74-5C32.5,123.73,29,110.91,29,97h4c2.15,1,2.19,3.14,2.48,5.08C37.07,112.47,39.56,122.5,46.3,131c.91,1.14,1.82,2.46.71,4l0,1C45,136.57,45.06,139.34,43,139.89Z"/><path class="cls-223" d="M38,97H48c2.38,1.21,2.11,3.52,2.34,5.62.76,7.15,3.22,13.48,8.83,18.27,1.13,2.33-1.27,3.6-1.63,5.49-.47,1.54-1.78,2.31-3,3.2s-2,2.15-3.6,2.38l-1,0C41.36,121.92,38.32,109.93,38,97Z"/><path class="cls-224" d="M38,97c2,2.87,1.9,6.15,2.13,9.44.52,7.67,3.7,14.4,7.94,20.69,1,1.48,2.26,2.87,1.94,4.88a6.7,6.7,0,0,1-3,3c-.88-3.5-3.64-5.85-5.48-8.75-5-7.82-5.91-16.71-7.55-25.45-.24-1.29-.65-2.54-1-3.81Z"/><path class="cls-225" d="M51,132a6.93,6.93,0,0,1,3-3,3.67,3.67,0,0,1,2,2c0,.33,0,.65-.08,1L53.1,134C51.79,134,51,133.36,51,132Z"/><path class="cls-226" d="M158,73c-.27-1.6-.54-3.2-.84-4.94,1.85.25,1.89,2.37,3.33,3,1-.88.28-2.07.51-3.09,1.63,4.4,3.55,8.72,4.77,13.23.78,2.87,1.12,6.24-2.77,7.76l-1,.93a3.16,3.16,0,0,1-2.06,1.17,5.16,5.16,0,0,1-3.73-.7c-.95-1.6.48-2,1.39-2.52,1.91-1,2.2-2.72,2.15-4.61.48-3.37-1.12-6.37-1.68-9.56Z"/><path class="cls-170" d="M160,90.05l1.9-.14,6,.09c.34,1,.69,1.94,1,2.9-2.52,1.54-5.56-.78-8,1.09l-.92.1c-2.78,2.1-6,1.26-9.1,1.35-4.45.15-8.9,0-13.35-.07-1.58-.06-3.18,0-4.49-1.12-.61-1.2.26-1.65,1.07-2.14,5.32-1.07,10.7-.27,16-.52,2.32,0,4.65.11,7,0A4.16,4.16,0,0,0,160,90.05Z"/><path class="cls-227" d="M158,62c-.55.38.4,3.28-1.11,1.34-4-5.13-7.28-10.81-10.85-16.27,2.89-.06,3.66,3.07,5.93,3.94a2.16,2.16,0,0,0,1,2Z"/><path class="cls-228" d="M161,94c2.3-3.18,5.36-.71,8-1.09a4.13,4.13,0,0,0,.93,0h10c-4.36,2.19-9,.56-13.51,1C164.62,94.11,162.79,94,161,94Z"/><path class="cls-211" d="M98,159c0-2.67,0-5.34,0-8,5.89-2.64,12.22-4,18.26-6.28A36.29,36.29,0,0,0,131,135c2.64,2.38,5.73,4.37,7.06,7.92-4.92-.43-7,4.61-11.15,5.82-2.56.75-4.64,3.08-7.72,2.27a1.65,1.65,0,0,0-1.4.3C112.85,158.28,104.81,157,98,159Z"/><path class="cls-199" d="M98,141c-2-5,.22-10,0-15,1.45-1.89,3.63-2,5.71-2.38,5.79-1.18,6.55-2.46,4.92-7.81a3.29,3.29,0,0,1,.07-2.39,1,1,0,0,1,1.22-.31c2.67,4.86,6.92,8.28,11,11.82,1.12,1,2.39,1.73,3.06,3.12a2.78,2.78,0,0,1-.32,4c-6.6,6.2-14.69,9-23.5,10A3.16,3.16,0,0,1,98,141Z"/><path class="cls-229" d="M129.94,125l-1-1a1.1,1.1,0,0,1-.29-.85c0-.3.09-.45.14-.45,3-2.74,4.93-6.21,6.72-10-1.2.82-1.63,3-3.32,2.16-1.49-.7-1.33-2.56-.62-3.51,3.36-4.49,7-8.76,9.82-13.68.85-1.48,3.67-1.14,5.57-1.75,3.2-.32,6.41-.8,9.52.47,1.49,1.46.13,2.24-.9,2.41-3.83.65-4.55,3.46-4.82,6.57a39.16,39.16,0,0,1-7.2,18.92c-1.79,2.6-3.63,5.22-6.88,6.25C133.05,130.38,131.37,127.84,129.94,125Z"/><path class="cls-229" d="M98,141c9.14-.3,17-4,24.31-9.13A4,4,0,0,0,124,128c2.92,1.76,4.83,4.52,7,7-.79,6.29-6.56,7.83-10.8,9.49-5.47,2.15-10.83,5-16.83,5.9A42.32,42.32,0,0,1,98,151Z"/><path class="cls-230" d="M108,79c.41,2.35,1,3.62,3.12,1,3.27-4,6.65-8,11.14-10.79a2.27,2.27,0,0,1,.29,1.3,6.52,6.52,0,0,1-1.8,2.83c-.44.49-.91,1-1.38,1.41-.92.89-1.84,1.8-2.72,2.74-.43.48-.87,1-1.26,1.47-1.71,2.17-.07,4.13.38,6.16.46,1.72.75,3.53,2.73,4.28,2.75.56,5.53.14,8.28.36,2.55.21,4.86.79,5.52,3.77-.91,2-2.72,1.61-4.23,1.27-4-.88-7.79.67-11.7.65-1,0-.54.83-.23,1.37.78,2.62-.54,4.84-1.49,7-.76,1.79-1.27,3.36.17,5a42.81,42.81,0,0,0,7.85,8.66c1.32,1.2,2.78,2.38,3.46,4.07.79,2,.4,3.18-2.1,2.44-4.29-4-7.46-9.31-13-12a11.42,11.42,0,0,1-5.16-4.36l-.27-.64a3.29,3.29,0,0,1,.09-1.36c1-1.76,1.23-3.87,2.58-5.46,2.59-3.47.09-7.51,1.24-11.13-.45-2.78-2.65-4.79-3.24-7.51C106.28,80.3,106,78.88,108,79Z"/><path class="cls-231" d="M124,124c3.4-1,1.07-2.3.13-3.29-2.7-2.85-5.52-5.59-8.3-8.36-.94-.94-1.87-1.87-1.87-3.33a1.48,1.48,0,0,1,1.25-.26c1.83.94,3,2.6,4.55,3.9,2.87,3.63,7.36,5.82,9.23,10.34,0,.35,0,.69,0,1C127.31,123.68,125.64,126.15,124,124Z"/><path class="cls-132" d="M129.94,125l6,5a1,1,0,0,1-.13,1.14c-1,.5-2.19.75-2.84,1.82C131.18,130.6,125.34,129.82,129.94,125Z"/><path class="cls-232" d="M133,132.94c-1.43-4.31,1.59-1.86,2.95-1.94l.51.31c.55.82,1.29,1.6.51,2.67v3A10.2,10.2,0,0,1,133,132.94Z"/><path class="cls-233" d="M106.12,107.09A14.39,14.39,0,0,1,111,112l-1.09,1.12-.47,0H109l-.7-.17a6.31,6.31,0,0,1-2.91-3.16A2.27,2.27,0,0,1,106.12,107.09Z"/><path class="cls-234" d="M109,113.05a8.47,8.47,0,0,1,.83,2.84c-.16,2.16,4.15,2.51,2.27,4.74a13.76,13.76,0,0,1-7.74,4.28c-2.09.44-4.22.72-6.34,1.07-1.35-6.32.8-10.75,7-13l.54-.51A3.19,3.19,0,0,1,109,113Z"/><path class="cls-235" d="M93.94,120c0-.68,0-1.35,0-2,2.32,0,.54-2.31,1.72-2.94a1,1,0,0,1,1.23,0C95.76,128,96,141,96,154H95c-.16-1.38.42-2.94-1-4h0a9.74,9.74,0,0,1,0-5l0-2c1.17-2.43.29-4.71-.49-7a4.16,4.16,0,0,1,.26-1.48,88.68,88.68,0,0,0,0-13A1.38,1.38,0,0,1,93.94,120Z"/><path class="cls-236" d="M96.93,115a8.52,8.52,0,0,1-.88-.16A1.21,1.21,0,0,1,96,113c0-.35,0-.69,0-1a6.13,6.13,0,0,0,.18-.61c0-2-1.19-4.8,2.78-4.11,2.38,1.09,4.63-1.11,7-.3l.17.13L106,110c1.14,1.5.05,2.23-1,3h0C102,112.62,99.87,115.35,96.93,115Z"/><path class="cls-237" d="M98,46c0-1.67,0-3.34,0-5a13.81,13.81,0,0,1,15.7,5c1,1.48,2.5,1.45,3.86,1.93,4.75,1.67,7.54,5.07,7.48,9.08-1.31,2.51-2.74,4.9-6,5.23C114.68,56.09,109,52.2,101.19,51.71a2.48,2.48,0,0,1-2.51-3C99,47,100.51,47,101.87,47.33c.83.2,1.71,0,2.15.22C102.29,47,99.86,47.56,98,46Z"/><path class="cls-238" d="M135,46c-1.2.82-1.2,2.81-3,3.05a85.51,85.51,0,0,0-15.81-8.82,19,19,0,0,0-8-2c-3.36-.92-7.11-.08-10.2-2.25l0-3c3.23-2.58,6.9-.25,10.3-.92L109,32c10,1,18.21,6,26.05,11.74C135.88,44.34,135.21,45.22,135,46Z"/><path class="cls-239" d="M98,36a38.54,38.54,0,0,1,11,1c2.25,1.19,5.59.84,5.87,4.82.07,1,2.32,1.77,3.71,2.23,3.07,1,5.48,3.08,8.19,4.66s3,3.29.74,5.44c-.53,1.71-1.24,3.21-3.44,3,.32-5-3.58-6.48-7-8.06-2.15-1-6,.31-4.7-4.37.08-.28-1.12-1.23-1.83-1.36-4.19-.77-8.17-2.72-12.58-2.39Z"/><path class="cls-240" d="M98,46l10.43,1.76c-3,1.78-4.61-.27-6.39.23-1,.28-2.67-.46-2.52,1.44a1.76,1.76,0,0,0,2.29,1.39c5.33-1.17,8.94,2.53,13.06,4.66,2.59,1.34,3.69,4,4.23,6.79-.15,2.08-1.19,3.13-3.35,2.91C110.28,61.46,104.92,57.49,98,57Z"/><path class="cls-241" d="M97.93,71q0-6.52,0-13a3,3,0,0,1,2.62-.19c-.81,2.3,1.34,1.91,2.2,2.49A33.73,33.73,0,0,0,107.54,63c2.67,1.24,5.9,2,5.31,6.06-1.45,3.38-3.52,6-7.64,5.91C102.63,73.92,99.88,73.21,97.93,71Z"/><path class="cls-242" d="M112.07,69.25c-.11-1.82-.24-3.41-2.47-4.24-3.93-1.46-8.22-2.57-10.23-7-.09-.19-.93,0-1.42,0,0-.33,0-.67,0-1,6.21-1.31,14.45,2.42,18.09,8.2C116,67.74,114.56,69,112.07,69.25Z"/><path class="cls-158" d="M97.93,71A14.39,14.39,0,0,1,105,74c1.41,1,2.71.57,3.88-.41,1.52-1.26,2.85-1.17,4.08.39a16,16,0,0,1-5,5c-1.16.69-1,1.85-1,2.92-3.22,1.14-4.19-1.28-5.35-3.39-.28-.77,1.55-.93.6-1.77-.65-.58-1.52-.29-2.24.19-1.74-1.46-4.37-.2-6-2,3,.28,3.14-1.66,2.94-3.85Z"/><path class="cls-238" d="M105,26a22.7,22.7,0,0,0,9,2c.4,1.12,2.16,1,2.27,2.77-5.27-.41-10.16-4.16-16.6-1.87,3.56,1.71,7.08.65,9.35,3.07l0,0c-3.79,1.2-7.37.17-11-1l0-5.95A7.47,7.47,0,0,1,99,25C100.81,26.29,103.13,24.74,105,26Z"/><path class="cls-243" d="M110,22l2.26,1.58c-5,1.46-9.55-1.1-14.2-.63-.06-1.6-.16-2.95,2.32-2.4C103.51,21.27,106.76,21.55,110,22Z"/><path class="cls-244" d="M98,31c3.74-.61,7.24,1.37,11,1-1.17,2.91-3.28,1-5,1-2,0-3.94,0-5.92,0C98,32.33,98,31.67,98,31Z"/><path class="cls-177" d="M105,26c-2-.33-4.24.77-6-1C101,25.32,103.22,24.18,105,26Z"/><path class="cls-119" d="M171.08,113a7,7,0,0,1-2,5,16.62,16.62,0,0,1,1.88-7.07A1.51,1.51,0,0,1,171.08,113Z"/><path class="cls-124" d="M171.08,113c-.05-.68-.11-1.37-.16-2,.08-1.09-.07-2.24,1-3C171.82,109.63,172.56,111.48,171.08,113Z"/><path class="cls-172" d="M163,96l1,1c-2.22,4.57-1.74,9.7-3,14.48-2.78,10.69-7,20.6-15,28.51-2.66-.22-3.85-2-4.48-4.3,8.48-9.48,12.09-21.11,14.63-33.23.56-2.67,1.56-5.16,4.86-5.54A5.92,5.92,0,0,0,163,96Z"/><path class="cls-132" d="M142,136a10.57,10.57,0,0,0,4,4c0,.34,0,.68,0,1a8.43,8.43,0,0,1-6-6C141,134.47,141.52,135.19,142,136Z"/><path class="cls-228" d="M163,96l-1,1c-1.66.63-3.33,1.07-5,0H146c-5,.63-10,2.57-15.14.79-1.45-.9-1.2-1.83.18-2.42,1.69-.72,3.51-.37,5.28-.24.4,0,.76.39,1.2.16A1,1,0,0,1,137,94.1h23.1C160.09,96.14,161.63,95.92,163,96Z"/><path class="cls-220" d="M94,135c0,.33,0,.66,0,1-.3.46-.63.48-1,0l-.06-1.1q0-7.45,0-14.92c.33,0,.65,0,1,0,0,.31.07.63.08.94A44.09,44.09,0,0,1,94,135Z"/><path class="cls-187" d="M93,136c.32,0,.64,0,1,0,1.11,2.33,1.75,4.67,0,7A21.17,21.17,0,0,0,93,136Z"/><path class="cls-187" d="M94,145a8.6,8.6,0,0,1,0,5A3.43,3.43,0,0,1,94,145Z"/><path class="cls-245" d="M136,58.05l1,0a4,4,0,0,1,2.16,4.07A4.78,4.78,0,0,0,140.86,66c4.18,3.79,4.85,9,6.21,14,0,.34,0,.67,0,1,.31,8.55-.38,9.28-9.15,9.26-2.28,0-4.66.45-6.76-.94-.85-2,.8-2,1.93-2.5,3.68.13,3.82-1.43,2.7-4.55-2.05-5.75-5.9-10.53-8.14-16.14C129.12,62.1,132.43,59.94,136,58.05Z"/><path class="cls-246" d="M146,79c-1.88-4.71-3-9.78-7-13.46-2.2-2.06-.25-5.31-2.05-7.51.1-1.86,1.07-3.33,2.79-3.63S142.21,55.75,143,57c1,1.65,2,3.31,3,5,1.94,6.39,4.52,12.6,5.78,19.18.48,2.48,1.32,5.23-1.35,7.21-3,0-2.22-2.65-3-4.24S146.86,80.58,146,79Z"/><path class="cls-247" d="M150,88c2.62-3.87.78-8-.58-11.27-1.46-3.47-1.05-7.64-4-10.59-1.15-1.15,0-2.81.6-4.15,4.24.59,3.18,4.83,4.72,7.23C153,72.78,154.27,77,156,81c1.33,2.37,2.31,4.79.23,7.22a4.49,4.49,0,0,1-6.1,1.15A1,1,0,0,1,150,88Z"/><path class="cls-248" d="M150,89c6.34-.14,6.34-.14,6-8,3.24-2.3-.14-5.43,1-8h1a47.62,47.62,0,0,1,3,10c1,4.23-1.56,5.91-5,6.94-2.84,2.12-5.79,1.8-8.78.37C146.94,87.39,148.57,88.41,150,89Z"/><path class="cls-249" d="M136,58.05c-2.5,2.82-6.14,4.5-8,7.93a1.44,1.44,0,0,1-.94.52,1.53,1.53,0,0,1-1-.48,40.58,40.58,0,0,1,8-8Z"/><path class="cls-250" d="M113,74c-2.66-2-5.3,3.12-8,0,3.73.47,5.14-2.53,7.07-4.74a13.4,13.4,0,0,0,4-4.06l3-2.92,5-5.1,3-3c.32-.66.64-.67,1,0,.32,1.25.63,2.51.95,3.76A159.29,159.29,0,0,1,113,74Z"/><path class="cls-245" d="M126.05,66q.47.06.93.09c.44,1-.11,1.73-.66,2.47-1.16,1-2.12,2.56-4,1.45a5.14,5.14,0,0,0,0-.88Z"/><path class="cls-251" d="M128,54.17l-.48,0-.49,0c1.11-1.91,1.95-2.9-1.14-4.65-3.5-2-7.11-3.89-10.65-5.83-2.89-1.58-2.45-6.1-6.26-6.69,8.7,2,17.1,4.63,23,12Z"/><path class="cls-211" d="M157,97h5c-3.46,1.39-4.29,4.23-5.09,7.64-2.72,11.48-5.25,23.15-14.91,31.36l-2-1-1,0c-.92-1.39-2-2.62-3-4h0c0-.34,0-.68,0-1,7.81-5.6,11.75-13.48,13-22.77C149.62,102.06,150.24,97.24,157,97Z"/><path class="cls-132" d="M136,131c1.62.85,2.92,1.95,3,4l-2-1C136.64,133,136.3,132,136,131Z"/><path class="cls-252" d="M90,41c0,8.45,0,16.89,0,25.34,0,1.58.56,3.36-1,4.64-2.66-4.38-1.1-9.19-1.4-13.79.27-10.57.26-10.61-9.76-7.29-5.41,1.79-10,5.23-14.81,8.1a29.18,29.18,0,0,1-7-7c.17-3.32,3.32-4.17,5.3-5.43A69.94,69.94,0,0,1,85,36.19c1.33-.26,3.42-.9,3.59,1.28.15,1.9-1.82,1.48-3,1.5a21.86,21.86,0,0,0-8.72,2.29C81.92,43,85.88,39.1,90,41Z"/><path class="cls-253" d="M63,58a3.2,3.2,0,0,1,1.67-2.83c6.46-3.86,13.07-7.28,20.56-8.83,3.1-.63,3.89.49,3.78,3.24-.09,2.13,0,4.28,0,6.42-.49.43-.86,1.12-1.47,1.28A62.93,62.93,0,0,0,69.94,65c-2-1.62-4.6-2.57-6-5Z"/><path class="cls-205" d="M54,91c-3-.49-6.21.95-9.05-1L61,90c4.69,0,9.9,1.29,12-5-1,1.89,2,5.13-2,6C65.31,93.16,59.65,91.51,54,91Z"/><path class="cls-205" d="M44,90a2.27,2.27,0,0,1-2,1c-1.69-.27-3.61.66-5-1l4,0Z"/><path class="cls-254" d="M31.91,90.05c1.06,1.43,3.3.29,4.53,2.43-2.86,1-5.67.52-8.44.49a1.29,1.29,0,0,1,0-2l2.06-1Z"/><path class="cls-217" d="M57,97c5,.37,10.1-1,15,1a6.81,6.81,0,0,0,1,4c.45,2.38,3.71,4.09,1.66,7.06a13.43,13.43,0,0,1-3.46,3.55c-1.88,1-3.56,2.27-5.56,3-3.89-.09-6.68-1-6-6,.39-3-1.81-5.57-2.89-8.32C56.12,99.79,54.83,98.28,57,97Z"/><path class="cls-39" d="M70.93,112a7.12,7.12,0,0,1,3-3c1.73-1.37.9-3.27,1-5a37.52,37.52,0,0,0,1-13c1.77-.39,2.4.9,2.8,2.15.53,1.68,1.85,2.22,3.26,2.75a2.05,2.05,0,0,1,.23,2,9.63,9.63,0,0,1-2.15,2.64c-1.13.87-1.22,1.77-.18,2.82s2,2.22,1.3,3.9c-2.43,3.09-4.85,6.19-8.85,7.39C70.9,114.3,70,113.66,70.93,112Z"/><path class="cls-255" d="M82,96c-2.23,1.22-4.06,1.63-4-1.94a3.3,3.3,0,0,0-1.93-3.09c0-1.73-.51-3.55.83-5.06l.54.4c1.13,2,1.42,5,4.94,4.09.81-.24,1.59-.56,2.41-.78a1.38,1.38,0,0,1,1.15.33l.72,1.15.58.24a1.43,1.43,0,0,1-.35,1.17,6.63,6.63,0,0,1-1.06.79C84.36,93.92,83.37,95.24,82,96Z"/><path class="cls-256" d="M54,91H71c.34.67.69,1.34,1,2l-13.07,0C58.09,90.41,55,93.23,54,91Z"/><path class="cls-257" d="M75,104c1.11,2,1.55,3.77-1,5,1.5-2.59-1.48-4.54-1-7Z"/><path class="cls-255" d="M79,83l1,0c.88,2.74-.2,3.66-2.88,3.12l-.26-.26Z"/><path class="cls-258" d="M69.94,65c4.64-6.6,12.16-7.15,19-9q0,7.48,0,15c-4-1-6.33,3.26-10,3A53.67,53.67,0,0,1,69.94,65Z"/><path class="cls-259" d="M57,97c-1.31,2.86,1.45,4.51,2.26,6.67a21.84,21.84,0,0,1,1.76,8c0,3.12,3.42,2,5,3.26.64,2.12-1.29,3.1-2,4.61a5.83,5.83,0,0,1-.91,1c-1.28.65-2.26,2.16-4,1.45-7.08-4.66-9.14-11.9-10-19.71-.19-1.81,0-3.64-1-5.28Z"/><path class="cls-225" d="M28,91v2c-1.09-.11-3,.48-3.07-.56C24.83,90.6,26.77,91.12,28,91Z"/><path class="cls-260" d="M101.91,78c1.44,1.62,2.86,3.28,5.08,3.88,1.56,2.22,3.33,4.32,4,7-1.9,3.41-4.3,5.67-8.53,3.68a2.16,2.16,0,0,1-.94-1,2.1,2.1,0,0,1,.47-2c1.74-.84,3.9-1.35,3.21-4.09-.52-2.26-3-2.3-4.21-3.66-1.12-1.21-3.27-1.64-3-3.92h3A.56.56,0,0,1,101.91,78Z"/><path class="cls-261" d="M77.14,86.13C78.81,85.75,80,84.9,80,83c4.59-1.54,6.09.21,5.9,6.91l-.45,0H85c-.48-.46.09.17-.39-.29-1-1-2-3.1-3.36-1.75-1.58,1.55,1.52,1.85,1.72,3.17C78.44,92.36,77.33,91.42,77.14,86.13Z"/><path class="cls-262" d="M98,78c2,3.07,6.63,3.21,8,7a3.47,3.47,0,0,1-3.05.83c-2.22-.73-3.42-3-5.78-3.71C95.45,81.57,94.89,79.83,96,78Z"/><path class="cls-263" d="M87.91,89c.3-2.58,2-3.2,4.25-3A22.29,22.29,0,0,0,100,85l.48.46a2.48,2.48,0,0,1-.16,2.56,2.51,2.51,0,0,1-1.87.62,8.56,8.56,0,0,1-1.33-.21C94,87.68,91,89.7,87.91,89Z"/><path class="cls-260" d="M96,78c-.07,1.55,0,3.54,1.72,3.61,2.61.12,3.4,2.37,5.19,3.36,2,1.6,1.51,2.63-.74,3.26-1.49-.57-1.18-2.4-2.27-3.24h0C98.79,82.61,92.54,83.05,96,78Z"/><path class="cls-264" d="M87.91,89c3.25-1.43,6.49-3,10.07-1-3.49,1.69-6.8,4-11,3l-.32.07Z"/><path class="cls-265" d="M101.91,78,101,78l-1-1c.18-1.72,1.1-2.29,2.62-1.51.8.41,1.88,1,1.46,2.07C103.92,77.9,102.66,77.86,101.91,78Z"/><path class="cls-266" d="M72.9,113.92l8.1-7c.92-.21,1.34.33,1.63,1.07.31,2.1-.83,3.25-2.61,4l-5,4.13a48.21,48.21,0,0,0-9.06,8.82,2,2,0,0,1-2-1c0-3.68,3.45-5,5.13-7.51C70.16,115.3,71.77,115,72.9,113.92Z"/><path class="cls-220" d="M80,112c.52-1.41,2.07-2.31,2-4a1.63,1.63,0,0,1,1.31-.36c1,.21,1.86.52,2.78.82,2.07.41,4.21,0,6.25.51,1.66.38,3.61.6,3.68,3l0,0c-3.78-1-5.22,2.81-8,3.94C84.77,115.78,82.85,113,80,112Z"/><path class="cls-267" d="M69.94,116.87,64,124l-1.85.11a2.08,2.08,0,0,1-.82-1.15c-.24-1.44.66-2.22,1.68-2.94h0a23.15,23.15,0,0,1,4.18-4.7C68.79,113.82,69.37,114.23,69.94,116.87Z"/><path class="cls-268" d="M56,131a1.83,1.83,0,0,1-2-2l2.89-3a1.54,1.54,0,0,1,1.38-.42c1.1.53,1.57,1.23.67,2.33Z"/><path class="cls-269" d="M59,127.86a2.08,2.08,0,0,0-1.11-2c.6-2.09,1.31-4,4.14-2.89.05.36.09.72.14,1.07C61.12,125.37,60.94,127.37,59,127.86Z"/><path class="cls-270" d="M96,113c0,.62.06,1.24.08,1.86-.3,1.38.44,2.89-.58,4.12,0,0-1-.66-1.48-1C94.4,116.23,92.65,113.61,96,113Z"/><path class="cls-257" d="M62,123c-2.08,0-3.09,1.45-4.14,2.89l-.93.08c-.9-2.16,2-2.34,2.08-4,1.38-.57,2.25-2.15,4-2C62.65,121,62.32,122,62,123Z"/><path class="cls-271" d="M147,89.89l9,0,4.08.12c-.11,1.06.22,2.28-1.06,2.91-2.67-1.13-5.49-1-8.3-1-2.08,0-4.16.08-6.23-.07-1.27-.09-2.65-.2-2.56-2.06C143.59,89.4,145.29,88.63,147,89.89Z"/><path class="cls-189" d="M161,83a36.42,36.42,0,0,1-3-10C160.52,75.86,161.06,79.33,161,83Z"/><path class="cls-272" d="M137,94.1c.93,1.46,2.86.28,4.05,1.55-3.7,1.14-7.62-.81-11,1.29-4.65,2.38-9.33,2.08-14,.13-1.41-.23-3.58,0-3.43-1.91s2.35-1.1,3.67-1.22c5.32-.49,10.65-1,16-.36a.59.59,0,0,1,.72-.07Z"/><path class="cls-271" d="M132.9,93.51l-.35.1-.37,0c-1.82-2.32-4.26-2.69-7.07-2.71s-5.61,1-8.17-.8c3.56-2.71,7.72-1.64,11.48-1.22s7.21.59,10.82.64c.6.07,1.39-.18,1.7.56.42,1-.45,1.39-1.13,1.83-1.78,1.13-4-.41-5.71.89Z"/><path class="cls-273" d="M134.1,92.77c1.42-3.13,5.44.46,6.86-2.65.36-.44.7-.46,1,0,3.21,1.71,6.68.45,10,.89.58,1.11-.46,1.39-1,1.93Z"/><path class="cls-274" d="M151,93c.33-.65.66-1.29,1-1.93,2.44.23,5.17-.59,7,1.93Z"/><path class="cls-199" d="M116,97.07l14-.13L146,97c-4.62.69-6.56,3.7-7,8-.15,1.47-.78,2.67-2.33,2.81-4.17.4-4,3.48-4.5,6.5a5.53,5.53,0,0,0,.88-.22c1.75-1.11,1-5.67,3.43-4.36,3.32,1.8-.52,4.06-1.35,6.06-1.23,3-2.23,6.35-6.11,7.15a60.7,60.7,0,0,1-10-10c1.12-3.08,2.93-5.85,4-8.93.54-1.52,2.16-3.58-.75-4.36-2.08-.56-4.28-.58-5.12,2.29-.68,2.35-1.41,4.69-2.16,7h-1c-1.66-.9-2.61-2.22-1.36-3.92C114.4,102.65,114.53,99.6,116,97.07Z"/><path class="cls-275" d="M122.28,70c1.62,0,2.37-1.53,3.69-2,1.85-1.17,3.6.25,3.19,1.41-1.92,5.42,2.92,8.56,3.87,12.94.41,1.88,1.88,3.55.95,5.66-1.1,0-2.28-.17-3,1-2.27,1-4.68.25-7,.51-1.62-.36-1.42-1.58-.34-1.85C127,86.75,126,85,125,82.93c-1.73-3.4-3.9-6.56-5.32-10.12Z"/><path class="cls-276" d="M119.64,72.81c2.75,1.57,3.42,4.58,5,7s2.22,5.06,3.65,7.49c-1.49,1.58-4-.28-5.29,1.67-6.26,1.06-6.68.85-7.53-3.78-.39-2.53-1.64-5-.63-7.64l.71-.72c4.83-.32,5,3.67,6.5,6.09.43-3.19-5.44-5-3.2-9.34Z"/><path class="cls-249" d="M115.93,85.08c0,5.45,4.15,3.59,7,3.89h8c4.13-.09,8.28.07,12.37-.38,2.12-.23,5.14-.94,2.46-4.38-1.37-1.75.68-3.46.19-5.22,3.09,2.22,1.81,6.38,4,9v1c-1.08,0-2.23-.16-3,.9l-5,.25-1,0-24-.05c-2-1.13-2-3.11-2.07-5A.63.63,0,0,1,115.93,85.08Z"/><path class="cls-277" d="M102,92c3.66,1,6.51-.42,9-3-1.45,2.93-.07,6-.28,9-.11,1.54-.36,2.46-1.71,3-.86-.65-1.74-1.24-2.86-.57-1.41,1.4-1,4.62-4.21,4.18a1.61,1.61,0,0,1-1.2-1.49c1.48-2.27,1.29-5.25,3.32-7.39,1-1-.8-1.36-1.37-2S101.66,92.75,102,92Z"/><path class="cls-278" d="M101.92,104c3.22-.17,1.23-4.53,4-5,1.62,2.33-.61,4.69,0,7,0,.31,0,.63-.08.94-2.26.77-4.24,3.42-7,1a1.84,1.84,0,0,1-.55-1.2,2.31,2.31,0,0,1,.57-1.21C99.83,104.81,101,104.7,101.92,104Z"/><path class="cls-279" d="M106,106c-3.15-2.33.14-4.7,0-7,2.07-.94,2.68.31,3,2C107.29,102.25,108.61,105.28,106,106Z"/><path class="cls-275" d="M118.83,73.58c-.26,4,4.44,6.16,3.83,10.8-2.45-2.74-3.44-6.53-7.12-7.55Z"/><path class="cls-275" d="M115.93,85.08l-1.06,0c-1.15-2.49-3.84-5-.05-7.49C115.43,80,116.37,82.45,115.93,85.08Z"/><path class="cls-280" d="M115,109c-1.65-5.84,1.56-10.35,6.91-10.74,4.14-.3,4.45,1.41,3,4.22-1.82,3.58-2,8.12-5.94,10.5A10.61,10.61,0,0,1,115,109Z"/><path class="cls-174" d="M105,113l1-3a6.27,6.27,0,0,1,3,3Z"/><path class="cls-187" d="M94,135q0-7,0-14A22,22,0,0,1,94,135Z"/><path class="cls-281" d="M99,107c0,.34,0,.68,0,1a4.71,4.71,0,0,0-1.88.22c-.91.56-.08,1,.31,1.45,2.5,2.56.19,2.18-1.37,2.27-3-3.68-7.77-.5-11.07-2.93,3-2.36,7-.77,10-2.85A4.2,4.2,0,0,1,99,107Z"/><path class="cls-282" d="M134,88c-2.44-5-3.47-10.58-7.26-14.89-.58-.67-1.28-1.66,0-2.42,3.27-1.92,1.12-2.26-.77-2.7l1-1.87a6.58,6.58,0,0,1,1-.13,49.6,49.6,0,0,1,10.3,20.1C139.16,89.46,135.42,87.24,134,88Z"/><path class="cls-257" d="M69.94,116.87c-.31-2.23-1.37-1.78-2.59-.72L63,120c-.09-2.33,2.31-3.15,3-5,1-2,2.93-2.62,4.94-3,.08,1.24.63,2,2,2A5,5,0,0,1,69.94,116.87Z"/><path class="cls-283" d="M83,108c-.32,0-.65,0-1,0l-1-1c0-1.71-1.37-2.34-2.48-3.31C76,101.4,76.64,100.1,80,100c2.64.41,4.37,2.24,6.19,3.95.85,1.17,2.07,2.47.85,3.85C85.94,109,84.36,108.67,83,108Z"/><path class="cls-263" d="M85,104.05c-1.6-1.45-3.89-2-5-4a1.93,1.93,0,0,1,2-2.09l.77.21c3.84,2.36,8.1,1.2,12.19,1.54,2.45.2,5-.79,7.35.36.69,1.94-.8,2.3-2,2.83-3.68,1.07-7.61-.08-11.27,1.26C87.6,104.48,86.28,104.9,85,104.05Z"/><path class="cls-263" d="M82,96c.2-2.48,2.22-3.1,4-3.95,1.49,2-.81,3.55-.54,5.39-.84,1.7-1.83,2.7-3.4.67l-.13-.15C81.94,97.27,82,96.61,82,96Z"/><path class="cls-284" d="M82.05,98.07c1.37.72,2.39.5,2.91-1.08-.21-2,1.91-3.23,1.91-5.19A5.58,5.58,0,0,1,87,91c3.73-.79,7-3.43,11-3h0c1,.85,2.39,1.07,3,2.32.32.54.46,1.2,1,1.59l0,.06.92,1.08c1.48,2.55-1.19,4.54-1,6.92-5.56,2-11.28.85-16.93.78A2.78,2.78,0,0,1,82.05,98.07Z"/><path class="cls-285" d="M83,91.08c-2-.13-4.36-.58-4.49-2.86-.11-1.94,2.15-2.09,3.75-2.23,3.11-.26,2.75,2,2.77,4Z"/><path class="cls-264" d="M86.87,91.8C87.5,94,85.93,95.38,85,97c-2.1-2.17,1.73-3.1,1-5A8.67,8.67,0,0,1,86.87,91.8Z"/><path class="cls-286" d="M102,88c1.57-.61,1.78-1.64.94-3H106c1.67,4,.51,5.73-3.89,4.9A1.25,1.25,0,0,1,102,88Z"/><path class="cls-212" d="M102,88c0,.63.07,1.27.11,1.9s-.05,1.33-.08,2L100.91,91c-.38-1-1.54-1.71-.94-3l0-3A3,3,0,0,1,102,88Z"/><path class="cls-264" d="M100,88c.31,1,.63,2,.94,3A6.6,6.6,0,0,1,98,88Z"/><path class="cls-287" d="M85,104.05l3-1c1.51,2.79,4.57,2.84,7,4-2.86,3.09-6.64,1.57-10,2a2.2,2.2,0,0,1-2-1C87,108.37,87.38,106.92,85,104.05Z"/><path class="cls-288" d="M102,100c-1.24-2.52.74-4.6,1-6.92,4.25,1.44,4.29,1.48,1.27,4-1.87,1.59.26,5.3-3.25,5.94a.88.88,0,0,1-1.07.12.93.93,0,0,1-.05-1.08C101.13,102,102,101.38,102,100Z"/><path class="cls-289" d="M100,102.94a8.11,8.11,0,0,1,1,.09l1,1c0,2.06-1.5,2-2.93,2-1.21-.57-1.86-1.5-1.17-2.76C98.27,102.4,99.16,102.4,100,102.94Z"/><path class="cls-290" d="M100,102.94c-2.54.31-1.56,1.74-1,3,0,.33,0,.66,0,1l-4,0c-3.16.14-7,1.47-7-4,3.81-2,7.9-.68,11.85-1A3.59,3.59,0,0,1,100,102.94Z"/><path class="cls-291" d="M100,96c.39,3-.81,4.35-3.91,4-2.76-.3-5.6.43-8.36-.46C91.74,88.89,93,88.08,99,92c-.47,2.75-2.75,3.85-5.1,5.09C96.49,98.49,97.81,95.17,100,96Z"/><path class="cls-292" d="M100,96c-3.73,3.41-3.73,3.41-8.64,2.18C93,94.87,97.12,94.76,99,92,99.74,93.22,102.3,94,100,96Z"/><path class="cls-100" d="M100.69,171.08l-.8-1c-.82-1-2.32-1.25-2.71-2.66a5.16,5.16,0,0,1,.46-4.57c1.2-1.09,2.72-1,4.2-1.17a62.31,62.31,0,0,0,32.83-12.77c1.85-1.4,3.73-2.75,5.7-4,2.22-.74,3,1.26,4.26,2.29a2.23,2.23,0,0,1,.56,2c-1.3,2.47-.93,5.64-3.24,7.69-2.85.44-4.68,2.62-6.95,4.06h0l-2,1.22a13.81,13.81,0,0,1-4.59,3.23A4.39,4.39,0,0,1,126,166c-.8.05-1.61.09-2,.95-4.4,1.24-8.88,2.24-13,4.23-1.67.59-3.41.19-5.11.31C104.09,171.26,102.34,171.9,100.69,171.08Z"/><path class="cls-172" d="M141,145c-5,5.92-11.59,9.82-18.44,12.71C114.83,161,106.73,163.87,98,163a3.11,3.11,0,0,1-.56-3.78c3.53-3.16,8.35-2.64,12.44-4.25,2.14-.84,4.06-2.27,6-2.93,7.7-2.66,14.2-7.83,22-10.11C139.68,142.2,140.94,143,141,145Z"/><path class="cls-211" d="M98,159c0-2.67,0-5.34,0-8,5.89-2.64,12.22-4,18.26-6.28A36.29,36.29,0,0,0,131,135c2.64,2.38,5.73,4.37,7.06,7.92-4.92-.43-7,4.61-11.15,5.82-2.56.75-4.64,3.08-7.72,2.27a1.65,1.65,0,0,0-1.4.3C112.85,158.28,104.81,157,98,159Z"/><path class="cls-199" d="M98,141c-2-5,.22-10,0-15,1.45-1.89,3.63-2,5.71-2.38,5.79-1.18,6.55-2.46,4.92-7.81a3.29,3.29,0,0,1,.07-2.39,1,1,0,0,1,1.22-.31c2.67,4.86,6.92,8.28,11,11.82,1.12,1,2.39,1.73,3.06,3.12a2.78,2.78,0,0,1-.32,4c-6.6,6.2-14.69,9-23.5,10A3.16,3.16,0,0,1,98,141Z"/><path class="cls-229" d="M98,141c9.14-.3,17-4,24.31-9.13A4,4,0,0,0,124,128c2.92,1.76,4.83,4.52,7,7-.79,6.29-6.56,7.83-10.8,9.49-5.47,2.15-10.83,5-16.83,5.9A42.32,42.32,0,0,1,98,151Z"/><path class="cls-234" d="M109,113.05a8.47,8.47,0,0,1,.83,2.84c-.16,2.16,4.15,2.51,2.27,4.74a13.76,13.76,0,0,1-7.74,4.28c-2.09.44-4.22.72-6.34,1.07-1.35-6.32.8-10.75,7-13l.54-.51A3.19,3.19,0,0,1,109,113Z"/><path class="cls-174" d="M105,113l1-3a6.27,6.27,0,0,1,3,3Z"/></g></g></svg>