<svg xmlns="http://www.w3.org/2000/svg" viewBox="0 0 186.96 187.23"><defs><style>.cls-1{fill:#fefefe;}.cls-2{fill:#fdfdfd;}.cls-3{fill:#594325;}.cls-4{fill:#5b4424;}.cls-5{fill:#5a4224;}.cls-6{fill:#7a5a2f;}.cls-7{fill:#5b4324;}.cls-8{fill:#654c28;}.cls-9{fill:#5f4524;}.cls-10{fill:#493516;}.cls-11{fill:#4b3821;}.cls-12{fill:#5b4723;}.cls-13{fill:#695028;}.cls-14{fill:#decf96;}.cls-15{fill:#634a29;}.cls-16{fill:#664e2a;}.cls-17{fill:#5e4627;}.cls-18{fill:#705429;}.cls-19{fill:#684c26;}.cls-20{fill:#533e26;}.cls-21{fill:#634f30;}.cls-22{fill:#72572d;}.cls-23{fill:#6d5329;}.cls-24{fill:#362d24;}.cls-25{fill:#513b1e;}.cls-26{fill:#d7c78f;}.cls-27{fill:#9f9357;}.cls-28{fill:#6f512f;}.cls-29{fill:#936f40;}.cls-30{fill:#785632;}.cls-31{fill:#826037;}.cls-32{fill:#a17f4a;}.cls-33{fill:#746529;}.cls-34{fill:#40311f;}.cls-35{fill:#936e40;}.cls-36{fill:#6b5f21;}.cls-37{fill:#826139;}.cls-38{fill:#87633a;}.cls-39{fill:#785b33;}.cls-40{fill:#856138;}.cls-41{fill:#463819;}.cls-42{fill:#977343;}.cls-43{fill:#927142;}.cls-44{fill:#d4c88f;}.cls-45{fill:#aa8851;}.cls-46{fill:#906e41;}.cls-47{fill:#554227;}.cls-48{fill:#837d6f;}.cls-49{fill:#a78751;}.cls-50{fill:#9a7644;}.cls-51{fill:#564424;}.cls-52{fill:#b4a76b;}.cls-53{fill:#443b2f;}.cls-54{fill:#836239;}.cls-55{fill:#5d4528;}.cls-56{fill:#725430;}.cls-57{fill:#4c3e17;}.cls-58{fill:#a4844f;}.cls-59{fill:#89693e;}.cls-60{fill:#c4a56d;}.cls-61{fill:#997645;}.cls-62{fill:#87673b;}.cls-63{fill:#7e7139;}.cls-64{fill:#ad8b55;}.cls-65{fill:#d2bc84;}.cls-66{fill:#9d9155;}.cls-67{fill:#7d6e2d;}.cls-68{fill:#594819;}.cls-69{fill:#987543;}.cls-70{fill:#856338;}.cls-71{fill:#312922;}.cls-72{fill:#a39859;}.cls-73{fill:#9b8c51;}.cls-74{fill:#372b13;}.cls-75{fill:#967443;}.cls-76{fill:#927041;}.cls-77{fill:#8f6f40;}.cls-78{fill:#503f23;}.cls-79{fill:#c8a871;}.cls-80{fill:#d5c58e;}.cls-81{fill:#d5bf88;}.cls-82{fill:#4f3c22;}.cls-83{fill:#c5b981;}.cls-84{fill:#d2bf89;}.cls-85{fill:#dfd096;}.cls-86{fill:#c1a76c;}.cls-87{fill:#b19058;}.cls-88{fill:#9d7f49;}.cls-89{fill:#c2a067;}.cls-90{fill:#bab072;}.cls-91{fill:#d7cb91;}.cls-92{fill:#9d9355;}.cls-93{fill:#bda26a;}.cls-94{fill:#9f7e4a;}.cls-95{fill:#8f7041;}.cls-96{fill:#45351c;}.cls-97{fill:#806138;}.cls-98{fill:#423f38;}.cls-99{fill:#726625;}.cls-100{fill:#86633a;}.cls-101{fill:#453b31;}.cls-102{fill:#5a4d2d;}.cls-103{fill:#6b4e2d;}.cls-104{fill:#b3a365;}.cls-105{fill:#987443;}.cls-106{fill:#494034;}.cls-107{fill:#5b4c26;}.cls-108{fill:#403d35;}.cls-109{fill:#36312b;}.cls-110{fill:#312714;}.cls-111{fill:#5e4728;}.cls-112{fill:#927040;}.cls-113{fill:#a79a5b;}.cls-114{fill:#9c7745;}.cls-115{fill:#dbd19c;}.cls-116{fill:#ad9d5e;}.cls-117{fill:#9e998a;}.cls-118{fill:#483d32;}.cls-119{fill:#7e5b35;}.cls-120{fill:#bfb178;}.cls-121{fill:#b49259;}.cls-122{fill:#88693d;}.cls-123{fill:#7e6239;}.cls-124{fill:#6b5b2f;}.cls-125{fill:#9b9687;}.cls-126{fill:#7e623d;}.cls-127{fill:#7a6b53;}.cls-128{fill:#372a19;}.cls-129{fill:#99794a;}.cls-130{fill:#9c998e;}.cls-131{fill:#443a30;}.cls-132{fill:#9b8e57;}.cls-133{fill:#c5a871;}.cls-134{fill:#665a1e;}.cls-135{fill:#544a3b;}.cls-136{fill:#e3d49e;}.cls-137{fill:#ccb37c;}.cls-138{fill:#ddcb98;}.cls-139{fill:#bcae73;}.cls-140{fill:#999487;}.cls-141{fill:#2e2212;}.cls-142{fill:#ada363;}.cls-143{fill:#bfb376;}.cls-144{fill:#483a1d;}.cls-145{fill:#292011;}.cls-146{fill:#aca163;}.cls-147{fill:#b9975e;}.cls-148{fill:#c9bd82;}.cls-149{fill:#c2a56f;}.cls-150{fill:#312b26;}.cls-151{fill:#282011;}.cls-152{fill:#44341f;}.cls-153{fill:#1c150c;}.cls-154{fill:#372b15;}.cls-155{fill:#3c3832;}.cls-156{fill:#bfa76d;}.cls-157{fill:#d6c48d;}.cls-158{fill:#caae75;}.cls-159{fill:#3c352c;}.cls-160{fill:#795c37;}.cls-161{fill:#3b2d1a;}.cls-162{fill:#49463f;}.cls-163{fill:#89683c;}.cls-164{fill:#4e421e;}.cls-165{fill:#7c6232;}.cls-166{fill:#9e7c4a;}.cls-167{fill:#c4a26a;}.cls-168{fill:#d3ba84;}.cls-169{fill:#cdb379;}.cls-170{fill:#ede3ae;}.cls-171{fill:#695430;}.cls-172{fill:#906e40;}.cls-173{fill:#8b6a3d;}.cls-174{fill:#342815;}.cls-175{fill:#d3c08a;}.cls-176{fill:#282524;}.cls-177{fill:#694e2d;}.cls-178{fill:#8a8272;}.cls-179{fill:#4f422f;}.cls-180{fill:#2c2725;}.cls-181{fill:#54514a;}.cls-182{fill:#4a4741;}.cls-183{fill:#755835;}.cls-184{fill:#3c3932;}.cls-185{fill:#e3d699;}.cls-186{fill:#969181;}.cls-187{fill:#99968c;}.cls-188{fill:#918b7b;}.cls-189{fill:#3c332b;}.cls-190{fill:#8c8677;}.cls-191{fill:#554a3c;}.cls-192{fill:#45423b;}.cls-193{fill:#4d3b24;}.cls-194{fill:#aba696;}.cls-195{fill:#8a6a3e;}.cls-196{fill:#765935;}.cls-197{fill:#4d3d27;}.cls-198{fill:#967343;}.cls-199{fill:#7b5e36;}.cls-200{fill:#8b8677;}.cls-201{fill:#aeaa99;}.cls-202{fill:#a9a594;}.cls-203{fill:#b5b2a6;}.cls-204{fill:#6a5234;}.cls-205{fill:#aeaca3;}.cls-206{fill:#44361d;}.cls-207{fill:#a8a496;}.cls-208{fill:#765c3c;}.cls-209{fill:#a5a193;}.cls-210{fill:#b2955c;}.cls-211{fill:#ceb878;}.cls-212{fill:#785b37;}.cls-213{fill:#b7b3a2;}.cls-214{fill:#d7d2c1;}.cls-215{fill:#c1bcaa;}.cls-216{fill:#dcd7c7;}.cls-217{fill:#664d2d;}.cls-218{fill:#5c4b22;}.cls-219{fill:#a6a394;}.cls-220{fill:#999485;}.cls-221{fill:#80745e;}.cls-222{fill:#403320;}.cls-223{fill:#4c3920;}.cls-224{fill:#5a5850;}.cls-225{fill:#4e4c45;}.cls-226{fill:#494640;}.cls-227{fill:#5d5b53;}.cls-228{fill:#58544d;}.cls-229{fill:#524f49;}.cls-230{fill:#785b36;}.cls-231{fill:#4c4a44;}.cls-232{fill:#424039;}.cls-233{fill:#b79b5c;}.cls-234{fill:#806139;}.cls-235{fill:#e9e2ca;}.cls-236{fill:#d4ceba;}.cls-237{fill:#b9b5a2;}.cls-238{fill:#c4beab;}.cls-239{fill:#e0dac5;}.cls-240{fill:#dad4bf;}.cls-241{fill:#bfbbad;}.cls-242{fill:#c9c5b9;}.cls-243{fill:#5f5c54;}.cls-244{fill:#513e25;}.cls-245{fill:#b2945d;}.cls-246{fill:#ab8d58;}.cls-247{fill:#c2a560;}.cls-248{fill:#cbb571;}.cls-249{fill:#a8844c;}.cls-250{fill:#9f9a8b;}.cls-251{fill:#494740;}.cls-252{fill:#514e47;}.cls-253{fill:#58554e;}.cls-254{fill:#5d5b52;}.cls-255{fill:#8f6e40;}.cls-256{fill:#b8b3a1;}.cls-257{fill:#d5cfbb;}.cls-258{fill:#c2bda9;}.cls-259{fill:#cdc6b3;}.cls-260{fill:#8e7f66;}.cls-261{fill:#bb9d5e;}.cls-262{fill:#ab8a50;}.cls-263{fill:#4b3a24;}.cls-264{fill:#7e5e38;}.cls-265{fill:#6f5330;}.cls-266{fill:#866842;}.cls-267{fill:#adaa9f;}.cls-268{fill:#644f34;}.cls-269{fill:#b2ad9d;}.cls-270{fill:#c5bfae;}.cls-271{fill:#e5dfc8;}.cls-272{fill:#dfd9c3;}.cls-273{fill:#96774c;}.cls-274{fill:#6e5637;}.cls-275{fill:#987444;}.cls-276{fill:#e8e0c9;}.cls-277{fill:#e3dcc6;}.cls-278{fill:#846138;}.cls-279{fill:#ac874e;}.cls-280{fill:#cbc5b3;}.cls-281{fill:#d2ccba;}.cls-282{fill:#cac5b4;}.cls-283{fill:#c1bcab;}.cls-284{fill:#b6b2a2;}.cls-285{fill:#d9d3c0;}.cls-286{fill:#d2ccb9;}.cls-287{fill:#adaa9e;}.cls-288{fill:#dfd9c5;}.cls-289{fill:#e5dfc9;}.cls-290{fill:#624a2c;}.cls-291{fill:#322514;}.cls-292{fill:#7e603b;}.cls-293{fill:#22190d;}.cls-294{fill:#bdb9a7;}.cls-295{fill:#897d67;}.cls-296{fill:#a5824c;}.cls-297{fill:#4e4b45;}.cls-298{fill:#52504a;}.cls-299{fill:#cdc7b3;}.cls-300{fill:#342715;}.cls-301{fill:#725532;}.cls-302{fill:#967445;}.cls-303{fill:#dacfab;}.cls-304{fill:#bbac87;}.cls-305{fill:#d0ba72;}.cls-306{fill:#7f5f38;}.cls-307{fill:#e1d9c1;}.cls-308{fill:#443520;}.cls-309{fill:#ded8c2;}.cls-310{fill:#d8d2be;}.cls-311{fill:#a5916a;}.cls-312{fill:#d3cdb9;}.cls-313{fill:#261b0e;}.cls-314{fill:#eee9d2;}</style></defs><g id="Layer_2" data-name="Layer 2"><g id="Layer_6_Image" data-name="Layer 6 Image"><path class="cls-1" d="M170,0a205.25,205.25,0,0,1-19,19c-4.35.86-6.51-3.69-10.31-4.17a4.47,4.47,0,0,1-1.13-.68c-1.51-2.07-3.9-2.52-6.11-3.31a6,6,0,0,1-1.17-.63,9.33,9.33,0,0,0-6.54-2.63,4,4,0,0,1-1.24-.37c-1.21-.77-2.35-1.71-3.92-1.67a6.53,6.53,0,0,1-1.22-.35c-1.7-.63-3.42,0-5.13-.05a10.24,10.24,0,0,1-1.36,0,7.63,7.63,0,0,1-2-.45c-1.64-.82-3.4-1.34-5-2.2-.71-.66-1.36-1.35-.83-2.44Z"/><path class="cls-2" d="M105,0l1,1.9C104.19,4,101.57,3,99.42,3.71,97.64,4,96,3.4,94.31,3c-2.4-.77-4.54,1.29-6.93.65-2.1-.7-4.67.26-6.4-1.78.34-.63.67-1.26,1-1.89Z"/><path class="cls-3" d="M183.83,74.27c.07.57.14,1.15.22,1.72a2.76,2.76,0,0,1,.54,2.15c-.37,1.22-.6,2.54-2,3.06-3.11-2.25-2.32-6-3.44-9-.66-4.41-2.8-8.36-3.92-12.62a47.68,47.68,0,0,0-2.94-6.32,100.46,100.46,0,0,0-7-11.6c-1.29-1.86-2.9-3.48-4.16-5.37-.69-1.65-.51-2.85,1.6-3A2.94,2.94,0,0,1,165,34.93l2.12,3c3.11,2.27,4.55,5.61,5.85,9.05h0c2.21,1.75,3.12,4.28,4.06,6.79,1.69,1.75.16,5,2.84,6.26,1.5,1.07.45,2.78,1,4.08a8.72,8.72,0,0,0,2,5.9C184.34,71.18,183.32,72.9,183.83,74.27Z"/><path class="cls-4" d="M57,178.08a.82.82,0,0,0-.77-.23C51,175.1,45.12,173.61,41,169l-.09,0a6.07,6.07,0,0,1-4-2.8L35.07,165a3.46,3.46,0,0,1-2-2.3c-.17-2.43.65-4.1,3.34-4.34a4,4,0,0,1,2.6,1.34c-.4,3.61,2.43,5,4.72,6.68,1.44,1.08,3.12,1.76,4.58,2.79,1.69,1.17,3.57,2,5.3,3.14,3,1.73,6.6,2.12,9.63,3.85a48.54,48.54,0,0,0,9.33,2.92c1.64.81,4.76-.35,4.33,3.23-1,.92-2.32.82-3.5,1.14A46.48,46.48,0,0,1,57,178.08Z"/><path class="cls-5" d="M150,20.76l2.83,2.31c.95.44,1.72,1,1.08,2.19a3.25,3.25,0,0,1-2.76.43c-2.5-.7-4.12-3-6.57-3.75a10.42,10.42,0,0,1-3.51-2.26,38.42,38.42,0,0,0-13.45-7A73.78,73.78,0,0,0,119,9.11c-1.62-.55-3.65-.68-4.25-2.84.61-1.38,2.1-1.13,3.15-1.7a1.78,1.78,0,0,1,2,.44l.08,0a7.85,7.85,0,0,1,4.92,2l.1,0c2.86.43,5.69.91,7.85,3.1h0c2.47,1.06,5.37,1.33,7.07,3.82l.14.05C143.88,15.55,147.47,17.39,150,20.76Z"/><path class="cls-6" d="M184.09,111l-.24,1.76a.68.68,0,0,1-1,.4c-.61-1.12-1.77-1.75-2.44-2.82-.59.21.87-2.39-.79-.6-2.58,2.79-4.11,2.3-4.79-1.36-.07-.66-.08-1.32-.09-2a3.72,3.72,0,0,0-1.79-3.67,4.92,4.92,0,0,1-1.26-1.43,3.38,3.38,0,0,1-.26-1.26c.25-1.22-.38-2.67,1-3.6a4,4,0,0,1,2-.27c1.85.4,3.75.51,5.59.94a3.61,3.61,0,0,1,1.22.73c2.85,3.18,2.8,7.25,3.44,11.12A2.91,2.91,0,0,1,184.09,111Z"/><path class="cls-7" d="M181,120c.08,4-1.95,7.33-3.25,10.9a32.87,32.87,0,0,1-7.81,14l0,0c-.51,1.66-1.09,3.28-2.88,4l0,.09c-.85,1.14-.67,3.15-2.75,3.27a2.33,2.33,0,0,1-1.55-1.2,2.61,2.61,0,0,1,0-1.33,50.14,50.14,0,0,1,2.8-4.53c1.74-2.41,3.12-5,4.68-7.57q.74-1.17,1.35-2.4c3.15-5.3,4.76-11.28,7.4-16.8a2.74,2.74,0,0,1,1.4-1.72C182,117.51,181.63,118.7,181,120Z"/><path class="cls-8" d="M134.77,175.86q-1.89,1.14-3.8,2.26a8.7,8.7,0,0,1-3.83,1.3,4.07,4.07,0,0,1-2.39-1.35,2.11,2.11,0,0,1,0-1.36c1.59-2.25,4.42-2.14,6.52-3.42.76-.44,1.52-.89,2.3-1.3,1.36-.7,2.85-1.11,4.15-1.93,3.2-2,6.34-4.13,9.39-6.38a14.73,14.73,0,0,1,2.2-1.46,5.66,5.66,0,0,1,1.88-.64,2.34,2.34,0,0,1,2.09,1.4c.13,1.11-.64,1.52-1.46,1.91L150,166.16a3.77,3.77,0,0,1-3.17,2.48l-.86.51a10.9,10.9,0,0,1-6,3.8l-1.15.74C137.93,175.25,136.19,175.26,134.77,175.86Z"/><path class="cls-2" d="M184.09,111c-.07-.68-.15-1.36-.22-2a46.72,46.72,0,0,1,.39-14.69c.34-2.09-.48-4.09-.54-6.15a8.52,8.52,0,0,1,.75-4.64l.61-.52c1.29,5.74,2.9,11.42,1,17.39a10.13,10.13,0,0,0-.33,6.28C186.24,108,186.86,110.39,184.09,111Z"/><path class="cls-2" d="M106,185c-.8.55-1.6,1.57-2.4,1.57-7.55,0-15.27,2.29-22.6-1.39a2.68,2.68,0,0,1,1.27-1.06,22.62,22.62,0,0,1,10.66.41c1.93.25,3.76-.37,5.63-.73C101.08,183.77,103.76,182.94,106,185Z"/><path class="cls-2" d="M57,178.08c5.79,1.19,11,4.43,17,4.77,2.13-.42,4.33-1,5,2.1-6.91-.2-13.33-2.54-19.84-4.46A2.62,2.62,0,0,1,57,178.08Z"/><path class="cls-9" d="M124.85,177.87l2.12.93c-.38,1-1.48.62-2.14,1.08L122,181.11c-2,2-4.67,1.3-7,1.75h0c-.54.71-1.26.59-2,.44-1.1-.45-2.54-.21-3.18-1.58,1.47-3,4.75-2.26,7.07-3.53a24.13,24.13,0,0,1,3.69-.64C122,177.21,123.48,176.77,124.85,177.87Z"/><path class="cls-2" d="M153.94,24.87c-.36-.6-.73-1.2-1.1-1.8,4,.2,6.7,3.05,9,5.49,1.33,1.4,3.57,3.55,3.12,6.37l-1.76-1c-.58-.26-1.18-.47-1.75-.77a7.69,7.69,0,0,1-2.33-2.25C158.3,28.12,154,28.3,153.94,24.87Z"/><path class="cls-2" d="M169.91,144.9l7.81-14c.14.09.39.17.4.27C178.46,134.8,173.4,143.26,169.91,144.9Z"/><path class="cls-2" d="M41,169l15.2,8.84C50.53,176,44.21,175.17,41,169Z"/><path class="cls-10" d="M152.77,162.92l-1.68-1a1.78,1.78,0,0,1-.59-1.25c1.29-3.43,5-3.28,7.42-5.1,1-.21,1.94-.09,2.36,1.06,0,1.7-1.1,2.58-2.41,3.32L155,162.07A2.41,2.41,0,0,1,152.77,162.92Z"/><path class="cls-2" d="M157.87,159.94l2.1-3c.61-2.24,1.33-4.4,4-4.94l3-3C166,154.33,161.92,159.22,157.87,159.94Z"/><path class="cls-11" d="M79,185c-1.33-1.48-3.15-1.8-5-2.1.77-1.12,2-.85,3.08-1,3.42-2.12,6.6-1.18,9.71.74.71,1.26,0,1.7-1.11,1.85s-2.56-.19-3.77.38l-1,.35Z"/><path class="cls-2" d="M150,20.76,140.09,14c4.64-.54,6.9,4.11,10.88,5Z"/><path class="cls-12" d="M181,120c0-1,.17-2.17-.78-3a2,2,0,0,1-.87-1.94c.29-1.46.39-3,1.8-4,2.86-1.36,1.36,1.3,1.91,2.07a2.8,2.8,0,0,1-.18,3.79C181.35,117.4,182.25,119.36,181,120Z"/><path class="cls-2" d="M27,159c-3.41-1.6-4.24-5.15-6.06-7.95l.16-.15c2.47-.32,3.69,1.79,5.48,2.8a4,4,0,0,1,1,4.78Z"/><path class="cls-2" d="M34,163l1.07,2A10.67,10.67,0,0,1,27,159l.23-.25a2.24,2.24,0,0,1,1.28-.38C31.21,158.82,32.75,160.71,34,163Z"/><path class="cls-2" d="M173,47,167.1,38C171.21,39.59,172.9,42.78,173,47Z"/><path class="cls-13" d="M106,185l-8,0a1,1,0,0,1,0-1.23c1.1-.86,2.51-.92,3.74-1.45a6.16,6.16,0,0,1,3.16-.62,15,15,0,0,0,3.4,1.52,2.6,2.6,0,0,1,1,.76C108.39,185,107,184.49,106,185Z"/><path class="cls-2" d="M183.81,78.07l.24-2.08c3.5,1.85,1.66,4.48,1,6.94l-.36.29a1.1,1.1,0,0,1-1.24-.64A10.89,10.89,0,0,1,183.81,78.07Z"/><path class="cls-2" d="M177,53.8c-2.26-1.73-2.56-4.62-4.06-6.79C175.72,48.42,177.73,50.29,177,53.8Z"/><path class="cls-2" d="M140,173l6-3.8C145.05,172.1,143.48,174,140,173Z"/><path class="cls-2" d="M114.91,182.86c2.11-1.53,4.81-.69,7-1.75C120.3,184.5,117.67,183.94,114.91,182.86Z"/><path class="cls-2" d="M124.83,179.88,127,178.8c1.36-.08,2.52-1.31,4-.68C129.59,181,127.39,181.09,124.83,179.88Z"/><path class="cls-2" d="M146.83,168.64a6.63,6.63,0,0,1,3.17-2.48C150.7,169.23,149.16,169.44,146.83,168.64Z"/><path class="cls-2" d="M37,166.16a8.21,8.21,0,0,1,4,2.8C38.49,169.61,36.84,169.14,37,166.16Z"/><path class="cls-2" d="M152.77,162.92c.43-1.09,1.34-.94,2.22-.85,1.27,3.57-1.4,2.69-3.18,2.82Z"/><path class="cls-2" d="M167,149l2.88-4C170.05,147.07,170.26,149.25,167,149Z"/><path class="cls-2" d="M112.91,182.85h2c-1.58,2-3.76.8-5.67,1.06l-.26-.15-.27.14C109.6,181.48,111.36,182.6,112.91,182.85Z"/><path class="cls-2" d="M182.85,116.92l.18-3.79a3.09,3.09,0,0,1,.82-.39C184.78,114.44,185.4,116.06,182.85,116.92Z"/><path class="cls-2" d="M183.83,74.27c-1.38-1.17-.61-2.83-1-4.23C185.43,70.93,184.75,72.57,183.83,74.27Z"/><path class="cls-2" d="M180.87,64.14c-1.32-1.12-.72-2.71-1-4.08C182.32,60.88,181.85,62.44,180.87,64.14Z"/><path class="cls-2" d="M134.77,175.86l4.07-2.17C138.32,176,136.61,176,134.77,175.86Z"/><path class="cls-14" d="M26.08,30.12l1-1c.8-2.92,3.44-3.3,5.72-4.17,2.09-.49,4.53.59,6.28-1.42a6.31,6.31,0,0,1,1.57-1.25c3-1,5.35-3.2,8.14-4.6a2.54,2.54,0,0,1,1.34.05c1.31,1,1.41,2,.25,3.19a19.34,19.34,0,0,0-2.75,3.31,7.4,7.4,0,0,1-1.43,1.42c-1.8,1.19-3.47,2.44-3.83,4.84a2.45,2.45,0,0,1-2.4,2.11c-1.8-.16-2.77-1.47-3.81-2.71-3.2-2.37-4.64-1-5.07,2.41a6.79,6.79,0,0,0,3.47,6.42c1.95,2.46.81,3.87-1.68,4.68-1.85.61-3.87.7-5.48,2-5.08,3.31-5.57,3.16-6.53-2A11.49,11.49,0,0,1,22.11,39c1.11-2,2.52-4,2.94-6.33C25.5,31.87,25.18,30.75,26.08,30.12Z"/><path class="cls-15" d="M40.72,22.88l-.87.77c-1.58,2.61-4.15,1.66-6.42,1.77C31.5,23.18,34.13,23,35,22l3-2.18c.64-1.1,1.84-1.35,2.86-1.87L41,17.9a35.59,35.59,0,0,1,13.17-7.7v0C55.31,8.48,57.26,8.49,59,8.07l0,0c.7-1.19,2-.42,3-1l0,0A9,9,0,0,1,68,4.85l4-.76c.61-.7,1.38-.56,2.15-.42,2,.26,4.26-.42,6,1.25-.37,2.69-2.75,2.6-4.51,2.92a56.17,56.17,0,0,0-10,2.84c-1.85.51-3.78.77-5.4,1.93-4,1.86-7.8,4-11.93,5.55A40,40,0,0,1,40.72,22.88Z"/><path class="cls-16" d="M25.94,153.92c-2.36.18-2.91-2.56-4.88-3L19.85,149A14.83,14.83,0,0,1,16,143.18L15,142a29,29,0,0,1-3.84-7.18v0c-2.42-1.6-1.85-4.62-3.21-6.72-.33-.69-.66-1.38-1-2.07-1.46-1.09.1-2.89-1-4.08-.36-1-1.6-1.64-.93-2.92,1.74-1.21,2.57.38,3.65,1.18A10.15,10.15,0,0,1,11,123.78a93.29,93.29,0,0,0,6.83,14.3,23.22,23.22,0,0,0,2.65,4.54c.67,1.12,1.41,2.2,2.18,3.26,1.05,2,3.09,3.3,4,5.44A2.41,2.41,0,0,1,25.94,153.92Z"/><path class="cls-17" d="M25.84,33.25C26,35.7,24.49,37.35,23,39c-1.48,1.8-2,4.12-3.18,6.06-.41.79-.82,1.58-1.22,2.37-1.15,2.38-3.32,4.16-3.9,6.85-1.07,3.26-2.11,6.54-4.13,9.38a2.32,2.32,0,0,1-1.11.62c-.64-1.53-2.28,1-2.91-.72-.19-.91-.36-1.8.65-2.38v0c1.31-3,1.5-6.51,3.78-9.14q2.5-4.11,5-8.24A15.4,15.4,0,0,1,19.84,38L21,36.78C22.1,34.93,22.35,31.86,25.84,33.25Z"/><path class="cls-2" d="M3,111c-.41-.29-1.15-.56-1.17-.87-.48-8.37-3.92-16.76,0-25.12A4,4,0,0,1,3.3,88c.09,2.27,0,4.55.07,6.82,0,1.14,0,2.29,0,3.43-.26,2.63.87,5.11.89,7.7C4.31,107.75,4.51,109.59,3,111Z"/><path class="cls-18" d="M3,111c.7-4.36-1.25-8.54-.89-12.87,1.15-.5,2,.11,2.72.84,1.72,2.14,1.33,4.7,1.44,7.16,0,.93.14,1.86.23,2.79a5.65,5.65,0,0,1-.12,1.36c-1.1,2.43.78,5.41-1.4,7.65C3.34,115.89,3.18,113.43,3,111Z"/><path class="cls-19" d="M2.05,88c-.06-1-.11-2-.16-3a.67.67,0,0,0,.23-.76c.43-2.71-1-5.65.95-8.18v0c1.08-1.53-.17-3.48.9-5a.74.74,0,0,0,.15-.78.74.74,0,0,1,1.27,0c1.31,2.13.74,4.59,1.26,6.86-.43,3,0,6.24-1.47,9.13C4.42,87.27,3.69,88.41,2.05,88Z"/><path class="cls-20" d="M5.9,77C4.07,74.8,5.44,72.23,5,69.89c-.39-1.44.35-2.63.84-3.88L6,65c.36-.32.44-1,1.07-1,.64.43,1.36-3.39,1.95,0C8.87,68.56,9,73.14,5.9,77Z"/><path class="cls-2" d="M54.16,10.2,41,17.9C43.94,12.88,48.79,11.1,54.16,10.2Z"/><path class="cls-2" d="M35,22c.19,1.49-1.67,1.6-1.9,2.81.53.55.42.92-.32,1.1-2.31.33-3.84,2.05-5.71,3.17C27.24,24,31.42,23.34,35,22Z"/><path class="cls-21" d="M5,117.91c1-2.55-1.86-5.5.82-7.87l.61.4c1.2,2.16,1.61,4.6,2.42,6.9.22,1.28.32,2.53-.67,3.58-1.18-.39-1.53-2.06-3-1.94C5.09,118.62,5,118.27,5,117.91Z"/><path class="cls-2" d="M11,52a19.57,19.57,0,0,1-3.78,9.14C8,57.9,6.77,53.83,11,52Z"/><path class="cls-2" d="M25.84,33.25c-2.73-.36-3,2.68-4.88,3.53-.31-3.77,2.9-4.83,5.11-6.66C26,31.17,25.92,32.21,25.84,33.25Z"/><path class="cls-2" d="M3.07,76.05c-.49,2.71.75,5.62-.95,8.18C1.06,81.35-.57,78.39,3.07,76.05Z"/><path class="cls-2" d="M11.2,134.79A17.11,17.11,0,0,1,15,142C12.39,140.31,10.94,138,11.2,134.79Z"/><path class="cls-22" d="M81,1.89c2.32.75,5-1,7.12,1,.25,1.59-.89,1.65-2,1.81-2.3-.51-4.77-.06-6.94-1.26A.94.94,0,0,1,79,2.05Z"/><path class="cls-2" d="M19.84,38C19,40.2,18,42.31,16,43.75,15.46,40.63,17.08,38.92,19.84,38Z"/><path class="cls-2" d="M8,128.05c2.24,1.68,2.23,4.44,3.21,6.72C7.55,133.77,8.25,130.68,8,128.05Z"/><path class="cls-2" d="M16,143.18c2,1.45,3,3.58,3.89,5.79C17,148.09,15.58,146.23,16,143.18Z"/><path class="cls-2" d="M68,4.85l-5.9,2.2C63.53,5,65.08,3.15,68,4.85Z"/><path class="cls-2" d="M79,2.05a3.06,3.06,0,0,0-.3.83A3.54,3.54,0,0,1,74,4.07L72,4.09C74,2.25,76.43,1.91,79,2.05Z"/><path class="cls-2" d="M59,8.07l-4.86,2.16C55,7.86,56.59,7,59,8.07Z"/><path class="cls-2" d="M6.06,121.9C7.35,123,7,124.55,7,126,3.48,125.37,6.52,123.23,6.06,121.9Z"/><path class="cls-2" d="M5.82,66c.52,1.47-.55,2.59-.84,3.88a4.58,4.58,0,0,1-.87.33C3.86,68.48,4.07,66.93,5.82,66Z"/><path class="cls-2" d="M7.07,64,6,65c.63-1.2-2.69-3.61,1.17-3.82C7.14,62.11,7.1,63.06,7.07,64Z"/><path class="cls-2" d="M40.85,18c-.81.85-1.44,2-2.86,1.87C38.19,18,38.8,16.88,40.85,18Z"/><path class="cls-2" d="M62,7.08c-.75,1-1.9.85-3,1C59.23,5.27,60.71,6.48,62,7.08Z"/><path class="cls-2" d="M4,71a7.52,7.52,0,0,1-.9,5C3.2,74.32,2.35,72.44,4,71Z"/><path class="cls-23" d="M98.84,2.75C101,1,103.65,2.59,106,1.9A9.57,9.57,0,0,1,111,4c-1.23,1.22-2.6.86-3.89.22-1-.5-.89.11-.91.74a2.2,2.2,0,0,1-1,.76,5.61,5.61,0,0,1-2.79-.06C101.05,4.9,98.6,5.46,98.84,2.75Z"/><path class="cls-2" d="M132.87,10.13,125,7C128.56,5.73,131.16,6.8,132.87,10.13Z"/><path class="cls-24" d="M106,4.78c-.8-1.59-.79-1.69-.2-1.61,1.73.23,3.45.54,5.18.83l1.94.17c.11,1.09-.66,1.44-1.46,1.77C109.49,6.3,107.51,6.67,106,4.78Z"/><path class="cls-2" d="M140,14l-7.07-3.82C135.68,10.58,139.08,9.91,140,14Z"/><path class="cls-2" d="M124.92,7,120,5.05C122.59,3.3,123.82,5,124.92,7Z"/><path class="cls-2" d="M119.92,5l-2,.16c-1.45.06-3.31,1.54-4-1.16C115.8,5.27,118.52,1.23,119.92,5Z"/><path class="cls-25" d="M114,4c1,1.38,2.7.54,4,1.16-.79,1-2,.77-3,.87-1.36.81-2.55,1.06-3-1l1-.91Z"/><path class="cls-26" d="M86,4a2.16,2.16,0,0,0,2.15-1.09c2.1.45,3.63-2.67,5.94-1a3.2,3.2,0,0,1-1.53,2.42C89.74,6.14,87.87,8.39,88,12a2.31,2.31,0,0,1-1.55,2.31A4.49,4.49,0,0,1,83.85,13c-5.17-.58-9.91,1.92-15,2.05a11,11,0,0,1-4.74-.18,2.82,2.82,0,0,1-1.72-1.61C61.73,11,63.75,10.77,65,9.9c4.53-3.38,10.41-2.45,15.27-4.77A5.88,5.88,0,0,1,86,4Z"/><path class="cls-27" d="M86.06,13.89c.6-5.37,2.54-9.85,8-12l4.79.84c.83,1.88,3.13.83,4.25,2.12a2.54,2.54,0,0,1-1.18,2.36c-2.9-.39-5.44-3.1-8.67-1.37C89.61,7.32,88.86,10,90,13.48c0,1.56.06,3.11-1.64,3.93a2.45,2.45,0,0,1-2.89-2.09A1.83,1.83,0,0,1,86.06,13.89Z"/><path class="cls-28" d="M180,72c1.9,2.72.93,6.37,2.93,9a4.19,4.19,0,0,1,.46,3.69,1.72,1.72,0,0,1-1.35.72c-7.82-1.46-8-1.67-8.38-8.13,0-.82,0-1.64.06-2.46.14-1.76-.34-4,1.58-4.86S178.58,70.86,180,72Z"/><path class="cls-29" d="M166,40.94c2.82,3.72,5.48,7.53,7,12-.72,2.86-1.76,3.24-3.76,1.19-1.48-1.53-2.42-3.46-4.06-5-2.4-2.2-4.91-3.26-8.11-2.68-2-.58-2.87-1.71-1.9-3.78.69-.61,1.51-1,2.22-1.61S159,39.32,160.3,40C161.93,41.92,163.93,41.68,166,40.94Z"/><path class="cls-30" d="M180,72c-.41.08-1,.37-1.2.2-3.82-3.16-4-.69-3.81,2.41,0,.8,0,1.6,0,2.41-2.59,0-1.94-2.2-2.19-3.59-.36-2-.78-3.57-3.3-3.14A2.78,2.78,0,0,1,167.9,68c.63-5.38,1.3-5.62,6.19-2.23.09-1.28-.53-2.5-.25-3.77A3.35,3.35,0,0,1,176,59C177.5,63.25,180.05,67.22,180,72Z"/><path class="cls-31" d="M176,59c-.34,1-.69,2-1,3a1.46,1.46,0,0,1-1.75.38A10.31,10.31,0,0,0,170.54,59a32.52,32.52,0,0,0-11.84-11,2.89,2.89,0,0,1-1.77-2.12c4.94-1.43,9.18.68,12.13,6,1.63,3,1.9,3,4,1.08A12.84,12.84,0,0,1,176,59Z"/><path class="cls-32" d="M166,40.94c-2.88,3.22-4.69,2.94-6-.94-.41-1.79-.59-3.45,1.89-3.79A15.68,15.68,0,0,1,166,40.94Z"/><path class="cls-33" d="M161.85,36.21c-.63,1.26-1.26,2.52-1.88,3.79l-2,2a2.92,2.92,0,0,1-1.43-2.54c1.58-2.38.81-6.76,5.5-6.52l1.17,1C161.41,33.86,161.46,34.93,161.85,36.21Z"/><path class="cls-34" d="M183,84.93c0-1.3-.07-2.6-.11-3.9.14-1-.15-2.21.91-3L184,82.9C184.66,84.05,184.8,85,183,84.93Z"/><path class="cls-35" d="M48,170c-3.41-1.39-6.16-3.82-9.19-5.84-2.33-1.55-1.39-2.87.28-4.15.28-1.45,1.64-2,2.48-2.95s1.95-2,3.54-1.63c3.52,1.87,7,3.83,9.3,7.24a9.26,9.26,0,0,1-.75,3.55C52.43,168.52,51.06,170.56,48,170Z"/><path class="cls-36" d="M34,163l-5.84-4.44a19.76,19.76,0,0,1-1.06-8.79,7.46,7.46,0,0,1,2.15-3.25,6.66,6.66,0,0,1,4.86-2.08,4.54,4.54,0,0,1-3.23-.21,2,2,0,0,1-.15-2.1c.88-.78,1.92-.51,2.93-.46a6.16,6.16,0,0,1,3.6,1.21c1.43,3-1,4-2.69,5.46-.79.57-1.93.74-2.5,1.49a3.52,3.52,0,0,0,.29,4.89c1.52,1.47,3,.6,4.24-.72s1.88-3.12,3.89-3.53c3.28.69,2.31,2.83,1.68,4.87C41,157.23,40.25,159.88,37,159,34.42,159.1,33.87,160.77,34,163Z"/><path class="cls-37" d="M86.77,183.07a37.13,37.13,0,0,0-9.67-1.24c-.66-2.33-3.21-.21-4.19-1.79a1.07,1.07,0,0,0-.61-.7c-1.12-.55-3.07-.11-3.22-1.72-.16-1.79,1.88-2,3-2.77a6.71,6.71,0,0,1,2.77-1,8.94,8.94,0,0,1,1.37-.12c3.88.29,7.73.66,9.73,4.76.77.35,1.78,0,2.38.83C88.87,181,89.51,182.78,86.77,183.07Z"/><path class="cls-38" d="M75,175c-2.16-.1-3.12,2.32-6,2,2,1,3.12,1.59,4.23,2.19.08.05.08.32,0,.46a1.52,1.52,0,0,1-.31.38,21.68,21.68,0,0,1-10-3c-1.22-2.24-.34-4.2.81-6.13C68.14,170.48,72.1,171.25,75,175Z"/><path class="cls-39" d="M64,171c.36,2.14-.67,4-1,6.05-3.2-1.64-7.12-1.52-9.95-4.06,2.26-.93,2.33-4.23,5-4.66a4.77,4.77,0,0,1,2.8,0C62.18,168.84,63.51,169.41,64,171Z"/><path class="cls-40" d="M58,169c-2.18.68-1.92,4.42-5,4l-5-3c2.18-.71,3.64-2.32,5-4a3.72,3.72,0,0,1,1.82.73C55.81,167.54,57.2,167.84,58,169Z"/><path class="cls-41" d="M37,159c2.53-.09,3-2.3,4-3.92,2.47.26,1.28,1.74,1,2.92l-3,2A2.22,2.22,0,0,1,37,159Z"/><path class="cls-42" d="M128,12c5.45.73,9.87,3.48,13.88,7.05-1.41,2.37.3,4.1,1.35,5.85s2.07,3.75,1.82,6a4.09,4.09,0,0,1-.71,2,1.64,1.64,0,0,1-1.31.39c-1.57-1.08-2.55-2.7-3.72-4.15a14.76,14.76,0,0,0-7.55-8c-2.39-1.23-4.36-2.85-4.9-5.69a4.4,4.4,0,0,1-.6-1.16,2.75,2.75,0,0,1,.54-2.51A1,1,0,0,1,128,12Z"/><path class="cls-43" d="M128,12l-1.27.15c-.9.94-1,1.85.1,2.72L127,15c-.45,2.74-3.7,2.24-4.82,4.21a2.44,2.44,0,0,1-2.66-.28c-4.2-4.51-9.66-3.37-14.88-3.28a3.21,3.21,0,0,1-3.1-1.72,2.91,2.91,0,0,1,1.2-3.34c3.1-.81,6.1.06,9.13.53,2.79.75,5.64.81,9.34,1.15C117.49,9,113.45,9.5,110.06,8.15a17.39,17.39,0,0,1-3.84-1.65L105.78,6c0-.23.09-.46.14-.69l.09-.48,5.88.3c.81.94,1.93.93,3,1C119,8.67,124.33,8.51,128,12Z"/><path class="cls-44" d="M143.86,32.92c0-.62.11-1.24.16-1.86.78-3.09,2-5.76,5.65-6.31a1.26,1.26,0,0,1,1.29.19l3-.07c1.7,2.37,5.61,2.43,6.21,5.94-.85,1.25-2.1,1.22-3.38,1.08-2.32-.44-4.5-2.6-7-.59-2,1.44-1.6,5.47-5.37,5C143,35.36,143.09,34.19,143.86,32.92Z"/><path class="cls-45" d="M150.1,25.11A13.08,13.08,0,0,0,144,31.06c.76-4-3-6.2-4-9.61-.6-2.19-.11-2.61,1.83-2.42l3,2A22.21,22.21,0,0,0,150.1,25.11Z"/><path class="cls-46" d="M150.1,25.11c-2.68-.12-4.72-1.06-5.16-4,2.72.18,4,2.58,6,3.87A1.6,1.6,0,0,1,150.1,25.11Z"/><path class="cls-47" d="M180,97.93c-2.06.14-4.14.4-6-.94-2.66-1.17-4.93.88-7.44.92a8.42,8.42,0,0,1-3.39-.14c-8.31-.87-16.63-.15-24.94-.4-2.3-.07-4.68.38-6.84-.88C130,93.39,133.13,94,134.28,93c5.43-.84,10.91-.39,16.36-.37,4.8,0,9.57-.31,14.33-.75a37.56,37.56,0,0,0,13.33.43,13.48,13.48,0,0,1,1.39-.64l.76-.09a1.63,1.63,0,0,1,1.16.91A4.59,4.59,0,0,1,180,97.93Z"/><path class="cls-48" d="M172,100.09c0,.29,0,.59,0,.89-.14.46-.28.92-.43,1.38-1.88,14.84-7.17,28.26-16.69,39.91a4.29,4.29,0,0,1-2,1.08,1.34,1.34,0,0,1-1.25-.71c-.35-3.36,2.2-5.44,3.81-7.73,5.73-8.13,8.66-17.28,10.7-26.83a17,17,0,0,0,.6-5.76c0-.74,0-1.47.05-2.2a7.14,7.14,0,0,1,.42-2.15,2.17,2.17,0,0,1,1.57-1.29A8,8,0,0,1,172,100.09Z"/><path class="cls-49" d="M176,106c0,.67,0,1.34,0,2,.47,5.37-.32,10.38-4.13,14.53a3.88,3.88,0,0,1-3.83-.13c-2-3,.7-5.35,1-8a12.44,12.44,0,0,0,1-4.86,5.25,5.25,0,0,1,.38-1.34c.63-1,.47-2.31,1.13-3.32C173.73,102.52,174.84,104.3,176,106Z"/><path class="cls-50" d="M172,122c1-4.76,4.14-8.91,4-14,.13.92-.31,2.14.91,2.55,1,.32,1.56-.53,1.82-1.29.49-1.41.8-2.88,2.56-3.55,1.79,1.84-.59,3.6-.15,5.37-.2,1.39.19,2.92-1,4.06-2.12,1.58-1.68,4.49-3.29,6.34C175.26,122.24,173.68,122.79,172,122Z"/><path class="cls-51" d="M185.93,94.06q-1,7.44-2.06,14.87Q182.45,103.47,181,98c.76-1.32,1.77-2.47,2.54-3.8C184.32,93.55,185.09,93.14,185.93,94.06Z"/><path class="cls-12" d="M183.89,94.77A2.76,2.76,0,0,1,181,98L180,97.93l1.14-6C183,91.86,182.74,94,183.89,94.77Z"/><path class="cls-50" d="M176,106c-1.27-.4-2.13-2.38-3.86-1-1-1.34-1.41-2.54.78-3.09C175.44,102.12,176.13,103.73,176,106Z"/><path class="cls-52" d="M172,100.09c-1.78-.27-3-1.08-3-3.09a2.26,2.26,0,0,1,2.94,0C172.28,98,173.66,99,172,100.09Z"/><path class="cls-53" d="M172.89,101.92c-1.09.82-.91,2-.78,3.09-.28,1,.11,2.24-1.18,2.78a10,10,0,0,1,0-6.55l1-.26Z"/><path class="cls-51" d="M171.9,97,169,97l-1,.76c-1,.36-1.37.1-.93-1,2.36-1.24,4.69-1.46,7,.18Z"/><path class="cls-54" d="M172,122a8.49,8.49,0,0,1,5-1c1-.57,1-2.54,2.84-2-2.55,5.71-3.8,12-7.84,17-2-2-.52-4.4-.74-6.49-2.06,4.19-6.26,6.93-7.87,11.41-2.54,2.56-4.51,2.84-5.36-1.34,2.9-6.12,5.25-12.56,10-17.61Z"/><path class="cls-55" d="M162.94,140c1.75-3,1.84-7,6.14-8.39,2.26-.75-.9-3.27.38-4.87,5.41,1.86,1.69,6.18,2.51,9.27a2.06,2.06,0,0,1-1,2c-2,.72-1.92,2.94-3.1,4.21-1,1.12-1.93,3-4,1.95C162.1,143.2,162.08,141.63,162.94,140Z"/><path class="cls-56" d="M162.94,140c.13,1.44-.17,3.31,1.82,3.5,1.38.14,2.22-1.33,2.89-2.38.87-1.35.8-3.55,3.32-3.1-1.43,2.81-2.7,5.72-5,8a4.16,4.16,0,0,0-3,4l-.06.91a1.7,1.7,0,0,1-1.22.48c-2-.82-2.5-3.1-4.24-4.17-.77-2.22-4.35-1.42-4.58-4.23l1.07-1c2.39.16,2.23-3.86,5-3.06.12,1.08-.27,2.47,1.28,2.81S162,140.48,162.94,140Z"/><path class="cls-57" d="M162,151c.33,0,.65,0,1-.06L164,152,160,157a2,2,0,0,0-2-1c-.09-.22-.17-.45-.26-.67A5.09,5.09,0,0,1,162,151Z"/><path class="cls-58" d="M179.81,118.92c-1.41,0-1,2.61-2.84,2-.21-2.62-.34-5.21,3.14-5.85,0,.62,0,1.24.08,1.86C180.06,117.63,179.93,118.27,179.81,118.92Z"/><path class="cls-59" d="M163,150c-2.13-3.66.06-4.12,3-4C165.15,147.45,164.72,149.21,163,150Z"/><path class="cls-60" d="M148.21,164.18c-3,2.87-6.7,4.69-10.23,6.76-2.24-1.47-4.12-3.62-7.1-3.62a4.79,4.79,0,0,1-2.17-2.71,5.37,5.37,0,0,1,5.91-3.08c.81.38.84,1.32,1.37,1.9.73-1-.38-1.8-.35-2.72a4.48,4.48,0,0,1,4.82-3.19c.37.08.29.6.63.74.14-.4-.37-.53-.38-.9a2.74,2.74,0,0,1,2.36-2.11c3.49.54,4,4.13,6.16,6C149.41,162.43,147.77,162.93,148.21,164.18Z"/><path class="cls-61" d="M131,167c3.61-1,5.9.37,7,3.91-1,1.37-2.77,1.17-4,2-1.23-.62-1.69,0-1.88,1.14L125,177c-2.23-.5-1-1.81-.68-2.89.48-.85,1.41-1.54,1-2.72-.8-1.43-2.54-2.52-1.71-4.55a2.28,2.28,0,0,1,2.28-1.13C127.2,167.71,129.2,167,131,167Z"/><path class="cls-62" d="M125,174c.29,1-1.16,2,0,3a3.61,3.61,0,0,1-.16.87l-4,.88c-2.53-1.39-2.23-3.6-1.21-5.58a5.77,5.77,0,0,0,.11-4.74c1-1.72,2.29-2.66,4.28-1.41-.26,2.25,2.1,2.59,2.95,4C126.1,171.89,126,173.22,125,174Z"/><path class="cls-63" d="M149.16,161.84c-3.3-.7-3.17-5-6.23-6a2.11,2.11,0,0,1,.28-1.78c.82-1.41,0-2.9.19-4.34a1.81,1.81,0,0,1,.82-1.06,2.57,2.57,0,0,1,2.33,1.36,36.5,36.5,0,0,0,4.36,11,2.54,2.54,0,0,0,.18.85L150,163C149.62,162.68,149,162.56,149.16,161.84Z"/><path class="cls-64" d="M132.07,174.08c-.56-.4-1.09-1-.54-1.55.86-.89,1.74-.51,2.42.41Z"/><path class="cls-65" d="M149.16,161.84,150,163l-1.79,1.2C146.33,162.51,147.79,162.19,149.16,161.84Z"/><path class="cls-66" d="M183.89,94.77c-3.56,1.61-.9-2.86-2.8-2.87h0a1.58,1.58,0,0,1-.56-1.83,5,5,0,0,1,3.19-2.48A1.45,1.45,0,0,1,185,88c.33,2,.66,4.07,1,6.1A1.92,1.92,0,0,0,183.89,94.77Z"/><path class="cls-28" d="M185,88l-1.07.11a2.2,2.2,0,0,1-1.48-1.92,1.59,1.59,0,0,1,.51-1.12l.1-.1c.33-.68.65-1.36,1-2a2.8,2.8,0,0,0,.73.32C184.89,84.8,185.59,86.35,185,88Z"/><path class="cls-67" d="M86.77,183.07c1.69-1.16,1.44-2.58.57-4.09-1.82-1.65-1.66-3.12.41-4.4,2.17.12,2.16,2,2.76,3.42.88,2,2.1,3.24,4.45,2.1a8,8,0,0,1,1.81-.88,5.33,5.33,0,0,1,1.37-.19,3.16,3.16,0,0,1,1.93.71,1.81,1.81,0,0,1,.17,1.31,7.09,7.09,0,0,1-3,2.63c-1.42.67-3.16.7-4.19,2.14-3.6-1.31-7.41-.49-11.09-1C83.1,183,85.65,185,86.77,183.07Z"/><path class="cls-68" d="M93,185.82c-.45-3.4,2.16-2.57,4-2.86.39.31,1,.42,1,1,0,.31,0,.62,0,.92C96.51,186.25,94.77,186,93,185.82Z"/><path class="cls-69" d="M120,169c2.71.26,3.22,1.74,1.45,3.52-2.07,2.08-1.53,4.07-.58,6.26l-3.87.35c-1.49-.86-2.89-1.78-2.23-3.87.53-.85,1.56-1,2.88-1.7-2.6-.85-2.08,1.51-3.11,1.88a3.72,3.72,0,0,1-4,.1,5.6,5.6,0,0,0-3.73-1.69A6.56,6.56,0,0,1,110,175c-2,4-3.21,4.24-8,1.61a5.69,5.69,0,0,1-1-1.12c-.81-1.73-2.19-3.32-1.36-5.45a1.73,1.73,0,0,1,1.26-.49c2.11.92,4.24,1.47,6.5.49a26,26,0,0,1,3.61-.53C114,169.4,116.86,167,120,169Z"/><path class="cls-70" d="M102,176c2.81.87,5.78,2.91,8-1h0L115,175h0c-.16,1.77,2.25,2.31,2,4.13-2,1.93-5,1.11-7,2.77a3.74,3.74,0,0,1-4.82.22l-3.33,1a.77.77,0,0,1-1.07-.3c.3-1.68.2-3.25-1.25-4.45C99.54,176.76,100,175.58,102,176Z"/><path class="cls-71" d="M105.1,182.09l4.82-.22c1,.2,2.27-.18,3,1-1.35.55-3-.27-4.19,1.05C107.47,183.38,105.32,184.66,105.1,182.09Z"/><path class="cls-72" d="M156.31,31l3.84-.17,1.9,2.14c-3.27,1.19-2.7,5.2-5.15,7-1.41,1.88-3,2.58-5.06.86-.28-2.76,3.27-2.66,3.67-4.91a6.71,6.71,0,0,0,.05-3.53,2.47,2.47,0,0,1,.16-1.2Z"/><path class="cls-57" d="M150.91,161.06c-4.44-2.43-4.7-6.75-5-11.06,1-.54,1.8,0,2.56.59,1.78,1.62,1.59,5.67,5.6,4.5a7.57,7.57,0,0,1,2.58-.49c.72.18,1,.82,1.31,1.37l0,0C156.71,159.2,152.27,158,150.91,161.06Z"/><path class="cls-73" d="M28.09,149.07c0,3.15.05,6.3.07,9.44l-1,.25c-.42-1.61-.83-3.23-1.25-4.84,0-.95,0-1.89,0-2.83-.56-1.27-1.07-2.61.67-3.31C27.54,147.4,28.1,148,28.09,149.07Z"/><path class="cls-74" d="M101,183a5.59,5.59,0,0,0,.82.12c-1,1.31-2.53.57-3.77.91l-1-1c1-.7,1.47-2.13,3-2C100.78,181.42,100.44,182.41,101,183Z"/><path class="cls-75" d="M9.83,63.84l3.89-10.08a1.9,1.9,0,0,1,1,.76c.86,1.29,1.5,3.32,3.42,1,.58-.89.86-1.91,1.35-2.84a50.64,50.64,0,0,0,3.17-4.86c2-.63,3.19-2.22,4.35-3.83s3.18-1.25,4.91-1.55,3.8-.87,2-3.44c1.92-1.21,3,0,3.83,1.47,1,1.71.35,3-1.36,3.92-2.84.31-4.76,1.92-6.42,4.19a69,69,0,0,0-8,13.75c-.9,2.11-1,5-4,5.85-1.7-1.41-1.64-3.71-2.78-5.39-.66-.79-1.16-2.29-2.33-.45a3.21,3.21,0,0,1-2.57,1.87Z"/><path class="cls-76" d="M45.82,25c.39-.34.78-.68,1.16-1a17.74,17.74,0,0,1,4.81-3.62c2.94-1.25,5.25-3.47,7.88-5.19a4.77,4.77,0,0,1,2-.81c3,1.13,6.66,0,9.34,2.44.44,1.3-.46,1.87-1.39,2.19A85.07,85.07,0,0,0,46.51,31.34a3.48,3.48,0,0,1-3.71.73C41.16,28.58,43.53,26.8,45.82,25Z"/><path class="cls-77" d="M36.92,29.23l2.82,2.92A4.53,4.53,0,0,1,42.26,34c.27,1.17-1.1,2.28-.13,3.49.77,2.07,0,3.14-2.14,3.23-4.41-2-6.78-6-9.49-9.74C32,27.9,34.09,27.3,36.92,29.23Z"/><path class="cls-78" d="M30.84,31.84c3.29.17,3.78,3.67,6,5.17,1.13.75,1.78,2.29,3.16,3A1.46,1.46,0,0,1,40.5,41c-.24,1.17.33,2.53-.83,3.49a3.77,3.77,0,0,1-1.27.4A2.68,2.68,0,0,1,36,44c2.78-3.06.69-4.12-2-4.93-4-.78-4.28-3.63-3.88-6.89C30.15,31.6,30.41,31.5,30.84,31.84Z"/><path class="cls-79" d="M60,16c-2.51,1.92-4.59,4.52-8,5-.87-.87-.52-2.56-2-3-.34,0-.67,0-1,.08a.69.69,0,0,1-1.13-.16c3.63-2.83,7.87-4.49,12.09-6.18C60.75,13.17,59.39,14.61,60,16Z"/><path class="cls-80" d="M42.08,34.08a2.12,2.12,0,0,1-2.34-1.93C42.05,30,41.46,25.39,45.82,25,44.66,27.24,42,28.89,43,32a1.34,1.34,0,0,1,.45,1.13C43.25,33.82,42.86,34.25,42.08,34.08Z"/><path class="cls-81" d="M27.05,44a4.8,4.8,0,0,1-3.92,4.08c-.88.39-.63,2.4-1.85,1.83-1.85-.86-2.2-2.73-1.85-4.68.31-1.33.82-2.45,2.46-2.41C22,50.44,25.15,44.39,27.05,44Z"/><path class="cls-80" d="M50,18c2.1,0,2,1.57,2,3-1.6,1.1-2.89,2.73-5,2.93C46.25,21.09,51.19,21.1,50,18Z"/><path class="cls-80" d="M30.84,31.84a4.49,4.49,0,0,1-.77.29c-1.49-3,1-3.54,2.73-4.5,1.94-1.07,3.39-.6,4.12,1.6C34.32,28.78,31.72,28.31,30.84,31.84Z"/><path class="cls-80" d="M47.86,17.93l1.13.16c-2.36,2.29-4.73,4.54-8.27,4.79C42.74,20.71,45.33,19.37,47.86,17.93Z"/><path class="cls-80" d="M32.75,25.91c.11-.36.21-.73.32-1.1,2.5,1,4.66,0,6.78-1.16C38.69,28.2,35.1,25.11,32.75,25.91Z"/><path class="cls-75" d="M21.89,42.83l-2,2.09a.64.64,0,0,1-1.08-.13c.95-2.24,2-4.37,4.12-5.81Z"/><path class="cls-82" d="M86,4c-1.88.59-3.66,1.64-5.75,1.16-2-.65-4.37.76-6.18-1.06l4.69-1.19C81.07,3.61,83.77,2.06,86,4Z"/><path class="cls-83" d="M60,16c-3.1-1.39-1.07-2.84,0-4.27C61.17,10,63,9.83,65,9.9c-.57,1.15-2.18,1.63-2,3.23-.57.68-1.31,1.2-1.9,1.87Z"/><path class="cls-84" d="M5.9,109.11a1.81,1.81,0,0,1-.73-2c.93-2-.38-5.8,4-5.07a4.8,4.8,0,0,1,1.39.44c2.09,5.1,4.05,10.28,8.1,14.26a22.1,22.1,0,0,1,2.37,6.92c0,4.41-1.08,8.77-.42,13.25.4,2.71-.54,4.48-3.53,2.07A58.05,58.05,0,0,1,10,124c.83-2.66,3.19-2.86,5.84-2.77C12.84,116.29,10.66,111.64,5.9,109.11Z"/><path class="cls-85" d="M5.9,109.11c2.17-2.16,2.43,1.21,3.86,1.39.66.09,1.26,1,1.82,1.59,2.35,2.5,5,5.93,5.52,8.36,1,5-6-.62-7.09,3.52l-1.84-3c-.09-1.25-.17-2.51-.26-3.76-.47-2.43-1.27-4.78-1.72-7.21l-.38.09A4.88,4.88,0,0,0,5.9,109.11Z"/><path class="cls-86" d="M17.1,138.94c1-.2,3.06,1.83,2.31-1.63-1-4.39,0-8.9.57-13.34,4.09,1,3.22,5,4.6,7.65-1.43,2.68-.77,5.36,0,8.06-1.05,5.18-1.36,5.4-4.68,3.34A6.68,6.68,0,0,1,17.1,138.94Z"/><path class="cls-87" d="M19.89,143c4.79,2.13,2.33-3.09,4.08-4,2.47,0,1.92,2,2.36,3.42.08.52.13,1.06.17,1.59.2,1.28.38,2.62-1,3.37-1.65.91-2.64-.32-3.69-1.29A3.9,3.9,0,0,1,19.89,143Z"/><path class="cls-88" d="M21.81,146.08c1.19.09,2.3,1.48,3.51.42.93-.82-.12-1.69-.3-2.54,1.93-1.29,2.85.54,4.11,1.33a2.87,2.87,0,0,1,.95,1.78l-2,2c-3-1.78-1.72,1.05-2.17,2C24.24,149.67,22.46,148.35,21.81,146.08Z"/><path class="cls-75" d="M5.9,77C7.14,72.7,6.88,68.08,9,64a4.36,4.36,0,0,0,.81-.2l.34.28A3.49,3.49,0,0,1,11,67a8.3,8.3,0,0,1-.24,1.48c-.7,4.08-2.23,8-2.82,12.07-.4,1.38-.65,2.79-1,4.19a2.69,2.69,0,0,1-1.34,1.65,1.94,1.94,0,0,1-1.4-.18Z"/><path class="cls-89" d="M18.85,44.79l1.08.13c1.2.92-1,5.24,3.2,3.17.05,2.32-1.21,3.84-3.05,5a7,7,0,0,1-3.37-2.22A17.42,17.42,0,0,1,17.94,47Z"/><path class="cls-75" d="M17.94,47a5.93,5.93,0,0,1-1,4,5.38,5.38,0,0,1-1.33,2.58c-.43.43-.89.78-1.55.51l-.35-.3C14.06,50.83,16.36,49.12,17.94,47Z"/><path class="cls-90" d="M3.92,99.09l-1.8-1V95c.76-2.77,0-6.27,3.67-7.63a10.78,10.78,0,0,1,3.56-.6,9.71,9.71,0,0,0,4.58-1.19,2.9,2.9,0,0,1,1.43.16c1.08.72,2.07,1.48,1.82,3-1.21,1.7-3.07,1.42-4.79,1.56a9.1,9.1,0,0,0-5.31,1.1c-1.52,1.34-1.69,3.07-1.57,5C5.58,97.52,6.07,99.12,3.92,99.09Z"/><path class="cls-91" d="M6.06,88.08C3.2,89.5,3.52,92.74,2.12,95c0-2.35-.05-4.69-.07-7,1.17,0,1.5-1.1,2.13-1.79h.87A2.14,2.14,0,0,1,6.06,88.08Z"/><path class="cls-92" d="M3.92,99.09c1.36-2.81-1.31-6.66,2.29-8.89a3.66,3.66,0,0,1,.85,1.85c.05,2,.44,4,2.34,5.17q3.4,2.5.07,5.1c-3.67-.44-2.23,3.74-4.3,4.75C4.86,104.39,5.63,101.55,3.92,99.09Z"/><path class="cls-84" d="M6.19,110a10.73,10.73,0,0,1,1.72,7.21A12.84,12.84,0,0,1,6.19,110Z"/><path class="cls-93" d="M105.92,5.26a6.6,6.6,0,0,1,0,.77,1.55,1.55,0,0,0-.55,1.23c.36-.32.29-.85.57-1.22a6.61,6.61,0,0,1,4,1c1,1.56,4.92,1.94,2,5.05l-8.84-1.17c-1.48-1-2.3-2.11-1.17-3.85a2.3,2.3,0,0,1,1.13-2.16Z"/><path class="cls-94" d="M61,15c0-1.28.54-2,1.9-1.87l1,.95A6.35,6.35,0,0,0,69,14c4.21-1.43,8.84-1,12.94-3a2.27,2.27,0,0,1,3,1c-2,.9-3.35,2.66-5.27,3.64a18.48,18.48,0,0,1-1.78,1.05,8.8,8.8,0,0,1-1.31.54c-1.83.44-3.68,1.44-5.47-.11Z"/><path class="cls-95" d="M79,15.06C81,14,82.07,11.22,85,12c.35.63.71,1.26,1.07,1.89-.06.41-.11.82-.17,1.24C83.58,16.08,81.28,16.58,79,15.06Z"/><path class="cls-83" d="M69,14a3.65,3.65,0,0,1-5.14.05Z"/><path class="cls-96" d="M102,13.92c.93.54,1.8,1.26,3,1,1-.57,1.78-.46,2.23.71a4.73,4.73,0,0,1-2.1,2.72,3.86,3.86,0,0,1-3.25-.25c-2.31-.61-3.69.39-4.41,2.56-.24,12.33,0,24.64-.09,37,0,1.79,0,3.59,0,5.39,0,2.46.09,4.93-.1,7.38-.14,1.77-.11,3.77-2.61,4.06a1.94,1.94,0,0,1-1.41-1c-.92-2-.65-4.24-.65-6.38q0-27.64,0-55.23c-1.29,0-1.16,4.59-3.47,1.12-2.88-4.64.4-6.36,3.81-8,3.25-1.15,5.14.5,6.14,3.3A19.43,19.43,0,0,0,102,13.92Z"/><path class="cls-97" d="M89.11,12.92c1,.47,1.81.67,1.91-.91.08-1.39-.44-3,.94-4.07,2.81.71,1.43,3,1.43,4.46.11,18.74.06,37.48.1,56.22,0,1.78-.51,3.65.52,5.35v0a1,1,0,0,1-.17,1.39,4.06,4.06,0,0,1-3,.42c-2.89-.79-5.74-1.53-1.66-4.84.85-.69.38-2.14.44-3.26.1-9.43-.15-18.85,0-28.27.09-4.29-.12-8.58,0-12.85-.34-2.75,1.44-5.84-1.33-8.2a1.44,1.44,0,0,1-.35-1.21C89.46,16.06,88.81,14.35,89.11,12.92Z"/><path class="cls-98" d="M87.9,17.13A3.87,3.87,0,0,1,88,18c-.15.21-.31.41-.46.61C82.14,21.24,76,21.05,70.33,23.18c-7.86,3-15.3,6.44-21.94,11.58a15.61,15.61,0,0,1-5.25,2.82A2.75,2.75,0,0,1,41,37c-1.14-1.54,1.14-1.79,1.1-2.92L43,33c7-3.4,12.78-8.6,20.08-11.57,5.56-2.27,11.26-3.46,17-4.85,1,0,2.11-.49,3.05.28-1.56-1.31-3.81.77-5.28-1L79,15.06c2.3.19,4.6-1.12,6.89.07Z"/><path class="cls-99" d="M102,13.92c-1.75-1-3.93-1.08-3.73-4.34.18-2.93-2.21-4.65-5.36-4.66,3.66-2.1,6.4-.22,9,2.11.39,1.28.78,2.56,1.16,3.85Z"/><path class="cls-100" d="M182.91,85c0,.38,0,.75,0,1.13a2.41,2.41,0,0,1-1.39.51,54.94,54.94,0,0,0-9-.34,2.47,2.47,0,0,1-1.18-1c-.31-5.11-2.59-10-1.36-15.27.17-1,.47-2.07,1.81-1.8s1.6,1.57,2,2.63c.75,2-.67,4.37,1.2,6.14C173.22,84,179.6,83,182.91,85Z"/><path class="cls-101" d="M170,70c1.32,5.18,2.56,10.38,1.94,15.8l-.7.25c-2.2-.7-2.16-2.67-2.55-4.44-.73-3.22-.72-6.64-2.56-9.56a8.39,8.39,0,0,1-.82-1.22c-1.62-10-7.49-17.86-13-25.93a4.21,4.21,0,0,1-.09-1.58c1.7-2.42,2.26-2.48,3.71-.43-.83,1.38.06,2.16,1,2.9l2,1.2c5.21,6.09,9.64,12.56,10,21A2.25,2.25,0,0,0,170,70Z"/><path class="cls-102" d="M155.89,42.92c-1.89-1.73-2.61-.64-3,1.24-1.93.42-3.48,0-4.37-1.93a2.51,2.51,0,0,1,2.11-2.73A1.86,1.86,0,0,1,152,40c1.67,2.09,3.27,0,4.9-.07A2.09,2.09,0,0,1,158,42,2.06,2.06,0,0,1,155.89,42.92Z"/><path class="cls-103" d="M169,68c-1.78-7.74-6.82-13.91-10-21,5.12,1.77,11.74,8.39,12.12,12.1A6.43,6.43,0,0,1,172.93,62l2,0c-.33,2.47,2.12,8.41-4.27,2.9C168.85,63.27,169.39,66.75,169,68Z"/><path class="cls-104" d="M172.93,62a2.45,2.45,0,0,1-1.87-2.83C173.24,59,174.08,59.84,172.93,62Z"/><path class="cls-105" d="M54,167l-1-1c0-1.17-.13-2.4,1.15-3.1,1.66-1.32,3.07-.3,4.57.4A104.93,104.93,0,0,0,75.8,170a2.67,2.67,0,0,1,1.54,1.58A4.15,4.15,0,0,1,76,175H75l-11-4-3-2C58.78,167.85,55.89,169.12,54,167Z"/><path class="cls-106" d="M76,170.85c-6.52-.56-12-3.94-17.86-6.43-1.33-.57-2.47-1.59-4-1.54L45,156c-.83-1-4.45-1-1.34-3.51,2.2-.27,3.72,1.17,5.3,2.29,8.41,6,17.77,10,27.43,13.39a2.27,2.27,0,0,1,1,1.08A1.56,1.56,0,0,1,76,170.85Z"/><path class="cls-107" d="M44.08,152.93c-2.2,1.75.84,2,.89,3.1-1.59-.25-1.93,1.37-3,2-.09-1.05.24-2.24-1-2.92.28-1.52,2.35-3.48-1-4.08.56-2.83,1.74-4.86,5.15-4.06C45.65,149.1,45.57,151.15,44.08,152.93Z"/><path class="cls-108" d="M37,143l-4-.12C23,130.05,17.24,115.73,17.3,99.3a4.2,4.2,0,0,1,.15-1.62c.7-1.48,2-1.75,3.46-1.8a4.94,4.94,0,0,1,2.34.66c1.47,1.08,1.82,2.68,2,4.36,1.24,13.94,5,26.93,14.14,37.92a5.61,5.61,0,0,1,1.19,2.7C40.07,143.71,39.4,145.47,37,143Z"/><path class="cls-109" d="M18,99c2.14,5.23.77,10.92,2.45,16.36a85.41,85.41,0,0,0,11.37,23.92A5.33,5.33,0,0,1,33,142.9l-2.05-.74c-3.38-1.83-4.95-5-6.13-8.41a5.09,5.09,0,0,0-.74-1.84c-1.84-2.39-1.78-5.76-4.06-7.94l-2.1-6.86a21.48,21.48,0,0,1-2.07-4.86,33.31,33.31,0,0,0-1.52-7.77,16.25,16.25,0,0,1-.72-3.46C14.23,98.57,16,98.4,18,99Z"/><path class="cls-110" d="M44.74,146.89,40,151a12.56,12.56,0,0,0-1.8,2.88c-.88,2.87-3.06,3.37-5.39,2.78-2.07-.53-2.9-2.3-2.92-4.56,0-2.91,1.24-4.24,4.09-4.18.81.94-.32,2.08.41,3.34a71.7,71.7,0,0,1,5.6-6c2.36-2.42,4.89-4.67,7.39-6.94,1.81-1.4,3-3.71,5.68-3.84a1.82,1.82,0,0,1,1.45,2.09c-.86,2.49-3.13,3.8-4.73,5.67-.44.47-.91.93-1.36,1.39C47.16,144.66,46.78,146.72,44.74,146.89Z"/><path class="cls-111" d="M40.93,145.94c-1.86,2.05-3.68,4.14-5.61,6.12-.73.74-1.46,2.23-2.8,1.24-1-.71-.28-1.81.16-2.71L34,147.92c-.07-2.27,4-2,3-4.9,1.37.68,2.47.6,3-1a.92.92,0,0,1,1.16-.1C42.51,143.31,40.08,144.53,40.93,145.94Z"/><path class="cls-112" d="M25,133l5.92,9.17.15,1.72a2.35,2.35,0,0,1-2.15,2.06L25,144c0-.33,0-.66,0-1,.87-1.69,1.28-3.24-.19-5C23.47,136.45,23.81,134.63,25,133Z"/><path class="cls-113" d="M28.91,145.94l2.15-2.06,4.28.21-5.26,3Z"/><path class="cls-114" d="M76,175c0-1.12-.16-2.31,1.05-3a2.86,2.86,0,0,1,2.71-.74c1.64.48,3.39.49,5,1.18a2.54,2.54,0,0,1,1,1.1c.08,2.46,1.12,4.86.43,7.36A9.94,9.94,0,0,0,76,175Z"/><path class="cls-115" d="M86.14,180.85c0-2.65-2.1-5.06-.89-7.85a5.47,5.47,0,0,1,1.49-3.46c1.17-1,2.31-1.17,3.42.09a2.67,2.67,0,0,1,.3,1.24,10.06,10.06,0,0,1-1.1,3.63l-.55.33c-2.94.51-1.76,2.49-1.47,4.15Z"/><path class="cls-35" d="M54,167c2.22,1.06,5,.34,7,2l-3,0C56.29,169.05,54.74,168.8,54,167Z"/><path class="cls-116" d="M60.28,172c.65.05,1.43.14,1.31,1a2,2,0,0,1-1,1.37c-.63.2-1.2-.34-1.3-1A1.06,1.06,0,0,1,60.28,172Z"/><path class="cls-117" d="M143.86,32.92c.16,1.18-.08,2.5,1.15,3.3a2.86,2.86,0,0,1-.78,2.55c-2.27,1.59-2.48,5.79-6.5,5.15a6,6,0,0,0-3.86-6.17C130,36,126.38,33.48,122.32,32c-3-.91-5.8-2.63-9-2.83-4.91-2.23-10.69-1-15.44-3.91A2.31,2.31,0,0,1,97.7,23c3.89-1.55,10.06-1,16.87,1.5-2-1.93-5.68-.29-7.79-2.9,1.61-2.83,4-1.5,6.14-1.07,7.93,1.61,15,5.37,22,9.27,2.29,1.28,4.28,3.17,7,3.6.41-.12.83-.22,1.25-.3A3.12,3.12,0,0,0,143.86,32.92Z"/><path class="cls-118" d="M143.12,33.06a2.36,2.36,0,0,0-.21.82c-1.09.53-1.86-.14-2.67-.69a110.59,110.59,0,0,0-26.38-13.25c-1.55-.78-3.33-.58-5-1.11a2.5,2.5,0,0,1-1.15-1c.33-2,2-2.13,3.51-2.36,3,.67,6.09.71,8.67,2.6a2.18,2.18,0,0,0,2,.93c7.47.62,13.13,4.57,18.06,9.85C141.62,29.87,143,31,143.12,33.06Z"/><path class="cls-119" d="M140,28.89c-5.75-3.78-11.6-7.37-18.06-9.85-.71-4.33,3.75-2.15,5-4l.91-.37c.49,4.66,4.88,5.34,7.78,7.49A9.94,9.94,0,0,1,140,28.89Z"/><path class="cls-120" d="M126.85,14.85c-.95.09-2.22.53-2.39-.85s1-1.83,2.29-1.88C126.78,13,126.82,13.94,126.85,14.85Z"/><path class="cls-121" d="M112,12.05c1.14-2.4-1.88-3.15-2-5.05,3.39,1.11,7.23.79,10.26,2.95.61.44,2.48.33,1.57,2.26-.67,1.45-1.29,2.21-2.81,1.31C116.81,12.24,114,14,112,12.05Z"/><path class="cls-122" d="M119.94,18.11l-9-2c-1.31.52-2.62.82-3.89-.11l-2-1.06C110.2,13.21,117.54,14.79,119.94,18.11Z"/><path class="cls-123" d="M143.88,37.93,145,36.22c2.36-1.38,1.59-4.78,4-6.16a8.39,8.39,0,0,1,.82.76c.63.64,1.34.37,2,.12.86-.27,1.72-.6,2.49.18.64,1.55-.05,2.84-.77,4.13-1.93,2.22-3.65,4.71-6.75,5.5A2.72,2.72,0,0,1,143.88,37.93Z"/><path class="cls-124" d="M154.06,31l-2.13.95c-.8-.8-2.08,0-2.86-.85L149,30.06c2.7-1.77,5.11-1.16,7.33.92q-.34,0-.69,0A1,1,0,0,1,154.06,31Z"/><path class="cls-125" d="M167,96.81l.93,1,0,2.22c-1.94,4.25-2.06,9-3.38,13.37a90.3,90.3,0,0,1-14.72,29.14,2.49,2.49,0,0,1-1.26.8c-2.29-.77-4.42-1.66-3.5-4.79,9.14-8.29,13.08-19.2,15.49-30.88.73-3.56.78-7.19,1.23-10.78a2,2,0,0,1,2.18.07Z"/><path class="cls-126" d="M166,93c-10.64,1.88-21.38.68-32.08,1.07l-.15-.87a2.74,2.74,0,0,1,1.32-1.1c5.09-1.08,10.25-.36,15.37-.53a63.53,63.53,0,0,0,6.9,0c1.32-.16,1.8-1.46,2.78-2.1a5,5,0,0,1,1.43-.55c2.15-.26,4.29-.45,6.32.57a3.14,3.14,0,0,1,1.23,3.66A3,3,0,0,1,166,93Z"/><path class="cls-127" d="M164,96.91l-2,.22c-3.06,2.19-6.56.85-9.85,1.25q-3.63,0-7.26,0c-4.78,0-9.56,0-14.34,0-4.22.14-8.46-.47-12.66.42-1.08.29-2.18,1-3.21-.12a2.35,2.35,0,0,1,.46-2.51A19.15,19.15,0,0,1,131,95.9c9.28,0,18.55,0,27.82.1C160.54,96,162.46,95.5,164,96.91Z"/><path class="cls-128" d="M131,95.9c-5.3.7-10.77-1-16,1.07-1.79,1-2.89.07-3.3-1.49s.95-2.26,2.28-2.57c2.53-.58,5.21,0,7.72-.87a14.81,14.81,0,0,1,6-.06c2,.81,4.49.34,6.27,2l-.09.1Z"/><path class="cls-129" d="M169,92.94c-.34-1-.69-2-1-2.93a3,3,0,0,1,1.13-1c2.59-.81,4.91-2.64,7.86-2.16a3.86,3.86,0,0,1,2.06.85,1.62,1.62,0,0,1,.08,1.39c-1.13,1.35-3.2.3-4.09,1.37,1.67-.11,3.91-1.95,4.91,1.5a2,2,0,0,0,0,.74C176.3,94,172.65,93.69,169,92.94Z"/><path class="cls-51" d="M169,92.94l10.91-.21c-4.61,2.16-9.26,1.75-13.94.26Z"/><path class="cls-51" d="M179.92,92c-1.64-1.88-4-.32-6-1.41,1.22-2,3.16-1.56,5-1.51a1.71,1.71,0,0,1,1.94,1.08c.09.59.17,1.18.25,1.76Z"/><path class="cls-130" d="M149,142.88c1.31-4.87,5.2-8.2,7.44-12.56a103,103,0,0,0,9.5-28.39c.24-1.28-.19-2.91,2.05-2v2c-1.29,1.85.24,4.16-1,6a60.47,60.47,0,0,1-9.33,25.79l-5.76,9.11A1.89,1.89,0,0,1,149,142.88Z"/><path class="cls-131" d="M159,139c-2.22.12-1.6,4.89-5,3.06,9.25-12.11,14.37-25.93,17-40.8,0,2.19,0,4.37,0,6.56-.08.43-.16.87-.23,1.31-.66,1.6.28,3.42-.69,5-.29,2.71-2.19,5-2,7.86Z"/><path class="cls-132" d="M149,142.88l2.91,0,1,.09c1.45,1.66,5.22.33,5.13,4-2.76,1.44-4.86-1.27-7.42-1.16a3.43,3.43,0,0,1-1.69-1.31,1.4,1.4,0,0,1,.05-1.37Z"/><path class="cls-125" d="M167,108c.3-2-.82-4.25,1-6C167.69,104,168.76,106.23,167,108Z"/><path class="cls-53" d="M170,114.08c.15-1.67-.59-3.47.69-5C170.83,110.81,171.36,112.57,170,114.08Z"/><path class="cls-133" d="M171,118.9c-.33-.55-.74-.94-.68-1.21s.55-.65.85-1c.23.3.67.62.66.92S171.41,118.33,171,118.9Z"/><path class="cls-134" d="M150,145c3-.55,5.43,1.05,8.05,1.94,2.86-.18,2.5,2.79,3.94,4l-4,5-1-1c-1.64-1.66-1.14-4.32-2.79-6-.83-1.78-2.86-1.73-4.18-2.77A1.07,1.07,0,0,1,150,145Z"/><path class="cls-135" d="M120,169l-9,2c-2.25-1.37-4.56.23-6.82-.14a2.7,2.7,0,0,1-1.33-.78c.16-2.41,2.2-2.2,3.68-2.4,11.74-1.56,22.06-6.43,31.59-13.26a7.16,7.16,0,0,1,4.51-1.79c1.1.44,1.78,1.09,1.26,2.39l-.94.91-2.06,1.92v0l-5,3a1.2,1.2,0,0,1-1.09.8l-5.91,3.25c-.5,1.37-1.34,2-2.76,1.17L124,167A5.41,5.41,0,0,0,120,169Z"/><path class="cls-136" d="M134.77,161.68l1.09-.8c1.82,1,2.63,2.42,1.63,4.38-.18.36-1.19.59-1.68.44C133.46,164.94,134.47,163.2,134.77,161.68Z"/><path class="cls-137" d="M126.1,166.1l2.76-1.17A2,2,0,0,1,131,167C129.16,167.86,126.68,172,126.1,166.1Z"/><path class="cls-138" d="M140.87,157.81a2.44,2.44,0,0,1,1,3c-.21.71-.76.51-1.12.17-1.15-1.08,0-2.09.17-3.14Z"/><path class="cls-139" d="M125,174c0-1.42.46-2.53,2-2.92C127.09,172.55,127,173.94,125,174Z"/><path class="cls-140" d="M143,153c-7.72,4.74-15.16,9.91-23.83,13.06-5.34,1.93-11,1.94-16.27,3.88a1.2,1.2,0,0,1-1.8.19L100,170a2.69,2.69,0,0,1-3-.7c-1.58-2.28-.65-4.15.93-5.93,3.19-2.23,6.73-1.84,10.27-1.42a11.93,11.93,0,0,0,8.19-.4A69.12,69.12,0,0,0,137.64,150c1.41-1.14,2.8-2.35,4.77-2.42a1.66,1.66,0,0,1,1.48,1.48l-.1,1C143.45,151,144.08,152.23,143,153Z"/><path class="cls-141" d="M143.89,149.05l-1.12-1a4,4,0,0,1-2.55-3.31c.08-1.39.7-2.27,2.2-2.31,1.68.31,2.68,1.71,4,2.53a22.08,22.08,0,0,1,3.09,2.54c1,1.12,2.28,2.11,2.72,3.68a1.34,1.34,0,0,1-.45,1.13c-1.73.92-2.53-1.07-3.91-1.26l-2-1Z"/><path class="cls-142" d="M143,153c.07-1-.16-2.15.83-2.91,1.15,1.62,2.07,3.25.08,4.93C143.57,154.3,143.26,153.63,143,153Z"/><path class="cls-143" d="M180.81,90.15l-1.94-1.08c0-.34,0-.68,0-1,.63-1.23,2-1.26,3-2a3.82,3.82,0,0,1,1,.06l1,1.91Z"/><path class="cls-144" d="M95.87,180.91c-4.9,1.94-6.4.64-7.06-6.08l0,0c.56-.37,1-1,1.69-1.15a1.63,1.63,0,0,1,1.07.74c.45,1.38,1,2.54,2.16.44a1.61,1.61,0,0,1,1.25-.13C97,176.57,95.29,178.89,95.87,180.91Z"/><path class="cls-145" d="M95.87,180.91c-2.48-1.65-.09-4-.89-5.94a3.86,3.86,0,0,1-.45-4.73,1.37,1.37,0,0,1,1.5-.46,3.77,3.77,0,0,1,1.14,2.2c-.18,2.61,2,5.31-.26,7.85Z"/><path class="cls-146" d="M102,176a2.71,2.71,0,0,0-1.86,3,.58.58,0,0,1-.19.89l-2,.09c-.64-1.65.27-3.45-.5-5.09a2.08,2.08,0,0,1,.67-1.15c1.52-.4,2.63.55,3.84,1.18Z"/><path class="cls-144" d="M97.91,175c1.42,1.67.45,3.33,0,5a6.58,6.58,0,0,1-1-.13c-.3-2.64-.59-5.28-.89-7.92C98.54,171.75,97,174.13,97.91,175Z"/><path class="cls-13" d="M99.91,179.87c.07-.3.13-.59.19-.89,2.38,0,2.46.37.86,4a2,2,0,0,1-1-2Z"/><path class="cls-147" d="M115,175c0-1-2.69-1.26-1-2.61a3.57,3.57,0,0,1,3.68-.88,2.24,2.24,0,0,1,1.24,2.94c-.88,2-2.63-.08-3.88.55Z"/><path class="cls-148" d="M101.9,174.9a5,5,0,0,1-3.83-1c-.55-1.64-2.43-3.25-.12-5l2,1.06Q100.92,172.44,101.9,174.9Z"/><path class="cls-149" d="M109.92,174.91c-1.5-.12-3.28.72-4.33-1.46,2-1,3.35-.38,4.31,1.47Z"/><path class="cls-106" d="M101.06,170.09l1.8-.19,1.33.22c.82.78,2.19-.13,2.92.94C104.83,172.36,102.67,172.89,101.06,170.09Z"/><path class="cls-150" d="M107.11,171.06c-1-.24-2.23.21-2.93-.94,2.28.22,4.73-1.06,6.8.84Z"/><path class="cls-151" d="M147,40l6-5c1.23-.8,1.47-2.6,3.06-3,1.67,1,1,2.59.85,4-1.94,1.35-3.92,2.66-5.92,3.93A3.55,3.55,0,0,0,149,42.2c-.68,1.74-2.06,2.9-3.3,4.19a20,20,0,0,1-3.54,3,1.88,1.88,0,0,1-2.37-.7,2,2,0,0,1,.11-1.29,29.07,29.07,0,0,0,2.39-3.88C143.29,41.64,145.33,41.07,147,40Z"/><path class="cls-152" d="M150.92,39.89c1.5-2,3-4.12,5.92-3.93-.33,2.88-3.11,2.84-4.84,4Z"/><path class="cls-152" d="M156,31.93c-.74,1.29-1,3.08-3.06,3,.37-1.31.75-2.63,1.13-3.94h1.56C155.75,31.31,155.87,31.62,156,31.93Z"/><path class="cls-153" d="M147.91,151c1.73-1.31,2.44,1.57,4,1,2,.59,3.41,1.61,3.08,4C149.45,158.88,149.41,153.92,147.91,151Z"/><path class="cls-154" d="M155,156c-1-1.33-2.05-2.65-3.08-4l.12-.06c-.3-.85,2.57.55,1-1.58-1.2-1.61-.69-3.2,1.95-2.36,1.93,2,2.31,4.37,2,7Z"/><path class="cls-155" d="M36,44,39,44c1.32,1.88-.11,3.12-1.13,4.34A67.65,67.65,0,0,0,22.14,83.22c-.29,2.08-.55,4.31-2.19,6a2.29,2.29,0,0,1-1.47.28,1.28,1.28,0,0,1-1-1c-.66-1.71-2.46-2.49-3.3-4-.77-5.06,1.15-9.65,2.52-14.33a3.2,3.2,0,0,1,1.42-1.83c3.14-7.21,6.1-14.52,11.09-20.74C31,45.3,32.45,42.68,36,44Z"/><path class="cls-45" d="M18.15,68.2c-.1.59-.19,1.18-.28,1.77-1.91,2.44-1.53,6.91-6.17,6.91-1.19-2-.09-3.87.2-5.79A28.47,28.47,0,0,1,14,65.65c.77-1.18.77-2.79,2.05-3.69C17.52,63.78,17.85,66,18.15,68.2Z"/><path class="cls-156" d="M16.05,62c-.19,1.39.37,3-1,4-.78.77,0-2.73-1.37-.49-.79,1.28-1.93,2.1-3.59,1.49,0-1,.08-1.92.11-2.88A10,10,0,0,0,12,61.84C13.52,58.06,14.76,60,16.05,62Z"/><path class="cls-157" d="M14.08,54.06l1-1c4.32-2.91,3.78.53,4,3-.72,1-.86,3-2.59,2.41C14.54,57.86,13.87,56.1,14.08,54.06Z"/><path class="cls-158" d="M19.08,56.07c-1-1.46-.72-4.55-4-3A3.21,3.21,0,0,1,17,51c1.54,0,3,.12,3.12,2.14C20,54.18,20.08,55.31,19.08,56.07Z"/><path class="cls-159" d="M80,17c-4.85,2.54-10.49,2.47-15.45,4.83A139.21,139.21,0,0,0,47,32c-1.15.76-2.22,2.21-3.93,1.05,0-.34,0-.67,0-1C50.28,27.55,56.89,22,65.22,19.37c2-.62,4-1.49,5.94-2.25L77,16C77.78,17,79.22,16,80,17Z"/><path class="cls-160" d="M41,37h2a5.93,5.93,0,0,1,1.82,1.67c.84.94,1.75,1.81,2.65,2.69.48.44.93.89,1.38,1.35,1.53,1.56,3.09,3.09,4.64,4.62,1.08,1.12,2.17,2.22,3.3,3.28,2.2,2.27,4.53,4.42,6.66,6.76a3.49,3.49,0,0,1,.9,2.44c-.72,1-.38,2.59-1.56,3.44a3.45,3.45,0,0,1-2.66-1.14c-6.43-6.23-12.78-12.53-19-19a3.53,3.53,0,0,1-1.06-2.19l0-1C42.71,39.74,41.48,38.25,41,37Z"/><path class="cls-161" d="M40.05,40.93,63,63c5.75,3,9.55,8.18,14,12.6,3.51,4.49,3.47,4.86-.5,6.06a7.32,7.32,0,0,1-3-2c-4.26-4.39-8.63-8.67-13-13-2.26-2.39-4.62-4.67-6.94-7Q52,58,50.4,56.47c-1.07-1.08-2.11-2.18-3.11-3.34-1.92-1.83-3.46-4-5.61-5.62-1-.94-2.21-1.81-1.73-3.49C39.69,43,38.41,41.91,40.05,40.93Z"/><path class="cls-162" d="M40,44,42,47c-.1.23-.2.46-.29.69C32,58.63,26.29,71.53,23.59,85.85c-.3,1.59-.29,3.36-1.72,4.55-1.36.36-2.69.64-2.88-1.4,2.15-3.13,2.18-6.91,2.79-10.4,2.09-11.95,7.6-22.1,15.33-31.21C38,46.37,39,45.5,39,44,39.3,44,39.63,44,40,44Z"/><path class="cls-163" d="M16.92,112.06l1,5A22.45,22.45,0,0,1,10,102.4c.85-1.94,2.47-1.41,4-1.24,1.28.6.87,1.82,1.05,2.83A72,72,0,0,0,16.92,112.06Z"/><path class="cls-164" d="M14,101.16c-1,1.53-2.78.39-4,1.24l-.29,0-.27-.13C9.32,100.87,11.55,99.17,9,98c4.13-4,5.8-4,9,0v1C16.81,100,14.65,99.17,14,101.16Z"/><path class="cls-165" d="M15.64,124.89a1.05,1.05,0,0,1-1.61.61c-.54-.25-1.37-.42-1.12-1.23.08-.25.87-.4,1.33-.38C14.88,123.91,15.58,124.06,15.64,124.89Z"/><path class="cls-166" d="M25,133c.15,1.57-.54,3.36.73,4.65,2.14,2.18.76,3.73-.72,5.34-.17-1.38.48-3-1-4-1.92-2.38-3.08-4.75.07-7.08Z"/><path class="cls-167" d="M13,71q-.51,3-1,6a7.43,7.43,0,0,1-.68,6.1c-2.33,1.1-3.42-.36-4.36-2.12,0-4.57,1.72-8.75,3-13C11.11,68.79,11.77,70.18,13,71Z"/><path class="cls-168" d="M13,71c-3.41,1.36-2.76-1.32-3-3.07,0-.31.05-.61.1-.92a33.85,33.85,0,0,0,3-2.27C15.61,62.33,14.73,65,15,66,14.34,67.66,13.67,69.33,13,71Z"/><path class="cls-169" d="M6.91,80.94,11,83c1.32.24,2.67.46,1.88,2.37a4.19,4.19,0,0,1-1.43.68c-1.88.22-3.77.5-5.32-1C6.09,83.62,5.67,82.11,6.91,80.94Z"/><path class="cls-170" d="M6.08,85l5.79,0c.6,1.83-1.21,1.89-2,2.7l-3.82.3a2,2,0,0,1-1-1.9Z"/><path class="cls-171" d="M19,89c.72,1.17,1.9,1,3,1a4.72,4.72,0,0,1,2.92-1.23,10.79,10.79,0,0,1,4,.35,2.8,2.8,0,0,1,1.26.94c-.32,2.11-2,1.93-3.5,2.15a7.27,7.27,0,0,1-1.31-.13c-.29-.06-.75-.19-.85,0-.46.61.49.41.54.8a1.49,1.49,0,0,1,.09,1.3,3.69,3.69,0,0,1-1.27.8c-4.64.8-9.3-.25-13.95.26C7.8,95.4,6.59,94,6.06,92.06l.15-1.87c1.85-.72,3.6-2,5.75-1,2,.58.72,1.72.3,3,2.14-1.07,3.42-3.21,5.82-3.25Z"/><path class="cls-172" d="M13.14,84.89,11,83c.42-2-.83-4.28,1-6l5.92-7c-1.05,5-3.14,9.72-2.73,15a.58.58,0,0,1,.18.68c-.11.2-.2.3-.29.3l-.83-.09C13.5,85.9,13.21,85.53,13.14,84.89Z"/><path class="cls-173" d="M18.08,88.93c-2.59,2.77-5.09,5.8-9.45,3.36-.26-2.7,4.46.52,3.33-3.07,1.64-.48,3.65.53,5-1.2.32-.43.66-.46,1,0C18,88.32,18,88.62,18.08,88.93Z"/><path class="cls-91" d="M13.14,84.89l1.06.92a3.42,3.42,0,0,1-4.33,2l2-2.7Z"/><path class="cls-171" d="M18,88h-.5L17,88,15,85.9a5.35,5.35,0,0,1,.11-1C16.26,85.78,17.46,86.58,18,88Z"/><path class="cls-174" d="M6.06,92.06c1.33,1.75,3.17,2,5.23,1.93,4.57-.07,9.14.05,13.71.09,2.27-.52,4.54-.89,6.58.67A.84.84,0,0,1,31.73,96c-2.08,1.91-4.58,1.32-7,1.08C23.48,97,22.28,96,21,97c-1.1,0-2.28-.17-3,1-3-3.33-6-1.21-9,0C6,97,5.5,94.8,6.06,92.06Z"/><path class="cls-175" d="M106,6c.34,1.18,1.94,1.83,1.48,3.79-1.77-.64-3.88-.6-4-2.91,0-1.21,1.55-.74,2.46-.89Z"/><path class="cls-176" d="M80,17c-1.09-.08-2.29.17-3-1a2.4,2.4,0,0,1,.88-.11h6.65C82.83,17.55,81.32,16.76,80,17Z"/><path class="cls-177" d="M94,74c-1.75-1.63-1-3.76-1-5.65C93,50.08,93,31.84,92.94,13.6c0-1.9.75-4-1-5.66,1.93.64,2,.64,2,2.76,0,7.64,0,15.28,0,22.92Z"/><path class="cls-178" d="M98,23V25a4.48,4.48,0,0,1,1.13,2.74A18.47,18.47,0,0,1,99.24,30c0,1.23,0,2.45,0,3.68,0,.49,0,1,0,1.48,0,1,0,2,0,3,0,.77,0,1.54,0,2.3,0,1.58,0,3.16,0,4.73s.07,3.25,0,4.87c0,2.19,0,4.38,0,6.58s.16,4.51-1.69,6.23a1.1,1.1,0,0,1-1.5,0l0-4.63c.89-11.6.11-23.23.42-34.84,0-1.77-.64-3.66.61-5.3,1.62-.44,2.77-3,4.9-1.1-.29,1.91-2.39,2.62-2.89,4.38A5.3,5.3,0,0,1,98,23Z"/><path class="cls-179" d="M97.14,18.05q-.19,17.4-.41,34.8c0,1.79.41,3.66-.62,5.34Q96,39.89,96,21.58C96,20.3,95.7,18.88,97.14,18.05Z"/><path class="cls-117" d="M98,21c.33-2.38,2.62-2.79,4.06-4.05,1,.32,1.76,1.25,2.93.84a1.84,1.84,0,0,1,2.18.2c-.63,2.73-2.81.94-4,1.45-.86-.05-.05,1.11-.2.46,0-.14,0-.21.27-.19,2,.12,2,.12,2.25,1.9C102.91,22.09,100.36,22.55,98,21Z"/><path class="cls-177" d="M96.15,62.82a1.75,1.75,0,0,0,.9.14,3.14,3.14,0,0,1,.87,1.29c.55,2,.29,4.09.4,6.13-.62,1.8,2.59,4.21-.86,5.58-1.25,0-2.91,1.49-3.55-.91,0-.37.07-.73.11-1.1,3.09-.58,1.76-3,1.93-4.75C96.15,67.09,96.1,65,96.15,62.82Z"/><path class="cls-180" d="M106.89,18.17,105,17.79c.09-1.28.89-1.77,2.06-1.83l3.89.11-3,1.66A.73.73,0,0,1,106.89,18.17Z"/><path class="cls-181" d="M63,58a29.32,29.32,0,0,1-7-7c-1.39-2.38.8-3.25,2-4.35,5.35-4.92,12.17-7.08,18.72-9.75a19,19,0,0,1,5.54-1.79c3.81-.88,7.15-.55,8.6,3.87L91,69c-1.22,4.28-4.42,5.1-8.29,4.74-.12-.48-.3-1.22,0-1.41,6.7-3.68,4.55-10.09,4.89-15.72,0-.66,0,.18,0-.49.18-8.74-1.1-9.6-9.58-6.51C72.56,51.57,68,55.23,63,58Z"/><path class="cls-182" d="M90.84,39c-4.32-4.39-9.06-3.12-13.86-1-1.08.65-2.36,1-3-.33-.44-.95.53-1.87,1.46-2.27a56.45,56.45,0,0,1,10-2.74C73.06,34.35,62,38.92,53,48a15,15,0,0,1-5-5c2.31-4.77,7-6.82,11.11-9.38a66.6,66.6,0,0,1,27-9.15c1.67-.22,3.28-.41,4.79.55Q90.85,32,90.84,39Z"/><path class="cls-50" d="M93.91,75.05c1,1.13,2-.34,3,0,2.16,1.19,5.68.3,6.17,4a2.67,2.67,0,0,1-1.94.75c-1.14.26-2.66-1.44-3.36.25-.49,1.16,1,1.84,1.88,2.51a7.3,7.3,0,0,1,2.08,2,3.46,3.46,0,0,1-.71,4.59c-4.74-2.82-9.31-3.16-13.54,1l-.66.22a1.71,1.71,0,0,1-1.25-.5c-.66-3.09-.89-6.47-4.94-7.24a2,2,0,0,1-1-.92c.47-3,4-3,5.14-5.24C86.65,75,88.81,74.94,91,75Z"/><path class="cls-98" d="M90.85,25A74.31,74.31,0,0,0,48,43l-1-1c-1.39-2.34.56-3.36,1.91-4.41,10.16-7.93,21.4-13.42,34.35-15A8.86,8.86,0,0,0,87.88,21c.62-1-.47-2,.08-3L88,18c1.29,0,3.14-1.08,3,1.64C90.88,21.4,90.89,23.21,90.85,25Z"/><path class="cls-183" d="M91,75c-1.72,1.47-4,1.25-6,2-2.32,4.39-4.26-.87-6.43-.25a2.2,2.2,0,0,1,.22-2.08c1.24-1,2.52-1.81,4.14-.74,2.59-1.78,6.56-1.33,8-5-.14,1.09,0,3-.47,3.15C85.55,74.07,91.07,74.05,91,75Z"/><path class="cls-184" d="M88,18c.65,1,2.18,1.41,2,3-4.92,2-10.33,1.66-15.4,3.3A83.53,83.53,0,0,0,50,36.7c-1.63,1.21-3.12,3.82-6,2.31a2.24,2.24,0,0,1-1-2C56.17,26.46,71,19.81,88,18Z"/><path class="cls-185" d="M181.9,86.1c-.05,2.12-1.67,1.81-3,2l-1.86-.3c-1.2-1-3.79,1-4.15-1.86C175.94,83.81,178.93,84.34,181.9,86.1Z"/><path class="cls-143" d="M172.88,85.89c.91,1.69,3.11.47,4.15,1.86-3-.46-5.09,2.42-8,2.18-1.42-3.07,1.15-3.22,2.91-4l0-.14A3.3,3.3,0,0,0,172.88,85.89Z"/><path class="cls-186" d="M145.18,46.39c.56-2,2.22-3.07,3.79-4.19l3.91,2c0,.29,0,.57,0,.85-.75.62-1.52.45-2.48,0,7.39,7.5,12,16.49,15.89,25.92A.87.87,0,0,1,167,71c.69.86.77,2.56.42,2.72-1.95.92-1.15,3.08-2.26,4.29-2.59.12-2.5-2.14-3.07-3.65-.69-1.82-1-3.78-1.86-5.54A62,62,0,0,0,145.18,46.39Z"/><path class="cls-187" d="M166.3,70.93c-2.72-2.69-3.72-6.39-5.61-9.57-2.85-4.79-5.59-9.64-9.51-13.69-.7-.72-1.51-1.6-1-2.56.66-1.15,1.76.11,2.66-.1C159.81,52.38,164.78,60.77,166.3,70.93Z"/><path class="cls-188" d="M165,78c-1.5-2.94,2.78-4.22,2-7,2.24,3.25,2.23,7.14,3,10.8.33,1.59,0,3.39,2,4.15-.93,1.35-3.17,1.74-2.91,4L168,90,161,90c-.3-.82.15-1.33.73-1.8,2.55-.76,3.82-2.15,3-5.06C164.29,81.46,163.4,79.61,165,78Z"/><path class="cls-189" d="M80,172,77,172l-1-1.09,1-.92c1.7-1.51,3.77-1.3,5.81-1.26,2,.42,4.57.49,2.14,3.56C83.29,172.44,81.6,172.85,80,172Z"/><path class="cls-190" d="M85,171.94c1.24-2.44-.7-1.9-1.92-2-1.88-1.17-4.2.34-6.06-1-9.36-1.73-17.59-6.09-25.59-11-2.52-1.55-4.89-3.34-7.33-5a9.45,9.45,0,0,1,.66-6c1.33-1,1.31-3.26,3.35-3.58-.82,5.79,3,8.59,7.09,11.44,7.64,5.41,15.75,9.61,25.12,11.22,2.58.44,6.32-.18,6.8,4.1A3.91,3.91,0,0,1,85.25,173l-.42-.1c-.25-.25-.31-.48-.18-.68S84.87,171.94,85,171.94Z"/><path class="cls-191" d="M77,168.93c2,.18,4.22-.48,6.06,1l-6,0C77,169.6,77,169.27,77,168.93Z"/><path class="cls-192" d="M41,142l-1,0C29.8,129.76,24.62,115.64,23.92,99.8A10.68,10.68,0,0,0,23,97c1.82-1,3.76-.35,5.65-.43,2.67,2.62,2.22,6.24,2.36,9.34.47,9.91,4.72,18.19,10,26.19,1.26,1.93,2.83,3.71,3.4,6C44.23,140.29,42.93,141.41,41,142Z"/><path class="cls-193" d="M29,97H23l-2,0c3.06-2.24,6.74-.07,10.06-1.38-1.86-1.44-4.43.39-6.05-1.5.08-.2.17-.41.25-.62a4.72,4.72,0,0,1,2.44-.77c4.27-.2,8.55.09,12.81-.25,5.72-1.89,11.48.75,17.33-.3a54.25,54.25,0,0,1,14.42-.43c1.93.26,3.52,1,3.52,3.25,0,2.46-1.77,3.23-3.79,3.69-6-.19-12-.16-18-.23-3,.1-6,.09-9,0-3.31-.07-6.62.14-9.93,0C33,98.45,30.78,98.55,29,97Z"/><path class="cls-164" d="M16.92,112.06A12,12,0,0,1,15.05,104,14.4,14.4,0,0,1,16.92,112.06Z"/><path class="cls-194" d="M49.12,142.35c1-2.35,3.11-3.73,4.84-5.44.64-.72,1.23-1.61,2.3-.58a2.42,2.42,0,0,1,.07,2.07c-1,1.75-2.24,3.69.09,5.19,7.88,5.06,15.45,10.8,25.12,12.21,6.26.91,6.26.94,6.14-5.2,0-1.28-.06-2.55-.05-3.82.05-1.93-.15-3.88.47-5.77a2.59,2.59,0,0,1,1.13-1.29,1.46,1.46,0,0,1,1.44.81c1,7.36,1.62,14.71-.89,21.93-2.39,2.7-5.51,2-8.34,1.4-11.6-2.45-21.68-8-30.78-15.5C48.68,146.73,47.68,144.85,49.12,142.35Z"/><path class="cls-117" d="M49.12,142.35c-.15,1.69-.17,3.19,1.45,4.44,9,6.89,18.37,12.8,29.57,15.47,3,.72,5.92.54,8.87.73,1.26,1.11,1.36,2.71,1.77,4.18a2.91,2.91,0,0,1-.87,2.84,2.11,2.11,0,0,0-2.82.06c-.76-1.83-2.41-2-4.09-2.26-13.38-1.71-24.16-8.65-34.73-16.47-4.56-3.36.44-5.43-.18-8C48.2,142.74,48.41,142.28,49.12,142.35Z"/><path class="cls-195" d="M53,135,48,139c-1.69,1-2.37.07-2.76-1.42a4.27,4.27,0,0,1,.93-2.81c2.18-2.08,3.84-4.71,6.5-6.31a3,3,0,0,1,1.38.17,6.46,6.46,0,0,1,2.36,2.56C56.81,133.85,54.75,134.27,53,135Z"/><path class="cls-196" d="M46,137A1.9,1.9,0,0,0,48,139l-7.1,6.94c-3.29-1.37,1.33-2.64,0-4a7.24,7.24,0,0,1,3-3.05C44.6,138.22,44.2,136.47,46,137Z"/><path class="cls-197" d="M53,135c.52-1.69,3-1.92,3-4a4.76,4.76,0,0,1,2.47-3.21,2.55,2.55,0,0,1,1.36-.2A2.42,2.42,0,0,1,61.3,129a3.26,3.26,0,0,1-.86,2.48c-1.39,1.34-2.3,3.12-3.82,4.35L56,136l-2,.89A2.06,2.06,0,0,0,53,135Z"/><path class="cls-38" d="M85,171.94a2.61,2.61,0,0,1-.15,1c-1.65-.1-3.49.73-4.85-.93Z"/><path class="cls-198" d="M89.91,170l.06-3c-.67-5,.91-9.89.71-14.87a1.94,1.94,0,0,1,2.53-.28,4.27,4.27,0,0,1,.88,1.67,88,88,0,0,1-.14,17.4c-.2,1.66.13,4.07-3,3h0c-1-.75-1-1.86-1-3C90,170.66,89.94,170.34,89.91,170Z"/><path class="cls-199" d="M90,171c1.12.73,1,1.88,1,3l-2.15.9C88.88,173.46,88.79,172,90,171Z"/><path class="cls-200" d="M106.89,18.17l1-.44,1,.23c1.56,1.27,3.59-.05,5.2.95,10.57,3.1,19.93,8.51,28.74,15-1.08,3.36-2.5.59-3.45,0-8.6-5-17.14-10.17-27.08-12.33A25.44,25.44,0,0,0,107,21a.64.64,0,0,1-1,0c-1-1.48-2.77-.7-4.29-1.31C103.4,18.28,105.58,19.81,106.89,18.17Z"/><path class="cls-201" d="M98,30c0-.67,0-1.35,0-2,4-2.35,8-.52,12,.17,1.28.23,2.77,2.24,4-.15,3.31,0,6,2.07,9,3a7.49,7.49,0,0,1,1.5,6.48c-2.51.39-4.64-1.34-7.11-1.24C111.24,33.2,104.05,33.43,98,30Z"/><path class="cls-202" d="M125,37c-2.58-1.36-1.47-4-2-6,4.33,2.2,8.62,4.49,13,6.57,3.06,1.45,3.84,3.39,2,6.27a1.72,1.72,0,0,1-1.25,1.54,2.72,2.72,0,0,1-1.37-.25C132,42.21,127.51,40.87,125,37Z"/><path class="cls-203" d="M114,28c.38,1.12,2.18,1,2.24,2.8C110.08,30,104.27,27.22,98,28L98,25A67.21,67.21,0,0,1,114,28Z"/><path class="cls-204" d="M137,45.18l.91-1.34c2.85-1.09,3.16-4.74,5.93-5.91,1.09.6,1.49,2.23,3.09,2.06-.74,1.93-2.79,2.54-4,4-.91,1.4-2.07,2.61-3,4h0c-.58,1.34-1.22,2.58-3.05,2.14C136.26,48.44,136,46.79,137,45.18Z"/><path class="cls-205" d="M106,21l1,0,11.39,4L98,23c0-.65,0-1.31,0-2Z"/><path class="cls-178" d="M114.17,18.91c-1.77-.12-3.73.78-5.2-.95C110.75,18,112.6,17.67,114.17,18.91Z"/><path class="cls-206" d="M149.07,31.12c1,.17,2.61-1.81,2.86.85-.82.44-1.69,1.31-2.44,1.21S149,31.88,149.07,31.12Z"/><path class="cls-207" d="M152,97.1l10,0c2.53,3.9.36,7.88-.28,11.59a61.51,61.51,0,0,1-12.38,27.82c-1.27,1.62-2.42,2.61-4.44,2.49-2.29.08-3.23-1.13-3.17-3.3A58,58,0,0,0,155,109.66c.62-2.76.57-5.56,1-8.32.2-1.28-.5-1.8-1.57-2.07C153.39,98.81,151.91,98.83,152,97.1Z"/><path class="cls-208" d="M141.86,136l3,3,4.09,4.1q0,.44,0,.87c-.61,1.22-1.84,1.44-3,1.85a6.4,6.4,0,0,1-3.09-2.83c-4.17-3-8.2-6.1-10.51-10.89a4.17,4.17,0,0,1,1.28-3.18c1.59-.73,2.52.43,3.58,1.25,1.05,1,2.07,2.12,3.12,3.17A4.26,4.26,0,0,1,141.86,136Z"/><path class="cls-209" d="M162,89l-1,1a7.79,7.79,0,0,1-1,.09,4.09,4.09,0,0,1-4.42.62c-.31-.16-.74-.51-.64-.65,4.47-6.88,2-13.71-.45-20.32-2-5.26-4.35-10.38-8.22-14.7a15.55,15.55,0,0,0-5.19-3.7c-.86-1.19.1-1.72.85-2.32,1-.95,1.64-2.38,3.24-2.59,8,3.66,10.6,11.57,14.58,18.39A20.59,20.59,0,0,1,161,68c.66,1.4,1,2.78-.3,4.06-1.52-.41-2-1.53-2.36-3a.43.43,0,0,0-.1.54c2.64,4.17,3.86,8.81,4.67,13.6C163.22,85.27,163.28,87.22,162,89Z"/><path class="cls-210" d="M155,89.92l5,.13c-.08,1.07.3,2.33-1.12,2.87-2.64-.55-5.27-1.39-7.89,0l-17,0a1.16,1.16,0,0,1-1.46.09c-1-1.25-5.47-.28-2.51-4,4.68-1,9.42-.27,14.14-.52C147.75,89,151.61,87.56,155,89.92Z"/><path class="cls-211" d="M151,93c2.61-3,5.25-1.14,7.89,0Z"/><path class="cls-212" d="M133,93A3.64,3.64,0,0,1,134,93c0,.32,0,.63,0,.95-2.05-.18-4.26.63-6.1-.93C129.58,91.46,131.31,92.08,133,93Z"/><path class="cls-212" d="M103,79l-6-4c2.58-1.32-1.3-2.6,0-3.91a2.65,2.65,0,0,1,1.16-.82c2.79-.25,5,1.13,7.16,2.6,2.42,2,5.63-2,7.92,1,.59,2.3-2,3.06-2.39,4.54,3.64-3.07,5.7-8.22,11.11-9.65a2.18,2.18,0,0,1,.67,1.23,5,5,0,0,1-1.25,3.28,27.71,27.71,0,0,1-3,2.52C115,78.32,113.8,81.3,116,85.15a28.23,28.23,0,0,1,.62,4.74c-.36,1.19,0,1.85,1.34,1.9s3-.14,4.12,1.24c-2.17,1.63-4.69.54-7,.88-1,.15-2.59-.39-2.58,1.32,0,1.42,1.39,1.56,2.51,1.74.07.78.13,1.55.2,2.32,2.09,2.74-1.11,5.16-.43,7.8a7.08,7.08,0,0,0,1.79,2.44,6.77,6.77,0,0,1,1.81,2.55,1.67,1.67,0,0,1-.4,1.17c-1.42.61-2.92.2-4.39.34-3.54-.87-5.75-3.43-7.82-6.16a3,3,0,0,1-.22-1.35,7.6,7.6,0,0,1,1.63-3c1.07-1.7,2.19-3.38,2-5.52.24-2.21-.28-4.41-.15-6.62,1-3.71-1.43-6.09-3.39-8.64A25.44,25.44,0,0,0,103,79Z"/><path class="cls-213" d="M139.94,134a7.3,7.3,0,0,1-3.06-3c5.16-7.78,9.8-15.79,12.15-25,1.37-5.35,1.31-5.84-3.63-7.66a1.44,1.44,0,0,1-.44-1.28l7,0c.77,1.06,1.92.85,3,.9.57.71,2.21.31,2,1.71-1.48,11.37-5,22-11.62,31.46C144.21,132.85,143,135.48,139.94,134Z"/><path class="cls-214" d="M116.8,97.75c4.34-1.56,8.8-.37,13.19-.6,1.67.8,3.53-.06,5.21.64a2.43,2.43,0,0,1,1.23,1.48c1.17,5.58-4.92,18.39-10.1,21.28-2.6-.32-4.33-1.53-4.46-4.37a30.37,30.37,0,0,0,6.39-14.38c-1.26,5-2.95,9.9-6.16,14.06-1.85,1-2.54-.5-3.4-1.63.23-3.78,3.26-6.43,4-10,.33-1.5,2.19-3.25-.38-4.54a10.26,10.26,0,0,1-1.24,0,12.69,12.69,0,0,1-3.57-1A1.56,1.56,0,0,1,116.8,97.75Z"/><path class="cls-215" d="M135,98c-1.67-.23-3.51.57-5-.83l15,0c0,.28,0,.57,0,.85l-.58.57c-1.5.81-3.16.7-4.78.77A7.44,7.44,0,0,1,135,98Z"/><path class="cls-216" d="M113.88,108.25c-2.65-3.43,2.25-5.77,1.3-9l1.62-1.54.23.33C118.23,102.17,116.74,105.42,113.88,108.25Z"/><path class="cls-126" d="M122.07,93h-8.49c0-2.47,2.2-1.89,2.48-3.25,4.34-1.67,8.64-2.11,12.87.36,1.22,1.15,3.42.86,4.11,2.81l-5.15.08Z"/><path class="cls-217" d="M146,145.85a3.07,3.07,0,0,1,3-1.85l1,1c0,.32,0,.63,0,.94.64,1.21.64,2.08-1.07,2.06Z"/><path class="cls-218" d="M148.92,148A2.18,2.18,0,0,0,150,146c1.91.05,4-.34,5,2-1.43.15-2.28.63-1.2,2.17,2.55,3.64-.75,1.56-1.72,1.77Q150.49,150,148.92,148Z"/><path class="cls-219" d="M109,163c-3.68,0-7.4-.31-11,1-2.22-2.57-2.4-5.69-2.41-8.85q0-17.15,0-34.27a8.75,8.75,0,0,1,.83-4.45,1.39,1.39,0,0,1,1.51-.62c1.44,1.3,1.3,3.07,1.37,4.77,0,.82,0,1.64,0,2.46.06,1.07,0,2.15,0,3.22.05,1.62,0,3.23,0,4.85s0,3.28,0,4.92,0,3.32,0,5c.06,1.94,0,3.87,0,5.8,0,1.33,0,2.67,0,4a47.51,47.51,0,0,0,.12,5.2c.3,1.92,1.75,1.76,3,1.52a75.12,75.12,0,0,0,29.11-11.92c1.64-1.11,2.62-2.51,1.73-4.59a2.63,2.63,0,0,1,.5-2.1c2.91-.34,3.89,1.92,5.14,3.82,2.08,3.55.89,5.94-2.34,8.22a88.83,88.83,0,0,1-22.81,11.48A15.25,15.25,0,0,1,109,163Z"/><path class="cls-220" d="M109,163c9.23-3.48,18.5-6.79,26.63-12.67,2.94-2.12,4.66-3.9,2.4-7.36,1.93-.57,2.17,1.13,2.91,2.16l1.86,2.94c-5,2.49-8.75,6.77-13.71,9.42s-10,4.2-15,6.26C112.52,164.34,110.45,164.6,109,163Z"/><path class="cls-221" d="M96.86,119.89c.08,9.59.22,19.19.21,28.78A81.45,81.45,0,0,0,98,164c.15,1.66-2,3.29,0,5-1,1.68.06,3.31.12,5,0,.36-.11.72-.16,1.08L96,171.91c0-.64,0-1.27-.07-1.91-2.56-4.13-.87-8.72-1.39-13.07,0-10.08,0-20.16,0-30.24,0-2-.21-4,.7-5.85A1.86,1.86,0,0,1,96.86,119.89Z"/><path class="cls-220" d="M106.71,164.82c-2.33.08-3.62.53-4.89-.41A5,5,0,0,1,106.71,164.82Z"/><path class="cls-222" d="M140.91,145.09,138,142.93a10.61,10.61,0,0,0-4-4c-1.68-.29-2.61-1.65-3.79-2.65q-3.33-3.34-6.7-6.66c-1.69-1.78-3.43-3.51-5.21-5.21-3.38-3.64-7.25-6.82-10.3-10.78-1.27-1.85-3.68-3-3.53-5.72.25-.73.62-1.27,1.52-1,2.91,1.67,4.64,4.92,8,6a9.6,9.6,0,0,1,4.44,3c2.71,3.36,5.72,6.37,10.07,7.58,1.72,2.69,2.91,5.66,4.45,8.45,2.79,4.15,7.36,6.69,10,11C141.49,143,141,143.88,140.91,145.09Z"/><path class="cls-223" d="M95,170l0,5H94c-1.09-7.2-.2-14.46-.49-21.68-1.65-6.24-.59-12.62-1-18.92-.61-4.43.3-8.85.08-13.28a2.09,2.09,0,0,1,2.06-1.37,1.47,1.47,0,0,1,.79,1.5q0,17.82,0,35.65C95.21,161.24,96,165.66,95,170Z"/><path class="cls-199" d="M93.94,153q0,11,0,22c-.41,1.34.75,4-1.73,3.6-2.18-.36-.93-3-1.26-4.61,2.43-.34,2-2.24,2-3.8.05-5.73,0-11.46,0-17.2C93.33,152.52,93.64,152.53,93.94,153Z"/><path class="cls-144" d="M95,170V156.93c.32-.4.63-.42.93,0q0,6.53,0,13.05h-.47Z"/><path class="cls-152" d="M122.21,69.16c-4.26,2.67-7.44,6.44-10.55,10.31-.73.9-1.35,2.89-3,1.48s.22-2.3,1-3.25c1.06-1.26,2.17-2.48,3.25-3.72,2.76-5.15,7.77-8.25,11.42-12.58,4.34-3.65,7.45-8.64,12.56-11.45l3-2a2.13,2.13,0,0,0,2,1l-.86,2c-1.33,3.21-4.38,4.92-6.48,7.47-1.75,1.66-3.45,3.38-5.12,5.12C127,65.42,125.73,68.75,122.21,69.16Z"/><path class="cls-152" d="M139.94,48c.14-2,1.44-3.09,3-4C142.91,46,141.58,47.12,139.94,48Z"/><path class="cls-224" d="M63,58c6.43-7.55,15-10.65,24.52-11.56,1.35-.12,1.44,1.11,1.45,2.11,0,2.49,0,5,0,7.45-2.54,1.94-5.6,2.68-8.52,3.77-4.71,1.75-5.4,2.62-7.38,8.67-4-1.75-7.65-3.87-9.15-8.36C63.62,59.38,63.31,58.68,63,58Z"/><path class="cls-225" d="M53,48c-.57-3,2-3.92,3.76-5.23A63.34,63.34,0,0,1,85.83,31.07c1.26-.18,3.13-.41,3.33,1.25.22,1.88-1.7,1.45-2.92,1.69-3.4.67-6.79,1.37-10.16,2.14-.7.16-1.84.5-1,1.57.28.36,1.24.2,1.89.27-6.75,3.1-14,5.22-19.49,10.69C56.77,49.4,56,50,56,51A6.46,6.46,0,0,1,53,48Z"/><path class="cls-226" d="M44,39c4.79-1.92,8.23-5.9,12.76-8.28C67.2,25.25,77.83,20.57,90,21c-1.63,2.58-4.34,2.72-7,3-13.62,1.43-25,7.84-35.43,16.16-.42.33-.41,1.21-.61,1.83A6.32,6.32,0,0,1,44,39Z"/><path class="cls-76" d="M63.93,60.07,73,68c2.78,1.66,5.79,3.11,6,7,0,.67,0,1.35,0,2-1.32.61-2.07-.47-3-1L63,63C63.51,62.12,61.2,60.27,63.93,60.07Z"/><path class="cls-227" d="M61,66a112.93,112.93,0,0,1,13,13c1.53,2.56-1,4.64-.82,7a5.63,5.63,0,0,1-.79,2.1,10.77,10.77,0,0,1-4.53,2.59,5.79,5.79,0,0,1-2.27,0c-4.72.13-9.24-1.8-14-1.35-1.75.17-2.27-.94-2.49-2.39C48.43,82.33,56.57,68,61,66Z"/><path class="cls-228" d="M61,66C56,71.33,53.12,78,50.59,84.74c-.42,1.1-1,2.35-.2,3.28,1.27,1.41,1.85-.26,2.66-.91a2.6,2.6,0,0,1,1.21-.48c3,4.48,8.26.71,11.72,3.34-2.53,2.26-5.62,1.28-8.48,1.36a90.64,90.64,0,0,1-11.3-.13,4.82,4.82,0,0,1-1.56-.58c-1.28-1-1.19-2.36-.84-3.62A94,94,0,0,1,50,69.85c.23-.47.6-.85.39-.93C49,72.26,46.92,75.45,46,79.15a52.36,52.36,0,0,1-2.5,7.5c-.4,1-.84,2.54-2.26,2.1s-1.45-2.12-1.35-3.41a38,38,0,0,1,6.74-18.46c2-2.94,2.78-7.29,7.36-7.92A31,31,0,0,1,61,66Z"/><path class="cls-229" d="M54,59C46.69,67.28,41.56,76.56,40.84,89c2.68-4.38,3.14-8.44,4.81-11.88S48,69.52,53,66.31c-5.13,8.11-6.4,16.11-9,23.67l-.62.6c-3.61,1.36-7.34.62-11,.62A3.35,3.35,0,0,1,30.08,90L29,89.88c-.1-.94.49-1.39,1.21-1.75,2.81-.57,4.07-2.32,4.53-5.14A54.83,54.83,0,0,1,45.19,59.12c1.4-1.88,2.6-4.53,5.85-3.16A6.81,6.81,0,0,1,54,59Z"/><path class="cls-230" d="M76,76l3,1,3.87-1.85c1.06,1.38-1.44,1.93-.29,3.24L85,77c.1,3.53-4.29,2.36-5.13,4.9a3.34,3.34,0,0,1-.28,1.95C77,89.13,77,89.13,80,94.58c2.48-1,3.17-4.41,6.21-4.56L87,90c1.43,2.49-.53,4.09-1.66,5.78-1.76,2.65-2.15,4.48,1.82,4.92,1.14.13,2.35.28,3,1.46-.64,2.41-2.58,2.64-4.59,2.77-2.35-.23-4-1.77-5.9-3-2.37-1.54-1.63.71-1.86,1.73-.53,1.81-.17,4.26-3.11,4.32-1.49-3.19-4.71-5.9-2.77-10,.73-1.32,3.33-.93,3-3.3-.3-1.85-1.73-1.59-3-1.73-.74-.54-1.64-1-1-2.19-.26-1.17,3.22.86,1.49-1.8-.52-.81.09-2.19,0-3.32C73,83.6,73,81.21,76,80.94,82.72,79.37,75.08,77.6,76,76Z"/><path class="cls-162" d="M30,89l-1,.9L25,90A2.75,2.75,0,0,1,24.92,86c1.82-1.11,1.77-3.15,2.13-4.83C29.23,71.15,34,62.3,39.62,53.86c.87-1.3,2.49-2.4,1.71-4.38A2.44,2.44,0,0,1,42,47l0,0c3.22.76,4.26,3.72,6,6l-.48.49c-7.76,7.15-11.75,16.43-14.82,26.23C31.74,82.75,32.13,86.24,30,89Z"/><path class="cls-231" d="M30,89a22.16,22.16,0,0,1,2-10c.68.63.78,1.34.31,2.7A66.15,66.15,0,0,1,44.4,56.31C45.4,55,46.2,53.48,48,53L48,53a7,7,0,0,1,3,3c-5.42,1.37-6.55,6.7-9,10.49a39.82,39.82,0,0,0-6.1,17.91C35.56,87.9,33.74,89.71,30,89Z"/><path class="cls-228" d="M76,80.94c-1.94,1.11-2.65,3-3,5-.32.45-.65.48-1,0-.39-2.66,1.88-4.56,2-7.06Z"/><path class="cls-232" d="M26,86c-1.46,1-.86,2.61-1,4H22A75.44,75.44,0,0,1,40.15,47.59c.35-.42,1.21-.41,1.84-.59,0,1,0,2,0,3-1.44,4.17-4.85,7.07-7,10.85C30.59,68.75,28,77.23,26,86Z"/><path class="cls-233" d="M30.08,90h1.81c1.52,1.47,5.37-1.06,5.19,2-.18,2.81-3.54,1-5.45,1.37-1.6.3-3.3-.15-4.93.32l-1.45-.27a1.32,1.32,0,0,0-.16-.52c-.76-1.18.38-1.41,1-1.92C27.45,90.93,28.94,91.18,30.08,90Z"/><path class="cls-234" d="M26.06,91c-.33.64-.65,1.28-1,1.92-1.51-.23-3.26.71-4.76-1.14C22.22,90.46,24.22,91.2,26.06,91Z"/><path class="cls-235" d="M105,74A14.34,14.34,0,0,0,97.9,71c-1.06-2.29.26-4.85-.81-7.13a2.29,2.29,0,0,0,0-.94c1.08-1.87.54-4,.89-6,1.66-2.59,3.7-1.67,5.49-.37,2.54,1.85,5,3.51,8.28,4,2.73.43,4.19,2.43,4.06,5.34C113.34,70.21,110.83,74.34,105,74Z"/><path class="cls-236" d="M98,45c0-1.66,0-3.33,0-5,2.31-1.89,4.56-.57,6.82.12,2,1.38,4.38,1.46,6.53,2.3,1.66.64,4.87,1,1.69,4-.33.31.77.39,1.2.55,4.76,1.72,9.24,3.79,11.36,8.89-.5,2.58-1.79,4.31-4.67,4.3-2.23-3.28-5.87-4.61-9-6.68C107.34,50.48,102.72,47.62,98,45Z"/><path class="cls-237" d="M125,37c3.85,2.42,8.18,4.17,11,8-.91,2.52-1.59,5.27-5.19,5-5.65-7.47-13.76-10.33-22.54-11.93-3.34-1.22-7.48.2-10.21-3.07,0-.34,0-.69,0-1,5.19-2.93,10.29-.87,15.36.41,1.54.39,2.87,1.78,4.6.6C120.61,34.58,122.49,36.87,125,37Z"/><path class="cls-238" d="M109,37c8.37.63,14.9,5.48,21.76,9.55,1.54.91,0,2.45.33,3.65A4,4,0,0,1,128,54.49a2,2,0,0,1-1.26-.58c-3.54-6.69-9.94-9.27-16.6-11.33C108.4,42.05,106.54,42,105,41l-7-1c0-.67,0-1.33,0-2,4.71-2.36,8.93.31,13,1.1.94.47.81-.54.59.09,0,0-.14,0-.41-.14C110.08,38.7,108.65,38.76,109,37Z"/><path class="cls-239" d="M115.06,66.19c-.36-1.81-.67-4.11-2.84-4.14-4.29-.08-7.12-2.59-10.14-5A3.28,3.28,0,0,0,97.94,57c0-2.34,0-4.68,0-7,7.75-.92,18.71,4.91,21.82,11.6C119.25,64.19,118,66,115.06,66.19Z"/><path class="cls-240" d="M119.09,62.26a27,27,0,0,0-16.85-11.17A14.44,14.44,0,0,1,98,50V45c8.32.88,13.36,8,20.66,10.82,2,.79,2.48,2.48,2.46,4.42C121.14,61.62,120.45,62.26,119.09,62.26Z"/><path class="cls-241" d="M118,35c-1,1.29-2.31,1.15-3.55.66C109.09,33.58,103.53,34,98,34l0-4C105,30.55,111.44,32.88,118,35Z"/><path class="cls-242" d="M109,37c.91,1.49,3.18.78,4.27,3L98,38c0-1,.06-2,.08-3Z"/><path class="cls-178" d="M97.09,63.9c1.27,2.26.33,4.78.81,7.13a5.16,5.16,0,0,1-1,.06Z"/><path class="cls-243" d="M79,75l-6-7c-1.68-4.64-1.74-4.74,3.26-7.53A32.22,32.22,0,0,1,89,56v6.36c0,4.2,1.27,9.05-5.18,9.94-.35,0-.56,1.07-.83,1.64Z"/><path class="cls-244" d="M89.94,102c-.49,0-1-.05-1.47,0-2.49,0-5.49-.13-6.62-2.17-.92-1.67,1.94-3.23,2.91-5,.86-1.56,2-3,2.28-4.78,3.73-5.45,11.07-6,13.91-1,1.24.61,1.92,1.82,2.89,2.73.77.93,1.69,1.79,1.34,3.19-.74,1.39-1.81,2.57-2,4.29a4.06,4.06,0,0,1-4,4C96.06,103.25,92.78,104.26,89.94,102Z"/><path class="cls-245" d="M86.2,90c-.53.63-1,1.57-1.62,1.83-2.49.94-2.18,6.16-6,4.41-2.37-1.09-2.32-9.54-.44-12,.6-.78,1.17-1.59,1.75-2.39L81,82c.79,1.42.08,2.71-.33,4-2.44,5.57,2,3.06,4,3.34a2.28,2.28,0,0,1,1.22.58Z"/><path class="cls-246" d="M102.94,92a3.22,3.22,0,0,1-2-3c.14-1.35,1-2.69,0-4.06a1.8,1.8,0,0,1,2-.44A2.89,2.89,0,0,1,104.33,86c.39.37-.27,1.35.76,1.33a3.25,3.25,0,0,0,.1-.94,9.5,9.5,0,0,0-.61-3.43,1.79,1.79,0,0,1,.37-1.16.86.86,0,0,1,1.1.2c2.86,2.31,6,4.5,3.9,9a9.41,9.41,0,0,1-1.16,1A5.19,5.19,0,0,1,102.94,92Z"/><path class="cls-247" d="M104.92,82c0,.31.06.62.08.93-.38,1-2.88-.12-2.06,2.06L101,85a10,10,0,0,0-2-1.44c-2.56-1-4.14-3-2.7-5.38,1.31-2.14,3.05.62,4.68.82C102.24,80.08,104.2,80.27,104.92,82Z"/><path class="cls-248" d="M85.83,89.94c-.28,0-.56,0-.84,0-1.12-2.08-3.47-2.62-5.1-4.07L81,82C85.1,82.16,86.66,84.72,85.83,89.94Z"/><path class="cls-249" d="M104.92,82c-2-.17-3.08-1.45-3.92-3.07l2,0c2.19-.23,3.19.78,3.08,3Z"/><path class="cls-250" d="M162,89c.2-7.35-2.41-14.07-4.51-21.12l2.95,3.29c1.05-1,.34-2.13.56-3.15,2.56,2.84,1.44,7.15,4,10A32.78,32.78,0,0,0,166,83.63C167.57,87.76,165.85,89.12,162,89Z"/><path class="cls-251" d="M46,137l-2,1.95c-5.62-8-11.26-16-13.27-25.73C29.6,107.9,29.53,102.4,29,97h6c2.29,4.36.66,9.25,2.1,13.9,2,6.53,3.94,12.9,8.19,18.38,1.23,1.6,3.11,3.22,1.71,5.7C46.66,135.64,46.32,136.3,46,137Z"/><path class="cls-252" d="M47,135c-.59-4.36-4.67-6.52-6.38-10.33-4-8.87-7-17.77-5.62-27.65l10,0c1.32,2.62,1.21,5.47,1.29,8.28a24,24,0,0,0,3.43,11.82c1.25,2.09,2.46,3.86,5.23,4,2,.06,3.08,1.15,2.63,3.3-1,2-3,3-4.59,4.51C51.11,131,49.59,133.54,47,135Z"/><path class="cls-253" d="M57,125c-.05-1.13.09-3-1.3-2.73-6.3,1.32-6.91-4.12-8.58-7.48C44.34,109.25,44.43,103.08,45,97h9c.7.7,1.56,1.49,1.52,2.45-.23,5.8,4.73,9.53,5.78,14.8.35,1.77,1.5,1.39,2.58.65,1.44-1,2.46-2.74,4.6-2.41a1.41,1.41,0,0,1,.89,1c-1.38,4.55-5.81,6.47-8.5,9.88-1,.94-1.65,2.34-3.36,2Z"/><path class="cls-254" d="M69,113c-3.24-.24-3.54,4.45-6.88,4.1-4.53-.48-.6-4.86-3-6.36C54,107.46,55.3,101.73,54,97c6,.45,12.1-1.16,18,1-.35,3.73,3.36,6.24,3,10C73.73,110.56,72.42,113,69,113Z"/><path class="cls-255" d="M71,91,72,93c-9-.45-18,1.82-27,.2-1.21-.21-2.56.4-3.85.63-.74-.45-2.12-.09-2.15-1.42,0-1.09.85-1.59,1.86-1.8S43,90.85,44,90v0c.32,0,.65,0,1,0,7.56,1,15.16.44,22.74.4C68.87,90.41,70,90,71,91Z"/><path class="cls-171" d="M44,90c-.63.95-1.67.87-2.62,1.07-2.77.58-1.61,1.65-.29,2.71l-14.37-.05c3-1.6,6.68.34,9.85-1.44C35.5,90,33,91.66,31.89,90Z"/><path class="cls-256" d="M88.94,151c.07,7,.08,6.93-6.79,6.09-7.6-.94-14.14-4.16-20.24-8.58-1.85-1.34-4-2.31-5.94-3.5q-5.79-3.48,0-7c2.84-.1,4.42,2.16,6.36,3.58A46.29,46.29,0,0,0,88.94,151Z"/><path class="cls-257" d="M89,140c0,.32-.07.64-.11,1a2.93,2.93,0,0,1-2.22.94c-8.32-.63-16.22-2.64-23.23-7.38a5.39,5.39,0,0,1-1.6-1.88c-.68-1.68.34-2.8,1.28-4,1.73-1.7,3.63-3.29,4-5.93.86-2,2.08-3.6,4.33-4.13a2.14,2.14,0,0,1,1.68,1,2.53,2.53,0,0,1-.5,2.47,16.46,16.46,0,0,1-1.23,1.42,5.44,5.44,0,0,0-1.36,2.65c-.62,1.68-1.49,3.45,1.72,3a7.43,7.43,0,0,1,2.78.52c.47.1.92.24,1.38.38,4.62,1.92,9.85,2.44,13.69,6.1A3.61,3.61,0,0,1,89,140Z"/><path class="cls-258" d="M88.94,151c-8.42,2.66-15.52-1.36-22.29-5.15C62.9,143.7,58.92,141.4,56,138L56,136h.07c1-.68,1.85-1.73,3.28-1.37,6.83,2.89,12.56,8,20.07,9.56,1.92.39,3.68,1.39,5.76,1a3.08,3.08,0,0,1,3.73,1.7Z"/><path class="cls-259" d="M88.91,146.92c-4-.68-8.1-.5-12.08-2A73.28,73.28,0,0,1,59,135c-.58-1,0-1.71.58-2.43C60.29,132,61,131.36,62,132c8,5.93,17.23,8.16,26.93,9C88.92,143,88.92,144.93,88.91,146.92Z"/><path class="cls-260" d="M91,152c0,5,.28,10.08-1,15-1.4-1.08-.85-2.62-1-4,1.25-7.65,1-15.35.86-23.05-.38-3.31-1.45-6.54-1.29-9.92.43-4.53-.92-9.18,1-13.59,1.75-1.16,2,.43,2.52,1.41,1.21,10.16-.11,20.34.18,30.51A5.14,5.14,0,0,1,91,152Z"/><path class="cls-256" d="M89.91,130c0,3.32,0,6.65,0,10L89,140c0-1.36-.07-2.71-.11-4.06a6,6,0,0,1-.87-4.7,3.78,3.78,0,0,1,.61-1.26A1,1,0,0,1,89.91,130Z"/><path class="cls-261" d="M59,128.05A7.53,7.53,0,0,1,56,131,1.83,1.83,0,0,1,54,128.93c-.3-.89.27-1.34.89-1.77C58.85,125.33,58.85,125.33,59,128.05Z"/><path class="cls-253" d="M55.07,128l-1.12.91a7.79,7.79,0,0,1-1,0A4.27,4.27,0,0,1,57,125l.12.13C57.51,126.82,55.77,127.07,55.07,128Z"/><path class="cls-262" d="M55.07,128l2-2.94c1.49,0,1.83-1.55,2.89-2.13,1.26-.81,2.42-.94,3.38.46.28,2.58-1.1,3.87-3.43,4.42-.3.06-.59.13-.89.22C57.73,124.44,56.38,129.2,55.07,128Z"/><path class="cls-258" d="M62,132l-2,1a1,1,0,0,1,.05-1.69c.38-.74.77-1.48,1.15-2.23.29-1.68,1-2.73,3-2.1a1.66,1.66,0,0,1-.17,2Z"/><path class="cls-263" d="M64.06,127.33l-2.82,1.76-1.33-1.26L63,124a1.06,1.06,0,0,1,1.16-.29,2.38,2.38,0,0,1,1.19,1.51A2.2,2.2,0,0,1,64.06,127.33Z"/><path class="cls-256" d="M60.09,131.32c0,.57,0,1.13-.05,1.69l-1,2-2.92,1C57.16,134.24,57.72,132,60.09,131.32Z"/><path class="cls-264" d="M91,152a270.32,270.32,0,0,1,.85-28.74c.17-1.72-.49-3.52-.78-5.28,2.28,0,2.82,1.06,2,3.05,2.3,3.84-.39,8,.88,12-1,4.54-.18,9.14-.48,13.7-.11,1.77.48,3.61-.48,5.31Z"/><path class="cls-265" d="M93,152c.55-6.33-1.13-12.77,1-19q0,10,0,20L93,153C93,152.64,93,152.31,93,152Z"/><path class="cls-266" d="M128,54.16l3.07-4c2.44-1,2.71-4,4.9-5.19l1.07.17A8.51,8.51,0,0,1,137,50a81.94,81.94,0,0,1-12,12C123.49,58.39,128.08,57.18,128,54.16Z"/><path class="cls-267" d="M139.94,134c4.92-1.15,5.68-5.9,7.86-9.32,4.79-7.53,6.64-16.15,8.44-24.74.11-.54-.82-1.3-1.26-2,1.3.08,3.06-.13,2.78,1.87-1.88,13.55-4.49,26.8-15.9,36.18Z"/><path class="cls-215" d="M145,98c6.77,0,7.21.15,5.87,5.85-2.08,8.85-5.43,17.29-11,24.66a17.71,17.71,0,0,1-3,2.55L134,129c-1-.52-1.53-1.25-1.07-2.41,7.35-8.14,10-18.24,12.07-28.64Z"/><path class="cls-268" d="M132.84,127l1.13,2-1.05,3c-3.43-1.57-3.8-5.05-5-8a2,2,0,0,1,1.21-.56A4.32,4.32,0,0,1,132.84,127Z"/><path class="cls-269" d="M134,58a31.38,31.38,0,0,1,7.05-7c1.62-.41,3.08-.73,4.4.94,7.75,9.83,13.43,20.29,13.05,33.44-.09,3.28-2.73,2.8-3.55,4.52l-11,0c-.08-.23-.16-.46-.25-.69a2.4,2.4,0,0,1,1-1,14.51,14.51,0,0,1,4.25-.5c2,0,3.05-.76,3.14-2.89.42-10.48-4.07-19.12-10.07-27.2a2.56,2.56,0,0,0-3.9-.55,15.69,15.69,0,0,1-1.65,1.15,3.34,3.34,0,0,1-1.29.34A2.05,2.05,0,0,1,134,58Z"/><path class="cls-270" d="M144,89c0,.3,0,.6,0,.9l-15,.24-12.87-.36A8.9,8.9,0,0,1,114.94,85a19.43,19.43,0,0,0,12.58,2.6c3.48.12,7-.14,10.44,0C140,87.76,142.28,87.22,144,89Z"/><path class="cls-271" d="M127,89a30.27,30.27,0,0,0-4.86.07c-3.58.6-5.85-.82-7.17-4.05-2.88-5.75-1.46-8.74,5.85-12.35,5,3.67,6.88,9,7.77,14.79C128.33,88.25,127.57,88.52,127,89Z"/><path class="cls-272" d="M128,88c-1.28-5.64-4.12-10.55-7.19-15.35-.23-1.25.58-1.93,1.42-2.6a2.6,2.6,0,0,1,2.24-.68c5.61,3.68,8.1,9.45,9.73,15.52C135.16,88.55,134.14,89,128,88Z"/><path class="cls-273" d="M128,54.16c1.89,3.73-3.15,4.76-3,7.79a98,98,0,0,1-12,12c-2.66-2.06-5.32,3.12-8,0,5.29-.09,6.93-4.89,10.06-7.78a13.11,13.11,0,0,0,4-3.93l2-2a12.91,12.91,0,0,0,4-4.1c.36-.94.79-1.81,2-1.94A4.59,4.59,0,0,1,128,54.16Z"/><path class="cls-274" d="M129,124l-1.06,0c-3.42.19-5.6-1.88-7.67-4.2s-4.2-4.53-6.3-6.8c1.24-.94,2.49-.17,3.74,0,.68-.19.93.38,1.3.74l2.9,2.36,0,0a11.49,11.49,0,0,0,3.95,4,5.11,5.11,0,0,1,3.47,2.72A1.17,1.17,0,0,1,129,124Z"/><path class="cls-275" d="M106,107c-.34.33-.68.66-1,1-2.47,2.15-4.84,2.47-7-.37a1.74,1.74,0,0,1,.19-1.93A6.35,6.35,0,0,0,99.69,103a1.69,1.69,0,0,1,1.14-.49c1.85.18,2-1.06,2.31-2.46.42-2,1.23-3.83,3.83-3.67A5.32,5.32,0,0,1,110,98c1.56,2.76-1.53,3.93-2,6-3.22-1.79-1.36,1.32-2,2C106,106.32,106,106.65,106,107Z"/><path class="cls-276" d="M119,113.73l-1.3-.74a4.78,4.78,0,0,0,.2-.83c-.42-4.94,2.25-8.93,4.07-13.18,2.53-1.74,3.9-1.38,3.09,1.94A33.12,33.12,0,0,1,119,113.73Z"/><path class="cls-277" d="M113.88,108.25,117,98.08a5.74,5.74,0,0,1,4,.9c-.6,4.25-.55,8.79-5.22,11.12A2.94,2.94,0,0,1,113.88,108.25Z"/><path class="cls-216" d="M115.76,110.1c2.71-3.25,3.73-7.29,5.22-11.12h1c.2,4.87-2.55,8.84-4.07,13.18Z"/><path class="cls-278" d="M110,98c-1.1,0-2.27.21-3-.94a2.37,2.37,0,0,1-.59-2.59c1.84-.41,1-2.84,2.6-3.44l1-.07C110.07,93.27,111.19,95.61,110,98Z"/><path class="cls-279" d="M106,106a2.47,2.47,0,0,1-1-2.15c0-1.35,0-3.21,1.49-3.28,2.47-.1,1.06,2.18,1.46,3.38C107.3,104.63,106.64,105.31,106,106Z"/><path class="cls-280" d="M124,70l-1.76.06c0-.3,0-.59,0-.88L129.09,63a.66.66,0,0,1,1.1,0c.23,1.62-.91,2.55-1.8,3.62A11.29,11.29,0,0,1,124,70Z"/><path class="cls-281" d="M128.91,123a7.42,7.42,0,0,1-3.09-2.94c6.6-5.89,9.52-13.31,9.16-22.09h5c2.29,1.2,1.93,3.17,1.57,5.19a49.6,49.6,0,0,1-7.13,17.36C133.21,122.48,131.87,124.72,128.91,123Z"/><path class="cls-277" d="M121.9,116.09c1.11-5.65,5.15-10.37,5.16-16.38,0-.73.45-1.34,1.21-1.24s1.32.86,1.58,1.7c1.05,3.44-4.35,14.21-8,15.89Z"/><path class="cls-282" d="M128.91,123a3.71,3.71,0,0,0,3.64-1.93,54.78,54.78,0,0,0,8.24-20.33c.17-.83-.52-1.83-.82-2.76h5c.29.94,1,2,.82,2.8-1.9,8.78-4.69,17.21-10,24.61a3.68,3.68,0,0,1-2.92,1.63L129,124A4.45,4.45,0,0,1,128.91,123Z"/><path class="cls-283" d="M124,128.9a33,33,0,0,1,7,7.09c1.24,1.87.08,3.34-1.19,4.27-7.47,5.48-15.18,10.62-24.65,11.92-2.38.33-5,.65-7.07-1.24,0-1.34,0-2.67,0-4,2.58-2.74,6.24-3,9.53-3.72,5.5-1.2,10.07-4.08,14.78-6.81,2.13-1.23,2.75-2.74,1.26-4.86a3.74,3.74,0,0,1-.31-1.39A2.2,2.2,0,0,1,124,128.9Z"/><path class="cls-284" d="M98.06,150.94c12,1.56,21-5.2,30.3-11a4.78,4.78,0,0,0,2.61-4,6.4,6.4,0,0,1,3,3v2c-3.44,6.78-10.21,9.18-16.46,11.93a84.21,84.21,0,0,1-17,5.08A2,2,0,0,1,98,157Q98.05,153.95,98.06,150.94Z"/><path class="cls-280" d="M124,131c4.12,2.34,2.9,4-.36,6.25-7.75,5.34-16.59,7.58-25.51,9.7q0-3,0-6c1.16-1.14,2.69-1.1,4.15-1.38a41.56,41.56,0,0,0,16-6.27C119.94,132.14,121.5,130.34,124,131Z"/><path class="cls-285" d="M108.89,113.11,119,124c.64,1.12,1.74,2,1.52,3.52-4.5,6.12-16.85,10.76-22.43,8.44,0-1.66,0-3.33,0-5,4.25-2.74,9.65-2.47,13.87-5.4,2-1.38,3.14-2.55.86-4.56a10.45,10.45,0,0,0-3.06-2.25,3.4,3.4,0,0,1-1.3-1.41c-1.07-2.71-3.89-1.07-5.59-2.24a1.9,1.9,0,0,1-.11-1.37C104.57,111.36,106.61,111,108.89,113.11Z"/><path class="cls-286" d="M98.06,136A32.92,32.92,0,0,0,120,127c2.39-.41,2.79,1.79,3.93,3q0,.49.06,1c-7.77,5.57-15.82,10.41-25.91,10Z"/><path class="cls-287" d="M98,157c7.46-.73,14.28-3.55,21.21-6.16,5.75-2.17,10.09-6.17,14.76-9.82,3,1.54,1.65,3.25-.08,4.49a75.5,75.5,0,0,1-32.6,13.46C99.85,159.16,98.19,159.15,98,157Z"/><path class="cls-288" d="M113,120c4.5,3.62,4.55,3.7-.28,6.56A32.32,32.32,0,0,1,98.07,131c0-1.67,0-3.34,0-5A90.49,90.49,0,0,1,113,120Z"/><path class="cls-289" d="M102.77,114.88c5-1,5-1,6.22,2.11-2.87,4.76-6,5.9-10.93,4l.06-4.83C99.36,114.58,101,114.41,102.77,114.88Z"/><path class="cls-289" d="M113,120c-4.3,3.64-9.39,5.33-14.9,6v-3c3.76-2.16,8.38-2.28,11.91-5A3,3,0,0,1,113,120Z"/><path class="cls-290" d="M93.05,121a3.37,3.37,0,0,0-2-3.05c-.14-.78-.27-1.57-1.19-1.84-.14-.16-.28-.32-.43-.47-.23-.37-.43-.75-.64-1.14-2.46-3.66-2.26-4.14,1.82-4.5,4.63-.4,6.33.75,7.19,4.88a10.58,10.58,0,0,1-.63,1.26c-.11,1.24-.21,2.49-.32,3.74-.22,0-.44.08-.66.1l-.57-.37a6.28,6.28,0,0,1-.88-3.33c-.55,1.27.44,2.69-.73,3.64Z"/><path class="cls-288" d="M110,118c-3,4-7.88,3.48-11.91,5,0-.68,0-1.35,0-2,4.3.47,7.79-1.26,10.93-4Z"/><path class="cls-221" d="M97.18,116.15l0-1.08c1.75-1.68,3.6-2.83,6-1a7.92,7.92,0,0,1-.34.85l-4.65,1.26-.47,0Z"/><path class="cls-291" d="M95.93,157h-.47l-.46,0q0-18.48,0-36.94a.5.5,0,0,1,.85,0h.38Q96.07,138.47,95.93,157Z"/><path class="cls-292" d="M103.11,114l-6,1c-1-6.48-5.93-3.11-9.3-3.76-.62,2.06,4,1,2.05,3.74-1.93,1.49-3.85.27-5.78,0-1.66-.55-3.27-1.18-4.21-2.81-.55-.56.69-3.21-2-1.4-2.45,1.67-4.11,4.75-7.64,4.67A1.93,1.93,0,0,1,69,114c0-.34,0-.67,0-1l6-5c1.43-1.36,1.59-3.25,2-5,2-.61,3.49.75,4.68,1.9a8.72,8.72,0,0,0,7.51,2.42c3,1.19,5.78-2.51,8.79-.32,2,2.44,4.58,1.22,7,1,.41,2.4,3.2,3,3.92,5.13C106.71,111.82,104.93,113.07,103.11,114Z"/><path class="cls-280" d="M123.91,130,120,127c-.33-1-.67-2-1-3a15.83,15.83,0,0,1,5,4.9Z"/><path class="cls-293" d="M95.81,120H95l-.94-.07c-.24-2.18-2.06-4.34-.18-6.54a1.4,1.4,0,0,1,1.33,0C96.86,115.41,95.72,117.76,95.81,120Z"/><path class="cls-294" d="M130,63.09q-.45,0-.9-.06A16.54,16.54,0,0,1,134,58l1,.07c.23,2.79-2,3.81-3.74,5.19A1.43,1.43,0,0,1,130,63.09Z"/><path class="cls-171" d="M71,91c-7.1,0-14.19,0-21.29-.07-1.6,0-3.35.5-4.69-.93l21,0h2c1.27-.76,3-.6,4-2,0-.67,0-1.33,0-2l1,0c0,.8-.25,1.8.13,2.37C75.28,91.66,72.59,90.88,71,91Z"/><path class="cls-228" d="M72,88c-.3,2.7-2.4,1.81-4,2A5.54,5.54,0,0,1,72,88Z"/><path class="cls-295" d="M98,107c-3.12-.81-5.62,3.88-9,1-1.19-1.45-4.5-.71-4-3.89A6.13,6.13,0,0,0,89.94,102l10,0c.34.15.48.33.42.55s-.14.36-.24.36l-.17.07c-.77.84-.21,2.09-.93,2.94Z"/><path class="cls-296" d="M85,104.07c.49,2.16,3.62,1.61,4,3.89-3.08,1.43-5.47.65-7.66-1.94C80.24,104.71,78.47,104,77,103c-.55-1.2-1.4-2.48.25-3.45,1.37-.79,2.17.38,2.9,1.2A16.45,16.45,0,0,0,85,104.07Z"/><path class="cls-297" d="M26,86c.8-14,6.48-25.85,16-36,.77-.12,2.68-.84,1.37.86A103.13,103.13,0,0,0,31,72.31c-2,4.45-2.07,9.36-4.15,13.71a.53.53,0,0,1-.42.2C26.27,86.21,26.13,86.07,26,86Z"/><path class="cls-298" d="M48,53A93,93,0,0,0,32.2,82.94L32,79c2.12-10,7.37-18.31,13.72-26.06C46.38,52.11,47.22,52.73,48,53Z"/><path class="cls-299" d="M127,54.18l-2,1.94a22,22,0,0,0-10.85-8c-.81-.31-4.64.38-1.17-2.56,1.61-1.36-.88-1.34-1.6-1.85-2-1.39-5.2.31-6.46-2.71,7.94.9,15.18,3.3,21.19,9C127.77,51.47,127.72,52.57,127,54.18Z"/><path class="cls-300" d="M101,95c-.6,1.79-.29,4.51-2.65,4.8a31.85,31.85,0,0,1-10.84-.19c-.27-.07-.68-.41-.69-.64-.16-2.82,1.38-5.48,2.71-7.35,1.86-2.62,5.82-2.16,8.78-1.16,1.54.51,4.25,1.61,2.69,4.54-3.19-1.36-4.6,2-7.33,2.51C97.09,98.89,98.15,94.57,101,95Z"/><path class="cls-301" d="M100.09,103a7,7,0,0,1-.18-.91c1.35-.18,2.25-.93,2-2.31-.47-2.76,1.18-4.27,3-5.73a1.41,1.41,0,0,1,2,0c0,1,0,2,0,3-2.17.16-2.9,1.91-2.85,3.49C104.23,104.09,102.39,103.73,100.09,103Z"/><path class="cls-302" d="M107,94l-2,0-2-2,6-1C108,91.82,109.26,94.1,107,94Z"/><path class="cls-303" d="M79.89,85.85c2.74.06,5.88-.39,5.1,4.07-2.15,1.27-4.47,2-6.36-.1C77.12,88.18,78.2,86.78,79.89,85.85Z"/><path class="cls-304" d="M106,86c.54,1.16,1.45,2.35-.09,3.44a1.69,1.69,0,0,1-2.24.13c-1.33-1.25,0-2.37.34-3.53A1.36,1.36,0,0,1,106,86Z"/><path class="cls-305" d="M106,86l-2,0-1-1c-1-2.38.72-2,2.06-2.06C106.59,83.57,106.8,84.6,106,86Z"/><path class="cls-306" d="M69,114l1,1c1.08,5.07-2.76,6.79-6.07,8.87q-.47.06-.93.09c-.72-1.21-1.94-1-3-1C62.44,119.43,66,117,69,114Z"/><path class="cls-307" d="M80,112,84,114c1.66,1.3,4.43.52,5.51,2.92-.2,4.36.47,8.75-.4,13.09L89,130c-4.1,2.54-7.37-.16-10.61-1.37,2.91,5.4-2.45,1.32-3.38,2.38H74c-1.52-2.12-5.23-2.42-5-6a3.49,3.49,0,0,1,2-2c1.1.43,1.41.08,1-1,.28-.8.55-1.61.83-2.41.92-3.58,3.92-5.35,6.52-7.47Z"/><path class="cls-308" d="M63.93,123.9c1.84-3.08,5.68-4.81,6.07-8.88,3.29-.63,4.79-3.86,7.6-5.2,1.22-.58,1.87-3.09,3.45-1.92,2.13,1.59-.85,2.65-1,4.09h0c-3.12,1.9-5.08,5.1-8,7.18-1.46,1.27-3.21,2.29-3.83,4.31-1,.48-1.46,1.86-2.85,1.61Z"/><path class="cls-309" d="M75,131c-.13-2,4.53,1.65,3-2.52-.24-.64,1.93-.37,2.93,0,2.63.93,5.25,1.85,8.1,1.52q0,3,0,6Z"/><path class="cls-309" d="M69,125c.3,3.13,4.71,2.84,5,6-.45-.2-.94-.66-1.32-.58C66.92,131.63,68,128.31,69,125Z"/><path class="cls-292" d="M72,119.18c2.28-2.83,4.25-6,8-7.18l-7.18,7.57Z"/><path class="cls-259" d="M65.28,125.1c1.16-.17,1.45-1.87,2.85-1.61C68,126.24,66,127.61,64,129c0-.55,0-1.11,0-1.66Z"/><path class="cls-309" d="M72,122c1.27.75,2.59,1.46,2.65,3.54-2.06.25-2.82-1.19-3.64-2.54Z"/><path class="cls-258" d="M89.06,130q-.07-6.9-.16-13.81c.25-.65.56-.69.95-.11l0,0q0,6.91,0,13.85Z"/><path class="cls-294" d="M137,57c1.33-2.12,2.88-4.25,5.19-1.23,6.62,8.67,11.68,17.81,11.16,29.41-.17,4-1.74,3.88-4.36,3.81a4.37,4.37,0,0,1-1.19-3.16c0-9.83-3.71-18.22-9.85-25.69C137.19,59.22,136.51,58.27,137,57Z"/><path class="cls-280" d="M131,63l4-4.89a6.23,6.23,0,0,1,1-.09c6.12,5.49,8.27,12.89,9.76,20.55.37,1.93.23,4,1,5.84,1.3,3-.11,4.12-2.78,4.61h0l-6,0c-.24-.86.27-1.32.91-1.72,2.9-.89,2.51-3,1.91-5.18C138.82,75,134.91,69,131,63Z"/><path class="cls-270" d="M144,89c.26-1.25,2.6-.51,2.26-2.16-2-10.1-4-20.25-10.27-28.84l1-1c6.65,6,9.2,14.28,12,22.27,1,2.87,0,6.45,0,9.71Z"/><path class="cls-310" d="M139,88l-1,1H127l1-1c6.16,0,7-1.36,3.76-6.74C129.4,77.33,128.09,72.67,124,70a10.36,10.36,0,0,1,4-4c4,1.42,5.45,5.22,7.12,8.5C137.24,78.68,139.68,82.92,139,88Z"/><path class="cls-311" d="M99,106c-.53-1.24-1.69-2.69.93-2.94C100.65,104.33,101.62,105.72,99,106Z"/><path class="cls-312" d="M139,88c-2.5-7.91-5.32-15.66-11-22l2-2.91a7.79,7.79,0,0,1,1-.12c.79.17,2.11.1,2.3.54,3.21,7.19,8.63,13.39,9.58,21.59C143.22,88.44,140.92,87.9,139,88Z"/><path class="cls-260" d="M89.85,116.09a6.15,6.15,0,0,0-.95.11c-1.74-.54-3.64-.7-5-2.2l6,1C89.88,115.4,89.87,115.74,89.85,116.09Z"/><path class="cls-313" d="M101,95c-2.33,4.25-5.9,4.77-10.85,3.42,2.81-1.8,5.34-2.89,7.36-4.79,1.49-1.4,2.69,0,3.49,1.37Z"/><path class="cls-314" d="M79.6,88.33a2.47,2.47,0,0,1,3.69-.89c.68.39.44,1.16-.07,1.61C81.74,90.36,80.66,89.47,79.6,88.33Z"/></g></g></svg>