<svg xmlns="http://www.w3.org/2000/svg" viewBox="0 0 187.1 186.96"><defs><style>.cls-1{fill:#fdfdfd;}.cls-2{fill:#574222;}.cls-3{fill:#5a4325;}.cls-4{fill:#614927;}.cls-5{fill:#594123;}.cls-6{fill:#5b4324;}.cls-7{fill:#493a13;}.cls-8{fill:#614b22;}.cls-9{fill:#72552d;}.cls-10{fill:#fefefe;}.cls-11{fill:#695331;}.cls-12{fill:#ddcf95;}.cls-13{fill:#543f26;}.cls-14{fill:#694f2b;}.cls-15{fill:#6c522d;}.cls-16{fill:#6f5429;}.cls-17{fill:#674e2c;}.cls-18{fill:#7a5f33;}.cls-19{fill:#74572f;}.cls-20{fill:#362d24;}.cls-21{fill:#795e32;}.cls-22{fill:#ddcd95;}.cls-23{fill:#a1975a;}.cls-24{fill:#947041;}.cls-25{fill:#41331b;}.cls-26{fill:#352f29;}.cls-27{fill:#393730;}.cls-28{fill:#866239;}.cls-29{fill:#6f6223;}.cls-30{fill:#7a5934;}.cls-31{fill:#775b33;}.cls-32{fill:#846038;}.cls-33{fill:#302822;}.cls-34{fill:#765632;}.cls-35{fill:#937040;}.cls-36{fill:#88663c;}.cls-37{fill:#86653a;}.cls-38{fill:#a2824d;}.cls-39{fill:#726427;}.cls-40{fill:#3f2f1d;}.cls-41{fill:#8a683c;}.cls-42{fill:#8a6a3c;}.cls-43{fill:#987644;}.cls-44{fill:#bc9c62;}.cls-45{fill:#c9a86f;}.cls-46{fill:#cdaf77;}.cls-47{fill:#d2b980;}.cls-48{fill:#302922;}.cls-49{fill:#a78652;}.cls-50{fill:#997543;}.cls-51{fill:#cdc187;}.cls-52{fill:#a4814c;}.cls-53{fill:#a27f49;}.cls-54{fill:#8b6b3e;}.cls-55{fill:#805e37;}.cls-56{fill:#85643a;}.cls-57{fill:#6e512f;}.cls-58{fill:#9c7846;}.cls-59{fill:#8a683b;}.cls-60{fill:#8d6e41;}.cls-61{fill:#40311f;}.cls-62{fill:#63581c;}.cls-63{fill:#20190c;}.cls-64{fill:#63581f;}.cls-65{fill:#756724;}.cls-66{fill:#a89d5f;}.cls-67{fill:#6f6026;}.cls-68{fill:#a4995a;}.cls-69{fill:#9b8d51;}.cls-70{fill:#aca162;}.cls-71{fill:#6b5b28;}.cls-72{fill:#423714;}.cls-73{fill:#5e4e1e;}.cls-74{fill:#d6c48c;}.cls-75{fill:#9c7f48;}.cls-76{fill:#b79a63;}.cls-77{fill:#cdb682;}.cls-78{fill:#b2935a;}.cls-79{fill:#766038;}.cls-80{fill:#9a7946;}.cls-81{fill:#d5c58d;}.cls-82{fill:#503f24;}.cls-83{fill:#d6c089;}.cls-84{fill:#c3a066;}.cls-85{fill:#b8945a;}.cls-86{fill:#c6a770;}.cls-87{fill:#baa46a;}.cls-88{fill:#372d24;}.cls-89{fill:#c3b67d;}.cls-90{fill:#a1824d;}.cls-91{fill:#dcd198;}.cls-92{fill:#b2a769;}.cls-93{fill:#9d9256;}.cls-94{fill:#d3bf89;}.cls-95{fill:#3d3a34;}.cls-96{fill:#4a3f2e;}.cls-97{fill:#726428;}.cls-98{fill:#705634;}.cls-99{fill:#c7bc8f;}.cls-100{fill:#b9ac6f;}.cls-101{fill:#4a4740;}.cls-102{fill:#3f3d37;}.cls-103{fill:#785a35;}.cls-104{fill:#957646;}.cls-105{fill:#4e3b24;}.cls-106{fill:#735734;}.cls-107{fill:#908245;}.cls-108{fill:#786434;}.cls-109{fill:#a79a59;}.cls-110{fill:#ab9e5d;}.cls-111{fill:#6c4f2e;}.cls-112{fill:#332d27;}.cls-113{fill:#6c4e2e;}.cls-114{fill:#564a22;}.cls-115{fill:#d7cb8f;}.cls-116{fill:#ece19e;}.cls-117{fill:#b1a564;}.cls-118{fill:#987645;}.cls-119{fill:#bfa26b;}.cls-120{fill:#342f29;}.cls-121{fill:#ba985e;}.cls-122{fill:#b8ac6e;}.cls-123{fill:#b3955e;}.cls-124{fill:#c5ad78;}.cls-125{fill:#aea463;}.cls-126{fill:#dbc791;}.cls-127{fill:#d9c48f;}.cls-128{fill:#8d6a3e;}.cls-129{fill:#bbae73;}.cls-130{fill:#9c9686;}.cls-131{fill:#7d6036;}.cls-132{fill:#8a693e;}.cls-133{fill:#b39159;}.cls-134{fill:#bfa16a;}.cls-135{fill:#353029;}.cls-136{fill:#5a4327;}.cls-137{fill:#ad8d56;}.cls-138{fill:#785c34;}.cls-139{fill:#a6834c;}.cls-140{fill:#795b30;}.cls-141{fill:#705331;}.cls-142{fill:#58442a;}.cls-143{fill:#9a8f4f;}.cls-144{fill:#161307;}.cls-145{fill:#362918;}.cls-146{fill:#433719;}.cls-147{fill:#4d4b44;}.cls-148{fill:#c5bb7e;}.cls-149{fill:#352a17;}.cls-150{fill:#3f2f1b;}.cls-151{fill:#8a6b3d;}.cls-152{fill:#352816;}.cls-153{fill:#7f7332;}.cls-154{fill:#36312a;}.cls-155{fill:#ddcd9b;}.cls-156{fill:#c0a46d;}.cls-157{fill:#3c3932;}.cls-158{fill:#d6c48d;}.cls-159{fill:#bda66c;}.cls-160{fill:#b08f56;}.cls-161{fill:#927041;}.cls-162{fill:#907141;}.cls-163{fill:#795d36;}.cls-164{fill:#3a2c1a;}.cls-165{fill:#484640;}.cls-166{fill:#c6a56c;}.cls-167{fill:#d2b984;}.cls-168{fill:#cdb279;}.cls-169{fill:#614b2b;}.cls-170{fill:#322615;}.cls-171{fill:#816136;}.cls-172{fill:#6c6022;}.cls-173{fill:#292524;}.cls-174{fill:#795935;}.cls-175{fill:#42403a;}.cls-176{fill:#474641;}.cls-177{fill:#3c342c;}.cls-178{fill:#524627;}.cls-179{fill:#957242;}.cls-180{fill:#545149;}.cls-181{fill:#44423d;}.cls-182{fill:#4e4c44;}.cls-183{fill:#6e5330;}.cls-184{fill:#44423c;}.cls-185{fill:#504d46;}.cls-186{fill:#56544c;}.cls-187{fill:#86663c;}.cls-188{fill:#b49457;}.cls-189{fill:#483721;}.cls-190{fill:#67563f;}.cls-191{fill:#43371c;}.cls-192{fill:#3d3b35;}.cls-193{fill:#3e3c36;}.cls-194{fill:#4e4234;}.cls-195{fill:#473c31;}.cls-196{fill:#918a79;}.cls-197{fill:#aca897;}.cls-198{fill:#b2ad9d;}.cls-199{fill:#b7b3a3;}.cls-200{fill:#674f32;}.cls-201{fill:#44371e;}.cls-202{fill:#2c2726;}.cls-203{fill:#716438;}.cls-204{fill:#43413c;}.cls-205{fill:#58554d;}.cls-206{fill:#525049;}.cls-207{fill:#42413c;}.cls-208{fill:#755835;}.cls-209{fill:#6e5130;}.cls-210{fill:#765834;}.cls-211{fill:#4b3b27;}.cls-212{fill:#44351f;}.cls-213{fill:#494740;}.cls-214{fill:#42413b;}.cls-215{fill:#846742;}.cls-216{fill:#634a2d;}.cls-217{fill:#5d482c;}.cls-218{fill:#b4a86a;}.cls-219{fill:#786036;}.cls-220{fill:#413f39;}.cls-221{fill:#a4824d;}.cls-222{fill:#5d5a52;}.cls-223{fill:#57544b;}.cls-224{fill:#525048;}.cls-225{fill:#4d4a42;}.cls-226{fill:#89693e;}.cls-227{fill:#9c7946;}.cls-228{fill:#5d4d38;}.cls-229{fill:#85663d;}.cls-230{fill:#8a693d;}.cls-231{fill:#4d3f2d;}.cls-232{fill:#57544c;}.cls-233{fill:#494741;}.cls-234{fill:#9f7b47;}.cls-235{fill:#5b584f;}.cls-236{fill:#59472f;}.cls-237{fill:#906e40;}.cls-238{fill:#5d5950;}.cls-239{fill:#8c6a3f;}.cls-240{fill:#a27f4a;}.cls-241{fill:#c9c4b1;}.cls-242{fill:#d1ccb8;}.cls-243{fill:#eae4cc;}.cls-244{fill:#e4dec8;}.cls-245{fill:#dfd9c3;}.cls-246{fill:#d8d3bd;}.cls-247{fill:#bebaa9;}.cls-248{fill:#b8b3a3;}.cls-249{fill:#59564e;}.cls-250{fill:#5a574f;}.cls-251{fill:#55524a;}.cls-252{fill:#96774c;}.cls-253{fill:#3e301e;}.cls-254{fill:#b69859;}.cls-255{fill:#a27e49;}.cls-256{fill:#88653b;}.cls-257{fill:#876c43;}.cls-258{fill:#a6834b;}.cls-259{fill:#936f41;}.cls-260{fill:#88693e;}.cls-261{fill:#22190d;}.cls-262{fill:#4f4d45;}.cls-263{fill:#c1bcaa;}.cls-264{fill:#c9af70;}.cls-265{fill:#4c4b46;}.cls-266{fill:#51504a;}.cls-267{fill:#b69a5b;}.cls-268{fill:#40301b;}.cls-269{fill:#6a5232;}.cls-270{fill:#c3a663;}.cls-271{fill:#c6ad70;}.cls-272{fill:#8b683c;}.cls-273{fill:#c0a97a;}.cls-274{fill:#8b7351;}.cls-275{fill:#a38758;}.cls-276{fill:#291e10;}.cls-277{fill:#897e69;}.cls-278{fill:#eae3ca;}.cls-279{fill:#d3c6a2;}</style></defs><g id="Layer_2" data-name="Layer 2"><g id="Layer_2_Image" data-name="Layer 2 Image"><path class="cls-1" d="M105,0l1,1.87c-1.85,2.08-4.36,1.29-6.63,1.51-2.22,0-4.45-.07-6.68,0-1.62,0-3.2.64-4.85.36C85.59,3,82.84,4,81,1.88L82,0Z"/><path class="cls-2" d="M57,178.08a.78.78,0,0,0-.76-.24C51,175.11,45.12,173.61,41,169l-.08-.05a5.94,5.94,0,0,1-4-2.8L35.08,165c-1.18-.8-2.67-1.31-2.83-3.05-.07-2.49,1.87-3.22,3.64-4,3.15-1.43,4.78-3.79,4.63-7.3a2.57,2.57,0,0,1,2.64-2.08c1.75.57,1.79,2,1.76,3.47-.57,1.48.68,2.91.14,4.4-.18.28-.43.52-.58.81-1.16,2.2-5.08,3.14-4.52,5.39.7,2.77,4.14,4,6.71,5.5.57.33,1.14.68,1.69,1,1.69,1.18,3.57,2,5.31,3.15,3.72,1.91,7.72,3.17,11.54,4.87,2.31.71,4.69,1.23,7,2,1.65.93,4.31.06,5,2.77-.83,1.27-2.26,1.16-3.48,1.52A44.24,44.24,0,0,1,57,178.08Z"/><path class="cls-3" d="M177,53.8c1.68,1.75.16,5,2.84,6.26,1.5,1.06.44,2.78,1,4.08a8.83,8.83,0,0,0,2,5.91c1.44,1.53.65,3.23.38,4.9,0,.34-.06.69-.08,1a2.7,2.7,0,0,1,1.32,2.53c-.5,2.2.13,4.65-1.46,6.61A1.72,1.72,0,0,1,181.17,84a112.62,112.62,0,0,0-5.93-24.15,42.9,42.9,0,0,0-3-6.51,96.24,96.24,0,0,0-7-11.66c-1.28-1.87-2.9-3.48-4.16-5.38-.69-1.65-.51-2.85,1.6-3A2.94,2.94,0,0,1,165,34.93l2.13,3c2.63,1.52,3.31,4.59,5.3,6.62.47.73.79,1.55,1.31,2.25C174.62,49.25,176.35,51.27,177,53.8Z"/><path class="cls-4" d="M134.77,175.86l-3.8,2.26c-1.83,1.31-4,1.45-6.13,1.76L122,181.11c-2,2-4.67,1.3-7,1.76h0c-.57.71-1.31.58-2.06.42-1.34-.58-3.17.1-4.1-1.57,1.92-3.68,5.81-2.49,8.79-3.56s6.11-1.07,8.83-2.7a43.86,43.86,0,0,1,5-2.08,16.08,16.08,0,0,0,2.29-1.2c1.25-.84,2.7-1.29,4-2.08,1.7-1,3-2.54,4.66-3.48a7.4,7.4,0,0,1,1.15-.5,6.4,6.4,0,0,0,3.09-1.78c1.09-1,2.06-2.11,3.24-3,1.94-1.19,2.91-.2,3.52,1.57.08,1.12-.66,1.6-1.53,2l-1.8,1.27a3.71,3.71,0,0,1-3.18,2.48l-.85.51a10.85,10.85,0,0,1-6,3.81l-1.13.74C137.93,175.25,136.19,175.26,134.77,175.86Z"/><path class="cls-5" d="M150,20.76l2.83,2.31c1,.48,1.82,1,1,2.28a4,4,0,0,1-3.63.33c-2.88-2.1-6.16-3.61-8.95-5.86-2.67-3.05-6.73-3.73-10-5.83-3.18-1.74-6.32-3.59-10-3.94a7.56,7.56,0,0,1-1.39-.39c-1.56-.76-3.24-1.35-4.2-3a1.73,1.73,0,0,1,.57-2.06c1.26-.09,2.59-.75,3.73.37l.08,0a7.85,7.85,0,0,1,4.92,2l.1,0c2.86.42,5.69.9,7.85,3.1h0c2.47,1.06,5.37,1.33,7.07,3.82l.14.05C143.87,15.55,147.47,17.39,150,20.76Z"/><path class="cls-6" d="M183.87,111a1.92,1.92,0,0,1,.08.92c-1.18,1.48.71,3.64-1.1,5-2.87,4.23-2.25,9.74-5.13,14a32.87,32.87,0,0,1-7.81,14l0,0c-.51,1.66-1.09,3.27-2.88,4l0,.09c-.86,1.14-.68,3.14-2.75,3.27a2.35,2.35,0,0,1-1.56-1.19,2.61,2.61,0,0,1,0-1.33,24.7,24.7,0,0,1,2-3.47c3-3.73,5-8.06,7.35-12.18,2.41-4.42,3.78-9.28,5.89-13.82,1.35-3.72,1-7.88,2.93-11.45a3.25,3.25,0,0,1,1.33-.62,3.31,3.31,0,0,1,1.42.22C184.72,109.21,184.1,110.13,183.87,111Z"/><path class="cls-7" d="M163,151,164,152c-1.33,2.89-2.2,6.09-5.23,7.85-1.73-.06-2.64,1.27-3.78,2.21-.45.76-.94,1.41-2,.93-.93-.64-1.59-2.14-3.09-1l-.56-.42c-.58-3.35-4.93-5.89-2.15-10,1.4-.42,2.19.4,2.71,1.49,1.13,2.39,3.16,2.54,5.39,2.25,3.27-.06,3.55-4.12,6.37-4.76A1.41,1.41,0,0,1,163,151Z"/><path class="cls-8" d="M110,183.93l-4,1c-3.84,1.8-8.06.52-12,1.5-2.44-.65-2.9-1.89-.88-3.56,1.36-1.13,3.23-1.4,4.64-2.5a8.92,8.92,0,0,1,1.76-1.22c1.11-.44,2.22-.87,3,.53.55,1.93,2.25,1.38,3.59,1.64s2.55,1,3.89,1.39A.85.85,0,0,1,110,183.93Z"/><path class="cls-1" d="M93,185.82c4.31-.48,8.6-1.32,13-.87a4.81,4.81,0,0,1-3.83,2q-8.66.12-17.31,0A4.9,4.9,0,0,1,81,185c1.61-1.69,3.73-1.23,5.71-1.35C89.16,183.33,91.09,184.57,93,185.82Z"/><path class="cls-1" d="M57,178.08c5.82,1.15,11,4.49,17.09,4.74a5,5,0,0,1,4.82.68,1.31,1.31,0,0,1,.34.87c0,.32,0,.48-.09.48-7.1-.21-13.8-2.27-20.43-4.57A2.38,2.38,0,0,1,57,178.08Z"/><path class="cls-1" d="M153.93,24.85c-.37-.59-.73-1.18-1.09-1.78,4,.19,6.7,3.05,9,5.49,1.33,1.4,3.57,3.55,3.12,6.37l-1.76-1c-.59-.26-1.19-.47-1.76-.77a7.78,7.78,0,0,1-2.32-2.25C158.29,28.11,154,28.3,153.93,24.85Z"/><path class="cls-1" d="M169.91,144.9l7.81-14c.14.09.39.17.4.27C178.46,134.8,173.4,143.26,169.91,144.9Z"/><path class="cls-1" d="M41,169l15.21,8.85C50.54,176,44.21,175.18,41,169Z"/><path class="cls-1" d="M158.77,159.86,164,152l3-3C165.59,153.67,163.63,157.87,158.77,159.86Z"/><path class="cls-1" d="M150,20.76,140.09,14c4.63-.53,6.9,4.11,10.88,5Z"/><path class="cls-1" d="M27,159c-3.41-1.6-4.24-5.15-6.06-7.95l.16-.15c2.27-.36,3.4,2.08,5.46,2.23,1.27,1.62,1.87,3.36,1,5.37Z"/><path class="cls-1" d="M33,162.08c.24,1.3,2.33,1.25,2.11,2.89A10.65,10.65,0,0,1,27,159l.23-.25a2.15,2.15,0,0,1,1.28-.37C30.72,158.7,32,160.15,33,162.08Z"/><path class="cls-1" d="M171.91,45,167.11,38c1.49-.84,2.55-.4,2.78,1.26.29,2.12,2.37,3,3.08,4.76C173.32,45.05,172.84,45.26,171.91,45Z"/><path class="cls-1" d="M186,90c2.17,4.54.76,8.86-.86,13.16-.19-.14-.38-.29-.58-.42a4.44,4.44,0,0,1-.67-2,10.53,10.53,0,0,1,.3-3.49,12.19,12.19,0,0,0,.58-3.34,7.28,7.28,0,0,1,.7-3.41Z"/><path class="cls-1" d="M183.87,111c-1.65-.64.57-1.41-.07-2.08a5,5,0,0,1-.32-5.65A1,1,0,0,1,185,103l.17.14C184.92,105.78,188.25,109,183.87,111Z"/><path class="cls-1" d="M183.81,78.07,183.15,76c5.07,1.16,2.51,4.34,1.84,7l-.66.26a1.19,1.19,0,0,1-.82-1C183.58,80.86,183.2,79.43,183.81,78.07Z"/><path class="cls-1" d="M140,173l6-3.81C145.05,172.1,143.48,174,140,173Z"/><path class="cls-1" d="M177,53.8c-2.25-1.73-2.56-4.62-4.07-6.8a1.39,1.39,0,0,1,2,0C174.75,49.53,178.65,50.84,177,53.8Z"/><path class="cls-1" d="M124.84,179.88c1.92-1,3.83-2.06,6.13-1.76C129.6,181,127.4,181.1,124.84,179.88Z"/><path class="cls-1" d="M114.91,182.87c2.12-1.5,4.8-.76,7-1.76C120.3,184.49,117.67,183.94,114.91,182.87Z"/><path class="cls-9" d="M79.15,184.85c-.13-.28-.27-.55-.42-.82,2.41-2.06,5-1.57,7.72-.71a1.09,1.09,0,0,1,.51,1.51L81,185Z"/><path class="cls-1" d="M146.82,168.63a6.72,6.72,0,0,1,3.18-2.48C150.73,169.27,149.15,169.43,146.82,168.63Z"/><path class="cls-1" d="M37,166.15a8.08,8.08,0,0,1,4,2.81C38.49,169.62,36.84,169.15,37,166.15Z"/><path class="cls-1" d="M183.23,75c-.13-1.64-.26-3.27-.38-4.9C186.11,71.44,184.41,73.21,183.23,75Z"/><path class="cls-1" d="M182.85,116.91c.51-1.62-.62-3.62,1.1-5C184,113.68,186.08,115.89,182.85,116.91Z"/><path class="cls-1" d="M185,83c1.89,2.1.58,4.65,1,7l-.32.26a2.22,2.22,0,0,1-1.62-1.61,6.86,6.86,0,0,1,.68-5.4Z"/><path class="cls-1" d="M153,163l2-.93c1.27,3.58-1.41,2.69-3.19,2.81Z"/><path class="cls-1" d="M167,149l2.88-4C170.05,147.07,170.25,149.25,167,149Z"/><path class="cls-10" d="M175,47h-2c-1.13-.25-.92-1.18-1-2,.36-.34.71-.69,1.06-1Z"/><path class="cls-1" d="M180.87,64.14c-1.32-1.12-.73-2.71-1-4.08C182.32,60.88,181.85,62.44,180.87,64.14Z"/><path class="cls-1" d="M110,183.93a8.82,8.82,0,0,0,.31-.86c.82-.87,1.72-.65,2.65-.22h2C113.59,184.72,111.64,183.71,110,183.93Z"/><path class="cls-1" d="M134.77,175.86a8.94,8.94,0,0,1,4.08-2.17C138.31,176,136.61,176,134.77,175.86Z"/><path class="cls-11" d="M25.91,153.15c-2.76,1.74-3-1.91-4.85-2.24-.43-.64-.85-1.29-1.27-1.93a14.12,14.12,0,0,1-3.8-6l-.91-1.06c-1.79-2.09-2.67-4.7-4-7l0,0c-2.07-1.88-1.85-4.75-3-7-.41-.65-.81-1.3-1.21-2-1.21-1.13.35-2.83-.83-4a5.44,5.44,0,0,1-1-4.11c-.43-2.7-2-5.45.29-8,2.48.54,2.34,2.82,2.91,4.55,1.11,3.4,1.13,7.08,2.56,10.41a23.24,23.24,0,0,0,1.8,4.6c.22.39.42.8.6,1.2a58.39,58.39,0,0,0,4.67,8.63,16.43,16.43,0,0,0,3.68,5.14,21.81,21.81,0,0,1,2.14,2.46c.86,1.57,2.33,2.72,2.93,4.46A1.83,1.83,0,0,1,25.91,153.15Z"/><path class="cls-12" d="M26.06,30.11l1-1.06A4.56,4.56,0,0,1,32,25.76c2,2.5-2.08,4.06-1,6.43a7.15,7.15,0,0,0,3.53,6.46c1.94,2.41.93,4-1.61,4.65A28.58,28.58,0,0,0,26.14,46c-5.24.33-5.53-.29-3.4-7.11.55-2.11,1.86-3.94,2.28-6.1C25.49,31.92,25.18,30.77,26.06,30.11Z"/><path class="cls-13" d="M5.82,66c.06-.35.12-.69.19-1,1.17-1.1-.49-3,1-4l0,0c1.71-2.84,1.41-6.6,4.07-9L16,44c.56-.94.4-2.48,2.1-2.46a1.89,1.89,0,0,1,1.49,2.15,8.9,8.9,0,0,1-.95,2.69,65.93,65.93,0,0,0-5,9.24A73.29,73.29,0,0,0,7.87,72.87c-.47,1.44-.69,2.93-1,4.4-1.11,2.86.36,6.59-2.95,8.71-1.79,0-1.22-1.46-1.41-2.44C1.9,81,1.55,78.43,3,76l0-.07c1.15-1.5,0-3.37.8-4.92a2.92,2.92,0,0,0,.22-1C5,68.85,5.11,67.31,5.82,66Z"/><path class="cls-14" d="M35,22c2.09-1.25,3.51-3.5,6-4.12A23.35,23.35,0,0,1,51.73,11.5c1.67.8,1.82,2.12,1.24,3.68a4.8,4.8,0,0,1-.79,1.2c-1.29,1.05-2.86,1.67-4.16,2.71-2.48,1.69-4.91,3.44-7.37,5.15-2.26,1.57-4.7,2.59-7.47,1.16C31.88,23.28,34,23,35,22Z"/><path class="cls-15" d="M52,15a2.67,2.67,0,0,0,0-3c-.42-2,1.5-1.16,2.2-1.8l0,0C55.31,8.5,57.25,8.5,59,8.06l0,0c.7-1.17,2.05-.4,3-1l0,0A9.23,9.23,0,0,1,68,4.84l4-.78a1.81,1.81,0,0,1,2-.37,2,2,0,0,1,1.3,1.59c-1,2.63-4.25,1.5-5.74,3.37A7.61,7.61,0,0,1,66.44,10a12.29,12.29,0,0,0-4.84,1.44c-.37.21-.75.39-1.13.56a16.53,16.53,0,0,0-3.73,2.21,8.36,8.36,0,0,1-1.1.68C54.44,15.36,53.24,16.16,52,15Z"/><path class="cls-1" d="M3,111c-.4-.29-1.14-.56-1.16-.87-.48-8.37-3.9-16.76,0-25.12a5.25,5.25,0,0,1,1.35,3.56c-.17,2.25-.58,4.51,0,6.77.11,1.07.14,2.15.16,3.22C3.05,102.69,6.07,106.93,3,111Z"/><path class="cls-16" d="M3,111c.71-4.35-1.24-8.53-.86-12.86,1.18-.49,2,.14,2.75.89,1.73,2.22,1.26,4.86,1.44,7.38,0,1.22.42,2.51-.54,3.59-1.61,2.51-.42,5.3-.81,7.93C3.35,115.88,3.18,113.43,3,111Z"/><path class="cls-17" d="M19,44a2,2,0,0,0-1.15-2c-.35-1.82.79-2.9,2-3.93L21,36.76c1.13-1.87,1.45-4.87,4.9-3.54.39,2.22-1.53,3.59-2,5.49a25,25,0,0,1-2.54,4.58C20.67,44,20,44.5,19,44Z"/><path class="cls-1" d="M54.15,10.18,52,12c-4.14,1.07-7.1,4.31-11,5.9C44,12.89,48.8,11.1,54.15,10.18Z"/><path class="cls-1" d="M35,22c.19,1.49-1.71,1.6-1.9,2.84.34,1-.13,1.3-1.06,1.2l-5,3C27.28,24,31.41,23.33,35,22Z"/><path class="cls-18" d="M81,1.88c2.34.72,5-1,7.17,1-.33,3.26-2.78,2.94-5,3a3.28,3.28,0,0,1-1.22-.62c.65-3.14-2.76-.21-3-2A.89.89,0,0,1,79,2Z"/><path class="cls-1" d="M11.11,52c-1,3.16-1.94,6.37-4.07,9C8.18,58,6.62,53.63,11.11,52Z"/><path class="cls-1" d="M25.86,33.22c-2.73-.34-3.06,2.65-4.9,3.54-.36-3.8,3.16-4.62,5.1-6.65C26,31.15,25.93,32.18,25.86,33.22Z"/><path class="cls-1" d="M3,76v7.88a.57.57,0,0,1-.86.32C1,81.32-.42,78.41,3,76Z"/><path class="cls-1" d="M11,134.91c2.14,1.89,3.12,4.44,4,7C12.28,140.43,11.14,138,11,134.91Z"/><path class="cls-1" d="M8,127.93c1.8,2,2.23,4.58,3,7C7.56,133.68,8.2,130.63,8,127.93Z"/><path class="cls-1" d="M19.82,38l-2,3.93L16,44C15.51,40.85,16.93,39,19.82,38Z"/><path class="cls-1" d="M16,143c1.44,1.88,3,3.66,3.8,6C16.93,148,15.51,146.11,16,143Z"/><path class="cls-1" d="M68,4.84,62,7C63.53,5,65.09,3.16,68,4.84Z"/><path class="cls-1" d="M79,2a2.88,2.88,0,0,0-.35.85C77.54,4.88,76,5.1,74.1,4.07H72C74,2.25,76.43,1.93,79,2Z"/><path class="cls-1" d="M59,8.06l-4.87,2.15C55,7.88,56.58,7,59,8.06Z"/><path class="cls-19" d="M2.11,84.2A5.22,5.22,0,0,0,3,83.88c.28.64.57,1.29.85,1.94l.44.49c-.16,1.26-.1,2.71-2.07,2.41C2.08,87.47,2,86.23,1.87,85A.81.81,0,0,0,2.11,84.2Z"/><path class="cls-1" d="M6,122c1.49,1.06.91,2.56.83,4C3.56,125.28,6.5,123.29,6,122Z"/><path class="cls-1" d="M5.82,66a3.54,3.54,0,0,1-1.8,4C3.89,68.37,4.13,66.87,5.82,66Z"/><path class="cls-1" d="M7.06,61c-.34,1.32.49,2.95-1,4C6.5,63.7,3.46,61.48,7.06,61Z"/><path class="cls-1" d="M62,7.06c-.75,1-1.9.86-3,1C59.23,5.29,60.71,6.48,62,7.06Z"/><path class="cls-1" d="M3.8,71c.13,1.71.54,3.46-.8,4.92C3.19,74.28,2.44,72.47,3.8,71Z"/><path class="cls-20" d="M111,4,114,4a1.5,1.5,0,0,1,.37,1.49c-2.86,3.2-6.17.06-9.22.67a4.14,4.14,0,0,1-2.26-1,2.21,2.21,0,0,1-.25-1.61C105.52,1.05,108.23,3.14,111,4Z"/><path class="cls-21" d="M111,4c-2.72.49-5.51-2.42-8.18.17-3.2,1.13-3.83.79-3.74-2L106,1.87A9.09,9.09,0,0,1,111,4Z"/><path class="cls-1" d="M132.87,10.14,125,7C128.56,5.72,131.16,6.8,132.87,10.14Z"/><path class="cls-1" d="M140,14l-7.07-3.82C135.68,10.57,139.08,9.92,140,14Z"/><path class="cls-1" d="M124.92,7,120,5.05C122.59,3.3,123.82,5,124.92,7Z"/><path class="cls-1" d="M114.08,4.6A1.81,1.81,0,0,1,114,4c1.84,1.21,4.54-2.8,6,1H116C115.23,5.53,114.51,5.77,114.08,4.6Z"/><path class="cls-22" d="M82.12,5.17c2.28,0,4.44-.42,6-2.3L92,2.07c-2.12,4.78-4.25,9.55-10.5,10-4.37,2.21-9.33,2.12-13.89,3.66a3.87,3.87,0,0,1-5-2.08,3.35,3.35,0,0,1-.2-2.27c.67-1.63,2.35-1.68,3.65-2.31L69,7.94C73.3,6.71,77.34,4.2,82.12,5.17Z"/><path class="cls-23" d="M81.92,11c5.7-.32,6.35-6.37,10.11-8.88l7.06.11c.22,2.61,2.29,1.7,3.74,2A1.85,1.85,0,0,1,103,5c.49,1.13-.16,1.76-1,2.32-3.06.22-5.58-3-8.86-1.39-3.46,1.48-4.36,4-3.17,7.5-.1,2,.26,4.35-3,3.68a4.93,4.93,0,0,1-2.64-2.32C83.82,13.29,82.64,12.27,81.92,11Z"/><path class="cls-24" d="M48,170c-3.45-1.32-6.22-3.72-9.16-5.82-.94-.67-2.74-2.16-.8-3C40.9,160,42.15,157,45,156c4.73.67,8,4.22,12,6.27,9.09,4.62,18.48,7.83,28.67,8.57,1.28,1.1.7,2.26.14,3.43A6.68,6.68,0,0,1,84,176.45c-5.69,0-11.57,1.3-16.58-2.88-1-.82-2.49-.85-3.7-1.41a24.72,24.72,0,0,0-5.17-1.79C55.05,168.8,51.57,168.23,48,170Z"/><path class="cls-25" d="M43,149l-2.06,1.92a9.54,9.54,0,0,1-1,3.3c-1.31,2.91-3.55,4.36-6.73,3.72-2.76-.57-4.16-2.54-4.38-5.29-.23-3,1-5.09,4-6a6.14,6.14,0,0,1,1.94-.3c2.58.71,1.1,2.16.66,3.44,2-3.31,5.32-5.34,7.79-8.21,1.93-1.89,4.38-3.15,6.21-5.17A6.83,6.83,0,0,1,53,134.25c1,0,1.89.27,2.18,1.42-.37,3.65-3.5,5.33-5.55,7.79-1.64,1.52-3.15,3.19-4.86,4.64C44.28,148.53,43.56,148.56,43,149Z"/><path class="cls-26" d="M86.11,171.3c-5.62,1.71-10.73-.73-15.83-2.24A72.8,72.8,0,0,1,45,156c-.1-1.08-3.05-1.2-1-3,1.61-1.19,2.88-.12,4,.75,11,8.3,23.61,12.68,37.19,14.43a2.21,2.21,0,0,1,1.36,1.73A2.24,2.24,0,0,1,86.11,171.3Z"/><path class="cls-27" d="M86,169c-14.43-.47-27.08-5.82-38.61-14.18C46.31,154,45.46,153,44,153c-.13-1.38.45-2.94-1-4l1-1c2.5-.57,4.06,1.19,5.7,2.46,7.24,5.63,14.84,10.57,23.55,13.71A75.26,75.26,0,0,0,81,166C82.84,166.5,85.49,166,86,169Z"/><path class="cls-28" d="M64,171c2.1,1.53,5.62.29,6.76,4,.52,1.7,1.8-1.21,3.58-.62A24.6,24.6,0,0,0,83.94,176a2.48,2.48,0,0,1,1.77,2.88,2.74,2.74,0,0,1-.65,1.25c-1.54.25-2.93-.37-4.33-.8-2.34-.74-4.86-3.24-6.52,1-.16.41-1.55.23-2.29-.28A16.62,16.62,0,0,1,65,178C60.65,176.23,61.88,173.67,64,171Z"/><path class="cls-29" d="M36,147c-2.66.89-6.22.54-6.16,5,0,2.47.87,4.28,3.29,4.88,2.27.58,4.36,0,5.43-2.31.62-1.34.8-2.9,2.34-3.62,2,4.37-1.28,6.18-4.12,7.94-1.49.92-3.62.91-3.85,3.27l-4.83-3.55c-.88-3.79-2.24-7.57-.15-11.4,2-2,4.58-2.65,7.27-3a3.55,3.55,0,0,1,1.5.39,1.74,1.74,0,0,1,.72,1.29C37.33,146.59,37.07,147.26,36,147Z"/><path class="cls-30" d="M71.92,180c.66-.39,2.58.39,1.91-1-1.81-3.67.59-3.35,2.53-2.73A89.21,89.21,0,0,1,84.92,180c1.12.94,2,1.91.73,3.37-3,0-5.94.2-8.61-1.48C75.75,180.13,73.21,181.8,71.92,180Z"/><path class="cls-31" d="M64,171c.22,2.35-2.18,5.07,1,7a44.55,44.55,0,0,1-12-5,12.66,12.66,0,0,1,6-4Z"/><path class="cls-32" d="M59,169c-2.1,1.17-2.91,4.28-6,4-1.67-1-3.72-1.36-5-3C51.25,165.14,55.31,169.16,59,169Z"/><path class="cls-33" d="M77,181.88,86,183a.76.76,0,0,1,1-.21.74.74,0,0,1-.14,1l-8.12.24-4.65-1.21C74.82,181.72,76,182,77,181.88Z"/><path class="cls-34" d="M176,59c3.37,8,6,16.19,6,25a1.1,1.1,0,0,1-1.3,0c-2.71-3.17-1-7.8-3.92-11.36-.85,1.43-.41,3.21-1.48,4.33-3.78-.34-1.74-3.74-3.09-5.57-.5.92-.23,2.38-1.54,2.85-2.51-1.11-2.45-3.51-2.88-5.67.24-2.72-.31-6.08,4.48-4.45,1.83.63,1.24-1.39,1.63-2.29A3.31,3.31,0,0,1,176,59Z"/><path class="cls-35" d="M166,41c2.83,3.7,5.48,7.52,7,12-2.19,2.4-2.64,2.3-5.07-.65-2.59-3.16-5.08-6.58-10-5.87a5,5,0,0,1-1.44,0,2.13,2.13,0,0,1-1.3-1.63c0-2.53,1.54-4,3.54-5.07a2.1,2.1,0,0,1,1.35.17C161.76,42,163.83,41.72,166,41Z"/><path class="cls-36" d="M181,84l1,0,1,.94a2.06,2.06,0,0,1,.46,1.34c-.09.23-.17.46-.26.68l-.64.36a5.15,5.15,0,0,1-2.13-.3,10.75,10.75,0,0,0-5.5-.67c-1.44,0-3,.83-4.19-.74.48-3.86-1.85-7.77.22-11.59a3.77,3.77,0,0,1,0-1.47c.65-1.43-2.17-3.77.33-4.12s2.48,2.45,2.63,4.43c.1,1.43-.43,3,1,4.15A13.94,13.94,0,0,0,181,84Z"/><path class="cls-37" d="M156.94,45.79c4.69-1.33,9.31.68,11.92,5.53,1.06,2,1.75,3.69,4.18,1.62a13.09,13.09,0,0,1,3,6c-.34,1-.69,2-1,3a1.48,1.48,0,0,1-1.78.38,6.13,6.13,0,0,0-2.06-3.4A47.44,47.44,0,0,0,156.94,45.79Z"/><path class="cls-38" d="M166,41c-3.29,2.93-4.85,2.68-6-1-.4-1.78-.63-3.46,1.88-3.78A15.56,15.56,0,0,1,166,41Z"/><path class="cls-39" d="M161.85,36.23c-.62,1.26-1.25,2.52-1.88,3.78l-1,0a2.11,2.11,0,0,1-1.61-1.55c.82-2.46.2-6.12,4.65-5.54l1.17,1C161.38,33.87,161.48,35,161.85,36.23Z"/><path class="cls-40" d="M183.09,85.77l-.09-.84c.33-2.28-.84-4.73.81-6.86l.18,4.81C184.19,84,185.65,85.51,183.09,85.77Z"/><path class="cls-41" d="M106.07,182c-1.08-1.22-5.48,4.09-4.07-2,1-1.7-1.47-2.11-1.31-3.5,1-2.78,3-3.56,5.75-2.94,1.2.12,2.41.13,3.62.14a11.45,11.45,0,0,1,3.67.53c2,1.12,4.12,2.05,4.28,4.77-2.68,2-6.57.33-9.07,2.92A2.3,2.3,0,0,1,106.07,182Z"/><path class="cls-42" d="M118,179l-4-4a2.31,2.31,0,0,1,1.14-.71c1-.31,2.23.87,2.78.13s-.49-1.78-1-2.63-1.28-1.4-1.17-2.45c2.1-2.34,4.83-3,7.84-2.88a9.38,9.38,0,0,1,3.69,4.07c0,1.32-1.08,2.37-.87,3.72.13.61.42,1.16.57,1.76C124.65,178.93,121,178.1,118,179Z"/><path class="cls-43" d="M127,176c-.85-.07-1.62-.26-1.92-1.21,1-1.08.92-2.66,1.88-3.73-1-1.45-3.25-2-3.07-4.27.14-1.31,1-1.38,2-1.15,1.24,1.28,2.51,2.47,4.47,1.25,1.26-.55,2.39-1.57,3.93-1.21,1.86,1.31,4.94,1.77,3.67,5.26L134,173c-.85,0-1.7,0-1.93,1.07Z"/><path class="cls-44" d="M147.06,165.05a3.58,3.58,0,0,1-3.08,1.88c-1.6-3-3.87-6,.66-8.52a4.48,4.48,0,0,1,2.77.65,3.72,3.72,0,0,1,1.84,2.81C148.51,162.92,147,163.43,147.06,165.05Z"/><path class="cls-45" d="M138,170.93c.2-2.92-3.22-2.83-4.05-4.88a1,1,0,0,1,0-1.19c1.68-.75,3.28.91,4.95.15,1.16-.35,2-1.78,3.46-1.06a4.58,4.58,0,0,1,.84,3.12Z"/><path class="cls-46" d="M143.12,167.07c-1.27-.7-1.12-1.93-1.14-3.1a3.76,3.76,0,0,1-1.12-2.12,7.66,7.66,0,0,1,.38-4c1.92-2,3.25-2.11,3.58,1.08-4.25,2.27.44,5.47-.84,8.05A5,5,0,0,1,143.12,167.07Z"/><path class="cls-47" d="M147.06,165.05c-1.92-2.74.56-2.64,2.05-3.18.35-.39.63-.33.82.16v0C149.61,163.62,148.36,164.36,147.06,165.05Z"/><path class="cls-48" d="M106.07,182l2.87-.13c1.32.3,2.91-.49,4,.94l-2.65.22C108.87,182.7,107.19,183.53,106.07,182Z"/><path class="cls-49" d="M132.1,174.1c-.59-.5-1.3-1.1-.35-1.76s1.71-.17,2.28.69Z"/><path class="cls-50" d="M131.9,13.05c3.2,2.24,7.58,2.47,10,6-.82.86-1.71.54-2.64.23,1.23,2.15,3.69,3.89,2.73,7-1.57.86-2.62-.34-3.83-1-2-1.34-3.72-3.11-6.08-4-3.17-1.15-4.76-3.7-5.74-6.76a2.62,2.62,0,0,1,.56-2.71A22.3,22.3,0,0,1,131.9,13.05Z"/><path class="cls-51" d="M153.93,24.85c1.67,2.42,5.59,2.51,6.22,6-.82,1.17-2,1.17-3.24,1-2-.54-3.73-2.28-6-1.26a10.82,10.82,0,0,0-1.08.67c-1.25,1-1.49,2.59-2.38,3.76s-1.77,3.08-3.91,1.68a6.16,6.16,0,0,1-.69-3.58,10.2,10.2,0,0,1,.39-2.25c1.23-3.2,2.44-6.42,6.85-6Z"/><path class="cls-52" d="M150,24.89C147,26,145.3,28.26,144,31c-1.34-1.39-2.54-2.84-2-5-1.3-2.76-2.49-5.59-5.91-7.58,2.87-1.18,4.21.79,5.87.59C144.35,21.35,148.23,21.69,150,24.89Z"/><path class="cls-53" d="M120,9a4.73,4.73,0,0,0,.93.12c1.8.92,4.52.09,5.36,2.83-.53,1.4,0,3.05-1.1,4.31a3.77,3.77,0,0,1-2.12.76c-2.55-.24-4.83-1-6.32-3.29a20.34,20.34,0,0,1,1.34-5.06A2,2,0,0,1,120,9Z"/><path class="cls-54" d="M114.08,4.6,116,5l.06,1.86c-.07.23-.15.45-.22.68-1.84,2.13-3.94,1-6,.48-1.31-.48-2.68-.78-4-1.28a1.57,1.57,0,0,1-1-1.66C107.86,3.39,111.19,8,114.08,4.6Z"/><path class="cls-55" d="M126,12c-1.19-1.82-3.63-1.46-5-2.88,4.29-.43,7.47,2.2,11,4a11.1,11.1,0,0,1-5.05-1A.54.54,0,0,1,126,12Z"/><path class="cls-54" d="M120,9h-2c-1.61.45-2.11-.39-2.1-1.82l.19-.29A6.27,6.27,0,0,1,120,9Z"/><path class="cls-56" d="M178.91,121l-6,14c-2.11.12-1.64-1.46-1.67-2.63-.05-1.37.92-2.88-1-4.39.51,3.69-2.75,4.91-4,7.38a16.31,16.31,0,0,1-2.39,4.25c-.73.95-1,2.3-2.32,2.72-2.25-.5-2.61-2.21-2.68-4.12a128,128,0,0,1,9.23-19.26c1.67-.4,2.16,2,3.82,1.61C174.32,119.66,176.69,119.23,178.91,121Z"/><path class="cls-57" d="M162,142c.06-1.09-.12-2.26,1-3,1.15,1.72,2.26,3.47,4,.43.72-1.27,1.73-2.38,2.11-3.85-1.19-1.75-2.81.4-4-.55.82-3.27,6.24-4.42,3.58-9.38,4.37,1.38,5.22,3.69,3.63,7.15a1.68,1.68,0,0,0,.73,2.16c-2.69,4-4,8.87-7.8,12.11-1.64.33-2,1.55-2.15,3,0,.31,0,.63,0,.94l-1,0c-2.7-.08-2.61-2.62-3.67-4.15C157.63,143.8,159.35,142.54,162,142Z"/><path class="cls-58" d="M178.91,121c-2.26.8-4.9-1.14-7,1-1.25-1.73-.18-3.33.27-5a18.56,18.56,0,0,1,3.71-5.55c1.78-1,2.67-2.81,3.75-4.45.53-.8,1.48-1.6,2.43-.68a1.74,1.74,0,0,1-.16,2.62C180.11,112.72,180.92,117.2,178.91,121Z"/><path class="cls-59" d="M181.94,108.91c-.07-.63.1-1.55-.25-1.84-1-.84-1.49.25-1.54.91-.2,2.65-1.22,4.3-4.18,4-3.24-2.43-.95-5.74-1.37-8.62a2.21,2.21,0,0,1,1.12-.82c2.16.91,4.24,1.57,5-1.69a2.67,2.67,0,0,1,1.4-.42,1.86,1.86,0,0,1,1.26.79,4.28,4.28,0,0,1,.06,2.3c-.22,1.81.45,3.7-.45,5.45Z"/><path class="cls-60" d="M163,150c-1.31-1-1.19-2.11-.19-3.2.82-.89,1.64-.69,2.34.22A3.85,3.85,0,0,1,163,150Z"/><path class="cls-61" d="M183,109c0-2,0-4,0-6a.76.76,0,0,1,1.18.23c-.12,1.91-.25,3.81-.37,5.72Z"/><path class="cls-62" d="M159,147c2.05.56,1.54,3,3,4-2.72.79-1.85,6-6,4.95a3.74,3.74,0,0,1-.21-2.49,5.3,5.3,0,0,0-.94-3.79c-.76-1.44-3.43-1.54-2.8-4a3.59,3.59,0,0,1,2.63-.67,9.74,9.74,0,0,1,3.32,1A11.22,11.22,0,0,1,159,147Z"/><path class="cls-63" d="M156.85,153.93c-.3.67-.61,1.34-.92,2-3.25,1.5-6.05,1.83-7.08-2.63-.21-.95-1-1.23-1.78-1.43a2.1,2.1,0,0,1-.73-1.18c.28-2.82,2-2,3.59-1.43,1.85,1.15,3.58,2.53,5.71,3.17C156.28,152.74,156.51,153.38,156.85,153.93Z"/><path class="cls-64" d="M147,151a5.27,5.27,0,0,0,.1.89c-.4,3.76,3.51,6.31,2.86,10.15a4.41,4.41,0,0,1-.82-.16,3.22,3.22,0,0,0-2.32-1.9c-1.56-3-4.06-5.7-2.3-9.47C145.57,149.34,146.31,150,147,151Z"/><path class="cls-65" d="M86.85,183.79a2.84,2.84,0,0,0,0-.65,21.39,21.39,0,0,1,1.9-4.16c2.89-.29,5.89,3.12,8.69-.27,1.27.06,1.13,1.15,1.41,1.94-.73,2-2.68,2-4.24,2.6-1.09.45-2.67.73-1.56,2.57-2.08,0-3.9-1.5-6.05-1C86.92,184.48,86.89,184.14,86.85,183.79Z"/><path class="cls-66" d="M98.81,180.65c-.8-.3-.72-1-.81-1.66a3,3,0,0,1-.92-2.78,3.94,3.94,0,0,1,.55-1.32c1-1.11,3.35-.14,3.6-2.39a4.89,4.89,0,0,1,3.59-.46,3.14,3.14,0,0,1,1.34.73,1.71,1.71,0,0,1-.17,2.12c-2.6-1.58-3.56.83-5,2.06a3.45,3.45,0,0,1-1.14,3Z"/><path class="cls-67" d="M99.84,179.91c.25-1,0-2.26,1.14-3,2.12.42,2.63,1.37,1,3C101.32,178.84,100.56,180,99.84,179.91Z"/><path class="cls-68" d="M156.26,31l3.89-.11,1.9,2.1c-2.82,1-2.91,3.9-4.16,6-.57,2.34-2.19,3.14-4.41,2.79-1.37-.21-2-1-1.29-2.44,1-1.37,3.09-1.66,3.41-3.64a7.5,7.5,0,0,0,0-3.13,2.74,2.74,0,0,1,.12-1.27Z"/><path class="cls-69" d="M29,147c-1.94,3.72-.73,7.68-.86,11.53a1.66,1.66,0,0,1-.95.23q-.63-2.81-1.28-5.61c0-.69,0-1.39,0-2.08-1.4-2.95-.3-4.63,2.71-5.33A.78.78,0,0,1,29,147Z"/><path class="cls-70" d="M184.81,88.85c.29.46.58.91.86,1.37.11,1.27.21,2.54.31,3.81-1.8,1-3.67,1.14-4.8-.79-1.74-2.95-4.53-3-7.34-3.16a3.53,3.53,0,0,1-1.94-.9c.5-3.43,3-3.09,5.39-2.79,1.88.24,3.58,1.6,5.61.93a3.17,3.17,0,0,1,0-.53C184.71,86.45,184.19,88.17,184.81,88.85Z"/><path class="cls-71" d="M174,89c3.34-.5,6.58-.28,7.92,3.36.91,2.46,3.12.21,4.09,1.64.13,1.2.27,2.41-.8,3.33-.59,1-.25-2.29-1.09-.23a2.5,2.5,0,0,1-1.87,1.45,3.17,3.17,0,0,1-1.3-.16,2.83,2.83,0,0,1-1.32-1.49c-.36-1.43.69-3.19-1-4.31-1.39-.53-2.94-.27-4.31-.85C172.61,91.06,172.31,90.13,174,89Z"/><path class="cls-72" d="M182,98c1.33,1,1.27-4.4,3.16-.67-.09,1.19-.19,2.37-.28,3.56-.63.49-1.28.25-1.94.1l-1-.11A1.93,1.93,0,0,1,182,98Z"/><path class="cls-73" d="M183,101c.59-1.16,1.29-.17,1.94-.1L185,103a1.68,1.68,0,0,1-.79.23L183,103Z"/><path class="cls-34" d="M184.81,88.85,183,86.79c0-.34.09-.68.14-1,1.2-.68.55-1.94.9-2.89a3.28,3.28,0,0,0,.74.33C185.06,85.08,185.57,87,184.81,88.85Z"/><path class="cls-74" d="M5.79,110l-.61-2.89a4.09,4.09,0,0,0,.47-2.38c-.18-1.09,0-2,1.26-2.29a2.22,2.22,0,0,1,2.85,1.34c1.11,3.53,3.83,6.12,5.27,9.43.34,2.54,2.38,3.82,4,5.4a12.21,12.21,0,0,1,1.94,7A11.85,11.85,0,0,1,20,129a3.68,3.68,0,0,1-.86,1.1c-1.36,1-1-2.17-3-1-1.78,1,.21,2.19-.87,2.79-1.38.91-2.05-.33-2.92-1-.15-.33-.3-.65-.44-1a27.24,27.24,0,0,0-1.75-4.26C7.09,120.9,7.79,115.07,5.79,110Z"/><path class="cls-75" d="M29,146a5,5,0,0,0-3.05,5.1c-1.4-1-2.84-2-3.06-4,1-1.43.68-2.9.14-4.38-.25-3.65-1.86-7.42.86-10.84,2.93.1,2.95,2.77,4,4.53a38.64,38.64,0,0,0,3.36,7.52C31.33,145.5,30.22,145.81,29,146Z"/><path class="cls-76" d="M24.18,131.76C22.55,135.48,24,139.24,24,143a3.21,3.21,0,0,1-3,2.07,9.75,9.75,0,0,1-3.79-5.13c2-.61,1.77-2.2,1.29-3.56-1.37-3.88.38-6.13,3.7-7.69C23.94,129,24.88,129.84,24.18,131.76Z"/><path class="cls-77" d="M22.12,128.77c-3.1,2.9-2.8,6.36-2.13,10.18.77,4.28-2.16-.25-2.83,1a42.07,42.07,0,0,1-4.84-9L15,132c.94-1.44,2.56-1.52,4-2l.09-1.1c.76-.72,1.54-1.42,2.73-1.17A.85.85,0,0,1,22.12,128.77Z"/><path class="cls-78" d="M21,145.05,24,143c.84,1.69,3.76,4-1.12,4.09Z"/><path class="cls-79" d="M10.13,125.7A4.3,4.3,0,0,1,11.88,130,5.08,5.08,0,0,1,10.13,125.7Z"/><path class="cls-80" d="M13,55a17.78,17.78,0,0,1,5.16-8.78c1.33,1.64.74,3.23-.11,4.81-.71,1.29-2.07,2.36-2.06,3.86,0,2.59,1.19,1.65,2.24.49,1.19-2.62,3.06-4.84,4.33-7.41,1.12-1.08,2.49-1.85,3.65-2.88,1.57-1.28,2.7-3,5.37-2.62C32.87,42.64,36,42.19,34,39c3.9,0,4.4.85,2.78,5-7.4,2.92-10.25,9.69-13.64,16.05-1.49,2.8-1.68,6.41-4.91,8.17-2.21-1.18-1.95-3.73-3.07-5.52-.83-1.45-2.28-2.49-2.81-4.15A6.32,6.32,0,0,1,13,55Z"/><path class="cls-81" d="M32,26l1.06-1.2c2.78,1,5-.07,7.2-1.71,2.47-1.83,5.07-3.47,7.62-5.2,2.7-.73,5.53-1.67,5.17,3-.84,2-2.67,2.9-4.3,4-2.57,1.78-4.47,4-4.87,7.19a3.92,3.92,0,0,1-1.69,2.24c-2,.73-3-.75-4.09-1.91-2.16-2.23-4.36-2.75-6.73-.32a1.41,1.41,0,0,1-1.31,0C28.19,29.31,32.47,28.43,32,26Z"/><path class="cls-82" d="M30.06,32.14a4.11,4.11,0,0,0,.76-.29c.76-.48,1.57-1.68,2.43-.57,2,2.65,5.19,4.46,6.11,8-.25,1.75,1.59,3.31.49,5.15a4,4,0,0,1-1.32.52,2.76,2.76,0,0,1-2.61-1c1.54-2.52,1.44-4.38-2-4.89C30,38.23,29.65,35.4,30.06,32.14Z"/><path class="cls-83" d="M26.17,45.08a3.51,3.51,0,0,1-3.06,3c-1,1.84-2,3-3.35.17-1-2.13,0-3.69,1.24-5.25.73-1.58,1.32-3.26,2.86-4.29a11.1,11.1,0,0,1-.7,2.82C21,45.45,23.08,45.67,26.17,45.08Z"/><path class="cls-84" d="M21,43c-.19,1.68-1,3.2-.2,5.11,1.09,2.61,1.57-.51,2.31,0,0,3.31-3.15,5.1-4,8C17.45,54.77,17.41,52.78,17,51a8.19,8.19,0,0,0,1.16-4.76c.11-.82,0-1.71.86-2.25Z"/><path class="cls-17" d="M13,55l0,4c.89,2.75-1.81,4.45-2,6.88-.23.87-.5,1.72-.76,2.58a20.21,20.21,0,0,1-.62,2c-.7,1-.56,2.95-2.65,2.51A40.89,40.89,0,0,1,13,55Z"/><path class="cls-85" d="M7,72.91l1.94-3.07c2.69,4,.17,7.6-1,11.29-.55.68-1.12,1.34-2.13.79C5.51,80.26,5.08,78.59,6,77,6.4,75.64,5.69,74.05,7,72.91Z"/><path class="cls-19" d="M6,77c0,1.66,0,3.32,0,5a2.48,2.48,0,0,1,.59,2.76,2.24,2.24,0,0,1-2.43,1.39l-.33-.32C5.72,83.17,3.86,79.57,6,77Z"/><path class="cls-86" d="M52,21.05c1.11-4.34-2.38-2.58-4.14-3.12a5.47,5.47,0,0,1,3.94-2c1.42-.56,3-.72,4.14-2h0a2.15,2.15,0,0,1,2-.4,2.47,2.47,0,0,1,1.4,2.32A10.19,10.19,0,0,1,57.61,19C56.06,20.53,54.63,22.41,52,21.05Z"/><path class="cls-87" d="M56,14c-.76,2-2.35,2.17-4.14,2A5.49,5.49,0,0,0,52,15Z"/><path class="cls-18" d="M82.12,5.17,69,7.94c1.06-3,4.41-1,6-2.83,2.2-1.07,4.43-1.59,6.77-.4C81.89,4.87,82,5,82.12,5.17Z"/><path class="cls-88" d="M81.78,4.71,75,5.11l-.92-1,4.56-1.18c1,.08,2,.12,2.93.25.49.07,1.42-.48,1.28.62C82.82,4.12,82.16,4.4,81.78,4.71Z"/><path class="cls-89" d="M59,16l-1-2c-.45-1.77,1.68-1.64,2.06-2.8a6.27,6.27,0,0,1,.9-.29,1.64,1.64,0,0,1,2,0c0,.67.05,1.35.08,2a6.75,6.75,0,0,1-1,1.57,7.31,7.31,0,0,1-.8,1C60.56,16,59.9,16.5,59,16Z"/><path class="cls-87" d="M60,11.19c0,1.48-1.48,1.79-2.06,2.8l-2,0C56.8,12.29,58.42,11.75,60,11.19Z"/><path class="cls-90" d="M62.94,10.93l-2,0a5.89,5.89,0,0,1,5.15-1.81Z"/><path class="cls-91" d="M4.15,86.14l1.74-1.21a7.17,7.17,0,0,1,5.05-1.51,4.78,4.78,0,0,1,3.43,1.73c.35,4.52-3.52,3.6-5.91,4.58C4.52,89.31,5,94.11,2.14,95c-1-2.12-.13-4.21,0-6.31Z"/><path class="cls-92" d="M2.14,95c1.5-2.45.81-6.88,5.68-6.26l.42.49c-.08,1.17-1.1,1.8-1.59,2.73a15.61,15.61,0,0,0-1,5.37c-.07.94-.19,2.09-1.71,1.72l-1.77-1Z"/><path class="cls-93" d="M3.91,99.08c1.44-2.53-.19-5.79,2-8.14a2.22,2.22,0,0,1,.87,1c.47,2,.64,4.22,2.77,5.41,1.27,1.14,2.7,2.16.53,3.9-.8.64.68.34.7.83,2,2.81,2.89,6.28,5.28,8.91a2.49,2.49,0,0,1,.07,3.23,1.61,1.61,0,0,1-2.06-.23c-1.31-3.53-4.86-5.86-5.27-9.9,0-.36-1-.86-1.54-.85-.8,0-1,.78-.79,1.48.29,1.19-.35,1.86-1.26,2.42C4.84,104.4,5.66,101.54,3.91,99.08Z"/><path class="cls-94" d="M104.87,5.09,106,6c.63.54,1.48.77,2.08,1.34s1.46,1.52.82,2.56-1.7.9-2.69.68a33.29,33.29,0,0,1-3.77-1.25c-.85-.68-1.32-1.42-.38-2.39.33-.66.66-1.33,1-2Z"/><path class="cls-90" d="M61.18,14.07c.26-1,1-1,1.84-1.12,1.34,1.81,2.9,2.2,5.16,1.51C72.7,13.1,77.34,12.1,81.92,11c2,.2,3.12,1.16,3,3.28C83,16,80.42,15.89,78.21,16.81a14.82,14.82,0,0,1-1.42.48,18.35,18.35,0,0,1-6,.95C67.34,17.39,63.23,18.09,61.18,14.07Z"/><path class="cls-95" d="M77.85,15.9a14.43,14.43,0,0,1,7.05-1.67l2,1.92c.93,1.73,3.17,1.48,4.35,2.86a2.08,2.08,0,0,1-.11,1.39A4,4,0,0,1,88.68,22,74.59,74.59,0,0,0,50.16,36.68c-1.7,1.24-3.2,3-5.57,3.08-2.12-.25-3-1.67-3.24-3.58a2.83,2.83,0,0,1,.43-1.36c1.09-.57,1.58-1.7,2.35-2.57C52,26.11,60.93,21.8,70.08,17.94a7.43,7.43,0,0,1,1.08-.84L77,16c1.92,1.2,4.13,0,6.12.67C81.39,16.07,79.43,17.15,77.85,15.9Z"/><path class="cls-96" d="M89,13c-2.66-4.54,0-6.58,3.8-8.08,5.42-.16,7.57,2.57,5.64,7.41a7.15,7.15,0,0,0-.68,4.22c0,1.68-.52,3.29-.41,5,0,15.38,0,30.75,0,46.13,0,2.35.72,5.07-1.94,6.73a2.07,2.07,0,0,1-1.73-.42c-2-3.59-.77-7.49-1.05-11.25-.17-2.15.11-4.32-.5-6.44a7.67,7.67,0,0,1,0-2.66c1-13.88.23-27.78.4-41.61-1.25-.35-.82,1.3-1.65,1.4A1.55,1.55,0,0,1,89,13Z"/><path class="cls-97" d="M97,16c-1.19-.9-.92-1.88-.34-3.05,2.57-5.16,1.79-6.77-3.8-8.06,3.7-2.13,6.28.69,9.19,2.07l1,1.79a3.44,3.44,0,0,1,.84,2,2.67,2.67,0,0,1-1.23,2.43C99.82,12.13,99.77,16.85,97,16Z"/><path class="cls-98" d="M89,13,91,13a4.26,4.26,0,0,1,0,6.06c-2.06,0-3.73-.5-4.06-2.9C90.53,17.06,88.34,14,89,13Z"/><path class="cls-99" d="M84.9,173.88l1.21-2.58L86,171c.8-1.21,1.33-2.76,3.25-2.5,2.82,2.05.32,3.93-.17,5.89-.61,1.1-1.11,2.3-2.4,2.83C84.9,176.77,84.1,175.75,84.9,173.88Z"/><path class="cls-100" d="M84.9,173.88a3.19,3.19,0,0,0,2,3.06,1.77,1.77,0,0,1,.73.64c.64,1.46,1.79,3.47-.08,4.25S85.84,180,85,179l-1-3Z"/><path class="cls-101" d="M49,143l6-7,.67.22c6.73,4.23,12.41,10.14,20.23,12.63A24,24,0,0,0,81.22,150c5.31.41,6.34-.57,6.38-6a20.57,20.57,0,0,1,.39-6.22c.65-2.13,1.8-2.51,3.41-.82,1.76,3.91.86,8,.89,12a11.47,11.47,0,0,1-.28,1.64,10,10,0,0,0,0,7c-.33,3.64,2.18,7.83-2,10.73-2.89-1-1-3.56-1.66-5.27.45-2.49-.67-3.49-3.1-4A81,81,0,0,1,62,150.56a22.06,22.06,0,0,1-5-3.23A10.73,10.73,0,0,0,49,144.16a.75.75,0,0,1-.27-.8C48.79,143.1,48.88,143,49,143Z"/><path class="cls-102" d="M89,163c1.92,1.68.65,3.37,0,5.06.33.18.44.37.34.57s-.22.29-.33.29L86,171c0-.69,0-1.37,0-2.05-5-2.92-10.88-2.62-16.24-4.84-7.45-3.09-13.61-7.81-20.14-12.12-1.92-1.27-3.74-2.69-5.6-4a15.71,15.71,0,0,1,5-5c0,.34,0,.68,0,1,9.34,7.72,19.49,13.86,31.41,16.84C83.26,161.52,86.46,161,89,163Z"/><path class="cls-103" d="M36,147l1-1a19.16,19.16,0,0,1,2.57-3.81,3.92,3.92,0,0,1,2.88-1.85c1,.2,2,.38,1.61,1.8L32.3,153.52C32.65,149.9,35.65,149.22,36,147Z"/><path class="cls-104" d="M52.85,134.89,50,137c-1.38.65-2.94,2.52-3.79-.54a4.12,4.12,0,0,1,.18-1.4,24.08,24.08,0,0,1,6.17-6.32,2.4,2.4,0,0,1,1.3-.11,7.58,7.58,0,0,1,2.37,2.21,2.33,2.33,0,0,1,.08,1.28C55.69,133.7,54.19,134.2,52.85,134.89Z"/><path class="cls-105" d="M52.85,134.89l3.08-3.06c2.17-3.15,4.47-6.18,7.87-8.15A2.21,2.21,0,0,1,65.29,125c-.22,3.27-3.4,4.55-4.75,7.07-.74.79-1.51,1.55-2.18,2.42-1,.87-1.74,2.15-3.38,1.53v-.08A2.47,2.47,0,0,0,52.85,134.89Z"/><path class="cls-106" d="M47,136c.22,2.65,2.05.62,3,1-1.25,2.55-4,3.33-5.94,5.08A2.09,2.09,0,0,0,42,141c-.72-1.63.3-2.65,1.28-3.69C44.41,136.58,45.35,135.31,47,136Z"/><path class="cls-107" d="M85,179l2.31,2.58c1.26-1.83-.64-3.13-.35-4.59.38-1,.77-2,1.16-3a.83.83,0,0,1,1.15,0,5.22,5.22,0,0,1-.28,5c-.08,1.73.49,3.79-2.17,4.17L86,183c-.35-1-.7-2-1.06-3C85,179.65,85,179.3,85,179Z"/><path class="cls-102" d="M40,143a6.54,6.54,0,0,1-3,2.95c0-.32,0-.64,0-1-1.18-1.46-3.42-.57-4.6-2.06-5.49-8.5-10.26-17.27-13-27.18-1.5-5.42-1.5-10.79-2-16.2a3.83,3.83,0,0,1,.2-1.61l.47-.69a4.55,4.55,0,0,1,6.09-.33c1.79,3.31,1.93,7,2.26,10.61,1,11.07,5.23,20.83,11.68,29.76C39.29,138.91,41.25,140.46,40,143Z"/><path class="cls-108" d="M33,142.92c1.56.27,3.73-.67,4.05,2.05l-1.16-.05c-1.47-1.13-3.53.86-4.87-.92-3.08-1.34-2.9-4.55-4-7C30.65,137.29,30.93,141,33,142.92Z"/><path class="cls-109" d="M31,144c1.63.27,3.5-.7,4.87.92L29,147c0-.34,0-.69,0-1Z"/><path class="cls-110" d="M59.16,173.47c.11-1,.58-1.43,1.28-1.44s1.35.42,1.17,1.14a1.94,1.94,0,0,1-1.2,1.26C60,174.48,59.5,173.76,59.16,173.47Z"/><path class="cls-111" d="M172.92,61.94h2c-.11,4.87-.11,4.87-3.8,2.94-1.71-.88-1.74-.84-2.21,3.14-.17,0-.44.09-.47,0C164.59,60.72,160.17,53.65,157,46l0-.17c7.27,1.77,11.64,6.83,15,13.08A13.76,13.76,0,0,0,172.92,61.94Z"/><path class="cls-112" d="M157,46A81.09,81.09,0,0,1,169,68a10.4,10.4,0,0,0,2,6c-.07,4,2.35,8,.1,12l-.76.11c-1.62-1-1.92-2.7-2.12-4.29A68.81,68.81,0,0,0,154,48a6.49,6.49,0,0,1-1.53-3.59c1.74-3.42,2.47-.56,3.48.55Z"/><path class="cls-113" d="M181,84c-4.25-.37-7.08-2-6-7a5.44,5.44,0,0,1,0-1c.3-1.84-.93-5,1.38-5.12,2-.1,3.19,2.92,3.57,5.25C180.35,78.73,180.62,81.34,181,84Z"/><path class="cls-114" d="M155.9,45c-1.07-.06-1.43-2.21-2.93-1a3.55,3.55,0,0,1-5.21-.18c-.63-3.11,1.33-4.4,3.77-5.34A2,2,0,0,1,153,39c-.61,1.29-.52,2.1,1.23,2,1.54-.12,2.45-1.33,3.65-2L159,40C158.23,41.85,155.9,42.7,155.9,45Z"/><path class="cls-115" d="M182.9,87.32c-.77,2.74-2.42,1.29-3.84.79-2.53-.89-5-1.67-7.21.72a2,2,0,0,1-2.68.5c-1.17-2,.5-2.6,1.75-3.39l.14.1,3.86-1.11c2,.64,3.9,1.36,6,1.1Z"/><path class="cls-116" d="M180.94,86c-2.4,1.75-4.16.09-6-1.1C177.06,84.58,179.14,84.53,180.94,86Z"/><path class="cls-117" d="M172.92,61.94c-1.4-.67-2.7-1.38-1-3.07C173.53,59.49,173.87,60.51,172.92,61.94Z"/><path class="cls-118" d="M106,173l-1,0a1.29,1.29,0,0,1,0-1.54c3.39-2.2,7-3.14,10.88-1.56a2.45,2.45,0,0,1,2.15,1.06c-1,1.29-2.71,2.13-3,4l-1,0-4.11-.06C108.8,173.82,107,174.23,106,173Z"/><path class="cls-119" d="M106,173c1.72-.22,3.17.1,3.89,1.92l-3.89,0Z"/><path class="cls-120" d="M115.84,169.88,105,172c-2.1.89-3.7.51-4.53-1.79a2.36,2.36,0,0,1,.43-1.5c4.39-2.13,9.28-2.4,13.91-3.67a69.18,69.18,0,0,0,23.5-11.61c1.33-1,2.65-2,4.49-1.74,1.45,1.28,1.05,2.64.17,4a4.3,4.3,0,0,0-1.65,2.19,3.36,3.36,0,0,1-.9,1,47.91,47.91,0,0,0-5.61,3.3,8.69,8.69,0,0,1-1.11.71c-2.25,1-4.31,2.28-6.46,3.41A1.29,1.29,0,0,1,126,166a2,2,0,0,0-2.11.8Z"/><path class="cls-121" d="M115,174.94c-3.65-4.79,2-2.67,3-4,.58,1.6,2.51,3.2.88,4.9C117.56,177.2,116.51,174.49,115,174.94Z"/><path class="cls-122" d="M127,171.05c.22,1.67-.07,3.08-1.88,3.73C124.88,173.12,125,171.63,127,171.05Z"/><path class="cls-123" d="M126.7,165.8A17.36,17.36,0,0,1,134,162a4.54,4.54,0,0,1-.05,3l0,1.05-3,1.84c-.66-.53,0-3-2.14-1.41A1.59,1.59,0,0,1,126.7,165.8Z"/><path class="cls-124" d="M126.7,165.8c1.11,1.3,5.42-3.86,4.22,2.09-2.24.91-4.93,3-4.92-1.9A1.34,1.34,0,0,1,126.7,165.8Z"/><path class="cls-125" d="M140.89,157.91,142,156c2.8-1.3.26-4.51,2.19-6.13l.7.12c-.18,3.47,1.28,6.62,1.88,9.94l-2-1.09c-.7-1.17-1.31-2.69-2.86-.78A.75.75,0,0,1,140.89,157.91Z"/><path class="cls-126" d="M134,165a2.73,2.73,0,0,1,.05-3h0c1.45-.95,2.81-2.42,4.73-.89a2.67,2.67,0,0,1,.64,1.12,13.28,13.28,0,0,1-.47,3.76C136.84,167.78,135.64,165.2,134,165Z"/><path class="cls-44" d="M138.92,166c-1.69-1.36-.5-2.7,0-4a2.2,2.2,0,0,1,3-.05c0,.69,0,1.38,0,2.06C140.94,164.62,140.48,166.13,138.92,166Z"/><path class="cls-127" d="M142,161.91l-3,.05,0,0c-1.35-1.76.22-2.69,1.08-3.82a1.21,1.21,0,0,1,.82-.27l1.07.19C142,159.37,142,160.64,142,161.91Z"/><path class="cls-55" d="M123,16l2.17-.23c.45-.57.8-1.35,1.76-.82l.95-.28c1.25,6,7.68,5.91,11.12,9.34.39,1.61,1.93,2.9,1.32,4.79-4,1-5.8-2.87-8.85-4-2.91-2.47-7.18-2.55-9.83-5.51A4.15,4.15,0,0,1,123,16Z"/><path class="cls-128" d="M140,28.91c-.34-1.64-.69-3.27-1-4.91,1.05.59,1.45,2.16,3,2,.94,1.55,2.38,2.91,2,5l-.15,1.91a.83.83,0,0,1-1.1.22C141.63,31.84,140.31,30.7,140,28.91Z"/><path class="cls-129" d="M126.9,14.94l-1.76.82c-.22-1.38-.62-2.8.85-3.79l.86.12C126.87,13,126.88,14,126.9,14.94Z"/><path class="cls-130" d="M143.09,33.06a2.72,2.72,0,0,0,.74-.16L144,37a1.36,1.36,0,0,1,.32,1.33c-1.71,2.23-2.56,5.46-6.27,5.34-.32-.1-.83-.43-.78-.51,2.08-3.37-1.15-3.84-2.82-4.92-5.34-3.42-10.81-6.6-17-8.24a11.05,11.05,0,0,1-1.35-.52c-3.6-1.74-7.5-2.09-11.41-2.44-2.18-.78-4.69-.3-6.71-1.7a2.16,2.16,0,0,1-.32-2.12c5.17-2.59,10.24.31,15.36.21,1.79,0,3.32,2.18,5.2.45,2.44-1.39,4.45.14,6.58.91,6.09,2.19,11.15,6.4,17.19,8.66A9.24,9.24,0,0,1,143.09,33.06Z"/><path class="cls-131" d="M144,38c0-.36-.05-.72-.07-1.08,3.77-.83,2.12-6.27,6-7,.26.24.38.45.37.61,0-.16-.11-.37-.37-.62,2.45-1.74,4.5-1,6.34,1q-.3.06-.6.09c-.82,1.51-1,3.35-2.29,4.61-2.36,2-4.1,4.82-7.16,6C143.21,41.84,143.6,40,144,38Z"/><path class="cls-132" d="M123,16c0,1.11.17,2.3-1,3-4,1.21-7.38-1.59-11.18-1.68a17.1,17.1,0,0,1-2.34-.5c-1.35-.54-2.84-.33-4.21-.7S100.87,15.4,102,13l1-2.16c2.65-.8,5.24.44,7.88.19,2,.8,4.37.17,6,1.95A11.41,11.41,0,0,0,123,16Z"/><path class="cls-133" d="M117,13c-2-.28-4.24.72-6-1,.2-1.79-1.84-3.17-.93-5.09,2,.34,3.9,1.57,5.91.19L118,9C118.56,10.56,120.21,12.42,117,13Z"/><path class="cls-134" d="M110,7c-.48,1.84,4.39,2.71.93,5.09a20,20,0,0,1-7.84-1.18c0-.71,0-1.43,0-2.14,1.88-.82,3.12,2,5.11.87.06-1.69-1.91-2.15-2.22-3.6A6.85,6.85,0,0,1,110,7Z"/><path class="cls-135" d="M168.88,118.88l-9,19c-1.39,2.66-2.25,5.92-6.33,5.46-3.23-1.67-1.27-3.49-.09-5.19a77.06,77.06,0,0,0,12.9-30.86c.5-2.82-.71-6.08,1.88-8.44,1.78-.27,2.83.91,3.94,2a5.37,5.37,0,0,1,.92,2.82,15.79,15.79,0,0,1-.19,3.57c-.08.46-.2.91-.32,1.36-.52,1.54-.4,3.18-.75,4.76C171.07,115.27,170.66,117.44,168.88,118.88Z"/><path class="cls-136" d="M165,135a15.44,15.44,0,0,1,2.9-1.79c1-.37,2.32-.5,2.84,1,.45,1.31-3.94,8.3-5.55,8.92s-1.94-.59-2.14-1.71A18.19,18.19,0,0,1,163,139C163.55,137.59,165.13,136.73,165,135Z"/><path class="cls-137" d="M168.88,118.88c.06-2.17,1.15-4,2-5.87,1.36-1.5-.06-3.55,1-5.1l0,0c3.7.55,3.19,3.36,2.68,5.68A14.44,14.44,0,0,1,173,117l-1.05,5C169.5,122.34,168.88,120.91,168.88,118.88Z"/><path class="cls-138" d="M154,142.93c2.84-.69,3.66-3.73,5.92-5.09.07,1.68.15,3.36,2.07,4.11-1.37,1.44-3.57,2.39-2.95,5h-1c-1.93-3.19-5.75-1-8.15-2.88a1.27,1.27,0,0,1,.29-1.44A4.22,4.22,0,0,1,154,142.93Z"/><path class="cls-139" d="M173,117c-.21-3,3.52-6.58-1.11-9.1.07-1.29.13-2.59.2-3.89.53-1,1.18-1.82,2.51-1.49l.53.36c1.67,2.91-.52,6.17.85,9.11C175.76,114.11,174.26,115.48,173,117Z"/><path class="cls-140" d="M181,101c-.16,1.59.47,3.62-1.43,4.4-2.23.93-2.29-1.88-3.66-2.57C176.84,100.09,178.86,100.39,181,101Z"/><path class="cls-73" d="M181,101l-5.09,1.83h-.8l-.06,0a1.54,1.54,0,0,1-.58-1.23c1.1-3.12,4.09-2.85,6.5-3.63l1,0c0,1,0,1.92,0,2.88Z"/><path class="cls-141" d="M150,143c0,.35.05.69.07,1,1.31,1.49,4.24-1.22,4.93,1.89l-3.05.07a5.27,5.27,0,0,1-4,1.66c-5.59-1.54-7.85-7.11-12.23-10.19-1.87-1.31-4.06-2.91-4.45-5.64.43-3.15,2.26-2.67,4.3-1.67,1.27.94,2.14,2.33,3.53,3.13a12.8,12.8,0,0,1,2.36,2.29,11.16,11.16,0,0,1,.74,1.06,11,11,0,0,0,4.17,3.78C147.5,141.35,149.06,141.73,150,143Z"/><path class="cls-142" d="M147.93,147a6.34,6.34,0,0,1,4-1l4,3.08c-.85,1.28,1.54,2.53,0,3.82-3,1.11-4.33-1.25-6-2.89C149.18,149.06,147.39,148.81,147.93,147Z"/><path class="cls-143" d="M155,145.94c-1.21-1.77-3.79,0-4.93-1.89,2.81.53,6.76-2.05,8,2.92Z"/><path class="cls-144" d="M155.92,152.91c1.19-1.29-3.2-2.52,0-3.82a6.15,6.15,0,0,1,1,4.84Z"/><path class="cls-145" d="M147.93,147l2,3c-1,.29-2.73-1.68-2.94,1l-2.06-1,0,0c-.45-.52-1.19-.51-1.69-.94-1.18-1-2-2.29-3.06-3.35-.9-.94-1.89-1.77-2.79-2.71-1.7-2.35-4.15-4-5.88-6.32a21.45,21.45,0,0,0-4.32-4c-2.65-2.32-4.36-5.61-7.63-7.29-5-4.17-9-9.3-13.32-14.18-.89-1.26-1.45-2.57-.52-4.06,4.24-.59,5.54,3.84,8.7,5.09,3.82,3.24,6.34,7.73,10.38,10.75,1.43,1,3.54,1.1,4.13,3.17s2,3.83,3,5.72A164.39,164.39,0,0,0,147.93,147Z"/><path class="cls-146" d="M89,179c-1.07-1.67.23-3.33,0-5a1.63,1.63,0,0,1,1.94-.34c.94.7,1,1.85,1.39,2.81s.81.53,1.17-.1c.27-3.86,0-7.7.19-11.52.09-1.44,0-3.56,1.78-3.6s1.67,2.07,1.84,3.49a20.7,20.7,0,0,1,.06,2.49c.1,2.9-.42,5.84.51,8.69,0,1,.09,2.06.13,3.1C95,183.77,92,181.85,89,179Z"/><path class="cls-147" d="M97.87,175.89c-3.24-2-1.38-5.24-1.87-7.9,1.15-3.27-.15-6.42-.31-9.63-.3-6-.71-12.14.32-18.17.83-1.76,2.25-1.9,2.58-.06.9,4.94,4.12,3.73,7.12,3,8.27-2,16.09-5,22.27-11.15a10.53,10.53,0,0,1,4,4c1.46,2.08.25,3.54-1.33,4.6-8.45,5.7-17.33,10.56-27.65,11.67-5,.54-3.34,3.95-3.66,6.64,0,1.46,0,2.92,0,4.37-.38,2.17,1,3.82,1.67,5.68l-.09,1.12a3.23,3.23,0,0,1-1.06.65c-2.31.66-.46,3-1.67,4.12Z"/><path class="cls-148" d="M98.14,174.86c-1.83-5.39-1.79-5.5,1.73-4.8a3,3,0,0,1,1.24,2.78C101.93,176.15,99.45,174.65,98.14,174.86Z"/><path class="cls-41" d="M101.11,172.84c-.41-.93-.82-1.86-1.24-2.78l1,0c.85,1.74,2.45,1.9,4.11,1.92,0,.32,0,.65,0,1Z"/><path class="cls-149" d="M145.93,41l7-6c1.64-.38,1.52-2.59,3.11-3,1.69,1.07,1.08,2.61.85,4.07-1.37,1.4-3.2,2-4.88,2.93A11.69,11.69,0,0,0,148,43a11.29,11.29,0,0,1-1.6,2.83,23.9,23.9,0,0,1-3.81,3.78c-1.6,1.25-2.69,3.2-4.88,3.7-1.13-.29-1.41-1.14-1.45-2.17a4.81,4.81,0,0,1,1.14-2.57C140.1,45.88,142,42.23,145.93,41Z"/><path class="cls-150" d="M152,38.92c1.07-1.91,2.9-2.54,4.88-2.93A3.55,3.55,0,0,1,153,39Z"/><path class="cls-150" d="M156,31.92c-.75,1.31-1,3.09-3.11,3,1.22-1.09.49-3.56,2.77-3.9A2.72,2.72,0,0,1,156,31.92Z"/><path class="cls-151" d="M169,89l2.81-.14L174,89c-.7,1.56,0,2,1.49,2s3.33-.59,4.55,1a1.1,1.1,0,0,1-.47,1.51c-3.34,1.37-6.85.85-10.26.64-4.14-.25-4.52-1.54-1.92-5.22A1.53,1.53,0,0,1,169,89Z"/><path class="cls-152" d="M179.92,92.93a6.42,6.42,0,0,0,.09-.87c2,1.64.62,3.33.07,5-2.15,3.37-5.17,1.28-7.87,1.26a19.34,19.34,0,0,1-3-.44c-2.43-.64-5.11.38-7.42-1.09-1.29-1-1.9-2.12-.36-3.44,4.41-1,8.79.81,13.2.14C176.38,93.24,178.25,94.05,179.92,92.93Z"/><path class="cls-153" d="M171.94,97c2.72-.35,5.42,2.22,8.14,0l.9.92c-.85,3-5.13,1-6,4-1.07.83-1.85.42-2.47-.61C172,100,171.15,98.62,171.94,97Z"/><path class="cls-154" d="M33,142.92c-3.45-.51-3.16-4.79-6-5.94q-1.39-2.61-2.81-5.22a5.71,5.71,0,0,0-2.06-3,1.07,1.07,0,0,0-.18-.74,2.93,2.93,0,0,1-1.82-2.22c-.65-2.3-1.31-4.59-2-6.89a6.89,6.89,0,0,1-1.92-4.25c1-2.91-1.85-5-1.59-7.78.24-3-.63-6.5,3.36-7.91,1.38,1.14.94,2.73,1,4.17.27,13.1,5.37,24.55,12.18,35.37C32.06,139.94,33.22,141.1,33,142.92Z"/><path class="cls-155" d="M19,130a5.27,5.27,0,0,1-4,2c-.51-1.71-.36-3.14,1.51-4C18.74,127,17.66,129.94,19,130Z"/><path class="cls-156" d="M17,115c.37,1.32.74,2.64,1.12,4-2.05-1.1-3.91-2.37-4.13-5l1.9.07C16.54,114,16.64,114.67,17,115Z"/><path class="cls-76" d="M20.12,125.81A2.67,2.67,0,0,1,21.94,128l-2.88.86C19.41,127.86,19.77,126.84,20.12,125.81Z"/><path class="cls-79" d="M15.66,124.92c-.27.22-.67.76-.88.69a11.76,11.76,0,0,1-2-1c.29-.25.56-.68.88-.72C14.43,123.8,15.27,123.75,15.66,124.92Z"/><path class="cls-157" d="M35.92,43.93,39,44a2.25,2.25,0,0,1-.24,3.17c-8.88,10.16-14.21,22-16.82,35.15-1.29,2,.35,5.59-3.41,6.22a5.3,5.3,0,0,1-3.58-2.89c-.23-.46-.47-.93-.72-1.39-.71-5.3,1.26-10.11,2.83-15a2.64,2.64,0,0,1,1.07-1.1c3.19-7.24,6.22-14.55,11.15-20.88C31,45,32.9,43.46,35.92,43.93Z"/><path class="cls-158" d="M17,51c2.39,1,1.92,3.21,2.15,5.13C18.17,57.15,18,59.8,15.62,58c-1.47-1.12-2.09-2.6-.81-4.31C15.5,52.73,16.24,51.86,17,51Z"/><path class="cls-159" d="M10,66c-.53-3,2.23-4.57,3-7a6.57,6.57,0,0,1,3,3,2.43,2.43,0,0,1-.18,3.15C13.81,64.77,12.31,68,10,66Z"/><path class="cls-160" d="M15.05,65c1.1-.77.92-1.94,1-3.05,1.45,1.81,1.23,4.19,2.1,6.19A3.15,3.15,0,0,1,18,69c-.43.61-.72,1.36-1.51,1.65a2.65,2.65,0,0,1-2.86-.74A3.65,3.65,0,0,1,15.05,65Z"/><path class="cls-161" d="M71.16,17.1A3.22,3.22,0,0,0,71,18c-2.15,2.38-5.41,2.15-8.08,3.28-6.71,2.84-12.42,7.23-18.56,10.93A1.17,1.17,0,0,1,43,32c-.78-4,2.1-5.83,4.67-7.82,1.4-1.09,2.89-2.08,4.34-3.12,2-.41,3.85-1.1,5-2.95,1.09-1.28,3.17-1.33,3.86-3.11a5.76,5.76,0,0,1,.28-.92C64.18,16.14,67.7,16.51,71.16,17.1Z"/><path class="cls-162" d="M39,40c-2.06-3.37-4.25-6.62-8.13-8.19,1.76-4.32,4.37-3.41,7.31-1.29,1.37,1,1.36,3.55,3.78,3.3a.8.8,0,0,1,.35.75c0,.28-.12.42-.19.42l0,0c-1,.83-.49,1.65-.08,2.57,1.18,2.63-.15,3.2-2.47,2.85Z"/><path class="cls-163" d="M42.07,35c-.06-.39-.11-.78-.16-1.17.37-.62.74-1.24,1.1-1.87h1c.27.22.36.44.28.67S44.07,33,44,33A1.87,1.87,0,0,1,42.07,35Z"/><path class="cls-164" d="M40,44c-.06-1.39-3-2-1-4l.11-.1C45.75,43.18,50.29,49,55.48,54c2.72,2.6,5.23,5.49,7.87,8.21q2.07,2.22,4.28,4.32c3.31,3.39,6.69,6.72,10.06,10.05,1,1.28,2.43,2.44,1.45,4.38a2.16,2.16,0,0,1-2,.59c-1.75-.68-3-2.15-4.58-3a98.73,98.73,0,0,1-9.21-9.2c-2.92-3.47-6.76-6-9.71-9.45-1.06-1.13-2.14-2.23-3.24-3.32a21.69,21.69,0,0,1-2.52-3.06,25.53,25.53,0,0,0-6.11-5.94A4.41,4.41,0,0,1,40,44Z"/><path class="cls-165" d="M40,44l2,3c-.11.23-.21.46-.31.69A78,78,0,0,0,23.24,86.75c-.22,1.29-.17,2.69-1.51,3.51a1.23,1.23,0,0,1-1.27-.81c.12-2.49-.34-5,.53-7.47A67.85,67.85,0,0,1,38.41,45.87c.4-.43.39-1.24.58-1.87Z"/><path class="cls-166" d="M7,81c.61-3.72,2.47-7.23,1.89-11.15L9.09,68c2.6-.46,1.81,3.62,4.35,3.24a4.45,4.45,0,0,1,.33,3.48,7.42,7.42,0,0,1-1.34,2.49c-1.55,1.06-2.22,2.85-3.49,4.14A1.61,1.61,0,0,1,7,81Z"/><path class="cls-167" d="M13,71c-3.11,1.35-2.23-2.48-3.9-3L10,66a3.29,3.29,0,0,0,3.33-1.61c1-1.43,1.49-.57,1.69.64L13.94,70A1.78,1.78,0,0,1,13,71Z"/><path class="cls-168" d="M7,81l2,0c1.16-.46,1.83.18,2.4,1.06a1.8,1.8,0,0,1-.51,2,8.63,8.63,0,0,1-5,.9C5.92,84,6,83,6,82Z"/><path class="cls-87" d="M60.89,15c-.17,2.43-2.21,2.53-3.86,3.11A3.25,3.25,0,0,1,59,16Z"/><path class="cls-24" d="M10.91,84c0-.67,0-1.34,0-2-1.15-2-1-3.73,1-5.08l1-2C14.69,73.63,14.86,71,17,70l1-1c-.92,5.38-3,10.53-3.06,16.08a.63.63,0,0,1-1,0C12.9,84.75,11.63,85.15,10.91,84Z"/><path class="cls-92" d="M13.89,85.1l1,0L15,85c.54,1.44,2.93,2.36,1.77,4.2-1.41,2.24-3.79,1.4-5.9,1.11A4.24,4.24,0,0,1,8.1,89.13l-.28-.36C9.47,86.93,13.8,89.53,13.89,85.1Z"/><path class="cls-169" d="M8.1,89.13,11,89a1.66,1.66,0,0,1,.5,1.65c.26,2.53,2.06.45,3,1,1.64-.38,2.14-2.13,3.47-2.87A3.42,3.42,0,0,1,21,90h1a2.91,2.91,0,0,1,2.54-.86,3.75,3.75,0,0,1,1.29.49,1.23,1.23,0,0,1,.3,1.21c-.8,1.19-2.05,1.11-3.19,1.15.06,0-.19-.08-.19-.08s0,.27.06.26a2.78,2.78,0,0,1,2,.43,1.41,1.41,0,0,1,.45,1.28,2.44,2.44,0,0,1-1.13,1,6.27,6.27,0,0,1-1.59.39c-3.74.22-7.48.1-11.22.12-2.39,0-4.59-.41-5.21-3.27C6,91.7,6,91.32,5.87,90.94Z"/><path class="cls-170" d="M6.1,92.09C7.51,94.18,9.63,94,11.77,94c4.07,0,8.14,0,12.21.06.87.5,1.69,1,.92,2.2a2.24,2.24,0,0,1-1.35.24c-1.92.23-4.22-.93-5.56,1.48h0c-1.89.4-3.86-1.54-5.69.22A3.41,3.41,0,0,1,9,98C6.12,96.94,5.41,94.85,6.1,92.09Z"/><path class="cls-171" d="M17,115,15.93,114c-1.49-4.25-5.13-7.43-5.95-12a4.37,4.37,0,0,1,1.24-.94c3.06-1.11,4.66-.32,4.28,3.21a3.52,3.52,0,0,0,.45,2.78Q16.49,111,17,115Z"/><path class="cls-172" d="M11.08,101.94,10,102c-.35-.28-1.82-.23-.92-.85,2-1.35,1-2.14-.09-3.15,1.09-.1,2.28.13,3-1,1.38-.64,3.15-1.18,3.89.28s-.92,2.52-2.2,3.28A23.21,23.21,0,0,0,11.08,101.94Z"/><path class="cls-173" d="M77.85,15.9H83.7c-2.27.86-4.56,1.91-6.73.09A2.17,2.17,0,0,1,77.85,15.9Z"/><path class="cls-174" d="M91,19.05q0-3,0-6.06c.53-1.72-1.23-4.36,2-5,1.06,5.9.47,11.86.43,17.79C93.34,35.2,94,44.63,93,54V56c1.37,5.95-.5,12.08,1,18h0a1.35,1.35,0,0,1-.24,1.35c-2.17,1.78-5.12,1.64-7.45,3-4.93,2.18-5.23,2.07-6.61-2.31,1.53-2.11,3.93-2.77,6.22-3.44,2.71-.8,4.19-2.24,3.73-5.21.19-6.39-.26-12.76-.56-19.13,1.27-4.26-.08-8.63.48-12.93.16-3.41-.18-6.83,0-10.25A9.16,9.16,0,0,1,90.88,20C90.91,19.69,90.94,19.37,91,19.05Z"/><path class="cls-175" d="M90.88,20c0,1.65,0,3.3,0,4.95-1.5,1.53-3.5,1.85-5.46,2.13A70.77,70.77,0,0,0,51.92,41.48c-1.18.9-2.26,2-3.89,2A2.07,2.07,0,0,1,46.36,42c.11-4.74,4.42-6,7.3-7.92a68.5,68.5,0,0,1,30.7-11.64c1.6-.2,3.32-.24,4.62-1.48Z"/><path class="cls-163" d="M47,42l1,1a10.74,10.74,0,0,1,3.78,2.68c2.7,2.69,5.38,5.4,8.11,8.06.33.3.64.62.94.94.88,1,1.8,1.9,2.73,2.82s1.83,1.9,1.73,3.36A4.24,4.24,0,0,1,63,63c-5.5-5.33-11-10.68-16.5-16-2.45-2.37-5-4.69-7.44-7,1.55-.11,3.78.25,1.9-2.45C39.9,36,40.14,35.19,42,35.07a5.34,5.34,0,0,0,2,4A7.06,7.06,0,0,1,47,42Z"/><path class="cls-176" d="M47,42A6.32,6.32,0,0,1,44,39c4.79-1.92,8.2-5.93,12.74-8.26C66.9,25.54,77.23,21,89,21c-1,3.08-3.74,2.69-6.08,3C69.43,25.64,57.78,31.3,47.6,40.13,47.18,40.49,47.19,41.34,47,42Z"/><path class="cls-177" d="M44,33l0-1c7.95-6.7,16.65-12,27-14-1.16,4-5.2,2.84-7.8,4.05C56.44,25.13,50.7,29.91,44,33Z"/><path class="cls-98" d="M94,75c0-.34,0-.69,0-1,3.11-.55,2-3,2-4.76.09-16.37.08-32.75.1-49.12a1,1,0,0,1,1.48.54c1.57,16.19.55,32.42.84,48.61-.75,2.24,1.75,3.69,1.43,5.84a4.76,4.76,0,0,1-5.28.49Z"/><path class="cls-98" d="M93,54,93,8c1.07.83,1,2,1,3.17Q94,31,94,50.83C94,52,94,53.17,93,54Z"/><path class="cls-178" d="M96.89,20a3.87,3.87,0,0,0-.83.12c.31-1.37.61-2.74.92-4.11,1.34-.53,1.66-1.77,2.29-2.9.55-1,1.8-3.06,2.76-.05,1.09,4.07,5.3.41,7,2.85-.89,1.32-2.41,1.32-3.72,1.78A15.91,15.91,0,0,0,96.89,20Z"/><path class="cls-98" d="M94,74c-2.2-5.91-.44-12-1-18C95.17,61.86,93.33,68,94,74Z"/><path class="cls-179" d="M90.89,174.05,89,174l-.88,0c.08-1.73,3-2.95.91-5.06a2.48,2.48,0,0,1,0-.86c3.22-.78,1.67-3.38,1.89-5.21a49.27,49.27,0,0,0,0-5.83,8.6,8.6,0,0,1,.06-6c0-.32,0-.63,0-.94,2.43-1,3,.79,3.13,2.39.53,6.9-.28,13.8-.37,20.7C93.74,175.06,92.52,175.79,90.89,174.05Z"/><path class="cls-180" d="M58,134a1.84,1.84,0,0,1,1.94-2c2.38-2.31,4.06-5.47,7.69-6.25,3.84,6.73,11.64,4.52,17.18,7.49,1.8,1,2.75-1.16,2.84-3,.13-3,0-5.94.08-8.91.07-1.92-.36-4,1.45-5.51,2.42.67,2.12,3,2.89,4.7.23,5.31,1.06,10.64-.5,15.9l-.66.61c-1.06-.41-1.93-.57-1.91,1.06,0,2.31,0,4.62,0,6.93-1.46,1.44-3.38,1.43-5.11,1.17C74,144.68,65.16,141.11,58,134Z"/><path class="cls-181" d="M89,163c-15.4-.52-28-7.47-39.4-17.16-.42-.36-.4-1.21-.59-1.84,2.08-1.24,3.69-1.67,6.06.29,9.19,7.58,20.07,11.73,31.64,14C90.23,158.94,90.63,160.22,89,163Z"/><path class="cls-182" d="M58,134c3.44-.35,5,2.89,7.44,4.28,7.42,4.18,14.88,7.38,23.57,6.73,0,5.93-1.91,7.39-8.27,6.37-5.47-.88-10.79-2.7-14.83-6.33-3.53-3.17-8.77-4.23-10.9-9Z"/><path class="cls-183" d="M90.89,174.05c.94.15,2.08.64,2.08-1q0-10.59-.06-21.18c0-1.19-.79-1.71-1.9-1.83q-.06-6.53-.13-13l.12-.05c1.69-3.59.69-7.42,1-11.14.18-2-.7-4.31,1.15-6a1.46,1.46,0,0,1,1.53.84c1.4,4.38.63,8.89.78,13.34.48,15-.7,30-1.48,45C89.06,179.77,91.84,175.75,90.89,174.05Z"/><path class="cls-183" d="M91,151l-.06,6A4.67,4.67,0,0,1,91,151Z"/><path class="cls-184" d="M40,143c-1.1-3.54-3.81-6.07-5.77-9.07A56.31,56.31,0,0,1,25,106.75c-.24-3.27-1.6-6.42-1.05-9.77l.68-.44c1.59-.65,3.14-.9,4.61.3,1.85,5.48,1.47,11.37,3.12,16.93,2.24,7.52,5.19,14.61,10.32,20.66.84,1,1.74,2,1.27,3.54l-2,3Z"/><path class="cls-185" d="M53,129a22.75,22.75,0,0,1-6,6.07c-8.78-8.19-12.35-18.72-13.31-30.3-.23-2.77-1.84-6,1.3-8.37a10,10,0,0,1,6.48-.32c2.35.75,3.28,2.4,3.38,4.84.35,8,3.29,15,7.77,21.5C54.11,124.51,55.43,126.66,53,129Z"/><path class="cls-186" d="M53,129c.67-2.22.13-4-1.32-5.93-4.91-6.58-8.12-13.93-7.88-22.3.06-1.91-.91-2.64-1.79-3.73,1.75-1.78,3.9-1.33,6-1.07,3.7,1,5.64,3.79,6.94,7.12,1.44,3.69,3.36,7.14,5.12,10.67,1.28,2.57,2.44,3.08,4.61.72,1.47-1.59,3.12-4.29,5.91-1.51.2,3.32-2.88,4.06-4.62,5.84-2,2-4.3,3.52-6.26,5.51-1.92,1.55-2.67,4.59-5.82,4.58C53.59,128.92,53.29,129,53,129Z"/><path class="cls-101" d="M35,97a49.69,49.69,0,0,0,10.21,34.63c.8,1.06,1.81,2,1.83,3.41L47,136l-3,2c-10.55-11.62-15-25.48-15-41A4.19,4.19,0,0,1,35,97Z"/><path class="cls-187" d="M58.94,123.94c1.82-2.9,4.87-4.5,7.23-6.81,1.34-1.3,3.62-1.82,3.85-4.16a2.87,2.87,0,0,1,1.87-1.66c1.78-.37,3-3,5.33-1.22.06.34.15.77,0,1-4.41,4.29-7.91,9.51-13.23,12.85-2.42,2.9-4.68,5.95-8,7.93,0-.29,0-.59,0-.89-.53-2.41,1.59-3.3,2.74-4.73C59.31,125.44,60.22,124.85,58.94,123.94Z"/><path class="cls-188" d="M58.94,123.94c.79-.11,1.92-.6,2.31-.25,1.1,1-.2,1.63-.74,2.27-1.47,1.7-3,3.33-4.55,5-1.43.06-1.94-.8-2.07-2.06Q56.43,126.42,58.94,123.94Z"/><path class="cls-189" d="M63.94,123.9c3.51-5.41,8.64-9.31,13-13.93.55-2,1.39-3.7,3.93-3.47A2.9,2.9,0,0,1,82.43,108a3.56,3.56,0,0,1-.8,3.39,130,130,0,0,1-14,13c-.77.53-1.54,1.08-2.56.64Z"/><path class="cls-190" d="M65.05,125,67,124a1.38,1.38,0,0,1,0,2c-2.37,2-4,4.85-7.08,6C60.36,128.71,63.76,127.65,65.05,125Z"/><path class="cls-191" d="M11.08,101.94c.61-2.22,3.87-2,4.22-4.46-1-.92-2.21-.34-3.3-.48,2.4-2.15,4.24-.86,6,1,0,.34,0,.67,0,1-2.25,2.29-2.13,5.19-2.06,8.07C14.08,105.59,16.58,100,11.08,101.94Z"/><path class="cls-191" d="M18,98c1-3.6,4-1.34,6-2,.32.22.43.43.32.65S24.1,97,24,97h0C21.93,97,19.85,96.79,18,98Z"/><path class="cls-192" d="M169,89,168,89c-1.83.73-3,4.11-5.68,1.34-1.24-3.83-2.11-7.57.17-11.47,1.16-2,0-4.18-.9-6.17C157.76,63.93,154.13,55,147,48.13A2.86,2.86,0,0,1,146,45a3.54,3.54,0,0,1,2-2c1.39,1.68,3.32.76,5,1,6.37,9.15,12.23,18.51,15.12,29.52,1.08,4.12.19,8.68,2.83,12.41C170.29,87,169.66,88,169,89Z"/><path class="cls-193" d="M101,169c-2.47-.78-3.35-2.52-3-5a5.67,5.67,0,0,1,3.83-2.1c13.92-1,25.76-7,36.47-15.52a9.32,9.32,0,0,1,2.66-1.32l3.1,3.83c-.57,1-.27,2.3-1.16,3.16-5.38,3.18-10.2,7.12-16,9.83A80.65,80.65,0,0,1,101,169Z"/><path class="cls-44" d="M140.07,158.18,139,162c-1.66-1.41-3.31-.15-5,0C135.45,159.81,137.89,159.2,140.07,158.18Z"/><path class="cls-64" d="M142.88,152c.14-1.14,0-2.4,1.16-3.16l.9,1.2c-2.5,1.25.89,5.37-2.92,6A6.3,6.3,0,0,0,142.88,152Z"/><path class="cls-194" d="M111,16l11,3c3.33,1.7,7.23,2.25,10.06,5a3.41,3.41,0,0,1-2.45,1.69c-6.93-2.05-13.6-4.87-20.42-7.25C108,16.26,110.39,16.85,111,16Z"/><path class="cls-195" d="M130,25.06A2.16,2.16,0,0,1,132,24l8,4.94c1.56,1,2.94,2.11,3.09,4.15a2.56,2.56,0,0,0-.17.83A24.36,24.36,0,0,1,130,25.06Z"/><path class="cls-196" d="M130,25.06l13,8.83c-.64,3.31-2.32.81-3.07.32a122.73,122.73,0,0,0-16.16-8.72A11.49,11.49,0,0,0,118,24l-.69,0c-3.19-.48-6.21-1.9-9.52-1.71-3.2.81-6.64-2-9.73.67,0,.7,0,1.4,0,2.11A4.87,4.87,0,0,1,99.22,28a23.75,23.75,0,0,1,.09,2.39c0,1.85,0,3.7,0,5.55,0,1.34,0,2.67,0,4,0,1.62,0,3.23,0,4.85,0,.55,0,1.1,0,1.65.08,1.68,0,3.35,0,5-.07,3.47.23,6.94,0,10.42-.09,2.94.5,6-.89,8.78a1.25,1.25,0,0,1-1.56.47L96.89,20c1.67-3.75,4.8-3.7,8.14-3.11a2.93,2.93,0,0,1,3.94.95C116.44,18.88,123.1,22.23,130,25.06Z"/><path class="cls-197" d="M98,30V28c3.26-2.35,6.6-.89,9.92-.21,3,.61,5.8,2.47,9,1.22,8,1.31,14.34,5.95,21,10.19,2.72,1.75-.49,2.64.18,3.85a1.37,1.37,0,0,1,0,1.33,2,2,0,0,1-2.52.74C130.21,41.61,125,37.74,118.69,36a9.83,9.83,0,0,1-1.3-.53A18.16,18.16,0,0,0,112,33.82C107.5,32,102.3,32.71,98,30Z"/><path class="cls-198" d="M98,23c-.1-1.94.37-3.37,2.73-2.52s4.81.43,7.22.58c3.18,1.49,6.8,1.54,10,3h0l2.4,2.25C113.05,23.73,105.44,24,98,23Z"/><path class="cls-199" d="M117,29c.65,4.16-2.38,1.88-3.42,1.63C108.43,29.39,103.46,27.37,98,28c0-1,0-1.95,0-2.92,2.36,0,4.77-.39,7,.93,4,.9,8.21,1.18,12,3Z"/><path class="cls-200" d="M138,44c.05-.33.09-.66.14-1,3.07-.35,3.27-4.12,5.91-5,1.63.33-.6,3.18,1.91,2.93-3.17,2.16-4.54,6.11-8,8A6.48,6.48,0,0,1,138,44Z"/><path class="cls-197" d="M117,29c-4.06-.76-8.16-1.37-12-3C109.24,26,113.45,26.13,117,29Z"/><path class="cls-201" d="M149.92,29.93c1.06.36,2.56.51,1.29,2.18-.42.56-1.09,1.67-1.84.93-1-1,.37-2.05.55-3.1Z"/><path class="cls-202" d="M109,17.82,105,16.87c1.1-1.37,2.71-.62,4-1L111,16Z"/><path class="cls-102" d="M163,96c1.68,2.16,4.46-1.56,6,1.13a1.23,1.23,0,0,1,.5.94,1.35,1.35,0,0,1-.59.91c-2.08,3.08-.93,6.71-1.59,10.06a71.24,71.24,0,0,1-13.8,30.74c-1.3,1.66-.38,2.19.44,3.13l-4,.08c-1.7.05-3.25-.2-4-2a2,2,0,0,1-.5-1.4c1.08-3.66,4.43-5.68,6.33-8.83,6-9.9,8.92-20.65,10-32a5.79,5.79,0,0,1,.34-1.48A6.39,6.39,0,0,1,163,96Z"/><path class="cls-59" d="M172.92,100.88A2.09,2.09,0,0,0,175,102a6.33,6.33,0,0,1,.06.86l-3,1.15c-.11-1-.21-1.93-.31-2.9l.51-.45Z"/><path class="cls-203" d="M168.91,99l.21-1.19a2.8,2.8,0,0,1,3.06,3l-.41.24A3.75,3.75,0,0,1,168.91,99Z"/><path class="cls-139" d="M171.91,107.91c-.14,1.74.75,3.69-1,5.1C170.94,111.25,170.47,109.39,171.91,107.91Z"/><path class="cls-165" d="M163,97c0,.32,0,.65,0,1a9.92,9.92,0,0,0-4.94,8.1c-1.06,10.67-6.65,19.58-11.27,28.85-1.32,2.64-3.52,2.67-5.81,1l-2-2c-1-1-2.76-1.56-2-3.55,7.3-7.6,9.84-17.45,12.78-27.11.82-2.68,1.4-5.49,4-7.19C156.91,95,160,95.64,163,97Z"/><path class="cls-204" d="M141,136c2.77.16,4.27-.1,5.45-3.71,1.59-4.83,4.89-9.13,6.93-14s2.7-9.75,3.72-14.7c.67-3.2,1.5-6.31,5.92-5.55-1,15.9-5.88,30.22-17,42-2.44.27-3.12-2.33-5-3Z"/><path class="cls-142" d="M132,132c-1.84-1.25-3.78-2.44-4-5,2.63-3.12,4,.91,6.1,1a3.41,3.41,0,0,1,2.16,2.37L136,131C134.66,131.44,132.53,128.51,132,132Z"/><path class="cls-142" d="M141,137c2.29,0,3.12,2.32,5,3,0,.34,0,.68,0,1C143.46,140.66,142.19,138.86,141,137Z"/><path class="cls-142" d="M137,131l2,3a2.86,2.86,0,0,1-3-3v0A.64.64,0,0,1,137,131Z"/><path class="cls-205" d="M107,111.06Q113.49,118,120,124.9c1.65,2.6-.11,3.91-1.93,5.26a40.37,40.37,0,0,1-15,6.53c-3.19.76-6.16.8-5.65-4.07.15-1.42-1.21-2.69-1.51-4.18-.26-4.44-1.31-9,1-13.21C100,113.24,103.2,111.46,107,111.06Z"/><path class="cls-206" d="M97,129c.64,1.57,2.59,2.55,1.38,4.92-.93,1.85,1,2.25,2.3,2a45,45,0,0,0,18.72-8.2c.58-.43.44-1.85.63-2.81,4,.84,5.06,5,8,7.1-.51,3.93-4,5.41-6.69,6.86a53.58,53.58,0,0,1-19,6.16c-3.14.4-5.07,0-4.42-3.87.11-.65-.58-1.44-.9-2.17A8.51,8.51,0,0,1,97,129Z"/><path class="cls-165" d="M98,159a26.74,26.74,0,0,0,0-3.47c-.59-3.95,1.48-4.3,4.87-4.66,10.78-1.13,20.07-6.12,28.64-12.5.48-.36.35-1.53.5-2.33,1.95,2.38,5.34,3.5,6.06,7-.79,1.44-2.29,1.79-3.64,2.38-2.9,1.25-6.13,2-7.35,5.54a2,2,0,0,1-1.07,1C117.05,155.83,108.27,160.38,98,159Z"/><path class="cls-207" d="M98,159c5.39-1.44,10.94-2.28,16.38-3.33,3-.57,3.71-3.87,6.79-3.61,3.29.27,4.87-1.74,6.78-4.49,2-2.93,6.32-3.86,10.09-4.58,1.54-.11,1.91,1.43,2.91,2.07-5.61,6.3-12.75,10.31-20.37,13.62-7.22,3.14-14.91,4.16-22.59,5.32C98,162.3,98,160.64,98,159Z"/><path class="cls-208" d="M97,71.11a3.19,3.19,0,0,0,1-.08c2.94-1.64,5,.48,7.21,1.74,2.41,2.23,5.6-1.85,7.94,1,.81,2.61-2.12,3.45-2.6,5.47.76.67,2,.29,2.65,1.16,2.27,8.38,8.48,9.22,15.7,8.29a14.21,14.21,0,0,1,4.45.21,4,4,0,0,1,1.44.62,1.38,1.38,0,0,1,.51,1.39,2.75,2.75,0,0,1-1.2,1,15,15,0,0,0-5.6,2c-4.56,1.2-9.29-.11-13.83.87-.92,1.27.58,1.64.92,2.44,1,2.14.31,4.18-.59,6.07a6.75,6.75,0,0,0,0,6.48c-.13,1.18,1.74,3-1,3.36-3.21-1.14-4.93-4.22-7.73-5.89l-.49-.45a2.43,2.43,0,0,1,.08-1.28c1-1.69,1.15-3.75,2.51-5.25,1.5-1.8,1.09-3.77.49-5.75a4.48,4.48,0,0,1-.52-2.64c1.89-5.15,1.13-7-5.1-12.25a1.77,1.77,0,0,1-.5-1.14c1.22-2.49-1.74-1.75-2.27-2.89L100,75C98.86,73.78,96.37,73.64,97,71.11Z"/><path class="cls-209" d="M113.9,113.05c1.28-1-.25-2.06.07-3.08,5.71,1.38,8.15,6.55,11.89,10.22.42,1.79,2.39,4.37-1.89,3.82Z"/><path class="cls-210" d="M107,111.06c-2.71,2-5.54,3.75-9,4-.91.21-1.32-.34-1.6-1.06a2.83,2.83,0,0,1,.32-2.07c1.58-1.28,3.3-2.37,5-3.53,1.41-.56,2.53-2,4.33-1.4l.22.2C105.63,108.62,106.39,109.82,107,111.06Z"/><path class="cls-211" d="M124,124c3.52-.57.55-2.71,1-4a1.62,1.62,0,0,1,1.32-.24c2.82,1.74,4.83,4.35,7.14,6.65.53.79,1.11,1.57.55,2.59-2.4.53-3.19-3.71-6-2C128,124.15,124.81,125.67,124,124Z"/><path class="cls-212" d="M96.91,114l1,1c-1.81,4.55-.61,9.31-.94,14,0,3.33,0,6.66,0,10,0,7.94,0,15.89-.06,23.84,0,1.74.62,3.68-1,5.17v-5.78l-1,0c0,3.89.07,7.79,0,11.69,0,1.73.65,3.65-1,5.09q0-29.47-.07-58.95a.86.86,0,0,1,.3-1.23c1.92.67,1.31,2,1,3.34,1-2.61-1.54-5.42.36-8A.88.88,0,0,1,96.91,114Z"/><path class="cls-213" d="M137.92,53A11.19,11.19,0,0,1,142,49c5.32.67,6.84,5.48,9.17,9,5.26,8,8,16.89,6.86,26.64a8.22,8.22,0,0,1-1.79,4.56c-4.75,1-6.54-.46-7.41-5.69-.95-5.68-1.82-11.43-4.21-16.7a102.92,102.92,0,0,0-6.77-12.52A1.37,1.37,0,0,1,137.92,53Z"/><path class="cls-214" d="M156,89c3.22-16.08-2.37-29.08-14-40l4-4c8.27,7.74,12.79,17.83,17.19,27.92,1.07,2.44,2.54,5.09-.26,8-2.44,2.56.38,6,.05,9a3.11,3.11,0,0,1-2.59,1,7.19,7.19,0,0,1-1.4-.24A5.66,5.66,0,0,1,156,89Z"/><path class="cls-150" d="M137.92,53c0,.33,0,.67,0,1-.6,2.58-3,3.78-4.45,5.66q-3.57,3.48-7,7.07c-5,4.3-8.7,9.93-14.44,13.38-1.2,0-2,2.37-3.35.84s.36-2.29,1.13-3.22c1-1.26,2.14-2.46,3.22-3.68,2.73-5.25,7.78-8.39,11.55-12.69,1.2-1.36,2.54-2.6,3.81-3.89,2.93-2.09,4.41-6.05,8.53-6.6A2.43,2.43,0,0,0,137.92,53Z"/><path class="cls-215" d="M136.89,50.82,129,57.93a3.61,3.61,0,0,1-1.6-3.73c.85-2.74,2.82-4.71,4.7-6.73,1.27-.88,2.29-2.2,4-2.34L138,44A8.37,8.37,0,0,1,138,49C137.59,49.57,137.24,50.19,136.89,50.82Z"/><path class="cls-216" d="M160,90h3c2.15,2.14,3.15-1.81,5.06-.95-2.39,3.38-1.12,4.27,2.53,4,3.1-.24,6.24-.08,9.37-.1-4,2.26-8.3.57-12.44,1-2.11.22-4.26.08-6.4.11a.81.81,0,0,1-1.09.16c-.46-1-.28-2.11-.59-3.13A1.67,1.67,0,0,1,160,90Z"/><path class="cls-217" d="M159.72,93.84l1.36.21c-.13,1.38.69,1.86,1.89,2,0,.33,0,.65,0,1H153a5.36,5.36,0,0,1-3.32,1.32c-4.5.08-9,.24-13.51.11-1.49-.16-3-.15-4.22-1.29,1.36-4,3.89-1.35,6.49-1.28a21.58,21.58,0,0,0-6.94-.72c-6.5,0-13.12,1.69-19.45-1.12,5.53-2.26,11.33-.45,17-1.07,1.21-1.07,2.7-.94,4.15-1,5.74.43,11.49.65,17.25.59.58,0,1.16,0,1.74,0C154.68,92.87,157.43,92,159.72,93.84Z"/><path class="cls-218" d="M172.18,100.86l-3.06-3q0-.33-.12-.66l2.94-.12a5.22,5.22,0,0,1,1,3.86h-.37Z"/><path class="cls-219" d="M11,91c0-.65,0-1.31,0-2,1.71.23,3.65,1.51,5.06-.15,1.19-1.4-1.5-2.33-1.08-3.87a7.85,7.85,0,0,1,3.13,3c.29.21.39.43.3.65s-.19.33-.28.33c-1.23,1.2-.52,3.92-3.16,4C14,91.55,11.91,92.43,11,91Z"/><path class="cls-220" d="M18.12,88.94a4,4,0,0,1,0-1c3.64-.7.54-4.65,2.89-6v8Z"/><path class="cls-221" d="M17,70c-1.27,1.72-.63,5-4.09,4.93,0-1.32.05-2.63.08-3.94.32-.34.64-.68.95-1Z"/><path class="cls-222" d="M64.06,69a62.13,62.13,0,0,1,9,8.93c3.63,2.54.34,5.29.26,8-1.87,5.32-2.43,5.65-8.75,5.17a38.71,38.71,0,0,0-7.76-.9c-5.69-.3-8.11-2.52-6.18-8.27A41.39,41.39,0,0,1,57,69C59.56,65.73,60.81,65.8,64.06,69Z"/><path class="cls-223" d="M64.06,69c-2.56-2.41-4.58-1.69-6.44,1-3,4.24-4.77,9-6.38,13.87-1,3,2.47,6.39,5.91,5.16,2.82-1,4.66.13,6.84,1a2.66,2.66,0,0,1-1.7,1.88c-5.93.69-11.88,1.47-17.64-1-2.13-1.67-.26-3.53-.43-5-.57,1.07-.65,3.33-2.76,3.07-1.52-.18-1.75-2-1.59-3.26A46.85,46.85,0,0,1,52.16,59.19,1.63,1.63,0,0,1,54,59C57.42,62.24,61.62,64.72,64.06,69Z"/><path class="cls-224" d="M54,59c-7.87,8.11-12.14,17.8-13.3,29.76,3.4-2,2.43-5.22,4.72-8.1.92,3.92-.59,6.6-1.44,9.33-2.93,3.21-6,2.67-9.19.43-2.31-6.34,1.14-11.89,2.72-17.6,1.46-5.24,4.78-9.72,8-14.13,1.28-1.77,2.61-4.08,5.56-2.7A6.56,6.56,0,0,1,54,59Z"/><path class="cls-165" d="M26,89.94H25A2.72,2.72,0,0,1,25,86c1.77-1.13,1.74-3.17,2.1-4.85,2.16-10.09,7-18.91,12.6-27.39,1-1.46,2.58-2.75,1.76-4.88A2.1,2.1,0,0,1,42,47l0,0c3.33.83,5,3.58,6.92,6a3.47,3.47,0,0,1-1.11.79c-1.86.26-2.69,1.76-3.72,3.05-5.48,6.85-8.89,14.71-11.37,23-.63,1.88-.34,3.89-.86,5.78C31,88.68,29.57,90.73,26,89.94Z"/><path class="cls-225" d="M48,53h1L51,56c-5.26,1-6.32,6.18-8.58,9.67-4.71,7.24-6.79,15.64-7.48,24.3-3,2.1-6,2-9,.09l0-.08c3.67-1,5.1-3.62,5-7.29,0-1.29-.3-2.7,1-3.66.54.64,1.06,1.29.67,1.69A66.52,66.52,0,0,1,44.37,56.21C45.37,54.86,46.27,53.51,48,53Z"/><path class="cls-210" d="M63,91l1-1c3.67-.06,8.17,1.2,8-5,1.74-1.21,1.91-4.38,4.95-4l1.93-.09.52.48c.85,1.89-.47,3.05-1.44,4.34-1.06,1.58-.71,3.35-.65,5.07,1.25,4.63-.76,9.38.67,14.09a2.64,2.64,0,0,1-3.35,3c-1.58-2.94-3.5-5.75-3.57-9.26.15-1.49,1.3-2.28,2.2-3.23a1.48,1.48,0,0,0-.1-1.07,11.09,11.09,0,0,0-2.27-1.17C68.52,91.48,65.19,93.23,63,91Z"/><path class="cls-226" d="M80,76c1.36,4.21,3.65,2.85,6,1,1.25.82,2.85,1.58,2.25,3.4-.54,1.62-2.15,1.25-3.44,1.08-1.49-.2-3,.17-4.46-.11C79.23,79.92,79,77.75,77,77a60.85,60.85,0,0,1-10-10c1.86-1.22,3,.25,4.18,1.2s2,2.61,4,2.42c1.92.21,3,1.55,4.14,2.92A3.78,3.78,0,0,1,80,76Z"/><path class="cls-227" d="M74.94,71c-.43,2.47-1.35.86-2.13.26-1.9-1.47-3-4-5.76-4.33a11,11,0,0,1-4-4A1.72,1.72,0,0,1,65,61a3.7,3.7,0,0,1,1.94.68C69.78,64.66,73.21,67.12,74.94,71Z"/><path class="cls-228" d="M77,81c-2.25.59-2.42,3.76-4.95,4,.18-2.38,3.32-4.34,1-7.09C75,78.15,76.08,79.42,77,81Z"/><path class="cls-210" d="M77,77c2.5.22,3.1,1.83,2.93,4a.55.55,0,0,1-.84.16l-.23-.22C79.22,79.13,77.49,78.35,77,77Z"/><path class="cls-220" d="M42,47c0,.66,0,1.33,0,2,.78,1.75-.49,2.8-1.41,3.91C33,62,28.85,72.65,26.61,84.15A3.35,3.35,0,0,1,26,86c-1.46,1-.86,2.6-1,4l-3,0c.27-13,5.62-24.29,12.57-34.84C36.52,52.15,37.5,47.84,42,47Z"/><path class="cls-85" d="M11.94,77a10.49,10.49,0,0,0-1,5.08L9,81C8.88,78.82,9.43,77.17,11.94,77Z"/><path class="cls-229" d="M63,91c3,.66,6.67-1.64,9,2-3.34,2.64-7.56.46-11.09,2-10.57.93-21.17-.43-31.75.28a4.65,4.65,0,0,1-4.08-1.42c0-.32,0-.64,0-1a12,12,0,0,1,5.2-.94,10.12,10.12,0,0,0-5.18,1l-4,0c-.63-1.11.41-1.37.95-1.89,1.37-.16,2.92.39,4-1l9-.09a11.13,11.13,0,0,0,9,0C50.25,91.5,56.63,90.8,63,91Z"/><path class="cls-150" d="M25.06,93.89l35.87,0A42.83,42.83,0,0,1,75,94a8,8,0,0,1,0,1c-1.43,2-3.75,2.23-5.79,2.27C54.43,97.56,39.72,96.35,25,96c-.34-.63-.67-1.27-1-1.91Z"/><path class="cls-230" d="M11,91c1.53.25,3.66-.73,4,2-1.49,0-3,.06-4.47,0-.78,0-2,.1-1.91-1C8.7,90.69,10.07,91.1,11,91Z"/><path class="cls-219" d="M22,91c-.32.63-.64,1.26-.95,1.89-.71-.14-1.86,0-1.49-1.15S21.12,91.09,22,91Z"/><path class="cls-231" d="M25,96q22.34,0,44.68,0c1.85,0,3.66,0,5.29-1,.23,2.22-2.32,1.67-3,3-7.7.72-15.41,1.49-23-1H29l-5,0c0-.32,0-.65,0-1Z"/><path class="cls-185" d="M60,55a48.19,48.19,0,0,1-9-9A61,61,0,0,1,85.59,30c1.84-.21,4,.06,3.89,2.65-.06,2.29-2,2.34-3.7,2.31A26.57,26.57,0,0,0,72.3,38.54c5.42-2.48,11.59-5.22,18.57-2.56-1.06,3.94,1.61,8.16-.89,12-2.06-5.6-5.73-5.62-10.76-3.85C72.1,46.63,65.26,49.35,60,55Z"/><path class="cls-232" d="M60,55c0-1.33-.06-2.75,1.27-3.53C67,48.07,72.52,44.09,79.37,43a14.06,14.06,0,0,0,1.47-.16c7.24-2,7.23-2,9.14,5.14,1.21,6.62,1,13.32,1,20-1.29.55.73,3.71-2.29,2.91-2-4.25-.76-8.75-1-13.13-.27-5-.84-5.49-5.58-4.13C76.19,55.33,71.2,58.85,66,62L65,61l-2-3a7.84,7.84,0,0,0-3-3Z"/><path class="cls-233" d="M90.87,36c-8.2-1.25-15.52,1.75-22.88,4.85,4.54-4.78,10.55-5.7,16.49-6.85,1.51-.29,4.53,1,4-1.87-.42-2.13-3-.75-4.74-.55-11.4,1.33-20.83,7-30.05,13.28A17.27,17.27,0,0,1,51,46a6.25,6.25,0,0,1-3-3A74.91,74.91,0,0,1,90.83,25Q90.86,30.48,90.87,36Z"/><path class="cls-234" d="M79.12,81.12A4.62,4.62,0,0,1,80,81c2.35-1.53,4.88-.93,7.76-.11L86,77a26.67,26.67,0,0,1,8-2h0c1.91,1.09,4.19,0,6.12,1a3.9,3.9,0,0,1,2.78,2c0,.31.09.62.12.94a2.43,2.43,0,0,1-1.91.79c-1,.18-2.17-1-3.37.33,1.41,2.62,5.48,3.38,5.4,7.11.12.88.26,1.77.38,2.66a3.18,3.18,0,0,1-.21,1.33,2.19,2.19,0,0,1-1.66,1.08c-1.54-.41-2-1.72-2.47-3A8.16,8.16,0,0,0,98,86.17c-.85-.64-1.59.08-2.38.18a1.63,1.63,0,0,1-1.15-.61c-.91-.5-.55-3.91-2.76-1.34-1.4,1.63-3.3,1.16-4.92,1.77-2.77-2-5.63-2.33-8.63-.5A2.29,2.29,0,0,1,77,85C78,83.88,79.28,82.88,79.12,81.12Z"/><path class="cls-98" d="M89,71l2-3c.32,2.8-.46,4.7-3.59,5.41A62.65,62.65,0,0,0,80,76a2.1,2.1,0,0,1-1-2C82.24,72.81,85.09,70.2,89,71Z"/><path class="cls-185" d="M60,55a2.82,2.82,0,0,1,3,3A6.29,6.29,0,0,1,60,55Z"/><path class="cls-174" d="M100,77c-1.74-1.48-4.36-.24-6-1.94l6,0h0A1.3,1.3,0,0,1,100,77Z"/><path class="cls-235" d="M67,126v-2l14-13a19,19,0,0,1,2.68,1.49c1.76,1.18,4,1.54,5.31,3.47,0,4.83-.22,9.68.08,14.49.27,4.52-2,5.27-5.47,4.15-4-1.29-7.63-3.38-12.22-2.87C67.76,132.16,69.33,127.3,67,126Z"/><path class="cls-236" d="M89,116a11.47,11.47,0,0,1-6-3c4.71.77,9.05-3.84,13.92-1v2L96,114c-2.07,1.12-.16,3.84-2,5,0,.34,0,.69-.08,1l-1,0a2.56,2.56,0,0,1-2-.05C89.37,119.11,90.61,116.84,89,116Z"/><path class="cls-237" d="M90.94,120c.68-1.11,1.31-.08,2,.05,0,4,.07,8.1.09,12.16a5.7,5.7,0,0,1-2,4.74Z"/><path class="cls-238" d="M49,97c7.65.5,15.4-1.24,23,1-.32,3.73,3.34,6.27,3,10,.27,2.3-1.62,2.93-3,3.93L70,113c-2.43-.85-3.56,1-4.7,2.46a11.68,11.68,0,0,1-3.89,3.13C56.24,111.88,55.59,102.79,49,97Z"/><path class="cls-239" d="M71.94,111.92,75,108c4.48-2.85-.57-7.06,1.49-10.55.91-1.54-.23-4.28-.45-6.48,1.08-.42,1.73.22,2.34.94.76,1.71,1.08,3.67,2.73,4.89.64,1.39-2.11,1.83-.92,3.37-.87,1-.68,2,.09,3s2,2.31.69,3.86c-2.18-.17-2.25,2.54-4,2.92C74.76,109.32,74.28,113,71.94,111.92Z"/><path class="cls-210" d="M96.91,112c-2.37.08-4.61-.5-6.7,1.84S85.59,112.1,83,113a1.83,1.83,0,0,1-2-2c.32-1,.65-2,1-3,1.67-.9,3.43-.2,5.14-.33,3.62-.11,7.28.69,10.83-.65a4.36,4.36,0,0,1,4,2C100.5,110.37,99.38,112.33,96.91,112Z"/><path class="cls-240" d="M87,109a8.63,8.63,0,0,1-5-1l-1-1c.11-2.15-1.74-3-2.81-4.44-2-2.59,0-2.56,1.8-2.59,2.52.37,4.18,2.13,6,3.71C87.15,105.29,88.63,106.8,87,109Z"/><path class="cls-241" d="M98,40,98,36c3.81-2.65,7.63-.77,11.42,0A37.81,37.81,0,0,1,115,37.83a4.92,4.92,0,0,1,1.31.76c1.43,3.94,4.5,6,8.16,7.76,4.73,2.28,4.94,3.42,2.91,7.94a1.44,1.44,0,0,1-1.77.94,52.8,52.8,0,0,0-5.41-2.47,4.07,4.07,0,0,1-2.66-2.08c-1.56-3.5-1.59-3.44-4.87-5.29a26.79,26.79,0,0,0-9.4-3C101.31,42.07,99.37,41.75,98,40Z"/><path class="cls-242" d="M98,40c6.44,1.19,13,2.12,18.58,6,1.22.83,3.23.48,1.69,3.14-.94,1.63,1.38,2.48,2.72,2.67,2.35.32,4.07,1.22,5,3.42-.37,2.57-1.42,4.33-4.44,3.74C116.23,53,110.19,48.11,102,46.53c-1.44-.28-3-.36-4.07-1.54C98,43.33,98,41.67,98,40Z"/><path class="cls-243" d="M105,74a14.54,14.54,0,0,0-7.08-3c0-3,0-6,0-9,7.09-3.76,12.91-1.12,14.86,6.73C111.31,72.11,109.41,74.92,105,74Z"/><path class="cls-244" d="M112.06,69.22C109.21,62,108,61.37,97.94,62c0-3.67,0-7.33,0-11,2-1.34,4-.78,4,1.41,0,3.07,1.35,2.89,3.31,2.28s3.44-.57,4.57,1.48c1,1.83,3.27,2.07,4.85,3.22s3.27,2.27,3.08,4.64C116.72,66.7,115.27,68.92,112.06,69.22Z"/><path class="cls-245" d="M117.06,64.22c0-2.94-2.73-3.45-4.46-4.78-1.51-1.15-4.44-.44-4.35-3.72,0-.91-1.22-.54-2-.31-5,1.43-4.82,1.41-5-3-.09-1.73-2-1.25-3.21-1.38V46c3.5-.31,3,.45,6.76,3.11a32.06,32.06,0,0,0,8.51,4.6,20.15,20.15,0,0,1,8.16,5,2.22,2.22,0,0,1-.15,1.32,3.39,3.39,0,0,0-2.6,3.17A1.61,1.61,0,0,1,117.06,64.22Z"/><path class="cls-246" d="M121.12,60.12c-.39-3.37-5.3-1.06-5.65-4.48-4.65.57-6.65-5.22-11.32-4.7-1.17.13-2.51-.23-2.66-1.66-.2-1.79,1.9-.81,2.74-2L98,46c0-.33,0-.67,0-1,9.81-.29,16.72,5.46,23.48,11.4.59.51.43,1.87.62,2.83A1,1,0,0,1,121.12,60.12Z"/><path class="cls-247" d="M116,39c-6-1-11.69-3.88-18-3,0-2,0-4,0-6,5.12.29,10.19.87,15,3,1.57.92,3.4,1.18,5,2h0c.55.71,2.3.35,1.91,1.74a2,2,0,0,1-2.51,1.07c-2.83-.71-5.43-2.22-8.41-2.5-.63-.21.06,1.06-.06.4,0-.07.1-.12.33-.06C111.76,36.21,114.9,35.54,116,39Z"/><path class="cls-130" d="M118,24c-3.54-.34-7.12-.5-10-3C111.51,21.32,115.11,21.43,118,24Z"/><path class="cls-248" d="M116,39c-2.11-2.38-5.37-2.18-8.2-3.59,3.63-1.24,6.47,1,9.56,1.47s1.14-1,.64-1.88A31.9,31.9,0,0,1,136,45.13,6.57,6.57,0,0,1,133,48c-6.2-2-11.52-5.7-17-9Z"/><path class="cls-248" d="M118,35a5.77,5.77,0,0,1-5-2A5.81,5.81,0,0,1,118,35Z"/><path class="cls-147" d="M150,97h3a178.79,178.79,0,0,1-9.59,27.57A13.51,13.51,0,0,1,137,131h-1a3.42,3.42,0,0,0-2-2l-1-2c3.65-5.89,7.56-11.65,9.55-18.43.42-1.43,1.17-2.79,1.12-4.3C143.47,99.81,145.66,97.5,150,97Z"/><path class="cls-249" d="M132,96.94l4,.07c1,8-2.21,14.76-6.24,21.25A3.28,3.28,0,0,1,126,120l-1,0-11-10c-1.63-2-2.57-3.83-.52-6.43A9.34,9.34,0,0,0,115,97,21.2,21.2,0,0,1,132,96.94Z"/><path class="cls-250" d="M112,80.06A106.13,106.13,0,0,1,125.93,66c3.34.17,7.86,5.13,6.18,7.24-2.85,3.58,0,5.75.88,8.43s3.17,5.24,1,8.32c-4.77,0-9.55-.19-14.3.13-3.28.21-4.71-.94-5.31-4.1C114,83.92,112.82,82,112,80.06Z"/><path class="cls-251" d="M134,89.94c.23-5.1-3.2-8.91-4.69-13.4-.35-1.06-3.36-3.88,1.33-2.9a.8.8,0,0,0,.86-1.24c-2-2-1.75-6-5.56-6.45a33.47,33.47,0,0,1,7-7c1.4-.3,1.61.78,1.95,1.69A191,191,0,0,0,147.8,88.85c.56,1,.08,1.5-.71,2-4.1.6-8.22,1.5-12.12-.82Z"/><path class="cls-252" d="M121.12,60.12l.95-.9,4-4,1-1c.29-.7.61-.71,1,0,.32,1.25.64,2.49.95,3.74A164.59,164.59,0,0,1,113,74c-2.67-2.13-5.34,3.14-8,0,3.71.41,5.16-2.53,7.06-4.78a20,20,0,0,0,5-5l1-1a4.87,4.87,0,0,1,3-3.12Z"/><path class="cls-253" d="M132,96.94,115,97c-2,0-3.34-.66-3-3,9,.23,18.1-1,27.53,1.22C136.82,96.81,134,94.92,132,96.94Z"/><path class="cls-254" d="M151.13,93.31C145.06,94.46,139,93.73,133,93c-.62-1.17.44-1.44,1-2a6,6,0,0,0,1-.05c5.51-1,11.13,0,16.64-1C154.85,91.58,152.59,92.39,151.13,93.31Z"/><path class="cls-255" d="M101,79h2c5.9,1.74,9,8.42,6,13a4.89,4.89,0,0,1-3.67,2,4.58,4.58,0,0,1-2.13-.38A2.13,2.13,0,0,1,102,91.83l1-.85c5.55-3,5.56-4,.24-8.18C102,81.85,100.35,81.06,101,79Z"/><path class="cls-256" d="M110,94c.35,2.43,1.94,5-1,7-1.45-1.11-2.59-.83-3.4.8s-1.42,3.14-3.59,2.83a1.66,1.66,0,0,1-1.28-1.53c.89-3.59,2-7,5.61-8.93C107.47,92.69,108.78,94.89,110,94Z"/><path class="cls-257" d="M153,91.07,135,91c0-.32,0-.64,0-1l13-.09c3.66-1.69,7.33-.1,11,0l1,.08c0,.34,0,.67,0,1-1.64,1.53-3.58,1.37-5.57,1A3.34,3.34,0,0,1,153,91.07Z"/><path class="cls-258" d="M105,101c.17-1.15.23-2.52,1.88-2.35A2.19,2.19,0,0,1,109,101c-1.68,1.27-.36,4.3-2.95,5-1.37.67-2.47.5-2-1.26C104.41,103.5,104.15,102.1,105,101Z"/><path class="cls-259" d="M105,101c.88,1.57-1.8,3.87,1,5,0,.32,0,.63-.06.95-1.35.63-2.26,2.12-4,2l-4-1.08c-.35-1.21.61-1.51,1.35-2a14.3,14.3,0,0,0,2.59-1.93C104.14,104.19,103.68,101.71,105,101Z"/><path class="cls-98" d="M100,77c0-.65,0-1.31,0-2,1.87-.12,3.56.3,4.27,2.21.23.62-.79.75-1.39.85Z"/><path class="cls-257" d="M134,91l-1,2-4,0C129.67,89.74,132.24,91.39,134,91Z"/><path class="cls-260" d="M110,94c-1,1.58-2,.23-3.07,0-1.16.62-2,.59-1.94-1l4-1A2.23,2.23,0,0,0,110,94Z"/><path class="cls-206" d="M126,120c6.28-4.64,7.27-11.86,9-18.7.35-1.42.32-3,1-4.29h14c-3.58,1.43-4.38,4-5.29,7.85-1.95,8.17-4.18,16.7-11.7,22.13A30.79,30.79,0,0,1,126,120Z"/><path class="cls-261" d="M94,119a37,37,0,0,1,0-4.47c.17-1.36,1-1.58,2-.56v9.29C94.34,121.92,95.63,119.73,94,119Z"/><path class="cls-262" d="M159,89.91H148c-4.8-1.11-4.91-5.68-5.78-9a39.67,39.67,0,0,0-6.93-14c-2.21-2.82.37-6-2.3-7.92a17.32,17.32,0,0,1,5-5,3.44,3.44,0,0,1,3.25,1.95c4,9.22,8.51,18.25,9,28.63.14,3.27,2.37,5,5.83,4.45C157.05,89,158.2,88.81,159,89.91Z"/><path class="cls-263" d="M128,54.19l-.48,0-.47.08c1.42-2.8,1.19-5-2.09-6.29-1.22-.47-2.33-1.18-3.51-1.74C118.37,44.74,115.7,43,116,39c6.45,1.53,11.7,5.36,17,9Z"/><path class="cls-254" d="M154,91l6-.05a2,2,0,0,1-.24,2.85l-7.58-.41c1.34-2.38,3.93.12,5.65-1.45C156.18,92.53,154.66,93.32,154,91Z"/><path class="cls-264" d="M154,91c.95,1.46,2.75.5,4.21,1.53l-6,.86-1-.12c0-1.28,1.43-1.33,1.86-2.24A5.25,5.25,0,0,1,154,91Z"/><path class="cls-265" d="M26,86a54.28,54.28,0,0,1,12.68-32.1A20.69,20.69,0,0,0,42,49c2.08.27,2,1.23.87,2.61-5.44,6.48-9.09,14-12.33,21.73-1.7,4-2.49,8.45-3.71,12.69,0,.1-.27.21-.41.2S26.13,86.07,26,86Z"/><path class="cls-266" d="M48,53C40.75,61.89,35.91,72,32.2,83L32,79c2.07-9.24,6.71-17.19,12.35-24.64C45.28,53.1,46.18,51.89,48,53Z"/><path class="cls-231" d="M75,94l-14-.07C64.48,92,68.32,93.55,72,93,73.06,93.07,74.27,92.77,75,94Z"/><path class="cls-240" d="M77.92,92.05,76,91c.16-2-.77-4.21,1-6l1.08.05c.67,1.46,0,3.06.45,4.55a3.43,3.43,0,0,1-.14,2Z"/><path class="cls-222" d="M89,71c-3.48.54-6.08,4-10,3l-4-3c-3.53-2.49-6-6-8.93-9.09C71,55.1,78.65,53.33,86.1,51.2c2.68-.76,2.89,1.31,2.88,3.31C89,60,89,65.49,89,71Z"/><path class="cls-267" d="M25.07,92.93c3.17-3,6.69-2.17,10.27-.87-3.32,1.43-6.85.73-10.29.87Z"/><path class="cls-268" d="M102,91.83l1,1.1c.52,8.46-.24,9.36-8.12,9.37-2.5,0-5,.12-7.5-.13a4.23,4.23,0,0,1-3.92-2.63c-.95-2.47,2.21-9.29,5.22-11.28,3.92-2.59,8.09-2.28,11.13.82C100.55,90,101.27,90.92,102,91.83Z"/><path class="cls-269" d="M99.84,89.08c-6.8-3.27-13.65.2-15.34,7.75-.58,2.59.06,4.23,3.07,4.15,1.49,0,3,0,4.48,0,3-.06,6.53.8,8.71-.55,1.66-1,1.58-4.88,2.27-7.48L105,93a2.11,2.11,0,0,0,1.94,1c-.15.79-.19,2.21-.48,2.26-3.14.6-3.6,2.78-3.65,5.43,0,.92-1,1.16-1.86,1.33a3.31,3.31,0,0,1-2.87.92c-2.92-.51-5.84-1.11-8.77-.06-1.43.4-2.85,1.2-4.3.09-1.64-1.38-3.89-2-5-4-1.1-1.51.4-2.12,1.06-3a3.74,3.74,0,0,1,.59-1.07A24.65,24.65,0,0,0,84,92.36c.54-1,1-2,1.49-2.94a9,9,0,0,1,2.27-2.81c2.31-1.29,4.63-2.51,7.23-.67H96c.89-.69,1.72-1.53,3-.89A5.1,5.1,0,0,1,99.84,89.08Z"/><path class="cls-270" d="M101,79a6.94,6.94,0,0,0,4,3.5,5.21,5.21,0,0,1,3.35,6.37c-.6,3-3.37,1.93-5.39,2.13,0-.32-.06-.64-.07-1,.88-1.24,3-1.89,1.71-4.2-.8.73-.68,2.79-2.57,2.14.1-2.24-.82-4.1-2.91-4.7-2.91-.84-4.17-2.83-2.81-5.11C97.61,76,99.38,78.8,101,79Z"/><path class="cls-271" d="M77.84,90.13c-1.63-1.78-.7-3.44.24-5.1,3.43-3.91,6.3-3.1,8.77,1,.1.21.19.41.29.61a2.15,2.15,0,0,1-1.84,1.67c-1.07-.13-2-.84-3-1a3,3,0,0,0-3.46,2A2.37,2.37,0,0,1,77.84,90.13Z"/><path class="cls-272" d="M95,85.94c-2.52.1-5.23-.51-7.09,2-.74-.4-.38-1.43-1.06-1.86v0a28,28,0,0,1,5.22-4.38C95.19,80.13,94.78,83.84,95,85.94Z"/><path class="cls-273" d="M102.06,88c2.35-.77.78-2.78,1.1-4.3,3.2.2,3.43,2.75,3.51,4.57.13,2.59-2.35,1.42-3.75,1.79A2,2,0,0,1,102.06,88Z"/><path class="cls-272" d="M98.94,85.06,96,86C96.43,83.9,97.33,83.26,98.94,85.06Z"/><path class="cls-240" d="M86.11,90.13l-1.17,2.75c-1.64.89-2.32,2.5-3.07,4.06A6.58,6.58,0,0,0,81,97c-4.07.25-2.71-2.88-3.07-4.94l.16-.14c1.36-.77,3-.8,4.32-1.69.95-.59,1.75-1.46,3-1.55C86.06,88.93,86.61,89.26,86.11,90.13Z"/><path class="cls-274" d="M85,104l4-1c1.46,2.53,3.32,3.73,6.3,2.3a4.78,4.78,0,0,1,3.8,0c.67.37,1.19.82,1,1.7a2.16,2.16,0,0,0-2,1c-3.5,2.19-7.34.66-11,1C87.38,106.88,85.89,105.55,85,104Z"/><path class="cls-246" d="M121.08,60.08a6.84,6.84,0,0,1-3,3.12C117.79,60.92,117.69,58.82,121.08,60.08Z"/><path class="cls-275" d="M100,107l-1-1c-1-.74-2.16-1.42-.93-2.87l2.9-.06,1,1C102,105.46,102,106.87,100,107Z"/><path class="cls-271" d="M83.05,91.2c-1.55,1-3.13,1.74-5,.71l-.24-1.79.25-.24a2.46,2.46,0,0,1,2-.5C81.25,89.7,82.45,90,83.05,91.2Z"/><path class="cls-276" d="M89.75,98.59c.11-2.85,2.83-3.13,4.27-4.94-.48-1.54-2.79.2-3.34-1.74,3.26-1.9,6.32,0,9.19.9,1.87.59.16,2.61.09,4-.12,2.57-2.36,2.71-4,2.77C93.93,99.63,91.86,99,89.75,98.59Z"/><path class="cls-277" d="M98,103.1,99,106a11.62,11.62,0,0,0-4.72.79c-3.61,1.42-5.64.43-5.29-3.79C92,101.34,95,101.68,98,103.1Z"/><path class="cls-210" d="M81.87,96.94c0-2.08.62-3.78,3.07-4.06Q83.41,94.92,81.87,96.94Z"/><path class="cls-234" d="M86.11,90.13,85.22,89c-.29-.19-.39-.39-.32-.6s.17-.33.26-.33l1.71-2a1.71,1.71,0,0,1,1.06,1.86Z"/><path class="cls-278" d="M85.16,88.05a1.08,1.08,0,0,0,.06.93l-2.17,2.21c-1.07-.34-2.38,0-3.18-1.08-3.12-4.55,2-2.8,3.13-4.11Z"/><path class="cls-279" d="M83,86c-.86,1.51-4.77.69-3.13,4.1l-1.79-.21C77.66,86,80.2,85.84,83,86Z"/></g></g></svg>