<svg xmlns="http://www.w3.org/2000/svg" viewBox="0 0 186.59 186.96"><defs><style>.cls-1{fill:#fdfdfd;}.cls-2{fill:#5e4826;}.cls-3{fill:#dfd198;}.cls-4{fill:#594224;}.cls-5{fill:#634a27;}.cls-6{fill:#69522c;}.cls-7{fill:#5b4425;}.cls-8{fill:#5a4224;}.cls-9{fill:#5e4627;}.cls-10{fill:#9e804a;}.cls-11{fill:#694f2c;}.cls-12{fill:#d3c78d;}.cls-13{fill:#6c522d;}.cls-14{fill:#715529;}.cls-15{fill:#80702f;}.cls-16{fill:#644c27;}.cls-17{fill:#473416;}.cls-18{fill:#604a23;}.cls-19{fill:#564127;}.cls-20{fill:#755a2f;}.cls-21{fill:#d8c890;}.cls-22{fill:#736528;}.cls-23{fill:#936f40;}.cls-24{fill:#3a3731;}.cls-25{fill:#382d15;}.cls-26{fill:#332d28;}.cls-27{fill:#89663b;}.cls-28{fill:#706324;}.cls-29{fill:#7a5a35;}.cls-30{fill:#4a3821;}.cls-31{fill:#987644;}.cls-32{fill:#d6c68e;}.cls-33{fill:#907040;}.cls-34{fill:#503e24;}.cls-35{fill:#9c7a48;}.cls-36{fill:#d5c089;}.cls-37{fill:#c2b579;}.cls-38{fill:#987a49;}.cls-39{fill:#785733;}.cls-40{fill:#957141;}.cls-41{fill:#846239;}.cls-42{fill:#a2814c;}.cls-43{fill:#736429;}.cls-44{fill:#41311e;}.cls-45{fill:#8f6f42;}.cls-46{fill:#c3a66f;}.cls-47{fill:#89673b;}.cls-48{fill:#997745;}.cls-49{fill:#88683b;}.cls-50{fill:#4e4018;}.cls-51{fill:#47351f;}.cls-52{fill:#d0ba82;}.cls-53{fill:#a78752;}.cls-54{fill:#ddcc94;}.cls-55{fill:#d2bd86;}.cls-56{fill:#c0a56b;}.cls-57{fill:#ccb983;}.cls-58{fill:#9b7745;}.cls-59{fill:#81623b;}.cls-60{fill:#755930;}.cls-61{fill:#7e5e34;}.cls-62{fill:#6e512f;}.cls-63{fill:#7c6036;}.cls-64{fill:#513f1d;}.cls-65{fill:#8d6f41;}.cls-66{fill:#997544;}.cls-67{fill:#977644;}.cls-68{fill:#a98751;}.cls-69{fill:#89683d;}.cls-70{fill:#c3a46c;}.cls-71{fill:#37312b;}.cls-72{fill:#88673b;}.cls-73{fill:#a49857;}.cls-74{fill:#c3a972;}.cls-75{fill:#9d9889;}.cls-76{fill:#7f6437;}.cls-77{fill:#a4995a;}.cls-78{fill:#cabf87;}.cls-79{fill:#362d24;}.cls-80{fill:#b3a96b;}.cls-81{fill:#c9af78;}.cls-82{fill:#dacf95;}.cls-83{fill:#694d26;}.cls-84{fill:#42341a;}.cls-85{fill:#bfb076;}.cls-86{fill:#2c2211;}.cls-87{fill:#a19559;}.cls-88{fill:#bfa26a;}.cls-89{fill:#20190d;}.cls-90{fill:#63591d;}.cls-91{fill:#392c16;}.cls-92{fill:#6e5e28;}.cls-93{fill:#ada262;}.cls-94{fill:#9d9054;}.cls-95{fill:#6e542e;}.cls-96{fill:#7b5b35;}.cls-97{fill:#937141;}.cls-98{fill:#8c6d3f;}.cls-99{fill:#453724;}.cls-100{fill:#564728;}.cls-101{fill:#4f421d;}.cls-102{fill:#967343;}.cls-103{fill:#403d37;}.cls-104{fill:#4b4942;}.cls-105{fill:#45423c;}.cls-106{fill:#654d2d;}.cls-107{fill:#523e25;}.cls-108{fill:#a07f4b;}.cls-109{fill:#785934;}.cls-110{fill:#977443;}.cls-111{fill:#ad9f5e;}.cls-112{fill:#3d3932;}.cls-113{fill:#d2b984;}.cls-114{fill:#ac8a53;}.cls-115{fill:#dac892;}.cls-116{fill:#3c3933;}.cls-117{fill:#7c5d37;}.cls-118{fill:#3a2c1a;}.cls-119{fill:#484540;}.cls-120{fill:#3b342c;}.cls-121{fill:#413f39;}.cls-122{fill:#6e502f;}.cls-123{fill:#443a2f;}.cls-124{fill:#6b4e2e;}.cls-125{fill:#87663b;}.cls-126{fill:#ece19e;}.cls-127{fill:#5c502d;}.cls-128{fill:#a6985b;}.cls-129{fill:#3e352d;}.cls-130{fill:#bc9b63;}.cls-131{fill:#c4a66e;}.cls-132{fill:#494034;}.cls-133{fill:#312b27;}.cls-134{fill:#52493a;}.cls-135{fill:#a78c52;}.cls-136{fill:#d9c590;}.cls-137{fill:#b4965e;}.cls-138{fill:#b3a66a;}.cls-139{fill:#766a33;}.cls-140{fill:#a88852;}.cls-141{fill:#a8844d;}.cls-142{fill:#453c31;}.cls-143{fill:#5b4327;}.cls-144{fill:#88653b;}.cls-145{fill:#858071;}.cls-146{fill:#9a8f5a;}.cls-147{fill:#947941;}.cls-148{fill:#5c511b;}.cls-149{fill:#b2a768;}.cls-150{fill:#756828;}.cls-151{fill:#635527;}.cls-152{fill:#7d5b35;}.cls-153{fill:#493f35;}.cls-154{fill:#b39159;}.cls-155{fill:#d3bf88;}.cls-156{fill:#bbae74;}.cls-157{fill:#c0a068;}.cls-158{fill:#cdb27a;}.cls-159{fill:#3f3c36;}.cls-160{fill:#342815;}.cls-161{fill:#856b3c;}.cls-162{fill:#726631;}.cls-163{fill:#8e897a;}.cls-164{fill:#aca796;}.cls-165{fill:#b5b1a6;}.cls-166{fill:#adaaa1;}.cls-167{fill:#6a5234;}.cls-168{fill:#352a17;}.cls-169{fill:#44361d;}.cls-170{fill:#41321d;}.cls-171{fill:#614b2b;}.cls-172{fill:#937041;}.cls-173{fill:#785f36;}.cls-174{fill:#6b502e;}.cls-175{fill:#947242;}.cls-176{fill:#7e7057;}.cls-177{fill:#322514;}.cls-178{fill:#231a0e;}.cls-179{fill:#c7bc8f;}.cls-180{fill:#c8be81;}.cls-181{fill:#3e311f;}.cls-182{fill:#745939;}.cls-183{fill:#8a8577;}.cls-184{fill:#543f22;}.cls-185{fill:#aea465;}.cls-186{fill:#948d76;}.cls-187{fill:#545149;}.cls-188{fill:#494741;}.cls-189{fill:#4e4b45;}.cls-190{fill:#e8e1c9;}.cls-191{fill:#c4bdaa;}.cls-192{fill:#423f39;}.cls-193{fill:#9c7846;}.cls-194{fill:#484641;}.cls-195{fill:#423524;}.cls-196{fill:#7a5d38;}.cls-197{fill:#836139;}.cls-198{fill:#795933;}.cls-199{fill:#d2ccb9;}.cls-200{fill:#7a5d3a;}.cls-201{fill:#b79559;}.cls-202{fill:#a4804a;}.cls-203{fill:#7f613d;}.cls-204{fill:#272423;}.cls-205{fill:#2c2726;}.cls-206{fill:#5b4b36;}.cls-207{fill:#525048;}.cls-208{fill:#483721;}.cls-209{fill:#a8864e;}.cls-210{fill:#bd9f5f;}.cls-211{fill:#695740;}.cls-212{fill:#535048;}.cls-213{fill:#4d4b44;}.cls-214{fill:#5a574f;}.cls-215{fill:#9b7846;}.cls-216{fill:#5b564e;}.cls-217{fill:#5e5c55;}.cls-218{fill:#4c4a43;}.cls-219{fill:#7a5b36;}.cls-220{fill:#89683e;}.cls-221{fill:#969282;}.cls-222{fill:#99968c;}.cls-223{fill:#d1b982;}.cls-224{fill:#473d2f;}.cls-225{fill:#3e3831;}.cls-226{fill:#c5a770;}.cls-227{fill:#9a9687;}.cls-228{fill:#9c998f;}.cls-229{fill:#6c5536;}.cls-230{fill:#a2965d;}.cls-231{fill:#3f301b;}.cls-232{fill:#8e6e40;}.cls-233{fill:#7a652f;}.cls-234{fill:#494035;}.cls-235{fill:#4f402b;}.cls-236{fill:#3f2f1b;}.cls-237{fill:#ded8c3;}.cls-238{fill:#d5cfbb;}.cls-239{fill:#c5bfab;}.cls-240{fill:#beb9a8;}.cls-241{fill:#c9c5b8;}.cls-242{fill:#c4c1b7;}.cls-243{fill:#b9b3a1;}.cls-244{fill:#866843;}.cls-245{fill:#a6a294;}.cls-246{fill:#b1ad9c;}.cls-247{fill:#87673d;}.cls-248{fill:#8a693d;}.cls-249{fill:#554027;}.cls-250{fill:#906d40;}.cls-251{fill:#9a9485;}.cls-252{fill:#9d9a8e;}.cls-253{fill:#969286;}.cls-254{fill:#a6a395;}.cls-255{fill:#b7b2a2;}.cls-256{fill:#c1bcab;}.cls-257{fill:#73593a;}.cls-258{fill:#644e32;}.cls-259{fill:#d9d3c0;}.cls-260{fill:#685033;}.cls-261{fill:#cac5b3;}.cls-262{fill:#d2ccba;}.cls-263{fill:#7e603c;}.cls-264{fill:#a8a496;}.cls-265{fill:#b7b2a3;}.cls-266{fill:#aeaba0;}.cls-267{fill:#5e5b54;}.cls-268{fill:#96764b;}.cls-269{fill:#d3cdb9;}.cls-270{fill:#e6dfc8;}.cls-271{fill:#bfbaa7;}.cls-272{fill:#b79a5f;}.cls-273{fill:#aa8f61;}.cls-274{fill:#e0d9c4;}.cls-275{fill:#dad3bf;}.cls-276{fill:#b7b2a1;}.cls-277{fill:#c7ae6d;}.cls-278{fill:#c1a15d;}.cls-279{fill:#8c683c;}.cls-280{fill:#61492b;}.cls-281{fill:#a17d48;}.cls-282{fill:#7c603c;}.cls-283{fill:#4f3b21;}.cls-284{fill:#2b2011;}.cls-285{fill:#887c65;}.cls-286{fill:#524029;}.cls-287{fill:#b09362;}.cls-288{fill:#a3885c;}.cls-289{fill:#e1dbc7;}.cls-290{fill:#cac4b4;}.cls-291{fill:#dcd6c0;}.cls-292{fill:#ccb46e;}.cls-293{fill:#beae8c;}.cls-294{fill:#57544d;}.cls-295{fill:#5c5951;}.cls-296{fill:#6e5334;}.cls-297{fill:#806039;}.cls-298{fill:#8e6b3e;}.cls-299{fill:#95764a;}.cls-300{fill:#58554f;}.cls-301{fill:#4d4b46;}.cls-302{fill:#52504a;}.cls-303{fill:#5d5951;}.cls-304{fill:#9f9b8b;}.cls-305{fill:#cec8b4;}.cls-306{fill:#b79a5c;}.cls-307{fill:#aeaa9e;}.cls-308{fill:#e5dec9;}.cls-309{fill:#ded8c4;}.cls-310{fill:#795c39;}.cls-311{fill:#c6ad6e;}.cls-312{fill:#d3c398;}.cls-313{fill:#e9e1c6;}.cls-314{fill:#b99b64;}.cls-315{fill:#cfb56b;}.cls-316{fill:#352816;}.cls-317{fill:#958e7c;}.cls-318{fill:#a6814b;}</style></defs><g id="Layer_2" data-name="Layer 2"><g id="Layer_4_Image" data-name="Layer 4 Image"><path class="cls-1" d="M104.6,0l1,1.91c-1.2,1.48-2.91,1.32-4.54,1.42-.79,0-1.59,0-2.38,0-3.8-.6-7.57-.11-11.34.4C85.12,3,82.44,4,80.6,1.89c.34-.63.67-1.26,1-1.89Z"/><path class="cls-2" d="M36.58,166.16,34.68,165c-1.6-1-3.51-1.74-3.59-4.08.54-1.94,2.34-2.2,3.84-2.77,3.48-1.35,5.35-3.74,5.22-7.56a2.57,2.57,0,0,1,2.64-2.05c1.75.58,1.78,2,1.75,3.5-.56,1.48.74,2.94.1,4.44a10.32,10.32,0,0,1-.9,1.19c-5.16,5.75-5.17,5.76,1.83,10a34.37,34.37,0,0,0,4.76,2.71c2.14.87,4.17,2.53,6.22-.58.89-1.35,3-1.09,4.65-.36,1.52,1.71-.4,2.06-1.12,2.89a3.09,3.09,0,0,0-.61,1c3.37,3.76,8.2,4.39,12.59,5.94,1.6.87,4.23,0,4.72,2.74-.87,1.2-2.27,1.09-3.49,1.44a44.44,44.44,0,0,1-16.68-5.31.87.87,0,0,0-.78-.24c-5.18-2.75-11.09-4.24-15.2-8.84l-.08,0A6,6,0,0,1,36.58,166.16Z"/><path class="cls-3" d="M25.68,30.1l1-1.05c1-3,3.72-3.42,6.19-4.24,3.88-.3,7.65-.37,9.12,4.36a3.35,3.35,0,0,1,.1,1.57,2.72,2.72,0,0,1-2.32,1.81,3.71,3.71,0,0,1-2.95-2c-3.61-3.22-4.65-2.94-6.09,1.65-.14,2.56,1,4.63,2.44,6.62,1.51,4.5-3.31,3.18-4.64,5.08a9.4,9.4,0,0,1-2.82,2.15c-3.07,1.58-5.38,1.75-5.16-2.77a4.92,4.92,0,0,1,1-2.61,8.86,8.86,0,0,0,2.12-3.76c.46-1.19-.12-2.29-.3-3.43A12.49,12.49,0,0,0,25.68,30.1Z"/><path class="cls-4" d="M182.85,75c0,.34-.06.69-.08,1a5,5,0,0,1,1,2.25,4.72,4.72,0,0,1-1,3.86c-2.82-.26-2.65-2.79-3-4.49a126.1,126.1,0,0,0-4.89-17.76,43,43,0,0,0-3-6.52,97.54,97.54,0,0,0-7-11.66c-1.29-1.88-2.91-3.49-4.17-5.4-.69-1.69-.45-2.87,1.68-3a2.64,2.64,0,0,1,2.11,1.83c.25,1.32,1.33,2,2.2,2.85A13.61,13.61,0,0,1,171.53,45c.1.79-.14,1.75,1,2,2.27,1.82,3.26,4.37,4,7.07,1.42,2.14,1,5.06,2.93,7,1.34.69.44,2.14,1,3.08a8.84,8.84,0,0,0,2,5.91C183.91,71.58,183.12,73.28,182.85,75Z"/><path class="cls-5" d="M134.39,175.86l-3.8,2.26c-1.83,1.31-4,1.45-6.13,1.76l-2.89,1.23c-2,2-4.66,1.3-7,1.76h0a1,1,0,0,1-1.25.31c-1.32-.44-3,.16-3.92-1.45.48-2.14,2.28-2.44,4-2.88a23.25,23.25,0,0,0,7-1.6,23.33,23.33,0,0,0,5.85-1.92c1.59-.78,3.28-1.3,4.91-2a16,16,0,0,0,2.24-1.19,23.36,23.36,0,0,0,4.21-2.77,93.81,93.81,0,0,0,8.13-4.86,15.42,15.42,0,0,0,3.18-3.12,2.2,2.2,0,0,1,1.75-.74,3.83,3.83,0,0,1,2.31,2.28c.11,1.11-.65,1.55-1.48,1.94l-1.81,1.27a3.72,3.72,0,0,1-3.18,2.47l-.85.51a10.88,10.88,0,0,1-6,3.81l-1.14.73C137.55,175.26,135.81,175.26,134.39,175.86Z"/><path class="cls-6" d="M7.61,128.05l-1-2.07c-1.15-1.1-.4-2.45-.48-3.69a1.69,1.69,0,0,1,1.23-1.72c1.9,0,2.44,1.49,3.1,2.84a26.33,26.33,0,0,0,1.94,4.5c1.57,4.07,4,7.73,5.84,11.64a27.57,27.57,0,0,0,4.3,6.14c1.64,2.59,4.93,4.54,3.28,8.41-2.36,1.07-3.22-.47-3.95-2.26L19.46,149a15,15,0,0,1-3.89-5.79l-.92-1.2a30.14,30.14,0,0,1-3.84-7.19h0C8.42,133.18,9,130.16,7.61,128.05Z"/><path class="cls-7" d="M182.46,116.91c-2.52,4.36-3.3,9.35-5.12,14a32.87,32.87,0,0,1-7.81,14l0,0c-.52,1.66-1.09,3.28-2.88,4l0,.09c-.84,1.14-.67,3.12-2.71,3.28a2.33,2.33,0,0,1-1.56-1.14,2.57,2.57,0,0,1-.1-1.29,28.46,28.46,0,0,1,1.94-3.34c1-1.38,1.94-2.81,2.85-4.26,1.51-2.7,3.29-5.24,4.63-8a30.42,30.42,0,0,0,3.72-8.81c.58-1.79,1.83-3.31,2.09-5.23,1.35-3.72,1.15-7.85,3.09-11.41a2.89,2.89,0,0,1,1.38-.56,2.78,2.78,0,0,1,1.44.33c1.05,1.1.11,1.72-.59,2.4,0,.35.05.69.07,1C183.13,113.68,183.91,115.38,182.46,116.91Z"/><path class="cls-8" d="M149.63,20.76l2.83,2.31c.95.44,1.71,1,1.08,2.19a3.23,3.23,0,0,1-2.75.43c-2.48-.68-4.09-2.91-6.51-3.72a10.21,10.21,0,0,1-3.42-2.19c-2-2.47-5.23-3.2-7.7-5-2-1.47-4.5-1.95-6.81-2.78a7.85,7.85,0,0,1-1.21-.57,11,11,0,0,0-4.31-1.64c-1.52-.63-3.47-.74-3.65-3a1.84,1.84,0,0,1,2.37-1.34c2-.54,3.53.39,5,1.56l.1,0c2.86.42,5.69.9,7.85,3.1h0c2.47,1.06,5.37,1.33,7.07,3.82l.14.05C143.49,15.55,147.09,17.39,149.63,20.76Z"/><path class="cls-9" d="M23.5,33.82c2.85.17,1.46,1.83,1.09,3.12-.61.89-1.18,1.81-1.87,2.64-1.91,1.35-2.11,3.75-3.34,5.51-.41.78-.8,1.56-1.2,2.34-1.16,2.38-3.33,4.18-3.89,6.9-.86,2.13-1.24,4.42-2.18,6.52-1,1.2-1.43,2.88-3.13,3.39-.64-1.55-2.11.77-2.8-.59-.21-.93-.42-1.87.61-2.49v0c1.32-3,1.51-6.51,3.78-9.14l5-8.24A15.17,15.17,0,0,1,19.46,38l1.12-1.22C21.25,35.5,21.36,33.66,23.5,33.82Z"/><path class="cls-10" d="M25.53,153.91c.36-3.48-2.64-5.25-4-7.85.95-3.05,1.41-6.12-.37-9-2.05-3.32-.57-4.74,2.63-5.42,2,.42,2.37,2.12,2.92,3.68,1.7,2.95,1.05,6.54,2.61,9.54a5.67,5.67,0,0,1,.74,2.76c-1.88,3.42-.47,7.41-1.9,10.91-.17.18-.36.35-.54.53l-1-1.1A4.21,4.21,0,0,1,25.53,153.91Z"/><path class="cls-11" d="M34.57,22c2.09-1.26,3.52-3.48,6-4.12a23.32,23.32,0,0,1,10.9-6.32c1.64,1,1.66,2.31.9,3.83-1.09,1.75-3,2.39-4.57,3.59-4.75,2.73-8.52,7.8-15,6.36C31.55,23.25,33.61,22.92,34.57,22Z"/><path class="cls-12" d="M150.57,25l3-.08c1.52-.05,2.24,1.08,3,2.07a3.16,3.16,0,0,0,.9.24c2.19.51,3.14,1.73,2.28,4a3.82,3.82,0,0,1-3.54.61c-1.85-.66-3.53-2.1-5.71-1.2-.37.21-.75.42-1.1.66-2.45,1.45-1.54,6.67-6.24,5.57a4.94,4.94,0,0,1-.76-2.74,8.94,8.94,0,0,1,.4-2.91c1.19-3.08,2.83-5.72,6.42-6.4A1.29,1.29,0,0,1,150.57,25Z"/><path class="cls-13" d="M51.62,15a2.7,2.7,0,0,0-.06-3c-.42-2,1.5-1.17,2.21-1.8l0,0c1.18-1.71,3.13-1.71,4.87-2.15l0,0c.7-1.18,2.05-.41,3-1l0,0a9.23,9.23,0,0,1,5.91-2.2l4-.77a1.81,1.81,0,0,1,2-.38A2,2,0,0,1,74.89,5.3c-1.06,2.61-4.31,1.5-5.79,3.4a18.12,18.12,0,0,1-4.44,2.06,33.77,33.77,0,0,0-7,3.08C55.7,14.46,54,16.48,51.62,15Z"/><path class="cls-14" d="M7.82,120.92l-1.33,1.32a.57.57,0,0,1-.83-.33c-1.39-3.54-2.86-7-3-10.93-1.65-4-1.15-8.3-1.49-12.47,3.26-.59,3.68-.28,5.52,4,.42,2.29-1,4.58,0,6.88C7,113.27,9.84,116.85,7.82,120.92Z"/><path class="cls-1" d="M1.76,98.12c-.38,4.33,1.56,8.51.86,12.86A2.82,2.82,0,0,1,.76,108.8a151.9,151.9,0,0,1,0-30.6c.1-.83,1.12-1.55,1.71-2.32l.64.57C5.23,80.65,2.57,84.79,3,89c0,2,0,4-.05,6A4.32,4.32,0,0,1,1.76,98.12Z"/><path class="cls-15" d="M80.62,185l-1.88-.13a.79.79,0,0,1-.29-.81c.08-.28.16-.43.24-.43,2-1.52,4.66-.38,6.74-1.58,1.95-2-1.47-6.26,3.07-7.1,2.19,1.52,1.08,6.93,6.07,5.16a5.23,5.23,0,0,1,1.9-.76,3.18,3.18,0,0,1,1.36.27,2.28,2.28,0,0,1,1.08,1.71c-1.7,2.91-5.22,3.12-7.57,5.06C87.83,185.38,84,186.69,80.62,185Z"/><path class="cls-16" d="M119.89,5.83c-.91.17-1.84.31-2.33,1.25-2.32,1.94-4.69.39-7,0a52.5,52.5,0,0,0-5.29-.86,9.14,9.14,0,0,1-1.54-.31c-4.49-1.53-4.49-1.53-3.12-3.78l5-.21c2.69.66,5.11,2.35,8,2.08,1.78,1.47,4.15-.56,5.91,1l.07,0c.28.1.42.26.4.46S120,5.83,119.89,5.83Z"/><path class="cls-17" d="M152.39,162.93l-1.79-2c-1.55-2.7,2-2.61,2.32-4.31a3.31,3.31,0,0,1,1.32-1.33,7.6,7.6,0,0,1,1.2-.46c1.76-.25,2.8-2.06,4.63-2.16a2.05,2.05,0,0,1,1.26,2.22,8.44,8.44,0,0,1-3.56,5.06l-3.16,2.09A2.43,2.43,0,0,1,152.39,162.93Z"/><path class="cls-18" d="M92.66,185.83c-1-1.51,0-2,1.18-2.47,1.62-.69,3.7-.59,4.55-2.63a1.73,1.73,0,0,1,1-1.6c1.07-.46,2.1-.74,2.71.67.24.92.27,1.95,1.24,2.53,1.4.67,3,.38,4.41.81a2.56,2.56,0,0,1,1.09.78l-3.25,1C101.35,186.13,97.06,186.79,92.66,185.83Z"/><path class="cls-1" d="M92.66,185.83c4.34.12,8.55-1.64,12.94-.88a4.81,4.81,0,0,1-3.83,2q-8.64.12-17.28,0A5.07,5.07,0,0,1,80.62,185,42.32,42.32,0,0,1,92.66,185.83Z"/><path class="cls-1" d="M78.34,184.09l.4.8c-7.08-.3-13.77-2.3-20.4-4.6a2.39,2.39,0,0,1-1.73-2.2c5.79,1.17,11,4.58,17,4.76C75.47,182.23,77.15,182.23,78.34,184.09Z"/><path class="cls-19" d="M6.69,64c.64.38,1.4-3.33,2,.06A22,22,0,0,1,5.87,77c-1.28.56-2-.12-2.62-1.15A12.67,12.67,0,0,1,3.42,71a3.17,3.17,0,0,0,.21-1c.94-1.19,1.1-2.73,1.8-4,.07-.35.13-.69.19-1C6,64.66,6.06,64,6.69,64Z"/><path class="cls-1" d="M169.53,144.9l7.81-14c.14.09.39.17.4.27C178.08,134.8,173,143.26,169.53,144.9Z"/><path class="cls-1" d="M40.63,169l15.2,8.84C50.15,176,43.84,175.17,40.63,169Z"/><path class="cls-1" d="M157.77,160l3-4.63c.51-1.5,1-3,2.89-3.32l3-3C165.79,153.45,161.17,159.18,157.77,160Z"/><path class="cls-1" d="M184.7,82.93c1.67,6.72,3.23,13.45.05,20.18l-.61-.47c-1.57-2.75-.13-5.47.06-8.21a12.59,12.59,0,0,0-.58-4.3,10.57,10.57,0,0,1-.22-1.48c0-1.78-.23-3.58.7-5.23Z"/><path class="cls-1" d="M53.77,10.18,51.56,12c-4.12,1.08-7.1,4.31-11,5.9C43.58,12.9,48.42,11.1,53.77,10.18Z"/><path class="cls-1" d="M34.57,22c.19,1.49-1.7,1.6-1.89,2.84.52.56.4.92-.34,1.07-2.31.31-3.84,2-5.7,3.14C26.89,24,31,23.33,34.57,22Z"/><path class="cls-1" d="M149.63,20.76,139.71,14C144.11,14.65,148,16.1,149.63,20.76Z"/><path class="cls-20" d="M80.6,1.89c2.33.73,5-1,7.14,1-.43,3.31-2.85,3.05-5.2,2.91-.66-1.87-2.69-1.62-4-2.54a.89.89,0,0,1,.07-1.2Z"/><path class="cls-1" d="M25.53,153.91c1,1.18,1,2.62,1.1,4.06-3.67-.43-4.38-3.14-4.75-6.13C23.15,152.44,23.79,154.16,25.53,153.91Z"/><path class="cls-1" d="M31.54,161.16c.52,1.71,3,1.8,3.14,3.81-3.41-.7-6.25-2.09-7.06-5.9a.53.53,0,0,0,0-.65A3.7,3.7,0,0,1,31.54,161.16Z"/><path class="cls-1" d="M159.78,30.81l-2.29-3.62c3.93-.81,4.95.36,4.14,4.76l-.63.25A1.44,1.44,0,0,1,159.78,30.81Z"/><path class="cls-1" d="M171.53,45,166.72,38C169.33,38.35,171.71,41.84,171.53,45Z"/><path class="cls-1" d="M182.63,77.91c0-.64.09-1.28.14-1.92,5,1.08,2.47,4.29,1.93,6.94l-.36.29a1.16,1.16,0,0,1-1.18-.53C182.83,81.12,183.6,79.42,182.63,77.91Z"/><path class="cls-1" d="M182.76,111l.67-2c-1.17-2.29-2.16-4.55,1.13-6l.19.14C184.5,105.84,188.4,109.61,182.76,111Z"/><path class="cls-1" d="M10.56,52a19.37,19.37,0,0,1-3.78,9.14C7.59,57.9,6.39,53.83,10.56,52Z"/><path class="cls-1" d="M23.5,33.82l-2.92,3c-.4-3.82,3.18-4.62,5.1-6.68C26.09,32,24.58,32.79,23.5,33.82Z"/><path class="cls-1" d="M132.49,10.14,124.64,7C128.18,5.72,130.78,6.8,132.49,10.14Z"/><path class="cls-1" d="M139.6,173l6-3.81C144.67,172.1,143.1,174,139.6,173Z"/><path class="cls-1" d="M176.53,54.08c-1.33-2.36-2.65-4.72-4-7.07C175.32,48.55,177.66,50.34,176.53,54.08Z"/><path class="cls-1" d="M10.81,134.79A17.14,17.14,0,0,1,14.65,142C12,140.31,10.56,138,10.81,134.79Z"/><path class="cls-1" d="M15.57,143.18A12.21,12.21,0,0,1,19.46,149C16.61,148.09,15.2,146.24,15.57,143.18Z"/><path class="cls-1" d="M7.61,128.05c2.23,1.7,2.24,4.45,3.21,6.73C7.18,133.77,7.87,130.69,7.61,128.05Z"/><path class="cls-1" d="M139.57,14l-7.07-3.82C135.3,10.57,138.7,9.92,139.57,14Z"/><path class="cls-1" d="M19.46,38a12.17,12.17,0,0,1-3.89,5.75C15.08,40.62,16.7,38.92,19.46,38Z"/><path class="cls-1" d="M114.53,182.87c2.12-1.51,4.8-.75,7-1.76C119.92,184.49,117.29,183.94,114.53,182.87Z"/><path class="cls-1" d="M124.46,179.88c1.92-1,3.84-2.06,6.13-1.76C129.22,181,127,181.1,124.46,179.88Z"/><path class="cls-1" d="M156.59,27a5.29,5.29,0,0,1-3-2.07l-1.09-1.81C156.46,21.57,155.67,25.17,156.59,27Z"/><path class="cls-1" d="M67.57,4.84,61.66,7C63.15,5,64.7,3.16,67.57,4.84Z"/><path class="cls-1" d="M78.64,2.05a4.34,4.34,0,0,0-.36.86c-1.12,2-2.69,2.19-4.57,1.16H71.59C73.61,2.26,76.06,1.91,78.64,2.05Z"/><path class="cls-1" d="M152.39,162.93c.43-1.09,1.33-1,2.22-.86,1.27,3.58-1.41,2.69-3.18,2.82Z"/><path class="cls-1" d="M36.58,166.16a8.21,8.21,0,0,1,4,2.81C38.11,169.61,36.46,169.14,36.58,166.16Z"/><path class="cls-1" d="M146.44,168.63a6.53,6.53,0,0,1,3.18-2.47C150.32,169.23,148.78,169.45,146.44,168.63Z"/><path class="cls-1" d="M119.89,5.83a5.79,5.79,0,0,0-.27-.8c2.59-1.72,3.83,0,4.92,2Z"/><path class="cls-1" d="M119.55,5c-2-.18-4.12.37-5.91-1C115.45,5.26,118.16,1.24,119.55,5Z"/><path class="cls-1" d="M166.63,149q1.44-2,2.89-4C169.67,147.07,169.88,149.25,166.63,149Z"/><path class="cls-1" d="M182.85,75l-.39-4.9C185.73,71.44,184,73.21,182.85,75Z"/><path class="cls-1" d="M58.62,8.06l-4.87,2.15C54.66,7.88,56.2,7,58.62,8.06Z"/><path class="cls-1" d="M182.46,116.91l.37-4.89C184,113.75,185.74,115.52,182.46,116.91Z"/><path class="cls-1" d="M5.66,121.91l.83.33c0,1.24.09,2.49.13,3.74C3.1,125.38,6.13,123.23,5.66,121.91Z"/><path class="cls-1" d="M5.43,66a3.52,3.52,0,0,1-1.8,4C3.5,68.37,3.75,66.87,5.43,66Z"/><path class="cls-1" d="M6.69,64,5.62,65c.63-1.2-2.69-3.61,1.17-3.82C6.76,62.11,6.72,63.06,6.69,64Z"/><path class="cls-1" d="M164.52,35.12l-1.68-1.21a7.66,7.66,0,0,1-1.5-.72,1.12,1.12,0,0,1,.08-1l.21-.18C163.05,32.58,165.84,32,164.52,35.12Z"/><path class="cls-1" d="M113.46,182.74l1.08.12c-1.59,2-3.78.79-5.69,1.06l-.29-.11-.26.16C109.47,181.23,111.66,182.81,113.46,182.74Z"/><path class="cls-1" d="M180.49,64.14c-1.09-.78-.77-2-1-3.08C182.4,61.22,181,62.83,180.49,64.14Z"/><path class="cls-1" d="M3.42,71c0,1.6,0,3.19,0,4.79-.13.41-.37.52-.74.26l-.2-.18C2.88,74.27,2,72.43,3.42,71Z"/><path class="cls-1" d="M61.61,7.06c-.76,1-1.9.85-3,1C58.85,5.3,60.32,6.47,61.61,7.06Z"/><path class="cls-1" d="M134.39,175.86l4.07-2.18C137.94,176,136.22,176,134.39,175.86Z"/><path class="cls-21" d="M81.58,5a6.86,6.86,0,0,0,6.16-2.08c3.57-1.86,7.3-1.25,11-.74.07,1.79-1.16,2.37-2.53,2.18C93,3.88,91,5.56,89.09,7.7c-1.73,1.72-1,3.56-.37,5.49.6,1.69.87,3.44-2,3.1a7.58,7.58,0,0,1-2.08-1.91C83.46,12.79,82,11.93,80,12.85c-3.54,1.6-7.45,1.37-11.13,2.28-2,.11-4,.23-5.8-1a3.09,3.09,0,0,1-.89-1.19c-.64-2.19,1.38-2.17,2.45-2.94l4-2.1c3.67-1.74,7.69-2.26,11.53-3.4A2,2,0,0,1,81.58,5Z"/><path class="cls-22" d="M88.53,6.88c1.93-2.76,4.16-4.75,7.89-3.5a1.73,1.73,0,0,0,2.34-1.24l1.86,0c-1.29,3.45,2.8.89,3,2.68a3.53,3.53,0,0,0-.28,3.59,6.69,6.69,0,0,1,.32,2.08c-.15,1.23-.28,2.46-1.83,2.75-.71.16-.32-2.53-2-.59-1.09,1.29-2.64.72-3.22-1.13C96.27,9.27,96,7,93.09,6.58c-1.68.09-2.72,2.3-4.69,1.46A.92.92,0,0,1,88.53,6.88Z"/><path class="cls-23" d="M61.56,170c-2.84,0-6.46-1-5.38,4.19a70,70,0,0,1-16.86-9.34c-2.19-1.67-3.93-3.26,0-4.66,2.34-.83,2.69-3.89,5.29-4.22,4.22,1.08,8,2.91,10.23,6.88-2.11,2.95.65,3.14,2.26,3.73,2,.74,4.7.19,5.6,3A.87.87,0,0,1,61.56,170Z"/><path class="cls-24" d="M43.6,153c-.13-1.39.44-2.95-1-4-.17-1,.45-1.37,1.25-1.62a4.63,4.63,0,0,1,4,1.69c6.66,6.78,15.07,10.69,23.58,14.46A40.21,40.21,0,0,0,81,166c2.13.38,5.43.13,4.76,4.08a53.63,53.63,0,0,1-25.34-5.92C54.36,161.2,48,158.51,43.6,153Z"/><path class="cls-25" d="M43.6,148l-1,1-2.08,1.94a7.54,7.54,0,0,1-.83,2.81c-1.19,2.52-2.8,4.49-5.92,4.33A4.84,4.84,0,0,1,29,154.47c-.74-2.79-.74-5.61,2.42-7.22,2.32-.29,3.81.17,2.93,3,2.11-2.38,5.11-4.05,7.41-6.53.47-.5,1-1,1.47-1.45,2-1.9,3.89-3.88,5.83-5.82a6.89,6.89,0,0,1,3.59-2.16c1,0,1.88.22,2.18,1.36-.28,1.89-1.45,3.3-2.59,4.72a20.45,20.45,0,0,0-4,4.07A14.7,14.7,0,0,1,43.6,148Z"/><path class="cls-26" d="M43.6,153a94.93,94.93,0,0,0,29.47,14.57c4.05,1.15,8.55.47,12.5,2.48a1.33,1.33,0,0,1,0,1.48c-1.6,1.93-3.7,1.71-5.84,1.37a55.84,55.84,0,0,0-7.35-1.67C66.25,169,59.52,168,54.66,163l-10-7C44.52,154.87,41.55,154.76,43.6,153Z"/><path class="cls-27" d="M61.56,170l1,0h.67c1.55.28,3,.82,4.56,1.19a18.82,18.82,0,0,0,6.69,2.54,1.64,1.64,0,0,1,.34,1.27c-.38,1.25-1.16,2.37-1.12,3.78,0,1.62-.72,2.09-2.18,1.28-4.64-.2-8.35-3-12.51-4.52-1.55-.57-2.13-2.11-.47-3.52a6.07,6.07,0,0,0,.65.59c-.22-.19-.43-.39-.64-.6Z"/><path class="cls-28" d="M32.59,147.87c-3.26.49-3.2,2.94-3,5.32a3.92,3.92,0,0,0,3.5,3.68A4.05,4.05,0,0,0,38.15,154a5,5,0,0,1,2.38-3.09c2.06,4.54-1.37,6.21-4.31,8-1.46.9-3.51.67-4.68,2.26l-3.95-2.74c.58-3.81-1.46-8.1,2.09-11.36.54-1.54,1.56-1.95,3-1.27A1.54,1.54,0,0,1,32.59,147.87Z"/><path class="cls-29" d="M71.57,180c1.61-1.32,0-4.6,3-5l.69-.06c2.78.19,5.21,2,8.1,1.73a2.91,2.91,0,0,1,1.08,1c.67,1.92,2,3.86-.15,5.71-2.51-.68-5.37.42-7.62-1.52C75.37,180.15,72.86,181.8,71.57,180Z"/><path class="cls-30" d="M76.7,181.84l7.93,1a1.49,1.49,0,0,1,1.59-.37l.46.36c-2.49,2.4-5.65.21-8.34,1.23l-4.71-1.24C74.38,181.71,75.62,182,76.7,181.84Z"/><path class="cls-31" d="M25.79,45.09,27.61,43c1.41-1.18,3-.56,4.54-.44A1.27,1.27,0,0,1,33,43.7c-5.27,7.4-10.25,15-13.62,23.51a1.72,1.72,0,0,1-1.59,1C15.9,66.87,16,64.4,14.66,62.77a3.85,3.85,0,0,1-.75-2.64,3.11,3.11,0,0,1,1.59-2.08A6.78,6.78,0,0,0,18,55.25c1.09-2.63,3-4.79,4.22-7.32C23.46,47.09,24.55,46,25.79,45.09Z"/><path class="cls-32" d="M32.34,25.91c.11-.36.22-.71.34-1.07,2.78,1.05,5-.07,7.2-1.7,2.47-1.83,5.08-3.48,7.63-5.2,2.4-.39,5.76-2.62,5.2,2.69C49.08,23.88,45.6,27.32,41.5,30,39.87,25.46,36,25.87,32.34,25.91Z"/><path class="cls-33" d="M37.56,30.1l1.79,2a2.82,2.82,0,0,1,1.77,1.79c.3,1.18-.24,2.52.66,3.61.8,2.81-.59,3.41-3,3-3.71-2.4-6.27-5.86-8.66-9.48C32.77,27.23,33.73,27.11,37.56,30.1Z"/><path class="cls-34" d="M30.46,31.83c4,1.5,5.76,5.23,8.35,8.15l.06.63c-.09,1.36,2.05,2.64.16,4.08a5.72,5.72,0,0,1-1.4.45c-1.82.11-3.67.36-5.09-1.2,0-.3.06-.61.07-.91,1.3-1.35,1.65-2.7,0-4.05-3.05-1.4-3.35-4-2.93-6.86C29.78,31.6,30,31.48,30.46,31.83Z"/><path class="cls-35" d="M41.5,30c2.42-4.07,6.1-6.72,10.11-9a1.53,1.53,0,0,1,1.93-.26c-.27,3.06-3,4.52-4.77,6.31a53.57,53.57,0,0,0-4,4.11,3,3,0,0,1-1.72,1.13A1.51,1.51,0,0,1,41.66,31,4.57,4.57,0,0,0,41.5,30Z"/><path class="cls-36" d="M25.79,45.09a3.43,3.43,0,0,1-3.06,3c-.86.41-.61,2.42-1.83,1.85-1.86-.85-2.2-2.74-1.85-4.69.31-1.32.81-2.46,2.47-2.37C20.81,47.68,23.88,45.27,25.79,45.09Z"/><path class="cls-32" d="M30.46,31.83a3.19,3.19,0,0,1-.78.29c-1.44-2.88.93-4.07,2.69-4.75,2.29-.88,4.56-.28,5.19,2.73C34.7,28.66,31.94,27.63,30.46,31.83Z"/><path class="cls-37" d="M32.61,39c1.51-.08,2.69.61,2.78,2.06.11,1.77-1.54,1.74-2.78,2l-5-.05a2.36,2.36,0,0,1,3.15-1.5C33.05,42.07,32.42,40.14,32.61,39Z"/><path class="cls-38" d="M21.52,42.86c-.64.7-1.29,1.39-1.94,2.09a.67.67,0,0,1-1.11-.14c1-2.21,2-4.45,4.2-5.77.46.72.57,1.37-.31,1.86Z"/><path class="cls-32" d="M41.66,31l1,1.06a1,1,0,0,1,.26,1,2.88,2.88,0,0,1-1.15,1.22,1.07,1.07,0,0,1-1-.14,2.31,2.31,0,0,1-1.39-2Z"/><path class="cls-36" d="M22.36,40.9c.1-.62.21-1.24.31-1.86l1.92-2.1C24.41,38.58,24.05,40.11,22.36,40.9Z"/><path class="cls-39" d="M175.62,59c4,7.17,3.93,15.58,6.93,23.06a2.75,2.75,0,0,1-.37,2.72,1.69,1.69,0,0,1-1.26.57,2.19,2.19,0,0,1-1.06-.91c-1.72-3.35-.78-7.49-2.89-10.84-1.66.85-1.11,2.6-2.14,3.44-3.89-.59-1.57-4.3-3.08-6.06.28-.64-1.06.08-.39.14.08,0,0,.16,0,.48a2.29,2.29,0,0,1-.9,1.65c-2.51-.49-2.64-2.57-3-4.48.24-3.11-.47-6.87,5.07-4,2.1,1.1.79-2,1.34-3A2.61,2.61,0,0,1,175.62,59Z"/><path class="cls-40" d="M165.61,41a44.24,44.24,0,0,1,7,12c.63,1,.47,2-.64,2.39-1.44.5-2.58-.37-3.35-1.46C167.37,52,166.27,50,164,49a7.1,7.1,0,0,1-1.08-.89c-1.69-2.87-5.09-1.24-7.31-2.74a2.42,2.42,0,0,1-.62-1.26c.19-2.19,1.6-3.44,3.36-4.43a2.31,2.31,0,0,1,1.35.12C161.36,41.79,163.49,41.37,165.61,41Z"/><path class="cls-41" d="M163.6,48c2.59.44,4.48,1.48,5.38,4.31.38,1.21,1.8,4.37,3.68.63a13,13,0,0,1,3,6c-.35,1-.7,2-1,3a1.6,1.6,0,0,1-1.8.34,6.25,6.25,0,0,0-2.06-3.41A77.28,77.28,0,0,1,164.21,51C163.55,50,162.64,49.22,163.6,48Z"/><path class="cls-42" d="M165.61,41c-2.24,1.16-4.84,4.65-6-1-.41-1.78-.62-3.46,1.88-3.79A15.43,15.43,0,0,1,165.61,41Z"/><path class="cls-43" d="M161.47,36.22c-.62,1.26-1.25,2.52-1.88,3.79l-1,.05A2.13,2.13,0,0,1,157,38.5c.81-2.46.19-6.14,4.65-5.55l1.17,1C161,33.87,161.09,35,161.47,36.22Z"/><path class="cls-44" d="M181.78,84.83l.77-2.81c0-1.37,0-2.74.08-4.11,1.93,1.35.65,3.32,1,5a1.43,1.43,0,0,1-.14,2.12C182.91,85.49,182.31,85.26,181.78,84.83Z"/><path class="cls-45" d="M120.65,178a10.56,10.56,0,0,1-7.07,2c.49-3.65-1.42-3.81-4-2.63-3,1.36-5.69,2.06-7.63-1.52a3.87,3.87,0,0,1,.13-2.93,6.9,6.9,0,0,1,3.71-2.74,20.54,20.54,0,0,1,4.62-.61c3-.42,5.84-2.06,9-1.83,3.65.22,4.39,2.12,3,5.25A44.19,44.19,0,0,0,120.65,178Z"/><path class="cls-46" d="M146.64,165a20.58,20.58,0,0,1-9,5.06,3.85,3.85,0,0,1-4.06-4c1.27-1.48,2.71-.51,4.14-.26.38.48.32-.74.08-.12-1.93-1.13-1.93-3.24-2.55-5,1.2-2.75,3.66-3.78,6.28-4.58,2.36-.21,3.82.6,3.65,3.26a5.17,5.17,0,0,0,.69,3.76A3.73,3.73,0,0,1,146.64,165Z"/><path class="cls-47" d="M102.54,175.93c1.92,1.69,3.83,2.22,6.16.56,1.14-.82,2.56-1.9,4.09-1.24,1.3.56,3,1.19,3.18,2.73.07.55-1.54,1.33-2.39,2a6.81,6.81,0,0,0-4.1,1.84c-2,1.78-4.51,1-6.81,1.21-2.62-.24-1.74-1.68-1-3.05,1-1.67-1.44-2.08-1.27-3.45C100.85,175.5,101.56,175.2,102.54,175.93Z"/><path class="cls-48" d="M133.68,165.91l4,4.15c-.24,2.43-2.78,1.82-4,3-.87-.05-1.72-.07-2,1L126.62,176a1.37,1.37,0,0,1-2.28-.49c0-1.63,1.11-2.93,1.38-4.48a4.79,4.79,0,0,1,.65-1.17c2.16-1.49,4.11-3.34,6.69-4.18Z"/><path class="cls-49" d="M126.6,170c0,.34,0,.69,0,1-1,1.07-1,2.68-1.9,3.81.31.93,1.09,1.11,1.93,1.18-1.58,1.91-3.76,2-6,2-2.37-2.43.21-4.18,1-6,1.19-2.67,0-3.13-2.2-3.11,0-1.91,1.42-2.18,2.78-2.57a3.34,3.34,0,0,1,1.33.24,20.87,20.87,0,0,1,2.75,2.81Z"/><path class="cls-50" d="M153.59,157c.25.89.85,2-.82,2-1.32.05-2.12.59-2.17,2l-1,.77c-.78.82-1.3.14-1.85-.32a6.57,6.57,0,0,1-1.14-2c-.41-2.48-2-4.92-.34-7.49C150.42,151.15,150.68,156,153.59,157Z"/><path class="cls-51" d="M102.67,183c2.06-1.55,4.52-.9,6.81-1.21,1.32.33,2.88-.35,4,.92-1.62.8-3.7-.28-5.16,1.23C106.45,183.48,104.33,184.64,102.67,183Z"/><path class="cls-52" d="M148.43,161.12l1.21.61c-.16,1.85-1.6,2.55-3,3.27l-1-1C145.28,161.77,146.29,160.89,148.43,161.12Z"/><path class="cls-53" d="M131.71,174.1c-.59-.51-1.29-1.11-.32-1.77s1.72-.14,2.29.73Z"/><path class="cls-54" d="M7.82,120.92,5.48,109.13c.86-4.33,2.88-1.9,4.68-.81,2.1,2.06,4.31,4.06,4.86,7.17,4.61,7.67,4.61,7.67-4.09,8.94A1.83,1.83,0,0,1,9.62,124Z"/><path class="cls-55" d="M10.55,123.92a9.84,9.84,0,0,1,2.5-1.35c1.43-.28,3.41,1.47,4.26-.76.78-2-1.72-2.44-2.52-3.73-.43-.69-.75-1.45-1.12-2.17,2.18-1.21,3.31.47,4.63,1.66a13.13,13.13,0,0,1,2.4,6.3c.21,4.81-2.34,9.47-.35,14.46.68,1.72-.32,3.94-3,1.76-2.17-3.87-5.05-7.4-5.88-11.93-.37-2,.86-1.69,2-1.41,1.72.41.9-.62.74-1.27a22.37,22.37,0,0,0-2.78-.75A2.16,2.16,0,0,1,10.55,123.92Z"/><path class="cls-56" d="M17.37,140.09c1.69.51,3-.21,2.06-1.8-2.81-4.91.15-9.56.17-14.32,4.08,1.25,3.62,4.82,4.06,7.93-2.77,1.69-1.8,3.5-.83,6s2.68,6-1.3,8.17C19.5,144.52,18.5,142.26,17.37,140.09Z"/><path class="cls-57" d="M10.55,123.92l1.24.13a3,3,0,0,0,3.65,0c1,3.16.91,3.31-3.95,4.11A6.41,6.41,0,0,1,9.62,124Q10.09,124,10.55,123.92Z"/><path class="cls-58" d="M181.56,109l-3.08,12c-2.2,2.33-4.7,1.8-7.26.78-.71-3.64,1.11-6.8,1.94-10.14.34-1.18.66-2.38,2-2.88,1.75.34,2.77-.53,3.6-2,.56-1,1.39-2.34,2.65-1.59C183,106.1,182.73,107.62,181.56,109Z"/><path class="cls-59" d="M171.58,122c2.06-1.92,4.72.11,6.9-1,.32,2-2,3.06-1.94,5-1.11.45-1.87-.36-2.69-.82-2.15-1.2-3.42-.63-3.87,1.79.64,3.87-2.39,5.92-4.2,8.58-.51.88-1,1.81-2.25,1.63-1.19-1.18-1.35-2.75-1.67-4.26a18.23,18.23,0,0,1,5.92-11.54A3.56,3.56,0,0,1,171.58,122Z"/><path class="cls-60" d="M162.59,150q0,.47-.06.93a1.66,1.66,0,0,1-1.9.4c-1.29-1.22-2-3-3.46-4-1-2.15-4-1.8-5-4a1.65,1.65,0,0,1,1-1.65c3,.23,3.43-4.26,6.64-3.74.52,1.48,1.45,1.74,2.75.9,1.28,1,1.28,3.2,3.39,3.3a2.63,2.63,0,0,1,1.65.91c-.78,1.47-1.2,3.18-2.82,4.07C163.13,147.38,162.71,148.57,162.59,150Z"/><path class="cls-61" d="M181.56,109c-.11-1.09.35-2.26-.54-3.27-2.45.84-.93,5-4.21,5.07-1,0-1.11-1-1.26-1.77a4.32,4.32,0,0,1-1.2-2.82c0-1.55-.68-3.19.6-4.58,1.45-1,3.16-.89,4.8-1.14,2.1-.28,3.73.14,3.39,2.75-.26,1.93.44,3.94-.53,5.79Z"/><path class="cls-62" d="M167.55,143h-2c-.68-3.15,2.73-4.67,3-7.57-1.12-1.6-2.73.55-3.93-.41,1.2-3.05,5.59-4.7,4-9,1-.5,1.71,0,2.46.51a7.45,7.45,0,0,1,1.4,1.46c2,2.29-.75,4.67.12,7Z"/><path class="cls-63" d="M172.57,135c-2.56-2,1.1-4.9-1-7a.85.85,0,0,0-.91-1l-2.09-1c2.64-4,3.69-4.06,7.95,0A31.64,31.64,0,0,1,172.57,135Z"/><path class="cls-64" d="M182.61,109c0-1.93,0-3.87-.05-5.81,0-2.51-1.45-2-2.92-1.3a1.71,1.71,0,0,1-.62-1.14,5.79,5.79,0,0,1,1.2-3.09,11.59,11.59,0,0,0,1.66-3c1-1.41,2.19-2,3.64-.57l-1,8.85c-1.67,1.75-.41,4.06-1.13,6Z"/><path class="cls-50" d="M160.6,151l1.93-.05,1.09,1.12q-1.44,1.66-2.89,3.32c-.14-.9-.21-1.84-1.13-2.37C159.15,151.92,159.69,151.35,160.6,151Z"/><path class="cls-65" d="M162.59,150c-1.28-1-1.15-2.09-.16-3.16.81-.88,1.62-.68,2.3.23A3.61,3.61,0,0,1,162.59,150Z"/><path class="cls-66" d="M143.63,31l-.25,2.82a1.16,1.16,0,0,1-1.19-.25c-1-1.43-1.79-3-2.85-4.41-1.68-5.1-6.32-7.15-10.21-10-1.56-1.77-2.4-3.93-.85-5.82,1.71-2.09,3.51.28,5.29.61,2.64,1.68,6.09,2.09,8,5-1.34,2.3.24,4.05,1.29,5.74C144.09,26.8,144.85,28.75,143.63,31Z"/><path class="cls-67" d="M101.67,13.05c1.1-.77.86-2,1-3.06,3.17-.34,6.1,1,9.19,1.26,1.77.37,3.54.88,5.9-.11-2-2.2-4.58-1.73-6.79-2.13a41.35,41.35,0,0,1-5.15-1.91,4.49,4.49,0,0,1-1.17-.75,1.08,1.08,0,0,1,0-1.27c4.52-.57,8.57,2,13,2l4,2c1.32.68,2.85.94,4,1.93h0a1.32,1.32,0,0,1,.4,1.11c-.51,1.2,0,2.47-.23,3.69a4.23,4.23,0,0,1-2.88,1.6c-3.81.5-7.4-1.08-10.92-1.87a16.9,16.9,0,0,0-7.64.18C102.73,15.55,101.32,15.21,101.67,13.05Z"/><path class="cls-68" d="M143.63,31c.78-4-3-6.19-3.94-9.59-.59-2.2-.1-2.6,1.83-2.43l3,2.07a17.92,17.92,0,0,0,5.2,4A13.27,13.27,0,0,0,143.63,31Z"/><path class="cls-69" d="M125.61,12c0-.33,0-.66,0-1,2.88.41,5.72.91,7.94,3-1.57.7-3.55-2-4.76.35-1,1.92.43,3.38,1.77,4.65-3.35,1.71-3.76-.66-4.19-3C126.28,14.63,125.59,13.36,125.61,12Z"/><path class="cls-66" d="M149.76,25.12c-2.49-.37-5.27-.36-5.2-4,2.72.17,4,2.6,6,3.87A1.55,1.55,0,0,1,149.76,25.12Z"/><path class="cls-69" d="M125.63,11a5.41,5.41,0,0,1-4-1.93C123.29,9,124.83,9.19,125.63,11Z"/><path class="cls-38" d="M5.53,76.93c1.11-4.27,1.31-8.76,3.11-12.87,1.24-.81.81-3,2.76-3.25l.57.49c.76,2.65-.86,4.8-1.51,7.15C9.61,72.33,8.31,76.1,7.67,80c-.52,1.75-.63,3.6-1.39,5.28a1.92,1.92,0,0,1-2.79.78C4,83,2.3,79.42,5.53,76.93Z"/><path class="cls-70" d="M18.47,44.81l1.11.14c1.2.89-1,5.22,3.15,3.12-.06,3.31-3.14,5.11-4,8a21.25,21.25,0,0,1-3.4-4.16c.27-1.88,2-3.08,2.29-5Z"/><path class="cls-38" d="M16.6,59a2.15,2.15,0,0,0-2.1,1.19c-1.56-1.49-1.53,1.3-2.66,1l-.43-.36a20,20,0,0,1,1.94-7,2.18,2.18,0,0,1,1.11.7C15.09,56,17.14,56.9,16.6,59Z"/><path class="cls-38" d="M17.59,47c.53,2.15-1.1,3.43-2,5-.06,1.18-.36,2.16-1.83,2.13l-.41-.32C13.7,50.85,16,49.11,17.59,47Z"/><path class="cls-71" d="M23.66,131.9c-1.82-2.4-1.78-5.76-4.06-7.93l-2.07-6c-.56-1.19-1.56-2.13-2-3.41-.66-4.48-2.91-8.74-1.94-13.47.73-1.91,1.66-3.58,4.14-3.29,1.88,1.52,2.08,3.68,2.15,5.85.39,12,4.49,22.64,11.2,32.41,1.31,1.91,2.86,3.74,2.12,6.33-.7,1.29-1.66.83-2.62.39-2.38-1.77-2.95-4.84-4.91-6.93C25.39,134.35,25.05,132.86,23.66,131.9Z"/><path class="cls-72" d="M25.68,135.87c2.41,1.44,3.3,4.08,4.91,6.16a1.81,1.81,0,0,1,.43,2c-.59.84-1.26,1.47-2.39,1C25.19,142.75,28.25,138.4,25.68,135.87Z"/><path class="cls-73" d="M28.63,145l2-1.09c1.6-.59,3.19-1.19,4.85-.21.41,2.42-.67,3-2.83,2.35-1.18-.23-2,.51-3,1A2.07,2.07,0,0,1,28.63,145Z"/><path class="cls-74" d="M53.57,20.84l-2,.16c1.71-5.13-2.67-2.12-4.1-3.06L51.62,15l6-2.12c1.1.66,2.71.13,3.48,1.52C60.31,18.61,57.22,20.06,53.57,20.84Z"/><path class="cls-75" d="M142.49,33.84a3,3,0,0,0,.89,0c.06,1,.13,2,.19,3a1.31,1.31,0,0,1,.37,1.3c-2,2.08-2.35,6-6.49,5.61-.77-1.4.09-3.43-1.72-4.43-7.21-3.94-13.88-9.07-22.38-10.18a7.75,7.75,0,0,1-3.44-1.07c-1.74-1.19-3.79-.67-5.69-1-2.25-.6-4.7-.52-6.74-1.9a2.28,2.28,0,0,1-.24-2.16c4.68-3,9.18.32,13.76.51,1.68.08,3.37.9,4.61,1-2.64-1.27-6.71-.3-9.22-3.42,2-2.2,4.27-1.05,6.49-.59,9.3,1.94,17.29,6.79,25.38,11.42,1.15.66,2.18,1.56,3.55,1.76Z"/><path class="cls-76" d="M143.62,38c0-.37,0-.75-.05-1.12,3.74-.85,2.05-6.28,5.94-7a2.14,2.14,0,0,1,.28.32c-.38-.55.11.21-.29-.33,2.48-1.7,4.56-1,6.43,1.05a4,4,0,0,1-.56,1.09c-.91,1.16-1.42,2.58-2.42,3.68-2.31,2.08-4,4.91-7.13,6C142.8,41.83,143.24,39.9,143.62,38Z"/><path class="cls-77" d="M161.67,33c-2.83,1-2.9,3.91-4.18,6-1.37,2.69-3.23,3.8-6,1.87-.24-2.75,3-3,3.65-5.09a6,6,0,0,0,0-3.51,2,2,0,0,1,.22-1.16c.21,0,.41-.07.62-.12l3.85-.11,1.65,1.32A4.45,4.45,0,0,0,161.67,33Z"/><path class="cls-78" d="M60.57,14c-1.38.71-2.79,1.47-3-1.08,2.09-1.59,4.2-3.11,7-2.93-.58,1.06-2.16,1.46-2,3A2.08,2.08,0,0,1,60.57,14Z"/><path class="cls-20" d="M80.73,5.07C76.92,7,72.63,6.84,68.62,7.89c1.08-2.91,4.41-1,6-2.79C76.65,4.24,78.69,3.32,80.73,5.07Z"/><path class="cls-79" d="M80.73,5.07l-6.11,0-.91-1,4.57-1.16c.78,1.19,4.13-1.74,3.3,2.05l-.42.13Z"/><path class="cls-80" d="M16.64,115c.29,1,.59,2,.89,3-1.33-.61-2.18-2.11-3.86-2.08.32-3.3-2.83-4.53-4.1-6.88-1.23-2.09-2.12-4.4-4-6.07-.31-2.37-1.92-3.72-3.81-4.84,0-1,0-2.07,0-3.1,1-2.71-.72-7.43,4.92-6.8,2.24,1.07.61,2.25.11,3.41-.21.39-.42.77-.61,1.17A2.93,2.93,0,0,0,7,96.33l1.47,1.26c1.61.86,1,2.6,1.58,3.88a9.61,9.61,0,0,1,.8,1C11.42,107.26,14.89,110.73,16.64,115Z"/><path class="cls-81" d="M5.57,103c4.31.06,3.48,3.51,4,6.07-1.38-.74-2.8-2.93-4.09.1C3.52,107,6.16,105,5.57,103Z"/><path class="cls-82" d="M7.59,89c-5.1-1-4.26,3.68-5.82,6.06,0-2.11.05-4.22.07-6.33.49-1,.33-2.44,2-2.49L5.65,85a5.61,5.61,0,0,1,4.9-1.69,8.64,8.64,0,0,1,4.8,2.45c2,4.21-.8,4.26-3.68,4.23C10.32,89.61,8.83,89.77,7.59,89Z"/><path class="cls-83" d="M3.81,86.2l-2,2.49q.43-6.31.86-12.63a6.49,6.49,0,0,1,.74-.26l2.09,1.13Q4.66,81.57,3.81,86.2Z"/><path class="cls-84" d="M95.48,180.87c-4.85,2-6.52.6-6.9-5.92l.45-.69c.71-.52,1.42-.73,2.1,0,.09.11.2.23.3.36.27.38.61.46.62.23.13-5.77.7-11.55.42-17.29-.54-11.26-.14-22.52-.19-33.77a4.7,4.7,0,0,1,1.29-3.65c1.18-.44,1.54.44,2,1.22,1,8.2.2,16.44.46,24.65.09,2.62-.28,5.28.63,7.83a93.64,93.64,0,0,1,.12,16.32C95.55,173.63,96.2,177.33,95.48,180.87Z"/><path class="cls-85" d="M88.58,175c-3.72,1.89.64,5.73-1.9,7.91h0c-2.28-1.32-1.75-4.08-3-5.91h0a2.07,2.07,0,0,1-.7-1.15,1.9,1.9,0,0,1,1.28-2.12c2,.88,2.65-3,4.86-1.32a2.27,2.27,0,0,1-.53,2.55Z"/><path class="cls-86" d="M95.48,180.87a11.55,11.55,0,0,1,.09-9.88,3.53,3.53,0,0,1,1.21,2c.13,2.27,1.82,4.6-.24,6.8Z"/><path class="cls-87" d="M102.54,175.93a2,2,0,0,0-1.91,1,3.83,3.83,0,0,1-1.12,3l-1.12.81-.94-.92c-.69-1.4.19-2.59.53-3.85a14.79,14.79,0,0,1,3.37-3.14,1.13,1.13,0,0,1,1.2.23Z"/><path class="cls-84" d="M98.4,176.17c-.31,1.22-.63,2.44-.94,3.65l-.46,0-.45-.05-.9-6.91c1.37-.41,1.71.78,2.35,1.51A2.44,2.44,0,0,1,98.4,176.17Z"/><path class="cls-88" d="M104.55,5.08a7.4,7.4,0,0,1,.15.82,4.12,4.12,0,0,1-1.64,2l-.62.22c-2.26-2.06-2-3.23,1.18-3.34A3.83,3.83,0,0,0,104.55,5.08Z"/><path class="cls-89" d="M153.59,157c-4.34,1.13-4.29-3.81-6.94-5A4.51,4.51,0,0,1,144,150.3a5,5,0,0,1-1.07-1.66,4.22,4.22,0,0,1-.11-1.37,2.35,2.35,0,0,1,1.77-2,3.74,3.74,0,0,1,3.63,1.72,26.12,26.12,0,0,0,4,4.48c1,1.39,3,2.23,2.39,4.49Z"/><path class="cls-90" d="M160.6,151c-.34.67-.67,1.34-1,2-.88,1.57-1.95,2.88-3.94,3-1.12-2.36.9-5.81-2.55-7.36-.84-.79-2.15-1.33-1.5-2.89,1.09-.87,2.33-.71,3.57-.52a6.63,6.63,0,0,1,2.38,1.75C160.11,147.12,160.7,148.77,160.6,151Z"/><path class="cls-91" d="M153.6,147.91c4.8,1.63,3.07,4.93,2.06,8.05l-1,0-3-4c-.51-1,3,.82,1-1.49C151.9,149.66,151.3,148,153.6,147.91Z"/><path class="cls-92" d="M99.51,179.93c.21-1.05,0-2.25,1.12-3,2.15.41,2.55,1.39,1,3C100.94,178.84,100.21,179.94,99.51,179.93Z"/><path class="cls-93" d="M184.42,88.84c.05.39.09.77.14,1.16-.45,1.38-.79,2.87-2.79,2.51a9.52,9.52,0,0,1-4.46-3.35,1.89,1.89,0,0,1,.16-1.32c1.33-.71,3-.81,4.05-2.06C183.89,85.47,183.77,87.52,184.42,88.84Z"/><path class="cls-94" d="M181.63,92c1.53.17,1.91-1.38,2.93-2a5.59,5.59,0,0,1,1,4.12c-1.46-.21-2.9-.4-3,1.74C179.87,95.12,180.62,93.57,181.63,92Z"/><path class="cls-95" d="M184.42,88.84,181.61,86a.56.56,0,0,1-.31-.51c0-.21,0-.32.11-.32l.37-.31c1.49.19,1.59-.94,1.83-1.94a2.53,2.53,0,0,0,.73.33C184.66,85.09,185.16,87,184.42,88.84Z"/><path class="cls-96" d="M88.53,6.88c0,.39.07.79.1,1.19.65-.09.4,1.74,1.18.77,1.16-1.44,2-3.16,4-1.19,2.43,5.95,1.21,12.17,1,18.21-.4,13.78-.21,27.56-.28,39-.08-8.31,0-18.9,0-29.5,0-1.79-.4-3.68.76-5.33a1.19,1.19,0,0,1,1.62.17c1.32,1.94,1,4.15,1,6.28q0,16.18,0,32.35c-.9,4.19,2.66,2.72,4.46,3.48a6.34,6.34,0,0,1,1.64,1.09c2.09,2.51,5,.22,7.31,1.21,1.13,1.41-.06,2.37-.76,3.32-.82,1.14-1,2,.54,2.54,2.22,1.22,1.36,4.54,3.82,5.6a7.93,7.93,0,0,1,1,3.8c-.1,1.67-2,2.15-2.4,3.6-.78,1.73.66,2.57,1.48,3.66a3.77,3.77,0,0,1,.11,2.78c-1.93,2.55-2.15,6.08-4.71,8.27-2.61-.51-2.74-2.63-3-4.64a6.46,6.46,0,0,1,.31-2.09,7,7,0,0,0,1.06-4.82,42.51,42.51,0,0,1,.27-7.65c-.27-2.5-2.34-4.07-3.23-6.24-.46-1.93-.88-3.9-3.57-3.68a51.61,51.61,0,0,0-12.08-3.3c-1.34-.55-2.93-.68-3.85-2.36,1.49-1.59,3.48-3,2.81-5.73.08-9.42-.12-18.84,0-28.25.08-2.93-.15-5.87,0-8.81-.09-1.62,0-3.25,0-4.88l.09-2.93c0-.43,0-.87,0-1.3,0-1-.14-2-1.18-2.54a6.25,6.25,0,0,1-1-.72,3.16,3.16,0,0,1-.93-1.57,1.14,1.14,0,0,1,.51-1c2.59-.34.92-1.52.62-2.61C86.78,10.88,85.25,8.39,88.53,6.88Z"/><path class="cls-97" d="M60.57,14a2.19,2.19,0,0,1,2-1h0c1.67,2.4,3.87,1.65,6.06,1,4-1.27,8.34-.9,12.26-2.83,2.37-1.17,4,.4,4.69,2.78-1.84.48-4,0-5.42,1.75a12.36,12.36,0,0,1-1.82,1,10.8,10.8,0,0,1-2.06.61A70.62,70.62,0,0,0,48.13,29.84c-1.28,1-2.5,2.31-4.4,1.4,1.38-2.07,1.41-5.55,5.27-5-.5-3.51,3.44-3.25,4.57-5.38C55.7,18.35,59.75,17.83,60.57,14Z"/><path class="cls-98" d="M79.6,15c1.74-1.88,3.62-2.93,6-1a1.81,1.81,0,0,1,1.16,1.69c-.07.18-.14.37-.22.56C84.11,16.56,81.68,16.76,79.6,15Z"/><path class="cls-78" d="M68.66,14c-2.3,1.3-4.55,2.26-6.06-1C64.47,14.19,66.59,14,68.66,14Z"/><path class="cls-99" d="M95.71,30.1V73.37C93,71.81,93.57,69.78,93.57,68c0-18.21,0-36.43,0-54.64,0-2.14.29-4.34-1-6.3a1.21,1.21,0,0,1,0-1.88c3.61.3,5.51,2.05,5,5.86-1.51,2.38,1,3.89,1.27,5.89a4,4,0,0,1-.68,1.24c-1.67,2.05-1.6,4.52-1.5,6.91C96.77,26.85,96.94,28.58,95.71,30.1Z"/><path class="cls-100" d="M98.65,17.05c-3.17-1.52-3.29-3.58-1.05-6.05.16,2.12,1.4,1.47,2.28.73,2.71-2.28,1.31.74,1.78,1.32a2.54,2.54,0,0,0,3,1.8c1.49-.25,3.09-1.17,4.19.74-1,2-3,1.47-4.61,2A10.28,10.28,0,0,1,98.65,17.05Z"/><path class="cls-88" d="M111.6,12c-3.14,0-6.22-.33-9-2l-.18-1.85.27-.22c1.15-.32,2.57-.23,2.86-1.86,1.94,0,3.37,1.23,5,2C111.48,9.21,114.45,9.88,111.6,12Z"/><path class="cls-101" d="M92.63,5.14c0,.63,0,1.25,0,1.88-2.83,1.18-1.48,4-2.33,6.19-1.91-1.41-1.73-3.29-1.63-5.14Z"/><path class="cls-102" d="M74.6,174a6.92,6.92,0,0,1-7-2c-1.57-.89-3.39-1.16-5-2h0c-1.67-2.07-4-1.85-6.34-2.08A4.24,4.24,0,0,1,52.4,164c-.19-1.48,1.44-.75,2.26-1,5.93,2.48,11.67,5.44,17.94,7.05.68.86,2,1,2.45,2.14A1.73,1.73,0,0,1,74.6,174Z"/><path class="cls-103" d="M85.54,170.8l0-.8c-.57-2.86-3.12-2.68-5-2.94-12.32-1.69-22.37-7.94-31.81-15.48-1.63-1.31-2.62-3.52-5.11-3.61a10.6,10.6,0,0,1,4-4c2.39.47,4,2.16,5.82,3.61a64.65,64.65,0,0,0,33.69,14.21,4.93,4.93,0,0,1,2.76,1,4.9,4.9,0,0,1,.59,4.38,6.63,6.63,0,0,1-1.66,2.33,6.44,6.44,0,0,1-2.08,1.77A1.22,1.22,0,0,1,85.54,170.8Z"/><path class="cls-104" d="M51.55,139.93c.86-1.44,1.32-3.18,3-4l.72,0c7.6,2.62,14.8,6.26,22.36,9A27.62,27.62,0,0,0,81.92,146c4.08.78,5.8-.56,5.52-4.87-.12-1.76-1.06-4.52,2.28-5,2.4,5.39,1,11,1,16.53-2.46,4.41-5.63,5.13-10.92,4.5C70.12,156,63.29,150,55.41,145.74,53.5,144.71,51.14,143,51.55,139.93Z"/><path class="cls-105" d="M51.55,139.93c8,8.14,17.1,13.79,28.63,16,4.07.78,6.42-.58,9.38-1.94a7.43,7.43,0,0,1,0,9c-16.6-.59-30.3-7.58-42-19A6.69,6.69,0,0,1,51.55,139.93Z"/><path class="cls-106" d="M32.65,146.05a3.08,3.08,0,0,0,2.91-2,.82.82,0,0,1-.33-.69c0-.27.05-.4.11-.4,1.25-1.13,2.75-.36,4.13-.57a4.85,4.85,0,0,1,1.2.13,3.25,3.25,0,0,1,1.9,1.43C40,148,35.13,149.68,32.65,154c-1.69-2.27-.28-3.24.67-4.29s.55-1.66-.73-1.88Z"/><path class="cls-107" d="M54.56,135.92l-2.1-1c-.29-2.1,1.48-3,2.51-4.37,1.07-1.05,1.88-2.36,3.06-3.32,1.44-1,2.52-2.58,4.53-2.52a2.35,2.35,0,0,1,1.38,1.43c0,2.26-2,3.49-2.87,5.3-2,1.81-3.09,4.77-6.44,4.64Z"/><path class="cls-108" d="M55.65,131l-3.19,3.87L49.61,137c-1.36.69-2.87,2.53-3.76-.49A3.85,3.85,0,0,1,46,135.1a15.61,15.61,0,0,1,3.06-3.71c1.33-1.13,2.36-2.75,4.41-2.71A4.29,4.29,0,0,1,55.65,131Z"/><path class="cls-106" d="M46.61,136c.21,2.66,2,.62,3,1a20.44,20.44,0,0,1-6,6c-.74-.87-.72-2.06-1.32-3a2.51,2.51,0,0,1,.08-1.33C43.45,137.22,44.3,135.41,46.61,136Z"/><path class="cls-109" d="M42.58,140c2.64.21.71,2,1,3l-1,1a2,2,0,0,1-2-1C39.66,140.86,40.41,139.93,42.58,140Z"/><path class="cls-110" d="M85.54,170.8a5.62,5.62,0,0,0,.7.1c1.31,2.09-.3,2.45-1.73,2.92l-.9,2.15c-3.29,2.28-6-.89-9-1h0v-3a6.29,6.29,0,0,1,5.1-.06C81.73,171.94,83.86,172.53,85.54,170.8Z"/><path class="cls-27" d="M79.7,171.91l-5.1.06a1.82,1.82,0,0,1-2-2A17.75,17.75,0,0,1,79.7,171.91Z"/><path class="cls-111" d="M58.6,172c.8.26,2.16-.62,2.26,1,0,.46-.73,1.42-1,1.38-1.21-.24-1.2-1.36-1.3-2.33Z"/><path class="cls-23" d="M62.61,170a5.81,5.81,0,0,1,5,2A5.7,5.7,0,0,1,62.61,170Z"/><path class="cls-27" d="M74.6,175l9,1a3.16,3.16,0,0,1,0,1C80,179.08,77.47,176.26,74.6,175Z"/><path class="cls-27" d="M83.62,177c1.83,1.55,1.81,4.05,3,5.91l-2,0Q84.14,179.91,83.62,177Z"/><path class="cls-112" d="M32.54,43.94l6.07.06c1.38,2.14-.36,3.4-1.45,4.72A69,69,0,0,0,21.74,83.08c-.32,2.22-.43,4.67-2.49,6.26a2.4,2.4,0,0,1-1.52,0C16.31,87.87,15.42,86,14,84.51,12.83,79.37,15,74.78,16.33,70a3.29,3.29,0,0,1,1.41-1.86c3.14-7.09,6-14.34,10.92-20.48C29.81,46.28,30.84,44.78,32.54,43.94Z"/><path class="cls-113" d="M11.84,61.17c.76-.69,1.09-2.49,2.66-1a1.93,1.93,0,0,0,1,1.88c1,3.61-.24,6.65-2.46,9.44C8.91,73.2,8.78,71,9.58,68Z"/><path class="cls-114" d="M12.63,71l2.85-8.94c1.8,1.65,1.95,3.91,2.26,6.12-.09.6-.19,1.19-.28,1.79-1.66,1.4-1,5.81-5.18,3.94A2.46,2.46,0,0,1,12.63,71Z"/><path class="cls-115" d="M13.76,54.1,15.59,52c2.72.09,3,2,3.11,4.11L16.6,59C15.21,57.62,13.55,56.41,13.76,54.1Z"/><path class="cls-116" d="M40.75,34.14a2.53,2.53,0,0,1,.81-.2,10,10,0,0,0,6.32-2.17c10.86-7.93,22.76-13.35,36.41-14.24,1.15-.08,2.3-.37,3.32.46h0c1.2.77,3.33.94,2.08,3.27-4.44,1.93-9.33,1.28-14,2.71A88.82,88.82,0,0,0,48.41,37.66c-1.32,1-2.54,2.17-4.37,2.09S42,37.54,40.6,37C39.52,36,41,35.1,40.75,34.14Z"/><path class="cls-117" d="M40.6,37c1.58-.18,2,1.39,3,2,1.07.8,2.44,1.15,3.33,2.23.49.45,1,.92,1.42,1.4,1.22,1.26,2.47,2.48,3.72,3.71,1.35,1.41,2.73,2.8,4.15,4.15,2.29,2.36,4.64,4.65,7,7,.88,1,1.93,2,1.66,3.58a4.83,4.83,0,0,1-2.58,2.25c-1.85-.1-3-1.36-4.1-2.6C52.43,54,45.85,48.16,39.36,42.21A2.17,2.17,0,0,1,38.49,40L38.8,40C41.36,40.16,41.82,39.08,40.6,37Z"/><path class="cls-118" d="M38.49,40C47.3,46.87,54.4,55.51,62.61,63c2.12.51,3.19,2.38,4.74,3.63,2.86,2.9,5.77,5.77,8.66,8.65,1.27,1.58,3.25,2.72,3.14,5.14a2,2,0,0,1-.81,1.1,3.48,3.48,0,0,1-2.74,0,18.74,18.74,0,0,1-3.71-3.11Q68,74.48,64.05,70.6c-2.21-2.31-4.5-4.53-6.75-6.79-.9-.94-1.8-1.89-2.75-2.79-.32-.28-.62-.59-.92-.9-1.14-1.25-2.37-2.43-3.59-3.62a23.94,23.94,0,0,1-2.17-2.44,90.31,90.31,0,0,0-6.46-6.52A4.56,4.56,0,0,1,39.6,44C38.92,42.77,36.42,42,38.49,40Z"/><path class="cls-119" d="M39.6,44l2,3c-.1.23-.2.46-.29.7-9.73,11-15.41,23.88-18.15,38.19-.3,1.6-.27,3.36-1.71,4.55-1.36.34-2.7.64-2.86-1.42,1.49-1.74,1.62-4,1.91-6A66.75,66.75,0,0,1,37.08,47a4.48,4.48,0,0,0,1.53-3Z"/><path class="cls-120" d="M43.73,31.24c10-7.15,20.55-13.15,32.92-15.17.83,1,2.65-.31,3.16,1.39-1.37,2.29-3.89,1.46-5.84,2-9.43,2.47-17.83,7-25.78,12.46-1.74,1.2-3.38,3-5.7,1.06a3.3,3.3,0,0,1,.2-.92Z"/><path class="cls-121" d="M42.49,33c4.24.23,6.87-2.92,10-4.94,8.36-5.46,17.72-8.31,27.17-11,1-.86,2.24-.44,3.38-.57.63-.22-.52-.89-.11-.37a4.43,4.43,0,0,1-4.41-.21L79.6,15c2.39,0,4.9-.69,7,1.22L87.61,18c-10,1.55-19.87,3.24-28.83,8.36A70.07,70.07,0,0,0,47.18,34c-2,1.74-3.75,1.69-5.62,0Z"/><path class="cls-122" d="M163.6,48c2.16,4,6.07,6.66,7.94,10.84A11.15,11.15,0,0,0,172.61,62l2,0c1.73,1.05-.16,2.4.3,3.58a1.38,1.38,0,0,1-.82,2c-.95.36-1.54-.27-2.08-.93-.77-.92-1.08-2.89-2.81-1.93-1,.58-.47,2.14-.58,3.27a1.17,1.17,0,0,1-1.59-.74c-1.79-6.68-5.69-12.28-9.07-18.16a3.15,3.15,0,0,1-.37-3.29c2.63-1,4.28.76,6,2.19Z"/><path class="cls-123" d="M157.53,46.05c4.14,7.08,9,13.81,11.06,21.93a6.32,6.32,0,0,0,2,5c2.63,3.7,2.77,7.78,1.86,12a2.28,2.28,0,0,1-1.09,1.16c-2.56-.37-2.75-2.46-3.08-4.37a62.77,62.77,0,0,0-3.42-13.23c-2.49-8.83-7.82-16.11-12.9-23.53a4.48,4.48,0,0,1-.17-1.54c.19-1,.58-1.93,1.79-1.93,1.58,0,1.58,1.34,1.92,2.38.07.32.15.63.23,1C156.08,45.7,157.17,45.27,157.53,46.05Z"/><path class="cls-124" d="M174.58,77c0-.49,0-1,0-1.46.11-1.41-.45-3.56,1.32-3.75s3.18,1.71,3.51,3.47c.6,3.17.8,6.42,1.16,9.64a1.51,1.51,0,0,1-1.32.36,11.12,11.12,0,0,1-2-.88C174,82.75,172.3,80.58,174.58,77Z"/><path class="cls-125" d="M174.58,77c-.64,3.49.69,5.81,4.08,6.92-1.09,1.49-3,1.1-4.38,1.84-.87.32-1.73.74-2.68.25.27-4.37-.47-8.67-1-13-.17-1.39-.34-2.77-.52-4.31,2.76.25,3.58,1.83,3.56,4.23C173.6,74.35,173.19,75.91,174.58,77Z"/><path class="cls-126" d="M171.6,86l2.05-1.15a10.5,10.5,0,0,1,5.93,0h1a2.66,2.66,0,0,0,.83.25,4.78,4.78,0,0,0,.2.83c.31,4.16-2.34,2-4,1.88-2,.9-4.33.36-6.23,1.6-.82,0-1.74,0-1.8-1-.08-1.36.94-1.91,2.08-2.27Z"/><path class="cls-127" d="M155.48,44c-1-.6-2.16-3.59-3,.15-1.93.44-3.48,0-4.37-1.92a2.5,2.5,0,0,1,2.11-2.73,1.86,1.86,0,0,1,1.38.51c2.43,2.23,4-.37,5.87-1.07l1.15,1.12Z"/><path class="cls-41" d="M157.53,46.05c-.76-.12-1.53-.22-1.82-1.1,2.72.78,6.79-2,7.89,3C161.16,48.65,160,45.29,157.53,46.05Z"/><path class="cls-128" d="M172.61,62c-1.48-.68-2.81-1.41-1.07-3.18Q174,59.77,172.61,62Z"/><path class="cls-129" d="M122.58,166.94l-3.11,2c-3.17-.23-5.89,1.62-9,1.95-.86-.89-2.55.28-3.15-1.26.94-2.35,3.46-1.58,5.07-2.59a27.51,27.51,0,0,1,8.18-2C121.65,165.28,122.79,165.43,122.58,166.94Z"/><path class="cls-130" d="M112.45,172.77c2.22-.62,3.58-2.65,5.57-.67.72.72,1,2.34.37,2.65C116.28,175.78,114.56,174.59,112.45,172.77Z"/><path class="cls-131" d="M109,174.46c-1.55.73-2.83.93-4.41-.81C106.5,172.72,107.77,172.58,109,174.46Z"/><path class="cls-132" d="M102.55,173.06c-.31-.06-.62-.1-.93-.13a2.08,2.08,0,0,1-.69-1.31,2,2,0,0,1,2.43-2.23,3.13,3.13,0,0,1,2.38,1.7Z"/><path class="cls-133" d="M105.74,171.09l-2.1-1a2.56,2.56,0,0,1,3.86-.17c1.06.15,2.26-.14,3,.95Z"/><path class="cls-134" d="M122.58,166.94c-.45-.84-1.28-.94-2.1-1.06a2.09,2.09,0,0,1,1.54-2.25c6.45-2.58,12.07-6.6,17.88-10.29,1.13-.71,2.3-1.32,3.69-.65a2.43,2.43,0,0,1,.71,2.08c-.24,1.66-1.79,1.54-2.85,2.1l-6,4c-.16,1.57-1.49,2-2.58,2.73a28.48,28.48,0,0,0-3.87,2.12,7.22,7.22,0,0,1-2.9,1.25,6.78,6.78,0,0,1-2.5,0l-.5,0Z"/><path class="cls-135" d="M141.45,156.87l2.22-1.93a1.62,1.62,0,0,1,1.28-.41c2.16,1.16,1.32,3.83,2.71,5.38l.77,1.21A5.32,5.32,0,0,0,145.6,164c-2.86-.48-2.24-2.69-1.7-4.26C144.84,157,143.21,157,141.45,156.87Z"/><path class="cls-136" d="M132.57,162.9l2.85-2.06c2.55,1,2.09,3.41,2.54,5.72l-4.28-.65-.08.05C132.27,165.27,131.57,164.37,132.57,162.9Z"/><path class="cls-137" d="M132.57,162.9l1,3.06c-2.31,1.36-4,3.87-7,4h0a1.08,1.08,0,0,1-.28-1.2c.55-1.38,2.8-1.83,2.14-3.88A6.56,6.56,0,0,1,132.57,162.9Z"/><path class="cls-138" d="M124.69,174.81c-.22-1.69,0-3.19,1.9-3.81C126.79,172.69,126.53,174.14,124.69,174.81Z"/><path class="cls-48" d="M126.57,169l0,1a2.84,2.84,0,0,1-3-3,2,2,0,0,1,2.18-.81A3.44,3.44,0,0,1,126.57,169Z"/><path class="cls-139" d="M147.66,159.91c-2.16-.93-1.43-3.71-3.14-4.93-.47-1.69-1.37-3.39.1-5l2,2C146.06,154.7,148,157.17,147.66,159.91Z"/><path class="cls-6" d="M15.44,124.05c-1.21,2.51-2.43,1.24-3.65,0Z"/><path class="cls-140" d="M171.58,122l-3.93,0a2.24,2.24,0,0,1-.78-1.25c-.19-2.6,1.13-4.81,1.86-7.18,1-1.91-.07-4.77,2.6-6,3.3-.14,2.25,2.9,3.25,4.44Z"/><path class="cls-141" d="M174.58,112c-1.43-1-.93-3.55-3.09-4a2.55,2.55,0,0,1-.45-2.83c2.08-2.73,3.32-.94,4.56.84,0,1,0,2,0,3C174.4,109.71,174.62,110.89,174.58,112Z"/><path class="cls-142" d="M167.49,120.94c0,.33.11.66.16,1l-5.14,11a7.39,7.39,0,0,1-3,5c-2.54.59-1.83,5.87-6,4.14a2.12,2.12,0,0,1,.23-2.32A143,143,0,0,0,165.19,119C167.21,118.15,166.82,120.19,167.49,120.94Z"/><path class="cls-143" d="M164.62,135a21.07,21.07,0,0,1,2.87-1.79,2,2,0,0,1,2.62.54A2.69,2.69,0,0,1,170,136c-1.38,2.38-2.93,4.66-4.42,7-4.28,1.14-2.49-2.31-3-4-.43-1.08.15-1.6,1.06-1.95A2.18,2.18,0,0,0,164.62,135Z"/><path class="cls-144" d="M163.61,137,162.55,139c-1.24.18-.36,2.73-2.06,2.07-1.22-.48-.82-2-1-3.14a7.43,7.43,0,0,1,3-5C164.06,134,163.44,135.6,163.61,137Z"/><path class="cls-145" d="M165.87,119.08c-2.54,8.49-7.41,15.73-12.32,23l-1,1a1.54,1.54,0,0,1-2,.07c-.51-2.17,1.27-3.25,2.26-4.69,4.62-6.72,8.59-13.76,10.94-21.63a31.82,31.82,0,0,0,1.81-7.71,10.54,10.54,0,0,1,.3-1.44c1.09-3.37.07-6.84.44-10.24a1.66,1.66,0,0,1,1.8-.91,9,9,0,0,1,3.85,3.93,2.74,2.74,0,0,1-.24,1.33c-1.28,2.88-1.37,6-2.12,9C168.29,113.52,168.87,117.08,165.87,119.08Z"/><path class="cls-146" d="M150.63,143l1.88.05c1.39,1.69,5.2.28,5.05,3.94a2.4,2.4,0,0,1-2.15-.94c-2-1.77-5.34,1.25-7-1.92a1.51,1.51,0,0,1,.22-1.35A1.54,1.54,0,0,1,150.63,143Z"/><path class="cls-147" d="M175.6,106c-1.27-.39-2.15-2.38-3.87-1-1.38-1.27-1.13-2.62-.24-4l.07-.19a1.45,1.45,0,0,1,1.14-.25,4.22,4.22,0,0,1,1.58.9l.33.52A6.91,6.91,0,0,1,175.6,106Z"/><path class="cls-148" d="M179.62,101c0,.28,0,.55,0,.83l-5,.11v0C175.75,98.72,177.67,99.83,179.62,101Z"/><path class="cls-149" d="M170.68,127c.47-.78.89-2.25,2-1.1s-.17,1.67-1.1,2.1Z"/><path class="cls-150" d="M179.62,101c-1.7.13-3.58-.73-5,.92a2.07,2.07,0,0,1-2.05-1c-.35-1.23-1.25-2.27-1.29-3.62a1.64,1.64,0,0,1,.83-1c2.42-.42,4.81.5,7.23.2A1.93,1.93,0,0,1,180.68,98Z"/><path class="cls-151" d="M180.68,98l-1.1-.87c-1.05-1.28.23-3.16-1.15-4.33-1.52-1-3.61-.32-5-1.73a2.18,2.18,0,0,1,1.1-2.54c1-.52,2-.14,3,.07,1.29,1.19,3.2,1.64,4,3.37.12,1.34-.4,2.83.91,3.89A1.78,1.78,0,0,1,180.68,98Z"/><path class="cls-152" d="M126.52,15c1.61,1.1.6,4.82,4.06,4.06a17,17,0,0,1,10,10c-4.51,1.12-6.58-3.47-10.23-4.36-2.53-2.62-6.93-2.09-9.09-5.36A6.46,6.46,0,0,1,122.6,16c1.07-.07,2.23.17,3.06-.8A.51.51,0,0,1,126.52,15Z"/><path class="cls-153" d="M130.72,23.9c3.86.61,6.12,4.27,9.84,5.14,1,1.45,2.53,2.7,1.93,4.8l.06.11a27.4,27.4,0,0,1-13.39-9C129.4,24.13,129.76,23.55,130.72,23.9Z"/><path class="cls-69" d="M122.6,16c0,1.11.15,2.31-1,3-4,1.1-7.31-1.4-11-1.79a3.18,3.18,0,0,1-1.85-1.34c-1.13-1.23-2.7-.77-4.08-1,2.46-1.44,4.58-1.18,7.53-.57C115.47,15,119,16.46,122.6,16Z"/><path class="cls-154" d="M111.6,12c1.35-1.76-1.32-2.51-1-4,2.8-.11,5.63-.33,8,1.61.59.49,1.34,1.28,1.32,1.91,0,1.15-1.2,1.5-2.19,1.41C115.64,12.76,113.4,13.78,111.6,12Z"/><path class="cls-155" d="M105.57,6.06c.05,1.16,2.61,1.88,1,3.12-1.29,1-2.57-.69-3.82-1.26-.12-1.45.79-1.88,2-2A8.85,8.85,0,0,1,105.57,6.06Z"/><path class="cls-156" d="M126.52,15a2.37,2.37,0,0,0-.86.25c-2-1-2.14-2.13,0-3.25Q127.85,12.91,126.52,15Z"/><path class="cls-157" d="M12.63,71c0,1,0,2,0,3,.59,3.21-.58,6.09-1.73,9-3.1,1.4-3.29-1.37-4.28-3C6.72,75.77,8.4,71.93,9.58,68,9.82,69.74,9.25,72.35,12.63,71Z"/><path class="cls-158" d="M6.66,80c2.28-.28,1.66,3.26,3.93,3a.74.74,0,0,1-.05,1L5.65,85C5.6,83.26,5.58,81.53,6.66,80Z"/><path class="cls-159" d="M39.61,142.94c-1.31,1.86-2.66-.32-4,0a2.41,2.41,0,0,1-3,0c.16-2.13-.82-3.82-2-5.47-7.42-10.16-11.77-21.4-12-34.12a33.15,33.15,0,0,0-1-5.34c1.24-3.41,3.95-2.81,6.58-2.43a1.9,1.9,0,0,1,.78,1.3c.45,14.86,3.39,28.89,13.18,40.75C39.32,139.07,40.85,140.69,39.61,142.94Z"/><path class="cls-160" d="M24.62,96c-2.45.27-4.91.5-7,2a6,6,0,0,0-3,3.09c-1.34,2.07-3,2.21-4.94.86h0c-.29-2.25,1.73-2.37,3-3.31-1.7.1-3.44.28-5-.59l-1.16-.92c-1.57-1.51-1.62-3.28-.9-5.19l.11.06c5.77,1.33,11.73-.15,17.5,1.24a3.07,3.07,0,0,1,1.64,1.92Z"/><path class="cls-161" d="M9.65,102c1.7,0,3.41.07,4.94-.86-.63,4.83,2,9.17,2.05,13.91A20,20,0,0,1,9.65,102Z"/><path class="cls-162" d="M32.6,142.93l3,0c0,.36-.05.72-.07,1.08l-4.93-.14c0-.63,0-1.26,0-1.89Z"/><path class="cls-163" d="M129.56,25.06l13,8.89c-1.2,3.19-2.51.5-3.51-.06-8.41-4.64-16.49-9.92-26.1-12a22.13,22.13,0,0,0-6.35-.88c-1.45,1.59-3.31,1-5,.87-1.49-.13-2.9-.41-3.91,1.06v2.12a4.08,4.08,0,0,1,1.06,2.58c.07.71.07,1.41.07,2.11,0,.47,0,.93,0,1.4,0,.7,0,1.4,0,2.1,0,1,0,1.91,0,2.87,0,.74,0,1.49,0,2.23s0,1.56,0,2.35c.07,1.92,0,3.84.06,5.76.16,3.21.07,6.42,0,9.63-.18,4.84.85,9.74-.87,14.48a1.2,1.2,0,0,1-1.58.48L96.4,30c-.62-2.87-.09-5.78-.3-8.67A4.13,4.13,0,0,1,98.65,17h0c1.62-1.35,3.39-.09,5.07-.27,1.8-.63,3.55-.07,5.31.2C116.37,18.4,123.63,20,129.56,25.06Z"/><path class="cls-164" d="M97.62,30V28c3.8-2.31,7.67-1.14,11.38.05a63.22,63.22,0,0,0,7.81,2.36c-1-.76-3.3,0-3.21-2.41,9.15,1.41,16.48,6.62,24.05,11.39,2.84,1.79-.67,3-.12,4.48-.08.23-.16.46-.23.69a1.9,1.9,0,0,1-1.93.72c-6.28-3.88-12.21-8.46-19.67-10-2.58,0-4.61-1.75-7-2.19a10.5,10.5,0,0,1-1.24-.39,20.14,20.14,0,0,0-4.35-.83,10.82,10.82,0,0,1-1.25-.3C100.41,31,98.75,31.25,97.62,30Z"/><path class="cls-165" d="M113.6,28c1.7,1.76,4.69,1.38,6.3,3.87-7.69-.72-14.54-5-22.28-3.87,0-1,0-1.95,0-2.93,2.41-.42,4.66.39,6.94.93,1.83,1.32,4.15-.26,6,1C111.32,28.16,112.5,27.94,113.6,28Z"/><path class="cls-166" d="M97.66,22.94c-.16-2,.34-3.36,2.69-2.52,2.05.75,4.15.45,6.24.59,4.14,2.43,9.47,2,13.24,5.51C112.65,23.77,105.1,23.73,97.66,22.94Z"/><path class="cls-167" d="M143.62,38c1.65.33-.56,3.19,1.94,3-1.87,4.07-4.38,7.54-8.74,9.28-1.73-2.32-.63-4.26.82-6.15l-.11-.25C140.37,42.75,140.84,39.18,143.62,38Z"/><path class="cls-164" d="M110.58,27c-2-.34-4.24.79-6-1C106.6,26.31,108.84,25.17,110.58,27Z"/><path class="cls-168" d="M136.57,49.94l9-9,6.94-6c1.66-.37,1.53-2.59,3.13-3,1.67,1.07,1.06,2.61.85,4.07-1.85,1.49-4,2.55-5.89,3.94a3.55,3.55,0,0,0-2,2.37c-.72,1.69-2.12,2.84-3.32,4.15-1.41,1.37-2.85,2.69-4.18,4.14-1.16,1.05-2.11,2.4-3.79,2.71-1.12-.28-1.41-1.1-1.4-2.13A2.35,2.35,0,0,1,136.57,49.94Z"/><path class="cls-169" d="M149.5,29.88c3.91,1.34.84,2.31,0,3.6-1.76-1.42,0-2.46,0-3.59Z"/><path class="cls-170" d="M155.63,31.91c-.76,1.3-1,3.11-3.13,3,1.23-1.08.48-3.6,2.81-3.89A2.87,2.87,0,0,1,155.63,31.91Z"/><path class="cls-170" d="M150.59,39.92A8,8,0,0,1,156.48,36c-.58,2.6-3.17,2.77-4.86,4Z"/><path class="cls-171" d="M23.64,94.09c-4.27,0-8.54-.18-12.81-.06-2.11,0-3.86-.33-5.2-2-.35-1.65,1.52-1.88,2-3,1-.23,2-1,3.09-.11a2,2,0,0,1,.46,1.75c.28,2.41,2,.59,3,1,1.65-.3,1.95-2.44,3.63-2.69l.88.08c.72,1.18,1.89,1,3,1a3.16,3.16,0,0,1,2.9-.79,2.57,2.57,0,0,1,1.25.8c-.1,1.92-1.56,1.87-2.86,2-.08.11-.51-.23-.34.28a1.78,1.78,0,0,1,1.27,1.31C23.78,93.74,23.71,93.91,23.64,94.09Z"/><path class="cls-161" d="M7.58,98.05,14.91,97c-.53,3.3-3.95,3-5.26,5-2.08-.34-2.28-.5-1.27-1.79C9.5,98.71,7.5,98.85,7.58,98.05Z"/><path class="cls-161" d="M5.52,91.94l.9,5.19C3.6,95.84,4.3,93.94,5.52,91.94Z"/><path class="cls-172" d="M10.54,84c0-.34,0-.68.05-1a16.3,16.3,0,0,1,2.08-9c2.8.06,2.79-3.2,4.79-4.07-1.08,4.94-3,9.72-2.75,14.92.43.46.38.85-.15,1.18Z"/><path class="cls-173" d="M14.56,86.07l.15-1.18c1.37,1.07,2.81,2.08,3,4-1.24,1.2-.5,4-3.16,4-1-1.37-3.05-.5-4-2,0-.71.05-1.42.08-2.13C11.94,87.88,16.56,91.61,14.56,86.07Z"/><path class="cls-174" d="M93.63,120c.46,13.08-.43,26.15.49,39.26.38,5.45-.22,11.21-.55,16.81-.07,1.2.68,3.21-1.08,3.34-2,.14-1.79-1.92-1.89-3.37,0-.66,0-1.33,0-2,.81-8.18,1.59-16.36-.4-24.5-.08-4-.06-8,0-12,2.14-5.35.3-11.08,1.57-16.51a2.53,2.53,0,0,1,1.1-1.25Z"/><path class="cls-175" d="M90.64,150.05c2.16.2,2,1.83,2,3.29,0,6.23,0,12.46,0,18.69,0,1.44,0,2.79-2.07,2l-2,.89.12-2.93c-.9-.78-.21-2-.78-2.87.21-.92,1-1,1.71-1.17,1.09-4.17.24-8.42.54-12.62C90.26,153.55,89.62,151.72,90.64,150.05Z"/><path class="cls-176" d="M97.48,175l-1.83-2.12c0-.64-.06-1.27-.08-1.91q0-8.52,0-17.05c-1-10.74-.15-21.51-.44-32.26,0-1-.2-1.93.4-2.79a1.31,1.31,0,0,1,1.65.54c1.13,2,.82,4.19.83,6.33,0,13.27,0,26.53,0,39.8a19.69,19.69,0,0,0,.45,5.93A3.62,3.62,0,0,1,97.48,175Z"/><path class="cls-177" d="M95.54,121q0,16.49,0,33c-1.65-1.67-.9-3.77-.92-5.67-.07-9.1,0-18.21,0-27.31C94.93,120.5,95.24,120.52,95.54,121Z"/><path class="cls-178" d="M95.54,121h-.92l-1-1,0,0a4.39,4.39,0,0,1-.58-.8c-1-2.11-1.13-4.19.5-6a1.39,1.39,0,0,1,2.18,0c1.66,1.92,1.35,3.94.06,5.94C95.67,119.71,95.61,120.34,95.54,121Z"/><path class="cls-179" d="M87.88,169.1c2.37.38,1.4,1.67.78,2.87-.64.88-1.27,1.76-1.93,2.62-1.49,1.93-1.89.68-2.22-.77.58-1,1.15-1.95,1.73-2.93C86.79,170.3,87.33,169.7,87.88,169.1Z"/><path class="cls-180" d="M97.48,175c0-1-.07-2.07-.1-3.1a5.39,5.39,0,0,1-.19-2.64,1.22,1.22,0,0,1,1-.71,2.78,2.78,0,0,1,1.67.91,20.89,20.89,0,0,1,1.52,2.69,6.65,6.65,0,0,1,.23.76c-.1,2.06-1.94,2.37-3.22,3.24Z"/><path class="cls-181" d="M144.73,145.85a2.44,2.44,0,0,0-1.18,2.21,1.4,1.4,0,0,1-1.3.17c-2-1.17-3.4-3-5.09-4.56-1.38-1.45-2.79-2.87-4.25-4.26-1.89-1.92-3.8-3.82-5.72-5.72q-2-2.13-4.13-4.17c-1.64-1.7-3.32-3.36-5-5q-2-2.13-4.18-4.15c-2-2.14-4.31-4-5.94-6.45a23.4,23.4,0,0,0-2-2.66,3.91,3.91,0,0,1-.9-3.82,1.5,1.5,0,0,1,1-.78c3.55,1.6,6.07,4.59,9.16,6.82,2.35,2.15,4.28,4.71,6.64,6.85,1.55,2.06,4.33,1.82,6.21,3.28,1.34,2.87,2.44,5.89,5,8,1,1.78,2.84,2.75,4.23,4.15,1.8,1.92,4,3.45,5.68,5.45C144.07,142.54,145.85,143.66,144.73,145.85Z"/><path class="cls-182" d="M144.73,145.85c-1.36-4.43-6.18-5.94-8.24-9.78a2.2,2.2,0,0,1,.63-3.15,2.43,2.43,0,0,1,2.65.37,11.73,11.73,0,0,1,1.56,1.34c1.25,1.27,2.51,2.51,3.79,3.75,1.22,1.54,3.18,2.55,3.46,4.78,1.32,3.23,5.08.64,6.83,2.84h-3.87c-1.12,1-2,2.37-3.89,1.89A3.44,3.44,0,0,0,144.73,145.85Z"/><path class="cls-183" d="M142.6,148a3.79,3.79,0,0,1,1,.1l0,.93a3.57,3.57,0,0,1-.15,4.09c-3.74,1-6.28,4-9.55,5.73-4.45,2.39-8.93,4.72-13.39,7.07L112.64,168c-1.19.71-2.48.37-3.73.34.76-2.27.74-2.32,3.58-3.21,8.74-2.74,17.08-6.29,24.58-11.65,1.77-1.27,3.5-2.51,4.45-4.55A3.33,3.33,0,0,1,142.6,148Z"/><path class="cls-184" d="M147.65,147.89c1.1-1,2.09-2.31,3.89-1.89l2.06,1.91c-1.06.76-.72,1.49-.14,2.43,2.49,4-1.42.89-1.88,1.64C150,150.92,148.4,149.8,147.65,147.89Z"/><path class="cls-185" d="M143.43,153.08l.15-4.09,1,.95c0,1.68-.07,3.36-.1,5l-.85,0Z"/><path class="cls-186" d="M177.59,88.6l-3,.41a2.78,2.78,0,0,1-2.32.61,1.51,1.51,0,0,1-.88-.82c1.72-2.5,3.91-1.91,6.16-1C177.58,88.1,177.58,88.35,177.59,88.6Z"/><path class="cls-187" d="M62.6,58a29.78,29.78,0,0,1-7-7c-1.35-2.41.8-3.31,2.08-4.29,7.63-5.84,16.41-9.18,25.59-11.68,3.92-1.07,5.53,1.35,7.22,4L90.59,69c-1,4.56-4.36,4.71-8,4.2,0-.16-.12-.43-.06-.47,6.34-4,4.41-10.36,4.75-16.09.18-10-.24-10.24-9.9-6.84C71.94,51.66,67.51,55.25,62.6,58Z"/><path class="cls-188" d="M51.59,47a10.55,10.55,0,0,1-4-4c2.41-5.72,8.07-7.64,12.78-10.42,8.08-4.76,17.12-6.95,26.33-8.41a4,4,0,0,1,3.72.81l0,5.05a3.4,3.4,0,0,1-3.1,2.12C74.44,33.46,63.25,38.92,53,46.6A3,3,0,0,1,51.59,47Z"/><path class="cls-189" d="M51.59,47c8-8.14,17.92-12.48,28.8-15,3.34-.79,6.87-.57,10.08-2l0,9c-1.14,1.35-3.42,1.74-2.93-.12,1.14-4.36-1.89-3.11-3.31-2.76C74.13,38.68,64.5,42.43,56.38,49.27c-.44.37-.53,1.16-.78,1.75A10.81,10.81,0,0,1,51.59,47Z"/><path class="cls-190" d="M97.52,71q0-7.5.08-15c.51-.42.89-1.07,1.55-1.23,4.47-1.07,15.51,6.33,16.38,10.94-2.37,4.4-4.93,8.59-10.64,9.07a3.2,3.2,0,0,1-1.29-.85L102.48,73C101.07,71.74,98.81,72.6,97.52,71Z"/><path class="cls-191" d="M115.6,90c-1.21-1.06-.61-2.69-1.24-3.93a1.11,1.11,0,0,1,.42-1.24c2.5,1.7,5,3.59,8.3,2.85,1.77,0,3.54,0,5.31,0l4.48.05c2.15,0,4.29.14,6.44,0,2.91-.11,4.13-1.92,3-4.27-1.58-3.34-1.57-6.79-2.22-10.21a27.85,27.85,0,0,0-6.64-14.07,1.8,1.8,0,0,1,0-1.42,4,4,0,0,1,3.4-1.38c2.67.63,4.32,2.68,5.5,4.78,4.26,7.55,7.64,15.46,8.26,24.27a4.71,4.71,0,0,1-1,3.28,3.91,3.91,0,0,1-1.22,1c-1.73.65-3.62.66-5.35,1.33a10.21,10.21,0,0,1-1.65.31c-4.38.32-8.76,0-13.13.14C124.05,91,119.56,92.76,115.6,90Z"/><path class="cls-192" d="M90.44,25c-16,1.79-30.6,7.14-42.83,18l-1-1c-1.29-2,.08-3.2,1.39-4.16C60.65,28.5,74.37,22,90.51,22,90.49,23,90.46,24,90.44,25Z"/><path class="cls-193" d="M90.6,75c4.21.07,8.08,1.46,11.89,3.09a.73.73,0,0,1,.36.71c0,.27-.09.41-.17.41a3,3,0,0,1-1.17.55,6.37,6.37,0,0,1-3-.54,2.65,2.65,0,0,0-1,0c-1.47,2.15,2,3,1.29,4.91a11,11,0,0,1-3.32,2.21,1.78,1.78,0,0,1-1.24-.45c-.94-.68-.78-4.15-3.14-1.23-1.17,1.46-3.07,1-4.53,1.65-3-.75-4.46-4.38-8-4.08A.93.93,0,0,1,78.61,81h0a5.1,5.1,0,0,1,2.61-2.32C84.31,77.35,86.49,73.7,90.6,75Z"/><path class="cls-194" d="M90.51,22c-7.55,2.39-15.63,2.38-23,5.74A109.81,109.81,0,0,0,48.56,38.66a4,4,0,0,0-2,3.31,6.32,6.32,0,0,1-3-2.95c4.79-1.92,8.22-5.91,12.75-8.28C66.81,25.28,77.4,20.42,89.6,21c.31-.49.62-.47.92,0C90.52,21.34,90.51,21.69,90.51,22Z"/><path class="cls-170" d="M136.48,50.82A2.55,2.55,0,0,0,137.53,53c.61,3-2,3.32-3.6,4.48C126.39,65.53,118.56,73.33,110.6,81c-2.6.9-3.56.17-2.09-2.36A27,27,0,0,1,111.58,75a5.64,5.64,0,0,1,1.78-2.85c3.53-3.6,7.13-7.13,10.65-10.74,2.71-2.61,5.3-5.35,8-7.94C133.3,52.25,134.34,50.57,136.48,50.82Z"/><path class="cls-195" d="M114.86,97.18c-3-.15-4.07-1.35-2.24-4.12,5-2.63,10.34-1.59,15.56-1.07,1.79.17,3.58.57,5.4.57,3.94.39,8-.82,11.84,1,1.52,3.32-.93,3-2.92,3.27-8.62.94-17.28.31-25.92.66A3,3,0,0,1,114.86,97.18Z"/><path class="cls-196" d="M110.6,81c2.11-4.87,6.45-7.81,10-11.36,4.28-4.25,8-9.13,13.17-12.43.23.19.31.38.23.56s-.16.28-.24.28l-.25.94c.12,3.61-3.81,3.93-5.16,6.35q-2.1,2-4.12,4c-1.05,1-2.09,2-3.1,3.06-.74.73-1.47,1.46-2.19,2.21-1,1-2.09,2.1-3.09,3.2-2.55,2-1,4.75-1.33,7.16-.07.35-.13.7-.19,1C110.94,86,112.64,82.09,110.6,81Z"/><path class="cls-197" d="M110.56,88.92c-1.46,2.56.35,5.5-1,8.07-2.13,1.68-4.76,2.85-5.26,6.05-.19,1.22-1.39,1.74-2.67,1.72a4.6,4.6,0,0,1-3.15-1.54,1.53,1.53,0,0,1,.12-1.35c3-1.5,2.19-5.12,4.12-7.21a6.4,6.4,0,0,0-1.28-.77,2.89,2.89,0,0,1-1.35-1.53,2.53,2.53,0,0,1,.19-1.36,2.43,2.43,0,0,1,1.18-.63,11.05,11.05,0,0,1,3.81.85C107.57,91.63,108.08,88,110.56,88.92Z"/><path class="cls-196" d="M133.6,93.92c-7-1.12-14-.88-21-.86-.27-2.25,2.3-1.76,3-3.09l13,.17c1.85.63,3.84,1,5.18,2.59A1,1,0,0,1,133.6,93.92Z"/><path class="cls-198" d="M90.6,75c-3.75.3-5.86,3.58-9,5-.49-.44-1.15-.63-1.61-1.1-.86-1.27-2.09-2.41-1.57-4.21,1.08-1.33,2.28-2.36,4.17-1.68,3.23-.21,6.38-.59,8-4,.06,2.17.35,4.5-3.2,4C88.19,74.55,90.07,73.59,90.6,75Z"/><path class="cls-23" d="M101.59,104c1-.12,1.9-.53,2-1.73.22-3.83,2.62-5.13,6-5.27,1,1.67,1.14,3.11-1,4-3.59.16-3,2.6-2.66,4.91a1.16,1.16,0,0,1-.29,1.16v0c-1.87,2.49-4,4-7.15,2a1.91,1.91,0,0,1,.11-2.57A35.57,35.57,0,0,1,101.59,104Z"/><path class="cls-196" d="M105.65,107.06l0-1c.67-1.33.79-3.19,3-3.06a5.87,5.87,0,0,0,2,5c3.73.39,5.78,2.41,6,6.19a1.69,1.69,0,0,1-2.08-.15Z"/><path class="cls-199" d="M114.86,97.18a1.53,1.53,0,0,0,.75-.2c4.44-1,8.94-.25,13.41-.43a1,1,0,0,1,.8,1.33c-1.25,1.53-3,1.35-4.73,1.46-3.89-.18-7.76-.4-9.14,4.6a1.94,1.94,0,0,1-2.47,1.15c-1.33-2.1.25-3.53,1.15-5.12C114.71,99,114.78,98.11,114.86,97.18Z"/><path class="cls-200" d="M114.63,100q-.6,2.49-1.21,5c.71,3.43,4.14,5,5.42,8.08a1.45,1.45,0,0,1-.37,1.24,1.54,1.54,0,0,1-1.87-.31,22.28,22.28,0,0,0-6-6C111.56,105.12,111.6,101.79,114.63,100Z"/><path class="cls-201" d="M110.56,88.92c-1.93.53-2.3,3.64-4.94,3-.7-.92-.15-1.85,0-2.77.06-.37.14-.73.2-1.1a7.59,7.59,0,0,0-.55-2.18,20.19,20.19,0,0,1,0-2.46c.07-.19.16-.39.24-.58a.89.89,0,0,1,1.13,0A12.24,12.24,0,0,1,110.56,88.92Z"/><path class="cls-202" d="M108.58,103c-1.26.75-.8,3.18-3,3.06-2.89-2.33-.82-4.61.51-6.33,1.14-1.47,2.21-.27,2.47,1.31C108.6,101.64,108.59,102.29,108.58,103Z"/><path class="cls-100" d="M98.65,17C95,20.83,97.15,25.65,96.4,30a4.37,4.37,0,0,0-.7.15c0-3-.06-6-.1-8.93C95.57,19,95.89,17.13,98.65,17Z"/><path class="cls-203" d="M113.6,73a3.29,3.29,0,0,1-2,2c-2.72.12-5.85,3.25-8-1.06l1,0c1.47,1.09,2.75.53,4-.45C110.16,72.3,111.8,71.84,113.6,73Z"/><path class="cls-203" d="M97.52,71c1.78.35,3.72.29,5,2-1.7-1.45-5.52,3.5-5.9-1.94A3.3,3.3,0,0,0,97.52,71Z"/><path class="cls-203" d="M106.62,82.85a6.51,6.51,0,0,1-.88.06,2.43,2.43,0,0,1-.93-.87c-.47-1.22-1.52-2-2.23-3.05a4.68,4.68,0,0,0-.09-.91C106.66,77.24,106.83,79.88,106.62,82.85Z"/><path class="cls-121" d="M90.52,21H89.6c.17-1.55-1.4-1.95-2-3C89.82,17.78,90.85,18.73,90.52,21Z"/><path class="cls-204" d="M78.48,15.88l5.44.29c-1.48,1.35-3,.6-4.3.86-1.06-.09-2.24.18-3-1Z"/><path class="cls-205" d="M108.6,17.81l-4.88-1c1.46-1.42,3.34-.45,5-.89l1.88.15C111.14,18,109.19,17.15,108.6,17.81Z"/><path class="cls-206" d="M90.64,150.05c-.69,5.94,1.26,12-1,17.88,0-1.65,0-3.3,0-5q0-4.5,0-9c-.5-6,1.22-12.1-1-18-.17-.21-.33-.43-.5-.65a4.31,4.31,0,0,1-.07-2.44c.89-5.19-.94-10.6,1.21-15.69,2.06-.8,2.52.45,2.68,2.09-.7,4.11-.18,8.25-.33,12.37-.07,1.81.15,3.66-1,5.27Q90.63,143.48,90.64,150.05Z"/><path class="cls-207" d="M54.63,136l5.9-5.07a6.15,6.15,0,0,1,2.32-1.58c1.48-.23,2.51.6,3.47,1.53a11.57,11.57,0,0,0,9.44,3.39,6.69,6.69,0,0,1,3.39.43c1.92.82,3.71,4.1,5.91-.1.67-1.28,2.67-.07,3.54,1.34h0c0,1,0,2,0,3,0,9.72-2.59,10.68-11.76,7.22-5.06-1.91-9.42-5.81-15.46-5.77C59.14,140.42,56.88,137.57,54.63,136Z"/><path class="cls-105" d="M39.61,142.94c-2.21-5.77-7.06-9.87-9.48-15.63-3-7.26-6-14.39-5.53-22.46a6.57,6.57,0,0,0-1.2-4.7c-1.13-1.47-1-2.82,1.21-3.17a3.27,3.27,0,0,1,3.95-.42c1.21,1.11,1.27,2.61,1.35,4.09.67,12.15,4.1,23.31,11.73,33,1.25,1.59,2.44,3.23,1,5.34,0,.33,0,.65,0,1a3.08,3.08,0,0,0-2,3l-.48,0Z"/><path class="cls-208" d="M63.64,126l-1.09-1.14a1.51,1.51,0,0,1-.13-1.31c3-3.41,5.6-7.17,9-10.25,3.25-1.94,4.62-6.42,9.1-6.71A3,3,0,0,1,82.06,108a4.52,4.52,0,0,1-1,4.08c-4.49,3.44-7.9,8.06-12.43,11.47-.54.38-1.09.74-1.62,1.13C66,125.32,65.19,126.65,63.64,126Z"/><path class="cls-209" d="M62.63,124a8.08,8.08,0,0,0-.08.86l-4,3c-1.41-.68-2.7,1.67-4.14.15-.33-1.66.8-2.62,1.72-3.7A6.93,6.93,0,0,1,60,122.08C61.25,122.22,62.77,122,62.63,124Z"/><path class="cls-210" d="M54.67,128c1.34,1.14,2.46-3.37,3.89-.16L55.65,131a1.86,1.86,0,0,1-2-2C53.39,128.06,53.7,127.69,54.67,128Z"/><path class="cls-211" d="M63.64,126l3-2c1.39,3.81-2,4.44-4,6a2.12,2.12,0,0,1-2.09,1C60.54,128.66,62.89,127.83,63.64,126Z"/><path class="cls-212" d="M54.67,128l-1,1-4,3.09c-6.65-8.75-11.14-18.4-12.15-29.46-.19-2.06-1.24-4.23.45-6.18a13,13,0,0,1,9-.18c1.2.74.68,1.57.21,2.49-2.51,4.91-1.12,9.59.86,14.23.58,1.35,1.88,1.59,3,2.25,3.65,2.16,6.12,5.2,5.61,9.83Z"/><path class="cls-188" d="M42.62,139a5.09,5.09,0,0,0-1.16-3.65c-9.39-11.06-13.1-24-12.85-38.33,1.71-1.63,3.62-1.44,5.59-.59,1.67,2.82,1.21,6.06,1.56,9.09a49.76,49.76,0,0,0,9.34,24.3c1.12,1.53,2.85,3,1.58,5.3a4.16,4.16,0,0,1-.07.86Z"/><path class="cls-213" d="M46.68,135.1c-2.76-5.71-7.47-10.32-9.29-16.57-2-7-4.4-14-2.78-21.52a2,2,0,0,1,3,0c1.43,3.2,1.37,6.7,2,10.06,1.25,7.21,3.63,13.94,8.34,19.6a7.64,7.64,0,0,1,1.76,5.42C48.66,133.09,47.67,134.1,46.68,135.1Z"/><path class="cls-214" d="M62.6,58c3.7-5.57,9.64-8.19,15.5-9.76C89.89,45.11,88.49,43.38,88.6,56c-2,2-4.84,2.08-7.3,3-7.12,2.68-7.14,2.63-8.43,9.41a3.94,3.94,0,0,1-2.75-.48c-2.37-1.87-5-3.52-5.55-6.86Z"/><path class="cls-215" d="M64.57,61.06l6,6c.91,1.42.53,2.21-1.13,1.81-1.06-.25-1.82-1.28-2.75-1.9a11,11,0,0,1-4.06-4C62.66,61.72,63.24,61,64.57,61.06Z"/><path class="cls-216" d="M57.68,62.94a33.23,33.23,0,0,1,7,7c-2.46,4.46-6,8.34-7.22,13.46-.53,2.14-.72,3.34,2.18,3.38,3.43,0,6.83,1.3,10.3.18a1.56,1.56,0,0,1,2.27,1.2c0,2.73-2.08,2.93-4,3.09a21.17,21.17,0,0,0-5.71.75c-4.41.28-8.87,1.34-13.11-.86-.45-.78-1.19-1.39-1.14-1.93a3.85,3.85,0,0,1,.44,1.62c-1.87,1.6-3.28.73-4.57-.83-.39-10.25,3.53-18.88,10.06-26.49A2.53,2.53,0,0,1,57.68,62.94Z"/><path class="cls-212" d="M57.68,62.94c-4,.73-5.36,4.44-7,7.24A47.45,47.45,0,0,0,44.61,90c-5.06,4.26-10.37,1.11-15.6.54-.87-.73-.53-1.39.13-2,3.52-.8,4.94-3.11,5.51-6.61C36.07,73.27,40,65.65,45.11,58.68c1.29-1.74,2.57-4.11,5.54-2.72a11.24,11.24,0,0,1,4,4c-7.62,7.25-11,16.65-13.56,26.48C43.67,76.63,47.19,67.3,54.64,60A6.92,6.92,0,0,1,57.68,62.94Z"/><path class="cls-217" d="M71.6,87c-3.11,3.53-7.11.92-10.64,1.55-.12,0-.27-.2-.42-.23-5.74-1.26-6.18-1.46-3.61-7.4,1.75-4,3.25-8.66,7.74-11a45.89,45.89,0,0,1,8,8c1.81,2.93.43,5.7-.45,8.49Z"/><path class="cls-119" d="M29.61,89l-1,.91a2,2,0,0,1-3,.12l-1-.06c-1.47-2-1.65-4,0-6,1.14.8,1,.76,1.57-1.3a85.75,85.75,0,0,1,12.48-28C39.81,53,41.84,51.5,41,48.94A2.17,2.17,0,0,1,41.6,47l0,0a14.82,14.82,0,0,1,7,7,2.08,2.08,0,0,1-1.23.51c-3.2.46-4.37,3.27-5.91,5.44-4.13,5.79-6.65,12.4-9.18,19C31.3,82.23,33,86.3,29.61,89Z"/><path class="cls-218" d="M29.61,89c1.81-3.46-.08-7.59,2-11,1.24,1.08.81,2.39.34,4.11A63.55,63.55,0,0,1,44.13,56.19c.84-1.08,1.51-2.76,3.47-2.2l1.06,0,2,2c-5.55,1.57-6.81,7-9.31,11a40.88,40.88,0,0,0-5.79,17.3C35.17,87.83,33.42,89.74,29.61,89Z"/><path class="cls-219" d="M62.58,91c1.65-1.71,3.77-.91,5.67-.94,2.19,0,3.6-.53,3.35-3.05v0c1.32-2-.17-5.83,3.94-6l3.06,0c0,.39.11.78.17,1.17,1.65,3.06-2,4.92-1.72,7.67.64,4,.21,8,.44,12,.8,2.76.43,5.08-2.45,6.44a1.78,1.78,0,0,1-1.16-.72c-1.17-3-3.38-5.66-3.15-9.15.23-1.35,1.34-2.05,2.17-3a1.53,1.53,0,0,0-.11-1,12,12,0,0,0-2.28-1.18C68.14,91.48,64.8,93.23,62.58,91Z"/><path class="cls-220" d="M66.67,67c1.32-1.19,2.51,3.35,3.88.09l2.08.93c2.75,1.68,5.78,3.13,6,7,.53,1.42,2.13,2.3,2,4-2.46.31-3.14-2.33-5-3A49.68,49.68,0,0,1,66.67,67Z"/><path class="cls-216" d="M75.55,81c-2.61,1.15-2.19,4.29-3.94,6l1-9A6,6,0,0,1,75.55,81Z"/><path class="cls-219" d="M75.64,76c2.3,0,3.13,2.35,5,3l1,1-3,1C78.82,78.61,76.3,77.84,75.64,76Z"/><path class="cls-192" d="M41.6,47v2c.69,1.56-.5,2.53-1.26,3.5A72,72,0,0,0,26.89,80.8,6.7,6.7,0,0,1,25.61,84c-1.81,1.74-.67,4-1,6l-3,0A75.37,75.37,0,0,1,39.77,47.59C40.12,47.17,41,47.19,41.6,47Z"/><path class="cls-221" d="M144.84,46.45c.5-2.06,2.16-3.08,3.75-4.16l3.91,1.86c0,.29,0,.57,0,.86-2.2,2,.26,2.84,1,3.93,4.62,6.44,9.3,12.83,11.4,20.65-1.17.94-.31,2.86-1.76,3.68-2.28-.37-2.59-2.39-3.41-4C156.31,60.69,151.78,52.78,144.84,46.45Z"/><path class="cls-186" d="M163.58,73c.4-1-1.65-2.77,1-3,1.06-.39,0-1.85,1.12-2.2,2.38,4.43,3.1,9.33,3.89,14.18.27,1.67.19,3.34,2,4.16.51.93-3.16,1.55-.2,2.66l.29.32a1.1,1.1,0,0,1-.44,1.36,7.72,7.72,0,0,1-3.81.79c-2.08,0-4.18.21-6.19-.54a1.83,1.83,0,0,1-1-1.12,1.6,1.6,0,0,1,.7-1.22c3.19-.73,4.07-2.56,3.41-5.82S162,76.33,163.58,73Z"/><path class="cls-222" d="M165.7,67.8c-.06,1,.23,2.21-.26,2.86-.75,1-.65-.28-.86-.66-3.69-8.13-7.9-15.93-14-22.55-.63-.68-1.9-1.29-1.22-2.38.86-1.39,2.1.19,3.17-.06A54.79,54.79,0,0,1,165.7,67.8Z"/><path class="cls-186" d="M179.58,84.88l-5.94,0c1.45-1.51,3.36-.55,5-.94Z"/><path class="cls-176" d="M108.59,168l4,.07c-1.33,1.67-3.79.26-5.14,1.87l-3.86.17c-1.54-.14-2.07.79-2.25,2.1-1.3-.17-1.72-1.09-1.87-2.22,1.49-3,4.56-1.88,6.91-2.68A2.68,2.68,0,0,1,108.59,168Z"/><path class="cls-223" d="M126.57,169c-1.22-.7-1-1.8-.82-2.9l2.71-1.23C131.14,166.6,131.12,166.64,126.57,169Z"/><path class="cls-224" d="M171.49,101l.24,4-.24,2.94c-1.76,1.69-.06,4.44-1.86,6.12-1.19-.75-.46-2.09-.94-3.06C169.93,107.77,168,103.63,171.49,101Z"/><path class="cls-225" d="M168.69,111c1.1.78.83,2,.94,3.06-.71,2.29-1.42,4.57-2.14,6.86l-1.62-1.87Z"/><path class="cls-226" d="M171.49,117.75c-.19.21-.42.68-.76.78a.6.6,0,0,1-.78-.78,1.61,1.61,0,0,1,.79-1C171.32,116.57,171.48,117.06,171.49,117.75Z"/><path class="cls-227" d="M148.58,143.16,144.46,139c11-10.61,15.09-24.2,16.63-38.87.14-1.27-.38-2.68.85-3.71,1.67-.77,3.24-.87,4.61.6a13.22,13.22,0,0,1,0,10.94c-1.09-.83-.93-2-.78-3.09-2.47,14.11-7.37,27.15-17.21,38Z"/><path class="cls-228" d="M148.61,142.89c2.07-6.13,7.22-10.47,9.42-16.61,2.66-7.41,6.45-14.45,6.62-22.58a1.71,1.71,0,0,1,1.41-1.89c1.1,2,.26,4.15.54,6.19,0,.33,0,.66,0,1-1.13,2.56-1.25,5.36-2,8-2.34,9.9-7.79,18.13-14,26Z"/><path class="cls-229" d="M166.55,97.06h-5c-2.75,2.24-6.16.78-9.15,1.66a74.53,74.53,0,0,0-11.28-.31c-3.85-.48-7.93,1-11.57-1.31l-14-.12c2.69-2.07,5.78-.83,8.67-.94,6.59-.25,13.19-.2,19.78-.28,1.08,0,1.35-.75,1.4-1.66,2-2.09,4.52-1.36,6.93-1.19a76.55,76.55,0,0,0,13.76,1.68c2,0,4.44-.49,5.53,2.14l-.1.28a2.27,2.27,0,0,1-3,.12Z"/><path class="cls-230" d="M168.58,97.13l3-.12c.64,1.24,2.39,2.2,1,3.95l-1-.15C170.45,99.68,168.48,99.24,168.58,97.13Z"/><path class="cls-227" d="M164.6,117c-.1-2.86.05-5.65,2-8A15.58,15.58,0,0,1,164.6,117Z"/><path class="cls-231" d="M171.68,96.73c-5.39-.59-10.78-1.19-16.18-1.75-1-.1-2,.1-2.73-.84,4.59-2.52,9.75-1.73,14.64-2.56,4.08-.2,8.12.71,12.21.42,2,1.73.66,3.42,0,5.13C176.84,99.06,174.31,97,171.68,96.73Z"/><path class="cls-232" d="M179.62,92c-3.85,2.27-8,.56-12,1-1.37-1-1.71-2,0-3l4-.13a2.84,2.84,0,0,1,2.1,1C175.62,91.34,177.87,90.21,179.62,92Z"/><path class="cls-233" d="M173.62,91a2,2,0,0,1-2.09-1,7,7,0,0,1,.19-.79l2.9-.11C174.29,89.66,174,90.31,173.62,91Z"/><path class="cls-234" d="M108.6,17.81l2-1.77,11,3c2.74,2.21,7,1.6,9.16,4.88l-1.16,1.16C122.73,22.2,116.06,18.86,108.6,17.81Z"/><path class="cls-235" d="M74.6,95c.21,2.21-2.34,1.67-3,3a110.48,110.48,0,0,1-22.49,0,3.7,3.7,0,0,1-1.51-1h-19l-4,0c0-.32,0-.64,0-1v0c1.28-1.35,3-1.36,4.64-1.37,14.64-.08,29.28,0,43.92,0A4.24,4.24,0,0,1,74.6,95Z"/><path class="cls-236" d="M74.6,95c-1.79,1.13-3.78,1-5.78,1H24.61c-.32-.63-.65-1.26-1-1.9l-.06-.29c1.49-1.38,3.37-1.1,5.16-1.18,10.71-.46,21.42-.11,32.13,0,4.62,0,9.26-.18,13.71,1.44A6.55,6.55,0,0,1,74.6,95Z"/><path class="cls-237" d="M114.69,66.22c-.09-3.42-1.87-5.3-5.13-6.3a20.57,20.57,0,0,1-7-3.32c-1.8-1.48-3.25-.9-4.94-.61V46c4.69-1.75,8.09-.93,10.52,2.91,1.82,2.88,5,3.62,7.6,5.18,2.39,1.43,4.23,3,5.23,5.58C120.09,63,118.43,65.61,114.69,66.22Z"/><path class="cls-238" d="M120.6,60.05c-3.57-3.71-7.4-7-12.6-8.2-.41-.1-1-.53-1.06-.84-.39-6.8-5.93-3.93-9.34-5,0-2,0-4,0-6a14.09,14.09,0,0,1,12.22,2.21,1.84,1.84,0,0,1-.6,2.18c.93.24-2.9-.09,0,.79,5,1.55,9.36,4.66,13.81,7.42a4.51,4.51,0,0,1,2.17,3.16C124.73,58.34,123.55,60.14,120.6,60.05Z"/><path class="cls-239" d="M109.61,43c-3.65-2.41-8.11-1.56-12-3V38c4.77-2.13,9.1.32,14,1.46.19.07-.34-1-.36-.31,0,.23-.16.26-.47.14-1-.4-2.27-.61-2.39-2.09a2.27,2.27,0,0,1,1.15-.9,38.82,38.82,0,0,1,21,9.39,3.65,3.65,0,0,1,1.09,4.45c-.8,1.72-1.79,3.19-4,3.15C122.61,48.09,116.16,45.46,109.61,43Z"/><path class="cls-240" d="M109.6,37h-1c-3.85,1.6-7.43.19-11-1l.06-3c3.08-2.81,6.75.4,10-1,3.06-.93,5.07,2.4,8,2,1.3.89,3.17.79,4.11,2.42-1.24,2.12-3,1-4.7.88S111.5,35.05,109.6,37Z"/><path class="cls-241" d="M97.57,36a39.27,39.27,0,0,1,11,1l4.83,3.15L97.61,38C97.59,37.32,97.58,36.65,97.57,36Z"/><path class="cls-242" d="M107.6,32c.51.89,2.46,2.66-.64,1.81s-6.21-.72-9.33-.82c0-.66,0-1.32,0-2a5.81,5.81,0,0,1,5,0h0c1.49,1.24,3.5-.17,5,1Z"/><path class="cls-240" d="M102.6,31h-5a5.46,5.46,0,0,1,0-1C99.31,30.2,101.2,29.34,102.6,31Z"/><path class="cls-243" d="M109.6,37c-.93-2.23.5-2.17,1.91-1.85,2.36.55,4.69,1.24,7.24,1.93-.47-2-2.58-1.69-3.15-3.08,7.65,2,14.61,5.2,20.06,11.14-.25,3.07-2,4.66-5,5,.95-4.75-3.59-5.38-6-7.09C120.3,39.89,114.91,38.37,109.6,37Z"/><path class="cls-244" d="M130.68,50.18a20.08,20.08,0,0,0,5-5l2-1c-.36,1.94-.72,3.89-1.07,5.83a6.4,6.4,0,0,0-.09.88l-11.9,11.12c-1.56-3.28,3.13-4.73,2.28-7.8a2.37,2.37,0,0,1,.75-1.11A5.82,5.82,0,0,0,130.68,50.18Z"/><path class="cls-240" d="M107.6,32c-1.69-.23-3.6.68-5-1C104.29,31.21,106.2,30.34,107.6,32Z"/><path class="cls-245" d="M144.84,46.45c4.67,1.18,6.82,5.24,9.09,8.72,2.78,4.26,5.46,8.72,6.67,13.81.59,1.09,1,2.65-.41,2.84-1.72.23-2-1.66-2.59-3a44.25,44.25,0,0,1,4.68,14.47c.33,2.18.76,4.34-1.69,5.68h0a3.13,3.13,0,0,1-3.55.58c-1.44-3.23-.88-6.75-1.09-10.08-.65-10.35-5.24-18.7-11.75-26.36-1-1.16-2.88-1-3.34-2.65A5.91,5.91,0,0,1,144.84,46.45Z"/><path class="cls-246" d="M140.87,50.48c1.17.79,2.64-.29,3.95,1.16,8.68,9.59,12.49,21,13.17,33.68.07,1.19-.91,2.44-1.4,3.67a2.52,2.52,0,0,1-1.5,1.77,7.94,7.94,0,0,1-6.3-.35,1,1,0,0,1-.2-1.42h0a8,8,0,0,1,1.89-1c2.69-.11,3.18-1.65,2.91-4a49,49,0,0,0-6.34-19.26c-1.35-2-2.94-3.9-4.28-5.93-1.61-2.43-3.54-3.19-6.18-1.8l-2.8,1c0-.28,0-.56,0-.84,1.33-1.33,3.11-2.26,3.73-4.22C138.61,52.09,139.16,50.52,140.87,50.48Z"/><path class="cls-247" d="M60.54,93.92l-37-.13-2-.83a1.25,1.25,0,0,1,0-1.93c1.38-.16,2.93.38,4-1l3-.12c5.35-.44,10.68,2,16,.09,1.33.52,2.66,1.74,4,0v0c4.54,1.9,9.31.55,13.95,1,3,.66,6.67-1.63,9,2C68,94.31,64.15,92.66,60.54,93.92Z"/><path class="cls-248" d="M10.6,91c1.53.24,3.65-.74,4,2-1.5,0-3,.07-4.48,0-.78,0-2,.09-1.91-1C8.32,90.69,9.69,91.11,10.6,91Z"/><path class="cls-173" d="M21.63,91c0,.64,0,1.28,0,1.93-.93-.22-2.58.51-2.41-1.21C19.31,90.75,20.74,91.07,21.63,91Z"/><path class="cls-249" d="M91.56,119.09A3.17,3.17,0,0,0,89.62,117a1.8,1.8,0,0,1-1.24-2.34c1.49-2.63,3.65-4,6.76-3.65a4.62,4.62,0,0,1,1.39.54,3.41,3.41,0,0,1,.85,1.2,8,8,0,0,1,.36,2.17,10.31,10.31,0,0,1,0,1.47,2.86,2.86,0,0,1-1.3,2.46l-.67.25c-.54-1.8.54-3.85-1.09-5.87-1.9,2.17-.7,4.63-1.07,6.78l-1,0C91.73,120.22,91.33,120,91.56,119.09Z"/><path class="cls-250" d="M91.56,119.09l1,.94q0,6.15.08,12.3c0,1.81.11,3.69-2,4.59C91.09,131,89.47,124.94,91.56,119.09Z"/><path class="cls-251" d="M96.41,118.83l.3-2.77a.92.92,0,0,1,1.39.25,5.48,5.48,0,0,1,.76,2.33c.17,2.74.09,5.47.14,8.21,0,1.38,0,2.75,0,4.13,0,1.66,0,3.32,0,5s0,3.33,0,5c0,1.94.05,3.88,0,5.82,0,1.36.07,2.73,0,4.1,0,1.85,0,3.71,0,5.56,0,.75,0,1.49,0,2.24-.23,3.19,1.71,3.34,4.17,3.16,10.75-.78,20-5.38,29-10.92,3.14-1.94,5.37-4.16,5.56-8a16.26,16.26,0,0,1,5,5l-.06,1c-10,9.48-22.14,14.71-35.54,17.31-3.17.62-6.68.14-9.31,2.67-.1,1-.2,2-.31,2.94-1.26-1.81-.67-3.87-.69-5.81C96.55,150.35,96.49,134.59,96.41,118.83Z"/><path class="cls-252" d="M97.69,169c-.16-1.7.18-2.87,2.27-3,15.68-1.1,29.41-7.07,41.61-16.82.22-.18.64-.11,1-.15-.22,2.68-2.37,3.72-4.2,5.12-8.91,6.81-19.4,10.17-29.75,13.84l-1.92,0c-2.65.94-5.52.05-8.15,1Z"/><path class="cls-253" d="M98.52,169c2.5-2.06,5.43-.66,8.15-1-2.07,1.8-5,.29-7.15,1.94C99.18,169.65,98.85,169.34,98.52,169Z"/><path class="cls-254" d="M137.61,142.94c2.33,3.51.59,5.34-2.44,7.35-10.2,6.75-20.77,12-33.33,13-4.52.36-4.23-1.53-4.21-4.34,1.76-1.8,4.06-2,6.38-2.24,10.17-1,18.82-5.66,27-11.4,1.42-1,3.19-2,2-4.34a2.29,2.29,0,0,1,.62-2A10.47,10.47,0,0,1,137.61,142.94Z"/><path class="cls-255" d="M133.61,139c0,.67,0,1.34,0,2,0,2.51-1.62,4-3.52,5-7.25,3.95-14.3,8.45-22.49,10.24-3.22.7-6.53,2.07-10,.7,0-2,0-4,0-6,5.45-2.37,11.71-1.87,17-4.92,1.82-1,3.94-1.66,5.81-2.75,4.06-2.35,8.68-4.25,7.16-10.42A25.21,25.21,0,0,1,133.61,139Z"/><path class="cls-256" d="M127.64,132.87c2.49,6.18,2.47,6.33-4,10.06-8.05,4.64-16.36,8.53-26,8,0-1.34,0-2.67,0-4a20,20,0,0,1,8.22-3.29c5.94-1.11,11.5-3.11,16.24-7.09,1.79-1.51,2.67-2.91,1.16-5a3.57,3.57,0,0,1-.31-1.4,2.26,2.26,0,0,1,.65-1.26A12.7,12.7,0,0,1,127.64,132.87Z"/><path class="cls-200" d="M96.6,113c0-.32,0-.64-.07-1,.63-1.38-4.21-5.55,2.06-4,2.74,2.49,4.74-.42,7.07-1a5.09,5.09,0,0,0,.92,4c-.7,1-1.89,1.55-2.65,2.54a4.63,4.63,0,0,1-1.61,1.12,4.88,4.88,0,0,1-2.73,0A6.09,6.09,0,0,1,96.6,113Z"/><path class="cls-257" d="M127.58,124c-2.24-.5-5,0-6-2.93-1.47-2.11-3.8-3.82-3.1-6.9l.16-.22c1.56-.6,2.36.64,3.37,1.39s1.77,1.8,2.7,2.65c.32.28.61.59.9.9,1.12,1.31,2.56,2.35,3.33,4a1.9,1.9,0,0,1-.18,1.3A.79.79,0,0,1,127.58,124Z"/><path class="cls-258" d="M127.58,124l1,0c2.25-.58,3.06,1.4,4.4,2.46a5.33,5.33,0,0,1,1.28,2.37,3,3,0,0,1-1.13,3l-.64.22C129.27,130.35,128.2,127.31,127.58,124Z"/><path class="cls-259" d="M102.49,114l1.11-1c1.69-1.65,3.32-1.47,4.92.14q3,3.48,6,7c.3.19.42.41.37.66s-.11.39-.19.39a2.35,2.35,0,0,1-2.41-.54c-.81-.66-1.52-1.43-2.29-2.15-.47-.42-.93-.86-1.39-1.3-1.33-1.5-3-1.7-4.89-1.47a2.85,2.85,0,0,1-1.27-.45A1,1,0,0,1,102.49,114Z"/><path class="cls-260" d="M118.45,114.17c1,2.3,2.07,4.59,3.1,6.89-3-1.65-4.74-4.61-7-7l2-.07Z"/><path class="cls-261" d="M123.63,128.89l-.1,1.1c-1.85.7-3.27,0-4.49-1.38a6.87,6.87,0,0,1-1-3.38,2.13,2.13,0,0,1,.6-1.25A16.59,16.59,0,0,1,123.63,128.89Z"/><path class="cls-258" d="M137.6,133c-.37,1-.74,2.05-1.1,3.07-1.59-1.08-3.82-1.53-4-4l.09-.07c1.28-.87,3,2.24,4.07-.41C137.43,131.76,137.92,132.13,137.6,133Z"/><path class="cls-262" d="M118.6,124l-.06,1c-.94.82-1.74.36-2.52-.28-.86-1.1-2-2.09-1.5-3.75,0-.31,0-.62,0-.93A10.16,10.16,0,0,1,118.6,124Z"/><path class="cls-263" d="M108.52,113.1c-1.62-.9-3.28-.24-4.92-.14.09-2,1.54-2,3-2A2.7,2.7,0,0,1,108.52,113.1Z"/><path class="cls-264" d="M152.37,97.81c2.94-1.9,6.14-.55,9.22-.75,2.24,5.88-.5,11.38-1.62,16.87a50.9,50.9,0,0,1-11.79,23.19c-1.09,1.27-2.1,2-3.72,1.92l-4-4c7.27-5.28,10.23-13.21,13-21.24a71.45,71.45,0,0,0,2.46-9.65c.32-1.66,1.16-3.69-1.21-4.77A3.83,3.83,0,0,1,152.37,97.81Z"/><path class="cls-265" d="M152.37,97.81l3.22.18c2,4-.23,7.69-.87,11.5-1.26,7.51-4.86,14-8.71,20.4-1.37,2.26-2.81,5.12-6.46,4.11l-2-1-1.07-1a1.69,1.69,0,0,1-.25-1.38,16.88,16.88,0,0,1,3.56-5.34c6.23-6.7,7.2-15.48,9.35-23.73.93-3.57-2.63-1.62-4.09-2.3-1.44-.32-3.35.08-3.5-2.24C145.21,97,148.88,96.11,152.37,97.81Z"/><path class="cls-266" d="M139.55,134c2.82-.3,4.43-2.43,5.64-4.48,5.73-9.73,9.75-20.09,10.4-31.53,3.32.81,2.19,3.6,1.84,5.32-2.05,9.93-4.94,19.58-11,28-1.5,2.07-3,4-6,3.76Z"/><path class="cls-267" d="M78.63,75l-6-7c-2-5.41-1.7-6.28,4.3-8.58C80.71,58,84.42,56.14,88.6,56c0,1.64,0,3.29,0,4.93.08,5.06,1.31,10.69-6,12Z"/><path class="cls-268" d="M127.56,54c2.12,3.83-3.08,4.92-3,8a80.18,80.18,0,0,1-11,11c-3.11-.69-5.67,3.68-9,1,5.33,0,6.91-4.92,10.08-7.74,2.46-1.59,4.18-3.89,5.91-6.17,1.88-.77,3-2.35,4.08-3.93C125.24,54.87,125.64,53.41,127.56,54Z"/><path class="cls-269" d="M127.46,64.68c1.32-2.65,4.34-3.49,6.08-5.7,2.06.1,3.68.05,3.78,3.19.08,2.37,2.28,4.6,2.85,7,.51,2.22,3.57,4.2.7,7.09-.79.81.28,3.47,1.56,4.35,2.74,1.88,1.67,4.72,1.39,6.67S140.58,89,138.57,89h-5a1.26,1.26,0,0,1,.22-1.29c1.92-1.18,2.45-2.71,2-5-.9-4.18-3.38-7.45-5.6-10.91C128.79,69.6,126.69,67.68,127.46,64.68Z"/><path class="cls-270" d="M114.55,85c-1.79-2.9-3.51-5.8.76-8.13,5.13-.65,4.65,3.87,6.46,6.2a14.41,14.41,0,0,0-2.64-5,3.77,3.77,0,0,1-.68-4.47l2-2a42.75,42.75,0,0,1,8.46,15.64,1.2,1.2,0,0,1-.71,1.12c-1.86.39-3.85-.51-5.63.58C119,89.46,115.88,89.06,114.55,85Z"/><path class="cls-271" d="M136.59,57c1.9-3.7,4-3.2,6.14-.26,1.7,2.36,3.25,4.83,4.86,7.26,2.87,6.87,5.75,13.72,5.45,21.43-.07,1.94-.63,3.06-2.45,3.55h-2a24.59,24.59,0,0,0-2.07-16C143.85,67.33,142.5,60.71,136.59,57Z"/><path class="cls-272" d="M133.59,93c-2.05-.3-3.42-1.79-5-2.87l14.09-.07c3,.09,6.08-.1,9,.82.3,1.47-.48,2.18-1.78,2.55C144.48,93.22,139,94,133.59,93Z"/><path class="cls-273" d="M151.62,91c-3-.47-6.14.92-9-.94a7.89,7.89,0,0,1,1-.18,7.17,7.17,0,0,1,5,0l7,0a5.43,5.43,0,0,1,4-.14c.83,1.29,1.11,2.52-.47,3.49C156.55,92.78,153.77,92.94,151.62,91Z"/><path class="cls-274" d="M122.6,89c1.75-1.81,4-.67,6-1,.25.22.33.44.25.65s-.17.32-.25.32Z"/><path class="cls-275" d="M128.59,89V88h0a3.73,3.73,0,0,1,4.44-.55l.57.56c0,.32,0,.65,0,1Z"/><path class="cls-276" d="M148.58,89.88h-5c1.44-1.52,3.3-.68,5-.9C148.59,89.29,148.59,89.58,148.58,89.88Z"/><path class="cls-277" d="M75.64,89.94c-.36-3.16,3-4.82,3.13-7.78,4.44-2.29,5.48,2,7.73,4a1.4,1.4,0,0,1,.43,1.71,1.54,1.54,0,0,1-1.1.56,4.8,4.8,0,0,1-1.78-.66c-.55-.31-1.08-.65-1.66-.91-2.64-.67-3.45,1.24-4.33,3.05a2.07,2.07,0,0,1-1.2.65A1.73,1.73,0,0,1,75.64,89.94Z"/><path class="cls-278" d="M105.52,82.06a3.43,3.43,0,0,0,.22.85l-.24.13c-1,1.1-2.54,1.38-3.69,2.28a3.25,3.25,0,0,1-1.27.27,2.17,2.17,0,0,1-2-1.6c-1.63-1.47-3.76-2.66-3-5.46.37-1.29,1-1.53,2-.54a1.63,1.63,0,0,0-.2,1.29c.13-.42-.06-.89.2-1.29L101.51,79C102.68,80.26,104.52,80.61,105.52,82.06Z"/><path class="cls-279" d="M86.54,87.9c0-.59,0-1.19,0-1.78a22.9,22.9,0,0,1,5.19-4.42c3.15-1.57,2.71,2.15,2.93,4.25a50.41,50.41,0,0,1-7.92,3.23.88.88,0,0,1-.36-.82C86.4,88.05,86.46,87.9,86.54,87.9Z"/><path class="cls-280" d="M86.72,89.11c1.87-3,4.69-3.53,7.9-3.16a5.24,5.24,0,0,0,1,0c2.43-1.34,4.27-1.34,4.66,2-.14.47-.5,1.23-.79,1.12C94.86,87.41,91,90,86.79,91A1.22,1.22,0,0,1,86.72,89.11Z"/><path class="cls-279" d="M99.58,89c.35-3.22-1.88-3-4-3,.11-2,1.57-2,3-2l2,1c1.4,1.78,2.33,3.65,1.13,5.92l-1,0C99.73,90.65,99.12,90.12,99.58,89Z"/><path class="cls-281" d="M105.52,82.06c-2.11,0-3.74-.6-4-3l1.07-.05C104.83,78.81,105.88,79.76,105.52,82.06Z"/><path class="cls-282" d="M158.6,93c1.3-.62,1-1.84,1.09-2.91.26-.48.55-.54.9-.09l7,.06a2.69,2.69,0,0,0,0,3c-5,0-9.8,1.68-14.81,1.12l-7.31,0-11.86-.18c0-.3,0-.6,0-.91l17,0C153.26,91.34,155.93,92.27,158.6,93Z"/><path class="cls-275" d="M127.46,64.68c1.52,4.26,4.5,7.68,7,11.32,1.88,2.76,2.14,5.78,3,8.67.93,3.12-1.46,3.47-3.84,3.32h0a4.86,4.86,0,0,1-2.47-3c-1.56-5.92-6.18-10.4-7.68-16.35Z"/><path class="cls-274" d="M123.44,68.64c4.9,5.65,7.53,12.49,10.15,19.34h-5c-2.29-5.65-6.31-10.44-8.11-16.34Z"/><path class="cls-274" d="M118.45,73.62c-.11,4,3.83,6.39,4.12,11.06-2.86-2.85-2.88-7.49-7.26-7.81Z"/><path class="cls-283" d="M99.58,89c.38.66.75,1.32,1.13,2L100.56,92a1.7,1.7,0,0,1-1.3.36c-.33-.07-.64-.17-1-.26-6.57-1.87-8.24-1-10.21,5.32-.41,1.3.27,2.67-.53,3.87-4.12.58-5.23-.34-4.65-4a13.07,13.07,0,0,1,3-6l.63-.41C90.58,88.26,94.55,85,99.58,89Z"/><path class="cls-284" d="M99.59,92l1,0,1,1c.94,1.17.33,2.1-.45,3-1.74,3.26-4.33,4.82-8.09,4.11-1.34-.25-2.6-.62-3-2.13a3.31,3.31,0,0,1,1.18-3.55C93.63,92.52,96.1,90.44,99.59,92Z"/><path class="cls-285" d="M99.61,106.94l-1,0c-2.12.35-3.91,1.69-6,2-6.24-1.46-7.05-2.49-5.26-6.65,3.38-2.37,7-2,10.68-.91l.59.64c0,.29.07.59.11.89C98.5,104.4,100.19,105.4,99.61,106.94Z"/><path class="cls-286" d="M100.62,95a2,2,0,0,0,.94-2,6.56,6.56,0,0,1,4.68,2.45c-2.79.53-5,1.09-4,4.81.62,2.34-2.3,1.35-3.67,1.78l.06-.1a1.7,1.7,0,0,1-.2-1.32C99.81,99,99.32,96.66,100.62,95Z"/><path class="cls-287" d="M101.69,90.94c-.38-2-.75-4-1.13-5.92l1.09-.07c1.6-.68,2.86-.09,4,1,.6.53,2.2.57,1,2-.27.2-.83.22-.86.3-.21.76.65.39.87.74l-1,2.91A5.77,5.77,0,0,1,101.69,90.94Z"/><path class="cls-288" d="M99.61,106.94c.52-1.53-4.74-1.68-1-4l2.93,1A2.89,2.89,0,0,1,99.61,106.94Z"/><path class="cls-263" d="M92.59,108c2-.35,3.88-1.39,6-1q0,.49,0,1c-.66.44-3.67-.84-1.45,1.65,1.44,1.61,1.33,2-.61,2.39l-.93,0a8.52,8.52,0,0,0-5.3-.47c-1.73.29-3.39.22-4-2C87.8,106.43,90.71,109.35,92.59,108Z"/><path class="cls-289" d="M121.44,116.05l-2.83-2.1c-1.55-1.64-3.13-3.26-4.65-4.92-1.11-1.22-2.38-2.46-.54-4.09.54-.37,1.5-.7,1.53-1.12.53-6.46,5-6.17,9.64-5.82,2.78,1.07,7.51.08,6,5.69a48.13,48.13,0,0,1-4.08,10.14C125.47,115.85,124.11,117.53,121.44,116.05Z"/><path class="cls-290" d="M141.6,97c1.07,1.4,2.62.82,4,1,1.54,1.71,1.06,3.68.76,5.65-1.17,7.71-4.62,14.47-8.74,20.92-1.12,1.76-2.42,3.79-5.15,2.48L128.63,124a4.3,4.3,0,0,1-.08-1c5.19-5,7.67-11.39,9.49-18.12,1.33-4.89,1.05-5.22-4.08-5.58-1.59,0-3.16-.07-4.36-1.32,0-.29,0-.59,0-.88Z"/><path class="cls-291" d="M129.6,98h5c1.5,1.69,1.31,3.66,1,5.65a38.42,38.42,0,0,1-5,12.93c-1.33,2.24-3.08,4.05-6.08,2.48h0c.08-4.75,4.38-7.84,4.86-12.44.13-1.22,1.31-2.34.24-3.64-.57-1.49,1.41-5.61-3.25-2.81-2.1,1.26-.73-1.75-1.76-2.17Z"/><path class="cls-292" d="M105.63,86a5.93,5.93,0,0,1-4-1c.27-2.68,2.32-1.78,3.85-1.91A2.4,2.4,0,0,1,105.63,86Z"/><path class="cls-293" d="M106.6,89c-1.16.32-2.28,1.54-3.53.31a1.16,1.16,0,0,1,0-1.72c1.27-1.24,2.35,0,3.49.37C106.6,88.33,106.6,88.68,106.6,89Z"/><path class="cls-294" d="M62.62,130c.88-2.3,3.94-3.16,4-6l1-.88A84.11,84.11,0,0,1,89,130.22c0,1.27.44,2.58-.37,3.76,0,.67,0,1.33,0,2-1.33-.56-2.79-1.74-4-.18-1.45,1.82,2,1.87,1.51,3.51a1.49,1.49,0,0,1-2.19.18c-3.4-3-6.81-5.17-11.87-4-2.17.49-4.45-1.78-6.22-3.44C64.82,131.11,64.14,130,62.62,130Z"/><path class="cls-207" d="M88.61,134c0-1.33,0-2.67,0-4-.21-.25-.54-.51-.56-.79-.33-6.12-1.58-11.85-6.65-16,3-1.83,5.07.16,7.21,1.81l1,2C89,122.63,90.79,128.43,88.61,134Z"/><path class="cls-295" d="M81.59,113c8.71,3,7,10.38,7,17-4.33-.16-8.27-1.68-12.12-3.49-1.46-.69-2.77-1.91-4.59-1.13-2.36,1-3.2-.79-4.23-2.26C72.44,119.93,75,114.21,80.6,112A1.2,1.2,0,0,1,81.59,113Z"/><path class="cls-296" d="M81.59,113l-1-1c.31-1.31.63-2.61.94-3.92,2.27-.92,3.68.44,5,1.91,2.84,1.44,6.53-.95,9,2-3.09-.75-4.84,1.62-7,3C86,115.38,84.08,113.11,81.59,113Z"/><path class="cls-297" d="M62.63,124c-.72-1.2-2-1-3.06-1.07.08-3,2.62-4.28,4.48-5.91a24.53,24.53,0,0,0,5-5.33c1.68-1.53,2.62-4.16,5.6-3.71l0,0c1.15,3.06-2,4-3,6C68.84,117.53,66.42,121.38,62.63,124Z"/><path class="cls-298" d="M71.65,114c-.86-2.93,3.46-3.28,3-6,1.65-1.67,3-3.42,2-6l.68-.28c2.32.74,4,2,3.72,4.74l-.5.55C76.74,108.35,75.43,112.75,71.65,114Z"/><path class="cls-299" d="M86.58,110l-5-1.91-1.05-1,.23-.12c.83-1.15,3-.28,3.29-2.29a3.24,3.24,0,0,1,.53-1.22c.92-.85,1.88-1.39,3-.39-1.56,4.92,3.08,3.59,5,5C91,110.06,88.13,107.9,86.58,110Z"/><path class="cls-294" d="M69.63,112c-1.59,5.27-7.39,6.67-10.06,11l-2.91,2.13c-2.46-3.21-2.14-8.16-8.3-9.17-2.43-.4-4-7-3.77-11.52.16-2.82-.83-6.07,3-7.37h1c5.62,1,6.77,1.87,7.1,7.53.28,4.83,4.12,6.51,6.81,9.24.88.9,1.82.23,2.66-.38C66.5,112.43,67.75,111.18,69.63,112Z"/><path class="cls-212" d="M48.62,90c-1.43-1.52-1.27-3-.13-4.93,1.38,1.92-.43,3.41.14,4.91Z"/><path class="cls-300" d="M54.64,60c-1,4.17-4.69,6.61-6.47,10.42-2.69,5.77-4.62,11.82-7.22,18.2C40.26,78.45,47.78,63.13,54.64,60Z"/><path class="cls-301" d="M25.61,84a59.56,59.56,0,0,1,11.93-29.4C39,52.76,40.26,50.86,41.61,49c2.1.27,2,1.23.87,2.62-8,9.69-12.33,21.14-15.85,33-.13.43.5,1.44-.73,1.26-.08,0-.18-.26-.19-.4C25.65,85,25.64,84.48,25.61,84Z"/><path class="cls-302" d="M47.6,54c-7.22,7-10.77,16-14,25.15a16.8,16.8,0,0,1-2,4.73V78c2.91-8.73,6.77-16.92,12.88-24C45.84,52.49,46.52,51.86,47.6,54Z"/><path class="cls-303" d="M69.63,112a4.13,4.13,0,0,1-.89.4c-2.83.55-4.52,7.32-8.83.89-2.08-3.11-5.95-4.76-5.39-9.57.47-4-2.93-5.33-5.9-6.69,7.65.52,15.4-1.23,23,1-.32,3.72,3.35,6.25,3,10Z"/><path class="cls-193" d="M84.61,103.93c0,.35,0,.7,0,1-3.62,1.51-4.75-3.53-8-3l0,.08c-1.24-4,.56-8.16-1-12.1.3,0,.61.07.92.09,2,.7,2.85,2.34,3.52,4.15.67-1.78,1.54-3.28,3.85-2.82a1.8,1.8,0,0,1,1,.92,4.16,4.16,0,0,1-1.23,2.58c-2.25,2.62-2.76,5.09.58,7.31A1.4,1.4,0,0,1,84.61,103.93Z"/><path class="cls-235" d="M60.54,93.92c3.55-1.91,7.4-.36,11.06-1,1.08.09,2.29-.21,3,1Z"/><path class="cls-304" d="M160.59,89c2-5.26-.76-9.93-1.94-14.77-.49-2-1.45-4-1.59-6.36a11.75,11.75,0,0,0,2.3,2.54c2.34,1.4.67-1.05,1.24-1.42,1.43,1,.91,3.48,3,4,.68,3.34,1.42,6.67,2,10C166.65,88.82,166.62,88.83,160.59,89Z"/><path class="cls-304" d="M160.59,90q-.45.06-.9.09l-4.12-.15,1-.93h4C160.59,89.32,160.59,89.65,160.59,90Z"/><path class="cls-305" d="M127.56,54l-2.88,2.16c-5-5.39-11.72-7.84-18.27-11,.13-1.64,2.62-.7,3.2-2.16,7.72.25,13.79,3.48,18,10A4.15,4.15,0,0,0,127.56,54Z"/><path class="cls-276" d="M150.59,89a13.28,13.28,0,0,0,.73-10.35c-1.5-4.8-2.51-9.75-3.73-14.63,5.13,6.83,6.64,14.88,7.27,23.07C155.07,89.81,152.2,88.68,150.59,89Z"/><path class="cls-306" d="M34.93,92c-3,1.42-6.09.82-10,.89C28.61,90.07,31.77,90.85,34.93,92Z"/><path class="cls-176" d="M102.49,114a2.88,2.88,0,0,1-.12.92c-1.17,1.9-2.7,2.43-4.67,1.19l-.5,0-.49,0c0-.35,0-.69,0-1,.8-.78,1.56-1.66,2.87-1Z"/><path class="cls-263" d="M99.6,114l-2.87,1c0-.68-.08-1.36-.13-2C97.7,113,98.88,112.81,99.6,114Z"/><path class="cls-261" d="M123.59,131c3.67,2,3.18,3.64,0,6.11A36.53,36.53,0,0,1,104.68,145c-2.44.27-4.27,2.74-7,2,0-2,0-4,0-6,5.49-2.68,11.77-2.89,17.24-5.83C117.7,133.63,119.85,130.55,123.59,131Z"/><path class="cls-262" d="M123.59,131c-7.78,5.56-16,10-25.93,10,0-1.67,0-3.34,0-5,7.42-2.36,14.51-5.65,21.93-8l4,2A8.22,8.22,0,0,1,123.59,131Z"/><path class="cls-259" d="M119.58,128c-6.76,4.17-13.7,7.86-21.93,8l0-5c6.18-2.65,12.18-5.79,18.9-7a2.14,2.14,0,0,0,2,1C118.89,126,119.24,127,119.58,128Z"/><path class="cls-307" d="M97.63,157c10.35-1,19.62-5,28.51-10.06,2.79-1.6,5.79-2.92,7.46-5.92,1.82,1,2.58,2.19.51,3.69-9.23,6.72-18.88,12.45-30.67,13.33-2,.15-3.87.63-5.81,1Z"/><path class="cls-308" d="M103.61,115c2.83-1.9,4.61-.58,6,2a16.54,16.54,0,0,1-8.21,4.29c3.08.45,5.53-3.44,9.21-3.29l2,2c-.49,3.46-3.66,4-6,5-2.78,1.19-5.69,2.6-9,2l0-9C99.07,115.85,101.74,116.25,103.61,115Z"/><path class="cls-309" d="M97.63,127c4.88-2.56,10.82-2.84,15-7l1.93,1,2.07,3c-6,3.06-12,6.39-18.91,7C97.66,129.64,97.65,128.3,97.63,127Z"/><path class="cls-309" d="M103.61,115c-1.52,1.93-4.08,1.74-6,2.94,0-.63,0-1.27,0-1.91l4.67-1.19Z"/><path class="cls-199" d="M124.51,119.05c6.43-.24,5.94-6.33,8-10A18.93,18.93,0,0,0,134.59,98c6.3.13,6.49.27,5,6.11-1.38,5.28-3,10.49-6.09,15.1-1.18,1.78-2.44,3.62-4.91,3.8A10.5,10.5,0,0,1,124.51,119.05Z"/><path class="cls-199" d="M129.6,103c2.06,3.58-.15,6.6-1.44,9.63a58.92,58.92,0,0,1-3.66,6.45,6.57,6.57,0,0,1-3.06-3c2.12.22,3.29-.93,4-2.76C126.83,109.85,128.22,106.42,129.6,103Z"/><path class="cls-256" d="M132.46,127a3.92,3.92,0,0,0,3.34-1.89c5.18-8.36,9.69-17,9.79-27.16,6,.11,6.15.15,4.18,5.71-1.65,4.65-1.38,9.69-3.85,14.27A59.86,59.86,0,0,1,136.48,131c-1.79.58-2-1.19-2.91-2Z"/><path class="cls-310" d="M133.57,129.07l2.91,2c0,.33,0,.66.05,1-1.33,2.13-2.61.85-3.9,0C133,131,133.26,130,133.57,129.07Z"/><path class="cls-309" d="M110.6,118c-2.94,2.13-6.06,3.79-10.17,3.19L109.6,117Z"/><path class="cls-311" d="M158.6,93h-8l1-2A9.69,9.69,0,0,1,158.6,93Z"/><path class="cls-312" d="M84.5,87.09l1.12.91c.9,1.61.1,2.6-1.25,3.38-2.29-.24-5.07,1.85-6.72-1.41-.29-4.68,2.17-5.19,5.84-3.88-.39.9-1.5,1.11-2,2C82.8,88.51,83.54,87.46,84.5,87.09Z"/><path class="cls-313" d="M84.5,87.09c-.13,2.41-1.57,3.1-3.72,2.76-.87-.13-1.91-.76-1.7-1.49.62-2.13,2.79-1.78,4.42-2.27C83.83,86.42,84.17,86.75,84.5,87.09Z"/><path class="cls-314" d="M77.65,90c2.11,1.4,4.46,1.08,6.79.9.25.21.34.43.26.65s-.17.32-.25.32c-2.59-.29-3.21,2.14-4.52,3.87L76.56,90Z"/><path class="cls-193" d="M84.45,91.84a2.27,2.27,0,0,0,0-1c.39-1,.79-1.91,1.18-2.87.31,0,.62,0,.93-.1,0,.4.11.8.17,1.21-.06.6-.13,1.21-.19,1.81h0c-.49.62-.75,1.62-1.9,1.11Z"/><path class="cls-315" d="M97.6,78c.26,1.54,2.5,1.59,2.55,3.79-2-.74-4.62-.51-2.55-3.79Z"/><path class="cls-316" d="M100.62,95c-.26,2.13.75,4.69-2,6h-.7c-3,.12-6-.27-9,.26a1.15,1.15,0,0,1-1.24-.3c-3.18-3.52,0-7.38,1.39-9.09,2.58-3.11,7-3,10.55.15-2.23-.49-3.57,1.46-5.43,2a4.1,4.1,0,0,0-3.34,3.25,1.32,1.32,0,0,0,1.4,1.63c2,0,4.41,1.07,6-.88C99.05,97,99.21,95.51,100.62,95Z"/><path class="cls-280" d="M87.65,100.93h.91a22.73,22.73,0,0,1,10,0h0v1c-3.67.42-7.51-.87-11,1.06l-3,.9c-5.43-5.11-5.43-5.11,0-11.89l1.9-1.11c0,2.15-1.73,3.55-2.32,5.38C83.34,99.12,83.35,101.74,87.65,100.93Z"/><path class="cls-317" d="M94.94,104.94a6.94,6.94,0,0,1-1.41.87,1,1,0,0,1-1.45-.72c-.16-.87.62-1,1.22-1A1.31,1.31,0,0,1,94.94,104.94Z"/><path class="cls-318" d="M76.62,102c3.69-1.71,5,2.84,8,3,1.24,5.69-3,.47-3.88,2C80.28,104.51,78.46,103.23,76.62,102Z"/><path class="cls-212" d="M47.6,110.09c2.54.7,3.91,1.41,3.48,3.52-.08.37-.73,1-1,.9C47.8,114.16,48.49,112.16,47.6,110.09Z"/><path class="cls-286" d="M98.61,101l-10,0A11.75,11.75,0,0,1,98.61,101Z"/></g></g></svg>