<svg xmlns="http://www.w3.org/2000/svg" viewBox="0 0 190.84 189.97"><defs><style>.cls-1{fill:#fdfdfd;}.cls-2{fill:#fefefe;}.cls-3{fill:#644c2a;}.cls-4{fill:#5b4426;}.cls-5{fill:#574124;}.cls-6{fill:#e2dcb8;}.cls-7{fill:#70552a;}.cls-8{fill:#55431f;}.cls-9{fill:#674b25;}.cls-10{fill:#735a32;}.cls-11{fill:#352d24;}.cls-12{fill:#3b2f23;}.cls-13{fill:#584122;}.cls-14{fill:#453928;}.cls-15{fill:#ede6cc;}.cls-16{fill:#d0caa5;}.cls-17{fill:#765d36;}.cls-18{fill:#654d2c;}.cls-19{fill:#e1d6a3;}.cls-20{fill:#453423;}.cls-21{fill:#553f23;}.cls-22{fill:#dbd1a1;}.cls-23{fill:#7b6a32;}.cls-24{fill:#6f4e2d;}.cls-25{fill:#564122;}.cls-26{fill:#5a4422;}.cls-27{fill:#604828;}.cls-28{fill:#2f2722;}.cls-29{fill:#eee7cf;}.cls-30{fill:#dac7a3;}.cls-31{fill:#e0dabe;}.cls-32{fill:#443516;}.cls-33{fill:#977343;}.cls-34{fill:#a78653;}.cls-35{fill:#9e7b48;}.cls-36{fill:#634d2b;}.cls-37{fill:#624b29;}.cls-38{fill:#302822;}.cls-39{fill:#685d21;}.cls-40{fill:#b2a979;}.cls-41{fill:#624628;}.cls-42{fill:#806138;}.cls-43{fill:#8a683c;}.cls-44{fill:#70512e;}.cls-45{fill:#ab8c5b;}.cls-46{fill:#8e6e40;}.cls-47{fill:#ad8d5c;}.cls-48{fill:#3c3a33;}.cls-49{fill:#836239;}.cls-50{fill:#392d17;}.cls-51{fill:#927e50;}.cls-52{fill:#43331b;}.cls-53{fill:#d5cd9e;}.cls-54{fill:#ebe3c9;}.cls-55{fill:#dcccaa;}.cls-56{fill:#807534;}.cls-57{fill:#64581e;}.cls-58{fill:#89693d;}.cls-59{fill:#9e7c4a;}.cls-60{fill:#967848;}.cls-61{fill:#3e3b35;}.cls-62{fill:#4e421d;}.cls-63{fill:#735d2f;}.cls-64{fill:#dcceae;}.cls-65{fill:#605321;}.cls-66{fill:#988f58;}.cls-67{fill:#ebe2c5;}.cls-68{fill:#dcc9a5;}.cls-69{fill:#d2b78c;}.cls-70{fill:#765e38;}.cls-71{fill:#ede8cf;}.cls-72{fill:#736533;}.cls-73{fill:#564629;}.cls-74{fill:#947141;}.cls-75{fill:#775532;}.cls-76{fill:#816238;}.cls-77{fill:#b29563;}.cls-78{fill:#7d6137;}.cls-79{fill:#c2bb91;}.cls-80{fill:#cfc8a3;}.cls-81{fill:#564821;}.cls-82{fill:#926e3f;}.cls-83{fill:#342e28;}.cls-84{fill:#3a3730;}.cls-85{fill:#846239;}.cls-86{fill:#2f2413;}.cls-87{fill:#7d5c35;}.cls-88{fill:#745732;}.cls-89{fill:#866639;}.cls-90{fill:#77672c;}.cls-91{fill:#cac49f;}.cls-92{fill:#c3bb94;}.cls-93{fill:#795c37;}.cls-94{fill:#987646;}.cls-95{fill:#907141;}.cls-96{fill:#8f6d40;}.cls-97{fill:#251c0f;}.cls-98{fill:#5a4e1d;}.cls-99{fill:#675b1f;}.cls-100{fill:#3a3831;}.cls-101{fill:#362f28;}.cls-102{fill:#b79866;}.cls-103{fill:#d5cead;}.cls-104{fill:#d3bf99;}.cls-105{fill:#c4a97a;}.cls-106{fill:#987645;}.cls-107{fill:#e5dbc0;}.cls-108{fill:#bca16f;}.cls-109{fill:#d2be96;}.cls-110{fill:#9a7645;}.cls-111{fill:#9a7846;}.cls-112{fill:#dac4a0;}.cls-113{fill:#86663b;}.cls-114{fill:#c1a777;}.cls-115{fill:#e1d1af;}.cls-116{fill:#b19462;}.cls-117{fill:#5a4426;}.cls-118{fill:#b3a975;}.cls-119{fill:#86643a;}.cls-120{fill:#9d7845;}.cls-121{fill:#37312a;}.cls-122{fill:#a98751;}.cls-123{fill:#77592e;}.cls-124{fill:#785c34;}.cls-125{fill:#423f3a;}.cls-126{fill:#312b26;}.cls-127{fill:#332a17;}.cls-128{fill:#725836;}.cls-129{fill:#43423c;}.cls-130{fill:#3f3d37;}.cls-131{fill:#5e482a;}.cls-132{fill:#342815;}.cls-133{fill:#614c2b;}.cls-134{fill:#44381d;}.cls-135{fill:#e9e2ba;}.cls-136{fill:#bfb78d;}.cls-137{fill:#3b352c;}.cls-138{fill:#87663a;}.cls-139{fill:#f2ecd8;}.cls-140{fill:#ccb78c;}.cls-141{fill:#ece4be;}.cls-142{fill:#907b46;}.cls-143{fill:#c0b88e;}.cls-144{fill:#d4bb92;}.cls-145{fill:#e6dabe;}.cls-146{fill:#dccaa3;}.cls-147{fill:#d3c19a;}.cls-148{fill:#ded9bc;}.cls-149{fill:#282524;}.cls-150{fill:#423f39;}.cls-151{fill:#474541;}.cls-152{fill:#3c342c;}.cls-153{fill:#816138;}.cls-154{fill:#302413;}.cls-155{fill:#694f2d;}.cls-156{fill:#947142;}.cls-157{fill:#292012;}.cls-158{fill:#765330;}.cls-159{fill:#6a4a2a;}.cls-160{fill:#c3bb8e;}.cls-161{fill:#403d37;}.cls-162{fill:#4b4841;}.cls-163{fill:#45433d;}.cls-164{fill:#816139;}.cls-165{fill:#43361d;}.cls-166{fill:#40311c;}.cls-167{fill:#977443;}.cls-168{fill:#957242;}.cls-169{fill:#c1b687;}.cls-170{fill:#d1c598;}.cls-171{fill:#44423c;}.cls-172{fill:#6d5230;}.cls-173{fill:#45351f;}.cls-174{fill:#e0dbbf;}.cls-175{fill:#514622;}.cls-176{fill:#2f2412;}.cls-177{fill:#564c3b;}.cls-178{fill:#e2dec0;}.cls-179{fill:#57544c;}.cls-180{fill:#544f46;}.cls-181{fill:#494741;}.cls-182{fill:#4e4b45;}.cls-183{fill:#392b19;}.cls-184{fill:#9c7946;}.cls-185{fill:#3e3c36;}.cls-186{fill:#3a2c1a;}.cls-187{fill:#533f22;}.cls-188{fill:#7d5d36;}.cls-189{fill:#38332c;}.cls-190{fill:#cfc8a2;}.cls-191{fill:#bab185;}.cls-192{fill:#473b27;}.cls-193{fill:#292524;}.cls-194{fill:#786435;}.cls-195{fill:#cdb386;}.cls-196{fill:#cfb992;}.cls-197{fill:#e3d5b6;}.cls-198{fill:#bfa779;}.cls-199{fill:#d4cdaa;}.cls-200{fill:#f0e6cf;}.cls-201{fill:#ece2ca;}.cls-202{fill:#d3b689;}.cls-203{fill:#3f3c36;}.cls-204{fill:#b59663;}.cls-205{fill:#634c2f;}.cls-206{fill:#47443e;}.cls-207{fill:#4c4943;}.cls-208{fill:#7e5e37;}.cls-209{fill:#55524a;}.cls-210{fill:#524f48;}.cls-211{fill:#b69658;}.cls-212{fill:#322515;}.cls-213{fill:#896d44;}.cls-214{fill:#5c4528;}.cls-215{fill:#caac6e;}.cls-216{fill:#3e2f1b;}.cls-217{fill:#4c3f2c;}.cls-218{fill:#3c3831;}.cls-219{fill:#81643c;}.cls-220{fill:#474540;}.cls-221{fill:#775f38;}.cls-222{fill:#b79966;}.cls-223{fill:#a68451;}.cls-224{fill:#9d7946;}.cls-225{fill:#785934;}.cls-226{fill:#43331d;}.cls-227{fill:#534a3c;}.cls-228{fill:#504d46;}.cls-229{fill:#927041;}.cls-230{fill:#5c4a33;}.cls-231{fill:#937242;}.cls-232{fill:#504e46;}.cls-233{fill:#4a4741;}.cls-234{fill:#906f41;}.cls-235{fill:#ac8a50;}.cls-236{fill:#544127;}.cls-237{fill:#785a34;}.cls-238{fill:#4e3c22;}.cls-239{fill:#4f4c46;}.cls-240{fill:#484640;}.cls-241{fill:#56534b;}.cls-242{fill:#43413c;}.cls-243{fill:#5b5850;}.cls-244{fill:#775934;}.cls-245{fill:#4a3c28;}.cls-246{fill:#5e5b53;}.cls-247{fill:#54514a;}.cls-248{fill:#5a574e;}.cls-249{fill:#5f5b54;}.cls-250{fill:#7c5e38;}.cls-251{fill:#4e4b43;}.cls-252{fill:#88693f;}.cls-253{fill:#684d2d;}.cls-254{fill:#715431;}.cls-255{fill:#544837;}.cls-256{fill:#5c5950;}.cls-257{fill:#795a35;}.cls-258{fill:#5c5951;}.cls-259{fill:#685135;}.cls-260{fill:#5a5850;}.cls-261{fill:#d3bb88;}.cls-262{fill:#5b4c37;}.cls-263{fill:#7f6038;}.cls-264{fill:#7c5c35;}.cls-265{fill:#c8af75;}.cls-266{fill:#4c4b46;}.cls-267{fill:#504f4a;}.cls-268{fill:#cab274;}.cls-269{fill:#bc9d5b;}.cls-270{fill:#c4ad75;}.cls-271{fill:#86643b;}.cls-272{fill:#ad8d56;}.cls-273{fill:#725834;}.cls-274{fill:#56534a;}.cls-275{fill:#5c5850;}.cls-276{fill:#735632;}.cls-277{fill:#906e40;}.cls-278{fill:#241a0e;}.cls-279{fill:#806038;}.cls-280{fill:#41311e;}.cls-281{fill:#68573e;}.cls-282{fill:#322614;}.cls-283{fill:#a2804a;}.cls-284{fill:#926f41;}.cls-285{fill:#8a7455;}.cls-286{fill:#4d3e29;}.cls-287{fill:#8d6b3f;}.cls-288{fill:#a7834b;}.cls-289{fill:#947244;}.cls-290{fill:#8b7c67;}.cls-291{fill:#a68b5d;}.cls-292{fill:#ddcfa9;}.cls-293{fill:#4b3820;}.cls-294{fill:#2b2011;}.cls-295{fill:#362916;}</style></defs><g id="Layer_2" data-name="Layer 2"><g id="Layer_1_Image" data-name="Layer 1 Image"><path class="cls-1" d="M107.86,0c0,.69,0,1.37,0,2.06-1.85,1.84-4.42.9-6.54,1.69-3.33.26-6.74-.67-10,.72a6.52,6.52,0,0,1-2.08-.63c-2-1-4.37-.15-6.24-1.49-.9-1.22.07-1.75.86-2.35Z"/><path class="cls-2" d="M83.86,0l-1,2.07a5,5,0,0,1-2.13,1.77c-1.29.46-2.59,1.41-3.88,0a5.73,5.73,0,0,1-1-3.83Z"/><path class="cls-2" d="M5.74,73c-4-1.73-.94-4.62-.37-6.21A30.76,30.76,0,0,0,7,59.67c.29-2.6.59-5.83,2.21-7.52,6.13-6.4,8.45-15.13,14.35-21.8C28.35,24.92,34,21,39.52,16.62,47.64,10.22,57.1,6.48,66.38,2.35,69.49,1,72.47.85,74.86,3.82c-.83,2.54-3,2.27-4.94,2.3a4.1,4.1,0,0,0-5,1.66c-3.71,1.86-7.7,3-11.42,4.86-1.43.11-3-.05-3.61,1.76-2,1.74-3.86,3.65-6.57,4.25a2.44,2.44,0,0,0-2.25,1.73c-1.74,1.93-4.1,3.22-5.55,5.44a32.08,32.08,0,0,0-8.14,7.62c-1.44.68-4.16.08-3.18,3.2-5.42,8.23-10.81,16.48-14,25.89-1,3-1.55,6-3,8.83A3.11,3.11,0,0,1,5.74,73Z"/><path class="cls-2" d="M155.72,23.06c5.35-.69,8.3,2.34,11.24,6.36,6.14,8.41,12,16.88,15.84,26.67,1.22,3.17,2.91,5.69,2.43,9.76-.36,3,3.28,6.36,3.88,10.48.5,3.46.37,6.87.71,10.28a2,2,0,0,1-2,2.37.91.91,0,0,1-1.38-.08c-1.09-1.59-.94-3.56-1.6-5.28,0-7.35-2.73-14.16-4.14-21.23a3.37,3.37,0,0,0-1.58-4.26c-4.29-8.08-8.41-16.27-14.68-23.08-.67-.61-1.41-1.14-2.12-1.71-1.87-3.23-5.6-4.83-7.23-8.28A2.72,2.72,0,0,1,155.72,23.06Z"/><path class="cls-2" d="M107.86,186c-3.5,4.7-9.1,4.18-13.46,3.7-10.24-1.11-20.62-2.52-30.34-6.23-6.29-2.4-12.26-5.65-18.34-8.57a4.78,4.78,0,0,1-2.93-4.81l.51-.53a3.22,3.22,0,0,1,3.29.33c6.74,4.57,14.36,7.26,21.8,10.34.9,0,.42,2.71,2.12,1,1.85-.61,3.57.12,5.33.47a22.29,22.29,0,0,1,3.3,1.07c.44.14.87.31,1.3.48,1.5.61,3.2.56,4.65,1.34,2.87,2,5.81.63,8.73.2,1.67,0,3.33-.57,5-.08.91,2.45,3.22,1.49,4.82,1.87-.81-1.11-4.09,1.63-3.59-2a7.5,7.5,0,0,1,5.38-.62A3.42,3.42,0,0,1,107.86,186Z"/><path class="cls-3" d="M52.92,12c3.52-2.8,8-3.42,11.94-5.21,1-1.62,2.77-1.32,4.27-1.68,2-.25,4.07.23,5.73-1.31l1.06.33a1.49,1.49,0,0,1,.36,1.26C75.12,7.66,72.14,7,70.73,8.89a6.31,6.31,0,0,1-1.11.81c-3.18,1.29-6.51,2.23-9.46,4.05-3,2.15-6.62,3.17-9.75,5.1C47.5,21,44.55,23.05,41.52,25c-2.2.88-4.43,2.05-6.52-.24,1.23-2.5,3.65-3.64,5.82-5.06A3.55,3.55,0,0,1,42.93,18l6.91-4.21C50.43,12.47,51.84,12.53,52.92,12Z"/><path class="cls-2" d="M182.71,121.92c2.88.37,4,2.31,2.67,4.56-4.94,8.1-7.38,17.63-14.6,24.5-2.68,2.55-3.34,7.17-7.88,8.05l-.61-.26c-2.15-3.65,1.75-4.84,2.9-7.16,1-1.6,1.91-3.34,3.86-4.05,1.21-.34,1-1.41,1.18-2.31,2.16-4.45,4.32-8.9,7.84-12.48,2.66,0,.32-1.89,1-2.66a3.49,3.49,0,0,1,.41-1.2,3.61,3.61,0,0,0,1.38-3.8C181,123.76,180.65,122.13,182.71,121.92Z"/><path class="cls-4" d="M155.72,23.06c0,.6,0,1.2.07,1.8-.94,1.21-2.2,1.19-3.52.91a62.11,62.11,0,0,1-9.28-6c-6.93-5.26-15.06-8-23.08-10.88-1.73-.79-3.91-.41-5.34-2a3.21,3.21,0,0,1-.39-1.42,2.41,2.41,0,0,1,.63-1.31l2,.67c1.39-1.1,2.89-.93,4.42-.4a14,14,0,0,1,5,1.44,117,117,0,0,1,12.32,5.23c1,.49,1.67,1.5,2.72,1.95a34.7,34.7,0,0,1,3.93,2.25c1.06.73,2.17,1.4,3.24,2.12,1.91,1.44,4.35,2.29,5.27,4.79C154.08,23.26,155,23,155.72,23.06Z"/><path class="cls-2" d="M19.87,149c-.63-.18-1.53-.15-1.84-.57-5.32-7.15-11.13-14.27-11.71-23.46-.11-1.86-4.19-5.17.45-7,1.44.34,1.9,1.5,2.29,2.71,2.26,8.83,7.28,16.39,11.3,24.4a7.8,7.8,0,0,1-.14,3.33Z"/><path class="cls-2" d="M142.85,174c-1.11,4.41-5.87,4.09-8.64,5.53-7.07,3.68-14.57,8.07-23.35,5.47a1.15,1.15,0,0,1-.35-.84c0-.31,0-.47.1-.47a3.39,3.39,0,0,1,1.63-1.43,12.73,12.73,0,0,1,2.87-.66c8.51-1.21,16-5.2,23.76-8.54a5.11,5.11,0,0,1,2.84-.7C142.5,172.6,143.11,173,142.85,174Z"/><path class="cls-2" d="M40.87,170c-10-4-17.74-10.26-21-21a1.89,1.89,0,0,1,2.18-1.27,4.43,4.43,0,0,1,2.49,3.09c0,3.1,2.82,3.35,4.64,4.6a7.41,7.41,0,0,1,1.38,1.47c1.33,2.42,3.86,3.59,5.75,5.42,1.37,1.71,3.49,2.62,4.77,4.44A9.13,9.13,0,0,1,40.87,170Z"/><path class="cls-5" d="M178.73,132.76l-7.91,13.15c-.5.56-.18,1.57-1,1.94-1.85.85-2.55,2.81-3.93,4.12a1.79,1.79,0,0,1-1.38-1.17,2.42,2.42,0,0,1,.15-1.25c.61-1.14,1.3-2.23,2-3.31,2.36-2.49,3.49-5.74,5.34-8.55a26.4,26.4,0,0,0,1.34-2.38,80.56,80.56,0,0,0,7.17-16.67,27,27,0,0,1,.53-4.3,26.57,26.57,0,0,1,1.22-3.55c.75-1,1.18-2.56,3-1.65a4,4,0,0,1,.72,1.47c.3,2.24.62,4.48-1.21,6.3-1.77,1.23-1.83,3.15-2,5-1.57,1-.52,2.63-.94,3.91s-.54,2.43-1.72,3.15a1,1,0,0,0-.27.89C178.91,130.64,179.93,132.11,178.73,132.76Z"/><path class="cls-2" d="M184.72,116.91c.05-2.28.11-4.57.16-6.85.13-5.22-1-10.69,3.11-15.08,2,.22,3.3,1.49,2.71,3.32-1.61,4.94-.31,10.13-1.71,15.13C188.26,116.05,187.31,117.17,184.72,116.91Z"/><path class="cls-6" d="M186.88,89a5.35,5.35,0,0,1,1,0,8.59,8.59,0,0,0-1,4.82,1.86,1.86,0,0,1-1,.87,3.33,3.33,0,0,1-2-.16,7.46,7.46,0,0,1-2.26-2.35c-.28-.3-.55-.61-.84-.91-1.32-1.33-3-1.1-4.64-1C173.82,90,170,91.65,172,86.55A5.1,5.1,0,0,1,173.53,85a12.35,12.35,0,0,1,10.23-.29,6.19,6.19,0,0,1,1.18.78C186,86.4,185.85,88,186.88,89Z"/><path class="cls-2" d="M162.9,159c-.59,1.82-.56,3.91-3.59,3.78-2.42-.11-3.37,2.42-4.35,4.14a11.93,11.93,0,0,1-9.11,6c-1.06-1.44,1.71-2.16.68-3.6,1.69-3.41,5.52-4.54,7.74-7.37,2.55-1.7,4.84-4.1,8.38-3.2Z"/><path class="cls-2" d="M138.72,12.31,125.86,6.87a5.54,5.54,0,0,1-1.25-2.26c.08-.21.17-.41.25-.61A45.51,45.51,0,0,1,139.6,9.07,2.3,2.3,0,0,1,140.85,11,3.22,3.22,0,0,1,138.72,12.31Z"/><path class="cls-2" d="M144.8,16l-3.91-2.25c-.39-1,.31-1.36,1-1.77a48.83,48.83,0,0,0,6.76,2.74c4.12,1,5.67,3.44,5.14,7.47l-5.94-4.11C147.34,16.64,146.08,16.32,144.8,16Z"/><path class="cls-2" d="M3.7,99c-5.21-1.43-1.93-6.22-3.49-9.21C-.71,88,1.53,86.38,3.7,86a3.22,3.22,0,0,1,1.35,2.18,29.7,29.7,0,0,1-.25,9.5A2.68,2.68,0,0,1,3.7,99Z"/><path class="cls-7" d="M3.7,99a4,4,0,0,0,.3-.82c3.31-.25,4.21,2.06,4.91,4.59.3,2.12-.93,4.18-.28,6.32a6.81,6.81,0,0,1-.06,2.16c-.75,1.63.09,4.08-2.45,4.8L5.67,113c-.76-1.93-2.17-3.63-2.08-5.87.19-2-1-4.09.1-6.11C3.69,100.32,3.7,99.65,3.7,99Z"/><path class="cls-8" d="M185.88,94.06l1-.26L188,95c-2.17,4.79-1.08,10.26-3.11,15.08,0-.37,0-.74,0-1.12-2.1-2-.52-5.19-2.21-7.36a6,6,0,0,1-.69-2,5.38,5.38,0,0,1,0-1.39,4.16,4.16,0,0,1,.46-1.26A11.44,11.44,0,0,1,185.88,94.06Z"/><path class="cls-9" d="M4,87.83c-.1-.62-.19-1.23-.29-1.85V85c-.64-1.73,0-3.49-.08-5.24C3.53,77.55,4.94,75.9,5.68,74l.06-1,.36-2c3,1.14,1.64,4,2.41,6-.42,3,0,6.22-1.44,9.11C6.32,87.17,5.64,88.37,4,87.83Z"/><path class="cls-2" d="M3.69,101c.38,2,1.78,3.79,1,6-2.58,1.78,1.18,3.32.2,5-3.36-.52-3.81-3.13-3.95-5.77C.8,104,.36,101.44,3.69,101Z"/><path class="cls-2" d="M4.69,80c.35,1.79.33,3.51-1,5C-.53,81.53-.07,77.56,4.87,75,5.85,76.7,2.07,78.24,4.69,80Z"/><path class="cls-2" d="M121.64,5.11l-4.78-.29c0-1.65.68-3.58,2.31-2.57,1.87,1.16,4.19,0,5.69,1.75h0C124,4.84,123,5.64,121.64,5.11Z"/><path class="cls-10" d="M100.82,3c2.12-2,4.71-.39,7-.89l1,1c-.7,1-3.07.31-2.55,2.54C103.92,5.88,101.56,6.11,100.82,3Z"/><path class="cls-11" d="M75.86,5c0-.29,0-.57.06-.86.32-.1.63-.2.94-.32,1.53.78,2.48-1.36,4-.79.79-.75,1.79-.53,2.71-.5s2.11-.35,2.27,1c.14,1.07-.87,1.56-1.65,2.09a6.45,6.45,0,0,1-1.66.54C80.21,6.28,77.83,6.8,75.86,5Z"/><path class="cls-12" d="M106.91,5,105.83,3.5l3-.47c1,.24,1.73,1.47,3,.8a2.49,2.49,0,0,1,3,0l-.1.31c0,.29,0,.58,0,.87-2,1.63-4.27,1.43-6.58.94A3,3,0,0,1,106.91,5Z"/><path class="cls-1" d="M4.69,80c-.63-.07-1.09,2.34-1.76.25S3.86,76.62,4.87,75l.81-1C6.24,76.16,4.54,77.93,4.69,80Z"/><path class="cls-1" d="M4.87,112c-1-1.63-2.61-3.15-1.94-5.26s1.13.29,1.74.22c-.14,2.09,1.57,3.87,1,6C5.41,112.63,5.14,112.31,4.87,112Z"/><path class="cls-1" d="M146.72,169.9c1.45,1.51-.9,2-.87,3.07l-3,1-1.15-1.08C142.42,170.3,144,169.07,146.72,169.9Z"/><path class="cls-13" d="M8.18,120.89,6.77,118c0-.33,0-.66,0-1,1-1.25-.06-3.15,1.39-4.24,2,.71,1.8,2.48,2,4.06C9.91,118.37,10.45,120.33,8.18,120.89Z"/><path class="cls-2" d="M114.91,3.84h-3c.12-1-.24-2.44,1.28-2.6C115.08,1,114.72,2.69,114.91,3.84Z"/><path class="cls-14" d="M7.92,112.85c-.26,1.41.45,3.09-1.13,4.15-.54-.11-1-.3-.67-1,1.72-1.29-.24-3.82,1.71-5A1.26,1.26,0,0,1,7.92,112.85Z"/><path class="cls-1" d="M141.85,12l-1,1.77-2.17-1.46A2.12,2.12,0,0,1,140.85,11C141.19,11.33,141.52,11.66,141.85,12Z"/><path class="cls-1" d="M40.87,170a2.24,2.24,0,0,1,0-2.79c2.4-.42,2.76.73,2.09,2.69l-.17.19Z"/><path class="cls-1" d="M110.86,184.13V185c-1.1,0-2.28-.18-3,1l-2.18-1.11C107.07,182.18,108.88,182.54,110.86,184.13Z"/><path class="cls-15" d="M69.79,8.85l.15-.63C73.64,6,77.85,6,82,5.51a9.22,9.22,0,0,0,6-1.85,4.25,4.25,0,0,1,2-.7l1,.82c-.42,3.51-.09,7.18-2.19,10.33-1.54.4-2.11-.85-2.92-1.7-2.46-2.38-4.12,0-6,1-2.9,1.29-6.13.81-9.12,1.69a8.93,8.93,0,0,1-2.42,0c-1.67-.21-3.32-.67-3.72-2.54-.55-2.58,2-1.89,3.16-2.74C68.32,9.44,69.29,9.61,69.79,8.85Z"/><path class="cls-16" d="M88.11,13.92c1.54-3.21-.36-7.37,2.8-10.13,3.14-2.21,6.52-1.52,9.91-.84,1.62,1.9,3.85,2,6.09,2a1.09,1.09,0,0,0,.75.15.69.69,0,0,1,.46.66c0,.29-.08.44-.17.44a7.48,7.48,0,0,1-3.89,1.23,3.34,3.34,0,0,1-1.91-.61,9.17,9.17,0,0,0-3.62-1.43,6,6,0,0,0-3.06.55C92.26,7.05,90.75,9,91.68,12.59c.44,1.67.68,3.58-1.34,4.69a3.1,3.1,0,0,1-2.74-2.1A1.23,1.23,0,0,1,88.11,13.92Z"/><path class="cls-17" d="M89.92,3l-1,1.17c-1.63.68-3.13,2.26-5.09.77.79-3.45-2.28-.76-3-1.86l2-1C85.18,2.66,87.81.8,89.92,3Z"/><path class="cls-18" d="M9,62A89,89,0,0,1,23.82,36c.26-1.64.91-2.82,2.89-2.34a2,2,0,0,1,.74,1.2c-.12,2.28-1.74,3.79-2.87,5.55-1.62,2.07-3.44,4-3.63,6.87a10.72,10.72,0,0,1-1.4,3.83c-1.42,2-3.44,3.53-4,6.07-1,2.34-1.58,4.92-4.17,6.15C10.32,63.43,9.68,62.7,9,62Z"/><path class="cls-19" d="M27.26,35.12l-.39-1.44c-.34-.11-.48-.25-.41-.44s.16-.31.26-.31c1.6-3.9,5.2-5.76,8.28-8.15,2.51,1.33,4.61-.26,6.83-1,.58,3.47-3.68,2.92-4.39,5.33-.94.85-2.07,1.47-3,2.3a6.56,6.56,0,0,1-2.24,1.16c-2,.57-1.68,3.78-4.25,3.62A1.4,1.4,0,0,1,27.26,35.12Z"/><path class="cls-20" d="M9,62A1.94,1.94,0,0,1,11,63c1.37,5.19-.69,9.58-3.25,13.85C5.82,75.28,7.92,72.6,6.1,71,7.08,68,8.05,65,9,62Z"/><path class="cls-1" d="M26.72,32.93a1.41,1.41,0,0,0,.15.75c-1.63,0-2.14,1.41-3.05,2.3-.82-.1-1.86-.26-1-1.33S24.66,31.74,26.72,32.93Z"/><path class="cls-1" d="M52.92,12l-3.08,1.8C49.15,10.28,51.36,11.71,52.92,12Z"/><path class="cls-1" d="M69.13,5.13C68,6.46,66.19,6,64.86,6.81,65.5,4.26,67.11,4.19,69.13,5.13Z"/><path class="cls-1" d="M42.93,18a2.91,2.91,0,0,1-2.11,1.69c-.31-.67-.87-1.36,0-2S42.24,17.84,42.93,18Z"/><path class="cls-21" d="M181.78,61.12c-.24,5.15,3.26,9.35,3.54,14.52.14,2.7.3,5.51.57,8.26.61,1.26.69,2.24-1.16,2.22l-.07,0a13.8,13.8,0,0,1-.73-1.37c-.24-4.37-2.14-8.37-2.93-12.62-.32-4.51-3-8.31-3.88-12.64-.52-2.29-1.84-4.21-3-6.22a104.56,104.56,0,0,0-7.79-12.76,13.15,13.15,0,0,1-.79-1.16c-.79-1.38-2.24-2.37-2.67-3.93-.53-1.9.38-2.28,2-1.47,6.64,7,11.13,15.36,15.15,24C181.24,58.71,181.44,60,181.78,61.12Z"/><path class="cls-22" d="M151.87,25l3.92-.14c2.05,2.94,5.89,4.31,7.11,8a1.31,1.31,0,0,1-1.07.66c-1.54-.26-2.65-1.48-4.13-1.88a17,17,0,0,0-5.46-1.72c-2.7,0-1.9,2.33-2.41,3.77-1,1.84-1.48,4.85-4.7,2.38a7.3,7.3,0,0,1-.14-4.64C146.38,28.31,148,25.41,151.87,25Z"/><path class="cls-23" d="M162.08,33.17a1.29,1.29,0,0,0,.82-.32c.79.17,1.64.25,2,1.13-1.13.15-2,.46-.87,1.72,1,1.08,2.27,1.89,2.62,3.42-1.37.93-3.65-1.15-4.54,1.38a3,3,0,0,1-1.39-.12,2.71,2.71,0,0,1-1.3-1.63C159.66,36.57,160.15,34.53,162.08,33.17Z"/><path class="cls-24" d="M184.73,86.12a2.52,2.52,0,0,0,1.16-2.22c1.8,1.41.61,3.4,1,5.08A2.79,2.79,0,0,1,184.73,86.12Z"/><path class="cls-1" d="M181.78,61.12c-1.23-.69-1.16-2.08-1.7-3.13C182.19,58.19,182.84,59.18,181.78,61.12Z"/><path class="cls-25" d="M43,169.87a2.42,2.42,0,0,0-2.09-2.69c-1.71-1.34-4.13-1.82-5-4.15-1.54-2.37,0-3.63,1.76-4.75a13.18,13.18,0,0,0,4.82-4.79c.61-1.16,2.1-2.62-.82-2.76.43-2.41,1.58-3.75,4.23-2.9,1.19,1.16,1.17,2.61,1,4.1-.64,1.48.59,2.93.09,4.42a9.29,9.29,0,0,1-.9,1.19c-5.25,5.9-5.25,5.9,1.6,10,.85.51,1.73,1,2.55,1.54,1.67,1.18,3.54,2,5.25,3.14,2.12,1.44,4.62,2,7,2.8a59.85,59.85,0,0,0,11.54,4c1.68.87,4.09.2,5.1,2.45-.53,1.69-2.25.46-3.14,1.26-2.09.27-3.9-1.52-6-.84a2.12,2.12,0,0,1-1.09-.66c-8.06-2.88-16.31-5.35-23.06-11C44.87,169.6,43.92,169.82,43,169.87Z"/><path class="cls-26" d="M110.86,184.13c-1.74.11-3.58-.44-5.18.73l-5.79.3a.67.67,0,0,1-1,0c-1.54,1-3.25.8-4.94.77a1.41,1.41,0,0,1-.53-1.18c1.28-2.74,4.77-2.37,6.42-4.58a11.9,11.9,0,0,1,1.93-1.89c1.17-.68,2.42-.78,2.69.77.4,2.36,2.07,2.13,3.68,2.25,1.36.39,2.88.42,3.86,1.69Z"/><path class="cls-1" d="M93.76,185.18a4.89,4.89,0,0,0,.16.76c-3.1.23-6.47,3.28-9.15-.88l.52-.59C88.19,183.72,91.21,181.76,93.76,185.18Z"/><path class="cls-27" d="M79.89,184.07l-1.06-.4c.87-2.46,3.27-1.73,5-2.41a7.3,7.3,0,0,1,4.48,1,1.55,1.55,0,0,1,.79,1.29c-1.19,1.67-2.94.63-4.42.92C83.08,184.31,81.43,184.79,79.89,184.07Z"/><path class="cls-28" d="M83.77,182.07c-1.22,1.85-3.66,0-4.94,1.6l-2.89-.87c.75-1.07,1.92-.78,3-.92A3.34,3.34,0,0,1,83.77,182.07Z"/><path class="cls-1" d="M98.86,185.17h1c1.37,1.46,3.41.37,4.91,1.34C102.7,186.6,100.24,188.37,98.86,185.17Z"/><path class="cls-1" d="M79.89,184.07l4.64,0c.5,0,.62.3.43.74l-.18.21C83.15,184.69,81.27,185.6,79.89,184.07Z"/><path class="cls-1" d="M68.81,181.3l1.09.66c0,.55.1,1.11.16,1.67a3.48,3.48,0,0,1-1.21-.32C68,182.7,68.44,182,68.81,181.3Z"/><path class="cls-29" d="M36.89,28.92c-.25-3.54,4.39-2.34,4.94-5.1C44,21.21,47,19.76,49.85,18c2.16-.83,4.24-1.46,4.78,1.86-.4,2.83-2.69,4-4.73,5.44-2.44,1.66-4.44,3.53-4.24,6.81-.52,1.72-1.48,3-3.41,3.19-1.58-.67-1.71-2.53-2.91-3.51C38.48,30.88,37.14,30.36,36.89,28.92Z"/><path class="cls-30" d="M53.85,21c.38-3.3-1.9-3-4-3,2.93-2.48,6.77-3.2,10-5.16,1.35.77,2.44,1.89,3.72,2.77,1,2.62-1.48,2.36-2.6,3.07-1.64,1-3.1,2.39-5,2.89A2.19,2.19,0,0,1,53.85,21Z"/><path class="cls-31" d="M62.8,16a2.9,2.9,0,0,1-3-3.17c2.9-2.4,6.44-3.21,10-4-.18.27-.37.54-.54.81-1,1.44-4.37.62-3.69,2.95S69,13.72,70.88,14c-.65,3-3,2-4.85,2C65,16.06,63.9,15,62.8,16Z"/><path class="cls-17" d="M82.66,5.86,69.94,8.22C71,5.53,74.28,6.8,75.86,5L83,5C83.3,5.48,83.18,5.75,82.66,5.86Z"/><path class="cls-32" d="M162.65,158.8c-3.06.62-5.48,2.48-8,4.07-2.29.16-3.16-1.1-3.21-3.19.11-.31.25-.66.53-.78.82-.36,1.22-1.32.71-1.87,1.15-1.41,2.77-1.66,4.43-1.8,3.48.3,3.65-4.11,6.55-4.64a1.39,1.39,0,0,1,1.21.36l1,1C165.74,154.7,160.68,155.09,162.65,158.8Z"/><path class="cls-1" d="M178.73,132.76c.18-1-.13-2.23,1.05-2.89a32,32,0,0,1,.31,3.37c0,.29-.57.58-.88.88Z"/><path class="cls-1" d="M180.05,129c.55-1.06.51-2.45,1.72-3.15C182.84,127.77,182.2,128.78,180.05,129Z"/><path class="cls-1" d="M169.78,147.85c.1-.78.09-1.62,1-1.94.17.85,1.3,1.63.39,2.52C170.67,149,170.12,148.41,169.78,147.85Z"/><path class="cls-33" d="M145.87,31c-.08,1.67-.15,3.34-.22,5a1.27,1.27,0,0,1-1.17-.38,4.69,4.69,0,0,1-.71-1.8c-.18-2-1.67-3.37-2.72-4.94a13.68,13.68,0,0,0-7.65-7.78c-2.8-1.25-4.48-3.13-4.54-6.26-.47-1.11-1.45-1.19-2.48-1.19-2.19-.68-3.31-3.06-5.62-3.53a3.84,3.84,0,0,1-1-.89A1.31,1.31,0,0,1,119.87,8c8.54,2.46,16.89,5.33,23.91,11.06-1.38,2.51.42,4.31,1.54,6.14S147,28.93,145.87,31Z"/><path class="cls-34" d="M145.87,31c.8-4-3-6.17-3.94-9.57-.59-2.22-.05-2.58,1.85-2.41,2.52,2.24,6.09,3.05,8.09,6A22,22,0,0,0,145.87,31Z"/><path class="cls-35" d="M119.87,8V9c-1.38.78-2.84.17-4.26.26a13.32,13.32,0,0,1-3-.34c-1.26-.46-2.6-.83-2.92-2.42,1.59-1.66,3.39-1,5.19-.47C116.12,7.71,118.66,6.13,119.87,8Z"/><path class="cls-10" d="M114.85,6c-1.69.27-3.56-.66-5.1.71a.72.72,0,0,1-.83.56,1.52,1.52,0,0,1-1-1.32,6.59,6.59,0,0,1-.27-.86l7.2-.08C114.86,5.35,114.86,5.68,114.85,6Z"/><path class="cls-1" d="M121.64,5.11,124.86,4l1,2.87C124.68,5.74,122.68,6.58,121.64,5.11Z"/><path class="cls-1" d="M144.8,16c2.26-1.12,2.95,0,3,2.08Z"/><path class="cls-36" d="M8.18,120.89c1.1-1.24.47-2.82.85-4.2,3.06,1.26,2.62,4.49,3.85,6.78a92.21,92.21,0,0,0,7.48,15.78,23.14,23.14,0,0,0,2.94,4.38,6.93,6.93,0,0,1,.59,1.19c.77,2.67,3.51,3.92,4.6,6.37a3.25,3.25,0,0,1-.08,2.09c-3.08,2.34-3.63-.33-4.54-2.29l-2.27-3a3.53,3.53,0,0,1-1.68-2.14C15.11,138,10.06,130.17,8.18,120.89Z"/><path class="cls-1" d="M19.92,145.88A3,3,0,0,1,21.6,148l-1.73.95A2.74,2.74,0,0,1,19.92,145.88Z"/><path class="cls-37" d="M151.86,160l2.75,2.89c-1.81,3.26-5.78,4.1-7.89,7-2.14.22-3.33,2-5,3-8.63,4.22-17.24,8.48-26.89,9.94-1.23-1-3.08.39-4.17-1.11,1.89-3.69,5.75-2.5,8.72-3.53.93-.24,1.87-.4,2.81-.57,2.16-.53,4.4-.86,6.28-2.2,1.51-.88,3.23-1.32,4.77-2.15.74-.43,1.48-.88,2.24-1.28a29.23,29.23,0,0,0,4.06-2c2.48-2,5.52-3.21,7.75-5.56,1.16-1,2.54-1.79,2.12-3.67a1.85,1.85,0,0,1,.62-1.17A1.49,1.49,0,0,1,151.86,160Z"/><path class="cls-38" d="M110.85,181.92c1.33.27,2.89-.49,4,.91L112,183c-1.36-.28-2.94.46-4-.92A2,2,0,0,1,110.85,181.92Z"/><path class="cls-39" d="M41.88,151c.69.6,3.41-2.16,2.32,1.51A10.84,10.84,0,0,1,38.67,159c-1.69.93-3.13,1.79-2.82,4-1.66-2.35-5.58-2.48-5.94-6.09-1.68-3.5-1.65-6.9.66-10.14a4.36,4.36,0,0,1,1.05-1.05c1.85-.51,3.72-1.27,5.47.28a2.55,2.55,0,0,1-1.1,2.46c-1.15.82-2.81,1.13-2.76,3.09,0,1.37.06,2.7,1.41,3.45,1.19.65,2.25,0,3.2-.61C39.32,153.44,39.82,151.31,41.88,151Z"/><path class="cls-40" d="M31.92,146c-2.25,3.37-2.24,7.14-2,11l-1.06-1c-.78-.78-.55-1.84-.8-2.76-.12-.72-.25-1.43-.37-2.15C26.72,147.39,27.55,145.2,31.92,146Z"/><path class="cls-1" d="M28.05,153.21c1.06.69.92,1.73.8,2.76-2.31-1-6.18-.47-5-5C25.34,151.58,25.66,154.35,28.05,153.21Z"/><path class="cls-41" d="M173.85,136a2.08,2.08,0,0,1-1,2,4.34,4.34,0,0,0-2.22,2.55c-.91,1.92-1.62,4.5-4.43,3.74-2.6-.71-2.6-3.12-2.26-5.38,1.3-5,5.77-8.21,7.08-13.17C176.14,127.91,176.22,128.2,173.85,136Z"/><path class="cls-42" d="M173.85,136c-.26-3.54,2.25-7.91-3-10-1-4.75,3.89-3.19,5.51-5.13a6.45,6.45,0,0,1,1.69-1c1.19-.37,2.2-1.37,3.6-1C179.61,124.83,177.82,130.89,173.85,136Z"/><path class="cls-43" d="M182.86,101c4,1.82.9,5.41,2,8l-1.89,2.1c-.35,0-.35-.8-.64-.49s-.37.88-.68,1.28c-3.28,2-4.56.36-5-2.76.28-2.53-.95-4.17-3.13-5.25a2.12,2.12,0,0,1,.17-2,3.4,3.4,0,0,1,2-.78,4.1,4.1,0,0,1,2.09.48c1.53,1.33,3.07,4,4.55,0Z"/><path class="cls-44" d="M164.83,139c.18,1.68-.58,4.08,1.71,4.53,2.07.4,2.76-1.63,3.44-3.36.45-1.13.73-3.06,2.88-2.15-1.87,3.07-2.59,6.87-5.82,9.06-1.69.29-2.07,1.54-2.17,3,0,.31,0,.62,0,.93l-1,0c-2.61,0-2.5-2.53-3.6-3.93-1-2.83,1.2-4.56,2.34-6.66C163.13,139.6,163.57,138.64,164.83,139Z"/><path class="cls-45" d="M181.66,118.87,178.87,121c-1.6-3.1-.58-5.4,2.2-7.15l.76.16C181.78,115.6,181.72,117.24,181.66,118.87Z"/><path class="cls-46" d="M164.87,150c-1.3-1-1.19-2.11-.18-3.21.82-.89,1.64-.68,2.34.23A3.92,3.92,0,0,1,164.87,150Z"/><path class="cls-47" d="M181.81,111l.28-2.18h.52l.33,2.26c-.1,1.08.19,2.3-1.11,2.92h0A2.23,2.23,0,0,1,181.81,111Z"/><path class="cls-48" d="M173.77,85.9l-1.12.92c-.52.75-1.35,1.21-1.84,2a2.67,2.67,0,0,1-2,.71c-1.86-.47-1.94-2-2.19-3.52-2.21-12.82-6.87-24.58-15-34.86-1.55-2-3-4-3.36-6.58a1.89,1.89,0,0,1,1.1-1.82,3.06,3.06,0,0,1,2,.75c3.73,3.63,6.52,8,9.28,12.34,1.28,2,2.17,4.63,5.13,5,3.82,4.67,4.55,10.54,6.21,16,.75,2.52.91,5.22,2,7.66A1.23,1.23,0,0,1,173.77,85.9Z"/><path class="cls-49" d="M173.77,85.9a3.79,3.79,0,0,0,0-1c-1.35-3.44-1.64-7.1-2.15-10.71-.16-1.13-.12-2.28-.31-3.41-.25-1.43-.77-3.24,1-3.82,2.07-.69,3.26.94,4.12,2.62,1.07,2.11.57,4.52,1.25,6.69.28,3.11,1.31,5.64,4.76,6.45A4.15,4.15,0,0,1,184.82,85l-.15,1.15A11.37,11.37,0,0,0,173.77,85.9Z"/><path class="cls-50" d="M182.88,96.94a2.18,2.18,0,0,0,0,.72c-2.46,2-5,1.44-7.56.26-3.12-1.46-6.23-.06-9.36,0a7,7,0,0,1-1.57-.28c-1.66-.87-4-1.38-2.19-4.09,3.71-1.8,7.67-.62,11.51-.94,2.09-.17,4.22.28,6.26-.49a8.87,8.87,0,0,1,1.93-1.28l2.08,3C184.83,95.32,184,96.18,182.88,96.94Z"/><path class="cls-51" d="M181.87,90.85c0,.66-.07,1.32-.11,2-3.75,1.4-7.62.32-11.43.58-2.49-2.06-.1-3.64.52-5.39l1.8-1.2c-1,5.38,3.64,0,4.29,2.25,1.37,1.4,3.57.63,5,1.9Z"/><path class="cls-52" d="M181.93,91c-1.69-.56-4.34,1.4-5-1.9C178.91,88.9,180.88,88.73,181.93,91Z"/><path class="cls-51" d="M182.88,96.94c.36-1,.72-2,1.07-3.08l1.93.2C185.19,95.34,184.83,97,182.88,96.94Z"/><path class="cls-53" d="M4,87.83,5.9,86A1,1,0,0,1,7,85.66c1.67.87,3.93.5,5.11,2.4-.13,2.2-2.39,2.38-3.45,3.69a2.83,2.83,0,0,0,0,4.09,37.49,37.49,0,0,0,2.86,2.49,1.77,1.77,0,0,1,.57,1.69c-.78.91-2,1.41-2.58,2.48-.44.45-.9.84-1.58.48-.43-2.31-2-3.72-3.91-4.82Q4,93,4,87.83Z"/><path class="cls-54" d="M11.91,124c-1.86-2.08-1.35-5.09-2.88-7.29a4.79,4.79,0,0,0-1.11-3.84L7.83,111c0-.62,0-1.25-.07-1.87,1-3.21,1.32-3.3,4.41-1.23a20.37,20.37,0,0,0,3.49,3.39,37.42,37.42,0,0,1,4.88,5.84,30.68,30.68,0,0,1,1.05,5.45,18.11,18.11,0,0,0,.24,4.76,3.59,3.59,0,0,1-.72,2.65c-2,.52-2.07-1.28-2.75-2.34-.4-.94-.63-2-1.58-2.58a3.49,3.49,0,0,1-1.34-1.33c-.23-.66-.21-1.37-.45-2.13-.15.88.27,1.63.08,2.41a2.27,2.27,0,0,1-1.93.66A2.91,2.91,0,0,1,11.91,124Z"/><path class="cls-55" d="M11.84,109c-1.41-1.76-2.8-2.69-4.08.12-1.85-2.1.6-4.09.15-6.15l1-1c.75-.48,1.38-.16,2,.28a4.43,4.43,0,0,1,.88,1.18C12.3,105.32,13.53,107.15,11.84,109Z"/><path class="cls-56" d="M175.77,96.87c2.16,2.06,4.73.46,7.08.79l0,1.37c-1.48,2.92-4.71,1.69-6.91,2.9l-2.05,0a1.47,1.47,0,0,1-.41-1.13c.76-1.33-.38-2.85.42-4.18A2,2,0,0,1,175.77,96.87Z"/><path class="cls-57" d="M176,101.93c1.69-2.42,4.79-1.5,6.91-2.9,0,.65,0,1.31,0,2l0,.05c-1.35,2-3,2.41-5.06,1Z"/><path class="cls-58" d="M6.89,86,6.4,86l-.5,0c1.69-2.83.3-6.26,1.8-9.13Q9.32,70,11,63L15,57a.91.91,0,0,1,1.17.11A2.58,2.58,0,0,1,16.43,59a9.53,9.53,0,0,1-1.1,2.38A10.53,10.53,0,0,0,13,66.57a15.87,15.87,0,0,1-.41,2C12,72.47,10.5,76.14,9.94,80c-.57,2-.58,4.07-1.67,5.88A1,1,0,0,1,6.89,86Z"/><path class="cls-16" d="M82.66,5.86A3.38,3.38,0,0,0,83,5a1.3,1.3,0,0,0,.82-.14l5.09-.77C87.38,6.75,84.92,5.93,82.66,5.86Z"/><path class="cls-59" d="M64.88,14.91c2-.16,4.22.84,6-.9,2.79-1.7,6.28-.07,9-1.89.76-.83,1.75-.66,2.7-.63,2.94,2,.59,3.09-.76,4.35a7.2,7.2,0,0,1-1.21.83,10.89,10.89,0,0,1-2.08.72c-3.14.57-6.18,1.74-9.45,1.42C68,17.16,65.2,17.41,64.88,14.91Z"/><path class="cls-60" d="M80.9,15.07c.33-1.26,3.45-.84,1.93-3.21,1-2.24,2.42-1.59,3.89-.57l1.39,2.63-.06,1C85.69,15.92,83.32,16.67,80.9,15.07Z"/><path class="cls-16" d="M86.72,11.29c-1.37-.3-2.73-.57-3.89.57l-2.91.26C82,10.18,84.09,8.61,86.72,11.29Z"/><path class="cls-61" d="M80.9,15.07c2.39.27,4.74-1.45,7.15-.15l1.77,2.18c1,.63,2.22,1,2.58,2.39a2.1,2.1,0,0,1-.74,2,101.08,101.08,0,0,0-23.93,6.25c-6.29,2.49-11.65,6.39-17.2,10-1.39.91-2.6,2.13-4.45,1.94C42.64,38.21,42.94,36,45,33.57c7.37-5.92,14.85-11.67,24.42-13.68.1,0,.15-.25.23-.38a1.17,1.17,0,0,1-.9-.38.76.76,0,0,1,.22-1L78.86,16c2.07,1,4.22.22,5.15.39a3.79,3.79,0,0,1-3.33-.55C80.76,15.59,80.83,15.33,80.9,15.07Z"/><path class="cls-62" d="M91.86,19a1.87,1.87,0,0,1-2-1.92c1.85-1.17,1.29-3,.77-4.38-1.9-5,.82-6.88,5-7.85.87-.48,1.26,0,1.51.75a2.83,2.83,0,0,1-1,1.78,7.12,7.12,0,0,0-1.73,2.08c-.79,3.08.53,6.44-1.21,9.4A1,1,0,0,1,91.86,19Z"/><path class="cls-63" d="M102.81,6.05l1,1a2.75,2.75,0,0,1,1.88,2.08,5.87,5.87,0,0,1,.17,1.45c-.17,1.2-.26,2.45-1.85,2.67-1.2-.33-.16-3.74-3-2.12-.48.28-1.23-1.32-1.6-2.24a5.48,5.48,0,0,1-.3-1.39,2.14,2.14,0,0,1,.91-1.87C101,5.56,102,5.26,102.81,6.05Z"/><path class="cls-64" d="M104.93,9l-1.08-2c1.06-1.52,2.68-.84,4.08-1.06l1,.84c.57,1.11,3.17,1.74,1.51,3.28C108.57,11.81,106.58,10.39,104.93,9Z"/><path class="cls-65" d="M99.86,6V8c-1.82.49-2.58-.52-3-2.09l-1.26-1c.82-1.15,2-.76,3.07-.69C99.44,4.57,99.61,5.32,99.86,6Z"/><path class="cls-66" d="M99.86,6,98.71,4.18c1.36.64,3.2.21,4.1,1.87Z"/><path class="cls-67" d="M27.26,35.12l.64,1c2,2.33,3.52,6.06,7.45,2.41,3.71,1.86,3.77,2.89.31,5.39-4.89-1.1-6.92,3.37-10.26,5.31-4.94,2.25-3.73-1.87-4.31-4.15C22,43.36,23,41.67,23.93,40Z"/><path class="cls-68" d="M15.83,57.23A1.38,1.38,0,0,0,15,57c-.72-3.17,1.87-4.37,3.62-6.08,1.54-.95,3-1.25,4.44.27a4.79,4.79,0,0,1-1.31,5c-1.62,0-3.72-2.11-4.64,1A1.3,1.3,0,0,1,15.83,57.23Z"/><path class="cls-69" d="M22.84,51.9c-1.16-1.39-2.81-.69-4.22-1,.42-1.29.84-2.59,1.25-3.88.84-.54.15-2.37,1.85-2.18,1.17,1-.8,5.21,3.31,3.33C26,50.37,25.76,51.92,22.84,51.9Z"/><path class="cls-70" d="M21.72,44.81,19.87,47c0-3.1,1.79-5.2,4.06-7C24.26,42.08,22.66,43.29,21.72,44.81Z"/><path class="cls-71" d="M34.86,39.09c.31,4.8-3.26,1.63-4.84,2.09-2.31.67-1.86-1.22-1.5-2.78.16-.68-.39-1.53-.62-2.29,2.23-.43.82-4.58,4.06-4a3.13,3.13,0,0,1,.91,1.68c.11.41.19.83.27,1.25C33.33,36.57,34.77,37.54,34.86,39.09Z"/><path class="cls-72" d="M36.89,28.92l3,2c-1.08,3.39-3.28,1.43-5.15,1.09a2.81,2.81,0,0,1-1.15-1.14C34.23,29.41,35.63,29.29,36.89,28.92Z"/><path class="cls-73" d="M33.63,30.87l1.28.13a2.24,2.24,0,0,1,.58,2.41,1.89,1.89,0,0,1-.89.94A3.18,3.18,0,0,1,32.05,34L32,32.14Z"/><path class="cls-24" d="M184.82,85a17.22,17.22,0,0,0-3.15-1.19c-3.95-.67-5.47-3-4.83-6.82a2.82,2.82,0,0,1-.45-2.36c.21-1.57-.92-3.72.75-4.6,1.87-1,3.3.86,4.73,1.94C183.39,76.19,185.51,80.27,184.82,85Z"/><path class="cls-74" d="M160.91,40h1c1.72,1.14,3.38,0,5.07-.12a42.66,42.66,0,0,1,8,13c-2.23,2.33-2.76,2.35-4.88-.34-2.5-3.17-5-6.25-9.5-6.38a7.22,7.22,0,0,1-2.14-.48,2.46,2.46,0,0,1-1-1C157.16,42.11,158.59,40.74,160.91,40Z"/><path class="cls-75" d="M181.87,72c-.41.08-1,.38-1.2.21-3.78-3.13-4-.75-3.83,2.41,0,.79,0,1.6,0,2.4-1.55-1.29-.8-3.08-1-4.66-.28-2.19-.7-4.26-3.7-4.63.23,2.2.45,4.27.68,6.34-2.91-.75-2.48-3.4-3.11-5.45.11-2.7-.44-5.89,4.21-4.67,1.59.42,1.5-1.24,1.82-2.24A3.32,3.32,0,0,1,177.89,59C179.28,63.27,182.32,67.09,181.87,72Z"/><path class="cls-76" d="M177.89,59l-1,3a1.5,1.5,0,0,1-1.78.36,8.71,8.71,0,0,0-2-3.53c-3.11-4-6-8.15-10.65-10.68-1.11-.61-2.91-1.11-2.56-3.12,5.37-.53,8.43,2.86,11,6.75,1.18,1.8,2,3.14,4.09,1.18C176.29,54.76,178,56.4,177.89,59Z"/><path class="cls-77" d="M167,39.91c-1.65,2-3.28,4.06-5.07.12,1.07-3,2.94-1.92,4.78-.91C166.79,39.38,166.88,39.64,167,39.91Z"/><path class="cls-78" d="M145,36h.64c1.91.39,2.24.12,3.31-2.75.59-.82.06-2.4,1.7-2.51.54.14.63,1.09,1.21.87.28-.1,0-.82-.16-1.24a.89.89,0,0,1,.32-1.08,6.74,6.74,0,0,1,6,1.72c-.08.21-.16.42-.23.63a37.13,37.13,0,0,1-2.54,4,173.08,173.08,0,0,1-16,14.64c-1.66-.8-.84-2.27-.94-3.49a4.36,4.36,0,0,1,1.13-2.34,9.33,9.33,0,0,1,1.5-1.31c2.89-1.35,2.93-4.17,3.49-6.72Z"/><path class="cls-79" d="M162.08,33.17c.11,2.29-1.5,3.86-2.34,5.76-1.39,2.72-3.24,3.88-6.06,1.79-.25-2.81,3.62-2.37,3.82-4.83a9.08,9.08,0,0,0-.19-3.67,2.43,2.43,0,0,1,.24-1.22.85.85,0,0,0,.5,0C160,30.61,160.86,32.23,162.08,33.17Z"/><path class="cls-80" d="M150.81,30.92c-.62.77-1.23,1.55-1.85,2.33.3-1.88-1.38-5.29,3.06-4,0,.25-.07.5-.09.76A1.21,1.21,0,0,1,150.81,30.92Z"/><path class="cls-81" d="M154,40c2.44,2.34,3.94-.23,5.76-1.1l1.17,1.1c-.75,1.8-3.13,2.6-3,4.93-1.34,1.45-2.32-2.18-3.71-.26a3.54,3.54,0,0,1-3.32-.71l-1-1c-.46-2.29,1-3,2.82-3.54A2.09,2.09,0,0,1,154,40Z"/><path class="cls-82" d="M49.86,170c-3.44-1.33-6.23-3.72-9.17-5.83-.93-.68-2.73-2.15-.78-3,2.87-1.21,4.13-4.22,7-5.25a17.68,17.68,0,0,1,10.29,6.61c-.41,1.49-.35,3.11-1.12,4.51C53.55,167.1,53,171.33,49.86,170Z"/><path class="cls-83" d="M56.92,163l-10.05-7c-.14-1.05-3-1.21-1-3,2.05-.81,3.53.49,5,1.5a74.93,74.93,0,0,0,34.89,13.36,4.15,4.15,0,0,1,2.26.93,2.44,2.44,0,0,1,.15,2.33c-2.61,3.62-6.07.85-9.11,1.22a14.26,14.26,0,0,1-5.43-1.05C68.14,168.31,61.36,168,56.92,163Z"/><path class="cls-84" d="M87.86,169c-13-.32-24.48-5-35.27-11.78L45.87,153c0-1.67,0-3.35,0-5l.63-.41c1.91-.31,3.06,1,4.29,2.06C60.4,158,71,164.32,84,166.09,85.55,166.3,87.77,166.41,87.86,169Z"/><path class="cls-85" d="M73.8,180A30.46,30.46,0,0,1,61.88,176a1.23,1.23,0,0,1-.43-1.09c.63-1.34-.56-2.24-.84-3.36.58-1.52,2-1.75,3.28-2,3.86.15,6.89,2.53,10.32,3.83a22.1,22.1,0,0,1,4,.4,21.1,21.1,0,0,1,2.75.49c1.57.56,3.34.44,4.79,1.39a1.71,1.71,0,0,1,.47,1.29c-.18.46-.41,1-.83,1.14C81.56,178.94,77.43,178,73.8,180Z"/><path class="cls-86" d="M41.88,151a12.88,12.88,0,0,0-1.81,3c-.83,2.76-3.22,2.94-5.16,2.69-2.47-.33-3.13-2.49-3.1-4.93,0-2.85,1.48-3.82,4.06-3.73.61.94,0,1.94.19,3.31a24.25,24.25,0,0,0,4.91-4.9c2.73-2.37,5.18-5.06,8.1-7.22,1.78-1,3-2.79,4.9-3.59,1-.2,1.84,0,2.19,1.1a5.51,5.51,0,0,1-1.78,2.91,23.47,23.47,0,0,0-3.91,4.59,12,12,0,0,1-4.61,3.8h0C43.85,148.08,42.76,149.4,41.88,151Z"/><path class="cls-87" d="M73.8,180c.65-.38,2.06.68,2-1-.1-3.23.23-3.65,2.85-2.46,2.46,1.12,4.77,1.89,7.3.4,1.19-.28,1.48.63,1.9,1.39a11,11,0,0,1,.77,2.52,2.56,2.56,0,0,1-.44,1.88l-4.42-.66-4.87-.19C77.62,180.12,75.08,181.79,73.8,180Z"/><path class="cls-85" d="M49.86,170c2.54.08,3-3.95,6-3a5.31,5.31,0,0,1,1.92.47c1.16.59,2.84.35,3.33,2-1.57,2.07-2.57,5.18-6.25,3.5C53.21,172,51.15,171.6,49.86,170Z"/><path class="cls-88" d="M54.86,173c3.08.28,3.9-2.83,6-4a1.77,1.77,0,0,1,1.8-.49A2,2,0,0,1,63.87,170l-3,2.1a3.41,3.41,0,0,1,.93,3.12c0,.25,0,.51,0,.77C59.41,175.26,56.77,175,54.86,173Z"/><path class="cls-89" d="M110.85,181.92l-2.93.16c-2.37.32-5.89,2.32-4.3-3.08.16-.55-1-.19-1.56,0-1.51-1.77-.23-2.72,1.09-3.66,2.66-1.17,5.71,1.33,8.27-.89a6,6,0,0,1,1.45-.49c3.45.08,7.12-.13,7,5C117.21,181,113.31,179.29,110.85,181.92Z"/><path class="cls-90" d="M85,184.85a3.24,3.24,0,0,0-.43-.74c1.43-.43,3.19.46,4.33-1.11a7.87,7.87,0,0,1,2-3.25c2.1-.37,4,1.62,6.14.61a9.1,9.1,0,0,1,2.35-.76,1.57,1.57,0,0,1,1.38,1.06c-1.34,3-5.11,2.25-6.93,4.52C90.89,183.42,87.87,185.66,85,184.85Z"/><path class="cls-91" d="M100.69,180.66l-.93-.74a2.09,2.09,0,0,1-.35-1.35c.26-1.41.33-2.91,1.49-4a2.75,2.75,0,0,1,2.87.06,1,1,0,0,1,.17,1.36c-1.37.56-2.21,1.43-1.88,3C101.61,179.58,101.15,180.12,100.69,180.66Z"/><path class="cls-92" d="M91,179.94c-.27,1.32,0,3-2.12,3.06a1.4,1.4,0,0,0-.67-.27c-.08-.61-.16-1.22-.23-1.84.5-1.42-.85-3.64,1.79-4.14A2.6,2.6,0,0,1,91,179.94Z"/><path class="cls-93" d="M45.88,34c-2,1.67-2,3.35,0,5,1.07.81,2.44,1.16,3.32,2.24.5.44,1,.92,1.42,1.39,1.51,1.57,3.07,3.09,4.61,4.63.75.76,1.5,1.54,2.27,2.29q2.48,2.53,5,5C64.08,56.63,67,57.76,67,60.92a4.42,4.42,0,0,1-2.43,2.39,3.93,3.93,0,0,1-2.66-1.23C55.55,56.22,50,49.57,43.59,43.76a4.72,4.72,0,0,1-1.4-2.59c.66-2.19-2.07-4.29-.19-6.52,1.71-.07,2.13-1.59,3-2.64a.88.88,0,0,1,1.21.07A1.62,1.62,0,0,1,45.88,34Z"/><path class="cls-94" d="M45.83,32,45,32a4,4,0,0,1,1.52-5.43c2.5-1.81,4.92-3.73,7.37-5.6l2-.29c1,1.44.31,2.86,0,4.28A25.5,25.5,0,0,1,45.83,32Z"/><path class="cls-95" d="M42,34.65c-.54,2.27,3,4,.86,6.49a2.57,2.57,0,0,1-2.5-.68A56,56,0,0,1,35,33.81c0-.94-.08-1.87-.13-2.81,1.67-.17,3.38,2.2,5-.08C41.48,31.68,41.83,33.12,42,34.65Z"/><path class="cls-96" d="M54.86,25c.32-1.43.63-2.86,1-4.3,2.32-1.3,4-3.81,7-3.91.09,0,.25-.24.25-.37s-.15-.27-.24-.4c.33-1.06.32-2.76,2.08-1.1.85,1.72,3.91.6,4.1,3.18,0,.29-.1.59-.14.89C64.43,21.56,60.11,24.36,54.86,25Z"/><path class="cls-97" d="M157.82,156l-5,1c-2.23.52-2.62-1.39-3.37-2.68a12.84,12.84,0,0,0-4-4.75,6,6,0,0,1-2.37-3.61,2.23,2.23,0,0,1,1.36-2.4c1.67-.26,2.72.8,3.82,1.75a43.74,43.74,0,0,0,7.64,6.54c.94.89,2.58.25,3.35,1.52A2.09,2.09,0,0,1,157.82,156Z"/><path class="cls-98" d="M146,148.85c4.45.88,3.66,6.22,6.9,8.13l2.14,1.68c-1.05.57-2.48,0-3.13,1.32h-1.92c-3.36-.15-2.85-3-3.46-5-.33-1.19.2-2.51-.71-4.53,0,.23-.35,1.34.17.93.91,1.16.16,2.49.38,3.73-.37,1.25-1.19,1.53-2.35,1.12-1.06-1.48-.34-3.08-.34-4.64C144,150.34,143.93,148.69,146,148.85Z"/><path class="cls-99" d="M157.82,156l1-3c-1.35-1.34-1.43-3.67-3.49-4.45-.85-.74-2.06-1.29-1.53-2.79a3.9,3.9,0,0,1,3.4-.65,10.24,10.24,0,0,1,2.61,1,12.8,12.8,0,0,1,1.06.89c2.06.55,1.54,3,3,4C161.13,151.78,162,156.93,157.82,156Z"/><path class="cls-100" d="M144.72,34c.1.68.2,1.36.29,2l-.27-.09c-1.79.76-3.29-.14-4.65-1A87.63,87.63,0,0,0,101.57,21a3.34,3.34,0,0,1-1.35-.63c-1.08-3.23,1.17-4.08,3.49-4.9a32.86,32.86,0,0,0,8.86-.1,6.27,6.27,0,0,1,1.5,0c2.64.57,5.58.13,7.77,2.23a1.72,1.72,0,0,1,.26,1.36c.42.61-2.15.38-.45,1A73.56,73.56,0,0,1,144.72,34Z"/><path class="cls-101" d="M144.72,34c-5.75-1.72-9.81-6.3-15-9.06-3.58-1.9-7.82-2.46-10.8-5.5.78-.9,2-.2,3-.43a2.52,2.52,0,0,1,2.8-.4c6.27,2.55,12.87,4.57,17.21,10.34C143.7,30.12,145.34,31.41,144.72,34Z"/><path class="cls-87" d="M141.9,28.92c-6.33-4-12.62-8.09-20-9.94-.06-.3-.1-.61-.13-.91a5.54,5.54,0,0,1,2-2.48,8.46,8.46,0,0,1,2.4-.84c1.21-.2,2.23-1.29,3.59-.8,0,3.88,2.54,5.51,5.73,7S141.47,24.88,141.9,28.92Z"/><path class="cls-35" d="M127,15.85l-3.13.17a4.19,4.19,0,0,1-5.27-2.73c2-.77,1.3-2.91,2.18-4.25,2.32.7,4.59,1.48,5.69,3.93C127.87,13.71,127.47,14.78,127,15.85Z"/><path class="cls-102" d="M120.79,9c-.37,1.47,2,4.27-1.93,4a1.36,1.36,0,0,1-1.84.12c-.79-1.6-1.7-3.18-1.19-5.09a6.25,6.25,0,0,1,4,.91Z"/><path class="cls-103" d="M127,15.85c-.18-1-.35-1.92-.53-2.88,1.66-1.6,2.47-.34,3.25,1Z"/><path class="cls-104" d="M104.93,9l5,.88c.56-1.44-1-1.95-1-3.06a1.25,1.25,0,0,0,.83-.08l3,1.42c1.58,1.21,3.65,2.32.91,4.42a5,5,0,0,1-3,.23c-2.1-.62-4.62-.38-5.88-2.79C104.89,9.66,104.91,9.32,104.93,9Z"/><path class="cls-105" d="M113.81,11.89c1.43-1.73-1.36-2.32-1-3.75l3-.07c.64,1.55,2.27,2.91,1,4.85l-.5.33A2.48,2.48,0,0,1,113.81,11.89Z"/><path class="cls-106" d="M31.92,146c-3.11.28-4.12,2.31-4.24,5.08-1.82-1.85-4.25-3.21-4.87-6,3.42-.82,3.68-2.27,1.31-7.45-2.78-3.16-2-5.11,2.05-5.91,3,1.64,4,4.81,5.46,7.56.63,1.63.53,3.39.87,5.07a1.89,1.89,0,0,1-.63,1.72Z"/><path class="cls-107" d="M17.72,124c1.37.59,1.11,1.82,1.15,2.93-1.56,2.37-.42,3.34,1.91,3.69a14.8,14.8,0,0,1,2,8.28,4.43,4.43,0,0,1-.31,1.34c-1.05,1.69-1.91.34-2.82-.17A67.73,67.73,0,0,1,11.91,124L13,124C14.56,124.66,16.13,125.09,17.72,124Z"/><path class="cls-108" d="M22,139.92a3.48,3.48,0,0,1,0-.91c.53-1.35,1.87-1.53,3-2.08,3.2,2.27,2.3,6.32,2.19,8.85-.13,2.81-2.69-.61-4.29-.74a3.24,3.24,0,0,1-.2-.8A4.73,4.73,0,0,0,22,139.92Z"/><path class="cls-109" d="M22,139.92c3.36,1,3.77,2.38.64,4.32l-3-4.13C20.39,140,21.27,141,22,139.92Z"/><path class="cls-110" d="M103.94,176c0-.34,0-.69-.07-1a1.81,1.81,0,0,1-.35-2.07,4.31,4.31,0,0,1,1.06-1.07c4-2.58,8.67-2.22,13.1-2.92a2.78,2.78,0,0,1,2.38,1.43c-.22.89-1.08,1.54-.94,2.69.69-.69.15-1.8.93-2.34.92-1.44,2-3,3.89-1.85s1.24,2.87.31,4.29c-1.14,1.74-.71,3.85-1.56,5.64l-2.83.19c-1.43-3.93-4.75-4.07-8.14-4.08l-.17-.13.2.12C109.72,179.21,106.51,175.39,103.94,176Z"/><path class="cls-111" d="M139.86,170.88c-1,1.44-2.76,1.21-4,2.08-1.25-.66-1.71,0-1.9,1.13l-5.07,1.9c-1.43.94-2.16.3-2.54-1.12-.09-1.26,1.39-2.17.81-3.55-.94-1.44-2.5-2.62-1.85-4.68a1.86,1.86,0,0,1,2.24-1.11c1.54,1.44,3.19,2.11,5.14.72a5.32,5.32,0,0,1,3.45-.62C138,167,141.07,167.39,139.86,170.88Z"/><path class="cls-112" d="M139.86,170.88c.14-2.87-3.08-2.9-4.07-4.82a1,1,0,0,1,0-1.2c1.5-.74,2.91.72,4.36.16.57-.94-.41-1.16-.77-1.66a4.27,4.27,0,0,1-1.77-2.81,3.29,3.29,0,0,1,4-2.06,7.48,7.48,0,0,0,3.47,1.35c1.47,1,.33,4.07,3.11,4.14a1.67,1.67,0,0,1-.22,1.29C146,168.14,142.48,168.9,139.86,170.88Z"/><path class="cls-113" d="M126.82,174.07c.05,1.31.84,1.85,2.06,1.92-1.3,2.64-4.21,1.66-6.19,2.78-.76-1.68-1.32-3.42-.36-5.15.71-1.29,3.08-2.3,1.26-4-1.37-1.27-2.16,1.7-3.75,1.33h0c-.42-.91-1.27-1-2.11-1.11,1.78-3.38,4.7-3.75,8-3.06-.17,2.27,2.1,2.79,3.06,4.25C127.77,171.81,127.85,173.31,126.82,174.07Z"/><path class="cls-114" d="M147.88,164c-3.44.45-2.38-2.46-3-4.07-.76-1.14-2.27-1-3.19-1.93,0-1.56.93-1.94,2.24-1.93a2.44,2.44,0,0,0,2.05-1.14c.38-.53.77-.54,1.18,0,1.53,1.35.76,4,2.83,5a6.33,6.33,0,0,1,0,.87C150.62,162.79,149,163.25,147.88,164Z"/><path class="cls-115" d="M147.88,164l2-3.19c2.27,2,2.27,2-2,4.43Z"/><path class="cls-116" d="M134,174.09c-.57-.4-1.09-1-.53-1.56.87-.87,1.76-.54,2.43.43Z"/><path class="cls-117" d="M41.85,147c-1.43,1.6-2.77,3.27-4.31,4.76-.84.82-1.66,2.7-3.11,1.58s.09-2.4.55-3.56a19.69,19.69,0,0,1,.89-1.78l1-2c-.4-.67,0-1.16.35-1.66a4.91,4.91,0,0,1,1.91-1.62,2.51,2.51,0,0,1,2.18,1.2C42.05,144.79,41.16,146,41.85,147Z"/><path class="cls-118" d="M37.82,145l-1,1-5,.09L32,144.1C34.19,142.61,36.34,141.54,37.82,145Z"/><path class="cls-119" d="M164.83,139a2.2,2.2,0,0,0-1,2c-2.57,1.14-2.7-.79-3.1-2.42,2-7.1,5.8-13.39,9.27-19.82,1.95-.9,2.29,1.74,3.83,1.74,1,0,2.12-.39,3,.5-.23.94.56,2.76-1.57,2.19-2.62-.69-3.63.83-4.42,2.84C173,132.26,165.66,134.09,164.83,139Z"/><path class="cls-120" d="M176.85,121l-3.07.93c-1.42-3,.41-5.55,1.11-8.26,1.33-1.71-.43-5,3-5.67-.16,3,.28,5.14,4,3l0,3c-2.52,1.68-2.71,4.35-3,7Z"/><path class="cls-121" d="M170.79,119q-4.5,9.45-9,18.89c-1.43,2.63-2.27,6-6.38,5.42-3.21-1.66-1.25-3.6-.16-5.29,3.79-5.86,7.59-11.64,9.71-18.44a74.72,74.72,0,0,0,3.63-16.48c.14-1.79,0-3.74,2.12-4.68,1.88-.15,3.34.21,3.15,2.59,0,.33,0,.67.08,1,0,.68.05,1.36.07,2,1,.92.85,2.09.74,3.26a8.93,8.93,0,0,1-.3,1.34c-.49,1.53-.36,3.17-.72,4.73C173,115.34,172.48,117.46,170.79,119Z"/><path class="cls-122" d="M173.8,107.93c.07-1.3.13-2.61.19-3.91,4.37-1.68,3.32,1.9,3.85,4-2.11,1.53.13,4.48-2,6C174.18,112.32,174.51,110,173.8,107.93Z"/><path class="cls-123" d="M177.82,102a9.44,9.44,0,0,0,5.06-1c-.19,1.68.56,4.08-1.79,4.46C179,105.83,178.15,103.92,177.82,102Z"/><path class="cls-124" d="M155.84,142.93c2.84-.68,3.65-3.74,5.93-5.08.12,1.43,0,3,2.09,3.13-1,2-3.59,3.19-3,6h-1c-.74-.63-1.18-1.56-2-2.14s-1.6-.16-2.33-.51c.69.55,1.92-.22,2.36,1a.51.51,0,0,1,0,.4,1.82,1.82,0,0,1-.34.34H153.8a1.84,1.84,0,0,1-2.15.25c-1.55-1.46-1.3-2.73.41-3.84A5.34,5.34,0,0,1,155.84,142.93Z"/><path class="cls-125" d="M148.85,44c3.77,7.65,10.05,13.72,13.11,21.89,2.54,6.78,5.27,13.43,5.89,20.71.11,1.35.57,2.2,2,2.35.19,2.3-1.71,2.09-3.06,2.55a6,6,0,0,1-4.27-1.44c-.92-6.88-3.26-13.3-5.7-19.79-2.85-7.58-7.32-13.94-12.44-20a4.18,4.18,0,0,1-.81-1.26C144.12,46.1,145.44,44,148.85,44Z"/><path class="cls-126" d="M154.82,44c1.52-1.26,1.92,1,3.06,1l.09-.05c1.33,1.47,3.37,2.13,4.46,3.88a34.84,34.84,0,0,0,2.77,4.52,10.84,10.84,0,0,1,.74,1.16c2.23,4.31,4.62,8.56,4.87,13.57a11,11,0,0,0,2,6c-.31,3.69,1.68,7.19.92,10.91-1.88-.16-1.68-1.59-2-2.91-1.51-7.27-3-14.55-6.95-21C160.79,55.76,156,50.93,154.82,44Z"/><path class="cls-127" d="M148.85,44a13.84,13.84,0,0,0-4.92,5c-.28,2.51-2,3.66-4.17,4.42a2,2,0,0,1-1.61-2.21,2.2,2.2,0,0,1,.68-1.33L154.77,35c1.66-.4,1.53-2.62,3.13-3.07,1.78,1.06,1.14,2.62.83,4.11-1.51,2-4.12,2.33-5.89,3.94a7.15,7.15,0,0,0-3,3Z"/><path class="cls-125" d="M154.82,44c3,5.84,7.57,10.8,10,17-.51,2-.81,2.25-2.12.23-3.79-5.85-7.89-11.5-11.87-17.24Z"/><path class="cls-128" d="M166.84,91l3-2,1-1L170,92.9C168,93.71,166.3,94.11,166.84,91Z"/><path class="cls-129" d="M164.84,97l1,0c-.08,14.66-4.35,27.91-13.39,39.52-1.32,1.7-2.68,3.35-3.91,5.12a1.41,1.41,0,0,1-2,.23c-1.55-1.46-3-3-4.61-4.46a2.4,2.4,0,0,1-.35-2.69c6-3.87,6.8-11.35,11.31-16.27.79-.85.67-2.18.76-3.34.39-5.52,3.47-10.25,4.6-15.57.55-2.58,3.15-2.54,5.29-2.79A1.2,1.2,0,0,1,164.84,97Z"/><path class="cls-130" d="M147.86,141.93a5,5,0,0,1,1.52-4c8.78-9.56,13.44-20.9,14.56-33.8.21-2.41,1.25-4.75,1.9-7.12,3.3-.72,6.6-2.12,9.93-.13l-1.9.06c-.55,1-1.86,1-2.57,1.8-2.94,2.47-1.12,5.93-1.71,8.88-2.33,11.65-6.61,22.39-13.85,31.83-1.14,1.5-1.43,2.36.1,3.49l-4,.08a3.55,3.55,0,0,1-2.95.67C148.14,143.34,147.55,142.9,147.86,141.93Z"/><path class="cls-131" d="M164.84,97l-1,0a79.33,79.33,0,0,1-8,1.43c-3-.11-6,0-9,0-5-.25-10,.74-14.91-.48-1.89-1.07-1.43-2,.27-2.65a7.46,7.46,0,0,1,4.68.23c-2-.58-4-.13-5.89-1.22a1.1,1.1,0,0,1,0-1.42,5.52,5.52,0,0,1,3.79-1.16c2.47-.19,4.78.88,7.23.89l1.67,0c5.67.28,11.38-.49,17,.46a2.71,2.71,0,0,1,1.31,1.1C161.74,96.31,164.29,95.64,164.84,97Z"/><path class="cls-131" d="M166.84,91c.12,2.1,1.58,2.08,3.1,2l11.82-.07c-2.9,2.34-6.28.8-9.42,1.09-3.43.31-6.89.17-10.34.24l-.29-.37a8.57,8.57,0,0,1-.35-2.94,1.89,1.89,0,0,1,.45-1.1.82.82,0,0,1,1.06.19Z"/><path class="cls-132" d="M10.94,98.6c-1.45.26-1.75-1.36-2.82-1.71-1.34-1.52-.85-3.21-.46-4.89,5.82,1.2,11.78,0,17.61,1.11a2.86,2.86,0,0,1,1.88,2.47c-.78,1.67-2.53,1.54-3.9,2.12a14.33,14.33,0,0,1-3.49.71C16.77,96.28,13.88,98.59,10.94,98.6Z"/><path class="cls-133" d="M25.87,94.06c-4.25,0-8.51-.15-12.75,0-2.09,0-3.87-.25-5.17-2-.32-.15-.47-.36-.44-.61S7.6,91,7.68,91l4.44-2.82c.82-.19,1.15.33,1.4,1a3.25,3.25,0,0,1-.16,1.75c.61,1.87,2,.56,3,.73,1.87-.49,1.83-2.62,3.1-3.62a1.71,1.71,0,0,1,1.81,0,5.78,5.78,0,0,0,3,.8A7.33,7.33,0,0,1,27,89.3a2.35,2.35,0,0,1,1,.94c-.27,1.69-1.63,1.59-2.8,1.72.06,0-.24-.11-.24-.11s.14.29.19.28c1.11.15,1.92.56,1.94,1.81A.77.77,0,0,1,25.87,94.06Z"/><path class="cls-134" d="M10.94,98.6c2.85-1.88,5.65-4.59,8.92-.64a1.83,1.83,0,0,1,.5,1.19,5,5,0,0,1-3.12,3.26c-1.74.25-3.43.79-5.17,1a1.39,1.39,0,0,1-1.15-.53h0c-1.3-1.42-.12-2.15.81-3Z"/><path class="cls-135" d="M12.93,88.86l-.81-.69c-1.63-1-4.08,0-5.23-2.13a.79.79,0,0,1,.6-.22c1.59-1.27,3.13-2.66,5.38-2.54a8.1,8.1,0,0,1,4.94,2.5c.82,1.17,2,2.52.37,3.67A3.88,3.88,0,0,1,12.93,88.86Z"/><path class="cls-136" d="M7.68,91,8,92a8.21,8.21,0,0,0,.17,4.88C5.85,95.08,5.86,93.1,7.68,91Z"/><path class="cls-136" d="M11.75,100l-.81,3L8.87,102C8.9,100,10.27,99.92,11.75,100Z"/><path class="cls-137" d="M16.91,102l3-3c2.72.31,2.1,2.57,2.27,4.17,1.3,12.19,4.73,23.61,11.81,33.77,1.14,1.64,2.19,3.35,1.49,5.51-3.06,2-3.15-1.45-4.58-2.46L26,131.85c-3.08-1-3.17-4.2-4.59-6.42-.45-.82,0-1.8-.47-2.61l-1.25-5.54a32.93,32.93,0,0,1-3.88-10.16C15.52,105.29,15.43,103.47,16.91,102Z"/><path class="cls-138" d="M16.91,102c-.85,5.42,2.5,10.07,2.81,15.29-2-1.41-3.25-3.5-4.62-5.46-3.16-2.34-2.93-5.91-3.34-9.24A8.16,8.16,0,0,1,16.91,102Z"/><path class="cls-109" d="M22,124.7l4,7.15c0,1.78-4.66,2.53-1.12,5.08.14,2.32-2.2,1.07-3,2.08.68-2.83-2.46-5.13-1.11-8-.32-.21-.43-.43-.33-.65s.2-.34.31-.34c0-1,.05-2,.07-3C21.48,126.33,21,125.13,22,124.7Z"/><path class="cls-139" d="M20.81,130a3.29,3.29,0,0,1,0,1c-1.39-.26-3.17,2.08-4.15-.54-.74-2,.18-3.1,2.18-3.45C19.51,128,20.16,129,20.81,130Z"/><path class="cls-140" d="M11.76,102.58c1.82,2.82,1,6.6,3.34,9.24-1.61-.33-2.42-1.58-3.26-2.81q-.46-3-.92-6.09A8.68,8.68,0,0,0,11.76,102.58Z"/><path class="cls-141" d="M14.86,123.7c-1-1.64-1.62-3.28.07-5.07,2.69,1.29.46,3.47,1,5.07Q15.37,124.66,14.86,123.7Z"/><path class="cls-142" d="M14.86,123.7h1l1.84.33c-1.59,2.82-3.17,1.3-4.74,0Z"/><path class="cls-107" d="M22,124.7,20.88,127a3.32,3.32,0,0,1,.09-4.16Z"/><path class="cls-143" d="M171.3,98.73c-.17-2.07,1.16-2,2.57-1.8,1.32,1.36,3.29,2.72,0,4Z"/><path class="cls-106" d="M22.84,51.9c1.91-.57,2-2.19,2.19-3.76,1-.8,2.38-1.39,2.94-2.43,1.6-2.92,3.93-3.44,6.86-2.77a1.64,1.64,0,0,1,.2,1.38c-5,6.54-9.62,13.34-12.53,21.15-.44,1.18-.82,2.6-2.48,2.76-1.62-.91-1.89-2.57-2.33-4.13a7.29,7.29,0,0,0-1.5-2.86c-.3-.79-1-1.53-.3-2.43l-.06-1.58a3.78,3.78,0,0,1,1-.09c1.49.06,2.76-.73,4.15-1.07Z"/><path class="cls-144" d="M8.91,80c.05-4.26,1.61-8.16,2.9-12.12a48.89,48.89,0,0,0,3.61,3.44A4.37,4.37,0,0,1,15.78,74c-1,2.63-2.32,5.18-2.7,8C11,82.72,10,81.3,8.91,80Z"/><path class="cls-145" d="M15,71.06c-3.38,1.25-2.89-1.33-3.15-3.18l.27-1.82c1.88-.45,2.66-6.3,5.69-1.16A12.25,12.25,0,0,1,16.71,70,1.67,1.67,0,0,1,15,71.06Z"/><path class="cls-146" d="M8.91,80c1.68-.12,2.52,1.3,3.74,2A1.22,1.22,0,0,1,12.9,84L7.49,85.82C8.09,83.91,7.55,81.72,8.91,80Z"/><path class="cls-147" d="M17,65.07c-.22-1-.57-2.24-1.66-.75a3.52,3.52,0,0,1-3.23,1.74,7.47,7.47,0,0,1,2.57-5.31,13.51,13.51,0,0,0,2.29.17l1.76,2C18.08,63.57,18.82,65.35,17,65.07Z"/><path class="cls-148" d="M16.94,60.92c-.86,1.29-1.61,1-2.29-.17.15-.81.35-1.6,1.24-1.94Z"/><path class="cls-149" d="M80.68,15.85l5.18.38c-2.39.54-4.81,1.59-7-.22Z"/><path class="cls-150" d="M49.88,43l-1-1c-1.47-3.12,1.21-4.07,2.93-5.35A77.39,77.39,0,0,1,88.12,22.06c1.31-.17,2.65-.15,3.73-1.06,0-.66,0-1.32,0-2h.94c1.69,1.66,1.43,3.58.76,5.55a3.08,3.08,0,0,1-1.09,1.2c-3.29,1.86-7.08,1.48-10.62,2.28A74.08,74.08,0,0,0,54.61,40.81C53.2,41.84,52,43.55,49.88,43Z"/><path class="cls-151" d="M91.85,21c-1.49,2.94-4.61,2.54-7,2.85-12.3,1.6-23,6.91-33,13.8-1.46,1-3,2.21-3,4.32a6.29,6.29,0,0,1-3-3C50,36.37,54,33.48,58.3,31.12,68.74,25.37,79.55,20.64,91.85,21Z"/><path class="cls-152" d="M54.86,25a75.75,75.75,0,0,1,14-6h2.89c-9.57,3.53-17.82,9.07-25.85,15,0-.67,0-1.34-.05-2C48.23,28.86,52.23,27.81,54.86,25Z"/><path class="cls-153" d="M92.74,25l.06-6c.52-3.66-1-7.51,1.06-11,3.33,1.09,2.34,4,2.35,6.22.11,17,.06,34,.06,51,0,2.5,0,5,0,7.49a5.73,5.73,0,0,1-.14,1.8c-.66,1.21-1.78,1.38-3,1.3-5.67-.79-1.85-4.14-1.75-6.5.08-12.13,0-24.26,0-36.38,0-.61,0-1.21,0-1.82C91.55,29,91.26,26.78,92.74,25Z"/><path class="cls-154" d="M96.9,5.9l3,2.09h0c1.51,3.15-1.11,6.06-.54,9.16-.15,15.53,0,31.05-.06,46.57,0,2.63.26,5.29-.39,7.9a3.33,3.33,0,0,1-1.14,1.53c-2.91-1.08-1.8-3.63-1.81-5.55-.12-19.87,0-39.75-.1-59.62,0-.32,0-.64,0-1Z"/><path class="cls-155" d="M95.83,74c-1.62-1.67-.94-3.78-.94-5.69-.06-18.39,0-36.79-.06-55.19,0-1.74.66-3.69-1-5.15a2,2,0,0,1,2-1l0,0c.81,1.22.48,2.58.48,3.89,0,20.76,0,41.52,0,62.28Z"/><path class="cls-156" d="M104.86,10l6,2c2,.54,3.88,1.39,6,1l0-.11,2,.12,5,3c0,1.37-.85,1.94-2.12,2.05-2.49-1.29-5.53-.4-7.94-2-3.21-.65-6.62-.11-9.69-1.63a.93.93,0,0,1-.19-1.36C105,12.29,104.78,11.1,104.86,10Z"/><path class="cls-65" d="M103.94,13.08a7.3,7.3,0,0,0,0,.81.92.92,0,0,1,.25.79c0,.27-.1.41-.17.41-2.05.17-3.73,3-6.11.86-1.05-3.06,2.37-5,1.93-7.95C99.89,10.76,105.14,9.33,103.94,13.08Z"/><path class="cls-73" d="M34.85,43.9a6.16,6.16,0,0,0,0-1c1-.35,2.74-.26,2.74-1.55a2.45,2.45,0,0,0-2.71-2.3c-1.43-1-3.25-1.79-2.8-4.11.79-.66,2.29.76,2.74-.92l.24-.25c3.18.87,4.09,3.92,5.89,6.11-.19,1.57,2.12,2.69.8,4.46-2.19.92-4.37,2.24-6.65.21Z"/><path class="cls-29" d="M20.93,56.07c-1,1.9-1.82,4.41-4.15,1.07,0-1.8.15-4,2.14-4.27C20.5,52.64,20,55.13,20.93,56.07Z"/><path class="cls-157" d="M34.8,34.06l1.62,2.45c-1.91.41-3-1-4.36-1.53a1.25,1.25,0,0,1,0-1A2,2,0,0,1,34.8,34.06Z"/><path class="cls-158" d="M161.77,49a10.53,10.53,0,0,1-3.8-4.12l1.88.09c5.42,2.75,9.49,7.09,13.45,11.54.46.52.37,1.54.53,2.32a1.2,1.2,0,0,1-1.25.28c-1.34-2.43-6.9-.46-5.78-5.5-.69,0-1.17,1-2,.39h0C163.65,52.45,163.18,50.45,161.77,49Z"/><path class="cls-159" d="M164.82,54,168,51.42c-1,2.89-.91,4.76,2.36,4.94A2.63,2.63,0,0,1,172.85,59c.37,1.22,1.4,2,2,3l2,0c-.58,2.19.86,6.71-4.36,2.84-1.91-1.42-1.19,2-1.68,3.23Z"/><path class="cls-160" d="M174.89,62c-1.58-.4-3.92-.28-2-3l1-.13C175.56,59.45,175.83,60.52,174.89,62Z"/><path class="cls-161" d="M99.87,20c14.39.28,27.19,5.42,39.27,12.82,1.82,1.11,3.73,2.08,5.6,3.11.86,3.73.78,7-3.87,8.1-.94.36-2-.08-2-.8.2-4-3-5-5.5-6.53-10.26-6.14-21.55-9.23-33.24-11.12-2.44-1.47.69-3.44-.46-5Z"/><path class="cls-162" d="M139.86,45,138.79,47c-1.83,2.62-3.34,5.74-7.47,4.69-.83-4.31-3.86-7-7.51-8.55-6-2.54-12-5.68-18.76-5.86-2.16,0-4.3-.43-5.74-2.36a6.21,6.21,0,0,1,.08-4.75c1.43-1.55,3.31-1.47,5.12-1.18C117.74,31.09,129.85,35.74,139.86,45Z"/><path class="cls-163" d="M139.86,45c-4.08-.76-7-3.7-10.21-5.87-9.05-6-19.23-8.15-29.79-9.14a3.67,3.67,0,0,1,0-5c14.4.44,27,6,38.9,13.62,1,.62,3.45,1.66.48,3.4-.58.35.78,1.52,1.63,2Z"/><path class="cls-164" d="M131.87,52,138.79,47c1.26,1-.24,2,0,2.95a7.57,7.57,0,0,0-.06,1c-1.54,2.95-3.13,5.84-6.89,6.39a3.9,3.9,0,0,1-1.63-3.07A2.19,2.19,0,0,1,131.87,52Z"/><path class="cls-165" d="M150.81,30.92l1.12-.87c.83.26,2.13.27,1.42,1.68-.32.62-1.16,1.46-1.69,1.41C150.26,33,151.13,31.67,150.81,30.92Z"/><path class="cls-166" d="M157.9,31.88c-.76,1.31-1,3.12-3.13,3.07,1.2-1.12.52-3.58,2.78-4A2.12,2.12,0,0,1,157.9,31.88Z"/><path class="cls-166" d="M152.84,39.93A8,8,0,0,1,158.73,36c-.06,3.13-3.19,2.66-4.75,4Z"/><path class="cls-167" d="M63.87,170l-1-1c-1.83-1.37-4.16.23-6-1l-1-1c.46-1.31-2.44-3.51,1.06-4l16.94,7a3.06,3.06,0,0,1,0,4c-.19.75-1,2-1.25,1.39C71.15,171,66.46,172.22,63.87,170Z"/><path class="cls-161" d="M45.86,148a10.54,10.54,0,0,1,4-4c4.62,1.21,7.6,5,11.47,7.37,8.66,5.36,17.58,9.83,28,10.45a4.77,4.77,0,0,1,2.78.94,5.28,5.28,0,0,1,.73,4.45,7,7,0,0,1-1.28,2.68,3.72,3.72,0,0,1-3.19,1.36l-.51-.5,0-1.73c-4.81-3.19-10.71-2.57-16-4.63-8.31-3.27-15.28-8.23-22-13.83C48.68,149.48,47.76,148,45.86,148Z"/><path class="cls-168" d="M73.86,174v-4a9.5,9.5,0,0,0,5,1.13,1,1,0,0,1,.28,1.11A15.9,15.9,0,0,1,77.86,175Z"/><path class="cls-85" d="M78.9,172l-.06-.88c3-.8,6.1,2.51,9-.35a1.57,1.57,0,0,1,.13.65c.58,1.42-.29,2-1.4,2.52C83.72,174.39,80.92,174.67,78.9,172Z"/><path class="cls-167" d="M78.9,172a19.92,19.92,0,0,0,8,1l.36.66c-.07.24-.14.47-.2.71a2.44,2.44,0,0,1-1.86,1.1c-1.43-.15-3,.43-4.31-.46h-3C77.28,173.65,76.3,172.19,78.9,172Z"/><path class="cls-169" d="M61.84,175.18c-1.33-.74-1.06-2-.93-3.12.92,0,2.18-.57,2.48.8C63.63,173.93,62.7,174.62,61.84,175.18Z"/><path class="cls-170" d="M85.83,175l1.06-1c1.67,1.64,2.67,3.28.06,5l-1-2a1.85,1.85,0,0,0-.11-1c-.35-.22-.48-.44-.36-.67S85.71,175,85.83,175Z"/><path class="cls-168" d="M85.83,175c0,.34,0,.67,0,1-1.68-.24-3.6.65-5-1Z"/><path class="cls-162" d="M53.83,138.94l2-2a1.94,1.94,0,0,1,1.26-.5,5.55,5.55,0,0,1,4,1.66c5.65,5.55,13.63,5.66,20.34,8.73.27.12.67-.06,1,0,3.54.8,6.19-.05,8.31-2.56.77-.91,1.42-.31,1.93.46a18.12,18.12,0,0,1,.18,8.66c-1.42,3.73-4,4.25-7.91,4.17-9.35-.2-16.9-4.62-24.27-9.38C57.45,146.12,53.07,144.22,53.83,138.94Z"/><path class="cls-171" d="M53.83,138.94c0,1.89,1.31,3.05,2.59,4,8,6.16,15.61,12.68,26.83,12.63,3.22,0,6.16,1.71,8.58-1.63a7.4,7.4,0,0,1,0,9c-16.89.06-29.88-8.49-42-19C50.1,141.44,52,140.24,53.83,138.94Z"/><path class="cls-172" d="M41.85,147c-1.17-.72-1-1.88-1-3a3.93,3.93,0,0,1,.62-2.41,31.32,31.32,0,0,1,3.94-4.12,3,3,0,0,1,2.37-.77,7.91,7.91,0,0,1,2.34,2.16,1,1,0,0,1-.31,1.11Z"/><path class="cls-173" d="M56.86,137l-1,0a1.75,1.75,0,0,0-1.88-.87c-.1-.21-.21-.42-.32-.63a3.44,3.44,0,0,1,.79-2A5.84,5.84,0,0,1,58,131.24c1,0,1.87.29,2.18,1.41C59.8,134.66,58.24,135.74,56.86,137Z"/><path class="cls-173" d="M49.85,140c0-.34,0-.67,0-1,0-2.71,1.19-3.87,3.92-3.11l.17.22A11.14,11.14,0,0,1,49.85,140Z"/><path class="cls-174" d="M87,179c2-1.68-.27-3.31-.06-5h0c1.45-1.09,2.43-.33,3.31.84a1.62,1.62,0,0,1-.61,2.06c-1.45,1,0,3.11-1.64,4Z"/><path class="cls-82" d="M56.86,168c2,.32,4.26-.85,6,1l-2,0C59.5,168.81,57.92,169.43,56.86,168Z"/><path class="cls-175" d="M89.6,176.9l.13-1.91c-.26-.85.22-1.36.84-1.8,1.21-.6,2.3-.7,3,.73.6,1.59.46,3.54,2.26,4.54a6.34,6.34,0,0,1,2,2.53c-2.7,2.3-4.77.47-6.89-1.05C90.3,179,89.52,178.16,89.6,176.9Z"/><path class="cls-176" d="M97.87,181a1.87,1.87,0,0,1-2-2l-.18-.87c-.36-4.41-.17-8.82-.11-13.23,0-1.45,0-3.62,1.62-3.69,2.08-.09,1.8,2.2,2,3.73a19.83,19.83,0,0,1,.07,2.44c-.51,3.88.88,7.7.37,11.57,0,.34.09.68.14,1Z"/><path class="cls-177" d="M99.62,178.9c-1.77-3.45-2-7.15-1.78-10.92,1.68-3.91-.48-7.69-.39-11.55,0-11.62,0-23.23,0-34.85,0-2-.17-4,.55-5.91,2.37-2.68,5.15-4.11,8.8-3a2.07,2.07,0,0,1-1.11,2.89c-4.84,1.81-4.59,5.77-4.44,9.78.08,2,0,3.94,0,5.92.13,3.21.1,6.42,0,9.64.08,3.25.11,6.51,0,9.76,0,2.56.08,5.13,0,7.69,0,1.56,0,3.12-.07,4.67a6.44,6.44,0,0,0,2.12,5.53c.68,1.25,1.59,2.48.59,4a1.06,1.06,0,0,0-.09.5c-1.88-.54-3.48-.63-3.3,2.08C100.68,176.52,101.39,178,99.62,178.9Z"/><path class="cls-178" d="M100.51,175.16A9.52,9.52,0,0,1,99.6,173c-.13-1-1.19-2.37.38-3s1.8.9,2.43,1.8a9.2,9.2,0,0,0,1.4,1.31l.06,1.89Z"/><path class="cls-179" d="M66.87,61l-5-6c-1.43-2.26-.25-3.73,1.54-5A56.6,56.6,0,0,1,87.08,40.2c3.09-.52,4.85.5,4.76,3.87-.06,2.15.23,4.31-.28,6.44a3.71,3.71,0,0,1-3.06,2.21c-6.88.48-12.23,4.32-17.76,7.82a4.27,4.27,0,0,1-3.22.89Z"/><path class="cls-180" d="M90.86,51c-.09-3,.88-6.61-.49-8.77-2.19-3.46-5.14.84-8,.84-7.74,0-13.12,5.72-19.61,8.76-1.15.54-.88,2-.93,3.19a16.08,16.08,0,0,1-5-5c3-5.25,8.41-7.27,13.34-9.74a75.26,75.26,0,0,1,14.55-5c2.4-.64,5.25-1.48,6.59,1.77.4-1.5-2-4.11,1.46-5L92.85,71c-1.49,1.79-3.12,2.51-5.08.67,2-4.17,1.58-8.64,1.66-13.07C89.47,56,88.94,53.24,90.86,51Z"/><path class="cls-181" d="M49.88,43c12.07-10.48,26.2-16.17,42-18,.93,1.81.33,3.72.41,5.59-1.16,1.86-3.16,1.49-4.89,1.81C75.15,34.7,63.81,38.86,54.87,48A15.25,15.25,0,0,1,49.88,43Z"/><path class="cls-182" d="M54.87,48a4,4,0,0,1,1.65-3.86c10.62-7.52,22-13,35.34-13.16.32-.48.62-.48.92,0,0,.34,0,.68,0,1-1.76,1.62-.42,3.85-1.2,5.87-2-2.6-4.51-2-7.2-1.24C74.43,39.53,65,43.39,56.85,50Z"/><path class="cls-183" d="M41.81,44c-.07-1.4-3.06-2.17-.88-4.06l1.93,1.22L64.87,63c2.12.5,3.19,2.37,4.74,3.62,2.88,2.92,5.79,5.79,8.69,8.68,1.29,1.6,3.33,2.75,3.08,5.24a2,2,0,0,1-.92,1,4.08,4.08,0,0,1-4-.93c-3.44-3.27-6.71-6.7-10.12-10-2.29-2.4-4.65-4.72-7-7s-4.63-4.67-7-7a29.2,29.2,0,0,1-2.54-3c-2-1.94-3.89-4.06-6-5.89a7.53,7.53,0,0,1-2.26-2.47A1.26,1.26,0,0,1,41.81,44Z"/><path class="cls-184" d="M68.92,67a11.2,11.2,0,0,1-4-4,1.79,1.79,0,0,1,2-2L67,61c4.8,2,7.29,6.36,10.4,10.09,0,2.44-1,2.53-2.63,1.17C72.73,70.54,71.12,68.43,68.92,67Z"/><path class="cls-185" d="M102.83,169c-2.46-.8-3.35-2.53-3-5,1.37-2.58,3.9-2,6.15-2.32,13.67-2,25.85-7.12,35.39-17.53,2.11-1.11,1.62,1.26,2.46,1.85l2.08,2.88c-1.2.75-1.08,2-1.19,3.17-8.52,8.41-19,13.27-30.44,16C110.66,168.88,106.87,171.39,102.83,169Z"/><path class="cls-186" d="M143.87,146l-2-1.94c-1.06.46-1.78-.16-2.51-.76-2.23-2-4.07-4.32-6.21-6.37-2.66-2.66-5.27-5.37-8-8-3.59-2.82-6.55-6.3-9.88-9.4-2.42-2.44-4.61-5.1-7-7.53-.85-1.5-1.62-3-.58-4.76,4.64-.22,6.35,4.27,9.76,6,3.62,3,5.39,7.9,10.2,9.57a6,6,0,0,1,3.82.26,4.52,4.52,0,0,1,1.1.74,2.61,2.61,0,0,1,.7,3c-1.21.78-.65,1.49.06,2.28,1.92,2.16,4.16,4,6,6.3a9.93,9.93,0,0,0,3.06,3.16,23,23,0,0,1,3,3.44,1.78,1.78,0,0,1-.32,1.88A2.14,2.14,0,0,0,143.87,146Z"/><path class="cls-187" d="M151.86,146l1.94,0,2.1,1.88c1.78,3.89,1.78,3.89-.06,5.11-3-2-6.05-3.82-8-7l.52-.43C149.7,144.36,150.51,147.5,151.86,146Z"/><path class="cls-32" d="M155.84,153c2.62-1.67-2.65-3.44.06-5.11,3.16.46,3.07,2.77,2.93,5.11C157.83,153.23,156.83,154.58,155.84,153Z"/><path class="cls-188" d="M145,143.91l-.19-1.87c0-1.71.84-1.76,2.07-1l1,.93,1,1c1.12,1.47.21,2.24-1,2.9l0,.13Z"/><path class="cls-189" d="M102.83,169a78.69,78.69,0,0,0,38.94-15.46c.93-.7,1.71-1.56,3-1.5.31,1.49-.32,2.78-.88,4.08l-1.89,2-.3.56-4,2.21c-.08,1.6-1.23,2.29-2.46,2.91a28.12,28.12,0,0,0-4.1,1.79c-1,.42-2,.93-3.08.53a2,2,0,0,0-2.26.72l-8,3.06-13.84,2.7C103.54,171.38,103.18,170.18,102.83,169Z"/><path class="cls-190" d="M147.11,154.93l-1.18,0c0-1.39-.7-2.87.43-4.19C147.65,152,146.62,153.6,147.11,154.93Z"/><path class="cls-191" d="M157.53,146c-.76-1.85-2.82-.31-3.87-1.48,4.47-.76,4.47-.76,6.2,2.43A2.5,2.5,0,0,1,157.53,146Z"/><path class="cls-192" d="M97.93,16c2.21.88,3.69-2.38,6-1,1.82-.16,3.94-1.64,5.09,1.16a6.57,6.57,0,0,1-5.11,0,9.82,9.82,0,0,0-4,4h0A71.79,71.79,0,0,0,100,36.83c.92,7.75.18,15.61.34,23.42a75.39,75.39,0,0,1-.22,9.74,4.69,4.69,0,0,1-.65,1.63,1.14,1.14,0,0,1-1.51.41Z"/><path class="cls-63" d="M108.94,15.91c-1.44-1.49-3.35-.71-5-1,0-.33,0-.67,0-1,3.41.19,6.88.07,9.86,2.18l-1.08.06C111.45,16.55,110.16,16.86,108.94,15.91Z"/><path class="cls-193" d="M108.94,15.91l3.8.22a9.46,9.46,0,0,1-8.85-.12Z"/><path class="cls-35" d="M116.86,13c-2.38,1.82-4.14.08-6-1l3-.09Z"/><path class="cls-194" d="M30.87,140q2,1.47,4,3c1.34-1,2.67-1.17,4,.08,0,.82-.12,1.59-1,1.94-1.7-1.91-3.87-.67-5.83-.86Z"/><path class="cls-195" d="M119.84,171c.45,1.4,2.21,2.94.19,4.16-.79.48-2.42-.36-2.75-1.52-.6-2.07,1.09-2.35,2.57-2.63Z"/><path class="cls-196" d="M111.75,174.87c-1.29-.11-2.91.89-3.75-1.27,1.83-1.12,2.91-.34,3.72,1.28Z"/><path class="cls-197" d="M128,166.1l2.65-1.22c2.2-.76,2.93,0,2.34,2.22C131.11,168,128.63,171.77,128,166.1Z"/><path class="cls-198" d="M133,167.1a2.21,2.21,0,0,0-2.34-2.22,6.26,6.26,0,0,1,4.23-2,2.35,2.35,0,0,1,.9,2.12c0,.35,0,.7,0,1.05Z"/><path class="cls-199" d="M126.82,174.07c0-1.45-.1-3,2-3C129.06,172.67,129,174.05,126.82,174.07Z"/><path class="cls-200" d="M135.81,165l-.9-2.12,2.76-2A4.22,4.22,0,0,1,140,163a3.28,3.28,0,0,1,.82,3C138.7,167.9,137.52,165.14,135.81,165Z"/><path class="cls-201" d="M141.69,158.66a.58.58,0,0,1,.3-.56c1,.5,3.8-1.69,2.84,1.86-.7.51-1.51,1.55-2.09,1.44C141.36,161.13,142.05,159.6,141.69,158.66Z"/><path class="cls-202" d="M140.81,166c-1.16-.74-.91-1.87-.82-3,1.2,0,2.3.37,2.47,1.71C142.6,165.85,141.55,165.82,140.81,166Z"/><path class="cls-203" d="M38.84,143l-4-.07c.42-4-3-6.12-4.64-9.11-5.53-10.22-9-21-9.41-32.67A6.47,6.47,0,0,0,19.88,99c0-.35,0-.69,0-1,.73-1.16,1.9-1,3-1a1.94,1.94,0,0,1,2.23-.14c2.4,2.41,3,5.53,3,8.69.17,11.59,5,21.44,11.17,30.82,1.14,1.73,3.11,3.13,2.6,5.64a2.16,2.16,0,0,1-1,2Z"/><path class="cls-204" d="M173.8,107.93c2.78,1.32,1.9,3.87,2.07,6.07l-2.09,7.91c-3.07,1.11-1.63-2.33-3-3,.07-2.2,1.18-4,2-6,1.27-1.5-.12-3.53,1-5.06Z"/><path class="cls-122" d="M173.82,107.94c-.15,1.72.7,3.64-1,5.06C172.83,111.25,172.41,109.41,173.82,107.94Z"/><path class="cls-205" d="M147.84,145.88c.33-1,.67-1.93,1-2.9l3,0a2.62,2.62,0,0,0,0,3c.47.81.95,1.61,1.67,2.84C150.93,148.52,150.1,145.73,147.84,145.88Z"/><path class="cls-206" d="M162.87,89.94l-1,0a1.89,1.89,0,0,1-1.3.48,9.68,9.68,0,0,1-4.13-1.21c-.49-.46-1.06-1-1.06-1.63.11-11.46-5-21-11.28-30-2.26-3.22-2.42-6,.77-8.63,9.33,9,13.33,20.88,17.57,32.58C163.33,84.09,162.76,87.14,162.87,89.94Z"/><path class="cls-207" d="M144.85,49c-1.84,3.12-1.72,5.89.83,8.76,5.85,6.61,7.81,15.13,11,23.07,1.08,2.71-1.42,5.48.2,8.15-4.15,1.52-6.45,1-6.86-2.47-1.35-11.19-5.89-21-12.38-30-.45-1.95.7-2.87,2.27-3.53l4.05-4C144.24,49,144.54,49,144.85,49Z"/><path class="cls-159" d="M161.77,49c2.14,1,2.73,2.9,3.06,5C162.86,52.93,162.27,51,161.77,49Z"/><path class="cls-166" d="M139.88,53l-2.07,3c-.63,2.61-3,3.84-4.54,5.76-3.91,3.87-7.78,7.78-11.66,11.67-2.11,2-4.13,4-6.16,6.11a17.34,17.34,0,0,1-2.62,2.29c-3.49.82-4.22-.79-2.88-3.61.9-1.9,2.74-3.16,4.18-4.69,4.54-4.36,8.91-8.91,13.41-13.31,1.29-1.25,2.36-2.83,4.3-3.23l6.93-6.1C138.87,51.71,139,52.56,139.88,53Z"/><path class="cls-181" d="M155.85,97h8c-3.4,1-3.9,3.78-5.44,6.66-3.59,6.71-1.56,15.62-8.44,20.8a2.25,2.25,0,0,0-.93,1.67c1.24,6-4.33,6.31-7.22,8.86a1.51,1.51,0,0,1-1.34.31,4.38,4.38,0,0,1-3.11-4.44c7.3-6.77,11-15.4,12.74-25,.54-3,1.57-5.73,4-7.76C154.63,97.67,155.31,97.47,155.85,97Z"/><path class="cls-208" d="M140.86,135h.95a2.19,2.19,0,0,0,1,2c.75,1.22.7,2.05-1,2.06a3,3,0,0,1-3.05-3C138.72,134.32,139.59,134.27,140.86,135Z"/><path class="cls-205" d="M141.8,139.06a2.14,2.14,0,0,0,1-2.06,9.09,9.09,0,0,1,4,4,2.14,2.14,0,0,0-2.07,1C142.94,141.88,142.58,140.27,141.8,139.06Z"/><path class="cls-209" d="M131.83,124.06c-.32,0-.64-.06-1-.11a3.33,3.33,0,0,1-.76-2c.91-3.89,4.67-6.36,4.92-9.93-1.3,3-2.63,6.7-5.89,9.16-1.67.39-2.78-.63-3.95-1.54a3.05,3.05,0,0,1-1-2,4,4,0,0,1,.35-1.47c1.88-3.68,4.44-7,5.5-11.12s.23-5.24-4.06-5.82c-3.53-.48-3.53-.48-3.51-3,2.86-.86,5.69-1.36,8.31.65l16,.08c-5.86,6.17-4.76,15.45-9.8,22C135.78,121.18,134.46,123.3,131.83,124.06Z"/><path class="cls-210" d="M135.86,119c2.72-5.72,5.5-11.44,6.1-17.87.28-3.09,3.28-2.72,4.88-4.11h9l-1,1c-5.82,1.82-7.51,6.46-8.58,11.86A41.53,41.53,0,0,1,140.13,124c-1.31,2.05-2.86,5-5.72,2.77-2.71-2.13,0-4,1.44-5.74a6.11,6.11,0,0,0,1-1.14C137.54,118.45,135.94,119.53,135.86,119Z"/><path class="cls-211" d="M161.85,91c1.49,1,.45,1.9-.14,2.81-6.22-.1-12.46.49-18.67-.4.83-1.62,2.28-.6,3.56-.88-1.65,0-3.23-.41-4.56.76-2.44,1.1-4.76-.58-7.17-.3-.17-2.18,1.34-3,3-3.13C145.91,89.49,153.94,89.17,161.85,91Z"/><path class="cls-212" d="M130.83,96.92l-9,0a3.81,3.81,0,0,1-3.3,1,5.3,5.3,0,0,1-1.74-.52c-1.18-.61-2.53-1.15-2.2-2.84a2.19,2.19,0,0,1,2.21-1.69c4.71-.14,9.52-1.43,14,1a25.91,25.91,0,0,1,8.46,1.49C136.29,96.74,133.25,94.94,130.83,96.92Z"/><path class="cls-213" d="M161.85,91q-11.16,0-22.32,0c-1.84,0-3.71-.13-4.66,2l-4,0-.42-.65a1.84,1.84,0,0,1,.83-2,25.13,25.13,0,0,1,4.65-1.47c3.75-.68,7.54,0,11.3-.39,4.48,1.06,9.11.78,13.63,1.44l1,.07A8.17,8.17,0,0,1,161.85,91Z"/><path class="cls-214" d="M130.86,93.94H115.29c0,.38-.06.75-.08,1.12L117.89,97a3,3,0,0,1-1.06.94c-1.38.49-2.77,1.19-4.12-.07a2.79,2.79,0,0,1-.3-1.53c.28-1.68.5-3.39,2.32-4.21,5.42-.37,10.89-1.64,16.15.86l0,.08C130.85,93.33,130.86,93.64,130.86,93.94Z"/><path class="cls-215" d="M142,93.27c1.85-2.69,4.47-.38,6.7-.7l-5.7.82Z"/><path class="cls-216" d="M25.87,94.06l1-.15c1.6-1.62,3.69-1.28,5.65-1.31,10-.15,20-.32,29.92-.07,4.69.52,9.53-.89,14.12,1A1.47,1.47,0,0,1,77,95.28c-1.26,2-3.29,2.06-5.28,2.06-13.41,0-26.81,0-40.22,0-1.64,0-3.35,0-4.6-1.37Z"/><path class="cls-217" d="M26.87,96q22.1,0,44.2,0c2,0,4,.13,5.78-1,1,3.34-1.68,3.09-3.53,3.68-7-.31-14.1-.18-21.15-.28a26.14,26.14,0,0,1-3.54,0c-4.15-.19-8.3.24-12.45,0-1.78,0-3.55.09-5.33,0-2.11,0-4.23.11-6-1.41l-2,0C23.92,95.54,25.49,96.13,26.87,96Z"/><path class="cls-218" d="M19.85,68c3.63-6.81,6.09-14.25,11.1-20.32,1.17-1.41,2.2-2.91,3.9-3.75l0,.18c1.25,1.75.24,3.24-.73,4.53C29,55.44,25.75,63.23,22.15,71c1.21-1.36.94-4.21,3.34-3.88,1.62.22,1.2,2.06,1.12,3.36-1.3,4.93-2,10-3.28,14.91-.38,1.44,0,3.51-2.44,3.55l-1-1a10.92,10.92,0,0,1-3.72-3.53c-1.07-4.88,1.12-9.26,2.16-13.81C18.71,69.66,17.78,68,19.85,68Z"/><path class="cls-219" d="M62.83,94l-35.93,0c-1.09-1.32-2.63-.78-4-1-.64-1.13.42-1.39,1-1.92,1.39-.15,2.94.4,4-1l.57-.57c2.57-1.17,5.25-.74,7.91-.57,1,.13,2,.5,3,.67a13,13,0,0,0,5.26-.59,39.37,39.37,0,0,1,7.44-.29A61.18,61.18,0,0,0,65,89.59c3.19.69,7.55-1.78,9.11,3.35C70.42,94.36,66.49,92.61,62.83,94Z"/><path class="cls-220" d="M43.88,47c3.2,1,4.6,4,6.92,6a3.66,3.66,0,0,1-1.11.8C45.3,56,43.33,60.3,41,64.16c-3.08,5.1-4.89,10.78-6.4,16.54A13.73,13.73,0,0,0,33.94,84c-.4,3.68-2.15,5.89-6.07,5.92v0l-1-.06a4.46,4.46,0,0,1-.16-5.83c3.11.49,2.35-2.3,2.6-3.59,1.79-9.07,6-17,10.89-24.69,1.28-2,3.66-3.49,3.24-6.37a3.12,3.12,0,0,1,0-2Z"/><path class="cls-220" d="M20.89,89c2.28-5.4,2.27-11.33,4-16.87a16.4,16.4,0,0,1,1-2.12c1-9,6.34-15.74,11.52-22.57,1.06-1.39,2.3-2.92,4.49-2.44a3.38,3.38,0,0,1,2,2l0,0c-4.65,6.76-10.17,12.94-13.11,20.85-2.13,5.75-3.61,11.66-5.18,17.55-.43,1.58-.42,3.31-1.7,4.57C22.77,90,21.59,90.17,20.89,89Z"/><path class="cls-150" d="M23.87,90c2-16.2,7.3-30.91,19-42.75.2-.2.63-.15,1-.22,0,.66,0,1.33,0,2,.65,1.57-.53,2.51-1.3,3.48A69.6,69.6,0,0,0,29.12,81.35,4.31,4.31,0,0,1,27.87,84c-1.81,1.74-.67,4-1,6Z"/><path class="cls-221" d="M17,84.86,19.91,88c-.7,1.86-.23,4.44-3.07,5-1-1.39-3.05-.51-4-2,0-.7,0-1.4.07-2.11,1.73,0,3.59,1.14,5.08-.36.22-.23-.75-1.64-1.17-2.5C16.38,85.55,16.44,85.17,17,84.86Z"/><path class="cls-58" d="M12.86,91c1.53.24,3.67-.73,4,2-1.5,0-3,.06-4.49,0-.78,0-2,.09-1.91-1C10.57,90.69,12,91.1,12.86,91Z"/><path class="cls-221" d="M23.87,91l-1,1.92c-.7-.16-1.85-.05-1.48-1.18S23,91.08,23.87,91Z"/><path class="cls-168" d="M17,84.86c-.05.38-.1.76-.16,1.14L12.9,84c-.08-.65-.17-1.3-.25-1.94-.61-3.09.78-5.57,2.41-8,1.31-1.26,2-3.06,3.4-4.2a1.3,1.3,0,0,1,1.29.08C18.66,74.87,16.64,79.65,17,84.86Z"/><path class="cls-222" d="M19.75,69.93c-.29,0-.57.09-.85.11-1,.63-2.07.87-3.07-.07L17,65.07l1.73-2.19q.59,2.55,1.15,5.09C18.77,68.57,20,69.29,19.75,69.93Z"/><path class="cls-223" d="M15.83,70,18.9,70c-1.1,1.51-.79,4.37-3.84,4,0-1-.07-2-.1-3Z"/><path class="cls-180" d="M92.78,31h-.92c0-2,0-4,0-6l.87-.06C92.75,27,92.77,29,92.78,31Z"/><path class="cls-224" d="M92.89,75h2.94l.66-.08a11,11,0,0,1,6.4,1.29c.81.38,1.61.77,2.42,1.13a7.1,7.1,0,0,1,4.82,5.41,1.94,1.94,0,0,1-1.09.84,4.32,4.32,0,0,1-1.39,0c-2.24-.42-3.84-1.87-5.45-3.32-.74-.66-1.73-1.47-2.66-.88-1.47.93-.2,2,.2,3a4.18,4.18,0,0,1,.4,1.43,5.56,5.56,0,0,1-2.33,2.58,2.26,2.26,0,0,1-2-.21c-.9-.4.15-4.46-2.63-1.38-1.2,1.32-3.08.8-4.53,1.49-2.62-2.94-5.89-1.45-9-1.32a3.76,3.76,0,0,1,1.24-4v0A3.41,3.41,0,0,1,83,79.1c1.46-.93,4.42,1.3,4.64-2.24A7.9,7.9,0,0,1,92.89,75Z"/><path class="cls-225" d="M92.89,75a6.08,6.08,0,0,1-5,2c-.93,1.67-2.17,2.82-4.28,2.45a2.56,2.56,0,0,1-1.23-.5c-1-1.25-2.15-2.4-1.72-4.22A3.9,3.9,0,0,1,83.45,73a17.62,17.62,0,0,0,3.76-1l.65,0a7.84,7.84,0,0,0,5-1C93.16,72.31,89.09,73.71,92.89,75Z"/><path class="cls-155" d="M97.91,72q.48,0,1,0c1.11.62,2.74,1.51,1.78,2.74-1.13,1.44-3.14.92-4.8.26h0q0-.49,0-1l.11-.11c.47-.64,1.38-.42,1.88-1Z"/><path class="cls-226" d="M97.82,72.93a1.65,1.65,0,0,1-1.88,1L95.85,7c1.64,1.47,1,3.41,1,5.15,0,18.54,0,37.08.06,55.62C96.9,69.51,96.22,71.45,97.82,72.93Z"/><path class="cls-185" d="M41.88,45C35.4,50.6,31,57.67,27.84,65.55c-.61,1.5-.63,3.26-2,4.43-.07-.64.07-1.44-.25-1.91-.63-.9-1.16,0-1.44.43C23.53,69.62,23,70.81,22,73a26,26,0,0,1,3.38-11.81c3-5.79,6.33-11.41,9.53-17.11,2.34,1.47,4.62-.63,6.94-.1C41.85,44.31,41.87,44.64,41.88,45Z"/><path class="cls-227" d="M98.86,61c0-11.94,0-23.88,0-35.82,0-1.75-.67-3.7,1-5.17,4,1.66-1.51,3.33,0,5V35c1.32,1.49,1.44,3.3,1.41,5.15.13,3.33.13,6.65,0,10a44.11,44.11,0,0,1-.06,7.27C101,58.9,101.12,60.76,98.86,61Z"/><path class="cls-228" d="M99.86,40V35a85.3,85.3,0,0,1,22.67,5.82c5.43,2.3,9.3,6,9.34,11.23l-1,1.94c-.5,1.15-1,2.28-2.52,2.37-3.67-2-6.5-5.51-10.93-6.21a1,1,0,0,1-.73-.63c-1.68-6.57-7.68-6-12.41-7.45C102.67,41.58,101.05,41.28,99.86,40Z"/><path class="cls-229" d="M128.75,55.94l2.09-2c.34,1,.67,2,1,3a180.86,180.86,0,0,1-17,17.06c-1.63,1-2.29.16-2.57-1.37,1.51-4,5.32-6,7.84-9.15C122.83,60.76,124.89,57.32,128.75,55.94Z"/><path class="cls-230" d="M91.82,163c0-3,0-6,0-9q0-5,0-10a4,4,0,0,1-1.62-3.61c.39-6.2.23-12.4.26-18.61,0-1.48,0-3-1.27-4-1.48-1.52-4.57-1.56-4.34-4.66,4.48.4,8.45-2.68,13-1.89a2.12,2.12,0,0,1,1.46,2.27,1.46,1.46,0,0,1-.91,1c-4,.66-1.15,3.55-1.74,5.31A3.26,3.26,0,0,1,96.2,121a4.37,4.37,0,0,1-1.1.7c-2.09,4.4-.44,9-.84,13.52.17,5.64,0,11.27,0,16.9,0,3.91.13,7.83-.11,11.74-.1,1.61.35,3.82-2.32,4.1Z"/><path class="cls-231" d="M91.85,167.93c2.16-5.2.48-10.64,1-15.94,2.18-2.5,2.74-.29,3.07,1.24a22.1,22.1,0,0,1,.09,7.35c-.41,3.44,0,6.9-.26,10.33-.13,1.63.2,4.05-2.88,3-.7-1.06-1.37.06-2.06,0-1.32-1.42-1-2.83,0-4.23A1.65,1.65,0,0,1,91.85,167.93Z"/><path class="cls-170" d="M90.88,169.72l0,4.23-1.12,1-2.83-1c0-.34,0-.69,0-1l1.1-1.6C88.7,170.4,89.43,169.42,90.88,169.72Z"/><path class="cls-232" d="M90.87,141c.33,1,.65,2,1,3-1.41,1.12-1,2.73-1,4.15.07,2.65-1.66,3.35-3.53,2.73-2.82-.92-5.53-2.17-8.34-3.14-7.73-2.66-15.87-4.95-22.15-10.75.07-2,1.43-3.08,3-4a3.89,3.89,0,0,1,2.45-1.61,4.47,4.47,0,0,1,3.91,1.76c3.56,4.18,8.44,4.57,13.38,5C83.48,138.45,87.47,138.58,90.87,141Z"/><path class="cls-171" d="M24.88,97h6a4.73,4.73,0,0,1,1.23,3.18c.41,12.89,4.91,24.3,12.48,34.61A5.64,5.64,0,0,1,45.88,138a10.67,10.67,0,0,1-4,4c-8.65-11.16-15.21-23.12-15.13-37.82C26.77,101.78,25.54,99.38,24.88,97Z"/><path class="cls-233" d="M45.88,138a57.56,57.56,0,0,1-15-41h5c1.7,2,1.86,4.61,2.15,7a56.29,56.29,0,0,0,9.8,26.37c1.05,1.5,2.21,3,1.73,5A2.24,2.24,0,0,1,47.84,137Z"/><path class="cls-234" d="M47.84,137l1-1.08c1-1.65,1-4.18,3.78-4.21A4.06,4.06,0,0,1,54.92,134l-1.16,1.83A6.1,6.1,0,0,0,49.84,139C48.5,139,47.9,138.23,47.84,137Z"/><path class="cls-235" d="M54.92,134a1.86,1.86,0,0,1-2-2c-.55-1.66,1-2.41,1.58-3.58,2.66-2.61,4.89-6,9.3-5.75a2.28,2.28,0,0,1,.7,1.24c-.49,4.12-3.3,6.31-6.67,8Z"/><path class="cls-236" d="M57.79,131.94c1.93-2.74,5-4.6,6.22-7.86a1.51,1.51,0,0,1,1.81-.54,2.72,2.72,0,0,1,1.4,1.47,4,4,0,0,1-.56,2.64,5.24,5.24,0,0,1-.85,1,17.7,17.7,0,0,0-2.33,2.25c-.49.42-1.13.61-1.6,1.06a2.06,2.06,0,0,1-2.05,1A2.16,2.16,0,0,0,57.79,131.94Z"/><path class="cls-237" d="M92.91,173.92c1.83-.17,2-1.47,2-2.89,0-5.83,0-11.66,0-17.49,0-1.53-.36-2.28-2-1.55q0-9,0-18c1.85-2.12.64-4.67,1-7,.31-2-.72-4.25,1-6,.3,0,.6,0,.9.07,1.71,1.51,1.42,3.58,1.43,5.5,0,5.57.09,11.14,0,16.71,0,.62-.06,1.24-.13,1.86.46,11.32-.8,22.58-1.21,33.88l0,0C91.67,179.13,93.22,176,92.91,173.92Z"/><path class="cls-238" d="M95.86,179q0-17,0-34c2.66,1.07,1.86,3.44,2,5.42.12,1.77-.1,3.55.18,5.32a4,4,0,0,0,.81,1.27c-.48,3.66,1.17,7.5-1,11v-5.76C95.81,167.7,98.32,173.57,95.86,179Z"/><path class="cls-239" d="M125.85,128l8,8c1.13,1.59,0,2.47-1.09,3.26-7.9,6-16.42,10.65-26.25,12.57-2.27.44-4.63.88-6.65-.88V141c5.31-2.24,11.23-2.59,16.36-5.47C119.83,133.48,123.64,131.82,125.85,128Z"/><path class="cls-240" d="M99.86,151c10.9.43,19.93-4.57,28.55-10.29,1.89-1.25,5-1.62,5.44-4.66q3,3.48,6.05,6.95c-7.16,2.4-11.76,9-18.81,11.57-6.85,2.52-13.48,6.15-21.22,4.43C99.87,156.31,99.86,153.64,99.86,151Z"/><path class="cls-241" d="M125.85,128c1.21,5-3.72,5.7-6,7-6.08,3.36-12.54,6.56-20,6V131c2.71-1.68,5.9-2,8.82-3.15,6.63-2.49,6.92-2.68,7.19-8.88Z"/><path class="cls-242" d="M99.87,159c10.07-1.3,19.56-4.14,28.14-9.82,2.21-1.46,3.56-3.7,5.93-5,2-1.13,3.77-1.79,6-1.14l1.94,1.06c-.67,6.35-6.71,7.51-10.69,10-8.42,5.27-17.59,9.25-28,9a11.46,11.46,0,0,0-3.31.94Z"/><path class="cls-243" d="M115.87,119c2.38,5.42,2.17,6.38-3.75,8.81-3.89,1.59-7.71,3.93-12.26,3.22,0-2,0-3.95,0-5.93-.11-4.66-1-9.71,5.81-10.62.46-.07.81-1,1.21-1.48,0-1.66.88-1.63,2-1C112.08,113.43,113.72,116.45,115.87,119Z"/><path class="cls-244" d="M108.9,112a2.19,2.19,0,0,0-2,1c-2.91-.37-5,2.42-7.93,2-.28-.18-.39-.37-.33-.59s.12-.34.2-.34a2.06,2.06,0,0,0-1-2c-2.16-1-4.35-.31-6.55-.26-1.91,0-4.86.56-4.21-3.18a4.64,4.64,0,0,1,2.1-.76c3-.28,6,.2,9-.7,3.07-.21,6.19.82,9.23-.33l.57.45C107.39,109,108.78,110.33,108.9,112Z"/><path class="cls-245" d="M98.81,114l.12.93q0,21-.1,42l-1,0c-1.2-11.85-.94-23.74-1-35.62.38-2.46-1.27-5.21,1.08-7.38Q98.38,114,98.81,114Z"/><path class="cls-246" d="M83.84,74l-3,1c-2.3-.33-2.89-2.44-4.08-3.93C72.84,68.36,70.4,64.17,67,61c2,0,3.31-1.47,4.67-2.51A37.53,37.53,0,0,1,90.86,51c0,5.22-.21,10.45.09,15.66.17,2.74-1,4.18-3.09,5.32h0C86.69,73,85,72.94,83.84,74Z"/><path class="cls-247" d="M51.87,90h-8c-2.4.51-2.49-1.5-3.14-2.89a6.18,6.18,0,0,1-1.87,3.8l-2-1c-.8-13.16,4.32-24.05,12.92-33.57a2.17,2.17,0,0,1,3.11-.4,32.19,32.19,0,0,1,7,7c-5.7,6.16-8.67,13.7-10.61,20.93-.71,1.23.48.94-.17.82-.17,0-.13-.18,0-.48.68-1.33,1.26-3.08,3.16-2.42,1.61.55,1.13,2.22,1,3.51C53.13,87,53.19,88.69,51.87,90Z"/><path class="cls-248" d="M51.87,90a19.45,19.45,0,0,1,1-7.76c-3.71,1.23-2.28,4.52-3.63,6.23-1.84-.48-1.45-1.92-1.28-2.87a46.53,46.53,0,0,1,9-21.11,3.81,3.81,0,0,1,3-1.51,32.86,32.86,0,0,1,7,7C64.46,75,60.3,79.29,59.21,85.49c1.41-1.24,1.31-3.73,3.36-3.33,1.53.3,1.17,2.12,1.45,3.36.75,3.18,3.26,1.89,5.23,2.08,1.75.16,3.63-2.27,5.24.29.17,2.24-1.12,2.6-3,2.63-2.21,0-4.48-.57-6.63.46A50,50,0,0,1,51.87,90Z"/><path class="cls-249" d="M73.87,87a14.25,14.25,0,0,1-2.48,1.62c-5.48,2.1-8.41.2-9-5.74-1.14.66-1.35,1.78-1.55,2.92s-.31,3.08-2.11,2.57c-1.58-.44-1.13-2.42-.79-3.47,1.81-5.64,3.84-11.22,9-14.92A62.42,62.42,0,0,1,76.87,80C78.06,83.3,76.43,85.34,73.87,87Z"/><path class="cls-250" d="M73.87,87c1-2.33,2.64-4.34,3-6.93a7.2,7.2,0,0,0,4,1A7,7,0,0,1,79.85,85a11.86,11.86,0,0,1,.13,2c-.12,5.13.61,5.72,5.28,4.35a2,2,0,0,1,1.41.32c1.24,2.66-1.3,4.08-2,6.1a6.3,6.3,0,0,1-.87,1,13.9,13.9,0,0,1-2,1.63,2.22,2.22,0,0,0-1.61,2.2c-.23,2.5.17,5.45-3.77,5.31-1.43-3.13-4-6-2.61-9.84.66-1.34,3.23-.79,3-3a4.68,4.68,0,0,0,0-1c-.76-1-2.18-.08-3-1-2.34-3.65-6-1.35-9-2,1.66-1.69,3.78-.92,5.68-.94C72.73,90,74.1,89.46,73.87,87Z"/><path class="cls-251" d="M52.91,56c-6.21,4.22-9.44,10.49-12.1,17.24-2.13,5.4-2.72,11.13-3.93,16.73l-9,0c5.63-1.14,3.89-6.71,6-10a1.5,1.5,0,0,1,.46.82c.18.44.36.47.4.17.77-6.53,4-12.12,6.94-17.78,2-3.89,4.09-7.9,8.18-10.2h.95Z"/><path class="cls-252" d="M76.81,71A9.55,9.55,0,0,1,80.89,75c.52,1.41,2.14,2.28,2,4-2.45.3-3.13-2.31-5-3a49.47,49.47,0,0,1-9-9c2.79.29,3.87,2.86,5.77,4.34C75.46,71.89,76.39,73.52,76.81,71Z"/><path class="cls-250" d="M77.91,76c2.29,0,3.11,2.33,5,3h0c.33.22.44.44.32.65S83,80,82.84,80L80.91,81C81.08,78.63,78.58,77.84,77.91,76Z"/><path class="cls-182" d="M135.86,119l2.67-1.51c-.07,2.45-1.53,3.79-2.87,5.21-1,1.06-2.59,2.28-.67,3.61,1.74,1.21,2.77-.54,3.48-1.73a61.29,61.29,0,0,0,7.34-17.22,5.37,5.37,0,0,0,.13-1c.32-5.62,3.09-8.62,8.91-8.38-3.71,4-3.44,9.51-4.92,14.32-1.72,5.58-4.74,10.42-7.51,15.42a7.33,7.33,0,0,1-4.57,3.25c-3,.37-4.87-.63-5-3.92l-1-3C133.17,122.37,134.51,120.67,135.86,119Z"/><path class="cls-244" d="M112.9,98l3.91-.94c1.48,1.82.49,3.72-.41,5.08-2.24,3.36-2,6.06,1.11,8.61a2.84,2.84,0,0,1,.84,2.28c-.23.76-.58,1.32-1.51,1L108,107.19l-.17-.23a1.33,1.33,0,0,1-.21-1.26c1-1.48,1-3.38,2-4.85.87-.89,1.78-1.74,2.67-2.62Z"/><path class="cls-253" d="M116.84,114l1-1c.95-.55,1.68,0,2.42.5a48.64,48.64,0,0,1,4.55,4.53l1,1c.51,1.73,3.55,2.44,2,5-3.28.73-4.31-2.35-6.11-3.88C119.81,118.44,118.45,116.07,116.84,114Z"/><path class="cls-254" d="M132.88,127.05c1,2.15,3,3,5,3.92.51,1.7,1.86,2.78,3,4a2.13,2.13,0,0,0-2.11,1.1c-2.39-2.3-4.89-4.5-7.11-7C130.6,128,129.79,126.15,132.88,127.05Z"/><path class="cls-255" d="M127.88,124l-2-5,3,2a2.28,2.28,0,0,1,2,1c0,.65,0,1.31,0,2A2.69,2.69,0,0,0,127.88,124Z"/><path class="cls-256" d="M120.8,64a40.12,40.12,0,0,1-7.9,8c-3.23,5-3.47,5.14-8.84,2.41-1.83-.94-4.13-1.24-5.12-3.43,0-3.34,0-6.67-.08-10,2.12-3.5.48-7.35,1-11,6.7-1.48,11.62,1.91,16.28,6C118.59,58.11,121.79,59.83,120.8,64Z"/><path class="cls-257" d="M98.94,71c1.51.61,3.24.93,4.51,1.88C107,75.5,110,75.49,112.9,72c0,1.34.71,1.93,2,2a35.18,35.18,0,0,0-4.1,4.65c-1.55,2.48-.45,3.19,2.08,2.34,4.3,2,4.48,5.77,4.43,9.7a2,2,0,0,1-1.93.92,5.11,5.11,0,0,1-2.63-1.22,5.18,5.18,0,0,1-.81-1.15c-.55-2.13-3-3.64-2.08-6.25a10.71,10.71,0,0,0-5.06-5c0-1.58-.67-1.89-2-1-2.19-1.16-4.91-.49-7-2,1.8-.21,5.06,1.06,3-3Z"/><path class="cls-232" d="M160.83,89.92h-14c-5.53-1-6.13-2.87-3.07-9.52-1.57.69-2.69,3.12-4.74,1.63-1.71-1.23-.69-3-.22-4.6.76-2.52-.43-4.5-1.58-6.57-1.75-3.16-4.5-5.89-4.37-9.88a16.38,16.38,0,0,1,5-5c4.66,6.26,10.4,11.85,11.13,20.36.28,3.33,2.09,6.35,2.12,9.93s3.51,2.48,5.79,2.73C158.22,89.12,159.76,88.54,160.83,89.92Z"/><path class="cls-179" d="M132.85,61c2.34,3.91,4.52,7.94,7.09,11.69,2.21,3.22-.86,5.83-.83,8.64,2.13.88,2.6-1.6,4.18-1.48,2.46,2.92-3.29,8.73,3.54,10.09l-12,.08c-3.29.24-6.44,2-9.86.94-2.66-2-.67-2.73,1-2.92,3.53-.39,2.78-1.76,1.68-4.18-1.8-4-4.46-7.33-6.87-10.88A89.74,89.74,0,0,1,132.85,61Z"/><path class="cls-258" d="M120.8,73c4.4.83,5.44,5.07,6.73,8.08,1,2.42,4.53,4.21,3.39,6.84s-5.08-.14-7.07,2.08c-4.69,2-6.54,1.44-7.31-3.24-.43-2.63-3.57-4.66-1.7-7.73A23.56,23.56,0,0,1,120.8,73Z"/><path class="cls-259" d="M114.84,79c.84,3,1.52,6,2.58,8.92,1.18,3.25,4.16,1.73,6.43,2l11,0c-1.06,1.4-2.62.83-4,1a21.75,21.75,0,0,1-14,0c-.83-3.52-1.46-7.13-4-10Z"/><path class="cls-260" d="M118.85,97h3c1.64,1.75,3.81,1.09,5.67.94,3.7-.31,4.66,1.38,4.36,4.69-.52,5.71-3.43,10.2-7,14.38-2.81,0-3.41-2.93-5.44-4C113,106.64,113,104.44,118.85,97Z"/><path class="cls-210" d="M130.85,122a2.07,2.07,0,0,1-2-1l7.87-12.69A40.24,40.24,0,0,1,130.85,122Z"/><path class="cls-255" d="M119.86,113c2.33.52,3.08,3,5,4,0,.34,0,.68,0,1-2.51-.29-3.76-2.15-5-4-.31-.23-.41-.46-.31-.68S119.76,113,119.86,113Z"/><path class="cls-261" d="M152.4,92.47a14.81,14.81,0,0,1,8.06,0A16.29,16.29,0,0,1,152.4,92.47Z"/><path class="cls-262" d="M119.86,113v1l-2-1a25.79,25.79,0,0,0-2.53-3c-2.32-2-3-3.81-.86-6.63,1.32-1.69,1.59-4.21,2.33-6.36l1.08-.07c.32,0,.64,0,1,0-.14.3-.26.61-.42.91C115.48,103.23,113.67,108.47,119.86,113Z"/><path class="cls-263" d="M116.87,91l14,0v1.93l-17,0c-.44-1-.92-2.12,1-2Z"/><path class="cls-264" d="M112.88,97c0,.32,0,.65,0,1l-.09,0c-3.11.38-5.65,1.34-6.21,5-.18,1.23-1.38,1.76-2.66,1.76a7.77,7.77,0,0,1-3.41-1.08,1.63,1.63,0,0,1-.81-1.79c3.31-2.28,4.59-5.35,3.63-9.3a2.81,2.81,0,0,1,.11-1.35,1.49,1.49,0,0,1,1.15-.65,5,5,0,0,1,1.91.8c1.75,2.26,4,.52,6,.73A4.53,4.53,0,0,1,112.88,97Z"/><path class="cls-259" d="M112.88,97a8.36,8.36,0,0,0-1-5c-.49-1.1.12-1.61,1-2a2,2,0,0,1,2,1,2.1,2.1,0,0,0-1,2C113.71,94.36,114.3,95.92,112.88,97Z"/><path class="cls-217" d="M73.86,93c1.08.07,2.29-.23,3,1l-14,0C66.37,92,70.21,93.59,73.86,93Z"/><path class="cls-228" d="M54.92,129.08c0,1.46-1.44,1.88-2,2.9-1.94.67-2.47,2.81-4,3.89-1.17-5.46-5.42-9.25-7.55-14.32-3.36-8-4.56-16.16-5.43-24.54h13c-2.49,2.9-2.1,6-1.12,9.45,1.71,6,3.61,12,7.22,17.21A4.15,4.15,0,0,1,54.92,129.08Z"/><path class="cls-256" d="M73.85,98c.34,3.53,3.05,6.34,3,10,.08,1.9-1.12,3-2.5,3.94-.79.51-1.6,1-2.4,1.49-.53.39-1.08.76-1.61,1.15-7.59,5.6-11.26,4.44-13.92-4.77A95.88,95.88,0,0,0,51.86,97C59.18,97.52,66.61,95.81,73.85,98Z"/><path class="cls-179" d="M51.86,97c4.48,2.25,4.17,6.76,5.14,10.7a30.33,30.33,0,0,0,1.83,5.15c2.32,5.11,4.55,5.53,9,1.92A48.67,48.67,0,0,1,71.9,112c1.39,2.63-.8,3.87-2.23,5.18a51.33,51.33,0,0,0-5.84,5.77c-3.86.76-5.9,4.16-8.91,6.15.09-1.56.48-2.89-.79-4.52-5.39-6.89-6.89-15.4-9.1-23.59-1-3.54,2.78-2.42,3.83-4Z"/><path class="cls-251" d="M38.88,90.9A17.81,17.81,0,0,1,41,83.34c1.63,2.29-.22,5.55,2.87,6.65C42.46,91.59,40.6,90.84,38.88,90.9Z"/><path class="cls-265" d="M37.59,92.56c-2.81.36-5,.94-8.47-.72C32.66,90.76,34.85,90.46,37.59,92.56Z"/><path class="cls-266" d="M27.87,84C29.32,71.67,34.29,60.89,42,51.32c.62-.77,1.22-1.55,1.83-2.33,3.54.86,1,2.46.25,3.43A96,96,0,0,0,32.67,72.67c-1.74,4-1.17,8.59-3.81,12.23a1.25,1.25,0,0,1-.35.23C28.3,84.75,28.08,84.37,27.87,84Z"/><path class="cls-267" d="M49.85,53C42.56,61.88,38,72.17,34.63,83.14c-1.28-1-.53-2.17-.76-3.15,1.7-10.09,6.7-18.56,13-26.42A2.07,2.07,0,0,1,49.85,53Z"/><path class="cls-268" d="M86.85,91.9c-2.85-.47-3.22,2.3-5,4-1.34-3.74-5.36-6.54-2-11,5-3.32,5-3.32,8.89,1.16,1.42,1.6.3,3.09-.2,4.61A2.2,2.2,0,0,1,86.85,91.9Z"/><path class="cls-269" d="M99.89,84a30.38,30.38,0,0,1-2.46-3c-.75-1.16-.06-2.29.68-3.16s1.89-.34,2.67.18c2.41,1.6,4.75,3.32,7.12,5-1,1.22-2.63,1.45-3.82,2.37a3.62,3.62,0,0,1-1.32.3A3.36,3.36,0,0,1,99.89,84Z"/><path class="cls-270" d="M103.89,85c.3-2.74,2.46-1.74,4-2l.9.07a5.49,5.49,0,0,1,1,2.22c1.41,5,.63,5.93-4.92,5.69l-1-.18a2.16,2.16,0,0,1-.92-1.64C102.93,87.66,103.89,86.41,103.89,85Z"/><path class="cls-271" d="M87.69,90.9c.35-1.59.71-3.18,1-4.77,1.64-1.66,4.68-1.86,5.15-4.82a3.6,3.6,0,0,1,1.76.25c1.83,1.27,1,2.83.28,4.34-1.31,1.8-4.31.87-5.25,3.27a6.82,6.82,0,0,1-1.74,2A1.34,1.34,0,0,1,87.69,90.9Z"/><path class="cls-272" d="M104.9,91c5.94-.35,3.9-4.63,3.9-7.91l1,0c.65,2.15,2.85,3.53,3,5.94-1.81,2.17-3.39,4.86-7,3Z"/><path class="cls-273" d="M89.87,89c.46-4.09,3.72-2.7,6.06-3.1l1.89,0c3.83-1.67,4.57-1.19,4.38,2.88C98.08,88.2,94,89.36,89.87,89Z"/><path class="cls-271" d="M101.87,89c.34-3.28-1.36-3.82-4.05-3a1.92,1.92,0,0,1,2.07-2l2.87,1.1c1.58,1-.05,2.83,1,4,0,.59.09,1.18.14,1.76,0,.36,0,.72-.08,1.08a.92.92,0,0,1-1.19.09C101.89,91.1,101.15,90.24,101.87,89Z"/><path class="cls-155" d="M102.83,77.05c-.07-.69-.92-1.64.33-1.93a2.66,2.66,0,0,1,2.77,1.58c.72,1.2-.44,1.16-1.15,1.35Z"/><path class="cls-252" d="M82.84,80c0-.32,0-.65,0-1,2.12.46,3.42-1.14,5-2C88.7,82.25,84.6,79.11,82.84,80Z"/><path class="cls-180" d="M83.84,74c.79-1.78,2.3-2.09,4-2C87.1,73.81,85.56,74.07,83.84,74Z"/><path class="cls-274" d="M120.8,64c-3.24-6.68-8.39-10.92-15.73-12.44-1.77-.37-3.47-1-5.2-1.53V40c4.79.32,9.29,1.87,13.75,3.46,1.61.57,5,.2,2.94,3.9-.51.93.9,2.13,1.63,2.1,5-.2,7.29,3.95,10.57,6.48Z"/><path class="cls-241" d="M61.88,132l.94-1c1-1,1.78-2.24,3-3h0c.94-1.17,1.66-2.61,3.34-2.94,1-.2,2.27-.37,2.87.28,4.14,4.5,9.48,3.15,14.57,3.33,2.35.09,2.8-.87,2.94-2.83.23-3.27-.67-6.58.29-9.82.55.31,1.58.6,1.59.93.27,8,1.42,16.09-.58,24.06-6.57-.51-13-2.59-19.65-2.19-2.08.13-2.47-2.46-4.13-3.3C65.24,134.53,64.38,132,61.88,132Z"/><path class="cls-275" d="M89.86,116c1.94,4.09.67,8.44,1,12.67.09,1.37-.47,2.2-2.1,1.75-2.93-.82-5.71-1.65-8.74.4-1.55,1-3.29-.61-4.74-1.83-1.82-1.53-3.49-3.63-6.38-3a2.39,2.39,0,0,1-.74-2c2.95-5.24,7.91-8.36,12.54-11.82a5,5,0,0,1,3.67.3l.52.53C85.92,115,87.81,115.62,89.86,116Z"/><path class="cls-276" d="M86.86,109c1.32,2.32,3.57,1.65,5.56,1.67s3.86-.17,5.44,1.27c-1,0-2.47-.39-2.89.1-3.15,3.68-6.69,1.45-10.12.91h0c-.77-.78-2.42-.44-2.55-2a3.91,3.91,0,0,1,1.43-3.18A2.63,2.63,0,0,1,86.86,109Z"/><path class="cls-277" d="M94.9,121c0,3.82-.07,7.65,0,11.48,0,1.56-.4,2.23-2,1.54,0-4.21-.09-8.42,0-12.62C92.93,118.71,93.9,119.47,94.9,121Z"/><path class="cls-238" d="M95.86,144l-.06-23c0-.37.07-.73.11-1.1,1.33,0,1.4.88,1.43,1.85,0,6.26.06,12.52,0,18.77C97.27,141.74,98.26,143.65,95.86,144Z"/><path class="cls-278" d="M96.86,121l-1-1.06a24.91,24.91,0,0,1-.91-4.66c0-2.21,1-3,2.94-1.31q-.06,3.51-.1,7C97.52,121.42,97.19,121.44,96.86,121Z"/><path class="cls-279" d="M63.83,122.93c-.46-2.73,1.71-3.72,3.33-5.11,1.93-1.65,4.33-2.94,4.74-5.84l2-1c1.06,1.13.24,2.43.36,3.65-2.35,3.51-4.27,7.4-8.41,9.29l-1.83.13Z"/><path class="cls-280" d="M65.84,124l8.11-9.9c2.83-2.56,4.38-6.55,8.58-7.57A1.86,1.86,0,0,1,83.81,108l-1,2.94a4.31,4.31,0,0,1-2,2l-12,11c-.56.53-.83,1.59-2,1.06Z"/><path class="cls-281" d="M65.84,128c-.68,1.32-1,3-3,3A2.9,2.9,0,0,1,65.84,128Z"/><path class="cls-281" d="M66.91,125l2-1.06c0,.66,0,1.33,0,2l-3,2C66.2,127,66.56,126,66.91,125Z"/><path class="cls-282" d="M96.86,121h1q0,18,0,36c-2.37-3.72.39-8.28-2-12,0-.33,0-.66,0-1,2.14-4.74.55-9.72,1-14.58C97.05,126.61,96.86,123.79,96.86,121Z"/><path class="cls-283" d="M83.81,108l-1-.94c-1.64-1.44-2.61-3.41-4-5.08-.15-2.41.6-3.45,3-2,2.37.6,4,2.35,5.9,3.72,1.33,1.53,2.75,3,1.15,5.22l-2,.06Z"/><path class="cls-284" d="M103.83,104c1.74-.1,1.93-1.35,2.14-2.72.67-4.37,3.22-5,6.84-3.28a2.82,2.82,0,0,1-2,3c-2.37.27-2.37.27-3,5.07q0,.47-.06.93c-2.69,3.19-5.9,1.35-9,.94a1,1,0,0,1,0-1.19,4.72,4.72,0,0,1,1.76-.85A9.52,9.52,0,0,0,103.83,104Z"/><path class="cls-285" d="M98.88,107c0,.31,0,.61,0,.91-3.16,1.9-6.64.8-10,1.07.37-2.08-1.1-3.41-2-5a3,3,0,0,1,3.79-1.39c1,2.51,2.62,4,5.6,3.38A2.63,2.63,0,0,1,98.88,107Z"/><path class="cls-286" d="M103,91.87a4.72,4.72,0,0,0,.84,0c-.45,1.61,3.48,1.92,1.55,3.19-2.78,1.81.6,8.2-5.52,7-2.39,2-5.12,1.43-7.82,1.06-1.35-.78-2.92-.07-4.18-.43-2.28-.66-5.93-.33-5-4.63q.46,0,.93-.06a2.34,2.34,0,0,1,2.6-.49c1.65,2.55,4,2.51,6.51,1.72a14.51,14.51,0,0,1,3.41-.39,9.68,9.68,0,0,1,1.32,0c1.43-.06,3.4,1,3.48-1.77a34.48,34.48,0,0,0,1.34-4.77Z"/><path class="cls-287" d="M78.84,102c1.88,1.26,3.88,2.42,4,5.08-3.73,1.33-4.77,6.08-8.85,7-1.28-1,.22-2-.06-3l3-3C78.63,106.37,79.9,104.58,78.84,102Z"/><path class="cls-273" d="M82.93,98c1.42,4.77,5.5,3.62,8.9,4,.25.91-.08,1.23-1,1l-4,1c-1.91-1-4-1.81-5-4A2,2,0,0,1,82.93,98Z"/><path class="cls-273" d="M86.83,97.93l-3,0c.11-2.45,2-4,3-6l.84-1,1.14.07C89.79,93.75,87.8,95.69,86.83,97.93Z"/><path class="cls-288" d="M107.89,106c-1.75-1.76-1.23-3.71-.22-5.48,1.19-2.07,2.44-2.24,3.17.41C108.85,102.06,111.19,105.69,107.89,106Z"/><path class="cls-289" d="M105.86,92c3,.56,4.56-2.2,7-3,0,.36,0,.71.08,1.06-.34.66-.69,1.31-1,2C109.87,97.32,107.86,92.81,105.86,92Z"/><path class="cls-290" d="M90.85,103l1-1h8.06l1,.95c.54,1.31,1,2.63,0,4l-2,.08c-1.47.09-3,.06-4.41.29C90.81,107.86,89.49,106.59,90.85,103Z"/><path class="cls-291" d="M100.88,106.91c-.11-1.32-1-2.63,0-4l3,1A2.65,2.65,0,0,1,100.88,106.91Z"/><path class="cls-292" d="M86.91,87.82a3.12,3.12,0,0,1-3.48,3c-1.58,0-3.61-.52-3.3-2.74.33-2.43,2.74-1.93,4.38-2.34C86.36,85.23,86.68,86.6,86.91,87.82Z"/><path class="cls-272" d="M103.8,89c-1.36-1.05-.76-2.62-1-4l1.13-.1C107,86.38,103.32,87.65,103.8,89Z"/><path class="cls-293" d="M86.83,97.93c-1.77-3,2-4.46,2-7,.35-.66.69-1.32,1-2,4-1.22,8-3.71,12,0,.38,1,.76,1.92,1.15,2.89l-.25.18a2,2,0,0,1-1.31.37c-2.08-.35-4-1.22-6.24-1.08-3.4.21-3.11,3.2-4.3,5.17-1.58,2.62,1.43,2.28,1.94,3.5C90.24,101.1,87.42,102.73,86.83,97.93Z"/><path class="cls-230" d="M80.83,112.93l2-2,2,2Z"/><path class="cls-294" d="M101.85,92q.47,0,.93.06c.93,1.87.35,3.47-.92,4.93-.13,2.6-2.44,2.29-4,3h-1c-1.52-1.46-4.92,1-5.3-2s2.53-4.3,4.71-5.69A5.59,5.59,0,0,1,101.85,92Z"/><path class="cls-295" d="M101.85,92c-4.51-.21-7.25,2.49-9.73,5.67,1,2.31,3.75.43,4.74,2.31l-4,0c-3-.09-5.65.7-2.76-4.36C93.67,89.39,94.72,88.33,101.85,92Z"/><path class="cls-295" d="M97.86,100l4-3C104.28,103,99.35,99.18,97.86,100Z"/></g></g></svg>