<svg xmlns="http://www.w3.org/2000/svg" viewBox="0 0 184.84 186.99"><defs><style>.cls-1{fill:#fdfdfd;}.cls-2{fill:#604929;}.cls-3{fill:#72532e;}.cls-4{fill:#5a4426;}.cls-5{fill:#5a4425;}.cls-6{fill:#543f23;}.cls-7{fill:#5c462a;}.cls-8{fill:#654c28;}.cls-9{fill:#685630;}.cls-10{fill:#574022;}.cls-11{fill:#5a4224;}.cls-12{fill:#5d431f;}.cls-13{fill:#684f27;}.cls-14{fill:#513e22;}.cls-15{fill:#4d3a22;}.cls-16{fill:#372d22;}.cls-17{fill:#71572e;}.cls-18{fill:#674f28;}.cls-19{fill:#af9560;}.cls-20{fill:#9d9053;}.cls-21{fill:#a0844f;}.cls-22{fill:#d4c288;}.cls-23{fill:#cfbb81;}.cls-24{fill:#c8b77d;}.cls-25{fill:#d5c389;}.cls-26{fill:#9e7f4b;}.cls-27{fill:#d7c58d;}.cls-28{fill:#dac98f;}.cls-29{fill:#c3b67e;}.cls-30{fill:#c2a970;}.cls-31{fill:#8a8575;}.cls-32{fill:#856239;}.cls-33{fill:#433b31;}.cls-34{fill:#674b2b;}.cls-35{fill:#372a1a;}.cls-36{fill:#58462b;}.cls-37{fill:#c0b277;}.cls-38{fill:#453625;}.cls-39{fill:#483a29;}.cls-40{fill:#382d21;}.cls-41{fill:#b3a66a;}.cls-42{fill:#372e26;}.cls-43{fill:#443525;}.cls-44{fill:#8a7d3f;}.cls-45{fill:#9a7644;}.cls-46{fill:#9f7b47;}.cls-47{fill:#987745;}.cls-48{fill:#c8b97d;}.cls-49{fill:#87663a;}.cls-50{fill:#ad8c56;}.cls-51{fill:#936f40;}.cls-52{fill:#88663a;}.cls-53{fill:#a07e4b;}.cls-54{fill:#836037;}.cls-55{fill:#987543;}.cls-56{fill:#785631;}.cls-57{fill:#856138;}.cls-58{fill:#8e713f;}.cls-59{fill:#d2be89;}.cls-60{fill:#775431;}.cls-61{fill:#bba26b;}.cls-62{fill:#bcab6e;}.cls-63{fill:#8c7042;}.cls-64{fill:#a79a5e;}.cls-65{fill:#a79058;}.cls-66{fill:#8b673b;}.cls-67{fill:#574523;}.cls-68{fill:#7b5e33;}.cls-69{fill:#7a5330;}.cls-70{fill:#926f41;}.cls-71{fill:#c2b17a;}.cls-72{fill:#44331e;}.cls-73{fill:#413325;}.cls-74{fill:#9e7a47;}.cls-75{fill:#906f3f;}.cls-76{fill:#624e29;}.cls-77{fill:#c2a76e;}.cls-78{fill:#3f301b;}.cls-79{fill:#cbb77d;}.cls-80{fill:#b0a467;}.cls-81{fill:#6f502e;}.cls-82{fill:#826337;}.cls-83{fill:#7d6136;}.cls-84{fill:#937444;}.cls-85{fill:#d3c38b;}.cls-86{fill:#c6ab71;}.cls-87{fill:#9c7e4b;}.cls-88{fill:#c9b77b;}.cls-89{fill:#372c20;}.cls-90{fill:#775b35;}.cls-91{fill:#72632b;}.cls-92{fill:#3d3a34;}.cls-93{fill:#a4864f;}.cls-94{fill:#3c342c;}.cls-95{fill:#826139;}.cls-96{fill:#967543;}.cls-97{fill:#272423;}.cls-98{fill:#b3a267;}.cls-99{fill:#dfd099;}.cls-100{fill:#503e24;}.cls-101{fill:#bca066;}.cls-102{fill:#beae71;}.cls-103{fill:#8c6a3e;}.cls-104{fill:#8f6d40;}.cls-105{fill:#cbb379;}.cls-106{fill:#8e7541;}.cls-107{fill:#5e4c2b;}.cls-108{fill:#9d998a;}.cls-109{fill:#7f673e;}.cls-110{fill:#423b30;}.cls-111{fill:#7a633e;}.cls-112{fill:#987443;}.cls-113{fill:#a8a495;}.cls-114{fill:#b0ab9c;}.cls-115{fill:#5c4930;}.cls-116{fill:#a6a295;}.cls-117{fill:#979283;}.cls-118{fill:#8a713f;}.cls-119{fill:#423930;}.cls-120{fill:#7d6238;}.cls-121{fill:#b6965d;}.cls-122{fill:#b09f61;}.cls-123{fill:#72502e;}.cls-124{fill:#4b4135;}.cls-125{fill:#65542c;}.cls-126{fill:#8f6d3f;}.cls-127{fill:#d5c28d;}.cls-128{fill:#977443;}.cls-129{fill:#342e28;}.cls-130{fill:#b5a66c;}.cls-131{fill:#8d6b3d;}.cls-132{fill:#594824;}.cls-133{fill:#dccd94;}.cls-134{fill:#b99d64;}.cls-135{fill:#a7844e;}.cls-136{fill:#645029;}.cls-137{fill:#7e5d36;}.cls-138{fill:#503f26;}.cls-139{fill:#3a2c1a;}.cls-140{fill:#977544;}.cls-141{fill:#b09f64;}.cls-142{fill:#979387;}.cls-143{fill:#655845;}.cls-144{fill:#49361f;}.cls-145{fill:#9b7b48;}.cls-146{fill:#6a4f2d;}.cls-147{fill:#b5a86c;}.cls-148{fill:#856339;}.cls-149{fill:#524025;}.cls-150{fill:#917943;}.cls-151{fill:#be9f66;}.cls-152{fill:#947343;}.cls-153{fill:#695d2a;}.cls-154{fill:#514738;}.cls-155{fill:#ba9e63;}.cls-156{fill:#d2bd84;}.cls-157{fill:#876138;}.cls-158{fill:#ac8b53;}.cls-159{fill:#463723;}.cls-160{fill:#81633b;}.cls-161{fill:#c5b77d;}.cls-162{fill:#9c8f52;}.cls-163{fill:#3d3a33;}.cls-164{fill:#594225;}.cls-165{fill:#382d17;}.cls-166{fill:#8f8546;}.cls-167{fill:#694c2b;}.cls-168{fill:#baa068;}.cls-169{fill:#8b693d;}.cls-170{fill:#b8a76b;}.cls-171{fill:#4f3e26;}.cls-172{fill:#b3955c;}.cls-173{fill:#decf96;}.cls-174{fill:#504537;}.cls-175{fill:#4b473f;}.cls-176{fill:#3d2e1c;}.cls-177{fill:#785b36;}.cls-178{fill:#3a332c;}.cls-179{fill:#3b2e1c;}.cls-180{fill:#424039;}.cls-181{fill:#47453e;}.cls-182{fill:#3b3932;}.cls-183{fill:#4d4b46;}.cls-184{fill:#413e39;}.cls-185{fill:#5f482c;}.cls-186{fill:#3a3731;}.cls-187{fill:#785b37;}.cls-188{fill:#7a6345;}.cls-189{fill:#725a3b;}.cls-190{fill:#403424;}.cls-191{fill:#c3bdaa;}.cls-192{fill:#b9b3a2;}.cls-193{fill:#927751;}.cls-194{fill:#bdb8a8;}.cls-195{fill:#b3af9f;}.cls-196{fill:#473722;}.cls-197{fill:#99968c;}.cls-198{fill:#8e897a;}.cls-199{fill:#7b613f;}.cls-200{fill:#7e5c35;}.cls-201{fill:#2f2a27;}.cls-202{fill:#3e3c35;}.cls-203{fill:#574e3f;}.cls-204{fill:#352f29;}.cls-205{fill:#44423c;}.cls-206{fill:#6b502f;}.cls-207{fill:#4f4c45;}.cls-208{fill:#494741;}.cls-209{fill:#564228;}.cls-210{fill:#846840;}.cls-211{fill:#494032;}.cls-212{fill:#c0a166;}.cls-213{fill:#312b27;}.cls-214{fill:#999484;}.cls-215{fill:#574e3d;}.cls-216{fill:#a6a294;}.cls-217{fill:#ded8c3;}.cls-218{fill:#b2ae9e;}.cls-219{fill:#d1ccbb;}.cls-220{fill:#c2bcab;}.cls-221{fill:#372917;}.cls-222{fill:#77603f;}.cls-223{fill:#322d27;}.cls-224{fill:#42403b;}.cls-225{fill:#83643b;}.cls-226{fill:#2c2112;}.cls-227{fill:#ddce95;}.cls-228{fill:#a6a395;}.cls-229{fill:#c1bbab;}.cls-230{fill:#c9c4b2;}.cls-231{fill:#999485;}.cls-232{fill:#d0cbb9;}.cls-233{fill:#aeaba0;}.cls-234{fill:#493a25;}.cls-235{fill:#9f7f4a;}.cls-236{fill:#795f3e;}.cls-237{fill:#846a48;}.cls-238{fill:#605541;}.cls-239{fill:#6a5728;}.cls-240{fill:#443b30;}.cls-241{fill:#7a5632;}.cls-242{fill:#938045;}.cls-243{fill:#8c693d;}.cls-244{fill:#c7c1ae;}.cls-245{fill:#d2ccba;}.cls-246{fill:#9f9a8c;}.cls-247{fill:#ada998;}.cls-248{fill:#bab5a3;}.cls-249{fill:#eae3ca;}.cls-250{fill:#8a6e47;}.cls-251{fill:#aca99f;}.cls-252{fill:#c0bcb0;}.cls-253{fill:#b7b4a9;}.cls-254{fill:#504d46;}.cls-255{fill:#56544c;}.cls-256{fill:#8a6a3f;}.cls-257{fill:#534027;}.cls-258{fill:#685032;}.cls-259{fill:#5d5a50;}.cls-260{fill:#9b7845;}.cls-261{fill:#775935;}.cls-262{fill:#5e5b52;}.cls-263{fill:#46443e;}.cls-264{fill:#56534a;}.cls-265{fill:#5d5a51;}.cls-266{fill:#4f4d45;}.cls-267{fill:#b6975c;}.cls-268{fill:#80613a;}.cls-269{fill:#4a4842;}.cls-270{fill:#514e47;}.cls-271{fill:#58554c;}.cls-272{fill:#403e37;}.cls-273{fill:#423422;}.cls-274{fill:#847f71;}.cls-275{fill:#cec8b4;}.cls-276{fill:#644f33;}.cls-277{fill:#57452d;}.cls-278{fill:#e4ddc8;}.cls-279{fill:#c9c4b4;}.cls-280{fill:#d4cebb;}.cls-281{fill:#d9d3bf;}.cls-282{fill:#514029;}.cls-283{fill:#55524a;}.cls-284{fill:#484640;}.cls-285{fill:#4f4d46;}.cls-286{fill:#5b584e;}.cls-287{fill:#42331f;}.cls-288{fill:#9c7d49;}.cls-289{fill:#9a7c49;}.cls-290{fill:#b19556;}.cls-291{fill:#8c6d40;}.cls-292{fill:#ebe4cc;}.cls-293{fill:#836946;}.cls-294{fill:#b8b4a8;}.cls-295{fill:#cbc5b4;}.cls-296{fill:#dcd6c0;}.cls-297{fill:#907754;}.cls-298{fill:#4c3b24;}.cls-299{fill:#88693f;}.cls-300{fill:#3a2d1b;}.cls-301{fill:#b5b1a1;}.cls-302{fill:#d7d1bf;}.cls-303{fill:#9e9c92;}.cls-304{fill:#868173;}.cls-305{fill:#e2dac3;}.cls-306{fill:#d5d0c0;}.cls-307{fill:#a98e54;}.cls-308{fill:#e7e0c7;}.cls-309{fill:#ded7c1;}.cls-310{fill:#846339;}.cls-311{fill:#9d7946;}.cls-312{fill:#b19257;}.cls-313{fill:#674d2c;}.cls-314{fill:#d9d3be;}.cls-315{fill:#e0dac5;}.cls-316{fill:#e6e0c9;}.cls-317{fill:#5f4728;}.cls-318{fill:#c9b067;}.cls-319{fill:#c5ae72;}.cls-320{fill:#d6c99f;}.cls-321{fill:#7e6139;}.cls-322{fill:#8d6c40;}.cls-323{fill:#5c5950;}.cls-324{fill:#9c7946;}.cls-325{fill:#8b7e67;}.cls-326{fill:#916f42;}.cls-327{fill:#554128;}.cls-328{fill:#d6d0bb;}.cls-329{fill:#3c2e1c;}.cls-330{fill:#e2dcc5;}.cls-331{fill:#e7e1c8;}.cls-332{fill:#392b1a;}.cls-333{fill:#a78e62;}.cls-334{fill:#bda87d;}.cls-335{fill:#e8e0c6;}.cls-336{fill:#918a78;}</style></defs><g id="Layer_2" data-name="Layer 2"><g id="Layer_6_Image" data-name="Layer 6 Image"><path class="cls-1" d="M102.92,0l2,1.91c-2.84,2.51-6.31,1-9.47,1.49-2.25.18-4.51.61-6.79.22a26,26,0,0,0-5.22-.34c-1.32-.1-2.64-.18-3.51-1.4l1-1.88Z"/><path class="cls-2" d="M11.81,48a.82.82,0,0,0,.24-.77c1.21-1.77,1.69-4.06,3.7-5.26l1.17-2.09A5.23,5.23,0,0,1,19,37.09h0c1.72-2.56,2.9-5.6,6-6.94l0,0a4.47,4.47,0,0,1,3-3h0A7.31,7.31,0,0,1,32.68,23l2.25-2.13A39.42,39.42,0,0,1,49,12L51,10.81C52.61,9.84,54.29,8.9,56,8a7.21,7.21,0,0,0,.93-.15,22.85,22.85,0,0,1,5.15-1.69v0c.73-1.15,1.83-1.1,3-.91a1.2,1.2,0,0,0,.87-.38c1.14-.41,1.78.21,2.3,1.1a3,3,0,0,1-1,2.51c-1.8,2.93-5.48,1.18-7.69,3.1-.53.43-1.07.83-1.63,1.21C52.92,16.2,47.35,18.4,42,21a7.11,7.11,0,0,0-4,2.85,9.39,9.39,0,0,1-.84.94c-.91.88-1.82,1.76-2.69,2.68-.44.48-.89.94-1.36,1.38-1.91,1.76-4.35,2.95-5.61,5.39A19,19,0,0,1,23.66,38c-1.72,1.19-2,3.38-3.36,4.83C15.55,48.48,12.46,55.08,10,62a17.27,17.27,0,0,0-2.52,8.77c-.34,1.33-.53,2.75-2,3.44a1.33,1.33,0,0,1-1.14-.62c-.67-1.48-.66-3.12-1.08-4.66a2.58,2.58,0,0,1,.52-2A18.39,18.39,0,0,1,7,58C7.6,54.19,9.6,51,11.81,48Z"/><path class="cls-3" d="M179.79,65.26l.33,3.78.06.65a21.12,21.12,0,0,1,.08,2.87,7.87,7.87,0,0,0,.09,1.28c.39-.32.26-1.14,1.06-1.08,1.54,1.44,1.13,3.45,1.53,5.22l.15,3c.55,1.27,1,2.53,0,3.79a.88.88,0,0,1-1.34,0c-.78-1.64.05-3.48-.7-5.71,0-.09-.27.58-.21.66,1.41,1.67-.45,4.26,1.59,5.83,2.19,4.45-.33,9,.05,13.44.18.66,1-.36.41,0-.22.15-.39,0-.34-.35.2-1.36-1.28-3.43,1.54-3.7a20.08,20.08,0,0,1-1,11c-.06,1-.12,2-.17,3a1.06,1.06,0,0,1-1.41-.22c-1.17-1.87-.92-4-1.11-6.06a25.36,25.36,0,0,1,.13-2.72c0-.4-.93.3-.32,0,.09,0,.11,0,.13.18a6.9,6.9,0,0,1-.51,3.81,2.54,2.54,0,0,1-2.35,1.54,2.1,2.1,0,0,1-2.27-1.54c-1.39-6.46-4.79-12.85-.8-19.53,1.55-1.42,1.89,0,2.36,1,.6,1.28-.29,3,1.27,4.12,1.66-4-1.17-7.26-1.47-11.59-.69,2.55,0,4.74-1.92,6.11-3.2-2-1.89-5.68-3.1-8.42-.29-1.29-1.26-1.51-2.38-1.49-.88.05-1.75.22-2.63.24a3.28,3.28,0,0,1-2.87-1.74c.75-2.31,2.82-2.28,4.67-2.66a6.68,6.68,0,0,1,1.34.12c1.17.24,2.41.75,2.92-1a6.66,6.66,0,0,1,1-3c.82-.63,2.58.38,2.63-1.56A5.26,5.26,0,0,1,178,61.75C180.34,62.05,178.85,64.27,179.79,65.26Z"/><path class="cls-4" d="M178,61.76c-.22,1.1.14,2.38-1,3.21A2.9,2.9,0,0,1,175,63.15a59.72,59.72,0,0,0-5-11.33c-3.18-4.72-5.43-10-9.34-14.26a19.54,19.54,0,0,0-3.4-4.13c-2.89-3.28-6.64-5.56-9.82-8.51a22.41,22.41,0,0,0-4.95-4.2c-1.27-.89-2.71-1.48-4-2.26-3.69-2.24-7.29-4.68-11.71-5.34a10.09,10.09,0,0,1-4.49-2.06,18.9,18.9,0,0,0-7.87-2.77c-2.18-.5-4.48-.65-6.38-2-.06-3.2,2.79-1,3.86-2.06L113,4c1.22.67,2.74,0,3.93.85l1.88.37c1.15-.1,2.26-.12,3,1,.39.9,1.2,1,2,1,5.49.48,9.91,3.28,14.09,6.57l1,.32a3.4,3.4,0,0,1,3,2h0a10.15,10.15,0,0,1,6,4.1A3.46,3.46,0,0,0,149.92,22a10.26,10.26,0,0,1,5.92,5h0a5.28,5.28,0,0,1,3,3l0,0c3.83,2.37,5.88,6.19,8.06,9.91.29.35.57.71.86,1.07a4.46,4.46,0,0,1,2,3.13,2.93,2.93,0,0,0,2,2.86c1.48,1.26,1.9,3,2.17,4.81l.08.1C176.56,54.75,178.17,57.9,178,61.76Z"/><path class="cls-5" d="M16.08,145.61a.44.44,0,0,0-.27-.62c-1.35-.43-1.36-1.79-1.92-2.78l-2-3.24C9.66,137.19,9,134.6,8.1,132.1a2.26,2.26,0,0,1,1.3-2.38,2.21,2.21,0,0,1,1.82.87c.95,1.44,1.13,3.3,2.46,4.53a10.51,10.51,0,0,1,1.21,1.54c.87,1.53,1.83,3,2.76,4.48.35.55.66,1.12,1,1.69a17.77,17.77,0,0,0,3.19,4,93.14,93.14,0,0,0,15.31,15.81c.72.51,1.42,1.05,2.09,1.61.5.4,1,.82,1.5,1.2,1.58,1.11,3.42,1.79,4.91,3,2.59,2.12,5.65,3.37,8.67,4.72,2.34.91,4.66,1.9,7,2.93,2.71,1.35,5.81,1.55,8.53,2.86a14.69,14.69,0,0,1,3.09,1.62c.69,1,.16,1.77-.62,2.44a1,1,0,0,1-1.26-.14l-.06,0c-1.92-.77-4.15.5-6-.88L62.83,181c-1.64-1.38-4.3-.24-5.68-2.27l-.06-.06c-2.43,0-4.21-1.48-6.1-2.7l0,0c-1.25-.77-3.05-.51-3.91-2h0a37.46,37.46,0,0,1-12.1-7.74L32.72,164c-5.44-2.8-8.51-8.07-12.7-12.18L18.85,150A9.77,9.77,0,0,1,16.08,145.61Z"/><path class="cls-6" d="M71.94,182.8l1-1.8c1.13-.71,2.36-.32,3.56-.33a26.46,26.46,0,0,1,5.1.41c.72.13,1.41.38,2.13.47a42.25,42.25,0,0,0,6.56,0,11.82,11.82,0,0,1,5.16,0,22.48,22.48,0,0,0,5.12-.06,23.68,23.68,0,0,1,5.15-.85,50.62,50.62,0,0,0,8.63-1.59c1.19-.5,2.39-1,3.7-.43.88.69,1.52,1.46.91,2.66-4.12,2.15-8.92,1.83-13.15,3.61l-.45-.15-.43.21a54.21,54.21,0,0,1-22,.16c-2.34-1-5,.38-7.32-1.07C74.47,183.32,72.89,184,71.94,182.8Z"/><path class="cls-7" d="M.12,85c-.19-.81-.26-1.58.63-2a4.34,4.34,0,0,1,.84-.64c.82-1.53.06-3.22.5-4.78.66-1.4.47-3.48,2.79-3.56l.17.09c1.32,1.43.78,3,.56,4.7-1,7.18-.78,14.44-1.18,21.64a13.18,13.18,0,0,1,.33,1.38c.59,2.19-.49,4.31-.26,6.48a7.58,7.58,0,0,1,.14,1.84,4.82,4.82,0,0,1-.31,1.17,5.71,5.71,0,0,1-1.31,2A.91.91,0,0,1,2,113.08l-.05-.15c-.53-1.61-1.39-3.16-.89-5,1-2.19-1.09-3.92-.89-6A36.41,36.41,0,0,0,.12,85Z"/><path class="cls-8" d="M138.82,172.74a17.88,17.88,0,0,0-6,3.09,12.31,12.31,0,0,1-6,2.93l0,0c-.4.77-1.11.78-1.84.73a3.81,3.81,0,0,1-2.27-1.64c0-1.43,1.13-2,2.12-2.64,4.33-1.43,8.18-3.88,12.28-5.82,1.55-.88,3-2,4.58-2.79a3.18,3.18,0,0,1,1.37-.09,3.28,3.28,0,0,1,2.18,1.62C144.15,171.17,141.46,171.92,138.82,172.74Z"/><path class="cls-9" d="M9.94,130c-.84.44-.94,1.26-1,2.07-3.06-.62-1.7-4.28-3.82-5.56q-.63-3.26-1.28-6.51a5,5,0,0,1-.85-3.14,16.09,16.09,0,0,1,.81-5.68L4,111c3.66,1.66,2.45,5.59,3.88,8.29.42,1.86,1.36,3.54,1.91,5.36.29,1.13.53,2.27.73,3.43A2.21,2.21,0,0,1,9.94,130Z"/><path class="cls-10" d="M167.72,145.87l-.85,1c-.73,1.75-1.57,3.37-3.86,3.29a2.07,2.07,0,0,1-.7-1.14,3.4,3.4,0,0,1,.18-1.34c1-1.71,2-3.42,2.94-5.19,2.12-2.9,3.43-6.28,5.45-9.24,1-1.54,1.42-3.55,3.22-4.56a1.83,1.83,0,0,1,1.58,1.38,3,3,0,0,1-.77,2.84c-1.23.23-.92,1.22-1,2-.3,1.82-.52,3.67-2.16,4.9-.66.94-1.31,1.88-2,2.81A4.14,4.14,0,0,1,167.72,145.87Z"/><path class="cls-1" d="M82.91,185.1l22-.16a5.8,5.8,0,0,1-4.87,2c-5.16,0-10.33,0-15.49,0C83.16,187,82.15,186.87,82.91,185.1Z"/><path class="cls-11" d="M.12,85c.44.21,1.27.41,1.27.63C1.49,91.11,3.88,96.8.12,102Z"/><path class="cls-1" d="M183.09,106c-.19-3.69,1.71-7.26.67-11-.94-1-.8-2.32-.84-3.57,0-2-.07-3.92.09-5.87,0-.24.07-.48.11-.73l0-3.75a2.9,2.9,0,0,1,1.71,2.3q.07,10.17,0,20.35A2.87,2.87,0,0,1,183.09,106Z"/><path class="cls-12" d="M83.93,2.14c1.76.06,3.7-1.11,5.19.77a2.8,2.8,0,0,1-1.53,1.83,38.2,38.2,0,0,1-8,1.6c-2.8-.18-5.69.56-8.35-.87A1.14,1.14,0,0,1,70.91,4a7.39,7.39,0,0,0,5-1C78.48,1.76,81.34,3.21,83.93,2.14Z"/><path class="cls-13" d="M94.05,2.14l10.87-.23,5,2.09c-1.32.7-2.74,1.16-4.07.29-2.48-1.61.3,1.92-1.2,1.18a4,4,0,0,1-2.12.55c-2.32-.39-4.64-.71-7-1C94.26,4.49,92.84,4,94.05,2.14Z"/><path class="cls-1" d="M20,151.82c5.07,3.19,8.3,8.3,12.7,12.18-1.24.86-2.11.25-3-.69C26.38,159.59,22.18,156.58,20,151.82Z"/><path class="cls-14" d="M175,130.08l-.9-1.12c-.68-.89-.15-1.71.16-2.55a15.73,15.73,0,0,0,1.61-6.35A7.07,7.07,0,0,1,177,116.9a7.84,7.84,0,0,1,1.76-2.09,2,2,0,0,1,2.4,1,.93.93,0,0,1-.33,1.19c-1.17.25-.82,1.3-1.08,2-.47,2-1.92,3.76-1.14,6-.05,1.56-2.35,2.16-1.71,4C176.47,129.73,176,130.48,175,130.08Z"/><path class="cls-1" d="M49,12,34.93,20.83A19.74,19.74,0,0,1,49,12Z"/><path class="cls-1" d="M137.91,13.8,123.82,7.23C127.84,6.26,135.57,9.85,137.91,13.8Z"/><path class="cls-1" d="M5.07,126.49c3.14.58,1.92,4.13,3.82,5.56.18,2.65,3,4.19,3,6.92C6.66,136.4,6.64,131,5.07,126.49Z"/><path class="cls-1" d="M105.8,184.88c4-2.47,8.82-2.46,13.11-4a.7.7,0,0,1,1,.35,2.41,2.41,0,0,1-2.19,2.29C113.77,184,109.78,184.42,105.8,184.88Z"/><path class="cls-1" d="M34.93,166.11c4.44,1.95,8.11,5.1,12.1,7.74A15.21,15.21,0,0,1,34.93,166.11Z"/><path class="cls-1" d="M178,61.76q-2-4.89-4-9.78c5.45,2.9,5,8.35,5.77,13.28Z"/><path class="cls-1" d="M163,150.26l3.85-3.34c-.74,4.84-3.79,7.89-7.88,10.13l-.32-.59C159.74,154.13,160.33,151.45,163,150.26Z"/><path class="cls-1" d="M166.89,40l-8.06-9.91C162.41,31,166.74,36.28,166.89,40Z"/><path class="cls-1" d="M138.82,172.74l6.3-4.71a2,2,0,0,1,.89-1.68,3.68,3.68,0,0,1,2.51-.66l.52.42C146.44,169.57,143.84,173,138.82,172.74Z"/><path class="cls-1" d="M11.81,48c-.94,3.67-3.2,6.69-4.85,10C6.28,53.55,8.18,50.35,11.81,48Z"/><path class="cls-11" d="M4.88,74l-2,4.1-.65.25a1.84,1.84,0,0,1-.93-1A5.72,5.72,0,0,1,1.88,74a.39.39,0,0,0,.23-.59C2.88,72,1.09,69.52,4,69,5.6,70.39,4.73,72.28,4.88,74Z"/><path class="cls-1" d="M182.94,78c-1.62-1.43-.18-3.94-1.88-5.34-1.37-.88-1.35-2.26-1.3-3.66l.36.06C184.7,70.87,182.87,74.72,182.94,78Z"/><path class="cls-1" d="M156,160.06c-1.22,3.28-3.24,5.64-7,6.05l-.14-.16c.29-4,3.7-4.79,6.48-6.22Z"/><path class="cls-1" d="M155.84,27.06l-5.92-5C153.82,21.44,155.29,23.71,155.84,27.06Z"/><path class="cls-1" d="M25.06,30.14a34.42,34.42,0,0,1-6,6.94C19.68,33.58,21.08,30.74,25.06,30.14Z"/><path class="cls-1" d="M147.81,20.19l-6-4.1C145.21,15.46,147.23,16.77,147.81,20.19Z"/><path class="cls-15" d="M119.92,181.18l-1-.35-1-1.7a2,2,0,0,1,.83-.9,11,11,0,0,1,2.37-.86,1.82,1.82,0,0,1,1.72.53l2,.94c-.33.94-1.41.55-2,1.1Z"/><path class="cls-1" d="M70.91,4a2,2,0,0,0-.33.93c-.34,1.6-1.24,2-2.68,1.26l-2-1.23C67.12,2.17,69.05,3.21,70.91,4Z"/><path class="cls-1" d="M180.83,117l0-1a3.46,3.46,0,0,1-.53-2.06c.46-1.56.22-3.41,1.81-4.53a2.39,2.39,0,0,0,.85-.37C183.26,111.91,183.83,114.9,180.83,117Z"/><path class="cls-16" d="M105,4.91c-.34-.35-.8-.64-1-1.06-.29-.67.29-.73.71-.63,1.73.42,3.4,1.2,5.25.78l1.88.18c-1,1.38-2.8.33-3.93,1.31C106.56,7.07,105.8,5.76,105,4.91Z"/><path class="cls-1" d="M3.79,117.34V120c-3.29-1.59-2.1-4.37-1.84-6.9a3.57,3.57,0,0,0,.78.26C4.15,114.39,3,116.13,3.79,117.34Z"/><path class="cls-1" d="M15.75,42c-1,1.91-1.66,4.08-3.7,5.26C13.17,45.38,11.3,41.45,15.75,42Z"/><path class="cls-1" d="M51,175.92c2.4.09,4,2,6.1,2.71C54,180.13,52.55,177.88,51,175.92Z"/><path class="cls-1" d="M32.68,23l-4.61,4.17C28.56,24.58,29.26,22.27,32.68,23Z"/><path class="cls-1" d="M175,130.08l2-1.1c1.32,2.32.8,3.72-2,4C174.92,132,174.94,131,175,130.08Z"/><path class="cls-1" d="M4,69c-1.77,1-.34,3.32-1.84,4.43C1.52,71,.68,68.45,3.81,67,3.85,67.66,3.9,68.32,4,69Z"/><path class="cls-1" d="M64.94,182c2,0,4.18-.67,6,.88C68.82,183.38,66.54,185,64.94,182Z"/><path class="cls-1" d="M57.15,178.68c2.08.29,4.15.6,5.68,2.27C60.76,180.65,58,182,57.15,178.68Z"/><path class="cls-1" d="M126.81,178.76l6-2.94C131.39,178,129.89,180,126.81,178.76Z"/><path class="cls-1" d="M173.94,51.88a9.91,9.91,0,0,1-2.17-4.81C173.86,48.06,175.58,49.21,173.94,51.88Z"/><path class="cls-1" d="M56,8A6.29,6.29,0,0,1,51,10.81C52.1,8.91,53.63,7.7,56,8Z"/><path class="cls-17" d="M83.93,2.14c-2.53,1.67-5.35.65-8,.85,1.13-1.15,2.72-.6,4-1.11Z"/><path class="cls-1" d="M16.08,145.61c1.2,1.28,3,2.18,2.77,4.36C16.07,149.69,15.79,147.83,16.08,145.61Z"/><path class="cls-1" d="M171.74,139.88a11.06,11.06,0,0,1,2.16-4.9C175.53,137.65,174,138.92,171.74,139.88Z"/><path class="cls-1" d="M19,37.09c-.23,1.29-.67,2.42-2.11,2.78C15.42,37.27,16.79,36.85,19,37.09Z"/><path class="cls-1" d="M62.09,6.19a5.25,5.25,0,0,1-5.15,1.69C58.11,5.64,60.1,5.91,62.09,6.19Z"/><path class="cls-1" d="M116.94,4.84c-1.4.13-2.82.33-3.93-.85C114.36,4.1,116.23,1.79,116.94,4.84Z"/><path class="cls-18" d="M178.61,125c-1.6-2.37-.24-4.18,1.14-6Z"/><path class="cls-1" d="M13.89,142.21c1.12.6,1.47,1.73,1.92,2.78-.84.38-1.71.88-2.41-.22S13.53,143,13.89,142.21Z"/><path class="cls-1" d="M1,108c1.17,1.5.91,3.25.89,5C.78,111.43-1.2,110.08,1,108Z"/><path class="cls-1" d="M1.88,74c0,1.3-.11,2.6-.16,3.9A1,1,0,0,1,.77,79C-.94,76.86.66,75.48,1.88,74Z"/><path class="cls-1" d="M158.81,30.08a7.52,7.52,0,0,1-3-3C158.17,26.76,159.17,27.75,158.81,30.08Z"/><path class="cls-1" d="M28.06,27.14l-3,3C24.67,27.72,25.67,26.73,28.06,27.14Z"/><path class="cls-1" d="M169.79,44.21a5.1,5.1,0,0,1-2-3.13C170.06,41.06,171,42,169.79,44.21Z"/><path class="cls-1" d="M71.94,182.8c1.13.66,2.8-.25,3.65,1.23-1.82.82-3.29.18-4.61-1.09A4.45,4.45,0,0,0,71.94,182.8Z"/><path class="cls-1" d="M122.92,179.94l2-1.1,1.91-.06C126.12,181.26,124.63,180.94,122.92,179.94Z"/><path class="cls-1" d="M47,173.86c1.62.08,2.75,1.09,3.91,2C49.37,175.76,47.19,176.75,47,173.86Z"/><path class="cls-1" d="M167.72,145.87a5,5,0,0,1,2.05-3.18C170.94,145,170.14,145.93,167.72,145.87Z"/><path class="cls-1" d="M141.84,16.08l-3-2C140.94,13.13,141.63,14.24,141.84,16.08Z"/><path class="cls-1" d="M121.8,6.23c-1-.37-2.28.2-3-1C120.65,3.1,121.17,4.83,121.8,6.23Z"/><path class="cls-1" d="M65.06,5.3c-.76,1.06-2,.63-3,.91C62.67,4.61,63.33,3.22,65.06,5.3Z"/><path class="cls-19" d="M.77,79l1-1.08a.49.49,0,0,1,.53,0c.09,1.66.64,3.36-.38,4.93L.76,83C.76,81.63.77,80.31.77,79Z"/><path class="cls-1" d="M159,157.05a3.08,3.08,0,0,1-3,3l-.17-.18c-.13-2.1.9-3.07,3-3Z"/><path class="cls-20" d="M94.05,2.14c-.06,1.42.86,1.86,2,2,1.24.52,3,.67,2.06,2.79-1.17.77-2.25.12-3.36-.19-1.28-.52-2.66-.66-4-1.07A5.08,5.08,0,0,1,87.88,4l1.24-1Z"/><path class="cls-21" d="M58.84,10.89c1.9-3.12,6.06-.29,8.08-3.09a1,1,0,0,1,1.21.12c.76,1.34.47,3,1.28,4.32,2.61,1.43,5.67-.25,8.26,1.24a1.68,1.68,0,0,1,.64,1.22,2.85,2.85,0,0,1-1.22,1.77,7.4,7.4,0,0,1-2,.77c-2.07.5-4.15,1-6.19,1.56a8.26,8.26,0,0,1-2.15.3C62.25,16,58.9,20.49,54.94,20.83a3,3,0,0,1-2.09-.66c0-4.24,4-3.57,6.27-5,1.62-.59,2-2.41,3.31-3.52C61.1,11.8,59.72,12.27,58.84,10.89Z"/><path class="cls-22" d="M60,16c-2.22,1.61-5.65,1-7.13,3.95-.48,1.86-2.19,2.31-3.6,3.11a5.84,5.84,0,0,1-5.46-.28c-1.06-.74-2.91-.67-2.79-2.66L57.84,12c.83-.46,1.48.25,1.07.67C57,14.59,59.58,14.92,60,16Z"/><path class="cls-23" d="M19.87,42c1.43-1.35.52-4.2,3.08-4.84,1.13,1.1,2.26,2.19,2.24,3.94-.62,5.27-3.39,9.64-5.87,14.14-.63,1.14-1.05,2.41-2.38,3a1.44,1.44,0,0,1-1.25-.25,27.87,27.87,0,0,0-2.1-5.39C16.67,49.6,17.07,45.07,19.87,42Z"/><path class="cls-24" d="M6.89,71c-1.13-3.42-.07-6.35,2-9.05,1.65-1.82,2.11-4.41,3.87-6.16,1.78-.37,2.12,1.34,3.1,2.12l.18.23c2.2,3.61.31,5.35-3,6.48-2.42.92-3.51,2.59-2.87,5.21a1.64,1.64,0,0,1-.88,1.68A3.18,3.18,0,0,1,8,71.67,2.12,2.12,0,0,1,6.89,71Z"/><path class="cls-25" d="M24.87,41.14c-.81-1.26-2.38-2.15-1.92-4L26.7,33.9a14.92,14.92,0,0,1,5.77-4.23,1.28,1.28,0,0,1,1,.81c.13,3.17-3.14,4.79-3.53,7.72a20.57,20.57,0,0,1-1.4,3.15C26.22,43.81,26.07,43.8,24.87,41.14Z"/><path class="cls-19" d="M6.89,71H7.94c1,2.47-.4,4.71-.63,7.06C6.7,81.9,5,85.72,7.07,89.63A3,3,0,0,1,7.4,91a13.16,13.16,0,0,1-.81,2.75C5.05,96.27,6,99.62,3.91,102c-2.32-4.86.19-9.84-.33-14.82-.45-4.28.91-8.75,1.47-13.13Z"/><path class="cls-26" d="M13,56c-.82,2.36-1.76,4.64-4.09,6,2.44-7.32,5.36-14.39,11-20,.08,2.62-3.65,4.35-1.36,7.84.72,1.12-3.93.68-4.69,3.12A3,3,0,0,1,13,56Z"/><path class="cls-27" d="M60,16C56.82,16,56.81,14.22,57.84,12c.33-.36.66-.71,1-1.06h6.21C62.25,11.7,62.62,15.5,60,16Z"/><path class="cls-28" d="M32.81,27.81l.91-1a4.76,4.76,0,0,0,3.11-3h0c2-.34,2.06,1.65,3,2.57.85,1.43,2.25,2.7,1.28,4.63C38.2,32.24,35.58,31,32.93,30h0A1.68,1.68,0,0,1,32.81,27.81Z"/><path class="cls-17" d="M67.91,8l-1-.18,1-1.65,2.68-1.26,9.49.2C76.73,9.05,72.31,8.49,67.91,8Z"/><path class="cls-29" d="M38.89,27l-2-3.11A5.4,5.4,0,0,1,41,20.13l3,1.73a2.22,2.22,0,0,1-1,1.61c-.53.34-1.1.61-1.65.9C40.25,25,40,26.38,38.89,27Z"/><path class="cls-30" d="M32.81,27.81c0,.73.09,1.46.14,2.18L26.7,33.9C27.65,30.78,30.75,29.81,32.81,27.81Z"/><path class="cls-30" d="M36.83,23.9c.05,2.13-.93,3.17-3.11,3Z"/><path class="cls-31" d="M163.91,72.8l3,1.11c1.64,1,2.08,2.68,2.44,4.4,1.64,5.48.79,11.11,1,16.67.11,2.45-.35,4.93.36,7.36a5.93,5.93,0,0,1-.12,3.26c-1.78,2.56-2,5.94-4.21,8.28-1.54,1-3,1.52-3.78-.88,3.63-12.92,2.68-25.72-1.07-38.45A2,2,0,0,1,163.91,72.8Z"/><path class="cls-32" d="M174.9,84a31.2,31.2,0,0,0,1,18c.36,1-.13,2.55,1.47,2.69,1.44.13,2-1.22,2.19-2.29.37-1.74.42-3.54,1.43-5.34v6a2.11,2.11,0,0,1,.13,2.19c-.69,1.64-1.74,3.09-2.13,4.91-.44,2.07-1.83,3-4,2.31-3.3-2.44-1.07-6.11-1.85-9.14A23.1,23.1,0,0,0,170.94,97c-.88-6.52-.69-13.14-1.93-19.64-.5-2.66.43-4.74,3.89-3.4.35,3.4.54,6.83,2,10Z"/><path class="cls-33" d="M172.9,74c-4.83,0-3.06,3.64-2.71,5.74,1,6,2.12,12,1.58,18.17a5.39,5.39,0,0,1-.26,3.27,3.73,3.73,0,0,1-1.62,2.06c-2.08-2.49-.73-5.39-.86-8.08-.29-5.75.28-11.54-1-17.22,1.06-1.48-.83-3.52.9-4.87C170.28,73.18,171.84,72.53,172.9,74Z"/><path class="cls-34" d="M174.9,84c.25-2.81-.78-5.89,2.68-9.65-.57,6,3.68,9.74,1.86,14.75-.28.78,1.23,2.66-1.33,2.07-1.46-.33-3-.16-2.35-2.57.37-1.48.72-3.32-.86-4.61Z"/><path class="cls-35" d="M163.91,72.8l-2,1.19c-.93,1.14-2.3,1.52-3.56,2.1a32.06,32.06,0,0,1-5.42,1.59,4.56,4.56,0,0,1-2.2-.16c-1.1-.62-2.38-1.12-1.86-2.81,2.38-2.14,5.53-2.66,8.29-4,2.32-.78,4.6-1.85,7.08-1.88,1.78,0,4.06-.67,4.62,2.15Z"/><path class="cls-36" d="M168.86,71c-4.25-2.65-8,.4-12,1a1.93,1.93,0,0,1-.46-2,4.25,4.25,0,0,1,1.44-1.68,8.57,8.57,0,0,1,4.84-1.37c3.73,1.59,7.05-.46,10.53-1.18l.62.31V70.1a2.7,2.7,0,0,1-3.95.9Z"/><path class="cls-37" d="M175.92,63,177,65c-.25,1.17.57,2.91-.85,3.41-1.74.61-1-2-2.31-2.34l.06-.1c-1.79-.76-3.53-.34-5.28.21-2.19.68-3.6.2-3.34-2.49a3.37,3.37,0,0,1,.85-1.34C169.56,60.4,172.9,59.4,175.92,63Z"/><path class="cls-38" d="M183.76,91v3.91c-1.42,1.35-.4,3.42-1.84,4.91V85l0,0,1.22-.24,0,.11C183.86,86.87,182.88,89.05,183.76,91Z"/><path class="cls-39" d="M180.8,105.07c.06-.66.12-1.32.17-2,1.79,1.84.44,4.22,1.1,6.26-.31,1.61.35,3.43-1,4.82-1.21-.77-1.51-2-1.82-3.29C178.9,108.71,179.89,106.9,180.8,105.07Z"/><path class="cls-40" d="M179.76,69c.75,1.11,1.55,2.2,1.3,3.66-.1,1.13-.21,2.25-.31,3.38C180.16,73.68,177.78,71.59,179.76,69Z"/><path class="cls-41" d="M178.5,93.26c-.35,1.14-1,1.72-1.87,1.45-.5-.16-1.22-.9-1.17-1.3a1.48,1.48,0,0,1,1.78-1.26C177.75,92.26,178.14,92.92,178.5,93.26Z"/><path class="cls-42" d="M168.9,73.06c-.23,1.63.63,3.48-.9,4.87-.37-1.34-.74-2.68-1.1-4A1.89,1.89,0,0,1,168.9,73.06Z"/><path class="cls-43" d="M181.92,85c-1.75-1.82-.79-3.9,0-5.93v6Z"/><path class="cls-44" d="M169.93,71l3.95-.91C173.13,72.86,171.63,72.34,169.93,71Z"/><path class="cls-45" d="M147.86,24.06c3.45,2.87,7.46,5.1,10.06,8.93l-.56.41c-3.13.49-4.4-3.43-7.53-3.19,1.29,4.18,5.24,5.9,7.82,8.83.7.93,1.71,1.71,1.51,3.09a4.23,4.23,0,0,1-5.78,1.71A4.8,4.8,0,0,1,151,41.1c-.45-1.91-.71-3.89-2.69-5-3.22-1.86-3.75-4.76-3-8.11A8.58,8.58,0,0,1,147.86,24.06Z"/><path class="cls-46" d="M122.88,10.05a6.19,6.19,0,0,0,4,2c3.4,2,7.48,2.69,10.38,5.6A4.94,4.94,0,0,1,136.25,21a1.61,1.61,0,0,1-1.31.28c-1.64-3.15-4.86-1.36-7.21-2.29-1.26-.4-2.51-.85-3.79-1.23-3.62-.26-4.58-2.56-4.38-5.74a2,2,0,0,1,.26-1.27A2.93,2.93,0,0,1,122.88,10.05Z"/><path class="cls-47" d="M158.87,42.07l-2-2c.76-1.54,3.6-.33,3.68-2.78l.48-.41c4.76,3.7,6.35,9.59,9.82,14.19.7,1,.94,2.17-.18,2.92-.87.59-1.84,0-2.63-.58-1.18-.86-1.51-2.48-2.84-3.21-.38-.25-.75-.53-1.12-.81-2.18-.81-.42-5.3-4.27-4.55a3,3,0,0,1-1.21-.74A1.74,1.74,0,0,1,158.87,42.07Z"/><path class="cls-48" d="M135.06,21.21a5.08,5.08,0,0,0,.86-.19c2-2.55,4.47-2.08,7-1.09a12,12,0,0,1,4.92,4.13c.34,1.83-.73,2.84-2.12,3.67-2.47,0-2.27-3-4.14-3.58-1.33-.66-2.25,0-3,1-.93,1.42-.93,4-3.73,3.08A3,3,0,0,1,134,27a8.15,8.15,0,0,1,0-4.59A2.36,2.36,0,0,1,135.06,21.21Z"/><path class="cls-49" d="M164.91,49c2.3-.07,2.42,2,3.48,3.29,1.69,2,2.62,1.13,2.49-1.24a45.37,45.37,0,0,1,5,11.92c-3.24-1.89-6.48-1.34-9.72,0l-.47-.51c.3-2.6,3.05-2.05,4.61-3.6C167.82,56,163.67,53.88,164.91,49Z"/><path class="cls-50" d="M105,4.91l2.92.58,7,1.52a4.79,4.79,0,0,1,2.38,3.05,3,3,0,0,1-.78,1.86,5.81,5.81,0,0,1-2.14,1.83c-1.7.48-3.33.59-4.66-.88.07-3.85-3.43-4.1-5.68-5.61a4.89,4.89,0,0,1-1.09-.84,1.15,1.15,0,0,1-.07-1.27Z"/><path class="cls-51" d="M136.92,18c-2.79-2.9-7.4-2.75-10-6A22.87,22.87,0,0,1,139,18,1.48,1.48,0,0,1,136.92,18Z"/><path class="cls-52" d="M116.92,10l-2-3c2.73.83,5.59,1.28,8,3l-3,1C118.57,11.7,117.74,10.9,116.92,10Z"/><path class="cls-53" d="M136.92,18l2,0a7,7,0,0,1,4,2,15.46,15.46,0,0,0-7,1.09C136,19.91,135.74,18.72,136.92,18Z"/><path class="cls-47" d="M157.92,33a6,6,0,0,1,3.14,3.87l-.23.2c-2.56-.08-3.79-1.22-3.1-3.89Z"/><path class="cls-54" d="M81.92,182,76,181.8c-1-1.24-1-2.27.6-3-.87-1-2.16-1.12-2.76-.18-1.06,1.66-2.12,2.34-3.93,1.37-3-1-6.31-1.05-9-3,.11-3.75,2.84-4.52,5.23-3.2s1-1.25,1.82-1.07c4.13-.5,7.88,1.62,12.32,1.71-.22-1-2.72-1.7-.89-3.06a9,9,0,0,1,6.93-.1c2.08,2.09.19,3.73-.61,5.49A10.08,10.08,0,0,0,81.92,182Z"/><path class="cls-55" d="M37,163.87C30.81,159,25.09,153.72,20.87,147a6.82,6.82,0,0,1,2-2.69c3.53-1.71,5.16.68,6.49,3.21A22.82,22.82,0,0,0,38,156.67,20.71,20.71,0,0,1,37,163.87Z"/><path class="cls-56" d="M67.92,173v3.27c-2.9-2.94-5.2-2.64-7,.74l-7-3c0-5.16,3.92-4.06,6.94-4.44C63.53,170,67,168.86,67.92,173Z"/><path class="cls-57" d="M60.93,171c-2.82-.1-5.77-.49-7,3-3.3-1.13-6.63-2.21-9-5a16.53,16.53,0,0,1,7-2.87C55.16,167.24,59.38,166.6,60.93,171Z"/><path class="cls-58" d="M51.93,167c-2.25,1-4.29,2.72-7,2-1.64-1-3.66-1.43-4.94-3,1.49-1.67,3.73-1,5.5-1.79,2.36-.36,3.62-3.1,6.24-2.9a1.9,1.9,0,0,1,1.5,1.28C52.75,164,53,165.68,51.93,167Z"/><path class="cls-59" d="M9.94,130l-.12-2,.63-.3c2.28.33,3.11,2.55,4.8,3.66a28.52,28.52,0,0,1,3.94,3.75c.49,1.72,1.47,3.92-.6,4.82-2.43,1.07-2.95-2-4.44-3l-1-1c-1.19-1.37-1.06-3.35-2.21-4.74Z"/><path class="cls-60" d="M69.89,180c.65-.08,1.66.09,1.9-.27,2.45-3.69,3.68-3.79,7.5-.35-.8,1.22-4.22-1.06-3.31,2.4l-3-.8C71.83,180.94,70.66,181.11,69.89,180Z"/><path class="cls-61" d="M14.15,136.91c1.77.07,2.15,2.48,4.23,2.32,1.3-1.15-.68-2.95.46-4.25l.59-.34a2.14,2.14,0,0,1,1.26.44c1.32,1.41,2.25,3,1.69,5a5,5,0,0,1-1.33,1.69c-1.3.94-2.62,1.27-4,.16C15.88,140.38,14.6,138.88,14.15,136.91Z"/><path class="cls-62" d="M37,163.87a6.13,6.13,0,0,1,.73-6.94c-.09-1.53,1.07-2,2.15-2.56a4,4,0,0,1,2.13-.13,2.49,2.49,0,0,1,1.14.78,2.93,2.93,0,0,1-1.43,2.84c-2.38,1.76-2.37,3.95-1.44,6.39-.22.76-.56,1.3-1.46.82Z"/><path class="cls-63" d="M22.94,145a1.87,1.87,0,0,1-2.07,2,5.33,5.33,0,0,1-3-3.94c1.77-1.4,2.88.27,4.21.91A3,3,0,0,1,22.94,145Z"/><path class="cls-64" d="M38.81,165.07,39.93,164c.71-.52,1.52-.31,2.3-.33a11.76,11.76,0,0,1,3-.14c.6.31,1,.69.69,1.45-1.74,1.84-4,.74-6,1Z"/><path class="cls-65" d="M21.87,145c-1.74.21-2.23-2.23-4-1.9l-.8-1.11a5.66,5.66,0,0,0,3.85-1A3.13,3.13,0,0,1,21.87,145Z"/><path class="cls-9" d="M10.9,131.18c1.57,1.19,1.91,3,2.21,4.74C11.27,134.86,11,133.07,10.9,131.18Z"/><path class="cls-66" d="M118.9,178.93c-.32,0-.64.12-1,.19-1.16-.27-2,.44-3,.89a2.35,2.35,0,0,1-2.31.39c-2.65-1.17-4.79-.46-6.74,1.44a10,10,0,0,0-5,1.06c-.78-1-2.12-.86-3-1.65a4.43,4.43,0,0,1,.48-4.6,7.36,7.36,0,0,1,4.91-2.13,3.77,3.77,0,0,1,1.32.33c3.44.39,6.66-1.35,10.09-1.06,1.27-.22,2,.66,3,1.3a5.09,5.09,0,0,1,1.74,2A1.72,1.72,0,0,1,118.9,178.93Z"/><path class="cls-67" d="M95.2,182.82a5.16,5.16,0,0,0-4.46,0c-1.75-1.52-3.1-3.22-2.69-5.75a3.53,3.53,0,0,1,.6-1.25c1-.69,3.1-.16,2.77-2.43.75-6.07-1-12.28,1.13-18.25a1.31,1.31,0,0,1,1.58-.24c2.52,4.56.21,9.66,1.61,14.34a13,13,0,0,1,.41,2.39,36.36,36.36,0,0,1,0,4.55c-1.12,2,2.54,3.37.7,5.44A11.9,11.9,0,0,1,95.2,182.82Z"/><path class="cls-54" d="M88.81,176.88c-.41,2.33,2,3.74,1.93,6L83,182.9c.07-1.89,1.37-3.34,1.81-5.1C86.17,177.64,88,179.4,88.81,176.88Z"/><path class="cls-68" d="M105.92,181.84c1-4.44,3.2-5,6.6-2,.5.43,1.62.14,2.45.19C112.12,181.43,109,181.35,105.92,181.84Z"/><path class="cls-69" d="M85,177.8c.77,2.29.51,4.15-2,5.1L81.92,182c-.83-2.79-.23-4.71,3-5l.3.39Z"/><path class="cls-70" d="M95.2,182.82c.25-.28.49-.56.73-.85a5.05,5.05,0,0,1,2-1c1.4,0,2.86-.1,3,1.92Z"/><path class="cls-71" d="M3.91,102c.14-3.18-.28-6.49,2.13-9.13a1.07,1.07,0,0,1,1.24.22,3.53,3.53,0,0,1,.41,2.62c-.43,1.6-.87,3.2,0,4.8a6.11,6.11,0,0,1,.69,1.81c-.07,2-.4,4.06,1.13,5.75a23.66,23.66,0,0,0,1.91,1.7c1.12,1.32,2.9,1.92,3.83,3.45.39,1.31-.25,2.07-1.36,2.58a9.27,9.27,0,0,0-3.15,1.74c-.45.37-.91.75-1.34,1.16-.74.54-1.11,1.83-2.43,1.23l-3-9-.24-1.76c-1-2.42,2-4.76.14-7.2Z"/><path class="cls-19" d="M3.91,102c2.46,2.45.13,4.8-.14,7.2C2.13,106.76,4.51,104.41,3.91,102Z"/><path class="cls-72" d="M3.79,117.34c-1.45-1-.62-2.69-1.06-4l1-2.18C3.76,113.22,3.78,115.28,3.79,117.34Z"/><path class="cls-73" d="M1.87,82.89c.12-1.64.25-3.28.38-4.93l.62.11c-.05,1.62-.1,3.25-.17,4.87,0,.08-.27.2-.4.19A1.24,1.24,0,0,1,1.87,82.89Z"/><path class="cls-74" d="M138,170c-4.11,2.46-8.11,5.19-13,6-.9.51-1.18-.07-1.38-.78.48-1.54.59-3-.66-4.3a4.75,4.75,0,0,1-.72-4.11,2,2,0,0,1,2.24-1.29c1.14.92,2.17,2.2,3.89,1.15,1.42-.47,2.66-1.69,4.34-1.1,1.13.61,2.18,1.35,3.27,2A5.71,5.71,0,0,1,138,170Z"/><path class="cls-75" d="M123.93,175l1,1-2.1,1.88-1.94,0c-.91-.39-.18-2.7-2.14-1.83-.58-1.16-1.27-.82-2-.11L115,174l-.32-.52a12.35,12.35,0,0,0-.08-3.64,2.17,2.17,0,0,1,.54-1.19c2.53-.88,4.77-3,7.78-1.72a6.66,6.66,0,0,0,1,4C123.63,172.3,124,173.64,123.93,175Z"/><path class="cls-76" d="M142.94,167l-1.13,0c-1.93-1.13-4.43-1.69-4.63-4.58.36-2.41,2.59-2,4.11-2.73,1.88.79,2.57,2.47,3.2,4.21A3.31,3.31,0,0,1,142.94,167Z"/><path class="cls-77" d="M137.8,162.08a8.79,8.79,0,0,0,4,4.93c-.68,1.77-2.5,2.1-3.85,3a2,2,0,0,1-2.11-2c0-.23,0-.45,0-.68.33-1.76-.16-3.65.79-5.32A.83.83,0,0,1,137.8,162.08Z"/><path class="cls-78" d="M142.94,167l1-3c.45-1,1.08-1.52,2.21-1.05q2.12,2.22-.19,4.23c-.29.29-.58.58-.86.88C144.27,167.93,143.42,167.84,142.94,167Z"/><path class="cls-79" d="M18.84,135c-2-.11-3-1.42-3.89-3,.57-3.95-.71-5.7-4.83-4.06l-.3.08a3.7,3.7,0,0,1-1-3.07,4,4,0,0,1,1.28-.87c2.76-.34,5.48-1.23,8.32-.73a2,2,0,0,1,1.15,1.72c.24.9-1,2,.44,2.76a2.09,2.09,0,0,1,.45,1.11c-.9,1.92-.82,4.08-1.53,6Z"/><path class="cls-80" d="M10,124.84l-1.2.11c-.66-1.66-1.88-3.1-1.84-5l1.87-2c1.34,1,1.4,2.6,1.84,4A3.23,3.23,0,0,1,10,124.84Z"/><path class="cls-81" d="M171.88,133.94c-2.46,2.7-2.82,6.78-6,9a.86.86,0,0,1-1.21,0c-.79-3.08,1.69-5.05,3-7.91-2,0-2.25,1.35-2.9,2.24-1,1.42-2,3.25-4.15,1.43.37-3.21,1.39-6,4.16-8,2.92-2.16,1.89-6.2,3.86-8.87a3.68,3.68,0,0,1,3.6-.53,2,2,0,0,1,1,1c.18,1-1.27,1.74-.61,2.89C173.85,128.18,170.29,130.84,171.88,133.94Z"/><path class="cls-76" d="M146,167.15c.79-1.41.09-2.79-.06-4.18a4.84,4.84,0,0,1,2-1.8c2.92-1.36,4.93-3.81,7.17-6,1.71-1.15,2.61-3,3.76-4.59a6.14,6.14,0,0,1,.89-1c1-.61,1.94-1.25,3.16-.64.05.44.09.88.14,1.33-.57,2.73-2.79,4.41-4.23,6.58l-3,3c-2.44,1.87-5,3.61-6.93,6.07Z"/><path class="cls-82" d="M171.88,133.94c-.9-2.17-2.6-4.19.25-6.44,1.41-1.11-1-1.51-1.23-2.5a3.73,3.73,0,0,1,3.44-1.42c1.41.92,1.28,2.12.6,3.4l-.89,2Q173,131.45,171.88,133.94Z"/><path class="cls-83" d="M164.89,142.94l1,0A7,7,0,0,1,163,148a5,5,0,0,1-2.58-.48,1.9,1.9,0,0,1-.9-2.22c1.79-.05,1.37-1.54,1.66-2.57a2.6,2.6,0,0,1,.78-1A2.79,2.79,0,0,1,164.89,142.94Z"/><path class="cls-84" d="M160.94,147a2.1,2.1,0,0,1,2,1.05,8.85,8.85,0,0,0-.1.9l-3,1.07C159,148.54,159.62,147.65,160.94,147Z"/><path class="cls-3" d="M183.76,91c-1.4-1.92-.78-4.07-.66-6.16C184.72,86.78,183.77,89,183.76,91Z"/><path class="cls-85" d="M67.91,8,80.06,5.09,87.88,4c1,.16,2.21-.14,3,1a3,3,0,0,1-.93,2c-.34.36-.68.73-1,1.12-6,5.72-13.21,6.12-20.82,4.7C68.24,11.1,66.89,9.58,67.91,8Z"/><path class="cls-86" d="M102.87,5.15c0,.27.06.55.08.82-.27.24-.4.66-.24.7.48.12.81-.27,1.14-.57,2.65.48,4.54,2.22,6.56,3.82,1.57,1.25-.62,1.34-.49,2.09a2.11,2.11,0,0,1-2,.59c-2.58-1.22-5.39-1.39-8.18-1.71a4.69,4.69,0,0,1-1.31-.64c-.86-1-1.61-1.94-.56-3.23.27-1.51-1.18-1.92-1.81-2.85C98.47,3.68,100.67,4.36,102.87,5.15Z"/><path class="cls-87" d="M180.8,105.07c.48,2.09-.62,4-.83,6,.89,1.62-.08,2.78-1,4l-1,2c-1.69,0-2.66-1.17-3.71-2.22a3.13,3.13,0,0,1-.9-1.73,2.34,2.34,0,0,1,.41-1.27.84.84,0,0,1,1.16.17c2,.18,3.07-.58,3-2.74S179.13,106,180.8,105.07Z"/><path class="cls-88" d="M174.79,114.13,178,117l-1.16,2.78a1.8,1.8,0,0,1-1,.87,3.46,3.46,0,0,1-1.36,0,2.57,2.57,0,0,1-1.07-.8,8,8,0,0,1-1-3.86C172.56,114.56,173.7,114.37,174.79,114.13Z"/><path class="cls-18" d="M175.92,120a6.92,6.92,0,0,1,.89-.25,9.79,9.79,0,0,1-1.87,7.19c-.07-1.08.16-2.27-1-3a.85.85,0,0,1-.35-1A6.86,6.86,0,0,1,175.92,120Z"/><path class="cls-89" d="M179,115c.33-1.32.65-2.64,1-4,1.17.77.82,2.06,1.07,3.15l-.24,1.77Z"/><path class="cls-90" d="M119,176c2.52-1.22,1.77.8,1.92,1.93a2,2,0,0,1-2,1c0-.71-.05-1.42-.08-2.12-.24-.24-.29-.44-.16-.6A.46.46,0,0,1,119,176Z"/><path class="cls-91" d="M97.9,7c.33,1,.67,2,1,3,.25,1.57.26,3.08-1,4.3a2.65,2.65,0,0,1-1.57.17c-3.39-2-2.92-4.9-2-7.95L95,6Z"/><path class="cls-91" d="M89.87,6l1-1.09c1.41.19,3-.33,4.13,1.06l-.2.2A3.51,3.51,0,0,1,89.87,6Z"/><path class="cls-92" d="M68.89,17.91,75,16.08c2,1,4.16.11,6,.49.89-.05.07-1.13.29-.51,0,.15-.05.23-.32.26-1.43.13-2.89.62-4.19-.45L77.93,15a5.19,5.19,0,0,1,3.75-1.34c2.36.05,4.73-.2,7.06.36a3.51,3.51,0,0,1,1.25.74c-2.44,1.89,1.92,3.95-.13,5.87-3.15,2.88-7.27,1.55-10.89,2.4-9.42,2.19-18,6.17-26.65,10.35-2.6,0-3.78-1.53-4.3-3.83a4.12,4.12,0,0,1,.14-1.52,2.42,2.42,0,0,1,1.5-1.54C56.24,24,62.24,20.25,68.89,17.91Z"/><path class="cls-52" d="M81.9,14.94l-4,.09,0-1a5.35,5.35,0,0,1,4.94-2.6c2.42-.05,5-.13,7-1.94,4-1,3.34,2.32,3.42,4.18.27,6.11.07,12.24.09,18.35,0,5.13,0,10.26,0,15.38,0,2,.12,4-1.37,5.63-2.38-.15-2.39-2.06-2.4-3.61,0-9.44-.54-18.89.27-28.32.88-2,.14-4,0-6.05l0,0A13.78,13.78,0,0,0,81.9,14.94Z"/><path class="cls-93" d="M89,10.91c-.19,1-.68,2.45-1.71,1.91C83.8,11,81,12.68,78,14c-2.75.05-5.52,0-8.26.22-1.45.13-1.7-.4-1.63-1.56,7.79.35,15.19-.54,21-6.48C90.39,7.8,90.1,9.36,89,10.91Z"/><path class="cls-94" d="M68.89,17.91A13.64,13.64,0,0,1,69,19.69c-6.34,1.2-11.66,4.6-17.08,7.77a1.38,1.38,0,0,1-2.07-.64c-.24-1.51.8-2.22,1.81-2.95,4.7-2.95,9.62-5.33,15.24-5.91Z"/><path class="cls-95" d="M66.9,18l-15,6.92c-1.35-3.1,1.46-3.61,3-4.87C58.71,18.06,62.45,15.93,66.9,18Z"/><path class="cls-96" d="M54.94,20c-.73,1.8-3,2.63-3,4.87l-2,1.94-1,1c-2.11.64-3.2-.17-3.34-2.33,1.08-1.23,2.87-1.75,3.53-3.42L52.85,20Z"/><path class="cls-97" d="M76.75,15.87l5.18.36c-2.36.59-4.74,1.51-7-.15Z"/><path class="cls-98" d="M49,22.08c-.42,1.6.88,5-3.06,2.89a3.34,3.34,0,0,1-3.08-2.24L44,21.86C45.65,22.34,47.29,23.25,49,22.08Z"/><path class="cls-26" d="M24.87,41.14c1.25,2.59,2,.49,3-.29,1.45.85,3.26,1.43,2.72,3.74C26.92,51.08,22.27,57,19.46,63.94a3.31,3.31,0,0,1-1.77,1.68A5.57,5.57,0,0,1,11.94,64c2.71-1,4.8-2.48,4.11-5.88,2.2-5,6.94-8.86,6.7-15C22.7,41.86,23.32,40.91,24.87,41.14Z"/><path class="cls-99" d="M13,56c-.08-1.12-.26-2.26.83-3.06,3.32.57,2.57,2.82,2,5C14.28,58.2,14,56.57,13,56Z"/><path class="cls-100" d="M11.94,64l5.92.83c.69.24,1.21.76,1.86,1.05l1.57.58c.92.35,1.86.63,2.79.94,1.57.56,3.17,1,4.74,1.56a4.46,4.46,0,0,1,1.11.66,2.38,2.38,0,0,1,.5,1.19c-.05,1.1.17,2.32-1.28,2.78-4.16-.3-8-2-12.07-2.8-1.94-.37-3.84-1.11-5.86-.47a2.17,2.17,0,0,1-1.33-.17C8.32,67.34,8.26,65,11.94,64Z"/><path class="cls-101" d="M6,78.08l2-7.09,1,0c.71,1.21.8,3.08,2.94,2.79,1,2.81-2,5-1.14,7.81a6.81,6.81,0,0,1-.24,1.5c-.33,1.81,0,3.69-.43,5.47C9.69,90,9.59,92.23,7,90.84c0-.28,0-.56,0-.84C5.37,86.12,6.61,82,6,78.08Z"/><path class="cls-102" d="M12,74.06c-1.39-.6-2.06,2-3.31.92-1.5-1.23.47-2.63.22-4l.94-.83,1-.1.66-.09a11.12,11.12,0,0,1,4,.42,2.37,2.37,0,0,1,1,1,3,3,0,0,1-.37,2.8,3.24,3.24,0,0,1-1.34.66A2.87,2.87,0,0,1,12,74.06Z"/><path class="cls-103" d="M30,44.05c.44-1.83-2.59-1.36-2.13-3.2L29,38.06c1.64-2.06,2.54-4.77,5.22-5.91a3.43,3.43,0,0,1,4.09,2.57A14.15,14.15,0,0,1,30,44.05Z"/><path class="cls-30" d="M33.9,33c-1.65,1.69-2.65,4-4.92,5.09-.22-3.44,3.62-4.91,3.95-8.08,2.8-1,5.27.7,7.91,1,0,2.57-1.81,2.07-3.32,1.87C36.29,32.64,35.08,32.12,33.9,33Z"/><path class="cls-104" d="M7,90.84c2.31,0,1.91-1.76,2-3.21.15-1.93-.64-4,.91-5.72a8.07,8.07,0,0,1,3,4.35c1.58,5.33-.39,7.55-6,6.76A3.59,3.59,0,0,1,6,92.88,1.89,1.89,0,0,1,7,90.84Z"/><path class="cls-105" d="M6,78.08C7,82,8.34,85.89,6.93,90c-1.38,0-2.61.11-2.18-2.11C5.38,84.66,5.6,81.35,6,78.08Z"/><path class="cls-106" d="M33.9,33c1.81-2.4,5.16.46,6.94-2,.27-1.77-1.32-2.61-2-3.93.1-1.63,0-3.35,2.16-3.83,3.23,2.09,6.36,4.26,6.22,8.75A3.14,3.14,0,0,1,45.48,33a10.23,10.23,0,0,1-1.34.26c-2.25.06-4,1.91-6.34,1.71C36.78,33.75,35.72,32.64,33.9,33Z"/><path class="cls-107" d="M47,32c-.59-3.88-4.3-5.64-5.93-8.81l1.83-.45A3.51,3.51,0,0,1,46,25c0,1.93,1.52,2.31,2.87,2.86,0,.41.07.82.1,1.23-1,.78,0,2.11-.77,3A1.06,1.06,0,0,1,47,32Z"/><path class="cls-108" d="M157.9,75.2a5.05,5.05,0,0,1,4-1.21c3.24,3.6,3.4,8.33,3.75,12.61.65,7.84,1.27,15.78-.67,23.61-.34,1.37-.38,2.64-2.12,2.8a2.43,2.43,0,0,1-1.29.64,6.13,6.13,0,0,1-1.48-.13c-2.16-1.06-6,.49-6.06-3.85a3.71,3.71,0,0,1,1.41-.62c3.87-.22,3.65-3.34,3.89-5.84.73-7.31-.4-14.52-1.42-21.74C157.63,79.4,156.59,77.29,157.9,75.2Z"/><path class="cls-109" d="M161.92,113.05c.32,0,.63,0,1,0,1.13,1.29,2.21,1.24,3.24-.12a2.75,2.75,0,0,1,2.41.76c1.19,1.28,3.26.94,4.38,2.34a5,5,0,0,1,1.11,3.87c-1.6,1.7-3.33,1-5.07.28a24.38,24.38,0,0,1-4.52-2.64C163.6,116,160.6,115.74,161.92,113.05Z"/><path class="cls-110" d="M167.72,114l-1.61-1.06c1.93-2,.48-5.79,3.78-7.06a2.55,2.55,0,0,1,.87,1.22,7.31,7.31,0,0,1-1.11,5.83A2.46,2.46,0,0,1,167.72,114Z"/><path class="cls-111" d="M170,107c0-.4-.07-.8-.1-1.21v-2.6a2.62,2.62,0,0,1,1-2.31c1.21,1,1.26,2.44,1.15,3.88C171.74,105.9,171.49,107.05,170,107Z"/><path class="cls-112" d="M171,105l-.09-4.12c0-1.09-.16-2.24.9-3,2.13.32,2.87,1.08,2.59,3.63-.38,3.42.33,7,.57,10.43l-1,0c-2.36.12-1.8-1.73-1.9-3C171.91,107.59,172.39,106.08,171,105Z"/><path class="cls-113" d="M157.9,75.2c2.28,10.43,4,20.84,2.37,31.65-.64,4.26-2.27,4.33-5.37,3.09-.82-5.94,1.23-11.75.66-17.73-.49-5.18.64-10.57-2.67-15.24Z"/><path class="cls-114" d="M152.89,77c3.72,1.93,4.33,5.09,4.09,9-.5,8,1,16.19-2.08,24l-1.1.13c-3.16,1.55-6,0-8.93-.87a3.76,3.76,0,0,1-1.15-1.06,1.43,1.43,0,0,1,.27-1.45,4,4,0,0,1,2.9-.53c2.69.88,4.43.21,5.24-2.76.61-2.27,1.39-4.51.87-6.85a33.88,33.88,0,0,1-.55-10.83c.48-4.67-1-5.61-5.89-4.79a5.68,5.68,0,0,1-4.53-.61,1.38,1.38,0,0,1-.24-1.5c2.78-1.92,5.73-2.95,9.12-1.82Z"/><path class="cls-115" d="M156.91,70v2l-7.87,3a1.88,1.88,0,0,1-2.26.1,2.22,2.22,0,0,1-.11-2.3C149.87,71.14,152.84,68.59,156.91,70Z"/><path class="cls-36" d="M146.82,74.94l2.22.11,1.87,2-8.53,2.18c-1.09.58-2,.52-2.69-.67C141,75.29,143.79,74.84,146.82,74.94Z"/><path class="cls-116" d="M156.91,70,147,73.12a1,1,0,0,1-1.27-.15c-.05-1.88,1.55-2.23,2.73-3,3-1,3.57-2.62,2.1-5.62-3.59-7.34-9.1-13-15-18.39-1.1-1-2.48-1.71-3.08-3.19-.42-1.78.55-2.84,1.93-3.68,5.7-1.61,8.45,3.13,11.52,6.06a51.91,51.91,0,0,1,12.52,18.21c.81,2,2.06,4-.53,5.64Z"/><path class="cls-117" d="M157.93,69c.24-.93,1-1.72.56-2.82a60.88,60.88,0,0,0-20-25.88,3.43,3.43,0,0,0-3.72-.39c-1.12-3.15,1.56-4.48,3-6.38,1.06-.59,2.37-.94,3.31-.3,4.71,3.18,9.52,6.33,11.17,12.31-1.69,1.59-2.66,0-3.68-.93-2.09-1.85-3.9-4-6-5.82,8.64,7.9,15.74,16.92,20.46,27.72a2,2,0,0,1-.17,1.36Z"/><path class="cls-118" d="M162.9,67.9c0-.3,0-.6,0-.9l.21-.53c.28-.5.59-1,.89-1.48.46-.61.81-1.4,1.82-1,.37,1.94,1.25,2,2.75.92,2.07-1.53,4-1.46,5.36,1C170.48,67.84,167.1,70.2,162.9,67.9Z"/><path class="cls-119" d="M165.83,64a1.75,1.75,0,0,0-.92,1.83c-2.77.44-2.46-2.29-3.63-3.51C159,56.42,154.56,51.75,152.12,46c-2.23-4.63-6.53-7.43-9.92-11-1.16-1.23-2.68-1.15-4.2-.65.22-3.72,2.75-2.58,4.87-2.32,3.74,2.28,7.15,4.9,9,9l1.86,2.07a19.44,19.44,0,0,0,3,2.7c3.82,5.32,8.27,10.3,9,17.23h.39C166.08,63.33,166,63.65,165.83,64Z"/><path class="cls-120" d="M151.92,41,143,33c-1-1.11-3.05-1.65-2-4-2.88,2.31-3.71,6.77-8.09,7.18a2.48,2.48,0,0,1-.79-1.85c.18-1.8,1-3.42,1.37-5.19A2,2,0,0,1,135,27.92c2.74,0,1.18-3.19,2.92-3.93,1.55.3,2.64-1.1,4.1-1.12,2.49.66,2.12,3.52,3.73,4.86.25,3.71,1.15,6.92,5,8.75C152.36,37.25,151.88,39.37,151.92,41Z"/><path class="cls-121" d="M157.73,33.17a6.61,6.61,0,0,0,3.1,3.89c1.37,4.52-2.31,2.4-3.93,3-2.86-3.67-8.25-5.36-8.56-11C152.72,27.5,154.39,32.25,157.73,33.17Z"/><path class="cls-49" d="M155.88,46a3.51,3.51,0,0,1-2.1-3c2,1,3.45-.37,5.09-1l.06,1.89C158.67,45.76,158.11,47.13,155.88,46Z"/><path class="cls-52" d="M114.9,13a2,2,0,0,1,1-1.95c1.14,1,2.72.28,3.95,1l1.3.54c-1.59,3,1,3.51,2.75,4.49-.09.2-.19.41-.28.62-1.43,2.18-3.55,1.75-5.63,1.53-3.06-.62-6.14-1.08-9.16-1.86a4.45,4.45,0,0,1-1.94-1,1.62,1.62,0,0,1-.21-1.34C109,12.61,112.65,15.59,114.9,13Z"/><path class="cls-51" d="M135.06,21.21a3.34,3.34,0,0,1-.12.78,1.64,1.64,0,0,1-1.24.47c-2.27-.57-4.54-1.12-6-3.19a1.23,1.23,0,0,1,.24-1.28c1,.12,2.19.69,2.82.29C134.63,15.82,134.72,18.63,135.06,21.21Z"/><path class="cls-122" d="M119.88,12c-1.57.72-3.38,2.42-3.95-1l1-1,3,1C119.9,11.33,119.89,11.64,119.88,12Z"/><path class="cls-52" d="M127.92,18c0,.33,0,.67,0,1-2.29,1.27-3.78.91-4-2l0,0A7,7,0,0,1,127.92,18Z"/><path class="cls-123" d="M155.88,46c1.56.11,2-1.41,3.05-2.07l1,.06c1,.93,4.07-.23,2.84,3-.63,1.67,1.52,1.18,2.16,2h0c1.34,3.14,1.91,6.81,5.91,8.06a2.26,2.26,0,0,1,1.45,2.41c-.13,1.18-1.24,1.46-2.27,1.44-1.78,0-3.3.36-4.19,2.08A102.5,102.5,0,0,0,155.88,46Z"/><path class="cls-49" d="M164.9,49c-1.2-.11-3.19.13-2.73-1.59.65-2.44-1.53-2.29-2.27-3.39l4.46-.63C165.14,45.24,161.91,47.53,164.9,49Z"/><path class="cls-124" d="M108.93,16l9.89,2.07c4.82,1.74,10,2.59,14.12,6,1,.78,1.25,2,1.86,3a1.58,1.58,0,0,1,.19.88l-1,1.13c-4.15.24-6.72-3.08-10-4.69-5.59-2.73-11.89-3.5-17.22-6.77C106.76,16.1,108.42,16.84,108.93,16Z"/><path class="cls-125" d="M142,22.87c-3,2.73-3,2.73-4.1,1.12C139.07,22.88,140.16,21.48,142,22.87Z"/><path class="cls-120" d="M134.8,27l-1.91-2a2.34,2.34,0,0,1,1-3.05h1C134.89,23.67,134.84,25.36,134.8,27Z"/><path class="cls-126" d="M114.9,13c-1.56,5-5.46,1-8,2.07-3.19,1.44-6.14.73-9-1,.13-1.38-.46-2.93,1-4L99,9.91c2.78,1.52,6.12.62,8.91,2.06l2,0C111.33,13.67,113.21,12.81,114.9,13Z"/><path class="cls-127" d="M103.85,6.1c0,1.4-.72,2.06-2.14,1.68-.61-.16-1.34-.78-.92-1.25S102.21,6.14,103,6A5.58,5.58,0,0,1,103.85,6.1Z"/><path class="cls-128" d="M51.93,167c.32-1.38-2.33-3.61,1.17-4.08.28-.2.62-.48.87-.4,8.14,2.51,16,5.72,24.16,8.28.44.14.62.74.8,1.2.76,2.11,5.08-.11,4.23,2.56s-3.89,1.09-6.13.69A41.42,41.42,0,0,1,67.92,173c-1.86-2.3-4.47-2-7-2C58.49,168.38,54.76,168.68,51.93,167Z"/><path class="cls-129" d="M78.93,172a144,144,0,0,1-25.83-9.08l-1.15-1c-1.56-.82-3.6-1.09-3.89-3.39,0-2.05.4-3.82,3.11-3.53,3.13,4.5,8.12,6.44,12.87,7.91,6.73,2.1,13.34,5.12,20.68,4.93,1.81-.05,3.77.37,3.82,2.94-.22.85-.62,1.48-1.65,1.31Z"/><path class="cls-130" d="M86.89,172l1.1-.92a1.29,1.29,0,0,1,1.2-.57,2.08,2.08,0,0,1,1.11.85A4.49,4.49,0,0,1,88.93,176a4.63,4.63,0,0,0-.12.91c-.77,2.3-1.88,3.24-3.78.92a2.9,2.9,0,0,0-.09-.83Z"/><path class="cls-131" d="M21.87,145c-.33-1.33-.66-2.67-1-4l1-1c2.4-2-.85-4.09,0-6.14a3.2,3.2,0,0,1,.88-1.91,1.36,1.36,0,0,1,1.7.59c3,5.84,7.66,10.61,11,16.25-.45,3.45,3.19,4,4.43,6.24l-2.18,2c-5.18-.67-7-4.89-9.17-8.71-1.27-2.27-2.37-4.53-5.61-3.24Z"/><path class="cls-132" d="M48.93,159l3,2.88c-2.66-.24-3,4-6,3.11l-1.09-1.25C44.05,160.27,45.43,158.71,48.93,159Z"/><path class="cls-133" d="M10.12,127.94c1.13-3.4,3.9-2.35,5.51-1.28,2.55,1.68.78,3.68-.68,5.34C12.43,131.72,12.18,128.75,10.12,127.94Z"/><path class="cls-134" d="M23,132c0,.66,0,1.32,0,2-.82.88-2,.69-3,1h-1c-1.9-2.72.33-4.8,1.09-7.1a1.58,1.58,0,0,1,1.31,0C22.58,129,23.68,130.12,23,132Z"/><path class="cls-135" d="M19.92,135c.23-2.62,2-.61,3-1a6.26,6.26,0,0,0,1,3.57c1.75,2.72-.5,2.3-2,2.39C21.86,138,20.6,136.62,19.92,135Z"/><path class="cls-136" d="M42,164.83,39.93,164c-2.94-2-2.35-3.88-.07-6,1.06-1,2.79-1.31,3.14-3,2.52-1,2.67.84,3,2.48C45.74,160.47,43.59,162.5,42,164.83Z"/><path class="cls-137" d="M39.9,155c-2.33-1.39-6.85-.92-5-5.87,3.56-.49,4.54,3.11,7,4.41a1.2,1.2,0,0,1,.12,1.25Z"/><path class="cls-138" d="M42,154.75c0-.24-.08-.49-.11-.75a2.9,2.9,0,0,1,1.51-1c1.47-.33,2.25-1.72,3.55-2.34a2,2,0,0,1,1.27.25,3.86,3.86,0,0,1,1.13,2.43c-.9,2.1-1.61,4.37-4.4,4.69-.05-1.4.08-2.91-2-3Z"/><path class="cls-139" d="M45,158l4-5c-.22-3,2-4.65,3.63-6.55a48.54,48.54,0,0,0,4.87-6.66,3.25,3.25,0,0,1,2.5-1.28,1.86,1.86,0,0,1,1.61,2,6.37,6.37,0,0,1-1,2.55c-1,1.4-2.21,2.63-3.07,4.13-.62.87-1.36,1.65-2,2.51-1.48,1.81-1.84,4.59-4.58,5.29-1.82.76-2.09,2.29-2,4a5.93,5.93,0,0,0-4.08,4.74c-.82.7-1.6,1.51-2.85,1.12C41.17,161.77,45,160.7,45,158Z"/><path class="cls-140" d="M104,174.93l-5,2a1.6,1.6,0,0,1-1.85.34c-1.06-1.52-.81-3.41-1.46-5a1.55,1.55,0,0,1,.92-.92c2.94-.53,6-.33,8.87-1.29a29.21,29.21,0,0,1,4.38-.49c1.72-.07,3.5-1.11,5.12.34l.06.2c.6,1.3-1.85,2.56,0,3.86l.06,0c-2.08,1.77-9.71,2.41-11,.92a6.31,6.31,0,0,1,1.15-.82A3.6,3.6,0,0,0,104,174.93Z"/><path class="cls-68" d="M96.9,176.92l2,.06c-.33,1.33-.66,2.67-1,4a2.11,2.11,0,0,1-2,1c0-.78,1.56-2.06.14-2.21-3.16-.31-.43-2.09-1-3A1.3,1.3,0,0,1,96.9,176.92Z"/><path class="cls-141" d="M119,176a5.45,5.45,0,0,0-.18.8l-2-.81c.16-.92.23-2.19,1.32-2.18C119.5,173.83,118.74,175.24,119,176Z"/><path class="cls-142" d="M95.26,171.92c-.12-.65-.24-1.3-.37-1.95a3.58,3.58,0,0,1-.2-3.14c1.78-2.7,4.65-3.05,7.43-3.09,9-.15,17-3.41,24.8-7.61,2.13-1.16,4.23-2.78,6.92-1.53a2.88,2.88,0,0,1,.75,3c-2,3.39-5.62,4.48-8.7,6.35a87.63,87.63,0,0,1-23.51,6.78c-2.11.51-4.42,0-6.41,1.16l-.41.08Z"/><path class="cls-143" d="M95,166.94c0,1-.09,2-.14,3-2.1-4.88-.41-10-1-15-1.61-1.78-1.34-4-1.35-6.13q0-13.65,0-27.29c.48-1.93-.91-4.69,2.35-5.42,2.34,3,1.25,6.53,1.54,9.85-.19,3.33-.06,6.67-.08,10,0,3.62,0,7.25,0,10.87s0,7.14.08,10.71c-.2,1.75.08,3.51-.12,5.26A8.43,8.43,0,0,1,95,166.94Z"/><path class="cls-144" d="M93.85,121l0,34H93c-2.19-2.17-.84-5.19-1.84-7.64a8.09,8.09,0,0,1-.06-3.14,18.47,18.47,0,0,0,.22-8.27,6.07,6.07,0,0,1,.08-1.59c.8-4.29-.67-8.77,1.06-13A1.06,1.06,0,0,1,93.85,121Z"/><path class="cls-145" d="M88.93,176l1-4.89-.18-.89a116.2,116.2,0,0,1-.1-15.16c.06-1.47-.81-4.33,2.62-3.75,0,7.9.65,15.81-.36,23.69C91.69,177.56,89.88,175.48,88.93,176Z"/><path class="cls-146" d="M91.93,175l-.06-23.9a2.84,2.84,0,0,1,.1-4.15c1.82,2.49.55,5.37,1,8C92.3,161.61,94.18,168.4,91.93,175Z"/><path class="cls-147" d="M95.26,171.92l.3,0c1.32,1.41,3.13,2.7,1.34,5l-1.84-.13C95.13,175.18,95.2,173.55,95.26,171.92Z"/><path class="cls-148" d="M6.9,93c5.57-2,5.57-2,3-11.1a6,6,0,0,1,0-1c2.05,1.06,2.33-3.4,4.66-1.5a5.68,5.68,0,0,1,.65,2.24c-1.63,9.8-.82,19.56.46,29.31-2.63,2.81-3.08-1.43-4.82-1.5C8,108.1,8.92,105.4,8.7,103.09a6.27,6.27,0,0,0-.3-1.35c-.7-1.44-.49-3.08-1-4.57-.14-.4-.27-.82-.37-1.23Z"/><path class="cls-149" d="M10,117c.86-.82,1.43-2.09,2.93-1.94,1.69.58,3,2.71,5.2,1.15a4.6,4.6,0,0,1,3.34.3c.92.7.74,1.54.3,2.41-.32.56-.71,1.07-1.08,1.6-.42.72-.73,1.49-1.15,2.21a1.35,1.35,0,0,1-1,.59,11.94,11.94,0,0,1-3.69-2.13c-1.48-1.33-4.71.3-5.06-3A1.06,1.06,0,0,1,10,117Z"/><path class="cls-150" d="M18,117.05c-3,2.68-3.8-.31-5.1-2,1-.26,2.1-.46,1.9-1.92l.59-.42a3.06,3.06,0,0,1,2.31,1.59C18.14,115.18,18.56,116.06,18,117.05Z"/><path class="cls-151" d="M8.93,109c-2.21-2-2.51-4.39-1-7a.65.65,0,0,1,1,0h0A11.09,11.09,0,0,1,8.93,109Z"/><path class="cls-152" d="M10.88,109c2.28-.27,2.7,1.95,4,3l.36.32-.09.47-.36.33c-1.67-.57-3.5-.94-3.95-3.07-.3-.25-.39-.48-.28-.71S10.78,109,10.88,109Z"/><path class="cls-151" d="M7.05,95.94q.43,0,.87.12c.75,1.86,1.06,3.64-1,4.94C5.48,99.28,5.41,97.59,7.05,95.94Z"/><path class="cls-19" d="M10.88,109c0,.35,0,.69,0,1l-1.91-1c0-2.34,0-4.68,0-7C11.13,103.9,8.67,107.1,10.88,109Z"/><path class="cls-19" d="M6.93,101a8,8,0,0,0,1-4.94c1.86,1.71.71,3.94,1,5.91l-1,0Z"/><path class="cls-153" d="M10,117l0,1.07c.42,1.29,1.24,2.47,1.13,3.92a1,1,0,0,1-1.24.12c-1.24-1.16-.86-2.72-1-4.14Z"/><path class="cls-154" d="M101.74,169.86a128.75,128.75,0,0,0,23.93-7c.93-.38,1.83-.57,2.48.49a2.26,2.26,0,0,1-.68,1.95c-.74.62-1.49,1.22-2.54.69a2.15,2.15,0,0,0-2,1l-8,3-5.1.94c-2.26-.94-4.54-.1-6.82-.11A2.17,2.17,0,0,1,101.74,169.86Z"/><path class="cls-155" d="M127,165l1-1a4.08,4.08,0,0,1,4.43-2.55c1.71,1.1.88,2.71.83,4.17l-.47.45c-1.68-.22-2.47,1.47-3.88,1.82A6.81,6.81,0,0,1,127,165Z"/><path class="cls-156" d="M127,165c1.93.11,2,1.42,1.88,2.87-1.43,0-2.68,1.67-4.13.67-1.12-.76,0-1.72.21-2.59Z"/><path class="cls-157" d="M123.93,175c-.71-1.34-3.53-2.68,0-4C126.3,172.3,126.34,173.64,123.93,175Z"/><path class="cls-77" d="M135.85,168.05c-1.44,0-2.77-.23-3.12-2l.26-.14a2.23,2.23,0,0,1,2.17-.52c1.09.58,1.58,1.34.79,2.51Z"/><path class="cls-158" d="M114.92,174c-1.18-.19-2.61.54-3.56-.95.77-1.53,3.07-1.16,3.6-2.91C118.18,171.43,115.1,172.69,114.92,174Z"/><path class="cls-159" d="M147.87,162.18l-2,.79-2,1-3.14-3.89c-4.38-2.51-6.58-7-9.76-10.63a96.91,96.91,0,0,0-7.83-11.06c-1.33-1.95-3-3.71-3.27-6.23a3.58,3.58,0,0,1,.55-2,1.61,1.61,0,0,1,1.25-.45c1.58,1,2.4,2.62,3.64,3.89.87,1.26,2.17,2.12,3.14,3.3,1.56,2.23,3.31,4.31,4.82,6.58a12.35,12.35,0,0,1,.74,1.14c1.48,2.74,3.64,5,5.31,7.63.72,1,1.36,2.16,2.09,3.21a23.78,23.78,0,0,0,1.5,2,5.61,5.61,0,0,0,3.75,1.81,3.12,3.12,0,0,1,1.16.52C148.56,160.55,147.85,161.36,147.87,162.18Z"/><path class="cls-160" d="M131.91,149l8.91,11.11c.21,2.51-2.79.15-3,2a5.54,5.54,0,0,0-.78-.27c-.83-.46-1.14-1.33-1.64-2.05a8.36,8.36,0,0,1-1.41-1.82c-.07-1-.14-2-.22-3-1-.91-2.43-1.25-3.13-2.53a4.16,4.16,0,0,1-.47-1.29,4,4,0,0,1,.15-1.38C130.65,149.13,131.07,148.63,131.91,149Z"/><path class="cls-161" d="M135.8,158.75c1.24.69,1.13,1.92,1.22,3.06-.53,2,1.53,4.47-1.07,6.11a2.16,2.16,0,0,0-1-2c-.77-1.61-.15-3.57-1.31-5.09A2,2,0,0,1,135.8,158.75Z"/><path class="cls-162" d="M9.88,122.1l1,0c1.36-.4,2.61-1.24,4.12-1,1.89-.5,2.9.74,3.91,2a.71.71,0,0,1-.09,1.06c-2.93.17-5.75,1.54-8.75.79Z"/><path class="cls-163" d="M18.78,124.06c0-.35.06-.7.1-1.06l.2,0c2.9.83,3.18,2.63,1.84,5-.3-.06-.59-.09-.89-.12h0a1.77,1.77,0,0,1-.89-2Z"/><path class="cls-134" d="M19.13,125.89a1.94,1.94,0,0,1,.89,2c-.67.15-1.49,1-1.93-.12C17.78,127,18.35,126.28,19.13,125.89Z"/><path class="cls-82" d="M161.94,141.92c0,.31,0,.61,0,.92a1.74,1.74,0,0,1-2.07.52,6.06,6.06,0,0,1-3-4.28c1.14-6.1,5.46-10.65,7.91-16.1.8-.46,2-.21,2.38-1.41a2.36,2.36,0,0,1,.86-.83c.72.06,1.12.38.95,1.16-1,4,.37,8.87-5.13,11.16-1.52.64-1.93,3.91-2.85,6C161.72,139.86,162.59,140.64,161.94,141.92Z"/><path class="cls-164" d="M161.94,141.92c-.32-1-.63-1.92-.94-2.89,2.63-.13,2.74-2.37,3.47-4.12.89-2.12,2.82-2.59,4.4-1.55s.12,2.82-.73,3.66c-1.72,1.7-2.22,3.93-3.25,5.92Z"/><path class="cls-165" d="M169,121.9l-1.09-1.06c-.41-1-.82-2.1,1.05-1.89a7.78,7.78,0,0,0,5.07.91v0c.47,1.15.76,2.2-1.1,2.14Z"/><path class="cls-166" d="M173.93,123c0,.34,0,.67,0,1l-3,1c-1.49-2.73,1-1.66,2-2.09A.62.62,0,0,1,173.93,123Z"/><path class="cls-82" d="M173.93,123l-1.05-.06c0-.3,0-.59,0-.89l1.1-2.14,1.9.16A3,3,0,0,1,173.93,123Z"/><path class="cls-167" d="M160.94,147c-.34,1-.69,2-1,3,0,.33,0,.65,0,1a6,6,0,0,1-2.22,1c-2.3.14-3.61-.86-3.72-3.23.11-1.86,1.23-3.28,2.11-4.81.93-.76,1.18-3.08,3.19-1.43.23.88.8,1.69.59,2.67A2,2,0,0,0,160.94,147Z"/><path class="cls-168" d="M147.87,162.18c-1.35-.74.06-1.46,0-2.19,1-2.67,3.51-3.8,5.39-5.59,1.24-.1,2.67-.52,2.6,1.56C153.5,158.4,151.46,161.29,147.87,162.18Z"/><path class="cls-169" d="M155.88,156c-.7-1.19-1.85-1-2.94-1-2.92,1.28-4,.35-3.28-2.72,2.63-1.16,5.76.79,8.26-1.28l2,0C158.62,152.67,157.93,154.85,155.88,156Z"/><path class="cls-170" d="M159.87,145.13A2.11,2.11,0,0,1,159,143c.18-.5.48-.6.91-.28l2.08.08C162.16,144.42,162.14,145.8,159.87,145.13Z"/><path class="cls-171" d="M89,10.91l.09-4.71A1.45,1.45,0,0,1,89.87,6l4.89.17c.81,2.6-1.27,6,2.14,7.89,1.13,1.11-1.93,1.16-.59,2.32.12,1.31-.23,2.58-.19,3.88V22.9c0,.68,0,1.36,0,2s0,1.38,0,2.07c0,.93,0,1.87,0,2.81,0,.48,0,1,0,1.44s0,1,0,1.5c0,1.29,0,2.58.1,3.88.09,1.68,0,3.36.12,5-.17,6.92-.08,13.85-.09,20.77.09,2.35.06,4.71,0,7.07a19.43,19.43,0,0,1-.3,2.63c-1,2.73-2.49,3.09-4.57,1-1-1.57-.84-3.33-.91-5.07,0-.85,0-1.7,0-2.56,0-3.14,0-6.28.06-9.42A4.45,4.45,0,0,1,91.91,53c0-13.52-.13-27,.13-40.57C92.11,8.58,90.29,10.81,89,10.91Z"/><path class="cls-50" d="M107.94,12c-3.13,0-6.36.44-8.91-2.06C102.06,10.33,105.47,9.13,107.94,12Z"/><path class="cls-172" d="M171,105c1.88.17,3.12.84,2.39,3-.47,1.41-.85,2.78.57,3.9l0,1c-1.69,1.3-3.37,1.45-5-.1.54-1.93,1.33-3.81,1.11-5.88C170.31,106.38,170.64,105.71,171,105Z"/><path class="cls-173" d="M168.88,112.92l5,.1.9,1.11L172.9,116c-1.79-.51-4.36.94-5.18-2Z"/><path class="cls-174" d="M95.82,16c-.88-1.34,1.18-1,1.08-1.93l1-.05,9,1c0,.29.08.58.14.87-1.14,1.32-2.77,1.57-4.33,2C100.18,18.05,97.8,17.76,95.82,16Z"/><path class="cls-175" d="M51.9,33A70.3,70.3,0,0,1,86.1,21,9,9,0,0,0,89.89,20l.45.6c0,1.49.3,3-.22,4.46a1.86,1.86,0,0,1-1.46.17c-6-.9-11.7.27-17.42,2-6.51,2-12.13,5.91-18.46,8.24C51.57,35,51.14,34.2,51.9,33Z"/><path class="cls-176" d="M51.9,33a2.08,2.08,0,0,0,1,2,7,7,0,0,1,2.7,1.77c1.48,1.85,2.32,4.14,4,5.87a63,63,0,0,0,5,6.21c2.32,3.68,5.74,6.71,6.58,11.26-.17,1.24-1,1.49-2.07,1.39a6.82,6.82,0,0,1-2.86-2.11c-2.87-4.42-6.5-8.32-9.2-12.87-3.32-4.67-7.61-8.72-9.14-14.51.06-1.07-.22-2.27,1-2.94C49,31.05,50.37,32.1,51.9,33Z"/><path class="cls-175" d="M89.91,15c1.66,1.37.71,3.27,1,4.92-.29.47-.61.51-1,.05l0-.05C90.66,18.33,85.77,16.67,89.91,15Z"/><path class="cls-175" d="M81.9,14.94c2.66-1.28,5.32-1.52,8,.05Z"/><path class="cls-177" d="M89.94,20l1-.05c0,9.28,0,18.57.06,27.85,0,1.74-.68,3.69,1,5.16l0,3.06a21.14,21.14,0,0,0,0,9.94v2c-1.23,1.56.56,4.48-2.38,5.26.66.38,1.62.41,1.64,1.5-3.18,3-7.51,4.14-10.88,6.84-1.14.51-2.29,1.06-3.6.59-2.13-1.85-1.52-3.42.5-4.85.83-.44,1.73-.74,2.57-1.16,2.14-1.69,3.34-4.44,6.06-5.5,2.44-1.29,2.71-3.54,2.69-5.93,0-4.78.11-9.55-.08-14.34s.14-9.63.06-14.45c.22-3.69-.89-7.55,1.42-11C89.91,23.34,89.93,21.68,89.94,20Z"/><path class="cls-178" d="M37.8,35c1.9-1.27,3.66-2.85,6.13-2.93.55,2.45-1.42,3.6-2.77,4.88C33,44.65,26.27,53.37,22,63.86A6.53,6.53,0,0,1,18.94,67c-.9-.43-1-1.28-1.08-2.13,2.87-7.6,7.33-14.28,12.11-20.77Z"/><path class="cls-179" d="M10.9,70c.19-2.05,1.33-1.71,2.8-1.3,5.39,1.49,10.82,2.84,16.23,4.25,6.3,0,11.8,2.77,17.52,4.81,3.62.94,7,2.81,11,2.33a4.64,4.64,0,0,1,2.74.47c3.58,3.58,8.8,3.7,12.92,6.15A2.26,2.26,0,0,1,74.23,89a3,3,0,0,1-1.29.88A7.24,7.24,0,0,1,69.8,90c-4.88-.47-9.14-3-13.81-4.19C51.5,83.53,46.38,83.05,41.82,81c-2.86-1.48-6.16-1.68-9-3.1-3.57-2.09-7.86-2.1-11.55-3.85-.83-.4-1.65-.83-2.49-1.22a10.86,10.86,0,0,1-2.91-1.69h.07c-1.43-1.45-3.5.07-5-1.07Z"/><path class="cls-180" d="M28.94,70c-1.77-.41-3.61-.64-5-2,.08-.23.15-.46.22-.69,5-9.17,10-18.39,17.89-25.57,2.18-2,4.28-4.39,7.8-3.12a2.34,2.34,0,0,1,.67,1.23,3.11,3.11,0,0,1-1.18,2.62C39.84,49.65,33.68,59.29,28.94,70Z"/><path class="cls-181" d="M29.93,71c0-.33,0-.66,0-1,3.59-11.21,9.87-20.51,19.47-27.47a3.75,3.75,0,0,1,2.71-1,2.07,2.07,0,0,1,1.53,2.22c-.3,2-2,2.94-3.34,4.13A65.73,65.73,0,0,0,37.12,64.5c-1.42,2.56-3.27,5.12.72,7.2.55.29.37,1.18-.23,1.68A8.4,8.4,0,0,1,29.93,71Z"/><path class="cls-182" d="M23.92,68c-1.09,0-2.27.17-3-1,2-9.14,7.62-16.26,13.35-23.26A83.62,83.62,0,0,1,42,36c1.39-1.3,2.81-2.38,4.84-1.41a2,2,0,0,1,.65,1.28,2.45,2.45,0,0,1-.79,1.76C36.47,45.8,29.7,56.51,23.94,68Z"/><path class="cls-183" d="M51.91,42c-9.25,5.77-15,14.4-19.47,24-.67,1.44-.64,3.31-2.52,4l-1,0c.26-6.45,4.4-11.09,7.65-16.09,3.56-5.46,8.67-9.48,13.35-13.9C51.56,39.71,52.23,40.36,51.91,42Z"/><path class="cls-184" d="M46.87,35c-4.17-.3-6,3.34-8.29,5.57A77.92,77.92,0,0,0,20.92,67l-2,0c3.88-7.54,7.17-15.44,13-21.84,4-4.4,8-8.72,12-13.07a2.7,2.7,0,0,1,.94,0C45.8,32.85,47.65,33,46.87,35Z"/><path class="cls-185" d="M29.93,71l8,2c2.45-.62,4.68.63,7,.86a11.4,11.4,0,0,1,4.92,2.81c.71,1.88-.93,1.8-1.9,2.28L29.93,73C29.85,72.32,28.82,71.66,29.93,71Z"/><path class="cls-104" d="M13.94,79c-1.56,1-.64,2.74-1.27,4.08-1.81.48-1.55-1.81-2.76-2.1C8,77.86,11.41,76.39,12,74.06h3C16.3,76.06,16.21,77.76,13.94,79Z"/><path class="cls-186" d="M13.94,79A10.45,10.45,0,0,0,15,74.05a1,1,0,0,1,.64-.14C16.84,73.42,17,71.16,19,72a2.08,2.08,0,0,1,2,1c1.63,4.25-.5,8.1-1.29,12.1a190.33,190.33,0,0,0,.07,23.28c.07,1.8.65,3.61-.36,5.33a1.28,1.28,0,0,1-1.58.39c-3.91-8.54-4.21-17.57-3.57-26.71.15-2.13.64-4.25-.21-6.34C14,80.34,14,79.66,13.94,79Z"/><path class="cls-100" d="M19,72l-3.29,1.93c.05-.94.1-1.88.16-2.82C17,71,18.15,70.81,19,72Z"/><path class="cls-100" d="M10.89,70c1.7.18,3.67-.83,5,1.07C14.23,70.72,12.27,71.71,10.89,70Z"/><path class="cls-187" d="M46.87,35c-.66-1-1.33-2-2-3L47,32h.94L58,46c.79,1.11.4,1.88-.7,2.45-3,.07-3.74-2.11-4.28-4.44a2.12,2.12,0,0,0-1.06-2,3.38,3.38,0,0,0-2-2c0-.33-.07-.65-.12-1-1.12-.86-2.51-1.46-2.83-3A5.25,5.25,0,0,0,46.87,35Z"/><path class="cls-188" d="M144.91,108l8.89,2.07c1.79,2.47,5.09,1.15,7.18,2.86-.64,1.83-2.21,2.07-3.82,2.26a10.17,10.17,0,0,1-5.84-1.28,6.1,6.1,0,0,1-1.1-.87c-1.37-1.7-3.4-1.83-5.33-2.21a2.93,2.93,0,0,1-1.12-.71C143.33,109,144.19,108.53,144.91,108Z"/><path class="cls-189" d="M156.84,114a7.28,7.28,0,0,0,4.14-1.1,2.49,2.49,0,0,1,.94.12c-.24,2.26,3.24,1.6,3,3.85C161.68,117.53,158.57,117.72,156.84,114Z"/><path class="cls-190" d="M156.84,114c2.36,1.9,5.5,1.62,8.1,2.87l4,2a2.06,2.06,0,0,0-1.05,1.89l0,.38c-1.13.69-2.25.33-3.37,0a36.44,36.44,0,0,1-3.8-1.48c-1.82-.81-3.77-1.26-5.61-2a13.94,13.94,0,0,1-1.72-1c-1.06-.74-2.54-1-3-2.5a1.78,1.78,0,0,1,.44-1.22Z"/><path class="cls-191" d="M146.91,107h-3c-.9.22-1.29-.33-1.59-1-.43-4.36.69-8.57,1.23-12.85s.79-8.59-2.73-12a1.43,1.43,0,0,1,.17-1.37,1.18,1.18,0,0,1,1.32.33l4.64-.09c2.14-1.07,3.64-.34,4.09,1.87,1.63,7.94.43,15.75-1.39,23.49A2.22,2.22,0,0,1,146.91,107Z"/><path class="cls-192" d="M146.91,107c3.54-1.84,1.77-5.4,2.38-8.09a46.48,46.48,0,0,0,.65-16.56c-.27-2.07-1.4-2.37-3-2.36,4-2.41,7.2-.74,6.64,3.26-1,7.13,2.38,14-.3,21.33C151.57,109.11,149.91,108.5,146.91,107Z"/><path class="cls-188" d="M142.82,106.22l1.05.78a8.93,8.93,0,0,0,.23.89c-3.7,1.71-7-.32-10.48-1.07a2.56,2.56,0,0,1-1.12-1.11,1.86,1.86,0,0,1,.68-2.13C136.71,103.29,140.05,103.72,142.82,106.22Z"/><path class="cls-189" d="M132.89,106c3.87-.16,7.44,1.46,11.21,1.86a1.72,1.72,0,0,1,.81.11l-1,2C139.77,110,135.53,110.26,132.89,106Z"/><path class="cls-115" d="M142.27,80.07h-1.16a5.34,5.34,0,0,1-4,1.09,3.63,3.63,0,0,1-2.28-1c.7-3,2.69-3.06,5.07-2.19.54,1,1.52,1.07,2.47,1.23A1.07,1.07,0,0,0,142.27,80.07Z"/><path class="cls-193" d="M139.91,78c-1.81.38-3.63.71-5.09,2a3.35,3.35,0,0,1-2.55,1.2,14.93,14.93,0,0,0-8.63,2.17,5.18,5.18,0,0,1-1.39.47c-1.35,0-2.52-.18-2.77-1.81,1.21-3.11,4.45-2.69,6.75-3.91a11.57,11.57,0,0,1,1.38-.43,51.48,51.48,0,0,0,10.06-3.29,12.26,12.26,0,0,1,2.05-.58c2.08-.15,4-1.73,6.19-.82l1.11.19c-.07.61-.13,1.21-.2,1.82Z"/><path class="cls-194" d="M145.91,72.93l-6,1.91c1.17-2.69.7-5.24-.36-7.88a26.87,26.87,0,0,0-13.79-14.89c-.11-2.87,1.47-4.6,3.87-5.78a4,4,0,0,1,1.5,0,47.48,47.48,0,0,1,18,21.92A2.34,2.34,0,0,1,148.9,71Z"/><path class="cls-195" d="M148.9,71c-3.09-10.17-10.14-17.38-18-24-.66-1.62.53-2.6,1.29-3.74l.56-.41c9.22,6,16.16,13.94,20.12,24.24C154.3,70.76,150.22,69.64,148.9,71Z"/><path class="cls-196" d="M129.71,46.88,125.9,52c-.14,2.72-1.76,4-4.29,4.33A2.08,2.08,0,0,1,120.18,54c3.53-6.5,7.44-12.74,12.73-18,4.32-2.35,5.84-7.34,10-10.84-.27,3.05-2.42,5.58.06,7.83-1.81-.1-3.92-1.35-5,1.31-1.06,1.89-2.13,3.77-3.2,5.66a4.6,4.6,0,0,0-2,2.9l.05,0A15.29,15.29,0,0,1,129.71,46.88Z"/><path class="cls-197" d="M152.12,46A43.63,43.63,0,0,1,162,61.82c.13,1.75,2,3.19.94,5.16l0,0c-3-2.54-3.78-6.43-5.93-9.5-4.93-7-9.85-14.06-17-19.13-.56-.4-.87-1-.34-2C145.32,37.53,147.32,43.65,152.12,46Z"/><path class="cls-117" d="M162.93,67c-.14-1.75-1.38-3.3-.94-5.16,1.38,1,1.14,3.25,2.92,4A1.9,1.9,0,0,1,162.93,67Z"/><path class="cls-198" d="M95.82,16l7.19.89c1.29-.41,2.57-.78,3.76.25,9.7,2.52,19,5.93,27.19,11.93,1.12,1.95-.37,3.33-1.07,4.88-.54.74-1,1.73-2.19,1a6,6,0,0,0-4.17-5.9c-3.79-1.58-7.34-3.75-11.61-3.85-6.61-1.77-13.41-2.75-19.85-5.14A4.89,4.89,0,0,1,95.82,16Z"/><path class="cls-199" d="M131,35.06l1.93-1.13c0,.68,0,1.37,0,2-3.11,6.59-8.17,11.89-12,18-1.17,2.47-1.14,5.95-5.1,6.12-1-1.4-.32-2.77,0-4.16.64-1.74,1.46-3.4,2.16-5.13a6.12,6.12,0,0,1,1.23-1.67c2.59-2.59,4.54-5.67,6.73-8.56,1.16-1.59,1.39-3.76,3.07-5A2.76,2.76,0,0,1,131,35.06Z"/><path class="cls-200" d="M133.92,22c-.34,1-.68,2-1,3.05l-14.07-7c2,1,3.37-.82,5.09-1.05.78,1.79,2.3,2.08,4,2Z"/><path class="cls-201" d="M106.77,17.12,103,16.87c1.08-1.39,2.68-.63,4-1l1.91.11C108.48,16.89,107.59,16.93,106.77,17.12Z"/><path class="cls-202" d="M50.93,155l4-6c8.07,7.78,18.23,10.88,28.87,13,2,.4,4.33.45,5.75,2.44.4,2.23.87,4.47-.65,6.51a4.85,4.85,0,0,1-.92.19c-.23-2-1.7-2.07-3.29-2.14a61.47,61.47,0,0,1-26.35-7.49C55.22,159.81,50.91,160,50.93,155Z"/><path class="cls-203" d="M88.91,170.91c0-2.32,0-4.63,0-6.94-1.5-1.73-1.45-3.82-1.41-5.91-.15-2.34.12-4.68,0-7,0-1.79-.07-3.57,0-5.35.64-3-1.84-6.95,2.6-8.84a3.14,3.14,0,0,1,1.46,3.42c-1.39,9.71-1.13,19.48-1.17,29.24a2.85,2.85,0,0,1-.51,1.37l.07.2Z"/><path class="cls-204" d="M20.92,128a6.21,6.21,0,0,0-1.85-5c-.09-1.11-.28-2.24.86-3,2.41,1.07,3,3.55,3.95,5.55,3.63,7.56,8,14.59,13.9,20.58,1.2,3.28,5.87,3.86,6.15,7.87l-2,0c-3.26-.31-4.19-3.94-7-4.91A90.88,90.88,0,0,1,23,132Z"/><path class="cls-205" d="M47.91,151l-1,0c-8.26-5.1-13.55-12.78-18.1-21-2.1-3.82-4.77-7.57-4-12.37a4,4,0,0,1,4.9-1.17c3.23,2.47,3.77,6.47,5.63,9.73,3.69,6.45,7.73,12.73,14.09,17a4.27,4.27,0,0,1,2.11,2.63A5.67,5.67,0,0,1,47.91,151Z"/><path class="cls-163" d="M24.94,118c3.95,13.24,12.52,23.4,22,33-.72,1.28-1,3-3,3-2-2.69-5.52-3.81-7-7-.81-3.84-4.31-5.9-6.08-9.18-3.05-5.62-7.22-10.66-8-17.33-.09-.78-1.42-.74-1.89-1.46l.92-2.08.54-.38A2,2,0,0,1,24.94,118Z"/><path class="cls-206" d="M47.91,151l3-5a19.45,19.45,0,0,1,3.4-6.3,3.14,3.14,0,0,1,2.41-1A1.77,1.77,0,0,1,58,140.08c-1.56,5.34-6.48,8.3-9.12,12.87A2.1,2.1,0,0,1,47.91,151Z"/><path class="cls-207" d="M88.92,146v5c-.6,2-1.77,3.11-4,2.38-6.31-2.06-13.59-1.11-19-6.18-1.1-1-2.82-.78-4.23-1.21s-3-.91-1.85-3a2.14,2.14,0,0,1,1-2c.94-1.56.5-4,3-4.58,3.2-.9,6,.43,8.3,2.22a23.85,23.85,0,0,0,13.1,5.19A4.05,4.05,0,0,1,88.92,146Z"/><path class="cls-205" d="M88.92,158v6a71.14,71.14,0,0,1-29-9.09c-2.26-1.27-4.51-2.91-5-5.88l2-2c2.12-.93,3.94.06,5.52,1.19a47.93,47.93,0,0,0,23.86,8.63A4.44,4.44,0,0,1,88.92,158Z"/><path class="cls-208" d="M88.92,158a43,43,0,0,1-25.49-7.67A53.65,53.65,0,0,0,56.89,147c.13-2,1.46-3.09,3-4,.09.32.17.91.28.91,6.51.32,10.47,7.55,17.73,6.34,2.28-.38,5,.92,7.29,2,2,1,2.64-.37,3.72-1.23Z"/><path class="cls-209" d="M63.94,137l-3,4a2,2,0,0,0-1-2,1.77,1.77,0,0,1-.51-1.21c.54-2.54,3-3.84,4-6.07,1.06-1.41,1.61-3.15,2.86-4.43,1.63-1.29,2.34-3.3,3.74-4.76a23.76,23.76,0,0,0,2.41-3c.72-.83,1.31-1.9,2.7-1.6a3.44,3.44,0,0,1,1.28,2.38c-1.27,4-4.42,6.78-6.69,10.15C67.92,132.71,66.91,135.7,63.94,137Z"/><path class="cls-210" d="M59.79,137.86l.09,1.08L58,140.08l-1.15-1.14c-1.09-1.81-.05-2.64,1.5-3.25C59.73,135.84,59.47,137,59.79,137.86Z"/><path class="cls-211" d="M101.74,169.86l1.34.22c.51.64,1.61.13,2,1a13.74,13.74,0,0,1-9.11.78C97.22,169.26,99.67,170.13,101.74,169.86Z"/><path class="cls-212" d="M104,174.93c.36-2.77,1.74-1.89,3.7-1.07-1.3,1.53-2.59,1-3.71,1.06Z"/><path class="cls-213" d="M105.08,171.09c-.75-.17-1.6-.16-2-1,2.24.25,4.65-1,6.72.77Z"/><path class="cls-214" d="M131,151.94a6.17,6.17,0,0,1,2.76,3c-4.29,0-7,3.48-10.68,4.84-7.1,2.62-14.06,5.68-21.95,5.29-2-.1-4.06,1.19-6.09,1.84,0-1.33,0-2.67,0-4,.38-.32.8-.73,1.27-.73,12,0,22.63-4.27,32.76-10.19A1.9,1.9,0,0,1,131,151.94Z"/><path class="cls-215" d="M135.8,158.75c-.59.76-1.17,1.52-1.76,2.27,0,.83-.21,1.28-1.13.89l-5,2.09c-.48-.93-1.38-1-2.27-1.16q4.15-2.44,8.3-4.9Z"/><path class="cls-216" d="M131,151.94c-10.86,7.31-22.44,12.25-35.92,11,0-1.64,0-3.29,0-4.94,11.56-1.12,22.35-4.25,31.4-12a1.35,1.35,0,0,1,1.87.31c1,1.48,1.1,3.39,2.46,4.66A3.29,3.29,0,0,1,131,151.94Z"/><path class="cls-217" d="M95.08,126c0-3.32,0-6.64-.07-10,.14-.18.28-.37.41-.57a24.73,24.73,0,0,1,7.91-2.79,1.72,1.72,0,0,1,1,2.34c-1.3,2-3.85,2.46-5.51,4.23,2.75,0,4.39-1.65,6-3.4,2.89-.33,3.38,2.33,4.82,3.82.86,1.52,2,2.9,2.29,4.71-1,4.2-10.62,9.56-14.47,8.08C94.1,131.19,96.44,127.94,95.08,126Z"/><path class="cls-218" d="M126.9,146c-1.25,4.22-5.11,5.83-8.5,7-5.53,1.89-10.67,5-16.65,5.6-2.34.25-4.55.65-6.69-.62l0-11c2.16.25,1.75,2.1,2.17,3.44.07,1.36.67,2.21,2.16,2,9.07-1.32,17.78-3.48,24.35-10.58C126.39,142.06,127.25,143.58,126.9,146Z"/><path class="cls-219" d="M95.08,126c.27.19.71.34.78.58,1.59,5.92,1.82,6.18,7.8,3.42,2.81-1.29,7.48-.78,7.24-5.94a1,1,0,0,1,1.24-.24,22.3,22.3,0,0,1,3.54,4.43,10.12,10.12,0,0,1,.71,2.16c1.9,3.28,1,5.84-2.33,7.26-5.82,2.48-11.43,6.35-18.29,3.5-.58-1.48-.27-3-.28-4.54,2.53-2.84,6.44-2.07,9.51-3.59,1.74-.87,3.76-1.19,5.36-2.48-4.43,2.51-9.8,2.31-14.13,5.1a.86.86,0,0,1-1.17.3Q95.07,131,95.08,126Z"/><path class="cls-220" d="M95.06,136c.29,0,.58,0,.87,0h0v5c1.52,3.6,4.06,3.95,7.62,3.05,5.81-1.48,11.37-3.3,16-7.22a2.16,2.16,0,0,1,1.52-.1,5,5,0,0,1,2.46,4.78,4.29,4.29,0,0,1-2.11,3.2c-6.74,3.59-13.65,6.72-21.38,7.5A5.11,5.11,0,0,1,95.93,151c-.14-1.35.4-2.85-.84-4Z"/><path class="cls-221" d="M93.85,121c-.3,0-.61,0-.92,0a3,3,0,0,1-1.86-1.81,7.24,7.24,0,0,1-.27-3.83c.24-1.28.57-2.8,2.22-2.66,2,.17,2.86,1.34,2,3.37h0C93.25,117.35,94.26,119.32,93.85,121Z"/><path class="cls-222" d="M89.88,170.88c.4-10.85-.61-21.72.6-32.55,0-.42-.36-.9-.56-1.36a2.7,2.7,0,0,1-1.59-2.75c.22-3.41.09-6.84.22-10.25.07-1.89-.24-4,1.9-5.18a1.31,1.31,0,0,1,1.06,1.15c.9,4.71.13,9.48.46,14.22,0,.27,0,.55.07.83s0,.63-.07.94a16,16,0,0,1,0,8.1c0,1,0,1.92,0,2.89,0,1.38-.07,2.77-.1,4.15-2,4.62-.38,9.48-1,14.19C90.67,167.15,91.77,169.29,89.88,170.88Z"/><path class="cls-146" d="M92,120l1,1c-.42,4.67.92,9.44-.89,14l-.21-.08c-.85-4.72-.23-9.47-.33-14.21Z"/><path class="cls-146" d="M92,144q0-4,0-8.1A8.06,8.06,0,0,1,92,144Z"/><path class="cls-223" d="M14,81c1.07.84,1,2,.94,3.19-.58,10.15,1,20.08,3.1,30-.06.68-.2,1.23-1.07.75l-1.81-2.13-.27-.79A78.27,78.27,0,0,1,14,81Z"/><path class="cls-224" d="M20.94,119c1,.16,2-.36,2.56,1.44,2.7,9,8,16.57,13.44,24.06.64.89,1.14,1.65,0,2.47-7.81-7.64-12.54-17.23-17-27Z"/><path class="cls-225" d="M17,114.92l1.07-.75c.3-.06.61-.11.91-.15,1.24-1.35,3-1.52,4.59-2.09,2.48-.88,5.11-1.11,7.61-1.91a7.39,7.39,0,0,1,2.82-.53,4.46,4.46,0,0,1,3.18,1.57c-.3,2.27-2.46,1.91-3.8,2.7-1.1.43-2.18.89-3.29,1.29a56.79,56.79,0,0,1-8.14,1.87h-.05l-3.87.14Z"/><path class="cls-226" d="M15,121c-1.27.76-2.26,2.63-4.12,1-.46-1.3-1.19-2.55-.85-4,1.16,1,2,2.43,4.08,1.47C15.89,118.69,15.09,120.26,15,121Z"/><path class="cls-227" d="M132.91,161.91,134,161c3.53,1.08,1.38,3.15.87,4.94l-1.92,0C131.91,164.61,132.13,163.27,132.91,161.91Z"/><path class="cls-228" d="M153.9,115.92l1,1c3.19,1,3.53,3.2,2.35,5.85a68.59,68.59,0,0,1-15.48,22.45c-4,3.76-4.73,3.61-8.68-.27l-.38-.9a72.76,72.76,0,0,0,16.63-22.48,45.7,45.7,0,0,0,2.52-5.84A2,2,0,0,1,153.9,115.92Z"/><path class="cls-229" d="M127.69,137.07c-.9-1-3-1.06-2.79-3.09,5.38-5.29,10.19-11,13.37-17.95a5.6,5.6,0,0,1,2.77-2.7c5.37-.19,6.48,1.22,4.43,5.82a48.11,48.11,0,0,1-15.16,19.06C129.07,138.66,128.51,137.57,127.69,137.07Z"/><path class="cls-230" d="M140.91,114c-3.74,6-6.34,12.72-11.92,17.44-1.25,1-2.18,2.57-4.09,2.55-1.29-1.15-2.9-2.07-2.92-4.12,3.58-4.36,8-8,10.54-13.27,1.28-2.7,1.25-4.26-1.66-5.31a2.51,2.51,0,0,1-.51-1.34,2.31,2.31,0,0,1,.63-1.31c3.23-1.1,5.79.38,8.25,2.19A5.57,5.57,0,0,1,140.91,114Z"/><path class="cls-231" d="M133.12,144.94c3.48,3.23,6.11,1.3,8.7-1.36a78.78,78.78,0,0,0,14.36-21.08c1.14-2.37.61-4-1.25-5.59a12.72,12.72,0,0,1,6.22,2c0,.23-.07.46-.1.7a81,81,0,0,1-18.2,28.6,3.33,3.33,0,0,0-1.33,3,3.62,3.62,0,0,1-.21,1.38,1.64,1.64,0,0,1-2.43.59Z"/><path class="cls-232" d="M130.93,111c5.22.19,5.73.89,3.22,5.15-3.17,5.34-5.94,11.09-12.17,13.74l-1-.2c-3-1.2-3.84-3.52-3.42-6.51,4.2.26,6.41-2.23,8.37-5.56C127.35,115.24,128.12,112.3,130.93,111Z"/><path class="cls-233" d="M127.69,137.07l2.23.9c2.63,1.15,4.58.33,6.58-1.67a58.47,58.47,0,0,0,10.91-15.89c.79-1.62,1.12-3.5,2.54-4.78a1.64,1.64,0,0,1,2,.42c.23.77.9,1.79.63,2.28-5,8.71-9.09,18-17.12,24.57a10.69,10.69,0,0,1-2.67,1.14C130.81,141.9,128.79,139.82,127.69,137.07Z"/><path class="cls-234" d="M117.63,123.06l3.39,6.6c0,.8-.09,1.59-.14,2.39-1.75.49-2.58-.79-3.54-1.83-1.71-2.72-3.91-5.08-5.82-7.66a7.1,7.1,0,0,1-1.59-2.28c-1.8-3.27-4.94-5.73-5.77-9.59.1-1.41.74-2.27,2.26-2.25,2.43.8,3.15,3.33,4.89,4.82,1.14,1.35,2,2.92,3.17,4.24,1,1.19,1.75,2.48,2.66,3.7A2.5,2.5,0,0,1,117.63,123.06Z"/><path class="cls-235" d="M150.88,151.94c-2,2.85,0,3,2.06,3.05-.3,3.07-3.34,3.36-5.05,5l-.81-.17a3.26,3.26,0,0,1-1.82-2.73,3.74,3.74,0,0,1,.22-1.32c.68-1.1.28-1.92-.69-2.61a2,2,0,0,1-.19-1.33,4.54,4.54,0,0,1,3.22-2.6,3.21,3.21,0,0,1,3.19,1.36A1.36,1.36,0,0,1,150.88,151.94Z"/><path class="cls-236" d="M126.9,146l-3-4.07a2,2,0,0,1-.52-1.31c-.18-1-.4-1.94.52-2.69,3.4,3.14,5.73,7.05,8,11l-1,1.09c-2.44.43-2-2-3-3C127.55,146.71,127.23,146.36,126.9,146Z"/><path class="cls-237" d="M123.93,138c0,1,0,2.07-.05,3.1a.55.55,0,0,1-1,0l-2.07-3.89c-1.06-1.26-2.1-2.53-3.18-3.77-.9-1.19-2.12-2.12-2.66-3.57l-.48-1.73c2.1-1.1,2.4,1.07,3.44,1.9l2.92,2.09C121.9,134,122.91,136,123.93,138Z"/><path class="cls-238" d="M145.07,152.18a7.58,7.58,0,0,0-.13.81,4.09,4.09,0,0,1-3.46,3l-.69.09-1.91-2.95,2.1-1.09a2.85,2.85,0,0,1,2.88-1.42A1.93,1.93,0,0,1,145.07,152.18Z"/><path class="cls-76" d="M145.8,157l1.28,2.79c-2.49,1.56-3.58-.72-5.08-1.87C143.08,156.88,144.28,156.29,145.8,157Z"/><path class="cls-239" d="M145.8,157a6.13,6.13,0,0,1-3.8.92l-1.21-1.85.17-.18c1.63-.56,3.26-1.41,4.81.18A3.62,3.62,0,0,1,145.8,157Z"/><path class="cls-214" d="M127.88,147.06l3,3a6,6,0,0,1-.1.95C128.36,150.77,127.83,149.12,127.88,147.06Z"/><path class="cls-240" d="M145.07,152.18l-1.29-1.32c-.29-2.36,1.58-3.47,2.92-4.77a59.75,59.75,0,0,0,8.66-10.58,85.49,85.49,0,0,0,6-10.81c.75-1.61,1.21-3.51,3.31-4,.9.49,1.67,1,1.23,2.27l-8,16a19.47,19.47,0,0,1-3.35,4.74A17.73,17.73,0,0,1,148,150Z"/><path class="cls-241" d="M153.93,143a11.14,11.14,0,0,1,3.94-4.07l2,3.85a5.64,5.64,0,0,1-.91.28c-1.36-1.19-1.17,1.1-2.08.93C155.57,144.6,154.68,144,153.93,143Z"/><path class="cls-242" d="M165.87,122.94l-1-1.88q-.48-.36-.33-.72c.1-.24.21-.37.31-.37l3.07,1.24c-.29,1.14.74,2.77-1.16,3.25C166.61,124.5,166.18,123.47,165.87,122.94Z"/><path class="cls-243" d="M153.93,143l2.95,1c.18,1.75-1.41,2.62-2,4-.9,1.57-1.17,4-4,3L148,150Z"/><path class="cls-241" d="M150.94,151c1.68-.53,2.77-1.84,4-3-.23,2.22.79,3.21,3,3-2.08,2.29-4.26,3.81-7,.95Z"/><path class="cls-177" d="M119.92,82c.7,1.21,1.9,1,3,1-1.21,3.38-4.68,2.82-7.13,3.94-1.72.78-1.45,1.23-.36,2.17,1.44,2.41,0,5.57,2.06,7.79,2,1.73,5,1.61,6.84,3.58a2.52,2.52,0,0,1,.71,2.62c-3,1.37-5.7-.65-8.56-1-.87-.09-2.36-1.39-2.27,1-1.69,2.41-2.62,5.55-6.07,6.23-1-1-2.57-1.18-3.46-2.35.07-3.3,2-6,2.87-9,.54-2.4-.57-4.87.3-7.26.12-.43.27-.85.42-1.27.77-2.09-.55-3.39-1.8-4.71a32.36,32.36,0,0,1-2.18-2.49c-.76-1.71-3.06-2-3.63-3.86.62-3-1.36-.63-2-.94-2.35-1-5.45.16-7.12-2.61A1.69,1.69,0,0,1,92,72.91c1.34.82,2.66,1.55,3-.93,4.12-.8,8.35,1.26,12.43-.48,1.68,1.24.33,2.32-.29,3.3-.93,1.51.25,1.56,1.12,1.88a5.82,5.82,0,0,1,2.53,2.21c1.63,2.83,3.89,3.61,6.93,2.56A2.07,2.07,0,0,1,119.92,82Z"/><path class="cls-244" d="M95,41V36c1-2.07,2.71-2.11,4.61-1.86a60.33,60.33,0,0,1,18,5c6.67,3.13,6.86,3.69,2.65,9.85a3.59,3.59,0,0,1-4.61-.56C109.9,42.75,102.23,42.55,95,41Z"/><path class="cls-245" d="M95,41c7-1.43,13.41.72,19,4.48,1.9,1.27,3.85,2.43,5.83,3.56.31.2.42.41.33.62s-.2.33-.3.33L119,51c-1.31.87-1,3.35-3.28,3.28a31.4,31.4,0,0,0-13.24-6.6c-4.64-1.14-4.9-1-5.18,4,0,2.33,0,4.66,0,7a7.69,7.69,0,0,1-.85,4A1,1,0,0,1,95,63Q95,52,95,41Z"/><path class="cls-246" d="M131,35.06l-1,.95c-3.9-.42-6.67-3.38-10.24-4.56-2.64-.86-5.19-2.1-8.05-2.14-3.09-.07-5.92-1.17-8.73-2.28-1.61-.83-3.37-.7-5.09-.81A4.41,4.41,0,0,1,95,25c0-.68,0-1.37,0-2.06,2-1.73,4.22-1.1,6.52-.92,4.82.36,9.36,2.77,14.33,1.95,5.69.39,10.18,3.78,15.1,6.08C134.32,31.62,130.14,33.38,131,35.06Z"/><path class="cls-247" d="M111.92,28c6.78.91,12.64,3.91,18,8l-3,4.94c-5-2.22-9.53-5.74-15.14-6.66A10.74,10.74,0,0,1,107.81,33c-1.38-.86-3-.86-4.53-1.13a12.78,12.78,0,0,1-1.36-.32C99.66,30.87,97,31.89,95,30c0-1,0-2,0-3a22,22,0,0,1,12.1,1.13C108.72,28.71,110.37,30,111.92,28Z"/><path class="cls-248" d="M111.92,33c5.5,1.68,11.06,3.27,15,8-2.19,3.11-3.89,6.61-7,9,0-.32,0-.64,0-.95.76-1.29,1.47-2.6,2.29-3.85.68-1,.62-2-.4-2.56-8-4.16-16.25-7.24-25.4-7.25-.45,0-.9.41-1.35.62,0-1.32,0-2.65,0-4,6.42,1,13.19-.06,19.13,3.59.68-.05.54-1.26.36-.62-.06.26-.18.31-.34.31C112.6,35.31,111.7,34.71,111.92,33Z"/><path class="cls-249" d="M95,63l.91,0c4.6-2.77,8.13.23,11.86,2.19a2.13,2.13,0,0,1,.53,1.39c-.9,1.7-2.25,3.16-2.82,5C102.56,73.76,98.74,73.16,95,70Z"/><path class="cls-250" d="M95,70c2.31.88,4.63,1.72,6.92,2.66,1.74.73,2.41-.35,3-1.61,1-1.33,1.3-3.13,2.88-4a1.93,1.93,0,0,0,.27-.94,5.52,5.52,0,0,1,1.48-3.34,17.48,17.48,0,0,0,2.06-3c1.5-1.14,2.48-2.8,4-4a1.51,1.51,0,0,1,1.23,0c-.29,1.41-.59,2.82-.88,4.23-.81,5.26-4,8.92-8.11,11.92S99.26,73.54,95,72Z"/><path class="cls-251" d="M115.91,24c-4.37,2.31-8.64-.52-13-.4-2.49.07-5.22-.53-7.85-.63,0-1,0-1.94,0-2.91C102.37,19.53,108.88,23.13,115.91,24Z"/><path class="cls-252" d="M111.92,33c.33,1.65,2.32,1.51,2.94,3.2C108.65,32.56,101.13,36,95,32l0-1a13.59,13.59,0,0,1,7.89,0h0c1.48,1.24,3.5-.18,5,1A7,7,0,0,0,111.92,33Z"/><path class="cls-253" d="M111.92,28c.69,1,2.15,2.7-.63,1.89-5.36-1.55-11-1.45-16.29-2.89,0-.65,0-1.31,0-2h2.87c1.51,1.18,3.51-.19,5,1C106,26.44,108.69,28.37,111.92,28Z"/><path class="cls-52" d="M92,72.91c0,.7,0,1.39-.08,2.09a.77.77,0,0,1-1,0c-.62-1.22-2-.75-3.48-1.61,3.65-.35,3-3.59,4.46-5.36Z"/><path class="cls-52" d="M91.9,66a11.4,11.4,0,0,1,0-9.94C91.89,59.34,91.9,62.66,91.9,66Z"/><path class="cls-248" d="M102.93,31H95V30C97.66,30.41,100.5,29,102.93,31Z"/><path class="cls-254" d="M89.9,25V36c-.13,4.47-2.63,6.2-6.88,6.5-4.72.32-9,2.35-13.06,4.61-1.88,1-3.79,2.11-6.07,1.94a12.35,12.35,0,0,1-5-6.06c-2.06-2.42-.67-3.85,1.46-5a61.9,61.9,0,0,1,22.35-7.87c3-.39,4.91-1.6,5.63-4.55l.56-.52Z"/><path class="cls-180" d="M54.91,37l-2-2C62.79,27.71,74,24.26,86.08,23c1.46-.15,2.69.18,2.85,2h0a6.78,6.78,0,0,1-4,2,77.15,77.15,0,0,0-28.12,9.69A3.91,3.91,0,0,1,54.91,37Z"/><path class="cls-255" d="M63.89,49c6.41-3.84,12.84-7.84,20.59-8C88.23,41,88.37,38,89.9,36V51c-.56,2.31-2.1,2.26-4.06,2-6.18-.89-11.21,1-14.4,6.65l-.54.44Q67.39,54.55,63.89,49Z"/><path class="cls-208" d="M54.91,37c8.12-6.47,17.78-9.07,27.7-11,2.09-.4,4.21-.67,6.32-1,.46,4-.31,5.87-5.31,6.3-8.47.74-16.44,3.93-23.82,8.47-1.89,1.16-.63,2.16-.87,3.21C56.52,41.71,56.25,39,54.91,37Z"/><path class="cls-256" d="M80,76.93a2.06,2.06,0,0,1-2,1c-.58-.39-1.32-.49-1.84-1-4-4.66-7.07-9.93-10.69-14.84a4.3,4.3,0,0,1-.28-1.46c.22-1,.35-2.07,1.83-1.74l2,2C74.3,65.14,78.44,70.13,80,76.93Z"/><path class="cls-257" d="M80,76.93c-3-5.75-7.23-10.71-11-16a2.06,2.06,0,0,0,2-.91l0-.16c3.14.34,3.69,3.31,5.16,5.26,2.35,3.13,4.51,6.36,8.86,6.82C82.51,72.85,83.7,77.37,80,76.93Z"/><path class="cls-258" d="M67,58.94a2.16,2.16,0,0,0-1,2C61.71,60,61,55.64,58.28,53.23c-.75-1.65-2.74-3-1.39-5.2A2.16,2.16,0,0,0,58,46C60.65,50.5,64.68,54.11,67,58.94Z"/><path class="cls-259" d="M84.94,72c-2.67,1.11-4.75.88-6.52-1.88-2.27-3.55-5-6.81-7.5-10.2.37-3.87,6.6-8.44,10.48-8.35,2.8.07,5.8,1.39,8.5-.56,0,5.14-.16,10.3.09,15.43C90.17,70.23,88.79,72.1,84.94,72Z"/><path class="cls-260" d="M90.92,75l1,0c2.22,1.1,5,.23,7,2,1.11-.54,1.61.12,2,1,1.25,1.41,4.2,1.11,4,4a2.54,2.54,0,0,1-1.86.92c-2.84,0-4-2.79-6.23-3.77-2.15-.46-1.64.72-1.15,1.88a7.42,7.42,0,0,0,1,.91c2.9,2,5.64,4.11,3.33,8.22-4.8-4-9.55-4.46-14.3.12-.47.46-1.23.25-1.85,0A4.82,4.82,0,0,1,82.7,87c.18-2.39-1.47-3.88-2.77-5.54-.05-.21-.09-.42-.14-.63C83.11,78.14,86.49,75.57,90.92,75Z"/><path class="cls-261" d="M77,76.94l1,1c-2.18.9-2,2.38-1,4.06.47,1-.14,1.63-.76,2.27-1.11.69-1.29,2.15-2.37,2.87C69.27,85.67,63.84,86,61,81A16.8,16.8,0,0,0,77,76.94Z"/><path class="cls-260" d="M75.89,84c.35-.64.7-1.29,1.06-1.93l2.85-1.2.18.24c.37,1.89-.79,3.07-2,4.24A2.19,2.19,0,0,1,76,85.25,1,1,0,0,1,75.89,84Z"/><path class="cls-262" d="M77,76.94c-.28.17-.71.26-.82.51C72.59,85.15,66.94,83.66,61,81l-3.08-.1c-2.37-1.37-5.92-.58-7.21-3.93a36.31,36.31,0,0,1,9.64-13.58C62,62,63.59,60.34,66,62,70.59,66.26,73.31,71.94,77,76.94Z"/><path class="cls-263" d="M31.94,110.93l-8,2c-2.24-6.57-3.59-13.12-2.34-20.23.77-4.43.9-9,1.53-13-.33,3.34-1.54,7.14-1.29,11.13.09,1.4-.53,2.93-2,3-2.08,0-1.31-1.91-1.28-3,0-2.28-.58-4.62.42-6.84q1-5.51,2-11c3.94,1.55,8.56,1,12,4C30.27,81,30.5,85.81,29.58,90.31A2.42,2.42,0,0,0,31,93.2c1.25.61,2.58,1.55,2.55,2.84C33.39,101,33.76,106.11,31.94,110.93Z"/><path class="cls-264" d="M42,79.94c4.62,1.84,9.87,1.89,14,5-3.54.85-7.09,1.67-6.73,6.54.06.8-.32,1.88.53,2.25,4.27,1.84,4.12,6.37,6,9.63-4.21,2.13-8.28,4.69-13.34,4a13.3,13.3,0,0,1-6-11.74A58.85,58.85,0,0,1,37.89,82.4C38.4,80.14,39.38,78.7,42,79.94Z"/><path class="cls-265" d="M55.92,102.91c-2-1.16-3.91-2.26-4.05-5.06-.06-1.26.74-5.41-2.7-1.53-.51.58-1.06-.37-1.16-1a20.6,20.6,0,0,1,1-8.78c1.33-4.78,4.74-.72,7-1.57,5,.24,9,3.52,13.89,4.18,2,2.59,1.52,5.45.86,8.32-1.2,2.66-3.9,2.73-6.17,3.57C61.66,101.34,59.15,103.76,55.92,102.91Z"/><path class="cls-266" d="M42,79.94c-1.82-.21-2.43.61-2.8,2.42a68.05,68.05,0,0,0-1.27,15.72c.12,3.86,3.23,6,5,8.84a2.63,2.63,0,0,1-1.66,1,11,11,0,0,0-4.83,1.64c-.79.32-1.56.82-2.47.43l-2,.89c0-1.91,2.58-4.43-1.69-5.23-1.76-.33-1.3-1.6.11-2.72,4.09-3.23,3.64-6.5-1.12-8.33-1.85-.72-1.38-2.15-1.24-3.26.55-4.21,1.34-8.39,2-12.6.29-1.84,1.67-1.74,3-1.83C36,78,39.31,78,42,79.94Z"/><path class="cls-261" d="M69.91,98c0-3,0-6,0-8.92l3.19,0a4.18,4.18,0,0,1,2.71,2.6c.65,2.49.36,5,.45,7.55,2.1,6.2,7.63,10.89,15.52,7.77a9.85,9.85,0,0,1,4.77-1c2.62,1.65,5.55.49,8.3.92a3.08,3.08,0,0,1,3.06,2.07l-.64.06c-1.42-.14-2.32.37-2.4,1.91-1.31.14-1.38,1.34-1.86,2.19-2.36,1.82-5.16,2.39-8,2.85-.38-1.19-.38-2.91-2.25-2.54-1.22.24-.85,1.59-.88,2.51,0,1.31.06,2.63.1,3.94l-.26.14c-.28.35-.53.31-.77,0L90.89,119c-2.41-2.91-6.78-2.59-9.18-5.52-.46-.62-.46-2.25-1.83-.72-1.6,1.79-2.22,4.52-5,5.21L73,120a3,3,0,0,1-1.49-2.27,2.63,2.63,0,0,1,.41-1.86c3.4-3.49,2.91-7,.25-10.65-.5-1.65.39-3.35-.21-5C71.48,99.31,70.45,98.89,69.91,98Z"/><path class="cls-267" d="M74.94,91l-1.83-1.83a3.44,3.44,0,0,1,.69-.28c1.72-.75-.83-3.8,2.1-3.9l2,0a1.36,1.36,0,0,1,.32,1.21c-.67,1.21-1.08,2.37.59,3.15,1.42.71,3.27.33,4.38,1.78a3.36,3.36,0,0,1-1.24,2.51c-1,1.15-1.41,3.18-3.52,2.78-1.91-.36-2.33-2-2.62-3.65A4.09,4.09,0,0,0,74.94,91Z"/><path class="cls-268" d="M50.92,77c2.15,1.62,5.51,1,7,3.87-3.76,1.65-6.63-1.24-9.93-1.93L49.93,77A.75.75,0,0,1,50.92,77Z"/><path class="cls-177" d="M75.9,85c-1.61.81-.28,3.2-2.1,3.9,0-.56,0-1.12,0-1.68.9-.93-1.72-4.14,2.07-3.21C75.91,84.3,75.91,84.63,75.9,85Z"/><path class="cls-269" d="M47,36a6,6,0,0,1,2.83,3c-6.31.47-9.21,5.63-12.58,9.71A70.68,70.68,0,0,0,26.9,65c-.59,1.32-1,2.92-3,3C25.68,59,31.67,52.42,37,45.59,39.83,42,43.63,39.15,47,36Z"/><path class="cls-270" d="M56.89,48,59,53c-1.44,3.75-5,5.68-7.41,8.57-3.31,3.94-6.77,7.78-6.6,13.43a15,15,0,0,1-7-2c-5-4.21-4.72-4.08-.83-10.84C41.22,55,46.73,49.21,53,44,54.38,45.23,55,47.24,56.89,48Z"/><path class="cls-271" d="M44.94,75c-1.73-1.27-1.75-2.58-.82-4.57C47.49,63.22,53,57.94,59,53c3.15,2,4.31,5.63,7,8,0,.33,0,.66,0,1-6.55,1.43-9.2,7-12.45,11.86C52.77,75,53,77,50.92,77h-1C47.74,77.62,46.83,75.09,44.94,75Z"/><path class="cls-272" d="M18.93,84v9.13l1.26.14c1.71-5.71,0-12.31,4.35-17.46-3.1,12.39-2.11,24.76-.61,37.14a8,8,0,0,1-5,1.09c-1.57-8.4-.9-16.89-1-25.35C18,87.08,17.41,85.29,18.93,84Z"/><path class="cls-273" d="M113.85,103.06c-.24-1.36-3.12-.65-2.28-2.42.64-1.35,2.27-.45,3.5-.13,3.27.85,6.57,1.64,9.85,2.46,1.19-.69,2.23,0,3.3.36,1.56.89,3.42,1.25,4.67,2.69h0c3.34,2.27,7.56,2,11,3.93l0,0c2.25.9,4.89.51,6.94,2.08l0,1v1a3.82,3.82,0,0,1-3,1.07c-2.69-1.89-6.33-1.12-9-3.19a14.49,14.49,0,0,0-8-2.82c-1.32.71-2.52,0-3.77-.3a9.21,9.21,0,0,1-1.23-.48c-3.27-1.42-6.85-1.91-10.13-3.32A3.25,3.25,0,0,1,113.85,103.06Z"/><path class="cls-189" d="M150.88,112.06c-2.4-.39-4.85-.65-6.94-2.08C146.45,110,149.1,109.61,150.88,112.06Z"/><path class="cls-274" d="M164.86,120c0,.36,0,.72,0,1.09-3.72,4.56-4.56,10.83-8.93,15a2.42,2.42,0,0,1-.84-1.93c1.3-5.22,5.25-9.45,5.59-15a1.22,1.22,0,0,1,.45-.24Z"/><path class="cls-189" d="M147.77,114.14l3.14-.15,3,1.93-2,.13-1.91-.3C148.76,115.88,147.83,115.62,147.77,114.14Z"/><path class="cls-275" d="M142.82,106.22l-9.9-2.27a.78.78,0,0,1-1.09.2,1.68,1.68,0,0,1-.19-1.22,7.67,7.67,0,0,0,1.18-2.88,3.19,3.19,0,0,1,1.2-2.28c2,0,1.48,2.35,3.14,3.18.9-4.67,0-9.26.37-13.79.34-3.72-4.16-1.35-5.75-3.13-.07-2,1.5-2.41,2.93-2.92,2,.2,4-1.2,6-.21,2.86-.07,3.14.73,3.76,4C145.93,92.42,143.12,99.13,142.82,106.22Z"/><path class="cls-276" d="M140.74,80.9l-5.82,1c-.55-1.9,1.56-1.07,2-2l4.18.08A5.66,5.66,0,0,0,140.74,80.9Z"/><path class="cls-177" d="M132.18,103.87a.78.78,0,0,1,.74.08l0,2.07a6.14,6.14,0,0,1-5-2C129.28,102.66,130.72,103,132.18,103.87Z"/><path class="cls-277" d="M136.93,80l-2,2-3.24,1.93c-.68,1.16-1.88,1.5-3,1.94-4.29.85-8.25,2.81-12.53,3.7a2,2,0,0,1-1.32-.54c-1.14-.3-3,.8-3.26-1.07-.16-1.26,1.57-1.42,2.62-1.8,2.91-1,5.83-2.08,8.75-3.12h0c2.59-2.22,6.18-1.47,9-3l2.89-.06Z"/><path class="cls-278" d="M119.92,82c-6,3.37-9.16-.31-11.88-4.93-.56-4.14,2.41-6.28,4.89-8.72a21.22,21.22,0,0,0,4.51-4.11,1.77,1.77,0,0,1,2-.25c3.35,2.88,5.18,6.87,7.61,10.42a3.39,3.39,0,0,1-.15,4.57C124.81,80.47,121.88,80.1,119.92,82Z"/><path class="cls-279" d="M122,56l3.91-4c1.11.18,2.29-1.1,3.3-.08,4.51,4.49,9.88,8.33,11.67,14.94.13.47-.1,1.28.15,1.44,4.65,3,.6,4.6-1.09,6.55l-2,.23c-3.86-2.23-5.35-6.17-6.9-9.95-1.78-4.33-4-7.81-9.42-7.17A1.47,1.47,0,0,1,122,56Z"/><path class="cls-280" d="M121.81,58c4.69-2.35,6.85-1.89,9.33,4.2,1.87,4.6,4.58,8.6,6.82,12.92-2.85,2.6-6.75,2.33-10.05,3.71-.38-.38-.6-1.16-.3-1.3,5-2.26,1.46-4.79.27-7.23-.88-1.82-2.81-3-3.56-4.77-1.26-3.05-2.94-3.37-5.4-1.49l-1,1a.81.81,0,0,1-1.29-.07C116.5,61.23,117.9,58.66,121.81,58Z"/><path class="cls-281" d="M118.92,64c1.94-2.89,3.52-5.65,5.83,0,1.17,2.87,4,5,5.6,7.87,1.34,2.51,3.08,4.58-1.45,5.35-.41.07-.66,1-1,1.55l-1,.15c.37-4.66-3.63-7.15-5.37-10.77A42.18,42.18,0,0,0,118.92,64Z"/><path class="cls-177" d="M131.93,80c-2.44,2.7-6.1,1.72-9,3C125.23,79.91,128.59,80,131.93,80Z"/><path class="cls-116" d="M129.71,46.88a7.21,7.21,0,0,1,3.1-4c.37,1.83-1.33,2.72-1.9,4.12Z"/><path class="cls-282" d="M121.81,58a21.16,21.16,0,0,0-5.13,7c-.46,1.72-2,2.7-2.93,4A26.41,26.41,0,0,0,108,77c-1.18.28-2.45,1.76-3.51.37-.91-1.18.62-1.93,1.26-2.78s1.36-1.79,2-2.68q4-6,8.11-11.92c2.4-1.39,2.89-4.37,5-6A2.12,2.12,0,0,0,122,56Z"/><path class="cls-244" d="M116.82,55.78a9.27,9.27,0,0,1-.92.14,1.17,1.17,0,0,1,0-1.92c1.24-.77,1.42-2.62,3-3C119.08,53,117.48,54.16,116.82,55.78Z"/><path class="cls-283" d="M89,135c.33.67.65,1.34,1,2-2,2.82-.55,6-1,9-2.46-1.75-5.42-.91-8.12-1.44-4.39-.86-7.42-3.93-11.09-5.9A16.09,16.09,0,0,0,63.94,137l5-7c1.49-1.35,3.21-.94,4.64-.2C78.45,132.31,83.75,133.47,89,135Z"/><path class="cls-284" d="M54.93,140c-1.3,2-1.59,4.71-4,6-10.62-7-16.46-17.57-21-29a1,1,0,0,1,.06-1.35c1.5-1,3.08-1.69,4.94-1,1.75,1.43,2.38,3.53,3.13,5.52A40.94,40.94,0,0,0,48,134.77c1.51,1.5,2.86,3.13,5.44,2.82C54.92,137.41,56,138.15,54.93,140Z"/><path class="cls-149" d="M29.93,116v1a8.05,8.05,0,0,0-5,1l-3-1.09c2.45-1.59,5.27-2.18,8-2.91A2.27,2.27,0,0,1,29.93,116Z"/><path class="cls-285" d="M54.93,140c0-.17,0-.47-.07-.47-9.34-1.55-12.63-9.41-16.73-16.29-1.49-2.5-2.16-5.48-3.21-8.25-.28-.91.27-1.37.95-1.76,2.38-.61,4.6-2,7.19-1.68,4.63,2.34,5.45,7.72,8.81,11.18,2,2.07,3.27,4.84,6,6.43a4.73,4.73,0,0,1,2.1,4.79,2.8,2.8,0,0,1-1.11,1.95,3.56,3.56,0,0,0-2,3.06Z"/><path class="cls-286" d="M89,135c-4.27,1.34-8-.62-11.66-2.22-2.73-1.21-5.32-2.6-8.36-2.77l7-10c.82-3.37,2.44-6,6.07-7,2.11.87,4.16,1.9,6.33,2.58,1.8.57,2.9,1.38,2.59,3.41-2,2.81-.53,6-1,9C89.56,130.29,90.8,132.84,89,135Z"/><path class="cls-287" d="M82,113q-3,3.48-6.07,7a2.05,2.05,0,0,1-1-2c1.42-2.15,2.83-4.3,4.28-6.43.65-1,1.52-2,2.69-1.17C82.32,110.69,82,112.09,82,113Z"/><path class="cls-288" d="M70.88,122.86c-1.69,1.42-1.61,4.2-4,5.11-.68-.56-1.85-.16-2.3-1.17a2.15,2.15,0,0,1,.18-1.34c1.88-1.57,2.23-4.86,5.49-4.89C71.28,121.13,71.77,121.82,70.88,122.86Z"/><path class="cls-289" d="M58.84,135.88c0-.63.07-1.26.1-1.88.76-1,1.15-2.35,2.71-2.43.84.08,1.75-.13,2.48.52-.57,2.58-3,3.75-4.34,5.77C59.47,137.2,59.15,136.54,58.84,135.88Z"/><path class="cls-290" d="M64.13,132.09c-.76,0-1.59.93-2.26-.19-1.08-3,.88-4.05,3.16-4.88a1.88,1.88,0,0,1,1.89,1C65.59,129.07,65.9,131.29,64.13,132.09Z"/><path class="cls-291" d="M70.88,122.86a1.87,1.87,0,0,0-1-1.88c-.5-1.79.59-2.52,2-3A2.19,2.19,0,0,1,73,120Z"/><path class="cls-292" d="M104.91,116.05c-.3,4.76-4.44,3.82-7.25,4.79-.33.12-1.2-.52-1.41-1-.41-.92.26-1.44,1.09-1.81,2.2-1,4.39-2,6.58-3A1.19,1.19,0,0,1,104.91,116.05Z"/><path class="cls-293" d="M104.91,116.05l-1-1.07a1.64,1.64,0,0,0-.9-1.79c-.29-1-1.58-2.08-.4-3.17s1.41.84,2.26,1l6,9a1.34,1.34,0,0,1-2,0Z"/><path class="cls-237" d="M108.86,120l2,0c.38.63.75,1.26,1.12,1.9a1.7,1.7,0,0,1-.18,2.4,4,4,0,0,0-.89-.23Z"/><path class="cls-294" d="M122.91,141a5.25,5.25,0,0,0,1,0,3.89,3.89,0,0,1,.05.9c-1,5.37-6.13,6-9.81,8-4.38,2.38-9.45,3-14.34,3.88-2.26.43-4.07.14-3.85-2.85,9.27.63,17.09-3.91,25.26-7.17A2.85,2.85,0,0,0,122.91,141Z"/><path class="cls-295" d="M115,129.79l3,3.18c1.22,1,2.19,2.16,2,3.89.09,3.29-3.12,3-4.8,4.3-4.64,3.57-10.43,3.74-15.88,4.74-4.1.75-3.26-2.57-3.36-4.93,5.42.56,10.36-1.22,15.23-3.21C114.76,136.29,118.12,134.56,115,129.79Z"/><path class="cls-296" d="M95.93,136c-.17-2.07.8-2.68,2.84-3.11,3.84-.82,7.78-1.53,11.16-3.83,1.1-.75,2.54-1.49,3.39.24s-.89,1.94-1.81,2.37c-4.94,2.33-9.9,4.64-15.58,4.33Z"/><path class="cls-293" d="M111.79,124.28l.18-2.4c2.16,2.57,4.83,4.77,6,8.08l-3.44-1.9C113.19,127.1,111.94,126.09,111.79,124.28Z"/><path class="cls-297" d="M120,136.86,118,133c2.38.41,2.71,2.22,2.87,4.16Q120.41,137,120,136.86Z"/><path class="cls-128" d="M91,120a2.85,2.85,0,0,1,.77,0q.06,7.41.11,14.82C89.82,130.05,91.41,125,91,120Z"/><path class="cls-298" d="M43,112c-2.3.79-4.5,2-7,1.95-.9-.73-2.37.19-3.08-1.06l4.21-1.87c1.7-2.15,4.31-2,6.63-2.67a5.38,5.38,0,0,1,1.5,0c1.44.41,3.14.3,3.95,2C47.66,113,45.43,113,43,112Z"/><path class="cls-299" d="M44,109a16.44,16.44,0,0,1-6.89,2c-1.1-.15-2.34.15-3.1-1l2-1.08c1.7-.6,3.29-1.58,5.19-1.46C42.18,107.81,44,106.7,44,109Z"/><path class="cls-300" d="M32.86,112.93c1.1.12,2.35-.15,3.08,1.06l-1,1-5,1c-1.11-.66-.09-1.31,0-2Z"/><path class="cls-301" d="M147.77,114.14l2.22,1.61c-2.33,9.9-8.31,17.48-15.6,24.15-2.41,2.2-3.32-.46-4.47-1.93,5-6.16,11-11.45,14.38-19.09,2.16-4.92.19-5-3.39-4.89a3.13,3.13,0,0,1-2-2.12Z"/><path class="cls-302" d="M117.63,123.06l-.77-.93a1.23,1.23,0,0,1-.33-.83c0-.31,0-.47.1-.47,4-3.65,6.07-8.66,9.08-13a1.3,1.3,0,0,1,1.32.07l-.06-.06c1.11,1.09,2.88,1,3.93,2.17l0,1c-2,3.53-4,7.12-6.16,10.57C123,124.37,120.64,125.55,117.63,123.06Z"/><path class="cls-232" d="M130.9,110c-1.58-.23-3.07-.63-3.93-2.17a6.14,6.14,0,0,1,3.94,1.23C130.91,109.36,130.9,109.68,130.9,110Z"/><path class="cls-303" d="M160.7,119.1c2.1,3.54-.71,6.23-1.72,9.17A37.72,37.72,0,0,1,155.9,134c-3.45,7-8,13.13-15,17-.95-.24-2.44-.6-1.1-1.74,9.43-8,15.24-18.46,20.09-29.57C160,119.4,160.43,119.28,160.7,119.1Z"/><path class="cls-304" d="M140.91,151c6.26-4.56,10.27-11.1,15-17,0,.71,0,1.41,0,2.11-2.69,6.06-8,10-12.17,14.8l-2.8,1.2C141,151.7,140.93,151.33,140.91,151Z"/><path class="cls-305" d="M113.85,103.06l2.07.9c1,1.68,3.83.67,4.32,3-1.94,3.07-3.43,6.58-7.4,7.7a5.43,5.43,0,0,1-2.12-.63c-1.89-1.15-2.53-3.16-3.44-5a.47.47,0,0,0,.64-.06C110.81,107.94,111.12,104.3,113.85,103.06Z"/><path class="cls-306" d="M119.93,107c-1-1.43-3.51-.9-4-3,3.69,1.35,7.75,1.65,11.11,3.92l-1.19.21c-4,3.59-5.66,8.75-8.89,12.85l-.09,1.19c-1.63-.9-2.16-2.6-3-4.08,0-.23.09-.45.13-.68C116.08,114,119.14,111.12,119.93,107Z"/><path class="cls-306" d="M110.72,114.07l2.21-.09c1.16,1,2,2.09,1.19,3.71l-.26.36C112.32,117.11,111.66,115.48,110.72,114.07Z"/><path class="cls-307" d="M145.77,156.1l-4.81-.17,4-2.94c1.07.14,3,.11,3.05.45C148.28,154.92,146.82,155.44,145.77,156.1Z"/><path class="cls-308" d="M114.81,89a2.49,2.49,0,0,1,1,0A62.93,62.93,0,0,0,122.85,87c2.77-1,4.72-.7,5.9,2.33,1.59,4.07,1.29,9.4-.81,10.71a3.59,3.59,0,0,1-2.84.1c-2.87-.6-5.65-1.62-8.58-2C113,95.62,116,91.9,114.81,89Z"/><path class="cls-309" d="M116.52,98.13a15.74,15.74,0,0,1,8.52.66c3.8,1.49,3.47-1.45,3.47-2.52a30.37,30.37,0,0,0-1.36-7.61c-.42-1.57-1.68-1.62-3.19-1.23-2.68.69-5.29,1.85-8.17,1.5a52,52,0,0,1,12.74-4.08c3.1-1.1,4.79.51,5.66,3.18,1.09,3.32,2.2,6.71-.27,10,0,1,0,2,0,3-.94,1.57-2.53,1.79-4.14,2a7.25,7.25,0,0,1-5.87-2Z"/><path class="cls-310" d="M108.89,90c0,2.69,0,5.38,0,8.08-1.94,1.35-4.39,2.07-5.11,4.83-.42,1.59-1.87,2.12-3.49,2.06a5.32,5.32,0,0,1-3.38-1.57,1.78,1.78,0,0,1-.2-1.39c2.69-2.07,5.08-4.28,3.86-8.19a2.72,2.72,0,0,1-1.15-1.64,2.47,2.47,0,0,1,.32-1.33A46.9,46.9,0,0,0,108.89,90Z"/><path class="cls-311" d="M99.92,104c1.56,0,2.86-.16,3-2.18.32-3.78,2.93-4.12,5.93-3.76-1.41,2.94-1.87,6.31-4,8.92-2.64,1.24-5.28,2.79-7.92,0a.82.82,0,0,1-.35-.7c0-.27.06-.4.12-.41C97.54,104.82,99,104.84,99.92,104Z"/><path class="cls-312" d="M108.89,90c-2.78,2-5.65,3.06-8.86.92-.27-.15-.37-.33-.33-.54s.12-.32.19-.32c.88-4.26-2.14-6.08-5-8,4-2.4,5.54.57,7.23,3.25a9.67,9.67,0,0,1,.45,1.93c.13.68.67,1.58,1.16,1.3.92-.53-.34-1.3-.2-2,.64-1.6-.84-2.9-.64-4.43l2-.06,2,2c.85,1.92,3.61,3.24,1.92,6Z"/><path class="cls-188" d="M123.9,100.92c1.95.25,3.65,1.68,5.76,1.18.68.42,1.63.19,2.18.92a3.68,3.68,0,0,0,.34.85l-4.29.13-3-1Z"/><path class="cls-310" d="M108.89,90c.68-2.42-1.93-3.78-1.92-6C109.14,85.49,111.23,87,108.89,90Z"/><path class="cls-313" d="M100.91,78l-2-1c.13-.77.21-1.86,1.22-1.59a3.47,3.47,0,0,1,2,1.74C102.48,77.83,101.49,77.9,100.91,78Z"/><path class="cls-314" d="M115.93,54c0,.33-.05.66-.08,1-1.13,1-.93,3.29-3.13,3.29C107.83,54.23,102,52.36,95.93,51c.12-6.12.49-6.6,6.14-4.73C107.12,47.93,113,48.44,115.93,54Z"/><path class="cls-315" d="M95.93,51c6.91-.7,12.53,1.73,17,7,.68,1.15-.6,1.49-.91,2.23a2.33,2.33,0,0,1-2,2.89c-3.63-5-8.58-5.43-14-4.12C95.92,56.32,95.93,53.66,95.93,51Z"/><path class="cls-316" d="M95.92,59c3.35-2.92,6.85-3.2,10.33-.33,1.48,1.22,6,.05,3.72,4.45a2.92,2.92,0,0,1-1.89,2.94c-4-1.22-7.69-3.73-12.17-3.07C95.91,61.65,95.92,60.32,95.92,59Z"/><path class="cls-247" d="M102.92,26c-1.69-.21-3.59.64-5-1C99.61,25.22,101.51,24.34,102.92,26Z"/><path class="cls-248" d="M107.92,32c-1.69-.25-3.6.66-5-1C104.61,31.23,106.52,30.33,107.92,32Z"/><path class="cls-316" d="M107.81,67c-.78,1.47-1.25,3.16-2.88,4C104.82,68.91,105.26,67.19,107.81,67Z"/><path class="cls-245" d="M112,60.22c.3-.75.6-1.49.91-2.23l2.93-3c0,.31,0,.62.05.93C115,57.75,114.26,59.66,112,60.22Z"/><path class="cls-317" d="M99.89,90a5,5,0,0,0,.14.86L99.91,92c-1.06.51-1.9-.1-2.78-.54-5.68-2.88-9.88-.9-11.53,5.32-.36,1.39-.23,2.34,1.22,2.66,2.45.55,5,.08,7.43.33,3.59.37,3.79-2.36,4.64-4.63a5,5,0,0,1,2-2.13,5.47,5.47,0,0,1,4,2.13c-5.09-.15-2,7.89-8,6.92-2.47,2-5.4,1.09-8.15,1.3a22.59,22.59,0,0,1-9.91-1.73,2.52,2.52,0,0,1-1.54-1.52c.56-4,4.82-5.44,6.08-8.94a1.15,1.15,0,0,1,.7-1.08c2.63-2.08,4.69-4.3,8.85-4.42S98.64,86.85,99.89,90Z"/><path class="cls-318" d="M101.92,86c-2.24-1.48-3.26-5.16-7-4v0c-.84-3.83-.73-4.06,2-4,2.63.4,3.5,3.4,6,4,.4,1.31,4.68,1.56,1.09,4A1.4,1.4,0,0,1,101.92,86Z"/><path class="cls-319" d="M77.9,85.94c0-.34,0-.68,0-1,.06-1.63,1.38-2.58,2.12-3.84A5.21,5.21,0,0,1,83.92,86,3.85,3.85,0,0,1,82,87a8.17,8.17,0,0,1-1.48.09A3.31,3.31,0,0,1,77.9,85.94Z"/><path class="cls-320" d="M81.9,86l2,0,.18,4.09a1.16,1.16,0,0,0-.28.75c-.19.67-.5.73-.92.17-1.71-.22-3.61.64-5.1-.87.12-.19.25-.37.38-.56C79.84,88.83,81.51,88.11,81.9,86Z"/><path class="cls-312" d="M96.92,78c-2.75.29-1.79,2.45-2,4a3.17,3.17,0,0,1-.4-4.4C95.16,76.65,96.22,77.09,96.92,78Z"/><path class="cls-321" d="M44,109c-.73-1.21-2-1-3.07-1.06-.31-.23-.39-.45-.27-.66s.23-.29.34-.29l2-.08,13-4,8-2.92c.89.72,2.23,1.06,2.24,2.56-.93,1.78-2.89,1.65-4.39,2.38-5.63,1.29-11,3.83-16.84,4Z"/><path class="cls-322" d="M66,102a1.91,1.91,0,0,1-2.07-2l6-2c1.4,0,2.9-.18,3,1.88C71.05,102.11,68.88,103.23,66,102Z"/><path class="cls-264" d="M41,107c0,.32,0,.64-.07,1l-5,1A5.73,5.73,0,0,1,41,107Z"/><path class="cls-323" d="M71.92,118l-2,3c-2.31,1-2,4.63-4.94,5.06-3.1-4.43-5.45-9.4-9.73-13-2.42-2-1.71-4,.46-5.76,2.69-2,5.92-2.48,9-3.37,2.83-.31,6.15-4.44,8.22,1.06C78.46,109.78,74.73,113.84,71.92,118Z"/><path class="cls-324" d="M78,100l1,.84c2,1.17,4.26,1.82,6.33,2.86,1.38,2.69,4.49,2.76,6.62,4.31-7.8,2.83-15.42-.77-17-8C76,98.29,77,98.6,78,100Z"/><path class="cls-325" d="M91.91,108c-3.11.07-6.27.26-7-3.92.26-1.74,2.09-1.22,3-2.06l9,0c0,.31,0,.61,0,.92a7.08,7.08,0,0,1,0,3l0,1Z"/><path class="cls-326" d="M78,100a2.7,2.7,0,0,0-3,0q0-4.51,0-9c.51.41,1.31.74,1.46,1.26,1.28,4.4,2.74,4.32,4.66.35.33-.67,1.22-1.06,1.84-1.58a4.14,4.14,0,0,1,.92-.17C83.41,94.86,79.2,96.47,78,100Z"/><path class="cls-327" d="M72.93,105c-2.65-3.58-5.39-.65-8.1-.1-.79-.9-2.23.17-2.95-1,.94-1.55,3.13-.43,4.11-1.91l6.9-2.12C74.77,101.59,72.18,103.31,72.93,105Z"/><path class="cls-320" d="M77.9,85.94l3,.07c.35,2.28-2.45,2.19-2.92,3.85l-.22.27C75.16,88.67,75,87.27,77.9,85.94Z"/><path class="cls-328" d="M133.92,98c0-3.38.16-6.75-1.09-10-.8-2.1-2.05-3.19-4.29-3.1a4.13,4.13,0,0,1,3.14-1c7.83-.73,8-.39,6.66,7.63-.41,2.48.54,5.17.44,7.74-.05,1.51-.22,3.94-1.91,4.11-2.35.24-1.68-2.22-2-3.71A7.38,7.38,0,0,0,133.92,98Z"/><path class="cls-328" d="M131.84,103a2.48,2.48,0,0,1-2.18-.93l4.25-1.11C133.9,102.35,133.11,102.93,131.84,103Z"/><path class="cls-281" d="M113.75,68.93a7.85,7.85,0,0,1,2.93-4l1.25.1A8.63,8.63,0,0,1,113.75,68.93Z"/><path class="cls-255" d="M55.94,108c-1.87,2-1.27,3.14.74,5,3.81,3.53,7.88,7.19,8.28,13a6.37,6.37,0,0,0,.07,1c-.87,1.75-3.11,2.61-3.16,4.89L58.94,134c-.18-1,0-2.46-.58-2.78C50.75,126.78,48.22,118.32,43,112a10.48,10.48,0,0,0,6-2A5.37,5.37,0,0,1,55.94,108Z"/><path class="cls-329" d="M55.94,108l-7,2c-1.38-.17-3,.47-4-1,5.35-2.7,11.18-3.75,17-5,1,.12,2.24-.2,2.95,1Z"/><path class="cls-330" d="M117,120.94c.17-3.93,5.73-12,8.89-12.85C124.05,113.18,122.23,118.26,117,120.94Z"/><path class="cls-331" d="M114.12,117.69c-.4-1.24-.8-2.48-1.19-3.71,3.3-1.36,3.85-5.48,7-7,.89.1,1.84.5,1.15,1.47C118.84,111.58,118,115.78,114.12,117.69Z"/><path class="cls-332" d="M100.91,93a12.82,12.82,0,0,1-1.62,5.76c-2.59,4.59-7.62,1.36-11.57,2.1-1.7.32-4.86-.48-4.18-2.07,1.27-3,1.3-7.09,4.65-8.8,3.16-1.61,6.67-3,9.73.56a10.44,10.44,0,0,0,2,1.44Z"/><path class="cls-333" d="M97,105.94a2.45,2.45,0,0,1,0-3l3,1C99.84,106,98.42,106,97,105.94Z"/><path class="cls-334" d="M101.92,86,104,86l2.23,3.23C100.91,90.48,100.77,90.37,101.92,86Z"/><path class="cls-261" d="M87.89,102l-3,2.06c-2.23-.64-4.45-1.29-6-3.25C82,101.08,84.78,102.61,87.89,102Z"/><path class="cls-335" d="M78,89.86c-2-3.5,2.38-2.24,2.91-3.85.33,0,.65,0,1,0C83.8,90.54,80.6,89.89,78,89.86Z"/><path class="cls-336" d="M88.52,104.94c1.6-.67,3.14-2.16,4.86-.58a.88.88,0,0,1,0,.89C91.76,106.56,90.14,106.05,88.52,104.94Z"/></g></g></svg>