<svg xmlns="http://www.w3.org/2000/svg" viewBox="0 0 184.99 186.99"><defs><style>.cls-1{fill:#fdfdfd;}.cls-2{fill:#5b4527;}.cls-3{fill:#614a2a;}.cls-4{fill:#5c4626;}.cls-5{fill:#75552f;}.cls-6{fill:#554024;}.cls-7{fill:#755b36;}.cls-8{fill:#71562f;}.cls-9{fill:#664c28;}.cls-10{fill:#574022;}.cls-11{fill:#685530;}.cls-12{fill:#6a5028;}.cls-13{fill:#5d431f;}.cls-14{fill:#513e23;}.cls-15{fill:#6e552d;}.cls-16{fill:#392d21;}.cls-17{fill:#392f24;}.cls-18{fill:#4d3a22;}.cls-19{fill:#675028;}.cls-20{fill:#9f9254;}.cls-21{fill:#937243;}.cls-22{fill:#9a7745;}.cls-23{fill:#987543;}.cls-24{fill:#856439;}.cls-25{fill:#977645;}.cls-26{fill:#c0b276;}.cls-27{fill:#d9cb8e;}.cls-28{fill:#dbce8e;}.cls-29{fill:#907141;}.cls-30{fill:#c8b77c;}.cls-31{fill:#cfbf84;}.cls-32{fill:#bc9a63;}.cls-33{fill:#c8ad75;}.cls-34{fill:#d4c389;}.cls-35{fill:#decf96;}.cls-36{fill:#cfba82;}.cls-37{fill:#9c7b48;}.cls-38{fill:#dbc990;}.cls-39{fill:#987544;}.cls-40{fill:#7c5833;}.cls-41{fill:#795832;}.cls-42{fill:#d3be88;}.cls-43{fill:#8d6f3e;}.cls-44{fill:#835f37;}.cls-45{fill:#b9a16c;}.cls-46{fill:#89653b;}.cls-47{fill:#b9aa6d;}.cls-48{fill:#a69a5d;}.cls-49{fill:#856138;}.cls-50{fill:#45341d;}.cls-51{fill:#674829;}.cls-52{fill:#927042;}.cls-53{fill:#463624;}.cls-54{fill:#5d482e;}.cls-55{fill:#463929;}.cls-56{fill:#53422b;}.cls-57{fill:#b4a76a;}.cls-58{fill:#887a3c;}.cls-59{fill:#443526;}.cls-60{fill:#866439;}.cls-61{fill:#635324;}.cls-62{fill:#88723a;}.cls-63{fill:#cab37a;}.cls-64{fill:#bd9e63;}.cls-65{fill:#453320;}.cls-66{fill:#8f6f41;}.cls-67{fill:#44331e;}.cls-68{fill:#3f3426;}.cls-69{fill:#8e6d3d;}.cls-70{fill:#a17b47;}.cls-71{fill:#b79d63;}.cls-72{fill:#946e3f;}.cls-73{fill:#5c4825;}.cls-74{fill:#3f311c;}.cls-75{fill:#7a6131;}.cls-76{fill:#6f4e2d;}.cls-77{fill:#ad9c62;}.cls-78{fill:#c2b279;}.cls-79{fill:#7c6237;}.cls-80{fill:#c5ab73;}.cls-81{fill:#d2c28a;}.cls-82{fill:#a8995c;}.cls-83{fill:#372c20;}.cls-84{fill:#9d7b48;}.cls-85{fill:#71622a;}.cls-86{fill:#463c32;}.cls-87{fill:#7d5a34;}.cls-88{fill:#594a37;}.cls-89{fill:#b0a061;}.cls-90{fill:#d6c28d;}.cls-91{fill:#c4b579;}.cls-92{fill:#b6975f;}.cls-93{fill:#493e31;}.cls-94{fill:#775e33;}.cls-95{fill:#bfb371;}.cls-96{fill:#724e2d;}.cls-97{fill:#42372e;}.cls-98{fill:#8a723f;}.cls-99{fill:#706133;}.cls-100{fill:#3d3b34;}.cls-101{fill:#3d2f1d;}.cls-102{fill:#d2be87;}.cls-103{fill:#36302a;}.cls-104{fill:#3f311d;}.cls-105{fill:#41403a;}.cls-106{fill:#9a7c47;}.cls-107{fill:#977343;}.cls-108{fill:#7b5934;}.cls-109{fill:#3c352c;}.cls-110{fill:#44413a;}.cls-111{fill:#8a663b;}.cls-112{fill:#87693a;}.cls-113{fill:#c2b379;}.cls-114{fill:#977443;}.cls-115{fill:#b0a068;}.cls-116{fill:#b99d66;}.cls-117{fill:#ddcd94;}.cls-118{fill:#363029;}.cls-119{fill:#5a4924;}.cls-120{fill:#635028;}.cls-121{fill:#4f3e27;}.cls-122{fill:#755835;}.cls-123{fill:#8e8878;}.cls-124{fill:#b1ac9d;}.cls-125{fill:#4f3e28;}.cls-126{fill:#b8995f;}.cls-127{fill:#c8b87a;}.cls-128{fill:#453f37;}.cls-129{fill:#372e26;}.cls-130{fill:#4d3c25;}.cls-131{fill:#977544;}.cls-132{fill:#b8aa6d;}.cls-133{fill:#ada060;}.cls-134{fill:#574524;}.cls-135{fill:#977644;}.cls-136{fill:#8c6a3e;}.cls-137{fill:#4d3d25;}.cls-138{fill:#b79860;}.cls-139{fill:#937141;}.cls-140{fill:#c6b87b;}.cls-141{fill:#ccb37b;}.cls-142{fill:#342f29;}.cls-143{fill:#ae8d56;}.cls-144{fill:#bba673;}.cls-145{fill:#d2c38a;}.cls-146{fill:#82653b;}.cls-147{fill:#aa915d;}.cls-148{fill:#3d2f1c;}.cls-149{fill:#906d3f;}.cls-150{fill:#a48049;}.cls-151{fill:#b79d65;}.cls-152{fill:#645225;}.cls-153{fill:#927243;}.cls-154{fill:#322d27;}.cls-155{fill:#88653a;}.cls-156{fill:#5a4225;}.cls-157{fill:#674929;}.cls-158{fill:#baad6e;}.cls-159{fill:#423421;}.cls-160{fill:#947a4b;}.cls-161{fill:#887841;}.cls-162{fill:#312614;}.cls-163{fill:#8f8345;}.cls-164{fill:#3d3b35;}.cls-165{fill:#2c2212;}.cls-166{fill:#82643c;}.cls-167{fill:#5c4528;}.cls-168{fill:#635745;}.cls-169{fill:#292625;}.cls-170{fill:#4b473f;}.cls-171{fill:#8e8879;}.cls-172{fill:#82683f;}.cls-173{fill:#2f2a27;}.cls-174{fill:#979182;}.cls-175{fill:#9b9687;}.cls-176{fill:#463622;}.cls-177{fill:#5a574e;}.cls-178{fill:#535149;}.cls-179{fill:#494742;}.cls-180{fill:#4e4c45;}.cls-181{fill:#8a6b40;}.cls-182{fill:#785b37;}.cls-183{fill:#534128;}.cls-184{fill:#695132;}.cls-185{fill:#514f47;}.cls-186{fill:#59564c;}.cls-187{fill:#5e5b52;}.cls-188{fill:#5a584f;}.cls-189{fill:#4a4843;}.cls-190{fill:#4a4942;}.cls-191{fill:#3e3b32;}.cls-192{fill:#46443e;}.cls-193{fill:#765935;}.cls-194{fill:#5e482c;}.cls-195{fill:#7f613a;}.cls-196{fill:#473722;}.cls-197{fill:#3b3933;}.cls-198{fill:#494743;}.cls-199{fill:#352f29;}.cls-200{fill:#3e3c36;}.cls-201{fill:#795b36;}.cls-202{fill:#362917;}.cls-203{fill:#43413b;}.cls-204{fill:#654d2e;}.cls-205{fill:#b4afa0;}.cls-206{fill:#997746;}.cls-207{fill:#e8e1ca;}.cls-208{fill:#b9b3a1;}.cls-209{fill:#bfbaa9;}.cls-210{fill:#cec8b4;}.cls-211{fill:#ccc7b6;}.cls-212{fill:#e6dfc7;}.cls-213{fill:#c5c0ad;}.cls-214{fill:#5d472a;}.cls-215{fill:#e4ddc7;}.cls-216{fill:#a5a091;}.cls-217{fill:#ded7c1;}.cls-218{fill:#392b19;}.cls-219{fill:#e0dac5;}.cls-220{fill:#382c1b;}.cls-221{fill:#c5c1b2;}.cls-222{fill:#8b7a60;}.cls-223{fill:#503f29;}.cls-224{fill:#bb9f61;}.cls-225{fill:#56442c;}.cls-226{fill:#9e7a46;}.cls-227{fill:#3f311e;}.cls-228{fill:#816643;}.cls-229{fill:#8e734d;}.cls-230{fill:#614d32;}.cls-231{fill:#dfd9c5;}.cls-232{fill:#cac1ab;}.cls-233{fill:#a78e5d;}.cls-234{fill:#9e998a;}.cls-235{fill:#a8a496;}.cls-236{fill:#735a3a;}.cls-237{fill:#40382e;}.cls-238{fill:#ded193;}.cls-239{fill:#59564d;}.cls-240{fill:#525048;}.cls-241{fill:#42413c;}.cls-242{fill:#484640;}.cls-243{fill:#4d4b44;}.cls-244{fill:#372a1a;}.cls-245{fill:#987644;}.cls-246{fill:#bea167;}.cls-247{fill:#312c27;}.cls-248{fill:#524f48;}.cls-249{fill:#4d4b45;}.cls-250{fill:#7f623a;}.cls-251{fill:#3e2f1c;}.cls-252{fill:#886a3f;}.cls-253{fill:#403e37;}.cls-254{fill:#44433d;}.cls-255{fill:#6e5432;}.cls-256{fill:#3e3d37;}.cls-257{fill:#43413c;}.cls-258{fill:#493924;}.cls-259{fill:#4f4d46;}.cls-260{fill:#5e5c54;}.cls-261{fill:#d1cbb8;}.cls-262{fill:#bbb5a3;}.cls-263{fill:#9f9a8a;}.cls-264{fill:#aca89a;}.cls-265{fill:#c5bfac;}.cls-266{fill:#adaa9f;}.cls-267{fill:#c5c2b6;}.cls-268{fill:#7c6341;}.cls-269{fill:#a9a69a;}.cls-270{fill:#5f5b51;}.cls-271{fill:#54524a;}.cls-272{fill:#4f4d47;}.cls-273{fill:#624c30;}.cls-274{fill:#87683e;}.cls-275{fill:#967645;}.cls-276{fill:#b09057;}.cls-277{fill:#524f46;}.cls-278{fill:#43423d;}.cls-279{fill:#40321f;}.cls-280{fill:#58554c;}.cls-281{fill:#5c5950;}.cls-282{fill:#5d594e;}.cls-283{fill:#7a5c35;}.cls-284{fill:#6f5636;}.cls-285{fill:#a27f4a;}.cls-286{fill:#423320;}.cls-287{fill:#765a35;}.cls-288{fill:#55524a;}.cls-289{fill:#e2d5a0;}.cls-290{fill:#c9af66;}.cls-291{fill:#d7d1bc;}.cls-292{fill:#dad4c0;}.cls-293{fill:#2d2112;}.cls-294{fill:#d0bb71;}.cls-295{fill:#c0b189;}.cls-296{fill:#7e613b;}.cls-297{fill:#58554e;}.cls-298{fill:#967948;}.cls-299{fill:#ad9054;}.cls-300{fill:#544128;}.cls-301{fill:#d9d3c0;}.cls-302{fill:#c8c5b7;}.cls-303{fill:#494741;}.cls-304{fill:#574329;}.cls-305{fill:#8d6e41;}.cls-306{fill:#e7e0c7;}.cls-307{fill:#9b7d4a;}</style></defs><g id="Layer_2" data-name="Layer 2"><g id="Layer_4_Image" data-name="Layer 4 Image"><path class="cls-1" d="M103.07,0l2,1.9c-3,2.63-6.68,1-10,1.55a14.11,14.11,0,0,1-5.93,0c-3-.51-6.39.92-9.07-1.57l1-1.88Z"/><path class="cls-2" d="M122,6.23c.39.9,1.2,1,2,1,5.49.48,9.91,3.28,14.09,6.56l.95.32a3.44,3.44,0,0,1,3,2h0a10.17,10.17,0,0,1,6,4.09A3.4,3.4,0,0,0,150.08,22,10.39,10.39,0,0,1,156,27.06h0a5.28,5.28,0,0,1,3,3l0,0c3.73,2.45,6,6.07,8.06,9.9l.86,1.08a4.46,4.46,0,0,1,2,3.13,2.94,2.94,0,0,0,2,2.86c1.47,1.26,1.89,3,2.17,4.81l.07.1c2.92,2.72,3.52,6.53,4.77,10,.07,1.32.08,2.62-1.45,3.22a3,3,0,0,1-2.28-1.8c-1.81-3.8-2.82-8-5.09-11.57-3.18-4.74-5.44-10.07-9.37-14.32a20,20,0,0,0-3.39-4.12,111.71,111.71,0,0,0-11.27-9.57c-.78-.45-1.56-.88-2.3-1.39a17.51,17.51,0,0,1-2-1.88,82.9,82.9,0,0,0-15.23-7.95c-4.39-2-9-3.22-13.55-4.83-1.5-.53-3.37-.46-4.18-2.29.44-1.81,2.23-.52,3.1-1.34l1.2-.19c1.22.67,2.74,0,3.93.85l1.88.37C120.12,5.11,121.23,5.09,122,6.23Z"/><path class="cls-3" d="M15.9,42c.39-.69.78-1.39,1.16-2.09a5.85,5.85,0,0,1,2.12-2.78h0c1.72-2.56,2.9-5.6,6-6.95h0a4.52,4.52,0,0,1,3-3h0A7.32,7.32,0,0,1,32.83,23l2.25-2.13A39.38,39.38,0,0,1,49.16,12l1.94-1.23c1.39-.48,2.35-1.88,4-1.82l2-1.11a22.94,22.94,0,0,1,5.14-1.69v0c.73-1.15,1.83-1.1,3-.92a1.2,1.2,0,0,0,.88-.37,1.25,1.25,0,0,1,1.27-.19,2.27,2.27,0,0,1,1.08,1.71,3.38,3.38,0,0,1-1.52,2.29c-3.15,1.87-7.22,1.41-10.11,4s-6.32,3.66-9.55,5.36a10,10,0,0,1-1.14.67c-1.33.64-2.69,1.24-4,2a9.34,9.34,0,0,0-3,2c-.55.64-1.06,1.3-1.62,1.92-.89.95-1.82,1.85-2.72,2.78-.44.48-.91.94-1.37,1.4-1.5,1.57-3.34,2.79-4.72,4.49a8.66,8.66,0,0,1-1.47,1.37A8.75,8.75,0,0,0,23,39.55c-.9,2.11-1.76,4.24-3.85,5.52a28,28,0,0,0-5.44,8.22,2.5,2.5,0,0,1-.76,1.13,3.4,3.4,0,0,1-1.37.32,2.08,2.08,0,0,1-2-1.72c.42-1.86.55-3.86,2.41-5a.82.82,0,0,0,.25-.77C13.42,45.45,13.88,43.16,15.9,42Z"/><path class="cls-4" d="M35.08,166.12,32.87,164c-5.14-2.74-8.4-7.36-11.82-11.82L19,150a9.84,9.84,0,0,1-2.76-4.36A.46.46,0,0,0,16,145c-1.35-.43-1.36-1.79-1.92-2.77L12,139c-2-1.11-1.89-3.36-2.86-5l-.28-1c-.58-.63-1.38-1.16-1-2.23a2.19,2.19,0,0,1,2.32-1.07A3.27,3.27,0,0,1,11.68,131c.65,1.37,1,2.9,2.14,4a13.18,13.18,0,0,1,1.23,1.56c1.18,2.14,2.62,4.12,3.82,6.25,5.18,7.45,11.66,13.68,18.35,19.71a13.22,13.22,0,0,1,1.1.74,29.13,29.13,0,0,0,3.19,2.2c1.4,1,2.88,1.93,4.27,3,2.61,2.15,5.94,3,8.77,4.71,3.64,1.41,7.05,3.42,10.88,4.34a36.69,36.69,0,0,1,5.34,1.56,6.41,6.41,0,0,1,2.34,1.54c.54,1.05.07,1.79-.74,2.44a1,1,0,0,1-1.24-.16l-.06,0c-1.92-.77-4.15.49-6-.89l-2.54-1.21c-1.66-.93-3.94-.37-5.26-2.13l-.06-.06c-2.42,0-4.2-1.49-6.09-2.7l0,0c-1.25-.77-3.05-.51-3.91-2h0A37.86,37.86,0,0,1,35.08,166.12Z"/><path class="cls-5" d="M177.18,65c1.14-.83.76-2.12,1-3.23,2.3.3.82,2.52,1.76,3.51,0,.95,0,1.9,0,2.86.08,2.44.81,4.81.67,6.57a1.72,1.72,0,0,1,.72-1.93c2.11,1.22,1.28,3.45,1.81,5.21l.14,3c.55,1.3,1,2.6.07,3.93-1.79.63-1.58-.73-1.73-1.73-.16-1.32.32-2.76,0-3.32.57.57-.38,2.11-.07,3.46a20.44,20.44,0,0,1,.81,15.28c-.29.47.89-.2.27-.46-.17-.08,0-.2.06-.49a1.18,1.18,0,0,1,1.53-.78c.8,3.14.09,6.12-1,9-.05,1-.11,2-.17,3a1,1,0,0,1-1.37-.17c-1.42-1.74-.33-3.91-1-5.78a3.15,3.15,0,0,1-.11-1c.05-.57-.06-.63,0-.2.18,2.44.22,4.71-3.24,4.53-3.12-5.32-5.89-10.72-3.51-17.16,4.82-.16,5.69-1.29,4.38-5.93-.45-1.6-1-3.17-1.42-4.78-.62-2.32-1.92-1-3.05-.46-1.93-.62-1.64-2.08-1.36-3.54a1.2,1.2,0,0,1,.6-.68c.58-.21.57-.28,0-.14a4.21,4.21,0,0,1-3.61-.39,1.71,1.71,0,0,1-.49-1.19c.74-1.69,3.1-.29,3.82-2,.12-1.47.24-2.92,1.34-4C175.15,66,176.35,66,177.18,65Z"/><path class="cls-6" d="M72.09,182.8l1-1.82c3.74-1.09,7.38-.09,11,.47a23.93,23.93,0,0,0,5.35.06,14.05,14.05,0,0,1,6.82,0,20.61,20.61,0,0,0,4.51-.11c5.55-1,11.18-1.62,16.65-3.13,1.33.35,2.64.72,2.55,2.51l.12.35c-4.36,2.63-9.64,1.75-14.18,3.71l-.45-.14-.43.2a54.26,54.26,0,0,1-22,.16c-2.34-1-5,.38-7.31-1.07C74.62,183.33,73,184,72.09,182.8Z"/><path class="cls-7" d="M2,74a.61.61,0,0,0,.27-.7.61.61,0,0,1,1-.45,2.8,2.8,0,0,1,.31,2.36c-.18.64.6.27.5.07-.71-1.47.21-2.22,1.52-2.67a1.59,1.59,0,0,1,1.12.81c.83,3.9-1.45,7.34-1.6,11.09a9.68,9.68,0,0,0-.17,6.31A9.68,9.68,0,0,1,5.16,93a9.63,9.63,0,0,1-.28,2.21c-.71,2.14-.37,4.42-.91,6.57-.7,1.89-.47,3.93-.91,5.86A3.24,3.24,0,0,1,2.3,109c-.87.22-1.51.17-1.21-1a97.61,97.61,0,0,1,0-29C.72,77.21,1.55,75.65,2,74Z"/><path class="cls-8" d="M10.05,52.89a2.62,2.62,0,0,0,2.27,1.23c1.47,2.12.54,4.09-.55,5.91-1.51,2.5-3,5-4.64,7.44-.91.82-1.64,2-3.17,1.6a1.73,1.73,0,0,1,0-2.08,17.74,17.74,0,0,1,3.16-9C7.5,55.94,7.4,53.62,10.05,52.89Z"/><path class="cls-9" d="M139,172.74a18.09,18.09,0,0,0-6,3.08,12.15,12.15,0,0,1-6,2.94v0c-.37.76-1,.76-1.73.68a2.72,2.72,0,0,1-1.48-1.37,2.47,2.47,0,0,1,0-1.35,4,4,0,0,1,1.36-1.48c2.22-1.34,5-1.47,7.08-3,.54-.32,1.1-.62,1.66-.9a23.48,23.48,0,0,0,3.79-2.05,39.59,39.59,0,0,1,4.28-2.71,3.32,3.32,0,0,1,1.33,0,3.21,3.21,0,0,1,2.1,1.65C144.26,171.15,141.61,171.94,139,172.74Z"/><path class="cls-10" d="M175.06,133c-1.23.23-.93,1.22-1,2-.3,1.83-.52,3.68-2.16,4.91l-2,2.81a4.14,4.14,0,0,1-2,3.18l-.85,1c-.6,1.33-1.19,2.65-3.07,2.18a2.61,2.61,0,0,1-.51-1.29c.17-1.91,1.19-3.48,2-5.13a58.43,58.43,0,0,0,4.64-8.28c1.42-1.86,2.08-4.27,4.14-5.66a1.82,1.82,0,0,1,1.57,1.38A2.92,2.92,0,0,1,175.06,133Z"/><path class="cls-11" d="M10.07,130l-1.85,1c-1.72-1-1.41-2.94-2-4.47-1.78-1.82-1.67-4.31-2.28-6.54a5.06,5.06,0,0,1-.86-3.16c.13-2.16-.57-4.38.49-6.47,2.38-1.37,2.29.91,2.7,2,.86,2.27.91,4.82,2.25,6.94A6.42,6.42,0,0,1,9,120.7a20.1,20.1,0,0,1,.3,3.55c0,1.57.69,3,1,4.48A1.9,1.9,0,0,1,10.07,130Z"/><path class="cls-1" d="M83.05,185.1l22-.16a5.81,5.81,0,0,1-4.87,2c-5.16,0-10.33,0-15.49,0C83.31,187,82.3,186.87,83.05,185.1Z"/><path class="cls-1" d="M183.46,85c-.07-1.32-.15-2.64-.22-4a2.9,2.9,0,0,1,1.71,2.3q.08,10.17,0,20.34a2.88,2.88,0,0,1-1.71,2.3c-.69-3.08,1.8-5.92.67-9C182.34,93,183.07,89,183.46,85Z"/><path class="cls-12" d="M94.19,2.13l10.88-.23,5,2.1c-1.81,1.8-4.57-.33-6.37,1.54a4.48,4.48,0,0,1-1.39.33c-2.23-.34-4.48-.54-6.71-.87C94.32,4.45,93,3.91,94.19,2.13Z"/><path class="cls-13" d="M68.08,6l-1-.82c1-1.46,2.77-.42,4-1.17,1.77.19,3.11-1.72,5-1,2.8-.4,5.65-1.45,8.25.65-.62,2.15-2.42,2.44-4.24,2.71C76.09,5.5,72,8.25,68.08,6Z"/><path class="cls-1" d="M21.05,152.18,32.87,164c-1.21.83-2.09.32-2.92-.65C26.86,159.72,22.44,157.16,21.05,152.18Z"/><path class="cls-14" d="M175.1,130.08l-.9-1.12c-.68-.89-.15-1.7.16-2.53,1.34-2.57,1.6-5.47,2.51-8.18a9.47,9.47,0,0,1,.48-1.25,6,6,0,0,1,1.57-2.2,2.06,2.06,0,0,1,2.39,1A1,1,0,0,1,181,117c-1.17.25-.82,1.3-1.08,2-.47,2-1.92,3.77-1.14,6-.06,1.55-2.34,2.16-1.71,4C176.62,129.73,176.18,130.48,175.1,130.08Z"/><path class="cls-1" d="M49.16,12,35.08,20.83A19.74,19.74,0,0,1,49.16,12Z"/><path class="cls-1" d="M138.06,13.79,124,7.23C128,6.26,135.72,9.85,138.06,13.79Z"/><path class="cls-1" d="M35.08,166.12c4.44,1.95,8.11,5.09,12.09,7.74A15.25,15.25,0,0,1,35.08,166.12Z"/><path class="cls-1" d="M164.11,149.13l2.91-2.21c-.74,4.84-3.79,7.89-7.88,10.13l-.32-.6C160.32,153.82,160.64,150.33,164.11,149.13Z"/><path class="cls-1" d="M179.94,65.26l-1.76-3.51-4-9.77C179.62,54.88,179.18,60.32,179.94,65.26Z"/><path class="cls-1" d="M106,184.88c4.44-2.33,9.38-2.77,14.18-3.71a2.61,2.61,0,0,1-2.67,2.41C113.5,183.21,109.86,185.19,106,184.88Z"/><path class="cls-1" d="M167,40,159,30.1C162.56,31,166.89,36.28,167,40Z"/><path class="cls-15" d="M84.07,4c-2.45-2.06-5.38-.41-8-1,1.13-1.13,2.73-.59,4-1.11l9.84.29c.42,1.29-.27,2-1.31,2.57C87,5.23,85.4,5.35,84.07,4Z"/><path class="cls-1" d="M139,172.74l6.31-4.72a2,2,0,0,1,.89-1.67,3.68,3.68,0,0,1,2.51-.66l.51.42C146.6,169.58,144,173,139,172.74Z"/><path class="cls-1" d="M10.05,52.89,7.09,58C6.37,53.5,8.43,50.39,12,48Q11,50.45,10.05,52.89Z"/><path class="cls-1" d="M156.15,160.05c-1.22,3.29-3.24,5.66-7,6.06L149,166c.3-4,3.72-4.79,6.49-6.22Z"/><path class="cls-1" d="M183.1,78c-1.62-1.43-.18-3.93-1.89-5.33a2.83,2.83,0,0,1-1-3.65C184.84,70.8,183,74.69,183.1,78Z"/><path class="cls-1" d="M156,27.06,150.07,22C154,21.44,155.44,23.71,156,27.06Z"/><path class="cls-1" d="M25.21,30.13a34.52,34.52,0,0,1-6,7C19.82,33.58,21.23,30.74,25.21,30.13Z"/><path class="cls-1" d="M148,20.18q-3-2-6-4.09C145.36,15.46,147.38,16.77,148,20.18Z"/><path class="cls-1" d="M181,117c0-.33,0-.67,0-1a3.45,3.45,0,0,1-.53-2c.46-1.57.23-3.41,1.8-4.53a2.22,2.22,0,0,0,.86-.38C183.4,111.91,184,114.91,181,117Z"/><path class="cls-16" d="M180.21,69c.32,1.22,1.33,2.25,1,3.65l-.3,3.34c-.9-2.58-3-5-1-7.86A5.29,5.29,0,0,0,180.21,69Z"/><path class="cls-1" d="M3.94,117.34V120C.55,118.44,2,115.53,2,113l.67-.24C4.43,113.94,3,116,3.94,117.34Z"/><path class="cls-1" d="M15.9,42c-1,1.9-1.66,4.07-3.7,5.26C13.31,45.38,11.45,41.45,15.9,42Z"/><path class="cls-17" d="M104.18,4.78c-.81-1.33-.28-1.88,1.06-1.48a10.3,10.3,0,0,0,4.84.7l1.88.18c-.76,1-1.93.73-3,.9C107.3,6.42,105.69,6.47,104.18,4.78Z"/><path class="cls-18" d="M124,177.86l1,1c-.32.94-1.4.55-2,1.1-1,.23-1.76,1.55-3.06.88l-1.92-1.69C119.74,177.22,121.64,176.52,124,177.86Z"/><path class="cls-1" d="M9.13,134c2.14,1,2.21,3.17,2.86,5C9,138.49,8.58,136.49,9.13,134Z"/><path class="cls-1" d="M6.22,126.52q1,2.23,2,4.47l.63,2C4.82,132.11,6.39,129,6.22,126.52Z"/><path class="cls-1" d="M3.93,67l0,2c.34,1.45.45,2.85-.86,3.94a2.87,2.87,0,0,1-.81.43C1.57,70.88.89,68.44,3.93,67Z"/><path class="cls-1" d="M32.83,23l-4.61,4.17C28.71,24.59,29.41,22.27,32.83,23Z"/><path class="cls-1" d="M65.09,182c2,0,4.17-.66,6,.89C69,183.38,66.69,185,65.09,182Z"/><path class="cls-1" d="M127,178.76l6-2.94C131.54,178,130,180,127,178.76Z"/><path class="cls-1" d="M51.14,175.93c2.39.09,4,2,6.09,2.7C54.14,180.13,52.7,177.88,51.14,175.93Z"/><path class="cls-1" d="M175.1,130.08l2-1.1c1.32,2.32.8,3.72-2,4C175.07,132,175.09,131,175.1,130.08Z"/><path class="cls-1" d="M171.89,139.88a11,11,0,0,1,2.16-4.91C175.68,137.65,174.15,138.92,171.89,139.88Z"/><path class="cls-1" d="M16.23,145.61c1.2,1.28,3,2.18,2.76,4.36C16.22,149.69,15.94,147.83,16.23,145.61Z"/><path class="cls-1" d="M71.07,4c-1,1.34-2.71.64-4,1.17l-1-.27C67.24,1.8,69.31,3.78,71.07,4Z"/><path class="cls-1" d="M174.1,51.88a9.73,9.73,0,0,1-2.17-4.82C174,48.06,175.73,49.21,174.1,51.88Z"/><path class="cls-1" d="M57.29,178.69c1.9.35,3.94.35,5.26,2.13C60.52,180.8,58.07,181.78,57.29,178.69Z"/><path class="cls-1" d="M14,142.22c1.12.59,1.46,1.72,1.92,2.77-.85.38-1.71.88-2.41-.22S13.67,143,14,142.22Z"/><path class="cls-1" d="M62.23,6.19a5.27,5.27,0,0,1-5.14,1.69C58.25,5.64,60.24,5.91,62.23,6.19Z"/><path class="cls-1" d="M117.09,4.84c-1.4.13-2.81.32-3.93-.85C114.55,3.92,116.33,2,117.09,4.84Z"/><path class="cls-1" d="M1.09,108l1,1.08a2.7,2.7,0,0,1,0,3.9L2,113C1,111.49-1,110.1,1.09,108Z"/><path class="cls-1" d="M55.08,9a5,5,0,0,1-4,1.82C52.23,9.78,52.65,7.2,55.08,9Z"/><path class="cls-1" d="M2,74c.1,1.72.2,3.45-.89,5C-1,76.9.89,75.53,2,74Z"/><path class="cls-19" d="M178.76,125c-1.6-2.38-.24-4.19,1.14-6Z"/><path class="cls-1" d="M167.87,145.87a5,5,0,0,1,2-3.18C171.09,145,170.29,145.93,167.87,145.87Z"/><path class="cls-1" d="M169.94,44.21a5.1,5.1,0,0,1-2-3.13C170.21,41.06,171.12,42,169.94,44.21Z"/><path class="cls-1" d="M19.18,37.09c-.23,1.29-.68,2.41-2.12,2.78C16,37.56,17.28,37.11,19.18,37.09Z"/><path class="cls-1" d="M159,30.08a7.52,7.52,0,0,1-3-3C158.32,26.76,159.32,27.75,159,30.08Z"/><path class="cls-1" d="M28.21,27.13l-3,3C24.81,27.72,25.82,26.73,28.21,27.13Z"/><path class="cls-1" d="M72.09,182.8c1.13.66,2.79-.25,3.65,1.23-1.82.83-3.29.18-4.61-1.09A4,4,0,0,0,72.09,182.8Z"/><path class="cls-1" d="M123.07,179.94l2-1.1,1.92-.06C126.27,181.26,124.77,180.94,123.07,179.94Z"/><path class="cls-1" d="M47.19,173.86c1.62.08,2.75,1.1,3.91,2C49.51,175.76,47.34,176.75,47.19,173.86Z"/><path class="cls-1" d="M122,6.23c-1-.37-2.28.2-3-1C120.8,3.1,121.32,4.83,122,6.23Z"/><path class="cls-1" d="M159.14,157.05a3.07,3.07,0,0,1-3,3l-.17-.18c-.13-2.09.92-3.05,3-3Z"/><path class="cls-1" d="M142,16.08l-3-2C141.09,13.13,141.78,14.24,142,16.08Z"/><path class="cls-1" d="M65.2,5.29c-.76,1.07-2,.63-3,.92C62.82,4.62,63.48,3.22,65.2,5.29Z"/><path class="cls-20" d="M89,3.91l.9-1.74c1.43.72,2.85.22,4.27,0-.06,1.44.87,1.88,2.06,2.06,1.24.49,2.92.63,2.1,2.71C96.13,8.28,94,5.41,91.8,6.76A18,18,0,0,1,89,8.37,1.71,1.71,0,0,1,87.82,8C86.89,6.24,88.41,5.21,89,3.91Z"/><path class="cls-21" d="M104.18,4.78l4.82.3c5.94,2.57,12.59,3.27,18.12,6.89-3.4,1.37-3.4,1.37-2.35,5.54a14.58,14.58,0,0,1-6.6,1.64c-3.06-.58-6.18-.9-9.09-2.13-1.64-.82-3.5-.73-5.23-1.21-2-.7-4.3-.15-6.06-1.65a3.31,3.31,0,0,1,.33-4.32c4.71-1.29,9.26,1.25,14.06.44-2.43-1.62-5.32-2-7.91-3.12a4.52,4.52,0,0,1-1.19-.8,1.11,1.11,0,0,1,0-1.31Z"/><path class="cls-22" d="M125.06,17c-.64-1.78-4.6-.05-3.68-3.51.69-2.58,2.39-2.2,4.25-1.58a4.92,4.92,0,0,0,1.49,0,47.23,47.23,0,0,1,15.8,8.14c-1.11,1.18-2.65,1-4,1.3s-2.61,1.26-4.11,1.24C131.32,21.14,127.09,21,125.06,17Z"/><path class="cls-23" d="M146.24,22.92A45.7,45.7,0,0,1,158.08,33l-.55.42c-2.73.37-4.29-2.44-7.15-2.49,1.85,4.44,5.81,6.36,9.51,8.56a1.87,1.87,0,0,1,.57,1.26,4.09,4.09,0,0,1-1,1.92c-1.66,1.82-3.55,2.59-5.9,1.28a5.85,5.85,0,0,1-3.17-3.78c-.18-1.24.23-2.86-1.26-3.44-4-1.55-4.5-5.69-6.65-8.61a9.34,9.34,0,0,1,1.17-3.92C144.29,23.31,146,24.57,146.24,22.92Z"/><path class="cls-24" d="M171,51a61.26,61.26,0,0,1,5,11.92c-3.13.75-6.31.42-9.47.41-1.87-3.87,2.64-2.63,3.64-4.64-4.59-3.81-7.88-8.85-11.3-13.78a1.35,1.35,0,0,1,.24-1.31,6.34,6.34,0,0,1,2.61-1c2.21-.47,3.68-.47,3.82,2.66A5.8,5.8,0,0,0,171,51Z"/><path class="cls-25" d="M171,51a6.35,6.35,0,0,1-1.18,2.53c-.53-3.69-6.74-3.62-5.45-8.41,1-3.53-1.42-1.17-2.42-1.22-.79-.86-1.81-1.58-1.93-2.89V40a10.32,10.32,0,0,1,.67-2.8l.48-.34C166,40.57,167.56,46.45,171,51Z"/><path class="cls-26" d="M166.26,63.15c3.24-1.59,6.51-2,9.82-.19l1.1,2c-.25,1.16.58,2.87-.83,3.39-1.72.65-1-2-2.37-2.26L173.3,66a6.2,6.2,0,0,0-4.78.19c-1.37.55-2.61.42-3.09-1.31a2.74,2.74,0,0,1,.26-1.35Z"/><path class="cls-27" d="M146.24,22.92c-.06,1.26,2.74,2.46.46,3.6s-1.23-2.17-2.61-2.54a1.73,1.73,0,0,1-.56-1.12,1.58,1.58,0,0,1,.62-1.09Z"/><path class="cls-28" d="M144.15,21.77,144,23.09a1.89,1.89,0,0,1-1.81.38,6.94,6.94,0,0,1-1.13-.63c-.85-1-3.09-.59-2.9-2.73h4.73Z"/><path class="cls-25" d="M158.08,33a6.12,6.12,0,0,1,3.13,3.88l-.23.2c-2.56-.08-3.8-1.22-3.1-3.89Z"/><path class="cls-29" d="M56.14,12.06c2.86-3.45,7.44-2.56,11-4.31l.59.43a6.71,6.71,0,0,1,1.41,4.72,3.56,3.56,0,0,0,1.21,4.34c-.49,2.06-2.49,1.81-3.84,2.57-5.45,2-11.05,3.61-15.54,7.56a6.73,6.73,0,0,1-1.85,1.12,3.55,3.55,0,0,1-1.45.07C46.12,28,45.23,27,45.7,25.25c2.17-1.24,2.75-4.07,5.09-5.16s4.67-2.71,7.16-3.77A14.48,14.48,0,0,0,64,12.12c-2.58-1.16-4.54,1-6.71.61A2.45,2.45,0,0,1,56.14,12.06Z"/><path class="cls-30" d="M6,67c1.82-4.43,6.48-7.46,6.29-12.87a6.11,6.11,0,0,0,.74-.17,15.62,15.62,0,0,1,3.71,4.38c1,3.22-.08,5.27-3.33,6.17a7.56,7.56,0,0,0-2.54,2,10.51,10.51,0,0,0-1.54,4.12A1.74,1.74,0,0,1,7,71.29,3.64,3.64,0,0,1,5.63,69,2.76,2.76,0,0,1,6,67Z"/><path class="cls-31" d="M51.06,21a3.71,3.71,0,0,0-2.14,2.95c-.3,1.91-1.52,1.68-2.83,1-1.94.81-3.64-1.26-5.58-.47a3.27,3.27,0,0,1-1.28-.15c-.94-.5-.69-1.49-.93-2.28a5.13,5.13,0,0,1,3.61-2.22A8.67,8.67,0,0,0,46.07,18h0c1.56-.88,3.17-2.35,5-1C52.41,18.05,52.1,19.64,51.06,21Z"/><path class="cls-32" d="M51.06,21c.76-5.06-2.36-3.62-5-3,2.71-3.08,7.15-3.22,10.08-5.92l1,.11c.13,1.67-.41,3.49,1,4.9C55.88,18.54,53.8,20.35,51.06,21Z"/><path class="cls-33" d="M27.8,32.84c1.1-2.32,3.52-3.28,5.19-5,1.86,1.52,5.27-.12,6.31,3.1-4.88,1-6.37,6.1-10.16,8.42a1.78,1.78,0,0,1-1.3-.35c-.88-1.74,0-3.27.82-4.61S28.12,33.32,27.8,32.84Z"/><path class="cls-34" d="M39,31.12c-1.24-2.5-5.32.18-6-3.3l.87-.94A4.77,4.77,0,0,0,37,23.81l1.33-1.74.81,2c1.41,2.09,3,4.1,3.6,6.63a3,3,0,0,1-.38,1.39,2.91,2.91,0,0,1-1.31.63C40,32.66,39,32.49,39,31.12Z"/><path class="cls-35" d="M27.8,32.84c1.36-.22,2.81-.52,2,1.72-.56,1.5-1.71,2.78-1.66,4.5a2.06,2.06,0,0,1,.57,1.16,3.42,3.42,0,0,1-.29,1.3c-1.3,2.35-2.72,1.85-4.2.19-.73-.84-1.61-1.61-1.57-2.87.62-2.4,3-3.31,4.32-5.11C27.24,33.44,27.52,33.14,27.8,32.84Z"/><path class="cls-36" d="M23.06,39l2,2.13a6,6,0,0,0-.76,3.78c.34,2.73-.91,4-3.57,4a3.69,3.69,0,0,1-3.06-2c-.1-1-.34-2.07.61-2.88,2.57-.72,2.64-3.33,3.84-5.1C22.39,38.53,22.72,38.51,23.06,39Z"/><path class="cls-37" d="M18.23,44.09,18.08,47a5.94,5.94,0,0,1-3,6.44A2,2,0,0,1,12.91,53C13.77,49.48,16.12,46.86,18.23,44.09Z"/><path class="cls-15" d="M68.08,6c4-.19,8-1.65,12.12-.94-3.64,4-8.33,3.58-13,3.14l-.06-.45C67.43,7.17,67.76,6.59,68.08,6Z"/><path class="cls-38" d="M12.91,53l2-.15c2.58,0,2.78,1.89,2.86,3.82-.23.81-.63,1.43-1.59,1.41-2.49-.28-2.74-2.26-3.15-4.12A2.25,2.25,0,0,0,12.91,53Z"/><path class="cls-33" d="M23.06,39h-1c.6-2.7,2.59-4.12,4.88-5.26C26.48,36.09,23.91,36.9,23.06,39Z"/><path class="cls-32" d="M46.07,18c-.81,1.89-2.35,2.17-4.16,1.87A8,8,0,0,1,46.07,18Z"/><path class="cls-33" d="M37,23.81c.08,2.15-.91,3.22-3.11,3.07Z"/><path class="cls-39" d="M37.15,163.84C29.9,157.71,22.86,151.38,18.08,143c1.3-1.09,2.29,0,3.38.45a5.28,5.28,0,0,0,3-.21,5.34,5.34,0,0,1,1.32-.09,5.26,5.26,0,0,1,4.21,3.7c1.58,4.22,4.69,7,8.42,9.21C38.57,158.73,37.63,161.25,37.15,163.84Z"/><path class="cls-40" d="M84.17,182.88c-3.56-1.46-7.58-.19-11.09-1.9L71,180c-.45-2.21-1.5-4.61,1.77-5.65a4.27,4.27,0,0,1,1.38.06c3.5,2,7.26,2,11.09,1.34a7,7,0,0,1,2.57,4.33C88,182.82,85.52,182.12,84.17,182.88Z"/><path class="cls-41" d="M65.18,178.85A59.41,59.41,0,0,1,54.06,174c0-5.15,3.91-4,6.92-4.43,2.89.11,5.86,0,7.72,2.89.59,1.58.67,3.09-.55,4.43a.92.92,0,0,1-.86.08,7.55,7.55,0,0,1-1.08-.88c.05.48.59.49.8.83C67.77,178.86,65.7,178.11,65.18,178.85Z"/><path class="cls-42" d="M10.07,130c0-.34,0-.68.07-1l.58-.4c4,1,4,1,5.88-3a1.9,1.9,0,0,1,2,.68c1.32,2.62.56,5.52,1.16,8.24-.1,2.18,1.58,5.26-.95,6.28-2.2.88-2.87-2.58-4.49-3.81l-1-1c-1.26-1.33-1.09-3.35-2.25-4.73Z"/><path class="cls-43" d="M45.05,169c-1.45-.83-3.16-1.27-4.1-2.84,1.11-1.71,3.12-1.26,4.66-1.94,2.36-.36,3.59-3.13,6.21-2.94a1.91,1.91,0,0,1,1.52,1.22c-.49,1.7-.36,3.53-1,5.21C50.45,171.27,47.94,171.2,45.05,169Z"/><path class="cls-44" d="M45.05,169c3,1.6,5.12.17,7-2,3.11,1.1,7.09.21,9,4-2.81-.09-5.77-.51-7,3C51,172.44,47.35,171.93,45.05,169Z"/><path class="cls-45" d="M14.31,136.91l4.35,3.21c1.25-1.59-.86-3.52.4-5.14,1.7-.36,2.1,1,2.71,2.05a10.87,10.87,0,0,1,.54,3.71,10.65,10.65,0,0,1-.15,2.25,4.12,4.12,0,0,1-1.06,1.94c-1-.61-1.44-2.2-3-2A14.81,14.81,0,0,1,14.31,136.91Z"/><path class="cls-46" d="M65.18,178.85l1.9-1.88h0c1.48-1.05.87-2.62,1-4,2.11-.46,4.28-1,5,2-1.47.9-2.79,1.88-1.27,3.75,1,1.29-.16,1.1-.79,1.31Z"/><path class="cls-47" d="M37.15,163.84c-1.79-2.89-.15-5.32,1-7.82a3.76,3.76,0,0,1,3.72-1.82,3,3,0,0,1,1.26.58c.59,1.78-.64,2.83-1.73,3.77a5.86,5.86,0,0,0-2,4.83c-.32.66-.73,1.16-1.56.77A2.1,2.1,0,0,1,37.15,163.84Z"/><path class="cls-48" d="M37.87,164.15,39.08,163c.88-.48,1.64,0,2.41.29,1.31.69,2.88.51,4.18,1.25l.41.48c-1.41,1.7-3.43.72-5.13,1.17A4.48,4.48,0,0,1,37.87,164.15Z"/><path class="cls-11" d="M11.05,131.18c1.54,1.2,1.91,3,2.25,4.73C11.41,134.88,11.12,133.08,11.05,131.18Z"/><path class="cls-49" d="M175.07,89c-.34.71-1,1.41-1,2.12A28.41,28.41,0,0,0,178.06,106c1.54,3.14.46,5.12-2.73,6.18-2-.74-1.84-2.36-1.85-4.09,0-4.61-.19-9.22-2.35-13.47-.67-2.57-.08-5.29-1-7.83-.63-2.72-.11-5.58-1.07-8.27.05-2.63-.69-6,4-4.45.17,1.36-.43,2.92,1,3.94l.47.43c.85,1.54.44,3.35,1.06,4.94a11.77,11.77,0,0,1,.34,1.26,6,6,0,0,1-.37,3.91Z"/><path class="cls-50" d="M174,66.11c.1,1.66.21,3.33-1,4.72-1,1.17-2.33.42-3.49.66A34.79,34.79,0,0,0,166.1,73c-3.67,2.12-8,2.45-11.81,4.11a19.13,19.13,0,0,1-8.23,2c-1.08-.22-2.06-.57-2.26-1.85,1.41-3,4.6-2.89,7.1-3.94,1.68-.71,3.39-1.31,5-2.15,3.89-1.88,8.19-2.07,12.31-3,2-.5,3.52-2.44,5.83-2.12Z"/><path class="cls-51" d="M174.06,78c-.28-1.86.53-2.66,2.4-2.64s1.63,1.34,1.57,2.41c-.2,3.48,3,6.3,1.91,9.94-.43,1.39-.75,2.93-2.59,3.18A1.82,1.82,0,0,1,175.07,89h0a5.42,5.42,0,0,0,0-5h0c-1.23-1.85.31-4.16-1-6Z"/><path class="cls-52" d="M175.09,112c2.32-1.33,2.93-3.5,3-6,3.21-1.48,1.33-4.69,2.37-7,1.13,1.31.35,2.8.67,4.11a15.62,15.62,0,0,1,0,7.83c-.09,1.63-.39,3.17-1.95,4.1l-1,2.1c-.86-.52-1.47-1.38-2.4-1.83a2.88,2.88,0,0,1-1.23-2.16c0-.21.09-.43.14-.64S174.94,112.11,175.09,112Z"/><path class="cls-53" d="M183.46,85c1.14,3.94.44,8,.45,12l-1.74,3.82c-.38-6.48.32-12.21-1-17.77.27-.46.54-.44.81,0C182.11,83.91,182.36,84.76,183.46,85Z"/><path class="cls-54" d="M173,74.05c-4.2-.28-2.6,2.88-2.92,4.9l-.09.66c-.27.86-.53,1.75-1.75,1.52-1.12-.78-1.1-1.9-.92-3.07.48-1.53.43-3.2,1.23-4.64.17-.16.35-.31.53-.46C170.34,73.59,172.29,71.64,173,74.05Z"/><path class="cls-55" d="M180.16,111.05c1.29-2.56.8-5.32.94-8,1.82,1.85.45,4.26,1.11,6.31-.3,1.61.36,3.43-1,4.81C180,113.4,181.05,111.9,180.16,111.05Z"/><path class="cls-56" d="M166,72.17c.67-1.33,1.9-1.15,3.07-1.16.33.21.44.43.33.64s-.22.31-.33.31c0,.34,0,.67,0,1l-.1.09c-1,.84.14,2.48-1.22,3.18C165.81,75.48,165,74.21,166,72.17Z"/><path class="cls-57" d="M178.84,93.24c-.46.54-.71,1.11-1.06,1.18-1,.21-1.46-.54-1.43-1.4,0-.31.68-.89.89-.83A6.93,6.93,0,0,1,178.84,93.24Z"/><path class="cls-58" d="M169.09,72a5,5,0,0,1,0-.95l3.88-.18C172.34,73.46,170.3,71.29,169.09,72Z"/><path class="cls-59" d="M182,83h-.81V78.21C182.43,80.17,181.92,81.6,182,83Z"/><path class="cls-60" d="M124,177.86l-5.89,1.26c-5.4,2.57-11.47,2.06-17.06,3.77-.83-1-2.25-.86-3.26-1.55-1.13-.92-3-.84-3.49-2.63a3.23,3.23,0,0,1,.47-2.67,3.64,3.64,0,0,1,2.69-.49c5.78-.18,11.49-1.05,17.22-1.76,1.21-.26,2,.45,2.87,1.12.62.28,1.16,1.72,1.9.11,2.64-1.88,2.64,2.43,4.67,2A6.5,6.5,0,0,1,124,177.86Z"/><path class="cls-61" d="M94.88,178.87c.63,1.33,3.45-.67,3.16,2.08-.18,1-1.09,1.4-1.82,1.92-2.08-.19-4.17-1.46-6.25,0-1-1-1.85-2-1.32-3.58.63-1,1.51-.55,2.35-.41C92.29,179.24,93.58,177.86,94.88,178.87Z"/><path class="cls-62" d="M89.19,179l.78,3.93h-5.8c.72-1.21,3.09-.76,2.89-2.89.6-1.67-.75-3.69.92-5.17a1.33,1.33,0,0,1,1.48.34A3,3,0,0,1,89.19,179Z"/><path class="cls-23" d="M96.22,182.87A3,3,0,0,1,98,181c1.38.06,2.91-.12,3,1.94Z"/><path class="cls-63" d="M8,119.85c-3.95-2.16-1.7-6.88-4-9.71C2.41,110.21,2.7,109,2.6,108a6,6,0,0,1,.25-2.23C4.4,102.33,2.87,98.51,4,95l.33-1.93a2,2,0,0,1,2-.7,2.38,2.38,0,0,1,1.21.8A4.58,4.58,0,0,1,8,96c-.13,4.8-.43,9.64,3.26,13.51a14.29,14.29,0,0,0,2.89,3.27c.47,1.77-1.14,1.93-2,2.67a7.16,7.16,0,0,0-1.26,1.26,11.44,11.44,0,0,1-.75.94C9.43,118.37,9,119.33,8,119.85Z"/><path class="cls-64" d="M6.14,92.93l-1.77.12c-.09-.69-.19-1.38-.28-2.07a8.23,8.23,0,0,1,0-6c-.34-4.16,1.73-7.93,2-12-.48-1.15.15-1.68,1.12-2a1.94,1.94,0,0,0,1.9-1c1-.77,1.7-.47,2.26.52.27,1.2-2.59,3.25,1,3.54-.07,3-2,5.58-1.54,8.63-1,2.81.76,6.29-2.07,8.66a2.56,2.56,0,0,1-1.45,0,19.55,19.55,0,0,1-.52-10.13c-1.3,3.79.16,6.75-.13,9.69A2.13,2.13,0,0,1,6.14,92.93Z"/><path class="cls-65" d="M6,67c0,.68,0,1.37,0,2.05,1.2,1.69-.37,2.7-1,3.95-.43,1-.85,2-1.28,3-1.4-.77-.33-2.12-.75-3.1.33-1.3-.68-2.9.86-3.94Z"/><path class="cls-66" d="M4,95c.2,2.88-.41,5.8.71,8.63a1.73,1.73,0,0,1-1.38,2.55c-1.27-1.26-.83-2.67-.34-4.08C3.48,99.73,2.18,97.13,4,95Z"/><path class="cls-67" d="M3,108c.35.73.69,1.45,1,2.17l-.09,7.2c-1.65-1-.16-3.36-1.83-4.37l0-3.9L2.45,108Z"/><path class="cls-68" d="M3,108H2.45c-.11-2-1.05-4.07.58-5.9.12,1.36.23,2.72.34,4.08C3.25,106.76,3.12,107.37,3,108Z"/><path class="cls-66" d="M4.07,85c0,2,0,4,0,6C2.52,89,2.66,87,4.07,85Z"/><path class="cls-8" d="M5.08,73c.32-1.32.65-2.64,1-3.95L7.18,71,6.06,73Z"/><path class="cls-69" d="M124.1,177c-2,1.2-2.8-3.25-5-1-.74-1-1.46-.73-2.18,0l-1.8-2-.36-.48a6.93,6.93,0,0,0-.9-3.46,1.64,1.64,0,0,1,.27-1.27c2.78-1.33,5.41-3.2,8.76-2.29,1.45,1.18,2,3,3,4.44,1.44,1.92.93,3.64-.84,5.09Z"/><path class="cls-70" d="M125.12,176c.64-2.05,1.34-4.05-1-5.65-1.17-.79-1-2.29-1.11-3.59.11-1.28.92-1.37,1.93-1.14,1.08,2.09,3.27,1.43,5,2-.71,2.81,3.7,2.57,3.15,5.28C130.81,175,127.8,175.11,125.12,176Z"/><path class="cls-71" d="M142.05,167c-.72,1.78-2.51,2.19-3.93,3.07-2.27,1-3.56-.78-5.15-1.75a2.59,2.59,0,0,1-.47-1.37,2.23,2.23,0,0,1,.61-1.29c3.28,1,2.86-1.74,3.49-3.43a1.51,1.51,0,0,1,1.24-.55C139.7,163.07,141.79,164.3,142.05,167Z"/><path class="cls-72" d="M133,167c0,.3,0,.6.07.9,1.92,1,4,1.89,1,4.05l-1,.94c-.33-.78-.78-1.47-1.73-1.46-3.9.05-2.22-1.84-1.24-3.5a.9.9,0,0,1,.17-1.33A2.16,2.16,0,0,1,133,167Z"/><path class="cls-73" d="M142.05,167c-1-1.94-4-2.25-4.07-4.94.18-2.55,1.89-.89,2.93-1.08a23.37,23.37,0,0,1,3.7,1.34,2,2,0,0,1,.8,1c-.06,1.67-.61,3-2.32,3.65Z"/><path class="cls-74" d="M143.09,167l2-4c3.25.66,2.66,2.29,1.06,4.18-.28.3-.57.59-.85.88C144.42,167.93,143.56,167.85,143.09,167Z"/><path class="cls-70" d="M134.07,172c1.44-1.78.11-2.88-1-4.05,2.22-.57,3.11,2,5,2.13A5.93,5.93,0,0,1,134.07,172Z"/><path class="cls-73" d="M146.12,167.14c.67-1.65.52-3.1-1.06-4.18v0c.15-1.56-2.14-2.3-1.36-4.08,1-1.41,2.21-1.48,3.57-.55a5.16,5.16,0,0,1,1.28,1.48c3.57.9,4.11-2.66,6.07-4.11,1.59-1.22,2.74-2.86,4.21-4.19a11.28,11.28,0,0,0,1.72-1.8,6.88,6.88,0,0,1,2.32-2.07,1.16,1.16,0,0,1,1.15.27c0,.4.05.8.08,1.2q-2.6,3.85-5.18,7.7l-3,3c-2.45,1.87-5,3.61-6.93,6.08Z"/><path class="cls-41" d="M161.07,150.05a1.87,1.87,0,0,1-1.08,1.86c-.75-.42-1.92-.13-2.23-1.29,0-1.9,1.23-3.72.34-5.69-.22,1.2-.51,2.31-2.08,2.22-1.19-1.17-1.56-2.78-2.29-4.21a11.19,11.19,0,0,1,5-7.21c1.76.7.91,3.23,2.74,3.89a26.45,26.45,0,0,0,3.74,2.45,2.61,2.61,0,0,1,.93.91l-2.06,5a8.91,8.91,0,0,1-.89.08C161.83,148.06,161.69,149.3,161.07,150.05Z"/><path class="cls-75" d="M175.1,127l-.9,2c-.33,2.38-1.92,4.1-3.14,6a.87.87,0,0,1-1.25,0,3.12,3.12,0,0,1-.43-2c-.5-2.14,2.39-4.86-1.13-6.48a2.13,2.13,0,0,1-.73-1c0-1.47-.3-3,.26-4.42a2,2,0,0,1,1.14-.52,7.07,7.07,0,0,0,4.88-.88,2.72,2.72,0,0,1,1.33,0,2.45,2.45,0,0,1,1.25,1.48,2.31,2.31,0,0,1-1.61,2.27c-.55.25-.16-.65-.31,0s.61.21.71.6A2.84,2.84,0,0,1,175.1,127Z"/><path class="cls-76" d="M170.05,135h1c-1.69,2.65-2.1,6.09-5,8l-1.06,0C164.52,138.9,166.27,136.3,170.05,135Z"/><path class="cls-77" d="M8.28,125c-.07-1.35-.13-2.69-.2-4,2.76,0,5.62,1.45,8.25-.56,1.85-.11,2.68,1,3.08,2.58a1.66,1.66,0,0,1-.45,1.37C15.48,125.85,12,127.05,8.28,125Z"/><path class="cls-78" d="M8.28,125c3.53-.32,7.13.21,10.59-1a1.38,1.38,0,0,1,.47,1.87.89.89,0,0,1-1.24.08h-2c-1.47,1.78-4.36.75-5.67,2.87l-.26.1C9.09,127.84,8.07,126.71,8.28,125Z"/><path class="cls-79" d="M16.22,121.13c-2.78,3.4-5.46,1.76-8.14-.16,0-.37,0-.75,0-1.12,0-1.43.05-2.8,1.93-3a2.5,2.5,0,0,1,.9,1c.4,2.56,2.16,2.84,4.28,2.55A1.79,1.79,0,0,1,16.22,121.13Z"/><path class="cls-80" d="M103,5.05c.08.27.14.54.2.82a7.29,7.29,0,0,1-.49.74c.66.29.92-.31,1.32-.59,2.83.77,5.68,1.48,8.49,2.33,1,.31,2.31.67,1.7,2.36-.4,1.11-.53,2.14-2.26,1.76-4.29-.93-8.62-1.66-12.93-2.47-1.24-.69-2-1.52-1-3,.27-1.5-1.14-1.93-1.8-2.83C98.62,3.63,100.81,4.47,103,5.05Z"/><path class="cls-81" d="M67.17,8.21l13-3.14A4.69,4.69,0,0,0,84.07,4l5-.09C90.42,5.72,87.4,6.38,88,8c.75,1.79-.11,3.32-1.65,3.47-5,.48-9.57,2.74-14.59,2.82a4.1,4.1,0,0,1-3.55-1.44Z"/><path class="cls-19" d="M175.1,127c-.08-1.08.16-2.27-1-3-.6-.31-.61-.65,0-1A3.19,3.19,0,0,0,176,120.9c-.89-2-.18-3,2-3C177.09,121,177.12,124.31,175.1,127Z"/><path class="cls-82" d="M178,117.93a3.43,3.43,0,0,0-2,3l-1-.86a3.11,3.11,0,0,1-.62-2.83,3.42,3.42,0,0,1,1.81-2.31c2.56-1,1.69,1.11,2,2.17A3.13,3.13,0,0,0,178,117.93Z"/><path class="cls-83" d="M180.16,111.05c1.13.77.77,2,1,3.11l-.24,1.78-1.76-1C179.5,113.66,179.83,112.36,180.16,111.05Z"/><path class="cls-50" d="M88.9,8,91,5.89c3.08-1.07,4.61.46,5.28,3.25.37,1.57.35,3.24,1,4.76.33,1.6-1.1,2.53-1.44,3.89-.82,11.94-.11,23.87-.36,35.8-.12,5.8.33,11.61-.27,17.4-.8,1.94-1.78,3.15-3,.35-.76-1.69-.49-3.59-.49-5.4-.07-17.72.08-35.44-.09-53.13-.32-1.66-2.45-.84-3-2.16A3.22,3.22,0,0,1,88.9,8Z"/><path class="cls-84" d="M88.9,8l.33,2.83a2.82,2.82,0,0,1,.35,2.84,1.79,1.79,0,0,1-1.13.8c-3.35-.86-6.66-1.4-9.57,1.21-.59.37-1.2.71-1.82,1a14.8,14.8,0,0,1-2,.76c-1.66.39-3.34,1-4.86-.37-4.84.56-3.09-2-2-4.25,6.4,1.58,12-2.94,18.3-2.46.43,0,1-1.55,1.49-2.39Z"/><path class="cls-85" d="M97,14A3.66,3.66,0,0,1,95,10c.32-3-1.26-4.13-4-4.07,2.78-2.26,4.77.34,7.06,1.13.34,1,.67,2,1,3-1.42,1.06-.87,2.59-1,4A.76.76,0,0,1,97,14Z"/><path class="cls-86" d="M109.1,15.82l9,2.18c6,1.3,11.73,3.14,16.4,7.39a3.56,3.56,0,0,1,1.08,2.76,1.84,1.84,0,0,1-1.64,1.37c-6.73-3-12.86-7.26-20.13-9.06-2.16-.54-4.66-.6-6-3a1.78,1.78,0,0,1,.6-1.36Z"/><path class="cls-87" d="M133.92,26.05c-4.66-3.93-10.79-4.94-15.86-8l7-1,10.16,5C136.17,23.8,135.44,25.05,133.92,26.05Z"/><path class="cls-88" d="M97,14l1.1-.08c2,.33,4.22-.57,6.07.9,0,.23,0,.46-.05.69a2.63,2.63,0,0,1-1.65,2.12c-2.2.44-4.23-.38-6.31-.81A2.75,2.75,0,0,1,95.05,16Z"/><path class="cls-89" d="M117.88,10.17c.86.17,1.68.52,1.5,1.53s-1.07,1.22-1.93,1.15a1.23,1.23,0,0,1-1.2-1.31A1.33,1.33,0,0,1,117.88,10.17Z"/><path class="cls-90" d="M104.06,6c-.11,1.38-.71,2.17-2.2,1.76-.63-.18-1.36-.79-.88-1.3s1.47-.43,2.25-.61A6,6,0,0,1,104.06,6Z"/><path class="cls-88" d="M104.18,14.86c1.64.34,3.48-.35,4.92,1l-.08.27c-1.85.61-3.87,2.13-5-.95Z"/><path class="cls-91" d="M133.92,26.05c.43-1.35.87-2.7,1.3-4.05l3-1.89c.8,1.52,3.15.21,3.76,2.07-2.32,1.5-3.63,3.81-4.91,6.14a1.51,1.51,0,0,1-1.9-.39Z"/><path class="cls-92" d="M157.88,33.17a6.58,6.58,0,0,0,3.1,3.89c-.21,1,1.67,2.66-.92,2.93a14.92,14.92,0,0,1-11.59-11C152.16,29.16,154.87,31.51,157.88,33.17Z"/><path class="cls-93" d="M151.09,40,154,43a1.15,1.15,0,0,1,.45,1.17,3.09,3.09,0,0,1-1.6,2.11,1.89,1.89,0,0,1-1.28-.37c-4.2-4.42-7.94-9.35-13.71-12-.08-2.2,1.54-2.87,3.18-3.53C145.47,32.45,148.6,35.88,151.09,40Z"/><path class="cls-94" d="M151.09,40l-10-9c-1.13-1.79-.23-2.68,1.43-3.23l.66.32c.72,3.55,2.3-1.69,3.2,1.23-1.29,2.64-.74,5.1,3.44,6.27C151.71,36.1,152.41,38,151.09,40Z"/><path class="cls-24" d="M154,44c0-.34,0-.67,0-1,2.1,1.62,3.51-.12,5.08-1a1.36,1.36,0,0,1,.21,1.8l-.24.28c-.4,1.56-1.05,2.85-3,2.63C154.67,46.31,153.71,45.64,154,44Z"/><path class="cls-95" d="M159.27,43.79l-.21-1.8,1-.94c1.32.51,2.19,1.33,1.93,2.89Z"/><path class="cls-94" d="M142.1,22.9l1.93.19c0,.3,0,.59.06.89-.21,1.39.42,3-.91,4.1l-.12-.09a5.1,5.1,0,0,1-1.52-2.74,4,4,0,0,1-.11-1.28A2,2,0,0,1,142.1,22.9Z"/><path class="cls-96" d="M156,46c1.53.14,2-1.36,3-2,3.53,1.18,4.06,5,6.28,7.44,1.8,1.92,3.4,4.15,5.57,5.82s1.69,2.91-.8,3.47c-1.58.36-3.38.19-3.82,2.35l-.12-.08c-.16,0-.42.14-.47.08C161.73,57.86,158,52.43,156,46Z"/><path class="cls-97" d="M156,46a125.55,125.55,0,0,1,10.12,17,2.51,2.51,0,0,1-.16.9c-.48.86-1,1.61-2.2,1.21a7.07,7.07,0,0,1-2.52-3.34c-1.69-4-4.17-7.47-6.44-11.1-.9-1.44-2.58-2.7-1.74-4.81A1.94,1.94,0,0,1,154,44Z"/><path class="cls-98" d="M164.07,65.22,166,64c.48,2.37,1.53,1.71,3,.76,2-1.33,3.92-1.26,5.08,1.28-1.25,1.69-3.32,2-5,3-2.52,1.14-4.93-.14-7.39-.33a1.17,1.17,0,0,1-.6-1.71,3,3,0,0,1,1-.72A7.33,7.33,0,0,0,164.07,65.22Z"/><path class="cls-99" d="M142.1,22.9c0,.37,0,.74,0,1.11-1.58,1.49-1.82,4.7-5.11,4-.34-3.65,1.29-5.62,5-5.79Z"/><path class="cls-100" d="M70.19,17.07l5-1c2.31,1,4.76.05,6.94.52.83,0,0-1.12.22-.49,0,.09-.06.14-.28.16-1.73.19-3.48.68-5.1-.4l1.16-.83a26.12,26.12,0,0,1,5.72-1.33c1.91.13,3.77.7,5.69.78a1.14,1.14,0,0,1,.88,1.1c-.16.62-1.09,1.22-.78,1.69,2.06,3.11,0,4.51-2.42,4.69-12.3.88-23.33,5.33-33.85,11.37a3.1,3.1,0,0,1-1.46.23c-2.78-1-4.48-2.5-2.81-5.68L50,27c4.28-1.64,8-4.46,12.33-6,2-.69,3.95-1.67,6.87-1.35-1.57-.29-2.59.19-3.3-.71Z"/><path class="cls-101" d="M49.05,27.9a4.88,4.88,0,0,0,3,5.09,9.85,9.85,0,0,1,1.71,1.64,28.56,28.56,0,0,1,1.94,2.31,47.06,47.06,0,0,0,3,3.93,56.19,56.19,0,0,0,3.23,4.72c2.13,2.27,3.84,4.89,5.84,7.27,1.35,2.44,3.52,4.44,4.07,7.33a2.09,2.09,0,0,1-1.49,2.23c-2,0-2.92-1.51-4-2.76-2.48-4.72-6.43-8.42-9-13.06-3.95-4.49-6.72-9.86-10.67-14.36a3.82,3.82,0,0,1-.32-2.11A2.7,2.7,0,0,1,48.09,28Q48.57,28,49.05,27.9Z"/><path class="cls-102" d="M58.15,17.07c-5.56-.56-2.12-3-1-4.9,2.8-.93,6.86-3.55,8.09-.39C66.06,14,61.6,16.54,58.15,17.07Z"/><path class="cls-103" d="M65.94,18.92l4.31.3A64.85,64.85,0,0,0,53,27c-.93.57-2,1.43-3,0C54.31,22.24,60.21,20.74,65.94,18.92Z"/><path class="cls-3" d="M48.09,28,47,30.11A12.35,12.35,0,0,1,40,24c2.51-2.63,4.25-.62,6.05,1A3.18,3.18,0,0,0,48.09,28Z"/><path class="cls-104" d="M11.14,71a1.59,1.59,0,0,0-2.06-1A5.37,5.37,0,0,1,10,65.88c6.06,1.31,12,3.41,18.3,3.16a2.3,2.3,0,0,1,1,1.7c.23.35-1.14.77.13,1.13,6.41,1.78,12.71,3.94,19.09,5.82,3,1.15,6,2.49,9.23,2.75,1.55-.15,3.2-.81,4.47.75.71,1.75,2.57,1.66,3.91,2.41s3.14,1,3.08,3.11c-1,1.5-2.58,1.46-4.13,1.45a56.81,56.81,0,0,1-9-2.24c-3.64-1.67-7.55-2.54-11.35-3.7a36.39,36.39,0,0,0-9.48-3.39c-1.15-.35-2.29-.72-3.44-1A50.69,50.69,0,0,1,21.7,74a12.83,12.83,0,0,0-6.24-1.64C13.9,72.21,12.29,72.3,11.14,71Z"/><path class="cls-105" d="M28.09,70c-3.41-.82-6.87.92-10.46-.78-2.45-1.16-5.34-1.52-7.6-3.3a3.13,3.13,0,0,1,2-1.87c1.88-1.13,3.72,0,5.58.07a16.5,16.5,0,0,1,2.53,1.06c1.17,1.28,2.56.8,3.94.48,2.4.3,2.41-1.84,3.14-3.16,4.17-7.56,8.48-15,15-20.85,2-1.76,3.86-3.72,6.9-3.26a2,2,0,0,1,1.33,1.55c-2.47,4.62-6.93,7.47-10.25,11.34C35.36,57,32.52,64,28.09,70Z"/><path class="cls-37" d="M18,64.9,12.06,64c2.71-1.05,4.87-2.5,4.14-5.94L17.08,57c.56-3.36,1.33-6.62,4.18-8.91,1.42-.38,2.84-.47,1.82-2.79-.71-1.61-1.08-3.9,1.93-4.18,1.14,2.57,2.07.44,3.06-.14a3.83,3.83,0,0,1,2.56,3.23C26.56,51.19,22.91,58.43,18,64.9Z"/><path class="cls-106" d="M40,24c3.26,1,4.67,4,6.91,6.14,0,.63.09,1.26.14,1.88a2.15,2.15,0,0,1-1.89.62,5.9,5.9,0,0,1-3.05-1.5c-.73-2.48-4-3.84-3-7A7.32,7.32,0,0,1,40,24Z"/><path class="cls-107" d="M39,31.12l2.07.85c.4,2.9-1.59,3.82-3.78,4.58A4.1,4.1,0,0,0,32.89,38c-.95,1.13-2.17,2.21-3.84,1a55.58,55.58,0,0,0,4-6C34.5,30.18,37.13,32,39,31.12Z"/><path class="cls-108" d="M29.05,39c2.1,0,3.2-1.42,4-3,1.41-2.72,2.68-1.29,4,.05.44,2.88-1.77,3.73-3.69,4.82-1.77.15-3.79,1.73-5.13-.84a1.77,1.77,0,0,1-.14-.91Z"/><path class="cls-109" d="M33.16,40a10.56,10.56,0,0,0,3.92-4,10.51,10.51,0,0,0,4-4,1.88,1.88,0,0,1,.81-.09c1.61-.61,2.77-.41,2.1,1.63-.58,1.77-2.14,2.92-3.45,4.18-5.14,5-9.88,10.24-13.36,16.52a11.4,11.4,0,0,1-.57,1.23c-1.18,2.31-3.22,4.13-3.91,6.75A8.86,8.86,0,0,1,20.08,66,2.19,2.19,0,0,1,18,64.9c2.83-7.66,7.41-14.31,12.1-20.9A4.88,4.88,0,0,1,33.16,40Z"/><path class="cls-110" d="M26.08,55c1.06-5.45,5.36-8.83,8.51-12.88,2.32-3,5.28-5.43,8-8.1,1.22-1.2,1.08-1.91-.68-2.13a2.91,2.91,0,0,1,.26-.77c1.07,0,2.19-.21,2.91.9.82.54,1.62,1.1,1.23,2.3C40,40.1,34,46.14,29.36,53.45,28.69,54.53,27.67,55.55,26.08,55Z"/><path class="cls-107" d="M33.16,40c-1,1.34-2,2.67-3.07,4-.62-1-2.17-1.47-2-3,.06-.33.13-.66.19-1C29.89,41.16,31.53,39.55,33.16,40Z"/><path class="cls-30" d="M21.26,48.08c-.44,3.42-3,5.85-4.18,8.91a5.7,5.7,0,0,0-2.14-4.15q1.58-2.93,3.14-5.85Z"/><path class="cls-111" d="M42.16,154.79l-4,1.23c-5.23-.09-7.13-4.2-8.95-7.93-1-2.06-1.68-3.82-4.16-4.12-.84-.84-1.64-1.69-1.18-3,1.67.25,2.6-.59,3.08-2.1,2.12-.26,2.84,1.54,3.74,2.78C34,146.09,38,149.76,42,153.48A1.31,1.31,0,0,1,42.16,154.79Z"/><path class="cls-112" d="M24.08,141c.34,1,.67,2,1,3l-1.17.08a3,3,0,0,1-2.83-1l.12-2A2,2,0,0,1,24.08,141Z"/><path class="cls-113" d="M21.08,143l2.83,1c-.65,1.21-1.73,1-2.81.88C21.09,144.3,21.08,143.66,21.08,143Z"/><path class="cls-114" d="M73.08,175c-1.29-1.6-3.58-.72-5-2-1.88-2.27-4.49-2-7-2-2.53-2.39-6.93-.57-9-4,.35-1.38-2.33-3.63,1.18-4.1,1.7-1.12,3.18-.08,4.61.61,4.29,2.07,9,3.18,13.18,5.46a31,31,0,0,1,3.31,2.76,2.81,2.81,0,0,1,.22,2.75l-.49.53Z"/><path class="cls-46" d="M74.07,172a3,3,0,0,1-3-2c5.37-1.6,10.36.84,15.54,1.4,1.77,2.35.33,3.58-1.62,4.64-3.92,2.73-7.51,1.86-10.92-1v-.05c1.9-1.79,4.07-.39,6.25-.55C78.24,173.35,75.73,173.71,74.07,172Z"/><path class="cls-115" d="M85,176l2.14-3.83a1.9,1.9,0,0,1,1-1.69,3.78,3.78,0,0,1,1.36-.3,2.24,2.24,0,0,1,1.81.93c.44,2.46-1.43,3.1-3.09,3.91-.38,1.66.5,3.63-1.19,5C86.38,178.65,85.05,177.65,85,176Z"/><path class="cls-46" d="M67.08,177c-1.34-.23-3.15.69-3.79-1.28-.3-.93.36-1.39,1.41-1.39,1.87,0,2.67.82,2.37,2.67Z"/><path class="cls-116" d="M18.1,126l1.21-.07c1.4-.07,1.9,1.09,2.65,1.92C23,129.39,24.05,131,23.87,133a6,6,0,0,1-2.79,4l-2-2C17.13,132.15,18.48,129,18.1,126Z"/><path class="cls-117" d="M10.4,128.86c-.18-5.06,3.74-2,5.68-2.87,1.14,1.86,1.37,3.64-.65,5C12.63,133,12.63,128.33,10.4,128.86Z"/><path class="cls-118" d="M88.17,171.17l-1,1c-5.49.28-10.72-1.38-16.06-2.21l-17.83-7.07-1.15-1c-1.6-1-3.93-1-4.42-3.38.49-2,.72-4.27,3.79-3.31,3.27,4.94,8.75,6.32,13.81,7.81,6.6,2,13.14,4.38,20.14,4.85C87.15,167.94,89.28,168.4,88.17,171.17Z"/><path class="cls-119" d="M48.09,159c1.44.83,3.18,1.25,4,2.91-2.67-.24-3,4-6,3.12h0a3.76,3.76,0,0,1-1.45-2.38C45,160.65,45.41,158.71,48.09,159Z"/><path class="cls-39" d="M21.08,137c-.12-1.85,1.59-2.73,2.23-4.17A5.87,5.87,0,0,1,27.06,139c.47,2.88-1.38,2.22-3,1.95l-2.89,0C21.16,139.67,21.12,138.32,21.08,137Z"/><path class="cls-120" d="M41.12,163.94l-2-1c-1.65-1.77-1.09-3.1.63-4.53,1.24-1,2.91-1.71,3.43-3.48,2.46-1,2.65.8,3,2.41-.15,2.81-2,4.71-3.68,6.67A.89.89,0,0,1,41.12,163.94Z"/><path class="cls-121" d="M45.11,158c-.06-1.41.07-2.93-2-3.05l-1-.16A3.88,3.88,0,0,1,42,154a2.71,2.71,0,0,1,1.5-1.07c1.48-.33,2.29-1.7,3.59-2.34a2,2,0,0,1,1.27.23,3.7,3.7,0,0,1,1.14,2.43C48.61,155.4,47.89,157.66,45.11,158Z"/><path class="cls-43" d="M41.12,163.94l1,0c.84-.72,1.61-1.62,2.91-1a2.06,2.06,0,0,1,1,2.06C44.41,164.69,42.48,165.7,41.12,163.94Z"/><path class="cls-52" d="M172.13,95c3.5,4.07,2.55,9,2.44,13.7a6.51,6.51,0,0,0,.52,3.24l-.11.1c-2.86,1-3.21-1.35-3.1-3,.13-2-.75-3.45-1.64-5A11.71,11.71,0,0,1,172.13,95Z"/><path class="cls-54" d="M172.13,95l-1.08,10-.81.22a2.59,2.59,0,0,1-1.05-1.26A87,87,0,0,1,170.5,87.5l.62-.57C173.06,89.42,171.59,92.34,172.13,95Z"/><path class="cls-54" d="M170.11,79c1.87,2.47.49,5.34,1,8L171,87c-4.19-2.18-1.47-5.22-1-8Z"/><path class="cls-5" d="M174.06,78c1.81,1.76.68,4,1,6C173.25,82.23,174.36,80,174.06,78Z"/><path class="cls-5" d="M175.05,84a3.36,3.36,0,0,1,0,5C175.06,87.32,175.06,85.66,175.05,84Z"/><path class="cls-122" d="M156.13,72c-3.53,2.85-8.21,2.9-12,5a6.69,6.69,0,0,1-3.57,2.26c-1.56.51-3.11,1-4.66,1.56C129.12,82.3,122.78,85,116.2,87c-1.59.46-1.86,1-.61,2.13,1.44,2.42-.08,5.65,2.18,7.82,4.43,2.56,9.49,3.36,14.19,5.17a83.79,83.79,0,0,0,9.55,3,10,10,0,0,1,2.6,1.28,3.4,3.4,0,0,1,1.29,1.74,2.53,2.53,0,0,1-1.45,2.38,4.06,4.06,0,0,1-1.42.22c-7.39-1.82-14.44-4.63-21.6-7.14-2.48-.88-5.26-3.06-8-.31a15.79,15.79,0,0,1-4.38,6.87,7,7,0,0,1-4.07.16,2.28,2.28,0,0,1-1.13-2.36c.82-2.92,3.54-5.17,3.08-8.93-3.2.93-2.14,6.34-6.28,5.76a3.1,3.1,0,0,1-2.32-1.54,2.08,2.08,0,0,1,.08-1.37c2-2.32,3.42-4.86,2.61-8.1a2.59,2.59,0,0,1-1-1.76,2.18,2.18,0,0,1,.54-1.26,2.36,2.36,0,0,1,1.43-.32c1.77.31,3.63,1.06,5-.78s-.2-3.42-.76-5.06a10.68,10.68,0,0,0-1.28-2.12c-1-2.26-3.44-2.58-5.28-3.7-.91-.55-1.68-1.29-2.54-1.91-1.22-.87-2.75-.67-4.07-1.19a1.84,1.84,0,0,1-.86-.9,1.41,1.41,0,0,1,.47-1.12c1.22-.26,2.62-.33,2.42-2.19a1.79,1.79,0,0,1,.79-1,4.5,4.5,0,0,1,2-.36c1.86.13,3.37,1.17,5,1.94,2.94,1.47,4.06-3.15,6.88-2,1.06,2.17-.61,3.36-1.72,4.72-1,1.15-.54,1.69.72,2a11,11,0,0,1,3.53,3.2c1.24,2.39,3.12,2.4,5.41,1.69,3.59-1.13,7-2.66,10.63-3.75,2.81-.79,5.8-1,8.33-2.69A6.65,6.65,0,0,1,138.64,74a10,10,0,0,1,1.32-.18,10.6,10.6,0,0,0,4.9-1.44,15.51,15.51,0,0,1,1.88-.66c.87-.28,1.74-.56,2.63-.79,2.32-.22,4.43-2,6.92-.94A1.7,1.7,0,0,1,156.13,72Z"/><path class="cls-123" d="M166,72.17c.63,1.33,1.25,2.67,1.88,4,.81.54.69,1.17.19,1.83a3.78,3.78,0,0,0,.82,3.18c2.08,9.21,1,18.4-.16,27.59-.48,1.58-.75,3.26-1.79,4.63a3.18,3.18,0,0,1-2.08,1.25c-1.21-.06-2.14-.42-2.09-1.88,3-10.73,2.43-21.46.12-32.23-.54-2.52-1.61-3.88-4.33-3.37a7.21,7.21,0,0,1-3.94-.61c-.19-.19-.39-.38-.58-.58Z"/><path class="cls-124" d="M146.29,78.1A19,19,0,0,0,154.06,76l.11.28a3.7,3.7,0,0,1,3.58,4c.18,8.25,1.11,16.52-.56,24.74a9.71,9.71,0,0,1-2.07,4.45,3.06,3.06,0,0,1-1.22.86,1.59,1.59,0,0,1-1.29-.53c-2.18-4.67.59-9.13.92-13.66.35-5-.78-9.58-1.48-14.29-.5-3.35-3.14-1-4.83-1.06a7,7,0,0,1-2.88.14,3.56,3.56,0,0,1-1.31-.64,1.61,1.61,0,0,1-.13-1.37C143.88,78,145.28,78.86,146.29,78.1Z"/><path class="cls-56" d="M156.13,72c0-.63,0-1.26,0-1.9A3.82,3.82,0,0,1,158,68.28c1-.38,2-1.16,3.18-.27l7.87,1Z"/><path class="cls-125" d="M146.29,78.1c-.71,1-1.79,1-2.86,1.07-1.41.52-2.88,1.17-3.31-1.15l4-1C144.56,77.9,145.44,78,146.29,78.1Z"/><path class="cls-126" d="M171.05,105c1.57.39,3.44.4,2.12,3-.9,1.8-.53,3.48,1.81,4,0,.34,0,.67,0,1a2.94,2.94,0,0,1-1.41.85,3.79,3.79,0,0,1-3.85-1,10.1,10.1,0,0,1,1.35-7.9Z"/><path class="cls-127" d="M174,113.1c.32,0,.65,0,1,0,.4.61.8,1.23,1.21,1.84a2.48,2.48,0,0,1-1.18,2.17c-1.64.86-2.25,0-2.5-1.5A3.63,3.63,0,0,1,174,113.1Z"/><path class="cls-128" d="M167.22,109c2.35-6.29,1.81-12.87,1.85-19.38,0-2.81-.1-5.63-.16-8.44.17-.83.24-1.72,1.13-2.16.47,2.64-1,5.52,1,8,.72,6.09-1,12.06-.86,18.13.46,1.56.93,3.12-.72,4.33A2.21,2.21,0,0,1,167.22,109Z"/><path class="cls-129" d="M168.09,78c-.06-.61-.12-1.22-.19-1.83.28-1.07-.1-2.38,1.11-3.12C168.85,74.73,169.71,76.6,168.09,78Z"/><path class="cls-130" d="M94.88,178.87c-1.51-.44-2.1,2.26-3.81,1.1a3.51,3.51,0,0,1,0-2.33c.18-.52.35-1,.49-1.56,2.18-11.84-.06-23.68.08-35.52-.08-2-1-3.88-.9-5.91,0-4.59-.24-9.2.16-13.79a4.73,4.73,0,0,1,.64-1.52c2.6-1.13,2.58,2.27,4.38,2.55,1,3.41.53,6.9.62,10.36-.12,5.12.25,10.23,0,15.35.22,2.35-.16,4.7,0,7,.13,1.68-.11,3.36,0,5,0,2.59-.16,5.18,0,7.76-.06,1.44.91,2.63,1,4a3.23,3.23,0,0,1-.43,1.23c-.74,1-.85,2.41-1.9,3.25Z"/><path class="cls-131" d="M96.06,172l1-.15c5.54-1.55,11.05-3.29,16.93-1.93l1.14.15c.57,1.31-1.84,2.56-.07,3.88l.07,0c-2.87,2.51-6.81,2.12-10,2.4a48.58,48.58,0,0,1-8.15.49C96.82,175.24,95.69,173.78,96.06,172Z"/><path class="cls-132" d="M96.06,172c.93,1.51,2.86,2.81,1,4.87L95.1,176C95.22,174.6,94.25,173,96.06,172Z"/><path class="cls-133" d="M116.94,176c.16-.91.21-2.19,1.3-2.19,1.42,0,.64,1.4.88,2.17C118.41,177,117.67,176.12,116.94,176Z"/><path class="cls-134" d="M92,177.9l-1,2.07-1.88-1c0-1.29,0-2.58,0-3.87C92.24,174,91.8,176.27,92,177.9Z"/><path class="cls-135" d="M92,177.9c-1.26-.61-.62-3.11-2.8-2.82a4.57,4.57,0,0,0-1-.07l2.82-4c-2.6-6.53-1.4-13.21-.77-19.86a1.6,1.6,0,0,1,1.83-1.3c1.66,9.37.83,18.74-.1,28.1Z"/><path class="cls-136" d="M10.05,81.92c-1.1-3.11.69-5.44,2.11-7.87a2.34,2.34,0,0,1,3.13-.24c1.64,2.42.32,4.93.24,7.41-2.56,10.06-1.12,20.1.18,30.15-2.81,2.22-3.16-1.9-5.08-2-2.1-1.36-1.55-3.58-1.8-5.53A13,13,0,0,0,8.59,99c-.14-.41-.25-.83-.35-1.25-.35-1.61-.07-3.39-1.3-4.77a3.63,3.63,0,0,1-.8-.09c0-.68,0-1.35-.07-2a.6.6,0,0,1,1,0l1,.17c2.62.07,3.29-1.21,2.21-3.43A6.84,6.84,0,0,1,10.05,81.92Z"/><path class="cls-137" d="M10.12,118,10,116.85a4.63,4.63,0,0,1,.25-.8c.23-.26.56-.6.8-.52,7.75,2.72,14.18-1.84,21.07-3.82.63-.18,1.25-.4,1.88-.58,3.19-.9,6.28-2.13,9.56-2.69a5.76,5.76,0,0,1,1.44,0,5.92,5.92,0,0,1,3.25,1.47,1.63,1.63,0,0,1-.26,1.35c-1.68,1.44-3.87,1.72-5.83,2.54a61.29,61.29,0,0,0-6.58,2.35,47.62,47.62,0,0,1-5.34,1.63c-1.53.39-3.08.69-4.6,1.11A7.82,7.82,0,0,0,21.19,121c-.57.58-1.07,1.23-1.67,1.79l-.56.25c-.95-.6-1.16-2.24-2.74-1.93L15.05,121C12.87,120.88,10.66,120.84,10.12,118Z"/><path class="cls-79" d="M34.08,112A93.72,93.72,0,0,1,16,118.17c-1.67.42-4.1,2.06-2.82-1.89l-2.91-.23.89-1.17c1-.87,3,.33,3.56-1.62a1.27,1.27,0,0,1,.94-.66c1,.16,1.82.8,2.86.57a12.29,12.29,0,0,1,1.21-.23A18.73,18.73,0,0,0,24,112c1.09-.35,2.16-.73,3.26-1,2.36-.21,4.5-2,7-1A1.61,1.61,0,0,1,34.08,112Z"/><path class="cls-138" d="M10,103.07c.26,2-.77,4.19,1,6,.29.24.37.47.27.7s-.21.33-.31.33c-3.8-2.4-5.57-9.06-3.77-14.15,1.82-.4,1,1.59,1.9,2.07h0C10.23,99.53,8.92,101.52,10,103.07Z"/><path class="cls-139" d="M11,110.06c0-.35,0-.69,0-1,2.3-.31,2.74,1.9,4,3a.88.88,0,0,1,.45.88L15,113c-.32.44-.61.42-.89,0C12,113.09,11,112.05,11,110.06Z"/><path class="cls-66" d="M9.08,98l-1.9-2.06L6.94,93C8.77,94.2,9.1,96,9.08,98Z"/><path class="cls-78" d="M14.08,113a4.43,4.43,0,0,1,.89,0c-.12,3-2.45,1.48-3.86,1.85Z"/><path class="cls-140" d="M15.13,74l-3,0c-1.38-.94-2.46,2.75-3.55.48-.9-1.87,1.21-2.69,2.53-3.58l4.72.19C17,72.44,17.26,73.53,15.13,74Z"/><path class="cls-141" d="M7.07,90.91h-1A10,10,0,0,1,6.6,81C6.2,84.38,9.56,87.42,7.07,90.91Z"/><path class="cls-66" d="M10.05,81.92c.33,1.75-.8,3.85,1.66,5.14.58.3.7,2.79.11,3.64a2.36,2.36,0,0,1-3.71.38C10.6,88.42,7.71,84.61,10.05,81.92Z"/><path class="cls-142" d="M114,169.94c-5.62.83-11.13,2.64-16.93,1.94l-2-2.92a6.78,6.78,0,0,1,1.31-.87c8.66-.2,16.82-2.62,24.92-5.42a38.06,38.06,0,0,0,7.35-4c1.83-1.11,3.63-2.33,5.94-2.08a1.63,1.63,0,0,1,1.08,1,3.58,3.58,0,0,1-1,3.5,35.06,35.06,0,0,1-7.09,4.29,4,4,0,0,1-2.63.39l-2,1Z"/><path class="cls-143" d="M115.07,174c-1.19-.19-2.63.55-3.57-1,.82-1.49,3.09-1.17,3.64-2.91C117,171.42,115.51,172.69,115.07,174Z"/><path class="cls-144" d="M125,165.82l1.87-1c1.83-.36,4.09-1.36,3.3,2.2,0,.3-.07.59-.1.89C128.44,167.05,124.09,172.68,125,165.82Z"/><path class="cls-145" d="M133.87,160.7l1.41-2.58c2.72-.12,3,.45,1.89,3.76.18,2.91,0,5.42-4.1,4.07C129.42,163.61,133,162.36,133.87,160.7Z"/><path class="cls-146" d="M137.17,161.88c-.48-1.33.66-3.47-1.89-3.76-.09-.37-.19-.73-.29-1.1a2.24,2.24,0,0,1-.52-2.13c.8-1.71,2-1.16,3.25-.59,1.87,2.19,5,3.89,3.12,7.62-1,.27-2-1.14-2.86.12A7.73,7.73,0,0,0,137.17,161.88Z"/><path class="cls-147" d="M133.87,160.7c-.29,1.74-2.87,3.15-.8,5.25,0,.36,0,.71,0,1.07l-2.86,0c-.16-2.14-1.79-2.08-3.3-2.2Z"/><path class="cls-148" d="M140.84,161.92c0-3-2.15-4.83-3.67-7-5.24-5.17-10.15-10.59-12.8-17.65a1.73,1.73,0,0,1,1.39-1.46c2.52.6,3.79,2.64,5.23,4.5a75.24,75.24,0,0,0,5.72,8.13,65.62,65.62,0,0,1,4.94,6.9c.73,1.26,1.83,2.29,2.38,3.67-.26,1.49,2.36,2.22,1,4A7.75,7.75,0,0,1,140.84,161.92Z"/><path class="cls-149" d="M158.08,151a1.88,1.88,0,0,1,1.91.91c-2,.91-2.08,4-4.73,4.17-.87,0-1.72.25-2.6.26-1.48.11-3.3-.65-3.06-1.8.86-4.26-2.62-1.34-3.58-2.41.85-4.64,4.17-7.14,8-9.18,2.67.33,1.92,2.38,2,4s-.92,2.74-1.86,4C155.58,151.56,156.84,150.51,158.08,151Z"/><path class="cls-150" d="M146.05,152l3.6-1.2c1.2,1.45-1,5.59,3.46,4.26.8,4.23-2.29,4.47-5.12,5l-.89-1c-.79-1.93-3.11-1.59-4.33-2.91a2.91,2.91,0,0,1,.65-3.32C144.17,152.06,145,151.49,146.05,152Z"/><path class="cls-151" d="M148,160c1.77-1.6,4.75-2,5.12-5a2.06,2.06,0,0,1,2.15,1.06c-.81,2.87-3.49,4.06-5.41,5.93-.52.5-1.44,1.24-2,.32C147.5,161.8,147.91,160.8,148,160Z"/><path class="cls-152" d="M142.7,155.87c2.08.16,4.19.29,4.4,3.1a2.73,2.73,0,0,0-3.07,0c-1.94-.11-2.31-1.86-3.19-3.08.06-.41,0-.89.61-1C142.17,154.83,142.46,155.31,142.7,155.87Z"/><path class="cls-153" d="M161.07,150.05c.32-1.05-.9-3.67,2.07-2Z"/><path class="cls-154" d="M146.05,152l-2,1c-1,.49-1.89,1.87-3,.75s0-2.13.66-3c2.12-3,5-5.22,7.31-8.06a85.05,85.05,0,0,0,11.83-18.8c.74-1.69,1.36-3.45,3.71-3.33a1.91,1.91,0,0,1,1.17.91A16.6,16.6,0,0,1,159.07,136L154,143Z"/><path class="cls-155" d="M159.07,136c2.46-4.84,6.18-9.16,6.07-15,2.7.07,1.55,3,2.93,4,0,.34,0,.68,0,1,1.74,2.84,1.69,5.4-1.48,7.14-2.44,1.34-2.48,4.26-4.28,6a3.2,3.2,0,0,1-1.27.85C155.44,141.12,160.78,136.81,159.07,136Z"/><path class="cls-156" d="M161.05,140c0-.32.06-.63.08-.95a6,6,0,0,0,2.59-3.4c.94-3.45,3.25-4.08,6.33-2.64v2a20.24,20.24,0,0,0-5,8C163,142.9,161.94,141.54,161.05,140Z"/><path class="cls-157" d="M158.08,151a7.81,7.81,0,0,1-6.91,1.52L156,147l2.48-4.34C159.81,145.7,160.6,148.42,158.08,151Z"/><path class="cls-158" d="M162.08,144.2c-.11.66-.29,1.18-.87,1a1.55,1.55,0,0,1-.86-1,.81.81,0,0,1,1.12-1C161.79,143.31,161.93,143.93,162.08,144.2Z"/><path class="cls-159" d="M143.07,110l1-.07c4.85-1.1,8.58,2.37,13,3.13,3,1.25,6.15,1.8,9.2,2.79,2.06,1.21,4.92,1.17,6,3.85-.71,1.38-2,1.16-3.26,1.27h-1c-1.24.65-2.14-.78-3.32-.53-2.45.19-4.54-1.06-6.76-1.75a19.18,19.18,0,0,0-6-1.77c-2.93-.88-5.53-2.68-8.64-3.06a2.41,2.41,0,0,1-1.48-1.31A3.78,3.78,0,0,0,143.07,110Z"/><path class="cls-76" d="M170.05,133c-3-.33-5.51.11-6.09,3.8-.23,1.48-1.41,2.1-2.83,2.24,2.1-2.61,2.11-6.71,6.35-8,1.31-.39.38-3.31.6-5.06,1.45.11,3-.36,4.92.81C169,127.71,172.46,131.4,170.05,133Z"/><path class="cls-160" d="M172.28,119.83,166,117c-.71-.85-1.62-1.63-1-2.93l1.14-1.18c.92-.34,1.61.16,2.32.59,1.28,1.06,3.38-.06,4.41,1.66.14,1.24,1,1.69,2.08,1.92,0,1,0,2,0,3a7.86,7.86,0,0,0-1,0C173.37,120.54,172.78,120.6,172.28,119.83Z"/><path class="cls-161" d="M165,120l3.08,1c.09,1.33,1,2.65,0,4-2.81,0-1.34-3.11-2.93-4l-.21.07a.68.68,0,0,1-.23-.74C164.8,120.07,164.88,120,165,120Z"/><path class="cls-162" d="M172.28,119.83,174,120c-1.25,2.39-2.9,2.72-5,1C169.8,119.74,171.14,120.07,172.28,119.83Z"/><path class="cls-163" d="M174.1,123q0,.49,0,1c-.85.12-2.16,1.43-2.42.21C171.32,122.43,173.2,123.26,174.1,123Z"/><path class="cls-164" d="M21.06,128l-1.75-2.09c-.15-.63-.3-1.25-.44-1.88a7.77,7.77,0,0,0,.09-1l.25-.12C22.12,123.78,22.42,125.58,21.06,128Z"/><path class="cls-165" d="M10.12,118c1,2.13,3.56,1.5,4.93,2.93C11.87,122.55,9.87,122.18,10.12,118Z"/><path class="cls-166" d="M90.06,16c0-.33,0-.67,0-1-.29-.38-.94-.43-1-1.05.06-1,.13-2.09.19-3.14C90.77,11.18,91,9.45,92,9c1,1.51.54,3.22.54,4.83,0,16.9,0,33.8,0,50.69-.68,3.29-1.8,1-2.82.24A7.09,7.09,0,0,1,89,63.3c-1.12-2.63-.34-5.32-.28-8,0-3.23-.06-6.46,0-9.69,0-.8,0-1.6,0-2.39,0-1,0-2.08,0-3.12,0-1.26,0-2.52,0-3.78,0-.73,0-1.47,0-2.2,0-.95,0-1.9,0-2.85a16.19,16.19,0,0,0-.47-3.46,6.27,6.27,0,0,1,0-2.16C88.57,22.37,91.37,19.55,90.06,16Z"/><path class="cls-167" d="M92,66Q92,37.51,92,9c1.88,1.59,1,3.74,1,5.62.07,18.64,0,37.27,0,55.91a7.07,7.07,0,0,0,.3,1.33c.24-.32.49-.63.73-.94s.62-.24.82.18c.4,2.27-.68,3-2.8,2.79-1.73-1.61-1.33-3.69-1.25-5.69A3.78,3.78,0,0,1,92,66Z"/><path class="cls-168" d="M94.93,71.14a2.94,2.94,0,0,0-.82-.18q0-25.14,0-50.29c0-1.59-.55-3.36.93-4.69l1.09.06c.65,1.31.08,2.66.14,4l0,2.69c0,.68,0,1.36,0,2,0,.46,0,.91,0,1.37s0,.94,0,1.4c0,1.19,0,2.38.06,3.58,0,.5,0,1,0,1.51,0,1.31,0,2.62,0,3.93,0,1.7,0,3.39.15,5.09-.17,5.77-.09,11.54-.09,17.32-.47,4,1.07,8.15-1.28,11.91Z"/><path class="cls-166" d="M84,14.93l-6,.12c3.08-2.78,6.3-4.24,10-1.09C86.94,15.09,85.23,13.91,84,14.93Z"/><path class="cls-169" d="M76.92,15.88l6.14.31c-2.67.5-5.38,1.72-7.92-.1Z"/><path class="cls-170" d="M84,14.93c1.12-1.3,2.69-.73,4.06-1A3.29,3.29,0,0,0,89,14L90,15Z"/><path class="cls-171" d="M95.3,20.12A4.88,4.88,0,0,1,96.14,16l7,.83c1.62-.44,3.25-.86,4.77.3,9.17,3,18.43,5.83,26.23,11.88,2.16,1.44,1.24,2.83-.08,4.21a2.08,2.08,0,0,1-1.41-.21c-5.1-4.08-10.65-7.18-17.31-7.83C108.68,23.35,101.72,22.79,95.3,20.12Z"/><path class="cls-172" d="M134,33c.06-1.31,1-2.6.07-3.91.34-.38.68-.75,1-1.12L137,28c2.38-.44,2.53-3.76,5.11-4,0,.36,0,.72,0,1.08-1.1,4.05-3,7.51-7,9.39C134.31,34.27,133.75,33.9,134,33Z"/><path class="cls-173" d="M107.88,17.17l-4.77-.3a1.6,1.6,0,0,1,.9-1.74c1.46,1.42,3.33.66,5,1Z"/><path class="cls-174" d="M161.19,68l-3.1,1c-1.45-1.18-1.15-3-1.81-4.55-4.68-9.82-10.58-18.59-20.49-23.94a2.1,2.1,0,0,1-1.11-.79c-.4-2.83,1.43-4.24,3.5-5.48,1.51-.48,3-.58,4.18.65,3.39,3.59,7.65,6.39,9.89,11-4.9-.07-5.92-5.17-9.13-6.78A78.87,78.87,0,0,1,161,62.4c.7,1.43,1.92,2.79,1.07,4.6Z"/><path class="cls-175" d="M162.07,67a91.15,91.15,0,0,0-10-16.55c-3.69-5-8.24-9.23-12.62-13.68,6,.68,8,6.86,12.81,9.17h.83c3.07,5.26,7.42,9.8,9.06,15.88.11,1.76,2,3.19.92,5.17l-.5,0Z"/><path class="cls-176" d="M138.18,34.29l-3.27,5.63c0,1.37-.81,2.38-1.41,3.49-1,1.39-1.92,2.86-3,4.23-1.5,1.93-3,3.91-4.38,5.9a8.13,8.13,0,0,1-.87,1.07,5.28,5.28,0,0,1-3.73,1.67,2.06,2.06,0,0,1-1.21-1.65C124,46.89,128.51,39.7,135.09,34c3.33-2.2,4.57-6,7-8.93,1.24.66,1,1.83,1,2.9a3.13,3.13,0,0,0-2,3C140.33,32.27,138.27,32.41,138.18,34.29Z"/><path class="cls-174" d="M163.06,67q-.47-2.58-.92-5.17l1.93,3.4C164.68,66.35,164.6,67.09,163.06,67Z"/><path class="cls-170" d="M90.06,16c1.75,3.55.33,6.8-1,10.05a4,4,0,0,1-1.2-.77c-3.42-2-6.8-.12-10,.47a64.06,64.06,0,0,0-20.29,7.47c-1.41.8-2.71,1.91-4.51,1.76a2.08,2.08,0,0,1-1-2c10.41-6.84,21.66-11.26,34.22-12,2.46-.15,5.5-.5,2-3.9-.55-.54-.19-.84.31-1A9.18,9.18,0,0,1,90.06,16Z"/><path class="cls-177" d="M90.07,45V56c-3.15,2-7.08,1.48-10.32,3.4-1.86,1.11-3.82,2-5.32,3.59-2.83.91-2.41-1.79-3.35-3-1.21-2.39-3.5-4.16-4-7a1.79,1.79,0,0,1,.79-2.15C74.74,47.1,81.87,44,90.07,45Z"/><path class="cls-178" d="M90.07,45A120.8,120.8,0,0,0,72,49.86,14.19,14.19,0,0,0,67,53c-2.72-1.74-3.91-4.76-5.94-7.07-.39-1.79.69-2.88,2-3.61,7-3.85,14.29-6.84,22.32-7.64A5.62,5.62,0,0,1,90.06,36v4c-.9,1.83-2.35,2.37-4.38,2.55a36.66,36.66,0,0,0-15.52,4.71c6-2.8,12.48-5.74,19.9-4.27C90.06,43.66,90.07,44.33,90.07,45Z"/><path class="cls-179" d="M89.07,25l0,1.05c0,.63,0,1.26,0,1.89,1.09,2.1-.5,2.88-1.86,3.78a20,20,0,0,1-6.86,1.61c-6,.64-11.56,2.84-16.89,5.6-1.74.91-3.29,2.29-5.46,2.1-1.52-1-2.88-2-3-4-.28-2.12,1.41-2.91,2.76-3.65a76.67,76.67,0,0,1,29-9.18A3,3,0,0,1,89.07,25Z"/><path class="cls-180" d="M58,41a47.41,47.41,0,0,1,22-9c1.57,1,3.19.37,4.81.15,2-.27,4-.44,5.17,1.84v2c-9.94-.64-18.49,3.61-27.06,7.75-.8.39-1.28,1.46-1.91,2.22C59.75,44.52,58.35,43.12,58,41Z"/><path class="cls-105" d="M89.07,25c-12.16,1.66-23.94,4.41-34,12a3.46,3.46,0,0,1-2-2c9.58-7.55,21-10.13,32.66-11.94C87.21,22.81,88.85,22.84,89.07,25Z"/><path class="cls-181" d="M67,59.05l3,3A28.43,28.43,0,0,1,80.58,77.16c-1.55,2.45-2.77.83-4-.31-3.74-4.17-6.76-8.89-10.1-13.36a5.06,5.06,0,0,1-1.12-2.67C65.49,59.84,65.56,58.76,67,59.05Z"/><path class="cls-182" d="M46,34c-.32-.68-.63-1.35-.95-2l2,0c5.07,3.56,6.94,9.64,11,14,.75,1,.44,1.78-.5,2.43a3.05,3.05,0,0,1-1.41.09c-1.84-.77-2.69-2.44-3.63-4A42.33,42.33,0,0,1,50.09,40l-1-1a15,15,0,0,1-2.62-2.6A2.19,2.19,0,0,1,46,34Z"/><path class="cls-183" d="M80.13,76.94,70,62.05a2.18,2.18,0,0,0,1-2.06l3,3a3.27,3.27,0,0,1,2.19,1.84c2.08,3.65,4.69,6.6,9.09,7.37C84.35,74.65,83.79,77.52,80.13,76.94Z"/><path class="cls-184" d="M57.05,48a2.13,2.13,0,0,0,1-2.05C60.73,50.57,65,54,67,59.05a2,2,0,0,0-1,1.94c-2.66.08-3.19-2.45-4.7-3.79C60.05,54.09,55.86,52.32,57.05,48Z"/><path class="cls-185" d="M35.08,78c3.68-.12,6.85,1.44,10,3.05.44,5.71-1.39,11.33-.4,17.12.5,2.92.66,5.6,3.66,7-1.45,3-4.52,2.35-7,3.12-1.67,0-3.36.59-5-.1-1.19-.62-2.5-1.33-2.84-2.62C31,96.21,29.78,86.89,35.08,78Z"/><path class="cls-186" d="M48.11,105c-3.48-.58-4.45-2.08-4.62-6.06-.26-6.15-.78-12.09,1.59-17.92,3.68,1.35,7.79,1.48,11.08,3.93a42,42,0,0,0,.1,18.26C53.72,104.61,51.35,106.82,48.11,105Z"/><path class="cls-187" d="M56.08,102.92c-3.77-4.67-1.92-10.08-2-15.24,0-1.5.44-2.54,2.07-2.74L65,87c1.47,1.15,4.14-.44,5,2.18a21.19,21.19,0,0,1,.11,8.32c-.62,2.16-2.55,2.54-4.29,3.19L62.33,102C60.27,102.44,58.36,104,56.08,102.92Z"/><path class="cls-188" d="M62.09,57c2,.72,2.51,2.82,4,4,.33.66.67,1.32,1,2,1.34,1.89.41,3.42-.79,4.89-.94,1.15-2,2.16-3,3.3-4.28,5.09-4.26,5.07,1.09,8.4,1,.61,2.63,1.17,1.29,2.92A3.21,3.21,0,0,1,62.11,82c-1.29-1.75-2.73-.4-4.12-.2-1.39-.83-2.9-1.52-3.52-3.2.07-5.78,4.33-9.28,6.85-12.91-2.46,2.27-4.49,5.77-6.57,9.22-1.09,1.8-2.16,3.3-4.52,3.15a12.17,12.17,0,0,1-1.47-.24A3.32,3.32,0,0,1,46.49,75c2-7.33,7.71-12,12.44-17.42A2.51,2.51,0,0,1,62.09,57Z"/><path class="cls-189" d="M50.09,40c1.58.89,2.9,2,3,4,.51,1.39-.43,2.17-1.3,2.9A63.82,63.82,0,0,0,35,69.19a4.61,4.61,0,0,1-2.28,2.5A3.31,3.31,0,0,1,29.1,71l-1-1C32.23,57.63,40.41,48.26,50.09,40Z"/><path class="cls-190" d="M35.08,78c-1.81,8-2.91,16-1.28,24.32.5,2.57,2.1,3.86,3.28,5.69A2.3,2.3,0,0,1,36,109.55a3.25,3.25,0,0,1-1.9.45c-2.27.88-4.46,2-7,2,0-8.56-1.12-17.12-.05-25.69.77-2.31,1-4.76,1.78-7.07.5-1.53,1-3.3,3.29-2.23C33.2,77,34.36,76.82,35.08,78Z"/><path class="cls-191" d="M15.13,74a2.31,2.31,0,0,0,.73-2.87A8.63,8.63,0,0,1,22.09,73a94,94,0,0,1-2.31,14.13A118.74,118.74,0,0,0,20,107.39c.23,2.31.76,4.62-1,6.63a9,9,0,0,1-.91.11,7.49,7.49,0,0,1-2.09-4.37c-1.42-8-2.82-15.88-1.17-24a7.09,7.09,0,0,0-.8-4.78Z"/><path class="cls-192" d="M19.08,86c1-4.34,0-9.16,3-13l10,4c-2.73.33-1.55,2.73-2.26,4.13-.8,1.58-.22,3.63-1.77,4.9-2,1.36-.43,3.65-1.38,5.29S25.51,96,22.41,93.5c-1.44-5,.83-9.71.78-13.64-1.71,3.93.23,9.72-3.72,15.17C18.33,91.3,18.3,88.66,19.08,86Z"/><path class="cls-193" d="M62.11,82l4,.06c3.51.58,6.29-.34,8.07-3.68A4.11,4.11,0,0,1,77.07,76c1.07.15,1.27,3.08,3.06,1,2.48-.82,3.07-3.55,5-5,.34-1.25,1.42-1.72,2.37-2.34,2.22-1.26.68-4.28,2.64-5.65L92,66V68c-1.23,1.58.59,4.6-2.52,5.28.66.35,1.68.18,1.85,1.25a1.8,1.8,0,0,1-.74,1.12c-1.58.92-3.46,1.14-5,2.19-3.56,2.66-7.58,4.78-10.07,8.68a4.64,4.64,0,0,1-1.85,1.06A5.22,5.22,0,0,1,69.06,86C66.85,84.47,63.39,85.09,62.11,82Z"/><path class="cls-194" d="M29.1,71l4,0c4.15-.68,7.36,2.62,11.34,2.67A4.28,4.28,0,0,1,47.06,75a3.47,3.47,0,0,0,2,2c.65,1.11-.37,1.42-.94,1.94-6.6-2.53-13.73-3.51-20-7-.1-.06-.14-.23-.21-.35Z"/><path class="cls-195" d="M48.14,78.93c.32-.65.63-1.29.94-1.94h1c1.42,1.27,4.07-.63,5,1.92L58,81.75C54.5,81.55,51.4,80,48.14,78.93Z"/><path class="cls-196" d="M69.06,86l4.85,1.07a1.51,1.51,0,0,1,0,2.29A3.83,3.83,0,0,1,69.1,89L65,87C66.42,86.82,68,87.46,69.06,86Z"/><path class="cls-197" d="M46,34,47.14,36c.4,1.21-.44,1.85-1.18,2.46A73.56,73.56,0,0,0,26.72,63.23c-.58,1.18-1.2,2.38-2.64,2.76-1.34,1.37-2.67,3.53-4,0a5.48,5.48,0,0,1,2-4c1.4-2.3,3.16-4.39,4-7h0c4-3.1,5.77-8,9.13-11.55S41.74,36.39,46,34Z"/><path class="cls-198" d="M24.08,66A79.32,79.32,0,0,1,47.14,36a3.36,3.36,0,0,1,2,3c-7.45,2.5-11.29,8.84-15.33,14.8a57.3,57.3,0,0,0-6.52,11.63C26.76,66.76,25.81,69.33,24.08,66Z"/><path class="cls-110" d="M26.08,55c-.17,3-1,5.61-4,7C21.8,58.73,24.53,57.2,26.08,55Z"/><path class="cls-199" d="M21.06,128a6.24,6.24,0,0,0-1.86-5.06,1.84,1.84,0,0,1,.87-2c2.15-.28,2.23,1.64,2.78,2.82,4.61,10,10.47,19,19,26.15,1.15,1,2.8,2,2.24,4L42,154c-5.09-2.32-8.11-6.81-11.48-10.93-1.13-1.38-2.3-2.72-3.45-4.08l-3.75-6.22Z"/><path class="cls-23" d="M74.07,172c2.61.37,5.23.7,7.82,1.14.78.13,1.75.49,1.47,1.58-.24.93-1,1.07-2,1-2.43-.29-4.87-.48-7.31-.71Z"/><path class="cls-200" d="M88.17,171.17c-2.12-4.33-6.46-2.16-9.66-3-9-2.4-17.84-4.9-26.21-9C50,158,50.93,156.52,51.07,155c-.51-3.24,1.26-5.12,3.88-6.49a2.17,2.17,0,0,1,1.41.44c7.21,8.16,16.72,11.44,27.14,12.75,1.94.24,4-.22,5.76,1,1.36,1.77.49,3.9,1,5.81.41,1.18-.26,1.85-1.15,2.42A3.78,3.78,0,0,1,88.17,171.17Z"/><path class="cls-201" d="M89.09,170.93l.93-2c-1.71-10.29-1.63-20.66-1.38-31a20.2,20.2,0,0,1,0-2.58c.39-5.09-.16-10.2.36-15.29.22-2.17-.6-3.43-2.72-4a8.46,8.46,0,0,1-3.9-2c-.85-2.25-2.25-1.85-3.79-.77a3.35,3.35,0,0,1-2.46-1c-.81-1.43-.42-3-.57-4.53.23-1.79,0-4,3-3.15,2.55,2.19,5.37,3.58,8.86,3,3.49.37,6.59-1.88,10.07-1.51,2,1.32,4.58.39,6.58,1.72a2.3,2.3,0,0,0,1,2.09c2,.72,2.64,2.27,2.54,4.25a2.18,2.18,0,0,1-2.32,1.46c-3.3-2.07-6.57,1-9.87.08-2.91-.78-1.78,2.54-3.25,3.2L92,120.1A49.61,49.61,0,0,0,92.05,135l1,5c-1.39,3.26.47,6.84-1,10.09-2.11,6.91-.41,14-.94,21Z"/><path class="cls-202" d="M55.07,149c-1.34,2-2.67,4-4,6-1.79.73-2.15,2.53-3,4-1.77.74-2.13,2.56-3,4-1,.37-1.72,1.31-2.91,1-.19-2.56,3.09-3.38,3-5.9l4-5c.66-3.06,1.67-5.83,5.31-6.42C55.47,147.11,55.92,147.85,55.07,149Z"/><path class="cls-164" d="M44.07,154a88.39,88.39,0,0,1-24-33c1.07-2,2.6-3.25,5-3,1.41.51,1.92,1.74,2.4,3a69.75,69.75,0,0,0,16.85,25.07c1.33,1.3,3.36,2.41,2.74,4.89C46.36,152.25,46.05,154,44.07,154Z"/><path class="cls-203" d="M47.08,151c-3.22-4.64-7.88-7.94-11.23-12.53A75.5,75.5,0,0,1,25.09,118a8.1,8.1,0,0,1,5-1,4,4,0,0,1,1.87,2.24c4.11,10.73,11.41,19.1,19.67,26.78a5.6,5.6,0,0,1-3.55,5Z"/><path class="cls-204" d="M48.06,151l3-5A2,2,0,0,1,53,144.66a2.47,2.47,0,0,1,1.4,1.2,1,1,0,0,1-.34,1.1c-2.37,1.42-2.89,4.37-5,6A2.12,2.12,0,0,1,48.06,151Z"/><path class="cls-52" d="M169.11,109c1.26-1,.9-2.53,1.07-3.87a2.58,2.58,0,0,1,.87-.16,15.66,15.66,0,0,1-1.1,7.8.8.8,0,0,1-1.32-.09A2.93,2.93,0,0,1,169.11,109Z"/><path class="cls-177" d="M108.08,109.94q2-3.45,4-6.9c2.39-1.89,4.39-.29,6.45.71,1.68,1,3.12,2.64,5,3.1,4.2,1,3.92,3.53,2.16,6.21-2.3,3.49-4,7.61-8.23,9.44a2.11,2.11,0,0,1-1.81-.88c-.86-1,.44-3.54-2.31-3.18C111,116,107.1,114.45,108.08,109.94Z"/><path class="cls-205" d="M129.88,46.92a10.79,10.79,0,0,1,3-4,2.53,2.53,0,0,1,3.22.23c7.88,6.08,14.18,13.46,18.05,22.68,2,4.78-2.8,4.58-5.05,6.2l-2,1c-.44-.49-1.16-.94-1.15-1.58.21-8.78-5.82-13.94-11.18-19.53C133.14,50.17,131.11,49,129.88,46.92Z"/><path class="cls-206" d="M75,85.89c2-4.47,6.54-6.18,10.09-8.94,1.69-.6,3.64-.55,5-2,.32,0,.64,0,1,0,.35-.47.69-.46,1,0h0c1.49,1.22,3.5-.18,5,1,.7.63,1.4,1.26,2.09,1.9l-.37.49a7.86,7.86,0,0,1-2.35.66c-1.3.92-.53,1.71.17,2.49,3.31,1.83,5.76,4.06,3.9,8.3-1.17.86-1.68-.11-2.35-.79a7.54,7.54,0,0,0-10.84.62,18.58,18.58,0,0,1-3.55,4,3.06,3.06,0,0,1-2.76.47c-1.08-1.6.21-2.67.86-3.89a3.72,3.72,0,0,0,.69-2.82c-.51-1.64-.7-4.22-3.27-1.44a3.13,3.13,0,0,1-3.22.75A2.29,2.29,0,0,1,75,85.89Z"/><path class="cls-207" d="M102.09,73.1l-5-2.11c-3.08-3.35-.78-7.41-1.48-11.06,0-.53,0-1,0-1.57,1.62-2.69,8.29-3.52,10.31-1.26.57.64-.49,1.19-.39,1.24,5.49,2.77,5.49,2.76,3.55,8.81C107.34,69.81,106.34,73.37,102.09,73.1Z"/><path class="cls-208" d="M147.06,80c1.68-1.74,4.15-.57,5.72-1.61,3.36,10.5,1.43,21,.28,31.57-3.08,1.07-5.82.7-8-1.9l-1.1-1a8.83,8.83,0,0,0,3.85-8C147.73,92.69,148.66,86.29,147.06,80Z"/><path class="cls-209" d="M129.88,46.92c9.14,6.42,17.61,13.29,17.18,26l-1.73.17a3.51,3.51,0,0,1-2.07.27,38.21,38.21,0,0,0-11.95-18.06c-1.67-1.39-3.07-2.42-5.12-1a1.52,1.52,0,0,1-1.25-.46C125.86,51,128,49.08,129.88,46.92Z"/><path class="cls-210" d="M143.29,80a4.42,4.42,0,0,0,.73.1c3,3.23,3.9,6.55,1.4,10.7-1.47,2.42-.08,5.51-.57,8.28-.44,2.53,0,5.4-2.82,7A24.65,24.65,0,0,1,132,103.14l.43-.57c4.62-.4,5.58-3.17,4.93-7.26A40,40,0,0,1,136.93,83a5.11,5.11,0,0,1,.78-1.26A7.07,7.07,0,0,1,143.29,80Z"/><path class="cls-211" d="M124.94,53.87l1.14.12a2.85,2.85,0,0,1,4,.47c4,4.48,8.6,8.61,10.27,14.74.6,2.19.63,4.23-1.3,5.85L137,76c-1.12.82-2.42.43-3.64.56a4.55,4.55,0,0,1-3-4.73c.89-5.7-2.33-9-6.24-12a5,5,0,0,1-1.28-1.5c-.64-2.12,1.73-2.77,2.14-4.38Z"/><path class="cls-212" d="M116.66,98.13c-3.52-2.5-.49-6.23-1.71-9.17a3.51,3.51,0,0,1,1.41-1c1.78-.35,3.51-.89,5.29-1.25,2.6-.53,5.21-1.33,6.94,1.81,1.83,3.31,2,8.71.2,10.9-1.17,1.45-2.51,1.2-4,.78A56.65,56.65,0,0,0,116.66,98.13Z"/><path class="cls-213" d="M142,106.08a24.78,24.78,0,0,0,1.4-13.44c-.21-1.34-1-2.51,1.28-3.51,1.47-.66,1.43-3.52.52-5.29a7.66,7.66,0,0,1-1.21-3.7l3-.16c2.95.4,2.5,3.23,2.54,4.73.15,5.72-.22,11.47-.61,17.2-.2,3-1.06,5.69-5.05,5.13Z"/><path class="cls-214" d="M83.11,93c3.08-2.61,3.7-7.68,9.84-7.37,3.9.2,5.82,1.07,7.14,4.32a.56.56,0,0,1,.25.54c0,.21-.1.31-.16.31L100,92.06c-3,0-5.52-2.66-8.93-1.39-1.86.7-3.13,1.41-4,3.23-2,4.5-1.68,5.2,3.2,5.39.67,0,1.31.15,2,.24,3.42.48,6.7.81,7-4.15a3.36,3.36,0,0,1,1.76-2.3l4.66,2.28c-3.38.09-4.95.91-4.58,3.47.33,2.27-.77,3.34-3,3.23-4.17,2.31-9,.79-13.33,2.46-3.16-1.29-7.82-1.18-6.43-6.78C81.27,97.63,81.33,94.44,83.11,93Z"/><path class="cls-215" d="M110.87,80.06,108.15,77c.16-4.3,2.1-7.34,6.28-8.78,4.66,1.21,6.72,5.09,8.81,8.8.94,1.67.56,3.13-1.8,3.57C117.85,81.27,114.17,84.92,110.87,80.06Z"/><path class="cls-216" d="M149.06,72c4.71-2.32,4.78-5.14,2.13-9.59-4.72-7.93-10.25-14.87-18.35-19.52a5,5,0,0,1,2.07-3l1.17.09c7.27,5.1,12.81,11.78,17.59,19.18,1.06,1.64,1.64,3.65,3.41,4.78,1.67,1.43.72,3.38,1,5.08l-2,1.07C153.79,70.9,151.58,72,149.06,72Z"/><path class="cls-217" d="M116.66,98.13c2.75-.63,5.34.41,7.77,1.24,2.8,1,3.59-.24,4.16-2.46A10.72,10.72,0,0,0,126.77,88c-1.56-2.23-4,.16-6,.35-1.6.16-3.2.77-4.88.59,3.1-4.21,8-4.17,12.43-5.23a5.7,5.7,0,0,1,4.12,1.25c2.59,4.52,2.12,9.45,1.87,14.34a4,4,0,0,1-2.2,3.57l-.17.29C126.64,102.2,121.68,100.08,116.66,98.13Z"/><path class="cls-218" d="M101,93.08a10.41,10.41,0,0,1-1.38,5.54c-3.11,5.58-8.66.46-13,2.1-1.7.64-3.2-1.85-2.26-3.35,1.76-2.82,1-7.71,6-8.1,3.19-.25,6.54-1,8.89,2.22a3.08,3.08,0,0,0,.81.57Q100.46,92.57,101,93.08Z"/><path class="cls-219" d="M110.87,80.06c2-.21,2.94,2.33,5.34,1.81,7.28-1.56,7.62-2.35,3.2-8.35a11.66,11.66,0,0,0-5.48-4.58c-.5-2.41,1-3.74,2.71-4.92,1.4-.69,3-1.14,4,.39,2.67,4.41,7,7.83,8.07,13.21a2.31,2.31,0,0,1-.61,1.32c-3.57,1.28-7.19,2.44-10.7,3.88C114.11,84.15,111.92,83.59,110.87,80.06Z"/><path class="cls-220" d="M118.08,104.92a9.31,9.31,0,0,0-6-1.88c-1.13-2.3-1.08-3.35,2.06-2.63,10,2.31,19.21,6.64,28.93,9.62.6,1.16.61,2-1,2-1.51,1.38-3,.52-4.52,0-.43-.16-.84-.34-1.26-.53a28.36,28.36,0,0,0-5.94-1.68C126.26,108.12,122.36,106.06,118.08,104.92Z"/><path class="cls-221" d="M139.07,75.05A11.49,11.49,0,0,0,135,62.54c-2-1.61-2.06-4.13-3.89-5.79a9.49,9.49,0,0,0-5-2.76c1-1.32,1.73-3.83,3.94-1.49,4.26,4.52,9.53,8.16,12,14.24a14.66,14.66,0,0,1,1,6.24c-.68,1.14-2.17,1.1-3,2Z"/><path class="cls-222" d="M84.07,104c4.31-3,9.21-1.83,13.93-2a8.65,8.65,0,0,1,.1.89c-.15,1,.41,2,.48,3a1.75,1.75,0,0,1-.52,1.09c-3.77,0-7.07,2.71-11,1.89-1.19-1.09-2.54-2-3.22-3.58A1.52,1.52,0,0,1,84.07,104Z"/><path class="cls-223" d="M116.85,64.93a8.37,8.37,0,0,0-2.92,4A26.38,26.38,0,0,0,108.15,77c-1.16.29-2.46,1.8-3.45.38s.83-2.15,1.56-3.07C107.34,73,109,72,109.11,70c-.15-1.52.71-2.62,1.52-3.75,2.11-2.79,4.22-5.57,6.2-8.44,1-1.45,1.84-3.3,4.17-2.92l1.12,1.1a1.7,1.7,0,0,1,.4,1.72,3.14,3.14,0,0,1-.47,1.15,34.9,34.9,0,0,0-2.55,3.48A29.34,29.34,0,0,0,116.85,64.93Z"/><path class="cls-224" d="M100.18,90.82l-.09-.85c.85-4.25-1.44-6.52-5-8,1.34-1.48,3.44-1.24,5-2.21a7.2,7.2,0,0,1,5,2.21c2.35,1.13,2.3,3.83,3.65,5.65.89,1.2-.4,2.24-1.35,3.26C104.84,93.61,102.56,91.48,100.18,90.82Z"/><path class="cls-225" d="M127.93,84.91c-4.06,1.18-8.22,2-12,4l-.49,0L115,89c-1.14-.3-3,.79-3.25-1.06-.16-1.26,1.54-1.56,2.61-1.78,7.41-1.49,14.05-5.68,21.75-6.16,2.38,1.46-.12,1.9-.57,2.78C133.28,84.54,130.38,83.94,127.93,84.91Z"/><path class="cls-226" d="M98.06,107l0-1a6.78,6.78,0,0,1,2-2c2.44-.08,2.93-1.73,3.09-3.72.23-2.82,2.65-3.11,4.32-2.59,2.82.88.21,2.46,0,3.82-.32,2.68-2,4.48-3.49,6.41C102.06,107.45,99.6,110.35,98.06,107Z"/><path class="cls-227" d="M116,121c.32.33.63.67.95,1a5.91,5.91,0,0,1,2.85,4,3.12,3.12,0,0,1-1.56,3.12,1.91,1.91,0,0,1-1.94-.67c-3-4.88-7.33-9-9.2-14.61L105,110c1-1.6,2-.33,3.07,0,1,3.39,3.72,5.56,6,8.07C115.15,118.71,115.24,120.11,116,121Z"/><path class="cls-228" d="M145,108l8,1.9,1,.15c2.66.62,6.15-.6,7.34,3.29-1.23,1.82-2.82,1.15-4.39.64-4.55-.58-8.56-2.9-12.93-4.06Z"/><path class="cls-229" d="M111.11,67c-.66,1-1.33,2-2,3-2.61.43-3.16,5.51-7,3.09,3.43-.64,4.49-3.6,6-6.14,1.07-1,.47-4,3.35-2.8A2.6,2.6,0,0,1,111.11,67Z"/><path class="cls-230" d="M135.06,81.88c-.1-.86,2.07-.54,1-1.92L140.12,78c.79,1.28,2.17.87,3.31,1.15a1.11,1.11,0,0,0-.14.87l-5.22,2A2.06,2.06,0,0,1,135.06,81.88Z"/><path class="cls-231" d="M96.06,59c.4,4-.91,8.14,1,12l-1.87-.13q0-5.92,0-11.85Q95.63,58.31,96.06,59Z"/><path class="cls-206" d="M105.07,82c-2.12.44-3.42-1.1-5-2l-.61-.21A1.39,1.39,0,0,1,99,78.06l.15-.17C101.34,79,104.72,78.29,105.07,82Z"/><path class="cls-166" d="M92.07,75l-1,0c-.62-1.22-2-.73-3.45-1.61,3.64-.33,3-3.58,4.44-5.34l.09,5.91Z"/><path class="cls-232" d="M128.05,78.94c0-.32,0-.65,0-1,1.1-2.07,2.82-2.59,5-2h4C134.44,78.24,131,77.89,128.05,78.94Z"/><path class="cls-233" d="M100.07,104a1.83,1.83,0,0,1-2,2c-.85-1-2.56-2,0-3Z"/><path class="cls-205" d="M140.07,75a3,3,0,0,1,3-2l2.27.14A7.1,7.1,0,0,1,140.07,75Z"/><path class="cls-166" d="M97.07,76c-1.68-.27-3.6.66-5-1C93.76,75.23,95.67,74.32,97.07,76Z"/><path class="cls-234" d="M161.09,112.92c-2-1.74-5.31-.33-7-2.83v-.19c4.29-.94,5.44-3.93,5.59-7.93.27-7.11-.62-14.11-1.45-21.13-.19-1.58-1-3.19-.15-4.82,4.08-1.67,5.41-.7,6.29,4.06,1.82,9.92,2.41,19.69.77,29.63-.24,1.51,0,3.08-2.12,3.32A1.22,1.22,0,0,1,161.09,112.92Z"/><path class="cls-235" d="M158.05,76c3.15,9.4,3.33,19.11,2.83,28.87-.22,4.23-1.66,7.28-6.82,5,2.41-6.83,3.74-13.75,2.5-21a24.13,24.13,0,0,1,.15-6.73,5.55,5.55,0,0,0-2.54-5.87Z"/><path class="cls-236" d="M161.09,112.92l1.9.11,2,1,1,2.93c-3-1.06-6.33-1-9-3C158.41,113.81,160.05,114.47,161.09,112.92Z"/><path class="cls-237" d="M169.11,109c0,1.27-.07,2.54-.11,3.82a1.12,1.12,0,0,1-1,1.15l-1.78-1.07c.35-1.3.69-2.6,1-3.9Z"/><path class="cls-238" d="M168,114l1-1.15a1.62,1.62,0,0,0,.95,0l4,.33a2,2,0,0,1-1.07,2.05C171.39,114.22,169,116.87,168,114Z"/><path class="cls-239" d="M95.19,115a8,8,0,0,0,5.25-1.21c2.09-1.44,3.35-.18,4.63,1.2,4.73,4.41,9.74,8.63,10.38,15.74-3.7,3.53-8.42,5-13.17,6.19s-6.19.09-7.16-4.94q-.06-5.5-.11-11C93.69,118.93,93.27,116.93,95.19,115Z"/><path class="cls-240" d="M95.12,132c1.24,4.34,4.2,4.79,7.91,3.5a50.3,50.3,0,0,0,12-5.52,1.29,1.29,0,0,1,1.41-.22c2.77,2.27,5.63,4.5,4.88,8.74-7.48,6.67-16.52,9-26.24,9.47Z"/><path class="cls-241" d="M96.07,169h-1v-9a5.5,5.5,0,0,1,4.64-3.23c9-1,17.61-3.18,25.14-8.55,2.17-1.55,4.08-.54,5.92.78,1.3,1.1,2.33,2.3,1.52,4.16-9.51,6.42-19.78,10.75-31.66,11.34,2.33.36,4.42-.1,6.5-.08,1,0,2.11.26,2.18,1.52s-1,1.34-2,1.57C103.58,168.3,99.77,168.18,96.07,169Z"/><path class="cls-242" d="M130.08,150c-2-1.59-3.35-1.86-5.82.06-6.6,5.14-14.72,6.77-22.82,7.84-2.36.31-4.49.6-6.36,2.1,0-1.67,0-3.34,0-5,1-3.6,3.49-4.55,7-4.74a32.42,32.42,0,0,0,18-6.13,8.15,8.15,0,0,1,5-1.77C128.18,143.93,130.66,145.94,130.08,150Z"/><path class="cls-243" d="M125.06,143c-2.38,1.06-4.75,3.72-6.34,4-5.41,1.1-10,5.39-15.59,4.66-3.69-.48-6,.6-8,3.28l0-7c7.41-2.48,15.32-3.52,22.18-7.61,1.28-.76,2.52-1.58,3.77-2.37a3.11,3.11,0,0,1,2.44.88C124.33,140.11,125.74,141.15,125.06,143Z"/><path class="cls-134" d="M92,150c.54-3.34-.84-6.88,1-10.09.29,5.74,0,11.45.82,17.23,1,6.91-.16,14-1.83,20.79Q92,164,92,150Z"/><path class="cls-244" d="M95.19,115,95,121c-2.45,1.49-1.62-1.79-2.9-2,0-1.1-.12-2.21-.1-3.32,0-.92-.15-2.13,1.07-2.31C94.14,113.18,94.69,114.18,95.19,115Z"/><path class="cls-245" d="M92.05,135A24,24,0,0,1,92,120.1Q92,127.53,92.05,135Z"/><path class="cls-246" d="M106,175.07c-.44-.47-1.16-.89-1.18-1.34,0-.85.84-.88,1.38-.6s.82.85,1.22,1.3Z"/><path class="cls-247" d="M14.11,81A4.74,4.74,0,0,1,16,85.36c-1.44,9.77.42,19.26,2.15,28.77-1.64,1.16-1.67-1.15-2.72-1.26A7.22,7.22,0,0,1,15,112,66,66,0,0,1,14.11,81Z"/><path class="cls-66" d="M10,103.07c-1.52-1.47-.8-3.36-.95-5.08C10.76,99.43,9.86,101.35,10,103.07Z"/><path class="cls-248" d="M42.07,113a9.8,9.8,0,0,1,6-2l.69.13c3.5,2,4.26,5.82,6.2,8.86,2.21,3.47,4.32,7,7.63,9.62a3.4,3.4,0,0,1,0,1.42c-1.57,2.05-2.2,4.78-4.5,6.32a2.51,2.51,0,0,1-1.43-.21c-7.88-4-12.55-10.82-16.35-18.44C39,116.13,38.62,114,42.07,113Z"/><path class="cls-242" d="M53.05,144.94c-.65.35-1.31.69-2,1-6-2.21-8.57-8-12.43-12.31C34.46,129,32,123,30.07,117c1.32-1.57,3.57-.75,5-2,1.19,1,1.63,2.45,2.24,3.78A54.93,54.93,0,0,0,51.8,138.45c1.11.93,2.4,1.77,2.81,3.32A3.14,3.14,0,0,1,53.05,144.94Z"/><path class="cls-249" d="M54.08,142c-8.82-7.23-16.19-15.49-19-27,2.24-1,4.46-2,7-2-1.68,1.41-2.22,2.62-.81,4.94,3.87,6.37,6.76,13.45,14.21,16.75a2.49,2.49,0,0,1,1.6,2.29C57.48,139.46,57.21,141.57,54.08,142Z"/><path class="cls-250" d="M56.08,102.92l6-1.92c1,.59,2.52-.21,3.19,1.23-.38,1.82-2,2-3.35,2.66-5.63,1.36-11,3.89-16.88,4.08-.33,0-.65,0-1,0-1.11-.07-2.26,0-3.16-.84a.86.86,0,0,1,.19-1.16,15.27,15.27,0,0,0,7-2C51,105.34,53.17,102.65,56.08,102.92Z"/><path class="cls-251" d="M45.07,109c5.36-2.66,11.19-3.77,17-5,1-.63,1.79-.55,2.3.61a2.05,2.05,0,0,1-.68,1.23A35.78,35.78,0,0,1,53.06,110c-1.64.17-3.28,1.21-4.92,0C47,110,45.79,110.18,45.07,109Z"/><path class="cls-252" d="M41.05,108c1.11.06,2.32-.16,3,1a34.29,34.29,0,0,1-10,3c0-.66,0-1.32,0-2a2.24,2.24,0,0,1,2-1C37.74,108.62,39.13,107,41.05,108Z"/><path class="cls-248" d="M48.14,110.05l4.93-1c-.68,3.13-2.63,3-5,2l0,0C48.08,110.67,48.1,110.36,48.14,110.05Z"/><path class="cls-253" d="M19.08,86v8c3.57-6.3,1.06-13.22,5.9-19.45C24,81.86,22.57,87.85,23.08,94c1.06,4.87,1.28,9.85,2,14.75a4.74,4.74,0,0,1-1,4.18,8.18,8.18,0,0,1-5,1.11c-1.18-7.75-1-15.55-1-23.35C18.12,89.07,17.55,87.29,19.08,86Z"/><path class="cls-254" d="M24.08,112.91c-.51-4.32-.94-8.65-1.55-13-.29-2.07-1.16-4.11.55-6,3.7-1.85,2.77-5.37,3.07-8.46.08-.78.32-1.86,1.29-1.66s.51,1.37.64,2.13c.39,7.24-.92,14.55.94,21.73.5,1.93-.75,3.07-1.93,4.23Z"/><path class="cls-200" d="M96.07,169c3.93-1.86,8.54-1,12.47-3.12-4,0-8,.61-12.6-.43,4.19-3.7,8.82-2.31,12.83-3.23a74.91,74.91,0,0,0,19.2-7.83c1.35-.74,2.54-1.52,4.13-1.4,1.89-.6,2.31.85,2.88,2.08,0,.66,0,1.32,0,2-6.33,2.2-11.49,6.57-18.17,8.53C109.92,167.57,103.2,169,96.07,169Z"/><path class="cls-255" d="M135,155,132.09,153a3.18,3.18,0,0,0-2-3c-.86-2.92-2.89-5-5-7-.55-1.39-2.12-2.26-2-4a2.66,2.66,0,0,1,.9-2.23A.85.85,0,0,1,125,137c2.76,5.29,6.5,9.89,10.15,14.55.82,1,1.89,1.88,2,3.33C136.43,154.85,135.64,153.93,135,155Z"/><path class="cls-256" d="M165,120c0,.37,0,.73,0,1.1a2.36,2.36,0,0,0-2.45,1.37C158.62,133.05,152,141.74,144,149.6a33.84,33.84,0,0,0-2.8,3.69L144,153c-.44,1-.87,2-1.31,2.92-.64-.49-1.27-.82-1.86.06l-4.76-7a5.21,5.21,0,0,1,2.2-4.25c7.81-6.68,13.4-15,17.57-24.27.48-1.06.94-2.13,2.23-2.47C160.67,117.59,162.52,119.8,165,120Z"/><path class="cls-257" d="M158.08,118c-4.14,10.76-10.15,20.21-19.11,27.65a27.39,27.39,0,0,0-2.89,3.34c-2.79-2.06-3.94-5.36-6-8,3.66-1.56,6.69-4.17,10.24-5.95,2.44-1.22,3.77-3.63,4.7-6.2,1.68-4.64,4.63-8.59,7-12.84C154.31,115.9,156.49,116,158.08,118Z"/><path class="cls-242" d="M152.06,116c-1.23,3.29-.66,7.46-4.66,9.44-.44.22-.72,1-.8,1.64-.77,5.68-4,9.12-9.39,10.89-2.44.81-3.58,4.71-7.11,3l-4-5,.56-.42c3.14.7,5.28-.63,7.13-3.11,3.65-4.87,7.35-9.64,9.68-15.41.73-1.81-.23-2.73-.36-4.06C146.55,112.51,149.15,114.73,152.06,116Z"/><path class="cls-258" d="M125,137l-1,0a12.05,12.05,0,0,1-6-8.14l1-2.87c2.43-.13,2.81,2.08,4,3.42.77,2.32,3.87,3.54,3.11,6.58h-.09Z"/><path class="cls-259" d="M126.15,136l-4-6c4.84-5,9.47-10.16,12-16.84a3.12,3.12,0,0,1,3-2.17L142,112l1,1c1.3,1,2.66,1.4,1.67,4-2.49,6.65-7,11.9-11,17.47C131.7,137.33,129.1,137.59,126.15,136Z"/><path class="cls-260" d="M88.07,71l-3,1c-4.16,2.44-5.86-1.07-7.82-3.44A38.44,38.44,0,0,1,74.05,63c1.7-5.9,7.49-5.11,11.63-7,1.23-.54,2.91-.08,4.38-.08,0,2.33-1.18,4.66,0,7C88.43,65.42,91.16,68.92,88.07,71Z"/><path class="cls-177" d="M90.06,43c-8.76-.38-16.33,3.83-24.38,6.36,5.54-4.11,11.54-7,18.49-7.27A10.14,10.14,0,0,0,90.06,40Z"/><path class="cls-178" d="M90.06,34c-3-2.25-7,.37-10-2l7-1a2.39,2.39,0,0,1,3,0Z"/><path class="cls-177" d="M88.07,71c2-2.33-.13-5.68,2-8l.06,1C89.37,66.3,91.76,69.52,88.07,71Z"/><path class="cls-180" d="M90.06,31h-3c.65-1,2.17-1.49,2-3C90.26,28.7,90.08,29.87,90.06,31Z"/><path class="cls-261" d="M96.06,59l-.84,0,0-18c1-2.29,3-2.46,5-2.17,6.52,1,12.79,2.82,18.36,6.53a4.59,4.59,0,0,1,2.44,4,8,8,0,0,1-2.37,5,2.58,2.58,0,0,1-2.8.72c-3.26-4.41-8-6.29-13.07-7.52s-5.24-1-5.36,4.26A13.84,13.84,0,0,1,96.07,58C96.07,58.32,96.06,58.65,96.06,59Z"/><path class="cls-262" d="M95.26,36V32c4-1.33,8.17,1.18,12.11-.76,7.56.92,14.9,2.39,20.33,8.45,0,3.18-1.16,5.52-4.35,6.55-2.31-4.55-6.87-5-11.1-6.13-5-2.26-10.34-2.77-15.7-3.21A4.28,4.28,0,0,1,95.26,36Z"/><path class="cls-263" d="M116.07,24c6.39,1.53,13,2.72,17,8.87-.29,1.86-1,3.32-3.18,3.49-4.3-2-8.47-4.26-12.87-6a13.64,13.64,0,0,0-5.26-1,9.15,9.15,0,0,1-4.46-1.15c-3.69-2.23-8.33-.79-12-3.1l0-2.09c4.66-2.75,9.15.17,13.71.46C111.35,23.55,113.58,25.2,116.07,24Z"/><path class="cls-264" d="M112.07,28a37.46,37.46,0,0,1,18,8c-.13,2-.52,3.75-2.86,4.21-5.79-5-12.94-6.67-20.15-8.19l-.67,0c-3.31.05-6.52-1.42-9.87-.65A2.28,2.28,0,0,1,95.24,31c0-1.34,0-2.69,0-4,4.39-.55,8.71-.71,12.85,1.29C109.39,28.94,110.84,29.48,112.07,28Z"/><path class="cls-265" d="M95.26,36h.81a83.21,83.21,0,0,0,17,3,30.22,30.22,0,0,1,8.53,3.13c1.91,1.1,1.77,2.32,1.49,3.92.41,2.38-.3,3.94-3,4.07-.07-1.32-.07-2.62-1.55-3.33C111.2,43.2,104.16,38.35,95.25,41,95.25,39.32,95.25,37.67,95.26,36Z"/><path class="cls-266" d="M116.07,24c-4.36,2.59-8.62-.43-13-.38-2.5,0-5.21-.52-7.83-.68,0-.94,0-1.88,0-2.82C102.53,19.79,109.09,23,116.07,24Z"/><path class="cls-262" d="M112.07,28c.29.95.56,2.52-.92,1.87C106,27.63,100.37,28.78,95.22,27a1.85,1.85,0,0,1,0-1c4.42-1.54,8.57.52,12.84,1C109.13,28.44,110.69,27.83,112.07,28Z"/><path class="cls-267" d="M95.24,31l.83-.07c3.83-1.42,7.34.48,11,1h0c-3.93,3-7.86.67-11.8,0A1.53,1.53,0,0,1,95.24,31Z"/><path class="cls-264" d="M108.07,27c-4.34.46-8.48-1.65-12.84-1,0-.33,0-.66,0-1C99.65,24.87,104,25,108.07,27Z"/><path class="cls-268" d="M120.12,50.11c1.61-.9,2.16-2.58,3-4.07a13.62,13.62,0,0,0,4.11-5.84c1-1.41,1.91-2.81,2.86-4.21l3-3.12,1,.09L135.09,34c-4.55,7-10.2,13.37-14.09,20.88-4.24,3.27-5.76,8.77-9.89,12.13,0-1.06-.07-2.12-.1-3.18-.42-1.48.69-2.42,1.25-3.56a12.38,12.38,0,0,1,2.61-3A13.08,13.08,0,0,0,118.06,54Z"/><path class="cls-269" d="M157.08,64c-1.26,1.1-1.86-.2-2.25-.85a79.44,79.44,0,0,0-16.77-20.33,13.52,13.52,0,0,1-2-2.78c4-.82,5.87,2.84,7.8,4.79C149.35,50.32,154.72,56.19,157.08,64Z"/><path class="cls-232" d="M122,57.91c0-.63.09-1.27.14-1.91L125,53.89c.32,1.81-1.37,2.7-1.91,4.12A.86.86,0,0,1,122,57.91Z"/><path class="cls-270" d="M77.07,76c-1,1.5-2.07,3-3,4.52-2.12,3.42-4.68,4.32-8,1.51-1.07-1.46-2.73-1.74-4.31-2.25-5-1.6-4.64-1.61-1.8-6.42C62.13,69.69,67.08,68,67.1,63Z"/><path class="cls-271" d="M47.06,75l-3,0c-1.37-.33-1.22-2.88-3.95-1.84-2.15.81-2.63-1.8-1.9-3.78a35.39,35.39,0,0,1,5.51-9.41c3.54-4.55,7.2-9,12.35-11.95q.48,0,1,0c.48,3.66,4.39,5.4,5,9-5.74,3.44-8.94,9.2-12.91,14.24A27.45,27.45,0,0,0,47.06,75Z"/><path class="cls-272" d="M56.09,48c-4.26,5.65-10.51,9.61-13.74,16.14-.36.73-1.11,1.32-1.31,2.07-.57,2.08-3.78,4.17-1.65,6s1.18-3.68,4.2-2.62c.21,1.66-1.11,3.72.49,5.37a43.09,43.09,0,0,1-11-4c4-11,11.22-19.59,20-27C54.1,45.31,55.09,46.65,56.09,48Z"/><path class="cls-186" d="M41.05,108l-5,1,1-1a6.71,6.71,0,0,1,4-1C41.1,107.32,41.07,107.64,41.05,108Z"/><path class="cls-273" d="M69.1,89l4.73-.06a2.65,2.65,0,0,1,1.3,1.88,4.85,4.85,0,0,1,.11,1.47c-.21,1.67-.52,3.79-2.53,3.57s-.77-2.4-1.09-3.57c-.71,2,.85,3.9.42,6A2.27,2.27,0,0,1,69.11,98Q69.1,93.51,69.1,89Z"/><path class="cls-274" d="M69.11,98l2.9-.11c1.67-.16,1.58.9,1.4,2a4.5,4.5,0,0,1-4.18,1.77c-1.49-.34-3.09-.43-4.18-1.75Z"/><path class="cls-275" d="M65.05,100c1.39.19,3-.46,4,1-.89,1.8-2.18,2.24-3.91,1.13-1.09-.19-2.34.07-3.07-1.12Z"/><path class="cls-270" d="M55.08,78.92c-1.46-1.16-3.67-.39-5-1.92,4.06-.11,4.09-4.18,6-6.34,2.59-2.89,4.35-6.54,8.43-8.13C61.32,68,55.86,72.16,55.08,78.92Z"/><path class="cls-276" d="M74.13,90.9l-.3-2c0-.62,0-1.23.08-1.85L75,85.89l1.19.16c.86.82,1,2.13,1.94,2.9a9.19,9.19,0,0,0,1,.57c1.27.54,2.87.21,3.89,1.42-.5,1.11-2.13,1.46-2,3a2.79,2.79,0,0,1-1,2.43c-3.6.71-3.69-2.58-5.05-4.43Z"/><path class="cls-166" d="M90.09,75c-1,2.28-3.08,2-5,2C86.49,75.64,88.32,75.39,90.09,75Z"/><path class="cls-277" d="M90.07,137q0,16,0,32c-1.71-1.78-.63-4-1-6a5.91,5.91,0,0,1-1.31-4.31c.08-6.6.06-6.54-5.83-7.81-7.55-1.62-15.33-2.74-21.15-8.64a3,3,0,0,1-.25-2.14c2.09-2.55,2.85-6.3,6.63-7.32,4.51,2.73,9.48,4.28,14.49,5.78C84.79,139.48,87.23,137.31,90.07,137Z"/><path class="cls-278" d="M89.07,158v5c-11.77.79-21.9-3.46-31.26-10.11-1.37-1-2.9-1.82-1.75-3.91-.78-1.07-.36-1.82.64-2.42,2.52-.47,4.39.93,6.38,2.14,4.85,3,9.48,5.66,15.86,5.41C81.71,154,85.56,156.81,89.07,158Z"/><path class="cls-279" d="M57.06,147a2.09,2.09,0,0,0-1,2h-1a2,2,0,0,0-1-2c0-.34,0-.69-.05-1,.22-3.16,2.9-4.91,4.25-7.42a2,2,0,0,1,1.83-.79c.89.51,1.46,1.18,1.06,2.29L61,142C60.45,144.23,58.69,145.55,57.06,147Z"/><path class="cls-280" d="M90.07,137c-2.33,4-6.23,3.8-9.49,2.5C76,137.65,70.12,138.1,67.06,133c-.42-4.61,2.68-6.67,6.15-8.47,4.65,1,8.83,3.44,13.4,4.68,3.25.89,2.66,3.65,3.44,5.77C90.06,135.64,90.06,136.31,90.07,137Z"/><path class="cls-281" d="M76.05,108a3.23,3.23,0,0,1,0,4c.35,2.93-2.42,4.36-3.22,6.74a3.68,3.68,0,0,1-3,1.84,3.91,3.91,0,0,1-2.91-1.7c-.75-1.1-1.05-1.27-1.89,0-.43.64-8.37-3.56-8.67-4.76-.54-2.19-.93-3.9,2-5.64,1.81-1.1,4.08-1.79,5.67-3.38l0-.09c2.89-2.08,5.73-4.46,9.28-1.13C74.34,105.16,75.7,106.25,76.05,108Z"/><path class="cls-282" d="M90.05,135c-.86-3.74-3.9-5-7.06-5.78-3.59-.84-6.72-2.56-9.92-4.21-1.48-2.62,1.14-3.78,2-5.59,2.28-2.22,3.34-5.81,7.11-6.39,8.29.93,9.39,6.08,8,13.09C89.61,129,90.06,132,90.05,135Z"/><path class="cls-283" d="M76.05,108a6.64,6.64,0,0,1-3-3c-1.06-1.7-.65-3.41,0-5.12a2,2,0,0,0-1-2c-1.18-2.15-1.1-4.43-.56-8,.47,2.49.74,3.87,1,5.36,2.3-1,1.34-2.94,1.66-4.43.3,0,.61.09.91.11,2.68,3.14,1.2,7,1.85,10.49.27,1.2,1.71,2,1.17,3.48C75.54,104.76,77.76,107.69,76.05,108Z"/><path class="cls-284" d="M116.07,130h-1c-2.34-5.65-6.91-9.82-10-15a2.21,2.21,0,0,0,2.07-1.08A96.49,96.49,0,0,1,117,128C116.49,128.55,116.87,129.55,116.07,130Z"/><path class="cls-285" d="M78.06,105c-.57-1.06-2.12-1.42-2.06-2.91-.6-1.57-.15-3.06,1.48-1.76,2.13,1.68,4.87,2.48,6.6,4.67,1.57.87,2.88,2,3,3.92C83.26,109.48,80,108.71,78.06,105Z"/><path class="cls-286" d="M82.14,113l-6.08,7c-1.48.27-1.57-.79-1.72-1.79.51-2.25,1.48-4.19,3.72-5.21.42-.49.86-1,1.26-1.46.72-.9,1.55-2,2.72-1.15C82.49,110.68,82.13,112.09,82.14,113Z"/><path class="cls-283" d="M78.06,113l-3,5c-.75.64-.22,2.35-1.87,2.24-.93-.46-.52-1.58-1.1-2.21l4-6A2,2,0,0,1,78.06,113Z"/><path class="cls-287" d="M59,138.9l-5,7-1-1c.35-1,.69-2,1-3,1.64-1.28,2.25-3.19,3-5,.33,0,.66,0,1,0C58.87,137.37,58.5,138.35,59,138.9Z"/><path class="cls-288" d="M137.09,111c-2.2,3.73-4.33,7.52-6.64,11.18-2.09,3.31-4.33,6.54-8.34,7.83l-3-4c-.58-1.37-2.07-2.27-2.08-3.94,3.78-2.82,6-6.9,8.37-10.79,1-1.62,1.15-2.85-1.66-3.21-2-.25-3.75-2-5.62-3.12,4.73,0,8.71,2.55,13,4,1.71,1.54,4.07,1.15,6,2Z"/><path class="cls-288" d="M116,121a3.46,3.46,0,0,1-2-3C119.25,116,114.71,120.46,116,121Z"/><path class="cls-289" d="M83,90.94c-1.68-.18-3.59.84-5-.94.57-.75,1.55-1,2.19-1.64-1,.22-1.52,1-2.19,1.64-2.73-.31-1.81-2.37-1.88-4,.64-.13,1.28-.22,1.91-.38,1.62-.42,1-5,3.74-2.55C83.85,84.92,85.52,87.9,83,90.94Z"/><path class="cls-290" d="M100.11,80c-.65,3.23-3.27,1.61-5,2-1.19-1.76-2.24-3.48,1-4.1,1.21.93,2.84,1,4,2.07Z"/><path class="cls-283" d="M80,96c.33-.67.66-1.35,1-2L83.11,93c-1.34,1.66-.39,5.2-4.07,4.92C78.51,96.85,79.52,96.52,80,96Z"/><path class="cls-224" d="M100.1,80a4.9,4.9,0,0,1-4-2.06l2.9.16C99.37,78.7,99.74,79.33,100.1,80Z"/><path class="cls-231" d="M112.73,60.9l-1.72,3-3,3.11a4.75,4.75,0,0,1,1.14-3.67,1.76,1.76,0,0,0,.23-2.25c-1.89-3.31-10.26-5.24-13.36-3q0-3.5,0-7c5.81-2.9,15,1.63,17.57,4.52C115.48,57.6,112.65,59,112.73,60.9Z"/><path class="cls-291" d="M132.15,102.85c2.15-6,.47-11.92-.08-17.87,1.49-2.21,3.44-3,6-2,0,4.09-.57,8.24.65,12.22.75,2.47,0,4.67-.73,6.79C136.72,105.64,134,101.9,132.15,102.85Z"/><path class="cls-213" d="M138.07,83a9.63,9.63,0,0,0-6,2l-4.14-.07,7.13-3,3,.13Z"/><path class="cls-292" d="M122,57.91l1.1.09c5,3.1,10,6,8.24,13.43-.31,1.3,1.11,3,1.73,4.55l-5,2c-1.72-4.93-6-8.26-8.18-12.9-.78-1.63-2-.18-3-.14a5.42,5.42,0,0,1,2.08-3,20.35,20.35,0,0,0,3.07-4Z"/><path class="cls-206" d="M80,96c-.33.67-.66,1.33-1,2-1.92,1.81.13,2.55,1,3.36a35.4,35.4,0,0,0,4,2.71c0,.32,0,.65,0,1-2.14-1.18-4.52-1.93-6.31-3.76-1.16-1.18-1.6-.33-1.77.84-1.69-3.56.69-7.48-1-11C77.74,91.61,76.46,96.24,80,96Z"/><path class="cls-293" d="M87.84,99c2.31-2.62,3.77-4.36,5.32-6,1.33-1.42,3-1.25,4.54-.48s1.46,2,.9,3.42-.87,3.22-3.16,3.09C93.32,98.88,91.19,99,87.84,99Z"/><path class="cls-259" d="M137.08,111c-2.17-.17-4.71.79-6-2A9.6,9.6,0,0,1,137.08,111Z"/><path class="cls-232" d="M122,57.91c0,2.15-1.26,3.28-3.06,4A6.55,6.55,0,0,1,122,57.91Z"/><path class="cls-294" d="M103.09,86c-1-.54-2.28-1.09-2.19-2.33.07-1,1.27-.7,2-.56,1.81.34,1.9,1.47,1.16,2.89C103.73,86.4,103.41,86.39,103.09,86Z"/><path class="cls-295" d="M103.09,86h1c.28,1,1.51,2,0,2.9-.5.32-1.21.85-1.67.16C101.62,87.89,102.79,87,103.09,86Z"/><path class="cls-296" d="M116.07,130a2,2,0,0,1,1-2c.33.29.67.57,1,.85q3,4.07,6,8.14a2.06,2.06,0,0,1-1,2,2.19,2.19,0,0,1-2-1C120.44,134.66,117.69,132.67,116.07,130Z"/><path class="cls-297" d="M64.08,105.06c-1.29,2.24-3.89,3-5.77,4.41s-1,2.52-1.11,3.66c-.17,1.5,1,1.93,2.36,1.58.32-.08.89-.23.93-.14,2,4,7.15,2.29,9.58,5.41.57.93,0,1.68-.38,2.45-1.09,1.9-2.59,3.51-3.79,5.33-1,1.17-1.77,2.8-3.8,2.26-4.65-2.18-6.5-6.73-8.82-10.77A54.17,54.17,0,0,0,48.1,111a6,6,0,0,0,5-2Z"/><path class="cls-298" d="M59,138.9a2,2,0,0,1-.94-1.93c1.09-2.16,1.38-4.85,4-6a4.11,4.11,0,0,1,2.35,2.24,6.09,6.09,0,0,1-4.3,4.89Z"/><path class="cls-299" d="M63.94,132.92c-1.32,0-1.83-.78-1.9-2,0-.31.05-.61.06-.92a7.53,7.53,0,0,0,3-3c1.13-.89,1.86-.42,2.4.69C67.48,130.23,66.67,132.24,63.94,132.92Z"/><path class="cls-300" d="M73.05,99.91c1.86,1.7-.71,3.42,0,5.12-3-4-6,0-9-.06a2.18,2.18,0,0,0-2-1l3.14-1.82L69.08,101Z"/><path class="cls-301" d="M112.73,60.91c-1.64-1.67,2.09-3.72.11-4.67-2.75-1.32-4.58-4.23-8.07-4.29-2.9-.06-5.8-.62-8.69-1-.69-4.58.32-6.78,5.7-5.1a57.15,57.15,0,0,1,11.37,4.42c1.63.92,3.27,2.33,2.92,4.71a3.83,3.83,0,0,1-.88,3Z"/><path class="cls-229" d="M115.19,58c-.06-1.09-.21-2.22.88-3l2-1C117.74,55.79,117.45,57.6,115.19,58Z"/><path class="cls-302" d="M113.07,39c-6.09,1.42-11.8.66-17-3C102,35.39,107.6,36.86,113.07,39Z"/><path class="cls-262" d="M107.06,32l-11-1C100,28.75,103.51,30.48,107.06,32Z"/><path class="cls-303" d="M57.06,147c.28-2.49,2.15-3.72,3.95-5,2.41,1.31,4.7,3,7.27,3.82,2.76.88,5.07,5.25,8.74,1.45.64-.66,1.89.1,2.55.93s1.12,1.91,2.25,1.7c6.94-1.29,7.77,2.78,7.25,8.11-3.33-.19-7.37,1.86-9.19-3-.1-.26-.55-.66-.68-.6C69.69,158.24,64.53,149.16,57.06,147Z"/><path class="cls-304" d="M63.94,132.92l3.27-4.81a11.93,11.93,0,0,1,2.22-4.62c1.07-1.32,1.66-3.15,3.68-3.47L75.05,118a2.08,2.08,0,0,0,1,2c-.64,1.88-3.09,2.69-3,5-2.27,2.47-4.9,4.67-6,8-2.34,2-3,5.46-5.91,7-.35-.65-.7-1.29-1.06-1.93Z"/><path class="cls-305" d="M73.11,120c-1,1.35-2,2.7-3,4.06A2.27,2.27,0,0,1,69,122l1-2,2-2A2.13,2.13,0,0,1,73.11,120Z"/><path class="cls-280" d="M86.5,125.06c1.38-.08,2.39.22,2.49,1.73.06.9-.11,1.71-1.28,1.42s-2.49-.1-2.88-1.43S85.68,125.3,86.5,125.06Z"/><path class="cls-306" d="M78.06,90c.14-.77,0-1.77.48-2.27A3.19,3.19,0,0,1,82,86.79a1.78,1.78,0,0,1,.64,1.58C82.31,89.64,81.18,89.94,80,90l-1.93,0Z"/><path class="cls-307" d="M69,122a2.24,2.24,0,0,1,1.09,2.13c-.89,1.4-1.37,3.1-2.92,4A2.16,2.16,0,0,0,65.14,127Z"/></g></g></svg>