<svg xmlns="http://www.w3.org/2000/svg" viewBox="0 0 185.06 186.99"><defs><style>.cls-1{fill:#fdfdfd;}.cls-2{fill:#604929;}.cls-3{fill:#574124;}.cls-4{fill:#6b4e2b;}.cls-5{fill:#5c4626;}.cls-6{fill:#543f23;}.cls-7{fill:#715935;}.cls-8{fill:#5e4924;}.cls-9{fill:#5e462d;}.cls-10{fill:#584022;}.cls-11{fill:#5a4826;}.cls-12{fill:#5b4523;}.cls-13{fill:#684e27;}.cls-14{fill:#553e21;}.cls-15{fill:#885c1c;}.cls-16{fill:#4c3922;}.cls-17{fill:#362c23;}.cls-18{fill:#735a31;}.cls-19{fill:#7d5d35;}.cls-20{fill:#362c21;}.cls-21{fill:#9d9153;}.cls-22{fill:#dbcd94;}.cls-23{fill:#d5c089;}.cls-24{fill:#b3955d;}.cls-25{fill:#937441;}.cls-26{fill:#d5c389;}.cls-27{fill:#cdbb81;}.cls-28{fill:#d0bb82;}.cls-29{fill:#9e7e4a;}.cls-30{fill:#baa96c;}.cls-31{fill:#c0a56d;}.cls-32{fill:#443321;}.cls-33{fill:#957242;}.cls-34{fill:#8e6c3d;}.cls-35{fill:#9b7845;}.cls-36{fill:#795732;}.cls-37{fill:#b5955d;}.cls-38{fill:#c7ba7d;}.cls-39{fill:#af8f58;}.cls-40{fill:#9f804b;}.cls-41{fill:#c0b477;}.cls-42{fill:#393630;}.cls-43{fill:#947142;}.cls-44{fill:#312c27;}.cls-45{fill:#805e37;}.cls-46{fill:#513e24;}.cls-47{fill:#352a18;}.cls-48{fill:#71532e;}.cls-49{fill:#433527;}.cls-50{fill:#372d21;}.cls-51{fill:#987644;}.cls-52{fill:#825f37;}.cls-53{fill:#dac992;}.cls-54{fill:#cab57d;}.cls-55{fill:#775631;}.cls-56{fill:#8e6e3d;}.cls-57{fill:#b8aa6c;}.cls-58{fill:#b89a63;}.cls-59{fill:#857345;}.cls-60{fill:#a89e61;}.cls-61{fill:#79592b;}.cls-62{fill:#8b683b;}.cls-63{fill:#795631;}.cls-64{fill:#645523;}.cls-65{fill:#89733b;}.cls-66{fill:#977342;}.cls-67{fill:#916f40;}.cls-68{fill:#ccb77e;}.cls-69{fill:#43331e;}.cls-70{fill:#3e3426;}.cls-71{fill:#ba9d65;}.cls-72{fill:#453620;}.cls-73{fill:#a07d4a;}.cls-74{fill:#c4b077;}.cls-75{fill:#81643b;}.cls-76{fill:#3e3218;}.cls-77{fill:#8f703f;}.cls-78{fill:#443424;}.cls-79{fill:#453829;}.cls-80{fill:#70502e;}.cls-81{fill:#7a6231;}.cls-82{fill:#7d6137;}.cls-83{fill:#c2b17a;}.cls-84{fill:#695329;}.cls-85{fill:#a7985b;}.cls-86{fill:#c4a86f;}.cls-87{fill:#88663a;}.cls-88{fill:#4e3d25;}.cls-89{fill:#75662b;}.cls-90{fill:#a38650;}.cls-91{fill:#927341;}.cls-92{fill:#cdb27a;}.cls-93{fill:#c6b87c;}.cls-94{fill:#524328;}.cls-95{fill:#3e3b35;}.cls-96{fill:#836239;}.cls-97{fill:#99834e;}.cls-98{fill:#daca90;}.cls-99{fill:#5e4c2b;}.cls-100{fill:#b1a365;}.cls-101{fill:#614c28;}.cls-102{fill:#dac991;}.cls-103{fill:#d6c58c;}.cls-104{fill:#312b26;}.cls-105{fill:#816038;}.cls-106{fill:#65552b;}.cls-107{fill:#bdb36e;}.cls-108{fill:#4a3f33;}.cls-109{fill:#7f5c36;}.cls-110{fill:#534733;}.cls-111{fill:#b1a362;}.cls-112{fill:#2f2a27;}.cls-113{fill:#6c4c2c;}.cls-114{fill:#82683f;}.cls-115{fill:#d6c38e;}.cls-116{fill:#886f3d;}.cls-117{fill:#3f3d37;}.cls-118{fill:#6d5433;}.cls-119{fill:#927749;}.cls-120{fill:#ded193;}.cls-121{fill:#805a33;}.cls-122{fill:#b89960;}.cls-123{fill:#c7b87b;}.cls-124{fill:#b5aa6a;}.cls-125{fill:#43403b;}.cls-126{fill:#484640;}.cls-127{fill:#6d5332;}.cls-128{fill:#3f301d;}.cls-129{fill:#8e6b3e;}.cls-130{fill:#beb473;}.cls-131{fill:#977443;}.cls-132{fill:#332e28;}.cls-133{fill:#918448;}.cls-134{fill:#b0925a;}.cls-135{fill:#392b19;}.cls-136{fill:#645128;}.cls-137{fill:#5d4e24;}.cls-138{fill:#503f27;}.cls-139{fill:#5d4727;}.cls-140{fill:#ae8d55;}.cls-141{fill:#aea164;}.cls-142{fill:#aea261;}.cls-143{fill:#b8a86d;}.cls-144{fill:#3a3630;}.cls-145{fill:#7d5e37;}.cls-146{fill:#7d6338;}.cls-147{fill:#382c16;}.cls-148{fill:#927040;}.cls-149{fill:#58564d;}.cls-150{fill:#3e3c35;}.cls-151{fill:#524f48;}.cls-152{fill:#765a36;}.cls-153{fill:#494641;}.cls-154{fill:#43413c;}.cls-155{fill:#4d4b44;}.cls-156{fill:#332c26;}.cls-157{fill:#a1804b;}.cls-158{fill:#705532;}.cls-159{fill:#765834;}.cls-160{fill:#725634;}.cls-161{fill:#7f613a;}.cls-162{fill:#363029;}.cls-163{fill:#bba26d;}.cls-164{fill:#866137;}.cls-165{fill:#a98851;}.cls-166{fill:#d9ca8f;}.cls-167{fill:#3f3c36;}.cls-168{fill:#bba069;}.cls-169{fill:#8f6b3e;}.cls-170{fill:#947243;}.cls-171{fill:#87643a;}.cls-172{fill:#5a4125;}.cls-173{fill:#3c2e1d;}.cls-174{fill:#897741;}.cls-175{fill:#322714;}.cls-176{fill:#8d8244;}.cls-177{fill:#785832;}.cls-178{fill:#674a29;}.cls-179{fill:#beb370;}.cls-180{fill:#d2ccb9;}.cls-181{fill:#e8e2cb;}.cls-182{fill:#c7c1ae;}.cls-183{fill:#908979;}.cls-184{fill:#a09a8a;}.cls-185{fill:#aea999;}.cls-186{fill:#bab5a4;}.cls-187{fill:#87663b;}.cls-188{fill:#aea99a;}.cls-189{fill:#b6b3a7;}.cls-190{fill:#927e61;}.cls-191{fill:#282524;}.cls-192{fill:#3b342c;}.cls-193{fill:#3a2c1b;}.cls-194{fill:#4a4740;}.cls-195{fill:#3d2f1c;}.cls-196{fill:#413f3a;}.cls-197{fill:#795c37;}.cls-198{fill:#3a332c;}.cls-199{fill:#8c683d;}.cls-200{fill:#3b3933;}.cls-201{fill:#564525;}.cls-202{fill:#3d2f1d;}.cls-203{fill:#795f3e;}.cls-204{fill:#45423d;}.cls-205{fill:#5a574e;}.cls-206{fill:#535048;}.cls-207{fill:#4a4841;}.cls-208{fill:#4f4c44;}.cls-209{fill:#443522;}.cls-210{fill:#826138;}.cls-211{fill:#4d4a43;}.cls-212{fill:#535049;}.cls-213{fill:#81633c;}.cls-214{fill:#3d3a34;}.cls-215{fill:#423f3b;}.cls-216{fill:#4d3d25;}.cls-217{fill:#3f3d36;}.cls-218{fill:#39362f;}.cls-219{fill:#a79864;}.cls-220{fill:#4a4741;}.cls-221{fill:#504d44;}.cls-222{fill:#44413c;}.cls-223{fill:#684f30;}.cls-224{fill:#544027;}.cls-225{fill:#43413b;}.cls-226{fill:#463723;}.cls-227{fill:#725a3a;}.cls-228{fill:#c0a066;}.cls-229{fill:#403e37;}.cls-230{fill:#292625;}.cls-231{fill:#4b4841;}.cls-232{fill:#795c36;}.cls-233{fill:#59564e;}.cls-234{fill:#58564e;}.cls-235{fill:#625a4c;}.cls-236{fill:#877963;}.cls-237{fill:#9c7846;}.cls-238{fill:#a27f49;}.cls-239{fill:#967342;}.cls-240{fill:#6a5131;}.cls-241{fill:#b69b60;}.cls-242{fill:#574228;}.cls-243{fill:#3f301c;}.cls-244{fill:#533f26;}.cls-245{fill:#977544;}.cls-246{fill:#352818;}.cls-247{fill:#987543;}.cls-248{fill:#8c6d40;}.cls-249{fill:#4b4842;}.cls-250{fill:#525048;}.cls-251{fill:#ded8c4;}.cls-252{fill:#8a6e47;}.cls-253{fill:#5d5a51;}.cls-254{fill:#5b574d;}.cls-255{fill:#525049;}.cls-256{fill:#494741;}.cls-257{fill:#9f7b47;}.cls-258{fill:#4d4a42;}.cls-259{fill:#88693f;}.cls-260{fill:#513e27;}.cls-261{fill:#5a574f;}.cls-262{fill:#463621;}.cls-263{fill:#ae9056;}.cls-264{fill:#674d2c;}.cls-265{fill:#bfbbb1;}.cls-266{fill:#535047;}.cls-267{fill:#59564d;}.cls-268{fill:#5e5b51;}.cls-269{fill:#44423d;}.cls-270{fill:#5d482e;}.cls-271{fill:#7b5f3a;}.cls-272{fill:#423f39;}.cls-273{fill:#695031;}.cls-274{fill:#42403a;}.cls-275{fill:#494742;}.cls-276{fill:#47453f;}.cls-277{fill:#4d4b46;}.cls-278{fill:#514f4a;}.cls-279{fill:#7a5834;}.cls-280{fill:#4e3c24;}.cls-281{fill:#a78e5d;}.cls-282{fill:#535149;}.cls-283{fill:#87693f;}.cls-284{fill:#b19457;}.cls-285{fill:#9f7f4b;}.cls-286{fill:#9b7d4a;}.cls-287{fill:#40311f;}.cls-288{fill:#8a6b40;}.cls-289{fill:#958d7c;}.cls-290{fill:#816139;}.cls-291{fill:#c6b172;}.cls-292{fill:#d5caa1;}.cls-293{fill:#7d613c;}.cls-294{fill:#58554d;}.cls-295{fill:#5e5b53;}.cls-296{fill:#c0a461;}.cls-297{fill:#8d6a3d;}.cls-298{fill:#bdb18c;}.cls-299{fill:#2c2011;}.cls-300{fill:#e6e0c7;}</style></defs><g id="Layer_2" data-name="Layer 2"><g id="Layer_2_Image" data-name="Layer 2 Image"><path class="cls-1" d="M80.08,1.87V0h23l2,1.91c-2.84,2.51-6.31,1-9.47,1.49-2.25.17-4.51.61-6.79.22a26,26,0,0,0-5.22-.34C82.27,3.18,80.94,3.1,80.08,1.87Z"/><path class="cls-2" d="M84.09,2.12c1.77,0,3.71-1.09,5.21.77A2.77,2.77,0,0,1,87.82,4.7a38.33,38.33,0,0,1-7.73,1.6c-3.79,0-7.57,0-11.13,1.56-2.48,1.57-5.31,2.14-8.07,2.92a16.34,16.34,0,0,0-3.47,2.15c-3.41,3.27-8.28,3.89-12,6.64-2.8,1.6-6.52,1.65-8.31,5-1,1.46-2.52,2.5-3.6,3.91-3.28,3.07-7,5.7-9.82,9.22-1.86,2.26-2.51,5.36-4.92,7.25a65.78,65.78,0,0,0-8.7,17.32,22.93,22.93,0,0,0-3,8.48A3.8,3.8,0,0,1,6.39,72,1.64,1.64,0,0,1,5,72.21a4.75,4.75,0,0,1-1.72-3.16A3.25,3.25,0,0,1,3.92,67a21.78,21.78,0,0,1,3.2-9c.64-3.81,2.63-7,4.84-10a.82.82,0,0,0,.25-.77c1.2-1.77,1.68-4.06,3.7-5.26l1.16-2.08a5.25,5.25,0,0,1,2.11-2.79h0c1.72-2.56,2.9-5.6,6-6.94l0,0a4.5,4.5,0,0,1,3-3h0A7.31,7.31,0,0,1,32.83,23l2.25-2.13A39.42,39.42,0,0,1,49.17,12l1.93-1.23c1.67-1,3.34-1.91,5.06-2.78.32,0,.63-.08.94-.14a22.15,22.15,0,0,1,5.14-1.7v0c.73-1.15,1.84-1.1,3-.91a1.2,1.2,0,0,0,.87-.38c1.53-1,3.36-.49,5-.92,1.84.57,3.17-1.26,4.94-1C78.61,1.77,81.49,3.22,84.09,2.12Z"/><path class="cls-3" d="M112,4.19l1.18-.2c1.23.67,2.75,0,3.94.86l1.88.37c1.14-.1,2.26-.14,3,1,.39.89,1.19,1,2,1,5.5.46,9.91,3.27,14.1,6.56l.94.32a3.35,3.35,0,0,1,3,2h0a10,10,0,0,1,6,4.09A3.35,3.35,0,0,0,150.07,22,10.19,10.19,0,0,1,156,27.07h0a5.18,5.18,0,0,1,3,3l0,0c3.83,2.37,5.89,6.18,8.05,9.91l.87,1.08a4.42,4.42,0,0,1,2,3.12,2.91,2.91,0,0,0,2,2.86c1.5,1.26,1.91,3,2.17,4.82l.08.1c2.93,2.7,3.51,6.52,4.77,10,.07,1.31.09,2.61-1.42,3.23a2.72,2.72,0,0,1-2.21-1.82,23.49,23.49,0,0,0-2-5.25c-3.63-7.16-7.25-14.32-12.65-20.38a33.44,33.44,0,0,1-3.59-4.2c-2.47-3.73-6.53-5.71-9.63-8.75a20.75,20.75,0,0,0-5.21-4.25A91.41,91.41,0,0,0,124.42,12c-3-2-6.51-2.67-9.89-3.67-2.2-.51-4.51-.66-6.41-2.06C108,3,110.9,5.27,112,4.19Z"/><path class="cls-4" d="M177.22,65c1.06-.84.73-2.09.95-3.18,2.35.27.83,2.51,1.76,3.49l.33,3.76c0,.22.05.45.08.67.35,2.25,1.08,4.46.68,6.79a9.43,9.43,0,0,1-.29,1.46c-.58,3.3,1.09,6.44.68,9.74-.24,1.89.31,4-1.61,5.39-5.51,0-5-4.44-5.73-7.93-1.14-2.41-1.15-5.11-1.86-7.86-.21,5.69,1.47,11,1.22,16.47-.35,2.29.92,5.17-2.35,6.37-1.54-1.41-1.35-3.31-1.36-5.11a103,103,0,0,0-2.54-20.63,6.19,6.19,0,0,1-.45-3.15,3.09,3.09,0,0,1,1.7-1.4c2.35-.46,4.76-.85,5.49-3.72C175.08,65.93,176.36,66,177.22,65Z"/><path class="cls-5" d="M16.23,145.61A.45.45,0,0,0,16,145c-1.53-.62-2.05-2.05-2.72-3.37L12,139c-2.86-2.56-3.85-6-4.8-9.57a3.28,3.28,0,0,1,.52-1.35l.61-.4h.73c1.43.63,2,1.93,2.66,3.21s.9,2.93,2,4a8.68,8.68,0,0,1,.85,1c1,1.64,1.89,3.34,3,4.88.47.75.88,1.53,1.33,2.29a113.9,113.9,0,0,0,18.3,19.63c.72.51,1.42,1,2.09,1.61.5.4,1,.81,1.51,1.2a46.88,46.88,0,0,1,5.92,3.85,49.13,49.13,0,0,0,7.69,3.9c2.39,1.32,5.67,1.31,6.84,4.5a3.24,3.24,0,0,1-2.24,1.77c-.74,0-1.5.09-1.8-.83l0-.05c-2.43,0-4.21-1.49-6.1-2.71l0,0c-1.25-.77-3.05-.51-3.91-2h0a38,38,0,0,1-12.1-7.74L32.87,164c-5.43-2.8-8.51-8.08-12.7-12.17L19,150A9.84,9.84,0,0,1,16.23,145.61Z"/><path class="cls-6" d="M105.94,184.88l-.44-.15-.43.21a53.86,53.86,0,0,1-22,.15c-2.34-1-5,.4-7.32-1.06-1.27-.72-3-.07-4.07-1.37a1.89,1.89,0,0,1,.56-2.1c4-1,7.91.41,11.85.87a24.2,24.2,0,0,0,5.38.08,14.09,14.09,0,0,1,6.83,0,21.25,21.25,0,0,0,4.51-.1c5.6-.84,11.14-2,16.67-3.17,1.32.38,2.61.77,2.54,2.54l.12.35C115.77,183.8,110.49,182.93,105.94,184.88Z"/><path class="cls-7" d="M5.12,72c.32,0,.64,0,1,0,2,4.4-1.35,8.37-1,12.63-1.35,3.07,0,6.09.23,9.13.07,2.51-1.32,5-.27,7.53.31,1.83.52,3.66-.43,5.38a1.55,1.55,0,0,1-1.26.62c-1.25-1-.62-2.35-.73-3.58a16.1,16.1,0,0,0,.15,4A2.85,2.85,0,0,1,2.25,109c-.87.18-1.49.11-1.15-1a8.84,8.84,0,0,0-.63-5C.66,96.62.76,90.31.42,84a7.71,7.71,0,0,0,.67-5c-.37-1.77.46-3.33.89-5a.56.56,0,0,0,.26-.68c.18-.55.53-.66,1-.4a4.28,4.28,0,0,1,.14,3.22C3.87,74.73,3.55,73,5.12,72Z"/><path class="cls-8" d="M139,172.73a18,18,0,0,0-6,3.08,11.88,11.88,0,0,1-6,2.94l0,0c-.35.77-1,.76-1.71.69a2.67,2.67,0,0,1-1.47-1.35,2.3,2.3,0,0,1,0-1.35,4.84,4.84,0,0,1,2-1.81,31.33,31.33,0,0,1,4.43-1.53l1.19-.56c2.1-1.21,4.24-2.34,6.22-3.74,4.62-2.48-.88-4.53-.29-6.83.59-2.13,2.62-1.94,4.14-2.58,1.47,1.32,1.46,3.66,3.27,4.74a8.87,8.87,0,0,0,.68,3.84C144.15,171,141.66,172,139,172.73Z"/><path class="cls-9" d="M183.22,106l-.18,3a1,1,0,0,1-1.37-.18c-1-1.58-.91-3.5-1.56-5.19a23.6,23.6,0,0,1-.41-4.82,15.18,15.18,0,0,1,.38-5c1-3.08.18-6.27.58-9.39a1.55,1.55,0,0,1,1.34-1,2.54,2.54,0,0,1,1.64.61A46.39,46.39,0,0,1,183.22,106Z"/><path class="cls-10" d="M171.89,139.88l-2,2.81a4.14,4.14,0,0,1-2,3.18c-.28.35-.57.7-.86,1-.46,1.06-.86,2.17-2.24,2.36a1.62,1.62,0,0,1-1.26-1.46c.09-1.92,1.12-3.48,2-5.11,2.17-2.91,3.47-6.35,5.54-9.34.9-1.37,1.45-3.05,3.18-3.72a1.59,1.59,0,0,1,1.29.57,2.29,2.29,0,0,1-.42,2.75c-1.23.23-.93,1.21-1,2C173.75,136.79,173.53,138.65,171.89,139.88Z"/><path class="cls-1" d="M83.06,185.09l22-.15a5.78,5.78,0,0,1-4.87,2c-5.16,0-10.33,0-15.49,0C83.3,187,82.31,186.86,83.06,185.09Z"/><path class="cls-11" d="M8.13,127.88,8,129.16c-2,0-1.46-2.5-2.89-3.07-.39-2-.77-4.08-1.16-6.11a8.19,8.19,0,0,1-1.2-4.2c.69-1.59-.24-3.64,1.38-5,3.55,1.56,2.49,5.31,3.81,7.94a14.1,14.1,0,0,1,.46,2.31C8.39,123.33,10,125.68,8.13,127.88Z"/><path class="cls-12" d="M175.18,130l-1,0c-1.12-1.1-.5-2.21,0-3.33,1.54-2.65,1.8-5.73,2.76-8.58a8.48,8.48,0,0,1,.53-1.34c.48-.86,1-1.73,2-2,1.15.51,1.38,1.27.65,2.31-.66,4.07-1.29,8.14-3,11.93C176.62,129.68,176.2,130.4,175.18,130Z"/><path class="cls-1" d="M183.22,106c1.1-5.69.87-11.45.85-17.19,0-1.62.32-3.35-1-4.71-.78-1.07-.91-2.11.19-3.06a3.58,3.58,0,0,1,1.8,3.31q0,9.2,0,18.39A3.44,3.44,0,0,1,183.22,106Z"/><path class="cls-13" d="M94.2,2.14l10.87-.23,5,2.09c-1.32.7-2.74,1.15-4.07.29-2.48-1.6.3,1.91-1.2,1.18a4,4,0,0,1-2.12.55c-2.31-.39-4.64-.71-7-1C94.42,4.49,93,4,94.2,2.14Z"/><path class="cls-1" d="M20.17,151.83c5.07,3.18,8.29,8.3,12.7,12.17-1.25.87-2.11.25-3-.69C26.53,159.59,22.33,156.57,20.17,151.83Z"/><path class="cls-1" d="M5.09,126.09c2.16-.11,1.52,2.43,2.89,3.07-.33,4,3.77,6.1,4,9.82-5.4-.51-3.42-6-5.78-8.65C5.35,129.36,5.44,127.53,5.09,126.09Z"/><path class="cls-14" d="M72.08,181v1.81c-.27.5-.6.52-1,.13h0c-1.92-.82-4.12.4-6-.82L63,181c-1.15-1-3.16-.4-3.91-2.13l2-.92c1.34-1.09,2.73-.27,4.1-.13A33.81,33.81,0,0,1,70,179.21,4,4,0,0,1,72.08,181Z"/><path class="cls-1" d="M49.17,12,35.08,20.83A19.79,19.79,0,0,1,49.17,12Z"/><path class="cls-1" d="M138.07,13.8,124,7.24c.61-1.14,1.51-1.09,2.48-.57C130.47,8.81,135.61,9.12,138.07,13.8Z"/><path class="cls-1" d="M35.08,166.12c4.44,1.94,8.11,5.09,12.1,7.74A15.27,15.27,0,0,1,35.08,166.12Z"/><path class="cls-1" d="M179.93,65.28l-1.76-3.49q-2-4.9-4-9.8C179.64,54.88,179.2,60.34,179.93,65.28Z"/><path class="cls-1" d="M167,40q-4-4.95-8.05-9.91C162.57,31,166.9,36.28,167,40Z"/><path class="cls-1" d="M105.94,184.88c4.43-2.42,9.39-2.74,14.19-3.71a2.61,2.61,0,0,1-2.67,2.41C113.5,183.21,109.86,185.2,105.94,184.88Z"/><path class="cls-15" d="M.42,84a57.82,57.82,0,0,1,0,18.93A101.45,101.45,0,0,1,.42,84Z"/><path class="cls-1" d="M139,172.73l6.28-4.71a2.07,2.07,0,0,1,.92-1.67,3.66,3.66,0,0,1,2.51-.66l.52.42C146.59,169.57,144,173,139,172.73Z"/><path class="cls-1" d="M12,48c-.94,3.67-3.2,6.69-4.84,10C6.43,53.55,8.33,50.35,12,48Z"/><path class="cls-1" d="M180.26,69c4.61,1.81,2.73,5.7,2.86,8.95a2.2,2.2,0,0,1-1.64-1.14c-.6-1.26-.23-2.72-.82-4-.25-1.29-1-2.48-.76-3.88Z"/><path class="cls-1" d="M156.15,160.05c-1.22,3.29-3.24,5.66-7,6.06L149,166c.29-4,3.71-4.79,6.49-6.22Z"/><path class="cls-1" d="M25.21,30.14a34.11,34.11,0,0,1-6,6.94C19.83,33.58,21.23,30.74,25.21,30.14Z"/><path class="cls-1" d="M156,27.07,150.07,22C154,21.44,155.44,23.7,156,27.07Z"/><path class="cls-16" d="M124,177.86l1.08,1c-.32.95-1.41.56-2,1.11-1,.23-1.76,1.55-3.06.88l-1.92-1.69C119.64,176.85,121.58,176.36,124,177.86Z"/><path class="cls-1" d="M182.23,109.25A2.13,2.13,0,0,0,183,109c.41,3,1,5.93-2.09,8a7.16,7.16,0,0,1-.58-2.93C180.8,112.36,180.58,110.44,182.23,109.25Z"/><path class="cls-1" d="M148,20.19l-6-4.09C145.36,15.45,147.38,16.77,148,20.19Z"/><path class="cls-17" d="M105.1,4.93a4.89,4.89,0,0,1-1-1.08c-.3-.67.28-.73.71-.63,1.72.4,3.39,1.19,5.24.78l1.89.19c-1,1.36-2.8.32-3.93,1.3C106.72,7.08,106,5.77,105.1,4.93Z"/><path class="cls-1" d="M15.91,42c-1,1.91-1.67,4.07-3.7,5.26C13.31,45.38,11.45,41.45,15.91,42Z"/><path class="cls-1" d="M3.24,115.93c-.18,1.42,1.45,2.53.69,4C.55,118.43,2,115.52,2,113l.67-.24C4,113.63,3.62,114.78,3.24,115.93Z"/><path class="cls-1" d="M165,149l2-2c1.33,3.56-1.7,4-3.7,5.22l-.49-.4C162.74,150.17,163.84,149.54,165,149Z"/><path class="cls-1" d="M59.09,178.82,63,181c-2.09-.29-4.84,1.07-5.71-2.27Z"/><path class="cls-1" d="M32.83,23l-4.61,4.17C28.71,24.59,29.41,22.27,32.83,23Z"/><path class="cls-1" d="M3.06,72.89a2.82,2.82,0,0,1-.82.44C1.58,70.89.89,68.45,3.92,67l.1,1.9C3.34,70.14,4.64,71.86,3.06,72.89Z"/><path class="cls-1" d="M71.08,4c-1.47,1.4-3.28.88-5,.92C67.31,2.21,69.2,3.15,71.08,4Z"/><path class="cls-1" d="M51.14,175.92c2.4.1,4,2,6.1,2.71C54.14,180.13,52.71,177.88,51.14,175.92Z"/><path class="cls-1" d="M65.1,182.13c2,0,4.19-.89,6,.82C69,183.35,66.74,185,65.1,182.13Z"/><path class="cls-1" d="M127,178.75l6-2.94C131.55,178,130,180,127,178.75Z"/><path class="cls-1" d="M175.18,130c.62-.35,1.25-.69,1.88-1,1.32,2.32.78,3.71-2,4Z"/><path class="cls-1" d="M163.31,152.13c.52,3.26-1.85,4.07-4.17,4.92l-.32-.61c.85-2,1.38-4.37,4.27-4.45Z"/><path class="cls-1" d="M56.16,8a6.32,6.32,0,0,1-5.06,2.78C52.25,8.91,53.78,7.7,56.16,8Z"/><path class="cls-18" d="M84.09,2.12c-2.54,1.7-5.37.64-8.07.86,1.14-1.14,2.74-.61,4.06-1.11Z"/><path class="cls-1" d="M16.23,145.61c1.21,1.27,3,2.18,2.76,4.36C16.22,149.69,15.94,147.83,16.23,145.61Z"/><path class="cls-1" d="M13.24,141.62c1.66.52,2.09,2,2.72,3.37C12.16,146.21,13.36,143.38,13.24,141.62Z"/><path class="cls-1" d="M171.89,139.88a11.26,11.26,0,0,1,2.16-4.91C175.68,137.64,174.16,138.92,171.89,139.88Z"/><path class="cls-1" d="M174.09,51.89a9.86,9.86,0,0,1-2.17-4.82C174,48.06,175.73,49.22,174.09,51.89Z"/><path class="cls-1" d="M1.1,108l1,1.08c1.21,1.29,1.06,2.59,0,3.91L2,113C1,111.49-1,110.1,1.1,108Z"/><path class="cls-1" d="M2,74c.09,1.73.2,3.46-.89,5C-1,76.9.9,75.53,2,74Z"/><path class="cls-19" d="M182.07,76.84,183.12,78l.14,3c-.07,1-.13,2-.19,3.06-.33,0-.66-.07-1-.08C180.57,81.6,180.12,79.22,182.07,76.84Z"/><path class="cls-1" d="M19.18,37.09c-.23,1.29-.67,2.42-2.11,2.79C15.58,37.28,16.94,36.85,19.18,37.09Z"/><path class="cls-20" d="M181.17,114.19c-.08.92-.15,1.83-.22,2.75a4.85,4.85,0,0,0-.85.13,2.42,2.42,0,0,0-1-2.12,3,3,0,0,1,1.28-4.18C182.18,111.58,181.54,112.91,181.17,114.19Z"/><path class="cls-1" d="M62.24,6.19a5.31,5.31,0,0,1-5.14,1.7C58.26,5.64,60.25,5.91,62.24,6.19Z"/><path class="cls-1" d="M117.09,4.85c-1.4.12-2.82.33-3.94-.86C114.54,3.92,116.33,2,117.09,4.85Z"/><path class="cls-1" d="M159,30.08a7.5,7.5,0,0,1-3-3C158.33,26.76,159.32,27.75,159,30.08Z"/><path class="cls-1" d="M28.22,27.13l-3,3C24.82,27.72,25.82,26.73,28.22,27.13Z"/><path class="cls-1" d="M71.09,183a2.38,2.38,0,0,0,1-.13c1.15.61,2.79-.28,3.66,1.2C73.91,184.87,72.44,184.17,71.09,183Z"/><path class="cls-1" d="M169.94,44.21a5,5,0,0,1-2-3.12C170.22,41.05,171.12,42,169.94,44.21Z"/><path class="cls-1" d="M167.87,145.87a5,5,0,0,1,2-3.18C171.09,145,170.29,145.93,167.87,145.87Z"/><path class="cls-1" d="M123.07,179.94l2-1.11,1.9-.06C126.28,181.27,124.77,180.93,123.07,179.94Z"/><path class="cls-1" d="M47.19,173.86c1.61.08,2.75,1.09,3.91,2C49.51,175.77,47.34,176.74,47.19,173.86Z"/><path class="cls-1" d="M142,16.09l-3-2C141.08,13.14,141.79,14.22,142,16.09Z"/><path class="cls-1" d="M122,6.24c-1-.37-2.29.2-3-1C120.8,3.1,121.32,4.82,122,6.24Z"/><path class="cls-1" d="M65.21,5.3c-.76,1.06-2,.62-3,.91C62.83,4.61,63.48,3.22,65.21,5.3Z"/><path class="cls-1" d="M159.14,157.05a3.06,3.06,0,0,1-3,3l-.18-.18c-.13-2.09.92-3.05,3-3Z"/><path class="cls-21" d="M94.2,2.14c-.06,1.41.85,1.86,2,2,1.3.53,3.07.73,2,2.9-1.14.65-2.34.25-3.52.24a15,15,0,0,1-4.81-.61C88.85,6.12,88.53,5,88.08,4L89.3,2.89Z"/><path class="cls-22" d="M88.08,4c1.75,0,1.44,1,1.14,2.11,0,.27-.11.53-.16.79A7.24,7.24,0,0,1,83,11.42c-4.95.81-9.51,4.42-14.9,2-2.42-2.77-1.51-4.95,1.23-6.79,3.67-.46,7.32-1.09,11-1.5Z"/><path class="cls-23" d="M45,19c3.31-3.63,8.63-3.72,12.19-6.91,1.61-.48,3.19-2.3,4.87-1s1.07,3.21.09,4.85c-2,2.42-5.38,2.74-7.7,4.72-1.3.69-2.61,1.32-4.15.86C48.83,19.94,46.63,20,45,19Z"/><path class="cls-24" d="M4,85c-.52-4.52,1.71-8.6,2-13l.27-1.11a4.29,4.29,0,0,1,3.11-1.32,1.5,1.5,0,0,1,1.07.79c-1.95,4.4,3.28,1.92,3.79,4-3.57,3.77-3.46,8.53-3.63,13.24-.08,1.9.11,4.28-3.13,3.1C6,87.26,7,83.6,6.45,80.11c-.1-.66-.74.46-.19.08.19-.13.37,0,.29.36-.73,2.88,1.69,6.74-2.64,8.5A5.25,5.25,0,0,1,4,85Z"/><path class="cls-25" d="M53.87,19.9c1.59-2.81,4.91-2.42,7.21-3.91,3.89-3.92,3.86-4.12-1-6,2.47-1.51,5.66-1.13,8-3,.5-.48.92-.41,1.24.21-2.39,1.45-1.34,3.58-1.07,5.55.6,1.62,1.33,3.19,2.06,4.78-.74,1.6-2.24,1.55-3.65,1.74-1.91-.09-3.65.67-5.45,1.12q-3.09,0-6.18.24A2.06,2.06,0,0,1,53.87,19.9Z"/><path class="cls-26" d="M45,19c2.08-.17,4.85-2,5.14,2.14a1.54,1.54,0,0,1-.67,1.69c-1.38,1.32-3.23.28-4.76.94-1.22.46-2.62.29-3.68,1.18-.9.89-.83,2.31-1.75,3.18-2.23.18-2-1.68-2.5-3A4.45,4.45,0,0,0,36.22,24C37.93,20.18,41.58,19.79,45,19Z"/><path class="cls-27" d="M9.07,70c-.66,1.09-1.71.88-2.72.84-.78-3.48.84-6.25,2.7-8.94,1.71-1.84,2-4.59,4.09-6.22,1.6,0,2.47,1.11,3.33,2.22.82,3.32.26,5.9-3.64,6.63a4.65,4.65,0,0,0-2,1.36C10,67.23,9.81,68.75,9.07,70Z"/><path class="cls-28" d="M18.12,44c3-1.36,2.11-5.52,5-7a3,3,0,0,1,.92.86c.55,1.11,1.74,2,1.17,3.5A4.56,4.56,0,0,0,24.32,45c.38,2.65-1.07,3.79-3.46,4.13a6.79,6.79,0,0,1-2.2-.13C15.29,47.66,17.83,45.71,18.12,44Z"/><path class="cls-29" d="M18.12,44c.8,1.21-1.95,3.29,1,4,2.1,3.61-1.58,3.77-3.1,5.23-1.08.78-1.84,1.9-2.85,2.76-.8,2.37-1.73,4.65-4.08,5.95A54.11,54.11,0,0,1,18.12,44Z"/><path class="cls-30" d="M60.1,10a2.54,2.54,0,0,1,.48,0c1.76.48,4.74-1.09,5.12,1.26.41,2.54-2,4.15-4.62,4.69,2.81-5.41-.7-4.54-3.92-4Z"/><path class="cls-31" d="M23.08,38V37c2.72-3.65,6.24-6.44,9.81-9.19l.55.46a2.51,2.51,0,0,1-.1,2.06C30,33,27.76,37.14,23.08,38Z"/><path class="cls-18" d="M69.32,7.19,68.08,7c3.83-2.21,8-2.15,12.23-1.86C76.73,6.24,73.14,7.3,69.32,7.19Z"/><path class="cls-32" d="M3.06,72.89c.34-1.33-.74-3,1-4,.37,1,.73,2.08,1.1,3.11-.42,1.39-.83,2.77-1.3,4.37C2.61,75.13,3.4,73.92,3.06,72.89Z"/><path class="cls-31" d="M36.22,24l.86,0c.83,3.29-1,4.15-3.79,4.16l-.4-.33Z"/><path class="cls-33" d="M161.14,36.91c6.07,5.94,9.69,13.4,13,21.06.62,1.81,0,3-1.58,1.37-4.41-4.29-9-8.56-10.92-14.71-.6-1.12-1.35-1.45-2.35-.42a4.34,4.34,0,0,1-4.4,1.57c-2.13-.71-3-2.44-3.68-4.39C150.91,39,150.13,37,148,35.6a5.67,5.67,0,0,1-2.78-3.92,4.32,4.32,0,0,1,.22-2.08,1.74,1.74,0,0,1,1-.86c2.36.66,2.54,3.57,4.64,4.51,2,1.46,3.78,3.14,5.79,4.57S160.07,39,161.14,36.91Z"/><path class="cls-34" d="M115.05,7.06c3.27,1.43,7.11,1.42,9.93,4-2.83,1.72-1.8,4.06-1,6.36a9.4,9.4,0,0,1-4.9,1.74A41.86,41.86,0,0,1,110,17.39a12.37,12.37,0,0,1-1.44-.52c-3.35-1.29-7.07-1-10.39-2.44a3.16,3.16,0,0,1-.25-4.31,2.08,2.08,0,0,1,1.39-.53c2.84.57,5.65,1.39,8.6,1.22a11,11,0,0,1,2.05.33c2.33,1.26,3.95-.48,5.77-1.39a8.73,8.73,0,0,1,.93.78c-.2-.17-.42-.37-.7-.65C115.08,9.09,114.49,8.25,115.05,7.06Z"/><path class="cls-35" d="M124.07,17c-.21-1.87-3.88.24-3.09-2.58.53-1.89,1.39-3.78,4-3.39a64.83,64.83,0,0,1,18.11,8.9c-2.24,1.87-5.2,1.58-7.74,2.58C131.23,21.43,127.06,20.43,124.07,17Z"/><path class="cls-36" d="M162.1,44c2.66,1.21,2.92,4.47,4,6.42,2,3.55,6.05,4.91,7.34,8.66.14-.06.36-.09.4-.19a6.16,6.16,0,0,0,.27-.93,6.29,6.29,0,0,1,2,4.92c-2.78,1.07-5.55.42-8.31-.09-1.74-.86-1.28-2.33-1.25-3.85.09-3.93-1.48-5.34-5.64-5.42-3.1-2-5.55-4.53-5.91-8.47,1.92.32,3-1.06,4.2-2.13A3.21,3.21,0,0,1,162.1,44Z"/><path class="cls-37" d="M161.14,36.91c-.51,1,1.32,2.31-.49,3-1.22.45-2.36.84-3.64-.33-2.18-2-4.59-3.75-6.91-5.6-.71-1.37-2.55-2.74-.68-4.3,1.41-1.17,3.12-.71,4.63.28s2.53,2.14,3.9,3.09Z"/><path class="cls-38" d="M135.23,22.14c2.14-2.46,5-2.44,7.87-2.22a10.15,10.15,0,0,1,4.81,4.27c1.55,2.46-.45,3.41-1.95,4.57l.08.15a.83.83,0,0,1-1.15.21c-1.11-1.14-.72-2.95-1.81-4.1-1.33-1.33-2.7-1.71-4.17-.22-1.27,1-.7,4.72-4,2.67a3.73,3.73,0,0,1-.71-1.26C134,24.7,133.77,23.21,135.23,22.14Z"/><path class="cls-39" d="M116.09,10c-1.46,2.3-2.92,4.59-6,2.05-1-2.73-3.6-3.57-5.86-4.78a4.82,4.82,0,0,1-1.11-.85A1.15,1.15,0,0,1,103,5.14l2.07-.21,2.94.56,7,1.57,1,3Z"/><path class="cls-40" d="M146,28.76c-.08-1.84,2.32-2.61,1.95-4.57,3.61,2.64,7.54,4.93,10,8.85-1.81,0-2.78-1.64-4.29-2.26-1.23-.51-2.53-1.29-3.7-.4-1.43,1.08.38,2.36.14,3.59C147.65,33.08,147.85,30.09,146,28.76Z"/><path class="cls-41" d="M167.16,62.2c3-.53,6.07-1,8.94.69.38.69.75,1.39,1.12,2.08-.23,1.18.57,2.91-.86,3.44-1.78.66-1.05-2-2.36-2.31l-.68-.08a6.24,6.24,0,0,0-4.78.18c-1.37.54-2.6.41-3.14-1.27C165.28,63.57,165.64,62.51,167.16,62.2Z"/><path class="cls-42" d="M167.11,71,168,73c-.49,4.49,1.46,8.65,1.72,13.11a102.64,102.64,0,0,1-.72,20.22c-.2,1.47-.76,2.9.26,4.28a3.19,3.19,0,0,1,.25,2.27,3.28,3.28,0,0,1-1.65,1.71,3.81,3.81,0,0,1-1.64.2,2.46,2.46,0,0,1-2-1.42,8.11,8.11,0,0,1-.46-4.38,81.54,81.54,0,0,0-2.22-34.32C162.17,71.51,164.29,70.74,167.11,71Z"/><path class="cls-43" d="M169,112.81l0-1.82a11.28,11.28,0,0,1,2.09-11c1.93-2,.66-4.6,1.09-6.89,2.87.18,1.86,3.29,3.39,4.49a6.65,6.65,0,0,1,.49,1.31c.59,2.7,0,5.49.51,8.29,2.36-2.33,1.81-5.62,3.23-8.15A.94.94,0,0,1,181,99l.08,5c.78,2.49.75,4.87-1,7-.33,1.3-.67,2.6-1,3.9l-1,2.1c-.84-.47-1.39-1.33-2.33-1.65a8.11,8.11,0,0,1-1.62-.93,5.33,5.33,0,0,1-1.27-1.49c-.82-1.25-.74-2.69-.87-4.42-.09,2-.49,3.48-1.84,4.58A1.11,1.11,0,0,1,169,112.81Z"/><path class="cls-44" d="M171.05,100q-1,5.52-2.09,11c-3.56.64-1.82-2.08-1.63-3.06a89.38,89.38,0,0,0,1.78-17.73c0-4.84-.2-9.6-1.85-14.22-.32-.9-1.74-2.62.78-3C170.71,81.79,171.26,90.84,171.05,100Z"/><path class="cls-45" d="M175.05,98c-2.55-.7-1.32-3.64-2.92-4.91-.48-5.24-.92-10.49-1.47-15.73-.11-1.09-1.11-2.44.44-3,2-.68,2,1.3,2.32,2.41.68,2.7,1.12,5.47,1.66,8.21a4.76,4.76,0,0,1-.15,4.6c-.8,1.6.55,1.89,1.45,2.46a2.36,2.36,0,0,1,.16,1.89C175.74,95.17,176.08,96.84,175.05,98Z"/><path class="cls-46" d="M174,66.1c1.21,4.64-2.59,4-5.05,4.81-4.45-1.15-7.88,2.34-12,2.65-1.56-.38-1.33-1.65-1.37-2.8a2.26,2.26,0,0,1,.59-1.21,6.61,6.61,0,0,1,1.84-.92c2.41-.54,4.52-2.22,7.16-2,3.17,2.37,5.87-1.43,8.91-.69Z"/><path class="cls-47" d="M156,72.94c4.25-1,8.11-4.57,12.93-2l-1.85.13L162.06,74c-1.83,2-4.23,2.23-6.72,2.14-1.09-.2-2.1-.51-2.5-1.72A2.34,2.34,0,0,1,156,72.94Z"/><path class="cls-19" d="M181.09,84,181,94a1.46,1.46,0,0,1-1.68.45,1.15,1.15,0,0,1-.6-1l.33-.54c1.74-3.55,1.12-7.23.44-10.87-.32-1.76-1.07-3.48.51-5C182.66,79,181.48,81.53,181.09,84Z"/><path class="cls-48" d="M176.16,92c-2.52.75-3.16-.54-2.08-2.42a9.12,9.12,0,0,0,1-4.63c1.63,2.48.18,6.53,4,7.89l-.11.21C177.71,93.62,177,92.8,176.16,92Z"/><path class="cls-49" d="M181.09,84c-.16-2.36.4-4.81-1.05-7l.06-1c1-.84-.08-2.39,1.1-3.16,1.24,1.15.78,2.66.87,4,0,2.38,0,4.76,0,7.13h-1Z"/><path class="cls-50" d="M181.2,72.79c-.25,1.09.08,2.39-1.1,3.16.75-2.34-2-4.58-.2-7A4.85,4.85,0,0,1,181.2,72.79Z"/><path class="cls-51" d="M37.14,163.86A84.92,84.92,0,0,1,18,143.1c1.29-1.32,2.37-.16,3.52.29a11.3,11.3,0,0,0,3.18.09c1.72.24,3.61,1,3.91,2.53,1.07,5.33,6.28,7.06,8.92,11C37.72,159.29,38.1,161.61,37.14,163.86Z"/><path class="cls-52" d="M54.06,174a20.52,20.52,0,0,1-8-4c1.78-1.23,3.16-3.08,5.44-3.55a3.42,3.42,0,0,1,1.77.88c1.29,1.18,3,.6,4.45,1.05,3.5,1.38,7.74.63,10.67,3.66.43,2.38,2.34,3.35,4.19,4.39a2.7,2.7,0,0,1-.31,2.71c-1.8,1-3.32-.31-5-.57a4.55,4.55,0,0,1-1.73-1.34,8.31,8.31,0,0,1-.85-2C61.64,171,57.81,172.87,54.06,174Z"/><path class="cls-53" d="M14,136a3.5,3.5,0,0,0-.66-.12c-1.4-1.27-1.16-3.35-2.32-4.75l-1.8-3.25c.36-3.41,2.9-3.14,5.17-2.85,2.48.33,3.66,2,3.64,4.51,0,1.62-.64,3.18.09,4.85.58,1.34,1,3.14-.74,3.86S15,137,14,136Z"/><path class="cls-54" d="M14,136l3.61,2.25a49.46,49.46,0,0,1-.9-10.1c.07-2.78-4-2.92-7.49-.27l-.32.2A4.23,4.23,0,0,1,8.84,125a2.9,2.9,0,0,1,1.27-.91c2.79-.35,5.54-1.16,8.4-.75a2.17,2.17,0,0,1,1,1,48.67,48.67,0,0,1,.36,9.65A22.19,22.19,0,0,0,21,137.21c.54,4.94.05,5.4-4,3.83A8.7,8.7,0,0,1,14,136Z"/><path class="cls-55" d="M54.06,174c2.91-4.17,9.44-3.65,12,.95-1.2.68-1,1.36,0,2l1,1c-.4.77-1.41.3-1.89.91l-4-1C59.22,175.79,56.19,175.71,54.06,174Z"/><path class="cls-56" d="M52.08,167c-2.35.29-2.79,4.39-6,3l-6-4a3.07,3.07,0,0,1,3.48,0c-.56-1.12-2.7.21-2.75-1.69a2.29,2.29,0,0,1,.89-1,6.67,6.67,0,0,1,3.38-.83c2.59,1.44,4.38-2,6.87-1.14a1.92,1.92,0,0,1,1.36,1.38C52.83,164,52.71,165.58,52.08,167Z"/><path class="cls-57" d="M37.14,163.86a8.26,8.26,0,0,1,0-6.88c-.29-2.16,1.63-2,2.78-2.67a4.78,4.78,0,0,1,2.16-.11,2.92,2.92,0,0,1,1.21.71c-.37,3.3-3.75,5.72-2.75,9.42-.33.69-.7,1.25-1.58.76Z"/><path class="cls-58" d="M17,141c4.09,1,3.83-1.36,3.11-4.06,1.18-.47,1.89.16,2.51,1,.74,1.75.1,3.41-.32,5.09a4.88,4.88,0,0,1-1.16,1.84c-1-.62-1.48-2.26-3.13-1.84A2.12,2.12,0,0,1,17,141Z"/><path class="cls-59" d="M9.19,125c-.08,1-.17,2.05-.26,3.08l-.8-.19c-.33-2.32-.65-4.63-1-6.95C9.63,121.37,10.06,122.86,9.19,125Z"/><path class="cls-60" d="M38.93,165.09l1.25-1.32a.75.75,0,0,1,.92.2c.65,1.17,2,.92,3,2h-4Z"/><path class="cls-61" d="M11.05,131.12c1.68,1.15,1.95,3,2.32,4.75C11.35,134.9,11.18,133,11.05,131.12Z"/><path class="cls-62" d="M124,177.86l-5.86,1.27c-5.48,2.18-11.41,2.3-17,3.76-.84-1-2.26-.86-3.27-1.55-1.11-.93-3.07-.8-3.42-2.7a2.66,2.66,0,0,1,.58-2,4.48,4.48,0,0,1,1.94-.83c5.76,0,11.41-1.34,17.14-1.66a9.92,9.92,0,0,1,1.1-.49c1.11-.07,1.74.75,2.5,1.34.55.22,1,1.67,1.67.06a2.82,2.82,0,0,1,3.41-.48c.52.76.54,1.82,1.41,2.38A3.61,3.61,0,0,1,124,177.86Z"/><path class="cls-63" d="M72.08,179v-3a1,1,0,0,1,.34-1.21l.68-.16c3.91,1.62,7.86,2.8,12.09,1.15a6.15,6.15,0,0,1,1.84,3c1.25,2.89-.38,3.81-2.85,4.13L72.08,181,70,180C70.44,179.17,71.67,179.88,72.08,179Z"/><path class="cls-64" d="M94.94,179c.72,1.15,3.4-.74,3.12,2-.2,1-1.1,1.38-1.83,1.89-2.08-.17-4.17-1.45-6.25,0-1-1-1.89-2.08-1.28-3.66C90.73,178.16,92.86,179.08,94.94,179Z"/><path class="cls-65" d="M89.17,179l.81,3.92h-5.8c1.55-.86,2.95-1.8,1.9-3.92,1.61-.68,0-4.69,3.48-3.41A2.8,2.8,0,0,1,89.17,179Z"/><path class="cls-66" d="M96.23,182.85A3,3,0,0,1,98.06,181c1.38,0,2.89-.11,3,1.93Z"/><path class="cls-67" d="M8,90.84c3.36-2.64,1.15-6.48,1.74-9.67s1.54-5.59,4.36-7.18a1.16,1.16,0,0,1,1.33.1A3.74,3.74,0,0,1,16,75.44a7.85,7.85,0,0,1-1,4.22c-1.27,7.58-3.55,15-4.18,22.66-.61,1.13-1.46,1.08-2.41.51a2.78,2.78,0,0,1-.84-1.08c-.27-1.88.07-3.89-1.14-5.58a4.49,4.49,0,0,0-2.25-2.09c0-3-2.5-6-.12-9.11,0,1.34.07,2.69.1,4C5.41,89.64,7.23,89.14,8,90.84Z"/><path class="cls-68" d="M4.16,94.08C6.9,91.93,7,94,7.21,96s-.47,4.15,1,6h0c.17,3.16.73,6.16,3.26,8.41.74,1,1.91,1.61,2.78,2.51.31,1.74-1.27,1.9-2.17,2.63a9.1,9.1,0,0,0-1.31,1.25,14.93,14.93,0,0,1-1.26,1.38c-.82.58-1.4,1.77-2.71,1L4.09,111c-1.08-.63-1.15-1.78-1.45-2.82A1.3,1.3,0,0,1,3.13,107c.22-.07.45-.12.68-.17a4.91,4.91,0,0,0,0-5.78C1.81,98.65,4.45,96.43,4.16,94.08Z"/><path class="cls-69" d="M2.88,108l1.21,3c-.3,1.65.61,3.5-.85,5-.29-1-.05-2.24-1.12-3,0-1.31,0-2.61,0-3.91L2.45,108Z"/><path class="cls-70" d="M2.88,108H2.45c-.1-1.61-.21-3.22-.35-5.38,1.48,1.66.71,3.15,1,4.43A3.1,3.1,0,0,1,2.88,108Z"/><path class="cls-71" d="M3.86,101.08c1.82,1.94,2,3.87,0,5.78C3.83,104.93,3.84,103,3.86,101.08Z"/><path class="cls-72" d="M144.08,165A8.14,8.14,0,0,1,141,160c-3.26-.49-3.6-3.9-5.65-5.6-3.74-5.79-8.23-11-12-16.79q-3.41-4.65-7-9.2c-3.08-4-5.67-8.32-9-12.08-1.35-2-2.93-4-2.77-6.61,1-2,2.36-1.31,3.73-.47,4,4.93,7.88,10,11.37,15.26,2,3.47,4.75,6.41,7,9.72.79,1,1.63,2.05,2.35,3.14,1.23,1.76,2.66,3.39,3.81,5.21,1.26,2,2.84,3.84,4.21,5.79,1.24,1.68,2,3.82,4.36,4.43a4.47,4.47,0,0,1,1.75.89,2.11,2.11,0,0,1,.32,1.25c-.66,3.26,3.68,5,2.53,8.44C145.66,164.31,145.39,165.27,144.08,165Z"/><path class="cls-73" d="M138.15,170.09l-7.06,3.9-5,2a3.41,3.41,0,0,1-1.06-1.62,9.52,9.52,0,0,0-1.9-3.4,4.6,4.6,0,0,1-.75-4.07,1.79,1.79,0,0,1,2.27-1.2c1.05,1.14,1.82,2.85,3.89,1.29,1.29-1,2.71-2,4.55-1.5C135.09,166.65,137.44,167.48,138.15,170.09Z"/><path class="cls-74" d="M138.15,170.09c-1.65-1.42-3.89-2.1-5.14-4a.87.87,0,0,1-.29-.75c0-.27.1-.41.17-.41a8.8,8.8,0,0,0,3.78-2.69,1.14,1.14,0,0,1,1.23-.07c.35.7.52,1.66,1.09,2.06C142.66,166.77,141,168.49,138.15,170.09Z"/><path class="cls-75" d="M137.9,162.13a3.91,3.91,0,0,0-.83-.15l-.5-.44a18.42,18.42,0,0,0-1.92-3.44,4.66,4.66,0,0,1-.47-1.31,4.18,4.18,0,0,1,.25-2.1c.39-.65.86-1.16,1.72-.81L141,160C141.34,162.73,138.51,160.79,137.9,162.13Z"/><path class="cls-76" d="M144.08,165a2.05,2.05,0,0,0,1-2c3.22.66,2.66,2.28,1.05,4.17l-.88.88C143.57,167.49,143.19,166.47,144.08,165Z"/><path class="cls-77" d="M126,174l0,2-2,1c-1.73,0-1.6-.88-1-2l.4-.57A2.19,2.19,0,0,1,126,174Z"/><path class="cls-48" d="M178.91,93.91,181,94c0,1.69,0,3.37,0,5.06-.31,0-.62,0-.92,0-1.36,1.42.25,3.56-1.29,5.06-3.15-.84-2.77-3.9-3.76-6.08h0c.52-1.29-2.46-3.46,1-4C177,93.31,178,93.65,178.91,93.91Z"/><path class="cls-78" d="M182.2,98.65V87.31l.5,0V98.86Z"/><path class="cls-79" d="M180.15,111.05l1-7c1.63,1.47.54,3.52,1.12,5.22-.32,1.65.35,3.52-1.06,4.94C180.93,113.11,181.29,111.84,180.15,111.05Z"/><path class="cls-8" d="M146.12,167.14c.68-1.65.54-3.09-1.05-4.17.36-2.46-1.34-3.81-2.81-5.32-1-1-1.8-2.17.48-2.68,2.89-1.13,4,.89,5.14,2.88.5.87-.07,2.44,1.64,2.49a26,26,0,0,0,5.77-4.77c1.35-1.25,2.19-3,3.65-4.1a10,10,0,0,0,1.67-1.77,6.61,6.61,0,0,1,2.25-2,1.2,1.2,0,0,1,1.14.21l1,1.06-1.9,3-4.16,4.85-3,3c-2.45,1.87-5,3.61-6.93,6.08Z"/><path class="cls-80" d="M172.05,134c-2.52,2.66-2.79,6.8-6,9a.86.86,0,0,1-1.21-.06c-1-3.16,2.27-5.08,2.61-8-3.2.11-2.29,6.41-6.68,3.87.33-3.17,1.23-6.06,4-8,1.89-1.28,1.73-3.84,3.33-5.29,5.19-.9,5.77-.35,4.46,4.17C172.2,131.07,171.62,132.45,172.05,134Z"/><path class="cls-81" d="M172.05,134c-2.06-2.47-.89-4.75.54-7-1.3-1.64-3-.7-4.51-1a2.14,2.14,0,0,1-.53-1.16c0-1.29-.45-2.61.24-3.85a2.11,2.11,0,0,1,1.18-.49,6.83,6.83,0,0,0,4.85-.88,2.68,2.68,0,0,1,1.32,0,2.47,2.47,0,0,1,1.24,1.48,2.29,2.29,0,0,1-1.61,2.26c-.55.25-.16-.65-.31,0s.61.21.71.6a2.76,2.76,0,0,1-.09,3c-.3,1-.61,2-.92,3C173.46,131.31,172.76,132.64,172.05,134Z"/><path class="cls-82" d="M165,142.94l1,0L164,147.89a5.27,5.27,0,0,1-.9.11c-1.28.07-1.4,1.3-2,2A1.9,1.9,0,0,1,160,151.9a2,2,0,0,1-1.35-1.32,23,23,0,0,1,.53-4.53,3.3,3.3,0,0,1,.61-1.12c2.1.62,1.32-1.55,2.11-2.2a3.06,3.06,0,0,1,1.25-.52A2.32,2.32,0,0,1,165,142.94Z"/><path class="cls-83" d="M6.79,119.16,9.24,117c1.33,1.39,1.09,3.3,1.65,5a3.51,3.51,0,0,1-.66,2.9l-1,.09a7.31,7.31,0,0,0-2-4.06Z"/><path class="cls-84" d="M175.08,127c-.06-1.08.17-2.26-1-3-.6-.34-.59-.67,0-1a3.21,3.21,0,0,0,1.9-2.07c-.91-2-.19-3,2-3C177.09,121,177.12,124.3,175.08,127Z"/><path class="cls-85" d="M178,117.91a3.47,3.47,0,0,0-2,3l-1.06-.86a3.2,3.2,0,0,1-.6-2.84,3.45,3.45,0,0,1,1.82-2.31c2.53-1,1.69,1.08,2,2.15A3.13,3.13,0,0,0,178,117.91Z"/><path class="cls-86" d="M103,5.14c0,.27.06.54.08.82-.27.24-.4.66-.26.7.49.12.82-.27,1.15-.57,2.66.48,4.57,2.22,6.58,3.84,1.53,1.24-.65,1.35-.52,2.12l-2-.07c-2.77-1.52-6.1-.63-8.89-2.06L99,10A3.05,3.05,0,0,1,98.12,7c.14-1.45-1.26-1.86-1.89-2.78C98.61,3.68,100.83,4.34,103,5.14Z"/><path class="cls-87" d="M72.08,179c.15,2-1.46.54-2.07,1.06l-4.84-1.17a2,2,0,0,1,1.89-.91Z"/><path class="cls-88" d="M89.22,6.12H95c2.13,2.06,1,5.1,2.2,7.42.62,1.25-.39,2.17-.63,3.25a14.43,14.43,0,0,0-.24,3.35c0,.94,0,1.88,0,2.83,0,.73,0,1.47,0,2.2,0,1,0,2,0,3s0,2.1,0,3.15c0,1.65,0,3.29.09,4.94s-.12,3.46.07,5.19c-.07,5.73-.18,11.46,0,17.19q.12,5.78-.06,11.54A12.86,12.86,0,0,1,96.26,72c-2.26,3.41-2.6,3.37-4.94-.61A12,12,0,0,1,90.77,68c0-.84-.06-1.69-.06-2.54,0-3.12,0-6.24,0-9.36,0-.86,0-1.72,0-2.58,0-12.45,0-24.9,0-37.36,0-1.94.52-4.08-1.92-5.12a4,4,0,0,1,.45-4.87Z"/><path class="cls-89" d="M97.05,14C93.64,12.1,95.68,8.74,95,6.1L98.12,7c1,.82.93,2,.92,3.07-1.41,1.05-.84,2.58-1,4A.69.69,0,0,1,97.05,14Z"/><path class="cls-90" d="M89.21,6.14l0,4.76c1,3-1.27,3.15-3,2.71-3-.77-5.13.52-7.33,2.06a13.1,13.1,0,0,1-1.84,1A12.55,12.55,0,0,1,75,17.3c-1.63.26-3.3,1.12-4.84-.27-4.3.19-2.07-2.5-1.89-4.29C76,12.93,83.2,11.44,89.21,6.14Z"/><path class="cls-91" d="M49.19,22.09l.92-1,3.76-1.19,1.24.11c.57,2.35-1.69,3.36-2.4,5.11a14.23,14.23,0,0,1-2.29,2.49,3.26,3.26,0,0,1-1.9.81c-1.74-.38-3.27-.94-2.77-3.24C47,24.3,48.45,23.58,49.19,22.09Z"/><path class="cls-92" d="M8,90.84C6.81,90,4.63,91.29,4.14,89c2.18-3-.27-7.22,2.57-10.13C8.79,82.69,8,86.81,8,90.84Z"/><path class="cls-93" d="M15.08,74h-.5l-.49,0c-2.27-.45-4.07.65-5.76,2.68-1.14-3.33,1.89-4.4,1.8-6.53a2.08,2.08,0,0,1,1.33-.49C16.41,70.62,16.7,71,15.08,74Z"/><path class="cls-94" d="M11,70.14l-.41,0-.41,0L9.07,70c-.11-1.75-.18-3.49,1-5a3.87,3.87,0,0,1,1.74,2.72,3,3,0,0,1-.34,1.94Z"/><path class="cls-95" d="M49,27.89l1-.94c3.94-1.69,7.56-4,11.5-5.76a14.76,14.76,0,0,1,5.15-1.63c-.11-.36-.52-.16-.72-.38a.77.77,0,0,1,.23-1.1c1.36-.15,2.85.17,3.93-1l5-1c2.3,1.05,4.76,0,6.93.56.83,0,0-1.12.21-.49,0,.09-.07.14-.29.16-1.72.16-3.48.71-5.08-.45L78.07,15c1.16-.89,2.71-.28,3.91-1,1.89-.64,3.78,0,5.67,0,4.11.61,3.11,3.55,2.81,6.17-1.15,1.73-3,1.95-4.81,2.06-9.43.57-18,4-26.51,7.78a14.18,14.18,0,0,0-5.66,4.7c-3.7,0-4.56-2.6-5.16-5.48A2.54,2.54,0,0,1,49,27.89Z"/><path class="cls-96" d="M52.05,24.91c0-2.27,2.31-3.1,3.06-4.9A5.22,5.22,0,0,1,61.05,20c.06.23.13.45.19.68C58.58,22.92,55.77,24.9,52.05,24.91Z"/><path class="cls-96" d="M66.21,18.08A8.63,8.63,0,0,0,66,19c-1.41,1.21-2.85,2.32-4.84,1.17L61.05,20A5.74,5.74,0,0,1,66.21,18.08Z"/><path class="cls-97" d="M39.28,28c-.14-1.42-.78-2.92.72-4.05,5.29,1.49,7,3.39,7.33,8.13a2.59,2.59,0,0,1-2,.64,15.3,15.3,0,0,1-4.1-1.12A4.35,4.35,0,0,1,39.28,28Z"/><path class="cls-98" d="M39.28,28a4.2,4.2,0,0,1,1.94,3.21,1.28,1.28,0,0,1-.48,1.12c-1.56.64-2.93-.17-4.37-.52a13.25,13.25,0,0,1-2.88-1.28L33.1,30c.06-.62.13-1.23.19-1.84C34.75,27,37.15,26.59,37.08,24,38.72,24.81,37.38,27.29,39.28,28Z"/><path class="cls-99" d="M47.05,32c-1.6-2.75-1.61-7.24-6.72-6.15L40,23.91c1.45-1.67,3.34-.81,5.07-.88.8.41,1.54.85,1,1.95,0,1.93,1.57,2.32,2.91,2.91l.06,1.18c-1,.8,0,2.16-.81,3A1.15,1.15,0,0,1,47.05,32Z"/><path class="cls-100" d="M46.11,25c-.35-.65-.7-1.3-1-1.95l4.12-.94C48.77,23.71,50,27.11,46.11,25Z"/><path class="cls-29" d="M21.24,48.06c2.25-.25,2.56-1.41,1.86-3.4-.61-1.71-1.2-3.75,1.95-3.54,1.07-.08,2.09-.63,3.2-.33,1.41.82,2.89,1.59,2.49,3.65-3.61,6.42-8,12.37-11.22,19-2.35,2.54-4.85,2.6-7.48.45,3.13-.73,3.93-3.1,4.15-5.89a3.88,3.88,0,0,1,.41-1.95C17.57,53.08,19.55,50.65,21.24,48.06Z"/><path class="cls-101" d="M12,63.93c2.36-.12,5,1.42,7-1,1.12,1,.09,2.5,1,3.51a2.71,2.71,0,0,1,.58,1.19A2.76,2.76,0,0,1,20.27,69a4.72,4.72,0,0,1-3.44,1.26c-2.14-.11-4.25-.32-5.73-2.17l-1-3C10.31,64,11.24,64.06,12,63.93Z"/><path class="cls-102" d="M17.06,57,16.19,58c-1.58.14-2.05-1.35-3.06-2-.11-1.45-.31-3,1.82-3.12C17.7,53.17,17.66,54.92,17.06,57Z"/><path class="cls-103" d="M28,40.84c-.92.7-1.69,3-2.93.28-.45-1.16-2.13-1.53-2-3.08,3.39-2.63,6.11-6.08,10-8l0,0c1.51,3.67-2.67,5.13-3.11,8C29.42,39,29.08,40.21,28,40.84Z"/><path class="cls-27" d="M17.06,57A5.51,5.51,0,0,0,15,52.87c.22-2.61,5.05-1.3,4.13-4.87l2.16.06C20.82,51.48,18.27,53.9,17.06,57Z"/><path class="cls-104" d="M155,45.06q3,4,6,8c3,3.15,5.29,6.56,4.54,11.21a1.48,1.48,0,0,1-.8,1.12c-1.64.33-2.52-.7-3.05-2-4.24-9.9-10.89-18-18.55-25.43-1.26-1.22-2.66-2.54-2.81-4.54a3.11,3.11,0,0,1,.43-1.36c1.61-1,2.66.34,3.89.91,2.86,2.31,5.78,4.57,7.4,8C152.9,42.47,153.32,44.22,155,45.06Z"/><path class="cls-105" d="M152,41.05l-7.93-7.11c-.88-2-1.22-3.6,1.92-3,.11,2,1.43,3.2,3.07,4C151.64,36.29,152.36,38.39,152,41.05Z"/><path class="cls-106" d="M146,31c-1.94.15-2,1.53-1.92,3l-3-1.94c-1.21-1.67-.25-2.87.86-4a1.74,1.74,0,0,1,1.18-.19,17.84,17.84,0,0,0,2.14.95,4.3,4.3,0,0,0,.79.18C146,29.59,146,30.27,146,31Z"/><path class="cls-107" d="M162.1,44c-1.12,0-2.21,0-2.92-1.08.33-.78.78-1.56,1.73-1.3C162.07,41.94,162.08,43,162.1,44Z"/><path class="cls-108" d="M110,16.11l9,2a42.47,42.47,0,0,1,11.35,4.18c2,1.17,3.78,2.51,4.6,4.79l.06,0c1,1.18.4,1.88-.76,2.38-3.06,0-4.95-2.47-7.45-3.67a90.59,90.59,0,0,0-15.69-6.19c-1.53-.4-3.4-.26-4.23-2.12C107.31,15.68,109.05,16.82,110,16.11Z"/><path class="cls-109" d="M134.93,27A31.87,31.87,0,0,0,121.7,20,4.16,4.16,0,0,1,119,18.07L124.07,17l11.16,5.14Z"/><path class="cls-110" d="M97.05,14l1-.06c3.79.07,7.54.33,11,2a47.45,47.45,0,0,1-6.2,2c-2.81.12-5.56-.06-7.88-2Z"/><path class="cls-39" d="M99.19,9.92c3,.4,6.43-.8,8.89,2.06C105,12,101.74,12.41,99.19,9.92Z"/><path class="cls-111" d="M116.07,10c1.28.09,2.88-.31,3.34,1.38.24.91-.68,1.46-1.57,1.47-2.07,0-1.67-1.6-1.75-2.86Z"/><path class="cls-112" d="M103.11,16.85c1.8-1.63,4-.45,6-.91a3.56,3.56,0,0,1,.85.17c-.77,1.09-2,.77-3,1A2.56,2.56,0,0,1,103.11,16.85Z"/><path class="cls-113" d="M165.16,65c.42-4.62-3.31-7.79-4.18-12,1.4-.12,2.89-3.35,3.85-.88s5.46,3.47,2.86,7.24c-.49.71-.37,1.84-.53,2.78L166,65A.5.5,0,0,1,165.16,65Z"/><path class="cls-114" d="M134.1,29.07c.3-.66.59-1.33.89-2,3.24,1.15,1.24-2.86,3.06-3.1,1.27,1.59,3.57-2.39,4.55.84,0,2.32-2.1,3.57-2.9,5.49-1.32,1.69-2.25,3.77-4.52,4.5a3.79,3.79,0,0,1-2.82-.34c-.7-.56-.54-1.2-.18-1.87A37.5,37.5,0,0,0,134.1,29.07Z"/><path class="cls-106" d="M142.11,25a1.25,1.25,0,0,0-2.28-.13c-2.35,2.95-1.55.06-1.78-.93,2-2.55,4-1.78,5.9.14.72,1.5,1.53,3-.76,4L143,28C141.9,27.26,142.72,25.92,142.11,25Z"/><path class="cls-40" d="M143.19,28.08c1.27-1.13.71-2.6.76-4,1.7,1.19.85,3.08,1.3,4.62C144.42,29,143.19,30.49,143.19,28.08Z"/><path class="cls-115" d="M104,6.09c0,1.42-.7,2.08-2.13,1.7-.63-.17-1.36-.79-.93-1.26s1.42-.41,2.17-.57C103.41,6,103.7,6,104,6.09Z"/><path class="cls-116" d="M165.16,65l.82,0c1,1.31,1.88.49,2.87-.17,2.09-1.4,4-1.28,5.22,1.17-3,1.1-5.53,5.74-9.16,1a1.52,1.52,0,0,1,.13-2Z"/><path class="cls-117" d="M155.09,75l7-1c5.15,10.42,4.29,21.55,3.52,32.59-.18,2.46-.39,4.94-.52,7.42-2.07,1.53-3.75.59-5.36-.83-1.36-2.33-1.09-4.85-.67-7.3,1.11-6.47.67-12.94.22-19.42a15.41,15.41,0,0,0-4.19-9.91A1.28,1.28,0,0,1,155.09,75Z"/><path class="cls-118" d="M160.08,112.89l5,1.1,2,.07c.36,2-.86,2.88-2.42,3.55-7.44-1.06-14.43-3.76-21.47-6.18-8.5-2.92-16.93-6-25.52-8.66-2-.61-4.1-1.64-6.27-.39-4,.57-2.19-2.93-3.16-4.49-.34-2.39-1.11-4.78-.09-7.19.84-1.36.61-3.45,2.68-4a17.86,17.86,0,0,1,3.78,2c.76.68,1.53,1.6,1.38,2.53-1,6.17,3.4,7.22,7.76,8.48,2.69.78,5.36,1.65,8.07,2.39a54.55,54.55,0,0,0,5.43,2.05c3.61,1.49,7.46,2.26,11.13,3.56,2.21,1,4.6,1.37,6.87,2.16C157.07,110.56,159,111,160.08,112.89Z"/><path class="cls-119" d="M165.14,116.87c.65-.94,1.29-1.88,1.94-2.81a2.27,2.27,0,0,1,.9-.09c1.83.39,3.88-.44,5.51,1a4.89,4.89,0,0,1,1.52,2.07c0,1,0,2,0,3l-.49,0H174a3.06,3.06,0,0,1-2.09.59C169.43,119.75,166.27,120.15,165.14,116.87Z"/><path class="cls-120" d="M173.18,115.88c-1.19-2.12-4.32,1.06-5.2-1.91.34-.38.67-.77,1-1.16a1.74,1.74,0,0,0,1,0,3.38,3.38,0,0,1,4.1.23l.92,1.09C175.35,115.66,174.76,116.27,173.18,115.88Z"/><path class="cls-121" d="M175.06,98l3.58,5.19c.89-1.36-.2-3.24,1.46-4.17.54,4.48-1.49,8-4.29,12.27C174.49,106.34,175.32,102.12,175.06,98Z"/><path class="cls-122" d="M174.05,113l-4.1-.23a16.08,16.08,0,0,0,1.22-5.74c0-.79.15-1.77,1.33-1.53a1.42,1.42,0,0,1,1.17,1.85A6.1,6.1,0,0,0,174.05,113Z"/><path class="cls-123" d="M173.18,115.88l1.8-1.79,1.2.81a2.57,2.57,0,0,1-1.17,2.17C174.27,116.87,173.47,116.77,173.18,115.88Z"/><path class="cls-124" d="M178.91,93.91a2.06,2.06,0,0,1-2.85.07c0-.64.06-1.29.1-1.94,1.19-.32,2,.51,2.82,1A3.21,3.21,0,0,1,178.91,93.91Z"/><path class="cls-95" d="M165,65c0,.68-.08,1.36-.13,2L158.07,70c-1.75-9-6.92-15.83-13.25-22.08-3.15-3.12-6.74-5.88-9.08-9.77a6,6,0,0,1,4-5.62,1.93,1.93,0,0,1,1.33.51c1.46,3.45,4.25,5.82,6.86,8.3a61.92,61.92,0,0,1,14.44,21.14C162.87,63.66,163.37,65,165,65Z"/><path class="cls-125" d="M136.08,38c8.44,7.78,17.33,15.15,21.77,26.3a8.48,8.48,0,0,1,.22,5.65l-2,0c-1.6,1.16-2.64.07-3.14-1.13C148.67,58.62,141.08,51,133.43,43.38a3.62,3.62,0,0,1-.71-1.31C132.94,40,133.4,38.07,136.08,38Z"/><path class="cls-126" d="M133.08,42c8.44,7.16,16.07,15,20.29,25.48.49,1.23,1,2.47,2.68,2.5,0,.33,0,.65,0,1-1.82,1.74-4.14,2-6.47,2.14-2.31-.13-3.92-1.42-4.07-3.62C145,61.15,139,56.39,133.78,51.13c-1.5-1.52-3.5-2.57-4.09-4.85C129.67,43.94,130.94,42.62,133.08,42Z"/><path class="cls-127" d="M149.07,72l7-1c1.13.68.13,1.33,0,2L153.09,74a8.76,8.76,0,0,1-7.66,2.72,4.51,4.51,0,0,1-2.51-1.6c-.24-1.71,1.11-1.91,2.22-2.33S147.9,73,149.07,72Z"/><path class="cls-128" d="M145,76c2.9.24,5.28-1.69,8.06-1.92a2.1,2.1,0,0,0,2,1c0,.33,0,.65,0,1a4.27,4.27,0,0,1-2.2,1.84c-2.46,1.11-5.15,1.27-7.72,2a5.82,5.82,0,0,1-3,0,1.91,1.91,0,0,1-1.38-1.62C141.56,76.19,143.1,75.69,145,76Z"/><path class="cls-129" d="M21.08,143l1-5.06c-1.11-1.37-.82-2.83-.31-4.32A3.91,3.91,0,0,1,23,131.81c1.44-.21,2.15.82,2.61,1.84,2.13,4.71,5.72,8.47,8.33,12.86.23,4.11,3.25,6.21,6.09,8.44l-2.93,2c-3.14-2.72-7.94-3.73-8.63-9-.31-2.34-2.47-3.35-4.67-3.9A3.23,3.23,0,0,1,21.08,143Z"/><path class="cls-130" d="M21.08,143l2.74,1.05c-.61,1.24-1.7.95-2.72.85C21.09,144.31,21.08,143.67,21.08,143Z"/><path class="cls-131" d="M52.08,167c-.7-1.68-2.09-3.56,1.18-4.1,1.92-1.17,3.47.15,5.1.79,6,2.34,11.86,5,18,7,1.8.32,3.54.9,5.36,1.15,1.34.19,2.86.71,2.71,2.35-.18,2-2,2.76-3.67,2.65-2.6-.18-5.11-1.18-7.66-1.82h0c-1.77-.4-4,.38-5-2-3-3.26-7.82-1.32-11-4-1.12-1.2-2.87.16-4-1Z"/><path class="cls-87" d="M68.09,173c1.41,1.31,3.7.42,5,2l-1,1C68.64,177.75,68.11,175.69,68.09,173Z"/><path class="cls-87" d="M66.08,177c-1.35-.1-3.5.27-3.23-1.65s2.12,0,3.22-.37C66.07,175.62,66.08,176.3,66.08,177Z"/><path class="cls-56" d="M53.07,168c1.39.14,3-.49,4,1C55.87,168.12,53.75,170.9,53.07,168Z"/><path class="cls-132" d="M33.14,146.88c-4-4.55-7-9.74-10-14.9-2.92-1.46-2.71-4.68-4-7.06A1.56,1.56,0,0,0,19,124c-.81-1.21-2.18-2.41,0-3.64a3.38,3.38,0,0,1,1.45,0A4.48,4.48,0,0,1,23,123.27c3.17,8.82,8.54,16.19,15,22.85,1.3,3.27,5.91,4,6.21,8a3.23,3.23,0,0,1-2.07.32C37.23,154.16,35.48,150.17,33.14,146.88Z"/><path class="cls-133" d="M18.93,120.91C17.76,122,19.52,123,19,124c-2.94.14-5.76,1.42-8.77.86-.07-.93-.15-1.87-.23-2.8,2-1.84,4.69-1.79,7-2.86C18,119.39,19.2,119.27,18.93,120.91Z"/><path class="cls-58" d="M19.13,124.92l4,7.06c0,.66-.05,1.32-.07,2-1.32,1.16-2.65.37-4,0A29.11,29.11,0,0,1,19.13,124.92Z"/><path class="cls-134" d="M19.07,134c1.3-1.83,2.65.32,4,0-.32,1.34-.63,2.68-.94,4l-2-1C18.9,136.27,19.15,135.08,19.07,134Z"/><path class="cls-132" d="M74.89,171.85l-21.63-9-1.14-1c-1-.71-2.63-1-2.1-2.8,2.4-1.94,4.3-.2,6.32.82,8.78,4.4,17.82,7.87,27.87,7.74,2,.23,4.08.18,4.59,2.79a3.17,3.17,0,0,1-.43,1.64,3.39,3.39,0,0,1-1.44.84C82.85,173.28,79,171.13,74.89,171.85Z"/><path class="cls-135" d="M45.06,162.92c-1,.38-1.74,1.3-2.93,1-1.61-2.85,1.49-4,2.13-6.08a32.85,32.85,0,0,1,4.09-5.5c3.57-4.75,6.65-9.92,11.57-13.51a1.33,1.33,0,0,1,1.62.93,4.89,4.89,0,0,1-.81,3.24c-1,1.41-2.2,2.63-3.06,4.12-.61.87-1.34,1.63-2,2.47-1.13,1.52-2.1,3.15-3.1,4.76s-2.09,3.23-3.18,4.82C48,160.44,46.89,162.12,45.06,162.92Z"/><path class="cls-136" d="M45.1,158c.12,2.54-3.17,3.38-3,6l-1,0-.92-.2c-3.55-4.44,1.51-6,2.93-8.81C46.47,154.2,45.61,156.2,45.1,158Z"/><path class="cls-137" d="M45.06,162.92c1.07-1.6,1.41-3.94,4-3.95.63,0,.72.6,1,1l2,1.93c-.94.13-2.24-.13-2.63.89C48.07,166.58,46.58,164.35,45.06,162.92Z"/><path class="cls-45" d="M33.14,146.88C36.49,148.78,38,153,42,154c.31.12.42.27.36.45s-.16.29-.24.29L40,155C35.21,154.43,33.19,151.49,33.14,146.88Z"/><path class="cls-138" d="M42.16,154.75c0-.24-.09-.49-.12-.74l2.05,0a5.83,5.83,0,0,1,2.8-3.31,2.1,2.1,0,0,1,1.24.05,2.71,2.71,0,0,1,.94,2.26l-4,5c0-1.41.06-2.92-2-3A3,3,0,0,1,42.16,154.75Z"/><path class="cls-139" d="M89.17,179l0-3.93c.18-.13.35-.27.52-.41,1.92-.3,1.07-1.76,1.06-2.74,0-7.17,0-14.33,0-21.5.79-3.53-1.85-7.77,2.2-10.61,1.73,1.28,1.53,3.19,1.55,5,0,7.92,1.46,15.76,1.21,23.68a5.1,5.1,0,0,0,.73,1.28,3.77,3.77,0,0,1,1,1.83A3.7,3.7,0,0,1,97,172.8c-.84,1.22-.67,2.89-1.71,4-.1.72-.21,1.43-.31,2.14C93,181.08,91.09,180.22,89.17,179Z"/><path class="cls-77" d="M115,174.86c-.09.78-.09,1.87-1.3,1.15-1-.6-2.27-1.55-3.12-.91-4.24,3.18-9.09,1-13.57,1.83a5.58,5.58,0,0,1,1.64-4.66,5.72,5.72,0,0,1,4.57,0l.32.22c.27.37.36.4.25.05a1,1,0,0,1,.19-.84,3.18,3.18,0,0,1,1-.57c1.66-.45,3.43-.28,5-1a8.16,8.16,0,0,1,4-.92,2.76,2.76,0,0,1,1.21.6C116,171.52,112.47,173.08,115,174.86Z"/><path class="cls-77" d="M123,166.81a7.57,7.57,0,0,0,1.09,4.15c-.45,1.3.13,2.87-1,4h0a6.37,6.37,0,0,0-4,1c-.73-1-1.44-.73-2.15,0l-1.86-2c-.78-1.6.75-2.4,1.23-3.57.46-.81.85-1.65,1.39-2.42C119.24,166.55,120.84,165.42,123,166.81Z"/><path class="cls-140" d="M117,171l-1.92,3a6.4,6.4,0,0,0-.09.88l-3.61-1.45c.56-2.07,3.28-1.47,3.78-3.34C116.21,169.57,116.7,170.12,117,171Z"/><path class="cls-141" d="M97.94,173.05c1.65,1.75.3,2.8-.92,3.88l-1.77-.1c.1-1.65-1.14-3.54.86-4.86C96.53,172.64,97.61,172.2,97.94,173.05Z"/><path class="cls-142" d="M117,176c.15-.92.21-2.2,1.3-2.19,1.41,0,.63,1.39.85,2.17C118.4,177,117.68,176.11,117,176Z"/><path class="cls-87" d="M74.89,171.85C79,170.13,83,173,87.06,172c.59,2-.24,3.21-2,3.94-4.33,3.83-8.15,1.58-11.94-1,2.66-.45,5.1.84,7.68,1,1.19,0,2.57-.19,2.75-1.49.24-1.8-1.41-1.27-2.42-1.46Z"/><path class="cls-143" d="M85,176l2-3.94a1.59,1.59,0,0,1,.83-.2c1.55-.4,1.71.67,1.86,1.75a3,3,0,0,1-.62,1.42v0c-2.41.22.93,4.94-3.06,3.92C85.73,178,85.37,177,85,176Z"/><path class="cls-144" d="M14.11,79l1.09-4c1-1.73,2.17-3.22,4.24-3.72,1.3-.15,2.5-.08,2.94,1.48A71.84,71.84,0,0,1,19.79,85,159.39,159.39,0,0,0,19.94,108c.12,1.65.54,3.29.12,5-1.35,2.89-3,3-5,.59a11.92,11.92,0,0,1-.66-1.4,3.16,3.16,0,0,1,.38-2.17c1-1.21.37-2.53.13-3.77-1.64-8.28-1-16.66-1.11-25A2.09,2.09,0,0,1,14.11,79Z"/><path class="cls-145" d="M14.11,79c0,.69.05,1.39.08,2.08,1.07,3.44.13,6.88-.16,10.29-.54,6.28,1.7,12.37,1.09,18.63,0,.66,0,1.33-.07,2-3.22-.8-4.11-3.76-5.65-6.12A2.81,2.81,0,0,1,10,103C9.39,94.68,12.4,86.94,14.11,79Z"/><path class="cls-71" d="M10,103V106c.39,1.66,2.26,3,1,5-3.26-2.29-5.23-5-2.87-9.06Z"/><path class="cls-94" d="M19.1,72l-3.9,3-.12-1C17,69.2,11.58,72.22,11,70.14l.27-.29C14.12,69.52,17.23,68.44,19.1,72Z"/><path class="cls-71" d="M8.17,101.92c-2.79-1.59-2.73-3.63-1-6C9.44,97.64,8.64,99.81,8.17,101.92Z"/><path class="cls-146" d="M15.38,112.85c1.13.73,1.92,2.55,3.71,1.16,1.32-1.36,3.1-1.58,4.8-2a10.23,10.23,0,0,1,2.28-.19c1.27.13,2.54.27,3.17,1.65-.92,3.23-4.13,2.82-6.35,4a11.92,11.92,0,0,1-1.32.42,34.22,34.22,0,0,0-6.44,1.73,4.76,4.76,0,0,1-1.35.21c-2.14.11-2-1.89-2.81-3a3.6,3.6,0,0,1-.82-.74l.88-1.25c1-.71,2.66.23,3.41-1.25A.8.8,0,0,1,15.38,112.85Z"/><path class="cls-147" d="M14.09,119a5.21,5.21,0,0,1,1-.06c1.17-.58,2.15-.8,2.06,1.07A9.28,9.28,0,0,1,10,122.1c-1.45-1.51-.6-3.36-.76-5.06l1-1a5.18,5.18,0,0,1,.79,0C12.39,116.71,10.45,120.77,14.09,119Z"/><path class="cls-148" d="M11.07,111l-1-5c2.2,1.56,3.32,4,5,6a3.26,3.26,0,0,0,.33.87L15,113c-.31.43-.61.44-.89,0C12.73,112.85,11.26,112.89,11.07,111Z"/><path class="cls-83" d="M14.08,113a3.77,3.77,0,0,1,.89,0c-.16,3-2.42,1.51-3.85,1.79Z"/><path class="cls-149" d="M119,125c-3.81-4.91-8-9.58-11-15.07-.4-3.57,1.77-5.69,4.3-7.6a42.42,42.42,0,0,1,19,6.24c.75,5.15-5.33,15.89-9.84,17.44A2,2,0,0,1,119,125Z"/><path class="cls-150" d="M141.1,154c-3.14-.18-3.42-3.25-5-5a7.73,7.73,0,0,1,2.2-4.29,69.5,69.5,0,0,0,18.26-26.06,4.16,4.16,0,0,1,1.51-1.91,17.34,17.34,0,0,1,8.23,2.54,2,2,0,0,1-.72,1.94c-2.51,1.95-3.08,5.07-4.43,7.66C156.1,138.56,149.1,146.64,141.1,154Z"/><path class="cls-151" d="M119,125c.92.33,1.76.75,2.7-.16,4.55-4.45,8.21-9.39,9.33-15.85,3.88-2.2,6.48.39,9.23,2.44a4.12,4.12,0,0,1,.65,1.41c-.6,9.28-7.51,14.81-12.72,21.35a1.84,1.84,0,0,1-2.16.8C123.57,131.76,120.52,128.93,119,125Z"/><path class="cls-152" d="M105,110l3.14,5.92c.36.9-.18,1.28-.89,1.56-3.66-2.83-7.9-1.7-12-1.69-3.5-.47-1.31,3.22-3,4.08a1.62,1.62,0,0,1-1.29.34,4.61,4.61,0,0,1-1.2-1.63c-1.85-3.05-6.22-2.26-8.08-5.26-.41-1.13-.87-1.64-1.84-.37-1.36,1.78-2.28,3.93-4.25,5.22a2.58,2.58,0,0,1-1.37.25A2.79,2.79,0,0,1,72.71,117a2.87,2.87,0,0,1-.12-2c.66-1.44,2-2.39,2.88-3.63,1.61-2.64-.93-3.3-2.19-4.56a3.74,3.74,0,0,1-1.81-3.38c.33-1.16.84-2.31.25-3.55a4.92,4.92,0,0,1,.62-2.46c1.12-2.48.13-5,.11-7.48a2.2,2.2,0,0,1,.7-1.19l.72-.1.67.26a4.59,4.59,0,0,1,1.62,2.32c1.21,3.55-.88,7.35.85,10.86,3.4,2.9,6,7.34,11.66,5.61,2.68-.13,5.25-1.22,8-.92,2.34.65,4.8,0,7.15.69C104.88,108,104.6,109.12,105,110Z"/><path class="cls-153" d="M140.07,113c0-.32,0-.64,0-1,4.81-1.39,8.64.63,12.22,3.5a3.32,3.32,0,0,1,.62,3.29c-4.87,9.83-9,20.36-20.83,24.17l-4-5c4.89-5.11,9.8-10.17,13.46-16.33C144.72,116.3,144.87,116.39,140.07,113Z"/><path class="cls-154" d="M132.06,143c.76-.85,1.36-2.13,2.3-2.48,9.91-3.69,12.16-13.62,17.32-21.14.57-.83.28-2.24.39-3.38,2.35-1.71,4.28-1,6,1-3.3,11-9.7,19.88-18,27.6-1.43,1.33-2.66,2.88-4,4.33Z"/><path class="cls-155" d="M140.07,113c2.09.34,4,1.44,6.58.94a61.12,61.12,0,0,1-14.86,21.84c-1.08,1-2,2.25-3.69,2.21l-2-3c4.81-5.76,10.11-11.16,13.07-18.23A24.72,24.72,0,0,0,140.07,113Z"/><path class="cls-156" d="M141.1,154c2.07-5.45,7.19-8.43,10.62-12.82,4.44-5.68,7.7-11.87,10.9-18.19.46-.91,0-3.16,2.29-1.93a2,2,0,0,1,1.6,2.1A37.53,37.53,0,0,1,160,136.33c-1.7,2.4-3,5.07-5.15,7.15a59.32,59.32,0,0,1-7.21,8.06c-1.42,1-2.31,3.06-4.6,2.44Z"/><path class="cls-157" d="M143.06,154l4-3c1.32-.87,2.62-2.09,4.16-.35a3,3,0,0,1,.39,1.23c-.22,1.48,1,2.16,1.76,3.06.7,1.93-.43,3-1.84,4-1.07.72-2.28,1.33-1.71,3-1.72,2-2.66,1-2.55-.94.18-3.44-1.72-5-4.55-6C142.85,154.64,143,154.31,143.06,154Z"/><path class="cls-158" d="M136.15,153.88,135,155.06c-2,.37-2.82-1.23-3.85-2.44-1.41-2.29-3.84-3.81-5-6.33-.86-2.52-3.52-4.15-3.54-7.09a3,3,0,0,1,1.44-2.23C128.13,142.58,132.68,147.85,136.15,153.88Z"/><path class="cls-159" d="M105,110a2.24,2.24,0,0,1-1-2.06,22.12,22.12,0,0,1,4.45-9.62l.62-.3c2.21.56-1,3.8,2,4,.91-.16,1.33.11,1,1.09-1.33,2.28-2.65,4.57-4,6.86C107.06,109.65,106,108.37,105,110Z"/><path class="cls-160" d="M107.07,117l1.08-1.1c3.81,3.41,6.16,7.9,8.95,12.07a2.41,2.41,0,0,1-1.22,2.33,1.93,1.93,0,0,1-1.32-.35C112.06,125.62,107.22,122.66,107.07,117Z"/><path class="cls-161" d="M116.08,130a2.05,2.05,0,0,1,1-2c2.91,2.54,4.82,5.87,7,9a2.09,2.09,0,0,1-1,2,1.19,1.19,0,0,1-1.29.09C119.61,136.2,116.36,134,116.08,130Z"/><path class="cls-162" d="M123,166.81a7.68,7.68,0,0,0-4.95,2.07c-1.05,1.57-2.91,0-4.07,1L110.06,171c-1.87,1.18-4.16-.26-6,.94v0a9.32,9.32,0,0,1-6.91,0l-1-1c-1-2.9,1.29-3,2.9-3.1a74.17,74.17,0,0,0,31.85-10.46c1.27-.75,2.65-1.51,4.13-.33l.24,1.07a2.13,2.13,0,0,1,.29,2,10.14,10.14,0,0,1-3.21,3.46,12,12,0,0,1-3,1.35c-1.25.28-2.46.73-3.72,1l-.64,0Z"/><path class="cls-163" d="M129.08,164l2.87-1.19A2.09,2.09,0,0,1,133,165l0,1c-2.06-.12-3.12,1.71-4.76,2.44-1,.45-1.75,1.73-3.06.88-1.6-1-.56-2.33-.24-3.54l0,0C126.25,165,127.76,164.7,129.08,164Z"/><path class="cls-164" d="M123.07,175c.48-1.3-2.47-3.47,1-4a3,3,0,0,1,2,3Z"/><path class="cls-165" d="M131.09,174c-.76-.15-1.72-.17-1.51-1.3,0-.27.81-.65,1.15-.56,1.3.32.44,1.19.35,1.86Z"/><path class="cls-166" d="M133,165c-.36-.75-.73-1.5-1.09-2.26l3-2.85c2-.64,1.2,1.57,2.09,2.06h0C136.5,164,136.46,166.76,133,165Z"/><path class="cls-167" d="M135,157c-4.65,1.22-8.28,4.47-12.73,6.25-7.56,3-15.11,5.45-23.28,5.72-1.39,0-2.71.08-2.87,1.92H95.07c-1-2.14-.32-4.39-.41-6.59.89-2.25,2.88-2.6,4.89-2.59,10.28,0,19.11-4.45,28-8.81,1.42-.7,2.66-2.15,4.47-.92l3,3.08Z"/><path class="cls-74" d="M137.06,162,135,159.91c.09-.61.19-1.22.28-1.84C137.94,158.4,136.85,160.49,137.06,162Z"/><path class="cls-168" d="M149.84,161.88c-3.12-.88-1-2.14-.09-3,1.23-1.21,3.33-1.63,3.36-3.89,1.34-.8,2.58-1.3,2.93,1C154.57,158.55,151.86,159.86,149.84,161.88Z"/><path class="cls-169" d="M156,156c-.71-1.15-1.84-1-2.93-1-2.1-.07-4.09-.22-2.1-3.08,2.45.54,4.62-.39,6.79-1.3a1.44,1.44,0,0,1,1.24.31l1,1Z"/><path class="cls-170" d="M161.07,150c.16-2.84.16-2.84,2-2C162.43,148.68,161.75,149.35,161.07,150Z"/><path class="cls-171" d="M159.06,136c2.9-4.08,4.68-8.73,6.89-13.16a3.53,3.53,0,0,1,2.12,2.17c0,.33,0,.66,0,1,0,2.68-.16,5-3.34,6.38-2.57,1.09-1.52,4.86-3.58,6.65a1.3,1.3,0,0,1,0,1.36c-.75.74-1.69,1.17-2.48.33C157,139.06,158.67,137.55,159.06,136Z"/><path class="cls-172" d="M161.06,140c0-.32.06-.63.1-.95,2.32-.22,2.66-1.9,3.09-3.79.58-2.61,2.94-2.86,4.69-1.92,1.93,1.05.21,2.82-.61,3.64-1.72,1.73-2.26,4-3.29,6l-1.92,0C162.08,142.19,160.36,141.93,161.06,140Z"/><path class="cls-173" d="M112.07,103.06l-1-1.09c.39-2.87,2.12-1.62,3.69-1.28,9.4,2,18.22,5.91,27.28,9,7.66,2.57,15.35,4.94,23.08,7.22l7.11,3c-.76,1.23-2,1-3.2,1.11l-1,.08c-1.17.27-1.78-.26-1.95-1.39-2.66-1-5.61-1-8-2.65-2-.44-3.87-1.38-6-1-3.78-2-7.59-3.94-12-4-2.88-1.34-5.51-3.43-9-3C124.79,106.84,118.69,104.11,112.07,103.06Z"/><path class="cls-174" d="M166.08,119.68l1.95,1.39c-.23,1.31,1.78,2.6,0,3.93-1.41,0-2-.89-2.12-2.17-.34-.61-.69-1.21-1-1.82Z"/><path class="cls-175" d="M169.05,121c.77-1.24,2.07-.93,3.2-1.11L174,120C172.74,122.39,171.11,122.76,169.05,121Z"/><path class="cls-176" d="M174.12,123c0,.33,0,.66,0,1-.85.1-2.16,1.41-2.42.18C171.34,122.43,173.21,123.25,174.12,123Z"/><path class="cls-177" d="M161.06,140l2.06,2.94-.46,0h-.45c-.72.62-1.32,1.36-2.08,1.93L160,146c-1.69.9-1.15-3.05-3.17-1.44a3.2,3.2,0,0,1-2.85-1.61l5-6.95C160.8,136.78,155.41,141.14,161.06,140Z"/><path class="cls-178" d="M157,144c3.51-3.07,1.19,2.57,3,2a7.53,7.53,0,0,1-1,4.95q-.48,0-1,.06c-2.73.13-2.92-1.81-3.09-3.77A3.45,3.45,0,0,1,157,144Z"/><path class="cls-179" d="M160.13,144.86c0-1.43.6-2.12,2.08-1.92C162.07,144.18,162.58,146.12,160.13,144.86Z"/><path class="cls-180" d="M95.15,59q0-9,0-18c1.07-2.24,3-2.22,5.07-2a39.09,39.09,0,0,1,16.45,6.27c4.63,2.94,1.95,6.93.67,10.57-.84,1.85-1.43,3.93-3.84,4.43.11-4.59-3.72-6-6.59-8.22a4.87,4.87,0,0,1-.5-1.26c-1.26-3.31-4.36-3.52-6.92-3.14S97.83,51.09,97.38,53a27.61,27.61,0,0,0-.15,3.42C96.91,57.59,97,59,95.15,59Z"/><path class="cls-181" d="M95.15,59c1.1-.76.87-1.92.92-3,5.34-1.83,9.77.42,13.67,3.57,2.8,2.26-.24,4.85-.49,7.31-1.4,3.23-2.66,6.61-7,6.78-2.29-1-5.06-.89-7-2.84Q95.21,64.9,95.15,59Z"/><path class="cls-159" d="M90.06,20c-.82-1.63.24-4-1.94-5.08-.33-.72-.12-1.17.64-1.37,3.42-.55,2.77,2,2.78,3.81,0,10.58,0,21.15,0,31.73,0,1.62-.42,3.31.45,4.86,0,.69,0,1.38,0,2.07a20.8,20.8,0,0,0,0,9.95v2c-1.2,1.8.73,5.76-3.73,5.33,1,.46,2.56-.44,3,1.26-2.37,3.2-6.44,3.73-9.47,6-1.9,1.41-3.67,2.72-4.78,4.82-1,1.16-.6,3.44-2.82,3.68L74.05,89c-1-.93-.86-3.88-3.43-1.81-4.13-.46-8.29-.89-10-5.65,1.19-2,3-1.16,4.33-.57,4.41,1.92,7.52.71,9.75-3.41a4.48,4.48,0,0,1,1.79-1.63c1.19-.62,2.46.53,3.65-.2,1.55-1.38,2.46-3.37,4.34-4.41,3.31-.82,4.32-3,4.26-6.28q-.25-12.21-.07-24.43c-.08-1.36,0-2.71,0-4.07,0-.79,0-1.57,0-2.36a34.59,34.59,0,0,0,0-3.81,17.59,17.59,0,0,1-.35-4.52C88.79,23.83,88.77,21.72,90.06,20Z"/><path class="cls-182" d="M116,55.91a28.79,28.79,0,0,1,1-2.79c1.67-3.52,1.73-6-2.73-7.77s-8.59-4.11-13.39-5a7.87,7.87,0,0,0-5.75.62c0-1.66,0-3.33,0-5,3.69-4.22,8.14-1.28,11.94-.7,4.27.65,8.49,2.59,12.5,4.55,2.29,1.11,4.4,2.41,4.44,5.39-.86,4.46-3.93,7.6-6.64,11A1.11,1.11,0,0,1,116,55.91Z"/><path class="cls-159" d="M111.2,87.07c-1.79.72-.51,3.1-2.1,3.93a2.74,2.74,0,0,1-.86-1.08c-.64-4.91-4.7-7.59-7.34-11.17-.06-.39.34-.65.32-1-.31.1-.09.58-.47.65a2.81,2.81,0,0,1-2.44.22,7.18,7.18,0,0,1-1.75-1c-1.08-2-4.91.07-5.07-3.35a3.25,3.25,0,0,1,.64-3.33C94,74,94,74,95.16,71.91c2-1,3.78.27,5.65.65,2.74,2.83,4.47-1.61,6.91-1,1.4,1.31.19,2.37-.48,3.3-1.41,1.93.48,1.49,1.25,1.87,3.64,6.16,8.68,5.51,14.23,3.11a22.83,22.83,0,0,1,5.17-1.68,3.1,3.1,0,0,1,2,.47c.7,1.11.3,2.26.11,3.4C125,84.78,119.38,86,114,87.7A2.89,2.89,0,0,1,111.2,87.07Z"/><path class="cls-183" d="M134.1,29.07A2.7,2.7,0,0,1,133,32.93c-5.6-3.35-11-7.09-17.72-8-4.82-1.18-9.59-2.58-14.61-2.81a8.19,8.19,0,0,1-5.48-2.06l-.18-4.13,8.06.92,3.83.26C116.6,19.71,126,23,134.1,29.07Z"/><path class="cls-184" d="M116.07,24c6.53,1.34,12.75,3.23,17,8.94-.28.36-.56.71-.83,1.07.26,3-1,4.89-4.13,5.18A6.5,6.5,0,0,0,123,32.87c-3.93-1.19-7.38-4-11.79-3.67-5.27-1.67-10.91-1.87-16-4.16l0-2.07c4.75-2.58,9.41.05,14.08.4C111.53,23.54,113.72,24.6,116.07,24Z"/><path class="cls-185" d="M112.07,28c5.87.57,10.78,3.51,15.82,6.21,3.2,1.71-.51,3.33.25,4.91,0,1-.55,1.22-1.38,1.19-4.38-1.79-8.54-4.13-13.17-5.29-3.49-1.56-7.37-1.71-10.93-3a9.08,9.08,0,0,0-5.7-.61l-.65.07A1.68,1.68,0,0,1,95.14,31l.07-3c3.81-2.27,7.6-.91,11.46-.09C108.4,28.25,110.25,30.31,112.07,28Z"/><path class="cls-186" d="M95.14,31h.92c.82.25,1.22,1.34,2,1.34,5.38,0,10.6,1.63,16,1.67,4.68,1.44,9.54,2.51,13.14,6.23.44,3.22-.79,5.26-4.12,5.8-.07-1.15.21-2.63-.93-3.2-8.49-4.24-16.93-8.72-27-6.85C95.17,34.32,95.16,32.66,95.14,31Z"/><path class="cls-187" d="M92,54c-1.6-1.5-.92-3.44-.93-5.19,0-10.15,0-20.3,0-30.44,0-2.15.44-4.64-3.07-4.27-1.87,1.12-4.11-.27-6,.9l-4,.07c2.51-2.54,5.19-4,8.89-2.26,1.43.69,2-.6,2.22-1.86,1.27-.1,3.09-2.33,3,1.48C91.94,26.23,92.06,40.09,92,54Z"/><path class="cls-188" d="M116.07,24l2.63,1.86c-7.86-1.23-15.6-2.75-23.51-2.88,0-1,0-1.94,0-2.91C102.28,20.85,109.37,21.38,116.07,24Z"/><path class="cls-189" d="M112.07,28l2.61,3c-7.2-1.51-13.18-3.8-19.47-3V25C101.09,24.55,106.43,27.11,112.07,28Z"/><path class="cls-187" d="M92.13,70.91c0,1.37,0,2.74-.08,4.1a.65.65,0,0,1-1,0c-.92-1.61-2.81-.51-4.59-1.84C91,73.75,90.56,70,92.05,68,92.08,69,92.11,70,92.13,70.91Z"/><path class="cls-187" d="M92.05,66a11.29,11.29,0,0,1,0-9.95Z"/><path class="cls-190" d="M101.05,73.07l-5.89-1.16.09-1.1c2.45.24,5,.18,6.9,2.14A.68.68,0,0,1,101.05,73.07Z"/><path class="cls-191" d="M76.88,15.84l6.19.38c-2.69.46-5.41,1.72-8-.16Z"/><path class="cls-192" d="M61.17,20.13,66,19h2.9A137.8,137.8,0,0,0,53,27c-.93.56-2,1.43-3,0l2-2Z"/><path class="cls-193" d="M61.16,81C63.24,85,67,85.66,71,86c1,.75,3.5.48,2.11,3h0a4.15,4.15,0,0,1-3.74.86c-4.36-1.29-8.59-3-13-4-2.83-.87-5.49-2.23-8.35-3-4.25-1.14-8.74-1.5-12.63-3.85A43,43,0,0,0,31,76.83a25.09,25.09,0,0,0-3.92-1.12c-1.12-.35-2.3-.45-3.44-.74-.88-.38-2-.62-1.55-2-.71-1.16-1.89-.94-3-1-2.31-1.91-5.09-2-7.88-2.12l-.12-1.81,6,1c5.54-.62,10.27,2.14,15.3,3.68,5.25,1.73,10.63,3,15.78,5.09,3.62,1,7,3.3,11,2.49A2.55,2.55,0,0,1,61.16,81Z"/><path class="cls-194" d="M90.06,20c-.27,2,.82,4.25-1,6a4.45,4.45,0,0,1-1.18-.75c-5.84-1-11.45.14-17,2-6,2-11.56,5-17.16,8L53.09,35c-.3-4.2,3.3-5.15,5.91-6.3,9-3.94,18.13-7.76,28.28-7.77A9.52,9.52,0,0,0,90.06,20Z"/><path class="cls-195" d="M48.06,32c.07-1.08-.21-2.27,1-2.94.39,2.61,2.62,4,4,5.91h0a5.7,5.7,0,0,1,2.55,1.86c.88,1.44,2,2.68,3,4a54.17,54.17,0,0,0,3.24,4.73c2.65,2.74,4.45,6.11,6.85,9a4.28,4.28,0,0,1,1,3.36A2.14,2.14,0,0,1,68.3,59.5a3,3,0,0,1-1.42-.16C63,55.56,60.18,51,57.23,46.53c-3-3.27-5.18-7.1-7.86-10.58C48.52,34.85,47.41,33.68,48.06,32Z"/><path class="cls-194" d="M82.05,15c1.79-1.58,4-.66,6-.9,0,.29.07.58.1.87Z"/><path class="cls-196" d="M20.06,67c-.32,0-.64,0-.95,0C21.74,56.44,28,48,34.89,40c2-2.36,4.84-4,6.26-7-.09-.37-.18-.74-.28-1.1a3.88,3.88,0,0,0,.35-.78c1.33,0,2.8-.55,3.85.82,1,.91,2.91,1.25,2,3.31C36.94,40.86,31.49,50.37,25.88,59.84,24.35,62.43,24.33,66.54,20.06,67Z"/><path class="cls-197" d="M47,35l-2-3h2l1,0q5,7,10,14a1.5,1.5,0,0,1-.4,2.38,2.71,2.71,0,0,1-1.35.15,5.25,5.25,0,0,1-2.57-2,18.49,18.49,0,0,1-1.18-2.14,11.78,11.78,0,0,0-1.15-2c-.61-.75-1.31-1.42-1.89-2.19-.25-.32-.46-.66-.68-1a33.6,33.6,0,0,1-2.14-3A1.18,1.18,0,0,1,47,35Z"/><path class="cls-97" d="M36.11,31l4.76,1a1,1,0,0,1,.59,0c.1,2.11-1.23,3-3,3.58-2-.61-3.92.1-5.8.84a1.41,1.41,0,0,1-1.06-.87C32.3,33.19,32.81,30.69,36.11,31Z"/><path class="cls-31" d="M36.11,31c-2.51.74-3.41,2.77-4,5-.48,1.46-1.19,2.57-3,2,0-3.33,3.68-4.8,4-8C34.19,30,35.37,29.8,36.11,31Z"/><path class="cls-198" d="M38.15,35.08,41.46,32c4,.41,1.19,1.91.35,2.77-4.92,5.07-10.06,9.89-14,15.89-3.43,5.21-5.63,11-8.69,16.36-3.48-1.29,1.33-2.73-.08-4.06C21.34,55.8,26,50.06,30.12,44a11.3,11.3,0,0,1,2.45-4.43C34.21,37.83,35.66,35.81,38.15,35.08Z"/><path class="cls-199" d="M33.16,40.09c-.41,1.79-1.95,2.69-3,3.95.43-1.83-2.58-1.36-2.13-3.2,0-1.08,0-2.2,1.07-2.9l3-2c.33,0,.66,0,1,0C34.38,37.3,33.85,38.69,33.16,40.09Z"/><path class="cls-200" d="M47,35a4.49,4.49,0,0,1,.11,1A2.55,2.55,0,0,1,46,39c-9.07,6.91-15.21,16.07-20.25,26.11a7.81,7.81,0,0,1-2.81,3.43A2.43,2.43,0,0,1,20.09,68l0-1c3.87-4.15,5.5-9.65,8.6-14.27,4.07-6.06,8.05-12.12,14.27-16.28C44.22,35.59,45.42,34.83,47,35Z"/><path class="cls-94" d="M20.09,68h3a1.23,1.23,0,0,1,1.13-.41,40.46,40.46,0,0,1,4.72,2,6.46,6.46,0,0,1,1,.8c.86,1.11,2.72,1.64,2.13,3.61L17.07,69C18.17,68.94,19.37,69.17,20.09,68Z"/><path class="cls-201" d="M141.05,33h-1c-1.06-.79-1.1-1.94-1.1-3.11.13-2.2,2.33-3.07,3.13-4.84,1.17.71.93,1.86.93,2.94a5.63,5.63,0,0,0-2,4C141.07,32.33,141.07,32.66,141.05,33Z"/><path class="cls-202" d="M139,29.88c1.2.74,1.07,1.95,1.1,3.11-2.07,1.08-2.66,3.35-4,5l-3,4-3,4c.45,2.75-2.36,3.74-3.14,5.84-1,1.59-1.71,3.61-4.15,3.59a2.21,2.21,0,0,1-1.55-2.28c3.31-7.31,8.27-13.44,13.78-19.18Z"/><path class="cls-203" d="M135.06,34q-6.48,9.52-13,19c-1.47,2.86-1.41,7.11-6.26,6.89-.71-1.67.69-2.76,1.15-4.12L123.09,46a12.64,12.64,0,0,0,4.12-5.8l.93-1.12c2.05-1.15,2.85-3.3,4.07-5.11Z"/><path class="cls-204" d="M153,77a2.14,2.14,0,0,1,2-1c5.55,1.93,5.19,7,5.74,11.36,1.08,8.53-.42,17-.71,25.55l-5-1.92c-2.69-1.66-2.1-4.5-1.9-6.77C154,95.1,152.2,86,153,77Z"/><path class="cls-205" d="M132.05,103c-5.62-.17-10.47-3.06-15.75-4.44-1.74-.45-1.48-1.74-1.33-3.17.24-2.13.41-4.34-.89-6.29,1.85-2.79,5.14-2.68,7.8-3.81,3.49-1.48,7.33-1.91,10.82-3.47,1.38-.61,2.89-.85,4.09.54,2.25,3.77,1.87,7.89,1.52,12a3.1,3.1,0,0,1-1.65,2.83c-1.9.89-1.62-1.63-2.86-1.83C136.27,100.49,135.86,102.24,132.05,103Z"/><path class="cls-206" d="M132.05,103c3.95-1.69,1-5.27,2.27-7.85,1.19.77,2.77,2.55,2.78-.92a50.16,50.16,0,0,0-1-12.23c1.14-3.52,4.05-2.38,6.49-2.48,1.41,0,2.37.8,2.28,2.08-.43,6.11,1.41,12.16.28,18.31-1.26,6.83-1.14,6.85-8,5.08A5.85,5.85,0,0,1,132.05,103Z"/><path class="cls-207" d="M153,77c2.24.31,1.62,1.64,1.52,3.28-.68,10.24,0,20.48.5,30.72l-7-2c-1.33-1.74-1.15-3.69-.85-5.69.86-5.9.06-11.89.92-17.8.4-2.8-1.52-4.57-3.08-6.47C147.52,77.51,150.35,77.53,153,77Z"/><path class="cls-208" d="M145.06,79c5.64-.26,5.09,4.23,4.62,7.2-1.2,7.57.26,15.28-1.61,22.76-3.58-1.56-7.72-1.55-11-4,4.82,1.57,6.32-.69,6.67-5.22.25-3.3.63-6.61,0-9.81-.45-2.47-1.09-4.78-.12-7.23.63-1.56.11-2.55-1.63-2.77-.33-.23-.43-.45-.3-.65s.24-.29.36-.29Z"/><path class="cls-209" d="M142.1,79c0,.31,0,.63-.06.94-2,.76-4.26.54-6,2l-22,7.1c-1.31-.18-2.93.09-2.88-2a160.57,160.57,0,0,0,18.91-6c3.27-2.4,6.63-4.49,11-3Z"/><path class="cls-210" d="M109.06,90c0,.35,0,.69,0,1-1,2.33.47,4.65,0,7H109c-2.27,1-4.33,2.1-5.1,4.79-.53,1.84-2.14,2.3-3.94,2.08a5,5,0,0,1-3.12-1.75,1.73,1.73,0,0,1,.16-1.37c1.3-1,2.85-1.65,3-3.67.12-2.25,1.88-2.92,3.87-3.35.5.15,0-.21-.11-.19-1.91.53-2.68-.56-3-2.26A16.32,16.32,0,0,1,109.06,90Z"/><path class="cls-159" d="M112.16,91.06a8.55,8.55,0,0,1,0,7.28Z"/><path class="cls-211" d="M126.14,51l4-5c4,4.33,9.11,7.62,12.33,12.79,2,3.16,4.94,5.75,4,10.17a2.6,2.6,0,0,0,2.62,3l-3,1.91c-5.26-.78-12-8.25-12.2-13.85-.08-2.39-1.46-3.57-3.08-4.72S127.08,53.09,126.14,51Z"/><path class="cls-212" d="M126.14,51a33.09,33.09,0,0,1,7.65,5.22c1.25,1.24,2.9,2.28,1.17,4.52-1.87,2.4,1.29,3.09,2.13,4.16,2.62,3.3,4.33,7.66,8.95,9-1.08.12-2.28-.07-3,1.06a23.59,23.59,0,0,1-13,4h-2c2.46-7.21-.52-12.7-9.31-17.13-.35-3.42,2-5.16,4.34-6.86C124.84,54.24,125.22,52.42,126.14,51Z"/><path class="cls-213" d="M130.08,79c4.24-1.61,8.41-3.41,13-4a2.11,2.11,0,0,1,2,1l-4,2.1-11,3C129,80.36,130,79.68,130.08,79Z"/><path class="cls-214" d="M47.08,151a6.14,6.14,0,0,1-3,3c-2-2.69-5.53-3.8-7-7-.39-3.53-3.73-5.05-5.38-7.79-3.91-6.51-7.61-13.08-10.08-20.29a1.94,1.94,0,0,1,.41-1.95h0a4.52,4.52,0,0,1,3.46.73c2.29,2.19,2.57,5.35,3.84,8a66,66,0,0,0,14.27,19.7C45.19,146.87,47.61,148.08,47.08,151Z"/><path class="cls-215" d="M22.09,119c.67,0,1.25.14,1.48,1,2.6,9.23,7.93,17,13.52,24.55.65.88,1.15,1.64,0,2.48-7.85-7.24-12.3-16.7-17-26C19.83,119.38,20.44,118.65,22.09,119Z"/><path class="cls-216" d="M22.09,119a3.43,3.43,0,0,0-2,2l-1.15-.06c-.34-.84-1.13-.75-1.81-.89A2.29,2.29,0,0,0,15.06,119a11.19,11.19,0,0,1,7-2C22.05,117.62,22.07,118.3,22.09,119Z"/><path class="cls-217" d="M52.07,154c.26-2.1,1.68-3.51,3-5a53.63,53.63,0,0,0,32.17,12.88,4,4,0,0,1,1.85.7c1.52,1.65,1.1,3.81,1.48,5.76a3,3,0,0,1-1,2.7,1.48,1.48,0,0,1-1.4.08c-.31-2.71-2.41-2-4.07-2.15-9.17-1.44-18.1-3.61-26.21-8.34C55.21,159.08,52,157.91,52.07,154Z"/><path class="cls-218" d="M52.07,154c6.56,7.79,15.73,10.59,25.08,12.94,2.35.59,4.82.7,6.93,2.07-10.38,0-19.77-3.44-28.8-8.21-1.59-.84-3.09-2.89-5.18-.81l-1-1C49.42,156.91,50.08,155,52.07,154Z"/><path class="cls-219" d="M88.15,171.12a3.19,3.19,0,0,0,.91-.22,1.76,1.76,0,0,1,2.12-.09c.06,1.55.26,3.2-2.08,3.18a2.2,2.2,0,0,0-1.21-2.15A3.1,3.1,0,0,0,88.15,171.12Z"/><path class="cls-220" d="M57,146.94c.13-2,1.44-3.07,3-4a4.32,4.32,0,0,1,5.58.22c5.49,4.54,12.37,4.6,18.75,6.12,6,1.43,6.78,2.35,5.2,8.53-3.72,2.89-7.76,1-11.38.17a55.12,55.12,0,0,1-19.75-8.73C57.64,148.72,56.78,148.16,57,146.94Z"/><path class="cls-221" d="M89.07,158c.5-4.39.28-7.51-5.86-7.37-4.46.09-8.83-2.54-13.51-2.7-2.43-.09-2.47-3.07-4.39-3.68-1.72-.55-3.51-.85-5.27-1.26.37-1,.73-2,1.1-3a4,4,0,0,1,2.35-2.75c4.46-1.1,7.22,2.83,11.05,3.84s7.67,2.16,11.68,2.25c2.36,0,4.38.29,4.79,3.16.13,6,.06,11.91,0,17.86,0,1.6.38,3.35-1,4.65-1.68-1.8-.61-4-.93-6A3.64,3.64,0,0,1,89.07,158Z"/><path class="cls-222" d="M89.07,158v5c-11.61.31-21.87-3.54-31.26-10.12-1.38-1-2.68-1.95-2.72-3.85L57,146.94C66.84,153.18,77.11,158,89.07,158Z"/><path class="cls-223" d="M49.07,153a2.13,2.13,0,0,1-1-2c-1.35-2.65,1.38-3.58,2.22-5.31,2.22-2.25,3.14-5.42,5.36-7.67a1.77,1.77,0,0,1,1.24-.3c.32,2.15,1.9.4,2.76.89l.49.42Z"/><path class="cls-224" d="M63.09,138c-.65.68-1.3,1.35-2,2l-1-1-.26-.09a2.36,2.36,0,0,1-.36-1.24c.62-2.44,3-3.71,4-5.87,1.09-1.35,1.84-3,3.29-4a2.28,2.28,0,0,1,1.32-.13,2.49,2.49,0,0,1,1.35,1.46,5.28,5.28,0,0,1-.87,3.23C67.13,134.58,65.64,136.79,63.09,138Z"/><path class="cls-225" d="M51.08,146c-1,1.67-2,3.33-3,5h-1c-3.6-3.88-7.35-7.63-10.77-11.65C31,133.07,27.78,125.66,25.08,118a4,4,0,0,1,4.78-1.65c2.56,1.43,3.11,4.25,4.18,6.55a58.35,58.35,0,0,0,15,19.51C50.06,143.34,51.6,144.07,51.08,146Z"/><path class="cls-226" d="M95.09,164q0,3.47,0,6.92a2.5,2.5,0,0,1-1-2.15q-.5-14.38-1-28.78a6.5,6.5,0,0,1-1.49-6.29c.71-4.26-.74-8.7,1.09-12.86.91-.78,1.79-1.74,3-.38,1.81,5.07.68,10.3.89,15.46.11,3.35.11,6.7,0,10.05,0,4.26.17,8.52-.06,12.77A8.52,8.52,0,0,1,95.09,164Z"/><path class="cls-227" d="M92.08,135c.33,1.65.66,3.31,1,5-2.06,3.53-.47,7.39-1,11.06-1.07,4.85-.18,9.76-.5,14.64-.12,1.77.47,3.61-.48,5.3l-2-.06c.32-.63.63-1.26.94-1.9q0-12,0-24a10.63,10.63,0,0,1-1.46-9.12c0-4.4-.16-8.81.08-13.2.09-1.78-.36-4.1,2.37-4.64,0,.67,0,1.34.07,2C93.19,124.9,91.53,130,92.08,135Z"/><path class="cls-35" d="M91.07,171c.56-6.64-1.17-13.39,1-19.94v25.7c-1.34-.06-1.4-2.22-2.93-1.71,0-.34,0-.68,0-1Z"/><path class="cls-62" d="M97.12,171.87l6.91,0c0,.34,0,.67,0,1l0,0-6.08.11L96.11,172Z"/><path class="cls-228" d="M104.05,172.92c1.24.11,2.71-.36,3.45,1.64-1.78.6-3.1.68-3.48-1.62Z"/><path class="cls-62" d="M104,171.93c1.82-1.55,4-.65,6-.94C108.28,172.77,106.05,171.67,104,171.93Z"/><path class="cls-62" d="M114,169.92c1.12-1.26,2.65-.92,4.07-1a2,2,0,0,1-1,2.13l-1.84-.94Z"/><path class="cls-229" d="M24.06,74c1.11,0,2.29-.19,3,.94,0,.24,0,.48-.05.72A46.38,46.38,0,0,0,24.73,84a168.59,168.59,0,0,0,.21,27.52,5,5,0,0,1-.86,1.42,8.29,8.29,0,0,1-5,1.07c-1.34-8.41-1-16.88-1-25.34,0-1.6-.55-3.38,1-4.68,1.41,2.06-.06,4.35.38,5.85C20.59,84.86,19.21,78.59,24.06,74Z"/><path class="cls-230" d="M15.12,110A53.51,53.51,0,0,1,13.4,89c.37-2.63.47-5.26.79-7.88,1.21,1,.9,2.41.89,3.69-.06,8.24-.16,16.46,1.86,24.55C17.68,112.3,16.08,110.68,15.12,110Z"/><path class="cls-231" d="M24.06,74c-2.63,5.3-3,11.18-5,16.85V84c.79-3.73,1.08-7.59,3-11A2.16,2.16,0,0,0,24.06,74Z"/><path class="cls-231" d="M24.08,112.94c0-.32,0-.64,0-1,2.33-2.37,2.86-5.08,2.75-8.46C26.6,95.33,25.6,87,28.65,79.05c.5-1.28.25-3.13,2.43-3.07a5.79,5.79,0,0,1,4,2c1.66,1.9,1.11,4,.67,6.16A46.45,46.45,0,0,0,34.5,96.42a8.82,8.82,0,0,0,1.58,5.12c3.8,5,3.77,5-1.29,8.71C32.3,112.59,29,112.4,26,112.9Z"/><path class="cls-216" d="M30.08,117l-5,1-3-1.09,7-3a.79.79,0,0,1,1-.21,3.55,3.55,0,0,1,.45,2.21A1.54,1.54,0,0,1,30.08,117Z"/><path class="cls-232" d="M30.09,114l-1,0c-.74-1.21-2-.94-3.09-1.07l8.11-3,.55.41a2.47,2.47,0,0,1,.57,2.57A4.54,4.54,0,0,1,30.09,114Z"/><path class="cls-216" d="M14.09,119c-4,2.1-2.68-1.28-3.05-2.92,1,0,2.91-.92,1.56,1.62C12.09,118.67,13.34,118.84,14.09,119Z"/><path class="cls-205" d="M91,118c-2.11,6.23-.41,12.65-1,19a112.19,112.19,0,0,1-22-5l1-3c.72-4,4.13-6.43,6.06-9.73,2.39-2,2.76-6.27,7-6.23C84.64,115.46,89.35,114,91,118Z"/><path class="cls-233" d="M95.1,136Q95,128,95,120a3.38,3.38,0,0,1,.2-5,6.36,6.36,0,0,0,2.41-.13c3.78-1.92,6.93-1.35,9.47,2.11,1.88,4.82,6.45,8,8,13C110.64,135.36,100.67,138.36,95.1,136Z"/><path class="cls-234" d="M73.11,115l0,2c-.12.19-.25.37-.38.55a5.4,5.4,0,0,1-1.31.67c-.84.36-1.37-.54-2.12-.45.48.66,1.2,1.15,1.36,2a4.14,4.14,0,0,1-.78,2.55c-1.13,1.94-2.7,3.57-3.94,5.45-1,1.22-1.86,2.82-3.93,2.16-7.58-3.78-10.12-11.5-14.16-18.06a1.65,1.65,0,0,1,.42-1.29c1.56-1,3.41-1.56,4.93-2.7,3.16-.89,5.85-3.66,9.55-2.44,1.26.41-.9,5.44,3.23,2.26,1.2-.92,2.78.73,3.49,2C70.45,111.65,71.94,113.2,73.11,115Z"/><path class="cls-235" d="M73.11,115c-2.88-.2-3.52-2.43-4.49-4.6s-1.94-2-2.79.09c-.38,1-.74.94-1.33.63-1.63-.83-3.3-1.73-2.36-4a5.18,5.18,0,0,1,.9-1.16c-.18-1.34.86-1.72,1.76-2.2,2.39-.58,4.7-2.22,7.28-.63a3,3,0,0,0,2,2.93c.84,1.93,4,3.09,2,6A6.44,6.44,0,0,1,73.11,115Z"/><path class="cls-236" d="M97.08,102c0,.32,0,.63,0,1-.9,1.66,1.44,1.7,1.47,2.9s-.67,1.57-1.47,2l-9,1c-1.8-1.07-3.52-2.21-3.76-4.57a3.12,3.12,0,0,1,1-2.27C89.2,100,93.14,99.77,97.08,102Z"/><path class="cls-237" d="M97.1,107.88l1-1.91a7.32,7.32,0,0,1,2-2c2,.21,2.78-.74,3.16-2.74.59-3.12,2.65-4.32,5.79-3.25-1.35,3.46-2.24,7.15-5,9.91C101.73,108.11,99.41,109.25,97.1,107.88Z"/><path class="cls-238" d="M85.05,105a10.25,10.25,0,0,1,3,3.89c-6,2.15-8.19-3.53-12-5.92-.68-1.06-.84-2.18.17-3.06s1.89-.27,2.65.37C80.89,101.94,83.6,102.65,85.05,105Z"/><path class="cls-239" d="M85.05,105a19,19,0,0,1-6.66-3.48c-2.6-2.31-2.2-.07-2.31,1.45-2.53-3.83.19-8.09-1-12,3.21-.11,3.08,3.39,5,4.65a5.12,5.12,0,0,1,.42,2.59c.47,2.59,3.46,2.87,4.5,4.93C85.06,103.74,85.05,104.37,85.05,105Z"/><path class="cls-240" d="M69.13,89l4,0c.54,3,2.2,6,0,9a2.92,2.92,0,0,1-3.42.22C67.17,95.27,66.92,92.19,69.13,89Z"/><path class="cls-241" d="M80,95.9c-3.58.28-2.3-4.27-4.91-5l-.88-1.87c1.31-1,.24-3.17,1.83-4.1A1.62,1.62,0,0,1,78,84.65a1.55,1.55,0,0,1,.46,1.22C78,87,77,88.17,78.59,89.19s3.71,0,5.49.59a2.13,2.13,0,0,1,.57,1.16,2.6,2.6,0,0,1-.37,1.24C82.6,93.11,81.58,94.81,80,95.9Z"/><path class="cls-242" d="M72.08,103.06,65,104.91c-.85-.92-2.43.21-3.14-1.12.28-1.82,1.91-2,3.18-2.6,2.32-.48,4.44-2.15,7-1.25C75.61,101,73.3,102,72.08,103.06Z"/><path class="cls-243" d="M82.1,113c-2.67,1.73-4.4,4.3-6.08,6.9-1.67,0-1.59-.82-1-1.94,1.42-2.15,2.83-4.31,4.28-6.44.65-.94,1.52-2,2.69-1.16C82.48,110.69,82.11,112.1,82.1,113Z"/><path class="cls-244" d="M75.07,118a2,2,0,0,0,1,1.94l-7,9.06c-.34-.35-.68-.71-1-1.07-.69-1.83.53-3,1.39-4.38,1.87-1.57,2-4.58,4.67-5.5C74.44,118,74.75,118,75.07,118Z"/><path class="cls-245" d="M72.05,99.94a20.68,20.68,0,0,1-6.89,2.17c-1.29.42-2.59.9-3.33-.85,1.91-3.2,4.86-3.75,8.23-3.23l3,0Z"/><path class="cls-246" d="M95.19,115c-.07,1.66-.13,3.31-.19,5l-2,1a1.58,1.58,0,0,1-.86-.5L92,120c0-1.44-.05-2.87,0-4.3,0-.93-.17-2.14,1-2.35C94.12,113.17,94.68,114.18,95.19,115Z"/><path class="cls-247" d="M92.08,135c-2.25-4.87-.48-10-1-15h1a47.28,47.28,0,0,1,0,15Z"/><path class="cls-248" d="M74.12,118c-1.33,2-1.73,4.65-4,6a2.28,2.28,0,0,1-1.08-2.13l1-2c.57-1.4,1.84-2.12,2.93-3h0Z"/><path class="cls-240" d="M76.09,112c.58-2.42-2-3.78-2-6C75.34,107.77,80.49,108.24,76.09,112Z"/><path class="cls-240" d="M73.1,89c.21-1.63-1.37-2-2.11-3,3.09-1.2,3.3.61,3.06,2.91C73.73,89,73.42,89,73.1,89Z"/><path class="cls-169" d="M157,144l-1,3c-1.29,1.79-1.44,5-5,4-1.33-1-2.66,0-4,0q3.46-4,6.94-8Z"/><path class="cls-177" d="M151.07,151c2.34-.49,3.09-3,5-4-.06,1.72.2,3.27,2,4-2.1,2.28-4.29,3.82-7.07.93Q151.06,151.45,151.07,151Z"/><path class="cls-249" d="M95.08,159l0-13a83.33,83.33,0,0,0,21-6.54c1.84-.9,3.85-2.12,6-.49.32,0,.63,0,.94.05.64,2.73,3.7,4.07,4,7-1.54,3.4-4.31,5.13-7.75,6.39-6.49,2.38-13.42,3.45-19.59,6.8A3.89,3.89,0,0,1,95.08,159Z"/><path class="cls-154" d="M95.08,159l27.16-9.09c2.11-.71,2.35-3.7,4.83-3.92l4.94,6a106.7,106.7,0,0,1-24.77,10.5c-4,1.11-8.32-.68-12.15,1.49C95.08,162.3,95.08,160.64,95.08,159Z"/><path class="cls-250" d="M122.11,138.94c-7.23,1.58-13.54,5.82-20.87,7.21-2.15.41-4.1,1.19-6.12-.18,0-3.33,0-6.66,0-10,7.47.67,13.68-2.84,20-6h1C117.92,133.07,121,135.35,122.11,138.94Z"/><path class="cls-73" d="M129.08,164a5.23,5.23,0,0,1-4.11,1.9A4.23,4.23,0,0,1,129.08,164Z"/><path class="cls-251" d="M108.07,67a2,2,0,0,0,0-.49c-.62-2.25,3.25-4.12,1.43-5.64-2.21-1.85-4.82-3.84-8.17-3.92A34.24,34.24,0,0,1,96.07,56c.05-1.64-.53-3.77.28-4.82,1.27-1.64-1.82-5,2-5.07,3.37,0,7,.1,9.34,3.24.43.57,0,1.24-.57,1.65,2.4,1.56,4.29,4.39,7.86,2.61.13,2.7-2.52,4-1.87,6.36C113.33,63.67,111.55,65.93,108.07,67Z"/><path class="cls-252" d="M108.07,67a25.15,25.15,0,0,0,5-7c1.58-.92,2.27-2.49,3-4.05a7,7,0,0,0,.93-.12c-.28,1.42-.57,2.84-.85,4.26-1.11,5-3.5,9.22-8.1,11.9-2.39,0-4.14,3.91-7,1.12l1.1-.12C105.75,72.57,106.46,69.33,108.07,67Z"/><path class="cls-253" d="M61.16,81l-2.11,0c-3.12-.37-6.12-1-8.23-3.65,3.12-6.89,7.16-13,13.93-16.92a3.69,3.69,0,0,1,1.44.15A42.67,42.67,0,0,1,77.07,76C71.58,84.06,71.58,84.06,61.16,81Z"/><path class="cls-254" d="M69.16,57.94,68.07,55c-1.69-2.08-1-3.36,1.16-4.69,4.79-2.92,10.06-4.3,16-5.56-4,.29-7.14,1.63-10.36,2.58-1.67.5-3.82,1.22-4.48-.43-.86-2.14,1.57-3.13,3.15-3.7A52.65,52.65,0,0,1,90.05,40c0,7.78-.31,15.59.15,23.34.3,5.08-.55,8.66-6.13,9.63-1.76.7-3.56,1.59-4.44-1.14.66-2.14,2.76-1.39,4.17-2,1.89-.83,3.84-1.71,3.85-4,0-2.69,1.3-5.69-1.19-8C85.71,57.1,77.75,60,76.8,61c-1.36,1.51.44,3.23-.4,4.76-2.93,1.15-3.61-1.37-4.74-3A14.48,14.48,0,0,1,69.16,57.94Z"/><path class="cls-255" d="M90.05,40c-3.59,2.42-7.9,2-11.87,3-2.7.64-5.43,1.15-7.5,3.91,5-.06,8.93-3.22,13.54-3.5,1.7-.1,4.1-1.41,4.46,1.11.29,2-2.19,1.24-3.52,1.5A52.57,52.57,0,0,0,69,51.77c-2,1.1-.64,2.17-.9,3.23-3-2.51-4.42-6.2-7-9-1.2-2.13.42-3.23,1.81-3.92,7-3.45,14-7,22-7.38,1.84-.09,3.68,0,5.16,1.32C90.05,37.32,90.05,38.66,90.05,40Z"/><path class="cls-256" d="M58,41.05c-1.5-1-2.89-2-3-4-.15-2.56,2-3.24,3.62-4.15,8.74-4.93,18.26-7.39,28.13-8.67a2.88,2.88,0,0,1,2.26.81c0,.33,0,.67,0,1l1,4a3.76,3.76,0,0,1-3.11,2.15A73.32,73.32,0,0,0,60.33,41,6.29,6.29,0,0,1,58,41.05Z"/><path class="cls-257" d="M78,84.94l-2,0c3.23-6,9-8.24,15-10l1,0c1.67.7,4.17-.76,5.07,1.95-.45.89-1.52,1.37-1.58,2.49-.38,1.88,2.38,2.81,1.46,4.83a2.66,2.66,0,0,1-2.37.32c-4.13-1.3-6.27-.14-7.92,4.34-.55,1.08-1,2.27-2.56,2.12L84,90a4.77,4.77,0,0,1-1.22-3.29C82.46,82.62,80.5,83.08,78,84.94Z"/><path class="cls-258" d="M58,41.05l1-1c1.32,1.24,2.54.3,3.58-.35,6.39-4,13.52-5.9,20.79-7.33,2.36-.47,5-1.18,6.59,1.67v2c-9.39-1.11-17.46,3.13-25.69,6.55C63,43.1,61.17,43.89,61.09,46,59.76,44.53,58.36,43.12,58,41.05Z"/><path class="cls-255" d="M90,34c-7.19-2.72-13.42,1.11-19.87,3-2.78.84-5.28,2.57-7.93,3.84-1.26.6-2.8,1.87-3.16-.88,7.68-3.58,15.26-7.34,23.83-8.56,2.35-.33,5,.13,7.13-1.44Z"/><path class="cls-259" d="M77.07,76l-11-15c-.69-1.19-.66-2,1-2l.85.16c5.18,4.53,8.9,10.21,12.51,16a1.6,1.6,0,0,1-.33,1.85C78.35,79.09,78.14,76.13,77.07,76Z"/><path class="cls-260" d="M80.13,76.92A93,93,0,0,0,70,62.42c-.84-1-1.86-1.89-2-3.31l1.21-1.17c3.49,1.69,3.36,6.45,6.89,8.1,1.75,1.31,3.34,2.75,4,5,.42,2.6,2.45,1.84,4.06,1.95C82.19,73.71,82.64,76.78,80.13,76.92Z"/><path class="cls-261" d="M119,62c7.59,0,8.86,6.65,12,11.4,2.52,3.83-2.79,3.32-2.95,5.62-4.07,2.3-8.82,2.69-13,4.54-1.86.82-2.71-.24-3.58-1.57-1.08-1.66-2.23-3.27-3.35-4.9C109.73,70.58,113.12,65.36,119,62Z"/><path class="cls-262" d="M119,62a80.39,80.39,0,0,0-11,15.09c-1,.26-2.17,1.58-3.08.5s.38-2,1-2.92,1.35-1.79,2-2.69l8.08-11.9c2.9-1.57,3.56-5,6-7a2,2,0,0,0,1,2C122.42,57.72,119.43,59.09,119,62Z"/><path class="cls-263" d="M109.06,90c-2.51,1.32-4.86,3.26-8,2.06-.94.21-1.4-.36-1.77-1.08a12.29,12.29,0,0,1-.43-6c1.63-1.09,2.68-.27,3.57,1.08.43.85,0,2.22,1.44,2.44,2-2.45,0-3.79-1.54-5-1.81-1.4-3.7-2.66-4.47-5,.11-.21.21-.42.31-.62l2.88.17h0C104.71,81.33,109.18,84.1,109.06,90Z"/><path class="cls-264" d="M101,78.05c-.51-.76-1.58-1.73-1.4-2.23.37-1,1.3-.33,1.89.18,1.13,1,1.4,1.81-.52,2Z"/><path class="cls-263" d="M94.09,79c.06-2.08,1.59-2,3-2l1,.92-.13.17A3.31,3.31,0,0,1,94.09,79Z"/><path class="cls-265" d="M114.07,34c.25.91.77,2.39-.94,1.79A40,40,0,0,0,98.45,34c-2.11.06-2.4-1.34-2.39-3h0a8.36,8.36,0,0,1,6,0C106.15,31.71,110.28,32.15,114.07,34Z"/><path class="cls-186" d="M102.08,31h-6A4.59,4.59,0,0,1,102.08,31Z"/><path class="cls-266" d="M34.1,109.9c0-1.84,1.71-1.71,2.7-2.43,1.25-.9,1.87-2.39.38-3.25-7.08-4.1-3.59-10.52-3.56-16.06,0-3.4,1.7-6.69,1.47-10.22l13,4c-4.62,5.88-4.84,11.23-.71,17.86A8.23,8.23,0,0,1,48.68,105c-1.48,3.06-4.93,2.4-7.25,3.86-2.4.64-4.6,2.61-7.34,1.19Z"/><path class="cls-267" d="M48.1,105c-1.17-5-7.21-8.52-4.91-14.51,1.16-3-1.28-8.32,4.89-8.5,3,0,5.5,1.67,8.1,2.94-3.56,6.26-.67,11.77,2,17.32C55.06,104.1,52.18,106.76,48.1,105Z"/><path class="cls-268" d="M58.07,102c-6.1-4.73-6.74-12.69-1.89-17a34.75,34.75,0,0,1,12.94,4c.13,3-.65,6.16.94,9l-8,3C61,102.12,59.68,102.73,58.07,102Z"/><path class="cls-269" d="M31.08,76c-4.31,9.51-3.61,19.68-2.57,29.5.51,4.78-1.06,5.61-4.42,6.5-2.05-8.71-1-17.55-1-26.34a3,3,0,0,1,1-2.65A2.14,2.14,0,0,1,25,84.62c.35-.33.15-.81.32-1.17,1.29-2.67,1.21-5.63,1.8-8.45l0,0C28.47,75.14,30,74.56,31.08,76Z"/><path class="cls-270" d="M32.09,73.94l-3-3a3.32,3.32,0,0,1,3.21-.88,9,9,0,0,1,1.34.31,28.22,28.22,0,0,1,5.13,1.75c2.59.92,5.37,1.11,7.94,2.08a2.93,2.93,0,0,1,1.66,2c-.72.83.1,1.82-.28,2.69Z"/><path class="cls-271" d="M48.1,78.94c-.11-.66-1.12-1.31,0-2a2.07,2.07,0,0,1,3,0c2.61,1.4,5.73,1.78,8,3.94C54.87,83.17,51.73,79.75,48.1,78.94Z"/><path class="cls-272" d="M89.07,25c-12.08,1.88-24,4.19-34,12a3.44,3.44,0,0,1-2-2C62.89,27.48,74.21,24.22,86.27,23,87.72,22.89,88.92,23.23,89.07,25Z"/><path class="cls-273" d="M67.1,59a2.13,2.13,0,0,0-1,2h-1a18.9,18.9,0,0,1-3.47-3.62c-.6-.87-1.16-1.77-1.79-2.61a12.48,12.48,0,0,1-.73-1.06c-.66-1.9-3.55-3-2.05-5.67a2.11,2.11,0,0,0,1-2Q62.61,52.46,67.1,59Z"/><path class="cls-255" d="M57.05,48c-.08,2.55,3.16,3.4,3,6C53.72,57.9,49.69,63.89,45.85,70c4-6,7.88-12.13,14.24-16.06a3.09,3.09,0,0,1,2,3c-4.8,5-9.72,9.85-12.8,16.19A3.26,3.26,0,0,1,47.07,75a22.26,22.26,0,0,1-9-2,3.31,3.31,0,0,1-.36-3.74c3.88-8,8.88-15.15,16-20.64A3.7,3.7,0,0,1,56.1,48C56.42,48,56.73,48,57.05,48Z"/><path class="cls-274" d="M29.08,70a5.84,5.84,0,0,1-5-2c5.11-9.42,10.18-18.9,18.3-26.18,2-1.83,4-4.85,7.59-2.8a8.19,8.19,0,0,1,.12,1c.56,1.6-.5,2.52-1.52,3.33C39.73,50.24,34,59.41,29.65,69.55Z"/><path class="cls-275" d="M50,39c-2.73-.14-4.67,1.33-6.53,3.1C36.88,48.35,32.09,55.87,27.7,63.69c-.91,1.63-1,4-3.62,4.3h-1C28.39,56.51,34.69,45.8,45.23,38.21A12,12,0,0,0,47.13,36,6,6,0,0,1,50,39Z"/><path class="cls-276" d="M33.08,71h-4c0-.33,0-.66,0-1l0,0A86.6,86.6,0,0,1,44.48,46.86c2.06-2.22,3.85-5.1,7.56-4.86a2.09,2.09,0,0,1,1.07,2c.52,1.48-.69,2.09-1.5,2.81A68.19,68.19,0,0,0,35.1,69,3.17,3.17,0,0,1,33.08,71Z"/><path class="cls-277" d="M52,42C43.94,47.22,39,55.18,34,63c-1.54,2.38-1.42,5.91-4.84,7,2.62-11,9.38-19.28,17.48-26.64,1.2-1.08,2.75-1.78,3.5-3.34A3.26,3.26,0,0,1,52,42Z"/><path class="cls-278" d="M33.08,71a64.27,64.27,0,0,1,20-27,2.07,2.07,0,0,1,1,2c.57,1.6-.53,2.51-1.52,3.36A59.47,59.47,0,0,0,38.09,68.66c-1.11,2.3-2.43,3.5-5,2.33Z"/><path class="cls-258" d="M33.09,71c1.34,0,2.92.11,3.5-1.35C40.31,60.17,47,52.87,54.1,46l2,2a62.29,62.29,0,0,0-16.46,19.9c-.85,1.6-1.76,3.18-1.55,5.1C36.65,71.74,34.38,72.58,33.09,71Z"/><path class="cls-279" d="M33.16,40.09c0-1.38-.07-2.76-.11-4.14,1.34-2.39,2.85-3.73,5.09-.87A21,21,0,0,1,33.16,40.09Z"/><path class="cls-280" d="M100.09,91l1,1.06c.51,1.56,2.26,1.77,3.61,3.4-5.43-.74-1.51,8-7.58,6.6-4,.26-8.17-1.07-12,1.09-2.63-1-5.59-1.5-6-5.08C83.2,98,81,92.87,84,91.89a5.82,5.82,0,0,1,.17-.83l1.9-2.13c2-3.62,5.41-3.7,8.92-3.58S99.05,88.48,100.09,91Z"/><path class="cls-281" d="M100.08,104a1.81,1.81,0,0,1-2,2c-.65-.89-2.14-1.52-1-3Z"/><path class="cls-282" d="M68,132c7.62.44,15,1.75,22,5-2,2.66.66,5.33,0,8-2.52-1.62-5.24.1-8.05-.62-5.31-1.37-10.47-2.68-15.1-5.76-1-.65-2.52-.43-3.8-.62C64.78,136,65.84,133.52,68,132Z"/><path class="cls-249" d="M30.08,117c0-.33,0-.66,0-1,3-1.55,5.84-3.8,9.57-3.48,3.83,8.71,8.68,16.73,15.74,23.28a1.87,1.87,0,0,1,.69,2.2c-1.21,2.95-2.42,5.9-5,8A65.16,65.16,0,0,1,30.08,117Z"/><path class="cls-250" d="M56.1,138c-6.5-5.53-11.27-12.39-15.26-19.84-.86-1.6-1.73-3.25-.75-5.14,2.09-2.91,4.76-3.54,8-2a70.39,70.39,0,0,1,6,9.52c1.35,2.53,2.25,6.3,6.66,6.21,1.54,0,1.26,2,1.37,3.31,0,.22-.07.44-.1.66-.49,1.23-1.27,2.32-1.67,3.58a10.64,10.64,0,0,1-.73,1.82A3.74,3.74,0,0,1,57.1,138Z"/><path class="cls-283" d="M57.1,138,59,135.87c.88.4.6,1.34.94,2l-.06,1C58.91,138.7,57.26,140.6,57.1,138Z"/><path class="cls-284" d="M62.11,130a7.47,7.47,0,0,0,3.06-3c1.21-.72,2-.7,2,1-.88,1.4-1.35,3.08-2.84,4.06-.95.61-1.93,1.92-2.8-.1a2.35,2.35,0,0,1,.62-2Z"/><path class="cls-285" d="M67.14,128.05a2,2,0,0,0-2-1c1.29-1.69,2.59-3.38,3.88-5.08.89.44,1,1.27,1.08,2.13l-2.07,3.83Z"/><path class="cls-286" d="M62,131.92c.67,1.11,1.51.11,2.27.18-.61,2.56-3,3.75-4.36,5.76-.32-.66-.63-1.32-.95-2,0-.62.07-1.24.11-1.86C60.36,133.71,60.33,131.6,62,131.92Z"/><path class="cls-227" d="M92.09,135q0-7.48,0-15l1,1C92.61,125.65,94,130.43,92.09,135Z"/><path class="cls-231" d="M27.08,75c1.34,4,1.34,4-2.07,13.72-1.5-1.92-.67-3.93-.92-5.73C24.24,80,24.26,77,27.08,75Z"/><path class="cls-287" d="M48.07,111a26.57,26.57,0,0,0-8,2c-3.59.12-6.2,3.54-10,3-1.13-.66-.11-1.33,0-2l5-2c2.19-2.57,5.64-2.29,8.35-3.69a5.34,5.34,0,0,1,1.44,0,7.71,7.71,0,0,1,3.26,1.4,1,1,0,0,1-.08,1.25Z"/><path class="cls-288" d="M44.07,109c-2.72,1.79-5.9,2.25-9,3a2,2,0,0,1-1-1.94l7-2.09C42.31,107.55,43.73,106.65,44.07,109Z"/><path class="cls-128" d="M48.16,110c-1.11-.08-2.31.15-3.07-1,2.48-4.15,7.34-3.17,10.92-5,1.75-.88,4-1.73,6-.11,1.06.11,2.25-.17,3,1l-2,1c-3.65,0-6.57,2.33-10,3.15C51.42,109.32,50.05,110.94,48.16,110Z"/><path class="cls-235" d="M73,117a6.15,6.15,0,0,1-2.93,3,7.46,7.46,0,0,1-2.7-5.38C69.55,115,70.3,118.72,73,117Z"/><path class="cls-250" d="M48.16,110l4.91-1a5.82,5.82,0,0,1-5,1.94A6,6,0,0,1,48.16,110Z"/><path class="cls-289" d="M95.33,104.17c-3,2.48-4.71,1.83-7,0Z"/><path class="cls-290" d="M84,91.89c-1.22,2.36-.21,6.51-4.88,6.14L80,95.9C80.42,93.65,81.25,91.82,84,91.89Z"/><path class="cls-291" d="M78,84.94c.36-1.65.94-3.47,2.89-3.26C83.21,81.93,83.77,84,84,86a3.87,3.87,0,0,1-1.91,1,7.37,7.37,0,0,1-2.2,0A2.79,2.79,0,0,1,78.06,86Z"/><path class="cls-292" d="M82,86.05l2,0c0,1.31,0,2.62,0,3.93-2,1-4,1.88-6.06.16l.39-.55C80,88.86,81.51,88,82,86.05Z"/><path class="cls-292" d="M78.06,86l2,.09c.4,1.8-1.42,2.48-1.92,3.82l-.21.25C75.29,88.66,75.19,87.28,78.06,86Z"/><path class="cls-293" d="M62,103.93c-5.76,1.33-11.64,2.28-16.95,5.09l-1,0c-.72-1.19-1.92-.94-3-1,1.91-2,5-1.17,7.05-3,3.62-.07,6.46-2.64,10-3a6.9,6.9,0,0,1,4-1c.71,1.2,2,.91,3,1.1C64.12,102.72,63.08,103.32,62,103.93Z"/><path class="cls-180" d="M107.07,51l-2.31.5c-.06-.3-.27-.76-.16-.87,1-.89,1.77-.56,2.47.37Z"/><path class="cls-294" d="M47.07,75c2.89-5.71,6.08-11.21,11-15.5,1.21-1.06,2.15-2.55,4-2.52,1.59.88,2.9,2,3,4C60,65,55.55,69.59,53,75.71A2.14,2.14,0,0,1,51.08,77l-3,0Z"/><path class="cls-295" d="M80,71c-1.79-1.28-3.63-2.53-4-5,.69-2.15-4.47-4.6-.28-6.14,4-1.48,7.64-5.12,12.5-3.43,1,.34,1.46,10.47.41,11.6C86.39,70.54,83.75,72.55,80,71Z"/><path class="cls-296" d="M94.09,79A5.73,5.73,0,0,1,98,78.05c2,1.87,3.66,4,6.34,5.17,2.49,1.06,1.44,4,2,6,.33,1.09-2.13.6-3.33.82-.4-1,0-2.23-1-3a3.08,3.08,0,0,0-3-2c-1.1.51-1.6-.11-2-1C95.62,82.6,93.52,81.62,94.09,79Z"/><path class="cls-297" d="M97.12,84l2,1c1.13,1.86,1,3.93,1,6-4-5.54-7.6-6.07-14-2-1.78-4.38,4.22-4.41,4.46-7.77,0-.26,1.87-.13,2.46.84A3.93,3.93,0,0,0,97.12,84Z"/><path class="cls-298" d="M102.09,87c2.78.2,2.85,1.29,1,3C101.42,89.42,101.28,88.35,102.09,87Z"/><path class="cls-294" d="M60.09,54c-5.42,6.12-11,12.09-14.58,19.58-1.92-.48-1.56-1.88-1.18-2.81,2.92-7.08,8.37-12.15,13.92-17.11.29-.25,1.21.22,1.84.35Z"/><path class="cls-299" d="M92.46,91c7.14,0,7.9,1.15,6.31,6.91-.49,1.79-1.06,2.1-2.5,2.09a35.64,35.64,0,0,1-5.94-.08c-1.78-.32-6.7,2.26-3-4C89,93,88.76,90.15,92.46,91Z"/><path class="cls-234" d="M62,131.92c-1,.67-1.41,2.15-2.93,2.09.8-1.49,1.16-3.32,3-4Z"/><path class="cls-300" d="M78.18,89.86c-1.81-2.51,1.3-2.53,1.92-3.82H82C84,90.57,80.75,89.89,78.18,89.86Z"/></g></g></svg>