<svg xmlns="http://www.w3.org/2000/svg" viewBox="0 0 185.09 186.99"><defs><style>.cls-1{fill:#fdfdfd;}.cls-2{fill:#5d4627;}.cls-3{fill:#584225;}.cls-4{fill:#5a4325;}.cls-5{fill:#694a2b;}.cls-6{fill:#5b4424;}.cls-7{fill:#624927;}.cls-8{fill:#5d4523;}.cls-9{fill:#5d472a;}.cls-10{fill:#715630;}.cls-11{fill:#674e28;}.cls-12{fill:#553e21;}.cls-13{fill:#5d4220;}.cls-14{fill:#634d31;}.cls-15{fill:#745c2f;}.cls-16{fill:#735931;}.cls-17{fill:#352c23;}.cls-18{fill:#7b5833;}.cls-19{fill:#fefefe;}.cls-20{fill:#a19356;}.cls-21{fill:#c6ae74;}.cls-22{fill:#c6a870;}.cls-23{fill:#cfba82;}.cls-24{fill:#d4c188;}.cls-25{fill:#9f804c;}.cls-26{fill:#daca90;}.cls-27{fill:#b3a265;}.cls-28{fill:#382d23;}.cls-29{fill:#8b6a3d;}.cls-30{fill:#987745;}.cls-31{fill:#b8975f;}.cls-32{fill:#9c7846;}.cls-33{fill:#85643a;}.cls-34{fill:#967a46;}.cls-35{fill:#c8ba7c;}.cls-36{fill:#bfb376;}.cls-37{fill:#b08f58;}.cls-38{fill:#936f40;}.cls-39{fill:#a07f4b;}.cls-40{fill:#977543;}.cls-41{fill:#785832;}.cls-42{fill:#8d703e;}.cls-43{fill:#835f37;}.cls-44{fill:#d3be89;}.cls-45{fill:#cbb67d;}.cls-46{fill:#b9a068;}.cls-47{fill:#dbcc94;}.cls-48{fill:#bbac6e;}.cls-49{fill:#a99d60;}.cls-50{fill:#524022;}.cls-51{fill:#a79c5e;}.cls-52{fill:#7f5e36;}.cls-53{fill:#312c27;}.cls-54{fill:#7b6d32;}.cls-55{fill:#433527;}.cls-56{fill:#332920;}.cls-57{fill:#b4a96b;}.cls-58{fill:#644b28;}.cls-59{fill:#796130;}.cls-60{fill:#7d6137;}.cls-61{fill:#714f2e;}.cls-62{fill:#a89a5c;}.cls-63{fill:#362c21;}.cls-64{fill:#8c693c;}.cls-65{fill:#a07c49;}.cls-66{fill:#4e401c;}.cls-67{fill:#c4af76;}.cls-68{fill:#946f3f;}.cls-69{fill:#352c24;}.cls-70{fill:#695d26;}.cls-71{fill:#906f3f;}.cls-72{fill:#815e36;}.cls-73{fill:#614d28;}.cls-74{fill:#7a5531;}.cls-75{fill:#362d24;}.cls-76{fill:#a17e49;}.cls-77{fill:#d0c186;}.cls-78{fill:#927545;}.cls-79{fill:#4e3b24;}.cls-80{fill:#43331e;}.cls-81{fill:#c7b67b;}.cls-82{fill:#4c3a24;}.cls-83{fill:#785c30;}.cls-84{fill:#b79962;}.cls-85{fill:#d7c38d;}.cls-86{fill:#453525;}.cls-87{fill:#d4c48d;}.cls-88{fill:#483a2a;}.cls-89{fill:#4f3e25;}.cls-90{fill:#706329;}.cls-91{fill:#8b693d;}.cls-92{fill:#d6c58c;}.cls-93{fill:#9b7e48;}.cls-94{fill:#937441;}.cls-95{fill:#8a693d;}.cls-96{fill:#594729;}.cls-97{fill:#b2a466;}.cls-98{fill:#b5a96d;}.cls-99{fill:#e0d199;}.cls-100{fill:#766638;}.cls-101{fill:#4a3f33;}.cls-102{fill:#7d5a34;}.cls-103{fill:#564837;}.cls-104{fill:#b1a263;}.cls-105{fill:#2f2a27;}.cls-106{fill:#724f2e;}.cls-107{fill:#977342;}.cls-108{fill:#846139;}.cls-109{fill:#4f3e24;}.cls-110{fill:#c4b67a;}.cls-111{fill:#64552a;}.cls-112{fill:#443a2f;}.cls-113{fill:#89713f;}.cls-114{fill:#8d6b3e;}.cls-115{fill:#957242;}.cls-116{fill:#332e28;}.cls-117{fill:#392b19;}.cls-118{fill:#635128;}.cls-119{fill:#5a4b22;}.cls-120{fill:#b79860;}.cls-121{fill:#918448;}.cls-122{fill:#473823;}.cls-123{fill:#7e5c36;}.cls-124{fill:#503f27;}.cls-125{fill:#382d16;}.cls-126{fill:#69492a;}.cls-127{fill:#393630;}.cls-128{fill:#9f804d;}.cls-129{fill:#94794a;}.cls-130{fill:#6b5333;}.cls-131{fill:#ded292;}.cls-132{fill:#4b3b1f;}.cls-133{fill:#c8b97b;}.cls-134{fill:#906c3f;}.cls-135{fill:#6a492a;}.cls-136{fill:#bca169;}.cls-137{fill:#937243;}.cls-138{fill:#786733;}.cls-139{fill:#88653b;}.cls-140{fill:#5a4226;}.cls-141{fill:#887740;}.cls-142{fill:#332814;}.cls-143{fill:#8d8244;}.cls-144{fill:#795732;}.cls-145{fill:#bcb170;}.cls-146{fill:#463723;}.cls-147{fill:#af8d55;}.cls-148{fill:#afa266;}.cls-149{fill:#3d362c;}.cls-150{fill:#d3bc85;}.cls-151{fill:#865f37;}.cls-152{fill:#69522d;}.cls-153{fill:#4d3d22;}.cls-154{fill:#392c16;}.cls-155{fill:#dacc91;}.cls-156{fill:#9e9055;}.cls-157{fill:#b3a369;}.cls-158{fill:#61492b;}.cls-159{fill:#9a7745;}.cls-160{fill:#9b7b49;}.cls-161{fill:#7d6238;}.cls-162{fill:#bfa66e;}.cls-163{fill:#9d7c48;}.cls-164{fill:#8c6c3f;}.cls-165{fill:#bda066;}.cls-166{fill:#cdb37a;}.cls-167{fill:#3b2d1b;}.cls-168{fill:#634f28;}.cls-169{fill:#a4864f;}.cls-170{fill:#745835;}.cls-171{fill:#cfcab8;}.cls-172{fill:#9f9a8b;}.cls-173{fill:#c6c0ae;}.cls-174{fill:#bdb8a7;}.cls-175{fill:#ada899;}.cls-176{fill:#ded9c4;}.cls-177{fill:#8a6e48;}.cls-178{fill:#b4b0a5;}.cls-179{fill:#87673b;}.cls-180{fill:#ada99d;}.cls-181{fill:#969183;}.cls-182{fill:#d8d2bf;}.cls-183{fill:#3c352d;}.cls-184{fill:#42403a;}.cls-185{fill:#755a37;}.cls-186{fill:#3e3b35;}.cls-187{fill:#3a332c;}.cls-188{fill:#3c2e1c;}.cls-189{fill:#8e8878;}.cls-190{fill:#81673e;}.cls-191{fill:#443521;}.cls-192{fill:#979181;}.cls-193{fill:#9b9687;}.cls-194{fill:#5c462a;}.cls-195{fill:#342e29;}.cls-196{fill:#3e3c36;}.cls-197{fill:#4b4942;}.cls-198{fill:#44423c;}.cls-199{fill:#574329;}.cls-200{fill:#695030;}.cls-201{fill:#42403b;}.cls-202{fill:#43413b;}.cls-203{fill:#3c3a34;}.cls-204{fill:#3f3d37;}.cls-205{fill:#322616;}.cls-206{fill:#423421;}.cls-207{fill:#795c37;}.cls-208{fill:#332616;}.cls-209{fill:#332d26;}.cls-210{fill:#a4824d;}.cls-211{fill:#4f4c45;}.cls-212{fill:#55534b;}.cls-213{fill:#43413c;}.cls-214{fill:#484640;}.cls-215{fill:#5b584f;}.cls-216{fill:#342818;}.cls-217{fill:#3f3c36;}.cls-218{fill:#c0a066;}.cls-219{fill:#81653b;}.cls-220{fill:#b4935a;}.cls-221{fill:#3d2f1d;}.cls-222{fill:#575145;}.cls-223{fill:#5c594f;}.cls-224{fill:#7a5d38;}.cls-225{fill:#4c4942;}.cls-226{fill:#45433d;}.cls-227{fill:#403e37;}.cls-228{fill:#3e3b33;}.cls-229{fill:#302c27;}.cls-230{fill:#80643c;}.cls-231{fill:#bea067;}.cls-232{fill:#805d36;}.cls-233{fill:#c6b97c;}.cls-234{fill:#524f47;}.cls-235{fill:#58554d;}.cls-236{fill:#5e5a51;}.cls-237{fill:#5c472c;}.cls-238{fill:#46443f;}.cls-239{fill:#6c5232;}.cls-240{fill:#523f27;}.cls-241{fill:#705838;}.cls-242{fill:#624f36;}.cls-243{fill:#7a5c36;}.cls-244{fill:#9b7745;}.cls-245{fill:#5a574f;}.cls-246{fill:#e5dec8;}.cls-247{fill:#3a2d1c;}.cls-248{fill:#513f27;}.cls-249{fill:#503f28;}.cls-250{fill:#8f744e;}.cls-251{fill:#856339;}.cls-252{fill:#40321f;}.cls-253{fill:#b49358;}.cls-254{fill:#9d7946;}.cls-255{fill:#e0dac5;}.cls-256{fill:#664d2c;}.cls-257{fill:#795f3d;}.cls-258{fill:#b5b09f;}.cls-259{fill:#e9e2cb;}.cls-260{fill:#5e5a52;}.cls-261{fill:#4a4842;}.cls-262{fill:#56544c;}.cls-263{fill:#524f48;}.cls-264{fill:#4b473f;}.cls-265{fill:#624e34;}.cls-266{fill:#3c3933;}.cls-267{fill:#545149;}.cls-268{fill:#423f3a;}.cls-269{fill:#47453f;}.cls-270{fill:#494743;}.cls-271{fill:#4d4b46;}.cls-272{fill:#695031;}.cls-273{fill:#735c3c;}.cls-274{fill:#a8a395;}.cls-275{fill:#bfbaaa;}.cls-276{fill:#c8c3b1;}.cls-277{fill:#867153;}.cls-278{fill:#56534b;}.cls-279{fill:#3e301d;}.cls-280{fill:#957748;}.cls-281{fill:#b19657;}.cls-282{fill:#997c4a;}.cls-283{fill:#87673c;}.cls-284{fill:#86693f;}.cls-285{fill:#525048;}.cls-286{fill:#3d2f1c;}.cls-287{fill:#4b3923;}.cls-288{fill:#4f4c46;}.cls-289{fill:#43423c;}.cls-290{fill:#494740;}.cls-291{fill:#705532;}.cls-292{fill:#80623a;}.cls-293{fill:#705634;}.cls-294{fill:#5c4c37;}.cls-295{fill:#4a3a24;}.cls-296{fill:#5c5950;}.cls-297{fill:#897e69;}.cls-298{fill:#a17d49;}.cls-299{fill:#544027;}.cls-300{fill:#785c38;}.cls-301{fill:#977645;}.cls-302{fill:#59564f;}.cls-303{fill:#5d5b53;}.cls-304{fill:#554126;}.cls-305{fill:#c9b378;}.cls-306{fill:#d9d0b3;}.cls-307{fill:#674d2d;}.cls-308{fill:#ccb267;}.cls-309{fill:#54524b;}.cls-310{fill:#dad4bf;}.cls-311{fill:#56544b;}.cls-312{fill:#594429;}.cls-313{fill:#d1ccba;}.cls-314{fill:#aa9265;}.cls-315{fill:#c7b17a;}.cls-316{fill:#8b6c41;}.cls-317{fill:#b4afa0;}.cls-318{fill:#57554d;}.cls-319{fill:#3b2e1b;}.cls-320{fill:#2a1f10;}</style></defs><g id="Layer_2" data-name="Layer 2"><g id="Layer_3_Image" data-name="Layer 3 Image"><path class="cls-1" d="M103.1,0l2,1.91c-2.84,2.51-6.31,1-9.47,1.49-2.25.17-4.51.61-6.79.22a26,26,0,0,0-5.22-.34C82.3,3.18,81,3.1,80.11,1.87V0Z"/><path class="cls-2" d="M65.24,5.3a1.17,1.17,0,0,0,.87-.38c1.13-.42,1.8.21,2.39,1a3.07,3.07,0,0,1,.14,1.41,6.42,6.42,0,0,1-2.78,3.17c-1.9,1-4.14.36-6,1.3-.82.4-1.63.8-2.46,1.17a132.09,132.09,0,0,0-11.84,6.52c-1.48.9-3.17,1.33-4.7,2.13a8.67,8.67,0,0,0-3.22,2.7c-.79,1-1.67,1.88-2.53,2.81a11.18,11.18,0,0,1-.9.92c-2.14,2.14-4.91,3.57-6.72,6.07a32.84,32.84,0,0,0-3.78,3.49c-1.39,1.41-1.76,3.45-3.05,4.93-3.32,3.38-4.85,8-8.1,11.47a2.11,2.11,0,0,1-1.34.3,2.42,2.42,0,0,1-1.43-1.47C10,51,10.19,49.13,12,48a.78.78,0,0,0,.24-.76c1.3-2.06,2-4.45,3.78-6.23l1.08-1.12a5.22,5.22,0,0,1,2.12-2.79h0c1.71-2.57,2.89-5.61,6-7h0a4.39,4.39,0,0,1,3-3h0A7.28,7.28,0,0,1,32.87,23l2.25-2.12a41,41,0,0,1,14.09-8.79l1.92-1.23c1.66-1,3.33-1.93,5-2.78l0,0C58,7,60.25,6.88,62.27,6.19v0C63,5.05,64.1,5.11,65.24,5.3Z"/><path class="cls-3" d="M170,44.21a2.91,2.91,0,0,0,2,2.86c1.5,1.26,1.9,3,2.17,4.82l.08.1c2.93,2.7,3.52,6.52,4.77,10,.07,1.32.08,2.62-1.45,3.22a3,3,0,0,1-2.27-1.81,63.55,63.55,0,0,0-5.09-11.55c-3.33-4.56-5-10.26-9.61-13.93a22.51,22.51,0,0,1-3.43-4.3c-2.41-3.76-6.47-5.7-9.54-8.72a22.59,22.59,0,0,0-4.94-4.2c-1.26-.89-2.69-1.47-4-2.25a49.71,49.71,0,0,0-11.46-5.72c-.87-.34-1.71-.73-2.55-1.13A38,38,0,0,0,114.55,8.3c-2.2-.5-4.49-.69-6.41-2.05-.06-3.21,2.79-1,3.86-2.07L113.19,4c1.22.67,2.74,0,3.93.85l1.88.38c1.15-.11,2.26-.14,3,1,.39.89,1.2,1,2,1,5.5.47,9.91,3.27,14.1,6.56l.94.32a3.38,3.38,0,0,1,3,2h0a10.11,10.11,0,0,1,6,4.1A3.35,3.35,0,0,0,150.1,22a10.23,10.23,0,0,1,5.92,5v0a5.18,5.18,0,0,1,3,3l0,0c3.74,2.45,6,6.06,8.05,9.91l.87,1.07A4.46,4.46,0,0,1,170,44.21Z"/><path class="cls-4" d="M20.2,151.82,19,150a9.56,9.56,0,0,1-2.76-4.37A.45.45,0,0,0,16,145c-1.54-.62-2.06-2.05-2.73-3.37L12,139c-3.16-2.78-4.3-6.59-5.34-10.46a3.42,3.42,0,0,1,1-2.52A1.74,1.74,0,0,1,9,125.68a5,5,0,0,1,1.73,2c.23.38.42.77.62,1.17,1.19,2.58,2.54,5.09,3.81,7.64,1,2.24,2.55,4.16,3.72,6.3a111.16,111.16,0,0,0,18.42,19.85c.71.5,1.41,1,2.12,1.53s1.43.91,2.15,1.36c1.38,1,2.84,1.9,4.21,2.93,2.57,2.12,5.63,3.36,8.61,4.72,2.29,1.06,4.88,1.53,6.69,3.51a1.84,1.84,0,0,1,.19,1.38,3.94,3.94,0,0,1-2.44,1.46c-3-.31-5.24-2.17-7.66-3.65l0,0c-1.26-.77-3.06-.51-3.92-2h0a37.72,37.72,0,0,1-12.09-7.75c-.74-.7-1.48-1.4-2.21-2.11-3.71-1.45-6-4.64-8.42-7.45C23.1,155,21.4,153.6,20.2,151.82Z"/><path class="cls-5" d="M177.27,65c1-.85.73-2.09.93-3.18,2.36.27.83,2.51,1.76,3.49.4,1.24-.48,2.8.95,3.78a.9.9,0,0,1,.52,1c-1,2,.22,4.33-.73,6.38a1.6,1.6,0,0,1-.95.77c-.11,0-.37,0-.41-.12-.24-.49-.64-.32-.43,0,2.37,3.41,2.53,7.28,2.41,11.2-.06,2-.37,4-2.72,4.66a8.8,8.8,0,0,1-2.1.36c-2.42.28-3.66-.91-3-3.18,1.39-4.65-.89-8.74-1.31-13.13-1.59.1-1.4,2-2.75,2-2.1-1.48-1.68-3.48-1.13-5.5,1.43-2.25,4.2-2.77,6.22-3.34,3-.84,2.15-2.37,2.08-4.09A1.61,1.61,0,0,1,177.27,65Z"/><path class="cls-6" d="M171.93,139.88l-2,2.82a4.22,4.22,0,0,1-2.05,3.18c-.29.34-.57.69-.86,1-.47,1.06-.88,2.16-2.25,2.35a1.62,1.62,0,0,1-1.26-1.46c.07-1.91,1.16-3.46,1.88-5.14a94,94,0,0,0,4.71-8.29,23,23,0,0,0,4.7-13.71,12.84,12.84,0,0,1,2.33-4.08c.8-1,1.06-2.45,2.51-2.86,1.31.37,1.37,1.49,1.52,2.55l.06.63L177.08,129c-.46,1.38-.13,3.09-1.72,4-.47.73-.15,1.88-1.22,2.29A6.85,6.85,0,0,1,171.93,139.88Z"/><path class="cls-7" d="M123.14,180l-3,1.2c-2.09,2.64-5.36,1-7.84,2.14-1.42-.52-3.19.1-4.33-1.32.28-2.67,2.47-2.85,4.36-3.18,3.6-.64,7.14-1.49,10.64-2.48.62-.34,1.25-.68,1.87-1,2.32-1.37,5.15-1.4,7.43-2.85.53-.36,1.06-.71,1.61-1a25,25,0,0,0,3.77-2.14c1.18-.91,2.13-2.11,3.53-2.75a3.55,3.55,0,0,1,4.24,1.54c-1,3.12-3.73,3.81-6.39,4.64a18.07,18.07,0,0,0-6,3.09,12,12,0,0,1-6,2.94l0,0C126.05,180.33,124.34,179.33,123.14,180Z"/><path class="cls-8" d="M83.09,185.1c-2.5-1.07-5.49.62-7.82-1.41a.79.79,0,0,1,.16-1.19c1.51-.84,3.24-.8,4.85-1.27a6.93,6.93,0,0,1,2.18,0,19.74,19.74,0,0,0,8.62-.1c1.75-.35,3.42.19,5.13.41a19.5,19.5,0,0,0,4.32,0,10.79,10.79,0,0,1,3.67-.29,20.64,20.64,0,0,1,5,1.58c.27,2.13-1.65,1.41-2.58,2l-1.54.12A54.57,54.57,0,0,1,83.09,185.1Z"/><path class="cls-9" d="M1.19,108c.72-1.85-.58-3.51-.51-5.3.18-5.92-.6-11.86.43-17.76a2.15,2.15,0,0,1,1.56-.33,2,2,0,0,1,1.14,1.9c-.59,2.41-.1,4.79.24,7.18a8.23,8.23,0,0,1-.16,1.4,9.51,9.51,0,0,0,0,6c.53,2,.25,4.1.74,6.11a6.2,6.2,0,0,1,.19,2.06,6.45,6.45,0,0,1-.3,1.37c-.5,1-.51,2.41-2,2.62A6.49,6.49,0,0,1,1.19,108Z"/><path class="cls-1" d="M83.09,185.1l22-.15c-1.53,1.9-3.66,2.05-5.87,2q-7.24-.06-14.49,0C83.36,187,82.33,186.89,83.09,185.1Z"/><path class="cls-10" d="M11.17,54l.8-.07c1.68,1.5.75,3.17.33,4.81-1.11,2.58-2.89,4.76-4.36,7.13a5.34,5.34,0,0,1-1.48,1.44,2.53,2.53,0,0,1-2,.15L3.92,67C5,64,5,60.62,7.13,58c.68-1-.41-3,1.79-3.23C10.78,58,10,53.06,11.17,54Z"/><path class="cls-11" d="M94.24,2.13l10.86-.22,5,2.09c-1.47.7-3.08,1-4.56,1.69a17.85,17.85,0,0,1-3.39.75,4.3,4.3,0,0,1-2-.58C98.7,5,97,5.38,95.4,4.9,94.25,4.3,92.92,3.77,94.24,2.13Z"/><path class="cls-1" d="M183.28,81a3.55,3.55,0,0,1,1.81,3.3q0,9.19,0,18.39a3.56,3.56,0,0,1-1.81,3.3c-1.39-1-1.31-2.52-1.13-4,1.18-5.68.51-11.33-.36-17C181.84,83.49,181.86,82,183.28,81Z"/><path class="cls-12" d="M59.12,178.81l2.09-.92c1.45-1.27,3-.57,4.52-.22,3.33,1.81,7.65.86,10.58,3.77-.8,1.64-2.51,1.25-3.83,1.73a1.28,1.28,0,0,1-1.36-.21h0c-1.92-.82-4.12.4-6-.82L63,181C61.88,180,59.86,180.55,59.12,178.81Z"/><path class="cls-13" d="M84.12,2.14c1.76,0,3.71-1.1,5.21.76a2.82,2.82,0,0,1-1.54,1.83,37.65,37.65,0,0,1-8,1.61c-2.79-.18-5.68.57-8.35-.87A1.15,1.15,0,0,1,71.09,4c1.75.1,3.47.11,5-1C78.66,1.77,81.52,3.21,84.12,2.14Z"/><path class="cls-1" d="M20.2,151.82c5.08,3.19,8.3,8.3,12.71,12.18-.62.13-1.56.57-1.8.33C27.21,160.39,22.6,157.06,20.2,151.82Z"/><path class="cls-14" d="M2.15,85c-2.14,3.82-.54,8-1,11.93-.24,1.92.5,3.91-.44,5.77C-.67,94.74.25,86.86,1.15,79c-.08-1.5.55-1.37,1.45-.63A5.81,5.81,0,0,1,2.15,85Z"/><path class="cls-1" d="M7.3,127.92Q9.67,133.44,12,139c-5.55-1.22-4.66-6.25-5.91-10A2.41,2.41,0,0,1,6,126C7.78,125.67,7.65,126.72,7.3,127.92Z"/><path class="cls-1" d="M49.21,12.05,35.12,20.84C38.58,15.92,43.15,12.8,49.21,12.05Z"/><path class="cls-15" d="M4.21,124.77,4,120a3.81,3.81,0,0,1-.71-2.73c.12-2.33.22-4.66.56-7L4.1,110c4.13,2,2.62,6.19,3.82,9.34a6.12,6.12,0,0,1-.06,1.54c-.52,1.67-.44,3.66-2.41,4.56A1.2,1.2,0,0,1,4.21,124.77Z"/><path class="cls-1" d="M138.1,13.8,124,7.24C128,6.25,135.75,9.85,138.1,13.8Z"/><path class="cls-1" d="M35.12,166.11c4.44,1.94,8.11,5.09,12.09,7.75A15.22,15.22,0,0,1,35.12,166.11Z"/><path class="cls-1" d="M180,65.29,178.2,61.8q-2-4.9-4-9.81C179.67,54.88,179.23,60.34,180,65.29Z"/><path class="cls-1" d="M167.06,40,159,30.1C162.6,31,166.93,36.28,167.06,40Z"/><path class="cls-1" d="M106.64,184.83l2.67-1.79a2.18,2.18,0,0,1,2.67-.21l8.12-1.67a2.54,2.54,0,0,1-2.69,2.44C113.68,183.19,110.29,185.05,106.64,184.83Z"/><path class="cls-1" d="M59.12,178.81,63,181c-4.75.2-8.85-1.13-11.85-5Z"/><path class="cls-1" d="M3.72,117.15,4,120c-3-3.52-3.6-7.6-2.77-12,1.55,1.48.14,3.91,1.72,5.38A3.67,3.67,0,0,1,3.72,117.15Z"/><path class="cls-1" d="M139,172.73l6.3-4.69c.4-1.76,1.68-2.3,3.3-2.34l.62.4C146.63,169.58,144,173,139,172.73Z"/><path class="cls-1" d="M9.1,54.83,7.13,58C6.4,53.5,8.47,50.39,12,48L9.94,52.93A1.77,1.77,0,0,1,9.1,54.83Z"/><path class="cls-1" d="M156.18,160.06c-1.22,3.28-3.23,5.66-7,6l-.16-.17a1.45,1.45,0,0,1-.17-1.32,13.31,13.31,0,0,1,6.67-4.88Z"/><path class="cls-1" d="M71.09,4a2.18,2.18,0,0,0-.34.93c-.32,1.62-1.23,2-2.65,1.26l-2-1.23C67.25,1.9,69.12,2.65,71.09,4Z"/><path class="cls-1" d="M156,27.06l-5.92-5C154,21.44,155.48,23.71,156,27.06Z"/><path class="cls-1" d="M25.25,30.14a34.21,34.21,0,0,1-6,7C19.86,33.58,21.25,30.74,25.25,30.14Z"/><path class="cls-1" d="M180.91,70.09v-1c3.52,2.28,2.35,5.73,2.24,8.92a2.22,2.22,0,0,1-1.66-1.18c-.57-1.3-.23-2.79-.84-4.08A2.66,2.66,0,0,1,180.91,70.09Z"/><path class="cls-1" d="M16,41a9.6,9.6,0,0,1-3.78,6.23C12.91,44.79,12.34,41.6,16,41Z"/><path class="cls-1" d="M183.12,109c.41,2.89.72,5.75-1.87,7.93h-.43a7.91,7.91,0,0,1-.15-2.91c.11-1.73.05-3.5,1.12-5A.93.93,0,0,1,183.12,109Z"/><path class="cls-1" d="M148,20.19l-6-4.1C145.39,15.45,147.41,16.77,148,20.19Z"/><path class="cls-1" d="M165,149l2-2c1.31,3.55-1.71,4-3.71,5.21l-.49-.41C162.77,150.16,163.88,149.54,165,149Z"/><path class="cls-1" d="M32.87,23a16.29,16.29,0,0,1-4.61,4.18C28.74,24.58,29.44,22.27,32.87,23Z"/><path class="cls-1" d="M127,178.76l6-2.94C131.58,178,130.07,180,127,178.76Z"/><path class="cls-1" d="M2,72.94C1.86,70.71,1,68.26,3.92,67L4.28,67a5.12,5.12,0,0,1-1.5,6.16Z"/><path class="cls-1" d="M163.34,152.13c.52,3.26-1.85,4.07-4.17,4.92l-.32-.61c.84-2,1.4-4.35,4.27-4.45Z"/><path class="cls-1" d="M65.13,182.13c2,0,4.19-.89,6,.82C69,183.35,66.77,185,65.13,182.13Z"/><path class="cls-16" d="M84.12,2.14c-2.54,1.66-5.36.66-8.05.84,1.13-1.16,2.73-.59,4-1.11Z"/><path class="cls-17" d="M105.13,4.93c1.41-1.65,3.35-.47,5-.93l1.89.18c-1,1.37-2.8.33-3.93,1.31C106.76,7.08,106,5.77,105.13,4.93Z"/><path class="cls-1" d="M62.27,6.19c-1.64,1.93-3.88,1.94-6.13,1.89C57.73,6,59.92,5.81,62.27,6.19Z"/><path class="cls-1" d="M56.18,8a6.23,6.23,0,0,1-5,2.78C52.28,8.92,53.8,7.69,56.18,8Z"/><path class="cls-1" d="M174.12,51.89A9.82,9.82,0,0,1,172,47.07C174.05,48.06,175.76,49.22,174.12,51.89Z"/><path class="cls-1" d="M2.07,77.92,1.15,79c-2-2.36,0-4.13.89-6l.11.08a3.38,3.38,0,0,1,1,2.87A2.81,2.81,0,0,1,2.07,77.92Z"/><path class="cls-18" d="M182.1,76.86,183.15,78c0,1,.09,2,.13,3l-.1,4.14c-1.7.11-1.84-1.15-2.06-2.34C180.85,80.72,180.31,78.59,182.1,76.86Z"/><path class="cls-1" d="M16.27,145.6c1.2,1.28,3,2.19,2.76,4.37C16.25,149.69,16,147.83,16.27,145.6Z"/><path class="cls-1" d="M171.93,139.88c.41-1.69.74-3.43,2.21-4.62C175.84,138,173.88,138.92,171.93,139.88Z"/><path class="cls-1" d="M13.27,141.62c1.67.51,2.09,2,2.73,3.37C12.19,146.21,13.39,143.38,13.27,141.62Z"/><path class="cls-1" d="M117.12,4.84c-1.4.13-2.82.33-3.94-.85C114.5,4.26,116.46,1.58,117.12,4.84Z"/><path class="cls-1" d="M175.36,133c.71-1.26.35-3,1.72-4C178.33,131.1,178,132.56,175.36,133Z"/><path class="cls-18" d="M183.12,109a2.21,2.21,0,0,1-.86.41c-2-1.75-1.44-4-1.17-6.13a3.21,3.21,0,0,1,.82-1.4,1.48,1.48,0,0,1,1.53.13l-.16,4Z"/><path class="cls-1" d="M19.22,37.09c-.23,1.29-.67,2.43-2.12,2.79C15.61,37.29,17,36.84,19.22,37.09Z"/><path class="cls-1" d="M47.22,173.86c1.62.07,2.76,1.07,3.92,2C49.55,175.76,47.37,176.74,47.22,173.86Z"/><path class="cls-1" d="M123.14,180c1-1.26,2.53-.84,3.82-1.18C126.33,181.23,124.84,181,123.14,180Z"/><path class="cls-1" d="M167.91,145.88A5,5,0,0,1,170,142.7C171.12,145,170.31,145.93,167.91,145.88Z"/><path class="cls-19" d="M4.21,124.77l1,.28c.45.33,1.19.45.88,1.29V129C4.21,128.15,4,126.56,4.21,124.77Z"/><path class="cls-1" d="M28.25,27.14l-3,3C24.84,27.72,25.85,26.73,28.25,27.14Z"/><path class="cls-1" d="M159,30.08a7.56,7.56,0,0,1-3-3C158.36,26.76,159.35,27.75,159,30.08Z"/><path class="cls-1" d="M170,44.21a5.07,5.07,0,0,1-2-3.13C170.25,41.05,171.15,42,170,44.21Z"/><path class="cls-1" d="M71.12,183l1-.15A2.41,2.41,0,0,1,75,183a1.91,1.91,0,0,1,.31.68C73.61,185,72.36,184,71.12,183Z"/><path class="cls-1" d="M159.17,157.05a3.08,3.08,0,0,1-3,3l-.17-.18c-.13-2.1.9-3.07,3-3Z"/><path class="cls-1" d="M142,16.08l-3-2C141.11,13.14,141.82,14.23,142,16.08Z"/><path class="cls-1" d="M122,6.24c-1-.38-2.29.19-3-1C120.84,3.1,121.35,4.82,122,6.24Z"/><path class="cls-1" d="M65.24,5.3c-.76,1.07-2,.63-3,.92C62.86,4.6,63.52,3.22,65.24,5.3Z"/><path class="cls-20" d="M88.1,4,89.33,2.9l4.91-.77c-.08,1.39.77,1.87,2,2,1.25.57,3.11.7,2.08,2.9-1.12.69-2.33.28-3.51.27a15.58,15.58,0,0,1-4.8-.6C88.9,6.12,88.62,5,88.1,4Z"/><path class="cls-21" d="M26.87,33.73c1.48-3.24,4.76-4.57,7.19-6.8,2.12,1.77,4.71,2.2,7.33,2.54a1.49,1.49,0,0,1,1,1.63c-.13.3-.28.74-.53.8-4.77,1-8.48,4-12.57,6.34-1.52-.85.09-3-1.6-3.78A1,1,0,0,1,26.87,33.73Z"/><path class="cls-22" d="M44.88,18.87c3.48-3.36,8.15-4.57,12.24-6.82.74,1.67.14,3.46.41,5.18-.46,1.74-2,2.47-3.26,3.39-1.07.49-2.15,1-3.34.37C49.51,18.58,46.55,20.58,44.88,18.87Z"/><path class="cls-23" d="M20,41.94c1.41-1.4.64-4.18,3.1-4.92a3.11,3.11,0,0,1,.91.86c.53,1.11,1.77,2,1.13,3.49-.82,1-1.54,2.05-1.12,3.47.8,2.73-.65,3.84-3.08,4.23A7.18,7.18,0,0,1,18.79,49c-1.58-.42-2.14-1.23-1.42-2.9S19.37,43.46,20,41.94Z"/><path class="cls-24" d="M44.88,18.87c2.08.65,5.81-3.63,6.19,2.07l-.3.61c-1.85,2.3-4.27,2.29-6.84,1.69-.7,0-1.39-.1-2.09-.2a3.65,3.65,0,0,1-1.94-.89,1.22,1.22,0,0,1,.15-1.34C41.37,19.45,43.26,19.5,44.88,18.87Z"/><path class="cls-23" d="M57.2,17.07c-2-1.64-.83-3.34-.08-5l2-1.06c1.91-.85,3.82-.55,6.22-.09-.76,2.35-2.41,3.95-3.52,5.85C60.35,18,58.84,18.41,57.2,17.07Z"/><path class="cls-25" d="M20,41.94c.49,1.75-1.21,2.46-1.77,3.71-.45,1-1.13,2.17.84,2.36,1.31,3.68-2.87,3.42-3.88,5.43a7.17,7.17,0,0,0-1.1,3.14c-.52,1.4-1,2.84-3,2.42.28-1.68.57-3.37.85-5.06C14.41,49.77,16.29,45.24,20,41.94Z"/><path class="cls-26" d="M40.05,20.81c0,.39,0,.77.05,1.15.82,1.31-.55,2.55-.1,3.84a19,19,0,0,0,1.44,2.93A1.55,1.55,0,0,1,41.3,30c-2.91.17-6.25,1.32-7.24-3.06h0A5.5,5.5,0,0,0,37,23.83C37,21.78,39.15,21.93,40.05,20.81Z"/><path class="cls-27" d="M61.16,16c.82-1.63.9-3.73,4.35-5H59.1c2.06-2.1,4.64-.72,7-1l.52.59C66.7,14.28,65.47,16.69,61.16,16Z"/><path class="cls-16" d="M68.1,6.15l2.65-1.26,9.48.19C80,7,78.44,7,77.12,7.35c-3,0-6,2.13-8.93-.2Z"/><path class="cls-27" d="M68.19,7.15l8.9-1.21c.18,2.64-2,2.69-3.61,3.07a13.63,13.63,0,0,0-5,2.08c-1.23.56-1.82-.28-2.4-1.11l0,0C65.85,8.32,67.42,8,68.19,7.15Z"/><path class="cls-28" d="M9.1,54.83c0-.75-.16-1.58.84-1.9L11.17,54c-.24,1.21-.38,2.47-1.68,3.11Z"/><path class="cls-21" d="M23.12,38V37a7.31,7.31,0,0,1,3.75-3.29l.33.35C27.1,36.69,25.89,38.17,23.12,38Z"/><path class="cls-21" d="M37,23.83c.1,2.07-.84,3.15-2.95,3.11Z"/><path class="cls-29" d="M115.07,7.05c3.41,1.17,7.18,1.4,10.05,3.94-2.32,1.64-2.81,3.58-1,5.91-1.09,2.49-3.15,2.74-5.48,2.35a81.55,81.55,0,0,1-8.45-1.84c-.44-.15-.87-.33-1.29-.52A20.82,20.82,0,0,0,105,15.77a19,19,0,0,0-5.41-.63,5.44,5.44,0,0,1-2.09-.54,1.86,1.86,0,0,1-.8-1.19c.17-1.82.41-3.59,2.74-3.89,3.37.53,6.71,1.23,10.12,1.53,2.36,1.2,4.23.07,6-1.29.44.07.58.62,1.05.65a2.06,2.06,0,0,1-.7-.53C115.11,9.08,114.5,8.25,115.07,7.05Z"/><path class="cls-30" d="M161.05,37.08c5.25,3.28,6.39,9.51,10,14,.71,1.06.9,2.23-.16,3s-2.14.13-3-.73-1.21-2.33-2.39-3.05c-.38-.25-.74-.52-1.09-.8-.87-.67-2.08-1.45-1.78-2.57.79-2.89-1.35-2-2.64-2.28a5.18,5.18,0,0,1-1.79-.85,9.65,9.65,0,0,0-1.78-.84c-3.74-1.53-3.75-1.74-.31-4.42C157.76,38,160.19,40.2,161.05,37.08Z"/><path class="cls-31" d="M161.05,37.08c.28,5.6-2.87,2.4-5,1.92-3.4-.34-5.1-2.88-6.92-5.29-.59-1.4-1.26-2.91.29-4s3.12-.7,4.63.27a44.5,44.5,0,0,1,3.83,3.15Z"/><path class="cls-32" d="M124.09,17c-.57-1.73-3.94-.14-3.44-2.43.42-1.89,1.73-4,4.47-3.58l2,.93c3.13,2.47,7.89,2.24,10.14,6.15a3.48,3.48,0,0,1-1.95,1,16,16,0,0,1-10.72-1.52Z"/><path class="cls-33" d="M165.09,49c2.1,0,2.78,1.4,3.22,3.16.2.78.82,1.63,1.8,1.37,1.3-.35.84-1.58,1-2.51a46.59,46.59,0,0,1,5.05,11.9c-3.15.79-6.36.49-9.55.41.34-3.29.46-3.4,4.76-3.78C168.33,56.49,163.92,54.33,165.09,49Z"/><path class="cls-34" d="M157.92,33.09l-4.27-2.31c-1.19-.64-2.53-1.3-3.69-.39-1.4,1.09.4,2.36.18,3.59-2.61.46-3.33-1.4-4-3.28a13.18,13.18,0,0,1-.43-2.72,7.29,7.29,0,0,1,2.28-3.8C151.53,26.86,155.58,29,157.92,33.09Z"/><path class="cls-35" d="M148,24.18c.48,1.86-.76,2.73-2.06,3.57a1.31,1.31,0,0,1-1.74.56c-1.44-1.14-1.09-3.33-2.62-4.42a21.12,21.12,0,0,0-2.34-1.38c-.85-.88-2.12-1.67-.67-3.05,1.62-.63,3.11-.1,4.6.48A10.18,10.18,0,0,1,148,24.18Z"/><path class="cls-36" d="M166.29,63.15c3.25-1.6,6.52-2,9.83-.21.38.68.76,1.36,1.15,2,0,.34,0,.68,0,1,.3,1.25.77,2.73-.83,3.26s-2.19-.87-2.85-2c-1.17-1.83-2.74-2.07-4.66-1.24-1.47.62-2.91.87-3.51-1.19a2.65,2.65,0,0,1,.28-1.32Z"/><path class="cls-37" d="M116.12,10c-1.46,2.4-3,4.53-6.11,2.07.33-1,2.64-2,0-2.81-2.18-.69-4.27-1.64-6.51-2.19a2.36,2.36,0,0,1-1.55-1.31c.87-1,2.13-.56,3.2-.82l2.94.56,7,1.56c.34,1,.69,2,1,3Z"/><path class="cls-38" d="M137.11,18c-2.77-2.94-7.5-2.67-10-6.07a24.4,24.4,0,0,1,12,6A1.49,1.49,0,0,1,137.11,18Z"/><path class="cls-39" d="M137.11,18l2.06,0a6.77,6.77,0,0,1,4,2l-5,.14a1.77,1.77,0,0,1-2.39,1c-1-.87-1.68-1.82-.64-3.11Z"/><path class="cls-40" d="M37.19,163.84c-7.46-6-14.2-12.55-19.1-20.84,1.45-1.48,2.81,1.84,4.27.07,2.71-.25,5.2.68,6.31,3,2.16,4.52,6.15,7.19,9.5,10.51A22.62,22.62,0,0,1,37.19,163.84Z"/><path class="cls-41" d="M61.1,177l-7-3c0-5.06,3.8-4.1,6.82-4.43,3.08.16,6.34-.09,8,3.4a4.19,4.19,0,0,1-.52,3.76,1.61,1.61,0,0,1-1.33.38c-1.65-2.28-3.47-1.31-5.29-.26Z"/><path class="cls-42" d="M45.08,169c-1.44-.85-3.17-1.27-4.11-2.83.79-1,1.69-.85,2.76-.23-.69-1.12-2.77.19-2.84-1.72a2.1,2.1,0,0,1,.93-1,9.67,9.67,0,0,1,3.4-.72c2.58,1.23,4.3-2.12,6.81-1.3a2,2,0,0,1,1.35,1.32c-.65,1.57-.63,3.31-1.22,4.91C50.2,169.83,48.06,171.34,45.08,169Z"/><path class="cls-43" d="M45.08,169c3,1.74,4.68-1.39,7-2,3.1,1.1,7.09.2,9,4-2.83-.12-5.77-.47-7,3C50.79,172.86,47.45,171.8,45.08,169Z"/><path class="cls-44" d="M14.35,136.9l-4-7.94c2.65-1.29,3.43,1.44,5.07,2.34a34.24,34.24,0,0,1,3.95,3.76c.52,2,2.31,4.92.34,5.87C16.81,142.3,16.22,138.24,14.35,136.9Z"/><path class="cls-45" d="M19,135c-2-.11-3-1.42-3.9-3,0-5.15,0-5.15-5.12-3.83L9,126.1a1.54,1.54,0,0,1,.76-2.5c3,.28,5.9-.72,8.88-.23a2,2,0,0,1,1.1,1.71c.21.89-.95,2,.41,2.72a2,2,0,0,1,.48,1.1,23.47,23.47,0,0,0-1.24,5.55C19.3,134.63,19.16,134.8,19,135Z"/><path class="cls-46" d="M14.35,136.9c2,.51,2.82,2.68,4.69,3.7.86-2-1.18-3.82,0-5.62h.11c2.81.19,2.89,2.58,3.62,4.45a9.91,9.91,0,0,1-.61,4.54c-1.75,1.33-2.52-1.44-4.06-1A14.69,14.69,0,0,1,14.35,136.9Z"/><path class="cls-47" d="M10,128.16c1.19-3.59,4.08-2.63,5.88-1.43,2.46,1.63.68,3.65-.76,5.26-2.28.07-2.43-3.24-4.81-3A1,1,0,0,1,10,128.16Z"/><path class="cls-48" d="M37.19,163.84a6.06,6.06,0,0,1,.71-6.91c-.09-1.54,1.08-2,2.15-2.56a4,4,0,0,1,2.14-.13,2.48,2.48,0,0,1,1.13.78,3,3,0,0,1-1.43,2.85c-2.38,1.74-2.35,3.95-1.47,6.39-.22.74-.53,1.32-1.44.82C38.38,164.67,37.78,164.26,37.19,163.84Z"/><path class="cls-49" d="M10.1,124,9,126.1l-.83-.28A4.59,4.59,0,0,1,7,121.07l.24-1.21c.43-1,.29-2.61,2.18-1.8a9.29,9.29,0,0,1,1.35,4A2.25,2.25,0,0,1,10.1,124Z"/><path class="cls-50" d="M7,121.07l1.2,4.75-.9,2.1-1.18-1.58-.89-1.29C6.87,124.19,5.41,122,7,121.07Z"/><path class="cls-51" d="M39,165.08,40.11,164a.86.86,0,0,1,1,0c.55,1.44,2.43.5,3.21,1.85l-3.39.37Z"/><path class="cls-41" d="M65.17,178.88l-4-1a4.61,4.61,0,0,1-.11-.9l0,0c2-1.26,4-1.59,6,0h0C67.66,178.83,65.71,178.14,65.17,178.88Z"/><path class="cls-18" d="M178,92.07c4.21-2.6,1.78-6.44,1.65-9.73-.11-2.74-1.78-5.31-1.38-8.7L180.09,77c2.55,1.55,1.09,4.07,1.49,6.14,1.55,6.25,2.24,12.53.5,18.86l0,0a.88.88,0,0,1-1,.27,13,13,0,0,1-3.36,7.13c-.65.73-1.25,1.78-2.34,1.5s-1.3-1.42-1.39-2.4a49.78,49.78,0,0,1,0-9.84,4.74,4.74,0,0,1,.53-1.32c.6-.74,1.28-.59,2.05-.26.47.19.85,1.2,1.36.54.34-.44-.44-1-.83-1.49a1.9,1.9,0,0,1-.31-1.2A20.55,20.55,0,0,1,178,92.07Z"/><path class="cls-52" d="M175.09,97c0,.34,0,.68,0,1-2.63,0-2.59-1.55-2.19-3.26-1.58,1.58,2.56,5.46-2.07,6.18-1.68-2.56-1.17-5.39-.73-8.08a14.48,14.48,0,0,0-.18-5.3,52.08,52.08,0,0,1,0-7.8c0-.25.1-.51.15-.76,0-1,0-2,.05-3s.29-1.67,1.29-1.78a1.43,1.43,0,0,1,1.65,1.43c.24,4.88,4.09,9.4,1.41,14.59-1,1.9.05,2.32,1.78,1.86.7.8,1.39,1.61.84,2.8l-.07.19A7.42,7.42,0,0,1,175.09,97Z"/><path class="cls-53" d="M171.1,87c1.49,4.68-.6,9.34-.07,14,1.2,2.49-.46,4.73-.61,7.11a18.48,18.48,0,0,1-1.38,5.09,3.22,3.22,0,0,1-1,1.18,2.6,2.6,0,0,1-1.61,0,2.26,2.26,0,0,1-1-1.26c.18-6.62,2.69-12.92,2.39-19.63-.23-5.14-.11-10.24-1.6-15.27-.56-1.9-1.92-4.63,1.43-5.86a2.29,2.29,0,0,1,1.55.61c.26,2-.77,4.23,1,6h0C171.4,81.53,169.72,84.44,171.1,87Z"/><path class="cls-54" d="M169.12,73c-.31,0-.63,0-1-.06a1.4,1.4,0,0,1-.32-1.85c1.3-2.08,5.15-.92,5.42-4.29a2.39,2.39,0,0,1,.91-1c1.15.54.42,2.81,2.12,2.59,1-.13.76-1.53,1-2.39C178.65,70.81,176.35,72.76,169.12,73Z"/><path class="cls-55" d="M181.17,83c-.16-2,.19-4.16-1.08-6l.06-1.06c.95-.84-.09-2.37,1.07-3.14,1.26,1.15.79,2.67.88,4.07,0,2-.07,4.08-.11,6.12C181.72,83.43,181.45,83.45,181.17,83Z"/><path class="cls-56" d="M181.22,72.79c-.26,1.08.1,2.38-1.07,3.14,1-1.85-2.59-4.29.76-5.84C181,71,181.12,71.89,181.22,72.79Z"/><path class="cls-57" d="M177.12,94.92c-.47-.88-1.15-1.69-.84-2.8l1.69-.05C178.79,93.34,178.94,94.42,177.12,94.92Z"/><path class="cls-38" d="M169.45,108.13c.53-2.38,1.06-4.77,1.58-7.15,2.14-2,.47-4.66,1.41-7.2,1,1.47.66,3.67,2.64,4.22v12.78c3-4,6-6.94,4.94-12,1.6,1,.8,2.3,1.13,3.28a19.87,19.87,0,0,1,0,8.88,3.8,3.8,0,0,1-1.17,2.95c-.58,1.07-1.17,2.14-1.75,3.22-.81-.67-1.32-1.73-2.5-1.92a6.18,6.18,0,0,1-1.82-1.92,6.52,6.52,0,0,1-1-6.57C171.43,106.84,171.92,111,169.45,108.13Z"/><path class="cls-58" d="M159,156.84l-3,3-6.8,5.29a2.35,2.35,0,0,1-.85-1.14,3.66,3.66,0,0,1,.19-2.12c2-2.48,4.61-4.33,6.69-6.72,1.67-1.11,2.57-2.85,3.66-4.44a7,7,0,0,1,.79-1,17.78,17.78,0,0,1,3.16-2.08,1.29,1.29,0,0,1,1.18.23l1,1-1.92,3Z"/><path class="cls-59" d="M176.08,121c-.41,5.12-1.58,10-5,14a.88.88,0,0,1-1.26,0,3.17,3.17,0,0,1-.41-2.06c-.48-2.09,3-4.79-1-6.35a2,2,0,0,1-.8-1c0-1.52-.53-3,.16-4.55a2.11,2.11,0,0,1,1.2-.52,6.38,6.38,0,0,0,4.44-.74,2.88,2.88,0,0,1,1.3-.18C175.45,119.79,175.64,120.5,176.08,121Z"/><path class="cls-60" d="M164,147.9c-.3,0-.59.09-.89.11a5.12,5.12,0,0,1-2.47-.43,2.2,2.2,0,0,1-1.1-1.47,2.17,2.17,0,0,1,.32-1.19c2,.76,1.19-1.25,1.8-1.86a2.11,2.11,0,0,1,1-.64,14.33,14.33,0,0,1,2.36.08,1.65,1.65,0,0,1,1,.48Z"/><path class="cls-61" d="M166.09,143h-1c-.56-4.06,1.21-6.66,5-8h1C169.7,137.81,168.41,140.71,166.09,143Z"/><path class="cls-62" d="M176.08,121l-1.09-.9a3.22,3.22,0,0,1-.6-2.85,3.46,3.46,0,0,1,1.81-2.31c2.57-1,1.68,1.16,2,2.2C177.51,118.38,176.12,119.29,176.08,121Z"/><path class="cls-63" d="M180,113.88c.07-.94.13-1.88.2-2.82,2.45.36,1.12,2,1,3.14-.13.91-.25,1.82-.38,2.72C179.88,116.09,180.19,114.91,180,113.88Z"/><path class="cls-64" d="M104.21,182.07l-3.23.77c-1.16-.79-2.53-.11-3.75-.53-.75-1.26-2.07-2-2.82-3.29a4,4,0,0,1-.12-2,3,3,0,0,1,.68-1.2,5.93,5.93,0,0,1,2.74-.24c5.6.63,11-1.22,16.45-1.66a4.63,4.63,0,0,1,1.33-.27c2.27,1.5,5-.85,7.22.82.58.77.49,1.93,1.41,2.53a35.48,35.48,0,0,1-11.2,3,7.48,7.48,0,0,0-4.89,1.9C106.81,182.84,105.52,182.54,104.21,182.07Z"/><path class="cls-65" d="M133.05,172.92c-2.1,2.42-5.32,2-7.94,3.12a2.1,2.1,0,0,1-.62-1.09,5.53,5.53,0,0,0-1.41-4.08,4.63,4.63,0,0,1-.67-4.06,2,2,0,0,1,2.25-1.27c.92.17,1.13,1.94,2.33,1.21,1-.59-.11-1.39-.16-2.12.67-1.95,2.14-2.41,4-2.21a5.13,5.13,0,0,1,2.76,3.26,2.64,2.64,0,0,1-.21,2C129.16,169.2,132.92,171.17,133.05,172.92Z"/><path class="cls-66" d="M149.07,163.85c.05.44.09.88.14,1.32a6.41,6.41,0,0,1-.16.76L145.29,168,142.16,167a21.27,21.27,0,0,0-2.28-3c-.11-1.4.87-1.89,1.93-2.32.65-.06,1.25,0,1.45.79a2,2,0,0,0-.34-1.28c-.7-1.06-1.48-2.08-1.35-3.46a1.72,1.72,0,0,1,.83-1,5.33,5.33,0,0,1,5,2.11C148.68,160.23,147.45,162.5,149.07,163.85Z"/><path class="cls-67" d="M133.19,167.89,133.1,166a2.9,2.9,0,0,1,.84-.87c1.07-.57,1.93-1.55,3.23-1.7a2.41,2.41,0,0,1,1.16.37,13,13,0,0,0,2.47,2.66l.34.51a7.46,7.46,0,0,1-3,3.13c-1.9.46-3.17-.85-4.62-1.65C133.41,168.25,133.3,168.07,133.19,167.89Z"/><path class="cls-68" d="M133.05,172.92c-.87-1.72-4.41-.46-4-3.08a2.75,2.75,0,0,1,4.1-2h0c1.87,1,4,2,.95,4.1Z"/><path class="cls-65" d="M134.1,172c1.44-1.77.1-2.9-.95-4.1,2.14-.36,3.42,1.26,5,2.19A6,6,0,0,1,134.1,172Z"/><path class="cls-69" d="M104.21,182.07l3.82-.2c1.32.32,2.91-.46,4,1l-2.68.21C107.64,182.56,105.66,183.71,104.21,182.07Z"/><path class="cls-70" d="M140.16,163.94c2.35-.11,3.29.71,2,3h-1l-.26.15c-.48-1.17-2.46-1.45-1.92-3.23A1,1,0,0,1,140.16,163.94Z"/><path class="cls-71" d="M125.09,175c0,.35,0,.71,0,1.07l-1,.94c-1.75,0-1.55-.9-1-2l.43-.41A1.25,1.25,0,0,1,125.09,175Z"/><path class="cls-72" d="M65.17,178.88,67.11,177c1.18-.73,1-1.93,1-3,4.22-1.21,8.32.11,12.45.92.23-1.54-3-1.7-1-3.51a9.11,9.11,0,0,1,6.92-.07c2,2.1.17,3.73-.64,5.49-1.7,1.41-3.27,2.92-3.78,5.2L80,182a3.78,3.78,0,0,1-3.88-.11Z"/><path class="cls-73" d="M94.88,178.87c1.2.71,4.31,0,2.22,3.09a1.84,1.84,0,0,1-.75.88L91.11,182c-1.82-.46-2.61-1.79-3-3.47a4.49,4.49,0,0,1,.87-3.73c2.27-.6,1.78-2.41,1.79-4,0-5.48-.14-11,.09-16.44a4.61,4.61,0,0,1,.85-2.18,1.38,1.38,0,0,1,1.39-.36c3,5.23,2,10.9,1.76,16.49C94.69,171.8,93.3,175.34,94.88,178.87Z"/><path class="cls-74" d="M89,178.82c.72,1.05,1.43,2.11,2.14,3.16a9.09,9.09,0,0,1-9,0c-.85-2.76-.21-4.63,3-5C86.58,177.18,87.68,178.21,89,178.82Z"/><path class="cls-75" d="M76.16,181.92,80,182c-1.42,1.7-3.41.53-5.08,1l-2.79-.2C73.27,181.5,74.81,182.13,76.16,181.92Z"/><path class="cls-76" d="M96.35,182.84l.75-.88c1.32.17,2.83-.5,3.88.88Z"/><path class="cls-77" d="M9,117.94l-1.78,1.92Q5.68,114.92,4.1,110l-.24-2c-.15-.87.32-1.31,1.09-1.54,2.32,0,3.64,2,5.61,2.73,1.55,1.35,3.28,2.48,4.79,3.89.64,3.33-2.48,2.59-3.94,3.66A4.51,4.51,0,0,1,9,117.94Z"/><path class="cls-78" d="M3.09,87c0-.67,0-1.35,0-2-.54-2.45-1-4.9.34-7.25a2.29,2.29,0,0,1,1.61,0,3.81,3.81,0,0,1,1.3,2.82c.42,3.39-.75,6.82.23,10.21a2.62,2.62,0,0,1-.18,1.49c-.71.79-1.46,1.5-2.59.64C2.88,91,2,89.1,3.09,87Z"/><path class="cls-78" d="M5,106.87,3.86,108c-1.3-2.23-.29-4.74-.84-7.06a9.12,9.12,0,0,1,.09-6,6.82,6.82,0,0,0,.07-.9.89.89,0,0,1,1.44.21C5.7,98.46,6.34,102.63,5,106.87Z"/><path class="cls-79" d="M4,77.9c-1.6,2.19-.41,4.75-1,7.07H2.15c0-2.35,0-4.7-.08-7,.06-.64.12-1.28.19-1.92,1-.44,1.6.12,2.14.84A.84.84,0,0,1,4,77.9Z"/><path class="cls-80" d="M3.72,117.15c-1.05-1.1-.43-2.56-.81-3.8.34-1-.08-2.25.9-3.07C3.36,112.56,5.9,114.88,3.72,117.15Z"/><path class="cls-14" d="M4.12,94c-.31,0-.63.06-.94.11C3,91.73.81,89.39,3.09,87c-.29,2.16.58,4.09,1.15,6.08A.65.65,0,0,1,4.12,94Z"/><path class="cls-14" d="M3.11,95q0,3-.08,6A4.68,4.68,0,0,1,3.11,95Z"/><path class="cls-81" d="M11.12,59a3.37,3.37,0,0,0,2.05-3c1.85-.27,2.69,1,3.58,2.28,1.11,3.22,0,5.31-3.25,6.23a7.88,7.88,0,0,0-2.55,2c-1.18,1.33-1,3.21-1.94,4.65a1.68,1.68,0,0,1-2.5-.52c-.85-1.6-.12-3.06.37-4.54C7.58,63.26,9.9,61.46,11.12,59Z"/><path class="cls-82" d="M4,77,2.26,76c0-1-.07-2-.11-3,1.4-1.77,1.53-4,2.13-6L6,67.1C6.86,70.71,7.31,74.22,4,77Z"/><path class="cls-83" d="M4,77c.79-3.27,2.2-6.41,2-9.88L6.88,66c.12,1.64.24,3.27.35,4.91,1.12,2.9,0,5.12-2.13,7L4,77.9A7.13,7.13,0,0,0,4,77Z"/><path class="cls-84" d="M104.05,6l6.41,2c1.34.42,3.34.5,3.14,2.32s-2.16,1.57-3.59,1.7c-3.79-.05-7.6,0-11-2.06-.91-.81-1.53-1.7-.91-3,.2-1.5-1.23-1.93-1.89-2.88,1.65.09,3.53-1,4.79,1a1.71,1.71,0,0,0,1.34,2.22C103.41,7.72,103.61,6.66,104.05,6Z"/><path class="cls-85" d="M104.05,6c.31.86,1.32,1.73.31,2.63a1.64,1.64,0,0,1-2.57-.05c-1-1.07-2.6-1.85-.8-3.5l.94.63Z"/><path class="cls-86" d="M181.17,83H182a2.57,2.57,0,0,0,1.19,2.15c.86,5.61,1.64,11.22.26,16.86h-1.36C181,95.7,182.6,89.27,181.17,83Z"/><path class="cls-87" d="M68.07,11c.15-2.32,1.56-3.12,3.68-3.07s4-.25,5.34-2l3.14-.86L88.1,4c1.76,0,1.48,1,1.18,2.15,0,.26,0,.53,0,.79-.59,2.91-2,4.67-5.34,4.78-3.5.11-6.68,2-10.14,2.43-2,.27-4,.38-5.77-.9A1.76,1.76,0,0,1,68.07,11Z"/><path class="cls-88" d="M181.2,114.2c-.25-1.08.14-2.36-1-3.14,1.42-2.89.73-6,1-9,.32,0,.63-.06.95-.08.05,2.47.11,4.94.16,7.42C181.94,111,182.61,112.83,181.2,114.2Z"/><path class="cls-89" d="M89.28,6.14l5.74,0c2.24,2.19.92,5.35,2.15,7.82l0,.06c.62,1.1-.55,1.77-.62,2.72-.17,1.11.17,2.2.09,3.3a21.92,21.92,0,0,0-.29,3.24c0,.68,0,1.36,0,2s0,1.44,0,2.16c0,1.27,0,2.54.06,3.8,0,1.61,0,3.2,0,4.81a28.79,28.79,0,0,1,0,3.35c.16,3.76-.15,7.53,0,11.29a8.15,8.15,0,0,1,0,1.78c-.15,6,0,12-.09,18A5.36,5.36,0,0,1,95.39,74c-2.49,1.19-3.31-.6-4.18-2.33-1-5.09-.27-10.25-.51-15.37,0-.88,0-1.77,0-2.65,0-12.66,0-25.32,0-38,0-1.85.26-3.73-1.91-4.66a4.44,4.44,0,0,1,.44-4.87Z"/><path class="cls-90" d="M97.17,13.94c-3.66-1.8-1.4-5.22-2.15-7.82,1.2-.28,2.1.44,3.07.9.31,1,.61,2,.91,3Z"/><path class="cls-91" d="M29.07,37.88c3.25-4.33,8-5.94,13-6.93a1,1,0,0,1,1.26,0,2,2,0,0,1,0,1.38c-3.75,3.47-7.55,6.9-11,10.72a2.69,2.69,0,0,1-2.56,1.2,3.68,3.68,0,0,1-2.68-3.48C27.22,39.48,27.15,38,29.07,37.88Z"/><path class="cls-92" d="M29.07,37.88c-1.15.8-.87,2-.93,3.15-.72.56-.41,2.1-1.62,2a1.51,1.51,0,0,1-1.46-2C24.61,40,23,39.58,23.12,38l4.08-4a13.91,13.91,0,0,1,2.42-1.25C31,34.61,29.08,36.14,29.07,37.88Z"/><path class="cls-93" d="M43.19,31.05,42.05,31l-.75-1c-.07-.32-.13-.65-.2-1-.05-1.5-1.57-3.11.36-4.46,4.45.33,5.38,3.59,6,7.15a1.83,1.83,0,0,1-1.86.9A4.06,4.06,0,0,1,43.19,31.05Z"/><path class="cls-94" d="M68.07,11l.15,1.8c.77,1.6.86,3.48,2,4.92-1,1.49-2.61,1.46-4.14,1.63-4,.24-7.93,2.16-12,.61l3.1-2.92c1.39-.08,2.88.24,3.95-1,3-.89,5.07-2.59,4.95-6.06Z"/><path class="cls-95" d="M54.1,20l12.12-1.93a1.29,1.29,0,0,1-.13,1.35c-5.38,2.6-10.85,5-16.07,8a1.58,1.58,0,0,1-1.34-.6c-1.42-2.86.39-4.37,2.42-5.79l0,0Z"/><path class="cls-25" d="M25.06,41.11c1.09,2.53,2.07.47,3.08-.08-.16,1.54,1.4,1.94,2,3,.62,2.35-1.37,3.62-2.33,5.23C25,54,22,58.55,19.57,63.47c-2.35,2.55-4.85,2.61-7.49.46,2.83-.94,4.85-2.45,4.1-5.89a4.09,4.09,0,0,1,.44-1.94,24.76,24.76,0,0,1,4.65-8c1.87-.36,2.85-.81,1.63-3.15C22.16,43.51,21.72,40.89,25.06,41.11Z"/><path class="cls-81" d="M21.27,48.07c-.4,3.43-2.91,5.85-4.19,8.86a10.94,10.94,0,0,1-3.08-4c.94-2.42,4.8-1.78,5.09-4.87Z"/><path class="cls-96" d="M49,26.87l1,0a1.61,1.61,0,0,1,.55,1.1,3.87,3.87,0,0,1-.64,2.4,8.65,8.65,0,0,1-1.67,1.8,1.18,1.18,0,0,1-1.13-.2c-1.71-2.58-1.91-6.46-6-7a1.81,1.81,0,0,1-.55-1.14c.14-1,.9-1.42,1.72-1.75l1.63,0C46.31,23,47.43,25.17,49,26.87Z"/><path class="cls-97" d="M49,26.87c-3.17,0-3.09-3.46-5.08-4.73,2.65,1.19,4.84-.39,7.18-1.15A8.37,8.37,0,0,0,49,26.87Z"/><path class="cls-98" d="M42.29,22.12,41,23.85c-.48.88-.71,2-1.93,2.17-1.93-1.93.94-2.64,1-4.06Z"/><path class="cls-99" d="M14,52.88c2.37.32,2.78,2.14,3.08,4L16.18,58c-1.57.13-2-1.35-3-2.06C13.1,54.85,13,53.71,14,52.88Z"/><path class="cls-100" d="M39.07,26c.64-.72,1.29-1.44,1.93-2.17L41.12,25c-.32,1.34,1.82,2.67,0,4A3.32,3.32,0,0,1,39.07,26Z"/><path class="cls-101" d="M110,16.12l9,1.95c5.34,1.81,11,2.88,15.31,7a7,7,0,0,1,.93,1.16,2.94,2.94,0,0,1,.42,1.44,1.85,1.85,0,0,1-2,1.84C125.4,25,117,20.81,107.77,18.58c-.47-.11-.71-.66-.88-1.14C107.37,15.71,109.07,16.81,110,16.12Z"/><path class="cls-102" d="M134,26.08A34.73,34.73,0,0,0,121.75,20,4.08,4.08,0,0,1,119,18.07c2,1,3.37-.82,5.08-1.07h0a42.83,42.83,0,0,1,7.83,2.85C134.63,21,136.26,23,134,26.08Z"/><path class="cls-103" d="M95.1,16l2-2,2,0c1.87,1.19,4.13-.22,6,.91,1.38.21,2.94-.31,4.05,1a52.83,52.83,0,0,1-5.88,1.87,7.86,7.86,0,0,1-3.13,0C98.39,17.43,96.51,17.33,95.1,16Z"/><path class="cls-104" d="M116.1,10c1.28.08,2.89-.32,3.34,1.38.24.91-.69,1.47-1.58,1.48-2.1,0-1.65-1.62-1.74-2.88Z"/><path class="cls-105" d="M103.15,16.86c1.79-1.65,4-.46,6-.92a4.15,4.15,0,0,1,.85.18c-.76,1.08-2,.76-3,1A2.53,2.53,0,0,1,103.15,16.86Z"/><path class="cls-90" d="M105.1,15c-2-.27-4.21.77-6-.91C101.11,14.28,103.31,13.26,105.1,15Z"/><path class="cls-106" d="M165.09,49c.83,4.49,4.1,7.25,7.56,9.88-1.75,2.43-5.58,1.06-6.36,4.25l-.11-.07c-.33.12-.79.22-.91,0-3.53-6-7.63-11.6-10.43-18,1.18-1.15,2.24-2.54,4.22-2l1,.94c1.19.46,2.77.57,2.52,2.45s1.51,1.82,2.48,2.51Z"/><path class="cls-107" d="M159.06,43.1c-1.14,1-2.15,2.31-4,1.92-2.63-.06-3.08-2.25-4-4-.11-2.73-1.9-4.27-3.78-6-1.44-1.31-3.83-3.21-.26-5.06.1,2,1.39,3.16,3,4l6,5c-.29,1-4.51,3,.69,2.56A2.39,2.39,0,0,1,159.06,43.1Z"/><path class="cls-33" d="M165.08,49c-3.88.58-2.49-4.15-5-5,1.49-.94,3-.09,5-.35C164,45.64,162.42,47.5,165.08,49Z"/><path class="cls-38" d="M134,26.08c.8-3.56-1.35-5.07-4.2-6.25C127.85,19,126,18,124.1,17c3.71-.06,7.2,2.11,11,1,.35,1,.7,2.05,1,3.07.67,2.21.58,4.26-1.15,6Z"/><path class="cls-108" d="M147.09,30c-2.32,2.75.21,3.9,1.89,4.87A5.74,5.74,0,0,1,152.11,41c-4.47-1-6.79-4.74-9.68-7.74-1.58-5.11-1.57-5.13,1.82-5.27l1.64-.22A2.31,2.31,0,0,1,147.09,30Z"/><path class="cls-109" d="M144.25,28c-4.82.67.63,3.66-1.13,5a5.31,5.31,0,0,1-2,1.64c-1.43.39-2.5,1.78-4.16,1.53a3.58,3.58,0,0,1-1.31-2.28c.79-3.86,3.63-6.59,5.45-9.89a2.91,2.91,0,0,1,1-.92C144.49,24,143.93,26.16,144.25,28Z"/><path class="cls-110" d="M135,27.08c0-2.07-.08-4.17,1.15-6l2-1a3.57,3.57,0,0,0,2.13,2c.22,1.29-.91,1.89-1.41,2.82-1.1,1.07-.69,4.76-3.86,2.24Z"/><path class="cls-111" d="M138.09,24l2.17-1.93,1.83,1c0,.28,0,.57,0,.86-.8.74-1.46,1.72-2.54,2C137.65,26.49,137.32,25.63,138.09,24Z"/><path class="cls-112" d="M141.1,33.68l2-.68,9,8,3,4c4.53,5.5,7.83,11.76,11.09,18A2.53,2.53,0,0,1,166,64c-.61,1.29-1.53,1.92-3,1.42a4.06,4.06,0,0,1-1.94-2.89,5.56,5.56,0,0,0-2-4,52.9,52.9,0,0,0-7.56-12.11c-1.89-3.13-4.79-5.35-7.21-8C143.07,37,141.22,35.92,141.1,33.68Z"/><path class="cls-113" d="M163.29,64.94,166,64c.37,1.88,1.22,2.08,2.71.93,2.08-1.6,3.95-1.32,5.46.89l-.22.44c-1.12,2.53-3.59,2.9-5.83,3.65a6.4,6.4,0,0,1-4.69-1.12,2.24,2.24,0,0,1-.71-1.06C163.06,66.83,162.57,65.76,163.29,64.94Z"/><path class="cls-114" d="M40.06,155l-2.16,2c-3.82-1.91-7.24-4.33-9-8.36-1.34-3.07-3.44-4.63-6.76-4.59a3.11,3.11,0,0,1-.06-4c-.12-2.73-1.76-5.62.85-8.06a1.66,1.66,0,0,1,2.1.85c2.77,5.87,7.42,10.48,10.6,16.06C34.48,152.73,38.78,152.76,40.06,155Z"/><path class="cls-115" d="M79.12,171.94c.78,2.2,5.42-.3,4.42,2.9-.74,2.35-4.28,1.57-6.08.61-3.06-1.64-6.5.52-9.32-1.51-1.2-3.7-4.35-2.78-7-3-2.53-2.39-6.93-.56-9-4-.71-1.69-2.08-3.57,1.19-4.1A97.79,97.79,0,0,1,79.12,171.94Z"/><path class="cls-72" d="M67.11,177h-6c1-1.5,1.73-3,4.12-2.62C67.19,174.63,67.18,175.61,67.11,177Z"/><path class="cls-116" d="M79.12,171.94a141.25,141.25,0,0,1-25.82-9.06l-1.16-1c-1.46-.9-3.58-1-3.8-3.35.31-1.79.31-3.85,3.08-3.45,3,4.59,8,6.21,12.75,8a75.32,75.32,0,0,0,19.74,4.59c2,.18,4.57-.12,4.82,3-.2.85-.61,1.47-1.62,1.38Z"/><path class="cls-117" d="M51.11,155a5.5,5.5,0,0,0-2,4c-1.21,1.47-2.2,3.15-4,4.09a3,3,0,0,1-3,.85c-1.62-2.84,1.5-4,2.12-6a66.43,66.43,0,0,1,3.91-5.63C52,147.64,55,142.35,60,138.83a1.33,1.33,0,0,1,1.56,1c.09,3.08-2.43,4.8-3.76,7.14-.64.9-1.4,1.71-2.08,2.58C54.16,151.35,53.56,154,51.11,155Z"/><path class="cls-118" d="M45.13,158c.12,2.53-3.16,3.35-3,5.93l-1,0-1,0c-2.94-2-2.36-3.86-.08-6,1.06-1,2.81-1.29,3.15-3C46.41,154.3,45.7,156.19,45.13,158Z"/><path class="cls-119" d="M45.15,163.06c.91-1.76,1.32-4,4-4.09l3,2.89c-.93.14-2.22-.13-2.59.88C48.26,166.3,46.73,164.56,45.15,163.06Z"/><path class="cls-120" d="M23.14,132l-1.05,7.95c-1-1.65-1.38-3.65-2.95-4.95-1.93-2.73.34-4.82,1.1-7.14a1.59,1.59,0,0,1,1.3,0C22.75,129,23.87,130.13,23.14,132Z"/><path class="cls-121" d="M10.1,124v-2c1.19-1.41,3.05-1.08,4.52-1.75,1.32-.41,2.58-1.12,4-.74a1.37,1.37,0,0,1,.79,1c-1.09.91.19,1.65.17,2.5a1.57,1.57,0,0,1-.64,1.08C16,123.73,13.05,126.51,10.1,124Z"/><path class="cls-122" d="M19,124.05c.06-.35.12-.71.19-1.06,3,.74,3.23,2.56,1.94,5l-.88-.11h0a1.67,1.67,0,0,1-.9-1.94Z"/><path class="cls-120" d="M19.33,125.92a1.88,1.88,0,0,1,.9,1.94c-.67.15-1.49,1.07-1.95-.08C18,127,18.52,126.29,19.33,125.92Z"/><path class="cls-123" d="M40.06,155c-2.66-1.11-7.25-.57-5-5.86,3.56-.5,4.53,3.11,7,4.4a1.2,1.2,0,0,1,.13,1.25Z"/><path class="cls-124" d="M42.18,154.74c0-.24-.08-.49-.1-.74a3.59,3.59,0,0,1,1.51-1.19c1.18-.55,2.09-1.52,3.24-2.12a2,2,0,0,1,1.26,0c.84.52.45,1.59,1,2.24l-4,5.05c-.05-1.4.08-2.92-2-3Z"/><path class="cls-125" d="M15.17,121.05c-1.46,1.5-3.31.93-5.06.92-1.36-1.07-.4-2.77-1.09-4,.42-.62.83-1.24,1.24-1.87a.8.8,0,0,1,1.18-.11C11.93,118.2,14.94,118.61,15.17,121.05Z"/><path class="cls-126" d="M175.09,97c0-1.26.6-2,2-1.87,4,.71,2,3.13,1.71,5.68Z"/><path class="cls-5" d="M171.1,87c-1.93-2.46-.59-5.33-1-8C172.06,81.44,170.66,84.32,171.1,87Z"/><path class="cls-127" d="M168.18,71.07c0,.62,0,1.24,0,1.86-3.12.86-1.19,3.35-.87,4.44,3.54,11.86,1.9,23.47-1.12,35.08a7.34,7.34,0,0,0-.07,1.49,1.06,1.06,0,0,1-1.5-.31,6.37,6.37,0,0,1-.66-4.34,76.92,76.92,0,0,0-2.18-32.5,7.22,7.22,0,0,1-.21-2c.52-3.48,2.91-4.36,6-4.26Z"/><path class="cls-128" d="M169.45,108.13c2.75.7,1.33-1.53,1.64-2.44s.43-2.18,1.69-2,1.29,1.39,1.3,2.41c0,2.34-1.52,4.9,1,6.86a2.4,2.4,0,0,1-1.08.72c-1.89-.21-3.88.52-5.67-.6Z"/><path class="cls-129" d="M175,117.09c0,1,0,2,0,3l-.49,0H174a3.56,3.56,0,0,1-4.16.21c-1.45-1.23-3.49-1.52-4.82-3-.71-2,.92-2.43,2.09-3.16a4.27,4.27,0,0,1,.94-.08c1.83.3,3.86-.48,5.48,1A4.74,4.74,0,0,1,175,117.09Z"/><path class="cls-130" d="M167.12,114.1l-1.91,2.74a2,2,0,0,1-1.19.85c-1.57.29-2.93-.4-4.33-.92-2.11-1.51-5.59-.52-6.79-3.69a5.42,5.42,0,0,1,3.2-1.84c1.8-.44,3.47.13,5.15.64a8.63,8.63,0,0,1,3.84,2.1l1,0Z"/><path class="cls-131" d="M173.2,115.86c-1.2-2-4.24,1-5.14-1.84a7.49,7.49,0,0,0,.28-.92c1.91-.2,3.81-1,5.73-.07C174.66,114.24,175.59,115.56,173.2,115.86Z"/><path class="cls-132" d="M168.13,69.09,174,66.24c1.34,5.51-3.22,4-5.78,4.83L168,71a1.62,1.62,0,0,1-.47-1A1.29,1.29,0,0,1,168.13,69.09Z"/><path class="cls-133" d="M173.2,115.86c1.11-.69.86-1.8.87-2.83l1,0,1.11,1.92a2.53,2.53,0,0,1-1.17,2.19C174.3,116.87,173.49,116.75,173.2,115.86Z"/><path class="cls-134" d="M160.1,150.94c-1.28,1.73-2,3.91-4,5-1.12-.68-2.17.35-3.27.13-3.61.24-3.43-3.92-5.87-5.06.75-4.22,4.06-6.36,7.11-8.72a3.11,3.11,0,0,1,3.23,1.32c.64,3.39-2,5.26-3.52,7.61,1.08.64,1.08.64,3.1-.51A2.66,2.66,0,0,1,160.1,150.94Z"/><path class="cls-135" d="M152.15,151c2.4-1.81,3.55-4.49,4.91-7,.12-1,.49-2.18,1.58-1.94,2.26.5.45,2.79,1.44,4l1,1c.7,1.37-.29,2.16-1,3,0,.3,0,.61,0,.92-1.1.06-2.3-.16-3,1C155.29,152.34,153.34,153.64,152.15,151Z"/><path class="cls-136" d="M153.14,155c1.09,0,2.23-.23,2.93.94-2.1,2.27-4.11,4.65-7,6-1.57.33-1.4-.77-1.42-1.71C148.54,157.53,151.34,156.79,153.14,155Z"/><path class="cls-137" d="M160.09,150c.34-1,.69-2,1-3a2.08,2.08,0,0,1,2,1A3.25,3.25,0,0,1,160.09,150Z"/><path class="cls-138" d="M148.16,160c0,.82.06,1.59.94,2l0,1.86c-3.39-.45-1.4-3.19-2-4.82l.69-.2A.94.94,0,0,1,148.16,160Z"/><path class="cls-139" d="M168.11,125v1c1.82,2.5,1.31,4.93-1.06,6.43s-2.74,3.57-3.7,5.62a7.37,7.37,0,0,1-1.86,2.43c-3.9.76-4.12.46-3.31-4.69,2.65-4.24,3.88-9.29,7.39-13C167,122.88,167.59,123.88,168.11,125Z"/><path class="cls-140" d="M161.09,140l1-2c1.62-.77,1.07-2.58,1.78-3.71,1.51-2.4,3.71-2.82,6.19-1.31v2a19.45,19.45,0,0,0-5,8c-.67,1.1-1.31.09-2,0C162.12,142.18,160.38,141.92,161.09,140Z"/><path class="cls-61" d="M170.1,133c-4.74-1.63-5.46,3.12-8,5,1.16-2.48.88-5.66,4.67-6.7,2.15-.6,1.06-3.44,1.33-5.3,1.42.1,2.92-.37,4.65.71C170.69,128.33,171.79,131.14,170.1,133Z"/><path class="cls-122" d="M164.08,117l1.13-.15c1.57.71,3.48.71,4.68,2.2-.47.58-.24,1.45-.82,2h-1c-1.16.63-2.33.22-3.51,0-1.58-.54-3.4-.79-3.68-3C161.64,116.85,163.24,118,164.08,117Z"/><path class="cls-141" d="M165,120l3,1.06c-.27,1.32,1.78,2.63,0,4a2,2,0,0,1-2.1-2.13,2.06,2.06,0,0,1-1.47-1.81A1.81,1.81,0,0,1,165,120Z"/><path class="cls-142" d="M169.07,121c-.26-.89-1.08-2,.82-2,1.16,1.21,2.77.57,4.12,1C172.78,122.42,171.12,122.69,169.07,121Z"/><path class="cls-143" d="M171.17,123.93c.59-.38.94-.76,1.3-.78s.6.41.91.64c-.33.3-.62.75-1,.84S171.73,124.28,171.17,123.93Z"/><path class="cls-144" d="M161.09,140l2,3h-.92c-.7.62-1.3,1.36-2.05,1.92,0,.38-.06.75-.08,1.13-1.86.6.46-5.05-3-2l-3-1c.48-3.19,1.7-5.84,5-7C160.83,136.77,155.44,141.14,161.09,140Z"/><path class="cls-145" d="M160.16,144.86c-.06-1.43.58-2.12,2.05-1.92C162.1,144.19,162.59,146.09,160.16,144.86Z"/><path class="cls-146" d="M94.88,178.87l-2.86.86A76.33,76.33,0,0,0,93.09,152a4.2,4.2,0,0,1-1.21-2.67c-.08-9.25-.74-18.51.37-27.76.68-1.19,1.5-2.11,3.07-1.51,2.11,3.45,1,7.26,1.23,10.93s0,7.29,0,10.93c.18,3.9-.08,7.8,0,11.7a51.27,51.27,0,0,1,0,5.26c.06,2.82-.09,5.65-.07,8.47a14.17,14.17,0,0,1-.37,3.18c-.46,2.14-1.34,4.21-1.1,6.48Z"/><path class="cls-71" d="M115.05,174.85c-6,1-11.9,2.29-18,2.06a6.47,6.47,0,0,1,1.29-4.41c1.45-.85,3.16-.75,4.68-1.32a9.57,9.57,0,0,1,1.39-.3c1.85-.24,3.78,0,5.55-.84,1.58-.53,3.13-1.34,4.86-.51C116.55,171.23,112.45,173.19,115.05,174.85Z"/><path class="cls-71" d="M123,166.85a7.14,7.14,0,0,0,1.08,4.1c-.45,1.31.12,2.88-1,4h0c-2.56-1.06-5.65,2.06-8-1-.74-1.93,1.21-3.11,1.34-4.81C118.17,167,120,165.24,123,166.85Z"/><path class="cls-147" d="M117.09,169.92c.15,1.73-1.42,2.65-2,4.06a6.4,6.4,0,0,0-.09.88l-3.6-1.44c.48-2.09,3.31-1.43,3.68-3.4A1.34,1.34,0,0,1,117.09,169.92Z"/><path class="cls-148" d="M98,173.05c1.63,1.75.36,2.81-.92,3.86l-1.88-1a3.32,3.32,0,0,1,.25-4.21A2.25,2.25,0,0,1,98,173.05Z"/><path class="cls-73" d="M96.11,172c-1.69,1-.87,2.56-1,3.93-.06.35-.12.71-.17,1.06a4.87,4.87,0,0,1,.11-6.09,1.58,1.58,0,0,1,1.23-.4,1.28,1.28,0,0,1,1,1.55A.82.82,0,0,1,96.11,172Z"/><path class="cls-149" d="M97.12,171.92l-1-1c-1-3.19,1.53-3,3.22-3.15,2.4-.27,4.83-.18,7-1.4a7.82,7.82,0,0,1,1.5-.44,57,57,0,0,0,20.77-7.46c1.83-1.06,3.61-2.38,5.93-2a1.81,1.81,0,0,1,1.1,1,3.57,3.57,0,0,1,.11,2.17,5.81,5.81,0,0,1-2.17,2.7,3.91,3.91,0,0,1-2.55.65,5.85,5.85,0,0,0-4.08,1.93c-.3,1-.76,1.67-1.92,1.07a2.2,2.2,0,0,0-2,.94c-2.34.34-4.62.79-6,3.07l-2,.1c-1.85-.51-3.35.74-5,1-1.89,1.14-4.17-.28-6,.93a4.58,4.58,0,0,0-1,.11A8.25,8.25,0,0,1,97.12,171.92Z"/><path class="cls-150" d="M125.07,165.91l1.92-1.07c1,.43,3.24-.37,2.49,1.81a3.58,3.58,0,0,1-4.11,2.07C123.46,168.29,125,166.89,125.07,165.91Z"/><path class="cls-151" d="M123.1,175c.49-1.3-2.47-3.47,1-4,2.08.91,2,2.34,1,4Z"/><path class="cls-150" d="M131.07,162.91l2-1a3.3,3.3,0,0,1,1,4l-1,.08C131.88,165.32,131.59,164,131.07,162.91Z"/><path class="cls-138" d="M147,159l-4.93-2c-2.66-.48-1.34-2.06-1-3.39a3.82,3.82,0,0,1,3.75-2,1.92,1.92,0,0,1,.75,1.19c-.26.61.12-.13,0,.5-.17.84-2.93,2.77.8,2.28,1,.89,1.63,1.86.79,3.2Z"/><path class="cls-152" d="M140.16,163.94h-1c-.35.57-.72.59-1.12.05a5.2,5.2,0,0,0-.88-.05,1.45,1.45,0,0,1-.5-1.82c.75-1.71,2.48-1.75,3.92-2.3a2,2,0,0,1,1.29-.08c.81.66,1,1.39.23,2.22Z"/><path class="cls-153" d="M142,153.93c-.25,1-1.44,2.14.09,3.14V158c-.58.52-.18,1.54-1,1.94l0,.22c-2,.08-2.09-1.43-2.41-2.78a7,7,0,0,1,1-3.27,2.06,2.06,0,0,1,1.16-.68A1.7,1.7,0,0,1,142,153.93Z"/><path class="cls-154" d="M141.1,159.94a1.93,1.93,0,0,1,1-1.94c.47,1.42,2.54,2.17,1.69,4.06-.08.18-1.07-.06-1.64-.1Z"/><path class="cls-155" d="M137.19,161.93c0,.67,0,1.34,0,2-1.11.53-1.47,2.22-3.08,2a6.3,6.3,0,0,1-1-4l1.94-2c1.48-.71,1.63.57,2.08,1.39C137.14,161.53,137.17,161.73,137.19,161.93Z"/><path class="cls-156" d="M138.08,164l1.12-.05c.57,1.05,2.22,1.53,1.68,3.16C138.76,167.13,137.91,166,138.08,164Z"/><path class="cls-157" d="M87.11,172.06l1-1a1.51,1.51,0,0,1,1.2-.62,1.81,1.81,0,0,1,1.16.76c.62,1.64-.41,2.73-1.31,3.85L89,178.83c-2.48,1.87-2.86-.66-3.88-1.86C85.14,175.08,86.38,173.68,87.11,172.06Z"/><path class="cls-158" d="M93.13,121q0,15.51,0,31h-.92c-1.86-1.67-1.39-3.94-1.44-6-.19-8.08.26-16.18-.26-24.25-.54-2.6-3.32-4.07-3.51-6.86,1.59-1.47,3.19-2.92,5.59-1.61C93.57,115.73,94.3,118.28,93.13,121Z"/><path class="cls-159" d="M91.07,119.94c1.63,1.46,1,3.4,1,5.15.07,9,.06,17.92.07,26.88,0,.67-.06,1.34-.1,2a1.1,1.1,0,0,1-1.52-.42c-1.71-5.13-.49-10.41-.83-15.61-.19-4.45-.71-8.88-.58-13.35C89.19,122.77,88.94,120.88,91.07,119.94Z"/><path class="cls-160" d="M91,154l1,0c0,6.47-.21,13,.12,19.41.18,3.46-1.48,2.06-3,1.68.28-1.33.57-2.66.85-4-.82-4.86.13-9.82-.74-14.7C89.13,155.31,89.39,154,91,154Z"/><path class="cls-161" d="M11.08,116.11l-.41,0h-.41c.48-2.6,4.71.49,4.6-3,.17-.13.35-.25.53-.37,1.05,0,2,.68,3.06.48.41-.1.82-.16,1.23-.22A18.29,18.29,0,0,0,24,112c.86-.3,1.72-.61,2.59-.88,2.62-.23,5-2.24,7.8-1.08a2.68,2.68,0,0,1,.34,2.15c-6.09,4.5-13.19,6.17-20.5,7.32C11.22,120,12.28,117.08,11.08,116.11Z"/><path class="cls-162" d="M4.12,94c0-.3.09-.6.12-.91L6.11,92a2.84,2.84,0,0,1,2,2.71A6.26,6.26,0,0,1,8,96.09a4.76,4.76,0,0,0,1.45,5.85,12.05,12.05,0,0,1,.7,8c-2.42.17-3.24-2.38-5.16-3.07C3.77,102.64,4.09,98.3,4.12,94Z"/><path class="cls-163" d="M7.17,95.92c0-.32.07-.65.11-1,2.76-1,2.79,1.47,3.6,2.92.3,5,1,9.77,4.64,13.57a2.37,2.37,0,0,1,0,1.49l-.63.14c-2.44.27-3.41-1.67-4.7-3.12-2-2.34,0-5.65-1.94-8C6.44,100.19,7.64,97.91,7.17,95.92Z"/><path class="cls-164" d="M10.11,98c-1.29-.7-.78-3.07-2.83-3L6.11,92c0-.3,0-.6,0-.9a5.45,5.45,0,0,1,.69-1.25c1.81-3.11,1.08-6.68,1.72-10,.52-2.72,1.32-5,3.78-6.5a3.24,3.24,0,0,1,3,.43c1.42,2,.61,4.07-.08,6.09C13.14,85.79,13.54,92.43,10.11,98Z"/><path class="cls-165" d="M12.2,74.05c-2.94,3.75-2.71,8.26-3,12.64-.13,1.63.92,3.91-2,4.21-.59-3-1.3-6.11-.78-9.19.31-1.85-1.13.05-1.16-.71,0-1,0-2-.07-3l2.13-7a1.9,1.9,0,0,0,1.89-1c.94-.73,1.66-.44,2.25.46A6.75,6.75,0,0,0,12.2,74.05Z"/><path class="cls-166" d="M5.17,81c.7-.1,1.84-1.44,1.74-.77-.5,3.6,2.55,7.11.2,10.67-.33.06-.65.12-1,.21C2.7,88,6.07,84.31,5.17,81Z"/><path class="cls-167" d="M11.18,70.94c-.36-1-1.13-1.16-2.06-1A7.23,7.23,0,0,1,10,65.88c2.89-.46,5,1.68,7.58,2.26,4.25,1.37,8.67,2.18,12.87,3.72,5.2,1.69,10.2,4,15.63,5,3,1.08,5.85,2.35,8.89,3.19a26,26,0,0,1,12.34,4c1.33.61,2.81.73,4.15,1.32,1.39.84,2.76,1.69,1.69,3.67a3.78,3.78,0,0,1-2.94.86c-4.7-1-9.1-3.08-13.8-4.1a67.74,67.74,0,0,0-8.18-3c-1.75-.65-3.65-.92-5.3-1.86a24.39,24.39,0,0,0-5.79-1.77,11.38,11.38,0,0,1-2-.54c-.85-.31-1.69-.69-2.53-1C29.86,76.42,26.83,76.1,24,75a21,21,0,0,1-2.52-1.24,12.48,12.48,0,0,0-6.11-1.5C13.89,72.19,12.3,72.28,11.18,70.94Z"/><path class="cls-168" d="M17.11,69A15.8,15.8,0,0,1,10,65.88a3.25,3.25,0,0,1,2.11-1.95c2.36-.12,5,1.4,7-1,1.43,1.28-.57,3.23.91,4.5C20.41,70.43,18.66,69.54,17.11,69Z"/><path class="cls-169" d="M70.17,17c-4.09.21-1.53-2.69-2-4.2,6.34,1.65,11.78-2.94,18-2.63,1.58.08,1-3.43,3-4,0,1.59,0,3.17-.05,4.75a2.57,2.57,0,0,1,.35,2.79,1.64,1.64,0,0,1-1.21.68c-4-1.86-7.46-1-10.39,2.27A18.67,18.67,0,0,1,72.21,18,3.11,3.11,0,0,1,70.17,17Z"/><path class="cls-170" d="M92.18,71.91c.93.76,1.36,2.22,2.94,2.07,1.12-1.27,2.53-2.33,4.22-1.91,2.81.7,5.39-.18,8-.63,2,1,.62,2.22,0,3.19-.77,1.22-.42,1.74.85,2a9.64,9.64,0,0,1,3.41,3.09c.6.91,1,1.92,1.68,2.78,1.55,1.36,3,.08,4.5-.16,1.87-.3,3.77-1,5.3.84-1.08,3-4.08,2.85-6.39,3.64-1.92.65-2.46,1.2-1.89,3.41.89,3.45,1.42,7.14-1.64,10.08-.68,1-.21,2-.26,3.08-.47,2.89-2.48,4.78-4.39,6.73a7,7,0,0,1-4.09.13,2.33,2.33,0,0,1-1.08-2.41c1.49-3.33,3.36-6.49,4.35-10,.31-2.9-.45-5.85.73-8.72.73-1.78-.62-3-1.73-4.26a32.93,32.93,0,0,1-2.2-2.53c-.8-1.71-3-2.09-3.69-3.87.31-3.11-1.77-.42-2.51-1-2.33-.64-4.85-.8-6.7-2.64A2.34,2.34,0,0,1,92.18,71.91Z"/><path class="cls-171" d="M95.2,51l0-12c8.81-1.26,16.29,2.47,23.68,6.45a3.6,3.6,0,0,1,2,3.7,4.69,4.69,0,0,1-.94,2.11c-1.2,1.14-1.85,3.05-4,2.93-3.72-4.58-9.33-5.34-14.45-7.08-2.71-.93-4.08.31-4.62,2.87C96.51,50.66,96.05,51.18,95.2,51Z"/><path class="cls-172" d="M95.24,25c0-.68,0-1.37,0-2.06,4.84-2.91,9.66.14,14.48.13,1.94,0,3.89.65,5.87.07,7.33.45,13.88,2.48,18.15,9.07-.16,1.58-1.25,2.73-1.9,4.09-1,1.32-1.58,3.17-3.81,2.79-1.7-6.82-7.83-7.27-13-9C108.63,27.45,101.53,27.83,95.24,25Z"/><path class="cls-173" d="M120.09,49.89c-.8-5.32-5.8-5.1-9.23-6.83-4.87-2.46-10.38-2.84-15.63-4l0-3c3.54-2.41,7.38-1.39,11.12-.84,4.32.63,8.2,2.72,12.31,4.07,2.16,1.54,5.16,2.27,5.46,5.63C123.72,47.3,123.59,49.94,120.09,49.89Z"/><path class="cls-174" d="M119.09,40a12.8,12.8,0,0,1-6.53-1.54C107.12,35.82,101.15,35.7,95.2,36l0-5c1.2-2.39,3.39-2.48,5.51-2,6.56,1.31,13.16,2.58,19.14,5.83,1.45,1.74,5,3.48,0,5.27Z"/><path class="cls-175" d="M120.1,36c-6-2.68-12.38-4.22-18.74-5.76a7.81,7.81,0,0,0-6.2.75c0-1.33,0-2.66,0-4,5.51-1.12,10.67.61,15.91,1.88,1.61.39,3.31,1.94,5,.12a49.92,49.92,0,0,1,9.47,3.89c2.67,1.48,3.82,3.26,2.61,6.21.61,1.07.33,1.78-.86,2.13C124.79,39.66,122.65,37.54,120.1,36Z"/><path class="cls-176" d="M95.2,51l.91-1c3.92-2.12,7.62-.36,11.19.91,2,.69,3.71,2.14,5.58,3.22,3.82,2.21.46,4.94.29,7.45a2.69,2.69,0,0,1-2.74,2c-1.9-1.56-6.23-.5-5.46-5,.07-.41-.67.12-1.06,0-2.62-.83-5.42-1.06-7.92-2.32-.83-1.3.13-2.94-.79-4.23Z"/><path class="cls-170" d="M88.12,13.83l.85,0c2.52-2.18,2.6-.27,2.61,1.6,0,5.77-.11,11.54,0,17.31.18,7-.65,14.13.45,21.17,0,.69,0,1.38,0,2.07-1.1,4.06-.13,8.21-.53,12.29-.12,1.27.91,3.06-1.26,3.67a3.12,3.12,0,0,1-1.14-1.4C88,63.82,88.73,57,88.67,50.24c-.16-3.31-.07-6.61,0-9.91-.14-3.12.2-6.24,0-9.36-.12-1.8-.68-3.58-.43-5.41a18.36,18.36,0,0,0,.59-4.78,16,16,0,0,0-.6-3.64c-.16-.57-.31-1.14-.47-1.7a2.52,2.52,0,0,1,0-1.16Z"/><path class="cls-177" d="M110.16,63.08c1.12-.2,1.92-.72,2-2a41.91,41.91,0,0,0,3.06-5.48,2.08,2.08,0,0,1,2.07.21c.92,1.47.27,2.88-.12,4.3-2.54,4.32-4.51,9.08-9.13,11.79-3.86,3.48-8.82,0-12.91,2.06,0-1,.07-2.08.1-3.12a3.75,3.75,0,0,1,1.9-.88c5.22,1.91,8.89.43,10.93-4.89A3.58,3.58,0,0,1,110.16,63.08Z"/><path class="cls-178" d="M116.1,29c1,2.22-.66,2.3-1.92,1.91C108,29,101.53,28.2,95.17,27c0-.66,0-1.32.07-2C102.45,25,109.28,27,116.1,29Z"/><path class="cls-179" d="M92.07,54c-1.61-1.49-.93-3.43-.94-5.18,0-10.62,0-21.25,0-31.87,0-1.3,1.09-3.78-2.11-3l.24-3c1.3-.13,3.09-2.27,3,1.5C92,26.25,92.09,40.1,92.07,54Z"/><path class="cls-180" d="M116.1,24c-4.37,2.61-8.65-.44-13-.38-2.51,0-5.23-.52-7.87-.64-.24-1.14-.47-2.27.8-3a4,4,0,0,1,3.08-1.11C104.88,20.19,111.08,20.16,116.1,24Z"/><path class="cls-179" d="M90.1,72c2-2.8.56-6,1-9,.34-2.33-.89-4.89,1-7q0,7.95.1,15.89L92.09,75a2,2,0,0,1-1.27.4c-1.36-.28-3.18-.15-3.62-1.7s1.15-1.55,2.21-1.77Z"/><path class="cls-181" d="M99.1,20,96,20a5.41,5.41,0,0,1-.92-4c1.72.07,3.53-.37,5,.92,1.72,1.51,4.14-.28,6.06,1.35C104.48,21.73,101.17,18.57,99.1,20Z"/><path class="cls-182" d="M97.1,70.89l-1.88,0A148.2,148.2,0,0,1,95.2,52c1.35,1.09.77,2.63.92,4C98.5,60.83,97.77,65.86,97.1,70.89Z"/><path class="cls-183" d="M19.12,67c-3.44-1.31,1.32-2.75-.07-4.1C21.33,55.78,26,50.06,30.13,44c4-4.34,7.45-9.34,13-12.06,1,2,1.07,2.11-1,4.18A102.69,102.69,0,0,0,29,51.1,57.08,57.08,0,0,0,23,62.42c-.71,1.73-1.47,3.42-3.18,4.43Z"/><path class="cls-184" d="M22.11,63c.1-4.74,3.19-8.17,5.48-11.84,3.7-5.93,8.56-11,13.58-15.82C42,34.49,44.12,34,43.12,32a5.58,5.58,0,0,1,.07-.91l1.9,1c.83.53,1.61,1.09,1.26,2.27-1.79,3.32-5.37,4.78-7.75,7.54C33.83,47.36,29.34,53,26.05,59.56a6.73,6.73,0,0,1-3.25,3.6Z"/><path class="cls-185" d="M46,34c-.32-.67-.64-1.34-.95-2l2,0h1c5.3,3.34,7.81,8.85,10.85,14,.17,1.27.09,2.45-1.11,3.25a2.27,2.27,0,0,1-2-.5,13,13,0,0,1-3.17-4.12,20.47,20.47,0,0,0-1.19-2.09c-.61-.78-1.31-1.47-1.91-2.26-.24-.32-.46-.65-.67-1a22.77,22.77,0,0,0-2.35-2.83A2.29,2.29,0,0,1,46,34Z"/><path class="cls-186" d="M89.08,16l1,4c-1.22,2.4-3.51,2.11-5.65,2.31-9.43.88-18,4.52-26.46,8.41A6.8,6.8,0,0,0,54.33,34a3.84,3.84,0,0,1-1,1.12A5,5,0,0,1,49.12,30l1-2c4.72-4,10.37-6.26,16.12-8.27a1.59,1.59,0,0,1,1.38-.06c-.44-.46-1.28,0-1.62-.72.06-.3.14-.59.22-.88,1.37-.13,2.86.19,4-1l1.91.07c4.32,1,8.1-1.75,12.3-1.77C86,15.32,87.61,15,89.08,16Z"/><path class="cls-187" d="M66,18.94l2.9.15C62.24,21.3,56.65,25.66,50.12,28c0-.36-.06-.73-.1-1.1C54.53,22.6,60.18,20.6,66,18.94Z"/><path class="cls-188" d="M49.12,30l4,5a4.34,4.34,0,0,1,2.71,2c1.54,2.22,3.27,4.31,4.76,6.57a23,23,0,0,0,3.64,4.59A9.12,9.12,0,0,1,65,49.17c.91,1.53,1.88,3,2.89,4.48a9.56,9.56,0,0,1,1.8,3.79,2.06,2.06,0,0,1-1.58,2.19,2.64,2.64,0,0,1-2.61-1C63.17,54.33,59.15,51,58.13,46l-10-14A2,2,0,0,1,49.12,30Z"/><path class="cls-189" d="M99.1,20c1.62-1.94,4-.35,6-1.36-1.4-1.49-3.89.32-5-1.73l3-.05,3.83.24c9.67,2.59,19,5.87,27.15,12,2.11,2,1.82,3.28-1.06,3.89-4.12-5.89-10.41-7.69-17-9Z"/><path class="cls-190" d="M133.07,33a2.73,2.73,0,0,0,1.06-3.89l.86-1.92c3.2,1.11,1.36-2.79,3.1-3.13,1.4,3.47,2.68-1.3,4-.06-1.31,3.77-4.24,6.55-6.09,10a2.73,2.73,0,0,1-.89.9c-1.33.46-2.41,1.85-4.07,1.14A3.47,3.47,0,0,1,133.07,33Z"/><path class="cls-191" d="M135.14,34,136,34a2.21,2.21,0,0,1,1.09,2.13c.56,1.72-.84,2.76-1.43,4.08-.73,1-1.48,2.05-2.16,3.12a35.71,35.71,0,0,0-3,4.13c-1.63,2.41-3.37,4.73-5.18,7a2.94,2.94,0,0,1-2.59,1,2.26,2.26,0,0,1-1.49-2.33A65.84,65.84,0,0,1,135.14,34Z"/><path class="cls-192" d="M135,40l2.15-3.88c1.12-1.15,2.12-2.47,4-2.39,3.83,4,8.57,7.18,11.22,12.26-3.8.44-5.16-2.9-7.19-4.93-2.43-2.42-4.64-3.42-7.59-1.22C136.7,40.12,135.87,40.57,135,40Z"/><path class="cls-193" d="M137.1,39c3.14-4.11,5.61-2,8.29.7,2.19,2.19,4,4.88,6.93,6.24,3.71,3.3,5.93,7.56,7.78,12.06,1.09,1.12,1.22,2.72,2,4l1.17,2.95c-.28.67,1.07,1.47-.16,2.06-2,.62-2.63-1-3.33-2.18-3-5.15-6.41-10-9.6-15-.33-.51-.38-1.18-.9-1.59a1.53,1.53,0,0,1,0,1.83c-3.22.11-4.55-2-5.5-4.62.78-3.44-1.25-4.07-4-4C138.43,41.12,136.83,41.05,137.1,39Z"/><path class="cls-192" d="M162.11,62a5.37,5.37,0,0,1-2-4A3.8,3.8,0,0,1,162.11,62Z"/><path class="cls-192" d="M149.1,50c-.09-.79-.18-1.58-.34-3.11,4.92,5,7.71,10.67,11.2,15.86,1,1.47,1.26,3.46,3.16,4.26a5.35,5.35,0,0,0,0,.89,4.17,4.17,0,0,1-4.7,1.49,65.35,65.35,0,0,0-8.65-16.66C149.15,51.94,148.57,51.07,149.1,50Z"/><path class="cls-194" d="M158.1,69l5-1.13,5,1.2c0,.31,0,.62,0,.93-5.3,1-9.86,4.58-15.47,4.54-1.77-3.18,1.7-3.25,2.8-4.74A3.72,3.72,0,0,1,158.1,69Z"/><path class="cls-195" d="M44.12,154l-2,0c-3.28-.3-4.19-3.95-7-4.91A97.79,97.79,0,0,1,23.14,132c-.67-1.34-1.35-2.68-2-4a5.91,5.91,0,0,0-1.94-5c-.25-.69-1.3-1.3-.18-2.11,3.46-1.21,3.82,1.91,4.7,3.7,2.9,6,5.72,11.9,9.93,17.08a53.91,53.91,0,0,0,3.91,4.47C39.33,149.07,43.56,150,44.12,154Z"/><path class="cls-196" d="M89.1,170.91a6,6,0,0,1-.94.17c-2.34-4.4-6.85-2.16-10.15-2.81a98.17,98.17,0,0,1-24.85-8.74c-2.1-1-2.12-2.7-2-4.56a20.41,20.41,0,0,1,4-6,53.07,53.07,0,0,0,30.93,12.73,5.66,5.66,0,0,1,3.26,1C90.17,165.47,91.06,168.23,89.1,170.91Z"/><path class="cls-197" d="M57.07,147c.43-2.87,3.36-4.27,4.08-7a1.78,1.78,0,0,1,1.45-.43c6.71,1.4,13.33,3.2,20.09,4.48,7.52,1.42,8.23,3.18,6.84,10.65-3.82,4.38-9,3.43-13.41,2.34A43.14,43.14,0,0,1,57.07,147Z"/><path class="cls-198" d="M57.07,147c4.6,1,7.88,4.57,12.09,6.36,6.48,2.74,13,4.38,19.93,1.66,1,2.66,1.76,5.33,0,8-12.22.76-22.47-4.41-32.38-10.68a3.23,3.23,0,0,1-1.6-3.29Z"/><path class="cls-199" d="M62.12,140h-1l-1-1c-.15-.17-.29-.35-.43-.53a2.72,2.72,0,0,1,0-1.33c.89-2.07,2.81-3.41,3.83-5.39a43,43,0,0,1,2.85-3.61c2.17-2.76,3.6-6,6-8.64.78-.81,1.4-1.89,2.79-1.7a3.39,3.39,0,0,1,1.36,2.36c-1.32,3.92-4,7-6.6,10-.76,1.08-1.41,2.24-2.15,3.34C65.9,135.7,65.21,138.9,62.12,140Z"/><path class="cls-200" d="M49.09,152.94a2.07,2.07,0,0,1-1-2c-1.31-2.64,1.37-3.6,2.22-5.32,2.22-2.27,3.14-5.46,5.39-7.7a1.79,1.79,0,0,1,1.25-.26c.24,2.2,2.22.19,2.95,1.21l.24.09Z"/><path class="cls-122" d="M11.08,116.11c.17,0,.42-.13.49-.06,5.23,5.32,9.93-.37,14.83-.89,2.66-.28,5.16-2,7.73-3.14,3.2-2.1,6.82-2.94,10.53-3.54a5.55,5.55,0,0,1,3.52,1.31,1.4,1.4,0,0,1-.18,1.42c-2.2,1.79-5,2.18-7.55,3-3.66,1-7,3.12-10.84,3.47a25.53,25.53,0,0,0-3.9,1.31c-.63.3-1.26.58-1.91.84-1.58.49-3.16,1-4.8.23l-3.83,1C13.41,119.73,10.11,119.69,11.08,116.11Z"/><path class="cls-201" d="M19,120.07,24.12,119a99.71,99.71,0,0,0,13.41,24.4c1.21,1.57,1.07,1.67-.42,3.59-5.56-4.58-8.85-10.76-12.17-17-1.71-3.19-2-7.39-5.94-9.12A3.66,3.66,0,0,0,19,120.07Z"/><path class="cls-202" d="M25.11,118a6.57,6.57,0,0,1,4-1c2.31-.52,2.87,1.39,3.45,2.79C36.37,129,41.83,137,49.94,143a2.53,2.53,0,0,1,1.18,3l-3,5h-1c-8.22-5.18-13.74-12.69-18.06-21.16C27.16,126.11,24.21,122.67,25.11,118Z"/><path class="cls-203" d="M25.11,118c3.7,11,9.4,20.68,18,28.55,1.45,1.33,2.64,2.94,4,4.42a6.14,6.14,0,0,1-3,3c-2-2.68-5.51-3.82-7-7,.35-4.36-3.74-6.3-5.32-9.66-2.82-6-7.59-11.17-7.67-18.33Z"/><path class="cls-204" d="M165.09,114a6.55,6.55,0,0,1-4-1c-2.86-1.75-2.48-4.52-2-7.13,1.2-7.16.57-14.25-.47-21.34-.5-3.35-1.63-6.39-4.61-8.41,2.13-2.94,4.79-3.8,8.12-2.09,4.47,11.19,4.86,22.76,3.33,34.54C165.18,110.32,165.19,112.16,165.09,114Z"/><path class="cls-205" d="M162.08,74a15.36,15.36,0,0,0-8,2A3.82,3.82,0,0,1,152,77.66a5.07,5.07,0,0,1-2.08.24c-2.76-.76-2.1-2-.47-3.36a2.77,2.77,0,0,1,2.61-.63c3.87.43,6.53-2.88,10.23-3.26a51.36,51.36,0,0,1,5.84-.63,3.83,3.83,0,0,1-.09,1A11.77,11.77,0,0,0,162.08,74Z"/><path class="cls-198" d="M152.06,77a2.15,2.15,0,0,1,2-1c5.67-.24,5.32,4.71,5.83,7.8,1.32,7.89,2.11,15.92.24,23.93a7,7,0,0,0,.94,5.24l-5-1a1,1,0,0,1-1.24.18c-3.68-2.81-4.07-6.19-1.72-10,.43-.71,1.11-1.51,1-2.26C153,92.26,154.65,84.41,152.06,77Z"/><path class="cls-206" d="M153.07,113c2.05,1.76,5.12,1,7.11,2.91a4.33,4.33,0,0,1-3.14,1.61,27.53,27.53,0,0,1-5-.58c-2.3-.56-4.24-2.06-6.56-2.57-1.36-.31-2.91-.28-3.63-1.85.67-.82,1.45-1.58,1.25-2.79a3.09,3.09,0,0,1,1.38-.42C147.56,110.08,150.82,110.36,153.07,113Z"/><path class="cls-207" d="M153.07,113l-9-3c-.31-1.48.82-1.66,1.79-2a7,7,0,0,1,2.29,0c2.74.51,5.36,1.25,6.93,3.85l1,.1C155.4,113.17,154.18,112.94,153.07,113Z"/><path class="cls-208" d="M157.13,116.94c.73-1.18,2-.9,3.05-1l3.9,1.08c-.7,1.18-1.89,1-3,1-1,1-2.07.47-3.1-.05A2.69,2.69,0,0,1,157.13,116.94Z"/><path class="cls-209" d="M142,153.93c-.3,0-.59,0-.88,0-1.49-2.44.56-3.74,1.86-5a88.48,88.48,0,0,0,18.18-25.37c.69-1.45,1.16-3.77,3.8-2.54l1,1.84c-2.25,4.4-4,9.07-6.91,13.12l-5,7-6.93,8a1.64,1.64,0,0,1-1.91,1.25Z"/><path class="cls-210" d="M145.22,152.24l1.91-1.25c1.13.15,3.11-1.41,3,1.4-.12,2.24,1.22,2.7,3,2.62-.3,3-3.33,3.31-5,5l-.94-1.13L146.05,156q-.37-1.5-.84-3C145.2,152.78,145.21,152.51,145.22,152.24Z"/><path class="cls-144" d="M152.15,151c1.39,1.62,3.26.71,4.91.94-1.09,1.6-3.08,1.44-4.46,1.51C150.49,153.57,151,152.11,152.15,151Z"/><path class="cls-196" d="M165,121c-3.4.62-3.11,4.06-4.19,6.15a89.06,89.06,0,0,1-17.45,23.09c-1,1-2.27,2-2.2,3.68l-1,0c-3.26-.05-3.78-2.55-4.43-4.95,1-4.29,5-6.11,7.61-9,5.34-5.92,8.85-12.86,12.57-19.72a11,11,0,0,1,2.24-3.26l3,1A5.5,5.5,0,0,0,165,120C165,120.31,165,120.67,165,121Z"/><path class="cls-211" d="M95.12,154q0-6,0-12c.38-.53.64-1.35,1.27-1.46,7.63-1.34,14.72-4.49,22.16-6.48,2.63.41,3.69,2.68,5.21,4.41.89,1.49,2.29,2.86,1.27,4.86-5.23,3.81-11.89,4.89-17,8.93a2.67,2.67,0,0,1-2.38.52C102,151.57,98.56,152.92,95.12,154Z"/><path class="cls-212" d="M119.13,135c-4.65,0-7.94,3.85-12.5,4.4-3.88.46-7.66,1.7-11.49,2.59q0-5.49,0-11c2.41-2,5.52-2.12,8.37-2.88s5.32-1.81,7.2-4.09c4.16-.68,4.24,3.39,6.19,5.3C117.83,131.11,120.61,132.21,119.13,135Z"/><path class="cls-213" d="M108.1,167h-1a18.57,18.57,0,0,1-12,1v-9c2.17-1.73,4.75-2.17,7.39-2.54,6.46-.9,12.25-3.91,18.38-5.86,3.12-1,3.1-5.1,6.31-5.83,2.81,2.14,5.85,4.13,5.18,8.41-10.19,6-20.8,10.71-34,11.43,2.9.4,4.65-.07,6.39,0C106.35,164.67,108.3,164.34,108.1,167Z"/><path class="cls-214" d="M127.07,145c-1.88,5-5.81,6.9-10.69,8.63A103.48,103.48,0,0,1,95.11,159c0-1.67,0-3.35,0-5,1.23-.8,1.54-2.9,3.26-2.85,4.87.15,9.41.2,13.88-2.88,2-1.39,5.16-1.75,7.32-3.54A7.08,7.08,0,0,1,125.1,143C126.73,142.69,127.38,143.37,127.07,145Z"/><path class="cls-215" d="M111.1,124c.39,2.64-1.52,3.53-3.43,4.15-4.08,1.32-8.18,2.65-12.52,2.84,0-3.67-.07-7.33-.11-11a2.72,2.72,0,0,1-.48-2.94c2.37-2.78,5.74-3.1,9-3.7a4.67,4.67,0,0,1,2,1C108,117.2,111.43,119.52,111.1,124Z"/><path class="cls-216" d="M95.19,117,95,120l-1.91,1a18.37,18.37,0,0,1-1-7.95c2-1.15,2.89.09,3.61,1.7A3.45,3.45,0,0,1,95.19,117Z"/><path class="cls-217" d="M95.11,168c4.07.57,8-.82,12-1-1.78,2.18-4.26,1.94-6.7,2-1.62.07-3.8-.83-4.27,1.91h-1C95.1,169.93,95.11,169,95.11,168Z"/><path class="cls-218" d="M107.39,173.84c-.08,1.24-.81,1.12-1.4,1.1s-1.37-.16-1.39-1,.71-1,1.34-.88A6,6,0,0,1,107.39,173.84Z"/><path class="cls-64" d="M97.12,171.92l5.95.13c-1.46,1.58-3.41.64-5.11,1L96.11,172Z"/><path class="cls-64" d="M104,171.94c1.83-1.53,4-.64,6-.93C108.29,172.76,106.06,171.67,104,171.94Z"/><path class="cls-217" d="M108.1,167c-2.91-2.54-6.07-.68-9.11-.42-1.43.12-2.36-.26-2.63-1.53-.32-1.52.76-2.09,2.08-2,11.78.75,21.49-5.32,31.76-9.56a14.82,14.82,0,0,1,1.91-.48,5,5,0,0,1,3.27,2.84,1.38,1.38,0,0,1-.32,1.18c-5.9,1.66-10.61,5.81-16.55,7.59A53.76,53.76,0,0,1,108.1,167Z"/><path class="cls-219" d="M135.06,157l0-1c-1.19-2.8.49-2.35,2.16-1.92a3,3,0,0,1,1.76,3l2,3.11c-.47,2.38-3,.2-3.86,1.77l-.32.08c-.34-1.38-.45-2.86-1.58-3.93C135.21,157.71,135.14,157.35,135.06,157Z"/><path class="cls-67" d="M135.29,158.08c2.76.41,1.64,2.39,1.58,3.93L135,159.94C135.12,159.32,135.21,158.7,135.29,158.08Z"/><path class="cls-220" d="M145.21,153.06c1.14.74,2.69,1.38.84,3C142.34,156,144.17,154.42,145.21,153.06Z"/><path class="cls-221" d="M139,157.05l-1.8-2.13c-5.17-5.21-10.17-10.54-12.85-17.57a2,2,0,0,1,1.22-1.64,2.81,2.81,0,0,1,1.94.72,20.14,20.14,0,0,1,3.6,4c1.57,2.88,4.14,5.18,5,8.49,1.34,1.66,1.94,3.91,4,5C140.05,155.11,140.23,156.33,139,157.05Z"/><path class="cls-222" d="M62.12,140l5-7c4.3,5.76,11,6.11,17.2,7.72,1.34.35,3.31-1.45,4,1.17.36-1.43-.59-2.73-.4-4.18s.09-2.66,1.05-3.75c2.71-.42,1,2.32,2.13,3l0,17c-1.17,4,.7,8,0,12-.29,1.73.56,3.66-1,5.14a3.46,3.46,0,0,1-1-.17c.87-2.65-.46-5.29,0-7.94,0-2.66,0-5.33,0-8-.23-2.45,1.2-5.83-.69-7.18a20.94,20.94,0,0,0-12.07-3.73C71.12,144.07,66.79,141.57,62.12,140Z"/><path class="cls-223" d="M91.06,136.93l-2-3c-3.91-3.16-8.19-4.63-13.27-3.41-2.22.53-4.58.72-6.72-.59l6.93-10.06c0-4,3.1-5.63,6-7.37A5.78,5.78,0,0,1,87.09,115c1.68,1.37,3.32,2.78,4,5C89.65,125.6,90.69,131.27,91.06,136.93Z"/><path class="cls-224" d="M87.09,115l-4.91-2c-2.38-2.35-3,2.09-5,1.31A2.59,2.59,0,0,1,75.68,113c.08-3.13-2.13-5.28-3.36-7.86-.46-1.78.34-3.55,0-5.33a4,4,0,0,1,.38-2,2.34,2.34,0,0,1,1.76-1.11c1.07.32,1.41,1.2,1.66,2.15,1.54,6.37,5.47,9.42,11.41,8.83,3.26-.42,6.32-2,9.71-1.7,2.21.83,4.85.14,6.79,1.91a2.34,2.34,0,0,0,1,2.1c2,.72,2.68,2.28,2.54,4.29-.56,1.12-1.32,1.55-2.45.69l-1-1c-1.69-1.11-3,.24-4.43.69s-2.9,1.5-4.48.29a3,3,0,0,0-3-1.93Z"/><path class="cls-225" d="M33.14,77a2.12,2.12,0,0,1,2,1c1.71,4.36.25,8.72-.15,13-.37,4.15-1,7.9,2.81,11.22,2.67,2.29,1.3,5.06-1.34,7a4.32,4.32,0,0,1-2.32.77c-2.57,1.08-5.12,2.21-8,2a28.43,28.43,0,0,0,.71-10.16c-.48-7.25-.61-14.54,1.66-21.62C29.24,77.92,29.82,75.53,33.14,77Z"/><path class="cls-226" d="M33.14,77c-1.32.08-2.58,0-3,1.82-2.11,8.88-3,17.8-1.26,26.84.54,2.81.36,5.2-2.76,6.38a2.08,2.08,0,0,1-2,.91c-2.92-6.3-3.22-13-2.87-19.75.31-5.9,1.74-11.7,2.3-17.59A2.46,2.46,0,0,1,24.12,74C27.12,75,30.48,74.92,33.14,77Z"/><path class="cls-227" d="M24.12,75A2.06,2.06,0,0,1,25,77.15a75.81,75.81,0,0,0-.94,33.77,10.17,10.17,0,0,1,0,2,8.08,8.08,0,0,1-5,1.11c-3.68-9.21-3.33-18.57-1-28,3.65,1.07,1.42,3.69,1.55,6.86.6-5,.39-8.94,1.21-12.77C21.32,78,21.72,75.87,24.12,75Z"/><path class="cls-228" d="M19.11,86c-2.05,7.5-1,15.09-.51,22.63.1,1.77.48,3.59.52,5.41-.3,0-.61.08-.92.11-3-3.37-3.21-7.7-3.28-11.75C14.83,96.94,13,91.54,14.49,86c.38-1.4-.39-2.94-.52-4.43a1.8,1.8,0,0,1,.08-1.6l1.11-6a3.24,3.24,0,0,1,.77-2.84,8.63,8.63,0,0,1,6.21,1.79C21.46,77.37,21.61,82,19.11,86Z"/><path class="cls-229" d="M14.19,81c2.72,3,.65,6.56,1.12,9.75,1,6.81.19,13.81,2.39,20.46a19.64,19.64,0,0,1,.5,2.91c-1.61,1.18-1.65-1.17-2.71-1.21l-.44-.93c-4.27-8.11-3.47-16.68-2-25.21C13.35,84.87,13.18,82.8,14.19,81Z"/><path class="cls-230" d="M34.12,110l1-1c2-.58,3.59-2.1,5.75-2.21,1.59,0,3.23-.1,4.32,1.43,0,.26,0,.53-.07.79-3.58,1.31-7,3-11,3C34.12,111.34,34.12,110.67,34.12,110Z"/><path class="cls-231" d="M7.17,95.92c1.75,1.77.63,4,1.05,6C5.07,100.43,6.08,98.18,7.17,95.92Z"/><path class="cls-232" d="M14.19,81c-1.8,10.38-1.07,20.7.86,31-4.84-3.54-5.53-8.54-4.94-14a133.75,133.75,0,0,1,3.94-18C14.1,80.33,14.14,80.67,14.19,81Z"/><path class="cls-233" d="M15.93,71.15A2.38,2.38,0,0,1,15.16,74l-3,.06c-.95-.26-2.43.4-2.69-1.13-.17-1,.81-1.56,1.67-2Z"/><path class="cls-234" d="M41.06,107.94l-5.94,1c4.13-3.69,4.07-4-.32-7.29-3.15-2.34-1.67-5.82-1.53-8.71.25-5,1.2-10,1.85-15l2,.08c1.62,1.78,4.05,1.06,6,2,1.47,1.2,3.71.43,5,2-5.43,5.65-5.21,17.37.43,23C47.1,108.7,43.31,106.34,41.06,107.94Z"/><path class="cls-235" d="M48.12,105c-1.19-2.07-3,.2-4.42-.63.07-6.37-1.42-12.64.19-19,.7-2.83,1.73-3.56,4.21-3.32a14.29,14.29,0,0,1,8.11,2.94c-2.44,5.9-2,11.76.17,17.62C54.05,104.78,51.64,106.75,48.12,105Z"/><path class="cls-236" d="M56.13,102c-4.23-4.72-4.19-13.47.08-17.06,4.91.4,9.36,2.35,13.86,4.13.78,2.92.33,5.9.43,8.85-1,2.12-3.27,2.1-5,2.9a30.73,30.73,0,0,1-3.52,1.27C60,102.39,58,103.6,56.13,102Z"/><path class="cls-237" d="M46.14,78c-5.7-.52-10.74-3.15-16-5-1.42-1-1.59-1.9.1-2.77a6.1,6.1,0,0,1,3-.19c3.76.83,7,3.26,10.91,3.6a7.79,7.79,0,0,1,2.78.84,2.07,2.07,0,0,1,.77,1.21A2.21,2.21,0,0,1,46.14,78Z"/><path class="cls-238" d="M19.11,86c.82-4.39.34-9.08,3-13l2,1.06v1c-3.37,5.48-1.89,12.15-5,17.88Z"/><path class="cls-239" d="M70.09,98a9.93,9.93,0,0,1,0-8.92l3-.09c.21.07.43.15.65.21a6,6,0,0,1,2.14,3.43,4.26,4.26,0,0,1-1.73,4.33l-1,1A2.13,2.13,0,0,1,70.09,98Z"/><path class="cls-240" d="M30.12,71c-1.12.67-.09,1.33,0,2l-13-4c1.21-.13,3.13.45,2-2v0A2.56,2.56,0,0,1,21,66.39a26.77,26.77,0,0,1,3.17.93c1.65.61,3.37,1.05,5,1.68a4,4,0,0,1,1.12.78A1,1,0,0,1,30.12,71Z"/><path class="cls-241" d="M46.14,78l1-1.94c1.78-.88,3.49-.12,5.22.18,1.95.7,4.3.73,5.26,3.1,0,1.81-.72,2.6-2.55,1.75C51.79,80.83,49,79.4,46.14,78Z"/><path class="cls-242" d="M55.05,81.05c1.26-.1,2-.69,2-2,4.26-1.18,7.64.82,11,3C68,83.07,67,83.87,67.08,85,63.11,83.57,59.41,81.32,55.05,81.05Z"/><path class="cls-243" d="M67.08,85c-.41-1.05-.8-2.1,1-2l.66,0c1.66.53,3.57.63,4.47,2.52C72.73,86.62,72,86.62,71,86,69.68,85.87,68.14,86.39,67.08,85Z"/><path class="cls-225" d="M43.08,80c-2.14-.19-4.65.75-6-2C39.13,78.61,41.36,78.54,43.08,80Z"/><path class="cls-239" d="M71,86A2.3,2.3,0,0,0,73.11,85l.67-.26a1.92,1.92,0,0,1,1,1c.23,1.46.66,3-1.55,3.35L73.09,89C73.34,87.34,71.73,87,71,86Z"/><path class="cls-187" d="M89.08,16c-5.3.84-10.62,1.59-15.89,2.56-1.84.34-1.45-.44-1.11-1.45,1.94-.63,3.79-1.62,5.94-1.3,1.13-1.45,3-1.3,4.46-2a7.41,7.41,0,0,1,5.65,1.08Z"/><path class="cls-179" d="M82.09,15,78,15.8c2.68-4.2,6-5.25,10.1-2l-.05.24C86.19,15.13,84,13.79,82.09,15Z"/><path class="cls-244" d="M74.15,96.94,75.08,92a1.94,1.94,0,0,1-.3-1.91c2.23-1.17,4.29,2.22,6.55.25a4.73,4.73,0,0,0,2-2.23c-.88-5-1-5.08-5.36-2.87a1.41,1.41,0,0,1-2.29-1.35c.7-3.31,3.52-4.47,6-6,2.67-2.44,5.68-3.83,9.39-2.93l1,0c2.62-.33,4.82.84,7,2,1.1-.53,1.61.11,2,1,1.26,1.41,4.2,1.12,4,4a2.59,2.59,0,0,1-1.86,1c-2.82,0-4.41-2.14-6.41-3.55-.38-.18-.83-.55-1.19-.12s-.19,1.14.08,1.7a10,10,0,0,0,.84.88c1.25,1.24,4,1.63,2.45,4.43a26.46,26.46,0,0,1-7.34.94A4.66,4.66,0,0,0,86.92,90a34.65,34.65,0,0,1-3.23,3.62,88.88,88.88,0,0,1-6.27,6.46c-1.17.56-1.73-.21-2.25-1A2.33,2.33,0,0,0,74.15,96.94Z"/><path class="cls-245" d="M108.11,110c.64-2.71,3.61-4.06,4-6.91,3.64-2,6.43.27,9.35,1.88,2.75,2.92-.22,5-1,7.36,0,.21-.06-.08.21-.35,1.55-1.56,1.71-6,4.85-4.13s.42,4.75-.79,6.88c-1.83,3.25-3.37,6.94-7.66,7.86C112.75,119.28,108.52,116,108.11,110Z"/><path class="cls-246" d="M110.93,80.05l-2.76-3c-.77-2.22,1-3.24,2.13-4.54a7.13,7.13,0,0,0,3-3.1,6.18,6.18,0,0,1,.78-1c1.15-.91,1.85-2.4,3.45-2.76,2.87.64,4.24,3.16,6.22,4.92a6.41,6.41,0,0,1,1.73,3.7c-3,3.11-3.77-.68-5.33-1.61,1.56,1.83,3.3,3.7,3.42,6.46a2,2,0,0,1-.48,1.23c-1.74,1-3.87,1.06-5.59,2.17a5,5,0,0,1-1.31.39C113.54,83.53,112.49,81.31,110.93,80.05Z"/><path class="cls-247" d="M121.12,105.92a20.29,20.29,0,0,0-9-2.87c-.32-1-.65-2-1-3,1.65-.92,3.4.1,5.08-.29a12.94,12.94,0,0,1,3,.48c6.71,2.3,13.18,5.31,20.16,6.85,1.61.35,3.16,1.08,3.68,2.94.58,1.14.67,2-1,2-3.93,2.14-6.65-2-10.19-2C128.09,109.21,124.76,107.17,121.12,105.92Z"/><path class="cls-248" d="M116.12,101l-5-1c3-2.16,4.55-8.4,2-10.51-3.55-3,0-2.94,1.22-3.33,3-.92,6-1.5,8.71-3.17.13-.21.27-.42.4-.64,2.46-2,5.64-1.63,8.44-2.55,1.94,0,3.84-1.2,5.83-.3a1.44,1.44,0,0,1,.6,1.27,4.67,4.67,0,0,1-2.15,2A54.55,54.55,0,0,1,129,85.87c-2.17.74-4.35,1.43-6.53,2.15-6.39,2.1-6.39,2.09-5.82,9.07a4.49,4.49,0,0,1,0,1.32C115.53,99.07,116.61,100.18,116.12,101Z"/><path class="cls-249" d="M111,73A9.91,9.91,0,0,0,108.17,77c-1.16.29-2.43,1.77-3.48.35-.86-1.16.66-1.91,1.3-2.76l2-2.67L116.13,60c2.12-2.24,1.85-6.49,6-7.05A2.07,2.07,0,0,0,123.23,55c.49,1.2-.08,2.2-.61,3.21a71.16,71.16,0,0,0-4.6,6.41,4.5,4.5,0,0,1-1,.85c-1.23.94-1.79,2.48-3,3.4l.06,0A19.72,19.72,0,0,1,111,73Z"/><path class="cls-250" d="M123.12,83c-2.66-.39-5.12.46-7.56,1.33-1.64.58-3.27,1.24-3.33-1.54,1.57-.84,3.42.27,5-.72l-.06,0c1.8-1.28,4-1.39,6-2.1v0c1.12-1.43,2.82-1.74,4.39-2.34,3.39-1,6.85-1.71,10-3.28A8.47,8.47,0,0,1,139,74c1.44-.22,2.86-.73,4.34-.26a2.51,2.51,0,0,1,1.24,2.56c-1.52,2.39-3.91,3-6.52,3.19-2.08-.53-3.81,1.07-5.82,1-3.14.45-6.41.41-9.09,2.54Z"/><path class="cls-251" d="M107.16,84c2.59,1.51,3.84,3.53,2.2,6.44-1.42,2.52.31,5.1-.3,7.61-2.29.94-4.31,2.07-5.09,4.74-.53,1.82-2,2.37-3.89,1.94a1.75,1.75,0,0,1-1.23-1.54c3-1.9.16-6.92,4.63-8-1.34-.94-2.75-1.09-3.58-2.19a2,2,0,0,1,0-2,2.87,2.87,0,0,1,2.32-.44c4.51.45,4.9,0,4.44-4.72A2,2,0,0,1,107.16,84Z"/><path class="cls-252" d="M108.11,110c2.18,4.61,5.73,8.21,8.92,12.07a5.84,5.84,0,0,1,2.82,4.06,2.29,2.29,0,0,1-1.4,2.37,3.06,3.06,0,0,1-1.44-.08c-3.92-4.38-7.75-8.83-9.83-14.47-.72-1.31-1.43-2.62-2.15-3.92C106,108.37,107.08,109.66,108.11,110Z"/><path class="cls-253" d="M107.16,84c1.07,2.76,2.85,5.39-1,7.74-2.53,1.52-3.9-.84-5.86-.87-2-1.25-2.56-2.81-1.15-4.85,0-2.65-3.07-2.26-4-4,3.24-2.33,5,.31,7,2.06a3.66,3.66,0,0,1,1.14,2.62c0,.34,0,.66,0,1,.94-.22.22-1,.43-1.4.39-1.49-1-2.72-.58-4.21l2-.08Z"/><path class="cls-254" d="M100.11,104c2,.21,2.79-.73,3.16-2.74.59-3.12,2.65-4.32,5.79-3.22-1.41,3.43-2.21,7.15-5,9.87-2.37.08-4.79.5-7-1-.34-.78.13-1.23.67-1.66C98.5,104.74,99.44,104.61,100.11,104Z"/><path class="cls-255" d="M117.21,82.08c-1.46,1.64-3.23,1.13-5,.72-.44-.92-.87-1.83-1.3-2.75C113.12,80.41,114.69,82.72,117.21,82.08Z"/><path class="cls-256" d="M101.1,78l-2-1c.13-.77.21-1.86,1.22-1.59a3.45,3.45,0,0,1,2,1.74C102.66,77.83,101.68,77.9,101.1,78Z"/><path class="cls-182" d="M115.15,56.12c.14,2.35-1.37,3.7-3,5-.34-2,2.57-4.75,1.25-5.28-3.05-1.23-5.26-3.86-8.37-4.62A82.45,82.45,0,0,0,96.11,50c-.42-4.53,1.6-5.88,5.6-4,5,2.34,12,1.11,14.4,8C116.73,55.12,115.58,55.46,115.15,56.12Z"/><path class="cls-257" d="M122.09,53l-6,7.05c.3-1.4.59-2.81.89-4.21,0-1.93,1.16-3.33,2.13-4.82.31-.37.62-.74.94-1.1,2-.9,2.67-2.73,3.11-4.69.22-.37.46-.74.71-1.1.7-1.41,1.49-2.73,3.18-3.13.36-.62.72-1.24,1.09-1.86l2.9-3.13c1.41-.53,2.29-2.18,4.06-2Z"/><path class="cls-173" d="M119.15,51c.12,2-1.51,3.18-2.13,4.82l-1.87.31,1-2.13C117.35,53.23,117.54,51.39,119.15,51Z"/><path class="cls-174" d="M124.08,44.84a3.54,3.54,0,0,1-.88.36c.53-3.23-4-2.51-4.11-5.2h0C124,39.51,124.7,40.23,124.08,44.84Z"/><path class="cls-258" d="M124.08,44.84c0-3.35-1.7-4.89-5-4.85,1.93-.93,3-2.09,1-4,2.75,1.07,6.21,1.14,7,5Z"/><path class="cls-259" d="M97.1,70.89c-2-4.85-.56-9.93-1-14.89,3.41-.82,7.42.24,8.95,2.25S109,61,110.16,63.08c.07,1.29-.84,2-1.48,3C104.3,72.78,104.33,72.8,97.1,70.89Z"/><path class="cls-260" d="M90.08,50V71a40.12,40.12,0,0,1-8.73,2.62c-5.84-3.47-8.58-9.23-11.17-15.11-.07-1.39.14-2.86,1.36-3.53C77.3,51.79,83.2,49.05,90.08,50Z"/><path class="cls-261" d="M60.09,44c-2.1-2-4.12-4.1-5-7-.36-1.67.89-2.47,2-3.1,9.71-5.73,20.12-9.19,31.48-9.43l.6.53,1,5c-1.85,3.28-5.45,2.3-8.07,2.7-6.54,1-12.36,3.61-16.73,5.52,5.34-2.95,12.71-5,20.35-6.12,1.59-.23,3.54-.32,3.87,2s-1.37,2.94-3.11,3c-7.71.21-14.53,3.16-21.21,6.64C63.56,44.61,61.85,45.48,60.09,44Z"/><path class="cls-262" d="M90.08,50c-5.23,1.78-10.77,2.43-15.88,4.73-2.15,1-3.28,2-3.09,4.28-1.85.55-1.15-1.52-2-2l-2-3.06a14.9,14.9,0,0,0-3-5h0c-.08-.5-.13-1.08.31-1.36,7.84-5,16.31-7.82,25.68-7.65Z"/><path class="cls-263" d="M90.07,40c-8.87,2.4-18.11,3.75-26,9-1.81-1.29-3.73-2.5-4-5,4.1.1,6.91-3,10.43-4.34C75.37,37.8,80.1,36,85.37,36c1.3,0,3.62.7,3.32-1.65-.26-2-2.38-1.33-3.74-1.08-8,1.47-15.86,3.33-22.73,8a4,4,0,0,1-1.84.51c-.23,0-.51-.32-1.17-.78,6.26-4.83,13.36-7.17,20.7-9,3.36-.82,6.93-.57,10.17-2C90.08,33.33,90.07,36.67,90.07,40Z"/><path class="cls-264" d="M53.11,34c.48-3.41,3.54-4.36,5.93-5.3,9.11-3.6,18.08-8,28.26-7.78A8.94,8.94,0,0,0,90.09,20c-.2,1.69.69,3.59-1,5l0,0c-1.08-1.09-2.34-.86-3.71-.68-9.78,1.31-19.12,3.95-27.74,8.89C56.25,34,54.89,35.27,53.11,34Z"/><path class="cls-265" d="M81.11,73a13.62,13.62,0,0,1,9-2c0,.33,0,.67,0,1h0c-2.92,0-4.7,3.27-7.81,2.7C81.5,74.4,80.89,74,81.11,73Z"/><path class="cls-264" d="M82.09,15c1.8-1.59,4-.68,6-.87l.06.85Z"/><path class="cls-170" d="M82.11,74c2.74-.36,5-2.63,8-2L88,73.66c1,.59,2.46,0,3.12,1.32-3.32.6-6.49,1.53-9,4-1,.42-1.3-.23-1.57-1A4.66,4.66,0,0,1,82.11,74Z"/><path class="cls-184" d="M21.11,67l-2,0,3-4h0C23.35,64.72,23,66.05,21.11,67Z"/><path class="cls-266" d="M21.11,67a6.75,6.75,0,0,0,1-4c5.14-7,8.77-15,15-21.28A111.55,111.55,0,0,1,46,34L47.16,36c.53,1.58-.5,2.53-1.53,3.31-9.71,7.41-15.92,17.41-21,28.28l-.57.43C23,68,21.83,68.16,21.11,67Z"/><path class="cls-267" d="M47.1,75l-3,0c-1.16-.42-1.49-2-3.25-1.8-3.33.41-3.79-2.06-2.62-4.11C42.88,61,47.12,52.43,56.12,48l1,1c3,1.88,5.34,4.18,5.48,8C57.46,62,52.53,67.27,49.13,73.75A2.61,2.61,0,0,1,47.1,75Z"/><path class="cls-211" d="M56.12,48A75.77,75.77,0,0,0,41.05,66.1a11,11,0,0,0-1.59,2.49c-.33,1.17-1.58,2.58-.26,3.65,2.09,1.7,1.53-2.11,3.31-1.76.52,1.48,1.06,3,1.6,4.5-4-.52-7.38-2.52-11-4-1-1-.58-2.18-.12-3.26,3.86-9.07,10-16.46,17.35-22.86A3.6,3.6,0,0,1,53.13,44Z"/><path class="cls-268" d="M29.13,70c-1.77-.41-3.62-.64-5-2h0c4.14-6.9,7.46-14.3,12.82-20.45a48.57,48.57,0,0,1,7.73-7.64c1.56-1.14,3.24-2.54,5.33-.88.06.33.09.65.12,1,.58,1.61-.53,2.5-1.54,3.33C39.8,50.54,33.68,59.68,29.13,70Z"/><path class="cls-269" d="M53.13,44c-8.74,7.47-16.29,15.82-20,27h-3c0-.33,0-.66,0-1,.44-5.36,3.81-9.33,6.62-13.52,3-4.54,6.23-9,10.61-12.4,1.36-1,2.52-2.86,4.73-2.06A2.06,2.06,0,0,1,53.13,44Z"/><path class="cls-270" d="M50,39c-2.51-.13-4.4,1.08-6.13,2.73A78.77,78.77,0,0,0,27.35,64.85c-.76,1.58-1.17,3.09-3.23,3.13,3.18-11.8,10.62-20.74,19.5-28.64,1.22-1.09,2.76-1.82,3.54-3.37A5.93,5.93,0,0,1,50,39Z"/><path class="cls-271" d="M52.07,42c-8.39,4.76-13.08,12.78-18,20.6-1.48,2.37-2.68,4.92-4,7.38h-1c-.46-5.64,3.43-9.38,6.14-13.53A76.46,76.46,0,0,1,50.12,40,3.26,3.26,0,0,1,52.07,42Z"/><path class="cls-272" d="M62.11,57c-.68-3.28-3.72-5.1-5-8,1.19-.71.94-1.9,1-3,2.32,4.23,6.23,7.41,8,12-.59.86-.38,2.45-2.09,2.28C62.72,59.57,61.57,58.77,62.11,57Z"/><path class="cls-184" d="M53.11,34c5.74-2.77,11.34-5.84,17.39-7.93,5.29-1.82,10.83-2.19,16.28-3A1.89,1.89,0,0,1,89.09,25c-12,2.13-24.07,4.05-34,12l-2-2Z"/><path class="cls-124" d="M82.11,74a6.68,6.68,0,0,1-1,4,1.13,1.13,0,0,1-1.29.09C76,72,71.32,66.46,67.56,60.32a2.08,2.08,0,0,1,.5-1.29,2,2,0,0,0,1-2l2,2a78.82,78.82,0,0,0,10,14C81.44,73.33,81.78,73.66,82.11,74Z"/><path class="cls-273" d="M68.06,59,68,60.1c-.37.72-.09,1.74-1,2.18a3.25,3.25,0,0,1-3-1.07A1.16,1.16,0,0,1,64.15,60l2-2Z"/><path class="cls-263" d="M64.08,49c2.08,1,3.26,2.57,3,5C65.81,52.5,64.36,51.11,64.08,49Z"/><path class="cls-274" d="M158.1,69l-2,1c-1.11,1.75-2.77,1.8-4.56,1.49,1.54-8.63-4.83-13.62-9.3-19.28A55.86,55.86,0,0,0,133.57,44a3.26,3.26,0,0,1-.7-1.19A4.8,4.8,0,0,1,135,40l2.12-1,3,2c2.28.39,4.33,1,4,4a15.38,15.38,0,0,0,5,5c3.69,4.33,6.24,9.34,8.74,14.4C158.62,66,159.19,67.41,158.1,69Z"/><path class="cls-275" d="M143.14,74.17l-4,.81c3.87-5.67.77-10.09-2.68-14.37a72.75,72.75,0,0,0-5.21-5.33c-1.25-1.25-2.58-2.11-4.4-1.11a2.7,2.7,0,0,1-1.35.13l-.49-.49c1-2.8,3.1-4.75,4.92-6.93a3,3,0,0,1,1.39-.49c8.63,5.2,14.15,13,18.13,22a3.65,3.65,0,0,1-.8,4.12C147,73.83,145.44,75.16,143.14,74.17Z"/><path class="cls-274" d="M131.1,47l-1.21-.11a8.57,8.57,0,0,1,3-4.1l.33.32C134.32,45.38,132.69,46.17,131.1,47Z"/><path class="cls-276" d="M122,58c.43-1,.85-2,1.27-2.92L125,53.81l.25.39Q126.2,58.34,122,58Z"/><path class="cls-192" d="M144.11,45c-.72-2-2.8-2.54-4-4,2.74-2.43,3.78.48,5.11,1.79S145.58,44.79,144.11,45Z"/><path class="cls-277" d="M143.14,74.17l5-2.21c1-.44,1.69-1.6,3-1a9,9,0,0,0,5-1c0,2.67-3.54,1.75-4.07,3.92l-1.93,1c-2,.34-3.66,2.63-6,1Z"/><path class="cls-278" d="M69.12,130c5.49-.6,10.93-2.19,16.47,0,2,.79,3.78,1.38,3.52,4v9.25c-2,.38-.6-2.27-2.77-1.86-6.67,1.25-12.4-1.69-18-4.87-1.34-.77-1.27-2.2-1.28-3.53Z"/><path class="cls-279" d="M77.17,114.08c.83-1,1.64-2,2.48-3,.66-.76,1.6-1.6,2.42-.79.46.45.1,1.75.11,2.66-2,2.31-4.73,4-6.13,6.92a2.2,2.2,0,0,1-1-2C74,115.66,75.23,114.67,77.17,114.08Z"/><path class="cls-280" d="M73.1,120,67,128.78c-.89-.53-1.86-1-2.22-2.08,0-1.44,1-2.38,1.74-3.45,1.72-2.14,3-4.81,6-5.55C73.58,118.23,73.89,119,73.1,120Z"/><path class="cls-281" d="M65.08,127c1.17.06,2,.52,1.93,1.83l-2.68,3.33c-1,.77-2.07,1.8-2.88-.23C61.52,129.4,62.16,127.33,65.08,127Z"/><path class="cls-282" d="M62.06,131.91c.66,1.11,1.51.13,2.27.2-.61,2.56-3,3.73-4.36,5.74-1.47.33-1.5-.82-1.78-1.72a4,4,0,0,1,.43-2.13C59.55,133,60.32,131.64,62.06,131.91Z"/><path class="cls-283" d="M73.1,120a2,2,0,0,0-1-2c-.09-2.78.82-4.77,3.93-5.06.37.37.74.74,1.1,1.12-.56,1.36-2.26,2.09-2.12,3.84Z"/><path class="cls-284" d="M59,135.9l.94,1.95c0,.35,0,.69-.07,1-1-.19-2.61,1.71-2.77-.91C56.7,136.32,57.55,135.82,59,135.9Z"/><path class="cls-261" d="M51.12,146c-1.13-2.64-3.88-3.51-5.85-5.21-6.7-5.78-10.65-13.3-14.08-21.19A4.27,4.27,0,0,0,29.11,117l11-4c3.56,7.85,7.55,15.38,14.13,21.25,1,.88,2.38,1.93,1.88,3.73C54.92,140.94,53.71,143.89,51.12,146Z"/><path class="cls-285" d="M56.13,138c-6.14-6.42-12.39-12.74-15.65-21.28-.49-1.26-1.21-2.37-.36-3.7l8-2,.74,0c2,.58,2.66,2.36,3.45,4a35.84,35.84,0,0,0,6.78,9.79c3.73,3.78,3.64,4.65,0,9.22L59,135.9,57.13,138Z"/><path class="cls-286" d="M48.18,110c-1.1-.1-2.32.14-3.06-1.05l-.12-.13c5-3.88,11-4.61,16.92-5.86,1.1.13,2.1.41,2.45,1.64-1.55,3.21-5.06,3-7.65,4.44-1.19.32-2.38.62-3.58.93C51.49,110.18,49.84,111.24,48.18,110Z"/><path class="cls-285" d="M48.18,110l4.92-1c-.64,3.23-2.74,2.74-5,2l0,0C48.11,110.66,48.14,110.35,48.18,110Z"/><path class="cls-225" d="M155.11,111.86c-2-1.76-4.76-1.74-7-2.91-4.76-3.37-5.07-8.33-4.74-13.48.08-1.23.71-2.45,2-2.41A1.59,1.59,0,0,1,147,95a37.86,37.86,0,0,1-1.32-10.22c.09-2.63-2.42-3.32-3.78-4.89,1.75-3.8,5.49-1.87,8.21-2.86l2-.06c1.67.16,3.1.86,2.87,2.71a53.72,53.72,0,0,0,.79,17.84c.23,1.06.35,2.68-.24,3.29C151.88,104.47,152.5,108.09,155.11,111.86Z"/><path class="cls-287" d="M150.1,77c-2.31,2-5.7,1-8,2.94-1.06,1.39-2.28,2.14-4,1,0-.33,0-.66,0-1-.35-.22-.46-.45-.34-.67s.23-.33.35-.33l6-3c2-.23,3.87-1.45,6-1C150.67,75.64,146.79,76.34,150.1,77Z"/><path class="cls-288" d="M132.1,109c3.74-.38,6.26,3.27,10,3,1.08,1.36,2.64.83,4,1,1.39,2,.25,3.93-.62,5.62a72.75,72.75,0,0,1-12,17.1c-1.8,1.9-3.71,3.59-6.34,1.19-.36-.32-.71-.65-1.06-1-2.27-1.47-4.19-3.17-4.17-6.19A48.32,48.32,0,0,0,131,119.26C132.93,116.07,135.76,112.86,132.1,109Z"/><path class="cls-289" d="M136.11,149c-2.79-2.07-3.94-5.37-6-8,5.44-.91,8.78-4.33,11.78-8.8,3.56-5.3,7.35-10.43,10.17-16.19a8.88,8.88,0,0,1,5,1l1,.1c-3.87,11-9.81,20.62-18.65,28.35A43.41,43.41,0,0,0,136.11,149Z"/><path class="cls-290" d="M152.09,116c-.44,6.66-4.85,11.29-8.72,16-1.83,2.22-2.75,4.95-5.21,6.95a8.87,8.87,0,0,1-8,2l-3-4c1.6.36,3,.7,4.42-.89,6.08-6.9,12-13.87,14.5-23Z"/><path class="cls-170" d="M143.09,110q-11.18-4-22.35-8a8.13,8.13,0,0,1-1.61-1l.48-.49c2.32-1,4.43.28,6.64.55a10.85,10.85,0,0,1,1.27.36,42.9,42.9,0,0,1,5,1.56,12.75,12.75,0,0,0,3.14.93,14.07,14.07,0,0,1,2,.48c2.7,1.77,6.84.87,8.47,4.59a2.19,2.19,0,0,0-2.05,1Z"/><path class="cls-234" d="M146.15,108.94c-2.87-1.67-6.41-1.8-9.07-4-.45-4.46,1.11-8.79.74-13.28-.27-3.32-.45-6.6-1.72-9.73a2.15,2.15,0,0,1,2-1l4-1c2.4-.23,4.5.37,4.8,3.07.55,4.92.84,9.86,1.17,14.8.06,1-.07,2-1.43,2.33-1.25-1.93.06-4.22-1.37-6.11-1.32,5.32-.16,10.25,2.83,14.9Z"/><path class="cls-291" d="M125,137.05c2.36,5.56,6.72,9.74,10.18,14.54.76,1.06,1.88,1.88,2,3.33-1.08-.37-2.18-.81-2.12,1.07a6.6,6.6,0,0,1-3-3c-.36-3.5-4-4.95-5-8a3.35,3.35,0,0,0-2-2l-2-4a2.81,2.81,0,0,1,.89-2.22A.81.81,0,0,1,125,137.05Z"/><path class="cls-292" d="M124.09,137a2,2,0,0,1-1,2l-4-4c0-2.29-2.3-3.16-3-5-.73-1.21-.67-2,1-2l.91.08C121,130.39,123.94,132.75,124.09,137Z"/><path class="cls-293" d="M117.13,128a2.1,2.1,0,0,0-1,2c-2-1.7-2.21-4.93-5-6-1.46-3.36-3.9-6.06-6-9a2.15,2.15,0,0,0,2.06-1.06C111,118.23,114,123.12,117.13,128Z"/><path class="cls-294" d="M95.18,114.94c3.1.89,5.58-3.88,8.91-1l-8.9,3C95.19,116.29,95.18,115.62,95.18,114.94Z"/><path class="cls-295" d="M124.09,137l-6-9a2.11,2.11,0,0,0,1.06-2c2.83,0,3.41,1.6,3.05,4l3.95,6L125,137.05C124.72,137,124.4,137,124.09,137Z"/><path class="cls-296" d="M56.14,108l8-3.07c4.84-3.79,6.72-3.78,9,.07,1.43,2.48,5.14,4.1,2.95,7.92-2,1.17-2.65,3.35-3.93,5.06l-5,6c-2.71-2.55-5-5.43-8.18-7.63C56.33,114.55,55.48,111.37,56.14,108Z"/><path class="cls-297" d="M98.13,105.93l-1,1-10,2c-.6-1.87-3.26-2.23-3.3-4.51,1-2,2.89-2.54,4.7-3.29,2.78-.58,5.5-.67,8,.94A8.22,8.22,0,0,1,98.13,105.93Z"/><path class="cls-298" d="M84.1,105c.43,1.76,5.11.24,3,3.93a10.54,10.54,0,0,1-12-9.89l2,1c2.36-.64,3.34,1.67,5.08,2.36A5.4,5.4,0,0,1,84.1,105Z"/><path class="cls-299" d="M73.12,105c-3-4-6,0-9-.07a2.1,2.1,0,0,0-2-1c0-2.45,2.34-1.87,3.58-2.73A31.73,31.73,0,0,1,69,100.05c1.36-.24,2.72-.82,4.11-.12C75,101.62,72.36,103.34,73.12,105Z"/><path class="cls-283" d="M73.09,99.93a7,7,0,0,1-4,1c-1.26-.67-3,.53-4-1,1.33-1.52,3.56-.75,5-2h3C73.11,98.63,73.1,99.28,73.09,99.93Z"/><path class="cls-300" d="M66.19,102.07c-1,1.44-3.17.32-4.1,1.89L45,108.86c-1.06-1.38-2.6-.71-3.93-.92,1.93-2,5-1.16,7-3,3,0,5.47-1.65,8-3l6-1C63.4,101.63,65.17,100.44,66.19,102.07Z"/><path class="cls-301" d="M66.19,102.07c-1.39-.26-3,.44-4.07-1.08l3-1c1.38.18,3-.46,4,1Z"/><path class="cls-302" d="M64.15,60c0,.32,0,.64,0,1,.63,1.53-.44,2.49-1.29,3.41a56.17,56.17,0,0,0-8.18,11c-.51.92-1,2.19-2.55,1.65a8.56,8.56,0,0,1-5-1c0-.34,0-.67,0-1,4.19-6.68,7.58-14,15-18Z"/><path class="cls-283" d="M75.1,90c0,.67,0,1.34,0,2l-1.83-3c1.29-1.14.72-2.68.86-4.06.4-.92,1-1.48,2-1,0,.38,0,.76,0,1.14A4.56,4.56,0,0,1,75.1,90Z"/><path class="cls-303" d="M52.11,77a89.42,89.42,0,0,1,12-16l3,1.05a31.35,31.35,0,0,1,9.84,13.44C74.78,82.19,72.78,83.9,68.1,83h0c-3.38-2.13-7.25-2.89-11-4C55.68,77.73,53.41,78.57,52.11,77Z"/><path class="cls-242" d="M68.1,83c5.48.18,6-4.61,8-8,.94-.32,1.34.26,1.65,1C78,80,75,82.18,73.1,85h0A5.84,5.84,0,0,1,68.1,83Z"/><path class="cls-243" d="M73.1,85c-.44-3.79,4.14-5.34,4-9,1.82-.57,1.92,1.43,3,2h1l1,1a13.8,13.8,0,0,0-6,5l-2,1Z"/><path class="cls-304" d="M97.13,103.07a20.19,20.19,0,0,0-9-1,8.07,8.07,0,0,1-5.2.7c-5-2.59-5-2.58-1.78-7a26.62,26.62,0,0,0,2-2.76l3-3c4-4.42,10.15-4.75,12.56-.69-.45,1.5-1.57,1.55-2.77,1.14-2.49-.86-4.55.58-6.51,1.51a5.69,5.69,0,0,0-2.86,5.94c.33,2.32,2.76.74,4.24,1a9.93,9.93,0,0,1,1.93.42c.84,1.53,1.61-.06,2.42-.08,1.81,0,3.63-.1,5.31.8,1,2-1,2.21-1.95,3A1.24,1.24,0,0,1,97.13,103.07Z"/><path class="cls-305" d="M75.1,90c.06-1.68,0-3.39,1.1-4.84a5.69,5.69,0,0,0,1.34-.54c1.36-1.06,1.89-4.33,4.31-2.52,2,1.51,4.2,3.75,2.31,6.93-1.67-.62-3.15-2.46-5.27-1,.45,1.83,2.54,1.6,3.19,3C79.28,94,77.26,91.51,75.1,90Z"/><path class="cls-306" d="M82.08,91l-.5,0c-2-.16-4.22-.5-4.93-2.64-.46-1.38,1.28-1.8,2.32-2.07,2.48-.63,4.73-.52,5.19,2.78A3.17,3.17,0,0,1,82.08,91Z"/><path class="cls-307" d="M98.1,90c-.76-4.09-3.51-3-6.17-2.46A13.62,13.62,0,0,0,86.06,90C86.44,87.06,88,85.4,91,86c2.73.53,5.41-1.52,8.1,0,.38,1.62.76,3.23,1.15,4.85l0,2-.6.32a2.38,2.38,0,0,1-1.14-.7C98,91.71,97.49,90.93,98.1,90Z"/><path class="cls-308" d="M103.08,82c.82,1.2,3.33,1.94,1.06,4-.66-.41-1.24-1-2.1-1-2.36-.91-3.71-4.13-7-3.06h0c-.87-3.8-.74-4.07,2-3.94C99.15,79.25,100.43,81.67,103.08,82Z"/><path class="cls-283" d="M83.07,93c-.51,1.34-.62,3.21-1.59,3.92-3.16,2.33-1.5,3.63.65,5a.66.66,0,0,1,.22.73c-.09.23-.18.34-.27.34-2.29,0-3.14-2.3-5-3C78.24,96.91,80.71,95,83.07,93Z"/><path class="cls-253" d="M97.05,78.05c-2.78.25-1.68,2.44-2,3.94a3.12,3.12,0,0,1-.41-4.39C95.35,76.65,96.41,77.07,97.05,78.05Z"/><path class="cls-309" d="M122.15,130c-.89-1.43-1.25-3.26-3.05-4-.57-1.38-2.06-2.27-2.07-4,4.31-2.67,6.39-7,8.29-11.42.31-.72.9-1.64,0-2.22-1.1-.67-1.8.08-2.37,1-1.24,2-2.53,4.06-4.12,6.61-.84-4.31,4.52-6.21,2.32-10.1,3.95,0,7.32,2.08,11,3.11,4,2.56,3.68,5.45,1.07,9C129.91,122.4,127.75,127.75,122.15,130Z"/><path class="cls-310" d="M125.1,74l-2-3c-.54-2-4.16-3.24-1.43-6.19.49-.52-1.57-.83-1.86-1.85.48-3,1.45-4.92,4.6-2.1.35.34.67.71,1,1.08,2.81,2.87,4.39,6.54,6.31,10,2.06,3.68,1.31,4.77-3.27,5.66C126.68,77,126,75.37,125.1,74Z"/><path class="cls-255" d="M125.1,74c2,0,2.27,1.73,3,3a1.15,1.15,0,0,1,0,1.82c-1.63.46-3.11,1.48-4.92,1.24-1.39-3.29-2.54-6.73-6.5-9.17,3-.23,4,1.33,5.3,2.43C122.85,74.07,123.64,75.71,125.1,74Z"/><path class="cls-255" d="M120.1,63c2.18.18,3.38,1.59,4.36,3.35-1.26,1-1.7-.77-3-.56.57,1.76,1.12,3.48,1.67,5.21l-5.94-5a.69.69,0,0,1-.38-.72c.06-.28.14-.42.23-.42l-.07,0C118.06,64.38,118.21,62.25,120.1,63Z"/><path class="cls-310" d="M117,64.86l.15,1.14c-.81,1.24-1.07,3.07-3.17,2.91A7,7,0,0,1,117,64.86Z"/><path class="cls-255" d="M111,73a7,7,0,0,1,3-4.07C113.81,70.82,113.51,72.7,111,73Z"/><path class="cls-255" d="M123.16,80a11.65,11.65,0,0,1-6,2.1C118.62,79.92,120.87,79.92,123.16,80Z"/><path class="cls-170" d="M116.12,101c-.11-.67-1.13-1.33,0-2,2.07-1,3-.23,3,2v0Z"/><path class="cls-215" d="M116.07,98c-2.43-6.82-1.6-8.89,4.58-10.7,2.79-.83,5.41-2.34,8.43-2.32,4.33-.69,4.32,2.92,3.75,5-1,3.56-2.36,7.07-3.43,10.65a1.9,1.9,0,0,1-2.3,1.38h0C123.58,100.22,119.61,99.71,116.07,98Z"/><path class="cls-311" d="M127.1,102c1.68-1.4,2-3.28,2-5.33,0-1.87,0-3.38,1.87-5.11,2.29-2.15,1-5-1.91-6.56a23.46,23.46,0,0,1,7-3c1,.09,2.53-.18,2.52.89,0,7.4,2.14,15-1.54,22.12l-2-.06c-.46-1.93-1.62-1.77-3-1C130.65,102.75,128.41,103.57,127.1,102Z"/><path class="cls-311" d="M116.07,98c4.06.27,8,.78,11,4l-8-1a3.16,3.16,0,0,0-3-2C116.1,98.65,116.09,98.33,116.07,98Z"/><path class="cls-170" d="M123.12,83c2.3-3.11,5.67-3,9-3,.31.24.4.45.27.65s-.24.28-.35.28Z"/><path class="cls-312" d="M132.05,81c0-.31.07-.62.08-.93,2-.41,3.87-1.33,6-1,0,.34,0,.67,0,1Z"/><path class="cls-313" d="M120.1,63l-3.17,1.91A18.74,18.74,0,0,1,122,58a4.92,4.92,0,0,0,3.26-3.76,2.73,2.73,0,0,1,.89-.19c3.35-.07,4.23,2.91,5.51,4.94a42.88,42.88,0,0,1,6.55,16.16c-2.89,2.54-6.78,2.33-10.1,3.7,0-.61,0-1.21,0-1.82,3.54,0,4.78-1.45,2.64-4.54C128.39,69,127,65,124.1,62c.12-.12.22-.24.35-.35-.52.43.16-.08-.35.35C122,59.15,121,60.85,120.1,63Z"/><path class="cls-276" d="M138.17,75.11c-4.43-6.8-5.39-15.59-12.06-21.1,1.18-2.33,2.45-3.39,4.69-.87,3.59,4,7.56,7.58,10.36,12.43,2.58,4.46,1.38,6.88-2.06,9.41A2.65,2.65,0,0,1,138.17,75.11Z"/><path class="cls-307" d="M98.08,102.81c.73-.9,2.21-1.27,2-2.83-1.84-1.42-1.5-3.29-1.09-5.17a3.42,3.42,0,0,1,1-1.79l.16-.15a7.72,7.72,0,0,1,6,3.08c-3.36.11-5.29.89-4.28,4.4.47,1.6-1.16,2.5-2.82,2.64A.63.63,0,0,1,98.08,102.81Z"/><path class="cls-314" d="M98.08,102.81l1,.18,1,1a1.77,1.77,0,0,1-2,2c-.59-.86-2.21-1.36-1-2.86A6.37,6.37,0,0,0,98.08,102.81Z"/><path class="cls-315" d="M102,85.06c1.57-1.62,1.85-.37,2.1,1,.17,1.15,2.29,1.85.91,3.3a2.39,2.39,0,0,1-3.14.3c-1.7-1.24.13-2.13.48-3.19C102.51,86.05,102.17,85.52,102,85.06Z"/><path class="cls-316" d="M80.1,78c-1.54.16-1.95-1.39-3-2l-1-.94-9-13c0-.76.12-1.5.9-1.92C72.52,65.73,77.67,70.94,80.1,78Z"/><path class="cls-317" d="M151.1,71l-3,1c1.68-4.89-2.28-8-4.22-11.37C140.79,55.17,136,50.92,131.1,47c.59-1.36,2.05-2.24,2.1-3.89,9.2,5.7,15.56,13.78,20,23.57C154.3,69.18,152.14,69.71,151.1,71Z"/><path class="cls-318" d="M56.14,108c1.53,4.09,2.43,8.39,7.47,10.24,1.79.67,3.13,3.32,3.53,5.74L65.08,127c-1.32,1.46-2.71,2.88-3,5-1,.67-1.41,2.16-2.94,2.1,2.41-3.37,2.27-6.3-1.31-8.87-4.92-3.52-5.59-10-9.67-14.14a6,6,0,0,0,5-2Z"/><path class="cls-234" d="M132.11,103.93c.84-.68,1.94-2.08,2.46-1.9,1.13.42.31,1.9.53,2.9Z"/><path class="cls-224" d="M82.08,103c0-.35,0-.71,0-1.07l6,.08-4,3Z"/><path class="cls-319" d="M98.1,90c.33.67.65,1.34,1,2-1,1.19-2.57,1.3-3.89,1.88-4.45,2-4.62,2.43-2.09,6.13a14.36,14.36,0,0,1-2,0c-2.31-.33-5.4,2.43-6.78-1.41-.73-2,4-7.92,6.29-8.65C93.19,89.09,95.62,88.47,98.1,90Z"/><path class="cls-320" d="M93.09,100c-.91-1.82-4.36-.22-4.24-2.51s2.63-3.15,4.53-4.18A9.42,9.42,0,0,1,99.07,92l1,1c0,.66,0,1.32,0,2-1.55,1.79-1.4,5.27-5,5C94.43,100.05,93.78,101.1,93.09,100Z"/><path class="cls-319" d="M95.1,100c2.6-.72,2.93-3.73,5-5a9.33,9.33,0,0,0,0,5C98.43,101.38,96.77,100.16,95.1,100Z"/><path class="cls-310" d="M124.1,62c.17-1.34.69-2.33,2.24-1.64.75.34,1.45,1.4.92,2-1,1-2-.63-3.16-.32Z"/></g></g></svg>