<svg xmlns="http://www.w3.org/2000/svg" viewBox="0 0 185 186.98"><defs><style>.cls-1{fill:#fdfdfd;}.cls-2{fill:#634c2c;}.cls-3{fill:#584225;}.cls-4{fill:#5b4526;}.cls-5{fill:#755631;}.cls-6{fill:#604827;}.cls-7{fill:#735932;}.cls-8{fill:#604d29;}.cls-9{fill:#715127;}.cls-10{fill:#6f522d;}.cls-11{fill:#584123;}.cls-12{fill:#5d4725;}.cls-13{fill:#3a2f22;}.cls-14{fill:#6a522b;}.cls-15{fill:#705730;}.cls-16{fill:#755d31;}.cls-17{fill:#705633;}.cls-18{fill:#44331e;}.cls-19{fill:#705735;}.cls-20{fill:#624726;}.cls-21{fill:#43321f;}.cls-22{fill:#553f22;}.cls-23{fill:#42341a;}.cls-24{fill:#362d23;}.cls-25{fill:#463828;}.cls-26{fill:#524022;}.cls-27{fill:#392d21;}.cls-28{fill:#fefefe;}.cls-29{fill:#8a693d;}.cls-30{fill:#312922;}.cls-31{fill:#342b21;}.cls-32{fill:#c1a873;}.cls-33{fill:#987846;}.cls-34{fill:#d0c08d;}.cls-35{fill:#cabb85;}.cls-36{fill:#d8c895;}.cls-37{fill:#dac895;}.cls-38{fill:#cbb684;}.cls-39{fill:#dfd19e;}.cls-40{fill:#c09c64;}.cls-41{fill:#e2d5a5;}.cls-42{fill:#9f804d;}.cls-43{fill:#c4ab76;}.cls-44{fill:#322921;}.cls-45{fill:#8e6c3e;}.cls-46{fill:#836238;}.cls-47{fill:#b79863;}.cls-48{fill:#967544;}.cls-49{fill:#a1824d;}.cls-50{fill:#c5b880;}.cls-51{fill:#d1c48c;}.cls-52{fill:#9c7b48;}.cls-53{fill:#352b23;}.cls-54{fill:#987443;}.cls-55{fill:#85653a;}.cls-56{fill:#785933;}.cls-57{fill:#bfa671;}.cls-58{fill:#e0d3a4;}.cls-59{fill:#d7c698;}.cls-60{fill:#c1b37b;}.cls-61{fill:#afa36d;}.cls-62{fill:#7b5f34;}.cls-63{fill:#947142;}.cls-64{fill:#7b5b36;}.cls-65{fill:#644828;}.cls-66{fill:#463625;}.cls-67{fill:#443526;}.cls-68{fill:#bcb179;}.cls-69{fill:#9b7847;}.cls-70{fill:#c3a874;}.cls-71{fill:#c4a56f;}.cls-72{fill:#c3ad79;}.cls-73{fill:#473724;}.cls-74{fill:#684c2b;}.cls-75{fill:#9f7e4a;}.cls-76{fill:#8b6a3e;}.cls-77{fill:#c4aa74;}.cls-78{fill:#675726;}.cls-79{fill:#927343;}.cls-80{fill:#8b8575;}.cls-81{fill:#70602d;}.cls-82{fill:#3d3732;}.cls-83{fill:#4b3c26;}.cls-84{fill:#71522f;}.cls-85{fill:#7a5f35;}.cls-86{fill:#7d6533;}.cls-87{fill:#6c502f;}.cls-88{fill:#483924;}.cls-89{fill:#c5b67f;}.cls-90{fill:#766236;}.cls-91{fill:#795833;}.cls-92{fill:#625323;}.cls-93{fill:#866a39;}.cls-94{fill:#b6955f;}.cls-95{fill:#d2bf8e;}.cls-96{fill:#d8ca9b;}.cls-97{fill:#d3c496;}.cls-98{fill:#d3c38c;}.cls-99{fill:#a69b62;}.cls-100{fill:#88653b;}.cls-101{fill:#44341d;}.cls-102{fill:#72632c;}.cls-103{fill:#3d3a34;}.cls-104{fill:#775a36;}.cls-105{fill:#87653a;}.cls-106{fill:#85633a;}.cls-107{fill:#4a473f;}.cls-108{fill:#282423;}.cls-109{fill:#927342;}.cls-110{fill:#40311e;}.cls-111{fill:#43403a;}.cls-112{fill:#5b492a;}.cls-113{fill:#b6a870;}.cls-114{fill:#8b693d;}.cls-115{fill:#9b7e49;}.cls-116{fill:#473d31;}.cls-117{fill:#9f7b47;}.cls-118{fill:#7c5b35;}.cls-119{fill:#4e4438;}.cls-120{fill:#beb47b;}.cls-121{fill:#7f6236;}.cls-122{fill:#2f2927;}.cls-123{fill:#433a30;}.cls-124{fill:#6f502e;}.cls-125{fill:#c3b87e;}.cls-126{fill:#72602f;}.cls-127{fill:#8b723f;}.cls-128{fill:#7f673c;}.cls-129{fill:#c6b880;}.cls-130{fill:#8c693c;}.cls-131{fill:#c7b986;}.cls-132{fill:#352f28;}.cls-133{fill:#3b2d1a;}.cls-134{fill:#51411f;}.cls-135{fill:#363029;}.cls-136{fill:#9c7b47;}.cls-137{fill:#d0be8a;}.cls-138{fill:#3d3a33;}.cls-139{fill:#66522a;}.cls-140{fill:#7e5d37;}.cls-141{fill:#4c4438;}.cls-142{fill:#b99a62;}.cls-143{fill:#e0d39a;}.cls-144{fill:#8f7447;}.cls-145{fill:#37322a;}.cls-146{fill:#544026;}.cls-147{fill:#b08f59;}.cls-148{fill:#beb27b;}.cls-149{fill:#b2a46b;}.cls-150{fill:#c0a36d;}.cls-151{fill:#cbbd8a;}.cls-152{fill:#d7c592;}.cls-153{fill:#81643a;}.cls-154{fill:#8c6b3e;}.cls-155{fill:#d0ba86;}.cls-156{fill:#cdc28d;}.cls-157{fill:#87663b;}.cls-158{fill:#c1a46f;}.cls-159{fill:#a6a295;}.cls-160{fill:#c9c4b3;}.cls-161{fill:#c0bcab;}.cls-162{fill:#999484;}.cls-163{fill:#adaa9f;}.cls-164{fill:#755936;}.cls-165{fill:#493925;}.cls-166{fill:#6d5232;}.cls-167{fill:#594d39;}.cls-168{fill:#817a6b;}.cls-169{fill:#8b683d;}.cls-170{fill:#785732;}.cls-171{fill:#453b30;}.cls-172{fill:#aa8e57;}.cls-173{fill:#9e998a;}.cls-174{fill:#46351d;}.cls-175{fill:#7b5e3b;}.cls-176{fill:#92784a;}.cls-177{fill:#41382d;}.cls-178{fill:#5b4325;}.cls-179{fill:#8a783d;}.cls-180{fill:#bcb077;}.cls-181{fill:#968b50;}.cls-182{fill:#413422;}.cls-183{fill:#847f71;}.cls-184{fill:#6e5638;}.cls-185{fill:#b5b1a2;}.cls-186{fill:#b7a872;}.cls-187{fill:#7f6439;}.cls-188{fill:#372b16;}.cls-189{fill:#a1965d;}.cls-190{fill:#8f6d41;}.cls-191{fill:#5c4528;}.cls-192{fill:#625644;}.cls-193{fill:#3e2f1d;}.cls-194{fill:#37302b;}.cls-195{fill:#535149;}.cls-196{fill:#4e4b45;}.cls-197{fill:#5b574e;}.cls-198{fill:#9c7846;}.cls-199{fill:#775935;}.cls-200{fill:#8b6c40;}.cls-201{fill:#523f27;}.cls-202{fill:#5e5a51;}.cls-203{fill:#5d5a51;}.cls-204{fill:#565249;}.cls-205{fill:#45433d;}.cls-206{fill:#4b4942;}.cls-207{fill:#504d45;}.cls-208{fill:#3e3b33;}.cls-209{fill:#423f3a;}.cls-210{fill:#47453f;}.cls-211{fill:#494742;}.cls-212{fill:#4d4c47;}.cls-213{fill:#614b2f;}.cls-214{fill:#464440;}.cls-215{fill:#b5975d;}.cls-216{fill:#7f613a;}.cls-217{fill:#403d37;}.cls-218{fill:#3b342c;}.cls-219{fill:#3c3932;}.cls-220{fill:#785c37;}.cls-221{fill:#8e8879;}.cls-222{fill:#979282;}.cls-223{fill:#473722;}.cls-224{fill:#99968b;}.cls-225{fill:#816038;}.cls-226{fill:#7a5f3d;}.cls-227{fill:#3f3d37;}.cls-228{fill:#3a362f;}.cls-229{fill:#9b7b48;}.cls-230{fill:#44423c;}.cls-231{fill:#6a4f2f;}.cls-232{fill:#42403a;}.cls-233{fill:#4f3e23;}.cls-234{fill:#3f3c36;}.cls-235{fill:#e2d6a5;}.cls-236{fill:#43413b;}.cls-237{fill:#4d4b44;}.cls-238{fill:#473723;}.cls-239{fill:#694e2d;}.cls-240{fill:#312c27;}.cls-241{fill:#cfcab8;}.cls-242{fill:#d7d1bf;}.cls-243{fill:#9f9c92;}.cls-244{fill:#5a574e;}.cls-245{fill:#525048;}.cls-246{fill:#474540;}.cls-247{fill:#dfd9c5;}.cls-248{fill:#888274;}.cls-249{fill:#aaa696;}.cls-250{fill:#725633;}.cls-251{fill:#b9b3a2;}.cls-252{fill:#765a37;}.cls-253{fill:#4b3923;}.cls-254{fill:#906f41;}.cls-255{fill:#e8e1ca;}.cls-256{fill:#dfd9c4;}.cls-257{fill:#54422b;}.cls-258{fill:#8c6f49;}.cls-259{fill:#916e40;}.cls-260{fill:#ad8d54;}.cls-261{fill:#9e998b;}.cls-262{fill:#d0cab7;}.cls-263{fill:#bbb6a4;}.cls-264{fill:#ada898;}.cls-265{fill:#c5bfac;}.cls-266{fill:#aeaca2;}.cls-267{fill:#c9c5b8;}.cls-268{fill:#b6b3a9;}.cls-269{fill:#c4c0b6;}.cls-270{fill:#423f39;}.cls-271{fill:#745835;}.cls-272{fill:#5f5c53;}.cls-273{fill:#503d24;}.cls-274{fill:#977443;}.cls-275{fill:#ccb468;}.cls-276{fill:#c8b275;}.cls-277{fill:#d5c89f;}.cls-278{fill:#57554c;}.cls-279{fill:#806139;}.cls-280{fill:#937244;}.cls-281{fill:#5b574f;}.cls-282{fill:#564228;}.cls-283{fill:#9f7c49;}.cls-284{fill:#443521;}.cls-285{fill:#8e6e41;}.cls-286{fill:#514e46;}.cls-287{fill:#a5a091;}.cls-288{fill:#a9a69d;}.cls-289{fill:#bfbaa9;}.cls-290{fill:#b3af9f;}.cls-291{fill:#ccc4af;}.cls-292{fill:#6f5b3f;}.cls-293{fill:#525049;}.cls-294{fill:#4c4942;}.cls-295{fill:#4d4b43;}.cls-296{fill:#484641;}.cls-297{fill:#907143;}.cls-298{fill:#352919;}.cls-299{fill:#e4dcc5;}.cls-300{fill:#5b584e;}.cls-301{fill:#58452e;}.cls-302{fill:#887d6a;}.cls-303{fill:#88643a;}.cls-304{fill:#997644;}.cls-305{fill:#d9d3c0;}.cls-306{fill:#634e33;}.cls-307{fill:#c3beab;}.cls-308{fill:#cfc8b4;}.cls-309{fill:#e6dfc7;}.cls-310{fill:#d7d1bb;}.cls-311{fill:#535049;}.cls-312{fill:#d8d2bd;}.cls-313{fill:#e2dbc7;}.cls-314{fill:#dbd5c1;}.cls-315{fill:#382918;}.cls-316{fill:#664d2e;}.cls-317{fill:#c3ad76;}.cls-318{fill:#e3ddc7;}.cls-319{fill:#a68b53;}.cls-320{fill:#9c7d4a;}.cls-321{fill:#ded7c1;}.cls-322{fill:#a88e61;}.cls-323{fill:#ede6cc;}.cls-324{fill:#2a1e11;}</style></defs><g id="Layer_2" data-name="Layer 2"><g id="Layer_5_Image" data-name="Layer 5 Image"><path class="cls-1" d="M103,0l2,1.93c-3.19,2.75-7.26.6-10.71,1.93-1.75.4-3.43-.09-5.12-.39-3.05-.58-6.46,1-9.16-1.57V0Z"/><path class="cls-2" d="M60.72,6.94,62,6c1-.92,2.28-1.2,3.42-1.79l6.67,0a1.58,1.58,0,0,1,.3,1.28c-1.11,2-3.64,1.7-5.1,3.14a41,41,0,0,1-3.55,2.11C57.83,12.28,53,16.2,47.5,18.55c-3.12,2-7.24,2.31-9.61,5.61-1,1.12-2.17,2.16-3.23,3.27-.45.49-.92.95-1.39,1.42-1.52,1.62-3.44,2.82-4.77,4.63-1.85,2.55-4.94,4-6.38,6.89a18.13,18.13,0,0,1-3.88,5.23c-.23.36-.48.7-.73,1.06-1.24,2-2.69,3.89-3.41,6.19A4.89,4.89,0,0,1,13.44,54a2.67,2.67,0,0,1-1.16.62,4,4,0,0,1-1.34-.1A4.17,4.17,0,0,1,8.78,53a2,2,0,0,1,.63-1.83A29.35,29.35,0,0,1,11.92,48L14,44.75c.56-1,.57-2.34,1.92-2.78l1.11-2A7.79,7.79,0,0,1,18.85,37c.34-.74,0-1.83,1.18-2.15,4.21-4,7.23-9.3,12.78-11.88.57-1.73,2.51-1.68,3.6-2.74,1.64-2.71,4.86-3.57,6.83-5.9a4.33,4.33,0,0,1,2.22-1.27c1.21-.37,2.46-.58,3.66-1L51,10.83C54.09,9.1,57,6.89,60.72,6.94Z"/><path class="cls-3" d="M169.86,44.28a2.92,2.92,0,0,0,2,2.79c1.6,1.27,1.83,3.13,2.12,5l1.25,2c1.75.83,1.25,2.64,1.76,4l.23,1a3.92,3.92,0,0,1,1.52,3.2c-.48,1,.23,2.64-1.49,3.06a3.3,3.3,0,0,1-2.14-1.9,60.48,60.48,0,0,0-5.05-11.48c-3.05-4.2-4.67-9.36-8.65-12.95a45.34,45.34,0,0,1-4.4-5.27c-3-3.74-7.19-6.24-10.36-9.82a22,22,0,0,0-4.15-3.15c-1.27-.88-2.71-1.46-4-2.24a50.6,50.6,0,0,0-11.65-5.77c-3.09-1.81-6.67-2.38-9.87-3.89-1.55-1.48-4.17-1.27-5.36-3.34A2.48,2.48,0,0,1,111.75,4a.69.69,0,0,1,1.2.14c1.73,1.69,4,.39,5.93,1.16,1.17-.16,2.31-.25,3,1l1.19.69c.87.66,2.17-.1,2.94.9a1.23,1.23,0,0,0,.89.36c2.53-.13,4.24,1.47,6,2.89.34,1,1.24.78,2,.91,1.16.38,2.42.59,3.1,1.8l5,3c2.15-.12,3.16,1.32,4,2.94L150,22a9.82,9.82,0,0,1,5.94,5.08h0a4.73,4.73,0,0,1,3,3h0A6.61,6.61,0,0,1,163,34.92l.06.08A8.48,8.48,0,0,1,167,40.06l1.25,1.9A2.78,2.78,0,0,1,169.86,44.28Z"/><path class="cls-4" d="M21,152.14,19.91,151a4.85,4.85,0,0,1-2.69-2.52c-.54-1.07-.34-2.42-1.21-3.38L16,145c-1.35-.42-1.45-1.74-2-2.75-.83-1-1.66-2.08-2.5-3.11a15,15,0,0,0-2.38-3.61A4.63,4.63,0,0,1,8,133.15c-.38-1.31-1.18-2.53-.85-4a3.17,3.17,0,0,1,.64-1.25c1-.5,1.81,0,2.54.67a9.38,9.38,0,0,1,1.37,2.4,10.59,10.59,0,0,0,2.06,4.1A12.51,12.51,0,0,1,15,136.65c1.18,2.13,2.62,4.11,3.82,6.23a110.32,110.32,0,0,0,18.5,19.87c.73.5,1.44,1,2.12,1.6a14.3,14.3,0,0,0,3.24,2.16c3.62,2.74,7.71,4.65,11.73,6.67,2.37,1.39,5.67,1.37,6.86,4.53a3.22,3.22,0,0,1-2.16,1.76c-1.51.46-2.73-.2-3.9-1A8.77,8.77,0,0,0,51,176.79a5.08,5.08,0,0,1-2-1.65c-2,0-2.8-2.49-4.88-2.23-3.35-1.84-6.14-4.45-9.12-6.79L32.84,164c-3.41-1.57-5.89-4.24-8.31-7a5.91,5.91,0,0,1-1.34-1.52C22.69,154.22,21.41,153.46,21,152.14Z"/><path class="cls-5" d="M183.18,106l-.23,3a1,1,0,0,1-1.27-.09c-1.33-1.72-.59-3.72-.74-5.56-.46.25,0,.64-.19.93-1.38,2.55-2.27,6.81-5.2,6.45-2.73-.34-1-4.57-1.65-7-.46-1.73-.14-3.62-.3-5.43.15-1.68-1.24-3.8,1.3-4.79.21-.26.8.13.87-.47a6.09,6.09,0,0,1-.89.09c-3.81-2.81-.85-5.86-.35-8.82,2.24.81,2.24.81,3,4.28,1.77-2.18.79-4.44.45-6.66-.17-1.78-.35-3.55,1-5a2.31,2.31,0,0,1,1.47-.35,1.75,1.75,0,0,1,1.16.91c.67,2.63.28,5.41,1.08,8a11.06,11.06,0,0,1,.35,1.43c.71,4.12-.59,8.16-.54,12.4.31-1.09-.48-3.14,1.89-2A17.91,17.91,0,0,1,183.18,106Z"/><path class="cls-6" d="M126.66,178.81h-.38l-.27.25c-.79,1.06-2.13.22-3,.89l-3,1.19c-.82.91-1.63,1.83-3,1l-8.95,1a1.81,1.81,0,0,1-.44-1.44c1.1-2.33,3.4-2.42,5.46-2.89a80,80,0,0,0,10.1-2.6c4.87-1.91,9.74-3.82,14.1-6.81a16.45,16.45,0,0,1,4.51-2.21,6,6,0,0,1,1.46-.11,3,3,0,0,1,2,.89c-.22,3.24-3.12,3.11-5.14,4.07l-7.13,3.82A11.84,11.84,0,0,1,126.66,178.81Z"/><path class="cls-7" d="M11.1,54l1.19.13c1.8,2.74.61,5.24-1.09,7.27a13.3,13.3,0,0,0-3,9.64c-.63,3.42-2,6.66-2.31,10.16-1.31,3.42.42,7.29-1.55,10.61A1.32,1.32,0,0,1,2.81,92c-1.23-1.44-1.06-3.2-1.16-4.9,0-3.23.37-6.44.68-9.64.62-2.35,1-4.81,2.22-6.93,1.84-3.32-1.44-.4-1.49-1.31a1,1,0,0,1-.36-.79c0-.29.06-.44.13-.44C4.28,66.65,4,64.56,5,63c-.88-1.78.12-2.87,1.41-3.86L7.05,58c.7-1-.42-3,1.72-3.27C9.42,56.24,9.42,56.24,11.1,54Z"/><path class="cls-8" d="M149.93,164.94l-3,2.74c-1.15-1.06-1.51-2.57-2.18-3.9a11.35,11.35,0,0,1-.47-1.22c0-1.95-3.27-2.6-2-5.05a4.25,4.25,0,0,1,4.64.49,9.15,9.15,0,0,1,1.43,1.42c3.82,1.06,4.47-3,6.8-4.24,1.7-1.19,2.66-3,3.8-4.64a5.67,5.67,0,0,1,.93-1c1-.63,2.05-1.21,3.3-.61a2.5,2.5,0,0,1,.4,1.33c-1.16,2.49-1.65,5.48-4.74,6.58h0a5,5,0,0,1-2.94,3.06h0A10.21,10.21,0,0,1,149.93,164.94Z"/><path class="cls-9" d="M4,76.88C2.37,80.12,3.27,83.6,3,87a5.47,5.47,0,0,0,0,5H4a2.34,2.34,0,0,1,.52,2.15,9,9,0,0,0-.92,6.24c.39,1.82.63,3.7-1.61,4.66-2.15-.87-2-2.7-2-4.55C.08,93.3-.33,86.09,1,79A19,19,0,0,1,1.86,74L2.19,73C4.86,73.32,2.61,75.92,4,76.88Z"/><path class="cls-10" d="M180,77c-1.7,1.39-.78,3.32-1,5-2,.43-1.52-1.62-2.41-2.36-.77,1-.37,2.48-1.32,3.4-2.74.13-2.05-2.19-2.58-3.63-.45-1.23-.18-3.26-2.58-2.18a1.83,1.83,0,0,1-1.34-.15,3.53,3.53,0,0,1-.65-1.28A3.79,3.79,0,0,1,168.6,73c1.58-1.6,3.9-1.59,5.82-2.3,2.66-1,2.44-2.52,2.12-4.49a1.71,1.71,0,0,1,.6-1.22c1.09-.8.74-2,.91-3.1.88-.14,1.31.15,1,1.1-.44,2.12,1.74,3.92.75,6.1C180,71.7,182.38,74.29,180,77Z"/><path class="cls-11" d="M163.07,150.18l-.09-1.25a1.25,1.25,0,0,1-.28-1.2c.87-1.74,1.92-3.38,2.8-5.12a46.47,46.47,0,0,0,3.84-6.72,26.28,26.28,0,0,0,1.76-2.8c.81-1.34.91-3.28,3-3.56a1.86,1.86,0,0,1,1.54,1.39,2.16,2.16,0,0,1-.68,2c-1.12.27-.86,1.21-1,2-.3,1.83-.46,3.73-2.16,4.95l-2,2.72a2.64,2.64,0,0,1-1.66,2.4l-1.24,1.88C166.22,148.64,165.47,150.37,163.07,150.18Z"/><path class="cls-12" d="M175.1,131.17,174,130c-1.25-1.19-.75-2.46-.2-3.74.83-1.36.3-2.84.34-4.27a5.4,5.4,0,0,1,.29-1.25,18.15,18.15,0,0,1,2.64-4.47c.89-.88,1.18-2.44,2.81-2.47,1,.81.27,2.11.82,3L177,128.94C176.37,129.71,176.79,131.33,175.1,131.17Z"/><path class="cls-1" d="M105,185c-1.55,1.87-3.66,2-5.88,2-4.82,0-9.65,0-14.47,0-1.34,0-2.46,0-1.65-1.85,2.41-2.47,5.51-1.36,8.32-1.52,3.08-.17,6.18-.07,9.26,0C102.18,183.66,103.82,183.62,105,185Z"/><path class="cls-13" d="M108,182l0,1.08-.94.88c-2.08,1-4.3.27-6.44.5-7.89-.29-15.79.6-23.66-.48v-.09a1.63,1.63,0,0,1,0-2.22c2.34-1.46,4.74-.15,7.11-.13a42.06,42.06,0,0,0,5.5,0,29.66,29.66,0,0,1,7.93.05C101,182.07,104.63,179.43,108,182Z"/><path class="cls-1" d="M32.81,23C28.33,26.69,25.17,31.84,20,34.84,23.5,30,25.82,24,32.81,23Z"/><path class="cls-1" d="M183.18,106c-.79-3.08,1.81-5.91.68-9-1.76-2.08-.53-4.55-.86-6.81,1.08-3-2.52-6.13.18-9.12A3.57,3.57,0,0,1,185,84.28q0,9.19,0,18.39A3.48,3.48,0,0,1,183.18,106Z"/><path class="cls-14" d="M93.57,2.65c3.72-1.7,7.65,0,11.44-.72l4,1.13a1,1,0,0,1,0,1.21,2.73,2.73,0,0,1-3.18,0,3.86,3.86,0,0,1-1.31-1.07c0,.77,1.25,1.1.65,2a5.06,5.06,0,0,1-3.29,1.25,5.35,5.35,0,0,1-2.12-.69C97.7,4.64,94.24,6.37,93.57,2.65Z"/><path class="cls-15" d="M80,1.9l9.81.28a1.38,1.38,0,0,1,.35,2c-2.72,1.47-5.72,1.57-8.7,1.75a4,4,0,0,1-1.25-.46C79.58,4.08,77.9,4,76.94,3,77.64,1.73,79.05,2.42,80,1.9Z"/><path class="cls-16" d="M5.32,125l-1.44-5a2.74,2.74,0,0,1-.38-2.83c.08-2.43-1.52-5,.42-7.29,3.19.55,2.34,3.47,3.19,5.39.2,1.45.47,2.89.67,4.34A7,7,0,0,1,7.7,121C7.09,122.46,7.48,124.5,5.32,125Z"/><path class="cls-1" d="M25,156.3l7.87,7.7c-4.88.83-6-3.84-8.82-6C23.7,157.06,24.14,156.57,25,156.3Z"/><path class="cls-17" d="M77,184h24c.34.22.45.42.32.6s-.24.27-.37.27l-17.94.3C81.1,184.26,78.82,185.31,77,184Z"/><path class="cls-1" d="M163.07,150.18l3.87-3.3c0,3.44-4.18,8.61-8.1,9.93C160.33,154.65,162.35,152.83,163.07,150.18Z"/><path class="cls-1" d="M35,166.12c3.55,1.57,7,3.3,9.12,6.79C39.38,173,37.38,169.29,35,166.12Z"/><path class="cls-18" d="M4.08,109.88c-.63,2.39.85,4.87-.34,7.22l-.4.19L3.05,117c-1-1.15-1-2.59-1.11-4A12.84,12.84,0,0,1,1,108L2.21,106c.76-.24,1.17.22,1.52.78C4.15,107.8,4.61,108.79,4.08,109.88Z"/><path class="cls-19" d="M3.07,107.05l-.86-1L2,105a5.53,5.53,0,0,0,.4-4.6c-.68-2.27-1.18-4.82,1.5-6.45a19.81,19.81,0,0,1,.6,12.7A1.11,1.11,0,0,1,3.07,107.05Z"/><path class="cls-20" d="M72.15,182.79l-3.16.36c-1.88.6-2.89-.19-3.24-2a4,4,0,0,1,2.37-1.85,6.3,6.3,0,0,1,3-.09c1.74.78,4.24.06,5.11,2.57C75.23,183.4,73.64,182.92,72.15,182.79Z"/><path class="cls-1" d="M60.72,6.94c-3.15,1.48-6.23,3.14-9.68,3.89C53.67,8.06,56.24,5.12,60.72,6.94Z"/><path class="cls-21" d="M4,76.88c-1.64-.84-.32-3-1.79-3.93a1,1,0,0,1,0-.92c-.05-1.13-.21-2.3,1-3l2.62-1.14C6.27,71.16,3.9,73.78,4,76.88Z"/><path class="cls-1" d="M43.71,14.94c-2.1,2.22-4.74,3.69-7.3,5.28.08-3.69,4-3.89,5.61-6.22C42.94,13.68,43.43,14.13,43.71,14.94Z"/><path class="cls-22" d="M68,180l-2.28,1.12A1.31,1.31,0,0,1,64,181.1l-1-.17a13.69,13.69,0,0,1-3.67-1.52l-.3-.6,2-.91c1.35-1.22,2.8-.62,4.23-.23C66.51,178.12,67.66,178.62,68,180Z"/><path class="cls-23" d="M145,163c1.57,1.2,1.92,2.88,1.91,4.72l-.91.46c-.35.35-.64.32-.88-.13l-2-.1C141.36,165.36,142.63,164,145,163Z"/><path class="cls-1" d="M180.89,70c1.27,1.17,2.35,5.26,2.1,8a.86.86,0,0,1-1,.31,3.8,3.8,0,0,1-.88-1.5l.05.06A9.8,9.8,0,0,1,180.89,70Z"/><path class="cls-24" d="M76.94,3c.53,1.28,3.69-1.81,2.86,1.72-2.53,2.34-5.11,2.11-7.72.14a3.76,3.76,0,0,0,0-.67Z"/><path class="cls-5" d="M182.09,77.62a3.61,3.61,0,0,1,.9.39c.06,1,.13,2,.19,3-.73,3.08,1.78,5.93.68,9.05-2.67-.42-.4-3.11-1.87-4.08l0,.05A13.89,13.89,0,0,1,182.09,77.62Z"/><path class="cls-25" d="M181.07,102.05c1.83,2.19.41,4.84,1,7.2.91,1.24.51,2.47,0,3.71L181,114a5.41,5.41,0,0,1-1.62-3.54A27.59,27.59,0,0,1,181.07,102.05Z"/><path class="cls-1" d="M155.9,27.1,150,22C153.9,21.42,155.39,23.68,155.9,27.1Z"/><path class="cls-26" d="M5.32,125c1.45-1,0-3,1.54-4A4.14,4.14,0,0,1,9,124.23,4,4,0,0,1,8,128c0,.38,0,.76-.08,1.14a1,1,0,0,1-1.14,0c-.71-1-1.08-2.23-1.73-3.29A1,1,0,0,1,5.32,125Z"/><path class="cls-1" d="M149.93,164.94l6-5.08C155,162.78,154,165.72,149.93,164.94Z"/><path class="cls-1" d="M132.93,11.14l-6-2.89C130.21,6.48,131.5,9,132.93,11.14Z"/><path class="cls-1" d="M167,40.06,163.07,35C166.19,35.28,167.83,36.71,167,40.06Z"/><path class="cls-1" d="M145.12,168a1.27,1.27,0,0,1,.88.13c-.9,3-2.48,4.87-5.95,3.83Z"/><path class="cls-27" d="M180.89,70c.08,2.28.17,4.57.26,6.85L180,77c.8-2.66-1.82-5.24-.17-7.91Z"/><path class="cls-1" d="M147,19.84l-4-2.94C145.3,15.63,146.82,16.74,147,19.84Z"/><path class="cls-1" d="M163,34.92l-4.14-4.78C162.15,30.08,163.67,31.56,163,34.92Z"/><path class="cls-1" d="M11.92,48c-.42,1.38-.35,3-1.92,3.81-.72-.39-1.67-.66-1-1.81C9.09,48,10.47,48,11.92,48Z"/><path class="cls-28" d="M55.06,177.89c1.49-.38,2.41,1.7,4,.92l-.09.33A1.14,1.14,0,0,1,59,181c-1.72.09-3.25-.18-4-2-.32-.25-.41-.5-.3-.73S55,177.89,55.06,177.89Z"/><path class="cls-1" d="M126.66,178.81l6.26-3C131.43,178,129.83,180.06,126.66,178.81Z"/><path class="cls-1" d="M10,135.15c1.09,1.1,2.23,2.18,1.48,4C10.14,139,9.11,138.53,9,137,8.33,135.82,9.29,135.55,10,135.15Z"/><path class="cls-1" d="M171.81,139.88a10.66,10.66,0,0,1,2.16-4.95C175.6,137.61,174.14,138.93,171.81,139.88Z"/><path class="cls-1" d="M175.1,131.17l1.87-2.23c1.33,2.35.84,3.78-2,4C175,132.36,175,131.76,175.1,131.17Z"/><path class="cls-1" d="M1,108c1.66,1.41,1,3.25.92,5C.82,111.45-1,110.07,1,108Z"/><path class="cls-28" d="M17.84,148c.31,1.26,2.26,1.39,2.07,3-2.29,1.25-3-.62-3.89-2C16.54,148.48,16.8,147.5,17.84,148Z"/><path class="cls-1" d="M177,58c-1.38-1-1-2.74-1.76-4C178.93,54,178,56,177,58Z"/><path class="cls-1" d="M174,52a10.48,10.48,0,0,1-2.12-5C174.1,48.06,175.62,49.37,174,52Z"/><path class="cls-1" d="M7.11,129l.85.15L8.83,133A1.14,1.14,0,0,1,7,133a6.65,6.65,0,0,1-1-4A.66.66,0,0,1,7.11,129Z"/><path class="cls-1" d="M1.86,74C2,75.74,2.51,77.54,1,79-1,76.9.85,75.53,1.86,74Z"/><path class="cls-28" d="M43.71,14.94,42,14a5.47,5.47,0,0,1,4-2,1.24,1.24,0,0,1,0,1.89C45.27,14.28,44.17,13.9,43.71,14.94Z"/><path class="cls-1" d="M14,142.23c1.22.51,1.42,1.77,2,2.75-.85.35-1.72.91-2.45-.18S13.6,143,14,142.23Z"/><path class="cls-28" d="M7,133h1.8c.22.81.07,1.83,1.17,2.17L9,137A5.49,5.49,0,0,1,7,133Z"/><path class="cls-1" d="M21,152.14A4.46,4.46,0,0,1,23.74,155,1.06,1.06,0,0,1,22,155C20.57,154.43,20.12,153.53,21,152.14Z"/><path class="cls-1" d="M59,181c0-.61,0-1.22-.05-1.83,1.74-.28,2.9.76,4.06,1.79C61.71,182,60.35,180.48,59,181Z"/><path class="cls-28" d="M3.17,69.05c-.42,1,.47,2.39-1,3-2.08-1.74-.81-2.89.69-4Z"/><path class="cls-1" d="M9.05,54.9,7.05,58a3.24,3.24,0,0,1,0-4,1.46,1.46,0,0,1,1.87-.32.93.93,0,0,1,.3.8C9.17,54.76,9.12,54.9,9.05,54.9Z"/><path class="cls-28" d="M8.86,54H7a5.49,5.49,0,0,1,2-4c.32.6.64,1.21,1,1.81-.55.23-1,.51-.82,1.24A.64.64,0,0,1,8.86,54Z"/><path class="cls-1" d="M15.9,42c-.49,1-.78,2.2-1.92,2.78-.37-.81-1.12-1.56-.49-2.55S15.05,41.6,15.9,42Z"/><path class="cls-1" d="M18.85,37A2.37,2.37,0,0,1,17,39.93C15.71,37.75,16.43,36.84,18.85,37Z"/><path class="cls-1" d="M64,181.1l1.68.05c.9,1,1.78,2,3.27,2C66.24,185.13,65.35,182.61,64,181.1Z"/><path class="cls-29" d="M101,184.83a6.35,6.35,0,0,0,0-.87h6.1L105,185Z"/><path class="cls-30" d="M72.15,182.79c1-1.34,2.56-.66,3.87-.88a.63.63,0,0,1,1,.18c0,.6,0,1.19,0,1.79L76,184c-1.25-.65-2.76-.14-4-.87Z"/><path class="cls-1" d="M117,182.11l3-1a2.71,2.71,0,0,1-3,2.49C116.17,183.61,116.9,182.65,117,182.11Z"/><path class="cls-1" d="M55.06,177.89,55,179l-3-1c-.5-.53-1.52-.78-1-1.86C52.82,175.7,54,176.6,55.06,177.89Z"/><path class="cls-28" d="M22,155h1.72L25,156.3c-.32.56-.63,1.12-.95,1.67A3,3,0,0,1,22,155Z"/><path class="cls-1" d="M179.1,63l-1-1.1c-.28-1-.56-1.92-.83-2.88C179.15,59.7,180.5,60.68,179.1,63Z"/><path class="cls-1" d="M3.05,117l.69.14c0,1,.09,1.92.14,2.88C1.76,119.48,1.47,118.48,3.05,117Z"/><path class="cls-31" d="M180.1,111c1.1.76.78,1.94.91,3-.1.94-.19,1.88-.29,2.82-.94-.78-.63-1.93-.84-2.92A2,2,0,0,1,180.1,111Z"/><path class="cls-1" d="M182.08,113c0-1.24,0-2.47,0-3.71a6.74,6.74,0,0,0,.86-.3C184.74,110.74,183,111.76,182.08,113Z"/><path class="cls-1" d="M158.86,30.13l-3-3C158.28,26.75,159.28,27.75,158.86,30.13Z"/><path class="cls-1" d="M65.44,4.16C65.27,6.59,63.54,6.07,62,6,62.29,3.7,63.92,4,65.44,4.16Z"/><path class="cls-1" d="M138,13.85l-3.1-1.8C136.92,11,137.84,11.77,138,13.85Z"/><path class="cls-1" d="M46,13.89V12a2.74,2.74,0,0,1,3.1.05Z"/><path class="cls-1" d="M126,7.89a3,3,0,0,1-2.94-.9C124.31,6.44,125.71,5.37,126,7.89Z"/><path class="cls-1" d="M168.18,145l1.66-2.4c.2.89,1.27,1.81.13,2.63C169.61,145.48,168.79,145.09,168.18,145Z"/><path class="cls-1" d="M121.88,6.3c-1-.42-2.27.12-3-1C120.69,3.21,121.3,4.69,121.88,6.3Z"/><path class="cls-1" d="M109.34,3.86a6.33,6.33,0,0,0-.36-.8c1.67-.92,2.9-.21,4,1.07l-1,0A1.74,1.74,0,0,1,109.34,3.86Z"/><path class="cls-28" d="M6.39,59.12,5,63C3.21,60.87,4.32,59.82,6.39,59.12Z"/><path class="cls-1" d="M169.86,44.28,168.21,42c.72-.31,1.62-1,2,.09C170.49,42.65,170,43.53,169.86,44.28Z"/><path class="cls-1" d="M17.84,148,16,149c0-1.29,0-2.59,0-3.88C16.85,145.92,17.82,146.66,17.84,148Z"/><path class="cls-1" d="M155.9,159.87l2.94-3.06C159,158.93,158,159.9,155.9,159.87Z"/><path class="cls-28" d="M7.11,129,6,129c-1.2-.78-1-2-.94-3.13A3.09,3.09,0,0,1,7.11,129Z"/><path class="cls-28" d="M51,176.11,52,178a2.78,2.78,0,0,1-3-2.83Z"/><path class="cls-1" d="M123,179.94c.75-1.18,1.93-.89,3-.89C125.68,181.68,124.22,180.44,123,179.94Z"/><path class="cls-1" d="M72,183.09c1.39,0,2.91-.58,4,.87C74.42,184.87,73.13,184.36,72,183.09Z"/><path class="cls-32" d="M90,3.91c-.06-.58-.11-1.15-.17-1.73l3.74.47c1.69,3,5.48-.2,7.3,2.45.72,4.07,2.75,2.89,4.91,1.22,2.12-.45,3.36,1,4.76,2.15,2.36,1.94,1.67,3.25-.79,4.26-2.69.52-5.27-.5-7.92-.52-3.21,0-3.87-2.66-4.94-4.85-.61-1.58-1.62-.47-2.49-.34a7.38,7.38,0,0,1-5.16-.6C88.14,5.18,89.29,4.61,90,3.91Z"/><path class="cls-33" d="M64,10a3.65,3.65,0,0,1,3-2.2A1,1,0,0,1,68.28,8c1,4,3.74,4.26,7,3.24C79.94,9.75,85,9.57,89.48,7.19a6.51,6.51,0,0,1,.79,3.72A5.67,5.67,0,0,1,89.43,14a3.3,3.3,0,0,1-1.3.88c-2.46.79-5.08.07-7.54.87-1.17.32-2.35.63-3.49,1.06-.69.27-1.39.49-2.09.7-2.87.73-5.77,1.3-8.69,1.76-4,.38-8,1-12,1.11C53.3,17,56.21,16.94,58,16,60.69,14.66,64.07,14.06,64,10Z"/><path class="cls-34" d="M64,10c2.59.67,2.43,2.27.7,3.44-2,1.35-3.55,3.49-6.34,3.72A4.64,4.64,0,0,0,54.05,20a1,1,0,0,1-.17,1.35,3.38,3.38,0,0,1-3.57.11c0-2.37-2.92-1.87-3.57-3.62C52.51,15.25,57.18,10.25,64,10Z"/><path class="cls-35" d="M7.13,71c-.75-3.61-.19-6.79,2.55-9.56a9.39,9.39,0,0,0,2.61-7.25L13,54c1.6,1.12,2.56,2.79,3.68,4.32.35,2.28,2.14,4.76-.91,6.56-1.63.54-3.59.26-4.8,1.88-.8,1.14-.75,2.59-1.41,3.79C8.88,71.34,8.13,71.82,7.13,71Z"/><path class="cls-36" d="M46.74,17.85c1.56.66,4.33.09,3.35,3.31a2.17,2.17,0,0,1-.46,1.77c-.9,1.55-1.86,3-4,2a6.81,6.81,0,0,0-3.56-.59c-2.45.36-.83,3.11-2.35,4-2.4.31-2.7-1.47-3.13-3.13a2.3,2.3,0,0,1,.33-1.4C38.87,19.68,43.37,19.7,46.74,17.85Z"/><path class="cls-37" d="M21.16,40c1.09-3.41,4.36-4.77,6.64-7.08a21.78,21.78,0,0,1,4.84-3.21,1.38,1.38,0,0,1,.9.89c0,3.14-3.21,4.8-3.59,7.77a21.65,21.65,0,0,1-1.39,3.16c-1.19,1.81-2.53,2.84-4.43.83C23.38,41.25,21.91,41.06,21.16,40Z"/><path class="cls-38" d="M21.16,40c1.3.22,2.93-.55,3.7,1.25-1.55,2.12.93,4.83-1,6.94-1.2,1.27-1.86,3.13-4,3.28-2.92-1.33-2.06-4.15-2.53-6.44C19.19,43.78,20,41.76,21.16,40Z"/><path class="cls-39" d="M37.09,25c1.26.67.66,3,2.7,3a1.88,1.88,0,0,1,1.72,1.21A2.15,2.15,0,0,1,41,31.29c-2.86.75-5.6.64-8-1.32l0,0a1.61,1.61,0,0,1-.12-2.14l.93-1C35.09,26.54,35.89,25.42,37.09,25Z"/><path class="cls-40" d="M17.31,45c1.87,1.59,1.09,4.39,2.77,6.06.46,2.77.14,5.16-3,6.13-1.43-1.46-1.51-3.57-2.5-5.25C14.21,49.48,16.78,48.22,17,46Z"/><path class="cls-41" d="M15,51.93c3.18.66,1.7,3.27,2.12,5.08.18.81-.17,1.14-1,1.06C13.62,57.81,13.44,55.79,13,54a2.77,2.77,0,0,1,.14-.86C13.55,52.39,13.81,51.45,15,51.93Z"/><path class="cls-15" d="M68,8,67,7.8c.85-2.41,3.89-1,5-2.93l7.72-.14.37.49C76.72,8.89,72.38,8.61,68,8Z"/><path class="cls-42" d="M15,51.93,13.15,53.1c.1-3,2.2-5,3.87-7.11C17.63,48.41,15.13,49.76,15,51.93Z"/><path class="cls-43" d="M32.92,27.85,33,30l-5.24,2.9C28.76,30.45,31.25,29.57,32.92,27.85Z"/><path class="cls-44" d="M8.86,54c.1-.32.21-.63.32-1a1.87,1.87,0,0,1,1.92,1c-.25,1.21-.48,2.42-1.65,3.14-.14-.75-.27-1.5-.4-2.25A1.61,1.61,0,0,0,8.86,54Z"/><path class="cls-43" d="M37.09,25c-.71,1.27-1.6,2.21-3.24,1.85l3.06-3Z"/><path class="cls-45" d="M97,6.11c2.43,6.15,8.27,4.83,13,5.93,3.37.55,4.18-2.38,5.78-4.24a1.12,1.12,0,0,1,1.25.1c3.42,1.17,7.23,1.37,10.07,4l-.44.51c-2.49,0-4.34,1.57-6.34,2.74a2.87,2.87,0,0,1-1.56-1.83,2,2,0,0,0-.37-.82.64.64,0,0,0,0,.86c-.06,1.41,1.32,1.2,2,1.8,1.44.21,3.57-.77,3.45,2a8.07,8.07,0,0,1-5.77,1.93A90.83,90.83,0,0,1,109,17.25a13.06,13.06,0,0,1-1.51-.44c-3.12-1.46-6.83-.78-9.82-2.73C96.53,11.49,95.78,8.88,97,6.11Z"/><path class="cls-46" d="M171,51A46.26,46.26,0,0,1,176,63c-3.05.78-6.2.17-9.28.62a1.61,1.61,0,0,1-1-.94c.23-2.4,2.56-2.72,4.07-3.8-2.85-4.14-7.32-6.58-9.37-11.15-.9-2-3-.44-4.5-.92s-2.5-1.34-2.46-3c1-2,3.13-1.26,4.62-2.06a2.51,2.51,0,0,1,1.27.2,4.71,4.71,0,0,0,3,.78c3.52,1.5,3.37,5.89,6.29,8C169.62,51.29,170,51.89,171,51Z"/><path class="cls-47" d="M157.86,33l4,5.1c1.1,3.55-1.65,2.53-3.32,2.8-4.75-1.62-8.6-4.25-10.32-9.26.62-3,2.57-3.06,4.81-2A21,21,0,0,1,157.86,33Z"/><path class="cls-48" d="M158,40.15c1.39-.48,3.59.6,3.85-2C166.65,41.22,167.58,47,171,51c-.12,1.07.32,2.51-1.33,2.73-1.32.17-1.54-.92-1.66-1.93a2.77,2.77,0,0,0-1.42-2.43c-2.25-1-3.75-2.13-2.78-5.09.33-1-1.18-.38-1.87-.37A9.71,9.71,0,0,0,159.06,42L159,42C158.28,41.58,157.61,41.13,158,40.15Z"/><path class="cls-49" d="M157.86,33c-1.57-.82-3.11-1.73-4.73-2.44S149.57,29.19,149,32c-1.49.52-2.09-.53-2.72-1.53a8.57,8.57,0,0,1-.71-2.62c.42-1.64.46-3.4,1.48-4.87C150.58,26.4,154.89,29,157.86,33Z"/><path class="cls-50" d="M166.32,63c3.22-1.42,6.45-2,9.7-.08.38.67.75,1.35,1.12,2,0,.36.06.73.1,1.09.26,1.27.75,2.79-1,3.25-1.53.4-2.16-1.07-2.84-2.15-1.31-1.87-3-1.54-4.84-1s-3.3.26-3.2-2.18A1.5,1.5,0,0,1,166.32,63Z"/><path class="cls-51" d="M147,23c.64,1.85.6,3.52-1.2,4.76a1.24,1.24,0,0,1-1.13.63c-2.33-1.77-2.93-5.27-6.16-6.16-.6-.85-1.31-1.69-.21-2.68,1.64-.74,3.16-.17,4.68.41Z"/><path class="cls-52" d="M143,19.94l-5,.17c-.71,1.29-1.45,2.54-3.28,2-.94-2.27-4.47-1.33-5-4.07.84-1.75,2.41-2.24,4.16-2.42,1.94.3,3.5,1.46,5.18,2.34A6.63,6.63,0,0,1,143,19.94Z"/><path class="cls-45" d="M139.09,17.94c-2,0-3.39-1.29-5.09-1.93-3.07,0-5.92-.46-7-4l.11-.13A25,25,0,0,1,139.09,17.94Z"/><path class="cls-14" d="M117,7.9,116,8a9.24,9.24,0,0,1-9.92-3.25,12.74,12.74,0,0,1,5.89.12C113.14,6.75,116.24,5.4,117,7.9Z"/><path class="cls-53" d="M112,4.87,106,5A.61.61,0,0,1,105,5c-.32-.36-.81-.66-.92-1.07-.31-1.2.69-.68,1.06-.59,1.38.34,2.69,1,4.17.55l2.59.29C112,4.39,112,4.63,112,4.87Z"/><path class="cls-54" d="M37.11,163.85c-7.44-6-14.24-12.53-19.08-20.88,1.33-1.08,2.37,0,3.5.47a7.6,7.6,0,0,0,3.11-.27c2.07-.25,4.25.64,4.46,2.38.68,5.51,6,7.27,8.39,11.34C37.67,159.23,38,161.57,37.11,163.85Z"/><path class="cls-55" d="M54,174c-4.38-1.66-8.62-3.6-12-7,.73-1.26,2.3-1.94,2.52-3.58a1.67,1.67,0,0,1,.9-.89c2.43.57,3.4-2.72,5.82-2.21a2.49,2.49,0,0,1,2,2.53c-2,3.14.88,3.33,2.58,4.32,1.85,1.08,5.11.51,4.91,4.07C58.49,172.07,56.45,173.53,54,174Z"/><path class="cls-56" d="M54,174c1.25-3.54,4.21-3.1,7-3l.71-.11a13.52,13.52,0,0,1,5.69.49A3.27,3.27,0,0,1,68.88,173c1.13,3.49.77,6-3.76,5.85l-4-1C59.16,175.81,56.14,175.71,54,174Z"/><path class="cls-57" d="M21.05,144.91c-1.05-.59-1.47-2.15-3-1.94a14.81,14.81,0,0,1-3.75-6.07c1.84-.91,2.64.47,3.6,1.64-.16-1.65-.66-3.21-.93-4.82-.05-2.77-1.13-5.73,1.43-8,1.59-.41,2.4.63,3.2,1.71.94,1.71,2.3,3.25,2.19,5.39-1.57,2.6-.53,5.63-1.32,8.37-.1.67-.21,1.34-.37,2A3.84,3.84,0,0,1,21.05,144.91Z"/><path class="cls-58" d="M11,131.06,9.89,129a3.1,3.1,0,0,1-.31-2.52,4.34,4.34,0,0,1,6.53-.65c2.22,1.82,2.05,4.3,0,6.46a3.73,3.73,0,0,1-3.91-.18C11.8,131.76,11.4,131.41,11,131.06Z"/><path class="cls-59" d="M11.94,131l3.1,1c1.59.4,2.14,1.86,3.05,2.95.44,1.79.88,3.58,1.48,6l-5.29-4-1-1C12.24,134.42,11.32,132.94,11.94,131Z"/><path class="cls-60" d="M37.11,163.85a8.14,8.14,0,0,1-.06-6.86c-.48-1.72,1-2,2-2.67a4.62,4.62,0,0,1,2.87-.12c2.57,1.4.88,2.81-.23,3.78-2.08,1.82-2.2,3.83-1.29,6.17-.21.72-.52,1.31-1.44.91Z"/><path class="cls-61" d="M38.91,165.06,40,164a4,4,0,0,1,2.4-.31,5.25,5.25,0,0,1,2.49.19c1.45,3.28-1.67,2.33-2.9,3.13A3.56,3.56,0,0,1,38.91,165.06Z"/><path class="cls-62" d="M11.94,131l1.38,4.84c-2.06-1-2.21-2.88-2.32-4.8A1.76,1.76,0,0,1,11.94,131Z"/><path class="cls-62" d="M9.81,127.19c0,.6,0,1.2.08,1.8L8,128c0-1.29,0-2.58-.08-3.87a.9.9,0,0,1,1.21-.27C10.21,124.79,9.41,126.1,9.81,127.19Z"/><path class="cls-63" d="M180.1,111c-.07,1-.14,1.93-.22,2.9l-1.95,3c-.78-.65-1.83-.8-2.65-1.4a5,5,0,0,1-1.29-1.39c-3-2.47-1.19-6.83-3.71-9.5a6.74,6.74,0,0,1-.44-1.45,20.93,20.93,0,0,1,1.76-11c1.73-1,2,.42,1.93,1.42A6.23,6.23,0,0,0,175,98c-.55,4,1.17,8,.56,12.2,1.68-3.4,5.65-5.61,4.23-10.43,1.53.61,1,1.59,1.28,2.29C180.79,105,181.53,108.14,180.1,111Z"/><path class="cls-64" d="M175,98c-3-1-1.05-4.43-2.95-6-2.71-2.88-1.88-6.81-3-10.16-.33-1.73-.32-3.41.95-4.83.18-1.06-.29-2.53,1.32-2.77s1.44,1.38,2,2.26c1.32,2-.27,4.68,1.66,6.48a.61.61,0,0,1,.24.65c-.08.22-.15.33-.23.33a16.73,16.73,0,0,1-.85,6.23c-.56,1.66.13,2.53,2,1.84A1.35,1.35,0,0,1,176,94C172.52,94.54,175.51,96.7,175,98Z"/><path class="cls-65" d="M175,84c0-.33,0-.65,0-1a5.55,5.55,0,0,1,0-1c.35-1.92-1.08-5.14,1.84-5.29,2.23-.13.42,3.14,1.49,4.55.2.26.44.48.66.73,1.55,2.51,1,5,0,7.52a1.92,1.92,0,0,1-2.28,1.35c-1.62-.25-.75-1.43-.77-2.29C175.88,87,176.54,85.26,175,84Z"/><path class="cls-66" d="M182,86c1.62.9.51,3.05,1.87,4.08v6.88c-.43,1-.85,2-1.41,3.3C180.65,95.34,182.43,90.6,182,86Z"/><path class="cls-67" d="M182.09,77.62c0,2.8-.05,5.59-.08,8.39-1.93-2.9-.69-6.12-.91-9.19Z"/><path class="cls-68" d="M176,94l.15-1.93c1.25-.06,2.62.09,2.21,1.73S176.83,94.33,176,94Z"/><path class="cls-29" d="M108,182c-3.74-.55-7.23,1.81-11,1-.75-1.49-1.93-2.7-2.71-4.16a3,3,0,0,1,.39-2c1-1.17,4.77-1.49,1.19-4-.3-.22,0-.92.43-1.28a4.59,4.59,0,0,1,1.42-.61c7-.66,13.82-1.66,20.43-4,1.57-.56,3.16-1.12,4.81-.24a27.65,27.65,0,0,1,3.13,4.94c1.25,2.06.87,3.84-2,4.08-1.59-.54-1.88-2.42-3.21-3.22a8.45,8.45,0,0,1,1.83,2.17c.6.71.44,1.87,1.34,2.44C119.06,179.83,112.91,178.91,108,182Z"/><path class="cls-69" d="M124,177c-1.72,0-1.58-.89-1-2h0c2.82,0,4.1-1.22,1.76-3.39-1.6-1.49-1.78-3-1.85-4.8.14-1.27,1-1.37,2-1.12.77,1,1.52,2,3,1.21,1.67-.39,3-1.94,5-1.37,1.13.62,2.12,1.45,3.22,2.12a5.72,5.72,0,0,1,2,2.44C133.89,173.37,129,175.15,124,177Z"/><path class="cls-70" d="M138.08,170.06a2.11,2.11,0,0,1-2.2-1.94c0-.22,0-.43,0-.65.5-1.85-.27-3.94,1-5.66a1.74,1.74,0,0,1,1.29-.05c1.88,1.69,3.62,3.48,3.82,6.21Z"/><path class="cls-8" d="M142,168c-1-2.2-3.44-3.44-4.1-5.9.46-2.74,2.33-1.47,3.8-1.34.5.44.95,1,.68,1.65s-.69,1.34-1.56.58c.52.83,1.12.3,1.6,0,.9-.54,1.73-.85,2.6,0v0c-.83,1.58-2.47,2.84-1.88,4.95Z"/><path class="cls-71" d="M7.13,71A2.09,2.09,0,0,0,9.2,69.71a1.43,1.43,0,0,1,2.14.94c-.46,1.68,1,2.9,1.06,4.47a27.26,27.26,0,0,0-2.15,11.51c0,1.53.86,4.24-2.44,4.08-1.44-3-2.39-6-1.44-9.35,0-.07-.17-.29-.24-.28s-.23.15-.37.24A.81.81,0,0,1,4.93,81C4.65,77.41,6.21,74.25,7.13,71Z"/><path class="cls-72" d="M4.93,81H6a33.5,33.5,0,0,0,.78,8.59,23.06,23.06,0,0,0,1,3.45A7.54,7.54,0,0,1,8,95.86c-1.64,3.08,1.69,6.41-.46,9.46-1,1.07-1.86,2.46-3.68,1.57.71-4.3-.93-8.62.08-12.91,0-.67.07-1.33.11-2C4.31,88.31,3.27,84.53,4.93,81Z"/><path class="cls-19" d="M3,92a3.39,3.39,0,0,1,0-5C3,88.64,3,90.31,3,92Z"/><path class="cls-73" d="M145,163c-1.83.32-4.45,2.15-3.92-2-2.55-1.1-3.41-3.63-4.8-5.71-3.15-4.45-6.63-8.64-9.9-13-1.63-3.09-4.5-5.51-5-9.2a2.54,2.54,0,0,1,.57-1.31c1.28-.65,2.32-.14,3.28.71,1.12,1.45,2.22,2.92,3.38,4.35,1.49,2.28,3.31,4.33,4.8,6.62.27.36.51.75.74,1.13,1.25,2.37,3.1,4.34,4.5,6.62.22.37.42.76.62,1.15.64,1.15,1.61,2.06,2.31,3.16.45.78,1,1.54.5,2.49C142.92,159.71,146.68,159.77,145,163Z"/><path class="cls-74" d="M160,150c0,.31,0,.62,0,.94-2.89,1.46-5.34,5-9.19,2a2.76,2.76,0,0,1-.32-1.41c1.63-2.73,4.17-4.79,5.71-7.6.61-.89,1.13-1.89,2.31-2.2,1.29.24,1.33,1.44,1.79,2.32.17.36.32.74.46,1.11a7.42,7.42,0,0,1,.67,2.3A3.84,3.84,0,0,1,160,150Z"/><path class="cls-75" d="M151,151c0,.33-.08.66-.12,1-.81,2.39,2.31,1.79,2.57,3.37-.29,3.41-2.45,4.58-5.54,4.65l-.92-1c-.61-.9-1.4-1.72-1.39-2.91a1.91,1.91,0,0,0-.81-3,2.09,2.09,0,0,1-.11-1.35,4.52,4.52,0,0,1,3.35-2.53A2.66,2.66,0,0,1,151,151Z"/><path class="cls-76" d="M153.06,155c-2-.08-4.08-.17-2.14-3,3.43,3.2,6-1.62,9.09-1-1.3,1.7-2,3.93-4.08,5C155.06,155.36,153.77,156.08,153.06,155Z"/><path class="cls-77" d="M153.06,155c1.07,0,2.18-.21,2.87.93-1.93,2-3.61,4.32-6.2,5.57-1.55.75-2.7.74-1.78-1.52C149.71,158.38,152.71,158.06,153.06,155Z"/><path class="cls-78" d="M145.84,156.14c.4.94.79,1.89,1.19,2.83a8.43,8.43,0,0,0-4.94-1L140.83,156l.57-.59C143,154.74,144.56,154.59,145.84,156.14Z"/><path class="cls-79" d="M160,150c.33-1,.67-2,1-3,1.13-.55,2.07-.7,2.07,1,0,.3-.08.61-.1.91Z"/><path class="cls-80" d="M169,76.19a1.06,1.06,0,0,0-.17.57c.23,3.29,1.41,6.48,1.2,9.83.85,7.21.15,14.37-.66,21.53a14.63,14.63,0,0,1-2.45,5.33,3.14,3.14,0,0,1-2.15,1.2c-1.28-.1-2.17-.57-2-2.07,3.59-12.81,1.82-25.47-1.1-38.1.08-2.56,1.76-3.1,3.89-3.08C168,72.05,167.65,74.73,169,76.19Z"/><path class="cls-81" d="M174.05,65.79c1.19.56.36,2.92,2.14,2.71,1.12-.13.84-1.54,1.05-2.44,1.42,5.31-.31,6.77-8.21,6.92-1-.41-1.51-1-1.11-2.15,1.75-1.35,4.92-.86,5.25-4.07A2.49,2.49,0,0,1,174.05,65.79Z"/><path class="cls-82" d="M169.08,85.93c.6-3.07-1.86-6.06-.27-9.17L170,77c0,1.63.05,3.27.08,4.9C170.35,83.41,171.64,85.14,169.08,85.93Z"/><path class="cls-83" d="M168.08,71,169,73c0,1.07,0,2.14-.05,3.21-2.32-.37-1.94-2.77-3-4.06C165.86,70.21,166.88,70.45,168.08,71Z"/><path class="cls-84" d="M171.93,133.9A3.07,3.07,0,0,1,170,136a4,4,0,0,1-1.11-.7c-2.28-1.49-3.12.13-4,1.79s-1.8,3.28-4.08,1.84c.18-3.24,1.17-6.1,3.92-8.08,2-1.44,1.87-3.71,2.34-5.76a3.51,3.51,0,0,1,.77-1.3c1.29-.74,2.45-.28,3.58.4,1.65,1.12,2.76,2.39,1.44,4.49A8,8,0,0,0,171.93,133.9Z"/><path class="cls-85" d="M163.08,148a2.13,2.13,0,0,0-2.07-1,2,2,0,0,1-1-2h0c-1.2-.7-1-1.89-1-3-1.08-.45-2.45-.55-2.59-2.14.16-1.69.29-3.41,2.27-4.09,1.84.61.87,2.94,2.32,3.79,1.52.67,2.46,2.18,4,2.77a2.42,2.42,0,0,1,1,.67A6.92,6.92,0,0,1,163.08,148Z"/><path class="cls-86" d="M171.93,133.9a4.28,4.28,0,0,1,0-5.78c1.52-1.8-.55-2.13-1-3.12l.35-.54a2.73,2.73,0,0,1,3-.64c.45.66,1.38,1.15.7,2.17a6.91,6.91,0,0,0-1,4Z"/><path class="cls-87" d="M166,143h-1c-.56-4.06,1.24-6.64,5-8,0,.35,0,.69,0,1C169.29,138.67,168.51,141.31,166,143Z"/><path class="cls-88" d="M175,121.15a5.45,5.45,0,0,0,0,.7,3,3,0,0,1-1.17.92,8.25,8.25,0,0,1-5.82-.49c-.87-.36-1.71-.79-2.61-1.09-1.52-.54-3-1-4.59-1.5-2.86-.87-5.5-2.47-8.57-2.67a10.5,10.5,0,0,1-1.36-.37,29.8,29.8,0,0,0-7.86-2.88c-1.35-.48-2.85-.58-4-1.53a1.59,1.59,0,0,1-.11-1.41c1.18-1.08,2.73-1.18,4.17-1.57a6.38,6.38,0,0,1,1.51-.07c7.33,1.77,14.28,4.76,21.59,6.62,2.5,1.09,5.24,1.49,7.73,2.65A3,3,0,0,1,175,121.15Z"/><path class="cls-89" d="M175,121.15,174,119c-.82-.83-1.59-1.67-1.23-3,.81-1.12,2.06-.62,3.11-.86,1.3-.13,2,.39,2.07,1.75Z"/><path class="cls-90" d="M174,122a8.16,8.16,0,0,0,1-.11c-.39,1.38,1.77,2.75,0,4.14-.34-.67-.68-1.35-1-2a1.35,1.35,0,0,1-.57-1A1.63,1.63,0,0,1,174,122Z"/><path class="cls-91" d="M77,182.09c-.33-.07-.65-.13-1-.18-1.24-1.81-3.8-.11-5-1.89-.29-4.14,1-5.86,4.25-4.59,3.43,1.36,6.6.86,9.92.37a4.24,4.24,0,0,1,1,1.83c.89,2.41,2.3,5-2.14,5.31C81.62,183.3,79.46,181.42,77,182.09Z"/><path class="cls-92" d="M94.81,179c2.84.17,3.19,1.71,2.21,4-2.34,0-4.68-1.18-7,0a4.55,4.55,0,0,1,0-3.15A8.82,8.82,0,0,1,94.81,179Z"/><path class="cls-93" d="M90,180a2.4,2.4,0,0,1,0,2.94H84c3.35-1.08,1-3.38,1.12-5.16,1.33-.27,2.47.42,3.69.74A1.92,1.92,0,0,1,90,180Z"/><path class="cls-94" d="M105,5A4.3,4.3,0,0,0,106,5c3,2.11,6.86,1.39,10,3-.87,3-1.09,7-6,4,.93-4.28-2.26-4.42-5-5a2.34,2.34,0,0,1-3.17-1.29C102.71,4.77,104,5.22,105,5Z"/><path class="cls-95" d="M101.81,5.75,105,7c1.23,2.65-1.5,2.47-2.13,2.16-1.44-.73-4-1.48-2-4.1Z"/><path class="cls-96" d="M68,8,80.17,5.22,90,3.91c-.29.76-.59,1.51-.88,2.27l.21.44-.39.3c-1.07,2.8-2.87,4.38-6.09,3.91-3.75-.55-6.8,2.16-10.48,2.33C68.33,13.35,67,11.78,68,8Z"/><path class="cls-97" d="M3.84,106.89,7,105a31.52,31.52,0,0,0,4.32,5.71,2.58,2.58,0,0,1,.08,1.35C10,113.94,8.73,115.88,6.08,116l-2-6.08c-.64-.83-1.29-1.66-1-2.83A3.4,3.4,0,0,1,3.84,106.89Z"/><path class="cls-98" d="M6.08,116l5.22-4.1c1.65-.9,2.82-.07,3.9,1.09.9,2.88-1.61,2.81-3.11,3.61a8.88,8.88,0,0,0-2.67,2.72c-.67.58-1.33,1.21-2.31.62A6.76,6.76,0,0,1,6.08,116Z"/><path class="cls-99" d="M7.11,119.9,9,119a3.6,3.6,0,0,1,1.65,2.71,3.38,3.38,0,0,1-.21,1.3,2,2,0,0,1-1.56,1.1l-.47,0-.47,0c-.36-1-.73-2-1.1-3C6.94,120.66,7,120.28,7.11,119.9Z"/><path class="cls-100" d="M85,176c-2.27,0-3,3.57-6.46,1.76C73.26,175,73,175.46,71,180H68l-2.88-1.17c3.6-.67,3-3.41,2.91-5.9,1.1-.68,2.23-.22,3.35-.12a15.72,15.72,0,0,1,2,.41c2.15.56,4.36.83,6.64,1.42-.4-1.36-3.78-1.2-1.37-3.42a11.09,11.09,0,0,1,7.92.12C88.18,173.66,86.9,174.94,85,176Z"/><path class="cls-101" d="M88.94,6.92a4.7,4.7,0,0,0,.18-.74C91.06,6,93,5,95,6.07c2,2.32,1.32,5.24,1.81,7.91a15.09,15.09,0,0,1-1,3.35c-.9,9.29-.31,18.6-.35,27.9,0,8.47-.4,17,.26,25.43-.46,2.06-.3,5.32-3.64,1.93-1-5.46-.39-11-.44-16.44-.14-14.48.08-29-.13-43.42-.18-1.32-2-.83-2.3-2Z"/><path class="cls-102" d="M96.07,14c-1.79-2.43-.82-5.26-1.11-7.9.68-.17,1.37-1.12,2,0A18.43,18.43,0,0,1,98,14,1.3,1.3,0,0,1,96.07,14Z"/><path class="cls-103" d="M76.9,15.91c.86-.91,2-.9,3.12-.94,2.38-1,4.88-.22,7.31-.46,4.64-.09,3.28,3.1,3.09,5.65-1.42,2.1-3.65,1.93-5.8,2.14a67.45,67.45,0,0,0-28,9.38,15.86,15.86,0,0,0-3.19,3.09c-3.64,0-4.53-2.6-5.12-5.47a2.88,2.88,0,0,1,1.1-1.86c4.08-2.07,8-4.37,11.94-6.73a6.18,6.18,0,0,1,1.25-.58,20.81,20.81,0,0,1,6.22-.57c-.5-.59-1.82.27-2.79-.32a.82.82,0,0,1,.13-1.18l9-2c2,1,4.17,0,5.78.45,1.12-.07.32-1.14.53-.51,0,.16-.05.24-.3.27C79.67,16.48,78.21,16.9,76.9,15.91Z"/><path class="cls-104" d="M90,20c-.81-1.63.22-4-1.93-5.09q-.54-.25-.39-.57c.1-.22.2-.33.31-.33.32,0,.65-.07,1-.09,3.83-.79,3,2.2,3,4,.13,9.24,0,18.48.06,27.72a62.61,62.61,0,0,0,.13,6.43,9.35,9.35,0,0,1,.32,3.41,31.33,31.33,0,0,0-.19,10.18,4.44,4.44,0,0,1,.11,2.2c-.67,1.91.07,4.52-2.68,5.41.62.38,1.53.49,1.54,1.51-4.51,3-8.76,6.37-14.23,7.48-2.38-1.71-1.85-3.33.16-4.89.83-.48,1.73-.82,2.53-1.38,1.68-1.38,2.63-3.48,4.55-4.65,3.4-.91,4.56-3.08,4.46-6.59-.19-6.09-.2-12.2-.12-18.29a33.65,33.65,0,0,1,0-10.41c-.78-3.77.25-7.53.07-11.3A7.9,7.9,0,0,1,90,20Z"/><path class="cls-105" d="M92,53c-1.6-1.5-.91-3.45-.92-5.2-.06-9.83,0-19.66,0-29.48,0-1.71.68-3.87-2-4.37.08-1.06.17-2.12.25-3.18,1.55.47,1.69-1.32,2.71-1.69,1.18,2.87.58,5.87.53,8.79C92.24,29.55,93.16,41.28,92,53Z"/><path class="cls-106" d="M66.12,18.06c-.06.3-.12.6-.17.9-.91,1.51-2.74,1.16-4,2l0,0c-3.53,1-6.12,4.32-10.14,4.15-1.32-2.4,1.18-3,2.06-4.35a1.46,1.46,0,0,1,.14-.71C57.86,18.07,62.11,18.8,66.12,18.06Z"/><path class="cls-107" d="M88,14c0,.3.05.6.08.9L80,15C82.49,13.15,85.33,14.35,88,14Z"/><path class="cls-108" d="M76.9,15.91c1.67.41,3.5-.43,5.75.94-3,0-5.35.89-7.56-.75Z"/><path class="cls-109" d="M53.91,20.72,52,24.91a2.87,2.87,0,0,1-2.49,2.48,1.51,1.51,0,0,1-1.1-1c0-1.48-.29-3,.77-4.32l.92-.95Z"/><path class="cls-110" d="M11.06,71C10.79,70,10,69.88,9.2,69.71c.16-1.3-.31-2.72.76-3.84,4.32.57,8.32,2.28,12.43,3.61,1,.31,1.4.32,1.59-.72a3,3,0,0,1,1.82-.59A11.15,11.15,0,0,1,29,69a4,4,0,0,1,1.11.71,3.74,3.74,0,0,1,.48,1.21c3,3.47,7.68,3,11.44,4.73a59.13,59.13,0,0,0,6.49,2.06c3.2,1.11,6.22,2.93,9.82,2.35a5.19,5.19,0,0,1,3.42.47c1.53,2.78,4.58,2.89,7.07,4,1.8.77,3.85,1,5.39,2.35A2.31,2.31,0,0,1,74.3,89a3.1,3.1,0,0,1-1.31.85,7.14,7.14,0,0,1-3.12.12C65.2,88.76,60.75,86.85,56,85.79c-5-2.39-10.47-3.22-15.76-4.66-1.86-.55-3.56-1.5-5.35-2.23s-3.57-1-5.2-1.94c-2-1-4.31-1.24-6.36-2.16a16.27,16.27,0,0,1-1.74-1,10.48,10.48,0,0,0-3.09-1,15.34,15.34,0,0,0-4.1-.6C13.19,72.13,11.93,72.05,11.06,71Z"/><path class="cls-42" d="M16.13,58.07c.33-.35.65-.71,1-1.06,1.91-1.53,1.68-4.12,3-5.95,1.79-2.45,4.66-4.44,3-8.26-.44-1,.64-1.67,1.8-1.59,1.46,3.37,2.08.08,3.05-.38,1.32.9,3.24,1.35,2.77,3.62C27.06,51.09,22.17,57,19.53,64.2a3.85,3.85,0,0,1-1.79,1.42c-1.29.06-2.81.5-2.72-1.68C17.7,62.42,15.13,59.91,16.13,58.07Z"/><path class="cls-111" d="M15,63.94c.66,1.3,1.81,1,2.91.92.31.84.67,1.26,1.23.14,1.94-2.3.84-6.52,4.8-7.51,3.79,2.43.35,4.49-.49,6.54-.58,1.42-1.19,2.27,1,2.27A2.28,2.28,0,0,1,24,69c-.26.65,2.45,2.32,0,1.78-4.81-1-9.93-1.64-14-4.89C11.07,63.72,13.06,63.86,15,63.94Z"/><path class="cls-112" d="M48.88,26.81l1.07.1a.67.67,0,0,1,.31.7c-.07.26-.15.38-.24.38l-1,1.07c-1,.82,0,2.22-.85,3.08a1.8,1.8,0,0,1-1.31.06,32.23,32.23,0,0,1-4.68-6.62c-.36-.85-.77-1.71-.17-2.62,1.6-.71,2.73.18,3.85,1.12A21.72,21.72,0,0,0,48.88,26.81Z"/><path class="cls-2" d="M42,23l1,2.11c-.92,1.21,0,3.31-2,4L39.79,28C39.05,25.68,38.7,23.52,42,23Z"/><path class="cls-113" d="M48.88,26.81c-2,.21-2.62-1.15-3-2.73,2.33,1.4,2-1.75,3.31-2C49.07,23.68,49,25.25,48.88,26.81Z"/><path class="cls-114" d="M30,44c.42-1.82-2.58-1.36-2.13-3.2l1.17-2.77c2.56-4.34,5.32-8.34,11.4-6.55a3,3,0,0,1,1.45.21c.7,1.14-.06,2-.82,2.48C37,37,35.18,42.39,30,44Z"/><path class="cls-43" d="M40.92,31.92c-5.86-1.64-8.38,3.16-11.84,6.14C28.84,34.61,32.73,33.17,33,30l7.88,1q.43.33.3.66C41.11,31.81,41,31.92,40.92,31.92Z"/><path class="cls-115" d="M40.92,31.92c0-.33,0-.67,0-1,0-.62.07-1.23.11-1.85,1.56-.89-1.41-4,2-4,1.31,2.33,3.52,4.14,4,6.92a1.93,1.93,0,0,1-1.64.63A17.17,17.17,0,0,0,43,32.51,1.22,1.22,0,0,1,42,32Z"/><path class="cls-116" d="M109,16,118,18c6,1.14,11.63,2.95,16.27,7.13a4.35,4.35,0,0,1,1.11,1.94,1.5,1.5,0,0,1-.6,1.33,3.49,3.49,0,0,1-2.22.36c-7.74-3.8-15.36-7.89-23.91-9.71a2.48,2.48,0,0,1-1.84-1.53C106.9,16.08,108.5,16.79,109,16Z"/><path class="cls-117" d="M127,12l7,4-4,2c-2,1.37-3.71.21-5.5-.46L124,17c-.85-1.64-3.14-.39-4-2h0C121.49,12,123.67,10.69,127,12Z"/><path class="cls-118" d="M134,26.07c-4.68-4-10.73-5.2-16-8.06l6-1h0c2.59,1,5.24,1.78,7.74,3C134.51,21.25,136,23,134,26.07Z"/><path class="cls-119" d="M96.07,14,98,14c3.49,0,6.94.21,10.11,1.89-1.42,1.11-3.15,1.4-4.82,1.87-2.53.46-4.91-.32-7.3-.94a2.26,2.26,0,0,1-1-1Z"/><path class="cls-120" d="M118,13.16c-1-.28-2.1-.54-1.43-1.94a1.49,1.49,0,0,1,2.09-.77c1.32.63.76,1.59.3,2.49A.68.68,0,0,1,118,13.16Z"/><path class="cls-121" d="M118,13.16a4.46,4.46,0,0,1,1-.22A2.12,2.12,0,0,1,120,15h0c-1.14.35-2.41,1.76-3.43.33C115.83,14.29,117.62,14,118,13.16Z"/><path class="cls-122" d="M103.05,16.85c1.46-1.52,3.41-.5,5.07-1a5.75,5.75,0,0,1,.92.1c-.46.88-1.33,1-2.17,1.13A2.56,2.56,0,0,1,103.05,16.85Z"/><path class="cls-123" d="M166.32,63,166,64c-.66.89-.46,2.55-2.21,2.44a3.52,3.52,0,0,1-2.5-2.83c-1.72-6.57-5.71-11.83-9.72-17.09-3.8-5-7.89-9.7-13.72-12.5.39-3.64,2.83-2.63,5-2.21a6.92,6.92,0,0,1,1.34.57,47.43,47.43,0,0,1,8.1,7.73A5.08,5.08,0,0,1,153.9,43a3.3,3.3,0,0,0,2.1,3,27.41,27.41,0,0,1,9.91,17Z"/><path class="cls-124" d="M165.91,63A111.87,111.87,0,0,0,156,46c2.87-.62,6.52-2.75,6,3.11,3.78.72,4,5,6.72,6.74a9.24,9.24,0,0,1,3.69,3.66C170.09,60.4,167.25,60.45,165.91,63Z"/><path class="cls-54" d="M153.9,43c-.63-.69-1.26-1.37-1.88-2.06-1.25-2.11-2-4.5-4.51-5.75a3.82,3.82,0,0,1-2.16-4.16c.29-.76.71-1.32,1.64-1.1l2,2c2.28,3.53,5.67,5.83,9,8.14.31.63.61,1.26.91,1.89C157.39,43,156,44.61,153.9,43Z"/><path class="cls-125" d="M159.06,42c2-.89,3.08-.46,2.86,1.92C160.49,44,159.14,44,159.06,42Z"/><path class="cls-126" d="M147,30l-1,1c-.7.62-1.06,1.57-2,2l-1,0c-.56-1.14-3.27-1.3-1.58-3.47,1-.87,2.38-.93,3.53-1.49a6.36,6.36,0,0,1,.84-.28A2.22,2.22,0,0,1,147,30Z"/><path class="cls-127" d="M164.1,65.93,166,64c.37,1.89,1.23,2,2.7.9,2-1.53,3.92-1.36,5.4.9a3.43,3.43,0,0,1-.17.57c-.81,2.6-2.88,3.34-5.29,3.58-2.53-.1-5.28,1.08-7.45-1.22a1.43,1.43,0,0,1,.17-2C162.13,66,163.3,66.65,164.1,65.93Z"/><path class="cls-128" d="M145,28a3,3,0,0,1-3,2c-.36-.36-.34-1-.61-1.26-.86-.93-.61.37-.8.57-1.76,1.83-2.75,4.43-5.37,5.43a3,3,0,0,1-2-.34c-.83-2.09-.12-4.21-.13-6.32l2-.1c1.39-1.88.54-5.3,4-5.79C143.79,21.33,143.58,25.5,145,28Z"/><path class="cls-129" d="M139.06,22.18c-2.24,1.3-1,5-4,5.79a2.43,2.43,0,0,0-.18-.92c-.46-1.64-.91-3.28.25-4.83l2.9-2.12Z"/><path class="cls-45" d="M135.17,22.22c-.09,1.61-.17,3.22-.25,4.83l-1-1c.63-3.21-1-4.82-3.79-6.07-2.06-.94-4.62-.95-6.15-3,2.11-.36,4,.67,6,1C131.37,19.84,135.81,17.92,135.17,22.22Z"/><path class="cls-130" d="M39.08,155l-2,2c-3.18-3-7.83-4.53-8.31-10-.21-2.35-2.49-3.27-4.92-3A2.93,2.93,0,0,1,21,143l.12-1.95c1.66-1.39,3.69-1.42,5.68-1.6,4.57,1.55,6.39,5.69,8.74,9.33C35.17,151.71,38.41,152.64,39.08,155Z"/><path class="cls-131" d="M21,143l2.8,1.07c-.63,1.23-1.7,1.06-2.77.86Z"/><path class="cls-132" d="M87,172.05l-9,0a2.48,2.48,0,0,1-2.06.56,29.24,29.24,0,0,1-5.64-1.6c-4.3-1.66-8.69-3.1-12.89-5-1.61-.74-3.41-1.33-4.23-3.18L51,161c-.75-.69-1.94-1.26-.62-2.47,2.88-1,5.33.6,7.5,1.86A49.75,49.75,0,0,0,80.06,167c2.79,1.25,6.75-.78,8.63,3a2.94,2.94,0,0,1-.27,1.6A1,1,0,0,1,87,172.05Z"/><path class="cls-54" d="M53.21,162.84,71,170a3,3,0,0,1,0,4l-3-1-1-1c-1.83-1.32-4.15.25-6-1h0c-2.34-2.67-6.28-2-8.82-4.25-.81-.72-2.32-1-1.91-2.56S52.16,163.13,53.21,162.84Z"/><path class="cls-133" d="M44.91,163.85c-.84.62-1.64,1.37-2.84,1-1.34-1.39-1.68-2.79-.08-4.24s1.76-3.48,2.16-5.41a2.32,2.32,0,0,1,1.23-1.44c1.48,1.79,1.52-.14,2-.82C50,150.49,51,146.48,55,145.46a1.8,1.8,0,0,1,1.52,1.28,5.3,5.3,0,0,1-.85,3.33c-1,1.47-2,3-3,4.38a51.91,51.91,0,0,0-3.33,4.75A30.15,30.15,0,0,1,45,163,6.14,6.14,0,0,0,44.91,163.85Z"/><path class="cls-134" d="M45,163c.95-1.71,1.36-4,4-4a.57.57,0,0,1,1,0l1,2C49,161.59,48.29,166.15,45,163Z"/><path class="cls-55" d="M61,171c2,.32,4.25-.8,6,1C65,171.64,62.77,172.79,61,171Z"/><path class="cls-135" d="M46,154l-.94.95c-1.22.87-2.1-.69-3.24-.45-3.61-.09-5.11-2.86-6.8-5.38l-7.84-9.24c-2.7-1.55-3.7-4.06-3.91-7L21,128c-.42-1.73-1.58-3.07-2.42-4.58a4.87,4.87,0,0,1-.34-1.35c.09-1.25.24-2.45,2-2.33,3.41,3.55,5.14,8.1,7.23,12.4,2.81,5.8,7.47,10.14,11.34,15.1C40.16,150.58,44.83,150.38,46,154Z"/><path class="cls-136" d="M23.24,132.84l3.91,7c-1.69,2-4,.76-6,1.18C23.15,138.63,19.23,134.72,23.24,132.84Z"/><path class="cls-137" d="M8.9,124.08l1-1c3,1.42,6.23-1,9.18.7a1.87,1.87,0,0,1,.07,2.1c-2.27,2.77-.73,6-1.12,9A5.77,5.77,0,0,1,15,132c2.11-1.18,2.82-3.16,1.27-4.82-1.84-2-4.33-1.81-6.5,0C8.85,126.35,9,125.19,8.9,124.08Z"/><path class="cls-138" d="M19.2,125.92l-.36-1.84A.77.77,0,0,1,19,123a5.53,5.53,0,0,1,2,5Z"/><path class="cls-139" d="M42,154.06l3.05.85c.14,2.67.19,5.31-2.58,6.88-1.52.86-.28,2-.38,3.05L40,164c-2.77-1.87-2.44-3.67-.24-5.92.85-.88,3.47-.88,2.27-3.26-.34-.13-.46-.28-.37-.45S41.88,154.06,42,154.06Z"/><path class="cls-140" d="M42,154.06c0,.25,0,.49.07.73l-3,.22c-1.63-1.79-6.16-1.59-4.09-5.93C37.78,150.1,38.76,153.65,42,154.06Z"/><path class="cls-141" d="M169.08,85.93c1.38-1.07.74-2.65,1-4,1.31,3.24,1.54,6.69,2,10.09.19,4-1.7,7.81-1.11,11.84-.75,1.78,1.16,4.31-1.55,5.54A1.51,1.51,0,0,1,168,109C169.59,101.35,168.78,93.62,169.08,85.93Z"/><path class="cls-142" d="M171.09,105.15c1.25-.06,2.95.75,2.4,1.58-2.09,3.13.92,4.92,1.43,7.32a4.88,4.88,0,0,1-5.28-1.17C169.2,110.13,170.66,107.74,171.09,105.15Z"/><path class="cls-143" d="M169.9,112.78c1.76.09,3.53.12,5,1.27l.94,1.1c-.71,1-1.8.75-2.79.79-2-.25-4.79,2.17-5.75-1.69a2.08,2.08,0,0,1,1.18-1.68A1.88,1.88,0,0,1,169.9,112.78Z"/><path class="cls-144" d="M169.9,112.78l-.48.11-.49,0c-1.14-1.33-.8-2.6.16-3.84,1.66-1.33.3-3.76,1.85-5.14l.15,1.28A17.48,17.48,0,0,1,169.9,112.78Z"/><path class="cls-145" d="M125,165.9l-2.06.88c-8.44,2.66-16.83,5.61-25.89,5.08a2,2,0,0,1-1.5-1.68c.53-2.68,2.76-2.42,4.61-2.47a16.59,16.59,0,0,0,6.6-1.43,65.38,65.38,0,0,0,23.13-8.41c1.43-.83,2.82-1.77,4.62-1.45a1.85,1.85,0,0,1,1.11,1,3.63,3.63,0,0,1,.1,2.21,6.19,6.19,0,0,1-2.24,2.74,19.16,19.16,0,0,1-2.34,1.31,27.17,27.17,0,0,0-3.37,1.79,6.62,6.62,0,0,1-1.69.92A1,1,0,0,1,125,165.9Z"/><path class="cls-146" d="M96.06,170.91l1,1L96,172c-.44,1.57.67,3.4-.79,4.8-.13.71-.25,1.43-.38,2.15-1.35,1.6-3,1.57-4.86,1l-1.1-1.15a3.09,3.09,0,0,1-.31-3.65,1.65,1.65,0,0,1,2.76.11c.2.21-.7,1.48.5.65.23-.16,0-.89,0-1.37.07-7.06-.9-14.14.63-21.14,2.7-1.52,2.5,1.2,3.41,2.32a11.84,11.84,0,0,1,.53,3.35c.08,2.72.07,5.43-.11,8.15C96.14,168.48,94.84,169.63,96.06,170.91Z"/><path class="cls-147" d="M116.89,169.87c-2.49,5.1-2.49,5.1-5.73,2.88Z"/><path class="cls-148" d="M95.19,176.81c0-1.64-1.12-3.47.79-4.8C97.88,174,100.67,176.08,95.19,176.81Z"/><path class="cls-69" d="M123,175c-1.72-1.21-3.69-2.25-3.8-4.72,0-.3.79-.95.86-.91,2,1.35,2,3.7,2.93,5.63Z"/><path class="cls-149" d="M117.81,173.71c1.26-.12,1.23.63,1.22,1.21s0,1.44-.88,1.34c-.53-.06-1-.57-1.53-.88Z"/><path class="cls-150" d="M107.25,174c.31.71-.24.87-.69,1-.82.15-1.67.11-2.06-.8-.27-.61.22-.9.71-1A1.67,1.67,0,0,1,107.25,174Z"/><path class="cls-151" d="M125.73,165.82l1.17-1c1.39-.55,3.08-.55,3.93-2.1l2.1-.94a3.77,3.77,0,0,1,1.31,4.08.87.87,0,0,1-1.31.13c-2-.38-3,2.09-4.92,1.94C127.42,167.07,126.26,166.78,125.73,165.82Z"/><path class="cls-152" d="M125.73,165.82c1.06.39,3.41-.59,2.28,2.14-1.09.44-2.17,1.64-3.37.5-.84-.8.21-1.7.33-2.56A1.18,1.18,0,0,1,125.73,165.82Z"/><path class="cls-70" d="M132.93,166l1.13-.13a1.19,1.19,0,0,1,1.18-.15c.7.56,1.24,1.19.8,2.17l-.16.21C134.5,168,133.09,167.88,132.93,166Z"/><path class="cls-153" d="M135.22,158.12,135,157a2.36,2.36,0,0,1-.57-2c.87-1.85,1.78-1.09,2.68,0l4,6c-.75,1.26-2.63-.64-3.19,1.14a6.92,6.92,0,0,0-.76-.28C135.59,161.05,136.38,159.08,135.22,158.12Z"/><path class="cls-151" d="M135.22,158.12c2.51.25,1.48,2.34,1.92,3.67-.58,2,1.53,4.49-1.1,6.12L135,166c-.17-2-.84-4.08-.08-6.13C135,159.26,135.13,158.69,135.22,158.12Z"/><path class="cls-154" d="M7.05,92.94c-1.27-.62-1.08-1.68-.83-2.76.58-.66,1.16-.83,1.78-.05,2.26-1,1-3,1-4.5-.1-4.22.29-8.19,3.16-11.55A2.19,2.19,0,0,1,15,73.63a2.77,2.77,0,0,1,.85,1.3,6.44,6.44,0,0,1-.79,4.4c-.69,1.15-.59,2.64-1.36,3.7-1.44,2-2.21,1-2.47.42,1.08,2,3.43,5.25,1.27,8.81C11.22,94.38,8.94,93.22,7.05,92.94Z"/><path class="cls-155" d="M8,90.13l-1.78.05c-2.17-3-1.3-6.11-.21-9.2,0-.48-.07-1.1.18-1.43.94-1.19.86.06.8.45C6.46,83.47,8.25,86.7,8,90.13Z"/><path class="cls-156" d="M15.06,74l-2.92.11c-1-.29-2.44.39-2.73-1.12-.2-1,.8-1.57,1.65-2l4,.09C16.48,72,16.85,73,15.06,74Z"/><path class="cls-157" d="M7.05,92.94c5.76-1.83,5.76-1.83,3.1-8.23-.45-1.08.08-1.41,1.72-1.67,2.36-.37.23-3.32,2.15-4.06a3.45,3.45,0,0,1,1,1.44c.92,3.18-.35,6.23-.53,9.35a74,74,0,0,0,1.1,17.82c.31,1.64.8,3.25-.05,4.86l-.63.61-3.61-1.2A2.47,2.47,0,0,0,11,111C7.3,106.53,8.48,100.84,7.2,95.77Z"/><path class="cls-158" d="M7.2,95.77C10.47,100.35,8.8,106.16,11,111c-2.8-1-4.5-2.75-4-6C8.52,102,4.21,98.79,7.2,95.77Z"/><path class="cls-159" d="M133.21,144.94a1.1,1.1,0,0,1-.38-.87c1.5-3.52,5-5.18,7.43-7.85,5.32-5.88,8-13.37,12.79-19.49,5,1.18,5.93,2.32,4.25,6.06-3.7,8.24-8.42,15.85-15,22.11C138,148.94,137.19,148.85,133.21,144.94Z"/><path class="cls-160" d="M138.71,111.12a3.13,3.13,0,0,0,.32.78c.75.88,2.24,1.08,2.39,2.53-1.95,7.63-6.77,13.37-12.38,18.57-1.35,1.26-2.79,1.77-4.2,0l-2.7-1.36a1.82,1.82,0,0,1-.68-1.89c5.07-3.31,8.08-8.29,11-13.38,1.51-2.63,1.19-4.2-1.75-5.09-.72-.78-1.36-1.57-.56-2.67A6.89,6.89,0,0,1,138.71,111.12Z"/><path class="cls-161" d="M124.84,133c2,1.05,3-.43,4.18-1.54,5.4-4.87,9-10.94,12-17.49a2,2,0,0,1,2.1-.54,3.59,3.59,0,0,1,3.3,1.45c.1,4.67-3.26,7.79-5.39,11.35-2.77,4.61-5.49,9.47-10.7,12-1.2.38-1.72-.72-2.53-1.17A6.85,6.85,0,0,1,124.84,133Z"/><path class="cls-162" d="M133.21,144.94c3.52,3.3,6.11,1.23,8.75-1.39,6.15-6.14,10.4-13.52,14.34-21.15,2-3.88-.84-4.44-3.32-5.38-.9.11-1.34-.17-1-1.14,3.46-.2,6.2,1.78,9.19,3,0,.23-.07.46-.09.69-4.39,10.88-9.88,21.05-18.81,29-1.05.92-1,2-1.09,3.11a1.82,1.82,0,0,1-3.06.27Z"/><path class="cls-163" d="M152,115.88l1,1.14c-4.32,10.8-10.07,20.53-20.15,27.05-1.93-2.15-3.92-4.26-5.06-7L130,138c3.65,1.1,6-.9,8.13-3.42a78,78,0,0,0,10.08-15.39c.59-1.19,1.06-2.46,2.31-3.15l.67-.23A1,1,0,0,1,152,115.88Z"/><path class="cls-164" d="M122,133l5.09,8.87c.38.9-.18,1.27-.87,1.57a2.85,2.85,0,0,1-1.39-.15,32.23,32.23,0,0,1-4.64-5.05c-2.8-4.35-5.65-8.68-8.86-12.76-2.27-3.46-5.64-6.23-6.53-10.54a3.19,3.19,0,0,1,2.44-1.36c2.56.88,3.77,3.16,5,5.21C115.29,123.71,119.85,127.55,122,133Z"/><path class="cls-165" d="M122,133c-5.77-5.75-9.76-12.9-14.94-19.11-2.45-1.59-4.4-3.23-.58-5.49,4,1.73,5.27,6,8.07,8.86a66.63,66.63,0,0,0,4.07,5.42,22.94,22.94,0,0,1,3.44,7.19c0,.59.07,1.18.1,1.76S122,132.58,122,133Z"/><path class="cls-166" d="M126,143l1.11-1.09a65.19,65.19,0,0,1,10,13c-.72-.11-1.49-1-2.15.12-1.64.4-2.46-.78-3.38-1.77-.74-1.1-1.47-2.21-2.26-3.28C128.17,147.67,125.22,146.21,126,143Z"/><path class="cls-167" d="M145.18,152.13a6.3,6.3,0,0,0-.18.84c-.33,2.34-2.62,2.06-4,3l-.17.06-2.66-3.25c2.24.2,3.64-1.76,5.65-2.15A1.93,1.93,0,0,1,145.18,152.13Z"/><path class="cls-168" d="M143.91,150.88c-1.69,1.33-3.33,2.77-5.74,1.91a2,2,0,0,1,0-.88c1.06,0,2.18.23,2.86-.93a2.09,2.09,0,0,1,1.81-1.57,2.19,2.19,0,0,1,1.2.35A.88.88,0,0,1,143.91,150.88Z"/><path class="cls-169" d="M151,151l-3-1c.13-4,3.24-5.66,5.86-7.72a2.52,2.52,0,0,1,3,1.68C155.77,147,154.45,149.86,151,151Z"/><path class="cls-170" d="M157,144l-3-1c-.28-2.27.8-3.2,3-3l2,2Z"/><path class="cls-171" d="M157,139.93a6.67,6.67,0,0,0-3,3L148.08,150l-2.9,2.11-1.27-1.25a3.26,3.26,0,0,0,.16-.88c.48-2.51,2.6-3.78,4.2-5.39a28.52,28.52,0,0,0,6.94-10.21,4.86,4.86,0,0,1,.82-1.14c2.63-2.33,3.89-5.51,5.43-8.54.82-1.62,1.08-3.91,3.67-3.94a2.76,2.76,0,0,1,1.5,3.08c-1.84,4.5-3.1,9.36-7.6,12.2Z"/><path class="cls-172" d="M141,156l4-3c1.08.15,3,.12,3.07.47.3,1.49-1.18,2-2.23,2.69Z"/><path class="cls-173" d="M162,74c3.25,1.5,1.91,4.74,2.43,7.12a74.19,74.19,0,0,1,.65,29.13c-.26,1.43-.43,2.63-2.14,2.81-3.57.86-7.1,1.61-8.91-2.91,3.87-1.06,5-3.82,5.4-7.59.69-7.16-.83-14.11-1.4-21.15-.33-4.21-4.39-2.59-6.18-4.43C154.14,73.48,157.15,72.59,162,74Z"/><path class="cls-174" d="M162,74c-3.24,1.19-7.06.51-9.89,3a2,2,0,0,1-3.19-2.26c2.3-2.15,5.42-2.6,8.1-4,3.78-2,8.06-.66,12-1.75l4.9-2.68c.84,5-2.63,4.66-5.8,4.68a2,2,0,0,0-2.15,1.09A6.11,6.11,0,0,0,162,74Z"/><path class="cls-175" d="M153.88,110.11c2.43,2.78,6.05,1.91,9.05,2.93l2.07,1c1.33.62,2.06,1.45,1,2.89l-22-7a1.45,1.45,0,0,1-.14-1.94,2.42,2.42,0,0,1,1.93-.69c2.2.45,4.48.58,6.59,1.46a4.73,4.73,0,0,1,1.15.72Z"/><path class="cls-176" d="M166,117l-1-2.89,1.14-1.21c1-.31,1.41.31,1.75,1.05.83,3,4-.16,5.19,2L174,119A16.71,16.71,0,0,1,166,117Z"/><path class="cls-177" d="M167.89,113.93l-1.75-1.05c.61-1.3,1.21-2.61,1.81-3.91l1.14,0c-.06,1.28-.11,2.56-.16,3.84Z"/><path class="cls-100" d="M159,136.06l6.81-12.26A2.73,2.73,0,0,1,168,125c.07,3.18,0,5.93-3.68,7.76-1.7.83-2.2,4.11-3.24,6.29a.59.59,0,0,1-.1.94C158.34,139.66,159.18,137.61,159,136.06Z"/><path class="cls-178" d="M161,140c0-.31.06-.63.1-.94,2.24-.22,2.53-1.84,3.1-3.66,1-3.16,3.26-3.23,5.81-.41a19.94,19.94,0,0,0-5,8C162.52,143.49,162.13,141.22,161,140Z"/><path class="cls-86" d="M174,122c0,.35,0,.69,0,1-.88.77-2.17.9-2.9,1.9l-.11.1-2.92-1a2,2,0,0,1-.07-3C169.85,122.22,171.92,122.14,174,122Z"/><path class="cls-179" d="M168,121c0,1,0,2,.07,3q0,.48-.06,1a2.22,2.22,0,0,1-2.16-1.18c-.32-.91-.63-1.82-.94-2.73.08-.59.7-.66,1-1Z"/><path class="cls-180" d="M160,145c.14-.74-.12-1.81,1.09-1.79.78,0,1,.75.85,1.41-.37,1.24-1.23.54-1.94.38Z"/><path class="cls-181" d="M171.09,124.9c0-2.07,1.52-1.9,2.9-1.9,0,.32,0,.64,0,1Z"/><path class="cls-182" d="M138.71,111.12c-2.88-.79-5.56-2.35-8.67-2.25a5.61,5.61,0,0,1-3.34-.3c-2.34-1.3-5.11-1.43-7.46-2.72a10.42,10.42,0,0,0-4.6-2,9.45,9.45,0,0,1-1.28-.39c-1.06-.47-2.31-.65-2.81-1.93a2.31,2.31,0,0,1,.26-1.46c1.72-1.72,3.66-.84,5.6-.54,7.09,1.13,13.28,5,20.24,6.51,2.29,1,5.21,1.08,6.35,4C141.87,111.5,140.15,110.77,138.71,111.12Z"/><path class="cls-183" d="M165.89,120l-1,1c-2.67,2.81-3.11,6.83-5.36,9.9-.95,1.3-1.31,3.11-3.4,3.14-1.19-2.18.44-3.73,1.3-5.38,1.58-3.06,3.13-6.1,3.35-9.63l.42-.22Z"/><path class="cls-163" d="M146,115,143,114a.7.7,0,0,1-.24-.74c.09-.24.18-.35.27-.35,3.07,0,5.63,1.4,8.16,2.9l-.32.29C148.89,117.38,147.37,116.45,146,115Z"/><path class="cls-184" d="M143,110l-6.1-2.93c2.29-2,4.47-.79,6.66.23l.54.59L144,110Z"/><path class="cls-185" d="M143,112.88l0,1.09-2,0a3.25,3.25,0,0,1-2-2.1A5.56,5.56,0,0,1,143,112.88Z"/><path class="cls-186" d="M89.15,175.12l-.3,3.73c-1.83,1.72-2.55-.4-3.69-1.07L85,176c.68-1.32,1.37-2.63,2.06-3.94a2.56,2.56,0,0,1,.86-.28C91.7,171.58,90.06,173.49,89.15,175.12Z"/><path class="cls-187" d="M11,115.78c.65-1.83,4.1.34,3.89-2.72l.44-.29c1-.1,2,.56,3,.36.42-.09.83-.15,1.25-.22a19.54,19.54,0,0,0,4.45-1.08c3.16-.93,6.42-1.49,9.54-2.57a6.1,6.1,0,0,1,1.48.07c1.21.36,2.47.65,3.12,1.91-2.4,3.46-6.83,2.42-9.88,4.45a108.18,108.18,0,0,1-13.22,3.75,6.15,6.15,0,0,1-1.35.23c-2.06.06-2.18-1.44-2.35-2.91A1.84,1.84,0,0,1,11,115.78Z"/><path class="cls-188" d="M10.08,121.86c-.35-1-.7-1.92-1.06-2.89a3.76,3.76,0,0,1,2-3.19l-.08.45c1.27.65-.3,4.49,3.09,2.76h0c1-.62,2.23-1,2.92.24.56,1-.47,1.74-1,2.5C14,123.13,12.1,125.14,10.08,121.86Z"/><path class="cls-189" d="M10.08,121.86c1.88,1.32,3.5.68,5-.68,2.48-1.89,3.16,0,3.9,1.83h0c-.05.36-.11.72-.17,1.08-2.92-.67-6.36,3.39-8.89-1C10,122.7,10,122.28,10.08,121.86Z"/><path class="cls-54" d="M76.1,171.93l1.93.15a6.15,6.15,0,0,0,.76.61c1.44.85,4.81-.45,4.33,1.85-.55,2.57-3.53,1.44-5.51.74-1.51-.54-3.41.3-4.59-1.31C72.21,170.52,74.33,171.49,76.1,171.93Z"/><path class="cls-190" d="M76.1,171.93c-1.45,0-3,0-3.08,2H71v-4C72.48,171.23,74.77,170.33,76.1,171.93Z"/><path class="cls-191" d="M92,53q0-22,0-43.92c1.8,1.39,1,3.38,1,5.1Q93.06,43.57,93,73a.93.93,0,0,1-1.37-.24c-.14-1.59-.44-3.18.32-4.7v-2.1A23.11,23.11,0,0,1,92,56Z"/><path class="cls-104" d="M92.06,72.93c.32,0,.64,0,1,0,2.15.89,1.6-.82,1.76-1.83l.42-.58a3.64,3.64,0,0,1,2-.53c1.9.08,3.44,1.13,5.06,1.94,1.92,1.24,3.61-1.27,5.51-.33,1.12,3.06-2.17,4-3,6.16a5.16,5.16,0,0,1-1,1c-1.36.9-2.76.5-4.16.16a11.21,11.21,0,0,1-1.38-.47c-2-1.65-5.58-.34-6.81-3.52C91.48,74.24,91.38,73.48,92.06,72.93Z"/><path class="cls-192" d="M94.78,71.15A4.84,4.84,0,0,1,94,67.84q0-24.15,0-48.29c0-1.32-.13-2.68.91-3.75L95,16c1.15,1.21,1.24,2.74,1.25,4.28,0,.74,0,1.47,0,2.2s0,1.43,0,2.14c0,.46,0,.93,0,1.39s0,.94,0,1.4c0,1.17,0,2.34,0,3.51,0,.48,0,1,0,1.44q0,1.84,0,3.69c0,.78,0,1.56,0,2.34s0,1.66.09,2.48c.08,3.51-.14,7,0,10.53.11,4.94-.11,9.86-.06,14.79,0,1.65,0,3.32-1.24,4.65Z"/><path class="cls-193" d="M48,32c.07-1.08-.22-2.27,1-2.95.37,2.62,2.62,4,4,5.93l.62.13a5.54,5.54,0,0,1,1.89,1.65c.26.33.49.68.72,1,.69,1.08,1.61,2,2.35,3a57.51,57.51,0,0,0,3.26,4.78c2.12,2.27,3.84,4.86,5.82,7.23,1.4,2.39,3.32,4.52,3.69,7.42a2,2,0,0,1-2.22,1.43,3.27,3.27,0,0,1-1.89-1,160,160,0,0,1-10-13.46C54.72,43.41,52,39.74,49.5,35.89,48.74,34.72,47.35,33.74,48,32Z"/><path class="cls-107" d="M90,20c0,1.67,0,3.33,0,5a1.31,1.31,0,0,1-1.4.22c-4-1.8-7.85,0-11.65.74a66.11,66.11,0,0,0-20.26,7.91c-1.13.65-2.15,1.65-3.63,1.12h0c.23-5.48,5.35-6.07,8.64-7.51,8.07-3.54,16.37-7,25.55-6.57A8.52,8.52,0,0,0,90,20Z"/><path class="cls-194" d="M50,28c0-.36-.05-.72-.07-1.08l2-2c3.46-1,6-4.38,10-4C58.64,24.35,54.38,26.25,50,28Z"/><path class="cls-194" d="M62,21a6.16,6.16,0,0,1,4-2h2.87A9.93,9.93,0,0,1,62,21Z"/><path class="cls-195" d="M67,53.05C64.25,51.31,63.08,48.27,61,46c0-3.67,3.3-4.38,5.58-5.46,5.62-2.66,11.47-4.93,17.76-5.64,2-.22,4-.36,5.61,1.12-.13,3.33-1.25,6.67,0,10C82.31,48.31,74.65,50.73,67,53.05Z"/><path class="cls-196" d="M90,36c-10.69.3-20.57,3-28.95,10C59.71,44.51,58.25,43.14,58,41s1.68-2.65,3-3.47a54.48,54.48,0,0,1,23.35-8.09,56.65,56.65,0,0,0-22.84,7.44c-2,1.13-3.93,2.78-6.4,1.07,0-.32,0-.65,0-1,.24-2.87,2.89-3.51,4.73-4.52,8.55-4.66,17.92-6.74,27.47-8.12A2.35,2.35,0,0,1,89,25c.33,0,.65,0,1,0C90.32,28.66,88.94,32.33,90,36Z"/><path class="cls-197" d="M67,53.05C74,48.7,81.62,46.05,90,46c0,5.79-.34,11.6.13,17.35C90.53,68.41,89.61,72,84,73c-1.44.73-2.86,1.26-4.15-.28.22-2,2-2.18,3.28-2.39,4.42-.74,5.38-3.62,4.28-7.22-.56-1.8,1-5.3-2.69-5.24-4.84.08-8.36,3.41-8.2,7.16a2,2,0,0,1-.3.94c-4.37.38-4.32-3.2-5.26-5.89C69.43,57.82,67.77,55.68,67,53.05Z"/><path class="cls-198" d="M92,75c2,1.77,5.38.33,7.06,2.94a2.61,2.61,0,0,1-1.7.93c-2.17.05-2.14,2.39-3.45,3.34-5-.4-5.79,3.55-7.18,6.89a2.23,2.23,0,0,1-1.58,1.36,2.41,2.41,0,0,1-1.4-.4,6.28,6.28,0,0,1-1-3.45C82,81,79.33,85.08,77.38,85.55a2.51,2.51,0,0,1-1.29-.25,1.65,1.65,0,0,1-.46-1.18,2.92,2.92,0,0,1,1.42-2.07c4.59-2.49,8.53-6.24,14-7.07C91.35,74.5,91.68,74.51,92,75Z"/><path class="cls-199" d="M77.05,82.05a2,2,0,0,1-1,2c-1.13.77-.74,2.57-2.12,3.17a50.36,50.36,0,0,1-10.75-3.61C62,83,61.19,82.4,62.05,81c2.56,0,11.85-2.76,15-4.49.76.2,1.28.56,1,1.47C75.84,78.88,76,80.37,77.05,82.05Z"/><path class="cls-200" d="M78,78l-1-1a45,45,0,0,1-10.79-15c.13-1,.19-2.06,1.66-1.85l1,1c5,4.41,9.81,8.91,11.08,15.91A2.06,2.06,0,0,1,78,78Z"/><path class="cls-201" d="M80.05,76.94C77,71.21,72.9,66.17,69,61a2.17,2.17,0,0,0,2-1c2.08,1.66,2.29,4.89,5,6,1.86,1.64,4.21,3,4.08,6,1,1.52,2.57.88,3.93,1C82.09,73.68,82.61,76.83,80.05,76.94Z"/><path class="cls-105" d="M92,75l-1,0c-.66-1.13-1.9-.94-3.19-1.41C91.15,73,90.52,69.81,92,68l.09,4.89Z"/><path class="cls-105" d="M92,56v9.9A11.42,11.42,0,0,1,92,56Z"/><path class="cls-202" d="M67,62,77.06,76.94a3.16,3.16,0,0,0-.83.52c-5.83,6.89-5.82,6.9-14.18,3.54L58,80.92a29,29,0,0,1-7-2.65,2,2,0,0,1-.26-1.36c3.37-6.51,6.78-13,13.88-16.33A3.46,3.46,0,0,1,67,62Z"/><path class="cls-203" d="M56.08,85c5,.37,9.43,2.36,14,4.15a8.59,8.59,0,0,1-.18,9.83c-2.22,1.67-5.07,1.85-7.47,3.11-2.36.65-4.61,1.87-7.19,1.45-3.06-1-7-.78-8.09-4.74a19.08,19.08,0,0,1,1.47-14C50.43,81.32,53.54,84.53,56.08,85Z"/><path class="cls-204" d="M56.08,85c-1.43-.28-2.87-.59-4.31-.82s-2.52.23-2.73,2a45.43,45.43,0,0,1-1,6.28c-1.87,7,2.82,8.95,8,10.55a22.22,22.22,0,0,1-13,4.7c-4.55-1.19-4.49-5.61-5.41-8.79-1.69-5.79-.69-11.79,1-17.58.19-.65.88-1,1.49-1.23C45.53,81.15,51.23,81.67,56.08,85Z"/><path class="cls-205" d="M23.05,73.94a16.26,16.26,0,0,1,7,2c1.38,1.94,1.3,4.07.78,6.23C29,89.75,29.11,97.46,29.8,105c.43,4.67-.79,6.87-5.35,7.24-2.55-1.74-2.2-4.59-2.73-7.12-1.72-8.33.13-16.48,1.15-24.68.19-1.47.66-2.94-.23-4.34A2.15,2.15,0,0,1,23.05,73.94Z"/><path class="cls-206" d="M24,112c3.8-.65,4.77-2.25,4.22-6.54C27,95.61,28.41,85.74,30,76c1.44,1.26,3.69.43,5,2s.94,3.44.57,5.21a63.59,63.59,0,0,0-.5,21.14c.25,2,.44,4-1.08,5.61-3,2.19-6.66,2-10,3a.58.58,0,0,1-.21-.64C23.88,112.09,24,112,24,112Z"/><path class="cls-207" d="M34,109.91c-.34-3.61-.73-7.21-1-10.83A72,72,0,0,1,35,78L40,80C39.1,87,36,93.76,40,100.94c1,1.84.45,4.7,3,6a2.65,2.65,0,0,1-1.64,1,8.2,8.2,0,0,0-4.64,1.81c-.55.3-1.09.74-1.73.19Z"/><path class="cls-199" d="M69,99c1.83-3.12.67-6.57,1.05-9.85l3.17.05a4.14,4.14,0,0,1,2.67,2.51c.66,2.4.35,4.86.45,7.3-.29,4.57,5,5.53,6,9.22a2.62,2.62,0,0,1-.18,1.35c-2.14,3-4,6.1-6.39,8.92-.8.83-1.42,2-2.85,1.71a3.54,3.54,0,0,1-1.37-2.4c0-.33-.08-.74.11-1,3.61-4.37,2.75-8.7-.09-13,.36-1.59-1.55-1.77-1.85-3C70.89,99.3,70.89,99.3,69,99Z"/><path class="cls-208" d="M19,114a6.86,6.86,0,0,1-.91.12c-2.59-2.72-2.45-6.34-3-9.68-1.34-7.62-.54-15.3-.55-22.95a3.63,3.63,0,0,0-.36-1.42L14,79l1.17-4c.62-1.85,2.35-2.23,3.83-3,1.1,0,2.26-.18,3,1-1,4.23-.52,8.7-2.13,12.83C19,93,19.43,100.22,20,107.43,20.19,109.73,20.72,112,19,114Z"/><path class="cls-209" d="M29,70l-3-1c-1.41-2-.31-3.91.57-5.56,4.29-8,9-15.77,15.79-22,2.07-1.88,4.12-4,7.37-2.93a2,2,0,0,1,.8,1.17c.11,1.52-.87,2.43-1.91,3.27C39.65,50.19,33.7,59.62,29,70Z"/><path class="cls-210" d="M30,71c0-.33,0-.65,0-1,.44-5.51,4-9.6,6.79-13.89,3.86-6,8.05-12.05,15.34-14.63a2.09,2.09,0,0,1,1.62,2.16c-.08,1.67-1.26,2.62-2.43,3.55C45,52.29,40.86,59.06,36.49,65.73c-1.6,2.44,0,4.66-.91,6.81A4.47,4.47,0,0,1,30,71Z"/><path class="cls-211" d="M49.9,39a7,7,0,0,0-5.43,2.1C36.23,49,29.64,58,26,69H24V66c-.32-3.92,2.1-6.83,3.88-9.87A72.72,72.72,0,0,1,47,34.75C49.34,35.22,50.43,36.56,49.9,39Z"/><path class="cls-212" d="M52,42C41.14,48.56,35.94,59.58,30,70l-1,0c0-6.59,4.62-11,7.73-16.08C40.14,48.4,45.22,44.27,50,40,51.65,39.71,52.32,40.36,52,42Z"/><path class="cls-213" d="M30,71c2,.34,3.9,1.34,6,1,4,.05,7.51,1.84,11.27,2.77,1.29.65,2.79,1,3.72,2.22,0,.31,0,.62,0,.93-.67,1.17-2.12.1-2.89,1-5.62-1.78-11.26-3.51-16.84-5.43C30.52,73.23,27.68,73.15,30,71Z"/><path class="cls-214" d="M19,85c.28-3.08,1.44-6,1-9.22-.18-1.44.28-2.61,2-2.82l1,1c0,.68,0,1.37,0,2,.19,6.26,0,12.46-3.43,18A13.38,13.38,0,0,1,19,85Z"/><path class="cls-215" d="M75,91c-.61-.61-1.21-1.22-1.82-1.82a6,6,0,0,1,.7-.28c1.67-.81-.82-3.82,2.09-4l.07.37A3.16,3.16,0,0,1,77,86.81a2.88,2.88,0,0,0,2,2.63c1.47.52,3.29.18,4.28,1.81a4.74,4.74,0,0,1-1.22,2.67c-1,1.36-1.83,2.94-3.84,2.67-2.26-.29-2-2.26-2.36-3.83A4.59,4.59,0,0,0,75,91Z"/><path class="cls-216" d="M48.11,78.91c.68-1.15,1.85-.88,2.89-1,3-.57,4.83,1.55,7,3C54.2,82.58,51.41,79.48,48.11,78.91Z"/><path class="cls-217" d="M19,72c-.27,2.3-2.94,1.46-3.84,3q-.07-.49-.12-1a1.9,1.9,0,0,0,0-2.91A5.83,5.83,0,0,1,19,72Z"/><path class="cls-104" d="M76,84.89c-1.7.8-.27,3.25-2.09,4,0-.57,0-1.13,0-1.7.14-1.43,0-3.1,2.12-3.17C76,84.29,76,84.59,76,84.89Z"/><path class="cls-218" d="M42,32a3.51,3.51,0,0,1,1-.08c2.66,2,0,3.17-.94,4.1A116.46,116.46,0,0,0,28.75,51.3a47.83,47.83,0,0,0-2.87,4.61A6.06,6.06,0,0,1,24,58c-3.35,1.62-1.63,6.4-5,8a1.91,1.91,0,0,1-.11-2.28C20.67,56.05,25.92,50.35,30,44,33.89,39.87,37.45,35.44,42,32Z"/><path class="cls-110" d="M18.93,63.72c0,.76.07,1.52.11,2.28a1.53,1.53,0,0,1-2,.75c.31-.63.62-1.26.92-1.89Z"/><path class="cls-219" d="M24,58a2.09,2.09,0,0,1,1-2c5.55-7.39,10.5-15.29,18-21a4.6,4.6,0,0,1,2.59-1.35A1.64,1.64,0,0,1,47,35.07c0,1.56-1.26,2.36-2.21,3.11C35.38,45.6,29.11,55.34,24,66c-1.19.66-1.58,2.6-3.45,2.17C20.52,64.35,25.42,62.23,24,58Z"/><path class="cls-220" d="M47,35.07l-1-1c-.78-.46-1.45-1-1-2h2c.33,0,.65,0,1,0L58.12,46.85c.46,1-.12,1.35-.89,1.63-2.92-.08-3.65-2.2-4.18-4.51a2.09,2.09,0,0,0-1-2,3.38,3.38,0,0,0-2-2,5.36,5.36,0,0,0-.12-1Z"/><path class="cls-111" d="M45,32l1,2c-8.45,5.1-13.37,13.47-19.33,20.88-.37.46-.27,2-1.62,1.07,3.23-7.73,9.08-13.45,14.75-19.34,1.28-1.33,4-1.93,3.22-4.73C43.7,31,44.37,31.11,45,32Z"/><path class="cls-221" d="M95.11,21c0-1.67-.06-3.34-.08-5,2.77-.71,5.29,1.12,8,.82l3.82.26c9.2,2.53,18.14,5.67,26.19,11,2,2,1.23,4-.13,5.89-.44,1-1,1.61-2.17.94,0-3-1.47-4.79-4.29-5.91-3.68-1.46-7-4-11.21-3.8C108.54,23.83,101.92,22,95.11,21Z"/><path class="cls-222" d="M162,67l-.86,1.09c-.14,1.78-1.35,1.68-2.61,1.48-1.77-1.33-.84-3.9-2.44-5.32a69.49,69.49,0,0,0-14.73-20.34c-1.6-2.37-4.29-2.92-6.67-4-.57-2.91,1.32-4.32,3.41-5.61a4,4,0,0,1,4.59,1c3.22,3.52,7.42,6.19,9.53,10.7-3,.86-3.8-2-5.49-3.33-1.44-1.1-2.56-2.59-4-3.71a79.48,79.48,0,0,1,17.13,21.15C161,62.19,162.4,64.33,162,67Z"/><path class="cls-223" d="M138.1,34.27,134.86,40c0,1.35-.82,2.37-1.44,3.47-1,1.39-1.91,2.86-2.95,4.23-1.61,2.14-3.28,4.24-4.78,6.45a51,51,0,0,0-3.3,4.3c-.94,1.12-1.92,2.18-3.57,2.06a1.88,1.88,0,0,1-1.37-1.54c1.84-6.83,7.19-11.47,10.83-17.18,1.82-2.87,3.14-6.37,6.77-7.73,3.43-1.9,4-6.28,7.29-8.45,1.62,1.7-.73,2.95-.37,4.42-.67,1.36,1.55,1.69,1.08,3C141.3,33,139,30.8,138.1,34.27Z"/><path class="cls-224" d="M162,67c-5.12-11.85-13.1-21.6-22.68-30.22,6.1.77,8.09,6.89,12.9,9.19a40.47,40.47,0,0,1,10,16.67,5.4,5.4,0,0,0,1.89,3.31A1.91,1.91,0,0,1,162,67Z"/><path class="cls-225" d="M144,33a1.83,1.83,0,0,1,2-2c.09,2,1.42,3.19,3,4,2.53,1.27,3.26,3.37,3,6Z"/><path class="cls-83" d="M158,69.1l3.11-1c2.48,1.36,5.21.82,7.84,1L157,72a1.7,1.7,0,0,1-1.17-2A2.23,2.23,0,0,1,158,69.1Z"/><path class="cls-226" d="M135.05,34l-17.12,24.9c-.45,1-1,1.67-2.18.95-1-2.3.83-4,1.22-6.07a12.82,12.82,0,0,1,2.09-4.28,22.51,22.51,0,0,0,3.38-4c1.3-1.51,2.34-3.23,3.65-4.73.52-.68,1-1.4,1.46-2.11,1.11-1.25,2-2.74,3.5-3.58L132.93,34Z"/><path class="cls-227" d="M52,154c.83-1.46,1.21-3.26,3-4,6.31,3.29,12.07,7.61,19.15,9.51a57.9,57.9,0,0,0,11.71,2.29c1.69.1,3.47.38,3.85,2.47.29,1.59,0,3.05-2.09,3.17.08.34.35.11.52.16,1.7.56,1.75,1.77,1.26,3.2a.92.92,0,0,1-1.35.31c-.24-2.32-2-2-3.58-2.1s-3.23.51-4.46-1c-8.61-1.32-16.9-3.6-24-8.95C54.32,157.73,51.72,156.94,52,154Z"/><path class="cls-228" d="M52,154c6.9,7.38,15.92,10.6,25.37,13,1,.24,2,.09,2.63,1-7.94.3-15-2.26-21.89-6.08C55.7,160.55,53,159,50,159l-1,0C49.37,156.91,50,155,52,154Z"/><path class="cls-229" d="M88.05,171.06a4.37,4.37,0,0,0,.94-.26,3.34,3.34,0,0,0,.88-1.45c.47-4.79-.66-9.57-.14-14.34.17-1.55-.49-4.11,2.68-3.59-.07,8.19.61,16.38-.4,24.55-.28.27,0,1.74-.81.68-.61-.78-.83-1.69-2-1.53-.39-1.13,1.32-3.07-1.28-3.35C87.94,171.53,88,171.3,88.05,171.06Z"/><path class="cls-230" d="M89.88,170.81l-.44,0-.45,0c0-1.41-.09-2.65-1.95-2.85-1-.1-1.8-.64-.06-1s2.28-1.25,1.74-2.81-1.85-1.15-3-1.18c-11.27-.38-20.89-5.13-29.95-11.31-.46-.31-.54-1.14-.8-1.73.34-1,.69-2,1-3a2.49,2.49,0,0,1,1.36-.73,3.15,3.15,0,0,1,1.91.36A66.93,66.93,0,0,0,86,156.4a7.93,7.93,0,0,1,3.25,1.15,3.32,3.32,0,0,1,1.2,2.14C90.19,163.4,91.2,167.17,89.88,170.81Z"/><path class="cls-138" d="M46,154c-2.8-1.8-6.39-2.54-7.94-6-1.68-4.6-5.73-7.52-8.17-11.66-3.41-5.78-5.9-12-9-17.86,1-1.51,2.39-1.46,3.9-1.16,1.86.86,2.3,2.69,3,4.36,3.85,9.26,9,17.66,16.56,24.4,1.59,1.42,3.23,2.89,3.64,5.17.22.91-.53,1.85.08,2.76-.39.44-.73,1.18-1.19,1.26C46,155.4,46.1,154.51,46,154Z"/><path class="cls-231" d="M48,154a2.08,2.08,0,0,1-1-2c1-3.45,2.93-6.4,4.85-9.35a15,15,0,0,1,1.65-2.16c1-1,2-2,3.61-1.76a2.7,2.7,0,0,1,1.41,1.54c.1,2.72-1.29,4.5-3.62,5.67C52,148.08,50.47,151.43,48,154Z"/><path class="cls-110" d="M54.94,145.91c.8-2.09,2.8-3.54,3.12-5.88a1.94,1.94,0,0,1,2.16-1.51A1.82,1.82,0,0,1,61.57,140c-.19,3.19-2.47,5-4.57,6.93l-1,0Z"/><path class="cls-232" d="M21,119c1,.16,2-.35,2.55,1.46,2.53,8.9,7.84,16.33,13.14,23.74.81,1.14,2.25,2,1.31,3.79-8.36-7.82-13.31-17.83-18-28C19.8,119.08,20.11,118.73,21,119Z"/><path class="cls-233" d="M21,119l-1,1c-1.16.73-.9,2-1,3-1.06-1.12-2-2.49-3.9-1.84,1.44-1.6,1.24-2.41-1.07-2.18a75.72,75.72,0,0,1,14-4,2.42,2.42,0,0,1,2.32,1.26,1.53,1.53,0,0,1-.53,1.24A5.57,5.57,0,0,1,25,118C23.65,118.12,22.08,117.51,21,119Z"/><path class="cls-234" d="M132,153l2.87,2.1c0,.64,0,1.29,0,1.93-6.41,2.88-12.47,6.53-19.24,8.65A22.49,22.49,0,0,1,107,167h-.83a28.71,28.71,0,0,1-7.91.14c-1.37-.2-2.58-.69-2.7-2.37a2.46,2.46,0,0,1,2.69-2.86c11,.09,20.43-4.86,30.05-9.22A3.33,3.33,0,0,1,132,153Z"/><path class="cls-234" d="M96.06,170.91c-1.27-.66-1-1.85-1-2.94,3.89-1.56,7.94-1.28,12-1h0c-1.78,2.17-4.27,1.92-6.7,2C98.71,169.07,96.5,168.14,96.06,170.91Z"/><path class="cls-235" d="M134.94,159.83c.92,2,2,4.06.08,6.13l-1-.06a6.6,6.6,0,0,1-1.13-4.09Z"/><path class="cls-69" d="M130.83,162.75c-.44,2.32-2.18,2.22-3.93,2.1A6.91,6.91,0,0,1,130.83,162.75Z"/><path class="cls-236" d="M107,167a42.78,42.78,0,0,1-12,1q0-4.5,0-9a6.76,6.76,0,0,1,1.21-.85c10.06-1.92,20-4.32,28.91-9.57,2.29-1.34,3.69-.57,4.87,1.42a3.15,3.15,0,0,1,2,3c-6.33,2.54-12.74,4.93-19,7.7A32.43,32.43,0,0,1,101.57,163c-1.78.12-4.95-1.2-5,1.35-.1,2.75,3.1,1.19,4.83,1.56S105.37,165.24,107,167Z"/><path class="cls-237" d="M96,159H95c0-1,0-2,0-3-.61-2.79-2-5.52-.71-8.48a3.59,3.59,0,0,1,2.32-1.75c8.23-2.3,16.35-4.92,24.4-7.75,1.71,1.36,3.31,2.81,4,5-1.29,3.83-5.17,5.05-8,6.5a29.16,29.16,0,0,1-11.27,3.31C101.56,153.05,97.61,154.39,96,159Z"/><path class="cls-238" d="M95.05,147,95,156,93,153a55.17,55.17,0,0,1-1.94-6.17,9,9,0,0,1,.07-3.42c1-5.25.23-10.55.46-15.82.09-2.14-.24-4.32.72-6.36.81-1,1.61-2,3.06-.93,2.14,5.12.77,10.47,1.06,15.71C96.3,139.68,97.45,143.55,95.05,147Z"/><path class="cls-239" d="M92.07,146.9c1.63,1.81.63,4,1,6.06,0,6.12,0,12.24-.05,18.36,0,1.59.54,3.36-1,4.65L92,151.07A2.86,2.86,0,0,1,92.07,146.9Z"/><path class="cls-240" d="M14.17,80.09c3.5,5.21.59,11.06,1.51,16.64s1.36,11.64,2.44,17.41c-1.62,1-1.76-1.09-2.77-1.37C12.27,102,12.48,91.06,14.17,80.09Z"/><path class="cls-241" d="M122,129.91c-2.26-1.77-3.06-4.46-4.32-6.86,4,.41,6.14-2,8.22-5,1.67-2.38,2.3-5.54,5.08-7.12,5.42.19,5.6.29,2.91,5.06C130.89,121.4,128.59,127.5,122,129.91Z"/><path class="cls-242" d="M131,111c-1.38,4.1-4,7.48-6.43,10.94-2,2.74-4.16,3.3-6.87,1.14-1.89-1.21-2.84-3.12-3.77-5,1.35-1.16,2.33.1,3.44.49,4.66-1.58,5.11-6.57,7.86-9.68a3.36,3.36,0,0,1,1.82-1,3.18,3.18,0,0,1,3,1C130.36,109.57,130.69,110.27,131,111Z"/><path class="cls-185" d="M146,115l4.92,1c-2.9,7.39-7.4,13.79-12.3,19.93-3.21,4-6.1,4.68-8.57,2C137.05,131.53,141.79,123.48,146,115Z"/><path class="cls-243" d="M160.79,119.1c2.83,3.54-.79,6-1.58,8.93-.58,2.15-2,4.06-3.07,6.08v-.06A46.65,46.65,0,0,1,143,150L141,151c-1.41-.23-2.57-1-1.06-2.18C149.68,141.33,155,131,159.65,120,159.82,119.63,160.4,119.4,160.79,119.1Z"/><path class="cls-244" d="M95,136q-.06-8-.11-16c-1.14-1.18-1-2.53-.5-3.92,1.73-2.58,4.69-2.72,7.28-3.49,1.87-.57,3.15.32,3.33,2.42l7,10c3.34,6.7,3.06,7.76-4.27,9.74C103.66,135.81,99.6,139.12,95,136Z"/><path class="cls-199" d="M105,115c-3.65-3.45-6.53.93-9.84,1-3.12-.68-1.55,2.16-2.38,3.2a2.71,2.71,0,0,1-.81,1.08,1.59,1.59,0,0,1-1.27-.25,11.82,11.82,0,0,1-1.26-2.35c-2.07-2.06-5.26-1.54-7.48-3.25-1.48-1.73-.61-3.48-.06-5.24l.14-.24c1.65-.86,3.58-.39,5.26-1.11,3.17-.11,5.92-2.34,9.22-1.83,5.92,1.88,7.34,1.21,9.77-4.7.5-1.22,1.28-2.34,1.31-3.73.21-2.1-.81-4.08-.61-6.17,1.42-3.42-.48-6-2.09-8.75-.63-1.45-2.17-2.7-1-4.54L104,78A4.11,4.11,0,0,1,108,76.71a3.66,3.66,0,0,1,1,1c1.37,5.34,5.66,5.82,10.1,6,.45,2.35-1.56,2.43-2.9,3.12-1,.53-2.81.35-2.15,2.4,1.78,3.76,1.55,7.07-2.16,9.58a1.75,1.75,0,0,0-1,2c0,.36.09.71.13,1.07,1.5,3-1,4.71-2.32,6.8a1.38,1.38,0,0,1-1.3.31c-5,1.26,0,3.24-.35,4.83A2.08,2.08,0,0,1,105,115Z"/><path class="cls-245" d="M95,136c5.62.5,10.52-2,15.61-3.73,2.69-.91,4.68-1.71,1.4-4.49-.46-.4,0-1.83,0-2.78a59.42,59.42,0,0,1,9,13c-7.7,5.72-17,6.87-25.95,9Q95.05,141.47,95,136Z"/><path class="cls-246" d="M96,159c.19-1.79-.4-5.14.51-5.11,3.64.1,6.25-2.54,9.75-2.8,4.7-.34,9.73-.84,13-4.95,1.57-2,4.55-.78,5.72-3.13l1,0c.73,2.69,3.66,4.09,4.06,7-1.5-1-2.47-1.41-4.6-.2A69.24,69.24,0,0,1,96,159Z"/><path class="cls-247" d="M107.39,109.1a.41.41,0,0,0,.62,0c2.28-1.71,2.12-5.83,5.95-6h0c1.65.65,3.53.62,5,1.75,2.57,1.36,5.74,1.09,8.09,3-.36.38-.71.77-1.06,1.15-2,0-2.25,1.73-2.78,3a23.84,23.84,0,0,1-6.22,8c-1-.63-1.47-2.2-3.06-2A37.93,37.93,0,0,1,107.39,109.1Z"/><path class="cls-248" d="M143,150l13.16-15.9c-1.49,7.23-7,11.39-12.06,15.95Z"/><path class="cls-249" d="M150,77.07l2.08,0c5.25-1.74,7.52.59,7.63,5.67.17,7.55,1.87,14.92.7,22.7-.78,5.2-2.45,5.77-6.55,4.72L154,110c-1.27-1.43-1.12-3.1-.57-4.7,1.83-5.39,1.4-10.77.18-16.18-.41-1.78-1-3.61-.67-5.4.55-3.14-1.07-4.57-3.7-5.42C148.64,77.39,148.87,76.94,150,77.07Z"/><path class="cls-250" d="M156.05,70.16,157,72,149,75a1,1,0,0,1-1.34-.14,2.86,2.86,0,0,1-.36-2.19,2.34,2.34,0,0,1,.86-1.23C150.75,70.75,153.15,68.91,156.05,70.16Z"/><path class="cls-83" d="M148,74.93l1,.1,1,2-.88,1c-1.41,1.47-3.39,1.47-5.17,2-1.63.08-3.31.27-4.18-1.62C141.81,75.57,144.67,74.7,148,74.93Z"/><path class="cls-251" d="M144.18,79.09c1.48-1.15,3.27-.88,4.95-1.06,4.1-.66,6.17.27,5.08,5.14-.72,3.24.88,6.49,1.6,9.7,1.33,5.94-1.23,11.45-1.84,17.17l-.48,0L153,110c-1.85-2.24-4.76-.9-6.94-2l-2-.07v0a.91.91,0,0,1,0-1.34c4.88-3.54,4.08-9,4.34-13.89.15-2.73-1.08-5.5-.79-8.28s-2-3-3.5-4A.8.8,0,0,1,144.18,79.09Z"/><path class="cls-249" d="M146.07,108c2.41.36,5.33-1.06,6.94,2C150.76,109.1,148.11,109.55,146.07,108Z"/><path class="cls-252" d="M143.92,107a5.3,5.3,0,0,0,.17.9L136.9,107c-6.74-.24-12.12-4.9-18.62-5.76-2.41-.32-4.84-2.7-7.4-.36-.87-.77-1.21-1.94-.22-2.49,4.17-2.34,3.69-5.7,2.35-9.34a1.73,1.73,0,0,1,2.12-.31c.22.24.56.5.54.78C115.3,96.69,120,98.85,125.8,100c2,.8,4.14,1.46,6.23,2.1a93.3,93.3,0,0,0,9.66,3A3.83,3.83,0,0,1,143.92,107Z"/><path class="cls-252" d="M114,103c-2.75,1.24-3.06,4.91-5.95,6,.17-2.71,3.06-4.26,3-7.06C112.06,102.14,113.29,101.8,114,103Z"/><path class="cls-252" d="M119,104.79,114,103C116,102.77,117.81,102.82,119,104.79Z"/><path class="cls-217" d="M19,85v7.82c3-5.28,2.3-11.32,4-16.82,3.08-1,1.87,1.21,1.7,2.42A112.45,112.45,0,0,1,23,89.56c-1.83,7.62.67,15,1.06,22.42,0,.32,0,.64,0,1A8.28,8.28,0,0,1,19,114c-1.3-8.07-1-16.22-1-24.35C18.05,88.07,17.5,86.29,19,85Z"/><path class="cls-253" d="M30,116a2.11,2.11,0,0,1-2-1c2.68-3,7-1.72,10-4,1.42-2.06,3.79-2.29,5.9-3,7.08-2.76,14.52-4.39,21.71-6.83,1.44-.41,2.87-1.34,4.38-.19.22,1.14,3.47-.63,2,2.11-5.52,3.32-11.84,4.6-17.72,7-4.34,1.13-8.52,2.82-12.86,3.92a21.89,21.89,0,0,0-6.25,2.31C33.44,116.94,31.69,117.42,30,116Z"/><path class="cls-254" d="M44,109l-6,2c-1.1,0-2.29.19-3-1l1-1c1.68-.61,3.27-1.58,5.16-1.47C42.24,107.81,44,106.7,44,109Z"/><path class="cls-233" d="M14,119c-2.74,1.25-2.77,1.22-3.09-2.76.75.22,3.37-1.8,1.61,1.45C12,118.67,13.27,118.82,14,119Z"/><path class="cls-255" d="M102,73.09,97,71c-3.13-4.53-.89-9.57-1.29-14.35,0-.62.65-1.15,1.3-1.37,4.1-1.41,7.44.2,10.59,2.63,2.48,1.92,3.86,4.13,2.09,7.27a5.33,5.33,0,0,0-.4,1.43C108,70,106.34,73,102,73.09Z"/><path class="cls-256" d="M108,67c-1-2.32,3.58-4.44.06-7-2.85-2.09-5.42-4.39-9.3-4-1.48.16-2.76.46-2.67,2.21.22,4.26-1,8.64.92,12.78l-1.86-.1q0-9.93,0-19.85a4.4,4.4,0,0,1,1.31-.91c6-1.61,10.91,1.6,15.9,3.94,3.37,1.59,1.53,4.51.95,7C112.23,63.6,111.47,66.5,108,67Z"/><path class="cls-257" d="M108.09,77A6.65,6.65,0,0,1,104,78c0-2.84,3.15-3.68,3.88-6C109,66.86,112.2,63.22,116,60l1.9-1.1,1.38,1.2a2.37,2.37,0,0,1,.25,2,12.73,12.73,0,0,1-2,3.53c-1.83,2.6-4,4.9-5.83,7.54C110.52,74.47,109.91,76.31,108.09,77Z"/><path class="cls-258" d="M116,60Q112,66,107.91,71.92c-2.12-.39-3.33,3.75-5.88,1.17,3.45-.62,4.48-3.6,6-6.13a15.4,15.4,0,0,0,4.06-5.85c2.68-1.86,1.09-6.32,4.66-7.65A1.74,1.74,0,0,1,118,54Z"/><path class="cls-259" d="M104,78.07c.66,1.33,1.33,2.65,2,4a2.55,2.55,0,0,1-2.56.62,4.83,4.83,0,0,1-1.24-.63c-1.09-1.13-2.72-2-2.17-4C101.3,78,102.61,78.94,104,78.07Z"/><path class="cls-260" d="M100,78l3,4c-4,1.61-5-1.11-6-4l2.06,0C99.37,78,99.67,78,100,78Z"/><path class="cls-261" d="M131.05,35.07c-.24,1.89-1.54,3-3,4.06-.29-4.15-3.5-5.59-6.64-7s-6.4-2.74-10-2.87c-3.15,0-5.8-1.71-8.76-2.37-2.39-1.12-5.37.16-7.52-1.87l0-2.11c5.3-2.7,10.31.64,15.48.78,1.75.05,3.43,1.48,5.26.3,6.07,0,10.55,4,15.6,6.46C134.07,31.68,130.27,33.38,131.05,35.07Z"/><path class="cls-262" d="M118,54l-1,0c-4.16-2.24-8-4.88-12.67-6.42-4.41-1.45-6.81-.8-8.32,3.44l-.82,0V40c5.24-3,10,.67,14.87,1.32,3.09.41,5.93,2.17,8.52,4,1.59,1.15,2.84,2.45,1.42,4.55Z"/><path class="cls-263" d="M127,41c-1.24,1.76-2,3.87-4,5.09-1.63-4.37-6-4.48-9.44-6-.46-.13-.9-.29-1.34-.46A16.92,16.92,0,0,0,106,38.2c-3.48-1.27-7.5.11-10.77-2.17,0-1.34,0-2.68,0-4a40.1,40.1,0,0,0,11.35-.95c7.55-.41,13.62,3.42,19.76,7A1.85,1.85,0,0,1,127,41Z"/><path class="cls-264" d="M127,41c-5.77-5.83-13-8.3-21-9l-.69,0a22.78,22.78,0,0,0-8.85-.57,2.4,2.4,0,0,1-1.3-.35V27a23.34,23.34,0,0,1,11.45.9c1.69.53,3.57,2.07,5.38.08,5.94.54,10.91,3.64,16.09,6.16,3.32,1.62-1,3.32,0,5A2.06,2.06,0,0,1,127,41Z"/><path class="cls-265" d="M113,39c3.27,0,5.84,2.08,8.83,2.95,2.45.71,1.21,2.62,1.19,4.11-.85,1.42-1.19,3.24-3,3.87-.35-4.49-4.41-4.77-7.29-6.06A43.74,43.74,0,0,0,95.19,40c0-.67,0-1.35,0-2,4-2.24,8,.15,12,.33C109.1,38.4,111,39.11,113,39Z"/><path class="cls-266" d="M116,24c-4.34,2.28-8.59-.52-12.93-.4-2.48.06-5.19-.51-7.82-.68L95.11,21c3.22-2.23,6.35-.05,9.45.37C108.42,21.93,112.18,23.11,116,24Z"/><path class="cls-267" d="M113,39c-4.22,2.65-8.26-.65-12.45-.45C98.9,38.62,97,38,95.2,38V36A39.12,39.12,0,0,1,107,37c1.83,1.18,4,1.25,6,2Z"/><path class="cls-268" d="M112,28c.28,1,.66,2.43-.92,1.9-5.19-1.74-10.74-1.26-15.91-2.88a1.76,1.76,0,0,1,0-1A13.07,13.07,0,0,1,103,26C106.22,25.75,108.71,28.69,112,28Z"/><path class="cls-269" d="M95.18,31,96,31a13.35,13.35,0,0,1,10,1h0c-3.61,1.19-7.22,2.72-10.84,0A1.61,1.61,0,0,1,95.18,31Z"/><path class="cls-264" d="M103,26l-7.83,0c0-.33,0-.66,0-1C97.8,25.38,100.61,24,103,26Z"/><path class="cls-270" d="M89,25c-8.4,2.23-17.13,3.13-25.2,6.8C60.63,33.24,58.13,35.61,55,37a3.35,3.35,0,0,1-2-2c9.5-7.25,20.63-10.1,32.14-11.91C86.71,22.83,88.68,22.49,89,25Z"/><path class="cls-210" d="M55.05,38c5.44-.6,9.3-4.78,14.41-6.28,6.21-1.81,12.21-4.49,19.07-2.61C77.78,31.77,66.83,33.78,58,41A6.59,6.59,0,0,1,55.05,38Z"/><path class="cls-271" d="M57,48l1.13-1.15,9.82,13.22A2,2,0,0,0,67,62a2.12,2.12,0,0,1-2-1c-2.26-1.66-3.38-4.21-5-6.37C58.92,52.45,56.16,51,57,48Z"/><path class="cls-272" d="M80.08,72c-1-2.2-3.89-3.16-4.08-6-2.3-5.75-2.3-5.75,3.84-7.86,8.66-3,8.66-3,9.17,5.9C89.37,70.24,89.06,70.51,80.08,72Z"/><path class="cls-273" d="M85.2,90.1,86,89c1.13-4.09,4.37-4.42,7.81-4.37,3.1,0,5.58.93,6,4.51a3.58,3.58,0,0,1-.3,1.51c-1.22,1.66-2.88,1.12-4.5.89a16.22,16.22,0,0,0-3.94-.1c-3.43.36-3.66,3.36-3.82,5.54-.21,2.89,2.6,1.68,4,1.68,2.46,0,5.45,1.12,6.92-2.19a2.15,2.15,0,0,1,1.23-.79,1.57,1.57,0,0,1,1.2.91c.65,2.8,1.19,5.56-2.81,6.29a6.76,6.76,0,0,1-1.62-.17c-3.57-.75-7.18-.22-10.76-.39-2.3-.11-4.67,0-5.94-2.51a2.59,2.59,0,0,1,0-1.46c2-1.34,2.65-3.62,3.62-5.65C83.78,91.77,84.12,90.65,85.2,90.1Z"/><path class="cls-274" d="M99.05,89.94c-2.07-5.23-8.76-5.72-13-1,1-1.37-3.23-5.26,2.19-4.53.19,0,.67-.7.7-1.1.45-5.37,2.8-3.45,5.2-1.39a4.65,4.65,0,0,1,2.14.41c3,1.61,5.83,3.3,4.11,7.5A.88.88,0,0,1,99.05,89.94Z"/><path class="cls-275" d="M94.94,82.81,94.11,82c.38-1.75-1.36-5,2.89-4,2.14,1.12,2.9,4.32,6,4h0c1,1.08,4.93.58,2,3.75a6.5,6.5,0,0,1-3.63.23C99,85.38,98,82,94.94,82.81Z"/><path class="cls-259" d="M85.2,90.1,84,93c-1.42,1.6-2.21,3.71-4,5h0c-.77.65-1,1.75-1.94,2.27a4.55,4.55,0,0,1-3-.23q0-4.52,0-9c2.63,5.65,5.29,4.71,8,0a1.21,1.21,0,0,1,1.15-1Z"/><path class="cls-276" d="M76,87l0-1.74a5.79,5.79,0,0,0,1.76-.79C81.88,80.56,82.14,80.61,84,86a4.11,4.11,0,0,1-1.84,1c-1.39.25-2.76.63-4.18.76A2.78,2.78,0,0,1,76,87Z"/><path class="cls-277" d="M82,86l2,0c0,1.33.11,2.66.16,4L83,91c-1.72-.21-3.61.61-5.12-.86.13-.18.25-.37.38-.56C79.93,88.86,81.41,87.91,82,86Z"/><path class="cls-278" d="M61,54c1.26,2.38,3.56,4.16,4,7-5.18,4-9.81,8.37-12.09,14.7A2,2,0,0,1,51,77a6.49,6.49,0,0,1-4-1c-5.43-3.5-5.43-3.5-2-9.75,2.41-4.39,5.93-7.9,9.17-11.63C56.23,52.25,58.5,51.67,61,54Z"/><path class="cls-279" d="M44,109c-.72-1.19-1.92-1-3-1-.32-.24-.42-.46-.29-.67s.23-.3.35-.3l2-.07,13-4L62,101c1.3.65,3.09-.55,4.12,1.1Z"/><path class="cls-280" d="M66.14,102.08c-1.39-.28-3,.41-4.12-1.1,2.19-1.14,4.36-2.34,7-2l3.21-.66c.22,1.79-1.86,1.49-2.2,2.64Z"/><path class="cls-204" d="M41.06,107,41,108l-5,1A5.72,5.72,0,0,1,41.06,107Z"/><path class="cls-281" d="M54,109c5.93-2.22,11.62-5.14,18-6a9.67,9.67,0,0,0,1.41,2.6c3.48,3.31,3.37,6.45,0,9.74A9.36,9.36,0,0,0,72,118c.6,2.17-1.34,3.06-2.24,4.48-.84,1.05-1.52,2.22-2.35,3.27-1.47,1.24-1.91,4-4.78,3.15-1.78-3.13-5-4.78-7.39-7.33-1-1.09-2.26-2-3.18-3.15C48.24,113.43,48.55,111.91,54,109Z"/><path class="cls-282" d="M61.07,140l-1.17-1.11c-.51-1.74.57-3,1.21-4.48,2-2.66,4.08-5.17,5.92-7.91a15.54,15.54,0,0,0,2.35-3c1.06-1.33,1.66-3.15,3.68-3.45L75,118a2.9,2.9,0,0,1,1.42,2.29c-1.51,4.65-5.59,7.62-7.73,11.85-1.74,2.37-3.17,5-5.1,7.19C62.86,139.9,62.1,140.44,61.07,140Z"/><path class="cls-283" d="M75.05,100a2.69,2.69,0,0,1,3,0c2.2-.21,3.29,2,5.24,2.37.9.67,1.76,1.39,2.61,2.14,1,1.3,1.85,2.67,1.11,4.43a7.35,7.35,0,0,1-4.94,0C80.43,105.38,75.33,104.59,75.05,100Z"/><path class="cls-284" d="M76,120a2.05,2.05,0,0,1-1-2c2.39-2.88,3.45-6.8,6.92-8.83,1.31,1.58-.33,3.22.1,4.82C80.49,116.44,79,119,76,120Z"/><path class="cls-285" d="M73.06,120l-3,4A2.23,2.23,0,0,1,69,122l3-4A2.19,2.19,0,0,1,73.06,120Z"/><path class="cls-286" d="M61,54c-2.35-.91-4.29-.75-6,1.48C51.45,60,47.26,64,44.73,69.29c-1.2,2.53-2.88,4.34,1.4,5.07.38.07.6,1,.89,1.61-3.52-1.73-7.84-1.24-11-4-2.43-1.18-3-2.52-1.49-5.21C39.46,58.13,45.23,50.24,53.05,44c1.43,1.23,2,3.28,3.94,4Z"/><path class="cls-277" d="M76,87h2a5.2,5.2,0,0,1,.07,2.9l-.22.25C76,89.82,75.91,88.48,76,87Z"/><path class="cls-287" d="M156.05,70.16c-2.58.87-5.11,2-7.9,2.06-.59-.75-.18-1.3.35-1.83,3.64-1.56,3.79-3.85,1.85-7-3.86-6.37-7.85-12.57-14.06-17a9.88,9.88,0,0,1-3.49-3.43A4.68,4.68,0,0,1,134.86,40c3.48-1.57,5.23.89,7.12,3-.22.27-.46.71-.29.88C147.64,50,152,57.21,157,64a3.62,3.62,0,0,1,1,5.11Z"/><path class="cls-288" d="M157,64c-1.83.9-2.28-.78-2.81-1.73A69.43,69.43,0,0,0,141.56,46c-1.08-1-2.51-2.36.42-3A57.79,57.79,0,0,1,157,64Z"/><path class="cls-289" d="M149,70.94l-.81,1.28A4.87,4.87,0,0,1,148,73a8.74,8.74,0,0,1-7.42,2.56,1.54,1.54,0,0,1-.94-1c-.06-1.23.82-2.17,1-3.33-.25-8.08-6.56-12.25-11.3-17.4-1-1-2.15.3-3.23.52a1.62,1.62,0,0,1-1.28-.42c1-2.79,3.08-4.86,5-7a2.49,2.49,0,0,1,3.2.23c6.65,5.76,12.8,11.93,15.88,20.46A3.72,3.72,0,0,1,149,70.94Z"/><path class="cls-290" d="M149,70.94c-2.77-9.37-9.21-16.12-16.08-22.58a4.66,4.66,0,0,0-3-1.44,10.53,10.53,0,0,1,3-4c10.25,5.08,16,14.15,20.44,24C154.42,69.53,151.06,70.25,149,70.94Z"/><path class="cls-291" d="M142,72a3.35,3.35,0,0,1-2,2c-3.68-4.67-6.68-9.9-11.14-13.93-1.14-1-1.92-2.94-4.06-2.12a2.86,2.86,0,0,1-2.5.42l-.44-.49a7,7,0,0,1,3-3.93L126,54a2.73,2.73,0,0,1,4,.27C134.59,59.78,140.38,64.49,142,72Z"/><path class="cls-291" d="M118.9,62c.14-.61.28-1.23.41-1.84l2.55-2.27.34.33C122.76,60.89,121.72,62.2,118.9,62Z"/><path class="cls-292" d="M90.92,117l.12,3c2.25,4.87,0,10.14,1.36,15.09,0,3,.54,6-.32,8.93,0,1,0,1.91,0,2.86,0,1.39-.07,2.77-.11,4.16-2.1,4.66-.36,9.58-1,14.34-.24,1.82.93,3.95-1.1,5.41,0-3.94.05-7.89.07-11.83-2.53-7.51-1.15-15.25-1.4-22.89-.15-4.78-.23-9.57,0-14.34C88.63,119.94,88.2,117.62,90.92,117Z"/><path class="cls-293" d="M90,136l0,23L89,158c-1.42-1.47-1.36-3.36-1.28-5.17.16-3.92-1.64-4.91-5.46-5.14-5.84-.36-11.83-1.06-16.81-4.75C64.2,142,62.54,141.08,63,139c1.42-2.5,2.52-5.23,5-7,.77-1.24,1.91-2.09,3.32-1.61,5.33,1.84,11,2.12,16.36,3.79A6.23,6.23,0,0,1,90,136Z"/><path class="cls-294" d="M63,139c3,2.48,5.14,5.57,10.14,5.54,3.88,0,7.69,2.66,12.2,1.88C87.7,146,89.43,148,89.07,151a57.86,57.86,0,0,0-.06,7c-10.86-1.12-21.17-3.85-30.15-10.44A6,6,0,0,0,57,147c.39-2.89,3.37-4.27,4.07-7Z"/><path class="cls-236" d="M25,118a8.1,8.1,0,0,1,5-1c2.06.7,2.25,2.73,3,4.32,3.14,6.8,6.86,13.21,12.17,18.57,1,1.07,1.78,3.27,4.21,1,1.55-1.42,2.9.43,3.61,2.07l-6,9c0-1.9-1.38-3-2.6-4.05C35.14,139.78,29,129.58,25,118Z"/><path class="cls-295" d="M35,115c1.92-.89,3.69-2.26,6-2a54.46,54.46,0,0,0,7.17,14.67c.73,1,1.75,4.09,3.71.7.53-.92,1.77-.47,2.12.15,1.45,2.52,4.48,4,4.63,7.36A4.55,4.55,0,0,1,57,139l-2.93,2c-1.41,1.15-2.61.11-3.53-.63-7.66-6.05-13.28-13.56-16-23.05A2.46,2.46,0,0,1,35,115Z"/><path class="cls-296" d="M35,115c2.23,10.19,8.83,17.61,15.84,24.73.73.74,2.1.85,3.18,1.26-.36.66-.71,1.32-1.06,2-2-1.19-5-4.66-3.14,2.7C39.63,137.54,34.15,127.73,30,117c0-.33,0-.65,0-1A8.59,8.59,0,0,0,35,115Z"/><path class="cls-297" d="M57,139c.11-1.09-.11-2.29,1-3,.85-1.13.51-3.29,2.76-3.22,1.06.38.73,1.5,1.18,2.22l-2.05,4L58.06,140Z"/><path class="cls-239" d="M92.08,144,92,134.88a63.71,63.71,0,0,1-.16-14.8l.27-.11c.82-.16,1.23.09,1,1,0,6,0,11.92,0,17.87C93,140.6,93.53,142.51,92.08,144Z"/><path class="cls-298" d="M93,121l-1-1c0-1.31-.13-2.62-.1-3.93,0-.91-.34-2.26.85-2.53,1.8-.41,2,1.24,2.37,2.44l-.27,4Z"/><path class="cls-299" d="M117,120c1.58-4.13,5.4-7,6.59-11.37.27-1,1.69-.53,2.41.37a35.51,35.51,0,0,1-6.79,10.65C118.44,120.41,118,121.15,117,120Z"/><path class="cls-300" d="M90,136c-6-2-12.49-1.61-18.29-4.27A3.85,3.85,0,0,0,68,132c1.43-4.83,5.67-7.79,8-12,2-2,3.12-4.91,6-6,3.08.7,6.49.45,8.9,3.08C88.9,123.27,90.54,129.68,90,136Z"/><path class="cls-252" d="M140,75l8-2v2A27.87,27.87,0,0,1,140.08,78c-1.34,1.77-3.45,2.12-5.32,2.93-3.51,1.3-7.16,2.11-10.68,3.37-1.7.61-3.44,1.14-5-.33-8.81,1.87-7.93.3-10.86-6.39,1.62,0,2.48,1.09,3.38,2.16,1.65,3.14,4.09,2.47,6.62,1.37a60.44,60.44,0,0,0,9.62-3.83,7.93,7.93,0,0,1,1.37-.38,19.51,19.51,0,0,0,8.77-2.5A2.27,2.27,0,0,1,140,75Z"/><path class="cls-301" d="M119.06,84c5.59-.24,10.39-3.61,15.94-4,.77-.55,1.67-.67,2,.31s-.68,1.73-1.39,2.4c-2.18,1.85-4.92,2.35-7.53,3.16-4,1.06-7.77,2.8-11.83,3.66a1.86,1.86,0,0,1-1.31-.54l-1.9.13c-2.84-.8-1.65-1.75,0-2.52C115,85.62,117.51,86,119.06,84Z"/><path class="cls-302" d="M87,108.9,85,105c-.28-2.83,2-2.91,3.78-3.46,2.74.19,5.54-.52,8.25.45h0a1.54,1.54,0,0,1,.54,1,2.71,2.71,0,0,0,0,2.91,1.46,1.46,0,0,1-.53,1C93.45,106.34,90.62,109.66,87,108.9Z"/><path class="cls-198" d="M97,107l0-1a20.12,20.12,0,0,1,3-2.66c1.65-.82,1.71-2.7,2.66-4C104.38,97.15,106.18,95,109,98c-.75,2.12-1.37,4.29-2.28,6.33C105,108.18,100.8,109.26,97,107Z"/><path class="cls-260" d="M94.94,82.81c3.21-2.59,4.11,1.32,6.1,2.17,1.4.64,1.31,2.46,2.33,3.35,1.72-.74.47-2.57,1.64-3.34,1.1-2.18-1.85-1.66-2-3l2.94.06c1.15,2.86,4.78,5.15,2,8.9-1.65,2.14-3.67,3.07-6.32,1.87-1.09-.61-2.16-1.25-1.68-2.81C100.71,85.92,98,84.28,94.94,82.81Z"/><path class="cls-303" d="M102,92c2.26,1.12,4-.66,6-1.07-.12,2.42,1.5,4.6,1,7.07-3.14-1.09-5.21.1-5.78,3.24-.37,2-1.16,2.93-3.18,2.73-1,.2-1.24-.28-1.11-1.14C101.7,99.75,103,96.2,102,92Z"/><path class="cls-304" d="M91.8,120.08q.08,7.4.16,14.8C89.83,130,91.51,125,91,120A3.94,3.94,0,0,1,91.8,120.08Z"/><path class="cls-305" d="M110.82,80.16l-2.62-2.54a.49.49,0,0,0-.11-.61A8.17,8.17,0,0,1,111,72.86a2,2,0,0,1,.65,1.11c-.12,1.73,0,3.46,0,5.19A1.63,1.63,0,0,1,110.82,80.16Z"/><path class="cls-306" d="M135,81.94c-.54-.66,3.39-1.32,0-2A9.59,9.59,0,0,1,140.08,78c1.07,1.51,2.74.68,4.1,1a2.09,2.09,0,0,0-.41.78c-.69,1.17-1.92,1.52-3.06,2C138.82,82.38,136.92,83.65,135,81.94Z"/><path class="cls-307" d="M140.86,80.89a4.19,4.19,0,0,1,2.91-1c3.94-.4,5.37,1,5.4,5.3,0,5.58,1.3,11.11-.14,16.73-.74,2.85-1.09,5.71-5.11,5.12l-2-1A55.68,55.68,0,0,1,143,96.89C144.48,91.28,144.1,85.88,140.86,80.89Z"/><path class="cls-308" d="M140.86,80.89c1,.41,1.36,2,2.89,1.33.82-.35,2.15.56,1.94.73-3.55,2.89,1.35,5.65.63,6.82-2.74,4.43-1.8,9.26-2.76,13.83a8.54,8.54,0,0,1-1.6,2.47,23.41,23.41,0,0,1-10.07-3c.23-.65.61-1.46,1.18-1.52,5.66-.65,4.69-4.76,4.34-8.38-.19-2-.6-3.94-.83-5.92-.16-1.43-.86-2.1-2.33-1.83-2.17.49-4.37,1.49-6.35-.45l7.1-3Z"/><path class="cls-309" d="M114.91,89a2.93,2.93,0,0,1,1,0c2.23-.54,4.43-1.2,6.64-1.8C127,86,128,86.5,129.24,91a13.88,13.88,0,0,1-1,10.1,2.35,2.35,0,0,1-2.49,0c-.32-.06-.65-.1-1-.18C115.36,98.49,115.36,98.49,114.91,89Z"/><path class="cls-310" d="M125.78,101.09,128,101c1-1,.81-2.45,1.23-3.67.87-2.49,1.94-.74,3.17.3-.23-5-2-10,2.61-13.61,1.94-1.62,2.46.43,2.53,1.36.32,4.08,2.36,8.18,1.11,12.1-.48,1.49,2,8.49-4.66,4.6-.38-.22-1.38.63-2.1,1C129.78,102.61,127.52,102.67,125.78,101.09Z"/><path class="cls-311" d="M61,133l-3,3c-.36-3.37-5.43-3.37-4.08-8-2.93,1.81-.43,3.43-1.55,4.55C46.73,129.77,40,118.2,41,113l13-4c-4.13,4.06-4.12,6.3.55,10.19,2.38,2,4,4.84,7.15,5.94,1.91.67,1.09,2.49,1.31,3.86C63.56,130.93,62.38,132,61,133Z"/><path class="cls-312" d="M96,51c.16-6.37,1.27-6.95,7.44-4.85,5.08,1.73,10.48,2.71,13.55,7.83-2.6,1.72-1.84,5.77-4.94,7.15,2.32-4.57.32-6.36-4.12-7.83C104,52,100.23,50.52,96,51Z"/><path class="cls-313" d="M111.05,74,111,72.86a32.47,32.47,0,0,1,5.88-7.94,2,2,0,0,1,2.34-.22c4.51,3.45,8.26,7.45,8.92,13.47-2.87,2.57-6.51,3.12-10.1,3.81a1.78,1.78,0,0,1-1.92.3C116.63,78.17,112.7,76.79,111.05,74Z"/><path class="cls-314" d="M128.1,78.17c-3.32-4.78-5-11-11.26-13.25.69-1,1.38-2,2.06-3a5.16,5.16,0,0,0,3.3-3.78L124,57c4.69,2.18,7.06,6.42,6.83,11.71-.11,2.67,3.47,4.2,2.53,7.25-1.07,1.5-3.05,1-4.36,2A7.06,7.06,0,0,1,128.1,78.17Z"/><path class="cls-265" d="M113,39c-2.25.09-4.42-.06-6-2A9.37,9.37,0,0,1,113,39Z"/><path class="cls-263" d="M106,32c-3.32-.5-6.6-1.37-10-1C99.55,29.25,102.92,29.28,106,32Z"/><path class="cls-315" d="M99,96c.37,3-.76,4.42-3.88,4-.82-.1-1.67.07-2.49,0-2.57-.34-6.2,1.32-7.42-1-.92-1.75,1.1-5,2.12-7.18,1.22-2.57,4.94-2,7.77-1.61,1.29.18,2.57.56,3.85.85,3.37,2.59,3.48,3.07,1.07,5l-1,0c-2.85-3.39-5-1.43-7.35.73C94.67,99.39,96.61,95.93,99,96Z"/><path class="cls-87" d="M100,96c2.37-2.25-.47-3.38-1.07-5l.09-1.09L100,90l2,2c.49,1.16,1.56,1.64,2.52,2.3.48.33.72,1,1.06,1.56-4.55.18-2.17,6.76-6.55,7.1a1.27,1.27,0,0,1-2-.07l0-.93C101.83,101.91,99.41,98.19,100,96Z"/><path class="cls-316" d="M97,102,88,102c-1.7.19-3.07,2.13-5,1l-4.94-3A1.79,1.79,0,0,1,80,98c.25,3,2.41,2.88,4.62,3.07C88.74,101.39,93,99.9,97,102Z"/><path class="cls-316" d="M80,98c1-2,1.81-4,4-5C82.8,94.74,83.65,98.15,80,98Z"/><path class="cls-317" d="M105,85c-.54,1.63,2.44,2.66.85,4.35a3.29,3.29,0,0,1-3.72.43c-2.29-1,.26-3.39-1.1-4.79Z"/><path class="cls-318" d="M78.09,89.89A2.33,2.33,0,0,1,78,87a6.16,6.16,0,0,1,4-1C83.92,90.57,80.66,89.88,78.09,89.89Z"/><path class="cls-319" d="M61,133c-.2-1.77,1.53-2.55,2-4,2-.67,1.88-3.43,4-4,1.66-.1,1.74.64,1,1.82l-6,8.11C61.14,134.5,61.07,133.72,61,133Z"/><path class="cls-320" d="M68,126.81A1.79,1.79,0,0,0,67,125l2-3c.89.43,1,1.25,1.07,2.1C69.4,125,69.22,126.32,68,126.81Z"/><path class="cls-199" d="M83,103l5-1c-.83,1.18-2.58,1.39-3,2.94Z"/><path class="cls-160" d="M133,76c.09-1.73-1.74-2.53-2-3.81-.34-1.49-3.8-3.27,0-4.91,1-.44.35-1.37-.2-2Q127.36,61.13,124,57c.57-1.1,1.23-2.23,2.55-.91C131.89,61.41,137.73,66.36,140,74v1l-1.64.15C136.59,75.53,135.05,77.44,133,76Z"/><path class="cls-160" d="M142,72c-3-6.2-8-11-12-16.48A4.16,4.16,0,0,0,126,54c1.2-2.38,2.59-3.41,4.69-.8C135.35,58.93,142.25,63.31,142,72Z"/><path class="cls-291" d="M133,76l5.38-.87c-2.63,2.54-5.86,3.13-9.35,2.85A5.6,5.6,0,0,1,133,76Z"/><path class="cls-305" d="M116,82l2,0c-3.21,2.61-5.67,2.28-7.18-1.82l.35-.32C113.48,78.94,114.61,80.76,116,82Z"/><path class="cls-321" d="M135,84c-3.71,5.34,0,11.85-2.69,17.78-2-1.33-.89-3.26-1.66-5-1,1.49-.72,3.65-2.66,4.18-.58-3.4,1.28-6.76-.11-10.26-1-2.64-1.82-4.31-5.22-2.94-2,.82-4.38,1.65-6.78,1.16,3.78-2,7.93-2.9,12-4C130.37,85.41,132.67,84.54,135,84Z"/><path class="cls-322" d="M97,102.91l2,.07,1,1c-.08,2-1.49,2-2.94,2A2.52,2.52,0,0,1,97,102.91Z"/><path class="cls-323" d="M116,82c-2.2.64-3.08-1.73-4.84-2.12-.65-1.93-1.76-3.85-.11-5.82C115.86,76.13,117.61,78.94,116,82Z"/><path class="cls-324" d="M99,96c-1.68,4.17-5.25,3-8.38,2.88a1.41,1.41,0,0,1-1.08-.78c-.33-1.34.76-2.25,1.52-2.9,1.84-1.6,4.08-3,6.55-2.65,1.5.18,2.41,1.69,1.39,3.45Z"/><path class="cls-291" d="M135.22,73.59c-1.54-.53-1.43-1.8-1.38-3,0-.07.64-.27.79-.15C135.74,71.25,136.5,72.19,135.22,73.59Z"/></g></g></svg>