<svg xmlns="http://www.w3.org/2000/svg" viewBox="0 0 189.26 188.9"><defs><style>.cls-1{fill:#fefefe;}.cls-2{fill:#fdfdfd;}.cls-3{fill:#614928;}.cls-4{fill:#5d4626;}.cls-5{fill:#6e532d;}.cls-6{fill:#604728;}.cls-7{fill:#56411f;}.cls-8{fill:#4b371d;}.cls-9{fill:#48361e;}.cls-10{fill:#cdbc95;}.cls-11{fill:#74582e;}.cls-12{fill:#463828;}.cls-13{fill:#44351e;}.cls-14{fill:#645029;}.cls-15{fill:#624926;}.cls-16{fill:#4d3d23;}.cls-17{fill:#5a4224;}.cls-18{fill:#66512c;}.cls-19{fill:#3d3124;}.cls-20{fill:#e9e1c6;}.cls-21{fill:#755e32;}.cls-22{fill:#e6debf;}.cls-23{fill:#ded2b2;}.cls-24{fill:#e9e1c2;}.cls-25{fill:#d7bf96;}.cls-26{fill:#e4d9bb;}.cls-27{fill:#e8debf;}.cls-28{fill:#c7a878;}.cls-29{fill:#97784b;}.cls-30{fill:#c0b682;}.cls-31{fill:#c1ba91;}.cls-32{fill:#9e7f50;}.cls-33{fill:#5c4525;}.cls-34{fill:#705327;}.cls-35{fill:#564020;}.cls-36{fill:#403325;}.cls-37{fill:#9b7947;}.cls-38{fill:#86653a;}.cls-39{fill:#89683c;}.cls-40{fill:#997847;}.cls-41{fill:#c9b186;}.cls-42{fill:#6d5e2b;}.cls-43{fill:#b49767;}.cls-44{fill:#e3dcb7;}.cls-45{fill:#c1a373;}.cls-46{fill:#d7d0aa;}.cls-47{fill:#9d7d4d;}.cls-48{fill:#392c1e;}.cls-49{fill:#70532f;}.cls-50{fill:#937042;}.cls-51{fill:#815e36;}.cls-52{fill:#d6cba0;}.cls-53{fill:#7e6235;}.cls-54{fill:#68562a;}.cls-55{fill:#443521;}.cls-56{fill:#997746;}.cls-57{fill:#d1bb91;}.cls-58{fill:#6f5b30;}.cls-59{fill:#ece3ca;}.cls-60{fill:#4f4d46;}.cls-61{fill:#3f3d36;}.cls-62{fill:#494741;}.cls-63{fill:#44413c;}.cls-64{fill:#705432;}.cls-65{fill:#886d42;}.cls-66{fill:#4c3b25;}.cls-67{fill:#8c693e;}.cls-68{fill:#785c34;}.cls-69{fill:#a4824f;}.cls-70{fill:#d1bd94;}.cls-71{fill:#b39864;}.cls-72{fill:#6d5c36;}.cls-73{fill:#8b693d;}.cls-74{fill:#a17f4e;}.cls-75{fill:#5c4826;}.cls-76{fill:#7a5c35;}.cls-77{fill:#826138;}.cls-78{fill:#745632;}.cls-79{fill:#d0c09a;}.cls-80{fill:#795a35;}.cls-81{fill:#9e7c49;}.cls-82{fill:#957542;}.cls-83{fill:#d7c6a0;}.cls-84{fill:#d5cc9f;}.cls-85{fill:#cfb68a;}.cls-86{fill:#c5bc94;}.cls-87{fill:#e2d8bd;}.cls-88{fill:#85643a;}.cls-89{fill:#6c5a34;}.cls-90{fill:#9d7f4c;}.cls-91{fill:#c8af86;}.cls-92{fill:#89683e;}.cls-93{fill:#d3cba6;}.cls-94{fill:#e4dabb;}.cls-95{fill:#40311e;}.cls-96{fill:#67522b;}.cls-97{fill:#947142;}.cls-98{fill:#dfd4b5;}.cls-99{fill:#997645;}.cls-100{fill:#825f37;}.cls-101{fill:#785933;}.cls-102{fill:#765633;}.cls-103{fill:#d4caa6;}.cls-104{fill:#cbc49e;}.cls-105{fill:#3b3831;}.cls-106{fill:#332e28;}.cls-107{fill:#7a5935;}.cls-108{fill:#c8bf94;}.cls-109{fill:#ab8955;}.cls-110{fill:#332d27;}.cls-111{fill:#6f512f;}.cls-112{fill:#977443;}.cls-113{fill:#745431;}.cls-114{fill:#c2b57f;}.cls-115{fill:#d5cfa8;}.cls-116{fill:#d3cca7;}.cls-117{fill:#393630;}.cls-118{fill:#342e28;}.cls-119{fill:#3b2e1d;}.cls-120{fill:#503e26;}.cls-121{fill:#8a7243;}.cls-122{fill:#705a33;}.cls-123{fill:#7f5e37;}.cls-124{fill:#65492b;}.cls-125{fill:#d0c9a5;}.cls-126{fill:#b5955f;}.cls-127{fill:#937547;}.cls-128{fill:#8b693c;}.cls-129{fill:#887843;}.cls-130{fill:#aca476;}.cls-131{fill:#413220;}.cls-132{fill:#5c5951;}.cls-133{fill:#55534b;}.cls-134{fill:#47443f;}.cls-135{fill:#4c4943;}.cls-136{fill:#504e47;}.cls-137{fill:#413e38;}.cls-138{fill:#5d4527;}.cls-139{fill:#856339;}.cls-140{fill:#55524b;}.cls-141{fill:#494640;}.cls-142{fill:#43413c;}.cls-143{fill:#7f613a;}.cls-144{fill:#39332c;}.cls-145{fill:#e7e0c3;}.cls-146{fill:#5a4326;}.cls-147{fill:#85643b;}.cls-148{fill:#674b2b;}.cls-149{fill:#d0c9a0;}.cls-150{fill:#957545;}.cls-151{fill:#b29463;}.cls-152{fill:#d2c9a5;}.cls-153{fill:#bcb186;}.cls-154{fill:#ece3cc;}.cls-155{fill:#4d3b26;}.cls-156{fill:#997745;}.cls-157{fill:#382b1a;}.cls-158{fill:#b9b083;}.cls-159{fill:#81643e;}.cls-160{fill:#987544;}.cls-161{fill:#e3ddc4;}.cls-162{fill:#5e5b53;}.cls-163{fill:#5e5a50;}.cls-164{fill:#57544d;}.cls-165{fill:#43413b;}.cls-166{fill:#9a7745;}.cls-167{fill:#3f372d;}.cls-168{fill:#88693f;}.cls-169{fill:#534028;}.cls-170{fill:#b2945c;}.cls-171{fill:#84643b;}.cls-172{fill:#ddcca9;}.cls-173{fill:#795e37;}.cls-174{fill:#524229;}.cls-175{fill:#413e37;}.cls-176{fill:#3c352d;}.cls-177{fill:#3f301e;}.cls-178{fill:#3e3b35;}.cls-179{fill:#745836;}.cls-180{fill:#524f48;}.cls-181{fill:#5d5a51;}.cls-182{fill:#58554c;}.cls-183{fill:#46443e;}.cls-184{fill:#42403a;}.cls-185{fill:#484640;}.cls-186{fill:#60492e;}.cls-187{fill:#47453f;}.cls-188{fill:#654d31;}.cls-189{fill:#785b38;}.cls-190{fill:#5f4e26;}.cls-191{fill:#39362f;}.cls-192{fill:#937244;}.cls-193{fill:#3e3c35;}.cls-194{fill:#c7bd90;}.cls-195{fill:#625029;}.cls-196{fill:#3d2f1c;}.cls-197{fill:#282423;}.cls-198{fill:#7f5f37;}.cls-199{fill:#403d37;}.cls-200{fill:#715533;}.cls-201{fill:#4a4841;}.cls-202{fill:#44423c;}.cls-203{fill:#463521;}.cls-204{fill:#82633c;}.cls-205{fill:#705534;}.cls-206{fill:#6d5232;}.cls-207{fill:#5a574f;}.cls-208{fill:#62492d;}.cls-209{fill:#755632;}.cls-210{fill:#5a584f;}.cls-211{fill:#bea263;}.cls-212{fill:#483723;}.cls-213{fill:#56534b;}.cls-214{fill:#7a5b36;}.cls-215{fill:#cab185;}.cls-216{fill:#5b5850;}.cls-217{fill:#745d3e;}.cls-218{fill:#594f3f;}.cls-219{fill:#5c594f;}.cls-220{fill:#57554d;}.cls-221{fill:#695032;}.cls-222{fill:#494742;}.cls-223{fill:#3c3a34;}.cls-224{fill:#4a3922;}.cls-225{fill:#8b673c;}.cls-226{fill:#6d502e;}.cls-227{fill:#d9ca9d;}.cls-228{fill:#705230;}.cls-229{fill:#ccb36d;}.cls-230{fill:#614b30;}.cls-231{fill:#a07e4a;}.cls-232{fill:#3a3630;}.cls-233{fill:#2a2725;}.cls-234{fill:#4d3c27;}.cls-235{fill:#83643c;}.cls-236{fill:#413321;}.cls-237{fill:#3a332b;}.cls-238{fill:#2b2112;}.cls-239{fill:#504e48;}.cls-240{fill:#4d4b47;}.cls-241{fill:#967444;}.cls-242{fill:#3f3d37;}.cls-243{fill:#644b2e;}.cls-244{fill:#44423d;}.cls-245{fill:#57442a;}.cls-246{fill:#947648;}.cls-247{fill:#755935;}.cls-248{fill:#514e46;}.cls-249{fill:#57544b;}.cls-250{fill:#5b594f;}.cls-251{fill:#735532;}.cls-252{fill:#9f7c4a;}.cls-253{fill:#8c7c65;}.cls-254{fill:#42331f;}.cls-255{fill:#58442c;}.cls-256{fill:#907245;}.cls-257{fill:#504d47;}.cls-258{fill:#57544c;}.cls-259{fill:#372a18;}.cls-260{fill:#2c1f12;}.cls-261{fill:#ede5c7;}.cls-262{fill:#ae9055;}</style></defs><g id="Layer_2" data-name="Layer 2"><g id="Layer_1_Image" data-name="Layer 1 Image"><path class="cls-1" d="M53.09,10.85c-.49-3.22,1.12-5,4.07-5.72C61.91,4,66.3,1.32,71.45,2a3.26,3.26,0,0,0,3.63-2h8c.48,1.21-.21,2-1,2.72a18.34,18.34,0,0,1-8,2.65c-5.5.69-10.48,3.14-15.78,4.48a5,5,0,0,0-4.1,1.34A1.06,1.06,0,0,1,53.09,10.85Z"/><path class="cls-2" d="M82.09,2.06l1-2.06h22c.48.88,3.33.32,1.57,2.57C103.28,4.18,99.5,2.65,96.09,4A12.32,12.32,0,0,1,91,4C88.19,2.67,84.71,4.36,82.09,2.06Z"/><path class="cls-1" d="M107.07,2.08l-2-2.08h8c0,1.27,0,2.54,0,3.82-.13.17-.26.35-.38.53a2.82,2.82,0,0,1-1.92.14C109.32,4,107.7,3.78,107.07,2.08Z"/><path class="cls-1" d="M181.19,123c5.42,2.42,1.24,6.37.33,8.24-5.62,11.66-12.07,23-22,31.66-7.29,6.43-14.83,12.56-24.22,16-4.76,1.73-9.12,4.64-14,6.06-3.89,1.15-8.22,2.94-12.32.07a.93.93,0,0,1-.31-.81c0-.29.09-.44.16-.44a4.76,4.76,0,0,1,1.1-.9,14.4,14.4,0,0,1,3.37-1.2c5.79-.51,10.81-3.88,16.58-4.46,1.93.8,2.81-.67,3.84-1.8a62.44,62.44,0,0,1,9.69-5.86,7,7,0,0,0,3.08-1.94,14.49,14.49,0,0,1,2.28-2.15,14.65,14.65,0,0,1,3.91-2.06,2.11,2.11,0,0,0,2-1.84c1.68-2.94,4.47-4.75,7-6.82,1.66-.38,2.8-1.15,2.46-3.11a4.49,4.49,0,0,1,.47-2,56.27,56.27,0,0,0,11.67-19.7C177.88,127.53,178.08,124.23,181.19,123Z"/><path class="cls-3" d="M82.09,2.06c3,.5,6.25-1.15,9.16.81A1.2,1.2,0,0,1,91,4.34C84.84,6.84,78.2,7.43,71.78,8.93c-4,2.48-9.06,2-12.94,4.77-2.93,2-6.37,3-9.35,4.87a44.31,44.31,0,0,1-5,2.33c-2,.61-3.77,1.44-4.55,3.56-2,3.46-5.88,5-8.23,8.1-2.43,2.68-5.48,4.75-7.59,7.74a9,9,0,0,1-1.77,2.78c-2.75-.35-1.4,2.35-2.42,3.29a10.31,10.31,0,0,1-1.36,2.31C15.21,52.5,14,57.39,11.94,61.89a9.09,9.09,0,0,1-2.41,3.25,2,2,0,0,1-1.3.15c-.9-.54-.44-1.65-1-2.34L6.94,63C6.17,61,8.25,59.73,8.37,57.92A30.36,30.36,0,0,0,10,54.18,70.51,70.51,0,0,1,22.13,34.77a15.06,15.06,0,0,0,2.14-2.57c1.71-2.32,3.34-4.72,6-6.16a35.67,35.67,0,0,0,4.37-4c4.77-4,9.54-8,15.46-10.23,1.31.59,2-.65,3-1h1c.67-1.22,1.93-1.44,3.1-1.81C65.16,5.57,73.79,4.38,82.09,2.06Z"/><path class="cls-1" d="M79.08,185c-3.51,1.61-7.38.75-10.49-.16-15.55-4.6-30.52-11-41.23-23.65-8.75-10.37-17.9-20.71-22.29-34.07-.88-2.68-.7-5.59-2.66-8.12-1.42-1.85.88-3.12,2.52-4a2.67,2.67,0,0,1,1,.93c1.21,2.29,1.38,4.91,2.29,7.3a28.62,28.62,0,0,0,1.88,4.33c.68,1.42,1.1,3,1.83,4.37,5,10.72,12.2,19.91,20.26,28.47.59.94.33,2.76,2.34,2.24a14.85,14.85,0,0,1,7,5.71c.69,2.58,2.8,2.8,4.95,2.95,3.12.74,5.62,2.71,8.38,4.17.61,1.48,1.61,2.26,3.3,1.81,5.58,1.22,10.77,3.79,16.47,4.54A31.27,31.27,0,0,1,78,182.92a4.25,4.25,0,0,1,1.18.78A1,1,0,0,1,79.08,185Z"/><path class="cls-1" d="M114.08,3.83c1.52-2.62,4.22-2.22,6.27-1.71,4.58,1.15,9.27,2,13.36,4.84s9.67,3.72,13.57,7.19c9,8,19.95,14.18,25.51,25.79,1.4,2.93.5,3.07-1.83,3.09-3.7-1.21-4.92-4.53-6.49-7.55-.37-1.53.15-3.8-2.72-3.25-2.41-1.94-5.29-3.41-6.37-6.62-.07-2.38-1.81-2.72-3.63-3a6.71,6.71,0,0,1-4.12-3.13c-.16-2-1.76-1.72-3.08-1.86a53,53,0,0,1-10.7-6.05A3.49,3.49,0,0,0,129.94,10C124.48,8.39,118.7,7.59,114.08,3.83Z"/><path class="cls-4" d="M165,35.08,171,43l1.28,2c3.3,1.81,3.53,5.71,5.68,8.31a18.87,18.87,0,0,1,1.13,2.51c.6,2.45,2.48,4.46,2.44,7.14-.39,1.2-.89,2.28-2.41,2.31a3.82,3.82,0,0,1-2-2c-1.73-3.76-2.75-7.84-5-11.38-3.27-4.62-5.16-10.18-9.51-14.07-2.12-2-4.83-3.4-6.39-6s-4.62-3.93-6.84-6c-1.77-1.69-3.1-3.82-5.21-5.17a172.2,172.2,0,0,0-19.58-9.48A12.39,12.39,0,0,0,118.21,9a7.94,7.94,0,0,1-1.35-.37c-1.87-1.32-4.69-.87-6-3.22.27-1.26,1.58-.73,2.25-1.3L113,3.82h1L131,9c1.14.4,2.39.6,3.07,1.79l11,6.15c1.08.57,2.55.57,2.91,2.12L152,22.05c1.49.76,3.46.92,3.88,3.05l6.54,6.82A4.94,4.94,0,0,1,165,35.08Z"/><path class="cls-5" d="M7.25,63l.85,2a6.47,6.47,0,0,1,1,6.57C4.7,84.24,6.68,97.28,6.76,110.22a4.86,4.86,0,0,1-1.7,3.86c-.72-1-1.43-2.06-2.14-3.1a3.68,3.68,0,0,1,.25-5c.73-.19,1.11-.49.38-1.16A3.17,3.17,0,0,1,2.07,101C2.59,94.81,1,88.5,3.22,82.42,3.83,80.32,2,78,3.91,76l1-5a4.71,4.71,0,0,1,1.6-5.88Z"/><path class="cls-1" d="M50.06,11.85c-3.27,3.48-7.66,5.4-11.39,8.24-1.21.92-2.32,2-3.48,3-1.9.65-3.79,1.3-4.14,3.69Q28,29.86,24.88,33a3.47,3.47,0,0,1-2.3.37L22.09,33c.39-5.8,5.89-7.65,9.07-11.17s7.67-6.08,11.65-8.94C45,11.31,47.33,9.93,50.06,11.85Z"/><path class="cls-1" d="M9.15,58.1C9.08,60,7.66,61.38,6.94,63c-.82-.21-2.09-.86-1.58-1.42,2.21-2.49.8-6,2.26-8.3,4.12-6.63,7.27-13.91,12.64-19.73.38-.41,1.21-.41,1.83-.6h0c.83.47,1.61.95,1.05,2.11A90.15,90.15,0,0,0,10.8,54.93C9.08,55.38,9.56,57,9.15,58.1Z"/><path class="cls-1" d="M180.91,63c-.63-2.44-2.85-4.27-2.72-7,.65-1.15-.41-1.45-1-2-2.5-2.53-3.13-6.1-5-9,4.66,0,6,3.37,7.94,6.82,2.76,4.89,3.55,10.2,4.78,15.44.46,2,.68,4.37-1.71,5.74-1.56-.71-1.93-2.16-2.27-3.63-.18-1.19-.4-2.38-.58-3.57A8.94,8.94,0,0,1,180.91,63Z"/><path class="cls-1" d="M185,77c2.86,3.21,4,6.89,4.21,11.25.54,10.13-1.48,19.83-3.85,29.54-.49,2-.94,3.51-3.4,3.1-1.4-1.64-.7-3.41-.31-5.17a26,26,0,0,1,.65-3c.77-2.5,1.19-5.1,2.3-7.49,1.77-8,2-16.09-.22-24.11C183.94,79.66,183.81,78.24,185,77Z"/><path class="cls-6" d="M185.19,106c-.87,2.33-.55,5-2.07,7.14a3.64,3.64,0,0,1-1.77-2.64c0-3.23.62-6.45.35-9.7,0-1.67,0-3.34-.09-5,.06-6,.27-12-.22-18a4.9,4.9,0,0,1,1.74-3.85c1.66.45.18,2.71,1.83,3.17l.23,4A49.73,49.73,0,0,1,185.19,106Z"/><path class="cls-1" d="M108.08,185.06c-.14,3-2.82,3.38-4.69,3.52-5.46.4-11,.27-16.44.32-1.21,0-1.69-.85-1.87-1.93,1.08-1.25,2.58-1.32,4-1.34C95.45,185.53,101.78,185.75,108.08,185.06Z"/><path class="cls-2" d="M108.08,185.06c-5.55,3.31-11.66,1.45-17.53,1.89-1.81.13-3.64,0-5.47,0l-1-1c1.82-1.85,4.44-1.14,6.55-2.09,4.92-.82,10,.28,14.89-1a3.24,3.24,0,0,1,3.56,1.26c0,.27,0,.55,0,.82A5.52,5.52,0,0,0,108.08,185.06Z"/><path class="cls-7" d="M182.89,115.9c-.93,1.56-.81,3.31-1,5-1.09.39-.88,1.24-.73,2.07l-4.08,7.09a1.83,1.83,0,0,1-1.39-1.32,5.73,5.73,0,0,1,.69-2.56,38.87,38.87,0,0,0,1.71-7.06,9.28,9.28,0,0,1,1.07-2.46c.75-1.06,1-2.56,2.53-2.94C182.85,114.06,182.35,115.26,182.89,115.9Z"/><path class="cls-1" d="M6.5,65.13Q5.69,68.07,4.9,71c-1.75.81-1.93-.24-1.79-1.55C3.35,67.33,3.53,65.13,6.5,65.13Z"/><path class="cls-1" d="M3.17,106c-.09,1.66-.17,3.31-.25,5-1.46-.16-2.63-.77-2.67-2.37C.2,106.73,1.49,106.09,3.17,106Z"/><path class="cls-1" d="M2.93,81c-3.58-1.11-3.9-2.77-.84-5C3.2,77.51,4.4,79,2.93,81Z"/><path class="cls-8" d="M183.13,73.85c-.12,1.11.15,2.35-1,3.11a8.15,8.15,0,0,1-1.85-6.6c.29-.78.68-1.42,1.66-1.34l1.35,4A1.28,1.28,0,0,0,183.13,73.85Z"/><path class="cls-2" d="M2.93,81c.57-1.8-.78-3.29-.84-5H3.91a14.34,14.34,0,0,1-.69,6.43C3.12,81.94,3,81.46,2.93,81Z"/><path class="cls-1" d="M90.08,185.11c-1.82,1.57-4,.57-6,.86h-1c-.23-1.12.53-1.53,1.34-1.91C86.45,183.62,88.47,183.29,90.08,185.11Z"/><path class="cls-1" d="M2.07,101c.49,1.29,1,2.57,1.48,3.86C1.92,104-1.33,103.77,2.07,101Z"/><path class="cls-2" d="M84.12,184.91l-1,1.06a6.76,6.76,0,0,0-4-1v-.85C81,182.61,82.84,182.09,84.12,184.91Z"/><path class="cls-9" d="M5.06,114.08c.21-1-.23-2.24.93-3,1.31,1.84,2.2,3.62-.76,4.78a7.45,7.45,0,0,0-.3-.91A1.46,1.46,0,0,0,5.06,114.08Z"/><path class="cls-2" d="M57.19,9.05a4.58,4.58,0,0,1-3.1,1.81C54.26,8.78,55.17,8,57.19,9.05Z"/><path class="cls-10" d="M91.06,4c.06-.38.12-.76.19-1.13h4.52c2.22.53,4.79-.66,6.72,1.34.75,1.8,2.28,3.32,2,5.5a2,2,0,0,1-1,.91c-2.27.61-3.08-1.36-4.37-2.48a4.62,4.62,0,0,0-3-.59c-1.83-.3-3.79-.11-5.3-1.5A1.77,1.77,0,0,1,91.06,4Z"/><path class="cls-11" d="M102.11,4.78c-1.74-1.86-4.77.53-6.34-1.92,3.65-2,7.55-.33,11.3-.78l4,1.9c-1,1.14-2.39,1.23-3.64,1.76a14.26,14.26,0,0,1-2.63.88C103.39,6.78,102.64,5.94,102.11,4.78Z"/><path class="cls-12" d="M107.16,4.85c1.07-1.37,2.61-.61,3.92-.87l2,.17-2.15,1A2.5,2.5,0,0,1,107.16,4.85Z"/><path class="cls-13" d="M149.14,166.11l-2,1.87c-3.93.07-4.19-3.17-4.91-5.75a7.62,7.62,0,0,0-.85-2.61,33.92,33.92,0,0,1-3.13-4.51c-3-4.16-6.27-8.1-9.25-12.26-1.23-1.72-2.82-3.31-2.65-5.7a2.2,2.2,0,0,1,1.26-1.61,2.68,2.68,0,0,1,1.35,0,22.3,22.3,0,0,1,3.8,4.53,28.06,28.06,0,0,0,2.65,3.41,8.92,8.92,0,0,1,.69,1c.54.89,1.19,1.71,1.8,2.57,1.91,2.7,3.93,5.31,6,7.9C146.16,158.48,150.1,161.14,149.14,166.11Z"/><path class="cls-14" d="M149.14,166.11c-.77-4.44-4.6-7.18-6.16-11.18l.61-.3a7.42,7.42,0,0,1,2,.11,7.83,7.83,0,0,1,2.63.78,6.58,6.58,0,0,1,2.48,3.87c3.31.48,4.44-2.52,6.47-4.06,1.79-1.34,2.73-3.43,4.34-4.92,1.06-.88,2-2,3.65-1.54a.88.88,0,0,1-.1,1.22l-.08,1.8a4.7,4.7,0,0,1-2.7,3.13l-7.21,7.22a3.55,3.55,0,0,1-2.14,1.69C151.6,164.48,150.94,166.28,149.14,166.11Z"/><path class="cls-15" d="M144.12,170.06l-10.05,6a4.33,4.33,0,0,1-3,1.8c-6.18,1-11.65,4.61-18,4.94-.89-.84-2.7.46-3.16-1.37.79-2,2.62-2.43,4.44-2.68a54.3,54.3,0,0,0,15.25-4.53c3.34-1.4,6.38-3.48,9.88-4.52C141,170,142.8,166.81,144.12,170.06Z"/><path class="cls-16" d="M84.12,184.91c-1.54-1.17-3.32-.75-5-.79l-1-.36c0-1.62,1.25-2,2.37-2.49a6.52,6.52,0,0,1,3-.08,25.89,25.89,0,0,0,10.41-.13c1.55-.14,3,.38,4.55.51,3.07.45,6.07-.71,9.14-.38,1.22.49,2.43,1,2.52,2.58l-1,.38-19,1Z"/><path class="cls-17" d="M165.11,150.09l0-1.1c-.83-1.85.52-3.09,1.23-4.5,2.27-3.68,4.42-7.44,6.68-11.13,1-1.5,1.42-3.44,3.19-4.4l.93,1.11A39.92,39.92,0,0,1,165.11,150.09Z"/><path class="cls-18" d="M144.12,170.06c-1.73-1.39-2.72.82-4.15.85a1.76,1.76,0,0,1-.37-1.29c3.49-2.67-.08-4.93-.43-7.37,0-1.94,1.21-2.8,2.88-3.26,3.51,1.37.39,5.48,3,7.42.62.46,1,1.41,2.05,1.57C147.16,170.16,145.55,170,144.12,170.06Z"/><path class="cls-2" d="M162.33,155a6.09,6.09,0,0,1,2.7-3.13C166,154.54,165.17,155.65,162.33,155Z"/><path class="cls-19" d="M110.09,183.77l-2-1.74a1.37,1.37,0,0,1,1.93-.18c1,.19,2.25-.11,3,1Z"/><path class="cls-2" d="M153,163.93c.35-1,1.29-1.3,2.14-1.69.31.68.87,1.39,0,2S153.68,164.11,153,163.93Z"/><path class="cls-2" d="M131,177.88a3.76,3.76,0,0,1,3-1.8C133.68,177.72,133,178.94,131,177.88Z"/><path class="cls-20" d="M91.06,4c0,.7,0,1.39.07,2.09,1.1,1.71.48,3.66.77,5.5a2.27,2.27,0,0,1-1.13,1.83c-4.52-1.76-8.91-1.21-13.39.42a8.73,8.73,0,0,1-7.26-.44,3.15,3.15,0,0,1-1-2.14C69,9.72,70,8.78,71,7.84A156.58,156.58,0,0,1,91.06,4Z"/><path class="cls-21" d="M5.23,115.89c1.53-1.39.62-3.17.76-4.78a13.11,13.11,0,0,1-.92-5.34c.06-7.43,0-14.86,0-22.28,0-6.34,4-12,3-18.52A6.91,6.91,0,0,0,9,65a2.78,2.78,0,0,1,1,1.29,15.52,15.52,0,0,1,.39,4.85c-.26,3.49-2,6.65-2.2,10.16-1.33,8-.49,16-.39,24-.38,3.56.92,6.9,1.45,10.34.18,1.72.74,3.4.54,5.16-.49,1.35-.49,3.1-2.52,3.26Z"/><path class="cls-22" d="M31,31.93C32.84,28.45,36.75,27,39.07,24c1-.85,1.74-.45,2.49.3a29,29,0,0,1,1.62,3.13c.48,1.23,1.72,2.29.89,3.82-2.4,2.16-6.2-.82-8.34,2.29-1.25,1.59-2,3.83-4.62,3.65C29.61,35.49,31.14,33.68,31,31.93Z"/><path class="cls-23" d="M71,7.84l-1,3.19c-2.84,4.05-5.62,8.21-11.67,6.41-1.64-1.4-1.22-3-.37-4.58C61.64,9.33,67.09,10.54,71,7.84Z"/><path class="cls-24" d="M31,31.93c2.38,1.64-.2,3.47.18,5.19a2.13,2.13,0,0,1,.43,2.09c-1.34,1.58-1.12,5.28-4.87,3.62-.87-1.29-2.49-1.69-3.48-2.84C24.7,36.24,28.36,34.59,31,31.93Z"/><path class="cls-25" d="M58,12.86c.17,1.48-.42,3.18,1.21,4.25,0,2-1.83,2.54-3.06,3.55-1.06.51-2.13,1-3.34.45-1.13-1.35-3-1.82-4-3.29C51.31,15.12,55.24,15,58,12.86Z"/><path class="cls-26" d="M23.22,40c1.51.17,3.49-.63,3.91,1.85-1.67,2,1,5.68-2.59,7-2.63,1-4.22.09-4.9-2.58,0-1.64,1.22-2.48,2.28-3.43Z"/><path class="cls-27" d="M48.8,17.82c1.89.34,4.61-.49,4.22,3A2.91,2.91,0,0,1,51.32,23c-1.86,1.09-3.75.52-5.64.09A3.62,3.62,0,0,1,43.78,22,1.76,1.76,0,0,1,44.1,20Z"/><path class="cls-28" d="M20,45.92c.89,1.64,1.82,3.23,4.13,2.11.3,4.12-1.58,7-5,9.15A2.48,2.48,0,0,1,18.52,54c1.89-2.87-1.31-1.12-1.63-1.92-.84-1.74.52-2.82,1.23-4.09l1-2C19.36,45.54,19.65,45.51,20,45.92Z"/><path class="cls-29" d="M18.12,48c-.39,1.27-.77,2.55-1.15,3.83-.3,3.45-1,6.74-3.39,9.46-.79.6-1.55,1.38-2.62.48C13,57,13.67,51.53,18.12,48Z"/><path class="cls-30" d="M44.1,20c0,.72,0,1.44,0,2.16.13,2.11-.85,3.1-3,2.95A2.27,2.27,0,0,0,39.07,24C39.57,21.2,41.6,20.29,44.1,20Z"/><path class="cls-31" d="M11,61.78,13.05,61c.92.87.59,2,.58,3a3.11,3.11,0,0,1-1.13,2.15,2.37,2.37,0,0,1-1.13.31c-.74-.12-1.55,0-2.21-.47L9,65Z"/><path class="cls-2" d="M31.05,26.74c-.41-3.24.82-4.64,4.14-3.69Z"/><path class="cls-2" d="M9.15,58.1c-.66-1.68-2.26-3.85,1.65-3.17C10.19,56,10.45,57.44,9.15,58.1Z"/><path class="cls-32" d="M20,45.92a4.38,4.38,0,0,1-.88.09c.47-1.47,0-3.76,2.81-3.17C22.08,44.37,20.18,44.61,20,45.92Z"/><path class="cls-2" d="M23.14,35.1,22.09,33a2.33,2.33,0,0,1,2.79,0C24.8,34.08,24,34.61,23.14,35.1Z"/><path class="cls-33" d="M41.41,168.79l-7.3-5.88A2.71,2.71,0,0,1,32,161.28a88.37,88.37,0,0,1-21-29.17c-.6-1-.58-1.83.57-2.4a2.35,2.35,0,0,1,1.82.95c.93,1.49,1.17,3.39,2.67,4.56a17.69,17.69,0,0,1,4.19,6.19C25,150,32.42,156.14,39.37,162.71c.91.6,1.88,1.09,2.81,1.66s1.65,1.34,2.49,2c1,.77,2.14,1.41,3.15,2.2,2.6,2.09,5.65,3.34,8.66,4.68,2.36.92,4.68,1.92,7,2.94,2.8,1.31,5.93,1.63,8.76,2.85,1.61.94,4,.33,5,2.37-.08,1.45-1.35,1.08-2.16,1.42-6.4-.2-12.07-3.07-18-5A3.82,3.82,0,0,1,55,176.25c-3.37-.58-5.73-3.23-8.84-4.34C44.26,171.39,42.3,170.92,41.41,168.79Z"/><path class="cls-34" d="M12.08,130a2.35,2.35,0,0,0-1,2.13c-1.56-1-.79-3-1.77-4.22.33-2-1.77-4.07-.1-6.15,1.57,0,2.1,1.22,2.72,2.33C12.46,126,13.76,128,12.08,130Z"/><path class="cls-2" d="M41.41,168.79a12.83,12.83,0,0,1,4.79,3.12C43.41,172.7,41.24,172.55,41.41,168.79Z"/><path class="cls-35" d="M9.19,121.84c-.88,2,2,4,.09,6l-2-3.89c.57-1,1.14-2,1.72-3,.25.14.36.31.34.51S9.25,121.84,9.19,121.84Z"/><path class="cls-2" d="M32,161.28a2.85,2.85,0,0,1,2.07,1.63c-.12.57,0,1.62-.85,1.32C32,163.79,31,162.86,32,161.28Z"/><path class="cls-36" d="M75.14,182.82l2-.94a2,2,0,0,1,2.49-.36l.46.5-2,1.74C76.77,184.49,76.07,183.28,75.14,182.82Z"/><path class="cls-2" d="M55,176.25a2.61,2.61,0,0,1,2.11,1.57c-.62,1.19-1.42.43-2.07.11C54.18,177.47,54.85,176.82,55,176.25Z"/><path class="cls-2" d="M155.85,25.1c-1.55-.69-3-1.44-3.88-3.05C154.6,21.37,156.45,21.68,155.85,25.1Z"/><path class="cls-2" d="M165,35.08a7.26,7.26,0,0,1-2.64-3.16l1.44-1.2C164.51,32.09,166.35,33.15,165,35.08Z"/><path class="cls-2" d="M148,19.1,145.12,17C146.9,16.58,149.12,15.56,148,19.1Z"/><path class="cls-2" d="M134.08,10.83A5.13,5.13,0,0,1,131,9C133,8,133.89,8.78,134.08,10.83Z"/><path class="cls-37" d="M125,10.05a112,112,0,0,1,20,9.92,3.57,3.57,0,0,1-2.49,1.2c-4.12-.21-3.77,3.6-5.21,5.8a1.52,1.52,0,0,1-1.29.25,2.8,2.8,0,0,1-.81-1.08c-.12-3.31-2.5-4.88-4.94-6.4a19.08,19.08,0,0,0-5.4-2.3c-1.52-.5-3.67-.77-3.23-2.9C122.07,12.75,121.87,10,125,10.05Z"/><path class="cls-38" d="M173,51.07a55.52,55.52,0,0,1,5,11.92c-1.88.93-3.86,0-5.78.36-1.45,0-2.92.77-4.33-.17a1.93,1.93,0,0,1,.38-2.62c1.13-.89,2.59-1.09,3.95-1.64-.77-2-2.63-2.45-3.8-3.66-1.4-2-3-3.85-4.3-5.79-1.7-2.45-3.59-2.94-6.14-2.7a3,3,0,0,1-2.5-3c.82-2,3.09-1.15,4.4-2.2a2.57,2.57,0,0,1,1.23.08,4.69,4.69,0,0,0,3.37,1c1.88-.19,3,0,3.1,2.53C167.77,48.38,169.7,50.53,173,51.07Z"/><path class="cls-39" d="M125,10.05c-3.46,5-3.46,5,1.77,6.73,1.56.5,3.21.78,4.29,2.22-3.65,2.61-7.41.12-11.12.29-2.74-.53-5.65-.56-7.84-2.69a1.74,1.74,0,0,1-.19-1.41c1.49-1.65,3.76-1.84,5.54-2.94.69-.44,2.24-.31,1.18-1.86A2.44,2.44,0,0,1,118,8.12,9.07,9.07,0,0,1,125,10.05Z"/><path class="cls-40" d="M173,51.07a5.89,5.89,0,0,1-1.2,2.47c-.37-3.79-6.9-3.5-5.39-8.56.91-3-1.79-.16-2.41-1A10,10,0,0,0,161.2,42l-1.12,0c-1.54.37-3.41,1.17-4.25-.73-.67-1.49.87-2.19,2.1-2.7,1.54-1,4.38,2.21,5.1-1.55C168.19,40.4,169.47,46.55,173,51.07Z"/><path class="cls-41" d="M163,37c.25,5.49-2.79,2.56-4.94,1.93-3.56-.41-5.45-2.76-6.76-5.8,1.18-4.24,1.66-4.41,5.64-2.08Z"/><path class="cls-42" d="M180.91,63c.1,1,.19,2,.29,2.94,0,1.46-.48,2.85-.64,4.28-1.81,3.94-5.32,3.94-8.88,3.88a6,6,0,0,1-1.43-.43A3.07,3.07,0,0,1,168.8,72c0-1.19.79-1.68,1.68-2.14,1.62-.86,4.16-.58,4.25-3.38a1.61,1.61,0,0,1,1.65-.92c1.36.63,1.74,1.51,1,2.73,1.37-.49.2-2.78,1.81-3.34Z"/><path class="cls-43" d="M157,31.07c-1.67.63-4.82-2.49-5,2-2.59,0-2.36-2.66-3.61-3.94a4.74,4.74,0,0,1-.63-1.12c-.12-1.57.8-2.37,2.14-2.85C152.34,27,155.54,28,157,31.07Z"/><path class="cls-44" d="M149.9,25.14l-2,2.62c-2.46-1.39-4.08-4-7.07-4.63-.76-1.48,0-2.4,1.2-3.12l3,0C147.1,21.3,149,22.72,149.9,25.14Z"/><path class="cls-45" d="M118,8.12,119,10.06a2.79,2.79,0,0,1-1,1.84c-2,1.4-3.89,3.23-6.1.4,1.13-1.69-3.29-3.34,0-5.07a9.28,9.28,0,0,1,5.28.7Z"/><path class="cls-46" d="M179.21,65c-.29,1.35.59,3-1.34,4.28-.55-1.13-1.11-2.25-1.67-3.36-1.7-.62-3.68-.4-5.17-1.67-.6-1.19.35-1.66,1.05-2.24,2.09-.26,4.16-.34,6,1C178.45,63.65,178.83,64.31,179.21,65Z"/><path class="cls-47" d="M117.14,7.93h-6a8.64,8.64,0,0,1-5.26-1.11,2.09,2.09,0,0,1-.85-1l2.14-.91,3.79.26C112.74,6.64,115.65,5.73,117.14,7.93Z"/><path class="cls-2" d="M177.21,54c.88.17,2.18-.38,2.39,1,.11.75-.77.89-1.41,1C177.86,55.32,177.53,54.66,177.21,54Z"/><path class="cls-4" d="M180.1,69.94c.15-1.4-.47-3,1.1-4,1.41.76.77,2,.7,3.09l-.84,1C180.72,70.44,180.4,70.44,180.1,69.94Z"/><path class="cls-2" d="M185.19,106a88.37,88.37,0,0,0,0-24.95A3.11,3.11,0,0,1,187,83.77q0,9.72,0,19.43A3.11,3.11,0,0,1,185.19,106Z"/><path class="cls-48" d="M182.89,115.9l-.91-2a1.91,1.91,0,0,1,.2-2.87c.31.69.62,1.37.94,2.06C183,114,183,115,182.89,115.9Z"/><path class="cls-49" d="M180.1,69.94c.32,0,.64,0,1,0,.34,2.33.69,4.65,1,7,2,6.26.52,12.7,1,19a2.1,2.1,0,0,0-.51,1.33c-.22,2,.39,5-2,5.54-1.94.45-2.77-2.37-3.9-3.92a11.94,11.94,0,0,1-.7-1.32,12.83,12.83,0,0,1-1.17-5.16,20.23,20.23,0,0,1,1.79-8.07c4-1.07,1.45,3,3,3.84,1.4-3.38-.67-6.4-.95-9.91-.62,2.07,0,4.14-1.55,5.62-3.74-.82-1.37-4.4-2.9-6-.81,2.16,1.77,5.54-2,7.12-1.85-3.89-3.24-7.82-1.12-12.08C174.43,73,177.9,73.33,180.1,69.94Z"/><path class="cls-50" d="M182.18,111c-.07,1-.13,1.91-.2,2.87L180.22,117c-1.77-.65-2.95-2-4.2-3.36s-2.2-2.86-1.77-4.89c-1.05,1.22-.83,3.75-3.44,3.21a4,4,0,0,1-.71-1.3c-.69-3.22.48-6.06,1.8-8.88,1.18-1.68.61-3.92,1.75-5.62,2.14-1.29,2.43.9,3.41,1.8h0a16.08,16.08,0,0,1,1.16,8.7c2.16-1.42,2.5-4.38,4.81-5.66A32.12,32.12,0,0,1,182.18,111Z"/><path class="cls-51" d="M183,101l-5.27,10.06c-1.23-4.92-.44-9-.7-13.1l3.55,4.39L183.06,96Z"/><path class="cls-52" d="M177,113.09c.77,1.56,3,1.92,3.21,3.94L179,118.85c-.72.86-.49,3.77-2.76,1.27-.77-1.85-2.31-2.58-4.15-3s-3-1.29-2.56-3.43a1.91,1.91,0,0,1,1.88-1.21A6.1,6.1,0,0,1,177,113.09Z"/><path class="cls-53" d="M176.18,129,174,133.91c-2.67-.09-2.11-2.21-1.87-3.57.33-2-.14-3.14-1.92-3.87a2,2,0,0,1-.59-1.23,3.89,3.89,0,0,1,1.19-2.48,2.53,2.53,0,0,1,2-.32c1.28.83,2.88.72,4.24,1.36a2.64,2.64,0,0,1,.08,3.18Z"/><path class="cls-54" d="M173.2,123.07l-2.1-.11a1.09,1.09,0,0,1-.08-1.2c1.43-1,3.22-1.2,4.73-2.06a1.13,1.13,0,0,1,1.17.33c1.62,1.26,1-1.58,2.09-1.18a14.17,14.17,0,0,1-1.92,8.13c-.06-1.09.16-2.28-1-3C175.26,123.25,173.92,124.12,173.2,123.07Z"/><path class="cls-55" d="M91.11,11c-2-1.63-.5-3.26,0-4.88,2-.18,4.09-.65,5.91.75,1.85,2.42,1.74,5.43,2.43,8.21a12.32,12.32,0,0,0-1.14,5.21c0,1,0,1.93,0,2.89,0,.76,0,1.52,0,2.28,0,1.59,0,3.18,0,4.77s0,3.34,0,5c.14,1.75,0,3.49,0,5.24.34,5.16-.2,10.33.06,15.49-.08,5,.43,9.93-.42,14.87a4.2,4.2,0,0,1-.93,1.61c-1.82,1.34-2.7.33-3.18-1.36a19.37,19.37,0,0,1-.35-5.43c0-17.71,0-35.42,0-53.1-.14-.67,0-1.6-1.15-1.47C92,11.2,91.54,11.44,91.11,11Z"/><path class="cls-56" d="M112.07,12c2.39,1.91,4.2.26,6.07-1a1.53,1.53,0,0,1,.09,2c-1.85,1.29-3.71,2.54-6.15,2.08l-.67,0c-2-1-4,.09-6,.28-6.26-.26-7.35-1.74-6.22-8.41,2.22,0,1.38,3.36,3.65,3.28C106.08,9.92,109.41,9.25,112.07,12Z"/><path class="cls-57" d="M112.07,12l-9.23-1.85,1.43-.26c.83-1.11.92-2.56,1.71-3.69a8.61,8.61,0,0,1,5.15,1.76C110,9.59,115.15,9.83,112.07,12Z"/><path class="cls-58" d="M99.19,6.83a4.34,4.34,0,0,1,.46,1.4c-.29,5.49,2.89,6.48,7.41,5.79l.27.76a2.43,2.43,0,0,1-1.2,1.06c-2.42.5-4.85,1-7-.91C97,12.62,97.2,9.68,97,6.84,97.76,6,98.47,5.84,99.19,6.83Z"/><path class="cls-59" d="M106,6.16c.73,1.83.31,3.13-1.71,3.69-.53-1.77-2.82-2.79-2.16-5.07.92.47,1.67,1.44,2.91,1Z"/><path class="cls-60" d="M129,136c-.32,0-.63,0-.95,0-2.29-1.44-4.18-3.15-4.2-6.15,3.86-3.59,7.61-7.28,10.13-12,1.33-2.51,2.94-5-.59-7.12a1.3,1.3,0,0,1-.1-2.13c3.6-1.12,6.32,1,9.21,2.48,6.79,3.55,6.69,3.51,3.26,10.95-2.48,5.38-6.31,9.66-10.5,13.65C133.52,137.34,131.3,139,129,136Z"/><path class="cls-61" d="M143,154.93a18.13,18.13,0,0,1-5.92-8c8.73-6.66,15.71-14.71,19.93-25,.75-1.84,1.4-3.77,3.43-4.7a4.47,4.47,0,0,1,5.18,2.12c.66,3.13-.64,5.79-2,8.47a89,89,0,0,1-17.22,22.91,9.39,9.39,0,0,0-2.45,3.08,4,4,0,0,1-.85,1.07Z"/><path class="cls-62" d="M129,136c2.35,1.48,4.2.29,5.74-1.3,5.52-5.7,10.33-11.9,12.63-20.11-1.56-1.07-4.1-.66-5.35-2.56,5.13-1.83,9,1,13,3.44,1.08,1.43.57,2.87-.07,4.23-4.53,9.57-11.46,17.37-18.52,25.09a1.3,1.3,0,0,1-1.39.17q0-.48,0-1a8.09,8.09,0,0,0-3-3C131.34,139.15,129,138.28,129,136Z"/><path class="cls-63" d="M135.1,145c6.7-8.06,13.93-15.73,18.61-25.27a38.5,38.5,0,0,0,1.36-3.68c2.45-1.33,4.28-1.08,5,2a66,66,0,0,1-18.92,27.43c-1.19,1-2,2.84-4.1,1.58A3.39,3.39,0,0,1,135.1,145Z"/><path class="cls-64" d="M127,137.06c2.34,5.58,6.71,9.75,10.18,14.54.77,1.06,1.9,1.88,1.91,3.36-1.19-.41-1.82.13-2.13,1.24-1.87-.08-2.43-1.72-3.41-2.86-.69-1.13-1.44-2.23-2.22-3.31a73.15,73.15,0,0,0-5.88-7.47,6.92,6.92,0,0,1-.84-3.3,4.16,4.16,0,0,1,1.21-2.4A.91.91,0,0,1,127,137.06Z"/><path class="cls-65" d="M137.11,155.94c-.07-1.8.95-1.41,2-1,1,1.35,2,2.69,3,4,.48,1.81-2.49,1.31-2.06,3.08a1.44,1.44,0,0,1-1.17.23c-1.59-.64-3.26.87-4.84-.19-.57-1.52.58-2.45,1.21-3.57A8.61,8.61,0,0,1,137.11,155.94Z"/><path class="cls-66" d="M127,137.06a7.46,7.46,0,0,0-1-.06c-3-1.8-5.14-4.16-5.5-7.8a2.62,2.62,0,0,1,1.52-1.52c1.42.1,2.37.62,2,2.29l4,6Z"/><path class="cls-63" d="M132.11,141a2.81,2.81,0,0,1,3,3A6.21,6.21,0,0,1,132.11,141Z"/><path class="cls-67" d="M162.05,151c-1.47,1.58-1.79,4.17-4.3,4.83-1.13-.14-2.21.43-3.35.24-1.35-.15-3-.59-3-2,0-3-1.79-2-3.3-1.9.69-5,4.6-7.38,8.29-9.9,2.46.27,2.71,1.93,2.48,3.9-.51,2.16-2.38,3.48-3.47,5.42,1.86.65,3.13-.81,4.66-1.1A2,2,0,0,1,162.05,151Z"/><path class="cls-68" d="M158.05,146.94c-.12-1.6.66-3.66-2-4,.26-3.27,2.06-5.53,4.71-7.23,1.72.71.66,3.26,2.55,3.87a10.63,10.63,0,0,1,2.71,2.64c.48.87,1.78,1.42,1.07,2.74l-2,4-3,2h-2c-.09-.21-.18-.42-.26-.63a14.93,14.93,0,0,1,1.73-4.33c.59-.47.54-.76-.26-.83-2.23-1.17-1,2.31-2.6,1.95Z"/><path class="cls-69" d="M148,151.94c1.78-.15,4.55-2.79,4.37,1.94,0,1.3,1.73,1,2.79,1.16.68,4.11-2.43,4.3-5.1,5l-2.21-3.79a3.09,3.09,0,0,0-.89-3,1.58,1.58,0,0,1-.1-1.24A.87.87,0,0,1,148,151.94Z"/><path class="cls-70" d="M150.08,160c1.67-1.68,4.71-2,5.1-5,.94,0,2-.29,2.57.77-1.29,3-4.31,4.19-6.44,6.31-.46.45-1.41.75-1.67.09S149.9,160.74,150.08,160Z"/><path class="cls-71" d="M147.15,153c.89.08,2.11-.27,2.46.79.42,1.33-.83,1.84-1.74,2.42l-2.78-.25C144.6,154.15,145.61,153.4,147.15,153Z"/><path class="cls-72" d="M147.15,153l-2.06,3-2-1c0-.33,0-.65,0-1,1-1.38,2-2.88,4.12-1.87C147.17,152.41,147.15,152.71,147.15,153Z"/><path class="cls-73" d="M110,181.85l-1.93.18c-3.32.3-6.56,1.46-10,.91-1.22-1.4,1.56-3.29-.56-4.58-.07-1.45.87-2.05,2-2.48,4.09-1.72,8.89.49,12.77-2.35,1.85-.36,4.89.65,3.6-3.23a1.67,1.67,0,0,1,.07-1.35c2.75-1.63,5.5-3.29,8.93-2.42,1.81,2.79,4.8,4.87,5.17,8.53-4.8,3-10.17,4.27-15.7,4.92A7.3,7.3,0,0,0,110,181.85Z"/><path class="cls-74" d="M130.15,175.06c-2-2.6-5-4.51-5.18-8.26.14-1.29.91-1.42,2-1.07.48.56.84,1.78,1.66,1.24.63-.41-.38-.28-.59-.4a2.87,2.87,0,0,1-1.08-.87c.69-3.12,3.15-3.24,5.63-3.31,1.42.47,2,1.8,2.84,2.84a6.15,6.15,0,0,0,2.31,2,5.36,5.36,0,0,1,1,.75c.59.58.84,1.4,1.41,2a3.49,3.49,0,0,1-.1,1Z"/><path class="cls-75" d="M98.13,179c3.29,1.31-.25,2.64,0,4l-4.11-1c-1.58-.39-3.16-.77-3.77-2.57a4.74,4.74,0,0,1,.67-4.59c2-.73,1.81-2.43,1.8-4.09-.06-6.41,0-12.81-.06-19.23,0-5.72,0-11.44,0-17.16.16-4.21-.24-8.43.29-12.64a3.78,3.78,0,0,1,.83-1.57c1.07-.59,1.58.12,2.06.88,1.11,3.56.53,7.21.57,10.82.1,10.39,0,20.77.67,31.16.31,4.9-1.06,9.82-.7,14.75C96.89,178.24,97.17,179.06,98.13,179Z"/><path class="cls-76" d="M91.07,180l3,2a13.54,13.54,0,0,1-11,.06c-1.3-1.67-4-.59-5.14-2.61a2.15,2.15,0,0,1-.2-1.32c1.28-2.59,3.74-.34,5.41-1.34a7.42,7.42,0,0,1,1.22-.45,4.33,4.33,0,0,1,2.52.09,5.39,5.39,0,0,1,1.54,1,17.8,17.8,0,0,1,1.26,1.34A8.74,8.74,0,0,0,91.07,180Z"/><path class="cls-77" d="M78.08,179c1.37,1.5,4.61-.09,5,3l-3,0,0-.11C79.09,181.15,76.65,181.38,78.08,179Z"/><path class="cls-78" d="M167.08,145l-2-2c1.76-2.74,3.84-5.31,5.07-8.45-3.34-.61-2.53,5.31-6.32,3.48a7.07,7.07,0,0,1,1.53-6.18c2.35-1.29,3-4,4.69-5.8,2.54.07,5,0,3.14,3.88a3.32,3.32,0,0,0,.8,4Z"/><path class="cls-79" d="M140.07,170a1.87,1.87,0,0,1-2-1.93c.32-2.09-.57-4.42,1.19-6.24a2.38,2.38,0,0,1,.77.28c.25.58.34,1.4.77,1.69C144.72,166.33,143.45,168.25,140.07,170Z"/><path class="cls-80" d="M91.11,11l1-1c2.92.7,1.84,3.13,1.87,4.83.15,10.23,0,20.45.11,30.66a8.85,8.85,0,0,0,.33,1.61c-.28,2-.7,4,0,6a8.36,8.36,0,0,1-.07,3,25.67,25.67,0,0,0,0,8.83,8.39,8.39,0,0,1,.06,2.87c-.63,1.48.16,3.8-1.36,4.51-2.93,1.35.71,1.63.2,2.46-3.76,3.21-8.78,4.5-12.31,8-2.29,1.84-1.57,6.37-5.79,6.5-2.83-2.06-6.34-2.62-9.37-4.2-1.53-.81-4.14-1.46-2.13-4.22.15-.07.33-.23.44-.19C70.27,83,75,81.15,78.56,75.83c1.17-.57,2.41.63,3.57-.14,1.35-1.2,1.88-3.1,3.48-4.08C89.7,70.17,91,67.25,90.72,63c-.32-4.81,0-9.65-.13-14.49-.13-4.14.19-8.27.07-12.41-.19-3.5.14-7,0-10.51-.11-2.62.11-5.26,0-7.88.06-1.21-.78-2.19-.9-3.36.12-.72.89-1,1.16-1.61Z"/><path class="cls-81" d="M91,12.78,90,14.08a114,114,0,0,1-18.62,4.19C67,16.88,67,16.54,70.16,12.85c2.49.52,5.14.72,7.38-.3C82.15,10.44,86.53,10,91,12.78Z"/><path class="cls-82" d="M70.16,12.85c1,1.26-4.17,4.12,1.11,4.26C71,19,69.45,19,68.09,19.3c-4-.11-8,2.42-12.09.66l3.24-2.86c5,.46,7.14-4.18,10.83-6.07Z"/><path class="cls-83" d="M6.75,105.86A79.49,79.49,0,0,1,7.07,81a1,1,0,0,1,1.26-.16,5.21,5.21,0,0,1,1.47,2.4,4.17,4.17,0,0,1-.16,2.68c-1.34,1.49-.9,3-.13,4.6a11.08,11.08,0,0,0,.68,3.22,33.29,33.29,0,0,1,1.93,16.44C8,111.64,9.07,106.63,6.75,105.86Z"/><path class="cls-84" d="M9.19,121.84A1.55,1.55,0,0,0,9,121c-.29-1.68-.57-3.36-.85-5,1.25-2.24,2.58-4.42,5.18-5.35a5.32,5.32,0,0,1,4.07,2.52c.63,2.77-1.86,2.62-3.26,3.49a4.54,4.54,0,0,0-1.3,1.32c-1.05,4.58,1.55,3.93,4.32,3,2.7-.47,4,.41,3.12,3.3-5,2.92-6.92,2.86-9.28-.28Z"/><path class="cls-85" d="M8.07,81c-.33,0-.66,0-1,0-.35-3.54,1.86-6.57,2-10,2.32.54,2.81,3.17,4.74,4.17-.61,4.08-1.79,8.07-1.48,12.28.11,1.45-.12,3-1.84,3.75C8.67,89.81,8.77,87.92,9.13,86l0-3a2.71,2.71,0,0,1-.51-1.83c0-.17.3-.46-.19-.58C7.76,80.42,8.56,80.5,8.07,81Z"/><path class="cls-86" d="M13.52,74.26C9,77.35,10.91,71.63,9.1,71l.06-5c.76-.25,1.59-1,2.11.33,1.29,3.21,4.78,3.07,7.13,4.67a2.76,2.76,0,0,1-1.06,3.41A3.41,3.41,0,0,1,13.52,74.26Z"/><path class="cls-87" d="M13.1,111a14.79,14.79,0,0,1-5,5c-.55-3.35-2.73-6.48-1.38-10.1,1-.09,2.3-.77,2.38,1.19s1.17,2.92,3.14,2.84C13,109.88,13.39,110.15,13.1,111Z"/><path class="cls-88" d="M31,38.76c.07-.55.13-1.1.19-1.64C33,36.19,33.8,34.35,35,32.81c2.46-2.6,5.47-.64,8.2-1-1,4.29-8,11.61-11.53,12.07A4.17,4.17,0,0,1,31,38.76Z"/><path class="cls-89" d="M41.14,25.07l3-2.95,1.94-.1c1.73,1.29,3.69,2.3,5,4.07a4.05,4.05,0,0,1,.58,1.18,2.29,2.29,0,0,1-.43,1.86,8.31,8.31,0,0,1-3.87.22c-1.3-1.78-3.43-.73-5-1.46A3.33,3.33,0,0,1,41.14,25.07Z"/><path class="cls-90" d="M42.32,27.89c2.64-3.27,4-.48,5.7,1.15a2,2,0,0,1,1.48,2.73,2.73,2.73,0,0,1-2.38,1.17,5.43,5.43,0,0,1-1.33-.15,3.64,3.64,0,0,1-1.18-.63A2.3,2.3,0,0,1,44,31C43.47,30,42.9,28.92,42.32,27.89Z"/><path class="cls-91" d="M44,31l1.05.73a1.3,1.3,0,0,1-2,.42c-2.69.69-5.55-.81-8.17.67.27-2.07,1.34-2.48,3.36-2.05A32,32,0,0,0,44,31Z"/><path class="cls-32" d="M31,38.76,32.08,44c.75,2-.94,3-1.72,4.32-2.92,4.95-6.11,9.73-8.72,14.87A2.76,2.76,0,0,1,19,64.27c-2.87-2.5-3.68-4.93.28-7.17L24.12,48c1.86-.88,1.93-2.12,1.15-3.92-.6-1.4-.69-3.1,1.86-2.27.85,1.37,1.51.89,2-.26A5.19,5.19,0,0,1,31,38.76Z"/><path class="cls-92" d="M56,20l12.17-1.91c0,2.24-1.83,2.61-3.29,3-4.48,1.33-8.38,3.77-12.3,6.19a2,2,0,0,1-1.42-.07,3.54,3.54,0,0,1-.25-.52c-.9-1.62-1.15-3.19.38-4.6L53,20.85Z"/><path class="cls-93" d="M51.29,22.09c-.12,1.53-.25,3.06-.38,4.6-2.62-.52-3.11-3.25-4.86-4.67C47.8,22.21,49.53,23.28,51.29,22.09Z"/><path class="cls-94" d="M19.27,57.1c-2,2.24-1.84,4.54-.19,6.88a4.22,4.22,0,0,1-5.9.07c-1.3-1,.35-2.08-.13-3.09,2-2.73.88-6.82,3.92-9.12C23.19,51.21,17.77,55.67,19.27,57.1Z"/><path class="cls-95" d="M17.92,71.15c-2.92-.64-7.11.45-6.65-4.84a2.49,2.49,0,0,1,.76-.43c5.33.51,10,3.84,15.58,3.41a6.15,6.15,0,0,1,2.05-.12,3.31,3.31,0,0,1,1.2.49,2.16,2.16,0,0,1,.57,1.11c5.39,3.71,12,4.15,17.85,6.5,3.9,1.58,7.71,3.49,12.12,2.86a3,3,0,0,1,2.72.87c-.65,3.61,2.76,2.79,4.35,3.92,2.15,1.51,5.89.44,6.71,4.14l-.58.5a5.36,5.36,0,0,1-3.74.17c-4.14-1.56-8.47-2.5-12.67-3.89a50.67,50.67,0,0,0-8-3c-2-.71-4.1-1-6-1.94A22,22,0,0,0,39,79.22a12.47,12.47,0,0,1-2-.53c-.85-.32-1.68-.69-2.52-1-2.31-1.08-4.83-1.34-7.26-1.93a29.58,29.58,0,0,0-4.58-1.6C20.69,73.81,19.42,72.3,17.92,71.15Z"/><path class="cls-96" d="M28.08,70c-6,1.26-11.07-1.29-16-4.1l1.15-1.83,5.9-.07L21,62.89c1.38,1-.29,2.75,1.05,3.71C23.92,68,26.43,68.22,28.08,70Z"/><path class="cls-97" d="M47.07,169l-2.92-2.09c.83-1.35,2.26-1.7,3.61-2.18,2.5-.66,3.55-4.06,6.68-3.54,8.27,3.44,16.45,7.13,25.3,8.95a20.23,20.23,0,0,1,2.07.94c1.51,1,4.07.37,4.65,2.74.43,1.81-1.29,2.32-2.38,3.15h0c-5.17-1.07-11,.89-15.43-3.58-.34-.24-.68-.49-1-.72-1.33-.74-2.86-.58-4.28-.89a11.78,11.78,0,0,1-1.3-.33,53.15,53.15,0,0,1-6.21-1.67c-1.51-.6-2.71-1.48-4.35.15S48.47,169.72,47.07,169Z"/><path class="cls-98" d="M11,124c3.13,2.69,6.2.33,9.29-.11a1.15,1.15,0,0,1,1.27.26c1.3,3,3.33,5.58,4.08,8.8-2.71,2.94-.7,6.08-.37,9.14.52.78,1.21,1.48,1.05,2.54-3.95,3.07-4.88-1.52-7.12-2.81a19.7,19.7,0,0,0-3.83-5.91c-1.33-1.3-1.11-3.35-2.29-4.71-.33-.4-.65-.81-1-1.22C11.72,128,11.35,126,11,124Z"/><path class="cls-99" d="M19.18,141.82c1.48,0,2.26,1.08,3.12,2,1.07,1.18,2.15,2.1,3.43.24,3.05-1.59,4.49.21,5.79,2.62,2,3.69,4.35,7.08,8.42,8.8a2,2,0,0,1,.6,1.21c-1,2.28-.46,4.88-1.43,7.17C31.58,157.34,24.19,150.66,19.18,141.82Z"/><path class="cls-77" d="M68.1,172c4.63,3.89,10.82,2.81,16,5-1.38,4-4.24-.77-6,1-.92.11-2-.22-2.49,1-.72,1.87-2.06,1.73-3.55,1-3-1.07-6.33-1-9-3C63,173.52,65.29,172.5,68.1,172Z"/><path class="cls-100" d="M47.07,169c1.85.1,4.24,2,5-1.49.19-.85.86-1.11,1.37-.51,2.55,3,6.8,1.74,9.62,4-2.27,1.15-4,3.66-7,3C52.75,172.89,49.44,171.8,47.07,169Z"/><path class="cls-101" d="M56.08,174c2.26-1.19,3.72-4.24,7-3h0c1.49,1.23,3.5-.16,5,1h0c-1.66,1.69-4,2.73-5,5Z"/><path class="cls-102" d="M72.05,180c.9-.31,2.15.56,2.4-1.54.37-2.92.73-2.88,3.64-.5,0,.33,0,.66,0,1-.16,1.55,1.34,2,2,2.94l-3,0C75.84,180.13,73.3,181.81,72.05,180Z"/><path class="cls-103" d="M39.11,163.9c-.75-2.46-1.54-4.93,1-6.91,1.36-.34,1.43.65,1.59,1.54-.51,2,.88,3.73,1,5.66a1.81,1.81,0,0,1-.68,1.09Z"/><path class="cls-104" d="M42,165.28l.21-1.59a7.78,7.78,0,0,1,2.41-.09c1.06-.06,2.12-.41,3.16.07.78.68,1.12,1.41.27,2.28l-3.9,1Z"/><path class="cls-34" d="M13.06,131.2c1.61,1.16,1.86,3,2.29,4.71C13.39,134.92,13.16,133.09,13.06,131.2Z"/><path class="cls-105" d="M99.17,14.93l7.84.13a.72.72,0,0,1,.33.84c1.29.55,2.37-.6,3.6-.42a1.7,1.7,0,0,1,1.15.49,27.78,27.78,0,0,0,7.9,2.08.79.79,0,0,1,.32.76c-.06.27-.13.41-.2.4-.44.4-1.18.14-1.56.7,5.68-.17,9.52,4,14.27,6a15.75,15.75,0,0,0,3.28,1l.92.11a2.21,2.21,0,0,1,.75,1.34,3.22,3.22,0,0,1-1.91,3.18c-2,.68-3.5-.39-5.12-1.22-4.28-2.18-8.56-4.41-13.42-5C110.72,23,103.54,22.9,97.09,20,97.06,18,96.79,15.94,99.17,14.93Z"/><path class="cls-106" d="M136.1,27c-2,2.23-3.76.21-5.24-.67-4.41-2.63-8.86-5.12-14-6.52,1-1.27,2.26-.55,3.26-.81,6.19.36,11.9,1.8,15.88,7.09A7,7,0,0,1,136.1,27Z"/><path class="cls-107" d="M136,26.05C131,23.18,126,20.1,120.13,19c0-.3-.09-.61-.13-.91l11.08.95C133.78,20.61,137.21,21.71,136,26.05Z"/><path class="cls-108" d="M137.18,27.77a1.84,1.84,0,0,0-.16-.7c.16-3.44.17-7,5-7.06-.32.92-.63,1.84-.94,2.76C140.25,27.64,140.07,27.86,137.18,27.77Z"/><path class="cls-109" d="M129.57,14.66c-2.58-.06-3.7-.37-4.12-2C127.2,12,128,13,129.57,14.66Z"/><path class="cls-110" d="M155.91,43.05A3.61,3.61,0,0,0,158,46c5.31,5,9.44,10.64,9.65,18.33a1.94,1.94,0,0,1-1,1.06c-1.91.31-2.7-1-3.32-2.42a77.18,77.18,0,0,0-18.5-25.08c-1.52-1.4-4.54-3.45-.48-5.68a3.93,3.93,0,0,1,1.41.12c3.38,2,5.65,5.21,8.48,7.82A7.78,7.78,0,0,1,155.91,43.05Z"/><path class="cls-111" d="M167.14,65c-.1-5.45-3.19-9.6-6-13.9-1.09-1.66-2.09-3.38-3.12-5.08,4.52-1.21,8,.92,10,6.17.35.92.67,1.86,1,2.79,3.48,2,2.26,4,0,6a1.94,1.94,0,0,0-.78,2.26,1.52,1.52,0,0,1,0,1.76A1,1,0,0,1,167.14,65Z"/><path class="cls-112" d="M155.91,43.05c-.63-.66-1.25-1.33-1.88-2A12.22,12.22,0,0,0,150,35.63c-1.49-1-2.78-2.36-2.71-4.43a4.6,4.6,0,0,1,1.8-3.16L152,33c1.53,2.49,3.94,4.07,6.09,5.91-4.39,4.32,2.45,1.3,2,3C159.17,44.27,157.57,43.8,155.91,43.05Z"/><path class="cls-113" d="M169.07,61c.37-2,2.42-4,0-6,2.63.26,3.78,2.38,5.66,4.46Z"/><path class="cls-114" d="M168,65l.33-1.71c1.27-.41,2.3-1.55,3.8-1.26l-1,2.11a1.82,1.82,0,0,1-1.76,2.28C168.44,66.48,167.85,66,168,65Z"/><path class="cls-115" d="M161.2,42c2-.83,3.15-.53,2.83,1.95C162.62,44,161.19,44.05,161.2,42Z"/><path class="cls-116" d="M118.23,12.92l-.09-2,.88-.89c1.16.1,2.68.32,2.46,1.67C121.2,13.37,119.53,13.05,118.23,12.92Z"/><path class="cls-58" d="M112.09,16l-1.13.16c-1.29.44-2.58.71-3.8-.2,0-.29-.09-.58-.14-.87l.11-.12a4.22,4.22,0,0,1,5,.06h0C112.08,15.32,112.08,15.65,112.09,16Z"/><path class="cls-117" d="M171.07,113,170,114a2.9,2.9,0,0,1-1.56.68,2.22,2.22,0,0,1-2.13-1.24,10.75,10.75,0,0,1-.46-5.86,68.57,68.57,0,0,0-1.81-29.91,10.42,10.42,0,0,1-.49-3.42c1-2.73,2.91-3.42,5.54-2.24l1,1c-.12,5.35,1.91,10.4,2.27,15.66a47.91,47.91,0,0,1-1.77,17.25c-.53,1.75-1.13,3.52.36,5.13l.26,1c.28.26.36.5.22.7S171.18,113,171.07,113Z"/><path class="cls-118" d="M170.94,111l-2.55,1.59c.91-6.9,2.84-13.27,2.74-19.92-.08-5.12-.24-10.17-1.71-15.12-.47-1.57-.86-3.25.66-4.59l1,0A41.23,41.23,0,0,0,173,85.06c1.63,1.51,1.53,3.49,1.46,5.45A100.7,100.7,0,0,1,173,102,24.46,24.46,0,0,0,170.94,111Z"/><path class="cls-119" d="M169.1,72c-1.78.41-3.63.64-5,2-1.77,2.06-4.45,1.89-6.71,2.78A26.92,26.92,0,0,0,153.9,78c-3.15.94-6.17,2.75-9.65,1.41a1.88,1.88,0,0,1-.68-1.37c.29-1.9,1.8-2.47,3.31-3.06a74.26,74.26,0,0,0,12.35-4.28c2.33-.75,4.61-1.85,7.09-1.89,1.78,0,4.06-.7,4.65,2.1Z"/><path class="cls-120" d="M171,70.92c-4.24-2.63-8,.52-11.93,1-.68-.54-1.83-.16-2.26-1.18a1.56,1.56,0,0,1,.42-1.23,11.5,11.5,0,0,1,3.12-1.39c2.25-.37,4.28-1.64,6.63-1.56,2.61,2.24,5.44-.77,8.1.33C177.46,72.13,171.84,69.09,171,70.92Z"/><path class="cls-121" d="M175.05,66.94c-2.7.24-5.37,4.51-8.11.07A1.57,1.57,0,0,1,167,65l.13,0,.81,0c1.6,1.73,2.39.51,3.13-.86,2-.17,4-.56,5.12,1.8Z"/><path class="cls-122" d="M149.05,28c-.34,1-.67,2-1,2.94-.75.6-1,1.71-2,2.05l-1,0c-.61-.77-1.82-.25-2.39-1.1a2.58,2.58,0,0,1,.13-2.95c-1.35,2.23-3,5.85-6.94,7.36-1.18-.24-1.48-1.11-1.55-2.15A4.56,4.56,0,0,1,136.08,31c.36-1.08.73-2.16,1.1-3.23,3.43,0,.88-4.72,3.95-5,4.09-.82,5.52,2,6.81,5Z"/><path class="cls-123" d="M173,102q0-8.46,0-16.92c-.1-2.79.51-5.62-.56-8.36-.3-.76-.53-1.78.42-2.14,1.2-.45,1.6.71,2.22,1.47,1.91,2.36-.16,5.68,2,8h0l-1,9c-2.36,0-.35,2.66-1.95,3.08C173.76,98,174.89,100.28,173,102Z"/><path class="cls-124" d="M177.07,84c.31-2.79-.92-5.91,2.5-9.25-.06,5.25,2.79,9,1.56,13.59-.37,1.38-.41,2.77-2.24,2.54-2.06-.25-.72-1.77-.83-2.72-.16-1.43.47-3-1-4.16Z"/><path class="cls-51" d="M174.11,96.06c.15-1.38-.51-2.85.48-4.1,0,0,1,.67,1.47,1q.51,2.51,1,5Z"/><path class="cls-125" d="M179.61,92.07c.26.36.89.86.88,1.33s-.71.87-1.1,1.3c-.41-.46-1-.87-1.16-1.41S178.58,92.14,179.61,92.07Z"/><path class="cls-126" d="M171.07,113a2.73,2.73,0,0,1,.13-1,6.61,6.61,0,0,0,1.92-4.82c0-.81.14-1.83,1.18-1.74a1.48,1.48,0,0,1,1.37,2.08c-1.07,2.31-.38,4,1.34,5.58Z"/><path class="cls-127" d="M169.07,114.05A2,2,0,0,1,170,114c.32,2.1,2,1.68,3.39,1.87,2.36.31,4,1.39,3.52,4.18l-.87,0a7.76,7.76,0,0,1-8.46-3.1C167.19,115.48,167.92,114.65,169.07,114.05Z"/><path class="cls-128" d="M170.07,126c-.25,2.72-.51,5.44-4,6-1,.3-1.31-.29-1.56-1a17,17,0,0,1,.59-4.37c.67-1.83.42-3.94,1.7-5.58,2.9-.15,2.42,2.47,3.27,4C170.08,125.32,170.07,125.65,170.07,126Z"/><path class="cls-129" d="M170.08,125c-2.77.11-1.26-3.31-3.2-3.89-1-.14-1.32-.58-.67-1.48,2.48-.93,4,0,4.8,2.42,0,.31.05.62.09.92A2.17,2.17,0,0,1,170.08,125Z"/><path class="cls-130" d="M173.2,123.07c1.05,0,2.31-.61,2.88.91C174.92,124.3,173.33,126,173.2,123.07Z"/><path class="cls-131" d="M171,122c-1.47-1.19-2.82-2.66-5-2.08-.29.5-.59.5-.9,0a5.9,5.9,0,0,0-5-2,5.75,5.75,0,0,0-5-2c-4.35-1.3-8.27-4-13-4-2.84-1.45-5.68-2.93-9-3-1.26,1.21-2.46.3-3.68-.09a10.81,10.81,0,0,1-1.19-.57c-1.73-1-3.75-1.18-5.64-1.74-2.9-1.13-6-1.66-8.79-3.21a2.9,2.9,0,0,1-1.12-2.75c1.39-2.4,3.45-1.25,5.32-1,4.66.64,8.76,3,13.24,4.21,10.61,3.23,20.89,7.47,31.56,10.51,1.91.54,3.86,1.07,5.24,2.67l8,3C175.08,122.43,172.91,121.91,171,122Z"/><path class="cls-132" d="M97.17,71q0-7.52,0-15c1-6.43,4-8.16,10-4.95,3.58,1.91,8.22,3.23,9,8.35-1.3,5.94-5.39,10.36-9.45,14.21C103.73,76.45,100,73.3,97.17,71Z"/><path class="cls-133" d="M115.08,60C114,55.19,104,49.52,99.61,51.08,97.05,52,99,54.89,97.13,56q0-8,0-16c6.79-2.09,12.49,1.2,18,4.16a14.36,14.36,0,0,1,6.51,7.22,5.55,5.55,0,0,1-.85,3.68C118.9,56.71,118.49,60.1,115.08,60Z"/><path class="cls-80" d="M115.08,60c2.28-1.06,2.49-4.16,5-5,.94-.28,1.31.27,1.53,1-2.95,8.4-9.16,14.61-14,21.37-1,.26-.25.89-.55.29,0-.1.11-.13.41-.28a4.07,4.07,0,0,1,2.87-.2c4.3,6.2,9.75,4.71,15.39,2.36a19.82,19.82,0,0,1,4.21-1.4,5.92,5.92,0,0,1,2.22.11c1.21.38,2.45.71,3.19,1.89-.73,2.65-3.23,2.41-5.14,3.13-5.35,2-11.23,2.65-16,6.21-.77,1-1.57,1.85-3,1.75-1.53-2.73-1-6.64-4.7-8.11-2.34-1-4-2.89-6-4.43-1.7-2-4.39-2.18-6.5-3.43A1.59,1.59,0,0,1,93.79,74c1-.88,2.76-.38,3.28-2,0-.33.05-.65.1-1,8.58,2.48,8.69,2.56,14-4.84C112.6,64.22,114.85,62.69,115.08,60Z"/><path class="cls-134" d="M97.11,30c0-1.67,0-3.34,0-5a5.38,5.38,0,0,1,4.68-1.24c11.28,1.66,22.17,4.46,31.36,11.75.67,2.82-1.19,4-3.3,4.92a6.82,6.82,0,0,1-3.77-1,77.76,77.76,0,0,0-26.3-8.21A4.8,4.8,0,0,1,97.11,30Z"/><path class="cls-135" d="M97.11,30c12,0,22.6,4.53,32.94,10,.23,3.77-1.34,6-5.31,6.08C119,40.3,111.55,38.75,104,37.39c-2.45-.45-5-.41-6.89-2.39C97.12,33.34,97.11,31.67,97.11,30Z"/><path class="cls-136" d="M97.12,35c7.15.91,14.27,2,20.95,4.9,2.93,1.26,6.28,2.25,7,6.12.91,3.49-1,5.08-4,6-5.61-8.73-14.46-11-23.95-12Z"/><path class="cls-137" d="M133.07,36c-8.91-4.7-18-8.9-28-10.59A75.66,75.66,0,0,0,97.09,25V23c4.5-2.77,8.93-.28,13.37.22,2.54.29,4.92,2,7.61.78a44,44,0,0,1,14.34,5.92A6.3,6.3,0,0,0,136.08,31l-1,3C134.22,34.47,135,36.55,133.07,36Z"/><path class="cls-138" d="M97.07,72c-.07,2-1.46,2-2.94,2C92.92,72,93.54,70,94,68c0-1,0-2,0-3.06A19,19,0,0,1,94,56c0-1,0-2.06,0-3.08a6.07,6.07,0,0,1,0-4.94c0-.36,0-.71,0-1.07A351.38,351.38,0,0,1,94,9.1C95.82,10.47,95,12.46,95,14.17c.06,18.1,0,36.19.14,54.28C95.19,69.55,93.06,72.69,97.07,72Z"/><path class="cls-134" d="M118.07,24c-4,2.67-7.87-.23-11.78-.37-3-.12-6.12-.53-9.2-.63V20C104.38,19.81,111.06,22.78,118.07,24Z"/><path class="cls-139" d="M94,9.1Q94,28,94.05,47c-1.59-1.47-.92-3.4-.94-5.13-.06-8.88,0-17.77,0-26.66,0-1.73.63-3.65-.91-5.15C92.48,9.15,93.2,9.09,94,9.1Z"/><path class="cls-39" d="M112.08,15l-5-.06c0-.3-.06-.61-.07-.92C109,12.9,110.85,12.41,112.08,15Z"/><path class="cls-140" d="M129.1,108l4,1c5.14,4.33,5.23,4.67.93,11.07-2.64,3.92-5,8.2-9.89,9.91l-2-2a5.7,5.7,0,0,1-3.57-5.88C122.4,117.6,124.69,112,129.1,108Z"/><path class="cls-106" d="M165.09,120l.9,0,.89,1.14a7.14,7.14,0,0,1-.86,5.82c-.58,1.4-1.11,2.82-1.63,4.24-.64,1.93-1.12,4-3.33,4.79l-5,7q-4,4.48-8,9a3.31,3.31,0,0,0-.83.17L143.07,154c-1.11-1.78.62-2.16,1.46-3C153.37,142,161.77,132.65,165.09,120Z"/><path class="cls-60" d="M125.06,139c.34,1,.68,2,1,3-4.53,5.71-11.26,7.26-17.74,9-4.17,1.14-8.58,1.33-10,6.57-.21.77-1.31.87-1.76-.28-.89-5.1-.44-10.22-.3-15.33.2-.45.39-1.1.83-1.16,8.14-1.23,15.62-4.71,23.51-6.78C123.24,134.63,124.55,136.45,125.06,139Z"/><path class="cls-141" d="M97.1,158c.72-6.41,5.3-7.32,10.61-8.14,6.68-1,12.55-4.5,18.36-7.85,2.45,2.33,5,4.57,6,8a12.45,12.45,0,0,0-5.12,1.36,63.94,63.94,0,0,1-22.77,7.89c-3.4.48-5.13,1.93-4.82,5.44-.52,1.31.19,3.71-2.61,3C96.62,164.43,96,161.17,97.1,158Z"/><path class="cls-61" d="M97.1,168c1.45-1.06.83-2.62,1-4a7.05,7.05,0,0,1,4.87-2.13c9.68-.39,18-4.69,26.48-8.78,1.55-.76,3.07-2.37,4.68-.1l3,3c0,1.15.07,2.32-.93,3.17a5.39,5.39,0,0,0-3.24,1.08c-9.79,6-20.67,8.65-31.88,10.22a14.52,14.52,0,0,0-2.83.88,1.69,1.69,0,0,1-1.46-.41A2.22,2.22,0,0,1,97.1,168Z"/><path class="cls-142" d="M134.11,153c-3.72-1-5.93,2.31-8.59,3.63-8.75,4.33-17.91,6.34-27.44,7.38-.74-3.77,1.12-5.59,4.66-5.92,8.87-.84,17-4.09,24.62-8.37,2-1.14,3.21-.91,4.72.29A3.2,3.2,0,0,1,134.11,153Z"/><path class="cls-143" d="M125.06,139l-4-4c-1.57-1.45-3.38-2.72-3.76-5.06a2.17,2.17,0,0,1,1.41-2.35A1.87,1.87,0,0,1,121,129c.93,3.14,3.77,5.07,5.08,8A2,2,0,0,1,125.06,139Z"/><path class="cls-144" d="M98.11,170.91A1.92,1.92,0,0,1,100,169c11.63-1.12,22.75-3.87,32.72-10.32,1.19-.77,2.46-1.08,3.46.41l-2.05,3c.2.75-.15,1-.86,1-2.42.24-4.73.7-6.21,2.93l0,0a2.13,2.13,0,0,0-2.12.84l-9,3.1c-5,3.44-10.59,3.3-16.26,2.91A2.47,2.47,0,0,1,98.11,170.91Z"/><path class="cls-145" d="M133.27,163.05c.28-.33.57-.65.86-1,1.77,1.22,3.14-4.9,5.09-.28-.52,2.06,1.47,4.59-1.19,6.24h0c-.67-1.11-2.21-1-2.91-2.08A2.45,2.45,0,0,1,133.27,163.05Z"/><path class="cls-131" d="M121,129l-1.85-1.11c-5-3.38-6.93-9.22-10.78-13.52-1-1.42-2-2.82-1.74-4.71,1.07-1.94,2.37-1.26,3.68-.31,3,4.17,7.11,7.52,8.73,12.63q1.55,3,3.1,5.91Z"/><path class="cls-78" d="M160.08,151a2.86,2.86,0,0,1-.24.42c-1.73,2.16-5,2.81-6.23,1.51-1.71-1.83,1.93-2.68,2.71-4.34.32-.66,1.14-1.09,1.73-1.63l0,0c1.34,1,1.4,2.59,2,4Z"/><path class="cls-146" d="M164.08,138c2.63-1.34,2.51-6.25,6.89-5.32.29.07.56.23,1.39.57-2.26,3.44-2.74,7.93-7.26,9.68l-2-3C162.57,138.89,163.18,138.37,164.08,138Z"/><path class="cls-147" d="M164.08,138l-1,2c-6.39,1.52.15-3.41-2-4l3-5c.37-.46.71-.45,1.05,0l1,1C165.41,134,164.75,136,164.08,138Z"/><path class="cls-148" d="M160,150.94c-1.82-.74-2.06-2.27-2-4a12.05,12.05,0,0,0,1-2.06c.23-.92.24-2.21,1.34-2.11.56,0,1,1.42,1.5,2.19.3.13.44.31.4.52s-.09.36-.17.36C162.44,148,161.06,149.39,160,150.94Z"/><path class="cls-149" d="M162.12,145.88a3.8,3.8,0,0,0-.23-.88c.24-.71,0-1.76,1.05-1.91a1.28,1.28,0,0,1,1,.71C164.29,145.26,163.57,145.93,162.12,145.88Z"/><path class="cls-150" d="M99.08,171.93c5.76.42,11.28-1.15,16.88-2l1.22.19c0,2.72-2.36,3-4.12,3.89-3.72,4.31-9,1.37-13.31,2.79-1-1.51-2.17-2.92-1.86-4.91A.85.85,0,0,1,99.08,171.93Z"/><path class="cls-151" d="M113.06,174c.09-2.66,3.51-1.78,4.12-3.89,1.9.76,1.57,1.83.37,3S115.05,176.05,113.06,174Z"/><path class="cls-152" d="M97.92,172.14c1.09,1.36,3,2.38,1.83,4.63-1.22.24-2,.83-1.62,2.21-.41.9-.79.64-1.16,0a4.44,4.44,0,0,1-.87-3.07C96.47,174.52,95.21,172.36,97.92,172.14Z"/><path class="cls-153" d="M120.21,173.53c.83-.11,1.41.41,1.27,1.07a2.94,2.94,0,0,1-1.24,2c-.84.37-1.63-.33-1.62-1.28S119.45,173.91,120.21,173.53Z"/><path class="cls-74" d="M122.31,169.3c.65.19,1.21.58,1.13,1.3a1.09,1.09,0,0,1-1.39,1,1.42,1.42,0,0,1-.79-1A1,1,0,0,1,122.31,169.3Z"/><path class="cls-154" d="M127.06,166c1.55.32,3-1.74,4.77-.15-.84,2.29-2.65,3.27-4.84,2.68-1.21-.33.11-1.66.1-2.55Z"/><path class="cls-79" d="M135.12,165.94c1.46,0,2.93,0,2.91,2.08C136.59,168,135.2,167.88,135.12,165.94Z"/><path class="cls-155" d="M97,176v3l-2.52.61c2.47-19.47-.26-39.07.65-58.61.62-1,1.32-1.75,2.48-.63a8.65,8.65,0,0,1,.87,4c.06.86,0,1.72,0,2.58-.54,4.69,1.5,9.62-1.35,14.07q0,8.5,0,17v10c0,1,0,2,0,2.95C96.57,172.58,96.16,174.25,97,176Z"/><path class="cls-156" d="M94.05,152c0,7.29-.15,14.58.09,21.86.12,3.7-1.88.94-2.85,1.24-1-.51-1.11-1.69-1.88-2.36a2.47,2.47,0,0,1-.6-1.07,2.07,2.07,0,0,1,1.08-1.46c.35-.23.71-.45,1.07-.67a2.82,2.82,0,0,0,.66-1.15c.66-5.37-.87-10.88,1-16.16A1,1,0,0,1,94.05,152Z"/><path class="cls-157" d="M97,120l-1.93,1-.95-1a2.81,2.81,0,0,1-1.13-1,4.76,4.76,0,0,1-.59-3.75c2.53-3.64,3.06-3.64,5.64,0C98.38,116.93,98.51,118.62,97,120Z"/><path class="cls-158" d="M89.2,172c3.18-.66,1.84,1.75,2.08,3.08L91.07,180c-.95.44-2,1.05-2.16-.73.09-.67,0-1.2-.85-1.22l-1-1C85.81,174.47,86.69,172.9,89.2,172Z"/><path class="cls-159" d="M94.05,152h-1c-2.46-5.75-1.59-11.62-.64-17.5A1.17,1.17,0,0,1,94,134Z"/><path class="cls-159" d="M93.9,119c.08.32.16.63.25,1L94,121c-1.28,4,.31,8.11-.89,12.06a1.26,1.26,0,0,1-1.59-.47c-1.59-3.61-1.08-7.38-.67-11.08C91.05,120,91.43,118.08,93.9,119Z"/><path class="cls-160" d="M93.06,133c.54-4-1-8.11,1-12q0,6.47,0,12.93h-1a.6.6,0,0,1-.27-.65C92.9,133.1,93,133,93.06,133Z"/><path class="cls-77" d="M89.2,172c-1.07,1.5-2.46,2.86-2.11,5h-3c4.53-5-2-3.31-3-5,1.31-1.42,3-1.25,4.74-1.27a4.1,4.1,0,0,1,3.07,1.2Z"/><path class="cls-161" d="M88.06,178c.31-.5-.09-2,1.18-1.15,1,.65.56,1.67-.33,2.36Z"/><path class="cls-162" d="M64.12,81l-3.06-.12c-2.8-.53-5.65-.95-7.35-3.68,1.76-7.51,6.55-12.67,12.91-16.62a4.64,4.64,0,0,1,2.09.57C73,65.49,76.79,70.22,79,76a18.51,18.51,0,0,1-1.11,1.62C72.46,84.28,72.46,84.28,64.12,81Z"/><path class="cls-163" d="M92.05,49c0,4.5-.44,9,.14,13.47C93,68.39,91.21,72,85.12,73c-2,1.43-3.36.29-4.63-1.16a58.09,58.09,0,0,1-8.22-12.19c-.74-3.22,1-4.9,3.64-6.19A44.81,44.81,0,0,1,92.05,49Z"/><path class="cls-136" d="M92,25l0,11c-.07,5-2.8,6.2-7.51,6.79-6.47.82-12.44,3.95-18.42,6.66-3.65-.65-4.73-3.64-5.93-6.51-.43-3.52,2.06-4.92,4.62-6.2,7.06-3.5,14.38-6.23,23-7.11-2.61-.7-4.89.1-6-2.19a1.71,1.71,0,0,1,.86-1.12c2.61-.71,5.32-1,7.92-1.77A2,2,0,0,1,92,25Z"/><path class="cls-164" d="M66.07,49c6.49-5,14.12-6.93,22-8,2.19-.29,3.65-.37,2-3.18-1.37-2.28,1-1.57,2-1.85V49a5.47,5.47,0,0,1-4.19,2.06c-4.73,0-8.72,2.59-13,4.18-2.19.81-1.73,2.9-1.8,4.67l-.69.22C69.73,56.74,65.9,54,66.07,49Z"/><path class="cls-165" d="M92,25l-.94,0c-2.57,1-5.37,1.19-8,2h-1c-1.49,1.53-3.54,1.78-5.46,2.16C69.51,30.6,63.5,34.58,57,37.44a3.88,3.88,0,0,1-3.63-4.35c2.52-4.52,7.17-6.24,11.47-8,6.23-2.55,12.63-4.89,19.46-5.44,1.66-.13,3-.15,2-2.56-.29-.67,1.12-1.46,2.09-1.79A6.07,6.07,0,0,1,92,16Z"/><path class="cls-166" d="M107.07,82c3.36,2.1,5.4,4.79,4.05,9,.31.77-.12,1.24-.65,1.69-1.13.7-2.11,1.69-3.51,1.89a9.49,9.49,0,0,1-3.4-.79,6,6,0,0,1-3.34-3.61c-.35-2.05-1.26-2.71-3.53-3.55-4.12-1.53-5.79.27-7.63,3a5.15,5.15,0,0,1-1,1.07,2.38,2.38,0,0,1-2.07.46,3.13,3.13,0,0,1-.8-1.19,15.63,15.63,0,0,1-.42-3.48c-.06-2.43-1.47-3.56-3.74-3.84A2.14,2.14,0,0,1,80,81.9c4-2.91,7.81-6.31,13-6.93.35-.47.69-.46,1,0,2.76,0,5.42.25,7,3-2.66,1.11-5,2.24-.78,4.57a6.5,6.5,0,0,1,3.37,4.71c.27,1.5,1.16,2.51,2.78,2.1,2.12-.53,1.67-2.09,1.17-3.6C107.21,84.56,106.33,83.39,107.07,82Z"/><path class="cls-167" d="M92,16l-3.94,0c-3.4,2.41-7.48,2.23-11.32,3-1.78.33-3.62.48-5.12,1.68-5.08,2.21-10.24,4.25-15.14,6.9-1.26.69-3.43,2.81-4.46-.59,3-3.46,7.1-5.13,11.3-6.59,1.69-.59,3.54-.87,4.82-2.32a3.91,3.91,0,0,0,3.1-.94c6.34-.51,12.21-3.86,18.76-3Z"/><path class="cls-168" d="M79,76c-4.27-4.19-6.41-10-10.92-14-.84-1.21-1-2.33.43-3.24a3.49,3.49,0,0,1,3.19,1.64c3.46,3.71,6.06,8.07,9,12.16.93,1.27,2.11,2.59,1.33,4.43C80.34,79,80.13,76.07,79,76Z"/><path class="cls-169" d="M82.1,77c-3-5.78-7.23-10.71-11-16,.41-.79,1.39-.41,1.94-.93l0-.14c2.82,3.72,5.71,7.4,8.42,11.2A3.63,3.63,0,0,0,85.12,73C83.93,74.17,84.75,76.88,82.1,77Z"/><path class="cls-170" d="M86,90l.13,1.11a1.2,1.2,0,0,1,0,1.25,16.18,16.18,0,0,1-4.27,3.21c-2.17.4-3.16-1.28-4.41-2.51a34,34,0,0,1-2.64-2.86.93.93,0,0,1,.3-1.13l.05,0c2.73-1.63,2.7-5.12,4.83-7.16l1.11.13c1.21,1.43.67,2.76-.22,4.08-1.58,1.87-1.79,3.25,1.23,3.55C83.43,89.78,84.79,89.22,86,90Z"/><path class="cls-139" d="M94.08,75l-1,0c-.62-1.21-2-.74-3.45-1.6C93.23,73,92.59,69.8,94,68l.09,5.9C94.11,74.28,94.09,74.64,94.08,75Z"/><path class="cls-139" d="M94,56l0,8.93A9.16,9.16,0,0,1,94,56Z"/><path class="cls-139" d="M94.05,48V53A3.35,3.35,0,0,1,94.05,48Z"/><path class="cls-171" d="M13.1,111c-.27-.36-.55-.71-.83-1.06q-1.56-8.51-3.11-17c3-2.21,3.48-4.62,2.86-8.59a10.62,10.62,0,0,1,4.55-9.55,1.21,1.21,0,0,1,1.13.84c.61,2.4-.38,4.72-.32,7.09-1.8,8.85-.93,17.65.41,26.45a4.7,4.7,0,0,1-.18,3.28L17,113Q15.08,112,13.1,111Z"/><path class="cls-97" d="M17,75c-2.08,1-1.85,2.9-1.93,4.73,0,1.2.51,2.85-1.67,2.91a1.27,1.27,0,0,0-1.08,2.09c4.39,4.9,1.46,6.81-3.15,8.14C7.85,92.23,8,91.46,9,90.62a.81.81,0,0,1,1,.15c1.69-.94,1.08-2.55,1.06-3.92,0-4.37-.22-8.75,2.43-12.59L17.13,74A.78.78,0,0,1,17,75Z"/><path class="cls-172" d="M10,90.77l-1-.15C7,89,5.64,87.4,9.13,86,10.7,87.33,10,89.12,10,90.77Z"/><path class="cls-172" d="M8.07,81c.13-.62.22-1.75.42-1.77,1.12-.13.5.85.58,1.33A15.88,15.88,0,0,1,9.1,83,2.17,2.17,0,0,1,8.07,81Z"/><path class="cls-173" d="M12.9,115.86c.71-1.93,4.55.69,4.14-2.85l.38-.19c1.41-.1,2.79.69,4.22.09,1.52-.35,3-.85,4.51-1.21,3.81-.62,7.24-2.34,10.79-3.71,3.16-.54,6-2,9-3,2-.29,3.93-1,6-.66a3.45,3.45,0,0,1,2.37,1.83c-4.22,3.2-9.15,4.89-14.07,6.6-3.36.8-6.77,1.45-9.82,3.2-2.08.83-4.28,1.22-6.4,1.87a39.66,39.66,0,0,0-4.33,1.07C16.31,120.31,14,119.57,12.9,115.86Z"/><path class="cls-174" d="M12.9,115.86l2.31.53c-1.66,3.43.64,2,2.07,1.71,2.25-.43,4.51-.79,6.76-1.19l.27.57c-.35,1.41-1.86,2.18-2,3.69a12.57,12.57,0,0,1-.41,1.84,2.45,2.45,0,0,1-.78,1,2.11,2.11,0,0,0-.83-.11c-.47-1.62-1.08-3-3.21-1.93a1.72,1.72,0,0,1-1.94.29c-.92-.18,1.54-2.39-1.14-1.75-1.16.28-1.8-1.22-2.15-2.38a1.67,1.67,0,0,1,.12-1.33Z"/><path class="cls-173" d="M15.05,121.9l2,.06c-1.46,1.51-3.26,1.66-4.71.39-1.78-1.55-1.94-3.59-.4-5.56.06.41.11.81.17,1.22A6.43,6.43,0,0,0,15.05,121.9Z"/><path class="cls-175" d="M17,75c.05-.34.1-.69.14-1,.65-.84,1.22-1.69.79-2.83,2.14-.56,3.15,2.06,5.16,1.84a2.74,2.74,0,0,1,.06,4c-2.11-.24-3.71-1.9-5.85-2.07Z"/><path class="cls-176" d="M21.1,67c-3.48-1.29,1.34-2.77-.1-4.1C23.36,55.8,28,50,32.08,44L43.13,32.14l2-.42a.91.91,0,0,0-.08.54c1.39,2.19-.44,3.44-1.62,4.56C35,44.71,28,53.53,23.88,64.44A3.65,3.65,0,0,1,21.1,67Z"/><path class="cls-177" d="M73.06,60.05a2.05,2.05,0,0,1-2,.93L69.05,59c-4.42-3.23-6.89-8-9.76-12.44A130.77,130.77,0,0,1,49.09,32c-.36-1-.72-2-1.07-2.95,1-1.59,2-.33,3.07,0a6.21,6.21,0,0,1,1.75,1.75A8.67,8.67,0,0,1,54.07,33c.11,2,1.43,3.1,3,4,2.41,1.27,3.06,3.72,4,6,1.56,2.1,2.47,4.74,5,6.05Z"/><path class="cls-165" d="M52.1,31a2,2,0,0,1-1-2c0-.6,0-1.21.07-1.81a2.46,2.46,0,0,1,.89-.25c2.4,1.94,3.9-.55,5.56-1.36C62,23.46,66.28,21.14,71.08,20A6.7,6.7,0,0,1,78,19c.29,1.57-.84,1.78-1.72,2.05C68.46,23.44,60.91,26.38,54,30.85A2.16,2.16,0,0,1,52.1,31Z"/><path class="cls-178" d="M21.1,67c3.72-7,6.53-14.39,11.66-20.62C35.63,42.89,39,40,42,36.6c1.17-1.33,3-2.21,3-4.34l1-.21c1.53,1,4,1.14,3.8,3.85-.34,2.2-2.12,3.21-3.63,4.49A66.11,66.11,0,0,0,28.9,63.09c-.6,1.28-1.69,2.64-.09,4,.75.82,1.87,1.48,1.27,2.88h-2A10,10,0,0,1,21.1,67Z"/><path class="cls-179" d="M49.12,36c0-2.14-2.59-2.2-3.08-3.93L49.09,32c5.1,3.53,6.93,9.64,11,14,.66,1.16.9,2.27-.35,3.23-2.82-.15-3.71-2.51-5-4.4a23.46,23.46,0,0,0-1.22-2.19,11.06,11.06,0,0,0-2.18-2,4.45,4.45,0,0,1-1.13-1.52C49.67,38.1,49.61,37,49.12,36Z"/><path class="cls-180" d="M46.09,106c-2.87,1.38-5.7,2.88-9,3,.12-2.29.42-4.61-1.77-6.27a2.64,2.64,0,0,1-1-1.69c-1-7.9-.92-15.69,2.76-23l2,.07c1.39,1.39,3.35,1.3,5,1.93,2,.77,4.25.57,6,2C46,86.5,45.73,92.08,46,97.71,46.06,100.47,47.13,103.21,46.09,106Z"/><path class="cls-181" d="M58.15,85c4.48.82,8.95,1.7,13,4,2,3,1.47,6.2.75,9.41-1.75,2.63-4.88,2.52-7.36,3.71-2.45.57-4.77,2-7.44,1.27a4.3,4.3,0,0,1-3.23-3.92A40.64,40.64,0,0,1,54,87.67C54.4,85.6,55.51,83.93,58.15,85Z"/><path class="cls-182" d="M58.15,85a3,3,0,0,0-3,3.19c0,3.79.12,7.59-.06,11.37-.11,2.35,2.1,2.22,3,3.41a6.51,6.51,0,0,1-6,2.06c-2,.31-3.88,1.38-6,1-2.53-7.27-1.79-14.52.11-21.76.54-2.08,2.15-2.27,3.89-2.24A13.92,13.92,0,0,1,58.15,85Z"/><path class="cls-135" d="M37.09,78c-.67,5.39-1.52,10.76-1.94,16.17-.28,3.69-.66,7.4,3.43,10.05,3.29,2.14-.43,3.32-1.49,4.78a30.72,30.72,0,0,1-11,4,1.45,1.45,0,0,1,.08-1.61c2.53-1.85,3-4.22,2.79-7.36C28.49,96,27.8,88,30.35,80.2c.74-2.26,1.44-4.7,4.75-3.23A2.1,2.1,0,0,1,37.09,78Z"/><path class="cls-183" d="M35.1,77c-2.06-.18-2.59.93-3.22,2.8-2.79,8.28-2.39,16.86-1.33,25.13.6,4.73-.4,6.31-4.45,7.08a5,5,0,0,1-1.67-3.51c-1.14-11-2.18-22.11,2-32.85l.67-.63C30,74.88,32.73,75.08,35.1,77Z"/><path class="cls-184" d="M51.09,39l1,1c.31,2.31-1.79,3-3,4.13-7.53,7.31-13.79,15.46-17.47,25.4l-.54.46c-.33,0-.66,0-1,0a3.42,3.42,0,0,0-2-2c-1-1.07-.54-2.19,0-3.24,4.55-9.37,10.26-17.89,18.26-24.69C47.64,38.93,49.05,37.26,51.09,39Z"/><path class="cls-185" d="M54.05,42a2.07,2.07,0,0,1,1.05,2c.49,1.21-.41,1.85-1.12,2.48A72.73,72.73,0,0,0,36.91,68.9a5.83,5.83,0,0,1-2.2,2.64A3,3,0,0,1,31.1,71c0-.32,0-.65,0-1l0,0c4.41-9.45,9.67-18.31,17.47-25.43C50.13,43.12,51.47,41.23,54.05,42Z"/><path class="cls-186" d="M31.1,71l4,0,.65-.06A16.41,16.41,0,0,1,40.16,72a28.9,28.9,0,0,0,4.32,1.14,9.14,9.14,0,0,1,1.26.38c1.45.57,3,.91,4.25,2a1.81,1.81,0,0,1,.46,1.25A1.73,1.73,0,0,1,49,78,78.21,78.21,0,0,1,30.17,72c-.11,0-.16-.22-.23-.34Z"/><path class="cls-187" d="M22.1,77c1.45-1.06.86-2.62,1-4a5.4,5.4,0,0,1,4,2h0c-2,3.68-2.44,7.77-3,11.82a17,17,0,0,1-.35,3.42c-.43,1.22-.82,2.86-2.38,2.66-1.19-.15-1.4-1.68-1.52-2.84-.19-2-.09-3.94-.15-5.92C19.88,81.55,19.91,78.9,22.1,77Z"/><path class="cls-188" d="M71.09,99q0-5,0-10l4,.06a2,2,0,0,1,0,.8,4.84,4.84,0,0,1,1.71,2.92c.15,1.46-.32,3-1.76,3.08-2.54.07-1.07-1.92-1.45-2.8-.65,1.34.58,3.11,0,4.77C73.06,98.77,72.31,99.38,71.09,99Z"/><path class="cls-189" d="M49,78,50.1,77c1.33-1,2.66-1.19,4,0,2.08,1.75,5.12,1.76,7,3.88C56.51,82.2,52.74,80.23,49,78Z"/><path class="cls-135" d="M44.12,80c-1.93,0-4,.36-5-1.93C40.88,78.38,42.69,78.69,44.12,80Z"/><path class="cls-118" d="M88.89,171.89l-2.81.08c-1.9-1.26-4.2.17-6.12-.94-9.32-1.06-17.66-4.88-25.84-9.14-1-.71-2.58-.95-2.14-2.76,2.58-2.18,4.73-.23,6.82.88,8.32,4.43,17.06,7.38,26.55,7.79a7.69,7.69,0,0,1,1.5.31c1.23.68,3.12.6,3.14,2.69Z"/><path class="cls-190" d="M52.09,160l2,1.94c-3.07-.2-2.94,4.37-6.07,4.06-.06-.8-.15-1.58-1-2-1.19-3.27.26-4.92,3.4-5.52A2.37,2.37,0,0,1,52.09,160Z"/><path class="cls-191" d="M80,171c2.05.22,4.3-.86,6.12.94h-5Z"/><path class="cls-77" d="M68.09,172c-1.69-.23-3.6.68-5-1C64.77,171.21,66.68,170.31,68.09,172Z"/><path class="cls-73" d="M40.25,156.06c-5.71.09-7.53-4.73-9.54-8.46-1.32-2.43-2.61-3.32-5-3.5l-1.61-1.29c-.54-4.62,3.56-1.86,5.08-3.21,3.48.44,4.34,3.82,6.41,5.82,2.72,2.63,5.71,5,7.79,8.29a2.56,2.56,0,0,1,0,1.45C42.57,156.29,41.63,156.93,40.25,156.06Z"/><path class="cls-192" d="M29.16,139.82c-.07,1.68-1,1.55-2.29,1.27s-2.58,0-2.75,1.72c-1.79-2.36-.17-5.35-1.75-8-1.19-2,2.62-.08,2.85-1.92a1.26,1.26,0,0,1,1.28.14C27.88,135.09,29.57,137.05,29.16,139.82Z"/><path class="cls-193" d="M26.06,133.05q-.42-.11-.84-.18c-1.93-2.7-3.92-5.37-4.12-8.87,0-.34.08-.68.11-1C25,125.31,26.33,128.79,26.06,133.05Z"/><path class="cls-194" d="M40.25,156.06l2.9-1.33c1.35-.37,2.53-.1,1.81,1.5s-1.61,3.25-3.91,2.5a1.67,1.67,0,0,0-.93-1.74A5.94,5.94,0,0,1,40.25,156.06Z"/><path class="cls-195" d="M41.05,158.73a34.28,34.28,0,0,0,3-2.19c1.81-1.62,0-1.51-.93-1.81,0-.25-.06-.5-.07-.75a2.39,2.39,0,0,1,2.07-.73,3.59,3.59,0,0,1,2.46,1.68,5.35,5.35,0,0,1,.57,2.18c0,1.94-.61,4.12-2.3,4.58-2.16.59-.76,2.4-1.76,3.15l-1.91-1.15C41.26,162.17,38.7,161,41.05,158.73Z"/><path class="cls-196" d="M44.12,164.84c-.07-1.17-1.06-2.4.72-3.35A4.29,4.29,0,0,0,47.08,157c1.91-4.36,5.65-7.46,8-11.53,1.79-2.29,3.45-4.69,5.23-7a2.09,2.09,0,0,1,1.88-.71A2.75,2.75,0,0,1,63.7,140c-.15,3-2.53,4.74-3.88,7.07-.76,1.06-1.52,2.12-2.19,3.23-1,1.38-1.93,2.84-3,4.21-1.34,1.39-2,3.3-3.58,4.5-3,.32-3.42,2.72-4,5C46.16,164.47,45.32,165.25,44.12,164.84Z"/><path class="cls-197" d="M107.16,15.93l3.8.2c-1.83,1.56-3.88.76-6,.67C105.5,15.66,106.46,16.16,107.16,15.93Z"/><path class="cls-193" d="M143.06,32a2,2,0,0,1,2,1c-2.12.3-2.05,1.34-.81,2.63,2,2,3.89,4.1,6,6,6.3,5.65,10.29,12.87,13.94,20.33.64,1.32.91,2.94,2.85,3,0,.69-.05,1.37-.08,2.06-2.13,1.21-4.29,2.33-6.87,2-4.41-12.54-12.4-22.31-23.18-29.93C137.74,35.67,139,32.59,143.06,32Z"/><path class="cls-198" d="M146.05,33a1.89,1.89,0,0,1,2-2.05c.09,2.05,1.43,3.19,3.06,4,2.54,1.3,3.25,3.41,2.92,6A49.22,49.22,0,0,1,146.05,33Z"/><path class="cls-199" d="M157.05,76a15.6,15.6,0,0,1,7-2c4.49,10.5,4.81,21.42,3.34,32.54-.33,2.46-.24,5-.34,7.45-2.18,1.56-3.89.6-5.48-1-1.23-2.21-.56-4.51-.37-6.83C162.08,95.78,162.51,85.46,157.05,76Z"/><path class="cls-200" d="M162.08,112.91l5,1.07,2,.06-1,3c-12.65-3-24.66-7.93-36.93-12.06-.45-1.2.21-1.84,1.16-2.35,2.53-.24,4.73,1,7.07,1.59a90.57,90.57,0,0,0,9.66,3c2.63,1.25,5.5,1.79,8.25,2.68C159.06,110.54,161,111,162.08,112.91Z"/><path class="cls-201" d="M157.07,111c-2.66-1-5.85-.58-8-2.95-1.35-3.31-.49-6.61.72-9.59,2.16-5.37-.15-10.08-1.53-14.94-.64-2.27-3.25-2-4.8-3.16-.51-.8-.59-1.39.65-1.34,3.49.15,6.63-1.42,10-2,2.08-1.08,2.69.45,3.08,1.91a59.17,59.17,0,0,1,.53,31.3C157.61,110.49,157.3,110.72,157.07,111Z"/><path class="cls-202" d="M157.07,111c.09-2.88-.3-5.6.5-8.67,2.18-8.33-.8-16.55-2.17-24.77,0-.25-.87-.36-1.33-.54.72-1.14,1.89-1,3-1,1.33.06,2.41.11,3,1.8,3.48,9.21,3.49,18.75,2.66,28.3-.2,2.26-.66,4.53-.67,6.84Z"/><path class="cls-203" d="M144.09,79l-1,1c-.07.24-.15.47-.22.71-3.57,3.33-8.68,3.08-12.66,5.47-4.39,1.43-8.85,2.63-13.3,3.91a4.12,4.12,0,0,1-3.76-1.1c.2-2.56,2.54-2.25,4-2.79,6-2.16,12-4.11,18-6.13,2.65-2.09,5.39-3.75,8.92-2.08Z"/><path class="cls-204" d="M144.06,77.94,135.14,80c-1.1-.1-2.32.17-3-1,2.35-3.59,6.65-3.15,9.94-4.82a8.36,8.36,0,0,1,2.34-.31c1.24.28,2.85.09,2.72,2.13Z"/><path class="cls-205" d="M147.09,76c-.72-1.19-1.93-1-3-1,.42-2.83,3.27-1.9,4.75-3.11,2.69-.86,5.28-2.68,8.26-.91a2.06,2.06,0,0,1,2,1A37.2,37.2,0,0,1,147.09,76Z"/><path class="cls-185" d="M157.07,70.94l-8,2c-1.28.45-1.42-.58-1.38-1.3.48-9.3-6.16-14.48-11.72-20.24-1.47-1.52-3.54-2.47-4.42-4.58-.27-2.69,1.33-4.12,3.49-5.17,7.7,4,12.9,10.51,17.4,17.58,2.07,3.26,4.57,6.51,4.65,10.71Z"/><path class="cls-142" d="M157.07,70a77.39,77.39,0,0,0-22-28c-.52-1.8.54-2.54,2-3,4.57-.27,6.39,3.88,9,6.23a49.88,49.88,0,0,1,14.39,21.88c.17.53-.26,1.25-.42,1.88C159.35,70.16,158.17,70,157.07,70Z"/><path class="cls-177" d="M137.1,39l-2,3c-.76,1.81-3.06,2.68-3.05,5-1.74,3.36-3,7.13-7.09,8.52a2,2,0,0,1-1.53-1.43,3.74,3.74,0,0,1,.77-3.24c4-4.92,6.62-10.91,11.84-14.85l8.69-10.44c.79,2.73-2.53,4.1-1.66,6.5C140.19,33.6,139.19,36.76,137.1,39Z"/><path class="cls-206" d="M136,36c-3.4,6.4-9.07,11.27-12,18-.58,1.24-1,2.62-2.9,2.12L120,55c.35-1,.69-2,1-3,1.39-2,3.67-3.31,4-6a11.79,11.79,0,0,0,5-6l3-4,2-2A2.11,2.11,0,0,0,136,36Z"/><path class="cls-78" d="M165.08,131,164,131a6.72,6.72,0,0,1,2-4A6.47,6.47,0,0,1,165.08,131Z"/><path class="cls-207" d="M119,122c-3.25-3.82-6.73-7.48-8.94-12.07-.54-3.38,1.83-5.07,4-6.88a19.58,19.58,0,0,1,9,2.88c.39.32,1,1,1.1.91,1.22-.88-1.52,3.7,1.2.85,1-1,2.5-.35,3.71.26h0C126.29,113,123.93,118.45,119,122Z"/><path class="cls-208" d="M113.13,88.94l3.93,0a3.61,3.61,0,0,1,1.16,2.52c.21,1.72-.27,3.52.54,5.17a11.26,11.26,0,0,0,.93.9c2.72,1.23,5.61,2,8.43,2.92,1.53.52,3.33.58,4,2.51l-1,2c-5-1.5-10-3-15-4.5-1.17-.37-2.22-.66-3.08.52-3.72-1.15-1.35-4.8-2.83-6.86A2.39,2.39,0,0,1,110.1,92l1-1Z"/><path class="cls-209" d="M111,93c2.46,2.2-.33,5.73,2,8l1,2.08c-.38,2.84-3.35,4.19-4,6.88-1-.27-2-1.58-3,0-2.69-.45-1.24-2.1-1-3.41,1.27-2.08,1.9-4.47,3.06-6.6S109.06,95,111,93Z"/><path class="cls-140" d="M129.09,108c-.65,0-1.52-.24-1.93.08-3,2.41-3.49.09-4.08-2.1C125.31,106,127.51,106.06,129.09,108Z"/><path class="cls-210" d="M130.07,79c-4.07,2.31-8.81,2.71-13,4.52-1.93.83-3.11,0-4-1.68-.76-1.43-1.21-3.14-2.93-3.86a1.66,1.66,0,0,1-.49-1.81c3-5.65,6.14-11.19,11.57-15a5.25,5.25,0,0,1,5.61,4c1.25,3.89,2,7.94,4,11.59C131.12,77.46,130.66,78.34,130.07,79Z"/><path class="cls-133" d="M130.07,79c-1.52-4.61-3.78-8.95-4.54-13.85C125.2,63,123.13,62.2,121,62c-1-3.54,1.41-5,3.94-6.45,4.68-.52,7.8,1.38,10.52,6.84,2.11,4.25,4.21,8.51,6.57,12.63-3,2.16-6.82,2.26-10,4Z"/><path class="cls-211" d="M107.07,82c.66,1.34,1.27,2.7,2,4,.83,1.45,1,2.8-.21,4.09-1.35,1.46-3.1,1-4.67.72a2.25,2.25,0,0,1-1.89-3c.66-2.62-1.24-3.79-2.94-4.48-2.31-.94-4-2-3-4.65s3.11-.53,4.69-.69Z"/><path class="cls-212" d="M125.08,56c-1.4,2-3.64,3.34-4,6-4.16,5-8.81,9.64-11,16-2.61.17-4.82-.12-2.13-3.24,5-5.81,9.07-12.25,13.16-18.68L124,53.93,125.09,55q.5.33.33.66C125.31,55.88,125.2,56,125.08,56Z"/><path class="cls-213" d="M97.12,141V126a1.23,1.23,0,0,1,.86-.41c2.47-.13,1.07,4.69,4.37,3.45,3.66-1.36,7.91-1.52,10.5-5.09,4.16-.08,4,3.58,5.24,6,.71,1.85,3,2.71,3,5-2.12-.19-3.81.94-5.59,1.81C109.71,139.62,103.68,141.47,97.12,141Z"/><path class="cls-75" d="M97,176a3.52,3.52,0,0,1,.12-5h1l1,1-1.16.21C96.38,173.11,97.33,174.7,97,176Z"/><path class="cls-200" d="M118.09,130c-2.12-1.62-2.56-4.64-5-6a17,17,0,0,1-6.28-8.81,2.5,2.5,0,0,1,2.34-1.27c3.86,4.3,6.8,9.25,10,14A2.08,2.08,0,0,0,118.09,130Z"/><path class="cls-214" d="M109.14,113.9a2.11,2.11,0,0,1-2,1.08,6.72,6.72,0,0,1-1.89-.3c-2.71-.58-5.27,2.79-8,.31-2.37-3.8-3.11-.7-4.18,1a9.22,9.22,0,0,1-9-2.32c-.81-.08-.09-3.1-1.88-1.07-1.58,1.81-2.66,4-4.28,5.86-.78.82-1.41,1.91-2.81,1.73a3.55,3.55,0,0,1-1.41-2.37,3.16,3.16,0,0,1,.61-2.32c3.4-3.4,3.08-6.78.08-10.2-.42-1.64.15-3.39-.49-5A3.47,3.47,0,0,0,73.08,98V91.19l.58-.11c.25,1.38.51,2.75.81,4.34,2.79-1.74,1.13-3.74.68-5.6,1.47.06,1.94,1.45,2.9,2.18a6.78,6.78,0,0,1,.79,3.79c.41,8.82,4.17,12.24,12.92,11.69,2.55-.57,4.95-2,7.7-1.35,2.36,1.82,5.18-.6,7.6.8-.23,1-1.57,2,0,3Z"/><path class="cls-215" d="M109.64,174.22a1.45,1.45,0,0,1-1.93.52c-.4-.2-.95-.67-.93-1,0-.9.84-.89,1.42-.65A6.34,6.34,0,0,1,109.64,174.22Z"/><path class="cls-216" d="M106.06,114l1,1c2.07,3,4.52,5.64,6,9,.12,2.31-.65,3.74-3.24,4.09-1.78.23-3.46,1.11-5.22,1.58-3,.8-7.05,3.67-6.21-3.15,0-.12-.84-.35-1.29-.53,0-.67,0-1.34,0-2a1.92,1.92,0,0,0,.42-.86C98.11,115.37,98.11,115.37,106.06,114Z"/><path class="cls-213" d="M106.06,114a8.8,8.8,0,0,1-2.61,1.25c-4.21.54-6.13,2.69-5.47,7,.08.51-.55,1.12-.85,1.69,0-1.33-.06-2.67-.1-4,0-1.65.09-3.3.13-5C100.32,116.34,102.79,111.56,106.06,114Z"/><path class="cls-217" d="M93.06,133l0,1v18c0,4.77,0,9.54,0,14.31,0,1.56.65,3.34-1,4.57a5.28,5.28,0,0,1-1.29-3.65c.07-10.88-.46-21.76.28-32.64A3.52,3.52,0,0,1,92.09,133Z"/><path class="cls-218" d="M92.05,134q0,18.45,0,36.89l-1-.05a9.57,9.57,0,0,1-1-2.23,34.68,34.68,0,0,1-.26-5.76c-.09-1.67,0-3.35,0-5-.12-2,0-4,0-6-.09-3.5-.1-7,0-10.49.06-2.34-.3-4.74.87-6.94A1.08,1.08,0,0,1,92.05,134Z"/><path class="cls-191" d="M91.08,169,91,170.83l-1,0L87.08,169C88.41,167.76,89.75,168,91.08,169Z"/><path class="cls-219" d="M92.05,134h-1c-3.53-2.77-7-5-11.84-2.48-2.56,1.32-5.32-.73-8-1.21-.6-5,4.22-7,5.91-10.81,2.16-2.33,3.09-6,7-6.48,2.59,2.08,6.05,1.55,8.86,3,.3,1,.61,2,.91,3-2.68.67-1.73,2.87-1.79,4.52-.12,3.15,0,6.32,0,9.47C92.08,133.31,92.06,133.65,92.05,134Z"/><path class="cls-220" d="M54.07,77l-4,0,0-1c-1.34-1.46-3.33-1.32-5-2h0a2.11,2.11,0,0,1-.64-2.27c4-7.74,7.51-16,16.64-19.34,3.61,1.74,6.43,4,6,8.6A43.27,43.27,0,0,0,54.07,77Z"/><path class="cls-221" d="M67.08,61a17.69,17.69,0,0,0-6-8c-1.2-1.06-2.65-2-2-4,1.18-.72.95-1.91,1-3L69.05,59c-1.16.71-.92,1.85-.93,2.92Z"/><path class="cls-222" d="M61.09,43c-1.4-1.95-3.65-3.32-4-6a48.13,48.13,0,0,1,25-10c1.64,1.73,3.76.72,5.66,1,1.21.18,3-.39,3,1.59,0,1.6-1.59,1.34-2.7,1.4-8.59.52-16.32,3.77-23.93,7.46C62.15,39.4,60.78,40.57,61.09,43Z"/><path class="cls-222" d="M83.08,27a15.14,15.14,0,0,1,8-2C88.73,26.94,85.94,27.08,83.08,27Z"/><path class="cls-223" d="M52.1,31c7.49-5.65,16.17-8.71,25.16-11.42-2.29-1.47-4.17.36-6.18.44,1.79-3.2,5.28-2.3,7.89-2.75,3-.51,6.06-1,9.12-1.24-.64,1.81-.64,1.81,2.58,3.15-12.86,2.95-26.07,5-36.6,13.84A3.44,3.44,0,0,1,52.1,31Z"/><path class="cls-224" d="M101.11,90A6.54,6.54,0,0,0,104,93c1.11,1.34.36,2.61-.13,3.9-.62,4.16-3.1,5.75-7.19,5.43-4.37-.33-8.85.63-13.11-1a4.11,4.11,0,0,1-1.32-.78c-1.18-2.32,1.67-3.16,1.84-5a8.47,8.47,0,0,1,.66-1.22A25.55,25.55,0,0,0,88.07,90l0,0C93,85.06,97.68,85.07,101.11,90Z"/><path class="cls-225" d="M111,93c-.44,2.62,1.13,5.5-1,7.9-3.09-2.14-3,.84-3.87,2.38-1.74,3.16-3,3-5.22-.45,3-2.33,2.36-7.13,6.16-8.87,1-.62,1.44-2.18,3-2Z"/><path class="cls-226" d="M101.11,90c-4.35-4.92-8.7-2.07-13.06,0-.45-3.85,4.24-3.62,5.18-6.53.37-1.14.81.11.86.55a1.91,1.91,0,0,0,2.78,1.82C101.28,84.26,101,87.25,101.11,90Z"/><path class="cls-227" d="M86,90a7.47,7.47,0,0,1-5.59.93,2.74,2.74,0,0,1-2.27-2.24c-.32-1.52.2-2.53,1.87-2.7,1.39-.48,2.6-2.77,4.27-.43A14.13,14.13,0,0,1,82.86,88c1.27-.28.71-1.61,1.37-2.19a1.35,1.35,0,0,1,1.84.24Z"/><path class="cls-228" d="M107.09,94c.06.15.22.38.17.44-2.15,2.78-2.19,7.08-6.16,8.55a.88.88,0,0,1-1.25-.15,1.15,1.15,0,0,1,.51-1.22c4.1-.34,1.12-4.08,2.71-5.62.32-1,.65-2,1-3Z"/><path class="cls-229" d="M86.07,86l-2,0h0c-1.32-1.81-2.69.39-4,0A6.52,6.52,0,0,0,81.12,82C85,80.63,85.4,83.46,86.07,86Z"/><path class="cls-230" d="M88.07,90c-.33,2.06-1,3.94-3,5-1.17-1.48.05-2.24.94-3.1a4.63,4.63,0,0,1,.13-.83Z"/><path class="cls-231" d="M92.05,108.91c-11.73.24-15.7-4.56-14-16.91,1.42.92,1.8,3.24,4.07,3,.33.4.63,1,.35,1.34-2.61,3.06-1,4.5,2,5.63a9.85,9.85,0,0,1,3.16,2.34C88.69,106.24,91.8,106.2,92.05,108.91Z"/><path class="cls-214" d="M87,105a16,16,0,0,0-2.82-1.87C79.74,101.34,78,99,82.12,95A5,5,0,0,1,86,91.9c-.31,1-.63,2.06-.94,3.09h0c-.48,2-2.9,2.79-3,5h0c2.48,1.67,5.36,1.54,8.15,1.88C90.3,104.07,88.74,104.59,87,105Z"/><path class="cls-232" d="M22.1,77l-1,7c-1.42,8,1.22,15.91,1,23.9-.07,2.11.65,4.26-.94,6.12-1.77,1.31-2.58-.37-3.67-1.18-.15-.94-.29-1.87-.44-2.81.67-6.43-1.5-12.7-1-19.18C16.19,88,17.1,85,16.15,82c-.44-2.51.89-4.74,1.14-7.14C19.51,74.17,21.92,73,22.1,77Z"/><path class="cls-233" d="M16.15,82c1.06.84.93,2,.94,3.2.05,8.09-.32,16.19,1.82,24.17.91,3.36-1.17.67-1.93.61C14.37,100.75,14.51,91.41,16.15,82Z"/><path class="cls-175" d="M21.09,114c-1.35-8.41-1-16.88-1-25.33,0-1.6-.54-3.38,1-4.69V92.9c2.58-4.35,2.19-8.35,2.94-12.05.47-2.35.79-4.55,3.06-5.86-2.13,8.61-2.3,17.37-2,26.15.14,3.62.64,7.23,1,10.84,0,.31,0,.63,0,.94Z"/><path class="cls-234" d="M40,111.91c4.68-2.06,9.18-4.54,14.16-5.89a23.82,23.82,0,0,1,12.65-3.85c1.76.7,1.69,1.8.69,3.1-2.45,1.9-5.5,2.49-8.22,3.81-4.32,1-8.33,2.94-12.61,4a12.13,12.13,0,0,1-4.36.49A3.41,3.41,0,0,1,40,111.91Z"/><path class="cls-235" d="M67.05,103,54.15,106a2.24,2.24,0,0,1-2.06-1c1.93-.89,3.72-2.18,6-2.06l6-1.93c.91.69,2.22-.17,3.07.79A.91.91,0,0,1,67.05,103Z"/><path class="cls-236" d="M40,111.91a2.36,2.36,0,0,1,2.09,1c-1.14,1.77-3.12,2.3-4.81,3.25A9.34,9.34,0,0,1,32,117c-1-.34-2.13-.51-1.87-2C33,112.71,36.46,112.17,40,111.91Z"/><path class="cls-174" d="M30.14,115a2,2,0,0,0,2,1,1.05,1.05,0,0,1,0,1.32,7.63,7.63,0,0,1-4.86,1.5,4.28,4.28,0,0,1-3.1-1.81l-.07-.09C25.86,115.58,28.09,115.6,30.14,115Z"/><path class="cls-193" d="M24.11,117l3,1a9.77,9.77,0,0,1,2.74,4.07c3.36,9.22,9.3,16.67,16.1,23.55,1.6,1.62,3.54,3,4,5.55-.43,1.64-.35,3.67-2.8,3.83l-2-1.06c-9.59-7.94-17.52-17.1-21.58-29.13a10.06,10.06,0,0,0-2.32-3.8C20.85,118.72,23.11,118.32,24.11,117Z"/><path class="cls-237" d="M21.18,121c2.37.22,2.73,2.34,3.29,3.91,3.64,10.27,10.35,18.25,18.36,25.33,1.1,1,2.28,2,2.25,3.69l-2,0c-5.51-3.87-9.26-9.47-13.93-14.16-1-2.29-2.85-4.16-3.1-6.77q-2.43-5-4.85-10.06Z"/><path class="cls-238" d="M15.05,121.9c-2.63-.05-3.28-1.6-2.93-3.89,1.05.58,1.52,1.79,3,2C17.79,120.52,14.8,121.25,15.05,121.9Z"/><path class="cls-222" d="M51.09,39a4.64,4.64,0,0,0-3.66,1.17c-8.3,8-15.2,17-19.34,27.82-3.29-.66-1.64-2.59-.94-4.06,4.78-10.06,10.9-19.08,20.08-25.7A12.12,12.12,0,0,0,49.12,36,3.14,3.14,0,0,1,51.09,39Z"/><path class="cls-239" d="M59.1,49c.55,1.4,2.12,2.28,2,4-8.08,4.91-13,12.24-16,21a8.16,8.16,0,0,1-5-1c-1.15-1.08-.91-2.32.09-4.77-1.49,3.25-3,3.83-5.1,2.78h0c3.9-11,11.2-19.58,20-27C56.44,45.65,57.77,47.32,59.1,49Z"/><path class="cls-240" d="M54.05,42c-8.46,4.76-13.3,12.7-17.94,20.72-1.49,2.57-2.56,5.36-5,7.24a9.61,9.61,0,0,1,1.3-5.67A75.63,75.63,0,0,1,52.07,40,3.2,3.2,0,0,1,54.05,42Z"/><path class="cls-241" d="M67.21,102.1c-1.1-.17-2.36.09-3.1-1.11a17.8,17.8,0,0,1,7-2l2-1c1.67,0,1.6.81,1,1.93C72.44,102.77,70.1,103.3,67.21,102.1Z"/><path class="cls-181" d="M53.38,84.05C55,87.62,52.17,89.51,51.56,92,51.14,89.32,50.38,86.6,53.38,84.05Z"/><path class="cls-185" d="M35.09,71c2.84.66,3.72-2,5.5-3.68L40.1,73C38.33,72.56,36.48,72.34,35.09,71Z"/><path class="cls-239" d="M45.08,74c1.92,0,4-.35,5,2C48.32,75.54,46.47,75.35,45.08,74Z"/><path class="cls-242" d="M91.08,169h-5c-10.55-1.5-20.55-4.53-29.49-10.55-1.61-1.08-3.76-1.79-2.51-4.45.83-1.46,1.21-3.26,3-4,6.51,4,13.1,7.67,20.52,9.91,4.46,1.35,9.3.8,13.48,3.11Z"/><path class="cls-191" d="M54.08,154c3,4.93,8.56,6,13,8.88,5.8,3.78,13,3.26,19,6.12-9.85.08-18.75-3.16-27.38-7.55-2-1-3.83-3.69-6.61-1.47l-1-1C51.43,156.91,52.09,155,54.08,154Z"/><path class="cls-243" d="M47.09,155a5.66,5.66,0,0,0,2-4,14.25,14.25,0,0,1,3.28-5.49c.71-.78,1.29-1.77,2.55-1.76,1,.42.6,1.52,1.09,2.18-2.55,4-5.26,7.94-9,11C47.09,156.31,47.09,155.66,47.09,155Z"/><path class="cls-62" d="M91.08,152c0,2,0,4,0,6-1.82,1.6-4,1.46-6.16,1.13a61.12,61.12,0,0,1-23.09-8.79A5.11,5.11,0,0,1,59.06,147c.39-2.89,3.37-4.27,4.06-7a1.05,1.05,0,0,1,1.39.09c2.82,4.71,7.08,6.87,12.37,8.18C81.61,149.43,86.52,150.09,91.08,152Z"/><path class="cls-244" d="M59.06,147c9.74,6.38,20,11.34,32,11v5c-11.07.24-20.9-3.68-30.24-9.15A9.6,9.6,0,0,1,57.07,150,3.12,3.12,0,0,1,59.06,147Z"/><path class="cls-245" d="M64.09,140h-1l-1.07-1.89c-.08-2.53,2-3.89,3.1-5.81,1.47-1.95,2.47-4.22,4.1-6.06C71.43,124.36,72,121,75.1,120l2-2.06c.84.41.46,1.41,1,2L71.11,130c0,2.17-1.59,3.57-2.48,5.32C67.2,136.94,66.53,139.33,64.09,140Z"/><path class="cls-246" d="M65.94,132.91l-3.89,5.19-1,.83c-1.46.31-1.59-.79-1.86-1.74a6.17,6.17,0,0,1,1.8-4.63,5.32,5.32,0,0,1,2.75-1.87C64.94,131,65.36,132,65.94,132.91Z"/><path class="cls-247" d="M60.06,137a2.08,2.08,0,0,0,1,2l-5,7a2,2,0,0,1-.94-2c-.66-1.82.83-2.91,1.45-4.31C57.59,138.61,58,136.65,60.06,137Z"/><path class="cls-248" d="M143.07,80c5-.76,5.93,2.12,7.63,6.31,3.22,7.9-1.08,14.55-1.65,21.75a19.62,19.62,0,0,1-10-3c-.17-7.45,2.13-14.65,2.21-22.07,0-1.17,1.27-1.89,1.79-2.92Z"/><path class="cls-249" d="M143.07,80c-.92,7.62-1.3,15.31-3,22.83a10.81,10.81,0,0,1-1,2.16c-2.52,0-4.72-1.09-7-2-4.6-1.86-9.7-2.33-14-5,1.77-1.72,3.8-.94,5.62-.34,3.19,1,5.25,1.65,7.34-2.54,2.33-4.67,3-6.13-1-10.13C134.05,82.44,139,82.26,143.07,80Z"/><path class="cls-250" d="M130.05,85c2.43-.18,4.26.19,4.08,3.37-.15,2.58,1.77,5,.51,8-2-1.92-3.67-2.25-3.55,1.28.11,3.17-1.07,3.81-3.91,2.45A20.25,20.25,0,0,0,118.07,98h0c-1.23-1.86.29-4.16-1-6l0-3C121.16,86.91,125.77,86.46,130.05,85Z"/><path class="cls-60" d="M125.08,56c0-.33,0-.66,0-1,3.1-2,3.57-6.27,6.95-8,6.38,3.78,10.53,9.69,15,15.4,2.57,3.31,1.19,7.13,2.07,10.62-1.19,1.87-3.8.14-5,2l-2,0c-4.81-2.06-4.8-7.25-7-11C132.65,60.06,130.68,55.86,125.08,56Z"/><path class="cls-251" d="M114.67,90.55c.55.11.8.1.83.18,1.15,2.69.6,5.32-.43,7.89a2,2,0,0,1-1.24-.07C113.13,95.75,114.1,93.19,114.67,90.55Z"/><path class="cls-249" d="M117.09,92c1.79,1.77.67,4,1,6C116.25,96.23,117.39,94,117.09,92Z"/><path class="cls-252" d="M100.13,102.89a6.24,6.24,0,0,1,1,.08c3,3.3,3.75,1.27,4.47-1.73.27-1.1,0-3.16,2.51-2.87,1.87.22,2.16,1,1.94,2.55-1.29,1.85-1.14,4.41-3,6-2.34-.25-4.63,3.39-7,.07C99.07,105.61,98.83,104.24,100.13,102.89Z"/><path class="cls-132" d="M59.09,108l8-3c2.69-1.75,5.38-4.4,8,.07,7.08,4.9,1,8.78-1,13-.26,3.39-2.77,5.24-5,7.31a2.2,2.2,0,0,1-1.4-.26c-2.94-2.9-5.12-6.42-8.58-9S56,110.79,59.09,108Z"/><path class="cls-253" d="M100.13,102.89l-.06,4.11c-2.89-.28-5.41,1-8,1.91-1.66-1.33-4.17-1.57-5-3.94.48-1.55,2.23-1.75,3.07-2.92a18.34,18.34,0,0,1,9.86,0C100,102.33,100.07,102.61,100.13,102.89Z"/><path class="cls-254" d="M78,119.92a2.09,2.09,0,0,1-1-2c1.46-2.19,2.86-4.42,4.39-6.56.61-.86,1.23-2.38,2.61-1.56s-.27,2.1.08,3.18A35.63,35.63,0,0,0,78,119.92Z"/><path class="cls-255" d="M75.09,105c-2.64-2.83-5.34-.33-8-.07.13-.67,1.1-1.35,0-2a4.11,4.11,0,0,1,.16-.85A19.55,19.55,0,0,0,74,99.91C77.81,100.9,74,103.47,75.09,105Z"/><path class="cls-256" d="M69.06,125c.89-2.88,3.52-4.51,5-7a2.07,2.07,0,0,1,1,2c-1.76,2.23-2.78,5-5.1,6.83A2.12,2.12,0,0,1,69.06,125Z"/><path class="cls-257" d="M64.09,140c1.33-1.66,2-3.9,4-5a66.06,66.06,0,0,0,19.59,4.17A5.36,5.36,0,0,1,91.08,141v11c-7,1-13-2.43-19.46-3.95C67.89,147.14,64.33,144.79,64.09,140Z"/><path class="cls-258" d="M91.08,141c-7-1.88-14.72.08-21.08-4.55-.65-.47-1.28-1-1.93-1.45.24-2.13,1.71-3.52,3-5,1.69-.19,3.35-1.36,5.07.34,1,1,2.28.84,3.58-.08,3.07-2.19,9.36-.87,11.21,2.27.22.38.08,1,.11,1.47Z"/><path class="cls-259" d="M101.06,96c.38,2.92-.71,4.42-3.83,4-.65-.08-1.34.09-2,0-2.82-.48-6.91,1.59-8.12-1.34-.72-1.75,1.59-5.66,3.59-7.4,2.82-2.47,6.42-1.89,9.37.75-1.64,2.19-5,2.33-6.37,4.94C96.72,99.24,98.64,96,101.06,96Z"/><path class="cls-260" d="M101.06,96c-1.66,4.21-5.28,3.08-8.37,2.84-2-.15-1.19-1.51-.46-2.5A10.7,10.7,0,0,1,100.09,92C102.19,92.88,102.12,94.31,101.06,96Z"/><path class="cls-230" d="M100,102.05H90.11c-2.94.35-5.86.6-8-2.06,4.32,1.06,8.74.82,13.12,1.07,4.11.24,7.24-.3,7.87-5.08C102.53,98.25,104.8,102,100,102.05Z"/><path class="cls-230" d="M82.08,100c-1-2.87,1.72-3.5,3-5C85.64,97.59,83.53,98.59,82.08,100Z"/><path class="cls-261" d="M84.08,86c.41,1,1.29,2.05.18,3.15a2.56,2.56,0,0,1-2.73.67c-.51-.19-1.19-.8-1.23-1.27-.12-1.29,1.07-1.41,2-1.74.61-.23,1.2-.54,1.8-.81Z"/><path class="cls-60" d="M60.06,137l-3,3c-1.65-.82-2.67-3.07-5.17-2-1.15.49-2.21-.42-3.08-1.18-6.28-5.52-10.06-12.54-12.3-20.48a1.49,1.49,0,0,1,.53-1.32l5-2,4-.95c4.85,6.85,9.22,14.11,16.21,19.16.49.36.24,1.24-.22,1.79A6.05,6.05,0,0,0,60.06,137Z"/><path class="cls-164" d="M62.09,133c-.25-2.24-2.25-3.51-3.65-4.31a21.75,21.75,0,0,1-10.57-13.74A12.08,12.08,0,0,0,46.1,112l13-4c-3.08,3.48-1,6.07,1.8,8A20,20,0,0,1,68.1,125c.42,3.17-1.31,4.89-4,6Z"/><path class="cls-62" d="M37.09,115c2.6,7.66,5.82,15,12.06,20.46.81.71,1.1,3,3.53.54,1.72-1.74,3.74,1.61,4.43,4,.09,1.72-1.48,2.58-2,4l-2,2a6,6,0,0,1-4.55-1.7c-7.66-7.07-13.81-15.16-16.72-25.37a2.5,2.5,0,0,1,.27-1.92c0-.32,0-.65,0-1A8.73,8.73,0,0,0,37.09,115Z"/><path class="cls-165" d="M32.08,117a67.36,67.36,0,0,0,14,23.57c2,2.27,4.75,3.5,7,5.42-1.32,1.68-2,3.89-4,5-4.17-5.33-9.38-9.7-13.33-15.3A69.07,69.07,0,0,1,27.1,118Z"/><path class="cls-262" d="M64.09,131l4-6,1-.06a1.8,1.8,0,0,1,.94,1.87l-4.06,6.08C64.63,132.93,64.14,132.17,64.09,131Z"/></g></g></svg>