<svg xmlns="http://www.w3.org/2000/svg" viewBox="0 0 185 187"><defs><style>.cls-1{fill:#fdfdfd;}.cls-2{fill:#5c4525;}.cls-3{fill:#594223;}.cls-4{fill:#755530;}.cls-5{fill:#574022;}.cls-6{fill:#574121;}.cls-7{fill:#513d20;}.cls-8{fill:#654b29;}.cls-9{fill:#614a25;}.cls-10{fill:#6c522c;}.cls-11{fill:#5c411c;}.cls-12{fill:#85693d;}.cls-13{fill:#664c24;}.cls-14{fill:#6f532d;}.cls-15{fill:#5d4421;}.cls-16{fill:#523c1e;}.cls-17{fill:#71592c;}.cls-18{fill:#503d20;}.cls-19{fill:#342a1f;}.cls-20{fill:#6a5129;}.cls-21{fill:#94884f;}.cls-22{fill:#8c6b3d;}.cls-23{fill:#aa8a55;}.cls-24{fill:#8a693c;}.cls-25{fill:#7d5e35;}.cls-26{fill:#8f7141;}.cls-27{fill:#947141;}.cls-28{fill:#b5a871;}.cls-29{fill:#baad74;}.cls-30{fill:#d5c88f;}.cls-31{fill:#8a6d3f;}.cls-32{fill:#c4b07b;}.cls-33{fill:#c8b780;}.cls-34{fill:#c7b781;}.cls-35{fill:#917444;}.cls-36{fill:#b09460;}.cls-37{fill:#c8b982;}.cls-38{fill:#b9a16c;}.cls-39{fill:#352b20;}.cls-40{fill:#89693d;}.cls-41{fill:#443b32;}.cls-42{fill:#5c4125;}.cls-43{fill:#403122;}.cls-44{fill:#4c3c29;}.cls-45{fill:#33291d;}.cls-46{fill:#a79b62;}.cls-47{fill:#8e6e40;}.cls-48{fill:#7d5e34;}.cls-49{fill:#b19865;}.cls-50{fill:#cab682;}.cls-51{fill:#6e502d;}.cls-52{fill:#d3c48e;}.cls-53{fill:#afa067;}.cls-54{fill:#9f945b;}.cls-55{fill:#76572a;}.cls-56{fill:#826137;}.cls-57{fill:#967745;}.cls-58{fill:#423619;}.cls-59{fill:#634829;}.cls-60{fill:#6f572c;}.cls-61{fill:#715830;}.cls-62{fill:#b29963;}.cls-63{fill:#654829;}.cls-64{fill:#a09259;}.cls-65{fill:#816137;}.cls-66{fill:#8a6b3e;}.cls-67{fill:#46351f;}.cls-68{fill:#816136;}.cls-69{fill:#72522e;}.cls-70{fill:#7d6749;}.cls-71{fill:#b2a36c;}.cls-72{fill:#45321c;}.cls-73{fill:#86733e;}.cls-74{fill:#b2afa4;}.cls-75{fill:#3d2e19;}.cls-76{fill:#30261c;}.cls-77{fill:#927040;}.cls-78{fill:#69533a;}.cls-79{fill:#af9c67;}.cls-80{fill:#b9aa73;}.cls-81{fill:#b29560;}.cls-82{fill:#4c371a;}.cls-83{fill:#c7b784;}.cls-84{fill:#c6b582;}.cls-85{fill:#bca46f;}.cls-86{fill:#473621;}.cls-87{fill:#41311c;}.cls-88{fill:#bba16b;}.cls-89{fill:#7b5c33;}.cls-90{fill:#8d814d;}.cls-91{fill:#2a1f11;}.cls-92{fill:#685a26;}.cls-93{fill:#51402b;}.cls-94{fill:#423628;}.cls-95{fill:#674a2a;}.cls-96{fill:#775832;}.cls-97{fill:#ac9e63;}.cls-98{fill:#6f502e;}.cls-99{fill:#765e34;}.cls-100{fill:#a6965d;}.cls-101{fill:#cdba87;}.cls-102{fill:#7a643b;}.cls-103{fill:#473c30;}.cls-104{fill:#67582e;}.cls-105{fill:#ada99f;}.cls-106{fill:#c9b682;}.cls-107{fill:#4a3e31;}.cls-108{fill:#574938;}.cls-109{fill:#987c49;}.cls-110{fill:#b0a26a;}.cls-111{fill:#2b2624;}.cls-112{fill:#d2c38e;}.cls-113{fill:#826239;}.cls-114{fill:#866e3f;}.cls-115{fill:#574425;}.cls-116{fill:#4e4336;}.cls-117{fill:#3c3631;}.cls-118{fill:#3e352b;}.cls-119{fill:#7c5b34;}.cls-120{fill:#7a5f32;}.cls-121{fill:#8a693b;}.cls-122{fill:#4e4335;}.cls-123{fill:#4d4021;}.cls-124{fill:#605340;}.cls-125{fill:#5b492a;}.cls-126{fill:#312515;}.cls-127{fill:#443a2f;}.cls-128{fill:#6c4d2c;}.cls-129{fill:#5e5120;}.cls-130{fill:#433420;}.cls-131{fill:#413321;}.cls-132{fill:#7b5c34;}.cls-133{fill:#947d4f;}.cls-134{fill:#877c41;}.cls-135{fill:#523c22;}.cls-136{fill:#a99e62;}.cls-137{fill:#d8cb8e;}.cls-138{fill:#f0ede3;}.cls-139{fill:#efede3;}.cls-140{fill:#e0dcd2;}.cls-141{fill:#a19d90;}.cls-142{fill:#5b4227;}.cls-143{fill:#34291c;}.cls-144{fill:#5b442a;}.cls-145{fill:#5d5346;}.cls-146{fill:#382c1e;}.cls-147{fill:#554b3e;}.cls-148{fill:#312414;}.cls-149{fill:#4e3d28;}.cls-150{fill:#22180e;}.cls-151{fill:#827768;}.cls-152{fill:#524838;}.cls-153{fill:#89693c;}.cls-154{fill:#8b6c3e;}.cls-155{fill:#a1824d;}.cls-156{fill:#a4975f;}.cls-157{fill:#c2bfb4;}.cls-158{fill:#cbc8bd;}.cls-159{fill:#685034;}.cls-160{fill:#3c2e1e;}.cls-161{fill:#6b5337;}.cls-162{fill:#ac8d59;}.cls-163{fill:#c7b17c;}.cls-164{fill:#9f7f4b;}.cls-165{fill:#b0aca1;}.cls-166{fill:#cac7bd;}.cls-167{fill:#70593c;}.cls-168{fill:#665c42;}.cls-169{fill:#ccbd87;}.cls-170{fill:#413320;}.cls-171{fill:#836338;}.cls-172{fill:#c1a873;}.cls-173{fill:#bcaf77;}.cls-174{fill:#7e5e35;}.cls-175{fill:#b2945f;}.cls-176{fill:#2f2512;}.cls-177{fill:#c3b47e;}.cls-178{fill:#483621;}.cls-179{fill:#4a3721;}.cls-180{fill:#4c4135;}.cls-181{fill:#826237;}.cls-182{fill:#b2afa5;}.cls-183{fill:#372a1c;}.cls-184{fill:#969388;}.cls-185{fill:#38322f;}.cls-186{fill:#a8a499;}.cls-187{fill:#624c32;}.cls-188{fill:#423322;}.cls-189{fill:#f4f1e9;}.cls-190{fill:#e1ded4;}.cls-191{fill:#e7e4da;}.cls-192{fill:#eceadf;}.cls-193{fill:#f2f0e6;}.cls-194{fill:#ccc9bc;}.cls-195{fill:#bebaae;}.cls-196{fill:#c7c5bd;}.cls-197{fill:#d7d4c8;}.cls-198{fill:#d1cec6;}.cls-199{fill:#dbd9d1;}.cls-200{fill:#aeaa9f;}.cls-201{fill:#bfbbb0;}.cls-202{fill:#453b30;}.cls-203{fill:#554a3d;}.cls-204{fill:#afaca4;}.cls-205{fill:#463622;}.cls-206{fill:#aca99d;}.cls-207{fill:#433422;}.cls-208{fill:#b9b6ac;}.cls-209{fill:#6c553a;}.cls-210{fill:#9d9a8e;}.cls-211{fill:#b1aea2;}.cls-212{fill:#e8e5db;}.cls-213{fill:#c0bdb3;}.cls-214{fill:#cac8be;}.cls-215{fill:#dfdcd2;}.cls-216{fill:#d7d5ca;}.cls-217{fill:#32291f;}.cls-218{fill:#ece9de;}.cls-219{fill:#ebe8de;}.cls-220{fill:#d7d4c9;}.cls-221{fill:#e6e3d8;}.cls-222{fill:#b3b0a4;}.cls-223{fill:#cdcabe;}.cls-224{fill:#d6d3c8;}.cls-225{fill:#e0ddd2;}.cls-226{fill:#e7e4d8;}.cls-227{fill:#755b3b;}.cls-228{fill:#efede4;}.cls-229{fill:#bfbcb1;}.cls-230{fill:#908a7c;}.cls-231{fill:#503f2a;}.cls-232{fill:#745c3d;}.cls-233{fill:#684f32;}.cls-234{fill:#433320;}.cls-235{fill:#312a24;}.cls-236{fill:#4a4033;}.cls-237{fill:#b0925d;}.cls-238{fill:#e3dfd4;}.cls-239{fill:#d9d6cb;}.cls-240{fill:#d2cfc3;}.cls-241{fill:#c1beb4;}.cls-242{fill:#f0eee5;}.cls-243{fill:#cecbc0;}.cls-244{fill:#e0ddd3;}.cls-245{fill:#e5e2d8;}.cls-246{fill:#edebe1;}.cls-247{fill:#d0cec5;}.cls-248{fill:#2f261b;}.cls-249{fill:#44392e;}.cls-250{fill:#5c4932;}.cls-251{fill:#4b3f30;}.cls-252{fill:#735b36;}.cls-253{fill:#bcb9ae;}.cls-254{fill:#d5d2c7;}.cls-255{fill:#dedbd0;}.cls-256{fill:#c9c6bb;}.cls-257{fill:#e5e1d7;}.cls-258{fill:#5f4426;}.cls-259{fill:#81663e;}.cls-260{fill:#6d502e;}.cls-261{fill:#3c2c19;}.cls-262{fill:#c6c4bd;}.cls-263{fill:#edeae0;}.cls-264{fill:#cbc8bb;}.cls-265{fill:#dedbcf;}.cls-266{fill:#725b40;}.cls-267{fill:#c9c7bf;}.cls-268{fill:#d3d1c9;}.cls-269{fill:#cac8bd;}.cls-270{fill:#382e20;}.cls-271{fill:#d5d2c8;}.cls-272{fill:#917650;}.cls-273{fill:#cfcdc5;}.cls-274{fill:#1e160c;}.cls-275{fill:#362b1e;}.cls-276{fill:#f2efe6;}.cls-277{fill:#6d563a;}.cls-278{fill:#2b2115;}.cls-279{fill:#756148;}.cls-280{fill:#ece9df;}.cls-281{fill:#84683e;}.cls-282{fill:#918264;}.cls-283{fill:#705331;}.cls-284{fill:#f1eee4;}.cls-285{fill:#eae7dc;}.cls-286{fill:#b5b2a7;}.cls-287{fill:#e3e0d4;}.cls-288{fill:#dad7cb;}.cls-289{fill:#9f9c8e;}.cls-290{fill:#d5d1c5;}.cls-291{fill:#684d2e;}.cls-292{fill:#cfcec7;}.cls-293{fill:#513b22;}.cls-294{fill:#dcdad2;}.cls-295{fill:#f6f3ea;}.cls-296{fill:#e4e2d9;}.cls-297{fill:#efece3;}.cls-298{fill:#e4e1d6;}.cls-299{fill:#856f51;}.cls-300{fill:#594731;}.cls-301{fill:#dedbd1;}.cls-302{fill:#f5f2e9;}.cls-303{fill:#453726;}.cls-304{fill:#9d9687;}.cls-305{fill:#c7c4b9;}.cls-306{fill:#c0bdb1;}.cls-307{fill:#bfbdb5;}.cls-308{fill:#cfccc5;}</style></defs><g id="Layer_2" data-name="Layer 2"><g id="Layer_11_Image" data-name="Layer 11 Image"><path class="cls-1" d="M80.09,1.89c.33-.63.66-1.26,1-1.89h22l2,1.91c-2.84,2.51-6.31,1-9.47,1.49-2.25.18-4.51.61-6.78.22a26,26,0,0,0-5.22-.34C82.29,3.18,81,3.1,80.09,1.89Z"/><path class="cls-2" d="M122,6.23c.4.89,1.2,1,2,1,5.5.48,9.91,3.28,14.1,6.56l.95.32a3.42,3.42,0,0,1,3,2h0a10.23,10.23,0,0,1,6,4.09A3.35,3.35,0,0,0,150.09,22,10.36,10.36,0,0,1,156,27.06h0a5.26,5.26,0,0,1,2.95,3l0,0c3.74,2.45,6,6.07,8.06,9.9l.87,1.08a4.53,4.53,0,0,1,2,3.12,2.93,2.93,0,0,0,2,2.86,7.32,7.32,0,0,1,2.17,4.82l.08.1c2.91,2.71,3.51,6.53,4.76,10,.07,1.32.1,2.62-1.43,3.23a2.91,2.91,0,0,1-2.27-1.78c-1.7-3.6-2.7-7.52-4.92-10.89-2.6-4.24-4.51-8.92-7.92-12.65-1.81-2-3.65-4.05-5.28-6.25-2.7-4-7.09-6.17-10.36-9.56a14,14,0,0,1-1.46-1.32,15.42,15.42,0,0,0-3.09-2.3A141.31,141.31,0,0,0,129,13.74c-.88-.35-1.74-.74-2.6-1.14-4.33-2-9-3.19-13.43-4.81-1.48-.54-3.35-.45-4.12-2.3.48-1.75,2.23-.5,3.1-1.31l2,.15c1.07,0,2.17-.14,3.14.51l1.89.37C120.13,5.11,121.25,5.09,122,6.23Z"/><path class="cls-3" d="M49.2,12.05l1.91-1.22c1.66-1,3.35-1.93,5.07-2.8a6,6,0,0,0,.93-.14,20.31,20.31,0,0,1,5.15-1.68h0c.72-1.18,1.82-1.1,3-.91a4.54,4.54,0,0,1,.74,0,1.87,1.87,0,0,1,2.4.92A2.89,2.89,0,0,1,67,8.65c-3.14,2-7.28,1.46-10.2,4s-6.34,3.67-9.58,5.37a10.82,10.82,0,0,1-1.13.67c-1.34.64-2.7,1.25-4,2a8.79,8.79,0,0,0-3.41,2.52c-.4.5-.81,1-1.25,1.44-.91.92-1.83,1.83-2.73,2.77-.45.48-.92.94-1.4,1.39-1.71,1.69-4,2.76-5.31,4.85a6.6,6.6,0,0,1-.9.93,21.57,21.57,0,0,0-3.37,2.81,7.87,7.87,0,0,0-1.92,3.1,8.76,8.76,0,0,1-1.39,2.21c-2.33,2.31-3.53,5.4-5.47,8-1.05,1.38-1.66,3.22-3.69,3.6A2.25,2.25,0,0,1,9.75,53c.15-1.92.41-3.79,2.23-5a.73.73,0,0,0,.24-.76c1.19-1.78,1.68-4.06,3.71-5.26l1.15-2.09A5.21,5.21,0,0,1,19.2,37.1h0c1.71-2.58,3.28-5.28,6-6.94l0,0a4.36,4.36,0,0,1,3-3h0A7.19,7.19,0,0,1,32.85,23l2.25-2.12A41,41,0,0,1,49.2,12.05Z"/><path class="cls-4" d="M183.26,106c-.06,1-.11,2-.17,3-.9,1.63.74,4.27-2,5.17-1.26-1.14-1.34-2.71-1.6-4.22-.3-2.5,1.31-4.73,1.12-7.4-.13.83.09-.26,0,.4-.5,3.36-1.57,7.76-4.86,7.61-3-.14-2.33-4.91-2.37-7.64,0-2.54-1.11-4.38-2.15-6.41-.93-3.45,0-7.11-1.27-10.51-.09-3.94-.65-7.88-.23-11.83a2.56,2.56,0,0,1,3-.72c2.67,2.59,2.26,6.13,2.9,9.34a12.06,12.06,0,0,1,.38,1.43,15.59,15.59,0,0,1,0,5,10.69,10.69,0,0,1-.31,1.36c-1,3.14.14,5.72,2.13,8.26.91-1.46.14-2.63-.11-3.82a5.31,5.31,0,0,1,.54-2.69c.81-2,.54-4.07.43-6.13-.16-1.42-.6-2.79-.76-4.21-.09-1.71-.23-3.43,1-4.88a5.72,5.72,0,0,1,3.4-.57c.69.24,1.27.54.83,1.43,0,1,.09,2,.14,3,.51,1.21,1,2.42.25,3.71-.74.5-1.45.9-1.61-.5-.64.81.34,1.1.55,1.64,1.65,4.38-.8,8.83.31,13-.21.91.7.5,0,.4-.23,0-.27-.18-.22-.45.22-1-.05-2.69,1.91-1.45A18.28,18.28,0,0,1,183.26,106Z"/><path class="cls-5" d="M14.06,142.21,12,139a19.56,19.56,0,0,1-4.79-9.69A3.07,3.07,0,0,1,7.84,128c2.28-.67,2.83,1.19,3.75,2.53.68,1.58,1,3.35,2.28,4.63a11.24,11.24,0,0,1,1.21,1.54c1.18,2.13,2.62,4.1,3.81,6.22a111.2,111.2,0,0,0,18.45,19.83c.73.51,1.45,1,2.14,1.62.52.41,1,.82,1.57,1.2,3.82,2.25,7.36,5,11.5,6.67,2.6,1.87,6.09,2,8.43,4.4a2,2,0,0,1,.34,1.34A3.71,3.71,0,0,1,59,179.51c-.7,0-1.44.07-1.7-.84l-.06,0c-2.43,0-4.21-1.47-6.09-2.71h0c-1.26-.77-3.06-.51-3.91-2.05h0a37.25,37.25,0,0,1-12.09-7.74c-.74-.7-1.48-1.4-2.21-2.11-5.44-2.8-8.52-8.07-12.71-12.18L19,150a9.56,9.56,0,0,1-2.76-4.37A.43.43,0,0,0,16,145C14.62,144.56,14.61,143.2,14.06,142.21Z"/><path class="cls-6" d="M167.89,145.88l-.86,1a9.56,9.56,0,0,1-3.82,5.06l-.1.13a7.2,7.2,0,0,1-4.15,4.72l0,0a5.39,5.39,0,0,1-2.95,3h0c-1.49,2.94-4.22,4.47-6.9,6.05l-.05,0c-.65,1.06-1.38,1.94-2.82,1.33-1-1.7-1.28-3.36.35-4.87a10.37,10.37,0,0,0,2.8-1.55c2-1.88,4.3-3.31,6-5.41a31.64,31.64,0,0,0,3.52-4.78,7.15,7.15,0,0,1,.82-1,22,22,0,0,0,2.92-2.45,21.39,21.39,0,0,0,2.89-4.61,46.21,46.21,0,0,0,3.83-6.7,32,32,0,0,0,2.05-3.23,41.46,41.46,0,0,0,1.94-4.1c1.43-2.48.6-5.38,1.45-8a12.88,12.88,0,0,1,2.34-4.06c.79-1,1-2.45,2.5-2.84,1.23.43,1.35,1.5,1.5,2.57l.06.63L177.06,129c-.45,1.39-.13,3.1-1.73,4-.47.73-.14,1.88-1.21,2.28a6.84,6.84,0,0,1-2.22,4.63l-2,2.82A4.22,4.22,0,0,1,167.89,145.88Z"/><path class="cls-7" d="M83.07,185.09c-2.34-1-5,.38-7.31-1.06-1.27-.72-3-.05-4.08-1.38a1.88,1.88,0,0,1,.55-2.08c4.92-1.23,9.59,1.14,14.41,1,2.94-1.22.42-4,1.61-5.7a3.06,3.06,0,0,1,.8-1.14A1.79,1.79,0,0,1,91.68,176c.16,1.09,0,2.43,1.84,2.16a12.31,12.31,0,0,1,1.92,0c.33,0,.84-.07,1,.12,3.69,6,8.75,1.54,13.19,1.73a19.27,19.27,0,0,0,2-.25c1.53.11,3.18,0,3.78,1.91-2.75,2.17-6.27,2-9.36,3.18l-.45-.15-.42.21A53.52,53.52,0,0,1,83.07,185.09Z"/><path class="cls-8" d="M180,77c-1.64,1.39-.71,3.29-1,5-3.24-.49-1.46-3.46-2.49-5-.07-.66-1.14.15-.49,0,.15,0,.22,0,.25.16A7.93,7.93,0,0,1,175.08,84c-1.5-3.16-1.64-6.6-2-10-2.19-1.11-4.27-.27-6.36.38a5.77,5.77,0,0,1-4.51-1.31c.76-3.52,4-2.61,6.23-3.29s4.41-1.11,5.4-3.56c1.13-.4,2.54,0,3.39-1.23,1.09-.83.8-2.09,1-3.19,2.33.3.83,2.51,1.75,3.51l0,1.68c-1.34,1.17-.56,2.26.13,3.35.93,2,1.61,4,.54,6.2C180.41,76.7,180.22,76.86,180,77Z"/><path class="cls-9" d="M139,172.74a17.82,17.82,0,0,0-6,3.08,12.08,12.08,0,0,1-6,2.94v0c-.39.77-1.06.76-1.77.66a2.61,2.61,0,0,1-1.45-1.43,2.33,2.33,0,0,1,.13-1.33c1.61-2.13,4.3-2.09,6.42-3.22.38-.21.78-.4,1.17-.6,2.1-1.22,4.23-2.39,6.27-3.71,1.59-1.12,2.83-2.3.8-4.13a3.82,3.82,0,0,1-1.34-3c.53-3.77,2.8-1.71,4.56-1.36a13.11,13.11,0,0,1,3.7,7.34C144.39,171.14,141.67,171.92,139,172.74Z"/><path class="cls-10" d="M4,67a18,18,0,0,1,3.16-9c.71-1-.47-3.3,2.05-3.17a6.41,6.41,0,0,1,1.71,3.3,5.73,5.73,0,0,1-.09,3,16.52,16.52,0,0,0-2.53,9.8,4.45,4.45,0,0,1-1.74,3.23,2.07,2.07,0,0,1-1.41.09,3,3,0,0,1-.21-4C6.38,68,3.76,69.62,3.8,68.87A1.72,1.72,0,0,1,4,67Z"/><path class="cls-1" d="M83.07,185.09l22-.16c-1.35,1.7-3.21,2.06-5.24,2-4.9,0-9.8,0-14.7,0C84,187,82.16,187.48,83.07,185.09Z"/><path class="cls-11" d="M84.08,2.15c1.77,0,3.72-1.12,5.22.76a2.82,2.82,0,0,1-1.53,1.82,38.35,38.35,0,0,1-8,1.61c-2.78-.18-5.66.55-8.33-.84A1.07,1.07,0,0,1,71.11,4c1.76.18,3.08-1.74,5-1C78.64,1.78,81.48,3.19,84.08,2.15Z"/><path class="cls-1" d="M183.26,106c-.69-3.08,1.79-5.92.67-9C181.52,93,183.41,89,183.45,85l-.19-4a2.91,2.91,0,0,1,1.7,2.3q.07,10.17,0,20.35A2.89,2.89,0,0,1,183.26,106Z"/><path class="cls-12" d="M1.07,108c.44-1.77-.19-3.42-.6-5.09a1.51,1.51,0,0,1,1.36-.42c0-2.72-1.33-5.68,1.56-7.8a1.54,1.54,0,0,1,1.24.62,31.14,31.14,0,0,1,1.1,11.11,19.59,19.59,0,0,1-.8,2.74,2.84,2.84,0,0,1-.85,1c-1.19.76-1-1.93-2.34-.91C1.07,109.08.59,108.79,1.07,108Z"/><path class="cls-13" d="M94.2,2.16l10.88-.25,5,2.09c-1.29.85-2.7,1.27-4,.33-2.54-1.8.28,2-1.22,1.14a4,4,0,0,1-2.12.55c-2.31-.38-4.63-.71-7-1C94.45,4.5,93,4,94.2,2.16Z"/><path class="cls-14" d="M2,103,.47,102.9A98.71,98.71,0,0,1,1.11,79c-.08-1.44.53-1.37,1.44-.66,1.54,2.81.63,5.63.05,8.45C2.66,92.2,1.57,97.59,2,103Z"/><path class="cls-1" d="M20.18,151.82c5.09,3.17,8.3,8.3,12.71,12.18-1.25.86-2.11.25-3-.69C26.55,159.59,22.34,156.58,20.18,151.82Z"/><path class="cls-15" d="M123.93,177.84l1.15,1c-.35.92-1.44.52-2,1.1l-3,1.19c-1.49,1.57-3.1,2.27-5,.69-1.12-1.3-2.64-.72-4-.89C114.67,177.07,119.08,176.57,123.93,177.84Z"/><path class="cls-16" d="M72.09,181v1.82c-.27.49-.6.53-1,.13h0c-1.92-.82-4.12.4-6-.82L63,180.94c-1.16-1-3.17-.39-3.92-2.13l2.07-.91c1.31-1.18,2.73-.65,4.14-.28,1.56.51,3.12,1,4.67,1.61A4,4,0,0,1,72.09,181Z"/><path class="cls-1" d="M49.2,12.05,35.1,20.84C38.56,15.92,43.13,12.79,49.2,12.05Z"/><path class="cls-1" d="M8,129.13c-.35,4,3.76,6.12,4,9.84-4.43-1.23-3.93-5.8-5.82-8.74-.74-1.15-.75-2.77-1.08-4.17C8.76,124.56,7.12,128,8,129.13Z"/><path class="cls-1" d="M138.08,13.79,124,7.23C128,6.26,135.73,9.85,138.08,13.79Z"/><path class="cls-17" d="M5.37,125c-1.31-1.45-1.17-3.3-1.42-5a3.79,3.79,0,0,1-.72-2.76c.59-2.28-1.14-4.81.74-7l.21-.42c4,2.1,2.51,6.26,3.53,9.48a6.45,6.45,0,0,1,0,1.52C7.19,122.37,7.69,124.5,5.37,125Z"/><path class="cls-1" d="M35.1,166.11c4.44,1.93,8.1,5.1,12.09,7.74A15.15,15.15,0,0,1,35.1,166.11Z"/><path class="cls-1" d="M179.94,65.3c-.58-1.17-1.16-2.34-1.75-3.51l-4-9.81C179.64,54.89,179.22,60.34,179.94,65.3Z"/><path class="cls-1" d="M115.07,181.84c1.77.51,3.36-.34,5-.69a2.5,2.5,0,0,1-2.62,2.43c-4-.37-7.6,1.63-11.51,1.29C108.75,183.16,112,182.7,115.07,181.84Z"/><path class="cls-1" d="M167.05,40,159,30.1C162.56,31,166.9,36.27,167.05,40Z"/><path class="cls-1" d="M139,172.74l6.29-4.71a1.2,1.2,0,0,1,.86-.89L149,166C146.88,170,143.88,172.78,139,172.74Z"/><path class="cls-1" d="M9.09,54.84,7.11,58C6.38,53.5,8.45,50.39,12,48c-.68,1.65-1.37,3.3-2.05,4.94A1.8,1.8,0,0,1,9.09,54.84Z"/><path class="cls-1" d="M25.23,30.15a33,33,0,0,1-6,6.94C19.84,33.58,21.23,30.73,25.23,30.15Z"/><path class="cls-1" d="M149.08,165.93c1.89-2.49,4.44-4.21,6.9-6.05C155,163.38,153.08,165.85,149.08,165.93Z"/><path class="cls-1" d="M183.12,78l-1-1.09c-1.36-.89-.83-2.48-1.35-3.67-.29-1.07-.66-2.11-1-3.16a.89.89,0,0,1,.49-1.06C184.83,70.83,183,74.7,183.12,78Z"/><path class="cls-1" d="M156,27.06,150.09,22C154,21.45,155.45,23.71,156,27.06Z"/><path class="cls-1" d="M181.21,114.31c1.76-1.38.21-3.92,1.88-5.32.43,2.89.73,5.75-1.86,7.93l-.43,0C180.64,116,180.24,115,181.21,114.31Z"/><path class="cls-1" d="M148,20.18l-6-4.09C145.37,15.46,147.39,16.77,148,20.18Z"/><path class="cls-1" d="M71.11,4a2.23,2.23,0,0,0-.31.86c-.4,1.73-1.56,1.4-2.74,1-.77.1-1.57.3-2.1-.54C66.86,1.72,69.12,3.39,71.11,4Z"/><path class="cls-1" d="M3.71,117.13,4,120C.57,118.43,2,115.52,2,113l.65-.25C4.17,114,3.91,115.55,3.71,117.13Z"/><path class="cls-18" d="M5.37,125c1.44-1,0-3,1.56-4,1.35.73,1.51,2.13,1.93,3.39a5.28,5.28,0,0,1,.07,2,2.68,2.68,0,0,1-.63,1.17c-.1.5-.19,1-.29,1.49-1.4-.61-.69-3.22-2.9-3.07C5.2,125.71,5.29,125.37,5.37,125Z"/><path class="cls-1" d="M15.93,42c-1,1.91-1.67,4.08-3.71,5.26C13.32,45.38,11.46,41.45,15.93,42Z"/><path class="cls-1" d="M163.21,152l3.82-5.06C168.17,150.42,165.57,151.11,163.21,152Z"/><path class="cls-19" d="M105.17,4.87c-.35-.34-.84-.61-1-1-.31-.66.28-.73.7-.63,1.73.41,3.4,1.2,5.25.78l1.89.18c-.76,1-1.93.73-3,.91A2.56,2.56,0,0,1,105.17,4.87Z"/><path class="cls-1" d="M32.85,23a16.4,16.4,0,0,1-4.6,4.18C28.71,24.56,29.37,22.21,32.85,23Z"/><path class="cls-1" d="M65.11,182.13c2,0,4.19-.9,6,.82C69,183.35,66.75,185,65.11,182.13Z"/><path class="cls-1" d="M4,67c0,.65,0,1.3,0,1.94a5.57,5.57,0,0,1-.27,3.71,1.39,1.39,0,0,1-1,.65L2.07,73C1.77,70.71,1,68.26,4,67Z"/><path class="cls-1" d="M59.1,178.81A8.57,8.57,0,0,1,63,180.94c-2.09-.28-4.85,1.1-5.71-2.27Z"/><path class="cls-1" d="M127,178.76l6-2.94C131.56,178,130.05,180,127,178.76Z"/><path class="cls-1" d="M51.16,175.91c2.4.07,4,2,6.1,2.71C54.15,180.14,52.72,177.89,51.16,175.91Z"/><path class="cls-1" d="M159,156.83c1.38-1.57,2.77-3.14,4.15-4.72C163.92,155.62,161.59,156.36,159,156.83Z"/><path class="cls-1" d="M174.11,51.88a9.82,9.82,0,0,1-2.17-4.82C174,48.06,175.74,49.21,174.11,51.88Z"/><path class="cls-1" d="M56.18,8a6.25,6.25,0,0,1-5.07,2.8C52.26,8.91,53.8,7.7,56.18,8Z"/><path class="cls-1" d="M16.25,145.6c1.19,1.28,3,2.18,2.76,4.37C16.23,149.69,16,147.82,16.25,145.6Z"/><path class="cls-20" d="M84.08,2.15c-2.53,1.67-5.34.61-8,.83,1.14-1.1,2.73-.57,4-1.09Z"/><path class="cls-1" d="M171.9,139.88c.42-1.7.75-3.44,2.22-4.63C175.82,138,173.87,138.93,171.9,139.88Z"/><path class="cls-1" d="M2,77.81,1.11,79c-1.92-2.35-.08-4.1,1-6l.28.22C3.45,74.84,3.47,76.38,2,77.81Z"/><path class="cls-2" d="M180.26,69a1.14,1.14,0,0,0-.06.94.72.72,0,0,1-1.11.06,2.25,2.25,0,0,1-.81-3c.31-.76,1.07-.23,1.63,0C180,67.65,180.14,68.32,180.26,69Z"/><path class="cls-1" d="M1.07,108l1,1.14A2.77,2.77,0,0,1,2.13,113L2,113C1,111.5-.94,110.11,1.07,108Z"/><path class="cls-1" d="M14.06,142.21c1.13.59,1.46,1.73,1.92,2.78-.85.38-1.72.88-2.42-.22S13.69,143,14.06,142.21Z"/><path class="cls-1" d="M19.2,37.1c-.22,1.3-.66,2.43-2.12,2.78C15.6,37.29,16.93,36.84,19.2,37.1Z"/><path class="cls-1" d="M62.26,6.21A5.24,5.24,0,0,1,57.1,7.89C58.27,5.64,60.26,5.9,62.26,6.21Z"/><path class="cls-1" d="M175.33,133c.7-1.27.37-3,1.73-4C178.3,131.1,178,132.56,175.33,133Z"/><path class="cls-1" d="M71.11,183a2.2,2.2,0,0,0,1-.13c1.16.6,2.8-.28,3.67,1.2C73.93,184.87,72.46,184.17,71.11,183Z"/><path class="cls-1" d="M170,44.2a5.1,5.1,0,0,1-2-3.12C170.22,41.06,171.14,42,170,44.2Z"/><path class="cls-1" d="M159,30.08a7.43,7.43,0,0,1-2.95-3C158.34,26.76,159.33,27.76,159,30.08Z"/><path class="cls-1" d="M28.23,27.15l-3,3C24.83,27.72,25.82,26.72,28.23,27.15Z"/><path class="cls-1" d="M167.89,145.88a5,5,0,0,1,2.05-3.18C171.1,145,170.29,145.93,167.89,145.88Z"/><path class="cls-1" d="M117.1,4.84c-1.09.13-2.19.31-3.14-.51.94-1.31,2.24-1,3.52-.8Z"/><path class="cls-1" d="M47.21,173.85c1.62.08,2.76,1.08,3.91,2.05C49.53,175.76,47.35,176.76,47.21,173.85Z"/><path class="cls-1" d="M123.1,180l2-1.1,1.87-.08C126.3,181.24,124.81,181,123.1,180Z"/><path class="cls-1" d="M156,159.88a7.42,7.42,0,0,1,2.95-3C159.05,158.93,158,159.9,156,159.88Z"/><path class="cls-1" d="M65.22,5.31c-.75,1.06-2,.64-3,.91C62.84,4.58,63.5,3.22,65.22,5.31Z"/><path class="cls-1" d="M122,6.23c-1-.38-2.28.19-3-1C120.82,3.1,121.33,4.83,122,6.23Z"/><path class="cls-1" d="M142,16.08l-3-2C141.11,13.12,141.79,14.25,142,16.08Z"/><path class="cls-21" d="M94.2,2.16c0,1.39.87,1.84,2,2,1.68.52,3.15,1.18,2.37,3.42-1.19,1.49-2.38,0-3.57,0a4.89,4.89,0,0,1-1.66-.79,10.43,10.43,0,0,0-2.72-1.23A4.66,4.66,0,0,1,88,4l1.26-1Z"/><path class="cls-22" d="M163,39.1c3.94,3.51,5.68,8.42,8.19,12.84.65,3.29-1.08,2.82-2.9,1.71-1.37-.82-1.59-2.91-3.42-3.35a3.92,3.92,0,0,1-2.15-1.73c-.48-1.39.25-3.06-1-4.27a2.32,2.32,0,0,0-3-1.2c-1.61.28-3.17,1-4.85.6a4,4,0,0,1-2.62-2.57c-.27-2.57-1.64-4.31-3.69-5.91s-3.7-3.82-1-6.43c2.19.64,2.28,3.42,4.31,4.23C154.4,35.94,157.72,39.41,163,39.1Z"/><path class="cls-23" d="M163,39.1c-3.47,2.35-6.12.17-8.75-1.67A49.28,49.28,0,0,1,150.13,34c-.91-1.46-2.67-2.88-.6-4.64s3.63-.78,5.15.8A24.19,24.19,0,0,0,158,33.05Z"/><path class="cls-24" d="M129.09,13A37.73,37.73,0,0,1,143,20.25c-1.92,3.42-5.73.51-8.11,2.42-2.48-.39-5-.72-6.33-3.31a2.81,2.81,0,0,1,.18-1.46,4.06,4.06,0,0,1,4.39-1.33C131.44,15.88,128.78,16.12,129.09,13Z"/><path class="cls-25" d="M165.05,49c2,0,2.58,1.3,3.22,2.95.73,1.88,2,2.91,2.87,0,2.57,3.26,3.55,7.24,4.94,11-2.9.82-5.86.28-8.79.33-2-3.36,2-2.83,3-4.54C168.07,55.81,163.78,53.84,165.05,49Z"/><path class="cls-26" d="M158,33.05c-1.44-.06-2.33-1-3.28-1.92-1.14-1.09-2.1-2.49-4.13-1.39-2.4,1.3-.27,2.84-.45,4.23-2.1-1-3.28-2.53-3-4.95-.83-.59-1.92-.06-2.75-.64a3.19,3.19,0,0,1-.87-3.94,1.62,1.62,0,0,1,1-.78c.93.34,1.93.91,2.47-.55C150.64,26.41,155.24,28.71,158,33.05Z"/><path class="cls-27" d="M129.09,13c.65,2,2.75,2.12,4.48,3.61L129.08,18a2.55,2.55,0,0,1-3.45,0c-1.24-1.89-4.2-1.53-5.1-3.88a3.22,3.22,0,0,1,.1-1.51c1.8-3.8,4.24-1.18,6.47-.64Z"/><path class="cls-24" d="M127.1,12c-2,.26-4.42-1.82-6,1a3.39,3.39,0,0,1-1.72-.7,18.15,18.15,0,0,0-3.9-2c-3.2-1.29-6.68-1.65-9.84-3A11.83,11.83,0,0,1,104.3,7a4,4,0,0,1-1.22-.66A1.07,1.07,0,0,1,103,5.07l2.16-.2,3.86.22C114.92,7.73,121.61,8.28,127.1,12Z"/><path class="cls-28" d="M167,62.71c3.05-1.17,6.07-1.46,9,.26.38.67.75,1.34,1.12,2-.21,1.18.59,2.89-.84,3.42-1.77.64-1-2.07-2.35-2.3l-.68-.08a6.59,6.59,0,0,0-4.82.19c-1.7.64-2.93.18-3.18-1.84a3,3,0,0,1,.41-1.34A1.38,1.38,0,0,1,167,62.71Z"/><path class="cls-29" d="M144.91,24.2a6.51,6.51,0,0,0-.88-.06c-.91.38-1.7-.09-2.52-.33-2.94-.64-2.85,2-3.81,3.51-1.34,1.62-2.62.83-3.89-.1a3.73,3.73,0,0,1-.63-1.41c-.21-1.75.28-3.12,2.07-3.76,2-3.34,5.48,0,7.79-1.8a3.09,3.09,0,0,1,2.71,1.84C145.39,22.76,145.75,23.72,144.91,24.2Z"/><path class="cls-30" d="M144.91,24.2c.07-.79-1.1-2.08.84-2.12l1.2,1c.14,1.26,1.6,3-.66,3.5C144.61,27,145.26,25.1,144.91,24.2Z"/><path class="cls-31" d="M56.16,12.06c2.85-3.48,7.43-2.54,11-4.31l.55.37c1.07,1.15,1.18,2.74,1.84,4.07,3,.9,5.86,1.44,8.57-.66a7.11,7.11,0,0,1,3-1.46c2.67-.9,5,1,7.57.91,1.38-.27,1.62-2.32,3.31-2.1a3,3,0,0,1,1,1.26,137.8,137.8,0,0,1-.13,20.72c-.87,10.59-.18,21.21-.37,31.82a28.14,28.14,0,0,1-.26,5.95c-.28,1.17-.41,2.8-2.42,2.2-1.47-1.87-1.1-4.09-1.1-6.21,0-15.52-.09-31.05,0-46.56.4-2.17-.64-2.79-2.69-2.8a29.59,29.59,0,0,0-9.53,1.54c-.46.18-.92.32-1.38.45-4.23,1.23-8.75,1.39-12.72,3.55-4.44.88-7.63,5-12.47,4.83a2.45,2.45,0,0,1-1.44-3.16,4.87,4.87,0,0,1,2-2.14,58.44,58.44,0,0,1,6.56-4c2.32-.85,4.65-1.7,6.49-4.14-2.3-.89-4.19.88-6.16.57A2.48,2.48,0,0,1,56.16,12.06Z"/><path class="cls-32" d="M20,42l1.28-2c1.46-1.12,2.82-1.22,4,.39-.46,6.63-3.5,12.06-7.88,16.86-1.8-.87-2.51-2.7-3.61-4.18C16.44,49.67,17.44,45.37,20,42Z"/><path class="cls-33" d="M25,41.19c-.8-1.73-2.4-1-3.71-1.21-.33-1.56.55-2.38,1.82-3A21.28,21.28,0,0,0,27,33.85l-.05.06a15.35,15.35,0,0,1,5.43-4.22,1.22,1.22,0,0,1,1.12.64c.31,3.35-3.07,5-3.66,7.94-.46,1.11-.78,2.28-1.34,3.35-.73,1.1-1.54,2.19-3,1.57C24.63,42.85,24.54,42,25,41.19Z"/><path class="cls-34" d="M51.1,21c-.39.84-1.19.91-2,1-1.13,2-2.92,1.63-4.69,1.36-1.53-.15-2.83.64-4.23,1.06a2.82,2.82,0,0,1-1.29-.11,2.76,2.76,0,0,1-1.2-1.52c.79-1.85,2.43-2.51,4.21-3A9,9,0,0,0,46.09,18h0C50.65,16.14,51.64,16.73,51.1,21Z"/><path class="cls-35" d="M20,42c.12,2.63-3.67,4.35-1.33,7.85.76,1.14-4,.63-4.64,3.15a7.49,7.49,0,0,1-.11,3.52c-1,1.75-.86,4.47-3.86,4.48l0-3c-.91-1.65-.12-2.85,1-3.95C14.82,50.53,15.84,45.08,20,42Z"/><path class="cls-36" d="M51.1,21c.2-4.11-2.45-3.49-5-3,2.67-3.16,7.14-3.24,10.07-5.94l1,.14c.56,1.63,0,3.26,0,4.89Z"/><path class="cls-37" d="M37.72,22.81l1.4,1.25c1.28,2.28,3.76,4.07,3,7.21a3.3,3.3,0,0,1-1.44.58c-2.56-.44-5.33-.06-7.55-1.86h0A1.76,1.76,0,0,1,33,27.78l.87-.93A4.41,4.41,0,0,0,37,23.77Z"/><path class="cls-20" d="M68.06,5.88c.53-1.39,2.16.25,2.74-1l9.43.2c-3.65,4-8.34,3.56-13,3.14l-.08-.47C67.43,7.13,67.75,6.51,68.06,5.88Z"/><path class="cls-38" d="M33,27.78c0,.74.09,1.48.13,2.22L27,33.91C27.74,30.67,31,29.89,33,27.78Z"/><path class="cls-39" d="M11.13,54c-.35,1.31-.69,2.63-1,3.95-1.27-.74-.73-2.07-1-3.13,0-.75-.17-1.59.84-1.91Z"/><path class="cls-38" d="M27,33.85C26,35.3,25.55,37.38,23.1,37,24.07,35.56,25.1,34.16,27,33.85Z"/><path class="cls-38" d="M37,23.77c.12,2.21-.88,3.27-3.12,3.08Z"/><path class="cls-36" d="M46.09,18c-.82,1.87-2.36,2.16-4.16,1.85A7.53,7.53,0,0,1,46.09,18Z"/><path class="cls-40" d="M180,113.88l-1.77,3.21c-.8-.84-1.15-2.19-2.62-2.26a6.33,6.33,0,0,1-.75-.62c-1.41-1.32-2.92-2.6-2.66-4.84-.77,1.31-1,3.36-3.35,2.61a3.31,3.31,0,0,1-.61-2.09c.36-2,.61-4,1-6,.89-2.34.7-5.13,2.89-6.93,1.95,1.18,3.1,2.39,2.56,5.19-.49,2.52.36,5.31,1,8,1.58-3.51,5.64-5.67,4.73-10.34.61,3.54,1.1,6.93-.27,10.22C180.67,111.41,180.94,112.67,180,113.88Z"/><path class="cls-41" d="M167,74c2-2.77,4-.72,6,0l-3,0a104.85,104.85,0,0,1,.48,12c2,5.59.77,11.15-.17,16.72a1.13,1.13,0,0,1-1.55.31,4.56,4.56,0,0,1-1.08-2.43c-.6-7.94.57-16-1.54-23.85A2.89,2.89,0,0,1,167,74Z"/><path class="cls-42" d="M175.08,84c-.08-2.8-.17-5.61,1.49-8.23,3,1.24.22,4.8,2.5,6.24l1,4c-.86,1.16-.39,2.5-.53,3.76a2,2,0,0,1-1.78,2c-1.28.14-2.7.28-2.69-1.71h0a7.67,7.67,0,0,0,0-6Z"/><path class="cls-8" d="M175.06,90c5.52,3.47,2.94-3.15,5-4-.4,2.35,1,5-1.12,7.06-1,.34-1.45.9-.86,1.94,4.38,1.58-.33,4.14.61,6.16C175.83,97.93,172.2,95,175.06,90Z"/><path class="cls-43" d="M183.45,85c1.17,3.93.45,7.94.48,11.91-.43,1-.86,2-1.31,3.08-2.87-5.46.63-11.39-.94-17.31Z"/><path class="cls-44" d="M170.05,103c.22-5.67,2.26-11.33,0-17,.32-.44.64-.47,1,0,1.9,3.53.59,7.36,1,11a20.15,20.15,0,0,1-2,7.09.7.7,0,0,1-.32-.71C169.89,103.13,170,103,170.05,103Z"/><path class="cls-8" d="M171.07,86h-1c.85-4-1.44-8,0-12C171.48,77.92,171,82,171.07,86Z"/><path class="cls-45" d="M180,113.88l.18-3.75c1.55,1.09.6,2.81,1.06,4.17-.14.87-.28,1.74-.41,2.61C179.85,116.08,180.17,114.91,180,113.88Z"/><path class="cls-46" d="M178.08,95c-1.07-.46-2.36-1-1.55-2.38s1.61.15,2.41.44C178.65,93.68,178.36,94.33,178.08,95Z"/><path class="cls-8" d="M175.08,84a4.53,4.53,0,0,1,0,6Q175.07,87,175.08,84Z"/><path class="cls-8" d="M181.2,72.67c1.32,1.18.88,2.75.93,4.21-.62,1-1.31,1.21-2.09.15l.07-.11C181.24,75.7,179.88,73.84,181.2,72.67Z"/><path class="cls-47" d="M37.16,163.86c-7.43-6-14.1-12.63-19.16-20.78,1.45-1.66,2.94,1.21,4.4-.06a6.47,6.47,0,0,1,2.66.26,6.66,6.66,0,0,1,4.05,3.46c1.89,4.38,5.6,6.85,9.32,9.36C38.51,158.77,37.68,161.29,37.16,163.86Z"/><path class="cls-48" d="M52.07,173c-4.55-1.38-8.19-4.32-12-7,1.46-1.7,3.68-1,5.44-1.79,1.7-.36,2.55-1.88,3.83-2.81,1.47-.55,2.84-.6,3.89.83-.91,2.2-.32,3.63,1.94,4.66,1.6.74,4.2.6,4,3.51C57.2,172.31,55.28,174.42,52.07,173Z"/><path class="cls-49" d="M22.18,144c-1.75,1.35-2.6-1.48-4.18-.9a16.6,16.6,0,0,1-3.65-6.17c2.16-1,2.89.74,4.23,2.48-2.47-5.06-.87-10.26-2.73-14.91.76-1.41,1.9-1.42,3.2-.89,1.78,3.2,4,6.19,4.51,10-.49.93-2.59,1.09-1.21,3,.92,1.24.61,2.81.27,4.27C22.43,141.86,22.78,143,22.18,144Z"/><path class="cls-50" d="M16.08,125a2,2,0,0,1,2,2.31c-.22,4.22.52,8.38,1.14,13.19l-4.83-3.55-1-1a8,8,0,0,1-1.67-4.5c.48-1.46,3.35-.63,2.89-2.58-.42-1.77-2.37-1.13-3.74-1.2A3.32,3.32,0,0,1,8.57,127c-.12-.66-.25-1.32-.37-2C10.8,122.29,13.44,123.59,16.08,125Z"/><path class="cls-51" d="M52.07,173c2.81.07,4.46-2.54,7-3,.94-.53,1.76,0,2.61.26,1.7.78,3.65.39,5.35,1.16a3.94,3.94,0,0,1,1.55,1.48,3.55,3.55,0,0,1-.48,4.1,1.33,1.33,0,0,1-1.31,0c-1.64-2.42-3.36-1-5.08-.1l-.66.13C58,175.85,54.69,175.2,52.07,173Z"/><path class="cls-52" d="M8.57,127a25.48,25.48,0,0,1,4.21-.67c2.55-.15,4.16.89,3.81,3S14.16,132.24,12,131c-.27.44-.58.48-.91.06-1-1.08-1.16-2.85-2.77-3.45A4.42,4.42,0,0,1,8.57,127Z"/><path class="cls-53" d="M37.16,163.86C35.39,161,37,158.53,38.21,156a3.44,3.44,0,0,1,2.9-1.82c3.24.55,2.31,2.24.7,3.5-2.43,1.9-2.21,4.1-1.37,6.55-.23.76-.58,1.3-1.49.81Z"/><path class="cls-54" d="M39,165.08,40.09,164a3.73,3.73,0,0,1,2.3-.32,13.11,13.11,0,0,1,3-.15c.61.3,1,.68.75,1.44-1.75,1.9-4,.81-6,1.05Z"/><path class="cls-51" d="M65.16,178.89l-4-1c-.05-.3-.08-.61-.1-.91l0,0c2-1.22,4-1.66,6,0h0C67.65,178.82,65.69,178.14,65.16,178.89Z"/><path class="cls-55" d="M11.07,131.09A2,2,0,0,1,12,131q.69,2.43,1.36,4.85C11.37,134.86,11.17,133,11.07,131.09Z"/><path class="cls-56" d="M160.09,150.94c-1.26,1.74-2,3.89-4,5a16.41,16.41,0,0,1-3.36.12c-2.81-.43-4.68-3.23-7.75-3,1.06-5.28,6.09-7.21,9.15-10.81,4.56.57,4.11,2.91,2.08,5.83-.71,1.17-2,1.88-2.57,3.27,1.74.5,3.07-.52,4.52-1A2.11,2.11,0,0,1,160.09,150.94Z"/><path class="cls-57" d="M145,152.89c2.2-.43,5-3.12,5.87,1.62.05.29,1.47.33,2.25.48,1.28,2-.25,2.92-1.53,3.88-1,.77-2.3,1.34-1.71,3-.53,1.37-1.7,1.13-2.79,1.1a3.67,3.67,0,0,1-1.15-2.44c.07-2.84-2.06-3.32-4.15-3.84a2,2,0,0,1-.93-.95A3.69,3.69,0,0,1,145,152.89Z"/><path class="cls-58" d="M147.12,159.92l-.05,3.05c-1.65,1.09.23,3-.94,4.17-.29.3-.57.6-.86.89-.59-.24-1.36-.33-1.73-.76-.94-1.11,1.44-4.47-2.52-3.7-.13,0,1.85-1.67.07-2.61-2-1.42-3.64-3-3.8-5.66a3,3,0,0,1,.53-1.32c2-.76,2.56.57,3.09,2l.15,0c1.59.89,3.78,1.59,4,3.43C145.49,162.28,146.72,158.82,147.12,159.92Z"/><path class="cls-59" d="M160.09,150.94l-2,0c-2.2.19-3.94-.07-3-3,1.09-1.95,3.79-4.21-1-5-.52-2.22,1-2.89,2.64-3.41,2.51.27,3.18,2.16,3.7,4.19.15.39.28.79.42,1.19a10.05,10.05,0,0,1,.68,2.41,3.83,3.83,0,0,1-1.45,2.66C160.08,150.33,160.09,150.64,160.09,150.94Z"/><path class="cls-60" d="M176.06,121c-1.39,2.51.63,5.84-1.94,8.07-1.51,0-1.21,2.67-3.1,2.16-1.71-1.37-1.24-3.78-2.59-5.32-.62-1.48-1.37-3-.74-4.64,1.67-1.48,4.06.1,5.73-1.35a2.69,2.69,0,0,1,1.28-.28C175.42,119.77,175.61,120.49,176.06,121Z"/><path class="cls-61" d="M160.09,145c-1.45-1.4-.94-4-3-5-.59-1.62.07-2.64,1.58-3.24,1.38.39,1.69,1.86,2.7,2.62.76.69,1.49,1.39,2.25,2.07s1.73.93,2.49,1.56a6.82,6.82,0,0,1-3,5.05,2.4,2.4,0,0,1-2-1,2,2,0,0,1-1-2Z"/><path class="cls-62" d="M149.86,161.87c-3.14-.85-1-2.12-.11-3,1.24-1.21,3.36-1.63,3.35-3.91,1.12,0,2.28-.2,3,1C154.54,158.49,151.91,159.87,149.86,161.87Z"/><path class="cls-63" d="M166.09,143c-1.36.78-2.43.63-3-1,2.54-2.2,3.21-6.24,7-7.19a.69.69,0,0,1,.29.77c-.1.25-.19.38-.28.38C169.37,138.66,168.59,141.31,166.09,143Z"/><path class="cls-64" d="M176.06,121l-1-.9a3.19,3.19,0,0,1-.85-2.61,3.37,3.37,0,0,1,1.38-2.41l.69-.21c2.51-.86,1.63,1.23,2,2.27C177.48,118.37,176.1,119.29,176.06,121Z"/><path class="cls-65" d="M171.08,131a23.82,23.82,0,0,1,1.89-2.67c1.27-1.37.88.26,1.15.71a6.33,6.33,0,0,1-2,4,.94.94,0,0,1-1.27,0A1.66,1.66,0,0,1,171.08,131Z"/><path class="cls-66" d="M161.1,147a2.07,2.07,0,0,1,2,1,3.27,3.27,0,0,1-3.07,2C160.41,149,160.75,148,161.1,147Z"/><path class="cls-60" d="M171.08,133l1,0a3.11,3.11,0,0,1-2,3l0-1a1.55,1.55,0,0,1-.24-2A.92.92,0,0,1,171.08,133Z"/><path class="cls-67" d="M93.09,179c-.78,1.08-1.61.83-2.34,0a1.19,1.19,0,0,1,.32-2c-1-9.47,0-19-.94-28.51-.49-4.95-1-10.21.24-15.27a14.93,14.93,0,0,0-.44-7.36,20.71,20.71,0,0,1-.15-3c0-1.71.38-3.47-.38-5.13-.32-.25-.64-.49-1-.71s-.73-.38-1.09-.57A12.37,12.37,0,0,0,81.81,115a3.17,3.17,0,0,1-1.81-.86c-.19-2.33,2-3.43,2.78-5.24,2.43-1.41,5.38-.6,7.85-1.83a11.18,11.18,0,0,1,2.56-1c3.12-1,5.86,1.41,8.92,1a3.61,3.61,0,0,1,2,.63,2.53,2.53,0,0,1,.56,2,13.49,13.49,0,0,1-2.83,4.89,8,8,0,0,1-4.33,2.15,4.56,4.56,0,0,1-2-.1,6.22,6.22,0,0,1-1.13-.55c-2.55,2.56.62,5.11,0,7.67.09,9.18,0,18.35,0,27.52a16.56,16.56,0,0,0,.66,6.06,63.48,63.48,0,0,1,0,13.29C94,173.29,95.21,176.56,93.09,179Z"/><path class="cls-68" d="M123.93,177.84A61.86,61.86,0,0,0,111.07,181c-4.85.85-9.65,2-15.24,2.09,1.32-2,2.31-3.95-1-4.12a2.12,2.12,0,0,1,0-2.11,7.08,7.08,0,0,1,3-1.86c3.21-2.16,6.46.5,9.69-.1,2-1.07,4.24-.48,6.26-1.21a3.59,3.59,0,0,0,.94-3.63,2.15,2.15,0,0,1,.47-1.27c2.51-1.16,4.9-2.78,7.9-2.11,1,.71,1.09,2,1.86,2.78,2.82,2.92,1.77,5.32-.9,7.55A2.93,2.93,0,0,1,123.93,177.84Z"/><path class="cls-69" d="M72.09,181,70,180c1.15-1.83-.46-5,2.86-5.79a10.18,10.18,0,0,1,4.86.64c2.53.75,4.54.23,6-2a2.24,2.24,0,0,1,1.94-.35,1.53,1.53,0,0,1,.82,1c.1,1.62-.64,3.29.3,4.85.34.53.71,1,1.06,1.56.42,1,1.27,1.88.3,3C82.68,183.32,77.47,181.43,72.09,181Z"/><path class="cls-70" d="M91.05,124.93c2.65,5.62-.09,11.42.54,17.24,1.08,10,.47,20.18.53,30.28,0,1.48-.13,3-.23,4.44,0,.09-.22.23-.35.24a1.51,1.51,0,0,1-.47-.15c.05-1.3-.55-2-1.87-1.95-1.82-1.84,1.3-3.88-.24-5.75-.4-13.37-.27-26.74-.19-40.1C88.78,127.52,88.47,125.36,91.05,124.93Z"/><path class="cls-71" d="M89.93,171c1.4,1.64-1.56,2.49-.73,4a5.43,5.43,0,0,0-.23.88c-1.25,1.1,1,3.79-1.91,4.16L86,179a6.7,6.7,0,0,1,0-5c.07-.32.15-.63.23-.94a2.34,2.34,0,0,1,.78-1.75C87.94,170.64,88.85,169.92,89.93,171Z"/><path class="cls-72" d="M95.21,176.89l-.39,2-1.73.07c.44-2.67-1-5.58,1-8a1.36,1.36,0,0,1,1.44.53A4.72,4.72,0,0,1,95.21,176.89Z"/><path class="cls-73" d="M87.06,180.07c1.59-.95.43-3.16,1.91-4.16-1,2.23,2.7,5-.8,6.94Z"/><path class="cls-74" d="M167,74c2.4,8.89,2.34,18,1.92,27-.06,3.36,0,6.73-1.05,10-.63,1.85-1.3,3.67-3.7,3.81-2.61-.17-5-1.36-7.54-1.81-1.5-.26-2.74-1.07-2.78-2.87a2.26,2.26,0,0,1,1.27-.82c2.78.18,4.12-1,4.6-3.9,1.38-8.43-.4-16.88.44-25.3.27-2.72-1.78-2.74-3.78-2.33a4.66,4.66,0,0,1-3-.31,1.38,1.38,0,0,1-.66-1.29A3.43,3.43,0,0,1,155.53,74c2.05-.15,4-1.13,6.09-1l.67.12C163.9,73.24,165.66,72.47,167,74Z"/><path class="cls-75" d="M156.06,75l-2.64,1.07c-2.74,1.19-5.44,2.84-8.45.7-.26-2,1.33-2.55,2.71-2.9,2.74-.71,5.18-2.19,7.87-3a18.46,18.46,0,0,0,3.92-1.25,6.47,6.47,0,0,1,1.31-.34c1.76-.22,3.54-.42,5.3-.67,2.88-.22,5-2.67,8-2.66l-.06.1c.36,2.8-.2,4.22-3.7,4.5-2.63.2-5.79.38-8,2.57l-.09-.08C160.12,73.61,157.93,73.83,156.06,75Z"/><path class="cls-76" d="M181.2,72.67c-.44,1.4.43,3.13-1.09,4.26.22-2.4-.48-4.66-1-6.94l1.11-.06C181.59,70.45,181,71.7,181.2,72.67Z"/><path class="cls-77" d="M124.06,177l-.49-.06c4.51-3.53-.54-6.6-.48-9.92a1.48,1.48,0,0,1,1.24-.23c1.46.9,2.89.48,4.32-.11s2.75-1.7,4.47-1c1.88,1.22,4.08,2.08,5,4.38a26.52,26.52,0,0,1-7,3.93Z"/><path class="cls-78" d="M138,155.1l3.09,5.86c-.59,1.59-3.14-2.14-3.1,1.14a1.44,1.44,0,0,1-1.22-.36,6.83,6.83,0,0,1-1-3.08,4.92,4.92,0,0,0-2.38-3.38c-3.05-2.42-4.51-6.11-7.14-8.87-1.12-1.29-2.16-2.63-2.17-4.46a3.19,3.19,0,0,1,.74-2,1.48,1.48,0,0,1,1.83.24C130.22,145.33,135.38,149.26,138,155.1Z"/><path class="cls-79" d="M137.31,161.78a6,6,0,0,1,.68.32c.34.72.48,1.68,1,2.1,3.44,2.58,2.72,4.41-.89,5.85-2-1-4.15-1.78-5.21-4l.39-.51a5.59,5.59,0,0,0,3-2.95A1.89,1.89,0,0,1,137.31,161.78Z"/><path class="cls-80" d="M10.06,61c1.72-1.22,2-3.3,3-5,1.89-.36,2.69,1.06,3.63,2.24.43,2.36,2.29,5-1.08,6.7-3.61.08-5.32,2.22-6,5.52-.7.88-1.47,1.39-2.52.51C6.43,67.14,7,63.68,10.06,61Z"/><path class="cls-81" d="M7.17,71a2.1,2.1,0,0,0,2.09-1.24,1.43,1.43,0,0,1,2.15,1c-.35,1.64.2,3.19.51,4.76a50.94,50.94,0,0,0-1.55,11.73c0,1.84.09,4.21-2.92,4.14-2.15-4.23-1-9-2.28-13.4A4.44,4.44,0,0,1,6.08,74C6.44,73,6.81,72,7.17,71Z"/><path class="cls-12" d="M6.08,74c0,1.3,0,2.6-.08,3.9.46,4.27-.49,8.59.35,12.86a1.79,1.79,0,0,1,0,1.47c-.74.85-1.55,1.43-2.69.67a5.06,5.06,0,0,1-1.45-5c.85-3.67.48-7.39.92-11.07C3.3,75.57,3,74,5,73.89Z"/><path class="cls-82" d="M5,73.89c-1.08.81-.84,2-.9,3.11-2.67-.77-1.4-2.55-1-4.09.32-1.32-.73-2.93.86-4,.66.54,1.78-2.66,2,.16C6,70.65,5.34,72.28,5,73.89Z"/><path class="cls-83" d="M67.19,8.22l13-3.14L88,4c1.06.15,2.25-.11,3,1a4.25,4.25,0,0,1-1.47,2.32c-1.8,3.61-5.48,2.89-8.51,3.7l-2.92,1.09c-3.17,2-6.5,1.93-9.9.7Z"/><path class="cls-84" d="M7,120.12c-1.66-3.22-.83-7.14-2.84-10.27,0-.94,0-1.89,0-2.83,1.24-.4,1.23-2.55,3-2.17,1.2,2,2,4.24,4.16,5.54a12.52,12.52,0,0,1,2,2.61c0,1.85-2.2,2-2.61,3.48a9.16,9.16,0,0,1-1.36,2.94C8.71,120,8,120.62,7,120.12Z"/><path class="cls-85" d="M7,105c-1,.59-1.36,2.09-2.84,2C5.59,103,3.29,99,4,95a1.14,1.14,0,0,1,.24-1.79c.62-.38,1.23-.77,1.84-1.16a2.2,2.2,0,0,1,1.64,1.27,5.14,5.14,0,0,1,.35,2.09c-.22,1.93-.88,3.81,0,5.79A2.87,2.87,0,0,1,7,105Z"/><path class="cls-10" d="M4.25,93.16c-.08.6-.16,1.19-.23,1.79H3.07c-2.25-2.55-.85-5.87-1.82-8.69,1.11-2.74.9-5.6.76-8.45.11-1.53.23-3.06.34-4.59a1.77,1.77,0,0,0,.72-.31c.27,1.39-.54,3,1,4.09C4,82.39,2.08,87.79,4.25,93.16Z"/><path class="cls-86" d="M1.25,86.26C2.5,89,2.54,92,3.07,95c-.88,2.93-.14,5.85,0,8.78,0,.1-.17.2-.26.3L2,103C.5,97.5,1.15,91.87,1.25,86.26Z"/><path class="cls-87" d="M2.13,113l-.06-3.83c1.47-1,1.12,1,1.9,1.14-.76,2.27,2,4.66-.26,6.86C2.44,116,3.74,113.94,2.13,113Z"/><path class="cls-88" d="M103,5.07a8.45,8.45,0,0,1,.19.84l-.45.73c.64.26.9-.31,1.3-.58l1,0c1.93,1.34,5.44,2.43,4.6,4.81s-4.16.19-6.37.42a7.46,7.46,0,0,1-3.88-.62C98.47,10,97.7,9.32,98.06,8c.49-1.81-.72-2.81-1.82-3.87C98.61,3.64,100.8,4.42,103,5.07Z"/><path class="cls-89" d="M73.09,175c-1.35.75-2.61,1.78-1.56,3.37,1.93,2.93-1,1.16-1.51,1.7l-4.86-1.14L67.09,177c1.47-1.05.87-2.61,1-4C70.21,172.48,72.35,172,73.09,175Z"/><path class="cls-90" d="M7,120.12,9.1,119c2.23,2.25,5,1.48,7.59,1.22,1.92.62,3.22,1.61,2.23,3.9-1.07-.11-2.16-.31-2.84.87-2.62.65-5.26-.94-7.88.07a7.14,7.14,0,0,1-1.27-4A4.91,4.91,0,0,0,7,120.12Z"/><path class="cls-91" d="M94,6.07l1.11,1c1.8,1.66-.16,4,1,5.73a3.87,3.87,0,0,1,.18,2.93,7.63,7.63,0,0,0-.56,1.56c-.43,17.53-.07,35.06-.17,52.58-.11,1.44.49,3-.46,4.33-3.21.6-3.16-1.75-3.45-3.8,0-14.22.38-28.43.93-42.65.2-5.26.16-10.55,0-15.83,0-1.05.81-2.8-1.44-2.82h0c-1.37,0-1.75-.87-1.22-1.89C90.8,5.5,92.19,5,94,6.07Z"/><path class="cls-92" d="M95.08,13c-2.52-2,.72-4,0-6,1.78-2.14,2,.76,3,1l1.25,2c0,.22,0,.43,0,.65-.14,1.31-.15,2.66-1.39,3.54C96.68,14.57,96.81,11.58,95.08,13Z"/><path class="cls-93" d="M94,6.07c-1.88.13-4.37-.31-2.81,3,0,1.35.11,2.82-1.92,2.79-1.91-1.92-.93-3.84,0-5.76L91,5C92.06,5.17,93.37,4.67,94,6.07Z"/><path class="cls-94" d="M166.21,63.14A3,3,0,0,1,166,64c-.5.9-1.08,1.64-2.28,1.15-2-1.27-2.43-3.51-3.4-5.41-3.8-7.48-8.45-14.31-14.77-19.92a9.14,9.14,0,0,0-3.09-3.24c-1.72-1.79-3.69-.27-5.53-.42a3.68,3.68,0,0,1-1.32-2.47c.13-2.46,1.7-4.22,3-6.07,1-1.33,2.14-3.06,3.84-2.62,2.14.56.61,2.87,1.21,4.27,1.53,4.82,6.64,7.06,8.43,11.69L154,43.05a22.49,22.49,0,0,1,3.09,2.76C160.61,51.32,166,55.85,166.21,63.14Z"/><path class="cls-95" d="M166.21,63.14c-2.41-6.29-6.49-11.59-10.14-17.14a4.44,4.44,0,0,1,3-2.61,3.72,3.72,0,0,1,1.37.17c2,.82,2.42,2.57,2.66,4.44a2.11,2.11,0,0,0,2,1c1.2,2.66,1.91,5.48,4.72,7.31,3.3,2.15,3.69,4.24-1.17,4.7-1,.1-1.36.82-1.56,1.67A2,2,0,0,1,166.21,63.14Z"/><path class="cls-96" d="M152.11,40.94,142.1,30a6.36,6.36,0,0,1,3-1.93c.84,0,1.62.08,2,1-2.35,2.89-.34,4.58,1.86,5.83A5.75,5.75,0,0,1,152.11,40.94Z"/><path class="cls-25" d="M159.23,43.89c-1.13.6-1.56,2.22-3.16,2.11a3.3,3.3,0,0,1-2.08-3l5.13-1A1.35,1.35,0,0,1,159.23,43.89Z"/><path class="cls-25" d="M163.06,48l-3-3.91a1.35,1.35,0,0,1,2-.12C165.32,44.57,163.66,46.42,163.06,48Z"/><path class="cls-97" d="M162,44l-2,.12a7,7,0,0,0-.82-.2c0-.63-.06-1.26-.1-1.89C161.39,40.74,162.39,41.35,162,44Z"/><path class="cls-89" d="M119.94,11.92,121.1,13l0,1c.55,2.85,3.93,1,5,3,.73,1.16,1.91.94,3,1,0,.34,0,.67,0,1-3.49,2.33-7.1-.69-10.63.26-3-.63-6-1.1-8.92-1.79-2-.34-4.31.22-5.77-1.82a2.27,2.27,0,0,1,0-1.48c1.58-1.82,3.66-1.47,5.47-.81,2.49.91,4.48.22,6.45-1.14A6.56,6.56,0,0,1,119.94,11.92Z"/><path class="cls-98" d="M119,18.06l10,.94c1.57,2,4.21,1.85,6.18,3.05A5.42,5.42,0,0,0,134,26c-5.14-.84-9.23-4.24-14.08-5.82A1.69,1.69,0,0,1,119,18.06Z"/><path class="cls-99" d="M145.07,28.06a3,3,0,0,1-3,1.93c-.24-1.46,1.61-2.63.45-4.54-3.23,2.08-4.61,5.49-6.58,8.42a2,2,0,0,1-1.08.79,2.39,2.39,0,0,1-1.9-.46c-.61-2.16.86-4.16.48-6.31a1.78,1.78,0,0,1,.73-1c1-.09,1.85,1.25,2.86.14,1.61-1.5,2.4-4,5.11-4.14L144,24.14C144.21,25.49,143.69,27,145.07,28.06Z"/><path class="cls-24" d="M126.07,17c-1.51-.37-3-.71-4.53-1.1-1.3-.34-1.42-1-.47-1.93C122.31,15.71,125.39,14.38,126.07,17Z"/><path class="cls-100" d="M99.31,10c3.28,0,6.59-.47,10.92,1.83L105.08,6c3.56,1.62,7.94,1,11,4l0,.83c-1.21,2.75-3.24,3.57-6.05,2.61-2.39-.82-5-.16-7.36-.95C101.18,12,99.12,12.4,99,10Z"/><path class="cls-100" d="M119.94,11.92a4.7,4.7,0,0,1-3.8,1,2.24,2.24,0,0,1,0-3l0,0C117.66,10,119.29,10,119.94,11.92Z"/><path class="cls-101" d="M104.05,6.06c-.08,1.38-.72,2.12-2.18,1.72-.63-.18-1.35-.79-.89-1.29s1.46-.41,2.22-.58A6,6,0,0,1,104.05,6.06Z"/><path class="cls-102" d="M164.09,65.08,166,64c.39,1.94,1.26,2,2.76.9,2.07-1.48,4-1.47,5.31,1.12-2.13,2.27-5.06,2.93-7.83,3.91-2.07-.86-4.13-.38-6.19,0h0a1.73,1.73,0,0,1-2,.27c-.53-1.09.05-1.82.79-2.5C160.51,66.71,162.69,66.68,164.09,65.08Z"/><path class="cls-103" d="M134.2,26.86l-.12,1.37c-1.55.92-2.92.16-4.2-.58a76.56,76.56,0,0,0-20.71-8.49,2.82,2.82,0,0,1-2.3-1.69c.5-1.71,2.36-.39,3.17-1.42l9,2c2.68,2.89,7,2.52,10,4.83A53.18,53.18,0,0,0,134,26,5.27,5.27,0,0,1,134.2,26.86Z"/><path class="cls-104" d="M142.17,22.86c-1.8,1.26-2.37,4-5.11,4.14C137.1,23.57,138.2,21.44,142.17,22.86Z"/><path class="cls-105" d="M90.07,16.05q0,27.44,0,54.85a1,1,0,0,1-1.52-.38c-1.67-4.64-.66-9.44-.84-14.16,0-1.73-.1-3.46,0-5.19s-.07-3.38,0-5.07c0-1.91,0-3.83,0-5.75,0-1.33,0-2.65,0-4,0-1,0-2.06,0-3.09,0-.75,0-1.51,0-2.26,0-1,0-2,0-2.95s0-1.89,0-2.83a16.84,16.84,0,0,0-.16-2c-1.08-2.07-3-1.16-4.43-.94C72.7,23.9,62.55,26.59,54.07,33.57a3.13,3.13,0,0,1-1.25.74c-2.07-.24-3.07-1.58-3.59-3.43a4.5,4.5,0,0,1,.21-2.27c4.2-4.56,10-6.44,15.39-8.92,4.11-1.31,8.43-1.9,12.47-3.46,1.31-.28,2.67-.23,4-.59C84.21,15.54,87.23,13.87,90.07,16.05Z"/><path class="cls-93" d="M89,70.79,90,70.9c1.73-1.2,1-3,1-4.58.09-9.3,0-18.6.12-27.89.13-7.55.64-15.1.77-22.65,0-2.22.93-4.66-.84-6.69,1.86.46,2,.46,2,1.6C93,24.47,93.64,38.27,92.48,52,92,58.35,92.34,64.65,92.11,71c.56,1.23.92,3.23-.72,3-2.81-.47-5.89,1.42-8.45-.9C84.07,69.87,86.28,69.69,89,70.79Z"/><path class="cls-106" d="M57.15,17.09c-1.88-1.64-1-3.27,0-4.89a11.73,11.73,0,0,1,7.94-1.42c.26.05.65,1,.53,1.18C63.33,14.5,60.94,17,57.15,17.09Z"/><path class="cls-107" d="M65,20.85a109.12,109.12,0,0,0-15.44,7.92c-1.21-.1-1.14-1-1.16-1.86A2.55,2.55,0,0,1,50,25C54.34,24.13,57.46,20.3,62,20,63.23,19.6,64.62,18.61,65,20.85Z"/><path class="cls-108" d="M65,20.85c-.75-1.07-1.92-.8-3-.9,3.79-3.12,8.75-2.41,13-4,.56.74,1.84.16,2.23,1.2Z"/><path class="cls-93" d="M90.07,16.05c-3.1-.75-6,1.06-9,.8-1.56-1-3.55.36-5-1,3.94-2.14,8.24-2,12.51-1.9C89.64,14,91.65,13.76,90.07,16.05Z"/><path class="cls-109" d="M89.22,6.12v5.76c-3,2.38-5.23-2.58-8.17-.9C84.32,10.27,87.32,9.11,89.22,6.12Z"/><path class="cls-110" d="M50,25l-.93,1.87c-4.24,1.12-4.51-2-5.1-4.77,1.72-.09,3.47,1.31,5.18-.08C49.1,23.1,48.79,24.26,50,25Z"/><path class="cls-109" d="M68.23,12.77c3.37.79,6.63,0,9.9-.7.08.31.32.8.21.91C76.66,14.57,70,14.41,68.23,12.77Z"/><path class="cls-111" d="M76,15.9c1.66.44,3.59-.56,5,1l-3.74.34L75.06,16C75.37,15.94,75.67,15.92,76,15.9Z"/><path class="cls-35" d="M15.14,63.94c2.5-1.59.14-4,1-5.89a1.24,1.24,0,0,1,.88-1.17C19.12,53.82,20,50,22.91,47.49c1.18-1,.15-2.14.15-3.21,0-1.42-.52-3.2,1.93-3.09,1.22,3.38,2.09,0,3.12-.16,1.74.47,3,1.33,2.65,3.41-3.52,6.21-8.68,11.45-10.87,18.45C17.54,66.25,16.85,66.4,15.14,63.94Z"/><path class="cls-112" d="M17.05,56.88l-.88,1.17c-1.58.14-2-1.38-3.06-2.06A3,3,0,0,1,14,53C16.39,53.22,16.73,55.05,17.05,56.88Z"/><path class="cls-113" d="M30.07,44c.55-1.78-2.52-1.13-2-2.92.08-1.12-.24-2.36.94-3.16a9.19,9.19,0,0,0,1.77-2.3c2-4.9,5.72-5.38,10.17-3.87.22.27.48.67.34.86C38.12,36.89,35.05,41.37,30.07,44Z"/><path class="cls-38" d="M41,31.85c-6.19-2.35-8.18,3.62-12,6,.06-3.29,3.68-4.75,4-7.88a21.28,21.28,0,0,1,8,1q.34.33.18.6C41.21,31.77,41.11,31.85,41,31.85Z"/><path class="cls-114" d="M42,30.9c-.59-2.43-3.9-3.73-2.84-6.84a7.09,7.09,0,0,1,.91-.12c4-.21,5.69,2.78,7.48,5.57A6.52,6.52,0,0,1,48,30.77c.16,1.89,1.44,3.08,2.75,4.25,1.19,1.76,2.84,3.4,1.65,5.83-2.81,1-3.66-1.4-5.06-2.87a19.73,19.73,0,0,0-3.56-4.57A8,8,0,0,1,42,30.9Z"/><path class="cls-115" d="M47,30.09c-2.2-2.19-3.7-5.18-7-6.15.93-1.41,2.39-1.7,3.92-1.84,2.06,1.2,1.76,4.93,5.1,4.77l.54,1.9L50,31C48.73,31.59,48,30.36,47,30.09Z"/><path class="cls-116" d="M42,30.9c1.15.15,2.07.57,2.12,1.93-.69,3.44-3.85,4.87-6,7.05a78.89,78.89,0,0,0-15,21.46c-.56,1.19-1,2.47-2.51,2.89-1.32-.2-1-1.45-1.4-2.21C21.07,55,26.05,49.74,30.07,44l11-12.1a8,8,0,0,0,.11-.84Z"/><path class="cls-23" d="M169.19,112c2-1,1.9-2.91,2-4.75,0-.82.06-1.84,1.14-1.83.87,0,1.81,1,1.38,1.64-2.32,3.72,2,5.07,2.57,7.73l-.28.22c-2.06.3-3.77-1.1-5.76-1.16a3.27,3.27,0,0,1-1.16-.66A1,1,0,0,1,169.19,112Z"/><path class="cls-117" d="M170.05,103c0,.37.06.73.1,1.1a10.76,10.76,0,0,1-1.06,5.88.88.88,0,0,1-1.36-.2,37.61,37.61,0,0,1,1.5-6.79Z"/><path class="cls-118" d="M168.16,110l.93,0c0,.69.07,1.37.1,2.06a7.67,7.67,0,0,0-.32.84c-.2.62-.49,1.21-1.26,1.14-1.14-.1-1-1-.94-1.75A15.58,15.58,0,0,1,168.16,110Z"/><path class="cls-40" d="M168.16,110l-.87,2.06c-.64-.2-.73-.55-.28-1l1.92-10,.3,2C168.88,105.33,168.52,107.66,168.16,110Z"/><path class="cls-119" d="M41.15,154.75,38.21,156c-4.61-.12-7-3.51-9-6.8A18.43,18.43,0,0,0,25.1,144a2.25,2.25,0,0,1-.55-2.53c.83-.73,2.17-.66,2.77-1.76,1.74,0,2.64,1.2,3.53,2.39,3.08,4.1,6.83,7.59,10.26,11.37A1.36,1.36,0,0,1,41.15,154.75Z"/><path class="cls-120" d="M25.1,141v3H22.18c-.47-.94-1.24-1.78-1-3C22.49,140.07,23.78,139.77,25.1,141Z"/><path class="cls-121" d="M73.09,175c-1.3-1.58-3.57-.74-5-2l-1-1c-1.82-1.35-4.14.24-6-1l-2-1c-2.15-2-5.59-1.52-7.59-4s-.71-2.94,1.6-3a1.93,1.93,0,0,1,2.29-.34c8.19,4.55,17.35,6.18,26.15,8.9A4.53,4.53,0,0,1,84.06,173c0,3.43-2,4.12-4.83,3.52C77.17,176.08,75.14,175.48,73.09,175Z"/><path class="cls-122" d="M84.06,173c-9.79-1.77-19.4-4.13-28.27-8.85-.86-.46-1.79-.79-2.69-1.17-1.06-1.43-2.56-.95-4-.92-.11-1.43.83-2.43,1.45-3.56C58,160,64.12,164.28,71,166.93c3.21,1.87,6.78,1.66,10.3,1.84,2.13.81,5,.17,6,3.14L86.24,173Z"/><path class="cls-123" d="M50.2,158.73c.86,1.49-.33,2.33-1.05,3.32.19,2.2-.83,3.15-3,2.89-.37-.41-.75-.82-1.12-1.24-.68-4.22,1.56-6.49,5.24-7.79A2.09,2.09,0,0,1,50.2,158.73Z"/><path class="cls-124" d="M18.92,124.09c-.51-1.45-.9-3-2.82-3.17-.2-1,.39-1.38,1.14-1.71a4.06,4.06,0,0,1,3,.28c3.2,4.12,4.8,9,6.42,13.84-.14,1.62.71,3.37-.59,4.85-2.73-.2-3.06-2-2.88-4.21C21.92,130.6,19.09,127.92,18.92,124.09Z"/><path class="cls-47" d="M23.17,134c1.34,1.05.84,3.47,2.93,3.95,1.62,0,1.65.86,1,2,0,1.72-.9,1.58-2,1l-3.9,0a4.42,4.42,0,0,0-.28-4.91C18.64,132.55,21.84,134.11,23.17,134Z"/><path class="cls-89" d="M67.09,177h-6c.93-1.65,2-3.05,4.18-2.91C67.22,174.17,67,175.66,67.09,177Z"/><path class="cls-89" d="M61.09,171c2,.31,4.24-.85,6,1C65.08,171.63,62.83,172.77,61.09,171Z"/><path class="cls-125" d="M41.15,154.75c0-.24-.07-.49-.09-.73a2.05,2.05,0,0,1,1.26-1.56c3.78-.16,5-3.54,7.21-5.72a5.27,5.27,0,0,1,1.22-.75c.91-.3,1.83-.69,2.66.18.76,2.82-1.81,4.15-2.77,6.21-3.81,3.49-5.61,8.35-8.49,12.47L40.09,164c-3.62-2.69-1.8-4.74.72-6.82C41.49,156.59,44.54,156,41.15,154.75Z"/><path class="cls-126" d="M42.15,164.85c1.39-5.07,3.26-9.85,7.91-12.92,1.46-.27,1.53.73,1.6,1.74A3.09,3.09,0,0,1,50,156c-1.87,2.45-4.31,4.52-5,7.73C44.19,164.42,43.4,165.2,42.15,164.85Z"/><path class="cls-127" d="M159,136.91c-.65,1-1.31,2-2,3.05a6.49,6.49,0,0,0-3,3c-2.08,4.18-6.43,6.27-9.1,9.91l-4.07,3.1-2.82-2a1.1,1.1,0,0,1,.06-1.31c8.85-4.83,14.55-12.6,19.75-20.91,2.15-3.43,2.73-7.86,6.49-10.27,2.17,0,2.61,1.33,2.07,3C164.9,129.11,163.38,133.86,159,136.91Z"/><path class="cls-128" d="M155.07,148c0,2,1.73,2.29,3,3-1,2.86-4.1,1.1-5.93,2.53-.66.51-1.25-1.34-.6-2.14A36.53,36.53,0,0,1,155.07,148Z"/><path class="cls-129" d="M147.12,159.92c-.84-.14-1,2.56-2.39.46a44.23,44.23,0,0,0-3.67-4.35C143.87,156.1,147.3,155.2,147.12,159.92Z"/><path class="cls-130" d="M138.24,152.66l-.15,1.3L138,155.1c-5-4.44-8.59-10.08-12.93-15.08-3.42-1.18-3.35-5.13-5.68-7.18a5.28,5.28,0,0,1-.75-2.67,3.69,3.69,0,0,1,1.34-2.39,2.63,2.63,0,0,1,2.51.72c1.47,1.6,2.61,3.47,4,5.1.68,1.07,1.37,2.13,2.11,3.15a34.22,34.22,0,0,0,3,4c.69,1.09,1.43,2.15,2.18,3.2,1.38,2.35,3.13,4.44,4.62,6.71A2,2,0,0,1,138.24,152.66Z"/><path class="cls-131" d="M174.11,119.94c-1.43,3.72-3.82,1.91-6,1-1.14.74-2.2-.1-3.31-.13-1.31-.34-2.6-.78-3.91-1.17a20.24,20.24,0,0,0-6-1.48,9.7,9.7,0,0,1-2.14-.38c-4.25-2.67-9.24-3.51-13.71-5.65a1.4,1.4,0,0,1,.05-1.46c1.53-1.22,3.46-1,5.21-1.48,6.14-.09,11,4.1,16.89,5,1.76.28,3.44,1.14,5.24,1.44C169,117.06,172.67,116.47,174.11,119.94Z"/><path class="cls-132" d="M165.13,119.93l2.94,1.06,1,5c.31,3.12.58,6.13-3.27,7.6-1.87.71-1.52,3.07-2.5,4.5a3.48,3.48,0,0,1-2.24,1.9c-2.07-.1-2-1.63-2-3.06,2-4.11,4.74-7.83,6.2-12.24.49-1.48.82-2.53-1.17-2.82C163.69,120.8,164.42,120.37,165.13,119.93Z"/><path class="cls-133" d="M174.11,119.94l-8-3c-.63-1-2.58-1.08-2-2.9,2.1.09,1.69-2.24,2.9-3l.27,1c-.26,1.8.68,1.29,1.59.82l.45.23c1.79,1.44,5,.73,5.74,3.77,0,1.05,0,2.11,0,3.17C174.72,120,174.41,120,174.11,119.94Z"/><path class="cls-63" d="M162.11,138c1.26-2.4.7-5.82,4.88-6.5,2.33-.37,0-4.12,2.07-5.53,3.42.57.59,3.65,2,5v2h-1c-1.87,1.45-4.44,2-5.51,4.52A1.49,1.49,0,0,1,162.11,138Z"/><path class="cls-134" d="M172,124.83c-.19-.49-.54-1.06-.43-1.17a1.84,1.84,0,0,1,1.18-.51c.48,0,.9.37.54.88A4.74,4.74,0,0,1,172,124.83Z"/><path class="cls-135" d="M162.11,138c2.52-1.88,3.21-6.65,7.95-5v2c-2.88,1.8-2.79,6.57-7,7l-2-2C161.4,139.31,161.75,138.65,162.11,138Z"/><path class="cls-136" d="M160.09,145c.15-.73-.05-1.77,1.11-1.72a1,1,0,0,1,.81,1.4c-.39,1.18-1.23.47-1.92.32Z"/><path class="cls-137" d="M175.06,116.88c-1.26-2.25-5-.7-5.74-3.77a6.57,6.57,0,0,1,6.64,1.94Z"/><path class="cls-138" d="M80.26,114.4l1.83-.42c2,.71,4.08,1.09,6,1.88a6,6,0,0,0,.83.33c2.69,4.55,0,9.34.6,14-.87,2.45-2.88,1.81-4.6,1.56-2.14-.3-4.26-.72-6.39-1.12-4.81-.89-5.55-2.08-4.87-7.24C74.89,119.66,76.63,116.34,80.26,114.4Z"/><path class="cls-139" d="M97.09,115.9l4-1.81c1.61-1.57,3.1-1.63,4.62.21a17.1,17.1,0,0,1,3.55,6c3.17,7.51,2.55,8.69-5.74,11-5.61,1.54-6.66.95-8.53-4.75C95,122.82,93.31,118.83,97.09,115.9Z"/><path class="cls-140" d="M97.09,115.9c-1.82,3.56-.71,7.38-1,11.08,1,1.33.09,3,.83,4.38,1.29,9.34,1.65,9.55,11.16,6.26,3.53-1.22,7.75-1.86,6.62-7.32,1.76-1.42,2.62.16,3.68,1.09a4.85,4.85,0,0,1,.75,1.33,10.67,10.67,0,0,1,1.9,5c-1.12,4.7-5.68,5.1-9,6.86-2.87,1.52-6.25,2.08-9.41,3-3.5,1-6.23.35-7.45-3.52a19.69,19.69,0,0,1-1-4.23c-.19-6.73.14-13.46-.18-20.19a3.86,3.86,0,0,1,1.21-3.56Z"/><path class="cls-141" d="M89.12,131Q89,123.59,89,116.19l1-.08c1.46,1.77-.21,4.11,1.07,5.92v2.9c-1.68,9-.51,18.13-.82,27.2-.21,6.29-.21,12.58-.3,18.87l-2.61.91c-1.7-1.54-4-1.24-6-2-3.74-.64-7.62-.53-11.18-2.09l-19.94-9c-.05-.92-.11-1.84-.17-2.76l1.06-2a1.28,1.28,0,0,1,1.37-.11C61.65,161.3,72.37,165,83.88,167c4.07.68,4-1.68,3.87-4.38-.06-1.57,0-3.14,0-4.72s0-3.3,0-5c-.06-2,0-3.93,0-5.9s-.07-4,0-5.95c0-1.72-.06-3.43,0-5.15A6.51,6.51,0,0,1,89.12,131Z"/><path class="cls-142" d="M91.09,108c-2.53,1.5-5.25,1.41-8,1a2,2,0,0,1-2,.4c-6.9-4.26-7.89-10.63-6.34-17.89,3.83-1.7,3.64,2.72,5.69,3.73.54,1.18-.06,2.12-.65,3,.17,4.27,4.06,3.84,6.54,5.19A11.4,11.4,0,0,1,91.09,108Z"/><path class="cls-143" d="M120.24,127.66c-.16.88-.24,1.81-1.15,2.31-3.45-1.28-5.55-4-7.26-7-2.51-4.36-6.73-7.72-7.73-13v-2c2.76-2.8,3.4.22,4.62,1.66,1.34,3.18,4.25,5.16,6.11,7.95C116.46,121.05,120.73,123.08,120.24,127.66Z"/><path class="cls-144" d="M104.1,110c4.93,6.71,9.2,13.93,15,20l1,2c-.42.66-.81,1.37-1.8.9a.6.6,0,0,1-.32-.65,4.84,4.84,0,0,0-3.45-3.44,5.46,5.46,0,0,1-2.73-2.77c-.88-2.25-2.88-3.83-3.65-6.15-2.08-2.22-2.09-6.94-7-5.81Z"/><path class="cls-145" d="M95.17,116.14,95.25,141c.65,3.86,1.43,7.71,1.24,11.66,0,2.32,0,4.65,0,7-.14,2.79.08,5.6-.12,8.4a5.32,5.32,0,0,1-.75,2.39L95,171c-.29,0-.58,0-.88,0l-.09-14c-.83-1.77-.26-3.65-.43-5.47V122.29c.41-2.29-1.94-5.11,1.35-6.82A1.44,1.44,0,0,1,95.17,116.14Z"/><path class="cls-146" d="M81.1,109c.66,0,1.32,0,2,.06.76,2.68-2.09,3.48-2.81,5.39L75,122.67a5.63,5.63,0,0,1-2.66,3c-1.6.78-2.74.63-2.91-1.45a3.37,3.37,0,0,1,.81-1.86,26.79,26.79,0,0,0,2.37-3.23c1.62-2.49,3.18-5,5-7.41C78.44,110.55,78.91,108.59,81.1,109Z"/><path class="cls-147" d="M91.09,108c-2.68-.06-3.22-2.81-5-4,3-3.82,6.81-2.27,10.49-1.72a2,2,0,0,1,1.07,2.13C97.09,107,94.52,106,93.09,107Z"/><path class="cls-148" d="M94,122q0,15,0,30c-.31.46-.62.49-.93,0q0-15,0-30C93.38,121.53,93.68,121.52,94,122Z"/><path class="cls-149" d="M108.14,110c-1.37-.62-1.57-3.61-4-2h-2c-.5-1.46.8-1.91,1.5-2.7,1-.8,2-1.81,3.53-1.58,2.64,1.08,3.19-2.46,5.36-2.44,1.23-.13,2.38-.09,2.85,1.37C113.05,105.19,111.54,108.51,108.14,110Z"/><path class="cls-144" d="M104.09,106l-2,2c-3.25,1.9-5.81-2.38-9-1l4-2c1-.63,2.24-.95,3.28-1.6a3.09,3.09,0,0,1,2.57.23A2.72,2.72,0,0,1,104.09,106Z"/><path class="cls-150" d="M94,122l-.9,0c-.4-2.09-1.37-4.08-1-6.29.14-.91-.21-2.22,1.2-2.27,1.19,0,1.57,1,1.69,2C93.67,117.49,94.33,119.8,94,122Z"/><path class="cls-151" d="M88.13,115.86a8.42,8.42,0,0,1-6-1.88C84.33,113.87,86.5,114,88.13,115.86Z"/><path class="cls-70" d="M91.05,122c-1.42-1.78-.51-4-1.07-5.92C91.93,117.79,90.93,120,91.05,122Z"/><path class="cls-72" d="M93.1,152a7.21,7.21,0,0,0,.93,0v5C92.44,155.51,93.32,153.63,93.1,152Z"/><path class="cls-152" d="M124,166.89a4.6,4.6,0,0,0-.91.09l-8,2.94c-1.27,1.58-3,1.86-4.88,1.79-1.72-.45-3.62-.32-5.13-1.51a1.4,1.4,0,0,1,0-1.46c3.12-2.59,7.22-1.89,10.75-3.19,5.1-1.87,9.77-4.69,15-6.34,1.79.06,3.14.48,2.13,2.72-1.25,1.84-3.4,2.42-5.1,3.63C126.59,166.27,125.48,167.1,124,166.89Z"/><path class="cls-153" d="M110,170.91l5-1,.06.2c.3,1.6-2.31,3.14-.09,4.77-2.11,1.7-4.92-1.16-7,1.07a8.66,8.66,0,0,0-1-.73,6.82,6.82,0,0,0-4.07-1.27c-1.2-.07-2.47.06-3.19-1.23,1.29-3.09,4.16-1.45,6.25-2.11C107.43,170.52,108.77,170.19,110,170.91Z"/><path class="cls-154" d="M108.07,174.94c0,.34,0,.68,0,1-1,.41-2.35,1.56-3.17.62-2.19-2.54-4.45-1.11-6.75-.58-1.37-1.1-2.73-2.21-2.09-4.29,1.68-.8,2.9-.08,3.93,1.22l4.12,0C105.24,174,106.9,174,108.07,174.94Z"/><path class="cls-155" d="M115,174.89l-3.56-1.45c.44-2.11,3.22-1.44,3.65-3.32C118.67,171.78,114.28,173.28,115,174.89Z"/><path class="cls-156" d="M96.1,172c.58,1.4,2.22,2.26,2.06,4l-3,.89c-.06-2-.13-3.95-.2-5.93l.41.07a.65.65,0,0,1,1,0A.66.66,0,0,1,96.1,172Z"/><path class="cls-121" d="M86,174c0,1.66,0,3.33,0,5A3.45,3.45,0,0,1,86,174Z"/><path class="cls-157" d="M156.07,77a4.09,4.09,0,0,1,5.08-.52c1.65,1,1,3,.4,4.55a11.68,11.68,0,0,0-.35,6.89c1.83,6.17-.37,12.16-.22,18.24.11,4.57-1.36,5.28-5.91,3.77-.76-7.72,1-15.36.8-23.09C155.8,83.58,155.51,80.25,156.07,77Z"/><path class="cls-158" d="M156.07,77c2.29,3.09,1.31,6.45,1.1,9.87-.39,6.26.2,12.56-1,18.79-.29,1.46-.28,3-1.07,4.27l-1.23.24c-3.49,1.43-6.51-.92-9.8-1.19-1.51-.53-3.15-.93-3.1-3a3,3,0,0,1,2.13-.8c2,.18,3.9.66,5.86.89,2.38.52,3-1.11,2.93-2.83-.34-6.26,1.38-12.41.89-18.67-.22-2.75-.72-5.13-4.42-3.74a17.4,17.4,0,0,1-2.13.52c-1.73.24-3.48,1.11-5.17-.15-.42-1.75,1-2.22,2.05-2.9,3.31-.2,6.38-2.13,9.82-1.36Z"/><path class="cls-159" d="M144.1,107.89l9.75,2.26c2.81,2.89,7.2,1.62,10.26,3.88.62,1,2.13,1.39,2,2.9L144.07,110l-.41-.46A1.34,1.34,0,0,1,144.1,107.89Z"/><path class="cls-160" d="M152.9,76.88l-9.39,2.27c-1.29.2-2.68,1-3.65-.65.84-2.72,2.76-3.16,5.22-2.46,2.76,2,5.56-1.18,8.33.06A3.61,3.61,0,0,0,152.9,76.88Z"/><path class="cls-160" d="M156.06,75c1.61-2,3.81-2.19,6.14-1.94C160.44,74.63,158.25,74.84,156.06,75Z"/><path class="cls-161" d="M145.08,76l-5,1.94c-1.72,2.52-4.67,2-7.07,2.87-2.79.23-5.52,1.29-8.38.73-1.75-1.45-.1-2.07.71-2.91a7.71,7.71,0,0,1,1.32-.65,10.46,10.46,0,0,1,1.37-.45,47.24,47.24,0,0,0,9.89-3.28,9.21,9.21,0,0,1,1.35-.43c4-.64,7.66-2.16,11.4-3.53a38.06,38.06,0,0,1,4.09-.85,3.43,3.43,0,0,1,1.39.16c.81.58,1.4,1.25.87,2.33Z"/><path class="cls-160" d="M160.05,70a5,5,0,0,1,6.19,0C164.18,69.56,162.12,71.05,160.05,70Z"/><path class="cls-160" d="M157,72l-.87-1.73a1.2,1.2,0,0,1,1.77-.47l2.15.18C159.38,71.13,158.11,71.42,157,72Z"/><path class="cls-162" d="M127.19,165.05l4.89-3.1a.77.77,0,0,1,1.16-.09,5.4,5.4,0,0,1,0,4l-.27.14c-1.7-.21-2.51,1.48-3.94,1.84A6.34,6.34,0,0,1,127.19,165.05Z"/><path class="cls-163" d="M127.19,165.05c1.93.1,1.94,1.43,1.81,2.84-1.72-.06-4,2.86-5-1Z"/><path class="cls-164" d="M131.09,174c-.76-.15-1.72-.17-1.5-1.31,0-.26.82-.64,1.15-.56,1.31.33.45,1.19.35,1.86Z"/><path class="cls-165" d="M131.09,160c-8.22,4.26-16.56,8.17-26,9-3.32,1.91-6.63,2-9.9-.12V160c5.33,3.39,10.83,1.59,16.14.16,4.3-1.17,8.33-3.24,12.48-4.92,3.8-1.54,4.69-3.83,2.62-7.33a2.19,2.19,0,0,1,.63-2l7.14,9.05C137.12,159.12,132.9,158.78,131.09,160Z"/><path class="cls-166" d="M127.11,145.92v2c.4,2.13-1.21,2.94-2.62,3.7-7.15,3.9-14.6,7-22.81,7.75-5.58.54-5.86.29-6.07-5.34a1.58,1.58,0,0,1,.57-1.36c8.78.56,16.31-3.11,23.85-6.91,1.8-.9,2.55-2.49,3.72-3.82a.77.77,0,0,1,1.25.2Z"/><path class="cls-167" d="M125,142.18a6,6,0,0,0-.93-.16,3.93,3.93,0,0,1-2.49-1.85c-.55-1.12-.85-2.34-1.38-3.46-.65-1.27-1.29-2.54-1.94-3.8l1.8-.9a34.86,34.86,0,0,1,5,8C125.05,140.74,125,141.46,125,142.18Z"/><path class="cls-168" d="M131.09,160c1.14-1.61,4.36-1.89,3.16-5,1.86.14,2.12,1.77,2.82,3-.91.66-.95,1.77-1.37,2.69-.64.89-1.25,1.85-2.6,1.31l-1,0C132.67,160.82,132.78,159.94,131.09,160Z"/><path class="cls-79" d="M135.14,160c0-1.34.46-2.15,1.93-2.06l.24,3.81-.35.26C135.32,162.32,135.66,160.8,135.14,160Z"/><path class="cls-169" d="M135.14,160l1.82,2c.52,3-.65,4.38-3.75,3.86a2.89,2.89,0,0,1-.11-3.93Z"/><path class="cls-170" d="M19.17,62a2,2,0,0,1,.91,1.92c.55,2.22,2.45,2.73,4.27,3.34a21.09,21.09,0,0,1,5.09,2.26c1,1.63,4.48,1.54,3.37,4.71-2,1.19-3.73-.13-5.57-.66-3.55-1-7-2.85-10.9-1.78a8.75,8.75,0,0,1-1.53.27c-1.34,0-2.67,0-3.61-1.17-.35-.88-1.17-1-1.94-1.19-.37-4.3,1.65-6.16,5.88-5.78C18.06,66.6,18,63.11,19.17,62Z"/><path class="cls-171" d="M7.07,93l-1-1c0-.28,0-.56,0-.85a.64.64,0,0,1,1-.25c2.23-.12,2.08-1.75,2-3.26C9,83,9,78.39,11.27,74.15c1.17-1.32,2.51-1.23,3.92-.46,1.75,3.26-.22,6.5-.07,9.74-1,2.61-.39,5.65-2.13,8.06C11.31,93.09,9.17,93,7.07,93Z"/><path class="cls-172" d="M7.09,90.9l-1,.25C2.83,86.75,5.3,82.31,6,77.88,7.23,82.15,8.55,86.41,7.09,90.9Z"/><path class="cls-173" d="M15.07,73.94l-3.8.2c-.72-.23-1.74-.16-1.8-1.21s.87-1.58,1.73-2l3.88.11C16.59,72,17,73,15.07,73.94Z"/><path class="cls-174" d="M7.07,93a4.26,4.26,0,0,1,5-1,73.21,73.21,0,0,1,3.28,20.72,1.52,1.52,0,0,1-2.27.28,2,2,0,0,1-2-2c-3.72-4.74-2.57-10.69-4-16C7.1,94.32,7.08,93.67,7.07,93Z"/><path class="cls-175" d="M7.11,95c3.23,4.86,2,10.83,4,16C8.25,110,6.57,108.27,7,105,8.18,101.68,4.84,98.31,7.11,95Z"/><path class="cls-176" d="M17,119.93l-.94,1c-2.91,1.44-5.73,2.53-7-2l1-3a1.16,1.16,0,0,1,1.21.17c.82,1.2,1.48,2.65,3.4,2C15.81,118.36,17.27,118,17,119.93Z"/><path class="cls-177" d="M11,115.91a3.09,3.09,0,0,0-.91.08c-.83-2.79,2.62-1.37,3-3L15,113l.42.51c-.05,2.67-2.05,2.33-3.77,2.44Z"/><path class="cls-93" d="M94.13,71q0-25.92-.09-51.83c0-1.44-.4-3,1-4.14A6.6,6.6,0,0,1,96,16.35a13.19,13.19,0,0,1,.45,4c0,1.91,0,3.81,0,5.72,0,1.69,0,3.38.08,5.07.08,1.47,0,2.94,0,4.41,0,6.75-.09,13.49,0,20.23-.38,4.9.76,9.88-.8,14.71A1.12,1.12,0,0,1,94.13,71Z"/><path class="cls-178" d="M82.93,72.91c2.8,1.22,5.68-2,8.58.16.33.24.47-1.35.6-2.11,1.26.74.76,3.18,2.94,3a5.54,5.54,0,0,1,5.16-1.65,2.31,2.31,0,0,1,1,.79c.31.91-.36,1.5-.74,2.19a19.86,19.86,0,0,0-.74,2.13,2.08,2.08,0,0,1-.75.86,1.92,1.92,0,0,1-1.14,0,6.63,6.63,0,0,1-1.38-1.09c-.32-.25-.64-.49-1-.71a9.5,9.5,0,0,0-3.83-.16c-1.89.18-3.74.89-5.68.46-2.36-1-6-.26-6.27-4.36C81.05,70.93,82,72,82.93,72.91Z"/><path class="cls-179" d="M100.78,73l-5.73,1c-.3-1-.61-2-.92-3l1.05,0A2.47,2.47,0,0,1,97,70.21,6.71,6.71,0,0,1,101.09,72,.74.74,0,0,1,100.78,73Z"/><path class="cls-93" d="M104,14c0,.33,0,.66,0,1a3.78,3.78,0,0,1-2.3,1.16c-2,.09-4.12.5-5.75-1.25L95.08,13c1.92-2.66,2,.77,3,.93C100.09,12.53,102.06,12.28,104,14Z"/><path class="cls-180" d="M96,14.94l6.17.09c.81.69,1.9,1.32.52,2.47A8.89,8.89,0,0,1,95.08,16c0-.33,0-.66,0-1A6.54,6.54,0,0,1,96,14.94Z"/><path class="cls-181" d="M104,14,98.1,14c.09-1.37-.41-2.87.89-4,4.17,2.36,9,1.55,13.41,2.8,2.06.58,2.34-2,3.7-2.82,0,1,0,2,0,3-1.91,2.2-4,3.37-6.92,1.64C107.62,13.65,105.77,14,104,14Z"/><path class="cls-182" d="M164.09,65.08c.32,4.11-3.19,2.13-4.86,3.07l-.63-.32c-3.53-5.39-6-11.42-10-16.53a87.68,87.68,0,0,0-7.45-8c-2.36-2.33-4.53-2.44-6.67.23-.85.5-1.7,1.06-2.68.29,0-3.83,1.93-6.34,5.25-8,2-2,4.05-3.23,6.13-.07.37,1.61,2.22,1.85,2.93,3.16C154.71,45.89,159.63,55.33,164.09,65.08Z"/><path class="cls-183" d="M137.06,35.9,132,44c.2,1.44-.6,2.49-1.39,3.55-1.37,1.62-2.49,3.44-3.86,5.08-1.32,1.95-2.88,3.72-4.13,5.73a53,53,0,0,0-4.92,6.9c-1.06,1.42-2,2.93-3,4.35-2.24,2.59-3.73,5.75-6.17,8.19-1.34,1-2.57,2.47-4.52,1.21-1.88-3.21,1.44-4.84,2.2-7.26,8.57-10.93,16.38-22.43,24.77-33.51A14.36,14.36,0,0,1,135.07,34l.9-.11A2.16,2.16,0,0,1,137.06,35.9Z"/><path class="cls-184" d="M146.12,39c-1.33-.73-3.14-1-2.93-3.16C144.38,36.68,146.08,37.06,146.12,39Z"/><path class="cls-185" d="M103.09,16.88l-1-1.85H104c1.77,1.72,4,.48,6,1-.8,1.17-2.1.86-3.22,1.11A2.54,2.54,0,0,1,103.09,16.88Z"/><path class="cls-186" d="M103.09,16.88l3.73.28c9.75,2.06,18.54,6.48,27.26,11.07,1.6,2.29-.25,3.9-1.12,5.71-.43,1-1,1.68-2.16.89,0-3-1.6-4.71-4.26-6a70.07,70.07,0,0,0-21.69-6.69,12.47,12.47,0,0,1-2.2-.36c-2.39-1-5.28.21-7.42-1.78l-.15-4Z"/><path class="cls-187" d="M131.18,35.17,133,33.94l2.11.05c-8.88,13-18.09,25.75-28,38-1.51,2.08-3,4.23-5.95,2-.11-.31-.22-.63-.34-1a.88.88,0,0,1,.51-.2,20.64,20.64,0,0,0,6.12-6.26c1.9-2.21,3.34-4.77,5.07-7.11a85.9,85.9,0,0,0,6.92-9.89c2.37-3,4.56-6,6.87-9C127.83,38.67,128.87,36.33,131.18,35.17Z"/><path class="cls-182" d="M157.92,69.77l-1.77.47-1.06-.15c.17-2.7,1.74-2.94,3.87-2.21l.27.27Z"/><path class="cls-188" d="M80.05,72.18c.66,3.41,4.41,1.93,6,3.81a10.46,10.46,0,0,1-5.84,4.71c-1.59,0-2.67-.54-2.18-2.34.56-2.07-.41-3.5-1.71-4.86C70.85,66.92,65.77,60,59.92,53.7a19.08,19.08,0,0,1-3.34-3.38c-1.08-1.68-2.12-3.38-3.36-5C52.4,44.06,50.84,43,52,41.11c.86-2.5-1.77-3.84-2-6A7.53,7.53,0,0,1,47.14,31c0-.3-.09-.6-.14-.9,1.51-1.44,1.91.91,3,.89,1,1,2,2.06,2.92,3.1,1.66.71,2.46,2.33,3.73,3.47,1.08,1.33,2,2.82,3.11,4.09,1.63,2.28,2.75,4.92,4.88,6.85,1.1,1.37,2,2.88,3.06,4.29a55.53,55.53,0,0,0,5,6.95c1.61,2.41,3.42,4.67,5.21,7C78.79,68.44,81,69.71,80.05,72.18Z"/><path class="cls-189" d="M80.05,72.18c-1-1.68-2-3.37-3-5.05C73,59.73,73,59.73,81.19,56.58c2.56-1,5-2.84,7.85-.59q0,7.41-.07,14.8c-2,.7-4.37.45-6,2.12Z"/><path class="cls-190" d="M67,53.22a9.2,9.2,0,0,1-3-4.08c-3-5.21-2.81-6.61,2.47-9.14A53.26,53.26,0,0,1,82,34.85c2.4-.33,5-.7,7.1,1.16,0,1.33,0,2.67,0,4-.82,1.77-2.45,2-4.12,2.28a75.33,75.33,0,0,0-10.49,3C70.47,46.54,66.64,47.92,67,53.22Z"/><path class="cls-191" d="M67,53.22c-2.29-4.8.07-6.71,4.44-8.31A167,167,0,0,1,89,40l0,6c-3.38,2-7.44,1.43-11,3-1.51.66-3.11,1.14-4.6,1.89-2.82,1.41-3.71,3.2-1.49,5.84.55,1.15,1.09,2.3,0,3.45A21.84,21.84,0,0,1,67,53.22Z"/><path class="cls-192" d="M71.1,57c-3-2.66-3.34-4.53.89-6.67,5.45-2.76,11-4.5,17.07-4.31,0,1.66,0,3.33,0,5C83.18,53.33,77.14,55.16,71.1,57Z"/><path class="cls-193" d="M71.1,57a31.93,31.93,0,0,1,18-6c0,1.66,0,3.33,0,5-4.85-.56-8.52,3.1-13.09,3.69-1.66.22-1.89,1.53-.76,3A7.24,7.24,0,0,1,77,67.13a22.76,22.76,0,0,1-5-7C71.71,59.1,71.41,58,71.1,57Z"/><path class="cls-194" d="M59,42.29a10,10,0,0,1-3-4.11,1,1,0,0,1,0-1.41,113.15,113.15,0,0,1,23.51-9.09c3.19-.84,6.4-1.92,9.51.3l0,3c-2.86,2-6.31,1.53-9.48,2.23a52.16,52.16,0,0,0-19.33,8.25A4.11,4.11,0,0,1,59,42.29Z"/><path class="cls-195" d="M56.17,37c-.06.39-.12.79-.17,1.19a8.24,8.24,0,0,1-3.07-4.11l.45-.19c10-7.65,21.48-11,33.88-11.78A2.75,2.75,0,0,1,89,23c0,.71,0,1.42,0,2.13a4.63,4.63,0,0,1-2.9,1.79c-10.45.91-20,4.59-29,9.73C56.8,36.76,56.47,36.86,56.17,37Z"/><path class="cls-196" d="M89,23a72.48,72.48,0,0,0-31.56,9.19c-1.3.73-2.48,1.7-4.06,1.74-.34-2.36,1.44-3.18,3-4,9.5-4.88,19.31-8.65,30.16-9.31C89,20.41,89.07,21.27,89,23Z"/><path class="cls-197" d="M59,42.29c.07-.43.13-.87.2-1.3,8.09-3.7,16-8,25.15-8.47,1.6-.09,3.27-.92,4.73.47,0,1,0,2,0,3-7.51-1-14.18,2-20.91,4.54C64.25,42,61.49,44.41,64,49.14A22.17,22.17,0,0,1,59,42.29Z"/><path class="cls-198" d="M56.17,37c7.38-7.16,17-8.84,26.49-11,2.08-.47,4.22-.65,6.33-1L89,28c-10.26-.18-19.32,3.9-28.36,8C59.18,36.68,58,38.08,56.17,37Z"/><path class="cls-199" d="M89,33a68,68,0,0,0-27.58,8.15A2.44,2.44,0,0,1,59.15,41c5.6-5,12.49-7.24,19.57-8.88,3.37-.78,6.81-1.57,10.34-1.1C89.05,31.67,89.05,32.33,89,33Z"/><path class="cls-200" d="M24.05,68.12c-1.93-.81-6.06.46-4-4.18C25,55.19,29.57,46.16,37.13,39.21l6.95-6.38c2.17.59,2.76,2.65,3.89,4.21a6.62,6.62,0,0,1-1,1C37,45.69,29.91,55.58,25,67.12A2.85,2.85,0,0,1,24.05,68.12Z"/><path class="cls-201" d="M47,37.08,48,37c1.23,1.46,2.2,3.19,4,4.07L54.07,45c-1.59,1.15-2.62,0-3.73-.89a2,2,0,0,0-3.08.12c-7.5,6.88-13.83,14.57-16.7,24.59a2.63,2.63,0,0,1-.29,1.29,1.13,1.13,0,0,1-1.22.13l-5-2.12L24.14,67A5.68,5.68,0,0,0,26,64.69C30.75,53.75,38.56,45.16,47,37.08Z"/><path class="cls-115" d="M47.14,31,50,35.13C47.61,34.75,46.91,33.19,47.14,31Z"/><path class="cls-202" d="M42.27,152.66c-.4.45-.81.9-1.21,1.36-4.72-2.58-7.52-7.07-10.88-11-1-1.12-1.71-2.39-3.06-3.11l-1-2c.33-1.33-2-2.73.11-4,2.08,0,2.65,1.77,3.55,3a72.59,72.59,0,0,0,9.68,11.24C40.55,149.56,42.28,150.56,42.27,152.66Z"/><path class="cls-203" d="M70.14,167.77a53.13,53.13,0,0,1,11.18,2.09C77.43,170,73.52,170.34,70.14,167.77Z"/><path class="cls-204" d="M39,149c-5.43-4-8.79-9.85-12.8-15.11-2.12-4.59-4.65-9-6.09-13.91a3,3,0,0,1,1.18-.88c1.69-.36,3.37-1,5.12-.21,1.29,1.39,1.92,2.94,1.1,4.82.51,1.31-2.32-1.17-1.09,1,4.17,7.19,8,14.56,13.44,21C41.92,148.09,41.67,148.36,39,149Z"/><path class="cls-205" d="M20.93,119.91a3.18,3.18,0,0,0-.81.08L17,119.93c-.71-1.15-1.85-.87-2.9-.89l-.18-.73c4.44-3.06,9.73-3.54,14.76-4.85a8.18,8.18,0,0,1,4.33,1.2,1.41,1.41,0,0,1,.23,1.41A7.2,7.2,0,0,1,30,117.78,74.6,74.6,0,0,0,20.93,119.91Z"/><path class="cls-206" d="M39,149c2.94-.66.75-1.73.12-2.46a86.34,86.34,0,0,1-13.08-20.76c-.4-.86-2.18-2.88,1-1.81,4.4,2.46,4.72,7.74,7.74,11.24,2.59,3,4.8,6.3,7.73,9,1.72,3,4.56,3,7.46,2.73-2.1,2.55-2.32,7.67-7.75,5.71Z"/><path class="cls-207" d="M52.13,154.08l-1-.12a2.12,2.12,0,0,0-1-2c-.05-2.53,3.16-3.39,3-6,1.89-3.83,3.51-7.9,8.17-9.31,1.18.2,1.51,1.05,1.6,2.1a8.55,8.55,0,0,1-2,4.5,49.23,49.23,0,0,0-4.23,6C55.1,150.83,54.26,153.06,52.13,154.08Z"/><path class="cls-208" d="M50,147c-3.73,3.73-6,1.35-7.94-2-.79-2.61-2.93-4.28-4.4-6.42-1.13-1.64-2.44-3.33.14-4.89a4.57,4.57,0,0,1,2.8,2c2.8,3.41,5.16,7.31,9.73,8.75a2.15,2.15,0,0,1,1.11.76c.17.72.18,1.38-.67,1.69A6.48,6.48,0,0,0,50,147Z"/><path class="cls-209" d="M50.79,146.85c.15-.6.3-1.21.46-1.81.08-1.9,1.33-3.2,2.33-4.63a14.54,14.54,0,0,1,3.23-3.32c1.37-.62,2.45-2.2,4.29-1.33a.94.94,0,0,1,0,1.22c-3.61,2.15-4.48,6.75-8,9Z"/><path class="cls-210" d="M165.13,119.93l-1,1.92a79.21,79.21,0,0,1-20.24,28.94c-1.66,1.49-3.13,3.05-5.6,1.87-.09-.55-.19-1.1-.28-1.65,4.57-1.62,7.6-5.27,10.47-8.75,5.73-7,11.47-14,12.7-23.49Z"/><path class="cls-211" d="M161.13,118.77c.81,1.29,1.71,2,.79,4.2a78.07,78.07,0,0,1-19.22,26.95c-1.49,1.38-2.79,2.31-4.74,1.09a21.67,21.67,0,0,1-5.12-7c5.56,2.69,8.37-1,11.29-4.75a140.53,140.53,0,0,0,8.63-12.2c2-3.2,3.18-6.44,2.31-10.22C157.34,116.68,159.16,118,161.13,118.77Z"/><path class="cls-212" d="M120.24,127.66q-3.1-4.83-6.22-9.66c6.14,1.35,8.55-2.78,10.71-7.28.58-1.2,1-2.48,2.36-3.1a3.22,3.22,0,0,1,1.48,0c.92.39,1.76,1,2.69,1.32,5.78,2.36,6.27,3.42,3.48,8.9a33.22,33.22,0,0,1-7.37,10c-1.53,1.36-3.15,2.6-5.31,1.1Z"/><path class="cls-213" d="M155.07,116.88c2.83,2.05,2.09,4.72.83,7.07a102.14,102.14,0,0,1-14.05,19.84c-3.13,3.51-5.91,3.48-9,.26a5.6,5.6,0,0,1-2.05-3c3.3,0,5.68-1.51,8-3.85,4.76-4.77,7.87-10.6,11.4-16.18.87-1.39,1.42-3,2.87-4Z"/><path class="cls-214" d="M153.07,117A67.67,67.67,0,0,1,136,141.65c-2.35,2.22-3.5-.36-5.21-.6a7,7,0,0,1-2.87-4,1.7,1.7,0,0,1,1.28-.43,4.52,4.52,0,0,0,6.1-1.26c4.06-4.75,6.53-10.62,10.86-15.2,1.1-1.16,1.69-3-.67-4-1.55-.56-3.18-.83-4.72-1.39-1.11-.64-2.22-1.29-1.67-2.89C144.15,112.54,149,113.79,153.07,117Z"/><path class="cls-215" d="M139.1,111.9a3.2,3.2,0,0,0,2,2.11c.1.13.28.26.29.4,0,5-9.38,18.72-13.83,20.12a2.63,2.63,0,0,1-1.9-.38c-1.36-1.6-2.94-3.05-3.56-5.16,6.83-1.29,8.71-7.45,11.87-12.25.95-1.44,1.09-3.41,1.64-5.27-2.81-.8-5.93-.51-7.49-3.44,4.18-1.14,7.75-.22,10.58,3.17Z"/><path class="cls-216" d="M125.62,134.15c3.73-.28,4.88-3.65,6.89-5.91A45.55,45.55,0,0,0,141.06,114l5,1c0,5.82-9.8,20.37-15.14,22.39a1.79,1.79,0,0,1-1.82-.43l-1.17.07A5.12,5.12,0,0,1,125.62,134.15Z"/><path class="cls-217" d="M138.66,111.2,128.08,108l-1-.18c-4.35-.76-9.1-.49-12.14-4.67-.56-1.41-1.79-1.11-2.9-1.12-2-.18-1.9-1.54-1.25-2.76s2.2-1.43,3.51-1.06a57.82,57.82,0,0,1,7.42,2.66c7.37,3.2,15.51,4.51,22.3,9.08h0C142.57,111.73,140.42,110.59,138.66,111.2Z"/><path class="cls-218" d="M72.1,125,75,122.67c-1.42,4.61-.43,7,5.11,6.7,3-.17,5.88,1.78,9,1.61l0,5c-6.51,2.05-12.59-.22-18.36-2.56-3.13-1.27-.71-4.23.18-6.39A20.67,20.67,0,0,1,72.1,125Z"/><path class="cls-219" d="M108.11,119.9a13.79,13.79,0,0,1,4.09,5.76c3,5.71,3,5.89-2.8,8.86a22.24,22.24,0,0,1-6,2.11c-5.54,1.06-6.17.67-7.26-4.66,0-1.66,0-3.33,0-5,.91,4,3.32,4.6,6.77,3a31.68,31.68,0,0,1,4.13-1.47c3.19-.94,5.56-2.07,1.89-5.41C108,122.3,108.08,121.05,108.11,119.9Z"/><path class="cls-220" d="M120.2,136.71a4.29,4.29,0,0,1,2,3c1.22,2.14,1.28,3.87-1.16,5.37a55.85,55.85,0,0,1-18.86,7c-2.38.47-5,.51-6.47-2.29,0-1.95-.55-3.93.37-5.81,1.28,3.05,3.38,3.5,6.37,2.39,5.1-1.91,10.47-3,15.21-6C119.28,139.36,120.24,138.57,120.2,136.71Z"/><path class="cls-221" d="M96.1,132c1.07,3.55,2.91,4.29,6.79,3.46,3.48-.75,6.33-2.52,9.39-3.84s-1-3.88-.08-5.93l2.63,2.42c.87.42.81,1,.34,1.71,2,5.84,1.67,6.18-5,8.38a58.32,58.32,0,0,1-7.52,2.16c-5.94,1.1-6.53.74-6.56-5.39C96.08,134,96.1,133,96.1,132Z"/><path class="cls-166" d="M96.08,144c0,2,0,4,0,6a2.17,2.17,0,0,1,0,3h0c-.29.44-.57.44-.83,0V141C96.25,141.78,96.05,142.91,96.08,144Z"/><path class="cls-167" d="M115.17,129.79c-.11-.57-.23-1.14-.34-1.71,2,.69,3.3,1.88,3.11,4.18Z"/><path class="cls-222" d="M52.13,154.08a11.63,11.63,0,0,1,3.87-5.3c.56,2.76,2.83,3.86,5,5,7.83,4.1,15.88,7.54,24.89,8A4.78,4.78,0,0,1,89.05,163c0,6.1,0,6-6.23,5.08a70.71,70.71,0,0,1-27.64-10.39C53.8,156.78,52.1,156.17,52.13,154.08Z"/><path class="cls-213" d="M89.05,163c-10.91.78-20.35-3.69-29.64-8.48-2-1-4.49-2.49-3.41-5.69A14.2,14.2,0,0,1,60.09,143c.22,4,2.53,6.1,6.08,7.83a57.56,57.56,0,0,0,18.27,5.78c1.61.2,3.33.09,4.62,1.39C89.06,159.62,89.06,161.29,89.05,163Z"/><path class="cls-223" d="M89.06,158c-10.73.52-19.92-4-28.94-9-3.51-2,.6-4,0-6l2-3.86a.84.84,0,0,1,1.24,0c-.25,4.29,2.34,6.22,5.91,7.86a60.57,60.57,0,0,0,14.18,4.35c1.9.36,4,.16,5.59,1.69Z"/><path class="cls-224" d="M89.06,153c-9.4.18-17.71-3.42-25.82-7.57-3.68-1.89.93-4.32-.16-6.46-.2-1.19.48-1.23,1.35-1,4.91,3.84,10.6,5.72,16.66,6.86,2.7.5,5.63.33,8,2.19Z"/><path class="cls-225" d="M89.06,147a50.08,50.08,0,0,1-22.13-5.56c-1.55-.8-2.86-1.67-2.91-3.61-.15-2.47.44-4.26,3.48-3.85,5.15,3.43,11.5,2.94,17,5.18,1.51.61,3.29.59,4.54,1.84Z"/><path class="cls-226" d="M89.06,141c-7-.21-13.41-3.52-20.37-4.14-1.83-.16-1.48-1.9-1.74-3.14-.35-3.79,1.5-6,5-6.93.17,1.26-.54,2.17-1.18,3.15-1.08,1.68-.66,2.65,1.42,3.1,5.58,1.22,11.14,2.57,16.86,3Z"/><path class="cls-179" d="M104.11,79c1.75.18,2.62-1.47,4-2,1.72.38,2.67,1.72,3.71,3,1.3,2.47,3.26,2.19,5.52,1.55,2.11-.6,4.21-2.27,6.55-.6l9.12-.94c.05.25.09.49.14.74-2.87,3.32-7.34,2.51-10.89,4.16-3.12,1.45-6.57,2.19-9.81,3.38-3.21,2.46-1.81,6.32-2.88,9.43-2.76,1.19-5.51,2.39-6,5.88l-.51.43h-3c-1.35.78-2.12-.25-3-1-3.67.25-7.48-.89-11,1-3.63.63-5.84-1.93-8.16-3.91C76.61,99,77.69,98.16,79.06,98l.65.27a9.21,9.21,0,0,0,7.36,2.12c2.45-.25,5.15-1.07,7.35-.33,5.26,1.77,4.94-3.33,7-5.3.72-.69-2-1.88-1.38-3.56a2.25,2.25,0,0,1,2.73-.48c1.75.64,3.21.56,4.29-1.19s0-3.11-.84-4.54c-1-1.76-3.59-2.77-2.6-5.48Z"/><path class="cls-178" d="M81.1,109l-8,11.07a2.26,2.26,0,0,1-.74-1.15c-.36-2.71,2.38-4.39,2.31-7-1.67-6.22-3.15-7.38-7.84-6.12a3.41,3.41,0,0,1-2.62-.37c-.58-2-1.56-.39-2.41-.25-3,.47-5.9,3.18-9.06.43.53-4,4.22-2.83,6.51-4,1.12-.22,2.22-.55,3.36-.73,6.13-1,6.13-1,6.25-6.94,0-1.82,0-3.65,1.63-4.94,2.21-.72,2.24.94,2.55,2.32,0,.08.25.18.33.15s.19-.21.3-.35a1.3,1.3,0,0,1,.94-.42l.48.27a7.45,7.45,0,0,1,.21,1.46C74.83,98.78,76,104.53,81.1,109Z"/><path class="cls-227" d="M80.09,95c-3.38.79-2.24-4-5-4h0a4.58,4.58,0,0,1-1-4.57,2.27,2.27,0,0,1,1.55-1.61,2.4,2.4,0,0,1,1.42,1.56c.65,2.43,2,3.77,4.71,3a5.5,5.5,0,0,1,2-.09,2.78,2.78,0,0,1,1.18.67c.51,1,0,1.74-.7,2.41a5.14,5.14,0,0,1-1.17.59,4.82,4.82,0,0,0-2.54,1.73Z"/><path class="cls-179" d="M83.08,92l1,0c1,5.22-.49,7-4.91,6.08L79.06,98c.34-1,.68-2,1-3h0A7.7,7.7,0,0,1,83.08,92Z"/><path class="cls-228" d="M115,103.18l12.14,4.67c-1.25,2.47-1.88,5.14-3.69,7.45-2.65,3.37-4.66,7.33-9.42,2.7-2.09-2.58-5-4.55-5.88-8C110.57,107.86,111,103.75,115,103.18Z"/><path class="cls-229" d="M95.25,153c.28,0,.55,0,.83,0-.62,4.56.83,6,5.75,5.13,9.18-1.69,17.9-4.14,25.28-10.15,3.7,4.86,3.74,5.3-1.66,7.79-7.78,3.59-15.53,7.05-24.44,7.5-3.37.17-4.78-.47-5.77-3.26Q95.24,156.48,95.25,153Z"/><path class="cls-230" d="M95.23,168.89l9.9.12a4.15,4.15,0,0,1-.18.85,2.51,2.51,0,0,1-2,1.06c-2.28-.1-4.54,1.64-6.83.07-.23,0-.47,0-.7,0Z"/><path class="cls-231" d="M72,126.76a21,21,0,0,0-5,6.93A9.28,9.28,0,0,0,64,137.8l-.94,1.14a5,5,0,0,0-.94.16c-.09-.83-.19-1.66-1-2.12,0-.34,0-.68,0-1-.13-3.43,3.2-4.83,4.39-7.5,1.77-1.24,1.64-4.49,4.64-4.46,0,1.8,1,1.41,2,1C72.07,125.57,72,126.17,72,126.76Z"/><path class="cls-232" d="M70.1,124c-1.84,1.27-1.76,4-3.91,5.06-1.46-1.61-.35-3.28-.14-4.93a23.29,23.29,0,0,1,3.33-5.6c2.47-1.94,2.63-6.25,6.7-6.55.19,2.84-2.81,4.31-3,7-1.11,1.1-1.24,2.7-2,4Z"/><path class="cls-231" d="M71,122.93c0-1.68.31-3.19,2-4l.06,1Z"/><path class="cls-233" d="M97.1,103l3,1c-.23,2.61-1.7,1.56-3,1C97.09,104.33,97.1,103.67,97.1,103Z"/><path class="cls-234" d="M109.07,98c-.14-3.82-.45-7.67,2-11,1.45,1.88,3.64-.59,5.16.86a2.81,2.81,0,0,1,.38,1.33c-.05,2.64-1,5.37.69,7.86,3.59,2.55,8,2.61,11.95,4.11,3.8,1.87,8.4,1.82,11.67,4.91l3.17,1.83,0,2.09c-10-2.7-19.54-6.69-29.15-10.48-1.13-.44-2.29-.86-3.24,0s-.46,1.79.41,2.51c-.63.94-1.58,1.51-2.13,2.64-1.75,3.58-2.37,1.33-2.89-.73a2.6,2.6,0,0,1-.66-2.67A6.65,6.65,0,0,1,109.07,98Z"/><path class="cls-95" d="M107.1,101l0,3-3,2a2.13,2.13,0,0,1-1-2h0c.91-.89.16-2.34,1-3.21C105.16,99.72,106.31,98.16,107.1,101Z"/><path class="cls-235" d="M103.12,170l1.83-.16c1.66.51,3.66-.61,5.07,1l-3.86.14C105,171.27,103.44,172.43,103.12,170Z"/><path class="cls-236" d="M103.12,170c.73,1.18,2,.85,3,1-1.69,1.83-4.47,0-6.16,1.88l-3.9-1a2.44,2.44,0,0,1,0-1Z"/><path class="cls-237" d="M108.07,174.94c-1.72.15-3.24-.07-3.95-2C105.84,172.82,107.35,173.09,108.07,174.94Z"/><path class="cls-238" d="M140.93,106.06a45.78,45.78,0,0,1-12.17-3.91,2.19,2.19,0,0,1,1.16-1,5.45,5.45,0,0,1,3,0c3.16,1.31,4.49.11,5-3.15a40.27,40.27,0,0,0,0-10.91c-.56-4.54-3.84-.74-5.84-1.11a6.54,6.54,0,0,1-3-.14,2.55,2.55,0,0,1-1.21-.91c1-3,4.26-2.33,6.26-3.72,2.22-.37,4.39-1.83,6.7-.35,1.87.65,3.43-.75,5.19-.79a4.91,4.91,0,0,1,1.36,3.11,67.84,67.84,0,0,1-2.1,19.56,4.57,4.57,0,0,1-2.27,3.1Z"/><path class="cls-239" d="M143,105.83a81.86,81.86,0,0,0,3-25.77l2-.08a2.45,2.45,0,0,1,3,2.53c.24,7.48,1.64,15-.67,22.42a4.18,4.18,0,0,1-1.3,2C147,107,144.86,107.18,143,105.83Z"/><path class="cls-240" d="M149.08,107c1.31-7.25.95-14.58,1-21.88,0-2,.32-4.06-2-5.12,3.34-2.78,5.45-1.73,5.84,2.3.77,7.9-.89,15.75-1,23.66C152.9,108.64,150.85,108.37,149.08,107Z"/><path class="cls-179" d="M140.85,80.85l-6.71,1.41c-.54-.66.85-2.21-1-2.24l0-.06c2.1-1.53,4.77-1,7-2,.84,1.28,2.24.92,3.43,1.17Z"/><path class="cls-241" d="M159,67.88c-1.49.39-3,.74-3.87,2.21-1.1,1.24-2.57,1-4,1,1.87-2.87.32-5.15-1-7.72a53.75,53.75,0,0,0-12.86-16.17c-1.35-1.17-2.86-2.3-3.18-4.27,1.64-4,4.07-4,7-1.37A61.85,61.85,0,0,1,159,67.88Z"/><path class="cls-242" d="M110.89,80.06,108.16,77A30,30,0,0,1,114,68.94c2-.9,2.71-2.86,3.79-4.53a1.2,1.2,0,0,1,1.82-.39,77.06,77.06,0,0,1,6.73,8.33c1.48,1.93,2.74,4.16.79,6.63l-.32.2-.36-.08c-2.78.91-5.72,1.37-8.33,2.67C115.05,83.27,112.82,82.57,110.89,80.06Z"/><path class="cls-243" d="M134.05,43a64.49,64.49,0,0,1,18.36,21.81c1.53,2.86.31,4.48-1.31,6.35-3.83,1.85-7.68,3.64-12,3.9-.4-2.62,1.67-2.71,3.3-3.25,4.83-1.41,5.11-1.71,3.11-6-3.59-7.58-9.46-13.35-15.57-18.89L132,44Z"/><path class="cls-244" d="M143.06,73c-1.7,0-3.27.19-4,2.06a1,1,0,0,1-.92.22c-2.45-3.07-4.79-6-5.47-10.26-.79-5-4.77-7.08-10.72-7,.71-2.44,2.69-4,4.11-6,2-1.8,4-1.47,5.81.15,5.46,5,10.1,10.56,12.19,17.87C144.45,71.28,144.35,72.3,143.06,73Z"/><path class="cls-245" d="M122,58c2.28.51,2.52-3.77,4.82-2.37,3.28,2,6.14,5.05,7.11,8.62.84,3.11.78,6.22,4,8.18.5.31.22,1.88.3,2.86-2.91,2.46-6.76,2.28-10.09,3.57-.1-.13-.29-.38-.28-.38,4.5-3.71,1.12-7.34-.09-11-2.14-6.5-3.14-6.9-8.62-3.44l-1,1a.71.71,0,0,1-1.22-.1A20.57,20.57,0,0,1,122,58Z"/><path class="cls-246" d="M119.08,64c1.54-1.5,1.82-5.13,4.45-4.41s4.39,3.29,5,6.25c.23,1.11.15,2.58.84,3.27,3.93,3.9,3.28,7-1.28,9.71l-1,.17c.83-5.21-3.83-7.58-5.91-11.28C120.48,66.47,119,65.66,119.08,64Z"/><path class="cls-246" d="M110.89,80.06c3.27,2.34,6.43,1.49,9.84.07,1.68-.69,3.63-1.52,5.67-1l-2.46,1.8a18.94,18.94,0,0,0-6.62,1.9C114.15,84.25,111.89,83.65,110.89,80.06Z"/><path class="cls-247" d="M96.09,153v-3a7.54,7.54,0,0,0,6.19.88c6.16-1.85,12.52-3.11,18.07-6.83,2-1.31,2.08-2.53,1.85-4.34a3.75,3.75,0,0,1,1.87,2.34c.41,5.33-4.51,5.33-7.39,6.67C110.24,151.67,103.87,156.05,96.09,153Z"/><path class="cls-248" d="M74.06,91c-.09,1.5.43,3.2-1.26,4.34-1.68-2,.52-4.77-1.86-6.27a7.23,7.23,0,0,1-3.58,0,62.13,62.13,0,0,1-10.42-3.12c-2.39-1-5.15-1.15-7.29-2.83a7.65,7.65,0,0,0-5.53-2,9.52,9.52,0,0,1-2-.39A14.5,14.5,0,0,1,38.3,79c-1.93-1.44-4.2-1.69-6.5-1.84-2.11-.46-4.26-.78-6.12-2-1.6-1.51-3.64-2-5.7-2.38-1.33-.5-2.9-.5-3.79-1.89,4.28-2.15,7.9.74,11.75,1.65,1.72.41,3.23,1.7,5.16,1.47l.68-.09c2.35-.14,4.46.86,6.66,1.41a50.68,50.68,0,0,1,8.68,2.77,49.16,49.16,0,0,0,5.75,2,7.08,7.08,0,0,0,4.5.21,3.92,3.92,0,0,1,2,.4c3.79,2.89,8.84,2.93,12.69,5.67C75.14,87.93,73.93,89.47,74.06,91Z"/><path class="cls-249" d="M16.19,70.85c1.39.24,2.94-.2,4.09,1-.09.23-.19.47-.27.7-2.33,2.42-2.55,5.65-3.35,8.66-.45,1.7,0,3.72-1.76,5-1.52-.32-1.42-1.24-.87-2.33-.47-3.4.69-6.63,1-9.94a2,2,0,0,0,0-2.92Z"/><path class="cls-250" d="M29.05,70.24l1-.16a8,8,0,0,1,4.27.26c1.25.64,3.09.67,2.89,2.81C36,74,34.73,74.94,33.11,74h0C32.67,71.72,29.29,72.69,29.05,70.24Z"/><path class="cls-251" d="M14,83.88A2.46,2.46,0,0,0,15,86a3.15,3.15,0,0,1,1.27,2.59c-.26,7.8.86,15.49,1.61,23.22-.58,1.3-1.38,2.09-2.87,1.22v0c-1.27-7-3.53-13.82-2.95-21.06C13.29,89.41,12.45,86.35,14,83.88Z"/><path class="cls-205" d="M14.14,119c-4.2,2.09-2.59-1.57-3.1-3.13l-.06-.15c3.47-1.31,3.12,1.09,3.09,3.18Z"/><path class="cls-252" d="M14.07,118.94c-.78-.12-2-.32-1.43-1.29,1.66-2.77-1.08-1.31-1.66-1.89.81-1.73,4,.16,4.07-2.74l2.07-1c1.36-.64,2.18,1.32,3.54.7,2.65-.59,5.16-2.14,8-1.23a1.83,1.83,0,0,1,.81,1.87c-.12.21-.24.42-.37.63Z"/><path class="cls-253" d="M131.18,35.17A18.08,18.08,0,0,1,127.09,41a2.42,2.42,0,0,1-.78-1.94c.93-2.69-.07-4.24-2.6-5.49a64.64,64.64,0,0,0-15.83-5.83c-3.77-.53-7.45-1.69-11.32-1.33A3.36,3.36,0,0,1,95.18,26c0-2,0-4,0-6,2.62.35,5.45-1,7.88.94a3,3,0,0,1-1.65,1.13,50.87,50.87,0,0,0,6.42,1.13c-1-.61-3,.05-2.8-2.23,9.26,1.05,17.71,4.37,25.83,8.83C134.44,31.77,130.23,33.46,131.18,35.17Z"/><path class="cls-254" d="M127.06,39l0,2c-2.16,3.17-4.12,6.5-6.91,9.2-1.14-1.15-.67-2.38-.17-3.6a7.27,7.27,0,0,1,2.45-2.74c-8.22-3.53-16.5-6.52-25.37-7.39A2.24,2.24,0,0,1,95.23,35l0-4.05a3.23,3.23,0,0,1,3.61-2.11C108.83,30.56,118.84,32.3,127.06,39Z"/><path class="cls-255" d="M95.23,35a77.33,77.33,0,0,1,28.43,8.28L121.05,47c-2,1.44-3.78.4-5.59-.38a67.7,67.7,0,0,0-12.68-4.24c-4.61-1-4.91-.68-5.3,4.16-.17,3,.53,6.11-.82,9a1.06,1.06,0,0,1-1.45.43Q95.23,45.52,95.23,35Z"/><path class="cls-256" d="M127.06,39c-8-3.41-16.08-6.71-24.68-8.47-2.52-.51-4.85-.9-7.17.44l0-5,.9,0,.66.21c4.26,1.18,9,0,13,2.76.58.32.17-1.08-.11-.48,0,.1-.2.05-.5,0a1.54,1.54,0,0,1-1.15-.79c0-.23.1-.45.16-.67,7.19.34,13.13,4.1,19.27,7.22C130.51,35.8,127.67,37.43,127.06,39Z"/><path class="cls-257" d="M95.21,56l.86,0c1.25,1.07,1.26,2.56,1.42,4-.29,3.67.7,7.38-.4,11L95.18,71Z"/><path class="cls-258" d="M80.1,80l6-4,6-1c1.48,1.23,3.5-.18,5,1,0,.33,0,.66,0,1A27.4,27.4,0,0,0,93,81.41c-2.71,1.22-3.58,5.32-7.43,4.72a6,6,0,0,1-1.4-.27A3.36,3.36,0,0,1,82.22,84a6.62,6.62,0,0,0-2.35-2.86A.87.87,0,0,1,80.1,80Z"/><path class="cls-259" d="M98.09,78l1,0a3.07,3.07,0,0,1,1.93,1c2,2.69,5.63,4,6.18,7.92.21,1.47.07,2.61-1.24,3.4a4.26,4.26,0,0,1-4.26,0c-1.26-.62-1.71-1.9-.81-2.84,1.48-1.56-.48-1.2-.78-1.63-1.46-2-4.21-2.53-5.64-4.65C94,78.32,94.8,76.73,98.09,78Z"/><path class="cls-179" d="M100.07,79l-1-1,.09-.11c1.46-1,1.12-2-.06-2.94a2.17,2.17,0,0,1,2-1c2.41.6,4.19-.67,5.95-2,.06,2.77-3.79,3.89-3,7l-.06.06A2.93,2.93,0,0,1,100.07,79Z"/><path class="cls-260" d="M98.09,78c-3.19-.31-3.13,1.82-3,4l-.47.26a1.82,1.82,0,0,1-1.37-.74L93.09,81c-.2-2.86,1.12-4.21,4-4Z"/><path class="cls-261" d="M99.08,75c1.41.27,3.45.4,3.33,2s-2.11.69-3.27.91Z"/><path class="cls-179" d="M97.08,76c-1.67-.28-3.6.65-5-1C93.77,75.23,95.69,74.31,97.08,76Z"/><path class="cls-189" d="M97.09,71c-1.85-3.53-.68-7.34-1-11,1.17-7,2.37-7.43,10.44-4,4.52,1.9,5.38,4,3.17,8A30.19,30.19,0,0,1,108.09,67c-1.88,2.39-2.35,6.42-6.8,5.81Z"/><path class="cls-220" d="M143.06,73c-1-9.35-6.77-15.55-13.64-21.07-1.13-.9-2.22.27-3.34.1l3.84-5.06c4.08.26,5.56,3.74,7.91,6.24a56.47,56.47,0,0,1,9.08,12.38C149.47,70.35,147.9,72.34,143.06,73Z"/><path class="cls-246" d="M116.86,64.91l1.22.1c-1,1.72-1.39,4.06-4.13,3.93A8.59,8.59,0,0,1,116.86,64.91Z"/><path class="cls-262" d="M105.08,21l5.32,2.69c-5,1.08-9.28-.69-13.73-1.54,2-1.68,4.3-.9,6.44-1.17Z"/><path class="cls-263" d="M108.09,67a3.56,3.56,0,0,1,0-1c2.29-7.8,1.85-8.53-6.62-10a7.69,7.69,0,0,1-3.55-1.44c-1.77,1.58.12,4.13-1.85,5.4,0-1.34,0-2.67,0-4l0-10c4.44-3.19,19.54,1.62,20.53,6.66.63,3.18-2.95,4.6-3.54,7.35A23.12,23.12,0,0,1,108.09,67Z"/><path class="cls-257" d="M113.09,60c0-1.16-.12-2.41.83-3.24,3.85-3.37,1.34-5.76-1.62-7-5.13-2.13-10.19-5.2-16.2-3.78.12-6,.1-5.9,6.13-5.07,6.66.92,12.33,4.76,18.83,6.08-.3,1.07-.59,2.14-.88,3.21A43.45,43.45,0,0,1,113.09,60Z"/><path class="cls-264" d="M33.84,71.16c-1.32-.13-2.74.06-3.78-1.08,0-.35,0-.71,0-1.07C34,59.65,38.87,50.94,47.16,44.64,48.3,43.77,49.29,42.46,51,43a3.13,3.13,0,0,0,3,2,11.59,11.59,0,0,1,3.32,4.84,1.3,1.3,0,0,1-1.19.43C54.84,49.9,54.05,48.73,53,48c-2-1.06-3.11.53-4.2,1.62A58.71,58.71,0,0,0,34.87,70.26,1.94,1.94,0,0,1,33.84,71.16Z"/><path class="cls-178" d="M80.1,80l-.06.94a16.48,16.48,0,0,1-2.75,4.25,1,1,0,0,1-1.18-.11l-1,.9c-.35.31-.36,1-1,1C69.76,85,64.5,85.24,61,81.35a1.39,1.39,0,0,1,.87-1,2.82,2.82,0,0,1,2,0c4.65,2.33,8.23.83,11.18-3,1.85-.87.9-3.1,2.08-4.29,2.15,1.56,3.65,3.23,1.77,6.07C78.41,79.74,79.49,79.89,80.1,80Z"/><path class="cls-265" d="M56.09,50l1.3-.13L60.15,53a1,1,0,0,1,0,1.25c-6,2-8.84,7.23-12.22,11.89-1.65,2.27-2.64,5-4.8,6.93a2,2,0,0,1-2.42-1c.45-6.42,5-10.6,8.57-15.23,1.82-2.35,4.13-4.32,6.19-6.49Z"/><path class="cls-266" d="M60.12,54l0-1c4.79,2.58,6.6,7.89,10.43,11.4C73.19,66.77,75,70.08,77.1,73c-.11,1.7,2.28,4-1.23,4.87a79,79,0,0,0-7.25-10.44,16,16,0,0,0-3-4.25C63.88,60,60.64,57.81,60.12,54Z"/><path class="cls-267" d="M47,37.08c-1.58,5.19-6.59,7.58-9.63,11.64A93.77,93.77,0,0,0,27.1,64.91c-.53,1.12-.66,3.28-3,2.06,4.12-12.08,12-21.41,21.47-29.62C45.92,37.08,46.55,37.17,47,37.08Z"/><path class="cls-268" d="M51,43c-8,5.31-13.38,12.72-17.58,21.17A39.64,39.64,0,0,1,30.08,69c-1.46-.16-1.29-.7-.76-1.91A68.74,68.74,0,0,1,46.39,43.3C47.65,42.17,49.29,39.86,51,43Z"/><path class="cls-213" d="M38.09,134c-2.09,1.94-.1,3,.86,4.39,1.42,2,4.24,3.4,3.13,6.62-7.22-5.42-10.86-13.39-15-21-.32-1.66-.63-3.32-.95-5,.48-2.1,3-.79,3.85-2.32a3.41,3.41,0,0,1,3.09-.78c-1,4.57,1.38,8.15,3.4,11.87C37.5,129.67,39.64,131.37,38.09,134Z"/><path class="cls-206" d="M30,116.68c-.66,1.82-2.72,1.3-3.85,2.32a8.21,8.21,0,0,1-5.21.91A25.49,25.49,0,0,1,30,116.68Z"/><path class="cls-269" d="M38.09,134C37,129.54,33.82,126.15,32,122c-1.07-2.49-1.19-4.4,1-6.13a2.25,2.25,0,0,0,.27-.79,2,2,0,0,1,2.61-.48C39.13,125.4,45.9,133.7,54.13,141a10,10,0,0,1-2.88,4L50.09,145c-4.58-1.6-6.89-5.74-10-9Z"/><path class="cls-270" d="M36.07,114.85l-2.72.26c-1.4-.37-3.09.38-4.21-1.08l-.07-.09a6.53,6.53,0,0,1,4-2.73,48.7,48.7,0,0,1,5.31-1.51c1.1-.23,2.18-.58,3.3-.78a10.65,10.65,0,0,1,3.42-.29,3,3,0,0,1,2.25,1.57c-.15,1.42-1.25,2-2.34,2.5C42,113.22,39.24,115,36.07,114.85Z"/><path class="cls-213" d="M40.09,136l10,9c-1.13,1.5-2.09.52-2.8-.35C44.91,141.72,41.13,140,40.09,136Z"/><path class="cls-271" d="M36.07,114.85a17.12,17.12,0,0,1,9-2.82,1.49,1.49,0,0,1,.09,1.33c-3,2-3.13,4.42-1.34,7.52a64.43,64.43,0,0,0,9.58,12.47c1.55,1.62,3.31.84,4.78,1.68.82,1.46-.09,2.21-1.18,2.9L54.13,141c-7.38-3.47-11.78-9.76-15.25-16.7C37.43,121.4,34.22,118.8,36.07,114.85Z"/><path class="cls-272" d="M57,137.93l1.2-2.81c0-.22,0-.44,0-.66a30.1,30.1,0,0,1,2.38-3.92c2-2.07,3.2-4.77,5.29-6.78a1,1,0,0,1,1.18.3c-.31,1.67-.62,3.34-.92,5L61.07,136C59.35,135.84,58.83,138.19,57,137.93Z"/><path class="cls-273" d="M129.09,137c3.95-1,6.18-4.33,8.37-7.21A55.92,55.92,0,0,0,146.05,115c5.27,1.22,2.31,4.86,1,6.16-4.43,4.33-6.5,10.22-10.53,14.74C134.38,138.3,132.2,141.07,129.09,137Z"/><path class="cls-274" d="M79.15,98c4.38.19,4-3.44,4.91-6.08L85.12,90l.29-.66c5.38-5.59,10.84-5.24,14.58.92,0,.23.07.47.11.71.58,1.64,2.12,2.44,3.4,3.5-1.27,1.12-3.36,1.92-3,3.36,1.26,5.19-1.39,3.84-4.52,3.44s-6.49.5-9.74.45C83.38,101.69,80,102.06,79.15,98Z"/><path class="cls-260" d="M100.07,79h4c-.52,2.5,2,3.13,2.92,4.74,1.27,2.19,3.31,4.06,1,7-2.16,2.68-4.14,1.74-6.39.53A5,5,0,0,0,100.1,91v0c-1.22-2-1.34-4.69-3.53-6.16-.7-.83-1.94-1.36-1.52-2.79l0,0c3.83.17,6.55,1.51,6.23,6-.18,2.52,1.69,2,3,1.93s2.56-.42,1.73-2.49-.84-4.73-3.86-5.41A2.9,2.9,0,0,1,100.07,79Z"/><path class="cls-275" d="M133.1,80c2.94-.45,1.88,1,1,2.24l-6.21,2.66c-3.48,2.45-7.09,4.42-11.59,3.19-1.65-.86-4.3,3-5.26-1.12Z"/><path class="cls-144" d="M107.1,101c-3.75-2.24-2.25,2.58-4,3,0-4,.79-7.2,6-6A3,3,0,0,1,107.1,101Z"/><path class="cls-276" d="M76.08,112l-6,7c-4.76,4.51-4.77,4.52-9.32-.54A16,16,0,0,0,58.44,116c-3.6-2.56-3.25-5.32-.49-8.25,2.71-2,6.3-1.17,9.11-2.86C71.48,102.82,75.08,105.66,76.08,112Z"/><path class="cls-277" d="M67.92,88.15c1.22-.39,2.08.4,3,.93a10.11,10.11,0,0,0-.84,5.34c.27,6.11-.38,6.82-6.71,7.6a23,23,0,0,0-3.32.91,1.8,1.8,0,0,1-.3-2C61.63,98.6,64.93,99,67,97c1.54-2.43.74-5,.6-7.6A2.44,2.44,0,0,1,67.92,88.15Z"/><path class="cls-278" d="M47.3,110.09A2.51,2.51,0,0,1,45.08,109c.13-.19.25-.38.37-.57a14.92,14.92,0,0,1,6.94-2.52l.68.06a45.92,45.92,0,0,0,10.87-2.77c.4-.14,1.41-.58,1.11.62-.11.42-.63.73-1,1.09-1.43,2-3.87,1.9-5.88,2.68-2.19.92-4.71,1-6.66,2.6C50.11,110.92,48.69,111.32,47.3,110.09Z"/><path class="cls-279" d="M60.11,101.21c0,.57,0,1.15,0,1.72-2.39.87-5.51.06-7,3h0c-.93.5-1.74,0-2.57-.29a1.66,1.66,0,0,1-.69-1.11c.33-1.26,1.37-1.76,2.4-2.27s2.14-.78,3.23-1.13C57,101,58.57,100,60.11,101.21Z"/><path class="cls-280" d="M58.38,107.12l5.7-2.23,3,0c-2.4,2.57-5.6,3-8.83,3.25l-.45-.57Z"/><path class="cls-142" d="M74.09,87l1-1,.06,5L74.06,91C72.22,89.65,74.49,88.33,74.09,87Z"/><path class="cls-281" d="M76.11,85.07a5,5,0,0,1,.94-.1c1.62-1.86,2.51-5.92,6-2a2.14,2.14,0,0,0,1,2A.89.89,0,0,1,84,86.34c-1.77,1.17-3.89.79-5.81,1.3A2.59,2.59,0,0,1,76.09,87C76.1,86.35,76.1,85.71,76.11,85.07Z"/><path class="cls-282" d="M76.09,87l2-.08.59.29a32.84,32.84,0,0,0,3.19,2.32c.13.18.24.37.36.56C78.61,92.1,77,90.3,76.09,87Z"/><path class="cls-282" d="M78,86.92c1.79-1.69,4-.73,6-.86,1.29,1.29,1.08,2.6,0,3.91l-1.86.12-.13-.16c-.7-1.79-2.8-1.68-3.91-2.9Z"/><path class="cls-283" d="M84,90l0-3.91c0-.35,0-.69,0-1l1,0c2.66,1.62,1.48,3.35.13,5.08L85.12,90Z"/><path class="cls-142" d="M83.08,92a6.27,6.27,0,0,1-3,3C79.86,92.76,80.87,91.76,83.08,92Z"/><path class="cls-280" d="M58.23,108.11c0,2-3.51,4.6-.17,6,4,1.67,5.12,10.76,12.07,4.89q-1.51,2.52-3,5.06l-.42,0-.41,0c-4.49,4.94-7.21,4.83-11.51-.47-.52-.65-1-1.34-1.49-2-2.08-2.64-4.53-5.47-4.28-8.79.32-4.2,5.36-2.71,7.6-4.89a1.55,1.55,0,0,1,1.39,0Z"/><path class="cls-284" d="M129.05,85.18l3-.17c2.28,5.54,3.36,11.16,1,17l-2.87-.16c-4.49-2.1-9.61-1.89-14.14-3.83a9.21,9.21,0,0,1-.06-9C120.4,87.86,124.7,86.44,129.05,85.18Z"/><path class="cls-285" d="M116.07,98c2.53-.41,4.86.61,7.15,1.27,2.87.83,5.32,1.24,7.12-1.82,1.37,1.78.32,3.06-.13,4.38l-1.44.33C124.46,101,120,100.18,116.07,98Z"/><path class="cls-285" d="M129.05,85.18c-4,2.6-8.42,3.49-13,3.77a2.34,2.34,0,0,0,.33-.84l11.59-3.19Z"/><path class="cls-285" d="M133.08,102l-1-17c1.39-.52,2.77-1.06,4.16-1.57,2.58-1,3.85.94,3.41,2.66-1.15,4.4.46,8.79-.54,13.15C138.21,103.09,137,105.16,133.08,102Z"/><path class="cls-240" d="M39,78.45c.63,1.2,2.44.19,3,1.58a3.17,3.17,0,0,1-1.22.82,8.85,8.85,0,0,1-2.17.28,2.93,2.93,0,0,0-3.15,2.57c-1.52,6.41-1.22,12.88-.63,19.35.18,2.06,1.47,2.84,3.44,2.71a4.51,4.51,0,0,1,2.86,1c.4,1-.14,1.53-.83,2-3.43,1.1-6.74,2.81-10.54,1.91a2.84,2.84,0,0,1-1.29-1.16C26,98.72,25.59,87.93,29.52,77.29c.59-.85,1.5-.75,2.37-.78C34.35,76.76,36.82,77,39,78.45Z"/><path class="cls-284" d="M60.11,101.21c-1.53.43-3,1.21-4.68.91a6.87,6.87,0,0,1-7.72-6c-.68-4-.86-8.5,1.35-12.45,2.86-.56,5.38,1.08,8.14,1.25l10.72,3.21c.14.25.27.5.39.76-1.51,1.66-3.3.94-5.05.61-1.22-.23-2.8-1.15-3.47.52a10.12,10.12,0,0,0,.09,6.78c.59,1.79,2.17.86,3.39.63,1.75-.33,3.54-1,5,.61C66,100.1,62.67,99.69,60.11,101.21Z"/><path class="cls-286" d="M32.3,76.86l-2.16.23a4.5,4.5,0,0,1-2.31.37c-1.41.34-1.73,1.56-2.18,2.67-.71,3.3-1.26,6.61-1.66,10-1.44,5.58,0,11,.6,16.54.24,2.2,2,2.79,3.63,3.54a3.53,3.53,0,0,1,1.1,1l-.28.72-8.89,2.13c-1.09.19-1.33-.52-1.58-1.37a65.05,65.05,0,0,1-1.75-28.46A3.62,3.62,0,0,1,18,82.11c2.26,0,2.05,1.66,2.07,3.07,0,1.8,0,3.61-.06,5.42.18-5.36.48-10.69,2.15-15.86a3,3,0,0,1,1-1.15c1-.08,2.13-.54,2.75.77l5.86,1.74A.53.53,0,0,1,32.3,76.86Z"/><path class="cls-287" d="M57.2,84.94c-2.83.7-5.37-.93-8.11-1-3.18.54-4.33,2.7-4.53,5.65-.11,1.66-.13,3.32-.13,5,0,6.72,0,6.72,6.72,7.66a1.87,1.87,0,0,1,1.19.82L50,104.81c-2.5,2.83-5.71,2.65-9,2.14H38.13c-2.65-9.07-2.72-18,1-26.87l2,.08c2,.89,4.19.77,6.31,1,.86.38,2,.12,2.6,1.06C52,84.07,55.12,83.19,57.2,84.94Z"/><path class="cls-250" d="M61,81.35l-1.92-.2c-1.35.19-2.66-.34-4-.17A10.29,10.29,0,0,1,49,79c-.79-.67-1.59-1.35-.49-2.41,3.1-1.08,5.83.73,8.74,1.12,1.64.6,3.6.79,3.92,3.06A1.55,1.55,0,0,1,61,81.35Z"/><path class="cls-170" d="M48.24,76.84c.26.73.53,1.45.79,2.18l-9-3,.51-.56a7.19,7.19,0,0,1,7.2.77Z"/><path class="cls-170" d="M33.11,74,37,73a3.43,3.43,0,0,1,2.48.65c.62.65,1.25,1.3.68,2.3l0,.06A15.63,15.63,0,0,1,33.11,74Z"/><path class="cls-170" d="M32.3,76.86a3.28,3.28,0,0,0-.46-.76c2.71-.25,5.3-.1,7.13,2.35Z"/><path class="cls-170" d="M55.09,81c1.4-1.71,2.69-.54,4,.17C57.7,82.29,56.36,82.39,55.09,81Z"/><path class="cls-170" d="M50,82.2l-2.62-.33c-1-.9-3.16.47-3.59-1.71C46.19,79.84,48.5,79.82,50,82.2Z"/><path class="cls-288" d="M43.8,80.16l3.59,1.71a6.91,6.91,0,0,1-6.29-1.72A4.05,4.05,0,0,1,42,80Z"/><path class="cls-170" d="M26,74.36l-2.85-.54c-1.43.15-2.9.35-3.17-1.69l.31-.26C22.44,72.09,24.83,71.82,26,74.36Z"/><path class="cls-289" d="M20,72.13c1.06.56,2.12,1.12,3.17,1.69l-.08.41q-.78.57-1.53,1.17c-2,1.62-.71,4.26-1.92,6.13l-.51.45c-3.55,10.82-2.3,21.48,1.06,32.07-2.67,1.87-1.65-1.89-3-2C14.91,103.49,15,94.74,15,86a43.65,43.65,0,0,1,1.8-10.76C17.32,73.59,17.69,71.92,20,72.13Z"/><path class="cls-290" d="M39.09,74.07,37,73l-3.11-1.86a2,2,0,0,0,.46-.29c4.06-7.85,8.39-15.5,15.16-21.42C50.79,48.28,51.85,46.56,54,47l2.05,3V50c-6.15,4.4-10.54,10.32-14.23,16.77-.83,1.47-2.92,3.13-.77,5.19l2,1c.08.22.17.44.26.66a1.79,1.79,0,0,1-.91,1A3.86,3.86,0,0,1,39.09,74.07Z"/><path class="cls-291" d="M33.11,112l-4,1.94,0-2-.07-.07C30.36,111.54,31.83,109,33.11,112Z"/><path class="cls-256" d="M96.08,26c4.22-2.33,8,.27,12,1h0c-4.12,1.1-8.09.44-12-1Z"/><path class="cls-292" d="M96.09,26c4-.26,7.91,1.63,12,1l1.9,1.34C105.51,29.14,97.85,27.86,96.09,26Z"/><path class="cls-293" d="M85.21,90.07c-.08-1.69,1.3-3.42-.13-5.08,1.71-.11,3.68.46,4.09-2.24.37-2.37,2.42-1.58,3.92-1.77h0c.74,1.79,2.37,2.39,4,3,3.17,1.39,3.12,4.18,3,7C95,85.49,93.14,84.89,85.21,90.07Z"/><path class="cls-283" d="M83.08,83c-3.08-2.62-4.07,1.15-6,2,.4-1.79.7-3.65,3-4C81.47,81,83,80.91,83.08,83Z"/><path class="cls-258" d="M97.09,84c-2.16.1-3.87-.4-4-3l2,1Z"/><path class="cls-294" d="M54,47c-7.25,6-13.22,12.91-16.93,21.6-.59,1.37-1.24,2.31-2.81,2.3-.95-3.38,1.46-5.55,2.87-8.09A59.17,59.17,0,0,1,48.61,48C50.2,46.51,51.75,44.79,54,47Z"/><path class="cls-295" d="M61.2,80.79l-4.1-1.94c-.05-3.68,5.26-12.4,8.14-13.75,2.24-1,2.83,1,4.05,1.82,2.76,3.3,6.59,6,6.58,10.93A12.16,12.16,0,0,0,73.93,80c-1.82,3.37-4.15,4.11-7.59,2.14C64.85,81.29,62.92,81.22,61.2,80.79Z"/><path class="cls-212" d="M60.12,54a43.18,43.18,0,0,1,6.34,8.89,1.51,1.51,0,0,1-2.23-.06c-3.32-4-5.52-1.4-7.93,1.14-3.36,3.54-5.53,7.81-7.8,12a1.43,1.43,0,0,1-1.84-.21c-1.17-1-2.93-1.16-3.55-2.8h0C45.73,65.65,50.6,59.91,56,54.5,57.43,53.08,58.73,54,60.12,54Z"/><path class="cls-296" d="M41.09,72c-1-.17-2.69.42-2.58-1.42C38.81,65.74,50.93,51.7,56.09,50c-.31,3-3,4.21-4.67,6.09C47.1,60.85,43.3,65.89,41.09,72Z"/><path class="cls-297" d="M48.09,76c1.27-7.16,6.3-11.8,11.1-16.61,1.46-1.47,2.36-1.16,3.47.48.9,1.33,2,2.7,3.8,3a5.88,5.88,0,0,1,2.83,4.05c-2-1.39-3.68-1.66-5.32.64A69.58,69.58,0,0,0,57.1,78.85l-8.86-2h0C47.57,76.69,47.52,76.4,48.09,76Z"/><path class="cls-298" d="M57.09,108a4.9,4.9,0,0,1-4.37,2.79c-3.56,0-3.1,1.72-2.21,4,1,2.64,2.83,4.77,4.47,7,4.23,5.79,5.63,6.1,11.3,2.22a18.62,18.62,0,0,1-4.91,7c-1.24.62-1.65,2.6-3.53,2.19-5.54-3.67-9.1-9-12.15-14.71-.89-1.66-2-3.56-.59-5.57,0-.32,0-.64,0-1,.47-.94,2.06-.61,2.19-1.94a4.19,4.19,0,0,0,3.85-1C53.11,108.63,54.87,107.09,57.09,108Z"/><path class="cls-299" d="M33.11,112c-1.32-1.92-2.78.52-4.14-.15.06-.29.11-.57.15-.86.14-.65.72-.7,1.21-.86l9.77-2.23c.75,1.37-.52,2-1,3Z"/><path class="cls-279" d="M39.07,110.88c.34-1,.69-2,1-3l.84-1,9-2.14.34.45c-.37,2.06-2.34,1.79-3.64,2.5-1.82.1-3.16,1.23-4.6,2.15Z"/><path class="cls-300" d="M42.05,109.91c1-1.51,2-2.87,4.07-2.86.51,1.11-.48,1.38-1,1.9v0Z"/><path class="cls-301" d="M45.1,113c1.61,8.43,7.84,13.86,13,20a1.59,1.59,0,0,1,.1,2.11l0,0c-2.13.9-3.7,1-5.74-1a60,60,0,0,1-10.29-13.8C40.16,116.55,40.17,113.86,45.1,113Z"/><path class="cls-271" d="M58.19,135.09l-.1-2.11,3.28-1.9A6.74,6.74,0,0,1,58.19,135.09Z"/><path class="cls-302" d="M68.32,98.06a12.16,12.16,0,0,0-4.39.45c-5.52,1.67-5.54,1.61-5.83-4.25,0-.83.08-1.67,0-2.48-.51-4.13.93-5.58,4.93-3.69a9.28,9.28,0,0,0,5.3.82A11.22,11.22,0,0,1,68.32,98.06Z"/><path class="cls-178" d="M45.08,109l1-1.9,4.17-1.79,2.79.69C50.7,107.72,47.83,108.18,45.08,109Z"/><path class="cls-303" d="M57.09,108c-2,.13-3.81,1.54-5.94,1.12a8.25,8.25,0,0,1,7.23-2l-.39.75-.47-.07Z"/><path class="cls-285" d="M52.34,103.1c-9.25.87-9.27.87-9.23-8.75A34.38,34.38,0,0,1,43.82,86c.91-3.73,2.65-3.63,5.27-2-.25,3.45,0,6.89-.48,10.38-.62,4.61,4,5.56,6.82,7.75A3.89,3.89,0,0,1,52.34,103.1Z"/><path class="cls-304" d="M78.14,87c1.42.81,5.68-2.22,3.91,2.9C79.93,90.07,78.21,89.66,78.14,87Z"/><path class="cls-288" d="M39.14,80.07C37.9,89,38,98,38.13,106.94c-3.1,1-4.41-.45-4.68-3.37a72.47,72.47,0,0,1,.81-21.65C34.93,78.68,37,79.43,39.14,80.07Z"/><path class="cls-305" d="M28,76.13l2.1,1C29.46,84,27.51,90.64,28,97.68c.28,4.11,1.72,8.11,1.13,12.28-2.37.14-2.35-1.9-2.89-3.31-.48-1.24-.22-2.66-.55-3.9-.57-2.13,1.7-5.3-2.65-6.33-1-.23-.77-4.21.06-6.44,0-3.8.28-7.53,2-11,1.89,1.71.37,3.7.5,5.43C26.31,81.72,25.91,78.55,28,76.13Z"/><path class="cls-306" d="M23.09,90c1.24,1.88-3,6.46,3.15,6.11,1.13-.07.8,2.26.84,3.53.13,3.56-.57,7.27,2,10.34l1.21.17-1.21.86c-4.28.54-6.26-.82-6.16-5.66C23.05,100.23,20.75,95.1,23.09,90Z"/><path class="cls-307" d="M21.13,74.05l1.92.18q-1.31,10-2.6,20l-1.36-.11V82h0C20.15,79.44,19.12,76.35,21.13,74.05Z"/><path class="cls-308" d="M28,76.13c.54,4-2.59,7.11-2.95,11V79C25.24,77.16,26,76,28,76.13Z"/><path class="cls-250" d="M48.09,76a5,5,0,0,1,.17.86L40.11,76l-1-1.9,3.94.11c1.26.57,3-.34,4,1.14Z"/><path class="cls-286" d="M21.13,74.05c-.64,2.65-.5,5.51-2,7.93C19.64,79.31,17.61,76,21.13,74.05Z"/><path class="cls-265" d="M47,75.32c-1.36-.23-2.84-.06-4-1.14,0-.4,0-.8.08-1.2C44.27,74,46.33,73.49,47,75.32Z"/></g></g></svg>