<svg xmlns="http://www.w3.org/2000/svg" viewBox="0 0 185.23 187.02"><defs><style>.cls-1{fill:#fefefe;}.cls-2{fill:#fdfdfd;}.cls-3{fill:#efe0c9;}.cls-4{fill:#624b2c;}.cls-5{fill:#594225;}.cls-6{fill:#624a27;}.cls-7{fill:#544027;}.cls-8{fill:#59452c;}.cls-9{fill:#71552e;}.cls-10{fill:#644f30;}.cls-11{fill:#6f5834;}.cls-12{fill:#483621;}.cls-13{fill:#362d24;}.cls-14{fill:#584124;}.cls-15{fill:#584227;}.cls-16{fill:#563f22;}.cls-17{fill:#332a23;}.cls-18{fill:#684616;}.cls-19{fill:#352a1f;}.cls-20{fill:#decfa1;}.cls-21{fill:#dfd09e;}.cls-22{fill:#d8c697;}.cls-23{fill:#dac697;}.cls-24{fill:#e4d6a0;}.cls-25{fill:#d1b886;}.cls-26{fill:#967343;}.cls-27{fill:#d8c495;}.cls-28{fill:#c9ad7a;}.cls-29{fill:#987444;}.cls-30{fill:#e4d7a6;}.cls-31{fill:#785932;}.cls-32{fill:#7a5833;}.cls-33{fill:#89653b;}.cls-34{fill:#cdba84;}.cls-35{fill:#c0a472;}.cls-36{fill:#302821;}.cls-37{fill:#967344;}.cls-38{fill:#8a673b;}.cls-39{fill:#bd9d67;}.cls-40{fill:#c9b583;}.cls-41{fill:#86633b;}.cls-42{fill:#7d6a36;}.cls-43{fill:#7a5935;}.cls-44{fill:#d4be8a;}.cls-45{fill:#a78751;}.cls-46{fill:#997544;}.cls-47{fill:#6d4c2c;}.cls-48{fill:#734f2e;}.cls-49{fill:#816639;}.cls-50{fill:#c9aa76;}.cls-51{fill:#3d2e1d;}.cls-52{fill:#8b673c;}.cls-53{fill:#947241;}.cls-54{fill:#423619;}.cls-55{fill:#9d7a47;}.cls-56{fill:#b7a36d;}.cls-57{fill:#cbb381;}.cls-58{fill:#c3a774;}.cls-59{fill:#775531;}.cls-60{fill:#a2814d;}.cls-61{fill:#957243;}.cls-62{fill:#b49560;}.cls-63{fill:#896b3d;}.cls-64{fill:#bea06e;}.cls-65{fill:#ad8c58;}.cls-66{fill:#c1b27a;}.cls-67{fill:#9a7847;}.cls-68{fill:#6c5c29;}.cls-69{fill:#6e5735;}.cls-70{fill:#906c3f;}.cls-71{fill:#937344;}.cls-72{fill:#a68a58;}.cls-73{fill:#927442;}.cls-74{fill:#b3935c;}.cls-75{fill:#5b4d27;}.cls-76{fill:#e3d5a9;}.cls-77{fill:#534627;}.cls-78{fill:#a4824e;}.cls-79{fill:#5a4932;}.cls-80{fill:#40352a;}.cls-81{fill:#8d693d;}.cls-82{fill:#534123;}.cls-83{fill:#5c4e22;}.cls-84{fill:#8e6a3d;}.cls-85{fill:#61512a;}.cls-86{fill:#bfae77;}.cls-87{fill:#352a16;}.cls-88{fill:#c4aa77;}.cls-89{fill:#977544;}.cls-90{fill:#322714;}.cls-91{fill:#bbab74;}.cls-92{fill:#352f29;}.cls-93{fill:#85653a;}.cls-94{fill:#705737;}.cls-95{fill:#9e8250;}.cls-96{fill:#514430;}.cls-97{fill:#e0d1a2;}.cls-98{fill:#c1a16c;}.cls-99{fill:#947546;}.cls-100{fill:#c5a872;}.cls-101{fill:#bbab75;}.cls-102{fill:#312b26;}.cls-103{fill:#6c5a2b;}.cls-104{fill:#4b4134;}.cls-105{fill:#8f6b3e;}.cls-106{fill:#6e5a3d;}.cls-107{fill:#614f2b;}.cls-108{fill:#302513;}.cls-109{fill:#645238;}.cls-110{fill:#a88955;}.cls-111{fill:#494035;}.cls-112{fill:#877841;}.cls-113{fill:#bbac71;}.cls-114{fill:#cdc18e;}.cls-115{fill:#a8854f;}.cls-116{fill:#795833;}.cls-117{fill:#aea169;}.cls-118{fill:#9b794a;}.cls-119{fill:#d1c38e;}.cls-120{fill:#cfb582;}.cls-121{fill:#ddcc9e;}.cls-122{fill:#524432;}.cls-123{fill:#644f31;}.cls-124{fill:#b89861;}.cls-125{fill:#84653e;}.cls-126{fill:#483f34;}.cls-127{fill:#836038;}.cls-128{fill:#d7c394;}.cls-129{fill:#e5d99f;}.cls-130{fill:#483a1f;}.cls-131{fill:#704f2d;}.cls-132{fill:#88653b;}.cls-133{fill:#67492b;}.cls-134{fill:#43372d;}.cls-135{fill:#d4c791;}.cls-136{fill:#87663a;}.cls-137{fill:#534424;}.cls-138{fill:#4a3e2f;}.cls-139{fill:#7e6641;}.cls-140{fill:#bcac71;}.cls-141{fill:#cec38e;}.cls-142{fill:#ada169;}.cls-143{fill:#755935;}.cls-144{fill:#3f3b34;}.cls-145{fill:#846b39;}.cls-146{fill:#44381c;}.cls-147{fill:#44382b;}.cls-148{fill:#272322;}.cls-149{fill:#4c4a44;}.cls-150{fill:#54514a;}.cls-151{fill:#5a574f;}.cls-152{fill:#494741;}.cls-153{fill:#423f39;}.cls-154{fill:#4a3b26;}.cls-155{fill:#3a332b;}.cls-156{fill:#5d4b32;}.cls-157{fill:#3d3931;}.cls-158{fill:#3c3932;}.cls-159{fill:#685133;}.cls-160{fill:#525048;}.cls-161{fill:#a9a596;}.cls-162{fill:#434039;}.cls-163{fill:#4d4a44;}.cls-164{fill:#48453f;}.cls-165{fill:#3d3a34;}.cls-166{fill:#c2bcab;}.cls-167{fill:#8f8777;}.cls-168{fill:#959182;}.cls-169{fill:#7d6643;}.cls-170{fill:#6b5334;}.cls-171{fill:#544634;}.cls-172{fill:#3b342d;}.cls-173{fill:#504128;}.cls-174{fill:#9c7745;}.cls-175{fill:#534738;}.cls-176{fill:#6e5636;}.cls-177{fill:#967b54;}.cls-178{fill:#3f3c36;}.cls-179{fill:#5b482d;}.cls-180{fill:#4b4943;}.cls-181{fill:#45423c;}.cls-182{fill:#7f6540;}.cls-183{fill:#989384;}.cls-184{fill:#868072;}.cls-185{fill:#524939;}.cls-186{fill:#635137;}.cls-187{fill:#352a15;}.cls-188{fill:#888374;}.cls-189{fill:#b4afa1;}.cls-190{fill:#a6a294;}.cls-191{fill:#665238;}.cls-192{fill:#a8a496;}.cls-193{fill:#9b9788;}.cls-194{fill:#cbc5b3;}.cls-195{fill:#c1bbaa;}.cls-196{fill:#c2bdac;}.cls-197{fill:#c9c3b1;}.cls-198{fill:#d0cab9;}.cls-199{fill:#d7d1be;}.cls-200{fill:#999585;}.cls-201{fill:#aeaba0;}.cls-202{fill:#9e9a8f;}.cls-203{fill:#827c6d;}.cls-204{fill:#554632;}.cls-205{fill:#3b2e19;}.cls-206{fill:#c5b985;}.cls-207{fill:#c8ab75;}.cls-208{fill:#37302a;}.cls-209{fill:#80653b;}.cls-210{fill:#9d8d5c;}.cls-211{fill:#2c2725;}.cls-212{fill:#908b7d;}.cls-213{fill:#7d6b49;}.cls-214{fill:#584725;}.cls-215{fill:#41331a;}.cls-216{fill:#8e7f43;}.cls-217{fill:#564938;}.cls-218{fill:#635036;}.cls-219{fill:#908b7c;}.cls-220{fill:#969287;}.cls-221{fill:#5f4d34;}.cls-222{fill:#9b988e;}.cls-223{fill:#938e7e;}.cls-224{fill:#342c26;}.cls-225{fill:#504639;}.cls-226{fill:#535149;}.cls-227{fill:#5f5b52;}.cls-228{fill:#5f5b54;}.cls-229{fill:#e7e0c9;}.cls-230{fill:#4e4b45;}.cls-231{fill:#a17e4c;}.cls-232{fill:#795c38;}.cls-233{fill:#d0cab7;}.cls-234{fill:#594b37;}.cls-235{fill:#dfd9c5;}.cls-236{fill:#49463f;}.cls-237{fill:#5d4b33;}.cls-238{fill:#443725;}.cls-239{fill:#cbb571;}.cls-240{fill:#695438;}.cls-241{fill:#745834;}.cls-242{fill:#b0a691;}.cls-243{fill:#674e2e;}.cls-244{fill:#c9af67;}.cls-245{fill:#8a6f46;}.cls-246{fill:#42403a;}.cls-247{fill:#493b28;}.cls-248{fill:#5f5c54;}.cls-249{fill:#525049;}.cls-250{fill:#4d4b45;}.cls-251{fill:#44423c;}.cls-252{fill:#4d4b46;}.cls-253{fill:#4a4842;}.cls-254{fill:#5a574e;}.cls-255{fill:#735a3a;}.cls-256{fill:#58554d;}.cls-257{fill:#443522;}.cls-258{fill:#b6b1a0;}.cls-259{fill:#d9d2be;}.cls-260{fill:#d5cfbb;}.cls-261{fill:#cdc7b3;}.cls-262{fill:#a19f96;}.cls-263{fill:#3e352c;}.cls-264{fill:#735735;}.cls-265{fill:#e4dec8;}.cls-266{fill:#5c5951;}.cls-267{fill:#a38854;}.cls-268{fill:#6f5c40;}.cls-269{fill:#5a472e;}.cls-270{fill:#cdc7b6;}.cls-271{fill:#b4b0a3;}.cls-272{fill:#9e9b90;}.cls-273{fill:#463723;}.cls-274{fill:#b1ad9e;}.cls-275{fill:#cac5b3;}.cls-276{fill:#d9d3c0;}.cls-277{fill:#80643f;}.cls-278{fill:#65533b;}.cls-279{fill:#98896e;}.cls-280{fill:#a09e95;}.cls-281{fill:#d3cdbb;}.cls-282{fill:#a2967e;}.cls-283{fill:#b7b2a3;}.cls-284{fill:#e3dcc5;}.cls-285{fill:#765b39;}.cls-286{fill:#ded8c4;}.cls-287{fill:#a7a294;}.cls-288{fill:#9f9b8d;}.cls-289{fill:#b19e7c;}.cls-290{fill:#886d41;}.cls-291{fill:#c7c1af;}.cls-292{fill:#bab5a4;}.cls-293{fill:#afaa99;}.cls-294{fill:#9e998a;}.cls-295{fill:#acaaa0;}.cls-296{fill:#bab7ad;}.cls-297{fill:#c8c2af;}.cls-298{fill:#bcb6a5;}.cls-299{fill:#b1ac9b;}.cls-300{fill:#d1cab7;}.cls-301{fill:#d8d2bd;}.cls-302{fill:#e0d9c3;}.cls-303{fill:#e4ddc7;}.cls-304{fill:#a7a293;}.cls-305{fill:#c0baa8;}.cls-306{fill:#b5b0a0;}.cls-307{fill:#d5ceba;}.cls-308{fill:#dcd5c1;}.cls-309{fill:#715632;}.cls-310{fill:#534026;}.cls-311{fill:#b3955a;}.cls-312{fill:#937142;}.cls-313{fill:#e2d6b0;}.cls-314{fill:#5c472b;}.cls-315{fill:#866339;}.cls-316{fill:#d9d3bf;}.cls-317{fill:#5c5950;}.cls-318{fill:#84693d;}.cls-319{fill:#cfb970;}.cls-320{fill:#7a6240;}.cls-321{fill:#987645;}.cls-322{fill:#967242;}.cls-323{fill:#6e5c43;}.cls-324{fill:#ece5cd;}.cls-325{fill:#a2824d;}.cls-326{fill:#e5dec9;}.cls-327{fill:#a27e49;}.cls-328{fill:#c3c0b6;}.cls-329{fill:#362917;}.cls-330{fill:#857b66;}.cls-331{fill:#281d10;}.cls-332{fill:#745632;}.cls-333{fill:#c4b58a;}.cls-334{fill:#ac915c;}</style></defs><g id="Layer_2" data-name="Layer 2"><g id="Layer_8_Image" data-name="Layer 8 Image"><path class="cls-1" d="M104.18.07c26,0,52,0,78-.07,2.5,0,3.07.56,3.06,3.07-.1,27.66-.06,55.32-.06,83a1.11,1.11,0,0,1-1.46-.07c-2.7-2.79-1.26-6.59-2.4-9.76a28.62,28.62,0,0,0-2.39-9.4C170.07,39.21,152.25,20,125.27,9.21c-3.71-1.48-7.4-2.94-11.43-3.23-.68-.15-1.35-.36-2-.55a21.83,21.83,0,0,1-2.64-.7,24.59,24.59,0,0,1-4.26-2.21C104.27,1.83,103.62,1.13,104.18.07Z"/><path class="cls-2" d="M104.18.07c.33.64.67,1.28,1,1.93a3.61,3.61,0,0,1-2.41,1.29q-10.08.39-20.19,0A3.5,3.5,0,0,1,80.18,2l1-1.93Z"/><path class="cls-2" d="M185.17,111.05h-2a3.49,3.49,0,0,1-1.13-2.12c-.2-2.76-.41-5.51,1.65-7.79a1.15,1.15,0,0,1,1.49-.08Z"/><path class="cls-3" d="M185.17,101.05l-.43,0h-.42a3,3,0,0,1-1.1-1.38,39.65,39.65,0,0,1,0-12.35A2.9,2.9,0,0,1,184.32,86a3,3,0,0,1,.85,0Z"/><path class="cls-4" d="M19.94,37.06l1.45-1.91c1.16-2.09,2.48-4,4.73-5.09l.07-.08a22.19,22.19,0,0,1,8.24-7.8l5.76-4.32a7.65,7.65,0,0,1,4.14-2.72l1.86-1.24a6.6,6.6,0,0,1,3.12-1.56L53.2,10a9,9,0,0,1,5.07-1.86c1.06-1.19,2.56-1,3.92-1.26C64.62,4,68.26,5.08,71.26,4.09a1.39,1.39,0,0,1,.92.1c1.14,3.69-3.24,2.56-4,4.6a5.93,5.93,0,0,1-1.1.9c-2.7,1.46-5.94,1.46-8.56,3.13a35.61,35.61,0,0,1-8.72,4.09c-3.2,2-6,4.64-9.09,6.74-3.09,1.91-5.53,4.56-8.1,7.06-4.21,3.37-8.29,6.86-10.85,11.75-3,4.29-6.54,8.31-7.6,13.69-.75,2-1.34,4.08-3.3,5.31a2.84,2.84,0,0,1-1.39,0,3.47,3.47,0,0,1-1.69-2.13A1.89,1.89,0,0,1,8,58.06c1.73-6.45,5.77-11.66,9.21-17.2A6.56,6.56,0,0,1,19.94,37.06Z"/><path class="cls-5" d="M73.27,183.24l-1.18-.19c-2.07-1.51-5.27,1.33-6.9-1.81-1.29-.52-3-.05-3.87-1.55-1.15.31-2.25.39-3-.78l0,0c-1-.46-2.25.26-3.08-.77l-10.79-6.2a6.3,6.3,0,0,1-4.19-2.87l-.05,0c-2.24-.45-3.69-2-5-3.69l-1.87-1.58c-3.95-2-6.68-5.18-9-8.8h0c-1.28-.69-2.54-1.41-2.82-3L19.05,149c-1.13-.63-1.43-1.8-1.88-2.87A74.69,74.69,0,0,1,8,129c-2.39-1.76-2.77-4.19-2.29-6.9a1.54,1.54,0,0,1,1.39-1.53c3.26,1,2.8,4.41,4.1,6.67a55.69,55.69,0,0,1,2.54,5.21c.63,2.22,2.13,4,3.2,6a13.09,13.09,0,0,0,2.84,5.06A15.76,15.76,0,0,1,21,145.1c7.52,9.69,16.08,18.23,26.83,24.35,5.05,3.52,10.9,5.32,16.46,7.74,2.27.72,4.61,1.2,6.86,2,1.67.8,3.86.33,5.14,2.1.1,1.73-1.28,1.64-2.37,1.91Z"/><path class="cls-6" d="M136,174.74c-2.44.28-4,2.07-5.87,3.37-.82,1.07-2.16.25-3.11.85l-6.88,2.31c-1.57,2.74-4.35.74-6.4,1.62h-1.63c-.89-.87-2.52.28-3.19-1.17,1.06-2.67,3.79-1.5,5.6-2.44a20.25,20.25,0,0,0,2.53-1.08c1.92-1.92,3.6-3.52,7-2.46,1.89.6,4.18-1.61,6.4-2.28a14.66,14.66,0,0,0,2.34-1.18,12.69,12.69,0,0,1,2.33-1.24c1.81-.69,3.65-1.31,5-2.79a10.57,10.57,0,0,1,3.42-2.92,13.58,13.58,0,0,0,2.23-1.1c1-.77,2-1.6,3-2.32,2.86-2,4.86-5,7.69-7a2.74,2.74,0,0,1,1.32-.32,2.49,2.49,0,0,1,1.6,1.2,1.19,1.19,0,0,1-.24,1.23l0,0a10.32,10.32,0,0,1-5,4.92h0c-.38.95-.87,1.77-2.05,1.81l-6.9,5.41A7.44,7.44,0,0,1,141,172c-.75.08-1.59,0-1.93.9A5.32,5.32,0,0,1,136,174.74Z"/><path class="cls-5" d="M159.36,156.11l-1.2-1.08c.72-4.77,5.63-6.84,7.14-11.1a9.56,9.56,0,0,0,1.74-2.69,28.24,28.24,0,0,0,1.11-3.71,4,4,0,0,1,1.46-2.2c2.82-1.81,3.44-5,4.82-7.7.76-1.75,1.23-3.6,1.85-5.41a47.88,47.88,0,0,0,2.49-9.49c.32-1.52.12-3.41,2.26-3.92,1.55.66,1.63,2,1.64,3.43.35,1.66.8,3.33-.68,4.71s-1.29,3.39-1.85,5.12c-.34,2.55-.33,5.23-2.73,7-2.15,6.17-6.31,11.24-9.26,17a5.21,5.21,0,0,1-3,4c-1.06.22-1,1.16-1.19,1.92C163,154,161.86,155.78,159.36,156.11Z"/><path class="cls-7" d="M7.9,58.94a2.23,2.23,0,0,1,1.33,2.18c.82,4.39-2.51,8.17-1.83,12.54a10.73,10.73,0,0,1-1.29,4.12c-1.22,1.47-1.18,3.27-1.32,5a26.89,26.89,0,0,0-.24,5.81c0,2.38,0,4.77,0,7.15,0,3.2-.07,6.41.21,9.61-.38,1.49-.15,3.39-2.43,3.58-.62-1.26.66-3-1.09-4l0,0c-.08-1-.17-2-.25-3a3,3,0,0,1-.08-2.27,61.91,61.91,0,0,0,0-12.4A2.91,2.91,0,0,1,1,85.09a2,2,0,0,0,.2-1c0-4.42,0-8.87,1.78-13.05l2.2-6C5.71,62.84,4.83,60,7.9,58.94Z"/><path class="cls-8" d="M80.16,184.9l-3.9-1a.9.9,0,0,1,.16-1.26,12,12,0,0,1,4.27-1.45c1.63-.29,3.18.22,4.77.39,5.42.33,10.86-.37,16.26.37,2.07.94,4.66.24,6.44,2.07l-3,.88A58.1,58.1,0,0,1,80.16,184.9Z"/><path class="cls-9" d="M182.29,112.29,181.17,109a3.16,3.16,0,0,1-.78-3.42c.53-1.5.18-3.07.3-4.22-.05-1-.51-.4-.45-.32.83,1.14.29,2.46.31,3.72a2,2,0,0,1-1,1c-4.89,1.08-4.06-3.27-5.36-5.61-.69-1.27-1.63-2.47-1.24-4.07,1.68-1.31,3.58-.52,5.4-.59,4.33-.4,5.36,2,4.81,5.71-.38,2.58-1,5.17-.11,7.78.05.68.09,1.37.13,2.05a.45.45,0,0,0-.15.7C183,112.2,182.75,112.39,182.29,112.29Z"/><path class="cls-10" d="M80.18,2l2,.31a162.41,162.41,0,0,0,20.93,0l2-.31c1.5.51,3.19.6,4.36,1.89-.74,1.28-2.09,1.56-3.34,2a9.44,9.44,0,0,1-3.17.32c-2.3-.38-4.58-1-7-.8-3.88,0-7.75-.23-11.62.19A8.39,8.39,0,0,1,83,6a9.78,9.78,0,0,1-4.53-.17c-1.13-.54-2.37-1-2.34-2.58C77.21,2,78.83,2.42,80.18,2Z"/><path class="cls-2" d="M80.16,184.9h25a4.52,4.52,0,0,1-3.8,2q-8.72.13-17.44,0A4.5,4.5,0,0,1,80.16,184.9Z"/><path class="cls-11" d="M2.34,109l1.65-3,.64.4a10.7,10.7,0,0,1,1.58,3.43c.4,3.75,3.26,7.26,1.12,11.26l-1.27,1.29a.56.56,0,0,1-.83-.28c-.72-2-1.45-4-2.17-6a7.44,7.44,0,0,1-.83-5Z"/><path class="cls-2" d="M24.31,155l9,8.8c-.08.14-.17.4-.26.4C30,164.2,24.34,158.27,24.31,155Z"/><path class="cls-2" d="M3,71.07c-.71,4.34-.23,8.83-1.78,13.05C-.27,79.49-.36,75.05,3,71.07Z"/><path class="cls-2" d="M34.43,22.18,26.19,30C27.08,25.41,29.9,22.89,34.43,22.18Z"/><path class="cls-2" d="M1.34,100,1,102A35.64,35.64,0,0,1,1,85.09l.32,2A50.48,50.48,0,0,1,1.34,100Z"/><path class="cls-10" d="M67.23,8.16c.35-2.94,4.66-1,5-4l1.08,0c1.3.83,3.09-.42,4.23,1a1.81,1.81,0,0,1-.33,1.49C74.11,9,70.73,9,67.23,8.16Z"/><path class="cls-12" d="M108.16,184c-2-.47-4.17.69-6-.93.66-1.92,2.29-2.12,4-2.25a4,4,0,0,1,3,1.09c1.06.12,2.25-.16,3,1Z"/><path class="cls-2" d="M7.9,58.94c-2,1.55-1.06,4.4-2.7,6.1-1.64-3.33-.82-5.7,2.75-7A1.4,1.4,0,0,1,7.9,58.94Z"/><path class="cls-2" d="M71.26,4.09,62.19,6.86C64.24,2.75,67.89,3.88,71.26,4.09Z"/><path class="cls-2" d="M159.36,156.11l4.56-4.18c.16,2.77-1.75,4.83-4.73,5.1A2.88,2.88,0,0,1,159.36,156.11Z"/><path class="cls-2" d="M5.23,122a5.07,5.07,0,0,0,.83.28c-.29,2.52,1.37,4.48,2,6.75C3.89,128,4.32,125.08,5.23,122Z"/><path class="cls-2" d="M177.41,129l2.73-7C181.07,125.11,181.41,127.93,177.41,129Z"/><path class="cls-2" d="M154.13,162a20.27,20.27,0,0,1,5-4.92C159.2,160.47,157.55,162.13,154.13,162Z"/><path class="cls-2" d="M26.12,30.06a18.08,18.08,0,0,1-4.73,5.09C21.93,32.48,22.25,29.61,26.12,30.06Z"/><path class="cls-2" d="M65.19,181.24c2.12,1.26,4.91,0,6.9,1.81C69.8,182.39,66.29,186.4,65.19,181.24Z"/><path class="cls-2" d="M113.78,182.89c1.88-1.55,4.43-.42,6.4-1.62C119.12,186,116.06,182.92,113.78,182.89Z"/><path class="cls-2" d="M35.19,165.33l5,3.69C37,169.83,35.57,168.28,35.19,165.33Z"/><path class="cls-2" d="M58.27,8.12c-1.59.9-3.1,2-5.07,1.86C54.39,8,55.72,6.41,58.27,8.12Z"/><path class="cls-2" d="M44.33,15.14c-.93,1.59-2.54,2.15-4.14,2.72C40.75,15.7,41.48,13.8,44.33,15.14Z"/><path class="cls-2" d="M19.94,37.06a8.91,8.91,0,0,1-2.78,3.8C15.34,37.58,18.19,37.72,19.94,37.06Z"/><path class="cls-2" d="M141,172a6.92,6.92,0,0,1,4.16-2.73C144.62,171.41,143.87,173.3,141,172Z"/><path class="cls-2" d="M40.21,169.05c1.57.72,3.23,1.28,4.19,2.87C41.41,173.3,40.67,171.38,40.21,169.05Z"/><path class="cls-2" d="M2.23,111a7.28,7.28,0,0,1,.83,5C1.06,114.65.35,113.06,2.23,111Z"/><path class="cls-2" d="M182.29,112.29a6.24,6.24,0,0,1,.72-.55c1,2,2.16,4-1,5.21Z"/><path class="cls-2" d="M165.11,150l3-4C170,149.49,167.24,149.52,165.11,150Z"/><path class="cls-2" d="M58.3,178.91c1,.2,2.19-.15,3,.78C59.75,181.61,58.71,181.49,58.3,178.91Z"/><path class="cls-13" d="M77.33,5.17c-1.34-.41-3,.4-4.07-1l2.86-1,2,1.82A.54.54,0,0,1,77.33,5.17Z"/><path class="cls-2" d="M49.31,12.34c-.87.86-1.75,1.71-3.12,1.56C46.59,12.09,47.43,11.17,49.31,12.34Z"/><path class="cls-2" d="M17.17,146.17c1.23.57,1.56,1.71,1.88,2.87C16.76,149.17,15.78,148.45,17.17,146.17Z"/><path class="cls-2" d="M152.07,163.81l2.05-1.81c.33.86,1,1.79-.15,2.52C153.11,165.06,152.48,164.63,152.07,163.81Z"/><path class="cls-2" d="M21.48,151.91l2.82,3C22.49,154.74,20.69,154.54,21.48,151.91Z"/><path class="cls-2" d="M127.06,179c.77-1.26,2-1,3.11-.85C129.8,180.83,128.3,179.42,127.06,179Z"/><path class="cls-2" d="M55.19,178.12c1.14-.2,2.28-.42,3.08.77C57,179.46,55.6,180.84,55.19,178.12Z"/><path class="cls-2" d="M136,174.74l3-1.89C138.42,174,138.24,176,136,174.74Z"/><path class="cls-2" d="M76,183.09a3.86,3.86,0,0,1,.24.82c-1.48,1.92-2.19.43-3-.67l-.09-.36C74.16,182.5,75.13,182.26,76,183.09Z"/><path class="cls-2" d="M1.25,105v5.32c-1.27-2.78-1.41-4.1,0-5.3Z"/><path class="cls-14" d="M113.22,4.92c11.41.8,21.12,6.12,30.26,12.27,17.79,12,30.39,28.09,36.52,48.9-.57.66,0,2.06-1.38,2.19-2.92-2.21-3-5.81-4.28-8.81-2.09-3.82-3.5-8-5.78-11.68A29.66,29.66,0,0,0,164.4,42a22.28,22.28,0,0,1-3.63-4.47c-.46-.71-.88-1.44-1.4-2.11a52.61,52.61,0,0,0-4.08-4.1c-5.21-4.5-10.35-9.08-16.43-12.41a23.46,23.46,0,0,1-2.77-2.2c-6.68-2.93-13.25-6.14-20.26-8.26-1.26-.38-2.63-.63-3.09-2.16A1.72,1.72,0,0,1,113.22,4.92Z"/><path class="cls-15" d="M183,109c-1.81-2.54-.34-5.43-.9-8.07-.33-1.6,1.73-5.89-3.12-3.25L178.16,96c-.41-1.66,1-2.54,1.57-3.79,2.16-3.11.51-6.3.27-9.47a43.77,43.77,0,0,1-.46-5.83c.44-1.65,1.78-1,2.84-1.14,1.68,3.22,0,7.06,1.94,10.23-.11.37-.21.74-.32,1.11A48.65,48.65,0,0,0,184,100c.1.37.21.74.32,1.11C182.88,103.56,183.36,106.34,183,109Z"/><path class="cls-16" d="M182.38,75.78c-.59,1.2-1.41.54-2.17.26-1.83-2.43-2.9-5-1.11-7.91l.9-2C181.06,69.26,182.89,72.23,182.38,75.78Z"/><path class="cls-17" d="M106.26,5c.83-1.17,2.19-.7,3.28-1.06l2.55.27c0,2-1.61,1.82-2.89,2.06A3.4,3.4,0,0,1,106.26,5Z"/><path class="cls-10" d="M109.11,5.17c1-.23,2.27.16,3-1,.67-.18,1,.16,1.13.76,0,.41-.06.82-.08,1.23C111.47,7.16,110,7.58,109.11,5.17Z"/><path class="cls-18" d="M103.15,2.31a59.11,59.11,0,0,1-20.93,0A157.19,157.19,0,0,1,103.15,2.31Z"/><path class="cls-19" d="M184,100a20.59,20.59,0,0,1,0-12.87Z"/><path class="cls-20" d="M67.23,8.16l10-2c1.82-1.34,4.14.26,6-1h0c2.13-1,4.38-.34,6.57-.46,1.53-.09,1.81,1,1.67,2.23a7.09,7.09,0,0,1-.38,1.59c-.61,3.48-1.69,5.45-6.13,4.28C80,11.4,75.18,15.28,70,14.49a26.93,26.93,0,0,0-6.94,1.36c-1.25.59-2.3,1.65-3.81,1.58A5.93,5.93,0,0,1,55.89,15c0-1.46,1-2,2.2-2.42,2.68-2,6.38-1.57,9-3.68C67.15,8.62,67.19,8.39,67.23,8.16Z"/><path class="cls-21" d="M21.12,41.9c2-5.48,6.46-8.72,11-11.9,1.47-.41,1.69.73,2.07,1.68a6.79,6.79,0,0,1,.11,2.25c-.31,2.88-3.24,4-4.29,6.4a34.9,34.9,0,0,0-4.88,11.06c-2.88.41-4.41-1.76-6.28-3.28C18.26,45.55,20.67,44.09,21.12,41.9Z"/><path class="cls-22" d="M21.12,41.9c.81,2.52-1.95,3.94-1.91,6.23.5.87,0,1.61-.29,2.38-.67,1.42-.22,2.82.09,4.23.23,2.68-1.32,4.86-2,7.29a16.51,16.51,0,0,1-3.58,5.28C11.11,68,11,66.7,11,64.91c-.06-3.18,2.19-5.74,2.19-8.87C13.74,50.16,17.63,46.15,21.12,41.9Z"/><path class="cls-23" d="M33.22,32.12A2.26,2.26,0,0,0,32.1,30a19.49,19.49,0,0,1,8-7c.15.14.3.29.46.42.62,1.82,2.22,1.22,3.51,1.4a1.94,1.94,0,0,1,.66,1.82,3.36,3.36,0,0,1-.62,1.22A14.52,14.52,0,0,1,33.22,32.12Z"/><path class="cls-24" d="M40.14,23l8.92-7c1.38-.73,2.89-.22,4.31-.47a1.84,1.84,0,0,1,1.18.77c.47,1.85-.78,2.61-2.1,3.32a6,6,0,0,1-2.58.36c-1.53.26-.94,1.22-.65,2.08a3.49,3.49,0,0,1,.3,2.68c-1,1.46-2.4,1.5-3.91.93-.1-4.24-3.85-.84-5.2-2.47Z"/><path class="cls-25" d="M13.15,56C14.23,59.23,12,62,12,65.13c0,1.14-.19,1.88,1.2,1.93a2.48,2.48,0,0,1,.7,2.13,4.16,4.16,0,0,1-1.68,2.6c-3.85,1.24-4-1.33-4.06-4a16,16,0,0,1,2.14-6.7Z"/><path class="cls-26" d="M10.31,61.13,9.08,67.9C7.55,69.69,11,73.79,6.22,74.09c-.37-4.64,1.25-8.82,3-13Z"/><path class="cls-27" d="M67.12,8.85c-2.23,3-6.11,2.48-8.93,4.22-.35-.23-.47-.46-.36-.7s.22-.37.33-.37C60.71,9.71,64.11,9.85,67.12,8.85Z"/><path class="cls-28" d="M58.16,12l0,1.07a3.06,3.06,0,0,0-1.95,2,2.2,2.2,0,0,1-2.08,1L49.06,16Z"/><path class="cls-29" d="M19.19,144a6.16,6.16,0,0,1-3-4.94c.78-.92-.18-2.32.86-3.18a1.66,1.66,0,0,1,1.33,0,4.38,4.38,0,0,1,.83,1.08c1.81,3.58,4.88.46,7.2,1.34a3,3,0,0,1,1.19.73c1.83,4.93,2.06,10.62,6.76,14.18a19.2,19.2,0,0,0,4.92,4.46c.34.24.69.49,1,.71,2.28,1.17,3.86-1.47,6-1.09a24.14,24.14,0,0,1,5.06,2.26,2.51,2.51,0,0,1,1.07,2.5,4.82,4.82,0,0,1-3.68,1.79c-1.37.37-2.72.74-.66,2.18a4.35,4.35,0,0,1,2,1.92c.61,2.92-.72,3.12-2.93,2.1-11.26-5.88-20-14.5-27.1-24.91.36-.45,1.42-.75,1.19-1.12C20.77,143.2,19.91,144,19.19,144Z"/><path class="cls-30" d="M7.33,121,5,109.22c-.54-3,1.08-3.27,3-2,2.56,1.75,4.93,3.86,6,7,.43,1.79,1.88,2.87,3,4.19a14.67,14.67,0,0,1,1.73,10c-.5,2.67-2.28,5.13-5.78,4.85C10.14,129.57,9.54,124.91,7.33,121Z"/><path class="cls-31" d="M47.18,170.05c1.39,0,3,.3,2.07-2.05a3.35,3.35,0,0,1,1.07-.79c1.07-.37,2.16-.65,3.26-.93a5.46,5.46,0,0,1,1.4,0c2.56,1.66,5.64,2.47,7.78,4.81.58,2.3,1.52,4.54,1.42,7C58.25,176,52.06,174.39,47.18,170.05Z"/><path class="cls-32" d="M84.3,182.92c-1.38-.47-2.72-1.11-4.25-.8a3.67,3.67,0,0,1-3.82-.16c-1.28-1.77-3.83-.09-5.11-1.86.62-1.94-.91-4.73,2.23-5.69a4.85,4.85,0,0,1,1.37.11c3.2,1.12,6.3,2.7,9.85,1,1.07-.5,2.21.27,3,1.21a7.11,7.11,0,0,1,1,1.9C91.42,184.31,85.93,181.7,84.3,182.92Z"/><path class="cls-33" d="M74.18,175c-2.07.2-2.22,1.61-1.8,3.13.35,1.29-.08,1.78-1.26,1.93A17.13,17.13,0,0,1,64.18,178c-2.59-1.77-1.92-4.49-2-7A11.6,11.6,0,0,1,74.18,175Z"/><path class="cls-34" d="M13,133.21c6.1-4.9,5.72-2.85,3.13-14.94l.49-.51a2,2,0,0,1,1.31.37c1.58,1.58,1.57,3.78,2.23,5.72a12.59,12.59,0,0,0,2.8,6c.9,1.66.35,2.68-1.39,3.19-2,.13-3.14,1.56-4.27,3-.1,1.12.16,2.36-1.09,3.07C15.09,137.13,13.11,135.67,13,133.21Z"/><path class="cls-35" d="M19.19,144c.18-2,1.47-2.43,3-1.79,1.08.44,1.93,1.76,1.52,2.74-.92,2.14-2.42.23-3.68.16Z"/><path class="cls-36" d="M76.23,182l3.82.16c-1.07,1.48-2.7.61-4,1l-2.84-.21C74,181.82,75.17,182.09,76.23,182Z"/><path class="cls-37" d="M131.29,174.16c-3.62.22-6.25,6.15-10.65,1.84-.61,1.64-1,3.59-3.48,3-4-2.35-8.16-2.06-12.56-1.3a10.51,10.51,0,0,1-6.27-1.2,2.59,2.59,0,0,1-1-2,3,3,0,0,1,.42-1.44,2.65,2.65,0,0,1,2-.84c1.58.1,2.86,1.24,4.46,1.25.7,0,1.42.29,2-.24,0-.72-.52-1.33-.37-2.08a2.18,2.18,0,0,1,.91-.87,13.26,13.26,0,0,1,3.35-.66c5.07-.52,9.24-4.24,14.49-4.09,2.16,2.23,5.23,2.1,7.91,3,1.32.77,2.91,1.35,2.55,3.39l-1.86,1.14C132.37,173.07,131.52,173.06,131.29,174.16Z"/><path class="cls-38" d="M98.17,176c4.25-.2,8.45,1.28,12.8-.79,2.84-1.35,4.21,2.3,6.19,3.78a2.17,2.17,0,0,1-2,1.08,2.49,2.49,0,0,1-2.35.37,5.35,5.35,0,0,0-6.68,1.48,6.49,6.49,0,0,0-4,1.15l-17.9-.18c.68-1.59,6.21.37,3-4.09,1.55-.76,0-4.09,3-3.63a6.32,6.32,0,0,1,1.24,3.19c.46,1.64,1.47,2.51,3.21,2.07s1.85-2,1.92-3.45C96.94,176.29,97.27,175.73,98.17,176Z"/><path class="cls-39" d="M146.21,165.08a1.89,1.89,0,0,1-2.05.94c-3.9-3.05-4-4.53-.82-8.59-1.08,1.11-2.37,1.92-4.1.86-.18-3.12,2.58-3.69,4.39-5.09,2.41-.44,5.42-3.75,6.58,1.69.22,1,2.31-.27,3.52-.62a3.18,3.18,0,0,1,3.41.77,27.69,27.69,0,0,1-8,7.8C146.55,161.49,146.73,163.74,146.21,165.08Z"/><path class="cls-40" d="M139.27,158.09c2.26.35,3.55-1.43,6.11-3.05-2,4.07-5.19,7.41-1.22,11L141,168.57c-1.4,1.14-1.42-.38-1.69-1-.5-1.16-.66-2.51-2.24-2.77a5.29,5.29,0,0,1-2.38-1.4,2.55,2.55,0,0,1,.2-3.83C136.26,158.83,137.33,157.18,139.27,158.09Z"/><path class="cls-41" d="M157.14,155l-3.9,0c-3.26.92-2.92-.84-2.18-2.9,4.19,0,7.23-1.55,9.31-5.46,1.84-3.47,3.35-3.84,5.81-2.67-1.41,4.58-5.34,7.33-8,11Z"/><path class="cls-42" d="M137.12,164.2c1.62-.91,3-1.48,3.11,1.33,0,1-.49,2.3.78,3.05-1.24,2.41-3.57,2.91-5.92,3.37L132.22,169l-.37-.52a1.43,1.43,0,0,1,.64-1c.85-.48,1.9-.56,2.65-1.25A12.82,12.82,0,0,1,137.12,164.2Z"/><path class="cls-43" d="M106.18,182c1.43-3.22,3.11-5.48,6.67-2,.44.42,1.56.14,2.36.19-1.62,1.92-4.43-.08-6,1.84Z"/><path class="cls-44" d="M146.21,165.08c-1.75-2,.18-3.16,1.11-4.45a1.31,1.31,0,0,1,2.09-.1c.31.53-.16,1.52-.28,2.31Z"/><path class="cls-45" d="M131.29,174.16c-.6-.5-1.3-1.1-.34-1.77s1.71-.16,2.28.7Z"/><path class="cls-46" d="M181.1,105.08l.07,4c-1.88,4.52-1.27,9.75-4,14-6.46.43-9.2,2-6,9.46a4,4,0,0,1-1,3.48,2.29,2.29,0,0,0-1,2,1.14,1.14,0,0,1-1.22.29,2.8,2.8,0,0,1-1.32-1.51,2.94,2.94,0,0,1,.19-2c.65-1,.86-2-.14-2.86s-2.36-.85-3.41-1.57a1.8,1.8,0,0,1-.49-1.21c1.7-3.43,2.27-7.39,4.84-10.41,2.58,1.91,3.41.27,3.95-2a17,17,0,0,1,3.44-5.11c2.77-1.41,2.4-5.26,5.15-6.69h0C180.49,104.58,180.81,104.61,181.1,105.08Z"/><path class="cls-47" d="M166.18,144c-2.47.3-4.24,1.3-5.18,3.9-1.43,3.94-4.87,4.91-8.66,5a4.54,4.54,0,0,1-.21-.92c-.26-3.25,2.81-4.44,4.16-6.7,1.34-1.52,2.76-3,4.16-4.45a5,5,0,0,1,1.64-1.23,3.66,3.66,0,0,1,1.36-.11c1.74.39,3.68.42,4.62,2.37A3,3,0,0,1,166.18,144Z"/><path class="cls-48" d="M170.17,132c-2.45-2.53-2.79-5.77-.53-8,1.7-1.67,4.61-4,7.53-1-.43,1.75-.67,3.59-2,5a4.28,4.28,0,0,0-2.27,2.82C172.48,132.18,171.73,133.16,170.17,132Z"/><path class="cls-49" d="M170.17,132c1.08-.11,2.07-.48,1.85-1.78-.52-3.08,1.3-2.64,3.16-2.21-1.18,3-1.46,6.5-5,7.95Z"/><path class="cls-49" d="M168.07,141.92l-4.95-1.75a3,3,0,0,1,2.1-1.26,16,16,0,0,1,3-.83l1,0Z"/><path class="cls-50" d="M6.22,74.09c3-1.14,1.15-4.48,2.86-6.19.43,1.62-.49,4.57,3.07,3.14A2.91,2.91,0,0,1,13,73.85c-1,2.9-1.91,5.77-1.72,8.93a5.24,5.24,0,0,1-1.79,4.33,1.42,1.42,0,0,1-1.82-.63c-.84-1.29-.3-3.12-1.64-4.23a3.65,3.65,0,0,1-1.27-1.56A3.2,3.2,0,0,1,5.11,78Z"/><path class="cls-26" d="M5.11,78c.06,1,.13,2.08.2,3.12,2.4,4.06,1,8.2.24,12.33a5,5,0,0,1-.85,2.34A1,1,0,0,1,3.26,96l0-7.9c1.19-1.89-.2-4.15.9-6C4.13,80.6,2.81,78.86,5.11,78Z"/><path class="cls-51" d="M1.34,100V87.1A20.66,20.66,0,0,1,1.34,100Z"/><path class="cls-11" d="M3.26,96c.29,0,.57.08.86.1,1.8,1.5,1.08,3.82,1.85,5.66a7.37,7.37,0,0,1,.24,1.54c-.19,1.26,0,2.78-1.92,2.83l-.3-.2C2.65,102.68,3.24,99.31,3.26,96Z"/><path class="cls-11" d="M4.13,82c-.16,2,.77,4.23-.9,6C3.42,86,2.49,83.85,4.13,82Z"/><path class="cls-52" d="M180.16,105c-1.92,2.15-.21,6.9-5,7l-.58-.61c-1.07-2.14-.61-4.45-.8-6.69,0-2-.19-4.08,1.39-5.7C177.23,100.72,174.62,106.28,180.16,105Z"/><path class="cls-53" d="M175.17,99.05c0,2,0,4,0,6-.45.54-.69,1.31-1.56,1.37a3.46,3.46,0,0,1-3.09-1.8c-.75-2.9.13-5.54,1.24-8.15a1.21,1.21,0,0,1,1.39-.37Z"/><path class="cls-54" d="M173.13,96.11a3.93,3.93,0,0,0-1-.06c-.12-.23-.25-.45-.38-.68s-.05-.38,0-.47c1.4-1.52,6.19-3.4,8.2-3.24A.92.92,0,0,1,180.2,93c.16,1.56-1.38,2-2,3C176.51,97.53,174.8,96.08,173.13,96.11Z"/><path class="cls-52" d="M181.1,105.08l-.94,0v-4.86l.94,0Z"/><path class="cls-55" d="M109.11,5.17c1.12,1.25,2.65.82,4,1,8.19,2.85,16.35,5.78,24,9.91l-.46.5c-1.2.7-2.59.62-3.88.93-3,.69-1.91,4.07-3.69,5.55-.8.26-1.24-.19-1.62-.79-.6-1.89-1.08-3.87-3.46-4.34-4.12.73-7.79-1.37-11.71-1.94-2-.29-5-.92-5.14-4.16,2.71-1.94,5.81.37,9.45-1.05-4-1.93-7.85-2.29-11.38-3.48a4.8,4.8,0,0,1-2-.85,1,1,0,0,1-.3-.86c0-.31.1-.46.17-.46L106.25,5Z"/><path class="cls-56" d="M90.26,7.16c.16-1,.6-2-1.11-2-2,0-4,0-6-.09,4.26-1.87,8.71-.66,13.07-.82a3.4,3.4,0,0,1,2.24,3.09,1.84,1.84,0,0,1-.72,1.07C95.17,8.67,92.76,7.67,90.26,7.16Z"/><path class="cls-57" d="M98.15,7.08,96.27,4.26c2.4-.58,4.63.18,6.87.85a8.48,8.48,0,0,0,.22.83C101.92,7.67,100,7.4,98.15,7.08Z"/><path class="cls-56" d="M83.19,5.09c-1.76,1.7-3.94.89-6,1a3.72,3.72,0,0,1,.11-.94,2.62,2.62,0,0,0,.84-.1Z"/><path class="cls-58" d="M5.08,102.2c-1.65-1.83-.62-4.08-1-6.12,0-.69.08-1.37.13-2.06.54-.83,1.12-1.55,2.23-.78a44.12,44.12,0,0,1,2.71,4.15A15,15,0,0,1,11,102.54c.39,3.38,1.1,6.52,3.68,9a2.76,2.76,0,0,1,.6,3.64,1.7,1.7,0,0,1-2.13-.15c-.87-3.08-3.65-4.64-5.57-6.87-1.48-1.71-2.21-.48-2.62,1-1.15-.83-.77-2-.71-3.11,1-.82.59-2,.89-3.07.93-.67.46-1.86,1-2.68C5.43,100.76,6,101.9,5.08,102.2Z"/><path class="cls-59" d="M180.2,93q-.1-.4-.18-.81a3,3,0,0,1-.52-1.07c-.32-1-1.1-1.84-1-3,.69-4.85-.58-9.31-2.67-14.74-.18,4,1.44,6.87-.43,9.62-4.17-1.56-2.58-5.51-3.45-8.42-.51-1.73.16-4.32-3.14-3.29-1.4-.39-1.61-1.56-1.81-2.73.32-2.23-.74-5.58,3.6-4.66,2.37.51.42-.86.42-1.11a6.32,6.32,0,0,1,1.24-3.19c.76-1.19,1.82-.92,2.9-.59q1.95,4.55,3.92,9.08.56,4,1.1,7.91c.65,3.82,1.44,7.62,1.88,11.46C182.31,89.49,182.77,91.85,180.2,93Z"/><path class="cls-60" d="M139.16,18.1c6.74,2.92,11.9,7.92,17,13-2.3,1.13-4.87-.75-7.15.66-4.73-.05-6.79-4.56-10.53-6.26A5.44,5.44,0,0,1,136,24.19a4.35,4.35,0,0,1,.76-4C138.07,20.09,139.15,19.71,139.16,18.1Z"/><path class="cls-61" d="M165,41.24c2.09,1.43,3,3.75,4.2,5.8l-.51.45a3.88,3.88,0,0,1-1.31.23,37.35,37.35,0,0,0-5.29,0,4,4,0,0,1-1.27-.38c-1.44-1.21-3.31-1-5-1.52a8.11,8.11,0,0,1-4.3-5.46,4.27,4.27,0,0,1,1.25-3.32,2.81,2.81,0,0,1,2.74.07,17.45,17.45,0,0,1,3.33,2.39C160.66,41,162.86,41.06,165,41.24Z"/><path class="cls-62" d="M155.19,38l-2-.94c-1.5.51-2.17-.61-3-1.49-.76-1.41-2.35-2.64-1.05-4.52,2.34-2.82,4.7-.46,7.05,0a10.37,10.37,0,0,1,3.87,4C158.77,36.63,156.69,36.85,155.19,38Z"/><path class="cls-63" d="M175.18,59.05c-.66,1.11-1.35.11-2,0-3.37-1.45-4.94-4.19-5.45-7.67,1.54-1.06.2-3,1.21-4.19l.29-.17C172,50.65,173.35,55,175.18,59.05Z"/><path class="cls-64" d="M155.19,38c.53-2.78,2.72-2.83,4.87-2.94l1.23,1.79c1.23,3.3-.15,4-3.14,3.22Z"/><path class="cls-65" d="M158.15,40.1c1.45-.67,3.7-.57,3.14-3.22L165,41.24C162.46,42.45,160,42.91,158.15,40.1Z"/><path class="cls-66" d="M139.16,18.1c.14.29.26.59.41.87.62,1.19,1.21,2.89-.06,3.44-1.81.78-1-2-2.21-2.4A1.67,1.67,0,0,1,136,19a2,2,0,0,1,0-1.15,2.84,2.84,0,0,1,1.17-1.28,2,2,0,0,0,.08-.54Z"/><path class="cls-67" d="M69.48,13.21c3.31-.06,6.52-.15,9.72-1.54,3-1.31,6.35-1.58,9.26.69C89.37,10.82,88.33,9,89.81,8a1.58,1.58,0,0,1,1.13,1,6.38,6.38,0,0,1,.12,3.89c-1,2.54-3.2,2.4-5.31,2.51-1.79.1-3.6-.12-5.35.39-.66.32-1.33.66-2,.94a12.48,12.48,0,0,1-2.08.63c-2.06.47-4.13.94-6.16,1.53a11.52,11.52,0,0,1-2.79.39c-4.06-1.15-8.13,1.88-12.2,0-.49-2.25,1.38-2.12,2.62-2.61a2.59,2.59,0,0,1,1.4.27l3-1.84C64.52,14.1,67.34,15,69.48,13.21Z"/><path class="cls-68" d="M90.26,7.16c2.86-1.64,5.27.17,7.81,1l.52.4a3.86,3.86,0,0,1,.47,1.22,6.23,6.23,0,0,1,0,2,3.5,3.5,0,0,1-2,2.67c-1.77.27-3.77.14-3.39-2.14.49-2.93-2-3-3.23-4.21A2.42,2.42,0,0,0,89.81,8C90,7.72,90.12,7.44,90.26,7.16Z"/><path class="cls-27" d="M69.48,13.21c-2,2.52-4.73,1.79-7.3,1.88C64.35,13.45,67,13.83,69.48,13.21Z"/><path class="cls-27" d="M59.17,16.93a2.53,2.53,0,0,1-1,.16c-1.69,1-2.85-.11-4.07-1v0a2.24,2.24,0,0,1,2.07-1A3,3,0,0,1,59.17,16.93Z"/><path class="cls-69" d="M17.92,49.92l1.29-1.79C21.94,47.54,22.7,51,25.12,51a1,1,0,0,1,1.17-.24,4.42,4.42,0,0,1,.95.88,7.76,7.76,0,0,0,4,2.85C32.22,55,33,55.78,34,56.36c3.4,1.7,6.66,3.67,9.9,5.65a95.93,95.93,0,0,0,9.06,5.1c1.27.78,2.74,1.38,2.69,3.24C55,71.87,53.81,72,52.47,71.74c-9.93-6-19.77-12.1-30.29-17A12.64,12.64,0,0,1,17.92,49.92Z"/><path class="cls-70" d="M29.09,39.84c.07-2.9,3.67-3.21,4.21-5.76.63-1.21,1.54-2.42,2.9-2.34C40,32,41.79,29.11,44.07,27h0c1.65-2.06,3.41-1.37,5.18-.2a1.88,1.88,0,0,1,.17,1.41C44,33.07,37.88,37.08,33.13,42.69a2.37,2.37,0,0,1-2.29.69C29.21,42.72,28.22,41.74,29.09,39.84Z"/><path class="cls-71" d="M29.09,39.84C29,41.42,30.42,42,31.18,43c-.06,3.7-1.62,6.45-5,8h-1C23.78,46.34,27,43.31,29.09,39.84Z"/><path class="cls-72" d="M44.07,27c-2.18,2.42-2.84,6.83-7.78,5.65-.84-.2-2,.93-3,1.45,0-.66,0-1.31-.08-2C36.69,30.08,41,29.86,44.07,27Z"/><path class="cls-73" d="M16.11,62c-.17-2.74,2.48-4.81,1.8-7.67,1.84-1.28,2.89-.07,3.91,1.23A5.49,5.49,0,0,1,22.28,57c0,4.26-1.8,7.82-4.24,11.15a1.3,1.3,0,0,1-1.42-.34C15,66,15.34,64,16.11,62Z"/><path class="cls-74" d="M16.11,62,17,68a2.19,2.19,0,0,1-.9,2.31,2.71,2.71,0,0,1-2.85-1.21c0-.68,0-1.36-.08-2C13.36,64.9,15,63.59,16.11,62Z"/><path class="cls-75" d="M21.31,56.06a5.22,5.22,0,0,0-3.39-1.76,2.92,2.92,0,0,1,0-4.38c2.45.32,3,2.57,4.28,4.13C22.9,55.16,22.82,55.93,21.31,56.06Z"/><path class="cls-76" d="M40.41,23.17c2.26.31,3.45-1.72,5.24-2.47,1.11,1.61.21,2.9-.47,4.21-.15.45-.42.53-.81.27-1.36,0-2.16,2.16-3.88,1C39,25.13,40.44,24.16,40.41,23.17Z"/><path class="cls-72" d="M44.37,25.18a1.94,1.94,0,0,0,.81-.27c1.38-.13,3,.79,4-.86,1.62-.36,2.15.53,2.26,1.93-.5.91-1.12,1.56-2.28,1.09-1.7-.27-3.39-1.28-5.13-.1Z"/><path class="cls-77" d="M51,26c-.57-.65-1.15-1.29-1.73-1.93-.41-.63-.82-1.26-1.24-1.89-.59-1.45,0-2.44,1.22-3.21l3-.2a1.63,1.63,0,0,1,1.28.12c2.62,2-2.07,3.32-.51,5.25a3.63,3.63,0,0,1-.25,1.35C52.24,26.11,51.72,26.48,51,26Z"/><path class="cls-28" d="M53.18,19.09l-1-.34c.75-.83,2.22-1.13,2-2.68l4.07,1-3,2A1.41,1.41,0,0,1,53.18,19.09Z"/><path class="cls-72" d="M49.2,19,48,22.16C47.15,20.62,46.24,19.05,49.2,19Z"/><path class="cls-78" d="M13.29,69.1l2.88.92c.32,3-.32,5-4,4l0-3Z"/><path class="cls-79" d="M52.09,162l-1-1.85a4.14,4.14,0,0,1,.55-1.72c.65-1.27,1-2.69,2-3.75a5.27,5.27,0,0,1,2.19-1.22c2.08-1.28,3.14-3,2.61-5.54a6.4,6.4,0,0,1,1-3.86,23.41,23.41,0,0,1,3.21-4.14,3.72,3.72,0,0,1,1.21-.47c1.3.1,3-1.72,3.83.75a6.7,6.7,0,0,1-1.07,3.69,1.83,1.83,0,0,1-1.09.56c-2.14.31-1.5,2.1-1.78,3.39a6.43,6.43,0,0,1-.16,1.31,9.71,9.71,0,0,1-1,2.41,35.4,35.4,0,0,0-3.71,6.88c-1.38,2.65.66,3.26,2.38,4.21s4.76.41,5.06,3.54a5.91,5.91,0,0,1-3.17,1.51c-3.59.07-6.2-2-8.82-4A2.58,2.58,0,0,0,52.09,162Z"/><path class="cls-80" d="M52.21,159.05l-1.12,1.09c-2,.19-3.37-1.21-4.94-2.08-1.41-1.11-3.34-1.24-4.69-2.47a46.14,46.14,0,0,1-14.28-16.52,9.24,9.24,0,0,0-.89-.29A3.79,3.79,0,0,1,25,136a6.32,6.32,0,0,1,.75-3.79,1.94,1.94,0,0,1,2-.56c4,8.81,10.87,15.24,18.16,21.3C48.18,154.78,51.28,155.83,52.21,159.05Z"/><path class="cls-81" d="M27.18,139.07c5.1,5.23,9,11.59,15,16,0,1.42,2.17,2.64.75,4-.92.9-2.48.67-3.72-.06h0c-.6-2.73-3.26-3.41-5-5C27.88,150.91,27.54,145,27.18,139.07Z"/><path class="cls-82" d="M52.09,162c1.08.1,1.5-1.92,2.71-.94.24.2-.32,1.4-.52,2.14a2.67,2.67,0,0,1-.19,3.83l-.9,0a1.73,1.73,0,0,1-.49-2.1c-.76.43-.45,1.42-1.06,2s-1,.73-1.48,1.15a5.56,5.56,0,0,1-.91-.05l-2-1a2.86,2.86,0,0,1,1.22-3.88Z"/><path class="cls-83" d="M26.19,136.05c0,.91.06,1.82.1,2.73-2.87.36-6.55,4.23-7.91-1.84,1.22-.67,2.8-.55,3.78-1.76C23.8,134.09,25.16,134.3,26.19,136.05Z"/><path class="cls-84" d="M39.19,159c4.71,1.44,1.6-2.94,3-4,1.51.75,3.21,1.27,4,3C43.85,158.51,42,161.86,39.19,159Z"/><path class="cls-85" d="M17.26,136c-.38-3,1-4.19,3.89-3.86a4.77,4.77,0,0,1,.13,3.83,2.28,2.28,0,0,1-3.06.06Z"/><path class="cls-86" d="M48.42,163.16c-.41,1.29-.81,2.58-1.22,3.88-2.34-.13-2.11-1.56-1.41-3C46.3,162.94,46.83,161.24,48.42,163.16Z"/><path class="cls-84" d="M34.19,154c3.18.15,4.85,1.81,5,5C37.73,157.17,34.52,157,34.19,154Z"/><path class="cls-87" d="M18.22,136.05c1.08-.06,2.25.12,3-1l.68-.11A.84.84,0,0,1,22.2,136c-.81,2.32-2.41,1.2-3.83.9A2.73,2.73,0,0,1,18.22,136.05Z"/><path class="cls-88" d="M13.19,115.05h2c1.34.49,1.91,1.34,1.22,2.74l-.27.47C14.44,117.81,13.23,117,13.19,115.05Z"/><path class="cls-89" d="M54.09,167c.07-1.28.13-2.56.19-3.84,3.32.49,5.46,3.71,8.92,3.84,1.17-.43,2.23.14,3.33.32a56,56,0,0,1,5.74,2.19c1.06.92,2.42,1.47,3.35,2.57a2.92,2.92,0,0,1-.11,2.9.84.84,0,0,1-1.33,0h0l-12-4A26.93,26.93,0,0,1,54.09,167Z"/><path class="cls-90" d="M50.16,168.05c.75-1.4,1.49-2.81,2.3-4.34,1.15,1.14.49,2.32.73,3.33C52.47,168.24,51.32,168.16,50.16,168.05Z"/><path class="cls-33" d="M74.18,175l1,0a3.4,3.4,0,0,1,3.58-.8c2.35.75,4-.3,5.55-1.78a3.75,3.75,0,0,1,3.77.29c.88,1.74.21,3.1-1,4.33-.75-.24-1.79-.92-2.21-.65C80.84,179,77.53,177.05,74.18,175Z"/><path class="cls-91" d="M87.05,177.06a6.42,6.42,0,0,1,1.17-4,2.2,2.2,0,0,1,1.25-.69c1.51.15,2.42.66,1.38,2.32l-.62.4c-1.8.6-.08,3.95-2.93,3.72C87.22,178.24,87.14,177.65,87.05,177.06Z"/><path class="cls-92" d="M19.28,124c-.69-2-1.39-3.93-2.08-5.89-2-5.46-5.19-10.58-4.42-16.76.23-2.48-.29-5.13,1.62-7.23a3.53,3.53,0,0,1,1.45-.84,4.68,4.68,0,0,1,3.27.32,2.57,2.57,0,0,1,1.34,1.87c-2,2.24-2.35,4.76-1.82,7.73,1.45,8.12,2.6,16.29,6.36,23.79a4.28,4.28,0,0,1,.46,2.88c-1.18,1.36-2.18.57-3.17-.27C20.53,128.09,20.07,125.93,19.28,124Z"/><path class="cls-93" d="M14.16,101.11c-.71,6,2.28,11.25,3,17a2.08,2.08,0,0,1-.84-.27c-.41-.91-.81-1.83-1.22-2.74C10.61,110,10,103.3,8.06,97.2,12.24,95.16,13,98.45,14.16,101.11Z"/><path class="cls-94" d="M22.19,129.05l3,1c.64-1.59,2.11-2.2,3.44-3a52.79,52.79,0,0,1,5.14-3c1.46-.59,2.79-1.68,4.53-1.13a2.3,2.3,0,0,1,.48,1.26c-1.17,4.48-5.94,4.56-8.68,7.13a3.37,3.37,0,0,1-1.89.72l-2,.07c-1,2.06-3.18,2.26-5,3l0,0c-1.53-.94-.3-1.9,0-2.86,1.65-.07,1.79-.86,1-2.1-.28-.24-.37-.46-.27-.68S22.09,129.05,22.19,129.05Z"/><path class="cls-95" d="M22.19,129.05l0,1A6.16,6.16,0,0,1,19.28,124Z"/><path class="cls-96" d="M125.31,166.17,110.13,171c-2.06-1.31-4.27.3-6.37-.35a1.25,1.25,0,0,1-.78-1.18,3,3,0,0,1,2.48-1.58c5.67-.34,11-2.19,16.38-3.77,1.36-.11,2.69-.11,3.52,1.26C125.35,165.64,125.33,165.91,125.31,166.17Z"/><path class="cls-96" d="M106.31,171.14c-.1.27-.2.54-.31.81-1.68,2.08-4,.48-5.93,1l-1.89.05a6.81,6.81,0,0,1-5,0c-1.37-1.93-1.66-3.74.59-5.26,2.62,2.88,6.6-.39,9.33,2.05l.31.3C104.18,171,105.59,170,106.31,171.14Z"/><path class="cls-97" d="M132,168.27a1.49,1.49,0,0,0,.24.77c-2.06-1.54-6.39,2.38-6.91-2.87l-.11-.14c1.18-1.48,2.36-3,4.4-3.29C132,163.89,132.41,165.9,132,168.27Z"/><path class="cls-98" d="M118.18,174.08c-.08.93-.43,1.64-1.48,1.11s-2.78-.49-2.71-2.13a2.08,2.08,0,0,1,2.09-1.69C117.7,171.42,118.09,172.7,118.18,174.08Z"/><path class="cls-99" d="M100.07,173c1.78-1.48,4-.66,5.93-1,.87.11,1.74.22,2.13,1.2-1.16,1.06-2.6.84-4,.88C102.34,175.36,101.39,173.45,100.07,173Z"/><path class="cls-100" d="M104.14,174c1.07-1.44,2.57-1,4-.88C107.39,176.11,105.8,175.22,104.14,174Z"/><path class="cls-101" d="M98.17,176l-.94,1c-1.27.42-2-.32-2.55-1.27-.52-4,1.31-3.18,3.46-1.68Z"/><path class="cls-99" d="M98.14,174.12c-1.38-.25-3.31-1.53-2.9,1.56l-.41.54a1.6,1.6,0,0,1-1.34-1.36,2.13,2.13,0,0,1,.63-1.88c1.37-1.66,2.71-.44,4.06,0Z"/><path class="cls-102" d="M106.31,171.14c-1-.26-2.26.21-3-1,2.26.24,4.7-1,6.77.83Z"/><path class="cls-103" d="M95.24,175.68l2,1.39c1.88,2.19.48,4-1.29,4.68-2.52,1-4.86.32-5.72-2.76a4.24,4.24,0,0,1,1.67-1,6.25,6.25,0,0,0,3.23-1.74Z"/><path class="cls-96" d="M92.15,179l-1.93,0c0-1.3,0-2.59,0-3.88l0-.08a3,3,0,0,1,2.12-.66,1.88,1.88,0,0,1,1.22.83A2.72,2.72,0,0,1,92.15,179Z"/><path class="cls-104" d="M139.27,158.09c-1.31.71-2.33,2-4,2-1,.68-1.85.52-2.37-.66a2.94,2.94,0,0,1,1.45-2.45c9.28-5.69,15.95-14,22.69-22.3a2.38,2.38,0,0,1,2.13.05,2.45,2.45,0,0,1,.62,2c-.74,2.58-2.51,4.55-4,6.72a30.39,30.39,0,0,1-11.67,10.55Z"/><path class="cls-105" d="M144.18,154.05a96.84,96.84,0,0,0,11-11c3.32-.76,2.62,1.15,2,3l-5,6c-1.65,1.75-.95,2.64,1.11,3-.52,3.36-3.16,1.31-4.25,1.14-1.86-.3.27-2.11-.38-3.5Z"/><path class="cls-106" d="M133.22,159.11l2.06,1c-1,.95-.69,1.87.08,2.78-.23,1.25-1.92,1.35-2.07,2.66a4,4,0,0,1-.92,2.2l-.39.52c-1.34-1.45-.91-3.85-2.68-5.07a4.44,4.44,0,0,1-1.88-.58,1.69,1.69,0,0,1-.58-1.12c.53-2-.48-3.65-1.37-5.32a7.77,7.77,0,0,1-.86-3.23c.9-3.25-3.25-5.67-1.49-9.07,2.53-.3,3.28,1.59,4.15,3.35.33.88.62,1.77.86,2.67C128.87,153.5,131.93,155.82,133.22,159.11Z"/><path class="cls-107" d="M132.28,165.22c-.36-2.61,2.37-1.14,3.08-2.33l1.76,1.31-1,2.88C134,168.18,133.23,166.55,132.28,165.22Z"/><path class="cls-108" d="M132.28,165.22c1.39.41,2.23,1.95,3.86,1.86-1,1.59-2.4,1-3.77.67Z"/><path class="cls-109" d="M159.17,135.05l-1.76,0c-.74-.43-1-1.35-1.77-1.74-.56-.26-1.14-.5-1.71-.75a16.51,16.51,0,0,1-2.29-1.18c-1.88-1.26-3.7-2.6-5.7-3.67-1.72-1-3.53-1.8-5.17-2.93-2.16-1.42-4.46-2.61-6.65-4-.76-.41-1.52-.82-2.25-1.27a31.19,31.19,0,0,0-5-2.94c-.94-.63-2-1.2-1.91-2.59a5.79,5.79,0,0,1,2.5-2.4c4.4-.44,6.81,3.74,10.66,4.6,1.14.71,2.23,1.53,3.39,2.22a35.44,35.44,0,0,0,6.87,3.87,56.2,56.2,0,0,1,5.19,2.93c2,1.27,3.79,2.77,6.21,3.11a6.29,6.29,0,0,1,1.22.17,3.26,3.26,0,0,1,1.87,1.47l.49,0c.25,2.5,2.72.13,3.46,1.58a2.1,2.1,0,0,1,.55,3.21L167.1,137a1.31,1.31,0,0,1-1,.35,4.06,4.06,0,0,0-2.16-.16,5,5,0,0,1-1.07.29,2.56,2.56,0,0,1-1.09-.25,7.94,7.94,0,0,1-1.78-1.38Z"/><path class="cls-110" d="M171.27,105.09l2.91.93a2,2,0,0,1,.39,1.78,4.3,4.3,0,0,0-.3,3.54,5.23,5.23,0,0,1,.23,1.23c-.49,1.34-1.72,2.23-2.14,3.59a4.41,4.41,0,0,0-.77.47s.12.12.36.12l.27.31a10.11,10.11,0,0,1-.35,2.37c-.4,1-.65,2.4-2,2.44-2,0-.7-2.16-1.71-2.87-1.49-1.78-.44-3.51.07-5.26C169.45,110.94,168.37,107.31,171.27,105.09Z"/><path class="cls-111" d="M169.21,114.15c-.35,1.62-.71,3.23-1.07,4.85-1.67,3.71-2.33,7.92-5.3,11l-1.67-.91c1.59-7.09,3.34-14.11,7.49-20.25C170.41,110.46,169.64,112.32,169.21,114.15Z"/><path class="cls-112" d="M166.2,137.06a5.45,5.45,0,0,0,.9-.06l1.09,1.08-2,1.95c-1-.91-3.29-.35-3-2.69a5,5,0,0,1,.06-.54A2.47,2.47,0,0,1,166.2,137.06Z"/><path class="cls-113" d="M166.23,132c-1.37-.46-3,1.23-4.13-.61-.09-.14.79-.85,1.23-1.3,1.39-.05,2.85-.42,3.92.92C167.19,131.59,166.62,131.68,166.23,132Z"/><path class="cls-114" d="M166.23,132l1-1c1.8,1.25,3.48,2.5.09,3.87A4,4,0,0,0,166.23,132Z"/><path class="cls-115" d="M172.12,116.12c-.1-1.75,1.45-2.67,2-4.07a.6.6,0,0,1,1,0h0c-.19,2.14-1.73,3.48-2.94,5l-.12,0c-.3-.21-.4-.41-.29-.61S172,116.12,172.12,116.12Z"/><path class="cls-116" d="M157.14,146c.07-1.49,0-2.9-2-3L159.1,137c1.41,1,1.45,2.71,2.09,4.11C160.6,143.34,158.31,144.22,157.14,146Z"/><path class="cls-49" d="M161.19,141.07c-2.72-.34-1.79-2.54-2.09-4.11,0-.64.05-1.28.07-1.91l1.21.14a17.34,17.34,0,0,1,.87,2.2c.34.86,1.52,1.43.93,2.62Z"/><path class="cls-117" d="M162.18,140l-1.87-2a2.75,2.75,0,0,1,2-1.05,2.43,2.43,0,0,1,.89.42l3,2.69-3,.14A2.77,2.77,0,0,0,162.18,140Z"/><path class="cls-118" d="M12.18,74.05c2.66,0,3.06-2.29,4-4L17,68l.32.13a2.54,2.54,0,0,1,.72,1.31c.3,1.85-.49,3.47-1,5.14A80.41,80.41,0,0,0,15.1,84.8c-.6,1.63-.49,3.47-1.46,5-2.71,1-3.47-1-4.35-2.79C11.13,82.88,8.5,77.76,12.18,74.05Z"/><path class="cls-119" d="M9.29,87a9.48,9.48,0,0,1,3.8,3.13c-1,3.54-4.88.38-6.44,2.7L6,93,4.25,94q.52-6.47,1.06-12.92l1.87,0c1.18,1.5-.18,3.5,1,5Z"/><path class="cls-120" d="M8.16,86.06c-1.62-1.41-.73-3.32-1-5C8.86,82.46,8,84.37,8.16,86.06Z"/><path class="cls-121" d="M5.08,102.2c.09-1.07.18-2.14.34-4,1,2.23,2.3,3.69-.24,4.84A2.62,2.62,0,0,1,5.08,102.2Z"/><path class="cls-46" d="M175.16,112.05h-1a3.84,3.84,0,0,1,0-4c0-.68,0-1.35,0-2l1-1Q175.17,108.56,175.16,112.05Z"/><path class="cls-122" d="M169.21,114.15c-.29-1.7.55-3.59-.86-5.1a16,16,0,0,1,.87-12c.81-.86,1.7-1.5,3-1.06l0,0q-.45,4.52-.89,9C170.58,108.11,169.9,111.13,169.21,114.15Z"/><path class="cls-123" d="M172.19,96l-2.05,1c-3.29-1-6.94.1-10.09-1.73-1.15-3.32,1.17-4,3.52-4.38s4.56.26,6.82-.12c1.81,0,3.35-1,5.06-1.41a5.64,5.64,0,0,1,4.7,1.92,5.54,5.54,0,0,1-.13.91C176.65,91.92,174.41,93.94,172.19,96Z"/><path class="cls-124" d="M98.29,10.91c0-.62-.05-1.23-.08-1.85,1.92-.91,3.93.08,5.85-.3,2-.2.37-1.93,1.09-2.66,3.64.21,6.81,2.41,10.55,2.41a2.41,2.41,0,0,1,2.41,2.67c-.13,2-1.78.85-2.67,1.26-2.8,1.29-5.47-1.12-8.27-.37C103.88,14.23,101,13.11,98.29,10.91Z"/><path class="cls-125" d="M98.29,10.91c3,.08,5.81,1.6,8.88,1.16,2.79.91,4.78,4.73,8.48,2.32,2,3.44,5.81,1.4,8.54,2.66a4.39,4.39,0,0,1-3.31,2.8c-3.81-.15-7.23-2.07-11-2.4a22.8,22.8,0,0,1-3.86-.51c-2.88-1.17-6.66.37-8.82-2.93C97.56,13,97.93,12,98.29,10.91Z"/><path class="cls-126" d="M110.12,16.14l11,2.95c2.6.38,5.48.11,7,3l1,1c.12.22.25.44.37.67.09,1.26-.62,1.85-1.76,2.09-6.39-2.68-13-4.87-19.47-7.29C107.12,16.35,109.5,16.9,110.12,16.14Z"/><path class="cls-127" d="M128.18,22.06l-7-3c1.06-.62,1.48-2.19,3-2C127.93,16.8,128.37,19.17,128.18,22.06Z"/><path class="cls-128" d="M105.15,6.1c.39,1.3,3.2,2.59,0,3.93-2.25-1-4.93-.48-7.06-1.93l-.06.06c0-.36.05-.72.08-1.08,1.44-1.72,3.48-.72,5.21-1.14Z"/><path class="cls-66" d="M129.21,23c-.2-2.84-.39-5.67,3-6.9,1,1.32,3.55-.85,4,1.74l-.33.47c-.88.91-2.25,1.16-3,2.22-1.12,1-1,3.89-3.76,2.53Z"/><path class="cls-129" d="M136.28,17.87c-1-1.3-3.12-.16-4-1.74a9,9,0,0,1,4.83.47C136.81,17,136.54,17.44,136.28,17.87Z"/><path class="cls-130" d="M14.16,101.11c-1.57-2-3.15-4-6.1-3.91C6.29,96.32,6.12,94.67,6,93l.27.08c3.27-2.32,6,.24,8.93,1C13.75,96.24,14.31,98.73,14.16,101.11Z"/><path class="cls-131" d="M168.24,51c1.08,3,3.06,5.54,4.92,8.1.34,1.68-2,3.68.76,5.15.55.3-.08,1.56-.76,2.11a1.2,1.2,0,0,1-1.76-.12c-4.05-4.53-2.87,0-3.24,1.86-3.43-2.56-3.53-6.82-5.27-10.24.25-1.32,1.62-2,1.85-3.34A24.45,24.45,0,0,0,166.29,51a3.2,3.2,0,0,1,.79-1.07C167.89,49.8,168.39,50,168.24,51Z"/><path class="cls-132" d="M169.15,71.08c.23-1-.37-2.8,1.37-2.52s2.61,1.86,2.62,3.67a25,25,0,0,0,2,10.84c1.5,1.49,3.52,2.7,3,5.34A18.84,18.84,0,0,1,173,89.65a2.44,2.44,0,0,1-1.36-.78c-2.75-3.75-.86-8.43-2.52-12.39C168.29,74.66,167.59,72.85,169.15,71.08Z"/><path class="cls-133" d="M178.06,88.24c-1-1.69-3-2.87-2.91-5.17s.17-4.59-.72-6.84a2.55,2.55,0,0,1,1.32-3.35c1.11-.35,2.05,1.07,2.26,2.2.88,4.57,3.58,9,1.17,13.86C178.33,89.47,178.14,88.94,178.06,88.24Z"/><path class="cls-134" d="M169.15,71.08a8.37,8.37,0,0,0,1,5c.59.75.57,1.6-.21,2s-1.52-.11-2.15-.64c-2.15-2.63-2-6.16-3.49-9.05-.91-3.75-3.78-6.86-3.63-11a1.58,1.58,0,0,1,1.88-.8l.63.4a41.15,41.15,0,0,1,4.94,11.06C168.23,69.16,168,70.34,169.15,71.08Z"/><path class="cls-135" d="M178.06,88.24l1.12.7c.11.87,2,1,1,2.36l-4.93-1.17c-1.1.5-2.05.72-2-1A5.18,5.18,0,0,1,178.06,88.24Z"/><path class="cls-136" d="M151.16,35.07l2,2-1,3c-1.54.51-2.55-.48-3.41-1.42-3.56-3.9-8-6.76-12-10.21-.19-1.47-3.33-2.51-.67-4.41l3,0C142.36,28.63,146.91,31.67,151.16,35.07Z"/><path class="cls-137" d="M136.1,24.07c-1.06,1.76,1.63,2.38,1.21,3.95-2.72,1-4.36-.28-5.52-2.59.19-2.1-.49-4.26.42-6.31a4.14,4.14,0,0,1,3.74-.79L137.3,20A6.41,6.41,0,0,1,136.1,24.07Z"/><path class="cls-61" d="M151.16,35.07c-5.46-2.07-9.66-5.51-12-11,3.47,2.14,5.7,6,10,7C149,32.82,150.68,33.64,151.16,35.07Z"/><path class="cls-138" d="M132.18,25.08c1.28,1.74,3.26,2.23,5.12,2.94,5.81,3,10,8,14.84,12.09,1.33,1.66,2.07,3.79,4,5a1.08,1.08,0,0,1,.45,1.1,3.56,3.56,0,0,1-1.42,2.11,2.5,2.5,0,0,1-2.31-.88A25,25,0,0,0,150.09,44a10.76,10.76,0,0,1-.85-.94A12.23,12.23,0,0,0,147,40.81a11.78,11.78,0,0,1-1-.85,40.72,40.72,0,0,0-9.49-8.27c-1.35-.81-2.65-2.14-4.31-.53a7,7,0,0,1-1.11.84,2.78,2.78,0,0,1-1.36.35A2.17,2.17,0,0,1,128.41,30C128.93,27.8,129.71,25.79,132.18,25.08Z"/><path class="cls-139" d="M156.08,46.13l0-1c1.77.38,4.29-1.29,5,1.86.13,1.09,0,2.4,1.84,1.85a3,3,0,0,1,1.57,2.79,2.41,2.41,0,0,1-.64,1.22c-1.69,1.24-3.08,3-5.48,3a2.17,2.17,0,0,1-2-1.81,3.57,3.57,0,0,1,.29-2.06c.87-1.37,1.59-2.74-.09-4.06A1.59,1.59,0,0,1,156.08,46.13Z"/><path class="cls-140" d="M163.19,49.12c-1.17.34-1,2.18-2.68,2.23a3.77,3.77,0,0,1,.63-4.39l1.05.12c.64.57,1.76.14,2.22,1.07C164.34,48.89,164,49.34,163.19,49.12Z"/><path class="cls-141" d="M164.24,48.09c-.8-.1-1.62-.16-2.05-1,2-.71,3.93-1.28,5.87.07.41,1.57-.83,1.53-1.76,1.79A2.67,2.67,0,0,1,164.24,48.09Z"/><path class="cls-142" d="M166,48.24c.78-.2,1.66-.21,2.09-1.09a2.48,2.48,0,0,1,.86.06c-.42,1.22,2.11,3-.68,3.76l-1-1A1.49,1.49,0,0,1,166,48.24Z"/><path class="cls-143" d="M79.21,15.11c2.07-2,4.63-.77,7-1.09,1.66-.22,3.77.56,4.15-2.12.71-.85-.11-2.55,1.34-2.85.85-.17,1.26.84,1.52,1.63,1.21,14.52-.09,29.07.47,43.59.21,5.2-.41,10.45.68,15.58a6.32,6.32,0,0,0,1.94.11c5.8,1.92,8.28-1.7,10.25-6.16,2-2,2.09-5.32,4.59-7a1.65,1.65,0,0,1,1.35.35c.94,2.59-.58,4.68-1.41,6.92a85.92,85.92,0,0,1-9.53,14,2.66,2.66,0,0,1-1.57,1.28A2,2,0,0,1,98.62,79c-4.91-3.12-9.3-3-13.75.19-2.92,2.12-6.22,3.8-8.11,7.1-.77,1.63-.7,3.43-1,5.16A2.54,2.54,0,0,1,75,92.62c-1.35.64-2.7,1.37-4.16.27A6.16,6.16,0,0,1,70,89.26,16.28,16.28,0,0,1,71,84.2a12,12,0,0,1,1.26-2.54c1.11-1.44,2.57-2.54,3.73-3.94a7.84,7.84,0,0,0,4.25-7,3.22,3.22,0,0,1,1.37-.26c7,.9,8.3-.21,8.26-7.23,0-1.33-.07-2.66-.07-4,0-2.73-.17-5.46-.1-8.19.23-3.4-.08-6.81,0-10.21,0-.82.06-1.65.07-2.48s0-1.6,0-2.41c0-1.81,0-3.63,0-5.45,0-.75,0-1.51,0-2.27,0-1,0-2,0-2.95,0-.72,0-1.44,0-2.16,0-.93,0-1.86,0-2.78,0-.66,0-1.32-.11-2A2.3,2.3,0,0,0,89,16.73C85.81,15.67,82.15,17.53,79.21,15.11Z"/><path class="cls-144" d="M91.13,18.05v2A3.62,3.62,0,0,1,88,22.22c-9.37.64-18.17,3.37-26.69,7.18a5.14,5.14,0,0,1-3.89.28,3.43,3.43,0,0,1-2-3.29c1.84-4.6,6.42-5.16,10.2-6.89,1.46-.68,3.35-.14,4.56-1.57l6-1.86c2.08,1,4.23.23,5.23.41A4,4,0,0,1,78,15.93l1.19-.83c4,.47,8.08-1.25,11.89,1a2,2,0,0,1-2.59.17C89.39,16.81,90.69,16.85,91.13,18.05Z"/><path class="cls-145" d="M53.18,19.09l2,0c4,.22,7.87-2,12-1-2.93,3.66-7.7,3.73-11.42,5.86-1.16.49-2.32,1.21-3.5.05.17-1.12-5.41-3.91,1-3.29C53.88,20.75,53.28,19.65,53.18,19.09Z"/><path class="cls-146" d="M92.19,10.09c-1.71-.51-.61,1.87-1.88,1.81a5.25,5.25,0,0,1,.16-3.78c2.89-.13,6-.69,4.17,4.16-.75,2,1.88.83,2.56,1.73,2.82,1.63,6.31.13,9.09,2a3.89,3.89,0,0,1-2.56,1.93c-3.32.44-6.5-.41-9.7-1.06C91.31,15.17,93.71,12.09,92.19,10.09Z"/><path class="cls-147" d="M55.15,23.05c3.87-2,8.41-2.41,12-5l3-.13c-3,3.57-8,3.24-11.41,6-.84.68-2,.94-2.56,2.06C53.85,25.73,54.54,24.37,55.15,23.05Z"/><path class="cls-148" d="M78,15.93l5.15.37c-2.39.52-4.8,1.58-7-.23Z"/><path class="cls-57" d="M98.13,8.1A9.93,9.93,0,0,1,105.19,10c-2.37,0-4.8.4-7-1A2.4,2.4,0,0,1,98.13,8.1Z"/><path class="cls-149" d="M43.2,63l-10-6c.11-.21.21-.42.31-.63C39.28,49.83,45,43.19,52.12,37.92c1.58-1.17,3.05-2.65,5.32-2.11,2.44,2.63,5.2,5.09,5.17,9.13C55.35,50.12,49.86,57.2,43.2,63Z"/><path class="cls-150" d="M43.2,63c5.25-7.12,10.73-14,19-18,3.73,1.81,4.8,5.2,5.32,8.92-5.56,4.17-10.15,9.41-15.3,14Z"/><path class="cls-151" d="M52.19,68c3.79-6,8.32-11.15,15-14,3,.59,3.7,3.38,5.13,5.48A4.72,4.72,0,0,1,72.59,63c-1,1.38-2.48,2.07-3.78,3-2.94,2.2-6.13,4.3-1.66,8.08A1.56,1.56,0,0,1,67,76.38c-4.89-.35-8.7-2.7-11.82-6.35Z"/><path class="cls-152" d="M33.19,57.06l-2-2a2.17,2.17,0,0,1-.55-1.32c4.93-9.33,12.62-16,21.25-21.7A2.8,2.8,0,0,1,55.16,32c1.29,2-.13,3.16-1.46,4.13A93.16,93.16,0,0,0,33.21,57Z"/><path class="cls-153" d="M31.18,54.05v1A4.6,4.6,0,0,1,26.29,52c6.44-9.28,13.63-17.82,23.51-23.68,1.16-.71,2.54-1.55,3.46,0,1.06,1.74-.56,2.72-1.75,3.52A80,80,0,0,0,35,46.67C33.22,48.76,30.28,50.5,31.18,54.05Z"/><path class="cls-154" d="M21.31,56.06a2.18,2.18,0,0,0,.89-2c4.32,0,7.32,3,10.7,5,6.55,3.84,13.86,6.48,19.34,12a2.33,2.33,0,0,1-1.19.72c-3.91-.24-6.65-3-9.93-4.63A18.38,18.38,0,0,1,37.84,65C36.66,64.09,35.21,63.77,34,63a7.94,7.94,0,0,1-1.42-1.1A9.76,9.76,0,0,0,30,60.52c-.56-.3-1.08-.64-1.61-1-1.84-2.25-5.26.07-7-2.4Z"/><path class="cls-155" d="M50.19,29.06A74.47,74.47,0,0,0,29.78,48.84C28.94,50.07,28.35,52,26.29,52l-.15-1,5-8C36.58,37.34,42,31.7,49,28,50.09,27.64,50.35,28.12,50.19,29.06Z"/><path class="cls-156" d="M51.17,71.1l1.07,0c1.09,0,2.26.17,2.95-1l12,6c.09.21.17.42.26.64a1.78,1.78,0,0,1-.88,1c-2.8,1-4.66-1.15-6.91-2C57.81,75,56.12,73.78,54,73.84a3.53,3.53,0,0,1-3-1.46A1.16,1.16,0,0,1,51.17,71.1Z"/><path class="cls-157" d="M50.19,29.06,49.05,28a4.45,4.45,0,0,0,.15-.9L51,26l1.25-.89c2.08-.53,2,1.38,2.74,2.39a12.34,12.34,0,0,1,.57,4l-.33.59c-5.74,1.41-9.75,5.71-13.57,9.51s-7.93,7.51-10.43,12.47c-3.23-.85-1.75-2.36-.58-3.91A88.08,88.08,0,0,1,51.09,30.68c.67-.46,2.23-.69,1.32-2.05C52.25,28.39,51,28.9,50.19,29.06Z"/><path class="cls-158" d="M21.35,57.13c2.7.27,5.82-1.13,7.84,1.93C25.71,66.62,22.65,74.32,21,82.52c-1.09,2.82.4,6.18-1.83,8.77a4.26,4.26,0,0,1-4.26.41c-2.09-2-1.22-4.4-.78-6.72a26.56,26.56,0,0,1,2-11.07c1,.76.33,1.87.65,2.78-.8-2.61,2.05-4.89.66-7.55,0-.34-.05-.68-.07-1C18.71,64.47,21,61.15,21.35,57.13Z"/><path class="cls-159" d="M54.21,28l-2-2.93c0-.37,0-.74.07-1.11l2.88-.93c.09,1.08-.16,2.27,1,3,.35,1,.69,2,1,3,.69.73,1.78.92,2.38,1.77a19.93,19.93,0,0,1,1.16,2.07,12,12,0,0,0,1.27,2,11.35,11.35,0,0,1,2.08,3.06,20.31,20.31,0,0,0,2.3,3.89C68.32,45.05,70.8,48,70.92,52a2.61,2.61,0,0,1-.76,1.22c-2.39.21-3-1.78-3.8-3.3C62.62,42.47,57.62,35.68,54.21,28Z"/><path class="cls-160" d="M64.09,140h-.91c-5.91-3.38-13.08-4.86-16.77-11.55-.85-1.56-2.41-2.74-2.65-4.67,1.68-4.19,5.93-4.54,9.28-6.22a2.45,2.45,0,0,1,1.37.31c2.89,3.55,5.56,7.25,9.76,9.56a6.49,6.49,0,0,1,3.4,5.69C66.51,135.51,66.41,138.34,64.09,140Z"/><path class="cls-161" d="M62.1,150.91l1-1.9.7.2a47.17,47.17,0,0,0,17.51,6.68c6.37,1,7.28.31,7.51-6,0-1,0-2,0-3,0-2,.06-4-.11-6a13,13,0,0,1-.38-4.53c.91-1.84-.86-5.07,2.82-5.5a3.29,3.29,0,0,1,1,1.37,179.47,179.47,0,0,1,.14,24.1c-.84,2.17-.55,4.6-1.53,6.74-1.28,1.91-3.15,2.16-5.24,1.89a60.5,60.5,0,0,1-20.72-6.11C60,156.29,59.77,155.83,62.1,150.91Z"/><path class="cls-162" d="M56.13,154l-1.93,1c-1.45.58-2.61-.24-3.65-1-8.61-6-16-13.08-19.9-23.15,1.24-2.09,3.4-2.59,5.52-3.15,5.73,7.51,11.36,15.13,19,20.88A3.93,3.93,0,0,1,57,152,3.39,3.39,0,0,1,56.13,154Z"/><path class="cls-163" d="M44.18,124q3.78,4.27,7.57,8.53c1.62,1.82,2.47,5,6.24,2.24.78-.57,3.59,3.2,5.19,5.24-.82,1.46-1.19,3.26-3,4-1.4,1.44-3.1,2.38-4.83.93-6.12-5.13-12-10.48-15.84-17.67a2.35,2.35,0,0,1,0-1.48A3.41,3.41,0,0,1,44.18,124Z"/><path class="cls-164" d="M40.19,126.06c3.62,7.48,10.1,12.49,15.79,18.17,1.41,1.4,2.8-.39,4.22-.18-.34,1.32-.69,2.64-1,4-.26,1.89-.32,3.91-3,4.05-1.66-3.16-4.84-4.79-7.23-7.21-5-5-10.27-9.87-12.77-16.79C37.15,126.62,38.15,125.31,40.19,126.06Z"/><path class="cls-165" d="M31.19,131c5.76,9.83,12.94,18.31,23,24-.67,1.34-1.33,2.67-2,4-8.32-5.81-16.05-12.27-22-20.59-1.29-1.82-4-3.5-2-6.46l.92-1A1.49,1.49,0,0,1,31.19,131Z"/><path class="cls-166" d="M66.13,144a4.5,4.5,0,0,1,1.26-3.69c.29-1.07.83-1.71,2.06-1.26,1.37,2.63,3.29,3.86,6.47,4.33,4.48.66,9.23.78,13.29,3.33a2.36,2.36,0,0,1,.45,1.43c.69,4-1.28,5.44-5,5.28-7.12-.31-13.78-1.77-19-7.12A2.61,2.61,0,0,1,66.13,144Z"/><path class="cls-167" d="M90.18,163c.28-2-.73-4.24.95-6,2.39,4.73,2,9.42-.21,14.08-2.8,1.89-5.6.3-8.4,0-4.38-1.16-9-1.38-13.25-2.9-1.35-.29-2.67-.6-3.15-2.15-2.21-1-4.37-2.1-6.64-2.93-3.12-1.14-3.89-2.72-1.41-5.27a7.05,7.05,0,0,1,2.07,1.33c.35.24.68.48,1,.73a16.37,16.37,0,0,0,4.14,1.79,51.74,51.74,0,0,0,17.47,4.9c1.92.14,3.94.62,5.73-.64C89.19,165.06,89.49,163.94,90.18,163Z"/><path class="cls-168" d="M90.18,163v4c-8.34-.08-16.41-1.33-23.92-5.27-1.85-1-3.78-2.09-6.07-1.74-1.44,0-2-.91-2.12-2.19,1-2.49,1.75-5.16,4-6.93-1.42,3.38-.18,5.16,3.1,6.76C72,161,79.1,162.6,86.39,163.93A6.13,6.13,0,0,0,90.18,163Z"/><path class="cls-169" d="M69.12,138.91l-1.73,1.35c-1-2-2.31,1.47-3.3-.22,1.32-2.21.18-5.5,3.09-7a11.16,11.16,0,0,1,.91-.91,4.58,4.58,0,0,0,2.57-5.21,8.28,8.28,0,0,1,.92-3.22c1.32-2.11,2.24-4.54,4.54-5.91,2,.09,2.39,1.92,3.33,3.15a3.38,3.38,0,0,1-.67,2.6c-1.87,2.8-3,6-4.88,8.81C72.33,134.55,71.41,137.23,69.12,138.91Z"/><path class="cls-170" d="M56.2,152.06l3-4.05c1.9,3.48-.29,4.88-3,6C56.15,153.36,56.18,152.71,56.2,152.06Z"/><path class="cls-171" d="M63,148c-1.41-1.79,0-3.43.74-4.67,1-1.57,1.24,0,1.46.83C65.35,146,65.09,147.51,63,148Z"/><path class="cls-172" d="M66.12,166l3,1c-.35,2.3-1.8,1.37-3,1L63.2,167C63.89,165.83,65.07,166.14,66.12,166Z"/><path class="cls-161" d="M63,148q1.1-1.92,2.2-3.84a4.69,4.69,0,0,1,.89-.24c0,.69,0,1.39,0,2.09-.62,1.32-.47,3.37-2.84,3.09l-.18-.12C63.12,148.68,63.08,148.36,63,148Z"/><path class="cls-173" d="M21.2,135.06c1.32-1.59,3.33-2,5-3,0,1.32,0,2.65,0,4a3.18,3.18,0,0,0-4,0Z"/><path class="cls-174" d="M84.14,173.09c-.23,2.67-1.94,3.32-4.15,2.68a15.43,15.43,0,0,0-4.8-.75c0-1,0-2,0-3a3.45,3.45,0,0,1,2.77-1.1,8.58,8.58,0,0,1,2.25.29C81.56,171.72,83.15,171.78,84.14,173.09Z"/><path class="cls-175" d="M66.12,168.09c1.09-.13,2.32.17,3-1L82.3,170c-1.91,2-4.48.58-6.65,1.25-1.39.4-2.45-.3-3.51-1A12.2,12.2,0,0,1,66.12,168.09Z"/><path class="cls-33" d="M72.14,170.15l3.15.77c1.17-.17,2.72-1.33,2.89,1.11h-3C73.77,172.05,72.34,172.09,72.14,170.15Z"/><path class="cls-176" d="M84.14,173.09c-1.37-.21-2.93.36-4-1,2.68-2.24,5.61-.39,8.41-.51.73.17.9.58.51,1.22l-.82.26Z"/><path class="cls-177" d="M89,172.82a5.16,5.16,0,0,0,.09-.79c.17-.54.7-.7,1.07-1,1.91-4.56.62-9.34.93-14q0-13,0-26A13.41,13.41,0,0,1,91,119.14a1.35,1.35,0,0,1,1.7.46c1.14,1.81.89,3.85.89,5.82,0,12.29.1,24.59,0,36.87a72,72,0,0,1-1.5,12.65L90.2,175C90.72,173.82,90.63,172.92,89,172.82Z"/><path class="cls-178" d="M29.18,128l-4,2c-5.74-9.72-6.58-20.78-8.71-31.5-.67-3.4,3-1.78,3.74-3.46a2.72,2.72,0,0,1,3.69-.29c1.21,9.94,1.38,20.08,5.58,29.46A3.35,3.35,0,0,1,29.18,128Z"/><path class="cls-179" d="M14.15,85c.44,2-.76,4.3,1,6.09.82.83,1.77,1.61,1,3l-.95,0c-3.09.71-5.91-1.07-8.93-1,.17-2.55,1.92-2.8,3.85-2.49,1.09.17,2.16,1.07,3-.44C13.47,88.43,12.59,86.45,14.15,85Z"/><path class="cls-130" d="M16.16,94c-.33-1-.66-2-1-3l4,0,.48.5a2.42,2.42,0,0,1,0,2l-.48.5Z"/><path class="cls-130" d="M24.17,95.08h-4l-1-1,0,0a3.94,3.94,0,0,1,3.52-1,3.14,3.14,0,0,1,1.36.63l.36.66C24.36,94.61,24.26,94.84,24.17,95.08Z"/><path class="cls-180" d="M38.19,123l-4,1.95c-3.3-2.22-4-5.9-5.06-9.3-1.51-4.91-1.68-10.07-2.1-15.16-.2-2.35,0-4.73,2.89-5.57,2.65,0,5.52-1.83,7.82,1,2.49,7.72,3.88,15.69,5.41,23.63C42.4,122,40.64,123,38.19,123Z"/><path class="cls-181" d="M30.2,96.05c-3.07.61-2.06,3.09-1.92,4.8.65,8.35,1.92,16.59,5.88,24.14l-5,3c-3.77-8.86-4.71-18.37-6.52-27.7-.45-2.34-.14-3.79,1.51-5.2l0,0C26.47,93.76,28.72,92.54,30.2,96.05Z"/><path class="cls-173" d="M31.19,131l-2.08,0c2.23-3.36,7.29-3,9.08-7,4.39-2.59,8.49-5.72,13.44-7.27a1.94,1.94,0,0,1,1.57,1.29c-2.5,2.76-6.92,2.62-9,6l-4,2-4,2C34.52,129,32.5,129.45,31.19,131Z"/><path class="cls-182" d="M52.15,117c-4.49,2.66-8.7,5.88-14,7,0-.33,0-.67,0-1l4-3c2-3,5-4.13,8.35-4.78a2.06,2.06,0,0,1,1.75,1Z"/><path class="cls-183" d="M126.14,156c1.4,1.83,3.93,3.48,1,6a1.12,1.12,0,0,1-1.25-.05,2.14,2.14,0,0,0-2.71-.37c-7.29,3.53-15.11,4.81-23.1,5.33,1.68.34,3.59-.52,5.13.81a1,1,0,0,1,0,1.29l-2.12.82a42.66,42.66,0,0,0-5.9.74c-2.47.66-2.9-.64-3-2.54-1.08-1.24-1-2.76-.94-4.23.17-9.05-.44-18.1.32-27.14a1.38,1.38,0,0,1,1.49-.88c1.65,1.37,1.53,3.29,1.63,5.14-.17,4,0,8-.08,12-.16,10,.54,10.67,10.42,8.42a83.25,83.25,0,0,0,14.59-4.7C123,156,124.42,154.73,126.14,156Z"/><path class="cls-184" d="M105.18,169c0-.34,0-.67,0-1,4.28-3.32,9.86-2.84,14.59-4.93,1.91-.83,3.93-2.78,6.39-1.11l.94,0h.37c-.39,3.47-3.68,1.76-5.34,3C116.64,167.06,111.15,169.05,105.18,169Z"/><path class="cls-185" d="M122.12,165l5.34-3,1.84,1.16c-1,1.46-2.15,2.74-4.1,2.83C124.45,164.86,123.23,165.09,122.12,165Z"/><path class="cls-186" d="M94.35,136l-.21,32.08a3.41,3.41,0,0,0,0,4.92c0,.71,0,1.43-.05,2.14-.27.42-.54.4-.81,0l-1.2-.18V119.11l.77-.47A1.94,1.94,0,0,1,95,119.86C95.62,125.27,96.51,130.69,94.35,136Z"/><path class="cls-187" d="M93.26,175.12a3.66,3.66,0,0,1,.81,0l1.05,1.14c.24,2.25-.91,3-3,2.78Z"/><path class="cls-188" d="M156.09,132.23c1.82.32,1.61,1.56,1.32,2.86-6,10.08-14.38,17.76-24.19,24-3.15-2.26-5.45-5.08-6-9.05,2.06-.57,2.51,1.26,3.49,2.31.73,1,1.2,2.16,2.44,2.65,3.07-.29,5.08-2.38,7.11-4.3C146.17,145.12,152,139.43,156.09,132.23Z"/><path class="cls-189" d="M141.17,124a14.63,14.63,0,0,1,5,2.95c1.75,1.12,1.91,2.55.81,4.22a58.69,58.69,0,0,1-16.21,16.5c-1.42,1-2.95,1.6-4.57.32a5.5,5.5,0,0,0-3-4c-3.09-.27-3.11-2.6-3.27-4.84a2.29,2.29,0,0,1,1.17-.79c4.48,3.43,7.15,0,10.18-2.57C135.26,132.45,137.8,127.9,141.17,124Z"/><path class="cls-190" d="M126.22,148c3.15.18,5.27-1.95,7.29-3.74a78.18,78.18,0,0,0,12.65-13.67c1-1.41.55-2.42,0-3.63a13.34,13.34,0,0,1,6.11,3.88c.22.45.44,1,.21,1.41a56,56,0,0,1-20.43,20.84,2.24,2.24,0,0,1-1.92-.06l-3-3Z"/><path class="cls-190" d="M126.14,156c-7.4,3.1-14.74,6.33-22.9,7.05-7.9.7-7.9.8-8-7.1,0-.66,0-1.32,0-2a1.05,1.05,0,0,1,1.3.12c1,2.46,2.45,3.6,5.29,2.84,7-1.86,14.81-1.89,20.17-8,2.72.07,3.2,1.89,3.18,4.09Z"/><path class="cls-191" d="M125.16,153.05l-3-4a8.37,8.37,0,0,1-2.54-2.85c-.73-1.28-1.31-2.64-2-3.92a33.51,33.51,0,0,0-2-3.16,35.1,35.1,0,0,0-2.19-3.81c-1.09-1.59-1.87-3.37-3-5s-1.63-3.58-3-5c-1.32-2.67-3-5.17-3.58-8.16a2.91,2.91,0,0,1,2.08-1.86,4.35,4.35,0,0,1,1.44,0c3.69,1.51,4,5.62,6.23,8.2a9.91,9.91,0,0,1,.7,1.18c1,2.24,2.38,4.35,2.94,6.8a9.69,9.69,0,0,0,2.51,5.05,3.11,3.11,0,0,1,.81,2.42,13.09,13.09,0,0,0,2.63,5C122.86,147.23,127.65,149.34,125.16,153.05Z"/><path class="cls-192" d="M153.15,126.06c-1.68-1-3.76-1.33-5.06-3,2.8-2.76,4.08-6.15,5-10,1.43-5.74,2.19-11.63,3.88-17.31a3.43,3.43,0,0,1,2.33-.59c1,.53,2.27.09,3.2.88,1.94,6-.51,11.74-1.45,17.53-.56,3.43-2.25,6.58-3.54,9.81C156.81,125.26,155.81,127.19,153.15,126.06Z"/><path class="cls-193" d="M153.15,126.06a3.17,3.17,0,0,0,3-2.19,77,77,0,0,0,6-27.71c5.69-1.13,5.94-.91,6,4.63a39.1,39.1,0,0,1-2.67,14.91c-1.82,1.18-2-.19-1.92-1.4.14-2.3.82-4.51,1.18-6.79a85.86,85.86,0,0,1-4.44,16.4,3.13,3.13,0,0,0,.27,3.29,1.85,1.85,0,0,1-.39,1.89C157,130,155.26,127.63,153.15,126.06Z"/><path class="cls-194" d="M137.91,117.17c-4.13-.56-6.65-4.41-10.66-5.2l-.64-.21A1.61,1.61,0,0,1,126,110a2.28,2.28,0,0,1,1.15-.57c.85-.05,1.68.18,2.53.15,1.53-.2,2.16-2.26,3.95-1.91,1.42.44,1.07,2,1.85,3.14a54.69,54.69,0,0,0,2.69-10.33c.27-1.93.59-4,2.54-5.17a4.73,4.73,0,0,1,4.69.51c2,7.45-1,13.92-4.1,20.33A2.29,2.29,0,0,1,137.91,117.17Z"/><path class="cls-195" d="M141.17,124c-2.44,8.23-9.25,12.76-15.4,17.69-2.57,2.06-2-3.52-4.59-2.82,0-2.44,2.21-3.14,3.69-4.3a62.17,62.17,0,0,0,6.53-6.14,9.74,9.74,0,0,0,2.79-8.51A24.6,24.6,0,0,1,141.17,124Z"/><path class="cls-196" d="M137.91,117.17c5.22-2,4.15-7.49,5.94-11.31,1.32-2.83.93-6.46,1.31-9.74a3.42,3.42,0,0,1,3-1.14,3.71,3.71,0,0,1,2.28,1c2.05,7.76-1.71,14.49-3.84,21.51a3.21,3.21,0,0,1-3.34,2.44,9,9,0,0,1-2.34-.7C139.44,119.27,138.65,118.27,137.91,117.17Z"/><path class="cls-197" d="M134.19,120c1.82,2.29,2.12,4,0,6.87-3.64,4.93-8.43,8.35-13,12.08l-.63.07-1.43-2c-.62-1.27-1.89-2.33-1.28-4,6.32-3.13,10.24-8.71,14.37-14.08Z"/><path class="cls-198" d="M132.21,118.94c-2.61,6.92-6.67,12.39-14.33,14.23a1.77,1.77,0,0,1-1.63-1.29l-3-6.84c2.77-.44,5.94,3.79,8.44-1.12,1.44-2.83,4.51-4.72,5.53-8A9.22,9.22,0,0,1,132.21,118.94Z"/><path class="cls-199" d="M127.19,116a2.94,2.94,0,0,1-.69,4.29,26,26,0,0,0-2.78,2.77c-5.22,5.82-5.22,5.83-10.5,2a.63.63,0,0,1-.23-.73,2.06,2.06,0,0,1,.79-1.07c2.8-1.66,5.45-3.49,6.75-6.67,0,0-.22-.23-.36-.29a1.2,1.2,0,0,0-.51-.06c-2.76-1.74-4.5-4.08-4.43-7.49,4.35-.17,7.41,2,9.85,5.36Z"/><path class="cls-200" d="M130.16,153.06c9.42-5.36,16.49-13.07,22.14-22.19l1.94,1c.86,3.47-1.65,5.55-3.45,7.74-5.33,6.45-10.56,13.07-18.63,16.43Z"/><path class="cls-201" d="M141,119.18l2.21-.13c3.14,1.19,5,.42,6.43-2.94,2.12-4.92,2.86-10.12,4.07-15.23.41-1.74.07-3.68,1.49-5.12a1.69,1.69,0,0,1,2,.36c.13,8.41-2.29,16.28-5.06,24.08-.65,1.84-1.77,3.16-4,2.88A15,15,0,0,1,141,119.18Z"/><path class="cls-202" d="M132.16,156.06c8.68-6.84,17.26-13.79,22.08-24.16l1.85.33c.37,3.24-1.93,5.17-3.67,7.34a78,78,0,0,1-16,15.59C135.25,156,134,157.82,132.16,156.06Z"/><path class="cls-203" d="M164.18,116.06c3.08-5.54,3.22-11.61,2.92-17.69-.18-3.52-3.11-1.92-5-2.21L159.2,96a.75.75,0,0,1-.33-.71c0-.27.11-.4.18-.4a.86.86,0,0,1,1.15.11c3.25,1,7.22-1.6,9.94,2-1.67,3.85-.38,8.14-1.79,12a82.76,82.76,0,0,1-7.18,20h-.48l-.49,0c0-.68,0-1.36,0-2C160.12,122.88,162,119.43,164.18,116.06Z"/><path class="cls-204" d="M125.08,114.09l-9.91-5a10.18,10.18,0,0,1-5.58-1.86c-1.09-1.19-1.83-2.72-.55-3.94,2-1.93,3.95,0,5.89.65a30.45,30.45,0,0,0,4.06,1.41,15,15,0,0,1,3.85,2.86,18.8,18.8,0,0,0,4.41,3.79v0A2.06,2.06,0,0,1,125.08,114.09Z"/><path class="cls-205" d="M166.2,137.06l-3-.26C164.48,133.86,165.31,135.75,166.2,137.06Z"/><path class="cls-206" d="M162.27,136.92a2,2,0,0,1-2,1.06c0-.93,0-1.86.07-2.79A2.91,2.91,0,0,1,162.27,136.92Z"/><path class="cls-207" d="M172.12,116.12c0,.3,0,.6,0,.9-.85.36-.94,1.83-2.19,1.53-.18,0-.41-.54-.36-.78C169.86,116.41,170.93,116.15,172.12,116.12Z"/><path class="cls-115" d="M174.17,108.05v4C173.53,110.71,171.13,109.38,174.17,108.05Z"/><path class="cls-208" d="M17.43,69.14c3,3.22-1.5,5.85-.48,8.92-1.23-1.28-.51-2.79-.83-4.14C16.56,72.32,17,70.73,17.43,69.14Z"/><path class="cls-209" d="M160.2,95l-1,.15a3.9,3.9,0,0,1-2.75.27c-1.22-2.35,1.57-2.39,2.13-3.72a6.74,6.74,0,0,1,1.7-1.27,5.79,5.79,0,0,1,1.34-.42,32.06,32.06,0,0,1,4-.2c1.68.21,2.51-1.14,3.63-2,1.84.13,1.89,1.7,2.37,2.92a1.7,1.7,0,0,1-.43,1.28c-2.26.86-4.52,0-6.79,0C162.27,92.07,160.37,92.26,160.2,95Z"/><path class="cls-210" d="M171.18,92,171,90.94a1.37,1.37,0,0,1,1.26-1.8,4.6,4.6,0,0,1,1,0c.37.89,1.22.86,2,1A5.55,5.55,0,0,1,171.18,92Z"/><path class="cls-211" d="M104.16,16.89l2.13-.92,3.83.16c-.66.59-1.32,1.18-2,1.76C106.51,18.76,105.22,18.27,104.16,16.89Z"/><path class="cls-212" d="M104.16,16.89l4,1a62.19,62.19,0,0,1,20.05,7.25c2.3,1.12.8,2.73.54,4.19a4,4,0,0,1-.55,1.27c-.75.62-1.5,1.17-2.39.22-1-3.87-4.21-4.15-7.31-4.69A95.1,95.1,0,0,0,104.54,22a12.58,12.58,0,0,0-7.36-.33,2.36,2.36,0,0,0-.48,1.66c0,.83-.2,1.64-.28,2.47,0,.66,0,1.31,0,2,0,1.17,0,2.33.07,3.5,0,1.51,0,3,0,4.52a7.87,7.87,0,0,1-.82,4,1.32,1.32,0,0,1-1.54.44,3,3,0,0,1-.8-1.56c-.55-6.27.6-12.55-.08-18.82a4.12,4.12,0,0,1,1-3.69C97.67,15,100.79,17.54,104.16,16.89Z"/><path class="cls-213" d="M128.17,30.05c-.31-1.64,1.11-3.28,0-4.92.32-.68.65-1.36,1-2,2.9.13,1.13-3.34,3.05-4-.39,2,1.56,4,0,6l-3,5A.62.62,0,0,1,128.17,30.05Z"/><path class="cls-214" d="M166,48.24,167.21,50c0,.36-.05.72-.07,1.09-.84.78-1.65,1.64-3,1-.32-1-.65-2-1-2.94l1.05-1Z"/><path class="cls-215" d="M164.17,52.06l3-1c.44,1.87-.8,2.83-2,3.8a1,1,0,0,1-1.17.32c-1.51-1.17-1.18-2.2.24-3.15Z"/><path class="cls-216" d="M164.19,54.82a2.15,2.15,0,0,0,.91.07c1.66,2.73-.57,2-1.88,2.12h0c-.77-.54-1.67-1-1-2.21A2.08,2.08,0,0,1,164.19,54.82Z"/><path class="cls-217" d="M172.27,89.14,171,90.94,169.36,88c-2.16-3.49-2.77-7.14-1.08-11,1.16.69,1.92.59,1.91-1C172.21,80.2,170.53,84.94,172.27,89.14Z"/><path class="cls-218" d="M162.3,55.13c.29.63.59,1.26.89,1.89l-2.26.09a16.14,16.14,0,0,1-4.57,3.73,24.91,24.91,0,0,0-5.82,2.84c-1.16.61-2.23,1.36-3.32,2.08-2.92,1.55-6,2.85-8.66,4.82-1.88,1.08-3.94,1.82-5.73,3.08-.52.39-1.06.75-1.62,1.09a38.42,38.42,0,0,0-5,3c-3.08,1.38-5.83,3.35-8.81,4.9a14.84,14.84,0,0,0-3.06,1.53c-1.39.77-3.13,2.49-4.26.44-1.24-2.25,1-3.7,2.67-4.59C120.55,76,128,71.36,135.66,67a42.52,42.52,0,0,0,5-3.33C146.27,61.5,151.2,58,156.45,55h.7l1.08.07C159.58,56.55,160.94,54,162.3,55.13Z"/><path class="cls-219" d="M168.28,77l1.08,11c-.06,2.08-.82,3.41-3.2,3-2.11-2.4-2-5.48-2.59-8.36A94.6,94.6,0,0,0,160,69.87c-.23-1.3-.69-2.55-.95-3.84s-1.32-3.29.62-3.84c1.66-.47,2.34,1.47,2.95,2.82a28.15,28.15,0,0,0,1.55,3.62c.65,1,.4-.86,1-.71C167.13,70.66,167.08,74.05,168.28,77Z"/><path class="cls-220" d="M165.23,67.92c-.08,1.08-.16,2.17-.33,4.53l-4.74-9.73-.65.2,1.66,6.13a1.19,1.19,0,0,1-1.32.2c-2.11-2.65-3.81-5.47-3.68-9,1.22-1.59,2.5-3.1,4.76-3.1C162.23,60.77,164.58,64,165.23,67.92Z"/><path class="cls-221" d="M128.17,30.05l1,0c.29.65.59,1.3.88,2,.84,1.12.15,2.14-.21,3.18C128.67,37.55,127,39.61,126,42c-.29.58-.62,1.14-.95,1.69a42.36,42.36,0,0,0-3.16,5.52c-.87,1.7-2,3.25-2.93,4.93-.41.77-.8,1.54-1.2,2.32-1.08,2.27-3,3.94-4.4,5.93a5.75,5.75,0,0,1-1.92,1.88,1.44,1.44,0,0,1-1.27-.23c.66-2.4,1.31-4.8,2-7.19-.54-2,.77-3.48,1.51-5.11a49.32,49.32,0,0,0,4-7c1.42-1.73,2.11-3.9,3.29-5.77,3.78-1.9,4.56-6.23,7.3-9Z"/><path class="cls-222" d="M157.41,52l-.29,2c-2.82,1.47-3.69-1.06-5.05-2.51-4.71-5-8.89-10.63-15-14.23-1.07-.63-1.59-.69-2.29.21a4.42,4.42,0,0,1-4.84-2.33,11.69,11.69,0,0,1,1.23-4.12h0c5.46-1.46,8.08,3.41,11.93,5.47,1.52.81,2.44,2.67,4.16,3.45l0,0c1.21.81,1.54,2.5,3,3h0a20.09,20.09,0,0,0,3.1,4l1.83,1.06a2.29,2.29,0,0,1,1.56,1A3.43,3.43,0,0,1,157.41,52Z"/><path class="cls-223" d="M147.26,40c-3.9-2.35-7.89-4.59-11.66-7.13-1.42-1-2.62-2-4.43-1.79.84-1.88,1.4-3.64,4.13-1.65C139.63,32.57,144.23,35.36,147.26,40Z"/><path class="cls-223" d="M153.33,47c-1.79-.75-3.09-1.88-3.1-4A5.45,5.45,0,0,1,153.33,47Z"/><path class="cls-223" d="M131.17,31.06a6.29,6.29,0,0,1-1,4,.84.84,0,0,1-1.09,0l1-3Z"/><path class="cls-224" d="M156.09,49.12l-.93-1.06c.05-.77.14-1.52.92-1.93l1.08,1C157.86,48.34,157.78,49.16,156.09,49.12Z"/><path class="cls-223" d="M150.24,43c-2.06,0-2.4-1.64-3-3C149,40.21,149.56,41.66,150.24,43Z"/><path class="cls-223" d="M135.17,37.06c-1.07-3.17.9-1.5,1.79-1.05,6.78,3.41,11.17,9.45,16.07,14.9,1.21,1.35,2,3,4.09,3.13l0,1h0a11.77,11.77,0,0,1-4,1.31c-5-6.08-10.19-12-16.53-16.81A3.6,3.6,0,0,1,135.17,37.06Z"/><path class="cls-225" d="M156.09,49.12a2,2,0,0,0,1.07-2c3.08,1.48,3.07,3.11.25,4.89Z"/><path class="cls-214" d="M162.3,55.13c-1.36.29-2.73,1.8-4.07,0,2.49,0,3.39-3.14,5.94-3a2.24,2.24,0,0,0,0,2.77Z"/><path class="cls-226" d="M70.19,52.05c-.85-3.74-3-6.84-5-10,6.49-4.72,13.91-6.71,21.78-7.3a5.3,5.3,0,0,1,4.15,1.3v2c-1.07.91-2.59.58-3.86,1.42,1.49-.47,2.88-1.25,3.84.55l0,11C86.77,45.54,81.8,48.46,76.92,50c-1.9.59-3.56,1.69-5.39,2.41A1.51,1.51,0,0,1,70.19,52.05Z"/><path class="cls-151" d="M71.18,52.06c4.54-4.52,10.59-5,16.4-5.93,3.83-.61,1.65,3.76,3.56,4.89,0,3,0,6,0,9-2.73.92-3.67-4.23-7.1-1.88a13.66,13.66,0,0,1-8,2.45C72.86,58.63,70.89,56,71.18,52.06Z"/><path class="cls-227" d="M76.17,60.06c2.71-1.45,5.78-1.9,8.48-3.53,3.71-2.24,4.86,1.31,6.47,3.52,0,2.27.08,4.55,0,6.83,0,1.71.53,3.83-2,4.27s-5.29,3.16-7.86-.1c-3.2-2.47-4.1-6.28-5.65-9.71A1.91,1.91,0,0,1,76.17,60.06Z"/><path class="cls-228" d="M72.19,84.18c-.34,1.61-.67,3.22-1,4.84-2.32,4.54-2.68,4.65-10.63,3.12a5,5,0,0,1-1.33-.62,3.85,3.85,0,0,1-1-3c-.35,1.36-.86,2.6-2.36,3.11a2.23,2.23,0,0,1-2.07-.68c-.41-5.5.29-10.64,4.84-14.49C64.11,77.28,69,79.27,72.19,84.18Z"/><path class="cls-229" d="M107.19,64.08a7,7,0,0,1-.35,1.43c-3.33,6.9-3.34,6.9-10.65,5.51-4.16-2.81-1.46-6.92-2-10.42.44-1.63.62-3.35,1.71-4.75,4.79-2.11,8.16,1.29,11.66,3.36C109.49,60.34,108,62.47,107.19,64.08Z"/><path class="cls-230" d="M91.13,36.06c-7.69-.39-14.85,1.56-21.7,4.89a7.89,7.89,0,0,1-4.23,1.11c-.59-1.38-2.15-2.27-2-4,1-2.69,3.69-3.32,5.91-4.15,7.07-2.63,14.19-5.37,22-3.85Q91.11,33.05,91.13,36.06Z"/><path class="cls-231" d="M75.24,86.11c3.82-5.14,8.6-9.25,15-10.35,3.06-.53,7.32-1.44,9.09,3.15-.82,1.11-2.84.86-3,2.68a3.32,3.32,0,0,1-1,1.66c-4.22-.86-7.44,1.85-8.26,7-1,2.13-3.12,3.23-4.49,5-1.4,1.37-2.7,3.42-5,2.06-1.87-1.12-1.6-3.07-.92-4.9,1.08-1.67,3.1-1.33,4.59-2.13,1.68-1,2.88-2.13,2.06-4.28-.88-2-2-2.16-3.7-.77C78.31,86.22,77,87.32,75.24,86.11Z"/><path class="cls-232" d="M141.25,64.21c-7.7,6.57-17,10.57-25.58,15.61-1.93,1.13-4.4,1.59-5.23,4.34,1.79,1.37,2.46-1,3.71-1.08C116,85.22,116,87.79,116,90.41c-1.74,4.75-3.82,2.37-5.9.29a6.55,6.55,0,0,1-.75-1.18,26.11,26.11,0,0,0-4.67-7.12c-.84-1.7-2.62-2.11-4.07-3-.12-.19-.23-.38-.34-.57l1-.85c1.75-1,3.21-2.49,5.09-3.33.33,0,.78-.07,1,.14,4.36,5.1,8.47,2.34,12.59-.36a42.24,42.24,0,0,0,7.75-5c2-.69,4.14-1.16,5.81-2.65a10.28,10.28,0,0,1,1.13-.72c2.13-.69,3.66-2.92,6.25-2.39Z"/><path class="cls-233" d="M96.18,56.06c-.15,1.38.42,2.93-.93,4A30.65,30.65,0,0,1,95.14,40l.12.07c4.48-1.81,18.13,1.06,20.7,4.54,2.24,3-.94,5.06-1.74,7.53l-2.12,4.7a3,3,0,0,1-.88.29,2.34,2.34,0,0,1-.73-1.95c.85-5.17.39-5.9-4.64-7.21-1.27-.33-2.58-.54-3.83-1-3.61-1.18-4.93.25-4.49,3.81C97.53,52.72,97.54,54.57,96.18,56.06Z"/><path class="cls-234" d="M94.26,16.14l.09,24a279.14,279.14,0,0,1-.06,30.75c-2.73,2.2-2-1.19-2-1.55.39-4.58-.15-9.14-.06-13.7.18-9.91-.29-19.81.41-29.76.36-5.08-.3-10.5-.49-15.77C94.3,11.62,92,14.65,94.26,16.14Z"/><path class="cls-179" d="M30.2,96.05c-1.76-1.79-4-.67-6-1l0-1A3.9,3.9,0,0,1,27,92.79c2.25-.18,4.52.1,6.77-.25,1.23-.37,1.72-1.71,2.87-2.21a5.75,5.75,0,0,1,5.3.33c1.11,3.46-2.82.63-2.68,2.08,6.86-.49,14.1.06,21.33-.08,3.51.48,7.06,0,10.58.37a6.15,6.15,0,0,1,3.94-.93c.2,3.33-1.83,5-4.55,6.24-5.63-2.17-11.46-.93-17.21-1-2,0-4,0-6,.07-3.45-.15-7.07.92-10.22-1.41C34.86,94.41,32.53,96.64,30.2,96.05Z"/><path class="cls-235" d="M96.18,56.06q0-3,0-6a14,14,0,0,1,15,5l.06,2.1c-1.14,2.43-1.7,5.19-4,6.92,2.1-5.66-3.59-4.84-5.8-6.85C100,56,98,55.92,96.18,56.06Z"/><path class="cls-153" d="M60.19,33.07a2.06,2.06,0,0,1-1-2c9.07-6.34,19.39-8.4,30.18-8.86a2.73,2.73,0,0,1,1.73.87v2a8.45,8.45,0,0,1-4.93,2.1A84.21,84.21,0,0,0,65.3,33C63.64,33.75,61.91,34.48,60.19,33.07Z"/><path class="cls-164" d="M91.11,30.05c-9.66,1.45-19.28,3-27.92,8l-2-3a61.83,61.83,0,0,1,25.23-8c1.7-.17,3.32-.25,4.65,1.05C91.09,28.73,91.1,29.39,91.11,30.05Z"/><path class="cls-236" d="M91.11,23.07c-9.66.37-19,2.12-27.77,6.39-1.33.64-2.76,1.07-4.14,1.6a3.27,3.27,0,0,1-2-2c7.29-1.8,14.1-5,21.37-7,4.22-1.15,8.65.32,12.53-2C91.12,21.07,91.12,22.07,91.11,23.07Z"/><path class="cls-230" d="M91.09,28.07c-9-.8-17.11,2.34-25.18,5.66-1.53.62-2.95,1.52-4.7,1.32a2,2,0,0,1-1-2c9-2.65,17.59-6.49,27-7.52,1.31-.14,2.61-.34,3.91-.51C91.09,26.05,91.09,27.06,91.09,28.07Z"/><path class="cls-237" d="M72.2,63.05c-.33-1-.66-2-1-3,.44-.47.61-1.23,1.43-1.27,1.67.54,2.16,2.17,3.09,3.39,1.59,2.93,3.61,5.65,4.41,9,2.77,4.63-.51,5.83-3.93,6.95-.08-.22-.16-.44-.25-.66,1.36-2.54,1-4.84-.44-7.36C74.26,67.82,72.25,65.86,72.2,63.05Z"/><path class="cls-238" d="M72.19,84.18C68,81.6,64.11,78.4,59.25,77c-2-.93-4.79-.81-5.09-3.92,3.31-1.07,5.47,1.55,8,2.72a11.39,11.39,0,0,0,5,1.28c2.71.8,4.18,3.11,6,5C72.85,82.75,72.52,83.46,72.19,84.18Z"/><path class="cls-239" d="M82.16,91.15c-1.43,1.55-3.3.71-5,.91a.85.85,0,0,1-1,.32,5.07,5.07,0,0,1-.93-1.48c-1.07-1.6.28-3.19,0-4.79a5.07,5.07,0,0,0,3.52-1.66c3.36-4.49,4.56-2.09,5.43,1.61a1.87,1.87,0,0,1-1.16.82C78.7,87.5,79.94,89.22,82.16,91.15Z"/><path class="cls-240" d="M106.16,75.36c-1.22,1.69-2.64,3-5,2.67-1-2-.91-2.19.5-2.77,2.32-.94,2.93-3.43,4.37-5.16a65.65,65.65,0,0,0,4.06-6l1.21,0C112.35,69.09,108.09,71.69,106.16,75.36Z"/><path class="cls-241" d="M75.24,90.9l1,1c1,2.13.21,4.42.39,6.63.23,2.65-1.1,5.11-4.66,4.67-1.5-1.52-2.28-3.16-.82-5.15.58-2.48,3-3.75,4-6Z"/><path class="cls-242" d="M94.29,70.87l.06-30.75.79-.09q.06,10,.11,20.06c.21,3.66-.9,7.42.94,10.93Z"/><path class="cls-243" d="M71.2,93c-3.54,1.87-7.35.69-11,1a2.06,2.06,0,0,1,0-2.92c3.76-.21,8.08,2.54,11-2.1C71.19,90.36,71.19,91.7,71.2,93Z"/><path class="cls-244" d="M95.17,81.06c-.5-4.3,2.51-1.87,4.11-2.15a2.82,2.82,0,0,0,1,0l-.08.2c1,1.11,2.51,1.65,3.31,3a1.84,1.84,0,0,1-.2,1.28,3.5,3.5,0,0,1-2.43,1.09C98.8,83.57,96.48,83.17,95.17,81.06Z"/><path class="cls-245" d="M80.13,71.12c-1.88-2.9-4.24-5.53-5-9.05-.26-1,.13-1.24,1-1,2.26,3,3.63,6.54,5.1,10Z"/><path class="cls-237" d="M73.19,82c-3-.46-4.37-2.88-6-5l0,0c3.17-1.26,5.85,1.83,9,1l0,0C76.37,80.29,74.17,80.7,73.19,82Z"/><path class="cls-230" d="M91.11,40c-2.52-1.69-4.77,2.5-7.67.11a13,13,0,0,1,7.69-2.08C91.12,38.72,91.12,39.37,91.11,40Z"/><path class="cls-236" d="M91.13,18.05l-3.08-1.4c.94-1,2.09-.37,3-.6Z"/><path class="cls-246" d="M33.21,57c2.75-8.47,10-13.13,15.92-19,2-2,5.48-2.54,6-6h0c2.31.52,2.26,2.21,2,4-8,4.35-13.86,11.18-19.84,17.81C36.12,55.24,35.35,57,33.21,57Z"/><path class="cls-247" d="M57.18,36.07c-.67-1.34-1.33-2.68-2-4a6.53,6.53,0,0,1-1-4c4.26,4.82,6.95,10.62,10,16.17,1.74,3.13,3,6.6,5.93,8.9,1.27,1.78,3.23,3.32,2.07,5.95l-1,1q-2-3-4-6-2.52-4.5-5-9C61.45,41.54,58.35,39.35,57.18,36.07Z"/><path class="cls-248" d="M76.18,78.05c-3.47,3.88-5.93-1.14-9-1,0-.32,0-.64,0-1a4.16,4.16,0,0,0-.43-.9c-4.49-5.51-4.3-6.32,2.36-10.7,1-.64,1.83-1.45,3.09-1.43,2.84,2.69,3.88,6.52,6.07,9.62C80.25,75.48,76.52,76.12,76.18,78.05Z"/><path class="cls-249" d="M42.17,91.09h-6a1.7,1.7,0,0,1-2.28,0,3.56,3.56,0,0,1-.78-2.79c1.25-6.45,2-13,5.17-19,.7-1.31,1.38-2.65,2.91-3.22,3.63,1.08,6.23,4.2,10,5,0,.32,0,.64,0,1C47,77.76,46.9,84.93,44.35,91.24A1.8,1.8,0,0,1,42.17,91.09Z"/><path class="cls-250" d="M41.19,66.07a69.46,69.46,0,0,0-7,25c-1.8,1.68-3.78,1.49-5.82.52-1.43-1.36-.9-3-.76-4.65.56-6.69,2.83-12.91,5.34-19,.88-2.13,1.73-5,5.24-3.8Z"/><path class="cls-251" d="M30.19,60.05c1.1,0,2.28-.16,3,1-.14,2.73-1.63,5-2.56,7.46-2,5.43-4,10.86-4.32,16.74a9.41,9.41,0,0,1-2.11,6,2.77,2.77,0,0,1-3.13,0c-1.63-3.35-.67-6.64,0-10a90.78,90.78,0,0,1,5.76-17.2C27.51,62.5,28.21,60.66,30.19,60.05Z"/><path class="cls-252" d="M24.19,91c1.13-10.55,2.77-20.94,9-30l1,1c1.65,2.12-.21,3.67-.88,5.41A104.37,104.37,0,0,0,27.7,86.17c-.32,1.74-.36,3.66-2,4.89l-.76.27Z"/><path class="cls-251" d="M25.19,91a243,243,0,0,1,9-29l4,2C32.5,66.14,33.07,72,31.37,76.21c-1.86,4.61-2.19,9.84-3.19,14.8A2,2,0,0,1,25.19,91Z"/><path class="cls-253" d="M30.19,60.05c-4.9,9.78-9.45,19.66-9,31a.93.93,0,0,1-1.4-.45c.07-2.85-.57-5.74.4-8.55,1.6-8.21,3-16.49,9-23Z"/><path class="cls-254" d="M44.18,91.05a42.27,42.27,0,0,1,3.37-15.34c.61-1.53,1.42-3.45,3.64-3.66l3,1c1.34,1.76,4.09,1.71,5.09,3.92-4.06,3.83-3.89,9.19-5.06,14.06A8.64,8.64,0,0,1,44.18,91.05Z"/><path class="cls-251" d="M20.19,82.05v9a.62.62,0,0,1-1,0l0,0C19.65,88.07,18.18,84.86,20.19,82.05Z"/><path class="cls-255" d="M72.23,59l-2.07-5.95,0-1h1c1.4,2.83,2.71,5.72,5,8,0,.33,0,.66,0,1l-1,1Z"/><path class="cls-256" d="M72.19,124.05c-.33,1-.67,2-1,3,.24,2.62-1.81,4.09-3,6h-1c-2.29-1.8-2-7.86-7.84-3.77.37-3.06.64-5.29-2.52-6.31a4.36,4.36,0,0,1-2.63-4.9c1.11-3.84,4.92-4,7.65-5.59a2.69,2.69,0,0,1,1.36.34c1,3.44,3.42,5.78,6.16,7.92C70.49,121.6,72.69,121.73,72.19,124.05Z"/><path class="cls-257" d="M62.19,113l-8,5c-.33,0-.66,0-1,0l-1.05-1h0c1.39-3.49,4.52-4.56,7.72-5.52a4,4,0,0,1,1.42,0C62,111.76,62.51,112.15,62.19,113Z"/><path class="cls-258" d="M63.33,149.13,66.17,146c5.62,3.34,11.4,5.92,18.19,6.11,4.07.11,5.36-1.36,4.83-5.1a.59.59,0,0,1,1,0c.1,11.57-.06,12.09-11,9.8C73.5,155.62,67.08,154.8,63.33,149.13Z"/><path class="cls-259" d="M73.05,131.77c1.45-3,2.79-6.15,5.16-8.64,1.31,1.82,0,3.48-.32,5.2-.25,1.25-.15,2.85,1.22,2.71,2.7-.29,4.93-2.23,7.79-2.56,1.36-.16.94-2.24,1.07-3.52s0-2.75,1.15-3.69,1.41-.15,1.56.84c-.27,3,.5,6-.47,9-1.47,1.44,1.11,3.67-1,5-5.55.74-11.14,2.05-16.45-1.08A5.34,5.34,0,0,1,73.05,131.77Z"/><path class="cls-260" d="M73.18,135c5.32.81,10.76-.28,16,1a6.25,6.25,0,0,0,.89,4,3.44,3.44,0,0,1-1.55,1.75c-4.29.59-8.45-.71-12.65-1.14C72.5,140.28,71.37,137.28,73.18,135Z"/><path class="cls-166" d="M90.21,131.07l-.09-10c-1.15-1.73-4.33-2.66-2.21-5.66,2.79-.37,4.62.18,3.42,3.6l-.24,12Z"/><path class="cls-166" d="M89.18,141l.94-1,0,7c-.32,0-.64,0-1,0l0,0A4.43,4.43,0,0,1,89.18,141Z"/><path class="cls-261" d="M89.18,141c0,2,0,4,0,6-4.74-1-9.5-2.73-14.23-2.66-4.53.07-5.34-2.08-5.82-5.45.63-2.76,2.41-4.88,3.93-7.15,0,1.09.09,2.18.13,3.27a3.15,3.15,0,0,0,3,4.61C80.74,139,84.81,141.17,89.18,141Z"/><path class="cls-262" d="M60.19,160c-.22-.61-.77-1.33-.6-1.81.36-1.07.94-.14,1.44.08,3,1.29,6.17,2.34,9,3.89,6.3,3.4,13.63,2.27,20.1,4.85-5.15,2.69-10.29.36-15.28-.44a23.87,23.87,0,0,1-10.73-4.55c-1.27-.78-2.86-.94-4-2Z"/><path class="cls-263" d="M90.2,171l-1.07,1-9,.08L78.18,172c-.65-1.17-1.87-.89-2.89-1.11,2.13-1.82,4.71-.39,7-1Z"/><path class="cls-168" d="M60.19,160a5.35,5.35,0,0,1,4,2C62.46,162.13,60.94,161.85,60.19,160Z"/><path class="cls-264" d="M91.33,119c-.13-2.71-1.68-3.5-4.13-3.08-3.76.11-5.54,3.45-8.34,5.11-2,0-1.33-2.36-2.65-3,1.66-4,.42-7.37-1.94-10.59a7.24,7.24,0,0,0-.37-3.91c.41-1,1.33-1.1,2.24-1.21,3.62.78,5.07,4.66,8.4,5.85,3.12,1.11,6.47.95,9.68,1.77,1.76.46,4-2.31,6.58-1.85,1.52-.3,2.74-1.62,4.44-1.33A2.25,2.25,0,0,1,106.5,109c-2.35,2.23.52,4.7-.31,7l-2,1a4.09,4.09,0,0,1-1.1-.74c-2.63-2.06-5.52-.32-8.27-.55-2.16.06-1.25,2.49-2.49,3.25l-.22.12A6.21,6.21,0,0,0,91.33,119Z"/><path class="cls-265" d="M78.86,121c2.37-2.36,2.49-8.41,8.34-5.11,1.25,1.56,3,2.83,2.92,5.14-1.2,1-1,2.4-.91,3.68.3,3.71.41,7-5.07,5.4-1.09-.32-2,.42-2.55,1.75-1,2.47-2.67.77-4.06.31-1.85-.62-2-1.78-1.23-3.48s1.29-3.71,1.91-5.57Z"/><path class="cls-266" d="M75.17,107.07c.11.48.07,1.24.35,1.4,5.16,2.86,3.4,6.18.69,9.57l-4,6a48.62,48.62,0,0,1-8.31-6.72c-1.29-1.42-1.83-2.63-.69-4.28C65.43,109,71,106.19,75.17,107.07Z"/><path class="cls-267" d="M68.18,133c-.53-2.77,2-4,3-6C72.79,130.36,71.33,132.12,68.18,133Z"/><path class="cls-179" d="M19.19,91.08l1,0h4v0c.71,1.33-.22,2.11-1,2.94h-4C19.2,93.05,19.19,92.06,19.19,91.08Z"/><path class="cls-268" d="M23.21,94l1-2.94,1,0,3,0,6,0,2,0c0,1.08.22,2.25-1,2.92a7.75,7.75,0,0,0-8,0l-3,.06Z"/><path class="cls-226" d="M37.19,96.05h11A6.23,6.23,0,0,1,50.12,100c.55,3.9-.44,8.21,3.44,11.16.55.41,0,1.9.07,2.89,0,1.61-1.47,1.51-2.43,2-3.3.69-6,2.76-9,4.07C40.3,112.11,38.17,104.2,37.19,96.05Z"/><path class="cls-269" d="M51.2,116l2-1.94c.87-2.76,3.15-3.21,5.59-3.42A1.8,1.8,0,0,1,60.18,112l-8,5Z"/><path class="cls-270" d="M111.22,129.93c1.52,1.4,2.16,3.3,3,5.13,1.06,3.91-2.48,4.52-4.52,5.2a60.09,60.09,0,0,1-12.92,3.31c-1.3-.36-.75-1.85-1.53-2.53,0-1.65,0-3.3-.07-4.95-.86-3.58-.36-7.19-.3-10.78,3.63,0,2.26,3,2.76,4.8-.47,3.68,1,5,4.75,4.31C105.81,133.78,108.86,132.62,111.22,129.93Z"/><path class="cls-271" d="M95.2,141a2.13,2.13,0,0,1,1,2,5.15,5.15,0,0,1,1.29,3.51c-.27,3.35,1.41,5,4.45,3.7,5.56-2.37,12.64-1.81,16.22-8.13a7.42,7.42,0,0,1,2,4c1.35,2.83-.8,4-2.66,4.83a77.8,77.8,0,0,1-13.93,4.9,8.32,8.32,0,0,1-7.4-1.81c-.31,0-.63,0-.94,0Q95.22,147.52,95.2,141Z"/><path class="cls-272" d="M126.15,162c-7,2.08-13.7,5-21,6H96c2.46-2.65,5.56-2.57,8.28-2.82a48.85,48.85,0,0,0,19.4-5.43C126.71,158.15,126.66,159.8,126.15,162Z"/><path class="cls-271" d="M95.24,125c0,3.69-.07,7.37-.11,11.06l-.78-.11L94,119a2.52,2.52,0,0,1-.19-2.89,2.25,2.25,0,0,1,2.14-.44c.9.79.62,1.83.57,2.82s-.08,2-.1,3C96.36,122.78,96.28,124.07,95.24,125Z"/><path class="cls-273" d="M94.42,116.32c-.13.89-.26,1.79-.4,2.69l-1.74,0c0-1.5-.45-3.18.08-4.45.93-2.18,1.55-.66,2,.51a1,1,0,0,1,.29.83C94.56,116.17,94.5,116.32,94.42,116.32Z"/><path class="cls-274" d="M96.16,154.05c7.78,2.28,14.22-2.27,21.16-4.24a3.82,3.82,0,0,0,2.83-3.68,3.1,3.1,0,0,1,2,3c-.66,5.49-5.76,5.57-9.25,6.58-3.69,1.08-7.63,1.91-11.45,2.72C96.85,159.39,95.7,158.23,96.16,154.05Z"/><path class="cls-235" d="M95.35,118.09l.85-2c2.67-1,5.42-3.53,7.83.41a.4.4,0,0,0,.11.54c1.37,2.6,2.75,5.19,4.13,7.79s.09,4.5-2.35,5.44c-3.12,1.21-6.28,3.21-9.74.78-.33-2,.77-4.23-.94-6l.06-4c1.27-1.39,3.26-1.1,5.09-2.08C98.48,118.65,96.69,119.56,95.35,118.09Z"/><path class="cls-235" d="M110.18,107.14c1.85.17,3.79.1,5,1.94,1.67,2,3.33,4,5,6,1.54,2.75-1.09,3.71-2.3,5.23s-3.15,2.34-4.62,3.65l-.26.39c-2.65-2.25-2.94-6.14-5.76-8.28-2-2.13-2-4.29-.1-6.48C107.91,108.45,108.14,106.64,110.18,107.14Z"/><path class="cls-166" d="M118.14,142.12c.46,3-.16,5-3.76,5.4-4.6.45-8.27,3.71-12.93,4.39-4.28.63-5.86-.7-5.26-4.87a6.58,6.58,0,0,1,4.34-2c5.88-.42,11-2.8,15.73-6.12A4.62,4.62,0,0,1,118.14,142.12Z"/><path class="cls-275" d="M116.26,138.87c-2,5.55-7.62,5.16-11.78,7-2.47,1.07-5.51.83-8.29,1.19,0-1.34,0-2.67,0-4,5-2.7,11.14-2.19,16-5.47,1-.66,2-1.14,2-2.51C115.43,136,115.83,137.45,116.26,138.87Z"/><path class="cls-276" d="M96.18,131c3.42.43,6.41-1.11,9.56-2,2.29-.64,2.44-2.37,2.53-4.23,1.68,1.3,2,3.37,3,5.11-1.06,3.73-11.28,7.92-14.12,5.73C95.54,134.46,96.4,132.6,96.18,131Z"/><path class="cls-277" d="M107.92,110c-1.66,1.83-1.68,3.86-.69,6h-1c.06-2.33-5.82-4.64,0-7A2,2,0,0,1,107.92,110Z"/><path class="cls-278" d="M116.25,131.88l1.63,1.29,1.24,3.85A5.93,5.93,0,0,1,116.25,131.88Z"/><path class="cls-279" d="M156.22,95l2.93.16c0,.28,0,.57,0,.85l-2,.12h-2a3.75,3.75,0,0,1-5,0l-2-.15a.91.91,0,0,1,0-1.22,4.81,4.81,0,0,1,2.65-.79,13.22,13.22,0,0,1,1.4-.06,11.07,11.07,0,0,1,1.41,0A3.68,3.68,0,0,1,156.22,95Z"/><path class="cls-280" d="M164.18,116.06c-.19,4.08-2.34,7.44-4,11-1.14.31-3.43,1.78-2.15-1.18a112.78,112.78,0,0,0,6.55-20.29C166.25,109.5,163.78,112.7,164.18,116.06Z"/><path class="cls-281" d="M140.15,96.15c-1,4.68-2,9.34-3,14-.36,1.73-1.21,3.76-3,3.29-2.23-.61.08-2.47-.18-3.76a6.8,6.8,0,0,0-.86-1.67c-2.12-4.57.06-8.45,2-12.38C136.92,94.71,138.63,94.55,140.15,96.15Z"/><path class="cls-276" d="M135.16,96.16q-1,5.94-2,11.87c-1.21,1.17-1.38,3.7-4,3-2.28-3.19.71-6.85-.9-10.11-.19-2.12.22-4,2-5.4C132,94.75,133.72,94.58,135.16,96.16Z"/><path class="cls-282" d="M135.16,96.16l-5,0c-1.64,1.32-3.59,1.23-5.52,1.23a21.53,21.53,0,0,0-8.54,1,1.48,1.48,0,0,1-1.39-.78,2.74,2.74,0,0,1,.27-2.53c2.86-2.37,6.27-1.22,9.44-1.4s6.2,0,9.3,0c3.49,0,7,0,10.48,0a11.14,11.14,0,0,1,1.74.15,3.26,3.26,0,0,1,2.2,1.3c0,.27,0,.54.06.81l-3,.16-5,0Z"/><path class="cls-276" d="M122.25,108.83,119,106.12a2.46,2.46,0,0,1,1-.77c2.18-.38,1.89-3.47,4.14-3.76,3.63,1.26.8,5.39,3.2,7.2a1.12,1.12,0,0,1-.22,1.21l-1.25.21C124.24,110.92,123.28,109.79,122.25,108.83Z"/><path class="cls-281" d="M127.15,110c0-.32,0-.64,0-1-1.74-3.27.18-5.62,2-8,2.71,3.33-.67,6.66,0,10Z"/><path class="cls-109" d="M122.25,108.83l3.65,1.38,1.35,1.78C125.1,111.71,123.12,111.15,122.25,108.83Z"/><path class="cls-283" d="M150.16,96.1l5,0a54.4,54.4,0,0,1-6,23.84c-2.09,4.2-3.9-1.1-6-.91,4.13-.38,2.93-4.44,3.7-6.49C148.82,107.37,150.4,101.85,150.16,96.1Z"/><path class="cls-284" d="M113.25,123.92c-.09-2.79,2.83-2.88,4.07-4.49,1.08-1.39,2.86-2.3,2.85-4.39,2.18-1.59,3.19-.31,2.08,1.44C120.13,119.82,118.11,123.71,113.25,123.92Z"/><path class="cls-285" d="M115.13,96l0,1.92a12.05,12.05,0,0,1,0,7.11l-2.28-.7c-1-.29-2-1.6-3.06-.72-1.33,1.13.15,2.32.39,3.49L107.92,110a1.8,1.8,0,0,1-1.74-1c-.34-.67-.67-1.35-1-2a1.26,1.26,0,0,1-.35-1.16c.89-1.66,1.17-3.6,2.33-5.14A14.16,14.16,0,0,0,109.6,98a7.79,7.79,0,0,1,.84-1C111.91,96.26,112.88,93.14,115.13,96Z"/><path class="cls-286" d="M115.13,105.07c-1.46-2.36-1.13-4.73,0-7.11a3,3,0,0,0,1-.11c1.32,1.24.12,4.24,3.59,4.27,1.79,0,1.74,2.35.52,3.89l-1.2.11C117.69,105.87,116.15,106.41,115.13,105.07Z"/><path class="cls-287" d="M156.17,60.21q2,4.42,4,8.84c.58,1.06,1.08,2.23-.35,2.9-.92.43-1.42-.48-2-1.15,2.91,4.46,3.53,9.57,4.31,14.63.31,2,.59,4-.94,5.65l-.46.06h-.46a2.35,2.35,0,0,1-2.18.22c-2.29-2-1.69-4.82-1.92-7.4-.67-7.41-1.41-14.8-6.19-21C151.91,61.76,153.45,59.65,156.17,60.21Z"/><path class="cls-288" d="M161.17,91.08c.08-7.24-1.85-14.1-4.63-21.16,1.9.3,4,3,3.63-.87h1a86.94,86.94,0,0,1,5,22Z"/><path class="cls-289" d="M158.14,91l2.1.13-1.07.94a5,5,0,0,1-1.63.84c-7.66,1.09-15.37.28-23,.54-1.85,0-3.69,0-5.54,0-2.92,0-5.84.11-8.74-.08-1.69-.11-3.72.13-4.21-2.29,3.62-2.64,7.74-1.21,11.66-1.46,1.77,0,3.54-.11,5.31,0,1.72,0,3.44-.08,5.15,0,2-.08,3.95,0,5.92,0,1.68-.07,3.36,0,5,0s3.38-.06,5.07,0A5.68,5.68,0,0,1,158.14,91Z"/><path class="cls-290" d="M158.17,92.08h1c.19,2.15-2.24,1.67-2.95,2.92l-3,0c-1.06-1.87.06-2.29,1.62-2.44C155.94,92.46,157.15,92.89,158.17,92.08Z"/><path class="cls-291" d="M114.22,52.17c1.91-6.65,1.1-8.24-6-9.89-4.25-1-8.48-2.44-13-2.18,0-1.35,0-2.69,0-4,.41-.73.91-1.55,1.78-1.57a40.46,40.46,0,0,1,20.58,4.72c3,1.61,1.52,3.9.67,6C117.17,47.7,116.45,50.38,114.22,52.17Z"/><path class="cls-292" d="M118.27,45.25c1-3.57-.62-5.08-4-6.24-6.22-2.18-12.43-3.86-19.08-2.95,0-1.66,0-3.33,0-5a1.32,1.32,0,0,1,1.29.08c1.91,2.37,4.74.06,6.87,1.34.1-.65-.58-1.48.43-1.95,6.92-1,12.59,2.41,18.45,5.19.92,1.44.45,2.56-.79,3.52C121,41.54,120.24,43.73,118.27,45.25Z"/><path class="cls-293" d="M96.16,31.05h-1l.06-4a33.36,33.36,0,0,1,11.66.36c2.21.37,4.44,1.43,6.68.05,3.4-.62,6.16,1.17,8.91,2.61,2.46,1.28,3.1,3.38,1.25,5.8a1.15,1.15,0,0,1-1.43.23c-4.26-.5-7.95-2.74-12-3.9-2.35-.67-4.66-1.42-7.15-1.13l-.64.08c-1.91.06-3.83.09-5.74,0Z"/><path class="cls-294" d="M123.15,36c1.57-3.22.24-5.06-2.94-5.77-2.41-.53-4.38-2.5-7-2.14-1.58,1.34-3.16.28-4.73,0a10.62,10.62,0,0,0-4.56-1.12,9.89,9.89,0,0,1-1.31-.29,17.68,17.68,0,0,0-4.7-.44,4.2,4.2,0,0,1-2.59-1l.9-2.09c5.31-2.5,10.44.21,15.66.52,2.55.15,4.58,2.63,7.34,1.47,3.07,1.16,8.37-.27,7,6C126.11,33.3,126.41,35.76,123.15,36Z"/><path class="cls-295" d="M119.17,25.07c-.18,1-.43,2.07-1.85,1.42-6.74-3.1-14-2.57-21.15-3.41a2,2,0,0,1-1-2,17.27,17.27,0,0,1,9-.07C109.52,21.12,114.23,23.52,119.17,25.07Z"/><path class="cls-296" d="M95.27,25.17l2.9-.09c1.5,1.19,3.5-.18,5,1h0c1.49,1.23,3.5-.17,5,1a8.44,8.44,0,0,0,5,1c.15.71.68,2.18-.44,1.8C107,28,100.93,28.8,95.24,27.05Z"/><path class="cls-213" d="M123.15,36c2.28-.84,2-3.3,3.06-4.89l2-1c-1.45,3.64-2,8-6.72,9.18l.87-3.14A2.37,2.37,0,0,0,123.15,36Z"/><path class="cls-294" d="M104.19,21l-9,.07A8.84,8.84,0,0,1,104.19,21Z"/><path class="cls-297" d="M149.14,91l-5,0c-2.83-2.44-3.09-6.06-4-9.29-1.2-4.36-2.74-8-7.89-8.62a13,13,0,0,1,5.62-3.16,14.59,14.59,0,0,0,3.1-1.51c2.37-1.44,4.19-.89,5.2,1.54C149,76.69,150.74,83.61,149.14,91Z"/><path class="cls-298" d="M149.14,91c-1.68-5.06-.6-10.48-2.27-15.59-2.31-7-2.12-7.11-9-5.46a27.31,27.31,0,0,1,9.08-5c2.16-.35,3,1.33,3.61,2.75,2.7,6.61,4.76,13.4,4.7,20.66A3.92,3.92,0,0,1,154.15,91Z"/><path class="cls-299" d="M154.15,91c-.34-9.26-1.27-18.35-7.16-26.08a4.06,4.06,0,0,1,3-2c6.1,1.51,4.56,7.29,6.1,11.24,2.08,5.34.88,11.25,2.08,16.81Z"/><path class="cls-229" d="M128.16,90.92l-12,.26-.54.16-.25-.51c-.22-2.61-1.82-5-1.17-7.75.71-1,1.87-.83,2.86-1.1a2.86,2.86,0,0,1,2.84-.27c1.47,1,.71.16,1-.65.87-2.45,2.72-1.89,4.36-.78C127.64,81.94,129.15,87.62,128.16,90.92Z"/><path class="cls-300" d="M132.29,73.09c4.73-1.67,6.82.93,8,5,1.27,4.32,2.56,8.63,3.84,12.94l-6,0c-2.35-5.67-3.46-11.86-7.12-17Z"/><path class="cls-301" d="M131,74c5.88,4.2,6.62,10.55,7.12,17h-5c-1.55-1.39-1.86-3.35-2.41-5.21a19.22,19.22,0,0,0-4.83-8.82A9.32,9.32,0,0,1,131,74Z"/><path class="cls-302" d="M125.92,76.94c2.36-.14,3.5,1.15,4.2,3.27,1.18,3.55,2.87,6.93,3,10.76l-5,0c.65-3.22-2-5.46-2.49-8.42a2.65,2.65,0,0,0-3.41-2.15c-1.87.74.31,2.33-.51,4C120.47,82.87,119,81.62,117,82A31.92,31.92,0,0,1,125.92,76.94Z"/><path class="cls-139" d="M153.19,56.09a7,7,0,0,1,4-1.05,40.61,40.61,0,0,1-15.91,9.17l-.21-.32a1.47,1.47,0,0,1,.05-1.31,28.36,28.36,0,0,1,6.73-4.47C149.74,57.8,150.87,55.34,153.19,56.09Z"/><path class="cls-303" d="M106.16,75.36c.3-4.42,4.48-7,5.18-11.28l1.23-1.9c4.42,0,10,3.89,11.46,7.75s-2.82,3.29-3.82,5.22C113.94,80.38,113,80.39,106.16,75.36Z"/><path class="cls-304" d="M153.19,56.09c-1.8.77-2.7,3.07-5,2.93A64,64,0,0,0,135,45c-3-2.41-5.88-4.53-10-3,.54-2.8,2.4-4.85,4-7l1.09,0,5,2C142.11,42.52,149.41,47.65,153.19,56.09Z"/><path class="cls-305" d="M141.16,63a6.14,6.14,0,0,0-.12.86l-6.73,3.33c-.36-.41-.55-1.08-.21-1.33,4.18-3.11,1.77-5.62-.59-8.3-3.46-3.93-7.4-7.1-12.52-8.57.49-2.33,2-4.09,3.32-5.94,1.69-1.11,3.19-.21,4.58.57,6.15,3.44,10.87,8.42,15,14.06C146.54,61.38,142,61.24,141.16,63Z"/><path class="cls-306" d="M141.16,63c3-2.5,2.13-4.28-.25-7.1-4.68-5.55-9.53-10.54-16.6-12.85l.74-1c2.47-3.22,4.92-2.65,7.69-.25,4.85,4.2,10.36,7.64,13.95,13.2.85,1.31,1.61,2.46,1.48,4C145.8,60.31,143.9,62.39,141.16,63Z"/><path class="cls-194" d="M121,49c3.59-1.58,5.83,1.16,8.31,2.77a25.75,25.75,0,0,1,3.93,3.82c5.93,6,5.93,6,1.08,11.61l0,0a1.28,1.28,0,0,1-1.32.12c-3.57-2.84-3.71-8.15-8.25-10.62-2.27-1.23-4.29-2.47-6.86-2.7C118.9,52.32,120,50.67,121,49Z"/><path class="cls-307" d="M117.86,54c2.63-2.1,4.39-.72,6.8,1,4.4,3.09,6.82,7.22,8.49,12.06-1.43,1.26-2.72,2.79-5,2.38-5-3.5-7.39-9.12-11.33-13.48Z"/><path class="cls-308" d="M116.87,55.9c5.64,2.79,7.48,8.84,11.31,13.17.35.22.46.43.34.64s-.23.32-.35.32a16.12,16.12,0,0,1-8,5.12c-.6-2.69,4.15-1.61,3.14-4.11-1.32-3.3-4.15-5.51-7.11-7.38a21.17,21.17,0,0,0-3.67-1.48Q114.73,59,116.87,55.9Z"/><path class="cls-309" d="M44.18,91.05h12a2.17,2.17,0,0,1,3,0l1,.06c0,1,0,1.95,0,2.92H38.28c.38-2.48,3.11-1.36,3.89-3Z"/><path class="cls-254" d="M59.19,91.06h-3c1.27-1.49.43-3.82,2.4-5.52C59.63,87.44,59,89.32,59.19,91.06Z"/><path class="cls-310" d="M82.17,94.05l4-4c.81-3,2.64-5.11,5.81-4.85,3,.24,6.92-1,8.14,3.55a3.49,3.49,0,0,1-.49,2.17c-1.16,1.07-2.49.45-3.75.33a12,12,0,0,0-4.88.35c-2.91.9-3.46,3.74-3.52,5.94s2.59,1.23,4,1.34c2.29.18,5,1.37,6.45-1.78a7.29,7.29,0,0,1,1.23-2.4,9.12,9.12,0,0,1,2-1.91,2.81,2.81,0,0,1,1.44,0c.92.42,1.9.79,1.81,2.09-.62,1.49-1.83,2.67-2,4.42-.22,2.72-1.89,4-4.57,4.14-2.19.14-4.38.11-6.57.12-3.59-.17-7.27.2-10.66-1.47a4.23,4.23,0,0,1-1.76-1.62C78.21,97.37,81.62,96.45,82.17,94.05Z"/><path class="cls-311" d="M95.17,81.06c1.94,1.13,4.62.77,6,3a3.19,3.19,0,0,1,2.49,2.69,3.48,3.48,0,0,0,.2.89c.81-.06.26-.68.37-1-.16-1.25-.81-2.34-1-3.55,0-.32,0-.64-.06-1a1.48,1.48,0,0,1,2.07-.07,12.41,12.41,0,0,1,4.9,6.95c-1.68,3.39-3.89,5.55-8,3.47a4,4,0,0,1-2.45-3.25c.59-3.59-3.25-3.92-4.52-6.15Z"/><path class="cls-81" d="M95.2,83c3.38.58,5.58,2.14,5,6q-.51.72-1,0c-3.33-4.45-8.8-4-13.08,1,.6-2-1.67-5.68,3.09-5.25.2,0,.64-.42.64-.65C90,75.21,93.26,82.53,95.2,83Z"/><path class="cls-312" d="M82.17,94.05c.31,2.65-2.67,3.66-3,6a20.27,20.27,0,0,1-3,3,2,2,0,0,0-2,1.09c-.17,2.45-2.14,2.34-3.81,2.67a1.85,1.85,0,0,1-1.54-1.47c.55-1.56,1.35-2.74,3.3-2.25,5.6-2.15,2.52-7.49,4.08-11.12.31,0,.61.08.91.14.26,1.54-.8,3.63.87,4.51C80.34,97.78,80.39,94.29,82.17,94.05Z"/><path class="cls-313" d="M82.16,91.15c-2.08-.29-5-.68-4.34-3.2.74-2.68,4-1.83,6.37-1.89C86.16,88.81,84,89.92,82.16,91.15Z"/><path class="cls-314" d="M115.13,96c-2.66-1.84-2.83,2.47-4.94,2-1.66-2.65-3.51-5.3,0-7.93,1.82-.63,2.84,4.49,5.09.71v0c.85,2.42,2.93,1.61,4.61,1.67,2.79.09,5.58,0,8.37,0,.79,0,1.57,0,2.36,0,1.17.7,3.34-.07,3.38,2.3C127.76,95.72,121.33,93.88,115.13,96Z"/><path class="cls-315" d="M110.23,90.12c-2.2,2.63.65,5.29,0,7.93l-.12,0a2.93,2.93,0,0,1-4.18-.11c-1-1.09-.81-2.77-1.79-3.89a2,2,0,0,1-1.94-1,.66.66,0,0,1-.22-.74c.1-.24.19-.35.27-.35,3.49,1.2,5.53-1.35,7.92-3C110.16,89.35,110.2,89.74,110.23,90.12Z"/><path class="cls-231" d="M105.23,82l-2.07.07a2.89,2.89,0,0,1-3-3C102.46,79,104.85,78.77,105.23,82Z"/><path class="cls-305" d="M128.17,70c0-.32,0-.64,0-1l5-2.07,1.14.18A7,7,0,0,1,128.17,70Z"/><path class="cls-316" d="M111.16,55.06c-4.47-3.22-9.62-4.39-15-5-.59-4.77,1.32-6,5.72-4.29a42,42,0,0,0,5.77,1.29C112.53,48.2,113.49,50.42,111.16,55.06Z"/><path class="cls-317" d="M72.19,103l-3,2a16.6,16.6,0,0,1-10,6l-6,3c-1.64-3.26-5.24-5.69-4-10.17.71-2.66-.94-5.18-1-7.84,6.18-.21,12.37-.39,18.55-.67,2.17-.1,3.1,1.57,4.44,2.7C71.52,99.73,71.85,101.38,72.19,103Z"/><path class="cls-318" d="M27.19,94c1.08-2.84,5.34-2.85,8,0Z"/><path class="cls-319" d="M103.23,87l-2-3a2.16,2.16,0,0,1,2-1c2.66.37,1.79,2.43,1.92,4A1.35,1.35,0,0,1,103.23,87Z"/><path class="cls-269" d="M70.23,106.14a6.76,6.76,0,0,0,4-2c2.66.26.47,2,.93,3-4.64.7-8.27,3.42-12,6h-1c-.35-.35-.69-.7-1-1C63.05,108.29,66.87,107.57,70.23,106.14Z"/><path class="cls-320" d="M70.23,106.14,61.15,112l-1,0-1-1a55.52,55.52,0,0,1,10-6Z"/><path class="cls-321" d="M76.19,103c-.24-2.22.8-3.16,3-3l1,1c2.11,1.41,4.61,2.12,6.62,3.72,1.13,1.07,2.19,2.16,1.68,3.93-1.32,1.33-2.8,1-4.31.41C80.45,108.46,79.25,104.51,76.19,103Z"/><path class="cls-277" d="M84.18,109.09c1.37-.19,2.95.42,4-1,2.86-2,6.15-2,9.43-2.06,1.73.37,3.1,1.19,3.56,3.05-1,1.34-4.64-1.06-4,2.74-.65.08-1.49.46-1.91.19C91.9,109.71,87.7,110.73,84.18,109.09Z"/><path class="cls-322" d="M101.17,109l-3-2a.89.89,0,0,1-.29-.76c0-.28.09-.42.15-.42a23.87,23.87,0,0,0,3-2.53c1.58-1.13,1-3,1.45-4.47.56-2.09,1.45-3.36,3.73-1.78,1,1.41,2.56.81,3.89,1a2.62,2.62,0,0,1-1.94,2.9c-4-.06-2.5,3.07-2.92,5.08,0,.32,0,.64,0,1C103.79,107.6,102.91,109.18,101.17,109Z"/><path class="cls-323" d="M104,116.49c-2.45-3.19-5.22-.31-7.83-.41l-1.78.24c0-.42,0-.84-.08-1.27a19.67,19.67,0,0,1,7.35-1C103.34,114.13,104.14,114.82,104,116.49Z"/><path class="cls-324" d="M95.35,118.09c.82,0,1.64-.06,2.46-.13,1.73-.16,4.34-2.33,4.91.45.46,2.3-2.77,2-4.49,2.55a10.22,10.22,0,0,1-2.93.05C95.31,120,95.33,119.06,95.35,118.09Z"/><path class="cls-325" d="M158.17,92.08c-1,2-4.7-.4-5,2.94h-1c-5-2-10.22-.48-15.32-1a4.82,4.82,0,0,1-2.38-.55.93.93,0,0,1-.3-1.4Z"/><path class="cls-290" d="M136.18,93.08c4.07,0,8.13,0,12.2,0,1.55,0,3.44-.46,3.78,2l-1,0a6,6,0,0,0-4.89,0h-1.1c-2.16-.93-4.43-.2-6.62-.46C137.53,94.41,136.05,95,136.18,93.08Z"/><path class="cls-209" d="M146.22,95a3.41,3.41,0,0,1,4.89,0l-3,.18Z"/><path class="cls-286" d="M129.18,101.05c.39,2.93-2.4,5.06-2,8-1.79-.14-2.79-.75-2.2-2.87.38-1.4.65-3-.8-4.13-1.53-2-.7-3.91,0-5.86h6C129.83,97.8,129.51,99.43,129.18,101.05Z"/><path class="cls-326" d="M124.2,96.18c1.64,2-.43,3.91,0,5.86-1.88.76-.21,5.08-4,4-.7-.88,1.91-3.51-2.35-2.75-4.79.85-1.22-3.48-1.76-5.41C118.13,94.1,121.5,96.78,124.2,96.18Z"/><path class="cls-209" d="M136.18,93.08c2.6,2.42,6.33-.46,8.94,1.9L134,94.89l-2.87-1.84a2.48,2.48,0,0,1,3,0Z"/><path class="cls-327" d="M105.21,106.07c-3-2-.83-4.28.16-6s2.06-.21,2.76.89C106.52,102.32,107.76,105.28,105.21,106.07Z"/><path class="cls-232" d="M129.18,93c-3.45,0-6.9,0-10.34,0-1.55,0-3.52.48-3.52-2.15a1.2,1.2,0,0,1,.79.31c4.24,1.87,8.73.25,13,.91.34.21.45.42.34.63S129.29,93,129.18,93Z"/><path class="cls-290" d="M129.18,93c0-.32,0-.63,0-1h5c0,.32,0,.64,0,1h-5Z"/><path class="cls-328" d="M103.18,31.07c.65,1.42,2.47.51,3.59,2-3.2.83-6.34-.37-9.35.62-1.25.42-1.13-1.58-1.26-2.65h0a11.07,11.07,0,0,1,7,0Z"/><path class="cls-292" d="M103.17,31.07l-7,0A5.79,5.79,0,0,1,103.17,31.07Z"/><path class="cls-293" d="M108.19,27.05c-1.7-.21-3.6.67-5-1C104.87,26.29,106.77,25.42,108.19,27.05Z"/><path class="cls-293" d="M103.18,26.06c-1.69-.21-3.6.64-5-1C99.87,25.28,101.77,24.4,103.18,26.06Z"/><path class="cls-329" d="M99.17,97.05c.11,1.66-.2,2.93-2.28,3.06-1.31.08-2.59.64-3.9,0C90.43,99,85.26,102.33,85.28,98c0-6.38,5.14-9.29,11.12-8a20.21,20.21,0,0,1,2.78,1,2.29,2.29,0,0,1,1.95,2.07,1.82,1.82,0,0,1-1,1.92c-4.57-.55-4.57-.55-7,2.22C95.21,98.89,97.14,96.44,99.17,97.05Z"/><path class="cls-330" d="M98.18,106c0,.34,0,.69,0,1-3.38-.11-6.57,1.61-10,1l-2-3c-.92-1.83.06-2.33,1.66-2.47,1.12-.1,2.31.32,3.32-.51h7a1.51,1.51,0,0,1,.57,1C98.46,104.05,98.62,105.09,98.18,106Z"/><path class="cls-331" d="M99.17,97.05a2.32,2.32,0,0,0-.4.3c-2.2,2.74-5.29,2.2-7.69,1.13-1.57-.7.42-2.24,1.26-3,2.42-2.26,5-3.87,7.83-.43A2.18,2.18,0,0,0,99.17,97.05Z"/><path class="cls-332" d="M98.2,103c0-.3,0-.61,0-.92,1.92.06,3.34-.58,3-2.79-.41-2.61,1.43-3.77,3-5.19,2.13,0,2.1,1.5,2.08,3-2.9-.62-2.52,1.79-2.91,3.3s.32,3.46-2.13,3.71C99.66,105.07,98.84,104.27,98.2,103Z"/><path class="cls-277" d="M91.12,102.06c-1.08,2-4.68-.29-5,3a10,10,0,0,1-6-4A39,39,0,0,0,91.12,102.06Z"/><path class="cls-332" d="M101.13,93.11,99.18,91c0-.67,0-1.35,0-2q.48,0,1,0c.67,1,1.35,2,2,2.95,0,.36,0,.72,0,1.09Z"/><path class="cls-333" d="M103.23,87h1.9c1.34,1,.77,1.9-.33,2.57a1.53,1.53,0,0,1-2.15-.19C101.93,88.48,102.35,87.67,103.23,87Z"/><path class="cls-334" d="M98.2,103l2.94,1.1c-.09,2-1.52,2-3,1.92A2.6,2.6,0,0,1,98.2,103Z"/></g></g></svg>