<svg xmlns="http://www.w3.org/2000/svg" viewBox="0 0 187.16 187.28"><defs><style>.cls-1{fill:#fefefe;}.cls-2{fill:#fdfdfd;}.cls-3{fill:#5c4425;}.cls-4{fill:#644c2c;}.cls-5{fill:#654b28;}.cls-6{fill:#5a4225;}.cls-7{fill:#564025;}.cls-8{fill:#734d18;}.cls-9{fill:#755431;}.cls-10{fill:#957344;}.cls-11{fill:#9d7a49;}.cls-12{fill:#997645;}.cls-13{fill:#775a32;}.cls-14{fill:#bb9f6e;}.cls-15{fill:#d2bf99;}.cls-16{fill:#86683b;}.cls-17{fill:#b49462;}.cls-18{fill:#e7dbbf;}.cls-19{fill:#483c1c;}.cls-20{fill:#d2caa6;}.cls-21{fill:#ccb48b;}.cls-22{fill:#e3dcb9;}.cls-23{fill:#dfd5bb;}.cls-24{fill:#6e542f;}.cls-25{fill:#ebe2c7;}.cls-26{fill:#ece2c4;}.cls-27{fill:#e9dec3;}.cls-28{fill:#ebe3c3;}.cls-29{fill:#e5d7bc;}.cls-30{fill:#dfceac;}.cls-31{fill:#6e552e;}.cls-32{fill:#705122;}.cls-33{fill:#987544;}.cls-34{fill:#705230;}.cls-35{fill:#8c683c;}.cls-36{fill:#967444;}.cls-37{fill:#d4be96;}.cls-38{fill:#9e7b48;}.cls-39{fill:#8c6c40;}.cls-40{fill:#84723a;}.cls-41{fill:#675234;}.cls-42{fill:#84643b;}.cls-43{fill:#9e7a48;}.cls-44{fill:#d1b98f;}.cls-45{fill:#7c5c36;}.cls-46{fill:#e2d3b1;}.cls-47{fill:#3e3226;}.cls-48{fill:#ab8a5a;}.cls-49{fill:#513e26;}.cls-50{fill:#9a7644;}.cls-51{fill:#7c5b36;}.cls-52{fill:#89653c;}.cls-53{fill:#7a5a33;}.cls-54{fill:#96794b;}.cls-55{fill:#85643c;}.cls-56{fill:#372f28;}.cls-57{fill:#856239;}.cls-58{fill:#6c4f2e;}.cls-59{fill:#6a5b29;}.cls-60{fill:#d5cba5;}.cls-61{fill:#705839;}.cls-62{fill:#332d28;}.cls-63{fill:#b1a16e;}.cls-64{fill:#e1dbbe;}.cls-65{fill:#6f5f38;}.cls-66{fill:#3e3c36;}.cls-67{fill:#886a3b;}.cls-68{fill:#362f29;}.cls-69{fill:#c4a879;}.cls-70{fill:#a88450;}.cls-71{fill:#dbd0a5;}.cls-72{fill:#7d5c37;}.cls-73{fill:#ccb48c;}.cls-74{fill:#443723;}.cls-75{fill:#4e3f2a;}.cls-76{fill:#57442b;}.cls-77{fill:#4a3b28;}.cls-78{fill:#725635;}.cls-79{fill:#9d7b49;}.cls-80{fill:#7d6533;}.cls-81{fill:#5f502c;}.cls-82{fill:#997748;}.cls-83{fill:#eae1c5;}.cls-84{fill:#e2d5b4;}.cls-85{fill:#cdb388;}.cls-86{fill:#cebd83;}.cls-87{fill:#9f7e4d;}.cls-88{fill:#d5be95;}.cls-89{fill:#685334;}.cls-90{fill:#8a673d;}.cls-91{fill:#9f8254;}.cls-92{fill:#957545;}.cls-93{fill:#b59662;}.cls-94{fill:#5d502b;}.cls-95{fill:#d0c5a0;}.cls-96{fill:#b69b6d;}.cls-97{fill:#dfd1b2;}.cls-98{fill:#37312a;}.cls-99{fill:#6a5231;}.cls-100{fill:#dbceab;}.cls-101{fill:#d8c09a;}.cls-102{fill:#846038;}.cls-103{fill:#d3caa8;}.cls-104{fill:#c9af83;}.cls-105{fill:#36312b;}.cls-106{fill:#88663c;}.cls-107{fill:#433625;}.cls-108{fill:#c9c19b;}.cls-109{fill:#6a5b28;}.cls-110{fill:#37332c;}.cls-111{fill:#b89a67;}.cls-112{fill:#bf9d69;}.cls-113{fill:#e9ddc2;}.cls-114{fill:#cfc29d;}.cls-115{fill:#cac095;}.cls-116{fill:#504221;}.cls-117{fill:#8f6b3e;}.cls-118{fill:#373029;}.cls-119{fill:#605225;}.cls-120{fill:#d8d1af;}.cls-121{fill:#d5cdab;}.cls-122{fill:#957242;}.cls-123{fill:#634e31;}.cls-124{fill:#615323;}.cls-125{fill:#352a16;}.cls-126{fill:#4d3f20;}.cls-127{fill:#3c3933;}.cls-128{fill:#a3925f;}.cls-129{fill:#5b584e;}.cls-130{fill:#4b4942;}.cls-131{fill:#535049;}.cls-132{fill:#44423c;}.cls-133{fill:#574725;}.cls-134{fill:#6c5435;}.cls-135{fill:#3b3832;}.cls-136{fill:#292524;}.cls-137{fill:#47453e;}.cls-138{fill:#423f39;}.cls-139{fill:#675136;}.cls-140{fill:#524f47;}.cls-141{fill:#413f39;}.cls-142{fill:#594c38;}.cls-143{fill:#54514a;}.cls-144{fill:#5a574f;}.cls-145{fill:#4f4c45;}.cls-146{fill:#45423d;}.cls-147{fill:#5e5c53;}.cls-148{fill:#9d7946;}.cls-149{fill:#41382d;}.cls-150{fill:#624e35;}.cls-151{fill:#7d5c35;}.cls-152{fill:#856c46;}.cls-153{fill:#9e7c49;}.cls-154{fill:#7e5d36;}.cls-155{fill:#695236;}.cls-156{fill:#3d352d;}.cls-157{fill:#3a342c;}.cls-158{fill:#594728;}.cls-159{fill:#816238;}.cls-160{fill:#aa8a5a;}.cls-161{fill:#dccaa7;}.cls-162{fill:#926e40;}.cls-163{fill:#5c5951;}.cls-164{fill:#4f4d46;}.cls-165{fill:#4a4842;}.cls-166{fill:#54524a;}.cls-167{fill:#42403a;}.cls-168{fill:#484642;}.cls-169{fill:#463725;}.cls-170{fill:#8b7b41;}.cls-171{fill:#6c5436;}.cls-172{fill:#3a2f17;}.cls-173{fill:#3f3c37;}.cls-174{fill:#4f3f2b;}.cls-175{fill:#755d39;}.cls-176{fill:#493a26;}.cls-177{fill:#574d3e;}.cls-178{fill:#856a43;}.cls-179{fill:#3d2f1e;}.cls-180{fill:#473c1b;}.cls-181{fill:#836842;}.cls-182{fill:#56534c;}.cls-183{fill:#3f3d37;}.cls-184{fill:#494741;}.cls-185{fill:#4e3f2d;}.cls-186{fill:#43413c;}.cls-187{fill:#7e5c36;}.cls-188{fill:#3c3a35;}.cls-189{fill:#504128;}.cls-190{fill:#352f29;}.cls-191{fill:#463826;}.cls-192{fill:#5a574d;}.cls-193{fill:#4d4b43;}.cls-194{fill:#535148;}.cls-195{fill:#58564e;}.cls-196{fill:#4c4a43;}.cls-197{fill:#5d5b52;}.cls-198{fill:#786445;}.cls-199{fill:#5b594f;}.cls-200{fill:#917444;}.cls-201{fill:#3e3121;}.cls-202{fill:#775833;}.cls-203{fill:#4e3b24;}.cls-204{fill:#494842;}.cls-205{fill:#3d3b36;}.cls-206{fill:#b69961;}.cls-207{fill:#89653b;}.cls-208{fill:#bb9c5b;}.cls-209{fill:#4a3c29;}.cls-210{fill:#775733;}.cls-211{fill:#906d40;}.cls-212{fill:#372a18;}.cls-213{fill:#8b673c;}.cls-214{fill:#b7995e;}.cls-215{fill:#674c2d;}.cls-216{fill:#5b462c;}.cls-217{fill:#54432b;}.cls-218{fill:#78613f;}.cls-219{fill:#4b4943;}.cls-220{fill:#53514a;}.cls-221{fill:#484743;}.cls-222{fill:#605a4e;}.cls-223{fill:#4a4840;}.cls-224{fill:#7f6641;}.cls-225{fill:#44413c;}.cls-226{fill:#484740;}.cls-227{fill:#5b584f;}.cls-228{fill:#56534b;}.cls-229{fill:#5a574e;}.cls-230{fill:#795934;}.cls-231{fill:#6e573b;}.cls-232{fill:#785a37;}.cls-233{fill:#3f3c36;}.cls-234{fill:#55534b;}.cls-235{fill:#525048;}.cls-236{fill:#4d4a43;}.cls-237{fill:#47463f;}.cls-238{fill:#846b44;}.cls-239{fill:#5e4b33;}.cls-240{fill:#9e7a47;}.cls-241{fill:#e7ddbb;}.cls-242{fill:#6c502f;}.cls-243{fill:#473620;}.cls-244{fill:#c6af77;}.cls-245{fill:#5c594f;}.cls-246{fill:#a27f4b;}.cls-247{fill:#7d633f;}.cls-248{fill:#2c2012;}.cls-249{fill:#8e7245;}.cls-250{fill:#55524a;}.cls-251{fill:#4f4d45;}.cls-252{fill:#463827;}.cls-253{fill:#4e3f2b;}.cls-254{fill:#645138;}.cls-255{fill:#58564d;}.cls-256{fill:#9f8552;}.cls-257{fill:#8c7c63;}.cls-258{fill:#a68b60;}.cls-259{fill:#5d5a50;}.cls-260{fill:#876c45;}</style></defs><g id="Layer_2" data-name="Layer 2"><g id="Layer_1_Image" data-name="Layer 1 Image"><path class="cls-1" d="M187.16,117.21c-4.77,2.62-3,8-4.84,11.85-6.1,12.71-13,24.64-24.66,33.2a25.62,25.62,0,0,0-3.8,3.78c-1.9,2.16-4,2.89-6.53,1.16a1.22,1.22,0,0,1,.29-1.71c4.28-3.73,8.32-7.74,13.06-10.92,1.9-.7,4.17-1,4.12-3.83a3.77,3.77,0,0,1,1.92-3.25c1.76-.65,2.94-1.69,2.58-3.8,2.55-5.77,6.26-10.9,9.08-16.52,1.52-1,2.43-2.33,1.78-4.29.24-5,2.32-9.41,3.94-14a2.55,2.55,0,0,1,3.06.31Z"/><path class="cls-2" d="M187.16,109.21h-2.82c-1-1.28-.45-2.76-.54-4.16a90.39,90.39,0,0,0,1-15.33c0-1.63,0-3.36,1.51-4.5h.83Z"/><path class="cls-3" d="M186.33,85.22c-.16,7,0,14-1.32,21-.88.16-1.29-.39-1.63-1.06a9.88,9.88,0,0,1-.43-3.33c-.07-2.31.64-4.91-2.73-5.76-.65-.16-.51-1.42-.46-2.23a4.32,4.32,0,0,1,1.13-1.88c2.12-1.7,2-4,1.74-6.38-1.14-9.39-2.75-18.67-6.23-27.53-1.87-3.77-3.31-7.74-5.65-11.26-1.7-3.07-3.27-6.22-6-8.53a13.49,13.49,0,0,1-2.14-2.45c-.52-.69-1-1.41-1.48-2.12a13.48,13.48,0,0,0-4.21-3.92,11.66,11.66,0,0,1-1.83-1.95c-4.67-4.22-9.19-8.63-15-11.42a9.28,9.28,0,0,1-1.28-.6c-.64-.35-1.25-.74-1.86-1.12-10.16-5-20.44-9.67-32-10.18a13.27,13.27,0,0,1-2.42-.39c-5.36-.85-10.77-.28-16.16-.46-1.89-.33-4.33.61-5.14-2.22a2,2,0,0,1,.92-.16,124.19,124.19,0,0,1,24.08,0c6.73,1.73,13.64,2.07,20.35,4.61a90.2,90.2,0,0,1,47.81,40.83c6,10.48,10.28,21.55,10.86,33.8A27.06,27.06,0,0,0,186.33,85.22Z"/><path class="cls-4" d="M81.21,1.39c1.51,1.46,3.44.54,5.14.93-.68,2.74-3.37,1.86-5,2.83a86,86,0,0,0-27.44,9.71c-2.8.6-4.83,2.57-7.12,4.07a59.27,59.27,0,0,0-10.91,8.8c-1.71,1.68-4,2.77-5.24,4.9a22.83,22.83,0,0,0-6.81,7.9c-2.37,3.51-4.54,7.15-6.87,10.69a3.16,3.16,0,0,1-1.22.63,3.19,3.19,0,0,1-1.37-.12,2.18,2.18,0,0,1-1.26-1.55c1.24-4.08,4.05-7.28,6.15-10.87A5.81,5.81,0,0,1,22,35.23l2.32-2.94A8,8,0,0,1,28,28.2C34.57,22.17,41,16,49.14,12c.57-1.28,2-1.19,3-1.81L64.18,5.14c.95-1.73,2.76-1.42,4.28-1.77C72.87,3.75,76.75.68,81.21,1.39Z"/><path class="cls-1" d="M18.18,147.21c-4.27-4.28-6-10.15-9.42-15-4.17-5.89-4.43-13.32-7.39-19.75A15.18,15.18,0,0,1,1,101.43c.84-2.72-.54-6.38-.83-9.56C-.24,87,2,82.32.34,77.4c-1-2.94.41-6.09,2-9a22.27,22.27,0,0,0,3.1-9.22,10,10,0,0,1,6.88-8.93c1.24,2.44-.5,4.13-1.51,6a6.44,6.44,0,0,0-2.7,7.62C7.57,67.66,5.84,71.14,5.6,75c.12,4.34-1.15,8.53-1.39,12.83a12,12,0,0,0,0,7.68c.65,5.48,1.53,10.94,1.76,16.45-.63,2.82,2.37,4.38,2.43,7A15.09,15.09,0,0,1,9,123.54c-.45,1.73.71,2.62,1.85,3.53,2.77,5.58,6,10.91,8.85,16.44a3.83,3.83,0,0,1-.95,3.3Z"/><path class="cls-5" d="M184.15,105.2l.86,1c.66,1.21-.64,2-.67,3,.39,5.32-3.29,9.7-3.46,14.88.43,1.53-.63,2.3-1.59,3.12-2.37,6-6.21,11.22-9.17,16.91a5,5,0,0,1-3.06,4c-1.21.63-1.52,1.89-2.06,3a6.7,6.7,0,0,1-3.94,4l-13.73,12c-1.23,2.7-4.7,1.62-6.28,3.74a3.78,3.78,0,0,1-.77,1.09,4.58,4.58,0,0,1-3.1,1.22l-1.06.84c-3.57,3.78-8.86,4-13.14,6.25a21.42,21.42,0,0,1-2.83.85,46.25,46.25,0,0,1-5.88.56,4.64,4.64,0,0,1-3.29-1.6c.75-3,3.71-1.66,5.41-2.79.85-.41,1.7-.8,2.56-1.17,2-1.63,3.73-3,7-2.34,2.79.56,5.63-2.3,8.4-3.74,3.08-1.19,6.42-1.89,8.79-4.49a37.81,37.81,0,0,1,5.25-4c.87-.66,1.65-1.44,2.47-2.16a38,38,0,0,0,6.53-5.67c.45-.5.93-1,1.41-1.44a52,52,0,0,0,7.62-9.31,20.17,20.17,0,0,0,2.72-4.55c1.61-4.52,5-8,7-12.29a10.82,10.82,0,0,0,.84-2.54c.31-1.35.72-2.68,1.16-4a26,26,0,0,0,2.06-8.1c.41-1.34.68-2.72,1.08-4.07a5.73,5.73,0,0,1,1.49-2.4A1.07,1.07,0,0,1,184.15,105.2Z"/><path class="cls-1" d="M107.17,184.2c-1.18,3.29-4.14,2.83-6.65,3a74.09,74.09,0,0,1-24.2-2.58,117.56,117.56,0,0,0-14.08-3.11c-5.91-.9-8.85-5.34-13.06-8.27a8.13,8.13,0,0,1,3.75-.58c4.73,1.89,9.61,3.4,14.06,5.93,1,.34,1.12,3,2.86.94,1.94-.69,3.73.16,5.57.47a41.5,41.5,0,0,1,4.26,1.38c1.77.74,3.62.44,5.45.48,6.44.12,12.88-.28,19.31.22A3.58,3.58,0,0,1,107.17,184.2Z"/><path class="cls-6" d="M75.21,181c-2.07.24-3.87-1.53-6-.83a2.94,2.94,0,0,1-2-.85l-15-6.17c-1.09-.46-2.36-.66-3-1.86-2.63-1-5.59-1.34-7.18-4.1-1-.48-2-.83-2.92-1.36-3.83-1.77-6.31-5.14-9.29-7.91-1.09-1.13-2.17-2.26-3.35-3.3-2.8-2.36-5.37-4.91-6.83-8.37a6.54,6.54,0,0,1,.1-2.07c.52-1.9,1.64-1.12,2.7-.62a25.47,25.47,0,0,1,4.3,4.32A21.31,21.31,0,0,0,31,152.86c5,5.5,11,9.73,17.33,13.56,1.2.7,2.4,1.4,3.56,2.17,4.36,3.25,9.63,4.59,14.49,6.79,2.29.71,4.64,1.22,6.93,2,1.67.86,4.09.19,5.08,2.46C77.82,181.46,76.12,180.23,75.21,181Z"/><path class="cls-1" d="M20.23,146.09l7.07,8.07c0,2,1.69,2.3,3,3,3.53,2.48,5.84,6.41,9.83,8.34a3,3,0,0,1,.06,2.7c-4.69-.14-7.5-3.7-10.62-6.31-4.79-4-8.32-9.21-11.38-14.68A3.08,3.08,0,0,1,20.23,146.09Z"/><path class="cls-1" d="M114.06,181a11.86,11.86,0,0,1,6.09-.8c1.15.83,1.44-.36,2-.86l14-5.29c-.51,3.67-2.46,5.43-6.22,6.5-5.4,1.54-10.66,3.43-16.33,3.93a3.43,3.43,0,0,1-3.4-1.32,1.12,1.12,0,0,1-.3-1.21,2.3,2.3,0,0,1,1.56-1.22A4.64,4.64,0,0,1,114.06,181Z"/><path class="cls-7" d="M4.35,74.2q1.44-5.46,2.87-10.9C7.37,60.63,7.5,58,10,56.22l2.28-5.95.78-.09,1.11,1a2.17,2.17,0,0,1,.49,2.31c-3,7-5.05,14.35-7.08,21.69a3.07,3.07,0,0,1-1.84,2.2C3.89,77,5.22,75.1,4.35,74.2Z"/><path class="cls-8" d="M106.21,1.22H82.13A59.9,59.9,0,0,1,106.21,1.22Z"/><path class="cls-2" d="M28,28.2a8.42,8.42,0,0,1-3.68,4.09C24.55,30,24.39,27.41,28,28.2Z"/><path class="cls-2" d="M22,35.23l-2.78,4.08C17.38,36.07,19.89,35.78,22,35.23Z"/><path class="cls-2" d="M52.09,10.2l-3,1.81C48.42,8.63,50.55,9.9,52.09,10.2Z"/><path class="cls-1" d="M140.17,171.39l.88-.45c-.05,1.89.67,4.47-2.88,3.26C138.45,173,139.56,172.37,140.17,171.39Z"/><path class="cls-2" d="M68.46,3.37,64.18,5.14C64.75,2.48,66.4,2.42,68.46,3.37Z"/><path class="cls-2" d="M140.17,171.39a3,3,0,0,1-2,2.81l-1-.95Z"/><path class="cls-2" d="M110.17,182.3v.9c-1.1,0-2.28-.17-3,1L105,183.08C106.33,180.23,108.18,180.8,110.17,182.3Z"/><path class="cls-2" d="M40.18,168.2c-.47-.89-.87-1.78-.06-2.7.86.32,1.84.51,1.88,1.73Z"/><path class="cls-2" d="M49.18,171.33l3,1.86a2.6,2.6,0,0,1-3,0Z"/><path class="cls-2" d="M161.06,155.15a13.45,13.45,0,0,1,3.94-4C165.9,153.1,164,155,161.06,155.15Z"/><path class="cls-2" d="M167.06,148.16l3.06-4C172,147.63,169.26,147.71,167.06,148.16Z"/><path class="cls-2" d="M179.29,127.21l1.59-3.12C183.29,126.63,180.77,126.66,179.29,127.21Z"/><path class="cls-9" d="M177.17,57.22c4.68,9.39,5.48,19.7,7,29.84.38,2.65-.27,4.92-3,6.15a1.76,1.76,0,0,1-.57-1.74c.27-1.21,1-2.27,1.12-3.54a10.72,10.72,0,0,0-.46-2.44c-.41-3.23-1-6.42-1.6-9.61s-2.09-2.51-3.69-.64c-3-.83-1.2-3.95-2.56-5.47.23,2.85,2.06,5.83-.38,8.66-2-.31-1.91-2-2.25-3.37A170.66,170.66,0,0,0,165.4,57.2c.66-3.73,4.18-3.17,6.55-4.35C174.45,53.39,175,56.24,177.17,57.22Z"/><path class="cls-10" d="M165.08,37.33c3.43,2,4.79,5.46,6.32,8.81l-.52.37c-1.85-.18-3.7-1-5.56,0-2.22.39-1.77,2.85-3.06,3.95a1.64,1.64,0,0,1-1.3-.08c-1.2-1.34-.8-3.52-2.45-4.62-5.8-5.84-10.47-12.81-17.69-17.19a3.62,3.62,0,0,1-1.52-2.47c-.14-1.31,0-2.49,1.32-3.2,4.17.09,5.83,4.07,8.95,5.82,1.57.88,2.66,2.5,4.07,3.66,1.91,1.57,4.15,2.7,6,4.34A4.37,4.37,0,0,0,165.08,37.33Z"/><path class="cls-11" d="M105.18,3.26c12,.44,22.64,5.34,33.07,10.74-.63,1.23-1.88,1.28-3,1.57-2.91.31-2.56,3.31-4,4.83a1.6,1.6,0,0,1-1.35-.11,4.64,4.64,0,0,1-.81-1.19c-2-5.31-7.28-4-11-4.77S110.27,12.28,106,12.8c-2.08.25-6.63-.16-5.64-5,4-1.19,7.66.45,11.46,1,2.79.79,5.84.18,8.55,1.49a7.38,7.38,0,0,0,5.54,1c-2.45-.39-4.27-1.48-6.2-2.32-3-1.68-6.39-1.4-9.52-2.37A13.92,13.92,0,0,1,108.06,6C106.91,5.29,105,5.37,105.18,3.26Z"/><path class="cls-12" d="M153.21,33.22l-12.06-10a2,2,0,0,1-.62-1.14c.81-2.34-.76-4.56-.36-6.88,6.29,2.72,11.08,7.39,15.86,12.09-3.65,2.55-5.52-.48-8-2.88,1.54,2.93,4.4,4.14,5.53,6.79A2,2,0,0,1,153.21,33.22Z"/><path class="cls-13" d="M184.15,105.2l-1,0c-.65-.59-.87-1.3-.44-2.59-1.47,2.72-1.65,6.92-4.88,6.35s-1.19-4.49-1.8-6.86a23.39,23.39,0,0,1-.71-6.33c.86-2.75,2.8-2.27,4.81-1.58.12.1.24.21.38.31C184.13,97.16,184.13,97.16,184.15,105.2Z"/><path class="cls-14" d="M153.21,33.22,153,31.28c.08-.22.15-.43.22-.65A4.85,4.85,0,0,1,156,28.82a1.83,1.83,0,0,1,1.26.34c2.3.54,3.58,2.23,4.7,4.11-.39.71-1.88,1.09-1.55,1.56.53.76,1.81.25,2.76.35l1.88,2.15c-1,2.75-2.74,3-4.87,1.38C157.83,37,155.54,35.06,153.21,33.22Z"/><path class="cls-15" d="M80.93,4.09l5.42-1.77c5.57.87,11.31-1.52,16.8.92-1.07,1.13-2.56,1.84-3.21,3.37-1.2.51-2.35.11-3.52-.18a12.21,12.21,0,0,1-2.11-.8c-2.26-1.44-4.66-.81-7-.53C85.06,5.36,82.76,6.13,80.93,4.09Z"/><path class="cls-16" d="M177.17,57.22c-.16,1.22-.59,2-1.64.64-1.19-1.49-2.26-3.09-3.38-4.64a7.27,7.27,0,0,1-2.66-3.56,4.45,4.45,0,0,1-.08-1.31,2.48,2.48,0,0,1,1.51-2c.17-.06.32-.13.48-.2C174.51,49.22,175.27,53.51,177.17,57.22Z"/><path class="cls-17" d="M157.29,29.16l-1.17.09c-1.2.27-2.38.56-2.86,1.9l-.22.13c-2.11-2.79-7-3.71-6.17-9,3.44,1.5,4.72,6.28,9.16,5Z"/><path class="cls-18" d="M100.13,6.29c-1.92-3.91,1.83-2.21,3-3l2,0,3,1.9c1.17,2.26.81,3.59-2,3-1.92-.37-3.8-.93-5.79-.6A.91.91,0,0,1,100.13,6.29Z"/><path class="cls-19" d="M180.18,94.22c-1.15,1.2-2.76.25-4,.86s-1.63-.15-2.13-.94c1.91-3.25,3.71-4.17,6.93-3.57.08.2.17.41.25.62,0,.67,0,1.34,0,2Z"/><path class="cls-20" d="M140.17,15.21c1.71,2.12,3.25,4.27,1,7-1,.53-1.74-.05-2.39-.75a10.22,10.22,0,0,1-1.27-3.92,3.93,3.93,0,0,1,.25-1.35,2.75,2.75,0,0,1,1.62-1.21A3.31,3.31,0,0,1,140.17,15.21Z"/><path class="cls-21" d="M163.2,35.18c-2.13,2.82-3.68,1-5.45-.48A5.29,5.29,0,0,1,162,33.27Z"/><path class="cls-22" d="M139.35,14.93l-1.18,1.34c-1.56-.07-3.49.63-3.88-1.87l4-.4Z"/><path class="cls-23" d="M80.93,4.09c2.83.58,5.51-.4,8.27-.7,2-.22,4.33-.65,5.93,1.39-.82,2.06-3.44,3.36-2.58,6.14a1.74,1.74,0,0,1-1.08.87c-6.71-2.8-13,.51-19.32,1.61A51.85,51.85,0,0,0,65.92,15c-2.54,1.12-5.49,1.19-7.79,3a3.65,3.65,0,0,1-1.89.76A1.7,1.7,0,0,1,54.63,17c.49-1.48-1.18-1.81-1.53-2.85A65.46,65.46,0,0,1,80.93,4.09Z"/><path class="cls-24" d="M5.19,77.24c2.48-3.49,2.26-7.83,3.72-11.65,1.83-4.76,3.52-9.58,5.27-14.37h1c1.79,2,.62,4.1.07,6.16a8.38,8.38,0,0,1-.59,1.25,14.4,14.4,0,0,0-2.75,6.58A32.33,32.33,0,0,0,11,69.78a9.73,9.73,0,0,1-.44,1.32,30.9,30.9,0,0,0-2.08,9.59,23.41,23.41,0,0,1-.42,4.5,16.14,16.14,0,0,0-.55,5.4,244.34,244.34,0,0,0,2,24.46c-.32,1.58.24,3.62-2.15,4.12-.13-2.22-2.48-3.63-2.2-6A50.86,50.86,0,0,0,4.11,100.6C2.56,92.68,3.75,85,5.19,77.24Z"/><path class="cls-25" d="M35.07,27a40.3,40.3,0,0,1,11.14-8.75c2.58-1.44,3,1.72,4.74,2.18,1.18,1,2.23,2,1.53,3.77-5.47-.52-8.29,5.1-13.27,5.75A6.51,6.51,0,0,1,35,28.41,1.2,1.2,0,0,1,35.07,27Z"/><path class="cls-26" d="M23.14,40.17a13.37,13.37,0,0,1,6.7-8.06c1-.32,1.66-2.06,2.79-1.08,1.88,1.64-.09,3.47-.13,5.23a9.43,9.43,0,0,1-.7,2.08c-3.31,3-3.79,7.22-4.72,11.24-2.93.6-4.25-1.37-5.52-3.43C20.89,43.84,22.34,42.09,23.14,40.17Z"/><path class="cls-27" d="M23.14,40.17l-1,6c-.33,1-1.05,1.7-1.37,2.66-.54,1.65.44,3,.78,4.52-.31,2.54-2.17,4.46-2.73,6.91a5.9,5.9,0,0,1-2.59,3.22c-3.48-.67-2.81-3.07-2.26-5.43l0,.06c1.92-2,1.35-4.73,2.13-7.06A37.22,37.22,0,0,1,23.14,40.17Z"/><path class="cls-28" d="M50.25,21.21c-2.35.37-1.77-3.25-4-3,2.28-1.39,3.42-4.71,6.89-4.09.94.47,3.08-.09,1.88,2.2C53.33,17.89,51.41,19.18,50.25,21.21Z"/><path class="cls-29" d="M31.21,36.29c.27-.89.45-1.81.8-2.67,1.59-3.89-1.28-1.26-2.17-1.51.83-2.64,3.48-3.42,5.23-5.13,0,.44.08.88.13,1.32a4.59,4.59,0,0,1,1.1,3.79C35.67,34.78,34.23,36.49,31.21,36.29Z"/><path class="cls-30" d="M16.12,51.07c0,2.56.62,5.32-2.13,7.06q.6-3.45,1.19-6.91A2.54,2.54,0,0,1,16.12,51.07Z"/><path class="cls-31" d="M7.39,119.17c1.23-1.23.62-2.87,1-4.3,2.38.68,2.46,2.94,3.06,4.72a78.5,78.5,0,0,0,6.41,14.46c.45.79.84,1.62,1.24,2.44a16.64,16.64,0,0,0,2.29,3.79,11.53,11.53,0,0,1,1.11,1.49,2.71,2.71,0,0,1,.29,1.77,1,1,0,0,1-.85.69c-.61-.28-1.26-1.11-1.77.12-.41.37-.71.28-.91-.22a75.76,75.76,0,0,1-9.13-16.92c-1-.82-2.09-1.6-1.48-3.17C8.2,122.42,7.8,120.8,7.39,119.17Z"/><path class="cls-32" d="M5.19,77.24c-1.05,11.14-1.49,22.26.95,33.3a2.36,2.36,0,0,1-.95,2.63c-1.36-5.92-1.67-12-2.2-18a17.62,17.62,0,0,1,0-6.94q.67-7,1.36-14C5.39,75,5.17,76.15,5.19,77.24Z"/><path class="cls-2" d="M10,56.22,7.22,63.3C5.54,59.91,6.3,57.48,10,56.22Z"/><path class="cls-2" d="M3,88.25v6.94A7,7,0,0,1,3,88.25Z"/><path class="cls-2" d="M8.61,124c.49,1.06,1,2.11,1.48,3.17C8.54,126.65,5.89,126.6,8.61,124Z"/><path class="cls-2" d="M19.22,144.13l.91.22c0,.58.07,1.16.1,1.74a2.1,2.1,0,0,1-2.05,1.12C18.53,146.18,18.87,145.15,19.22,144.13Z"/><path class="cls-33" d="M135.14,171.15c-2.58,1.3-5.13,2.69-7.76,3.88-1.33.6-2.84,2.14-4.21-.13-.22-.38-.77-.31-1,.55-.43,1.84-1.72,1.67-3,1.71-1.35-1-3.4-1.49-3.08-3.84.07-.16.31-.22.29-.46a3.25,3.25,0,0,1-.94,1c-5,1.61-10.09,3.28-15.36.82-1-1-2.67-1.82-1.81-3.77,1.76-1.34,4-.77,5.91-1.68,7.62-1.26,15-3.59,22.4-5.57,1.89,2.91,5.57,2.43,8.06,4.23C135.52,168.86,136.16,169.88,135.14,171.15Z"/><path class="cls-34" d="M170.08,139.1c-.66,1.58-1.12,3.31-2.88,4.12-2.4,1.2-3.21,3.7-4.7,5.65-2.5,3.27-5.28,3.7-8.81,1.53,0-2.43,2.24-3.41,3.3-5.15.95-1.56,1.13-2.64-1.05-3-1.09-3.43,2.45-4.64,3.38-7.1a6.78,6.78,0,0,1,1.73-2.14,1.7,1.7,0,0,1,1.29.1c1.1,1.5,1.46,3.6,3.53,4.31C167.19,138.16,169,137.85,170.08,139.1Z"/><path class="cls-35" d="M116.22,173.14c.32,1.83,3,1.9,3,4l-2,1.07a2.66,2.66,0,0,1-2.8.36c-2.94-1.92-4.23.13-5.66,2a4.38,4.38,0,0,1-1.35.49c-2.84.7-5.66,1.62-8.63.78a2,2,0,0,1-.94-1c-.07-2,1.24-3.8,1-5.85.22-.68.53-1.23,1.4-.87,5.47,1.54,10.69-1,16.06-1Z"/><path class="cls-36" d="M174.19,94.13l1.95,1a37,37,0,0,1,1.17,13.61c3.47-1.16,2.62-5.2,5.37-6.5.94.82.24,2,.52,3a2.26,2.26,0,0,1-1,2c-1.26.83,0,2.37-.95,3.29-1.79,4.25-3.73,3-5.71.17-1.77-2.34-.22-6-3.08-7.9-.89-2.9-.12-5.57,1.14-8.16C173.79,94.46,174,94.3,174.19,94.13Z"/><path class="cls-37" d="M149.26,162.26l-5.08,4c-3.91.78-2.8-2.55-3.57-4.34a4.52,4.52,0,0,1,.09-1.42c.91-1.41,2.41-2.66,1.24-4.64.17-1.89,1.39-2.85,3-3.47,5.06.2,5.16.36,2.81,4.4-.53.92-1.83,1.76-.35,2.91a2.2,2.2,0,0,1,1.84,2.56Z"/><path class="cls-38" d="M176.15,110.21c1.66,1.42,3.33,3.57,5,0,.3.22.4.44.31.67s-.18.34-.28.34a13,13,0,0,1-2,9c-3.12.84-3.09-3.36-5.61-3.51C172.67,113.83,173,111.43,176.15,110.21Z"/><path class="cls-39" d="M170.08,139.1c-1.68,0-3.49.65-5-.79.73-.54,2.27-.84.57-2.08-.18-.12,0-.59.09-.9.73-1.1,2-1.58,2.89-2.52,1.21-.95,1.4-2.56,2.38-3.66,1.43-.88,2.09-2.48,3.29-3.53,1-.84,2.36-1.91,2.77.6C175.79,131.07,171.61,134.36,170.08,139.1Z"/><path class="cls-40" d="M141.16,161.27c2.26.91-.63,4.93,3,5-2.24,3.06-5.93,3.44-9,4.89l-1-3.09a1,1,0,0,1,.17-1.22,7.3,7.3,0,0,0,4.48-4.83C139.42,161.33,140.09,160.64,141.16,161.27Z"/><path class="cls-41" d="M177.12,126.22c-2.37-1.53-2.74.28-2.92,1.89-.31,2.59-1.82,1.57-3.15,1.23-.22-.13-.45-.25-.68-.37-2.3-3.25-1-5.78,1.61-8,3.08-1,4.75.83,6.13,3.17A2,2,0,0,1,177.12,126.22Z"/><path class="cls-42" d="M154.14,150.2c4.24,1.22,7.48.29,9-4.26.66-2.06,1.69-3.39,4.11-2.72-1.5,4.25-4.72,7.14-7.92,10.06-1.75-.07-3.53.56-5.26,0s-3.29-1.2-1.45-3.31A1.59,1.59,0,0,1,154.14,150.2Z"/><path class="cls-43" d="M153.13,150.19c-1.38,1.63-.16,1.84,1.11,2,1.71.23,3.64-.61,5,1.08l-1.05,1c-1.5,0-2.27,1.42-3.59,1.77-2.11.28-4.38.88-5.08-2.11-.51-2.17-2.63-.66-3.61-1.68-.18-1.55.84-2.31,2-3,1.21-.53,2.34-1.43,3.67-1.44C153.12,147.74,154.26,148.32,153.13,150.19Z"/><path class="cls-39" d="M178.11,124.1c-2-1-3.51-2.8-5.92-2.85l-.43-.52a2.69,2.69,0,0,1,0-1.35,3.12,3.12,0,0,1,2.46-2.15c3-1.21,2.79,2.83,4.95,3C178.8,121.5,178.45,122.8,178.11,124.1Z"/><path class="cls-44" d="M155.06,155.09c.82-1.17,1.55-2.67,3.17-.85a23.64,23.64,0,0,1-6.86,6.24c-1.05-.22-2-2-3.18-.24l-.11-.13c-1.29-2.58,0-3.62,2.39-3.87C152.06,156.07,153.77,156.43,155.06,155.09Z"/><path class="cls-45" d="M108.14,180.15c1.17-4,2.86-6.07,6.63-2.11.41.44,1.59.14,2.42.19-1.6,2-4.45,0-6.07,1.87A2,2,0,0,1,108.14,180.15Z"/><path class="cls-46" d="M148.19,160.24c1.17-1.35,2.31-2.21,3.18.24l-2.11,1.78A2,2,0,0,1,148.19,160.24Z"/><path class="cls-47" d="M108.14,180.15l3-.05c1,.18,2.21-.14,2.95.94l-2.84.18c-1.18.29-2.65,1.49-3-.94Z"/><path class="cls-48" d="M181.16,111.21l0-1c.49-.94-.87-2.54,1.07-3C181.93,108.59,182.77,110.22,181.16,111.21Z"/><path class="cls-2" d="M122.17,179.38c-.21,1.24-.44,2.64-2.08,2.41-.69-.1,0-1,.06-1.55A2,2,0,0,1,122.17,179.38Z"/><path class="cls-49" d="M108.25,180.28c.73,1.14,1.93.81,3,.94l-1.06,1.08c-1.75.12-3.59-.39-5.17.78H84.46c-1.66-.9-3.6.11-5.26-.79l-4-1.26c.8-1,2-.8,3.05-.92A3.37,3.37,0,0,1,81.37,179c5.56,1.14,11.45-.36,16.83,2.14C101.63,181.74,104.9,180.57,108.25,180.28Z"/><path class="cls-2" d="M104.12,184.94H85.43v-.4h18.69Z"/><path class="cls-2" d="M67.18,179.36a2,2,0,0,1,2,.85c0,.55,0,1.1.07,1.65C67.58,181.86,67.38,180.61,67.18,179.36Z"/><path class="cls-2" d="M79.2,182.3c1.77.13,3.65-.4,5.26.79C82.68,183,80.76,183.84,79.2,182.3Z"/><path class="cls-50" d="M48.13,167.33a54.15,54.15,0,0,1-18-14.09c-1.08-1.88-2.74-3.29-4.08-5l-4.17-4.05.31,0c3.43-.79,2.57-2.94,1.6-5.13a2.06,2.06,0,0,1,.41-1.31,4.83,4.83,0,0,1,4-1.3,2.93,2.93,0,0,1,1.23.71c1.27,7.43,4.39,13.7,11,17.82,1.12.69,2.14,2,3.49,1.52,3.29-1.12,4.87.77,6.32,3.13-1.1,2-2.46,4-1.67,6.53A1.74,1.74,0,0,1,48.13,167.33Z"/><path class="cls-51" d="M98.2,181.13c-6.69.52-13.31-.37-19.94-1-1.32-1.74-3.84-.11-5.16-1.86.57-2.09-1-5.33,3-5.61,3.84,1.9,7.85,1.71,11.9,1a4.05,4.05,0,0,1,2,1.84,5.68,5.68,0,0,0,3.93,3c1.43.62,3.23.32,4.35,1.71C98.18,180.52,98.19,180.82,98.2,181.13Z"/><path class="cls-52" d="M76.17,173.21c-2.08.19-2.22,1.61-1.8,3.13.35,1.29-.08,1.78-1.27,1.92a17.06,17.06,0,0,1-6.93-2c-3.86-1.29-3.67-4.77-4.25-7.83,1.3-1.45,2.73-.6,4.07-.13,3.51,1.22,7.09,2.29,10.3,4.24Z"/><path class="cls-53" d="M62.18,168.21c2.58,2,1.12,6.1,4,8-5.27-1.77-10.72-3.13-15-7l.45-.5c1.08-.64,2.6-.75,2.79-2.41a3.64,3.64,0,0,1,.53-1.17,2.33,2.33,0,0,1,1.21-.43C58.78,164.8,60.37,166.69,62.18,168.21Z"/><path class="cls-2" d="M30.29,157.16C28,158.23,27,156.24,26,155c-.47-.55.71-.73,1.3-.86A7.51,7.51,0,0,1,30.29,157.16Z"/><path class="cls-54" d="M48.13,167.33c0-.31,0-.62,0-.93,1.3.42,1.61-.64,2.11-1.43,1.4,0,1.86,1,2.25,2.09.16,1.11-.65,1.59-1.37,2.14h0Z"/><path class="cls-55" d="M26.07,148.28c2,1.1,3.87,2.37,4.08,5C28.35,152,26.54,150.67,26.07,148.28Z"/><path class="cls-56" d="M166.13,56.26c3.55,7,4.55,14.73,7,22,2,2.51,1.52,5.52,1.72,8.39a4,4,0,0,1-1.29,2.08c-.95.57-1.91,1.27-2.91.09-1.48-8.26-2.33-16.65-5.44-24.57-1.12-2.84-3.2-5.51-2.35-8.9C164.34,54.15,165.35,54.78,166.13,56.26Z"/><path class="cls-57" d="M174,87.05a29.29,29.29,0,0,1-.91-8.75c.51-3.33-.58-6.46-1.29-9.63-.18-.8-.63-1.7.33-2.12,1.12-.49,1.68.41,2.29,1.26,1.62,2.25-.41,5.31,1.72,7.41l.51.49c.93,1.68.6,3.67,1.28,5.41.23,2.66,3.12,3.14,4.21,5.09a2,2,0,0,1,.85,2.23c-2.69.64-5.16-1.53-7.88-.62A1.85,1.85,0,0,1,174,87.05Z"/><path class="cls-58" d="M182.16,86.21c-2.16-1.17-5.93-.72-5-5-1.23-1.85.31-4.17-1-6h0c.2-1.55-.67-4,1.43-4.24s3,2.22,3.21,3.92C181.23,78.67,182.6,82.34,182.16,86.21Z"/><path class="cls-59" d="M166.13,56.26l-2.92-1.18a1.6,1.6,0,0,1-.43-1.23c2.59-1.28,4.59-3.48,7.24-4.68.61,1.4,2.3,2.24,2.13,4A12.87,12.87,0,0,1,166.13,56.26Z"/><path class="cls-60" d="M175.19,87.23c3.05-2.49,5.33,0,7.82,1.21-.72.84-.42,2.35-1.82,2.75l0,0c-.92-2-2.87-1.7-4.54-2C175.78,88.79,174.8,88.51,175.19,87.23Z"/><path class="cls-61" d="M161.24,50.18l.91,0c.86-1,1.27-2.65,3.15-2.25a2.2,2.2,0,0,1,1.16,2.39c-2.28,2.81-5.76,4-8.48,6.17a12.37,12.37,0,0,1-1.18.82c-12,7.14-24.34,13.5-36.25,20.7a5.75,5.75,0,0,1-4.25,1,3.05,3.05,0,0,1-1.26-.72c.11-3,2.72-3.58,4.63-4.62,4.1-2.23,8.14-4.55,12-7.09,3.45-2.36,7.31-4,10.87-6.15,2.64-1.7,5.29-3.39,8-5,1.78-1.22,4-1.64,5.77-2.81.87-.55,1.75-1.09,2.62-1.65a10.06,10.06,0,0,1,1.05-.63A2.76,2.76,0,0,1,161.24,50.18Z"/><path class="cls-62" d="M140.1,26.3c7.58,5.08,13.54,11.78,19.1,18.9a5.35,5.35,0,0,1,1,6h0c-1.77.52-2.37-1-3-2-4.56-7.35-11.11-12.66-17.92-17.71-2-1.49-4-3-5.29-5.19.44-2.63,2.27-1.77,3.86-1.56a5.66,5.66,0,0,1,1.29.56A7.12,7.12,0,0,1,140.1,26.3Z"/><path class="cls-63" d="M165,48c-.95.73-1.44,2.06-2.83,2.21,0-2.25-.35-4.66,2.87-5.08.46.42,1.12.6,1.44,1.2C166.44,47.33,166.05,48,165,48Z"/><path class="cls-64" d="M166.28,46.35,165,45.15c2.2-.75,4.29-1,5.9,1.19-.25.65-.51,1.29-.77,1.93a1.36,1.36,0,0,1-1.27.27A6.09,6.09,0,0,1,166.28,46.35Z"/><path class="cls-65" d="M140.1,26.3a5.71,5.71,0,0,1-.92-.16c-1-1.14-2.24-2.14-2.26-3.86a1.63,1.63,0,0,1,1.65-.89l2.57.77c0,.36,0,.71,0,1.07C140,24,140.24,25.21,140.1,26.3Z"/><path class="cls-66" d="M160.15,51.21c.39-2.12-.7-4-1-6,3.12.66,1.44,3.29,2,5Z"/><path class="cls-67" d="M100.13,6.29a4.29,4.29,0,0,0,.27.86q.34.34.18.63c-.1.18-.19.27-.28.27.48,3.13,4.27,4,5.38,3.76,6.75-1.34,12.73,1.87,19.1,2.46,2.94.27,5.61,1.11,5.38,5-3.61-1.55-7.23-2.91-11.23-1.42-2.9,0-5.5-1.17-8.14-2.2-.69-.17-1.36-.39-2-.6-2-.76-4.27-.34-6.34-.93C95,11.61,95,11.61,97.09,5.34Z"/><path class="cls-68" d="M111.14,14.29a30.87,30.87,0,0,0,8.12,2.63,12.61,12.61,0,0,1,10.92,3.29,4.16,4.16,0,0,0,.87.14,1,1,0,0,1,.44.9c-.22.72.06,1.49-.21,2.21a1.92,1.92,0,0,1-2.18,1.05c-5.8-2.83-11.57-5.73-18-7-1.27-.24-2.7-.37-3.15-2C108.57,14.06,110.3,15.27,111.14,14.29Z"/><path class="cls-69" d="M110.15,5.26c3.22,1.43,7.26.08,10,3a2.08,2.08,0,0,1-.06,3l-8-1C111.34,8.56,108.71,7.74,110.15,5.26Z"/><path class="cls-15" d="M110.15,5.26c-.78,2.21,3.35,2.42,2,4.87L100.3,8.05a2,2,0,0,1,.1-.9,7.37,7.37,0,0,1,5.52.1c2.23,1,2.31-.53,2.3-2.09Z"/><path class="cls-70" d="M120.14,11.18l.06-3,8.83,3.2C125.87,11.78,122.7,14.38,120.14,11.18Z"/><path class="cls-71" d="M131,21.22a1,1,0,0,0,.06-.87c.09-2.51.35-5,3.24-6,.92,1.4,3.07.23,3.88,1.87,0,.36,0,.73,0,1.1a4.46,4.46,0,0,1-2.24,1.12,4.56,4.56,0,0,0-1.1.56C133.74,20.17,133.5,22.7,131,21.22Z"/><path class="cls-72" d="M130.18,20.21c-3.71-.87-7-3.09-10.92-3.29,4.21-2,7.93-1.59,10.9,2.31C130.17,19.56,130.18,19.89,130.18,20.21Z"/><path class="cls-73" d="M153.26,31.15c0-2.08.79-2.94,2.86-1.9Z"/><path class="cls-74" d="M97.09,5.34c-.43,4.05.83,7,5.21,7.83-2,1.65-5.59,1.93-4.74,5.85.14,1.95-.07,3.9.13,5.85-.23,8.07-.07,16.13-.1,24.2-.19,6.5.31,13-.29,19.52a3.81,3.81,0,0,1-.81,1.54c-3.66-.31-3.17-3.16-3.15-5.48.14-16.91.59-33.83.42-50.74,0-1.39.46-3.16-1.66-3.66-2.2-3.6.59-4.44,3-5.47Z"/><path class="cls-75" d="M169.32,48.17a2,2,0,0,1,.83.1c0,.3-.08.6-.13.9a8.81,8.81,0,0,1-6.84,5c-1.52,2.15-3.34,3.39-6,2,2.23-3.16,6.38-3.41,9-6C166.74,48.82,167,46.88,169.32,48.17Z"/><path class="cls-76" d="M177.29,88.39c1.79.24,3.65.4,3.86,2.82-3.15-1-4.9,1.32-7,2.92l-.17.12c-.54,1.09-1.34,1.47-2.33.64-2.48-2.11-5.16-1.53-7.88-.68a3.92,3.92,0,0,1-2.72.18,1.92,1.92,0,0,1-.27-2A23.26,23.26,0,0,1,164,89c1.28-.38,2.62-.48,3.91-.81a3.86,3.86,0,0,1,3.29,1l1.84-1C174.42,88.82,175.82,89.34,177.29,88.39Z"/><path class="cls-77" d="M135.2,17.31l2.92.06c.95,1.25,2,2.49.46,4l-1.42.85c-.93,1.66,2.71,2,1.1,3.89-1.37-.29-2.77-1.76-4.08.11,1.48,2.74-1.32,4.21-1.87,6.35-1,2-2.35,3.92-3.43,5.93-1.53,2.79-2.87,5.68-4.64,8.33-1.42,2.61-3.24,5-4.4,7.75-3.79,6.29-7.59,12.57-11.25,18.94-1.88,1.48-3.2,1.22-3.78-1.24C111,59.85,118.35,48,125.23,36c2.73-3.65,5.44-7.32,6.89-11.72.44-1.29,1.44-2.21,2.12-3.34S134.47,18.4,135.2,17.31Z"/><path class="cls-78" d="M105.21,72.25c.55,1.63,1.62,1.71,3,1,2.77,1,4.65,3.35,7,5h1c.64,1.91-1.57,2.85-1.53,4.57a2.07,2.07,0,0,1-.87,1,3.84,3.84,0,0,1-2.73.16,3,3,0,0,1-1.59-1.33c-.63-3.08-.42-7-5.61-5.33a6.86,6.86,0,0,1-2.8-.51c-4.88-3.48-9.66-2.26-14.36.39-1.28.72-2.37,1.81-3.94,1.95-3.62,0-2.73-2.23-2.05-4.32.8-1.31,1.86-2.47,2.26-4a3.87,3.87,0,0,1,1.64-1.38c1.66-.63,3.4-1,5.08-1.55,2.5-.91,2-3.08,2.09-5,.13-6.06-.16-12.11,0-18.17,0-1.1-.08-2.2,0-3.3s0-2.23,0-3.35c-.06-1.41,0-2.82,0-4.23-.12-3.41.06-6.83,0-10.23-.22-2.64.44-5.32-.38-7.92-1.24-1.52-3-.95-4.55-1.11-1.74-.17-3.64.18-4.86-1.59,1.53-2.87,4.14-2,6.55-1.93,1.18,0,2.4,1.55,3.54-.07a1,1,0,0,1,0-.73l1.81-2.17a6.45,6.45,0,0,1,1.22,4.73c-.41,10.45.43,20.9-.56,31.39-.69,7.27,1.11,14.66-.08,22a4.43,4.43,0,0,0,1.68,4C99.72,68.51,102.73,69.22,105.21,72.25Z"/><path class="cls-79" d="M92.06,11c-2.81,3-7-.46-9.92,2.21S75.68,16.36,72,16.52c-2.51-.37-5.14-.4-7.09-2.42C71,12.48,77.16,11,83.25,9.2,86.59,8.24,89.14,10.34,92.06,11Z"/><path class="cls-80" d="M56.14,18.25l1.14-1a12.64,12.64,0,0,1,8.22-.76c2.09,1.88,0,2.55-1.09,3.23-1.83,1.16-4.06,1.41-6.06,2.22-1,.57-1.84,1.67-3.21,1.55-1.75-1-2.79-2.49-2.32-4.48S55.14,19.06,56.14,18.25Z"/><path class="cls-81" d="M56.14,18.25c-4.24.9-1.68,3.1-.94,4.95a1.31,1.31,0,0,1,.15,1.37,2.36,2.36,0,0,1-3.26.86,1.08,1.08,0,0,1,0-1.33c.36-1.59-.64-2.3-1.84-2.89-1.35-4.47,1.06-5.28,4.73-4.87C55.36,17,55.75,17.62,56.14,18.25Z"/><path class="cls-82" d="M66.22,17.27H57.28c1.92-2.54,5.25-1.68,7.62-3.16l7.4,1.19C71,18.26,68.76,18.19,66.22,17.27Z"/><path class="cls-83" d="M17.24,135.17c-4.34-6.17-6.44-13.31-8.89-20.3-2-8.1-1.73-16.42-2.21-24.66a1.78,1.78,0,0,1,2-.32c1.32,1.21,1.31,3,1.94,4.51.88,3.18,1.6,6.4,2.6,9.56a6.9,6.9,0,0,1,.3,1.27c.08,2.78,3.13,4.17,3.26,6.92s2.64,3.8,4,5.67a9.54,9.54,0,0,1,1.51,5.45A37.52,37.52,0,0,1,17.24,135.17Z"/><path class="cls-30" d="M14,58.07c1.09,1.56-.38,4.17,2.12,5.13,1.57,1.66.58,3.34.05,5-.9,2-1,4.33-2.55,6.05-1.39.86-2.34,2.3-4.08,3.17-1.92-2.63.29-4.9.57-7.26h0c1.33-1.53,0-3.55,1-5.15C11.32,62.4,11.66,59.81,14,58.07Z"/><path class="cls-84" d="M7.07,85.09c0-1.62.09-3.24.13-4.85.74-.74.36-2.46,2-2.4,1.45.06,1.75,1.25,2.06,2.36s.11,2.62.92,3.74c1.15,1.52,3.36,2.29,3.33,4.65-1.49,2.48-3.56,1.16-5.48.83C7.91,88.74,8.08,86.52,7.07,85.09Z"/><path class="cls-85" d="M11.19,85.22c-1.6-1.25-.85-3-1-4.61-.49-4.06-1.89-.82-2.95-.37.59-3.47.4-7.16,2.92-10.07.52,2-.51,3.85-.92,6.06,1.84.09,1.57-3.72,3.89-2.06C14,78.11,14.4,82,11.19,85.22Z"/><path class="cls-86" d="M7.07,85.09c1.37.84,1.35,3.09,3.34,3.29C10.3,89.87,9.27,90.2,8,90.28l-1.89-.07C6,88.43,6,86.66,7.07,85.09Z"/><path class="cls-85" d="M11.07,65c-.13,1.75.85,3.71-1,5.15C10,68.38,9.76,66.56,11.07,65Z"/><path class="cls-87" d="M52.09,24.1l0,1.1A30.8,30.8,0,0,1,41.82,33c-1.77.18-3.12-.22-3.29-2.31a1.93,1.93,0,0,1,.74-1.33c1.64-1,3.64-1.74,4.84-3.14C46.41,23.47,48.93,22.88,52.09,24.1Z"/><path class="cls-88" d="M39.27,29.32c-.05.3-.08.6-.1.9-1.17,1-2.09,2.43-4,2.05v-4A5.18,5.18,0,0,1,39.27,29.32Z"/><path class="cls-89" d="M19.78,48.07c.29-1.27,1.33-1.59,2.4-1.88,2.16.15,2.44,3.39,4.93,3l.56-.38a2.58,2.58,0,0,1,1.22.5A12.41,12.41,0,0,0,33,52.43a25.35,25.35,0,0,1,2.32,1.19c.57.34,1.11.72,1.65,1.1,1.51,1,3.18,1.72,4.66,2.76s3.14,1.74,4.6,2.8c.53.35,1.07.72,1.62,1,.93.5,1.91.93,2.83,1.46a31.61,31.61,0,0,0,4.12,2.05C58,67,61.33,69,64.73,70.93c1.33.75,3.17,1.31,2.42,3.55-2.86,1.51-5-.58-7.27-1.57-1.94-.84-3.61-2.22-5.66-2.87A244.27,244.27,0,0,0,24,52.9,15.94,15.94,0,0,1,19.78,48.07Z"/><path class="cls-90" d="M35.2,32.27c1.08-1.16,2-2.57,4-2.05.08,2,1.46,2,2.93,2-.47,3.58-4,4.88-5.74,7.56-2,3-4.33,5.79-6.3,8.85a1.73,1.73,0,0,1-1.86.71L28.13,49c-1.44-4.3,1.51-7.46,2.9-11l.18-1.68C32.61,35,34.86,34.59,35.2,32.27Z"/><path class="cls-91" d="M31,38c0,3.92-2.43,7.22-2.9,11l-1,.18C25.49,44.42,27.73,41,31,38Z"/><path class="cls-92" d="M18.08,60.08c.12-2.57,1.54-4.59,2.87-6.65A1,1,0,0,1,22,53c1.17.95.51,2.77,1.75,3.69a3.74,3.74,0,0,1,0,2.07c-1.89,2.32-.42,6.88-5,7.41C16.86,64.29,17.38,62.2,18.08,60.08Z"/><path class="cls-93" d="M18.08,60.08c.34,2,.69,4,1,6,.25,1,.81,2-.22,3-1.62,1.06-3,1-3.81-1l1-4.92Z"/><path class="cls-94" d="M22.17,53.23l-1.22.2c-2.15-1.4-2.58-3.18-1.16-5.36,2.54.25,3.13,2.56,4.4,4.15a.93.93,0,0,1,0,1.26A1.59,1.59,0,0,1,22.17,53.23Z"/><path class="cls-95" d="M17.24,135.17c.13-4.4,2.16-8.16,4-12,2-.2,2.21,1.5,3,2.66,2.13,3.48.91,5.41-2.84,6.18-.89.75-.9,1.84-1,2.88-.36,1-.24,2.49-2,2.23C17.92,136.47,17.58,135.82,17.24,135.17Z"/><path class="cls-96" d="M18.27,137.12c1.22-.68.84-1.88.94-2.93a1,1,0,0,1,1.25,0,4.67,4.67,0,0,1,.85,1.82c.14,1.76,1.81,2.14,2.81,3.12,3.11.7,2.69,4.05,2.33,5.28-.55,1.9-2.71-.45-4.24-.2L22,142.43c.17-.71-.1-1.11-.84-1.19C19.39,140.43,18.8,138.79,18.27,137.12Z"/><path class="cls-97" d="M21.16,141.24c.72-.76,1.8-1.51,2.42-.45.82,1.41-.83,1.27-1.58,1.64Z"/><path class="cls-98" d="M127.23,164.2a80.26,80.26,0,0,1-23,6.05c-2.53.45-5.1,1.26-7.46-.57a2.78,2.78,0,0,1,.1-2.48A3.69,3.69,0,0,1,99.49,166c9.65-.24,18.64-3,27.31-7.05a5.36,5.36,0,0,1,3.39-.52,2.27,2.27,0,0,1,1.28.91,3.84,3.84,0,0,1-.16,2.32C130.52,163.44,129.51,164.85,127.23,164.2Z"/><path class="cls-99" d="M97.12,169.28c2.16,1.77,4.74.48,7.07,1-1.79,1.69-4,.58-6,1-.59.75,0,1.68-.36,2.47a2.52,2.52,0,0,1-.86,1c-1.68.78-3.36,3.16-5,0a3,3,0,0,1-.16-1.37,15.64,15.64,0,0,1,.75-2,7.76,7.76,0,0,0,.34-2.91c-.37-6.5.7-13-.75-19.5a85.4,85.4,0,0,1,0-15.42c1.06-3.22.59-6.54.71-9.82.07-1.8-.14-3.66,1.09-5.22a1.14,1.14,0,0,1,1.6-.06c2.18,8,.59,16.16.83,24.24C96.59,151.53,95.94,160.43,97.12,169.28Z"/><path class="cls-100" d="M127.23,164.2c1.26-.63,2.83-.87,3.17-2.6,3-.69,3-.69,4.28,4a2.5,2.5,0,0,1-.23,1.5l-.36,1c-1.66.63-2.81-1.26-4.69-.67C126.07,168.44,127.26,165.76,127.23,164.2Z"/><path class="cls-101" d="M116.23,173.15c-1-1.79-.51-2.81,1.57-2.83,1.08,0,2.21.74,2,1.69-.42,2.26-2.36.81-3.61,1.13Z"/><path class="cls-102" d="M126,169.32a2.36,2.36,0,0,1,2,2.34c0,.71-.45,1.32-1.15,1.17-1.24-.27-1.7-1.38-2-2.48C124.67,169.46,125.36,169.36,126,169.32Z"/><path class="cls-103" d="M97.42,174c-.21-1-.77-2.15.72-2.73.68,1,2.29,1.34,2,3l-.91,1.06C98.11,175.59,97.52,175.13,97.42,174Z"/><path class="cls-104" d="M108.29,173.22c-.35-.28-1.05-.57-1.24-1.07-.41-1,.62-1,1.13-.94a2.19,2.19,0,0,1,1.53.88C110.09,173,109.17,173,108.29,173.22Z"/><path class="cls-41" d="M169.32,133c-.2,2-1.59,2.31-3.23,2.26-2.3,1.32-2.89-.64-3.8-2l-1.14-.06c-2.51-4.27-7.25-5.54-11-8.14-1.75-1.22-3.83-1.94-5.63-3.15-4.14-2.41-8.57-4.33-12.38-7.3-1.5-1.18-3.59-2-3.06-4.56,3.29-1.27,5.45,1.39,8.1,2.33,2.94,2.23,6.41,3.59,9.46,5.66,1.93,1.08,3.78,2.32,5.71,3.41,1.68,1,3.47,1.78,5.07,2.9a18.12,18.12,0,0,0,3.85,2.08c1.27.58,2.68.12,3.95.55a4.56,4.56,0,0,1,.8,1C166.94,129.78,171.26,129.33,169.32,133Z"/><path class="cls-105" d="M148.24,150.25a3.42,3.42,0,0,0-2.11,1.93c0,.61-.68.65-.88,1.09L142,156l-.27.66a7.78,7.78,0,0,1-5,2.32,2.12,2.12,0,0,1-2.07-1.71c0-1.7,1.07-2.75,2.3-3.59,8-5.46,14.21-12.68,19.94-20.38.74-1,1.36-2.34,3-2.28,1.33,1.32.87,2.78.32,4.25-.15,3-3.85,3.93-4.15,6.88C155.57,146.88,150.65,147.36,148.24,150.25Z"/><path class="cls-106" d="M148.24,150.25l7.81-8.11c1.27-.17,1.89-1.87,3.58-1.43.36,4.43-3.12,6.65-5.49,9.49h-1C151.44,145.92,149.89,151.49,148.24,150.25Z"/><path class="cls-107" d="M160.2,135.26c-.2-1.38.44-3-1-4-2.12.07-3.72-1.3-5.55-2-2-.95-3.8-2.31-5.87-3.12-1.84-1.06-3.63-2.17-4.67-4.14.33-1.29,1-1.46,2.09-.74,4.86,2.76,9.68,5.6,14.6,8.25,1.75,1,2.66,1.87,1.38,3.77C160.84,133.9,160.52,134.58,160.2,135.26Z"/><path class="cls-108" d="M162.29,133.28c1.39.41,2.1,2.15,3.8,2-.12,1.08,3.44,3.32-1,3.05C162.92,137.35,161.2,136.1,162.29,133.28Z"/><path class="cls-109" d="M97.42,174c.61.44.83,1.43,1.84,1.3,1.91,2.14.12,3.48-1.07,5-1.71-.24-3.65.66-5.07-1-.7-.57-1.6-1.05-1-2.2,2-.22,3.89-.65,4.89-2.69Z"/><path class="cls-110" d="M165.2,127.27c-1.35.44-2.72,1.79-4.07,0,.85-5.36,3.5-10.18,4.66-15.47.84-3.86,1.89-7.67,2.05-11.66.11-2.71-.87-4.45-3.59-5.05-.71-.4-1.29-.89-1.09-1.84,3.86-2.19,7.38-.8,10.86,1l-.78,9a2.78,2.78,0,0,1,.59,2.08c-.5,2.64-1.28,5.21-1.83,7.84-.7,2.34-1.14,4.77-2,7.06C168.22,122.49,168.66,126.21,165.2,127.27Z"/><path class="cls-111" d="M173.1,105.13c0-.62.09-1.23.14-1.85,5.37.47.7,5.14,2.91,6.93a8.46,8.46,0,0,0-2,7l-2.07,2.91c-3.4-2.32-1-5-.44-7.54S172.58,107.61,173.1,105.13Z"/><path class="cls-112" d="M145.25,153.27c.3-.36.59-.73.88-1.09,1.29.19,3.17-1.44,3.78.78.86,3.16,3.18,2,5.15,2.13-.69,1.94-2.28,2.24-4,2.1-2.19-.18-3,.94-3,2.92-.85.37-.87,2-2.16,1.59-1-.32-.7-1.35-.77-2.13-.26-2.7,2.54-3.66,3.42-5.66C147.53,152.72,146.33,153.37,145.25,153.27Z"/><path class="cls-113" d="M142,156c1.07.34,2.22.65,1.92,2.17s-1.44,1.93-2.78,2.1a4.75,4.75,0,0,1-3.71.78c-.86-.49-2-.86-.86-2.15A8.61,8.61,0,0,0,142,156Z"/><path class="cls-114" d="M137.13,160.22l4,0c0,.34,0,.67,0,1l-2.06,1.12a1.27,1.27,0,0,1-1.21,0C137.21,161.84,136.64,161.21,137.13,160.22Z"/><path class="cls-115" d="M169.32,133c0-2-1-3-2.93-2.8-1.72.13-2-.52-1.16-1.89,2.36-2,4.11-.5,5.86,1h0C171,130.79,172.47,133,169.32,133Z"/><path class="cls-116" d="M138.35,162.05a1.51,1.51,0,0,1,.75.34c.17,3.26-.93,5.27-4.65,4.68-.1-.31-.18-.62-.25-.94C133.31,160.76,133.31,160.76,138.35,162.05Z"/><path class="cls-39" d="M171.09,129.32c-1.93-.45-3.7-1.88-5.86-1l0-1c1.3-2.36,2.59-4.73,3.88-7.09,1.36-.73,2.07.56,3,1l.06.07C170.73,123.79,169.28,126.33,171.09,129.32Z"/><path class="cls-38" d="M172.13,121.18l-3-1a15.61,15.61,0,0,1,2-7c.33-.46.65-.48,1,0-.59,2.31-1.53,4.63,0,6.94C172.12,120.48,172.13,120.83,172.13,121.18Z"/><path class="cls-117" d="M49.92,160.45c-1.61-2.19-3.24-3.44-6.38-2.39-2.81.94-3.95-2.49-5.87-3.82-5.81-4-9.19-9.58-8.49-17,3.88.5,4.81,4.11,6.89,6.52,1.63,3.92,2.81,8.26,8.23,8.52a14.59,14.59,0,0,1,7.41,5.36,3.09,3.09,0,0,1,0,2.14,1.62,1.62,0,0,1-1.11.83Z"/><path class="cls-118" d="M35.17,144.23l-6-7a5.37,5.37,0,0,0-.85-.3A3.41,3.41,0,0,1,27,134.26a7.06,7.06,0,0,1,.6-3.76,1.92,1.92,0,0,1,1.21-.83,2.63,2.63,0,0,1,1.4.32c4.1,10.11,12.15,16.72,20.49,23.06,1.68,1.28,3.91,2.09,3.68,4.81-.95,1.27-2,1.28-3.2.32-2.25-1.77-4.29-3.84-7-5C39.72,151.7,37.77,147.63,35.17,144.23Z"/><path class="cls-119" d="M28.19,134.21c0,.91.09,1.82.13,2.73l-4,1.36c-1.52.53-3,1-3.58-1.23.25-1.86,2.05-2.64,2.87-4.1a3.61,3.61,0,0,1,2.51-1.29C27.74,131.75,27.42,133.43,28.19,134.21Z"/><path class="cls-120" d="M50.25,165.19c0,1.62-.9,1.65-2.08,1.21-1.11-2.48-2.16-5,1.75-6l.15-.2C51.47,161.85,50.81,163.52,50.25,165.19Z"/><path class="cls-31" d="M21.17,136.22c.11,2.11,1.72,1.95,3.14,2.07a4.86,4.86,0,0,0-.19.84c-2.07,0-4.44.43-3.76-3A.51.51,0,0,1,21.17,136.22Z"/><path class="cls-52" d="M88.07,174.22c-4.14,1.74-8.19,2.32-11.9-1h0c1.94-1.95,4.28-.24,6.48-.55-.45-1.07-2.25-1.21-1.46-2.73a7.38,7.38,0,0,1,7.37,0,3.74,3.74,0,0,1,1,1.18C90,172.59,89.61,173.69,88.07,174.22Z"/><path class="cls-121" d="M88.07,174.22l1.39-2.76c1.63-1.66,2.8-1,3.75.75l-1,1.14c-.62,4.36-.62,4.36-3,2.71Z"/><path class="cls-122" d="M89.25,176.06c3.44,1.79.8-3.11,3-2.71a8.84,8.84,0,0,0,0,.89,2.53,2.53,0,0,1,0,2.89l.87,2.05C91.27,178.84,89.32,178.61,89.25,176.06Z"/><path class="cls-122" d="M81.21,170.12c.74,2.19,5,0,4.27,2.52-.75,2.73-3.72,1.44-5.92.86a19.85,19.85,0,0,0-3.38-.3l-14-5c-2.9.74-3.79-2.53-6.07-3-.21-2.45,1.28-3.29,3.36-3.58,6.49,2.07,12.64,5.17,19.42,6.43C80,168.23,81.27,168.5,81.21,170.12Z"/><path class="cls-123" d="M59.16,162.22a5.44,5.44,0,0,0-3,3c-.29,0-.58,0-.87,0-1.22-1.07-1.16-2.38-.72-3.77a3,3,0,0,1,3.35-1.75C58.93,160.22,59.61,160.93,59.16,162.22Z"/><path class="cls-124" d="M51.16,169.2c.33-.66.67-1.31,1-2a.85.85,0,0,1,0-1.34,2.45,2.45,0,0,1,2.92.19C57.07,171.27,52.67,168.42,51.16,169.2Z"/><path class="cls-125" d="M55.09,166.08l-2.91.19c-1.29-1.7.08-2.89.79-4.21a4.42,4.42,0,0,1,.92-1,1.27,1.27,0,0,1,1.25.11c0,1.34.07,2.67.1,4C55.18,165.51,55.13,165.79,55.09,166.08Z"/><path class="cls-126" d="M54.15,162.17c-.5,1.44-2.16,2.32-2,4.1,0,.32,0,.64,0,1l-1.92-2c-1.91-1.58-.23-3.29-.18-4.95l1.14.06C52.72,160.08,53.45,161.09,54.15,162.17Z"/><path class="cls-127" d="M171.18,89.2l-4,0a4.43,4.43,0,0,1-1.25-3.17c-.62-10.22-4.86-19.27-9-28.35a1.62,1.62,0,0,1,.28-1.5h0l6-2a8.43,8.43,0,0,1,0,.87c2.65,8.22,6.33,16.09,7.46,24.82C171.07,83,170.93,86.11,171.18,89.2Z"/><path class="cls-128" d="M177.29,88.39c-1.49,1.49-3,3.44-4.27-.19l1-1.14,1.16.17C175.54,88.26,176.5,88.15,177.29,88.39Z"/><path class="cls-9" d="M176.16,75.22c1.82,1.76.68,4,1,6C175.36,79.47,176.48,77.23,176.16,75.22Z"/><path class="cls-129" d="M115.17,78.22c-3.65.2-5.13-2.66-7-5,2.5-7,6.81-13,11-19,2.42-1.44,3.69.57,5,1.85,3.31,3.25,5.67,7.24,8.06,11.18-3.47,3.55-8.06,5.3-12.27,7.67A52.59,52.59,0,0,0,115.17,78.22Z"/><path class="cls-130" d="M123.19,46.24l5-8c.67-1,1.58-2.11,2.79-1.37,8.14,5,15.87,10.44,20.22,19.39l-8,5c-2,.54-3.22-.8-4.1-2.08C135,53.28,129.46,49.34,123.19,46.24Z"/><path class="cls-131" d="M123.19,46.24c6.7.56,10.91,5,14.79,9.76a22.76,22.76,0,0,0,5.18,5.23,67.46,67.46,0,0,1-11,6c-3.38-1-3.92-4.54-5.88-6.81-2.1-2.45-3.68-5.42-7.18-6.22C119.49,51,122.15,49.05,123.19,46.24Z"/><path class="cls-66" d="M131.18,32.23c.6-2.2,2.78-3.6,3-6,9.94,7,19.47,14.4,26,25l-3,2c-1.76,1.09-3.22.55-4.29-1-5.21-7.52-12.22-13-20-17.64A4.48,4.48,0,0,1,131.18,32.23Z"/><path class="cls-132" d="M131.18,32.23c9,5.05,17.22,11,22.92,19.81.78,1.19,1.89,1.16,3.05,1.18-1.49,2-4.08,1.8-6,3a98.32,98.32,0,0,0-19.41-18,3,3,0,0,0-3.6,0C128.37,35.83,130.54,34.42,131.18,32.23Z"/><path class="cls-75" d="M157.14,56.2c0,.35,0,.69,0,1,.33,2.14-1.66,2.49-2.73,3.55-1.93,1.11-4,1.91-5.88,3.21-2.09,1.32-4.28,2.47-6.29,3.92-3.13,1.45-6,3.35-9,5.08-5.84,3-11.32,6.65-17.12,9.75a2.14,2.14,0,0,1-2-.51c-1.88-2.63,2.16-2.27,2-4,3.42,0,5.68-2.51,8.39-4C135.47,68.28,146.29,62.22,157.14,56.2Z"/><path class="cls-133" d="M169.32,48.17c-1.59-.14-2.11,1.38-3.18,2-.39-.73-.78-1.46-1.16-2.19l1.3-1.68A3.31,3.31,0,0,1,169.32,48.17Z"/><path class="cls-134" d="M138.26,26.13c.65-1.58-3.12-1.92-1.1-3.89,1,1.12,2.41,2.05,2,3.9l-.46,0Z"/><path class="cls-135" d="M96.19,18.24c-.72-5,2.53-5.23,6.1-5.07,2.35.22,4.84-.62,7,1-1.09.85-2.25.69-4.09.15,1.31.69,2.38.18,3,1,5,1.9,10.39,2.56,15.26,5.05a42.62,42.62,0,0,1,6.74,3.92,1.28,1.28,0,0,1-.09,1.51c-1.11,1.16-2.44.94-3.69.42a87.32,87.32,0,0,0-28-6.81A3.92,3.92,0,0,1,96.19,18.24Z"/><path class="cls-136" d="M108.16,15.25c-1-.2-2.22.43-3.22-.84l4.35-.27,1.85.14C110.41,15.42,109.24,15.18,108.16,15.25Z"/><path class="cls-134" d="M130.17,25.23c0-.34,0-.67,0-1l.8-1.89c2.15-1,1.53,1.21,2.22,1.9-1.19,4.67-3.83,8.5-7,12-.91.37-1.27-.2-1.54-.91-.15-2,1-3.56,1.77-5.28C127.18,28.08,129,26.93,130.17,25.23Z"/><path class="cls-65" d="M133.18,24.23,131,22.33c-.61-.38-.84-.76,0-1.1,3.13.44,1.19-3.34,3.19-3.84.76,1.17,1.47,2.35,1,3.84Z"/><path class="cls-134" d="M135.17,21.23a6.35,6.35,0,0,1-1-3.84l1-.08C135.64,18.62,137,19.94,135.17,21.23Z"/><path class="cls-137" d="M127.2,30.24q-1,2.51-2,5a1.86,1.86,0,0,1-1.41.47c-6.48-1.74-12.68-4.44-19.36-5.56-5.1-.86-5.59-.58-5.82,4.66,0,3,0,6.05,0,9.07a9.5,9.5,0,0,1-.87,5,1.09,1.09,0,0,1-1.49.36q0-12.51,0-25A3.62,3.62,0,0,1,99.78,22C109.47,22.9,119,24.43,127.2,30.24Z"/><path class="cls-138" d="M127.2,30.24c-7.19-2.41-14.35-4.92-21.82-6.46-3.15-.66-6.19-1-9.19.45v-6c10.47-.35,20.29,2.36,29.81,6.42,1.37.59,2.62,1.53,4.17.57C130,27.35,128.47,28.74,127.2,30.24Z"/><path class="cls-139" d="M124.18,35.25l1,0,1,1Q116.6,53.41,107,70.54a8.88,8.88,0,0,1-1.75,1.71c-3-.78-5.84-2.2-9-2l0-1a3.71,3.71,0,0,1,1.85-1c7.44,2.15,8.51-4.25,11.25-8.4A118.54,118.54,0,0,0,115.49,49c2.43-3.06,3.88-6.7,6-10C122.42,37.83,122.87,36.23,124.18,35.25Z"/><path class="cls-140" d="M98.17,69.2h-2q0-10,0-20l1,0c2.45,2.9,1,6.39,1.43,9.59C98.35,62.27,99.27,65.78,98.17,69.2Z"/><path class="cls-132" d="M163.16,93.23l1,1a45.38,45.38,0,0,1-7,31c-1.68-1-3.69-1.4-5-3s-1.09-3.07-.41-4.7c2.7-6.45,5.34-12.9,5.26-20.09A4.13,4.13,0,0,1,158.77,94a2,2,0,0,1,2.39.19Z"/><path class="cls-141" d="M154.16,60.21l3-3c5.17,5.74,6.4,13.27,8.81,20.19a27.07,27.07,0,0,1,1.17,11.79,2.71,2.71,0,0,1-3,0,3.16,3.16,0,0,1-3,.75,2.31,2.31,0,0,1-1.25-.92c2.19-8.56-2.23-15.77-4.83-23.35C154.48,63.94,152.68,62.35,154.16,60.21Z"/><path class="cls-142" d="M161.16,94.19l-2,0a9.58,9.58,0,0,1-6,1.45c-2.36-.13-4.73.15-7.09,0-4.61-.18-9.22.19-13.82,0-3-.16-5.92-.17-8.89-.13-2.23,0-4.4.29-5.13,2.9s1.38,3.4,3,4.44a6.86,6.86,0,0,1,2.21,1.94,2.41,2.41,0,0,1,.07,2.14c-4.53.4-8-2.89-12.17-3.6-.66-.68-.95-1.67-.22-2.18,2.76-2,3.31-5.29,5.14-7.8,3.86-1.54,10.37-1.62,14.86-.44-4.75-1.5-9.8,0-14.58-1.2a11.05,11.05,0,0,1-2.4-8.51c0-.33,0-.66,0-1l2,0a5.63,5.63,0,0,1,2,3.36c.88,2.71,2.75,3.63,5.4,3.1a13.6,13.6,0,0,1,7.83.7,16.62,16.62,0,0,0,7.74,1.47c7.15.44,14.36-.93,21.46.78l.65.66Z"/><path class="cls-142" d="M161.13,89.25h3a2.88,2.88,0,0,1-2.95,3l-.05,0c-.54-.6-.4-1.35-.49-2A1.16,1.16,0,0,1,161.13,89.25Z"/><path class="cls-143" d="M93.13,41.23v3c-2,1.88-4.75,1.13-7.12,1.73a58.1,58.1,0,0,0-12.6,4.58,12.39,12.39,0,0,1-6.08-10.85A57.79,57.79,0,0,1,87.47,33c2-.26,4-.28,5.65,1.21,0,1.34,0,2.68,0,4C92.36,39.23,92.11,40.23,93.13,41.23Z"/><path class="cls-144" d="M73.18,50.22c5.68-5.22,12.7-6,19.95-6,0,7.06-.1,14.12.09,21.18.09,3.12-1.16,4.18-4,3.82.89-3.26,2.07-6.41,1.76-9.95-.28-3.21-1.69-4-4.54-3.09-2.64.86-5.13,2.32-8.06,2a5.35,5.35,0,0,1-1.4-.46C74.66,55.74,72.54,53.66,73.18,50.22Z"/><path class="cls-145" d="M93.12,34.22c-9.32-.94-17.32,3.85-25.92,6-2.14-.67-3-2-2.37-4.25,6.68-5.59,14.92-6.75,24.16-8.41a39.53,39.53,0,0,0-12,2.06c-2,.58-4.32,1.54-5.23-1.65,2.65-4,7.15-2.91,10.85-4,1.78-.11,3.62.11,5.26-.86,1.76-.73,3.51-1.35,5.21.11Z"/><path class="cls-146" d="M83.17,25.23c-3.71.84-7.7.63-11,3-3,2.14-6.06,4.18-10,3.81-2.26-1.18-3.84-2.78-3.31-5.61,8.84-3.8,17.59-8,27.44-8.42,3-.13,3.53-1.81,3.93-4a3.15,3.15,0,0,1,2.88.25c0,3,0,6,0,9a8.31,8.31,0,0,0-4.93,1C86.68,25.41,84.66,24,83.17,25.23Z"/><path class="cls-147" d="M77.18,57.23c2.4.28,4.58-.61,6.73-1.44,7.92-3,8.19-2.82,8.3,5.72,0,3.08.08,6-3,7.71a8.12,8.12,0,0,1-5,1C80.75,66.48,77.72,62.52,77.18,57.23Z"/><path class="cls-148" d="M82.21,78.24c3.59-1.47,6.49-4.38,10.61-4.81,3.28-.33,6.29-.28,8.44,2.7l-.46.48c-2.59,0-3.44,2.18-4.64,3.89-3.08.57-4.28,4.73-8,4.18-2.73-.92-3.57-4.06-6.12-5.2A1,1,0,0,1,82.21,78.24Z"/><path class="cls-149" d="M93.08,14.21l-2.89,0a7.52,7.52,0,0,1-5,2,71.93,71.93,0,0,0-24.18,7,5.21,5.21,0,0,1-2.88.57c-1.27-.46-1.83-1.22-1-2.51,2.75-1.94,6.59-1.4,9.06-4l6.08-2,9.84-2.1C85.76,13.8,89.61,11.94,93.08,14.21Z"/><path class="cls-150" d="M83.17,71.21c2.1,2.72-1,2.82-2,4-1.49,2.14-2.64,4.61-5.35,5.59-3.35-.49-6.13-1.72-6.86-5.49,1.47-1.36,2.78-.29,4,.35,2,1,3.43.11,4.78-1.3s1.43-3.07.48-4.93c-1.86-3.62-5-6.6-5.48-10.93A2.32,2.32,0,0,1,74.16,57c1.47-.08,2,1.11,2.72,2C79,63,82.14,66.58,83.17,71.21Z"/><path class="cls-151" d="M76.12,80.26a16.3,16.3,0,0,1,5-5.05c1.75.53-2.27,3,1,3,0,.31-.06.63-.07,1-.56,3.5-4.21,5.59-4.25,9.33a2.09,2.09,0,0,1-1.06,1c-3-.78-2.79-3.11-2.6-5.43A11.63,11.63,0,0,1,74.9,82,7.22,7.22,0,0,1,76.12,80.26Z"/><path class="cls-152" d="M83.17,71.21l-7-12c-.7-1.17-.69-2,1-2h0l7,13Z"/><path class="cls-153" d="M110.16,82.24l1,1c2,.95,2.29,2.55,1.83,4.49a4.94,4.94,0,0,1-1.17,1.87,14.5,14.5,0,0,1-5.61,3,5,5,0,0,1-3.36-1.11c-.67-.73-1.2-1.5-.67-2.55a2.09,2.09,0,0,1,1.26-.67c4.22.09,6.72-1.33,5.56-6.12A.86.86,0,0,1,110.16,82.24Z"/><path class="cls-154" d="M112.13,88.19a7.29,7.29,0,0,0-1-4.93l3,0a12.41,12.41,0,0,1,2.06,8l-.66.16A11.63,11.63,0,0,1,112.13,88.19Z"/><path class="cls-154" d="M110.16,82.24c-.31,0-.62-.07-.92-.08a3.13,3.13,0,0,1-2-1.46c-.7-1.71-3.19-2.15-3.12-4.41C109.28,75.08,109.89,75.67,110.16,82.24Z"/><path class="cls-148" d="M104.09,76.29c1.33,1.34,3.41,1.92,4,4a2.76,2.76,0,0,1-2.79.57c-2-1-4.09-1.86-4.17-4.59l.13-.14Z"/><path class="cls-144" d="M93.13,41.23c-3-1-1.52-2,0-3Z"/><path class="cls-155" d="M77.16,57.24a2,2,0,0,0-1,2l-2-2a114.06,114.06,0,0,1-10.3-16.75c-1.89-3.67-4.23-7.09-6.3-10.65-.59-1.94-3-3.1-2.46-5.52,0-.37,0-.74.05-1.1l2-1.95a2.25,2.25,0,0,0,.94,2,2.77,2.77,0,0,1,1.08,3c.23,2.12,1.71,3.5,3,5,1.64,1.27,3.54,2.4,3,5-.15,1.75,1.42,2.63,2,4q3,5,6,10Q75.16,53.73,77.16,57.24Z"/><path class="cls-156" d="M55.15,24.3c.79,1.78,3.09,2.61,3.05,4.9a.91.91,0,0,1-.28,1.22l-.69.15c-3.26-2.63-5.92-1.88-9,.79-5.29,4.58-10.62,9-14.81,14.73-.94,1.27-1.8,3.52-4.25,2.13a57.72,57.72,0,0,1,12.93-16c3.18-2.55,6.08-5.52,10-7Z"/><path class="cls-157" d="M23.2,126.15l-2-3-1.8-5c-1-1.12-1.3-2.63-2.18-3.82-.45-1.48-.79-3-1.17-4.49-1-4.17-1.4-8.44-2.13-12.66.41-6.51,2.89-7.77,10.87-5.55A1.94,1.94,0,0,1,25.7,93a2.33,2.33,0,0,1-.46,1.53c-3,1.27-3.86,3.54-3.77,6.71a57,57,0,0,0,4.3,20.19c.87,2.11,2.19,4.11,1.69,6.58C25,129.81,24.33,127.44,23.2,126.15Z"/><path class="cls-158" d="M25.13,92.25c-1.46-.09-2.93-.11-4.38-.29-4-.51-6.27.8-5.57,5.27-1.74,1.37-3,.52-4.23-.84-.49-.47-1.18-.71-1.54-1.34C7.73,93.81,8.13,92,8,90.28l2.38-1.9c1.57-.61,3.28,2.42,4.77-.19-.68-1.71-1.53-3.43.17-5.06,1.94-.12,1.66,1.56,2,2.63.47,1.37.72,2.85,2.62,2.88,1.81-.3,3.62-.87,5.44-.06,1.43,1,1.32,2.32.89,3.74A.87.87,0,0,1,25.13,92.25Z"/><path class="cls-159" d="M11,95.4c1.31.78,2.32,2.24,4.15,1.83q1,6.49,2,13c-3-.36-4.09-2.63-5.07-5a2.18,2.18,0,0,1-.07-.84C12.09,101.33,10.16,98.53,11,95.4Z"/><path class="cls-160" d="M12.14,105.21l5.07,5c.54,1.3,1.23,2.57,1,4.07-1.89.67-2.09-1.24-3-2C15.51,109.34,10.46,108.7,12.14,105.21Z"/><path class="cls-160" d="M11,95.4c.51,3,1.94,5.83,1,9-2.22-2.73-2-6.14-2.66-9.32Z"/><path class="cls-161" d="M15.14,112.28l3,2c.42,1.28.83,2.56,1.24,3.84C17.6,116.47,14.84,115.5,15.14,112.28Z"/><path class="cls-162" d="M16.09,83.09c-1.5,1.49-.59,3.4-.91,5.1l-4-3c1.67-3.5.15-7.56,1.9-11,.66-2,1.33-4,2-6,1.31.94,2.62,1.16,4,0C20,73.5,18.07,78.31,16.09,83.09Z"/><path class="cls-163" d="M73.19,58.22c1.75,3.17,3.37,6.41,5.3,9.46,1.6,2.53,3.46,4.37.4,7.58s-5.43,2.7-8.3.27c-.33-.28-1-.2-1.43-.29-1.14.62-2,.65-2-1-2.47-2.69-6.08-3.56-8.91-5.64-1.41-1-3.36-1.5-4.1-3.37,3.18-6.61,7.75-11.7,15.12-13.68A7.94,7.94,0,0,1,73.19,58.22Z"/><path class="cls-164" d="M46.18,61.22c-1.67-1-3.69-1.4-5-3a2.39,2.39,0,0,1,.29-2.37A66.24,66.24,0,0,1,58.9,38.91a3.45,3.45,0,0,1,3.37-.17c2.26,2.33,4.21,4.83,4.45,8.25A152.89,152.89,0,0,0,50.17,63.23l-3-1c2.8-6.62,8.19-11,13.63-15.42C54.55,50.31,51.1,56.52,46.18,61.22Z"/><path class="cls-66" d="M29.17,48.22c2.79-.88,3.7-3.54,5.33-5.54,5-6.08,11.16-10.86,17.39-15.53,3.81-2.86,3.1,2.74,5.28,3.08-9.09,6.53-16.63,14.67-24,23-2.72,0-4.14-1.56-5-3.92C28.53,49,28.85,48.59,29.17,48.22Z"/><path class="cls-165" d="M62.16,39.23c-3.44-.35-5.44,2.36-7.43,4.2C49.82,48,44.58,52.28,41.18,58.22l-5-3C40.69,45.9,48.45,39.7,56.74,34a2.79,2.79,0,0,1,2.41-.26C60.92,35.17,62.47,36.69,62.16,39.23Z"/><path class="cls-166" d="M50.17,63.23a35.93,35.93,0,0,1,16-16c2.82.57,3.36,2.51,3,5-6.69,2.41-10.43,8.21-15,13C52.46,65.32,50.94,65,50.17,63.23Z"/><path class="cls-167" d="M59.17,34.24A55.58,55.58,0,0,0,39.51,51.7c-1,1.37-1.77,2.79-3.34,3.54l-1-1c-.68-2.67,1.22-4.58,2.58-6.1C43.53,41.65,49.3,35,57.29,31,59.11,31.37,59.71,32.48,59.17,34.24Z"/><path class="cls-168" d="M57.18,31.22c-3.48,3-7,5.88-10.43,9-4.51,4.14-8.81,8.48-11.6,14.06a2.15,2.15,0,0,1-2-1c6.06-9.7,13.47-18,24-23h0c.3.22.4.44.31.66S57.28,31.22,57.18,31.22Z"/><path class="cls-77" d="M24.14,53.29c0-.36,0-.71.05-1.07,10.71,4.41,20.94,9.67,30,17l-.53.48c-4.54.8-7.24-2.9-10.84-4.4A73.87,73.87,0,0,0,34,60.38,23.14,23.14,0,0,1,31.82,59a25.29,25.29,0,0,0-2.26-1.29c-2.38-2.55-4.28.62-6.45.54,0-.67,0-1.33,0-2C22.59,54.94,23.43,54.14,24.14,53.29Z"/><path class="cls-166" d="M46.18,61.22C50.06,53.77,55.56,48,63.57,44.84,57.9,50.45,52.35,56.15,47.19,62.21Z"/><path class="cls-169" d="M67.17,74.24a2.11,2.11,0,0,0,2,1,12.45,12.45,0,0,0,7,5c0,.64,0,1.28,0,1.91a3.23,3.23,0,0,1-2.72.68C69.8,81.19,66.67,78.66,63.06,77a90.94,90.94,0,0,1-8.22-5.19c-.6-.76-1.21-1.53-.66-2.58h0c3.24-.22,5.18,2.52,7.92,3.48C63.77,73.29,65.26,74.42,67.17,74.24Z"/><path class="cls-127" d="M23.11,58.22c2-2.86,4.11-4.93,7.07-1,.05,3.94-2.58,7-3.65,10.52-1.19,3.93-2.8,7.73-3.49,11.81-.85,3.58-.41,7.5-2.85,10.64-5.71.15-3.44-4.31-4.1-7.08C16,77.91,17.62,73,19,68.15c.28-.67-1-1.4.08-2C21.43,64,20.66,60.29,23.11,58.22Z"/><path class="cls-170" d="M24.14,53.29l-1,2.93c-2.58-.28-.5-2-.93-3Z"/><path class="cls-171" d="M23.2,126.15c1.38.56,2.17,2.28,4,2A5.76,5.76,0,0,1,30,125.53c1.73-1,3.31-2.14,5.07-3,1.67-.71,3.18-1.9,5.16-1.6a2.19,2.19,0,0,1,1.25,1.62c-2.81,4.63-8,5.5-12.31,7.68l-.93.07c-.67.68-1.11,1.6-2.1,1.93l-2,1.05a1.7,1.7,0,0,1-1.8.4,4.48,4.48,0,0,1-2.06-2.43c.88-2,3.07-.31,4.26-1.52Z"/><path class="cls-119" d="M20.26,131.22a1.79,1.79,0,0,1,1.92,2c-.1,1.79-1.09,1.63-2.28,1a2,2,0,0,1-.69-.07C19.18,133.07,18.87,131.85,20.26,131.22Z"/><path class="cls-172" d="M19.9,134.26a2.46,2.46,0,0,0,2.28-1l1.94,0c0,2-1.09,2.85-2.95,3l-.81-.09C20.21,135.51,20.06,134.89,19.9,134.26Z"/><path class="cls-173" d="M131.17,159.2c-4.89.59-8.86,3.62-13.45,5-6.71,2-13.49,3.45-20.55,3-3-.93-.85-3.25-1.32-4.87,1.54-1.8,3.76-2.07,5.84-2.22a59.66,59.66,0,0,0,21.8-5.85,6.16,6.16,0,0,1,4.28-.78C130,154.73,132.42,155.88,131.17,159.2Z"/><path class="cls-174" d="M131.17,159.2c.09-2.32-2.29-3.16-3-5a13,13,0,0,1-3-3.6,59.07,59.07,0,0,0-4.8-8.06c-1.6-3-3.14-6-5-8.88-1.61-2.77-3.3-5.5-5-8.24-2.6-4.37-4.69-9-7.62-13.22,0-1.57.38-2.86,2.15-3.25,2.35,1.9,3.47,4.88,5.84,6.77a27.73,27.73,0,0,1,3.37,5.31c2.12,6.19,4.8,12,9.85,16.49,1.24,1.3,1.71,3,2.34,4.6A85.2,85.2,0,0,0,132.81,156c1.75,3.11,1.29,3.76-1.67,4.16Z"/><path class="cls-175" d="M131.14,160.11c3.82-.78,1.05-2.85.46-3.82a56.47,56.47,0,0,1-6.44-14.12,1.25,1.25,0,0,1,1.26-.2c1.79,1.16,2.28,3.26,3.5,4.84,1.3,2,2.37,4.17,3.8,6.11,1,1.27.87,2.9,1.42,4.32l2.29,1.15a.56.56,0,0,1-.3.8c-1.14.34-.91.68,0,1l1.22,1.83c-1.7,1-5.77-.33-4.15,4.08-1.83-1-.11-5-3.8-4.53Z"/><path class="cls-176" d="M96.19,162.2c.22,1.69-.68,3.6,1,5,0,.69,0,1.38,0,2.06-3.9.55-1.82-2.48-1.83-3.61-.17-15.81-.13-31.62-.14-47.43a1.17,1.17,0,0,1,1.61.47c1.7,6.84.38,13.79.83,20.68q0,8.63,0,17.25C97.58,158.61,97.67,160.6,96.19,162.2Z"/><path class="cls-177" d="M93.18,133.22q0,8,0,16c.47,6.72,1.38,13.46-.46,20.13-1.5-.42-1.6-1.72-1.84-2.93-.12-3-.14-6-.18-8.93.13-1.16,0-2.33,0-3.49.21-3.16-.14-6.33,0-9.49a71.72,71.72,0,0,1,.25-9.27,3.1,3.1,0,0,1,1.32-2.08Z"/><path class="cls-178" d="M92.25,169.29c2.11-6.6.35-13.39.94-20.06,2.19,5.06.46,10.37,1,15.54.17,1.79,0,3.62,0,5.44a1.48,1.48,0,0,1-1.88.3A.92.92,0,0,1,92.25,169.29Z"/><path class="cls-179" d="M96.15,118.2l-1,0a7.63,7.63,0,0,0-1,0l-.61-.4a4.37,4.37,0,0,1-1-4.1,2.3,2.3,0,0,1,4.55-.13C97.46,115.25,97.56,116.88,96.15,118.2Z"/><path class="cls-180" d="M92.26,177.13c0-1,0-1.92-.05-2.89,1.59,3.25,3.25-1.87,4.84,0C97.51,178.7,95,178,92.26,177.13Z"/><path class="cls-181" d="M94.2,118.19c-.58,5,1.14,10.14-1,15h0c-2.61-5.39-2.15-12.25,1-15.06Z"/><path class="cls-122" d="M92,170.08l2.15.13a2,2,0,0,1-1,2,5.16,5.16,0,0,0-3.75-.75c-.17-.16-.34-.32-.5-.49.11-1.14.9-1.41,1.87-1.45A2.63,2.63,0,0,1,92,170.08Z"/><path class="cls-164" d="M146.17,94.22h7c-.36,8.87-1.72,17.46-7,25-2.66-2.49-6.78-2.79-9-6-1.4-2,0-3.77.58-5.54.93-2.61,2.28-5.15,2.53-7.91C140.63,96,142.58,94.35,146.17,94.22Z"/><path class="cls-182" d="M146.17,94.22a6.5,6.5,0,0,0-4.48,5.43c-.91,4.64-3,9.06-4.52,13.58l-8-3c-1.86-.24-3.32-1.45-5-2.07a2.79,2.79,0,0,1-1-1c0-.65,0-1.3,0-2a8.11,8.11,0,0,1,1.34-3.12c1.92-3,3.11-2.37,3.79.82,1.93-2.57.72-6.19,2.86-8.68Z"/><path class="cls-183" d="M157.16,125.21a112.59,112.59,0,0,0,7-31c3.79-.56,5.42.77,5.06,4.86-.87,9.94-2.95,19.48-8.09,28.17A5.91,5.91,0,0,1,157.16,125.21Z"/><path class="cls-184" d="M146.17,119.18c1.4-6,4.41-11.52,5.22-17.76.3-2.38-.7-5.29,1.77-7.2h6a9.11,9.11,0,0,0-1,5.25c.25,6.54-2.4,12.28-5.09,18a10.67,10.67,0,0,0-.92,4.78C149.77,122,148.35,119.84,146.17,119.18Z"/><path class="cls-185" d="M124.16,107.24c2.08.29,3.92,1,5,3,3,3.9,7.33,5.86,11.42,8.22,1.55.89,3.05,1.86,4.57,2.79a2.13,2.13,0,0,0-2,1l-.6.31c-3.55-.37-5.53-3.69-8.77-4.65-2.6-2-6.29-2.68-8-6C126.63,109.83,123,109.41,124.16,107.24Z"/><path class="cls-173" d="M135.14,157.24a6.07,6.07,0,0,1-2-4,2.65,2.65,0,0,1,.52-3.94c8-6,14.06-13.69,20.51-21.11,1.67,1,3.7,1.39,5,3a70.13,70.13,0,0,1-20.53,22.68C137.3,154.88,135.89,155.68,135.14,157.24Z"/><path class="cls-114" d="M137.13,159.19a3.66,3.66,0,0,1,.3-.8L142,156A4.18,4.18,0,0,1,137.13,159.19Z"/><path class="cls-186" d="M154.16,128.22a56,56,0,0,1-13.83,17c-2.74,2.34-6.64,3.76-7.2,8.09-2.3-1.38-2.66-4-4-6.07-1.11-1.71-.08-3,1.18-3.72,7.8-4.3,12.08-12,17.81-18.26C150.56,125.42,152,127.58,154.16,128.22Z"/><path class="cls-184" d="M148.16,125.22c-.35,4.32-3.94,6.65-6.3,9.59-2.93,3.64-5.9,7.5-10.55,9.33a3.15,3.15,0,0,0-2.14,3.06l-3-5c-1.07-1.39-.4-2.67.64-3.48,6.2-4.8,11-10.93,16.39-16.54v0C145.47,122.15,146.33,124.48,148.16,125.22Z"/><path class="cls-36" d="M172.11,113.2h-1a18.13,18.13,0,0,1,2-8.07A18.6,18.6,0,0,1,172.11,113.2Z"/><path class="cls-123" d="M54.15,162.17l-2.94-1.87c0-.7,0-1.41,0-2.12,1.07-.11,2.28.21,3-1a4.59,4.59,0,0,1,1.1-3.6,11.83,11.83,0,0,0,2.21-3.75,16.11,16.11,0,0,1,2.85-5.1c1.49-1.94,2.35-4.3,4-6.11a2.08,2.08,0,0,1,1.91-.68,2.17,2.17,0,0,1,1.24,1.67c-3.49,7.78-6.53,15.85-13.32,21.6C54.21,161.55,54.18,161.86,54.15,162.17Z"/><path class="cls-187" d="M35.17,144.23q4.52,4.49,9,9C37.85,153.59,36.52,148.9,35.17,144.23Z"/><path class="cls-188" d="M56.17,154.19c-.66,1-1.31,2-2,3-5.9-4.49-12.07-8.7-16.91-14.42C35,140,32.89,137,30.55,134.24c-1.15-1.36-1.33-2.56-.37-4a2.6,2.6,0,0,1,3-1.52c4.45,3.57,7.25,8.53,10.8,12.87,2.65,3.58,6.59,5.76,9.64,8.9C54.63,151.55,56.63,152.05,56.17,154.19Z"/><path class="cls-189" d="M33.21,129.22l-3,1-1,0c3.21-3.87,8.74-4.21,12-8a3.88,3.88,0,0,1,2.93-1.81,2.93,2.93,0,0,1,2,.48,1.57,1.57,0,0,1,.31,1.27c-.92,1.35-2.52,1.74-3.73,2.68a36.85,36.85,0,0,1-3.84,2.23c-.92.51-1.74,1.17-2.62,1.73S34.32,129.78,33.21,129.22Z"/><path class="cls-189" d="M26.14,132.2a3.33,3.33,0,0,1,2.1-1.93c0,1.31,0,2.62,0,3.94Z"/><path class="cls-190" d="M91.12,170,89,171c-2.5-1.05-5.16-.69-7.75-.85-7.5-2.22-15.22-3.82-22-7.9-.33-.67-.66-1.35-1-2a1,1,0,0,1,.32-1.42,5.31,5.31,0,0,1,4.8.34c7.87,3.81,16.33,5.44,24.86,6.82C90.49,166.31,92.56,166.89,91.12,170Z"/><path class="cls-191" d="M58.18,159.2v1l-3,1-.91,0c5.08-6.91,8.69-14.69,12.89-22.11-.25-.94.33-1.24,1.08-1.42a2,2,0,0,1,1.27.55c.71,1.47,0,2.74-.54,4a52.6,52.6,0,0,1-3,5.28,49.41,49.41,0,0,0-3.15,5C61.38,154.9,60.79,157.76,58.18,159.2Z"/><path class="cls-192" d="M131.14,90.2a24.56,24.56,0,0,0-8.21-.12c-6.31,1.16-5.9-4-6.78-7.88,5-4.38,11-7.25,17-10a2.19,2.19,0,0,1,1.9.25c3.62,2.68,6.62,12.63,5.18,17.12C137.31,91.44,134.17,90,131.14,90.2Z"/><path class="cls-193" d="M142.15,67.2c1.29-2.39,4-2.67,6-4a1.89,1.89,0,0,1,3,.74,33.37,33.37,0,0,1,4,25.68,9,9,0,0,1-7.52.28c-2.1-1.5-1.88-3.86-1.84-5.91C145.91,78.09,143.78,72.71,142.15,67.2Z"/><path class="cls-194" d="M142.15,67.2c5.88,6.36,4.53,14.38,5,22a5.14,5.14,0,0,1-7,0c-.82-6.29-2.34-12.29-7-17A20.28,20.28,0,0,1,142.15,67.2Z"/><path class="cls-137" d="M155.18,89.15c-1.28-7.5.35-15.49-4-22.48-.84-1.36-.9-3.27-3-3.45a11.27,11.27,0,0,1,6-3,175,175,0,0,1,7.19,19.24c1.1,3.58,1.32,6.74-1.18,9.73A3.31,3.31,0,0,1,155.18,89.15Z"/><path class="cls-140" d="M122.17,39.23c-1.55,3.6-2.73,7.43-6,10-5.89-3.37-12.74-3.1-19-5,0-3.34,0-6.67,0-10,1-1.93,2.78-1.4,4.39-1.36C109,33.08,115.79,35.52,122.17,39.23Z"/><path class="cls-195" d="M97.17,44.23c6.8-.06,13.71-.59,19,5-1,4.21-3.64,7.52-6,11-1.28-.49-2-1.66-3.06-2.45-4-3-5.51-2.84-8.64,1.13a1.07,1.07,0,0,1-1.3.31c0-3.33,0-6.67,0-10Z"/><path class="cls-196" d="M122.17,39.23c-5.32-.16-9.57-3.81-14.78-4.48a44.81,44.81,0,0,0-10.21-.52c0-6.45.71-7,6.85-5.56,6.91,1.6,13.87,3,20.15,6.58C124.26,37,124,38.47,122.17,39.23Z"/><path class="cls-197" d="M97.18,59.22c1.81-1.37-.05-5.79,4.47-5.06,4,.64,7.19,1.92,8.53,6.07-.44.88-.91,1.74-1.31,2.64-2.05,4.68-4.33,9-10.7,6.33C96.4,66,97.46,62.55,97.18,59.22Z"/><path class="cls-198" d="M155.18,89.15l5,0c.32,0,.64.06,1,.07,0,.33,0,.66,0,1-6.14,2.11-12.5.37-18.71,1-1.41.16-3.3-1.37-4.27.92a9.84,9.84,0,0,1-7-2c2.83-2,6-.52,9-1l7,0Z"/><path class="cls-199" d="M131.16,94.23a24,24,0,0,1-2.95,12.93c-1.71-2.1-.55-4.25-1.31-6-2.15.61-1,4.11-3.73,4.06-1.48-.73-3-1.51-4.46-2.19-1.86-.86-3.09-2-2.24-4.24s.94-4.7,4.25-4.58C124.2,94.33,127.68,94.23,131.16,94.23Z"/><path class="cls-200" d="M138.16,92.19l-2.73-2h25.71c1.11.65.14,1.32,0,2Z"/><path class="cls-201" d="M124.16,107.24c.17,1.58,3,1.89,2,4a2.3,2.3,0,0,1-2.07.52c-4.26-1.82-8.13-4.36-12.2-6.53a1.74,1.74,0,0,1,.3-2.06c4.28-.35,7.66,1.78,11,4C123.51,107.2,123.83,107.22,124.16,107.24Z"/><path class="cls-202" d="M112.16,103.2c0,.66,0,1.32,0,2,.26,3-2,4.15-4.12,5.32-1.23-.16-1.52-1-1.44-2.05,1.27-2.29,3.29-4.33,2.41-7.34a4.92,4.92,0,0,1,1-3.19,15.68,15.68,0,0,1,1.47-1.35c1.36-.91,1.91-3.06,4.09-2.77l.53.38c-.49,3-.42,6.34-4.34,7.46C111.22,101.83,111.55,102.76,112.16,103.2Z"/><path class="cls-203" d="M116.21,91.24c5.29.43,10.78-1.13,16.47,1.53-5.83,1.33-11.35-.77-16.48,1.42h0a2.06,2.06,0,0,1,0-3Z"/><path class="cls-204" d="M65.19,36.22l-3-5c3.73.34,6.25-3.34,10-3,4,2.64,6.94-1.71,10.69-1.55,2,.09,4.23-.4,6.36-.41.92,0,2.28-.28,2.38,1.07.11,1.51-1.24,1.79-2.42,1.85-2,.1-3.91.52-5.85.74C76.76,30.66,71.07,33.67,65.19,36.22Z"/><path class="cls-204" d="M83.17,25.23c1.4-1.67,3.32-.76,5-1C86.77,25.9,84.86,25,83.17,25.23Z"/><path class="cls-205" d="M59.18,26.24c-1.12-.71-1-1.89-1.08-3,10-5.62,20.81-8.12,32.09-9,2.63,3.13,1.49,4.92-2.18,4.91-9.1,0-17.14,3.53-25.18,7.08A3.7,3.7,0,0,1,59.18,26.24Z"/><path class="cls-206" d="M77.17,88.21c-.39-4.13,2.6-6.41,5-9,3.94-.6,4,3.32,6,5.07,1,1.09.55,2.29.25,3.48a6.75,6.75,0,0,1-2,3.1l-.37.31C80.15,96,79.35,95.73,77.17,88.21Z"/><path class="cls-207" d="M87.43,87.3l.69-3c1.17-1.56,4.11-.68,4.42-3.88.21-2.1,2.37-.54,3.67-.19,3-.52,4.93,1,6.6,3.17a5.21,5.21,0,0,1-.13,4.59,1.39,1.39,0,0,1-1.33.58,3.34,3.34,0,0,1-1.07-1C97.56,84,94.21,85.36,91,86.48,89.81,86.9,88.91,88.24,87.43,87.3Z"/><path class="cls-208" d="M102.11,83.24l-5.9-3c-.4-3.87.84-5.68,4.92-3.92l4.06,3.94c-.07.2-.13.4-.19.61a8.9,8.9,0,0,1-1.75,2.66A1,1,0,0,1,102.11,83.24Z"/><path class="cls-209" d="M57.18,31.22c0-.33,0-.66,0-1l1-1a198.54,198.54,0,0,1,16,28l-1,1-4-6c-1-1.67-2-3.33-3-5-.33-3.18-3-5.15-4-8l-3-5Z"/><path class="cls-210" d="M75.18,83.23c.17,2.16-.75,4.67,2,6,3,5.85,1.81,10.89-3,12.25-1.73-1.29-2.11-3.16-2.21-5.15-.07-1.18.49-2.24.78-3.54-5.32-.91-10.53.32-15.76.6a81.27,81.27,0,0,1-14.38-.51c-1.85-.24-3.47-.41-2.49-2.94a4,4,0,0,1,1.42-.78c7.7-.67,15.42-.18,23.13-.4,2.66-.08,5.31-.09,7.11-2.53C72.92,85.25,73,83,75.18,83.23Z"/><path class="cls-211" d="M74.18,101.2c5.27-2.93,2.62-7.82,3-12l0-1C79,89.69,79.68,92,81,93.9c2-1.05,2.54-3.86,5.14-3.71a1.85,1.85,0,0,1,.51,1.24c-.94,2.73-4,4.42-3.79,7.74a2.68,2.68,0,0,1-.61,1.21c-1.22.38-2.73-.28-3.67,1.06-.62.62-1.27,1.22-1.92,1.82-1.29,1.08-2.65,1.94-4.45,1.63a1.75,1.75,0,0,1-1.33-1.54C71.49,101.88,72.28,100.69,74.18,101.2Z"/><path class="cls-150" d="M75.18,83.23l-2,3a2.74,2.74,0,0,1,0-4l2.92,0Z"/><path class="cls-212" d="M101.14,88.29c.32,0,.65,0,1,0a.61.61,0,0,1,.28.87c.3.65.59,1.3.88,1.95a2.43,2.43,0,0,1,.33,2.74,1.58,1.58,0,0,1-2.47.38c-1.24-2.29-2.68-2.91-5.13-1.29-3,2-1.26,3.21.28,4.75.28.27-.18.88-.61,1.17a8.63,8.63,0,0,1-5.32.49c-2.72-.47-3.92-1.65-2.81-4.79C90.29,86.75,92.41,85.65,101.14,88.29Z"/><path class="cls-213" d="M112.2,97.19l-1.06,1c-3.57-2.06-3.39,2.91-5.77,3.08-3.66-3.2-.31-5.5,1-8.06a10,10,0,0,1-.27-1.11l5-2.89C114.08,91.54,113.63,94.3,112.2,97.19Z"/><path class="cls-214" d="M102.39,89.15a5.19,5.19,0,0,1-.28-.87v-5l1.1,0c1.92-.12,2,1.69,2.82,2.85.81-2.19-1.33-3.76-.92-5.76l.08-.1,2.91.08c.37.62.75,1.25,1.14,1.87C111.66,88.77,111.1,89.35,102.39,89.15Z"/><path class="cls-215" d="M112.2,97.19a22.24,22.24,0,0,0-1-8l1-1c2.61-.65,2.82,1.87,4.05,3v3C114,94.11,114,96.76,112.2,97.19Z"/><path class="cls-216" d="M106.12,92.1l1,.16c.94,3.92-2.1,1.84-3.46,2.3l-.53-.4.15-3.06Z"/><path class="cls-183" d="M30.19,126.23l-3,2C23,118.94,19.83,109.5,20.05,99.1c.09-4,1.31-5.45,5.13-4.89,2.39,3.49,1.47,7.65,2.23,11.47,1,5.17,1.34,10.47,3.63,15.34C31.91,122.87,32.49,124.83,30.19,126.23Z"/><path class="cls-132" d="M30.19,126.23a3.71,3.71,0,0,0,.18-3.71c-4.39-8.93-4.86-18.61-5.19-28.31,0-.32,0-.65,0-1,2.15-1.31,4.36-1.82,6.69-.46-.36,9.18.49,18.17,4,26.78a3.46,3.46,0,0,1-.71,3.68C33.69,124.51,32.29,126,30.19,126.23Z"/><path class="cls-217" d="M32.17,93.24h-7c0-.32,0-.65-.07-1l1.1-.06c1.71-1.69,3.91-1.28,6-1.29s4.2-.14,5.74-1.91c1.11-.27,2.23-.55,2.25,1.21,2.63,2.55,6.1,1.92,9.13,1.89C58.1,92,66.87,91.41,75.87,91c-.55,2.19-3.45,2.77-2.71,5.22-1.55.37-2.57-.88-3.88-1.25-10.19-.82-20.39-.1-30.57-.37C36.47,94.53,34.05,95.12,32.17,93.24Z"/><path class="cls-167" d="M20.19,90.18c.61-3.66.42-7.47,2-11,1.42,1.83,0,3.87.45,5.46,0,1,.87.35.22.5-.11,0-.16-.12-.16-.45-.07-9.13,3.94-17,7.57-25.05a2.75,2.75,0,0,1,1.93-1.46l2,1A4.33,4.33,0,0,1,34,62.6c-3.74,8.33-5.51,17.21-7.22,26.1l-.57.56C24.12,89.17,22.06,89.05,20.19,90.18Z"/><path class="cls-218" d="M38.16,89.25c.24,2.41-1.06,3.07-3.22,3-2.9-.1-5.81,0-8.72,0a2.43,2.43,0,0,1,0-2.93l0,0c3-2.22,6.33-1.39,9.61-1.25A3.58,3.58,0,0,1,38.16,89.25Z"/><path class="cls-219" d="M36.17,89.19l-10,0c-.06-10.72,3.61-20.46,8-30l9,5c.61,3.72-2,6.5-3,9.76C38.74,79,38.71,84.46,36.17,89.19Z"/><path class="cls-220" d="M36.17,89.19a53.56,53.56,0,0,1,7-25c3.73,1.54,6.56,5,11,5l1,2c-4.71,1.8-5.68,6-6.6,10.24-.59,2.71-.49,5.62-2.3,8-1.63.74-3.52-.32-5.09.75l-1,0a2,2,0,0,0-2-1Z"/><path class="cls-221" d="M32.19,58.22c-4,9.31-8.79,18.36-10,28.82V79.22a58.61,58.61,0,0,1,8-22A2.13,2.13,0,0,1,32.19,58.22Z"/><path class="cls-222" d="M41.21,90.18c1.4-1.62,3.29-.72,5-1,3.88-1.71,9.15-6.65,11.73-11,1.23-2.07,2.78-3.33,5.31-2a24.87,24.87,0,0,1,10,6c0,1.34,0,2.69,0,4-.49,3.38-2.8,4-5.75,4C58.69,90.16,50,90.19,41.21,90.18Z"/><path class="cls-144" d="M63.21,76.21c-3.84-.23-4.43,2.52-5.11,5.38-1.81,7.65-1.86,7.64-10,7.62h-2c.68-5.36,1.27-10.68,3.75-15.7,1.32-2.67,2.75-3.27,5.28-2.29C58,72.62,60.92,73.93,63.21,76.21Z"/><path class="cls-223" d="M32.17,93.24c11.44,0,22.89,0,34.33,0,1.6,0,3.36-.53,4.69.94-2.36,2.2-5.32,1.52-8.08,1.57-4.15.07-8.3.18-12.45-.08-3.22.06-6.45.09-9.67,0-4.15-.49-4.52,1.9-4.34,5.24.36,6.56,3.15,12.54,4.2,18.92a2.38,2.38,0,0,1-.68,1.39l-5,2c.28-3.77-2.27-6.71-3-10.22a142,142,0,0,1-2-15.05A5.11,5.11,0,0,1,32.17,93.24Z"/><path class="cls-224" d="M40.17,121.2c0-.31,0-.63,0-1,.93-1.38,2.45-2,3.73-3,2.88-1.55,5.5-3.74,9-3.81a1.83,1.83,0,0,1,1.49,1.37,2.7,2.7,0,0,1-.68,1.21,18.93,18.93,0,0,1-9.61,5.1l-2.94,1.06C40.86,121.89,40.51,121.55,40.17,121.2Z"/><path class="cls-225" d="M96.19,162.2v-23c3.27.85,2,3.64,2.42,5.67,0,1-.07,2-.08,3,0,8.11.41,8.59,8.44,6.5,4.44-1.16,9-1.91,13.13-4.27a5.22,5.22,0,0,1,6.06.14c.58,1.38,2.15,2.26,2,4-6.7,1.72-12.62,5.77-19.7,6.41C104.36,161,100.28,161.67,96.19,162.2Z"/><path class="cls-164" d="M97.17,145.21c-.32-2,.8-4.24-1-6q0-10.5,0-21c.07-1.68.13-3.35.19-5,1.41-1.37,3-1.25,4.74-.73.5.36,1.47,1,1,1.37-4.83,3.62-3.33,8.78-3.47,13.53.06.66,0,1.33,0,2,.41,9.52,1.51,10.22,10.71,6.88,2.34-.85,4.53-2,6.82-3a30.76,30.76,0,0,1,5,9c.24,2.78-1.92,3.77-3.84,4.51-4.16,1.61-8.36,3.18-12.84,3.68C99.2,151,98.24,150.3,97.17,145.21Z"/><path class="cls-164" d="M143.17,122.22c-3,6.72-8.57,11.19-13.88,15.86-1.39,1.22-3,2.06-3.15,4.16l-1-.07c-.65-1.32-1.31-2.64-2-4s-1.9-2.34-2.07-3.92a6.61,6.61,0,0,1,2.82-5.95c4-3.18,6.93-7.33,10.23-11.14C137.94,117.49,139.82,121.16,143.17,122.22Z"/><path class="cls-226" d="M97.17,145.21c1.58,5.25,5.4,4.5,9.26,3.37,5.17-1.51,10.9-1.76,14.73-6.37,2.31,2.27,3.61,5.16,5,8-6.13-.05-11,4.07-16.85,5.17-3.22.61-6.56.47-9.75,1.63-1.88.68-2.4-1.14-2.39-2.82C97.19,151.2,97.17,148.2,97.17,145.21Z"/><path class="cls-227" d="M108.13,110.2l4.08-5c4.8.39,8.16,3.63,12,6,1.77,1,2.11,2.61,1,4.14-2.47,3.56-4.72,7.47-9.53,8.42-1.32-.39-1.73-1.66-2.51-2.59q-1.5-2.48-3-5C109.37,114.26,106.55,113,108.13,110.2Z"/><path class="cls-228" d="M116.16,133.22c-2.54,3.5-13.27,7.19-16.87,5.87-1.38-.51-1.39-1.32-1.38-2.67a81.51,81.51,0,0,0-.73-8.21c4.91.12,9.28-2.31,14-3C113.45,127.49,114.79,130.37,116.16,133.22Z"/><path class="cls-229" d="M111.19,125.18c-4.35,2.5-8.57,5.61-14,3,0-3,.1-5.92,0-8.87s.4-5.25,4-5.3c.08,0,.23-.25.23-.38s-.12-.3-.18-.45c-.07-1.71.79-1.61,1.92-1C107.8,115.31,108.7,120.74,111.19,125.18Z"/><path class="cls-230" d="M103.13,112.23a1.91,1.91,0,0,0-1.92,1l-4.87,0L95.08,112c-2.47.68-4.84,2-7.53,1.23a5.36,5.36,0,0,1-1.35-.45c-1.45,0-.58-3.72-3.16-2-3-.71-4.52-3.06-6.23-5.25-.62-1,.15-2.28-.6-3.28a2.09,2.09,0,0,1,2-1.08c3.92-.07,5,4.32,8.33,5.23,4.53.5,9.08,1.8,13.47-.62,4.4.71,6.59-3.44,10.13-4.62.83,3.12.19,5.62-3,7.06a2.62,2.62,0,0,1-2.06,1.08Z"/><path class="cls-231" d="M113.18,121.18c.67.68,1.34,1.35,2,2,3.86,2.7,5.35,6.9,7,11,.35,1.33.69,2.66,1,4C117.8,133.74,115,127.77,113.18,121.18Z"/><path class="cls-232" d="M105.11,109.3a2.1,2.1,0,0,1,2.06-1.08,2.08,2.08,0,0,0,1,2l2.06,6A10.24,10.24,0,0,1,105.11,109.3Z"/><path class="cls-129" d="M86.22,112.22h1c1.73,1.39,4.63-.74,5.92,2l1,4c-2.23,4.89-.4,10.06-1,15.06l-1,1c-6.11,1-11.94.33-17.32-3-.75-5.14,3.56-8.26,5-12.53C81.56,116.16,82.21,112.55,86.22,112.22Z"/><path class="cls-143" d="M75.18,130.21c.45.92,1.14,1.92,2.12,1.81,5.17-.59,9.86,1.91,14.87,2.19v10c-2.51,1.95-5.12.57-7.68.19-3.8-.57-7.3-2.28-11.08-3-2.39-.43-3.3-2-3.3-4.28a9.78,9.78,0,0,1,2.08-5.11C73,131.18,73.54,129.78,75.18,130.21Z"/><path class="cls-233" d="M58.18,159.2c1.38-2.3,2-5,4-7,2.29-.27,4.2.83,6.08,1.86a50.92,50.92,0,0,0,18.43,5.73,21.24,21.24,0,0,1,3,.45c1.84.5,2.1,1.87,2,3.49-.16,2.24-1.81,1.36-3,1.45a17.18,17.18,0,0,1-3.13-.38c2.11.65,4.56.14,6.64,1.4l.09,3.08a5.48,5.48,0,0,1-.23.79h-.46l-.44-.06c.06-1.46-.17-2.64-2-2.8a79.87,79.87,0,0,1-28-7.51A11,11,0,0,0,58.18,159.2Z"/><path class="cls-132" d="M92.16,166.21a19.43,19.43,0,0,1-10-2c2.75,0,4.54,0,6.33,0,1,0,2.48,1,2.54-1.05,0-1.5-1-2-2.29-2-9.17,0-17.15-3.82-25.07-7.82a8.62,8.62,0,0,1-1.52-1.2c.22-2.14,1.69-3.52,3-5,7.12,4.59,15.32,5.95,23.37,7.72,1.53.34,2.86.79,3.62,2.27C92.17,160.2,92.16,163.21,92.16,166.21Z"/><path class="cls-145" d="M71.18,136.22c-.21,2.44.32,3.64,3.32,4.14,5.92,1,11.54,3.62,17.67,3.85,0,3.33,0,6.66,0,10-2.57-2.79-5.68-3.12-9.42-3.28-4.56-.2-8.85-2.68-13.07-4.61-1.49-.67-2.6-2.16-1.49-4.11.33-1.32.66-2.65,1-4C69.33,137.06,69.44,135.83,71.18,136.22Z"/><path class="cls-184" d="M68.18,142.21a3.9,3.9,0,0,0,3.23,3.84,35.39,35.39,0,0,1,9.64,3.57,3.9,3.9,0,0,0,3.33.35c4.47-1.95,7-.45,7.78,4.24,0,1,0,2,0,3-5.73-1.33-11.46-2.65-17.17-4-3.91-.93-7.5-2.42-9.82-6C66.18,145.54,66.58,143.52,68.18,142.21Z"/><path class="cls-232" d="M93.11,114.19c-1.68-1.52-4.32-.18-5.93-2l7.9-.21Z"/><path class="cls-234" d="M122.16,134.22c-2.91-3.3-4.78-7.26-7-11,6-2.71,9.85-7.8,9-12l2,.06c2,2.89,5.9,3.23,8,5.93-.6,4.87-4.65,7.21-7.61,10.32C124.67,129.51,121.86,130.82,122.16,134.22Z"/><path class="cls-235" d="M46.18,122.21c0-.33,0-.66,0-1,2.13-1.8,4.74-2.87,6.85-4.69,1.77-.29,2.89-2.72,5.11-1.56-.22,5.32,2.74,8.85,6.72,11.74,2,1.46,4.29,2.63,4,5.69-.47,2.13-.68,4.38-2.71,5.79l-1,1C56.69,135.91,49.55,131.17,46.18,122.21Z"/><path class="cls-236" d="M46.18,122.21c4.86,5.39,8.33,12.31,16.28,14.26,1,.26,1.8,1.79,2.68,2.73q-2,3-4,6C55.82,143.74,43,130,42,124.68c0-.14.09-.31.14-.46A5.53,5.53,0,0,1,46.18,122.21Z"/><path class="cls-237" d="M42.18,124.22c4.47,8.67,12.12,14.48,19,21l-3,5a72.83,72.83,0,0,1-19.12-18.58c-1.16-1.58-2.44-3.31-.87-5.41Z"/><path class="cls-167" d="M38.19,126.22c1.93,7.41,7.74,11.89,12.84,16.85,2.41,2.35,5.51,4,7.15,7.14a5.47,5.47,0,0,1-2,4c-4.14-4.2-9.58-7-13-12-.28-3.75-3.79-5.48-5.3-8.45-.89-1.74-3.17-3.08-1.7-5.56A3.42,3.42,0,0,1,38.19,126.22Z"/><path class="cls-238" d="M66.12,138.19c.8-2,.59-4.26,2.06-6,.56-.78,1.07-1.64,2.18-1.74a2.51,2.51,0,0,1,2,.65,14,14,0,0,1-4.19,7.07l-1,.94Z"/><path class="cls-237" d="M36.18,128.2c1.4,3.89,4,7,6.53,10.16.78.95,3.84,2.18.47,3.85l-10-13Z"/><path class="cls-239" d="M53.18,117.22c-2.06,1.8-4.12,3.6-7,4l-2,0q4.53-3,9.08-5.89A1.31,1.31,0,0,1,53.18,117.22Z"/><path class="cls-123" d="M68.16,138.19q1.92-3.54,3.86-7.08c.07-.9.49-1.26,1.38-.89a1.69,1.69,0,0,1-.22,2l-2,4-2,2Z"/><path class="cls-240" d="M110.14,101.16c-2.56,3.19-4.85,6.92-10,5.07a1.89,1.89,0,0,1-.56-1.07,2.64,2.64,0,0,1,.34-1.19,10.4,10.4,0,0,1,2.26-2.08,23.41,23.41,0,0,1,2.37-.58l.59-.11c1.47-.91.53-2.93,1.66-3.85,1.63-1.34,3.44-2.26,4.32.84C110,98.91,110.15,100.06,110.14,101.16Z"/><path class="cls-241" d="M83,84.13c1.62,0,3.2,0,3.18,2.13s-1.36,3-3.23,2.84c-1.64-.11-3.56-.54-3.54-2.61S81.41,84.32,83,84.13Z"/><path class="cls-242" d="M86.2,91.22l-.06-1,1.29-2.89c3.09-2.92,6.81-3.43,10.88-3.14,2.19.16,3,1,2.81,3.1-4.47-.21-9.19-1.42-12.49,3.11C88,91.16,87.28,91.7,86.2,91.22Z"/><path class="cls-243" d="M88.14,90.2c4.25-5.22,7.23-5.89,13-2.94,0,.34,0,.68,0,1a2,2,0,0,1-2.64.59,8.29,8.29,0,0,0-7.58.5c-2.8,1.58-.15,5.38-3,7.17-.68.44.84,1.54,1.81,1.59,2.13.11,4.28.05,6.42.06a3.75,3.75,0,0,1,1-.8,4.19,4.19,0,0,0,3.43-2.74c.17-.15.35-.28.52-.42h1c1.56,4.53.83,5.92-3.54,6.28a53.48,53.48,0,0,1-8.49,0c-5.74-.47-7-3.16-3.71-7.85A24.44,24.44,0,0,0,88.14,90.2Z"/><path class="cls-244" d="M105.11,80.31c2.06,1.07,2,3.25,2.61,5,.54,1.52.4,2.74-1.5,2.76-1.55,0-3.33-.16-1.92-2.53.79-1.34-.88-1.51-1.09-2.36C103.17,81.81,103,80.34,105.11,80.31Z"/><path class="cls-245" d="M50.18,94.22l21,0,2,2,1,5-3,2c-2.55,3.53-6.52,4.9-10.18,6.78a5.77,5.77,0,0,1-1.55.25C52.17,108.32,47.63,100.46,50.18,94.22Z"/><path class="cls-216" d="M88.14,90.2a1.64,1.64,0,0,1,0,.5c-3,8.49-3,8.57,6.64,8.45,3.39,0,8.39,1.86,7.44-4.92l.94-.07.1.09c1.28,3.23,1.81,6.17-2.71,7.22a85.58,85.58,0,0,1-9.06.23c-3.23-.27-6.67.2-9.22-2.54-2-4.29,2.51-5.36,4-7.94Z"/><path class="cls-239" d="M60.17,109.22l1,0c4-.94,6.93-4.24,11-4.92a6.33,6.33,0,0,0,4-2c2.64.22.54,2,1,3a3.81,3.81,0,0,1-1,1c-3.66,1.71-6.7,4.75-11,5.21-4.12,0-7.24,3-11.13,3.7l-.93-1C53.81,110.11,57.65,110.6,60.17,109.22Z"/><path class="cls-246" d="M86.19,107.25c-3.72-.64-4.92-4.58-8-6.08.15-5.23,2.46-1.38,4-1A14,14,0,0,1,87.54,102c.85,2,4.45,2.49,3.18,5.68C89.21,107.57,87.64,108.09,86.19,107.25Z"/><path class="cls-247" d="M72.22,104.28c-3.55,1.93-6.52,5.15-11,4.92a54.51,54.51,0,0,1,10-6Z"/><path class="cls-232" d="M87.16,102.24a6,6,0,0,1-5-2l.06-1.06c3,.38,5.85,1.46,8.91,1.1C90.7,102.7,89,102.68,87.16,102.24Z"/><path class="cls-248" d="M97.17,98.19h-1c-1-1.88-4.33.08-4.41-2-.09-2.67,3.12-3.45,4.73-5.21a3.08,3.08,0,0,1,3.66-.46c1.61.76,1.78,2.19,1,3.74h0A4.06,4.06,0,0,1,97.17,98.19Z"/><path class="cls-210" d="M100.12,100.26c4.81-.06,2.48-3.79,3.09-6,.89-1.48,3.88,1.18,3.9-2,1.13.79,3.32,1.9.49,2.76-3.91,1.18-2.64,3.74-2.44,6.18h0c-.76.89-1.74.7-2.72.56a2.82,2.82,0,0,1-2.13-.2,1,1,0,0,1-.35-.83C100,100.42,100.05,100.26,100.12,100.26Z"/><path class="cls-249" d="M29,91.25c3.21-1.56,5.18-.79,7.15-.72C34.16,91.7,32.19,91,29,91.25Z"/><path class="cls-250" d="M60.17,109.22l-7,4.94c-3.31.67-6,2.78-9,4.06-3.36-4.72-5.81-19.4-4-24h10C50.21,102.26,54,107.91,60.17,109.22Z"/><path class="cls-251" d="M40.18,94.22a211.87,211.87,0,0,0,4,24,5.83,5.83,0,0,1-4,2,74,74,0,0,1-5.09-21.11C34.78,95.06,36.33,93.64,40.18,94.22Z"/><path class="cls-252" d="M54.11,115.15c3.32-2.51,6.68-4.92,11.1-4.93a1.1,1.1,0,0,1,.1,1.28c-2.17,1.63-4,4-7.13,3.74l-5,2c0-.65,0-1.29,0-1.94A8.67,8.67,0,0,1,54.11,115.15Z"/><path class="cls-232" d="M86.19,107.25l5-.12c2.73-1.89,5.49-3.7,9-1.9v1c-1.46.76-1.06,2.49-2,4C94.94,105.67,89.79,110.13,86.19,107.25Z"/><path class="cls-253" d="M86.22,112.22a15.61,15.61,0,0,0-5.06,7c-1.43.35-1.56-.71-1.8-1.65a5.89,5.89,0,0,1,.13-1.45c.85-2.18,1.1-4.75,3.7-5.83C85.49,108.93,85.45,111.19,86.22,112.22Z"/><path class="cls-254" d="M83.19,110.25q-1.51,3-3,6a.9.9,0,0,1-1.21,0c1.4-4.25-2-7.29-2.76-11h1Z"/><path class="cls-254" d="M80.14,117.19a2.12,2.12,0,0,0,1,2l-6,11-2,2c0-.69,0-1.39,0-2.08-1-1.23-.25-2.3.27-3.41,1.29-2.09,2.24-4.36,3.47-6.48C77.64,118.94,77.87,116.93,80.14,117.19Z"/><path class="cls-255" d="M58.18,115.24c2.37-1.28,4.19-3.51,7-4.06a7.22,7.22,0,0,0,3.65,5.88c5.39,3.34,5.49,4.13,3.35,10.5a8.44,8.44,0,0,1-2,3.65l-2,1c-.16-2.59-2.14-3.55-4.09-4.55-3.61-1.84-5-5.57-7.29-8.56C55.53,117.43,57.82,116.58,58.18,115.24Z"/><path class="cls-256" d="M70.18,131.21a6,6,0,0,1,1-3.91c.68-.9,1-2.15,2.41-2.33a1.36,1.36,0,0,1,.6,2.27c-.36,1-.72,1.92-1.09,2.88l-1.12,1Z"/><path class="cls-257" d="M100.16,105.23l-9,1.91c-1.43-1.56-4-2.2-4-4.9,1.33-.66,2.66-1.32,4-2h9c0,.3.08.6.11.9.13,1,.71,2,0,3C100.17,104.55,100.16,104.89,100.16,105.23Z"/><path class="cls-258" d="M100.18,104.2c-.37-1-1.56-2,0-3l1.85.13c.39.16.54.34.44.56s-.21.35-.33.35A1.82,1.82,0,0,1,100.18,104.2Z"/><path class="cls-213" d="M102.19,102.2c0-.3-.07-.61-.11-.91l3.08-.09C105,103.85,103.48,102.76,102.19,102.2Z"/><path class="cls-212" d="M97.17,98.19a9.05,9.05,0,0,0,4-4C101.6,97.32,100.29,98.67,97.17,98.19Z"/><path class="cls-259" d="M73.19,125.24c-.65.69-1.31,1.37-2,2.06,2.68-5.16.53-8.1-4.37-10.12-2.75-1.14-4-3.18-1.68-6,0-.32,0-.64,0-1,4.36-.13,6.91-4.21,11-5,.36.52.61,1.23,1.11,1.55,4,2.5,3.79,5.76,1.86,9.4C77.29,119.28,76.32,123,73.19,125.24Z"/><path class="cls-260" d="M73.19,125.24c1.6-3.28,3-6.65,6-9.07l1,0c0,.32,0,.64,0,1l-5.91,10A2.17,2.17,0,0,0,73.19,125.24Z"/></g></g></svg>