<svg xmlns="http://www.w3.org/2000/svg" viewBox="0 0 185.23 187.02"><defs><style>.cls-1{fill:#fefefe;}.cls-2{fill:#594325;}.cls-3{fill:#fdfdfd;}.cls-4{fill:#e4caa4;}.cls-5{fill:#5e4728;}.cls-6{fill:#624a27;}.cls-7{fill:#594225;}.cls-8{fill:#564125;}.cls-9{fill:#684616;}.cls-10{fill:#543e24;}.cls-11{fill:#684f2d;}.cls-12{fill:#6e5630;}.cls-13{fill:#372d24;}.cls-14{fill:#584225;}.cls-15{fill:#4d3a21;}.cls-16{fill:#533e23;}.cls-17{fill:#745230;}.cls-18{fill:#775630;}.cls-19{fill:#42361a;}.cls-20{fill:#372b1e;}.cls-21{fill:#d8c48e;}.cls-22{fill:#c6aa72;}.cls-23{fill:#cdb37a;}.cls-24{fill:#d4c188;}.cls-25{fill:#bea76f;}.cls-26{fill:#b39e67;}.cls-27{fill:#cbba84;}.cls-28{fill:#e9dc9d;}.cls-29{fill:#906c3e;}.cls-30{fill:#9a7644;}.cls-31{fill:#e0d097;}.cls-32{fill:#886339;}.cls-33{fill:#795b32;}.cls-34{fill:#7b5733;}.cls-35{fill:#ccb77d;}.cls-36{fill:#bfa069;}.cls-37{fill:#9a7745;}.cls-38{fill:#bea269;}.cls-39{fill:#89653a;}.cls-40{fill:#8d693d;}.cls-41{fill:#89653b;}.cls-42{fill:#816e39;}.cls-43{fill:#6e5f2b;}.cls-44{fill:#d0ba80;}.cls-45{fill:#9f7c49;}.cls-46{fill:#755732;}.cls-47{fill:#816237;}.cls-48{fill:#765330;}.cls-49{fill:#c4a56c;}.cls-50{fill:#967343;}.cls-51{fill:#b1995f;}.cls-52{fill:#d1bc83;}.cls-53{fill:#3f2f1d;}.cls-54{fill:#9f7b48;}.cls-55{fill:#b19058;}.cls-56{fill:#a98853;}.cls-57{fill:#ba9a63;}.cls-58{fill:#906d40;}.cls-59{fill:#926f40;}.cls-60{fill:#89693b;}.cls-61{fill:#9d7947;}.cls-62{fill:#b5a569;}.cls-63{fill:#876339;}.cls-64{fill:#43382c;}.cls-65{fill:#654a2a;}.cls-66{fill:#b6a469;}.cls-67{fill:#584724;}.cls-68{fill:#40341a;}.cls-69{fill:#8e8040;}.cls-70{fill:#9f8f54;}.cls-71{fill:#917341;}.cls-72{fill:#655032;}.cls-73{fill:#8c6a3f;}.cls-74{fill:#987443;}.cls-75{fill:#937545;}.cls-76{fill:#d6c28d;}.cls-77{fill:#a1814d;}.cls-78{fill:#e0d093;}.cls-79{fill:#dbcb93;}.cls-80{fill:#846038;}.cls-81{fill:#d4be86;}.cls-82{fill:#977645;}.cls-83{fill:#715936;}.cls-84{fill:#594c26;}.cls-85{fill:#806535;}.cls-86{fill:#544529;}.cls-87{fill:#937541;}.cls-88{fill:#d4c089;}.cls-89{fill:#ccb179;}.cls-90{fill:#362f28;}.cls-91{fill:#473924;}.cls-92{fill:#654f31;}.cls-93{fill:#bcaa6e;}.cls-94{fill:#4b3b1f;}.cls-95{fill:#66562b;}.cls-96{fill:#302515;}.cls-97{fill:#d9c68f;}.cls-98{fill:#c1a46d;}.cls-99{fill:#363029;}.cls-100{fill:#967342;}.cls-101{fill:#bbaa6f;}.cls-102{fill:#322715;}.cls-103{fill:#37312a;}.cls-104{fill:#69502e;}.cls-105{fill:#483925;}.cls-106{fill:#d2c08a;}.cls-107{fill:#bd9d64;}.cls-108{fill:#3a2f17;}.cls-109{fill:#b1a165;}.cls-110{fill:#be9f66;}.cls-111{fill:#65512f;}.cls-112{fill:#574d3b;}.cls-113{fill:#dac791;}.cls-114{fill:#685728;}.cls-115{fill:#473e33;}.cls-116{fill:#302514;}.cls-117{fill:#564c3c;}.cls-118{fill:#494035;}.cls-119{fill:#c3a66c;}.cls-120{fill:#645137;}.cls-121{fill:#baac70;}.cls-122{fill:#baa86d;}.cls-123{fill:#9d7a49;}.cls-124{fill:#ab8952;}.cls-125{fill:#cdc08b;}.cls-126{fill:#cbaf76;}.cls-127{fill:#cbb97e;}.cls-128{fill:#b7a56c;}.cls-129{fill:#4d3d23;}.cls-130{fill:#87653a;}.cls-131{fill:#c8ac73;}.cls-132{fill:#d8c58f;}.cls-133{fill:#4e4439;}.cls-134{fill:#c6b67d;}.cls-135{fill:#805e37;}.cls-136{fill:#493d2e;}.cls-137{fill:#7e6641;}.cls-138{fill:#c4b87e;}.cls-139{fill:#baaa6d;}.cls-140{fill:#4b3f21;}.cls-141{fill:#54493c;}.cls-142{fill:#a1905f;}.cls-143{fill:#655237;}.cls-144{fill:#8f8b7b;}.cls-145{fill:#938f83;}.cls-146{fill:#7f6845;}.cls-147{fill:#3f321a;}.cls-148{fill:#2e2a28;}.cls-149{fill:#765936;}.cls-150{fill:#3c3933;}.cls-151{fill:#342d27;}.cls-152{fill:#3e3c36;}.cls-153{fill:#3b332c;}.cls-154{fill:#504e47;}.cls-155{fill:#494742;}.cls-156{fill:#4a3b26;}.cls-157{fill:#494741;}.cls-158{fill:#6a5336;}.cls-159{fill:#6a5234;}.cls-160{fill:#42372b;}.cls-161{fill:#3c3832;}.cls-162{fill:#3c3a33;}.cls-163{fill:#54514a;}.cls-164{fill:#44423c;}.cls-165{fill:#4e4c45;}.cls-166{fill:#3e3c35;}.cls-167{fill:#4a4741;}.cls-168{fill:#645034;}.cls-169{fill:#484640;}.cls-170{fill:#42403a;}.cls-171{fill:#4d4b45;}.cls-172{fill:#4f4027;}.cls-173{fill:#6f5737;}.cls-174{fill:#554b3c;}.cls-175{fill:#866b43;}.cls-176{fill:#765c3a;}.cls-177{fill:#866a43;}.cls-178{fill:#392c1b;}.cls-179{fill:#43413c;}.cls-180{fill:#50483a;}.cls-181{fill:#53432d;}.cls-182{fill:#979180;}.cls-183{fill:#888273;}.cls-184{fill:#837d6f;}.cls-185{fill:#a6a294;}.cls-186{fill:#c0bbaa;}.cls-187{fill:#999586;}.cls-188{fill:#9e9b8f;}.cls-189{fill:#aeaa9e;}.cls-190{fill:#6d593d;}.cls-191{fill:#5e492f;}.cls-192{fill:#8c8778;}.cls-193{fill:#7f6a3f;}.cls-194{fill:#999485;}.cls-195{fill:#837d6d;}.cls-196{fill:#634f33;}.cls-197{fill:#342c26;}.cls-198{fill:#918d82;}.cls-199{fill:#504639;}.cls-200{fill:#bdb8a6;}.cls-201{fill:#c1bca9;}.cls-202{fill:#b6b09f;}.cls-203{fill:#9c7845;}.cls-204{fill:#b0ab9a;}.cls-205{fill:#c9c4b0;}.cls-206{fill:#a4a092;}.cls-207{fill:#e7e0c8;}.cls-208{fill:#d1cbb6;}.cls-209{fill:#e0d9c3;}.cls-210{fill:#dad3be;}.cls-211{fill:#795d3a;}.cls-212{fill:#a7864f;}.cls-213{fill:#6e5b41;}.cls-214{fill:#9d998a;}.cls-215{fill:#b09f7e;}.cls-216{fill:#8d7243;}.cls-217{fill:#625542;}.cls-218{fill:#938f81;}.cls-219{fill:#9e998a;}.cls-220{fill:#5c5950;}.cls-221{fill:#4f4d47;}.cls-222{fill:#5d5a51;}.cls-223{fill:#55534b;}.cls-224{fill:#e8e2cc;}.cls-225{fill:#cec7b5;}.cls-226{fill:#d8d2be;}.cls-227{fill:#604d35;}.cls-228{fill:#423f38;}.cls-229{fill:#47453f;}.cls-230{fill:#5b4931;}.cls-231{fill:#725735;}.cls-232{fill:#c8b173;}.cls-233{fill:#6b5539;}.cls-234{fill:#876c44;}.cls-235{fill:#413f39;}.cls-236{fill:#58554d;}.cls-237{fill:#483a27;}.cls-238{fill:#57544c;}.cls-239{fill:#46443f;}.cls-240{fill:#494641;}.cls-241{fill:#4d4b47;}.cls-242{fill:#3f3220;}.cls-243{fill:#5b574e;}.cls-244{fill:#725533;}.cls-245{fill:#876d45;}.cls-246{fill:#93794a;}.cls-247{fill:#a88c52;}.cls-248{fill:#3f3d36;}.cls-249{fill:#806640;}.cls-250{fill:#4f4d46;}.cls-251{fill:#54524a;}.cls-252{fill:#5b584f;}.cls-253{fill:#7c603c;}.cls-254{fill:#dad4c1;}.cls-255{fill:#b5b1a1;}.cls-256{fill:#d0cab8;}.cls-257{fill:#795c39;}.cls-258{fill:#a09d93;}.cls-259{fill:#a1947d;}.cls-260{fill:#a8a496;}.cls-261{fill:#c9c4b2;}.cls-262{fill:#b7b2a3;}.cls-263{fill:#cbc5b3;}.cls-264{fill:#574732;}.cls-265{fill:#8b765b;}.cls-266{fill:#59452b;}.cls-267{fill:#715c3e;}.cls-268{fill:#afaa99;}.cls-269{fill:#bbb5a4;}.cls-270{fill:#a7a393;}.cls-271{fill:#cac4b2;}.cls-272{fill:#dcd5c1;}.cls-273{fill:#d4ceba;}.cls-274{fill:#554025;}.cls-275{fill:#8b673c;}.cls-276{fill:#b99959;}.cls-277{fill:#c0a873;}.cls-278{fill:#ccb168;}.cls-279{fill:#cfc1a0;}.cls-280{fill:#58442b;}.cls-281{fill:#664c2c;}.cls-282{fill:#6c5637;}.cls-283{fill:#e4dec7;}.cls-284{fill:#9d8150;}.cls-285{fill:#c6c1af;}.cls-286{fill:#acaaa0;}.cls-287{fill:#c3c0b6;}.cls-288{fill:#b7b4a9;}.cls-289{fill:#e1dac6;}.cls-290{fill:#7f735d;}.cls-291{fill:#7b623f;}.cls-292{fill:#b5965c;}.cls-293{fill:#5d5a53;}.cls-294{fill:#ddd3b1;}.cls-295{fill:#443522;}.cls-296{fill:#4b3b26;}.cls-297{fill:#5c4931;}.cls-298{fill:#87653b;}.cls-299{fill:#544a3b;}.cls-300{fill:#504e46;}.cls-301{fill:#e0dac5;}.cls-302{fill:#a27d48;}.cls-303{fill:#846138;}.cls-304{fill:#dcd6c2;}.cls-305{fill:#c1bcab;}.cls-306{fill:#d4cebb;}.cls-307{fill:#aeaba0;}.cls-308{fill:#866a3d;}.cls-309{fill:#342716;}.cls-310{fill:#372a18;}.cls-311{fill:#d4be75;}.cls-312{fill:#a4885b;}</style></defs><g id="Layer_2" data-name="Layer 2"><g id="Layer_6_Image" data-name="Layer 6 Image"><path class="cls-1" d="M104.18.07c26,0,52,0,78-.07,2.5,0,3.07.56,3.06,3.07-.1,27.66-.06,55.32-.06,83a1.12,1.12,0,0,1-1.46-.07c-3.14-3.18-.77-7.7-2.71-11.18-1.41-2.52-1.05-5.48-2-8.11-3.46-12.57-9.94-23.45-18.55-33.11A89.81,89.81,0,0,0,121.53,7.65c-3.19-1.07-6.52-1.22-9.7-2.13-1.64-.25-3.35-.22-4.81-1.2a26.14,26.14,0,0,1-2.15-1.79C104.27,1.81,103.6,1.11,104.18.07Z"/><path class="cls-2" d="M182.14,74.36c2.1,3.61.11,8,2.19,11.61a1.57,1.57,0,0,1,.08,1.4,76.7,76.7,0,0,0-.13,11.74,4.58,4.58,0,0,0,.89,1.94v1c-1.88,2-.13,5-1.85,7.1-2.56,0-2.47-2.16-2.3-3.55.53-4.21-.85-7-5-8.29-.38-2,1.27-2.48,2.35-3.41,2.74-1.88,2.8-4.7,2.24-7.44a68.53,68.53,0,0,1-1-9.68C179.88,75.35,181,74.89,182.14,74.36Z"/><path class="cls-3" d="M104.18.07l1,1.92a4.36,4.36,0,0,1-3.57,1.41c-6,.13-11.91.12-17.86,0A4.37,4.37,0,0,1,80.18,2c.34-.64.67-1.28,1-1.92Z"/><path class="cls-3" d="M183,109c.81-2.28-1.18-5.42,2.13-6.92v9h-2.82a.91.91,0,0,1-.48-.91C182.06,109.55,182.67,109.38,183,109Z"/><path class="cls-4" d="M185.17,101.05,184,100a52.29,52.29,0,0,1,0-12.87c.11-.38.21-.76.32-1.14a1.86,1.86,0,0,1,.84.08Z"/><path class="cls-5" d="M51.37,11.16,53.21,10a8.86,8.86,0,0,1,5-1.85l.06,0c.71-1.14,2-.39,2.94-1l.07,0a9.08,9.08,0,0,1,5.91-2.18c2.14.7,4-1,6.11-.7,1.25.88,3-.58,4.12.81a1.75,1.75,0,0,1-.19,1.41C74.3,9.16,70,7.76,66.94,9.84A13.51,13.51,0,0,1,64.31,11a16.3,16.3,0,0,0-5.84,1.82c-2.86,1.32-5.64,2.81-8.61,3.89l-1.17.59a78.12,78.12,0,0,0-7.4,5.52c-5.62,4.09-10.46,9-15.44,13.84-3.44,3.62-5.57,8.2-8.84,11.94a15.17,15.17,0,0,0-3.13,5.92c-1,2.59-.64,6.14-4.53,6.84A3.45,3.45,0,0,1,7.62,59a9.46,9.46,0,0,1,1.5-4.89q3.54-6,7.07-12a48.48,48.48,0,0,1,11.71-14l1.29-1.25c1.48-1.75,2.74-3.72,4.92-4.75s3.42-3.69,6.08-4.14a7.48,7.48,0,0,1,4.11-2.79l1.89-1.23C47.52,12.24,49.51,11.82,51.37,11.16Z"/><path class="cls-2" d="M21.43,151.93,19,149c-1.63-.84-1.85-2.69-2.84-4l-7-12c-1-3.57-4.46-6.34-3.41-10.57,2.94-1.38,2.71,1.78,4,2.76.74,1.17,1.43,2.37,2.08,3.59.67,1.39,1.37,2.78,2,4.2a36.9,36.9,0,0,0,2.27,5.34,15.13,15.13,0,0,0,3.66,5.19A14.65,14.65,0,0,1,21,145.1c5.58,6.38,10.58,13.31,17.67,18.22a53.73,53.73,0,0,0,7.25,5.1c5.67,3.83,12.08,6.15,18.33,8.77,2.3.77,4.72,1.14,7,2.09a4.74,4.74,0,0,1,2.36,1.92,1.94,1.94,0,0,1-.54,2.15c-6.37-.33-12.11-2.71-17.73-5.47h0a21.15,21.15,0,0,0-4.12-1.77l-1.88-1.37c-1.29,0-2-1.2-3.11-1.58-.8-.21-1.74-.14-2.13-1.12-3.27-1.56-6-3.92-8.89-6.05l-1-1A35.85,35.85,0,0,1,24.3,155l0,0C23,154.23,21.77,153.51,21.43,151.93Z"/><path class="cls-6" d="M150.93,164.92l-2.81,2c-1.59,2.76-4.37,3.84-7.08,5l-10.95,5.9c-1.63,1.77-3.84,1.81-6,2l0,0c-2.33,1.56-4.7,3-7.69,2.69-1.29-.88-2.89-.81-4.28-1.41.22-3,2.92-2.05,4.5-2.9.69-.21,1.39-.4,2.08-.57a53.92,53.92,0,0,0,5.32-1.53c3.76-1.59,7.5-3.21,11.1-5.12.6-.24,1.22-.46,1.82-.71a10.15,10.15,0,0,0,3.71-2.33c1.47-1.37,3.23-2.36,4.68-3.75a18.89,18.89,0,0,1,3.31-2.31c3.09-1.94,5-5.18,8.1-7.15a2.6,2.6,0,0,1,1.38-.14,2.37,2.37,0,0,1,1.39,1.48c-.75,2.87-2.89,4.5-5.31,5.86l-.05,0C153.67,163.67,152.39,164.4,150.93,164.92Z"/><path class="cls-7" d="M159.42,156.14,158.15,155c-.58-2.15,1.36-3.15,2.13-4.68a6.35,6.35,0,0,1,.9-1,13.13,13.13,0,0,0,3.33-3.86,32.25,32.25,0,0,0,2.7-5.22c1.58-4.51,5.69-7.55,7-12.19a12.36,12.36,0,0,0,.81-2.59c.32-1.37.71-2.73,1.06-4.1,1.89-3.22,2-7,3.52-10.39.71-.81,1.44-1.55,2.64-.88a1.05,1.05,0,0,0,.07.93c0,.34,0,.68,0,1,.72,1.69,1,3.35-.28,4.91l0,0c-.72,1.64-1.17,3.38-1.87,5a.38.38,0,0,0-.22.59c.14,4-2.46,6.94-3.93,10.32l0,0a4,4,0,0,1-1.77,3.07,1.17,1.17,0,0,0-.29.91,3.29,3.29,0,0,1-1.9,3.06q-1.52,2.4-3,4.82c-.72,2.68-2.51,4.55-4.61,6.21-.16.3-.32.6-.49.9C163,154,161.85,155.73,159.42,156.14Z"/><path class="cls-8" d="M112.16,181c1.36.17,2.89-.42,4,.88a1.47,1.47,0,0,1-2,.38l-9,2.72a63,63,0,0,1-25,0l-1.72-.09c-1.74-.7-3.79-.58-5.27-2v-1.87c4-1.55,7.81.13,11.71.49,7,.19,14.07.3,21.06-.89C108,180.31,110.17,179.64,112.16,181Z"/><path class="cls-9" d="M80.18,2h25c.57.41,1.71-.06,1.76,1.14-1.75,1.71-4.24,1.08-6.25,2C94.41,6,88.05,4.89,81.79,6c-1.4-1.9-4.57-.12-5.66-2.7C77.23,2,78.81,2.36,80.18,2Z"/><path class="cls-3" d="M80.18,185h25a4.74,4.74,0,0,1-3.83,2q-8.67.12-17.34,0A4.72,4.72,0,0,1,80.18,185Z"/><path class="cls-10" d="M7.82,58.91a2.33,2.33,0,0,1,1.42,2.23,2.26,2.26,0,0,1,.44,2.16c-1.77,3.45-2.23,7.19-2.38,11A4,4,0,0,1,5,77.5c-2.45.25-2.73-1.38-2.79-3.21A7.36,7.36,0,0,1,3,71.07c.07-.33.14-.66.2-1a22.5,22.5,0,0,0,2-6.9C5.47,61.43,5.82,59.64,7.82,58.91Z"/><path class="cls-3" d="M73.19,182.93c1.89.3,3.77.62,5.27,2-7.73-.06-14.87-2.7-22.08-5-1-.3-1.06-1.14-1.05-2C61.4,179.14,66.88,182.5,73.19,182.93Z"/><path class="cls-3" d="M27.9,28.06,16.19,42C18.27,35.85,21.93,31,27.9,28.06Z"/><path class="cls-3" d="M7.82,58.91C5.1,62.14,6.42,67.05,3.2,70.08c.88-5.75,1.31-11.66,5.92-16C9.59,55.92,8.19,57.28,7.82,58.91Z"/><path class="cls-3" d="M24.3,155c3.24,3.41,7.18,6.12,9.88,10.06C30,164.09,24.37,158.41,24.3,155Z"/><path class="cls-3" d="M159.42,156.14l4.54-4.2c2.38,2.58-1.1,3-1.84,3.81-2.22,2.5-3.55,6.43-7.93,6.26Z"/><path class="cls-11" d="M4.35,121c-.45-1.67.19-3.63-1.35-5a6.54,6.54,0,0,1-.71-3.61c.29-.94.31-2,1.2-2.68A2.24,2.24,0,0,1,5,109.67a2.36,2.36,0,0,1,1,1.14c.57,2.25.77,4.57,1.3,6.84C7,119.35,7.66,121.93,4.35,121Z"/><path class="cls-3" d="M3,71.07l.18,3c-1.25,1.78.18,3.45.23,5.17S3.68,82.84,2,84.12L1.14,84C-.15,79.43-.39,75,3,71.07Z"/><path class="cls-3" d="M1.08,103.15A41.77,41.77,0,0,1,1.14,84l.12.07a3.56,3.56,0,0,1,1.16,2.3c.25,4.57.16,9.15.07,13.73a5.1,5.1,0,0,1-.75,2.46Z"/><path class="cls-3" d="M5.93,122.26c-.19,4,3.38,6.82,3.24,10.77-2.26-3.19-5.65-6-4-10.64C5.34,121.77,5.59,121.75,5.93,122.26Z"/><path class="cls-3" d="M176.07,132.94,180,122.62C181.75,127.23,178.62,130,176.07,132.94Z"/><path class="cls-3" d="M35.19,166c3.57,1.13,6.25,3.57,8.89,6.05C39.75,172.05,37.57,168.88,35.19,166Z"/><path class="cls-3" d="M114.18,182.28l2-.38c2.92.44,5.25-1.45,7.92-2C121.18,182.34,118.55,185.91,114.18,182.28Z"/><path class="cls-12" d="M5.93,122.26l-.73.13c-.28-.45-.57-.9-.85-1.36,2.65-.46,1.56-2.63,1.91-4.15a1.22,1.22,0,0,1,1.4.39c.83,2.87,3.49,5.43,1.51,8.78C7.58,125.22,7.9,122.76,5.93,122.26Z"/><path class="cls-3" d="M141,172l7.08-5C147,170.3,144.88,172.36,141,172Z"/><path class="cls-3" d="M164.45,151l4.61-6.21C169.78,148.57,167.45,150.05,164.45,151Z"/><path class="cls-3" d="M2.06,110.05c-4.06-1.77-.69-4.6-1-6.9l.21-.16c3.13,1.1,2,3.56,1.81,5.72A3.58,3.58,0,0,1,2.06,110.05Z"/><path class="cls-3" d="M124.1,179.88l6-2C129,181.29,126.74,181.1,124.1,179.88Z"/><path class="cls-3" d="M34.11,22.06c-1,2.22-2.91,3.55-4.92,4.75C29.85,24.21,30.66,21.77,34.11,22.06Z"/><path class="cls-13" d="M76.13,3.26c.9,1.14,1.93.78,3,.35,1.71-.65,1.47.3,1,1.35a1.9,1.9,0,0,1-2.83.22c-1.35-.4-3,.36-4.1-1Z"/><path class="cls-3" d="M67.16,4.92,61.25,7.1C62.74,5.09,64.29,3.2,67.16,4.92Z"/><path class="cls-3" d="M44.3,15.13c-.92,1.59-2.59,2.08-4.11,2.79C40.73,15.76,41.41,13.81,44.3,15.13Z"/><path class="cls-3" d="M58.18,8.11c-1.55.92-3,2-5,1.85C54.39,8.08,55.63,6.34,58.18,8.11Z"/><path class="cls-3" d="M16.19,145.05c1.83.7,2.18,2.46,2.84,4C15.86,149.3,16.18,147.07,16.19,145.05Z"/><path class="cls-3" d="M182.11,117l.28-4.91C184.74,113.85,184.9,115.5,182.11,117Z"/><path class="cls-3" d="M3.06,112.56,3,116c-1.92-1.38-2.63-3-.84-5C2.87,111.3,3,111.94,3.06,112.56Z"/><path class="cls-3" d="M51.37,11.16c-1.57,1.22-3.12,2.46-5.18,2.74C47,11.16,49.14,11.12,51.37,11.16Z"/><path class="cls-12" d="M3.06,112.56,2.16,111c0-.33-.06-.66-.1-1l.27-1c1.09-.65-.84-3.69,2.21-2.8a3,3,0,0,1,0,3.67A3.08,3.08,0,0,0,3.06,112.56Z"/><path class="cls-3" d="M150.93,164.92a7.61,7.61,0,0,1,3.21-2.87C155.5,165.73,152.78,164.84,150.93,164.92Z"/><path class="cls-3" d="M180.22,122c0-1.92.23-3.73,1.87-5A5.57,5.57,0,0,1,180.22,122Z"/><path class="cls-3" d="M21.43,151.93c.94,1,1.89,2,2.84,3C22.63,154.59,20.43,154.76,21.43,151.93Z"/><path class="cls-3" d="M61.18,7.13c-.75,1-1.88.88-2.94,1C58.44,5.35,59.91,6.54,61.18,7.13Z"/><path class="cls-3" d="M51.2,176.12c1.81-.42,3.06.45,4.12,1.77A5,5,0,0,1,51.2,176.12Z"/><path class="cls-3" d="M172.08,140,174,137C175,139,174,139.77,172.08,140Z"/><path class="cls-3" d="M174.27,136A5.4,5.4,0,0,1,176,133C177.31,135.06,176.31,135.85,174.27,136Z"/><path class="cls-3" d="M46.21,173.17c1.39-.18,2.25.71,3.11,1.58C47.13,176.5,47.22,173.75,46.21,173.17Z"/><path class="cls-14" d="M112.15,4.12a81.9,81.9,0,0,1,36.86,17c14.93,11.79,25.75,26.51,31,45-.6.64,0,2-1.4,2.19-2.93-2.21-3-5.8-4.29-8.81-2.08-3.81-3.5-8-5.78-11.67-1.26-2-2.56-4.07-4-6a17.07,17.07,0,0,0-3.16-3.08c-1-.88-1.37-2.14-2.12-3.18a69.21,69.21,0,0,0-5.93-6.06C148.46,25.3,143.66,21,138,17.79c-.62-.35-1.21-.75-1.82-1.13C127.44,12.83,118.73,9,109.45,6.59a1.54,1.54,0,0,1-.56-1.28C109.64,4,111.27,5.08,112.15,4.12Z"/><path class="cls-15" d="M112.15,4.12c-.79,1.18-2.1.88-3.22,1.1-1.66,1.44-3.62,1.13-5.56,1-1.08-.3-2.21-.54-2.26-2,1.65-2,3.88-.77,5.83-1.08C108.37,5.06,110.58,2.89,112.15,4.12Z"/><path class="cls-16" d="M179.1,68.12l.93-2c1.91,2.45.32,5.8,2.12,8.27A1.71,1.71,0,0,1,180.21,76C178.35,73.61,177.32,71.06,179.1,68.12Z"/><path class="cls-17" d="M179.1,68.12,180.21,76a58.24,58.24,0,0,1,1.85,14.14,5.13,5.13,0,0,1-2.9,4.87,1.91,1.91,0,0,1-.6-1.81c.94-1.88.21-3.78.1-5.68a19.55,19.55,0,0,0-1.22-9.17c-1.48,1.41-.72,3.61-2.18,4.8-3.9-1.93-2.13-6-3.28-8.93-.57-1.49.22-4.13-2.95-2.94-1.85-.29-2.34-1.85-2.53-3.22C166,64.47,164.16,61.35,163,58c0-1.39,1.47-2.06,1.72-3.34a25.25,25.25,0,0,0,1.75-3.9,2.32,2.32,0,0,1,.87-.94,2,2,0,0,1,1.67.88c2.24,2.66,3.13,6.33,6.23,8.35Q177.14,63.58,179.1,68.12Z"/><path class="cls-18" d="M182.28,110.12l-2,1c-1.08-.93-.75-2.07-.47-3.26-.64.93-.81,2.07-1.59,2.86s-1.45,1.52-2.52,1.32c-1.45-.27-1.48-1.62-1.66-2.73a20.24,20.24,0,0,1-.13-4c.92-3-.51-6,0-9.08,1.14-.85,1.76-.15,2.3.78.44.21,1,.71,1.32.6,6.44-2.06,4.45,2.68,4.69,5.71.15,1.89-.75,4,.86,5.64C183.21,109.63,182.89,110,182.28,110.12Z"/><path class="cls-19" d="M176.17,97l-2-1a2.09,2.09,0,0,1-2.27-1.2c2-1.91,4.11-3.71,7.23-3.06a.85.85,0,0,1,.27.79c-.06.28-.12.42-.2.42,0,.69-.05,1.39-.08,2.09Z"/><path class="cls-20" d="M184,87.11V100A20.38,20.38,0,0,1,184,87.11Z"/><path class="cls-21" d="M64.18,10.07,66.06,9C70,7.27,74.6,8.4,78.24,5.76c1.82-.43,3.72.12,5.52-.52a24.6,24.6,0,0,1,4.7-.11A3.29,3.29,0,0,1,90,5.59,1.63,1.63,0,0,1,90.56,7a5.18,5.18,0,0,1-1,2.11c-1.51,2.1-3.75,2.26-6.05,2.27-2.1,0-4.21,0-5.88,1.58-2.72,1.82-6,1.29-8.94,2.12-2.33.48-5-.21-6.84,2a4.37,4.37,0,0,1-3.68.88c-2.86-1.37-3.66-3-.69-5.16A27.09,27.09,0,0,1,64.18,10.07Z"/><path class="cls-22" d="M90.23,6.08l-1,0a5.68,5.68,0,0,0-5,0l-6,.21a.67.67,0,0,1-1-.19,6.93,6.93,0,0,1,.22-.87L80.2,5c6.94-1.14,13.93-.89,20.91-.75l2,1a.73.73,0,0,1,.31.93c.82.83.74-.9,1.41-.5,2.7.1,4.51,1.76,6.34,3.43,1.45,1.33,1.38,2.47-.16,3.62a5.49,5.49,0,0,1-3.07.43C100.92,13.63,96.27,8.09,90.23,6.08Z"/><path class="cls-23" d="M25.08,36C29.89,30.78,34.89,25.75,41,21.93a1.22,1.22,0,0,1,1.26-.08c.58,2-1.5,2.49-2.19,3.78.13,2.66-3.61,2.72-3.55,5.33a18.28,18.28,0,0,0-2.42,4.45,4.58,4.58,0,0,1-.74,1.11c-1.28.9-2.42,2.19-4.26,1.65-.29-1.67-1.06-2.47-2.79-1.56A1.94,1.94,0,0,1,25.08,36Z"/><path class="cls-24" d="M25.08,36l1.14.09c.26,3.58-3.86,5.39-3.46,8.92.93-1,1.52-3.55,3.66-1.14a33.26,33.26,0,0,1-.9,7.16c-2.59,2-4.34-2.1-6.82-.92a4.86,4.86,0,0,1-2,.21A1.42,1.42,0,0,1,16.15,48C19.46,44.28,21.14,39.31,25.08,36Z"/><path class="cls-25" d="M58.17,13.05c-2.51,1.38-2.27,2.73,0,4.05.16,2-1.62,1.95-2.78,2.54a3.22,3.22,0,0,1-2-.13,2.85,2.85,0,0,1-.9-1C51.88,17,49.78,17.32,49,15.9l9.12-4c.32.23.43.48.34.73S58.28,13.05,58.17,13.05Z"/><path class="cls-25" d="M42.21,22.08,41,21.93c2-2.5,4.77-3.93,7.3-5.72.93,1.47,4.17-1.31,4,2.18A11.73,11.73,0,0,0,48.46,23C46.45,22.28,44.45,21.41,42.21,22.08Z"/><path class="cls-26" d="M16.15,48c.14.79.23,1.62,1.08,2,1.31,1.06,1.62,2.59,2,4.1.12,1.55.22,3.1-1.36,4.07A2.74,2.74,0,0,1,15.65,55c.3-3.53-1.68.32-2-.72l-.6-.37C13.29,51.55,14.66,49.76,16.15,48Z"/><path class="cls-26" d="M9.23,63.08c0-.65,0-1.29,0-1.94,2.89-1.54,2.49-4.82,3.79-7.21l.35.26c1.75,2.37.61,4.66-.16,7C12,63,12.68,66.4,9,66.07A2.36,2.36,0,0,1,9.23,63.08Z"/><path class="cls-27" d="M77.15,6.05l1,.19c-3.66,2.63-8,2.23-12.13,2.76C69.38,6.59,73.5,7.21,77.15,6.05Z"/><path class="cls-28" d="M52.21,18c-.6-2.17-3.6.9-4-1.81A1.15,1.15,0,0,1,49,15.9c1,1.38,4.72-2,4,2.32l-.47.17Z"/><path class="cls-27" d="M58.17,13.05l0-1.11a6.91,6.91,0,0,1,6-1.87Z"/><path class="cls-29" d="M45.18,169.05c-2.5-1.44-5.2-2.59-7-5,.36-1.36,1.62-1.52,3.18-2.2C32.34,158.5,28.47,151,25,143.27c-1-2.13.59-3.39,2.15-4.49,2.24-.23,3.27,1.42,4.24,2.91,5,7.7,12.21,13,19.9,17.7a3.07,3.07,0,0,1,1.28,2.51,2.83,2.83,0,0,1-1.33,1.65,6.46,6.46,0,0,1-2.75.43c-4.25.85.06,3.79-1.3,5.33A1.82,1.82,0,0,1,45.18,169.05Z"/><path class="cls-30" d="M27.19,139c-1.47,2.19-2,4.14.46,6.21,2,1.63,1,4.77,2.9,6.66,3.47,3.48,6.38,7.67,11.84,8.36a1.35,1.35,0,0,1,1.12,1.85c-.25.76-.63,1.84-1.59,1.54a4.26,4.26,0,0,0-3.75.39c-7.51-4.89-13-11.74-18.09-18.92.37-.45,1.42-.74,1.19-1.11-.51-.81-1.37-.06-2.08,0a8.09,8.09,0,0,1-3.8-5.15c.5-1,.73-2.18,1.62-3a1.66,1.66,0,0,1,1.33,0,4,4,0,0,1,.78,1.11c1.91,4.66,4.71.54,7.07.7C27,137.82,27.48,138.13,27.19,139Z"/><path class="cls-31" d="M9.17,126.05c0-3.1-2.44-5.62-2.08-8.81-1.44-2.2-.32-5-1.74-7.24H5.22a1.62,1.62,0,0,1-.28-2c2.51-.88,3.68,1.67,5.64,2.19A5.69,5.69,0,0,1,13,113.6c.94,2.15.46,5,3.2,6.28a2.52,2.52,0,0,1,.66,1.15,30.74,30.74,0,0,0,.7,5.74c.71,3.3-.59,4.94-4,4.81-1.22-.44-1.54-1.8-2.53-2.47Z"/><path class="cls-32" d="M71.14,180.09a16.66,16.66,0,0,1-7-2.05c-3.86-1.4-3.85-4.8-4.16-8,2-1.37,3.82-.05,5.57.58a84.72,84.72,0,0,0,14.73,4c.24-1.2-2.43-1.6-.78-3.06a8.09,8.09,0,0,1,8.42.89c1.18,1.53.51,3-.24,4.38-3.47,1.62-7,2.76-10.87,1.3-1.66-.62-3.2-.75-3.69,1.71C73,180.79,71.91,180.55,71.14,180.09Z"/><path class="cls-33" d="M60.19,170c2.57,2.05,1.12,6.1,4,8-6.76-2.1-13.34-4.56-19-9l2,0c1.33.52,1.72-.32,2-1.37a5.15,5.15,0,0,1,1.09-.63c1.71-.37,1.82-2.18,2.84-3.18a1.72,1.72,0,0,1,1.28,0A30.69,30.69,0,0,0,60.19,170Z"/><path class="cls-34" d="M71.14,180.09c2.24-3.89,2.34-4.2,8-2.41,3,.93,5.1-3,7.86-.62A2.88,2.88,0,0,1,88,178c3,4,3,4-3.71,4.94l-11.08-1.88Z"/><path class="cls-35" d="M17.19,136.07c-.09,1.26.25,2.81-1.8,2.82-.86-1.87-2.24-3.53-2.38-5.7l.52-.38c1.32.78,3.08-1.31,4.22.64A2.34,2.34,0,0,1,17.19,136.07Z"/><path class="cls-36" d="M19.19,144c.36-2.29,1.78-2.55,3.42-1.48.66.44,1.37,1.87,1.12,2.43-.95,2.1-2.39.22-3.65.14Z"/><path class="cls-35" d="M11,129.11A3,3,0,0,1,13.22,131a1.37,1.37,0,0,1,.1,1.93l-.31.23Z"/><path class="cls-37" d="M136,172c-3.88,1.85-7.65,3.95-11.83,5.1-.56.44-1.38.64-1.74.12-1.27-1.88,1.8-1.5,1.46-2.7-1.91.92-4,2-4.8,4.45l-1.95.07c-1.56-.89-3.34-1.63-3-4,.47-.66,1.39-.71,2.12-1.51-1.81,0-1.87,1.76-2.94,2.25-4.66,1.87-9.39,2.77-14.32,1.13-1.41-.5-2.37-2.26-4.24-1.51a1.55,1.55,0,0,1-1.13-.79,2.94,2.94,0,0,1,.08-2.22,3.67,3.67,0,0,1,2.67-1.55c9.63,0,18.74-2.59,27.79-5.46,2.56,1.92,5.84,2.26,8.59,3.78C133.83,170.15,136.33,169.46,136,172Z"/><path class="cls-38" d="M146.07,165c-1.2,1.88-3.35,2.5-5,3.76-1.71.71-1.63-.83-1.85-1.65a2.8,2.8,0,0,0-2.5-2.39c-1.73-1.24-5.25-1.51-2.76-5,1.84-.89,3.48-2.34,5.7-2.09.35-.09.17.69.67.46a1,1,0,0,1-.41-.7c.63-2.22,2.49-3.1,4.23-4.12,2.22-.67,4.85-3.53,6,1.25.34,1.38,1.5.86,2.42.45,1.54-.68,3.08-1.34,4.55.15a27.36,27.36,0,0,1-8,7.77C147.28,162.37,146.06,162.81,146.07,165Z"/><path class="cls-39" d="M98.17,176c5.44,1.2,10.7-.38,16-1h0c.37,1.8,3.06,1.87,3,4-1.17,1.94-3.79.24-5,2-9.18,2.31-18.53,2.15-27.89,1.92,1.37-1.7,3.46-.36,5-1.21.76-2.06-3.89-1.07-2.11-3.72,1.48-.49.77-3.11,2.89-3a2.78,2.78,0,0,1,.86,1,18.11,18.11,0,0,1,.69,2.6c3.08,3.05,3.93,2.77,5.1-1.65C97,176.27,97.28,175.73,98.17,176Z"/><path class="cls-40" d="M157.1,155.05c-1.44.09-2.91-.21-4.1,1.11a3.09,3.09,0,0,1-4.06.44c-1.55-.93.11-2.37-.22-3.65-1.72-.49-2.89,1.26-4.5,1.16a1.48,1.48,0,0,1-.25-1.33c4-3.18,6.79-7.65,11.14-10.45,3.41.2,3,2.31,2.28,4.58-.6,1.75-2.18,2.87-3.11,4.53,2.56.49,4.35-2.49,6.93-1.39,0,2.27-2.26,3.16-3.06,4.95Z"/><path class="cls-41" d="M119.13,178.94c1.18-1.45-2.64-6.52,3.39-4.64.5.15-.89-5.3,2.66-2.36,3,2.49-1.21,3.05-2.14,4.5,0,.06.1.34.21.38a8,8,0,0,0,1,.25C122.82,178.51,120.67,177.9,119.13,178.94Z"/><path class="cls-42" d="M137.19,164c1.38-.55,2.81-1.35,3,1.22.08,1.2-.54,2.62.86,3.51-.72,1.72-2.3,2-3.87,2.32-1.1-1.19-.79-2.82-1.32-4.19A3.17,3.17,0,0,1,137.19,164Z"/><path class="cls-43" d="M136.33,167c2.15,1,.88,2.66.84,4.09L136,172c-.9-1.47-3.14-.36-3.93-2a1.73,1.73,0,0,1-.35-1.75,2.42,2.42,0,0,1,.93-.81,7.81,7.81,0,0,1,3-.45Z"/><path class="cls-44" d="M146.07,165c-1.55-2.21.68-3.24,1.72-4.17.6-.54,1.24,1,1.33,2Z"/><path class="cls-45" d="M175.16,105.05c.35,2-.52,4.18.52,6.29,3.18-1,2.23-5.19,5.08-6.34,1.21,2.13-.56,4-.47,6.1A24.73,24.73,0,0,1,177.16,122l-.56.4a2.74,2.74,0,0,1-1.23-.54c-1-1.14-1.84-.69-2.94,0-1.87,1.19-3.89,1.87-5.78-.11-1-2.94.78-5.34,1.52-7.94,1.09-3.09.92-6.48,2.28-9.51C172.46,101.63,173.86,103,175.16,105.05Z"/><path class="cls-46" d="M161.21,150.05a29.65,29.65,0,0,1-9.79,3.72c.34-2.83,3-3.66,3.89-5.53.84-1.66,3.87-3.67-.19-5.25-.47-3.5,2.24-5.52,3.78-8.08a1.85,1.85,0,0,1,1.33-.08c1.25,1.42,1.51,3.67,3.64,4.37,1.34.78,3.13.5,4.23,1.81-.89,1.73-1.34,3.71-2.95,5-2.11.59-2.62,2.73-4,4.06Z"/><path class="cls-47" d="M168.1,141c-1.67-.19-3.54.68-4.93-1,2.24-.51-.15-2,.61-2.84.7-1.13,2-1.58,2.88-2.52a7.53,7.53,0,0,0,1.85-3.2,3.39,3.39,0,0,1,.88-1c1.24-.69,1.25-2.36,2.36-3.08s2.75-2.15,3.43.6C174.48,133.27,169.74,136.3,168.1,141Z"/><path class="cls-48" d="M175.18,128c-2.11-1.22-3.27-.79-3.16,1.82.12,2.94-1.46,1.74-2.78,1.15-3.35-3.77-2.41-7.61,2.25-8.55,1.49-.3,3-1.76,4.67-.41h0c.86,1.32-1.43,2.6,0,3.92A2.05,2.05,0,0,1,175.18,128Z"/><path class="cls-40" d="M161.19,150.08c-.09-2.73.75-4.55,4-4.06C164.18,147.72,163.78,150,161.19,150.08Z"/><path class="cls-40" d="M176.11,126c-1.79-1.33-.41-2.62,0-3.92h1Z"/><path class="cls-49" d="M5,77a3.88,3.88,0,0,0,1.2-2.94c1.55-1.8-.08-4.87,2.5-6.26,1.62.84,2.48,2.54,4,3.54a4.07,4.07,0,0,1,.23,2.79c-2.6,3.93-.21,9.16-3.36,13a1.77,1.77,0,0,1-1.33.21c-1.55-1.31-.87-3.42-1.81-5-.29-.33-.56-.68-.84-1a4.14,4.14,0,0,1-1.13-3.08A4.05,4.05,0,0,1,5,77Z"/><path class="cls-11" d="M5,77l.09,1c.29,4.64.74,9.29-.89,13.8a3.32,3.32,0,0,1-.92,1.36c-3.62-1.51-.32-5-2-7,0-.69-.05-1.38-.07-2.07,2.06-3.08-.2-7,1.92-10.07C3.39,75.26,3,76.89,5,77Z"/><path class="cls-50" d="M9.09,67.9c-1.53,1.79-.52,4.76-2.87,6.17.1-3.91-.34-8,3-11,0,1,0,2,0,3A1.21,1.21,0,0,1,9.09,67.9Z"/><path class="cls-51" d="M5.22,108.07V110a4.46,4.46,0,0,1-.73-.13c-.1-1.28-.2-2.56-.29-3.83-1.78-2.9-1.45-6-1.07-9.19.48-1.55.84-3.19,2.5-4,2,.56,2.15,2.65,3.29,3.94.93,1.93,2.88,3.61,1.6,6.12-1.64,1-2.68-.25-3.85-1-.8-.57-.74-1.6-1.46-2.76a24.79,24.79,0,0,1,1.1,3.3,10.61,10.61,0,0,1-.22,4.38A3.86,3.86,0,0,1,5.22,108.07Z"/><path class="cls-52" d="M5.35,110c2.84,1.87,1.65,4.71,1.74,7.24a4.09,4.09,0,0,1-.83-.36C5,114.72,5.37,112.33,5.35,110Z"/><path class="cls-11" d="M4.25,96l0,10c-.63,1-1.25,2-1.87,3-.7-2,.65-4.25-1-6l0-2.07c1-2.28-.47-5.23,2-7.11C4.8,94,4.89,94.87,4.25,96Z"/><path class="cls-53" d="M3.23,94c-.63,2.3-1.26,4.61-1.9,6.91a87.65,87.65,0,0,1,0-14.76c2,1.93-.3,5,1.81,6.91a.57.57,0,0,1,.28.61C3.36,93.9,3.3,94,3.23,94Z"/><path class="cls-54" d="M109.19,6c10.15,1,19,5.8,28,10l-.46.53c-3.41.69-6.47,1.85-7.47,5.7a1.61,1.61,0,0,1-1.35-.19,6.8,6.8,0,0,1-1.18-2.56c-1.17-2-3.23-1.88-5.13-2.28-2.65-.56-5.58-.77-6.62-4,1.22-1.4,2.74-1.17,4-.36,1.69,1.07,3.38.86,5.16.52,0-.2-.15-.23-.61-.1-1.1.3-2.62.91-3.17-.26C118.1,8.2,110.77,11.71,109.19,6Z"/><path class="cls-55" d="M154.17,29.06a22,22,0,0,1,5.94,6c-3,2.81-4.53.6-6.47-2.83.73,2.68,2.1,4.27.63,6a1.62,1.62,0,0,1-1.83-.37c-3.89-5.82-10-9.43-14.58-14.54a5.4,5.4,0,0,1,2.37-3.62c3.53-.21,4.74,3.16,7,4.78A49.74,49.74,0,0,0,154.17,29.06Z"/><path class="cls-56" d="M109.19,6a3.29,3.29,0,0,0,3.64,2,6.75,6.75,0,0,1,5.89,2.17c2.13,2.65,5.76,1.66,8.69,3.64-4.68,1.15-8.43-.19-12.25-.77a3,3,0,0,1-1.34.79c-1.28-.05-2.8.26-2.65-1.84a8.45,8.45,0,0,0-7-6,.52.52,0,0,1-.88-.13c0-.27-.09-.53-.14-.79l5.78.06A2.5,2.5,0,0,1,109.19,6Z"/><path class="cls-57" d="M154.2,38a4.78,4.78,0,0,0-1.57-4c-.8-.77-2-1.85-.67-2.87,1.7-1.28,3.37.77,3.52,1.5.65,3,2.44,2.87,4.63,2.47l2,3c1.25,3.3.63,4.28-2.4,3.75a8.87,8.87,0,0,1-3.54-1.66A5.27,5.27,0,0,1,154.2,38Z"/><path class="cls-58" d="M165.19,41l4,6-.49.43a3.62,3.62,0,0,1-1.26.21c-1.21-.12-2.45-.43-3.57.38a2.94,2.94,0,0,1-1.2.36,4.26,4.26,0,0,1-2.24-1.14c-1.33-1.33-3.21-.93-4.79-1.49-1.79-.9-3.32-2-2.94-4.34a1.5,1.5,0,0,1,1.06-.8c1.73.15,3.47.1,5.11,1C161.06,42.82,163.21,42.36,165.19,41Z"/><path class="cls-59" d="M154.17,29.06c-5.25.3-7.61-4.18-11-6.89-1-.78-1.54-2-3-2.19-1.51-.44-2.69-1.1-2-3C144.46,19.82,149.46,24.25,154.17,29.06Z"/><path class="cls-60" d="M175.19,59.05c-1.8,1.72-2-.43-2.74-1.17A23.13,23.13,0,0,1,168.22,51c.73-1.2-.35-2.77.81-3.87l.18-.11C172,50.65,173.34,55,175.19,59.05Z"/><path class="cls-61" d="M165.19,41a2.6,2.6,0,0,1-3,2.64,64.3,64.3,0,0,1-8-2.6c-.41-1.78,1-1.79,2.05-2.06a30.88,30.88,0,0,0,3.5,1.75c2.79,1,3-.51,2.43-2.66A5.66,5.66,0,0,1,165.19,41Z"/><path class="cls-62" d="M138.26,17l2,3a3.25,3.25,0,0,1-2,3.09,3.87,3.87,0,0,1-1.59-1.8,6.3,6.3,0,0,1-.85-2.9,3,3,0,0,1,1.36-2l0-.38Z"/><path class="cls-63" d="M169.18,71.05c.14-1.06-.31-2.59,1.3-2.72,2-.15,2.38,1.66,2.53,3,.44,4,.53,8,2.15,11.73a3.47,3.47,0,0,1,1.46,4.07,4,4,0,0,1-3.78,2.47,2.25,2.25,0,0,1-1.34-.84c-2.51-3.82-1-8.35-2.21-12.41C169,74.59,167.8,72.84,169.18,71.05Z"/><path class="cls-64" d="M169.18,71.05q.49,2.51,1,5c.59.75.57,1.6-.22,2s-1.52-.12-2.14-.65c-2.15-2.64-2-6.17-3.49-9.05-.9-3.76-3.79-6.87-3.63-11a1.6,1.6,0,0,1,1.89-.79l.63.4C167.07,60.9,166.5,66.66,169.18,71.05Z"/><path class="cls-65" d="M176.17,87.06c-.34-1.34-.67-2.67-1-4a13.92,13.92,0,0,1,2.17-8.55c1.74,5,4.24,8.9,1.66,13.64C177.6,89,176.75,88.36,176.17,87.06Z"/><path class="cls-66" d="M176.17,87.06,179,88.15c1.26,1.54,2.83,3.07.24,4.81a2.38,2.38,0,0,0-.3-.82c-1.4-1.45-3.48-.48-5-1.42-.61-.4-1.09-.86-.75-1.68Z"/><path class="cls-67" d="M167.19,50.06c0,.34,0,.68,0,1-.86.86-1.77,1.57-3.1,1.12a2.81,2.81,0,0,1-1.59-2.94,2.24,2.24,0,0,1,.76-1.16l-.05,0c1.55-1.3,2.79-.41,4,.56A1.07,1.07,0,0,1,167.19,50.06Z"/><path class="cls-68" d="M164.17,52.05l3-1c.47,1.89-.84,2.84-2,3.86a1,1,0,0,1-1.19.13,2.37,2.37,0,0,1-.23-2.54Z"/><path class="cls-69" d="M164.25,54.85a2.53,2.53,0,0,0,.87.09c1.54,2.67-.69,1.9-1.89,2.07h0c-.77-.55-1.7-1-.95-2.22A1.85,1.85,0,0,1,164.25,54.85Z"/><path class="cls-70" d="M167.19,50.06a4,4,0,0,1-.11-.9,2.46,2.46,0,0,1,1-2.06,4,4,0,0,1,.91,0c-.61,1.22,2.11,3.14-.81,3.87Z"/><path class="cls-71" d="M175.16,105.05c-1.26-.43-2.15-2.38-3.87-1-1.87-2.86-.33-5.9-.44-8.85a.94.94,0,0,1,1.35-.2l2,1C175.24,99,176.25,101.89,175.16,105.05Z"/><path class="cls-72" d="M172.2,95a7.43,7.43,0,0,1-.93.13c-2.88,0-6.35,1.34-7.25-3.18,1.76-1.63,4-1.1,6-1.27a30.32,30.32,0,0,0,4.36-.39c1.83-.19,3.49,0,4.53,1.82Z"/><path class="cls-73" d="M114.21,13.11l1,0a12.19,12.19,0,0,0,7.5,3.06c2.1.14,4.72,0,5.52,2.91-2.38,1.38-5.16-1-7.49.81-3.59-.6-7-2-10.62-2.41a24.09,24.09,0,0,1-3.58-.5c-3-1-6.27-.43-9.16-2-1.77-.93-3.67-1.51-3.41-4.17C94.21,7.78,91.05,9.48,90,8.2a1.22,1.22,0,0,1,.08-1.32l.15-.8c3.45-.32,6.27.1,8.61,3.45,2.06,3,6.46.63,9.34,2.53C110.13,12.71,111.91,14.39,114.21,13.11Z"/><path class="cls-74" d="M55.21,19.06l3-2c1.11,0,2.26.09,3-1,2-2.15,4.82-.94,7.08-1.95,2.68-1.93,6.31.17,8.92-2.09,3.76-1.57,7.51-2.9,11.19.18-.93,3.41-4.41.36-5.91,2.33a8.29,8.29,0,0,1-1.92.68c-1.9.49-3.89.69-5.55,1.88a7.19,7.19,0,0,1-1.19.71c-2.11.5-4,1.78-6.25,1.78C63.44,19.41,59.21,22,55.21,19.06Z"/><path class="cls-27" d="M88.36,12.93c-3.42-4.09-7.43-.82-11.17-.91,1.38-2.73,3.94-1.86,6.13-1.94s4.35.36,5.58-2.06C90.4,9.85,91.4,11.61,88.36,12.93Z"/><path class="cls-75" d="M88.36,12.93c1.22-1.52.46-3.26.54-4.91l1.18-1.14.12,1.17a4.9,4.9,0,0,1,1,4.49c-2.42,4.16-5.62,3.39-9,1.44C83.59,9.84,86.47,14.29,88.36,12.93Z"/><path class="cls-27" d="M68.27,14.11c-2.1,1.61-4.83.91-7.08,1.95C62.87,12.92,65.81,14.4,68.27,14.11Z"/><path class="cls-27" d="M84.17,6a3.52,3.52,0,0,1,5,0Z"/><path class="cls-76" d="M103.29,6l.88.13c.63,1.37.41,2.19-1.3,1.95-.9-.14-2.11-.22-1.75-1.53C101.21,6.15,102.53,6.12,103.29,6Z"/><path class="cls-54" d="M114.21,13.11c-2.43,2-4.24.53-6-1l3,0C111.88,13.24,113.1,13,114.21,13.11Z"/><path class="cls-77" d="M33.26,35.09c.2-1.92.58-3.71,2.93-4.08,1.4-1.48,3.59-2,4.69-3.87,2.64-2.72,5.49-4.36,9.13-1.69a2,2,0,0,1,.57,1.33,3.26,3.26,0,0,1-1.16,1.81c-3.42,1.47-5.7,4.68-9.18,6.09C37.92,34.79,35.55,34.33,33.26,35.09Z"/><path class="cls-78" d="M26.15,44.05c-3.37-1.27-1.4,3.3-4.27,3.17C20,42.38,24,39.54,26.22,36.11l4.43-3.44c-.6,2.37-1,3.92-1.39,5.48a1.84,1.84,0,0,1,.51,1.74,5.23,5.23,0,0,1-.46,1.19C28.52,42.35,27.86,43.76,26.15,44.05Z"/><path class="cls-79" d="M50.05,25.94c-3.53-1.67-6.31-.38-8.77,2.2-2.2,0-2.13-1.56-2.11-3.09l3-3c2.42-2.33,4.61-3,6.12.9C50.3,23.15,51.26,23.92,50.05,25.94Z"/><path class="cls-80" d="M33.26,35.09c1.9-2.83,4.43-1.64,6.86-1.08-1,3.52-3.66,5.66-6.6,7.52C32,41.17,29.65,43.08,29.05,40h0a32.52,32.52,0,0,1,4-4.09A3.62,3.62,0,0,1,33.26,35.09Z"/><path class="cls-81" d="M39.17,25.05l2.11,3.09C40,29.92,38.64,31.39,36.19,31c-.61-1.2-4.44-3.3.54-3.05C39.63,28.11,36.9,24.71,39.17,25.05Z"/><path class="cls-82" d="M33.11,35.9a7.47,7.47,0,0,1-4,4.09c.06-.61.13-1.23.19-1.84Z"/><path class="cls-83" d="M18.24,49.29c3.2-3.14,4.29,2.24,6.85,1.69a1.1,1.1,0,0,1,1.18-.23,4.8,4.8,0,0,1,.93.87,8.57,8.57,0,0,0,3.25,2.81c1.11.62,2.2,1.28,3.31,1.9a64.27,64.27,0,0,1,5.79,3.09c1.58,1,3.35,1.79,4,3.77A1.52,1.52,0,0,1,43,64.42c-2.58.75-4.42-.91-6.38-2-4.45-2.53-8.82-5.21-13.42-7.48C21,53.5,18.53,52.34,18.24,49.29Z"/><path class="cls-82" d="M26.09,51h-1c-.15-2.39-.55-4.81,1.06-6.93L29.06,40c.93,2.07,3.18-.9,4.14,1.07C32.15,45.31,30,48.79,26.09,51Z"/><path class="cls-84" d="M18.24,49.29l5,4.74a2.2,2.2,0,0,1-1.33,1.64c-1.69.58-2.81-.27-3.76-1.52-.3-1.36-.59-2.72-.89-4.08Z"/><path class="cls-85" d="M55.21,19.06c4.35.88,8.61-1.38,13-.38a1.55,1.55,0,0,1-.67,1.14c-3.65,1.85-7.76,2.44-11.48,4.12-.92.61-1.66,1.57-2.9,1.6-3.37-3.34-3.36-4,.1-6.53Z"/><path class="cls-86" d="M53.22,19c-.49,2-2.9,4,0,6.07a1.61,1.61,0,0,1,0,2.26,2.36,2.36,0,0,1-3.07-.3c0-.37-.06-.73-.08-1.1.27-1.48-.75-2.2-1.72-3-.51-3.07.85-4.67,3.88-5a2.48,2.48,0,0,0,.8.2A1.82,1.82,0,0,0,53.22,19Z"/><path class="cls-87" d="M18.12,54.15a7.46,7.46,0,0,0,4.05.94c1.19,1.42.38,2.93.19,4.41C20.59,62.38,21,66.65,17,68.13a9.25,9.25,0,0,1-2-6c.12-1.7.34-3.34,2.24-4.05C18.65,57,18.09,55.52,18.12,54.15Z"/><path class="cls-88" d="M17.22,58.08c-.36,1.3-.71,2.61-1.07,3.92-.78,1-.39,2.73-1.91,3.34-3.1-.27-2.12-2.53-2.1-4.32a18.72,18.72,0,0,0,1.23-6.83C16.28,52.4,16.34,52.46,17.22,58.08Z"/><path class="cls-89" d="M12.14,61c1,1.17-.21,3.48,2,4,1.65,2.78.53,4.62-2,6-3.55,1.43-2.65-1.5-3.07-3.14.06-.61.13-1.22.19-1.83C11.77,65.26,10.5,62.32,12.14,61Z"/><path class="cls-90" d="M27.19,139l-1-1a2.15,2.15,0,0,1-.31-2.76c1.53-1.42,2.9-.57,3.78.65,6,8.37,13.63,15.12,21.76,21.34a3.45,3.45,0,0,1,1,1.66c0,.84-.3,1.42-1.31,1.19-8.67-3.73-15.21-10-20.65-17.52C29.53,141.26,28.74,139.82,27.19,139Z"/><path class="cls-91" d="M54.15,164l-.9.09a3.2,3.2,0,0,1-1.48-.36,1.68,1.68,0,0,1-.68-.74l1-1c3.12-6.43,7.5-12.16,10.33-18.75A7.83,7.83,0,0,1,66,139.85a2.08,2.08,0,0,1,1.37.07,2.41,2.41,0,0,1,.46,2,11.94,11.94,0,0,1-1,2.5,51.69,51.69,0,0,1-2.89,5.14,39.85,39.85,0,0,0-4,6.64,34.58,34.58,0,0,0-2.47,5.22,6.45,6.45,0,0,1-.88,1.76A2.81,2.81,0,0,1,54.15,164Z"/><path class="cls-92" d="M63.16,143a48.73,48.73,0,0,1-11,19c-.32-.63-.64-1.25-1-1.88l1.08-1.06a5.66,5.66,0,0,1,1.33-3.56,57.08,57.08,0,0,0,2.76-5.11c1.38-2.07,2.47-4.32,4-6.33a4.64,4.64,0,0,1,1.6-1.25A1.51,1.51,0,0,1,63.16,143Z"/><path class="cls-93" d="M49,168.27c.14,2-1,.89-1.78.76-1.91-1.53-2.66-3.43-1.45-5.67.65-1.19,1.71-1.63,2.69-.16A13,13,0,0,1,49,168.27Z"/><path class="cls-94" d="M49,168.27c-1-1.6-2.9-3.11-.54-5.07l2.66-.21,1.14.07c.87,2.3-.24,3.78-2,5Z"/><path class="cls-95" d="M26.2,135v3c-5.51,3.89-6.81,3.71-7.9-1.07,1.2-.5,2.54-.69,3.54-1.62,1.18-.81,2.4-1.41,3.86-.78Z"/><path class="cls-95" d="M17.19,136.07,17,133a1.61,1.61,0,0,1,1.16-1.69,3.45,3.45,0,0,1,2.87.32c1,1.32.77,2.76.4,4.21-1,1.21-2.12,1-3.26.2C17.85,136.07,17.52,136.07,17.19,136.07Z"/><path class="cls-96" d="M18.17,136.05c1.09-.08,2.27.11,3-1a1.19,1.19,0,0,1,1.21-.07A.75.75,0,0,1,22.2,136c-.88,2.11-2.25,2.08-3.9.92A6.88,6.88,0,0,1,18.17,136.05Z"/><path class="cls-97" d="M18.18,132,17,133c-1.23,0-2.49,2.41-3.68,0,0-.65-.07-1.29-.1-1.93,3.3-.22,4.09-1.92,3-4.88a8.61,8.61,0,0,1,0-6.14c1.08-.16,1.5.57,1.89,1.37C18.31,124.9,20.86,128.42,18.18,132Z"/><path class="cls-98" d="M17.24,121l-1-1h0a14.23,14.23,0,0,1-4-6l-2-3a1.12,1.12,0,0,1,.34-1.27c4.94-.33,5.22,4.24,7.3,6.93.63,1.33,1.41,2.64.7,4.19A.88.88,0,0,1,17.24,121Z"/><path class="cls-97" d="M12.19,114.05c1.36,2,3.66,3.32,4,6C12,120,12.88,116.48,12.19,114.05Z"/><path class="cls-52" d="M10.21,110c0,.35,0,.7-.05,1-2.28,0-3.11-2.3-4.94-3v-1c.77-2.42,1.85-2.93,3.41-.57a16.91,16.91,0,0,1,1.51,2.89C10.17,109.6,10.19,109.82,10.21,110Z"/><path class="cls-99" d="M56.18,163c0-.66,0-1.32,0-2,2.91-2,5.68-.78,8.37.47a57.07,57.07,0,0,0,13.54,4.41,7.61,7.61,0,0,1,1.55.51c1.83,1.31,4,1.2,6.06,1.34,2.44.17,4.62.72,4.24,4-.3.82-.68,1.55-1.77,1.29a28.71,28.71,0,0,0-9-1.07c-8,.38-15-2.73-21.83-6.48A2,2,0,0,1,56.18,163Z"/><path class="cls-100" d="M56.18,163c6.07,4.91,13.5,6.31,20.78,8.1a18.13,18.13,0,0,1,2.23.83l.67.71c1,1.12,4.25-.66,3.65,1.88-.55,2.32-3.2,1.46-5.14,1.08-6.26-1.24-12.17-3.57-18.18-5.58-4,0-5.26-2.79-6-6A2,2,0,0,1,56.18,163Z"/><path class="cls-101" d="M88.18,173l1.07-.85a1.41,1.41,0,0,1,1.15-.65,1.79,1.79,0,0,1,1.16.71,2.16,2.16,0,0,1-.71,2.55l-.67.28c-1.89.07.4,4.38-3,3a2.24,2.24,0,0,0-.14-1A7.15,7.15,0,0,1,88.18,173Z"/><path class="cls-102" d="M50.19,168l2-5,1,1C53.25,166.2,53.51,168.51,50.19,168Z"/><path class="cls-103" d="M125.29,166.15c-9.41,3.43-18.88,6.55-29.12,5.86-1-.64-1.77-1.32-.79-2.56,3.38-2.65,7.62-1.55,11.39-2.63,5.53-1.59,11.19-2.67,16.44-5.18,1.85-.88,3.88-2,6-.59a2.36,2.36,0,0,1,.46,1.47C129,164.63,127.8,166.2,125.29,166.15Z"/><path class="cls-104" d="M90.24,176.12l-.06-1.06v0c.92-.53,1.67-1.31,1.42-2.38-1.68-7.17-.42-14.45-.84-21.66,0-5.28,0-10.55,0-15.82.52-4.95-1.09-10.07,1.18-14.88a1.08,1.08,0,0,1,1.65.11,6.86,6.86,0,0,1,1,4.3c-.18,16.08.55,32.17-.46,48.25l.15,2c0,1.65-.66,3-2.33,3.23C90.59,178.36,90.88,176.74,90.24,176.12Z"/><path class="cls-105" d="M94.1,173c-1.54-1.51-.87-3.44-.87-5.19-.07-15.89-.07-31.79-.09-47.68a1.15,1.15,0,0,1,1.62.45c1.11,2,.8,4.21.81,6.35q0,17.48,0,34.94c0,.87,0,1.73,0,2.6-.11,1.87.46,3.79-.39,5.62l1,2Z"/><path class="cls-106" d="M125.29,166.15q1.93-1.62,3.88-3.23c3.5.36,3.24,2.78,2.87,5.27,0,.58.05,1.16.07,1.74-1.51-.51-2.77-1.7-4.66-1.15C125.08,169.46,125.14,167.75,125.29,166.15Z"/><path class="cls-107" d="M114.2,175c-1.11-2.05,0-3.29,1.8-3.59,1.59-.28,2.36,1.24,2.1,2.61-.53,2.82-2.68.25-3.9,1Z"/><path class="cls-108" d="M90.24,176.12c2.3,2.81,2.77-.51,4-1.2a3.54,3.54,0,0,0,.83.23,2.62,2.62,0,0,1,.9,1.52c-.55,4.19-2.88,3.88-5.72,2.24C90.25,178,90.25,177.05,90.24,176.12Z"/><path class="cls-109" d="M95.25,176a7.1,7.1,0,0,0-.17-.8c.23-.74.17-1.85,1.32-1.68,1.38.2,1.73,1.32,1.77,2.56l-1,1C96.06,177.56,95.71,176.67,95.25,176Z"/><path class="cls-110" d="M107.8,174.08c-.25.23-.5.66-.84.76A1.53,1.53,0,0,1,105,174c-.31-.67.29-.81.72-.88A1.68,1.68,0,0,1,107.8,174.08Z"/><path class="cls-111" d="M132,168.19c-1.47-1.48-.31-4.39-2.87-5.27a6.77,6.77,0,0,1,0-.9c1-1.07-.07-1.86-.36-2.76-.83-2-3-3.63-1.82-6.22,4.07-.58,4,3.8,6.4,5.29a3,3,0,0,1,.95,1.8c-1.39,3,2.16,2.41,2.88,3.88-.29,1-.58,2-.86,3l-.21.09c-1.09,1.06-2.65-.57-3.7.65Z"/><path class="cls-112" d="M134.31,160.13l-1.13-1.06a4.22,4.22,0,0,1,2-2.75c2.68-1.36,4.63-3.93,7.71-4.63a1.82,1.82,0,0,1,1.41,1.44,7.93,7.93,0,0,0-.06,1l-4.16,3.75v0C138,158.24,136.7,160.57,134.31,160.13Z"/><path class="cls-113" d="M140.06,157.86c1.26.66,2.1,1.47,1.14,3-.37.59-1,1.08-1.49.55-1.17-1.21.24-2.33.36-3.51Z"/><path class="cls-114" d="M95.25,176l2,1.1c1.9,2.19.51,4-1.27,4.69-2.54,1-4.91.37-5.68-2.83C92.56,179,95.37,179.93,95.25,176Z"/><path class="cls-115" d="M144.28,153.13l-1.1-1c-.13-3.3,3.09-4.08,4.65-6.11a110.72,110.72,0,0,1,8.68-10.3c.79-.56,1.59-1.1,2.61-.6-.19,3.22-2.9,5.16-4,7.93C151.66,146.54,149,150.89,144.28,153.13Z"/><path class="cls-116" d="M132.42,167.71c.39-5,2.7.89,3.7-.65C135.11,168.59,133.76,168.09,132.42,167.71Z"/><path class="cls-117" d="M164.17,92.07c1.31,3.46,5.33.69,7.1,3.09,1.58,3,.15,6,0,8.92-.61,3.36-.69,6.83-2.08,10-1.56-1.32-1.28-3.3-1.79-5,.1-4,.92-8,.39-12-1.55-1.55-3.94-.37-5.53-1.73-.93-1.27-.27-2.29.52-3.29A1.1,1.1,0,0,1,164.17,92.07Z"/><path class="cls-40" d="M176.16,122.05c-1.3-.08-1.85,1.33-2.89,1.58-5.14,1.2-5.82,2.37-4,7.38l-.26.16c-1.88,1.06-3.57,0-5.31-.47a1.88,1.88,0,0,1-.85-1.07c.58-3,1.48-5.88,4.36-7.59,1.8.11,3.92.3,5-1.17C174.93,117.09,175.32,120.08,176.16,122.05Z"/><path class="cls-118" d="M167.18,122,162.86,130c-1.3.83-1.88.14-2.25-1,2.57-6.61,3.93-13.7,7.68-19.85,1.52,1.46.61,3.36.92,5C168.53,116.76,167.86,119.4,167.18,122Z"/><path class="cls-119" d="M169.81,119.83c-1-2.1-.09-3.08.8-4a1.52,1.52,0,0,1,1.08.58C172.35,118.07,171,118.6,169.81,119.83Z"/><path class="cls-120" d="M161.18,129.11l1.68.86.37.08c.75,2.11,6.37.15,4,4.83-.17,2.11-1.78,2.17-3.31,2.32-2.24,1.07-2.8-.81-3.69-2.1l-1.15,0-1.94.94c-.81-.66-.7-1.86-1.46-2.55a11.13,11.13,0,0,0-1.53-.8,15.63,15.63,0,0,1-2.09-1.13,7.8,7.8,0,0,1-.95-.77,11,11,0,0,0-3.08-2c-.75-.38-1.5-.77-2.22-1.21a26.71,26.71,0,0,0-5-2.88c-1.38-.74-2.81-1.39-4.16-2.2-1.29-1-3-1.67-3-3.75,1.28-2.3,3-1.45,4.63-.58,1.88,1,3.79,2,5.64,3a35.91,35.91,0,0,0,9,4.72,7.86,7.86,0,0,1,1.2.51,12,12,0,0,0,3.95,1.9C159.15,128.63,160.32,128.33,161.18,129.11Z"/><path class="cls-121" d="M160.27,135.1c1.47.27,2,2.28,3.69,2.1-.44.9,3.7,3.06-.79,2.85C160.93,139.15,159.39,137.83,160.27,135.1Z"/><path class="cls-122" d="M167.27,134.88c.07-2.76-1.61-2.78-3.79-2.79-3.5,0-.33-1.32-.25-2,2.09-.5,3.89.49,5.75,1.12C169.13,132.74,170.15,134.71,167.27,134.88Z"/><path class="cls-123" d="M9.16,87.08c2.13-4.09-.74-9.33,3-13,1.38-1.1,1.63-4.27,4.58-2.51.75,4.78-1.46,9.23-1.55,13.91a19,19,0,0,1-1.45,4.28c-1.64,1.43-2.59-.35-3.83-.82C9.34,88.43,8.88,87.91,9.16,87.08Z"/><path class="cls-124" d="M16.34,71.11,12.16,74V71c.93-1.91,2.29-3.68,2-6,.66-1,1.32-2,2-3,.38,2.06.75,4.11,1.13,6.17C18.06,69.5,18.3,70.66,16.34,71.11Z"/><path class="cls-125" d="M9.16,87.08l1,.94c1,.81,1.85,1.65.23,2.69a6.34,6.34,0,0,1-1.34.43C7.51,91,5.28,92.66,4.7,89.63c1.11-1.06-.38-2.2.08-3.28a1.47,1.47,0,0,1,.89-.87A2.78,2.78,0,0,1,7,85.57c.6.33.81,1,1.26,1.46Z"/><path class="cls-50" d="M5.29,86.08c-.55,1,1,2-.09,3-1.14.71.43,3-1.83,3.07.74-4.68.21-9.52,1.74-14.1.36,1,.71,2,1.06,3l.09.66A5.46,5.46,0,0,1,5.29,86.08Z"/><path class="cls-126" d="M8.21,87l-1-1a3.91,3.91,0,0,1,0-5C9,82.8,7.85,85,8.21,87Z"/><path class="cls-127" d="M7.2,81.05l0,5-1,0a5.81,5.81,0,0,1,0-5l0,0Z"/><path class="cls-128" d="M3.37,92.12,5.2,89.05c.62,3.19,3,0,4.22,1.18C9.1,92.13,7.73,92.76,6.06,93c-.61,1-1.21,2-1.81,3l-1-2a2.49,2.49,0,0,0-.09-.94A3.14,3.14,0,0,0,3.37,92.12Z"/><path class="cls-129" d="M6.06,93c.5-1.67,2.22-1.89,3.36-2.81a.72.72,0,0,0,.52,0,5,5,0,0,0,3.18-.11c.3-1.4-.29-3,1-4.18a11.39,11.39,0,0,0,5.51,5.61,2.65,2.65,0,0,1-.17,2.69c-3.89.6-4.41,3.68-5,6.75-3.1.37-4.19-2.63-6.35-3.83A4.38,4.38,0,0,1,6.06,93Z"/><path class="cls-130" d="M8.15,97.12c2.83.09,4.48,1.94,6,4,1.79,5.19,4,10.3,2.92,16-2.58-2.1-2.44-6.79-6.84-7.14l0,0c-1.12-1.39-1.1-3.07-1.19-4.72a3.28,3.28,0,0,1,1-2.21C10.81,100.64,8.23,99.29,8.15,97.12Z"/><path class="cls-131" d="M10.11,103.07c0,.64,0,1.28,0,1.92-.9.45-1.21,1.45-1.94,2.07-1-1.38-2-1.42-3,0,0-1.7,0-3.4.08-5.1.45-.65,1.36-.36,1.87-.89Z"/><path class="cls-132" d="M7.17,101.07A1.7,1.7,0,0,1,5.3,102c0-.92-.08-1.85-.16-3.55Z"/><path class="cls-133" d="M110.17,16.09l11,3c2.62.33,5.46.15,7.06,2.95a4.31,4.31,0,0,0,.81.17,2.27,2.27,0,0,1,1.09,1c.79,2.33-.66,2.57-2.39,2.57-6.36-3.24-13.6-4.37-19.74-8.16C108.05,16.2,109.61,16.85,110.17,16.09Z"/><path class="cls-134" d="M129.19,23a5.32,5.32,0,0,0-.18-.79c.61-5.72,1.3-6.22,8.11-5.81a2,2,0,0,1-1.24,1.86c-.86,1-2.21,1.24-3,2.24C131.84,21.65,131.9,24.39,129.19,23Z"/><path class="cls-135" d="M128.2,22.05l-7.06-2.95c2.32-3.54,4.69.08,7,0C128.18,20.06,128.19,21.05,128.2,22.05Z"/><path class="cls-59" d="M137.43,21c.26.71.51,1.42.77,2.12,6.66,3.54,11.14,9.43,16,14.91a2.33,2.33,0,0,1,2,1l-2.05,2.06-1.16.06a2.65,2.65,0,0,1-2.69-.92c-4.3-4.63-9.49-8.28-14-12.71C134.6,25,134.28,22.67,137.43,21Z"/><path class="cls-136" d="M137.06,27.06c5.88,4.05,10.82,9.16,15.95,14.05a6.21,6.21,0,0,0,3.09,4,1.23,1.23,0,0,1,.51,1.12,5.24,5.24,0,0,1-1.35,3,1.57,1.57,0,0,1-1.71-.71,18.16,18.16,0,0,0-2.63-3.72,11.08,11.08,0,0,1-.82-1.09c-3-4.38-7.29-7.42-11.44-10.61-1.89-1.45-4.32-2.45-5-5.12a2.1,2.1,0,0,1,.64-1.29A2.22,2.22,0,0,1,137.06,27.06Z"/><path class="cls-137" d="M156.09,46.13c0-.34,0-.68,0-1,1.76.38,4.26-1.28,5.05,1.81.12,1.24-.24,2.93,2,2.16.34,1,.67,2,1,3h0c-1.79,1.55-3.06,3.94-6,3.69A3.08,3.08,0,0,1,157,55a3,3,0,0,1-.37-2.72c.67-1.47,2-2.93.06-4.45A1.6,1.6,0,0,1,156.09,46.13Z"/><path class="cls-138" d="M168.12,47.1a2.11,2.11,0,0,1-1,2.06l-3.91-1C164.15,44.52,166.26,46.44,168.12,47.1Z"/><path class="cls-139" d="M163.17,49.08l-2.52,2.75c-.71-2-.83-3.5.5-4.91l2.07,1.18Z"/><path class="cls-140" d="M137.06,27.06h-2.87c-1.52,1-2.21.14-2.72-1.18,0-2.27,1.63-4.38.76-6.76a4,4,0,0,1,3.65-.85c.51.9,1,1.79,1.55,2.68C136.31,22.93,135.62,24.93,137.06,27.06Z"/><path class="cls-141" d="M168.29,77c1.14.7,1.91.63,1.9-1,2,4.16.33,8.91,2.1,13.11a1.74,1.74,0,0,1-1.69,2.15c-1.95-1-1.73-3.15-2.42-4.81C168.2,83.35,166.16,80.16,168.29,77Z"/><path class="cls-142" d="M171.05,90.93l1.24-1.76a5.07,5.07,0,0,1,.87-.13l1.25,1.27a3.64,3.64,0,0,1-3.19,1.7c-.36-.19-.51-.42-.43-.67S171,90.93,171.05,90.93Z"/><path class="cls-143" d="M157.12,55l1.11.1c1.34,1.46,2.72-1.1,4.07,0,.3.62.59,1.25.89,1.87l-2.27.09a6.81,6.81,0,0,1-2.56,2c-1.57.76-3.28,1.26-4.63,2.46a29.32,29.32,0,0,1-3.31,2.1c-1.14.61-2.19,1.38-3.28,2.08a68.8,68.8,0,0,0-8.6,4.79,41.78,41.78,0,0,0-5,3,16,16,0,0,1-2.34,1.17,16.06,16.06,0,0,0-4.66,2.15c-2.81,1.77-5.85,3.14-8.61,5A21.21,21.21,0,0,0,114.46,84c-2,1.69-4,2.58-6.52,1a4.61,4.61,0,0,1-1-1,3,3,0,0,1-.37-2c1.24-3.17,4.6.22,6.15-2a48.41,48.41,0,0,0,6.27-3.56,54.79,54.79,0,0,0,5.1-3.08c2.81-1.72,6.15-2.58,8.39-5.21,2.5-2.46,5.68-3.9,8.59-5.75a7.39,7.39,0,0,1,2-.56c5.31-.65,8.75-4.94,13.38-6.91Z"/><path class="cls-144" d="M168.29,77l1,10.06c.61,2.43,1.11,4.79-2.77,4.38-2.79-3.18-2.18-7.39-3.3-11.08-.89-3-1.38-6.07-2.73-8.91a7.45,7.45,0,0,1-.43-2.34c.14-1.27.08-2.94,1.76-3,1.17,0,1.67,1.4,2.08,2.48.58,1.49,1,3,1.45,4.8-.19-2-1.81-3.82-.07-5.6C167.14,70.63,167.08,74,168.29,77Z"/><path class="cls-145" d="M165.27,67.85c-.6,2.16.78,4.15.74,7.44-1.6-3.15-2.69-5.29-3.76-7.44-.25-.49-.32-1.58-1-.27a4,4,0,0,0-.1,1.48c-4.07-1.41-3.71-5.58-5.32-8.53.42-1.14,1.89-1.27,2.33-2.4l2.74-1C162.29,60.72,164.49,64,165.27,67.85Z"/><path class="cls-67" d="M162.3,55.15c-1.36.26-2.74,1.79-4.08,0,2.51,0,3.4-3.14,5.95-3,0,.93.05,1.86.07,2.79Z"/><path class="cls-146" d="M166.16,91c3.29.46,3-1.92,3.11-4,1.41.91.27,3,1.78,3.85.06.36.11.72.17,1.08l-7.05.06h-.5l-.49,0c-1.3.81-2.19,2.54-4.15,1.79a2.51,2.51,0,0,1-.51-2.08,2.36,2.36,0,0,1,.86-1.26,6.23,6.23,0,0,1,3.05-.72A5.07,5.07,0,0,1,166.16,91Z"/><path class="cls-147" d="M90.32,11.88,90.2,8.05c2.79-.4,6-2.1,5.08,3.61-.37,2.29,3.34,2.61,5.44,3.26,1.8.55,4-.49,5.61,1.05-.69,1.1-1.87,1.37-3,1.76a5.66,5.66,0,0,1-2.09.2c-1.14-.14-2.24-.51-3.39-.6-.93,0-1.86-.09-2.78-.21a5.76,5.76,0,0,1-1.32-.41c-2-1.29-1.71-3.3-1.67-5.2C91.37,10.87,91.09,12.74,90.32,11.88Z"/><path class="cls-148" d="M103.17,16.74l3.16-.77,3.84.12c-.45.87-1.33.94-2.14,1.13C106.27,18.47,104.62,18.6,103.17,16.74Z"/><path class="cls-149" d="M90.32,11.88c1.25.08.18-2.31,1.87-1.76,1.37,8.59,2.46,17.12,1.51,26-1.13,10.49.79,21.08,0,31.64a2.56,2.56,0,0,0,.77,2.23A18.81,18.81,0,0,0,97,70c6,2.27,7.35-2.54,9.5-6.16,2-2,2-5.32,4.62-6.92a1.41,1.41,0,0,1,1.32.33c.87,2.59-.62,4.67-1.45,6.9-1,2-2.39,3.89-3.54,5.88-1.84,3.17-3.8,6.25-7.6,7.47-1.55.58-2.89-.33-4.32-.59-7.9-1.48-17.43,4.4-19.19,11.83a7.58,7.58,0,0,1-.32,1.41,3.12,3.12,0,0,1-.87,1.16c-2.11.17-3-1.21-3.74-2.87-1-2.42,1.88-4.14,1.15-6.51a3,3,0,0,1,.32-2,5.19,5.19,0,0,1,1.67-1.11c2.58-1.64,5.11-3.33,6.45-6.26a3.59,3.59,0,0,1,1.77-1.19c6.79-1.49,7-1.8,7.07-8.85,0-2.47-.09-4.93-.08-7.4.06-4.92-.17-9.83,0-14.74-.06-3.15,0-6.29,0-9.44a20,20,0,0,1,0-2.45c0-1,0-2.08.06-3.12,0-.74,0-1.49,0-2.23s0-1.4,0-2.1c-.29-1.57.85-3.59-1.46-4.51-2.69-.46-5.56.47-8.1-1.07a.93.93,0,0,1-.13-1.37l2-.1C84.87,13.18,88.52,16.11,90.32,11.88Z"/><path class="cls-150" d="M68.17,18.68c1.87-1,3.73-2,6-1.7,2.31-.26,4.56-1.68,6.93-.31,1.48,1.95,3.27.51,4.94.45s4-.59,4.41,1.78c.34,2.2-2,2.15-3.45,2.57-.62.17-1.24.4-1.88.53a79.11,79.11,0,0,0-20.51,6c-2.2,1-4.39,2.6-7.09,1.51a1.82,1.82,0,0,1-.81-1.22c.38-3.52,3.54-4,5.92-5.27,3.64-1.92,7.77-2.25,11.32-3.46-1.74-.75-3.51,2.14-5.65.75a.94.94,0,0,1-.3-.86Q68,19,68.16,19Z"/><path class="cls-151" d="M81.19,17.09C78.85,16,76.44,19.35,74.12,17a4.45,4.45,0,0,0,.08-.81c1.89-.93,4-.75,6-1.13l10,.05C87.72,18.17,84.57,18.17,81.19,17.09Z"/><path class="cls-75" d="M80.17,15c-1.85,1.09-4,.84-6,1.13,1.68-1.64,4-1.37,6-2.09A7.73,7.73,0,0,0,80.17,15Z"/><path class="cls-152" d="M50.13,27l3.06,0c2,.61,3.28,1.81,3.32,4a3.87,3.87,0,0,1-1.28,1.68C46.78,37.87,40,44.77,33.86,52.4c-.93,1.16-1.46,3.15-3.67,2.67-2-.12-3.12-1.35-3.9-3C32.11,42.35,40.42,35,49,27.94Z"/><path class="cls-153" d="M49,27.94c1.14,3.25-2.17,3-3.48,4.16C38.92,37.79,32.28,43.4,28,51.2c-.25.46-1.11.57-1.69.84-.06-.35-.12-.7-.19-1l7.11-9.94L40.12,34C43.13,32.05,45.21,28.72,49,27.94Z"/><path class="cls-154" d="M43.19,63.06l-4-3C44,51.23,49.67,43.25,60.28,40.63c2.45,2.21,4.6,4.58,4.49,8.19-1.7,3.62-5.5,5.1-8.1,7.83-2.82,3-5.46,6.14-8.53,8.89C45.81,66.08,44.28,65,43.19,63.06Z"/><path class="cls-155" d="M60.17,41.07c-9.64,3.42-14.68,11.93-21,19l-6-3,.31-.63c5.06-5.84,9.33-12.42,16-16.74,2.44-1.59,4.42-4.08,7.74-4C59,37.06,60.63,38.5,60.17,41.07Z"/><path class="cls-156" d="M21.29,59.05c.29-1.32.59-2.64.88-4,.35-.35.7-.7,1-1.06,5.4,1.61,9.75,5.17,14.61,7.78,1.71.91,3.57,1.53,5.37,2.28a42.73,42.73,0,0,1,6.14,2.84c1.63.83,3.64,1.8,2.83,4.38-2.68,1.42-4.7-.41-6.89-1.4-2.37-2.2-5.5-3.13-8.13-4.88a33,33,0,0,0-3.2-2,10.06,10.06,0,0,1-1.42-1.11,8.32,8.32,0,0,0-2.58-1.33,16.42,16.42,0,0,1-2.22-1.11C25.71,57.23,23.42,59.33,21.29,59.05Z"/><path class="cls-157" d="M30.19,55.07c6.55-8.21,13.24-16.28,22.35-21.86a20.06,20.06,0,0,1,2.64-1.15c1.31,2-.24,3.13-1.55,4.06A82,82,0,0,0,33.23,57l0,0Z"/><path class="cls-158" d="M52.21,71.16c-1.89-3.79-6.53-4-9-7.07v-1l5,2c3.58,1,6.6,3.16,9.76,5,2.19,1.66,5.26,2.1,6.69,4.82a1.68,1.68,0,0,1-1.06,1.63c-4,.21-6.69-3.28-10.42-3.93C52.5,72.32,52,72,52.21,71.16Z"/><path class="cls-159" d="M56.14,31.08l-3-4c0-.66,0-1.33,0-2,.66-.68,1.32-1.35,2-2a2.87,2.87,0,0,1,1.11,1.48c.68,1.08.26,2.44.93,3.52,0,.34,0,.67,0,1,.7.74,1.81.92,2.4,1.8a22.63,22.63,0,0,1,1.2,2.09,14.28,14.28,0,0,0,2.09,2.92,8.19,8.19,0,0,1,1.27,2.2c.87,3,3.37,5,4.67,7.78a43.59,43.59,0,0,0,3.1,5.8c1.13,2,2.67,3.81,2.58,6.3a2.39,2.39,0,0,1-1.47,1.46A2,2,0,0,1,71.73,59C66,50.45,61.93,40.86,56,32.38A1.12,1.12,0,0,1,56.14,31.08Z"/><path class="cls-160" d="M55.26,25.06c0-.67-.07-1.34-.11-2,4.25-1.62,8.46-3.38,13-4l0,1.05C64.16,22.47,60.58,26,55.26,25.06Z"/><path class="cls-161" d="M21.29,59.05c2.3-1.92,4.6-4.11,6.9,0,1,2.6-1,4.38-1.91,6.34-3.64,8-4.71,16.68-6.52,25.15l-.57.55c-5,1.51-5.12-1.75-5.07-5.18-.3-5.08,1.26-9.89,2.22-14.79.9-.79.79-1.91.94-2.94Z"/><path class="cls-162" d="M54.19,156l-1.95,3C43.33,152.82,35.1,145.88,29,136.71A3.31,3.31,0,0,0,26.2,135l0,0c-1-1.28-.34-2.34.45-3.38a4.69,4.69,0,0,1,2.61-1.44,3.77,3.77,0,0,1,2.17.36,120.23,120.23,0,0,0,22.39,23.67A1.36,1.36,0,0,1,54.19,156Z"/><path class="cls-163" d="M67.18,142c0-.66,0-1.32,0-2,1.25-3.6,2.48-7.22,6.45-8.84,6.08.43,11.58,3.1,17.43,4.43a1.44,1.44,0,0,1,.38,1.47c-.76,3.15.28,6.43-.7,9.57-4.72,1.59-8.94-.64-13.17-2C74.16,143.57,70.9,142,67.18,142Z"/><path class="cls-164" d="M79.18,167h-1c-.21-2.66,1.74-2.26,3.34-2.37s3.23.69,6.09-.37c-11.38.89-19.41-5.23-28.43-8.26.4-2.87,2.19-4.94,4-7,2.5-.09,4.32,1.59,6.37,2.58a51.52,51.52,0,0,0,16.54,5.14c2,.23,4,.64,4.87,2.83.08,2.87.82,5.78-.54,8.56A18.94,18.94,0,0,1,79.18,167Z"/><path class="cls-165" d="M67.18,142c2.37-1.45,4.41-2.07,7.17-.07,4.61,3.35,10.79,2.57,15.83,5.07,1.32,1.49,1.14,3.11.42,4.78a25.93,25.93,0,0,1-22.26-3.49c-1.4-.91-3.39-1.89-2.15-4.29A2.09,2.09,0,0,1,67.18,142Z"/><path class="cls-166" d="M59.18,156c2.07-1.51,3.73-.08,5.49.75,6.85,3.2,13.51,7.05,21.54,6.28,1.62-.16,3.18.26,2.78,2.4s-1.84,1.05-3.12,1c-2.56-.07-5.33-2.26-7.69.55-4.71,0-9-1.92-13.08-3.83-2.91-1.35-5.71-2.37-8.91-2.17C57.19,159.37,57.59,157.35,59.18,156Z"/><path class="cls-167" d="M66.19,144c2.81,4.84,7.65,5.87,12.6,7.09,3.81.94,7.73-.89,11.39.91a6.18,6.18,0,0,1,0,7c-7-1.6-14.29-2.38-20.79-6a29.25,29.25,0,0,1-6.2-4C64.19,147.37,64.58,145.34,66.19,144Z"/><path class="cls-168" d="M73.18,132c-2.72,2.13-3,6.07-6,8l-1,.05-.34-.58c.23-3.05,2.15-5.35,3.47-7.92a22,22,0,0,1,2.08-3.46c2.33-2.2,2.17-6.29,5.72-7.57a2.32,2.32,0,0,1,1.29.63C79.49,126.18,75.52,128.72,73.18,132Z"/><path class="cls-168" d="M63.16,143h-.95c-.62-1.81.23-2.89,1.79-3.63a2.21,2.21,0,0,1,2.11.53l.13.17A7,7,0,0,1,63.16,143Z"/><path class="cls-169" d="M61.18,144l-4,7c-3.16.39-4.66-2.34-6.63-3.85A65,65,0,0,1,36.7,132.28a4.74,4.74,0,0,1-1-4.23,4.56,4.56,0,0,1,4.37-2.41c2.84,1.13,4,3.85,5.65,6.07,2.6,3.42,5,6.79,10.15,6.94C58.51,138.72,61.31,140.39,61.18,144Z"/><path class="cls-170" d="M36.2,128.06c2.55,7.75,8.93,12.52,14.5,17.73,1.93,1.81,3.9,4,6.46,5.25-1,1.67-1.38,3.69-3,5-8.73-7.35-17.71-14.47-23-25C32.1,128.78,33.53,127.38,36.2,128.06Z"/><path class="cls-171" d="M61.18,144c-2.08-2.79-4-4.9-8.38-4.37-3.21.38-5.13-3.62-7.21-6s-3.61-5-5.39-7.57c0-2.54,1.91-2.53,3.63-2.82,4.32,4.23,10.5,5.92,14.54,10.52a4.34,4.34,0,0,0,3,1.38c1.79.24,3.12,1.06,3.51,3a2.39,2.39,0,0,1-.78,1.93c-.65,1-1.29,2-1.93,3Z"/><path class="cls-172" d="M27.21,132l-1.05,3a6.15,6.15,0,0,0-4,1c0-.31,0-.63,0-.95C22.42,131.7,24.31,131,27.21,132Z"/><path class="cls-173" d="M27.21,132c-2.09.33-3.95,1-5,3.05l-1-.07c-1.53-1-.29-1.91,0-2.87s.3-2.06.72-3c.89-.79,2-.36,3-.51A11,11,0,0,0,28.77,127a48.73,48.73,0,0,1,5-3c1.46-.58,2.8-1.74,4.56-1a2.63,2.63,0,0,1,.4,1.34c-2,4-6.44,4.44-9.64,6.7Z"/><path class="cls-35" d="M22,129.15c-.17,1,2,2.67-.8,3l-3-.18c-.31-3.66-.63-7.31-.94-11,.32,0,.65,0,1,0C21,123.06,21.8,126,22,129.15Z"/><path class="cls-99" d="M22,129.15,18.21,121c-.39-1.29-.77-2.58-1.16-3.87-1-5.34-3.46-10.41-2.92-16a7,7,0,0,0,0-1.94c-1.24-4.63,1.05-5.72,5.06-5.17a1.63,1.63,0,0,1,2.22,1.5c-3.51,4.85-2,10.24-1.29,15.38a51.21,51.21,0,0,0,4.12,14.35c.68,1.49,1.58,3,.9,4.75Z"/><path class="cls-51" d="M8.18,107.06c.17-1.14-.56-3.12,1.94-2.07.05,1.67.09,3.34.13,5A2.87,2.87,0,0,1,8.18,107.06Z"/><path class="cls-166" d="M79.18,167l11,1c1.2,1.3,1,2.6,0,3.89a2.41,2.41,0,0,1-.91.24c.16-2.63-1.31-3.18-3.63-3.19S80.64,169.94,79.18,167Z"/><path class="cls-174" d="M90.16,171.93c0-1.3,0-2.6,0-3.89V147c.45-3.32-1-6.83,1-10,1.15,4.66.2,9.39.51,14.09-.32,7,.64,14-.5,20.91Z"/><path class="cls-175" d="M91.17,172l.06-21c.31-.48.61-.48.91,0,0,6.57.07,13.13,0,19.69,0,1.65.79,3.83-2,4.27Z"/><path class="cls-166" d="M130.13,159.09c-.27,1,1.67,2.73-1,2.93a1.52,1.52,0,0,0-2.16-.41c-10.08,4.76-20.86,6.9-31.8,8.43a8.1,8.1,0,0,1-1-5c.89-1.7,2.08-3.23,4.15-3.12,9.65.49,18.09-3.87,27-6.51C127.53,155.83,128.25,158.21,130.13,159.09Z"/><path class="cls-176" d="M92.14,151.07h-.91q0-7-.07-14c0-.33,0-.66,0-1a.78.78,0,0,1-.3-.71c0-.27.1-.4.17-.4a.87.87,0,0,1,1.13.07Z"/><path class="cls-177" d="M92.14,135l-.47,0h-.46c-2.57-4.44-1.45-9.14-1-13.8a3,3,0,0,1,1.09-1.38l.87.2Q92.16,127.53,92.14,135Z"/><path class="cls-178" d="M94.14,120c-.34,0-.67,0-1,.06s-.63,0-1,0l0,0c-1.14-2.61-3.08-5.47,2-6.1C95.8,116,95.86,118,94.14,120Z"/><path class="cls-179" d="M126.18,156c-8.89,3.57-17.58,7.91-27.59,7-1.87-.17-2.94,1.29-4.38,2,0-.67,0-1.33,0-2,1.11-1.28-.11-3.13,1-4.4,6.61-1.41,12.56-5.24,19.6-5.17,2.9,0,5.09-2.41,7.92-2.86C126,151.13,126.48,153.32,126.18,156Z"/><path class="cls-180" d="M95.19,159c-.15,1.37.45,2.94-1,4l-.06-43c0-2,0-3.94,0-5.91l.54-.35a7.34,7.34,0,0,0,4.78-1.27,3.38,3.38,0,0,1,2.13.14c1,.74,2.47,1.27,1.29,3-8.73,2.2-6,9.25-6.34,15,.09,3.46.14,6.91,0,10.37a51.37,51.37,0,0,1,0,5.41C96,150.56,98,155.07,95.19,159Z"/><path class="cls-181" d="M103.17,115.07l-2-2a1.76,1.76,0,0,1,2.16-1.3c3.62,2.83,5.53,7.07,8.55,10.4a13,13,0,0,1,2.07,2.71c1.84,2.88,3.42,5.9,5,8.94,1.51,3.59,4.51,6.3,6,9.93.69,1.47,1.43,2.93,2.19,4.36.65,1.58,1.56,3.14.17,4.78-.06,2.54,1.89,4.13,2.9,6.17-2-.17-3.09-1.45-3.95-3.06-.81-1.77-1.29-3.75-3-5-2.54-2.44-3.69-5.8-5.66-8.62-1.36-2.34-2.73-4.69-4.16-7-1.75-2.68-3-5.7-4.93-8.24C106.35,123.29,103.3,119.81,103.17,115.07Z"/><path class="cls-182" d="M127.23,152.92l-1.14-4.83.61-.37.71.06c4.65,4.12,4.56,4,9.33-.43,5.53-5.18,10.32-11,15.6-16.44l1.9,1c.92,2.1-.64,3.41-1.63,4.86a63.25,63.25,0,0,1-16.84,17.4c-.78.53-1.31,1-.34,1.87a.88.88,0,0,1-.22,1.08l-2,2C129.87,158.3,130.26,154,127.23,152.92Z"/><path class="cls-183" d="M135.21,157.09c0-.35,0-.7,0-1.06.72-2.88,3.62-3.66,5.45-5.42,5.82-5.61,11.32-11.42,15.47-18.4,2.6.63,1,2.45,1.09,3.81a110.8,110.8,0,0,1-14,16.06C140.4,153.55,138.46,156.36,135.21,157.09Z"/><path class="cls-184" d="M161.18,129.11c-1,.39-2.06,1.38-3.16.11,0-.23.07-.47.11-.71,2.12-4.28,4.29-8.54,5.39-13.24a43.07,43.07,0,0,0,2.36-12.56,10.77,10.77,0,0,1,1.84-6.55,1,1,0,0,1,1.44-.16,44.13,44.13,0,0,1-.87,13.07A80.17,80.17,0,0,1,161.18,129.11Z"/><path class="cls-72" d="M159.17,94.05c1.13-1.08,2.15-2.37,4-2l-1,2.92a1.8,1.8,0,0,1-.94.71,2.77,2.77,0,0,1-1.77-.17,1.24,1.24,0,0,1-.58-1Z"/><path class="cls-146" d="M161.07,95.17l1.09-.17c2.31.51,4.88-.83,7,1l-1,.1c-1.54,1.34-3.36,1.27-5.21,1a4.1,4.1,0,0,1-1.46-.58A1.1,1.1,0,0,1,161.07,95.17Z"/><path class="cls-185" d="M152.34,130.91c-4.53,8.72-12,14.88-19.26,21-4.2,3.53-3.89-2.53-5.88-3.87a4.05,4.05,0,0,1,1.58-1.32,100,100,0,0,0,12.31-10.77,20.46,20.46,0,0,0,5.09-8.92l2,1c1.3,1.07,3,1.54,4.12,2.89Z"/><path class="cls-186" d="M137.34,121.89a7.4,7.4,0,0,1,3.85,2.12,2.47,2.47,0,0,1,.59,1.34c-2.44,7.59-8.53,12-14.63,16.23-3.5,2.43-4.4-1-5.51-3.32a2.18,2.18,0,0,1,.8-1.75c5.63-3.94,9.66-9.45,14.22-14.45Z"/><path class="cls-187" d="M162.15,96.08l6,0c-1.53,6.62-.27,13.78-3.92,20-1.58-1.5-.48-3.09-.15-4.65.85-4,1.42-8.08,1.7-10.34-1.61,8-2,18.2-8,26.77-1.5,1-2.46-.27-3.59-.82-.32,0-.64,0-1,0a1.22,1.22,0,0,1-.13-1.46c5.14-7.31,6.07-15.92,7.52-24.36C160.93,99.43,160.78,97.53,162.15,96.08Z"/><path class="cls-188" d="M156.09,132.21c.35,4.16-2.77,6.7-5.05,9.2-4.85,5.3-9.53,10.9-15.87,14.62-.8.09-2.11.52-2.31.22-.94-1.43.57-2.09,1.39-2.58,7.61-4.57,12.95-11.37,18.07-18.37a30.89,30.89,0,0,0,1.92-3.42Z"/><path class="cls-189" d="M141.18,125c0-.34,0-.68,0-1a8.82,8.82,0,0,1,5,3c1.39,2.06.24,3.66-.85,5.37-4.16,6.49-10.45,10.77-16.16,15.65-2-2.59-.31-4.27,1.52-5.81a108.5,108.5,0,0,0,10-10.2C142.8,129.72,143.22,127.51,141.18,125Z"/><path class="cls-190" d="M144.12,122.12a18.28,18.28,0,0,1-6.43-3.07c-1.31-.91-2.52-1.5-3.61.25a2.29,2.29,0,0,1-2,.28c-1.07-.49-2.11-1-2.14-2.41.84-.61,1.76-1.17,1.34-2.46a3,3,0,0,1,2-.47,18.19,18.19,0,0,1,5.1,2.15c1.81,1.42,4,2.23,5.71,3.84a2.22,2.22,0,0,1,.45,1.29Z"/><path class="cls-190" d="M153.17,126.05a7.89,7.89,0,0,0,.06,1c-3.4-1-6.65-2.18-9.11-4.9l.14-.16C148.22,121.16,151,123.06,153.17,126.05Z"/><path class="cls-186" d="M132.22,118.93l1.86.37,3.26,2.59-.31.25c-2.3,1.07-3.75-.18-5.06-1.83A1.52,1.52,0,0,1,132.22,118.93Z"/><path class="cls-182" d="M152.29,131c-1.59-.64-3.32-1.1-4.12-2.89C149.93,128.48,151.75,128.81,152.29,131Z"/><path class="cls-184" d="M154.19,127l3,.95c.83-.21,1.14.15,1,1l-.2.28C156.43,129.06,154.89,128.78,154.19,127Z"/><path class="cls-127" d="M13.12,90.08c-1,1.78-2.08,1-3.18.11,1.28-.59.45-1.42.25-2.17C11.78,87.83,12.1,89.46,13.12,90.08Z"/><path class="cls-126" d="M6.2,81.06v5c-.31,0-.61,0-.92,0C5.36,84.37,4.53,82.48,6.2,81.06Z"/><path class="cls-191" d="M21.16,95.09l-1.94-1,0-3,0,0a3,3,0,0,1,1.77-1,5.68,5.68,0,0,1,2.74.3,2.4,2.4,0,0,1,1,1,3.49,3.49,0,0,1-.06,2.78,3.26,3.26,0,0,1-1.56,1.42A1.86,1.86,0,0,1,21.16,95.09Z"/><path class="cls-192" d="M103.17,16.74l4.86.48c6.88,2.25,13.88,4.21,20.21,7.88,2.74,2.23,1.82,3.86-.86,5.2-2.62-3.43-6.62-4.23-10.4-5.46a79.67,79.67,0,0,0-9.77-3c-1.21-.71-3.36-.52-2.71-3,.16-.62-.61,0-1,0-1.18-.08-2.42,0-2.34-1.71Z"/><path class="cls-193" d="M127.14,30c1.8-1.31,2.23-2.92,1.1-4.89,1.82,0,1.19-1.13.95-2.08,2.82.11,1-3.36,3-3.89,2.53,2,1,4-.08,5.93a28.51,28.51,0,0,1-3,7.64,60.9,60.9,0,0,1-4.08,6c-1.07,1.34-2.32,2.43-4,.68-.56-1.24,0-2.29.58-3.33a7.36,7.36,0,0,1,.92-1C124.69,33.9,123.94,30.13,127.14,30Z"/><path class="cls-194" d="M157.35,52c-.08,1-.15,2-.23,3h0a12.16,12.16,0,0,1-4,1.38c-4.74-5.61-9.34-11.35-15.54-15.54-2.85-1.93-5.81-3.7-8.68-5.6a2.34,2.34,0,0,1-.24-2.12c.78-1.56,1.36-3.28,3.29-3.86,5.71.61,8.79,5.42,13,8.33A31,31,0,0,1,151.27,44l-.07,0c.82,1.48,2.05,2.66,3,4l1.08.57a3.11,3.11,0,0,1,.79.83A8.78,8.78,0,0,1,157.35,52Z"/><path class="cls-195" d="M151.27,44c-5.05-3.94-9.41-8.7-14.8-12.24-1.44-.94-2.72-1.81-4.45-1.82-.42-1.92.08-2.78,2.13-1.86,4.69,4.11,10.21,7.21,14.37,12C149.58,41.25,151.07,42.17,151.27,44Z"/><path class="cls-196" d="M134.15,28.07A2,2,0,0,0,132,29.93l-2.74,3.3c-.65-.13-.77-.75-1.11-1.17,1.35-2.33,2-5,4-7a1.85,1.85,0,0,0,2,2C134.18,27.4,134.16,27.74,134.15,28.07Z"/><path class="cls-197" d="M155.65,49.76l-.37-1.12c-.05-.94-.21-1.92.81-2.51l1.07,1C158.24,48.89,157.58,49.69,155.65,49.76Z"/><path class="cls-198" d="M154.2,48.06c-1.62-.89-3-2-3-4A5.11,5.11,0,0,1,154.2,48.06Z"/><path class="cls-199" d="M155.65,49.76a2.68,2.68,0,0,0,1.51-2.65c3.1,1.52,3.09,3.16.18,4.91C156.44,51.52,155.54,51,155.65,49.76Z"/><path class="cls-200" d="M137.91,69.92a27,27,0,0,1,9.1-5,1.5,1.5,0,0,1,1.41.2c5.43,5.15,8.13,19.1,5.07,26.07a4,4,0,0,1-3.89.6c-2.92-1.55-2.89-4.57-3.47-7.24-.45-2.08-.38-4.24-.85-6.35C144.35,74.05,142.85,70.48,137.91,69.92Z"/><path class="cls-201" d="M141.21,63.14c-2.11,2.74-5.83,3.26-8.08,5.81-1.39,1-2.72,2.24-4.68,1.49-.73-.64-.44-1.28,0-1.92a12.11,12.11,0,0,1,4.16-2.76c4-2.79,4.26-4.64,1.17-8.2-3.54-4.07-8.47-6.06-13-8.7-.67-2.64.77-4.24,2.72-5.61,2.48-1.29,4.4,0,6.36,1.32,4.66,3.21,8.49,7.32,12.3,11.43C145.38,59.44,145.14,60.41,141.21,63.14Z"/><path class="cls-202" d="M141.21,63.14c3.33-3,1.64-5.21-1-7.6-3.77-3.45-7.14-7.33-11.34-10.32-1.56-1.11-3-2.07-5-1.26-.89-2.09.27-3.44,1.69-4.7A4.16,4.16,0,0,1,130.3,39c7.12,4.32,13.71,9.26,18.1,16.57a3.87,3.87,0,0,1,.39,3.33A10.17,10.17,0,0,1,143,63Z"/><path class="cls-203" d="M75.18,89.05c-.77-3.27,1.34-5.7,3.37-7.19,6.39-4.67,13-9.41,21.61-4.72a4.82,4.82,0,0,1,2.57.38,6,6,0,0,1,4.42,4.56l.09,1.89-.62.33a4,4,0,0,1-1.94-.61c-2-1-3.39-2.85-5.6-3.44C98,80,97,79.64,96,80.16c-.83.61-1,1.77-2,2.26-2.57,1.35-5.22,2.59-6.15,5.71-.56,1.85-1,3.77-3.19,4.45a2.66,2.66,0,0,1-1.39-.29c-.63-.94-.19-1.83.12-2.72.77-2,.93-4.19-1.13-5.24s-2.87,1.53-4.2,2.55C77.07,87.61,77,89.49,75.18,89.05Z"/><path class="cls-204" d="M153.16,91c2-9.66-1-18.13-6.15-26.09a4,4,0,0,1,3-2,2.92,2.92,0,0,1,4.15,1.59c4.05,8.58,7.87,17.25,3.83,27C156.25,92.41,154.62,92.47,153.16,91Z"/><path class="cls-205" d="M137.91,69.92c6.38-1.18,6.93-.61,8.79,9.06.77,4,.55,8.22,2.45,12-1.67,1.71-3.59,1.49-5.58.74-2.75-3-2.16-7.18-3.36-10.75-1.33-4-2.77-7.32-7.38-8.08A10.58,10.58,0,0,1,137.91,69.92Z"/><path class="cls-206" d="M158.14,91c-.77-5,1.13-10.05-.93-15-1.32-3.17-2.22-6.5-3.43-9.72-.64-1.73-1.59-3.3-3.79-3.36L153.13,61c1-.45,1.75-1.48,3-1,2.63,2.46,2.53,6.45,5,9,0,.66,0,1.33,0,2,1,6.62,1.84,13.25,1,20l-2.82.13A.81.81,0,0,1,158.14,91Z"/><path class="cls-207" d="M114.06,83.09l3.2-1.72c1.46-.26,3.4,1,4.18-1.54.2-.62,1.46-.53,2.29-.28,3.52,1.07,5.9,9.12,3.63,12.37a27.65,27.65,0,0,1-11.17,0C112.77,89.64,112.43,86.6,114.06,83.09Z"/><path class="cls-208" d="M132.83,72.88c4.78-1.57,6.56.45,7.68,5.13,1,4.31,3,8.39,2.66,13-1.38,1.46-3,1.35-4.66.67-3.25-5.56-4.38-12-7.46-17.66Z"/><path class="cls-209" d="M128.16,90.91c.61-3.26-2-5.45-2.76-8.26-.4-1.46-1.44-3-3.2-2.28s.39,2.33-.44,3.92a10.05,10.05,0,0,0-4.5-2.92c2.64-2.32,5.92-3.55,9-5.19a3.85,3.85,0,0,1,2.84.57c3.21,2.57,5.47,11.11,3.92,14.81C131.24,92.37,129.58,92.5,128.16,90.91Z"/><path class="cls-210" d="M133.17,91c-.72-5.68-2-11.1-6.94-14.79A7.13,7.13,0,0,1,131.05,74c4.95,4.58,6.3,10.67,7.11,17A3.28,3.28,0,0,1,133.17,91Z"/><path class="cls-211" d="M114.06,83.09a13,13,0,0,0,2.07,8.06c3.57.88,7.21.12,10.8.45,1.5.14,3.35-.91,4.44,1.06a2.63,2.63,0,0,1-2,1.51c-4.92.32-9.85.58-14.74-.37-2.08-.63-3.38-2.52-5.35-3.34-.61-2.08-2.18-4-1.19-6.36C110.42,85.71,112.27,84.55,114.06,83.09Z"/><path class="cls-211" d="M107.15,82.08l-5.06-4a10.72,10.72,0,0,1,4.17-3.44c3.33.38,4.48,3.76,7.09,5.14a.94.94,0,0,1-.17,1.23C111.61,84,109,80.94,107.15,82.08Z"/><path class="cls-212" d="M108.1,84.1c.11,2,3.1,3.54,1.13,6a1.21,1.21,0,0,1,0,1.36A7.42,7.42,0,0,1,104,94a3.28,3.28,0,0,1-2.05-.8,2.26,2.26,0,0,1-.16-2.08c3.57-.9,3-4.9,5.19-6.88l.25-.28A5,5,0,0,0,108.1,84.1Z"/><path class="cls-137" d="M143,63,148.17,59c1.53-1.21,2.38-3.58,5-3l4-1C152.92,58.52,148.86,62.33,143,63Z"/><path class="cls-213" d="M128.29,70.26,133.13,69c-2.15,3.12-5.66,3.9-8.88,5.2-.1-.22-.2-.44-.31-.66C124.58,71.32,126.16,70.42,128.29,70.26Z"/><path class="cls-213" d="M113.18,81.06V80c.34-3.63,3-3.47,5.56-3.36.19.17.38.34.56.52C117.83,79.37,115.24,79.79,113.18,81.06Z"/><path class="cls-144" d="M156.15,60.07l-3,1c1-2.09,3.4-1.86,5.05-2.89A1.84,1.84,0,0,1,156.15,60.07Z"/><path class="cls-213" d="M124.25,74.15c-1.15,1.84-3,2.5-5,3l-.29-.33a2.53,2.53,0,0,1,1.15-2.39c1.23-.68,2.44-1.5,3.9-.56Z"/><path class="cls-214" d="M162.16,91c-1.94-6.58-1.7-13.26-1-20,3.81,6.12,4.44,13,5,20Z"/><path class="cls-215" d="M131.24,93c-3-1.94-6.35-.58-9.51-1-1.87-.25-3.94.73-5.6-.88l12-.23,5,.07h5l5,0,6,0,4,0h5l1.2.14a5.19,5.19,0,0,0-.19.87,7.15,7.15,0,0,1-1.49,1c-8.23,1-16.51.08-24.76.53A2.43,2.43,0,0,1,131.24,93Z"/><path class="cls-216" d="M158.17,92.07c.33,0,.66,0,1,0,0,.68,0,1.35,0,2h0c-1.91,1.73-4.28,1.38-6.53,1.38-5.39,0-10.77.11-16.16-.05-1.48-.32-3.37-.11-3.29-2.48,6.54-.74,13.11-.11,19.67-.35C154.63,92.48,156.47,93,158.17,92.07Z"/><path class="cls-217" d="M94.41,70.63c-.18.56-.72,1.59-.82,1.38-.63-1.49-1.45-3.15-1.32-4.68.88-11-1.28-22.13.1-33.06,1-8.16-1-16.11-.18-24.15,2.1,1.53-.23,4.61,2.12,6.06,1.69,2,1.25,4.38,1.26,6.65.05,12.23,0,24.47,0,36.7C95.18,63.23,96.49,67.11,94.41,70.63Z"/><path class="cls-218" d="M94.36,60.12q0-22,0-43.94a1.4,1.4,0,0,1,.88-.06,1.93,1.93,0,0,0,3,.08c1.21-.33,2.07.47,3,.93a12.45,12.45,0,0,1,6,3.89c-.17.18-.34.35-.5.53a5,5,0,0,1-3.46.31c-2-.5-4.07-1-6.12-.14a2.28,2.28,0,0,0-.23,1.64,5.9,5.9,0,0,1-.09,1.83,13.35,13.35,0,0,0-.39,2.52c0,1.14,0,2.27,0,3.42,0,.49,0,1,0,1.48,0,1.3,0,2.6.08,3.9a32.33,32.33,0,0,1,0,3.41c.12,5.1,0,10.2-.07,15.3C96.49,57.06,97,59.34,94.36,60.12Z"/><path class="cls-219" d="M98.16,16.2c-.14.79-.28,1.6-1.28,1.69-1.28.12-1.55-.77-1.69-1.77Z"/><path class="cls-220" d="M74.17,58.08c-1-2-2-4-3-6,0-2.79,2.33-3.31,4.18-4.18a35.22,35.22,0,0,1,11.07-2.65c1.62-.19,3.7-.48,4,1.71.3,1.9-1.66,2.17-3.06,2.6a12.1,12.1,0,0,1-3.93.51c6.69-.15,6.69-.15,7.67,6q0,4.19,0,8.37c0,6.64-1.84,8.21-9,7.66C78.67,67.88,75.17,63.7,74.17,58.08Z"/><path class="cls-221" d="M68.17,46.07c-1.9-2.52-4.6-4.55-5-8a3.42,3.42,0,0,1,1.47-1.92c8.39-3.87,16.89-7.32,26.46-6.06v10C83.67,42.8,76.36,46.09,68.17,46.07Z"/><path class="cls-222" d="M64.19,75.05l-7-4C57.06,66.77,64,58.43,68,57.87c2.07-.28,2.81,1.42,4,2.4a26.66,26.66,0,0,1,4.15,6.09c4,7.34,4,7.34-1,13.68l-2,0A12.26,12.26,0,0,1,64.19,75.05Z"/><path class="cls-223" d="M68.17,46.07c7.62-2.12,14.93-5.47,23-6q0,8,0,16c-1.61-8.26-7.86-4-13.09-4.32,3.54-3.68,8.35-2,11.58-4.48-4.49-1.68-13,.58-18.46,4.83A11.42,11.42,0,0,1,68.17,46.07Z"/><path class="cls-224" d="M107.2,64.09c-.51,1.21-1.06,2.4-1.54,3.62C104,71.89,101.22,73,97.18,71c-1.58-.82-2-2-2.21-3.88a27.56,27.56,0,0,1,1.6-11.72c6.45-1.35,9.43.29,11.47,6.3A5,5,0,0,1,107.2,64.09Z"/><path class="cls-225" d="M96.17,56.05c.32,5-2.32,10.2,1,15l-2.77-.41q0-5.25,0-10.51c1.66-6.94.2-14,.94-21,6.89-.86,13.13,1.83,19.52,3.63a3.37,3.37,0,0,1,2.29,3c.06,2-.43,3.81-2.52,4.71-4-.88-7.86-2.29-11.79-3.44-3.36-1-5.62-.54-5.25,3.7C97.58,52.59,97.58,54.5,96.17,56.05Z"/><path class="cls-226" d="M96.2,50.07c-.37-3.22.22-6.06,4.27-4.91,4.64,1.32,9.82,1.3,13.69,4.85a3.14,3.14,0,0,1,.84,1.25c.2,2.47-.15,4.65-2.92,5.56a7.59,7.59,0,0,1-.84.3l-.6-.32C106.26,53.62,100.87,52.6,96.2,50.07Z"/><path class="cls-227" d="M112.08,56.82c.72-1.88,2.32-3.4,2.21-5.6a10.92,10.92,0,0,0,3-5.7,5.66,5.66,0,0,1,.59-1.18c1.59-1.47,1.5-4.1,3.6-5.22,2.89,1.47,2.57-1.67,3.62-2.68a25.38,25.38,0,0,0,3.06-4.38l1.11,1.17c-.06.6-.12,1.2-.17,1.8.25,2.48-1.92,3.41-3.13,5-.68,1.32-1.36,2.65-2,4A10.58,10.58,0,0,0,121,49c.36,2.18-1.41,3.49-2.13,5.23-.73,1.28-1.32,2.64-2.07,3.92-1.07,1.56-2.6,2.74-3.61,4.35a5.17,5.17,0,0,1-1.83,1.8,1.46,1.46,0,0,1-1.21-.26Z"/><path class="cls-228" d="M60.19,33.08a2.11,2.11,0,0,1-1-2c8.57-6.25,18.6-8,28.78-9.22a4,4,0,0,1,3.15,1.23c0,.65,0,1.31,0,2-1.43,1.57-3.33,2.05-5.33,2.34-7,1.06-14,2.59-20.46,5.62C63.66,33.77,61.92,34.47,60.19,33.08Z"/><path class="cls-229" d="M91.12,30.07c-7.89,1.62-16,2.34-23.39,6-1.49.73-3,1.34-4.54,2l-1-2c-.27-1.77,1.17-2.3,2.3-2.83A61,61,0,0,1,87.9,27a4.15,4.15,0,0,1,3.21,1.07C91.11,28.74,91.11,29.4,91.12,30.07Z"/><path class="cls-54" d="M75.15,91l.06-1c1.68-.48,2.54.65,3.4,1.74.32,1.78,1.84.93,2.83,1.27a4,4,0,0,1,0,4.46c-.2.37-.44.74-.66,1.1-.35,3.1,3,3.16,4.14,5s4.21,2.76,3,5.84a5.54,5.54,0,0,1-3.61.7c-3.77-.51-5.68-3.72-8.39-5.79a6.65,6.65,0,0,1-1.6-3.21C74.51,97.79,74.24,94.37,75.15,91Z"/><path class="cls-157" d="M91.12,23.07a67.07,67.07,0,0,0-27.78,6.39c-1.33.64-2.76,1.07-4.15,1.6a3.28,3.28,0,0,1-2-2c6.61-1.21,12.23-5.21,18.83-6.55,3-.62,6-1.71,9.12-1.45a8.1,8.1,0,0,1,5.93,0C91.11,21.72,91.12,22.4,91.12,23.07Z"/><path class="cls-221" d="M91.11,28.08a49.39,49.39,0,0,0-28.93,8,3,3,0,0,1-2-3c2.3.25,4.14-1.07,6.06-1.95,7.9-3.64,16.5-4.36,24.86-6.09Z"/><path class="cls-230" d="M75.16,80c6.17-6.21,1.12-11.16-1.87-16.32a24,24,0,0,0-2.09-2.67,1.83,1.83,0,0,1-.28-2,1,1,0,0,1,1.28,0h1a40.31,40.31,0,0,1,8,14C81.64,77.5,76.86,77.45,75.16,80Z"/><path class="cls-231" d="M75.15,91c1.58,3.33.46,6.67,0,10-1.35-.22-2.08,1.89-3.62.95a4.75,4.75,0,0,1-1.5-3.7c1.59-3,.57-6,.21-9A3.78,3.78,0,0,1,70.89,88a1,1,0,0,1,1.29,0A6.33,6.33,0,0,0,75.15,91Z"/><path class="cls-232" d="M78.13,92.11,75.21,90a2.63,2.63,0,0,1,0-1c.77-1.2,1.28-2.82,2.37-3.51,1.68-1.08,2-5.18,5.06-3.06,2.48,1.73,3.82,4.49,1.65,7.62a3.14,3.14,0,0,1-1-.83c-.71-.87-1.37-1.94-2.72-1.52-1.09.33-.85,1.13-.35,1.88s1.91,1.57.66,2.84A2.54,2.54,0,0,1,78.13,92.11Z"/><path class="cls-233" d="M110.13,64.06h1.21c1,5-3.18,7.64-5.18,11.28-1,1.38-2.14,2.7-4.07,2.78l-1.93-1c-1.67-3.76,2.88-.59,3.56-3.28C104.64,70.28,107.89,67.3,110.13,64.06Z"/><path class="cls-228" d="M91.11,21.05H85.18c1-1.62,3.14-.48,4.67-1.75-2.58-2.79-5.12.11-7.54-.19-1.62-.2-3.28.09-1.12-2a23.26,23.26,0,0,0,9-2C92,16.84,90.91,19.05,91.11,21.05Z"/><path class="cls-234" d="M81.18,73.05a101.84,101.84,0,0,1-8-14l1-1c2.68,4.66,6.2,8.83,8,14Z"/><path class="cls-230" d="M64.19,75.05l9,5c0,.65,0,1.29,0,1.94l-.63.33c-3.73-1.21-7.12-2.93-9.41-6.29C63.52,75.72,63.86,75.39,64.19,75.05Z"/><path class="cls-226" d="M107.2,64.09c0-.68,0-1.36,0-2,1.27-1.72-.75-5.9,3.85-5.13l.21.2C110.16,59.6,109.58,62.37,107.2,64.09Z"/><path class="cls-230" d="M72.18,88l-1,0C70,87,70,85.58,70.3,84.16c.26-1.64,2-1.29,2.87-2.1l.06,0c1.33.75,2.22,1.69.42,2.77A3.13,3.13,0,0,0,72.18,88Z"/><path class="cls-228" d="M55.26,25.06c4.8-.39,8.39-3.92,12.93-5,2.61.14,5-1.8,7.87-.71-6.37,2.89-13.72,3.44-18.87,8.69Z"/><path class="cls-235" d="M56.14,31.08c0,.31,0,.63,0,1,.66,1.27,1.74,2.43,1,4A56.14,56.14,0,0,0,37.29,53.9c-1,1.53-1.95,3.07-4.06,3.12,3-9.19,11-14,17.41-20.22,1.57-1.52,4.47-1.78,4.54-4.74Z"/><path class="cls-236" d="M71.17,59.07l0,2c-1.45-2.26-3-2.92-5.32-.87-3.51,3.15-7.22,6.09-8.69,10.86-2.64-2.54-6.79-2.8-9-6,3.86-6.83,9.93-11.44,16-16C68.18,51.24,69.65,55.17,71.17,59.07Z"/><path class="cls-237" d="M71.17,59.07l-7-10c-.33-3.17-3-5.16-4-8-1-1.67-2-3.34-3-5a6.82,6.82,0,0,1-1-4c2.89,1.26,3.75,4.21,4.94,6.62,3.42,7,8.41,13.05,11.07,20.41Z"/><path class="cls-221" d="M37.2,64c2.54,1.87,6.41,1.6,8,5-1.78,7.5-3.28,15.08-5.9,22.36a5.67,5.67,0,0,1-3.24,1c-2.3-.05-4.67.4-6.82-.87a3.33,3.33,0,0,1-1.16-2.65,55.56,55.56,0,0,1,6.37-23.16C35,64.71,35.77,63.74,37.2,64Z"/><path class="cls-238" d="M39.18,91.06c1-7.61,1.83-15.29,6-22,2.5.18,4.38,2.37,7,2.12l.93.93c1.3.2,2.55.47,2.26,2.27a39.56,39.56,0,0,0-4.48,14.71,5.2,5.2,0,0,1-1.85,2.53,23.29,23.29,0,0,1-9.57.85A.93.93,0,0,1,39.18,91.06Z"/><path class="cls-239" d="M37.2,64c-5.83,8-7.2,17.43-8,27-1.63,1.58-3.29,1.32-5,.1V91c-1.79-2.71-2-5.39.12-8,2,.12,1.5,1.24,1.17,2.44C26.88,77.1,28.93,69,34.19,62.06Z"/><path class="cls-235" d="M25.18,83.05c-2,2.45-.55,5.33-1,8l-3,0c-2-3-.61-6-.1-9.07,1.09-6.58,3.69-12.65,6.27-18.71.56-1.31,1.15-2.82,2.84-3.22,1.1,0,2.28-.16,3,1C30.54,68.4,27.56,75.61,25.18,83.05Z"/><path class="cls-240" d="M30.2,60.05c-4.16,10-9.61,19.62-9,31h-2a67.13,67.13,0,0,1,9-32A2.12,2.12,0,0,1,30.2,60.05Z"/><path class="cls-241" d="M25.18,83.05a46.43,46.43,0,0,1,8-22l1,1c-2.74,8-6.35,15.72-8.06,24.29C24.68,85.24,25.42,84,25.18,83.05Z"/><path class="cls-242" d="M55.19,74.05l-2-2c4.11-.61,6.54,3,10,4l10,6c.1,1.84-1,1.41-2,1.09-4.86.45-7.83-3.37-11.68-5.2-1.11-.71-2.16-1.51-3.25-2.26A2.54,2.54,0,0,1,55.19,74.05Z"/><path class="cls-172" d="M29.12,131c2.21-3.38,7.3-3,9.07-7a48.1,48.1,0,0,1,13.68-7.26,2.3,2.3,0,0,1,1.58,1.36c-1.92,3.8-6,4.26-9.26,5.9a5.57,5.57,0,0,0-4,2l-4,2-5,3Z"/><path class="cls-243" d="M91.2,120.07q0,7.47,0,15c0,.34,0,.68-.07,1-6.45.74-11.82-3.34-18-4,.31-4.28,5.11-6.51,5-11v-.73c1.57-3,2.78-6.4,6.86-6.94C91.7,115.05,91.83,115.19,91.2,120.07Z"/><path class="cls-244" d="M91.2,120.07c.71-5.55-4.54-4.16-7-6-2.37-1.23-2.79.92-3.59,2.18a21.17,21.17,0,0,0-2.43,4.82h0L77.11,121a4.79,4.79,0,0,1-1.44-3.1c1.55-3.7,1.4-7.21-1.22-10.43a3.21,3.21,0,0,1,1.09-3.22l.67-.27c3.57.28,4.4,4.85,8,5.11,4.8-1.06,9.57,2.83,14.37,0a5.83,5.83,0,0,1,4.47-.84c2.18,1.14,1.47,2.42.17,3.73l-2,1.09-1.93,0c-1.44,1.51-3.32.55-5,.89l-.09.15c-3.78.93-1.28,4-2,6Z"/><path class="cls-245" d="M76.22,118c1.15.73.94,1.87.89,3l-5,8a3.33,3.33,0,0,1-1.43-2.35C71.57,123.15,72.94,120,76.22,118Z"/><path class="cls-246" d="M64.14,140l.09-1.95c.48-2.68,2-4.86,3.5-7a1.89,1.89,0,0,1,1.27-.4,1.84,1.84,0,0,1,1.29,1.47q-2.08,3.9-4.18,7.79Z"/><path class="cls-247" d="M70.29,132.15,69.15,131c-1.1-2.27.18-3.25,2.09-3.9a1.92,1.92,0,0,1,.92,1.91C71.53,130.05,70.91,131.1,70.29,132.15Z"/><path class="cls-163" d="M68.21,131.09c-.43,2.85-2.27,4.89-4,7-3.14-2.28-6.57-4.36-9.75-6.28-3.79-2.29-7.38-4.46-10.29-7.77,2.09-3.36,6.52-3.22,9-6,1-2.32,2.81-2.89,5.1-2.58,4.21,3.44,6,8.83,10.1,12.4C69.19,128.56,68.91,130.05,68.21,131.09Z"/><path class="cls-248" d="M21.16,95.09l2,0a.72.72,0,0,1,1.25.22c.6,9.19.92,18.42,4.51,27.11.74,1.8,1.7,3.67.23,5.6l-4,2c-5.61-9.88-7-20.73-7.52-31.84C17.49,95,20.64,96.8,21.16,95.09Z"/><path class="cls-164" d="M29.18,128c.29-2.31-1.06-4.13-1.93-6-3.48-7.67-2.45-16.17-4.65-24.07-.43-1.54,1.12-1.83,1.6-2.79a4.75,4.75,0,0,1,5.62-.58,1.66,1.66,0,0,1,.75,1.4c-2.36,8,.13,15.44,2.49,22.89.65,2,2,3.92,1.1,6.21Z"/><path class="cls-167" d="M34.16,125c-3.68-8-6.08-16.26-6-25.13,0-1.57-.46-3.48,2-3.82a2.56,2.56,0,0,1,3.15-.25c1.77,2.3,1.32,5.13,1.61,7.71.7,6.16,3.2,11.9,3.93,18a2.59,2.59,0,0,1-.68,1.5Z"/><path class="cls-249" d="M38.2,123.05c0-.32,0-.63,0-1,1.78-2.22,4.39-3.28,6.7-4.75,2.12-.86,4-2.49,6.56-1.95a1.69,1.69,0,0,1,.94,1c-.1.22-.19.43-.29.64-4.47,2.7-8.72,5.86-14,7C38.2,123.71,38.2,123.38,38.2,123.05Z"/><path class="cls-157" d="M118.18,142a19.73,19.73,0,0,1,5,9c-3.67,2.8-7.63,4.54-12.43,4.05-3.61-.37-6.06,3-9.69,3.28-1.92.12-3.88.7-5.87.67q0-6.51,0-13c3.39,4.12,7.16,3.39,11.49,1.44C110.54,145.74,115.07,145.42,118.18,142Z"/><path class="cls-250" d="M118.18,142c-.7,3.11-2.6,4.6-5.8,5.1a40.18,40.18,0,0,0-8,2.38c-6.8,2.59-6.78,2.65-9.17-3.48,0-1.67,0-3.34,0-5,1.29-1.26,3-1.26,4.6-1.47,5.07-.65,10-1.62,14.39-4.53A21,21,0,0,1,118.18,142Z"/><path class="cls-251" d="M114.18,135c-3.31,6.3-9.86,4.46-15.07,6a15.07,15.07,0,0,1-3.92,0c0-3.67,0-7.33,0-11,4.82-.32,9.41-1.73,14-3C112.07,128.94,112.46,132.4,114.18,135Z"/><path class="cls-252" d="M109.2,127c-4.19,3.28-8.71,5-14,3v-5.95c0-7.81,0-7.81,8-9Z"/><path class="cls-253" d="M94.27,114c1.42-1.58,3.3-.68,5-.89C98.14,116.48,96.13,114.82,94.27,114Z"/><path class="cls-254" d="M113.16,125.06,111.32,123c-1.52-2.13-3-4.29-3.36-7,1-.92,2.32-1.08,3-.06,1.81,2.64,3.21,1.09,4.71-.19,1.89-1.63,1.24-3-.35-4.44a1.73,1.73,0,0,1-.13-2.6c5.45-.11,8.92,3.58,12.72,6.64,1.44,2.13.87,4-.72,5.77-1.32,1.45-2.72,2.83-4.13,4.21C117.91,130.44,117.46,130.42,113.16,125.06Z"/><path class="cls-255" d="M141.18,125c3.54,1.32,4.66,2.72,1.6,6.27a97.53,97.53,0,0,1-11.65,12,5,5,0,0,0-2,4.68h-2c-1.22-1.17-1.92-2.75-3.11-3.94-2-3.35-4.87-6.11-6.08-9.92a1.33,1.33,0,0,1,1.19-.43c1.84.85,2.31,2.66,3,4.32,1.22,3.51,2.84,4.29,6,1.59C133.24,135.36,138.32,131.22,141.18,125Z"/><path class="cls-256" d="M119.18,134l-1.18.14a44.61,44.61,0,0,1-4.84-9.1c2.56-.63,2.91,6,6,2.21,2.86-3.54,9.1-4.82,8-11.19,1.47-1.09,2.31-.39,2.92,1l2.13,1.84c0,.37,0,.74,0,1.11.33.39.73,1,.5,1.31C129,126.39,126,132.32,119.18,134Z"/><path class="cls-257" d="M108,116.1q1.65,3.45,3.31,6.9a57.09,57.09,0,0,1-8.12-11c-.35-1,1.14-2,0-3-.53-1.32.67-1.93,1.16-2.84,2-2.12,2.47-5.06,4.22-7.3a7.66,7.66,0,0,1,1-.85c1.59-.86,2.74-2.54,4.77-2.55a2.2,2.2,0,0,1,1.22.68,3.68,3.68,0,0,1,.44,2.06c-.76,2.23-.17,4.58-.63,6.84-1.72,1.41-2.93-.45-4.38-.54.75.75,2.5.73,2.39,2.44C110.81,109.53,107.46,111.66,108,116.1Z"/><path class="cls-185" d="M124.08,144.08a4.48,4.48,0,0,1,3.11,3.94l-1.1.07A6.71,6.71,0,0,1,124.08,144.08Z"/><path class="cls-258" d="M158.23,128.94l-1-1c3.91-9.31,7.1-18.82,8.27-30.38,1.85,7.36-1.26,12.77-1.28,18.47C163.37,120.91,161.94,125.45,158.23,128.94Z"/><path class="cls-259" d="M115.09,98l0-1.91c.39-2.43,2.36-1.9,3.88-2,3.65-.11,7.31,0,11,0,2.2-.11,4.32.75,6.53.51,7.56.28,15.15-.58,22.69.46l1.89.14a7.6,7.6,0,0,1,.16.83c-1,1.19-2.37,1.25-3.75,1.35-.54,0-1.08.05-1.63.05-1.63,0-3.26,0-4.89,0-1.93.09-3.86,0-5.8,0-1.69.1-3.37,0-5.06,0-2,.09-4-.1-6,0-2.79.09-5.58.06-8.37,0-3.12,0-6.28-.4-9.26,1A1.34,1.34,0,0,1,115.09,98Z"/><path class="cls-146" d="M159.18,95l-23.05-.11c-.29-.21-.39-.4-.28-.59s.21-.27.31-.27h23C159.18,94.38,159.18,94.7,159.18,95Z"/><path class="cls-260" d="M157.14,96.13l4.09-.13a5.62,5.62,0,0,1,.92.08,72.14,72.14,0,0,1-5.88,27.3c-.66,1.55-1.38,2.58-3.1,2.67L144.26,122c0-.3-.08-.6-.11-.9,1.3-1.29,2.79-.71,4.25-.45,3.65-.24,3.49-3.57,4.33-5.78,1.77-4.65,2.31-9.64,3.07-14.54C156,98.82,156,97.29,157.14,96.13Z"/><path class="cls-261" d="M119.18,134c5.13-3.92,9.83-8.23,13-14l4.85,2.1c-3.5,6.66-8.88,11.56-14.85,15.91C120.39,137.29,120,135.49,119.18,134Z"/><path class="cls-262" d="M148.17,122a6.53,6.53,0,0,0-4-1c-2.11-1.22-4.57-1.88-6.21-3.86a2.2,2.2,0,0,1,2-.82c3.11,1.24,5,.12,5.93-3,1.21-3.91,2.89-7.69,3.15-11.86a7.54,7.54,0,0,1,2.13-5.36h5A1.91,1.91,0,0,1,156.6,98c-1.61,5.53-2.54,11.21-3.94,16.77C152,117.49,151.26,120.59,148.17,122Z"/><path class="cls-263" d="M140.18,117l-2.24.16-4.87-2.1a1.51,1.51,0,0,1,.21-1.42c3.05-2.68,3.6-6.49,4.57-10.11.67-2.51.53-5.26,2.3-7.42h5c.71.68,1.77,1.42,1.55,2.38C145.23,104.94,144.59,111.67,140.18,117Z"/><path class="cls-264" d="M113.09,107.16c-.61-2-5.43-.93-3.7-3.66,1.51-2.39,3.47,2,5.75,1.56a6.94,6.94,0,0,1,5.29,1.11c1.8,1.3,3.89,2.09,5.79,3.23a16.28,16.28,0,0,1,2.56,2.87c.8.93,2.12,1.43,2.37,2.82.76,1.26.51,2-1.06,2l-2.92-1c-3.79-2.7-7.59-5.37-12-7C114,109,113,108.68,113.09,107.16Z"/><path class="cls-265" d="M131.15,115.09l-3-2.08c1.69-1.38,3.24-1.15,4.67.39.08.25.15.49.22.73a3.93,3.93,0,0,1,0,1Z"/><path class="cls-266" d="M30.18,95.07h-6l-1,0,1-1A4.74,4.74,0,0,1,27,92.8c2.17-.16,4.35,0,6.52-.14a3.83,3.83,0,0,0,2.62-1.57l3,0,0,1c.33.51,0,.9-.24,1.31,7.8-1.72,15.76.05,23.59-1.07,2.2-.32,4.67.18,6.36-1.89.58-.74,1-1.69,2.26-1.36,0,.33-.14.81,0,1,3,2.72,1.13,5.4,0,8.08a3.36,3.36,0,0,1-2.53-.61c-2.11-1.34-4.49-.9-6.79-1C51.3,95.88,40.64,97.79,30.18,95.07Z"/><path class="cls-267" d="M36.18,91.09c0,1.07.22,2.25-1,2.91a7.71,7.71,0,0,0-8,0l-3,0c0-1,0-2,0-2.94l5-.1Z"/><path class="cls-219" d="M96.16,25c0-.64,0-1.27,0-1.91,5.14-2.55,10.19.27,15.29.32,1.77,0,3.46,1,5.28.95.15-.12.3-.22.45-.32,3.72,1.31,8.8.34,10,5.94-2.1,1.5-1.25,4.95-4,6-1.4-5.55-6.39-5.71-10.6-7a11.51,11.51,0,0,1-1.38-.42,50.23,50.23,0,0,0-13.08-2.4A3.11,3.11,0,0,1,96.16,25Z"/><path class="cls-219" d="M107.19,21a20.13,20.13,0,0,1,10,3l0,.05c-3.83.68-7.38.42-10-3Z"/><path class="cls-268" d="M112.19,28.05c3.68-.33,6.61,1.89,9.86,3,3,1,1.3,3.19,1.12,5a1.8,1.8,0,0,1-.8.09c-2.12,1.59-4.06.27-6-.38a19.27,19.27,0,0,0-5.22-1.33c-5.2-1.59-10.69-1.85-15.91-3.33l0-4C101,25.6,106.51,28.12,112.19,28.05Z"/><path class="cls-269" d="M111.17,33.07c4.07-.21,7.19,3,11.2,3-.29,1-.59,2-.88,3-.55,2.29-1.13,4.56-3.2,6-.51-3-2.43-4.36-5.23-5.3a100.91,100.91,0,0,0-17.83-3.8c0-1.33,0-2.67,0-4a33.34,33.34,0,0,1,10.52.79C107.4,33.23,109.31,34.91,111.17,33.07Z"/><path class="cls-270" d="M126,40a14.26,14.26,0,0,1,3.13-5c5.1.63,8.46,4.36,12.19,7.21,4.86,3.72,9.52,7.83,11.87,13.81-1.77.82-2.68,3.09-5,3-1.13-5.79-5.64-9.15-9.53-12.85-2.38-2.26-5.33-3.92-8-5.87A4.16,4.16,0,0,0,126,40Z"/><path class="cls-271" d="M117.9,54,121,49c3.24-2.42,4.51,1.59,6.75,2.32,3.74,1.23,6.56,4.4,8.75,7.73,2.68,4.06.14,6.28-3.33,7.94a76.68,76.68,0,0,1-5.22-7.2C125.52,56.22,122.49,53.79,117.9,54Z"/><path class="cls-272" d="M112.58,62.15c.5-1.86,2.11-2.86,3.3-4.18,3.66-3.93,6.62-.17,8.11,1.82,2.05,2.71,4.48,5.6,5.16,9.24l-.86,1.23-4.24,3.63-3.84,1.25c-.39-.34-.85-.93-.64-1.25,3.25-5-.57-6.76-3.89-8.79C114.44,64.34,112.88,63.9,112.58,62.15Z"/><path class="cls-273" d="M129.15,69c-4.21-2.22-4.09-7.66-8-10.42-2.09-1.5-3.44-1.23-5.3-.63a8.41,8.41,0,0,1,2-4c2.4-1.92,4.3-1.51,6.63.57,3.93,3.5,7.22,7.27,8.62,12.44C131.43,66.92,130.56,68.52,129.15,69Z"/><path class="cls-274" d="M102.22,93l1.87.16A4.76,4.76,0,0,1,106,94.39c-.71,2.45-5.4,8-7.53,8.92-3.37.24-6.75.2-10.12.19-3.58-.56-7.74-.26-8.18-5.49h0c3-.83,1.69-4.63,4.08-5.87,1.94-.7,1.62-3,2.92-4.13,2.6-4.32,6.64-3.05,10.24-2.27,2.79.61,3.68,3.06,3.27,5.86a1.55,1.55,0,0,1-1.12.85c-2.22-.57-4.4-1.34-6.79-1.19-3.31.22-6.24,3.81-5.43,7,.15.56,1.17.44,1.82.5a13.34,13.34,0,0,1,2.46.13c4,.82,7.14.15,8.12-4.5a3.18,3.18,0,0,1,1.2-1.54A1.15,1.15,0,0,1,102.22,93Z"/><path class="cls-275" d="M100.26,92c-2.09-6.46-6.74-7.87-13.1-4,.45-1.08-2.64-3.89,1.59-3.15,1,.16,1.29-.82,1.43-1.7.52-3.28,2.43-1.68,4-1.13,4.46-.24,6.7,2.19,7.57,6.29a5.83,5.83,0,0,1,.36,2.77c0,.64,0,1.27.07,1.9l-1.06.09A1.13,1.13,0,0,1,100.26,92Z"/><path class="cls-276" d="M101.11,89.1c-.65-4-3.69-5.59-6.89-7.07,0-1.1-.19-2.26.92-3,1.34.17,2.64,3.42,4,.06,2.7.28,4,2.7,6,4a2.91,2.91,0,0,1-.81.83c-1.14.53-.91,1.52-.82,2.47A3,3,0,0,1,101.11,89.1Z"/><path class="cls-277" d="M104.17,83.1l1.06-.07L107,84.25c-.42,3.12.78,7.4-4.84,6.84a2.17,2.17,0,0,1-1-2l2-3A5.68,5.68,0,0,1,104.17,83.1Z"/><path class="cls-278" d="M99.18,79.06c-.06,1,2.65,2.06.42,2.85s-4.2,0-4.46-2.91C96.51,77.07,97.82,79.46,99.18,79.06Z"/><path class="cls-231" d="M84.24,92.14c-.86,2.31-.08,5.76-4.08,5.87a8.6,8.6,0,0,0,1.14-4.88,2.22,2.22,0,0,1,.78-1.38,1,1,0,0,1,1,.2Z"/><path class="cls-279" d="M83.07,92a7.67,7.67,0,0,1-.78.23.63.63,0,0,1-1-.22l-2.16-1.84A4.37,4.37,0,0,1,84.15,89c0,.35.07.71.11,1.07C83.86,90.72,83.46,91.33,83.07,92Z"/><path class="cls-280" d="M130.1,94.89c-4.95,1-10.14-1.18-15,1.15-.31,0-.62,0-.93,0a2,2,0,0,1,0-3l15,0C129.67,93.57,130.69,93.81,130.1,94.89Z"/><path class="cls-281" d="M114.18,93.05c0,1,0,2,0,3l-4,3c-1.67-1.93-1.29-4.39-1.68-6.64A3.26,3.26,0,0,1,109.1,91c0-.3.07-.61.13-.91C112,89.27,113,91.26,114.18,93.05Z"/><path class="cls-282" d="M130.1,94.89l-.95-1.82,2.09,0a3.41,3.41,0,0,0,.9-.06.65.65,0,0,1,1,.09c.71,1.16,1.89,1,3,1a8.25,8.25,0,0,1,0,.86Z"/><path class="cls-283" d="M112.58,62.15c3.21,2.09,7.22,2.89,9.28,6.81,1.16,2.2,3.52,3.89-1.25,3.94a11,11,0,0,0-.4,2.24L119,76.84c-2.08.81-4.36,1.25-5.83,3.17-3.67.45-4-4.05-7-4.66.29-4.42,4.52-7,5.18-11.28C111.75,63.43,112.16,62.79,112.58,62.15Z"/><path class="cls-275" d="M109.1,91l.06,1.07c.06,4.24,0,4.25-4.09,2.07-.32-.33-.65-.65-1-1Z"/><path class="cls-284" d="M133.18,93.05l-1-.09c4.43-2,9.09-.57,13.63-.85,4.12-.26,8.27,0,12.4,0-4.06,2.11-8.4.66-12.59.93S137.31,93.05,133.18,93.05Z"/><path class="cls-285" d="M95.23,36.06c8.1-1.64,15.28,1.21,22.3,4.69,2.14,1,0,3,.76,4.41v0c-.66.41-1,1.59-2.1,1-.44-2.54-2.48-2.6-4.43-3-5.51-1.23-11-2.61-16.46-3.93C95.27,38.1,95.25,37.08,95.23,36.06Z"/><path class="cls-286" d="M107.18,21.1a20,20,0,0,0,10,3c.27.91,1.87,1,1.4,2.58-7.2-2.85-14.83-3-22.39-3.58a2,2,0,0,1-.94-2,13.31,13.31,0,0,1,8-.1Z"/><path class="cls-287" d="M111.17,33.07c.14.71.81,2-.47,1.83-5.19-.79-10.33-1.87-15.5-2.84a5.46,5.46,0,0,1,0-1C100.79,29.59,105.86,32.28,111.17,33.07Z"/><path class="cls-288" d="M112.19,28.05c-.2.7,1.77,2.13.41,1.72-5.71-1.72-11.74-.93-17.37-2.72A2.05,2.05,0,0,1,96.16,25l2,.08c4.67,1,9.44,1.46,14,3Z"/><path class="cls-219" d="M103.18,21l-8,.1C97.86,19.41,100.52,19.59,103.18,21Z"/><path class="cls-289" d="M111,56.92c-2.85.54-2.14,3.74-3.85,5.13-1.63-5.73-6-6.44-11-6l0-6c5.54-.29,9.74,3.39,14.65,5C111.09,55.14,111,56.28,111,56.92Z"/><path class="cls-269" d="M116.19,46.07l2.1-1c-1,2.29-1.25,5-4,6.11,0-.4-.09-.81-.13-1.21A5.31,5.31,0,0,0,116.19,46.07Z"/><path class="cls-290" d="M88.14,102l11,.14a.94.94,0,0,1,.31.75c0,.28-.08.42-.13.42a3.87,3.87,0,0,0-.7,3.08c-.06.22-.12.44-.19.67a3.71,3.71,0,0,1-1.09.92c-2.94,1.29-5.93,2.22-9.15,1l-4-4.88C84.68,101.89,87,103.15,88.14,102Z"/><path class="cls-291" d="M72.19,102.07c.9-.61,1.48-2.16,3-1,.34,1,.69,2,1,2.94l-.09.15c-4.46,3.39-9.52,5.74-14.43,8.36a4.1,4.1,0,0,1-1.43.17,1.83,1.83,0,0,1-1.58-2.1,2.54,2.54,0,0,1,.72-1.22C63.67,106.93,67.5,103.74,72.19,102.07Z"/><path class="cls-253" d="M88.19,109c3.56.58,6.5-2.1,10-1.91a2.23,2.23,0,0,1,1,2.94c-1.23,1.39-3,2.94-4.55,1.87-3.26-2.19-7.19-1.12-10.44-2.82Z"/><path class="cls-231" d="M88.14,102l-4,2.09a57.69,57.69,0,0,1-4.8-3.49c-1.3-1.14-1.4-2.31.76-2.63C81.21,102.51,84.86,101.9,88.14,102Z"/><path class="cls-292" d="M81.25,92l1,.22-1,.95c-1.41.15-.72,3-2.52,2.17-.59-.27-.45-2.08-.65-3.19Z"/><path class="cls-222" d="M72.19,102.07a36.51,36.51,0,0,1-13,8c-1.92.7-3.82.58-4.69-1.41-1.87-4.27-3.13-8.67,0-13,3.77-.19,7.54-.06,11.31-.08,1.6,0,3.36-.35,4.34,1.49l1,1A6.71,6.71,0,0,0,72.19,102.07Z"/><path class="cls-293" d="M71.18,89a2.14,2.14,0,0,0-1.05,2C65,93,59.84,93.77,54.71,91c-1.79-4.52.08-8.56,1.78-12.57A2.25,2.25,0,0,1,59.27,77l11.86,6.15c0,1.64,0,3.27.05,4.91C71.17,88.38,71.18,88.7,71.18,89Z"/><path class="cls-294" d="M84.15,89c-1.54,1.06-3.29,1.09-5.06,1.09-1.57-1.05-2.71-2.21-.19-3.38S83.63,85.44,84.15,89Z"/><path class="cls-231" d="M55.19,91.06a49.56,49.56,0,0,0,14.94,0c-1.26,3.79-4.92,2.34-7.12,2.51a219.44,219.44,0,0,1-24.2.28c-1.77-.06.59-1.08.4-1.78,3.24-1.17,6.62-1,10-1A4.41,4.41,0,0,1,55.19,91.06Z"/><path class="cls-222" d="M55.19,91.06h-6a2.06,2.06,0,0,1,1-2c1.85-4.75,1.8-10.3,6-14a3.41,3.41,0,0,1,3.07,2C55.37,81,55.28,86,55.19,91.06Z"/><path class="cls-293" d="M56.2,75c-2.18,4.61-2.93,9.82-6,14-.07-5.58.61-10.91,5-15Z"/><path class="cls-295" d="M60.18,112c.33,0,.65,0,1-.05,1-.43,1.21.17,1.34.94a4.49,4.49,0,0,1-4.32,3.1l-5,2-1.05-1v0C53.69,113.5,56.57,112.18,60.18,112Z"/><path class="cls-296" d="M78.18,121.06a13.87,13.87,0,0,1,3.12-7.86c2.25-2.9,2.14,0,2.9.86Z"/><path class="cls-252" d="M58.18,116l4-3c4-2.78,7.18-7.18,13-6,.06.15.09.35.2.44,4.21,3.2,3.31,6.81.84,10.53l-5,9.06c-.57,1.37-2.27,2.13-2.09,3.9l-.94.09c-.18-1,0-2.42-.6-2.81C63.12,125.19,61,120.39,58.18,116Z"/><path class="cls-297" d="M75.18,107.07c-5.19.11-8.45,4.43-13,6l-1-1.05a55,55,0,0,1,15-7.86C75.81,105.11,75.49,106.09,75.18,107.07Z"/><path class="cls-298" d="M99.18,110l-1-2.94,0,0c2.31-.47,4.62-1.61,7,0-.66.68-1.32,1.35-2,2A6.92,6.92,0,0,0,99.18,110Z"/><path class="cls-299" d="M70.18,97.06c-5.22-2.12-10.67-.54-16-1-3.72,2.55-7.9,1.23-11.9,1.45-3.1-.07-6.33.73-9.09-1.45h-3c0-.33,0-.66,0-1,11.73,0,23.46-.06,35.19,0C67.12,95.11,69.57,94,70.18,97.06Z"/><path class="cls-300" d="M33.2,96.05h9c3.29,5.83,3.36,12.49,4.8,18.8.33,1.42-.63,2.46-1.8,3.21-2.06,1.8-4.15,3.54-7,4C35.42,113.64,32.92,105.11,33.2,96.05Z"/><path class="cls-238" d="M45.2,118.07c2.06-4.57-1.33-8.5-1.52-12.84a72.35,72.35,0,0,0-1.49-9.17h12c0,2.61-.06,5.22,0,7.82.12,3.25,1.35,5.7,5,6.18l0,0c-1.13,3.41-4.91,3.68-7,5.93C49.53,115.66,47.67,117.89,45.2,118.07Z"/><path class="cls-297" d="M52.16,116c1.43-3.05,5.2-3.34,7-5.93a2.06,2.06,0,0,0,1,2l-8,4.95C52.16,116.67,52.16,116.34,52.16,116Z"/><path class="cls-301" d="M113.09,107.16l2.08,1.92c0,1.47,1.11,1.76,2.24,2.21,1.9.75,1.59,2.11.83,3.65-1,2.08-3.12,3-4.82,4.12-3.34,2.18-1.92-2.33-3.44-2.87a6.77,6.77,0,0,0-2-.09C105.69,112.12,107.6,108.76,113.09,107.16Z"/><path class="cls-302" d="M105.16,107c-2.32-.21-4.62,2-7,0v-1a5.14,5.14,0,0,1,1.93-2.32,5.5,5.5,0,0,0,2.11-1c.23-.35.45-.69.65-1.06.87-1.84,1.31-4,3.83-4.47,1.14.18,2.72-.2,2.43,1.86C108,101.79,107.24,104.73,105.16,107Z"/><path class="cls-303" d="M109.16,99.05c-.71-1.17-1.9-.94-3-1-3.5.19-1.7,3.53-3,5h0c-.78.85-1.75.69-2.73.51a1.64,1.64,0,0,1-1.29-.52c0-.29,0-.59,0-.88.78-.19,1.81-.4,1.85-1.27.12-2.83.72-5.12,4.23-5,0-.58-.09-1.16-.14-1.74,2.1.77,3.6.37,4.08-2.07,1.43,2.18.93,4.63,1,7Z"/><path class="cls-304" d="M120.23,107l-5.09-2a7.06,7.06,0,0,1,0-7.11,3.16,3.16,0,0,0,1-.13c1.16.72.47,2.18,1.28,3.12,1.86-.66,1.45-4.55,3.64-3.62s1.06,3.78.77,5.83c-.18,1.3.18,2.64-.35,3.91A.73.73,0,0,1,120.23,107Z"/><path class="cls-305" d="M140.18,117c1.84-5.71,3.64-11.43,5.54-17.11.48-1.44-.64-2.49-.57-3.78h6a68.68,68.68,0,0,1-4.59,19.15C145.15,118.77,143.39,120.41,140.18,117Z"/><path class="cls-304" d="M125.16,96.21l9-.08c2.33.42,4.18.9,1.81,3.77-1.49,1.81-1.37,4.31-1.86,6.54-1,2.32-1.05,5.55-4.94,4.92-2.25-3.07.91-5.52.58-8.07-.62,1.64-.34,4.23-2.13,5.59-2.37,1.79-3.82-.84-5.62-1.71C121.7,103.13,123.13,99.59,125.16,96.21Z"/><path class="cls-306" d="M133.18,106.05c.17-2.88.33-5.65,2.5-8,1.27-1.41-1.53-.79-1.48-1.89l6,0c.07,5.4-1.66,10.41-3.31,15.44a3.4,3.4,0,0,1-3.77,2.54h0C131.26,111.42,134.17,108.75,133.18,106.05Z"/><path class="cls-307" d="M148.17,122a37.21,37.21,0,0,0,4.35-13.12c.56-4.34,2.37-8.51,3.63-12.75a4.68,4.68,0,0,1,1,0,60.26,60.26,0,0,1-5.25,24.45C151.07,122.45,150.1,123.32,148.17,122Z"/><path class="cls-283" d="M125.16,96.21c.09,3.9-1.67,7.29-3,10.79-.34.38-.65.35-.93-.07-2.55-2.88.87-6-.28-9-2.3,1.28-.6,6.26-4.29,5.4-3-.69-.16-3.66-.59-5.56C118.55,94.22,122.12,96.71,125.16,96.21Z"/><path class="cls-263" d="M133.18,106.05c2.56,2.72-.41,5.38-.07,8.07-1.55-.75-3.1-1.52-4.92-1.11l-2.36-2.79c1.51-1.39,2.47-.44,3.37.8C132.57,111,131.91,107.76,133.18,106.05Z"/><path class="cls-306" d="M129.2,111c-1.09-.44-2.1-1.14-3.37-.8a15.69,15.69,0,0,1-5.6-3.19c.33,0,.66,0,1-.1a4.87,4.87,0,0,0,.93.08c5.34,2.22,5.34,2.22,7.57-5.14C131.18,105.19,128.64,108,129.2,111Z"/><path class="cls-308" d="M27.2,94c1.06-2.84,5.32-2.85,8,0Z"/><path class="cls-268" d="M112.19,28.05a53.61,53.61,0,0,1-14-3C103.06,25.06,107.83,25.59,112.19,28.05Z"/><path class="cls-309" d="M100.26,92l.9,1.09c-2.32,7.16-2.32,7.16-12,7-.64-.75-2.4-.31-2.07-2.15,1.28-7,5.62-9.08,12.09-5.85Z"/><path class="cls-310" d="M99.2,92a21.8,21.8,0,0,0-4.28-.91c-1.92,0-4.75-.85-3.9,3,.38,1.73-1.31,2.12-2.27,2.85-1.82,1.4-.22,2.13.43,3.07-6,.48-3.67-2-2.25-5.19C89.28,89.55,94.38,88.09,99.2,92Z"/><path class="cls-311" d="M104.17,83.1c.86,1.39.55,2.39-1,3-.84-.5-1.91-1-1.53-2.17S103.25,83.16,104.17,83.1Z"/><path class="cls-312" d="M99.18,103.05c.3,0,.6,0,.9,0,.4.15.56.33.47.55s-.21.36-.33.36a1.87,1.87,0,0,1-2,2c-.76-.34-1.65-.78-1.42-1.7C97.06,103.24,98.18,103.12,99.18,103.05Z"/><path class="cls-298" d="M103.19,103.06a31.3,31.3,0,0,1,.58-4.87c.5-1.83,1.53-1.15,2.41-.16C104.28,99.17,104.74,101.71,103.19,103.06Z"/><path class="cls-298" d="M100.22,104c0-.3-.08-.61-.14-.91l3.12,0C102.94,105.66,101.51,104.61,100.22,104Z"/></g></g></svg>