<svg xmlns="http://www.w3.org/2000/svg" viewBox="0 0 185.24 187.02"><defs><style>.cls-1{fill:#fefefe;}.cls-2{fill:#594225;}.cls-3{fill:#fdfdfd;}.cls-4{fill:#e4caa4;}.cls-5{fill:#5d4526;}.cls-6{fill:#594124;}.cls-7{fill:#624927;}.cls-8{fill:#624928;}.cls-9{fill:#6e542d;}.cls-10{fill:#553f24;}.cls-11{fill:#6a5029;}.cls-12{fill:#493720;}.cls-13{fill:#362c24;}.cls-14{fill:#4d3921;}.cls-15{fill:#a07c48;}.cls-16{fill:#a2804b;}.cls-17{fill:#775732;}.cls-18{fill:#836037;}.cls-19{fill:#b3935d;}.cls-20{fill:#947343;}.cls-21{fill:#9b7745;}.cls-22{fill:#836339;}.cls-23{fill:#c6b77e;}.cls-24{fill:#42351a;}.cls-25{fill:#b5a669;}.cls-26{fill:#362a1e;}.cls-27{fill:#a6985b;}.cls-28{fill:#918144;}.cls-29{fill:#684616;}.cls-30{fill:#dbca93;}.cls-31{fill:#c5a972;}.cls-32{fill:#dbc990;}.cls-33{fill:#c9b57e;}.cls-34{fill:#d6c089;}.cls-35{fill:#bea66e;}.cls-36{fill:#6f5530;}.cls-37{fill:#9e804e;}.cls-38{fill:#e6d99a;}.cls-39{fill:#9a7644;}.cls-40{fill:#88653a;}.cls-41{fill:#7a5934;}.cls-42{fill:#7b5934;}.cls-43{fill:#4a3720;}.cls-44{fill:#8e6b3e;}.cls-45{fill:#725f30;}.cls-46{fill:#967343;}.cls-47{fill:#8a673b;}.cls-48{fill:#c4a66c;}.cls-49{fill:#8c6a3e;}.cls-50{fill:#a3844e;}.cls-51{fill:#7d6a36;}.cls-52{fill:#6f522f;}.cls-53{fill:#9d7947;}.cls-54{fill:#725230;}.cls-55{fill:#8f7e44;}.cls-56{fill:#85673e;}.cls-57{fill:#e2d39a;}.cls-58{fill:#c5aa72;}.cls-59{fill:#d7c48d;}.cls-60{fill:#b09d62;}.cls-61{fill:#3f301d;}.cls-62{fill:#a07d4a;}.cls-63{fill:#cbb77e;}.cls-64{fill:#d7c28d;}.cls-65{fill:#87663d;}.cls-66{fill:#ac8b56;}.cls-67{fill:#4c4135;}.cls-68{fill:#7f5e37;}.cls-69{fill:#86643a;}.cls-70{fill:#564726;}.cls-71{fill:#70522e;}.cls-72{fill:#87643a;}.cls-73{fill:#694d2c;}.cls-74{fill:#cebf82;}.cls-75{fill:#a7834d;}.cls-76{fill:#937241;}.cls-77{fill:#9f9051;}.cls-78{fill:#645037;}.cls-79{fill:#534532;}.cls-80{fill:#b9a970;}.cls-81{fill:#c7ba81;}.cls-82{fill:#614e34;}.cls-83{fill:#9e9785;}.cls-84{fill:#634e31;}.cls-85{fill:#957543;}.cls-86{fill:#756038;}.cls-87{fill:#705935;}.cls-88{fill:#85643a;}.cls-89{fill:#997847;}.cls-90{fill:#ceb27a;}.cls-91{fill:#977944;}.cls-92{fill:#a6844e;}.cls-93{fill:#4e4220;}.cls-94{fill:#dbca92;}.cls-95{fill:#544827;}.cls-96{fill:#c5a46a;}.cls-97{fill:#8e693d;}.cls-98{fill:#4a3f33;}.cls-99{fill:#635032;}.cls-100{fill:#65552a;}.cls-101{fill:#bcaa6f;}.cls-102{fill:#bea16a;}.cls-103{fill:#312515;}.cls-104{fill:#957442;}.cls-105{fill:#3e362d;}.cls-106{fill:#b9a86f;}.cls-107{fill:#816834;}.cls-108{fill:#352d17;}.cls-109{fill:#322715;}.cls-110{fill:#564938;}.cls-111{fill:#4d4437;}.cls-112{fill:#bb975d;}.cls-113{fill:#493f33;}.cls-114{fill:#b2a265;}.cls-115{fill:#39322c;}.cls-116{fill:#322c28;}.cls-117{fill:#c1a46a;}.cls-118{fill:#604e29;}.cls-119{fill:#6d583b;}.cls-120{fill:#b58f54;}.cls-121{fill:#594f3d;}.cls-122{fill:#c7b179;}.cls-123{fill:#604d2a;}.cls-124{fill:#483e32;}.cls-125{fill:#cab882;}.cls-126{fill:#2e2413;}.cls-127{fill:#665531;}.cls-128{fill:#afa265;}.cls-129{fill:#b39159;}.cls-130{fill:#baab6f;}.cls-131{fill:#372b18;}.cls-132{fill:#8b6a3d;}.cls-133{fill:#d8c48d;}.cls-134{fill:#605643;}.cls-135{fill:#4f422b;}.cls-136{fill:#c2b175;}.cls-137{fill:#cdb27a;}.cls-138{fill:#43371c;}.cls-139{fill:#2e2a28;}.cls-140{fill:#8c8879;}.cls-141{fill:#42392f;}.cls-142{fill:#3f321a;}.cls-143{fill:#8f8042;}.cls-144{fill:#534738;}.cls-145{fill:#9d8d5d;}.cls-146{fill:#584d3c;}.cls-147{fill:#a29d8e;}.cls-148{fill:#e5dec7;}.cls-149{fill:#d4cebb;}.cls-150{fill:#bfbaa7;}.cls-151{fill:#9a9585;}.cls-152{fill:#afaa9a;}.cls-153{fill:#bab5a4;}.cls-154{fill:#9c7846;}.cls-155{fill:#e6dfc8;}.cls-156{fill:#d0cab6;}.cls-157{fill:#e0d9c3;}.cls-158{fill:#cac4b1;}.cls-159{fill:#d8d1bd;}.cls-160{fill:#979489;}.cls-161{fill:#949186;}.cls-162{fill:#7e603a;}.cls-163{fill:#957343;}.cls-164{fill:#847f70;}.cls-165{fill:#a7a393;}.cls-166{fill:#5f4c34;}.cls-167{fill:#a1947c;}.cls-168{fill:#7c643d;}.cls-169{fill:#745835;}.cls-170{fill:#423d35;}.cls-171{fill:#6a5131;}.cls-172{fill:#3c3327;}.cls-173{fill:#2f2a27;}.cls-174{fill:#282523;}.cls-175{fill:#4c4a43;}.cls-176{fill:#53514a;}.cls-177{fill:#403d36;}.cls-178{fill:#564630;}.cls-179{fill:#4a4741;}.cls-180{fill:#3a332b;}.cls-181{fill:#908c7e;}.cls-182{fill:#604f35;}.cls-183{fill:#423c35;}.cls-184{fill:#483a28;}.cls-185{fill:#d2c68f;}.cls-186{fill:#959183;}.cls-187{fill:#635134;}.cls-188{fill:#8e897a;}.cls-189{fill:#9c9a91;}.cls-190{fill:#aaa696;}.cls-191{fill:#c1bcab;}.cls-192{fill:#b6b1a0;}.cls-193{fill:#9c9788;}.cls-194{fill:#b0ab9a;}.cls-195{fill:#93774d;}.cls-196{fill:#554b3b;}.cls-197{fill:#544b3f;}.cls-198{fill:#3b342c;}.cls-199{fill:#8a8475;}.cls-200{fill:#776448;}.cls-201{fill:#332915;}.cls-202{fill:#989486;}.cls-203{fill:#b4b0a1;}.cls-204{fill:#a6a394;}.cls-205{fill:#999484;}.cls-206{fill:#65533b;}.cls-207{fill:#888374;}.cls-208{fill:#59462f;}.cls-209{fill:#7d6748;}.cls-210{fill:#826a42;}.cls-211{fill:#473d32;}.cls-212{fill:#3f3831;}.cls-213{fill:#423a31;}.cls-214{fill:#4b4439;}.cls-215{fill:#999588;}.cls-216{fill:#715a3b;}.cls-217{fill:#594b38;}.cls-218{fill:#949082;}.cls-219{fill:#aba89e;}.cls-220{fill:#908c7d;}.cls-221{fill:#969389;}.cls-222{fill:#dfd9c3;}.cls-223{fill:#6a5438;}.cls-224{fill:#cac3b1;}.cls-225{fill:#b4b09f;}.cls-226{fill:#b19e7c;}.cls-227{fill:#c2bdac;}.cls-228{fill:#c8ad67;}.cls-229{fill:#8c683c;}.cls-230{fill:#654c2d;}.cls-231{fill:#c9b174;}.cls-232{fill:#af9055;}.cls-233{fill:#5d472b;}.cls-234{fill:#543f24;}.cls-235{fill:#7d5c35;}.cls-236{fill:#af8e53;}.cls-237{fill:#bab4a3;}.cls-238{fill:#b8b6ac;}.cls-239{fill:#d0cbb8;}.cls-240{fill:#a8a496;}.cls-241{fill:#b6b2a3;}.cls-242{fill:#dcd6c3;}.cls-243{fill:#cbc5b3;}.cls-244{fill:#7a5e3a;}.cls-245{fill:#e3ddc7;}.cls-246{fill:#907443;}.cls-247{fill:#5d5a52;}.cls-248{fill:#54514b;}.cls-249{fill:#59554d;}.cls-250{fill:#4e4c45;}.cls-251{fill:#4a4841;}.cls-252{fill:#e4ddc7;}.cls-253{fill:#434039;}.cls-254{fill:#604d34;}.cls-255{fill:#7b5c38;}.cls-256{fill:#5a4933;}.cls-257{fill:#8c6f44;}.cls-258{fill:#e2dcc8;}.cls-259{fill:#6b5437;}.cls-260{fill:#5c5a52;}.cls-261{fill:#6d5537;}.cls-262{fill:#a39e8d;}.cls-263{fill:#beb9a7;}.cls-264{fill:#b0ac9a;}.cls-265{fill:#b2afa5;}.cls-266{fill:#c7c1ad;}.cls-267{fill:#d3cdb8;}.cls-268{fill:#9a978d;}.cls-269{fill:#6e5638;}.cls-270{fill:#a29d8d;}.cls-271{fill:#aaa79d;}.cls-272{fill:#aba695;}.cls-273{fill:#9b9585;}.cls-274{fill:#856e4c;}.cls-275{fill:#ded8c4;}.cls-276{fill:#d4cdb9;}.cls-277{fill:#cdc7b5;}.cls-278{fill:#866e4a;}.cls-279{fill:#9e9c92;}.cls-280{fill:#bfbaaa;}.cls-281{fill:#b6b3a8;}.cls-282{fill:#e5dec8;}.cls-283{fill:#d9d3c0;}.cls-284{fill:#d2ccb8;}.cls-285{fill:#c8c2b0;}.cls-286{fill:#68573f;}.cls-287{fill:#e0d9c5;}.cls-288{fill:#aca99d;}.cls-289{fill:#a6a293;}.cls-290{fill:#c0bbaa;}.cls-291{fill:#6d593e;}.cls-292{fill:#b7b3a4;}.cls-293{fill:#99968b;}.cls-294{fill:#cac4b3;}.cls-295{fill:#d2ccba;}.cls-296{fill:#554633;}.cls-297{fill:#705b41;}.cls-298{fill:#e8e1cd;}.cls-299{fill:#c3bdaa;}.cls-300{fill:#b7b2a0;}.cls-301{fill:#ebe3cb;}.cls-302{fill:#937144;}.cls-303{fill:#ad8e58;}.cls-304{fill:#795b38;}.cls-305{fill:#c6c0ad;}.cls-306{fill:#d8d3bf;}.cls-307{fill:#9e814f;}.cls-308{fill:#bfa87a;}.cls-309{fill:#d2c49e;}.cls-310{fill:#e6e0ce;}.cls-311{fill:#916e40;}.cls-312{fill:#362817;}.cls-313{fill:#291e11;}.cls-314{fill:#4d3f2a;}.cls-315{fill:#877d68;}.cls-316{fill:#a2895e;}.cls-317{fill:#c5c1b7;}.cls-318{fill:#554632;}.cls-319{fill:#dfd9c5;}.cls-320{fill:#785a37;}.cls-321{fill:#a4804a;}.cls-322{fill:#69553a;}.cls-323{fill:#473a28;}.cls-324{fill:#ddd8c5;}.cls-325{fill:#cfccbe;}.cls-326{fill:#bebbb0;}.cls-327{fill:#d9d5c8;}.cls-328{fill:#cac7bb;}.cls-329{fill:#cdc7b4;}.cls-330{fill:#ddd7c2;}.cls-331{fill:#625039;}.cls-332{fill:#e9e2ca;}.cls-333{fill:#493926;}.cls-334{fill:#866d4c;}.cls-335{fill:#5b4b37;}.cls-336{fill:#7c5e3a;}.cls-337{fill:#62492b;}.cls-338{fill:#a17e4a;}.cls-339{fill:#e0d9c6;}.cls-340{fill:#846b4b;}.cls-341{fill:#c9c3b2;}.cls-342{fill:#d1cbb9;}.cls-343{fill:#d8d2bf;}.cls-344{fill:#d6d0bb;}.cls-345{fill:#e3dcc6;}.cls-346{fill:#846d4c;}.cls-347{fill:#e3dcc5;}.cls-348{fill:#e8e4d6;}.cls-349{fill:#ece5cc;}</style></defs><g id="Layer_2" data-name="Layer 2"><g id="Layer_11_Image" data-name="Layer 11 Image"><path class="cls-1" d="M104.19.07c26,0,52,0,78-.07,2.5,0,3.07.56,3.06,3.07-.1,27.66-.06,55.32-.06,83a1.05,1.05,0,0,1-1.39,0c-1.3-1.23-1.56-2.86-1.8-4.53-4.89-35.17-24.56-58.69-56.84-72.38A63.26,63.26,0,0,0,111.7,5.52c-2.3-.26-4.66-.32-6.57-1.9C104.21,2.6,103.54,1.5,104.19.07Z"/><path class="cls-2" d="M112.16,4.11c13.92,2.41,26.23,8.47,37.17,17.15A92.41,92.41,0,0,1,179.6,63.85c2.56,7.27,3,14.78,4.73,22.11a1.59,1.59,0,0,1,.09,1.41,76.68,76.68,0,0,0-.13,11.74,4.58,4.58,0,0,0,.89,1.94v1c-2,2,.21,5.35-2.28,7.21-2.6-1.07-1.8-3.43-2.06-5.38-.4-1.2,1.5-3.5-2-3.28-1.12.07-2.38-2-3-3.6.1-1.77,1.59-2.37,2.72-3.27a5.87,5.87,0,0,0,2.14-5.8c-1-8.22-2-16.46-5.15-24.22a58.35,58.35,0,0,0-6-13.35,6.82,6.82,0,0,1-.87-1.06,9.4,9.4,0,0,1-.84-1.86,22.85,22.85,0,0,0-3.28-5.63,24.93,24.93,0,0,0-2.19-2.41c-2.27-2.69-4.28-5.62-7-7.91-5.12-4.58-10.33-9-16.35-12.46-1-.53-1.85-1.34-2.82-2-.42-.22-.83-.45-1.24-.68a128.25,128.25,0,0,0-22-8.64c-1.5-.4-3.4-.36-4-2.36C109.6,3.91,111.33,5.11,112.16,4.11Z"/><path class="cls-3" d="M104.19.07c.33.94.67,1.88,1,2.83a2.28,2.28,0,0,1-2,.86,11.59,11.59,0,0,1-1.55-.23c-6.66-.2-13.32-.2-20,0a1.86,1.86,0,0,1-1.42-.69c.33-.94.67-1.88,1-2.81Z"/><path class="cls-3" d="M183,109c.87-2.26-1.15-5.43,2.17-6.93v9h-2A1.55,1.55,0,0,1,183,109Z"/><path class="cls-4" d="M184,87.12c.11-.39.22-.77.32-1.16a2,2,0,0,1,.85.09v15L184,100A53.71,53.71,0,0,1,184,87.12Z"/><path class="cls-5" d="M67.16,4.92c2.14.7,4-1,6.1-.7,1.23.94,3.07-.43,4.15,1.09-1,2.68-3.5,2.54-5.61,3a38.37,38.37,0,0,0-5.09,1.55c-2.62,1.17-5.54,1.52-8.09,2.9-2.92,1.3-5.74,2.84-8.77,3.89a10.38,10.38,0,0,0-2.28,1.27,53.19,53.19,0,0,1-6,4.15,28.91,28.91,0,0,0-7.72,6.24,13.16,13.16,0,0,1-1.42,1.47c-3.57,2.78-7.28,5.4-9.32,9.65-1.17,3-3.46,5.36-5.23,8a35,35,0,0,0-4,6.24c-1.51,2.25-1.72,5.41-4.66,6.66a2.43,2.43,0,0,1-1.58-1.42,8,8,0,0,1,1.41-4.86q3.52-6,7.06-12a48.23,48.23,0,0,1,11.71-14l1.29-1.25c1.48-1.75,2.74-3.72,4.92-4.75s3.43-3.67,6.08-4.14a7.47,7.47,0,0,1,4.12-2.79L46.2,13.9c1.33-1.66,3.31-2.08,5.17-2.74.62-.39,1.23-.79,1.84-1.19a8.77,8.77,0,0,1,5-1.85l.06,0c.71-1.14,2-.39,2.94-1l.07,0A9,9,0,0,1,67.16,4.92Z"/><path class="cls-6" d="M35.2,166l-1-1A35.72,35.72,0,0,1,24.31,155l0,0c-1.26-.72-2.5-1.44-2.84-3L19,149c-1.63-.85-1.85-2.69-2.84-4l-.7-1c.12-1.12.14-2.31,1.76-2.26a5.15,5.15,0,0,1,2.17,1.58,9.76,9.76,0,0,1,.84,1.08c5.95,6.47,11,13.79,18.37,18.88a56.74,56.74,0,0,0,7,5A22.78,22.78,0,0,0,50.25,171c4.5,2.56,9.4,4.2,14.13,6.23,2.33.72,4.71,1.24,7,2,1.65.94,4.32.06,5,2.79-.84,1.27-2.27,1.15-3.5,1.51a50.18,50.18,0,0,1-17.54-5.59h0a21.42,21.42,0,0,0-4.12-1.77l-1.88-1.38c-1.29,0-2-1.19-3.11-1.57-.8-.21-1.74-.14-2.13-1.12C40.82,170.49,38.08,168.14,35.2,166Z"/><path class="cls-7" d="M150.93,164.92l-2.8,2c-1.59,2.76-4.38,3.84-7.09,5l-10.95,5.9c-1.62,1.77-3.83,1.81-6,2h0a14.63,14.63,0,0,1-10,3l-1.94.07c-1.22-1-3.1.45-4.18-1.11,1.82-3.69,5.66-2.48,8.55-3.55,2.93-3.87,8-1.5,11.42-3.88a30.46,30.46,0,0,0,5-2c2.57-1.28,5.31-2.26,7.51-4.2,5.67-4.2,11.42-8.29,16.13-13.63,1.07-.95,2.1-2,3.69-2a1.79,1.79,0,0,1,1.46,1.41c-1.35,3.75-4.38,5.95-7.49,8.07l0,0C153.68,163.67,152.39,164.4,150.93,164.92Z"/><path class="cls-8" d="M161.24,154.14,160,153a3,3,0,0,1,.35-2.62,4.68,4.68,0,0,1,.84-1c1.68-1.13,2.47-2.92,3.4-4.6,1.28-2,3-3.77,3.47-6.19a6.51,6.51,0,0,1,1.63-2.95,18.56,18.56,0,0,0,5.13-9.32,30.77,30.77,0,0,1,1.45-4.91c2.25-5.22,3-10.79,3.76-16.35.36-1,.62-2.14,2.08-2,.33,2-.7,4.16.86,6,.07.69.13,1.38.2,2.06l-.39,1.87a4,4,0,0,1-.7,4.08v0c-.73,1.63-1.19,3.37-1.87,5a.43.43,0,0,0-.23.62c.12,4-2.48,6.92-3.93,10.3l0,0A4.05,4.05,0,0,1,174.3,136a1.25,1.25,0,0,0-.3.92,3.38,3.38,0,0,1-1.9,3l-3,4.83a12.09,12.09,0,0,1-4.6,6.2L164,152C163.64,153.39,162.92,154.36,161.24,154.14Z"/><path class="cls-9" d="M2,111.08l0-1c-1.88-2.13.32-4.75-.83-7v0a2.23,2.23,0,0,1-.26-2.2C1.8,99.25.06,96.37,3.33,96c1.85,2.17.77,4.94,1.52,7.33A7.74,7.74,0,0,1,5,104.72c-.23,1.83-.5,3.67.54,5.38,1,7.35,4.68,13.7,7.53,20.36.65,2.14,2.06,4,1.9,6.43-.37,1.34-1,2.41-2.64,2.14l-3.2-6c-1.33-3.54-3.86-6.64-3.94-10.65C3.46,120.61,4.34,117.94,3,116A11.21,11.21,0,0,1,2,111.08Z"/><path class="cls-3" d="M105.18,185a4.75,4.75,0,0,1-3.83,2q-8.66.1-17.33,0a4.73,4.73,0,0,1-3.82-2,4.75,4.75,0,0,1,4.09-1.31C91.25,184.23,98.37,182.16,105.18,185Z"/><path class="cls-10" d="M7.83,58.92l1.39,1.15c1.51,3.29-1.53,5.75-1.58,8.75C7,72.17,7.52,76,4.13,78.3c-2.39-.5-1.78-2.43-1.9-4A7.67,7.67,0,0,1,3,71.07l.2-1a22.69,22.69,0,0,0,2-6.9C5.47,61.43,5.82,59.64,7.83,58.92Z"/><path class="cls-3" d="M55.34,177.88c6.08,1.26,11.56,4.64,17.88,5a4.92,4.92,0,0,1,4.84.61,1.43,1.43,0,0,1,.33,1.34c-7.71,0-14.82-2.7-22-5C55.44,179.58,55.33,178.74,55.34,177.88Z"/><path class="cls-5" d="M80.19,2.88a1.57,1.57,0,0,0,.88.14,116.06,116.06,0,0,1,22.21,0h0a1.61,1.61,0,0,1-.33,2.32c-8,.32-16-.13-24,.59-1-.54-1.82-1.35-2.81-1.9C77.07,2.27,78.88,3.48,80.19,2.88Z"/><path class="cls-5" d="M78.39,184.87a3.53,3.53,0,0,0-.36-.76c1.49-1.73,3.55-1.39,5.47-1.45,5.55-.17,11.11.25,16.65-.27a7.09,7.09,0,0,1,1.72-.13c2.11.59,4.57,0,6.34,1.78-.76,1.11-2.1.38-3,1h-25Z"/><path class="cls-3" d="M27.91,28.06q-5.85,7-11.71,14C18.27,35.85,21.93,31,27.91,28.06Z"/><path class="cls-3" d="M7.83,58.92C5.1,62.14,6.42,67.05,3.21,70.08c.88-5.75,1.31-11.66,5.93-16C9.61,55.92,8.2,57.28,7.83,58.92Z"/><path class="cls-3" d="M161.24,154.14,164,152c2.35,2.58-1.11,3-1.85,3.8-2.22,2.5-3.56,6.43-7.93,6.26Z"/><path class="cls-3" d="M24.31,155c3.24,3.4,7.19,6.12,9.88,10.06C30,164.09,24.38,158.41,24.31,155Z"/><path class="cls-3" d="M3,71.07,3.18,74c-.9,1.56-.46,3.14-.07,4.73.48,2,.68,3.91-1.15,5.39L1.14,84C-.14,79.42-.39,75,3,71.07Z"/><path class="cls-3" d="M1.33,100.93c-.05.71-.09,1.41-.14,2.11a39.52,39.52,0,0,1-.05-19l.11.07a3.66,3.66,0,0,1,1.2,2.44C3.05,91.4,2,96.15,1.33,100.93Z"/><path class="cls-3" d="M5.2,122.38C6.38,126,8.85,129.1,9.14,133,6.93,129.81,3.58,127,5.2,122.38Z"/><path class="cls-3" d="M176.08,133l3.93-10.3C181.75,127.24,178.61,130,176.08,133Z"/><path class="cls-11" d="M12.34,139,14.23,137a1.21,1.21,0,0,1,1.24-.15,4,4,0,0,1,1.6,2.09c.28,1.05.81,2.1.07,3.17L15.5,144Z"/><path class="cls-3" d="M35.2,166c3.57,1.13,6.25,3.57,8.89,6.05C39.75,172.05,37.58,168.88,35.2,166Z"/><path class="cls-12" d="M108.21,184c-2-.47-4.21.69-6-.95,1.54-2.64,3.58-2.67,5.92-1.15,1.36.27,2.94-.42,4,1Z"/><path class="cls-3" d="M114.1,182.84l10-3C121.29,182.67,118.4,185.15,114.1,182.84Z"/><path class="cls-3" d="M141,172l7.09-5C147,170.3,144.88,172.37,141,172Z"/><path class="cls-3" d="M1.2,103.07c1.81,2.14.65,4.64.83,7C-2,108.17,1.37,105.41,1.2,103.07Z"/><path class="cls-3" d="M164.47,151l4.6-6.2C169.77,148.57,167.45,150.05,164.47,151Z"/><path class="cls-3" d="M34.12,22.06c-1,2.22-2.91,3.55-4.92,4.75C29.85,24.21,30.67,21.77,34.12,22.06Z"/><path class="cls-3" d="M124.11,179.88l6-2C129,181.29,126.75,181.11,124.11,179.88Z"/><path class="cls-3" d="M67.16,4.92,61.26,7.1C62.75,5.09,64.29,3.2,67.16,4.92Z"/><path class="cls-3" d="M2,111.08c.65,1.58,1.6,3.11,1,4.94C1.08,114.7.5,113.1,2,111.08Z"/><path class="cls-3" d="M44.32,15.13c-.93,1.58-2.59,2.09-4.12,2.79C40.74,15.75,41.42,13.81,44.32,15.13Z"/><path class="cls-3" d="M58.19,8.12c-1.55.91-3,2-5,1.85C54.4,8.08,55.64,6.34,58.19,8.12Z"/><path class="cls-3" d="M16.2,145.05c1.82.71,2.19,2.45,2.84,4C15.86,149.29,16.19,147.06,16.2,145.05Z"/><path class="cls-3" d="M150.93,164.92a7.7,7.7,0,0,1,3.22-2.87C155.51,165.73,152.79,164.84,150.93,164.92Z"/><path class="cls-3" d="M51.37,11.16c-1.55,1.23-3.11,2.46-5.17,2.74C47,11.16,49.14,11.12,51.37,11.16Z"/><path class="cls-3" d="M182.12,117c.19-1.37-.35-2.86.7-4.08C185.15,114.71,184,115.91,182.12,117Z"/><path class="cls-3" d="M180.24,122c0-1.91.26-3.71,1.87-5A5.64,5.64,0,0,1,180.24,122Z"/><path class="cls-3" d="M21.44,151.93l2.84,3C22.63,154.6,20.45,154.76,21.44,151.93Z"/><path class="cls-3" d="M172.1,140l1.9-3C175,139,174,139.76,172.1,140Z"/><path class="cls-3" d="M46.22,173.17c1.39-.18,2.24.7,3.11,1.57C47.14,176.51,47.22,173.75,46.22,173.17Z"/><path class="cls-13" d="M76.08,4a2.44,2.44,0,0,1,2.11,1.06.59.59,0,0,1-.85.08c-1.34-.38-3,.37-4.08-.94Z"/><path class="cls-3" d="M61.19,7.13c-.75,1-1.88.89-2.94,1C58.45,5.35,59.92,6.55,61.19,7.13Z"/><path class="cls-3" d="M51.21,176.12c1.81-.42,3.06.45,4.12,1.77A5,5,0,0,1,51.21,176.12Z"/><path class="cls-3" d="M174.3,136l1.76-3.07C177.3,135.05,176.33,135.85,174.3,136Z"/><path class="cls-14" d="M103.25,4.87V3l1.94-.11,7,1.21c-.76,1.18-2,.89-3.12,1.06-1.17,1.18-2.62,1-4.08.88a4.07,4.07,0,0,1-1.32-.57Z"/><path class="cls-15" d="M104.11,5.18H109c9.32,3,18.77,5.65,27.29,10.68-2.88,1.72-6.44,2.76-6.84,6.92a1.14,1.14,0,0,1-1.78-.24c-.77-2.08-1.54-4.15-4.08-4.69-3.58-.64-7-2.07-10.73-2a4.76,4.76,0,0,1-5-3.45,1.94,1.94,0,0,1,1-1,4.65,4.65,0,0,1,2.16-.13c1.93.3,3.86,1,6.44-.06-3-2.52-6.56-1.69-9.44-2.87a8.1,8.1,0,0,1-3.87-1.81A1.24,1.24,0,0,1,104.11,5.18Z"/><path class="cls-16" d="M139.18,18.08c6.72,3,11.89,7.94,17,13-1.28,1.25-2.76-.11-4.16.26-.57,1.92,2,3,1.25,4.85a2.44,2.44,0,0,1-1.3.49c-4.52-.93-6.53-5.17-9.89-7.64-2.07-1.52-4-3.32-6.11-4.8a4.3,4.3,0,0,1,.76-4C138.11,20.11,139.13,19.65,139.18,18.08Z"/><path class="cls-17" d="M176.21,63.06c3.66,5,3.48,11.16,4.9,16.83a50.25,50.25,0,0,1,1,8.78c.17,2.59-.51,4.92-2.94,6.37a2,2,0,0,1-.67-1.81c.65-1.9-.8-3.42-.93-5.18a3.44,3.44,0,0,1,.42-1.29c1.55-4.49-.38-8.47-1.5-12.79-1.95,1.11-.59,3.91-2.95,4.27-2.74-2.8-1.74-6.36-2-9.67,1.41-2.23.93-5,2.18-7.3C176,60,175.28,62.61,176.21,63.06Z"/><path class="cls-18" d="M182.15,103c-.33.69-.67,1.38-1,2.07-1.22,1.58-1,3.64-1.87,5.4-.91,2-2.09,2.73-4.15,2-2.61-1.73-1.23-4.25-1.3-6.48a35.35,35.35,0,0,0-.3-7.41,3.5,3.5,0,0,1,.33-2.18c1-.93,1.75-.43,2.33.56,1.26.74,2.82,1.15,3.24,3.29,1.3-1.08.16-3.07,2-3.84C182.77,98.52,181.9,100.86,182.15,103Z"/><path class="cls-19" d="M153.18,36.06c-.07-.14-.14-.29-.22-.43-1-1.74-4-3.13-2.77-5.07,1.55-2.45,3.95.38,6,.48,3.06,2,5,5,7,8-.48,3.25-2.35,4.43-5,2.81C156,40.48,153.92,38.8,153.18,36.06Z"/><path class="cls-20" d="M165.19,41A17.71,17.71,0,0,1,169,47.14a2.29,2.29,0,0,1-1.21.53c-1.54-.16-3.08-.38-4.45.63a12.35,12.35,0,0,1-3.27,0,18,18,0,0,0-3.55-1.6,3.21,3.21,0,0,1-2-3.38c.65-1.52,1.28-3.29,3.42-1.83C160.57,43.25,162.87,42.32,165.19,41Z"/><path class="cls-21" d="M165.19,41c-1,4-3.86,2.79-6.12,1.76-1.63-.74-2.79-1.18-4,.33-2,.24-2.82-1.08-3.43-2.66,0-1.48-.18-3,.57-4.39h1c1.47,1.31,3,2.58,4.42,3.94,2.34,2.21,4.22,2.12,5.61-1Z"/><path class="cls-22" d="M176.21,63.06l-2-2c-3.52-1.85-5.25-5-6.31-8.64a7.87,7.87,0,0,1,2.26-3.25C173.12,53.37,175.46,57.86,176.21,63.06Z"/><path class="cls-23" d="M129.26,23c-.06-6.17.36-6.61,7.07-7.14a1.75,1.75,0,0,1,.8.41c.89.93.38,1.63-.36,2.29-1.14.65-2.49.56-3.66,1.1a4.52,4.52,0,0,0-1.35,1.15c-.6.82-.85,1.92-1.89,2.38Z"/><path class="cls-24" d="M176.18,97l-2.05-.88-.69-.1c-.85-.5-2-1.73-.93-2,2.24-.59,3.79-2.93,6.38-2.41a1.06,1.06,0,0,1,.45,1.2L179.19,95Z"/><path class="cls-25" d="M135.91,18.26a2,2,0,0,0,1.22-2l2.05,1.82c.21.43.45.85.63,1.29.42,1.07.83,2.61-.25,3-1.85.7-1.07-1.93-2.25-2.36A1.55,1.55,0,0,1,135.91,18.26Z"/><path class="cls-26" d="M184,87.12V100A20.63,20.63,0,0,1,184,87.12Z"/><path class="cls-27" d="M168.07,47.13c.31,0,.63,0,.94,0,.1.6.19,1.2.29,1.8.44.83,0,1.28-.71,1.61a2.77,2.77,0,0,1-1.37-.06,2.31,2.31,0,0,1-1.33-2.19C166.27,47.27,167.36,47.56,168.07,47.13Z"/><path class="cls-28" d="M168.1,50.12l1.2-1.18.83.22c.08,1.41.1,2.78-1.87,2.84A1.27,1.27,0,0,1,168.1,50.12Z"/><path class="cls-29" d="M103.28,3H81.07A49.42,49.42,0,0,1,103.28,3Z"/><path class="cls-30" d="M58.16,12c2.22-2.11,5.31-1.9,7.92-3,6-1.15,11.88-3.21,18-3.84,2.25-.23,4.57-.72,6.41,1.22A3.23,3.23,0,0,1,90.76,8c-.58,2.13-1.32,4.37-3.93,4.44-9.32.23-18.06,3.21-27,5.33C55.21,15.61,55.12,15.32,58.16,12Z"/><path class="cls-31" d="M90.18,7C86,4.59,81.67,5.82,77.52,7A54.54,54.54,0,0,1,66.08,9C69.32,6.22,74,7.62,77.34,5.16a1.45,1.45,0,0,0,.85-.08C83.13,5,88,3.79,93,4.07c3.44.19,6.91-.16,10.29.8l-.14.36c.41.47-.34,1.17.14,1.46.32.19.69-.43,1-.72l3.92,1.1c.81,1.76,4.41,1.84,3,5h-1.94c-3.54-.24-7.1-.29-10.56-1.2C96.5,8.1,93.5,7.21,90.18,7Z"/><path class="cls-32" d="M17.22,47.08l5-8c2-2.56,3.8-5.4,7.13-6.54,2.55,1.24.95,3.32,1.05,5.07A10.86,10.86,0,0,1,30.22,39a7.62,7.62,0,0,1-.42,1.33c-1.95,3.48-3.84,7-4.58,11-2.68.82-4.11-2-6.44-2.19C17.93,48.72,16.89,48.41,17.22,47.08Z"/><path class="cls-33" d="M17.22,47.08c.45.88,1.31.94,2.14,1.08a3.18,3.18,0,0,1-.47,2.4,6.29,6.29,0,0,0-.45,3.06c.61,3.33-.29,6.4-1.51,9.43a4.11,4.11,0,0,1-2.39,2.47c-3.35-.33-3.07-2.82-2.89-5.09.13-1.61,1.13-3.06,1-4.74.1-.88-.16-1.83.44-2.62C14.66,51.19,14.9,48.42,17.22,47.08Z"/><path class="cls-34" d="M29.2,38.06c-.74-1.67,1.89-3.42-.12-5.05-.44-2.43,2.73-2.15,3-4l1-1.05c2.17-1.23,3.5-3.75,6.26-4.07a7,7,0,0,1,2.21,4.38c-.27,2.33-1.89,3.39-3.94,3.82-1.77.37-3.08,1.06-3.39,3a5,5,0,0,1-.67,1.24C32.26,37.26,31.16,38.71,29.2,38.06Z"/><path class="cls-35" d="M58.16,12c-2,2.18-1.16,3.76,1.05,5.06-1.13,2.34-3.2,2.65-5.46,2.57a2.19,2.19,0,0,1-1.07-.85C52.08,17,49.85,17.35,49,15.9Z"/><path class="cls-36" d="M13.13,53.07v3c-.57,3.71-2.46,7-3.2,10.71a3.67,3.67,0,0,1-1.43,1.64,2,2,0,0,1-2.11-.14l2.82-8.17C10.53,57.74,11.83,55.4,13.13,53.07Z"/><path class="cls-37" d="M32.1,29c.31,2.33-2.58,2.26-3,4l-6.82,6.11C24.1,34.34,28,31.59,32.1,29Z"/><path class="cls-37" d="M39.22,24.15c-2.22,1-3.55,3.41-6.15,3.78a18.59,18.59,0,0,1,8.19-6.79,1.73,1.73,0,0,1,.46,1.26C41.31,23.59,40.73,24.54,39.22,24.15Z"/><path class="cls-38" d="M49,15.9c1,1.35,4.68-2,4,2.31a1.88,1.88,0,0,1-1.13.31,5.71,5.71,0,0,0-3.39.85l-.63.11a1.53,1.53,0,0,1-1.07-.63A1.74,1.74,0,0,1,47.16,17C47.46,16.14,48.25,16,49,15.9Z"/><path class="cls-35" d="M47.16,17c0,.68.07,1.36.1,2-1.4,2.16-3,4-5.94,3.08l-.06-1Z"/><path class="cls-39" d="M17.14,142.06c-.31-1-.61-2-.91-3.05.63-.94-.17-2.28.84-3.12a1.62,1.62,0,0,1,1.31,0,4,4,0,0,1,.76,1.12c2.06,4.77,5,.14,7.43.69a2.12,2.12,0,0,1,1.4,2.21c-.28,6.29,6.71,16.38,12.53,18.36,2.15.73,3.7-1.26,5.69-.82a16.15,16.15,0,0,1,5.2,2.38c.9,2.19-.51,3-2.18,3.63-1.45-.07-2.73,1.19-4.25.57-2.26-.33-4.52,1.43-6.79,0-7.87-5.22-13.59-12.46-19-20,.6-.57,1.37,0,2.05-.3a1.65,1.65,0,0,0-2.06.29Z"/><path class="cls-40" d="M71.14,180.09a16.84,16.84,0,0,1-7-2c-3.39-1.2-3.75-3.6-2.64-6.59,2.11-2.21,4.4-.83,6.45-.07,3.92,1.46,8,2.19,12.14,3.26-.28-1.3-3.22-1.06-1.62-3.12,3.28-1.46,6.35-.79,9.33.86,1.37,1.48.61,2.92-.09,4.35-3.46,1.7-7,2.79-10.87,1.32-1.73-.65-3.18-.65-3.71,1.72C73,180.78,71.92,180.56,71.14,180.09Z"/><path class="cls-41" d="M71.14,180.09c2-4.25,2.11-4.66,7.63-2.54,3.18,1.22,5.47-2.88,8.31-.49a2.51,2.51,0,0,1,.94,1.65c3.44,6.34-2.84,3.4-4.59,4.8-2.39-.5-5,.21-7.14-1.57C75,180.21,72.45,181.86,71.14,180.09Z"/><path class="cls-42" d="M62.18,171.05c.09,2.5-.57,5.21,2,7-5.3-1.27-10-3.87-15-6.09,1-3.76,5.11-2.21,7.11-4.25C58.34,168.73,61,168.53,62.18,171.05Z"/><path class="cls-43" d="M76.29,181.94l8,1c3.61-.41,7.14-1.47,10.82-1.33,2.12.13,4.42-.43,6.07,1.55-5.48,1.8-11.11.45-16.66.8-2.15.14-4.3.09-6.45.12l-4.81-1.19C74,181.79,75.21,182.09,76.29,181.94Z"/><path class="cls-44" d="M38.17,164.07c1.82-1.37,4.67.43,6.32-2.14.29-.46.44,1.42.76,2.19,1.14,1.52,2.29,3,2,5.13a1.83,1.83,0,0,1-2-.19C42.69,167.61,40,166.47,38.17,164.07Z"/><path class="cls-45" d="M45.18,169.06l2,0c1.46.79,1.46-.53,1.85-1.28a4.17,4.17,0,0,1,1.09-.61c1.26-.26,2.26-1.11,3.47-1.48,1.34.28,2.83.39,2.59,2.38-1,3.58-5.22,1.59-7,3.92Z"/><path class="cls-46" d="M128.32,175.13c-2.4.64-4.16,5-7.45,1.28-.17-.19-1.1,3.52-3.68,2.62-1.56-.91-3.36-1.64-3-4,.47-.66,1.49-.63,2-1.65-1.92-.32-1.49,1.86-2.55,2.25-5.06,2.05-10.14,3.73-15.46.79-1-1-1.55-2.13-.92-3.56,2.09-2.6,5.35-1.74,8-2.72a27.31,27.31,0,0,1,4.51-.5,49.36,49.36,0,0,0,9.8-2.46,8.57,8.57,0,0,1,2.75-1,3.44,3.44,0,0,1,2,.49c1.17,1.53,2.17,3.18,3.92,4.23C130.36,172.21,129.47,173.71,128.32,175.13Z"/><path class="cls-47" d="M98.21,176c5.46,1.78,10.65-.68,16-1h0c.4,1.77,3.08,1.85,3,4-2.67,2.07-6.54.39-9.06,2.91-2,.13-4.13-.2-5.92,1.15l-1.07.1-5.94-.27a1.1,1.1,0,0,1-.32-.79c0-.3,0-.45.08-.45.85-1.51,2.05-2.89,1.82-4.81C97,176.2,97.34,175.64,98.21,176Z"/><path class="cls-48" d="M157,155.08c-4.17,5.89-10,9.89-16,13.61-1.51.95-1.5-.55-1.74-1.22-.46-1.25-.8-2.49-2.38-2.72a3.15,3.15,0,0,1-2.06-1.72,1.73,1.73,0,0,1,.34-1.3c1.23-1.69,5.87.52,4.6-4a4.33,4.33,0,0,1,3.23-3.52c1.48-.26,3.24-.53,4,1,1,2.06-1.51,3-2,4.76,1.62-2.87,5.79-1.15,7.3-4.25C153.7,154.12,155.23,153.53,157,155.08Z"/><path class="cls-49" d="M157,155.08c-1.54.11-3.47-.61-3.93,1.82-2.06,1.56-2.87-.14-3.62-1.5a35,35,0,0,1-1.56-4c1.13-4.53,4.18-7.5,8-9.89,3.63.7,2.75,3.09,1.88,5.32-.72,1.84-2.4,3.06-3.73,4.69,2.8.6,4.54-2.52,7.16-1.46-.38,1-.77,2-1.15,2.95Z"/><path class="cls-50" d="M128.32,175.13c.67-3.83-5-4.41-4.25-8.29.12-.85.56-1.15,1.38-.81,2,2.06,5,1.58,7.34,2.68a2.5,2.5,0,0,1,1.23,1.67,3.26,3.26,0,0,1-.72,2.73A7.52,7.52,0,0,1,128.32,175.13Z"/><path class="cls-51" d="M133.3,173.11c0-1,0-2.08-.05-3.12a5.17,5.17,0,0,0,1.69-2.23c.12-.39.26-.76.41-1.13a5.09,5.09,0,0,1,1.79-2.49c1.75-1,3.07-1.2,3.08,1.5,0,1.05-.48,2.32.83,3.05C139.16,171.38,136.07,172,133.3,173.11Z"/><path class="cls-52" d="M161.2,150a27.2,27.2,0,0,1-9.8,3.71c.48-2.89,2.94-3.8,4.15-5.6s3.8-3.78.58-6.15c-1.22-3.14,1.42-4.8,2.68-7a1.84,1.84,0,0,1,1.32-.21c1.39,1.29,1.49,3.65,3.6,4.35,1.84,1.43,3.57-1.57,5.41-.15a10,10,0,0,1-3.9,6.06c-1.82,1.3-2.6,3.44-4.06,5Z"/><path class="cls-53" d="M175.19,112c2,.27,2.8-.79,3.37-2.57.51-1.6.53-3.63,2.58-4.37-.44,5.86-1.12,11.66-3.95,17-2.39-.32-4.81,1.07-7.18-.12-.93-2.08,1.1-3.33,1.4-5.07C172.21,114.9,173,112.89,175.19,112Z"/><path class="cls-54" d="M176.07,126.89c-1.36,3.43-2.15,7.22-5.83,9.17-1.57-1.21-1.17-3.31-2.18-4.78-1.45-3.32-1.21-6.25,2-8.49C173.49,122,175.62,123.22,176.07,126.89Z"/><path class="cls-55" d="M169.22,131c1.62,1.43.75,3.37,1,5.07-.37,1-.74,1.95-1.1,2.92-2,.18-3.43,3.76-6,1.06.91-.4,1-1.11.71-2a3.68,3.68,0,0,1,1.52-1.74,6.07,6.07,0,0,0,2.07-2c.59-1.11,0-2.44.63-3.53A.84.84,0,0,1,169.22,131Z"/><path class="cls-56" d="M176.07,126.89a6.62,6.62,0,0,0-5.87-3.81l-.31-.3v-.42l.3-.3c2.33-.56,4.66-3,7,0C176.81,123.67,176.44,125.28,176.07,126.89Z"/><path class="cls-49" d="M161.18,150.07c-.12-2.87,1.11-4.64,4.06-5C164.58,147.27,164.17,149.71,161.18,150.07Z"/><path class="cls-57" d="M12.27,131a61.25,61.25,0,0,1-7.78-21c.41-3.75,2.06-4,4.76-1.78a15.94,15.94,0,0,1,5,7.66c1.63,3.54,3.23,7.09,3.65,11S16.55,132.28,12.27,131Z"/><path class="cls-58" d="M13.19,116.06a32.32,32.32,0,0,0-4.62-6.87c-2.62-3.18-3-.37-4.08.88-1.75-1.75-1.15-3.44.13-5.11.15-1.08-.47-2.27.44-3.25a4,4,0,0,1,2.57-1.08,4.44,4.44,0,0,1,3.28,2.68A16.86,16.86,0,0,0,15,112.46c1.26,1.4,2.31,3.19,1.56,5.33C14.44,119.14,14.14,117,13.19,116.06Z"/><path class="cls-59" d="M13.19,116.06l3.14,1.9a1.47,1.47,0,0,1,1.35.57,5.31,5.31,0,0,1,.73,2.19c-.25,3.55,1.66,7,.71,10.56a5.32,5.32,0,0,1-1,1.83c-1.76.77-.17,4.07-3,4a2.24,2.24,0,0,1-.85-.19c-.2-2.12-2.19-3.65-2-5.92,3.78.22,5.27-.66,4.25-5.15C15.74,122.41,13,119.73,13.19,116.06Z"/><path class="cls-60" d="M10.1,103.08l-2.93-2c-1.22-.78-1.53-.63-1.86.89-.23,1-.47,2-.7,3a3.14,3.14,0,0,1-.36-.89c-1.15-2.67-.2-5.49-.59-8.21a2.86,2.86,0,0,1,2.15-3c1.37.52,1.64,1.88,2.26,3C8.76,98.21,11.92,100,10.1,103.08Z"/><path class="cls-61" d="M1.33,100.93a90.8,90.8,0,0,1,0-14.75c3.5,1.24,1.53,4.58,2.62,6.75a3.64,3.64,0,0,1-.82,3C1.45,97.21,3.06,99.67,1.33,100.93Z"/><path class="cls-36" d="M3.13,95.92c0-.91-.07-1.82-.11-2.73l.61-.34c1.1.48,1.31,1.21.59,2.19l0,9C2.13,101.59,3.72,98.61,3.13,95.92Z"/><path class="cls-36" d="M3,93.19c-1.8-2,.33-5-1.69-7,0-.7-.05-1.4-.08-2.1C3.35,81,1,77.07,3.18,74c.36,1.35-.43,3,1,4,2.4,3.18,1,6.82,1.31,10.27-.17,1.79-.55,3.49-2.14,4.62Z"/><path class="cls-62" d="M4.24,89.1l0-11a25.18,25.18,0,0,0,2.2-9.81l1.83-.16C11,72.26,7.36,76,7.37,79.93c-1.14,2.76-.29,5.92-1.7,8.63A1.41,1.41,0,0,1,4.24,89.1Z"/><path class="cls-63" d="M15.08,137.14c2.33-.58-.77-3.73,2-4.12a2,2,0,0,1,.18,3c-.11,1.06.19,2.25-1,2.95Z"/><path class="cls-64" d="M104.26,6c.15.89.84,2-.91,2.08-1,0-2.27-.1-2.37-1.21,0-.47,1.37-1.07,2.13-1.61l1-.05C104.15,5.45,104.2,5.71,104.26,6Z"/><path class="cls-65" d="M108.13,12.13c3.65,4.14,9.21,1.75,13.48,3.87.8.4,2,.12,2.59,1.05a4.39,4.39,0,0,1-3.31,2.81c-3.81-.14-7.23-2.08-11-2.41a23.28,23.28,0,0,1-3.9-.52c-2.72-1.08-6.28.27-8.31-2.84a3,3,0,0,1,.44-3.22C101.56,10.43,104.85,11.23,108.13,12.13Z"/><path class="cls-66" d="M111.17,12c0-2.28-3.35-2.49-3-5,3,1.26,6.61.4,9.5,2.29,1,.64,2.2,1.36,2,2.6-.26,1.57-1.83,1.14-2.88,1.06C114.9,12.87,112.78,13.81,111.17,12Z"/><path class="cls-67" d="M110.15,16.11l11,3c2.63.32,5.49.09,7.06,2.94l1.07.93.15,0a1.29,1.29,0,0,1-.3,1.44,3.9,3.9,0,0,1-2.22.65c-6.31-2.4-13-3.88-18.89-7.36C107.94,16.12,109.64,16.92,110.15,16.11Z"/><path class="cls-68" d="M128.19,22.06l-7.06-2.94c1.07-.63,1.49-2.21,3.07-2.07C127.27,17.34,128.61,19,128.19,22.06Z"/><path class="cls-66" d="M108.13,12.13A34.31,34.31,0,0,1,98.25,11a.66.66,0,0,1,.11-1c3.73.13,7.5,0,10.87,2Z"/><path class="cls-69" d="M152.17,36.07a3.24,3.24,0,0,1,0,4c-1.33.55-2.31-.23-3.06-1.06-3.71-4-8.36-7-12.37-10.68-.2-1.42-2.81-2.53-.56-4.28,5.07.16,7,5,10.4,7.46C148.44,32.87,150.26,34.59,152.17,36.07Z"/><path class="cls-70" d="M136.18,24.06l1.17,4c-1.1.79-2.24.34-3.38.14-1.56-.44-3-1.51-2.14-3.06,1.1-2.08.32-4,.36-6,1-1.31,2.39-.95,3.72-.85l1.4,1.77A6.36,6.36,0,0,1,136.18,24.06Z"/><path class="cls-71" d="M168.1,50.12c.05.63.1,1.26.16,1.88q3,4.53,5.92,9c-.72,2.33,1.73,5.56-2,7l-.67,0c-1.34-1.24-2.58-.93-3.76.27-2.42-3.16-3.47-7-5-10.57.21-1.35,1.72-1.92,2-3.25A26.62,26.62,0,0,0,166.35,51a2.51,2.51,0,0,1,.86-1A5.32,5.32,0,0,1,168.1,50.12Z"/><path class="cls-72" d="M178.16,87.06v1a6.8,6.8,0,0,1-5.19,1.6,2.57,2.57,0,0,1-1.37-.81c-2.75-3.77-.84-8.48-2.56-12.46A10.83,10.83,0,0,1,168,70.62c.46-2.41,1.49-3.89,4.22-2.56h0c1.78,3.11-.07,6.94,2,10C176.17,80.76,176.44,84.23,178.16,87.06Z"/><path class="cls-73" d="M178.16,87.06c-4-1.84-3.54-5.62-4-9,.54-2.25-1.33-6.26,1.38-6.41s2.95,4.08,3.55,6.69c.56,2.38.75,4.84,1.07,7.27C180.39,87.26,179.64,87.69,178.16,87.06Z"/><path class="cls-74" d="M173.24,89.1a6,6,0,0,1,4.92-1c.91,1.45,3.26,2.53,1.18,4.72a1.23,1.23,0,0,0-.3-.71c-1.45-1.3-3.47-.5-5-1.35C173.38,90.36,172.88,89.92,173.24,89.1Z"/><path class="cls-75" d="M175.19,112c-1,1.68-2,3.35-3,5-1.91-3.89.05-8.23-1.45-12.17a1.78,1.78,0,0,1,.67-1.26c2.47-1.07,3,.83,3.75,2.42C175.55,108.05,173.56,110.05,175.19,112Z"/><path class="cls-76" d="M175.17,106.05c-1.11-1-2-2.45-3.85-2-1.89-1.95-.6-3.92-.06-5.9.9-1.58,1.89-1.69,3-.15C176.15,100.53,174.76,103.4,175.17,106.05Z"/><path class="cls-77" d="M174.22,98.05l-2.06-.46c-.33.26-.63.75-1.08.15A1.68,1.68,0,0,1,171,96a2.79,2.79,0,0,1,3.16.08l0,.09Z"/><path class="cls-78" d="M157.18,46.08c1.52-.08,2.92,0,3,2,.6,1.72,1.79,1,2.88.68a5.07,5.07,0,0,1,2.32,2.28c.09,1.35-.93,2-1.78,2.67a6.29,6.29,0,0,1-2.58,1.45c-1.8.26-2.16.77-.64,2a10.44,10.44,0,0,1-3.94,3.61,26.47,26.47,0,0,0-5.91,2.87c-1.17.61-2.24,1.36-3.34,2.08-2.92,1.56-6,2.86-8.67,4.83-1.87,1.08-3.94,1.82-5.73,3.07a17.64,17.64,0,0,1-1.62,1.09,39.84,39.84,0,0,0-5,3c-3,1.38-5.81,3.23-8.68,4.9-1,.53-2,1-3,1.6-1.64,1-3.24,2.09-5.32,1.57a3.92,3.92,0,0,1-2.48-2.49,3.38,3.38,0,0,1-.11-1.38c1-2.89,4.87.27,5.86-2.72,2.18-2.08,5.1-3,7.45-4.83,2.93-1.37,5.47-3.39,8.23-5,5.08-1.79,9.45-4.84,13.83-7.88,5.55-1,9.56-4.86,14-7.84a4.9,4.9,0,0,0,1.42-2C158.34,49.74,156.21,48,157.18,46.08Z"/><path class="cls-79" d="M157.18,46.08c.39,2,3.37,3.62.88,6-4.59-1.2-5.42-6-8.46-8.74-2.76-4.43-7-7.26-11-10.36-1.78-1.38-3.95-2.38-4.87-4.68a1.75,1.75,0,0,1,.47-1.27l3.18.95c5.81,3,9.93,8,14.83,12.06l2.86,3A3.57,3.57,0,0,0,157.18,46.08Z"/><path class="cls-80" d="M163.22,49.21c-1.24.34-1.13,2.86-2.73,2.09-.92-.45-.41-2.08-.26-3.19,1.09-.87,2.2-.58,3.32-.07a.58.58,0,0,1,.86.36C164.26,49,163.94,49.42,163.22,49.21Z"/><path class="cls-81" d="M164.07,48l-.27,0-.26,0c.88-3.45,2.82-1.63,4.53-.91-.42.91-1.31.92-2.1,1.13A1.35,1.35,0,0,1,164.07,48Z"/><path class="cls-82" d="M134.16,27.07v1c-.69.77-1,1.8-1.65,2.6-1.06,1.35-1.74,3-2.81,4.31a3.29,3.29,0,0,1-1.11.69c-2.39.18-2.54,4.5-5.77,3.12-.7-2.1.59-3.57,1.61-5.13,2.39-2.74,4-5.71,2.64-9.49l2.24-.19c1.76-.73,1.13-2.54,1.7-3.8l1.18-1.08c2.41,1.39,2.42,3.12.89,5.25C132.16,25.63,132.06,26.86,134.16,27.07Z"/><path class="cls-83" d="M131,20.19c.13,1.57.94,3.46-1.7,3.8,0-.34.06-.68.1-1Z"/><path class="cls-84" d="M174.17,96l-2.95.06c-3.13.64-6.22-.57-9.35-.16a2.85,2.85,0,0,1-2-.94c-.67-3.3,1.66-3.76,4-4.1,2.08-.3,4.18.26,6.27,0,1.39-.2,2.81-.27,4.19-.57,1.93-.34,3.63-.09,4.73,1.78-2.34-.48-3.22,2.9-5.79,2.24C173,94.25,174.12,95.3,174.17,96Z"/><path class="cls-79" d="M164.07,48l1.9.24L167.21,50l-.06,1.08a1.31,1.31,0,0,1-2,0,1.73,1.73,0,0,1-2-1.85Z"/><path class="cls-85" d="M53.33,19,59.21,17C68,13.92,77,11.16,86.38,11.25c3.08,0,1.86-2.73,3.43-3.32a1.61,1.61,0,0,1,1.15,1,6.51,6.51,0,0,1,.12,3.93c-2.34,4.3-6.74,1.62-10,2.95l-2.81,1a23,23,0,0,1-2.8.71c-2.94.77-5.92,1.36-8.81,2.31-1.09.41-2.14.9-3.19,1.39a10.11,10.11,0,0,1-4.07,1c-1.71-.13-3.39-.53-4.65,1.33-.79,1.17-1.91.79-2.76-.23C51.73,21.63,52.71,20.35,53.33,19Z"/><path class="cls-86" d="M98.36,10c0,.34-.07.67-.11,1,0,1-.06,2.09-.08,3.14-2.39,1.05-4.22,0-4.19-2.26C94,9,92,8.94,90.41,8.14a5.29,5.29,0,0,0-.6-.21A4.64,4.64,0,0,0,90.18,7C93.84,5.42,96.9,5.48,98.36,10Z"/><path class="cls-87" d="M18.07,50c.43-.6.86-1.19,1.28-1.79C22,47.56,22.72,51,25.08,51a1.15,1.15,0,0,1,1.19-.23,4.61,4.61,0,0,1,.94.88,8.68,8.68,0,0,0,3.3,2.83c1.15.64,2.28,1.3,3.42,1.94,3.62,2,7.59,3.48,10.48,6.64A1.64,1.64,0,0,1,44,64.34c-2.32,1.24-4.05-.28-5.91-1.26-5.22-2.76-10.17-6-15.66-8.29C20.51,53.56,18.7,52.28,18.07,50Z"/><path class="cls-88" d="M33,35.8a2.62,2.62,0,0,1,.19-.73c1.87-4,4.31-4,7.17-1-2.34,3.94-4.87,7.69-9.46,9.37-1.65-.63-2.71-1.58-1.86-3.53a1.44,1.44,0,0,1,.22-.78C30.52,38,32.05,37.19,33,35.8Z"/><path class="cls-89" d="M29.08,39.88c0,1.54,1.35,2.13,2.1,3.14-.07,3.69-1.58,6.45-5.06,8l-1,0C23.8,46.33,27,43.32,29.08,39.88Z"/><path class="cls-37" d="M33,35.8a4.19,4.19,0,0,1-3.74,3.3c0-.35-.07-.69-.1-1Z"/><path class="cls-90" d="M9.1,66.87c-.19-4.19,2.73-7.22,4-10.84,1.83,1.38,0,2.5-.27,3.73-.4,2-1.1,4.07,1.38,5.31,1.78,2.67-.11,4.58-1.36,6.63-1.54,1.77-3,2.19-3.85-.51A5.91,5.91,0,0,1,9.1,66.87Z"/><path class="cls-91" d="M16.13,63c.32-3.3,2.34-6.42,1.08-9.89,2.1-.58,3.3.78,4.53,2.1a5.43,5.43,0,0,1,.55,3C21.05,61.52,20.15,65,18.09,68,15.18,67.2,15.59,65.11,16.13,63Z"/><path class="cls-92" d="M16.13,63c.51,1.76.7,3.65,2,5.1l.39.5a2.79,2.79,0,0,1-.16,1.25,11.11,11.11,0,0,1-1.72,2.78A7.9,7.9,0,0,1,15.11,74c-1.11.63-2.23,1.05-3.28-.11a3.32,3.32,0,0,1,.34-2.83c.95-1.91,2.24-3.69,2.08-6Z"/><path class="cls-93" d="M21.19,55.13c-1.75.12-2.6-1.49-4-2.06-.1-1.15-.34-2.33.86-3.12a11.56,11.56,0,0,1,4.15,4.1c-.06.17-.11.35-.16.52A1.54,1.54,0,0,1,21.19,55.13Z"/><path class="cls-37" d="M40.14,34c-2.45-.62-5-1.69-6.91,1-.07-2.24.42-4.06,3.2-4,2.29.08,3.7-1.19,4.81-3l.27-.58c1.06-1.08,1.8-2.49,3.25-3.18a5.58,5.58,0,0,1,5.32,1.16,2,2,0,0,1,.5,1.31,3.19,3.19,0,0,1-1.16,1.76C46,29.74,44.11,33.71,40.14,34Z"/><path class="cls-94" d="M50.06,26c-1.89-.08-3.61-1.37-5.6-.79a29,29,0,0,1-3.24,2.94h0a5.44,5.44,0,0,1-2-4l2.1-2,5.94-3.08v.05C48.3,21.36,51.42,22.73,50.06,26Z"/><path class="cls-95" d="M50.06,26c.17-2.73-4.46-3.48-2.81-6.82a2.06,2.06,0,0,0,.92-.13c1.31-.5,2.35-2.07,4-1a2.52,2.52,0,0,0,.81.19,1.39,1.39,0,0,0,.31.75c1.11,1.75-.54,2.75-1.1,4.05.5,1.07,1.65,1.91,1.15,3.32-.85,1.11-1.83,1.7-3.17.74Z"/><path class="cls-96" d="M12.17,71.05l0,3c-1.2,4.33.43,9.25-2.74,13.18A1.78,1.78,0,0,1,8,87.13c-1.58-2.1-.84-4.78-1.74-7-.46-4.18,2.71-7.77,2-12l.87-1.21a29.18,29.18,0,0,0,.75,4.31C10.64,73.61,11.39,71.17,12.17,71.05Z"/><path class="cls-35" d="M52.21,18l-4,1C49.18,17.28,50.37,16.3,52.21,18Z"/><path class="cls-97" d="M46.06,158.07c-3.58,3.2-6.62,1.67-9.73-.92-4.52-3.76-7.61-8.5-10.22-13.68-.89-1.77.92-2.26,1.1-3.46,1.54-1.08,2.52,0,3.28,1A69.26,69.26,0,0,0,45.4,156C46.05,156.46,46.58,157.14,46.06,158.07Z"/><path class="cls-98" d="M46.06,158.07c-7.47-4.79-12.58-12-18.85-18.06-.07-.78-.11-1.57-1-1.92a2.28,2.28,0,0,1-.47-2.75,1.6,1.6,0,0,1,1.21-.67c4.51,2.07,6.21,6.88,9.71,9.93a21.36,21.36,0,0,0,7,7c2.69,2.81,6.9,3.85,8.85,7.52-.11.79-.42,1.34-1.36,1A6.14,6.14,0,0,1,46.06,158.07Z"/><path class="cls-99" d="M51.12,160.11l1.06-1c.49-4.5,5.28-6.81,5.75-11.32a10,10,0,0,1,.5-2,53.75,53.75,0,0,1,4.42-5.34c1.31-.89,2.35-2.59,4.34-1.51,1.09,1.37.36,2.69-.11,4a33.8,33.8,0,0,1-3,6c-.43.76-.85,1.52-1.31,2.26a10.06,10.06,0,0,1-3.08,3.31c-3,2.47-3.94,6.27-6.26,9.17a4.68,4.68,0,0,1-2.19,2.58c-1.76-.09-3-1.14-4.25-2.23,0-.84.17-1.39,1.17-1.1C49.52,162.43,51.17,162.15,51.12,160.11Z"/><path class="cls-100" d="M26.19,135c0,1,0,2.06,0,3.09-5.64,3.81-6.83,3.64-7.88-1.14,1.52-.52-.25-.58-.13-.9h-1L17,133l1.16-1c1.53-1.31,3.35-1.34,5.21-1.21C25.76,131.24,27.8,131.92,26.19,135Z"/><path class="cls-101" d="M48.14,163l-.77,1.12c1.08,1.16,2,2.37,1.65,4.11.13,1.93-1,1-1.82.81a4.76,4.76,0,0,1-2-4.92C46.3,164,46.29,161.07,48.14,163Z"/><path class="cls-102" d="M19.19,144c.41-2.4,1.89-2.57,3.53-1.4.65.46,1.29,2.21,1,2.51-2,2.11-3-.76-4.53-1.1Z"/><path class="cls-103" d="M18.2,136.05c1.22.29,2.37-1.46,3.57-.15.15.17-.12.94-.39,1.26-1.06,1.21-2.06.29-3.05-.21A5.42,5.42,0,0,1,18.2,136.05Z"/><path class="cls-104" d="M56.2,168l-2.91-2c-1-.84-.53-1.87-.4-2.86,1.72-1.63,3.33-.68,4.93.22a33.77,33.77,0,0,0,5.34,2.51c1.13.43,2.23.93,3.35,1.38a56.89,56.89,0,0,0,8.76,2.8,4.36,4.36,0,0,1,2.9,2.1c.74.29,1.46.63,2.22.88,1.12.37,3.28-.65,3.2,1.21-.1,2.25-2.44,2.05-3.93,1.67-5.86-1.49-11.66-3.21-17.48-4.85C60.44,169.55,57.29,170.82,56.2,168Z"/><path class="cls-105" d="M78.17,172.14,75.25,171c1.22-3.42,4.2-1.84,6.46-2.27a21.17,21.17,0,0,1,7.93,1.59,1.72,1.72,0,0,1,.86,1.27c-.39,1.29-1.38,1.45-2.52,1.35C84.71,172.62,81.51,171.52,78.17,172.14Z"/><path class="cls-106" d="M88,172.9l2.17-1c2.82.48,1.28,2.18,1,3.53-1.24,1.16-.24,4.8-3.77,3.44-.1-.62-.2-1.24-.29-1.86C87.38,175.67,87.68,174.28,88,172.9Z"/><path class="cls-107" d="M87.38,178.92c2.67,0,1.09-3.17,2.85-3.85a1.94,1.94,0,0,1,1.43,1.06,2.65,2.65,0,0,1,0,1.8c-.65.64-.53,1.1.32,1.4.9,1.12,2.39,1.54,3.2,2.76,0,.28,0,.56,0,.83l-11,.05c.38-.28.81-.84,1.14-.79C88.76,182.7,87.65,180.57,87.38,178.92Z"/><path class="cls-108" d="M49,168.22c-.88-1.24-2-2.4-1.65-4.11,1.83-.51,2.69.94,3.81,1.87.57,1.1-.29,1.5-1,2Z"/><path class="cls-109" d="M50.22,168l1-2c.35-1,.69-2,1-3a.78.78,0,0,1,1.2.05L53.29,166C53.07,167.9,51.89,168.3,50.22,168Z"/><path class="cls-110" d="M120.12,168c-3,2-6.65,1.94-10,3-2.29-1.18-4.66-.08-7-.25a2,2,0,0,1-1.2-1c4-3.61,9-2.73,13.7-3.5C117.27,166.57,118.94,166.68,120.12,168Z"/><path class="cls-111" d="M125.28,166.15l-1.21.69-1.89.18c-1.73-.68-3.58,1.72-5.26-.2,2.55-4.14,7.17-4,11.07-5.36a1.91,1.91,0,0,1,1.65,1.42C129.33,165.49,127.77,166.44,125.28,166.15Z"/><path class="cls-112" d="M114.19,175c-.08-.91-2.55-1.32-.64-2.58,1-.67,2.16-1.76,3.55-.76a2.44,2.44,0,0,1,.92,3.06c-1,2.18-2.55-.13-3.82.28Z"/><path class="cls-113" d="M102.09,170l1.28.21c.52.61,1.61.09,2,1-2.51,1.6-5.6.63-8.18,1.88l-.74,0a2.06,2.06,0,0,1-1.58-1.42,1.68,1.68,0,0,1,.74-1.27C97.72,169.36,99.82,168.21,102.09,170Z"/><path class="cls-114" d="M98.21,176l-1,1c.2.5,0,1-.45,1-1.07,0-1.57-.9-2.05-1.73a4.62,4.62,0,0,1-.35-1.42c.2-1.69.65-3,2.79-1.91h0C97.52,174.05,97.86,175,98.21,176Z"/><path class="cls-115" d="M117,166.92c1.7.91,3.47-1.65,5.16.1l-2.06,1c-1.36-.13-2.93.54-4-1l.39-.3Z"/><path class="cls-116" d="M105.36,171.17l-2-1c2.28.21,4.73-1.05,6.8.83Z"/><path class="cls-117" d="M105.43,174.89a2.06,2.06,0,0,1-.41-1c-.08-.94.75-.8,1.33-.78s1.35.18,1.37,1S107,174.94,105.43,174.89Z"/><path class="cls-118" d="M95.14,176.11c.91-.13.81,1.91,2.1,1,2.19,2.84-.48,3.7-2,5-2.11,0-3.86-.45-4-3C92.35,177.9,93.93,177.26,95.14,176.11Z"/><path class="cls-119" d="M129.23,163.08,128.14,162c-1-1.89-1.46-4-2.84-5.73a10.17,10.17,0,0,1-1.68-5.09c.9-2.42-2.14-4.68-.29-7.14,2.52-.25,3.2,1.6,3.9,3.41a16.85,16.85,0,0,0,2.66,6.09c1.1,1.59,1.84,3.43,3.35,4.72a8.22,8.22,0,0,1,1.29,1.41,3.73,3.73,0,0,1,.66,2.4q0,.42,0,.84c1.42,2.21-1,2.14-1.77,3-.24.56-.41,1.14-.66,1.7a1.55,1.55,0,0,1-1,.74C129.4,167.32,129.84,165,129.23,163.08Z"/><path class="cls-120" d="M148.11,151c1.69.19,2.07,1.3,2.07,2.78,0,1.9.8,3.16,2.91,3.17-.52.6-1,1.72-1.55,1.74-3.52.1-6.27,1.16-6.77,6-3.36-4.78.45-6.48,1.81-8.81-1-1.3-2.22-.6-3.28-.73-.86-1.51.68-1.85,1.27-2.66C145.65,151.71,146.53,150.49,148.11,151Z"/><path class="cls-121" d="M145.29,153.1l-2,2-3.42,2.81c-1,2.74-2.8,3.47-5.44,2.28l-1.24-1.1a4.07,4.07,0,0,1,1.93-2.68c2.74-1.43,4.74-4.11,8-4.78A2.88,2.88,0,0,1,145.29,153.1Z"/><path class="cls-122" d="M134.44,160.19c2.23.22,3.72-1.3,5.44-2.28,1.15.22,2.32.45,2.08,2.05a2.16,2.16,0,0,1-1.93,1.91c-1.6.18-3.22.12-4.84.17A1.31,1.31,0,0,1,134.44,160.19Z"/><path class="cls-123" d="M132.3,165.22c0-.91-.16-2.06,1.37-1.17s1.4-.28,1.55-1.17l1.92,1.26c-.33,1-.65,2-1,2.92C133.91,168.47,133.27,166.5,132.3,165.22Z"/><path class="cls-124" d="M145.29,153.1a2.39,2.39,0,0,1-2.1-1c.22-3.44,3.49-4.62,5.29-6.84,3-3.66,5.32-7.92,9.37-10.65a1.81,1.81,0,0,1,1.29.47c.05,2.77-2.63,4.34-3,6.92l-8,9Z"/><path class="cls-125" d="M129.23,163.08c2,1.11,1.4,3.67,2.88,5.06.24.14.35.31.32.51s-.08.32-.15.32c-2.21-1.24-6.37,2.36-7-2.82C126.63,165.17,128.56,164.94,129.23,163.08Z"/><path class="cls-123" d="M132.28,169c-.05-.28-.11-.56-.17-.83s.13-.83.2-1.24c1.39-.06,2.56.64,3.81,1.07-.65,1.11-.57,3.25-2.87,2C132.93,169.65,132.61,169.31,132.28,169Z"/><path class="cls-126" d="M136.12,168a4.35,4.35,0,0,1-3.81-1.07c0-.56,0-1.12,0-1.68,1.39.41,2.24,2,3.87,1.84A3.09,3.09,0,0,1,136.12,168Z"/><path class="cls-127" d="M159.14,135.07,158,134.9a1.17,1.17,0,0,1,.23-1.21,8.17,8.17,0,0,1,3.05-1.25,4.45,4.45,0,0,0,3.56-1.06c2.65-.26,3.43,1.25,3.38,3.55l-2,2.15c-1.12-.81-2.11-.24-3.1.28-1.72.18-2.15-1.27-2.93-2.3Z"/><path class="cls-128" d="M160.21,135.06l2.93,2a1.74,1.74,0,0,1,1,.93c.39.5.78,1,1.18,1.51l-2.18.51C160.75,139.24,159.4,137.8,160.21,135.06Z"/><path class="cls-129" d="M171.38,105.09c2.65,3.83.73,8,.82,12,.61,2.18-2,3.08-2,5h0c-3.21-.91-1.41-3.49-1.8-5.35a25.09,25.09,0,0,0,.5-5.19C169.13,109.15,169.1,106.67,171.38,105.09Z"/><path class="cls-56" d="M169.22,131h-.92c-2.11.62-3.53-.31-4.61-2a6.17,6.17,0,0,1,3.42-6.67,3.61,3.61,0,0,1,3,.71l0,0C168.9,125.59,167.1,128.05,169.22,131Z"/><path class="cls-130" d="M164.12,129l4.18,2c.46,1.31,1.69,2.64-.06,3.93-.9-1.58-1.65-3.37-4-2.81-2.61,1-2.53-.38-1.89-2.2C162.74,129.26,163.25,128.78,164.12,129Z"/><path class="cls-131" d="M164.18,138l-1-.93c.16-.71.07-1.68,1.13-1.67s1.58.78,2,1.66Z"/><path class="cls-53" d="M170.15,123l-3,0c-1.39-1.53-.9-3.16-.24-4.79a4.78,4.78,0,0,1,.86-1.17,1.23,1.23,0,0,1,1.34-.09c1.5,1.44-1,3.76,1.11,5.08C170.18,122.38,170.17,122.7,170.15,123Z"/><path class="cls-132" d="M10.1,103.08c.2-2.82-2.59-4.38-3-7,4.85.1,7.1,1.87,8,6.73.58,3.07.72,6.23,1.69,9.23.5,1.63,1.39,3.18,1.07,5a2,2,0,0,1-.88,1.1q-.35-.09-.69-.21a9.81,9.81,0,0,0-2.86-5.61C10.56,109.79,9.9,106.65,10.1,103.08Z"/><path class="cls-133" d="M5.31,102V98.62l1.86,2.44A1.64,1.64,0,0,1,5.31,102Z"/><path class="cls-63" d="M23.55,132.11,18.19,132c.58-4.11-1.69-8-.86-12.15,1.69,0,1.73,1.55,2.31,2.59a9.45,9.45,0,0,1,.45,1.15,11.78,11.78,0,0,0,1.65,3.26c.43.71.81,1.46,1.19,2.21A4.15,4.15,0,0,1,23.55,132.11Z"/><path class="cls-134" d="M19.09,123.13l-1.76-3.3c-.1-.56-.21-1.11-.31-1.66a2.24,2.24,0,0,0,.43-.31c.92-1.56-.89-3.64,1-5,2.91,1.53,2.61,4.26,2.61,6.89C20.69,121,20.34,122.34,19.09,123.13Z"/><path class="cls-135" d="M16.16,113.12a13.82,13.82,0,0,1-1.92-7.07c.08-5.15-2.12-8.49-7.11-9.93-1-.77-.93-2-1.11-3.06a1.26,1.26,0,0,1,.18-1.28A22.05,22.05,0,0,0,17,91.17a7.53,7.53,0,0,1,1.94.29c2,.56,5.08.61,5.06,3s-3.17,1.5-4.9,2.15a2.46,2.46,0,0,0-1.05,1c-1.4,3.74.38,7.48,0,11.21C17.62,110.33,17.55,112,16.16,113.12Z"/><path class="cls-136" d="M6.5,92.09l-.48,1-1.8,2-.85-2.1.87-3.84A6.54,6.54,0,0,0,5.13,89l.54.3a4.15,4.15,0,0,1,1,1.58A1.72,1.72,0,0,1,6.5,92.09Z"/><path class="cls-137" d="M6.25,80.08c3.07,1.63,1.55,4.56,2,7-1.5,0-.32,3.65-2.91,2.09L5.13,89C5.5,86,4.52,82.89,6.25,80.08Z"/><path class="cls-138" d="M90.41,8.14c3-1.05,5.44-1.26,4.62,3.23-.48,2.62,1.75,2.22,3.14,2.75,2.46,1.78,5.74-.11,8.17,1.83-.75,1.18-2,1.48-3.21,1.87a6.72,6.72,0,0,1-2.28.14c-2.2-.49-4.49-.47-6.68-1.07-2.56-1.24-2.07-3.59-2.08-5.75a2.5,2.5,0,0,1-.1-.9c-.29.09-.15.36-.2.53-.18.79-.39,1.52-1.46,1.12A5.87,5.87,0,0,1,90.41,8.14Z"/><path class="cls-139" d="M103.18,16.76c.9-.88,2.08-.63,3.15-.81l3.82.16L108,17.23C106.28,18.47,104.64,18.59,103.18,16.76Z"/><path class="cls-140" d="M103.18,16.76l4.84.46a157.2,157.2,0,0,1,19,7c4.68,4.28.25,6.92-1.8,10-2-1.89,1.52-4.73-.88-6.3a20.88,20.88,0,0,0-10.56-3.66A83.85,83.85,0,0,1,105.1,22a9,9,0,0,1-1.4-.51c-1-.45-2.66-.58-2.35-2s2-.52,3-.87c-1-.54-3,.95-3.17-1.44Z"/><path class="cls-141" d="M169.18,71.05a8.69,8.69,0,0,0,1,5c.59.75.56,1.6-.21,2s-1.52-.11-2.15-.64c-2.15-2.63-2-6.16-3.48-9-.91-3.76-3.81-6.86-3.64-11a1.48,1.48,0,0,1,1.1-.88,2.11,2.11,0,0,1,1.35.52,37,37,0,0,1,5,11C169.14,68.85,168.19,70.28,169.18,71.05Z"/><path class="cls-17" d="M169.18,71.05c-1.17-.71-.93-1.9-1-3,.26-1.33-.72-3.46,1.27-3.72,2.5-.34.81,3.16,2.73,3.71C170,67.83,169,68.85,169.18,71.05Z"/><path class="cls-142" d="M165.17,51.06h2c.45,1.88-.83,2.86-2,3.87a1.1,1.1,0,0,1-1.16.31c-.75-.55-1.3-1.17-.79-2.17Z"/><path class="cls-143" d="M164.19,54.85a2.45,2.45,0,0,0,.93.08c1.64,2.81-.77,1.9-2,2.13a8.89,8.89,0,0,0-.89-.07c-.78-.34-1.51-1-1-1.76C161.94,54.1,163.13,54.45,164.19,54.85Z"/><path class="cls-144" d="M168.29,77c1.15.69,1.92.61,1.9-1,2,4.15.34,8.9,2.1,13.09,0,1-.65,1.31-1.54,1.27-1.71-.74-2-2.39-2.54-3.9C168.19,83.35,166.19,80.17,168.29,77Z"/><path class="cls-145" d="M171.22,90.17l1.07-1a3.35,3.35,0,0,1,1,0l1.07,1.21A3.28,3.28,0,0,1,171.18,92,1.18,1.18,0,0,1,171.22,90.17Z"/><path class="cls-146" d="M171.38,105.09c-.25,2.34-1.57,4.5-1.21,6.94a.91.91,0,0,1-1.18.18,8.65,8.65,0,0,1-1.44-3,6.22,6.22,0,0,1-.26-1.34c0-3.42,2-6.92-.41-10.23-.42-.11-.84-.21-1.26-.28a6.69,6.69,0,0,1-3.2-.94,1.47,1.47,0,0,1-.4-1.25c3.22-1.1,6.25-.42,9.2,1l.94,1.5-.84,6.5A2.2,2.2,0,0,0,171.38,105.09Z"/><path class="cls-147" d="M150,62.93c1.93-1.24,3.52-3.25,6.22-2.77,2,.53,2.83,2.2,3.72,3.81a15.64,15.64,0,0,1,1.29,3.24,18.47,18.47,0,0,0,2.15,5.34c2,6.1,4.2,12.16,2.77,18.76a18.79,18.79,0,0,1-5.7.1c-2.24-1.44-2.42-3.77-2.53-6.08A41.61,41.61,0,0,0,150,62.93Z"/><path class="cls-148" d="M120.27,75.21c-1.72,2.56-5.17,2.58-7.08,4.86-4.37,1.93-5-2.83-7.54-4.19-1.65-4.2,2.17-6,3.83-8.74a11.29,11.29,0,0,0,2.18-2.65c1.89-2.95,4.4-2.83,6.68-.84s4.65,4.18,5.43,7.4a2.29,2.29,0,0,1-.58,1.27c-.34,1.22-3.44-1.55-2.4,1.68A2.49,2.49,0,0,1,120.27,75.21Z"/><path class="cls-149" d="M120.27,75.21l-.09-1.16c.4-1.58,2.06-1.25,3-2h0c2.35-4.44,0-10.59-4.48-12.07-1.28-.43-1.77.38-2.37,1.13a3.16,3.16,0,0,1-4.28,1.08c.33-3.89,3.27-6.19,5.44-9,3.12-3.4,6-2.72,8.63.59,3.09,3.87,8.5,6.14,8.43,12.19-1.47,2.33-4.37,2.61-6.25,4.35A18.63,18.63,0,0,1,120.27,75.21Z"/><path class="cls-150" d="M128.31,70.35c1.4-2.18,3.69-3.16,5.84-4.32,4-4.7,3.87-4.61-.72-9.28-3.6-3.66-7.32-7-12.6-7.9-.65-3,1-4.75,3.23-6.25,7,.44,19.07,11.08,20.55,18.15-.43,1-1.87.47-2.28,1.5A34.18,34.18,0,0,1,128.31,70.35Z"/><path class="cls-151" d="M142.33,62.25c.22-1,1-1.12,1.84-1.23a7.67,7.67,0,0,1,3.36-3.33c4.64-2.27,3.19-4.5.74-7.32C142.81,44.09,136.06,39.42,129.1,35A8.39,8.39,0,0,1,132,29.94c3.16-1.25,4.59,1.84,6.84,2.83,1.77.77,3,2.45,4.64,3.58C147.14,43,152.79,48,157.2,54.06,152.47,57.2,148.61,61.93,142.33,62.25Z"/><path class="cls-152" d="M150,62.93c2.41.32,3.56,1.82,4.38,4.05,2.37,6.44,5.45,12.66,4.91,19.84-.1,1.4.62,2.86,1,4.28l-.6.54a4.89,4.89,0,0,1-4.61-.16c-.5-.44-1.07-.93-1.1-1.59C153.58,81,150.32,73,147,64.9A4.23,4.23,0,0,1,150,62.93Z"/><path class="cls-153" d="M147,64.9c6.52,7.51,7.3,16.83,8.17,26.11a3,3,0,0,1-3.56.67c-2.53-2.86-2.92-6.48-3.3-10-.42-3.89-2.23-7.13-4.13-10.41-.75-1.3-1.67-1.35-2.86-.88-1.2.27-2.41.7-3.4-.48A28.88,28.88,0,0,1,147,64.9Z"/><path class="cls-154" d="M107.14,82.09l.09.89a.87.87,0,0,1,.28.81c-.06.29-.13.43-.2.43-3,.54-5-1.3-7-3-2.46-2.08-4.34-2.06-5.88.93-2.9,1.95-6.74,2.89-7.53,7.09a1.61,1.61,0,0,1-1.71,1c-1.77-2-1.13-5-3-7-.62-1-2-1.35-2.19-2.73,6.51-7,12-8.25,19.86-4.51.65.35,1.26.75,1.88,1.13C104.22,78,106.42,79.24,107.14,82.09Z"/><path class="cls-155" d="M114.37,83.15,117,82c1.49-1,4,.59,5-2.25.31-.9,2.4-.59,3.54.44C127.55,82,129,88.61,128,91.59c-3.59,1.45-7.3.72-11,.64a5,5,0,0,1-1.63-.6,4.15,4.15,0,0,1-1.14-1.29C113.21,87.92,112.28,85.51,114.37,83.15Z"/><path class="cls-156" d="M131,74l1.26-.9c1.27-.74,2.72-1.07,4-1.75a2.13,2.13,0,0,1,2.67.34c3.51,3.08,6.08,15.24,4.12,19.82a4.66,4.66,0,0,1-4.69.11c-2.27-2.28-1.78-5.56-2.94-8.26A78.58,78.58,0,0,0,131,74Z"/><path class="cls-157" d="M128.17,90.92c.13-3-1.93-5.26-2.58-8-.33-1.39-.67-3.2-2.8-2.73-2.7.61-.11,2.51-1.08,4.06C120.48,82.85,119,81.63,117,82a33.68,33.68,0,0,1,8.91-5,3.32,3.32,0,0,1,4.05.48c2.94,2.64,4.67,9.93,3.25,14C131.41,92.41,129.7,92.56,128.17,90.92Z"/><path class="cls-158" d="M143.18,91c.42-6.41-2.09-12.13-4.54-17.77-1.65-3.79-4.22,1-6.34-.15a14.13,14.13,0,0,1,5.6-3.2c1.24.31,2.22-.38,3.27-.8,5.24,6.57,8,13.81,6,22.33A3.1,3.1,0,0,1,143.18,91Z"/><path class="cls-159" d="M133.17,91a26,26,0,0,0-3.1-11.28c-.9-1.82-2.07-2.91-4.16-2.76A9.29,9.29,0,0,1,131,74c5.87,4.2,6.44,10.63,7.13,17A3.3,3.3,0,0,1,133.17,91Z"/><path class="cls-160" d="M157.2,54.06c-2.57-.11-3.23-2.38-4.64-3.91-3.22-3.46-5.55-7.69-9.3-10.69-.9-.72-1.18-1.56-.09-2.4,3.6.51,4.78,3.95,7.18,5.9l7.71,9.16A1.84,1.84,0,0,1,157.2,54.06Z"/><path class="cls-161" d="M159.17,64.06l-3-3.9a8.47,8.47,0,0,1,4-3.19c.33-.29.6-.24.8.16,1.23,3.68,3.66,6.88,4.27,10.8,1.29,3.09.24,4.43-3,4.12a5.77,5.77,0,0,1-2-5A2,2,0,0,0,159.17,64.06Z"/><path class="cls-162" d="M107.14,82.09c-2.14-1.12-3.5-3.39-6-4a10.75,10.75,0,0,1,4.94-2.74c3,.63,3.43,5.07,7.07,4.75C112.2,83.83,109.2,81.55,107.14,82.09Z"/><path class="cls-163" d="M107.16,84.1c0-.37,0-.75.07-1.12.65.7,1.3,1.39,1.94,2.09,1.88,1,2.23,2.56,1.85,4.46a8.51,8.51,0,0,1-1.23,2.6c-.93,2.49-2.43,4-5.31,3-1.83-.68-4-1-3.68-3.81a2.53,2.53,0,0,1,1-1C106.38,90.62,106.17,86.84,107.16,84.1Z"/><path class="cls-162" d="M110.17,90a7.66,7.66,0,0,0-1-5c2.14.46,3.46-1.32,5.2-1.92-.9,2.43.52,4.61.76,6.91-.81.82.27,2.64-1.1,2.87C112,93.29,111.12,91.46,110.17,90Z"/><path class="cls-79" d="M161,57.13a1.48,1.48,0,0,1-.8-.16c-2.48-4,2.45-2.26,3-3.9l1,1.79c-.94.44-3.27-.37-1.92,2.13Z"/><path class="cls-164" d="M150.35,43c-3-1.19-4.32-4.49-7.18-5.9A34.58,34.58,0,0,0,132,29.94a2,2,0,0,1,2.13-1.86C139.51,33.1,146.72,36.09,150.35,43Z"/><path class="cls-165" d="M129.1,35c4.69-.1,7.19,3.82,10.68,5.89,4.2,2.49,7.08,6.51,10.53,9.87,4,3.94.91,6.08-2.19,8.18C143.57,53,139,47.18,132.5,43.15A59.07,59.07,0,0,0,125.88,40a3.88,3.88,0,0,1,2.4-4.72C128.56,35.18,128.83,35.1,129.1,35Z"/><path class="cls-83" d="M114.19,23.06c4.11-.2,7.41,2.17,11,3.54,2,.75,2.21,2.07,1.26,3.9a23.75,23.75,0,0,0-1.2,3.66L123.08,39a1,1,0,0,1-1.26-.16,3.46,3.46,0,0,1-.31-2.76c1.18-2.41.53-4.05-2-5.06a62.1,62.1,0,0,0-6.09-2,11,11,0,0,1-1.38-.43c-4.86-1.18-9.73-2.36-14.78-2.35a4.08,4.08,0,0,1-2.14-1c-.46-1.19.14-2,1-2.68,7-1.51,13.48,1.18,19.45,2,1.32.57,1.05-.44.83.19,0,.06-.18.05-.46-.09C115.19,24.35,113.78,24.66,114.19,23.06Z"/><path class="cls-166" d="M122.16,39a5.66,5.66,0,0,0,.92,0c2.52-.19,1.85-4.75,5.2-3.78q-1.08,2.4-2.18,4.8c.27,1.52-.88,2.2-1.77,3C123,44.94,121.51,46.71,121,49c.27,2.44-1.91,3.38-3,5l-5.37,8.11a2.08,2.08,0,0,1-1.61,2.23c-3.21-2.52.53-4.83.21-7.26a52.52,52.52,0,0,1,2.45-5.91,28.59,28.59,0,0,0,4-6.29C119.22,43,119.65,40.18,122.16,39Z"/><path class="cls-167" d="M162,95.12a4.65,4.65,0,0,1,.31.76l-.54.64c-1.51.92-3.2.82-4.87.88-1.93.07-3.87.06-5.81.06s-3.92.08-5.88,0q-2.55.08-5.1,0c-2,.08-4,.06-6,0-2.8.07-5.6.07-8.4,0-3.21,0-6.43-.26-9.52,1a1.59,1.59,0,0,1-1.46-.68,2.72,2.72,0,0,1,.16-2.54c3.19-2.61,7-1.17,10.5-1.49,1.8-.16,3.63,0,5.45,0h4.51c6.29,0,12.58,0,18.86,0,.6,0,1.19,0,1.79,0a5.85,5.85,0,0,1,4.12,1.38Z"/><path class="cls-168" d="M160.16,95.06l-4,0c-.37-2,1.62-2,2.44-3,.51-.34,1.09-.54,1.58-.91h0l5.95-.06c1.27-1.16,1.68-3,3.17-4l1.88,3.13c0,.63,0,1.25,0,1.87-2.11.78-4.21,0-6.32,0S160.43,92,160.16,95.06Z"/><path class="cls-169" d="M100.16,77.15c-7.78-4.44-14-.83-20,3.84a4.36,4.36,0,0,1-3,3.87,4,4,0,0,1-2.89-.34,3.72,3.72,0,0,1-1.44-2.46c.51-2.53,2.72-3.74,4.47-5a5.64,5.64,0,0,0,2.42-5.86,2.58,2.58,0,0,1,1.52-1.41c1.26,0,2.16.93,3.31,1.2,4,.14,5.45-1.89,5.35-5.8-.17-6.22-.1-12.45-.06-18.68,0-1,0-2.07,0-3.1l0-3.08c0-.76,0-1.52,0-2.29s0-1.52,0-2.27c0-1.76,0-3.52,0-5.28,0-.75,0-1.49,0-2.23,0-1,0-1.95,0-2.93,0-.71,0-1.43,0-2.14s0-1.39,0-2.09a23.47,23.47,0,0,0-.09-2.65A2.45,2.45,0,0,0,89,16.76c-2.87-1.11-6.32.75-8.9-1.76,2-1.71,4.34-.76,6.53-.95,1.63-.14,3.37.15,3.65-2.16,1.27.06.17-2.33,1.88-1.81,2.66,11.72,1.27,23.6,1.33,35.42,0,8.17.45,16.33.73,24.45A5.7,5.7,0,0,0,95.5,70c2.31-.46,4.62,1.17,6.91,0,1.28-.74,2-2.6,3.91-2C106.9,72.16,104.79,75.32,100.16,77.15Z"/><path class="cls-170" d="M80.14,15c3.62.66,7.49-1.25,11,1.06-.78.75-1.71.54-2.66.44a2.9,2.9,0,0,1,2.69,1.55v3A3.62,3.62,0,0,1,89,22.18c-10.8.37-20.56,4.45-30.35,8.43-3-.58-3.65-2.78-3.75-5.38,2-3,6-2.31,8.44-4.53,1.9-.71,4-.74,5.26-1.2A2.09,2.09,0,0,1,66.13,19c2.81-1.81,6.22-1.59,9.21-2.77,2.38.78,4.79,0,6.31.29,1.54-.19.62-1.09.92-.49.12.23,0,.37-.32.37-1.42,0-2.91.61-4.21-.49Z"/><path class="cls-171" d="M55.28,25c.92,1.71,1.32,3.71,2.92,5,.49.39,1.16.49,1.54,1a8.24,8.24,0,0,1,1.15,2.32,3.66,3.66,0,0,1-.08,2,1.64,1.64,0,0,1-1,.87c-3.59-2.52-5.51-6.11-6.61-10.23-.32-1-.63-2-1-3.07,2.74.85,3.83-4.26,7-1.93C59.33,23.82,56.13,23.27,55.28,25Z"/><path class="cls-172" d="M55.28,25c-.12-2.74,3.08-2.19,3.93-4l4-1c.35.23.46.45.34.67s-.23.33-.35.33C61.37,24,58.13,24.14,55.28,25Z"/><path class="cls-173" d="M63.19,21.08c0-.33,0-.66,0-1L66.13,19l3.11.18C67.43,21.06,65.32,21.09,63.19,21.08Z"/><path class="cls-174" d="M78,15.93c1.69.45,3.55-.39,5.79,1-3.26,0-5.94,1-8.49-.65Z"/><path class="cls-175" d="M44.19,63.06l-11-6,.31-.64c5.38-5.71,9.62-12.53,16.29-17,2.35-1.56,4.07-4.5,7.59-3.77,2.45,2.68,5.28,5.14,5.23,9.23A115.05,115.05,0,0,0,44.19,63.06Z"/><path class="cls-176" d="M44.19,63.06a39.24,39.24,0,0,1,18-18c4,1.59,4.86,5.08,5.47,8.75C63,58.76,57.22,62.55,53.43,68.32c-3.88,1-6.07-2-8.86-3.65l-.36-.62C44.2,63.72,44.2,63.39,44.19,63.06Z"/><path class="cls-177" d="M30.2,55.07c-2-.12-3.13-1.34-3.9-3A77.24,77.24,0,0,1,50.48,27.65c3.25-.53,4.38,1.42,4.87,4.14C49,37.11,42.46,42.17,37,48.43,34.89,50.79,34,54.4,30.2,55.07Z"/><path class="cls-178" d="M18.14,68.06c-.43-3.78,2-6.69,3.06-10,1-1.16.47-2.71,1-4l0,0c6.36,1,11,5.48,16.55,8.11,1.77.85,3.34,2.06,5.44,1.89h0c1.94,1.48,4.09,2.61,6.11,3.95,1.18.78,3.28,1.6,1.16,3.59a3.81,3.81,0,0,1-3.36-.6c-.77-.45-1.54-.91-2.33-1.34-2.2-1.43-4.59-2.51-6.88-3.77-1.6-1.11-3.39-1.89-5-3a17.67,17.67,0,0,0-3.95-2,10.21,10.21,0,0,1-1.65-1c-1.07-.69-2.14-1.29-3.39-.38-2,2.44-2.9,5.59-4.91,8a1.66,1.66,0,0,1-1.84.66Z"/><path class="cls-179" d="M30.2,55.07c6-7.65,12.27-14.94,20.17-20.71a9.83,9.83,0,0,1,4.82-2.29l.4.58c.25,1.82-1.15,2.65-2.29,3.49C45.41,42,39,49.17,33.23,57l0,0Z"/><path class="cls-180" d="M50.19,28.06c-1.38,2.86-4.33,4.12-6.62,5.89A65.67,65.67,0,0,0,28.3,50.79a2.52,2.52,0,0,1-2,1.25l-.18-1,5.06-8,9-9c3-2,5.07-5.22,8.81-6.09A.92.92,0,0,1,50.19,28.06Z"/><path class="cls-87" d="M22.2,54.07a2.84,2.84,0,0,1-1,4c0-1,0-2,0-2.93Z"/><path class="cls-181" d="M24.19,58.05c2.17-2.08,3.28.28,4.76,1.12a86,86,0,0,0-8.58,29.66,3.52,3.52,0,0,1-1.27,2.58A4,4,0,0,1,15.83,91c-1.94-4.6-1-9.22-.09-13.85.21-2.89,1.71-5.39,2.44-8.13a7.63,7.63,0,0,0,0-.83l1.19-1.1c.54-.12.95,0,1.08.61C21.32,64.34,24.36,61.82,24.19,58.05Z"/><path class="cls-62" d="M9.16,87.09c2.13-4.09-.69-9.32,3-13.06l3.06-1c1.08,6.17-.24,12.16-1.34,18.16A1.8,1.8,0,0,1,12,92.46,8.86,8.86,0,0,1,9.16,87.09Z"/><path class="cls-182" d="M11.19,91.05c2.22,1.4,1.88-.4,2-1.61l2-16.39,1-.94C17.69,73.54,16,75.46,17,77c-1.1,4.67-.86,9.43-.83,14.17.36.21.48.41.36.62s-.23.31-.35.31c-3.22,2.42-6.46,1.24-9.69,0a3.25,3.25,0,0,1-.09-.88C8,89.62,9.55,89.7,11.19,91.05Z"/><path class="cls-183" d="M17,77c-1.42-1.43-.55-3.23-.78-4.85.63-1,.63-2.48,1.95-3.09C18.88,71.83,17.43,74.31,17,77Z"/><path class="cls-184" d="M50.19,28.06,49,27.93l1.26-.86,3-1,7,10c4,3,4.74,8,7.58,11.78,1.17,1.54,2,3.35,3.1,5,.93,2,2.33,3.78,2,6.16a1.68,1.68,0,0,1-1.53,1.33C69,58.89,67.26,57,67.24,54a39.83,39.83,0,0,0-5-9c-.75-3.51-3.83-5.72-5-9-2-.66-1-2.81-2-4h0C53.84,30.33,53.23,27.68,50.19,28.06Z"/><path class="cls-34" d="M41.22,28.1a4.79,4.79,0,0,1,3.24-2.94C43.92,26.74,43.14,28.06,41.22,28.1Z"/><path class="cls-185" d="M11.19,91.05l-4.78.16a1.9,1.9,0,0,1-1.1-2.09c2,.76.18-3.85,2.91-2.09l.94.06C9.73,88.47,13.42,88.23,11.19,91.05Z"/><path class="cls-186" d="M43,152.16c-3.41-1.24-5.32-4-7.09-6.94a40.7,40.7,0,0,0-7.85-11.93c-.13-2.5,1.85-2.31,3.4-2.67a2.19,2.19,0,0,1,1.26.55c3.09,5.86,8.53,9.88,12,15.43a3,3,0,0,1-.17,1.26C42.92,148.87,46.79,151.89,43,152.16Z"/><path class="cls-187" d="M32.07,131l-3.77,2.1a2.22,2.22,0,0,1-1,1.93h-1.1c.14-1.9-.39-3.19-2.65-2.9l-1.6-3c.82-.75,1.81-.33,2.73-.4a1.7,1.7,0,0,0,2.45-.5c1.2-1,2.71-1.37,4-2.22,3.32-1.78,6.29-4.27,10.17-4.88,1.27,0,2.5,0,3.1,1.43-.88,3.52-4.22,4.31-6.72,6C35.75,129.28,34.21,130.83,32.07,131Z"/><path class="cls-188" d="M43,152.16c1.78-1.22.45-2.09-.29-3.11-.33-.45-1.72-1-.3-1.64.39-.19,1.15.4,1.74.64,1.76.14,3,1.28,4.29,2.27C53,153.8,53,153.8,56.22,149c.75-1,1.51-2,2.93-1-.95,4.56-4.31,7.61-7,11.1C49.17,156.77,45.48,155.29,43,152.16Z"/><path class="cls-189" d="M27.29,135l1-1.93c4,1.88,8.37,8.87,7.65,12.15C32.41,142.37,30.2,138.38,27.29,135Z"/><path class="cls-190" d="M62.15,151l1.06-1.89a76.37,76.37,0,0,0,17.64,6.76c7,1.73,8,.92,8-6.06,0-1,0-2,0-3,0-2.13,0-4.26-.17-6.38a85.38,85.38,0,0,1,.62-14.29,2.76,2.76,0,0,1,1.16-1.32,1.5,1.5,0,0,1,1.45.87c1.51,8.13.3,16.34.69,24.49-.14,2.73.26,5.53-.9,8.15-1.08,1.47-.87,3.31-1.39,5a3.61,3.61,0,0,1-1.36.77c-9.54,1.05-17.94-2.31-26-6.8C59.89,155.53,60.52,153.27,62.15,151Z"/><path class="cls-191" d="M90.12,140c0,2.34,0,4.67,0,7-1.15,7.24-1.16,7.26-8.83,6.35-4.66-.56-8.87-2.51-13-4.53-2.41-1.17-3.51-2.93-2-5.57.32-1.39.65-2.79,1-4.19l.6-.44a1.88,1.88,0,0,1,2,.64c4.3,5.15,10.62,4.07,16.21,5,1.75.31,1.76-2,2.36-3.28C88.78,140.37,89.24,139.85,90.12,140Z"/><path class="cls-192" d="M66.29,143.28c.08,1.39-.44,2.79,1.38,3.78a51.57,51.57,0,0,0,19.52,5.75c1.59.18,1.9-.87,2-2.14s-.25-2.67,1-3.64c0,.17,0,.33,0,.5.07,11.75-.84,12.42-12.4,8.81-3.94-1.23-8-2.28-11.6-4.31-1.26-.7-2.89-1.06-3-3Q64.74,146.17,66.29,143.28Z"/><path class="cls-193" d="M62.15,151c-1.3,3-.09,4.62,2.79,6.06,8,4,16.23,6.5,25.24,6a3,3,0,0,1,.51,3.68c-4.43,1.69-8.71.35-13-.56-2.2-.47-4.36-2.39-6.79-.61-5.56-.9-11.12-1.77-13.46-8a4.18,4.18,0,0,1,2-3.18Z"/><path class="cls-194" d="M59.15,148a1.85,1.85,0,0,0-2,2,2.57,2.57,0,0,1-3.23.33c-4-2.65-8.23-5-10-9.86,0-.72,1.6-1,.68-1.93-2.93-2.91-4.4-6.87-7.16-9.9l-.27-.64,7-5.08.42.56c-2.69,4.49-1,7.77,2.74,10.7,1.42,1.11,2.22,2.87,3.46,4.21,2.27,3.13,5.92,4.75,8.4,7.65Z"/><path class="cls-153" d="M59.21,146.05a16.8,16.8,0,0,1-9-7c1.13-3.51,2.82-4.51,5.78-1.53a8.88,8.88,0,0,0,7.18,2.34.85.85,0,0,1,.29.79q-.09.42-.21.42C62,142.83,61.18,144.89,59.21,146.05Z"/><path class="cls-195" d="M63.24,141.06c0-.34,0-.68,0-1a3.84,3.84,0,0,1,.58-2.45,47.69,47.69,0,0,0,2.88-4.88,15,15,0,0,0,2.94-4.81,26.74,26.74,0,0,0,2-4.08c1.46-2,2.38-4.45,4-6.44.6-.49,1.22-.78,1.92-.16,1,1.78.14,3.39-.47,5a103.32,103.32,0,0,1-9.84,16.9l0,0C65.46,138.8,65,141.21,63.24,141.06Z"/><path class="cls-196" d="M59.39,154.32l-1.14,2.82c-1.51,2.63-.56,4.13,2.11,5.18,1.89.75,4.29.91,5.08,3.37-.3,1.19-1.52.81-2.23,1.31-3.75-.13-6-3.92-9.8-3.95l-1.2-.05a34.9,34.9,0,0,0,4.91-7.71C57.5,154.41,57.85,152.77,59.39,154.32Z"/><path class="cls-197" d="M82.26,170c-2.3.55-4.89-.9-7,1-3.32-.05-6.25-1.36-9.13-2.85a5.08,5.08,0,0,1,3.55-1.85c3.34,0,6.52,1,9.79,1.55C80.71,168,82.2,168.13,82.26,170Z"/><path class="cls-198" d="M69.18,167.06c-.72,1.23-2,.9-3.06,1.05L63.21,167c.44-.84,1.27-.92,2.08-1.05C67,164.91,68.15,165.76,69.18,167.06Z"/><path class="cls-199" d="M69.18,167.06,65.28,166c-1.49-1.68-3.69-2.06-5.62-2.68-4.27-1.37-4.53-3.27-1.41-6.14C60.58,163,66.54,163,71.19,165c4.91-.46,9.33,2.09,14.15,2.28,1.63.06,3.27.62,4.84-.28v-4h0c.41-.8.89-1.47,2-1,2.06,4.57,1.58,6.75-2,9.15L82.26,170Z"/><path class="cls-200" d="M90.11,171.16c1.94-2.85,2.94-5.82,1.13-9.14a2.37,2.37,0,0,1-.72-1.5c1.67-2.25.07-5.55,2.42-7.58a29.65,29.65,0,0,1-.78,23c-.08.17-.61.11-1,.12l-1-1c.26-1,1.53-2.12-.08-3.12C90.13,171.68,90.12,171.42,90.11,171.16Z"/><path class="cls-118" d="M91.21,176c2.73-7.56,2.73-15.24,1-23-.67-.78-.46-1.73-.5-2.64,0-5.74,0-11.49,0-17.23,0-1.86-.51-4.22,2.64-4.15,2.16,3.49.82,7.38,1.23,11.07.07,8.87-.21,17.74.18,26.61a8,8,0,0,1-.59,4.33V172c-.45,1.13-.46,2.36-.8,3.51-.44,1.66-.63,3.66-3.24,2.51Z"/><path class="cls-201" d="M91.15,178c2.22.32,1.71-2.17,2.95-2.87.62,0,.73.61,1.14.85l-.1.16c.32,3.2-1.93,2.94-4,3C90.46,178.72,90.48,178.35,91.15,178Z"/><path class="cls-202" d="M95.19,171c-1.84-5.13-.75-10.45-.94-15.67s0-10.22.06-15.33a1.08,1.08,0,0,1,1.45.46c1.1,2.12.66,4.43.8,6.67q0,3.65,0,7.29c0,8,0,8.06,8,7.15a56.13,56.13,0,0,0,16.06-4.69c1.73-.75,3.41-2.24,5.5-.84,1.46,1.7,3.24,3.3,2,5.92L117,166.92a1.88,1.88,0,0,0-.85.1l-14.08,3Z"/><path class="cls-46" d="M95.24,176l-1.14-.85c.17-1.12-.09-2.38,1.09-3.15l2,1.1C95.19,173.12,95.13,174.48,95.24,176Z"/><path class="cls-203" d="M126.23,148a6.47,6.47,0,0,0-2.93-4.1l-.63-.32c-1.07-1.46-2.55-2.83-1.24-4.9,4.14,3,6.71,0,9.42-2.49A57.73,57.73,0,0,0,140.93,124c1.22-.66,2.38-.2,3.54.17a5.52,5.52,0,0,1,2.71,2.49,4,4,0,0,1,0,4.25,51.64,51.64,0,0,1-17.78,17.63,3.19,3.19,0,0,1-1.94.24A3.15,3.15,0,0,1,126.23,148Z"/><path class="cls-204" d="M126.14,156.05c-6.19,2.23-12,5.28-18.65,6.5-3.32.62-6.64-.06-9.88.79-1.2.31-1.79-.07-1.84-1.46-.06-2.29-.34-4.58-.53-6.86a1.07,1.07,0,0,1,1.28,0,5.78,5.78,0,0,1,.84,1.14c1.15,2.26,3.07,1.28,4.76,1.07a63.19,63.19,0,0,0,20.55-6.43,1.51,1.51,0,0,1,1.32.36Z"/><path class="cls-205" d="M126.23,148l1,0c2.94,3.5,5.6,2.64,8.64-.12,3.32-3,6.41-6.28,9.65-9.37s5-6.4,2.86-10.82c3.43-.55,5.6,1.19,7.18,4-2.91,6.46-7.6,11.66-12.56,16.49a56.79,56.79,0,0,1-10.55,8.2c-1.76.18-1.84-2-3.2-2.32A11.32,11.32,0,0,1,126.23,148Z"/><path class="cls-206" d="M124,151.18l-.81-.13c-1.69-1.17-2.28-3.17-3.52-4.68-.75-1.3-1.33-2.68-2.07-4a29.78,29.78,0,0,0-2-3.19,37.59,37.59,0,0,0-2.21-3.85c-.86-1.33-1.78-2.64-1.64-4.34a3.13,3.13,0,0,1,1.59-2.21c3.57,1.22,4.06,4.85,5.83,7.48,1.58,2.46,2,5.55,4.11,7.72v-.08C122.56,146.43,127,148.45,124,151.18Z"/><path class="cls-207" d="M129.2,154.08c1.58-.22,1.94,1.38,3,2a4.6,4.6,0,0,1,2.79.59l.32.5-2.08,1.94C130.38,158.6,130.44,155.82,129.2,154.08Z"/><path class="cls-207" d="M158.18,134.06l-.15.84c-4.51,6.11-9.13,12.12-14.84,17.19-2.77,1.47-4.74,4.21-7.91,5l-.16-.19c-.38-2.32,1.54-3.09,2.87-4.23,7.09-6.06,13.62-12.61,18.16-20.9C157.64,131.83,158.55,132.36,158.18,134.06Z"/><path class="cls-208" d="M158.18,134.06a3,3,0,0,0-2.05-1.88.61.61,0,0,1-.92-.16c-2.2-1.57-4.21-3.5-7-4a4.17,4.17,0,0,1-2-1.09l-2.1-1.8c.76-3.26,2.82-1.53,4.52-1.19,1.44.74,2.86,1.53,4.32,2.22a10,10,0,0,1,1.18.71c2.37,2,6.05,2.58,7,6.19C160.45,134.24,159.26,134,158.18,134.06Z"/><path class="cls-209" d="M161.16,133.07c-2.25-2.54-5.95-3.18-7.93-6.08,1.36-1,2.63-.25,3.91.18a36.35,36.35,0,0,0,3.81,1.16A4,4,0,0,1,163,130c-.34,1.12-.72,2.25,1.17,2.17C163.89,134.71,162.14,132.65,161.16,133.07Z"/><path class="cls-210" d="M169.25,112.11l.92-.08a7.17,7.17,0,0,1-1.08,5l-.83.09C166.9,115.09,167.74,113.53,169.25,112.11Z"/><path class="cls-211" d="M163,130a1.89,1.89,0,0,1-2-1c-.16-4.87,2.6-8.81,4.22-13.11a2.59,2.59,0,0,1,1.42-.28c1.24.35.82,1.6,1.28,2.37-.27,1.7-.55,3.4-.83,5.1a12.09,12.09,0,0,0-3,6Z"/><path class="cls-212" d="M168,117.94l-.86-2c-1.33-1.66-.42-3.36-.09-5.06a3.09,3.09,0,0,1,1.28-1.82c1.08.79.83,2,1,3.08l-1,5A5.19,5.19,0,0,1,168,117.94Z"/><path class="cls-213" d="M16.16,113.12c.21-1.38-.42-3,.95-4.08,1.43,1,2.23,2.22,1.13,4-.36,1.6.63,3.42-.79,4.85Z"/><path class="cls-214" d="M24.23,129.05c-.73,1-1.53,0-2.29.07l-.9-1.81a39.11,39.11,0,0,0-1.93-4.22l0,0c.23-1.08-.1-2.35,1.09-3.08C23,122.39,24.92,125.13,24.23,129.05Z"/><path class="cls-134" d="M19.11,123.09A4.48,4.48,0,0,1,21,127.31,5,5,0,0,1,19.11,123.09Z"/><path class="cls-215" d="M24.23,129.05l-4.05-9a14.85,14.85,0,0,0-1.94-7c-.38-1.33-.75-2.65-1.13-4a58.46,58.46,0,0,1-.88-13c1.62-.82,3.29-.49,4.95-.24a4.51,4.51,0,0,1,1.3,4.1c-.88,8.5,1.85,16.28,4.71,24,.64,1.75,1.25,3.44,0,5.18C26.18,131.44,25.22,129.86,24.23,129.05Z"/><path class="cls-216" d="M21.21,96h-5c2-2,4.78-.28,7.24-1.44-2.08-2.13-5-1.42-7.28-2.53,0-.31,0-.62,0-.93l3-.06A4.36,4.36,0,0,1,21.69,90c15.19,1.27,30.41.54,45.6.43a15.66,15.66,0,0,1,2.21-.68c1.7,1.54,3.55-.88,5.27.18a5.53,5.53,0,0,1,1.1.84,4.62,4.62,0,0,1,1,1.76c-.19,2.34.84,4.9-1.22,6.91-2.39.34-3.84-2-6.09-2.09-.7-.23-1.38-.48-2.06-.75-11.16-.26-22.3-.55-33.43.34a27.47,27.47,0,0,0-6.14.3,20,20,0,0,1-4.7-.08A4.39,4.39,0,0,1,21.21,96Z"/><path class="cls-217" d="M94.25,70.94c-.16.52-.21,1.66-.94,1a4.31,4.31,0,0,1-1.11-3.69c1.23-14-.92-27.92.49-41.94.52-5.21-.42-10.81-.49-16.24,2.11,1.53-.2,4.59,2.1,6.06,3,4.05.73,8.67,1,12.94.8,12.36.31,24.8.26,37.21C95.57,68,95.52,69.62,94.25,70.94Z"/><path class="cls-218" d="M94.25,70.94q0-27.4,0-54.8c2.41-.41,4.78-.48,6.91,1,1,1.4,2.75.62,4.12,1.16-.84,1.35-2.23.3-3.2,1.15L105.2,21c-1.26,1.55-3,.84-4.58,1.06s-3.33-1-4.44,1l-.9,2.11a4.51,4.51,0,0,1,1,2.16,32.86,32.86,0,0,1,.2,4.09c0,1.68,0,3.36.12,5,0,3.22-.2,6.43,0,9.65,0,5.07-.16,10.13-.07,15.2,0,.59,0,1.19,0,1.78-.11,2.63.56,5.39-1.25,7.74Z"/><path class="cls-219" d="M96.18,23.08c-1.67-2.3-.3-2.41,1.6-2.3,2.47.14,4.94.17,7.42.25l9,2c1.36,1.69,4.2,1.06,5.51,3.79A107.69,107.69,0,0,0,96.18,23.08Z"/><path class="cls-220" d="M169.34,87c-.24,2,.2,4.51-3.17,4l-4-19c.27-.76-.07-2.73.8-2.12,4.33,3.06,1.29-1.65,2.25-2,1.93,2.73,1.83,6.14,3.06,9.1Z"/><path class="cls-221" d="M168.28,109c-.1.66-.21,1.33-.32,2-1.14,1.43-1.06,3.31-1.79,4.89A81.33,81.33,0,0,1,161,129c-1.36,0-2.83.54-3.88-.84-1.29-1.85-.11-3.44.55-5.09,2.52-6.26,5-12.52,5.29-19.41A13.65,13.65,0,0,1,166.18,96l1,.09c2.32,4.2.19,8.62.67,12.92Z"/><path class="cls-151" d="M166.18,96c-2.26,9.39-2.91,19.2-7.43,28a37.06,37.06,0,0,0-1.6,4.15L153.23,127h0a1.22,1.22,0,0,1-.08-1.47c5.39-7.17,6.33-15.76,7.63-24.22.28-1.77,0-3.66,1.3-5.16l.24-.27Z"/><path class="cls-151" d="M167.85,109c-1.45-4.25-.3-8.62-.67-12.92,3.25.47,1.73,3,1.92,4.68C169.41,103.57,168.63,106.29,167.85,109Z"/><path class="cls-220" d="M159.17,64.06c2.42-1.76,1.77,1.06,2.24,1.7,1.19,1.62.37,2-1.23,1.29C159.85,66.06,159.51,65.06,159.17,64.06Z"/><path class="cls-222" d="M111.32,64.11l1.23-2a6.61,6.61,0,0,0,1.93-.36c1.68-.88,1.67-5,3.66-3.71,3.49,2.33,7.15,5.22,8.73,9.29.83,2.15-1.93,3.52-3.68,4.75-.66-3.31-3.44-5.21-5.44-7.49-1.72-2-4.14-2.18-5.37,1.07A3.48,3.48,0,0,1,110,68C109.05,66.23,110,65.11,111.32,64.11Z"/><path class="cls-223" d="M111.32,64.11c-.44,1.3-.88,2.59-1.31,3.89-1.71,2.22-3.67,4.31-3.89,7.32-1.14,1.83-2.64,3-4.94,2.74l-1-.91c-.06-.7-.94-1.79.35-2,4.46-.58,5-4,5.57-7.39-.83-1.14-.31-2.22.13-3.3a7.73,7.73,0,0,1,.67-1.19c1.63-1.85,2.24-4.36,4-6.16a1.71,1.71,0,0,1,1.28-.28C113.36,59.45,109.13,61.43,111.32,64.11Z"/><path class="cls-222" d="M123.18,72.05l-3,2-2.48-3.54C120.17,69.38,121.16,72.42,123.18,72.05Z"/><path class="cls-224" d="M117.92,54q1.53-2.47,3-5c5.58-2.51,7.81,2.86,11.42,4.92,1.24.71,2.09,2.06,3.19,3.06,4.79,4.37,4.53,6.07-1.43,9-1.77-6.24-7.29-9.42-11.38-13.74C120.64,50.05,119.86,54.22,117.92,54Z"/><path class="cls-225" d="M124.33,43.08l1.77-3c.93-.23,1.81-1.17,2.8-.56,7.72,4.8,15.09,10,19.22,18.5.13.26,0,.65,0,1-1.71-.06-2.55,1.53-4,2.06A39.4,39.4,0,0,0,124.33,43.08Z"/><path class="cls-226" d="M160.21,91.11l-1,.94a4.81,4.81,0,0,1-1.66.87c-8.41,1.12-16.87.25-25.31.54-3.93,0-7.86.11-11.78-.09-1.67-.08-3.78.28-4.28-2.22l12-.23,5,.06,5,0h5l4,0a3,3,0,0,1,4,0l4,0Z"/><path class="cls-227" d="M151.16,91l-4,0c.14-7.89-3.27-14.79-6-21.88,1.91-1,2.7-1.24,4.3,1.38C149.4,76.91,149.72,84,151.16,91Z"/><path class="cls-228" d="M107.16,84.1c1.06,6.65,1,6.8-4.92,6.88a.78.78,0,0,1-.32-.71c0-.27.09-.41.15-.41.63-.94,3.67-1.14,1-3.11a10.21,10.21,0,0,1-2.82-1.15,6.83,6.83,0,0,1-1-.81c-1.06-1.21-2.66-1.28-4-1.88a2.49,2.49,0,0,1-1-.89c.38-4.2,2.44-5.41,5.42-2.78A40.86,40.86,0,0,0,107.16,84.1Z"/><path class="cls-229" d="M94.27,82l.88.08c1.37,1.51,4,.86,5,3h0a3.82,3.82,0,0,1,.54,4.59c-.62.82-1.27.62-1.92.06-2.45-4.37-6.13-2.34-9.46-1.68-1,.2-1.76,1.5-3.08,1.09C86.3,84.86,90.54,81.09,94.27,82Z"/><path class="cls-230" d="M86.26,89.12c2.61-4.57,7.3-2.63,11.07-3.37,2-.38,1.75,1.87,1.86,3.3-4-.41-8-1.08-11.14,2.39a12.46,12.46,0,0,0-3.72,6.74c-1.3,1.75-2.71,1.31-4.15.21-1.06-2.89,1.58-4.31,2.55-6.39a10.3,10.3,0,0,1,.54-1.17,3.58,3.58,0,0,1,.79-1,.91.91,0,0,1,1.13.23Z"/><path class="cls-231" d="M85.19,90a4.48,4.48,0,0,1-.89.15,2.7,2.7,0,0,1-1-.89,3.69,3.69,0,0,0-3-2.12,3.07,3.07,0,0,1-2.41-1.41c.87-2.49,1.55-5.26,5.26-3.69C84.59,84.55,85.71,87.08,85.19,90Z"/><path class="cls-232" d="M83.17,82.08c-3.12-.52-4,1.86-5,4a14.22,14.22,0,0,1-1.73,5.1A.8.8,0,0,1,75.27,91l-.17,0c-1.74-3.06-1-5.38,2.08-7L80.12,81C81.22,81.12,82.47,80.83,83.17,82.08Z"/><path class="cls-233" d="M131.12,94.9c-5.29.84-10.77-1.05-16,1.15-2,.58-2.48,3.93-5.35,2.89a4.4,4.4,0,0,1-.61-1.25,23.65,23.65,0,0,1,0-5.64,2.23,2.23,0,0,1,1-2c1.66-1,3.27,4.43,5,0a.68.68,0,0,1,.22.7c.63,2.23,2.47,1.78,4.07,1.8,3.14,0,6.28,0,9.43,0C130.31,92.6,132.11,92.42,131.12,94.9Z"/><path class="cls-162" d="M131.12,94.9c-.42-2.47-2.41-1.79-3.92-1.85-2.8-.09-5.61,0-8.41,0-1.59,0-3.54.39-3.44-2.25a1.58,1.58,0,0,1,.79.38c5.23,2,10.7.2,16,1a17.13,17.13,0,0,0,1.56.74c.78.47,1.94.69,1.44,2.06Z"/><path class="cls-234" d="M87.16,91c3.74-4.2,7.5-4.82,12-2l1,1a1.16,1.16,0,0,1,.89,1.1c.32,2.32,2.22,2.58,4,3,1.12,3.38-1.36,2.61-3.11,2.7a4.49,4.49,0,0,1-2.28-1.93A21.18,21.18,0,0,0,98,92.75c-3.13-2.78-6.87-.67-10.27-1.28Z"/><path class="cls-235" d="M101.22,96.11c1.44-.37,3.62.72,3.87-2,2.5,1.54,2.54-1.77,4.1-2.08,1.21,1.86,1.06,3.94,1,6-4.33-.23-5.94,2.59-6.9,6.15a3.09,3.09,0,0,1-2,.63A4.8,4.8,0,0,1,98,103.21a1.93,1.93,0,0,1,0-1.38C100.3,100.59,99.49,97.65,101.22,96.11Z"/><path class="cls-236" d="M101.12,91.1l-.89-1.1c0-1.65,0-3.29,0-4.94l2.94,1c.55,1.51-.8,2.59-.91,4l0,.93Z"/><path class="cls-237" d="M95.22,36.06l0-5A1.71,1.71,0,0,1,96.53,31c3.7.91,7.38,2.15,11.17.34a21.59,21.59,0,0,1,14.47,4.77c0,1,0,2,0,2.94-1.27,2.07-1.77,4.6-3.76,6.24l-.58-.41c-.53-2.67-2.16-4-4.71-5.13C107.35,37.23,101.27,36.82,95.22,36.06Z"/><path class="cls-152" d="M122.17,36.06c-5.1-.93-9.63-4-15-4-1.28,1.25-2.64.77-4,.21-2-1.33-4.21-.9-6.36-1.13l-.65-.1-1,0c0-1.34,0-2.68,0-4a33.33,33.33,0,0,1,12.62.62c1.75.35,3.49,1,5.31.4,2.91,0,5.42,1.36,8,2.47C124.42,31.93,124.74,33.71,122.17,36.06Z"/><path class="cls-238" d="M113.18,28.07c.14.71.67,2.18-.45,1.81-5.7-1.9-11.8-1.07-17.48-2.83,0-.62,0-1.24,0-1.86l1.91-.11c5.38.78,10.72,1.69,16,3Z"/><path class="cls-152" d="M113.18,28.07a66.47,66.47,0,0,1-16-3A35.33,35.33,0,0,1,113.18,28.07Z"/><path class="cls-239" d="M112.12,56.87a3.27,3.27,0,0,1-.82.26l-.51-.52a3.71,3.71,0,0,1-.23-1.4c1.56-4.29-.61-5.9-4.46-7-3.54-1-7.68-.56-10.39-3.84.16-5.4,1-6.26,6.15-5s11,1.26,14.81,6.06c.51,2.49-1.12,4.11-2.36,5.9C114.47,53.52,112.77,55,112.12,56.87Z"/><path class="cls-237" d="M114.31,51.32l1.9-5.25c.42-.72.84-1.44,1.88-1.08l.31.25C117.27,47.43,117,50.17,114.31,51.32Z"/><path class="cls-240" d="M162.08,96.15c.48,9.39-1.91,18.21-5.39,26.8-.63,1.56-1.39,3.06-3.43,3.06-1.94.72-3-1.18-4.56-1.54-1.28-1.43-4.84-.29-4.28-3.8,5.24,0,7.5-3.24,8.62-7.85a62.33,62.33,0,0,0,1.89-10.76c.14-2.18.51-4.3,2.2-5.92Z"/><path class="cls-241" d="M157.13,96.14c-1.16,6.24-.89,12.78-3.43,18.71s-1.9,8-9.55,6.21c-2.5.23-4.73.06-4.9-3.24,5.49-.5,6.89-4.25,7.79-9,.83-4.35.63-9.16,4.08-12.7Z"/><path class="cls-242" d="M125.17,96.18l9-.05c2.51,3.53,1.08,7.09.09,10.65-1.06,2.09-1.35,5-4.74,4.7-3.14-3,1.15-5.63.18-8-.44,1.93-.68,4.59-2.61,6.56a3.39,3.39,0,0,1-1.36.63c-4.41-.65-8.1-2.83-11.6-5.44-1.21-2.63-2-5.22,1-7.29a3.54,3.54,0,0,0,1-.13c1.12.77.53,2.16,1.27,3.34,1.68-.4,1.64-2.77,3.39-3.13,2.28,1.33,1,3.46,1.13,5.47C124,101.44,123.29,98.2,125.17,96.18Z"/><path class="cls-243" d="M129.2,111c2.92.26,2.51-2.79,4-4,2.72,0,1.41,2.39,2.32,3.88a33.27,33.27,0,0,0,2.42-8.93c.32-2.12.52-4.27,2.24-5.84h5c2.55,4.72,0,9-1.28,13.37-.87,3-1,6.8-4.89,8.11-4.87.86-7.81-3-11.65-4.74a2.79,2.79,0,0,1-1.3-2.58l.2-.36C127.7,109,128.46,110,129.2,111Z"/><path class="cls-227" d="M138,117.17c4.1-1.2,3.46-5.22,4.62-8.07a33.75,33.75,0,0,0,2.58-13h6c-.77,4.87-2.65,9.5-3,14.49-.4,5.59-3.74,8.21-9,7.43C138.34,118.34,138,117.91,138,117.17Z"/><path class="cls-149" d="M140.16,96.15c-.84,4.7-1.27,9.49-2.87,14-.56,1.62-1.29,3.75-3.06,3.26-2.09-.59-.16-2.45-.12-3.75,0-1,0-2-.93-2.66a37.46,37.46,0,0,0,1-10.91Z"/><path class="cls-244" d="M115.11,98c-1.16,2.37-1.44,4.74,0,7.11-1.58,1.4-2.65-.52-3.93-.46.65.73,2.39.7,2.21,2.38-2.72,2.48-5.67,4.82-5.91,8.94a1.57,1.57,0,0,1-1.24.45c-4.49-4.18-4.53-4.68-.83-9.92.06-.44.15-.86.25-1.29a19.21,19.21,0,0,1,1.9-4.21A3.92,3.92,0,0,1,110.22,99c2.15-.16,1.64-4.73,4.94-3C115.14,96.69,115.13,97.33,115.11,98Z"/><path class="cls-245" d="M125.17,96.18a12.13,12.13,0,0,1-1.75,7.54c-.55,1-.23,3.11-2.17,2.44-1.46-.5-1.16-2.19-.8-3.47s1.13-2.4.36-3.73c-.15.09-.35.15-.42.27-1,1.68-1,5-3.71,4.2-3.05-.94-.21-3.7-.6-5.6C118.55,94.21,122.15,96.75,125.17,96.18Z"/><path class="cls-246" d="M158.17,92.07a6.68,6.68,0,0,1,1,0c.2,2.19-2.29,1.69-3,3h-1c-5-1-10.15-.14-15.21-.54-1.33-.11-3.51,1.26-3.83-1.55,5.56-.83,11.16-.11,16.74-.38C154.63,92.46,156.47,93,158.17,92.07Z"/><path class="cls-168" d="M136.16,93.07c3.5,2.07,7.33.46,11,1,2.67.39,5.54-1,8,1l-20-.06-2-1.93A2.43,2.43,0,0,1,136.16,93.07Z"/><path class="cls-247" d="M83.18,72.06c-.65-.67-1.31-1.33-2-2-4.06-2.39-4.66-7.15-7.27-10.54a8,8,0,0,1-.56-2.9c.57-2.92,2.86-4,5.32-4.61s5.16-1.28,7.73-2c1.73-.49,3.6-.31,4,1.76s-1.35,3-3,3.27c-2,.31-4.15-.08-5.89,1.33a10.46,10.46,0,0,1,4.2-1.19c3.27-.1,5.72.22,4.82,4.54a17.06,17.06,0,0,0,.14,3.47C90.77,70.79,90.77,70.79,83.18,72.06Z"/><path class="cls-248" d="M91.13,36.06v2c-1.16,1.65-3.07,1.44-4.3,1.5.42-.32,1.37.11,2.27.11,1.29.76.89,2.53,2,3.38,0,1,0,2,0,3-6.82,2-13.79,3.38-20.55,5.58C68,48.72,65.12,46,65.44,41.57c6-3.11,12.28-5.64,19.09-6.49C86.83,34.8,89.14,34.32,91.13,36.06Z"/><path class="cls-249" d="M70.2,51.06c6.68-3,13.42-5.62,21-5,0,6.63,0,13.26,0,19.89,0,5.52-1.69,6.8-8,6.12,2.08-1.54,6.11-.24,6.7-3.37a25.07,25.07,0,0,0-.13-11.24c-.79-2.74-4.18-1.25-6.52-.87-1.84.29-3.94,3.84-5.23.63-.6-1.5,3.26-1.74,5.08-2.59,2.16-1,7,.39,6.23-2.62-.93-3.67-4.3.37-6.62.58-3.13.27-7.21.14-8.5,4.47-3.09-.11-2.32-3.54-4.11-4.76A1,1,0,0,1,70.2,51.06Z"/><path class="cls-250" d="M91.13,36.06A44.42,44.42,0,0,0,69.9,41a10.21,10.21,0,0,1-4.69,1.05c-2.44-.5-2.51-2.31-2.37-4.25,8.32-6.61,18-8.1,28.28-7.73Q91.14,33.07,91.13,36.06Z"/><path class="cls-251" d="M91.12,30.08c-2.94,1.77-6.39,1.21-9.54,1.73A62.83,62.83,0,0,0,63.2,38.06c-2.48.46-1.81-2.2-3-3v-2c3.63-2.24,7-5.05,11.75-4.55,1.57,1.2,3,.3,4.54-.18,4.82-1.46,9.7-2.87,14.62-.26C91.11,28.74,91.12,29.41,91.12,30.08Z"/><path class="cls-252" d="M95.36,70.85l-.18-7.8c3.14-1.14,6.12-.39,8.87.67-2.31-1.65-5.42-.64-8.09-1.69a6.75,6.75,0,0,1,.07-4.1c4.25-.75,8.43-1.06,12.26,1.54,1.1,1.87-.38,3.16-1.06,4.64l0,0c-1.41,2.34-3.24,4.44-4,7.16C100.51,73.54,98,70.47,95.36,70.85Z"/><path class="cls-253" d="M72.19,29.06c-4.5-.18-7.49,4.17-12,4a2.08,2.08,0,0,1-1-2A55,55,0,0,1,88.9,22.13a3.24,3.24,0,0,1,2.22.94l0,2c-1.34,1.4-3.14,1.64-4.9,2-2,.23-4.06-.3-6,.58C77.49,27.8,75.14,30.05,72.19,29.06Z"/><path class="cls-251" d="M91.12,23.07c-10.59-.51-20.29,2.57-29.59,7.28a13.19,13.19,0,0,1-2.34.71l-1-1c10.25-5.66,21.06-9.27,32.93-9C91.13,21.72,91.12,22.4,91.12,23.07Z"/><path class="cls-254" d="M71.21,60l1-1c1.64-.44,1.83,1,2.49,1.88a35.06,35.06,0,0,1,5.44,10.2c1.19,2.42,1.82,4.43-1.44,6.09C76.61,78.28,75,80.38,73.24,82c-1.5.31-1.51-.67-1.47-1.7,6-6.47,6-6.46,1.5-14.44C72.26,64.07,70.31,62.54,71.21,60Z"/><path class="cls-250" d="M86.19,26.06a8.29,8.29,0,0,1,4.9-1c0,1,0,2,0,3-5.66.08-11.41-.69-16.61,2.65-.94.6-3.29,1.33-2.31-1.66a28,28,0,0,1,8-2C82,25.81,84.35,27.37,86.19,26.06Z"/><path class="cls-255" d="M77.18,84c-1.87,2-2.19,4.45-2.08,7-1.28-2-3.69,1.38-4.89-1-.82-2.12-.13-4,1.05-5.7.91-1,2-.53,3-.27Z"/><path class="cls-256" d="M74.25,84.07c-.72,1-1.5,0-2.25.06-2.71-.27-5-1.13-6-4,3.26.15.4-2.5,1.52-3.33,2.74-.63,4.24.53,4.68,3.23a1.94,1.94,0,0,0,1,2A2.34,2.34,0,0,1,74.25,84.07Z"/><path class="cls-257" d="M80.15,71.13l-6-10.07c-.68-1.16-.73-2,1-2q3,5.49,6,11Z"/><path class="cls-250" d="M89.19,40.06c-2-.65-4.16,2.11-6.71-.4l8.66-1.59c0,.65,0,1.31,0,2A1.27,1.27,0,0,1,89.19,40.06Z"/><path class="cls-258" d="M103.25,71.22c-.17-3.21,1.72-5.28,4-7.16-.38,1.25-.75,2.5-1.13,3.74Z"/><path class="cls-253" d="M91.13,18.05c-1.56-1.54-3.44.27-5.51-.47,1.62-2.19,3.73-1.25,5.48-1.52Z"/><path class="cls-249" d="M89.19,40.06l1.94,0c0,1,0,2,0,3C89.14,42.94,89.18,41.49,89.19,40.06Z"/><path class="cls-259" d="M60.21,35l3,3a5.48,5.48,0,0,0,2,4q2.51,4.5,5,9v1c.31.24.41.48.3.7s-.22.34-.32.34c-4.57-4.94-7-11.17-10-17C60.19,35.73,60.2,35.38,60.21,35Z"/><path class="cls-253" d="M55.19,32.07q1,2,2,4A56.79,56.79,0,0,0,40.74,49.74c-2.2,2.64-3.51,6.44-7.51,7.28.15-4.44,3.81-6.75,6.28-9.59A77.51,77.51,0,0,1,53.2,34.66C54.15,34,55.22,33.47,55.19,32.07Z"/><path class="cls-260" d="M72.19,80c-1.42-1.41-2.75-3-5-3h-.7a65.85,65.85,0,0,1-11.68-6.24C54,70,52.69,69.58,53.18,68c2.8-6.56,8.11-10.61,14.06-14,1.33,2,2.65,4,4,6,1.69,3.05,3.34,6.13,5.08,9.15C79.66,75.05,78.94,77,72.19,80Z"/><path class="cls-261" d="M53.18,68l2,2c.13,1.31-1.57,2-1.18,3.38a2.2,2.2,0,0,1-3.2-.82A1.62,1.62,0,0,1,51,71.15c1-2.21-1-2.53-2.17-3.21-1.79-1-3.76-1.82-4.67-3.9C47.7,64.24,49.68,67.85,53.18,68Z"/><path class="cls-262" d="M69.29,91.19c-.25.22-.49.62-.74.63-15,.39-29.94.5-44.91-.15a13.26,13.26,0,0,1-2.42-.57c-2.11-3-.52-6,0-9,1-6.73,3.68-12.93,6.28-19.14a4.27,4.27,0,0,1,2.67-2.73,5.08,5.08,0,0,1,4.1,1.8l-.28.66c-4.74,5.67-5.87,12.8-7.86,19.57C24.87,88.75,25,89,29.4,89.72c1.48,0,2.94,0,4.41,0,.77,0,1.53,0,2.29,0,1,0,2.07,0,3.11,0,.8,0,1.59,0,2.39,0,1.11-.09,2.22,0,3.33-.07,3.24-.13,6.47,0,9.71,0C59.54,90,64.69,88.05,69.29,91.19Z"/><path class="cls-263" d="M34.26,91l-5,.07c-1.84-2.44-1.67-5-.41-7.58,1.82-.78,2.31-2.41,3-4.14,1.85-4.88,3.18-10,6.16-14.4a.91.91,0,0,1,1.23.16A21.69,21.69,0,0,1,46.32,69a2.85,2.85,0,0,1-2.7.86c-2.79-.87-3.4,1.3-4.13,3.09a68.24,68.24,0,0,0-3.4,12.43C35.7,87.28,35.72,89.38,34.26,91Z"/><path class="cls-264" d="M39.16,65.07l-1,.08C34.9,68.85,33.92,73.63,32,78c-.73,1.46-.69,3.13-1.31,4.62l-.51.47c-2,2.46-.59,5.33-1,8-5.63-.2-6.47-2.08-4-9,1.05,1.15.29,2.53.44,3.39,1.34-8,3.42-16,8.45-23.08l.15-.32C35.89,63,37.91,63.42,39.16,65.07Z"/><path class="cls-265" d="M30.12,60.22c-4.13,10-9.29,19.62-8.9,30.88l-2,0a71.47,71.47,0,0,1,7.18-29.3c.53-1.13.86-2.59,2.58-2.6Z"/><path class="cls-266" d="M43.2,69.05l3.12,0,1.84,1.07a3.92,3.92,0,0,1-1,1c-4,3.36-4.78,8.13-5.55,12.85-.41,2.45-.32,5-2.27,6.91H36.14c-1.76-5.3,1-9.94,2.31-14.75C39.18,73.34,39.7,70.1,43.2,69.05Z"/><path class="cls-267" d="M47.14,70.18l1-.11L51,71.15a1.76,1.76,0,0,1,.34.86,26.21,26.21,0,0,0-4.85,12.11C46.12,86.52,46,89,44.22,91l-3.07-.09C39.83,83,43.26,76.53,47.14,70.18Z"/><path class="cls-268" d="M24.19,58.05c2.2,4.62-3,7.11-3.19,11-1.25-.08-.67-1.67-1.64-2Z"/><path class="cls-269" d="M70.18,53.09c0-.34,0-.69,0-1,2.31.88,2.14,3.75,4,5,.32.69.65,1.37,1,2.05a2,2,0,0,0-1,2l-2-2Z"/><path class="cls-270" d="M44.21,140c3.57,4.29,7.12,8.61,12.95,10-4.07,5.24-3.14,6.78-9.3,1.19-1.2-1.09-3-1.42-3.67-3.15,0-.34,0-.68,0-1-3-6-7.77-10.71-11.84-15.92l-.29-.14A8.67,8.67,0,0,1,37.15,128l.28.13C38.66,132.69,43.25,135.33,44.21,140Z"/><path class="cls-271" d="M32.36,131.11c1,0,2-.14,2.68.8L44.54,145A1.29,1.29,0,0,1,44.2,147c-2.87-4-7.07-6.85-9.68-11.11C33.58,134.38,32.28,133.08,32.36,131.11Z"/><path class="cls-272" d="M23.19,96l5,0c2.37,3.89,1,8.42,2.19,12.55.85,3,1.14,6.17,2.09,9.19s2.58,4.54,5.82,2.85a5.66,5.66,0,0,1,1.47-.25,3,3,0,0,1,1.42.45,1,1,0,0,1,.07,1.33l-10,5a1.89,1.89,0,0,1-2.92-.78C23.53,116.73,20.81,106.79,23.19,96Z"/><path class="cls-273" d="M23.19,96c.46,9.43.54,18.92,4.84,27.67.71,1.44,1.09,3.27,3.21,3.41l-4,2c-1.52-4.7-2.92-9.44-4.57-14.1-2.2-6.22-1.45-12.63-1.45-19Z"/><path class="cls-274" d="M41.24,122.08a5.36,5.36,0,0,1,0-1c.29-1.51,1.58-2,2.69-2.66a26.54,26.54,0,0,0,3.9-2.17,33.52,33.52,0,0,1,4.46-2.77,2.29,2.29,0,0,1,1.93.36c.64,3.72-4,3.87-4.56,6.78a5.46,5.46,0,0,1-3.54,3,2.71,2.71,0,0,1-2-.24l0-.48C43.45,121.82,42.28,122.16,41.24,122.08Z"/><path class="cls-275" d="M90.22,125.09a6,6,0,0,1,0,1c-1,1.87-.59,3.92-.45,5.83.28,3.75-1.7,4.85-4.81,4.3-4.16-.75-8.64-1-11.39-5-.47-3.77,2.89-6,3.7-9.3.59-1.34,1-2.89,2.85-3,1.06.69,1.08,2,1.67,2.94a4.4,4.4,0,0,0,3.76,2c2.26.12,1.15-1.87,1.68-2.84.7-1.27.69-3.52,3.19-2.77A5.59,5.59,0,0,1,90.22,125.09Z"/><path class="cls-276" d="M74.19,130c3.31,4.37,8.31,4.36,13,4.89,1.76.19,1.82-1.41,2-2.78.24-2-.8-4.31,1-6.1l-.06,14-.94,1c-2,1.78-4.33,1-6.58.59s-4.49-.95-6.8-1.1c-5.69-.36-6.33-1.36-4.3-6.6.23-.61.4-1.24.61-1.87C72.5,131.07,72.57,129.77,74.19,130Z"/><path class="cls-200" d="M94.05,129.09c-2.06,1-1.78,2.93-1.79,4.73q-.08,8.64-.13,17.28c-.32.39-.62.39-.88-.07q0-13-.07-25.94c-1-2.45-.25-5-.48-7.49a1.14,1.14,0,0,1,1.27-.81c1.61,1.26,2.06,3.26,3.1,4.88C95.53,124.25,96.25,126.88,94.05,129.09Z"/><path class="cls-276" d="M91.09,117.05l.09,8-.48,0-.48,0c-.48-2.33.87-4.93-1-7-1.27-.24-2.63-.4-1.91-2.29a3.12,3.12,0,0,1,2.89-.43C90.89,115.68,91.51,116.09,91.09,117.05Z"/><path class="cls-199" d="M91.25,151a8.69,8.69,0,0,1,.88.07c0,.64.05,1.28.08,1.92a23.49,23.49,0,0,1-1,8c-1.84.1-1.62-.83-1-2C91.71,156.53,90.9,153.7,91.25,151Z"/><path class="cls-193" d="M90.2,159.05a2,2,0,0,0,1,2l.06,1-1.06,1C89.69,161.7,88.36,160.36,90.2,159.05Z"/><path class="cls-277" d="M73.12,131.89c-2.66,5.82-1.26,8.16,5.54,7.63,3.39-.27,6.9,1.67,10.53,1.52.66,4.75-1.55,5.76-5.76,4.63a83.07,83.07,0,0,0-11-2.34c-2.92-.37-3.44-2-3.25-4.36C68.46,135.48,70,133.25,73.12,131.89Z"/><path class="cls-278" d="M73.12,131.89c-1.64,2.18-3.29,4.36-4,7.08l-1.93.17c1.7-6.37,6.13-11.31,8.92-17.11a2.5,2.5,0,0,1,1.88,0l-3.84,8Z"/><path class="cls-279" d="M90.18,167c-.22,2.18-1.89,2.28-3.31,1.86-5.16-1.54-10.66-1.72-15.68-3.86.22-.7-1.92-2.09-.38-1.71C77.22,164.89,83.75,165.7,90.18,167Z"/><path class="cls-280" d="M44.15,123.41l2-.45c3,6,6.26,11.63,13.82,12.91a14.08,14.08,0,0,1,4.37,2.21,2.19,2.19,0,0,1-1.15,2c-5.35,3.86-7.28-2.63-11.19-3.69.59,1.76,1.61,3.94-1.84,2.68-2.1-.95-2.6-3.28-4.17-4.75C42.73,131.23,38.68,128.07,44.15,123.41Z"/><path class="cls-281" d="M44.21,140c-2.3-3.95-7.73-6.1-6.78-11.9,4.75,2.43,5.54,8.1,9.21,11.51C47.34,140.3,45,139.6,44.21,140Z"/><path class="cls-282" d="M77.12,116.91c-.35.38-.7.76-1.06,1.13-2.13,1.51-2.23,4.53-4.45,6a2,2,0,0,1-1.24.58c-3.53-2.64-7.33-5.09-7.8-10.11a13.31,13.31,0,0,1,2-3.62,6.28,6.28,0,0,1,1.48-1.43c2.24-1,4.11-2.82,6.62-3.3a4.86,4.86,0,0,1,2,.23,3.69,3.69,0,0,1,1.13.78c1.17,1.68,2.73,3,3.83,4.78A4.64,4.64,0,0,1,80,113.3C79.88,115.16,79.14,116.55,77.12,116.91Z"/><path class="cls-283" d="M65.22,111.42a3,3,0,0,1-2,2.65c-2.55,3.08-1.87,5.72,1.65,7.07,2.2.85,2.68,5.48,6.34,2.9a.71.71,0,0,1,1.23.09c-.17,1.59-.47,3.12-2.08,4-3,4.62-5.7,5.06-10,1.58a27.22,27.22,0,0,1-3.71-4c-4.05-4.93-4-5.84.54-10.24C59.75,113.89,61.14,109.93,65.22,111.42Z"/><path class="cls-284" d="M58.18,116c-4.55,4.68-4.54,4.76,1.92,11.77,3.52,3.83,5.95,3.91,10.24.32.14,2.3-1.08,3.83-2.87,5-3.5,4.45-3.73,4.45-8.56,1a41.28,41.28,0,0,1-7.6-7.11c-2-2.38-2.68-4.75-1.37-7.61C52.45,117.68,54.4,114.61,58.18,116Z"/><path class="cls-285" d="M50.34,120.08c-1.26,3.29,1.27,5.21,2.86,7.33s4.22,3.68,6.2,5.6c3,2.86,5.33,3.05,8.07.12-.67,1.88-1.27,3.79-3.09,5-6.95,0-12.27-3.18-16-8.86-1.18-1.8-4.32-3.2-2.19-6.26l3.23-2.7C49.63,119.73,49.94,119.69,50.34,120.08Z"/><path class="cls-286" d="M77.12,116.91c.49-1.41,2.14-2.17,2.12-3.86,1.33-1.16,1.61-3,2.92-4.24a1.83,1.83,0,0,1,1.3.12,6.53,6.53,0,0,1,2.06,4.88c-.46,1-1.66,1.33-2.19,2.29-.82,1.23-1.45,2.67-3.11,3.05L78,122.05c-.62.13-1.26,1.12-1.88,0C76.31,120.3,77.66,118.78,77.12,116.91Z"/><path class="cls-287" d="M72.42,124.13,71.19,124c1.92-1.76,1.87-5.12,4.87-6C75.1,120.22,74.55,122.65,72.42,124.13Z"/><path class="cls-288" d="M94.05,129.09q0-4.07,0-8.14a4.51,4.51,0,0,1-.23-4.78,2,2,0,0,1,1.53-.61,1.43,1.43,0,0,1,1.24,1q.08,7.6,0,15.22a26.33,26.33,0,0,1,0,3.44c-.16,1.72.09,3.57-1.47,4.87l-.81-.08C94.22,136.37,94.14,132.73,94.05,129.09Z"/><path class="cls-191" d="M95.12,140.09l.15-5.1c.93-.11,1.38.46,1.73,1.19a13.82,13.82,0,0,1,.46,4.48,33.5,33.5,0,0,1-.31,5.1,3.74,3.74,0,0,1-.65,1.29,1,1,0,0,1-1.27,0C95.19,144.7,95.16,142.4,95.12,140.09Z"/><path class="cls-288" d="M95.23,147c.31,0,.63,0,.94.05,1.46,1.34,1.32,3.12,1.31,4.86a4.13,4.13,0,0,1-1.3,3.12l-.94,0Q95.23,151,95.23,147Z"/><path class="cls-289" d="M146.21,126.94l2,1.09c4.09,2.62,3.4,5,.47,8.48a126.86,126.86,0,0,1-16,15.51c-1.65,1.39-2.89,1.34-3.63-1a13.28,13.28,0,0,0-1.83-2.94c8.81-3.64,14.27-10.87,19.52-18.3C147.4,128.76,146.41,127.87,146.21,126.94Z"/><path class="cls-290" d="M141.17,124.07c-2.47,8.36-9.35,13-15.71,17.87-1.86,1.43-1.73-3.34-4.18-2.91a1,1,0,0,1-.33-.81c0-.3.07-.45.13-.45,2.14-2.34,4.84-4,7.2-6.11,3.59-3.18,7.05-6.48,6.19-12C137.61,119.76,140.18,120.71,141.17,124.07Z"/><path class="cls-291" d="M141.17,124.07a24.8,24.8,0,0,0-7-4.07,4.05,4.05,0,0,1-2.43-.51c-.92-.54-1.82-1.11-1.91-2.34.32-2.34-3.73-2.51-2.63-5.25,4,.86,6.7,4.45,10.74,5.27l1.21.89,5,3,5,3.1c.31.2.42.41.31.61s-.21.31-.31.31c-1.68.19-3.39-2.32-5,.06Z"/><path class="cls-119" d="M121,138.12a1.26,1.26,0,0,0,.29.91l2,5c-2.83-1.49-3.08-4.87-5.08-7a1.46,1.46,0,0,1,1.09-.54A1.79,1.79,0,0,1,121,138.12Z"/><path class="cls-292" d="M96.18,155v-3c1.6-2,4-1.9,6.19-2.42,5.8-1.34,12-2,15.81-7.6a7.44,7.44,0,0,1,2.1,3.8c1.55,3.21.59,5.52-2.63,6.81-5.56,2.22-11.42,3.35-17.28,4.47A4.59,4.59,0,0,1,96.19,156C96.19,155.71,96.19,155.37,96.18,155Z"/><path class="cls-288" d="M96.19,156c7.62,0,14.65-2.81,21.85-4.68,2.4-.63,2.17-3.39,2.25-5.53a9.21,9.21,0,0,1,2.89,5.22c-4.89,4.61-11.36,5.29-17.41,6.95a41.69,41.69,0,0,1-5.79,1C97.81,159.26,95.93,159,96.19,156Z"/><path class="cls-293" d="M155.21,132a1.77,1.77,0,0,1,.93.16c0,4.85-3.67,7.66-6.46,10.71-4.56,5-9.68,9.4-14.56,14.06-1.1.07-2.23.27-3-.89A138.74,138.74,0,0,0,155.21,132Z"/><path class="cls-191" d="M118.19,142c.42,3.14-1,4.55-4,5.65a90.38,90.38,0,0,1-18,4.37c0-1.66,0-3.32,0-5l0,0c2.91-2.18,6.43-2.61,9.82-3.39,3.77-.87,7.41-1.94,10.25-4.78A4.69,4.69,0,0,1,118.19,142Z"/><path class="cls-294" d="M116.27,138.86c.08,1.84-.57,3.21-2.44,3.81A99,99,0,0,1,96.2,147c0-2,0-4,0-6,5.82-2.48,12.42-2.54,18-5.87C114.85,136.4,115.56,137.63,116.27,138.86Z"/><path class="cls-295" d="M114.15,135.17c-3.69,5.27-9.69,4.66-15,5.84a14.3,14.3,0,0,1-3,0c0-1.67,0-3.33,0-5,1.56-1.6,3.7-1.14,5.58-1.59,3.4-.8,6.71-1.75,9.18-4.45.87-.2,1.52-.13,1.26,1Z"/><path class="cls-296" d="M112.2,131l-1-1c-2.25-.82-2.59-3.19-3.91-4.77-1-1.91-2.07-3.82-1.77-6.12,3.4-3.25,3.65,1.13,5.29,2.17a12.94,12.94,0,0,1,1.14,1.85c.34,2,2.77,3.5,1.26,5.88A2.06,2.06,0,0,1,112.2,131Z"/><path class="cls-297" d="M113.2,129.05c-.06-2.2-2.59-3.55-2-6,1-.57,1.7.07,2.38.7a7.8,7.8,0,0,1,.78,1.1c1.3,2.86,3.16,5.39,4.64,8.15.5,1.28,1.35,2.53.36,3.94l-1.12,0C116.77,134.22,115.48,131.32,113.2,129.05Z"/><path class="cls-209" d="M149.15,125.08c0-.31,0-.62,0-.92l4.1,1.85c0,.33,0,.66,0,1A5.74,5.74,0,0,1,149.15,125.08Z"/><path class="cls-56" d="M166.17,115.91c0-1.86-.17-3.75,1.79-4.89l-.87,4.9-.46.06Z"/><path class="cls-298" d="M69.29,91.19,54.21,91a13.53,13.53,0,0,1,4.18-14.74,7.14,7.14,0,0,1,4.59.88c1.29.75,2.73,1.35,3.23,3L72,84.13q-.89,3-1.79,5.91Z"/><path class="cls-299" d="M48.26,117.07a6.21,6.21,0,0,1-4,2c-1.41.56-2.95.84-4.11,1.92-.33,0-.65,0-1,.06a1.69,1.69,0,0,1-2.58-.5c-3.9-7.81-6.38-15.86-3.44-24.64,12-.79,24-1.53,36,.1-3.24,2.53-7,1.15-10.55,1.41-1.75,0-3.51.12-5.25,0s-3.38.07-5.06,0-3.18,0-4.76,0c-2.93-.28-4.19,1-4.08,4,.16,4.33,1.78,8.32,2.68,12.47C42.93,117.22,46.61,115.28,48.26,117.07Z"/><path class="cls-300" d="M33.19,95.94c0,7.51.43,15,3.48,22,.54,1.26.49,3.07,2.54,3.13-5.56,2.93-5.78,3-7.79-2.69A61.54,61.54,0,0,1,28.18,96C29.85,95.67,31.51,95,33.19,95.94Z"/><path class="cls-301" d="M58.24,96.24l11-.2,1,1c1.78.81,2.07,2.39,2.14,4.1-.07,3.54-2.3,5.15-5.37,6-1.92.34-3.8,1-5.83.52-2.38-.58-4.31-2.13-3.55-4.43S57.56,98.51,58.24,96.24Z"/><path class="cls-302" d="M66.42,106.14c2.67-.72,5.18-1.59,5-5.1,1.08-1,2.79-.82,3.81-2l.9-7c2.7,2.15,5.37-.92,8.06,0l-4,6a5,5,0,0,0,1.89,2.45c1.52,1.35,3.78,1.11,5.3,2.46a3,3,0,0,1-.88,3.18c-2.41.86-3.88-1-5.68-1.94-1.3-.68-2.42-2.57-4.16-.7A6.22,6.22,0,0,1,72.75,106c-2.31.41-3.92,2.5-6.34,2.66a2.67,2.67,0,0,1-1.31-.48C64.65,106.94,65.54,106.54,66.42,106.14Z"/><path class="cls-303" d="M84.19,92.05c-2.6-.14-3.18,2.57-5,3.64-1.53-.84-1.08-3.29-3.08-3.59L75.27,91l1.29-.25c2.59-2.19,5.07-1,7.55.23C84.14,91.34,84.16,91.7,84.19,92.05Z"/><path class="cls-304" d="M75.23,99.07c.31,3.73-2,2.36-3.81,2l-1.17-4C72.82,95.48,73.44,98.71,75.23,99.07Z"/><path class="cls-305" d="M118.09,45l-1.88,1.08c-4.88-4.38-11.25-4.6-17.15-5.84-3.92-.83-2.55,2.8-2.86,4.83.25.91-.11,1.21-1,1,0-3.33,0-6.66,0-10,5.49-2.23,10.57.19,15.73,1.45,1.26.31,2.38,1.24,3.64,1.48C118.18,39.65,119.54,41.46,118.09,45Z"/><path class="cls-306" d="M95.21,46.06l1-1c3.73-.18,7.14,1.37,10.68,2.15,6.37,1.41,6.84,2.64,4.21,8.89-1.94,1.13-3.5-.14-5-1-6.78-4-6.76-4.08-10,3,0,1.32,0,2.65,0,4-.35.39-.69.42-1,0Q95.18,54.06,95.21,46.06Z"/><path class="cls-258" d="M95.13,62h1c2.72.28,5.71-.76,8.91,2-3.92-.15-6.86-1.42-9.9-1C95.16,62.72,95.15,62.38,95.13,62Z"/><path class="cls-306" d="M107.23,64.11l1-4.06c-.22-2.07.06-3.7,2.8-3.11l.32.19C110.38,59.71,109.47,62.3,107.23,64.11Z"/><path class="cls-307" d="M136.16,93.07l-3,0-1-.87,26-.09c-4.73,2.12-9.72.52-14.57.94C141.14,93.23,138.64,93.06,136.16,93.07Z"/><path class="cls-308" d="M102.21,90.06c-2.29-1.92.14-2.74.91-4,2.23-.55,3,1,2.81,2.59C105.61,90.77,103.55,89.81,102.21,90.06Z"/><path class="cls-236" d="M100.18,85.06c-1.61-1.1-4.08-.75-5-3C96.89,83,100.12,81.33,100.18,85.06Z"/><path class="cls-309" d="M84.11,91l-7.55-.23c-.46-1.91-.49-3.68,1.61-4.72l3,0c-.9,2.81,1.33,2.51,2.88,2.89.06.4.13.81.19,1.21A5.75,5.75,0,0,1,84.11,91Z"/><path class="cls-234" d="M84.16,98c-1.61-3.45,1.16-5,3-7l0,0C89,94.32,89,97,84.9,98.44Z"/><path class="cls-234" d="M81.14,101.09c-1.06-.79-2.88-1.33-1-3.06,1.33.06,2.66,1,4,0l0,0c.7.93,2.23,1.11,2.31,2.59a1.81,1.81,0,0,1-1,1.07A7,7,0,0,1,81.14,101.09Z"/><path class="cls-310" d="M84.1,89a8.93,8.93,0,0,1-1.29.69c-1.47.54-3.14.79-3.94-.75-1.18-2.31,2-1.5,2.35-2.83C83.05,86.19,84.14,87,84.1,89Z"/><path class="cls-311" d="M110.22,99a3.54,3.54,0,0,1-2,2c-2.64-.57-2.62,2.51-4.36,3.18l-.65-.19c.17-6.9.9-7.52,7-6C110.19,98.38,110.21,98.7,110.22,99Z"/><path class="cls-312" d="M86.19,100.07a1.83,1.83,0,0,1-2-2c3.71-1.17,2.82-4.32,3-7,4.08-.88,8.23-2.55,11.94,1-1.7,2.06-5,2-6.45,4.84,1.5,1.42,2.92.7,4.33-.13,1-.56,1.86-1.63,2.92-.14,1.35,3.16.38,4.91-3.11,4.72S89.51,102.4,86.19,100.07Z"/><path class="cls-313" d="M99.19,96.05a7.24,7.24,0,0,1-1.31,2c-2.31,1.72-5.48,1.93-7,.1S92.31,95,93.7,93.93a7.56,7.56,0,0,1,5.45-1.86l1.09,2C100.71,95.16,100.09,95.68,99.19,96.05Z"/><path class="cls-314" d="M99.19,96.05l1-2a2.19,2.19,0,0,1,1,2c-.56,2.24,1.68,5.92-3.07,6a2.74,2.74,0,0,1-1.57.45c-3.43-.71-7.2.91-10.38-1.51v-1c3.27,0,6.63-.5,9.78.12C100.51,101.08,100.24,99.07,99.19,96.05Z"/><path class="cls-315" d="M97.17,102c.32,0,.64.09,1,.12,0,.29.08.59.11.88.2,1.52,2.11,2.77.7,4.54a6.51,6.51,0,0,1-2.07.91,22.24,22.24,0,0,1-6.33.93c-1.94-.48-5.07.58-4.39-3.34l1-3C90.21,100.23,93.76,101.78,97.17,102Z"/><path class="cls-311" d="M97.19,107.07l2-.07a5.79,5.79,0,0,1,2-2.93l2,0,0,0c.88.79,2.26.86,2.92,2l.1,0C102.58,111.19,99.44,111.54,97.19,107.07Z"/><path class="cls-316" d="M101.15,104.07a2.79,2.79,0,0,1-2,2.93c-.14-1.37-3.14-2.08-.93-4Z"/><path class="cls-317" d="M103.18,31.08c1,1.45,2.62.84,4,1-2.11,2.14-8.63,1.53-11-1h0A10.93,10.93,0,0,1,103.18,31.08Z"/><path class="cls-237" d="M103.18,31.08l-7,0A5.73,5.73,0,0,1,103.18,31.08Z"/><path class="cls-258" d="M111,56.94c-1.75.3-2.11,1.86-2.8,3.11-3.78-2-8.19-.16-12-2,.53-2.27-1.44-5.58,1.48-6.66a7.73,7.73,0,0,1,8.56,2.07c1.21,1.27,3.22,1.78,4.87,2.63A2.38,2.38,0,0,1,111,56.94Z"/><path class="cls-318" d="M127.22,111.9c.41,1.85,2.31,2.09,3.44,3.16s1.31,1.81-.55,2c-1.2.57-2.25,0-3.32-.45-3.94-2.25-7.71-4.8-11.76-6.88-.92-.67-2.14-1.14-1.92-2.64-.65-2-5.43-.88-3.71-3.62,1.49-2.37,3.47,1.94,5.73,1.57L126,110.3C126.44,110.83,126.83,111.36,127.22,111.9Z"/><path class="cls-149" d="M129.2,111l-3-1.08c1.94-2.28,2.51-5.17,3.41-8.28C131.18,105.16,128.65,108,129.2,111Z"/><path class="cls-319" d="M113.11,107.12l2.07,1.95c2.54,1.43,5,3,5.44,6.21.15,4.53-4.25,5.54-6.42,8.29a2.84,2.84,0,0,1-1.18.67l-1.85-1.14-.93-1c-.47-2.28-2.52-3.76-3-6C106,111.71,108.06,108.66,113.11,107.12Z"/><path class="cls-320" d="M97.19,107.07c3.54,4.37,6.22,1.06,9-1,.59.41,1,1.34.51,1.58-5.14,2.53-2.06,5.5-.55,8.39a1.78,1.78,0,0,1-2,1.33,8.83,8.83,0,0,1-2.14-1.49c-2.29-1.16-4.56-.14-6.83.08a2.15,2.15,0,0,1-.78.28c-1.11-.65-1.6.47-2.35.83-.33,0-.65,0-1,0l-.9-1c-1.47-1.17-3.76-.32-5-2-.67-1.65-1.34-3.29-2-4.94,2.45-2.11,5.51.77,8-1Z"/><path class="cls-321" d="M106.13,106c-1.43,0-2.86,0-2.92-2a22,22,0,0,1,2.05-3.88c1.39-1.73,2.5-1.35,2.91.85C108.06,102.93,106.94,104.42,106.13,106Z"/><path class="cls-322" d="M104.22,117l2-1h1a7.11,7.11,0,0,1,3,6c-1.76-.36-1.19-4.39-4.24-2.69C104.64,119.17,103.73,118.64,104.22,117Z"/><path class="cls-251" d="M86.19,26.06c-1.75,1.81-4,.68-6,1C82,25.25,84.19,26.38,86.19,26.06Z"/><path class="cls-323" d="M66.21,80.05l-3.12-1.71c-.37-.68-1.29-1.29-.78-2.14s1.41-.74,2.17-.25,1.91.49,2.71,1.11h0C67.7,78.33,70.31,80.28,66.21,80.05Z"/><path class="cls-256" d="M67.19,77.06c-.93,1.81-4.15-3.68-4.1,1.28l-3.52-1.45c-1.93-1.07-5.06-.43-5.4-3.78-1.06-1.5.37-2.17,1-3.09C59.2,72.37,63.67,73.9,67.19,77.06Z"/><path class="cls-324" d="M54.17,73.11l5.4,3.78C54,80.14,55,85.9,54.21,91h-10a55.19,55.19,0,0,1,3.21-15.19c.7-1.86,1.49-3.71,4-3.76Z"/><path class="cls-325" d="M43.2,69.05c-4.41,6.61-6,14.14-7.06,21.82L34.26,91A55,55,0,0,1,40,69.08C41.38,66.32,42.11,67.3,43.2,69.05Z"/><path class="cls-326" d="M34.07,62.34c-.12,3.4-2,6.34-3.39,9.12C28.14,76.4,28,81.93,25.18,87.78V82a53.62,53.62,0,0,1,5.46-16.85C31.37,63.78,31.77,61.88,34.07,62.34Z"/><path class="cls-327" d="M47.14,70.18c-.36,4.56-3.16,8.27-4.47,12.52a24.31,24.31,0,0,0-1.52,8.17H39.3c1-6.32,1.3-12.75,4.59-18.55C44.75,70.79,45.34,69.82,47.14,70.18Z"/><path class="cls-328" d="M31.19,78.05c1.71-4.62,1.64-10.21,6.94-12.9C36.94,71.58,32.89,77,31.94,83.59c-.3,2.12-1.43.73-1.74-.54C31.43,81.56,30,79.55,31.19,78.05Z"/><path class="cls-263" d="M31.19,78.05c-.22,1.69.67,3.6-1,5C30.42,81.36,29.55,79.46,31.19,78.05Z"/><path class="cls-300" d="M40.19,121c.82-1.81,2.35-2.11,4.11-1.92l-3,2Z"/><path class="cls-329" d="M48.26,117.07c-6.78,1-6.74.94-8.13-6.23-.65-3.35-1.94-6.49-2.06-10-.14-4.18,1.5-5.28,5.19-4.59,2.08,3.88,1.36,8.29,2.26,12.4.74,3.39,2,5.43,5.8,4.73a2.24,2.24,0,0,1,1.14.87Z"/><path class="cls-330" d="M52.46,114.21l-1.25-.2c-4-3.55-5.48-12.4-3-17.81l5,0c1.66,1.76,1.08,4,1.25,6.07.27,3.25,1,6.18,4.54,7.39.85,1,.28,1.75-.3,2.54-1.35,1.06-2.77,1.93-4.61,1.62Z"/><path class="cls-331" d="M54.11,113.85l3.84-2c2.36-1,4.19-3.11,7-3.2a2.09,2.09,0,0,1,1.46,1.45c-.39.43-.78.85-1.16,1.28-3,.57-4.66,3.11-7,4.58a27.32,27.32,0,0,0-7.85,4.08,2.83,2.83,0,0,0-.91.18c-1.54-1.69.35-2.16,1.14-2.77C51.92,116.42,53.62,115.74,54.11,113.85Z"/><path class="cls-332" d="M80.22,119.15l2-4c1.87-.88,3.62-1.12,5,.9l2,2c.72,1.77-2.12,3.18-.29,5.33.82,1-1,2.24-2,2-2.4-.55-5.5-.12-6.57-3.26A9.78,9.78,0,0,1,80.22,119.15Z"/><path class="cls-333" d="M92.07,117.06c.32-1.15-.55-3,1-3.34s1,1.6,1.35,2.51c-.13,1.58-.26,3.15-.38,4.72C91.48,120.62,92.51,118.47,92.07,117.06Z"/><path class="cls-334" d="M87.19,116c-1.59-.65-3.16-1.39-5-.9.61-1.36,1.86-1,3-1.14,1.93,0,3.72.42,5,2Z"/><path class="cls-287" d="M71.19,124c-1,2.06-2,4.43-4.13.77A7.31,7.31,0,0,0,63.77,122c-4.59-2.31-4.72-5-.57-7.93C63.89,119,68.29,120.91,71.19,124Z"/><path class="cls-320" d="M82.2,109c.08,2.13-.38,3.86-3,4,0-.33,0-.67,0-1-.85-2.07-1.3-4.5-4.21-4.75l.09,0c-.93-1.41-.16-2.37.85-3.27C79.84,103.39,81.22,106,82.2,109Z"/><path class="cls-335" d="M66.38,110.14l-1.18-1.07c.09-.62.68-.68,1.09-.95l5.94-2.92c.64.42,1.5.72,1,1.77C70.47,107.07,69.26,110.39,66.38,110.14Z"/><path class="cls-336" d="M75,107.3c4.7-1.34,4.71,1.48,4.21,4.75C77.62,110.61,75.66,109.52,75,107.3Z"/><path class="cls-337" d="M73.18,107c-.31-.59-.63-1.18-1-1.77q2-1,3.94-2.12a.57.57,0,0,1,.26.58c-.05.22-.11.32-.17.32l-1.19,3.27Z"/><path class="cls-338" d="M76.26,104q-.06-.45-.09-.9c.21-1.54-.26-3.93,2.62-1.92,2.42,1.68,4.91,3.26,7.37,4.88.67,3.17,3.25,1.6,5,2-2.47,1.91-5.34.57-8,1l-.49,0H82.2C80,107.57,79.09,104.66,76.26,104Z"/><path class="cls-339" d="M104.22,117c-.07,1.28,1,1.66,1.78,2.33a12,12,0,0,0,2.31,5.37c1,2.67.08,4.47-2.43,5.6-3.34,1.51-6.71,2.87-10.48,1.6.18-5.27-1.24-10.62.87-15.78,2.14-1.35,4.33-2.35,6.86-1C103.5,115.79,103.86,116.42,104.22,117Z"/><path class="cls-283" d="M95.4,131.94c3-1.48,6.41-.95,9.5-2.5,2.29-1.14,3.46-2.25,3.4-4.7l2.89,5.3c-1,5.9-6.57,4.26-10.11,5.87-1.36.63-3.25.12-4.9.13l-.91-1C95.31,134,95.36,133,95.4,131.94Z"/><path class="cls-340" d="M103.13,115.17c-2.43-.69-4.53.93-6.86,1L95.2,116C97.68,114,100.23,112.84,103.13,115.17Z"/><path class="cls-341" d="M119.33,137c-.47-1.29-.93-2.57-1.4-3.85,6-3.47,10.46-8.5,14.28-14.17l2,1c2,2.25,2.28,4.31.16,6.88-3.79,4.6-8,8.62-13.36,11.24Z"/><path class="cls-342" d="M132.21,119c-1.26,6.09-8.16,12.95-14.28,14.17a29.39,29.39,0,0,1-4.64-8.1c7.26,2.75,9.71-2.9,12.82-7.36a9.19,9.19,0,0,1,1.07-1.61l2.93,1Z"/><path class="cls-343" d="M127.18,116.07c-.13,2.9-6.67,11.85-9.24,12.43-2.79.63-2-3.75-4.65-3.46a.86.86,0,0,1-.27-.8l.24-.32a29.1,29.1,0,0,0,6.77-5.74c.8-1,2-2,.15-3.14l-.89.33c.31-3.2-3.06-4-4.11-6.3C119.6,110.68,123.39,113.38,127.18,116.07Z"/><path class="cls-344" d="M48.24,96.2c0,6.1.19,12.17,3,17.81-4.48,1.85-6.08,1-6.88-4.5-.64-4.4-1.72-8.79-1.07-13.3Z"/><path class="cls-345" d="M59.41,110.14c-5.67,1.63-5.25-3.26-6-6.13-.68-2.42-.14-5.18-.13-7.79l5,0c.64,2.05,3.86,4,.18,6.35-.39.26-.12,3.11,2.33,3.92,2.17.71,3.79-.57,5.67-.37l-1.54,1.76C63.37,109.41,61.83,110.85,59.41,110.14Z"/><path class="cls-230" d="M97.17,102c-3.33.45-6.85-.77-10,1.09-2.25.07-4.4-.15-6-2l5,0C89.83,101.55,93.66,100,97.17,102Z"/><path class="cls-346" d="M59.41,110.14l5.47-2.24,1.41.22-1.09.95c-2.2,1.51-4.47,2.81-7.25,2.82Z"/><path class="cls-347" d="M120.18,115c1.47-1.23,3.47-1.52,2.28.93-1.79,3.72-4.17,7.6-9.2,8-.09-2.8,2.83-2.88,4.07-4.49C118.41,118,120.19,117.13,120.18,115Z"/><path class="cls-348" d="M51.34,88.22c-.19-3.73,0-7.49,1.66-11,.4-.83.38-2.24,1.82-1.65s.69,1.6.33,2.54C53.87,81.49,52.61,84.86,51.34,88.22Z"/><path class="cls-349" d="M100.53,117.09c1.53.06,2.78.38,2.35,1.6-.7,2-2.83,1.89-4.51,2.24-1,.21-2.23-.28-1.88-1.54C97.11,117.2,99.57,118.07,100.53,117.09Z"/></g></g></svg>