<svg xmlns="http://www.w3.org/2000/svg" viewBox="0 0 185.24 187.02"><defs><style>.cls-1{fill:#fefefe;}.cls-2{fill:#574124;}.cls-3{fill:#fdfdfd;}.cls-4{fill:#e4caa4;}.cls-5{fill:#5e4627;}.cls-6{fill:#594224;}.cls-7{fill:#634b27;}.cls-8{fill:#5a4224;}.cls-9{fill:#705731;}.cls-10{fill:#684616;}.cls-11{fill:#563f23;}.cls-12{fill:#6c512c;}.cls-13{fill:#614724;}.cls-14{fill:#704a15;}.cls-15{fill:#785d32;}.cls-16{fill:#483620;}.cls-17{fill:#362d24;}.cls-18{fill:#362c24;}.cls-19{fill:#765330;}.cls-20{fill:#9e7b48;}.cls-21{fill:#a07f4b;}.cls-22{fill:#b5955e;}.cls-23{fill:#8f6d40;}.cls-24{fill:#8a6f3e;}.cls-25{fill:#755630;}.cls-26{fill:#a2804d;}.cls-27{fill:#423519;}.cls-28{fill:#b4a669;}.cls-29{fill:#342a1f;}.cls-30{fill:#dbc990;}.cls-31{fill:#d2be87;}.cls-32{fill:#9d7948;}.cls-33{fill:#cdb278;}.cls-34{fill:#d0ba83;}.cls-35{fill:#c3ad73;}.cls-36{fill:#745f37;}.cls-37{fill:#e7d99a;}.cls-38{fill:#9a7745;}.cls-39{fill:#7d5a33;}.cls-40{fill:#795b33;}.cls-41{fill:#866239;}.cls-42{fill:#906c3f;}.cls-43{fill:#cab57c;}.cls-44{fill:#bd9f69;}.cls-45{fill:#66552a;}.cls-46{fill:#967242;}.cls-47{fill:#ba985e;}.cls-48{fill:#c3ad75;}.cls-49{fill:#7c6835;}.cls-50{fill:#86633a;}.cls-51{fill:#a4834d;}.cls-52{fill:#bca66e;}.cls-53{fill:#6f4d2d;}.cls-54{fill:#816036;}.cls-55{fill:#a17f4b;}.cls-56{fill:#e3d49b;}.cls-57{fill:#b79862;}.cls-58{fill:#dac890;}.cls-59{fill:#dbca93;}.cls-60{fill:#3e2f1d;}.cls-61{fill:#735a34;}.cls-62{fill:#dac992;}.cls-63{fill:#bc9c64;}.cls-64{fill:#d7c28d;}.cls-65{fill:#856138;}.cls-66{fill:#987342;}.cls-67{fill:#88643a;}.cls-68{fill:#997544;}.cls-69{fill:#866339;}.cls-70{fill:#453b30;}.cls-71{fill:#664a2b;}.cls-72{fill:#514122;}.cls-73{fill:#8f8042;}.cls-74{fill:#8b693e;}.cls-75{fill:#4e4235;}.cls-76{fill:#bfaf74;}.cls-77{fill:#7e5c36;}.cls-78{fill:#8a683b;}.cls-79{fill:#4a3e2f;}.cls-80{fill:#7b643e;}.cls-81{fill:#bba96e;}.cls-82{fill:#b8a86f;}.cls-83{fill:#937542;}.cls-84{fill:#634e31;}.cls-85{fill:#c2b075;}.cls-86{fill:#544424;}.cls-87{fill:#6a5435;}.cls-88{fill:#8d6a3e;}.cls-89{fill:#997947;}.cls-90{fill:#917341;}.cls-91{fill:#ab8a53;}.cls-92{fill:#ccb178;}.cls-93{fill:#5a4d27;}.cls-94{fill:#c5a46c;}.cls-95{fill:#b8a76d;}.cls-96{fill:#ccb077;}.cls-97{fill:#9c7d4a;}.cls-98{fill:#dac991;}.cls-99{fill:#d3bc84;}.cls-100{fill:#9d7a47;}.cls-101{fill:#806535;}.cls-102{fill:#544827;}.cls-103{fill:#8e693d;}.cls-104{fill:#5e4c31;}.cls-105{fill:#4e4233;}.cls-106{fill:#bcab6f;}.cls-107{fill:#322615;}.cls-108{fill:#947242;}.cls-109{fill:#614f28;}.cls-110{fill:#baa96f;}.cls-111{fill:#342915;}.cls-112{fill:#312715;}.cls-113{fill:#39322b;}.cls-114{fill:#504739;}.cls-115{fill:#bf9e64;}.cls-116{fill:#473d31;}.cls-117{fill:#b2a265;}.cls-118{fill:#bea067;}.cls-119{fill:#312b27;}.cls-120{fill:#4a4033;}.cls-121{fill:#8f6b3e;}.cls-122{fill:#6d583b;}.cls-123{fill:#614e2a;}.cls-124{fill:#cbb982;}.cls-125{fill:#2e2413;}.cls-126{fill:#998a4f;}.cls-127{fill:#906e40;}.cls-128{fill:#75512e;}.cls-129{fill:#ab8952;}.cls-130{fill:#c3a46b;}.cls-131{fill:#504128;}.cls-132{fill:#826236;}.cls-133{fill:#c2a66e;}.cls-134{fill:#d8c48d;}.cls-135{fill:#3c2f19;}.cls-136{fill:#564838;}.cls-137{fill:#9c8c5a;}.cls-138{fill:#635036;}.cls-139{fill:#918c7c;}.cls-140{fill:#918d82;}.cls-141{fill:#938e81;}.cls-142{fill:#8c8778;}.cls-143{fill:#80693d;}.cls-144{fill:#2e2a28;}.cls-145{fill:#979283;}.cls-146{fill:#604d35;}.cls-147{fill:#979389;}.cls-148{fill:#332c27;}.cls-149{fill:#4f463a;}.cls-150{fill:#574c3c;}.cls-151{fill:#9b9788;}.cls-152{fill:#888374;}.cls-153{fill:#7f633a;}.cls-154{fill:#998a6f;}.cls-155{fill:#504d47;}.cls-156{fill:#5e5b53;}.cls-157{fill:#57544e;}.cls-158{fill:#4a4841;}.cls-159{fill:#4a4741;}.cls-160{fill:#423f39;}.cls-161{fill:#4a3b26;}.cls-162{fill:#3a322b;}.cls-163{fill:#453826;}.cls-164{fill:#3c3831;}.cls-165{fill:#cfbf86;}.cls-166{fill:#473a27;}.cls-167{fill:#5b4929;}.cls-168{fill:#785b37;}.cls-169{fill:#433f38;}.cls-170{fill:#3f352a;}.cls-171{fill:#917444;}.cls-172{fill:#6a5336;}.cls-173{fill:#979384;}.cls-174{fill:#aaa596;}.cls-175{fill:#b6b1a0;}.cls-176{fill:#c2bdab;}.cls-177{fill:#938f80;}.cls-178{fill:#51473a;}.cls-179{fill:#806947;}.cls-180{fill:#755f40;}.cls-181{fill:#352d16;}.cls-182{fill:#b0ab9b;}.cls-183{fill:#665237;}.cls-184{fill:#9c9a91;}.cls-185{fill:#7f6845;}.cls-186{fill:#3f352c;}.cls-187{fill:#999586;}.cls-188{fill:#746249;}.cls-189{fill:#99968b;}.cls-190{fill:#625035;}.cls-191{fill:#a6a294;}.cls-192{fill:#b6b2a2;}.cls-193{fill:#999383;}.cls-194{fill:#adaa9f;}.cls-195{fill:#604f37;}.cls-196{fill:#baad71;}.cls-197{fill:#bdae73;}.cls-198{fill:#392c19;}.cls-199{fill:#4f4435;}.cls-200{fill:#9a9689;}.cls-201{fill:#4a4740;}.cls-202{fill:#6c583d;}.cls-203{fill:#564d3e;}.cls-204{fill:#4d453c;}.cls-205{fill:#614a2c;}.cls-206{fill:#e5dec7;}.cls-207{fill:#c0bba8;}.cls-208{fill:#b5b1a0;}.cls-209{fill:#e7e0c8;}.cls-210{fill:#aeaa9a;}.cls-211{fill:#a4a091;}.cls-212{fill:#b7b2a1;}.cls-213{fill:#cac4b1;}.cls-214{fill:#d1cab6;}.cls-215{fill:#d8d1bc;}.cls-216{fill:#dfd9c2;}.cls-217{fill:#7b5f3b;}.cls-218{fill:#cac4b3;}.cls-219{fill:#9e998a;}.cls-220{fill:#c8c2b0;}.cls-221{fill:#afaa9b;}.cls-222{fill:#9f9a8b;}.cls-223{fill:#bbb5a3;}.cls-224{fill:#aaa79d;}.cls-225{fill:#c1bdb1;}.cls-226{fill:#b9b7ad;}.cls-227{fill:#b9b29f;}.cls-228{fill:#6d583c;}.cls-229{fill:#a7a392;}.cls-230{fill:#d8d2be;}.cls-231{fill:#d5ceba;}.cls-232{fill:#dbd5c0;}.cls-233{fill:#685337;}.cls-234{fill:#a7a395;}.cls-235{fill:#9f9c94;}.cls-236{fill:#b29f7c;}.cls-237{fill:#8d7242;}.cls-238{fill:#b7b3a3;}.cls-239{fill:#c1bdac;}.cls-240{fill:#afaca1;}.cls-241{fill:#a2967e;}.cls-242{fill:#5d4b32;}.cls-243{fill:#614b31;}.cls-244{fill:#424039;}.cls-245{fill:#3c3932;}.cls-246{fill:#53514b;}.cls-247{fill:#4b4841;}.cls-248{fill:#524f4a;}.cls-249{fill:#5d5b53;}.cls-250{fill:#765935;}.cls-251{fill:#5c5850;}.cls-252{fill:#54514b;}.cls-253{fill:#9f7c49;}.cls-254{fill:#4e4c45;}.cls-255{fill:#e7e0ca;}.cls-256{fill:#e0dac6;}.cls-257{fill:#494640;}.cls-258{fill:#352e28;}.cls-259{fill:#886d45;}.cls-260{fill:#d8d2bd;}.cls-261{fill:#cdc7b5;}.cls-262{fill:#d6cfbb;}.cls-263{fill:#a39e8f;}.cls-264{fill:#acaaa1;}.cls-265{fill:#a3885d;}.cls-266{fill:#786242;}.cls-267{fill:#bdb8a7;}.cls-268{fill:#a9a493;}.cls-269{fill:#9a9685;}.cls-270{fill:#826a47;}.cls-271{fill:#d2ccba;}.cls-272{fill:#e1dac7;}.cls-273{fill:#b1ad9f;}.cls-274{fill:#c1bcac;}.cls-275{fill:#7b5e39;}.cls-276{fill:#483723;}.cls-277{fill:#e5dfc8;}.cls-278{fill:#685840;}.cls-279{fill:#c0bbaa;}.cls-280{fill:#c9c3b2;}.cls-281{fill:#574834;}.cls-282{fill:#9d9a8f;}.cls-283{fill:#736045;}.cls-284{fill:#b7b4a8;}.cls-285{fill:#635037;}.cls-286{fill:#8e7655;}.cls-287{fill:#725733;}.cls-288{fill:#866a3e;}.cls-289{fill:#5d472b;}.cls-290{fill:#8a673c;}.cls-291{fill:#b5975e;}.cls-292{fill:#a2824c;}.cls-293{fill:#6e5735;}.cls-294{fill:#ccc6b5;}.cls-295{fill:#d4cebb;}.cls-296{fill:#ddd7c3;}.cls-297{fill:#e4ddc7;}.cls-298{fill:#9a7947;}.cls-299{fill:#5d472a;}.cls-300{fill:#7e6139;}.cls-301{fill:#e7dfc5;}.cls-302{fill:#c7ac66;}.cls-303{fill:#b6b3a7;}.cls-304{fill:#e5dec9;}.cls-305{fill:#ded8c3;}.cls-306{fill:#d2ccb9;}.cls-307{fill:#d6ceb8;}.cls-308{fill:#c9c3b1;}.cls-309{fill:#b7b19f;}.cls-310{fill:#c3bdaa;}.cls-311{fill:#cec7b4;}.cls-312{fill:#ddd6c0;}.cls-313{fill:#604f38;}.cls-314{fill:#574733;}.cls-315{fill:#6f5637;}.cls-316{fill:#8c8471;}.cls-317{fill:#8c6a3e;}.cls-318{fill:#7b613f;}.cls-319{fill:#d1cbb9;}.cls-320{fill:#d9d3c0;}.cls-321{fill:#e1dac5;}.cls-322{fill:#e9e1c8;}.cls-323{fill:#d7d0bb;}.cls-324{fill:#e3dcc6;}.cls-325{fill:#a4804a;}.cls-326{fill:#a78e62;}.cls-327{fill:#bfa97c;}.cls-328{fill:#685439;}.cls-329{fill:#443420;}.cls-330{fill:#2b1f11;}</style></defs><g id="Layer_2" data-name="Layer 2"><g id="Layer_10_Image" data-name="Layer 10 Image"><path class="cls-1" d="M104.19.07c26,0,52,0,78-.07,2.5,0,3.07.56,3.06,3.07-.1,27.66-.06,55.32-.06,83a1.05,1.05,0,0,1-1.39,0A6.6,6.6,0,0,1,182,81.53C178.9,46.42,150.71,16.24,119.32,7c-2.4-.71-4.95-.57-7.32-1.41a27.49,27.49,0,0,1-3.6-.67A11.6,11.6,0,0,1,105,3.42C104.17,2.45,103.53,1.42,104.19.07Z"/><path class="cls-2" d="M112.09,4.13c14,2.35,26.25,8.45,37.2,17.11a92.28,92.28,0,0,1,30.3,42.61c2.56,7.26,3,14.77,4.74,22.11a1.59,1.59,0,0,1,.09,1.41,76.67,76.67,0,0,0-.13,11.74,4.58,4.58,0,0,0,.89,1.94v1c-1.24,1.54-.88,3.39-1.06,5.15-.13,1.33.24,3.16-2.13,2.88-1.48-1.78-1.05-3.93-1.14-6-.33-1.81,1.09-3.93-1-5.42-2-.18-2.24-1.48-2.06-3.1a3.73,3.73,0,0,1,1-1.6c2-1.49,2.24-3.59,2-5.86-1-9.67-2.8-19.14-6.4-28.21-1.85-3.8-3.32-7.79-5.67-11.34a51.93,51.93,0,0,0-4.17-6.79,17.9,17.9,0,0,0-3.24-3.15,32,32,0,0,0-5.85-7.07c-5.29-4.56-10.33-9.44-16.63-12.68a21,21,0,0,1-2.78-2.17c-7.85-3.44-15.63-7.07-24-9.19-1.25-.32-2.64-.51-3.14-2C109.49,3.86,111.28,5.12,112.09,4.13Z"/><path class="cls-3" d="M104.19.07c.33.94.67,1.87,1,2.81-2.8,1.75-5.83.51-8.7.48-5.43-.07-10.91.89-16.3-.48l1-2.81Z"/><path class="cls-3" d="M182.24,110.19c2.61-2.13-1-6.5,2.94-8.14v9h-2.8c-.26-.16-.37-.33-.33-.54S182.16,110.19,182.24,110.19Z"/><path class="cls-4" d="M185.18,101.05,184,100a54.6,54.6,0,0,1,0-12.84l.33-1.17a2,2,0,0,1,.85.09Z"/><path class="cls-5" d="M34.12,22.06c2.22-1.09,3.43-3.67,6.08-4.15a7.52,7.52,0,0,1,4.11-2.78L46.2,13.9c1.33-1.66,3.31-2.08,5.17-2.74.62-.39,1.23-.79,1.84-1.19a8.86,8.86,0,0,1,5-1.86l.06,0c.71-1.14,2-.39,2.94-1l.07,0a9,9,0,0,1,5.9-2.18c2.16.92,4-1,6.08-.7a1.59,1.59,0,0,1,.35,1.32c-.82,1.73-2.8,1.59-4.1,2.54-3.82,2.81-8.8,3.05-12.69,5.71-2.13,1.37-4.62,1.88-6.91,2.87-.39.21-.79.39-1.18.59a77.78,77.78,0,0,0-7.39,5.5A100.6,100.6,0,0,0,25.89,36.62C23.05,40.1,20.59,43.85,18,47.5c-1.32,2.11-2.54,4.28-4,6.34-1.51,2.53-1,6.34-4.74,7.44a3.54,3.54,0,0,1-1.67-2.36,9.65,9.65,0,0,1,1.51-4.86q3.54-6,7.07-12a48.48,48.48,0,0,1,11.71-14l1.29-1.25C30.68,25.06,31.94,23.09,34.12,22.06Z"/><path class="cls-6" d="M46.22,173.17c-.8-.21-1.74-.14-2.13-1.12-3.27-1.56-6-3.92-8.89-6.05l-1-1A35.72,35.72,0,0,1,24.31,155l0,0c-1.25-.72-2.5-1.44-2.84-3L19,149c-1.63-.85-1.85-2.69-2.84-4-1.26-2.36-3.33-4.24-4-6.91-.58-1.19-.91-2.35.41-3.3,1.15-.13,1.72.63,2.25,1.45a20.94,20.94,0,0,0,2,4.1,32.12,32.12,0,0,0,3,3.26,12.36,12.36,0,0,1,1.27,1.54c5.6,6.32,10.55,13.26,17.62,18.14a55.31,55.31,0,0,0,7.25,5.1c5.71,3.83,12.12,6.18,18.42,8.77,2.33.72,4.71,1.24,7,2,1.65.94,4.32.06,5,2.79-.84,1.27-2.27,1.15-3.5,1.51a50.19,50.19,0,0,1-17.53-5.59h0a22,22,0,0,0-4.12-1.76l-1.88-1.38C48,174.71,47.33,173.55,46.22,173.17Z"/><path class="cls-7" d="M150.94,164.92l-2.81,2c-1.59,2.76-4.38,3.84-7.08,5l-11,5.89c-.89,1.38-2.42,1.28-3.76,1.64A3.59,3.59,0,0,1,124,178c.26-2.37,2.44-2.62,4-3.59a48.83,48.83,0,0,0,4.88-2.24c2.61-1,5.29-1.94,7.38-4a16.6,16.6,0,0,1,2.88-2.8c3.64-1.55,6-4.81,9.28-6.88,1.66-1.11,2.81-2.83,4.59-3.79a2.58,2.58,0,0,1,1.35,0,2.41,2.41,0,0,1,1.24,1.55c-.85,2.78-2.94,4.41-5.33,5.75l0,0C153.68,163.67,152.39,164.39,150.94,164.92Z"/><path class="cls-8" d="M159.43,156.14,158.16,155c.8-4.79,5.69-6.94,7.23-11.24a8.94,8.94,0,0,0,1.74-2.9c3.35-6.29,7.47-12.2,9.22-19.26a2.49,2.49,0,0,1,1.14-1c1.83-.25,2.26.8,2.18,2.33.59,4-2.28,6.69-3.6,10l0,0a3.91,3.91,0,0,1-1.76,3.07,1.18,1.18,0,0,0-.3.91,3.3,3.3,0,0,1-1.89,3.06q-1.51,2.4-3,4.82a12,12,0,0,1-4.61,6.21l-.49.9C163,154,161.86,155.72,159.43,156.14Z"/><path class="cls-9" d="M2,111.08v-1c-1.86-2.14.32-4.75-.81-7l0,0a2.2,2.2,0,0,1-.27-2.16c.77-1.31-.51-4,2.47-3.86,1.45,1.64.89,3.85,1.59,5.71.76,2.32-.55,4.79.55,7.08,1.25,3.67,2.86,7.25,3,11.21a11.64,11.64,0,0,0,.8,2.7c.66,1.81,1.64,3.54,1.35,5.58A1.74,1.74,0,0,1,9,130.48c-2.9-2-3.4-5.16-3.82-8.32-.71-2-1.42-4.09-2.12-6.14C2.47,114.43,1.38,112.93,2,111.08Z"/><path class="cls-10" d="M80.19,2.88a73.13,73.13,0,0,1,25,0c1.09.23,2.63-.78,3.11,1.13-.76,1.12-2,1.42-3.17,1.83a8.06,8.06,0,0,1-2.29.31,11.36,11.36,0,0,1-2.33-.31A72.61,72.61,0,0,0,84,5.81a9.62,9.62,0,0,1-2.33.25,7.13,7.13,0,0,1-1.52-.21c-1.38-.5-3-.52-4-1.85C77.09,2.26,78.9,3.5,80.19,2.88Z"/><path class="cls-3" d="M105.19,185a4.81,4.81,0,0,1-3.84,2q-8.66.1-17.32,0a4.78,4.78,0,0,1-3.84-2,4.78,4.78,0,0,1,4.1-1.31C91.25,184.23,98.38,182.15,105.19,185Z"/><path class="cls-11" d="M7.83,58.91a2.33,2.33,0,0,1,1.41,2.23C8.26,67.08,8,73.25,4.09,78.31c-2.35-.56-1.74-2.47-1.86-4a6.63,6.63,0,0,1,.86-3.19,1.45,1.45,0,0,0,.19-.93,28.2,28.2,0,0,0,2-7C5.45,61.43,5.82,59.64,7.83,58.91Z"/><path class="cls-3" d="M55.35,177.88c6.08,1.24,11.55,4.66,17.88,5a4.92,4.92,0,0,1,4.86.62,1.49,1.49,0,0,1,.32,1.36c-7.71-.07-14.83-2.71-22-5C55.44,179.58,55.33,178.74,55.35,177.88Z"/><path class="cls-12" d="M179.2,123.1c-.1-1.17-.55-2-1.89-2-.37-4,2-7.62,1.94-11.6a19.13,19.13,0,0,0,.78-4.31,4.32,4.32,0,0,1,.8-2.07,1,1,0,0,1,1.34-.07c0,2.38,0,4.77.07,7.15a1.43,1.43,0,0,0,.14.86c0,.34,0,.68,0,1,.7,1.68,1,3.34-.28,4.91l0,0c-.75,1.62-1.21,3.35-1.86,5a.49.49,0,0,0-.25.65C180.05,123.4,179.77,123.54,179.2,123.1Z"/><path class="cls-13" d="M124,177.9l2.18,1c-.36,1-1.4.64-2.08,1l0,0a14.44,14.44,0,0,1-10,2.94l-1.94.07c-.88-.89-2.63.36-3.19-1.31,2-2.94,5.55-2.17,8.22-3.51C119.45,177.6,121.69,176.16,124,177.9Z"/><path class="cls-14" d="M78.41,184.9c-.13-.29-.27-.57-.42-.85,2.51-2.26,5.59-1.25,8.44-1.38,3.75-.16,7.51,0,11.27-.06,1.15,0,2.28-.3,3.43-.25,2.32.65,5-.3,7,1.7-.73,1.13-2.08.36-3,.95h-25Z"/><path class="cls-3" d="M27.91,28.06,16.2,42C18.28,35.85,21.93,31,27.91,28.06Z"/><path class="cls-3" d="M7.83,58.91C5.17,62.19,6.33,67,3.28,70.14,4,64.34,4.52,58.45,9.13,54.06,9.61,55.92,8.19,57.27,7.83,58.91Z"/><path class="cls-3" d="M159.43,156.14l4.54-4.2c2.38,2.58-1.1,3-1.84,3.8-2.22,2.51-3.56,6.44-7.93,6.27Z"/><path class="cls-3" d="M24.31,155c3.24,3.4,7.18,6.12,9.88,10.06C30,164.09,24.38,158.41,24.31,155Z"/><path class="cls-15" d="M8.79,130.2l1.57-1.52a2.73,2.73,0,0,1,2.48,1.45c.62,1.61,1.67,3.19.31,4.92-1.19.76-.75,2-1,3.09-.83-1.81-2.83-2.93-3-5.11A2.72,2.72,0,0,1,8.79,130.2Z"/><path class="cls-3" d="M3.09,71.07,3.18,74c-.9,1.56-.46,3.14-.07,4.74.49,2,.69,3.9-1.15,5.39L1.13,84C-.08,79.41-.48,74.94,3.09,71.07Z"/><path class="cls-3" d="M1.34,100.91,1.19,103a39.48,39.48,0,0,1-.06-19l.11.07a3.82,3.82,0,0,1,1.2,2.43A45,45,0,0,1,1.34,100.91Z"/><path class="cls-3" d="M179.2,123.1a2.26,2.26,0,0,1,.81-.43c1.76,4.6-1.6,7.24-3.94,10.27C176.19,129.36,179.46,126.79,179.2,123.1Z"/><path class="cls-3" d="M8.79,130.2,9.12,133c-2.33-3.26-5.57-6.18-3.94-10.87C6.72,124.68,6.73,127.9,8.79,130.2Z"/><path class="cls-16" d="M108.17,184.06c-2.27-.58-4.78.73-6.91-.89a3,3,0,0,1,1-1.26c2.28-1.16,4.57-1.72,6.86,0,1.07.16,2.28-.12,3,1Z"/><path class="cls-3" d="M35.2,166c3.57,1.13,6.24,3.57,8.89,6.05C39.75,172.05,37.58,168.88,35.2,166Z"/><path class="cls-3" d="M114.1,182.83l10-2.94C121.28,182.64,118.41,185.18,114.1,182.83Z"/><path class="cls-3" d="M141.05,172l7.08-5C147,170.3,144.88,172.36,141.05,172Z"/><path class="cls-3" d="M1.21,103.08c1.78,2.14.64,4.63.81,7C-2,108.16,1.36,105.41,1.21,103.08Z"/><path class="cls-3" d="M164.46,151l4.61-6.21C169.78,148.57,167.46,150.05,164.46,151Z"/><path class="cls-3" d="M34.12,22.06c-1,2.22-2.92,3.54-4.92,4.75C29.85,24.21,30.67,21.77,34.12,22.06Z"/><path class="cls-3" d="M124.1,179.87l2.08-1,3.91-1C129,181.29,126.74,181.11,124.1,179.87Z"/><path class="cls-3" d="M67.16,4.92,61.26,7.1C62.75,5.09,64.29,3.2,67.16,4.92Z"/><path class="cls-3" d="M58.19,8.11c-1.55.92-3,2-5,1.86C54.4,8.08,55.64,6.35,58.19,8.11Z"/><path class="cls-3" d="M44.31,15.13c-.92,1.59-2.59,2.08-4.11,2.78C40.74,15.75,41.42,13.81,44.31,15.13Z"/><path class="cls-3" d="M16.2,145.05c1.81.71,2.2,2.44,2.84,4C15.86,149.3,16.18,147.06,16.2,145.05Z"/><path class="cls-3" d="M182.14,117c.09-1.64.19-3.27.28-4.91C184.75,113.86,184.87,115.51,182.14,117Z"/><path class="cls-17" d="M76.1,4c1.33.28,2.83-.35,4,.76-2.21,2.26-4.52,2-6.9.3,0-.28,0-.56,0-.84Z"/><path class="cls-3" d="M51.37,11.16c-1.56,1.23-3.12,2.46-5.17,2.74C47,11.16,49.14,11.12,51.37,11.16Z"/><path class="cls-3" d="M150.94,164.92a7.58,7.58,0,0,1,3.22-2.87C155.51,165.72,152.79,164.84,150.94,164.92Z"/><path class="cls-3" d="M2,111.08c-.07,1.73,1.81,3.06,1.05,4.94C1.06,114.73.51,113.12,2,111.08Z"/><path class="cls-3" d="M180.26,122c0-1.9.26-3.7,1.86-5A5.68,5.68,0,0,1,180.26,122Z"/><path class="cls-3" d="M21.44,151.93c.94,1,1.89,2,2.84,3C22.64,154.59,20.44,154.76,21.44,151.93Z"/><path class="cls-3" d="M61.19,7.13c-.75,1-1.88.88-2.94,1C58.45,5.35,59.92,6.54,61.19,7.13Z"/><path class="cls-3" d="M172.09,140,174,137C175,139,174,139.77,172.09,140Z"/><path class="cls-3" d="M46.22,173.17c1.39-.18,2.25.7,3.11,1.57C47.14,176.51,47.22,173.75,46.22,173.17Z"/><path class="cls-3" d="M51.21,176.12c1.81-.42,3.06.45,4.12,1.76A4.9,4.9,0,0,1,51.21,176.12Z"/><path class="cls-3" d="M174.28,136A5.44,5.44,0,0,1,176,133C177.31,135.06,176.32,135.85,174.28,136Z"/><path class="cls-18" d="M105.21,4.86c.83-1,2-.72,3.09-.85l3.8.12c-.72,1.17-1.94.82-3,1C107.73,6.23,106.42,6.24,105.21,4.86Z"/><path class="cls-19" d="M175.2,59c4.58,9.47,5.93,19.69,6.94,30-2.12.14-2-1.75-2.73-2.93-.86-2.76-1.21-5.66-2.07-8.78-1.32,2-.53,4.29-2,5.81-4.07-1.83-2.17-5.94-3.35-8.88-.6-1.49.19-4.14-3-2.93-2.11-.46-2.17-2.38-2.46-3.87-.66-3.44-2.67-6.35-3.59-9.66.25-1.47,1.85-2,2.3-3.32.68-1.17,1.2-2.51,2.71-2.91C172.18,52.31,171.77,57.54,175.2,59Z"/><path class="cls-20" d="M105.21,4.86l3.9.28c9.62,3,19.15,6.15,28.07,10.89-.15.18-.31.35-.46.52A7.73,7.73,0,0,0,129.26,23c-.84.4-1.32-.08-1.74-.71a25.61,25.61,0,0,1-.91-2.68c-1.1-2.18-3.25-2-5.18-2.36-2.62-.5-5.28-1-6.67-3.74,1-1.89,1.78-3.65-1.52-4.05-2.89-.35-5.61-1.47-8.41-2.25-.88-.4-1.83-.75-1.69-2Z"/><path class="cls-21" d="M139.19,18.06c6.76,2.91,11.89,8,17,13-1.26,1.33-2.86-.28-4.24.37-.19,2,2.23,3.07,1.7,5.09a1.32,1.32,0,0,1-1,.86c-5.78-3.85-11.66-7.61-14.83-14.19C139,21.64,138.41,19.68,139.19,18.06Z"/><path class="cls-22" d="M153.19,37A19.08,19.08,0,0,0,152,34.4c-.85-1.29-2.93-2.49-1.62-4.06,1-1.26,3-.85,4.45.42.31.28.95.2,1.43.28,2.74,1.71,4.46,4.28,6,7,.48,1,1.79,2,.74,3-1.72,1.7-3.66.73-5.49-.1C155.87,39.84,153.88,39.11,153.19,37Z"/><path class="cls-23" d="M153.19,37c1.43.88,3.25,1.24,4,3,2.4,2.52,5.11,2.53,8,1a18.93,18.93,0,0,1,4.18,6.88l-.5.42c-1.65.22-3.18-1.56-4.89-.27a5.19,5.19,0,0,1-1.22.49c-1.1.09-2.22.24-3.14-.63-.87-1.46-2.4-1.7-3.87-2.07a7,7,0,0,1-4.25-5.53,3.67,3.67,0,0,1,1.66-3.18Z"/><path class="cls-24" d="M175.2,59c-2.87.13-3.8-2.21-4.83-4.12-.62-1.14-.91-2.36-2.27-2.85s-2.7-1.39-4.08-2a3.93,3.93,0,0,1-1-.82A1,1,0,0,1,163.2,48l0,0c2-2.3,4,.4,5.94,0l.29-.2C172.47,51,173.27,55.32,175.2,59Z"/><path class="cls-25" d="M178.17,96c.93.42.13,2.53,2,2l.55.55a4.37,4.37,0,0,1,.35,2.88c-.38,1.9-.57,4.18-3.25,4.18s-2.43-2.18-2.74-3.92a7.12,7.12,0,0,0-.64-1.85c-.5-1.1-1.1-2.18-.69-3.46C175.11,95,176.63,95.44,178.17,96Z"/><path class="cls-26" d="M165.21,41c-2.86,3.21-5.45,2.89-8-1,1.64-.71,5.49,4.15,5-2A6.06,6.06,0,0,1,165.21,41Z"/><path class="cls-27" d="M178.17,96a3,3,0,0,1-3.93,0A2.12,2.12,0,0,1,172,94.86c1.52-2.33,4.05-2.73,6.45-3.39A2.13,2.13,0,0,1,179.79,93a2.69,2.69,0,0,1-.62,2.06Z"/><path class="cls-25" d="M179.17,95l.13-2.18c.86-2.58-2.82-3.39-2.29-5.85.93-.76,2.1-.72,3.19-1,.64,1,1.29,2,1.94,3C182.47,91.69,181.77,93.84,179.17,95Z"/><path class="cls-28" d="M139.19,18.06c.7,1.92,2.45,4.05-1,5.12a1.16,1.16,0,0,1-1.25-.09,8.48,8.48,0,0,1-1.2-4.53,3.05,3.05,0,0,1,1.43-2.18l0-.35Z"/><path class="cls-29" d="M184,87.13V100A20.86,20.86,0,0,1,184,87.13Z"/><path class="cls-25" d="M182.17,103l-1,0c-1.22-1.47.2-3.48-1-5l0-.06c.34-1.37,1.05-2.64,1.81-.44C182.55,99.24,182.14,101.22,182.17,103Z"/><path class="cls-30" d="M17.24,47.12c2.45-3.82,4.49-7.94,7.88-11.1L26.76,35c1.44-.94,2.61-3.79,4.14-2.72,2.21,1.56-.18,3.76-.72,5.67a19,19,0,0,0-.69,2c-.88,4-4,7.14-4.13,11.37-2.76,1.14-4.18-2-6.55-2.06C18,48.75,16.88,48.49,17.24,47.12Z"/><path class="cls-31" d="M17.24,47.12l2.12,1a3,3,0,0,1-.46,2.35,6.17,6.17,0,0,0-.47,2.44,14.35,14.35,0,0,1-1.5,9.4c-1.34,2.07-2.16,4.45-3.78,6.35C10.46,70,10.3,68,10.47,66.36A48.48,48.48,0,0,1,11.31,60c1-2.19,1.26-4.62,2-6.89C14.75,51.21,15.21,48.66,17.24,47.12Z"/><path class="cls-32" d="M13.32,53.13c.21,2.38-.58,4.6-1.17,6.84-1,2.77-1.49,5.66-2.18,8.51-.72,4.29-2.3,8.4-2.87,12.73-1,2.54.22,5.63-2,7.86a1.12,1.12,0,0,1-1.49-.5A15.22,15.22,0,0,1,4.2,78.06c2.22-5.48,1.94-11.71,5-16.92C11.69,59,11.39,55.51,13.32,53.13Z"/><path class="cls-33" d="M29.19,38.06l1.86-5.48c-2.53.72-3.37,3.7-5.93,3.44A65.87,65.87,0,0,1,41,22a1.15,1.15,0,0,1,1.29-.06c.43,2.11-1.59,2.61-2.53,3.83-1.13,1.74-4.87,1.85-3.28,5.29a23,23,0,0,0-2.53,4.68C32.79,37.36,31.53,38.79,29.19,38.06Z"/><path class="cls-34" d="M56.18,13c3.65-3.49,9.17-2.95,13-6,3.24-.32,6.33-1.72,9.68-1.32,1.11,1.85-.57,2.54-1.59,2.68-7.25,1-13.61,5-20.84,6A.78.78,0,0,1,56.18,13Z"/><path class="cls-35" d="M56.18,13c0,.36.07.71.1,1.07a9.37,9.37,0,0,1,.81.86c.47.88,1.34,1.55,1.37,2.65-.59,1.37-1.91,1.61-3.11,2a3.12,3.12,0,0,1-1.91-.14,2.64,2.64,0,0,1-.86-1c-.7-1.53-2.77-1.21-3.55-2.63Z"/><path class="cls-35" d="M42.22,22.07,41,22c2-2.47,4.76-3.94,7.29-5.73a3.62,3.62,0,0,1,1.43,2.31,7.6,7.6,0,0,1-1.27,4.58C46.34,22.81,44.37,21.88,42.22,22.07Z"/><path class="cls-36" d="M79.21,6c-3.39-.16-6.56,1.86-10,1,.91-1.52,3.14-.33,4-1.94l6.9-.3,1.27.42C81.07,6.55,80.36,6.87,79.21,6Z"/><path class="cls-37" d="M49.43,18.29a2.35,2.35,0,0,1-1.17-2.07,1.1,1.1,0,0,1,.77-.3c1.11,1.15,4.44-1.63,4,2.26A2.67,2.67,0,0,1,49.43,18.29Z"/><path class="cls-38" d="M19.18,144.05a7.76,7.76,0,0,1-2.94-3c-.59-.51-.51-1.21-.51-1.89A5.62,5.62,0,0,1,17,136a1.67,1.67,0,0,1,1.33-.11,3.84,3.84,0,0,1,.8,1.11c1.64,4.63,5,.35,7.32,1.38a2.62,2.62,0,0,1,1.13.78c1.2,6.17,2.88,11.91,8.49,15.95,3.28,2.36,6.14,4.18,10.13,2.2a26.68,26.68,0,0,1,6,2.49c.6,2.53-1,3.37-3,4-1.44-.3-2.81,1-4.29.25-2.23-.15-4.45,1.46-6.71.08-7.52-4.89-13-11.75-18.1-18.92.36-.45,1.42-.74,1.19-1.11C20.75,143.21,19.9,144,19.18,144.05Z"/><path class="cls-39" d="M76.3,181.93c-1.34-1.72-3.86-.08-5.19-1.83.8-5.26,1.13-5.55,6.3-4.48,2.31.48,4.54.8,6.75-.3a4.32,4.32,0,0,1,2.66.1c1.25,1.29,2-.42,3.08-.5a2.8,2.8,0,0,1,1.65,2.69c-.74.7-.56,1.15.38,1.39,1.1,1.77,4.09,1.38,4.49,3.95a1.54,1.54,0,0,1-1.41.57C88.76,183,82.33,184.76,76.3,181.93Z"/><path class="cls-40" d="M64.19,178.05c-6.76-2.11-13.35-4.56-19-9a2.06,2.06,0,0,1,1.78-.73c1.06,1.15,1.76.72,2.25-.54a10,10,0,0,1,3.72-1.26,5.46,5.46,0,0,1,1.34-.07c2.61.25,4.24,2.44,6.55,3.31C63.37,171.94,63.93,174.93,64.19,178.05Z"/><path class="cls-41" d="M64.19,178.05c-2.87-1.9-1.42-6-4-8,1.41-1.16,3-.6,4.14.1,5.5,3.23,11.72,3.62,17.75,4.77A3.29,3.29,0,0,1,84.19,176c-1.14,1.28-2.39,2.07-4.24,1.43-3.54-1.24-7.2-2.61-8.84,2.64A17,17,0,0,1,64.19,178.05Z"/><path class="cls-16" d="M76.3,181.93a87.66,87.66,0,0,0,20,1c1.34-.6,2.66-1.16,2.9,1.12H78l-4.77-1.13C74,181.78,75.22,182.1,76.3,181.93Z"/><path class="cls-42" d="M47.21,169l-2,0c-2.49-1.44-5.2-2.58-7-5,1.82-1.36,4.66.43,6.32-2.13.28-.44.44,1.44.75,2.2C46.37,165.57,47.4,167.05,47.21,169Z"/><path class="cls-43" d="M17.21,136.06c-.1,1.06.19,2.24-1,2.95a3.11,3.11,0,0,1-1.92-2.19l-1.17-1.77q-.59-2.46-1.16-4.94a1.27,1.27,0,0,1,1.74.32c.84,1.06,3.12,2.71,3.81,2.69A2.43,2.43,0,0,1,17.21,136.06Z"/><path class="cls-44" d="M19.18,144.05c.37-2.29,1.8-2.56,3.44-1.48.66.43,1.38,1.87,1.13,2.42-1,2.1-2.41.22-3.67.14Z"/><path class="cls-45" d="M14.32,136.82,16.24,139v2A4.8,4.8,0,0,1,14.32,136.82Z"/><path class="cls-46" d="M124,177.9,117.19,179c-2.4,0-3.41-1.3-3.38-3.58.48-.93,1.51-1.16,2.66-1.88-1.8-.12-1.93,1.37-2.77,1.89-4.72,2.84-9.83,3.21-15.13,2.49a3.65,3.65,0,0,1-1.32-.59,4.52,4.52,0,0,1,.23-4.88c2.19-2.12,5.24-1.38,7.79-2.33a19.4,19.4,0,0,1,3.73-.45c4.49-.24,8.61-1.88,12.74-3.47a3.68,3.68,0,0,1,2.12.29c1.29,1.6,2.4,3.32,4.3,4.39,2.15,1.22,1.61,2.77.12,4.22Z"/><path class="cls-47" d="M157.16,155l-3.81,4.22A9.73,9.73,0,0,0,147,162.7c-1.39,1.56-2.8,2.9-5.07,1.56a4.73,4.73,0,0,1,0-5.38c.72-1.28,1.4-2.5.88-4,.2-1.31,1.17-1.91,2.21-2.45,1.88-.36,4-2.1,4.82,1.59.67,2.82,2.56.31,3.9.26A3.21,3.21,0,0,1,157.16,155Z"/><path class="cls-48" d="M143.13,155c2.7.38,1.9,2.07.82,3.09-1.84,1.72-1.88,3.74-1.75,5.91.68.6,1.76,1,1.11,2.24l-2.26,2.39c-1.5,1-1.49-.52-1.74-1.16-.47-1.25-.79-2.51-2.39-2.73a5.3,5.3,0,0,1-2.39-1.46,3,3,0,0,1-.61-3.39C137,158.27,139.54,155.69,143.13,155Z"/><path class="cls-49" d="M137.14,164.16c1.71-1,3.06-1.27,3.08,1.46,0,1-.47,2.31.83,3-1.9,2.71-5,3.37-7.81,4.41a4.33,4.33,0,0,1-1.79-2.71,3.63,3.63,0,0,1,.16-2,2.24,2.24,0,0,1,.85-.93c.88-.45,1.93-.54,2.69-1.24A13,13,0,0,1,137.14,164.16Z"/><path class="cls-50" d="M157.16,155h-3.95c-3.14.87-2.8-.88-2.16-2.86a10,10,0,0,0,8.83-4.37c1.25-1.72,2.48-3.5,4.42-4.52.73-.38,1.91-1.12,1.9.74-1.42,4.58-5.35,7.33-8,11Z"/><path class="cls-51" d="M132.07,169.89l1.17,3.18c-1.57.89-3,2.21-5,2.07-.07-1.47,1.05-3.21-1.55-3.94-1.9-.52-3.72-1.72-2.66-4.35.11-.86.55-1.16,1.37-.83C127.14,168.18,130.82,167,132.07,169.89Z"/><path class="cls-52" d="M143.31,166.27,142.2,164c1.55.08,3.07,0,3.78-1.67,1.5-3.41,4.43-3.23,7.37-3.1C149.66,161.09,147.88,165.68,143.31,166.27Z"/><path class="cls-53" d="M166.2,144c-2.85-.27-3.9,2.15-4.85,3.89-1.95,3.56-5.25,4.42-8.65,5.33a8.39,8.39,0,0,1-.55-1.22c-.19-3.43,3.19-4.75,4.34-7.39,1.6-1.93,3.1-4,5.51-5a4,4,0,0,1,1.37-.14c1.79.39,3.76.43,4.71,2.43A3.07,3.07,0,0,1,166.2,144Z"/><path class="cls-54" d="M168.08,141.94l-5-1.75c3.37-1.65,5.24-4.55,6.53-7.92,2.57-1.26.1-4.66,2.95-5.84-2-1.06-3.11,2-4.78.37-.85-3.2,1.64-4.3,3.6-5.75a4.56,4.56,0,0,1,4.31-.66c.75.33,1,1.12,1.46,1.67C176.18,129.62,171.05,135.28,168.08,141.94Z"/><path class="cls-55" d="M177.19,122.06l-1-1a24.45,24.45,0,0,0-3.45-3.14,3.61,3.61,0,0,1-.93-1,3.14,3.14,0,0,1-.17-1.36,6.84,6.84,0,0,1,2.68-3.84,1.75,1.75,0,0,1,1.25.31c1.45,1.38,1.87.29,2.3-1s.25-2.77,2-3.09c.12,0,.28.12.4.22s.23.51,0,.84a21.51,21.51,0,0,1-2.92,12A8,8,0,0,0,177.19,122.06Z"/><path class="cls-56" d="M8.47,124l-.78-2.14a16.8,16.8,0,0,0-1-7.19c-.5-1.51-.29-3,1.43-3.67,1.5-.58,2.48.48,3.32,1.48,1.6,1.91,2.39,4.27,3.33,6.52,1.07,3.64,3.08,7.09,2.38,11.11C12.09,131.22,10.65,127.1,8.47,124Z"/><path class="cls-57" d="M4.4,110.11c-2.29-2.3.78-4.72-.16-7-.75-.8-.48-1.77-.45-2.7a1.21,1.21,0,0,1,1.06-.64c.16-.55.64,1.37.64,0,0-.59-.29-1.22-.27-1.86a2.93,2.93,0,0,1,1-2A2.86,2.86,0,0,1,8.91,97c1.19,1.61,2.37,3.28,2.42,5.35.08,3.45.92,6.49,3.51,9a3.14,3.14,0,0,1,.68,3.69,2,2,0,0,1-2,.53c-1.88-3.35-6.12-5.14-6.72-9.3C6.27,107.35,6.91,109.75,4.4,110.11Z"/><path class="cls-58" d="M4.4,110.11c.74-1.75,1.49-3.49,2.46-5.78C7.76,109,12.1,111,13.25,115c1.68,1.36,4.53,2,3.06,5.23a1.7,1.7,0,0,1-2.11-.2c-.94-1.87-1.84-3.76-2.84-5.6-.67-1.24-1.27-3.17-3-2.57s-1.24,2.44-.78,3.85c.68,2.06,1.07,4.1.09,6.17C6.93,117.87,6.19,113.84,4.4,110.11Z"/><path class="cls-59" d="M8.47,124c2.78,2.17,4.56,5.8,8.71,6l.6.23A2,2,0,0,1,18.5,132,1.59,1.59,0,0,1,17,133c-3.89,2.89-2.86-2.77-5-2.89l-1.63-1.43Z"/><path class="cls-60" d="M1.34,100.91a89.68,89.68,0,0,1,0-14.75c1.45-1.07,2.06-.42,1.93,1.09A12.71,12.71,0,0,0,4,91.92a9.53,9.53,0,0,1,.3,2.26,3.25,3.25,0,0,1-1.18,2.74Z"/><path class="cls-61" d="M3.13,96.92,3.28,94c3.21,1.57,1.88,3.85.93,6.06l0,3C2.34,101.29,3.59,99,3.13,96.92Z"/><path class="cls-62" d="M79.21,6l2.16-.83,1.84-.11c2.64-.88,5.14-.91,7.31,1.18a3.16,3.16,0,0,1,.28,1.57,7.54,7.54,0,0,1-1.18,3c-.47.68-1.09,1.58-1.82,1.5C82,11.63,76.67,14.41,71,14.4a21.79,21.79,0,0,0-8.88,1.92,6.06,6.06,0,0,1-1.34.51A5.49,5.49,0,0,1,56.23,15a5.86,5.86,0,0,1,.05-.94c6-2.49,11.82-5.63,18.53-6.2A6,6,0,0,0,79.21,6Z"/><path class="cls-63" d="M90.23,7.1c-1.83-2.42-4.53-1.86-7-2a34.56,34.56,0,0,1,18,0,12.23,12.23,0,0,1-2.48,3,2.25,2.25,0,0,1-1.25.46C95.17,7.47,92.55,8.09,90.23,7.1Z"/><path class="cls-64" d="M98.32,8c-.12-2,1.15-2.72,2.89-2.92l1.93.12,2,1c1.31.63,2.14,1.6,1.55,3.08-.66,1.66-2.19,1.28-3.34.88C101.62,9.53,99.26,10.34,98.32,8Z"/><path class="cls-61" d="M3.16,92.07C.83,90.63,4,87.49,1.33,86.16l-.09-2.08C3.39,81,1,77.05,3.18,74c.38,1.34-.46,3,1,4.06l0,11C5.24,90.55,4.53,91.43,3.16,92.07Z"/><path class="cls-65" d="M175.18,112l-1,0c-1.86-2-.7-4.29-.52-6.47s-.39-4.66,1.51-6.49a3.19,3.19,0,0,1,1.41,2.49c.09,1.28-1.3,3.35,1.3,3.29,2.13,0,2.25-2,2.26-3.74,0-1,0-2,0-3,1.65,1.39.71,3.3,1,5l-.06,2c-.79,1.75-2.53,2.91-2.64,5.17C178.42,111.9,177,112.69,175.18,112Z"/><path class="cls-66" d="M175.18,112c3.91-.67,2.4-6,6-7-.08,1.39.49,2.92-.91,4-2.15.57-.36,2.76-1.52,3.7-.93.75-1,2.8-2.61,2.32C174.9,114.73,175.23,113.16,175.18,112Z"/><path class="cls-67" d="M114.21,175c.14,2,1.92,2.74,3,4-2.31,2-5.68,1.06-8.07,2.87-2.35.17-4.77-.14-7,1-1.39-1.91-4.54.87-5.54-2.08a5.05,5.05,0,0,1,1.57-3.75,76.2,76.2,0,0,0,16-2.05Z"/><path class="cls-68" d="M97.19,181.05c1.41,1.25,4.4-1.76,4.94,1.84l-.87.28-2.11.87c-.63-1.25-1.87-.92-2.9-1.12a7,7,0,0,1-.09-.91C96,181.12,96.3,180.78,97.19,181.05Z"/><path class="cls-69" d="M169.17,71.06c.15-1.06-.29-2.59,1.31-2.72,2-.16,2.38,1.65,2.53,3,.45,4,.54,8,2.16,11.74a3.18,3.18,0,0,1,1.37,4,3.72,3.72,0,0,1-3.67,2.53,2.2,2.2,0,0,1-1.34-.82c-2.65-3.75-.78-8.4-2.46-12.34C168.28,74.63,167.61,72.82,169.17,71.06Z"/><path class="cls-70" d="M169.17,71.06a8.63,8.63,0,0,0,1,5c.59.75.57,1.61-.21,2s-1.52-.11-2.15-.64c-2.15-2.63-2-6.17-3.49-9.05-.9-3.76-3.81-6.87-3.62-11a1.62,1.62,0,0,1,1.9-.79l.63.4C166.77,61,167,66.45,169.17,71.06Z"/><path class="cls-71" d="M176.16,87.12l-1-4.06c0-2.94-.18-5.92,2-9,2.49,3.92,2.44,8,3,12-.28,2.66-2.2.54-3.2,1.1l-.43.23Z"/><path class="cls-72" d="M163.32,49.26c2.54-.68,3.75.93,4.78,2.81-.64,1-1.28,2-1.93,3.06-1,.93-2.3.9-3.55,1-1.56,0-3.26,1.74-4.64-.4C158.86,52.8,162.65,52.33,163.32,49.26Z"/><path class="cls-73" d="M162.32,55.13h3.85c-.14,1.91-1.46,2-2.91,1.87h-.06C162.65,56.5,161.55,56.26,162.32,55.13Z"/><path class="cls-74" d="M115.18,13.05a11.67,11.67,0,0,0,7.48,3.1c2.1.16,4.73,0,5.51,2.92-2.51.6-5.21-.61-7.65.81A72.67,72.67,0,0,1,110.27,17,46.45,46.45,0,0,0,101,15.27c-2.39-.19-4.26-1.13-3.21-4.15,3.07-2.66,6.21-.22,9.31-.12,2.24.58,4.26,2.17,6.78,1.54A1.83,1.83,0,0,1,115.18,13.05Z"/><path class="cls-63" d="M108.18,12.1l-9.86-1.22A1.8,1.8,0,0,1,98,8.18L98.32,8c1.7.35,3.42.61,5.09,1.06,4.11,1.1,2.65-1,1.71-2.86,3.31.79,6.65,1.49,9.92,2.43,1.36.39,3,1,3,2.83,0,2.1-2.54,0-2.86,1.63l-1,0A12.15,12.15,0,0,1,108.18,12.1Z"/><path class="cls-75" d="M111.19,16.05l10,3.06c2.63.33,5.48.09,7,2.95l1,1,.37.62a1.68,1.68,0,0,1-1.6,2c-4-.64-7.18-3.47-11.14-4.21a20.34,20.34,0,0,1-2-.63c-2.21-1.25-5.21-.79-6.89-3.17,0-1.25,1.07-1.42,1.94-1.77A1.14,1.14,0,0,1,111.19,16.05Z"/><path class="cls-76" d="M137.14,16.38a2,2,0,0,1-1.28,1.89c-.85,1-2.2,1.24-3,2.25-1,1.16-1,3.88-3.69,2.56l.07-.07C129.17,16.44,130.17,15.6,137.14,16.38Z"/><path class="cls-77" d="M128.18,22.06l-7-2.95c2.33-3,4.69-.83,7,0C128.18,20.07,128.18,21.06,128.18,22.06Z"/><path class="cls-78" d="M137.13,23.08l1,.1c4.31,5.4,10,9.36,15,14-.35,1-.69,2-1,3A2.85,2.85,0,0,1,149.08,39c-3.71-4.06-8.39-7-12.38-10.7C136.45,26.53,132.6,24.45,137.13,23.08Z"/><path class="cls-79" d="M137.35,28c5.75,3.06,10,8,14.8,12.15,1,1.9,2,3.83,3.93,5a1.1,1.1,0,0,1,.47,1.15,2.9,2.9,0,0,1-1.65,2.06c-3.78-1.49-5.22-5.51-8.35-7.72-3.23-3.27-6.34-6.66-10.29-9.16a10.14,10.14,0,0,0-5.49-1.82,2.18,2.18,0,0,1-1.11-.94c-.61-2.09.1-3.48,2.19-4.14C134.25,24.79,135.77,26.44,137.35,28Z"/><path class="cls-80" d="M156.08,46.15v-1c2.31-.24,4.38-.15,4.18,3,.49,1.9,1.84.73,2.85.79l.21.29c1,4.23-2.49,4.67-5,5.88a.87.87,0,0,1-1,.21,1.68,1.68,0,0,1-.5-1,6.06,6.06,0,0,1,.46-2.94c.82-1.34.37-2.44-.62-3.44A1.85,1.85,0,0,1,156.08,46.15Z"/><path class="cls-81" d="M169.1,48.1c-.08.84-.29,1.82-1.35,1a6.41,6.41,0,0,0-4.59-1C165.15,43.49,167.12,47.14,169.1,48.1Z"/><path class="cls-82" d="M163.11,49c-1.1.53-.93,2.66-2.53,2.24-.35-.1-.23-2-.33-3A2.09,2.09,0,0,1,163.2,48,4.73,4.73,0,0,1,163.11,49Z"/><path class="cls-83" d="M175.21,99l-.06,7c-2,.51-3.23-.76-4.43-2.06-.88-2.64.34-5.31-.11-8,.27-.76.68-1.31,1.61-1.06l2,1Z"/><path class="cls-84" d="M172.22,95l-1.08,1c-.74.49-1.92-.55-2.46.69a5.76,5.76,0,0,1-2,.45,11.63,11.63,0,0,1-3.62-.38,5.79,5.79,0,0,1-3.25-1.88c-.52-3.33,1.84-3.75,4.2-4,2.11-.26,4.24.31,6.35-.06a10.7,10.7,0,0,0,4.22-1.37c2-.31,3.66,0,3.65,2.57C176.81,94.18,174,93.59,172.22,95Z"/><path class="cls-85" d="M178.23,92c-.74-1.83-2.2-2-3.88-1.68-1,.14-1.36-.33-1.17-1.28l3-1.93a3,3,0,0,0,.84,0c.64,2,6,2,2.3,5.71Z"/><path class="cls-86" d="M137.35,28c-1.93-.62-3.87-1.23-5.19-2.93,0-2-.43-4,.07-5.93a4.19,4.19,0,0,1,3.63-.86,4.83,4.83,0,0,1,1.27,4.81C133.79,24.87,138.55,26.3,137.35,28Z"/><path class="cls-87" d="M18.11,50l1.25-1.86C22,47.65,22.72,51,25.1,51a1.13,1.13,0,0,1,1.19-.23,5,5,0,0,1,.95.88,7.69,7.69,0,0,0,4,2.85c.94.52,1.73,1.26,2.63,1.84,1.93,1,3.87,2,5.75,3.1a83.93,83.93,0,0,0,8.86,5c3,2.19,6.5,3.65,9.64,5.67,2,2.11,6.68,1.46,6.26,6.06-3,1.43-5-.89-7.32-1.89-1.67-.72-3.15-1.83-4.85-2.51a276.66,276.66,0,0,0-29.93-17A11.67,11.67,0,0,1,18.11,50Z"/><path class="cls-88" d="M29.19,38.06c1.57-.72,3.18-1.37,4.07-3,1.91-3.64,4.27-4.11,7.14-1a35.19,35.19,0,0,1-10.21,11.2c-2-1.65-1.18-4-1.65-6.11Z"/><path class="cls-89" d="M28.54,39.14A12.1,12.1,0,0,1,30.17,45c.34,3.13-1.36,4.9-4,6l-1,0C23.33,46.19,28.11,43.29,28.54,39.14Z"/><path class="cls-90" d="M16.17,62a19,19,0,0,0,1-10c2.39-.18,3.36,2.19,5.25,2.92.43,1.22.08,2.44,0,3.67-1.36,3.41-1,7.81-5.5,9.41A5.26,5.26,0,0,1,16.17,62Z"/><path class="cls-91" d="M16.17,62l1.13,6.15c1,1.22.59,2.36-.18,3.49-1.41,1.45-2.64,3.25-5.12,2.47a3.49,3.49,0,0,1-.71-2.87c.18-1.32,1.34-2.09,1.86-3.21C13,65.44,14.78,63.83,16.17,62Z"/><path class="cls-92" d="M13.15,68.05l-1,3c-.55.91-1.26,1.63-2.32.83-1.38-1-1.39-2.44-.71-3.92.47-2.86,1-5.72,3-8,0,2.25.28,4.49-.66,6.69C10.77,68.36,11.69,68.66,13.15,68.05Z"/><path class="cls-93" d="M22.13,55.15c-2.56.45-3.6-1.55-4.93-3.08A2.11,2.11,0,0,1,18.11,50c2.37.33,2.86,2.56,4.1,4a.68.68,0,0,1,.21.75C22.32,55,22.22,55.15,22.13,55.15Z"/><path class="cls-94" d="M9.13,68c.36,1.67-.45,4.49,3,3.09,0,1,0,2,0,3-1.27,4.34.45,9.32-2.85,13.22A1.71,1.71,0,0,1,8,87.07c-1.36-1.81-.9-4.19-1.89-6.11C6.2,76.42,7.94,72.25,9.13,68Z"/><path class="cls-95" d="M3.16,92.07c.35-1,.7-2,1.06-3,.28,0,.57,0,.85-.06l.6.07c1.28.42,3-.37,3.79,1.37A34.58,34.58,0,0,1,6.23,96L6.18,98.1c-.71.47-.23,1.58-1.07,2l-.9,0C3.85,98,5,95.79,3.27,94,3.24,93.35,3.2,92.71,3.16,92.07Z"/><path class="cls-96" d="M6.06,81c3.68,1,1.53,4,2.17,6.06-1.34.16-1.27,2.37-3,2l-.2,0C5.64,86.35,4.35,83.48,6.06,81Z"/><path class="cls-97" d="M40,34c-2.42-.7-4.88-1.65-6.76,1,.24-1.88.6-3.67,2.94-4,1.45-1.45,3.38-2.31,4.76-3.85,2.67-2.38,5.39-4.55,9.06-1.74a2,2,0,0,1,.57,1.32,3.2,3.2,0,0,1-1.15,1.81C46,29.77,44.08,33.79,40,34Z"/><path class="cls-98" d="M50.06,25.94c-3.56-1.8-6.17.14-8.73,2.23-2.38.11-2.42-1.4-2.16-3.12l3-3c2.43-2.32,4.52-2.5,6,1,1.52-.42,2.07.53,2.42,1.74A1.55,1.55,0,0,1,50.06,25.94Z"/><path class="cls-99" d="M39.17,25.05l2.16,3.12C40.05,29.9,38.67,31.44,36.2,31c-1.54-1-3.61-1.86-.62-3.64C36.81,26.66,38,25.83,39.17,25.05Z"/><path class="cls-100" d="M70.29,13.12,89,10a2.69,2.69,0,0,1,1.62,2.24,1.82,1.82,0,0,1-.54,1.25c-2.76,2-6.13-1.82-8.8,1a5.42,5.42,0,0,1-1.14.71c-2.49,1.15-5.42.91-7.74,2.56-1.1.48-2.23.84-3.37,1.21a14.35,14.35,0,0,1-2.16.48C63,19.85,59,21,55.17,19l3.06-1.94c.74-1,2.2,0,2.92-1.06l0,0C63.86,13.91,67.52,14.93,70.29,13.12Z"/><path class="cls-101" d="M55.17,19l12-1c0,2.64-2.3,2.7-4,3.4-2.22,1-4.63,1.4-6.87,2.29-1,.51-1.77,1.53-3,1.63a3.74,3.74,0,0,1-1.79-.94c-2.78-3.86-2.74-4,1.68-5.48Z"/><path class="cls-102" d="M53.25,19l0,1.75c-5.6-.59-1.37,2-1,3.28.18,1.83-.77,1.6-1.91,1.06l-2.09-2a4.86,4.86,0,0,1,1.18-4.74l3.6-.11A2,2,0,0,0,53.25,19Z"/><path class="cls-34" d="M61.15,16c-.66,1.22-1.82,1-2.92,1.06-1.28-.09-2-.69-2-2.05Z"/><path class="cls-103" d="M46.12,158.07c-3.41,2.69-5.82,1.94-9.32-.86-4.64-3.71-7.94-7.74-9.8-13.32-.6-1.84.11-3.2.18-4.78,1.72-.54,2.38.91,3.11,1.86A71.86,71.86,0,0,0,45,155.64C45.78,156.19,46.69,156.84,46.12,158.07Z"/><path class="cls-104" d="M54.17,167l-.92,0c-.85-.75-1.11-1.58.36-3.4-1.74,1.9-1.69,4.17-4,3.84-1.24-.93-1.54-2.57-2.7-3.55.07-.77.31-1.32,1.24-.93,2-.07,3.19-1.34,4-3a1.41,1.41,0,0,1-.39-1.23c.93-2.65,2.9-4.55,4.69-6.59a17.65,17.65,0,0,0,4.59-8.6,5.55,5.55,0,0,1,1.8-3c1.25-.81,2.54-1.5,4.1-.9a1.74,1.74,0,0,1,.63,1.21,27.25,27.25,0,0,1-3.57,8.18c-.44.79-.88,1.59-1.35,2.37a32.51,32.51,0,0,0-5,10.47,5.65,5.65,0,0,1-1.08,1.63C55.5,164.49,55.38,166.14,54.17,167Z"/><path class="cls-105" d="M52.19,159.16c0,.29,0,.57,0,.85-2.42.58-4.25-.66-6.08-1.94-7.48-5.16-13.38-11.89-18.94-19a7.62,7.62,0,0,0-.92-.21c-1.16-1.92-4.42-3-2.57-6.16a3.25,3.25,0,0,1,2.36-1.2c2.14.42,1.4,3.11,3.08,3.9,2.63,3.38,5.31,6.73,8.09,10,3.1,3.89,7.09,6.74,11.06,9.61C49.84,156.16,51.81,156.91,52.19,159.16Z"/><path class="cls-45" d="M24.23,133.06c-1.22,2.61,3.16,3.27,2,5.84-1.54.59-3,1.52-4.62,1.7-2.43.27-3.71-1.06-3.32-3.64a.79.79,0,0,1,.9,0c-.07-.61-.78-.52-1-.93h-1c-.07-1-.13-2-.2-3.06l1.15-1a2.46,2.46,0,0,1,2.63-.5C21.44,133.05,23.27,132.14,24.23,133.06Z"/><path class="cls-106" d="M48.16,163l-.78,1.09c1.12.9,1.23,2.26,1.62,3.49l.06.64c.06,1.85-1,1.05-1.85.79a4.71,4.71,0,0,1-2-4.9C46.3,164,46.31,161.07,48.16,163Z"/><path class="cls-107" d="M18.19,136.05l3.79-.28c-.74,2.66-2.16,2.08-3.66,1.19A5.54,5.54,0,0,1,18.19,136.05Z"/><path class="cls-108" d="M54.17,167c.18-1.6-.61-3.69,2-4,6.47,2.49,12.66,5.79,19.69,6.64,4,.93,8.3,1,12,3.09,1,1.48.36,2.53-.93,3.4L84.19,176c-4.8.92-9.42-2.84-14.27-.56-1-3.82-4.84-3.28-7.39-4.72a11.15,11.15,0,0,0-2.34-.71C57.3,170.79,56.44,167.51,54.17,167Z"/><path class="cls-109" d="M91.17,178c-.31-1-.63-1.92-.94-2.88l.15-.7c.77-2.07.54-4.32,1.16-6.42.32-5.23.81-10.45-.5-15.62,0-7.4-1.27-14.83.73-22.16a2.08,2.08,0,0,1,2.57-.34c2.56,4.54.74,9.46,1.08,14.18.54,7.46.2,15,.16,22.46a19.45,19.45,0,0,0,.2,4,5.87,5.87,0,0,1,0,1.51,23.74,23.74,0,0,1-1,3.61C94,177,93.76,179.3,91.17,178Z"/><path class="cls-109" d="M97.19,181.05l-1,1c-2.5.42-4.19-.51-5-3,1.31-.67,3-.82,3.48-2.61,1.18-1.24,1.74.18,2.54.6l1,0A6.5,6.5,0,0,1,97.19,181.05Z"/><path class="cls-110" d="M87,176.11c.39-1,.77-2.07,1.15-3.11l.57-.46c1-.3,2-.34,2.46.65s-.35,1.38-1,1.84l0,.09a9.32,9.32,0,0,0-.88,1.11c-.44.75.17,2.3-1.19,2.23C87,178.4,87.33,176.94,87,176.11Z"/><path class="cls-111" d="M95.14,176.11c.33,3.19-1.89,3-4,2.94-.69-.35-.68-.69,0-1.05,2.2.28,1.7-2.18,2.92-2.89a1.28,1.28,0,0,1,.92.47C95.05,175.76,95.1,175.93,95.14,176.11Z"/><path class="cls-112" d="M49.19,167.05c2.24.1,1.68-2.51,3.38-3.36,1,.95.46,2.27.68,3.36-1.06,1.58-2.78.83-4.19,1.18l.13-.2c-.25-.22-.33-.44-.25-.65S49.11,167.05,49.19,167.05Z"/><path class="cls-113" d="M122.18,167c-4,2.48-8.46,3.34-13,4-.49-.44-1.29-.62-1.25-1.5.82-1.75,2.73-1.56,4.11-2.31a20.48,20.48,0,0,1,3.32-1.18c1.93-.18,3.78-1,5.76-.67C121.86,165.66,122.42,166.08,122.18,167Z"/><path class="cls-114" d="M122.18,167l-1.07-1a1.37,1.37,0,0,1,0-1.36,11.86,11.86,0,0,1,7.18-3.1,1.86,1.86,0,0,1,1.42,1.55c-.47,2.43-2,3.42-4.38,3.11l-1.23.69Z"/><path class="cls-115" d="M114.21,175c-1.11-2,0-3.3,1.8-3.59,1.6-.27,2.37,1.25,2.11,2.63-.54,2.84-2.69.22-3.91,1Z"/><path class="cls-116" d="M95.2,171.93c0-.24,0-.49,0-.73,2.16-2.11,5-1.59,7.57-1.87a3.52,3.52,0,0,1,2.57,1.83c-2.5,1.59-5.59.64-8.17,1.87h-.61A2,2,0,0,1,95.2,171.93Z"/><path class="cls-117" d="M97.2,177c-1.28,1-1.15-1.13-2.06-.93l.1-.16c-.62-1.82-1.37-3.73,2-2.92h0A3.2,3.2,0,0,1,97.2,177Z"/><path class="cls-118" d="M107.76,174.18a1.17,1.17,0,0,1-1.53.72c-.62-.16-1.36-.44-1.24-1.2s.9-.75,1.52-.64S107.79,173.31,107.76,174.18Z"/><path class="cls-119" d="M105.36,171.16l-2.12-1c1.56-1.56,3.18-1.54,4.86-.18l1.08,1Z"/><path class="cls-120" d="M143.13,155c-2.73,2.06-5,4.83-8.8,5.12-1,.31-1.29-.22-1.44-1,2-4,6.31-5.2,9.39-7.91,5.65-5,9.88-11.14,14.95-16.58a2.35,2.35,0,0,1,2.15.24c1.8,3.94-1.29,6-3.24,8.53-3.16,3.76-6,7.92-10.86,9.74Z"/><path class="cls-121" d="M145.28,153.14l9.9-10.1c1.63-.29,2.3.39,2,2-.92,2.89-3.51,4.56-5,7-1.63,1.7-1,2.62,1.06,3-1.38,3.5-3.24.69-4.91.39C150,151.13,146.67,153.4,145.28,153.14Z"/><path class="cls-122" d="M133.24,159.14l1.09,1c-.35,1.12.41,1.87.9,2.71.62,1.09,1,2.18,0,3.29-.91.62-2.13.69-2.89,1.59l-.37.47c-2.8-.68-2.08-3.27-2.77-5.1L128.13,162c-1-1.9-1.44-4-2.82-5.72a10.13,10.13,0,0,1-1.68-5.05c.86-2.42-1.93-4.61-.48-7.08,1.75-.68,2.57.58,3.49,1.66a7.13,7.13,0,0,1,.69,1.94,15.52,15.52,0,0,0,2.62,5.9C131,155.46,132.29,157.21,133.24,159.14Z"/><path class="cls-123" d="M134.15,166.05c1.23-.77,1-2,1.08-3.19l1.91,1.3-1,2.91C135,167.63,134.08,167.84,134.15,166.05Z"/><path class="cls-124" d="M129.24,163.11c1.95,1.14,1.49,3.6,2.77,5.1l.06,1.68c-1.51-.47-2.74-1.67-4.61-1.13-2.32.68-2.3-1-2.16-2.6C126.62,165.15,128.57,165,129.24,163.11Z"/><path class="cls-125" d="M134.15,166.05l2,1c-1,1.6-2.41,1.07-3.77.68C132.22,166.4,132.1,165.08,134.15,166.05Z"/><path class="cls-54" d="M157.2,145.05a3.51,3.51,0,0,0-2-2c1.6-2.52,4.32-4.5,4-8a1.18,1.18,0,0,1,1.2-.1,4.69,4.69,0,0,1,1,2.29,17.69,17.69,0,0,1,.87,2.85Z"/><path class="cls-126" d="M162.2,140.09a3.55,3.55,0,0,1-2-2,5.78,5.78,0,0,1,1.91-1.49,3.13,3.13,0,0,1,1.18-.13,2.13,2.13,0,0,0,2.53-.39,8.36,8.36,0,0,0,1.54-1.82c.29-.52.59-1,.92-1.55a3.31,3.31,0,0,1,.82-.85,1.17,1.17,0,0,1,1.09.23c-.69,4.15-1.33,8.34-7,8.14A3.17,3.17,0,0,0,162.2,140.09Z"/><path class="cls-127" d="M172.17,122c-1.83,1.27-4.08,2.21-4,5,1.27,1.39,2.19,2.86,1.06,4.78l-.09.3c-2.16.34-3.84-1-5.75-1.61a1.74,1.74,0,0,1-.61-1.2c1.7-3.47,2.16-7.51,4.87-10.51,1.51.33,2.06,2.1,3.6,2.39A5.19,5.19,0,0,1,172.17,122Z"/><path class="cls-128" d="M169.24,131.83c-.35-1.6-.7-3.19-1.06-4.78a25.11,25.11,0,0,1,3.24-2.8,2.27,2.27,0,0,1,2.71.48c1,1,.17,1.94-.61,2.36-1.84,1-1.55,2.45-1.41,4.09s-1,1.15-2,.87A4.11,4.11,0,0,1,169.24,131.83Z"/><path class="cls-66" d="M172.17,122l-1,0c-1.16-2-.41-3.56,1.09-5,3-.26,3.6,1.72,3.93,4C174.77,121.16,173.23,120.59,172.17,122Z"/><path class="cls-129" d="M172.23,117.06q-.54,2.49-1.09,5c-2.32.31-3.11-.9-3-3-1.5-1.8-.44-3.55.07-5.32,1.37-3.08.61-6.86,3.12-9.57,1.7-.19,2.49,1.41,3.81,1.95-.27,2-1.42,3.82-.93,5.92.09,1.77-1.48,2.69-2.08,4.11-.48.3-1,.6,0,.94Z"/><path class="cls-130" d="M172.12,117c-.86.33-1,1.8-2.21,1.49-.17,0-.39-.54-.33-.77.31-1.35,1.38-1.61,2.56-1.66C172.14,116.41,172.14,116.73,172.12,117Z"/><path class="cls-59" d="M14.2,120.05l2.08,0c1-.14,1.46.58,1.83,1.36a31.75,31.75,0,0,1,.95,5.38c.17,1.37.46,3.16-1.85,3.3l0,0Q15.68,125,14.2,120.05Z"/><path class="cls-131" d="M6.23,96c-.6-2.85.48-4.77,3.21-5.76.75-.67,2.09-.43,2.47-1.64s.44-2.69,2.22-2.76c1.65,1.48,1.18,5.53,5.13,4.19a10.07,10.07,0,0,1,2.12-.13,4.16,4.16,0,0,1,2.66,1c.45,4.86.45,4.86-7,5.77-1.5,4.86-.71,9.56.93,14.2a15.58,15.58,0,0,1,.65,2.11c.38,2,1.47,4.09-1.25,5.32a4.43,4.43,0,0,1-1.78-2.46c-2.69-6.13-.88-14.1-7.56-18.61Z"/><path class="cls-132" d="M8.06,97.2c3.22.09,5.77,1.83,5.78,4.84,0,4.85,2.21,9.19,2.4,13.92-.92.37-1.29.08-1.06-.91a4.59,4.59,0,0,0-1.84-3.82c-2.66-1.79-3.38-4.36-3-7.23C10.65,101.28,8.74,99.48,8.06,97.2Z"/><path class="cls-133" d="M15.18,115.05l1.06.92c.36.67.71,1.35,1.06,2a2.11,2.11,0,0,1,1.18,3,.87.87,0,0,1-1.23.05c-.32-.33-.65-.66-1-1,0-2.27-2.41-3.09-3-5Z"/><path class="cls-134" d="M5.11,100.07c.12-.78.22-1.58,1.07-2,.05.66.07,1.31.15,2,.1.85,1.09,2-.61,2.19A15.74,15.74,0,0,1,5.11,100.07Z"/><path class="cls-43" d="M17.25,121l.88,0c2.78,2.27,3.58,5.7,5.11,8.71.29,1.63.65,3.34-2,2.32l-3-.13c-.32-.64-.63-1.28-.95-1.91C19.6,127.05,16,124,17.25,121Z"/><path class="cls-36" d="M111.19,16.05l-1.08.09c-3.74,1.93-7.75-.62-11.52.71a4.8,4.8,0,0,1-3-.23C93.8,13.71,94.38,9.23,90,7.94a2.47,2.47,0,0,1,.21-.84A6.93,6.93,0,0,1,98,8.18c.09.9.19,1.8.28,2.71-.4,2.38.69,3.25,3,3.19A22,22,0,0,1,111.19,16.05Z"/><path class="cls-135" d="M90,7.94c2.8.1,7-1.3,4.51,4.33-.6,1.36,4.45,1.72.61,3.59a1.39,1.39,0,0,1-1.15.62c-2.27-.56-1.39-2.93-2.42-4.17-.45-.08-1,.26-1.34-.3S89.4,10.64,89,10C89.05,9.14,89.1,8.32,90,7.94Z"/><path class="cls-34" d="M70.29,13.12c-2.53,2.58-6.14,1.71-9.11,2.89C63.51,12.82,67.27,14.14,70.29,13.12Z"/><path class="cls-136" d="M168.28,77c1.17.68,1.93.59,1.92-1,2,4.16.34,8.9,2.08,13.1.22,1.29-.43,1.94-1.61,2.21-1.46-.5-2-1.71-2.46-3C168.23,84.57,166.22,80.79,168.28,77Z"/><path class="cls-137" d="M171,90.93l1.27-1.79a4.43,4.43,0,0,1,.9-.09l1.17,1.28a3.43,3.43,0,0,1-3.16,1.7c-.34-.2-.48-.42-.42-.68S170.92,90.93,171,90.93Z"/><path class="cls-138" d="M157.12,55l1.16.11c1.35,1.79,2.69.24,4,0,.29.63.59,1.25.88,1.88L161,57.1a24.46,24.46,0,0,1-3.84,3.49,31.4,31.4,0,0,0-6.5,3.07c-1.17.61-2.25,1.36-3.36,2.08-2.92,1.56-6,2.86-8.68,4.83a40,40,0,0,0-5,3c-.74.45-1.51.84-2.29,1.24a31,31,0,0,0-5,3c-3,1.4-5.83,3.25-8.71,4.93-1,.53-2,1-3,1.61a9.07,9.07,0,0,1-3.1,1.45c-1.64.26-3-.28-3.51-1.93-.55-1.83,1.06-2,2.22-2.57,2.76-1.4,5.78-2.39,7.93-4.79a10.26,10.26,0,0,1,2-2c3-1.74,6.2-3,9-5.08a118.46,118.46,0,0,0,11.89-6.93c1.44-.8,2.91-1.51,4.41-2.19,2.54-.72,4.56-2.32,6.7-3.78C153.46,55.48,154.89,53.63,157.12,55Z"/><path class="cls-139" d="M168.28,77l1.09,12.07c.64,3-1.36,2.41-3,2.27-2.41-3.2-1.88-7.27-3.15-10.82-1.05-3-1.2-6.19-2.77-9a10.82,10.82,0,0,1-1.28-5.28c.19-1,.49-2.34,1.56-2.15,2,.35,2.5,2.36,3.28,4,.17.34-.23,1.12.52,1,.2,0,.36-.84.75-1.16C167.11,70.67,167.08,74.06,168.28,77Z"/><path class="cls-140" d="M165.24,67.9c-.07,1.1-.13,2.19-.25,4.07-1.68-2.81-3-4.94-4.25-7.07,0,0-.31.12-.35.23a7.39,7.39,0,0,0-.22.93c-3.32-.9-3.95-3.12-3-6.12.19-2.4,2.09-2.51,3.82-2.84C162.22,60.77,164.59,64,165.24,67.9Z"/><path class="cls-20" d="M108.18,12.1c2.07-.08,4.15-.22,6,1C111.79,15.18,110,13.59,108.18,12.1Z"/><path class="cls-141" d="M94.24,16.14l.9-.28,3.15.07c1.21-.71,2.27.12,3.39.34,1.07.43,2.65.23,3.25,1,2.8,3.75,6.75,2.47,10.37,2.68l1.86.32c.62,1.38,3.15,1.92,1.86,4.16a4.09,4.09,0,0,1-2,.7c-5.74-.77-11.18-3.25-17.09-3.14-1.08,0-2.4-.77-2.72,1.07-.08.65-.18,1.29-.31,1.92a15.56,15.56,0,0,0-.43,2.62c-.06,1.18,0,2.36,0,3.54,0,.51,0,1,0,1.52,0,1.35,0,2.68.09,4-.28,2.88.7,6-1.42,8.53a1.42,1.42,0,0,1-1.6-.68C92.7,35.06,91.46,25.55,94.24,16.14Z"/><path class="cls-142" d="M119.19,24.06c-.52-1.34-2-2.14-2-3.77,4,1,7.46,3,11.1,4.78,2.5,1.6,1.11,3.35.19,5.08a1.79,1.79,0,0,1-1.38.1C125.42,27,121,27.15,119.19,24.06Z"/><path class="cls-142" d="M115.3,20c-.73,1.16-1,2.26-3.16,1.74a42.32,42.32,0,0,1-11-4.58c2.3-1.75,4.57-.8,6.83.1C110.2,18.77,113.28,18,115.3,20Z"/><path class="cls-143" d="M128.14,30.05c.23-1.65,1.4-3.29.12-5l.9-2c2.88.12,1.15-3.33,3.07-3.95,2.8,2,.74,4-.06,5.93-1.78.78-2,2.32-2,4a1.67,1.67,0,0,1-1,1.3A1.2,1.2,0,0,1,128.14,30.05Z"/><path class="cls-144" d="M108,17.23l-6.83-.1-2.89-1.2c4-2.34,7.87.65,11.82.21Z"/><path class="cls-145" d="M157.12,55c-4.54.92-6.87,6.11-11.86,6.14-.78-2,.9-2.44,2-3.3,4.33-3.3,4.33-3.71.91-7.66-5.51-6.36-12.29-11.1-19.45-15.37-.89-2.74.49-4.4,2.69-5.67a2.66,2.66,0,0,1,3.5,0c4.6,3.14,9.1,6.35,12.48,10.88a1.52,1.52,0,0,1-2.21.24c-3.55-3.3-8.2-4.94-10.51-6.8,8.85,3.57,15.79,12,22.49,20.59Q157.14,54.54,157.12,55Z"/><path class="cls-146" d="M131.37,29.17c-1,1.87-2.27,3.61-2.27,5.85.21,2.16-1.49,3.49-2.24,5.24-.63,1.12-1.2,2.27-1.8,3.4a45.93,45.93,0,0,0-3.19,5.58c-.88,1.72-2.05,3.28-3,5-.77,1.3-1.36,2.71-2.14,4-1.16,1.62-2.71,2.92-3.79,4.62a3,3,0,0,1-2.28,1.45c-2.61-2.58.64-4.77.47-7.2A26.67,26.67,0,0,1,113.44,52a13.72,13.72,0,0,0,2.67-5.29,5.24,5.24,0,0,1,1.29-2.35c1.77-1.4,2.48-3.68,4.16-5.16,3.36-2.38,4-7,7.59-9.19l1-1Z"/><path class="cls-147" d="M157.12,54c-4.56-.44-5.45-5-7.68-7.63A43.39,43.39,0,0,0,135.69,35.3a8,8,0,0,1-4.17-4.36c6.14,2.31,10.47,6.64,15.83,9.07,3.39,1.91,4.87,5.69,7.83,8a2.32,2.32,0,0,1,1.55,1,3.64,3.64,0,0,1,.74,3C157.34,52.68,158.21,53.52,157.12,54Z"/><path class="cls-148" d="M156.11,49.12,155.18,48c0-.75.12-1.49.9-1.9l1.08,1C157.87,48.34,157.83,49.16,156.11,49.12Z"/><path class="cls-149" d="M156.11,49.12a2,2,0,0,0,1-2c2.09,1.5,3.4,3.05.3,4.87Z"/><path class="cls-150" d="M171.34,104.12c-.35,3.43-.69,6.87-2.07,10.09-1.75-1.49-1.4-3.7-2-5.6,1.07-4.18-.71-8.78,1.89-12.73.72-.9,1.29.08,1.93.16C173.44,98.68,170.86,101.44,171.34,104.12Z"/><path class="cls-151" d="M163.27,96l3.93,0c1.63,3.52,1.23,7.11.34,10.7-1.77.07-2.5,1-2.71,2.76-.58,4.79-2.64,9.14-4.35,13.58-.7,1.81-1.5,3.7-3.57,4.51A1.94,1.94,0,0,1,154.6,126c1.76-7.91,5.13-15.42,5.85-23.61.19-2.11.13-4.36,1.36-6.28A1,1,0,0,1,163.27,96Z"/><path class="cls-152" d="M166.18,107.05c2.13-3.52.47-7.38,1-11l2-.12c0,4.43.22,8.88-.94,13.22,0,7.46-2.51,14.11-6.43,20.32-1.29.83-2.59,2.18-3.82-.07,2.11-5.69,4.67-11.22,6.27-17.1.59-1.53.68-3.21,1.37-4.72Z"/><path class="cls-153" d="M166.17,91c1.56.17,2.89-.05,3.2-1.93L171,90.93l.18,1.1c-2.1.79-4.2,0-6.3,0s-4.44-.09-4.71,3c-2.28,2-4.8,1.52-7.36.76-1.8-1.6-.23-2.1.92-2.62,1.45-.65,3.26-.19,4.52-1.46a9.84,9.84,0,0,1,2-1.29,6.94,6.94,0,0,1,2.3-.52A4.72,4.72,0,0,1,166.17,91Z"/><path class="cls-154" d="M152.24,95l7.94,0c1.08.14,2.26,0,3.09,1l-1.16.2c-1.34,1.14-3,1.18-4.59,1.2-.79,0-1.58,0-2.38,0-1.31,0-2.63,0-3.95,0a6.59,6.59,0,0,1-3.85-.93,1.34,1.34,0,0,1-.31-1.48,4,4,0,0,1,3.84-.81A3.5,3.5,0,0,1,152.24,95Z"/><path class="cls-155" d="M48.19,65.07a20.17,20.17,0,0,1-9-5c-.15-2.82,2-4.35,3.5-6.23A54.9,54.9,0,0,1,55.26,42.17c1.48-1,3-2.17,5-1.55,2.51,2.15,4.6,4.55,4.56,8.14C59.6,54.54,53.68,59.59,48.19,65.07Z"/><path class="cls-156" d="M64.24,76c-1.56-2.78-4.65-3.37-7-4.95-.87-4.77,3-6.94,5.63-9.48,4.94-4.78,5.52-4.58,9.85.21,3.33,2.76,4.75,6.8,6.66,10.43S77.5,77.44,76,79.86a3.85,3.85,0,0,1-1.18.82c-3.17.83-5.12-2.23-8-2.48C65.7,77.83,64.57,77.38,64.24,76Z"/><path class="cls-157" d="M72.18,62.06c-.94,0-2.68,2.14-2.52-.78.21-3.87-1-2.67-3.08-1.25a25,25,0,0,0-9.39,11c-2.64-2.53-6.78-2.8-9-6,3.85-6.84,9.93-11.45,16-16,4.34,2.11,5.51,6.69,8,10.24A3.3,3.3,0,0,1,72.18,62.06Z"/><path class="cls-158" d="M60.18,41.07c-9.31,3.78-15,11.6-21,19l-6-3,.32-.63C38.93,49.55,44.51,42.85,52,38c1.64-1.06,3-2.61,5.27-2.29C59,37.06,60.64,38.5,60.18,41.07Z"/><path class="cls-159" d="M33.2,57.05l-2-2a2,2,0,0,1-.55-1.28c6.06-9.51,13.16-17.89,24-22.28a1.73,1.73,0,0,1,1,.92c.4,2.52-1.64,3.47-3.16,4.62A84,84,0,0,0,33.23,57Z"/><path class="cls-160" d="M31.19,54.05v1a4.56,4.56,0,0,1-4.89-3c6.48-9.79,14.28-18.28,24.36-24.49,1.73-.46,2.92-.09,3,2-6,5.42-12.8,10-18,16.36C33.73,48.25,30.39,50.07,31.19,54.05Z"/><path class="cls-161" d="M22.13,55.15c0-.37.05-.73.08-1.1,4.49,0,7.64,3.14,11.13,5.2C39.72,63,46.92,65.52,52.19,71.06l-.51.47c-4.31.56-7-2.75-10.45-4.33-.81-.37-1.62-.75-2.4-1.17a25,25,0,0,1-2.26-1.4,25.12,25.12,0,0,1-3.81-2.56,8.29,8.29,0,0,0-3.09-2c-.4-.14-.79-.31-1.17-.48-2.18-1.64-4.91-.64-7.24-1.5Z"/><path class="cls-162" d="M50.19,28.06c-1.11,1.21-2,2.73-3.38,3.58-7.45,4.7-13,11.21-18,18.28-.67.95-1.07,2.11-2.5,2.11-.05-.34-.11-.69-.16-1l4-6c3.12-3.8,6.11-7.72,9.85-11,3.1-1.86,5.17-5.22,8.95-6.09A.89.89,0,0,1,50.19,28.06Z"/><path class="cls-163" d="M64.24,76l2.94,1.09c2.22,1.49,4.25,3.26,6.7,4.41a1.85,1.85,0,0,1-1.47,3.32,138.58,138.58,0,0,1-17.86-10c-.94-1.16-3-1.66-2.36-3.78h0C56.76,71.34,59.72,75.58,64.24,76Z"/><path class="cls-164" d="M21.26,58.07c2.86-1.47,5.53-1.29,7.93,1-4.62,9.27-7.9,18.94-8.77,29.33a4.49,4.49,0,0,1-1.22,2.67c-6.11,2.69-4.68-2.09-5-5.1-2.88-5.48-.3-10.16,2.21-14.85.9-.79.77-1.91.94-2.93C18.63,64.81,20.84,61.79,21.26,58.07Z"/><path class="cls-32" d="M16.36,71.1c-1,4.92-2.52,9.75-2.21,14.86-1.33,1.13-.74,2.76-1.06,4.16C11,90.07,10,88.71,9.29,87c1.89-4.1-.79-9.23,2.89-12.94Z"/><path class="cls-165" d="M9.29,87a10.52,10.52,0,0,1,3.8,3.14c-1.14,2-2.42.42-3.65.13C8.3,89,5.84,92.3,5.27,89c1.18-.39.55-3.43,3-2Z"/><path class="cls-166" d="M50.19,28.06,49,27.93l1.22-.88c.94-.81,1.89-1.58,3.27-1.17,4.35,2.49,5.63,7.26,8.13,11.1,3.53,5.44,6,11.51,9.74,16.85A6.77,6.77,0,0,1,72.87,59c-.3.74-.7,1.33-1.65,1.06l-7-11c-.35-3.17-3-5.16-4.05-8-1-1.67-2-3.33-3-5-2.18-.57-1-2.84-2-4h0c-.66-.68-1.84-.84-2-2C53.1,28,51.65,28,50.19,28.06Z"/><path class="cls-167" d="M53.19,26.07l-3,1c0-.37-.08-.74-.13-1.11s.18-.59.28-.88A2,2,0,0,0,52.25,24c.32.34.65.68,1,1a.65.65,0,0,1,.2.7C53.34,26,53.27,26.07,53.19,26.07Z"/><path class="cls-168" d="M74.25,83.07l-1-1.07c-.65-1.94,1.56-1,1.94-2h0c.62-.77,1-1.78,1.88-2.28,2.76-1.64,3.1-4.19,2.85-7a2.23,2.23,0,0,1,1.8-1c6.3,2.09,8.11.79,8.18-5.92,0-2.81,0-5.63-.07-8.46.49-6.39-1-12.77-.06-19.15,0-1.94,0-3.87,0-5.81,0-1.61,0-3.23,0-4.84,0-.78,0-1.55,0-2.32,0-1,0-1.92,0-2.88-.22-1.39.65-3.17-1.45-3.85-2.69-.44-5.55.48-8.09-1.05a1,1,0,0,1-.16-1.38c.32,0,.64,0,1-.06,2.78-2.39,6.16.78,9-1,0-.35,0-.7,0-1.05l1-.94c2.29.08,1.38,1.87,1.44,2.95.88,16.53.72,33.08,1,49.62,0,2-.49,4,.64,5.8a4.41,4.41,0,0,0,2,.47c2.1-.14,4.2,1.33,6.3,0,1.4-1.24,2.17-2.91,3.19-4.42.89-1.29,1.5-3.14,3.73-2.43.5,5.5-4.35,12.28-10.33,14.44a3.9,3.9,0,0,1-2,0C90,75.11,84.78,78.84,79.7,82.92c-1.26,1-2.16,2.53-4.06,2.47C74.35,85.11,74.68,83.86,74.25,83.07Z"/><path class="cls-169" d="M90.19,15.09c1.68,1.39.78,3.29,1,5a1.33,1.33,0,0,1-1.4.23c-1.87-1-3.78-.66-5.78-.4a77.59,77.59,0,0,0-26.66,8.52c-1.92-.16-2.38-1.49-2.48-3.11,2.83-2.78,6.91-2.92,10.18-4.78,1.41-.8,3.2-.92,4.15-2.48.78-1,2-.83,3-1.08a4.17,4.17,0,0,1,2.21-.6C79.69,16.17,85,16.16,90.19,15.09Z"/><path class="cls-170" d="M69.17,18c.59.44,1,1.4.35,1.57-4.92,1.38-9,5-14.24,5.44a1.29,1.29,0,0,1-.11-2c3.77-2.25,8.59-1.95,12-5Z"/><path class="cls-171" d="M90.18,13.06c-2.83,1.95-6,.55-9,1-.89-2.15.59-2.08,1.92-1.94C85.46,12.34,87.82,12.73,90.18,13.06Z"/><path class="cls-171" d="M74.09,17H72.21c1.94-3,5.46-1.56,8-2.88q0,.48,0,1C78.73,17.5,76.32,17,74.09,17Z"/><path class="cls-172" d="M55.17,23.07c0,.66.07,1.32.11,2l1.92,3a3.75,3.75,0,0,1,1.06.8c1,1.2,1.79,2.53,2.68,3.8a45.89,45.89,0,0,1,3.12,5,26.45,26.45,0,0,0,2.2,4c1.95,3.25,3.79,6.56,5.68,9.85,1.25,2.4,3.13,4.49,3.67,7.26a3.43,3.43,0,0,1-1.3,2.41c-1.82.36-1.51-1.34-2.09-2.18a255.34,255.34,0,0,0-19-33l0-1Z"/><path class="cls-173" d="M57.16,162c-.45-4.65,2.48-7.79,5-11.13.76,3.56,3.13,5.26,6.43,6.6a66.26,66.26,0,0,0,14.72,4.2c5.23.82,5.55.47,5.61-5,0-.66,0-1.32-.06-2a46.26,46.26,0,0,0-.15-5.52c0-4.53.34-9.05.11-13.59,0-5.38,0-5.38,2.74-6.25.14,11.63.28,23.26.66,34.88.06,2,0,4-1.26,5.71-3.67,2.57-7.48-.19-11.2.28a64.63,64.63,0,0,1-17.94-4.89C60,164.55,57.93,164.22,57.16,162Z"/><path class="cls-174" d="M90.18,155c.11,11.67-.19,8.69-9.52,7.59-5.23-.61-10-3-15-4.84-3.42-1.3-5.43-3-3.57-6.88.36-.62.72-1.24,1.07-1.87a65.92,65.92,0,0,0,19.41,7.34C85.46,156.94,87.87,156.77,90.18,155Z"/><path class="cls-175" d="M90.18,155c-.71,2.83-2.46,3.51-5.27,3a59.41,59.41,0,0,1-19.64-6.49c-1-.59-2-1.16-2.08-2.55,1.27-2.66,2.13-5.52,4.06-7.84,2.87,8.12,15.5,12.44,22.93,7.84Z"/><path class="cls-176" d="M90.18,149c-1.09,3.62-3.08,4.78-6.86,3.27s-7.93-1.67-11.83-3.2c-4.19-1.64-5.36-3.9-4.24-7.91,0-.38,0-.77,0-1.16-.13-1.56.86-1.48,1.91-1.32,4.13,5.21,9.83,6.61,16.08,6.41,2.87-.1,2.65-2.42,2.68-4.42,0-1.56,0-3.13.92-4.5a1,1,0,0,1,1.41-.16Z"/><path class="cls-177" d="M52.19,159.16c-5.56-4-11.6-7.47-15.78-13.15.23-.41,1.26-.52,1-.81-3.7-3.55-5.52-8.55-9.35-12,0-2.44,2-2.27,3.54-2.59a2.22,2.22,0,0,1,1.26.6c3,4.1,5.46,8.57,9.17,12.11a40.41,40.41,0,0,0,3,3.31c3.49,3.4,6.66,7.69,12.52,4.48a1.48,1.48,0,0,1-.33,1.9Z"/><path class="cls-178" d="M57.16,162c7.1,3.12,14.32,5.86,22,7a1,1,0,0,1,0,1.23c-1.26.6-2.77-.24-4,.66a68.53,68.53,0,0,1-14.84-4.84c-1.59-.75-3.45-1.22-4.2-3.13Z"/><path class="cls-179" d="M69.14,138.93,67.21,140l-3.87,1.07a1.32,1.32,0,0,1-.44-1.2c.63-1.52,1.95-2.49,2.92-3.75,2.24-2.89,4.59-5.69,5.81-9.25.53-1.57,1.39-3.08,3.42-3.2a2.55,2.55,0,0,1,1.59,1.35c.59,2.94-1.91,4.71-2.68,7.14C72.42,134.49,71.44,137.18,69.14,138.93Z"/><path class="cls-180" d="M57.14,153c0-.66,0-1.32,0-2a1.83,1.83,0,0,1-.56-1.18,8.46,8.46,0,0,1,3-5.16,2.84,2.84,0,0,1,2.45-.88C61.39,147.41,60.06,150.64,57.14,153Z"/><path class="cls-181" d="M49.19,167.05c0,.33,0,.65,0,1a4,4,0,0,1-1.81-3.93C50,163.85,50.39,165,49.19,167.05Z"/><path class="cls-182" d="M62,143.82l-1.72,1.35-.51-.49c-.47-2.15.47-3.64,2.21-4.77a1.45,1.45,0,0,1,1.32.21,5.46,5.46,0,0,0,0,1Z"/><path class="cls-183" d="M32.07,131l-3.77,2.08a2.13,2.13,0,0,1-.11,2.94c-2.46-.45-1.08-2.84-2.05-4-.28-3,2.95-3,4.05-4.76a12.52,12.52,0,0,1,.94-1c2.68-1.77,5.21-3.85,8.54-4.35,1.54,0,3.15-1.06,4.6.29a1.73,1.73,0,0,1,.07,1.32c-1.7,2.54-4.45,3.69-6.92,5.22C35.65,129.47,34.28,131.21,32.07,131Z"/><path class="cls-184" d="M28.19,136c0-1,.07-2,.11-2.94,5.41,2.44,6.65,8.43,10.28,12.42,1,1.12-1.45.07-2.17.52Z"/><path class="cls-185" d="M31.15,128c-1.15,2-4,1.79-5,4l-1.92,1.1c-1-.4-2.74,1.61-3-1,1.67,0,1.48-1,1.11-2.1a3.3,3.3,0,0,1,2-1.37,7,7,0,0,0,3-.8C28.63,127.26,29.92,126.92,31.15,128Z"/><path class="cls-186" d="M75.25,171c1.08-1.42,2.68-.73,4-1,3.86-1.18,7.37.65,11,1.28.31,1.82-1.62.94-2.13,1.78h0Z"/><path class="cls-187" d="M126.13,156.05c1.47,1.7,3.26,3.29,2,5.92l-7,3a2.65,2.65,0,0,1-2.89.27c.74-3.94,4.71-3.2,6.9-5.19-9,6-19.66,5.55-29.52,8.28a1.45,1.45,0,0,1-1.39-.39L94,130.13c-1.92-3-1-6.32-1.19-9.52a7.88,7.88,0,0,1,.9-4.26,1.36,1.36,0,0,1,1.56-.46,5,5,0,0,1,1.26,3.23,14.78,14.78,0,0,1,.06,2.66c-.08,4.76,0,9.52.09,14.28-.16,4.15-.13,8.3,0,12.45a48.23,48.23,0,0,0,.32,9.83c0,2.75,1.31,3.71,4,3.56,6.87-.38,13.28-2.44,19.59-5C122.37,156.22,124,154.63,126.13,156.05Z"/><path class="cls-108" d="M88.17,173l1.7-1.08c.89-.44.44-1.19.44-1.84,1.15-2.16.88-4.5.88-6.8q0-17.11,0-34.22a4.55,4.55,0,0,1,0-6.13c3.65,1.87,1.89,4.64,1.2,7.23L92.26,153a63.17,63.17,0,0,1,0,16.08c-.73,2,1.61,5-2,6C91.25,172.62,89.52,173,88.17,173Z"/><path class="cls-188" d="M92.32,130.16c-.59-2.35.8-5-1-7.13-2.15-1.4-.28-6.22-4.79-5.59-1.59-.14-3.23-.09-4.51-1.3-.74-2.41.9-2.88,2.66-3.26a10.92,10.92,0,0,1,7.52,2.33c1.4,1.25.6,3.35,1.81,4.69,0,3.41,0,6.82,0,10.23Z"/><path class="cls-188" d="M94.24,168a6.61,6.61,0,0,0,.89.15,73.23,73.23,0,0,0,11.92-.95c1.81-.22,3.66-.7,5.15.9-.94,1.56-3.11.46-4.1,1.9l-4.86.18-8,1C94.06,170.38,94.13,169.18,94.24,168Z"/><path class="cls-188" d="M92.25,169.07q0-8,0-16.08A29.2,29.2,0,0,1,92.25,169.07Z"/><path class="cls-46" d="M97.2,173c-2,.09-2.08,1.43-2,2.92l-1.15-.84c.18-1.13-.07-2.4,1.11-3.17Z"/><path class="cls-189" d="M112.2,168.08c-4.4.51-8.8,1-13.19,1.56-1.64.21-3.36,1-3.88-1.51,1.78-3.32,5.45-2.75,8-2.84,7.53-.26,14.26-2.72,20.95-5.68.74-.33,1.49-.8,2.5,0-1.7,3.51-6.4,2.48-8.37,5.45.23,2.56-2.41.67-3,1.94Z"/><path class="cls-188" d="M115.19,167l3-1.94,2.94-.07a5,5,0,0,1,0,1C119.14,166.34,117.31,167.47,115.19,167Z"/><path class="cls-190" d="M158.14,129.11c1,1.48,2,.33,3.05,0a1.86,1.86,0,0,1,1.68.92l.43.05c0,1,.47,1.14,1.4,1.1,2.08-.08,3.46.76,3.32,3.12a2.82,2.82,0,0,1-1.75,2.83,3.14,3.14,0,0,0-3-.18,6.33,6.33,0,0,1-.87,0c-1.16,0-1.57-1-2.07-1.76l-1.14-.09-1.72,0c-.79-.42-1-1.41-1.84-1.78-.55-.25-1.12-.47-1.68-.71a17.6,17.6,0,0,1-2.24-1.16c-1.89-1.3-3.79-2.59-5.74-3.79a26.26,26.26,0,0,0-5.05-3c-2.36-1.3-4.87-2.36-6.85-4.28a2.79,2.79,0,0,1-.46-1.31,2.54,2.54,0,0,1,.49-1.31c1.65-1.06,3.19-.38,4.74.3a9.55,9.55,0,0,1,1.2.69c2.66,1.65,5.11,3.71,8.37,4.18a7.08,7.08,0,0,1,3.16,1.38c2,1.53,3.77,3.36,6.23,4.18Z"/><path class="cls-152" d="M156.1,132.23c1.81.31,1.62,1.56,1.34,2.85-6,10.08-14.42,17.76-24.2,24.06-2.82-.51-2.79-3.31-4.05-5.06,1.49-1.22,2.44.2,3.58.73,3.44.31,5.42-2.18,7.53-4.15C146.24,145.1,152,139.4,156.1,132.23Z"/><path class="cls-191" d="M126.13,156.05c-5.94,2.31-11.77,4.83-18,6.31-2.95.69-5.87.45-8.77,1-3.45.62-4.27-1.26-3.16-4.28,1.16-1.4,2.87-1.71,4.47-1.91a73.52,73.52,0,0,0,21.87-6.37,1.52,1.52,0,0,1,1.43.45Z"/><path class="cls-192" d="M126,146.31l-2.73-2.38-.61-.31a5.73,5.73,0,0,1-1.79-4.3,1.54,1.54,0,0,1,1.06-.78c3.11,2.55,5.3,1.12,7.92-1.22,4.31-3.84,7.11-9,11.67-12.59,4.12,2.72,4.57,3.8,1.77,7.37C138.64,138.08,134.12,144.41,126,146.31Z"/><path class="cls-193" d="M132.17,156.06c-1-.61-1.4-2.21-3-2a11.65,11.65,0,0,1-3-6,1.27,1.27,0,0,1,1.29-.26c2.77,3.58,5.54,3.12,8.5.15,4.2-4.2,8.69-8.1,12.26-12.9,1.15-1.55,2-3.49,4.07-4.17l1.93,1c.81,3.23-1.43,5.21-3.13,7.33C145.76,145.88,140.21,152.38,132.17,156.06Z"/><path class="cls-194" d="M127.17,148.05h-1c-.06-.58-.11-1.16-.17-1.74a61,61,0,0,0,16.29-14.66c2.41-3.19,1.92-4.85-1.13-6.6a.8.8,0,0,1,0-1,8.79,8.79,0,0,1,5,3c2.4,1.6,2.1,3.64.68,5.6a67.69,67.69,0,0,1-15.09,15.13C130.39,148.74,128.81,149.27,127.17,148.05Z"/><path class="cls-195" d="M123.94,151.23l-.8-.11c-1.65-1.22-2.24-3.22-3.48-4.74-.76-1.32-1.35-2.72-2.1-4s-1.43-2.22-2-3.42a4.74,4.74,0,0,1-.3-2,2.24,2.24,0,0,1,1.55-2.13c1.78.28,2.76,1.58,3.72,2.91a2.29,2.29,0,0,1,.2,1.29,10.21,10.21,0,0,0,2.56,5v-.06C122.55,146.45,127,148.51,123.94,151.23Z"/><path class="cls-196" d="M160.3,135.14a3.17,3.17,0,0,1,2.07,1.76,2.26,2.26,0,0,1-2.2,1.15C160.22,137.08,160.26,136.11,160.3,135.14Z"/><path class="cls-197" d="M168,134.28a4.23,4.23,0,0,0-4.91-2.18c-.77.16-.82-.12.19-2,2.39-.56,4.16.63,5.85,2.07A2.22,2.22,0,0,1,168,134.28Z"/><path class="cls-198" d="M163.24,136.93c1.18-2.84,2.06-.62,3,.18A2.39,2.39,0,0,1,163.24,136.93Z"/><path class="cls-199" d="M162.87,130l-1.68-.92a89.74,89.74,0,0,0,7.08-20c1.59,1.46.6,3.42,1,5.11-.38,1.6-.75,3.2-1.12,4.8C166.46,122.71,165.79,126.9,162.87,130Z"/><path class="cls-200" d="M27.2,129a2.12,2.12,0,0,1-2.86,0c-3.63-2.65-4.45-6.69-5.29-10.71-.39-1.89.07-4-1.76-5.47l0-1.71c-1.85-4.87-1.92-9.9-1.4-15,1.68-1,3.45-.53,5.2-.36,1.58,1.36,1.5,3.26,1.4,5-.45,8,1.74,15.6,4.23,23.09C27.31,125.56,28.43,127.18,27.2,129Z"/><path class="cls-160" d="M30.18,59.09l3,2a18.36,18.36,0,0,1-1.77,5.13,45.05,45.05,0,0,0-5.19,18.58,13.66,13.66,0,0,1-1.47,5.76l-.57.53h-3c-2.3-3.2-.55-6.46.06-9.58C22.86,73.48,25.06,65.69,30.18,59.09Z"/><path class="cls-201" d="M30.18,59.09C27.4,67.29,23,74.93,21.73,83.68c-.37,2.48-.39,4.91-.52,7.37h-2C19.13,81,22.09,71.71,26,62.61a6.66,6.66,0,0,1,3.23-3.56Z"/><path class="cls-202" d="M21.2,96l-5,.08c-.32-.24-.42-.47-.31-.69s.22-.34.33-.34c.49,0,1,0,1.48,0,3.12.23,6.14.3,6.45-4h0c2.6-2,5.62-1.36,8.55-1.35,1.41.17,2.84.31,3.63,1.75a1.42,1.42,0,0,1-.78,1.22c-1.71.63-3.51.26-5.27.37,2,0,4,.07,6-.06a32.44,32.44,0,0,1,8.29-.21c1.55.1,3.41,0,3.66,2.33-2.44,2.08-5.38,1.15-8.13,1.32-3.8.23-7.64-.33-11.42.44a12.85,12.85,0,0,1-5.27.37A4.75,4.75,0,0,1,21.2,96Z"/><path class="cls-203" d="M17.29,112.81c3.28,2,2.22,5.81,3.68,8.59,1.28,2.45,2.26,5.06,3.37,7.59a2,2,0,0,1-2,1,33.53,33.53,0,0,1-4.17-8.93c-.28-1-.55-2-.83-3.06C19.19,116.26,17.61,114.54,17.29,112.81Z"/><path class="cls-204" d="M16.26,95.07c0,.34,0,.69,0,1-.55,5.06.87,10,1.08,15C14.66,105.91,13.83,100.6,16.26,95.07Z"/><path class="cls-205" d="M94.35,70.82c-.34.76-.58,2.6-1.6.77-.74-1.32-.54-3.22-.54-4.86,0-16.83,0-33.65-.06-50.48,0-1.74.7-3.7-1-5.18.29-1.37.83-2.62,1.82-.5.8,1.7-.61,4,1.22,5.57q0,14.49.1,29c1.45,1.66,1.36,3.71,1.21,5.66C95.05,57.46,96.94,64.28,94.35,70.82Z"/><path class="cls-206" d="M111.33,64.11l1.25-1.93c2.81-1.49,5-.65,6.8,1.78s4.88,4.45,5.14,8.07c-1,1.68-3.34,1.46-4.22,3.22-.4.52-.79,1-1.18,1.57-1.19,1.52-3.22,1.6-4.63,2.66-2.84,2.14-4.8,1-6.63-1.38-.89-1.17-2-2.18-2.29-3.72C106.49,70.4,108.87,67.23,111.33,64.11Z"/><path class="cls-207" d="M121,49c.53-2.31,2-4.1,3.35-5.93,3.5-1.49,5.65,1.07,7.82,2.88,3.43,2.88,6.45,6.22,9.58,9.43,4,4.12,4,4.45-.53,7.73a37.11,37.11,0,0,1-12,7.08,1.56,1.56,0,0,1-.24-1.33c.69-1.67,2.16-2.44,3.69-3.13,5.18-3.17,5.28-3.67,1.08-7.91C130.08,54.11,126.74,49.81,121,49Z"/><path class="cls-208" d="M141.22,63.13c3.33-3.09,1.89-5.32-1.08-7.7-5.21-4.18-8.58-10.71-15.79-12.34L126,40c1.56-1.94,3.38-1.86,5.25-.57,6.18,4.23,12.21,8.64,16.44,15,1,1.48,1.6,2.9.45,4.55a2.78,2.78,0,0,0-2.87,2.19A6.93,6.93,0,0,1,141.22,63.13Z"/><path class="cls-209" d="M114.37,83.14,117,82a6.75,6.75,0,0,1,1.4-.46c2.34-.54,4.17-3.83,7.09-1.36,2.24,1.9,3.7,8.15,2.68,11.3-3.74,1.7-7.63.88-11.48.66a4.7,4.7,0,0,1-1.61-.81C113.18,88.74,112.1,86.09,114.37,83.14Z"/><path class="cls-210" d="M147,64.9a4.35,4.35,0,0,1,3-2c2.65-1,4.24.57,5,2.62,3.22,8.21,7.17,16.35,4.3,25.6a3.18,3.18,0,0,1-3.13.42,3.77,3.77,0,0,1-2-3.22C153.93,79.86,150.5,72.37,147,64.9Z"/><path class="cls-211" d="M159.13,91c-1.95-2.54.41-5,.06-7.59-.84-6.23-3.47-11.89-5.38-17.78A4.14,4.14,0,0,0,150,62.94c2.1-1.71,4.28-3.21,7.18-3a11.39,11.39,0,0,0,3,6.12c.34,1.66.68,3.33,1,5,.65,1.37,1.46,3.59.39,4.08-1.62.74-1.17.94-.83,2.25,1.18,4.45,2.61,8.94,1.43,13.66l-1.89.1A.73.73,0,0,1,159.13,91Z"/><path class="cls-212" d="M147,64.9c5.89,5.51,7.06,13,8.18,20.37.29,1.92-.1,3.94,1,5.72-1.24,1.38-2.75,1.3-4.33.77-2-3.19-1.47-7-2.14-10.45a31.31,31.31,0,0,0-3.63-9.73C145.11,69.92,144,69,142,70c-1.4.45-2.81,1.28-4.12-.15A28.38,28.38,0,0,1,147,64.9Z"/><path class="cls-213" d="M137.91,69.89l4.27-.84c4.69,6.74,7,14.11,5.89,22.36a3.87,3.87,0,0,1-3.78.27c-3.5-2.74-3.16-7.08-4.22-10.75-1.16-4-2.71-7.25-7.23-8.05A11.11,11.11,0,0,1,137.91,69.89Z"/><path class="cls-214" d="M132.84,72.88c4.4-1.36,6.59.29,7.51,4.81s2.52,8.86,3.82,13.28c-1.66,1.71-3.58,1.48-5.56.75-2.68-5.84-4.3-12.13-7.57-17.73Z"/><path class="cls-215" d="M131,74c5.11,4.52,7,10.38,7.14,17-1.38,1.46-3,1.35-4.67.67-1.65-1.19-1.8-3.11-2.21-4.84a19,19,0,0,0-5.37-9.88A9.18,9.18,0,0,1,131,74Z"/><path class="cls-216" d="M125.93,76.94c3-.3,3.76,2.07,4.76,4.12A22.81,22.81,0,0,1,133.17,91c-1.68,1.54-3.35,1.55-5,0,.46-3.74-2.42-6.37-3.28-9.7-.42-1.64-2.25-1.45-3.27-.47-1.4,1.33-2.93,1.34-4.6,1.23A32.17,32.17,0,0,1,125.93,76.94Z"/><path class="cls-217" d="M114.37,83.14c-1,2.72.72,5.07,1.06,7.6,0,.23,0,.45-.05.68-2.81,4.24-3.71-.64-5.52-1.16-.72-1.06-.84-2.42-1.75-3.38a11.34,11.34,0,0,1-2.17-3.22c-.61-2.39-4-2.93-3.91-5.79,2-.57,1.61-3.79,4.14-3.8,4.49,6,4.49,6,13,2.75-2.58,3.64-6.76,4.59-10.64,6.43C110.46,86.83,112.44,83.68,114.37,83.14Z"/><path class="cls-218" d="M129.19,69.07l.06,1.14a23.52,23.52,0,0,1-9,5c-.19-2.82,2.67-2,3.84-3.24a5.83,5.83,0,0,1,4.39-3.2Z"/><path class="cls-219" d="M162.17,91c-.94-5-2.29-9.91-2.49-14.91,0-1,1.47-3.17,1.5-5.08a47.28,47.28,0,0,1,5,20Z"/><path class="cls-220" d="M118.18,45l-1.08,2.07a2.63,2.63,0,0,1-2.2,1.64A4.71,4.71,0,0,1,111,46.87c-2.78-4.07-7.52-3.42-11.42-4.76-1.37-.47-2,.68-2.36,1.9s-.55,2.33-2.15,2.21a.82.82,0,0,1-.24-.83c.1-.26.19-.4.28-.4l.1-8.92c3-3,6.62-1.16,9.88-1.08,3.81.08,7.41,1.78,10.92,3.32C119.17,39.69,120.4,41.83,118.18,45Z"/><path class="cls-221" d="M95.21,31.08c0-1.35,0-2.69,0-4a34.48,34.48,0,0,1,12,.19,10.61,10.61,0,0,0,4.79,0c3.27-.47,6.18.83,9,2.06,4.33,1.85,4.64,3.79,1.59,7.88-3.32,1-5.71-2-8.78-2.07-3.51-1.22-7.29-1.41-10.74-2.86-2.12-1.3-4.41-.92-6.69-.67A2,2,0,0,1,95.21,31.08Z"/><path class="cls-222" d="M122.13,37.07c3-4,1.68-6.13-2.86-7.15-2.38-.53-4.53-1.93-7.07-1.87h-.65c-2.6-.1-5-1.31-7.68-1.1a9.78,9.78,0,0,1-1.3-.3c-1.51-.5-3.1-.33-4.65-.57A2.63,2.63,0,0,1,96.17,25V23.08c5.25-2.28,10.27.2,15.4.63,1.86.15,3.63,2.33,5.61.37l2,0c2.78,1.87,7.66.94,8,6-.55,3.34-1.71,6.33-4.79,8.2a.82.82,0,0,1-.43-.75C122,37.23,122.05,37.07,122.13,37.07Z"/><path class="cls-223" d="M122.13,37.07l.17,1.12c.46.69.49,1.32-.29,1.82-1.73,1.31-1.47,4.16-3.83,5,.84-2.79-.15-4.68-2.83-5.74-6.46-2.56-13.1-4-20.11-3.18,0-1.34,0-2.67,0-4,6.35.45,12.63,1.6,19,2C117.28,33.9,119.53,36,122.13,37.07Z"/><path class="cls-224" d="M117.18,24.08c.4,1.11,2.17,1,2.29,3-7.58-3.25-15.47-3.36-23.3-4,.06-3,0-2.82,2.89-2.64C105.27,20.85,111.16,22.75,117.18,24.08Z"/><path class="cls-225" d="M114.19,34.06c-.21.7,1.84,2.11.41,1.7A58.57,58.57,0,0,0,98,34c-1.36,0-1.78-1.37-2.76-1.94a4.58,4.58,0,0,1,0-1l1,0a11.57,11.57,0,0,1,7,0Z"/><path class="cls-226" d="M96.17,25l2,.07c1.5,1.19,3.5-.19,5,1h0c3,.76,6.11.83,9,2h0c-5.74,1.23-11.35.07-17-1A2,2,0,0,1,96.17,25Z"/><path class="cls-227" d="M95.14,45c0,.37.09.73.14,1.09,1.71,1.74,1.24,4,1.28,6,.1,5.71-.09,11.43.13,17.14A2.73,2.73,0,0,1,96.23,71l-1.88-.14q0-12.85,0-25.69Z"/><path class="cls-228" d="M122,40c.1-.61.19-1.22.29-1.82,2.56-2.14,3.32-5.37,4.91-8.1a7.23,7.23,0,0,0,.93,0l1,0C126.9,33.45,125.92,37.77,122,40Z"/><path class="cls-229" d="M148.13,59c-.68-4.78-4.38-7.62-7.4-10.69s-6.69-5.36-10.1-8A4.05,4.05,0,0,0,126,40c1-1.66,2.08-3.31,3.11-5,4.82-.11,7.69,3.71,11.15,6,3.8,2.5,6.63,6.46,10,9.64C154.71,54.83,151.1,56.79,148.13,59Z"/><path class="cls-230" d="M96.17,70.08c-2.1-4.4-.6-9.06-.9-13.59-.24-3.45,0-6.94,0-10.41,2.09-6.31,2-5.62,9.26-4.32,4.73.85,6.79,4.81,10.66,6.3,1.21,1.71-.56,2.76-.93,4.12l-2.17,4.65a.82.82,0,0,1-1.15.37c-2.36-2.66-5.45-3.79-8.83-4.71-4-1.09-5.11.29-4.5,4C97.22,61,99,65.81,96.17,70.08Z"/><path class="cls-218" d="M121,49c1.93-1,3.51-.82,5.45.49,2.94,2,5.21,4.6,7.68,7,6,5.87,5.94,5.91-1,10.48-2.25-2.05-3.29-5-5.13-7.27-2.56-3.22-5.37-6.22-10.09-5.74Z"/><path class="cls-231" d="M117.93,54c5.74-4,7.92,1.9,10.58,4.48A14.91,14.91,0,0,1,133.15,67c-1.71-.06-2.6,1.46-4,2.06v0c-2.13-.69-4.09-2.08-4.71-4-1.42-4.36-4.77-5.87-8.59-7.05A8.27,8.27,0,0,1,117.93,54Z"/><path class="cls-232" d="M115.88,58c4.21-.39,7.37.46,8.76,5.29.63,2.18,3,3.86,4.54,5.76l-5,3c-1.37-1.87-2.69-3.77-4.12-5.6-1.89-2.41-4-4.56-7.44-4.23C113.08,60.31,114.67,59.3,115.88,58Z"/><path class="cls-233" d="M111.22,57.14a3.08,3.08,0,0,0,.88-.31c1.3,2.59-3,4.59-.77,7.28-.86,3.77-3.74,6.49-5.16,10-1.4,1.31-1.21,4.2-4,4.06-1.45.89-2.33.27-2.92-1.1A25.27,25.27,0,0,0,108,66.87c.7-1.38,1.3-2.6,1-4.14C108.15,60.24,109.45,58.59,111.22,57.14Z"/><path class="cls-227" d="M114.27,52.18l.93-4.12c.63-.34,1.27-.67,1.91-1A6.67,6.67,0,0,1,114.27,52.18Z"/><path class="cls-234" d="M151.16,125.08,148.27,124a1,1,0,0,1,0-1.41c5.81-6,6.2-13.83,7.49-21.38.3-1.76,0-3.65,1.42-5.1l5,.06c0,10.48-2.69,20.36-6.93,29.87C153.63,126.59,152.42,125.72,151.16,125.08Z"/><path class="cls-235" d="M165.19,112.06c-1.77,5.92-2.46,12.29-7.05,17.05v0c-.46-.61-1.61-.89-1-2,3.74-7.36,6.56-15,7.33-23.53,2.45.52,1.31,2.37,1.68,3.51h0C164.94,108.54,166.35,110.55,165.19,112.06Z"/><path class="cls-152" d="M157.17,127.07c.32.67.64,1.35,1,2-2.7-.7-5.24-1.66-7-4,1.48-.26,2.74.4,4,1A2.13,2.13,0,0,0,157.17,127.07Z"/><path class="cls-151" d="M165.19,112.06c.23-1.69-.68-3.61,1-5C166,108.74,166.82,110.65,165.19,112.06Z"/><path class="cls-236" d="M128.17,90.92l5,0,5,0h9.95a2.15,2.15,0,0,1,3.05,0l5,0h3l1.15.15-1.11.9a4.35,4.35,0,0,1-1.62.85c-7.33.63-14.67.6-22,.56h-4.61c-3.48,0-7,.11-10.43-.08-1.69-.1-3.83.32-4.35-2.22Z"/><path class="cls-237" d="M158.17,92.05h1c-1,4.11-5.27.46-6.93,2.95h-1.13a4.71,4.71,0,0,0-5.14.51,4.35,4.35,0,0,1-1.44.12c-2.69-.44-5.42-.18-8.13-.29a7.65,7.65,0,0,1-5.06-1.73,1.13,1.13,0,0,1-.18-1.42l4,0A114.69,114.69,0,0,0,158.17,92.05Z"/><path class="cls-238" d="M151.16,96.11l4,0c1.66,2,.53,4.16.21,6.18a123.38,123.38,0,0,1-3.4,14.46c-.68,2.39-1.65,4.73-4.26,5.76-3.49.39-5.75-2.17-8.5-3.56h0c-.83-.54-1.81-1-.91-2.25a3.06,3.06,0,0,1,2.12-.27c3.37,1.29,4.54-.92,5.29-3.48,1.18-4,2-8.06,3.05-12.07C149.27,99.11,149.6,97.33,151.16,96.11Z"/><path class="cls-239" d="M151.16,96.11c-1.87,6.61-2.65,13.49-5.27,19.94-1.59,3.91-3.36,3.25-5.71,1a2.71,2.71,0,0,1-.49-2.81c2.19-5.94,3-12.27,5.2-18.2a1.94,1.94,0,0,1,2.32-.08Z"/><path class="cls-240" d="M147.07,122.1c4.91-3.34,4-9.18,5.74-13.84,1.43-3.81,1.62-8.07,2.36-12.13l2,0a53.62,53.62,0,0,1-4.59,23.06c-.83,1.9-1.41,4.27-4.36,3.86C147.16,123.54,147,123,147.07,122.1Z"/><path class="cls-241" d="M147.21,95.94l-2.05.2c-1.46,1.23-3.2,1.32-5,1.3-2,.09-4,.07-6,0-2.8.08-5.6,0-8.41,0-3.21-.18-6.41-.27-9.5.91a1.58,1.58,0,0,1-1.47-.68,2.72,2.72,0,0,1,.16-2.54c4.78-2.93,10-1,15-1.4,2.07.31,4.11.94,6.24.78,3,.2,6-.43,8.92.43h1.1c.37-.38.68-.33.92.14Z"/><path class="cls-153" d="M147.15,95.14l-.92-.14a3.35,3.35,0,0,1,4.88,0Z"/><path class="cls-242" d="M72.22,59.05l2,2a15.72,15.72,0,0,1,5.95,10.07c3.93,6.07-3.17,6-4.95,8.92,6.17-6.24,1.07-11.19-1.9-16.37-.33-.56-.73-1.08-1.1-1.62l-1-2Z"/><path class="cls-243" d="M75.19,80l-1.94,2a11.33,11.33,0,0,1-6.07-4.93C70.26,77,72,80.55,75.19,80Z"/><path class="cls-244" d="M55.19,32.07q1,2,2,4C49.49,40.83,42.34,46.19,37.3,53.9c-1,1.55-2,3.07-4.08,3.13,0-3.93,3.05-6.09,5.23-8.6A86.17,86.17,0,0,1,53.08,35.16C54.23,34.33,55.17,33.58,55.19,32.07Z"/><path class="cls-245" d="M53.19,30.05a3.41,3.41,0,0,1,2,2c-3.59.28-6,2.89-8.27,5-5.6,5.28-11.66,10.22-15.73,16.95-1.77-.2-2.57-1.34-1.48-2.69C36.43,43.05,43.1,34.65,53.19,30.05Z"/><path class="cls-246" d="M36.2,92c-.73-1.16-1.91-.94-3-1,.46-9,1.38-17.92,8-25,3.92,1.1,6.59,5,11,5l3,3c-.91,2-1.74,4.3-4.54,2.23-1.74-1.29-1.49.49-1.68,1.07-1.09,3.27-2.55,6.44-2.54,10,0,1.47-.06,3-1.25,4.14-1.84,1.15-4,.73-6,1.38A3.19,3.19,0,0,1,36.2,92Z"/><path class="cls-247" d="M41.2,66.07c-4.65,7.68-5.45,16.6-8,25l-9,0c.79-10.66,2.12-21.16,9-30l4,3c.82,2.06-.78,3.39-1.47,5a115,115,0,0,0-4.83,15.4c1-3.88,2.16-7.7,3.41-11.5,1-3,2.09-6,4.86-7.85Z"/><path class="cls-248" d="M39.17,65.1C35.63,71.84,33.23,79,30.78,86.25A43.07,43.07,0,0,1,37.2,64Z"/><path class="cls-249" d="M45.19,91c-.67-6.71,1.89-12.61,4.33-18.58,2.61.55,1.06,2.69,2,3.78,1.68.15,2.17-1.84,3.62-2.18l17,10c.88,2.1.26,4-.82,5.82a6.34,6.34,0,0,1-5.21,2.42c-5.61,0-11.23.51-16.81-.32-3.52-2.2.12-5-.75-6.87-.63,1.64-.31,4.06-1.38,6.15A1.73,1.73,0,0,1,45.19,91Z"/><path class="cls-250" d="M71.17,89a8.36,8.36,0,0,1,1-4.93l2.09-1a2.24,2.24,0,0,1,1,2c1.49,1.77,1,3.43-.28,5-1.33.75-2.27,3.25-4.3,1A2.52,2.52,0,0,1,71.17,89Z"/><path class="cls-251" d="M75.17,59.07l-4-7a1.66,1.66,0,0,1,.72-2.15A36.2,36.2,0,0,1,88.5,45.46c1.31,0,2.65.79,1.91,2.08-1.78,3.13,1,5.64.74,8.49,0,3.45-.11,6.9.08,10.34.15,2.76-.39,4.6-3.46,5.46-2.73.78-5,1.28-6.54-1.76C78.42,66.84,75.58,63.63,75.17,59.07Z"/><path class="cls-252" d="M91.15,56c-1.24-2.3-.81-6.12-5.25-5.22.55-2.43,3.85-1.2,3.83-4.23-6.59.65-13.07,1.18-18.54,5.48q-3-5-6-10c5.36-4.84,20.5-8.35,25.93-6Q91.14,46.05,91.15,56Z"/><path class="cls-253" d="M74.22,90.05a8.84,8.84,0,0,0,1-4.94c3-1.59,5.48-4.08,7.89-6.16C88.47,74.31,93.58,75.28,99.2,77l2.92,1.1c1.76,1.56,4,2.6,5,5a2.82,2.82,0,0,1-1.94.71c-2.06-.24-3.53-1.6-5.18-2.66-.91-.59-2-2.1-3.09-.18.37,1.66,3.28,2,2.31,4.3-2.35-.11-5.23,3.52-7-1.1-.39-1-1,0-1.41.34a10.33,10.33,0,0,0-3.9,5.5,24.73,24.73,0,0,1-2.4,3.36c-1.72,1.14-2.61,3.18-4.48,4.16-1.63.38-2.66-.45-3.46-1.73a15.45,15.45,0,0,0-2.11-4C74.12,91.26,73.75,90.71,74.22,90.05Z"/><path class="cls-159" d="M63.2,38.06c-1-1.67-2-3.33-3-5l.5-.64c8-4.95,17-6.95,26.23-8.35a4.66,4.66,0,0,1,4.17,1l0,5c-1.38,1.37-3.2,1.69-5,2.1C79.67,33.64,73,34.5,67,37.67A4.06,4.06,0,0,1,63.2,38.06Z"/><path class="cls-254" d="M63.2,38.06c8.7-4.8,18.24-6.64,27.93-8,0,2,0,4,0,6-9.19-.36-17.41,3.47-25.93,6C64.63,40.68,63.06,39.8,63.2,38.06Z"/><path class="cls-255" d="M96.17,70.08q0-7.5,0-15c2.74-.84,10.58,1.65,12,3.74,1,1.58.15,2.86-.6,4.11a54.39,54.39,0,0,0-4.34,8.28c-2.42,2.44-4.66-.6-7-.24A8.67,8.67,0,0,0,96.17,70.08Z"/><path class="cls-256" d="M103.25,71.2c0-3.33,2.13-5.77,3.55-8.52.61-1.19,2.24-3-.06-3.67-3.62-1.07-6.37-4.43-10.53-3.94-.75-4.58,1.13-5.67,5.22-4,3.62,1.48,8.65.62,9.79,6.07L109,62.73C106.29,65,105.83,68.82,103.25,71.2Z"/><path class="cls-257" d="M60.19,33.07l-2.94-4c10.14-6.07,20.88-9.94,32.94-9h1c0,1,0,2,0,3-5.61,2.41-11.89,1.74-17.6,3.86-4.61,1.71-9.37,3-13.31,6.11Z"/><path class="cls-169" d="M60.21,33c0-2.61,2.19-3.17,3.95-3.93a70.15,70.15,0,0,1,27-6l0,2c-8.73.85-17.32,2.26-25.3,6.2C64,32.12,62.34,33.29,60.21,33Z"/><path class="cls-258" d="M74.09,17c1.69-1.72,4.3-.53,6.09-1.92l10,.05C84.93,16.63,79.72,18.58,74.09,17Z"/><path class="cls-259" d="M75.17,59.07l6.06,11-1.09,1.06-6-10.07A2.05,2.05,0,0,1,75.17,59.07Z"/><path class="cls-245" d="M90.19,20.06c-6.31,1.62-12.88,1.57-19.18,3.8-4.63,1.64-8.68,4.82-13.76,5.19,0-.33,0-.66,0-1,6.63-6,15.25-6.91,23.41-9a29.12,29.12,0,0,1,5.3-.92C87.55,18.07,89.73,17.28,90.19,20.06Z"/><path class="cls-260" d="M87.18,116c5.8-.23,3.29,4.37,4.09,7l-.12,6c-1.68,2.14-.49,4.68-.94,7h-1c-3.1,2.4-5.87.32-8.72-.64.86.52,1.91,1.1,1.73,2.19s-1.35,1.34-2.36,1.38c-1.67.07-3.24-.58-4.88-.74-4.24-1.09-2.61-3.91-1.89-6.45,1.05-2.24,2.11-4.48,3.16-6.73-.38-1.72.48-2.25,2-2.12,1.11,1.35.37,3.5,2.38,4.6,4.78,2.6,6.83,1.44,7.47-4C88.45,120.85,87.31,118.53,87.18,116Z"/><path class="cls-188" d="M90.31,170.08c1,.88.84,1.49-.44,1.84a32.93,32.93,0,0,0-10.58-2,3.28,3.28,0,0,1-.08-.88C83,168.45,86.58,170,90.31,170.08Z"/><path class="cls-261" d="M73.07,131.78c.86,1.69-2.2,5,2.12,5.26,2.31,1.58,5,1.67,7.61,1.73A8.74,8.74,0,0,1,89.19,141c-.16,5.18-5.92,8.13-10.72,5.12a12.76,12.76,0,0,0-5.85-2.24c-3-.28-3.69-2.36-3.48-5C69.78,136.18,71.57,134.06,73.07,131.78Z"/><path class="cls-262" d="M89.19,141c-4.64-1.44-10-.38-14-4a22.74,22.74,0,0,0,3.78.74c.83,0,3.64,1.52,1.64-1.67-.54-.86-.12-1.23,1.38-1,2.4.33,4.71,1.31,7.2.95Z"/><path class="cls-263" d="M32.07,131c1.54-1.26,3-2.58,5.1-3l.51.44c1.56,4.29,4.84,7.41,7.5,10.95,3.09,4.55,7.7,7.4,12,10.62v1c-3.27,5-6.5,2.72-9.54-.17-2.26-2.15-4.28-4.54-6.41-6.83-2.07-4.9-5.55-8.84-8.8-12.93Z"/><path class="cls-264" d="M32.4,131.11c1,0,2-.13,2.67.86,2.29,3.41,4.54,6.85,6.88,10.23.79,1.15.74,1.73-.75,1.84C37.55,140.21,33.85,136.42,32.4,131.11Z"/><path class="cls-265" d="M75.13,124c-3.51,3.14-3.67,8.36-7.15,11.51-.59.54-1.2,1.06-1.8,1.58a2.46,2.46,0,0,1-.88-1.8c-.08-1.45.75-2.53,1.46-3.66.26-.58.54-1.16.81-1.74a9.71,9.71,0,0,1,1.32-2.15,14,14,0,0,0,2.82-4.07c1.53-1.92,2.36-4.27,3.87-6.21a1.43,1.43,0,0,1,1.89-.33,3.24,3.24,0,0,1,.42,2.77A7.79,7.79,0,0,1,75.13,124Z"/><path class="cls-266" d="M75.13,124a6.74,6.74,0,0,1,2-4,2.63,2.63,0,0,1,2.3,1.06,1.71,1.71,0,0,1-1.21,2.07l-2,2Z"/><path class="cls-267" d="M66.16,135c0,.68,0,1.35,0,2l-2.84,3.06-1.14-.07c-.08-.2-.16-.41-.25-.62.26-1.64,1.48-2.68,2.44-3.89C64.89,135.08,65.42,134.68,66.16,135Z"/><path class="cls-182" d="M57.15,150c-5.89-1.29-9.42-5.64-12.94-10a2,2,0,0,1,2.21-.58,8.45,8.45,0,0,1-1.67-1c-3.26-2.86-4.79-7-7.33-10.33l-.25-.13,7.11-4.71a1.9,1.9,0,0,1-.41,2.65c-1.73,1.49-1,2.68.07,4.17,4.46,6,9.36,11.41,16.16,14.81l.22.23Q58.73,147.6,57.15,150Z"/><path class="cls-267" d="M60.1,144.94c-5.91,0-8.64-4.84-12.4-8.11-.85-.74-1.26-2-2.05-2.79-3.1-3.27-6.5-6.44-1.37-10.73l-.13-.32a1.63,1.63,0,0,1,2-.24C49,130.83,55.54,135.46,62.18,140l0,0Z"/><path class="cls-268" d="M23.18,96l4.88-.1.57.42c1.23,7,1.47,14.13,3.71,21,1,3.17,2.39,5.15,6,3.27a5.26,5.26,0,0,1,1.42-.22,3,3,0,0,1,1.36.45c.75,1.23-.24,1.69-1,2.26-3.55.08-5.78,3.07-8.92,4-2.41,1.12-3.52-.68-4.15-2.28-3.5-9-5.9-18.18-4.42-28A2.4,2.4,0,0,1,23.18,96Z"/><path class="cls-269" d="M23.18,96a72.54,72.54,0,0,0,3.91,26.06c.74,2.17,1.55,4.34,4.14,5a4.37,4.37,0,0,1-.08.88L27.2,129c-4.21-10.6-7-21.45-6-33Z"/><path class="cls-270" d="M40.15,123l1.16-1.89c.53-1.25,1.67-1.87,2.68-2.62a41.09,41.09,0,0,0,3.77-2.14,22.77,22.77,0,0,0,3.92-3.07c1.18-.81,2.06-.39,2.78.67a2.14,2.14,0,0,1-1.1,2.53c-2.29.8.21,1.12.08,1.66,0,1.35-1,1.86-1.93,2.48-1.77.78-3.13,2.52-5.33,2.29l-2,.07C42.81,121.22,41.48,123.47,40.15,123Z"/><path class="cls-271" d="M95.22,136v-15c3.16.63,1.86,3.25,2.21,5.1.32,1.66-.33,4.25,2.52,3.68,2.41-.48,6.11.3,6.22-3.91,0-1.17-.27-2.28.9-3.06,2.7-.2,3.2,2,4.15,3.75,1,3.17,3.89,5.58,3.73,9.23-3.51,5-11.6,7.46-18.62,5.64C94.94,139.87,96.42,137.69,95.22,136Z"/><path class="cls-272" d="M107.19,123.05c.89,5.67-2.47,8.92-8.93,8.79-2,0-1.9-1.3-2.08-2.65-.37-2.71,1-5.63-1-8.14,0-.67,0-1.34,0-2,.73-1.45,1.15-3.14,2.84-3.91a5.35,5.35,0,0,1,5-.73,5.54,5.54,0,0,1,2.18,2C106.32,118.46,108.21,120.32,107.19,123.05Z"/><path class="cls-273" d="M120.3,145.81a8.49,8.49,0,0,1,2.84,5.31c-8.06,5.81-17.6,6.58-27,7.94-2-3.19-.57-6.69-.93-10,1.71-.16,1.8,1.32,2.37,2.3,2.25,2.46,4.92,1.13,7.37.68C110.49,151,115.81,149.4,120.3,145.81Z"/><path class="cls-274" d="M96.19,152c0-1.09.16-2.25-1-3q0-6.5,0-13c1.63,1.42.71,3.32,1,5,1.38,4.1,3.72,4.89,7.78,3.07s8.75-1.73,12.19-5a3.28,3.28,0,0,1,2,2.87c1.92,3.43.9,5.46-2.85,6.56C109.08,150.4,103,153.31,96.19,152Z"/><path class="cls-275" d="M103.15,115.08c-1.8-.6-3.36.23-5,.87a2.41,2.41,0,0,1-2.84.3,3.27,3.27,0,0,0-1-.1,2.7,2.7,0,0,0-2.37-.09A16.38,16.38,0,0,0,85.14,114a4.09,4.09,0,0,1-2.08-5.08c2.83-1.5,6.15-.47,9-1.79,1.61-.61,3.21-1.25,5-.79a9,9,0,0,1,4.31,2.58C98.27,112,102.8,113,103.15,115.08Z"/><path class="cls-276" d="M92,116.06c.22-.89-.07-2.36,1-2.44,1.71-.13,1,1.59,1.36,2.53-.13,1.25-.27,2.5-.41,3.75C91.33,119.63,92.57,117.38,92,116.06Z"/><path class="cls-271" d="M95.36,116.25l2.84-.3-3,3.09C95.25,118.11,95.31,117.18,95.36,116.25Z"/><path class="cls-277" d="M78.21,123.09l.64-2.07c-1.14-3.14.83-4.35,3.28-5.26l5.05.23c1.59,1.75,2.92,12,1.83,13.85-.55.9-1.25.8-2.12.58-2.39-.61-4.83-1.08-7.21-1.72C76,127.71,77.9,125.17,78.21,123.09Z"/><path class="cls-278" d="M82.13,115.76c-.67,2-3,3-3.28,5.26A1.82,1.82,0,0,1,77.12,120c0-1,0-2-.05-3a2.24,2.24,0,0,1,.74-2.2,11.89,11.89,0,0,0,2-2.19c.92-1.08,1.26-2.53,2.21-3.59a1.15,1.15,0,0,1,1.16.12q1,2.48,2,5C83.82,114,82.38,113.89,82.13,115.76Z"/><path class="cls-191" d="M127.17,148.05c1.81.24,3.17-.67,4.49-1.72A80.43,80.43,0,0,0,145.92,132a4,4,0,0,0,.28-5,13.43,13.43,0,0,1,6.12,3.87c-4.06,7.63-10.5,13.16-16.68,18.92C132.06,153.12,129,153.37,127.17,148.05Z"/><path class="cls-279" d="M141.2,124c0,.34,0,.69,0,1-2.89,6.42-8.45,10.56-13.07,15.52-3.66,3.94-4.57-1.12-6.82-1.7-.32-2,1.4-2.46,2.52-3.24a63.66,63.66,0,0,0,7-6.35c2.65-2.53,4.19-5.42,3.39-9.21C136.84,120.8,139,122.44,141.2,124Z"/><path class="cls-280" d="M134.18,120.06c2.13,2.25,2.16,4.3.15,6.88a60.21,60.21,0,0,1-13,11.92l-.11.17q-.64.87-.93-.18a1.87,1.87,0,0,0-.16-.77c-.68-1.72-2.65-2.91-2.11-5.14a61.24,61.24,0,0,0,14.33-14.27c.75-.18,1.45-.23,1.76.7A2.26,2.26,0,0,0,134.18,120.06Z"/><path class="cls-281" d="M134.08,119.37l-1.91-.26c-2.17,0-3.58-1.67-5.41-2.44a86.86,86.86,0,0,0-8.82-5c-1.89-1.35-4-2.45-5.83-3.82l-.81-.56c-1.67-1.08-3.79-2.45-2.43-4.54,1.48-2.28,3.38-.13,5,.59.44.2.86.45,1.3.66a32.75,32.75,0,0,0,4,1.39c2.89,2,6.39,3,8.68,5.91,1.67,2.64,6.39,2.41,6.32,6.69C134.17,118.46,134.12,118.91,134.08,119.37Z"/><path class="cls-282" d="M132.17,156.06c4-4.16,9.13-6.91,13-11.33,3.48-4,7-7.94,9.13-12.85l1.85.34c.36,3.24-1.93,5.17-3.67,7.35a78,78,0,0,1-16,15.59C135.26,156,134,157.82,132.17,156.06Z"/><path class="cls-283" d="M134.21,118c-1.3-3.22-5.52-3-7-6,2.38-1.38,4.06.5,6,1.25,1.58,1.33,3.75,1.95,4.8,3.92l1.27,1.81Z"/><path class="cls-283" d="M147.07,122.1l1.14.93a5.21,5.21,0,0,0,.06,1c-3.81-.24-6.56-2.39-9.05-5Z"/><path class="cls-122" d="M120.26,138.85l.93.18,2.1,5C121.07,143,120.47,141,120.26,138.85Z"/><path class="cls-218" d="M116.16,139.13a4.17,4.17,0,0,1-3.34,3.86q-6.42,1.84-12.81,3.74c-5.27,1.56-3.39-3.16-3.82-5.69,5.38-.12,10.69-.56,15.53-3.26,1.14-.63,2.44-1.09,2.46-2.71,2.11-.37,1.25,1.59,1.87,2.39C116.08,138,116.12,138.57,116.16,139.13Z"/><path class="cls-284" d="M96.19,152c6.18-1.52,12.45-2.5,18.53-4.56,3.19-1.08,4.16-2.46,3.48-5.47a7.6,7.6,0,0,1,2.09,3.82c-.12,1.61-.83,3.16-2.28,3.6-6.08,1.84-11.88,4.84-18.48,4.62C98,154,96.42,154.17,96.19,152Z"/><path class="cls-285" d="M116.05,137.46l-1.87-2.39-3.9-8c.92-.35,1.9.11,2.84-.16,2.44,2.18,4.41,4.59,4.1,8.15C116.26,135.57,116.17,136.52,116.05,137.46Z"/><path class="cls-286" d="M117.22,135a36.81,36.81,0,0,0-4.94-8.12c-1.39-.56-2-1.46-1.3-3,4-1.12,3.86,2.84,5.63,4.47.74,1.46,1.7,2.87,1.46,4.64.71,1.66,2.12,3,2,5A6.78,6.78,0,0,1,117.22,135Z"/><path class="cls-287" d="M74.22,90.05l1,1A6.85,6.85,0,0,1,76,94.33c-.35,1.5.13,3.09-.46,4.57a1.6,1.6,0,0,1-1.18.52c-1.63-.66-2.9-2.13-4.84-2.11-.73-.2-1.44-.45-2.16-.71-4.57-.38-9.14,0-13.71-.19-1.92-.06-4,.3-5.46-1.45-4.22-2-8.7-.37-13-.93a1.37,1.37,0,0,1,0-2l1,0h3c7.71-1,15.44-.23,23.16-.45a51,51,0,0,0,8.82-.53C72.54,91.75,72.92,89.52,74.22,90.05Z"/><path class="cls-268" d="M48.19,95c5.46.05,10.92,0,16.38.17,1.56,0,3.35-.7,4.61.93C65.31,98.68,61,97.15,56.83,97.5c-1.16-.06-2.32-.06-3.49-.07-1.69,0-3.39.06-5.08,0s-3.35,0-5,0-3.34,0-5,0-3.38.06-5.07,0-3.47-.06-4.88-1.3l-.22-.24C34.71,94.2,41.51,95.83,48.19,95Z"/><path class="cls-288" d="M35.18,92.06c0,.66,0,1.32,0,2-2.78-.18-5.66.45-8.35-1C29.52,91.57,32.4,92.24,35.18,92.06Z"/><path class="cls-217" d="M131.16,92.17c0,.28,0,.57,0,.86a3.26,3.26,0,0,1-2.5,1c-3.43.07-6.87.13-10.3,0-1.63-.07-4,.31-3.35-2.72l.38-.52a2.2,2.2,0,0,1,.71.41C121,93.09,126.18,91.39,131.16,92.17Z"/><path class="cls-207" d="M151.18,91l-3.05,0a114.81,114.81,0,0,0-5.95-21.92c1.72-1.43,2.44-2.66,4.44.65,3.36,5.57,3.83,11.66,5.44,17.56C152.43,88.64,151.78,89.83,151.18,91Z"/><path class="cls-289" d="M115.05,91.26c1.14,2.92,3.68,1.58,5.63,1.72,2.82.21,5.66.07,8.49.08.51.52,1.53.77,1,1.85-5,.93-10.13-1.16-15,1.14-2,.58-2.47,4-5.35,2.87a4,4,0,0,1-.61-1.27c0-2.57-1.63-5.35,1-7.54C112.15,89.17,112.78,93.64,115.05,91.26Z"/><path class="cls-290" d="M110.23,90.11c-1,2.63.38,5.29-.11,7.92-1.13.68-2.52.49-3.65,1.14-2.28,1-1.78,3.71-3.23,5.22a2.77,2.77,0,0,1-2,.32,1.64,1.64,0,0,1-1.25-1.49c1.29-2.49.32-5.74,2.88-7.89.92-.77-1-1.35-1-2.29a1.89,1.89,0,0,1,.32-1.28,10.9,10.9,0,0,0,6.94-5.68C110.72,87.08,110,88.72,110.23,90.11Z"/><path class="cls-291" d="M109.11,86.08c.14,4.8-2.6,6.21-6.86,5.84-1.6-.39-2.64-1.16-2.1-3,1.24-1.23,4.43.87,4.36-2.58.36-1.07.16-2.26.7-3.29l1.88.1A3.6,3.6,0,0,0,109.11,86.08Z"/><path class="cls-223" d="M103.19,31.05l-7,0A5.9,5.9,0,0,1,103.19,31.05Z"/><path class="cls-221" d="M112.19,28.05a21.85,21.85,0,0,1-9-2C106.35,26,109.53,25.86,112.19,28.05Z"/><path class="cls-221" d="M103.18,26.07c-1.68-.22-3.59.63-5-1C99.87,25.29,101.78,24.4,103.18,26.07Z"/><path class="cls-220" d="M108.35,44.93c.31.82-.19,1-.63,1a1.52,1.52,0,0,1-1.08-.61c-.28-.52.15-.92.66-.87A3,3,0,0,1,108.35,44.93Z"/><path class="cls-292" d="M158.17,92.05a56.7,56.7,0,0,1-23,.09Z"/><path class="cls-293" d="M130.12,94.91c-.31-.62-.63-1.23-1-1.85l2,0,5,1c.33.2.44.4.32.59s-.23.28-.35.28Z"/><path class="cls-153" d="M136.15,94.93q0-.44,0-.87c3,.41,6.13-1,8.95.93Z"/><path class="cls-294" d="M138,117.18a9,9,0,0,1-5.08-3c2.87-3.19,3.73-7.21,4.72-11.19.6-2.36.75-4.92,2.55-6.85h5c.11,7.39-3.17,14-5,20.89Z"/><path class="cls-295" d="M140.17,96.15c-.14,5.17-2.29,9.9-3.22,14.91-.35,1.9-2.06,2.9-4,3.13-2-.45-3.52-2.21-5.71-2.18-2.15-2.78-6-3.23-8.21-5.86a2.15,2.15,0,0,1,1.24-.71,7.58,7.58,0,0,1,2.83.5c2.19,1,3.79.75,4.62-1.85.36-1.15.48-3.16,2.13-2.84s1.38,2.32,1.46,3.77c0,.63-.37,1.25-.07,2,1.33-3.56.65-7.62,3-10.84Z"/><path class="cls-296" d="M134.17,96.15c-.14,5.09-.76,10-4.06,15-1.93-3.36,1.31-6.22-.4-9.28-1.36,3.56-1.37,9.41-7.53,5.1.1-3.84-.31-7.82,2.95-10.8Z"/><path class="cls-275" d="M110.23,99c2.15-.15,1.62-4.73,4.92-3,0,.63,0,1.27-.05,1.9a11.93,11.93,0,0,1,0,7.12c-2.19.16-3.23-2.73-5.62-2.18-1,3.33,2.79,2.53,3.59,4.26-2.66,2.42-5.31,4.85-5.57,8.79a2.11,2.11,0,0,1-1.17.69,2.78,2.78,0,0,1-1.33-.29c-1.35-2.3-3.12-4.47-2.34-7.44.37-1.53,1.86-2.26,2.55-3.56.89-1.44,1.5-3,2.38-4.46A3.86,3.86,0,0,1,110.23,99Z"/><path class="cls-297" d="M125.13,96.2c-1.52,3.45-.8,7.52-2.95,10.8l-2-1c-1.81-1.93-.13-3.66.53-5.84-1.2,2.08-1.46,5.31-4.33,4-3.24-1.49-1.31-4.15-.32-6.35C118.55,94.23,122.11,96.73,125.13,96.2Z"/><path class="cls-296" d="M116.08,97.81a5.37,5.37,0,0,1-.12,1.46c-.57,1.57-1.44,3.43.66,4.22s2.41-1.58,3.22-2.84a14.58,14.58,0,0,0,.83-2.24c1,3-1.14,5.2-.47,7.6l-1.22.13c-1.3-.27-2.83.27-3.84-1.07-1.45-2.37-1.17-4.74,0-7.12A1.93,1.93,0,0,0,116.08,97.81Z"/><path class="cls-202" d="M71.18,91.05c-3.42,1.83-7.12.89-10.7,1-7.09.14-14.18,0-21.28,0,1.76-1.77,4-.66,6-1h2c.33-.49.66-.49,1,0,5.56,0,11.12-.11,16.67.07A9,9,0,0,0,71.17,89C71.18,89.71,71.18,90.38,71.18,91.05Z"/><path class="cls-246" d="M48.2,91h-1c.19-3.45-.77-7.21,2.84-10.39C51,84.82,48.61,87.76,48.2,91Z"/><path class="cls-298" d="M75.2,99.05c.44-1.33-1.8-2.67,0-4a1.36,1.36,0,0,1,2,0,3,3,0,0,0,3,2,1.36,1.36,0,0,1,.36,1,2.6,2.6,0,0,0,.79,2.56c1.32,1.72,3.48,2,5.17,3,1.61,1.83,4,2.63,5.7,4.36-2.85,1.63-5.91,1.37-9,1l-.49,0h-.5c-3.61-.33-4.88-3.57-7.08-5.68C74.41,101.9,74,100.46,75.2,99.05Z"/><path class="cls-299" d="M80.2,101c-.27-1-3.83-2-.07-3.06,1.5-1.53,1.94-3.9,4-5a3.9,3.9,0,0,1,2.08-3.07l.51.47A5.63,5.63,0,0,1,86.27,96c-1.75,3.1-.11,3.75,2.57,3.74l1,0c7.92.26,7.92.26,11.1-6.73a1.07,1.07,0,0,1,1.29-.09l4.94,3c-3.93-.08-5.57,1-5,4,.26,1.44-.66,2.48-2,3.11l-.71.11c-1.91.14-3.83,0-5.75.15-.78.05-1.55.07-2.34.05C87.5,103.25,83.55,103.59,80.2,101Z"/><path class="cls-300" d="M102.22,93l-.49,0h-.48c-.16,0-.41,0-.48-.09-4-5.78-9.17-4.68-14.55-2.63l0-.36C85.39,86,89.9,85,90.71,81.83c.26-1.06,2.37-.72,2.39,0,.16,4.82,4.08,2.21,6.08,3.26a2.4,2.4,0,0,1,1.73,2.71A3.64,3.64,0,0,1,100.3,89l2,2.9Z"/><path class="cls-301" d="M80.69,91.12c-1.7-.05-3.42-.18-3.56-2.42-.19-3.12,2.56-3,4.4-3.48a2.5,2.5,0,0,1,3,2.46C84.59,90,83,91.13,80.69,91.12Z"/><path class="cls-302" d="M105.21,83a2.74,2.74,0,0,1,0,3c-.87.44-1.88-.35-2.74.3-2.51-1.65-4.57-3.9-7.26-5.3-.18-2.84.95-3.57,3.52-2.27C101,80,102.58,82.32,105.21,83Z"/><path class="cls-291" d="M95.18,81.06c3.45.42,5.54,3,8,5,.09,2.2-.9,2.82-2.9,2l-1.08-3C98.83,82.75,95.18,83.73,95.18,81.06Z"/><path class="cls-300" d="M84.1,93c-1.19,1.77-1.8,4-4,5,0-.31,0-.63,0-.94C81.17,95.39,81.56,93.14,84.1,93Z"/><path class="cls-300" d="M77.17,95l-2,0c0-1.33,0-2.65,0-4A5.26,5.26,0,0,1,77.17,95Z"/><path class="cls-303" d="M37.42,128.15c4.7,2.23,5.32,7.8,8.88,11,.71.65-1.33.55-2.09.83C42,136,36.7,133.81,37.42,128.15Z"/><path class="cls-304" d="M78.24,115.06l-1.17,1.85L76,118c-2,1.77-2.5,4.63-4.56,6.37a2.94,2.94,0,0,1-1.56,1.28c-1,.23-2.72.06-2.63-.59.47-3.62-2.75-3.75-4.51-5.21-3.35-2.8-3.13-4,1.61-8.61,2.92-2.5,6-4.7,10-5a3.61,3.61,0,0,1,1.28.65c1.08,1.17,2.07,2.41,3.06,3.64C80.05,112.23,80.1,113.76,78.24,115.06Z"/><path class="cls-305" d="M65.19,112a8.92,8.92,0,0,1-.49.85c-1,1.41-4,1.59-3.21,3.8a6.59,6.59,0,0,0,5.09,4c.76.15,1.68-.26,2.13.65.61,1.26-1,1-1.17,1.51-.69,2.49,1.26,2.05,2.65,2.19,1.23,1.51-.31,2.23-.92,3.22-.27.65-.53,1.31-.8,2-2.07.77-3.55-.64-5.2-1.39-1.31-.87-2.43-2-3.73-2.86a6.15,6.15,0,0,1-.95-.89,10.28,10.28,0,0,0-2.78-2.6,5.32,5.32,0,0,1-2-2.62c.25-2.4,2.58-3,3.87-4.51,1.78-1.47,3.08-3.6,5.58-4.08A2.38,2.38,0,0,1,65.19,112Z"/><path class="cls-306" d="M58.21,116.14l-4,3.9c2.32,3.65,3,8.91,9,8.86,2.27.09,3.48,1.88,5,3.15-.51,1.13-2.22,1.42-2.07,3l-1,1c-7.77-.39-11.68-6.17-15.77-11.54-1.48-2,.24-3.33,1.82-4.43l2.22-1.81C54.26,115.79,55.74,114.8,58.21,116.14Z"/><path class="cls-307" d="M68.23,132.05c-2.34.11-3.18-2.29-5-3l-.26-.5.25-.5c2,.1,3.53,1.42,5.28,2.18Z"/><path class="cls-305" d="M71.19,124c1.93-1.74,1.89-5.06,4.82-6-1,2.17-1.56,4.58-3.67,6.07A.74.74,0,0,1,71.19,124Z"/><path class="cls-307" d="M71.19,124l1.15.07c-.46,1.8-.8,3.69-3.07,4.15.31-1.07.61-2.15.92-3.22Z"/><path class="cls-308" d="M51.19,120c-1.95,2.16-1.44,4,.44,6,3.9,4.18,8,7.95,13.51,10q-1.48,2-3,4c-8.13-1.76-12-8.51-16.53-14.36-.38-.49.32-1.81.52-2.74C47.77,121.82,49.18,120.41,51.19,120Z"/><path class="cls-309" d="M28.28,96.13l5,0c1.72,2,1.22,4.4,1.38,6.67.46,6.36,2.35,12.34,4.58,18.25-6.2,3.23-6.23,3.17-8.11-3.54C29.16,110.54,27.59,103.49,28.28,96.13Z"/><path class="cls-310" d="M39.23,121.09c-3.61-2.21-4-6.32-4.76-9.7-1-4.93-1.89-10.07-1.2-15.22h5c1.86,7.24,3.06,14.62,4.47,21.95,0,1.66-1.46,2.13-2.53,2.89Z"/><path class="cls-309" d="M40.19,121l2-2a1.48,1.48,0,0,1,1.1-.54,1.59,1.59,0,0,1,1.05.65,4.19,4.19,0,0,1-3,2Z"/><path class="cls-311" d="M43.19,119l-1,0c-2.44-7.42-4.5-14.91-4-22.85l5,0c2.19,4,1.34,8.58,2.51,12.8.86,3.12,2,5,5.58,4.32a2.77,2.77,0,0,1,1.18.82,11,11,0,0,1-4.24,2.93C46.6,117.81,44.8,118.18,43.19,119Z"/><path class="cls-312" d="M52.5,114.15,51.22,114c-4-4-5.46-12.43-3-17.83l5,0c1.79,1.93,1.06,4.37,1.3,6.61.31,3.07.88,5.93,4.46,6.87.91.94.33,1.74-.24,2.54-1.35,1.08-2.78,1.94-4.62,1.66Z"/><path class="cls-313" d="M54.12,113.87A7.47,7.47,0,0,1,58,111.94c1.73,0,3.51-3.54,5.2.06l-5,4.14c-1.9,0-3.17,1.44-4.8,2.07C49.13,116,55.31,115.55,54.12,113.87Z"/><path class="cls-310" d="M43.19,119a5.73,5.73,0,0,1,5.07-1.93,6.39,6.39,0,0,1-3.91,2.06Z"/><path class="cls-314" d="M105.19,116l1,.08c2.93,1.17,3.75,4,5.22,6.4a1.83,1.83,0,0,1-.06,1.38c-.36,1.23.37,2.12,1,3.06-.59,1.22-1.32.3-2,.13l-3.09-4-3-6C104.49,116.67,104.59,116.09,105.19,116Z"/><path class="cls-315" d="M105.19,116l-1,1-1-2c-.36-.3-.68-.78-1.1-.89-1.51-.39-3.66,0-4.06-2-.44-2.16,2.35-1.85,3.21-3.15a1.35,1.35,0,0,1,2,0C103.85,111.35,104.52,113.67,105.19,116Z"/><path class="cls-316" d="M92.15,102.09l2.13.08c.9.73,2.09.14,3,.64a3.47,3.47,0,0,1,1.25,2.93A1.69,1.69,0,0,1,97.2,107l-5,1a6.08,6.08,0,0,1-6-4C87.42,101.26,90.39,103.47,92.15,102.09Z"/><path class="cls-317" d="M97.2,107l1-1c.88-.78,2.07-1.1,2.92-1.93l2.09,0c.65,1.18,1.29,2.36,3,2-.4,1.6-2.22,1.78-3,3l-2,0A5.49,5.49,0,0,1,97.2,107Z"/><path class="cls-275" d="M76.17,103.06l6,6c.1,1.72-.18,3.26-2,4-1.33-2.32-3.46-4-5.16-5.94l.1.1c-.61-1.37-3.11.17-3.17-2C73,103.68,74.18,102.57,76.17,103.06Z"/><path class="cls-318" d="M75,107.11c2.48,1.32,4.91,2.68,5.16,5.94a1.84,1.84,0,0,1-2,2C80.82,110.94,75.09,110.17,75,107.11Z"/><path class="cls-319" d="M118.07,133.08a6.78,6.78,0,0,1-2-4c3.59-4.45,8.69-7.6,11.12-13,2.17.17,3.3,2.07,5,3A24.25,24.25,0,0,1,118.07,133.08Z"/><path class="cls-320" d="M127.18,116.08c-.15,6.09-5.41,8.35-9,11.89a8.3,8.3,0,0,1-2.17,1.15c-2.19-1.21-1.9-4.64-4.73-5.26a1.42,1.42,0,0,0-.25-.82c-.77-1.91-2.56-3.43-2.25-5.76,6.52.9,7,.54,9.43-6.55A37.4,37.4,0,0,1,127.18,116.08Z"/><path class="cls-321" d="M118.26,110.73c2,4.8-2,7-4.67,9.14s-2.24-3.17-4.66-2.73c-1,.24-1.39-.34-1.73-1.09-1.14-4.35.89-7.41,5.91-8.9Z"/><path class="cls-322" d="M56.17,96.2l13-.14,1.09,1a3.74,3.74,0,0,1,2.1,3c1,4.76-2.25,6.12-5.81,7.23C60.8,108,54.9,102.8,55.1,97.12,55.12,96.69,55.72,96.4,56.17,96.2Z"/><path class="cls-300" d="M76.17,103.06c-1.37.56-2.24,2.13-4,2a15,15,0,0,0-.38-5.46,1.38,1.38,0,0,1,2.37-.54h1A7.14,7.14,0,0,0,76.17,103.06Z"/><path class="cls-250" d="M74.19,99.05a2.07,2.07,0,0,0-2,1c-.31.45-.61.48-.92,0-.33-1-.67-2-1-3C72.56,95.79,73.28,97.61,74.19,99.05Z"/><path class="cls-323" d="M48.21,96.17c-.14,6.14.51,12.14,3,17.83-3.87,2.51-5.31.76-6.28-3.13a47.83,47.83,0,0,1-1.7-14.66Z"/><path class="cls-324" d="M56.17,96.2c.49,6.74,4.69,10.81,10.34,10-1.07,3.57-3.78,4.27-7,4-3,.94-4.65,0-5.57-3.25-1-3.61-.48-7.17-.69-10.75Z"/><path class="cls-317" d="M110.23,99a3.58,3.58,0,0,1-2,2c-1.14-.68-2.41-1.27-2-3a3.2,3.2,0,0,1,4,0A6.53,6.53,0,0,1,110.23,99Z"/><path class="cls-325" d="M106.16,98.07c.65,1,2.19,1.41,2,3l-2,5c-1.67.37-3.44.87-3-2C103.35,101.64,102.85,98.91,106.16,98.07Z"/><path class="cls-326" d="M101.1,104.08c0,2.07-.79,3-2.92,1.93-.31-1-.61-1.94-.92-2.91a2.14,2.14,0,0,1,2.89,0h0Z"/><path class="cls-327" d="M100.26,88.08a3,3,0,0,0,2.9-2c.66-1.14,1.35-.13,2,0,.37,1.16,1.74,2.42.27,3.52-1.75,1.31-3.41-.45-5.15-.56A2.71,2.71,0,0,1,100.26,88.08Z"/><path class="cls-328" d="M107.2,116.05l1.73,1.09q1.08,3,2.15,5.9c-2.53-1.69-2.91-4.9-4.91-7Z"/><path class="cls-275" d="M92.15,102.09c-1.65,1.71-4.32.39-6,2-2.44-.14-4.64-.75-6-3.07C84.08,102.63,88.16,101.8,92.15,102.09Z"/><path class="cls-329" d="M86.22,90.26c6.15-5.19,10.09-4.48,15,2.72-.37,7.61-.82,8.06-7.92,8-1.33,0-2.66,0-4,0-6-.08-6.44-.72-3.8-5.91C86.36,93.51,86.09,91.89,86.22,90.26Z"/><path class="cls-317" d="M100.15,103.09H97.26c-1-.15-2.23.15-3-.93C96.27,102.28,98.44,101.24,100.15,103.09Z"/><path class="cls-318" d="M59.48,110.19a15.25,15.25,0,0,0,7-4c3.23-.79,5.86-2,4.77-6.16h.92a4.14,4.14,0,0,1,0,5c.57,1.29,2.52.68,2.94,2.16-4.08,0-6.88,2.7-10,4.82l-2,0c-1.71-1.68-3.47.81-5.2-.06Z"/><path class="cls-307" d="M63.2,129.05c-.21,1.74-1.22,2.47-2.7,1.5-3.47-2.29-5.1-6.23-7.84-9.21-.62-.67.75-1.14,1.55-1.3a3.52,3.52,0,0,1,2,2,8.91,8.91,0,0,1,3,3h0a19.35,19.35,0,0,1,4,4Z"/><path class="cls-306" d="M63.19,129a6.29,6.29,0,0,1-4-4c2,.07,3.12,1.4,4,3C63.2,128.38,63.19,128.71,63.19,129Z"/><path class="cls-306" d="M59.19,125a6.25,6.25,0,0,1-3-3A2.79,2.79,0,0,1,59.19,125Z"/><path class="cls-330" d="M87.17,98.89c.31-2.19,5-3,1.79-6.15a2.77,2.77,0,0,1,.87-.94,9.72,9.72,0,0,1,8.57.36c2.76,1.41.56,3.48.8,5.23.32,2.34-1.53,2.09-2.83,2.45C93.17,100.73,90.28,98.87,87.17,98.89Z"/></g></g></svg>