<svg xmlns="http://www.w3.org/2000/svg" viewBox="0 0 184.21 184.15"><defs><style>.cls-1{fill:#fefefe;}.cls-2{fill:#584125;}.cls-3{fill:#e4caa4;}.cls-4{fill:#f2e4ce;}.cls-5{fill:#5e4626;}.cls-6{fill:#563f22;}.cls-7{fill:#604725;}.cls-8{fill:#594123;}.cls-9{fill:#5d4425;}.cls-10{fill:#5b4324;}.cls-11{fill:#68502c;}.cls-12{fill:#523c22;}.cls-13{fill:#644b2a;}.cls-14{fill:#6f5730;}.cls-15{fill:#684515;}.cls-16{fill:#3f2f1c;}.cls-17{fill:#382e24;}.cls-18{fill:#302720;}.cls-19{fill:#2f2620;}.cls-20{fill:#563f23;}.cls-21{fill:#614a2b;}.cls-22{fill:#523c21;}.cls-23{fill:#342a22;}.cls-24{fill:#6b4c2a;}.cls-25{fill:#74522e;}.cls-26{fill:#3f3118;}.cls-27{fill:#b9ac73;}.cls-28{fill:#372a1d;}.cls-29{fill:#7a5932;}.cls-30{fill:#62532b;}.cls-31{fill:#c5b37f;}.cls-32{fill:#d0c18c;}.cls-33{fill:#c8b37f;}.cls-34{fill:#c6b07c;}.cls-35{fill:#c7b27c;}.cls-36{fill:#b89c68;}.cls-37{fill:#6d542f;}.cls-38{fill:#8c6a3c;}.cls-39{fill:#7c5a33;}.cls-40{fill:#745530;}.cls-41{fill:#836137;}.cls-42{fill:#71502d;}.cls-43{fill:#9f7e4b;}.cls-44{fill:#805e35;}.cls-45{fill:#b89f69;}.cls-46{fill:#926f40;}.cls-47{fill:#7f5d35;}.cls-48{fill:#796735;}.cls-49{fill:#9a7846;}.cls-50{fill:#886c3a;}.cls-51{fill:#5c4d23;}.cls-52{fill:#947342;}.cls-53{fill:#684a29;}.cls-54{fill:#7a5c33;}.cls-55{fill:#bca975;}.cls-56{fill:#8b6a3d;}.cls-57{fill:#c0a671;}.cls-58{fill:#704d2c;}.cls-59{fill:#bdac74;}.cls-60{fill:#b89c67;}.cls-61{fill:#c1b37c;}.cls-62{fill:#a6935c;}.cls-63{fill:#bba06b;}.cls-64{fill:#d9ca94;}.cls-65{fill:#cdba85;}.cls-66{fill:#a9945d;}.cls-67{fill:#876539;}.cls-68{fill:#947241;}.cls-69{fill:#997745;}.cls-70{fill:#a78753;}.cls-71{fill:#7c5d34;}.cls-72{fill:#b2a46d;}.cls-73{fill:#b1935e;}.cls-74{fill:#a1814e;}.cls-75{fill:#967442;}.cls-76{fill:#785c35;}.cls-77{fill:#bca36e;}.cls-78{fill:#a88752;}.cls-79{fill:#52422c;}.cls-80{fill:#5d4325;}.cls-81{fill:#3f362c;}.cls-82{fill:#3b2e17;}.cls-83{fill:#9e9158;}.cls-84{fill:#84773e;}.cls-85{fill:#886a3b;}.cls-86{fill:#604e34;}.cls-87{fill:#4f4335;}.cls-88{fill:#6b5832;}.cls-89{fill:#8c7044;}.cls-90{fill:#56462e;}.cls-91{fill:#8b6f43;}.cls-92{fill:#d1c18d;}.cls-93{fill:#785631;}.cls-94{fill:#8c6b3d;}.cls-95{fill:#493e31;}.cls-96{fill:#5d4d25;}.cls-97{fill:#8a683b;}.cls-98{fill:#493f35;}.cls-99{fill:#aa9b66;}.cls-100{fill:#624b30;}.cls-101{fill:#645327;}.cls-102{fill:#b3a26a;}.cls-103{fill:#514330;}.cls-104{fill:#a19c8f;}.cls-105{fill:#48371d;}.cls-106{fill:#534839;}.cls-107{fill:#4c4233;}.cls-108{fill:#cbba86;}.cls-109{fill:#b2935e;}.cls-110{fill:#a5975e;}.cls-111{fill:#7b5832;}.cls-112{fill:#b29e67;}.cls-113{fill:#b49761;}.cls-114{fill:#2d2822;}.cls-115{fill:#6f5331;}.cls-116{fill:#604c27;}.cls-117{fill:#4a3f32;}.cls-118{fill:#5f4c32;}.cls-119{fill:#cebb88;}.cls-120{fill:#2f2414;}.cls-121{fill:#564b3c;}.cls-122{fill:#4e4539;}.cls-123{fill:#826137;}.cls-124{fill:#b69863;}.cls-125{fill:#51422d;}.cls-126{fill:#9b8e56;}.cls-127{fill:#b2a56e;}.cls-128{fill:#6c4a2a;}.cls-129{fill:#afa068;}.cls-130{fill:#7f703c;}.cls-131{fill:#7e653c;}.cls-132{fill:#4e3f1f;}.cls-133{fill:#b99b66;}.cls-134{fill:#372b16;}.cls-135{fill:#625743;}.cls-136{fill:#5d4b32;}.cls-137{fill:#4f3e26;}.cls-138{fill:#846237;}.cls-139{fill:#5a4a33;}.cls-140{fill:#af8f5a;}.cls-141{fill:#80623b;}.cls-142{fill:#cebc88;}.cls-143{fill:#473a2d;}.cls-144{fill:#4a3b20;}.cls-145{fill:#ad9e65;}.cls-146{fill:#beb27b;}.cls-147{fill:#5d4b33;}.cls-148{fill:#7b5d35;}.cls-149{fill:#493f34;}.cls-150{fill:#73522f;}.cls-151{fill:#a79a61;}.cls-152{fill:#705a36;}.cls-153{fill:#92864e;}.cls-154{fill:#3a2d18;}.cls-155{fill:#c8b17e;}.cls-156{fill:#b49560;}.cls-157{fill:#463520;}.cls-158{fill:#b4b1a7;}.cls-159{fill:#f3f0e7;}.cls-160{fill:#c2c0b5;}.cls-161{fill:#f1eee5;}.cls-162{fill:#cecbc0;}.cls-163{fill:#d6d3c8;}.cls-164{fill:#edeae1;}.cls-165{fill:#cac7bc;}.cls-166{fill:#e0dcd1;}.cls-167{fill:#bfbdb2;}.cls-168{fill:#aeaba0;}.cls-169{fill:#ede9df;}.cls-170{fill:#e6e3d8;}.cls-171{fill:#e6e3d7;}.cls-172{fill:#392e20;}.cls-173{fill:#a39f94;}.cls-174{fill:#867357;}.cls-175{fill:#52422f;}.cls-176{fill:#bebbae;}.cls-177{fill:#c8c6be;}.cls-178{fill:#4c4235;}.cls-179{fill:#afaca1;}.cls-180{fill:#eae7dc;}.cls-181{fill:#efebe2;}.cls-182{fill:#f5f2ea;}.cls-183{fill:#dedbd0;}.cls-184{fill:#cac7ba;}.cls-185{fill:#bfbdb0;}.cls-186{fill:#cac7bb;}.cls-187{fill:#d6d2c6;}.cls-188{fill:#67553f;}.cls-189{fill:#e1ded3;}.cls-190{fill:#292522;}.cls-191{fill:#aba79c;}.cls-192{fill:#aeaca4;}.cls-193{fill:#2f2313;}.cls-194{fill:#2d2722;}.cls-195{fill:#a19d91;}.cls-196{fill:#826b4c;}.cls-197{fill:#2e2312;}.cls-198{fill:#b2afa4;}.cls-199{fill:#c8c5ba;}.cls-200{fill:#c1beb2;}.cls-201{fill:#d2cfc4;}.cls-202{fill:#b9b6aa;}.cls-203{fill:#4a3f30;}.cls-204{fill:#858074;}.cls-205{fill:#514537;}.cls-206{fill:#c0beb4;}.cls-207{fill:#4d3f2d;}.cls-208{fill:#8c785b;}.cls-209{fill:#c2bfb5;}.cls-210{fill:#d7d4ca;}.cls-211{fill:#dfdcd2;}.cls-212{fill:#ccc9bf;}.cls-213{fill:#d9d6cc;}.cls-214{fill:#403220;}.cls-215{fill:#ebe8de;}.cls-216{fill:#261b11;}.cls-217{fill:#443e36;}.cls-218{fill:#a9a69c;}.cls-219{fill:#4d3a24;}.cls-220{fill:#b1aea3;}.cls-221{fill:#bda16d;}.cls-222{fill:#a1998b;}.cls-223{fill:#75644c;}.cls-224{fill:#a29f93;}.cls-225{fill:#9c988c;}.cls-226{fill:#282422;}.cls-227{fill:#a8a59a;}.cls-228{fill:#f3f0e6;}.cls-229{fill:#ebe7dd;}.cls-230{fill:#f4f1e9;}.cls-231{fill:#e0ddd3;}.cls-232{fill:#302314;}.cls-233{fill:#5e4526;}.cls-234{fill:#f1eee4;}.cls-235{fill:#4f3f2a;}.cls-236{fill:#7b6543;}.cls-237{fill:#624829;}.cls-238{fill:#dedbd1;}.cls-239{fill:#6c5432;}.cls-240{fill:#463a2c;}.cls-241{fill:#62523d;}.cls-242{fill:#bab7ac;}.cls-243{fill:#d7d5c9;}.cls-244{fill:#b8b6ab;}.cls-245{fill:#dfdcd1;}.cls-246{fill:#e5e2d8;}.cls-247{fill:#c9c6ba;}.cls-248{fill:#d5d1c7;}.cls-249{fill:#bab7ab;}.cls-250{fill:#dbd9d2;}.cls-251{fill:#d0cec6;}.cls-252{fill:#d3d1c8;}.cls-253{fill:#f6f3ea;}.cls-254{fill:#f2efe6;}.cls-255{fill:#e8e5da;}.cls-256{fill:#d1cfc7;}.cls-257{fill:#bfbdb6;}.cls-258{fill:#3b3021;}.cls-259{fill:#dbd8ce;}.cls-260{fill:#6c583d;}.cls-261{fill:#f0ede4;}.cls-262{fill:#bebcb0;}.cls-263{fill:#c7c4ba;}.cls-264{fill:#584834;}.cls-265{fill:#d8d5ca;}.cls-266{fill:#f0ede5;}.cls-267{fill:#e7e5da;}.cls-268{fill:#d2d0c8;}.cls-269{fill:#493823;}.cls-270{fill:#efece3;}.cls-271{fill:#5a4225;}.cls-272{fill:#3e3326;}.cls-273{fill:#c3c1ba;}.cls-274{fill:#e3e0d5;}.cls-275{fill:#d8d5c9;}.cls-276{fill:#e1ddd2;}.cls-277{fill:#ece8dd;}.cls-278{fill:#504435;}.cls-279{fill:#948167;}.cls-280{fill:#cecbbe;}.cls-281{fill:#e6e4d7;}.cls-282{fill:#d4d1c6;}.cls-283{fill:#c3c2ba;}.cls-284{fill:#d0cec7;}.cls-285{fill:#e4e2d7;}.cls-286{fill:#ebe8dd;}.cls-287{fill:#eeebe0;}.cls-288{fill:#584c3c;}.cls-289{fill:#5e4d39;}.cls-290{fill:#1d150c;}.cls-291{fill:#503b21;}.cls-292{fill:#83673d;}.cls-293{fill:#ece9de;}.cls-294{fill:#9d9789;}.cls-295{fill:#dcdad3;}.cls-296{fill:#dfdbd0;}.cls-297{fill:#e6e4d8;}.cls-298{fill:#694c2b;}</style></defs><g id="Layer_2" data-name="Layer 2"><g id="Layer_13_Image" data-name="Layer 13 Image"><path class="cls-1" d="M99.16.07c27.33,0,54.66,0,82-.07,2.5,0,3.07.56,3.06,3.06-.1,27.33-.06,54.66-.06,82a1.48,1.48,0,0,1-1.47-.26c-3.16-3.13-.73-7.62-2.71-11-1.4-2.5-1-5.45-2-8.06-3.48-12.6-10-23.5-18.62-33.19A90,90,0,0,0,120.74,6.74c-3.2-1.09-6.54-1.24-9.7-2.25A18.85,18.85,0,0,1,109,3.85a16.9,16.9,0,0,0-6.13-1.51,6.55,6.55,0,0,1-3.59-.92A.94.94,0,0,1,99.16.07Z"/><path class="cls-2" d="M181.13,73.36c2,3.66.21,8,2.2,11.69,0,.24-.07.48-.11.72-.1,4.12-.18,8.24.05,12.36a4.4,4.4,0,0,0,.88,1.91v1c-3,1.19-1.48,4-2.13,6a1,1,0,0,1-1.25-.15,7.37,7.37,0,0,1-.77-5.33c.55-3.36-1.58-3.15-3.69-3.16a3.29,3.29,0,0,1-1.51-2.19c0-2.11,2.25-2.4,3-3.88.29-.56.57-1.13.87-1.68a5.76,5.76,0,0,0,1.07-3.05c-.17-3.69-1.51-7.31-.71-11.06A4.37,4.37,0,0,1,181.13,73.36Z"/><path class="cls-3" d="M184.15,100,183,99a69.72,69.72,0,0,1-.08-13.93h.42a1.28,1.28,0,0,1,.82,0Z"/><path class="cls-4" d="M99.16.07a6.09,6.09,0,0,0,0,.85,14.39,14.39,0,0,1-14.06,0q0-.4,0-.81Z"/><path class="cls-5" d="M20.31,35.09c13.52-16.81,30.62-27.81,51.93-32a1.7,1.7,0,0,1,.35,1.34c-.78,1.8-2.78,1.65-4.1,2.6-3.86,2.85-8.9,3-12.8,5.81-2.1,1.56-4.61,2.16-7,2.93-3.47,1.6-5.65,4.92-9,6.7a20.22,20.22,0,0,0-4.51,3.57c-.31.31-.65.58-1,.86a33,33,0,0,0-2.74,2.81,43.61,43.61,0,0,0-6.56,5.73c-1,.88-2,1.92-3.47,1.86C20.35,36.93,20.68,35.84,20.31,35.09Z"/><path class="cls-6" d="M72.25,181.89c-22.37-4.34-39.85-16.42-53.81-34a16.67,16.67,0,0,1-1.39-2.53c-.61-1,.1-1.21.8-1.45a5.74,5.74,0,0,1,3.06,1.77c5.73,6,10.8,12.75,17.75,17.55,2,1.57,4.14,2.86,6.25,4.23,5.11,3.46,10.77,5.72,16.51,7.83,2.72,1.52,5.83,1.89,8.72,2.91,1.53.65,3.3.53,4.77,1.39a1.44,1.44,0,0,1,.53,1.25C74.7,182.08,73.16,181.07,72.25,181.89Z"/><path class="cls-7" d="M158.4,155.13c-8.91,10.42-20.18,17.47-32.7,22.65a52.57,52.57,0,0,1-14.62,4.13c-1.2-1-3.09.42-4.13-1.15,1.85-3.67,5.7-2.41,8.59-3.52,3.63-4.36,9.73-1.51,13.76-4.72a12.27,12.27,0,0,0,2.27-1.12,10.64,10.64,0,0,1,2.58-1.69c.65-.4,1.51,1.42,2-.22a19.21,19.21,0,0,0,3.53-2.55c5-3.85,10.23-7.32,14.47-12a6.54,6.54,0,0,1,1.64-1.17,2.73,2.73,0,0,1,1.33-.08A2.22,2.22,0,0,1,158.4,155.13Z"/><path class="cls-8" d="M158.4,155.13,157.14,154c.18-4.38,4.91-5.73,6.21-9.37a27.26,27.26,0,0,0,2.24-4.24c3.64-6.39,8-12.44,9.61-19.8,2.38-3.82,1.76-8.6,4-12.46a2.93,2.93,0,0,1,1.92-1.1h.9c-1.71,15.44-8.38,28.81-17.37,41.16A31.22,31.22,0,0,1,158.4,155.13Z"/><path class="cls-9" d="M20.31,35.09l.9,2.07c.76.85.38,1.61-.18,2.35-1.22,1.12-2.54,2.16-2.81,4a7.65,7.65,0,0,1-1.38,2.94c-.39.54-.8,1.06-1.18,1.6-2.35,3-2,6.93-3.72,10.12a4.56,4.56,0,0,1-2.45,2.43,2.66,2.66,0,0,1-1.39-.2c-.84-.6-1-1.58-1.28-2.45A75.88,75.88,0,0,1,20.31,35.09Z"/><path class="cls-10" d="M108.43,182.13a4.57,4.57,0,0,1-3.53,1.54,182.57,182.57,0,0,1-26.46,0,4.54,4.54,0,0,1-3.52-1.56c1.07-1.23,2.62-1.41,4.06-1.83a7.13,7.13,0,0,1,2.3-.16c1,.07,2,.43,3.09.49,3.23.1,6.45,0,9.67,0,3.3.2,6.55-.43,9.84-.42A14.8,14.8,0,0,1,108.43,182.13Z"/><path class="cls-11" d="M18,144l-.94,1.29a51,51,0,0,1-9.3-16.16c1.72-1.13,2.67.29,3.79,1.14a53.9,53.9,0,0,1,4.34,7,17.29,17.29,0,0,0,2.63,4.41,2.31,2.31,0,0,1,0,1.91Z"/><path class="cls-12" d="M6.82,57.91a2.23,2.23,0,0,1,1.38,2.2c-.55,5.66-1,11.33-4.24,16.31-2.86.07-2.5-1.57-1.8-3.39A60.63,60.63,0,0,1,6.82,57.91Z"/><path class="cls-13" d="M2.16,73c.19,1.28-.16,2.9,1.92,3,1.09,3.45.12,7,.42,10.45a12.78,12.78,0,0,1-.11,1.64c-.31,1.65-.76,3.23-2.33,4.17-2.93-1.79-.34-4.94-1.75-7.11C1.87,81.25.25,76.87,2.16,73Z"/><path class="cls-13" d="M1.31,108c-.33-2.69-.67-5.37-1-8.06,1-2.29-.47-5.24,1.95-7.13A1.93,1.93,0,0,1,4,94.12c.9,3,.21,6.13.67,9.18a3.53,3.53,0,0,1-.46,2.11C3.32,106.35,3.19,108.17,1.31,108Z"/><path class="cls-14" d="M11.05,131.05l-3.3-1.9c-1.48-2.33-2.94-4.66-2.7-7.6a15.16,15.16,0,0,1-.44-4.93,1.25,1.25,0,0,1,1.21-.86c2.48,4.15,2.9,9.23,5.9,13.15A2.16,2.16,0,0,1,11.05,131.05Z"/><path class="cls-15" d="M85.13.88l14.06,0,3.94.44c-.61,2.16-2.49,2-4.07,2-6.14,0-12.3.45-18.44-.26a3.47,3.47,0,0,1-1.56-1C80.8.25,83.16,1.57,85.13.88Z"/><path class="cls-13" d="M5.28,115.8c-.08,1.92-.15,3.83-.23,5.75-1.23-3.07-3.35-5.88-2.9-9.47-.62-1-.82-2.18.16-3,.66-.53,1.49,0,2.1.57A7.69,7.69,0,0,1,5.28,115.8Z"/><path class="cls-16" d="M2.17,93.06.31,99.94a88.12,88.12,0,0,1,0-14.8c2,2-.19,5,1.68,7,.3.17.43.37.38.6S2.25,93.06,2.17,93.06Z"/><path class="cls-17" d="M79.06,2.08a3.15,3.15,0,0,0,.87.12c.65,1.24-.14,1.89-1,2.51a6.54,6.54,0,0,1-2.29.57c-1.61.06-3.21.06-4.45-1.23,0-.31,0-.61.07-.92C74.49,2.64,76.66,1.61,79.06,2.08Z"/><path class="cls-14" d="M4.12,110.05c-2.57-1.19-1.7,1-2,2A5.85,5.85,0,0,1,1.31,108l2-2.9a5.32,5.32,0,0,1,1.48,3.07A2,2,0,0,1,4.12,110.05Z"/><path class="cls-18" d="M108.43,182.13c-1.39-.39-3.08.44-4.21-1a2,2,0,0,1,2.93-.14c1.32.27,2.88-.49,3.93.94Z"/><path class="cls-19" d="M79.12,181.08c-1.12,1.49-2.81.66-4.2,1l-2.68-.22c.75-1.11,1.93-.81,3-.93C76.55,180,77.86,179.84,79.12,181.08Z"/><path class="cls-20" d="M111.08,3.14c13.8,2.39,26,8.35,36.88,17,14.94,11.79,25.78,26.49,31,45-.58.64,0,1.94-1.27,2.19-1.57-.5-1.79-2-2.47-3.22a132.17,132.17,0,0,0-7.65-17.15c-1.26-2-2.55-4.06-3.91-6a27.87,27.87,0,0,0-2-2.34c-.81-.91-1.36-2-2.1-2.94-.41-.46-.82-.91-1.25-1.35-1.33-1.37-2.72-2.68-4.12-4C149,25.84,144,21.18,137.83,18a26.4,26.4,0,0,1-3.58-2.32,112.12,112.12,0,0,0-23-9.15,2.39,2.39,0,0,1-.85-2A3,3,0,0,1,111.08,3.14Z"/><path class="cls-21" d="M79.12,4l.81-1.75c7.71-.72,15.51.81,23.2-.84,2.38-.58,4.34.56,6.33,1.56-1.29,1.75-3.43,1.29-5.12,2a8.89,8.89,0,0,1-2.41.24c-2.38-.37-4.74-1-7.19-.72-4.16.13-8.34-.39-12.47.46A3.26,3.26,0,0,1,79.12,4Z"/><path class="cls-22" d="M178.1,67.09l.9-2c1.93,2.44.31,5.79,2.13,8.26l-1,2.7C176.54,73.74,176.61,70.58,178.1,67.09Z"/><path class="cls-23" d="M104.21,4c1.49-1.64,3.56-.38,5.25-1l1.63.22c0,.3,0,.61.06.92-1.68,1.46-3.6,1.45-5.61.93A2.76,2.76,0,0,1,104.21,4Z"/><path class="cls-24" d="M178.1,67.09a23.13,23.13,0,0,0,2.05,9c-.65,4.41,1.17,8.63.94,13-1.62.3-2-1-2.6-2-.7-2.7-.87-5.5-1.52-8.21-.55-2.25-1.48-3.72-4.1-2.54-2.26-.76-1.72-2.82-2-4.44-.3-1.85-1-2.69-2.84-1.56-2.37-.48-2.19-2.63-2.6-4.23A27.82,27.82,0,0,0,162,57.54a2.91,2.91,0,0,1-.15-1.31c.7-1.29,2.12-2,2.65-3.47.43-1,.57-2,.95-3a2.12,2.12,0,0,1,.91-.94,2.19,2.19,0,0,1,1.69,1,93.06,93.06,0,0,1,8.12,14.27Z"/><path class="cls-25" d="M181.12,107l-1,1c-1.24-.93-1.59,0-2,.92-.61,1.39-1.48,2.75-3.2,2.39s-1.79-2.08-2-3.51a27.46,27.46,0,0,1-.17-3.4c.09-2.17-.31-4.41,1-6.36a1.73,1.73,0,0,1,2.34,0c1.51-.63,3.52-.41,4.07-3C181.58,99.33,180.94,103.21,181.12,107Z"/><path class="cls-26" d="M179.08,92.79c-.67,1.86-3,1.69-3.93,3.25a3.4,3.4,0,0,1-2.86,0,2.71,2.71,0,0,1-1.7-1.39,2.44,2.44,0,0,1,0-1.93c1.5-2.6,3.18,0,4.77-.15-2.9-1.13-2.06-2.14.1-3.11C177.7,89.5,178.39,91.14,179.08,92.79Z"/><path class="cls-27" d="M179.08,92.79l-3-2.69c-1.57-1.41-2.28.37-3.34.89-1.63.8-2.92.88-3-1.47a2.85,2.85,0,0,1,.74-1.22c1.56-1.08,2.83-2.75,5.05-2.54,2.34,1,4.75,1.94,3.79,5.3Z"/><path class="cls-28" d="M182.91,85.05Q183,92,183,99A25.27,25.27,0,0,1,182.91,85.05Z"/><path class="cls-29" d="M179.23,91.06c.07-2.91-2.44-3.54-4.23-4.81l.45-.59c1.71-.82,2.83-.07,3.69,1.38l2,2A3.21,3.21,0,0,1,179.23,91.06Z"/><path class="cls-30" d="M173.13,95.07l2,1a2.09,2.09,0,0,1,1,2h-1.95C172.8,97.42,172.16,96.54,173.13,95.07Z"/><path class="cls-31" d="M15.26,47.18l.94-1.12c2.13-1.11,2.54-3.23,3.1-5.27a5.18,5.18,0,0,1,.89-1.73c1-.28,1-1.11,1-1.9L23.93,35c.46-.19.88-.43,1.32-.66,1.51-.77,2.51-3.6,4.32-2.38,2.07,1.39,0,3.47-.52,5.22-2.38,4-4.43,8.1-4.54,12.9-2.63,1.66-4-1.67-6.21-1.58C17.35,47.9,15.44,49.56,15.26,47.18Z"/><path class="cls-32" d="M39.12,21.93c3-2.36,5.44-5.36,9.06-6.86a9.48,9.48,0,0,1,3.3-.5c2.43.19,2.77,1.24,1.21,3-5.67.54-2.54,4.95-3.36,7.63a33.67,33.67,0,0,0-9.17,2.52c-1.62-.21-3.65-.25-3.95-2.17S38.11,23.14,39.12,21.93Z"/><path class="cls-33" d="M55.16,12c3.68-3.42,9.17-2.92,13-6C71.09,5.55,74,4.69,77,4.58a9.15,9.15,0,0,1,3.21.27A1.52,1.52,0,0,1,78.75,7c-8.1,1-15.36,5-23.32,6.38A.77.77,0,0,1,55.16,12Z"/><path class="cls-34" d="M39.12,21.93l-2.35,3.62,3.54,1.59c-.71,4.85-4.56,4-7.79,4.3A2.73,2.73,0,0,1,31,29c.81-1.22,1.29-2.8,3.1-3a8.39,8.39,0,0,0,.67,1.11c-.26-.36-.48-.74-.71-1.11C35.42,24.21,36.79,22.46,39.12,21.93Z"/><path class="cls-35" d="M31,29a2.56,2.56,0,0,1,1.29,2.31A2.89,2.89,0,0,1,33,33.94a4.07,4.07,0,0,1-.55,1.33c-1.26,1-2.38,2.41-4.32,1.76l1.37-4.59c-2.43.05-3.19,3.11-5.61,2.53C26.13,32.78,28,30.2,31,29Z"/><path class="cls-36" d="M55.16,12l.1,1.05a7.57,7.57,0,0,1,.82.88c.47.9,1.41,1.58,1.31,2.76-1,1.53-2.47,1.85-4.12,1.89A1.4,1.4,0,0,1,52,17.22c1.39-1.23,1-1.78-.68-2.11-1.07-.21-2.12,1.27-3.13,0Z"/><path class="cls-37" d="M77,4.94c-2.93.58-5.79,1.64-8.85,1.1.88-1.58,3.15-.36,4-2l5,0c.31.27.39.48.23.64A.57.57,0,0,1,77,4.94Z"/><path class="cls-38" d="M38.21,164c-7.3-4.69-12.71-11.27-18-18,.89-.88,2.07-.33,3.18-.42-.25-2.33-1.92-3.8-2.53-5.74.62-2.24,2.25-3.13,4.42-3.31a2.17,2.17,0,0,1,1.63,2.19c-.37,9.16,7.85,18,17.13,18.43.29,0,.5.38.67.69C44.5,163.7,43.32,164.81,38.21,164Z"/><path class="cls-39" d="M70.13,179.08c-3.12-.64-6.43-.72-9-3a5.23,5.23,0,0,1-.73-5.38c1.73-2.43,4.25-1.54,5.77-.44C70,173,74.49,172,78.5,173.41c1.85.64,3.16-.49,4.36-1.72A4.16,4.16,0,0,1,85,171.1a3.1,3.1,0,0,1,2.1.86c.75,1.61.23,3-.74,4.34a6.17,6.17,0,0,1-2.74,1c-2.35.59-4.62,1.48-7.07.05-1.45-.84-3-1.28-3.46,1.43C72.9,180,71.2,179.65,70.13,179.08Z"/><path class="cls-40" d="M61.17,170c0,2,0,4-.05,6.06-6.12-1.71-12-4-17-8a2.11,2.11,0,0,1,1.8-.75c.92.06,1.69,1.16,2.72.37a4.85,4.85,0,0,0,5.8-1.14A7.48,7.48,0,0,1,61.17,170Z"/><path class="cls-41" d="M46.16,168l-2,0a20.76,20.76,0,0,1-5.94-4c4.89.17,5.65-3.19,5.94-6.95l.54-.43c2-.41,3.79,1.57,5.88.72a2.36,2.36,0,0,1,1.91.74c.69,2.56-1.41,3.25-2.9,4.35a6.48,6.48,0,0,1-2,.5C43.88,163.72,46.93,166.42,46.16,168Z"/><path class="cls-42" d="M70.13,179.08c.76-.14,2,.24,2.16-.66.46-3.69.45-3.89,3.73-2.49,2.47,1,4.74,1.38,7.14.1.54,1.92-.78,2.77-2.09,3.63-1.94.61-3.95.25-5.93.39C73.46,179.79,71.56,180.65,70.13,179.08Z"/><path class="cls-43" d="M21.11,140c3,1.47,3.41,4.26,4.25,7-2.29.74-3.48-1.1-5.13-1L18,144l.41,0c.54-.77,1.93-1.7-.38-1.9-1.47-1-2.8-2.14-2.75-4.18a1.21,1.21,0,0,1,1.1-.22A14.33,14.33,0,0,0,19,138.91,3.59,3.59,0,0,1,21.11,140Z"/><path class="cls-39" d="M75.14,180.05c1.76-1.84,4-.7,6-1a1.33,1.33,0,0,1,0,2l-2,.08-3.9-.12C75.18,180.66,75.16,180.35,75.14,180.05Z"/><path class="cls-38" d="M130.27,173.12c-3.6.3-6.23,6.13-10.63,1.88-.66,1.59-1,3.59-3.49,3-2.4,0-3.42-1.29-3.36-3.59.43-1,1.65-1,2.33-1.82-1.6-.26-1.58,1.53-2.59,1.94a19,19,0,0,1-15.55.77c-.93-1-1.53-2.15-.84-3.56,2.56-2.26,6-1.66,8.91-2.6a23.65,23.65,0,0,1,3.75-.51c2.82-.54,5.68-.91,8.5-1.47a14.81,14.81,0,0,0,4.44-1.44,2.57,2.57,0,0,1,1.32,0,2.83,2.83,0,0,1,.86,1,7.46,7.46,0,0,1,.65,2.47,2.27,2.27,0,0,1-.55,1s-.07,0,0,.09a2.05,2.05,0,0,1,.67-.71C127.52,169.23,129.08,170.89,130.27,173.12Z"/><path class="cls-44" d="M97.18,175a58,58,0,0,0,16-1h0c.15,2,1.91,2.74,3,4-2.65,2-6.53.35-9,2.95l-2.93.14a26.78,26.78,0,0,1-10,.8,1.16,1.16,0,0,1-.33-.79q0-.45.09-.45c.85-1.51,2-2.9,1.82-4.81C96,175.19,96.32,174.62,97.18,175Z"/><path class="cls-45" d="M155.24,155.07c-4.14,5.33-9.56,9.12-15.22,12.62-1.47.92-1.55-.52-1.73-1.2-.42-1.53-1.09-2.65-2.79-2.87-1.86-1-3.42-2.13-2.67-4.61,1.71-1.38,3.46-2.66,5.82-2.42a1.76,1.76,0,0,1,.74,1c.05-.46-.35-.71-.5-1.12a4.26,4.26,0,0,1,3.23-3.31c1.47-.22,3.24-.49,3.91,1.08.87,2.05-1.61,3-2.08,4.79,1.61-3.09,5.77-1.22,7.49-4.11C152.74,154.18,154.11,151.94,155.24,155.07Z"/><path class="cls-46" d="M155.24,155.07c-1.64-1.76-2.34-.26-3.14.9-2.34,1.3-4.5,2-5.62-1.45-.57-1.76-2.24-.67-3.28-1.24-.47-3.32,2.37-3.7,4.32-4.88,3.53-1.21,2.55,3.21,4.69,3.74.43,0,.85-.06,1.28-.07,1.26.21,2.95-.13,2.76,2Z"/><path class="cls-47" d="M156.25,154.1c-1.07-1.49-2.66-.94-4.09-1A139.39,139.39,0,0,1,163,143.14c1-.88,2,.45,1.14,1.89-1.3,3.81-5,5.73-7,9C156.84,154,156.55,154.06,156.25,154.1Z"/><path class="cls-48" d="M136.12,163.1c1.77-1,3.09-1.17,3.07,1.53,0,1.06-.44,2.32.84,3.07-.7,1.77-2.31,2.05-3.89,2.37a3.17,3.17,0,0,1-1.91-2.72,5.49,5.49,0,0,1,.07-1.4A4.55,4.55,0,0,1,136.12,163.1Z"/><path class="cls-49" d="M124.16,170c0-.34,0-.69,0-1a3.94,3.94,0,0,1,4.2-1.65,2.14,2.14,0,0,1,1,.82c-.22,2.14,3.4,1.52,2.83,3.92l-2,1c-2.36-.39-3.45-3.3-6.11-3.09Z"/><path class="cls-50" d="M132.23,172.09c-.62-1.18-1.9-1.13-2.91-1.46-2.37-.79-.83-1.69-.17-2.59a2.53,2.53,0,0,1,.92-.89,2.07,2.07,0,0,1,2.43.11,7,7,0,0,1,1.54,2.81A3.07,3.07,0,0,1,132.23,172.09Z"/><path class="cls-51" d="M134,170.07c-1.91-.07-1.82-1.59-2-2.86l.45-.58a2.22,2.22,0,0,1,2.68.36l1,3.08C135.44,171.14,134.74,170.05,134,170.07Z"/><path class="cls-52" d="M174.16,105a9.24,9.24,0,0,0,0,1.49c.23,1.36-.83,3.53,1,3.87,2.06.38,1.73-1.89,2.09-3.23a4,4,0,0,1,2.14-2.52c1.11,1.07.54,2.3.72,3.38-2,4.16-.92,9.22-4,13.06-1,.51-1.78-.08-2.53-.64-.87-1-1.59-1.28-2.67,0-1.56,1.8-3.43,2.3-5.36.36-1-3,.81-5.43,1.57-8.07,1.3-3.17.9-6.82,2.75-9.84C172.5,101.36,173.36,103.14,174.16,105Z"/><path class="cls-53" d="M164.16,145c-.12-.84-.61-2-1.35-.95a24.14,24.14,0,0,1-10.65,9h0c-2-2-2.07-2.29.1-5.22,1.28-1.74,3.06-3.25,1.55-5.7-.24-3.41,2.73-5.23,3.91-7.94a1.31,1.31,0,0,1,1.24-.29,4.13,4.13,0,0,1,1.42,2.15,4.74,4.74,0,0,0,2.7,2.35c1,.87,3.41.18,3.07,2.63A5.49,5.49,0,0,1,164.16,145Z"/><path class="cls-54" d="M166.15,141c-.87-1.62-3.1-.4-4-1.92.77-1.19,2.18-1.47,3.22-2.27,1-.27.91-.71.21-1.27a2.67,2.67,0,0,1,.23-2.41,4.92,4.92,0,0,0,1.74-2.67,2.92,2.92,0,0,1,.89-1c2-2.22,3.51-4.62,2.44-7.82.71-1.34,1.32-2.9,3.32-1.65l2,1.06C174.64,128.64,170.63,135,166.15,141Z"/><path class="cls-55" d="M15.26,47.18c1,.92,2.07-.49,3.1,0a3.27,3.27,0,0,1-.47,2.38c-.68,1.43-.17,2.83.12,4.25.17,2.74-1.06,5.1-2,7.54a10.59,10.59,0,0,1-2.5,3.95c-2.35,1.69-3.13.24-3.46-1.8s.48-3.76,1.09-5.56C12.06,54.18,12.15,50.1,15.26,47.18Z"/><path class="cls-56" d="M3.17,87.05c.21-3.69-.66-7.47.91-11C5.19,70.64,5.7,65.12,8.2,60.11l1,0c1.64,2.34.09,4.61-.13,6.92-.75,4.68-3,9-3.5,13.73C5.17,83,6.61,86,3.17,87.05Z"/><path class="cls-57" d="M8.08,66.91c.38-2.27.77-4.54,1.15-6.82l1.9-2.15a58.58,58.58,0,0,0,.08,5.93c.29,2.77,1.34.06,2,.19,1.64,2.35.21,4.07-1.19,5.79-1,.78-1.93,2-3.3.93S7.46,68.35,8.08,66.91Z"/><path class="cls-35" d="M20,40.74c.41,3-.79,4.81-3.81,5.32.35-.93.7-1.85,1.06-2.78C17.86,42.09,18.36,40.8,20,40.74Z"/><path class="cls-5" d="M20,40.74l-2.75,2.54c-.14-2.18,1.25-3.3,2.93-4.22Z"/><path class="cls-39" d="M94.17,181.08c0,.28,0,.56,0,.83l-11,.07c.26-1.79,2.47-2.53,2.38-4.5,2-.34,1.12-3.34,3.26-3.57a3.1,3.1,0,0,1,1.75,2.52,11.43,11.43,0,0,0,.23,1.84C91.46,179.8,93.34,179.82,94.17,181.08Z"/><path class="cls-58" d="M86.33,178c.32,2.39-1.25,3.31-3.11,4l-2.07-1c0-.65,0-1.31,0-2,.67-1,1.34-2,2-3l2.86,0A1.32,1.32,0,0,1,86.33,178Z"/><path class="cls-59" d="M16.11,138a7.87,7.87,0,0,0-.84,0l-4.22-6.91c0-.64-.05-1.29-.08-1.93,1.33-.74,3.25.32,4.22-1.42,1.2-2.76-1.55-5.92.88-8.54,1.83-.55,1.81,1,2.34,2,.73,2.73,2.22,5.11,3.53,7.58.75,1.53.52,2.69-1.26,3.23-1.71.32-3.17.9-3.26,3C17.24,136.09,17.16,137.25,16.11,138Z"/><path class="cls-60" d="M18,142.14c1.1-1.26,3-1.8,3.49-.34.73,2.27-1.61,2.06-3.11,2.24C18.27,143.41,18.15,142.77,18,142.14Z"/><path class="cls-61" d="M2.17,93.06a4,4,0,0,0-.18-1l1.29-4C5,87.38,4.37,83.7,7.46,84.84a8.57,8.57,0,0,1,2,.61A5.22,5.22,0,0,1,12.52,89c-.56,3-3.07,1.35-4.62,2a5.54,5.54,0,0,0-2.25,1.79c-.72.6-1.08,1.88-2.43,1.28Z"/><path class="cls-57" d="M7.24,86c-2.47-1.53-2,2.65-4,2,0-.33-.07-.67-.11-1,1.9-2.09.56-4.68,1.06-7a2.4,2.4,0,0,1,3.29,0A4.9,4.9,0,0,1,7.24,86Z"/><path class="cls-62" d="M3.22,94,5,92c2.08,1.64,3.14,4,4.39,6.21,1.09,3,1.61,6.1.5,9.24-2.56,1.81-2.79-.6-3.36-2s0-3.21-1.09-4.55a3.43,3.43,0,0,1-.67-2.14c-.29,1.06.5,1.89.46,2.86a2.94,2.94,0,0,1-1.13,2.54C2.47,100.88,3.19,97.41,3.22,94Z"/><path class="cls-63" d="M4.09,104.15l.18-3.2c.48-.63,1.38-.37,1.9-.91,1.22.63,2.16,1.41,1.5,3-.89,2.1,0,3.64,1.54,5,1.4-.21,1.45.67,1.35,1.67-1,1.3-2,.5-3,.15a6.09,6.09,0,0,1-1-.74A2.23,2.23,0,0,0,4,108.27c-1.09-.87-.75-2-.69-3.17Z"/><path class="cls-64" d="M16.16,129c-1.7,1.4-3.42,2.36-5.19.09-3.25-3.7-5.23-7.87-4.87-12.92-.57-2.54-2.57-5.29,1.09-7.18h0a12.36,12.36,0,0,1,5.51,6.66c.29,1.84,2,2.69,2.9,4.06C14.37,122.93,17.15,125.87,16.16,129Z"/><path class="cls-65" d="M7.19,109c-2,2.14-.48,4.82-1.09,7.17a6.16,6.16,0,0,1-.82-.39c-1.28-1.74-.66-3.86-1.16-5.75,0-.6-.08-1.19-.13-1.78.26-.86.31-2.07,1.6-1.8S7.12,107.87,7.19,109Z"/><path class="cls-66" d="M77,4.94a6.11,6.11,0,0,0,.18-.85L79.12,4l2.93,0,.31.63c-.51,1-1.22,1.32-2.2.57Z"/><path class="cls-67" d="M164.17,40l4,6-.49.44a3.42,3.42,0,0,1-1.27.21,7.44,7.44,0,0,0-4.9.37,4,4,0,0,1-2.54.28,27.07,27.07,0,0,0-4.16-1.83c-5.2-6.08-10.41-12.14-17.16-16.62-.9-.78-1.89-1.51-2.1-2.82a3.88,3.88,0,0,1,1.53-3.18c2.41-1,3.7.81,5.12,2.1,1.86,1.68,4,2.92,6,4.49,2,2.35,3.85,4.82,6.46,6.56a12.65,12.65,0,0,1,2.87,2.59,6.86,6.86,0,0,0,1.69,1.79C161,41.16,162.56,40.59,164.17,40Z"/><path class="cls-68" d="M111.32,5.9c8.73,1,16.3,5.12,24,8.92-2.44,1.84-6.19,2.21-6.76,6.12a1.54,1.54,0,0,1-1.27.39c-1.52-1.56-2.16-4.06-4.76-4.48-3-1.22-7.13-.51-8.6-4.64.45-1,1.73-.73,2.38-1.46-2-3.74-7-1.38-9.18-4.56a1.44,1.44,0,0,1,.08-1.38A3.63,3.63,0,0,1,111.32,5.9Z"/><path class="cls-69" d="M148.13,30.08c-4.71-.7-6.53-5.92-11-7-.07-.21-.14-.41-.22-.61.41-1.38,1.12-2.71.75-4.23a1.51,1.51,0,0,1,.46-1.14C144.88,20,150,25,155.18,30,152.84,31.14,150.48,29.59,148.13,30.08Z"/><path class="cls-70" d="M148.13,30.08c2.34-2.82,4.7-.46,7.05,0a10.21,10.21,0,0,1,3.89,4c-1.29,1.57-3.41,1.76-4.91,3C151.73,35.09,149,33.43,148.13,30.08Z"/><path class="cls-71" d="M176.16,64.05c0,.16,0,.36-.08.48a5.56,5.56,0,0,1-.59.6c-1.31-5.85-6.22-9.72-8.27-15.16.68-1.18-.35-2.71.76-3.81l.23-.13A62.91,62.91,0,0,1,176.16,64.05Z"/><path class="cls-72" d="M138.13,17.11l.06.92c.1,2.09-1.29,1.09-2.21,1.07-1.37-.41-2.74-1-4,.27-1.12,1.1-1,3.65-3.61,3a1,1,0,0,1-.35-1.17c-.42-5.39,2.91-6.49,7.31-6.39Z"/><path class="cls-73" d="M154.16,37.05c.54-2.8,2.74-2.85,4.91-3l1,1.14c1.31,3.05,1.15,5-3,3.88Z"/><path class="cls-74" d="M157.12,39.1c2-.53,3.73-1.25,3-3.88,1.2.54,1.49,1.78,2.11,2.77,1.48,4.74-1.52,3.6-4,3.08A2.11,2.11,0,0,1,157.12,39.1Z"/><path class="cls-75" d="M158.15,41.07c2.2.09,4.31.08,4-3.08l2,2C162.67,43.32,160.44,42.38,158.15,41.07Z"/><path class="cls-76" d="M111.32,5.9l-4.17-.82c-1.14.65-2,.64-2-1l6-.06Z"/><path class="cls-66" d="M82.05,3.91c4.33-1.6,8.79-.54,13.19-.69C96.48,3.8,97,4.67,96.47,6c-1.54,1.41-3.44.06-5.09.67a4.79,4.79,0,0,1-1.31,0,3.36,3.36,0,0,1-1.18-.51C87.05,4.41,84.21,6,82.33,4.3Z"/><path class="cls-77" d="M96.05,6.23l-.81-3c2.41-.51,4.66.16,6.9.92a.81.81,0,0,1,.26.76c-.05.27-.12.4-.18.4-1.45,1.07-3.35.9-4.86,1.82C96.62,7.27,96.1,7.09,96.05,6.23Z"/><path class="cls-78" d="M102.26,5c0-.28-.09-.56-.12-.83L104.21,4c.31.07.61.12.92.16l2,1c0,.32,0,.63,0,1l-.44.48a3.15,3.15,0,0,1-1.91.26A3.49,3.49,0,0,1,102.26,5Z"/><path class="cls-79" d="M155.21,44.92c1.55.31,3.69-.42,4,2.19,1.64,2.16,2.64-.12,3.92-.57a3,3,0,0,1,2,.07c.85.59,1.45,1.28,1,2.41,0,.35,0,.7,0,1a9.63,9.63,0,0,0-2.75,4.07c-1,.21-2,.49-1.07,1.83l-.19.11c-.5.69-.15,1.85-1.22,2.24a7.1,7.1,0,0,0-6.19,1.43c-1.66,1.09-3.45,2-5.18,2.91a19.12,19.12,0,0,0-3.21,2.22c-2.86,1.69-6.14,2.58-8.77,4.7-1.9,1.1-4,1.85-5.81,3.15a17.36,17.36,0,0,1-1.67,1.12c-3.89,2.27-7.88,4.37-11.67,6.81-1.2.63-2.4,1.26-3.83.86-.61-2.42-2.08-.2-3.08-.56-1.21-.08-2.36-.23-2.55-1.77,1-1.45,2.69-1.89,4.08-2.77,4.67-1.62,8.5-4.75,12.8-7,2.55-1.07,4.74-2.77,7.16-4.07a100,100,0,0,0,11.83-6.83,51.77,51.77,0,0,0,7-4c1.91-.93,3.71-2,4-4.38C156.9,48.25,154.1,46.79,155.21,44.92Z"/><path class="cls-29" d="M175,86.25l-3.88,2.68c-3.38-4-1.53-9-2.93-13.41-.49-1.81-1.59-3.62-.05-5.45.16-1.07-.3-2.54,1.36-2.77s1.79,1.19,2.29,2.18c1.05,2.06-.63,4.7,1.36,6.57,2.78,2.85,2.36,6.38,2.11,9.88Z"/><path class="cls-80" d="M175.26,85.93c-1.44-3.14-1.62-6.54-2.11-9.88,2.81-2.37,4.15-2.23,4.72.9.61,3.32,1.78,6.62,1.27,10.09Z"/><path class="cls-81" d="M168.14,70.07l1.05,5c.53.78.64,1.7-.35,2s-1.74-.71-2.39-1.45c-1.77-2.51-1.79-5.69-3.2-8.34-.63-3.06-3.48-5.6-2.15-9.12a2.21,2.21,0,0,1,1-2C166.37,59.78,165.72,65.58,168.14,70.07Z"/><path class="cls-82" d="M163.21,53.89c-1.24-3,.89-3.36,2.92-3.82.07,1.17.11,2.34-1,3.1C164.57,53.69,164.23,54.68,163.21,53.89Z"/><path class="cls-83" d="M166.17,49,165,47.23c.35-1,1.45-.65,2.11-1.11a4.63,4.63,0,0,1,.91,0c-.53,1.22,2,3.05-.76,3.81Z"/><path class="cls-84" d="M163.21,53.89l1.87-.72C165,55,164.17,56,162.31,56,161.36,54.74,161.73,54.07,163.21,53.89Z"/><path class="cls-85" d="M174.16,105c-1.12-1-2-2.44-3.86-2-2-2.56-.3-5.29-.4-7.94a.94.94,0,0,1,1.33-.2l1.9.12,1.08,3C174.19,100.37,174.18,102.7,174.16,105Z"/><path class="cls-86" d="M171.23,95l-1,.17c-2.42-1.34-6.28-.12-7.25-4.06,1.66-1.73,4.24-1,6.07-2.33a1.57,1.57,0,0,1,1.33.45c.15,2.17,1.23,1.39,2.31.75S175,88.4,176,90.1C176,93.3,170.77,91.29,171.23,95Z"/><path class="cls-87" d="M170.36,89.18l-1.07-.13c-1.88-1.42-1.15-3.73-1.9-5.54-.36-1.42-.54-2.89-1-4.3a6.72,6.72,0,0,1-.24-1.48A3,3,0,0,1,167.24,75c.65-.47,1.29,3.27,1.95,0,1.77,4.47.72,9.34,1.93,13.89A1.3,1.3,0,0,1,170.36,89.18Z"/><path class="cls-88" d="M17.15,49c.41-.62.81-1.24,1.21-1.87C21,46.67,21.73,49.87,24,50c1.48-1.28.4-4.83,3.86-4.34,1.38.9,1.24,2.25.82,3.5-.88,2.63.25,4,2.64,4.82a7.61,7.61,0,0,1,1.26.67c1,1,2.39,1.87,1.48,3.66-3.56,1.05-5.71-2-8.58-2.95C22.22,53.92,18.76,52.71,17.15,49Z"/><path class="cls-89" d="M28.76,46.22C25.67,45.58,26,49.16,24,50c-1.62-5.28,1.73-9,4.13-13L32,34.85c1.15,2.63-2.81,4.14-1.48,6.81a25.07,25.07,0,0,1-.88,3.79A1.17,1.17,0,0,1,28.76,46.22Z"/><path class="cls-90" d="M52,17.22l1.14,1a16.1,16.1,0,0,0,9.68-1.37,26.63,26.63,0,0,1,11.08-2.51,6.21,6.21,0,0,1,3.34,1.49c.21,2.61-2,2.2-3.42,2.62a122.9,122.9,0,0,0-13.15,4.65c-3.36,1.44-4.48,3.26-2.06,6.39a47.77,47.77,0,0,0,3.2,5.32c1.59,3,2.94,6.17,5,9a59.49,59.49,0,0,0,4.23,7c1.07,1.53,1.28,3.4,2,5.08a51.74,51.74,0,0,0,4.75,9c.84,1.68,2.07,3.23,1.75,5.29a2.22,2.22,0,0,1-2.37,1.26c-3.24-2.24-4.25-6.09-6.55-9-1.43-3.1-3.29-6-5-8.9a33.26,33.26,0,0,0-3-5.19,69.93,69.93,0,0,0-3.93-6.89,55.07,55.07,0,0,0-3-5.07c-.77-1.31-1.4-2.7-2.16-4A14.84,14.84,0,0,0,50,27.72a4.47,4.47,0,0,1-1.2-1.59A1.53,1.53,0,0,1,49,24.87a8.42,8.42,0,0,0-.57-1.78C45.84,18.74,46.65,17.38,52,17.22Z"/><path class="cls-91" d="M49,24.87c0,.4.09.79.14,1.19-3.61,3.21-7,6.74-11.63,8.55-1.74-.46-3.54-.26-5.29-.54,0-.94,0-1.87,0-2.81,2.41-1.88,6.52-.48,8-4.12C42.85,25,45.48,23.2,49,24.87Z"/><path class="cls-92" d="M82.33,4.3c2,0,3.89-.06,5.84-.14,1.69-.07,1.21,1,1.13,2-.52,2.12-1.22,4.1-3.54,4.92-6.41.15-12.44,2.57-18.78,3.13-2.55.35-5.19-.61-7.72,1-1.28.79-2.88,0-4-1.09a4.3,4.3,0,0,1,0-.95C62.51,9.66,70,7,78,6a8.37,8.37,0,0,0,2.16-.91Z"/><path class="cls-35" d="M34.05,26l3.54,1.63c-2.82,1.15-2.82,1.15-3.5-1.62Z"/><path class="cls-93" d="M32.24,34.07c1.65-1.26,3.31-2.65,5,0-1,3.86-3.06,6.78-7.1,7.92-1.06-1.13-2.54-2.11-.62-3.81,1-.92,2.29-1.79,2.55-3.34A3.44,3.44,0,0,1,32.24,34.07Z"/><path class="cls-94" d="M66.29,13.13c6.69-.49,12.88-4.34,19.85-2.92,1.08.84,3.16.46,3.16,2.62-4.17,2.8-9.1,1.23-13.56,2.39a1.65,1.65,0,0,1-1.5-.1A57.57,57.57,0,0,0,60,19.25a5.72,5.72,0,0,1-6.85-1l4.08-2.14A19.68,19.68,0,0,1,66.29,13.13Z"/><path class="cls-33" d="M66.29,13.13l-9.08,3c-1.26-.11-2-.68-2-2.05C59,15,62.43,11.39,66.29,13.13Z"/><path class="cls-41" d="M44.15,157.06c-3.93,4.9-6.43-.17-9.28-1.51-5.66-2.65-6.51-9.09-9.94-13.54-.88-1.15,1-1.87,1.24-3,1.62-.62,2.5.54,3.31,1.54a91.32,91.32,0,0,0,13,13c1,.84,2.1,1.72,1.73,3.31Z"/><path class="cls-95" d="M44.25,156.93C37.58,151.61,32,145.2,26.17,139a2.1,2.1,0,0,0-1-2c-1.13-1.13-2.75-1.19-4.1-1.86a2.78,2.78,0,0,1-.62-1.22,3.48,3.48,0,0,1,.15-1.4,8.05,8.05,0,0,1,3.53-2.32,2.89,2.89,0,0,1,2,.46c1.88,5.26,6.22,8.72,9.53,12.94,2,3.3,5.17,5.35,8,7.76,2.13,2.23,5.7,3,6.59,6.5C47.76,160.82,46.37,156.65,44.25,156.93Z"/><path class="cls-96" d="M21.2,135c2.39-1.38,3.7-.69,4,2.05L21.11,140l-2.85-.1c-.43-1.33-1.7-2.41-1.22-4C18.33,135.09,19.79,135.19,21.2,135Z"/><path class="cls-97" d="M61.17,170l-7-3c-2.05,0-1.86-1.54-2-2.84.57-3.19,2.34-3,4.67-1.78a66.63,66.63,0,0,0,17.13,6.18,15.76,15.76,0,0,1,2.89.59c.91.29,1.77.69,2.65,1,1.23.59,2.76.58,3.67,1.83-.4,3.46-2.84,3-5.22,2.76-2.75-.29-5.38-3-8.31-.44-.17.15-1.13-.16-1.18-.39C67.45,170,63.63,171.25,61.17,170Z"/><path class="cls-98" d="M79.11,171.08l-2-1c1-1.39,2.64-1.42,4.07-1.92,2.6-.58,5,.17,7.4,1.06,1.64,1.35.63,2.06-.65,2.7l-.75.05h-2C83.29,170.77,81,172.21,79.11,171.08Z"/><path class="cls-99" d="M86.33,178c-.1-.64-.2-1.27-.31-1.91a7.37,7.37,0,0,1,1.11-4l.05,0a2.19,2.19,0,0,1,2.56-.29c.89.51.55,1.27.06,1.93l-.63.35C87.46,174.8,89,177.93,86.33,178Z"/><path class="cls-100" d="M79.11,171.08c2,.22,4.26-.82,6.06.94l-2,0C81.76,171.88,80.2,172.43,79.11,171.08Z"/><path class="cls-101" d="M53.11,164c.12,1.09-.09,2.3,1.06,3.05-1.2,5.07-3.71,2.33-6,1a1,1,0,0,1-.29-.77c0-.28.08-.42.14-.42a3.67,3.67,0,0,1,1.07-.7A5.53,5.53,0,0,0,52,163.9.93.93,0,0,1,53.11,164Z"/><path class="cls-102" d="M47.93,167.19a4.41,4.41,0,0,0,.27.85c-.69,1-1.36,0-2,0-1.83-1.5-2.63-3.21-1.23-5.46.69-1.11,1.37-1.94,2.47-.4A13.31,13.31,0,0,1,47.93,167.19Z"/><path class="cls-103" d="M53.11,164l-.84.05c-.69.21-.19-1.94-1.39-.69A1.76,1.76,0,0,1,49.13,162c.55-1.67,3.19-1.82,2.94-4.06a3.08,3.08,0,0,1,.24-2.55,6.68,6.68,0,0,1,.64-1.13,23,23,0,0,0,2.54-4.37c.72-1.31,1.36-2.65,2-4a10.4,10.4,0,0,1,1.39-2.27,2.14,2.14,0,0,1,2.45-.65c1.26,1.6.21,3.47.58,5.18a4.69,4.69,0,0,1-.24,2q-2.1,3.59-4.22,7.14c-.17.39-.35.77-.51,1.17-.59,2.15,1.16,2.29,2.46,2.83a90.26,90.26,0,0,0,17.06,5.49c1.27.24,2.72.42,2.9,2.19-1.52,1.3-3.57-.11-5.13,1-6.61-1.47-13.13-3.21-18.82-7.12C53.83,161.75,53.4,162.66,53.11,164Z"/><path class="cls-104" d="M53.23,155.08c-.39.95-.78,1.89-1.16,2.84l-1.76,0L43,152.11C47.3,150,50.23,152.65,53.23,155.08Z"/><path class="cls-105" d="M49.13,162l2,1c.62,2-.5,3.07-2,4l-1.25.18c-.94-1.6-2.86-3.08-.54-5Z"/><path class="cls-11" d="M17.36,135.8c0,1.42,2.15,2.37.9,4.06-1.13-.14-1.62-1-2.14-1.86,0-1.32.05-2.63.08-3.95.73-.42,1.09,0,1.4.6A1.51,1.51,0,0,1,17.36,135.8Z"/><path class="cls-106" d="M118.14,168l-9,2c-2-1.24-4,0-6-.26a2.07,2.07,0,0,1-1.21-.94,1.83,1.83,0,0,1,1.57-1.67c8.09-1,15.4-4.55,23.08-6.89a2.58,2.58,0,0,1,2,1.16,3.21,3.21,0,0,1,.25,1.53,4.8,4.8,0,0,1-5.51,3.15l-1.14-.06C121,167.1,119.45,167.28,118.14,168Z"/><path class="cls-107" d="M102,168.92l1.44.27c.5.59,1.54.08,1.89,1-2.89,1.46-6.16,1.09-9.17,1.95a7,7,0,0,1-3.39,2.28,1.65,1.65,0,0,1-1.17-.78,4.78,4.78,0,0,1,.19-4.41,2.18,2.18,0,0,1,1.34-.71C96,168.94,99.09,166.79,102,168.92Z"/><path class="cls-108" d="M123.32,166.11l4.89-3c2.15-.19,2,1.67,2.55,2.88a3,3,0,0,1-.53,2.06l-1.08,0,0-.16c-1.82-1.22-4.19,1.05-5.88-.93A2.63,2.63,0,0,1,123.32,166.11Z"/><path class="cls-109" d="M113.18,174c-1.12-2.06.06-3.28,1.81-3.58,1.59-.27,2.36,1.25,2.1,2.62-.55,2.82-2.68.23-3.91.95Z"/><path class="cls-110" d="M93.19,174c0-2.18,1.42-2.07,2.92-1.9.35,1,.71,2,1.07,2.94-.32.34-.64.69-1,1-.87.47-1.55,0-2.21-.47A2.37,2.37,0,0,1,93.19,174Z"/><path class="cls-111" d="M124.16,170c.42,1.14,1.49,2.22.34,3.61-1.65-.44-2.16-1.75-2.62-3.11l2.28-.5Z"/><path class="cls-112" d="M123.3,167c1.94.42,4.13-.66,5.88.93l-5,1.12A1.75,1.75,0,0,1,123.3,167Z"/><path class="cls-113" d="M107,173.48a6.92,6.92,0,0,1-1,.38A1.59,1.59,0,0,1,104,173c-.32-.67.28-.81.71-.88C105.51,172,106.28,172,107,173.48Z"/><path class="cls-114" d="M105.28,170.15c-.7-.18-1.53-.12-1.89-1,2,.17,4.08-.95,5.79.84Z"/><path class="cls-115" d="M118.14,168a5.5,5.5,0,0,1,4-2C121.38,167.83,119.87,168.14,118.14,168Z"/><path class="cls-116" d="M94.22,175l2,1.12c2.21,2.85-.48,3.69-2,5-2.46.24-4.35-.42-4.87-3.17A16.65,16.65,0,0,0,94.22,175Z"/><path class="cls-117" d="M158.11,134.06c.45,3.54-3.25,5-4,8-.37,3.73-3.19,5.36-6,7-1.61,1.39-3.8,2.07-4.91,4.06-.12.52-.76.57-.94,1l-3.21,2.79v0c-2.09.37-3.44,2.73-5.87,2.22a2,2,0,0,1-.56-1.28A4.4,4.4,0,0,1,135,154.8c7.29-4.79,13-11.18,18.22-18.07,1-1.3,1.82-2.81,3.64-3.18A2,2,0,0,1,158.11,134.06Z"/><path class="cls-118" d="M133,157.71c.06.48.13.95.19,1.43-.09,2.11,1.65,2.87,2.93,4l-1,2.92c-.63,1.45-2.61-1.2-3,1l-.18.2-1.76.8c0-.66-.07-1.31-.11-2-.78-1.28-.08-3.27-1.94-4l-.92-1c-1.24-3.79-4-6.91-4.66-11,.8-2.47-2.14-4.71-.45-7.24,2.49-.18,3.3,1.58,4,3.46.25.9.46,1.8.74,2.69a8,8,0,0,0,2.62,4.51A53.82,53.82,0,0,1,133,157.71Z"/><path class="cls-78" d="M142.28,154.11l.94-1c1.29.05,3.09-1.46,3.7.78.87,3.14,3.25,1.93,5.18,2.13-.4.5-.79,1.44-1.2,1.45-3.68.08-6.23,1.76-7.55,5.72-2.9-4.26.74-6,2.2-8.29C144.55,153.53,143.33,154.24,142.28,154.11Z"/><path class="cls-119" d="M139.07,156.9c1.24,1.1,1.57,2.27.15,3.84-1.55-1.32.39-2.67-.16-3.82Z"/><path class="cls-47" d="M148.13,149l6-7c4.07,1.85,1.38,3.63,0,5.56-1.13,1.61-4.54,2.5-2,5.47-2.24,1.33-3,.26-2.51-1.82C150,149.65,149.5,149.16,148.13,149Z"/><path class="cls-120" d="M132.17,167c-.32-1-1.39-1.95-.49-3.22,1.5.21,1.69,2.5,3.48,2.23a4.51,4.51,0,0,1,0,1Z"/><path class="cls-121" d="M163.16,91.09c1.35,3.1,6.12.2,7.05,4,2.18,2.64-.34,5.31.08,8a31.44,31.44,0,0,1-2,10.09c-1.67-1.35-1.32-3.46-2-5.19-.67-3.78,1.36-7.54.12-11.32-1.2-2.25-4.15-.79-5.56-2.6a2.8,2.8,0,0,1,.1-3A1.72,1.72,0,0,1,163.16,91.09Z"/><path class="cls-122" d="M167.28,108.05c1.51,1.49.6,3.42,1,5.13-.46,2.66-2.22,5-2,7.81,1.4,3.9-2,5.93-3.4,8.74a2.21,2.21,0,0,1-2.86.46,3.38,3.38,0,0,1-.69-2.23C161.86,121.29,163.16,114.1,167.28,108.05Z"/><path class="cls-123" d="M162.2,129.08c1-2.86,3.59-4.94,4-8.09,3.68,1,4.53-2.21,6-4.94.83,1.73,1.36,2.86,1.9,4-1.56-.15-2,1.4-3,2-2.64,2-2.28,5.19-2.93,8l-.24.15C165.79,131.19,163.93,130.45,162.2,129.08Z"/><path class="cls-124" d="M169.31,115.47c.93-.17,1.32.13,1.09.72a3,3,0,0,1-1.1,1.46c-.52.29-1-.29-.84-.79A5.34,5.34,0,0,1,169.31,115.47Z"/><path class="cls-125" d="M158.11,134.06l-1.18-.09c-3.19-2.11-6.21-4.48-9.71-6.08-.79-.4-1.57-.83-2.33-1.29a27.38,27.38,0,0,0-5.06-2.92c-2.39-1.17-4.64-2.58-6.93-3.92a77.05,77.05,0,0,0-6.93-4c-.94-.61-2-1.16-2.06-2.46,2.31-1.18.06-1.23-.45-1.71-1.18-1-3-1.59-2.3-3.75,1.47-.84,2.74-.14,4,.48,2,1.47,4.27,2.6,6.37,4a57.61,57.61,0,0,0,5.83,3.18c2,1.47,4.18,2.52,6.23,3.85,2.39,1.67,5.18,2.62,7.65,4.15a9.64,9.64,0,0,1,1.91,2c1.06,1.56,2.95,2,4.26,3.25s3.92,2.32,2.37,5.09l-.61.35Z"/><path class="cls-126" d="M166.05,137.08c-.67,1.91-2.26,2-3.93,2-1-.72-2.38-.78-2.91-2.1a4.06,4.06,0,0,1,2.07-1.43,3.46,3.46,0,0,1,1.28.1C163.69,136.23,165.13,136,166.05,137.08Z"/><path class="cls-127" d="M161.25,135.9a2.14,2.14,0,0,1-2,1.11c0-1,0-1.95,0-2.92h0C160.77,133.66,161.28,134.47,161.25,135.9Z"/><path class="cls-53" d="M161.25,135.9a3.2,3.2,0,0,0-2.07-1.8c1.3-2.92-1.28-3.7-2.84-4.91-1.39-1.08-3.49-1.24-4.15-3.27,3.14-1.1,5.33,1.26,7.91,2.17,0,.69.07,1.37.11,2.06,1.27.83,2.53-.19,3.81,0,1.58.22,3,.57,2.27,2.72-.06,1-.13,2.06-.19,3.09-1.3.54-2.64.08-4,.18Z"/><path class="cls-128" d="M168.21,130c-1.28-3.49-2.21-6.85,2.93-8,1.83,1.45,4,3,.4,4.73C169.93,127.54,172.8,132.66,168.21,130Z"/><path class="cls-129" d="M166.29,132.86c-.93-3.38-4.64-.5-6.08-2.71l2-1.07c2.1-.56,3.89.5,5.77,1.09C167.58,131.18,170.11,134,166.29,132.86Z"/><path class="cls-130" d="M162.14,136.13c1.24-1.9,2.62-.53,4-.18.74.41.72.79,0,1.13C164.66,137.13,163,138.38,162.14,136.13Z"/><path class="cls-131" d="M15.19,61.06c.24-2.69,2.26-5,1.77-7.82,4.64-.76,4.36,2.3,4.15,5.31-1.85,2.77-1.29,7-5.08,8.59A6.48,6.48,0,0,1,15.19,61.06Z"/><path class="cls-49" d="M15.19,61.06l1,6a2.59,2.59,0,0,1,.7,1.35,6.29,6.29,0,0,1-3.07,5.19,2.76,2.76,0,0,1-3-.63,3.75,3.75,0,0,1,.47-3.89,6.65,6.65,0,0,0,1.93-5Z"/><path class="cls-132" d="M20.09,59c.2-2.59.48-5.22-3.13-5.72-1.26-1.46-1-2.85.19-4.2,3,1.69,5.3,4.6,9,5.06.17,2.4-3.11,2.06-3.29,4.18a4.4,4.4,0,0,1-1.82,2C20.21,60.19,19.63,59.93,20.09,59Z"/><path class="cls-133" d="M11.29,69.11,11.13,73a3.12,3.12,0,0,1-.77,2.46c-1.71,1.07-1.81,3.27-3.2,4.58H4.23q1.92-6.57,3.85-13.15C8.31,68.88,7.92,71.74,11.29,69.11Z"/><path class="cls-116" d="M92.18,169c0,1.67,0,3.33,0,5,.93,2.1.29,3.12-2,2.95-.32-1-.64-1.95-1-2.92l0-.07c2.08-1.09.89-2.87.88-4.37,0-6.17-1.27-12.39.86-18.47a1.21,1.21,0,0,1,1.68.16C94,157.25,94.55,163.17,92.18,169Z"/><path class="cls-134" d="M90.12,177a2.85,2.85,0,0,0,2-2.95l1,0,1,.95c.12,3.91-2.64,3-4.92,3Z"/><path class="cls-135" d="M24.14,131l-3,2c-1.71.12-1.59-.73-1-1.84,1.63-.08,1.62-.92.94-2.06a3.45,3.45,0,0,1,2.19-1.57c2.74,0,4.89-2.83,7.88-1.68a1.77,1.77,0,0,1,.27,1.34C29.84,130,26.7,130,24.14,131Z"/><path class="cls-136" d="M23.14,128.15a2.21,2.21,0,0,1-2,.92c-2.14-1.89-2.77-4.57-3.77-7.06.54-.87.22-2.62,2.13-2.11C21.86,122.13,22.41,125.18,23.14,128.15Z"/><path class="cls-96" d="M20.18,131.13a1.83,1.83,0,0,0,1,1.84l0,1.09c-1.1,1.07-2.26,1.9-3.89,1.14l-1.09-1.15C16.24,131.33,17.87,130.76,20.18,131.13Z"/><path class="cls-65" d="M16.16,129c-.58-3.29-2.41-6.46-1-10l.29-.31h.42l.31.3C15,122.38,18.51,125.71,16.16,129Z"/><path class="cls-135" d="M19.22,120l-1.87,2c-.26-1,0-2.3-1.18-3v0a1.85,1.85,0,0,1-.42-2,2.31,2.31,0,0,1,1.73-1.26C19.44,116.62,19.77,118.15,19.22,120Z"/><path class="cls-137" d="M17.41,115.77l-1.26,1.29a3.21,3.21,0,0,1-2-2.17c-1-3.49-2.2-6.92-2.45-10.61A7.76,7.76,0,0,0,8.21,98C7.15,96,4.74,94.69,5,92l2.07-2c2.3.2,4.61,1.13,6.9-.09a10,10,0,0,1,3.22.28c2.18,1.11,5.86-.09,6.16,3.95a3.65,3.65,0,0,1-2,1.08c-6.52.46-6.52.46-5.14,7.23C16.39,106.89,19.29,111.12,17.41,115.77Z"/><path class="cls-138" d="M10.12,75a2.25,2.25,0,0,1,1-2L14,73a3.21,3.21,0,0,1,1,3.14c-1.06,4.34,0,9.16-3,13.05L9,86.18C8.09,82.33,6.85,78.45,10.12,75Z"/><path class="cls-139" d="M12.06,89.18c.55-4.41.58-8.91,2.07-13.17.85-.13,1.73-.65,2.45.3a3.23,3.23,0,0,1,.14,2.06c-.27.94-.59,1.85-.91,2.78-.91,3.22.72,6.84-1.56,9.84-2.46.05-5,.46-7.19-1C8.47,88.05,10.69,91.35,12.06,89.18Z"/><path class="cls-140" d="M10.12,75C8.31,78.6,9.67,82.49,9,86.18L7.24,86c0-2,0-4-.08-5.94C7.19,77.82,6.85,75.37,10.12,75Z"/><path class="cls-141" d="M8.21,98c2.71-.27,3.86,1.28,4.3,3.68.83,4.49,1.68,9,2.52,13.46-1.48.17-2.19-1-3.16-1.77A7.19,7.19,0,0,1,10.28,110c-.36-.66-.72-1.32-1.07-2C9.28,104.64,9.3,101.27,8.21,98Z"/><path class="cls-142" d="M6.17,100a1.71,1.71,0,0,1-1.9.91V97.61Z"/><path class="cls-65" d="M10.28,110a3.39,3.39,0,0,1,1.93,3,2.19,2.19,0,0,1,.43,2.59l-.49.5-5-7Z"/><path class="cls-65" d="M15.15,119.07c-3.28,1.27-2.79-1.21-3-3l0,0c2.17-.18,3.85.15,3,3Z"/><path class="cls-143" d="M155.21,44.92c.19,1.75,3.5,2.82,1.12,5.13-3.17-.64-4-3.64-5.78-5.7a38.89,38.89,0,0,0-9.1-9.27,10.25,10.25,0,0,1-1.13-.83c-1.25-2.47-5.87-2.46-4.87-6.59a3.17,3.17,0,0,1,2.71.4A53.31,53.31,0,0,1,155.21,44.92Z"/><path class="cls-144" d="M138.16,28.06l-3.24.07a5.85,5.85,0,0,1-4.11-.39,2.66,2.66,0,0,1-1.33-1.59c-.25-2.84,2.86-4.95,1.75-8,1.54-1.4,3.07-1.06,4.61,0s1.43,2.44.93,3.94c-.24,1.3-1.57,2.43-.59,3.91Z"/><path class="cls-145" d="M163.22,47.09l-3.28,3.72c-1.37-1.23-.84-2.51-.75-3.7l2-1.06C161.71,46.65,162.79,46.23,163.22,47.09Z"/><path class="cls-146" d="M163.22,47.09c-.82-.09-1.64-.17-2.07-1a5.14,5.14,0,0,1,5.92.07c-.42.91-1.32.9-2.11,1.11Z"/><path class="cls-147" d="M136.18,26c-.85-.4-1.73-.86-1.64-1.95s1-.93,1.76-1.07c.25-.42.56-.48.91-.12l-.07.19Z"/><path class="cls-148" d="M96.05,6.23l1.07.88.58.25c.53.34,1,.73,1.57,1.06,2.48.77,5.08,1.06,7.56,1.82,2,.83,3.88,1.84,6.13,1.37a1.79,1.79,0,0,1,1.18.47c2.31,2.91,6.18,2.3,9,4a4,4,0,0,1-3.34,2.65c-3.68-.58-7.23-1.76-10.92-2.25a23.51,23.51,0,0,1-3.74-.5c-3.91-.83-8.06-.76-11.55-3.09a2.48,2.48,0,0,1-.88-1.12A7.57,7.57,0,0,0,91.13,6C92.86,4,94.41,6.11,96.05,6.23Z"/><path class="cls-149" d="M109.15,15.08c3.67,1,7.56,1.17,11,3,2.62.37,5.45.22,7,3q.4.07.81.18a4.91,4.91,0,0,1,.14.84c.24,1.56-.93,1.69-2,1.95-6.82-2.29-13.86-4-20.23-7.46C106.45,14.81,108.35,16.16,109.15,15.08Z"/><path class="cls-78" d="M114.14,12.08l-1,0a3.18,3.18,0,0,1-3.1-.76c-.19-2.19-4.25-2.23-2.93-5.27l0,0c2.53.47,5.08.85,7.58,1.43a3.12,3.12,0,0,1,2.59,3.59C117.07,12.82,115.24,11.72,114.14,12.08Z"/><path class="cls-150" d="M127.2,21c-2.23-1.27-5-1.23-7-3,1-.62,1.47-2.16,3-2C126.24,16.32,127.55,18,127.2,21Z"/><path class="cls-151" d="M137.21,22.9c-.3.05-.6.09-.91.12-.15-1.61-.31-3.22-.46-4.83.78-.12,1.64.92,2.35-.16C140.32,20.15,138.75,21.52,137.21,22.9Z"/><path class="cls-152" d="M126,23.27c.85-.17,1.69-.33,2.12-1.22,2.84.14,1.14-3.31,3.08-3.88,3.48,3.16-1,5.22-1.1,7.88-.55,1.48-.56,3.46-3,3.19C126.05,27.39,126.75,25.19,126,23.27Z"/><path class="cls-153" d="M89.16,12.06c-1.39,0-2.85.12-3-1.85,1.55-1,.92-3.64,3.16-4.08l1.09.07a2.66,2.66,0,0,1,.42,2C90.45,9.59,90.36,11.07,89.16,12.06Z"/><path class="cls-154" d="M90,8.05c.14-.62.29-1.23.43-1.85A4.7,4.7,0,0,1,91.13,6c3.14.73,4.12,2.33,2.1,5.16C90.93,11.39,90.6,9.56,90,8.05Z"/><path class="cls-155" d="M102.26,5l2.86,1.13a1.53,1.53,0,0,1,0,2.24,10,10,0,0,1-8-1.24h0C97.77,3.85,100.48,5.52,102.26,5Z"/><path class="cls-156" d="M105.16,8.08c0-.66,0-1.32,0-2l2,0c.82,1,.72,2.54,2.85,2.65,4.24.22-.25,1.52.14,2.31a2.3,2.3,0,0,1-3,0,22.78,22.78,0,0,1-9-2C100.2,6.81,103,9.3,105.16,8.08Z"/><path class="cls-157" d="M77.16,71.05l2-1c3.42.53,6.87,1.44,9.93-1.15,1.5-6.39.39-12.87.67-19.29.17-3.81-.07-7.63.11-11.44.07-1.58-.09-4,1.93-3.94,1.84.08,1.68,2.53,1.74,4.14.13,3.81,0,7.62.06,11.44.05,5.63-.15,11.27.13,16.89a2.45,2.45,0,0,0,1.81,2c.88.19,1.77.36,2.65.57,2.64,1,4-.66,5.11-2.55,2.13-3.47,4.29-6.94,6.09-10.61a31.13,31.13,0,0,0,3-5.09c.4-.8.81-1.58,1.28-2.34a24.35,24.35,0,0,1,3-3.71c3-3.05,4.47-7.17,7.07-10.48,2.19-2.79,3.08-1.47,3.33,1.25A16,16,0,0,1,125,40.87a19.83,19.83,0,0,1-1.11,1.65,14.06,14.06,0,0,0-1.94,4c-1.2,2.29-3.1,4.14-4,6.59-.39.78-.8,1.56-1.26,2.31a38,38,0,0,0-3.55,6.32,9.05,9.05,0,0,1-.7,1.15c-1.55,2-2.44,4.3-3.66,6.45-1.79,2.13-2.06,4.21,0,6.4.75.81,1.33,1.86.55,3,.43,1.58,1.75,1.24,2.87,1.32.13.7-.4,1.8,1.06,1.71a43.9,43.9,0,0,1,1.88,6.82,5.1,5.1,0,0,1-.24,2,3.12,3.12,0,0,1-.8,1.1c-2.59,1.2-3.79-2-6.06-1.87a19.94,19.94,0,0,0-3.65-8.38c-1.45-2.55-4.26-2.87-6.57-4-4.93-3.35-9.6-2.42-14.06.91-1.18.89-2.46,1.61-3.6,2.54A28.19,28.19,0,0,0,77.72,84c-1.92,2.27-2.48,4.68-.41,7,2.25,2.56,2.92-1.77,4.79-1.31.27.06.62-.14,1-.18a2.4,2.4,0,0,1,1.3.38c.06,4.45-1.69,7.7-6.06,9.24-2.06,0-2.72,1.29-2.83,3.1-.78,1.24-1.68,2.27-3.36,1.94-1.29-1.34-1.26-3.37-2.45-4.78-.45-.76-.84-1.56-1.23-2.36a4.1,4.1,0,0,0-2.91-2.51c-4.12-.72-8.59.92-13.28-2,5-3.27,10-1.19,14.51-2.21a3.1,3.1,0,0,0,1.35-1.51,26.14,26.14,0,0,1,1.34-2.28c.62-1.19,1.76-2.33.26-3.68a14.12,14.12,0,0,1-1.32-1.24c-.94-1.23-2.34-1.54-3.74-1.88a5.75,5.75,0,0,1-3.27-2.4c-1-2.21-.12-3.17,2.18-3.11a7.42,7.42,0,0,1,2.55,1,16.74,16.74,0,0,1,1.66,1.13,9.06,9.06,0,0,0,3.57,1.59C74.83,77,75.76,73.83,77.16,71.05Z"/><path class="cls-158" d="M151.29,44l5,6c1.58,4.1-1.73,4.23-4.13,5.08a2.74,2.74,0,0,1-1.64-1.05c-5.86-8.71-13.82-15-22.82-20.19-.53-2.75.74-4.49,3.12-5.6,4.73-.44,6.7,4.2,10.41,5.64l0,0A119.5,119.5,0,0,1,151.29,44Z"/><path class="cls-159" d="M114.25,89c-.6-2.26-2-4.41-1-6.9a1.4,1.4,0,0,1,1-.82L118,80c1.07-.45,2-1.37,3.14-1.48,2.55-.24,4.46-4.38,7.49-1.38s4.12,10.15,2.06,13.65c-4.25,1.25-8.58.58-12.88.53A3.65,3.65,0,0,1,114.25,89Z"/><path class="cls-160" d="M128.08,34c8.62,2.1,14.21,8.36,19.76,14.58,1.73,1.93,2.92,4.33,4.36,6.52a13,13,0,0,1-7,4.1c.08-3.12-1.33-5.54-3.25-7.92-3.18-3.92-7.33-6.67-11-10-2.4-2.12-4.66.07-6.94-.36.72-1.67,1.44-3.35,2.17-5C127.05,35.6,126.27,33.52,128.08,34Z"/><path class="cls-161" d="M109.29,78.78c-.39-.68-.62-1.6-1.21-2-3.63-2.52-3.29-5.1-.3-7.83,2.33-1.81,2.79-4.73,4.24-7.07L112,62c1.94-2.6,4-2.73,6-.15,7.79,9.84,8.5,7.45-2.82,14.23-.69.42-1.59.53-1.83,1.48A3.26,3.26,0,0,1,109.29,78.78Z"/><path class="cls-162" d="M124,41c2.63-3.25,5.41-2.58,8.24-.29a85.85,85.85,0,0,1,13.65,13.37c1.94,2.45-.2,3.49-.65,5.15a48.67,48.67,0,0,1-11.95,7c-.87-.9-.61-1.74.1-2.58,1.32-1,2.85-1.67,4.2-2.63,2.73-1.37,3.57-2.74,1.29-5.67-4.2-5.4-9.61-9.14-15.27-12.67-.13-.2-.25-.4-.37-.6Z"/><path class="cls-163" d="M136.87,68.92c2.59-2.41,5.88-3.57,9-5.07a1.49,1.49,0,0,1,1.41.14c4.77,4.3,8.32,20.49,5.83,26.52a5.8,5.8,0,0,1-5.72.09c-1.73-1.51-1.45-3.61-1.6-5.57-.21-2.66-.83-5.26-1.19-7.9C144,72.53,141.6,69.62,136.87,68.92Z"/><path class="cls-164" d="M113.29,77.52c1.58-3.18,5.29-3.57,7.59-5.81.57-.56,1.86-1.27,1.78-1.49-1.37-3.42-4.5-5.55-6.46-8.58-1.49-2.31-2.83.13-4.24.32.61-2.73,2.26-4.88,4-7,5.59-.5,13,5,13.57,10,.33,2.71-2,3.61-3.29,5.18A57.69,57.69,0,0,1,113.29,77.52Z"/><path class="cls-165" d="M153.17,90.13c-1.25-9.09-1-18.6-7.33-26.28a4.42,4.42,0,0,1,3.06-1.92c2.17-.9,3.62.25,4.5,2a47,47,0,0,1,5.53,23,5.15,5.15,0,0,1-1.64,3.55A3.3,3.3,0,0,1,153.17,90.13Z"/><path class="cls-166" d="M136.87,68.92c5.95-1.13,8.06.56,9.19,7.85.68,4.41,1.56,8.83,1.1,13.34a3.28,3.28,0,0,1-3.74.54c-3-2.55-3.55-6.27-4.2-9.72-.89-4.74-2.6-8.27-7.91-8.84A13,13,0,0,1,136.87,68.92Z"/><path class="cls-167" d="M157.17,90.11c1.55-8.81-1.16-16.86-4.4-24.82-.71-1.75-1.68-3.28-3.87-3.36l5-3.06c5.66.8,5.3,5.75,6.62,9.55,1.48,7.2,1.34,14.45.81,21.72C159.94,91,158.55,91.33,157.17,90.11Z"/><path class="cls-168" d="M159.16,68.05c-1-3.51-1.53-7.24-5.25-9.18,2.33-.94,4.37-4.51,7.19-.76q1.58,4.35,3.17,8.69c.89,3.77,1.66,7.58,2.91,11.25a1,1,0,0,1,.09.78c-.25,3.75.8,7.48.16,11.24a2.44,2.44,0,0,1-2.34.21c-3.33-4.36-2.36-9.84-3.68-14.73A46.57,46.57,0,0,0,159.16,68.05Z"/><path class="cls-169" d="M131.16,90.06a19.7,19.7,0,0,0-.34-4.38c-.85-2.81-1.34-6.23-3.25-8.09-2.33-2.25-4.51,2-7.23,1.91A10.58,10.58,0,0,0,118,80a48.47,48.47,0,0,1,12.08-7,1.88,1.88,0,0,1,2.29,0c3.78,2.63,6.59,13,4.75,17.47C135,91.53,133,91.72,131.16,90.06Z"/><path class="cls-170" d="M126.2,70.16c3.09-5.77,1.89-9-4.49-12.45-1.89-1-3.52-2.56-5.79-2.75a1.85,1.85,0,0,1,.91-2c3.94-4.15,4.27-4.22,8.59-.22C129,56,133.48,58.54,134.14,64a2,2,0,0,0-.89,2.22A24.73,24.73,0,0,1,126.2,70.16Z"/><path class="cls-171" d="M137.16,90.11c-1-6.27-1.14-12.9-7.11-17.11l1.26-.91c6.22-1.14,7.14-.85,8.48,5.73.86,4.21,2.57,8.12,3.37,12.3A4.4,4.4,0,0,1,137.16,90.11Z"/><path class="cls-172" d="M114.25,81.25l-1,.82-3.41,1.47c-.61-2.31,1.82-2.18,2.37-3.44l2.19-.64C114.32,80.06,114.28,80.65,114.25,81.25Z"/><path class="cls-173" d="M167.18,78.05a20.3,20.3,0,0,1-2.91-11.24l3,8.23Z"/><path class="cls-174" d="M137.16,90.11h6l4,0,6,0h4l4-.14c1.33-1.18,2.67-1,4,0l2,0c1.28-2.18-1.31-5,1.12-7,1.52,1.81.5,4,1,6-1.11,3.48-4.06,1.43-6.13,2l-2,.06c-2.22,2.2-5.05,2.14-7.89,2.31-10.48.66-20.86-1.11-31.31-1-2.57,0-5.38.74-7.58-1.41l-.12-2c5.49,2.59,11.27.75,16.91,1.09Z"/><path class="cls-173" d="M168.25,83c-.71,2.27,1,4.93-1.12,7a15.38,15.38,0,0,1,.14-11.17C168.46,80,168.05,81.59,168.25,83Z"/><path class="cls-168" d="M50.12,26.81c2.7.67,3.11,3.22,4.27,5.15a2.23,2.23,0,0,1-1.11.75c-9.35,5.53-17.35,12.37-22.12,22.41-6.85-1.33-3.81-5.34-2.41-8.9l.32-.14A51.09,51.09,0,0,1,50.12,26.81Z"/><path class="cls-175" d="M22.14,57.88c-.62-3.32,2.87-2.29,4-3.78,2.64,1.46,4.95,3.62,8.15,3.91,1.36-1.12,2.55-.23,3.78.28a16.89,16.89,0,0,1,1.65,1.1,23.56,23.56,0,0,0,4,2.12c3.61,1.9,7.08,4.05,10.65,6a2.24,2.24,0,0,1,.81,2.53A5.61,5.61,0,0,1,52,71.69c-2.24.27-4-1-5.86-1.87a29.21,29.21,0,0,0-5.08-3c-.8-.4-1.58-.81-2.34-1.27A33.1,33.1,0,0,0,33,62.24a10,10,0,0,1-1.15-.65,23.64,23.64,0,0,0-5-2.9C25.43,57.51,23.63,58.6,22.14,57.88Z"/><path class="cls-176" d="M38.13,59.12,34.27,58l-2.2-2.7c-.82-3.11,1.37-5.09,3-7C40.51,42.25,46.28,36.5,53.18,32L54.39,32c.66,1.25,1.31,2.5,2,3.75a1.83,1.83,0,0,1-.73,1.14c-7,3.84-12,10-17.41,15.55-.88.91-1.87,2-1.21,3.52a11.68,11.68,0,0,1,1.46,2A1.33,1.33,0,0,1,38.13,59.12Z"/><path class="cls-177" d="M53.18,32C49.3,37.46,43.27,40.61,39,45.63c-2.61,3-5.19,6-6.89,9.68a2,2,0,0,1-.91-.19c-.55-1.22-1-2.26,0-3.65A77.2,77.2,0,0,1,51.9,31.78C52.16,31.61,52.75,31.94,53.18,32Z"/><path class="cls-178" d="M50.12,26.81a134.88,134.88,0,0,0-21,19.27c-.78-1.64-.21-2.95,1-4.08l7.1-7.92c4.27-2.24,7-6.71,11.95-8Z"/><path class="cls-179" d="M58,30.15c-3.93-5.23-3.92-5.23,1.63-8s11.71-4.26,17.7-6c.85-1.14,2.18-1.22,3.41-1.53,10.94-1.13,11.61-1.08,10.78,10.11-1.13,15-.29,30.1-1.19,45.12a3.16,3.16,0,0,1-2.52.61c-2.18-2.06.46-4.14,0-6.2,0-7.78.11-15.56,0-23.32-.07-.5-.15-1-.26-1.49-.2-1.64.27-3.3-.11-4.94-.22-1.64.31-3.2.48-4.8a15.18,15.18,0,0,0-.33-5.33c-.15-.63-.27-1.28-.47-1.9-1.44-2.09-3.69-1.41-5.41-1.1-7.91,1.41-15.71,3.25-22.39,8.11A3.13,3.13,0,0,1,58,30.15Z"/><path class="cls-180" d="M72.16,56.11l-2-5.07c-3.17-6.9-2.91-7.7,4.59-9.91C79.1,39.84,83.39,37.7,88.17,39h0c1,3.35.23,6.79.47,10.17-1,2.76-3.66,2.52-5.75,2.83a16.72,16.72,0,0,0-9.26,4.09A1.3,1.3,0,0,1,72.16,56.11Z"/><path class="cls-181" d="M55.32,69.85l-1.25-1.52c-.57-1.08-1.93-1.41-2.4-2.57C54,59.16,59,55.29,65.07,52.43a3.39,3.39,0,0,1,1.37.5c1.89,2.88,3.82,5.74,4.78,9.11-.87,1.26-2.35,1.73-3.47,2.67-4.51,3.81-4.56,4-1.49,8.87a1.88,1.88,0,0,1-.05,2.27,2.17,2.17,0,0,1-2.13-.8c-1.61-1.2-3.95-.49-5.44-2-1-.91-2.18-1.53-3.08-2.53Z"/><path class="cls-182" d="M66.21,75.85a3.35,3.35,0,0,0-2.1-3.13c-5.82-1.61-2.49-3.8-.37-5.68s3.66-5.33,7.48-5l5.94,9c1,3.59-2.32,8-6.15,8-1-1.24-2.61-1.27-3.85-2Z"/><path class="cls-183" d="M88.17,39c-5.27,1.6-10.75,2.3-16,4.34-3.33,1.31-4.81,2.46-2.23,5.74.33.42.13,1.27.18,1.92a19.38,19.38,0,0,1-4.09-6.82,6.07,6.07,0,0,1-.74-2.46,2.75,2.75,0,0,1,.39-1.42c3.9-4.71,16.86-7.76,22.48-5.3C90,36.39,87.74,37.71,88.17,39Z"/><path class="cls-184" d="M66.15,42.08c0,.71-.05,1.43-.07,2.14a25.14,25.14,0,0,1-5-9,1.12,1.12,0,0,1-.31-.85c0-.31.06-.47.12-.47,6.47-4.58,14.17-5.82,21.58-7.76,1.37-.36,1.79-.68,1.6-1.95,1.33-1.37,2.7-1.19,4.1-.15,1.75,1.8.66,4,.89,6a124.26,124.26,0,0,0-19.2,4.62C66.1,35.94,64.35,38.08,66.15,42.08Z"/><path class="cls-185" d="M61.23,34c0,.4-.09.81-.14,1.21C59.36,34,58.68,32,58,30.15l.44-.18c8.38-6,17.91-8.34,28-8.78a2.23,2.23,0,0,1,1.72.88c0,.65,0,1.31,0,2-1.38.17-3-.44-4,1-5.82,3-12.65,3-18.45,6.12C64.14,32,62.28,32.36,61.23,34Z"/><path class="cls-186" d="M38.23,58.05l-2.07-1c-.61-1.77.79-2.74,1.65-3.84a73.9,73.9,0,0,1,18.27-17,1.66,1.66,0,0,0,.27-.53,11.52,11.52,0,0,1,3,5.14l-.47.52C51.5,44,47.4,50.52,42,55.51,40.89,56.56,40.4,58.57,38.23,58.05Z"/><path class="cls-187" d="M43.16,62.09c-1.46-.47-3-.8-3.9-2.23C44.34,52.05,50.45,45.34,59,41.22l.31-.37a20.19,20.19,0,0,1,4,6.91l-.42.57a2.08,2.08,0,0,1-1.34-.23c-2-2-3.69-1.08-5.62.38C50.9,52.31,47.15,57.3,43.16,62.09Z"/><path class="cls-188" d="M87.15,70l2,.22c.32.2.41.38.3.55s-.23.25-.34.25c-3.42.44-7,3-10-1-.71-1.64-1.41-3.28-2.12-4.91l.54-.38c2.62.25,2.67,3.18,4.47,4.28C83.63,70,85.68,68.45,87.15,70Z"/><path class="cls-188" d="M72.16,56.11l1,0c2.78,2.27,5.29,4.67,4.25,8.79l-.4.33C74.45,62.66,73.13,59.48,72.16,56.11Z"/><path class="cls-189" d="M66.44,52.93l-1.28.14c-1.91-1.08-3.08-2.47-2.08-4.8a1.41,1.41,0,0,0,.24-.51Z"/><path class="cls-190" d="M80.13,16l-2.83.23c-1-.33-2.34.1-3.06-1.08a3.66,3.66,0,0,1,.87-.13C76.89,14.77,78.9,13.38,80.13,16Z"/><path class="cls-103" d="M80.13,16c-1.42-1.6-3.36-.56-5-1,4.26-3,9.62-.75,14-2.93.18-1.36-.61-2.9.8-4,1.77.33,2,2.32,3.27,3.13,0,.27,0,.54,0,.81a49.31,49.31,0,0,1,1.23,4.82c.32,12.74.06,25.48.16,38.21-.65,4.67,1.42,9.62-1.5,14-1.7-2-.85-4.46-.88-6.69-.11-9.08,0-18.16-1-27.24,0,10.37,0,20.73,0,31.1,0,1.75,1.08,4.21-2,4.82,0-.27,0-.53,0-.8,1.58-1.24,1.12-3,1.12-4.6,0-15.22-.2-30.43,0-45.64.07-4.75-1.66-5.78-5.83-4.59A27.33,27.33,0,0,1,80.13,16Z"/><path class="cls-191" d="M53.23,155.08c-3.58-.42-6.45-3.29-10.25-3-3.16-2.21-6.17-4.58-8.18-8,.13-.11.29-.33.38-.3.43.12.82-.16.61-.37-3.38-3.45-5.08-8.19-8.72-11.44a1.33,1.33,0,0,1,.17-1.32,5.46,5.46,0,0,1,3.37-1.09,2.25,2.25,0,0,1,1.23.66c2.43,4.53,6,8.18,9.27,12.07,3.3,4.69,8.24,7.63,12.3,11.5a1.05,1.05,0,0,1-.2,1.24Z"/><path class="cls-192" d="M27.2,131.57c2.57.23,3.27,2.36,4.41,4.16,2,3.15,4.22,6.16,6.41,9.32-1.52.64-2.06-1.14-3.22-.92-3.45-2.6-5.26-6.62-8.32-9.54-1.34-1.28-.65-2.26.09-3.36C27,130.85,27.26,130.94,27.2,131.57Z"/><path class="cls-96" d="M27.2,131.57a3.2,3.2,0,0,0-.63-.34L24.14,131q3.51-2,7-4c.39-.5.68-1.21,1.48-1,1.06.21,1,1.06,1,1.89a2.62,2.62,0,0,1-2.11,1.69,11.22,11.22,0,0,0-4.32,1.55Z"/><path class="cls-193" d="M17.29,135.2l3.89-1.14c0,.33,0,.65,0,1-.87,2.29-2.4,1.31-3.85.78A3.08,3.08,0,0,1,17.29,135.2Z"/><path class="cls-194" d="M74.24,170c1.43-1.63,3.43-.51,5.08-1.07a1.32,1.32,0,0,1,1.83.18c-1.07,1.46-2.71.76-4.09,1.06Z"/><path class="cls-195" d="M81.15,169.07l-1.83-.18c-7.17-2-14.57-3.25-21.11-7.08-1.56-.81-3.13-1.61-2.1-3.84a2.48,2.48,0,0,1,.29-.92c2.05-.37,3.35,1.15,4.88,2,7,4,14.79,5.48,22.52,7.16,2.8.61,4-.73,4-3.43a43.68,43.68,0,0,1,.19-5.94,3.2,3.2,0,0,1,1.27-2.06,1.05,1.05,0,0,1,1.29.81c.1,3.39.05,6.79,0,10.18,0,1.55.43,3.32-1.46,4.25Z"/><path class="cls-196" d="M89.17,170c1.92-4.91.67-10,.89-15-1.57-1.81-1.28-4-1.29-6.14,0-9.4-.07-18.8,0-28.2A5.14,5.14,0,0,1,90,117.08c2.43-.06,2.18,1.87,2.51,3.36.15,8.3,0,16.6,0,24.9,0,2,.17,4-1.31,5.67,0,6.23,0,12.47-.11,18.71,0,1.63.8,3.84-2,4.26,1.06-2.39-.64-2-2-1.92Z"/><path class="cls-197" d="M49.19,167l2-4c1.53-.9.77.66,1.12,1C52.29,166.13,51.53,167.39,49.19,167Z"/><path class="cls-198" d="M89.13,157c-.3,3.39,1.47,7.5-1,10-2.91,2.93-6.43-.57-9.73-.93a41.9,41.9,0,0,1-22-9c1.82-2.22,2.39-5.26,4.71-7.14.82,3.62,3.43,5.32,6.66,6.62a61.37,61.37,0,0,0,15.33,4.31c2.43.31,3.85-.45,4.31-2.87C87.79,157.3,88.26,156.79,89.13,157Z"/><path class="cls-199" d="M59.35,144.11a2,2,0,0,1-1,2c-3.39,4.39-3.74,4.43-8.19,1.28A55.45,55.45,0,0,1,37.05,134c-1.48-2.1-2.42-4.35-1.69-7,1.73-2.72,3.93-4.65,7.43-4.34-1.49,10,6.63,13.71,12.42,18.92C56.41,142.63,58.34,142.64,59.35,144.11Z"/><path class="cls-200" d="M88.16,158c.48,3.42-.21,4.63-4.35,4.2-7.55-.78-14.21-3.8-21.06-6.51-3-1.19-2-3.6-1.64-5.81l.15-1.84c-.5-1.2.2-1.26,1.08-1.14,5.18,5.86,12.61,6.73,19.51,8.69C84,156.25,86.47,156.12,88.16,158Z"/><path class="cls-201" d="M59.35,144.11c-4.7-.28-7.86-3.27-10.88-6.35-2-2-3.61-4.31-5.46-6.43-2.49-2.85-4.43-5.64.14-8.35-.08-1.45.81-1.45,1.85-1.23,2.06,6.65,7,11,12.15,15.19,2.28,1.86,4.07-.57,6.09-.06,1,1.39.35,2.67-.24,4a3.58,3.58,0,0,1-2,1.86Z"/><path class="cls-202" d="M36.18,127.06c.7,8.36,7.42,12.47,12.54,17.71.45.46,1.24.6,1.65,1.08,2.61,3.08,5.24,3.44,8,.26a7,7,0,0,1-2.18,3.95c-1.2,1.18-1.74,2.88-3.12,3.92A38.15,38.15,0,0,1,40.17,143c-1.44-5.3-5.48-8.84-8.75-12.9l-.34-.14c-.24-.49-.09-.77.46-.82L33.15,128C34,127,34.72,125.84,36.18,127.06Z"/><path class="cls-203" d="M61,142.7a1.63,1.63,0,0,1,.76-1.84c1.71-.83,2.09-2.77,3.33-4,1.52-1.49,2.51-1.17,2.81,1a5.25,5.25,0,0,1-1,2.68c-1.79,2.09-1.8,5.4-4.62,6.79l-1,.74C59.32,146.37,62,144.44,61,142.7Z"/><path class="cls-104" d="M53.1,154a4.81,4.81,0,0,1,3.12-3.92,7.05,7.05,0,0,1-3,5C53.17,154.71,53.14,154.35,53.1,154Z"/><path class="cls-204" d="M56.11,158c-.06,1.7,1.29,2.62,2.1,3.84C55.65,161.55,54.09,160.74,56.11,158Z"/><path class="cls-179" d="M123,150.16c1.24,3.7,5.28,6.3,4.28,10.89A109,109,0,0,1,102,168.92c-2.91-.75-5.78,2.2-8.71.11-1.27-7.84-.46-15.77-.94-23.66-.56-9.07-.13-18.19-.13-27.29a4.78,4.78,0,0,1,.5-2.76,1.94,1.94,0,0,1,2.53-.47,3,3,0,0,1,.54,1.72c-.41,8.38-.08,16.77-.17,25.14.15,5-.5,10.1.53,15.1,0,3,1,4.31,4.46,4.12,6.6-.36,12.6-2.56,18.62-4.9a3.36,3.36,0,0,0,2.33-4.31,3.15,3.15,0,0,1,.28-1.39A.8.8,0,0,1,123,150.16Z"/><path class="cls-112" d="M128.18,162c2.64.39,2,2.36,1.94,4-.64-1-1.28-2-1.91-3Z"/><path class="cls-205" d="M93,117.05q.1,26,.23,52H92.18l0-18c-1.09-10-.18-20.1-.47-30.14C92,119.59,90.73,117.7,93,117.05Z"/><path class="cls-168" d="M147.16,127c3.61,1.82,7.88,2.71,9.77,6.94-6.7,9.2-14.33,17.47-23.93,23.74-2.75.34-2.78-2.22-3.88-3.63-1-.78-1.85-1.61-1.3-3.05,6.8-3.29,12-8.59,17-14C147.58,134.16,149.89,131.17,147.16,127Z"/><path class="cls-162" d="M140.17,123a10.23,10.23,0,0,1,5,3c1.93,1.34,1.8,2.92.56,4.64a67.44,67.44,0,0,1-17.34,16.56,2.32,2.32,0,0,1-3.15-.16c-.62-1.64-1.23-3.3-3.08-4-3.15-.8-2.45-3.33-2.5-5.52a1.43,1.43,0,0,1,1.11-.83c3.14,3,5.76,1.87,8.44-.85C133.16,131.8,137.39,128,140.17,123Z"/><path class="cls-206" d="M125.24,147c9-4,15-11.06,20.54-18.75.29-.41-.38-1.51-.61-2.29l2,1c4.12,2.74,3.6,5.05.39,8.69a152.06,152.06,0,0,1-15.07,14.44c-1.28,1.1-2.81.84-4.29.86-1.19-.09-1.32-1.35-2.11-1.89A2,2,0,0,1,125.24,147Z"/><path class="cls-207" d="M119.91,137.15l2.25,5.88c-.49,2.46,3.7,4.39.82,7.13a5.42,5.42,0,0,1-.8-.17c-2.25-1.66-2.76-4.52-4.5-6.53a10.51,10.51,0,0,1-1.1-2.41,3.65,3.65,0,0,1,.11-1.94c-.14-3.53-2.72-5.93-4.07-8.9-1.19-2.61-3.8-4.82-2.63-8.21,1.05-.51,1.79.07,2.5.73,1.85,2.89,3.41,6,5.24,8.87C118.41,133.47,119.94,135,119.91,137.15Z"/><path class="cls-208" d="M126.08,149.13c1.15.13,1.61,1,2.11,1.89l.93,3.06C126.48,153.43,126.28,151.28,126.08,149.13Z"/><path class="cls-158" d="M160.1,128.09c-3.23,1.45-5.11-2-7.91-2.17l-1.27-1.76c4.37-2.75,5.14-7.5,6.44-11.89s1.41-8.83,2.3-13.22c.32-1.58.16-3.38,1.83-4.41,2.22.08,4.48-.56,6.64.41.77,4.4-1.07,8.63-.85,13A122.07,122.07,0,0,1,160.1,128.09Z"/><path class="cls-86" d="M114.37,91c11.18.35,22.37.67,33.55,1.06a56.4,56.4,0,0,0,13.23-.91V94a4.91,4.91,0,0,1-3.57,1.4c-8.36,0-16.72.48-25.05-.28-1.23-2.2-3.32-1.73-5.29-1.67-3,0-5.95.14-8.91-.06-1.68-.11-3.82.28-4.24-2.3Z"/><path class="cls-174" d="M131.11,93.77l30,.21c2.29.58,4.9-.9,7,1.07l-7,0a6.62,6.62,0,0,1-4.74,1.3c-1.37,0-2.74,0-4.1,0-1.09,0-2.17,0-3.25,0-1.63,0-3.26,0-4.88,0s-3.3,0-4.94,0q-1.26,0-2.52,0c-2.85,0-5.69.16-8.54,0-4.63-.17-9.28.47-13.9-.2a1.89,1.89,0,0,1-.45-1.66c3-2.94,6.83-1,10.23-1.55C126.41,93.25,128.86,92.53,131.11,93.77Z"/><path class="cls-209" d="M156.16,95l5,.07c-.56,9.09-1.92,18-5.53,26.47-1.15,2.71-2.42,3-4.69,2.6a22.67,22.67,0,0,1-7.78-4.11c7.43.85,7.73-5,9.47-9.78C154.41,105.31,153.86,99.84,156.16,95Z"/><path class="cls-210" d="M140.17,123c-2,8.47-9,12.66-15.23,17.31-2.29,1.72-2.65-1.95-3.79-3.28,1.69-3.56,5.3-5.26,7.92-7.91,2.93-3,5.05-5.88,4.12-10.22A26.8,26.8,0,0,1,140.17,123Z"/><path class="cls-211" d="M133.19,118.91c2.84,3.16,1.77,5.89-.9,8.5-3.52,3.44-6.73,7.23-11.14,9.63l-1.24.11c-1.62-1.3-2.26-3.2-3-5,3.74-2.81,7.9-5.06,10.65-9.12,1.69-2.49,1.53-4.1-1.08-5.48a1.75,1.75,0,0,1-.26-2.57C128.84,115.7,131,117.32,133.19,118.91Z"/><path class="cls-212" d="M156.16,95c.46,8.58-2.45,16.44-5.22,24.33-.75,2.14-1.9,3-4,1.59a5.71,5.71,0,0,0-3.78-.89c-2.18-1.15-4.58-1.94-6.3-3.84,2.31-1.94,4.17.28,6.23.65,2.92.83,3.17-1.53,4-3.28,2.73-5.91,3.42-12.37,5.11-18.56Z"/><path class="cls-213" d="M143.16,118c-2.28,0-3.92-2.23-6.32-1.83a11.46,11.46,0,0,1-5.56-3.21,2.79,2.79,0,0,1,1.29-.71,4.85,4.85,0,0,1,2.17.22c2.44,1.13,3.86.42,4.88-2.15A44,44,0,0,0,142.41,100c.24-1.74.36-3.62,1.75-5h5c1.5,1.73,1.2,3.71.74,5.68-1.13,4.86-1.88,9.82-4,14.38C145.29,116.3,145.29,118.18,143.16,118Z"/><path class="cls-214" d="M124.26,93.78c-3.39.8-7.12-1.11-10.31,1.26-1.37,2.62-3.87,5.21-.13,7.9.37.24.71.5,1.05.77a21.36,21.36,0,0,0,4.37,2.64,4.07,4.07,0,0,1,1.92,1.7l3,3a2,2,0,0,1-1.3,1.57c-4.07.2-6.51-3.33-10-4.39-1.18-.6-2.45-1-3.58-1.72-1.24-1.11-3.18-1.65-3.13-3.82-.19-2.16,1.29-3.85,1.62-5.86s-.55-4.14-.05-6.21l.43-.56c1.49-.63,3.24-3.13,4.07.67.27,1.24,1.19.54,1.88.36,4.57,2,9.39.43,14.06,1C127.81,94.81,125.39,92.84,124.26,93.78Z"/><path class="cls-164" d="M121.16,108.05l-2-1c-.73-.56-1.72-1-1-2.23,1.08-.73,2.41-.92,3.44-1.88,2.5-2.32,2.57-2.25,3.73,1.39,1.61-2.87.71-6.52,2.78-9.28l9,0c-.56,4.52-5.44,14.48-7.77,15.86-1.68-.08-3-1.15-4.49-1.71C123.58,109,122.66,107.55,121.16,108.05Z"/><path class="cls-215" d="M113.15,107.24c3.5,1.27,6,4.39,9.85,5.08a1.15,1.15,0,0,1,1,.82l2.18,1.83a2.1,2.1,0,0,0,.95,2.09c-.95,5.66-5.46,8.66-9.72,11-3.44,1.86-3.27-2.82-4.57-4.72.79-1.72,2.48-2.57,3.75-3.83,4.18-4.19,4.14-4.76-.73-8C114.34,110.5,112,110,113.15,107.24Z"/><path class="cls-189" d="M124.9,109.16l4.26.88c1.05.9,3.47.35,3,2.85l-.88.11C129.05,111.9,126.56,111.21,124.9,109.16Z"/><path class="cls-216" d="M124,113.14l-1-.82,1.17-1.3,2.1,1.71Z"/><path class="cls-175" d="M20.09,59,21.16,60c1.25,3.83-1.28,6.07-3.54,8.43a1.51,1.51,0,0,1-1.4-.39,6.41,6.41,0,0,1,0-1C17.82,64.53,17.69,61.14,20.09,59Z"/><path class="cls-217" d="M16.22,68.07l1.12,0c1.74,3,1.13,5.66-1.37,8-.62.21-1.25,1.08-1.84,0,0-1-.07-2-.11-3Q15.13,70.53,16.22,68.07Z"/><path class="cls-218" d="M16,76.06c.59-2.64,1.86-5.15,1.37-8,1.09-2.77,3.29-5,3.82-8.06l1-2.15c1.75-2.31,3.52-1.7,5.28,0A6.85,6.85,0,0,1,27,60.19c-4,8.71-7,17.71-7.62,27.37a4.13,4.13,0,0,1-1.06,2.7A2.41,2.41,0,0,1,16,90.15c-1-4.05.37-8.09.12-12.13C16.06,77.36,16,76.71,16,76.06Z"/><path class="cls-219" d="M92.16,120v31c-.3,0-.61,0-.91,0q0-15.49,0-31C91.55,119.59,91.86,119.59,92.16,120Z"/><path class="cls-220" d="M17.41,115.77,15.16,102c-.52-.69-.35-1.52-.49-2.29-.78-4.3,1-6,5.21-5.17a2.76,2.76,0,0,1,1.54.36c2.06,1.87,1.93,4.41,2.06,6.87a74.88,74.88,0,0,0,2.83,15.5c.92,3.43,2.66,6,6.55,6.32,1.16,2-.77,1.87-1.72,2.42-2.85,0-4.78,3.47-8,2.12-2.54-2.11-2.05-5.68-3.92-8.11C18.62,118.62,18,117.2,17.41,115.77Z"/><path class="cls-136" d="M31.14,126l2-2a6.52,6.52,0,0,1,3-2.52c1.53-.64,3.3-.82,4.36-2.33,1.62-1.51,3.64-2.42,5.4-3.74,1.8-.88,3.46-2,5.24-2.93a2.44,2.44,0,0,1,2,.22c1.36,1.74-1.85,2.85-.64,4.58-.15,1.22-1.12,1.74-2,2.33-1.76.76-3.11,2.54-5.32,2.18a2.16,2.16,0,0,0-2,1.14,22.23,22.23,0,0,0-7,4.08l-3,.89c0-1.8-1-1.34-2-.92A8.29,8.29,0,0,0,31.14,126Z"/><path class="cls-221" d="M15.2,119c-.08-1.92-1.74-2.25-3-3,0-1,0-2,0-3,1.55-.07,1.93,1.38,2.82,2.17l1.12,1.91,0,2C15.86,119,15.53,119,15.2,119Z"/><path class="cls-222" d="M67.12,93.86a2.53,2.53,0,0,1,2.19,3c-5.64-.17-11.27-.59-16.92-.45-1.71,0-3.41.09-5.12,0-2.26.06-4.51,0-6.77,0a31.2,31.2,0,0,1-3.35,0c-1.68,0-3.35,0-5,0s-3.39,0-5.08,0c-2,0-4.07.12-5.83-1.19l-.1-.36c-.28-.23-.34-.42-.21-.56a.55.55,0,0,1,.37-.17L23.15,94c3.83-2.52,8.14-.83,12.19-1.39C46,92.09,56.51,93.71,67.12,93.86Z"/><path class="cls-223" d="M16.18,90l2,0a4.53,4.53,0,0,1,2.07-1.1,16,16,0,0,1,3.17-.19c3.69.51,7.41.83,11.07,1.59a1.65,1.65,0,0,1,.95,1.3,1.91,1.91,0,0,1-1.16,1.18c-5.87,1.13-11.44-.75-17.11-1.67L14.24,91c.23-3.66-.9-7.42.83-11C17.61,83.11,15.11,86.75,16.18,90Z"/><path class="cls-139" d="M17.17,91.15c6,0,11.91,1.65,17.94.81a1.33,1.33,0,0,1,.08,2l-12,.07C22.13,91,18.76,93,17.17,91.15Z"/><path class="cls-223" d="M21.28,94.16c-.06.24-.11.49-.16.73-6.29-1.22-6.15,2.94-6,7.13C12.69,94.87,13.52,93.82,21.28,94.16Z"/><path class="cls-224" d="M16.18,90c-2.26-3.12-.26-6.71-1.11-10l1-2C18.25,82,17.08,86,16.18,90Z"/><path class="cls-225" d="M151.29,44a41,41,0,0,1-10-10.09A26.65,26.65,0,0,1,151.29,44Z"/><path class="cls-225" d="M141.27,33.93c-4.19-.15-6-5.21-10.35-5-.34-.69-.38-1.3.42-1.7,1.37-.35,2.46.37,3.58.93C136.75,30.39,139.83,31.26,141.27,33.93Z"/><path class="cls-147" d="M131.34,27.2l-.42,1.7A10,10,0,0,0,128.08,34l-2,1.95c0-.49.15-1.1-.09-1.44-1.09-1.63-1.09.24-1.35.56-2.81,3.45-3.73,8.28-7.83,10.82a3.42,3.42,0,0,1-.42-3.34c1.08-1.76,3.15-2.94,3.18-5.33a7.08,7.08,0,0,1,1.12-2.31,7.66,7.66,0,0,1,.92-.88,9.21,9.21,0,0,0,2-2.37c1-1,1.41-2.8,3.33-2.67,1.71-.29,1.88-2.19,3.12-3Z"/><path class="cls-154" d="M93.28,15.13c-1.43-1-1.4-2.05-.09-3.14l12.08,3a4,4,0,0,1-2.56,1.93A15,15,0,0,1,93.28,15.13Z"/><path class="cls-77" d="M105.16,8.08c-2.12,1.9-4.7.55-7,1-.83-.41-.92-1.19-1-2A19.59,19.59,0,0,1,105.16,8.08Z"/><path class="cls-68" d="M107.15,11.07l3,0,3,1.07C110.76,14.14,109,12.62,107.15,11.07Z"/><path class="cls-226" d="M103.15,15.88l2.12-.9,3.88.1c-.76,1.19-2.07.81-3.14,1.1A1.88,1.88,0,0,1,103.15,15.88Z"/><path class="cls-227" d="M103.15,15.88l2.86.3a108.55,108.55,0,0,1,20,7.09c3,1.45,1.56,3.67,1,5.75l-2.75,3.21c.72-6.23-4.09-7.29-8.32-8.61a44.64,44.64,0,0,0-10.55-2.34,11.76,11.76,0,0,1-2-.35c-2.5-.52-5-1.52-7.42.29,0,.38,0,.76,0,1.14a5.67,5.67,0,0,1-.18,1.74,17,17,0,0,0-.38,1.75c0,.63,0,1.26,0,1.89s.07,1.37.1,2.07c0,2,.52,4,.41,6.07-1,6.19.64,12.53-1,18.68a1.1,1.1,0,0,1-1.47.52q0-20,0-39.95C96.68,14,99.79,16.59,103.15,15.88Z"/><path class="cls-157" d="M107.15,103c-.38,1.87,2.6,1.39,2.27,3.24l-.27.64c-1,2.36-5.74,3.19-2.87,7.1a11,11,0,0,1,.7,1.12,28.85,28.85,0,0,0,2.57,4.48,3.87,3.87,0,0,1,.6,2.48c1.56,5.72,5.23,10.34,8.06,15.39,1.49,2.67-.21,1.81-1.45,1.74a2.53,2.53,0,0,1-2.22-1.19c-.81-1.27-1.37-2.67-2.16-4-.81-1.48-1.9-2.83-2.25-4.55a6.71,6.71,0,0,0-1.78-3.76,6.16,6.16,0,0,1-1-1.55,9.41,9.41,0,0,0-2.24-3.69,19.53,19.53,0,0,1-3.25-4.9c-2-2.49-4.79-.8-7.17-1.22-1.79-.85-3.22-.25-4.45,1.12a6.69,6.69,0,0,1-3.23.94c-3.19-1.63-5.65-.67-7.59,2.14a6.89,6.89,0,0,1-1,1c-1.17.77-2.23,1-3-.58a4.93,4.93,0,0,1-.11-2.87,4.69,4.69,0,0,1,1-1.83c3.1-3.94-.32-5.19-2.82-6.81-2.68-.33-4.64,1.45-6.89,2.36a5.16,5.16,0,0,1-3.35.86,1.81,1.81,0,0,1-1.42-1.42,4,4,0,0,1,1.45-2.39,7.66,7.66,0,0,1,1.14-.82c2.53-.74,4.49-3.53,7.62-2.11l3.07-2c2-.69,3.3.61,4.28,1.81,3,3.74,6.7,3.79,10.77,2.22a10.09,10.09,0,0,1,5.51-1c3.4,1.74,6.53,1.66,9.21-1.38a5.1,5.1,0,0,1,1-.88A1,1,0,0,1,107.15,103Z"/><path class="cls-228" d="M52.18,95.18c4.14-.06,8.28,0,12.4-.22a5.56,5.56,0,0,1,4.73,2c.31.71.61,1.42.91,2.13,1.52,2.56.76,4.36-1.82,5.58-1.49.71-2.89,1.58-4.39,2.27l0,0c-1.94,1.59-3.78,3.4-6.55,3.39A4.62,4.62,0,0,1,52.38,106C51.81,102.44,49.71,98.83,52.18,95.18Z"/><path class="cls-229" d="M113.18,51.1a9.44,9.44,0,0,1-3,5.07,20.38,20.38,0,0,0-10.12-4.32c-1.85-.29-4-.24-5.29-2A49.5,49.5,0,0,1,94.68,44c0-5.82,0-5.82,5.93-5.19a8.2,8.2,0,0,1,1.48.36c5,.43,6.72,5.32,10.45,7.52C114.06,47.59,114.05,49.46,113.18,51.1Z"/><path class="cls-230" d="M69.05,81.43l.86.71c3,1.51.45,3.26.22,4.91l-1,2c-2.55,3.68-6.35,1.39-9.53,2-1.75-.33-3.44-1.24-5.32-.68a2.37,2.37,0,0,1-1-1.14,14,14,0,0,1,.55-8.82c1.6-4.37,3.33-4.93,7.45-2.5a17.69,17.69,0,0,0,3.61,1.68C66.57,79.57,68.12,79.83,69.05,81.43Z"/><path class="cls-211" d="M102.16,40.06c-7-.13-7-.13-7,7.08,0,1,0,2,0,2.92,1.38,1.52,1.42,3.4,1.42,5.29-.26,4.62,1.26,9.41-1.35,13.79-1.45.13-1.58-.88-1.54-1.89.17-4.08-.48-8.18.35-12.25.67-6.64-.93-13.41,1-20,3.17-2.33,6.35-.64,9.53,0,2,.8,4.17,1.09,5.48,3.09.46.7-2.34,1.25.24,2.09,7.11,2.32,7,2.49,4,9.27a1.68,1.68,0,0,1-1.1,1.67c0-1.52-.05-3.3-1.52-3.91-3.83-1.57-5.24-6.24-9.5-7.13.39-.44.34-1-.09-1.21-.28-.12-.31.16.14.34C102.47,39.3,102.39,39.76,102.16,40.06Z"/><path class="cls-182" d="M95.11,69.1l.06-14c4.58-1.65,7.86,1.16,11.33,3.29.43.26.89.78.78,1.19-.92,3.6-3.31,6.45-5.06,9.62-1,1.79-2.75,1.55-4.43,1L95.18,70c-.36-.19-.48-.39-.39-.6S95,69.1,95.11,69.1Z"/><path class="cls-231" d="M134.14,64c-2.74-4.61-6.94-7.89-10.57-11.7-2.79-2.94-4.57-.24-6.74.63a21.77,21.77,0,0,1,4.47-6.88,3.12,3.12,0,0,1,1.25-.8c6.19,1.44,15.81,11.78,15.59,16.75C136.76,62.61,135.89,64.2,134.14,64Z"/><path class="cls-232" d="M78.16,99a25.65,25.65,0,0,0,6-9A4,4,0,0,1,85,87.22c2-2.87,5-3.59,8.24-3.48a14.23,14.23,0,0,1,1.6,0c2.22.27,4.36.62,3.92,3.7-2.41,2-5.5,1.72-8.32,2.36-2.1.48-5.15,5.42-4.55,7.36.29.94,1.13,1.12,1.93,1.37,4.78,1.45,9-.48,11.17-5.17a3.35,3.35,0,0,1,1.59-1.84c5,.92,4.73.77,2.1,5.45-1.25,2.22-1,5.65-4.68,5.25-6.53-.72-13.61,2.8-19.57-2.42Z"/><path class="cls-161" d="M97.79,70.17c2.41-.48,8.77-7.94,8.7-10.06,0-1-.78-.83-1.25-1.18-3-2.18-6.52-3.1-10.07-3.87v-5c3.78-.11,7.37.93,11,1.85,2.28.58,3.78,1.82,4.06,4.26-1.51,4.54-4.67,8.18-6.68,12.43C102.14,71.54,100.35,72,97.79,70.17Z"/><path class="cls-233" d="M94.16,85h-1c-2.67-2.68-5.1-1.75-8,3.06l-1,2h-1l-.42-.55c0-.22-.06-.45-.1-.67,1-3.81-1.41-6.26-3.56-8.8,3.51-2,6.15-5.37,10.59-5.79,3.32-.31,6.33-.33,8.46,2.73-.14.17-.27.35-.4.52-1,.71-2.3,1.16-2.2,2.73.11,1,1,1.74.79,2.81C95.92,84,94.78,84.23,94.16,85Z"/><path class="cls-234" d="M65.37,80A31.73,31.73,0,0,1,62,79.12c-5.65-2.08-7.15-1.18-7.78,5a60,60,0,0,0-.06,6c-1.81,1.58-3.77,1.41-5.79.48-1.57-3.62.45-13.86,3.19-16.23,2.29-2,4.39,0,6.57.3a7.15,7.15,0,0,1,3.92,2.72l2.81,1.79A.56.56,0,0,1,65.37,80Z"/><path class="cls-235" d="M35.19,93.93c0-.65-.06-1.31-.08-2a4.56,4.56,0,0,1,.24-.71c2.69-2.83,5.91-1.06,8.87-.87,7.35.46,14.69-.13,22,.18,1,0,2-.21,2.87.42-4.74,2.58-10,0-15.21,1.57C58.43,94,63,91.83,67.12,93.86Z"/><path class="cls-236" d="M83.11,89c0,.36.08.73.13,1.09a10.13,10.13,0,0,0-4.74,4.78c-4.89-7.08-4.89-7.08.66-14.8,4.77,2.15,5.78,4.44,4,8.93-1.16-1-1.93-2.84-4.4-1.88C79.91,88.74,82.1,87.67,83.11,89Z"/><path class="cls-237" d="M90.15,107c-4.18,2-8,2.42-11.15-2-.9-1.26-2.54-2-3.85-3-.55-1.31-1.65-2.69-.27-4s2.11.87,3.28,1h0c1.9,2.4,4.73,3.16,7.37,4.25C85.9,106,90.34,103.63,90.15,107Z"/><path class="cls-238" d="M114.28,49.43c2.21-4.9-.1-6.92-4.59-8.63-1.52-.58-2-4-4.53-4.74,5.28-2.28,9,1.11,13,3.58.83,1.24-.53,1.84-.81,2.76-.15,1.17-.31,2.35-.46,3.52Z"/><path class="cls-223" d="M69.12,91c-11.26.24-22.51.83-33.78.27-.13-.16-.26-.31-.4-.46a1.23,1.23,0,0,1,.63-1.32,7.35,7.35,0,0,1,3.09-.7c1.61-.09,3.22-.07,4.84-.07a6.09,6.09,0,0,1,4.67,1.39h7a2.08,2.08,0,0,1,3,0c3.68-.1,7.52,1.44,11-1.09Z"/><path class="cls-239" d="M105.15,81.06c1.94,2.68,4.57,5.12,3,9h0c-3.76,3.2-5.33,3-8-.77,5.84-1.48,2.69-5.45,2.39-8.64A2.44,2.44,0,0,1,105.15,81.06Z"/><path class="cls-240" d="M62.06,77.37l-3.52-1.46A32.76,32.76,0,0,1,53.19,73,2.07,2.07,0,0,1,52,71.5c.65-1.5,2.08-1.41,3.35-1.65l0,0c.81,1.48,2.55,1.41,3.75,2.23,1.53,1.26,4.06.83,5.06,3C62.29,74.85,61.32,75.36,62.06,77.37Z"/><path class="cls-241" d="M64,106.89c1.75-2.87,7.7-2.41,6.21-7.85,2.23,1,2.07,3,1.86,5C69.16,104.31,67.13,107.11,64,106.89Z"/><path class="cls-233" d="M105.15,81.06h-3c-2.78.15-4-1.26-4-4l.08-.09C101.11,77.35,104,77.67,105.15,81.06Z"/><path class="cls-242" d="M95.11,69.1c0,.31,0,.62.07.93a1.79,1.79,0,0,1-2.1-1l.24-14c.25,0,.49,0,.73-.08C94.76,59.67,93.09,64.52,95.11,69.1Z"/><path class="cls-164" d="M112,61.87c-.55,2.88-1.12,5.74-4.24,7.07C108.84,66.37,109.85,63.77,112,61.87Z"/><path class="cls-240" d="M70.13,87.05c-.55-1.61,1.32-3.34-.22-4.91C74.26,83.58,71.07,85.37,70.13,87.05Z"/><path class="cls-162" d="M122.17,46.07h-.87a4.57,4.57,0,0,1,1.9-4l.18.19C124.49,44,123.59,45.13,122.17,46.07Z"/><path class="cls-240" d="M65.37,80a1.65,1.65,0,0,0-.5-.8c1.92-.2,3.67-.12,4.18,2.27Z"/><path class="cls-240" d="M67.16,77c1.86-.41,3,.54,3.85,2A5.25,5.25,0,0,1,67.16,77Z"/><path class="cls-243" d="M122.17,46.07c.4-1.26.8-2.52,1.21-3.78,8.57,2.24,13.8,8.74,18.55,15.39,1.85,2.6-2.58,2.76-3.79,4.35C135,54.48,128.67,50.21,122.17,46.07Z"/><path class="cls-244" d="M165.13,90h-4c-1.61-2.76-.91-5.8-.93-8.72,0-4.43.05-8.86-1-13.2,3.6,3.85,3.51,9,4.86,13.68C164.78,84.36,164.78,87.21,165.13,90Z"/><path class="cls-189" d="M43.16,62.09c2.63-7.79,9.06-12.18,15.22-16.71,3.11-2.3,2.53,1.73,3.79,2.67.62,2.09-1,2.92-2.26,3.87-2.61,2-4.67,4.58-7.17,6.66-2.9,2.41-2.92,4.78-.55,7.45a2.82,2.82,0,0,1,1.88,2.3C50,67,46.64,64.44,43.16,62.09Z"/><path class="cls-245" d="M38.17,90.06l-2.86.07a2,2,0,0,1-2.42,0A5.89,5.89,0,0,1,32,85.3a61.45,61.45,0,0,1,5-16.66c.87-1.8,1.87-3.72,4.52-2.72q2.51,1.5,5,3c-3.62,3.3-4.63,7.79-5.69,12.29C40.09,84.19,40.19,87.45,38.17,90.06Z"/><path class="cls-246" d="M38.17,90.06A57.72,57.72,0,0,1,41.9,72.65c.79-2.13,1.86-4,4.58-3.75L52,71.5c.38.29.75.59,1.12.89-6.43,1.68-6.77,7.22-7.84,12.32-.41,1.9-.62,3.9-2.09,5.4Z"/><path class="cls-247" d="M33.25,89.89l2.06.24a3.58,3.58,0,0,1-.37.66l-11.8-.65c-1.84-3-2.06-6,0-9,2.91.05,1.1,1.87,1.31,3.11,1.81-8.12,3.44-16.28,8.72-23a17.54,17.54,0,0,1,6.32,3.7,2.25,2.25,0,0,1-1.77,1c-2.37-.12-3.1,1.71-3.64,3.4-.91,2.84-2.34,5.47-3.12,8.34-.59,1.72-.37,3.59-.91,5.3C29,86.26,29.87,88.62,33.25,89.89Z"/><path class="cls-248" d="M37.19,65l2.29-.14a2,2,0,0,1,2,1c-2,.11-2.72,1.7-3.3,3.21-2.59,6.69-5.4,13.34-4.91,20.76-4.86,1.08-6-1.68-4.84-5.43.74-2.46-.14-5.28,1.76-7.41,1.61,1.44.38,3.12.4,4.62C31.64,75.72,32.79,69.74,37.19,65Z"/><path class="cls-249" d="M24.16,81c-2,2.86-.55,6.09-1,9.11l-3-.09c-1.61-2.25-1.18-4.73-.59-7.11,1.6-6.36,3-12.79,6-18.74.78-1.57,1.77-3.26.64-5.13l1.22-1.2a10.81,10.81,0,0,1,5,3C29.77,66.42,27.07,72,25.86,78.15A4.32,4.32,0,0,1,24.16,81Z"/><path class="cls-250" d="M59,41.22c-7.33,5.44-13.61,12-19.76,18.64l-1.13-.74c0-.35.06-.71.1-1.07,5.26-5.67,10.22-11.64,16.57-16.23C56.23,40.78,57.34,39.6,59,41.22Z"/><path class="cls-251" d="M24.16,81c.71-6,3.06-11.51,5.18-17.08a6,6,0,0,1,3.1-3.12.86.86,0,0,1,.72.36c-2.66,8-6.31,15.6-8.23,24.15C23.67,83.8,24.42,82.34,24.16,81Z"/><path class="cls-252" d="M56.08,36.24c-1.31,3.31-4.8,4.25-7.1,6.48A114.61,114.61,0,0,0,36.16,57c-.9-.47-2-1.07-1.15-2.2,5.53-7.28,11.68-13.92,19.61-18.68C55,36,55.59,36.2,56.08,36.24Z"/><path class="cls-213" d="M66.15,42.08c-3.62-5.42-3.64-5.48,2-8s11.75-3.3,17.65-4.87c.94-.25,2.17.56,3.26.87-.29,1.65-.58,3.31-.86,5-7-1-13.26,1.88-19.55,4.33C67.41,39.86,66.19,40.45,66.15,42.08Z"/><path class="cls-253" d="M87.15,70c-2-.38-4,2.59-6,0a36.43,36.43,0,0,0-4.13-8.77c-2-2.84-1.06-3.93,1.32-4.6,3.3-.92,6.69-3.25,10.17-.35.47,2.91-.47,5.91.59,8.77C89.63,67.18,88.19,68.53,87.15,70Z"/><path class="cls-177" d="M88.17,22.07c-10.57.2-20.26,3.72-29.77,7.9a2.18,2.18,0,0,1,1.13-2.53c8.5-4.16,17.16-7.79,26.91-7.37C87.51,20.12,89.61,19.67,88.17,22.07Z"/><path class="cls-183" d="M89.13,65.06c-1.9-2.83-.51-6-1-9a4.43,4.43,0,0,1,0-6c0-3.67,0-7.33,0-11,2.15,3.36.78,7.07,1,10.6C89.39,54.78,89.15,59.92,89.13,65.06Z"/><path class="cls-254" d="M88.16,50.05v6c-4-.16-7.74,1.05-11.56,2.49,3.55,3.2,3.27,7.64,4.58,11.47l-3.77-5.16-4.25-8.79c.37-3.44,3.44-3.92,5.76-4.64C81.86,50.51,85.07,50.47,88.16,50.05Z"/><path class="cls-255" d="M52.19,66c-5-3.46-5-3.5-.7-7.78,3.51-3.45,7.11-6.8,10.68-10.2a2.37,2.37,0,0,1,.91.21q1,2.41,2.08,4.81C60,56.57,55,60.23,52.19,66Z"/><path class="cls-175" d="M59,72.06c-1.72,0-3.28-.17-3.75-2.23C56.67,70.32,58.25,70.52,59,72.06Z"/><path class="cls-256" d="M61.23,34c-1.19-1.89.48-2.23,1.58-2.77a65,65,0,0,1,21.35-6.18c1.15.26,2.64-.59,3.71,1.53C78.39,27.44,69.93,31.12,61.23,34Z"/><path class="cls-257" d="M31.42,130.13c5.55,2.31,7.45,7.6,10,12.34l-1.28.56C37.24,138.74,32.13,135.92,31.42,130.13Z"/><path class="cls-136" d="M31.54,129.17a8.2,8.2,0,0,0-.46.82c-1.27.45-2.4,1.4-3.89,1.12A4.67,4.67,0,0,1,31.54,129.17Z"/><path class="cls-165" d="M62.24,147.33c1.6-2.21,1.52-5.36,4-7.08,2.27,6.37,11.2,11.33,18.38,10.29,2.75-.39,2-2.47,2.2-4.16.06-2.2-.36-4.5,1.39-6.33a.91.91,0,0,1,1.39.53c-.12,4.82.56,9.67-.41,14.46,0,.66,0,1.31-.05,2l-1,1c-7.07-.66-13.78-2.83-20.35-5.34C65.4,151.77,62.3,151,62.24,147.33Z"/><path class="cls-198" d="M89.18,155q0-7.53-.08-15c-2.41-6.36-1.42-12.83-.66-19.29A1.25,1.25,0,0,1,90,120q0,17.51.08,35Z"/><path class="cls-258" d="M90.07,115.24c.68-2.63,1.55-4.62,4.08-1.25-.06.57-.67.8-.83,1.32s-.21,1.16-.31,1.74c-1,.79-.8,1.93-.85,3l-.93,0c-.18-1,0-2.21-1-3A1.18,1.18,0,0,1,90.07,115.24Z"/><path class="cls-165" d="M90.07,115.24c.06.59.13,1.18.19,1.77-.09,1-.18,2-.28,3-.24.05-.48.09-.73.12-1.19-.73-1.22-2.2-2-3.18a2.21,2.21,0,0,1-.37-1.2C87.71,114.15,89,115.16,90.07,115.24Z"/><path class="cls-259" d="M45.13,121.84a14.2,14.2,0,0,1,5-2.9c.32,4.42,7.18,13.25,11.06,14.63,2.25.81,3-2.77,5.25-1.42.57,2.61-.33,4.34-3,5-3,2.74-5.19,2.34-8.56-.37-3.83-3.09-6.17-7.28-9.78-10.39C43.47,125,44.61,123.36,45.13,121.84Z"/><path class="cls-260" d="M63.46,137.16c1.68-1.28,2.28-3.21,3-5,.62-3.36,2.93-6,4-9.11,1.38-2,2.45-4.29,3.79-6.36a1.67,1.67,0,0,1,1.8-.69l0,3.07c.43,2.6-3.13,4.28-1.64,7.12a3.14,3.14,0,0,1-.5,3c-.44.74-.87,1.49-1.28,2.25a75.46,75.46,0,0,1-4.23,6.65,1.29,1.29,0,0,1-1.26.07c-.35-.36.13-2.14-1.16-.85s-2.19,3.19-4.32,3.54C62.33,139.63,62.89,138.39,63.46,137.16Z"/><path class="cls-243" d="M67.24,138.17a2.37,2.37,0,0,1,.86-.29c2.46,4.42,7.11,4.86,11.27,6.16,3,.92,6.35.55,8.78,3,.67,4.85-1.61,5.69-5.83,4.62-3.51-.88-7.15-1.2-10.57-2.57-4.07-1.62-7.23-3.66-5.52-8.83C66.56,139.56,66.9,138.87,67.24,138.17Z"/><path class="cls-261" d="M103,115.39c-.07,2.14,2,3.08,2.67,4.8,1.48.45.89,1.92,1.41,2.85.57,2.25,1.34,4.76-1.55,5.86-3.46,1.32-7,4.16-10.79.72.16-4.52-.64-9.07.43-13.57a2.74,2.74,0,0,0,.06-.9C97.86,113.93,100.53,111.68,103,115.39Z"/><path class="cls-262" d="M122.1,151c2.41,3.09,1.34,4.79-2.07,6.14-7.24,2.88-14.56,5.07-22.44,5.28-4.2.1-1.71-2.9-2.43-4.39,2.16-1.87,4.93-1.81,7.5-2.31a63.5,63.5,0,0,0,13.82-4.11C118.25,150.84,120.06,149.65,122.1,151Z"/><path class="cls-263" d="M122.1,151c-8.71,3.36-17.41,6.79-26.94,7-1.91-5.27-.65-10.71-.9-16.07a1.08,1.08,0,0,1,1.3.23,4.55,4.55,0,0,1,.72,2.08c.11,1,.12,1.93.14,2.9s0,1.87.06,2.8c1,4.19,4.55,2.14,6.48,1.92a40.89,40.89,0,0,0,12.11-3.85c2.51-1.14,1.85-3.63,3.16-5.17a17.65,17.65,0,0,1,4,7.11C122.15,150.33,122.13,150.67,122.1,151Z"/><path class="cls-259" d="M95.15,142.05a6.69,6.69,0,0,1-.89-.08c0-7.27-.11-14.53-.11-21.8,0-1.43-.44-3,1-4.12q0,7,0,14c1.29,1.48,1.42,3.28,1.39,5.12C96.54,137.54,97,140,95.15,142.05Z"/><path class="cls-264" d="M103,115.39c-2.49-3.24-5.18-.16-7.77-.24l-1.91.16c.27-.44.55-.88.83-1.32C97.25,113.54,100.77,110.44,103,115.39Z"/><path class="cls-170" d="M113.16,123c2.71,5.31,2.65,5.24,7.36,1.21a45.05,45.05,0,0,0,6.62-7.19c3.53.92,5,2.18,2,5.73-3.44,4.07-6.37,8.55-12.24,9.35a29.8,29.8,0,0,1-4.88-8.87l.21-.48A1,1,0,0,1,113.16,123Z"/><path class="cls-251" d="M118.23,142.88c1,3.2.66,4.94-3.16,6.57a52.86,52.86,0,0,1-17.54,4.34c-3.24.21-2.07-2.2-2.35-3.76,2.67-1.93,5.89-1.81,8.93-2.25,5.2-.75,9.82-2.45,13.08-6.83Z"/><path class="cls-265" d="M117.19,141c-.37,6.67-6.44,6.27-10.44,7.78-3.52,1.33-7.69.93-11.58,1.3v-3c4.64-3.63,10.64-3,15.83-4.92,2.18-.82,4.29-1.09,4.15-4l1.61,1.14C116.9,139.8,117.05,140.38,117.19,141Z"/><path class="cls-215" d="M110.15,122.09,109.06,120c-.47-1.34-2.13-2.42-.94-4.14,3.84.87,4.81,3.44,4.14,7l-.27.39Z"/><path class="cls-157" d="M124.26,93.78c1-1.27,3-.14,3.89-1.72.89.74,3.58-1.65,3,1.71Z"/><path class="cls-266" d="M128.16,95c.38,3.37-.5,6.57-1.48,9.71-.31,1,0,3.21-2,2.73-1.83-.44-1.11-2-.7-3.28a4.61,4.61,0,0,0-.06-2.2c-1.2,2.73-2.77,4.57-5.91,3.12-1.7.94-2.65-.39-3.76-1.24l.09,0c-3.35-2.56-3.32-5.17-.09-7.81C118.7,93.44,123.51,95.31,128.16,95Z"/><path class="cls-189" d="M144.16,95c.1,6.45-1.71,12.54-4.19,18.34-1.55,3.61-3.91,1-5.81-.3a104.43,104.43,0,0,1,5-18Z"/><path class="cls-267" d="M139.16,95a35.72,35.72,0,0,1-5,18l-2-.15-3-2.85c2.55-.27,2.49-2.6,2.78-4.16.79-4.14,1.56-8.16,5.22-10.87Z"/><path class="cls-268" d="M143.16,118a68.15,68.15,0,0,0,6-23h3c1.28,5.6-1.29,10.62-2.66,15.76a20.59,20.59,0,0,1-1.68,5C147,117.18,146.15,120.41,143.16,118Z"/><path class="cls-269" d="M114.23,96.11c-.81,2.61-2.34,5.24.09,7.81C109,101.72,108.86,99,114,95,114,95.4,114.14,95.75,114.23,96.11Z"/><path class="cls-270" d="M112.26,122.88c-1.06-2.5-1.39-5.48-4.38-6.73a1.79,1.79,0,0,1-1.69-1.16l0,0c-4-4.8,1.49-6.06,3.24-8.71l0,0a5.56,5.56,0,0,1,3.73,1c.55,3.69,4.44,3.45,6.56,5.31s2.21,3.14.57,4.72c-2.2,2.11-3.67,5.19-7.12,5.77A3,3,0,0,1,112.26,122.88Z"/><path class="cls-157" d="M100.19,89c2.21,3.82,5.14,2,8,1,.59,2.31,1.35,4.6,1,7-2.59.91-5.22,1.48-6.2,4.82-.83,2.85-3.58,1.38-5.56,1.55a60.7,60.7,0,0,0-12.2.6c-2.66-1.22-5.76-1.81-7-5,6.63,4.23,14,1.11,20.9,1.94a1.69,1.69,0,0,0,2-2.23c-1.25-3.42,1.53-3.54,3.68-4.18a6.11,6.11,0,0,0-4.53-2.52c-1.54.56-2-.46-2.34-1.62a2.14,2.14,0,0,1,1.1-1.62l.67-.1Z"/><path class="cls-271" d="M98.16,102c1.67.1,3.68,1.91,4.23-1.77s3.33-4.57,6.74-3.19c0,2.2-2.58,3.54-2,6h-1c-.68-.47-.81-1.31-1.29-1.91,0,0-.23.11-.25.32-.09,1.1.85,1.23,1.54,1.59-2.46,4.77-5.69,5.74-10,3C95.82,104.19,97.69,103.47,98.16,102Z"/><path class="cls-272" d="M114.23,103.88l3.76,1.24,1.22,1.92C117.12,106.66,115.11,106.16,114.23,103.88Z"/><path class="cls-273" d="M26.2,59.07c3.63,1.39,1.5,3.59.7,5.5-3.41,8.19-6.84,16.37-6.73,25.48h-2C18,79,21.43,68.85,26.2,59.07Z"/><path class="cls-200" d="M21.22,95.25l6-.07c1.6,1.79,1.23,4,1.27,6.11a47.55,47.55,0,0,0,3,14.91,7.67,7.67,0,0,0,4,4.79,3.1,3.1,0,0,1,1.08,1.08,4.74,4.74,0,0,1-3.34,2c-5.51.77-7.57-1.14-8.94-8.9C23.07,108.54,22.21,101.88,21.22,95.25Z"/><path class="cls-274" d="M71.44,123.14c-1.08,3.31-2.3,6.54-4.94,9-1.3.18-1.92,1.12-2.5,2.17-.94,1.69-2.14,1.91-3.56.49-3.71-3.72-7.4-7.45-11.15-11.14-2.1-2.06.49-3.16.86-4.71l2.23-1.79a1.41,1.41,0,0,1,1.9-.25c.63,6.26,6,7.77,10.37,10.2,2.34,1.3,2.51-1.3,3.46-2.43a4.41,4.41,0,0,1,2-2A1.53,1.53,0,0,1,71.44,123.14Z"/><path class="cls-275" d="M32.2,95.19h5c2.63,4.06,1.07,8.91,2.55,13.33,1.3,3.89,2.51,6.85,6.76,7.69-1.24,2-3.91,2-5.36,3.77a4.49,4.49,0,0,1-2.42,1,3.41,3.41,0,0,1-3.64-2c-3-6.87-4.75-14-4-21.59A3.68,3.68,0,0,1,32.2,95.19Z"/><path class="cls-276" d="M46.5,116.21c-6,1-5.73.5-7.55-5.57-1.56-5.2-1.76-10.24-1.76-15.46l3,0c4,3.13,3.33,8,4.44,12.15.68,2.59.62,6,5,4.87a2.24,2.24,0,0,1,1.87,1A10,10,0,0,1,46.5,116.21Z"/><path class="cls-277" d="M51.53,113.23,49.18,113c-3.14-5.67-4.56-11.54-2-17.86l5,0c.4,3.35.72,6.72,1.22,10.06.42,2.76,1.94,4.35,5,3.9a1.49,1.49,0,0,1,0,1.27,6.28,6.28,0,0,1-5.22,2.48Z"/><path class="cls-278" d="M53.13,112.89,58,110c1.41-.3,2.69-1.26,4.25-.84l1.13,1c-1.78,4-5.25,5.67-9.25,6.57l-1.71.45C51,116.38,51,116.38,53.13,112.89Z"/><path class="cls-279" d="M39.21,120.06l1.93-.08c-.9,2.11-2.67,2.3-4.62,2.09l-.29,0h-.3C35.92,119.6,38.41,121.2,39.21,120.06Z"/><path class="cls-280" d="M39.21,120.06l-3.28,2c-3.57.58-4.49-2.09-5.45-4.56a50.8,50.8,0,0,1-3.26-22.34h5a54.27,54.27,0,0,0,3.4,21.74C36.25,118.71,36.79,120.41,39.21,120.06Z"/><path class="cls-281" d="M47.18,95.16c-.33,6.07,1.18,11.93,2,17.86-2.68,2.56-3.91,1.57-4.84-1.65C42.8,106,42.82,100.28,40.23,95.2Z"/><path class="cls-282" d="M118.14,40.06c-4.42-1-8.11-4.44-13-4-3.41.09-6.64-1.56-10.1-1.05-1-1.87-.94-3.88-.78-5.9a4,4,0,0,1,3.11-1.3c8.59.64,16.89,2.25,24.1,7.38L121,37.4C119.09,37.28,120.53,40.7,118.14,40.06Z"/><path class="cls-242" d="M105.16,20.07c6.5.48,12.49,2.7,18.44,5.18,4.8,2-.17,4.71.66,7a3.25,3.25,0,0,1-2.1,2.8c-1-3.22-3.18-5-6.43-6-4.25-1.28-8.45-2.62-12.91-3a13.82,13.82,0,0,1-1.42-.31c-2-.81-4.58.21-6.3-1.74l.06-1.93c2-1.9,4.31-1,6.57-.71,4.4.56,8.72,1.57,13,2.47C111.63,22.41,107.42,23.77,105.16,20.07Z"/><path class="cls-199" d="M102.16,25.06c6.28-.26,11.9,2.12,17.61,4.25,3,1.13,3.51,3,2.39,5.72l-.31.19-.36,0c-9-2.44-17.48-7-27.21-6.09,0-.69,0-1.38,0-2.08,4.69-2.78,9-.18,13.24.51C106.52,25.7,103,28.08,102.16,25.06Z"/><path class="cls-199" d="M118.14,40.06c1.3-.51.71-3,2.83-2.67-.55,2.16-1.08,4.33-3.65,5Z"/><path class="cls-283" d="M105.16,20.07c3.9,3.08,9.65,1.61,13.27,5.55-7.54-2.81-15.45-2.89-23.27-3.55h0c-.94-1.83.09-2.48,1.68-2.44,2.11.05,4.28-.51,6.34.42Z"/><path class="cls-284" d="M102.16,25.06c2.73,2,6.44,1,9.1,3.58a59.83,59.83,0,0,0-17-1.62c0-.64,0-1.29,0-1.93a13.26,13.26,0,0,1,7.91,0Z"/><path class="cls-242" d="M103.18,20c-2.62.9-6.2-2-8,2-1.48-1.6-1.06-2.86,1-2.9C98.49,19.12,101,18.19,103.18,20Z"/><path class="cls-199" d="M102.16,25.06l-7.92,0L95.1,24C97.43,24.49,100.05,23.12,102.16,25.06Z"/><path class="cls-261" d="M70.17,123.05l-1,2c-3.44-.39-10.24-5.91-11-8.71-.35-1.38.67-1.61,1.35-2.23,2.06-1.86,4.95-2.62,6.66-5,2.42-1.22,4.44-3.49,7.55-2.91,1.57.94,2.5,2.52,3.76,3.77,1.85,1.84,1.13,3.48-.66,4.9L76.12,116,75,117C72.85,118.6,72.81,121.87,70.17,123.05Z"/><path class="cls-285" d="M95.15,142.05q0-3.51,0-7c1.57-1.53,3.68-1.13,5.56-1.58,3.36-.8,6.7-1.67,9.1-4.45a.75.75,0,0,1,1.22.3c-.3,2,2.16,2.88,2.08,4.82,1,1.5.81,3.18-.7,3.76-5,1.93-9,6-14.5,6.73a3.1,3.1,0,0,1-2.77-.57C95.16,143.37,95.15,142.71,95.15,142.05Z"/><path class="cls-286" d="M66.2,109.14c-.82,3.87-4.93,4-7.25,6.4,2.85,3.7,5.67,7.49,10.2,9.49-1.42,3.35-2.51,6.71-6.76,2-1.68-1.84-5.11-1.68-6.92-4.15-1.45-2-2.58-3.78-1.38-6.22,3-2.3,6.63-3.72,9.25-6.57C64.59,110.67,65.17,109.26,66.2,109.14Z"/><path class="cls-254" d="M86.86,115.73l1.24.38c1.19,4,.26,8.19.52,12.28-2.81,2.06-10.51,1.28-12.41-1.26-1.08-1.44-.42-2.81.19-4.16.72-1.62,2.29-2.86,2.15-4.86C80.74,115.32,82.53,111.1,86.86,115.73Z"/><path class="cls-287" d="M78.54,118.11c1.6,2.34-.16,3.92-1.23,5.71-1,1.59-1.41,2.87,1.32,3.35,3.18.55,6.13,2.33,9.53,1.87.86,2,.52,4,.26,6-5.54,2.26-10.1-.68-14.73-2.93a2,2,0,0,1-.52-3c.31-1,.62-2,.94-3-1.09-3.68,2.54-4.72,3.94-7Z"/><path class="cls-259" d="M95.16,144c6,0,9.91-5,15.32-6.42,1.59-.42,3.08-1.34,2.65-3.5a7.06,7.06,0,0,1,2,4c.84,2.61,0,4.41-2.7,5-5.75,1.35-11.52,2.61-17.28,3.9C95.16,146,95.16,145,95.16,144Z"/><path class="cls-215" d="M110.2,128.93c-1,6-6.55,4.36-10.1,6-1.38.62-3.27.11-4.93.12v-5c2.55.3,4.88-.68,7.31-1.15,3.74-.73,4.93-2.7,3.88-6.24,1,0,1.35.84,1.71,1.59l.56,1C110.14,126,110.07,127.52,110.2,128.93Z"/><path class="cls-288" d="M98.16,102c2.11,2.72-1,2.82-2,4l-6,1c-1.12-1.9-3.86-1.07-5-3C89,100.38,93.82,102.69,98.16,102Z"/><path class="cls-264" d="M109.47,106.3c-.85,3-6.21,4.3-3.24,8.71C102.14,111,102.35,110.47,109.47,106.3Z"/><path class="cls-289" d="M78.05,119l-3.94,7c-1.45.61-2.46.33-1.62-1.35A56.83,56.83,0,0,1,76.15,119C76.79,120.16,77.42,119.15,78.05,119Z"/><path class="cls-289" d="M76.85,114.9c3.31-4.44-2.23-5.72-3.1-8.67C79.69,109.63,80.43,111.7,76.85,114.9Z"/><path class="cls-241" d="M62.21,109.11A6.58,6.58,0,0,1,58,110a2.09,2.09,0,0,0,.42-.81l5.67-2.28A2.94,2.94,0,0,1,62.21,109.11Z"/><path class="cls-207" d="M106.19,115l1.69,1.16c.4,1.29.79,2.59,1.18,3.88A6.12,6.12,0,0,1,106.19,115Z"/><path class="cls-207" d="M108.08,124.23l-1.71-1.59c-.24-.82-.47-1.63-.7-2.45C107.67,120.82,108,122.47,108.08,124.23Z"/><path class="cls-207" d="M110.2,128.93l-1.56-3.73c2.06.63,2.37,2.29,2.41,4.1A5.33,5.33,0,0,0,110.2,128.93Z"/><path class="cls-234" d="M59.19,81.18A3.05,3.05,0,0,1,58,84.86C57.05,83.12,58.08,82.3,59.19,81.18Z"/><path class="cls-234" d="M58.17,90.1h-3c.13-.72.06-1.67,1.1-1.69S57.78,89.26,58.17,90.1Z"/><path class="cls-238" d="M102.16,40.06c-.59-1.26-2.09-.66-3.36-1.79,2,0,3.59-1.09,4.89.82l-1.53,1Z"/><path class="cls-290" d="M98.26,90a3,3,0,0,0,1.9,2c-.57,2.44.16,5.73-2.73,6.83a17,17,0,0,1-12.57.22c-.65-.26-1.22-.5-1.34-1.25C83,95,88.34,89.07,91.3,88.46c2.32-.48,4.45-1.67,6.82-.39A1.34,1.34,0,0,1,98.26,90Z"/><path class="cls-291" d="M85.22,88.1c-.82-4.36,3.55-5.71,5.61-7.49C92.56,79.13,93,83.06,93.17,85,89.89,84.44,87.42,85.93,85.22,88.1Z"/><path class="cls-291" d="M98.26,90c-.05-.65-.09-1.29-.14-1.93.38-3.23-1.84-3.07-4-3a1.85,1.85,0,0,1,2-2c4.19.34,4.67,1.27,3,5.91Z"/><path class="cls-292" d="M98.13,77.09a11.17,11.17,0,0,0,4,4c3.78.78,3.34,4.54,3.27,6.55-.11,3-3.43.85-5.24,1.43h0c.76-4.74-1.53-7.19-6-8Q93.43,76.31,98.13,77.09Z"/><path class="cls-239" d="M94.19,81c6.41.26,8.3,2.78,6,8l-1-.07c-.22-2.38.87-5.42-3-5.92Z"/><path class="cls-293" d="M43.16,90.11c.78-4.18,1.41-8.39,2.36-12.54.9-3.9,3.22-6.12,7.57-5.18l5.45,3.52c-6.46-1.4-6.49-1.4-8.64,5.62-.85,2.79-1.86,5.57-1.73,8.56Z"/><path class="cls-294" d="M83.11,89a5.38,5.38,0,0,0-1,.06c-2.17.51-4.58,1-5.41-1.69-.48-1.54,1.53-1.93,2.74-2.14,2.91-.51,3.84,1.15,3.66,3.77Z"/><path class="cls-295" d="M37.19,65c-2,5.7-4.92,11-7,17V77.05a45.08,45.08,0,0,1,4.12-11.16C34.88,64.75,35.68,63.43,37.19,65Z"/><path class="cls-296" d="M88.15,147c-6.13-.77-12-2.58-17.88-4.42-3-.93-1.71-3.06-2.17-4.73a21.25,21.25,0,0,1,4-7c.73,6.94,5.77,7.73,11.27,7.88a8.63,8.63,0,0,1,4.33.77l.5.55Z"/><path class="cls-296" d="M88.15,135q0-3,0-6l-.06-12.93c1.59,1,.84,2.65,1.15,4L89.1,140c-.31,0-.61.06-.92.07l0,0A3.67,3.67,0,0,1,88.15,135Z"/><path class="cls-297" d="M88.15,135v5c-3.29-.19-6.61.45-9.88-.45-7-1.92-7-1.91-6.19-8.72L73.17,129a2.78,2.78,0,0,0,2.18,2.9C79.64,132.87,83.64,135,88.15,135Z"/><path class="cls-286" d="M70.17,123.05c1.89-1.78,1.86-5.11,4.84-6-.85,2.23-1.58,4.54-3.57,6.1Z"/><path class="cls-298" d="M106.16,103c-1,0-2,2.23-2.71.83a4.1,4.1,0,0,1,1.36-5.15c2,1,1.14,2.83,1.35,4.32Z"/><path class="cls-287" d="M82.71,125c.18-.86.87-.86,1.51-.88.91,0,1.69.35,1.73,1.31s-.56,1.52-1.58,1.1C83.66,126.24,82.78,126,82.71,125Z"/></g></g></svg>