<svg xmlns="http://www.w3.org/2000/svg" viewBox="0 0 185.26 187.02"><defs><style>.cls-1{fill:#fefefe;}.cls-2{fill:#594326;}.cls-3{fill:#fdfdfd;}.cls-4{fill:#e4caa4;}.cls-5{fill:#5e4728;}.cls-6{fill:#5d4626;}.cls-7{fill:#644c28;}.cls-8{fill:#5b4324;}.cls-9{fill:#694616;}.cls-10{fill:#5c4526;}.cls-11{fill:#553f24;}.cls-12{fill:#604724;}.cls-13{fill:#6f5530;}.cls-14{fill:#684f2b;}.cls-15{fill:#6e5630;}.cls-16{fill:#362d24;}.cls-17{fill:#302922;}.cls-18{fill:#594225;}.cls-19{fill:#543e23;}.cls-20{fill:#382e25;}.cls-21{fill:#75512f;}.cls-22{fill:#7a5832;}.cls-23{fill:#42361a;}.cls-24{fill:#372b1e;}.cls-25{fill:#877b3c;}.cls-26{fill:#d1bc85;}.cls-27{fill:#dbca90;}.cls-28{fill:#d2bd86;}.cls-29{fill:#c8ad76;}.cls-30{fill:#ceb279;}.cls-31{fill:#cbba80;}.cls-32{fill:#cbb179;}.cls-33{fill:#c4a66d;}.cls-34{fill:#cab983;}.cls-35{fill:#d2bc84;}.cls-36{fill:#997543;}.cls-37{fill:#dccc93;}.cls-38{fill:#cab67b;}.cls-39{fill:#8f6b3e;}.cls-40{fill:#997544;}.cls-41{fill:#c2a46a;}.cls-42{fill:#a07b48;}.cls-43{fill:#7f6c35;}.cls-44{fill:#6b5e29;}.cls-45{fill:#d0ba7f;}.cls-46{fill:#886239;}.cls-47{fill:#7c5632;}.cls-48{fill:#7d5833;}.cls-49{fill:#715f2f;}.cls-50{fill:#302822;}.cls-51{fill:#755230;}.cls-52{fill:#9d7946;}.cls-53{fill:#826738;}.cls-54{fill:#754f2e;}.cls-55{fill:#8e6c3f;}.cls-56{fill:#a07c48;}.cls-57{fill:#d6c18c;}.cls-58{fill:#886339;}.cls-59{fill:#84693b;}.cls-60{fill:#987342;}.cls-61{fill:#bd995f;}.cls-62{fill:#b6a46b;}.cls-63{fill:#40301d;}.cls-64{fill:#9f7d48;}.cls-65{fill:#967242;}.cls-66{fill:#ba9a63;}.cls-67{fill:#8d7240;}.cls-68{fill:#a3814d;}.cls-69{fill:#b5a669;}.cls-70{fill:#b19058;}.cls-71{fill:#383028;}.cls-72{fill:#88643a;}.cls-73{fill:#674629;}.cls-74{fill:#504128;}.cls-75{fill:#8f8141;}.cls-76{fill:#957542;}.cls-77{fill:#644f2e;}.cls-78{fill:#cfc184;}.cls-79{fill:#8c6a3f;}.cls-80{fill:#9c7b47;}.cls-81{fill:#6d5735;}.cls-82{fill:#947242;}.cls-83{fill:#c7b77d;}.cls-84{fill:#937440;}.cls-85{fill:#ab8951;}.cls-86{fill:#c6a66d;}.cls-87{fill:#594d25;}.cls-88{fill:#c1a269;}.cls-89{fill:#997a48;}.cls-90{fill:#7d5a35;}.cls-91{fill:#d2c189;}.cls-92{fill:#4d3f2a;}.cls-93{fill:#806736;}.cls-94{fill:#352e28;}.cls-95{fill:#725f31;}.cls-96{fill:#5b492d;}.cls-97{fill:#bd9f68;}.cls-98{fill:#bcab6f;}.cls-99{fill:#4b3c20;}.cls-100{fill:#302514;}.cls-101{fill:#c0a56e;}.cls-102{fill:#37312a;}.cls-103{fill:#6c5331;}.cls-104{fill:#483a26;}.cls-105{fill:#d3c289;}.cls-106{fill:#b9965d;}.cls-107{fill:#322814;}.cls-108{fill:#b3a266;}.cls-109{fill:#bfa167;}.cls-110{fill:#363029;}.cls-111{fill:#745e39;}.cls-112{fill:#b48f55;}.cls-113{fill:#cfba82;}.cls-114{fill:#8d693d;}.cls-115{fill:#302614;}.cls-116{fill:#3b332a;}.cls-117{fill:#967543;}.cls-118{fill:#9c7745;}.cls-119{fill:#8e6b3e;}.cls-120{fill:#b7a66d;}.cls-121{fill:#3e3429;}.cls-122{fill:#322815;}.cls-123{fill:#423523;}.cls-124{fill:#373129;}.cls-125{fill:#ad8d55;}.cls-126{fill:#675333;}.cls-127{fill:#b7a66a;}.cls-128{fill:#b0a265;}.cls-129{fill:#4f4436;}.cls-130{fill:#ae8d57;}.cls-131{fill:#836038;}.cls-132{fill:#c6b77d;}.cls-133{fill:#685827;}.cls-134{fill:#967343;}.cls-135{fill:#ccb27a;}.cls-136{fill:#d1c48e;}.cls-137{fill:#38322a;}.cls-138{fill:#604c2b;}.cls-139{fill:#88663a;}.cls-140{fill:#4a3f21;}.cls-141{fill:#70593a;}.cls-142{fill:#342e28;}.cls-143{fill:#bead71;}.cls-144{fill:#7d5c37;}.cls-145{fill:#56462e;}.cls-146{fill:#3b3933;}.cls-147{fill:#4f3f28;}.cls-148{fill:#9d8e5c;}.cls-149{fill:#3c3019;}.cls-150{fill:#2c2826;}.cls-151{fill:#735936;}.cls-152{fill:#40372c;}.cls-153{fill:#5c5951;}.cls-154{fill:#403c35;}.cls-155{fill:#4f4c45;}.cls-156{fill:#4a4842;}.cls-157{fill:#54514a;}.cls-158{fill:#484742;}.cls-159{fill:#483a27;}.cls-160{fill:#493b26;}.cls-161{fill:#5d4d36;}.cls-162{fill:#3c3832;}.cls-163{fill:#685337;}.cls-164{fill:#423f39;}.cls-165{fill:#3c3a34;}.cls-166{fill:#6d5637;}.cls-167{fill:#524228;}.cls-168{fill:#42403a;}.cls-169{fill:#463927;}.cls-170{fill:#655034;}.cls-171{fill:#3e3c36;}.cls-172{fill:#4a3c28;}.cls-173{fill:#564c3c;}.cls-174{fill:#866a42;}.cls-175{fill:#4e4c45;}.cls-176{fill:#5a574e;}.cls-177{fill:#494640;}.cls-178{fill:#745935;}.cls-179{fill:#43413b;}.cls-180{fill:#2a2217;}.cls-181{fill:#3e3c35;}.cls-182{fill:#675337;}.cls-183{fill:#3f3d37;}.cls-184{fill:#39362f;}.cls-185{fill:#4c3e2a;}.cls-186{fill:#c3a66c;}.cls-187{fill:#4b4942;}.cls-188{fill:#535049;}.cls-189{fill:#43413c;}.cls-190{fill:#7a5f3b;}.cls-191{fill:#908978;}.cls-192{fill:#5a4528;}.cls-193{fill:#5d492e;}.cls-194{fill:#5b584f;}.cls-195{fill:#4b4842;}.cls-196{fill:#46443e;}.cls-197{fill:#4e3f2a;}.cls-198{fill:#bab4a4;}.cls-199{fill:#725735;}.cls-200{fill:#5d4c33;}.cls-201{fill:#a09b8b;}.cls-202{fill:#413f38;}.cls-203{fill:#574b38;}.cls-204{fill:#776343;}.cls-205{fill:#715733;}.cls-206{fill:#594c38;}.cls-207{fill:#968f7f;}.cls-208{fill:#4c4943;}.cls-209{fill:#e6e0ca;}.cls-210{fill:#59564e;}.cls-211{fill:#5e5a51;}.cls-212{fill:#d0cab7;}.cls-213{fill:#d9d3c0;}.cls-214{fill:#9c7846;}.cls-215{fill:#474642;}.cls-216{fill:#5d4b32;}.cls-217{fill:#876e46;}.cls-218{fill:#7a5d38;}.cls-219{fill:#b2945a;}.cls-220{fill:#3c3933;}.cls-221{fill:#53514a;}.cls-222{fill:#5a574f;}.cls-223{fill:#5e5b54;}.cls-224{fill:#4d4b44;}.cls-225{fill:#44423c;}.cls-226{fill:#4c4a46;}.cls-227{fill:#484743;}.cls-228{fill:#6b573b;}.cls-229{fill:#4a4740;}.cls-230{fill:#7f6640;}.cls-231{fill:#484640;}.cls-232{fill:#645238;}.cls-233{fill:#504d46;}.cls-234{fill:#997e4e;}.cls-235{fill:#55524b;}.cls-236{fill:#937041;}.cls-237{fill:#a07d49;}.cls-238{fill:#3f3220;}.cls-239{fill:#997949;}.cls-240{fill:#826f53;}.cls-241{fill:#755935;}.cls-242{fill:#a9854c;}.cls-243{fill:#614e32;}.cls-244{fill:#525048;}.cls-245{fill:#625139;}.cls-246{fill:#afab9b;}.cls-247{fill:#6c5433;}.cls-248{fill:#544a39;}.cls-249{fill:#725c3d;}.cls-250{fill:#866b3e;}.cls-251{fill:#4c4942;}.cls-252{fill:#443725;}.cls-253{fill:#afaa9b;}.cls-254{fill:#c7c2b0;}.cls-255{fill:#c7c3b6;}.cls-256{fill:#614b2e;}.cls-257{fill:#b09159;}.cls-258{fill:#483721;}.cls-259{fill:#907443;}.cls-260{fill:#c9b275;}.cls-261{fill:#8c683c;}.cls-262{fill:#cab067;}.cls-263{fill:#594830;}.cls-264{fill:#58554d;}.cls-265{fill:#50402a;}.cls-266{fill:#5d5a51;}.cls-267{fill:#866e46;}.cls-268{fill:#a1865b;}.cls-269{fill:#8e8472;}.cls-270{fill:#544126;}.cls-271{fill:#ded6bd;}.cls-272{fill:#786140;}.cls-273{fill:#5e5b51;}.cls-274{fill:#bdb9aa;}.cls-275{fill:#c7b17a;}.cls-276{fill:#2b2012;}</style></defs><g id="Layer_2" data-name="Layer 2"><g id="Layer_2_Image" data-name="Layer 2 Image"><path class="cls-1" d="M104.2.07c26,0,52,0,78-.07,2.5,0,3.08.56,3.07,3.07-.11,27.66-.07,55.32-.07,83a1.11,1.11,0,0,1-1.45-.07c-3.15-3.18-.78-7.7-2.71-11.18-1.42-2.51-1.06-5.47-2-8.1-3.4-12.41-9.76-23.19-18.23-32.77A89.53,89.53,0,0,0,121.5,7.64c-3-1-6.15-1.42-9.18-2.25a13.65,13.65,0,0,1-2.09-.54A22.52,22.52,0,0,1,105,2.59C104.32,1.89,103.67,1.17,104.2.07Z"/><path class="cls-2" d="M182.17,74.36c2.1,3.61.1,8,2.18,11.61a1.59,1.59,0,0,1,.08,1.41,77.85,77.85,0,0,0-.12,11.73,4.56,4.56,0,0,0,.88,1.94v1c-1.24,1.55-.86,3.42-1.06,5.19-.14,1.3.27,3.2-2.17,2.79-1.46-1.82-1-4-1.11-6.07,1.65-4.54-2.21-5.1-4.78-6.59-.49-1.84,1.1-2.31,2.08-3.2a7.38,7.38,0,0,0,2.36-3.2c1-4.8-1.25-9.41-.83-14.18C179.9,75.35,181.07,74.89,182.17,74.36Z"/><path class="cls-3" d="M104.2.07l1,1.92a4.34,4.34,0,0,1-3.55,1.45c-6,.05-11.92.09-17.88,0A4.37,4.37,0,0,1,80.21,2l1-1.92Z"/><path class="cls-3" d="M182.25,110.19c2.64-2.12-1-6.51,2.94-8.14v9h-2.8c-.26-.16-.37-.33-.32-.54S182.18,110.19,182.25,110.19Z"/><path class="cls-4" d="M184,87.11c.11-.38.22-.76.32-1.14a1.83,1.83,0,0,1,.84.08v15L184,100A52.78,52.78,0,0,1,184,87.11Z"/><path class="cls-5" d="M34.13,22.06c2.24-1.08,3.43-3.69,6.09-4.15a7.48,7.48,0,0,1,4.11-2.78l1.88-1.23c1.33-1.66,3.32-2.08,5.18-2.73L53.23,10a8.92,8.92,0,0,1,5-1.85l.07,0c.71-1.14,2-.39,2.94-1l.06,0a9.08,9.08,0,0,1,5.91-2.18c2.14.7,4-1,6.1-.7,1.28.87,3-.56,4.16.76a2.49,2.49,0,0,1,.21,1.45,2.83,2.83,0,0,1-2.29,1.69c-2.81.29-5.7.19-8.28,1.64a16,16,0,0,1-2.51,1.1c-1.88.41-3.86.52-5.55,1.62-.37.24-.75.44-1.13.65-2.55,1.73-5.51,2.51-8.32,3.62-2,.83-3.37,2.56-5.1,3.78-1.1.72-2.15,1.49-3.21,2.26a44.13,44.13,0,0,0-7.56,6.55,72,72,0,0,0-7.87,7.35C23,40.22,20.5,43.92,18,47.62c-1.66,2.72-3.4,5.4-4,8.62-1.16,2.24-.92,5.59-4.6,5.85a4.7,4.7,0,0,1-1.74-3.2,10.34,10.34,0,0,1,1.54-4.83l7.08-12a48.45,48.45,0,0,1,11.7-14l1.29-1.25C30.69,25.06,32,23.09,34.13,22.06Z"/><path class="cls-6" d="M21.45,151.93,19.05,149c-1.62-.85-1.85-2.69-2.83-4l-7-12c-1.06-3.63-4.44-6.52-3.44-10.8a1.55,1.55,0,0,1,1.33-1.6c3.7,1.37,2.94,5.44,4.82,7.92,1.46,3.19,2.85,6.41,4.43,9.54A50.62,50.62,0,0,0,19.63,144c.3.35.57.71.86,1.06,6.56,6.56,12,14.28,19.76,19.6A1.87,1.87,0,0,1,40.5,166a3.43,3.43,0,0,1-2.24,1.5c-1.22.08-2-.89-3-1.3l-1-1.12A36.43,36.43,0,0,1,24.31,155l0,0C23.05,154.23,21.79,153.51,21.45,151.93Z"/><path class="cls-7" d="M141.06,172l-10.95,5.9c-.9,1.36-2.43,1.28-3.78,1.62A3.53,3.53,0,0,1,124,178c1.63-4.27,6.6-3.58,9.31-6.26,1.15-1.07,2.82-.75,4.09-1.51a12.62,12.62,0,0,0,3.17-2.16c1.84-1.69,4-2.88,5.94-4.49.7-.57,1.44-1.09,2.19-1.59,2.69-1.71,4.44-4.41,6.75-6.51a3.56,3.56,0,0,1,2.64-.67,2.29,2.29,0,0,1,1.44,1.41c-.77,2.84-2.92,4.42-5.3,5.79l-.05,0c-.48,1.62-1.76,2.34-3.21,2.87l-2.81,2C146.55,169.68,143.77,170.77,141.06,172Z"/><path class="cls-8" d="M38.19,167.05a2.08,2.08,0,0,1,2-1c2.37-.61,3.67,1.38,5.44,2.23a24.35,24.35,0,0,0,5.28,3c4.25,2.53,9,4,13.48,5.94,2.33.72,4.71,1.24,7,2,1.65.93,4.33,0,5,2.78-.84,1.27-2.28,1.15-3.51,1.51a50.19,50.19,0,0,1-17.53-5.59h0a22.06,22.06,0,0,0-4.12-1.77l-1.89-1.37c-1.28-.05-2-1.2-3.11-1.58-.79-.21-1.73-.14-2.12-1.12C42,170.59,39,170.11,38.19,167.05Z"/><path class="cls-8" d="M159.45,156.14,158.1,155c0-.23,0-.47,0-.7,2.67-4.84,7.17-8.48,9.05-13.83,2-4.3,5.5-7.72,7.08-12.26a12.82,12.82,0,0,0,.84-2.54,10.19,10.19,0,0,1,1.64-3.88,2.55,2.55,0,0,1,1.9-1c1.27.47,1,1.56,1.06,2.53.45,3.83-2.35,6.45-3.61,9.63l0,0A4,4,0,0,1,174.3,136a1.23,1.23,0,0,0-.29.92,3.32,3.32,0,0,1-1.91,3l-3,4.82c-.71,2.68-2.51,4.55-4.61,6.21-.16.3-.32.6-.49.9C163.06,154,161.87,155.73,159.45,156.14Z"/><path class="cls-9" d="M80.21,2h25l5.35,2c-1.28,2-3.89.14-5.28,1.83a4.09,4.09,0,0,1-1.19.74l-.73.09a6.32,6.32,0,0,1-1.49-.28c-7-1.81-14.11-.72-21.17-.37C79,5.3,77,5.33,76.16,3.26,77.25,2,78.85,2.38,80.21,2Z"/><path class="cls-10" d="M109.27,183.83c-1.08,1.35-2.75.66-4.07,1.17a63.14,63.14,0,0,1-25,0l-1.74-.09c-.8-.66-2.87.06-2.27-2.11a11.23,11.23,0,0,1,4.26-1.59,12.86,12.86,0,0,1,4.66.37c3.18.2,6.35.06,9.53.1.78,0,1.55,0,2.33,0a42.23,42.23,0,0,0,4.5-.07,12.37,12.37,0,0,1,3.69-.29C106.68,181.93,108.81,181.52,109.27,183.83Z"/><path class="cls-3" d="M80.21,185h25a4.8,4.8,0,0,1-3.84,2q-8.67.1-17.33,0A4.74,4.74,0,0,1,80.21,185Z"/><path class="cls-11" d="M7.84,58.91c1.46.64,1.33,2,1.49,3.24,0,.24,0,.47,0,.71-1,3.62-2,7.24-2.73,10.92A7.41,7.41,0,0,1,5.48,77.4c-4.15,2-2.84-1.43-3.23-3.19A7.47,7.47,0,0,1,3,71.07c.07-.33.13-.66.2-1a22.69,22.69,0,0,0,2-6.9C5.49,61.43,5.84,59.64,7.84,58.91Z"/><path class="cls-3" d="M76,183.12l2.51,1.79c-7.72-.08-14.86-2.71-22.07-5-.94-.3-1.06-1.14-1-2,6.1,1.24,11.58,4.7,17.93,5C74.22,182.49,75.14,182.27,76,183.12Z"/><path class="cls-12" d="M124,177.89l2.18,1c-.36,1-1.39.65-2.07,1l0,0a14.49,14.49,0,0,1-10,2.94l-2,0c-.89-.82-2.57.4-3.16-1.22,1.76-2.94,5.16-2.18,7.68-3.4.45-.19,1.11-.26,1.33-.62C120.18,174,122.13,174.88,124,177.89Z"/><path class="cls-13" d="M2.19,111.06c0-.34-.07-.68-.11-1-1.9-2.15.22-4.77-.79-7h0a1.93,1.93,0,0,1-.35-2.11c.62-2.41,0-5.25,2.43-7,2.45.65,2.06,2.76,2.11,4.47.1,3.32.34,6.63.38,10a4.93,4.93,0,0,1-.14,1.48,5.49,5.49,0,0,1-2.51,2.55C2.43,112.25,1.79,112.08,2.19,111.06Z"/><path class="cls-14" d="M179.21,123.09c-.09-.81-.19-1.6-1-2-1.73-3.52.71-6.71.81-10.1.06-2,.84-3.86,1-5.84.38-1,.63-2.23,2.16-2.07,0,2.38,0,4.77.07,7.15a1.5,1.5,0,0,0,.14.86c0,.34,0,.68.05,1,.7,1.68.95,3.34-.29,4.91l0,0c-.74,1.62-1.2,3.35-1.86,5a.47.47,0,0,0-.25.63C180.06,123.4,179.79,123.54,179.21,123.09Z"/><path class="cls-15" d="M3,112.45c.19-1.18.54-2.24,2-2.4,2.82,3.22,4.14,6.76,2.34,11L6,122.4l-.41.16-.39-.17c-1.74-1.78-.57-4.54-2.14-6.37C2.51,114.85,2,113.67,3,112.45Z"/><path class="cls-3" d="M27.92,28.06,16.22,42C18.29,35.85,22,31,27.92,28.06Z"/><path class="cls-3" d="M7.84,58.91c-2.72,3.24-1.4,8.14-4.61,11.17.88-5.74,1.31-11.65,5.91-16C9.62,55.92,8.21,57.28,7.84,58.91Z"/><path class="cls-3" d="M159.45,156.14l4.53-4.2c2.39,2.58-1.09,3-1.83,3.8-2.22,2.51-3.56,6.43-7.93,6.27Z"/><path class="cls-3" d="M24.31,155c3.24,3.41,7.19,6.12,9.89,10.06C30,164.09,24.4,158.41,24.31,155Z"/><path class="cls-3" d="M3,71.07c.06,1,.11,2,.17,2.93-.91,1.57-.46,3.13-.07,4.73.48,2,.66,3.9-1.15,5.39L1.15,84C-.12,79.42-.37,75,3,71.07Z"/><path class="cls-3" d="M1.35,100.93c0,.69-.05,1.38-.07,2.07a37.71,37.71,0,0,1-.13-19l.12.08a3.66,3.66,0,0,1,1.2,2.42C2.93,91.38,2.08,96.15,1.35,100.93Z"/><path class="cls-3" d="M5.22,122.39a2.69,2.69,0,0,1,.8,0c-.28,3.94,3.36,6.72,3.16,10.63C6.93,129.83,3.57,127,5.22,122.39Z"/><path class="cls-3" d="M179.21,123.09a2.44,2.44,0,0,1,.81-.43c1.73,4.59-1.38,7.33-3.93,10.28C176.21,129.37,179.48,126.79,179.21,123.09Z"/><path class="cls-3" d="M38.19,167.05c1.41,2.33,4.82,2.3,5.92,5-4.2-.09-6.46-3.11-8.87-5.89C36.45,165.69,37.2,166.79,38.19,167.05Z"/><path class="cls-3" d="M114.12,182.83l10-2.94C121.3,182.65,118.42,185.17,114.12,182.83Z"/><path class="cls-3" d="M141.06,172l7.09-5C147,170.29,144.9,172.36,141.06,172Z"/><path class="cls-3" d="M164.47,151l4.61-6.21C169.8,148.57,167.47,150.05,164.47,151Z"/><path class="cls-3" d="M1.29,103c1.67,2.19.57,4.69.79,7C-2,108.14,1.41,105.37,1.29,103Z"/><path class="cls-3" d="M124.12,179.87l2.07-1,3.92-1C129,181.29,126.76,181.11,124.12,179.87Z"/><path class="cls-3" d="M34.13,22.06c-1,2.22-2.91,3.55-4.92,4.75C29.87,24.21,30.69,21.77,34.13,22.06Z"/><path class="cls-3" d="M67.18,4.92,61.27,7.1C62.77,5.09,64.31,3.2,67.18,4.92Z"/><path class="cls-3" d="M44.33,15.13c-.93,1.58-2.59,2.08-4.11,2.78C40.75,15.75,41.44,13.81,44.33,15.13Z"/><path class="cls-3" d="M58.2,8.11c-1.54.92-3,2-5,1.85C54.42,8.08,55.66,6.34,58.2,8.11Z"/><path class="cls-16" d="M76.16,3.26c1,1.48,3.12.16,4.06,1.71a1.9,1.9,0,0,1-2.81.22c-1.36-.42-3,.36-4.13-1Z"/><path class="cls-17" d="M109.17,181.93c1,.17,2.24-.15,3,.95l-2.87,1c-.94-1.49-3.09-.12-4-1.69A2.64,2.64,0,0,1,109.17,181.93Z"/><path class="cls-3" d="M16.22,145.06c1.81.71,2.17,2.45,2.83,4C15.88,149.29,16.2,147.07,16.22,145.06Z"/><path class="cls-3" d="M182.15,117c.09-1.64.19-3.27.29-4.91C184.77,113.86,184.89,115.51,182.15,117Z"/><path class="cls-3" d="M3,112.45c0,1.19.06,2.38.1,3.57-2-1.35-2.65-2.94-.89-5C2.45,111.53,2.71,112,3,112.45Z"/><path class="cls-3" d="M51.39,11.17c-1.57,1.21-3.13,2.43-5.18,2.73C47,11.16,49.15,11.11,51.39,11.17Z"/><path class="cls-3" d="M151,164.92a7.62,7.62,0,0,1,3.21-2.87C155.53,165.72,152.81,164.84,151,164.92Z"/><path class="cls-3" d="M180.27,122c0-1.92.27-3.71,1.86-5A5.69,5.69,0,0,1,180.27,122Z"/><path class="cls-3" d="M21.45,151.93l2.84,3C22.65,154.6,20.47,154.75,21.45,151.93Z"/><path class="cls-3" d="M51.23,176.12c1.8-.42,3.06.45,4.12,1.77A5,5,0,0,1,51.23,176.12Z"/><path class="cls-3" d="M61.21,7.13c-.75,1-1.88.88-2.94,1C58.47,5.35,59.93,6.55,61.21,7.13Z"/><path class="cls-3" d="M46.23,173.17c1.39-.16,2.25.7,3.11,1.58C47.15,176.49,47.24,173.76,46.23,173.17Z"/><path class="cls-3" d="M172.1,140c.64-1,1.27-2,1.91-3C175,139,174,139.77,172.1,140Z"/><path class="cls-3" d="M174.3,136a5.34,5.34,0,0,1,1.77-3.07C177.32,135.05,176.34,135.85,174.3,136Z"/><path class="cls-18" d="M112.12,4.12C144.05,11,165.47,30.4,178.2,60a56.58,56.58,0,0,1,1.85,6.1c-.6.64,0,2.05-1.4,2.18-2.92-2.21-3-5.8-4.29-8.81-1.86-3.68-3.54-7.45-5.73-11a36.68,36.68,0,0,0-4-6.73,55.38,55.38,0,0,1-3.91-5c-.4-.48-.81-1-1.24-1.42-1.33-1.41-2.74-2.74-4.16-4.07-5.13-4.57-10.34-9-16.27-12.56-1-.67-1.86-1.46-2.87-2.08-8.06-3.37-16-7.17-24.5-9.27-1.12-.27-2.27-.59-2.67-1.9C109.52,3.87,111.31,5.12,112.12,4.12Z"/><path class="cls-19" d="M179.13,68.11l.92-2c1.91,2.44.31,5.79,2.12,8.26A1.71,1.71,0,0,1,180.23,76C178.37,73.61,177.34,71.05,179.13,68.11Z"/><path class="cls-20" d="M112.12,4.12c-.72,1.19-2,.84-3,1a2.55,2.55,0,0,1-3.9-.26c-.21-.67-.85-1.79.63-1.39a9.92,9.92,0,0,0,4.7.44Z"/><path class="cls-21" d="M179.13,68.11c.37,2.64.73,5.29,1.1,7.93.66,5.33,3.09,10.54,1,16a7.13,7.13,0,0,1-2.37-3.35c-.11-3.49,0-7-1.59-10.48-1.37,1.57-.52,3.77-2.08,5-2.57-.36-2-2.58-2.41-4.17-.57-2.37-.65-4.83-1.19-7.46,0,3,1.68,5.78-.23,8.46-2.61.26-2.18-1.92-2.56-3.31-1.66-6.15-3.07-12.38-5.93-18.13a3.38,3.38,0,0,1,0-1.38c.67-1.09,2.1-1.54,2.46-2.9.62-1.39.62-3,1.6-4.26a1.44,1.44,0,0,1,1.29-.12c3,2.52,4.06,6.52,7,9.1Q177.17,63.59,179.13,68.11Z"/><path class="cls-22" d="M182.18,103a2.2,2.2,0,0,0-1,2,14.58,14.58,0,0,0-1.69,3.54c-.56,1.56-.94,3.35-3.16,3s-2.18-2.15-2.39-3.78a16,16,0,0,1-.07-1.95c.65-3.19-.33-6.39,0-9.58,1.15-1,1.77-.22,2.34.71,1.81,1.35,3.52,1.16,5.23-1C182.63,98.64,182,100.89,182.18,103Z"/><path class="cls-23" d="M176.2,97l-2-.86c-1.21.69-2,.29-2.37-1a7.58,7.58,0,0,1,7.5-3.15,2.88,2.88,0,0,1,0,3Z"/><path class="cls-24" d="M184,87.11V100A20.52,20.52,0,0,1,184,87.11Z"/><path class="cls-25" d="M179.32,95c-.18-.94-.35-1.89-.52-2.84,0-.2,0-.39,0-.59a6.2,6.2,0,0,1,.05-2.35l.39-.45c1.83.4,2.06,1.77,2,3.31C180.61,93.05,180,94,179.32,95Z"/><path class="cls-26" d="M64.21,10,66,9c3-1,6.12-1.24,9.17-1.91l2.18-1c4.09-.47,8.13-2,12.32-.69a1.65,1.65,0,0,1,.9,1.26,4.39,4.39,0,0,1-.87,2.22c-2.47,3.77-6.9,1.54-10,3.3-3.37,2.23-7.34,2.06-11.08,2.86-1.67.34-3.48.12-5,1.17-1.79,1.13-3.58,2.25-5.85,1.81-4.26-2.29-1.88-4.17.38-6.05l0,.06C60.08,11,62.26,10.87,64.21,10Z"/><path class="cls-27" d="M17.26,47.13c2.43-3.84,4.48-8,7.86-11.11.42-.24.81-.54,1.25-.74,1.73-.83,2.66-4.33,4.8-2.76,1.85,1.35-.62,3.78-.73,5.8-1.11,3.59-2.67,6.93-5.56,9.49a7.93,7.93,0,0,1-3.54,1.34A8.13,8.13,0,0,1,19,49.09C18.11,48.73,16.9,48.63,17.26,47.13Z"/><path class="cls-28" d="M17.26,47.13l2.09,1c.37.89-.1,1.63-.42,2.39a6.41,6.41,0,0,0-.48,3.06A13.27,13.27,0,0,1,17,62.24c-1.73,2.57-2.76,5.51-4.33,8.16a3.14,3.14,0,0,1-3.45,1.08A3.1,3.1,0,0,1,7.51,69,5.77,5.77,0,0,1,8,66.91c4.15-2.49,3.75-7.1,5.1-10.9C13,52.33,15.08,49.71,17.26,47.13Z"/><path class="cls-29" d="M90.43,6.13c-4.35-1-8.7.1-13.05,0a2,2,0,0,1,0-.92L80.22,5c5.54-1.06,11.17-.76,16.76-.9C99.3,4,101.66,3.9,103.35,6c-.23.44-.73.62-1,1a2.63,2.63,0,0,0,1.88-.89l-.08-.22a2.24,2.24,0,0,1,2.94,1C107,11.15,106,11.71,99.49,11,97,8.49,93.61,7.48,90.43,6.13Z"/><path class="cls-30" d="M29.3,38.18c.52-1.76,1.05-3.52,1.62-5.47-2.46.56-3.17,3.6-5.8,3.31a26.63,26.63,0,0,1,7.82-7.17h.66c1.32.19,2.65.36,2.88,2.07-.83,1.44-1.94,2.73-2.37,4.39a4.39,4.39,0,0,1-.69,1.11C32.18,37.32,31.09,38.57,29.3,38.18Z"/><path class="cls-31" d="M44.1,19.89c1.52-1.54,2.65-3.58,5.09-3.91,1.14-.17,2.32-.76,3.4-.52,2.79.61,2.71,1.91.53,3.43-2.9-.06-3.47,2.44-4.66,4.25-2,.49-2.42-1.5-3.67-2.19A2.42,2.42,0,0,1,44.1,19.89Z"/><path class="cls-32" d="M13.11,56c.82,5.49-1.39,10.57-4.82,11.06a7.1,7.1,0,0,1,1-5v.06C11.63,60.74,11.61,57.91,13.11,56Z"/><path class="cls-33" d="M52.09,18.13c.55-.25,1.38-.38,1.58-.8.32-.66-.36-1-1-1.21-1.17-.44-2.39,1.16-3.49-.14l9-4c-.29,1.71-4.24,3.47.08,5.11.15,2.09-1.7,2-2.87,2.63a4.2,4.2,0,0,1-2.17,0C52.49,19.46,52,19,52.09,18.13Z"/><path class="cls-30" d="M32.94,28.85a19.62,19.62,0,0,1,8.22-6.93,1.47,1.47,0,0,1,.39,1.18c-.82,1.83-2.44,3-3.64,4.51a8.27,8.27,0,0,1-4.59,1.5Z"/><path class="cls-34" d="M75.2,7.08A21,21,0,0,1,66,9,13.21,13.21,0,0,1,75.2,7.08Z"/><path class="cls-34" d="M64.21,10a9,9,0,0,1-6,2A6.54,6.54,0,0,1,64.21,10Z"/><path class="cls-35" d="M41.19,23.05l0-1.13a4,4,0,0,1,2.94-2l.15.27C44.33,22.28,43.41,23.35,41.19,23.05Z"/><path class="cls-36" d="M40.14,165.1c-4.71-2-8.11-5.64-11.51-9.23s-6.27-7.22-9.39-10.85c.69-1.05,2-.07,2.92-.78-1.48-1.13-2.12.07-2.92.78-1.29-2-2.58-4.07-3.86-6.11.88-.8.73-2.16,1.61-3a1.67,1.67,0,0,1,1.33-.1A3.64,3.64,0,0,1,19.1,137c.48,1.88,1.33,3,3.52,2,1.44-.65,2.88-2,4.58-.52a2.58,2.58,0,0,1,.62,1.22c-.41,4.71,1.91,8.5,4.55,11.93,1.55,2,4.06,3.33,5.94,5.14,2.22,2.12,4.39,1.72,6.77.74a2.72,2.72,0,0,1,1.25.31,3.58,3.58,0,0,0,3.07,1.57,3.29,3.29,0,0,1,1.21.49c1.21,1.24,1.11,2.41-.17,3.52a4.09,4.09,0,0,1-1.94.47c-1.08,0-2.08.51-3.16.53C43.49,163.8,42,166,40.14,165.1Z"/><path class="cls-37" d="M7.3,121c0-3.81-1.59-7.31-2.34-11a1.85,1.85,0,0,0,0-.81c-.54-1.8,0-3.49,1.63-4.06,1.4-.5,2,1.3,2.75,2.31,1.59,2.25,3.72,4.13,4.8,6.74,1,2.42,3.34,4,3.93,6.6a30.75,30.75,0,0,1,.45,10.65,1.75,1.75,0,0,1-.61,1.16c-5.06,4.23-4.66-2.23-6.9-3.53Z"/><path class="cls-38" d="M11.05,129.11c2.19,1.53,3.48,5.21,7.23,3,.64,1.59,0,2.84-1.08,4-.05,1.3.22,2.81-1.82,2.83Q13.2,134,11.05,129.11Z"/><path class="cls-39" d="M40.14,165.1c1.77,0,2.88-3.45,5.12-1,1.14,1.52,2.3,3,2,5.13a1.8,1.8,0,0,1-2-.19l-5-3Z"/><path class="cls-40" d="M124,177.89c-2.78-2.7-4.43,1.42-6.81,1.14-1.63-.77-3.8-1.06-3.28-3.73.39-1,1.8-.76,2.18-1.86-2-.49-1.42,2-2.71,2.27-4.67,2-9.43,2.85-14.39,1.2-1.3-.58-2.41-2.12-4.09-.78-.86-.07-1.24-.64-1.48-1.38a3.58,3.58,0,0,1,.27-2.28,3.67,3.67,0,0,1,2.68-1.61c9.6,0,18.71-2.44,27.7-5.48,2.43,2,5.81,1.94,8.29,3.86a4.32,4.32,0,0,1,1.72,2.83C131.75,175.78,126.84,175,124,177.89Z"/><path class="cls-41" d="M156.13,156c-2,2.65-4,5.21-7,6.82-1.3-.44-1.68.28-1.77,1.39-1.69,2.08-4.21,3-6.31,4.52-1.46.93-1.53-.52-1.73-1.18-.41-1.38-1-2.32-2.6-2.14a2.79,2.79,0,0,1-1.78-3.33c.9-1.11,2.26-1.09,3.49-1.31,1.83-.34,1.91-1.38,1.25-2.79a3.42,3.42,0,0,1,0-1.39,4.61,4.61,0,0,1,3.36-2.44c1.5-.17,3.3-.5,4,1.12.89,2.09-1.74,3-2.06,4.94,1.39-3.43,5.67-1.32,7.37-4.17C154.83,154.13,155.11,154.12,156.13,156Z"/><path class="cls-42" d="M156.13,156c-1.67-1.64-2.22,0-3,1-2.32,1.17-4.63,2.14-5.54-1.55-.57-2.31-2.66-.2-3.59-1.34.17-3.19,2.68-3.93,5.05-4.81a2.39,2.39,0,0,1,2.76,1.85c.28,2.52,2,1.15,3.28,1.31s4.13-.85,3,2.5h0Z"/><path class="cls-43" d="M137.11,164.74c1.24-1.23,2.49-2.62,3.08.47.22,1.19-.57,2.63.88,3.5-.7,1.76-2.3,2-3.87,2.35a2.78,2.78,0,0,1-1.8-2.71,5.08,5.08,0,0,1,.85-2.58A10.91,10.91,0,0,0,137.11,164.74Z"/><path class="cls-44" d="M136.16,168l1,3.09-3.11,1c-.65-.72-1.31-1.43-2-2.14a2.87,2.87,0,0,1-.59-2,2.21,2.21,0,0,1,.74-1.17A3.93,3.93,0,0,1,136.16,168Z"/><path class="cls-45" d="M147.38,164.19c-1.32-1.1-.4-2.1.43-2.6s1.21.44,1.34,1.22Z"/><path class="cls-46" d="M71.16,180.09a16.88,16.88,0,0,1-7-2c-3.89-1.42-3.81-4.86-4.13-8.1,3.44-1.14,6.12.84,8.95,2.18.74.41.58,1.9,1.94,1.57a3.77,3.77,0,0,1,1.1-.32c1.26,0,2.46.39,3.71.45,1.64,0,3.19.6,4.89.6-.5-.69-1.39-.84-1.73-1.61a1.53,1.53,0,0,1,.56-1.29,7.7,7.7,0,0,1,4.58-.69,6.42,6.42,0,0,1,4.29,2,4.58,4.58,0,0,1-.85,4.41,6.73,6.73,0,0,1-4.66,1.5C78.82,178.39,74.86,177.9,71.16,180.09Z"/><path class="cls-47" d="M71.16,180.09c1.63-4.89,5.15-4.16,8.62-2.65,2.61,1.13,4.83-1.05,7.29-.38a3.32,3.32,0,0,1,1.44,1.59c3.06,5.81-2.7,2.95-4.2,4.28-1.36-.49-2.7-1.12-4.22-.82a3.63,3.63,0,0,1-3.83-.16C75,180.19,72.44,181.86,71.16,180.09Z"/><path class="cls-48" d="M60.21,170c2.57,2.05,1.13,6.1,4,8-4.89-1.48-9.72-3.08-14-6,.77-2.93,3.82-2.86,5.71-4.33A7.32,7.32,0,0,1,60.21,170Z"/><path class="cls-49" d="M56.22,168c-1.18,2.57-4,2.66-6,4-2.14-.2-3.51-1.7-5-3l2-.05c1.49.87,1.45-.48,1.82-1.26a4.17,4.17,0,0,1,1.09-.61c1.26-.26,2.27-1.11,3.48-1.48C55,165.94,56.46,166.05,56.22,168Z"/><path class="cls-50" d="M76.26,182l3.84.16c-1.1,1.49-2.77.62-4.14,1l-2.67-.22C74,181.77,75.22,182.11,76.26,182Z"/><path class="cls-51" d="M158.11,155c-1.13-2.61-2.72-1.79-4.63-.85s-3.77,1.08-2.3-2.08a21,21,0,0,1,3.08-4.29c1.5-1.45,1.52-3.09.46-4.82-.43-2.77,1.61-4.25,3.14-6a1.86,1.86,0,0,1,1.33-.12c.63,2.25,2,3.23,4.39,2.64,1.58.38,3.35.22,4.59,1.57C166,146.5,162.15,150.81,158.11,155Z"/><path class="cls-52" d="M175.19,105c0,1.17,0,2.33,0,3.49s0,2.16,1.34,2.28,1.5-1,1.64-2a4.81,4.81,0,0,1,3-3.71,94.32,94.32,0,0,1-3,16c-.33.33-.66.67-1,1a1.18,1.18,0,0,1-1.2.33,4.42,4.42,0,0,1-1.58-1.23,18.45,18.45,0,0,0-2.82-3.59c-.65-2.78,1.32-5.21,1-8.07a7.65,7.65,0,0,0-1.67-4.31,2.16,2.16,0,0,1,.06-1.44C173.3,101.23,174.31,102.92,175.19,105Z"/><path class="cls-53" d="M168.17,141c-1.71-.17-3.58.56-5.07-.86.07-.17.14-.33.2-.49.39-1-.84-1.75-.56-2.77.86-1.79,3.31-1.29,4.24-3,2.54.43.86-2.22,2-2.8,2.29-.92,3-4,5.84-4.18.12,0,.27.15.38.25s.2.51,0,.84C174.33,133.17,170.09,136.47,168.17,141Z"/><path class="cls-54" d="M175.2,128c-2.11-.94-2.54,1-2.83,2.06-.64,2.37-1.92,1.49-3.25,1l-.67-.33c-2.37-3.06-1-5.52,1.24-7.84,1.8-.72,3.78-.92,5.51-1.87l1,1c.92,1.32-1.46,2.59-.05,3.91A2,2,0,0,1,175.2,128Z"/><path class="cls-55" d="M176.13,126c-1.79-1.33-.39-2.61.05-3.91h1C176.85,123.36,176.49,124.66,176.13,126Z"/><path class="cls-56" d="M106.2,7.07l-2.07-1.21,1.08-1,3.9.26c9.63,3,19.16,6.15,28.08,10.9l-.45.51c-3.39.57-6.41,1.62-7.27,5.52a1.59,1.59,0,0,1-1.29.21c-1.37-1.38-1.47-3.83-3.75-4.45-3.29-1.22-7.34-.85-9.46-4.5,2.52-1.65,2.57-3-.56-3.79-1.42-.37-2.91-.2-4.35-.52A14.78,14.78,0,0,1,106.2,7.07Z"/><path class="cls-57" d="M104.21,6.08c-.14,1.42-.7,2.2-2.2,1.33a5.6,5.6,0,0,1-1-1L103.35,6A8.43,8.43,0,0,1,104.21,6.08Z"/><path class="cls-58" d="M98.23,176.05c5.41,1,10.67-.37,16-1h0c-.29,2.31,3.28,1.71,3,4-2.28,2.06-5.68,1-8,2.9l-3.9.21-3.14.73c-1.62-1.31-3.23-.9-4.84,0l-2.09,0a1.28,1.28,0,0,1-.19-1.25c.87-1.49,2-2.89,1.8-4.79C97.06,176.19,97.37,175.62,98.23,176.05Z"/><path class="cls-59" d="M95.2,182.09v.8l-10.9,0c.69-1.6,6.16.34,3-4.08,1.32-1,.46-3.19,2.21-3.93,1.38.15,1.76,1.22,2.13,2.3a9.47,9.47,0,0,1,.19,1.3C91.91,180.69,94.3,180.7,95.2,182.09Z"/><path class="cls-60" d="M97.29,182.91c1.6-2,3.2-3.32,4.84,0Z"/><path class="cls-61" d="M8.09,68.9l1.14,2.15a2.16,2.16,0,0,1,.34.88c.3,1.81-.81,3.31-1.1,5,.91-1.73,2-2,3.28-.38-.13,3.54.62,7.24-1.85,10.34a2.71,2.71,0,0,1-1.34.45c-2-1.57-1.14-5.08-4.08-6a4.42,4.42,0,0,1,.74-4.27l.12-3.62C7.22,72.51,5.72,69.53,8.09,68.9Z"/><path class="cls-13" d="M5.22,77.05l-.06,5c1.37,1.34,1.3,3,1,4.69-.83,2.25-.68,5-3,6.54-3.16-1.72-.33-5-1.82-7.12l-.07-2.07C3.37,81,1,77.07,3.2,74,4.12,74.86,1.49,78.06,5.22,77.05Z"/><path class="cls-5" d="M8.09,68.9c-1.25,1.31-.35,3.92-2.75,4.53,1.59-3.69.76-8.23,4-11.34.25,1.78-.56,3.34-1,5C8.22,67.68,8.16,68.29,8.09,68.9Z"/><path class="cls-62" d="M3.2,93.05l1.89-6.18A2.51,2.51,0,0,1,6.22,88.5c.25.86.47,1.74.74,2.61a17.12,17.12,0,0,1,.48,2c.11.47.2.93.3,1.39,2,3.09,3.85,6.19,4,10,.11,2.06,1.45,3.65,2.71,5.24s2.26,3.36.88,5.45a1.75,1.75,0,0,1-2.13-.2c-1.26-3.71-5.18-5.53-6.16-9.49A6,6,0,0,0,5,109.24c-.28-3.68-.59-7.37-.82-11.06-.1-1.46.32-3-.9-4.21A.56.56,0,0,1,3,93.38Q3.08,93.05,3.2,93.05Z"/><path class="cls-63" d="M3.2,93.05a3.54,3.54,0,0,1,.08.92c-.47,2.37-.58,4.84-1.93,7V86.16C3.44,88.06,1.05,91.16,3.2,93.05Z"/><path class="cls-64" d="M139.27,17.94c6.64,3.09,11.92,7.94,17,13.09a2.34,2.34,0,0,1-1.86.83,14,14,0,0,1-2.73-.52,4.81,4.81,0,0,1-2.36-1.18,8,8,0,0,1-.86-1c.12.31.4.48.61.74a20.49,20.49,0,0,1,2.77,2.82c.48.81,1,1.62.32,2.58a3,3,0,0,1-1.35.37c-3.9-1.13-6.37-4.32-9.25-6.8-1.82-1.57-3.57-3.25-5.52-4.69a4.25,4.25,0,0,1,.78-4A2.39,2.39,0,0,0,139.27,17.94Z"/><path class="cls-65" d="M151.18,35.08l1,0c2.74.33,4.07,2.6,5.85,4.26,1.75,3.12,4.54,2,7.12,1.77a18.22,18.22,0,0,1,4.22,6.85l-.54.4c-2.93-1.64-5.92.15-8.87-.13-1.22-1.75-3.22-2-5-2.64a7.87,7.87,0,0,1-3.8-5,39.89,39.89,0,0,1-.61-4.23A2.08,2.08,0,0,1,151.18,35.08Z"/><path class="cls-66" d="M157.23,40l-5-5-1.05-2c-1.1-1.49-.07-2.27,1-3l2,1c2.12,1.12,3.71,3,5.93,4l1,1.09c.52,1.59,2.27,3.2.41,4.84C159.83,42.53,158.57,40.81,157.23,40Z"/><path class="cls-67" d="M175.19,59.06c-4.11-1.55-5.34-5.43-7.14-8.84,0-.2,0-.41,0-.61a2.79,2.79,0,0,1,1-1.5l.33-.18C172.07,51.26,173.63,55.16,175.19,59.06Z"/><path class="cls-68" d="M157.23,40c4.31,1.79,4.93-.19,3.9-3.84l4.06,4.91C161.38,43.74,160.18,43.58,157.23,40Z"/><path class="cls-69" d="M139.27,17.94c.18.45.36.9.53,1.35.43,1.09.88,2.66-.19,3.09-1.9.78-1.1-1.93-2.31-2.35a1.76,1.76,0,0,1-1.46-1,2.33,2.33,0,0,1,0-1.23,3.63,3.63,0,0,1,1.25-1.36l.06-.38Z"/><path class="cls-70" d="M160.13,35.08c-2.87,0-4.34-2.11-5.93-4l2.05,0A10.92,10.92,0,0,1,160.13,35.08Z"/><path class="cls-71" d="M163,57.09c4.43,6.06,5.4,13.34,7.15,20.34.24.95.13,2,1,2.68,2,2.46,1.43,5.5,1.89,8.31a3.44,3.44,0,0,1-1,2.14,3.65,3.65,0,0,1-2.2.89,1.69,1.69,0,0,1-1.25-.88c-1.13-7.19-1.44-14.53-4.16-21.46-1.52-3.89-3.76-7.44-5-11.44a5.1,5.1,0,0,1,0-1.46A3.09,3.09,0,0,1,160,55C161.76,54.6,162.36,55.88,163,57.09Z"/><path class="cls-72" d="M172.22,89.07a23.65,23.65,0,0,1-1.07-9c.47-3-.51-5.85-1-8.76-.17-1-1.51-2.36.16-2.95s2.34,1.13,2.55,2.3c.61,3.38.88,6.81,1.38,10.2a9.61,9.61,0,0,0,1,2.17c1.58,1.4,3.23,2.77,3.14,5.18-1.4,1.15-3.11,1.29-4.81,1.45A2.28,2.28,0,0,1,172.22,89.07Z"/><path class="cls-73" d="M178.1,88.2c-1.08-1.65-3-2.84-2.92-5.13.41-2.57-1.23-6.73,2.12-7.11,2.57-.29,1.48,4,2.38,6.2a7.06,7.06,0,0,1-.43,6.61l-.06.26C178.36,89.37,178.1,89,178.1,88.2Z"/><path class="cls-74" d="M163,57.09c-1.46,0-1.79-1.45-2.79-2a1.32,1.32,0,0,1,.49-1.73,4.34,4.34,0,0,0,2.77-4.6c1.69-.72,3-.45,3.68,1.41a7.46,7.46,0,0,1-1,5c-.75,1-2.29.74-2.88,1.94Z"/><path class="cls-75" d="M163.31,57c-1.25-3.94,2-1.2,2.88-1.94C166.08,57,164.75,57.11,163.31,57Z"/><path class="cls-67" d="M167.15,50.14a3.89,3.89,0,0,0-3.85-.79l-.32-.77c2.56-2.52,4.26-1.9,5.25,1.41l-.18.23A3,3,0,0,0,167.15,50.14Z"/><path class="cls-76" d="M175.19,105c-1.12-1.11-2.18-2.43-3.94-1-2-2.11-1.33-4.66-1.2-7.13a4.5,4.5,0,0,1,.62-1.54,1,1,0,0,1,1.43-.25l2.06,1A14.57,14.57,0,0,1,175.19,105Z"/><path class="cls-77" d="M172.1,95.13l-.77,0a7.84,7.84,0,0,1-1,.11c-1.89,0-4.43.32-4.41-2.35s2.88-1,4.21-1.87l1.05-.94c1.68,1,2.94-.57,4.44-.73,1.74.12,3.4.37,3.64,2.59a1.58,1.58,0,0,0-.5.18Z"/><path class="cls-78" d="M179.3,92a5.16,5.16,0,0,0-4.06-1.85c-1.12.53-2.05.7-2-1a5.41,5.41,0,0,1,4.85-.89l1.09.83C179.52,90,180.75,90.94,179.3,92Z"/><path class="cls-79" d="M115.19,13.08c2.9,2.42,6.81,2.31,10,4-1.64,1.64-3.8,1.78-5.9,2.07-3.08-.32-6.08-1.09-9.11-1.65a23.45,23.45,0,0,1-3.64-.51c-2.52-.94-5.27-.49-7.8-1.36s-5.24-1.32-5-5c.17-2.69-2.63-1.25-3.67-2.34A1,1,0,0,1,90.14,7a6.5,6.5,0,0,0,.28-.85c3.78-.59,7,0,8.77,3.94,3.54,1.19,7.28.42,10.88,1.06C111.76,11.81,113.83,11.52,115.19,13.08Z"/><path class="cls-80" d="M90.14,7l.07,1a4.86,4.86,0,0,1,1.1,4.14,3.57,3.57,0,0,1-2.82,3c-8.28.51-16,3.65-24.1,5.11-3-.63-6.31.44-9.21-1.25l3.07-1.93c2.09.37,3.44-1.06,5-2.05s3.54.18,5.09-.93c3.43-1.72,7.75-.23,10.89-3,2.16-1.09,4.52-.68,6.68-.39,2.36.31,2.84-.77,3.09-2.57Z"/><path class="cls-34" d="M89,8.14v4.47c-3.26-2.32-6.57-1.4-9.77-1.51,1.42-1.69,3.37-1,5.08-1C86.21,10.14,87.85,9.88,89,8.14Z"/><path class="cls-34" d="M68.31,14.11C66.82,15.58,65,15,63.22,15,64.67,13.4,66.59,14.28,68.31,14.11Z"/><path class="cls-81" d="M18,49.94l1.35-1.8,1.77,0c1.45.84,3,1.44,4.52,2.15A4.47,4.47,0,0,1,26.7,51a9.21,9.21,0,0,0,4.45,3.45,29.54,29.54,0,0,1,2.63,1.84c1.86,1,3.77,1.92,5.55,3.06,1.65.92,3.2,2,4.82,3,.55.3,1.08.62,1.62.94.74.41,1.44.87,2.15,1.34a53.94,53.94,0,0,0,5.77,2.94c2.93,2.22,6.89,3,8.87,6.55a1.76,1.76,0,0,1-.45,1.31c-4.06.9-6.34-3-9.82-3.64a76.72,76.72,0,0,0-7.7-4.93C37,63,30.07,58,22.19,54.71A12.36,12.36,0,0,1,18,49.94Z"/><path class="cls-82" d="M26.18,51l-.48,0h-.49c-1.08-1.13-1.63-2.39-.85-3.93a27.18,27.18,0,0,0,4.94-8.93c1.31-.7,2.16-2.15,3.82-2.27.35,1.76.21,3.59.8,5.32C31.78,44.84,30.18,48.88,26.18,51Z"/><path class="cls-83" d="M24.36,47.11A6.3,6.3,0,0,1,25.21,51c-2.28.31-2.82-1.81-4.09-2.93Z"/><path class="cls-84" d="M16.18,62c.87-2.92,2-5.8,1-8.92,2.3-.79,3.66,1,5.36,1.92.76,1.55.09,3-.31,4.47-.84,2.16-1.65,4.33-2.58,6.45-.48,1.1-.82,2.7-2.72,2.09A5.29,5.29,0,0,1,16.18,62Z"/><path class="cls-85" d="M16.18,62c.38,2.06.76,4.11,1.13,6.17a2,2,0,0,1,.21,1.5C16.2,71.9,16,75.75,11.74,73.8a3.38,3.38,0,0,1,.49-3.74A15,15,0,0,1,16.18,62Z"/><path class="cls-86" d="M12.23,70.06c0,1.33,0,2.66,0,4,.55,1.11-.12,1.61-1,2C9.47,75.82,8.83,77.53,7,78.53c.84-2.82,1.53-5.15,2.22-7.48Z"/><path class="cls-87" d="M22.2,55.1c-2.14.48-3.43-1.14-5-2-.11-1.15-.37-2.33.82-3.15,2.41.33,3,2.57,4.22,4.1a.64.64,0,0,1,.24.71C22.37,55,22.28,55.1,22.2,55.1Z"/><path class="cls-88" d="M110.17,12.1a25.1,25.1,0,0,1-11-2c1.78,0,3.56,0,5.33-.07,1.92-.12,2.58-1.11,1.68-2.93a6.1,6.1,0,0,1,4,1c.79,1.32,3.93-.45,3.39,2.42C113.22,12.23,112,13,110.17,12.1Z"/><path class="cls-89" d="M33.31,35.09c.17-1.93.64-3.65,2.9-4.09,1.42-1.38,3.29-2.17,4.63-3.65,2.75-2.77,6.31-3.24,9.95-3.53,1.32.74,1.33,1.86.89,3.1-4.4,2.83-8.16,6.63-13.08,8.67C37,33.35,35,35.9,33.31,35.09Z"/><path class="cls-90" d="M33.31,35.09c1.68-1,3.37-2.31,5,.07-.43,3.06-1.39,5.65-5.07,5.92-3.07-1.65-.21-3.44-.12-5.17A4.64,4.64,0,0,1,33.31,35.09Z"/><path class="cls-35" d="M41.46,28.16c-1.36,1.66-2.73,3.32-5.25,2.84l-2.89-1.89,3.9-2.05C39,26,40.35,26.61,41.46,28.16Z"/><path class="cls-91" d="M41.46,28.16l-4.24-1.1a10.47,10.47,0,0,1,4-4,6.84,6.84,0,0,0,3.06-2.89c2.67-.92,2.66,2,4.14,2.84a1.26,1.26,0,0,1,1.67,1.23c-.08.83-.37,2-1.31,1.5C45.38,24,43.83,27.22,41.46,28.16Z"/><path class="cls-92" d="M50.06,24.23,48.39,23c.13-2.47,0-5.14,3.7-4.87l1.14.89c.83,2.27.83,2.27-1.92,2.41C53,22,53.64,23.53,54,25.31a2.54,2.54,0,0,1-.9,2A1.66,1.66,0,0,1,51,27C51.1,25.91,51.57,24.73,50.06,24.23Z"/><path class="cls-93" d="M53.22,25.06A30.61,30.61,0,0,1,51,21.36c-1-2.34,4.12,1,2.25-2.34h2l9.08.09c0,2.49-2.16,2.46-3.64,3.21S57,22.94,56.28,25a4.68,4.68,0,0,1-.83,1.1C54.27,26.68,53.78,25.81,53.22,25.06Z"/><path class="cls-39" d="M46.22,158c-3.33,2.49-5.66,2-9.31-.7-5.07-3.77-7.71-8.74-10.69-13.79-1.18-2,1.51-2.81,1-4.47,1.84-.64,2.77.69,3.6,1.84,4,5.49,8.28,10.58,14.06,14.27C45.81,155.78,46.69,156.64,46.22,158Z"/><path class="cls-94" d="M46.22,158c-7.8-4.85-12.86-12.46-19-19l.05-.06a13,13,0,0,1-1.83-2.8,6.73,6.73,0,0,1,0-3.45,3.63,3.63,0,0,1,.7-1.22c.82-.6,1.64-1,2.46,0C31.81,142,40.27,148,48.15,154.47c1.74,1.43,4.26,2.13,4.36,5-.53,1.11-1.28,1.4-2.31.61a6.17,6.17,0,0,0-1,0c-1.16-.42-2.45-.65-3-2Z"/><path class="cls-95" d="M26.19,136.07,27.25,139c-1.63-1.08-2.6.35-3.83,1-3.21,1.61-5.36,1.28-5.12-3,1.34-.48,2.79-.74,3.88-1.79C23.82,134.13,25.2,134.26,26.19,136.07Z"/><path class="cls-95" d="M17.2,136.08c-.47-1.55.31-2.76,1.08-4h0c1.36-1.51,3.32-1.37,5.06-1.87,1.26.09,2.84-.32,2.84,1.78l0,.06c-1,2-3.4,2.27-4.86,3.72-1,.75-2.05,1.24-3.21.26Z"/><path class="cls-96" d="M50.2,160.05a2.22,2.22,0,0,0,2-1c0-1.65.15-3.22,1.71-4.23a2.05,2.05,0,0,1,1.34,0,3.78,3.78,0,0,1,1.36,2.32c0,2.73-2,4.37-3.42,6.36a3.54,3.54,0,0,1-1,.84,1.81,1.81,0,0,1-2.06-1.37A2.12,2.12,0,0,0,50.2,160.05Z"/><path class="cls-97" d="M19.24,145c.15-1.23-.23-2.73,1.69-3,1.67-.22,2.24,1,2.95,2.09.43.64,1.29,1.33.32,2-.37.27-1.19.09-1.75-.06-1.09-.3-2.14-.72-3.21-1.09Z"/><path class="cls-98" d="M49,168.26c.21,2-1,.88-1.72.75a4.65,4.65,0,0,1-2-4.89c1.05-.29,1.31-3.27,3.14-.92A11.58,11.58,0,0,1,49,168.26Z"/><path class="cls-99" d="M49,168.26c-.94-1.61-2.83-3.1-.56-5.06l1.71-.26L52.19,164c.77,2-.61,3-2,4Z"/><path class="cls-100" d="M18.17,136.05l3.06-1c1-.4,1.25.08,1,1-.92,2.11-2.31,2.09-4,.89C18.27,136.65,18.22,136.35,18.17,136.05Z"/><path class="cls-39" d="M46.22,158l3,2C46.89,161.4,46,160.52,46.22,158Z"/><path class="cls-38" d="M23.19,131.05c-1.34,1.72-3.3.53-4.9,1-1.22-3.61-.63-7.39-1-11.08a1.24,1.24,0,0,1,1.27-.15c2.32,2,2.56,5.17,4.15,7.6A4.52,4.52,0,0,1,23.19,131.05Z"/><path class="cls-101" d="M18.23,121l-1,0-4-6,2.12-.05a2.23,2.23,0,0,1,2.49,1.18C18.48,117.75,19.46,119.31,18.23,121Z"/><path class="cls-102" d="M125.32,166.15c-9.41,3.41-18.88,6.55-29.12,5.86-1-.62-1.72-1.34-.94-2.6a3.58,3.58,0,0,1,2.53-1.4c10-.6,19.36-3.65,28.47-7.63a3.58,3.58,0,0,1,2-.09,2.32,2.32,0,0,1,1.26.85,3.06,3.06,0,0,1-.28,2.2C128.28,164.8,127.46,166.39,125.32,166.15Z"/><path class="cls-103" d="M91.18,178l-1-2.94c.06-.28.11-.55.15-.83.65-8.19,1-16.38-.26-24.56a76.35,76.35,0,0,1,0-14.5c1-3,.54-6.17.71-9.27.11-2.07-.4-4.35,1.7-5.85,2.48,1,2,3.23,2,5.1-.14,15.94.57,31.88-.43,47.8,0,.73,0,1.46,0,2.18C93.62,176.56,93.69,178.61,91.18,178Z"/><path class="cls-104" d="M94.13,172.94c-1.57-1.52-.88-3.46-.88-5.21-.06-14.17,0-28.33-.07-42.49,0-1.76.65-3.71-1-5.19l-.65-.25a5.06,5.06,0,0,1-1.64-4.48c1.31-1.48,2.19-4.67,4.75-1.2a16.34,16.34,0,0,0,.73,6.21c.44,6.9.1,13.8.23,20.7-.19,6.08.3,12.16,0,18.23a36.27,36.27,0,0,1,0,4.3c-.11,2.16.39,4.36-.38,6.48l1,2Z"/><path class="cls-105" d="M125.32,166.15l3.12-2.81c3.31-.46,3.46-.27,3.65,4.9,0,.57,0,1.13,0,1.69-1.52-.51-2.78-1.69-4.66-1.15C125.08,169.47,125.17,167.74,125.32,166.15Z"/><path class="cls-106" d="M114.2,175c0-.91-2.53-1.29-.66-2.55,1-.68,2.12-1.74,3.51-.84a2.3,2.3,0,0,1,1,3c-.93,1.8-2.6-.13-3.86.43Z"/><path class="cls-107" d="M91.18,178c1.59-.33,1.71-2.19,3-2.87l1.11.82.48.75c.35,1.67-.25,2.85-2,3.08-1.24.16-2.63.16-2.61-1.74Z"/><path class="cls-108" d="M98.23,176.05l-.94,1c.15.51,0,1-.52,1-1.25,0-.83-1.54-1.61-2l.1-.14c.11-.88-.4-2.24.82-2.42C97.76,173.27,98.09,174.7,98.23,176.05Z"/><path class="cls-109" d="M107.76,174a.94.94,0,0,1-1.35.84c-.52-.16-1.26-.62-1.33-1-.16-.92.73-.78,1.31-.77S107.65,173.23,107.76,174Z"/><path class="cls-110" d="M158.25,137.12c-.07,2.49-2.93,3.41-3.22,5.77a10,10,0,0,1-6,7l-4.87,4.1c0,.64-.69.64-1,1L140.1,157a10.11,10.11,0,0,1-4.22,3.41,4.14,4.14,0,0,1-1.39.27,1.84,1.84,0,0,1-1.79-1.89c.25-1.66,1.57-2.47,2.74-3.36a94,94,0,0,0,19.91-20.66c.63-.89,1.18-2.09,2.67-1.81C159.53,134.25,159.27,135.67,158.25,137.12Z"/><path class="cls-111" d="M133.17,159.06l2.08,1a2.53,2.53,0,0,1,0,1.91l1.83,2.75c0,.4.07.81.11,1.22-1.33,2-3.37.28-4.95.95l-.18,1.32c-1.81-1.19.14-5.17-3.65-4.9l.73-1.44c1.11-2.22-.81-3.55-1.63-5.13-1.5-2.88-3.5-5.5-4.13-8.79,0-1,.3-1.88,1.41-2.21,1.6.26,2.2,1.63,3.06,2.72,1.53,2.19,2.49,4.7,3.94,6.94C132.77,156.46,132.63,157.89,133.17,159.06Z"/><path class="cls-112" d="M143.18,155c.33-.33.65-.67,1-1l4.17-1.26c.11,4.17.11,4.17,4.83,4.24-.41.5-.82,1.45-1.23,1.45-3.72,0-6.2,1.83-7.59,5.68-2.89-4.3,1-6,2.27-8.4C145.48,154.63,144.27,155.21,143.18,155Z"/><path class="cls-113" d="M135.28,162c-1.37-.61-.18-1.27,0-1.91h0c1.69-.5,3-1.92,4.79-2.16,1,.18,2.07.45,2,1.75a2.28,2.28,0,0,1-2.26,2.24C138.28,162,136.78,162,135.28,162Z"/><path class="cls-111" d="M140,157.93c-1.51.92-2.64,2.66-4.79,2.16,1.42-1.36,2.84-2.71,4.87-3.12A2.38,2.38,0,0,1,140,157.93Z"/><path class="cls-114" d="M149,149.92q3-3.51,6-7c3,.79,2.62,2.71,1.18,4.45a51,51,0,0,1-5,4.69C151.17,150.6,150.28,150.08,149,149.92Z"/><path class="cls-115" d="M132.27,166.92c.44-.6-.77-3.54,1.55-1.34,1.33,1.27,2.3.21,3.4.39l-1.06,2A4.31,4.31,0,0,1,132.27,166.92Z"/><path class="cls-116" d="M88.08,173,84.2,172c-1.68-1-3.46-.42-5.22-.35-2.68,1.24-5.19-.08-7.76-.49a90.94,90.94,0,0,1-10.62-3.85c-1.67-.75-3.25-1.61-3.89-3.5.32-3.38,2.32-2.21,4.23-1.63,5.18,1.56,10.12,3.84,15.49,4.85a76.81,76.81,0,0,0,7.83.76,7.72,7.72,0,0,1,1.49.3c1.39.51,2.88.85,3.8,2.18a2.9,2.9,0,0,1,.15,1.43A1.82,1.82,0,0,1,88.08,173Z"/><path class="cls-117" d="M57.22,164c4.2,3.08,9.31,4.12,14,6.15,1.38,1.3,2,2.6,0,3.92h0c-1.13.63-1.44-.46-2-1l-9-3c-1.7.07-3.24-.18-4-2l-2.92-2c-1-.81-.51-1.84-.43-2.81a2.37,2.37,0,0,1,2-.92C56,162.3,56.62,163.14,57.22,164Z"/><path class="cls-118" d="M79.22,173c.49,0,1,0,1.47,0,1.24.12,3.09-.08,2.68,1.79-.34,1.54-2.14,1.37-3.36.94a12.94,12.94,0,0,0-4.8-.75c-1-.67-2.13-1.82-1.07-2.72A3.25,3.25,0,0,1,79.22,173Z"/><path class="cls-119" d="M79.22,173c-1.35-.55-2.72-1.55-4.17-.59-1.18.78,0,1.74.16,2.61l-4-1c1-1.31.09-2.61,0-3.92l7.8,1c.4.07.58.22.52.44s-.16.38-.27.38Z"/><path class="cls-120" d="M88.08,173l1.09-1.06a1.88,1.88,0,0,1,2.14-.1c.8,1.47.07,2.42-1.09,3.22h0c-1.75.67-.06,3.95-2.89,3.8-.08-.6-.17-1.19-.25-1.79C87.41,175.7,87.74,174.34,88.08,173Z"/><path class="cls-119" d="M69.19,173.06l2,1c-.13,1-.4,2.15-1.62,1.79C67.85,175.33,69.61,174,69.19,173.06Z"/><path class="cls-121" d="M79.25,172a3.25,3.25,0,0,0-.25-.82c1.76.11,3.71-.77,5.2.9Z"/><path class="cls-122" d="M53.31,163.06c0,1,0,1.95,0,2.93-.2,1.92-1.45,2.27-3.09,2l2-4c0-.31.05-.63.07-.94C52.6,162.65,53,162.62,53.31,163.06Z"/><path class="cls-123" d="M158.25,137.12c-.22-1.39.43-3-1-4.07-2.18.07-3.78-1.28-5.52-2.29a23.4,23.4,0,0,0-6.07-2.85c-2.08-1.16-4.56-2-4.49-5a3,3,0,0,1,2.1-.64c6,1.67,10.76,5.56,16,8.66,1.68,1,1.9,2.56,1.27,4.31a3.09,3.09,0,0,1-1.39,1.74Z"/><path class="cls-53" d="M159.08,136.93l.16-1.85a.85.85,0,0,1,1.19-.13c.68,1.83,2.64,3,2.77,5.08l-.1.12C158.65,143,158.53,140.35,159.08,136.93Z"/><path class="cls-124" d="M171.13,96.05l.12,8v1a2.73,2.73,0,0,1,.62,2.06c-.73,3.54-1.73,7-2.54,10.53-.23.91-.54,1.79-.82,2.69a16,16,0,0,1-.69,2c-1.28,2.24-2,4.75-3.34,7a4.63,4.63,0,0,1-1.25.9c-1.3.47-2.6.88-3.58-.59a4.84,4.84,0,0,1,.24-3.84c3.7-8.9,6.33-18,6-27.81a4.69,4.69,0,0,1,.85-2.8C168.5,94.13,170,94.27,171.13,96.05Z"/><path class="cls-125" d="M171.12,106.93c0-.62.08-1.24.13-1.86,5.24,2.09,2,6.14,1.91,9.31,0,1.06-1,2.32-.91,3.69,1.36,2.08.52,3.42-1.48,4.36-2,.46-2.48-1.34-3.44-2.42.31-.65.62-1.3.92-2a3.29,3.29,0,0,1,.8-.69c.85-.75.27-1.82.59-2.7C169.85,112,170.85,109.55,171.12,106.93Z"/><path class="cls-55" d="M170.2,122.06c1.77-.77,2.08-2.3,2.05-4,3.25-1.21,1.63,2.34,2.95,3-.73,3-2.77,2.73-5,2l-.35-.5Z"/><path class="cls-126" d="M160.19,130l3.13-.9c.88.47-1.35,3.2,1.77,2.25,1.12-.34,2.32.88,2.23,2.48.61,3.6-2.38,2.66-4.14,3.28s-2.13-1.09-2.9-2l-1,0c1.16-1.88.36-2.83-1.42-3.79-4.93-2.65-9.75-5.49-14.61-8.26-2.93-1.25-6.66-1.1-8.26-4.69a2.87,2.87,0,0,1,2.16-1.71,6.19,6.19,0,0,1,3.39.78c3.29,2,6.61,3.88,9.85,5.93a17.53,17.53,0,0,0,5.2,2.83A9.81,9.81,0,0,1,160.19,130Z"/><path class="cls-127" d="M167.32,133.87c-.57-1-1.35-2-2.61-1.78-4.22.72-1.81-1.56-1.39-3a1.83,1.83,0,0,1,.76-.2c2.64-1.48,3.41,1.35,5,2.19h0C168.58,132.07,171.07,135,167.32,133.87Z"/><path class="cls-128" d="M160.28,135.11l2.9,2,2.28,2.43-2.26.45C161.43,138.87,159.22,138,160.28,135.11Z"/><path class="cls-55" d="M169.13,131.13l-5-2.19a13.82,13.82,0,0,1,3-6.92c1.35-.72,2.06.55,3,1l.05,0C168.79,125.61,167.29,128.14,169.13,131.13Z"/><path class="cls-129" d="M110.18,16.1l9,2c3.11,1.13,6.94.59,9.06,4a3.66,3.66,0,0,0,.81.18,2,2,0,0,1,.8,2.06,1.86,1.86,0,0,1-.9,1.2A92.64,92.64,0,0,1,108,17.68C108,16.13,109.67,16.92,110.18,16.1Z"/><path class="cls-130" d="M110.17,12.1c1.15-.17,2.63-.4,2.58-1.72-.11-2.27-1.74-.14-2.53-.61s-.1-1.11-.07-1.66c2,0,4-.32,5.92.42A3.2,3.2,0,0,1,118.41,12c-.26,1.93-2.12.74-3.22,1.12C113.49,12.88,111.6,13.69,110.17,12.1Z"/><path class="cls-131" d="M128.22,22c-2.87-1.65-6.53-1.5-9.06-4,2-.34,3.91-1.37,6-1C128.5,17.33,128.19,19.78,128.22,22Z"/><path class="cls-132" d="M129.29,23.8c-.08-.52-.17-1.05-.26-1.58.68-6,1.48-6.55,8.1-5.79a1.91,1.91,0,0,1-1.21,1.82c-1.46,1.18-3.23,2-3.73,4.16C131.92,23.58,131.32,25.57,129.29,23.8Z"/><path class="cls-133" d="M95.16,176.08c.92-.11.82,1.95,2.13,1,2.11,2.84-.52,3.7-2.09,5-2.6-.11-5.48.06-4-4.06C93.75,180,95.13,179.41,95.16,176.08Z"/><path class="cls-134" d="M11.22,76.05c.33-.66.67-1.33,1-2,3.32,0,3-3.6,4.91-5,1.33,1.27.91,2.75.44,4.18a74,74,0,0,0-2.34,11.22c-.53,1.65-.66,3.43-1.31,5.06-2.6,2-3-1-4.36-1.9-.09-.22-.17-.44-.25-.67C11.06,83.49,9.5,79.48,11.22,76.05Z"/><path class="cls-135" d="M5.3,89.11l-.21-2.24c0-1.61,0-3.21.07-4.82,1.22-.74,2.87-3.47,3.05.64.06,1.44,0,2.88.07,4.32C6.61,86.74,8,90.81,5.3,89.11Z"/><path class="cls-136" d="M5.3,89.11c2,.74.26-3.85,3-2.1l1-.09L9.24,87c1.57,1.3,3.54,2.54.83,4.62a3.25,3.25,0,0,1-3.6-.39A2,2,0,0,1,5.3,89.11Z"/><path class="cls-137" d="M18.23,121,17,116.33c-1.52-4.47-3.6-8.74-4.11-13.54-.31-3-1.31-5.65-4.73-6.58C7.26,96,6.8,94.87,6.3,94a1.77,1.77,0,0,1,.07-.94c3.39-1.83,6.89.46,10.31-.32a12.36,12.36,0,0,1,1.49,0,5.7,5.7,0,0,1,2.85.81,1.59,1.59,0,0,1,.49,1.33c-.42.89-1.1,1.62-1.47,2.55-1.95,9.24,1.13,17.73,3.91,26.26.66,2,1.95,3.9,1.51,6.2-1.51,1.3-2.42-.06-3.47-.79Q20.11,125.11,18.23,121Z"/><path class="cls-138" d="M6.3,94c.81.57,1.77,1.74,2.42,1.59,4.64-1.08,5,3.19,5.22,5.22.48,5.32,2.6,10.24,3.09,15.5L15.36,115a6.6,6.6,0,0,0-2.47-5.14,4,4,0,0,1-1.62-2.33C10.92,102.51,8.68,98.25,6.3,94Z"/><path class="cls-138" d="M17.19,94c-3.64.07-7.29.27-10.82-.93,0-.62.07-1.23.1-1.84l3.75-.32c.85-.73,2-.3,2.92-.83.35-1.7-.53-3.65,1-5.1A26.4,26.4,0,0,1,17.19,94Z"/><path class="cls-37" d="M5.57,99.07c.76,1.05,1.4,2,.71,3.49C4.72,101.41,5.5,100.11,5.57,99.07Z"/><path class="cls-139" d="M151.18,35.08c0,.33,0,.66,0,1a3.09,3.09,0,0,1-2.75.89c-4.47-2-8.05-5.15-11.59-8.4-.65-1.44-1.78-2.68-1.85-4.36a.82.82,0,0,1,1.16-.15c2.48-.4,3.92,1.2,5.27,2.86C144.16,30.27,147.73,32.59,151.18,35.08Z"/><path class="cls-140" d="M136.16,24.05q-.47,0-.93,0c-1,1,1.37,2.5-.44,3.43a2.45,2.45,0,0,1-2.87-1.3c-.46-2.31,1.26-4.17,1.28-6.5,0-1.65,1.69-1.33,2.88-.61l1.22.93A6.51,6.51,0,0,1,136.16,24.05Z"/><path class="cls-70" d="M149.2,30.06a3.62,3.62,0,0,1-3.58-2.85c-.19-.82.7-1.11,1.34-1,2.16.41,2.26,2.11,2.24,3.83Z"/><path class="cls-70" d="M152.2,30.06c-.34,1-.69,2-1,3a3.1,3.1,0,0,1-2-3h3Z"/><path class="cls-141" d="M163.3,49.35c2.44,3.78-2.1,3.79-3.09,5.71h0a16,16,0,0,1-3.46,2.61,14,14,0,0,1-1.57,1.07,27,27,0,0,0-5.88,4,10.37,10.37,0,0,1-1.22.69c-8.67,4.26-16.89,9.34-25.33,14-2.24,1.23-4.36,3.36-7.32,1.81-.55-2.68,1.78-3.25,3.31-4.14,3.71-2.17,7.43-4.31,11.06-6.61,3.4-1.54,6.47-3.7,9.77-5.43,3.28-1.54,5.9-4.14,9.14-5.74,1.83-1.2,4-1.69,5.87-2.74a3.82,3.82,0,0,0,2.4-2.46c1.47-2.87-2.58-4.4-1.7-7.11,2.21.21,5.18-.78,5,3.17a1.7,1.7,0,0,1,0,2.7c1.1-.42,1.17-2.42,2.89-1.9Z"/><path class="cls-142" d="M155.27,45c1.72,2.4,4.45,4.44,2.9,8-2.32.27-3.06-1.74-4-3.09A58.45,58.45,0,0,0,136.53,33a12.3,12.3,0,0,1-4.79-4.86,2,2,0,0,1,.5-2l2.95,1a2.62,2.62,0,0,1,2.09.9l10.79,8.14a7.71,7.71,0,0,1,4,4.09C152.44,42.28,154.39,43.29,155.27,45Z"/><path class="cls-143" d="M163.19,49c-1.12.54-1.05,2.87-2.6,2.3-1-.36-.41-2-.28-3.1,2.91-2.15,5.82-3.22,8.77-.07,0,.77-.05,1.49-.85,1.88C166.86,48.09,165.3,47.16,163.19,49Z"/><path class="cls-144" d="M152.06,40.22a8.7,8.7,0,0,1-4-4.09l3.12-.06A5.63,5.63,0,0,1,152.06,40.22Z"/><path class="cls-145" d="M132.24,26.12l-.06,1.95c0,2.94-2.17,4.89-3.29,7.31-1.54,2.94-4.36,5.18-4.73,8.74a19.38,19.38,0,0,1-1.26,3.22c-1.71,3.57-3.77,6.93-5.74,10.35-3.5,5.83-7.43,11.4-10.38,17.57a3.65,3.65,0,0,1-1.79,1.3,2,2,0,0,1-2.4-1.34c-.5-2,.87-3.34,1.84-4.84a112,112,0,0,0,7-12.36c1.55-2.26,3.13-4.5,3.63-7.29A22.19,22.19,0,0,1,117.5,45c1.46-2,2.56-4.25,3.91-6.33.9-1.27,1.5-2.74,2.46-4,2.64-2.76,3.91-6.28,5.34-9.7,0-.4.06-.79.08-1.19,1.63.15,1.89-.84,1.92-2.15.06-3.19,2-3.79,4.71-3.4a4,4,0,0,1,.16.85l-1.88.26C136,22.31,132.64,23.79,132.24,26.12Z"/><path class="cls-146" d="M155.12,58l1-.94c1.34-.39,2.55-1.27,4.06-.94,1.65,3.77,3.43,7.48,4.93,11.31A56.28,56.28,0,0,1,169.21,91c-.91.75-2,.49-3,.35-2.41-2.59-2.93-6.07-3.3-9.2-1-8.28-4.11-15.66-8.08-22.81A1.51,1.51,0,0,1,155.12,58Z"/><path class="cls-147" d="M166.2,91.05h4c-.6,1.56-2.95.29-3.47,2.12,1.13,1.68,3.66.08,4.63,2-.06.3-.12.6-.2.89a6.19,6.19,0,0,0-3.95-1c-1.3,1.27-3.05,1.26-4.67,1.65a3.72,3.72,0,0,1-2.11-.24,2,2,0,0,1-.75-1.15c-.34-1.15,2.62-2.86-.6-3.53a1.29,1.29,0,0,1,.49-1.29A4.63,4.63,0,0,1,161,90C162.84,89.7,164.67,89.67,166.2,91.05Z"/><path class="cls-148" d="M173.25,89.09c.38.88,1.23.88,2,1-1.34.59-2.69,3.54-4,0l1-1Z"/><path class="cls-74" d="M160.19,56.07a6.31,6.31,0,0,1-4.06.94,5.9,5.9,0,0,1,4.07-1.94C160.2,55.41,160.19,55.74,160.19,56.07Z"/><path class="cls-149" d="M90.36,11.87,90.21,8c3.23-.91,6.32-1.6,4.74,3.67-.44,1.46.59,1.34,1.44,1.86,3.1,1.89,6.88.69,10,2.41-.75,1.16-2,1.46-3.19,1.84a6.7,6.7,0,0,1-2.23.15c-2.13-.45-4.32-.53-6.45-1-2.47-.74-2.07-3.09-2.73-4.81C91.28,12.07,90.72,12.35,90.36,11.87Z"/><path class="cls-150" d="M103.2,16.73l3.14-.76,3.84.13c-.71.37-1.42.74-2.12,1.12C106.3,18.47,104.65,18.61,103.2,16.73Z"/><path class="cls-151" d="M90.36,11.87l.93-1.7c2.89.94.94,3.29,1.38,4.94,1.38,5.17,1.26,10.42,1,15.77-.51,12.42.13,24.87,0,37.31a1.91,1.91,0,0,0,.76,1.71,14.45,14.45,0,0,0,2.63.06c5.84,2.23,7.32-2.39,9.41-6,1.92-2,2.23-5.07,4.32-7a1.93,1.93,0,0,1,1.38-.1.82.82,0,0,1,.34.79c-.05.29-.11.43-.19.43-1.81,6.33-6.38,11.18-9.12,17-1.14,1.24-2.74,1.67-4.18,2.39-6.89-2.33-12.69-.15-17.91,4.37-1.41.86-2.2,2.5-3.88,3a3.82,3.82,0,0,1-2.83-.35,3.77,3.77,0,0,1-1.54-2.36c.87-3.06,3.85-4.21,5.74-6.36,1.42-.66,2-2,2.58-3.31a3.33,3.33,0,0,1,1.71-1.09c7-1.44,7-1.44,7-8.71,0-1.49-.05-3-.07-4.46,0-3.11-.21-6.21-.09-9.32.15-4.17-.25-8.33,0-12.5-.06-3.46,0-6.93,0-10.4,0-.8.06-1.62.08-2.42s0-1.51,0-2.25a18.92,18.92,0,0,0-.13-4.05c-.16-1.23-2.09-1.58-1.59-3.15A2.17,2.17,0,0,0,90.36,11.87Z"/><path class="cls-152" d="M88.18,14.1l2.91,2c-3.13,2.15-6.72,2.3-10.33,2.37a16,16,0,0,0-8.89,1.81c-4,1.66-8.17,2.77-12,4.86-1.47.8-3.11,1.3-4.65,0-.18-1.74.37-2.64,2.29-3.09,2.36-.55,4.91-1,6.74-2.87C72.23,17.41,79.85,14.05,88.18,14.1Z"/><path class="cls-153" d="M62.21,74.05l-9-6a2.83,2.83,0,0,1,.15-4C57.26,59.68,60.91,55,67,53.47c3,.87,3.47,4,5.18,6,2,3.41,3.92,6.87,5.9,10.29.9,1.56,2.1,3,1.58,5a10,10,0,0,1-1.63,1.86c-4.49,4.7-4.5,4.69-10.34,1.52a12.15,12.15,0,0,1-1.19-.72C65.09,76.3,63.41,75.49,62.21,74.05Z"/><path class="cls-154" d="M51,27l2.23.08.67.25c1.51,1.39,2.52,2.91,1.36,5-9.41,6.12-16.63,14.55-24,22.77-2.83.07-4.56-1.2-5-4l7.06-10c2.4-1.36,3.37-4,5.07-5.92C42.69,32.66,45.73,28.09,51,27Z"/><path class="cls-155" d="M47.22,65.06l-2-1c1.14-4.66,5.26-7,8.13-10.26A29.63,29.63,0,0,1,59,48.65c-6.28,3.59-9.73,9.82-14.77,14.41-2.12-.24-3.51-1.7-5-3a6.57,6.57,0,0,1,2-4.93c4.35-4.8,8.71-9.59,14-13.36,1.54-1.09,3.07-2,5-1.19,2.38,2.28,4.64,4.63,4.46,8.29A7.41,7.41,0,0,1,62,52.21c-4.3,3.27-8.57,6.55-11.6,11.16C49.69,64.41,48.86,65.62,47.22,65.06Z"/><path class="cls-156" d="M60.2,41.07c-3.75-.13-5.9,2.74-8.19,4.85-4.67,4.31-9.5,8.56-12.8,14.14l-6-3c.11-.21.21-.42.31-.63C39.11,49.71,44.49,42.81,52,38c1.65-1.06,3-2.61,5.28-2.29C59.05,37.06,60.65,38.5,60.2,41.07Z"/><path class="cls-157" d="M47.22,65.06a71.5,71.5,0,0,1,17-16c3,.48,3.3,2.55,3,5-5.08,2.23-8.77,6.18-12.56,10a4.88,4.88,0,0,0-1.48,4A11.21,11.21,0,0,1,47.22,65.06Z"/><path class="cls-158" d="M31.21,55.08c6-9.71,13.46-18,24-23l.42.57c.33,1.8-.9,2.74-2.12,3.59C45.41,41.86,38.92,49.05,33.24,57l0,0Z"/><path class="cls-157" d="M44.21,63.06c4.12-7.28,9.34-13.38,17.49-16.32-5.58,5.71-11.23,11.31-16.48,17.31Z"/><path class="cls-159" d="M73.26,82a2.19,2.19,0,0,1,.95,2l-.52.51a3.61,3.61,0,0,1-2.79.17c-3.85-2.45-7.81-4.71-11.79-7-2-1.55-4.37-2.47-6.26-4.16A3.29,3.29,0,0,1,52,71.72l.24-.66c4-.44,6.24,3.73,10,4a9.27,9.27,0,0,1,5,2h0C69.18,78.76,71.92,79.52,73.26,82Z"/><path class="cls-160" d="M22.2,55.1c0-.35,0-.71,0-1.06,3.92,0,6.64,2.69,9.77,4.43,4.45,2.47,8.85,5,13.27,7.57a2.76,2.76,0,0,1-1.84,1,5.93,5.93,0,0,1-2.1-.09,9.73,9.73,0,0,1-3.45-2A26.07,26.07,0,0,0,34,63.08a18.11,18.11,0,0,1-2.15-1.2c-.84-.57-1.52-1.34-2.4-1.87l-1.14-.55c-2.23-1.58-4.62-.4-6.93-.41Z"/><path class="cls-104" d="M43.17,66.07l2.09,0c2.45,1.48,5.54,2.09,7,5h0C47.63,72,44.63,70.38,43.17,66.07Z"/><path class="cls-161" d="M67.21,77.05c-1.76-.43-3.62-.62-5-2v-1C64.27,74.39,66.15,75.05,67.21,77.05Z"/><path class="cls-162" d="M21.33,59.05c2.63-3,5.25-2.28,7.88,0a94.59,94.59,0,0,0-7.16,19.43c-1.47,3.94-1.38,8.1-1.74,12.2A5.78,5.78,0,0,1,18.23,94h-1a10.21,10.21,0,0,1-3-9c-.35-5.57,2-10.64,3-16a2.67,2.67,0,0,0,.17-.84Z"/><path class="cls-163" d="M53.22,25.06l2,1c1.49-.75,1.7.7,2.36,1.37a11.33,11.33,0,0,1,.61,1.07c.48.91,1.11,1.71,1.67,2.56s.84,1.46,1.28,2.18c2.08,2.61,3.44,5.66,5.26,8.44C68.09,45.06,71.33,47.75,71,52a3,3,0,0,1-.79,1.23c-2.14.25-2.83-1.42-3.54-2.85-3.59-7.21-8.58-13.63-11.61-21.13A4.31,4.31,0,0,0,53.22,27h0C53.23,26.38,53.23,25.72,53.22,25.06Z"/><path class="cls-164" d="M57.2,28.07l-2-2a8.18,8.18,0,0,1,0-1c5.65-1.14,10.51-4.39,16-6a7.66,7.66,0,0,1,7,.61C70.83,23,63.87,25.17,57.2,28.07Z"/><path class="cls-165" d="M54.23,155.05c-.67,1.33-1.34,2.66-2,4-5.57-4.36-11.58-8.2-16.19-13.68-2.33-2.78-4.51-5.68-6.9-8.4a5.22,5.22,0,0,1-.91-5.86l.51-.52a3.13,3.13,0,0,1,2.81.07c2.91,2.29,4.25,5.79,6.62,8.55a72.69,72.69,0,0,0,12.45,12C52.06,152.21,53.82,153,54.23,155.05Z"/><path class="cls-166" d="M22,129.16l3.21.87c.64-1.59,2.11-2.2,3.43-3a56.57,56.57,0,0,1,5.09-3c1.66-.35,2.62-2.62,4.73-1.73a2.7,2.7,0,0,1,.45,2c-1.95,4.8-6.75,5.06-10.69,6.7l0,.06-2,.91c-.73-1.16-1.9-.93-3-1Z"/><path class="cls-167" d="M22.27,136.06l-1-1c1.31-1.61,3.32-2,5-3,0,1.33,0,2.66,0,4A3,3,0,0,0,22.27,136.06Z"/><path class="cls-168" d="M54.23,155.05a65.52,65.52,0,0,1-23-24,5.44,5.44,0,0,1,5.22-3.13c5.33,7.16,10.47,14.48,18,19.59a5.45,5.45,0,0,1,2.67,4.55c-.1,1.36-.53,2.5-2,2.95Z"/><path class="cls-169" d="M53.31,163.06l-1.05,0c1.31-2,2.63-4,4-6.05a39.64,39.64,0,0,1,9.67-17.26,2.14,2.14,0,0,1,1.43.1,2.5,2.5,0,0,1,.52,2,37.11,37.11,0,0,1-3.76,7.44A42.89,42.89,0,0,0,60,156.09c-.61,1.15-1.29,2.25-2,3.37s-1.17,2.83-2.74,3.46Z"/><path class="cls-170" d="M66.3,140.1Q61.25,148.56,56.21,157a2.1,2.1,0,0,1-1-2c.35-1,.69-2,1-3a30.77,30.77,0,0,1,4.14-8.26c1.22-1.55,1.75-3.58,3.36-4.87a2.35,2.35,0,0,1,1.3-.27A1.89,1.89,0,0,1,66.3,140.1Z"/><path class="cls-171" d="M95.21,170c-1.19-1.86-1-3.94-1-6a5.69,5.69,0,0,1,3.88-2c9.13,0,17.42-3.28,25.73-6.52a3.93,3.93,0,0,1,2-.12c2,1.33,4.22,2.57,3.39,5.64-6.8,2.29-13.59,4.65-20.42,6.87C104.24,169.39,99.47,167.9,95.21,170Z"/><path class="cls-172" d="M129.19,161.05c.12-2.34-2.29-3.17-3-5a25,25,0,0,1-3.63-4.8c-1.25-2.36-2.31-4.85-4.13-6.87-1.68-3-3.3-6-5-9-2.07-3.23-3.53-6.83-5.95-9.85-1.9-3.06-2.78-6.67-5.15-9.48a6.65,6.65,0,0,1-1.48-2.35c2.6-4.39,3.6-.26,5.16,1,6.25,8,9.6,17.85,15.72,26,1.63,2.16,2,4.81,2.41,7.4,2,3.61,4,7.21,5.9,10.86.59,1.15,2.09,2.85-.93,3C129.18,161.62,129.19,161.33,129.19,161.05Z"/><path class="cls-173" d="M91.21,172l-2-.11c0-.3,0-.59,0-.88.65-1-.18-1.86-.19-2.8-.14-1.55-.17-3.1-.17-4.65s-.15-3.32-.06-5c0-3.79-.22-7.59,0-11.38,0-3.51-.18-7,.15-10.54.21-1.19.52-2.32,1.8-2.83q1.11.26.48,1.2l0,15A105.85,105.85,0,0,1,91.21,172Z"/><path class="cls-59" d="M91.21,172l0-21.94c2,8,.81,16,.58,24,0,.32-1,.62-1.6.92Z"/><path class="cls-174" d="M91.21,135.05c0-.33,0-.66,0-1-2.53-5.3-2.1-11.24,1-14l0,0C91.65,125,93.39,130.17,91.21,135.05Z"/><path class="cls-175" d="M101.23,114.05a2,2,0,0,1,2,1c-.29.39-.57.93-1,1-5.22,1.33-6.24,5.06-5.66,9.73-.16,3.29.37,6.56.23,9.85s1.66,4.3,4.64,4A29.1,29.1,0,0,0,114.21,135a32.74,32.74,0,0,1,5,9c1.22,2.74-.88,3.52-2.69,4.27a76.05,76.05,0,0,0-7.28,3.23C101,156,95,152.64,94.72,143.42a3.59,3.59,0,0,0-.49-2.37L94.17,119a4.94,4.94,0,0,1-.13-4A7.69,7.69,0,0,1,101.23,114.05Z"/><path class="cls-176" d="M92.17,120c-2.09,4.55-.45,9.37-1,14a2.07,2.07,0,0,0-1,2c-6.22,1.13-12.21.88-17.63-2.87-.38-4.8,3.53-7.9,4.79-12.06,1.84-3,3.22-6.33,6.85-7.71,2.26.23,4.68.12,5.93,2.63C91.54,117,91.31,118.79,92.17,120Z"/><path class="cls-177" d="M94.23,141.05c.91.68.91,1.67,1,2.68.6,7.81,6.78,10.63,13.54,6.4a27.19,27.19,0,0,1,7.26-3c1.83-.49,3.08-1.08,3.2-3.1,2.5,1.66,3.26,4.33,4,7a25.46,25.46,0,0,1-13,6.69c-5.3,1.09-10.54,2.56-16,2.3Z"/><path class="cls-178" d="M90.15,116l-5.91-2c-.65-.38-1.32-.73-1.53-1.55-.41-1.68-.64.53-1,.06-3.47-.08-4.85-2.94-6.79-5.06-.51-1.17-.41-2.5-1-3.65a2.19,2.19,0,0,1,1.41-2.07,2.3,2.3,0,0,1,1.35.08,14.65,14.65,0,0,1,3.74,3.23c2.32,2.53,5,3.67,8.45,2.75,2.9.08,5.72-.56,8.57-.84,2.73.58,5.43,1,7.43-1.64.47-.74,1-1.45,1.51-2.15.85-1,1.24-2.44,2.82-2.63,1.18,2.6,2.92-.54,4.26.4a4.47,4.47,0,0,1,1,3.91c-.76,1.15-2.56.58-3.18,2-1.1,2.62-3.48,4.43-4.49,7.11a2.39,2.39,0,0,1-1.63,1.13c-1.34-.26-1.52-5-4-1-2.15,1.32-4.53,1-6.87,1-.36-.1-.53-.25-.49-.48s.12-.38.22-.38C91.65,112.39,91.55,115.58,90.15,116Z"/><path class="cls-179" d="M94.23,160c3.4-2.06,7.31-1.95,11-2.46,6.49-.88,12.06-4.1,18-6.53,2,1.07,2.64,2.94,3,5-6.26,2.24-12.26,5.29-18.88,6.41-4.33.72-8.73,1.07-13.09,1.59Z"/><path class="cls-180" d="M94.09,114.18l.27.86L94.18,119A3.26,3.26,0,0,1,94.09,114.18Z"/><path class="cls-181" d="M152.19,130.05c1.67,1,3.71,1.39,5,3-3.87,8.2-10.35,14.17-17,20-2.32,2-4.68,4-7,6L131.22,156c-1.32-2.27-.73-4.14,1.27-5.63C140.17,144.67,146.41,137.59,152.19,130.05Z"/><path class="cls-156" d="M141.19,123.05c1.51,1.53,2.91,3.2,5,4,1.05,1.74,1.21,3.71-.28,5-6.41,5.49-11,13-18.72,17l-2-3c-2.35-2.17-4.12-4.66-4.44-8,6.43-4.56,11.52-10.46,16.5-16.47C138.91,121.12,140.09,122,141.19,123.05Z"/><path class="cls-179" d="M127.19,149.06c5.17-5.25,10.06-10.84,15.67-15.57,2.35-2,2.92-3.94,3.33-6.44a11.08,11.08,0,0,1,6,3c-2.9,7.9-9.3,12.82-15.24,18.18-2.39,2.16-6.33,3.34-5.73,7.77C129.2,154.07,128.63,151.32,127.19,149.06Z"/><path class="cls-182" d="M121.2,138c.25,3.21,3,5.16,4,8a2,2,0,0,0-1,2q-9.49-16.47-19-32.94c.35-.34.69-.69,1-1,2.7,0,3.29,2.36,4.26,4.08,2,3.56,4.13,7.05,6.29,10.51C118,131.88,121,134.29,121.2,138Z"/><path class="cls-183" d="M90.2,164v5a3.89,3.89,0,0,1-4,0h-1c-6.89-1.1-13.74-2.34-20.23-5.1-2.86-1.22-5.76-2.33-7.76-4.89l2-3c1.23-2.16,3-1.68,4.7-.83a61.94,61.94,0,0,0,22.67,6.61A4.1,4.1,0,0,1,90.2,164Z"/><path class="cls-184" d="M57.22,159c8.79,4.83,18.4,7.39,28,10-9,.67-17.1-2.89-25.27-5.91-1.44-.53-2.39-1.36-2.72.85l-2-1.05C55.91,161.63,56.56,160.33,57.22,159Z"/><path class="cls-184" d="M86.21,169h4a2,2,0,0,1-1,2Z"/><path class="cls-185" d="M141.19,123.05l-4-1c-3.68-.6-6.14-3.54-9.42-4.9-1.54-.92-3.39-1.5-3.91-3.53.57-.89-.19-2,.43-2.86a2.41,2.41,0,0,1,1.91-.2c2.28,1.34,4,3.45,6.31,4.72,1,.81,2.32,1.34,2.66,2.79l8,5Z"/><path class="cls-171" d="M162.19,96.05c1.4-1.66,3.31-.76,5-1,.79,11.11-1.63,21.58-6.26,31.63a16.53,16.53,0,0,0-.73,3.34l-5-3c-1.11-1.38-.75-2.93-.1-4.24,3.45-7,4.27-14.6,5.44-22.14C160.8,99,161,97.35,162.19,96.05Z"/><path class="cls-52" d="M169.11,118l-.86,0c.81-3.75,1.19-7.61,2.87-11.13.71,3.13-1.2,6-.94,9.1A2.05,2.05,0,0,1,169.11,118Z"/><path class="cls-52" d="M170.16,123l-3-1c.07-.67.13-1.34.2-2,1.5-.08,1.83,1.49,2.87,2C170.2,122.38,170.18,122.69,170.16,123Z"/><path class="cls-186" d="M169.11,118c.36-.66.72-1.32,1.07-2,.88.67,1.36,1.53.5,2.44C170.13,119.05,169.52,118.57,169.11,118Z"/><path class="cls-187" d="M150.19,124.06a34.24,34.24,0,0,1-10-6,2.31,2.31,0,0,1-.64-1.81,122.59,122.59,0,0,1,5.72-20.68c3.32-1.44,6.71-1,10.11-.41,3.88,4,1.94,8.34.21,12.34-1,2.2-1.78,4.13-1.48,6.58C154.59,118.05,151.56,120.76,150.19,124.06Z"/><path class="cls-188" d="M145.2,96.05c.21,7.77-3.68,14.6-5,22l-3-1c-1.88.51-3.13-.74-4.53-1.6-1.35-1.07-3.25-1.75-2.83-4.06,1.33-4.19,2.72-8.35,3.15-12.76a3.83,3.83,0,0,1,1.74-3.32C138.29,94.56,141.85,93.8,145.2,96.05Z"/><path class="cls-189" d="M150.19,124.06c-.39-1-1.31-2.11-.23-3.18,2.68-2.64,4.08-5.52,2.37-9.31a2.53,2.53,0,0,1,.45-2.3c4-3.7,3.26-8.56,3.43-13.21,1.32-1.24,2.65-1,4,0l2,0c-.17,10.82-3,21-7,31C153.14,126.7,151.27,126,150.19,124.06Z"/><path class="cls-190" d="M133.2,115l4,2a2.09,2.09,0,0,1-2,1l-3-2C131.94,115.11,132.18,114.68,133.2,115Z"/><path class="cls-191" d="M103.2,16.73l4.86.49L129.21,25c.9,4.62-1.84,7.49-4.91,10.21a2,2,0,0,1-.49-1.26c1.68-6.32,1-7.18-7.21-8.78a93.26,93.26,0,0,1-9.93-3.05c-2-1.27-5,0-6.6-2.52,1.19-1.62,2.8-.78,4.11-1.05.63-.11-.34-.84-.1-.22-1.18.15-2.66,1-2.86-1.18Z"/><path class="cls-135" d="M13.14,90.09c-.65,1.41-1.83,1-2.92.83,1.38-1.73-.6-2.62-1-3.91C11.38,87,11.92,89,13.14,90.09Z"/><path class="cls-183" d="M29.21,128l-4,2c-4.15-9.52-7.77-19.17-7-29.85.1-1.43-.4-3,1-4.13a4.44,4.44,0,0,1,4.17-.22c2.05,3.45,1.46,7.41,2,11.12.71,5.29,1.53,10.46,3.67,15.39C29.81,124.15,30.62,126.05,29.21,128Z"/><path class="cls-192" d="M21.22,95.05c0-.33,0-.66,0-1A4,4,0,0,1,24.1,92.8c1-.09,2.09-.08,3.13-.09a53.33,53.33,0,0,0,6.57-.14c1.22-.29,1.67-1.61,2.75-2.08a2.82,2.82,0,0,1,2.81.41c.51,1.33,1.59,1.34,2.81,1.39,8.9.38,17.79.93,26.68-.35,1.89-.28,4.84-1.59,5.53,1.21.54,2.19-1.59,3.75-4,4.23a20.22,20.22,0,0,0-7.33-.94q-16.64,0-33.26,0a23.78,23.78,0,0,1-5.33-.28C23.49,95.55,22.21,95.73,21.22,95.05Z"/><path class="cls-193" d="M24.24,94l-3,0-3,0,1-3a4.08,4.08,0,0,1,4.27-.78,2.49,2.49,0,0,1,1.17.93A2.44,2.44,0,0,1,24.24,94Z"/><path class="cls-162" d="M21.22,95.05l3,0c.21.88-.08,1.24-1,1h-4A2,2,0,0,1,21.22,95.05Z"/><path class="cls-145" d="M137.28,28a2,2,0,0,1-2.09-.9c-.23-1-1.63-2,0-3C136.24,25.21,137.57,26.18,137.28,28Z"/><path class="cls-194" d="M106.2,75.05c1.73-6.89,6.72-12,10-18,2.24-1.43,3.89,0,5.12,1.45,3,3.5,6.45,6.58,8.87,10.54-4.2,4.54-10.63,5.72-15,10l-.26.68c-1.34,1.5-2.93,1.53-4.65.82C108.69,78.89,106.91,77.37,106.2,75.05Z"/><path class="cls-195" d="M122.2,47.07l1-3c2.93-6.49,4-6.71,9.78-3,5.54,3.57,9.8,8.47,14.38,13.06a5.27,5.27,0,0,1,1.85,3.95l-9,6c-4-3.43-7.1-7.65-11-11.16C126.91,50.85,123.17,50.58,122.2,47.07Z"/><path class="cls-188" d="M122.2,47.07a51.15,51.15,0,0,1,16.52,14c.72.92,1.49,1.74,1.48,3-3.42,1.49-6.12,4.41-10,5-4-1.64-5.76-5.53-8.49-8.4-1.66-1.74-3.07-3.29-5.5-3.59Z"/><path class="cls-171" d="M128.19,35.06a21.24,21.24,0,0,1,4-7c10.11,6.81,19.2,14.69,26,25a3,3,0,0,1-3,2c-2.34,1.4-3.75-.06-5-1.73C144.39,45.42,136.68,39.77,128.19,35.06Z"/><path class="cls-179" d="M128.19,35.06c2.6-1.15,4.69.69,6.15,1.93,5.73,4.89,12.52,8.65,16.63,15.31.92,1.49,1.93,3.21,4.23,2.76-1.5,2-4.09,1.79-6,3-5-5.6-10-11.31-16.29-15.59-5.5-3.73-5.5-3.73-9.72,1.58C123,40,126.11,37.83,128.19,35.06Z"/><path class="cls-196" d="M160.21,91l-1.06,0a2.54,2.54,0,0,1-2.89.45,8.4,8.4,0,0,1-3.61-6.28c-.19-7.18-3.3-13.4-5.85-19.82-.28-1.43.78-2.29,1.41-3.34l.95-.05a2.79,2.79,0,0,1,2.37-.52c6.23,7.12,9,15.63,10,24.86A5.74,5.74,0,0,1,160.21,91Z"/><path class="cls-197" d="M148.21,62.09l-1,3c-1.76,2.28-4.68,2.87-6.78,4.66-3.16,1.46-6.06,3.37-9,5.11-5.75,2.6-10.52,7.1-16.81,8.64A2.31,2.31,0,0,1,113,82.18c-.21-1.73,1.89-1.81,2.25-3.14h0c2.88.19,5-1.57,7.31-2.83C131.08,71.54,139.25,66.09,148.21,62.09Z"/><path class="cls-74" d="M151.2,62.06l-2,0c1.3-2.36,3.49-3.44,6-4.09l.09,1.12C155.36,62.07,152.65,61.22,151.2,62.06Z"/><path class="cls-198" d="M122.2,39c-1.24,2.08-1.77,4.6-3.76,6.23a2,2,0,0,1-.91-1c-.4-2.69-2.49-3.6-4.63-4.57-5.77-2.62-12.08-2.51-18.11-3.78a4.49,4.49,0,0,1-.25-4.31,1.5,1.5,0,0,1,1.14-.76c4,3,8.13,1.23,12.24.36A26.24,26.24,0,0,1,122.54,36,3.33,3.33,0,0,1,122.2,39Z"/><path class="cls-199" d="M115.21,79c.14,1.57-1.39,2-2.07,3-.29,1,.44,1.61.9,2.33a9.47,9.47,0,0,1,1.33,4.6c-.79,5.19-.79,5.19-5.34,2.12-1.24-1.59-.88-3.89-2.38-5.37-.78-1.05-1.45-2.18-2.22-3.24-1.1-2.09-3.34-2.62-5.14-3.75A2.72,2.72,0,0,1,99.2,77c.35-2.65,2.44-1.77,4-2a2,2,0,0,0,2,1c2.81-.08,3.47,2.52,5,4A8,8,0,0,0,115.21,79Z"/><path class="cls-200" d="M112.32,58.05c0-.35-.09-.7-.14-1-.63-2.42.69-4.26,1.84-6.16a1.93,1.93,0,0,1,2.11,0A10.67,10.67,0,0,1,112.32,58.05Z"/><path class="cls-198" d="M116.13,50.89l-1.8.41c-1-2.81.33-4.84,2.32-6.63a1.62,1.62,0,0,1,1.44.27l.35.33Z"/><path class="cls-200" d="M110.22,80l-5-4,1-1C108.06,76.3,110,77.51,110.22,80Z"/><path class="cls-201" d="M122.2,39l0-3c-.41-1.24.35-1.78,1.33-2.19l.71.19.09,1.13C124,36.68,123.59,38.14,122.2,39Z"/><path class="cls-202" d="M151.2,62.06l4-3c5.56,5.77,7.29,13.31,8.73,20.71.73,3.75,2.29,7.37,2.26,11.27h-6C161.07,80.18,156.44,71,151.2,62.06Z"/><path class="cls-203" d="M160.2,96l-4,0h-22c-1.61,1.45-3.62,1.46-5.59,1.42-4.91-.09-9.81-.1-14.51,1.68a3,3,0,0,1-.22-3.45c2.1-2.59,5.06-1.93,7.79-2s5.59,0,8.38,0c2.18,0,4.36,0,6.54,0,6,0,12,0,17.95,0,2,0,4-.26,5.63,1.35Z"/><path class="cls-204" d="M156.2,91l3,0c0,.31.09.62.12.94-.18.19-.36.37-.53.57-5.63,1.67-11.41.38-17.1.82-1.73.13-3.61-.76-5.19.67a2.07,2.07,0,0,1-1.35.46c-2.21-.26-5.08.57-5.17-3.16,1.46-1.93,3.59-1.64,5.6-1.73,4.22-.16,8.43-.15,12.64-.05C150.93,89.61,153.79,89.09,156.2,91Z"/><path class="cls-205" d="M160.17,95l-24,0c-.33-.2-.44-.41-.33-.62s.2-.32.31-.32V94c3.09-1.83,6.48-.61,9.72-1,4.38-.48,8.91,1,13.19-1l.17-.07C163.37,91.88,160.69,93.78,160.17,95Z"/><path class="cls-206" d="M94.43,70.68c-.36.46,0,2.11-1.25,1-1-.87-1-2.38-1-3.74,0-12.49-.16-25,.09-37.48.14-6.83.5-13.62-1-20.34,1.62-1.52,1.69-.14,1.89,1,.29,1.67-.63,3.62,1.12,5,2.23,2.8,1.53,6.15,1.19,9.15a92.21,92.21,0,0,0,0,16.78c.42,5.8.1,11.65.1,17.48C95.2,63.25,96.53,67.15,94.43,70.68Z"/><path class="cls-207" d="M94.35,60.11l-.06-44c2.43-.44,4.79-.45,6.93,1,1,1.54,2.9.34,4.31,1.69l-4.85.51c2.34,1.48,4.88-.29,6.52,1.73-2.24,1.93-4.85,1.11-7.34.9-1.34-.11-2.64-.52-2.69,1.51a14.62,14.62,0,0,1-.27,2.08c-.61,1.82-.08,4-1.67,5.51v5c2.41,3.07.94,6.68,1.38,10,0,3.24.1,6.49-.08,9.73C96.43,57.49,96.78,59.55,94.35,60.11Z"/><path class="cls-208" d="M65.22,42.06l-5-9c8.45-5.95,18.37-7.36,28.18-9.07a3.31,3.31,0,0,1,2.72,1c0,3.67,0,7.34,0,11a4.12,4.12,0,0,1-2.64,1.21c-6,.14-11.61,2-17.18,4.16C69.44,42.14,67.42,43.44,65.22,42.06Z"/><path class="cls-157" d="M65.22,42.06c8.51-2.6,16.57-7.12,25.93-6q0,6.48,0,13c-7.26-3.16-13.34.65-19.62,3.33A1.41,1.41,0,0,1,70.21,52C70,48,66.91,45.38,65.22,42.06Z"/><path class="cls-209" d="M107.24,64.12c-.52,1.21-1.06,2.4-1.54,3.62-1.65,4.19-4.46,5.3-8.49,3.28-4.45-1.91-2.48-6.18-2.13-8.74.57-4.1.13-8.21.9-12.25a9,9,0,0,1,10.73,2.13C109.39,55.33,110.46,60,107.24,64.12Z"/><path class="cls-210" d="M71.21,52.05c4.65-4.91,11-4.9,17-5.92,2-.34,1.68,2.17,2.91,2.89v10c-.25.43-.89,1.06-1,1-4-4.61-8.09-1.09-12.15-.26a6.32,6.32,0,0,1-1.94.09,4.16,4.16,0,0,1-1.32-.51C73,57.2,70.61,55.37,71.21,52.05Z"/><path class="cls-211" d="M75.21,59.06c3.17-.05,5.88-1.84,8.89-2.41,2.43-.46,5.9-2.62,5.66,2.7l1.4-.29c0,1.66,0,3.32,0,5,0,7.35-1.36,8.57-9,8C78.55,68.44,75.59,64.45,75.21,59.06Z"/><path class="cls-212" d="M117.18,45l-2.85,6.26c.14,2.22-1.53,3.76-2.15,5.7a9.4,9.4,0,0,0-.92.2,1.35,1.35,0,0,1-.55-.78c-.83-7.26-1.23-7.6-8.78-9.46-2.11-.53-4.71,0-6.17-2.37-1-4.78.82-6.42,6.27-5.4,4,.76,8.18.87,11.88,2.84C115.25,42.74,117.29,42.75,117.18,45Z"/><path class="cls-213" d="M96.21,45.06c5.47-.3,10.25,2,15.17,3.89,1.68.63,1.21,1.19.73,2.5-.66,1.78-.6,3.82-.85,5.75-1.15,2.42-1.71,5.18-4,6.92,2.14-8.82-1.4-13.32-11-14.05-.89-1.11-.35-2.42-.49-3.63A1.76,1.76,0,0,1,96.21,45.06Z"/><path class="cls-214" d="M99.2,77l1,1c-.14.15-.27.31-.41.48a5.35,5.35,0,0,1-2.35.63,4.8,4.8,0,0,0-1.64.54c-.66.77-.89,1.84-1.72,2.48-2.86.88-4.3,4.36-7.71,4.21a2.56,2.56,0,0,1-1.29,0c-1.43-.7-1.92-2.2-2.84-3.33-.61-.8-1.65-1.14-2.14-2.06,3.07-1.37,4.91-4.45,8.66-5.2S95.92,75,99.2,77Z"/><path class="cls-164" d="M91.11,25a85,85,0,0,0-25.76,6.47c-1.66.71-3.21,1.75-5.14,1.56a2.09,2.09,0,0,1-1-2c6-5.76,13.78-6.89,21.37-8.27,3.39-.61,7.12-2.48,10.54.28C91.12,23.72,91.12,24.38,91.11,25Z"/><path class="cls-215" d="M91.13,23.07c-10.39.24-20.33,2.28-29.55,7.26a12.22,12.22,0,0,1-2.36.73,3.35,3.35,0,0,1-2-2A60.26,60.26,0,0,1,85.5,19.7c2,.05,4-.17,5.63,1.35Z"/><path class="cls-216" d="M79.2,75c-1.7-5.51-5.58-9.86-8-15,.32-.59.61-1.21,1.4-1.27,1.31.26,1.59,1.49,2.23,2.38C77.35,64.91,80,68.61,81.21,73c1.08,2.17,0,2.88-2,3-.31-.22-.41-.45-.31-.67S79.1,75,79.2,75Z"/><path class="cls-212" d="M96.2,46.05c0,1.34,0,2.68,0,4-.24,5.52-.34,11-.81,16.55-.17,2,1.15,3,1.8,4.4l-2.78-.34c0-3.52-.05-7-.08-10.57,1.62-4.6.33-9.38.85-14C95.53,45.59,95.86,45.61,96.2,46.05Z"/><path class="cls-164" d="M91.13,21.05H85.21a1.12,1.12,0,0,1,.67-1.56c-.43-.44-.71.09-1,.19a7,7,0,0,1-4.35.11c-1.82-.61-1.89-1.63-.27-2.71l10.87-1Z"/><path class="cls-217" d="M81.21,73q-3.51-6-7-12c-.68-1.16-.7-2,1-2l0,0,7,13Z"/><path class="cls-161" d="M79.2,75c0,.33,0,.67,0,1-1.4,2.58-3.9,4-5.95,6-2.14-1.51-4.76-2.42-6.05-5,.17,0,.38,0,.49.06C72.34,80.85,75.93,78.84,79.2,75Z"/><path class="cls-218" d="M74.21,84.05h3c.56.92,0,1.7-.28,2.51-.6,1.24-.54,2.65-1.08,3.91a1.92,1.92,0,0,1-1.09.93c-2.06-.22-3.36-1.24-3.6-3.39-.34-2.33,1.21-3.25,3-4Z"/><path class="cls-219" d="M76.1,86l1.12-1.92L80.14,81c1.09.13,2.34-.15,3,1.1C80.8,83.36,80,87.46,76.1,86Z"/><path class="cls-220" d="M80.23,17.09c-.75,4.08,2.34,1.74,3.45,1.77,1.95.06,3.91-1.52,6.2-.06-1.11,2.12-3.76.43-4.67,2.26-7.72,0-14.61,3-21.56,5.8-2.11.85-3.95,2.44-6.42,2.21,0-.34,0-.67,0-1,5.24-5.17,12.42-6,20.27-9H71.21A15.68,15.68,0,0,1,80.23,17.09Z"/><path class="cls-92" d="M72.25,59l-1,1-4-6-3-5c-.31-3.18-3-5.16-4-8l-3-5c-2.18-.58-1-2.85-2-4h0l-2-5C58.11,31.15,60,37.22,63.31,42.4c2.26,3.58,3.75,7.66,6.88,10.69C71.42,54.88,73.6,56.35,72.25,59Z"/><path class="cls-168" d="M55.2,32.07c.67,1.34,1.34,2.67,2,4A62.44,62.44,0,0,0,37.32,53.91c-1.07,1.51-2,3.06-4.08,3.12-.13-3.78,2.73-6,4.9-8.22,4.8-5,9.17-10.48,15.37-13.91A3.06,3.06,0,0,0,55.2,32.07Z"/><path class="cls-221" d="M39.19,91.09h-3a1.71,1.71,0,0,1-2.28,0c-1.63-2.55-.72-5.21,0-7.65,1.83-6,1.82-12.85,7.3-17.34h2c2.12,3.28,5.51,4.26,9,5l1,2c-3.42,1.34-4.79,4.14-5.83,7.45-1.17,3.73-.87,7.94-3.56,11.18C42.2,92.12,40.59,92.43,39.19,91.09Z"/><path class="cls-222" d="M44.2,91.05A45.84,45.84,0,0,1,48,75.37c1.13-2.8,2.71-3.32,5.24-2.32,2.05,1.27,4.68,1.64,6.05,4-2.22,4.81-1.73,10.66-5.67,14.83C50.38,92.62,47.17,93.28,44.2,91.05Z"/><path class="cls-223" d="M54.21,91.05c1.45-4.76.67-10.33,5.06-14a38.84,38.84,0,0,1,11.94,7c1,1,.32,2.25.45,3.39a6,6,0,0,1-.46,1.42c-.73,1.47-1.56,2.82-3.37,3.13C63.23,92.47,58.59,93.61,54.21,91.05Z"/><path class="cls-161" d="M71.2,88v-4l3,0c-1,1.16-2.38,2.15-2,4A.6.6,0,0,1,71.2,88Z"/><path class="cls-224" d="M41.22,66.07c-3.77,7.92-6.51,16.13-7,25-1.8,1.67-3.76,1.5-5.8.5a2.55,2.55,0,0,1-.88-2.21c.84-7.75,2.38-15.33,5.85-22.38.93-1.89,2-3.94,4.83-2.88Z"/><path class="cls-225" d="M24.21,91l-5,0c0-4.43-.5-9,2-13,2.87-3.74,2.79-8.66,5-12.68,1.21-2.17,2-4.56,3.95-6.27l2,2c.91,1.24.56,2.52,0,3.75-3,7-5.41,14.14-6.13,21.79A6.09,6.09,0,0,1,24.21,91Z"/><path class="cls-225" d="M38.21,64.06c-5.32,2.31-5.37,7.78-6.84,12.16C29.77,81,29.21,86.07,28.2,91a2.24,2.24,0,0,1-3,.29c.94-10.38,3.07-20.4,9-29.25Z"/><path class="cls-226" d="M34.21,62.05c-2.06,7.22-5.92,13.83-7,21.38a71.12,71.12,0,0,1-2,7.62.62.62,0,0,1-1,.06l0-.07c.62-10.54,3.93-20.36,8-30Z"/><path class="cls-227" d="M30.2,59.09q-4,10.05-8,20.09c-.2.49-.13,1.66-.89.33A3.69,3.69,0,0,1,21.21,78c1.61-6.77,2.54-13.84,8-19Z"/><path class="cls-228" d="M72.25,59q-1-3-2-5.95c0-.35,0-.7,0-1.05h1l4,7a2,2,0,0,0-1,2Z"/><path class="cls-167" d="M36.23,128.06l-5,3h-3c2.89-3,7.88-2.94,10-7a6.36,6.36,0,0,1,4-1.83,3,3,0,0,1,2.1.64c.53,1.54-.52,2.25-1.56,3C40.52,126.46,39,128.92,36.23,128.06Z"/><path class="cls-225" d="M23.22,96.05l1-1h5a2.46,2.46,0,0,1,.54,1.47c-1,8.1,1.32,15.67,3.8,23.2.56,1.72,1.38,3.39.63,5.26l-5,3c-.27-4.9-3.65-8.78-4.23-13.69C24.26,108.22,23,102.21,23.22,96.05Z"/><path class="cls-229" d="M34.18,125c-3-8-6.25-16-5.95-24.77,0-1.45-.43-3,1-4.18,1.31-.81,2.68-.52,4.06-.23.23.24.57.49.6.78.8,8.4,3.08,16.53,4.73,24.77l-.36.75C37,123.17,35.91,124.57,34.18,125Z"/><path class="cls-230" d="M42.17,123a6.12,6.12,0,0,1-4,1c0-.64,0-1.28,0-1.92l0-.06c2.44-2.65,5.69-4,8.76-5.75,1.88-.31,3.61-3,5.68-.37a3.16,3.16,0,0,1-1.12,2.57A23.34,23.34,0,0,1,42.17,123Z"/><path class="cls-231" d="M36.23,128.06c2.18-.64,3.59-2.81,6-3,2.59,6,6.15,10.77,13,12.68,2.78.77,6,2.35,6,6.31-1.42,2.82-2.72,5.72-5,8-.09-3-2.72-4.18-4.6-5.42-6.35-4.18-10.3-10.39-14.68-16.25A7.59,7.59,0,0,1,36.23,128.06Z"/><path class="cls-187" d="M90.21,147c0,4,0,8,0,12-5.61-1-11.41-.8-16.9-2.71a34.41,34.41,0,0,1-8.08-3.59c-1.26-.84-3.24-1.44-2-3.69s2-5,4-7C74.94,143.36,83,143.16,90.21,147Z"/><path class="cls-188" d="M90.21,147c-7.63-1.88-15.78-1.35-23-5,0-.66,0-1.32,0-2,.92-3.49,2.15-6.74,6-8,1.63,4.09,5.57,1.33,8.28,2.68,2.5,1.25,5.78.94,8.72,1.32Z"/><path class="cls-225" d="M63.21,149c1.66,2.88,4.63,3.91,7.46,4.94,5.27,1.92,10.69,3.76,16.36,2.83,2.39-.39,2,1.69,3.17,2.22v5c-5.85-1.7-12-1.53-17.86-3.82A83.39,83.39,0,0,1,62.87,156a3.37,3.37,0,0,0-3.65,0C59.6,153.16,61.41,151.1,63.21,149Z"/><path class="cls-232" d="M73.21,132l-6,8a7.13,7.13,0,0,0-.92,0l-1.08-.93c.34-2,1.94-3.38,2.52-5.26,1.23-1.85,2.7-3.53,3.8-5.47,1.68-3.38,4.32-6.37,4.15-10.49,3.51-4.24-.86-7.28-1.65-10.87a.82.82,0,0,1,1.19,0c2.68,1.15,3.65,4.69,6.94,5,.09,3.64-3.33,5.74-4,9.06C77.74,125.29,74.52,128.23,73.21,132Z"/><path class="cls-233" d="M61.22,144c-2.36-2.92-4.61-5.65-9-5.71-3.81-.05-10.64-9.66-10-13.28.67-.67,1.34-1.33,2-2a7.35,7.35,0,0,1,5.21-2.34c5.63,2.74,8.82,8.7,14.78,11.13,1.67.69,2.12,2.82,1.75,4.77A6,6,0,0,1,64.24,139C63.21,140.65,62.83,142.72,61.22,144Z"/><path class="cls-234" d="M64.24,139l1-2c.85-1,.52-2.88,2.34-3.16l.67.21c.35,2.5-1.17,3.9-3,5.12A7.92,7.92,0,0,0,64.24,139Z"/><path class="cls-235" d="M114.21,135c-2.66,3.94-13,7.46-17.06,5.81-1.42-.59-1.8-1.57-1.77-3.11.07-3.89-.1-7.79-.17-11.68,2.59,0,2.23,4.84,5.69,3.39,2.66-1.11,6-1.13,7.32-4.43C111.27,127.71,112.39,131.58,114.21,135Z"/><path class="cls-176" d="M108.22,125c.65,6-5,4.31-7.7,5.79-2.51,1.35-4.69-.18-4.49-3.6,0-.37-.54-.77-.82-1.15,0-.66,0-1.32,0-2,0-6.88,0-6.88,8-9C105.57,118,106.81,121.55,108.22,125Z"/><path class="cls-172" d="M78.21,121.09c-.08-3.62,1.85-6.38,4-9.06,1.83-.48,1.37,1.37,2.08,2Z"/><path class="cls-210" d="M124.13,113.12c.83,1.7,2.6,2.12,4.06,3a2.3,2.3,0,0,1-.13,3.15c-3.25,4.1-5.56,9.39-11.86,9.82-4.58-4.16-5.73-10.61-10-15-.8-3.74,3.89-4.71,4-8C116,106.24,119.9,110,124.13,113.12Z"/><path class="cls-210" d="M114.2,99.07c1.53-2.54,3.75-3.24,6.66-3.08,4.44.23,8.89.06,13.34.06.07,5.69-.61,11.18-4,16-1.75,1.36-2.7-.45-4-1l-2,0c-3.14-2.32-8-1.86-10-6a6,6,0,0,1-1-3.93A2,2,0,0,1,114.2,99.07Z"/><path class="cls-236" d="M108.2,85.05c2.8,1.28,1.86,3.8,2,6,0,.21,0,.42,0,.63a11,11,0,0,0,.47,5.54,6.28,6.28,0,0,1,.24,1.28,2.52,2.52,0,0,1-1.7,2.56l-2,3c-.52-.36-1.08-1.43-1.19-1.31a2.2,2.2,0,0,0,.14,3.29c-2.22,2.33-4.56,4.21-7.93,2a1.53,1.53,0,0,1-.34-1.8c1.35-.83,1.74-2.31,2.41-3.61,2.38-1.55,2.3-4.5,3.61-6.68,1.13-1.87-2.3-2.13-2.9-3.75a1.71,1.71,0,0,1,.14-1.33C104.77,90.49,108.06,89.69,108.2,85.05Z"/><path class="cls-237" d="M88.23,109c-6.32,1.73-8.68-3.49-12.08-6.88-.85-3,.86-2.72,2.78-2.22,1.41.79,2.79,1.64,4.2,2.41,1.11.73,2.2,1.48,3.33,2.19A6.74,6.74,0,0,1,88,105.9C88.62,106.9,89.22,107.9,88.23,109Z"/><path class="cls-238" d="M114.24,105c3,2.47,7.93,1.89,10,6,.06.71,1.11,1.46-.09,2.12-5.13-1.36-9-5.23-13.89-7.05C110.69,102.44,113,105.65,114.24,105Z"/><path class="cls-239" d="M79.2,101.05c-1.39-.68-2.81-1.44-3,1.1a5,5,0,0,0-1-.11l-.47-.49c-1-3.54.32-7,.44-10.49,0-.35,0-.7.07-1,1-.44,1.74.14,2.42.8,1,.3.6,4,3,1.26a5.12,5.12,0,0,1,2.24-1.35,2.32,2.32,0,0,1,1.33.1,2.19,2.19,0,0,1,.58,1.2c-.64,3.22-2.91,5.52-4.58,8.15A3.05,3.05,0,0,1,79.2,101.05Z"/><path class="cls-240" d="M88.23,109c-.35-1-.7-2-1-3s.31-1.4.85-1.11c3.17,1.75,6.16.17,9.22-.29.75.18,1.28.52.95,1.43V108C94.89,108.55,91.63,109.48,88.23,109Z"/><path class="cls-241" d="M109.18,101l1-3c.93-1.59,1.75-3.3,4-3.21a.7.7,0,0,1,.29.75c-.08.26-.16.39-.25.39,0,1,0,2,0,3.06a2.13,2.13,0,0,1-1,2C111.86,102.1,110.51,103,109.18,101Z"/><path class="cls-242" d="M106.13,106c-4.29-2.17-.93-4.25-.63-7,2.41,1.82,1.41,3.58,1.68,5.06Z"/><path class="cls-243" d="M75.22,107h-1a3.08,3.08,0,0,1-2.89,1.35,2.39,2.39,0,0,1-1.44-1.33,2,2,0,0,1,.21-1.28,5.67,5.67,0,0,1,4.13-1.73C76.86,104.28,74.83,106.07,75.22,107Z"/><path class="cls-239" d="M74.22,104.06a6.49,6.49,0,0,1-4,2c-.94.28-1.22-.25-1.29-1,.57-1.42,1.89-2,3-2.84,1-.56,2.11-1.21,3.24-.16l0,0C74.87,102.71,74.55,103.38,74.22,104.06Z"/><path class="cls-244" d="M116.2,129.05c5.38-3,9.68-7.09,12-13,3.18,1.71,6.43,3.34,9,6-3.74,6.93-8.5,12.84-16,16C119.27,135.19,116.9,132.59,116.2,129.05Z"/><path class="cls-245" d="M126.23,111l4,1,3,3-1,1A11.26,11.26,0,0,1,126.23,111Z"/><path class="cls-201" d="M96.18,25l0-2c5.24-2.38,10.32.07,15.48.5,1.84.15,3.55,1.78,5.51.5,3.34-.24,5.69,2.28,8.66,3.1,1.53.42,1.42,1.6.79,2.74-.77,1.4-1.61,2.77-2.43,4.15l0,0c-3.86-2.3-7.81-4.37-12.42-4.67a9.49,9.49,0,0,1-4.39-1.19C103.91,26.1,99.52,27.44,96.18,25Z"/><path class="cls-246" d="M117.19,24.08,119.61,27c-8.25-3-15.82-3.57-23.41-3.92-1.65-3,.72-3.12,2.33-2.66,2.9.84,5.78.48,8.67.65Z"/><path class="cls-247" d="M75.22,102.06l-3,1c-1.82-.72-2-2.26-2-3.93a3.37,3.37,0,0,1,1-2.09c-.24-2,2.56-2,2.57-4.38C66.39,94,59.05,94,51.69,94.16c-4.1.08-8.12-.68-12.27-.35-3.31.27.08-1.77-.23-2.72l5,0h10l15,0c1.36-.55,1.1-2.16,2-3h1c0,1.95,1.72,2.28,3,3C77,94.72,75.16,98.39,75.22,102.06Z"/><path class="cls-248" d="M71.19,97c0,.67,0,1.35,0,2-5.77-2.41-11.83-1.36-17.8-1.57-3.46,0-6.93.06-10.4,0-3.31-.09-6.78.83-9.78-1.44h-4c0-.33,0-.66,0-1,12.08,0,24.16,0,36.24,0C67.65,95,69.77,95,71.19,97Z"/><path class="cls-249" d="M24.24,91.11c.32,0,.65,0,1-.06l3,0,6,0,2,.06c0,1.08.23,2.25-1,2.9a7.76,7.76,0,0,0-8,0h-3Z"/><path class="cls-250" d="M27.22,94c1.07-2.84,5.32-2.85,8,0Z"/><path class="cls-251" d="M156.2,91h-8c-2.65-2.93-2.32-6.7-3.06-10.21-.88-4.19-2.93-8-5-11.78,1.68-2.49,4.33-3.26,7-4,3.81,5.68,6.31,11.7,6.31,18.78C153.5,86.23,155.25,88.63,156.2,91Z"/><path class="cls-176" d="M135.2,91c-1.68.27-3.59-.6-5,1-4.28,1.36-8.67.11-13,.53-1.94.19-2-2.3-3-3.51-.34-1.64-.67-3.27-1-4.91a1.14,1.14,0,0,1,1-1c5.82-2.7,10.85-6.87,17-9C137.45,76.89,139.5,85.56,135.2,91Z"/><path class="cls-244" d="M135.2,91c3.68-6.85-.76-11.78-4-17a20,20,0,0,1,9-5c5.2,2.85,5.59,8.56,6.47,13.19.53,2.82,2.27,5.7,1.55,8.8Z"/><path class="cls-252" d="M114.23,83.08l-1,1c-.7-.19-1.71-.2-1.49-1.25.08-.38.93-.59,1.43-.87Z"/><path class="cls-253" d="M96.18,25c4.12,0,8.22.08,12,2-2.21,1.36-4.45.16-5.66.17,2.61-.46,6,2.36,9.67.82,4.41,1.14,9.38,1.18,12,6l-2,2c-5.09-1-9.62-4-15-4a2.27,2.27,0,0,1-1.93.55c-2.58-1.72-5.55-1.24-8.4-1.45l-.66-.1h-1C95.57,29.06,94.39,26.81,96.18,25Z"/><path class="cls-254" d="M96.2,46.05h-1l0-10c8.09-1.53,15.36.81,22.36,4.64,2.36,1.28.53,2.81.5,4.25a4,4,0,0,1-.91.09c-5.19-3.48-11.35-3.65-17.16-4.9-4.22-.92-3.9,2.22-3.81,4.92C96.21,45.39,96.2,45.72,96.2,46.05Z"/><path class="cls-255" d="M105.21,32l2,0c-3.4,2.66-9.92,2.06-11-1h0C99.33,30.23,102.39,30,105.21,32Z"/><path class="cls-256" d="M114.21,89c1.78,1.58,3.24,3,6.27,2.21a16.91,16.91,0,0,1,9.7.77c1.54,2,3.76,2.08,6,2.09,0,.32,0,.63,0,.94h-6a45.2,45.2,0,0,0-16,0c-1.75.45-1.85,3.1-4,3v0c.12-2.34-1.28-4.69,0-7h0c.47-.12,1.2-.49,1.37-.31C115.15,94.39,114,90.61,114.21,89Z"/><path class="cls-257" d="M108.2,85.05c1.29,5.86-.15,7.09-7,6-2.22-1.51-2.14-4.67-4.44-6.13a11.09,11.09,0,0,1-2.38-2.21L94.22,82c.14-1.37-.48-2.94,1-4,1.82,3,5.93,3.23,7.54,6.44.8.85.63,2.16,1.44,3.09.61-1.84-.62-3.11-1.23-4.55a1.67,1.67,0,0,1,.51-1.27,2.17,2.17,0,0,1,2.71.31Z"/><path class="cls-214" d="M106.18,82.08l-3,0-.68-.14c-1.36-.9-2.8-1.75-2.39-3.78l.1-.11C102.73,78.63,105.36,79,106.18,82.08Z"/><path class="cls-258" d="M114.18,95.06c5.34-1.72,10.69-2.25,16,0-5.31.48-10.74-1-16,1Z"/><path class="cls-259" d="M159.1,92.09C158.71,95,156.46,94,154.86,94c-6.22.08-12.44,0-18.67,0-.91-1.09-2-2,.74-2C144.32,92.14,151.71,92.08,159.1,92.09Z"/><path class="cls-260" d="M83.11,91c-.33.86-1.09,1-1.87,1.1-1.75,1.29-3,.45-4.11-1L75.24,90c0-1.4-.49-2.92.86-4,3.31.44,3.36-5.06,7.07-3.88l2.15,4c1,1.45,1.16,2.85-.28,4.14-2.08.45-2.25-4.08-5-2C80.27,90.08,82.4,89.74,83.11,91Z"/><path class="cls-261" d="M86.21,86.05c3.29-.1,3.53-6.29,8-4h0a3.57,3.57,0,0,1,.47,3.83c-2.94,1.31-5.46,3.55-8.79,4C85.74,88.6,85.37,87.28,86.21,86.05Z"/><path class="cls-262" d="M103.21,82.05q0,.48.06,1a2.14,2.14,0,0,1-1.1,2.09c-1.78-1-2.58-3.27-5.2-3.4-1.72-.08-1.77-2.11-1.76-3.64l2,0c2.43.69,3.92,2.76,6,4Z"/><path class="cls-257" d="M103.21,82.05c-2.69-.31-4-2.62-6-4l2.9.11Z"/><path class="cls-239" d="M86.21,86.05c0,1.33,0,2.65,0,4,.21,1.65-.72,1.56-1.82,1.2L84,90.81a.56.56,0,0,1,.22-.86c1.59-1,.94-2.55,1.14-3.9Z"/><path class="cls-161" d="M71.2,88c-.79.92,1.82,4.07-2,3A3,3,0,0,1,71.2,88Z"/><path class="cls-263" d="M49.21,121.05l-5,2-2,0,9-5.05a1.66,1.66,0,0,1,1.34,1.36C52,121.07,50.61,121.05,49.21,121.05Z"/><path class="cls-233" d="M33.22,96.05h10a6.41,6.41,0,0,1,1.67,4c.25,5.73,2.43,11.18,2.34,17-2.88,1.9-5.47,4.29-9,5C35.23,113.65,32.66,105.15,33.22,96.05Z"/><path class="cls-264" d="M47.23,117.06c-3.36-6.61-3.18-13.9-4-21h11c3.49,4.07,6.67,8.27,5.59,14.14a3,3,0,0,1-.31,2c-2.33,1.4-4.39,3.33-7.22,3.77C50.28,114.88,49.05,117.4,47.23,117.06Z"/><path class="cls-265" d="M52.27,116c1.62-2.52,4.12-3.52,6.92-4,3.29-2.49,6.52-5.1,11-5l1,1c-1.72,3.1-5.24,3.78-7.78,5.79-3.58,2.09-6.61,5.37-11.23,5.24L51.15,118C51.52,117.31,51.89,116.65,52.27,116Z"/><path class="cls-266" d="M63.2,113c2.29-2.28,5.22-3.52,8-5l3-1c.37.53.61,1.22,1.11,1.55,4.08,2.82,4.18,6,.9,9.46.47,3.2-1.37,5-3.9,6.31-3.83-1.34-6.49-4.22-9.24-7C61.55,115.83,61.05,114.41,63.2,113Z"/><path class="cls-267" d="M72.23,124.08c1.33-2,3.63-3.37,4-6,1.57,4.71-2.29,7.49-4,11.05A3,3,0,0,1,70.78,127,3,3,0,0,1,72.23,124.08Z"/><path class="cls-234" d="M71.23,127.05a2.25,2.25,0,0,1,1,2.06c-1,1.95-1.83,4-4,4.94l0,0C66.56,130.54,68.21,128.49,71.23,127.05Z"/><path class="cls-264" d="M71.23,127.05c-1.38,2.16-3.27,4.11-3,7l-3,3c-.08-2.2-.36-4.2-2.91-5.07-5.73-2-8.76-7.21-13.09-10.88l3-2,11-6c-1.21,4.71,3.64,5.32,5.57,7.86.83,1.09,2.67,1.68,3.46,3.2Z"/><path class="cls-199" d="M101.22,92c2.28.75,4.53,1.56,5.54,4.06-4.79-.09-1.67,7.24-6.59,7a2.28,2.28,0,0,1-1.49.46c-3.33-.6-6.83.44-10.08-1a1.51,1.51,0,0,1-.7-1.2c1.12-2,3.07-1.49,4.78-1.58,6.41-.32,6.51-.39,7.11-7,.06-.23.13-.45.2-.68A.9.9,0,0,1,101.22,92Z"/><path class="cls-261" d="M101.22,92l-.86,0c-2.09-2-3.63-4.39-5.59-6.46.09-1.66.74-2.46,2.46-1.57,3,1.37,3.21,4.36,4,7C101.21,91.35,101.21,91.68,101.22,92Z"/><path class="cls-199" d="M110.16,91c.14,2.34,1.27,4.68,0,7C109.33,95.72,106.88,93.38,110.16,91Z"/><path class="cls-268" d="M99.23,103l1,.13c1,2.09,1.84,4.07-2,3l-1-1a1.79,1.79,0,0,1-.2-2.18A1.93,1.93,0,0,1,99.23,103Z"/><path class="cls-269" d="M97.21,103.08c0,.68,0,1.35,0,2-3.15,2.41-6.51,2.52-10,1l-1-1c-.31-1.88,1.16-2.4,2.37-2.32C91.45,102.93,94.38,101.81,97.21,103.08Z"/><path class="cls-240" d="M97.21,103.08c-3.73.36-7.76-1-11,2a3.25,3.25,0,0,1-3-2l.44-.57c1.48-.8,2.94-1.75,4.63-.5,3.65.53,7.49-1,11,1Z"/><path class="cls-240" d="M79.2,101.05l0-1c2.4-.48,4,.21,4,2.93l-.08.1A5.88,5.88,0,0,1,79.2,101.05Z"/><path class="cls-270" d="M83.24,103c-.79-1.72-2.57-2.1-4-2.93q2.58-4.42,5.14-8.86L86.2,90c1.89-2.88,4.33-4.66,8-4,.34-.6.68-.6,1,0,3.85.14,4.29,3.22,5.14,6H100c-1,.48-1.94.06-2.91-.15-7.27-1.51-10.21,1.49-8.95,9.12,0,.34,0,.68,0,1Z"/><path class="cls-271" d="M84.18,90a8.33,8.33,0,0,0-.22.86l-.85.2c-.33,0-.66,0-1,0-2.13,0-4.34-.4-4.37-2.88,0-1.66,2.07-1.85,3.53-2C84.38,85.74,84.28,87.87,84.18,90Z"/><path class="cls-219" d="M77.13,91.14l4.11,1c-.46,1.2-.93,2.4-1.52,3.92C77.77,94.62,77.71,92.74,77.13,91.14Z"/><path class="cls-272" d="M70.17,107c-3.71,1.54-6.91,4.22-11,5,0-.65,0-1.29.05-1.94,2.67-3,5.78-5.08,10-5l1,1C70.21,106.41,70.19,106.71,70.17,107Z"/><path class="cls-273" d="M69.22,105.06l-10,5-1.36-.45c2.57-5-1.2-8.08-3.49-11.63-.31-.48-.13-1.27-.18-1.92,2.93,0,5.87.16,8.79,0,3.27-.23,6.16.18,8.2,3.06a6.93,6.93,0,0,0,1,4Z"/><path class="cls-274" d="M112.19,28.07c-5.19,2.47-10.15-1.4-15.31-.64,3.7-2.66,7.57.63,11.3-.35C109.25,28.5,110.81,27.91,112.19,28.07Z"/><path class="cls-198" d="M105.21,32a25.36,25.36,0,0,0-9-1C99.4,29.61,102.52,28.85,105.21,32Z"/><path class="cls-275" d="M102.17,85.1a2.16,2.16,0,0,1,1.1-2.09c4.22.62,1.48,4.18,2.49,6.18.24.47-1.18.84-2,.77s-1.57-.67-1.41-1.59C102.53,87.24,102.88,86.16,102.17,85.1Z"/><path class="cls-214" d="M95.22,86.08h-1c0-1.34,0-2.69,0-4l3,2A1.87,1.87,0,0,0,95.22,86.08Z"/><path class="cls-276" d="M88.18,101c-1.58-1.13-4-2.09-.84-4.19.27-.17.63-.51.61-.74-.17-2.24-1.08-4.91,2.08-5.71A11.77,11.77,0,0,1,100,92c2.53,4.35.31,8.92-4.36,9C93.18,101,90.68,101,88.18,101Z"/></g></g></svg>