<svg xmlns="http://www.w3.org/2000/svg" viewBox="0 0 185.26 187.02"><defs><style>.cls-1{fill:#fefefe;}.cls-2{fill:#5b4427;}.cls-3{fill:#fdfdfd;}.cls-4{fill:#e4caa4;}.cls-5{fill:#5a4326;}.cls-6{fill:#594325;}.cls-7{fill:#5a4324;}.cls-8{fill:#664d29;}.cls-9{fill:#6b522f;}.cls-10{fill:#5c4425;}.cls-11{fill:#543e24;}.cls-12{fill:#604724;}.cls-13{fill:#6a512c;}.cls-14{fill:#372d24;}.cls-15{fill:#302822;}.cls-16{fill:#584124;}.cls-17{fill:#694616;}.cls-18{fill:#543e23;}.cls-19{fill:#362c23;}.cls-20{fill:#745230;}.cls-21{fill:#76562c;}.cls-22{fill:#42361a;}.cls-23{fill:#372b1e;}.cls-24{fill:#dccb91;}.cls-25{fill:#c9b57f;}.cls-26{fill:#c6b177;}.cls-27{fill:#d1ba83;}.cls-28{fill:#d1bb84;}.cls-29{fill:#ccb17a;}.cls-30{fill:#745f37;}.cls-31{fill:#bc9f68;}.cls-32{fill:#b79761;}.cls-33{fill:#e8db9b;}.cls-34{fill:#e0d198;}.cls-35{fill:#926f40;}.cls-36{fill:#7f5b35;}.cls-37{fill:#997443;}.cls-38{fill:#795b33;}.cls-39{fill:#cab67b;}.cls-40{fill:#87633a;}.cls-41{fill:#9d7a47;}.cls-42{fill:#c2a66e;}.cls-43{fill:#645529;}.cls-44{fill:#a07d49;}.cls-45{fill:#72512e;}.cls-46{fill:#8c683d;}.cls-47{fill:#815f36;}.cls-48{fill:#c0a76f;}.cls-49{fill:#967343;}.cls-50{fill:#806d38;}.cls-51{fill:#6c5d2a;}.cls-52{fill:#a98951;}.cls-53{fill:#c2a66d;}.cls-54{fill:#967747;}.cls-55{fill:#40301d;}.cls-56{fill:#866339;}.cls-57{fill:#987443;}.cls-58{fill:#845f37;}.cls-59{fill:#caaf78;}.cls-60{fill:#9f7b47;}.cls-61{fill:#a3804b;}.cls-62{fill:#b5955d;}.cls-63{fill:#926e40;}.cls-64{fill:#88693b;}.cls-65{fill:#c0b075;}.cls-66{fill:#a27f4b;}.cls-67{fill:#a6985c;}.cls-68{fill:#d7c28d;}.cls-69{fill:#866239;}.cls-70{fill:#42382f;}.cls-71{fill:#66492b;}.cls-72{fill:#c2b175;}.cls-73{fill:#574724;}.cls-74{fill:#3f3219;}.cls-75{fill:#8d7f40;}.cls-76{fill:#927441;}.cls-77{fill:#665133;}.cls-78{fill:#6c5535;}.cls-79{fill:#9a7846;}.cls-80{fill:#c6b77c;}.cls-81{fill:#ac8a52;}.cls-82{fill:#977443;}.cls-83{fill:#5a4e25;}.cls-84{fill:#907a41;}.cls-85{fill:#d9c991;}.cls-86{fill:#9b7946;}.cls-87{fill:#d2c08a;}.cls-88{fill:#7e6434;}.cls-89{fill:#534429;}.cls-90{fill:#362f28;}.cls-91{fill:#836038;}.cls-92{fill:#4b3b1f;}.cls-93{fill:#bdad6f;}.cls-94{fill:#5e4c2d;}.cls-95{fill:#453726;}.cls-96{fill:#393129;}.cls-97{fill:#967443;}.cls-98{fill:#9c7744;}.cls-99{fill:#b7a76c;}.cls-100{fill:#826935;}.cls-101{fill:#322714;}.cls-102{fill:#383129;}.cls-103{fill:#725937;}.cls-104{fill:#332615;}.cls-105{fill:#4e4539;}.cls-106{fill:#554b3c;}.cls-107{fill:#c4a66c;}.cls-108{fill:#483e32;}.cls-109{fill:#98884c;}.cls-110{fill:#ad8a53;}.cls-111{fill:#744f2e;}.cls-112{fill:#bcae71;}.cls-113{fill:#554b3b;}.cls-114{fill:#b89d66;}.cls-115{fill:#dac791;}.cls-116{fill:#3e352b;}.cls-117{fill:#cbb983;}.cls-118{fill:#4e4538;}.cls-119{fill:#473d30;}.cls-120{fill:#b8975e;}.cls-121{fill:#a6975c;}.cls-122{fill:#312b26;}.cls-123{fill:#c1a269;}.cls-124{fill:#705b3e;}.cls-125{fill:#4b3c21;}.cls-126{fill:#483a1f;}.cls-127{fill:#5d482b;}.cls-128{fill:#cdc18b;}.cls-129{fill:#d8c58f;}.cls-130{fill:#bc9a61;}.cls-131{fill:#cbb279;}.cls-132{fill:#645225;}.cls-133{fill:#3a2e18;}.cls-134{fill:#8d6b3f;}.cls-135{fill:#ae8d57;}.cls-136{fill:#50473c;}.cls-137{fill:#7d5c36;}.cls-138{fill:#89673b;}.cls-139{fill:#4b3f21;}.cls-140{fill:#b2a366;}.cls-141{fill:#4b3f31;}.cls-142{fill:#806843;}.cls-143{fill:#bcab6e;}.cls-144{fill:#765f39;}.cls-145{fill:#52473a;}.cls-146{fill:#a69363;}.cls-147{fill:#635036;}.cls-148{fill:#969184;}.cls-149{fill:#8d8779;}.cls-150{fill:#806643;}.cls-151{fill:#5e5a52;}.cls-152{fill:#53514a;}.cls-153{fill:#4a4842;}.cls-154{fill:#4e4c46;}.cls-155{fill:#59564e;}.cls-156{fill:#494740;}.cls-157{fill:#424039;}.cls-158{fill:#493a26;}.cls-159{fill:#423f39;}.cls-160{fill:#39322b;}.cls-161{fill:#473927;}.cls-162{fill:#8a683d;}.cls-163{fill:#9d7e4a;}.cls-164{fill:#8e6a3e;}.cls-165{fill:#3c3832;}.cls-166{fill:#936f40;}.cls-167{fill:#3d311a;}.cls-168{fill:#785c39;}.cls-169{fill:#423f38;}.cls-170{fill:#272322;}.cls-171{fill:#6a5234;}.cls-172{fill:#40362a;}.cls-173{fill:#483a28;}.cls-174{fill:#3d3a34;}.cls-175{fill:#4f4028;}.cls-176{fill:#644f35;}.cls-177{fill:#3f3c35;}.cls-178{fill:#564c3c;}.cls-179{fill:#866b43;}.cls-180{fill:#604e35;}.cls-181{fill:#3f3c36;}.cls-182{fill:#44423c;}.cls-183{fill:#494741;}.cls-184{fill:#806640;}.cls-185{fill:#9a9586;}.cls-186{fill:#665439;}.cls-187{fill:#888374;}.cls-188{fill:#3e2f1b;}.cls-189{fill:#bdaf74;}.cls-190{fill:#979283;}.cls-191{fill:#a7a394;}.cls-192{fill:#a6a394;}.cls-193{fill:#b6b2a2;}.cls-194{fill:#adaa9e;}.cls-195{fill:#969286;}.cls-196{fill:#63523a;}.cls-197{fill:#2e2a28;}.cls-198{fill:#8e897b;}.cls-199{fill:#604d34;}.cls-200{fill:#342b25;}.cls-201{fill:#504639;}.cls-202{fill:#e5dec7;}.cls-203{fill:#a4a091;}.cls-204{fill:#bfbaa7;}.cls-205{fill:#b0ac9b;}.cls-206{fill:#dbd5c1;}.cls-207{fill:#bbb6a4;}.cls-208{fill:#e7dfc8;}.cls-209{fill:#d1cbb7;}.cls-210{fill:#d9d2bc;}.cls-211{fill:#e1dac3;}.cls-212{fill:#cbc5b2;}.cls-213{fill:#9c9889;}.cls-214{fill:#a8a496;}.cls-215{fill:#99968b;}.cls-216{fill:#5d482c;}.cls-217{fill:#aeaba0;}.cls-218{fill:#5e4c33;}.cls-219{fill:#685033;}.cls-220{fill:#3c3933;}.cls-221{fill:#4f4d47;}.cls-222{fill:#56544d;}.cls-223{fill:#47453e;}.cls-224{fill:#4d4b45;}.cls-225{fill:#7c5934;}.cls-226{fill:#5e5b53;}.cls-227{fill:#614a2c;}.cls-228{fill:#54514b;}.cls-229{fill:#59574f;}.cls-230{fill:#5f5b52;}.cls-231{fill:#4e4b45;}.cls-232{fill:#e8e1cc;}.cls-233{fill:#9c7845;}.cls-234{fill:#e0dac6;}.cls-235{fill:#494640;}.cls-236{fill:#47453f;}.cls-237{fill:#886d44;}.cls-238{fill:#684e2e;}.cls-239{fill:#c2bba8;}.cls-240{fill:#d9d3bf;}.cls-241{fill:#48453f;}.cls-242{fill:#54514a;}.cls-243{fill:#826842;}.cls-244{fill:#535049;}.cls-245{fill:#4c4a44;}.cls-246{fill:#5b584f;}.cls-247{fill:#765c3a;}.cls-248{fill:#866941;}.cls-249{fill:#785a35;}.cls-250{fill:#4a3b28;}.cls-251{fill:#473621;}.cls-252{fill:#795c39;}.cls-253{fill:#5a4428;}.cls-254{fill:#725c3c;}.cls-255{fill:#554939;}.cls-256{fill:#4e4c45;}.cls-257{fill:#5b482e;}.cls-258{fill:#5b4830;}.cls-259{fill:#c0bbaa;}.cls-260{fill:#d0cab8;}.cls-261{fill:#c9c4b2;}.cls-262{fill:#999485;}.cls-263{fill:#564733;}.cls-264{fill:#9d9a90;}.cls-265{fill:#705c41;}.cls-266{fill:#9e9077;}.cls-267{fill:#d2cdba;}.cls-268{fill:#c1bcab;}.cls-269{fill:#aeab9e;}.cls-270{fill:#6b563c;}.cls-271{fill:#cac4b4;}.cls-272{fill:#9f9a8b;}.cls-273{fill:#b6b4a9;}.cls-274{fill:#aeaca3;}.cls-275{fill:#a7a392;}.cls-276{fill:#b5b09f;}.cls-277{fill:#c7c1af;}.cls-278{fill:#cbc4b2;}.cls-279{fill:#d3cdb9;}.cls-280{fill:#b9b4a3;}.cls-281{fill:#c4beac;}.cls-282{fill:#836239;}.cls-283{fill:#b6975a;}.cls-284{fill:#ddd7c2;}.cls-285{fill:#b8b3a3;}.cls-286{fill:#cbc5b4;}.cls-287{fill:#c2bdac;}.cls-288{fill:#d3cebb;}.cls-289{fill:#e4dec8;}.cls-290{fill:#7d5e37;}.cls-291{fill:#9f7c49;}.cls-292{fill:#745836;}.cls-293{fill:#795b35;}.cls-294{fill:#3b2c1a;}.cls-295{fill:#846138;}.cls-296{fill:#c8ae6c;}.cls-297{fill:#caaf66;}.cls-298{fill:#9a7c4e;}.cls-299{fill:#ae8c51;}.cls-300{fill:#876d45;}.cls-301{fill:#9f8652;}.cls-302{fill:#5a574f;}.cls-303{fill:#443623;}.cls-304{fill:#7f735d;}.cls-305{fill:#846b4c;}.cls-306{fill:#e2dcc7;}.cls-307{fill:#876a3e;}.cls-308{fill:#5a574e;}.cls-309{fill:#5f5b53;}.cls-310{fill:#795f3e;}.cls-311{fill:#d8d3bf;}.cls-312{fill:#ded7c2;}.cls-313{fill:#5f4b32;}.cls-314{fill:#574834;}.cls-315{fill:#aea999;}.cls-316{fill:#c3c0b5;}.cls-317{fill:#a6824b;}.cls-318{fill:#a68853;}.cls-319{fill:#beaf85;}.cls-320{fill:#d0b86e;}.cls-321{fill:#e5dfc9;}.cls-322{fill:#e3dcc4;}</style></defs><g id="Layer_2" data-name="Layer 2"><g id="Layer_7_Image" data-name="Layer 7 Image"><path class="cls-1" d="M104.21.07c26,0,52,0,78-.07,2.5,0,3.08.56,3.07,3.07-.11,27.66-.07,55.32-.07,83a1.43,1.43,0,0,1-1.47-.26c-3.16-3.13-.73-7.62-2.7-11-1.41-2.51-1.05-5.46-2-8.07-3.53-12.77-10.15-23.78-19-33.57A90,90,0,0,0,121.76,7.73c-3.19-1.09-6.53-1.23-9.7-2.25-.71-.16-1.4-.38-2.09-.6-1.56-.65-3.38-.49-4.86-1.44C104.18,2.48,103.56,1.44,104.21.07Z"/><path class="cls-2" d="M182.17,74.35c2.08,3.65.19,8,2.21,11.7,0,.24-.08.48-.11.72-.11,4.12-.18,8.24,0,12.36a4.55,4.55,0,0,0,.88,1.92v1c-1.23,1.54-.87,3.39-1.05,5.16-.13,1.32.23,3.15-2.14,2.87-1.48-1.78-1-3.93-1.13-6-.35-1.81,1.12-4-1.05-5.42-2.07-.26-2.18-1.67-1.95-3.3A4.73,4.73,0,0,1,179,93.69c2-2.1,2.25-4.7,1.68-7.29a61.88,61.88,0,0,1-1-9.68C179.94,75.32,181.09,74.88,182.17,74.35Z"/><path class="cls-3" d="M104.21.07l1,2.81c-3.28,1.76-6.73.28-10.1.5-4.42.29-8.88,0-13.32.19a2.15,2.15,0,0,1-1.58-.66c.33-1,.67-1.9,1-2.84Z"/><path class="cls-3" d="M182.25,110.2c2.65-2.12-1-6.51,2.94-8.15v9h-2.8c-.26-.15-.36-.33-.32-.53S182.18,110.2,182.25,110.2Z"/><path class="cls-4" d="M185.19,101.05,184,100A69.62,69.62,0,0,1,184,86.06h.43a1.25,1.25,0,0,1,.81,0Z"/><path class="cls-5" d="M44.34,15.14l1.87-1.24c1.34-1.66,3.32-2.09,5.2-2.73L53.23,10a8.75,8.75,0,0,1,5-1.85l.06,0c.71-1.15,2-.4,2.94-1l.07,0a8.93,8.93,0,0,1,5.9-2.18c2.16.91,4-1,6.08-.7a1.61,1.61,0,0,1,.34,1.32c-.83,1.72-2.8,1.58-4.11,2.54C66.22,10.48,62.15,11,58.6,12.78a28.13,28.13,0,0,1-8.66,3.92l-1.19.55a72.91,72.91,0,0,0-7.31,5.4c-2.89,1.64-4.75,4.51-7.52,6.3-1.9,1.4-3.91,2.67-5.21,4.74-4.33,4.11-7.38,9.22-10.87,14-3.19,3.11-3.06,7.62-4.77,11.35-.71,1.24-1.32,2.56-2.68,3.27A1.87,1.87,0,0,1,9,62a5.92,5.92,0,0,1-1.45-3.26c.37-1.61.47-3.31,1.57-4.67-.07-1.79,1.65-2.53,2.29-3.9.11-1.24,1.28-1.94,1.59-3.08l3.19-5a48.23,48.23,0,0,1,11.71-14l1.29-1.25c1.47-1.75,2.74-3.72,4.92-4.75s3.43-3.67,6.08-4.14A7.37,7.37,0,0,1,44.34,15.14Z"/><path class="cls-6" d="M35.21,166l-1-1A35.89,35.89,0,0,1,24.32,155l0,0c-1.25-.72-2.5-1.44-2.84-3L19.05,149c-1.62-.85-1.85-2.69-2.83-4l-7-12c-1-3.58-4.47-6.35-3.4-10.6,2.94-1.3,2.75,1.83,4.05,2.85.76,1.18,1.46,2.4,2.13,3.63a41.16,41.16,0,0,1,3,7.4,13.3,13.3,0,0,0,1.61,3.92c.35.47.72.93,1.11,1.36.67.73,1.38,1.42,2.05,2.14a16.24,16.24,0,0,1,1.46,2,26.16,26.16,0,0,0,3.87,4.14c4.1,4.91,8.13,9.9,13.61,13.41,2.4,1.74,4.67,3.67,7.24,5.19,5.7,3.84,12.12,6.18,18.42,8.78,2.33.73,4.71,1.25,7,2,1.65.94,4.33.06,5,2.79-.84,1.27-2.28,1.15-3.51,1.51a50.19,50.19,0,0,1-17.53-5.59h0a21.69,21.69,0,0,0-4.12-1.77l-1.89-1.37c-1.28,0-2-1.2-3.11-1.58-.79-.21-1.73-.14-2.12-1.12C40.83,170.49,38.1,168.13,35.21,166Z"/><path class="cls-7" d="M172.1,140l-3,4.82c-.71,2.68-2.51,4.55-4.6,6.21-.17.3-.33.6-.49.9-2.33,3.48-4.74,6.87-8.78,8.62a1.79,1.79,0,0,1-1.5-1.35c-.12-1.61.93-2.62,1.87-3.69,2.76-2.92,6-5.39,8.1-8.92a65,65,0,0,0,5.45-9.43c3.67-4.58,5.14-10.2,7.31-15.5a2.28,2.28,0,0,1,1.93-1c1.36.3,1.34,1.37,1.32,2.43.6,4-2.31,6.63-3.6,9.89l0,0A4,4,0,0,1,174.3,136a1.18,1.18,0,0,0-.29.92A3.32,3.32,0,0,1,172.1,140Z"/><path class="cls-8" d="M154.19,159l1.2,1.08c.28,1-.59,1.39-1.17,1.91l0,0c-.48,1.62-1.77,2.34-3.22,2.87l-2.8,2c-1.62,2.73-4.39,3.83-7.09,5l-11,5.9c-.91,1.36-2.43,1.29-3.79,1.62A3.5,3.5,0,0,1,124,178c.93-3.27,4.16-3.23,6.48-4.49a15.37,15.37,0,0,0,2.3-1.14,11.57,11.57,0,0,1,2.78-1.36c.57-.23,1.14-.45,1.69-.7a7.87,7.87,0,0,0,3.43-2.51C144.84,164.36,149,160.82,154.19,159Z"/><path class="cls-9" d="M9.19,126.05c-1.57-.84-1.29-3.26-3.23-3.79l-.33.32-.41-.2c-1.72-1.78-.57-4.53-2.14-6.36a8.06,8.06,0,0,1-.89-5l-.1-1c-1.91-2.15.21-4.77-.8-7h0a1.93,1.93,0,0,1-.36-2.13c.86-1.62-.78-4.42,2.33-5,1.44,1.33,1.12,3.31,1.8,4.92,1.31,2.8.39,5.89,1.16,8.76a87.8,87.8,0,0,0,3,11.4C9.75,122.66,10.72,124.37,9.19,126.05Z"/><path class="cls-10" d="M109.27,183.84c-1.08,1.35-2.75.66-4.06,1.17a63.56,63.56,0,0,1-25,0l-1.74-.09c-.79-.67-2.89.07-2.25-2.12a11.14,11.14,0,0,1,4.29-1.59,14,14,0,0,1,4.73.38c3.8.18,7.59,0,11.39.08,1.56,0,3.12.07,4.68,0a14.18,14.18,0,0,1,3.79-.3C106.63,181.91,108.79,181.5,109.27,183.84Z"/><path class="cls-3" d="M80.21,185h25a4.81,4.81,0,0,1-3.84,2q-8.67.1-17.33,0A4.74,4.74,0,0,1,80.21,185Z"/><path class="cls-11" d="M7.86,58.92c1.41.61,1.34,1.86,1.33,3.08,0,.26,0,.52.05.77C7.43,67.54,7.81,73,5,77.42c-2.46.32-2.64-1.35-2.72-3.11A7.45,7.45,0,0,1,3,71.07c.07-.33.13-.66.2-1a22.78,22.78,0,0,0,2-6.9C5.49,61.42,5.84,59.63,7.86,58.92Z"/><path class="cls-3" d="M76,183.12l2.51,1.79c-7.72-.09-14.86-2.71-22.07-5-.94-.3-1.06-1.14-1-2,6.1,1.24,11.58,4.7,17.94,5C74.22,182.49,75.14,182.27,76,183.12Z"/><path class="cls-12" d="M124,177.88l2.17,1c-.36,1-1.39.64-2.07,1l0,0a14.44,14.44,0,0,1-10,2.94l-2,0c-.89-.82-2.57.39-3.16-1.21,1.76-2.95,5.14-2.19,7.67-3.37C119.07,177.49,121.35,174.05,124,177.88Z"/><path class="cls-13" d="M179.22,123.1c-.11-.82-.22-1.63-1.06-2.07-1.65-3.54.83-6.74.87-10.15,0-1.81.85-3.54.89-5.38a5,5,0,0,1,.83-2.25,1,1,0,0,1,1.42-.21l.08,7.16a1.47,1.47,0,0,0,.14.85c0,.34,0,.68.05,1,.7,1.68.95,3.34-.29,4.92v0c-.75,1.62-1.21,3.35-1.86,5a.49.49,0,0,0-.25.65C180.06,123.39,179.79,123.54,179.22,123.1Z"/><path class="cls-3" d="M27.93,28.06l-11.71,14C18.28,35.85,22,31,27.93,28.06Z"/><path class="cls-3" d="M7.86,58.92c-2.75,3.22-1.4,8.14-4.63,11.16.88-5.75,1.31-11.66,5.92-16C9.63,55.92,8.22,57.28,7.86,58.92Z"/><path class="cls-3" d="M154.22,162l1.17-1.91c3.48-2.07,5.36-5.84,8.6-8.17,2.37,2.58-1.1,3-1.84,3.8C159.93,158.25,158.59,162.17,154.22,162Z"/><path class="cls-3" d="M24.32,155c3.24,3.41,7.19,6.12,9.89,10.06C30,164.09,24.4,158.41,24.32,155Z"/><path class="cls-3" d="M3,71.07c.06,1,.11,2,.17,2.93-1.24,1.79.18,3.46.24,5.19S3.7,82.84,2,84.12L1.16,84C-.12,79.43-.37,75,3,71.07Z"/><path class="cls-3" d="M1.35,100.93,1.29,103a37.34,37.34,0,0,1-.13-19l.12.07a3.72,3.72,0,0,1,1.19,2.43C3.07,91.4,2,96.15,1.35,100.93Z"/><path class="cls-3" d="M179.22,123.1a2.26,2.26,0,0,1,.81-.43c1.75,4.6-1.6,7.24-3.94,10.27C176.2,129.37,179.47,126.79,179.22,123.1Z"/><path class="cls-3" d="M5.22,122.38a6,6,0,0,1,.74-.12c-.2,4,3.38,6.82,3.23,10.77C6.92,129.84,3.59,127,5.22,122.38Z"/><path class="cls-3" d="M35.21,166c3.56,1.14,6.25,3.56,8.9,6.05C39.77,172.05,37.59,168.88,35.21,166Z"/><path class="cls-3" d="M114.12,182.83l10-2.94C121.3,182.65,118.42,185.17,114.12,182.83Z"/><path class="cls-14" d="M73.22,5c0-.26,0-.53,0-.8l6.95-1.32a1.25,1.25,0,0,0,.91.14,1.7,1.7,0,0,1,.14,2.3,4.26,4.26,0,0,1-2.36.94C76.9,6.38,74.85,6.65,73.22,5Z"/><path class="cls-3" d="M141.07,172l7.09-5C146.93,170.22,144.86,172.31,141.07,172Z"/><path class="cls-3" d="M1.29,103c1.68,2.18.58,4.68.8,7C-2,108.14,1.41,105.37,1.29,103Z"/><path class="cls-3" d="M164.48,151l4.6-6.21C169.8,148.57,167.47,150.05,164.48,151Z"/><path class="cls-3" d="M34.14,22.06c-1,2.22-2.91,3.56-4.92,4.75C29.87,24.2,30.69,21.77,34.14,22.06Z"/><path class="cls-3" d="M124.12,179.87l2.07-1,3.92-1C129,181.29,126.76,181.11,124.12,179.87Z"/><path class="cls-3" d="M67.18,4.93l-5.9,2.18C62.77,5.09,64.31,3.2,67.18,4.93Z"/><path class="cls-3" d="M16.22,145.05c1.82.7,2.17,2.46,2.83,4C15.88,149.29,16.2,147.06,16.22,145.05Z"/><path class="cls-3" d="M182.15,117c.1-1.64.19-3.28.29-4.92C184.77,113.86,184.88,115.51,182.15,117Z"/><path class="cls-3" d="M2.19,111.06a7.66,7.66,0,0,1,.89,5C1.09,114.67.43,113.08,2.19,111.06Z"/><path class="cls-15" d="M109.17,181.93c1,.17,2.23-.15,3,.95l-2.88,1c-.93-1.5-3.08-.13-4-1.7A2.64,2.64,0,0,1,109.17,181.93Z"/><path class="cls-3" d="M58.21,8.12c-1.55.91-3,2-5,1.85C54.42,8.08,55.66,6.34,58.21,8.12Z"/><path class="cls-3" d="M44.34,15.14c-.93,1.58-2.59,2.09-4.12,2.78C40.75,15.76,41.43,13.8,44.34,15.14Z"/><path class="cls-3" d="M151,164.92a7.7,7.7,0,0,1,3.22-2.87C155.52,165.72,152.81,164.84,151,164.92Z"/><path class="cls-3" d="M51.41,11.17c-1.57,1.22-3.14,2.44-5.2,2.73C47,11.15,49.17,11.11,51.41,11.17Z"/><path class="cls-3" d="M180.28,122c0-1.9.27-3.69,1.86-5A5.71,5.71,0,0,1,180.28,122Z"/><path class="cls-3" d="M21.45,151.93c.95,1,1.9,2,2.84,3C22.66,154.59,20.45,154.77,21.45,151.93Z"/><path class="cls-3" d="M13,47.08a3.76,3.76,0,0,1-1.59,3.08C9.81,48,12.48,48.09,13,47.08Z"/><path class="cls-3" d="M172.1,140c.64-1,1.27-2,1.91-3C175,139,174,139.77,172.1,140Z"/><path class="cls-3" d="M174.3,136a5.29,5.29,0,0,1,1.77-3.07C177.33,135.05,176.34,135.85,174.3,136Z"/><path class="cls-3" d="M61.21,7.14c-.75,1-1.87.89-2.94,1C58.46,5.34,59.94,6.55,61.21,7.14Z"/><path class="cls-3" d="M46.23,173.17c1.39-.16,2.25.7,3.11,1.58C47.15,176.5,47.24,173.75,46.23,173.17Z"/><path class="cls-3" d="M51.23,176.12c1.8-.42,3.06.45,4.12,1.77A5,5,0,0,1,51.23,176.12Z"/><path class="cls-16" d="M112.11,4.13c13.92,2.35,26.22,8.4,37.13,17.09C164,33,174.86,47.65,180.05,66.1c-.59.64,0,2-1.3,2.19-2.18-1-2.21-3.42-3.28-5.16a69.35,69.35,0,0,0-6.57-14.27,11.09,11.09,0,0,1-.67-1.15,30.46,30.46,0,0,0-3.67-6,19.1,19.1,0,0,0-3.22-3.07,31.29,31.29,0,0,0-5.83-7c-5.25-4.63-10.43-9.33-16.7-12.61a13.44,13.44,0,0,1-2.87-2.09c-7.23-3.58-14.54-6.94-22.39-9-1.66-.42-3.72-.36-4.56-2.43C109.51,3.85,111.3,5.11,112.11,4.13Z"/><path class="cls-17" d="M81.19,4.94c0-.63,0-1.26-.07-1.89,8-2.07,16-1.27,24.09-.17A7.36,7.36,0,0,1,110.54,4C109,5,107.17,5.31,105.43,5.88a8.87,8.87,0,0,1-1.62.29,8.58,8.58,0,0,1-1.68,0C96.42,5,90.65,5.48,84.9,5.55,83.61,5.57,82.27,6.11,81.19,4.94Z"/><path class="cls-18" d="M179.13,68.12c.31-.68.61-1.35.92-2,1.92,2.44.32,5.78,2.12,8.25A1.71,1.71,0,0,1,180.23,76C178.37,73.6,177.34,71.06,179.13,68.12Z"/><path class="cls-19" d="M105.22,4.88c1.56-1.5,3.59-.36,5.32-.93l1.57.18c-.71,1.17-1.94.82-3,1A2.55,2.55,0,0,1,105.22,4.88Z"/><path class="cls-20" d="M179.13,68.12c.37,2.64.73,5.28,1.1,7.92a59.08,59.08,0,0,1,1.86,14.12A5.19,5.19,0,0,1,179.2,95a1.94,1.94,0,0,1-.62-1.86c1.89-2.61-2.42-4-1.29-6.45,1.83-3,1.83-3-.11-8.37-1.3,1.38-.41,3.59-1.89,4.83-2.74-.24-2-2.58-2.48-4.16a55.2,55.2,0,0,1-1.1-6.89c-.27-1.9-1.14-2.25-2.58-.88-1.95-.15-2.4-1.79-2.59-3.14-.53-3.66-2.39-6.79-3.58-10.18.14-1.74,1.85-2.52,2.42-4a25.68,25.68,0,0,0,1.05-3.1,2.4,2.4,0,0,1,.87-1,2,2,0,0,1,1.75.93A91.79,91.79,0,0,1,176.26,63C178.06,64.24,177.68,66.69,179.13,68.12Z"/><path class="cls-21" d="M178.19,96c.91.42.14,2.52,2,2l.56.58a4,4,0,0,1,.38,2.38c-.26,1.75-.23,4-2.41,4.33-2.54.42-2.45-2-3-3.62a7.26,7.26,0,0,0-.95-1.7,4.42,4.42,0,0,1-1-3.49C175.06,94.93,176.62,95.45,178.19,96Z"/><path class="cls-22" d="M178.19,96a3.15,3.15,0,0,1-4,0c-1.16.54-1.77-.14-2.28-1a8.09,8.09,0,0,1,7.1-3.31.92.92,0,0,1,.39.76c0,.3-.06.44-.13.44,0,.72-.07,1.44-.11,2.16Z"/><path class="cls-23" d="M184,86.06,184,100A25.14,25.14,0,0,1,184,86.06Z"/><path class="cls-21" d="M182.17,103l-.95,0c-1.23-1.48.2-3.49-1-5l0,0c.34-1.36,1-2.64,1.81-.44C182.56,99.23,182.15,101.21,182.17,103Z"/><path class="cls-24" d="M17.23,47.08c3.24-5,5.91-10.4,10.79-14.14,1.72-1.08,3-2.95,5.28-3.06A3,3,0,0,1,34,31.09a4.12,4.12,0,0,1-.34,2.78c-1.31,1.83-2.9,3.48-3.76,5.62-1.35,3-2.68,6-5.15,8.36a7.73,7.73,0,0,1-3.48,1.3A7.65,7.65,0,0,1,19,49.07C18.06,48.73,16.93,48.54,17.23,47.08Z"/><path class="cls-25" d="M17.23,47.08c.46.88,1.34.94,2.16,1.1a3,3,0,0,1-.48,2.31,5.94,5.94,0,0,0-.52,2.88,28.51,28.51,0,0,1,.32,3.8,20.25,20.25,0,0,1-1.77,5.13c-1.79,2.44-2.38,5.49-4,8a3.8,3.8,0,0,1-1.85,1.16,3.43,3.43,0,0,1-3.24-1.59,3.29,3.29,0,0,1,1.06-3.4c2.71-1.84,2.16-5.08,3.28-7.6C13.1,54.62,13.47,50.12,17.23,47.08Z"/><path class="cls-26" d="M49,15.91,58.18,12a1.47,1.47,0,0,1,.37,1.12,17,17,0,0,0-.75,2.22c.09.79.69,1.44.67,2.27-.59,1.42-1.95,1.67-3.18,2.11a5.23,5.23,0,0,1-2,.05c-3.57-1.55-3.35,2.38-5.05,3.52-1.85-1.87-3.92-1.56-6.07-.64A1.8,1.8,0,0,1,41,22c2-2.51,4.78-3.94,7.29-5.76.61.47,1.37.3,2,.45C50,16.25,49.21,16.62,49,15.91Z"/><path class="cls-27" d="M41,22l1.2.12c.62,2.34-4.16,3.19-1.66,6.05.06,1.59-.9,2.51-2.14,3.25a7.37,7.37,0,0,1-5.19-.31c0-.32,0-.65,0-1a1.14,1.14,0,0,1,.07-1.85C35.76,26,37.77,23.23,41,22Z"/><path class="cls-28" d="M58.23,13.07l0-1.09c3.21-2.7,7.83-2.27,11-5,3.21-.43,6.33-1.58,9.63-1.42A2.32,2.32,0,0,1,80.37,6c0,1.77-1.43,2.21-2.65,2.41-5.73,1-11.14,3-16.61,4.79A3.5,3.5,0,0,1,58.23,13.07Z"/><path class="cls-29" d="M12.15,58.87c-.63,2.85,2.11,6.88-2.88,8.19a1.52,1.52,0,0,1-.35-1.24c.6-1.22.63-2.62,1.26-3.82Z"/><path class="cls-30" d="M79,6C75.71,6,72.6,7.83,69.21,7c.91-1.53,3.16-.34,4-2l6.08.1C79.62,5.56,79.54,5.84,79,6Z"/><path class="cls-31" d="M33.29,28.25c0,.61,0,1.23-.07,1.85-1.76.9-3.1,2.58-5.2,2.84C29.13,30.66,31.24,29.49,33.29,28.25Z"/><path class="cls-32" d="M10.18,62c1.06,1.66,1.15,3.11-.89,4.11a2.85,2.85,0,0,1,.06-3.88L9.19,62Z"/><path class="cls-33" d="M49,15.91l4,.54c-2.19.73-3.54,1.08-4.76-.25A.83.83,0,0,1,49,15.91Z"/><path class="cls-34" d="M9.19,126.05,5,109.22c.19-2.61,1.54-2.9,3.44-1.58a38.3,38.3,0,0,1,3.33,2.78c2.63,2.93,5.52,5.69,6.46,9.74.44,2-.16,4,.33,5.89.73,2.85-.41,4.87-2.86,6.12-3.15,1.61-3-2.18-4.65-3.06Z"/><path class="cls-35" d="M45.21,169c-2.71-1.15-4.81-3.15-7.05-5,1.45-1.41,2-2.09-.25-3.91-4.76-3.88-9.83-7.79-11.65-14.2-2.44-1.93-1.77-4.63-1.77-7.17.12-1,.41-1.9,1.62-2,3.84,1.94,5.59,5.76,8,9,.08,4,2.14,6.66,4.89,9.49,2.33,2.39,1.87-1.37,3-.68,3.93,0,6,3.52,9.27,4.85a3.07,3.07,0,0,1,1.3,2.5,2.82,2.82,0,0,1-1.3,1.65,6.85,6.85,0,0,1-2.68.49c-3.92.85-.26,3.73-1.43,5.31A1.81,1.81,0,0,1,45.21,169Z"/><path class="cls-36" d="M84.29,182.93c-1.35-.51-2.67-1.13-4.18-.82-1.3.53-2.6.78-3.83-.17-1.31-1.75-3.84-.09-5.14-1.85-1-1.72-3.19-1.24-4.52-2.39-1-.89-1.85-1.92-1.55-3.33A2.17,2.17,0,0,1,68,172.61c1,.52,1.27,1.67,2.1,2.32,1.61.71,2.67-1,4.13-1a7.71,7.71,0,0,1,1.36-.1c1.81,0,3.52.77,5.64.8-.18-1.26-3.95-1.46-1.23-3.42a11.17,11.17,0,0,1,7.83.15c2.22,2,.24,4.45.84,6.61,0,1.43,1.42,2.68.56,4.23C87.64,183,85.83,182,84.29,182.93Z"/><path class="cls-37" d="M27.22,145c1.62,6,6.28,9.56,10.51,13.49.48.45.75,1.16,1.27,1.5,1.33.87,4.36-.4,4,2.4s-3.64-.31-4.82,1.64c-5.78-3.56-10.13-8.54-14-14C25.46,148.55,25.9,146.53,27.22,145Z"/><path class="cls-38" d="M45.21,169l2,0c1.53,1,1.38-.55,1.79-1.23a4,4,0,0,1,1.06-.61,23.66,23.66,0,0,0,3.36-1.42c1.33.57,2.73,1,3.51,2.42,3.68,2.36,7.84,4.38,7.25,9.87C57.46,175.93,50.86,173.5,45.21,169Z"/><path class="cls-39" d="M11,129.11c1.94-.29,1.86,4,4.62,2,2.19-1.62,2.4-3.26,1.26-5.78-.64-1.42.15-3.48.29-5.25a1.14,1.14,0,0,1,1.32-.08c2.13,2.66,2.67,6.11,4.44,9,.64,1.69,1.07,3.33-1.3,4.06-2,.26-3.25,1.21-3.27,3.38-.21,1.18-.37,2.39-1.69,2.92-1.45-.2-1.83-1.42-2.38-2.49Z"/><path class="cls-40" d="M64.21,178c-.66-1.06-2.11-1.58-2-3.18.2-3.05-1.56-4-4.3-3.84-2.54.14-2.73-1.09-1.68-3a14.52,14.52,0,0,1,12,5c-3.37.49-3,2.2-1,3.83,1.24,1,3.13,1.14,4.5,2,1.61,1,0,1-.59,1.21A16.87,16.87,0,0,1,64.21,178Z"/><path class="cls-41" d="M27.22,145c-.24,2.15,1.05,5.22-3,5a9,9,0,0,1-3.79-4.12c.26-.68,1.4-1.19.88-1.9s-1.43,0-2.16.11L17.21,142a1.4,1.4,0,0,1,.5-2.36c2.54.43,4.9-1.24,7.46-.67C26.94,140.65,23.65,144,27.22,145Z"/><path class="cls-42" d="M19.1,144.15c.23-1.54,1-2.34,2.67-2a1.9,1.9,0,0,1,1.69,2.06c-.29,1.49-1.78,1.63-3.08,1.77Z"/><path class="cls-35" d="M18.24,140a2,2,0,0,0-1,2l-1-1a1.35,1.35,0,0,1,0-2c1.19-.71.9-1.92,1-3a1,1,0,0,1,1.27,0,3.6,3.6,0,0,1,.58,1.33A2.83,2.83,0,0,1,18.24,140Z"/><path class="cls-15" d="M76.28,181.94l3.83.17c-1.1,1.49-2.78.62-4.15,1l-2.67-.22C74,181.77,75.24,182.11,76.28,181.94Z"/><path class="cls-43" d="M16.23,139v2a4.93,4.93,0,0,1-1.9-4.23C15,137.56,15.6,138.3,16.23,139Z"/><path class="cls-44" d="M181.14,105.13a86.88,86.88,0,0,1-3,15.9l-.92,1.08c-3.5-.14-6.64,3.23-10.35,1.06-1.78-3.36.37-6.19,1.22-9.2,1.23-3.15.91-6.69,2.44-9.77,1.94-2.41,3.53-1.33,5,.49.87,1.26.44,2.91,1.22,4.27C178.57,108,178.13,104.58,181.14,105.13Z"/><path class="cls-45" d="M170.13,138c-1.75,3.14-3.2,6.49-5.81,9.09-3.09,1.76-4,6.24-8.2,6.61-1.69.15-3.67,2-5,0s.67-3.34,1.87-4.6c2-2.11,3.81-4.22,2.56-7.42.11-2.37,1-4.21,3.45-4.93,3,3.88,6.5,1.66,9.88.7A2,2,0,0,1,170.13,138Z"/><path class="cls-46" d="M156.14,142c3.22,2.34.78,4.24-.56,6.1s-3.44,2.89-4.6,6c4.61-1.82,9.43-1.15,10.69-6.7.28-1.22,1.57-1.69,2.65-.34-1.59,3.93-5.09,6.18-7.91,9-1.34-.14-2.55.59-3.87.59-3.31-.41-3.43-3.46-4.66-5.6C149.54,147.08,151.63,143.43,156.14,142Z"/><path class="cls-47" d="M170.13,138h-1c-1.54-1.95-.42-3.78.26-5.62,1.52-1.9,1.09-4.72,3.12-6.45-3,.66-3.42,4.43-6.43,4.88a3,3,0,0,1-2-.49c-1.83-3.65,0-5.75,3.1-7.29,3.48,1.07,6.4-4.05,10.08-.93A46.8,46.8,0,0,1,170.13,138Z"/><path class="cls-48" d="M153.2,156c1.11-1.38,2.17-1.15,3.21.08L154.19,159l-13.06,9.84c-2.7-.31-1.77-2.37-1.9-3.91.16-.91.49-1.78.66-2.68a10.28,10.28,0,0,0-.09-3.83,3,3,0,0,1,.19-1.32c1.17-1.48,2.5-2.69,4.58-2.53,2,1.21,1.08,2.71.42,4.19a11.64,11.64,0,0,1-.76,1.08c-.14.57-1.14,1.1,0,1.67C145.7,157.2,150.58,158.49,153.2,156Z"/><path class="cls-49" d="M124,177.88c-2.57-1.39-4.45,1.3-6.81,1.16-5.34-4-11.21.17-16.75-1.06-1.08-.24-2.3.08-3.27-.73-.45-1.54,1.34-3,.07-4.6,2.17-2.32,5.3-1.54,7.9-2.49a35.81,35.81,0,0,1,4.49-.58,68.83,68.83,0,0,0,12-3.47,6.11,6.11,0,0,1,3.56-.33c1.94,2.32,4.81,2.21,7.4,2.84,1.38.88,3.55,1,3.46,3.37l-2.87,1.07c-.84,0-1.65.06-1.95,1.06Z"/><path class="cls-50" d="M140.26,164c.29,1.61-.9,3.49.87,4.84-.87,1.52-2.37,1.92-3.94,2.19-1.21-1.05-2.38-2.13-2.35-3.93a8.43,8.43,0,0,1,1.81-3C137.83,163.53,139,161.26,140.26,164Z"/><path class="cls-51" d="M135.33,167.09c.5,1.38,2,2.28,1.86,4l-1.1.93-3.77-3-.45-.36a1.42,1.42,0,0,1,.41-1,4.94,4.94,0,0,1,2.05-1A1.29,1.29,0,0,1,135.33,167.09Z"/><path class="cls-52" d="M131.27,174.12c-.57-.4-1.07-1-.49-1.56.9-.87,1.77-.42,2.44.5Z"/><path class="cls-53" d="M11.25,111a7.45,7.45,0,0,1-3.43-2.59c-1.37-1.86-2.09-.27-2.82.79-1.55-2.6.57-5.55-.79-8.17-.45-3.31-1.56-6.61-.3-10a2.09,2.09,0,0,1,2.2-.37,3.37,3.37,0,0,1,1.18,2,13.53,13.53,0,0,0,1,3.62C10.63,100.93,12.85,105.6,11.25,111Z"/><path class="cls-54" d="M4.28,91q0,5-.07,10c-1.62-1.41-.63-3.34-1-5a4.35,4.35,0,0,1-1-3.25c-.3-4.42,1.19-8.68,1.08-13.08,0-1.28.88-2,1.77-2.75,1-5,.58-10.48,4.26-14.74l-.06,3.88a4.3,4.3,0,0,0,0,1,4.22,4.22,0,0,0-1,3c1.37,2.32-.4,4.33-.64,6.49a36.14,36.14,0,0,1-.58,3.73c-.84,2.74-.26,5.62-.83,8.39A3.81,3.81,0,0,1,4.28,91Z"/><path class="cls-55" d="M3.07,93.1c.05,1,.1,2,.14,3-1.84,1.16-.11,3.68-1.86,4.88a89.81,89.81,0,0,1,0-14.76C4.47,87.85,1.58,91,3.07,93.1Z"/><path class="cls-56" d="M97.21,177c4.4-1.12,9,.94,13.55-1.69,2.37-1.37,4.47,2,6.45,3.71-2.29,2-5.68,1-8,2.89l-3.9.21-3.14.74c-1.62-1.33-3.23-.91-4.83,0l-13,0c1.41-1.54,3.26-.65,4.91-.9a3.63,3.63,0,0,1,2.51-1.14,13.87,13.87,0,0,0,3.23-.4c2.16-.75-.18-1.07-.2-1.64a2.64,2.64,0,0,1,.15-2.67C96,175.41,96.68,176.07,97.21,177Z"/><path class="cls-57" d="M97.3,182.91c1.6-2,3.2-3.33,4.83,0Z"/><path class="cls-9" d="M3.07,93.1c-1.92-2,.32-5-1.72-6.93,0-.69-.05-1.39-.07-2.08C3.35,81,1.06,77.08,3.2,74c.25,1.23-.22,2.92,1.89,3Q4.07,85,3.07,93.1Z"/><path class="cls-58" d="M181.14,105.13c-1.89.66-1.78,2.55-2.49,4-.53,1-.3,3-2.19,2.67s-1.18-2-1.25-3.27,0-2.28-.05-3.42c-1.08-2-1.86-4.07.11-6,.48.43,1,.88,1.45,1.3,1.29,1.11-.73,4.54,2.06,4,2.3-.44,1.17-3.38,1.42-5.24,0-.33,0-.66,0-1,1.66,1.39.72,3.3,1,5C181.19,103.75,181.16,104.44,181.14,105.13Z"/><path class="cls-59" d="M79,6a3,3,0,0,0,.3-.82l1.89-.19c7.34-.88,14.69-1.76,22,.32.46.54-.55,1.17-.17,1.32s.89-.63,1.44-.84c1.31.3,2.7.21,3.9.92.91,1.8,4.61,2.59,2,5.65a2.85,2.85,0,0,1-1.39.22c-3.51-1.4-7.44-.69-11-2.08C96,7,92.71,7.34,89.43,7.66c-3.05-.62-6.4.65-9.2-1.47Z"/><path class="cls-60" d="M108.17,7.09A5.35,5.35,0,0,1,104.27,6c-.31-.12-.44-.27-.38-.46s.13-.32.22-.32l1.11-.31,3.91.25c9.61,2.89,19.16,5.94,27.92,11-3.62,1.19-7.13,2.5-7.7,7a1.4,1.4,0,0,1-1.73-.7c-.62-2.19-1.58-4.09-4.07-4.64-2.92-1.4-7-.67-8.59-4.53.45-1.09,1.92-1.11,2.53-2.18C114.83,8.45,110.46,10.15,108.17,7.09Z"/><path class="cls-61" d="M139.17,18.11C146,21,151.07,26,156.22,31.05c-1.26,1.38-2.87-.42-4.25.48-.17,1.91,2.24,2.95,1.72,5a1.33,1.33,0,0,1-1,.86c-4.55-1.66-7.17-5.77-10.82-8.59-2-1.5-3.83-3.15-5.88-4.56a4.47,4.47,0,0,1,.69-4,1.67,1.67,0,0,1,1.07-.53c.53.12,1.34.68,1-.65A1.14,1.14,0,0,1,139.17,18.11Z"/><path class="cls-62" d="M153.21,37A19.53,19.53,0,0,0,152,34.39c-.86-1.28-2.93-2.48-1.62-4.05,1-1.25,3-.85,4.44.42.32.28.94.2,1.43.29,2.76,1.69,4.47,4.27,6,7,.6,3.82,0,4.21-4.55,3C156,40,153.94,39.18,153.21,37Z"/><path class="cls-63" d="M153.21,37c1.42.89,3.25,1.26,4,3,2.39,2.61,5.15,2.12,8,1a18.57,18.57,0,0,1,3.87,6.09,2.49,2.49,0,0,1-1.23.57c-2.23-.56-4.51.35-6.74-.2-1.49-1.18-3.36-1.17-5.1-1.59a7.92,7.92,0,0,1-4.42-5.56,3.52,3.52,0,0,1,1.6-3.22Z"/><path class="cls-64" d="M176.26,63a48.75,48.75,0,0,1-8-12c.68-.9-.12-2.33,1.1-3A35.16,35.16,0,0,1,176.26,63Z"/><path class="cls-65" d="M139.17,18.11q0,.47.06.93c.32,1.06-.17,1.31-1.11,1.1a4.49,4.49,0,0,1-.82-.11c-1.41.07-2.9-1-4.22.3s-1.06,4.12-3.88,3.88a.84.84,0,0,1,0-1.18c-.08-6.32.32-6.68,7.82-6.91Z"/><path class="cls-66" d="M165.21,41c-3.19,3.89-5.69,2.26-8-1,1.87-.11,5,3.06,5-1.95A5.8,5.8,0,0,1,165.21,41Z"/><path class="cls-67" d="M169.36,47.94c-.7.89,1.58,2.86-1.1,3l-1-.95a1.32,1.32,0,0,1-.37-1.06,3.34,3.34,0,0,1,1.32-1.89l.9,0A7.92,7.92,0,0,1,169.36,47.94Z"/><path class="cls-68" d="M104.11,5.2c.06.26.11.52.16.78-.19,1.2-.48,2.29-2.09,1.52A9.78,9.78,0,0,1,101,6.75l2.17-1.49A1.38,1.38,0,0,1,104.11,5.2Z"/><path class="cls-69" d="M169.19,71.06c.34-1.08-.76-3.1,1.13-3.11s2.61,2,2.77,3.63c.36,3.89.5,7.81,2.1,11.48a3.18,3.18,0,0,1,1.36,4,3.7,3.7,0,0,1-3.65,2.53,2.21,2.21,0,0,1-1.35-.81c-2.47-3.51-1-7.84-2.4-11.56C168.54,75.17,167.39,73.1,169.19,71.06Z"/><path class="cls-70" d="M169.19,71.06c-.35,2.12.7,4,1.05,6-.51,2.59-1.58.62-2.46.32-1.49-1.69-1.48-4.09-2.79-5.87-1.13-4.76-3.77-9.06-4.29-14a1.59,1.59,0,0,1,1.89-.87l.65.41C167.09,60.91,166.55,66.66,169.19,71.06Z"/><path class="cls-71" d="M176.18,87.1l-1-4c.19-2.56-.85-6.81,1.67-7.09,3.34-.37,2,4,2.78,6.31.68,2,2.56,5.6-2.61,4.86l-.44.24Z"/><path class="cls-72" d="M176.18,87.1a2.7,2.7,0,0,0,.85,0c.61,2,6.05,2,2.28,5.74a2,2,0,0,0-.29-.77c-1.25-1.22-3-.65-4.38-1.11-.84-.38-1.81-.66-1.43-1.93Z"/><path class="cls-73" d="M167.07,49.15a8.52,8.52,0,0,0,.16.88l-.06,1c-1,.9-1.94,1.67-3.36,1a2.81,2.81,0,0,1-1.11-3.47C164.43,46.71,165.9,46.8,167.07,49.15Z"/><path class="cls-74" d="M164.19,52.05l3-1c.08,1.19.1,2.35-1,3.11-.55.72-1.06,1.51-2.16.91a2.38,2.38,0,0,1-.24-2.56C163.87,52.37,164,52.21,164.19,52.05Z"/><path class="cls-75" d="M164.27,54.86l1.85-.67A2.57,2.57,0,0,1,163.24,57l0,0c-.74-.57-1.69-1-.93-2.24A1.84,1.84,0,0,1,164.27,54.86Z"/><path class="cls-76" d="M175.27,99c0,2-.07,4-.11,6-1.25-.48-2.13-2.38-3.85-1-1.85-2.87-.33-5.9-.44-8.85a.93.93,0,0,1,1.35-.2l2,1Z"/><path class="cls-77" d="M172.22,95a5.66,5.66,0,0,1-.92.13c-3.12.84-6.42-1.39-9.49.54-3.51.09-3.37-1.52-1.79-3.81,3.29-2.14,6.95-.43,10.39-1,1.61-.39,3.33.06,4.89-.71,1.49.18,2.95.41,3.72,2Z"/><path class="cls-78" d="M18,50l1.38-1.77,1.72,0c1.44.67,2.74,1.61,4.21,2.22a4.25,4.25,0,0,1,1.19.53,6.61,6.61,0,0,1,.88.95,8.59,8.59,0,0,0,2.87,2.49A26.76,26.76,0,0,0,33.59,56a11.78,11.78,0,0,1,1.13.55c1.65.91,3.17,2,4.86,2.89s3.27,2.08,5,3c2.82,1.36,5.36,3.2,8.15,4.6,1.87.91,3.58,2.11,5.4,3.11,2.2,2.21,6.8,1.7,7,6.16C62,77.36,59.52,75.5,57,74.05c-1.55-.91-3.2-1.57-4.81-2.34a256.9,256.9,0,0,0-30.1-16.93A14.21,14.21,0,0,1,18,50Z"/><path class="cls-79" d="M26.14,51c-.31,0-.63,0-.95,0a3.22,3.22,0,0,1-.87-3.94l4.87-8.33.58.48A8.59,8.59,0,0,1,31.11,45C30.05,47.46,29.15,50.1,26.14,51Z"/><path class="cls-80" d="M24.32,47.1A6.2,6.2,0,0,1,25.19,51c-2.62.8-2.52-2.22-4.08-2.91Z"/><path class="cls-31" d="M33.23,31.07c1.61-1.43,3.27-.16,4.92-.1l.27.59A2.39,2.39,0,0,1,37.17,33c-1.17.53-2.23,1.39-3.62,1.33l-.5-.42Z"/><path class="cls-31" d="M29.19,38.77c.65-2.13,1.69-3.94,3.86-4.87l.29.26a2,2,0,0,1,.24,2c-1,1.62-2,3.32-4.37,3.1A4.35,4.35,0,0,1,29.19,38.77Z"/><path class="cls-81" d="M12.25,70.1c1.16-2.76,1.43-6,4-8.06,1.71,1.55,2,3.58,2,5.74a6.49,6.49,0,0,1-.35,1.57c-1.51,2.18-1.65,6.21-6.05,4.59A3.36,3.36,0,0,1,12.25,70.1Z"/><path class="cls-82" d="M17.3,68.17c-.36-2-.72-4.09-1.09-6.13.41-1.77.71-3.59,2-5a3.62,3.62,0,0,1,3.3,1,3.18,3.18,0,0,1,.21,1.43C20.36,62.43,21.1,66.45,17.3,68.17Z"/><path class="cls-29" d="M6.36,76c.65-2,1.29-4,1.94-6l2.94,1c.74,1.36.52,2.83.49,4.28-.4,1-1.67,1-2.09,2s-1,2-2.13,1.7C6.14,78.62,7.12,76.9,6.36,76Z"/><path class="cls-83" d="M18,50c2.42.32,3,2.57,4.21,4.1a.91.91,0,0,1-.11,1.34c-2.61,1.3-3.74-.57-4.93-2.3C17.09,51.94,16.86,50.76,18,50Z"/><path class="cls-84" d="M17.18,53.09c1.59.88,2.89,2.47,5,2,.95,1.45.4,2.37-1.06,3-1.1,0-2.26.15-2.95-1C17.85,55.71,17.52,54.4,17.18,53.09Z"/><path class="cls-32" d="M11.13,76c0-1.63.07-3.26.11-4.89l1-1v4c.75.94.48,1.63-.51,2.15Z"/><path class="cls-85" d="M80.23,6.19c3.33.22,6.79-1.13,10,.86a1.54,1.54,0,0,1,.41,1.34,7.48,7.48,0,0,1-1.26,2.73c-.43.5-.9,1.19-1.54,1.14-5.82-.52-11.19,2.45-17,2.16-3,.19-6.06.5-8.78,2.08a4.33,4.33,0,0,1-2.57.9A18.19,18.19,0,0,1,56.25,15a3.28,3.28,0,0,1,2-2C65.23,9.71,72.85,8.36,80.23,6.19Z"/><path class="cls-86" d="M59.21,17l2-1.06c2.74-1.9,6.32-1,9.1-2.77,6.43-.2,12.57-2.17,18.88-3.08,1.62-.18,1.71,1,1.92,2.12a3.25,3.25,0,0,1-.88,2.25c-3.67,1.79-8,.39-11.63,2.43a23.9,23.9,0,0,1-3.12.72,55,55,0,0,1-8.69,1.9c-3.91.46-7.86,2.33-11.63-.45l3.06-1.94C58.51,16.63,58.84,16.59,59.21,17Z"/><path class="cls-87" d="M40.27,28.09c-1.74-.76-3.62-1.48-1-3.54,1-.8,2-1.64,3-2.47,2.38-1.95,4.74-3.67,6.19.9,2,.09,2.56,1.15,2.14,3-2,1.57-5-.08-6.92,1.88C42.54,28.23,41.45,28.73,40.27,28.09Z"/><path class="cls-88" d="M55.17,19a42.94,42.94,0,0,0,12.07-.94,1.14,1.14,0,0,1,0,1.32c-3.22,2.7-7.52,2.72-11.1,4.52-1,.6-1.72,1.56-3,1.62-3.4-3.31-3.39-3.93.08-6.58Z"/><path class="cls-89" d="M53.26,19c-.51,2-2.95,4.05-.06,6.12a1.08,1.08,0,0,1,.35.77c0,.29,0,.44-.09.44a2.76,2.76,0,0,1-2.22,1.36A2.27,2.27,0,0,1,50,27.18a1,1,0,0,1,.12-1.2c.23-1.46-.7-2.26-1.72-3C48.7,20,48.63,16.67,53.26,19Z"/><path class="cls-28" d="M59.21,17a3.21,3.21,0,0,1-1,.12c-1.28-.08-2-.7-2-2A3.15,3.15,0,0,1,59.21,17Z"/><path class="cls-31" d="M40.27,28.09l3-.95c.2,3.72-1.82,4.6-5,4l-.1-.13Z"/><path class="cls-54" d="M11.25,111c-1.14-5-1.42-10.2-4.15-14.73,4,.38,7,2.13,8.07,6.3a51.4,51.4,0,0,0,2.74,11.93c.62,1.78,1.74,3.65.25,5.56l-.95,0C16.06,116.49,13.09,114.13,11.25,111Z"/><path class="cls-90" d="M51.17,160.11c-3.76-.34-5.64-4-8.93-5.1-5.16-.78-6.43-5.53-9.06-8.9l-7-9a1.58,1.58,0,0,1-.05-2c1.94-1.35,3.13,0,4.1,1.33a80,80,0,0,0,20.5,19.73,4.1,4.1,0,0,1,1.87,2.8C52.44,159.79,52.17,160.39,51.17,160.11Z"/><path class="cls-91" d="M33.18,146.11c3.45,2.53,5.37,6.62,9.06,8.9-1.67.89-.45,2.66-1.12,5C38.44,154.61,32.1,152.66,33.18,146.11Z"/><path class="cls-43" d="M26.22,135l-.09,2.1-1,1.87c-2.23.94-4.25,3.24-6.93,1l.09-3.08c1.2-.49,2.54-.67,3.54-1.61,1.17-.81,2.39-1.41,3.85-.78Z"/><path class="cls-92" d="M50.2,168.05l-1.24.22c-2.43-1.49-4-3.05-.48-5.1l2.66-.17a.83.83,0,0,1,1.31,0C53.38,165.43,52,166.81,50.2,168.05Z"/><path class="cls-93" d="M48.48,163.17c-2.36,1.94-.49,3.48.48,5.1.21,2.07-1,.84-1.72.74-1.87-1.48-2.64-3.2-1.27-5.45C46.69,162.37,47.4,161.72,48.48,163.17Z"/><path class="cls-94" d="M51.17,160.11c.35-.36.71-.71,1.07-1.07,0-1.35,0-2.7,1.46-3.45a3,3,0,0,1,1.33-.05,2.7,2.7,0,0,1,1.46,1.32,3.79,3.79,0,0,1-.36,2.6,5.76,5.76,0,0,1-.67,1.15c-.94.83-1.66,2.24-3.31,1.39C51.82,161.37,51.49,160.74,51.17,160.11Z"/><path class="cls-95" d="M52.15,162l3-2c2.5.64,1.52,1.9.56,3.16a2.52,2.52,0,0,1-3.47-.12L51.14,163C51.47,162.67,51.81,162.34,52.15,162Z"/><path class="cls-96" d="M88.34,172.23,79.21,172a2.47,2.47,0,0,1-2.58.71,7.86,7.86,0,0,1-1.89-.86,11.93,11.93,0,0,0-3.31-1c-5.21-1.56-10.86-2.16-14.73-6.68a4.12,4.12,0,0,1,.14-3,2,2,0,0,1,1.92-.79A33.09,33.09,0,0,0,67,164a12.44,12.44,0,0,1,1.31.54c3.15,1.38,6.34,2.53,9.87,2.25a61.35,61.35,0,0,0,7.77,1c2.22.1,4.4.6,3.79,3.74A1.11,1.11,0,0,1,88.34,172.23Z"/><path class="cls-97" d="M75.19,171.06l1.08.93a3.23,3.23,0,0,1-1.06,3h-1c-1.15-.94-1.92-.44-2.65.62a1.46,1.46,0,0,1-2.35.38c-1.18-.72-.94-1.91-1-3l-12-5-2.92-2a2.05,2.05,0,0,1,0-2.95l2-.14c1.1-.41,1.41.55,2,1.11,4.45,3.37,9.87,4.36,15,6.15C73,171.19,74.25,170.54,75.19,171.06Z"/><path class="cls-98" d="M75.21,175c0-1.13-.16-2.33,1.06-3l2.94,0a7.17,7.17,0,0,0,1.13.88c1.36.69,4.41-.78,3.89,2-.35,1.92-3.06,1.12-4.76,1A34.89,34.89,0,0,1,75.21,175Z"/><path class="cls-99" d="M88.34,172.23c.28-.11.56-.21.85-.3a2.16,2.16,0,0,1,1.34-.42,1.75,1.75,0,0,1,1.12.85c.41,1.31-.2,2.4-.74,3.51-.94,1.33-.42,4.45-3.64,3A10.88,10.88,0,0,1,88.34,172.23Z"/><path class="cls-100" d="M87.27,178.84c2.88.16,1.26-3.09,2.91-3.86l.46.39a3.79,3.79,0,0,1,.44,1.11,20.1,20.1,0,0,0,.44,2.29c.2,1.1,1.47,2,.69,3.27h-3C88.56,181,87.91,179.91,87.27,178.84Z"/><path class="cls-40" d="M69.21,176c1.82.45,2.73-3.68,5-1C72.38,174.58,71.48,178.71,69.21,176Z"/><path class="cls-101" d="M53.28,163.05l0,2.95c-.21,1.94-1.46,2.29-3.11,2.05l2.07-5Z"/><path class="cls-102" d="M18.16,120.08c-1.25-6-4.76-11.48-4-17.93-.41-2.75-2.25-5.62.71-8.08a5,5,0,0,1,1.42-.73,6.38,6.38,0,0,1,3.16,0c1.28.85,4,0,3.49,3-4,1.12-4.47,3.72-4,7.56,1.08,8.92,3.88,17.31,6.85,25.68-1.67,4-2.53-.17-3.79-.38A28.09,28.09,0,0,1,18.16,120.08Z"/><path class="cls-103" d="M22,129.17c1.23-.3,1.72,2.16,3.21.87.64-1.59,2.1-2.22,3.43-3a52.11,52.11,0,0,1,5.15-3c1.47-.59,2.8-1.72,4.56-1.1a2.53,2.53,0,0,1,.44,1.31c-1.26,4.48-6.16,4.53-8.86,7.26a9.18,9.18,0,0,1-2.32,1.36c-1.76.79-3.76,1.06-5.27,2.42a1.55,1.55,0,0,1-1.28.06c-1.31-1.12-1.64-2.2.13-3.19C23.93,131.83,21.88,130.2,22,129.17Z"/><path class="cls-43" d="M21.19,132.14a2.42,2.42,0,0,0,0,2.85c-.6,1.45-1.51,2-3,1.06h-1C16.81,133,18.33,131.88,21.19,132.14Z"/><path class="cls-104" d="M18.25,136.05l3-1.06,1,.08c.31.21.41.43.32.65s-.2.33-.3.33c-.88,2.08-2.25,2.08-3.9.9A5.47,5.47,0,0,1,18.25,136.05Z"/><path class="cls-105" d="M167.16,123c-1,2.29-3.72,3.83-3,6.87a2,2,0,0,1-1.35.77,2.19,2.19,0,0,1-2.32-1.8c2.57-6.75,3.23-14.28,8.23-20,1.71,1.61,1,3.46.54,5.28C168.63,117.12,167,119.86,167.16,123Z"/><path class="cls-106" d="M169.24,114.12c-.32-1.69.64-3.65-1-5.07-2-3.7.62-7.65-.64-11.37-1.14-2.2-4.12-.72-5.38-2.68,3.09-3.31,6.09-.57,9.11.16,1.56,3,.14,5.94,0,8.92C170.71,107.44,170.62,110.92,169.24,114.12Z"/><path class="cls-107" d="M169.67,119.73c-.67-2-.06-2.86,1.11-3.28.24-.09,1,.38,1,.63C171.86,118.44,170.76,118.87,169.67,119.73Z"/><path class="cls-108" d="M156.14,142l-8,9c-.4,1.64-1.7,2.2-3.12,2.63-1.05.06-1.89-.22-2.14-1.4.26-3.26,3.41-4.24,5.09-6.38a114,114,0,0,1,8.6-10.16c1-.58,2.05-1.51,3,.06a1.71,1.71,0,0,1-.37,1.32C157.9,138.52,156.5,139.94,156.14,142Z"/><path class="cls-109" d="M159.19,137a7.57,7.57,0,0,0,.06-.95.87.87,0,0,1,.93-.39,2.83,2.83,0,0,0,2.1,0,2.71,2.71,0,0,1,1.2.07,3.11,3.11,0,0,0,2.31.32,5.42,5.42,0,0,0,1.79-2.18,6.5,6.5,0,0,1,1.44-2,1.22,1.22,0,0,1,1.17.15c-.34,2-.69,4-1,6C164,141.51,160.82,141.2,159.19,137Z"/><path class="cls-110" d="M145.11,153l3-2.05c3.22.17,1.26,5.53,5.09,5.07-.21.61-.36,1.73-.63,1.76-4.22.46-6.51,3.75-9.35,6.23a5.43,5.43,0,0,1,0-5l.95,0c.8-1.51,3.56-2.7.78-4.79A1.09,1.09,0,0,1,145.11,153Z"/><path class="cls-111" d="M170.19,132l-.49,0h-.48c-1.76.48-3,.29-2.75-2,1.19-1.53,2.45-3,3.54-4.6s2.46-1.79,3.78-.89c1.9,1.28.25,2.59-.71,2.9C170.63,128.2,173.65,132.14,170.19,132Z"/><path class="cls-112" d="M166.47,130l2.75,2a2.14,2.14,0,0,1-1.15,2.14c-1.56.16-2.8-1.11-4.37-1-1.15-.22-2.35-.36-2.74-1.76.31-1.22,1.69-.62,2.29-1.35a1.93,1.93,0,0,0,.89-.16Z"/><path class="cls-113" d="M145.11,153a9.24,9.24,0,0,1-.1.92,1,1,0,0,1-.93,1l-4.2,2.8c-1,2.54-2.95,3.42-5.57,3.05a2,2,0,0,1-1.41-1.6c2.62-3.55,5.55-6.66,10.31-7.13A1.93,1.93,0,0,0,145.11,153Z"/><path class="cls-114" d="M134.31,160.14c2.33.31,3.69-1.65,5.57-2.38a3.33,3.33,0,0,1,.39.36c.28,1.3-.72,2.9.92,3.87a2.14,2.14,0,0,1-.93,2c-1.38-1.07-2.19.06-3.11.8C134.65,164.21,131.91,163.73,134.31,160.14Z"/><path class="cls-114" d="M144.08,155l.93-1c1.11.24,2.61.22,2.54,1.79-.09,2-1.85,2.58-3.36,3.3C143.86,157.68,146.07,156.26,144.08,155Z"/><path class="cls-115" d="M141.19,162c-4.13-.38-2-2.26-.92-3.87C141.76,159.13,141.05,160.66,141.19,162Z"/><path class="cls-114" d="M143.24,159.07c0,1.65,0,3.3,0,5C141.72,162.37,141.69,160.71,143.24,159.07Z"/><path class="cls-116" d="M122.2,167c-3.68,2.34-8.09,2.47-12.07,3.9-1.25-.95-3,.25-4.19-1a1.42,1.42,0,0,1,.51-1.36c4.12-1.75,8.51-2.49,12.83-3.49C120.59,165.21,122.19,165,122.2,167Z"/><path class="cls-117" d="M132,168.13a4.57,4.57,0,0,0,.3.88c-2.31-1-6.62,2.79-7-2.9.68-2.1,2.36-2.93,4.3-3.43C132.45,163.61,132.5,165.75,132,168.13Z"/><path class="cls-118" d="M129.26,163.1c-.7,1.81-2.54,2.11-3.93,3l-3.13.91c-.72-1.19-1.94-.88-3-1,1.88-3.67,5.58-3.84,9-4.64C128.93,161.68,129.5,162.13,129.26,163.1Z"/><path class="cls-119" d="M105.37,171.16c-2.5,1.59-5.58.66-8.17,1.86a1.65,1.65,0,0,1-2.16.15,2.21,2.21,0,0,1-.09-2.26,9.16,9.16,0,0,1,5-2,7.74,7.74,0,0,1,3.06.33A3.89,3.89,0,0,1,105.37,171.16Z"/><path class="cls-120" d="M111.91,173.82c2.37-1.75,3.58-3.44,5.55-1.82.83.68,1.18,2.12.58,2.66C116.09,176.4,114.64,174.25,111.91,173.82Z"/><path class="cls-121" d="M95.24,172.89l2,.13c1.94,1.32,1.16,2.66,0,4L95.34,176a1.78,1.78,0,0,1-1.61-1.26C93.68,173.65,93.83,172.74,95.24,172.89Z"/><path class="cls-122" d="M105.37,171.16c-.81-.16-1.68-.22-2.15-1.08a1.94,1.94,0,0,1,2.82-.15c1.37.31,3-.36,4.09,1Z"/><path class="cls-123" d="M107.78,174a.93.93,0,0,1-1.34.86c-.53-.16-1.28-.6-1.36-1-.18-.92.71-.8,1.29-.8S107.64,173.21,107.78,174Z"/><path class="cls-124" d="M129.26,163.1c-.37-.37-.73-.75-1.09-1.12-.32-.57-.45-1.21-.74-1.78a11.91,11.91,0,0,1-1.1-2.09,14.58,14.58,0,0,0-1.08-2.12,4.6,4.6,0,0,1-.72-3.08c1-3.22-3-5.56-1.54-8.85,1.73-.76,2.59.49,3.55,1.52a7.79,7.79,0,0,1,.85,1.91c.3.87.59,1.74.9,2.6,1.06,3.31,3.49,5.87,4.92,9l1.1,1.08c-1,2.76,2.44,2.8,2.84,4.69a3.19,3.19,0,0,1-1.82,2.26,7.3,7.3,0,0,0-.94-.08c-2-2.73-1.3.61-2,.86l-.39.26C130.56,166.75,131.83,163.87,129.26,163.1Z"/><path class="cls-125" d="M132.41,167.87v-4c1.55.53,1.59,1.92,2,3.09A1.88,1.88,0,0,1,132.41,167.87Z"/><path class="cls-126" d="M16.2,94c-3,2.14-1.69,5.33-2,8.12-1.57-2.9-4.34-4.36-7.07-5.86-1.16-.87-1-2.06-.77-3.25C9.78,91.8,13,92.7,16.2,94Z"/><path class="cls-127" d="M16.2,94c-3.38.54-6.59-.61-9.87-1,0-.61.1-1.21.14-1.82.92-2.36,3.47-1.37,5-2.46,1-.85.67-3.31,3-2.7,1,1.35,1,3.11,1.7,4.57.42,1.13,1,2.27,0,3.4Z"/><path class="cls-128" d="M12.54,90.08c-1.7,2.08-4.31-.65-6.07,1.14L4.28,91l.9-2c1.11-1,.05-4.41,3.32-3a13.71,13.71,0,0,1,2.4,1.18A3,3,0,0,1,12.54,90.08Z"/><path class="cls-129" d="M6.78,101.89c-2.13-.8-1.2-2-.9-3Z"/><path class="cls-130" d="M10.29,88l-2-1c-1.77-2-1.18-4.76-2.15-7,.08-1.32.15-2.64.23-4,.84.86,1.42,3.91,2.77.3.41-1.09,1.28-.53,2-.37l.14.13C12.2,80.15,12.31,84.16,10.29,88Z"/><path class="cls-131" d="M6.13,80c3.82,1.39,1.36,4.71,2.15,7-2.63-1.74-1,3-3.1,2C5.59,86,4.35,82.84,6.13,80Z"/><path class="cls-132" d="M92.21,182c-.63-1-1.26-2.08-1.88-3.12a3.49,3.49,0,0,1,4.81.1c.89.23,2-.92,2.6.06.46.72-.49,1.36-1,1.92C95.44,182.33,93.78,182,92.21,182Z"/><path class="cls-133" d="M95.14,179l-4.81-.1c0-.93,0-1.86,0-2.79,1.44-.17,2.49-1.59,4.08-1.28l1,1.12C95.27,177,95.21,178,95.14,179Z"/><path class="cls-134" d="M115.19,13.08c2.4,2.7,6.29,2,9,4a4.38,4.38,0,0,1-3.29,2.8c-3.7-.45-7.16-2-10.89-2.4a12.87,12.87,0,0,1-3.78-.74,8.19,8.19,0,0,1-1.4-.75c-1.52-.74-3.23-.38-4.78-.85-2.28-.69-3.32-2-1.82-4.31,3.76-.5,7.34.57,11,1.24h1C112,11.87,113.78,11.51,115.19,13.08Z"/><path class="cls-135" d="M115.19,13.08c-1.69-.23-3.6.65-5-1,1.48-2.54-2.81-2.71-2-5a71.14,71.14,0,0,1,7.6,1.4c1.61.46,4,1.2,3.63,3.26S116.7,12.85,115.19,13.08Z"/><path class="cls-30" d="M98.3,11c-.31,2.28.72,3.13,3,3.14,1.66,0,3.56-.69,4.9,1-3.26,2-6.57,1.34-9.86.14-1.21-.44-2.87-1.09-2.57-2.56C94.4,9.48,91.91,9.08,90.09,8a3.31,3.31,0,0,1,.11-.94c3.69-1.74,6.69-1.51,8.21,2.89a.59.59,0,0,1,.2.71C98.5,10.86,98.4,11,98.3,11Z"/><path class="cls-135" d="M98.3,11c0-.34.07-.68.11-1,3.67.39,7.59-.57,10.81,2.1C105.49,12.61,102,11.27,98.3,11Z"/><path class="cls-136" d="M110.21,16.08l11,3c2.6.39,5.48.13,7,3l1,1a4.62,4.62,0,0,1,.15.74c.3,1-.22,1.46-1,1.79-7.18-2.54-14.6-4.43-21.37-8.07C107.55,15.84,109.4,17.15,110.21,16.08Z"/><path class="cls-137" d="M128.21,22.06l-7-3c1-.62,1.48-2.16,3-2C127.29,17.33,128.61,19,128.21,22.06Z"/><path class="cls-138" d="M153.19,37.12l-1,3a2.43,2.43,0,0,1-2.7-.82c-4.56-5.05-10.88-8.21-14.94-13.8-.73-2,.11-2.15,1.69-1.45,5.11.26,6.9,5.26,10.63,7.54C149.21,33,151.1,35.26,153.19,37.12Z"/><path class="cls-139" d="M136.22,24.06c-.5.24-2.12-.42-1,1.18.71.4,1.62,1.13.79,1.74a2.88,2.88,0,0,1-4.46-.82c-.13-2.36,1.22-4.57.7-7,2-1.7,3.61-1,5,.84A6.4,6.4,0,0,1,136.22,24.06Z"/><path class="cls-140" d="M138.12,20.14l1.11-1.1c1.17,1,1.58,2.77.33,3.3C137.71,23.12,138.5,21,138.12,20.14Z"/><path class="cls-141" d="M132.16,26c1.12.07,2.82,2.45,3.09-.78l16.92,14.89c1.33,1.64,2.05,3.78,4,5a1.23,1.23,0,0,1,.43,1.21,2.69,2.69,0,0,1-1.75,2c-4.11-2.81-7.06-6.85-10.68-10.18-2.06-1.9-4.09-3.81-6.26-5.6-2.71-2.23-5.18-2.41-7.85-.18A1.76,1.76,0,0,1,128.52,31C128.62,28.49,129.27,26.42,132.16,26Z"/><path class="cls-142" d="M156.12,46.12c0-.34,0-.68,0-1,1.76.39,4.27-1.27,5,1.85.23,1.12-.29,3,2,2.12l1,3h0c-1.78,1.57-3.05,4-6,3.7A3.05,3.05,0,0,1,157,55a3,3,0,0,1-.36-2.72c.74-1.47,2-2.94,0-4.46A1.54,1.54,0,0,1,156.12,46.12Z"/><path class="cls-143" d="M163.19,49.07l-2.53,2.8c-.67-2-.82-3.51.51-4.92,2.34-.35,4.71-1.75,7,.13a2.12,2.12,0,0,1-1.1,2.07C165.79,48.54,164.52,47.5,163.19,49.07Z"/><path class="cls-144" d="M132.16,26c-1.24,1.53-2.7,2.93-3,5-.58,1.48-.54,3.55-3.05,3.15-1.33-3.5,1.71-6,2.1-9.1l1.16-1.33c2.63-.48.85-3.73,2.89-4.58C135.46,21.52,132.13,23.74,132.16,26Z"/><path class="cls-145" d="M168.33,77c.63.2,1.27,1.11,1.91,0,1.87,3.85.43,8.25,2,12.13,0,1-.67,1.3-1.56,1.27a4.3,4.3,0,0,1-2.48-3C168.18,83.94,166.25,80.47,168.33,77Z"/><path class="cls-146" d="M171.25,90.16l1-1a4.7,4.7,0,0,1,.92-.09c.43.88,1.27,1,2.09,1.07A5.92,5.92,0,0,1,171.25,92,1.13,1.13,0,0,1,171.25,90.16Z"/><path class="cls-147" d="M157.15,55l1.1.1c1.35,1.45,2.73-1.1,4.07,0,.3.63.59,1.27.88,1.9l-2.26.07c-1.37,1.89-3.61,2.46-5.46,3.6-1.73.9-3.29,2.07-5,3-1.14.61-2.19,1.37-3.28,2.08a67.17,67.17,0,0,0-8.62,4.8c-1.87,1.09-3.94,1.82-5.72,3.07a17.64,17.64,0,0,1-1.62,1.09,39.25,39.25,0,0,0-5,3c-3,1.4-5.82,3.25-8.7,4.93-1,.52-2,1-3,1.59-1.26.7-2.46,1.66-4,1.48a3.61,3.61,0,0,1-3.42-3.51c-.19-2.09,1.58-1.54,2.76-1.64a4.32,4.32,0,0,0,2.49-1.39c2.29-2,5.18-3,7.57-4.8,2.95-1.38,5.49-3.43,8.28-5.06,4.55-1.33,8.1-4.67,12.52-6.25,6-1.27,10.47-5.44,15.73-8.11Z"/><path class="cls-148" d="M155,59.94c1.82-1.25,3.63-2.52,5.9-2.83a67.61,67.61,0,0,1,5.24,14c.65.69.76,2.1.44,2.27-2.48,1.28-.85,2.9-.53,4.41a5.44,5.44,0,0,1-.38,3.88c-2.75,1.07-2.27-1.48-3-2.66a9.05,9.05,0,0,1-.39-1.35c-.29-1.53-.27-3.15-1.2-4.52C158.78,68.9,157.58,64.12,155,59.94Z"/><path class="cls-149" d="M165.2,82.05c.05-3.66-1.21-7.44,1-10.9,1.43,1.7,1.35,3.94,2.15,5.88a53.34,53.34,0,0,1,.92,11.07c.71,1.89.94,3.49-1.92,3.3C163.93,88.9,164.53,85.48,165.2,82.05Z"/><path class="cls-73" d="M162.32,55.14c-1.36.27-2.72,1.79-4.07,0,2.5,0,3.39-3.14,5.94-3.06,0,.94.05,1.88.08,2.81Z"/><path class="cls-150" d="M162.19,95c2.28.54,4.88-.93,6.94,1.09a4.42,4.42,0,0,1-2.74,1.13,21.24,21.24,0,0,1-2.26.09c-.76,0-1.53,0-2.3,0-1.32,0-2.64,0-4-.09a9.82,9.82,0,0,1-2.46-.47c-7.24-1-14.55.31-21.78-.72a37.62,37.62,0,0,1-5.28-2.19c-1-.47-2.09-1.23-.58-2.45a131.79,131.79,0,0,1,31.88.06c.22.23.44.46.65.7C159.76,93.89,159.43,95.47,162.19,95Z"/><path class="cls-150" d="M167.16,91c2.14.07,2-1.49,2.09-2.91.67.69,1.34,1.37,2,2.06V92l-10.95.16-.19-.24c0-1.48,1.19-1.71,2.28-2A6.47,6.47,0,0,1,167.16,91Z"/><path class="cls-151" d="M65.23,76c-2.15-2.49-5.4-3.23-8-5-1-1.12-.46-2.17.21-3.16A29.61,29.61,0,0,1,69.1,57.48a3.86,3.86,0,0,1,3.05,2c2.28,3.55,4.16,7.33,6.37,10.93,1.15,1.87,2,3.77.49,5.87a32.79,32.79,0,0,1-3.91,4.17c-3.27,1.33-5.24-1.74-7.95-2.34A3.13,3.13,0,0,1,65.23,76Z"/><path class="cls-152" d="M52.21,68l-8-5A1.77,1.77,0,0,1,44,60.78c4.43-6.46,9.47-12.32,16.42-16.24a3,3,0,0,1,2-.15,12.81,12.81,0,0,1,5.34,9.4C61.68,57.61,57.62,63.56,52.21,68Z"/><path class="cls-153" d="M39.22,60.06c-2.13-.24-3.51-1.72-5-3,4.43-9.14,12-15.22,20.17-20.75a3.77,3.77,0,0,1,2.86-.61c1.93,1.28,3.3,2.89,3.21,5.37a83.43,83.43,0,0,0-18.51,17A4.44,4.44,0,0,1,39.22,60.06Z"/><path class="cls-154" d="M39.22,60.06C43.8,53,50.05,47.45,56.56,42.2a5,5,0,0,1,3.63-1.13c1.79.77,2.69,2,2,4-8,4-13.62,10.38-18,18C42.09,62.83,40.7,61.36,39.22,60.06Z"/><path class="cls-155" d="M52.21,68c4.06-5.69,7.74-11.8,15.06-14,2.47.43,2.94,1.86,2,4-4.43,3.95-9.95,6.89-12,13Z"/><path class="cls-156" d="M33.22,57l-3-2a3.91,3.91,0,0,1,.42-2C36,45,43,38.68,50.53,32.89a5.23,5.23,0,0,1,4.15-1.37,1.74,1.74,0,0,1,1,.94A3.2,3.2,0,0,1,54,35.82,93.74,93.74,0,0,0,33.22,57Z"/><path class="cls-157" d="M33.22,57c3.93-9.52,12-15.37,19.48-21.63,1.16-1,2.52-1.57,2.51-3.33,2.63.35,2.45,2.11,2,4A59,59,0,0,0,37.53,53.56c-1,1.36-1.78,2.77-3.34,3.52C33.87,57.07,33.54,57.06,33.22,57Z"/><path class="cls-158" d="M21.14,58.05c.35-1,.71-2,1.06-3,0-.35,0-.7,0-1,10.77,4.31,21,9.63,30,17l-.54.49c-2.57.74-4.64-.46-6.7-1.71-2.17-2.28-5.18-3.26-7.72-5C36.17,64.23,35.06,63.66,34,63a9,9,0,0,1-1.42-1.11A8.17,8.17,0,0,0,30,60.59c-.77-.32-1.52-.66-2.25-1-2-2-4.34-.3-6.5-.49C21.21,58.73,21.17,58.39,21.14,58.05Z"/><path class="cls-159" d="M31.21,54.05l-1,1a4.44,4.44,0,0,1-3.9-3c6.55-9.6,13.77-18.55,24.13-24.4,1.14,0,2.46-.56,3.14.95.22,2.4-1.9,2.88-3.29,3.89A91.56,91.56,0,0,0,32.83,49.34C31.81,50.61,29.86,51.85,31.21,54.05Z"/><path class="cls-160" d="M50.23,28.06c-.73.89-1.3,2.06-2.23,2.63-8.1,5-13.82,12.26-19.39,19.7C28,51.23,27.45,52,26.31,52c0-.34-.11-.69-.17-1l4-6c.81-2,1.62-4,3.38-5.41,1.25-1.19,2-2.75,3.2-4,1-.91,2.06-1.65,3-2.6C43,30.63,45.36,26.62,50.2,27l0,.12c.35.19.46.39.35.6S50.35,28.06,50.23,28.06Z"/><path class="cls-161" d="M65.23,76l2,1c2.29,2.06,5.37,3.07,7.39,5.49.07,2.2-1.34,2.36-3,2.21a165.33,165.33,0,0,1-16.75-9.84c-1.15-1.1-3.16-1.63-2.65-3.86h0C57.14,71.16,60.29,75.94,65.23,76Z"/><path class="cls-162" d="M34.15,40l-4,5c-.32-1.9-.64-3.81-1-5.71q2-1.64,3.95-3.28l.51.39C34.3,37.52,34.82,38.67,34.15,40Z"/><path class="cls-163" d="M50.2,27c-4,1.46-6.82,4.58-10.17,7-1.85.71-3.57,1.23-2.83-1.91l1-1c2.2-.65,4.17-1.6,5-4,1.79-3.25,4.44-1.43,6.84-1.16C50.15,26.33,50.18,26.68,50.2,27Z"/><path class="cls-164" d="M37.2,32.1c.12,1.86,1.38,2,2.83,1.91l-2.7,2.18c-1.34-.58-2.7-.08-4-.07L33.16,36l.18-1.84C34.57,33.36,35.44,31.9,37.2,32.1Z"/><path class="cls-165" d="M21.24,59.06c2.32-2.44,4.64-3.22,7,0,.74,1.6-.24,2.83-.87,4.16a74.38,74.38,0,0,0-6.27,19.24c-1.14,2.82.37,6.19-1.82,8.79-1.4,1-2.74.67-4.07-.15-1.63-1.44-.68-3.41-1-5.11-2.51-3.83-.87-7.53.53-11.12.76-1.94,1.76-3.82,2.47-5.8a4.38,4.38,0,0,0,.15-.88Q19.28,63.63,21.24,59.06Z"/><path class="cls-166" d="M17.15,69.05c-.88,5.66-3.49,11-3,16.92-1.49,1-.34,3-1.61,4.11L10.29,88c-.1-4-.49-8,1-11.91.33-.66.65-1.32,1-2C15.51,74,15.25,70.47,17.15,69.05Z"/><path class="cls-167" d="M90.09,8c2.69,0,6.4-1.61,4.8,4.09-.57,2,2.54,2.64,4.38,2.9a52.85,52.85,0,0,0,6.9.14c.07.28.14.56.2.84a5.18,5.18,0,0,1-3.34,1.9c-2.8.34-5.48-.51-8.21-.76-2.71-.53-2.32-3.1-3.19-4.82-.43-.13-1,.21-1.29-.38L89.2,10.05C89.23,9.25,89.22,8.43,90.09,8Z"/><path class="cls-28" d="M70.32,13.13c-2.55,2.49-6.08,1.81-9.1,2.77C63.68,13.07,67.23,13.87,70.32,13.13Z"/><path class="cls-168" d="M90.34,11.9l.88-.81c2.71,3,2.27,6.79,2.31,10.29.18,14.25,0,28.5.1,42.75,0,1.79-.44,3.66.63,5.31a4.54,4.54,0,0,0,2,.47c6.44.81,6.44.81,10.24-6a18,18,0,0,0,3-6.13,2.3,2.3,0,0,1,1.7-1.24,2.22,2.22,0,0,1,1.32.54c1.15,2.08,0,3.85-.83,5.62A99.86,99.86,0,0,1,104.24,75c-1.24,2-3.7,1.28-5.32,2.44-5.5-1.17-10.83-1.59-15.35,2.77a2.51,2.51,0,0,1-2.81.28c-1.86-1.78,1.82-3.38.16-5.16-.46-1.49-1.88-2.77-1-4.56a2.19,2.19,0,0,1,1.78-1c4.87,3.06,9.12-.27,8.29-5.61a39.94,39.94,0,0,1-.14-5.9c0-2.72-.15-5.43-.1-8.15.24-3.1-.1-6.2.07-9.29,0-.82,0-1.65,0-2.47s0-1.6,0-2.4c0-1.81,0-3.63,0-5.44,0-.76,0-1.53,0-2.29,0-1,0-2,0-3,0-.75,0-1.49,0-2.24s0-1.49,0-2.23c.26-2.22-.66-4.48.27-6.67Z"/><path class="cls-169" d="M90.19,14.08c1.41,2.18,1,4.6,1,7a4.81,4.81,0,0,1-5.34.69c-1.73.66,1-2.32-1.94-1.93A81.52,81.52,0,0,0,57.11,28.4C55.27,28,54.7,26.77,55,25c3.19-2.32,7.06-3.13,10.54-4.79.49-.23,2.35.63,1.55-1.28.07-.29.13-.59.18-.88l8.11-1.84c2.37.7,4.78.19,6.46.29,1.38-.16.46-1.06.76-.47.12.22,0,.36-.32.37-1.43,0-2.92.63-4.2-.52C81.82,13.45,86.07,14.2,90.19,14.08Z"/><path class="cls-170" d="M78.05,15.91l5.19.38c-2.66.56-5.34,1.6-7.89-.05Z"/><path class="cls-171" d="M55.28,25.06l1.93,3a3.12,3.12,0,0,1,1,.76c.53.63,1,1.28,1.48,2s.82,1.37,1.28,2c.7,1,1.31,2,2,3A9.14,9.14,0,0,1,64.13,38a13.37,13.37,0,0,0,2,3.91c2.27,3,3.9,6.46,5.84,9.69,1.13,2,2.7,3.86,2.6,6.38a2.37,2.37,0,0,1-1.5,1.46,1.54,1.54,0,0,1-1.28-.51Q64.52,47.13,58,34.91c-1.57-3-4.73-5.08-4.83-8.83v-1l2-2A1.43,1.43,0,0,1,55.28,25.06Z"/><path class="cls-172" d="M55.28,25.06c0-.67-.07-1.34-.1-2L67.06,19l1.94.2C64.22,20.68,60.47,24.56,55.28,25.06Z"/><path class="cls-173" d="M53.2,26.08a259.46,259.46,0,0,1,19,33c.22.9-.07,1.27-1,1l-2-2a6.17,6.17,0,0,0-2-4,41.06,41.06,0,0,0-5.06-9c-.67-1.33-1.35-2.66-2-4l-3-5-2-4h0c-1.3-.58-1.54-1.86-2-3-.71-1.18-1.88-1-3-1,0-.3,0-.6,0-.9Z"/><path class="cls-174" d="M27.23,132l1.9-1.05a2.54,2.54,0,0,1,2.08-.43c2.9,1.4,3.73,4.51,5.52,6.81,4.29,5.5,9.57,9.93,14.79,14.45,1.29,1.11,3.29,1.85,2.68,4.21l-2,3c-4.9-4.06-10.38-7.36-14.76-12.11a95.44,95.44,0,0,1-8.18-9.8c-.81-1.16-1.59-2.07-3.08-2.09l0,0C25.06,133.54,26.21,132.81,27.23,132Z"/><path class="cls-175" d="M27.23,132l-1,3a6,6,0,0,0-4,1c0-.33,0-.65,0-1C23.29,133.08,25.15,132.37,27.23,132Z"/><path class="cls-157" d="M54.2,156c-1.84-3.09-5-4.84-7.68-6.93-6.38-5-11.12-11.25-15.29-18,1-2.17,2.9-3,5.15-3.19,2.94,3.75,6,7.44,8.72,11.32,3.41,4.89,8.72,7.45,12.47,11.78a5.24,5.24,0,0,1-2.4,5Z"/><path class="cls-95" d="M55.23,159.05l1-2c1.51-6,4.93-11.1,8-16.38A3.32,3.32,0,0,1,66,139.51a2.57,2.57,0,0,1,1.38.34,2.56,2.56,0,0,1,.46,2,27.07,27.07,0,0,1-1.91,4.3,38.22,38.22,0,0,1-2,3.36,46.4,46.4,0,0,0-3.09,5c-1.09,1.75-1.64,3.88-3.59,5A2,2,0,0,1,55.23,159.05Z"/><path class="cls-176" d="M65.18,141l-9,16-1-1,2-5c-.7-3.19,2-4.88,3.16-7.26,1-1.19,1-2.95,2.22-4a2.56,2.56,0,0,1,1.31-.18C64.59,139.79,64.86,140.42,65.18,141Z"/><path class="cls-96" d="M55.23,159.05h2a1.38,1.38,0,0,1,0,2v3l-2-1.11c.33-1,1.5-2-.08-2.89C55.19,159.7,55.21,159.37,55.23,159.05Z"/><path class="cls-177" d="M57.21,161v-2c1-1.66,1.4-3.69,3-5,2.53-.26,4.35,1.44,6.44,2.37,6,2.63,12,4.93,18.61,5.3a10.2,10.2,0,0,1,2.46.4A2.85,2.85,0,0,1,90,165.5c-.3,2.1-1.73,2.07-3.37,1.67-1-.24-2-.29-2.92-.6,2.19.88,4.65.53,6.85,1.43a3.05,3.05,0,0,1-.34,3.92h-1c.16-2.05-.76-3.14-2.84-2.87-3.14.4-6.08-.77-9.14-1-3.42-.69-6.63-2.09-10-3h0c-2.35-2-5.82-1.7-8-4Z"/><path class="cls-96" d="M67.21,165a19.24,19.24,0,0,1,10,3C73.46,168.44,70.29,166.89,67.21,165Z"/><path class="cls-96" d="M59.21,161c2.78,1.11,6,1.27,8,4C64.39,164,60.8,164.54,59.21,161Z"/><path class="cls-40" d="M75.19,171.06c-1.25.51-2.65,1.58-3-.89C73.32,170,74.43,169.94,75.19,171.06Z"/><path class="cls-178" d="M90.18,171.92c0-1.29,0-2.59,0-3.88-.55-2.91-1-5.85-1.45-8.77.09-2.07-.07-4.15,0-6.23-.16-2.65,0-5.3,0-8,.18-3.56-.64-7.22.92-10.67a1.4,1.4,0,0,1,1.63-.51,4,4,0,0,1,1,1.58c.69,5.58.15,11.18.35,16.77,0,4.75,0,9.49,0,14.24,0,1.93.26,4-1.39,5.52Z"/><path class="cls-179" d="M91.2,172l0-19.95a1.14,1.14,0,0,1,1.6.52c1.5,6.56.7,13.2.51,19.8,0,1.46-.46,3.56-3,2.81l-.15-.21Z"/><path class="cls-180" d="M90.33,175.19c2.51-.68,1.87-2.74,1.88-4.45,0-6.23,0-12.46,0-18.69-1.08-5.47-.19-11-.48-16.49-1.47-4.67-.41-9.57-1.3-14.28-.55-4.89-5.52-3.68-8.06-5.82-1-1.62.39-2.07,1.39-2.7a4.31,4.31,0,0,1,2.72.22c1.64.83,3.43,0,5.11.4a2.69,2.69,0,0,1,1.09.76,23.59,23.59,0,0,0,2.62,5.45c.57,4,.18,8,.33,11.92,0,11.37,0,22.73,0,34.1,0,1.78.37,3.63-.41,5.36,0,.64,0,1.28,0,1.92a2,2,0,0,0-.88,2c-1.31.58-1.49,4.78-4.08,1.27A3.3,3.3,0,0,1,90.33,175.19Z"/><path class="cls-181" d="M29.21,128l-4,2c-4.76-8.8-6.64-18.42-7.93-28.18-.72-5.39-.24-5.74,5.93-5.84l.49.63c1.2,9.35,2.08,18.77,5.82,27.58A3.48,3.48,0,0,1,29.21,128Z"/><path class="cls-126" d="M15.19,91.08l4,0,.48.5a2.43,2.43,0,0,1,0,2l-.48.5-3,0C15.87,93.05,15.53,92.06,15.19,91.08Z"/><path class="cls-126" d="M23.21,96c-.88-1.58-3.13-.36-4-2l0,0a4,4,0,0,1,3.49-1,3.76,3.76,0,0,1,1.39.57A2.11,2.11,0,0,1,24.71,95c-.18.79-.53,1.36-1.49,1.09Z"/><path class="cls-182" d="M23.22,96l1-1A3.89,3.89,0,0,1,29,94.59,2.17,2.17,0,0,1,29.77,96c-.29,8.66.55,17.13,4.09,25.16a4.83,4.83,0,0,1,.33,3.83l-5,3c-3-8.85-5.75-17.72-6.36-27.16A36.9,36.9,0,0,1,23.22,96Z"/><path class="cls-183" d="M34.19,125c-4.44-7.51-5.41-15.88-5.94-24.35-.09-1.55-.56-3.32,1-4.6a3.27,3.27,0,0,1,4-.37c.33.37.75.73.8,1.22a139.69,139.69,0,0,0,4.86,24.64,2.67,2.67,0,0,1-.69,1.51Z"/><path class="cls-184" d="M38.22,123.05l0-1c1-1.42,2.49-2,3.87-2.87,2.94-1.44,5.37-4.09,9-3.84a1.5,1.5,0,0,1,1.2,1.59c-2.24,3.87-6.66,4.65-9.94,7-1.39.73-2.79,1.32-4.18,0C38.22,123.71,38.23,123.38,38.22,123.05Z"/><path class="cls-175" d="M38.22,124a6.11,6.11,0,0,0,3.94-1,2,2,0,0,1,2-.28,1.54,1.54,0,0,1,.33,1.29,7.54,7.54,0,0,1-2.73,2.08c-1.79.78-3.15,2.82-5.52,2l-5,3-2.1-.07C31.37,127.64,36.42,128,38.22,124Z"/><path class="cls-185" d="M166.2,96.09h2.93a53.2,53.2,0,0,1-.92,13A135.86,135.86,0,0,1,161.12,129c-.56,1-1.2,1.7-2.28.54a3.12,3.12,0,0,1-.26-1.51,117,117,0,0,0,6.71-25.26C165.59,100.55,164.4,98.08,166.2,96.09Z"/><path class="cls-186" d="M159.2,130.05l1.92-1.06a2.3,2.3,0,0,0,2.13,1.08l-1.85,1.05a1.43,1.43,0,0,1-2.34-.39Z"/><path class="cls-186" d="M159.18,129.09c0,.32,0,.64,0,1l0,.06c-.27,2.16,3.49,2.14,2.54,4.68a1.77,1.77,0,0,1-1.57,1.18c-.3,0-.59.07-.88.12-.64-1.13-1.37-.2-2.06-.09-1-.64-1.05-1.95-2-2.63-.35-.2-.68-.43-1-.64-.7-.39-1.41-.77-2.08-1.2a9,9,0,0,1-1-.78,11.41,11.41,0,0,0-3.08-2c-.76-.37-1.51-.77-2.23-1.21a27.1,27.1,0,0,0-5-2.86c-2.34-1.18-4.59-2.52-6.83-3.88a8,8,0,0,1-2.22-1.62,3.7,3.7,0,0,1-.46-1.33,2.69,2.69,0,0,1,.68-2c2.82-.56,4.75,1.46,7,2.41a30.38,30.38,0,0,0,5,2.93,15,15,0,0,0,3.6,1,7.78,7.78,0,0,1,1.22.45,36.73,36.73,0,0,1,4.55,2.54,27,27,0,0,0,3.86,2.15A5,5,0,0,1,159.18,129.09Z"/><path class="cls-187" d="M155.18,132.1c2.77.22,1.92,2.31,2,3.9a108.67,108.67,0,0,1-14,16.08l-10,7c-3.43-2.05-4.93-5.37-6-9,2-.53,2.5,1.28,3.48,2.33.73,1,1.19,2.15,2.42,2.65,7.89-3.08,12.53-9.87,18-15.66A15.65,15.65,0,0,0,155.18,132.1Z"/><path class="cls-45" d="M161.16,135.13c.09-1.8-1.1-2.57-2.45-3.39s-1.22-1.5.45-1.63a2.61,2.61,0,0,0,2.24,1c.62,1.21,1.77,1,2.84,1.08,1.22.84,3.27,1.36,1.33,3.43a5.39,5.39,0,0,1-2.59.53h-.88C161.31,136.25,160.87,136,161.16,135.13Z"/><path class="cls-186" d="M165.14,135.08c1.32-1.47-.87-1.84-.9-2.88,2-.75,2.79.85,3.83,2a3,3,0,0,1-1.74,3C165.34,136.8,164.77,136.21,165.14,135.08Z"/><path class="cls-188" d="M165.14,135.08l1.19,2c-1.58,1.27-2.51.29-3.35-1A2.26,2.26,0,0,1,165.14,135.08Z"/><path class="cls-189" d="M161.16,135.13l1,1c-.26.5-.48,1.41-.79,1.44-1.08.13-1-.92-1.19-1.62Z"/><path class="cls-190" d="M128.27,160c1,.71,0,1.32-.1,2l-9,4c-4.33,1.12-8.47,3.06-13.06,3.11a8.4,8.4,0,0,1-4.84.16c-.63-1.7.75-2.17,1.77-2.31,8.15-1.12,15.72-4.09,23.27-7.13A2.93,2.93,0,0,1,128.27,160Z"/><path class="cls-49" d="M101.22,169l4.9.09a1.68,1.68,0,0,1-.08.8l-2.82.15-2.92-.14a.67.67,0,0,1-.38-.65c0-.26.09-.39.17-.39A.87.87,0,0,1,101.22,169Z"/><path class="cls-190" d="M100.28,169.09a3.46,3.46,0,0,0,0,.85l-5.08,1c-1.06-1.81-.93-3.8-.92-5.79q0-17.1,0-34.19a1.08,1.08,0,0,1,1.44.5,10.82,10.82,0,0,1,.8,5c0,3.14,0,6.28,0,9.42,0,2.52,0,5,.05,7.54-.32,9.11-.31,9.17,8.87,8.06,5.45-.66,10.53-2.62,15.56-4.73,1.59-.67,3.15-2.07,5.07-.76a2.1,2.1,0,0,1,1,2c-5.62,5.4-13,6.47-20.11,8-2.26.48-4.63,0-6.85.72C97.72,167.48,100.1,168.3,100.28,169.09Z"/><path class="cls-191" d="M130.19,153.06l-2.94-3-1-2c6.35-3.92,12.13-8.47,16.69-14.5a17.5,17.5,0,0,0,3.27-6.5l2,1.06c1.32,1,3,1.49,4.11,2.89l0,0a3.18,3.18,0,0,1-.59,3.28,72.64,72.64,0,0,1-18.24,18.27A3.33,3.33,0,0,1,130.19,153.06Z"/><path class="cls-192" d="M126.15,156.05c-8.28,3.6-16.53,6.84-25.84,7.41-4.51.28-5.24-.83-5.1-4.48.06-1.65,0-3.3,0-4.95,1.72-.21,1.79,1.31,2.4,2.27,1.28,2.24,3.2,1.09,4.84.79,7.11-1.33,14.14-3,20.61-6.42,1.46.13,2.51.61,2.1,2.38Z"/><path class="cls-193" d="M126.07,146.28,123.2,144c-.89.36-1.33-.2-1.74-.85-.51-1.37-1-2.75-.38-4.23,5.73,2.3,8.71-1.69,12.1-5.1,2.88-2.89,4.78-6.63,8.13-9.06,4.82,2,5.17,2.67,2.47,6.49C139.18,137.76,133.83,143.46,126.07,146.28Z"/><path class="cls-194" d="M126.07,146.28c2.11-2.79,5.39-4.18,8.05-6.26,3.5-2.74,5.95-6.17,8.76-9.39,2.43-2.78,1.69-4.57-1.68-5.59a.8.8,0,0,1,0-1,8.64,8.64,0,0,1,5,3c.47,1.19,1.54,2.41.54,3.67-5.19,6.56-10.45,13.07-18.09,17a7.22,7.22,0,0,1-2.41.31C126.18,147.45,126.13,146.87,126.07,146.28Z"/><path class="cls-195" d="M100.28,169.09c-1.52-.31-4.4.48-4.17-1.38.33-2.58,3.58-2.61,5.67-2.57,9.23.18,17.33-3.35,25.42-7.1l1.07,2c-7.84,4.07-16,7.09-24.89,8a2.77,2.77,0,0,0-2.16,1A7.5,7.5,0,0,1,100.28,169.09Z"/><path class="cls-196" d="M122.32,143.08l.88.92c-.31,3.23,4.48,5.34,2,9.05l-2-2c-2.1-.73-2.15-3.25-3.82-4.37-1.11-1.17-1.28-2.76-1.86-4.17a17.86,17.86,0,0,0-1.92-3.34,42.45,42.45,0,0,0-2.32-4,5.35,5.35,0,0,1-1-3.4c1.11-3.25,2.49-1.43,3.72-.14C119.15,134.87,120.44,139.13,122.32,143.08Z"/><path class="cls-197" d="M103.19,16.75c.91-.87,2.09-.62,3.18-.79l3.84.12c-.74,1.19-2,.86-3.11,1.09C105.68,18.18,104.35,18.3,103.19,16.75Z"/><path class="cls-198" d="M103.19,16.75l3.91.42c7.28,2,14.5,4.18,21.13,7.93,2,3.64-2,5.79-2.21,8.87a.85.85,0,0,1-1.2-.17c1.78-7.47-4.46-7.23-8.63-9a16,16,0,0,0-7.14-1.48,14.48,14.48,0,0,1-4.8-1.2,11.48,11.48,0,0,0-7-.51c-.75.52-.54,1.34-.62,2.07A4.24,4.24,0,0,1,95.53,26a1.6,1.6,0,0,1-1.41.19,2.73,2.73,0,0,1-.78-1.34c.1-2.95-.94-6,.89-8.78C97.31,15,100.16,17.22,103.19,16.75Z"/><path class="cls-190" d="M157.45,52l-.3,3h0a12.11,12.11,0,0,1-4,1.38c-2.65-1.62-3.56-4.65-5.57-6.83a74.54,74.54,0,0,0-18.69-14.42c-.67-1.45.06-2.37,1.19-3.13,1.71-3.72,3.76-3.86,7-1.42,6.81,5,12.44,11.21,18,17.45a2.3,2.3,0,0,1,1.54,1A3.49,3.49,0,0,1,157.45,52Z"/><path class="cls-199" d="M130.11,32l-1,3c.2,2.17-1.5,3.51-2.24,5.26-.74,1.3-1.34,2.67-2.07,4a27.81,27.81,0,0,0-2.88,4.88c-.38.77-.76,1.53-1.15,2.28-.9,1.73-2.06,3.3-3,5-1.34,2.3-2.86,4.49-4,6.89-2.49,3.92-4.73,8-7,12a2,2,0,0,1-1.51,1.23,2.17,2.17,0,0,1-2-1.49c2.46-4.28,5-8.54,7.38-12.84.9-1.58,1.84-3.18,1.63-5.14-.92-1.88.65-3.29.94-4.94a6.11,6.11,0,0,1,.59-1.17,9.88,9.88,0,0,1,.83-1c1.13-1.1,1.38-2.59,1.82-4a4.77,4.77,0,0,1,1.07-1.62c1.57-1.23,2.32-3,3.25-4.69,1.5-1.88,2.39-4.25,4.48-5.65l.83,0c1.79-.17,1.9-2.17,3.16-2.92Z"/><path class="cls-200" d="M156.14,49.11,155.2,48a2,2,0,0,1,.92-1.92l1.07,1C157.88,48.32,157.82,49.14,156.14,49.11Z"/><path class="cls-201" d="M156.14,49.11a2,2,0,0,0,1.05-2c3.08,1.47,3.06,3.1.25,4.87C157,51,156.57,50.07,156.14,49.11Z"/><path class="cls-202" d="M106.1,75.3c1.19-4.73,4.12-8.49,6.89-12.33,4.13-1.14,7.62,1.07,10.52,5.85,2.6,4.29-2.3,4.21-3.24,6.38-1.68,2.61-5.15,2.58-7.08,4.82C108.68,81.68,108,77.65,106.1,75.3Z"/><path class="cls-203" d="M162.2,91.05l-2.09.88-32.93.23c-1.35,1.34-3.09,1.17-4.77,1.24-2-.11-4,.19-5.83-.85a1.07,1.07,0,0,1-.36-1.48c3.66-2.59,7.82-1,11.75-1.43,1.69-.07,3.38,0,5.07,0s3.32,0,5,0,3.26,0,4.9,0c.8,0,1.61,0,2.41,0,1.59,0,3.18,0,4.77,0,1.27,0,2.54,0,3.8,0,2.56.14,4.42-.64,3.84-3.61-1.57-8-2.08-16.47-7.74-23.16l5-3c5.1,2.89,4.24,9,7.15,13.11,1.19,1.5-.23,3.52,1,5h0c-1.46,1-1.42,2.06-1.1,3.89C162.6,84.87,164,88,162.2,91.05Z"/><path class="cls-204" d="M121,49a10.4,10.4,0,0,1,2.93-5c2-2.14,4.1-1.15,5.76.18,4.53,3.6,9.16,7.1,12.71,11.79,1.9,2.51,2.07,4.78-.29,7a6.7,6.7,0,0,1-1.05,1c-4.39,1.81-7.77,5.65-12.73,6.32-.59-.71-.25-1.3.2-1.89a12.8,12.8,0,0,1,4.14-2.67c5.79-3.34,5.76-3.67.85-8.33C129.81,53.9,126.38,50,121,49Z"/><path class="cls-205" d="M150,62.94c4.37.84,4.79,5,5.84,8,1.66,4.73,2.38,9.79,3.32,14.75.74,3.88-.54,6.16-5,5.35a2.22,2.22,0,0,1-1.35-1.91c.32-8-2.22-15.2-5.52-22.25a4.14,4.14,0,0,1-.29-1.94A4.17,4.17,0,0,1,150,62.94Z"/><path class="cls-206" d="M129.17,69l-.83,1.29a18.77,18.77,0,0,1-8.07,4.89,3.2,3.2,0,0,0-.06-1c-1.08-2.49,5.53-.75,2.39-4.55C120,66.49,118,62.61,113,63c.65-2.73,2.37-4.84,4-7,4.48-1.07,6.5,2.69,8.82,5.06A11.55,11.55,0,0,1,129.17,69Z"/><path class="cls-207" d="M147,64.91c5.85,7.75,7.25,16.72,7.16,26.1l-4,0c-2.91-5.46-2.09-12-4.93-17.45-.83-1.62-.71-4.27-3.78-3.18-1.23.28-2.48.72-3.52-.45A27.5,27.5,0,0,1,147,64.91Z"/><path class="cls-208" d="M128.14,90.9c-3.95.56-8-.58-11.92.76-1.71,1.06-1.63-.7-2.23-1.41-.69-2.41-1.69-4.84.39-7.1L117,82c.63-.22-.18-.16.45-.18,2.73-.07,4.91-4.49,7.92-1.34A11.09,11.09,0,0,1,128.14,90.9Z"/><path class="cls-209" d="M143.19,91h-5a146.1,146.1,0,0,0-7.13-17l1.25-.9c5.22-2.09,6.9-1.77,8.63,3.33C142.52,81,145.87,85.62,143.19,91Z"/><path class="cls-210" d="M131.06,74c4.53,4.77,7.24,10.29,7.13,17l-5,0c-2.5-4.63-3.24-10.18-7.24-14A9.22,9.22,0,0,1,131.06,74Z"/><path class="cls-211" d="M126,76.93c6.38,2.64,6.34,8.58,7.24,14l-5.05-.07c-.14-.29-.28-.59-.41-.89-1.17-2.81-.71-6.2-2.83-8.66-2.83-3.29-5.08,2.33-7.87.63A32.66,32.66,0,0,1,126,76.93Z"/><path class="cls-212" d="M143.19,91c.22-5.07-1.94-9.61-3.35-14.28-1.09-3.63-3.76-5-7.53-3.61A13.59,13.59,0,0,1,138,69.91l3.24-.82c5.91,6.46,7.08,13.79,4,21.9Z"/><path class="cls-150" d="M114.38,83.15c-.85,2.43.55,4.61.79,6.92-.71,5.27-3.13,1.7-5,1a4.5,4.5,0,0,1-1.11-.77,25.13,25.13,0,0,0-4.34-7.76,4.85,4.85,0,0,0-3.35-2.57A2.45,2.45,0,0,1,100,78.67a1.19,1.19,0,0,1,.49-1.1c1.5-.76,3.31-.58,4.76-1.51l.88-.76c3.05.55,3.44,5.08,7.09,4.72-1.37,1.55-2.56,3.64-5.36,1.09C109.08,86.9,111.87,84.42,114.38,83.15Z"/><path class="cls-142" d="M141.07,64a5,5,0,0,1,.12-1c2.16-1.65,3.88-3.88,6.52-4.89,2-.32,3.15-2.77,5.5-2.07a7.13,7.13,0,0,1,4-1.07C152.42,59.1,147.46,62.83,141.07,64Z"/><path class="cls-213" d="M162.2,91.05c-.61-4.32-1.22-8.64-1.83-13,.93-.38,1.91,1.73,2.83,0,1.62.86.38,3.15,2,4,1.87,2.72.13,6.24,2,9Z"/><path class="cls-213" d="M163.2,78.05c-1.67-1.4-.77-3.31-1-5C163.86,74.45,163,76.37,163.2,78.05Z"/><path class="cls-214" d="M153.19,126.05c-1.66-1-3.74-1.32-5-3,4.7-4.92,5.39-11.38,6.67-17.59.69-3.34.61-6.91,3.38-9.5l4,.07a5.83,5.83,0,0,1,1.21,5.11c-1.08,7.48-2.4,14.92-5.65,21.84C156.83,124.93,156.14,127.18,153.19,126.05Z"/><path class="cls-215" d="M159.18,129.09a2.06,2.06,0,0,1-2.06-.86,3.39,3.39,0,0,1-.14-3.72,71.56,71.56,0,0,0,6.35-26.69,3.11,3.11,0,0,1,.87-1.74h2c1.43,9.18-1.65,17.66-4.17,26.21A64.63,64.63,0,0,1,159.18,129.09Z"/><path class="cls-185" d="M164.2,96.08a59.55,59.55,0,0,1-6.34,28.77,14.1,14.1,0,0,0-.74,3.38,6.6,6.6,0,0,1-3.93-2.18,3.11,3.11,0,0,0,2.95-2.2c3.47-8.95,6.08-18.08,6-27.79Z"/><path class="cls-216" d="M110.27,90.08c.78.14,2.07,0,2.25.45,1.64,3.68,1.77-.43,2.65-.46.43.47.06,1.48,1,1.59a.41.41,0,0,0,0,.52,9.88,9.88,0,0,0,6.06,0h5c1.73,1.51,4.58.63,6,2.83-4.8,2.87-10.08.79-15.08,1.45a12.18,12.18,0,0,0-2.25.23c-2.2-.44-3.7,3.42-6.23,1C108.82,95.07,107.75,92.42,110.27,90.08Z"/><path class="cls-217" d="M158.21,96c-2,7.06-2.29,14.55-5,21.43-1,2.43-1.12,5.78-5,5.66l-.08.07a3.27,3.27,0,0,1-.52-1.36c3.18-6.49,4.14-13.6,5.84-20.51a10.51,10.51,0,0,1,2.23-5l.64-.36Z"/><path class="cls-217" d="M116.07,95.49l17.1-.5c7.68.82,15.46-.82,23.1,1l-.15.16c-1.69,1.43-3.72,1.32-5.74,1.31-1.42,0-2.84.09-4.26,0-2,0-4,.07-5.94,0-1.71.07-3.43.07-5.14,0-3.16.08-6.32.1-9.49,0-2.84-.18-5.74.38-8.53-.65A1.62,1.62,0,0,1,116.07,95.49Z"/><path class="cls-218" d="M71.23,60l1-1q.49,0,1,0a23.09,23.09,0,0,1,6.93,12.08c-.05,1.68,1.51,2.52,2,3.92-.94,1.82-2.23,2.28-4,1,1.33-1.82.4-3.36-.55-5C75.48,67.42,73.36,63.72,71.23,60Z"/><path class="cls-219" d="M78.2,76.05a6.5,6.5,0,0,0,4-1c2.16,2.76-.69,3.57-1.94,5l-.55.37a3.55,3.55,0,0,0-3.85-.15L75.2,80C75.28,78,76.61,76.94,78.2,76.05Z"/><path class="cls-219" d="M74.17,82.09a10.06,10.06,0,0,1-7-5c3.06-.08,4.77,3.47,8,3l0,0a1.41,1.41,0,0,1-.43,1.78Z"/><path class="cls-220" d="M53.21,29.06l2,3c-3.59.29-6,2.9-8.27,5-5.6,5.28-11.66,10.22-15.73,16.95-3.18-.83-1.8-2.33-.61-3.88A91.73,91.73,0,0,1,53.21,29.06Z"/><path class="cls-221" d="M37.23,64c2.74,1.55,6.35,1.7,8,5,.77,3-1,5.44-2,8-1.65,4.54-1.69,9.47-3.57,13.93a3.32,3.32,0,0,1-1.35,1,7.55,7.55,0,0,1-2.5.43c-2.26-.07-4.61.39-6.69-1-1.53-1.87-1.12-4-.86-6.13a68.23,68.23,0,0,1,4.61-16.6C33.68,66.6,34.24,64.13,37.23,64Z"/><path class="cls-222" d="M39.22,91.05a53.63,53.63,0,0,1,6-22c2.25.94,4.46,2,7,2l3,3c-2.37,5.84-3.27,12.22-6.54,17.74C45.42,92.66,42.21,93.21,39.22,91.05Z"/><path class="cls-223" d="M37.23,64c-5.76,8.08-7.41,17.37-8,27-1.4,1.43-3,1.28-4.68.63a2.83,2.83,0,0,1-1.1-1.25c-.47-2.69-1.51-5.49,1.4-7.55.94.41,1,1.18.9,2.06,1.15-8.24,3.57-16,8.49-22.84Z"/><path class="cls-157" d="M25.21,83.05c-2,2.45-.55,5.34-1,8a2.44,2.44,0,0,1-3.13.27c-1.61-3.35-.63-6.62,0-10,1.23-6.34,3.67-12.22,6.29-18,.58-1.29,1.15-2.79,2.84-3.19,1.09,0,2.27-.16,3,1C30.63,68.43,27.55,75.6,25.21,83.05Z"/><path class="cls-183" d="M30.23,60.05c-4.39,9.93-9.63,19.62-9,31a.94.94,0,0,1-1.41-.44c.07-2.86-.56-5.75.41-8.56.64-8.37,4-15.79,8-23A2.13,2.13,0,0,1,30.23,60.05Z"/><path class="cls-224" d="M25.21,83.05a46.28,46.28,0,0,1,8-22l1,1c.52,2.57-1.41,4.38-2.36,6.34C29.08,74.05,28.12,80.25,26,86.2,24.69,85.24,25.45,84,25.21,83.05Z"/><path class="cls-225" d="M33.28,36.12c1.37-1.39,2.73-1.88,4,.07-1,1.31-1.34,3.18-3.18,3.79A6.08,6.08,0,0,1,33.28,36.12Z"/><path class="cls-226" d="M49.21,91.05c.47-6.2,1.76-12.11,6-17,5.28,3.44,11.26,5.77,16.07,10,1.16,3.94.15,7.33-3.22,7.82C61.79,92.75,55.37,93.89,49.21,91.05Z"/><path class="cls-219" d="M49.21,91.05H63.63c6,0,7.05-1,7.63-7,1.42,0,2.85.08,2.91-1.94l.07,0c2.88,1,2.91,1.46.24,4.09-2.14,2.11-2.2,3.82.94,5a3,3,0,0,1,.48,1.34c-.08,1.13-.55,1.91-1.8,2-7.16,1.64-14.52.33-21.72,1.52a9.61,9.61,0,0,1-4,0,37.11,37.11,0,0,0-8.8-1.06c-3-.08-3.31-1.67-1.41-3.83l1,0Z"/><path class="cls-157" d="M20.22,82.05c0,3,0,6,0,9a.62.62,0,0,1-1,0v0C19.68,88.07,18.21,84.86,20.22,82.05Z"/><path class="cls-227" d="M94.23,16.11c0,3.33.07,6.66.1,10,1.57,1.82,1.26,4,1.27,6.17,0,9.44,0,18.88,0,28.32-.4,3.4.89,7-1.22,10.18-.34.72-.35,2.52-1.66.9-1.08-1.34-.52-3.2-.52-4.83,0-16.87,0-33.74,0-50.61,0-1.73.69-3.68-1-5.14.28-1.35.8-2.63,1.82-.54C93.85,12.24,92.43,14.53,94.23,16.11Z"/><path class="cls-228" d="M71.21,52.06q-3-5-6-10c8-4.65,16.12-9.05,25.93-6v2A3.1,3.1,0,0,1,89,39a4,4,0,0,0-2.26.51c1.54-.47,3.07-.8,4.4.51V50c-4.8-4.19-9.67-1.93-14.51-.13C74.81,50.57,73.36,52.19,71.21,52.06Z"/><path class="cls-229" d="M71.21,52.06c3.78-4,9-4.7,13.9-6,3.5-.9,5,1.07,6,3.93,0,3,0,6,0,9-3.59-1.88-7-2.09-10.56.35a5,5,0,0,1-5.63.5c-.58-.47-1.13-1-.77-1.81C73.2,56.07,72.2,54.06,71.21,52.06Z"/><path class="cls-230" d="M75.2,59.06c2.75,1.15,4.6-.75,6.8-1.81,3.36-1.64,6.89-2.77,9.16,1.78,0,2.66.08,5.33,0,8,0,3.11-5.22,6.93-8,5.72-.89-.4-1.35-1.76-2-2.67C78.14,67,75.66,63.58,75.2,59.06Z"/><path class="cls-231" d="M91.16,36.06c-9.33-1-17.36,3.67-25.93,6a5.45,5.45,0,0,1-2-4c1.08-2.7,3.83-2.91,6-4.06C75,30.86,81.65,30.7,87.9,29.15a3.5,3.5,0,0,1,3.24.9Z"/><path class="cls-232" d="M107.22,64.1c-.2.61-.38,1.24-.62,1.85-1.92,4.87-4.81,7.71-10.37,5-1.55-.69-1.7-1.89-1.23-3.33.62-3.69-.29-7.45.57-11.13,4.52-2.56,8-1.65,10.5,2.65.56,1,1.61,1.61,1.81,2.82A3.41,3.41,0,0,1,107.22,64.1Z"/><path class="cls-233" d="M80.22,80.06c3.79.61,4.85-4,8.57-4.28s7.12-.64,10.44,1.22c.86-.19,1.18.2,1.1,1l-.28.08a3.38,3.38,0,0,1-2.25,1,7.09,7.09,0,0,0-1.69.42c-1.06.63-1.08,2.1-2.17,2.71a12.24,12.24,0,0,0-6.94,8,1.84,1.84,0,0,1-1.74,1,2.77,2.77,0,0,1-.85-1.07c-.56-2.34-.5-4.85-2-6.9-.6-.91-1.64-1.33-2.37-2.08a.87.87,0,0,1,.21-1.13Z"/><path class="cls-169" d="M60.21,33.08a2.08,2.08,0,0,1-1-2c6.22-5.49,14-7.19,21.81-8.26,3.27-.45,6.81-2,10.11.27v2c-2.35,2.69-5.77,2.18-8.76,2.8-5.83,1.21-11.6,2.53-17,5.11C63.67,33.75,62,34.35,60.21,33.08Z"/><path class="cls-234" d="M107.2,62.05c-2.34-4.4-5.76-6.84-11-6-1.51-4.64-.55-6.42,3.87-6.23,4.26.18,8.53.81,11.38,4.66A2.35,2.35,0,0,1,111.2,57l-.89,1C108.75,59,109.8,61.92,107.2,62.05Z"/><path class="cls-235" d="M91.14,23.07c-9.67.33-19,2-27.78,6.39-1.32.66-2.76,1.07-4.14,1.6a3.23,3.23,0,0,1-2-2c7.27-5.19,15.72-7.2,24.26-8.92a3.82,3.82,0,0,1,3.69.93h5.94C91.15,21.73,91.14,22.4,91.14,23.07Z"/><path class="cls-236" d="M91.14,30.05c-9.68,1.38-19.2,3.3-27.92,8l-1-2c-.34-1.54.86-2.11,1.85-2.58C71.47,30,79.13,27.4,87.41,27a4.54,4.54,0,0,1,3.71,1Z"/><path class="cls-231" d="M91.12,28.07c-10.51-.5-20,2.72-28.91,8l-2-3c7.29-2,14-5.67,21.7-6.45,3.1-.31,6.15-1,9.22-1.59C91.12,26.05,91.12,27.06,91.12,28.07Z"/><path class="cls-237" d="M75.2,59.06l6,11-1.08,1.06a72,72,0,0,1-6.93-12.08l1-1Z"/><path class="cls-231" d="M91.14,40.05c-2.76-.71-5.54,2.25-8.92-.07a17.45,17.45,0,0,1,8.94-1.92C91.15,38.72,91.15,39.39,91.14,40.05Z"/><path class="cls-238" d="M100.33,78l-1.1-1c0-3.27,2.9-.8,4-2l2,1C104.24,78.32,102.24,78.08,100.33,78Z"/><path class="cls-239" d="M95.29,68.06c.31,1,.63,1.9.94,2.85l-1.83-.14-.06-9.66a.78.78,0,0,1,1.28.4C95.57,63.7,96.09,65.91,95.29,68.06Z"/><path class="cls-240" d="M107.2,62.05c1.44-1,.93-3.55,3.11-4a7.62,7.62,0,0,1-3.09,6.06C107.22,63.41,107.21,62.73,107.2,62.05Z"/><path class="cls-239" d="M111.2,57l0-2c.19-1.77.58-3.35,2.93-3,.08,1.95-1.4,3.3-2,5Z"/><path class="cls-220" d="M85.21,21.06c-7.34-.21-13.81,3-20.51,5.26-2.5.85-5,1.82-7.44,2.73,0-.33,0-.66,0-1,6.85-6,15.4-7.73,24-8.83,2.68-.35,5.53-2.31,8.66-.4C88.77,20.92,86.12,19.23,85.21,21.06Z"/><path class="cls-241" d="M36.23,128.06l5-3A50.8,50.8,0,0,0,51.94,138.6c2.43,2.25,4.62,4.84,8.52,4.07.61-.12,1.14.54.75,1.36l-4,7c-8.63-4-13.45-12-19.25-18.92A6.73,6.73,0,0,1,36.23,128.06Z"/><path class="cls-242" d="M90.21,134.05c0,3.66,0,7.33,0,11-.78,1.46-2.19,2.52-3.62,1.95-6.26-2.49-13.28-1.92-19.37-5v-2a17.31,17.31,0,0,1,5.69-8.92,4.31,4.31,0,0,1,3.33-.44C80.83,132.09,85.63,132.62,90.21,134.05Z"/><path class="cls-182" d="M90.2,159v9a19.13,19.13,0,0,1-9.8-1.88c2.44,0,4.08-.08,5.69,0,1.2.09,2.76,1.31,3-1,.18-1.79-1.15-2.18-2.62-2.13-6.82.21-12.93-2.28-19.06-4.82a29,29,0,0,1-7.18-4.2c.23-2.13,1.7-3.52,3-5a62,62,0,0,0,23.85,7.86A3.84,3.84,0,0,1,90.2,159Z"/><path class="cls-224" d="M67.21,142c6,.68,12.2.63,17.78,3.7,1.65.91,3.56.23,5.21-.69v8c-3.26,3.11-6.79.59-9.92,0-5.5-1-11.19-2.27-15.08-7A5.68,5.68,0,0,1,67.21,142Z"/><path class="cls-183" d="M65.2,146c6.89,3.89,14.44,5.82,22.1,7.39a9.3,9.3,0,0,0,2.9-.38v6c-5.64-1.35-11.47-1.75-17-3.93-3.75-1.49-7.79-2.19-10-6.07C63.87,148,64.53,147,65.2,146Z"/><path class="cls-176" d="M73.21,132c-2.73,2.13-3,6.08-6,8l-1,0c-.82-2.1.86-3.65,1.18-5.5a6,6,0,0,1,.61-1.15,25.81,25.81,0,0,0,3.86-6c2.53-2.54,2.38-7.08,6.35-8.56a3.38,3.38,0,0,1,1.46,2.39A27.2,27.2,0,0,1,73.21,132Z"/><path class="cls-243" d="M68.19,134.05c.39,2.34-1.17,4-2,6l-1,1-1-1C63.52,136.69,63.63,133.87,68.19,134.05Z"/><path class="cls-244" d="M68.19,134.05c-3.09.81-3.13,3.68-4,6h-1c-2.86-2.16-6.59-2.45-9.52-4.33-4.38-2.8-6.88-7.29-9.46-11.65,0-.33,0-.66,0-1a90.19,90.19,0,0,1,7.65-4.9c1.94-1.29,3.54-3.53,6.38-2.29-1.62,6.28-1.53,6.38,5.28,8.26,2.9.8,6.45.91,6.67,5.21-.08,1.84-1.17,3.24-2,4.74Z"/><path class="cls-245" d="M44.21,124c4.55,2.19,5.43,7.64,9.51,10.48,2.66,1.85,6.87-.09,8.36,3.87A7.84,7.84,0,0,0,63.19,140c-.95,1.19-.19,3.23-2,4-4.23,1.15-6.94-1.3-9.53-4-3-3.1-6.16-5.95-8.68-9.5a7.67,7.67,0,0,1-1.77-5.42Z"/><path class="cls-246" d="M73.21,132c1.43-4,3.83-7.43,6-11-.84-3,.62-4.71,3.07-6,3.13,1.41,8.27-.81,9,5a39,39,0,0,1,0,14h-1c-3.48,1-6.72,0-10-1.11C78,132.18,75.7,131.15,73.21,132Z"/><path class="cls-247" d="M92.17,135l0,17h-1q0-8.52,0-17C91.54,134.6,91.85,134.57,92.17,135Z"/><path class="cls-248" d="M92.17,135l-.47,0h-.47c0-.33,0-.66-.07-1q0-7,0-14C93.47,124.91,91.67,130,92.17,135Z"/><path class="cls-249" d="M86.21,114l-2-1c-1.1,1.3-1.22-2.06-2.38-.5-3.26.12-4.52-2.67-6.48-4.44a4.21,4.21,0,0,1-.63-1.16c-.5-.91,1.65-2.47-.72-2.94a3,3,0,0,1,.53-2.53,1.91,1.91,0,0,1,1.1-.72c3.52,1.92,5.25,6,9.13,7.49,3.14.87,6.54.48,9.55,2.12.75.4.69-.73.57-1.35a1.86,1.86,0,0,1,.32-1.23c3.42-.16,7,.81,10.14-1.29,1.33,0,2.71.56,1.76,1.87-1.45,2-1.66,4.57-3.49,6.28-2.56,1.19-5.81-.79-8.08,1.74a2.42,2.42,0,0,1-1.28-.07c-1-.5-.84-2-2-2.29h-1C89.54,113.24,87.88,113.85,86.21,114Z"/><path class="cls-250" d="M82.17,112c1.39-1,1.12,1.11,2,1l-1.92,2q-1.55,3-3.07,6a2.18,2.18,0,0,1-1-2,1.51,1.51,0,0,1-.34-1.24A9,9,0,0,1,82.17,112Z"/><path class="cls-193" d="M94.46,116.25a1.42,1.42,0,0,0,.75-.24.83.83,0,0,1,1.36.3,3.64,3.64,0,0,1,.15,1.67c-.88,4.33,1.23,9-1.57,13.12-.27,0-.54-.06-.8-.11l-.27-12.94A1.14,1.14,0,0,1,94.46,116.25Z"/><path class="cls-251" d="M94.46,116.25c-.12.6-.25,1.2-.38,1.8-3.75.13-1-2.77-1.87-4C95.12,112.57,93.86,115.37,94.46,116.25Z"/><path class="cls-252" d="M86.21,114a3.37,3.37,0,0,1,5,0C89.54,114.21,87.88,115.49,86.21,114Z"/><path class="cls-127" d="M19.21,91.09l1,0h1l3,0v.08c1.1,1.44.14,2.2-1,2.91h-4Z"/><path class="cls-253" d="M38.21,91.09c-.27,1.64-.89,3.57,2.06,2.79a10.38,10.38,0,0,1,7.93,1.17c-4.06,2.6-8.55,1.33-12.83,1.11a18.69,18.69,0,0,1-6.16-1.09h-5c0-.33,0-.66,0-1A4.2,4.2,0,0,1,27,92.79c2.18-.16,4.37,0,6.55-.14a3.82,3.82,0,0,0,2.64-1.56Z"/><path class="cls-254" d="M36.21,91.09c-.05,1.07.22,2.26-1,2.9a7.76,7.76,0,0,0-8,0l-3,.06L23.25,94c.32-1,.65-1.94,1-2.91l5-.1Z"/><path class="cls-255" d="M29.21,95.07l19,0h4c5.53-1.06,11.11-.26,16.67-.44,1.19,0,1.74.72,1.65,1.91-4,2.42-8.25.41-12.34,1-3.3,0-6.61.15-9.91,0-3.3.08-6.6.11-9.9,0-1.86,0-3.69-.07-5.17-1.42h-4C29.22,95.72,29.22,95.4,29.21,95.07Z"/><path class="cls-256" d="M33.22,96.05h5c1.75,2,1.94,4.5,2.21,7,.18,1.65.2,3.33,1.38,4.67,3.06,3.46.46,7.67,1.48,11.42.07.25-.66.66-1.06,1a6,6,0,0,1-4,2C34.86,113.75,32.81,105.14,33.22,96.05Z"/><path class="cls-242" d="M42.23,120.07c1.15-1.66.46-2.94-.59-4.42-.83-1.16-2.34-2.81.47-3.81a1,1,0,0,0,.2-1.93c-5.4-3.46-2.36-9.36-4.09-13.85h10c1.52,1.54,1.56,3.55,1.68,5.49.28,4.43,1.67,8.61,2.74,12.87A1.88,1.88,0,0,1,51.22,116C47.78,116.38,45.48,119.28,42.23,120.07Z"/><path class="cls-257" d="M52.22,119c-2.83,1-4.8,3.75-8,4l-2,0,10-6,.47.38A1.51,1.51,0,0,1,52.22,119Z"/><path class="cls-258" d="M51.22,116c.32-.33.65-.65,1-1,1.4-2.91,3.85-4.14,7-4.3a2.2,2.2,0,0,1,1.34,1.6c-2.1,2.73-5.22,3.67-8.26,4.75l-.11-.08Z"/><path class="cls-259" d="M141.21,124c0,.34,0,.68,0,1-2.62,5.7-7.31,9.7-11.59,14-2.67,2.69-5.54,2.88-8.3,0a1,1,0,0,1-.35-.8c0-.3.07-.45.13-.45,3-3.33,7.07-5.43,10-8.88,2.18-2.58,4-5.19,3.13-8.82A22.57,22.57,0,0,1,141.21,124Z"/><path class="cls-260" d="M132.08,118.47a2.57,2.57,0,0,0,.09.67,2.11,2.11,0,0,1,.71,1.76c-.89,5.17-9.2,12.55-14.58,13a11.29,11.29,0,0,1-5.4-8.55,1.45,1.45,0,0,1,.69-.63c2.11-.92,3.11,3.23,5.16,1.34,3-2.75,6.58-5,7.93-9.21a2.22,2.22,0,0,1,.81-1.18C129.93,115.11,131.12,116.6,132.08,118.47Z"/><path class="cls-261" d="M117.91,133.16c5.86-1,13-8,14.26-14l2,.94c2,2.24,2.18,4,0,6.73-3.74,4.67-7.83,8.68-13.21,11.31C118.37,137.47,117.85,135.49,117.91,133.16Z"/><path class="cls-262" d="M130.19,153.06a64.71,64.71,0,0,0,22.13-22.12l1.94,1c.81,3.45-1.63,5.56-3.46,7.74-5.36,6.39-10.64,12.94-18.61,16.4C131.52,155.05,130.86,154.05,130.19,153.06Z"/><path class="cls-263" d="M132.08,118.47c-2-.13-2.81-2.51-4.88-2.39-4.64-1-7.91-4.54-12.13-6.29a29.34,29.34,0,0,1-3-2c-.4-.29-.82-.54-1.22-.81-1.53-1.06-3.23-2.44-2-4.33,1.38-2.08,3.14-.24,4.65.44.59.26,1.15.6,1.73.89a55.84,55.84,0,0,1,10.8,5.25,8.42,8.42,0,0,1,1.93,1.93c1,1.92,3.71,2.44,4.2,4.84Z"/><path class="cls-264" d="M132.19,156.05c8.6-6.91,17.23-13.79,22.07-24.14a3.21,3.21,0,0,1,.92.19c1.24,1.61.7,3.13-.34,4.53a88,88,0,0,1-19.22,19.12C134.71,156.4,133.47,157.69,132.19,156.05Z"/><path class="cls-265" d="M132.2,116.05c-1.62-1.42-4.06-1.86-4.93-4.16,4.71-.91,7.33,3.23,11.11,4.6a3.06,3.06,0,0,1,1.06,1.94l-.3.69Z"/><path class="cls-265" d="M144.16,122.06a6.75,6.75,0,0,1-5-2.94l.15-.19c2.28-1.13,3.71.19,5.05,1.75A1.45,1.45,0,0,1,144.16,122.06Z"/><path class="cls-262" d="M152.3,131c-1.57-.68-3.3-1.13-4.11-2.89C149.94,128.51,151.77,128.82,152.3,131Z"/><path class="cls-266" d="M144.16,122.06c0-.31,0-.61-.07-.91,1.74-1.36,3-.38,4.1.92,0,.36-.07.72-.11,1.08C146.71,123,145.24,123.23,144.16,122.06Z"/><path class="cls-267" d="M95.15,131.1c.69-4.66-1.07-9.5,1.07-14,1.92,2.08,1,4.66,1.27,7s-.8,5.52,3.1,5.44c3-.07,6.12-.71,5.43-5.09-.07-.46.3-.92.61-1.31a1.94,1.94,0,0,1,1.32-.48c1.83.62,2.41,2.27,3.11,3.81a30.78,30.78,0,0,1,2.06,5.75c.35,1,.69,2,1,2.95,1.12,1.61,0,2.56-1.17,3.19-5.16,2.86-10.53,4.85-16.58,3.16-1.49-1.59.07-3.83-1.17-5.48C95.2,134.39,95.17,132.75,95.15,131.1Z"/><path class="cls-193" d="M118.22,142c1.55.91.63,3,2,4,1.54,2.39.4,4.46-1.51,5.51A46,46,0,0,1,96.21,157c0-1.1.16-2.27-1-3,0-2.67,0-5.34,0-8a1.07,1.07,0,0,1,1.32.12,4.66,4.66,0,0,1,.68,1.26c.58,2.88,2.72,3.94,5.14,3.23C108.26,148.93,114.59,147.87,118.22,142Z"/><path class="cls-268" d="M96.2,146.05l-1,0c0-3.32,0-6.65,0-10,1.64,1.41.71,3.32,1,5C97.46,142.71,97.72,144.38,96.2,146.05Z"/><path class="cls-269" d="M96.21,157c6.26-1.61,12.54-3.17,18.79-4.83,3.11-.83,5.26-2.61,5.2-6.18,2.24.94,1.78,3.48,3,5-2.52,2.75-5.92,3.9-9.34,4.85-4.09,1.13-8.23,2.11-12.41,2.84C99.6,159.07,97.05,160.31,96.21,157Z"/><path class="cls-270" d="M113.12,132.22c-1.08-1.65-2.57-3.08-2.85-5.17,1-1.19-.54-2.83.7-4,1-.6,1.66,0,2.27.68a1.42,1.42,0,0,1,0,1.3c1.24,2.88,2.44,5.79,4.64,8.12.78,1.81,1.32,3.77,3.09,5a1.43,1.43,0,0,0,.31.91c.42,1.33,1.33,2.53,1,4-2.58-3.77-5.17-7.53-7.72-11.31C113.49,130.09,113.31,131.11,113.12,132.22Z"/><path class="cls-268" d="M118.22,142c.45,3.41-1.14,5.41-4.42,5.94-4.37.7-7.51,4.52-12.39,4.23C97.69,152,95.7,151,96.22,147c2.58-2,5.71-2.51,8.74-3.12a26.78,26.78,0,0,0,11.21-4.76A3.39,3.39,0,0,1,118.22,142Z"/><path class="cls-271" d="M116.17,139.15c-.26,2.87-2.42,3.62-4.71,4.28-5,1.45-10,3-15.24,3.6,0-.33,0-.65,0-1,0-1.67,0-3.34,0-5a33.42,33.42,0,0,0,15.33-3.23c1.19-.58,2.56-.95,2.61-2.64C115.4,136.2,115.73,137.7,116.17,139.15Z"/><path class="cls-272" d="M125.19,34a11,11,0,0,1-3.93,6.12c-1.23-1.38-.41-2.72.06-4.07,1.05-1.91.85-3.39-1.33-4.37-2.39-1.08-4.7-2.36-7.39-2.53-3.11-.69-6.18-1.54-9.3-2.19a16.87,16.87,0,0,0-5.19-.67,4.7,4.7,0,0,1-2.83-1.16l.9-2.05c3.08-2.5,6.29-.61,9.49-.41,1.08.07,2.85,2.12,3.53-.62,5.18-.37,9.44,2.71,14.22,3.84C129.47,27.32,124.72,31.27,125.19,34Z"/><path class="cls-273" d="M103.21,26.06c3.49-.13,6.65,1.38,10,2,.82,2.68.61,3.16-2.35,2.63-4.86-.87-9.79-1.12-14.67-1.8-1.17-.66-1.84-1.5-1-2.86a6.5,6.5,0,0,1,.12-.9l2.92-.07C99.7,26.28,101.7,24.89,103.21,26.06Z"/><path class="cls-272" d="M95.16,26c.34.69.67,1.38,1,2.06.72,1.06.24,2.22.29,3.34,0,.47,0,.94,0,1.41,0,1.24,0,2.46.09,3.69s0,2.67.11,4c.54,6.9-1.14,13.63-1.51,20.45l-.8.13q0-17.51,0-35Z"/><path class="cls-274" d="M109.2,22.06l2.23,1.59c-5.29,1.54-10.23-1.36-15.25-.56a2,2,0,0,1-.93-2,17.23,17.23,0,0,1,9-.07Z"/><path class="cls-272" d="M104.21,21l-9,.07A8.82,8.82,0,0,1,104.21,21Z"/><path class="cls-275" d="M153.21,56.08c-1.78.79-2.7,3.06-5,2.93-4.34-6.07-9.07-11.7-15.53-15.73A39.71,39.71,0,0,0,126.09,40c.41-2,1.82-3.46,3-5,4.79-.15,7.9,3.45,11,5.94C145.3,45.09,150.69,49.46,153.21,56.08Z"/><path class="cls-240" d="M95.14,61l.18-20.87c6.92-2,16.88,2.09,19.2,7.92a3.4,3.4,0,0,1-.18,3.29,1,1,0,0,1-.17.74c-1.59.4-1.71,2.25-2.94,3-2.65-2.42-6-3.16-9.34-3.86-3.82-.8-6.53,0-5.67,4.87-.48,4,1,8.12-.93,12Z"/><path class="cls-276" d="M126.09,40c1.07-.32,2.07-1.15,3.28-.37,7.28,4.65,14.17,9.73,18.64,17.39.3.51.13,1.3.18,2-2.35,1.31-4.28,3.35-7,4,2-2.68,1.92-4.85-.59-7.51-3.5-3.71-7.44-6.88-11.2-10.26C128,44,126.1,43,124,44Z"/><path class="cls-277" d="M114.34,51.32c-1.6-4.11-2.86-8.37-8.44-9a100.08,100.08,0,0,1-10.58-2.24c0-1.34,0-2.69,0-4,1.22-2.51,3.39-2.26,5.6-2a65.55,65.55,0,0,1,14.45,3.7c4.91,1.85,5.05,2.19,2.85,7.2l-1,1c-.84,1.52-1.06,3.29-2,4.77A1.43,1.43,0,0,1,114.34,51.32Z"/><path class="cls-278" d="M121,49c2.71-1.61,4.87.14,6.79,1.48,3.51,2.45,6.18,5.9,9.52,8.64,1.6,1.32,3,4.29-.79,5.81A21.38,21.38,0,0,0,133.18,67c-2.06-5.22-5.85-9-10.15-12.4a10.17,10.17,0,0,1-3.19-3.7Z"/><path class="cls-279" d="M119.84,50.92c5.58,4.42,12.84,7.46,13.34,16.1-1.72-.1-2.59,1.5-4,2-3-3.72-3.91-9-8.74-11.33-1.14-.56-2-1.68-3.43-1.72C117,53.76,119.37,52.87,119.84,50.92Z"/><path class="cls-280" d="M118.2,45c1.37-3.83-.44-5.14-4-6.23-4.54-1.38-9.09-2.55-13.72-3.51a6.65,6.65,0,0,0-5.19.8c0-1.35,0-2.69,0-4,2.81-.84,5.58-.24,8.3.36a5.71,5.71,0,0,0,5.13-1,20.48,20.48,0,0,1,13.47,4.61l-.93,4.07C120.66,42,120.26,44,118.2,45Z"/><path class="cls-239" d="M115.19,50.84a5.72,5.72,0,0,1,2-4.77A5.17,5.17,0,0,1,115.19,50.84Z"/><path class="cls-281" d="M145.18,91c-.05-1.57-1.26-3-.11-4.71,2.53-3.74-.37-7.4-1-10.83a19,19,0,0,0-2.87-6.36c2-1.27,3.84-1.4,4.61,1.31,1.92,6.76,4.59,13.37,4.38,20.59Z"/><path class="cls-150" d="M122.23,92.16a5.25,5.25,0,0,1-6.06,0Z"/><path class="cls-282" d="M110.27,90.08c-1,2.65.33,5.32-.07,8,.8,1,.47,1.69-.53,2.24-2.54-1-3.89.07-4.76,2.49-.8,2.22-2.19,3.7-4.81,2.15A6.63,6.63,0,0,1,98,103.15a1.88,1.88,0,0,1,.23-1.31c2.21-2.64,1.79-6.25,3.32-9.15a2.48,2.48,0,0,1,.81-1.08c2.65,1.12,4.22-2.47,6.83-1.57Z"/><path class="cls-283" d="M109.2,90c-2.18,1.14-4.14,3.07-7,1.89-3.57-.73-2.7-5-5.26-6.55-.79-1-1.87-1.69-2.59-2.74-.06-.2-.11-.4-.16-.6.15-1.37-.49-2.94,1-4,1.4,2.63,4.72,2.81,6.44,5,.46,0,.52,1.52,1.28.3a2.56,2.56,0,0,1-.1-1.06,1.47,1.47,0,0,1,.78-.79,1.57,1.57,0,0,1,1.61.49C107.4,84.28,110.15,86.24,109.2,90Z"/><path class="cls-283" d="M97.22,78l2.83.08,1.14,1c.85.87,2.74,1,2,3l-.08.08C100.06,82.36,98,81.12,97.22,78Z"/><path class="cls-233" d="M103.23,82l-2-3c2.16-.12,3.85.41,4,3Z"/><path class="cls-284" d="M126.08,110.31l-10.91-5.25c-3.51-3-2.32-6,.1-9l.8-.61a2.59,2.59,0,0,0,.12,1c1,3,.82,6.87,5.45,7,2.1-1.91,1-5.44,3.48-7.21l10,0c1.52,5.05-.82,9.43-2.37,14-.95,1.11-2,1.84-3.55,1.2-2.31-3.19,2.21-6.23.33-9a7.56,7.56,0,0,1-2.74,7.7Z"/><path class="cls-252" d="M115.27,96.1c0,3-2.42,6-.1,9l-5.38-2.49c-1.65,3.61,2.83,2.79,3.23,4.75-2.62,2.36-5.32,4.67-5.37,8.63a5.91,5.91,0,0,1-2.5,2.35c-1.82-.15-2.26-1.48-2.53-3a2.15,2.15,0,0,1,.57-1.27c.69-2.06.63-4.38,3-5.75,1-.61-.17-1.16-1-1.26-.09-.22-.17-.43-.26-.64,1.17-2.28,1-5.41,4.18-6.41a1.93,1.93,0,0,0,1.06-2C112.3,98.46,112.59,94.17,115.27,96.1Z"/><path class="cls-285" d="M148.19,122.07l-4.1-.93-4.8-2.21L138,117.19a2.35,2.35,0,0,1,1.94-1c2.93.87,4.6-.42,5.67-3.12a42.21,42.21,0,0,0,2.66-11c.24-2.07.4-4.29,1.89-6l6,0C153,104.62,153.48,114.23,148.19,122.07Z"/><path class="cls-286" d="M140.19,117l-2.21.16-10.71-5.3c-.4-.52-.79-1-1.19-1.58l.17-.37c1.47-1,2.22.06,3,1.08l3-1c2.47,1.25,3.76.69,4.49-2.21,1-3.91.57-8.29,3.48-11.63l6,0C147.54,104.08,144.49,110.73,140.19,117Z"/><path class="cls-287" d="M140.19,117c2.19-6.9,5.11-13.59,5.93-20.87l4,0c-.43,6.78-1.13,13.51-4.38,19.64C144.43,118.29,142.75,119.75,140.19,117Z"/><path class="cls-288" d="M140.16,96.19c-.91,4.46-1.63,9-2.86,13.35-.42,1.49-.38,4.1-2.65,4.21s-.8-3-2.46-3.72q1.49-6.91,3-13.82Z"/><path class="cls-289" d="M125.12,96.25c0,3.67-1.72,6.81-3.13,10.15-6.12-6.48-6.12-6.48-5.8-10C119.15,95.77,122.14,96.13,125.12,96.25Z"/><path class="cls-290" d="M80.23,80.07c0,.31,0,.63-.07.94-.24,1.86-1.42,3.2-2.55,4.57a6.8,6.8,0,0,1-2.34,1.5c-1.7.37-3.21.53-2.06-2,1-.08,2.09-.2,2.38-1.3.24-.91-.62-1.37-1.35-1.73l1-2c1.8-.62,2.51-3,4.79-2.91C81.65,78,76.31,79.42,80.23,80.07Z"/><path class="cls-291" d="M84.23,109.09c-4.25-1.29-6.18-5.18-9-8-2.17-3,.68-6,0-9-.06-.33-.13-.67-.2-1l.51-.43a22.38,22.38,0,0,1,7,1.42c1,2.6-1,4.19-2,6.14-.49,3.46,2.86,3.71,4.51,5.37s4.17,2.82,2.89,5.88C86.67,109.47,85.39,109.85,84.23,109.09Z"/><path class="cls-292" d="M75.2,92.06c1.52,3,.37,6,0,9v1c-1.06.54-1.91,1.85-3.38,1a5.53,5.53,0,0,1-1.52-5c.78-1.82,1-4.18,3.88-4A2,2,0,0,0,75.2,92.06Z"/><path class="cls-253" d="M74.19,94c-1,1.31-2.82,2.08-3,4-.9.23-1.23-.11-1-1-.32-2.42-2.2-2-3.77-2-4.74,0-9.48,0-14.22,0,1.65-1.72,3.76-.86,5.67-1,4.93-.29,10,.69,14.76-1.24C73.78,92.38,74.08,93.12,74.19,94Z"/><path class="cls-293" d="M73.21,85.07c0,1.81,1,1.44,2,1,1.43,1.61,1.31,3.26.16,5l-.4,0C66.65,91.37,74.1,87,73.21,85.07Z"/><path class="cls-294" d="M102.16,93.15c-1.44,2.91,1,7.54-3.94,8.88l-.82.17a93.69,93.69,0,0,1-11.73.15c-2.48,0-4.9-.54-6-3.27,2.36-2.27,2.42-6.18,5.61-7.86l1-1.07c4.42-6,10.36-5.77,14.18.58C101,91.56,101.68,92.29,102.16,93.15Z"/><path class="cls-295" d="M102.16,93.15a9.16,9.16,0,0,1-1.53-1.21c-4.82-6-8.51-6.46-14.35-1.8-.87-4.24,3.68-5.5,4.88-8.67.37-1,2,.24,3.07.57h0c.11,1.93,2,1.3,3,2,3.53,1.43,2.65,5.7,5.06,7.85C102.22,92.34,102.19,92.75,102.16,93.15Z"/><path class="cls-296" d="M75.4,91c-.05-1.65-.1-3.3-.16-5L77.16,85c2-1,2.58-4.94,6-2.94,1.37,2.46,2.6,5,2,7.9a.86.86,0,0,1-1.19.16,4.93,4.93,0,0,1-.58-.78c-.69-1.16-1.81-2.65-2.92-1.36s1.3,1.7,1.77,2.76A1.19,1.19,0,0,1,82.17,92C79.6,93.84,77.63,91.54,75.4,91Z"/><path class="cls-297" d="M97.22,78c1.94,1.41,3.32,3.64,5.93,4.07q.06.47.09.93a2.15,2.15,0,0,1-2,1c-1.28-2.71-6.77-1.22-6-6Z"/><path class="cls-298" d="M84.19,90a3.22,3.22,0,0,0,1,0l.12,1.25c-1.72,2.25-1.75,5.77-5.07,6.84a.59.59,0,0,1-1-.17c1.25-1.82,2.9-3.45,3-5.88a4.51,4.51,0,0,0,0-.9C82.52,90.17,83.09,89.59,84.19,90Z"/><path class="cls-299" d="M83.2,82.06c-3-1.07-3.54,3-6,2.94.93-1.38,1.22-3.25,3-4C81.27,81.1,82.49,80.85,83.2,82.06Z"/><path class="cls-300" d="M78.2,118.05c0,.32,0,.65,0,1-2.65,2.59-2.76,6.8-5.81,9.13a1.88,1.88,0,0,1-1.53-1.35,12.72,12.72,0,0,1,6-9.2A1.9,1.9,0,0,1,78.2,118.05Z"/><path class="cls-301" d="M71.23,127.06l1.14,1.09c-.63,2.52-1.71,4.72-4.19,5.92l1.08-4.94C69.84,128.36,70,127.21,71.23,127.06Z"/><path class="cls-302" d="M71.23,127.06l-2,2.07c-.16-2-1.23-2.9-3.19-3.14a38.48,38.48,0,0,1-4.84-1.1c-6.41-1.69-7.36-4.49-3-8.87-.08-2.54,2.82-2.39,3.69-4.08,2.93-1.54,5.71-3.35,8.74-4.72,1.52-.68,3-1.57,4.58-.16h0a9.32,9.32,0,0,0,1.85,2.33c3.62,2.83,3.27,5.7.14,8.62A30.13,30.13,0,0,0,71.23,127.06Z"/><path class="cls-303" d="M62.23,113l-4,3c-2.41.16-4,1.9-6,3,0-.65,0-1.3,0-2,2.34-2.17,5.19-3.54,8-5a1.73,1.73,0,0,1,1.21-.45C62.1,111.85,62.61,112.2,62.23,113Z"/><path class="cls-304" d="M88.23,109l-4-5c4.18-4,9.2-2.36,14-2h0c0,.32,0,.65,0,1a20.6,20.6,0,0,0,.39,3.13,2,2,0,0,1-.41,1.2c-.89.71-2.18-.28-3,.72,0,.33,0,.65,0,1C92.86,110.65,90.55,109.39,88.23,109Z"/><path class="cls-258" d="M62.23,113l-1-1c.45-3.69,4.66-3.35,6.23-5.83a4.47,4.47,0,0,1,1.09-.79c1.89-.47,3.71-1.27,5.7-1.33,2.64.23.61,2,1,3C70.24,107.66,66.67,111.3,62.23,113Z"/><path class="cls-252" d="M88.23,109h7c.93.57,2.6.8,2.4,2-.23,1.46-2.24,1.31-2.85.85-3.18-2.35-7.22-1.16-10.5-2.84Z"/><path class="cls-176" d="M77.19,118c3.94-4.49-.68-7.42-2-11,2.71,1.11,3.66,4.7,7,5q-2,3-4,6Z"/><path class="cls-252" d="M95.23,108.05c.71-1.19,1.9-.94,3-1,2.32-.44,4.63-1.63,7,0l0,0C102.21,110.67,98.72,109.42,95.23,108.05Z"/><path class="cls-305" d="M103.19,114.08c0,.33,0,.67,0,1-2.1,1.6-4.32,2.48-6.9,1.08L95.21,116C97,111.86,100.49,114.54,103.19,114.08Z"/><path class="cls-298" d="M74.21,104.06c-1.62,1.83-3.76,2.1-6,2,.21-2.53,2.28-2.53,4-3l3-1.06C74.88,102.71,74.55,103.38,74.21,104.06Z"/><path class="cls-306" d="M96.28,116.17c2.34-.15,4.47-1.56,6.9-1.08.65,1,1.3,2,2,3.06,2.23,1,3.33,2.45,2.06,4.91.82,5.21-.58,7.35-5.22,8-3.83.5-6.46-.15-5.84-5.06a71.36,71.36,0,0,0,.07-8.9C96.23,116.76,96.25,116.47,96.28,116.17Z"/><path class="cls-307" d="M27.22,94c1.08-2.84,5.32-2.85,8,0Z"/><path class="cls-308" d="M59.2,111.05l-7,4c-3.46-5.87-3.48-12.47-4-19h10c2.48,4,1.9,8.75,3.33,13C61.48,110.57,60.42,110.91,59.2,111.05Z"/><path class="cls-309" d="M61.21,109.05c-3.41-.31-.59-2.91-1.56-4.31-1.78-2.55-1.08-5.76-1.44-8.68,4,.37,8.13-1,12,1l1,1c.33,1.68.67,3.36,1,5-.57,2-3,1.48-4,3h0C66.1,107.56,64.33,109.89,61.21,109.05Z"/><path class="cls-310" d="M61.21,109.05c2.67-.22,4.21-3.08,7-3-.62,4-5.41,3.11-7,5.94l-1,0-1-1Z"/><path class="cls-311" d="M113.27,125a.75.75,0,0,1-.25-.77c.11-.21.22-.42.32-.63a23.16,23.16,0,0,0,7.34-6.72c-1.07-.5-1.65.91-2.58.58a27.68,27.68,0,0,1-2.9-8.42c4.42,1.6,8.2,4.31,12,7,.89,1.41,1,2.67-.42,3.91a35.7,35.7,0,0,0-3.83,3.85C120.06,127.27,117.22,130.39,113.27,125Z"/><path class="cls-312" d="M115.2,109.08a33.68,33.68,0,0,1,3,8c.19,3.6-3.12,4.71-4.92,6.88l-.27.34-1.84-1.14c-.83.22-1.29-.26-1.68-.88-.33-2.23-2.42-3.8-2.31-6.19-1.13-4.33,1-7.57,5.83-8.74Z"/><path class="cls-313" d="M107.19,116.06c1.77,1.61,3.16,3.42,3,6a21.78,21.78,0,0,0-2.2,1.49,6.75,6.75,0,0,0-.82-.48q-1-2.44-2.06-4.91C105.22,116.86,105.81,116.07,107.19,116.06Z"/><path class="cls-314" d="M108,123.54c.07-1.48.54-2.37,2.2-1.49l1,1.08a22.11,22.11,0,0,1,.68,3.37c.11,1.71-1,.56-1.59.55Z"/><path class="cls-315" d="M122.19,36.06c-4.78-.93-9.07-3.58-14-4-1.33,1.23-2.75,1-4.22.32-2.29-1.68-4.88-.94-7.39-.9a2.57,2.57,0,0,1-1.32-.36c.3-1,.6-2,.89-3a44.88,44.88,0,0,1,15.13,1.55c1.48.44,2.81.83,1.91-1.57,3.54-.21,6.2,2.19,9.23,3.37S123.53,34.55,122.19,36.06Z"/><path class="cls-315" d="M103.21,26.06c-1.69-.22-3.6.64-5-1C99.89,25.28,101.8,24.41,103.21,26.06Z"/><path class="cls-316" d="M95.27,31.13c.31-.05.62-.08.93-.1a14,14,0,0,1,8,0c1.06,1.44,2.63.83,4,1,.66,1.5.15,2.29-1.45,2-3.8-.78-7.8-.43-11.46-2A4.73,4.73,0,0,1,95.27,31.13Z"/><path class="cls-317" d="M105.19,107c-2.32-.23-4.63,2-7,0,0-.34,0-.68,0-1a3.64,3.64,0,0,1,2-2.05c3.19,1.91,3.36-.77,4-2.66,1-2.92,2.31-4.52,4.91-1.31Z"/><path class="cls-318" d="M100.23,104a1.86,1.86,0,0,1-2,2.05c-2.17-1-2-2,0-3Z"/><path class="cls-319" d="M105.83,88.77C105.57,90,104.67,90,103.89,90c-1-.06-2.09-.31-2-1.62.1-1,1-1.25,1.87-1.21A2.06,2.06,0,0,1,105.83,88.77Z"/><path class="cls-320" d="M101.2,84.06a2.16,2.16,0,0,1,2-1c1.54.27,2.72,1.18,1.29,2.48S102,85.36,101.2,84.06Z"/><path class="cls-233" d="M97.18,84.08c-1.46-.44-2,2.19-3.31,1.15-.45-.37.21-2.09.36-3.19Z"/><path class="cls-288" d="M129.22,111l-3-1.08c1.79-2.33,3.36-4.76,3.26-8C131.17,105.17,129.2,108,129.22,111Z"/><path class="cls-252" d="M98.23,102c-4.79-.15-9.56-.15-14,2-2.07-1.74-6.32-1.7-5-6.18l1,.17c.82,3.31,3.56,2.78,6,3C90.19,101.48,94.34,100.06,98.23,102Z"/><path class="cls-321" d="M84.19,90l-2,1.14c-1.75-.67-4.39-.56-4.37-3.08,0-1.61,2.09-1.79,3.54-2C84.44,85.75,84.2,88,84.19,90Z"/><path class="cls-322" d="M113.29,123.93c.23-3.3,3.82-4.2,4.92-6.88.51-.63,1-1.26,1.55-1.88.69-.82,1.64-1.39,2.57-.77,1.15.76.41,1.92-.16,2.57C119.64,119.81,118,123.82,113.29,123.93Z"/><path class="cls-280" d="M104.19,31.08l-8,0A7.49,7.49,0,0,1,104.19,31.08Z"/></g></g></svg>