<svg xmlns="http://www.w3.org/2000/svg" viewBox="0 0 185.26 187.02"><defs><style>.cls-1{fill:#fefefe;}.cls-2{fill:#543e22;}.cls-3{fill:#fdfdfd;}.cls-4{fill:#e4caa4;}.cls-5{fill:#5d4627;}.cls-6{fill:#594325;}.cls-7{fill:#5a4324;}.cls-8{fill:#674e2c;}.cls-9{fill:#654d28;}.cls-10{fill:#5c4526;}.cls-11{fill:#573f1f;}.cls-12{fill:#553f24;}.cls-13{fill:#6a512c;}.cls-14{fill:#604725;}.cls-15{fill:#312922;}.cls-16{fill:#5f4728;}.cls-17{fill:#684616;}.cls-18{fill:#382e25;}.cls-19{fill:#70512e;}.cls-20{fill:#75572e;}.cls-21{fill:#413519;}.cls-22{fill:#372b1e;}.cls-23{fill:#d1bb85;}.cls-24{fill:#e0cf93;}.cls-25{fill:#c8b077;}.cls-26{fill:#d9c890;}.cls-27{fill:#c2a770;}.cls-28{fill:#987443;}.cls-29{fill:#d4be87;}.cls-30{fill:#d0bc84;}.cls-31{fill:#c4ab73;}.cls-32{fill:#c9b882;}.cls-33{fill:#e9dc9d;}.cls-34{fill:#906c3e;}.cls-35{fill:#9b7845;}.cls-36{fill:#e3d59c;}.cls-37{fill:#88653a;}.cls-38{fill:#7a5d34;}.cls-39{fill:#c8b47a;}.cls-40{fill:#7b5934;}.cls-41{fill:#bda46b;}.cls-42{fill:#84633b;}.cls-43{fill:#302822;}.cls-44{fill:#9f7c48;}.cls-45{fill:#6e4f2e;}.cls-46{fill:#826338;}.cls-47{fill:#89673c;}.cls-48{fill:#a27c46;}.cls-49{fill:#c5a66c;}.cls-50{fill:#867640;}.cls-51{fill:#c9b37c;}.cls-52{fill:#c7a56b;}.cls-53{fill:#40301d;}.cls-54{fill:#d8c58f;}.cls-55{fill:#987240;}.cls-56{fill:#86733b;}.cls-57{fill:#736330;}.cls-58{fill:#d1ba7f;}.cls-59{fill:#ab8b51;}.cls-60{fill:#89653a;}.cls-61{fill:#836935;}.cls-62{fill:#80643c;}.cls-63{fill:#a8844e;}.cls-64{fill:#b3955d;}.cls-65{fill:#a4834d;}.cls-66{fill:#957343;}.cls-67{fill:#9b7745;}.cls-68{fill:#886b3d;}.cls-69{fill:#bfae75;}.cls-70{fill:#947142;}.cls-71{fill:#876339;}.cls-72{fill:#43372c;}.cls-73{fill:#664a2b;}.cls-74{fill:#c0ad72;}.cls-75{fill:#3f331a;}.cls-76{fill:#8e8141;}.cls-77{fill:#57472a;}.cls-78{fill:#917341;}.cls-79{fill:#51422e;}.cls-80{fill:#8f6d40;}.cls-81{fill:#9c7b47;}.cls-82{fill:#715935;}.cls-83{fill:#937343;}.cls-84{fill:#ba9c62;}.cls-85{fill:#d5c28e;}.cls-86{fill:#a17f4a;}.cls-87{fill:#554828;}.cls-88{fill:#5f4a2d;}.cls-89{fill:#86643a;}.cls-90{fill:#d2be86;}.cls-91{fill:#ceb27a;}.cls-92{fill:#584b25;}.cls-93{fill:#7f6434;}.cls-94{fill:#352f28;}.cls-95{fill:#624e33;}.cls-96{fill:#473724;}.cls-97{fill:#805e37;}.cls-98{fill:#bdab6f;}.cls-99{fill:#4b3b20;}.cls-100{fill:#68572b;}.cls-101{fill:#312514;}.cls-102{fill:#383129;}.cls-103{fill:#967443;}.cls-104{fill:#9c7745;}.cls-105{fill:#b6a66d;}.cls-106{fill:#5f4f25;}.cls-107{fill:#332814;}.cls-108{fill:#363029;}.cls-109{fill:#7f5f35;}.cls-110{fill:#6d5536;}.cls-111{fill:#473e32;}.cls-112{fill:#c2a86c;}.cls-113{fill:#443d35;}.cls-114{fill:#ae9e63;}.cls-115{fill:#72512f;}.cls-116{fill:#b78f54;}.cls-117{fill:#6a5630;}.cls-118{fill:#bcab70;}.cls-119{fill:#46381f;}.cls-120{fill:#5d482b;}.cls-121{fill:#c9bb82;}.cls-122{fill:#9b7847;}.cls-123{fill:#a68651;}.cls-124{fill:#ceb37a;}.cls-125{fill:#352e28;}.cls-126{fill:#997746;}.cls-127{fill:#765e38;}.cls-128{fill:#d1c08a;}.cls-129{fill:#be9a60;}.cls-130{fill:#856137;}.cls-131{fill:#bba369;}.cls-132{fill:#cfba82;}.cls-133{fill:#2e2413;}.cls-134{fill:#635127;}.cls-135{fill:#b3a167;}.cls-136{fill:#86653a;}.cls-137{fill:#504323;}.cls-138{fill:#b6a46a;}.cls-139{fill:#665238;}.cls-140{fill:#534432;}.cls-141{fill:#beaf71;}.cls-142{fill:#c7b680;}.cls-143{fill:#4d4236;}.cls-144{fill:#765f39;}.cls-145{fill:#574939;}.cls-146{fill:#a49361;}.cls-147{fill:#918d7e;}.cls-148{fill:#908c80;}.cls-149{fill:#827c6d;}.cls-150{fill:#685333;}.cls-151{fill:#846e4b;}.cls-152{fill:#3c3019;}.cls-153{fill:#2c2825;}.cls-154{fill:#755938;}.cls-155{fill:#3f362b;}.cls-156{fill:#4f4c45;}.cls-157{fill:#494842;}.cls-158{fill:#484742;}.cls-159{fill:#3a332c;}.cls-160{fill:#413f3a;}.cls-161{fill:#4a3a26;}.cls-162{fill:#6c5437;}.cls-163{fill:#3c3933;}.cls-164{fill:#3c3932;}.cls-165{fill:#3b3933;}.cls-166{fill:#413f39;}.cls-167{fill:#514128;}.cls-168{fill:#47453f;}.cls-169{fill:#42403a;}.cls-170{fill:#413523;}.cls-171{fill:#826842;}.cls-172{fill:#3e3c36;}.cls-173{fill:#44423c;}.cls-174{fill:#564c3c;}.cls-175{fill:#866b43;}.cls-176{fill:#3f3c36;}.cls-177{fill:#494741;}.cls-178{fill:#7f6640;}.cls-179{fill:#363028;}.cls-180{fill:#3e3c35;}.cls-181{fill:#a8a496;}.cls-182{fill:#b5b1a3;}.cls-183{fill:#c2bdac;}.cls-184{fill:#9b9787;}.cls-185{fill:#453726;}.cls-186{fill:#58462f;}.cls-187{fill:#ccc6b4;}.cls-188{fill:#5c472a;}.cls-189{fill:#6d5738;}.cls-190{fill:#302c28;}.cls-191{fill:#4e3e29;}.cls-192{fill:#c0a569;}.cls-193{fill:#484640;}.cls-194{fill:#43413b;}.cls-195{fill:#4d4b44;}.cls-196{fill:#6c5230;}.cls-197{fill:#5f4c33;}.cls-198{fill:#a7a394;}.cls-199{fill:#a09c8e;}.cls-200{fill:#b4b09f;}.cls-201{fill:#e5dec7;}.cls-202{fill:#bfbaa8;}.cls-203{fill:#ada999;}.cls-204{fill:#bbb6a4;}.cls-205{fill:#785b37;}.cls-206{fill:#e6dfc8;}.cls-207{fill:#d0cab6;}.cls-208{fill:#d9d3be;}.cls-209{fill:#989489;}.cls-210{fill:#d8d2bd;}.cls-211{fill:#e0d9c4;}.cls-212{fill:#cac4b0;}.cls-213{fill:#979383;}.cls-214{fill:#8f8a7b;}.cls-215{fill:#9f9b8c;}.cls-216{fill:#bab5a5;}.cls-217{fill:#9b978c;}.cls-218{fill:#a39780;}.cls-219{fill:#b09e7e;}.cls-220{fill:#907443;}.cls-221{fill:#61492b;}.cls-222{fill:#504d47;}.cls-223{fill:#5e5b52;}.cls-224{fill:#56544c;}.cls-225{fill:#dad4c1;}.cls-226{fill:#494742;}.cls-227{fill:#997544;}.cls-228{fill:#e8e2cd;}.cls-229{fill:#e2dbc6;}.cls-230{fill:#423f39;}.cls-231{fill:#484642;}.cls-232{fill:#755733;}.cls-233{fill:#5f4d35;}.cls-234{fill:#453725;}.cls-235{fill:#c0b9a7;}.cls-236{fill:#8c7046;}.cls-237{fill:#ad8e53;}.cls-238{fill:#6a4f2e;}.cls-239{fill:#b19256;}.cls-240{fill:#54514a;}.cls-241{fill:#483a27;}.cls-242{fill:#55524b;}.cls-243{fill:#4b4943;}.cls-244{fill:#494743;}.cls-245{fill:#5a574f;}.cls-246{fill:#6a5337;}.cls-247{fill:#55524a;}.cls-248{fill:#59472e;}.cls-249{fill:#4b4942;}.cls-250{fill:#535149;}.cls-251{fill:#a28853;}.cls-252{fill:#5a574e;}.cls-253{fill:#866a42;}.cls-254{fill:#544a39;}.cls-255{fill:#504d45;}.cls-256{fill:#58564d;}.cls-257{fill:#4f3f29;}.cls-258{fill:#59564e;}.cls-259{fill:#525048;}.cls-260{fill:#e1dbc6;}.cls-261{fill:#d9d3c0;}.cls-262{fill:#775c3a;}.cls-263{fill:#594a35;}.cls-264{fill:#d3cebb;}.cls-265{fill:#5d5b52;}.cls-266{fill:#866b3e;}.cls-267{fill:#44413b;}.cls-268{fill:#473824;}.cls-269{fill:#525049;}.cls-270{fill:#4e4b44;}.cls-271{fill:#6e573a;}.cls-272{fill:#c6c1af;}.cls-273{fill:#d0cab8;}.cls-274{fill:#c8c3b1;}.cls-275{fill:#e0d9c3;}.cls-276{fill:#c1bdac;}.cls-277{fill:#5c462b;}.cls-278{fill:#87633a;}.cls-279{fill:#9e8150;}.cls-280{fill:#aeaa9a;}.cls-281{fill:#aeaba2;}.cls-282{fill:#bab7ad;}.cls-283{fill:#c4c1b7;}.cls-284{fill:#725b3c;}.cls-285{fill:#4a3922;}.cls-286{fill:#c9b273;}.cls-287{fill:#c4ad75;}.cls-288{fill:#987645;}.cls-289{fill:#5f5c53;}.cls-290{fill:#d3c59b;}.cls-291{fill:#cab066;}.cls-292{fill:#5b5850;}.cls-293{fill:#856c44;}.cls-294{fill:#493925;}.cls-295{fill:#796241;}.cls-296{fill:#604c31;}.cls-297{fill:#957142;}.cls-298{fill:#8a7353;}.cls-299{fill:#9a7947;}.cls-300{fill:#a8854d;}.cls-301{fill:#755632;}.cls-302{fill:#342716;}.cls-303{fill:#5d4628;}.cls-304{fill:#765935;}.cls-305{fill:#dcd5c1;}.cls-306{fill:#a78f65;}.cls-307{fill:#897d68;}.cls-308{fill:#271d10;}.cls-309{fill:#a78651;}.cls-310{fill:#8d6b3f;}.cls-311{fill:#43413d;}.cls-312{fill:#584b39;}.cls-313{fill:#59564d;}.cls-314{fill:#775834;}</style></defs><g id="Layer_2" data-name="Layer 2"><g id="Layer_4_Image" data-name="Layer 4 Image"><path class="cls-1" d="M104.21.07c26,0,52,0,78-.07,2.5,0,3.07.56,3.06,3.07-.1,27.66-.06,55.32-.06,83a1.29,1.29,0,0,1-1.51,0c-2.75-2.52-1.62-6.14-2.52-9.18-1-3.26-1.33-6.69-2.15-10-3.34-12.62-9.82-23.52-18.45-33.18C150.1,22,137.65,13.19,122.63,8.08c-3.5-1.2-7.1-1.63-10.62-2.54a27.29,27.29,0,0,1-4.11-.67,4.31,4.31,0,0,1-1.15-.68c-.64-.6-1.29-1.2-2-1.79S103.61,1,104.21.07Z"/><path class="cls-2" d="M180.06,66.1c2.35,6.43,2.25,13.38,4.29,19.87a1.59,1.59,0,0,1,.09,1.41,77.86,77.86,0,0,0-.13,11.73,4.47,4.47,0,0,0,.89,1.94v1c-1.42,1.48-.83,3.35-1,5.08-.17,1.34.23,3.14-2.08,3-1.57-1.75-1.11-3.9-1.21-5.94-.44-1.8,1.39-4-1.08-5.45a4.83,4.83,0,0,1-1.26,0c-1-.25-1.67-.75-1.66-1.88a6,6,0,0,1,2-3.15c2.93-2.48,2-5.74,1.71-8.82-.47-5.61-2.35-11-2.48-16.69C178.38,67.2,178.58,66.05,180.06,66.1Z"/><path class="cls-3" d="M104.21.07l1,1.92a3.66,3.66,0,0,1-3.08,1.35c-7.08-.15-14.21,1-21.25-.66L80.2,2l1-1.93Z"/><path class="cls-3" d="M182.26,110.18c1.86-1.35.6-3.32,1-5,.29-1.3-.4-3.18,2-3.17v9h-2.8c-.26-.16-.37-.34-.32-.54S182.18,110.18,182.26,110.18Z"/><path class="cls-4" d="M184,87.11c.11-.38.22-.76.32-1.14a1.89,1.89,0,0,1,.85.08v15L184,100A53.88,53.88,0,0,1,184,87.11Z"/><path class="cls-5" d="M9.15,54.06l7.07-12a48.23,48.23,0,0,1,11.71-14l1.29-1.25c1.48-1.75,2.74-3.72,4.92-4.75s3.42-3.69,6.08-4.14a7.47,7.47,0,0,1,4.12-2.79l1.88-1.23c1.33-1.66,3.31-2.08,5.17-2.73L53.23,10a8.84,8.84,0,0,1,5-1.84l.06,0c.71-1.14,2-.39,2.94-1l.07,0a9,9,0,0,1,5.9-2.18l8.06-.86c1.21-.53,2.14.09,3.05.75a1.65,1.65,0,0,1,.13,1.32A3.34,3.34,0,0,1,77.31,7c-3.4,1.3-7.22,1.11-10.49,2.91a12,12,0,0,1-2.49,1.08,15.91,15.91,0,0,0-5.63,1.7A24.14,24.14,0,0,0,56.44,14c-2,1.52-4.34,2.05-6.64,2.77-.38.2-.78.38-1.16.57a50.58,50.58,0,0,0-6.7,5.13,11.29,11.29,0,0,1-1.53,1.23,36.87,36.87,0,0,0-4.15,3.12c-2.48,1.55-4.35,3.76-6.37,5.81C28,35.25,25,37,23.18,39.71c-1.66,2.34-3.16,4.77-4.78,7.13-.25.36-.52.71-.79,1C16.2,49.82,15.28,52,13.91,54c-1.34,2.56-.92,6.24-4.64,7.27a3.58,3.58,0,0,1-1.63-2.36A9.61,9.61,0,0,1,9.15,54.06Z"/><path class="cls-6" d="M35.22,166l-1-1A35.89,35.89,0,0,1,24.32,155l0,0c-1.25-.72-2.5-1.44-2.84-3L19.06,149c-1.63-.85-1.85-2.69-2.84-4l-7-12c-1-3.59-4.52-6.36-3.39-10.62,1.44-1.4,2.15.16,3.1.75,1.5,1.61,2,3.78,3,5.61,1.57,3,2.63,6.28,4.1,9.35a15.11,15.11,0,0,0,3.57,5.26,11.7,11.7,0,0,1,1.2,1.51,38.25,38.25,0,0,0,3.09,4.1,29.5,29.5,0,0,0,4.91,5.49,59,59,0,0,0,10,8.83c2.4,1.71,4.64,3.62,7.18,5.12,5.11,3.47,10.8,5.71,16.55,7.83,2.8,1.53,6,1.94,8.93,2.93,1.65.93,4.32,0,4.94,2.78-.85,1.26-2.28,1.14-3.51,1.5a50.19,50.19,0,0,1-17.53-5.59h0a21.42,21.42,0,0,0-4.12-1.77l-1.89-1.37c-1.28,0-2-1.2-3.1-1.58-.8-.21-1.74-.14-2.13-1.12C40.84,170.49,38.1,168.13,35.22,166Z"/><path class="cls-7" d="M164.48,151c-.16.3-.32.6-.49.9-2.27,3.49-4.76,6.77-8.66,8.63a1.8,1.8,0,0,1-1.58-1.22,3.25,3.25,0,0,1,.81-2.61c.72-.88,1.54-1.67,2.32-2.49,2.65-2.69,5.51-5.18,7.48-8.47a24.39,24.39,0,0,0,2.66-4.41,23.94,23.94,0,0,0,1-3.12,4.84,4.84,0,0,1,1.62-2.89c3-2,3.71-5.35,4.87-8.43a34.08,34.08,0,0,1,2.05-5.33,2.13,2.13,0,0,1,1.93-1c1.34.36,1.26,1.43,1.24,2.47.57,3.93-2.31,6.59-3.6,9.84l0,0a4,4,0,0,1-1.76,3.07,1.2,1.2,0,0,0-.3.92,3.31,3.31,0,0,1-1.9,3q-1.52,2.4-3,4.82C168.38,147.51,166.58,149.38,164.48,151Z"/><path class="cls-8" d="M8.46,124,6,122.26l-.33.32-.42-.21c-1.7-1.78-.55-4.52-2.13-6.35a7.92,7.92,0,0,1-.88-5c0-.34-.07-.68-.11-1-1.92-2.15.2-4.77-.8-7h0A2,2,0,0,1,1,100.77,83.66,83.66,0,0,0,1,86.35a2.08,2.08,0,0,1,.29-2.25l0,0c.63-3.31-.9-6.81.89-10C4,73.84,4.32,76,5.71,76.46a4.27,4.27,0,0,1,.21,2.24c-.17,7.06-2.26,14-1,21.15a22,22,0,0,1,.91,2.05c1,2.35-.52,4.76.22,7.12a13.7,13.7,0,0,1,.28,1.42A59.73,59.73,0,0,0,9,121.06,3.33,3.33,0,0,1,8.46,124Z"/><path class="cls-9" d="M154.2,159l1.19,1.08c.28,1-.59,1.39-1.17,1.91l0,0c-.48,1.62-1.76,2.34-3.22,2.87l-2.8,2c-1.61,2.73-4.38,3.83-7.09,5l-10.95,5.9c-.91,1.26-2.31,1.13-3.61,1.29a3.78,3.78,0,0,1-2.15-.73c0-4,3.82-3.49,6-4.91a16.3,16.3,0,0,0,2.38-1.15A12.68,12.68,0,0,1,135.6,171c.59-.24,1.17-.48,1.75-.75a15.07,15.07,0,0,0,4.25-2.71c1.56-1.48,3.43-2.56,5.05-4a22.38,22.38,0,0,1,2.09-1.53C150.66,161.19,151.5,158.4,154.2,159Z"/><path class="cls-10" d="M80.21,185l-1.74-.09c-.79-.66-2.89.07-2.25-2.11a11.17,11.17,0,0,1,4.28-1.6,13.88,13.88,0,0,1,4.72.38c3.52.18,7,0,10.54.08,1.84,0,3.67.08,5.5,0a14.8,14.8,0,0,1,3.81-.31c1.55.6,3.71.18,4.2,2.53-1.08,1.35-2.74.66-4.06,1.17A63.56,63.56,0,0,1,80.21,185Z"/><path class="cls-11" d="M78.39,5.15,75.24,4.06c1.37-1.37,3.33-1.31,5-2.06l.13.42c7.27.37,14.54,0,21.81.18,1.61,0,3.31-.48,4.83.5a1.09,1.09,0,0,1,.29.84A1.13,1.13,0,0,1,107,5.49a5.57,5.57,0,0,1-3.4.83A75,75,0,0,0,82.08,6,4.19,4.19,0,0,1,78.39,5.15Z"/><path class="cls-3" d="M80.21,185h25a4.79,4.79,0,0,1-3.83,2q-8.67.1-17.34,0A4.8,4.8,0,0,1,80.21,185Z"/><path class="cls-12" d="M5.45,76.17C3.19,77,3.25,75.47,3.2,74c-.9-.93-.6-1.94-.17-3l.2-1a22.42,22.42,0,0,0,2-6.9c.22-1.75.57-3.54,2.58-4.26a2.24,2.24,0,0,1,1.4,2.19c.4,4.15-2.25,7.84-1.78,12C7.21,74.4,7.19,75.85,5.45,76.17Z"/><path class="cls-3" d="M76,183.12l2.5,1.79c-7.72-.09-14.86-2.71-22.06-5-.95-.3-1.06-1.14-1-2,6.1,1.24,11.58,4.7,17.94,5C74.23,182.49,75.14,182.27,76,183.12Z"/><path class="cls-13" d="M179.22,123.1a2.34,2.34,0,0,0-1.08-2.09c-1-5.81,1.46-11.16,2.16-16.74.4-.77.83-1.48,1.89-1.22l.07,7.13a1.53,1.53,0,0,0,.14.87c0,.34,0,.68,0,1,.7,1.68.94,3.34-.29,4.92v0c-.76,1.62-1.21,3.35-1.87,5a.5.5,0,0,0-.25.65C180.07,123.39,179.8,123.54,179.22,123.1Z"/><path class="cls-14" d="M124,177.88l2.33.21c.19,1.77-1.34,1.37-2.24,1.78v0a14.47,14.47,0,0,1-10,2.94l-2,.06c-.89-.85-2.65.43-3.16-1.31,2-2.93,5.55-2.16,8.22-3.5C119.47,177.59,121.71,176.17,124,177.88Z"/><path class="cls-3" d="M27.93,28.06q-5.85,7-11.71,14C18.29,35.85,22,31,27.93,28.06Z"/><path class="cls-3" d="M7.85,58.92c-2.73,3.22-1.4,8.13-4.62,11.16.88-5.75,1.31-11.65,5.92-16C9.63,55.92,8.22,57.28,7.85,58.92Z"/><path class="cls-3" d="M24.32,155c3.25,3.41,7.19,6.12,9.89,10.06C30,164.09,24.4,158.41,24.32,155Z"/><path class="cls-3" d="M154.22,162l1.17-1.91c3.49-2.07,5.36-5.84,8.6-8.17,2.38,2.58-1.09,3-1.84,3.81C159.93,158.25,158.59,162.17,154.22,162Z"/><path class="cls-3" d="M3,71.07l.17,3c-2.11,3.07.15,7-1.91,10C-.24,79.45-.34,75,3,71.07Z"/><path class="cls-3" d="M1.27,84.1l.09,2.05a64.26,64.26,0,0,1,0,14.8l-.06,2A35.46,35.46,0,0,1,1.27,84.1Z"/><path class="cls-3" d="M179.22,123.1a2.26,2.26,0,0,1,.81-.43c1.76,4.6-1.59,7.24-3.94,10.27C176.21,129.37,179.48,126.79,179.22,123.1Z"/><path class="cls-3" d="M5.22,122.37a4.69,4.69,0,0,1,.75-.12c-.22,4,3.38,6.82,3.23,10.78C6.91,129.84,3.61,127,5.22,122.37Z"/><path class="cls-3" d="M35.22,166c3.56,1.14,6.25,3.56,8.89,6.05C39.78,172.05,37.6,168.88,35.22,166Z"/><path class="cls-3" d="M114.12,182.83l10-2.94C121.3,182.65,118.43,185.17,114.12,182.83Z"/><path class="cls-3" d="M141.07,172l7.09-5C146.94,170.22,144.87,172.31,141.07,172Z"/><path class="cls-3" d="M124.12,179.87c.42-1,2-.49,2.24-1.78l3.76-.23C129,181.29,126.76,181.11,124.12,179.87Z"/><path class="cls-3" d="M1.3,103c1.69,2.18.57,4.68.8,7C-2,108.14,1.41,105.37,1.3,103Z"/><path class="cls-3" d="M164.48,151l4.61-6.21C169.81,148.57,167.48,150.05,164.48,151Z"/><path class="cls-3" d="M34.14,22.06c-1,2.22-2.91,3.55-4.92,4.75C29.87,24.21,30.7,21.77,34.14,22.06Z"/><path class="cls-3" d="M67.18,4.92,61.28,7.1C62.77,5.09,64.31,3.2,67.18,4.92Z"/><path class="cls-3" d="M16.22,145.05c1.83.71,2.18,2.46,2.84,4C15.88,149.29,16.21,147.06,16.22,145.05Z"/><path class="cls-3" d="M44.34,15.13c-.93,1.59-2.59,2.09-4.12,2.79C40.76,15.75,41.44,13.81,44.34,15.13Z"/><path class="cls-3" d="M58.21,8.12c-1.55.91-3,2-5,1.84C54.42,8.09,55.66,6.34,58.21,8.12Z"/><path class="cls-3" d="M2.21,111.06a7.59,7.59,0,0,1,.88,5C1.09,114.67.42,113.08,2.21,111.06Z"/><path class="cls-15" d="M109.17,181.92c1,.18,2.24-.14,3,1l-2.88,1c-.94-1.49-3.09-.13-4-1.71A2.66,2.66,0,0,1,109.17,181.92Z"/><path class="cls-3" d="M182.16,117c.1-1.64.19-3.28.29-4.92C184.78,113.86,184.89,115.51,182.16,117Z"/><path class="cls-3" d="M51.39,11.17c-1.56,1.21-3.12,2.44-5.17,2.73C47,11.16,49.16,11.11,51.39,11.17Z"/><path class="cls-3" d="M151,164.92a7.7,7.7,0,0,1,3.22-2.87C155.53,165.72,152.82,164.84,151,164.92Z"/><path class="cls-3" d="M180.28,122c0-1.9.27-3.69,1.87-5A5.72,5.72,0,0,1,180.28,122Z"/><path class="cls-3" d="M21.46,151.93c.94,1,1.89,2,2.84,3C22.67,154.59,20.44,154.78,21.46,151.93Z"/><path class="cls-3" d="M51.23,176.12c1.81-.42,3.06.45,4.12,1.77A4.93,4.93,0,0,1,51.23,176.12Z"/><path class="cls-3" d="M174.31,136a5.33,5.33,0,0,1,1.76-3.07C177.33,135.05,176.35,135.85,174.31,136Z"/><path class="cls-3" d="M172.11,140l1.9-3C175,139,174,139.77,172.11,140Z"/><path class="cls-3" d="M61.21,7.13c-.75,1-1.88.89-2.94,1C58.47,5.35,59.94,6.55,61.21,7.13Z"/><path class="cls-3" d="M46.24,173.17c1.38-.16,2.25.7,3.1,1.58C47.15,176.5,47.24,173.76,46.24,173.17Z"/><path class="cls-16" d="M180.06,66.1c-.31.66-.62,1.32-.94,2-3-.32-2.67-3.1-3.69-4.88-1.49-5.21-4.07-9.91-6.75-14.56a38,38,0,0,0-4-6.84,26.76,26.76,0,0,0-2.21-2.43c-2-2.14-3.44-4.67-5.65-6.59-1.08-1.13-2.16-2.26-3.35-3.28-3.34-2.31-6-5.44-9.51-7.59a24.14,24.14,0,0,0-5.13-3c-1.26-.56-2.3-1.47-3.49-2.14-6.49-3.47-13.58-5.51-20.21-8.64-1.3-.94-3.24-.82-4.12-2.46-.13-.91.63-1.15,1.16-1.56,13.92,2.34,26.23,8.39,37.14,17.09C164,33,174.91,47.63,180.06,66.1Z"/><path class="cls-17" d="M107,3.1c-8.88-.46-17.79.76-26.64-.68,8.28-1,16.59-.15,24.88-.43C105.77,2.4,106.89,1.93,107,3.1Z"/><path class="cls-18" d="M112.13,4.12l-1,1a2.58,2.58,0,0,1-3.91-.24v-1Z"/><path class="cls-19" d="M176.23,63c1.54,1.35,1.12,3.83,2.89,5,.92,5.48,2,10.94,2.68,16.45.43,3.72,2.09,8-2.65,10.53-1-1.08-.29-2.32-.34-3.5.51-1.34-.14-2.65-.1-4,.34-2.45-.23-4.79-1-7.52-1.54.62-1.36,2.53-2.53,3.17-3.63-1.67-2-5.38-3-8-.47-1.17-.11-2.6-.53-3.85-.72-2.17-1.64-.54-2.5-.09A2.35,2.35,0,0,1,166.84,69c-.66-4-2.8-7.39-3.93-11.17.36-1.58,2.15-2.2,2.51-3.78.42-1,.61-2.09,1-3.12a2.71,2.71,0,0,1,.81-1.08,1.78,1.78,0,0,1,1.3.31A70.34,70.34,0,0,1,176.23,63Z"/><path class="cls-20" d="M182.19,103.05l-1,1c-1,1.34-1.29,3-1.85,4.5s-1.41,3.26-3.42,2.78c-1.82-.44-1.51-2.27-1.57-3.71,0-.82-.07-1.63-.09-2.45,1.14-3.08-1.1-6.07-.25-9.15,1.39-.74,2.39-.12,3.25.94a2,2,0,0,0,1.95,1.06c.52.34.34.89.44,1.36.25-.45,0-1.07.54-1.42.28-1.41,1.16-1.9,1.63-.38C182.32,99.32,182.09,101.23,182.19,103.05Z"/><path class="cls-21" d="M177.24,97l-3-1c-1,.32-1.28-.26-1.44-1,.61-2.28,3-2.19,4.44-3.39a1.86,1.86,0,0,1,2,.47c1,1-.37,2-.08,3Z"/><path class="cls-22" d="M184,87.11V100A20.91,20.91,0,0,1,184,87.11Z"/><path class="cls-19" d="M180.17,98v4c-2.78-.84-.67-2.67-1-4C179.52,98.06,179.85,98,180.17,98Z"/><path class="cls-23" d="M64.22,10,66,9c4-1.27,8.28-1.33,12.16-3h-.09c3.87-.37,7.67-2.25,11.64-.57a1.66,1.66,0,0,1,.87,1.28,4.38,4.38,0,0,1-.86,2.22c-2.26,3.5-6.32,1.75-9.29,3.2-3.69,2.05-7.83,2.25-11.85,3-1.7.34-3.52.13-5,1.24-1.85,1.18-3.73,2.26-6.07,1.66C54.93,16.87,55,15.09,56.2,13l2-1C60.07,11,62.25,10.86,64.22,10Z"/><path class="cls-24" d="M22.29,39.06c1.41-3.17,4.71-4.56,6.77-7.12,2.91-.88,3.07,1,2.67,2.93-.37,1.76-1.66,3.2-2.13,5-.53,3-2.59,5-4.52,7.14-1.27,1.62-3.19,1.47-4.94,1.81a5.16,5.16,0,0,1-1.36.07c-.86-.26-1.86-.41-1.5-1.73l0,0A13.93,13.93,0,0,0,22.29,39.06Z"/><path class="cls-25" d="M90.43,6.13C86.34,4.59,82.2,6.5,78.09,6a3,3,0,0,1,.3-.81C87,4,95.57,3.3,104.16,5.1a.61.61,0,0,1,.26.68c-.08.22-.16.34-.22.3-.08.11-.24.21-.31.38a2.36,2.36,0,0,1,1.2-.73,9,9,0,0,1,1.31.68c2.44,2.94,1.24,4.4-2,4.87A11.7,11.7,0,0,1,99.51,11C97,8.4,93.59,7.52,90.43,6.13Z"/><path class="cls-26" d="M40.15,22.86l1-.87c2.62-1.58,5.22-4.71,7.93-.11a5.1,5.1,0,0,1,1.75,3.17,2.26,2.26,0,0,1-.59,1.29c-3.35-.18-6.19,1.7-9.35,2.37C36.73,26.49,36.73,26.44,40.15,22.86Z"/><path class="cls-27" d="M28.31,40.16c0-1.91,1-3.34,2.06-4.79,1.27-1.8.93-3-1.31-3.43,2.28-2.12,3.82-5.11,7.12-6,1.24,1.55-2.5,3.41.3,4.87-.68,1.56-1.94,2.82-2.36,4.53a12.06,12.06,0,0,1-4.51,5A1.46,1.46,0,0,1,28.31,40.16Z"/><path class="cls-28" d="M6.34,73.14a22.69,22.69,0,0,1,2.91-12c2.48-2.09,2.16-5.6,4.05-8a4,4,0,0,1,.93,3.62A13.39,13.39,0,0,1,13,60.31a37.84,37.84,0,0,0-3,8.25C9,70.22,10.26,73.79,6.34,73.14Z"/><path class="cls-29" d="M36.23,31c-4.18-1.66-.52-3.4,0-5.11a6.36,6.36,0,0,1,4-3.07c-1.46,2.16-2.49,4.23,1.17,5.25C40.6,30.77,39.11,32.12,36.23,31Z"/><path class="cls-30" d="M13.3,57V53.12c1.55-1.85,1.66-4.66,4-6l2,1c.4.89-.08,1.63-.4,2.39a8.37,8.37,0,0,0-.6,3.09,4,4,0,0,1-.92,2.52A8.8,8.8,0,0,0,13.3,57Z"/><path class="cls-31" d="M48.29,23c-1.78-4.67-4.7-1.34-7.19-1,1.85-2.62,4.72-4,7.22-5.79,1.32.7,3.63-1,4.13,1.71A16,16,0,0,0,48.29,23Z"/><path class="cls-31" d="M56.2,13c.2,1.59-.63,3.71,2,4,.22,2.07-1.6,2-2.74,2.56a3.14,3.14,0,0,1-2-.13,1.6,1.6,0,0,1-.7-1.08c.24-3-2.93-1-3.73-2.52Z"/><path class="cls-30" d="M22.29,39.06c-.43,3.45-.24,7.27-5,8Z"/><path class="cls-32" d="M78.18,6C74.53,8.58,70.24,8.61,66,9,69.78,6.79,74,6.55,78.18,6Z"/><path class="cls-33" d="M49,15.91c1.21,1,4.3-1.34,4,2.28a.52.52,0,0,1-.81-.2c-.88-1.54-3.06-.22-3.93-1.79A.94.94,0,0,1,49,15.91Z"/><path class="cls-32" d="M64.22,10a9,9,0,0,1-6,2A6.57,6.57,0,0,1,64.22,10Z"/><path class="cls-34" d="M45.22,169c-2.71-1.15-4.83-3.11-7-5,.24-1.21,1.59-1.46,2.4-2.31a28.19,28.19,0,0,0-5.92-4c-6.63-2.77-6.63-9.68-9.5-14.76-.79-1.4.66-2.71,2.08-3.44,4.31.46,5.46,4.3,7.61,7.08,1,3.92,2.69,7.15,7.37,7.45,3.49.92,5.84,3.79,9,5.28a3.09,3.09,0,0,1,1.33,2.42,3,3,0,0,1-1.15,1.73,5.08,5.08,0,0,1-3.2.93c-1.77-.12-1.7,1-1.38,2.18.24.89,1,1.7.32,2.7A1.81,1.81,0,0,1,45.22,169Z"/><path class="cls-35" d="M27.27,139.94c-.88,1.48-2.41,2.87-.18,4.59a3.79,3.79,0,0,1,1.5,2.48c.08,6.81,6,8.57,10.05,12,1.43,1.22,4.62.75,4.33,3.37-.33,2.89-3.61-.29-4.77,1.66a36.07,36.07,0,0,1-10-9c-1.32-2.3-3.51-3.86-5.06-6-1.4-1-2.8-2-3-4,.37-.44,1.42-.72,1.19-1.1-.49-.82-1.36-.08-2.07,0a8,8,0,0,1-3.83-5.12c.62-1.06.79-2.38,1.91-3.14a1.63,1.63,0,0,1,1.23.27,4.68,4.68,0,0,1,.67,1.14c.5,2.18,1.7,2.58,3.65,1.6,1.42-.72,2.81-2,4.59-.79A1.61,1.61,0,0,1,27.27,139.94Z"/><path class="cls-36" d="M5.32,110a1.76,1.76,0,0,1-.29-.8c.63-2.81,2-1.4,3.33-.62,4,2.34,5.44,6.83,8.45,10,2.35,2.78,1.33,6.29,1.87,9.44.35,2-1.45,3.63-3.43,4.3-2.85,1-2.6-2.37-4.17-3.25-.87-1.71-1.75-3.42-2.62-5.14-.14-.89-.27-1.79-.41-2.69C7.05,117.55,6.82,113.64,5.32,110Z"/><path class="cls-37" d="M71.16,180.09c-3.1-.66-6.41-.74-9-3a5.71,5.71,0,0,1,.21-6.38c4.72-1,8.44,2.55,12.87,2.81,1.74.23,3.43.7,5.35,1,0-1.17-2.9-1.56-.91-3.12a8.3,8.3,0,0,1,8.3,1c1.15,1.52.49,2.94-.25,4.35-3.58,1.52-7.05,3.62-11.15,1.29-1.31-.75-2.52-.31-3.09,1.35C73.11,180.59,72.21,180.73,71.16,180.09Z"/><path class="cls-38" d="M62.2,171.06c1.65,2-.34,4,0,6-6.14-1.67-12-4-17-8l2,0a2.64,2.64,0,0,0,2.13-1.24,2.16,2.16,0,0,1,1.24.28c.56.37,1,1.33,1.47,1.21s0-1,.2-1.61a2.68,2.68,0,0,1,.93-1.85C57,166.29,59.58,168.68,62.2,171.06Z"/><path class="cls-39" d="M11.08,129.1c1.92-.26,1.83,4.06,4.64,2C18,129.37,18,127.68,17,125.15c-.68-1.78.72-4.15-.78-6-1-.84-2-1.65-1.14-3.15,1.14-.46,1.93.13,2.67.87,2.25,3.79,3,8.25,5.23,12,.6,1.67,1.13,3.32-1.22,4.12-2.12.11-3.32,1.59-4.51,3.08-.11,1.27.22,2.82-1.83,2.84Q13.25,134,11.08,129.1Z"/><path class="cls-40" d="M71.16,180.09c1.84-4.46,4.76-4.89,8.39-2.16,1.34,1,2.09.06,3-.54,1.45-.91,2.92-1.63,4.54-.33a2.3,2.3,0,0,1,.82,1c.28,1.28,1.17,2.34,1.47,3.58-1.48,1.74-3.63.11-5.1,1.28-1.36-.52-2.69-1.14-4.21-.83-1.3.52-2.59.76-3.82-.17C75,180.19,72.45,181.87,71.16,180.09Z"/><path class="cls-41" d="M19.24,144c.26-2.12,1.61-2.45,3.19-1.63,1,.52,1.92,1.83,1.25,2.89-1,1.58-2.35,0-3.56-.16Z"/><path class="cls-42" d="M23.13,149.1c2.28,1.49,4.6,2.94,5.07,6C26.1,153.42,23.84,151.92,23.13,149.1Z"/><path class="cls-43" d="M76.27,182l3.82.17c-1.1,1.48-2.76.61-4.12,1l-2.67-.22C74,181.77,75.23,182.11,76.27,182Z"/><path class="cls-44" d="M175.19,105.05c2.14,1.51-1.4,4.94,1.12,5.35,2.74.44,1.15-3.61,2.95-4.83.66-.46,1.28-1,1.91-1.47-.19,5.79-1.55,11.36-3,16.91l-.93,1c-2,.43-4.1.36-6,1.43a3.44,3.44,0,0,1-4.46-.58c-1-2-.38-3.92.47-5.79a2.33,2.33,0,0,1,1.64-1.27c.35.17.61.53,1,.65a9.88,9.88,0,0,1-1.09-.89,3.74,3.74,0,0,1-.32-2.74c.68-2.87,1-5.84,2.09-8.61C172.57,101.62,173.94,103,175.19,105.05Z"/><path class="cls-45" d="M168.09,141.93,165.21,146a1.81,1.81,0,0,0-1.68.82c-1.9,4.43-5.69,6.41-9.94,7.85-1.1.48-2.24,1.1-2.89-.61.05-4.24,4.19-5.95,5.74-9.26a11.53,11.53,0,0,1,5.49-5.17,4.11,4.11,0,0,1,1.39-.17C165.12,139.89,167.12,139.9,168.09,141.93Z"/><path class="cls-46" d="M167.13,123c1.79,0,3.55.09,5-1.32,1.8-1.77,3.48-.94,5.1.34-.38,1.78-.69,3.59-2,5l-.62-.26c-2.64-2.35-4.33-.44-6,1.34-1.6,0-2.76,2.16-4.62,1C162.73,125.9,164.57,124.29,167.13,123Z"/><path class="cls-47" d="M153.19,154c.55-.57,1.11-1.62,1.65-1.61,3.55.06,5.53-1.62,6.76-4.89.81-2.13,2-2.35,3.61-1.49-1.71,3.83-4.85,6.42-7.89,9.09C155.86,155.09,154.29,155.44,153.19,154Z"/><path class="cls-48" d="M153.19,154c1.44.15,3.06-.4,4.13,1.1-.65.68-1.3,1.37-2,2.05-1.23-.64-2,.55-3,.75-5-.24-5.14-.36-4.65-6,.48-1.5,1.33-2.83,3.06-2,2.23,1-.41,2.86.48,4.2C151.87,155.19,152.53,154.09,153.19,154Z"/><path class="cls-46" d="M175.21,127.06c-.56,3.6-1.42,7-5,8.95a3.3,3.3,0,0,1-.7-3.56c1.77-1.94.39-7.22,5.71-5.4Z"/><path class="cls-49" d="M153.16,157c.44-.44.85-1.18,1.33-1.24.83-.09.7.85.87,1.42-.39.62-.78,1.23-1.16,1.85l-5,3.75c-1.07-.53-2.23-1-2.48-2.38C147.33,156.38,151.57,159.21,153.16,157Z"/><path class="cls-50" d="M170.2,132.05c0,1.32,0,2.64,0,4-1.11.75-.89,1.94-1,3-1,.59-1.8,1.48-3.1,1.25-1.65-.42-3.06-1.1-3.36-3,.38-2.32,2.9-1.31,4-2.58,1-.72,1.5-1.91,2.36-2.78A1.16,1.16,0,0,1,170.2,132.05Z"/><path class="cls-46" d="M166.18,140l3-1-1.08,2.89-4.93-1.8C164.14,139.2,165.16,139.42,166.18,140Z"/><path class="cls-51" d="M15.3,115.86c.3,1.08.6,2.16.91,3.25-4-2.39-4.64-7.67-8.86-10-1.07-.58-1.55-.91-2.31.07-2-2.29,1-4.69-.15-7,2.59-1.82-1-2.87-.56-4.43-.48-3-1.38-5.91.13-8.83,1.22,0,1.76.87,2.29,1.76a7.28,7.28,0,0,1,.61,2.14A10.24,10.24,0,0,0,8.3,96.3c1.53,3.14,3.2,6.21,3.32,9.83.07,1.91,1.23,3.39,2.34,4.87S16.51,113.79,15.3,115.86Z"/><path class="cls-52" d="M6.34,73.14c3.12-.58,1-4,2.78-5.24.92,1.28,2.41,1.75,3.67,2.56A5.17,5.17,0,0,1,13,74a21.39,21.39,0,0,0-1.72,8.48A5.76,5.76,0,0,1,9.42,87.3a2,2,0,0,1-2.6-.53c-1.07-2.14-.1-4.88-1.94-6.81A2.26,2.26,0,0,1,5.14,78c.11-.62.21-1.24.31-1.85C6.66,75.43,6.08,74.16,6.34,73.14Z"/><path class="cls-28" d="M5.14,78l.3,2.15a12.82,12.82,0,0,1,.33,8.23l-.6.59c-2.14,3-.48,6-.09,8.93.06,1.2.29,2.45-1,3.2C2.14,93.31,3.88,85.68,5.14,78Z"/><path class="cls-53" d="M1.36,101a88.12,88.12,0,0,1,0-14.8A25.81,25.81,0,0,1,1.36,101Z"/><path class="cls-51" d="M5.32,110c3,3.23,2.39,7.36,2.73,11.24A27.23,27.23,0,0,1,5.32,110Z"/><path class="cls-54" d="M4,101.12c.33-1.07-.06-2.38,1-3.2.87,1.48,3.08,3-.19,4.31Z"/><path class="cls-55" d="M124,177.88,117.21,179c-2.59,0-3.73-1.54-4.26-3.81a2.19,2.19,0,0,1,1-.89c1.13-.49,3.81.38,2.17-2.51-.45-.77-1.17-1.4-1.13-2.39a18.64,18.64,0,0,1,9.63-4,1.82,1.82,0,0,1,1,.83c.53,3,2.82,1.41,4.41,1.67a6.65,6.65,0,0,1,1.33.18,6.17,6.17,0,0,1,1.24.53c1,1.27,3.61.83,3.49,3.29l-2.92,1c-.83.08-1.63.17-1.87,1.18Z"/><path class="cls-49" d="M147.38,164.17l-5.16,4c-1.63,1-2.36-.11-2.91-1.33a3.23,3.23,0,0,0-2.44-2.07c-1.12-.49-2-1.17-1.91-2.55,2-2.11,4.6-1.68,7.12-1.52,1.24.9,2.29,2.18,4.06,2A2,2,0,0,1,147.38,164.17Z"/><path class="cls-56" d="M137.22,164c1.5-.67,3-1.25,3,1.35,0,1.41.11,2.73,2,2.78-1.15,1.86-3,2.54-5,2.9-1.1-1.18-.79-2.8-1.33-4.17A3.19,3.19,0,0,1,137.22,164Z"/><path class="cls-57" d="M136.38,166.91c2.06,1,.93,2.66.83,4.11l-1.13,1c-.9-1.51-4-.24-3.87-3a1.42,1.42,0,0,1-.29-1.81c1.2-.94,2.53-.35,3.81-.3Z"/><path class="cls-58" d="M147.38,164.17l-1.29-1.2c-.51-1.12-.47-1.95,1.06-2,1.15.07,1.95.53,2,1.82Z"/><path class="cls-59" d="M131.29,174.15c-.56-.4-1.09-1-.55-1.55.84-.89,1.73-.54,2.42.37Z"/><path class="cls-60" d="M113.19,175l4,4c-2.29,2-5.68,1-8,2.88l-3.9.21-3.13.75c-1.67-1.59-3.54-.43-5.33-.4a1.19,1.19,0,0,1-.9-.75c.47-1.33-.2-2.2-1.2-2.95a2.5,2.5,0,0,1,.27-2.55c1.21-.89,2.69-.89,4.06-1.29C103.75,176.12,108.49,173.29,113.19,175Z"/><path class="cls-61" d="M84.3,183c1-1.53,2.78-.44,4.08-1.27-.74-1.12-2.49-2-1.15-3.67,1.45-.54.87-2.72,2.51-3.12,1.24.34,1.63,1.36,2,2.43.09.43.15.87.2,1.3.27,2.6,3.2,1.86,4.3,3.41l.07.05c.29.18.38.35.29.53s-.19.26-.29.26Z"/><path class="cls-28" d="M96.27,182.87a3.48,3.48,0,0,1,0-.79c2,.1,4.39-3,5.87.8Z"/><path class="cls-62" d="M104.3,6a5.49,5.49,0,0,0-.14-.89l3.1-.19,3.91.24L115.23,7c-1.31,1.46-3,1.29-4.73,1.16A14.57,14.57,0,0,1,105.22,6l-.47-.07-.46,0Z"/><path class="cls-63" d="M110.2,7.09l5-.06,21.15,8.84c-1.81,2-4.56,1.64-6.75,2.69-5.06-2-10.89-1.7-15.44-5.19C114.14,10.47,110.82,9.64,110.2,7.09Z"/><path class="cls-64" d="M157.19,32.07c2.8,1.63,4.22,4.47,6,7-.51,3.3-2.24,4.31-5.09,2.74-1.87-1-3.44-2.59-5.34-3.62a7.84,7.84,0,0,1-2.61-2.73c-.77-1.58-2.26-3-1.39-5C152.39,26.91,154.59,30.52,157.19,32.07Z"/><path class="cls-65" d="M157.19,32.07c-2.67-.28-4.92-3.92-8-1-2.63,1.6-3.6-1.29-5.37-2-2-.8-3.21-2.7-5.18-3.54a6,6,0,0,1-2.54-1.22c-.65-1.47-.11-2.76.6-4a1.71,1.71,0,0,1,1.07-.55c.46,0,1.36.8,1-.61a1.22,1.22,0,0,1,.39-1c2.19.1,3.54,1.63,5,2.92,3.08,3,6.2,5.93,10,8A6.54,6.54,0,0,1,157.19,32.07Z"/><path class="cls-66" d="M165.2,41.06A18.8,18.8,0,0,1,169.41,48l-.59.36a4.59,4.59,0,0,1-2-.43c-2.29-1.31-4.33.86-6.56.47a23.4,23.4,0,0,0-3.71-1.68,3.25,3.25,0,0,1-1.93-3.55c.62-1.38,1.33-3,3.17-1.78C160.44,43.18,162.77,41.85,165.2,41.06Z"/><path class="cls-67" d="M165.2,41.06c-1.44,3.61-4.48,2.24-6.5,1.43a3,3,0,0,0-3.66.64c-2.15.17-3-1.2-3.45-3a3.67,3.67,0,0,1,1.6-3.08,16,16,0,0,1,4.86,3.26c2.23,2.06,4,1.45,5.18-1.3C163.88,39.71,164.54,40.38,165.2,41.06Z"/><path class="cls-68" d="M176.23,63c-3.24-3.94-6.39-7.93-8.2-12.8l0-.6a2.51,2.51,0,0,1,1-1.5l.38-.15C172.65,52.57,175.3,57.42,176.23,63Z"/><path class="cls-69" d="M139.16,18.14l.06.91c.35,1.06-.14,1.28-1.07,1.06l-1,0c-1.41,0-2.89-1-4.18.35s-1.08,4.38-4.18,3.5a3.77,3.77,0,0,1-.65-1.39c-.24-1.63-.31-3.22,1-4.49,2-2,4.59-2.09,7.18-2.18Z"/><path class="cls-70" d="M154.23,29a16.11,16.11,0,0,1-10-8C148.27,22.81,150.88,26.39,154.23,29Z"/><path class="cls-71" d="M169.2,71.05c.34-1.08-.79-3,1.08-3.13s2.88,1.38,2.91,3.3a32,32,0,0,0,2,11.83,3.49,3.49,0,0,1,1.46,4.07,4,4,0,0,1-3.77,2.48,2.22,2.22,0,0,1-1.34-.82c-2.64-3.76-.78-8.4-2.46-12.35C168.3,74.62,167.64,72.81,169.2,71.05Z"/><path class="cls-72" d="M169.2,71.05a8.61,8.61,0,0,0,1,5c.59.75.57,1.6-.21,2s-1.53-.11-2.15-.64c-2.3-3.63-2.77-8-4.76-11.74-.39-2.14-1.32-4.13-1.68-6.27a2.38,2.38,0,0,1,1.1-2.51l.72.11C166.75,61.05,166.71,66.59,169.2,71.05Z"/><path class="cls-73" d="M176.18,87.1c-.32-1.35-.65-2.7-1-4,0-1.81-.17-3.66,1.53-5,.87-.66,2.38-.95,2.2.27-.48,3.3,3.12,6.56,0,9.79C177.62,88.94,176.78,88.34,176.18,87.1Z"/><path class="cls-74" d="M176.18,87.1l2.8,1.06c1.17,1.23,2.35,2.46.25,3.9l-2-.25a3.53,3.53,0,0,1-2.48-.39c-.8-.61-2.11-.88-1.55-2.37Z"/><path class="cls-75" d="M167.17,51.08c.06,1.18.09,2.34-1,3.1-.53.79-1.09,1.49-2.21,1a2.51,2.51,0,0,1-1.22-2.35,2.8,2.8,0,0,1,1.2-1.71C165,50.59,166.05,50,167.17,51.08Z"/><path class="cls-76" d="M164.23,54.85l1.89-.67c.29,2.21-.72,3.11-2.88,2.84l-.05,0c-.78-.37-1.31-1-1-1.82S163.46,54.51,164.23,54.85Z"/><path class="cls-77" d="M167.17,51.08l-2.95,1c-1.41-.75-2-1.74-.92-3.2,1.74-.93,3.09-.7,3.86,1.28C167.18,50.46,167.18,50.77,167.17,51.08Z"/><path class="cls-68" d="M167.16,50.15a4,4,0,0,0-3.89-.8c-.1-.23-.2-.47-.31-.7.36-1.21,1.33-1.43,2.4-1.47,1.53.36,3,.75,2.86,2.83l-.19.23A2.53,2.53,0,0,0,167.16,50.15Z"/><path class="cls-78" d="M175.19,105.05c-1.26-.45-2.17-2.36-3.89-1-2.25-2.67-.49-5.6-.41-8.38,0-1.07,1.26-1.31,2.27-.61l1.06,1C174.87,99,177.17,101.79,175.19,105.05Z"/><path class="cls-79" d="M173.16,95.08c-2.43,2.62-1.26,6-1.86,9a33.34,33.34,0,0,1-2,9.13c-1.39-1-1.43-2.69-1.83-4.17-.25-1.34.21-2.61.33-3.92.72-7.75.73-7.75-6.3-9.57-1.36-1.87.15-2.74,1.3-3.74a3.88,3.88,0,0,1,1.43-.33c3.43.28,6.88.87,10.26-.35l.63-.27,2.13,1C177.4,94.8,174.05,93.41,173.16,95.08Z"/><path class="cls-80" d="M129.2,18.05c0,1.67,0,3.34,0,5-.84.32-1.3-.18-1.72-.78-1.48-5-5.34-3.49-8.76-3.2-2.89-.45-5.75-1.07-8.62-1.62a21.58,21.58,0,0,1-3.58-.5c-3-1-6.29-.43-9.19-1.93-1.79-.93-3.68-1.56-3.38-4.21.35-3.19-2.8-1.38-3.88-2.58A1,1,0,0,1,90.15,7a8.45,8.45,0,0,0,.28-.85c3.79-.61,7,0,8.77,3.94,3.27.95,6.65.77,10,1a28.57,28.57,0,0,1,4.36,1.8l.64.17C119,15.18,124.79,14.59,129.2,18.05Z"/><path class="cls-81" d="M90.15,7l.07,1a4.66,4.66,0,0,1,1.17,3.2,3.8,3.8,0,0,1-2,3.61c-7.6.71-14.78,3.43-22.28,4.62-4,.34-8,2.42-11.92-.44l3.06-1.94c2.11.4,3.45-1.06,5-2s3.53.19,5.08-.92c3.88-1.39,8.23-.94,11.92-3.07,2-.93,4.18-.61,6.19-.31,2.41.36,2.14-1.31,2.55-2.59Z"/><path class="cls-32" d="M89,8.14v4.55c-2.89-2.3-5.87-1.53-8.74-1.65C82.65,8.61,87,11.84,89,8.14Z"/><path class="cls-32" d="M68.31,14.11C66.83,15.6,65,15,63.23,15,64.69,13.41,66.59,14.28,68.31,14.11Z"/><path class="cls-82" d="M18.13,50l1.2-1.87a1.73,1.73,0,0,0,.9-.12c2.08-.32,3.47,1.15,5.12,2a6.15,6.15,0,0,1,1.07.7,6.21,6.21,0,0,1,.83.94,8.07,8.07,0,0,0,3.22,2.8c1.12.62,2.21,1.28,3.32,1.91a42.56,42.56,0,0,1,5.77,3.17c1.39,1.18,3.26,1.84,4,3.73a1.48,1.48,0,0,1-.6,1.21c-2.58.7-4.42-.95-6.39-2.07-4.46-2.54-8.83-5.22-13.44-7.47A10.79,10.79,0,0,1,18.13,50Z"/><path class="cls-83" d="M26.15,51l-1,0c-.87-1.18-1.53-2.41-.89-3.93.32-2.91,4.07-3.81,4.07-6.91l.9-.1c1.63,0,3.69-1.84,4.54,1.16C31.78,44.91,30.2,48.92,26.15,51Z"/><path class="cls-30" d="M24.24,47.06A5.27,5.27,0,0,1,25.13,51c-2.27,0-2.82-2.73-4.9-3C21.24,46.32,23.14,48.39,24.24,47.06Z"/><path class="cls-84" d="M110.17,12.13c-3.77-.08-7.51-.33-11-2.06,1.28,0,2.57-.11,3.85,0,4,.37,4.67-1,2.17-4.06a8.74,8.74,0,0,1,5,1.08c1.93,1.58,6.24,1.56,4,5.95h0C112.71,13.39,111.5,12.48,110.17,12.13Z"/><path class="cls-85" d="M104.29,6c-.57,3.09-1.93,1.41-3.18.26L104.29,6Z"/><path class="cls-86" d="M36.23,31c2.25,0,3.45-1.86,5.09-2.93,2.6-2,5.19-4,8.73-2.19a1.33,1.33,0,0,1,.47,1.22,3.68,3.68,0,0,1-1.29,1.6c-3.37,1.41-5.56,4.62-9,5.94-2.31.11-4.65-.38-6.92.41C33.52,33.19,33.89,31.41,36.23,31Z"/><path class="cls-87" d="M52.25,18a1.73,1.73,0,0,0,.81.2,2,2,0,0,0,.2.79c2.84,2.19-1.93,3.51-.64,5.53-.58.93-1.28,1.35-2.27.55l-2.06-2C47.46,19.65,49.13,18.25,52.25,18Z"/><path class="cls-88" d="M50.35,25.06a2,2,0,0,0,1.89-1c1.66,0,1.54,1.06,1.31,2.19-.91,1.21-1.95,1.88-3.4.81,0-.37-.07-.73-.1-1.1S50.24,25.34,50.35,25.06Z"/><path class="cls-89" d="M33.31,35.09c1.88-2.85,4.41-1.63,6.83-1.07-1.29,3.34-3.16,6.12-6.92,7-.92-2-3.09,1-4-1Z"/><path class="cls-90" d="M13.3,57c.86-2.24,2.15-2.71,4-1,1.64,2,.7,3.9-.1,5.83a26.24,26.24,0,0,1-2.38,3.85c-1.74,1.92-3.17,2.08-3.42-.92A10.84,10.84,0,0,1,12.17,60C12.55,59,12.93,58,13.3,57Z"/><path class="cls-91" d="M12.17,60c.53,1.7,0,3.47.18,5.11.3,2.68,1.21-.39,1.88,0,1.3,2.42,1,4.23-1.91,5.07-3.39,2.62-2.94-.3-3.2-2.21C9.63,65.06,10.1,62.21,12.17,60Z"/><path class="cls-78" d="M16.2,62c.22-2,1.51-3.84,1.09-6,0-1,0-2,0-3,2.12-.42,3.61.89,5.21,1.9a3.44,3.44,0,0,1,.41,1.4c-.41,3.42-1.27,6.65-4.13,9C17.81,64.29,15,64.77,16.2,62Z"/><path class="cls-92" d="M22.13,55.17c-2.06.3-3.36-1.11-4.83-2.14-.15-1.12-.25-2.23.83-3,2.38.49,3.19,3,5.11,4A1.35,1.35,0,0,1,22.13,55.17Z"/><path class="cls-93" d="M53.21,26.08a2.1,2.1,0,0,0-1-2.06c-.31-1.32-4.48-3.9,1.08-3.29L53.26,19l1.92,0a44,44,0,0,0,12.06-.93c-.22,3.17-3.2,2.64-5,3.7-2.13,1.25-5.37.66-6.31,3.85-.21,1-.61,1.74-1.72,1.85C53.46,27.32,52.91,27,53.21,26.08Z"/><path class="cls-94" d="M27.27,139.94,27,138.2c-.56-.78-1.51-1.26-1.7-2.31a5.74,5.74,0,0,1,.26-3.66A2.55,2.55,0,0,1,28,130.78a2.11,2.11,0,0,1,.88,1.09c1.42,7.42,7.28,11.63,12,16.63a58.89,58.89,0,0,0,8.47,7c1.34,1,2.9,1.7,3.19,3.59-.14.78-.43,1.36-1.39,1.06-3.72-.38-5.62-3.94-8.89-5.12-4.18-1.09-6-4.63-8.09-7.86C31.81,144.82,30.5,141.45,27.27,139.94Z"/><path class="cls-95" d="M51.17,160.12l1.09-1.07a4.53,4.53,0,0,1,1.09-3.63,14,14,0,0,0,2.28-3.81c1.48-2.74,2.65-5.67,4.76-8,1.24-1.27,1.53-3.48,3.72-3.81a2.23,2.23,0,0,1,1.45,1.45c-.37,2.64-1.71,4.89-2.79,7.26-2.1,3.3-4.12,6.65-6,10.07-1,1.76-1.78,4-4.58,3.45Z"/><path class="cls-96" d="M52.16,162c4.13-2.38,4.59-7.3,7.35-10.65.91-1.09,1.18-2.71,2.68-3.34a2.41,2.41,0,0,1,.74,1.18c.1,2.79-2.06,4.6-3,6.94a17.5,17.5,0,0,0-2.51,5.42,4.86,4.86,0,0,1-1,1.8,4.56,4.56,0,0,1-2.71.75,5.68,5.68,0,0,1-1.42-.22,2.52,2.52,0,0,1-1.12-.87Z"/><path class="cls-97" d="M34.19,147.14,42.28,155C36.75,155.3,34.42,152.3,34.19,147.14Z"/><path class="cls-98" d="M49,168.26c.18,2-1,.9-1.73.75-2.07-1.63-2.84-3.65-1.26-5.92.89-1.28,1.92-1.24,2,.68C48.47,165.25,49.49,166.6,49,168.26Z"/><path class="cls-99" d="M49,168.26c-.68-1.42-2.82-2.53-.94-4.49l3.09-.76,1.14.05c1.18,2.11-.17,3.48-1.41,4.88l-.66.24Z"/><path class="cls-100" d="M26.22,136.05c.27.71.55,1.43.83,2.15-1.75-.29-2.53,1.34-3.85,1.92-3.28,1.43-5.15.83-4.87-3.16,1.34-.48,2.78-.76,3.87-1.8C23.84,134.11,25.2,134.3,26.22,136.05Z"/><path class="cls-100" d="M17.24,136.06c-.41-3.06,1-4.22,4-3.91.65,1.27.15,2.4-.44,3.52-.73.84-1.54,1.23-2.54.38l-.48,0Z"/><path class="cls-101" d="M18.21,136.05a2.12,2.12,0,0,0,2-1,1.49,1.49,0,0,1,1.21-.48c.69.26,1.21.62.84,1.48-.91,2-2.28,2.11-3.94.91A6.86,6.86,0,0,1,18.21,136.05Z"/><path class="cls-102" d="M56.19,163.08l0-2c1.39-1,2.71-.49,4.19,0,8.36,2.57,16.48,6,25.33,6.74,2.22.18,4.46.54,4.12,3.69A1.87,1.87,0,0,1,88,172.87a28.83,28.83,0,0,0-8.78-.83,2.49,2.49,0,0,1-2.58.69,8.3,8.3,0,0,1-1.9-.85,10,10,0,0,0-3.33-.83A55.9,55.9,0,0,1,59.93,167C58.27,166.19,56.14,165.61,56.19,163.08Z"/><path class="cls-103" d="M56.19,163.08c4.62,4,10.46,5.16,16,7,.75,1.09,2,.47,3,1l1.1.93a3.23,3.23,0,0,1-1.06,3l-13-4c-3.6-.56-6.09-3.07-8.88-5.06a2.06,2.06,0,0,1,0-2.95Z"/><path class="cls-104" d="M75.22,175c0-1.13-.16-2.32,1.06-3l2.93,0c.82,2.08,5-.12,4.31,2.43-.84,3-3.79.92-5.87.64C76.85,175,76,175.05,75.22,175Z"/><path class="cls-105" d="M88,172.87l1.2-1a2.15,2.15,0,0,1,1.29-.43,1.89,1.89,0,0,1,1.13.76,2.22,2.22,0,0,1-.71,2.55l-.65.3c-2,0,.36,4.4-3,2.91a2.54,2.54,0,0,0-.12-.95C87.4,175.66,87.69,174.27,88,172.87Z"/><path class="cls-106" d="M53.11,167.91c-.35,1,1.69,2.57-.62,3.09-2.47.55-1.34-2-2.28-2.82l0-.17A2.21,2.21,0,0,1,53.11,167.91Z"/><path class="cls-107" d="M53.11,167.91l-2.88.1q1-2.47,2.05-4.95h1c0,1,0,2,0,2.95Z"/><path class="cls-108" d="M22,129.15c-2.52-3.62-3.43-7.91-4.95-11.94-2.41-5.15-4.55-10.37-4.27-16.22.43-7.34,1.9-8.65,7.23-6.47-3.5,9.49.47,18.18,2.95,27,.79,2.82,2.88,5.27,2.44,8.46C23.91,131.23,23,130,22,129.15Z"/><path class="cls-109" d="M14.2,101.08c-.45,5.63,2.22,10.7,2.87,16.13l-1.77-1.35c-4.78-5.72-5.16-13.28-8.21-19.73C11.24,95.23,13.42,97.16,14.2,101.08Z"/><path class="cls-110" d="M22,129.15l3.18.87c.64-1.57,2.11-2.19,3.43-3a58.76,58.76,0,0,1,5.08-3c1.65-.36,2.61-2.56,4.7-1.8a2.67,2.67,0,0,1,.52,2c-1.23,4-5.23,4.45-8,6.42-.84.43-1.67,1-2.67.47l-1.94,1c-1.1,2-3.19,2.27-5.05,3h-1c.33-1,.65-1.93,1-2.9C24.06,131.87,21.9,130.19,22,129.15Z"/><path class="cls-111" d="M167.13,123c-.54,2.22-3.5,3.2-3,5.94a2,2,0,0,1-1.44,1.51,1.73,1.73,0,0,1-2.05-1.61c1.5-4.56,2.71-9.26,5.92-13,.9-.09,1.31.48,1.61,1.2C167.82,119,167.47,121,167.13,123Z"/><path class="cls-112" d="M169.17,116c1.77-.73,2.94-.4,2.85,1.77,0,.86-.59,1.84-1.43,1.74-2.38-.27-1-2.31-1.41-3.51Z"/><path class="cls-113" d="M168.16,117l-1.09-1.22c-1.64-2.66-.75-4.83,1.34-6.76,1.22,1.18.61,2.76.87,4.15,0,.94-.07,1.88-.11,2.82h0Z"/><path class="cls-47" d="M151.21,154c-2.06.92,2-7.3-3-2l-.66.26a1.5,1.5,0,0,1-.87-1c1.28-4.12,4.9-6.15,7.87-8.77,1.71,0,3.05.41,2.68,2.58C156.46,148.89,152.1,150.3,151.21,154Z"/><path class="cls-46" d="M157.22,145.06a3,3,0,0,0-2.87-2c-.5-.7-.08-1.16.4-1.61a3.57,3.57,0,0,0,2.24-3.37,5.2,5.2,0,0,1,1-3.25,2.19,2.19,0,0,1,2.09-.14,7.9,7.9,0,0,1,2.08,5.24Z"/><path class="cls-114" d="M162.21,139.93c-1.65-1.2-2.57-2.7-1.93-4.82,1.92-.6,2.32.86,2.87,2.12l3,2.81-3,.09A3.91,3.91,0,0,0,162.21,139.93Z"/><path class="cls-115" d="M170.2,132.05l-.77-.09a2.3,2.3,0,0,1-2.73-1.71,2.2,2.2,0,0,1,1.48-2.18c.31-2.23,1.5-3.73,3.79-3.95,2-.19,3.09.92,3.23,2.93-1.88.34-3.84.49-3.17,3.37C172.31,131.6,171.2,131.93,170.2,132.05Z"/><path class="cls-44" d="M168.18,128.07l-1.05,2.05a3.09,3.09,0,0,1-3.17.7,2.33,2.33,0,0,1-1.08-.8l1.24-1C165.63,129.37,166.3,126,168.18,128.07Z"/><path class="cls-116" d="M147.15,161c-.36.67-.71,1.34-1.06,2-2.8,2.34-3.34.18-3.9-1.95a1.27,1.27,0,0,1-.28-1.22c0-1.66,4.12-2.36,1.11-4.75a1.62,1.62,0,0,1,.8-1.66c1.26-1.09,3-.52,4.38-1.36h0c.19,3.12.34,6.28,5,5C152.52,160.38,147.72,157.47,147.15,161Z"/><path class="cls-117" d="M163.15,137.23l-2.87-2.12-2,0c-.54-.83-.42-2.05-1.57-2.49-3.37-2.26-6.78-4.45-10.15-6.68-5-2.54-9.5-5.82-14.6-8.11-2-1.29-4.68-1.76-5.34-4.59a2.57,2.57,0,0,1,.45-1.37c2.14-1.06,3.67.31,5.3,1.31,1.62,1.6,3.85,2.1,5.75,3.18.57.33,1.11.7,1.64,1.08,1.61,1.11,3.42,1.86,5,3,2.73,1.83,5.89,2.86,8.58,4.75a25.74,25.74,0,0,0,3.88,2.22,8.87,8.87,0,0,0,2.94,1.1,1.42,1.42,0,0,1,1,.67l1.69.89a1.58,1.58,0,0,0,.53,0c.68,2.13,6.22.25,4,4.8C167.35,138.11,164.42,136.19,163.15,137.23Z"/><path class="cls-118" d="M167.37,134.85c0-2.7-1.68-2.69-3.87-2.8-3.77-.2-.08-1.3-.09-2l3.72.07,2.3,1.84C169.12,133.19,169.53,134.94,167.37,134.85Z"/><path class="cls-119" d="M14.2,101.08c-1.31-3.17-4.42-3.75-7.11-5A2.67,2.67,0,0,1,6.32,93c.73-1.44,1.72-1.78,3.17-.91,2.46,1.48,4.33.41,5.94-1.53a3.49,3.49,0,0,1,3.85.65,6.59,6.59,0,0,0,4,2A3,3,0,0,1,24.4,94c.06.23.1.46.15.69a1.77,1.77,0,0,1-.9,1.07,3.06,3.06,0,0,1-3.42-.65C14.5,93.82,14.28,94,14.2,101.08Z"/><path class="cls-120" d="M15.19,91.07c-.29,3.36-2.9,4.24-6.36,1.81-1.22-.86-1.7,0-2.51.16,0-.61.1-1.22.16-1.83.84-2.77,4.16-.76,5.37-2.82.65-1.29,0-3.66,2.63-3.34C15.79,86.93,15.67,89,15.19,91.07Z"/><path class="cls-121" d="M13.11,90.12c-1.93,2.08-4.69-.93-6.63,1.09A2.38,2.38,0,0,1,5.17,89v0c1.56-.38-.55-3.32,2.07-3a2.11,2.11,0,0,0,2,1C11.7,86.59,12.58,88.13,13.11,90.12Z"/><path class="cls-122" d="M13.11,90.12,9.22,87.06c2.06-4.1-.74-9.3,3-13,2-1.39,1.94-4.91,5.16-5.08A3.11,3.11,0,0,1,18,70.29c.16,1.57-.51,3-1,4.4C15.71,78,16.52,81.93,14.17,85,12.62,86.44,13.52,88.41,13.11,90.12Z"/><path class="cls-123" d="M17.12,69c-1.88,1.44-1.58,5-4.9,5,0-1.31.06-2.62.1-3.93a6.36,6.36,0,0,0,1.91-5.07c.66-1,1.32-2,2-3-.54,1.78,2.4,1.19,2,2.89C18.4,66.44,18.56,67.94,17.12,69Z"/><path class="cls-124" d="M7.23,86.05c-1.69.29.53,3.3-2.07,3l.27-8.84C9.11,81.19,6.64,84.09,7.23,86.05Z"/><path class="cls-125" d="M125.22,166,115.06,170c-2.3,2.28-5.28,2.19-8.18,2.38-1.91,0-3.84-.23-5.73.29a14.15,14.15,0,0,1-3.47.82,2.8,2.8,0,0,1-1.33-.64,2.46,2.46,0,0,1-.62-2.13c.9-2.2,2.86-2.69,4.88-2.85a63.07,63.07,0,0,0,23.83-6.74,5.32,5.32,0,0,1,4.31-.67,2.09,2.09,0,0,1,1.08,1.11,3.34,3.34,0,0,1-.1,2.31C128.55,165.25,127.34,166.58,125.22,166Z"/><path class="cls-126" d="M97.24,173l3-.94c1.91-1.21,4.21.2,6.12-.92,3,.67,5.74-1.37,8.72-1.15.86.09,1.71.2,2.13,1.12a24.71,24.71,0,0,0-2.92,3.91l-1.08,0a40.59,40.59,0,0,1-15,1C97.33,175.21,96.51,174.34,97.24,173Z"/><path class="cls-127" d="M129.19,164c0-.64,0-1.28.05-1.92,1.31-3.22-1.69-4.91-2.72-7.25-1.68-3.82-4.34-7.23-4.59-11.61.94-.8,1.74-.25,2.55.24,1.86,1.77,2.68,4.25,4.23,6.22,1.06,1.85,1.82,3.85,3,5.64.65,1,1.21,2,1.94,3,.49.56,1.07,1,1.54,1.62s.17,1.42.11,2.14l1.93,2c-.28,1-.57,1.95-.85,2.92l-.16.12c-1,.75-2.09.54-2.47-.44-1.23-3.15-.89.71-1.46.29,0,.69-.05,1.38-.07,2.06l-1,.09A6.76,6.76,0,0,1,129.19,164Z"/><path class="cls-128" d="M129.19,164c2.51.95,1.28,3.4,2,5.06l-1-.08c-1.32-1.6-4.47,1.6-5.06-1.93,0-.33,0-.66,0-1Z"/><path class="cls-129" d="M114.27,175c-1.27-3,.74-3.51,2.92-3.92C119.34,174.73,118.1,175.83,114.27,175Z"/><path class="cls-130" d="M124,171.18a2.21,2.21,0,0,1,2,2c.11.65,0,1.38-.83,1.43-1.43.07-1.77-1.14-2.19-2.15C122.75,171.81,122.81,171.21,124,171.18Z"/><path class="cls-131" d="M125.17,167c1.18,2,3.81.14,5.06,1.93-1.08.23-2.15.54-3.24.67C124.84,169.88,123.88,169.21,125.17,167Z"/><path class="cls-132" d="M135.29,162c-1.38-.62-.15-1.27,0-1.91l.42-.59c1.64-1,3.17-2.26,5.26-2.18,1.42.45,2.29,1.15,1.29,2.73,0,.32,0,.65,0,1C140,162.17,137.57,161.53,135.29,162Z"/><path class="cls-133" d="M132.28,166.88v-3.19c1.7,1.08,1.86,3.33,3.93,3.34C134.82,169,133.56,167.85,132.28,166.88Z"/><path class="cls-134" d="M96.2,182c-2.65-.13-6.23.9-5.06-4a4.09,4.09,0,0,1,3.93,1c.9,0,2.43-.38,2.58-.08C98.29,180.31,96.48,180.86,96.2,182Z"/><path class="cls-107" d="M95.07,179c-1.38-.06-2.9.44-3.93-1h0c.82-.78.83-2,1.58-2.82a1.68,1.68,0,0,1,1.18-.51,2.17,2.17,0,0,1,1.1.72c.08.21.16.43.23.64Z"/><path class="cls-135" d="M97.24,173c.33,1,.66,2,1,3.06a2.43,2.43,0,0,1-3,0l0-.09c-1-2.06-1.2-3.64,2-2.94Z"/><path class="cls-134" d="M93.28,175.07c-.08,1.43,0,2.94-2.12,2.92-.31-1-.61-1.93-.91-2.89v0a2.46,2.46,0,0,1,1.88-.68A2.05,2.05,0,0,1,93.28,175.07Z"/><path class="cls-136" d="M153.19,37.07c-.33,1-.66,2-1,3a2.29,2.29,0,0,1-2.69-.75c-4.58-5-10.88-8.22-14.95-13.81-.75-2,.07-2.16,1.66-1.46h3c2.91,4.86,8.37,6.92,12,11Z"/><path class="cls-67" d="M151.2,35.06c-4.37-3.26-10.31-4.81-12-11,3.34,2.33,6.14,5.42,10,7C149.87,32.39,150.54,33.73,151.2,35.06Z"/><path class="cls-137" d="M136.21,24.06c-.48.24-2.05-.42-1,1.14,1,.5,1.73,1.29,1.24,2.36s-1.67.8-2.65.61a3.18,3.18,0,0,1-2.2-1.71c-.95-2.52,2.16-4.7.63-7.28,2-1.59,3.61-1.26,4.91.9A6.23,6.23,0,0,1,136.21,24.06Z"/><path class="cls-138" d="M138.15,20.11l1.07-1.06a2.29,2.29,0,0,1,.68,3.05c-.1.24-.77.23-1.18.33Z"/><path class="cls-139" d="M163.27,49.35l.95,2.72-1,1c-1.51,3.37-6.13,2.9-7.64,6.26a1.9,1.9,0,0,1-.33,1.16,24.71,24.71,0,0,1-4.75,3.23c-1.15.6-2.2,1.38-3.29,2.08a81.91,81.91,0,0,0-8.07,4.42c-.72.46-1.48.83-2.23,1.22a11.29,11.29,0,0,1-1.09.57,15.57,15.57,0,0,0-3.17,1.75,16,16,0,0,1-1.53,1.06,38.86,38.86,0,0,0-4.9,3c-3,1.39-5.81,3.25-8.69,4.92-1,.54-2.06,1.06-3.06,1.65-1.4.62-3.07,2.24-4.26.48-1.54-2.26,1.06-3.64,2-5.37,1.93-2.65,5.32-3,7.69-5,3-1.37,5.5-3.41,8.29-5,4.62-1.54,8.53-4.4,12.63-6.89,1.37-.78,2.82-1.4,4.2-2.15a50,50,0,0,0,7.73-4.74,24.51,24.51,0,0,0,3.68-2.14,4.83,4.83,0,0,0,1.15-2c.73-1.86-1.29-3.55-.33-5.42,1.55-.09,2.93.07,3.08,2.07.28,2.57,2,.39,2.91.89Z"/><path class="cls-140" d="M157.2,46.07c.4,2,3.38,3.66.85,6.08-2.27.18-3-1.77-4-3.11a61.75,61.75,0,0,0-7.45-8.38c-3.29-3.38-6.49-6.86-10.56-9.38a4.41,4.41,0,0,1-2.37-3,1.94,1.94,0,0,1,.53-1.26l1.64.2-.59-2.06,16.94,14.88L155,43.13A3.53,3.53,0,0,0,157.2,46.07Z"/><path class="cls-141" d="M163.19,49c-1.15.51-1.05,2.91-2.64,2.28-1-.39-.42-2.06-.27-3.17,2.23-1.07,4.27-3.35,7-1.14-.43.84-1.44.34-2,.87Z"/><path class="cls-142" d="M165.3,47.87l2-.87L169,48.14a1.67,1.67,0,0,1-.8,1.87A4,4,0,0,0,165.3,47.87Z"/><path class="cls-143" d="M110.17,16.11l9,2c3.09,1.15,7,.51,9,4l1,1a3.74,3.74,0,0,1,.19.73c.28,1-.23,1.48-1,1.86-5.94-.88-10.83-4.71-16.69-5.86-1.69-.33-3.74-.24-4.71-2.24C107.48,15.81,109.37,17.15,110.17,16.11Z"/><path class="cls-144" d="M128.26,25.07l1.14-1.28c2.58-.52.87-3.73,2.87-4.61,3.22,2.36-.17,4.56-.15,6.84-1.26,4.57-4,8.35-6.49,12.27-1,1.52-2.39,3-4.46,1.16a1.7,1.7,0,0,1,.25-1.92,16.86,16.86,0,0,0,3.28-4.86C126.58,30.46,127.42,27.77,128.26,25.07Z"/><path class="cls-145" d="M168.3,77c1.15.68,1.93.61,1.92-1,2,4.16.35,8.9,2.08,13.11a1.67,1.67,0,0,1-1.64,2.13c-1.66-.79-2-2.42-2.46-3.93C168.21,83.92,166.27,80.45,168.3,77Z"/><path class="cls-146" d="M171,91l1.33-1.79a3.82,3.82,0,0,1,.9-.11l1.9,1.8.17.4C173.81,91.5,172.17,94.35,171,91Z"/><path class="cls-147" d="M168.3,77l1.17,11.13a3.79,3.79,0,0,1-.24,3.17,3.09,3.09,0,0,1-3.13.21c-1.76-1.12-1.95-3-2.2-4.79A72.6,72.6,0,0,0,155,59.94a5.06,5.06,0,0,1,.22-.85,3,3,0,0,1,3.09-1.36c3.23,1.42,2.88,5.69,5.85,7.33C166.22,68.82,167.17,73,168.3,77Z"/><path class="cls-77" d="M158.14,57.91l-2.89,1.18c-.56-.23-2.21-.18-.61-1.2,2.76-1.76,5.7-3.24,8.56-4.84.34.61.68,1.21,1,1.81-1.6.15-1.69,1-1,2.21a2.1,2.1,0,0,0-1,2C160.55,59.64,159.62,57.82,158.14,57.91Z"/><path class="cls-148" d="M158.14,57.91c2.11-2.3,2.79.39,4,1.16.67,2,1.35,4,2,6C159.26,65.14,160.79,59.76,158.14,57.91Z"/><path class="cls-149" d="M161.19,129.13a8,8,0,0,1-1,0,3.08,3.08,0,0,1-.94-2.12c2.26-6.46,5.43-12.65,6-19.63a18.7,18.7,0,0,0,.24-9.31,2.57,2.57,0,0,0-1.59-.72c-.63-.06-1.26-.08-1.88-.1a14.93,14.93,0,0,1-4-.38,2.53,2.53,0,0,1-1.08-.86,1.55,1.55,0,0,1,.38-1.29,3.57,3.57,0,0,1,2-.57,2.69,2.69,0,0,1,1.92.83c8.6.5,8.62.51,7.92,9.29-.12,1.61-.52,3.21-.79,4.82-.44,2.25-.88,4.51-1.33,6.76Z"/><path class="cls-150" d="M169.19,91.09c.09-1,.18-2,.28-2.93q.75,1.41,1.5,2.79c1.3,2,2.9-.36,4.3.3-3.46,3.37-7.29,1.89-11.09.85C165.61,90.55,167.72,92.4,169.19,91.09Z"/><path class="cls-151" d="M169.19,91.09c-1.4,1.67-3.34.66-5,1l-.48,0h-.49c-1.27.64-2.44,1.61-4,1.14a2,2,0,0,1-.52-1.37,1.94,1.94,0,0,1,.73-1.3,4.48,4.48,0,0,1,1.45-.59,6.94,6.94,0,0,1,5.3,1Z"/><path class="cls-150" d="M159.23,93.09a6.1,6.1,0,0,1,4-1l-1.94,2.85-2,0a1.19,1.19,0,0,1-.59-.92A1.46,1.46,0,0,1,159.23,93.09Z"/><path class="cls-152" d="M90.19,11.12l0-3.09c2.73-.42,6.71-2.57,4.9,3.41-.49,1.62.77,1.31,1.41,1.87,2.87,2.5,6.83.78,9.84,2.65-.79,1.22-2.08,1.55-3.36,1.91-2.8.32-5.49-.51-8.23-.78-3.07-.53-2-3.9-3.66-5.37A2.86,2.86,0,0,1,90.19,11.12Z"/><path class="cls-97" d="M128.19,22.08c-2.82-1.74-6.52-1.51-9-4C125.42,16.4,127.15,17.17,128.19,22.08Z"/><path class="cls-153" d="M103.2,16.74l3.17-.78,3.8.15c-.74,1.16-2,.82-3.06,1.06C105.68,18.18,104.35,18.31,103.2,16.74Z"/><path class="cls-63" d="M110.17,12.13a6,6,0,0,1,4,.91C112.39,14.79,111.38,13,110.17,12.13Z"/><path class="cls-154" d="M90.19,11.12c.33,0,.65-.09,1-.12,2.86,2.94,2.3,6.81,2.35,10.29.21,14.27.07,28.55.11,42.82,0,1.79-.43,3.67.63,5.32a4.31,4.31,0,0,0,1.93.48c2.08-.13,4.13,1.25,6.22.12,2.11-1.74,3-4.26,4.33-6.53,2.29-1.82,1.35-6.45,5.66-6.5,1.35,2,.25,3.76-.58,5.5A100.33,100.33,0,0,1,104.24,75c-1.13,1.85-3.86,1.22-4.92,3.19a2.3,2.3,0,0,1-1.95-.41C90.82,74.33,86,78,81.1,81.65c-2,1.49-2.88,4.13-5.28,5.21-1.29.58-2.55.86-3.65-.37-.63-1.1.26-1.88.57-2.78.18-.75,0-1.53.16-2.29A7.11,7.11,0,0,1,75,79.09c2.36-2.34,5.91-4,4.94-8.28a2.3,2.3,0,0,1,1.74-1.08c6.55,2.11,8.32.83,8.3-6.05,0-1.63-.12-3.27-.11-4.92.1-6.15-.35-12.29,0-18.42-.12-3.22-.07-6.44,0-9.65-.09-1.66,0-3.32,0-5,0-.78,0-1.56,0-2.34s0-1.47,0-2.2a23.83,23.83,0,0,0-.09-4.05c-.06-1-1.19-1.86-.65-3C90.36,13.39,90.22,12.23,90.19,11.12Z"/><path class="cls-155" d="M89.19,14.1l1.92,2c-2.69,1.94-5.94,1.79-9,2.33-7.34,1.29-14.6,2.8-21.28,6.31a7.3,7.3,0,0,1-4.24,1.15,4.5,4.5,0,0,1-1.47-.69c-.9-2,.46-2.06,1.89-2.73,3.36-1.56,7.29-1.77,10.21-4.33C74.62,17.1,81.52,13.49,89.19,14.1Z"/><path class="cls-156" d="M43.21,63.07c-1.44-.86-3.25-1.21-4-3-.16-.3-.35-.68-.21-.93,4.48-8.09,11.11-14,18.93-18.76a2.72,2.72,0,0,1,2.39.19c2.39,2.27,4.64,4.62,4.47,8.29-1.17,2.76-3.77,4.06-6,5.72-4.12,3.1-7,7.4-10.61,10.93A2.66,2.66,0,0,1,45,64.32,40.3,40.3,0,0,1,58.3,48.93c-5.62,3.75-9.85,8.87-13.83,14.23A1,1,0,0,1,43.21,63.07Z"/><path class="cls-157" d="M60.2,41.06c-3.44-.34-5.45,2.36-7.44,4.2C47.85,49.8,42.6,54.12,39.21,60.08l-6-3,.31-.63C39.14,49.75,44.44,42.77,52,38c1.66-1,3.05-2.61,5.28-2.29C59.05,37.06,60.65,38.5,60.2,41.06Z"/><path class="cls-158" d="M33.22,57.06l-3-2A3.85,3.85,0,0,1,30.68,53,86.18,86.18,0,0,1,49.61,33.56c1.65-1.27,3.35-2.89,5.78-1.65,1,2-.25,3.14-1.58,4.13A89.41,89.41,0,0,0,33.25,57Z"/><path class="cls-159" d="M33.22,41.06l6.92-7c3-1.92,5.07-5.33,8.92-6.06.95-.48,1.33.1,1.6.88,0,1.77-1.34,2.59-2.56,3.35-7,4.36-12.12,10.48-17,17C30,50.58,29.29,53.42,26.3,52l-.15-1Q29.68,46,33.22,41.06Z"/><path class="cls-160" d="M26.3,52c3.21-1.19,4.38-4.31,6.13-6.77,4.78-6.72,11.28-11.45,17.79-16.21.81-1.15,1.87-2.34,3.07-.79,1.06,1.37-.23,2.5-1.31,3.24A97.05,97.05,0,0,0,36.65,44.8a54.59,54.59,0,0,0-5.3,6.55,2.08,2.08,0,0,0-.13,2.7l-1,1A4.5,4.5,0,0,1,26.3,52Z"/><path class="cls-161" d="M22.13,55.17,23.24,54c5.39,1.6,9.75,5.16,14.61,7.76,1.7.91,3.57,1.52,5.37,2.27,3.15,2.22,8.28,1.82,9.2,7a2.68,2.68,0,0,1-1.23.74C47,71.94,44.4,68.65,41,67.1c-2.68-1.65-5.56-3-8.11-4.85a9.89,9.89,0,0,0-2.72-1.63,14.34,14.34,0,0,1-1.67-1c-1.78-1.71-4.81-1.21-6.26-3.52C22.19,55.78,22.16,55.47,22.13,55.17Z"/><path class="cls-162" d="M52.28,71.06c-2-3.62-6.56-4-9.06-7v-1h1c.6.06.74.58,1,1l3,1c1.86.28,3.27,1.56,4.95,2.22,1.25.78,2.71,1.41,2.39,3.32C54.63,72,53.52,72,52.28,71.06Z"/><path class="cls-163" d="M31.22,54.05c-3.23-.85-1.77-2.36-.59-3.91A87.88,87.88,0,0,1,51.12,30.68c.67-.46,2.22-.68,1.32-2.05-.16-.24-1.45.27-2.22.43L49.06,28,50.15,27l3.06-.94,1,1a4.24,4.24,0,0,1,2.65,3.78,2.65,2.65,0,0,1-.43,1.3.91.91,0,0,1-1.21-.09c-4.05.55-6.67,3.55-9.37,6C40.52,43,35.2,47.93,31.22,54.05Z"/><path class="cls-164" d="M22.23,56.08c2.45.7,5.18.75,7,3C26.66,64.88,24,70.66,22.13,76.78a20.76,20.76,0,0,0-1,4.76,13.32,13.32,0,0,1-.32,1.39c-.72,2.6,0,5.35-.73,7.95A2.49,2.49,0,0,1,19.19,92a6.46,6.46,0,0,0-4-1c-1.78-1.8-.57-4.09-1-6.11a26.4,26.4,0,0,1,2-11,3.5,3.5,0,0,1,.36,3.27c-.23-2.23,1.52-4.5.78-7.12-.06-.36-.12-.72-.19-1.08.47-1.34-.31-3,1.05-4.11C20.46,62.41,21,59.09,22.23,56.08Z"/><path class="cls-88" d="M56.22,32.05l-2-5a1.88,1.88,0,0,0,.94-1.94l1-.06a7.24,7.24,0,0,1,1.65,1.84c.42.74.8,1.49,1.18,2.25A6.81,6.81,0,0,1,60,33a2.72,2.72,0,0,1-.66,1.21C57.55,34.54,56.66,33.61,56.22,32.05Z"/><path class="cls-165" d="M28.22,131.11l2-1.1a2.06,2.06,0,0,1,2-.28c4.3,8.94,11,15.84,18.58,22,1.4,1.14,3.66,1.76,3.45,4.26-.64,1-1.29,2-1.94,3-4-3.35-9-5.55-12-10-4.24-5.5-9-10.63-12-17C28.23,131.73,28.22,131.42,28.22,131.11Z"/><path class="cls-166" d="M28.23,132a76.5,76.5,0,0,1,12,17c-4.4-3.08-7.62-7.29-10.67-11.59C28.49,136,27,134.26,28.23,132Z"/><path class="cls-167" d="M21.23,135.05c1.33-1.59,3.33-2,5.05-3L26.22,136a3.09,3.09,0,0,0-3.95,0C21.92,135.72,21.57,135.39,21.23,135.05Z"/><path class="cls-156" d="M64.14,140l-2.92,4c-5.79-.31-10.64-2.42-14-7.32a57.32,57.32,0,0,0-5-5.57c-1.73-1.91-2.5-3.94-.79-6.28a11.57,11.57,0,0,1,2.66-2.47c1.72-.83,3.29-2.21,5.43-1.48,4.56,4.68,8,10.5,13.92,13.82a3.55,3.55,0,0,1,1.72,3.36A2.5,2.5,0,0,1,64.14,140Z"/><path class="cls-168" d="M42.22,125.05c-.81,1.51-1.52,3,.05,4.51,5.64,5.34,9.38,13.29,18.71,13.57.09,0,.16.59.24.91l-5,8c-7.61-4.65-13.41-11.13-18.48-18.33-1.23-1.74-2.77-3.4-1.86-5.83C37.91,126.75,39,123.55,42.22,125.05Z"/><path class="cls-169" d="M36.23,128.06c3.71,7.8,8.8,14.5,16,19.43,1.77,1.22,3.85,2,4,4.56a5.38,5.38,0,0,1-2,4c-8.26-6.58-16.39-13.28-21.55-22.83-.6-1.11-1.14-1.95-.43-3.11A3.78,3.78,0,0,1,36.23,128.06Z"/><path class="cls-170" d="M62.22,149l0-1a16.6,16.6,0,0,1,3-7c-.37-.94.23-1.25,1-1.47a2.19,2.19,0,0,1,1.33.46,2.82,2.82,0,0,1,.32,2.07,20.51,20.51,0,0,1-4.32,7.14A1,1,0,0,1,62.22,149Z"/><path class="cls-171" d="M66.21,140l-1,1-1-1c0-.65.07-1.29.1-1.94.92-1.58.32-4.18,3.06-4.54a1.78,1.78,0,0,1,1.32.67C69.64,136.9,68.52,138.72,66.21,140Z"/><path class="cls-172" d="M90.19,171.93h-1c.17-2.13-.84-3-2.93-2.88-5.44.42-10.35-1.7-15.37-3.23s-10-2.54-14.67-4.77c1.13-1.58.69-4.12,3-5,1.78-1.52,3.75-1.08,5.6-.34,7.18,2.87,14.36,5.69,22.17,6.48a5.31,5.31,0,0,1,3.81,2.06C91.81,166.9,92.1,169.5,90.19,171.93Z"/><path class="cls-173" d="M90.21,164c-8.41-1-16.6-2.73-24.26-6.54A11.94,11.94,0,0,0,59.21,156c0-2.78,2.77-4.33,3-7h1a68.84,68.84,0,0,0,23.32,7.36,5.59,5.59,0,0,1,4.39,2.89C91.5,161,91.63,162.63,90.21,164Z"/><path class="cls-37" d="M75.18,171.06c-1.27.54-2.7,1.56-3-1C73.32,170,74.45,170,75.18,171.06Z"/><path class="cls-174" d="M90.21,164v-5c-2.2-3.37-1.4-7.14-1.44-10.8.07-4.26-.47-8.53.46-12.76.41-.89.9-1.66,2.06-1.54a3.83,3.83,0,0,1,1,1.58c.69,5.25.16,10.53.36,15.8,0,5.07,0,10.14,0,15.21,0,1.93.26,4-1.38,5.52l-1-.11Q90.19,168,90.21,164Z"/><path class="cls-175" d="M91.21,172q0-10.48,0-21c1.57-.09,2,1.09,2.09,2.21a114,114,0,0,1-.13,20.07,3.4,3.4,0,0,1-1,1.66l-1.94,0Z"/><path class="cls-176" d="M20.23,95.07h4c.77,4.24.82,8.55,1.32,12.82.56,4.81,1.15,9.54,3.35,14,1,1.93,1.85,4,.33,6.11l-4,2.05c-5.38-9.81-6.94-20.67-8.72-31.49C15.91,95.11,19.49,96.75,20.23,95.07Z"/><path class="cls-173" d="M29.21,128c-.29-5.34-4.58-9.49-4.49-15,.1-6-3.06-11.88-.51-17.94l0,0A3.91,3.91,0,0,1,29,94.58,2.19,2.19,0,0,1,29.77,96c-.2,8,.56,15.79,3.69,23.25.77,1.82,1.51,3.71.73,5.75Z"/><path class="cls-177" d="M34.19,125a65,65,0,0,1-5.89-22.79c-.17-2-.89-4.34.92-6.16a3.29,3.29,0,0,1,4-.39c2.15,8.49,4,17,5.38,25.71-.11.25-.23.5-.35.76C37,123.17,35.92,124.56,34.19,125Z"/><path class="cls-178" d="M38.22,124.05c0-.64,0-1.29,0-1.93l0-.06c2.1-2.37,4.94-3.64,7.61-5.18,2-.81,3.88-2.41,6.27-1.13.73,1.06.13,1.86-.5,2.66-2.79,2.34-6.54,3-9.32,5.41C41,124.29,39.66,125.41,38.22,124.05Z"/><path class="cls-167" d="M38.22,124.05a6.3,6.3,0,0,0,4-1,1.48,1.48,0,0,1,2.06,0l-2,2c-2.4.2-3.81,2.37-6,3l-4,2-2-.07C32.54,127.6,36.62,127.49,38.22,124.05Z"/><path class="cls-179" d="M135.26,160.1l-2.09-1c-.37-2.81,2.1-3.55,3.69-4.73A79.09,79.09,0,0,0,157.19,132c.89.12,2.22-.32,2.43.81.12.64-.85,1.48-1.32,2.24-.05,1.3-.09,2.6-.14,3.9a8.17,8.17,0,0,1-2.95,3.06c-.28.34-.57.67-.86,1-1.53,3.71-5.76,5.16-7.35,8.82-.62,1.12-2,1.31-2.81,2.15-.33.34-.65.68-1,1-.32,1.58-1.46,2.18-2.87,2.46-1.94.39-3.25,2-5.1,2.6Z"/><path class="cls-48" d="M144.19,154a3.89,3.89,0,0,1,2.81-2.15l1.2.16A5.34,5.34,0,0,1,144.19,154Z"/><path class="cls-45" d="M155.21,142.05a7.26,7.26,0,0,1,2.95-3.06A2.75,2.75,0,0,1,155.21,142.05Z"/><path class="cls-49" d="M140.11,157l3.1-1.93,3.5.23a11.59,11.59,0,0,1-4.48,4.79,2.06,2.06,0,0,0-2.2-2.12.56.56,0,0,1-.19-.66C139.94,157.08,140,157,140.11,157Z"/><path class="cls-180" d="M157.19,132c.36,5.21-4,7.64-6.63,11.06-4.82,6.35-11.46,10.79-17.39,16-.65-1-1.3-2-2-3.06-1.63-3,.5-4.59,2.37-6.24,5.23-4.61,10.62-9.05,14.82-14.7,1.7-2.28,2.52-4.42-.76-6.07a3.76,3.76,0,0,1-1.93-3c.21-.77.5-1.42,1.5-1C150.53,127.38,154.35,129,157.19,132Z"/><path class="cls-181" d="M157.19,96.09l5,.06c1.61,10-.58,19.3-5,28.19-.76,1.53-1.94,2.79-4,1.72l-9.07-5c10.57-1.26,8.06-10.94,10.84-17.13C156,101.53,154.79,98.27,157.19,96.09Z"/><path class="cls-182" d="M157.19,96.09c-.08,7.77-3,14.87-5.1,22.18-1,3.59-2.37,5.24-6,2.92-.48-.3-1.29-.08-2-.1l-5-3c6.41-.46,7.08-5.56,8.46-10.23,1.23-4.17.56-9,4-12.45a5.1,5.1,0,0,1,5.67.63Z"/><path class="cls-183" d="M151.17,96.15c-1.08,5.61-2.25,11.18-3.62,16.74-1.26,5.1-3.49,6.89-8.42,5.19l-1.14-.77a4.24,4.24,0,0,1,.52-1.33c2.63-4.79,3.74-10.07,4.72-15.36.45-2.38,1.07-4.44,3.54-5.42C148.38,94.83,150,94.7,151.17,96.15Z"/><path class="cls-184" d="M153.17,126.06c4.67-1.72,4.51-6.43,6-10,2.55-6.34,1.52-13.33,3-19.89h2.06c3.81,5.42.71,11-.29,16.18a39.18,39.18,0,0,1-6.14,15.46l-.7.4A6.38,6.38,0,0,1,153.17,126.06Z"/><path class="cls-185" d="M127.17,113.07c.91,2.33,3.8,2.14,5.1,4a2.45,2.45,0,0,1-1.22.74,7.37,7.37,0,0,1-4.15-1c-5-3-10.33-5.3-15.11-8.61a19.71,19.71,0,0,1-2.1-1.88c-1.72-3.77,1-2.63,2.76-2.49,1.32.38,2.6.87,4,1.14a14.44,14.44,0,0,1,3.2,1.11,10.2,10.2,0,0,1,3.29,2.29C124.08,110.11,126.18,111.09,127.17,113.07Z"/><path class="cls-186" d="M131.18,117.09l1.09,0c5.58,1.55,9.88,5.48,14.94,8l-1,1c-1.75.74-3.05-.5-4.52-1-2-1-4.07-2-6.09-3.09C133.94,120.48,131,120.17,131.18,117.09Z"/><path class="cls-187" d="M132.24,114l-5-2.1c-.94-.34-1.51-.89-1.19-2a2.53,2.53,0,0,1,1.18-.56,6.28,6.28,0,0,1,1.3,0c3.05.81,2.8-3.81,5.6-3.41,2.15,2.79,1,5.37-.49,7.94A1,1,0,0,1,132.24,114Z"/><path class="cls-186" d="M125.9,110.22l1.35,1.71c0,.38,0,.76-.08,1.14-1.91-1-4.1-1.77-4.93-4.12C124,108,125.07,108.68,125.9,110.22Z"/><path class="cls-183" d="M132.24,114l1-.07a2.28,2.28,0,0,1,2-.46c1.52.7,3.25,1.23,3,3.46l-.27.35C135.91,116.51,133.55,116.19,132.24,114Z"/><path class="cls-184" d="M160.21,127c0,.68,0,1.37,0,2-1.4.94-2.26,0-3.14-.9l.16-.18C158.1,127.28,158.87,126.28,160.21,127Z"/><path class="cls-188" d="M29.22,95.07l-5,0c0-.32,0-.65,0-1A3.94,3.94,0,0,1,27,92.79c2.24-.21,4.49.1,6.72-.21,1.24-.28,1.7-1.6,2.78-2.09a2.85,2.85,0,0,1,2.79.33c1.63-.41-1.66,3.38,1.52,1.75,1.53-.79,3.22-.14,4.85-.07,7.84.35,15.68.41,23.3-2a4.06,4.06,0,0,1,1.23-.75c6.26,3.13,6.31,4,.53,8.53a6.58,6.58,0,0,1-2.24-.93c-2.13-1.31-4.5-.85-6.79-.94C50.89,96,40,97.6,29.22,95.07Z"/><path class="cls-120" d="M19.19,92c0-.32,0-.65,0-1a3.39,3.39,0,0,1,.95-.73,4.88,4.88,0,0,1,1.2-.22,5.69,5.69,0,0,1,2.42.36,1.57,1.57,0,0,1,.76.92A3.19,3.19,0,0,1,23.23,94C21.63,93.89,19.56,94.69,19.19,92Z"/><path class="cls-189" d="M23.23,94l1-2.94a2.85,2.85,0,0,1,3.2-.78c2.17,1.34.06,2.48-.19,3.71l-3,0Z"/><path class="cls-190" d="M17.31,70.11c2.55,2.79-1.47,5.18-.13,7.91-1.48-1.23-.67-2.74-1-4.06Z"/><path class="cls-172" d="M129.2,161.05c-4.46.08-7.72,3.3-11.77,4.59a77.63,77.63,0,0,1-16.71,3.42c-2,.18-4,.38-4.5,2.92a1.66,1.66,0,0,1-2,.36,2.63,2.63,0,0,1-.8-1.26c-.14-1.28-.26-2.56,1-3.42,3.6-.81,7.46.69,10.52-1.09,1-.38.08-1.14.46-.59.12.18,0,.3-.24.43-3.57,1.66-7.32.86-11,.83a2.56,2.56,0,0,1-.5-2.21,3.49,3.49,0,0,1,3.29-2.56,86.4,86.4,0,0,0,27.23-6.87,4.44,4.44,0,0,1,2-.19C128.2,156.71,130,158.18,129.2,161.05Z"/><path class="cls-191" d="M129.2,161.05c-.2-2.15-1.7-3.52-3-5-1.66-.64-2-2.29-2.86-3.6-1.43-2.24-2.37-4.76-4-6.91-1.67-1.86-2.43-4.28-3.84-6.31a57.12,57.12,0,0,0-5.16-8.77c-3.12-4.52-5.09-9.67-7.94-14.33a8.64,8.64,0,0,1-1.52-2.31c2.11-4.39,3.47-.61,5.1.46,2.59,1.86,3.78,4.7,5.15,7.42,3.08,6.27,5.83,12.73,10.7,17.94.65,1.06,1.39,2.12.35,3.36a114.75,114.75,0,0,0,8.46,16.7c1.42,2.38.41,2.41-1.44,2.36C129.23,161.72,129.21,161.38,129.2,161.05Z"/><path class="cls-126" d="M94.22,172.17l2-.19,1,1c-1.93.13-2.1,1.44-2,2.95l-1.13-.85A2.08,2.08,0,0,1,94.22,172.17Z"/><path class="cls-172" d="M106.34,171.12c-1.87,1.43-4,.88-6.12.92C102,170.24,104.29,171.31,106.34,171.12Z"/><path class="cls-192" d="M106.36,173.06c.63.09,1.33.18,1.35,1s-.7,1-1.29.83-1.25-.61-1.33-1C104.93,173,105.8,173.12,106.36,173.06Z"/><path class="cls-193" d="M142.18,124.07l4,2,2,2c.53,2.52-1.49,3.89-2.68,5.55a58.48,58.48,0,0,1-17.32,16.46c-2.37-1.3-2.7-4-4-6-.18-4,3.32-5.11,5.75-6.6,3-1.82,5.61-3.44,7-7A14.33,14.33,0,0,1,142.18,124.07Z"/><path class="cls-194" d="M128.19,150.07a4,4,0,0,1,2.26-3.66c8.3-3.85,12.22-11.86,17.74-18.35,4.27,1.38,4.27,3.52,1.76,6.93-4.36,5.92-9.77,10.7-15.33,15.37-1.8,1.51-3.74,2.88-3.41,5.65A11.85,11.85,0,0,1,128.19,150.07Z"/><path class="cls-195" d="M142.18,124.07c-1.18,4.19-5,6.85-6.2,11.25-.72,2.53-5.43,2.21-7.71,4.57-1.35,1.4-3.1,2.41-4.09,4.19l-2-1.09c-.33-1-.67-2-1-2.93a2.73,2.73,0,0,1-.66-2c1.93-3.22,4-6,7.72-7.8s5.92-5.58,7.92-9.23Z"/><path class="cls-127" d="M140.11,157a2.26,2.26,0,0,1-.08,1c-1.51.91-2.65,2.65-4.79,2.16C136.65,158.73,138.08,157.37,140.11,157Z"/><path class="cls-196" d="M94.22,172.17c0,1,0,2-.07,2.92l-.88,0-1.08,0c0-6.6,0-13.2,0-19.8,0-1.43.41-3-1-4.14q0-8,0-16c0-4.86-1.32-9.77.46-14.58a1.1,1.1,0,0,1,1.56-.36c1.73,1.77,1.33,4,1.34,6.15.1,10.8-.3,21.61,0,32.41.14,4.44-2.1,8.79-.4,13.26Z"/><path class="cls-197" d="M103.21,75.05c2.5-4.34,5-8.67,7.49-13,.88-1.56,1.77-3.15,1.47-5.07-.61-2.16.81-3.82,1.41-5.67a5.77,5.77,0,0,1,.78-1c1.43-1.36,2-3.2,2.94-4.89a8.39,8.39,0,0,1,.67-1.11c1.62-1.41,1.38-4.15,3.61-5.14,2.59,1.21,2.83-1.2,3.8-2.47,2.55-3.34,3.55-7.67,6.74-10.61a2.21,2.21,0,0,0,2.08,1l-.06,1.15a26.49,26.49,0,0,1-1.78,2.68c-.23.36-.48.7-.73,1a25.27,25.27,0,0,0-1.79,3.37c-.87,1.7-2,3.24-2.94,4.92-.63,1.11-1.2,2.24-1.79,3.37a43.66,43.66,0,0,0-2.91,4.93c-.48,1-.93,1.94-1.48,2.87a31.68,31.68,0,0,0-2.63,4.41c-.29.57-.59,1.12-.9,1.68a9.07,9.07,0,0,1-.63,1.09A22.24,22.24,0,0,0,114,62.86a8.54,8.54,0,0,1-.66,1.09,36.38,36.38,0,0,0-3.2,5.54c-1,1.65-2.12,3.23-3.19,4.83a7,7,0,0,1-1.72,2C104.2,76.51,103.64,75.89,103.21,75.05Z"/><path class="cls-198" d="M126,40l3.13-5a3.83,3.83,0,0,1,1.27-.69c2.7-.21,4.48,1.58,6.46,3,5.59,3,9.68,7.78,13.89,12.34,1.6,1.73,3.31,3.72,2.53,6.52a15.53,15.53,0,0,1-8,5c1.63-3.69.12-6.5-2.41-9.15C138,46.85,132.69,42.43,126,40Z"/><path class="cls-199" d="M166.15,91l-6,.05c-1.4-1.47-1.13-3.37-1.41-5.16-1.28-8.27-3.36-16.26-8.8-22.94l5-3c2.24.14,2.69,1.83,3.53,3.55C162.8,72.21,164.5,81.58,166.15,91Z"/><path class="cls-200" d="M126,40a4,4,0,0,1,4.62.28c5.27,4.17,10.93,7.74,15.14,13.3,2.49,3.3,2.33,5.18-.52,7.51-1,1.33-2.47,1.72-4,2,.67-3.73-1.19-6.13-3.67-8.76a109,109,0,0,0-13.21-11.3Z"/><path class="cls-201" d="M106.17,74.08c1-1.7,1.51-3.72,3.14-5,2.07-1.55,2.5-4.11,3.79-6.13H113a5.86,5.86,0,0,1,1.32-.61c4.8,1.26,7.7,4.52,9.42,9a1.87,1.87,0,0,1-.76,1.12c-1.49.53-2.52-.31-3.62-1.27.48.76,1.15,1.26,1.38,2.07a2.2,2.2,0,0,1-.5,2c-1.63,2.68-5.32,2.36-7.06,4.87C109.27,80.6,107.56,79.15,106.17,74.08Z"/><path class="cls-202" d="M124.36,43.08c8.6,2.39,12.88,10.06,18.83,15.64,2.65,2.48-3,2.14-2,4.42-3.86,3.17-7.9,6-12.89,7.17-.58-.72-.23-1.31.26-1.89A67.79,67.79,0,0,1,135,64.07c3.9-1.8,1.95-3.81.14-5.67a55.55,55.55,0,0,0-13.76-10.32C122.36,46.41,123.36,44.75,124.36,43.08Z"/><path class="cls-203" d="M150,62.94c2.14-.15,3.35,1,4.11,2.86,3.27,8.12,6.94,16.13,6.1,25.24a4.08,4.08,0,0,1-.92.07,3.3,3.3,0,0,1-3.68.49c-2.72-3.45-2.17-7.88-3.16-11.81A70.13,70.13,0,0,0,147,64.93,4.33,4.33,0,0,1,150,62.94Z"/><path class="cls-204" d="M147,64.93c2,0,2.15,1.74,2.77,3a50.78,50.78,0,0,1,5.41,23c-1.25,1.37-2.77,1.3-4.36.8-1.77-.92-1.71-2.69-1.9-4.3-.56-4.76-2.11-9.31-3.09-14-.88-4.17-2.75-4.52-6-2.81a2,2,0,0,1-1.89-.82A28.34,28.34,0,0,1,147,64.93Z"/><path class="cls-205" d="M106.17,74.08c2,2.44,3.37,5.55,7,6l-2.9,4c2,1.6,2.69-1,4.06-.87,1.8,2,.84,5.3,3.35,6.93,4.54,1.49,9.28,0,13.84,1,1.28.33,2.53.77,3.8,1.11,1.94.91,4.4.17,6,1.94a1.36,1.36,0,0,1-.53,1.47c-3,1.37-6.07.92-9.15.44-3.6-2.28-7.65-1.53-11.56-1.63-3.67-.08-7.34-.09-9.9-3.37a6.3,6.3,0,0,1-.84-1.2,55.78,55.78,0,0,0-3.91-7.16c-.73-1.84-3.12-2.36-3.55-4.44.64-1.36,2.08-1.53,3.23-2.15A2.09,2.09,0,0,1,106.17,74.08Z"/><path class="cls-206" d="M116.14,91.16c-1.4-2.49-2.55-5-1.77-8L117,82c1.35-1,4.17,1,4.57-2.19,0-.28,1.15-.43,1.83-.28,3.59.77,6.31,8.71,4.09,12C123.73,91.36,119.92,91.94,116.14,91.16Z"/><path class="cls-207" d="M131.09,74l1.23-.91c1.22-.82,2.87-.86,3.85-2.12l0,0c2.76-1.25,4.08.32,4.71,2.63,1.46,5.4,3.76,10.54,4.75,16.08a3.08,3.08,0,0,1-1.43,1.93,5.54,5.54,0,0,1-4.69,0c-1.66-1.07-2.13-2.84-2.52-4.58C135.89,82.32,134.53,77.7,131.09,74Z"/><path class="cls-208" d="M129.2,69c-.29.42-.58.84-.86,1.27a18.71,18.71,0,0,1-8.07,4.88l-.06-2.13c.75-1.07,2.22,0,3-1h0c-.06-3.79-1.84-7-3.78-10-1-1.64-2.48-3-3.07-4.94-.26-.56,0-.91.48-1.15,2.13-2.71,4-2.21,6.48-.1C127.49,59.38,132.14,62.43,129.2,69Z"/><path class="cls-209" d="M136.21,38.05c-2-1.11-3.57-2.87-6-3-.3-1.47.48-2.67,1-3.92l0,0c1.88-1.5,3.32-.23,4.94.66,4.09,2.24,7.42,5.49,11.12,8.26,4.65,3.09,7,8.24,10.72,12.14a1.82,1.82,0,0,1-.82,1.92c-2.52,1.23-3.55-.71-4.81-2.22-3.41-4.08-6.65-8.31-10.92-11.56C140,39.11,138.48,37.59,136.21,38.05Z"/><path class="cls-210" d="M131.09,74c3.16,1.77,5.35,4,5.71,8,.27,3,1.56,6,2.39,9-1.65,1.79-3.62,1.14-5.55.72-2.27-1.65-2-4.43-2.89-6.68A33.33,33.33,0,0,0,126,76.94C127.26,75.25,129.13,74.56,131.09,74Z"/><path class="cls-211" d="M126,76.94c4.64.25,4.27,4.8,6,7.4A9.85,9.85,0,0,1,133.19,91a4.9,4.9,0,0,1-5-.06c.39-3.38-1.79-5.82-3.18-8.52-.53-1-1.19-2.83-2.84-2s.48,2.35-.44,3.94c-1.21-1.54-2.67-2.64-4.69-2.33A32,32,0,0,1,126,76.94Z"/><path class="cls-212" d="M145.2,90.05c-2.65-4.33-3.34-9.36-5-14-.78-2.17-.42-5.19-4.06-5,.3-.87,1-1,1.8-1.1l2.27.14c4.4.45,5.19,4.23,6.21,7.33.88,2.64,1.17,5.44,2.24,8.11S148.83,90.4,145.2,90.05Z"/><path class="cls-213" d="M136.21,38.05c.47-2.83,1.68-1.29,3-.63,6.11,3,9.57,8.75,13.88,13.57,1.22,1.36,2.05,3,4.13,3.08a6,6,0,0,1-4,2.06C149.56,48.23,143,43,136.21,38.05Z"/><path class="cls-212" d="M136.17,71c-.63,1.89-2.16,2.15-3.85,2.12A6.53,6.53,0,0,1,136.17,71Z"/><path class="cls-213" d="M147.33,40c-4-2.47-8.11-4.83-12-7.45-1.3-.87-2.44-1.65-4-1.47.64-1.27,1-2.86,2.87-2.88C138.51,32.18,143.94,35,147.33,40Z"/><path class="cls-214" d="M103.2,16.74l3.91.42a94.57,94.57,0,0,1,21.15,7.91c1.59,3.64-.93,5.79-2.95,8.12-1.23-6.18-5-8.63-15-9.85-3.65-.24-7.22-1.25-10.91-1.23-1,0-2-.33-2.4,1.05a20.51,20.51,0,0,0-.46,2.56c0,.7,0,1.39,0,2.09,0,1.25,0,2.5.07,3.76,0,1.65,0,3.3.08,5-.28,3.24.75,6.65-1.32,9.64a1.27,1.27,0,0,1-1.61-.56c-.45-9.84-1.48-19.69.54-29.49C97.32,14.93,100.16,17.23,103.2,16.74Z"/><path class="cls-215" d="M110.2,22.08c5.52.21,10.42,2.64,15.27,4.81,3.73,1.67-1.14,4.13-.16,6.3-.64,1.87-1.11,3.84-3.12,4.82a2.14,2.14,0,0,1-.59-1.95c1.06-2.61-.28-3.85-2.53-4.83s-4.44-2-7-2a6.79,6.79,0,0,1-3.25-1c-1.45-1.2-3.28-1-5-1.28-.44-.08-.87-.19-1.3-.31-1.76-.58-3.61-.3-5.4-.56a4,4,0,0,1-1.87-.94l.87-2.07c2.74-2,5.67-.82,8.55-.52C106.59,22.78,108.54,24,110.2,22.08Z"/><path class="cls-216" d="M122.18,36.06c0,.65,0,1.3,0,1.95-.21.36-.41.73-.61,1.09-.65,2.26-1.15,4.6-3.25,6.08-2.92-6.48-9-7-14.88-7.77-2.75-.39-5.64.17-8.2-1.35,0-1.67,0-3.33,0-5a1.68,1.68,0,0,1,1.33-.14c3.71,1.18,7.45,1.65,11.25.34A21.8,21.8,0,0,1,122.18,36.06Z"/><path class="cls-217" d="M160.21,127l-3,1c2.09-7.41,5.6-14.33,6.78-22.12.51-3.36-.14-6.51.19-9.74h2a26.48,26.48,0,0,1,0,10.93C166.31,114.37,163.26,120.7,160.21,127Z"/><path class="cls-218" d="M131.11,94.89l10,.06c5.35-1.9,10.68-2.33,16,.21q.06.44.09.87l-6.05.12h-5a11.09,11.09,0,0,1-6.61,1.29c-.57,0-1.13,0-1.7,0-2.54-.1-5.08.11-7.62,0a108.67,108.67,0,0,0-15.92.81,1.86,1.86,0,0,1-.37-1.68,3.05,3.05,0,0,1,2.87-2.38C121.58,94.24,126.41,93.27,131.11,94.89Z"/><path class="cls-151" d="M157.13,95.16l-16-.21a6.56,6.56,0,0,0,0-.89,25.18,25.18,0,0,1,18,0,7.47,7.47,0,0,0,.09.94Z"/><path class="cls-184" d="M166.22,107.08q0-5.47,0-10.93A12.79,12.79,0,0,1,166.22,107.08Z"/><path class="cls-219" d="M128.19,90.92l5,.06h11c2-.65,4-1.55,6,0h5l4.11.11q-.08.42-.12.87a4.27,4.27,0,0,1-1.64.91c-8.46,0-17,.87-25.37-.72-5.3-.79-10.77,1-16-1Z"/><path class="cls-220" d="M158.2,92.07q.48-.06,1-.09c0,.37.05.74.07,1.11s0,.64,0,1h-18c-2-.33-4.24.79-6-1,5.7-1.09,11.47-.19,17.19-.52C154.32,92.44,156.32,93.05,158.2,92.07Z"/><path class="cls-221" d="M94.24,16.11q0,15,.11,30c1.67,2,1.38,4.39,1.21,6.63-.45,6,1.37,12.16-1.17,18-.36.71-.53,2.62-1.59.83-.76-1.27-.57-3.18-.57-4.81,0-16.89,0-33.78,0-50.66,0-1.75.65-3.69-1-5.14.38-1.3,1-2.56,1.88-.42C93.8,12.3,92.44,14.55,94.24,16.11Z"/><path class="cls-222" d="M91.15,30.07v10c-2,2.74-5.31,2.3-8.07,3-4.87,1.29-9.5,3.55-14.64,3.83-3.43-2.08-5.86-4.78-5.57-9.14C71.33,31.7,80.86,29.52,91.15,30.07Z"/><path class="cls-223" d="M91.16,60c0,2.16,0,4.33,0,6.49s.22,4.25-2.72,5c-2.75.69-5.38,1.86-7.24-1.44-3.83-1.57-3.82-6-6.29-8.52-.68-1.88-1.92-3.63-1.37-5.8,3.9-4.53,9.14-5.5,14.71-5.47,1.87,0,2.51,1,2.17,3A15,15,0,0,0,91.16,60Z"/><path class="cls-224" d="M91.16,60c-1.16-.77-.55-2.32-1.2-3.11-1.49-1.79.5-5.42-.72-5.28-3.13.36-6.67-1.1-9.47,1.39-1.62,1.45-4.25,1.06-5.57,3.06-2.27.51-2.77-1.53-3.88-2.7-1-2.34-3.67-4.22-2.11-7.31,7.64-2,15.1-4.73,22.94-6Q91.15,50,91.16,60Z"/><path class="cls-225" d="M114.36,51.34c0,2.14-1.61,3.68-2.19,5.61-2.49,1.81-2.24,5.5-4.93,7.18-1-1-.6-2.1-.35-3.22,1.09-4.86-.29-7-5.11-8.48-2.1-.64-4.75.23-6.26-2.15a6.4,6.4,0,0,1,0-3.92c.79-2.24-1.31-5.77,1.54-6.7A12.24,12.24,0,0,1,108,41.72c2.51,1.88,4.16,5,6.51,7.28C115.05,49.57,114.8,50.57,114.36,51.34Z"/><path class="cls-226" d="M91.15,30.07c-7.83,1.88-16,2.26-23.39,6-1.48.74-3,1.35-4.53,2-2.36-.85-3.92-2.21-3.27-5a3.4,3.4,0,0,1,1.13-1A81.46,81.46,0,0,1,86,24.26c1.83-.24,3.6-.63,5.14.78C91.12,26.72,91.13,28.4,91.15,30.07Z"/><path class="cls-227" d="M80.13,81c3.12-2.77,6.46-5.11,10.75-5.66,2.65-.34,5.31-.7,7.26,1.82-.6.82-1.64,1.16-2.19,2-.63,1.86.66,2.7,1.93,3.37a7.65,7.65,0,0,1,3.88,5.75,6.94,6.94,0,0,1,.28,1.37,3.8,3.8,0,0,1-.35,2.07,1.27,1.27,0,0,1-1.19.55,3.3,3.3,0,0,1-1.14-.81c-3.09-4.84-6.27-5.59-11-2.54-1,.61-1.75,1.57-3.09,1.1-1.74-1.91-1.23-4.8-2.93-6.73C81.71,82.4,80.63,81.94,80.13,81Z"/><path class="cls-228" d="M103.26,71.18c-2.43,2.46-4.65-.6-7-.27a3.6,3.6,0,0,1-.89-1.46,76.58,76.58,0,0,1,.11-12.76c2.7-2.56,5.6-2,7.89.21,2.63,2.5,3.94,5.77,2.29,9.47C104.94,68,103.66,69.37,103.26,71.18Z"/><path class="cls-229" d="M103.26,71.18a8.1,8.1,0,0,1,.25-2.44c3.48-8.15,1.59-11.47-7.29-12.68-1.33-1.33-1.07-2.87-.58-4.45.18-.19.36-.39.55-.58,5.22-1.43,8.93,1.43,12.64,4.39,1.06.85.74,1.62.39,2.61-.71,2-1.32,4.06-2,6.1A17.54,17.54,0,0,1,103.26,71.18Z"/><path class="cls-230" d="M91.11,25a75.66,75.66,0,0,0-25.74,6.45c-1.66.73-3.2,1.78-5.14,1.55-1.19-2.56.67-3.77,2.37-4.68C70.81,23.94,79.73,22.3,88.94,22a3.36,3.36,0,0,1,2.19,1.1C91.12,23.73,91.12,24.39,91.11,25Z"/><path class="cls-231" d="M91.13,23.07a71.49,71.49,0,0,0-25.81,5.19c-2.1.85-4.83,1.69-5.09,4.78l0,0c-.35.45-.68.43-1-.06l-1-3.93c1-1.9,3-2.62,4.81-3.37,7.22-3,14.56-5.65,22.49-6,2,.05,4-.16,5.63,1.36C91.14,21.73,91.14,22.4,91.13,23.07Z"/><path class="cls-230" d="M91.14,21.06H85.21c-1-.15,1.35-1.51-.49-1.33-8.16.79-15.81,3.38-23.28,6.59-1.34.57-2.64,1.53-4.23.75a2.17,2.17,0,0,1-1-2,92.43,92.43,0,0,1,29.07-8.53c2-.22,3.91-.34,5.86-.51Z"/><path class="cls-232" d="M71.21,98.07a1.57,1.57,0,0,1,0-.49,7.46,7.46,0,0,0-1-7.56,1.69,1.69,0,0,1,0-2.34,4.93,4.93,0,0,1,2-1.63,2.64,2.64,0,0,0,3,0,4.85,4.85,0,0,1,1.3,3.37c.58,4,1.1,8-.42,12a4.29,4.29,0,0,1-.91,1.17c-1.11.67-2.22,1.29-3.49.33C70.56,101.4,69.75,99.85,71.21,98.07Z"/><path class="cls-233" d="M80.17,71.13c3.9,6.06-3.19,6-5,8.92l-.41-.55c3.88-5.72.56-10.32-2.34-15-.35-.56-.7-1.12-1-1.71a4.43,4.43,0,0,1-.56-2.74,2.32,2.32,0,0,1,1.56-1.35c2.06.19,2.45,1.93,3.14,3.39C77.11,65.12,79.49,67.7,80.17,71.13Z"/><path class="cls-234" d="M73.27,82a2,2,0,0,1,.9,2c-1.14,1-2.31.38-3.47.08C65,81,59.17,78.13,54,74.23a2.85,2.85,0,0,1-.23-1.44c1.18-2.18,2.71-1.06,4.2-.46,3,1.23,6,2.72,9,4C69.25,78,71.68,79.52,73.27,82Z"/><path class="cls-235" d="M96.22,70a6.49,6.49,0,0,1,0,.88l-1.88-.13q0-12.31,0-24.64c.25-.08.52-.16.78-.22,1.1,1.66.34,3.52.57,5.28C96,57.47,95,63.78,96.22,70Z"/><path class="cls-236" d="M80.17,71.13c-1.86-2.92-4.25-5.54-5-9.06-.32-1,.13-1.26,1-1q2.52,4.5,5,9Z"/><path class="cls-237" d="M75.18,90.08c0-1.35,0-2.69,0-4,2.46-.9,2.75-3.9,4.91-5.09,1.11.15,2.36-.13,3.08,1.1C81.74,83.46,80,84.61,79,86.39c-1.12,1.1-1.55,2.67-2.57,3.84A1,1,0,0,1,75.18,90.08Z"/><path class="cls-238" d="M105.2,76a3.17,3.17,0,0,1-3,2.07,2,2,0,0,1-1.86.61,1.87,1.87,0,0,1-1.06-.81c-.64-3.68,2.43-2.21,4-2.86Z"/><path class="cls-233" d="M73.27,82a11.46,11.46,0,0,1-6.08-4.92l.54-.44c3.15-.3,5.22,1.75,7.47,3.4h0Z"/><path class="cls-233" d="M71.17,83.13l3,.87-1.94,2a2.05,2.05,0,0,1-1,2A3.43,3.43,0,0,1,71.17,83.13Z"/><path class="cls-239" d="M99.24,77.91a3.68,3.68,0,0,0,.93.2.85.85,0,0,1,.24.82c-.08.28-.15.41-.23.42-1.73,1-3.23.39-4.64-.72L95.16,78c.74-1.14,1.89-.93,3-.91Z"/><path class="cls-240" d="M52.22,68c-1.49-.79-3.25-1.18-4-3,3.44-7.25,9.94-11.43,16-16,2.89.35,3.49,2.35,3.49,4.8C62,58,57.48,63.39,52.22,68Z"/><path class="cls-241" d="M67.27,54c-.34-2.06-1.73-3.49-3-5-.35-3.17-3-5.16-4-8l-3-5c-1.88-.94-1.85-2.37-1-4h0l3,2.05C63.7,40,66.34,47,70.59,53.07c.56,2,3.21,3.4,1.66,6l-1,1C69.23,58.48,67.39,56.82,67.27,54Z"/><path class="cls-240" d="M45.22,64l-1-1c3.31-8.14,10.07-12.58,17.34-16.53C54.86,51.21,50.84,58.39,45.22,64Z"/><path class="cls-169" d="M56.17,32.06a7.32,7.32,0,0,0,1,4A62.71,62.71,0,0,0,37.32,53.91c-1.06,1.51-2,3.06-4.07,3.12,3.68-9.73,12-15.26,19.45-21.62,1.14-1,2.53-1.56,2.51-3.33Z"/><path class="cls-242" d="M54.18,73.07c0,.32,0,.63.07,1-.33,6.36-3.16,12-5.49,17.72a12.77,12.77,0,0,1-9.54-.65h-3a1.72,1.72,0,0,1-2.29,0c-2-6.54,2.19-20.77,7.31-25,3.64,1.06,6,4.61,10,5C52.12,71.89,53.49,72,54.18,73.07Z"/><path class="cls-243" d="M41.23,66.07a54.86,54.86,0,0,0-7,25c-1,1.18-2.38,1.23-3.78,1.16a3.27,3.27,0,0,1-2.18-1.06l-4,0V91a5,5,0,0,1-1-4.21c.89-7.64,2.39-15.11,6-22,.88-1.7,1.45-3.86,4.05-3.75Z"/><path class="cls-169" d="M33.21,61.07c-4.92,6-6.62,13.34-7.95,20.75-.54,3-.71,6.15-1.05,9.22h-3c-2.11-3.52-.74-7.06,0-10.54a73.42,73.42,0,0,1,6.6-18.1c.54-1,1.09-2.07,2.38-2.36C31.32,60.09,32.5,59.88,33.21,61.07Z"/><path class="cls-244" d="M30.23,60.05c-4.65,9.86-9.47,19.66-9,31h-1a17.93,17.93,0,0,1,0-9h0c1.23-1.49-.17-3.5,1-5,1.68-6.43,2.88-13.09,8-18C29.55,59.39,29.89,59.72,30.23,60.05Z"/><path class="cls-233" d="M54.18,73.07a3.13,3.13,0,0,1-3-2l1.07,0c1.08,0,2.25.16,2.94-1,4.86.1,8.35,3.13,12.08,5.66A1.19,1.19,0,0,1,67.24,77l0,0c-3.93-.25-7-2.71-10.49-4.12C55.72,72.56,55,72,54.18,73.07Z"/><path class="cls-245" d="M67.21,76.06l-12-6-3-2c3.85-5.92,8.22-11.28,15-14,1.29,2,3.57,3.39,4,6,.32.68.63,1.36,1,2-.7,2.37-2.69,3.63-4.41,5.13-2.21,1.93-4.19,3.89-.78,6.58A1.8,1.8,0,0,1,67.21,76.06Z"/><path class="cls-169" d="M20.22,82.05v9h-1C19.66,88.07,18.22,84.87,20.22,82.05Z"/><path class="cls-169" d="M21.22,77.05c-.24,1.69.67,3.6-1,5C20.46,80.37,19.56,78.45,21.22,77.05Z"/><path class="cls-163" d="M57.21,27.07a79.25,79.25,0,0,1,33.12-8.94c-1.55,2.75-4.2,1.12-5.12,2.93-7.61.39-14.62,3-21.57,5.81l-5.43,2.21A2.13,2.13,0,0,1,57.21,27.07Z"/><path class="cls-246" d="M70.18,53.07c-5.18-5.45-7.6-12.5-11-19,0-.36,0-.73,0-1.09.33,0,.65.05,1,.06-.07,2.31,2.28,3.16,3,5,.82,3.19,3,5.52,5,8,.34,2.62,2.05,4.65,3,7A.64.64,0,0,1,70.18,53.07Z"/><path class="cls-247" d="M67.38,134l-3.14,4.05c-.09-1.69-1.23-2.28-2.57-3.14a35.09,35.09,0,0,1-12.46-13.89c-.51-1.8,1.17-1.77,2-2.44,2.21-1.33,3.89-4,7.09-2.9,3.45,3.22,6.08,7.27,10.1,9.93A4.06,4.06,0,0,1,70.19,129,5.56,5.56,0,0,1,67.38,134Z"/><path class="cls-248" d="M51.22,119.06l-2,2-5,2-2.06,0,9-5a.66.66,0,0,1,.29.72C51.39,118.94,51.3,119.06,51.22,119.06Z"/><path class="cls-249" d="M90.21,148v11c-6-2.88-12.83-2.21-18.93-4.76-3.07-1.28-5.9-2.69-8.07-5.24.74-2.66,2.37-4.83,4-7C75.62,141.13,82.82,145,90.21,148Z"/><path class="cls-250" d="M90.21,148a15.51,15.51,0,0,1-8.46-1.92c-3-1.56-5.85-3.21-9.62-2.29-1.41.35-3.28-1.14-4.94-1.8,0-.65,0-1.31,0-2,2-3,2.24-7.3,6.24-8.95a8.54,8.54,0,0,1,6.18.64c3.34,1.8,7.12,2,10.58,3.29Z"/><path class="cls-95" d="M73.2,132c-2.72,2.14-3,6.08-6,8l-1,0c.81-1.94,2.34-3.64,2-6,1-1.95,2.23-3.78,3.35-5.67,1.91-3.5,4.07-6.89,5-10.84.69-2.59,1.09-5.09-1.08-7.32a2.26,2.26,0,0,1-.34-3.12c3.63-.16,5,3.09,7.27,4.9.14,2.7-2.31,4.64-2.15,7.35A41.39,41.39,0,0,1,73.2,132Z"/><path class="cls-251" d="M72.27,129.07c-.93,2-1.88,4-4,5l-.43,0h-.43l1.9-4.87c.65-.93.86-2.3,2.37-2.38A1.38,1.38,0,0,1,72.27,129.07Z"/><path class="cls-252" d="M73.2,132c.79-4.87,4.91-8.19,6-12.92,1.66-2,1.36-5.67,5.07-5.91,2.51.41,5.06.73,7.12,2.44.93,1.32,1.54,2.71.79,4.33l-.06.13c-1.31,4.58.5,9.37-1,13.93-.32.34-.64.67-1,1a10,10,0,0,1-8.47-1A14.73,14.73,0,0,0,73.2,132Z"/><path class="cls-253" d="M91.16,134c.55-4.62-1-9.4,1-13.93-.39,5,1.26,10.07-.91,14.93Z"/><path class="cls-254" d="M29.22,95.07c12.06,0,24.12-.06,36.18,0,1.75,0,4.2-1.07,4.81,2-5.33,1.27-10.73,0-16.08.42-3.65.14-7.3.13-11,0-3.37-.15-6.9.89-10-1.43h-4Z"/><path class="cls-255" d="M33.23,96.06h10c2.26,5.87,2.23,12.24,4,18.24a4.21,4.21,0,0,1-1,3.69c-2.79,1.09-4.77,3.76-8,4.07C35.82,113.54,32.92,105.11,33.23,96.06Z"/><path class="cls-256" d="M46.2,118c0-5.42-2.1-10.48-2.91-15.78-.32-2.11-.76-4.08-.06-6.15h11c7.65,1.41,5.12,8.54,7.33,13,0,1.54-1.16,2.43-2.11,3.42-2.42,1.14-4.44,3.1-7.22,3.5C49.92,115.78,48.17,117.23,46.2,118Z"/><path class="cls-257" d="M52.22,116a10.86,10.86,0,0,1,7-4c3.39-2.35,6.69-4.88,11-5.5A1.5,1.5,0,0,1,71.48,108c-3.83,3.65-8,6.69-13.26,8.06-2.78,0-4.34,2.78-7,3,0-.36,0-.73,0-1.09Z"/><path class="cls-187" d="M139.19,96.13h7c-2.48,4.52-2.06,9.86-4.06,14.5-1,2.26-.44,5.51-3.83,6.32l-3.06-2.9C136.24,108,137.61,102.05,139.19,96.13Z"/><path class="cls-258" d="M110.28,122c-1.9-2.15-2.26-5.42-5-6.94-.68-1.21,0-2.24.43-3.32,1.94-1.88,3.07-4.91,6.52-4.71,4.76,3.4,10.52,5.13,15,9,1.16.69,1.65,1.73.9,2.88-3,4.61-6,9.32-11.79,10.9C112.84,128.37,112.79,124.25,110.28,122Z"/><path class="cls-259" d="M116.2,129.05c5-3.19,10.24-6.23,11-13l4,1.06c1.14,2,3.39,2.59,5,4,.28,2.3-.6,4-2.16,5.75-3.82,4.3-9.28,6.69-12.84,11.24C117.91,136,115.49,133.37,116.2,129.05Z"/><path class="cls-260" d="M114.19,100c.08-.6.17-1.21.25-1.82,4.82-4,10.46-1.6,15.74-2,1.52,3.4-.28,6.45-1,9.61a10.66,10.66,0,0,1-1.61,3.3c-4.19-.33-4.19-.33-2.42-7.33-.72,1.46-.65,3-1.43,4.26-1.22,2-2.93.73-4.45.75l-2.94-.8C114,104.6,112.13,103,114.19,100Z"/><path class="cls-261" d="M119.26,106.78c1.64-.29,3.75-2.47,6.57-6.77,1.28,2.88-4.27,6.8,1.37,9,.25.21.33.43.24.64s-.17.31-.26.31l-1.28.23L122.24,109Z"/><path class="cls-262" d="M114.19,100c-.71,2.49,1,4.12,2.13,5.94l-4.1-1.09C112.6,103.16,110.16,100.29,114.19,100Z"/><path class="cls-263" d="M106.2,112c.09-2.85,3.13-3.72,4-6a2,2,0,0,1,2,1Z"/><path class="cls-261" d="M128.2,106l2-9.85,8,0c1,1.88.58,3.86.27,5.77-.48,3-.69,3.06-3.17,1.25-.28-.2-.14.19-.14.25a3,3,0,0,1-1.94,2.64c-1,2.16-.49,6.21-5,4C128.21,108.71,128.22,107.37,128.2,106Z"/><path class="cls-264" d="M133.21,106.06c1.89-2.49.24-5.8,1.82-9,2,2.46.55,5,1.53,7.09,2-2.41,1.61-5.24,1.63-8l1,0a29.35,29.35,0,0,1-4,17.94l-1.95-.1C132.78,111.33,135.79,108.68,133.21,106.06Z"/><path class="cls-264" d="M128.2,106c1.41,1.33,1.41,2.66,0,4l-1-.06c0-.32,0-.63,0-.95C127.24,107.94,127,106.76,128.2,106Z"/><path class="cls-265" d="M49.21,91.05c-.46-6.31,2.76-11.53,5-17,6.09,2.2,11.13,6.35,16.92,9.11,0,1.63,0,3.27,0,4.91a2,2,0,0,0-1,2c0,.34,0,.67,0,1C63.18,92.35,56.2,93.61,49.21,91.05Z"/><path class="cls-223" d="M61.21,109c-3.62-.52-1.31-3.6-1.74-5.17-.94-3.43-3.07-5.52-5.25-7.82,5.32.49,10.77-1.11,16,1l1,1c.34,1.66.67,3.33,1,5,.33,2-1.4,2.28-2.6,3C66.71,106.77,64.73,110.08,61.21,109Z"/><path class="cls-189" d="M49.21,91.05l21,0c-3.51,3.82-8.34,2.08-12.48,2.55-6.43.74-13,.2-19.54.2.36-.91.72-1.8,1.07-2.69Z"/><path class="cls-266" d="M28.24,91.13l2,0c1,.76,2.24.36,3.37.48,1.55.15,2.69.56,1.59,2.44H27.23C26.1,92.55,27.56,92,28.24,91.13Z"/><path class="cls-189" d="M35.18,94c-.25-3.35-3.9-1-5-2.92l4-.07,2,.06C36.18,92.18,36.42,93.36,35.18,94Z"/><path class="cls-267" d="M124.2,152l2,4c-9.6,4.1-19.36,7.6-30,7.65-.66,0-1.31.88-2,1.35-.9-1.93-.49-3.92-.31-5.91,4.29-3,9.61-1.91,14.27-3.68,3.23-1.22,6.57-2.21,9.82-3.44C120,151.26,122.15,150.58,124.2,152Z"/><path class="cls-268" d="M94.23,159v8q.52.33.36.66c-.12.22-.24.34-.35.34,0,1.29,0,2.59,0,3.88-1.75-1.42-1-3.39-1-5.11-.06-13.89,0-27.78-.06-41.66,0-1.75.6-3.7-1-5.17-.35-1.31-.7-2.63-1.06-3.94,1-2,2-3.89,4.11-1,1.11,3.76,0,7.59.37,11.37q0,8.69,0,17.36c0,3.65,0,7.29,0,10.94A5.92,5.92,0,0,1,94.23,159Z"/><path class="cls-267" d="M94.24,168c0-.34,0-.67,0-1,4-1,8,.55,12-1C102.49,169,98.26,167.73,94.24,168Z"/><path class="cls-258" d="M103.18,115.06l8,15c1,1.76.69,3.47-1.12,4.19-4.72,1.86-9.4,4.49-14.77,2.24-.83-1.33-1-2.6.33-3.74,2.28.09,4.35-1.44,6.53-1-2.14-.72-4.2,1.38-6.49.67-1.93-1.88-.56-4.25-1-6.36v-2.49C94.73,116.11,95.4,115.44,103.18,115.06Z"/><path class="cls-269" d="M95.22,136c4.75.72,9-1.35,13.48-2.35a3.05,3.05,0,0,0,2.52-3.66,20.13,20.13,0,0,1,5,9c1,1.45.32,2.64-.87,3.35-5.48,3.3-11.62,4.42-17.85,5.1a1.94,1.94,0,0,1-2.14-2.2C95.49,142.2,93.86,139.13,95.22,136Z"/><path class="cls-193" d="M94.23,159v-4c1-1.21.08-2.8.77-4.08,9,.4,16.66-4.51,25.2-5.9,2,1.94,2.62,4.69,4,7-5.63-.13-10.16,3.45-15.47,4.67A85.38,85.38,0,0,1,94.23,159Z"/><path class="cls-270" d="M120.2,145.05c-.13,1.12-.67,2-1.86,1.92-4.58-.36-8,2.95-12.2,3.73-3.61.68-7.21,2.53-10.92.34-1.29-2.2.3-4.8-1-7q0-9,0-18c.32-.46.64-.44,1,0,.33,2-.81,4.25,1,6q.5.33.33.66t-.33.33c-1.17.72-1,1.9-1,3a10.06,10.06,0,0,0,0,2c.55,2.83,1.18,5.65,1.78,8.48,3.15-2.46,7.45.09,10.49-2.33,1.58-1.25,3.43-1,5.09-1.74s3.58-1,3.61-3.39C118.65,140.31,118.37,143.38,120.2,145.05Z"/><path class="cls-271" d="M116.2,129.05a20.07,20.07,0,0,0,5,9c0,.67,0,1.34,0,2-5.73-4.74-8-11.59-10.94-18C113.52,123.31,113.28,127.51,116.2,129.05Z"/><path class="cls-269" d="M95.21,126h-1c0-3.69-.33-7.4,1-11,2.05,0,4.12.13,6-1a2,2,0,0,1,2,1C95.22,117.19,95.22,117.19,95.21,126Z"/><path class="cls-272" d="M95.29,51.14c-.05-1.74-.1-3.48-.16-5.22l.12-9.86c7.21-.31,14.21-.05,20.81,3.73,2.67,1.53,2.84,3,2.27,5.39V45.1c-1.66,1.59-2.1,3.84-3.13,5.77a1.41,1.41,0,0,1-.83.46c-.21-1.57-.78-2.88-2.53-3.23-1.21-.24-2.61-.86-2.75-1.86-.94-6.72-6.92-4.2-10.57-5.84-1.64-.74-2.27.69-2.28,2.23,0,2.8,0,5.6,0,8.4h0C95.94,51.49,95.64,51.5,95.29,51.14Z"/><path class="cls-273" d="M129.2,69a4.11,4.11,0,0,1-.24-1.47c1.45-6.65-4.73-8.34-7.79-12.06-1.73-2.12-2.88.52-4.34.43A11.59,11.59,0,0,1,120,51c3-1.34,5.53.58,7,2.32,3.11,3.58,9.06,5.4,8.18,11.77C133.15,66.31,131.6,68.31,129.2,69Z"/><path class="cls-274" d="M135.2,65.05A26.24,26.24,0,0,0,120,51c.46-1,.92-1.92,1.39-2.88,7.77,1.11,12.29,6.88,16.82,12.29C140.76,63.43,137.85,64.51,135.2,65.05Z"/><path class="cls-275" d="M116.35,57.09c4.45,4,8.27,8.27,6.85,15a16.47,16.47,0,0,0-9-9c-.36-2.08,1.24-3.42,2-5.09A3.21,3.21,0,0,1,116.35,57.09Z"/><path class="cls-275" d="M113.1,62.92c-.5,2.51-.85,5.12-3.79,6.13C110.21,66.78,111.1,64.5,113.1,62.92Z"/><path class="cls-235" d="M115.19,50.87c.13-2.42.69-4.6,3.13-5.77A12.25,12.25,0,0,1,115.19,50.87Z"/><path class="cls-208" d="M116.17,58c0,2-1.29,3.4-2,5.09L113,62.92C113.56,60.94,114.19,59,116.17,58Z"/><path class="cls-213" d="M131.24,31.12a6.85,6.85,0,0,1-1,3.92l-1.1,0A5.89,5.89,0,0,1,131.24,31.12Z"/><path class="cls-275" d="M123.2,72.05c-.71,1.17-1.89,1-3,1-1.6-1.08-3.33-2-3.7-4.68C119.56,68.46,120.39,72.23,123.2,72.05Z"/><path class="cls-276" d="M150.19,91h-6l1-1c3.23-1.31,3.67-3,1.62-6.07s-.67-7.65-3.6-10.8c-1-1.07-1.65-2.43-3-3.14A34.27,34.27,0,0,1,144,67.79c1.17-.51,2.72-.07,2.7,1.2C146.55,76.55,151,83.35,150.19,91Z"/><path class="cls-277" d="M114.2,97c-.12-.83-.27-1.88-1.37-.87-.83.76-1.23,2-2.65,1.94l-.54-.56a9.37,9.37,0,0,1-.31-6.16,2.46,2.46,0,0,1,1-1.23c4,3.55,8.91,2.84,13.69,3,2.45.06,5.37-1.16,7.14,1.8-3.91,0-7.83.23-11.73.1A6.19,6.19,0,0,0,114.2,97Z"/><path class="cls-239" d="M101.29,91.81V90c1.47-1.14,4.07-1.42,3.24-4.29.81-1.62-2.8-2.28-.91-4.14a2.4,2.4,0,0,1,2.56.52,19.84,19.84,0,0,1,4,6.9C107.14,94.11,105.8,94.53,101.29,91.81Z"/><path class="cls-278" d="M101.29,91.81c3.71,1.44,6.43-.27,8.87-2.83l.12,1.14c0,.31-.06.62-.09.93-1.66,2.27.57,5.12-1.08,7.4A2.56,2.56,0,0,1,105.9,98c-.78-1-1-2.47-2.48-2.84-1.2-.65-2.6-1.14-2.23-3Z"/><path class="cls-279" d="M158.2,92.07c-4.74,2.1-9.73.55-14.59.94-2.79.23-5.62,0-8.43.06-1.08,0-2.22.09-3-.9Z"/><path class="cls-227" d="M106.19,82.08l-3,0c-2.23.3-3.13-.82-3.09-2.93l.06-1h2C103.8,79.13,105.69,79.9,106.19,82.08Z"/><path class="cls-280" d="M96.19,31l-1,0,.06-4c4.69-.51,9.32-.6,13.82,1.21,1,.4,2.16.92,3.13-.2,4-.58,6.91,2.08,10.24,3.38,3,1.15,1.07,3.12-.27,4.62-5.1-.94-9.62-4.05-15-4-1.29,1.19-2.66.46-4,.18-2-1.3-4.21-.87-6.35-1.11Z"/><path class="cls-281" d="M110.2,22.08c.83,1,2.13,1.94-.7,2.06-4.51.2-8.81-1.72-13.32-1-1.59-3.19.45-2.69,2.41-2.43C102.45,21.18,106.33,21.61,110.2,22.08Z"/><path class="cls-282" d="M112.21,28.06c.11.57.42,1.78,0,1.61-5.45-2.25-11.47-.68-16.94-2.62,0-.63,0-1.26,0-1.88l1.9-.1c1.84,1.28,4.15-.25,6,1h0c1.82,1.32,4.15-.28,6,1C109.93,28.24,111.11,28,112.21,28.06Z"/><path class="cls-280" d="M109.19,27.09c-2-.35-4.24.77-6-1C105.2,26.39,107.46,25.23,109.19,27.09Z"/><path class="cls-280" d="M103.21,26.06c-2-.3-4.24.79-6-1C99.21,25.37,101.45,24.26,103.21,26.06Z"/><path class="cls-283" d="M103.2,31.07c1,1.45,2.62.85,4,1-2.27,2-8.8,1.36-11-1h0A11.14,11.14,0,0,1,103.2,31.07Z"/><path class="cls-284" d="M70.18,53.07l1,0,3,3c.67,1.67,1.33,3.33,2,5l-1,1-2.91-3Z"/><path class="cls-285" d="M85.29,90.11c2.47-1.28,3.45-4.33,7.31-4.23,4.68.11,7.14,1.5,7.7,6.09l-.59.38c-1.88.25-3.56-.75-5.37-.88a5.92,5.92,0,0,0-6.25,5.71,1.49,1.49,0,0,0,1,1.47c2.41,1.13,7.84-.24,9.76-2.52a1.38,1.38,0,0,1,1.49-.2l.51.67.3.8a4,4,0,0,1-1.21,4.06c-2.75,2.26-14.86.83-17.49-2-.91-2.53.26-4.68,1.3-6.85a6.14,6.14,0,0,1,.93-2Z"/><path class="cls-286" d="M78.18,86c1.07-2.09,1.92-4.46,5-4,1.45,2.49,2.48,5.08,2.08,8v0a1.52,1.52,0,0,1-1.87.12c-.89-1.39-1.5-3.09-3.56-3.17A2.73,2.73,0,0,1,78.18,86Z"/><path class="cls-239" d="M101.17,89.07c-1.08-2.63-2-5.15-5.21-6.29-2.09-.76-2.46-2.84-.8-4.76l.1.08c1.68,3.09,6,3.08,7.49,6.41C104.11,86.68,103.16,88.05,101.17,89.07Z"/><path class="cls-287" d="M101.17,89.07c-.28-1.48,2.39-2.24,1-4,1-1.8,2-1.58,3.09,0,2.72,4.87,0,5.4-3.94,4.92C101.24,89.68,101.2,89.38,101.17,89.07Z"/><path class="cls-285" d="M101.19,92.16a3.1,3.1,0,0,0,2.9,2c.36,2.1-1.27,2.16-2.59,2.53a2.2,2.2,0,0,1-1.26-.56l0,0c-.57-1.29-1-2.59-.09-3.91l.19-.16C100.6,92,100.9,92.09,101.19,92.16Z"/><path class="cls-225" d="M95.29,51.14a6.7,6.7,0,0,1,.9-.11l0,5V70C94.05,63.82,95.8,57.43,95.29,51.14Z"/><path class="cls-288" d="M83.33,90.13h2c0,.62-.11,1.25-.16,1.88a27.71,27.71,0,0,0-4.18,6.17c-.66,2.51,2.73,2.64,2.78,4.71a2.2,2.2,0,0,1-.37,1.27c-2.89,1.1-4.42-2.67-7.19-2-.32,0-.64-.08-1-.1.4-4,1.36-8,0-12l1.09,0A1.75,1.75,0,0,1,78,90l1.13.46c1.24.46,2.37-.13,3.53-.38Z"/><path class="cls-288" d="M69.22,105.06l3-2,3-1-1,2c-.09,2.66-2,2.53-3.83,2.46C69.52,106.44,69,106.05,69.22,105.06Z"/><path class="cls-289" d="M67.21,76.06a10.32,10.32,0,0,1-.91-1.74c-.56-1.88-4.07-.63-3.52-2.56s2.44-3.81,4-5.41a53.23,53.23,0,0,1,5.37-4.27c1.94,3.2,3.85,6.43,5.84,9.61,1.12,1.79,1.12,3.28-.62,4.7-1.13.93-2.24,2-2.21,3.65-3.22.48-4.92-3-8-3Z"/><path class="cls-290" d="M78.33,90.74,76.27,90c0-1.63.06-3.24,1.91-4l2,.06C80.44,88,79.32,89.33,78.33,90.74Z"/><path class="cls-291" d="M105.24,85.07a2.71,2.71,0,0,0-3.09,0c-1.76-1-2.57-3.25-5.17-3.37-1.7-.08-1.8-2.06-1.72-3.61l4.85,1a7.46,7.46,0,0,0,3.09,2.93C103.39,83.4,106.33,82.87,105.24,85.07Z"/><path class="cls-292" d="M58.22,116.05a78.06,78.06,0,0,1,13-8c1-1.63,2.28-2.3,4-1h0c.27.74.32,1.8.85,2.17,3.64,2.56,2.92,5.57,1.14,8.77s-2.84,6.8-6,9.1l-2,2.07c-1.41-4.13-6.06-5.2-8.2-8.69C60.16,119,58.22,118.16,58.22,116.05Z"/><path class="cls-293" d="M71.24,127.09c1.57-3.3,3.06-6.66,6-9.1,0,4.42-2.88,7.57-4.92,11.08C72.18,128.28,72.07,127.5,71.24,127.09Z"/><path class="cls-294" d="M82.18,112c1.81-.45,1.36,1.37,2.06,2-3.11.26-2.48,4.24-5,5.06C78.86,116.19,80.89,114.27,82.18,112Z"/><path class="cls-295" d="M69.22,105.06l1,1.06c.31.23.4.44.28.63s-.24.28-.35.28c-3.74,1.51-6.93,4.22-11,5-.11-1.52,1.42-1.92,2-3Z"/><path class="cls-296" d="M70.2,107a9.06,9.06,0,0,1,.07-.91,6.83,6.83,0,0,0,4-2.05c2.65.24.57,2,1,3a6.68,6.68,0,0,0-4,1Z"/><path class="cls-297" d="M106.21,97.08c.74,1.16,1.92.92,3,1,.34-.46.66-.47,1,0h0a2.82,2.82,0,0,1-2,2.92,1.57,1.57,0,0,0-2.34,1c-.56,1.39.48,1.67,1.38,2.05-2.29,4.64-4.56,5.54-10,3.93-.48-1,.17-1.66.82-2.29a9.58,9.58,0,0,0,3-2.41c1.12-1.29,1-3,1.47-4.5C103.07,96.73,104,95.53,106.21,97.08Z"/><path class="cls-298" d="M98.21,106.06l-1,1.91a21.3,21.3,0,0,1-9,1.06c-2.27-1-4.83-1.81-5-5,0-.33,0-.67,0-1,4.88-2.54,10.14-1.12,15.22-1.47a1.06,1.06,0,0,1,1,1A2.29,2.29,0,0,1,97.8,104c-2.36.64-4.88-.23-7.71.87,2.69,1.75,5.34-.42,7.62.67Z"/><path class="cls-299" d="M83.22,104.05l5,5c-6.32,1.75-8.65-3.5-12-6.87.24-1.84,1-2.29,2.58-1.09C80.17,102.15,81.72,103.06,83.22,104.05Z"/><path class="cls-300" d="M107.19,104c-1,0-1.81,2.3-2.74.76-.85-1.39-.27-3.3.81-4.64,1.41-1.75,2.17-.32,2.89.83C107,101.76,107.26,102.94,107.19,104Z"/><path class="cls-267" d="M94.25,144c1.84,2.12.59,4.67,1,7-.15,1.37.45,2.94-1,4C94.24,151.37,94.24,147.7,94.25,144Z"/><path class="cls-269" d="M96.21,133v-1c1.94-.11,3.67-1.7,5.82-.69C100.44,133.12,98.32,133,96.21,133Z"/><path class="cls-205" d="M110.18,98.08l-1,0c.9-2.25-2-5,1-7C110.19,93.39,110.18,95.73,110.18,98.08Z"/><path class="cls-301" d="M99.16,103.1c0-.33,0-.65,0-1,2.66-1.33.82-4.23,2.09-6.05l2.85-2c2.16,0,2.14,1.46,2.12,3-2.9-.61-2.52,1.78-2.91,3.3s.31,3.47-2.14,3.71C100,104.75,99.23,104.63,99.16,103.1Z"/><path class="cls-216" d="M103.2,31.07l-7,0A5.79,5.79,0,0,1,103.2,31.07Z"/><path class="cls-302" d="M100.11,92.13c.23,1.3,1,2.58.09,3.91h-1c-2.28-1.88-3.69,1.31-6.49.36,3.13,2.89,4.44-.9,6.49-.36.36,2.91-.73,4.4-3.84,4-.81-.1-1.66.08-2.47,0-2.34-.36-5.84,1.31-6.71-1.27C85.61,97,87.56,94.11,88.85,92c1.53-2.48,4.21-2.3,6.68-1.68A35.53,35.53,0,0,1,100.11,92.13Z"/><path class="cls-303" d="M101.24,96.07c-.62,2.05,1.52,5-2.09,6.05a63.4,63.4,0,0,0-15.92.93,44.24,44.24,0,0,1-4-3.59c-.9-1,.09-1.31.94-1.48a2.36,2.36,0,0,1,3,0c.19,2.3,1.62,3,3.72,3a67.71,67.71,0,0,1,8.43.06c4,.46,5.43-1.24,4.9-5C100.57,96.06,100.9,96.06,101.24,96.07Z"/><path class="cls-304" d="M83.19,98l-3,0c1-2.54,1.94-5.12,5-6C85.3,94.27,82.56,95.61,83.19,98Z"/><path class="cls-305" d="M78.33,90.74c-.53-2,.39-3.46,1.9-4.65,3-.18,4.53.8,3.1,4l-.11-.07a5.45,5.45,0,0,1-4.76.76Z"/><path class="cls-290" d="M78.46,90.82a9.27,9.27,0,0,1,4.76-.76C81.9,92,80.47,93.21,78.46,90.82Z"/><path class="cls-306" d="M99.16,103.1l2,1c-.06,2-1.53,2-3,2v0c-1-.75-3.83-.94-.93-2.93Z"/><path class="cls-307" d="M97.27,103.09c-1.22,1.46.35,2,.93,2.93-2.61,0-5,1.44-7.7,1-1.52-.22-2.58-.84-2.59-2.34s1.37-1.63,2.51-1.65C92.7,103,95,103.08,97.27,103.09Z"/><path class="cls-308" d="M99.22,96.05c-1.16,2.21-2.73,3.62-5.45,3-1.06-.24-2.67.52-3-1s1.06-2.56,2.31-2.74a8.37,8.37,0,0,0,4-1.7c2-1.41,2,1,2.15,2.41Z"/><path class="cls-309" d="M171.41,113.08l-2,2c-.45.33-1,.66,0,1l.09,0c1.43,2.2.31,3.85-1.18,5.42-2.77.83-3.73-.73-4.09-3.1A51.05,51.05,0,0,1,168.07,103c2.55-1.63,3.54,0,4.34,2.06v2C169.73,108.68,173.36,111.35,171.41,113.08Z"/><path class="cls-78" d="M172.41,105.07c-1.13-1-2-2.43-3.92-2-2.08-2.6-.49-5.47-.62-8.21.57-1.1,1.3-1.67,2.49-.77l1.07.94C173.16,98.26,172.77,101.67,172.41,105.07Z"/><path class="cls-310" d="M165.26,117.92c0,2,.68,3.49,3.12,3.14.58-.54.91-1.58,2-1a2.1,2.1,0,0,1-1,2,6.88,6.88,0,0,1-1.3,1.23,3.69,3.69,0,0,0-1.42,3.08c-.1,1.31.5,2.65-.24,3.92a3.12,3.12,0,0,1-1.4.38,5.39,5.39,0,0,1-4.25-2.86C160.69,123.82,161.78,120.33,165.26,117.92Z"/><path class="cls-108" d="M165.8,118c-1.3,3.36-3.37,6.42-3.94,10.07a3,3,0,0,1-1.08,1.18c-1.34.58-2.63.93-3.48-.75-.53-1.94.45-3.55,1.17-5.19a60.32,60.32,0,0,0,5.09-24c0-1.82,0-3.66,1.37-5.13,1.66-1,2.64.61,3.94,1,2.13,2.63-.65,5.36.16,8Q167.41,110.55,165.8,118Z"/><path class="cls-311" d="M157.41,94.08l1,0a3.8,3.8,0,0,1,2.16,4.1c-1.07,9.69-2.54,19.28-7.67,27.86-1.8.79-3.26-1.23-5.92-2.63-1.1-1.77-2.14-3.25-1.07-5.13,4.1-7.2,4.44-15.37,6.16-23.18,1.3-1.34,3-1.25,4.63-1.17Z"/><path class="cls-172" d="M152.4,126.09c2.78-8.27,5.68-16.48,6.67-25.24.26-2.36.57-4.58-.65-6.73,2-.88,4,0,6,0,.52,11.58-1.24,22.68-6.79,33a5.47,5.47,0,0,0-.19,2C155.47,128.41,153.34,128.39,152.4,126.09Z"/><path class="cls-249" d="M147.4,123.1a35,35,0,0,1-10-6c-.4-.54-.91-1.16-.74-1.78,1.86-6.92,2.8-14.12,6.06-20.64,3.24.1,6.5-.63,9.7.41.32,3.62,2.46,7.42-1.76,10.5-.94.7-1.37,3.46-.78,4.64,1.62,3.26.54,5.13-2,7C145.66,118.9,146.35,121.07,147.4,123.1Z"/><path class="cls-312" d="M152.42,95.09h-10c-2.16,1.83-4.75,1.46-7.27,1.44-5.49.24-11,.12-16.47.08-1.82,0-3.68,0-5.2-1.32-.34-1,.14-1.63,1.14-1.61,4.27.09,8.56-.59,12.8.41h30C156,95.75,154.09,94.83,152.42,95.09Z"/><path class="cls-313" d="M113.41,105c-4-2.24-2-5.8-1.94-8.91.52-.58.83-1.56,1.93-1l22,0c.72,2.89,2.45,6-2.36,7.21-1.31.32-1.06,1.87-1.42,2.9-.9,2.61-1.35,5.47-4.21,6.86l-1-1c-1.38-1.25-1-2.85-.76-4.4a3.65,3.65,0,0,1-3,3,11,11,0,0,1-3.57-.51C117.4,107.73,114.88,107.05,113.41,105Z"/><path class="cls-269" d="M127.43,112.05a34.81,34.81,0,0,0,4-10.66c.18-.86.33-2.6,1.55-1.48,2.14,2,2.57,1.65,1.88-1-.39-1.47.73-2.53.6-3.86h7c0,5.87-1.89,11.31-3.78,16.76a50.94,50.94,0,0,0-1.24,5.26C133.59,116.37,131,113.3,127.43,112.05Z"/><path class="cls-269" d="M124.42,111.06l-2-2,4-3.39v5.39Z"/><path class="cls-314" d="M106.2,112l-1,3.06c-1.37-.25-1.59-4.95-4-1-1.06,2.37-3.14,2.15-5.17,2a6,6,0,0,0-4.9-.06l-6.89-2c-.91-.45-1.29-1.43-2.06-2-3.31-.27-4.26-3.86-7-5l-.39-.5c-.61-.72,1.71-2.39-.82-2.49-.3-1.11.62-1.48,1.24-2l0,0a1.25,1.25,0,0,1,1.23-.33,14.08,14.08,0,0,1,4.07,3.49c2.32,2.48,5,3.57,8.36,2.64a39.55,39.55,0,0,0,7.76-.83c3.62.34,7.51,1.47,9.27-3.34a6.54,6.54,0,0,1,1.38-3.12,32.44,32.44,0,0,0,2.81-3,7.42,7.42,0,0,1,2.5-2.21c1.59-.59,2.6-.33,1.62,1.69l.24,1.22a1.92,1.92,0,0,1,.1,2c-1.57,1.18-1.15,3.33-2.32,4.71l-2.19-.52.21,1.66C110.27,109,107.1,109.73,106.2,112Z"/></g></g></svg>