<svg xmlns="http://www.w3.org/2000/svg" viewBox="0 0 185.23 187.02"><defs><style>.cls-1{fill:#fefefe;}.cls-2{fill:#fdfdfd;}.cls-3{fill:#efe0c9;}.cls-4{fill:#5e4628;}.cls-5{fill:#594325;}.cls-6{fill:#5a4325;}.cls-7{fill:#634c28;}.cls-8{fill:#6e5632;}.cls-9{fill:#59452b;}.cls-10{fill:#684616;}.cls-11{fill:#554026;}.cls-12{fill:#614827;}.cls-13{fill:#362d24;}.cls-14{fill:#312922;}.cls-15{fill:#584124;}.cls-16{fill:#5c4528;}.cls-17{fill:#543e24;}.cls-18{fill:#654c2a;}.cls-19{fill:#382e25;}.cls-20{fill:#372b1e;}.cls-21{fill:#dac898;}.cls-22{fill:#dfcf9c;}.cls-23{fill:#cdbb8a;}.cls-24{fill:#9b7848;}.cls-25{fill:#cdb784;}.cls-26{fill:#e2d4a5;}.cls-27{fill:#d2b884;}.cls-28{fill:#cfbe88;}.cls-29{fill:#c9ac78;}.cls-30{fill:#cebf90;}.cls-31{fill:#906c3f;}.cls-32{fill:#e7daa9;}.cls-33{fill:#9a7544;}.cls-34{fill:#88653a;}.cls-35{fill:#785c33;}.cls-36{fill:#7b5934;}.cls-37{fill:#ccbb85;}.cls-38{fill:#aa8b57;}.cls-39{fill:#84633b;}.cls-40{fill:#302822;}.cls-41{fill:#ccb786;}.cls-42{fill:#a17d49;}.cls-43{fill:#6f512f;}.cls-44{fill:#c7aa74;}.cls-45{fill:#826338;}.cls-46{fill:#89673c;}.cls-47{fill:#a27c46;}.cls-48{fill:#997441;}.cls-49{fill:#746330;}.cls-50{fill:#827039;}.cls-51{fill:#d4bd88;}.cls-52{fill:#ac8c53;}.cls-53{fill:#40301d;}.cls-54{fill:#89653a;}.cls-55{fill:#846936;}.cls-56{fill:#987444;}.cls-57{fill:#dbcb9e;}.cls-58{fill:#735330;}.cls-59{fill:#a1804c;}.cls-60{fill:#987544;}.cls-61{fill:#957344;}.cls-62{fill:#b59760;}.cls-63{fill:#856639;}.cls-64{fill:#bda26e;}.cls-65{fill:#937143;}.cls-66{fill:#ad8d58;}.cls-67{fill:#bdac78;}.cls-68{fill:#75582f;}.cls-69{fill:#413519;}.cls-70{fill:#c5b47e;}.cls-71{fill:#8a7d42;}.cls-72{fill:#ae8b54;}.cls-73{fill:#bda069;}.cls-74{fill:#9d7a48;}.cls-75{fill:#44371c;}.cls-76{fill:#715936;}.cls-77{fill:#937243;}.cls-78{fill:#cbab75;}.cls-79{fill:#a58450;}.cls-80{fill:#927441;}.cls-81{fill:#594b26;}.cls-82{fill:#d1b784;}.cls-83{fill:#cbbb86;}.cls-84{fill:#5d482b;}.cls-85{fill:#8c6b3f;}.cls-86{fill:#ae8950;}.cls-87{fill:#524527;}.cls-88{fill:#5f4a2d;}.cls-89{fill:#d9c695;}.cls-90{fill:#86643a;}.cls-91{fill:#816837;}.cls-92{fill:#352f28;}.cls-93{fill:#624e33;}.cls-94{fill:#473724;}.cls-95{fill:#805e37;}.cls-96{fill:#bfae77;}.cls-97{fill:#4b3b20;}.cls-98{fill:#c4ad78;}.cls-99{fill:#68572c;}.cls-100{fill:#383129;}.cls-101{fill:#967543;}.cls-102{fill:#9c7745;}.cls-103{fill:#baaa75;}.cls-104{fill:#332814;}.cls-105{fill:#6d5536;}.cls-106{fill:#9d8451;}.cls-107{fill:#c9b582;}.cls-108{fill:#312514;}.cls-109{fill:#5c4f3b;}.cls-110{fill:#473e32;}.cls-111{fill:#8d6d41;}.cls-112{fill:#937141;}.cls-113{fill:#443d35;}.cls-114{fill:#c6ad75;}.cls-115{fill:#373129;}.cls-116{fill:#aea16a;}.cls-117{fill:#755d38;}.cls-118{fill:#b89258;}.cls-119{fill:#d3c08f;}.cls-120{fill:#72512f;}.cls-121{fill:#877742;}.cls-122{fill:#c5b684;}.cls-123{fill:#342e28;}.cls-124{fill:#987645;}.cls-125{fill:#d8c898;}.cls-126{fill:#c2a16b;}.cls-127{fill:#856137;}.cls-128{fill:#c2af79;}.cls-129{fill:#2e2413;}.cls-130{fill:#7f5f35;}.cls-131{fill:#46381f;}.cls-132{fill:#ddcd9f;}.cls-133{fill:#645228;}.cls-134{fill:#baa974;}.cls-135{fill:#87643a;}.cls-136{fill:#664a2b;}.cls-137{fill:#43372c;}.cls-138{fill:#57472a;}.cls-139{fill:#3f331a;}.cls-140{fill:#928547;}.cls-141{fill:#ab9d66;}.cls-142{fill:#504323;}.cls-143{fill:#916d3f;}.cls-144{fill:#6f5a2d;}.cls-145{fill:#4d4236;}.cls-146{fill:#826038;}.cls-147{fill:#c8b781;}.cls-148{fill:#dfd29d;}.cls-149{fill:#624f36;}.cls-150{fill:#bcad71;}.cls-151{fill:#cec192;}.cls-152{fill:#9c8c51;}.cls-153{fill:#685333;}.cls-154{fill:#a49462;}.cls-155{fill:#755938;}.cls-156{fill:#423f39;}.cls-157{fill:#4a3e2e;}.cls-158{fill:#8f8a7b;}.cls-159{fill:#61492b;}.cls-160{fill:#2c2825;}.cls-161{fill:#4f4c45;}.cls-162{fill:#494842;}.cls-163{fill:#484742;}.cls-164{fill:#39322c;}.cls-165{fill:#413f3a;}.cls-166{fill:#4a3a26;}.cls-167{fill:#6c5437;}.cls-168{fill:#cfb681;}.cls-169{fill:#3c3932;}.cls-170{fill:#3c3933;}.cls-171{fill:#3b3933;}.cls-172{fill:#413f39;}.cls-173{fill:#514128;}.cls-174{fill:#47453f;}.cls-175{fill:#42403a;}.cls-176{fill:#413523;}.cls-177{fill:#826842;}.cls-178{fill:#3e3c36;}.cls-179{fill:#44423c;}.cls-180{fill:#3f3c36;}.cls-181{fill:#866b43;}.cls-182{fill:#494741;}.cls-183{fill:#7f6640;}.cls-184{fill:#8a8475;}.cls-185{fill:#846e4b;}.cls-186{fill:#bcab72;}.cls-187{fill:#3e3c35;}.cls-188{fill:#c4b784;}.cls-189{fill:#484640;}.cls-190{fill:#43413b;}.cls-191{fill:#4d4b44;}.cls-192{fill:#4e3e29;}.cls-193{fill:#b5b1a3;}.cls-194{fill:#a8a496;}.cls-195{fill:#c2bdac;}.cls-196{fill:#9c9888;}.cls-197{fill:#9b978c;}.cls-198{fill:#453726;}.cls-199{fill:#58472f;}.cls-200{fill:#ccc6b4;}.cls-201{fill:#6c5230;}.cls-202{fill:#bfa46c;}.cls-203{fill:#5c472a;}.cls-204{fill:#6d5738;}.cls-205{fill:#574939;}.cls-206{fill:#918d7e;}.cls-207{fill:#908c80;}.cls-208{fill:#665238;}.cls-209{fill:#5f4c33;}.cls-210{fill:#989489;}.cls-211{fill:#979383;}.cls-212{fill:#816b41;}.cls-213{fill:#504d47;}.cls-214{fill:#5e5b52;}.cls-215{fill:#56544c;}.cls-216{fill:#dad4c1;}.cls-217{fill:#494742;}.cls-218{fill:#997544;}.cls-219{fill:#e8e2cd;}.cls-220{fill:#e2dbc6;}.cls-221{fill:#484642;}.cls-222{fill:#755733;}.cls-223{fill:#453725;}.cls-224{fill:#5f4d35;}.cls-225{fill:#c0b9a7;}.cls-226{fill:#8c7046;}.cls-227{fill:#ad8e53;}.cls-228{fill:#6a4f2e;}.cls-229{fill:#b19256;}.cls-230{fill:#c6c1af;}.cls-231{fill:#9f9b8c;}.cls-232{fill:#bab5a5;}.cls-233{fill:#aeaa9a;}.cls-234{fill:#aeaba2;}.cls-235{fill:#bab7ad;}.cls-236{fill:#54514a;}.cls-237{fill:#483a27;}.cls-238{fill:#55524b;}.cls-239{fill:#4b4943;}.cls-240{fill:#494743;}.cls-241{fill:#5a574f;}.cls-242{fill:#302c28;}.cls-243{fill:#6a5337;}.cls-244{fill:#55524a;}.cls-245{fill:#59472e;}.cls-246{fill:#4b4942;}.cls-247{fill:#535149;}.cls-248{fill:#a28853;}.cls-249{fill:#564c3c;}.cls-250{fill:#544a39;}.cls-251{fill:#504d45;}.cls-252{fill:#58564d;}.cls-253{fill:#4f3f29;}.cls-254{fill:#a39780;}.cls-255{fill:#907443;}.cls-256{fill:#a09c8e;}.cls-257{fill:#ada999;}.cls-258{fill:#b09e7e;}.cls-259{fill:#525048;}.cls-260{fill:#6e573a;}.cls-261{fill:#59564e;}.cls-262{fill:#775834;}.cls-263{fill:#525049;}.cls-264{fill:#4e4b44;}.cls-265{fill:#44413b;}.cls-266{fill:#e1dbc6;}.cls-267{fill:#d9d3c0;}.cls-268{fill:#775c3a;}.cls-269{fill:#594a35;}.cls-270{fill:#d3cebb;}.cls-271{fill:#473824;}.cls-272{fill:#866a42;}.cls-273{fill:#5d5b52;}.cls-274{fill:#866b3e;}.cls-275{fill:#a7a394;}.cls-276{fill:#b4b09f;}.cls-277{fill:#e5dec7;}.cls-278{fill:#bfbaa8;}.cls-279{fill:#bbb6a4;}.cls-280{fill:#785b37;}.cls-281{fill:#e6dfc8;}.cls-282{fill:#d0cab6;}.cls-283{fill:#d9d3be;}.cls-284{fill:#d8d2bd;}.cls-285{fill:#e0d9c4;}.cls-286{fill:#cac4b0;}.cls-287{fill:#d0cab8;}.cls-288{fill:#c8c3b1;}.cls-289{fill:#e0d9c3;}.cls-290{fill:#725b3c;}.cls-291{fill:#4a3922;}.cls-292{fill:#c9b273;}.cls-293{fill:#c4ad75;}.cls-294{fill:#5f5c53;}.cls-295{fill:#d3c59b;}.cls-296{fill:#cab066;}.cls-297{fill:#c4c1b7;}.cls-298{fill:#5b5850;}.cls-299{fill:#5a574e;}.cls-300{fill:#856c44;}.cls-301{fill:#493925;}.cls-302{fill:#796241;}.cls-303{fill:#604c31;}.cls-304{fill:#5c462b;}.cls-305{fill:#9e8150;}.cls-306{fill:#c1bdac;}.cls-307{fill:#957142;}.cls-308{fill:#8a7353;}.cls-309{fill:#9a7947;}.cls-310{fill:#a8854d;}.cls-311{fill:#87633a;}.cls-312{fill:#342716;}.cls-313{fill:#5d4628;}.cls-314{fill:#765935;}.cls-315{fill:#dcd5c1;}.cls-316{fill:#755632;}.cls-317{fill:#a78f65;}.cls-318{fill:#897d68;}.cls-319{fill:#271d10;}</style></defs><g id="Layer_2" data-name="Layer 2"><g id="Layer_5_Image" data-name="Layer 5 Image"><path class="cls-1" d="M104.18.07c26,0,52,0,78-.07,2.5,0,3.07.56,3.06,3.07-.1,27.66-.06,55.32-.06,83a1.42,1.42,0,0,1-1.46-.25c-2.75-2.66-1.12-6.48-2.51-9.5s-1.09-6.41-2.29-9.46Q165.77,25.56,125.6,9.34a48.91,48.91,0,0,0-6.55-2.41A71.18,71.18,0,0,0,112,5.45c-2.22-.18-4.48-.2-6.44-1.5a3.92,3.92,0,0,1-1-1.07C104,2,103.6,1.08,104.18.07Z"/><path class="cls-2" d="M104.18.07c.3.74.59,1.49.89,2.23-5.51,2.37-11.29.81-16.93,1.1-2.67.13-5.63.9-8-1.39.33-.65.66-1.3,1-1.94Z"/><path class="cls-2" d="M185.17,111.05l-1.85.12-.64-.53c-1.23-3.26-1.3-6.4,1-9.3a1.53,1.53,0,0,1,1.53-.29Z"/><path class="cls-3" d="M185.17,101.05l-.42,0-.41,0-.68-.57a24.63,24.63,0,0,1,0-13.8l.68-.57a2.31,2.31,0,0,1,.83,0Z"/><path class="cls-4" d="M8,58.06c1.73-6.44,5.78-11.65,9.2-17.19A6.61,6.61,0,0,1,20,37.06l1.44-1.91c1.15-2.1,2.48-4,4.74-5.09l.05-.07a22,22,0,0,1,8.26-7.81l5.74-4.32a7.52,7.52,0,0,1,4.15-2.71l1.85-1.24a6.51,6.51,0,0,1,3.12-1.56L53.2,10a8.74,8.74,0,0,1,5.09-1.86c1.05-1.21,2.55-1,3.9-1.26,2.6-2.88,6.28-1.95,9.48-2.68l1.59,0c1.49.92,3.19-.71,4.67.37a1.41,1.41,0,0,1,.56,1.22,2.46,2.46,0,0,1-.91,1.06c-3.35,1.87-7.47,1-10.77,3A12.25,12.25,0,0,1,64.23,11a14.82,14.82,0,0,0-5.8,1.87,26.78,26.78,0,0,1-8.68,3.91c-2.14.73-3.53,2.45-5.12,3.9-1.4,1.12-2.92,2.05-4.34,3.13-5.4,3.61-9.76,8.38-14.4,12.84-3.06,3.35-5,7.55-8,10.94-1.65,1.85-2.39,4.26-3.88,6.2-1.39,2.55-1.2,6-4.34,7.55-1.13-.13-1.5-1-1.89-1.89A2,2,0,0,1,8,58.06Z"/><path class="cls-5" d="M73.27,183.24l-1.18-.19c-2.06-1.52-5.27,1.33-6.9-1.81-1.29-.52-3-.05-3.86-1.55-1.16.31-2.25.39-3-.78l0,0c-1-.45-2.24.26-3.08-.75l-10.78-6.21a6.24,6.24,0,0,1-4.19-2.87l-.06,0c-2.24-.45-3.69-2-5-3.69-.62-.53-1.24-1.06-1.87-1.58-3.95-2-6.68-5.17-9-8.8l0,0c-1.28-.68-2.54-1.4-2.81-3L19,149c-1.12-.63-1.41-1.81-1.87-2.87-3.62-5.4-7-10.92-9.15-17.13-2.26-1.7-2.84-4-2.3-6.64a1.53,1.53,0,0,1,1.2-1.63,2.89,2.89,0,0,1,1.84,1.11c1.66,2.83,2.43,6.08,4.15,8.89,1.17,2.45,1.91,5.09,3.19,7.49a18.88,18.88,0,0,0,4.16,5.84c.14.17.27.35.42.52.26.35.5.72.73,1.1,1,1.69,2.61,2.94,3.65,4.62A23,23,0,0,0,29,154.7a62.06,62.06,0,0,0,11.44,9.71,41.3,41.3,0,0,0,5.54,4c6.14,4,12.9,6.66,19.72,9.19,1.87.38,3.68,1,5.51,1.52,1.67.8,3.86.33,5.13,2.1.08,1.72-1.29,1.63-2.38,1.9Z"/><path class="cls-6" d="M177.42,129c-2.15,6.17-6.31,11.24-9.27,17a5.19,5.19,0,0,1-3,4c-1.05.22-1,1.16-1.19,1.91a9.7,9.7,0,0,1-4.73,5.1l0,0c-1.05,1.5-1.67,3.51-4,3.49a1.82,1.82,0,0,1-1.46-1.36,4.5,4.5,0,0,1,1.66-3.71c.5-.46,1-.89,1.55-1.34,2.75-2.6,5.55-5.17,7.52-8.48a21.77,21.77,0,0,0,2.66-4.61c1.77-5,6.23-8.67,7.33-14.06.68-1.77,1.17-3.61,1.68-5.44,1.6-2.79,2-6.06,3.46-8.91.85-.84,1.36-2.56,3.06-1.2.16,1.87,1.18,3.84-.58,5.51-1.46,1.41-1.3,3.39-1.85,5.12C179.81,124.62,179.82,127.3,177.42,129Z"/><path class="cls-7" d="M154.16,159l1.16,1.07c.35,1.1-.54,1.43-1.19,1.9h0c-.38.95-.87,1.77-2.05,1.82l-6.89,5.4A7.43,7.43,0,0,1,141,172c-.74.08-1.58,0-1.92.91a5.61,5.61,0,0,1-3,1.89c-2.29.44-4.1,1.81-6,3.08-.8,1.16-1.84.81-2.87.44a1.37,1.37,0,0,0-.88-.18,1.87,1.87,0,0,1-2,.21c.19-3.92,3.89-3.4,6.06-4.8a14,14,0,0,0,2.37-1.15,13.31,13.31,0,0,1,2.86-1.4c.59-.24,1.17-.48,1.75-.75a15.07,15.07,0,0,0,4.25-2.71c1.56-1.48,3.43-2.56,5.05-4a22.38,22.38,0,0,1,2.09-1.53C150.62,161.19,151.47,158.41,154.16,159Z"/><path class="cls-8" d="M7.17,121.05l-1.1,1.24a.55.55,0,0,1-.83-.28l-2.17-6c-.95-1.55-.89-3.27-.83-5-.44-2,.75-4.26-1-6h0c-.06-1-.12-2-.19-3A1.55,1.55,0,0,1,1,100.66c.53-2-.36-4.52,2.05-5.88A1.9,1.9,0,0,1,4.42,95c1.4,1.84.71,4.12,1.32,6.13a12,12,0,0,1,.33,1.31c.54,2.17-.82,4.3-.14,6.47a11.2,11.2,0,0,1,.27,1.28,21.29,21.29,0,0,0,1.55,6.32,7.66,7.66,0,0,1,.35,1.33C8.22,119,8.23,120.19,7.17,121.05Z"/><path class="cls-9" d="M109.23,183.83c-1,1.45-2.75.45-4,1.08a58.15,58.15,0,0,1-25,0l-3.9-1a.9.9,0,0,1,.15-1.25,12,12,0,0,1,4.22-1.45,14.79,14.79,0,0,1,4.64.38c3.49.16,7,0,10.48.07,1.83,0,3.66.08,5.48,0a14.36,14.36,0,0,1,3.81-.3C106.58,181.91,108.74,181.48,109.23,183.83Z"/><path class="cls-10" d="M80.19,2l24.88.29a2.74,2.74,0,0,0,.18.79,4,4,0,0,1-.61,2.8,1.86,1.86,0,0,1-1.31.66,5.28,5.28,0,0,1-1.53-.26c-5.55-1.5-11.18-1-16.78-.53-1.48.12-2.92.54-4.42.18-1.26-1.27-3.68-.6-4.46-2.67C77.56,3.07,79.05,3.12,80.19,2Z"/><path class="cls-11" d="M7.91,59a2.23,2.23,0,0,1,1.32,2.19c-.22,5.74-2.56,11-3.58,16.59A19.53,19.53,0,0,0,4.87,82c-.55,2.17-.1,4.49-1,6.59a1.65,1.65,0,0,1-1.2.77c-1.16-.27-1.37-1.29-1.72-2.2A2.69,2.69,0,0,1,1,85.08a2,2,0,0,0,.2-1c.05-4.43,0-8.85,1.78-13.05l2.2-6C5.68,62.82,4.82,60,7.91,59Z"/><path class="cls-2" d="M80.16,184.9h25a4.57,4.57,0,0,1-3.8,2.05q-8.73.12-17.45,0A4.5,4.5,0,0,1,80.16,184.9Z"/><path class="cls-12" d="M124,177.88l2.35.21c-1.22,2.66-4.28,1.77-6.15,3.17-1.57,2.75-4.35.75-6.39,1.63h-1.67c-.89-.83-2.59.4-3.17-1.24,1.7-3.09,5.07-2.38,7.68-3.39.45-.2,1.07-.29,1.31-.66C120.15,174.07,122.1,174.86,124,177.88Z"/><path class="cls-2" d="M24.32,155l9,8.8c-.08.14-.17.4-.26.4C30,164.2,24.34,158.26,24.32,155Z"/><path class="cls-2" d="M3,71.07c-.27,4.4-.42,8.8-1.78,13.05C-.27,79.49-.35,75,3,71.07Z"/><path class="cls-2" d="M34.45,22.18,26.19,30C27.08,25.41,29.9,22.88,34.45,22.18Z"/><path class="cls-2" d="M1,85.08c.11.67.21,1.34.32,2,2.14,4.62.39,9.23,0,13.85-.09.36-.19.72-.29,1.08A35.18,35.18,0,0,1,1,85.08Z"/><path class="cls-2" d="M7.91,59c-2,1.53-1.06,4.39-2.71,6.09-1.63-3.34-.81-5.7,2.76-7A1.3,1.3,0,0,1,7.91,59Z"/><path class="cls-2" d="M159.19,157a20.15,20.15,0,0,1,4.73-5.1C164.08,154.71,162.18,156.77,159.19,157Z"/><path class="cls-2" d="M71.67,4.19,62.19,6.87C64.37,2.51,68.2,4,71.67,4.19Z"/><path class="cls-2" d="M154.13,162c.4-.63.8-1.26,1.19-1.9l3.83-3C159.21,160.47,157.55,162.13,154.13,162Z"/><path class="cls-2" d="M26.14,30.06a17.71,17.71,0,0,1-4.74,5.09C21.92,32.47,22.25,29.61,26.14,30.06Z"/><path class="cls-2" d="M177.42,129l2.73-7C181.07,125.11,181.41,127.93,177.42,129Z"/><path class="cls-2" d="M5.24,122a8.09,8.09,0,0,0,.83.28C5.76,124.82,7.44,126.77,8,129,3.89,128,4.33,125.08,5.24,122Z"/><path class="cls-2" d="M65.19,181.24c2.13,1.26,4.91,0,6.9,1.81C69.8,182.39,66.29,186.4,65.19,181.24Z"/><path class="cls-2" d="M35.19,165.33l5,3.69C37,169.83,35.57,168.27,35.19,165.33Z"/><path class="cls-2" d="M113.79,182.89c1.87-1.55,4.43-.42,6.39-1.63C119.13,186,116.06,182.92,113.79,182.89Z"/><path class="cls-2" d="M2.24,111a7.3,7.3,0,0,1,.83,5C1.06,114.65.36,113.05,2.24,111Z"/><path class="cls-2" d="M182,117l.41-5.74c.13-.43.37-.49.71-.2l.19.16C183.24,113.18,185.65,115.76,182,117Z"/><path class="cls-13" d="M76.14,3.27c1,1.47,3.14.13,4,1.73a1.26,1.26,0,0,1-1.88.13c-1.65-.49-3.58.59-5-.91Z"/><path class="cls-2" d="M58.29,8.13c-1.59.9-3.11,2-5.09,1.86C54.39,8,55.74,6.41,58.29,8.13Z"/><path class="cls-2" d="M44.34,15.15c-.9,1.64-2.57,2.11-4.15,2.71C40.75,15.7,41.48,13.8,44.34,15.15Z"/><path class="cls-2" d="M165.11,150l3-4C170,149.49,167.24,149.52,165.11,150Z"/><path class="cls-2" d="M141,172a6.94,6.94,0,0,1,4.17-2.73C144.62,171.41,143.88,173.3,141,172Z"/><path class="cls-2" d="M40.22,169.05c1.56.72,3.23,1.28,4.19,2.87C41.41,173.3,40.67,171.39,40.22,169.05Z"/><path class="cls-2" d="M20,37.06a8.85,8.85,0,0,1-2.8,3.81C15.35,37.59,18.18,37.71,20,37.06Z"/><path class="cls-14" d="M109.14,181.92c1,.18,2.24-.15,3,1l-2.89.94c-.93-1.49-3.08-.12-4-1.7A2.64,2.64,0,0,1,109.14,181.92Z"/><path class="cls-2" d="M58.31,178.91c1,.2,2.19-.15,3,.78C59.75,181.61,58.71,181.5,58.31,178.91Z"/><path class="cls-2" d="M152.07,163.82l2.05-1.82c.34.86,1,1.79-.14,2.52C153.12,165.06,152.49,164.64,152.07,163.82Z"/><path class="cls-2" d="M21.49,151.91c.94,1,1.88,2,2.81,3C22.48,154.74,20.7,154.52,21.49,151.91Z"/><path class="cls-2" d="M17.17,146.17c1.23.56,1.55,1.72,1.87,2.87C16.75,149.17,15.79,148.43,17.17,146.17Z"/><path class="cls-2" d="M49.31,12.35c-.86.87-1.74,1.71-3.12,1.56C46.58,12.09,47.43,11.18,49.31,12.35Z"/><path class="cls-2" d="M1.23,105v5.23c-1.24-2.71-1.39-4,0-5.22Z"/><path class="cls-2" d="M136.05,174.75l3-1.89C138.42,174,138.24,176,136.05,174.75Z"/><path class="cls-2" d="M55.19,178.13c1.14-.21,2.28-.43,3.08.75C57,179.46,55.61,180.85,55.19,178.13Z"/><path class="cls-2" d="M127.21,178.27l2.87-.44C129.59,181,128.43,179.83,127.21,178.27Z"/><path class="cls-2" d="M76,183.09a3.86,3.86,0,0,1,.24.82c-1.48,1.92-2.19.42-3-.67l-.09-.36C74.16,182.5,75.13,182.26,76,183.09Z"/><path class="cls-15" d="M119.35,6c12.71,3.31,23.76,9.74,33.52,18.35,12.9,11.37,22.4,25,27.14,41.76-.57.65,0,2-1.3,2.19-2.17-1.07-2.23-3.46-3.3-5.22a99.22,99.22,0,0,0-6.82-15.21c-1.28-2.06-2.58-4.11-4-6.08-1.13-1.55-2.65-2.76-3.79-4.3-.48-.69-.9-1.42-1.43-2.08a54,54,0,0,0-4.07-4.08C150.12,26.85,145,22.31,139,19a16,16,0,0,1-2.66-2.13c-2.87-1.49-5.81-2.8-8.78-4.06-2.48-.94-4.9-2-7.39-2.94-1.48-.55-3.33-.88-3.37-3.08C117.33,5.45,118.24,5.41,119.35,6Z"/><path class="cls-16" d="M183.12,111a3.4,3.4,0,0,1-.71.2c-.7.62-1.41,1.23-2.12,1.84-2-2.4-.2-4.87-.14-7.31.18-.95.48-1.87.67-2.82.49-2.39.22-4.06-2.82-4-.78,0-1.41-.73-1.89-1.41-.71-2.29,1.61-3,2.37-4.47a11.76,11.76,0,0,1,1-.92,6.48,6.48,0,0,0,1.18-1.56c.83-4.54-1.57-8.89-.76-13.42a2.94,2.94,0,0,1,2.53-1.42c1.74,3.24,0,7.14,2,10.32l-.39,0a78.2,78.2,0,0,0,0,15l.39,0C182.82,104.22,183.27,107.65,183.12,111Z"/><path class="cls-17" d="M182.38,75.76A2.24,2.24,0,0,1,180.23,77c-1.89-2.78-2.95-5.66-1.12-8.91l.9-2Z"/><path class="cls-18" d="M119.35,6c-.89.11-1.76.25-2.22,1.17a2.92,2.92,0,0,1-2,.86,6.61,6.61,0,0,1-1.47-.09c-1.8-.66-3.94-.35-5.44-1.88.25-2.76,2.89-.62,3.88-1.89C114.39,5.27,117.21,4.28,119.35,6Z"/><path class="cls-19" d="M112.11,4.16c-.93,1.56-3,.31-4,1.62-.1.21-.2.42-.31.63a3.4,3.4,0,0,1-1.3.51c-1,0-1.92,0-2.35-1.15.12-1,0-2.12,1.13-2.68C107.39,4.39,109.86,3.55,112.11,4.16Z"/><path class="cls-20" d="M184,101.05a29.19,29.19,0,0,1,0-15Z"/><path class="cls-21" d="M64.17,10.1,66,9c3.93-1.51,8.4-.79,12.18-3h0c2.34-1,5.07.29,7.33-1.2,1.62.33,3.46-.13,4.77,1.32a2.53,2.53,0,0,1-.22,2c-.67,1.16-.93,2.62-2.32,3.27a4.43,4.43,0,0,1-1.36.07c-3.16-.25-6.37-.81-9.06,1.61-2.68,1.65-5.84,1.11-8.69,2-2.34.46-5-.16-6.82,2.05a5.08,5.08,0,0,1-3.75,1c-3.57-1.3-3.21-3.13-.71-5.24A25.51,25.51,0,0,1,64.17,10.1Z"/><path class="cls-22" d="M17.26,47.15c2.64-3.69,4.32-8.07,7.87-11.12.43-.26.83-.55,1.27-.79,1.65-.92,2.82-4.14,4.6-2.87,2.09,1.5-.41,3.85-.88,5.83-1.1,4.49-4.13,8.28-4.69,13-2.78,1.33-4.19-1.87-6.53-2C18,48.77,17,48.47,17.26,47.15Z"/><path class="cls-23" d="M17.26,47.15l2.06,1c.37.88-.09,1.63-.4,2.4-.67,1.44-.17,2.85.12,4.28.16,2.72-1.06,5.06-2,7.5-1.59,2.78-2.52,5.93-4.61,8.44-2.67,1.59-4,.73-4.19-2.27A4.27,4.27,0,0,1,8.68,67c2.5-1.87,2.11-4.82,2.72-7.39,1.24-2,1-4.43,1.87-6.53C14.85,51.28,14.92,48.45,17.26,47.15Z"/><path class="cls-24" d="M9.25,67.06a2.56,2.56,0,0,0-.14.87A63.2,63.2,0,0,1,7.16,80.69c-1,3.26-.57,6.71-1.15,10a9.72,9.72,0,0,1,0,1.43A3.71,3.71,0,0,1,4.1,95.09l-.9,0a4.88,4.88,0,0,1-.93-5.88L3.15,89c1.43-2.16-.21-4.76,1-6.95-1.94-2.82.88-4.89,1.26-7.35.72-4.63,1.44-9.36,3.84-13.55,2.46-2.12,2.2-5.61,4-8a17.57,17.57,0,0,1-1.12,6.84C10.94,62.22,11.63,65.26,9.25,67.06Z"/><path class="cls-25" d="M86.17,5.14c-2.58,1.33-5.33,1-8.06.86.06-.29.13-.58.2-.87L80.19,5c5.55-.91,11.17-.83,16.77-.93,2.31,0,4.67-.14,6.37,1.9-.22.25-.38.68-.29.72.49.15.81-.23,1.17-.49l-.09-.43,3,.47c1.3,3-.26,4.33-2.93,4.89a10.29,10.29,0,0,1-4.9-.18c-2.53-1.88-5-3.88-8.25-4.42C89.76,4.83,87.65,6.1,86.17,5.14Z"/><path class="cls-26" d="M40.12,22.88a9.09,9.09,0,0,1,4-2.87A3.16,3.16,0,0,1,47,19.55a9,9,0,0,1,3.75,5.39,2,2,0,0,1-1.17,1.68,14.27,14.27,0,0,0-8.18,2A3,3,0,0,1,40,28.33a4.47,4.47,0,0,1-1.45-3.17C38.61,24.08,39.6,23.64,40.12,22.88Z"/><path class="cls-27" d="M40.12,22.88l-1,2.16c-.75,1,.32,1.83.36,2.77a1.68,1.68,0,0,1-.83.87c-1.78-.15-2.09,1-2.13,2.41-1.14,1.21-2.26,2.42-2.49,4.17a4.16,4.16,0,0,1-.65,1.16c-1.26.91-2.36,2.25-4.21,1.66.57-1.68,1.14-3.36,1.87-5.49-2.54.7-3.38,3.67-5.93,3.44C29.67,31.12,34.15,26.16,40.12,22.88Z"/><path class="cls-28" d="M47.12,20.06l-3,0a11.22,11.22,0,0,1,4.78-4.11c2.33-.12,4.91-1.55,6.66,1.29a2.27,2.27,0,0,1,.08,1.54,2.11,2.11,0,0,1-1.88,1C51.48,18.8,49.36,20.63,47.12,20.06Z"/><path class="cls-29" d="M55.21,18.09c-1.34-3-4.14-1.69-6.34-2.18l9.29-4c.31.24.42.49.32.73s-.21.36-.32.36c-2.06,1.38-3.23,2.74.05,4C57.84,19.28,56.57,18.82,55.21,18.09Z"/><path class="cls-30" d="M78.16,6c-3.56,3.08-8,2.4-12.18,3C69.74,6.74,74.06,6.84,78.16,6Z"/><path class="cls-30" d="M58.16,13V12a6.82,6.82,0,0,1,6-1.85Z"/><path class="cls-31" d="M45.19,169c-2-1-3.95-1.9-5.1-3.93.81-1.69,2.41-3.26-.74-4.6-7-3-11-8.61-13.55-15.61-.93-2.52-.94-4.08,1.47-5.35,4.27.51,5.44,4.32,7.58,7.1,1,3.92,2.69,7.14,7.35,7.43,3.49.92,5.83,3.8,9,5.27a3.12,3.12,0,0,1,1.35,2.41,2.34,2.34,0,0,1-1.29,1.6,3.08,3.08,0,0,1-1.35,0c-5.64-.22-1.83,4-2.75,5.93A1.79,1.79,0,0,1,45.19,169Z"/><path class="cls-32" d="M5.31,110a2.08,2.08,0,0,1-.27-.83c-.11-2.64,1.3-2.78,3.11-1.73a15.13,15.13,0,0,1,3.32,3,38.15,38.15,0,0,1,2.33,4.19c.67,1.5,2,2.33,3.19,3.38a6.32,6.32,0,0,1,1.43,3.44c.09,1.81.55,3.61.57,5.41.06,4.4-3.26,6.35-7,4.26-2-2.7-2.78-5.94-3.84-9-1.16-1.49.39-3.57-1.08-5v0C6.57,114.74,5.91,112.4,5.31,110Z"/><path class="cls-33" d="M27.25,139.93c-.85,1.48-2.41,2.81-.19,4.56,2.51,2,1.73,5.55,3.51,8,2.46,3.42,6.5,4.69,9.58,7.28,1.07.9,3.72.09,3.61,2.42-.09,1.88-2.34,2-3.66,2.92-4.91-2.24-8.57-6-11.94-10A12.86,12.86,0,0,0,24.31,151q-2-2.47-4-5c1.08-1.2,2.49.24,3.66-.44-.09-1.88-1.67-3.12-2.06-4.86,1.06-2.31,2.62-3.68,5.35-2.88A1.6,1.6,0,0,1,27.25,139.93Z"/><path class="cls-34" d="M71.14,180.09l-5.91-1.19c-2.91-1.79-5.85-3.56-3.49-7.73,2.19-1.69,4.36-.53,6.4.24,2.28.87,4.63,1.4,7,2.05,1.75.31,3.51.63,5.52,1.17-.18-1.24-2.82-1.67-1-3.18,2.92-1.11,5.7-1,8.24,1,1.11,1.49.61,2.92-.17,4.34-3.59,1.46-7.06,3.57-11.14,1.24-1.32-.75-2.51-.28-3.07,1.37C73.08,180.59,72.17,180.72,71.14,180.09Z"/><path class="cls-35" d="M62.17,171.06c-.74,3.3.72,5.74,3.06,7.84-6.8-3-14.13-5-20-9.86h2c1.45.78,1.46-.53,1.86-1.29a4.39,4.39,0,0,1,1.08-.6c1.24-.25,2.25-1.12,3.49-1.39C56.55,167.39,60,168.26,62.17,171.06Z"/><path class="cls-36" d="M71.14,180.09c1.82-4.46,4.74-4.89,8.37-2.16,1.34,1,2.09.06,3-.53,1.44-.91,2.91-1.66,4.52-.34a2.3,2.3,0,0,1,.91,1.63c3.79,5.78-2.39,2.89-3.7,4.25-1.36-.51-2.69-1.13-4.21-.82-1.3.52-2.59.76-3.82-.17C75,180.18,72.42,181.87,71.14,180.09Z"/><path class="cls-37" d="M12,131.14c4.12.66,6.49-1.3,5.65-5a19.5,19.5,0,0,1-.33-5.32c1.89,0,2.47,1.28,2.9,2.77a11.25,11.25,0,0,0,2.69,6.21c.89,1.62.43,2.67-1.32,3.2-2.47.15-3.26,1.72-3.29,3.94-.56,1.23-.52,3.35-2.86,1.93C14.29,136.31,13.14,133.72,12,131.14Z"/><path class="cls-38" d="M15.44,138.89c2-.08,1.66-1.56,1.74-2.81a.92.92,0,0,1,1.2-.19,4.13,4.13,0,0,1,.73,1.13c.24,1.9,1.83,2.77,3,3.94.47.15,1.29.23,1.34.47.46,2.12,3.8,3.8,2,5.95-1.65,2-3.19-1.64-5.17-1.37l-.09-1a3.59,3.59,0,0,0,.48-.52,2,2,0,0,1-.48.52A11.2,11.2,0,0,1,15.44,138.89Z"/><path class="cls-39" d="M24.31,151c2.26.44,3.67,1.69,3.85,4.09A9.8,9.8,0,0,1,24.31,151Z"/><path class="cls-40" d="M76.24,182l3.82.17c-1.07,1.47-2.7.62-4,1l-2.84-.21C74,181.82,75.17,182.09,76.24,182Z"/><path class="cls-41" d="M7.08,117.1c1.84,1.35,1,3.27,1.08,5l-1-1Z"/><path class="cls-42" d="M181.18,105c-.3,2.67-.59,5.34-.89,8-.89,3-1.37,6.25-3.11,9-1,.56-1.72,0-2.45-.59-1.13-.92-.89-2.85-2.51-3.4-.58-.31.27,0-.34-.25a4.23,4.23,0,0,0,.42.25,3.76,3.76,0,0,1,1.16,2.9,3.44,3.44,0,0,1-1,1.06c-1.85,1-3.72,1.55-5.63.13-1.09-1.75-.32-3.43.15-5.13.41-1.17.92-2.3,1.32-3.47.88-3.11.78-6.44,2.21-9.42,1.93-2.35,3.5-1.24,5,.53.68.88.4,2.14,1.22,3,1.58-1,1.82-3.49,4-3.73.12,0,.28.14.38.25S181.38,104.71,181.18,105Z"/><path class="cls-43" d="M168.06,141.93,165.17,146a1.79,1.79,0,0,0-1.67.82c-1.9,4.43-5.7,6.41-9.94,7.85-1.1.47-2.23,1.1-2.88-.59-.2-4,4-5.52,5-8.83-.94-.61-2.05.58-2.86-.43-.38-3.62,2-5,4.83-6.14,1.39.67,2.62,2.17,4.41.87a4.24,4.24,0,0,1,1.33-.07C165.18,139.92,167.13,140,168.06,141.93Z"/><path class="cls-44" d="M154.16,159l-5,3.76c-1.43-.61-1.66.32-1.77,1.39l-5.17,4a1.61,1.61,0,0,1-2.62-.85,2.69,2.69,0,0,0-2.86-1.9A2.78,2.78,0,0,1,135,162c1-1.11,2.39-1,3.66-1.32,1.65-.35,1.63-1.35,1.16-2.6a3,3,0,0,1,.13-1.39,5.24,5.24,0,0,1,3.31-2.56c5.12.5,5.16.66,2.33,4.84.75-2.24,5.14-.09,6.84-3,2.51-1.92,2.76-1.92,3.71,0Z"/><path class="cls-45" d="M168.06,141.93l-4.92-1.77c.44-.82,1.28-1,2.05-1.32,1.14-.35,1.34-1.21,1.18-2.25a3.57,3.57,0,0,1,.41-2.38c2.09.31,1.19-1.47,1.62-2.33a3.29,3.29,0,0,1,.69-1.11c2.11-1,2-5,5.55-4.15l.54.43c-.29,3.78-2.27,6.71-4.54,9.6C169.45,138.15,168.9,140.15,168.06,141.93Z"/><path class="cls-46" d="M153.17,154c.55-.56,1.1-1.62,1.64-1.61,3.55.06,5.54-1.61,6.77-4.88.8-2.14,1.93-2.36,3.59-1.5-1.7,3.83-4.84,6.42-7.88,9.09C156.05,154.26,154.38,155,153.17,154Z"/><path class="cls-47" d="M153.17,154c1.43.14,3.05-.4,4.12,1.1l-1.19.84c-1.64-1.57-2.23,0-3,1-5.12,1.72-5.63,1.27-5.53-4.86.41-1.55,1.2-3,3-2.31,2.4.9-.29,2.89.58,4.23C151.84,155.19,152.5,154.09,153.17,154Z"/><path class="cls-45" d="M175.19,121l2,1c-.37,1.78-.69,3.58-2,5h0c-1.54-2.4-4.63-.62-6.41-2.39-.21-3.23,3.61-1.58,4.39-3.62h0A1.42,1.42,0,0,1,175.19,121Z"/><path class="cls-48" d="M124,177.88c-2.78-2.68-4.43,1.42-6.81,1.15-2.58,0-3.72-1.54-4.25-3.8a2.19,2.19,0,0,1,1-.89c1.14-.49,3.81.37,2.18-2.51-.45-.77-1.18-1.4-1.14-2.39a18.63,18.63,0,0,1,9.64-4,1.8,1.8,0,0,1,1,.87c.66,3.05,3.09,1.22,4.7,1.67a6.71,6.71,0,0,1,1.34.32c1.34,1.37,4.29.79,4.41,3.63l-2.89,1c-.83,0-1.64.12-1.9,1.13Z"/><path class="cls-49" d="M136.05,172c-1.43-1.28-3.85-.93-4.84-2.93a4,4,0,0,1-.9-5.32,2,2,0,0,1,1.92,0c1.17.9,1.35,3,3.42,2.78a4.88,4.88,0,0,1,1.31.19c2.2,1.34,1.75,2.82.22,4.35Z"/><path class="cls-50" d="M137.18,171c.07-1.45,1.27-3.12-.86-4.1-.66-1.07.25-1.55.8-2.17,1.31-.9,2.84-2.52,3,.76.09,1.41.22,2.61,2,2.61C141,170,139.19,170.67,137.18,171Z"/><path class="cls-51" d="M147.36,164.17a2.08,2.08,0,0,1,.33-3.28c1.05-.52,1.31.94,1.44,1.89Z"/><path class="cls-52" d="M131.26,174.14c-.56-.39-1.09-1-.53-1.56.87-.88,1.75-.49,2.43.43Z"/><path class="cls-41" d="M11.06,111.2a12,12,0,0,1-3.27-2.74c-1.3-1.85-2-.34-2.75.75-1.84-2.4.84-4.73.1-7.11a2.42,2.42,0,0,0,.74-1.16c-.48.25-.15,1-.74,1.17-1.83-2.12-.42-4.72-1-7l1.14-3.31A1.79,1.79,0,0,1,7,92.87,32,32,0,0,0,9.1,97.42a28.1,28.1,0,0,1,2.74,12.49A2,2,0,0,1,11.06,111.2Z"/><path class="cls-53" d="M2.27,89.17c-.44,2.07.48,3.94.93,5.88C1.7,96.73,3,99.3,1.34,100.94V87.09Z"/><path class="cls-41" d="M5.31,110a9.63,9.63,0,0,1,1.79,7.08A11.28,11.28,0,0,1,5.31,110Z"/><path class="cls-54" d="M113.17,175l4,4c-2.3,2-5.8.67-8,2.89l-3.89.21-3.14.74c-1.63-1.47-3.43-.53-5.18-.38a1.26,1.26,0,0,1-1-.67c0-1,.16-2-1-2.63a2.84,2.84,0,0,1-.42-2.46,2.29,2.29,0,0,1,.83-1,25.71,25.71,0,0,1,4.09-.8c3.53-.18,7.12,1,10.6-.67A2.67,2.67,0,0,1,113.17,175Z"/><path class="cls-55" d="M84.27,182.94c.38-.27.81-.81,1.14-.76,3.32.51,2.25-1.59,2-3.22,1.2-1.09.34-3.27,2.14-4,1.38.17,1.76,1.26,2.13,2.35a11.52,11.52,0,0,1,.21,1.31c.24,2.63,3.2,1.9,4.3,3.45l.07.06c.29.17.38.34.29.52s-.19.26-.29.26Z"/><path class="cls-56" d="M96.24,182.87a3.48,3.48,0,0,1,0-.79c2,.09,4.39-3,5.87.79Z"/><path class="cls-57" d="M104.21,6.2c-.2,1.46-.88,2.05-2.27,1.19a5.37,5.37,0,0,1-.93-1L103.33,6A2.93,2.93,0,0,1,104.21,6.2Z"/><path class="cls-8" d="M4.13,82c-.24,2.33.93,4.86-1,6.95C3.53,86.68,2.37,84.15,4.13,82Z"/><path class="cls-58" d="M179.11,68.12c.37,3,.75,5.94,1.12,8.91.53,5,3.32,9.85,1,15-1-.65-1.56-1.79-2.62-2.38a2.57,2.57,0,0,1-.94-1.6,2.85,2.85,0,0,1,.34-1.25c1.69-5.74.13-9.14-4.45-9.66-2.22-1.41-1.14-4-2-5.86-.91.88-.18,3.22-2.49,2.85-3.11-5-3.19-11-6.13-16-.06-1.62,2-2.14,2-3.73a30.58,30.58,0,0,0,1.53-3.53,2.56,2.56,0,0,1,.88-1,2,2,0,0,1,1.76.91A91,91,0,0,1,176.23,63C178,64.24,177.66,66.69,179.11,68.12Z"/><path class="cls-59" d="M139.18,18.07c6.7,3,11.9,7.92,17,13-1.41,1.37-3-.4-4.5.25-.42,1.4,1.47,2.52.49,4-2.12,1-3.37-.54-4.64-1.72-3-2.77-6.27-5.18-9.16-8A6.18,6.18,0,0,1,136,24.14a4.46,4.46,0,0,1,.82-4C138.18,20.15,139.1,19.59,139.18,18.07Z"/><path class="cls-60" d="M128.17,12.07c3.23.78,6.08,2.45,9,3.94l-.44.52c-1.2.73-2.6.65-3.89,1-3,.67-1.92,4.05-3.69,5.54-.78.26-1.23-.16-1.62-.74-.53-2.22-1.62-4-4-4.48-3.54-.6-6.9-2-10.59-2-2.29,0-4.56-.89-4.87-3.83a3.25,3.25,0,0,1,2.75-.77c5.32.95,10.61,2.12,16,2.35.59.3-.13-.62-.34,0-.06.2-.18.09-.49,0-.92-.4-1.3-.92-.63-1.85C126.33,11.59,127.31,11.36,128.17,12.07Z"/><path class="cls-61" d="M165.12,41.12c1.83,1.65,2.91,3.83,4.1,5.93l-.49.43a3.69,3.69,0,0,1-1.27.26c-1.54-.2-3,.32-4.56.26a3.25,3.25,0,0,1-1.86-.72c-.76-3-3.21-3.27-5.71-3.41A5.19,5.19,0,0,1,154,43.5a4.74,4.74,0,0,1-2.42-3.34A4.34,4.34,0,0,1,152.9,37a2.93,2.93,0,0,1,2.67.17,16.83,16.83,0,0,1,3.3,2.39C160.61,41.43,163.16,40.12,165.12,41.12Z"/><path class="cls-62" d="M155.19,38l-2-1c-.9-.33-1.51-.83-1.06-1.91-.53-1.63-3.17-3-2-4.52,1.77-2.39,4,.33,6.08.48a10.5,10.5,0,0,1,3.87,4C158.77,36.62,156.7,36.86,155.19,38Z"/><path class="cls-63" d="M176.23,63a50.27,50.27,0,0,1-8-12c.75-1.17-.37-2.69.7-3.8l.3-.14C172.3,52,175.21,57.12,176.23,63Z"/><path class="cls-64" d="M155.19,38c.54-2.78,2.73-2.81,4.87-2.93l1.23,1.79c1.23,3.3-.14,4-3.14,3.22Z"/><path class="cls-65" d="M128.17,12.07h-3c-4.84.58-8.37-1.17-10-4.95l2,0C120.59,9.29,124.86,9.59,128.17,12.07Z"/><path class="cls-66" d="M158.15,40.1c1.46-.67,3.7-.58,3.14-3.22q1.92,2.11,3.83,4.24C162.67,41.65,160,43.4,158.15,40.1Z"/><path class="cls-67" d="M139.18,18.07c.13.29.26.59.41.88.61,1.21,1.22,2.89-.08,3.48-1.76.8-1-2.05-2.37-2.34A1.94,1.94,0,0,1,135.91,19a2,2,0,0,1,0-1.15,3.06,3.06,0,0,1,1.16-1.26,1.93,1.93,0,0,0,.07-.53Z"/><path class="cls-68" d="M181.18,105c-2-.14-2,1.76-2.74,2.79s-.51,3-2.27,2.65-.73-2.24-.94-3.44a13.2,13.2,0,0,1-.07-2c-1.25-1.7,0-3.86-1.08-5.6-.38-1.09-.81-2.18-.15-3.32,1.12-.67,1.74,0,2.23.88,1.43,0,2.6,2.95,4.37.09.92-1.5,1.6.05,1.55.93C181.94,100.38,183,102.91,181.18,105Z"/><path class="cls-69" d="M176.16,97l-2.06-.87a1.68,1.68,0,0,1-2,.1c.54-3,2.19-4.07,6.86-4.58a1,1,0,0,1,.42.78c0,.31,0,.47-.11.47C179.37,95.14,177.29,95.71,176.16,97Z"/><path class="cls-70" d="M179.25,92.91a2,2,0,0,0-.26-.79c-1.3-1.29-3.12-.59-4.59-1.2-1-.47-1.81-1-1.25-2.34a3.32,3.32,0,0,1,5-.55l1.15.93c1.09,1.17,2.13,2.35.66,4l-.37,0Z"/><path class="cls-71" d="M180,92.91a5.79,5.79,0,0,0-.66-4c1.93.24,1.89,1.68,1.86,3.1Z"/><path class="cls-72" d="M115.16,7.12c2.57,3.21,6.57,3.51,10,5,.4,1.12,2.16,1,2.27,2.39a41,41,0,0,1-16.29-2.36C112,11,113,9.92,112.81,8.36c.2-.71.8-1,1.38-1.27A5.25,5.25,0,0,1,115.16,7.12Z"/><path class="cls-65" d="M114.19,7.09l-1,1c-2.45,1.24-4.31,1-5-2l-.09-.27C110.13,6.17,112.34,5.8,114.19,7.09Z"/><path class="cls-73" d="M108.17,6.05a5.88,5.88,0,0,0,5,2c2.37,2.87,1.46,4.1-2,4l-3,0c-3.5,1.5-6.67,1.55-9-2,3-.61,7.49,2,7.94-3.83Z"/><path class="cls-74" d="M55.21,18.09c1.09-.07,2.26.09,3-1,1.12,0,2.26.11,3-1,1.93-2.16,4.8-.93,7-1.95,2.69-2,6.33.14,9-2.09,3.15-2.16,6.56-1.64,10-1h0c1.48,1,1.43-1.57,2.66-1.17a2.63,2.63,0,0,1,1.23,2.56,3.08,3.08,0,0,1-1,2.08c-4,1.57-8.43.49-12.32,2.39A27.36,27.36,0,0,1,74,18.12c-3.44.08-6.56,1.65-9.91,2.14-3-.61-6.18.55-9-1.24C55.15,18.71,55.17,18.4,55.21,18.09Z"/><path class="cls-75" d="M90.33,11.91c-.36-.64-.71-1.28-1.06-1.92a1.22,1.22,0,0,1-.08-1.92c.32-.35.65-.69,1-1l.73,0c5.7-.74,6.55.15,4.85,4.93,3.32,2,8.06.13,10.62,4.11a4.31,4.31,0,0,1-2.45,1.79c-3.09.66-6-.53-9-.73-2.74-.52-2.43-3.06-3.24-4.85C91.2,12.14,90.63,12.48,90.33,11.91Z"/><path class="cls-30" d="M87.19,11a27.83,27.83,0,0,0-10,1C80.25,8.84,83.69,9.68,87.19,11Z"/><path class="cls-30" d="M68.25,14.11c-2.09,1.58-4.82.86-7,1.95C62.86,12.92,65.81,14.41,68.25,14.11Z"/><path class="cls-30" d="M86.17,5.14c1.73.16,3.68-.75,5.07,1.06.19.91-.25,1.25-1.11,1.19l0-.35C89.29,5.45,87.09,6.64,86.17,5.14Z"/><path class="cls-30" d="M89.19,8.07c0,.64,0,1.28.08,1.92-.58.69.45,2.06-.89,2.31-.3.06-.78-.82-1.17-1.26Z"/><path class="cls-76" d="M18.12,50l1.2-1.88c2.69-.61,3.41,2.75,5.75,2.84a1.12,1.12,0,0,1,1.18-.24,4.32,4.32,0,0,1,.94.87,8.46,8.46,0,0,0,3.26,2.82c1.11.62,2.2,1.28,3.31,1.9a42.56,42.56,0,0,1,5.77,3.17c1.39,1.18,3.27,1.84,4,3.72a1.46,1.46,0,0,1-.6,1.22c-2.58.7-4.42-.95-6.38-2.07-4.46-2.53-8.83-5.22-13.44-7.47A10.78,10.78,0,0,1,18.12,50Z"/><path class="cls-77" d="M26.13,51l-1.06,0c-1.46-5.2,3.19-8.46,4.12-12.91l3.92-2.2a1.22,1.22,0,0,1,.24,1.31c-1.09,2.06-1,2.8.36,3.89A17.17,17.17,0,0,1,26.13,51Z"/><path class="cls-78" d="M6,81c.21-4.54,1.92-8.71,3.1-13,0,2.29.56,3.64,3.12,2.13a3.79,3.79,0,0,1,.84,3.65c-1,2.91-2,5.78-1.8,9a5.32,5.32,0,0,1-1.74,4.38,1.35,1.35,0,0,1-1.83-.51c-.78-1.37-.57-3-1.18-4.43A8,8,0,0,1,6,81Z"/><path class="cls-79" d="M12.18,74.05c0-1.33,0-2.66.05-4,1.08-2.78,1.93-5.68,4-8,1.59.5,2.88,1.24,2.56,3.26a27.73,27.73,0,0,1-1,4.12C16.31,71.45,16.38,75.37,12.18,74.05Z"/><path class="cls-80" d="M18.15,64.92c.46-1.71-2.5-1.08-1.95-2.85.24-2.72,2.24-5,1.85-7.91,1.61-1,3-.22,4.31.63a3,3,0,0,1,.53,1.45C22.2,59.62,22.35,63.46,18.15,64.92Z"/><path class="cls-81" d="M22.1,55.17l-4.05-1c-1.06-1.4-1.29-2.78.07-4.14,2.36.49,3.18,2.94,5.09,4A1.35,1.35,0,0,1,22.1,55.17Z"/><path class="cls-82" d="M9.25,67.06c.6-2.52.95-5.14,2.9-7.12C11.69,62.52,13.82,66.16,9.25,67.06Z"/><path class="cls-83" d="M8.18,86.05,9.34,87c2.59-.37,3.78,1,4.18,3.36-2.38,2.85-5.37,1.19-8.14,1.11A19.73,19.73,0,0,1,6,81l1.19.1C8.36,82.55,7,84.55,8.18,86.05Z"/><path class="cls-84" d="M5.38,91.45c2.37-1.62,5.35.17,7.74-1.36-.48-1.8-1.69-3.68.52-5.22C16,86,15.22,88.45,16.05,90.23c1.23,3.64-.79,4.69-3.91,4.94-2.29.18-4.06-1-5.86-2.12l-1-1.27Z"/><path class="cls-85" d="M90.13,7.39,91.24,6.2c3.75-1,6.11.88,7.93,3.87,2.82,1.49,5.92,1.75,9,2,3.6,4.25,9.18,1.73,13.42,3.88.79.4,1.94.12,2.59,1.05-1.32,1.58-3.14,1.9-5,2.06C116,18.78,113,18,109.9,17.44c-1.33-.17-2.69-.26-3.56-1.5-2.08-1.74-4.84-.44-7.08-1.63-2-1.05-4.69-.43-3.72-4.82S91.74,8.91,90.13,7.39Z"/><path class="cls-86" d="M33.22,35.08c-.12-2.19.46-3.88,3-4.14l1-.8c1.25-.82,2.74-1.19,4-2.06,2.34-2,4.65-4.25,8.05-1.92a1.85,1.85,0,0,1-.08,1.31c-2.65,2.42-5.69,4.33-8.55,6.47C38.13,34.07,35.56,33.82,33.22,35.08Z"/><path class="cls-87" d="M47.12,20.06c1.89-1.25,3.7-2.9,6.13-1.13,2.68,2.2-1.86,3.55-.65,5.57-.58.95-1.29,1.32-2.28.55C49.49,23.24,46.74,22.65,47.12,20.06Z"/><path class="cls-88" d="M50.32,25.05a2,2,0,0,0,1.9-1c1.57-.1,1.51.93,1.39,2a2.9,2.9,0,0,1-3.89,1.51L49.17,27a7.35,7.35,0,0,0,.1-.82Z"/><path class="cls-27" d="M41.22,28.08c-1,1.48-2,3-4,2.93-.68-1.9,1.16-2.09,2-3h0c.33-.49.67-.47,1,0Z"/><path class="cls-89" d="M40.21,28l-1,0c-.78-1-2.54-2,0-3C39.49,26,39.85,27,40.21,28Z"/><path class="cls-90" d="M33.22,35.08c1.82-2.69,4.55-2,7.11-1.89-.74,4.1-3.33,6.54-7.13,7.87-.8-1.82-2.34.37-3.37-.62,1.11-1.54,2.2-3,3.28-4.57A5.18,5.18,0,0,1,33.22,35.08Z"/><path class="cls-89" d="M39.19,28.06l-2,3-.49,0-.47-.1c-.42-1-1.43-2.5-1.13-2.83C36.25,26.85,37.79,28.5,39.19,28.06Z"/><path class="cls-91" d="M53.19,26.07a2.13,2.13,0,0,0-1-2.06c-.12-1.26-4.87-4.05,1.09-3.3l-.06-1.78,1.89.09,9.08.06.34.62a2.34,2.34,0,0,1-.74,1.14c-1.37,1-3,1.18-4.61,1.68s-3.34.77-3.29,3c-.17,1-.56,1.78-1.69,1.93C53.46,27.32,52.88,27,53.19,26.07Z"/><path class="cls-92" d="M27.25,139.93c-.08-.58-.15-1.16-.23-1.74-.58-.76-1.52-1.26-1.71-2.31a5.79,5.79,0,0,1,.26-3.65A2.55,2.55,0,0,1,28,130.78a2.17,2.17,0,0,1,.89,1.09c1.41,7.42,7.27,11.63,12,16.63a58.89,58.89,0,0,0,8.47,7c1.35,1,2.91,1.7,3.19,3.6-.14.77-.42,1.35-1.38,1.05-3.73-.38-5.63-3.94-8.9-5.12-4.18-1.09-6-4.63-8.09-7.86C31.78,144.81,30.47,141.45,27.25,139.93Z"/><path class="cls-93" d="M51.15,160.12l1.08-1.07a4.57,4.57,0,0,1,1.09-3.63,14,14,0,0,0,2.28-3.81c1.49-2.74,2.65-5.67,4.76-8,1.24-1.27,1.53-3.48,3.73-3.81a2.2,2.2,0,0,1,1.44,1.45c-.36,2.64-1.71,4.89-2.79,7.26-2.1,3.3-4.12,6.65-6,10.07-1,1.76-1.77,4-4.58,3.45Z"/><path class="cls-94" d="M52.13,162c4.13-2.38,4.59-7.3,7.35-10.65.91-1.09,1.18-2.71,2.69-3.34a2.39,2.39,0,0,1,.73,1.18c.1,2.79-2.06,4.59-3,6.94a17.37,17.37,0,0,0-2.5,5.4,4.83,4.83,0,0,1-1,1.79,4.42,4.42,0,0,1-2.68.77,5.58,5.58,0,0,1-1.4-.21,2.67,2.67,0,0,1-1.13-.84C51.5,162.69,51.82,162.34,52.13,162Z"/><path class="cls-95" d="M34.16,147.14,42.25,155C36.72,155.3,34.39,152.3,34.16,147.14Z"/><path class="cls-96" d="M49,168.24c.24,2.16-1,.95-1.78.79-2.5-3.18-2.11-6.2,1-7.51,1.34-.56,1.79.12,1.9,1.31C49.07,164.51,49.06,166.38,49,168.24Z"/><path class="cls-97" d="M49,168.24c-1.53-2.18-3.31-4.41,1.08-5.41l1.13.2,1.07,0c1.24,2.47-.38,3.75-2.08,5Z"/><path class="cls-92" d="M19.28,124c-.54-1.11-.42-2.63-2-3.11l-.93-2.73c-.18-.73-.52-1.41-.71-2.15-1.34-5-3.08-10-2.86-15.29.4-6.68,2.17-8.16,7.24-6.1-3.93,9.37.6,17.92,2.68,26.69.68,2.89,2.84,5.31,2.75,8.47-1.14,1.49-2.15.67-3.17-.16C20.54,128.11,20.08,125.94,19.28,124Z"/><path class="cls-98" d="M11.06,111.2l.12-1.12c3.86.07,4.59,2.54,4.37,5.72-1.19,1.15-1.74-.16-2.5-.66A7.32,7.32,0,0,1,11.06,111.2Z"/><path class="cls-41" d="M13.05,115.14l2.23.89a2.31,2.31,0,0,1,1.86,1.08c0,.55-.14.93-.75,1A3.17,3.17,0,0,1,13.05,115.14Z"/><path class="cls-99" d="M26.19,136.05c.28.71.56,1.42.83,2.14-2.14,0-3.27,1.82-4.89,2.77-2.86.21-4.33-.94-3.86-4,1.33-.54,2.8-.77,3.89-1.83C23.8,134.11,25.17,134.29,26.19,136.05Z"/><path class="cls-100" d="M56.16,163.07l0-2c1.2-.89,2.39-.67,3.74-.24,8.61,2.79,17,6.27,26.21,7,2.11.17,4,.79,3.72,3.57a2.39,2.39,0,0,1-1,1.36l-.81.24a26.83,26.83,0,0,0-8.91-.92,2.51,2.51,0,0,1-2.59.69,8.3,8.3,0,0,1-1.9-.85,10,10,0,0,0-3.33-.83A55.9,55.9,0,0,1,59.9,167C58.24,166.19,56.11,165.61,56.16,163.07Z"/><path class="cls-101" d="M56.16,163.07c4.62,4,10.46,5.17,16,7,.75,1.09,2,.47,3,1l1.09.93a3.21,3.21,0,0,1-1.06,3l-13-4a19.54,19.54,0,0,1-8.9-5.05,2.09,2.09,0,0,1,0-3Z"/><path class="cls-102" d="M75.19,175c0-1.13-.16-2.32,1.06-3l2.94,0c.81,2.08,5-.12,4.3,2.43-.84,3-3.79.92-5.87.64C76.82,175,76,175.05,75.19,175Z"/><path class="cls-103" d="M90.22,175.09c-1.74.71-.14,3.86-2.83,3.87-.11-.64-.22-1.27-.32-1.9.34-1.37.69-2.73,1-4.1h0c1.48-.3,3.72-1.79,2.71,1.75Z"/><path class="cls-104" d="M53.25,163.05c0,1,0,2,0,3-.19,2-1.46,2.28-3.1,2,.69-1.66,1.39-3.32,2.08-5Z"/><path class="cls-105" d="M22.19,129.05l3,1c.64-1.58,2.11-2.2,3.44-3a53.66,53.66,0,0,1,5.08-3c1.65-.37,2.6-2.56,4.69-1.8a2.63,2.63,0,0,1,.52,2c-1.23,4-5.22,4.45-8,6.42-.84.43-1.66,1-2.66.47l-1.95,1c-1.18,1.88-3.21,2.47-5.06,3.35a1.83,1.83,0,0,1-1.28-.45c-.64-1.42.06-2.24,1.26-2.84,1.7-.05,1.78-.86,1-2.09-.29-.23-.38-.46-.27-.68S22.09,129.05,22.19,129.05Z"/><path class="cls-99" d="M21.17,132.15c-.32,1-.65,1.93-1,2.9,0,1.76-.92,1.69-2.12,1l-.44,0h-.45C16.84,133.07,18.18,131.78,21.17,132.15Z"/><path class="cls-106" d="M22.19,129.05l0,1A6.18,6.18,0,0,1,19.28,124Z"/><path class="cls-107" d="M20.21,145c.42-.94-1.55-2.66.9-2.9.51,0,1.49.41,1.53.74.27,1.8-1.14,2-2.43,2.16Z"/><path class="cls-108" d="M18.07,136.05a2.22,2.22,0,0,0,2.12-1h1c1-.38,1.26.09,1,1-.9,2.07-2.31,2-4,.93A9.19,9.19,0,0,1,18.07,136.05Z"/><path class="cls-109" d="M171.3,104.06c-.59,3.37-.67,6.85-2.08,10.06-1.61-1.38-1.31-3.45-1.92-5.19-.14-3.8,1.15-7.57.27-11.39-.94-1.6-2.65-1-4-1.39-3.39-.86-3.12-2.39-.82-4.32a2.86,2.86,0,0,1,1.47-.29c2.31,1.64,6.41-.08,7.47,3.95.11.81.81,1.28,1.16,2C173.88,100,172.41,102,171.3,104.06Z"/><path class="cls-110" d="M168.14,117l-.93,5c.66,2.94-1.41,4.93-2.5,7.26a3.64,3.64,0,0,1-1.83,1.27,1.87,1.87,0,0,1-2.26-1.51,80.58,80.58,0,0,1,5.17-13.87C167.83,114.2,167.57,116.14,168.14,117Z"/><path class="cls-111" d="M164.12,129l3.09-7c2.1.41,4-.65,5.95-1,.22,2.88-4.21,1.13-4,4,.19,2,.76,4,.07,6,0,.3,0,.59,0,.89-.86.87-1.59.2-2.34-.2A9.28,9.28,0,0,1,164.12,129Z"/><path class="cls-112" d="M171.3,104.06l.88-7c1.76-.49,1.68,1.78,3,2,1.67,2,.36,4,0,6C173.9,104.62,173,102.68,171.3,104.06Z"/><path class="cls-113" d="M168.14,117l-1.82-2c-.9-2.51.34-4.31,2-6,1.53,1.46.59,3.37.93,5.05Z"/><path class="cls-114" d="M172.15,118c-1,.07-1.47,2.17-2.73.9-.56-.56-.14-1.56.57-2.09,1.55-1.14,1.92-.07,2.16,1.19Z"/><path class="cls-111" d="M175.19,121h-2l-1-3h0C175.32,116.84,173.89,120.32,175.19,121Z"/><path class="cls-115" d="M143.19,155.05,140.1,157a10.34,10.34,0,0,1-4.26,3.4,3.9,3.9,0,0,1-1.39.27,1.83,1.83,0,0,1-1.77-1.91,3.56,3.56,0,0,1,1.58-2.42,84.76,84.76,0,0,0,23.16-24.78c4-.45,3.61,1.56,2.33,4.1-.36,1.2-.48,2.52-1.61,3.34-2,1.72-4.43,3.12-5,6.06.33,4-4.88,3.55-5.49,6.8a6.6,6.6,0,0,1-2.92,2.3A5.55,5.55,0,0,0,143.19,155.05Z"/><path class="cls-46" d="M147,151.88c.92-3.32,4.71-4,6.19-6.84l4-2.95c1.14,6-5.09,7.67-6,11.95-1.9-.81.83-2.92-.93-3.58-1.08-.4-1.61.72-2.06,1.58-.14.1-.28.2-.41.31A.79.79,0,0,1,147,151.88Z"/><path class="cls-45" d="M158.14,139l.14-3.9a1.72,1.72,0,0,1,1.9-.37,4.64,4.64,0,0,1,1.23,2.32c.17,1,1.25,1.76.77,2.92s-1.35,2.27-2.89,1.84S158.32,140,158.14,139Z"/><path class="cls-116" d="M162.18,140l-1.87-2c.78-.67,1-1.88,2.06-2.27a1.93,1.93,0,0,1,1.21.29c.88,1.33,2.94,1.92,2.6,4l-3,.12A3.18,3.18,0,0,0,162.18,140Z"/><path class="cls-117" d="M133.14,159.07l2.1,1.05a2.52,2.52,0,0,1,0,1.89l1.89,2.76c-.27.73-.53,1.45-.8,2.17l-.15.1c-3.23,1.52-2.51-2.12-3.91-3l-2.18,0a.94.94,0,0,1-1.21-.21,2.27,2.27,0,0,1,0-2c1.33-2.49-1-3.89-1.75-5.75-1.82-4.29-5.64-7.77-5.23-13,1-.75,1.76-.21,2.57.3,1.84,1.79,2.68,4.26,4.23,6.24,1.08,1.9,1.87,3.95,3.1,5.78C132.76,156.48,132.6,157.9,133.14,159.07Z"/><path class="cls-118" d="M143.19,155.05l1-1c1.13-1.07,2.73-1.22,4-2h0c.19,3.1.29,6.29,4.94,5-.41.5-.81,1.45-1.22,1.45-3.72,0-6.18,1.88-7.59,5.71-2.88-4.3,1-6,2.29-8.39C145.49,154.59,144.28,155.21,143.19,155.05Z"/><path class="cls-119" d="M135.23,162c-1.33-.63-.1-1.26,0-1.89h0c1.67-.56,3-1.94,4.78-2.18,3.52,1.12,2.46,2.78.16,3.81C138.76,162.38,136.89,162,135.23,162Z"/><path class="cls-117" d="M140,157.94c-1.51.9-2.62,2.69-4.78,2.18,1.39-1.41,2.83-2.75,4.88-3.14A2.39,2.39,0,0,1,140,157.94Z"/><path class="cls-43" d="M163.06,136.14l-.46-.08-.46,0c-1,.55-1.35-.24-1.76-.9l-2.1-.12c.15-1,1.81-1.11,1.39-2.24s-1.61-.68-2.5-.81c-4.14-1-7.06-4.15-10.64-6.14-5-2.52-9.49-5.8-14.58-8.09-2-1.29-4.68-1.75-5.34-4.58a2.5,2.5,0,0,1,.46-1.37c2.13-1.06,3.66.31,5.29,1.31,1.62,1.6,3.85,2.1,5.76,3.18.56.33,1.1.7,1.63,1.08,1.62,1.11,3.44,1.87,5.05,3,2.7,1.79,5.82,2.83,8.47,4.68A28.92,28.92,0,0,0,157,127.3c.51.28,1,.62,1.5.9.81.47,1.88.2,2.61.92a1.82,1.82,0,0,0,1.79.87c.23,2.82,2.7,0,3.51,1.41.95.55,1.51,1.24.92,2.38-.08,1.06-.16,2.12-.23,3.18C165.54,137.86,164.3,137,163.06,136.14Z"/><path class="cls-120" d="M169.24,131c-1-2-1.93-4-.07-6,2.61-1.15,5.17-2.15,6,2-1.91.34-3.52.49-3.25,3.41C172.13,132.78,170.29,131.34,169.24,131Z"/><path class="cls-121" d="M163.06,136.14a7.47,7.47,0,0,1,4.07.82c1.87,1.7.21,2.31-.95,3.08C165.4,138.53,162.85,138.45,163.06,136.14Z"/><path class="cls-122" d="M167.36,133.78c-.39-.59-.78-1.19-1.16-1.79-.14-.89.09-1.39,1.12-1.07l1.91,1C168.89,132.8,170.32,135.46,167.36,133.78Z"/><path class="cls-123" d="M129.21,162.05l-.06,1.83c-.64,2-1.92,2.74-4,2.16L115,170c-2.38,2.34-5.45,2.22-8.43,2.4-2.07,0-4.16-.2-6.16.56-1.84.44-3.76,1.12-4.76-1.37.06-2.62,2-3.42,4-3.56,9.39-.69,18.1-3.83,26.74-7.22a3.39,3.39,0,0,1,2.43-.1A.92.92,0,0,1,129.21,162.05Z"/><path class="cls-124" d="M96.2,172c1.32.9,2.66.28,4,.05,1.91-1.2,4.2.21,6.12-.92,3,.67,5.73-1.37,8.72-1.14.87.09,1.72.21,2.12,1.15a25.1,25.1,0,0,0-2.87,3.86l-1.11.06a40.56,40.56,0,0,1-15,1,2.13,2.13,0,0,0-2.84-.34l-.25.43c-.93.11-1.38-.46-1.68-1.23a3.08,3.08,0,0,1,.64-2.92A1.65,1.65,0,0,1,96.2,172Z"/><path class="cls-125" d="M125.2,166l4-2.16a3.29,3.29,0,0,0,.93.2c.37,1.65.75,3.31,1.13,5l-1-.13c-1.32-1.56-4.43,1.67-5-1.88C125.19,166.7,125.19,166.37,125.2,166Z"/><path class="cls-126" d="M114.28,175c-1.31-3,.69-3.48,2.87-3.86C119.36,174.77,118.09,175.82,114.28,175Z"/><path class="cls-127" d="M124.78,174.66a3.16,3.16,0,0,1-1.87-2.59c-.2-1,.66-1,1.23-.85a2.23,2.23,0,0,1,1.89,2.39C126,174.4,125.51,174.68,124.78,174.66Z"/><path class="cls-128" d="M125.18,167c1.18,1.94,3.76.13,5,1.88a15.48,15.48,0,0,1-3.66.75C124.87,169.61,123.63,168.93,125.18,167Z"/><path class="cls-129" d="M132.26,164c1.92.2,1.62,3.28,3.91,3C132.06,169.71,132.57,166.33,132.26,164Z"/><path class="cls-130" d="M17.14,117.11,15.28,116c.08-3-1.83-4.59-4.1-6-1.37-4.2-1.24-8.79-3.18-12.86,4.26-2.23,5.31.65,6.18,3.86C13.79,106.68,16.24,111.75,17.14,117.11Z"/><path class="cls-131" d="M14.18,101.08C12.9,98.53,11,97.07,8,97.22a3.41,3.41,0,0,1-1.72-4.17c2.5-1.48,4.08,2.17,6.74,1.1,1.69-.69,3.31-.7,2.14-3.08,1.34-1.25,2.65-.79,3.95.06a7,7,0,0,0,4.08,2.05,3.3,3.3,0,0,1,1.17.75c.06.24.11.47.16.7a1.71,1.71,0,0,1-.89,1.08,3.06,3.06,0,0,1-3.43-.64C14.48,93.82,14.25,94.05,14.18,101.08Z"/><path class="cls-132" d="M5.14,102.11l.17-2.89c.4,1,2.88,2.14-.17,2.88Z"/><path class="cls-133" d="M96.17,182c-5.23-.1-5.23-.1-5.07-4a4.15,4.15,0,0,1,4,1c.89,0,2.43-.38,2.57-.07C98.26,180.31,96.45,180.86,96.17,182Z"/><path class="cls-104" d="M95.05,179c-1.39,0-2.92.45-4-1l0,0c.93-.87.9-2.33,1.93-3.14a.79.79,0,0,1,1.07.26c.34.34.67.69,1,1C95.1,177.09,95.07,178.05,95.05,179Z"/><path class="cls-134" d="M95.37,175.71c-.07-.76-.38-1.94.5-2a2.14,2.14,0,0,1,2.34,2.36C97.17,176.69,96.19,176.92,95.37,175.71Z"/><path class="cls-133" d="M93.24,175.07c-.08,1.43,0,3-2.12,2.91l-.9-2.89v0a2.52,2.52,0,0,1,1.88-.69A2.07,2.07,0,0,1,93.24,175.07Z"/><path class="cls-135" d="M178.18,88a6.27,6.27,0,0,0-5,1,1.06,1.06,0,0,1-1.41-.12c-2.79-3.58-1.31-8-2.32-11.93-.32-1-.79-1.9-.12-2.9,1-.9.89-2,.68-3.18-.19-1-1.37-2.34.62-2.63,1.45-.21,1.72,1.26,2.21,2.25,1,2-.64,4.65,1.33,6.51l.5.45c.9,1.59.51,3.49,1.22,5.12.45,1.63,1.6,2.91,2.28,4.43C178.18,87.38,178.18,87.7,178.18,88Z"/><path class="cls-136" d="M178.17,87.06c-2.35-.32-2.65-2.18-3-4-1.25-1.85.31-4.17-1-6h0c0-.17,0-.42.08-.48,2.4-1.74,3.92-.41,4.76,1.71C180.84,82.89,180.42,86.18,178.17,87.06Z"/><path class="cls-137" d="M169.33,74.11,170.2,76c.58.76.56,1.61-.22,2s-1.52-.11-2.15-.64c-2.3-3.63-2.77-8-4.76-11.75-.39-2.14-1.33-4.13-1.68-6.29a2.36,2.36,0,0,1,1.13-2.5l.72.11C166.83,62.15,167.93,68.19,169.33,74.11Z"/><path class="cls-138" d="M167.19,50l0,1c-.86.86-1.76,1.64-3.13,1.25a2.68,2.68,0,0,1-1.36-3.09,2.59,2.59,0,0,1,1.49-1.5,2.53,2.53,0,0,1,3.19,1A1.28,1.28,0,0,1,167.19,50Z"/><path class="cls-139" d="M164.19,52.07l3-1c.46,1.88-.85,2.84-2,3.86a1.08,1.08,0,0,1-1.22.3,2.42,2.42,0,0,1-1.2-2.36C163,52.21,163.29,51.61,164.19,52.07Z"/><path class="cls-140" d="M164.19,54.83a2.45,2.45,0,0,0,.93.11c1,2.19-.77,1.82-1.88,2.06l-.07,0c-.78-.35-1.31-1-1-1.8S163.43,54.51,164.19,54.83Z"/><path class="cls-141" d="M167.19,50c-.06-.27-.12-.55-.16-.84a2.69,2.69,0,0,1,1.05-2,3.38,3.38,0,0,1,.84,0c-.42,1.23,2.2,3-.7,3.8Z"/><path class="cls-142" d="M136,18.38l1.12,1.71a5.46,5.46,0,0,1-1.15,4c.24,1.17,1.23,1.78,1.95,2.59,3.32,3.22,7.49,5.41,10.71,8.75,1.37,1.42,2.91,2.71,3.49,4.7L154.2,43c.78,1,.42,1.82-.59,2.43-3.55.23-4.5-3.26-6.84-4.77-3.69-4.93-9.39-7.56-13.61-11.88A6.06,6.06,0,0,1,131.21,25c.42-2.2-.45-4.53.62-6.68C133.26,17,134.67,16.63,136,18.38Z"/><path class="cls-143" d="M152.14,40.1l-15-13c-.72-1.83,1-2.12,1.87-2.89,4.09,4,8,8.17,13.1,10.92L153.2,37C152.85,38,152.5,39.07,152.14,40.1Z"/><path class="cls-144" d="M139,24.17c-.62,1-1.24,1.93-1.87,2.89-2.66-1.86-2.66-1.86-1.18-3Z"/><path class="cls-145" d="M110.14,16.11l9,2c3.14,1,7.08.25,9,4l1,1,.36.69c.07,1.29-.66,1.87-1.82,2.09-6.74-3.24-14.26-4.55-20.81-8.3C107.51,15.85,109.32,17.14,110.14,16.11Z"/><path class="cls-146" d="M128.18,22.06c-2.64-2.16-6.58-1.38-9-4l5-1C127.25,17.34,128.59,19,128.18,22.06Z"/><path class="cls-147" d="M136,18.38c-1.35-.2-2.74-.58-3.81.72-1.67.81,1.32,5.2-3,3.95l0,0c-.23-2.83-.38-5.63,3-6.89,1,1.36,3.55-.9,4,1.75Z"/><path class="cls-148" d="M136.2,17.87c-1-1.34-3.08-.18-4-1.75a9.17,9.17,0,0,1,4.87.42C137,17.13,137,17.77,136.2,17.87Z"/><path class="cls-149" d="M152.89,45.26A2.37,2.37,0,0,0,154.2,43a5.18,5.18,0,0,0,.87.11A13.76,13.76,0,0,1,158.29,46c1.49,2.13,3.26,4.27.14,6.5C154.83,51.44,152.92,49.07,152.89,45.26Z"/><path class="cls-143" d="M157.17,46.05a3.36,3.36,0,0,1-2.1-2.92c2.92,0,7.08-1.92,6.13,4,.18.84-.26,1.14-1,1.17A13.29,13.29,0,0,0,157.17,46.05Z"/><path class="cls-150" d="M160.22,48.14c.33-.34.66-.67,1-1l2,0a2.85,2.85,0,0,1,.95.94l-1,1.18c-.91.93-.67,3.48-2.67,2.69C159,51.29,159.54,49.48,160.22,48.14Z"/><path class="cls-151" d="M164.16,48l-.95-.94c1.63-.29,3.27-1.41,4.87,0a2.05,2.05,0,0,1-1.05,2Z"/><path class="cls-152" d="M175.15,99c-1.55.17-1.93-1.4-3-2l-1-.9a.86.86,0,0,1,1.18-.58l1.69.57Z"/><path class="cls-153" d="M172.41,95.57l-1.18.58c-.89-3.89-5.75-.93-7-4.09.83-1.27,2.66-.86,3.5-2.1a9.16,9.16,0,0,1,1.34-2c1.78-.43,1.85,1.37,2.74,2.1a3.33,3.33,0,0,0,3.52.13c1.49.17,3,.37,3.71,2C176.72,93.12,174.16,93.58,172.41,95.57Z"/><path class="cls-154" d="M175.28,90.16c-1.36.76-2.47,2.82-4.34.79a1.43,1.43,0,0,1,1.33-1.79,7,7,0,0,1,.91-.1C173.58,90,174.46,90,175.28,90.16Z"/><path class="cls-155" d="M90.33,11.91l.88-.8c2.68,3,2.26,6.79,2.3,10.29.17,14.24,0,28.49.09,42.73,0,1.79-.43,3.66.63,5.3a4.21,4.21,0,0,0,1.93.48c2.08-.13,4.13,1.25,6.23.12,2.1-1.74,3-4.26,4.32-6.53,2.29-1.82,1.35-6.45,5.66-6.5,1.35,2,.25,3.76-.57,5.5A100.4,100.4,0,0,1,104.21,75c-1.13,1.85-3.86,1.22-4.92,3.19a2.3,2.3,0,0,1-2-.41c-6.55-3.48-11.42.18-16.27,3.84-2,1.49-2.88,4.13-5.28,5.21-1.29.58-2.55.86-3.65-.38-.63-1.09.26-1.87.57-2.77.18-.75,0-1.53.17-2.29a6.89,6.89,0,0,1,2.06-2.33c2.36-2.34,5.9-4,4.93-8.28a2.3,2.3,0,0,1,1.74-1.08c6.56,2.11,8.32.83,8.3-6.05,0-1.63-.12-3.27-.11-4.92.1-6.15-.34-12.29,0-18.42-.12-3.22-.07-6.43,0-9.65-.08-1.66,0-3.32,0-5,0-.78,0-1.57,0-2.35s0-1.5,0-2.25c0-1.43.07-2.86,0-4.3a4,4,0,0,1,.32-2.75Z"/><path class="cls-156" d="M91.13,16.08v5a4.79,4.79,0,0,1-5.35.68c-.77-.54.09-2.07-2.36-1.82-9.3,1-17.52,5.25-26.33,7.68-1.23-.32-1.41-1.25-1.38-2.32.15-2.88,2.65-3.08,4.52-3.58A9.13,9.13,0,0,0,64.15,20h0c3.23-1.45,6.75-1.89,10.08-3L76.93,16C81.67,15.42,86.41,14,91.13,16.08Z"/><path class="cls-157" d="M91.13,16.08,76.93,16c4.2-2.14,8.73-2,13.25-1.9C90.49,14.73,90.81,15.4,91.13,16.08Z"/><path class="cls-157" d="M74.21,17c-3,2.13-6.57,2.48-10.08,3a4.88,4.88,0,0,0,.09-.93C67.52,18.27,70.67,16.67,74.21,17Z"/><path class="cls-158" d="M107.05,17.17a88.29,88.29,0,0,1,21.16,8c2.63,1.38,1.36,3.43.93,5.34-.9,1.73-1.34,4-4,3.72,1.36-7.43-4.46-7.92-9.17-9.55a15.19,15.19,0,0,0-5.67-1.3c-3.65-.24-7.21-1.24-10.89-1.22-1,0-2-.32-2.4,1.05a20.51,20.51,0,0,0-.46,2.56c0,.7,0,1.39,0,2.09,0,1.25,0,2.5.07,3.76,0,1.65,0,3.3.09,5-.28,3.24.74,6.65-1.32,9.64a1.28,1.28,0,0,1-1.62-.56c-.44-9.84-1.5-19.69.56-29.47,3.44-1.18,6.59,1.4,10,.77C105.21,16.55,106.19,16.24,107.05,17.17Z"/><path class="cls-159" d="M94.23,16.13l.09,30c1.68,2,1.38,4.39,1.21,6.63-.45,6,1.37,12.16-1.17,18-.36.72-.53,2.64-1.6.82-.75-1.29-.55-3.21-.56-4.85,0-16.82,0-33.64,0-50.46,0-1.74.7-3.7-.94-5.18C91.74,9,92.4,9.48,93,11S92.43,14.76,94.23,16.13Z"/><path class="cls-160" d="M107.05,17.17l-2.83-.27,2.12-1,3.8.17C109.39,17.28,108.11,16.91,107.05,17.17Z"/><path class="cls-161" d="M43.19,63.07c-1.44-.86-3.26-1.21-4-3-.16-.3-.35-.68-.21-.92,4.48-8.1,11.11-14,18.93-18.77a2.72,2.72,0,0,1,2.39.19c2.39,2.27,4.65,4.62,4.47,8.29-1.16,2.76-3.77,4.06-6,5.72-4.11,3.1-7,7.4-10.61,10.93A2.66,2.66,0,0,1,45,64.32,40.38,40.38,0,0,1,58.27,48.93c-5.62,3.75-9.85,8.87-13.83,14.23A1,1,0,0,1,43.19,63.07Z"/><path class="cls-162" d="M60.17,41.06c-3.44-.34-5.45,2.36-7.44,4.2-4.91,4.54-10.15,8.86-13.55,14.82l-6-3c.11-.21.21-.42.31-.63C39.11,49.75,44.41,42.77,52,38c1.65-1,3-2.61,5.27-2.29C59,37.06,60.62,38.5,60.17,41.06Z"/><path class="cls-163" d="M33.19,57.06l-3-2A4,4,0,0,1,30.65,53,86.4,86.4,0,0,1,49.58,33.56c1.65-1.27,3.35-2.89,5.78-1.65,1,2-.25,3.14-1.58,4.13A89.61,89.61,0,0,0,33.22,57Z"/><path class="cls-164" d="M33.2,41.06l7.13-7.87A30.2,30.2,0,0,1,49.17,27l.06.24c1,.46,1.57,1.12,1.14,2.29a4.74,4.74,0,0,1-1.52,1.92c-7.55,5-13.38,11.64-18.69,18.85-.86,1.16-1.7,3.17-3.88,1.76l-.15-1Z"/><path class="cls-165" d="M26.28,52c3.2-1.2,4.37-4.31,6.13-6.77,4.79-6.69,11.21-11.51,17.78-16.21.81-1.15,1.87-2.33,3.07-.79,1.07,1.36-.23,2.51-1.31,3.24A86.42,86.42,0,0,0,35.32,46.3c-1.91,2.17-5,4-4.13,7.75l-1,1A4.47,4.47,0,0,1,26.28,52Z"/><path class="cls-166" d="M22.1,55.17,23.21,54c5.4,1.6,9.75,5.15,14.61,7.76,1.71.91,3.58,1.52,5.37,2.27,3.15,2.22,8.28,1.82,9.2,7a2.68,2.68,0,0,1-1.23.74c-4.19.15-6.79-3.14-10.19-4.7-2.69-1.64-5.57-3-8.12-4.84a9.74,9.74,0,0,0-2.72-1.63,14.34,14.34,0,0,1-1.67-1c-1.78-1.71-4.81-1.22-6.26-3.52C22.16,55.78,22.13,55.48,22.1,55.17Z"/><path class="cls-167" d="M52.25,71.05c-2-3.61-6.56-4-9.06-7v-1h1c.6.06.74.58,1,1l3,1c1.85.28,3.26,1.56,5,2.22,1.25.78,2.7,1.41,2.38,3.32C54.6,72,53.5,72,52.25,71.05Z"/><path class="cls-24" d="M14.14,85c-1.54,1.47-.67,3.42-1,5.13A10.21,10.21,0,0,0,9.34,87c1.74-4.14-.8-9.21,2.84-12.93,3.33,0,3-3.58,4.92-5a2.15,2.15,0,0,1,.82,1.25c.23,1.59-.49,3-.93,4.45C15.68,78.05,16.48,81.94,14.14,85Z"/><path class="cls-168" d="M8.18,86.05c-1.65-1.41-.74-3.32-1-5C8.86,82.46,8,84.36,8.18,86.05Z"/><path class="cls-169" d="M17.29,70.1c-.07-.35-.13-.71-.19-1.06.47-1.34-.31-3,1-4.12,2.28-2.52,2.84-5.83,4.05-8.84,2.45.7,5.18.75,7,3-2.56,5.83-5.26,11.61-7.08,17.73a20.28,20.28,0,0,0-1,4.75,12.93,12.93,0,0,1-.32,1.4c-.72,2.6,0,5.35-.73,7.95a2.47,2.47,0,0,1-.9,1.16,6.51,6.51,0,0,0-4-1c-1.78-1.8-.56-4.09-1-6.11a26.47,26.47,0,0,1,2-11,2,2,0,0,1,.27,2.37C16.27,75,18,72.72,17.29,70.1Z"/><path class="cls-170" d="M31.19,54.05c-3.23-.85-1.76-2.36-.59-3.91A88.08,88.08,0,0,1,51.09,30.68c.67-.46,2.23-.69,1.32-2.05-.16-.24-1.45.27-2.22.43l-1-1.84,4-1.15c.33.34.66.67,1,1a4.25,4.25,0,0,1,2.65,3.78,2.65,2.65,0,0,1-.43,1.31.91.91,0,0,1-1.21-.09c-4,.55-6.67,3.55-9.37,6C40.49,43,35.18,47.93,31.19,54.05Z"/><path class="cls-88" d="M56.19,32.05q-1-2.49-2-5a1.8,1.8,0,0,0,.91-1.92.68.68,0,0,1,1.07-.05,2.13,2.13,0,0,0,1,2,5.73,5.73,0,0,1,1.73,2A6.87,6.87,0,0,1,60,33a2.71,2.71,0,0,1-.65,1.23C57.52,34.56,56.64,33.62,56.19,32.05Z"/><path class="cls-157" d="M56.15,25.11l-1.07.05c-1.66-2.05.07-2.58,1.47-3,2.51-.8,5.07-1.43,7.61-2.13C62.58,23.43,57.49,21.33,56.15,25.11Z"/><path class="cls-171" d="M28.2,131.11l1.95-1.1a2,2,0,0,1,2-.28c4.3,8.94,11,15.84,18.59,22,1.4,1.14,3.65,1.76,3.45,4.26l-2,3c-4-3.35-9-5.55-12-10-4.24-5.5-9-10.63-12-17Z"/><path class="cls-172" d="M28.2,132a76.18,76.18,0,0,1,12,17c-4.4-3.08-7.62-7.29-10.66-11.59C28.47,136,26.92,134.25,28.2,132Z"/><path class="cls-173" d="M22.24,136.06l-1-1c1.33-1.59,3.33-2,5.05-3l-.06,4A3.07,3.07,0,0,0,22.24,136.06Z"/><path class="cls-161" d="M64.11,140l-2.92,4c-5.79-.31-10.63-2.42-14-7.32a57.42,57.42,0,0,0-5-5.57c-1.72-1.91-2.5-3.94-.79-6.28A11.77,11.77,0,0,1,44,122.4c1.72-.83,3.29-2.21,5.44-1.48,4.55,4.68,8,10.5,13.91,13.82a3.53,3.53,0,0,1,1.72,3.36A2.47,2.47,0,0,1,64.11,140Z"/><path class="cls-174" d="M42.2,125.05c-.82,1.51-1.53,3,0,4.51,5.64,5.34,9.39,13.29,18.71,13.57.09,0,.16.59.24.91q-2.49,4-5,8c-7.61-4.65-13.4-11.13-18.48-18.33-1.22-1.74-2.77-3.4-1.86-5.83C37.88,126.75,39,123.55,42.2,125.05Z"/><path class="cls-175" d="M36.2,128.06c3.71,7.8,8.8,14.5,16,19.43,1.78,1.22,3.85,2,4,4.56a5.42,5.42,0,0,1-2,4c-8.27-6.59-16.4-13.28-21.56-22.83-.6-1.11-1.13-1.95-.43-3.11A3.79,3.79,0,0,1,36.2,128.06Z"/><path class="cls-176" d="M62.19,149c0-.34,0-.69,0-1a16.45,16.45,0,0,1,3-7c-.37-.94.23-1.25,1-1.47a2.12,2.12,0,0,1,1.32.46,2.82,2.82,0,0,1,.32,2.07,20.45,20.45,0,0,1-4.32,7.14A1.06,1.06,0,0,1,62.19,149Z"/><path class="cls-177" d="M66.18,140l-1,1-1-1c0-.65.07-1.29.1-1.94.92-1.58.32-4.18,3.06-4.54a1.82,1.82,0,0,1,1.33.67C69.61,136.9,68.49,138.72,66.18,140Z"/><path class="cls-178" d="M89.14,171.89c.21-2.17-.87-3-2.94-2.85-5.25.39-10-1.57-14.87-3.1-5.06-1.6-10.09-3.26-15.14-4.9,1.13-1.58.69-4.12,3-5,1.8-1.54,3.79-1.07,5.65-.32,7.24,2.92,14.51,5.68,22.36,6.52a5.27,5.27,0,0,1,3.47,1.81,8.73,8.73,0,0,1,0,7.75A.91.91,0,0,1,89.14,171.89Z"/><path class="cls-179" d="M90.18,164c-8.4-1-16.59-2.73-24.26-6.54A11.92,11.92,0,0,0,59.18,156c0-2.78,2.78-4.33,3-7h1a68.84,68.84,0,0,0,23.32,7.36,5.58,5.58,0,0,1,4.39,2.89C91.47,161,91.6,162.63,90.18,164Z"/><path class="cls-180" d="M20.2,95.07h4c.77,4.24.82,8.55,1.32,12.82.57,4.81,1.15,9.54,3.35,14,1,1.93,1.85,4,.33,6.11l-4,2.05c-5.44-9.8-7-20.65-8.72-31.49C15.91,95.11,19.46,96.75,20.2,95.07Z"/><path class="cls-181" d="M89.14,171.89a3,3,0,0,0,1-.06,36.2,36.2,0,0,0,.09-14c-.38-2.43-.92-4.89,1.12-6.93A1.79,1.79,0,0,1,93,152.39c.56,7.57,1.7,15.18-.88,22.63l-1.94,0c1-2.4-.7-2.09-2.09-2.1C88.47,172.6,88.81,172.25,89.14,171.89Z"/><path class="cls-34" d="M75.16,171.06c-1.28.54-2.71,1.56-3-1C73.3,170,74.42,169.94,75.16,171.06Z"/><path class="cls-179" d="M29.18,128c-.28-5.34-4.58-9.49-4.49-15,.11-6-3.06-11.88-.51-17.94l0,0A3.91,3.91,0,0,1,29,94.58,2.15,2.15,0,0,1,29.74,96c-.2,8,.56,15.79,3.7,23.25.76,1.82,1.5,3.71.73,5.75Z"/><path class="cls-182" d="M34.17,125a64.82,64.82,0,0,1-5.9-22.79c-.17-2-.88-4.34.92-6.16a3.29,3.29,0,0,1,4-.39c2.16,8.49,4,17,5.39,25.71l-.36.76C36.93,123.17,35.89,124.56,34.17,125Z"/><path class="cls-183" d="M38.19,124.05c0-.64,0-1.29,0-1.93l0-.06c2.1-2.37,4.94-3.64,7.61-5.18,2-.81,3.88-2.41,6.27-1.13.73,1.06.13,1.86-.49,2.66-2.8,2.34-6.54,3-9.33,5.41C40.93,124.29,39.63,125.41,38.19,124.05Z"/><path class="cls-173" d="M38.19,124.05a6.27,6.27,0,0,0,4-1,1.48,1.48,0,0,1,2.06,0c-.67.67-1.34,1.33-2,2-2.4.2-3.81,2.37-6,3l-4,2-2-.07C32.52,127.6,36.59,127.49,38.19,124.05Z"/><path class="cls-184" d="M161.14,129.12c-1,.35-2,1.38-3.09,0a88,88,0,0,0,7.26-23.44c1.17-3.1-.34-6.62,1.49-9.61a1.93,1.93,0,0,1,2.35-.19,55.21,55.21,0,0,1-.86,13.15c0,2.22-1.39,4-2,6C165.53,120.08,163.38,124.62,161.14,129.12Z"/><path class="cls-153" d="M169.15,95.92l-2,.1c-1.26,1.23-2.85,1.33-4.47,1.31a7.59,7.59,0,0,1-3.12-.61,2.35,2.35,0,0,1-1.05-1.15,3.85,3.85,0,0,1-.17-1.58,3.44,3.44,0,0,1,.62-1.46c1.27-1.21,2.61-1.79,4.18-.47-1,1.57-2.5,3.27,1.24,3C166,95,167.77,94.52,169.15,95.92Z"/><path class="cls-185" d="M163.17,92.06a6.4,6.4,0,0,0-4,1,1.61,1.61,0,0,1,.27-2.6,4.68,4.68,0,0,1,1.45-.53,30.67,30.67,0,0,1,5.42-.15,4.42,4.42,0,0,1,2.83,1.28c-1.4,1.66-3.32.69-5,1Z"/><path class="cls-186" d="M167.32,130.92,166.2,132c-.89-1-4.6,2.61-3.26-2l1.18-1A4.15,4.15,0,0,1,167.32,130.92Z"/><path class="cls-187" d="M147.18,125c3.32,2.33,7.13,4,10,7-.63,4.68-3.93,7.77-6.67,11.18-5,6.17-11.55,10.6-17.36,15.86L131.19,156c-1.61-3,.49-4.59,2.36-6.24,5.23-4.61,10.62-9.05,14.82-14.7,1.7-2.28,2.52-4.42-.75-6.07a3.77,3.77,0,0,1-1.94-3C145.89,125.29,146.18,124.64,147.18,125Z"/><path class="cls-47" d="M148.18,152a5.36,5.36,0,0,1-4,2,3.89,3.89,0,0,1,2.81-2.15Z"/><path class="cls-188" d="M160.38,135.2l1.76.9c0,1.19-.57,1.88-1.83,1.88C160.33,137.05,160.36,136.13,160.38,135.2Z"/><path class="cls-189" d="M146.15,126.06l2,2c.53,2.52-1.49,3.89-2.68,5.54a58.4,58.4,0,0,1-17.32,16.47c-2.37-1.31-2.69-4-4-6-.25-3.8,3-5,5.37-6.31,3.38-1.92,6.07-4,7.65-7.73a17.44,17.44,0,0,1,4.84-6.19A4.48,4.48,0,0,1,146.15,126.06Z"/><path class="cls-190" d="M128.16,150.07a4,4,0,0,1,2.26-3.66c8.3-3.85,12.22-11.86,17.74-18.35,4.27,1.38,4.27,3.52,1.76,6.93-4.36,5.92-9.77,10.69-15.33,15.37-1.79,1.51-3.74,2.88-3.4,5.65A11.83,11.83,0,0,1,128.16,150.07Z"/><path class="cls-191" d="M142.16,124.07c-1.19,4.19-5,6.85-6.21,11.25-.72,2.53-5.43,2.2-7.71,4.57-1.34,1.4-3.1,2.41-4.09,4.18l-2-1.09a4.15,4.15,0,0,1-1.89-3,4.61,4.61,0,0,1,.17-2.15c2.15-3,4.25-5.81,7.88-7.62s6-5.43,7.68-9.3A6.59,6.59,0,0,1,142.16,124.07Z"/><path class="cls-192" d="M121.19,140.06l1,2.92c1.78,6.1,5.25,11.36,8.46,16.72,1.44,2.39.38,2.39-1.44,2.35,0-.34,0-.67,0-1a19.16,19.16,0,0,1-3.73-4.59c-.88-1.27-1.34-2.76-2.14-4.07-1.43-2.22-2.36-4.73-4-6.86-1.67-1.87-2.43-4.28-3.84-6.31a57.07,57.07,0,0,0-5.15-8.77c-3.13-4.52-5.1-9.67-8-14.33a8.64,8.64,0,0,1-1.52-2.31c2.12-4.4,3.48-.61,5.1.46,2.6,1.87,3.79,4.71,5.16,7.43A164.93,164.93,0,0,0,121.19,140.06Z"/><path class="cls-193" d="M144.08,121.1l-5-3c6.11-.2,6.88-5,8.25-9.42s.73-9.37,4-13.17a6,6,0,0,1,5.6,0c2.43,4.34.8,8.79-.2,13a94.41,94.41,0,0,1-3.42,9.86c-1.89,5.29-2.16,5.4-7.37,3.39A7.75,7.75,0,0,1,144.08,121.1Z"/><path class="cls-194" d="M144.08,121.1c6.67.93,6.43.84,9.06-6.09a65.54,65.54,0,0,0,4-18.87,1.86,1.86,0,0,1,2.36-.28l2.7.16c1.67,10.22-.88,19.67-5.33,28.74-.67,1.37-2,2.31-3.71,1.3Z"/><path class="cls-195" d="M151.14,96.15c-1.07,5.61-2.26,11.18-3.62,16.74-1.26,5.11-3.49,6.88-8.42,5.19l-1.14-.77a4.33,4.33,0,0,1,.52-1.33c2.63-4.79,3.74-10.07,4.72-15.35.45-2.39,1.07-4.45,3.54-5.43C148.36,94.83,149.92,94.7,151.14,96.15Z"/><path class="cls-196" d="M153.14,126.06c2-.08,2.55-1.49,3.26-3.14,3-6.9,5-14,4.84-21.57-.05-1.77.61-3.55.94-5.33h5c-.46,3.34,1,6.87-1,10-.72-.74-1.21-1.52-.55-2.63-1.52,8.8-2.8,17.6-8.55,24.87A7.5,7.5,0,0,1,153.14,126.06Z"/><path class="cls-197" d="M157.08,128.31c3.47-9,7.14-18,7.92-28.49,1.73,2.41.92,4.42,1.18,6.25-1.28,8.2-2,16.59-8.12,23.09Z"/><path class="cls-198" d="M127.14,113.07c.92,2.33,3.8,2.14,5.11,4a2.52,2.52,0,0,1-1.23.74,7.39,7.39,0,0,1-4.15-1c-4.94-3-10.32-5.3-15.11-8.61a19.71,19.71,0,0,1-2.1-1.88c-1.72-3.77,1-2.63,2.76-2.49,1.32.38,2.6.87,4,1.14a14.7,14.7,0,0,1,3.21,1.11,10.16,10.16,0,0,1,3.28,2.29C124.05,110.1,126.15,111.09,127.14,113.07Z"/><path class="cls-199" d="M131.15,117.09l1.1,0c5.57,1.55,9.87,5.48,14.93,8l-1,1-4-2-6-3C133.45,121.07,131.44,120.17,131.15,117.09Z"/><path class="cls-200" d="M132.21,114l-5-2.1c-.93-.34-1.51-.89-1.19-2a2.59,2.59,0,0,1,1.18-.56,6.28,6.28,0,0,1,1.3,0c3.05.81,2.8-3.81,5.6-3.41,2.15,2.8,1,5.38-.49,8A1,1,0,0,1,132.21,114Z"/><path class="cls-199" d="M125.87,110.22l1.35,1.71c0,.38,0,.76-.08,1.14-1.91-1-4.1-1.77-4.92-4.12C123.93,108,125,108.68,125.87,110.22Z"/><path class="cls-195" d="M132.21,114l1-.07a2.29,2.29,0,0,1,2-.46c1.52.7,3.25,1.23,3,3.46l-.27.35C135.87,116.52,133.52,116.19,132.21,114Z"/><path class="cls-178" d="M126.18,156c1.29,1.5,2.79,2.87,3,5-9.49,3.83-18.94,7.75-29.4,8.1-1.63.06-3.33.7-3.57,2.83l-2,.19-.55-.6a3.32,3.32,0,0,1,.48-3.75c3.83-1.21,8,.81,10.76-1.09-2.85,1.07-6.8.68-10.74.52a2.52,2.52,0,0,1-.53-2.22c.58-1.86,2-2.48,3.8-2.65,8.43-.83,16.7-2.33,24.42-6.07A5.31,5.31,0,0,1,126.18,156Z"/><path class="cls-178" d="M106.31,171.11c-1.87,1.44-4,.89-6.12.92C102,170.24,104.25,171.3,106.31,171.11Z"/><path class="cls-201" d="M92.16,175c0-6.6,0-13.2,0-19.8,0-1.44.39-3-1-4.16-2.75-5.06-1-10.44-1.15-15.7,1.06-3,.61-6.16.75-9.25.1-2.08-.37-4.33,1.49-6,2.8.63,2.26,3,2.21,4.79-.38,13.72.89,27.47-.76,41.17-.22,1.88-.64,4,.45,5.83v.25c0,1,0,2-.07,2.93-.29,0-.58,0-.88,0Z"/><path class="cls-202" d="M105.44,174.89a1.92,1.92,0,0,1-.42-1c-.09-.94.75-.8,1.33-.78s1.36.18,1.38,1S107.05,175,105.44,174.89Z"/><path class="cls-203" d="M29.19,95.07l-5,0,0-1A3.88,3.88,0,0,1,27,92.79c2.24-.21,4.49.1,6.72-.21,1.24-.28,1.7-1.6,2.78-2.09a2.87,2.87,0,0,1,2.8.33c1.62-.41-1.66,3.38,1.51,1.75,1.54-.79,3.22-.14,4.85-.07,7.84.35,15.68.41,23.3-2a4.19,4.19,0,0,1,1.23-.75c6.26,3.13,6.32,4,.53,8.53a6.58,6.58,0,0,1-2.24-.93c-2.13-1.31-4.5-.85-6.78-.94C50.87,96,39.94,97.6,29.19,95.07Z"/><path class="cls-84" d="M19.17,92c0-.32,0-.65,0-1a3.39,3.39,0,0,1,.95-.73,5,5,0,0,1,1.2-.22,5.76,5.76,0,0,1,2.43.36,1.61,1.61,0,0,1,.76.92A3.17,3.17,0,0,1,23.2,94C21.6,93.89,19.53,94.69,19.17,92Z"/><path class="cls-204" d="M23.2,94c.34-1,.67-2,1-2.94a2.84,2.84,0,0,1,3.19-.78c2.18,1.34.07,2.48-.18,3.71l-3,0Z"/><path class="cls-205" d="M172.27,89.16,170.94,91c-.49-1-1-1.94-1.49-2.91a11,11,0,0,1-1.18-11c1.16.68,1.93.61,1.93-1C172.21,80.21,170.55,85,172.27,89.16Z"/><path class="cls-58" d="M174.17,77.05c1.83,1.76.68,4,1,6C173.37,81.3,174.49,79.06,174.17,77.05Z"/><path class="cls-206" d="M168.27,77q.58,5.5,1.18,11c-.09,1-.18,2-.28,3l-3-.1c-2.2-1.07-2-3.19-2.3-5.14-1.56-8.84-3.64-17.53-8.68-25.18a2.08,2.08,0,0,1-.26-1.48,3.24,3.24,0,0,1,3.24-1.52c3.42,1.31,3.06,5.71,6,7.39C166.19,68.82,167.14,73,168.27,77Z"/><path class="cls-138" d="M158.11,57.91l-2.89,1.18c-1.77.65-3-.09-1.55-1.57,2.52-2.51,5.23-5.36,9.5-4.47l1,1.79c-1.57.17-1.69,1-1,2.21a2.17,2.17,0,0,0-1,2C160.52,59.64,159.59,57.82,158.11,57.91Z"/><path class="cls-207" d="M158.11,57.91c2.11-2.3,2.79.39,4,1.16.67,2,1.35,4,2,6C159.23,65.14,160.76,59.76,158.11,57.91Z"/><path class="cls-208" d="M163.17,53.05a33.64,33.64,0,0,0-8.55,4.81c-1.57,1.12,0,1,.6,1.23a4.08,4.08,0,0,0-.22.85c-.91,2-2.86,2.68-4.51,3.74-1.16.61-2.23,1.39-3.32,2.1a81,81,0,0,0-8.08,4.42c-.72.46-1.48.83-2.23,1.22a11.29,11.29,0,0,1-1.09.57,15.57,15.57,0,0,0-3.17,1.75,16,16,0,0,1-1.53,1.06,38.86,38.86,0,0,0-4.9,3c-3,1.39-5.81,3.24-8.69,4.92-1,.54-2.06,1.06-3.06,1.65-1.4.62-3.07,2.24-4.26.48-1.53-2.26,1.07-3.64,2-5.37,1.93-2.65,5.32-3,7.69-5,3-1.37,5.51-3.41,8.29-5,4.62-1.54,8.53-4.4,12.63-6.89,1.37-.78,2.82-1.4,4.2-2.15a50.92,50.92,0,0,0,7.82-4.8c1.11-.67,2.34-1.12,3.4-1.87.61-.51,1.16-1.09,1.8-1.57,2.85-2.43.12-4.14-.79-6.09,1.53,0,2.93.08,3.05,2.09-.12,1.11-.68,2.73.26,3.18,1.6.76,1.49-1.75,2.72-2.1l1,2.85Z"/><path class="cls-209" d="M125.23,34.12c1.72-.8,2-2.62,2.94-4,1.84-1.29.94-4.69,3.94-5.08-.12,1.56,1.5,2,2,3.16a27.27,27.27,0,0,1-1.77,2.7c-.23.36-.49.71-.73,1.05a24.22,24.22,0,0,0-1.8,3.37c-.88,1.71-2,3.25-2.95,4.93-.63,1.1-1.2,2.24-1.79,3.37a45.22,45.22,0,0,0-2.91,4.93c-.47,1-.93,1.94-1.48,2.87a31.68,31.68,0,0,0-2.63,4.41c-.28.57-.59,1.12-.89,1.68a10.73,10.73,0,0,1-.64,1.09A22.24,22.24,0,0,0,114,62.86a8.54,8.54,0,0,1-.66,1.09,38.13,38.13,0,0,0-3.2,5.54c-1,1.65-2.12,3.23-3.19,4.83a7,7,0,0,1-1.71,2c-1.07.23-1.64-.39-2.07-1.23,2.5-4.34,5-8.67,7.49-13,.88-1.56,1.77-3.16,1.47-5.08-.61-2.15.81-3.8,1.41-5.65a5.24,5.24,0,0,1,.78-1c1.43-1.35,2-3.2,2.94-4.88a9,9,0,0,1,.68-1.12,32.92,32.92,0,0,0,2.7-4.54C122.32,38,122.59,35.07,125.23,34.12Z"/><path class="cls-210" d="M158,52.14a1.69,1.69,0,0,1-.76,1.93c-2.75,1.3-3.7-1-5.11-2.49-3.72-3.87-6.48-8.68-11.18-11.62C139.4,39,138,37.72,136,38.45a11,11,0,0,1-6-3.35,10,10,0,0,1,1.26-4l0,0c1.88-1.51,3.36-.27,4.95.67,4,2.38,7.5,5.4,11.16,8.22,2.61,1,3.37,3.87,5.54,5.28Z"/><path class="cls-211" d="M147.35,40c-4-2.45-8.14-4.8-12.07-7.42-1.3-.86-2.44-1.65-4-1.47.63-1.29,1-2.85,2.88-2.92C138.24,32.44,144,34.87,147.35,40Z"/><path class="cls-212" d="M132.11,25c-1.74,1.36-1.64,4.15-3.94,5.08.09-1.65,1.42-3.3,0-5,.33-.69.65-1.38,1-2.07,2.83.08,1.06-3.37,3-3.95C132.13,21.07,133,23.05,132.11,25Z"/><path class="cls-213" d="M91.12,30.07v10c-2,2.74-5.31,2.3-8.06,3-4.88,1.29-9.51,3.55-14.65,3.83-3.43-2.08-5.86-4.78-5.57-9.14C71.3,31.7,80.84,29.52,91.12,30.07Z"/><path class="cls-214" d="M91.13,60c0,2.16,0,4.33.05,6.49s.23,4.25-2.72,5c-2.75.69-5.37,1.86-7.24-1.44-3.82-1.57-3.81-6-6.29-8.52-.68-1.88-1.92-3.63-1.36-5.8,3.89-4.53,9.13-5.5,14.7-5.47,1.87,0,2.51,1,2.18,3A14.84,14.84,0,0,0,91.13,60Z"/><path class="cls-215" d="M91.13,60c-1.16-.77-.54-2.32-1.2-3.11-1.48-1.79.5-5.42-.72-5.28-3.12.36-6.67-1.1-9.46,1.39-1.63,1.45-4.26,1.06-5.57,3.06-2.28.51-2.78-1.53-3.88-2.7-1-2.34-3.68-4.22-2.12-7.31,7.64-2,15.11-4.73,22.95-6Z"/><path class="cls-216" d="M114.33,51.33c0,2.15-1.61,3.69-2.19,5.62-2.49,1.81-2.24,5.5-4.93,7.18-1-1-.59-2.1-.34-3.22,1.08-4.86-.3-7-5.12-8.48-2.1-.64-4.75.23-6.26-2.15a6.32,6.32,0,0,1,0-3.92c.79-2.24-1.31-5.77,1.53-6.7a12.23,12.23,0,0,1,10.87,2.06c2.52,1.88,4.16,5,6.51,7.28C115,49.57,114.77,50.57,114.33,51.33Z"/><path class="cls-217" d="M91.12,30.07c-7.83,1.88-16,2.26-23.39,6-1.48.75-3,1.36-4.53,2-2.36-.85-3.92-2.21-3.27-5a3.34,3.34,0,0,1,1.14-1,81.32,81.32,0,0,1,24.87-7.74c1.83-.24,3.6-.63,5.14.78C91.09,26.72,91.1,28.4,91.12,30.07Z"/><path class="cls-218" d="M80.1,81c3.12-2.77,6.46-5.11,10.75-5.66,2.66-.34,5.32-.7,7.26,1.82-.6.82-1.64,1.17-2.18,2-.59,1.66.43,2.57,1.65,3.19,2.63,1.34,3.76,3.61,4.26,6.35a5.69,5.69,0,0,1,.17,1.42,2.52,2.52,0,0,1-.9,1.89,1.6,1.6,0,0,1-1.33-.2c-4-5.6-6.32-6-12.24-2.32a2.56,2.56,0,0,1-2.3.55c-1.8-1.89-1.26-4.81-3-6.74C81.69,82.41,80.61,82,80.1,81Z"/><path class="cls-219" d="M103.24,71.18c-2.43,2.46-4.65-.6-7-.27a3.6,3.6,0,0,1-.89-1.46,76.58,76.58,0,0,1,.12-12.76c2.69-2.56,5.59-2,7.88.21,2.63,2.5,3.94,5.77,2.29,9.47C104.91,68,103.63,69.37,103.24,71.18Z"/><path class="cls-220" d="M103.24,71.18a8.1,8.1,0,0,1,.24-2.44c3.48-8.15,1.59-11.47-7.29-12.68-1.33-1.33-1.07-2.87-.58-4.45l.55-.58c5.22-1.43,8.93,1.43,12.64,4.39,1.06.85.75,1.62.4,2.61-.72,2-1.33,4.06-2,6.1A17.64,17.64,0,0,1,103.24,71.18Z"/><path class="cls-156" d="M91.08,25a75.66,75.66,0,0,0-25.74,6.45c-1.66.73-3.2,1.78-5.14,1.55-1.19-2.55.66-3.78,2.36-4.67a52.65,52.65,0,0,1,27.27-6.05,2.54,2.54,0,0,1,1.27.75C91.1,23.73,91.09,24.39,91.08,25Z"/><path class="cls-221" d="M91.1,23.07a71.49,71.49,0,0,0-25.81,5.19C63.2,29.11,60.47,30,60.2,33l0,0c-.35.45-.68.43-1-.06l-1-3.93c2.65-3,6.3-4,9.92-5.26,3.92-1.34,8-2.29,11.89-3.54a5.11,5.11,0,0,1,5.19.78h5.94C91.11,21.73,91.11,22.4,91.1,23.07Z"/><path class="cls-222" d="M71.19,98.07a1.59,1.59,0,0,1,0-.49,7.44,7.44,0,0,0-1-7.56,1.69,1.69,0,0,1,0-2.34,5,5,0,0,1,2-1.63,2.64,2.64,0,0,0,3,0,4.85,4.85,0,0,1,1.3,3.37c.58,4,1.1,8-.42,12a4.29,4.29,0,0,1-.91,1.17c-1.11.67-2.22,1.29-3.49.33C70.53,101.4,69.73,99.85,71.19,98.07Z"/><path class="cls-223" d="M73.24,82a2,2,0,0,1,.9,2c-1.14,1-2.3.38-3.47.08C65,81,59.14,78.13,53.92,74.23a2.74,2.74,0,0,1-.22-1.44c1.18-2.18,2.7-1.06,4.19-.46,3,1.23,6,2.72,9,4C69.22,78,71.65,79.52,73.24,82Z"/><path class="cls-224" d="M80.14,71.13c3.9,6.06-3.18,6-5,8.92l-.41-.55c3.87-5.72.55-10.32-2.35-15-.35-.56-.7-1.12-1-1.71a4.5,4.5,0,0,1-.56-2.74,2.32,2.32,0,0,1,1.56-1.35c2.06.19,2.46,1.93,3.14,3.39C77.08,65.12,79.46,67.7,80.14,71.13Z"/><path class="cls-225" d="M96.19,70a6.49,6.49,0,0,1,0,.88l-1.88-.13q0-12.31,0-24.64c.26-.08.52-.16.78-.22,1.1,1.66.34,3.52.57,5.28C96,57.47,95,63.78,96.19,70Z"/><path class="cls-226" d="M80.14,71.13c-1.85-2.92-4.25-5.54-5-9.06-.32-1,.13-1.26,1-1l5,9Z"/><path class="cls-227" d="M75.16,90.08l0-4c2.47-.9,2.75-3.9,4.91-5.09,1.11.15,2.36-.13,3.08,1.1-1.47,1.4-3.18,2.55-4.26,4.33-1.12,1.1-1.55,2.67-2.57,3.84A1,1,0,0,1,75.16,90.08Z"/><path class="cls-228" d="M103.18,75.05l2,1c.42,2.1-1.06,2.55-2.58,3a5,5,0,0,1-2.25-.17,2.15,2.15,0,0,1-1.13-1C98.57,74.23,101.64,75.7,103.18,75.05Z"/><path class="cls-224" d="M73.24,82a11.5,11.5,0,0,1-6.08-4.92l.55-.44c3.14-.3,5.21,1.75,7.46,3.4h0Z"/><path class="cls-224" d="M71.15,83.13l3,.87-1.94,2a2.05,2.05,0,0,1-1,2A3.42,3.42,0,0,1,71.15,83.13Z"/><path class="cls-229" d="M99.21,77.91a3.68,3.68,0,0,0,.93.2.85.85,0,0,1,.24.82c-.07.28-.15.41-.23.41-1.73,1-3.22.4-4.63-.71L95.14,78c.73-1.14,1.88-.93,3-.91Z"/><path class="cls-170" d="M85.18,21.06c-7.6.39-14.62,3-21.57,5.81l-5.43,2.21a2.1,2.1,0,0,1-1-2A79.21,79.21,0,0,1,90.3,18.13C88.75,20.88,86.1,19.25,85.18,21.06Z"/><path class="cls-230" d="M95.26,51.14c-.05-1.74-.1-3.48-.16-5.22l.12-9.86a2.57,2.57,0,0,1,2.39-1.46c6.54-.08,12.9.47,18.74,3.88,2.92,1.71,4.29,3.58,1.92,6.68l0-.06c-1.66,1.59-2.1,3.84-3.13,5.77a1.41,1.41,0,0,1-.83.46c-.21-1.57-.78-2.88-2.53-3.23-1.2-.24-2.6-.86-2.75-1.86-.94-6.72-6.92-4.2-10.57-5.84-1.64-.74-2.27.69-2.28,2.23,0,2.8,0,5.6,0,8.4h0C95.91,51.49,95.61,51.5,95.26,51.14Z"/><path class="cls-231" d="M125.23,34.12c-1.44,1.94-1.66,4.68-4,6-1.25-1.39-.41-2.74.06-4.1,1-1.91.79-3.38-1.35-4.36-2.53-1.14-5-2.52-7.86-2.44a6.58,6.58,0,0,1-3.25-1c-1.46-1.19-3.29-1-5-1.28-.45-.08-.88-.19-1.31-.31-1.76-.58-3.61-.3-5.4-.56a4,4,0,0,1-1.87-.94l.87-2.07c2.74-2,5.67-.82,8.55-.52,1.86.2,3.81,1.42,5.47-.5,5.51.2,10.24,3,15.29,4.69,1.33.45,1.71,1.38,1,2.7S124.93,32.39,125.23,34.12Z"/><path class="cls-232" d="M122.15,36.06c-.3,1.36-.6,2.73-.91,4.09-.55,1.93-1.14,3.83-3,5,.65-2.38.4-3.85-2.25-5.37-6.6-3.79-13.6-4-20.8-3.73,0-1.67,0-3.34,0-5a1.65,1.65,0,0,1,1.32-.14c3.71,1.18,7.45,1.65,11.25.34A21.8,21.8,0,0,1,122.15,36.06Z"/><path class="cls-233" d="M96.16,31l-1,0,.06-4c4.68-.51,9.32-.6,13.81,1.21,1,.4,2.16.92,3.13-.2,3.95-.58,6.92,2.08,10.24,3.38,3,1.16,1.08,3.12-.27,4.62-5.1-.94-9.62-4.05-15-4-1.3,1.19-2.67.46-4,.18-2-1.3-4.21-.87-6.34-1.11Z"/><path class="cls-234" d="M110.17,22.08c.83,1,2.13,1.94-.7,2.06-4.51.2-8.81-1.72-13.32-1-1.58-3.19.45-2.69,2.41-2.43C102.43,21.18,106.3,21.61,110.17,22.08Z"/><path class="cls-235" d="M112.18,28.06c.12.57.42,1.78,0,1.61-5.46-2.25-11.48-.68-16.94-2.62,0-.63,0-1.26,0-1.88l1.9-.1c1.84,1.28,4.15-.25,6,1h0c1.83,1.32,4.15-.28,6,1C109.9,28.24,111.09,28,112.18,28.06Z"/><path class="cls-236" d="M52.19,68c-1.48-.79-3.25-1.18-4-3,3.43-7.25,9.93-11.43,16-16,2.89.35,3.49,2.35,3.49,4.8C62,58,57.45,63.39,52.19,68Z"/><path class="cls-237" d="M67.24,54c-.34-2.06-1.73-3.49-3-5-.34-3.17-3-5.16-4-8l-3-5c-1.88-.94-1.85-2.37-1-4h0l3,2.05c4.51,5.89,7.15,12.92,11.4,19,.56,2,3.22,3.4,1.66,6l-1,1C69.2,58.48,67.36,56.82,67.24,54Z"/><path class="cls-236" d="M45.19,64l-1-1c3.31-8.14,10.08-12.58,17.34-16.53C54.83,51.21,50.82,58.39,45.19,64Z"/><path class="cls-175" d="M56.15,32.06a7.31,7.31,0,0,0,1,4A62.57,62.57,0,0,0,37.3,53.91c-1.07,1.51-2,3.06-4.08,3.12C36.9,47.3,45.27,41.77,52.67,35.41c1.14-1,2.53-1.57,2.51-3.33Z"/><path class="cls-238" d="M54.16,73.07l.06,1c-.33,6.36-3.16,12-5.49,17.72a12.77,12.77,0,0,1-9.54-.65h-3a1.72,1.72,0,0,1-2.29,0c-2-6.54,2.19-20.77,7.31-25,3.64,1.06,6,4.61,10,5C52.09,71.89,53.46,72,54.16,73.07Z"/><path class="cls-239" d="M41.2,66.07a54.86,54.86,0,0,0-7,25c-1,1.18-2.38,1.23-3.78,1.16a3.22,3.22,0,0,1-2.17-1.06l-4,0,0-.06a5,5,0,0,1-1-4.21c.89-7.64,2.38-15.11,6-22,.88-1.7,1.45-3.86,4-3.75Z"/><path class="cls-175" d="M33.19,61.07c-4.92,6-6.63,13.34-8,20.75-.54,3-.71,6.15-1.05,9.22h-3c-2.11-3.52-.74-7.06,0-10.54a73,73,0,0,1,6.59-18.1c.54-1,1.09-2.07,2.38-2.36C31.29,60.09,32.48,59.88,33.19,61.07Z"/><path class="cls-240" d="M30.2,60.05c-4.64,9.86-9.47,19.66-9,31h-1a17.93,17.93,0,0,1,0-9h0c1.23-1.49-.17-3.5,1-5,1.68-6.44,2.88-13.09,8-18Z"/><path class="cls-224" d="M54.16,73.07a3.11,3.11,0,0,1-3-2l1.06-.06c1.08,0,2.25.17,2.94-1,4.86.1,8.35,3.13,12.08,5.66A1.19,1.19,0,0,1,67.21,77l0,0c-3.93-.25-7-2.72-10.49-4.12C55.69,72.56,55,72,54.16,73.07Z"/><path class="cls-241" d="M67.18,76.06l-12-6-3-2c3.85-5.92,8.22-11.28,15-14,1.29,2,3.58,3.39,4,6,.32.68.63,1.36,1,2-.7,2.37-2.68,3.63-4.41,5.13-2.21,1.93-4.18,3.89-.78,6.58A1.79,1.79,0,0,1,67.18,76.06Z"/><path class="cls-242" d="M17.29,70.1c2.39,2.79-1.13,5.21-.28,7.91-1.34-1.22-.52-2.73-.87-4.06C16.52,72.67,16.9,71.39,17.29,70.1Z"/><path class="cls-175" d="M20.19,82.05v9h-1C19.63,88.07,18.19,84.87,20.19,82.05Z"/><path class="cls-175" d="M21.19,77.05c-.24,1.69.67,3.6-1,5C20.43,80.37,19.53,78.45,21.19,77.05Z"/><path class="cls-243" d="M70.15,53.07c-5.18-5.45-7.6-12.5-11-19,0-.36,0-.73,0-1.09l1,.06c-.06,2.31,2.28,3.16,3,5,.82,3.19,3,5.52,5,8,.35,2.62,2,4.65,3,7A.65.65,0,0,1,70.15,53.07Z"/><path class="cls-244" d="M67.35,134l-3.14,4.05c-.09-1.69-1.22-2.28-2.57-3.14a35.16,35.16,0,0,1-12.46-13.89c-.51-1.8,1.17-1.77,2-2.44,2.22-1.33,3.89-4,7.09-2.9,3.45,3.22,6.09,7.27,10.1,9.93A4.06,4.06,0,0,1,70.16,129,5.52,5.52,0,0,1,67.35,134Z"/><path class="cls-245" d="M51.19,119.06l-2,2-5,2-2.06,0,9-5a.68.68,0,0,1,.29.72C51.36,118.94,51.28,119.06,51.19,119.06Z"/><path class="cls-246" d="M90.18,159c-6-2.89-12.83-2.22-18.92-4.77-3.08-1.28-5.9-2.69-8.08-5.24a22,22,0,0,1,4-7c8.63-.55,16.24,2.46,23.49,6.71C90.42,152.17,91.23,155.65,90.18,159Z"/><path class="cls-247" d="M90.18,148a15.51,15.51,0,0,1-8.46-1.92c-3-1.56-5.85-3.21-9.62-2.29-1.41.35-3.28-1.14-4.94-1.8,0-.65,0-1.31,0-2,2-3.08,2.25-7.41,6.37-9,6.17-.12,11.61,2.38,17.11,4.72C90.39,139.88,91.26,144,90.18,148Z"/><path class="cls-93" d="M73.18,132c-2.73,2.14-3,6.08-6,8l-1,0c.82-1.94,2.34-3.64,2-6,1-1.95,2.23-3.78,3.35-5.67,1.91-3.5,4.07-6.89,5-10.84.69-2.59,1.09-5.09-1.07-7.32a2.25,2.25,0,0,1-.35-3.12c3.64-.16,5,3.09,7.27,4.9.14,2.7-2.31,4.64-2.15,7.35A41.36,41.36,0,0,1,73.18,132Z"/><path class="cls-248" d="M72.24,129.07c-.93,2-1.88,4-4,5l-.43,0h-.43c.64-1.62,1.27-3.25,1.9-4.87.65-.93.86-2.3,2.37-2.38A1.38,1.38,0,0,1,72.24,129.07Z"/><path class="cls-249" d="M90.18,148v-13c-.28-1,.24-1.22,1.06-1.19a.77.77,0,0,1,.23.8c-.1.26-.19.38-.28.38q0,8,0,16c0,5.43,0,10.85,0,16.27,0,1.54.72,3.35-1.07,4.5l.09-7.79V148Z"/><path class="cls-250" d="M29.19,95.07c12.06,0,24.12-.06,36.18,0,1.75,0,4.2-1.07,4.82,2-5.34,1.27-10.73,0-16.09.42-3.65.14-7.3.13-11,0-3.36-.15-6.9.89-9.95-1.43h-4Z"/><path class="cls-251" d="M33.2,96.06h10c2.26,5.87,2.24,12.24,4,18.24a4.25,4.25,0,0,1-1,3.69c-2.79,1.09-4.77,3.76-8,4.07C35.79,113.54,32.89,105.11,33.2,96.06Z"/><path class="cls-252" d="M46.17,118c0-5.42-2.1-10.48-2.9-15.78-.33-2.11-.77-4.08-.07-6.15h11c7.65,1.41,5.12,8.54,7.33,13-.05,1.54-1.16,2.43-2.11,3.42-2.42,1.14-4.44,3.1-7.22,3.5C49.89,115.78,48.15,117.23,46.17,118Z"/><path class="cls-253" d="M52.19,116a10.86,10.86,0,0,1,7-4c3.39-2.35,6.7-4.88,11-5.5A1.51,1.51,0,0,1,71.46,108c-3.84,3.65-8,6.69-13.27,8.06-2.78,0-4.34,2.78-7,3,0-.36,0-.73,0-1.09C51.49,117.31,51.84,116.65,52.19,116Z"/><path class="cls-254" d="M151.14,96.15h-5a11.14,11.14,0,0,1-6.62,1.29c-.57,0-1.13,0-1.7,0-2.54-.1-5.08.11-7.62,0a108.67,108.67,0,0,0-15.92.81,1.86,1.86,0,0,1-.37-1.68c.91-2.52,3-2.82,5.29-2.87,4-.1,8,0,12-.08,3.41,0,6.81,0,10.22,0,4.24,0,8.48,0,12.72,0,1.81,0,3.61,0,5,1.4.1.27.2.54.31.81l-2.35.27Z"/><path class="cls-255" d="M159.13,92c0,.36.05.73.07,1.11s0,.64,0,1c-5.87,1.06-11.79.21-17.68.48-2.09-.71-4.89,1.55-6.42-1.53,2.08-1.89,4.66-1.25,7.07-1.31,5.09-.13,10.19.09,15.29-.16A2.91,2.91,0,0,1,159.13,92Z"/><path class="cls-185" d="M141.17,94.06h18c0,.34,0,.67,0,1l-18-.11c-.3-.21-.4-.41-.29-.6S141.06,94.06,141.17,94.06Z"/><path class="cls-256" d="M150,62.94l5-3c2.24.14,2.69,1.83,3.53,3.55,4.24,8.72,5.94,18.09,7.59,27.5l-6,.05c-1.4-1.47-1.13-3.37-1.41-5.16C157.48,77.61,155.4,69.62,150,62.94Z"/><path class="cls-257" d="M150,62.94c2.14-.15,3.35,1,4.11,2.86,3.27,8.12,7,16.13,6.1,25.24a4,4,0,0,1-.92.07,4,4,0,0,1-3.71.46c-2.66-3.48-2.15-7.88-3.13-11.8A69.76,69.76,0,0,0,147,64.93,4.35,4.35,0,0,1,150,62.94Z"/><path class="cls-258" d="M155.16,91l4.09.1-.12.87q-.48,0-1,.09c-6,1-12,.28-18.06.43a27.15,27.15,0,0,0-7.72.9c-4,.1-7.92.11-11.88,0-1.74-.06-3.76.17-4.52-2.11,3.54-3,7.75-1.35,11.67-1.66,1.78,0,3.57-.12,5.35,0,2,0,4,0,6,0,1.71-.06,3.42-.08,5.13,0,2,0,4,0,6,0C152,89.68,153.77,89.57,155.16,91Z"/><path class="cls-259" d="M131.15,117.09c1.14,2,3.39,2.59,5,4,.28,2.3-.6,4-2.16,5.75-3.82,4.3-9.28,6.69-12.84,11.24-3.5-1.82-4.93-5-5.51-8.63,3.9-4.41,9-7.83,11.52-13.39Z"/><path class="cls-260" d="M116.17,129.05a20.07,20.07,0,0,0,5,9c0,.67,0,1.34,0,2-5.73-4.74-8-11.58-10.93-18C114.46,122.5,114.93,126.1,116.17,129.05Z"/><path class="cls-261" d="M116.17,129.05c-2.92-1.54-2.68-5.74-5.91-7-1.91-2.14-2.27-5.43-5.05-6.94-.68-1.22,0-2.24.44-3.32,1.94-1.88,3.06-4.91,6.51-4.71,4.76,3.4,10.52,5.13,15,9C126.42,122.83,121.2,125.86,116.17,129.05Z"/><path class="cls-261" d="M103.15,115.06l8,15c.94,1.71.72,3.41-1,4.13-4.75,2-9.48,4.55-14.91,2.28-1-1.34-1.08-2.6.34-3.71,2.32.07,4.42-1.43,6.62-1-2.16-.69-4.26,1.4-6.59.69-2.31-1.72-1.08-4.22-1.42-6.37,0-1.17,0-2.33,0-3.5C94.22,115.9,96.12,114.32,103.15,115.06Z"/><path class="cls-262" d="M106.18,112c-.33,1-.65,2-1,3.06-1.37-.25-1.59-4.95-4-1-1.21,2.18-3.53,1.22-5.28,1.87a5.06,5.06,0,0,0-5,.69A10.33,10.33,0,0,1,84.31,115c-1.2-.65-1.21-2.16-2.15-3-3.32-.27-4.27-3.86-7-5l-.4-.5c-.61-.72,1.71-2.39-.81-2.49-.31-1.11.61-1.48,1.23-2l0,0a1.26,1.26,0,0,1,1.24-.33,14.18,14.18,0,0,1,4.06,3.49c2.32,2.48,5,3.57,8.37,2.64a39.53,39.53,0,0,0,7.75-.83c3.62.34,7.51,1.47,9.27-3.34a6.54,6.54,0,0,1,1.38-3.12,32.44,32.44,0,0,0,2.81-3,7.42,7.42,0,0,1,2.5-2.21c1.59-.59,2.6-.33,1.62,1.69l.24,1.22a1.92,1.92,0,0,1,.1,2c-1.57,1.18-1.15,3.33-2.31,4.71l-2.2-.52.21,1.66C110.24,109,107.07,109.73,106.18,112Z"/><path class="cls-263" d="M95.19,136c4.76.72,9-1.35,13.48-2.35a3.05,3.05,0,0,0,2.52-3.66,20,20,0,0,1,5,9c1.13,1.76.06,2.91-1.29,3.66-5.29,3-11.15,4-17.08,4.82a2,2,0,0,1-2.34-1.43C94.87,142.77,93.05,139.44,95.19,136Z"/><path class="cls-189" d="M120.17,145.05c2,1.94,2.63,4.69,4,7-9.41,4.64-18.88,9.05-29.86,7.44-1-1.16-.48-2.56-.59-3.86.55-1.42.24-3,1-4.4C103.68,151.05,111.59,146.64,120.17,145.05Z"/><path class="cls-264" d="M120.17,145.05c-.13,1.12-.66,2-1.86,1.92-4.58-.36-8,2.95-12.2,3.73-3.6.68-7.21,2.53-10.92.34-1.7-2.29-.88-5.06-1.47-7.56,0-5.65-.11-11.3.06-16.95a.89.89,0,0,1,1.4-.49c.33,2-.81,4.25,1,6q.5.33.33.66t-.33.33c-1.17.72-1,1.9-1,3a10.06,10.06,0,0,0,0,2c.56,2.83,1.18,5.65,1.78,8.48,3.15-2.46,7.45.09,10.5-2.33,1.57-1.25,3.42-1,5.08-1.74s3.58-1,3.61-3.39C118.62,140.31,118.35,143.38,120.17,145.05Z"/><path class="cls-265" d="M94.2,159A58.09,58.09,0,0,0,116.53,154c2.35-1.07,5.08-1.32,7.64-1.94l2,4c-9.6,4.11-19.35,7.61-30,7.66-.66,0-1.31.88-2,1.35A7.89,7.89,0,0,1,94.2,159Z"/><path class="cls-263" d="M95.18,126h-1c-.09-3.69-2.68-7.61,1-11,2.05,0,4.12.12,6-1a2,2,0,0,1,2,1C95.19,117.19,95.19,117.19,95.18,126Z"/><path class="cls-200" d="M139.16,96.13h7c-2.49,4.52-2.07,9.86-4.07,14.5-1,2.26-.44,5.51-3.83,6.32l-3.06-2.9C136.22,108,137.58,102.05,139.16,96.13Z"/><path class="cls-266" d="M114.16,100c.09-.6.17-1.21.25-1.82,4.82-4,10.46-1.6,15.74-2,1.52,3.4-.28,6.45-1,9.61a10.66,10.66,0,0,1-1.61,3.3c-4.18-.33-4.18-.33-2.41-7.33-.73,1.46-.66,3-1.44,4.26-1.22,2-2.93.73-4.45.75l-2.94-.8C113.92,104.6,112.1,103,114.16,100Z"/><path class="cls-267" d="M119.23,106.78c1.64-.29,3.75-2.47,6.57-6.77,1.29,2.88-4.27,6.8,1.37,9,.25.21.33.43.24.64s-.17.31-.25.31l-1.29.23L122.22,109Z"/><path class="cls-268" d="M114.16,100c-.7,2.49,1,4.12,2.13,5.94l-4.09-1.09C112.57,103.16,110.13,100.29,114.16,100Z"/><path class="cls-269" d="M106.18,112c.08-2.85,3.12-3.72,4-6a2,2,0,0,1,2,1Q109.16,109.55,106.18,112Z"/><path class="cls-267" d="M128.17,106l2-9.85,8,0c1,1.88.57,3.86.26,5.77-.48,3-.69,3.06-3.17,1.25-.28-.2-.13.19-.14.25a3,3,0,0,1-1.94,2.64c-1,2.16-.49,6.21-5,4C128.19,108.71,128.19,107.37,128.17,106Z"/><path class="cls-270" d="M133.18,106.06c1.89-2.49.24-5.8,1.82-9,2,2.46.55,5,1.53,7.09,2-2.41,1.62-5.24,1.64-8l1,0a29.28,29.28,0,0,1-4,17.94l-1.95-.1C132.75,111.33,135.76,108.68,133.18,106.06Z"/><path class="cls-270" d="M128.17,106c1.41,1.33,1.41,2.66,0,4l-1-.06c0-.32,0-.63,0-.95C127.21,107.94,127,106.76,128.17,106Z"/><path class="cls-271" d="M95.21,115.09c-1.33,3.56-1,7.27-1,11q0,9,0,18a27.85,27.85,0,0,1,0,11v12c.36.23.47.45.36.67s-.23.34-.35.34c0,1.29,0,2.59,0,3.88-1.75-1.42-1-3.39-1-5.11-.06-13.87,0-27.74-.06-41.61,0-1.74.65-3.69-1-5.14l-.66-.27a2.5,2.5,0,0,1-.4-3.75C92.07,114,93.09,112.15,95.21,115.09Z"/><path class="cls-265" d="M94.21,168c0-.34,0-.67,0-1,4-1,8,.56,12-1C102.46,169,98.23,167.73,94.21,168Z"/><path class="cls-272" d="M91.19,135c0-.33,0-.65-.06-1-2.51-5.29-2.09-11.22,1-14l0,0C91.63,125,93.37,130.17,91.19,135Z"/><path class="cls-273" d="M49.19,91.05c-.46-6.31,2.75-11.53,5-17,6.09,2.2,11.13,6.35,16.93,9.11V88a2,2,0,0,0-1,2c0,.34,0,.67,0,1C63.16,92.34,56.17,93.61,49.19,91.05Z"/><path class="cls-214" d="M61.18,109c-3.62-.52-1.31-3.6-1.74-5.17-.94-3.43-3.07-5.52-5.25-7.82,5.32.49,10.78-1.11,16,1l1,1c.33,1.66.66,3.33,1,5,.32,2-1.41,2.28-2.61,3C66.68,106.77,64.7,110.08,61.18,109Z"/><path class="cls-204" d="M49.19,91.05l21,0c-3.51,3.82-8.34,2.08-12.48,2.55-6.43.74-13,.2-19.54.2.37-.91.72-1.8,1.07-2.69Z"/><path class="cls-274" d="M28.22,91.13l2,0c1,.76,2.24.36,3.37.47,1.55.16,2.7.57,1.59,2.45H27.21C26.07,92.55,27.54,92,28.22,91.13Z"/><path class="cls-204" d="M35.15,94c-.25-3.35-3.89-1-5-2.92l4-.07,2,.06C36.15,92.17,36.4,93.36,35.15,94Z"/><path class="cls-275" d="M130.18,35c2.43.14,4,1.9,6,3a7.1,7.1,0,0,1,4.91,2.08,76.37,76.37,0,0,1,10.69,11c1,1.29,2.36,2.92,1.45,5a15.53,15.53,0,0,1-8,5c1.63-3.69.12-6.5-2.4-9.15C138,46.85,132.67,42.43,126,40l3.13-5C129.46,34.55,129.83,34.58,130.18,35Z"/><path class="cls-276" d="M126,40a4,4,0,0,1,4.62.28c5.27,4.17,10.93,7.74,15.14,13.3,2.49,3.3,2.33,5.18-.52,7.51-1,1.33-2.47,1.72-4,2,.67-3.73-1.19-6.13-3.67-8.76a109,109,0,0,0-13.21-11.3Z"/><path class="cls-277" d="M106.14,74.08c1-1.7,1.51-3.72,3.15-5,2.06-1.55,2.49-4.11,3.79-6.14H113a5.78,5.78,0,0,1,1.31-.61c4.8,1.26,7.7,4.52,9.42,9a1.83,1.83,0,0,1-.76,1.12c-1.49.54-2.51-.34-3.58-1.22.44.71,1.12,1.21,1.34,2a2.2,2.2,0,0,1-.5,2c-1.62,2.68-5.32,2.36-7.06,4.87C109.24,80.6,107.53,79.15,106.14,74.08Z"/><path class="cls-278" d="M124.33,43.08c8.61,2.39,12.88,10.06,18.83,15.64,2.65,2.48-3,2.13-1.95,4.42-3.87,3.17-7.91,6-12.9,7.17-.58-.72-.23-1.31.26-1.89A69.85,69.85,0,0,1,135,64.06c3.9-1.79,1.95-3.8.14-5.66a55.84,55.84,0,0,0-13.76-10.33Z"/><path class="cls-279" d="M155.16,91h-5c-2.45-5.43-2.34-11.47-4.19-17.08-1.24-3.76-2.48-5.27-6.19-3.2a2,2,0,0,1-1.88-.82,28.45,28.45,0,0,1,9.06-5c2,0,2.15,1.75,2.77,3A51.07,51.07,0,0,1,155.16,91Z"/><path class="cls-280" d="M106.14,74.08c2,2.44,3.37,5.55,7,6-1,1.31-1.91,2.61-2.9,4,2,1.6,2.69-1,4.07-.87a12.92,12.92,0,0,1,1.74,8c5.24,2,10.72.22,16,1,.86.77,2.21,0,3,.9,1.77,1.78,4,.66,6,1,0,.3,0,.6,0,.89l-10-.06c-4.27-1.69-8.73-.66-13.09-.8-3.1-.1-5.84-.6-7.82-3.19a6.41,6.41,0,0,1-.81-1.19,54.3,54.3,0,0,0-3.92-7.13c-.63-1.84-3.27-2.2-3.32-4.47a3.16,3.16,0,0,0,3-2.06A2.1,2.1,0,0,1,106.14,74.08Z"/><path class="cls-281" d="M116.09,91.16c-1.36-2.51-2.54-5-1.74-8L117,82c.74-.46,1.78-.15,2.34-.54s2.39,3.42,1.59-.6c-.3-1.56,2-1.69,3.53-.83,2.77,1.62,4.71,7.43,3.68,10.89Z"/><path class="cls-282" d="M144.17,91h-5a7.12,7.12,0,0,1-2.33-4.24c-1.09-4.62-2.32-9.19-5.77-12.74l1.23-.91c1.22-.82,2.88-.86,3.85-2.12l0,0c3.16-1.36,4.2.72,4.86,3.11,1.4,5.09,3.41,10,4.59,15.14C145.58,90.22,144.87,90.6,144.17,91Z"/><path class="cls-283" d="M129.17,69c-.29.42-.58.84-.86,1.27a18.65,18.65,0,0,1-8.07,4.88l-.06-2.13c.75-1.07,2.22,0,3-1h0c-.06-3.79-1.84-7-3.78-10-1-1.64-2.48-3-3.07-4.94-.25-.56,0-.91.48-1.15,2.13-2.71,4-2.21,6.48-.1C127.46,59.38,132.11,62.43,129.17,69Z"/><path class="cls-284" d="M131.06,74c3.16,1.77,5.35,4,5.71,8,.27,3,1.56,6,2.39,9h-6c-2.59-4.59-3.3-10.15-7.24-14A9.22,9.22,0,0,1,131.06,74Z"/><path class="cls-285" d="M125.93,76.94c4.65.25,4.27,4.8,5.95,7.4A9.91,9.91,0,0,1,133.17,91l-5-.07c.39-3.37-1.79-5.81-3.18-8.51-.53-1-1.19-2.83-2.84-2s.48,2.35-.44,3.94C120.5,82.78,119,81.68,117,82A31.81,31.81,0,0,1,125.93,76.94Z"/><path class="cls-286" d="M145.17,90.05c-2.65-4.33-3.34-9.36-5-14-.77-2.17-.42-5.19-4.06-5,.3-.87,1-1,1.8-1.1l2.27.14c4.39.44,5.16,4.22,6.21,7.3.89,2.62,1.12,5.43,2.23,8.09C149.81,88.31,148.72,90.29,145.17,90.05Z"/><path class="cls-211" d="M153.23,56.13c-3.7-7.9-10.23-13.12-17-18.08.47-2.83,1.68-1.29,3-.63,6.11,3,9.57,8.75,13.88,13.57,1.22,1.36,2.05,3,4.13,3.08A6,6,0,0,1,153.23,56.13Z"/><path class="cls-286" d="M136.14,71c-.63,1.89-2.16,2.15-3.85,2.12A6.53,6.53,0,0,1,136.14,71Z"/><path class="cls-287" d="M129.17,69a4.11,4.11,0,0,1-.24-1.47c1.45-6.65-4.73-8.34-7.79-12.06-1.73-2.12-2.87.52-4.34.43A11.68,11.68,0,0,1,120,51c3-1.34,5.53.58,7,2.32,3.12,3.58,9.06,5.4,8.18,11.77C133.12,66.31,131.57,68.31,129.17,69Z"/><path class="cls-288" d="M135.17,65.05A26.18,26.18,0,0,0,120,51c.46-1,.93-1.92,1.39-2.89,7.77,1.12,12.29,6.89,16.82,12.3C140.73,63.43,137.82,64.51,135.17,65.05Z"/><path class="cls-289" d="M116.32,57.09c4.45,4,8.27,8.27,6.85,15a16.47,16.47,0,0,0-9-9c-.36-2.08,1.24-3.42,2-5.09A4.2,4.2,0,0,1,116.32,57.09Z"/><path class="cls-289" d="M113.08,62.91c-.5,2.52-.85,5.13-3.79,6.14C110.18,66.78,111.07,64.5,113.08,62.91Z"/><path class="cls-225" d="M115.16,50.87c.13-2.42.7-4.6,3.13-5.77A12.25,12.25,0,0,1,115.16,50.87Z"/><path class="cls-283" d="M116.14,58c0,2-1.29,3.4-2,5.09L113,62.92C113.53,60.94,114.16,59,116.14,58Z"/><path class="cls-211" d="M130.18,35l-1.1,0a5.89,5.89,0,0,1,2.13-3.89A6.85,6.85,0,0,1,130.18,35Z"/><path class="cls-290" d="M70.15,53.07l1,0q1.48,1.52,3,3c.66,1.67,1.33,3.33,2,5l-1,1-2.91-3Z"/><path class="cls-291" d="M85.26,90.11c2.47-1.28,3.45-4.33,7.31-4.24,4.68.12,7.14,1.5,7.7,6.1l-.59.38c-1.88.25-3.55-.76-5.37-.88a5.92,5.92,0,0,0-6.25,5.71,1.49,1.49,0,0,0,1,1.47c2.41,1.13,7.84-.24,9.76-2.52a1.38,1.38,0,0,1,1.49-.2c.18.22.34.44.51.67s.2.53.3.8a4,4,0,0,1-1.21,4.06c-2.74,2.26-14.86.83-17.49-2-.91-2.53.27-4.68,1.3-6.85a6.14,6.14,0,0,1,.93-2Z"/><path class="cls-229" d="M106.16,82.08a20,20,0,0,1,4,6.9c-1.67,3.91-4.26,5.64-8.46,3.55l-.45-.55,0-2c1.47-1.14,4.07-1.42,3.24-4.29.81-1.62-2.8-2.28-.9-4.14A2.39,2.39,0,0,1,106.16,82.08Z"/><path class="cls-292" d="M78.15,86c1.07-2.09,1.92-4.46,5-4,1.45,2.49,2.48,5.08,2.08,8v0a1.51,1.51,0,0,1-1.86.12c-.9-1.39-1.51-3.09-3.57-3.17A2.78,2.78,0,0,1,78.15,86Z"/><path class="cls-229" d="M101.15,89.06c-1.09-2.62-2-5.14-5.22-6.28-2.09-.76-2.45-2.84-.79-4.76l.09.08c1.68,3.09,6,3.08,7.49,6.41C104.08,86.68,103.14,88.05,101.15,89.06Z"/><path class="cls-293" d="M101.15,89.06c-.29-1.47,2.38-2.23,1-4,1-1.8,2.06-1.58,3.1,0,2.71,4.87,0,5.4-4,4.92A7.16,7.16,0,0,1,101.15,89.06Z"/><path class="cls-291" d="M100.27,92a3.09,3.09,0,0,0,1,0l0,.07c.9,1,2.64.75,3.26,2.17-.23,1.74-1.53,2.18-3,2.42a2.17,2.17,0,0,1-1.25-.56l0,0c-.57-1.29-1-2.59-.09-3.91Z"/><path class="cls-216" d="M95.26,51.14a6.91,6.91,0,0,1,.9-.11l0,5V70C94,63.82,95.77,57.43,95.26,51.14Z"/><path class="cls-124" d="M83.3,90.13h2L85.1,92a27.42,27.42,0,0,0-4.19,6.17c-.66,2.51,2.73,2.64,2.78,4.71a2.2,2.2,0,0,1-.37,1.27c-2.88,1.1-4.42-2.67-7.19-2-.32,0-.64-.08-1-.1.4-4,1.36-8,0-12l1.08,0A1.75,1.75,0,0,1,78,90c.38.14.75.31,1.13.46,1.24.46,2.37-.13,3.53-.38Z"/><path class="cls-124" d="M69.19,105.06l3-2,3-1-1,2c-.09,2.66-2,2.53-3.83,2.46C69.49,106.44,69,106.05,69.19,105.06Z"/><path class="cls-294" d="M67.18,76.06a10.32,10.32,0,0,1-.91-1.74c-.56-1.88-4.06-.63-3.52-2.56s2.45-3.81,4-5.42a57.05,57.05,0,0,1,5.37-4.26C74.1,65.28,76,68.51,78,71.69c1.12,1.79,1.13,3.27-.62,4.7-1.13.93-2.23,2-2.21,3.65-3.21.48-4.92-3-8-3Z"/><path class="cls-295" d="M78.3,90.74,76.24,90c0-1.63.06-3.24,1.91-4l2,.06C80.41,88,79.29,89.33,78.3,90.74Z"/><path class="cls-218" d="M106.16,82.08l-3,0c-2.24.3-3.14-.82-3.1-2.93l.06-1h2C103.77,79.13,105.66,79.9,106.16,82.08Z"/><path class="cls-296" d="M100.08,79.13a7.42,7.42,0,0,0,3.1,2.93c.18,1.34,3.12.81,2,3a2.73,2.73,0,0,0-3.1,0c-1.76-1-2.56-3.25-5.17-3.37-1.7-.09-1.8-2.06-1.72-3.61Z"/><path class="cls-233" d="M109.16,27.09c-2-.35-4.24.77-6-1C105.18,26.39,107.43,25.23,109.16,27.09Z"/><path class="cls-233" d="M103.18,26.06c-2-.3-4.24.79-6-1C99.19,25.37,101.42,24.26,103.18,26.06Z"/><path class="cls-297" d="M103.18,31.07c1,1.45,2.61.85,4,1-2.27,2-8.8,1.36-11-1h0A11.17,11.17,0,0,1,103.18,31.07Z"/><path class="cls-232" d="M103.18,31.07l-7,0A5.81,5.81,0,0,1,103.18,31.07Z"/><path class="cls-298" d="M58.19,116.05a77.74,77.74,0,0,1,13-8c1-1.63,2.27-2.3,4-1h0c.27.74.31,1.8.84,2.17,3.65,2.56,2.93,5.57,1.14,8.77s-2.84,6.8-6,9.1l-2,2.07c-1.41-4.13-6.06-5.2-8.2-8.69C60.13,119,58.19,118.16,58.19,116.05Z"/><path class="cls-299" d="M92.13,120c-2,4.55-.43,9.36-1,14l-1,1a10,10,0,0,1-8.47-1,14.69,14.69,0,0,0-8.53-2c.78-4.87,4.91-8.19,6-12.92,1.8-1.56.8-5.9,5-5.06l6.9,2Z"/><path class="cls-300" d="M71.21,127.09c1.58-3.3,3.06-6.66,6-9.1,0,4.42-2.88,7.57-4.92,11.08C72.15,128.28,72,127.5,71.21,127.09Z"/><path class="cls-301" d="M84.21,114.06c-3.11.26-2.48,4.24-5,5.06-.36-2.93,1.67-4.85,3-7.09C84,111.58,83.52,113.4,84.21,114.06Z"/><path class="cls-302" d="M69.19,105.06l1,1.06c.31.23.41.44.28.63s-.23.28-.35.28c-3.74,1.51-6.93,4.22-11,5-.1-1.52,1.42-1.92,2-3Z"/><path class="cls-303" d="M70.17,107a9.06,9.06,0,0,1,.07-.91,6.8,6.8,0,0,0,4-2.05c2.65.24.57,2,1,3a6.7,6.7,0,0,0-4,1Z"/><path class="cls-304" d="M110.25,90.12c4,3.55,8.91,2.84,13.69,3,2.45.06,5.37-1.16,7.15,1.8-3.92,0-7.84.23-11.74.1a6.19,6.19,0,0,0-5.18,2c-.12-.83-.27-1.88-1.37-.87-.82.76-1.23,2-2.64,1.94-.19-.18-.37-.37-.55-.56a9.28,9.28,0,0,1-.31-6.15A3.3,3.3,0,0,1,110.25,90.12Z"/><path class="cls-305" d="M135.15,93.07c-1.08,0-2.22.09-3-.9l26-.1c-4.74,2.1-9.73.55-14.59.94C140.79,93.24,138,93.06,135.15,93.07Z"/><path class="cls-306" d="M145.17,90.05c3.24-1.31,3.68-3,1.62-6.07s-.66-7.65-3.59-10.8c-1-1.07-1.66-2.43-3-3.14a33.65,33.65,0,0,1,3.76-2.25c1.17-.51,2.72-.07,2.7,1.2-.11,7.56,4.37,14.36,3.53,22h-6Z"/><path class="cls-263" d="M96.18,133v-1c1.94-.13,3.67-1.65,5.85-.72C100.42,133.12,98.29,133,96.18,133Z"/><path class="cls-307" d="M107.17,104c-2.3,4.64-4.56,5.54-10,3.93-.48-1,.17-1.65.82-2.28a9.94,9.94,0,0,0,3-2.39c1.12-1.29,1.1-3,1.44-4.47.41-1.83,1.38-2.8,3.34-2.53a20,20,0,0,1,3.3.92,4.65,4.65,0,0,1,1.07.86h0a2.84,2.84,0,0,1-2,2.92,1.57,1.57,0,0,0-2.34,1C105.23,103.38,106.26,103.66,107.17,104Z"/><path class="cls-308" d="M98.18,106.06l-1,1.91a21.28,21.28,0,0,1-9,1.06c-2.27-1-4.83-1.81-5-5,0-.33,0-.67,0-1,4.88-2.54,10.14-1.12,15.22-1.47a1,1,0,0,1,1,1,2.28,2.28,0,0,1-1.7,1.44c-2.35.64-4.88-.23-7.71.87,2.7,1.75,5.34-.42,7.62.67Z"/><path class="cls-309" d="M83.19,104.05l5,5c-6.32,1.75-8.65-3.5-12.05-6.87.24-1.84,1-2.29,2.58-1.09C80.14,102.15,81.69,103.06,83.19,104.05Z"/><path class="cls-310" d="M107.17,104c-1,0-1.82,2.3-2.75.76-.85-1.39-.27-3.3.81-4.64,1.41-1.75,2.17-.32,2.89.83C107,101.76,107.24,102.94,107.17,104Z"/><path class="cls-265" d="M94.2,155c0-3.66,0-7.33,0-11,1.84,2.12.59,4.67,1,7C95,152.41,95.64,154,94.2,155Z"/><path class="cls-289" d="M123.17,72.05c-.71,1.17-1.89,1-3,1-1.59-1.09-3.33-2-3.7-4.68C119.54,68.46,120.36,72.23,123.17,72.05Z"/><path class="cls-311" d="M109.2,98c-1.1,0-2.28.21-3-1-1-.75-1.24-2.11-2.12-3a3,3,0,0,1-2.88-2.06c3.66,1,6.55-.37,9-3.07,0,.38.07.76.11,1.14s-.06.62-.08.93C108.51,93.19,110.65,95.86,109.2,98Z"/><path class="cls-312" d="M100.08,92.13c.23,1.3,1,2.58.09,3.91h-1c-2.27-1.88-3.69,1.31-6.49.36,3.13,2.89,4.44-.9,6.49-.36.36,2.91-.73,4.4-3.84,4-.81-.1-1.66.08-2.47,0-2.34-.36-5.83,1.31-6.7-1.27-.6-1.77,1.35-4.65,2.64-6.73,1.54-2.48,4.21-2.3,6.69-1.68A36,36,0,0,1,100.08,92.13Z"/><path class="cls-313" d="M99.11,102.12a63.35,63.35,0,0,0-15.91.93,47.29,47.29,0,0,1-4-3.59c-.9-1,.09-1.32.94-1.48a2.38,2.38,0,0,1,3,0c.18,2.31,1.61,3,3.72,3a67.55,67.55,0,0,1,8.42.06c4,.46,5.43-1.24,4.9-5,.33,0,.67,0,1,0C102.28,98.7,103.89,101.51,99.11,102.12Z"/><path class="cls-314" d="M83.17,98l-3,0c1-2.54,2-5.12,5-6C85.27,94.27,82.53,95.61,83.17,98Z"/><path class="cls-315" d="M78.3,90.74c-.53-2,.39-3.46,1.9-4.65,3-.18,4.54.8,3.1,4l-.11-.07a5.48,5.48,0,0,1-4.76.76Z"/><path class="cls-316" d="M99.11,102.12c3.62-1,1.48-4,2.1-6.05l2.85-2c2.16,0,2.14,1.46,2.12,3-2.89-.61-2.52,1.78-2.9,3.3s.3,3.46-2.15,3.71c-1.16.66-1.93.54-2-1A5.35,5.35,0,0,0,99.11,102.12Z"/><path class="cls-295" d="M78.43,90.82a9.27,9.27,0,0,1,4.76-.76C81.87,92,80.44,93.21,78.43,90.82Z"/><path class="cls-280" d="M109.2,98c.9-2.25-2-5,1-7q0,3.51,0,7Z"/><path class="cls-317" d="M99.13,103.1l2,1c-.06,2-1.53,2-2.95,2v0c-1-.75-3.83-.94-.93-2.93Z"/><path class="cls-318" d="M97.24,103.09c-1.22,1.46.35,2,.93,2.93-2.6,0-5,1.44-7.69,1-1.52-.22-2.59-.84-2.6-2.34s1.37-1.63,2.51-1.65C92.67,103,95,103.08,97.24,103.09Z"/><path class="cls-319" d="M99.19,96.05c-1.15,2.21-2.73,3.62-5.45,3-1-.23-2.67.52-3-1s1-2.55,2.3-2.73a8.37,8.37,0,0,0,4-1.7c2-1.41,2,1,2.15,2.41Z"/></g></g></svg>