<svg xmlns="http://www.w3.org/2000/svg" viewBox="0 0 185.25 187.02"><defs><style>.cls-1{fill:#fefefe;}.cls-2{fill:#584326;}.cls-3{fill:#fdfdfd;}.cls-4{fill:#e4caa4;}.cls-5{fill:#5e4728;}.cls-6{fill:#5f4827;}.cls-7{fill:#604926;}.cls-8{fill:#5c4425;}.cls-9{fill:#5a4224;}.cls-10{fill:#574024;}.cls-11{fill:#684616;}.cls-12{fill:#614725;}.cls-13{fill:#5b4324;}.cls-14{fill:#705733;}.cls-15{fill:#483620;}.cls-16{fill:#362d24;}.cls-17{fill:#745930;}.cls-18{fill:#594225;}.cls-19{fill:#4c3921;}.cls-20{fill:#553e23;}.cls-21{fill:#73512e;}.cls-22{fill:#7a5a32;}.cls-23{fill:#413519;}.cls-24{fill:#352a1f;}.cls-25{fill:#d0ba83;}.cls-26{fill:#dbcb91;}.cls-27{fill:#d2bd86;}.cls-28{fill:#ccb079;}.cls-29{fill:#cdb178;}.cls-30{fill:#b8955f;}.cls-31{fill:#c3ae74;}.cls-32{fill:#cab983;}.cls-33{fill:#e8db9c;}.cls-34{fill:#977343;}.cls-35{fill:#e0d198;}.cls-36{fill:#cfbb81;}.cls-37{fill:#a37f4b;}.cls-38{fill:#bb9d66;}.cls-39{fill:#906c3f;}.cls-40{fill:#9a7645;}.cls-41{fill:#c4a66c;}.cls-42{fill:#8b693d;}.cls-43{fill:#7f6b37;}.cls-44{fill:#6e4e2d;}.cls-45{fill:#816037;}.cls-46{fill:#997443;}.cls-47{fill:#a07e4b;}.cls-48{fill:#826838;}.cls-49{fill:#89653a;}.cls-50{fill:#7a5a33;}.cls-51{fill:#7b5733;}.cls-52{fill:#483621;}.cls-53{fill:#bc995f;}.cls-54{fill:#3d2f1d;}.cls-55{fill:#c5a972;}.cls-56{fill:#825f37;}.cls-57{fill:#8f6a3d;}.cls-58{fill:#977242;}.cls-59{fill:#c6aa72;}.cls-60{fill:#a27f4b;}.cls-61{fill:#9f7b48;}.cls-62{fill:#b3935d;}.cls-63{fill:#aa8a55;}.cls-64{fill:#805f37;}.cls-65{fill:#beaf74;}.cls-66{fill:#928245;}.cls-67{fill:#a6985c;}.cls-68{fill:#57462e;}.cls-69{fill:#393028;}.cls-70{fill:#866239;}.cls-71{fill:#664a2c;}.cls-72{fill:#bcab70;}.cls-73{fill:#403319;}.cls-74{fill:#8e8141;}.cls-75{fill:#a78651;}.cls-76{fill:#917341;}.cls-77{fill:#57442a;}.cls-78{fill:#88673e;}.cls-79{fill:#9c7947;}.cls-80{fill:#3c3019;}.cls-81{fill:#6a5436;}.cls-82{fill:#997746;}.cls-83{fill:#937441;}.cls-84{fill:#ab8952;}.cls-85{fill:#916e40;}.cls-86{fill:#9a7947;}.cls-87{fill:#d7c78f;}.cls-88{fill:#7f5d36;}.cls-89{fill:#d4bd86;}.cls-90{fill:#55492a;}.cls-91{fill:#7f6435;}.cls-92{fill:#352f28;}.cls-93{fill:#614d31;}.cls-94{fill:#4a3b1f;}.cls-95{fill:#bcac6f;}.cls-96{fill:#d9c68f;}.cls-97{fill:#37322a;}.cls-98{fill:#6f5737;}.cls-99{fill:#645329;}.cls-100{fill:#9e8250;}.cls-101{fill:#392e16;}.cls-102{fill:#373029;}.cls-103{fill:#6c5230;}.cls-104{fill:#493924;}.cls-105{fill:#d1bf88;}.cls-106{fill:#c2a067;}.cls-107{fill:#855f37;}.cls-108{fill:#625426;}.cls-109{fill:#322714;}.cls-110{fill:#b5a76a;}.cls-111{fill:#c0a26a;}.cls-112{fill:#745d39;}.cls-113{fill:#b79156;}.cls-114{fill:#cfba82;}.cls-115{fill:#775633;}.cls-116{fill:#302513;}.cls-117{fill:#ada063;}.cls-118{fill:#8d6b3f;}.cls-119{fill:#73502e;}.cls-120{fill:#928247;}.cls-121{fill:#c3a56c;}.cls-122{fill:#3e3b35;}.cls-123{fill:#937241;}.cls-124{fill:#322d28;}.cls-125{fill:#bdad75;}.cls-126{fill:#322715;}.cls-127{fill:#83693c;}.cls-128{fill:#cdbf85;}.cls-129{fill:#ccb078;}.cls-130{fill:#b8a66c;}.cls-131{fill:#d6c18d;}.cls-132{fill:#695929;}.cls-133{fill:#8a693c;}.cls-134{fill:#d8c68f;}.cls-135{fill:#88663b;}.cls-136{fill:#4b4022;}.cls-137{fill:#b5a66a;}.cls-138{fill:#4c4033;}.cls-139{fill:#805e37;}.cls-140{fill:#4a3e31;}.cls-141{fill:#baaa6d;}.cls-142{fill:#c6b980;}.cls-143{fill:#725b31;}.cls-144{fill:#59564d;}.cls-145{fill:#524f47;}.cls-146{fill:#4b4841;}.cls-147{fill:#413f39;}.cls-148{fill:#bfbaa9;}.cls-149{fill:#3b3933;}.cls-150{fill:#989283;}.cls-151{fill:#45433e;}.cls-152{fill:#7d5f39;}.cls-153{fill:#979282;}.cls-154{fill:#947f60;}.cls-155{fill:#5f4c32;}.cls-156{fill:#d2cdb8;}.cls-157{fill:#9f8e5f;}.cls-158{fill:#363029;}.cls-159{fill:#43413d;}.cls-160{fill:#3e3c36;}.cls-161{fill:#766243;}.cls-162{fill:#725733;}.cls-163{fill:#5f5340;}.cls-164{fill:#2d2826;}.cls-165{fill:#3f362c;}.cls-166{fill:#907042;}.cls-167{fill:#745937;}.cls-168{fill:#4c4a43;}.cls-169{fill:#54514a;}.cls-170{fill:#5a584f;}.cls-171{fill:#42403a;}.cls-172{fill:#484642;}.cls-173{fill:#413f3a;}.cls-174{fill:#4a3b27;}.cls-175{fill:#3a332c;}.cls-176{fill:#483a28;}.cls-177{fill:#4a3d1e;}.cls-178{fill:#3b3832;}.cls-179{fill:#4e3e23;}.cls-180{fill:#473a26;}.cls-181{fill:#695235;}.cls-182{fill:#3c3934;}.cls-183{fill:#493b26;}.cls-184{fill:#524f48;}.cls-185{fill:#474540;}.cls-186{fill:#413523;}.cls-187{fill:#856b43;}.cls-188{fill:#3f3d37;}.cls-189{fill:#5a462b;}.cls-190{fill:#4c4942;}.cls-191{fill:#43413c;}.cls-192{fill:#816741;}.cls-193{fill:#4c3d29;}.cls-194{fill:#5a574e;}.cls-195{fill:#525048;}.cls-196{fill:#564c3c;}.cls-197{fill:#866a43;}.cls-198{fill:#525049;}.cls-199{fill:#44413c;}.cls-200{fill:#494640;}.cls-201{fill:#775935;}.cls-202{fill:#2d2418;}.cls-203{fill:#775a37;}.cls-204{fill:#685333;}.cls-205{fill:#423524;}.cls-206{fill:#494641;}.cls-207{fill:#43413b;}.cls-208{fill:#4d4b45;}.cls-209{fill:#3b2d19;}.cls-210{fill:#bbac70;}.cls-211{fill:#39322a;}.cls-212{fill:#938e80;}.cls-213{fill:#887f6e;}.cls-214{fill:#604d35;}.cls-215{fill:#b5b0a1;}.cls-216{fill:#c9c4b1;}.cls-217{fill:#a8a393;}.cls-218{fill:#e5dec6;}.cls-219{fill:#604a2e;}.cls-220{fill:#ac8c54;}.cls-221{fill:#836038;}.cls-222{fill:#6c502f;}.cls-223{fill:#997544;}.cls-224{fill:#e0dac4;}.cls-225{fill:#dad4bf;}.cls-226{fill:#4b4942;}.cls-227{fill:#584b39;}.cls-228{fill:#917342;}.cls-229{fill:#53514a;}.cls-230{fill:#59574f;}.cls-231{fill:#5e5b53;}.cls-232{fill:#e7e2cc;}.cls-233{fill:#4e4b45;}.cls-234{fill:#cfcab7;}.cls-235{fill:#ded8c4;}.cls-236{fill:#47453f;}.cls-237{fill:#474642;}.cls-238{fill:#5c4b34;}.cls-239{fill:#886c44;}.cls-240{fill:#aea99b;}.cls-241{fill:#6c583d;}.cls-242{fill:#6b5334;}.cls-243{fill:#937142;}.cls-244{fill:#a29d8d;}.cls-245{fill:#5e5c54;}.cls-246{fill:#4e4b44;}.cls-247{fill:#47443f;}.cls-248{fill:#413e39;}.cls-249{fill:#474541;}.cls-250{fill:#4c4a46;}.cls-251{fill:#58554d;}.cls-252{fill:#4c3c28;}.cls-253{fill:#9e8451;}.cls-254{fill:#5e5b51;}.cls-255{fill:#544a39;}.cls-256{fill:#6f5c3f;}.cls-257{fill:#85683d;}.cls-258{fill:#545149;}.cls-259{fill:#4d4b44;}.cls-260{fill:#6f573a;}.cls-261{fill:#64533a;}.cls-262{fill:#8a693d;}.cls-263{fill:#755834;}.cls-264{fill:#a17e4a;}.cls-265{fill:#59462e;}.cls-266{fill:#4e3e2a;}.cls-267{fill:#c2beb2;}.cls-268{fill:#b2afa3;}.cls-269{fill:#bab7ad;}.cls-270{fill:#c4beac;}.cls-271{fill:#bab5a5;}.cls-272{fill:#483721;}.cls-273{fill:#5b4529;}.cls-274{fill:#c8ae67;}.cls-275{fill:#bead81;}.cls-276{fill:#a88d5a;}.cls-277{fill:#c7ae6d;}.cls-278{fill:#957546;}.cls-279{fill:#d8d2be;}.cls-280{fill:#5d5a51;}.cls-281{fill:#876d45;}.cls-282{fill:#78603f;}.cls-283{fill:#3e311f;}.cls-284{fill:#8c826e;}.cls-285{fill:#a37e49;}.cls-286{fill:#42331e;}.cls-287{fill:#d3c7a5;}.cls-288{fill:#291e11;}</style></defs><g id="Layer_2" data-name="Layer 2"><g id="Layer_3_Image" data-name="Layer 3 Image"><path class="cls-1" d="M104.2.07c26,0,52,0,78-.07,2.5,0,3.07.56,3.06,3.07-.1,27.66-.06,55.32-.06,83a1.12,1.12,0,0,1-1.46-.07c-3.15-3.18-.77-7.7-2.71-11.18-1.41-2.52-1.05-5.48-2-8.11-3.45-12.57-9.93-23.45-18.55-33.11A89.61,89.61,0,0,0,121.54,7.65c-3.19-1.07-6.51-1.22-9.69-2.13-1.64-.25-3.35-.22-4.81-1.2-.75-.55-1.46-1.16-2.16-1.79S103.62,1.11,104.2.07Z"/><path class="cls-2" d="M182.17,74.36c2.08,3.61.1,8,2.17,11.6a1.56,1.56,0,0,1,.09,1.41,76.68,76.68,0,0,0-.13,11.74,4.58,4.58,0,0,0,.89,1.94v1c-2.33,2.3.66,6.29-2.63,8.28a2.07,2.07,0,0,1-1.08-.94,4.07,4.07,0,0,1-.31-.91,25.2,25.2,0,0,1-.16-7.3c.36-2.86-4.11-2.38-3.26-5.29.23-1.26,1.2-2,2-2.93,1.88-2.48,1.3-5.3.84-8a68.69,68.69,0,0,1-.87-8.2C179.89,75.35,181.06,74.89,182.17,74.36Z"/><path class="cls-3" d="M104.2.07c.33.64.66,1.28,1,1.92a4.37,4.37,0,0,1-3.57,1.41c-6,.14-11.91.11-17.87,0A4.37,4.37,0,0,1,80.2,2l1-1.92Z"/><path class="cls-3" d="M182.24,110.16c2.65-2.1-1-6.49,2.95-8.11v9h-2.82c-.25-.17-.36-.35-.31-.56S182.17,110.16,182.24,110.16Z"/><path class="cls-4" d="M184,87.12c.1-.38.21-.77.32-1.16a2,2,0,0,1,.85.09v15L184,100A53.71,53.71,0,0,1,184,87.12Z"/><path class="cls-5" d="M67.17,4.92c2.14.7,4-1,6.11-.7,1.57.92,3.46-.85,5,.62a1.64,1.64,0,0,1,.17,1.46,4.2,4.2,0,0,1-3.18,1.89c-2.91.17-5.84.21-8.46,1.77-3.17,1.6-7,1.54-9.88,3.82a22.3,22.3,0,0,1-7,2.92c-.39.19-.8.36-1.2.56a83.89,83.89,0,0,0-7.41,5.44,109.35,109.35,0,0,0-15.51,14c-3.29,3.17-4.81,7.61-7.82,11-1.73,2.63-3.4,5.28-4,8.43-.79,2.23-1.54,4.48-3.47,6.06A1.51,1.51,0,0,1,9.14,62c-1.56-1.87.08-4.07-.63-6a2.6,2.6,0,0,1,.63-1.93q3.54-6,7.07-12a48.48,48.48,0,0,1,11.71-14l1.29-1.25c1.48-1.75,2.74-3.72,4.92-4.75s3.43-3.68,6.08-4.15a7.52,7.52,0,0,1,4.11-2.78l1.89-1.23c1.33-1.66,3.31-2.08,5.17-2.74L53.22,10a8.86,8.86,0,0,1,5-1.86l.06,0c.71-1.14,2-.39,2.94-1l.07,0A9,9,0,0,1,67.17,4.92Z"/><path class="cls-6" d="M16.21,145.06l-7-12c-1.38-3.53-3.88-6.65-4-10.67-2.37-1.39.79-2.88-.08-4.29a1.61,1.61,0,0,1,1.61-1.27c3.2,3.27,2.78,8.12,5.14,11.76,1.33,2.89,2.58,5.83,4,8.67a14.81,14.81,0,0,0,1.72,3.36,15.79,15.79,0,0,0,2.1,3A12.41,12.41,0,0,1,20.88,145a15.83,15.83,0,0,0,3.25,3.81c4.66,6.43,11.13,11.1,16.33,17a3.1,3.1,0,0,1-2.14,1.62c-1.26.13-2-.88-3.09-1.29l-1-1.12A36.56,36.56,0,0,1,24.3,155l0,0c-1.24-.74-2.49-1.45-2.84-3L19,149C17.43,148.19,17.2,146.36,16.21,145.06Z"/><path class="cls-7" d="M164.48,151,164,152A33.39,33.39,0,0,1,154.21,162l-.05,0c-.47,1.63-1.76,2.36-3.22,2.88l-2.8,2c-1.59,2.76-4.38,3.84-7.09,5l-10.86,6.17a7.8,7.8,0,0,1-4,1.35,3.29,3.29,0,0,1-2.27-1.61c1.58-3.9,5.84-3.51,8.68-5.41,1.42-.65,2.84-1.3,4.23-2a11.89,11.89,0,0,0,3.8-2.46c5.49-4.15,11.13-8.1,15.71-13.31a46.14,46.14,0,0,0,4.54-4.83,5.38,5.38,0,0,1,3-1.43,2.57,2.57,0,0,1,1.27.37C165.88,149.83,165,150.39,164.48,151Z"/><path class="cls-8" d="M165.2,149,164,149c-.81-1.17-.19-2.18.36-3.2a23.79,23.79,0,0,0,2.92-5.18,27.46,27.46,0,0,1,1.41-3.13c4-4.64,5.72-10.34,7.57-16,2.26-3.7,2-8.08,3.27-12.06a1.84,1.84,0,0,1,1.2-.89,1.87,1.87,0,0,1,1.43.46l.07,1.15a1.31,1.31,0,0,0,.13.89l0,1c.72,1.69,1,3.35-.29,4.91v0c-.72,1.64-1.17,3.38-1.87,5a.4.4,0,0,0-.23.6c.14,4-2.45,6.93-3.93,10.31l0,0A4,4,0,0,1,174.3,136a1.19,1.19,0,0,0-.3.92,3.33,3.33,0,0,1-1.9,3c-1,1.61-2,3.21-3,4.82S167.51,148.58,165.2,149Z"/><path class="cls-9" d="M38.19,167.05a2.16,2.16,0,0,1,2.05-1c3.22-.39,4.92,2.46,7.49,3.46a100.15,100.15,0,0,0,18,8.16c1.92.4,3.79,1,5.68,1.54,1.64.94,4.33,0,5,2.79-.85,1.26-2.28,1.14-3.51,1.5a50.19,50.19,0,0,1-17.53-5.59h0a21.42,21.42,0,0,0-4.12-1.77l-1.88-1.37c-1.29,0-2-1.2-3.11-1.58-.8-.21-1.74-.14-2.13-1.12C42,170.59,39,170.11,38.19,167.05Z"/><path class="cls-10" d="M9.25,56.06c2.21,2-.79,4,0,6l0,.69c-.66,3.1-1.72,6.11-2.08,9.29-.31,1.35-.68,2.68-.94,4a11,11,0,0,1-.37,1.36c-.94,2.68-.73,5.55-1.38,8.28-.34,1.38-.12,3.09-2.07,3.53-1.06-.44-1.23-1.47-1.59-2.37-.07-1-.33-2,.4-2.84h0c.19-4.39-.41-8.9,1.87-13a1.4,1.4,0,0,0,.19-.92C5.61,65.59,4.61,59.63,9.25,56.06Z"/><path class="cls-11" d="M80.2,2h25c.57.41,1.71-.06,1.75,1.15-1.76,1.7-4.25,1.07-6.27,2C95.1,6,89.42,4.8,83.85,5.87a7.31,7.31,0,0,1-3.29,0c-1.21-1.3-3.68-.52-4.41-2.63Z"/><path class="cls-3" d="M105.19,185a4.73,4.73,0,0,1-3.82,2q-8.67.12-17.34,0a4.7,4.7,0,0,1-3.82-2,4.81,4.81,0,0,1,4.1-1.3C91.26,184.23,98.38,182.16,105.19,185Z"/><path class="cls-3" d="M55.35,177.88c6.08,1.25,11.56,4.66,17.89,5a4.93,4.93,0,0,1,4.83.6,1.43,1.43,0,0,1,.34,1.35c-7.72,0-14.82-2.7-22-5C55.45,179.58,55.34,178.74,55.35,177.88Z"/><path class="cls-12" d="M124,177.9l2.22.95c-.36,1-1.41.65-2.09,1v0a14.42,14.42,0,0,1-10,2.93l-1.94.08c-.89-.86-2.52.28-3.19-1.17,1.07-2.65,3.79-1.5,5.6-2.44a22.41,22.41,0,0,0,2.52-1.07C119.31,176.24,121.46,173,124,177.9Z"/><path class="cls-13" d="M78.41,184.87a8.11,8.11,0,0,0-.28-.78c1.86-2,4.31-1.34,6.57-1.43,4.79-.18,9.61.26,14.39-.29a7.58,7.58,0,0,1,2.5-.37,7.21,7.21,0,0,1,1.6.19c1.66.65,3.68.34,5,1.85-.76,1.1-2.1.37-3,1h-25Z"/><path class="cls-3" d="M27.92,28.06,16.21,42C18.29,35.85,21.94,31,27.92,28.06Z"/><path class="cls-3" d="M9.25,56.06c-3.45,4.08-2.78,9.9-6,14.09.75-5.8,1.24-11.7,5.85-16.09Z"/><path class="cls-3" d="M24.3,155c3.24,3.41,7.19,6.12,9.89,10.06C30,164.09,24.4,158.41,24.3,155Z"/><path class="cls-3" d="M154.21,162,164,152c2.35,2.58-1.11,3-1.85,3.8C159.91,158.25,158.58,162.18,154.21,162Z"/><path class="cls-3" d="M3.1,71.07c-1.67,4.18.16,8.86-1.87,13C-.34,79.42-.25,75,3.1,71.07Z"/><path class="cls-3" d="M1.23,84.07c0,1,.07,2,.1,3.05C3,91.31,2.6,95.7,2.51,100.06a5,5,0,0,1-.75,2.51l-.67.58C-.23,96.78-.54,90.42,1.23,84.07Z"/><path class="cls-14" d="M6.28,116.83l-1.15,1.24A3.32,3.32,0,0,1,3,116a7,7,0,0,1-.7-3.24c.44-1.5.17-3.67,2.87-3A6.66,6.66,0,0,1,6.28,116.83Z"/><path class="cls-3" d="M5.21,122.36c1.23,3.59,3.69,6.72,4,10.67C6.9,129.83,3.61,127,5.21,122.36Z"/><path class="cls-3" d="M176.08,132.94,180,122.63C181.77,127.23,178.63,130,176.08,132.94Z"/><path class="cls-3" d="M38.19,167.05c1.41,2.33,4.81,2.31,5.91,5-4.2-.09-6.45-3.11-8.87-5.89C36.44,165.69,37.19,166.79,38.19,167.05Z"/><path class="cls-3" d="M114.11,182.82l10-2.93C121.29,182.64,118.42,185.19,114.11,182.82Z"/><path class="cls-3" d="M165.2,149c1.31-1.39,1.89-3.45,3.88-4.21.71,3.73-1.61,5.22-4.6,6.21Z"/><path class="cls-15" d="M108.22,184c-1.68-.39-3.66.6-5.06-1.07,1.5-3.18,3.7-2.36,6-1.05,1.06.15,2.27-.13,3,1Z"/><path class="cls-3" d="M141.05,172l7.09-5C147,170.3,144.89,172.36,141.05,172Z"/><path class="cls-3" d="M2.07,110.05c-4-1.78-.7-4.59-1-6.9l.2-.15c3.15,1.09,2,3.55,1.83,5.71A3.53,3.53,0,0,1,2.07,110.05Z"/><path class="cls-3" d="M34.13,22.06c-1,2.21-2.91,3.55-4.92,4.75C29.86,24.21,30.68,21.78,34.13,22.06Z"/><path class="cls-3" d="M124.11,179.87l2.09-1c1.33-.22,2.52-1.26,4-.72C128.84,181.08,126.71,181.28,124.11,179.87Z"/><path class="cls-3" d="M67.17,4.92,61.27,7.1C62.76,5.09,64.3,3.2,67.17,4.92Z"/><path class="cls-16" d="M76.15,3.26c1,1.49,3.14.14,4,1.74a1.26,1.26,0,0,1-1.88.12c-1.65-.48-3.57.6-5-.9Z"/><path class="cls-3" d="M58.2,8.11c-1.55.92-3,2-5,1.86C54.41,8.08,55.65,6.34,58.2,8.11Z"/><path class="cls-3" d="M44.32,15.13c-.93,1.58-2.59,2.09-4.11,2.78C40.75,15.76,41.43,13.81,44.32,15.13Z"/><path class="cls-3" d="M182.12,117l.29-4.91C184.76,113.85,184.92,115.5,182.12,117Z"/><path class="cls-17" d="M2.07,110.05c.09-.35.17-.69.26-1,.65-.71.15-2.37,1.84-2.21A3.18,3.18,0,0,1,5.57,109,1.22,1.22,0,0,1,5,110.05c-2,.22-1.75,1.76-1.84,3.1-1.69-.05-1.6-1-1-2.09C2.14,110.72,2.1,110.39,2.07,110.05Z"/><path class="cls-3" d="M16.21,145.06c1.8.72,2.18,2.45,2.83,4C15.88,149.29,16.19,147.07,16.21,145.06Z"/><path class="cls-3" d="M51.38,11.16c-1.56,1.23-3.12,2.45-5.17,2.74C47,11.16,49.15,11.12,51.38,11.16Z"/><path class="cls-3" d="M2.17,111.06c.33.7.67,1.4,1,2.09L3,116C1.11,114.64.39,113.06,2.17,111.06Z"/><path class="cls-3" d="M150.94,164.92a7.66,7.66,0,0,1,3.22-2.88C155.52,165.73,152.8,164.84,150.94,164.92Z"/><path class="cls-3" d="M21.44,151.93l2.84,3C22.67,154.58,20.42,154.78,21.44,151.93Z"/><path class="cls-3" d="M180.24,122c0-1.91.22-3.73,1.87-5A5.57,5.57,0,0,1,180.24,122Z"/><path class="cls-3" d="M51.22,176.12c1.81-.42,3.06.45,4.12,1.77A5,5,0,0,1,51.22,176.12Z"/><path class="cls-3" d="M172.1,140l1.9-3C175,139,174,139.76,172.1,140Z"/><path class="cls-3" d="M61.2,7.13c-.75,1-1.88.88-2.94,1C58.46,5.35,59.93,6.55,61.2,7.13Z"/><path class="cls-3" d="M174.3,136a5.38,5.38,0,0,1,1.76-3.07C177.32,135.05,176.33,135.85,174.3,136Z"/><path class="cls-3" d="M46.23,173.17c1.38-.17,2.24.71,3.11,1.58C47.15,176.51,47.23,173.75,46.23,173.17Z"/><path class="cls-18" d="M112.17,4.12a81.89,81.89,0,0,1,36.86,17c14.91,11.81,25.77,26.5,31,45-.81.9.34,2.53-1.17,3.18-2.3-.8-2.32-3-3-4.83-1.34-3.56-2.32-7.26-4.23-10.59-.8-1.65-2.26-2.86-3-4.52a17,17,0,0,1-.73-1.91,23.08,23.08,0,0,0-5.26-7.78c-2.31-2.74-4.33-5.74-7.11-8.08C150.27,26.94,145.23,22,138.81,19A13,13,0,0,1,136,16.87c-8.54-4.36-17.32-8-26.76-10A1.85,1.85,0,0,1,108,5.16C109.16,3.92,111,5.19,112.17,4.12Z"/><path class="cls-19" d="M112.17,4.12c-1.09,1.44-2.72.75-4.11,1-1.34,1.34-3,1.19-4.69,1-1.07-.3-2.21-.54-2.24-2,1.65-1.93,3.87-.76,5.82-1.06C108.39,5.05,110.6,2.9,112.17,4.12Z"/><path class="cls-20" d="M179.13,69.13c.1-1.07-.15-2.25.91-3,1.91,2.44.32,5.79,2.13,8.26A1.72,1.72,0,0,1,180.22,76c-1.46-1.28-1.55-3.09-1.86-4.83A2.77,2.77,0,0,1,179.13,69.13Z"/><path class="cls-21" d="M179.14,71a8.53,8.53,0,0,1,1.08,5,55.78,55.78,0,0,1,2,13.95c0,1.74-.25,3.28-2,4.09-1,.4-1.15-.27-1.33-1,.06-1.82-.59-3.61-.3-5.45.81-3.5-.39-6.71-1.34-10.53-1.05,2.22-.41,4.4-1.76,5.93-2.34.34-2.13-1.59-2.42-2.89a77.22,77.22,0,0,1-1.27-7.87c-.19-1.6-.8-2.65-2.5-1.11-1.76.13-2.22-1.29-2.49-2.47-.86-3.66-2.78-6.91-3.92-10.44a2.81,2.81,0,0,1,.19-1.35c.88-.9,2-1.6,2.44-2.92.42-1,.59-2.06.91-3.09a3,3,0,0,1,.78-1.1,1.78,1.78,0,0,1,1.34.13,9.51,9.51,0,0,1,1.13,1.75C174.33,57.39,175.78,64.68,179.14,71Z"/><path class="cls-22" d="M182.17,109h-1a3.82,3.82,0,0,1-1-2c-1.36,1.62-1.24,4.43-3.81,4.44-1.94,0-2.11-1.64-2.37-3.08a14,14,0,0,1-.08-2.14c.73-3.26-.07-6.48-.19-9.72,1.35-1.51,2.9-1,4.47-.45,3.92,3.84,3.92,3.84,4,12.49C182.16,108.68,182.16,108.85,182.17,109Z"/><path class="cls-23" d="M178.19,96a3.12,3.12,0,0,1-4,0c-.91.36-1.23-.19-1.44-.93,1.31-2.58,3.35-3.55,6.17-2.79.14.18.27.37.41.56l.81,1.2Z"/><path class="cls-24" d="M184,87.12V100A20.63,20.63,0,0,1,184,87.12Z"/><path class="cls-25" d="M75.19,7.08,77.93,6c1.91-1,4.22.39,6.06-1a7.17,7.17,0,0,1,6,.66c.89,1,.46,2,.07,3a4.76,4.76,0,0,1-2.21,2.22c-2.41,1-5.13.1-7.5,1.29-3.66,2.05-7.78,2.23-11.77,3-1.67.34-3.48.12-5,1.17-1.8,1.12-3.59,2.3-5.89,1.55-2.08-1.07-2.87-2.56-1.55-4.74,2.65-2.83,6.53-2.69,9.8-4C69,8.06,72.13,7.75,75.19,7.08Z"/><path class="cls-26" d="M17.26,47.14C20,43.49,21.45,39,25.12,36c.43-.25.84-.55,1.28-.77,1.5-.75,2.36-3.66,4.38-2.23,1.8,1.28-.21,3.32-.29,5a12.46,12.46,0,0,1-.59,2c-1.74,3.64-4.07,7-4.6,11.19-2.72,1-4.12-2-6.48-2.12C18,48.74,16.9,48.49,17.26,47.14Z"/><path class="cls-27" d="M17.26,47.14l2.1,1a3,3,0,0,1-.45,2.34,5.82,5.82,0,0,0-.48,2.4A14.08,14.08,0,0,1,17,62.1a27.53,27.53,0,0,1-2.19,3.55c-2.06,2.34-3.06,1.87-3.57-1.14S13.27,59,13.1,56C13,52.35,15,49.7,17.26,47.14Z"/><path class="cls-28" d="M13.1,56c1.48,3-1.11,5.58-.93,8.53.2,3.3,1.27.79,2,.52,1.82,2.37,0,4.21-.88,6.19-1,1.43-.84,3.21-1.5,4.75a5.65,5.65,0,0,1-1.37,1.74c-1.68,1.12-3.52,3-4.16-.88,1.19-5,1.77-10.12,3.86-14.87Z"/><path class="cls-29" d="M29.29,38.16c.41-1.5.83-3,1.33-4.82-2.39.16-3.19,3.09-5.5,2.68a66.84,66.84,0,0,1,16-14.17l.39.57c0,1.24-.77,2.11-1.39,3.06.3,2.8-3.64,2.79-3.59,5.44-.84,1.44-1.94,2.73-2.38,4.39a4.73,4.73,0,0,1-.7,1.11C32.17,37.31,31.09,38.59,29.29,38.16Z"/><path class="cls-30" d="M10.16,62c.45,5.3-1.85,10.07-2.94,15.08-.91.35-1.39-.1-1.66-.91-.53-1.45,0-2.69.74-3.91,1.07-3.37,1.36-7,2.94-10.18v0C9.54,62,9.85,62,10.16,62Z"/><path class="cls-31" d="M41.09,21.85c2-2.4,4.7-3.9,7.24-5.61,1.34.62,3.6-1,4.11,1.68a12.34,12.34,0,0,0-4,5.18c-2.16-2.05-4.76-.48-7.12-.85Z"/><path class="cls-31" d="M56.19,13c-.07,1.73.19,3.29,2,4,.22,2.07-1.6,2-2.75,2.56a3.14,3.14,0,0,1-2-.13,1.63,1.63,0,0,1-.69-1.08c.23-3-2.87-1.06-3.7-2.49Z"/><path class="cls-32" d="M75.19,7.08A20.84,20.84,0,0,1,66,9,13.41,13.41,0,0,1,75.19,7.08Z"/><path class="cls-33" d="M49.06,15.94c1.21,1,4.28-1.39,4,2.25a.51.51,0,0,1-.8-.2c-.88-1.54-3-.27-3.91-1.75A1,1,0,0,1,49.06,15.94Z"/><path class="cls-32" d="M84.21,5.21C82.27,6.76,80,5.86,77.93,6a3.21,3.21,0,0,0,.39-.84L80.2,5l3,0C83.59,4.63,83.93,4.71,84.21,5.21Z"/><path class="cls-34" d="M47.19,170.07c-2.78-.54-4.55-2.84-6.95-4a71.69,71.69,0,0,1-17-17c3.39.56,2.14-3.24,3.93-4.18A2.41,2.41,0,0,1,30,147c1,6,6.54,7.56,10.36,10.78,1.87,1.57,3.75-.68,5.71-.59a9.27,9.27,0,0,1,5.29,2.47c.9,1.73,0,2.75-1.4,3.58a6.49,6.49,0,0,1-1.28.45c-1,.29-1.94.7-1.8,2,.12,1.08,1,1.08,1.89,1.08a2.51,2.51,0,0,1,1.44,1.4C50.63,171.06,49.17,171,47.19,170.07Z"/><path class="cls-35" d="M5,110.05a2.07,2.07,0,0,0,0-.86c.2-2.77,1.69-2.84,3.51-1.49a14.75,14.75,0,0,1,5.65,8.36c.4,1.38.22,3.07,2,3.74a2.34,2.34,0,0,1,.66,1.11c-.36,3.14,1.42,6.1.8,9.27-3,4.32-4.67,1.07-6.56-1.09-2.58-3.7-3-8.24-4.81-12.26C5.86,114.57,5.43,112.31,5,110.05Z"/><path class="cls-36" d="M11.09,129.09c2,.63,3.52,4.2,6.12.95,1.23-2.94-1.79-5.66-.44-8.61a1.17,1.17,0,0,1,1.15-.7A4.16,4.16,0,0,1,20,123.5c.42,1.69.68,3.45,2.1,4.7a6.2,6.2,0,0,1,.83,1.08c.85,1.74.8,3.14-1.4,3.75-2.21.17-3.19,1.45-3.2,3.59-.57,1.45-.69,3.95-3,1.36A37.07,37.07,0,0,1,11.09,129.09Z"/><path class="cls-37" d="M27.2,145.05c0,2.64-.31,5-4,4-1.5-.95-2.84-2-3.09-3.95.2-.51,1.39-.58.84-1.27-.36-.45-1.17.12-1.78.26a3.43,3.43,0,0,1-2.12-2.93c-.33-.76,0-1.18.68-1.49a4.22,4.22,0,0,1,1.28,0,10.08,10.08,0,0,0,4.4-.27,3.33,3.33,0,0,1,1.33.18C26.56,141,26.84,143,27.2,145.05Z"/><path class="cls-38" d="M19.18,144.08c.25-2.05,1.54-2.46,3.15-1.7.58.27,1.27,1.47,1.1,1.94-.62,1.69-2,1.21-3.31.77Z"/><path class="cls-39" d="M18.27,140l-1.21,1.19A3.32,3.32,0,0,1,15.28,138c2.44,1.16,1.78-.83,2-1.94a1,1,0,0,1,1.25,0,3.4,3.4,0,0,1,.57,1.29A2.84,2.84,0,0,1,18.27,140Z"/><path class="cls-40" d="M124,177.9c-2.77-2.77-4.41,1.43-6.79,1.1-2-1.68-5.35-1.72-5.9-5.06a3.3,3.3,0,0,1,2.58-.81,7.23,7.23,0,0,1,3.21,1.28,2.15,2.15,0,0,0-2.55-1.62c-1.2.24-2.52.14-3.35,1.3a5,5,0,0,1-1.92,2.57,6.68,6.68,0,0,1-2.48,1c-2.74-.94-5.62-.81-8.45-1.13-1-.93-2.14-1.35-3.42-.43-.86-.05-1.24-.62-1.48-1.35a3.08,3.08,0,0,1,2.95-3.91c9.6,0,18.74-2.45,27.74-5.48,2.59,1.93,5.77,2.35,8.73,3.36a2.69,2.69,0,0,1,1.26,2.41,3.67,3.67,0,0,1-.8,2Z"/><path class="cls-41" d="M157.1,155.06c-4.24,5.86-10,9.91-16,13.66-1.45.92-1.52-.53-1.73-1.19-.41-1.36-1-2.29-2.6-2.15a2.81,2.81,0,0,1-1.78-3.32c.91-1.11,2.27-1.09,3.5-1.32,1.84-.33,1.89-1.39,1.24-2.79a3.42,3.42,0,0,1,0-1.39,4.63,4.63,0,0,1,3.4-2.44c5.19.46,5.27.74,2.62,4.55.74-1.73,5.12.17,6.59-3C153.76,154.09,155.3,153.54,157.1,155.06Z"/><path class="cls-42" d="M157.1,155.06c-1.52.2-3.54-.66-4,1.85-2.14,1.55-2.93-.21-3.7-1.62s-.9-2.82-1.69-4.09c.51-4.73,3.88-7,7.67-8.91,2.43.21,2.86,1.82,2.68,3.84a9.91,9.91,0,0,1-3.83,5.1c2.42.56,4.15-1.52,6.34-1.47l.61.29C160.85,152.56,159.06,153.88,157.1,155.06Z"/><path class="cls-43" d="M137.13,164.74c1.25-1.32,2.48-2.55,3.06.48.22,1.18-.56,2.62.87,3.5-.7,1.75-2.27,2.05-3.87,2.32l-.66-.26a3.32,3.32,0,0,1-1.25-2.47,4.76,4.76,0,0,1,.13-1.41C135.62,165.89,136.49,165.41,137.13,164.74Z"/><path class="cls-42" d="M165.18,146c-.39,1-.77,2-1.16,3l-2.82,1.06h0c-1.46-2.12-.54-3.72,1.27-4.9C163.49,144.48,164.88,143.9,165.18,146Z"/><path class="cls-43" d="M133.31,173.15l-.09-2.15a3,3,0,0,1,4,0h0A6.51,6.51,0,0,1,133.31,173.15Z"/><path class="cls-44" d="M165.18,146c-4-1.34-3.67,1.66-4,4-2.75,2.13-6.26,2.19-10,4.2,1.3-3.83,4.1-5.13,5.94-7.22.71-2.3,1.28-4.69,3.4-6.22a4.56,4.56,0,0,1,1.69-1.19,4.33,4.33,0,0,1,1.39-.09c1.56.36,3.31.17,4.55,1.51C168,143.16,166.51,144.56,165.18,146Z"/><path class="cls-45" d="M177.23,122.11c-1.72,5.79-3.25,11.68-8,16l-.51-.45a3.68,3.68,0,0,1-.19-2.69,14.54,14.54,0,0,1,1.2-3.18c.59-2.87,3.49-5.18,2-8.54a3.81,3.81,0,0,1,1.24-2.52,3.18,3.18,0,0,1,2.83-.26C176.6,120.77,176.82,121.52,177.23,122.11Z"/><path class="cls-46" d="M175.19,108.05c.14.92-.32,2.23.94,2.52s1.81-.8,1.91-1.81a4.67,4.67,0,0,1,2.41-4.07c1.27,1.4.48,2.93.7,4.32l-.86.14c-1.38,1.43,0,3.61-1.39,5-1.08,1.15-.24,3.94-2.5,3.77-1.69-.13-2.44-2.07-2.84-3.76C173.9,112.09,171.62,109.29,175.19,108.05Z"/><path class="cls-47" d="M174.19,114.05l2.58,3.61c.48-3.35,2.86-5.54,2.7-8.66a.66.66,0,0,1,.41-.1c.15,0,.27.16.41.25-.17,4.52-.54,9-3.06,13l-1-1a39.59,39.59,0,0,1-3.41-3.06,3.87,3.87,0,0,1-.88-1,2.46,2.46,0,0,1,0-1.29C172.38,114.83,172.69,113.62,174.19,114.05Z"/><path class="cls-48" d="M168.18,141c-1.7-.19-3.57.62-5-.91a3.68,3.68,0,0,1,2.25-1.32c1.26-.2,2.31-1.41,3.74-.78l.13.07C168.9,139.07,168.54,140.05,168.18,141Z"/><path class="cls-49" d="M71.16,180.09l-5.91-1.19c-3.8-1.76-5.4-4.81-5.22-8.9,2-1.37,3.84-.06,5.59.59a96.39,96.39,0,0,0,14.76,4c.14-1.27-2.54-1.69-.74-3.18,2.81-1.22,5.72-.84,8.63-.55a4,4,0,0,1,1.41.61c1.26,2.67-1.49,3.76-2.22,5.65-3.58,1.12-7.1,2.5-10.91.67-1.44-.69-2.45.12-3,1.58C73.07,180.56,72.19,180.73,71.16,180.09Z"/><path class="cls-50" d="M60.2,170c2.08,2.73,2,6.71,5,8.86-6.06-2.86-12.82-4.28-18.06-8.83,1.37,0,3,.26,2.08-2.08a6.1,6.1,0,0,1,1-.85c1.66-.48,1.83-2.28,2.88-3.3a1.57,1.57,0,0,1,1.29.11C55.08,167.19,58.4,167.89,60.2,170Z"/><path class="cls-51" d="M71.16,180.09c2.52-3.71,2.56-3.86,8.48-2.31,2.71.71,4.77-3,7.47-.72a2.89,2.89,0,0,1,1.11,1c1.68,4.33,1.68,4.33-4.53,5.4-2.5-.37-5.19.21-7.39-1.56C75,180.21,72.46,181.86,71.16,180.09Z"/><path class="cls-52" d="M76.3,181.93l8,1c3.9-.48,7.73-1.59,11.72-1.32,1.55.1,3.15.08,4.19,1.55-5.46,1.75-11.07.44-16.59.77-1.81.11-3.63.08-5.44.11l-4.9-1.17C74,181.78,75.22,182.09,76.3,181.93Z"/><path class="cls-53" d="M5.56,76.15l1.66.9c1,2.79,2-1,3,0,1.42,3.27,1.9,6.59.43,10a2.13,2.13,0,0,1-2,.5c-1.93-1.65-1.3-4.9-3.84-6.18-.06-1.46-.41-2.94.51-4.28A4.86,4.86,0,0,1,5.56,76.15Z"/><path class="cls-14" d="M5.23,77.05c0,1.67-.05,3.33-.08,5,1.38,1.35,1.31,3,1,4.7C5.29,89,5.53,91.82,3,93.27c-2.06-1.07-1.36-2.63-.73-4.18,1.4-2.75,1.49-5.77,1.54-8.73C3.83,79,4,77.85,5.23,77.05Z"/><path class="cls-54" d="M2.26,89.09c.11,1.37-.41,2.89.93,4a2.67,2.67,0,0,1,.86,1.3c-.11,2.51.52,5.32-2.7,6.54l0-13.79Z"/><path class="cls-5" d="M9.24,62.06c-.65,3.49-1.1,7-2.94,10.18C6.43,68.6,6.65,65,9.24,62.06Z"/><path class="cls-55" d="M84.21,5.21l-1-.17c5.92-1.73,12-.65,18-.84l2,1a.75.75,0,0,1,.28,1c0,.4-.66,1.16.45.77.1,0,.14-1,.77-1.29,3-.18,5.21,2,7.61,3.17,3.14,1.51.44,3-1.2,4a5.81,5.81,0,0,1-3,.07c-3.07-1.45-6.54-1.14-9.7-2.2-1.84-3-5.43-3-8.08-4.57C88.23,5.87,86.36,4.6,84.21,5.21Z"/><path class="cls-56" d="M107.18,177a2.12,2.12,0,0,1,2-1c2.87.09,4.15,2.55,6.08,4.06-1.66,1.9-4.46-.05-6.12,1.83-2,.42-4.22-.6-6,1.05l-1-.06c-1.39-1.52-3.74-.26-5.12-1.78a4.41,4.41,0,0,1,.79-4.06c2.75-.24,5.77-1.46,7.48,2.07C105.91,178.42,106.28,177.48,107.18,177Z"/><path class="cls-57" d="M115.27,180.09c-3.11.26-4.12-2.61-6.08-4.06a3.53,3.53,0,0,1,2-2h0c1.89,1.78,5.31,1.72,6,5A2.17,2.17,0,0,1,115.27,180.09Z"/><path class="cls-58" d="M97.23,181.08c1.7.42,4.22-1.32,4.9,1.83l-2,.3-3.92-.31a.73.73,0,0,1-.36-.92A1.7,1.7,0,0,1,97.23,181.08Z"/><path class="cls-14" d="M1.35,100.9C2.72,98.8,2.79,96.33,3.28,94c2.25.29,2,2.15,2.2,3.65.21,1.74,0,3.51.57,5.22.16,1.78.13,3.48-2,4.19l-1.76,2c-.69-2,.65-4.25-1-6Z"/><path class="cls-59" d="M4.09,107a5.7,5.7,0,0,0,1-3.82,1.3,1.3,0,0,1-.05-1.38,3.07,3.07,0,0,1,2.6-1.11c2.84,1.6.95,5.46,3.45,7.24,3.09,2.36,4.74,5.82,6.81,9,.6,1.33,1.46,2.66.26,4.11l-.95,0c-.62,0-.67-.67-1-1h0a11.27,11.27,0,0,1-3-3c-.52-3.62-3-6-5.3-8.55-1.55-1.68-2.16-.44-2.89.72C4.72,108.48,4.4,107.76,4.09,107Z"/><path class="cls-60" d="M139.16,18.11c6.91,2.71,11.89,7.94,17.07,12.93-1.26,1.39-2.87-.4-4.26.49-.19,1.91,2.24,2.95,1.71,5a1.31,1.31,0,0,1-1,.86c-4.74-1.4-7.17-5.76-10.81-8.57-1.95-1.52-3.84-3.15-5.88-4.57a4.46,4.46,0,0,1,.68-4,1.71,1.71,0,0,1,1.07-.53c.52.12,1.35.69,1-.64A1.15,1.15,0,0,1,139.16,18.11Z"/><path class="cls-61" d="M109.2,6c10.09,1.11,19,5.59,27.84,10.08-3.52,1.19-7,2.39-7.56,6.86-.79.5-1.33.12-1.82-.48-.7-1.2-.69-2.72-1.75-3.75-1.44-1.43-3.39-1.18-5.13-1.64-2.35-.63-5-.91-5.81-3.89,1.91-1.93,3.56-.59,5.39.37-2.76-2.68-5.55-5-9.63-5.09A1.68,1.68,0,0,1,109.2,6Z"/><path class="cls-34" d="M163.24,39c2.9,2,4.4,5,5.77,8.14a2.34,2.34,0,0,1-1.18.55,16.34,16.34,0,0,0-4.51.49,7,7,0,0,1-3.24.17,26.33,26.33,0,0,0-4.17-1.85,11.37,11.37,0,0,1-4.34-6.28,3.57,3.57,0,0,1,1.6-3.11l0-.09c1.82-.75,3.14.36,4.29,1.39C159.34,40.06,161.21,40,163.24,39Z"/><path class="cls-62" d="M163.24,39c-1.12,2.77-2.94,3.4-5.18,1.35A19.09,19.09,0,0,0,153.2,37,18,18,0,0,0,152,34.4c-.85-1.29-2.93-2.49-1.62-4.06,1-1.26,3-.84,4.45.42.32.28,1,.2,1.44.28C159.3,33.05,161.23,36.05,163.24,39Z"/><path class="cls-63" d="M109.2,6A2.73,2.73,0,0,0,111.82,8c4.76-.35,7.65,2.23,10.06,6.38l-6.7-1.26a3.08,3.08,0,0,1-1.35.79c-1.28-.05-2.81.26-2.65-1.86-.06-.79,3.68-2.13-.18-2.3-3-.13-3.62-4.21-6.81-3.64a.53.53,0,0,1-.9-.13c0-.26-.07-.53-.12-.79l4.89,0Z"/><path class="cls-64" d="M179.14,71c-4-2.34-2.92-7.33-5.52-10.51C171.51,58,170,54.86,168.26,52c1.8-1.5,2.79.16,4,1,3.92,4.67,3.86,11,6.89,16.11C179.13,69.76,179.14,70.4,179.14,71Z"/><path class="cls-65" d="M129.17,23.08c.09-6.65.64-7.14,7.87-7l2.12,2c0,.31,0,.62.05.93.33,1.07-.16,1.31-1.1,1.09a4.59,4.59,0,0,1-.83-.1c-1.41,0-2.87-1-4.22.21-1.5,1.11-1.28,3.86-3.8,4a.81.81,0,0,1-.28-.75C129,23.21,129.1,23.08,129.17,23.08Z"/><path class="cls-66" d="M172.24,53l-4-1c0-.62-.11-1.23-.17-1.84a1.45,1.45,0,0,1,1.22-1.22C170.16,50.39,172,51.12,172.24,53Z"/><path class="cls-67" d="M169.31,48.94l-1.22,1.22a4.26,4.26,0,0,0-.88-.15,1.6,1.6,0,0,1-1.28-1.87c.48-.86,1.49-.56,2.16-1a7.06,7.06,0,0,1,.92,0Z"/><path class="cls-68" d="M166,48.24,167.21,50c0,.36,0,.71-.05,1.06a9.88,9.88,0,0,0-2.76,4.09c-.75.39-2.18.38-1.09,1.85l-.26.09c-1.12,1-2.44-.22-3.6.33-1.46.71-3.07,1.12-4.19,2.41-.84.95-1.39,2.19-2.71,2.63a8,8,0,0,0-3.93,2,6.75,6.75,0,0,1-1.15.55,7.89,7.89,0,0,0-3.74,2,47.54,47.54,0,0,1-4.29,2.91c-2.74,1.63-5.43,3.34-8.19,4.93-5.88,3.07-11.32,6.94-17.3,9.86-1.33.24-2.53.14-3.17-1.3-.21-2.18,1.41-3,2.87-4,3.81-2.09,7.68-4.09,11-7,1.48-1.09,3-2.09,4.52-3.15,4.83-2.28,9.15-5.43,13.76-8.1,5.16-1,8.86-4.65,13-7.39a6.69,6.69,0,0,0,.92-2.88c.86-1.82-1.67-3.21-.62-5.05,1.53.34,3.67-.4,4,2.19,1.62,3.19,2.65-.3,4-.36C164.88,47.56,165.56,47.44,166,48.24Z"/><path class="cls-69" d="M159.23,56.08c1.9-2,2.3,1.61,3.82,1,3.22,4.14,3.69,9.49,6.12,14,2.9,2,2.29,5.29,2.89,8.09a54.77,54.77,0,0,1,1,9.32,3.34,3.34,0,0,1-1.2,2.18c-1,.56-2,1.13-3,.18-1.59-2.75-.7-5.87-1.26-8.79-1.41-7.2-3.13-14.28-6.54-20.85A16.2,16.2,0,0,1,159.23,56.08Z"/><path class="cls-70" d="M172.21,89.08q-1.52-9-3-18c.36-1.09-.74-3.11,1.13-3.13s2.62,2,2.78,3.62c.37,3.9.5,7.82,2.1,11.49a3.47,3.47,0,0,1,1.55,3.8,4.31,4.31,0,0,1-3.21,2.75A1.94,1.94,0,0,1,172.21,89.08Z"/><path class="cls-71" d="M176.18,87.09c-.33-1.34-.67-2.69-1-4,.35-2.47-1.1-6.56,1.81-6.9s1.87,4,2.7,6.12c.75,2,1.29,4.22-.8,5.94C177.55,88.89,176.72,88.32,176.18,87.09Z"/><path class="cls-72" d="M176.18,87.09l2.71,1.13c.3,1.54,2.44,2.9.45,4.66l-.05.1c-1.08-1.82-3.14-1.29-4.71-2-.82-.41-1.81-.71-1.41-2Z"/><path class="cls-73" d="M164.25,54.86c-1.2-2.93.89-3.33,2.91-3.79.07,1.18.1,2.34-1,3.11C165.6,54.71,165.25,55.66,164.25,54.86Z"/><path class="cls-74" d="M164.25,54.86l1.87-.68c.25,2.13-.64,3.11-2.81,2.83C162.39,55.76,162.72,55.05,164.25,54.86Z"/><path class="cls-75" d="M174.19,114.05l-2.05,2c-.45.33-1,.66,0,1l.09,0c1.43,2.2.31,3.85-1.18,5.42-2.77.83-3.74-.73-4.09-3.1A50.76,50.76,0,0,1,170.85,104c2.55-1.64,3.54,0,4.34,2.06v2C172.51,109.65,176.14,112.32,174.19,114.05Z"/><path class="cls-76" d="M175.19,106c-1.13-1-2.05-2.43-3.92-2-2.08-2.6-.49-5.47-.62-8.21.57-1.1,1.3-1.67,2.49-.77l1.06.94C175.94,99.23,175.55,102.64,175.19,106Z"/><path class="cls-77" d="M173.14,95.1a2.22,2.22,0,0,0-2,1c-1.54,1-2.77-1.37-4.31-.37a34.74,34.74,0,0,1-5.2.12,3,3,0,0,1-1.18-.47c-.82-1-.89-2.34-1.47-3.46a1.49,1.49,0,0,1,.34-1.2,3.61,3.61,0,0,1,1.21-.52c1.79-.14,3.59.18,5.38-.17a4,4,0,0,1,3.31,1.06l2-1a3.58,3.58,0,0,0,4.15.1c1.71.37,3.54.57,3.94,2.79C176.82,92.45,175.16,94.31,173.14,95.1Z"/><path class="cls-78" d="M114.24,13.11l.94,0a10.75,10.75,0,0,0,7.64,3,5.29,5.29,0,0,1,4.38,2c-2,1.32-4.42.81-6.46,1.82-3.76-.26-7.17-2.09-10.92-2.42a13.27,13.27,0,0,1-4.46-.71c-2.25-1.78-5-1.21-7.55-1.59-1.6-.39-3.92-1-3.64-2.61.76-4.37-2.84-3.25-4.69-4.33l.78-2.14c3.3,0,7-.82,8.1,3.84,2.56,1.44,5.51.93,8.21,1.67C109.09,12.28,111.33,14.4,114.24,13.11Z"/><path class="cls-79" d="M55.17,19l3.06-1.94c2.11.41,3.46-1,5-2s3.54.18,5.1-.92c3.85-1.46,8.23-.91,11.89-3.08,2.55-.4,5.19-1.61,7.41.84,0,.95-.47,1.75-1.42,1.53-3.34-.82-5.53,1.38-8,2.84a50,50,0,0,1-11.39,3.22C62.88,19.93,58.94,21.79,55.17,19Z"/><path class="cls-80" d="M89.48,8.22c3.3-.52,7.88-2.68,5.44,4.26-.08.23,1.51,1,2.32,1.57.07,2.24-1.69,2-3.08,2.32-2.8-.89-1.83-3.29-2.08-5.19a1.73,1.73,0,0,0-.46-.78c-.14-.13,0,0,.07.43.13.9-.43,1.43-1.23,1.74a2.48,2.48,0,0,1-1.26-.19A2.36,2.36,0,0,1,88.38,10Z"/><path class="cls-32" d="M88.38,10c.89.39.76,1.26.92,2,.06,1.66-.74,1.65-1.89,1-1.6-3.64-4.8-1.26-7.2-1.93C82.73,9.06,85.68,10.55,88.38,10Z"/><path class="cls-32" d="M68.32,14.12c-1.49,1.45-3.36.87-5.1.92C64.68,13.4,66.59,14.28,68.32,14.12Z"/><path class="cls-81" d="M18.09,50c.42-.61.84-1.23,1.27-1.84,2.63-.53,3.39,2.74,5.72,2.82a1.13,1.13,0,0,1,1.19-.23,4.52,4.52,0,0,1,.94.86,7.33,7.33,0,0,0,3.92,2.83c.94.49,1.78,1.15,2.72,1.64.4.19.79.41,1.18.63q4.71,2.88,9.5,5.65c2.9,1.44,5.52,3.35,8.44,4.74q4.92,2.66,9.58,5.76c1.21.8,3.25,1.17,2.63,3.45-2.87,1.54-5-.56-7.29-1.56-2-.85-3.65-2.18-5.63-3A247.15,247.15,0,0,0,22.38,54.91a10.28,10.28,0,0,1-2.51-2.28A12.48,12.48,0,0,1,18.09,50Z"/><path class="cls-82" d="M26.14,51l-1.06,0c-1.35-4.62,2.07-7.58,3.88-11.09l.65,0c1.66-.25,3.62-1.24,4.12,1.58C31.61,44.94,30.17,49,26.14,51Z"/><path class="cls-82" d="M29.29,38.16c1.31-.68,2.17-2.15,3.82-2.26.61,3.06-1.53,3.68-3.75,4.23l-.4-.25Z"/><path class="cls-83" d="M16.18,62a19.77,19.77,0,0,0,1.06-10,1.06,1.06,0,0,1,1.23-.16c1.13,1.46,2.9,2.14,4.2,3.41.53,1.5-.11,2.87-.46,4.29-1.63,2.89-1,7.21-5.3,8.43A5.31,5.31,0,0,1,16.18,62Z"/><path class="cls-84" d="M16.18,62l1.14,6.18a2.11,2.11,0,0,1,.21,1.52c-1.25,2.22-1,6.38-5.56,4.36-.26-1-.51-2.06.25-3,.85-1.95,2.25-3.71,2-6Z"/><path class="cls-5" d="M18.14,52.13c-.3,0-.6-.07-.9-.08A2,2,0,0,1,18.09,50c1.29.1,2.08.69,2.12,2.07C19.53,52.6,18.83,52.1,18.14,52.13Z"/><path class="cls-85" d="M12.26,74.11c3.83.42,2.76-3.87,4.89-5.09,1.43,1.44.92,3.11.42,4.67a62.16,62.16,0,0,0-2.36,12.68,8.8,8.8,0,0,1-1.63,3.57c-2.38.62-3.13-.86-3.56-2.77,1-3.37-1-6.78.15-10.15.33-.35.65-.7,1-1C11.9,75.58,11.51,74.5,12.26,74.11Z"/><path class="cls-30" d="M12.26,74.11c-.09.79-.25,1.53-1.11,1.87.29-1.66-.58-3.56,1.07-4.91C12.24,72.08,12.25,73.1,12.26,74.11Z"/><path class="cls-86" d="M33.31,35.09c.19-1.91.59-3.67,2.9-4.05,1.15-1.81,3.36-2.32,4.72-3.88,2.78-2.6,5.78-4.17,9.55-2a2.72,2.72,0,0,1,1,1c-.08,1.4-1.21,1.94-2.16,2.63-4,1.7-6.45,5.86-10.88,6.9C37,33.25,34.91,36,33.31,35.09Z"/><path class="cls-87" d="M50.89,26c-3.65-1.37-6.79-.49-9.55,2.13-2.25,0-2.16-1.58-2.16-3.13l2.11-2.79c.47-.16,1.08-.18,1.38-.49,2.6-2.68,4.38-2,5.61,1.26C50.28,23.05,51.65,23.62,50.89,26Z"/><path class="cls-88" d="M33.31,35.09c1.69-1,3.39-2.3,5,.09-.5,3-1.37,5.69-5.11,5.89-.86-2.08-3,1-3.86-.94,1.46-1.22,3.13-2.26,3.75-4.23A3.69,3.69,0,0,1,33.31,35.09Z"/><path class="cls-89" d="M39.18,25l2.16,3.13c-1.69,1-2.85,2.93-5.13,2.87-.48-1.18-4.56-3.3.52-3.08C39.63,28.09,36.94,24.72,39.18,25Z"/><path class="cls-90" d="M50.89,26c-.35-1.46-1.51-2.21-2.61-3-.83-3.36.82-4.78,4-5a1.72,1.72,0,0,0,.8.2,2.21,2.21,0,0,0,.21.79c.56.66,1.81,1.45.62,2.2-1.7,1.07-.74,2.5-1,3.75-.24.69-.6,1.22-1.45,1.06h-.27Z"/><path class="cls-91" d="M52.23,25c.64-1.48-4.53-4.62,1.32-4.6l-.3-1.4,1.92,0a44.46,44.46,0,0,0,12.07-.92C67,21.3,64,20.88,62.1,21.79A60.85,60.85,0,0,1,56,23.94c-.92.52-1.58,1.48-2.73,1.64A1.28,1.28,0,0,1,52.23,25Z"/><path class="cls-39" d="M27.2,145.05c-2.59-.72-1.28-3.77-3-5-.57-1.78.12-2.85,1.89-3.31,4,1.82,5.7,5.66,8,8.94,1.08,4.51,2.57,8.6,8.35,8.48,1.78.78,4,1.18,3.71,3.89-3.15,2.36-5.38,2.07-8.89-.57A30.09,30.09,0,0,1,27.2,145.05Z"/><path class="cls-92" d="M46.21,158c-.78-1.71-2.49-2.2-3.94-3-4.91-1.05-6.33-5.65-9.09-8.9l-7-9a1.79,1.79,0,0,1-.21-2.08,2.23,2.23,0,0,1,1.32-.57c2.28.3,3.17,2.25,4.35,3.79a75.61,75.61,0,0,0,17.49,16.8c1.51,1,3.14,1.92,3.47,4-.14.82-.49,1.35-1.44,1.1Z"/><path class="cls-93" d="M51.11,160.15l1.13-1.1a4.57,4.57,0,0,1,1.09-3.63,13.44,13.44,0,0,0,2.27-3.78c1.28-2.26,1.76-5,3.73-6.84a14.37,14.37,0,0,0,2.32-3.09c.64-.92,1.18-2,2.56-1.92a2.35,2.35,0,0,1,1.26,1.57c-.62,3.72-2.7,6.78-4.54,9.95-2.31,3.94-4.26,8.09-7,11.76a8.66,8.66,0,0,0-1.63,1.26,2.74,2.74,0,0,1-3-1.25C49.81,162,51.42,161.69,51.11,160.15Z"/><path class="cls-94" d="M49.3,163.08l2.88.93c.63,2-.55,3.07-2,4a7.26,7.26,0,0,1-.93-.06l-1-1c-2.2-1.37-2.35-2.67.17-3.84A4.31,4.31,0,0,0,49.3,163.08Z"/><path class="cls-95" d="M48.42,163.17c-1.55,1.22-1.32,2.51-.17,3.84-.16.83-.31,1.82-1.47,1.05a2.78,2.78,0,0,1-1.07-3.91C46.26,163.11,46.69,161.19,48.42,163.17Z"/><path class="cls-96" d="M16.23,120c.33.33.66.67,1,1-1.17,3,2.4,6,0,9C16.62,126.73,14.77,123.54,16.23,120Z"/><path class="cls-96" d="M13.23,117c1.26.74,2.94,1.06,3,3C13.08,121.16,13.78,118.47,13.23,117Z"/><path class="cls-97" d="M18.18,121.05,17,117.16c-2.55-5-4.76-10.19-4.27-16-.21-7.8,0-8,6.12-8.16a5.29,5.29,0,0,1,3.51,2.13c-3.49,4.17-3.25,9-2.46,13.94a64.94,64.94,0,0,0,4.36,15.7c.72,1.64,1.59,3.31,1.13,5.23-1.52,1.35-2.41-.06-3.46-.78a2.21,2.21,0,0,1-.53-.27c-1.27-1.4-1.29-3.35-2.17-4.93C18.91,123,18.55,122,18.18,121.05Z"/><path class="cls-98" d="M22,129.17l3.23.86c.63-1.58,2.1-2.2,3.42-3a53.66,53.66,0,0,1,5.13-3c1.46-.63,2.83-1.63,4.56-1.28a2.13,2.13,0,0,1,1.2,1.64c-3.67,4.91-9.57,6.43-14.44,9.51a19.31,19.31,0,0,1-3.87,1.55,1.89,1.89,0,0,1-1.28-.48c-.63-1.41.07-2.23,1.26-2.83C24,131.82,21.86,130.21,22,129.17Z"/><path class="cls-99" d="M21.18,132.15c-.32,1-.65,1.93-1,2.9,0,1.65-.79,1.66-1.95,1h-1C16.77,132.93,18.33,131.89,21.18,132.15Z"/><path class="cls-100" d="M19.27,124a7.12,7.12,0,0,1,2.17,4.93C19.41,127.84,19.1,126,19.27,124Z"/><path class="cls-99" d="M21.2,135l3.11-1.9A2.61,2.61,0,0,1,26.2,135c0,.7-.05,1.4-.07,2.1L24.21,140l-1,.16c-1.67.4-3.34.72-5-.21v0l.06-3C19.62,136.8,21.08,136.88,21.2,135Z"/><path class="cls-39" d="M18.26,140l5,.21C21.51,141.37,19.85,141.64,18.26,140Z"/><path class="cls-101" d="M21.2,135c1,.72,1,1.51.12,2.31-1.12,1-2,.16-3-.34a3.57,3.57,0,0,1-.07-.92,2.11,2.11,0,0,0,1.95-1A4.11,4.11,0,0,0,21.2,135Z"/><path class="cls-102" d="M125.26,166.08c-9.36,3.61-18.85,6.57-29.07,5.92-1-.62-1.71-1.34-.93-2.6,1.48-1.71,3.53-1.68,5.5-1.65a15.87,15.87,0,0,0,7.23-1.43c5.76-1.22,11.59-2.16,16.73-5.34a4.76,4.76,0,0,1,3.78-.64,2.05,2.05,0,0,1,1.14,1,2.87,2.87,0,0,1,.1,1.51C128.79,164.64,127.73,166.33,125.26,166.08Z"/><path class="cls-103" d="M94.11,172.93l0,2.19c-.5,1.57-.68,3.48-3.15,3a2.77,2.77,0,0,1-1.34-3.25c.33-1,1.11-1.82,1.21-2.92-.39-7.26.67-14.56-.65-21.79-.68-3.88-.23-7.81-.41-11.71,0-.81-.17-1.62-.19-2.44a4.22,4.22,0,0,1,.35-1.57c1.49-2.81.72-5.85.91-8.79.12-1.81-.16-3.67.93-5.31a1.08,1.08,0,0,1,1.51-.16c1.28,1.33,1.31,3,1.24,4.68C93.86,140.86,95.21,156.9,94.11,172.93Z"/><path class="cls-104" d="M94.11,172.93c-1.55-1.52-.86-3.46-.87-5.21,0-14.18,0-28.37-.06-42.55,0-1.76.61-3.71-1-5.18-2.18-.95-2.42-2.82-2.32-4.86,1-1.43,2-2.83,4-2.46a1.71,1.71,0,0,1,.78,1.17c0,.25,0,.5,0,.75-.45,2.07.27,4,.7,6,.36,6.79.13,13.58.3,20.37-.21,4.17-.08,8.35-.08,12.52a45.14,45.14,0,0,1,0,5.07c0,1.82,0,3.64-.09,5.45,0,.71,0,1.42,0,2.13,0,.44,0,.89,0,1.34a4.53,4.53,0,0,1-.3,2.57l1,2Z"/><path class="cls-105" d="M125.26,166.08l3.92-3.12c3.39-.07,2.87,2.71,3.45,4.7a2.45,2.45,0,0,1-.43,1.39C130.15,167.44,125.63,171.6,125.26,166.08Z"/><path class="cls-57" d="M107.18,177c-.41,1.06-.78,2.14-1.25,3.17a1.64,1.64,0,0,1-1.56.67c.53-5.59-5.17-.9-6.21-3.78a.75.75,0,0,1-1-.26c0-.69.2-1.15,1-.79A10.82,10.82,0,0,1,107.18,177Z"/><path class="cls-106" d="M114.14,172c1.43-1.44,2.69-.94,3.6.51.38.6.59,1.94.25,2.25-1.44,1.3-2.54-.47-3.85-.72A1.49,1.49,0,0,1,114.14,172Z"/><path class="cls-107" d="M126.07,173.41c-.12.73-.34,1.36-1.16,1.42-1.72.13-1.61-1.34-2-2.36-.24-.73,0-1.36.9-1.28A2.29,2.29,0,0,1,126.07,173.41Z"/><path class="cls-108" d="M132.2,169.05a4.56,4.56,0,0,1-.27-.91c.18-.19.36-.39.53-.59a3.14,3.14,0,0,1,3.68.41c.35,1,.7,2,1.06,3.08l-4,0C133.14,170.22,133.1,169.41,132.2,169.05Z"/><path class="cls-109" d="M91.15,178c1.61-.3,1.73-2.18,3-2.85l1.13.79.48.61a2.61,2.61,0,0,1-.54,2.87c-1.54.77-3,.94-4.15-.65Z"/><path class="cls-110" d="M98.18,176l-.94,1-.61.21A2.56,2.56,0,0,1,95.24,176l0-.11c.11-.87-.41-2.22.81-2.39C97.73,173.29,98.09,174.67,98.18,176Z"/><path class="cls-111" d="M107.76,174.18a1.08,1.08,0,0,1-1.5.67c-.5-.22-1.23-.78-1.21-1.15,0-.73.86-.73,1.47-.63S107.79,173.31,107.76,174.18Z"/><path class="cls-60" d="M114.14,172v2l-2.94,0h0C111.28,172.05,112.7,172,114.14,172Z"/><path class="cls-92" d="M155,142.9l-7,8c.31,3.65-3.34,2.64-4.88,4.13l-3,1.95a10.27,10.27,0,0,1-4.22,3.39,4.05,4.05,0,0,1-1.38.29,1.84,1.84,0,0,1-1.82-1.82c.16-1.46,1.24-2.25,2.28-3.05a96.16,96.16,0,0,0,21.74-22.68,1.35,1.35,0,0,1,1.87.24,5.31,5.31,0,0,1,.66,1.22,5.08,5.08,0,0,1,.34,2.7A10.67,10.67,0,0,1,155,142.9Z"/><path class="cls-112" d="M133.17,159.07l2,1a2.4,2.4,0,0,1,.07,2l1.87,2.73-.92,2.25c-2.55,1.12-2.75-.58-3.21-2.13-.41.72.51,2.13-.52,3a3.87,3.87,0,0,1-.55.25c-1.31-1.52-.3-4.26-2.75-5.18,0-.31,0-.62,0-.93,1.57-1.39,0-2.38-.55-3.36A113.3,113.3,0,0,1,123,148.28c-.76-1.59-2-3.13-1.1-5.09.94-.81,1.75-.27,2.56.24,1.87,1.78,2.7,4.26,4.25,6.25,1.09,1.9,1.87,4,3.11,5.79C132.78,156.48,132.62,157.9,133.17,159.07Z"/><path class="cls-113" d="M143.16,155c.93-2.2,4.06-1.8,4.88-4.13,1.62.24,2.15,1.26,2.14,2.81,0,1.91.8,3.2,2.94,3.2-.65,2-2.25,2.21-4,2.14s-2.81.46-3,2.38c-.14,1.15-.73,2.62-2.11,2s-1.09-2.44-.55-3.51a29.66,29.66,0,0,1,3.15-4.24C145.46,154.66,144.26,155.2,143.16,155Z"/><path class="cls-114" d="M135.26,162c-1.36-.61-.12-1.32-.07-2h0c1.75-.36,3-1.91,4.83-2.08,3.51,1.12,2.45,2.77.16,3.79C138.78,162.37,136.92,162,135.26,162Z"/><path class="cls-112" d="M140,158c-1.5.93-2.69,2.61-4.83,2.08,1.48-1.28,2.87-2.7,4.92-3.05A2.65,2.65,0,0,1,140,158Z"/><path class="cls-115" d="M155,142.9c.78-2.39,2.77-3.94,4.14-5.91,1.36,1,1.43,2.68,2,4.07l-4,6C157.14,145.28,157.65,143.27,155,142.9Z"/><path class="cls-116" d="M132.48,167.89v-4c1.53.81,1.63,3.18,3.73,3.07a8.22,8.22,0,0,1-.07,1Z"/><path class="cls-117" d="M166.1,140l-2.95.12a3.34,3.34,0,0,0-1-.19c-3.2-.09-2.36-2.53-2.53-4.38,1.49-1.8,2.45-.09,3.58.52.52.43,1,.9,1.49,1.35C165.35,138.2,166.76,138.56,166.1,140Z"/><path class="cls-48" d="M160.27,135.11c-.63,2.12.27,3.62,1.93,4.82-.33.38-.66.76-1,1.13-2.71-.33-1.8-2.5-2-4.07-.29-.63-.57-1.26-.85-1.89A1.28,1.28,0,0,1,160.27,135.11Z"/><path class="cls-118" d="M168,118.89c0,2,.68,3.49,3.12,3.14.58-.54.91-1.58,2-1a2.1,2.1,0,0,1-1,2,6.88,6.88,0,0,1-1.3,1.23,3.68,3.68,0,0,0-1.42,3.08c-.1,1.31.5,2.65-.24,3.92a3.12,3.12,0,0,1-1.4.38,5.39,5.39,0,0,1-4.25-2.86C163.47,124.79,164.56,121.3,168,118.89Z"/><path class="cls-119" d="M169.23,131a6.17,6.17,0,0,1-1-4c1.13-1.1,1.28-2.69,2-4l2,0c1.77,1.44,4,2.91.45,4.75-1.8.95.92,4.31-2.43,4.23A1.15,1.15,0,0,1,169.23,131Z"/><path class="cls-46" d="M173.19,121.05l-2,1,1.08-5c3.21-.54,2.91,2.38,3.94,4Z"/><path class="cls-120" d="M166.1,140c-.63-.67-1.27-1.33-1.9-2a3.06,3.06,0,0,1,1.47-1.8c.65-.45,1.29-.91,2-1.31a1.93,1.93,0,0,1,1.16-.18l.46.38-.12,2.92Z"/><path class="cls-120" d="M169.23,131c.33.34.65.68,1,1,0,1.1.14,2.27-.94,3.06l-.2-.18c-.89-1.18-1.75-2.35-.8-3.91C168.58,131,168.91,131,169.23,131Z"/><path class="cls-121" d="M172.15,117c-.87.32-1,1.8-2.22,1.5-.18,0-.4-.54-.35-.77.29-1.37,1.39-1.61,2.56-1.71C172.15,116.38,172.15,116.71,172.15,117Z"/><path class="cls-122" d="M53.22,163.05a65.2,65.2,0,0,1,7-12c.17.17.33.35.49.52a4.66,4.66,0,0,0,3.25,3.8c7.59,3.26,15.1,6.62,23.61,6.49a4.43,4.43,0,0,1,2.79.85c1.41,1.66.58,3.73,1,5.57a4.08,4.08,0,0,1-.53,3.36l-.55.44L89.16,172c-2.11-2.5-5.3-1.09-7.8-2.16-7.22-2.21-14.63-3.86-21.39-7.41-1.16-.61-2.24.06-3.16.84a3.52,3.52,0,0,1-2.67.74l-.88.09c-.31-.21-.42-.43-.33-.65S53.12,163.05,53.22,163.05Z"/><path class="cls-123" d="M54.14,164a2.09,2.09,0,0,1,2.09-1c5.42,1.47,10.23,4.64,15.79,5.71,2.36,1.2,5.86-.14,7.22,3.25l.65.72c1,1.13,4.24-.65,3.63,1.89-.56,2.33-3.2,1.46-5.14,1.07C72.12,174.38,66.21,172,60.2,170,56.48,169.7,54.16,168,54.14,164Z"/><path class="cls-124" d="M79.24,171.93l-8-2c-.88-2.1.46-2.73,2-2.59,2.69.24,5.53,0,7.92,1.72,1.75,0,3.5.07,5.25,0,2.1-.08,2.88.95,2.71,2.92Z"/><path class="cls-125" d="M91.25,173c-.13.82-.07,1.71-1,2.17-1,.74-.19,1.8-.48,2.63-.69,2-1.62,1.56-2.55.14a2.14,2.14,0,0,0-.13-.91c-.43-2.58,1.46-3.7,3.12-5h0C91.14,171.81,91.58,172,91.25,173Z"/><path class="cls-126" d="M53.22,163.05c0,.33,0,.67,0,1,0,2.11.3,4.46-3.06,4l2-4Z"/><path class="cls-127" d="M87.24,178c3.23,1.5,1.05-2.91,3-2.77.29.92.58,1.85.88,2.77l0,.05c-.09,3.59,3.93,2,5.09,4a7.61,7.61,0,0,0,0,.83l-12,.08C86.48,182,89.86,181.8,87.24,178Z"/><path class="cls-128" d="M10,87.17l3.14,2.92c-.58,2.69-2.56,1.48-4.11,1.49-1.46-.7-4.4,1.18-4.22-2.4C6,88.49,4.75,83.93,8.3,87Z"/><path class="cls-129" d="M8.3,87c-2.42-1.34-1.88,1.6-3,2.1a1.73,1.73,0,0,1-.17-2.2c0-1.61,0-3.23.05-4.84,1.22-.73,2.86-3.49,3,.63C8.27,84.11,8.27,85.55,8.3,87Z"/><path class="cls-130" d="M5.1,86.89c.06.73.11,1.46.17,2.2.62,3.14,3,0,4.15,1.15-.48,2.1-2.88,4-.87,6.4,2.08,3.93,4.47,7.81,1.68,12.39-3.08-1.86-.87-5.76-3.08-8-1.18-.83-1.5-.68-1.83.85l-.21,1.29c-2.23-2.75.37-6.47-1.83-9.23a4,4,0,0,0-.09-.92C3.83,91,4.47,89,5.1,86.89Z"/><path class="cls-63" d="M107.18,12.08c-3.11,0-6.34.43-8.82-2.16,3.39.3,7-.21,9.94,2.05A.65.65,0,0,1,107.18,12.08Z"/><path class="cls-131" d="M103.29,6l.9.13c.43.7.87,1.4,1.31,2.1-1.66-.18-3.64.59-4.55-1.63Z"/><path class="cls-61" d="M107.18,12.08,108.3,12l2.88,0c.72,1.22,1.95,1,3.06,1.09C111.46,15.74,109.46,12.92,107.18,12.08Z"/><path class="cls-132" d="M96.22,182.07c-2.61-.2-6.28.92-5.09-4,1,1.53,2.56.92,3.94,1,.78-.56,1.34-1.36,2.17-1.86v-.09l.92,0a6.8,6.8,0,0,1-.93,4Z"/><path class="cls-133" d="M10.23,109c.58-4.68-.79-8.87-3.16-12.82,4.17-.95,6,1.42,7.07,4.94-.57,5.61,1.94,10.67,2.9,16C14.38,114.77,13.74,110.7,10.23,109Z"/><path class="cls-134" d="M5.32,101.92V98.58l1.83,2.49A1.53,1.53,0,0,1,5.32,101.92Z"/><path class="cls-135" d="M153.17,37.11l-1,3a2.37,2.37,0,0,1-2.69-.8c-3.93-4.32-9-7.32-13.07-11.47-.33-1.24-2.66-2.36-.26-3.78,5-.12,6.78,4.71,10.09,7.08C148.6,32.85,150.88,35.08,153.17,37.11Z"/><path class="cls-136" d="M136.14,24.06c-1.25,1.46,1.13,1.85.89,3-1.86,1.34-3.81.62-5.75.27-.54-2.8,1.73-5.27,1-8.1,2-1.76,3.58-1,5,.8A6.24,6.24,0,0,1,136.14,24.06Z"/><path class="cls-137" d="M138.11,20.13l1.1-1.09c1.18,1,1.59,2.78.33,3.3C137.69,23.11,138.49,21,138.11,20.13Z"/><path class="cls-138" d="M110.15,16.12l11,3c2.63.32,5.49.08,7.06,2.94l1,1,.09.88a1.1,1.1,0,0,1,0,1.29c-2,1.09-3.61-.36-5.33-1-.41-.19-.81-.42-1.2-.65-1.81-1.42-4.06-1.65-6.18-2.24A15.17,15.17,0,0,1,112.7,20c-1.48-1-3.83-.34-4.73-2.45C108.18,16.25,109.57,16.82,110.15,16.12Z"/><path class="cls-139" d="M128.2,22.06l-7.06-2.94c1.59-2.8,4-.92,6.06-1.06C128.66,19.11,128.06,20.68,128.2,22.06Z"/><path class="cls-140" d="M131.29,27.06c1.91-.76,3.83-.06,5.74,0l15.13,13.05,4.08,5.8c0,1.79,3.85,2.79,1,5.15-4.67-2.25-6.47-7.4-10.43-10.37-1.94-1.51-3.19-3.7-5.18-5.16-1.81-1.61-3.81-3-5.75-4.43-1.38-1-2.81-1.76-4.1.17a3.48,3.48,0,0,1-1.77,1.08A1.55,1.55,0,0,1,128.65,31C128.79,29.17,129.35,27.65,131.29,27.06Z"/><path class="cls-141" d="M164.15,48,161,52.62c-1.47-1.49-1-3-.78-4.53l3-1.05A3.65,3.65,0,0,1,164.15,48Z"/><path class="cls-142" d="M164.15,48l-1-1c1.64-.15,3.3-1.41,4.91.09-.41.93-1.32.9-2.11,1.11Z"/><path class="cls-143" d="M131.29,27.06l-2.1,4a.91.91,0,0,1-1.34-.24,6,6,0,0,1,1.36-5.8c0-.35,0-.71,0-1.06,1.93-1,1.18-3.68,3-4.73C136,22.35,132.17,24.52,131.29,27.06Z"/><path class="cls-144" d="M114.17,84.05a76,76,0,0,1,17-10c.41-.26.86-.6,1.34-.37,4.84,2.37,7.53,13.42,4.42,18-2.25,1-4.63.61-7,.72-5-.64-10.27,1.48-15-1.71C113.38,88.68,112.41,86.54,114.17,84.05Z"/><path class="cls-145" d="M137.2,91c0-6.36-.07-12.71-6-17,2.28-2.29,5.16-3.61,8-5,3.33-1.82,5.28-1.43,6.2,2.83,1.08,5,3.37,9.66,4.28,14.72.34,1.9,1,4-1.29,5.3C144.6,92.39,140.76,93.46,137.2,91Z"/><path class="cls-146" d="M149.2,91c-.94-6.37-3.69-12.26-5.15-18.37-.94-3.93-1.79-4.27-4.85-3.6l4-3c1.31-.71,2.87-.9,4-2l1,0a1.72,1.72,0,0,1,.92.32c5.35,5.07,8.83,20,6.25,26.7a1.6,1.6,0,0,1-.72.66C152.7,92.45,150.83,92.64,149.2,91Z"/><path class="cls-147" d="M165.18,91.05c-1.66,1.1-3.32-.31-5,0-.67-.73-1.47-1.57-1.35-2.54,1-8.37-3.51-15.1-6.46-22.3-.56-1.35-1.32-2.72-.19-4.15l2-3c2.22-1.16,3.57.28,4.43,1.86a70.25,70.25,0,0,1,8.21,27.35A2.81,2.81,0,0,1,165.18,91.05Z"/><path class="cls-148" d="M143.22,62.06c-4.36,3.21-8.72,6.42-13.94,8.15a1.52,1.52,0,0,1-.26-1.32c.69-1.67,2.14-2.44,3.67-3.13,5.17-3.13,5.44-4.5,1.17-8.32-3.9-3.51-7.64-7.35-13-8.63-.59-2.92,1-4.7,3.2-6.19,3.21-.66,5.28,1.69,7.63,3.06,5.75,3.33,9.59,8.54,13.09,14C144.87,60.9,144,61.48,143.22,62.06Z"/><path class="cls-149" d="M165.18,91.05c1-5.84-1-11.34-2.27-16.84-.93-4.1-3.16-7.9-4.76-11.85-.73-1.84-1.84-3.12-3.92-3.3,1.12-1.92,3.66-1.45,5-3,7.3,10.52,10.05,22.34,10,35Z"/><path class="cls-150" d="M130,32l1-1c4.21-2.09,6.3,1.92,9.32,3.24,2.63,1.62,4.26,4.46,7.09,5.84,4.29,2.81,6.64,7.35,9.91,11.07.05,1,1.54,2,0,3-2.32,1.45-3.37-.29-4.88-1.64-3-2.63-4.11-7.22-8.71-8-5.15-2.63-9.49-6.54-14.63-9.18A2.76,2.76,0,0,1,130,32Z"/><path class="cls-151" d="M152.19,62.05c2,4.59,3.39,9.51,6,13.69,3.14,5,1.07,10.26,2,15.3l-1.05,0A2.67,2.67,0,0,1,155.2,91c-.28-.6-.94-1.36-.77-1.78,3.94-9.91-4.17-16.8-6.24-25.18C149.35,63.05,149.55,60.1,152.19,62.05Z"/><path class="cls-152" d="M114.23,80.1c-.83,1.17-2.63,1.34-3,3,2.06,1.92,2.82,4.5,3.63,7.07.31,1.13.43,2.5-.83,2.83-1.78.47-2.59-1.39-3.82-2.25a5.43,5.43,0,0,1-.81-1.15c-.87-2.06-2.14-3.92-3.21-5.89-.72-2.36-3.6-3.13-4.17-5.6a10.55,10.55,0,0,1,4.19-3.35c3.29,0,4.21,3.81,7.09,4.49A2.62,2.62,0,0,1,114.23,80.1Z"/><path class="cls-153" d="M144.19,44.05c.32-2.43,1.39-1.14,2.11-.34,2.52,2.77,5.12,5.49,7.37,8.48a4,4,0,0,0,3.64,1.92c-4.43,3.13-8.22,7.38-14.1,8,.34-.66.68-1.31,1-2a7.85,7.85,0,0,1,3.25-2.36c4.06-3.1,4-3.59.73-7.52C146.63,48.35,143.8,47.22,144.19,44.05Z"/><path class="cls-154" d="M114.23,80.1,113,79.93c.77-3.75,4.59-4.29,6.83-6.51a8.92,8.92,0,0,1,3.4-1.16,2.38,2.38,0,0,1,2,.81C122.25,76.49,118.29,78.38,114.23,80.1Z"/><path class="cls-155" d="M114.19,90.05c0-2.76-3-4.23-3-7,.71,1.16,1.88,1,3,1,.35,2,.69,4,1,6l-.51.39Z"/><path class="cls-156" d="M125.22,73.07l-2,.05-.43-.53c0-.23.08-.45.11-.68a4.8,4.8,0,0,1,2.65-2,10.44,10.44,0,0,1,3.06-1.13l.6.27c0,.38.06.76.08,1.15C128.39,71.81,126.55,72.07,125.22,73.07Z"/><path class="cls-151" d="M147.2,64.07c-.77,1.79-2.28,2.08-4,2A5.18,5.18,0,0,1,147.2,64.07Z"/><path class="cls-157" d="M175.35,90.19c-1.42,1.25-2.86,3.74-4.15-.1.33-.34.67-.68,1-1l1,0C173.59,90,174.5,90,175.35,90.19Z"/><path class="cls-158" d="M168,118.89c-1.3,3.36-3.37,6.41-3.94,10.06a2.86,2.86,0,0,1-1.08,1.18c-1.34.59-2.63.94-3.48-.75-.53-1.94.45-3.54,1.17-5.18a60.36,60.36,0,0,0,5.09-24c0-1.82,0-3.65,1.37-5.13,1.66-1,2.64.61,3.94,1,2.13,2.63-.65,5.36.16,8Q169.65,111.48,168,118.89Z"/><path class="cls-159" d="M160.18,95.05l1,0a3.8,3.8,0,0,1,2.16,4.1c-1.07,9.69-2.54,19.28-7.67,27.86-2.82,1.5-4.58-.18-6.25-2.1-1.09-1.77-1.81-3.78-.74-5.66,4.1-7.2,4.44-15.37,6.16-23.18,1.3-1.34,3-1.25,4.63-1.17Z"/><path class="cls-160" d="M155.18,127.06c2.78-8.27,5.68-16.48,6.66-25.24.27-2.36.58-4.58-.64-6.73,2-.88,4,0,6,0,.52,11.58-1.24,22.68-6.79,33,.81,1.06-.14,1.31-.19,2C157.73,130.37,155.66,130.05,155.18,127.06Z"/><path class="cls-161" d="M155.2,91l3.94.08c0,.32.07.63.09,1l-.58.58c-5.63,1.65-11.4.42-17.09.78-2.1.14-4.29-.36-6.17,1-2.36.83-4.3.43-5.6-1.88a1.66,1.66,0,0,1,.4-1.5l7,0h12Z"/><path class="cls-162" d="M159.23,92c2.59.28,1.49,1.73,1,3h0c-7.82,1.38-15.66,2.36-23.56.58A1.35,1.35,0,0,1,136,94c2.86-1.85,6-.65,9.07-1,4.66-.48,9.45,1,14-1Z"/><path class="cls-163" d="M94.13,16l3.11-1.92c2.64.78,6-1.64,8,1.87a3.55,3.55,0,0,1-2.37,1.85,18.77,18.77,0,0,1-8.26-1.21Z"/><path class="cls-164" d="M103.27,16.93l2-1,4.89.2-2,1a3.56,3.56,0,0,1-4.35.37Z"/><path class="cls-165" d="M55.19,23.07c4-1.83,8.45-2.31,12-5l11-3c3.43-1.2,6.84-2.44,10.57-1.53,1.44.32,2.84.67,2.45,2.67-3.83,2.34-8.29,1.92-12.46,2.75a68,68,0,0,0-17.89,5.68c-1.76.9-3.59,1.84-5.63.67A1.66,1.66,0,0,1,55.19,23.07Z"/><path class="cls-166" d="M89.16,14.14l-11,1c2.52-3.1,5.58-3.89,9.22-2.14l1.89-1a5.67,5.67,0,0,1,.92,0C90.8,13.21,91,14.18,89.16,14.14Z"/><path class="cls-167" d="M89.16,14.14A2.19,2.19,0,0,0,90.22,12c1.27,0,.29-2.35,2-1.93.94,7.78,2.15,15.45,1.57,23.46-.87,12,0,24,.12,36a3.24,3.24,0,0,0,1.8,0c6.93,1.29,6.93,1.29,10.85-5.8,2-2,2.07-5.32,4.58-7a1.63,1.63,0,0,1,1.34.37c.93,2.59-.58,4.68-1.41,6.92-1.34,2.43-3,4.68-4.21,7.18-1.6,2.89-4.32,4.71-6.57,7a2.55,2.55,0,0,1-1.34.09c-6.85-4-12.44-.79-17.9,3.13-1.4.64-2.27,1.94-3.47,2.83a2.47,2.47,0,0,1-1.29.19,9.37,9.37,0,0,1-2.83-1.77,1.69,1.69,0,0,1-.51-1.22C74.88,78,79,76.59,80.75,73a3.52,3.52,0,0,1,1.53-1.38c2.19-.63,4.62-.49,6.52-2,2.14-4.26.62-8.79,1-13.17.16-1.81-.06-3.64,0-5.47.21-3.36-.13-6.73,0-10.09,0-.82,0-1.65,0-2.47s0-1.6,0-2.41c0-1.81,0-3.63,0-5.45,0-.77,0-1.53,0-2.3,0-1,0-2,0-3,0-.76,0-1.52,0-2.28s0-1.55,0-2.33a6.58,6.58,0,0,1,1.2-4.51Z"/><path class="cls-163" d="M94.35,70.75c-.16.57-.35,1.71-.9,1.28-1.22-1-1.26-2.6-1.25-4.13,0-11.55-.58-23.13.21-34.62.53-7.8-1-15.46-.2-23.18,2.09,1.48-.15,4.38,1.92,5.87l.27.29c2.39,4.78.65,9.89,1.21,14.81q0,7.53,0,15.06,0,9.19,0,18.38A11.81,11.81,0,0,1,94.35,70.75Z"/><path class="cls-168" d="M44.2,63.05a34.58,34.58,0,0,1-10-6c5.05-8.85,12.55-15.29,20.77-21a2.88,2.88,0,0,1,2.41-.3c2.57,2.59,5.31,5.08,5.25,9.18A118.09,118.09,0,0,0,44.2,63.05Z"/><path class="cls-169" d="M44.2,63.05c3.92-8.07,10.15-13.84,18-18,3.55,1.88,5.09,5,5.52,8.84C62.15,58.16,57.36,63.3,52.2,68Z"/><path class="cls-170" d="M52.2,68c3.69-6.1,8.48-11,15.07-14,3,.56,3.94,3.07,5,5.41a5,5,0,0,1,.21,2.82c-1.66,3.55-5.85,4.68-7.89,8.17,1.74-.51,2.13-2.19,3.33-3,1-.66,2-1.35,3.11-.44,1.26,1.06,1,2.47,0,3.48-1.66,1.67-3.15,3.34-3.22,5.85A2.14,2.14,0,0,1,67,77.43c-1,.11-2,.13-1.76-1.37Z"/><path class="cls-171" d="M57.2,36.07C49.14,40.45,43.28,47.28,37.32,54c-1,1.11-1.73,2.43-3.13,3.11l-1,0c-1.26-4.33,2-6.76,4.28-9.3,5.34-5.9,11-11.54,17.85-15.74C57.64,32.59,57.74,34.19,57.2,36.07Z"/><path class="cls-172" d="M55.2,32.07c0,2.79-2.58,3.2-4.15,4.44A85,85,0,0,0,35.19,52.58a8.59,8.59,0,0,0-2,4.45l-2-1.94a2.16,2.16,0,0,1-.56-1.29c5.22-9.48,13-16.45,22-22.07a2.5,2.5,0,0,1,1.94-.1Z"/><path class="cls-173" d="M31.21,54.05c0,.35,0,.69,0,1A4.58,4.58,0,0,1,26.32,52C33,42.55,40.48,33.84,50.49,27.64c1.22-.34,2.39-.49,3.09.92.27,2.15-1.56,2.69-2.84,3.62a93.16,93.16,0,0,0-15.35,14C33.45,48.42,30.82,50.49,31.21,54.05Z"/><path class="cls-174" d="M21.33,59.05c.29-1.33.59-2.66.88-4-.26-.22-.34-.44-.26-.66s.17-.33.26-.33c10.79,4.26,21,9.63,30,17-.18.15-.35.31-.52.47-4.37.58-7.09-2.8-10.55-4.4-1.39-.66-2.63-1.56-4-2.31-1.09-.66-2.24-1.22-3.34-1.88a9.26,9.26,0,0,1-1.46-1.19,6.29,6.29,0,0,0-2.67-1.51,13.1,13.1,0,0,1-1.82-.64C25.84,57.75,23.52,59.11,21.33,59.05Z"/><path class="cls-175" d="M50.2,28.06c-.16.29-.25.68-.49.86C41,35.29,33.84,43.28,27.26,51.79c-.15.21-.62.17-.94.24l-.18-1,7.08-9.93c2.42-1.34,3.38-4,5.11-5.89C42.22,33.25,44.72,29.29,49,28A.83.83,0,0,1,50.2,28.06Z"/><path class="cls-176" d="M65.2,76.06a2.13,2.13,0,0,0,2,1,13.1,13.1,0,0,1,6,4.94l.92,0c1.22,2.51-.55,2.59-2.23,2.74-4.53-1.78-8.27-5-12.71-7-2-1.56-4.44-2.54-6.37-4.24-.6-.75-1.2-1.51-.66-2.55h0c3.24-.23,5.17,2.52,7.91,3.48C61.8,75.13,63.3,76.25,65.2,76.06Z"/><path class="cls-177" d="M22.21,54.07v1c-2.13.1-3.89-.31-4.07-2.93.65-1.16,1.37-.22,2.07-.07Z"/><path class="cls-178" d="M21.33,59.05c2.29-2.61,4.58-3.06,6.88,0-.67,5.31-3.86,9.75-5.05,14.89-1.26,5.45-2.35,10.93-3.08,16.48a3.7,3.7,0,0,1-.88,1.39c-4.79,1.34-5.69.48-5-4.85-.62-6.25,2-12,3-17.93a3,3,0,0,0,.16-.83Z"/><path class="cls-179" d="M14.15,87c0,3.42.77,5.93,5.06,4.13a2.06,2.06,0,0,1,0,3c-6.73-1.23-5.45,3.27-5.09,7.11-1.62-2.7-4.25-4-7.07-4.94-2.32-3.21-.1-4.64,2.35-6,1.26.33,2.58,1.94,3.74-.15C13.39,89,13.1,87.77,14.15,87Z"/><path class="cls-180" d="M50.2,28.06,49,28l2.4-2,.82-1c.31.06.62.1.94.13,4.32,3.16,6.1,8.14,8.79,12.45,3.32,5.32,5.83,11.12,9.41,16.31A6.72,6.72,0,0,1,72.88,59c-.3.75-.7,1.34-1.65,1.06-.39-2.62-2.68-4-4-6q-2.53-4.48-5.08-9c-.73-3.51-3.83-5.71-5-9-.67-1.33-1.34-2.66-2-4h0c-1.3-.58-1.53-1.86-2-3C52.49,27.87,51.3,28.09,50.2,28.06Z"/><path class="cls-181" d="M72.22,59.05a301.82,301.82,0,0,0-17.5-30.94c-.61-1-1.52-1.74-1.55-3l2-2c0,.66.06,1.32.1,2a7,7,0,0,1,2.44,2.72,25,25,0,0,0,1.94,3c.42.67.78,1.38,1.15,2.08a13.31,13.31,0,0,0,2,2.9,8.87,8.87,0,0,1,1.28,2.13,19.91,19.91,0,0,0,2.23,3.84,99.41,99.41,0,0,1,5.73,9.9c1.07,2.3,3.09,4.25,2.54,7.13a1.77,1.77,0,0,1-1.14.8A1.71,1.71,0,0,1,72.22,59.05Z"/><path class="cls-139" d="M33.18,146.1l9.09,8.9c-2.92.81-5.32-1-7.24-2.4C33.37,151.41,34.62,148.11,33.18,146.1Z"/><path class="cls-182" d="M54.2,156c-.66,1-1.31,2-2,3a106.57,106.57,0,0,1-25-24c-1.17-3.49,2-3.33,3.69-4.37a4.61,4.61,0,0,1,3,2.42,77.22,77.22,0,0,0,18.42,19.86C53.25,153.67,54.7,154.3,54.2,156Z"/><path class="cls-183" d="M31.22,131.06c-1.72.94-4,1.34-4,4h-1a3,3,0,0,1-1.89-1.94c5-3,10.38-5.31,14.94-9,1.18-1.8,2.6-3.11,5-2.32a2.06,2.06,0,0,1,.43,2c-.88,1.52-2.59,1.93-3.87,2.91a40.65,40.65,0,0,1-4.11,2.34C34.83,129.62,33.5,131.66,31.22,131.06Z"/><path class="cls-184" d="M44.19,124l0-2c-.45-.88.14-1.2.8-1.5,3.45.11,5.89-3.69,9.63-2.49,2.19,3.29,4.3,6.46,7.77,8.86,2.83,2,5.56,5,4,9.36-.4,1.46-.8,2.92-2.28,3.72l-1.93,2c-5.17-4-10.9-7.28-15-12.47C45.89,127.94,44.45,126.28,44.19,124Z"/><path class="cls-171" d="M31.22,131.06l5-3c3.68,4,6.68,8.59,10.48,12.54,2.41,2.5,4.59,5.16,7.54,7.09,1.45,1,3.23,2,2,4.36a5.49,5.49,0,0,1-2,4C45,149.14,37,141.13,31.22,131.06Z"/><path class="cls-185" d="M56.21,152.05c0-2-1.6-2.63-2.93-3.59-6.63-4.72-11.29-11.27-16.12-17.64a9.27,9.27,0,0,1-.94-2.76l4-2c3.75,2.49,5.65,6.66,8.77,9.78,3.47,3.48,7.51,6.1,11.22,9.21C58.14,147,58.43,150.21,56.21,152.05Z"/><path class="cls-168" d="M60.2,145c-9.53-3.32-15-10.94-20-19a5.53,5.53,0,0,1,4-2c4.61,6.45,10.53,11.47,17.09,15.82.55.37.63,1.44.93,2.18A3,3,0,0,1,60.2,145Z"/><path class="cls-186" d="M60.19,151.06l5-10,.52-.42a1.55,1.55,0,0,1,1.78.57,2.65,2.65,0,0,1,0,1.34,35,35,0,0,1-3.8,7.24c-1,1-1.76,2.44-3.51,1.31Z"/><path class="cls-187" d="M64.14,140l1.08-3.95c1.13-1.13,1.19-3.11,3-3.69a2.27,2.27,0,0,1,2,.64c0,3.67-2,6.15-5,8h0Z"/><path class="cls-188" d="M29.2,128l-4,2.06c-4.29-9-7.16-18.31-7.1-28.46,0-3.38.78-5.53,4.09-6.46a1.56,1.56,0,0,1,2.25,0c.88,9.84,1.29,19.76,5.21,29.07A3.58,3.58,0,0,1,29.2,128Z"/><path class="cls-189" d="M24.2,95.09l-2,0-3-1.07c0-1,0-2,0-3v0a3.27,3.27,0,0,1,1.84-1,5.31,5.31,0,0,1,2.1.12,3.42,3.42,0,0,1,1.2.65,3,3,0,0,0,3.58,2,43.37,43.37,0,0,0,6-.23c1.13-.4,1.56-1.69,2.67-2.11a2.71,2.71,0,0,1,2.81.54c.59.54-.23,1.9.39,1.84,10.73-1.1,21.61,1.06,32.27-1.45,2.62.11,3.15,1.44,1.93,3.57a9.34,9.34,0,0,1-2.89,3.33,4.16,4.16,0,0,1-2.43-.78c-1.92-1.27-4.09-1-6.22-1q-16.06,0-32.12,0C28.26,96.28,26,96.88,24.2,95.09Z"/><path class="cls-190" d="M38.22,123.05l-4,2c-4.41-3.39-4.18-8.84-5.77-13.42C27.18,108,27.33,104,27,100.22c-.18-2.1-.18-4.56,3-4.65,2.23,0,4.47,0,6.7,0a2.45,2.45,0,0,1,1.89,2.05c.38,7.56,3.34,14.58,4.49,22C42.32,122,40.51,122.85,38.22,123.05Z"/><path class="cls-191" d="M30.21,96.05c-3.05.61-2.06,3.08-1.9,4.78A80.16,80.16,0,0,0,34.18,125l-5,3c-2.93-7.82-4.46-16-5.62-24.21-.42-3-.85-5.87.62-8.67l6,0c.34.21.45.43.35.65S30.32,96.05,30.21,96.05Z"/><path class="cls-192" d="M38.22,123.05l4-3a15.77,15.77,0,0,1,7.16-4.73,3.21,3.21,0,0,1,2.86.5c-.32,4.38-4.16,4.19-7,5.36l-1.05.89-5,2Z"/><path class="cls-160" d="M94.22,167v-2c.61-1.85,1.61-3.23,3.79-3.22,9,0,17.28-2.68,25.32-6.38a3.93,3.93,0,0,1,2.45-.11c2,1.39,4.24,2.65,3.41,5.73-5.6.65-9.8,5.22-15.63,5.47-1.74.08-3.55.48-5.36.52h-.79C103,166.73,98.62,169.4,94.22,167Z"/><path class="cls-193" d="M129.19,161.05c.11-2.34-2.29-3.17-3-5-1.53-1.34-2.45-3.14-3.6-4.76-1.26-2.32-2.25-4.79-4-6.79-1.21-1.61-1.73-3.62-3.11-5.13-1.64-3-2.89-6.18-5-8.87-3-4.57-5-9.71-8-14.31a15.33,15.33,0,0,1-1.48-2.28,2.05,2.05,0,0,1,2.19-2.17c1.42.49,2,1.84,3,2.81a18.34,18.34,0,0,1,5.08,7.27c2.31,6.87,6.62,12.6,10.58,18.52.45.84.94,1.67.46,2.67,1.79,6.09,5.26,11.35,8.47,16.71,1.47,2.44.32,2.37-1.46,2.32C129.19,161.71,129.19,161.38,129.19,161.05Z"/><path class="cls-160" d="M95.2,170l-1-2c4.67-.24,9.21-2.19,14-1h0c-1.81,2.2-4.32,2-6.79,2C99.29,169,97.13,168.82,95.2,170Z"/><path class="cls-194" d="M90.2,115.09l2,4.9-.07.13c-.92,3.5-.22,7.07-.43,10.6-.09,1.58.34,3.32-1.47,4.3,0,.34,0,.68,0,1-.22.26-.48.64-.73.61-6.16-.71-12.47,1.52-18.54-.9a2.52,2.52,0,0,1-.25-1.43c1.79-5,5.26-9.11,7.3-14,1.62-2.81,2.88-6,6.43-7C86.43,113.67,88.61,113.4,90.2,115.09Z"/><path class="cls-195" d="M71.2,135c6.32.63,12.72-.27,19,1,.32.34.64.68,1,1-1.06,3.07-.21,6.24-.51,9.35-3.26,2.41-6.46,4-10.79,2.08-2.82-1.25-6.2-1.07-9.28-1.75-2.39-.52-4.58-1.47-3.41-4.71,0-.32,0-.64,0-1C67.84,138.6,68.2,135.94,71.2,135Z"/><path class="cls-196" d="M90.2,147c.45-3.32-1-6.82,1-10q0,6.52,0,13a72.72,72.72,0,0,1-.1,19c-1.69-1.79-.62-4-.94-6a6.08,6.08,0,0,1-1.4-4.31C89.08,154.81,87.61,150.68,90.2,147Z"/><path class="cls-127" d="M91.13,169.07q0-9.49.1-19a56,56,0,0,1,0,22.95l-1-.94C90.54,171.08,90.84,170.08,91.13,169.07Z"/><path class="cls-197" d="M90.22,135c1.66-2.94.68-6.16,1-9.24.19-1.9-.74-4,.92-5.66,0,3.72.08,7.44.06,11.17C92.18,132.83,92.64,134.71,90.22,135Z"/><path class="cls-198" d="M101.19,114.06a2,2,0,0,1,2,1c-.53.4.23,0-.32.39-6.72,4.62-7.49,6.87-5.78,15.07.73,3.49,2.27,4.9,5.86,3.78,3-.95,6-1.84,8.28-4.27,2.61,2.48,3.74,5.78,5,9,1.29,2.52-.88,3.21-2.32,4.07a32.41,32.41,0,0,1-13.71,4.06c-2.8.29-4.94-.62-5-4a5.39,5.39,0,0,0-.9-2.17q0-11,0-22a5,5,0,0,1-.17-4A7.94,7.94,0,0,1,101.19,114.06Z"/><path class="cls-199" d="M123.21,151c2,1.07,2.64,3,3,5-6.49,2.05-12.6,5.22-19.43,6.4a36.38,36.38,0,0,1-7.33.55c-2.11-.07-3.88.31-5.21,2v-6c4.47-2.72,9.88-2.44,14.6-4.69,2.9-1.39,6.26-1.86,9.12-3.71C119.57,149.58,121.62,148.75,123.21,151Z"/><path class="cls-200" d="M123.21,151a2.77,2.77,0,0,0-3.27,0c-4.12,3.92-10,3.6-14.71,6.08-3.22,1.69-7.21,2-11,1.9v-5c1-.95,0-2.53,1.12-3.44a4,4,0,0,1,2.82-.75c7.93,1.35,14.2-3.26,21-5.8C121.71,145.7,122.46,148.37,123.21,151Z"/><path class="cls-201" d="M101.19,114.06c-2.12,1.31-4.48,1-6.79,1-.38-.1-.56-.27-.53-.51s.09-.42.19-.42l.25,0c1-.95,2.43-.23,4.52-.93-.3.06-1.06-.9-.84-.27.09.26,0,.38-.21.44a4.41,4.41,0,0,1-3.64-.24l-3.94,2c-2,0-4.11.17-6-1-1.31.27-.81-2.83-2.73-1.46-3.68-.74-5.74-3.18-6.91-6.56a3,3,0,0,1,1.51-2.4c4.15-1.07,5.33,3.38,8.32,4.47,3.28.83,6.85.34,9.93,2.18.82.49,1.49-.37,2.08-.93a4.51,4.51,0,0,1,1.72-1.14,27.32,27.32,0,0,0,8-2.37c1.27,0,1.57.8,1.59,1.86a4.41,4.41,0,0,1-1.76,2.83,13.15,13.15,0,0,1-2.8,1.48A3.43,3.43,0,0,0,101.19,114.06Z"/><path class="cls-199" d="M108.19,167c-4.68,0-9.24,1.62-14,1v-1C98.88,168,103.54,164.14,108.19,167Z"/><path class="cls-199" d="M95.2,151c0,1.09.18,2.27-1,3q0-6.5,0-13l1,1C95.51,145,97.47,148,95.2,151Z"/><path class="cls-202" d="M94.06,114.11c.11.31.22.62.34.93-.07,1.33-.14,2.65-.22,4C92.67,117.42,92.78,115.78,94.06,114.11Z"/><path class="cls-203" d="M94.14,113.07h4.2c-1.32,1.67-2.82.64-4,1C94.25,113.74,94.2,113.4,94.14,113.07Z"/><path class="cls-56" d="M97.24,177.14A1.84,1.84,0,0,1,95.08,179c0-1,.1-2,.16-3C95.9,176.4,96.57,176.77,97.24,177.14Z"/><path class="cls-122" d="M133.17,159.07l-2-3.08c-1.08-2-1-3.7,1-5.15,7.9-5.83,14.21-13.16,19.95-21,2.23.24,4.53.37,5.07,3.25-3.52,8.49-10.47,14.07-17,20C137.89,155.1,135.51,157.06,133.17,159.07Z"/><path class="cls-204" d="M155.18,127.06l5,3,3.14-.9c1.6-.09-1.63,2.49,1.21,2,2.51-.4,3.89,1.13,3.73,3.78l-2,2.13a2.89,2.89,0,0,0-3.11,0l-2.89-2h-2l-.09-1c.72-1.87-.88-2.12-1.92-2.71-4.52-2.57-9.2-4.87-13.66-7.55-4-2.43-8.44-4.29-12.22-7.19-1.52-1.17-3.45-2-3.46-4.37a1.91,1.91,0,0,1,1.88-.81,7,7,0,0,1,2,.67c3.39,1.43,6.3,3.75,9.66,5.25,3.38,2,6.84,3.91,9.67,6.71C151.26,126.05,153.14,126.68,155.18,127.06Z"/><path class="cls-205" d="M143.21,123c5,2.82,9.95,5.64,14.9,8.5,1.25.72,3.43,1.56.1,2.54-.33-.34-.67-.68-1-1l-5-3c-2.21.35-3.82-1-5.53-2s-3.37-2.17-5-3.26a1.89,1.89,0,0,1-.65-1.19C141.49,122.53,142.23,122.31,143.21,123Z"/><path class="cls-206" d="M142.17,124.08l5,3c1.22,1.54.09,2.82-.48,4.13-2.59,6-7.14,10.37-12.21,14.13-2.11,1.57-4.15,3.25-6.31,4.75-2.38-1.3-2.68-4-4-6-1.09-1.43-.26-2.52.74-3.43,5.12-4.66,10.47-9.08,14.28-15C139.9,124.55,141.24,124.72,142.17,124.08Z"/><path class="cls-207" d="M128.18,150.07c.13-2.28,1.71-3.65,3.42-4.59,7.59-4.15,12.58-10.42,15.58-18.42l5,3c-.89,4.25-3.84,7.23-6.7,10.07-4.17,4.14-7.71,9-13.07,11.9-1.68.89-1.11,2.55-1.21,4A11.65,11.65,0,0,1,128.18,150.07Z"/><path class="cls-208" d="M142.17,124.08c-5.13,6.69-10.61,13-17.39,18.15-.42.32-.41,1.21-.6,1.84l-2-1.07-1-1.95a4,4,0,0,1-.55-2.79c5.85-5.23,10.65-11.5,16.52-16.72,2.1-.4,3.28.7,4,2.49C141.53,124,141.85,124.05,142.17,124.08Z"/><path class="cls-209" d="M163.16,137.08c1-3,2.07-.91,3.11,0l-2.07.92Z"/><path class="cls-210" d="M168.27,135c-1-3.1-3.66-3-6.31-3l1.37-2.87a2.49,2.49,0,0,1,.77-.19l4.16,2.06a5.35,5.35,0,0,1,.8,3.91l-.39,0Z"/><path class="cls-45" d="M170.22,123.08c0,1.68-.23,3.22-2,4A5.16,5.16,0,0,1,170.22,123.08Z"/><path class="cls-199" d="M90.2,159c0,1.34,0,2.68,0,4-10.75,1.14-20-3.72-29.44-7.52-2.91-1.17.46-3.05-.53-4.43,1.53.09,2-1.43,3-2.06,8.08,3.22,15.9,7.32,24.87,7.64C89.69,156.73,89.49,158.25,90.2,159Z"/><path class="cls-211" d="M81.2,169c-2-.33-4.1-.8-6.17-.94-1.48-.11-3.41-.61-3.8,1.81-5.2-1.87-10.76-3-15-6.93.19-1.94,1.42-3.63,3.15-2.61a64.83,64.83,0,0,0,21,7.52C80.69,168,80.92,168.63,81.2,169Z"/><path class="cls-212" d="M94.39,31.1q0-7.43,0-14.84c3-1,5.88.94,8.87.67l-.08.18A87.18,87.18,0,0,0,113.32,19l3.84,1.26c1.52,2.07,4.08,1.84,6.12,2.74a2.57,2.57,0,0,1,.91.12c.64,1.94,4.77,1.82,3,5.15-2.71.77-4.73-1-7-1.89a23.42,23.42,0,0,0-8.13-2,38,38,0,0,1-8.66-2.16,8.33,8.33,0,0,0-6.29-.5,2.1,2.1,0,0,0-.29,1.62,5.27,5.27,0,0,1-.09,1.77A11.05,11.05,0,0,0,96.28,28a10.57,10.57,0,0,1-.19,1.86A3.49,3.49,0,0,1,95.54,31,.93.93,0,0,1,94.39,31.1Z"/><path class="cls-213" d="M127.2,28.06c.36-2.49-3-2.69-3-5l5,1.92c.38,2.15-.67,4-1.1,6-.15,2.26-.58,4.3-3.44,4.47a1.43,1.43,0,0,1-.89-1c0-.23,0-.47,0-.7C124.59,31.71,125.35,29.57,127.2,28.06Z"/><path class="cls-213" d="M113.32,19a17,17,0,0,1-10.13-1.87l4.92.05Z"/><path class="cls-213" d="M123.28,23c-2.93,1.09-4.84-.13-6.12-2.74C119.15,21.26,121.88,20.64,123.28,23Z"/><path class="cls-214" d="M124.34,35.19c2.38-.35,2.21-3,3.77-4.14h1.08L130,32c.37,1.21-.37,2.11-.87,3.07,0,2.77-2.07,4.54-3.17,6.79-.43.54-1.15.73-1.59,1.27C123,44.93,121.54,46.71,121,49c.36,2-1.09,3.22-1.86,4.75-.41.72-.83,1.44-1.21,2.19s-.75,1.49-1.16,2.23a7.24,7.24,0,0,1-.77,1.07c-1.69,1.51-2.64,3.68-4.53,5a1.52,1.52,0,0,1-1.31-.2c.66-2.4,1.31-4.8,2-7.21-.54-2,.76-3.46,1.5-5.08a48,48,0,0,0,3.94-6.9,37.76,37.76,0,0,0,3-5.08C121.89,38.3,122.43,36.19,124.34,35.19Z"/><path class="cls-213" d="M140.19,35.06c-3.14-1.23-5.45-4.31-9.22-4.15.81-2.75,2.44-3.41,4.65-1.53s5.07,3,6.67,5.62A1.43,1.43,0,0,1,140.19,35.06Z"/><path class="cls-153" d="M140.19,35.06l2.1-.06c2.38,1,3.54,3.18,5.09,5C144,39.75,142.7,36.54,140.19,35.06Z"/><path class="cls-155" d="M130.19,91.07l0,1c-4.33,2.55-9,1.34-13.47.92a1.82,1.82,0,0,1-1.51-2.91l0,0C120.08,92.1,125.21,90.58,130.19,91.07Z"/><path class="cls-215" d="M124.34,43.08l.74-1.06c1.72-3.91,4.43-4,7.51-1.77,5.4,3.84,10.5,8,14.55,13.38,1.21,1.6,2.41,3.24,1,5.35l-3.92,1.11C138.59,53.26,133.19,46.16,124.34,43.08Z"/><path class="cls-216" d="M117.91,54c1-1.66,2.06-3.31,3.08-5a4,4,0,0,1,4.17,0,69.4,69.4,0,0,1,11.25,9.35c3.22,3.2,2.89,5.44-1.2,7.29a15.57,15.57,0,0,0-2,1.34c-2-2-3-4.78-4.63-7.09C125.89,56.16,122.71,53.72,117.91,54Z"/><path class="cls-156" d="M117.91,54c2.38-2.17,5-1.54,6.92.23,3.83,3.5,7.54,7.25,8.34,12.79-1.72-.08-2.6,1.47-4,2l0,0c-.68-.45-2.15-.32-2.08-1.07.67-6.71-5.65-7.64-9-11-.34-.34-.81-.56-1.15-.93A2.2,2.2,0,0,1,117.91,54Z"/><path class="cls-217" d="M148.14,59c.61-3-1.85-4.52-3.29-6.28-3.52-4.29-8-7.61-12.32-11.1-2.84-2.3-5.1-2.07-7.45.42.57-2.77,2.36-4.85,4-7,6.26,1,10.22,5.76,15.09,9,1.53,1.7,3,3.44,4.58,5.08C153.32,53.89,153.3,54.4,148.14,59Z"/><path class="cls-218" d="M120.28,74.21c-1.78,2.7-5.23,3.31-7.24,5.72-3.62.41-4-4-6.9-4.66-2.06-.47-.92-1.59-.53-2.57,1.57-1.65,2.21-4,4-5.51,1.5-1.13,2.23-3.09,4.07-3.87,5.46.07,9,3.3,9.57,8.73h0c-1.53,1.21-2.59.11-3.74-.72C119.6,72.33,121.15,72.94,120.28,74.21Z"/><path class="cls-219" d="M115.18,90.06c.35,2.38,2.2,2,3.77,2,3.74,0,7.47,0,11.21,0A5.64,5.64,0,0,0,135.21,94a.65.65,0,0,1,1,.08c0,.32,0,.65,0,1-1.67,1.68-3.72,1.28-5.74,1.06a41,41,0,0,0-15.1-.19c-1.8.61-2.67,3.55-5.29,2.14-1.36-2.68-2.45-5.35.18-7.93a3.47,3.47,0,0,1,2.51,1.1c2.63,2.38.79-1,1.44-1.17Z"/><path class="cls-220" d="M107.17,83.08c.64,2.15,2.8,3.54,3,5.91-.69.9-.5,2.34-1.77,2.88a10.48,10.48,0,0,1-4.78,1.23,5,5,0,0,1-3.34-1.23,4.07,4.07,0,0,1-.82-1.23,7.48,7.48,0,0,1-.39-2.2,5.09,5.09,0,0,1,.92-3.55,2.39,2.39,0,0,1,3.25.65c.69.62-.18,2,1,2.24.32.06.35-1.06.46-1.66A6.62,6.62,0,0,1,106,82.93.87.87,0,0,1,107.17,83.08Z"/><path class="cls-221" d="M108.19,91.05l2-2.06c0,.38,0,.75.07,1.12-1,2.65.32,5.29,0,7.94l-.51.32a23.59,23.59,0,0,0-3.56.46c-2.4,1-1.28,4-2.93,5.42a3.1,3.1,0,0,1-2,.59,4.59,4.59,0,0,1-3.14-1.64c2.57-2.88,2.68-7.54,6.74-9.34C105.94,92.94,107,91.93,108.19,91.05Z"/><path class="cls-222" d="M106.32,73.37c0,.64-1.54,1.14-.18,1.9-1,1.48-2.06,2.74-4,2.85a1.32,1.32,0,0,1-1.93-.14c-.12-.8-.25-1.6-.37-2.4,3.54.46,3.82-3.6,6.33-4.56A2,2,0,0,1,106.32,73.37Z"/><path class="cls-223" d="M100.22,78l1.93.14a10.56,10.56,0,0,1,5,5h-1c-4,1.16-5.83-1.32-7.21-4.47l.33-.67A7.32,7.32,0,0,0,100.22,78Z"/><path class="cls-224" d="M120.28,74.21c-.15-2.16-4.57-2.34-3.12-4.06,2.26-2.69,3.5,2.6,6,1.9,0,.36,0,.72,0,1.07Z"/><path class="cls-225" d="M117,56c3.92-2.08,3.85,4.58,7.37,3.37.75,2.42,6.56,2.5,3.11,7-.82,1.06,1.27,1.66,1.72,2.67l-3,1.95c-.91-.95-3.2.3-3.25-1.53-.16-5.21-4.34-7.9-6.85-11.63Z"/><path class="cls-224" d="M116,57.83c4.13,2.24,7.73,5.05,7.47,10.27-.11,2.35,2.16,1.6,2.63,2.89l-2.93,1.06c-2.31-3.93-4.36-8.19-10-8-.61-2.78,2.33-3.92,2.85-6.17Z"/><path class="cls-226" d="M150.18,124.07a35,35,0,0,1-10-6c-.4-.54-.91-1.16-.74-1.78,1.86-6.92,2.8-14.12,6.06-20.64,3.24.1,6.5-.63,9.7.41.32,3.62,2.46,7.42-1.76,10.5-.95.69-1.38,3.46-.79,4.64,1.63,3.26.54,5.13-2,7C148.43,119.86,149.13,122,150.18,124.07Z"/><path class="cls-227" d="M155.2,96.06h-10c-2.16,1.83-4.75,1.46-7.27,1.44-5.49.24-11,.12-16.47.08-1.82,0-3.68,0-5.2-1.32-.34-1,.14-1.63,1.14-1.61,4.27.09,8.56-.59,12.8.41h30C158.79,96.72,156.87,95.8,155.2,96.06Z"/><path class="cls-228" d="M136.18,94.07l-1-.08c-1-3,1.49-1.87,2.54-1.89,7.11-.08,14.23,0,21.35,0C158.7,95,156.44,94,154.85,94,148.63,94.12,142.41,94.06,136.18,94.07Z"/><path class="cls-173" d="M57.2,28.08c-.64-1-1.27-2-1.91-3,6.5-1.35,12.06-5.36,18.69-6.47,5.69-.95,11.34-2.14,17.11-2.54l0,5c-1.89,1.62-4,1.52-6.18.78.54-3-1.33-1.8-2.78-1.67-8.7.76-16.51,4.21-24.25,7.88Z"/><path class="cls-229" d="M71.2,52.06l-6-10c6.61-4.92,14.24-6.73,22.26-7.3a4.82,4.82,0,0,1,3.66,1.29v2c-1.44,1.33-3.45,1-5,1.75,1.62-.15,3.39-1.36,5,.23,0,3.66,0,7.32,0,11-5.36-5.8-10.86-2.61-16.31-.21C73.65,51.34,72.59,52.16,71.2,52.06Z"/><path class="cls-230" d="M71.2,52.06c4.1-4.42,9.84-4.65,15.17-6,4.76-1.22,2.53,4,4.78,5,0,5.41,0,10.82.06,16.23,0,2.17-.1,4-3,3.81,0-3.55,1.33-7-.12-10.7-1-2.44-2-2.94-4.42-2.43-2.77.6-5.15,2.34-8,2.53A1.74,1.74,0,0,1,74.22,59C73.21,56.69,72.2,54.38,71.2,52.06Z"/><path class="cls-231" d="M75.28,60.05c.89-.45,1.75-.94,2.66-1.34,3.43-1.5,7.1-3.87,10.67-1.86,2.54,1.42,1.82,10.65-.41,14.21a6.2,6.2,0,0,1-6,1C78.37,68.93,76.53,64.66,75.28,60.05Z"/><path class="cls-232" d="M107.21,64.08a21.15,21.15,0,0,1-1,2.72c-3.35,6.25-4.23,6.5-11,3.22-1-2.79-.3-5.67-.45-8.5.91-2.13-.19-4.65,1.28-6.67,3-1.19,5.81-.2,8.4,1.21C107.67,57.82,109.38,60.33,107.21,64.08Z"/><path class="cls-233" d="M91.14,36.05c-8.26-.62-15.72,2.14-23.07,5.44a13.09,13.09,0,0,1-2.85.57c-.58-1.38-2.15-2.26-2-4a5.45,5.45,0,0,1,3.17-3,65.12,65.12,0,0,1,21.43-5.77,5.2,5.2,0,0,1,3.32.76Z"/><path class="cls-223" d="M100.22,85c0,1.36,0,2.72-.08,4.09-2.08-.92-3.81-2.61-6.19-2.88-1-.86-1-4.64-3.63-1.23-.92,1.22-2.68.79-4,1.35-3.18-.13-3.8-3.44-6-4.82l-.26-.62c3.17-2.67,6.48-5,10.76-5.63,3.27-.45,6.28-.32,8.44,2.66l-.18.23c-1.85.49-3.84.88-1.39,3.26C98.76,82.46,100.74,82.89,100.22,85Z"/><path class="cls-234" d="M114.26,52.2l-2.14,4.66a2.78,2.78,0,0,1-.88.3,2.39,2.39,0,0,1-.72-2c1.24-3.26.23-5-3.1-6.47-3.82-1.66-8.29-1.23-11.7-4-.62-5.3.75-6.73,5.81-5.91a51,51,0,0,1,8.16,2.12C117.47,43.59,118.05,45,114.26,52.2Z"/><path class="cls-235" d="M111.19,55.05c0,.7,0,1.41,0,2.11-1.14,2.43-1.71,5.18-4,6.92.67-5.15-2.19-7.3-6.77-8-1.43-.23-2.82-.64-4.23-1-1.1-.72-.93-2-1.32-3a2,2,0,0,1,.17-1.33,2.68,2.68,0,0,1,1.53-1.33c4.73.07,9.52,0,13.43,3.33C110.73,53.32,111.75,53.8,111.19,55.05Z"/><path class="cls-173" d="M60.21,33.07a2.09,2.09,0,0,1-1-2c6.05-5.44,13.7-7,21.31-8.27,3.44-.59,7.14-1.91,10.61.28,0,.65,0,1.31,0,2-2.49,2.25-5.76,2.5-8.77,3a65.42,65.42,0,0,0-17,4.95C63.65,33.72,61.94,34.48,60.21,33.07Z"/><path class="cls-236" d="M91.13,30.07c-9.76,1.09-19.23,3.16-27.92,8l-1-2c.2-3,3-3.45,4.86-4.16A73.12,73.12,0,0,1,87,27a4.91,4.91,0,0,1,4.11,1.12C91.12,28.74,91.12,29.41,91.13,30.07Z"/><path class="cls-237" d="M91.13,23.07a64.09,64.09,0,0,0-27.77,6.39c-1.33.65-2.77,1.07-4.15,1.6a3.06,3.06,0,0,1-2-3l0,0c6.7-2.69,13.39-5.41,20.43-7.16,2.25-.56,4.4-1.5,6.54.18h6.92C91.12,21.72,91.13,22.4,91.13,23.07Z"/><path class="cls-233" d="M91.11,28.08c-10.4-.1-20.17,2.07-28.92,8a3.06,3.06,0,0,1-2-3c2.67.22,4.64-1.56,6.92-2.44,7.73-3,15.88-4.19,24-5.6Z"/><path class="cls-238" d="M72.22,59.05c.33,0,.65,0,1,0a44.43,44.43,0,0,1,8,14C82.79,76,79.66,76,78.54,77.16,76.9,78.89,75,80.41,73.24,82a11.43,11.43,0,0,1-6-4.94V77c1.52-1.17,2.85-.18,4.15.43,2.12,1,3.45-.12,4.74-1.55s1-2.88.27-4.56C75,68.24,71.68,66,72.18,62.07c-.32-.68-.64-1.36-1-2Z"/><path class="cls-239" d="M81.2,73a93.54,93.54,0,0,1-8-14l1,0,1.06,1a64,64,0,0,1,6.92,12Z"/><path class="cls-240" d="M95.29,51.07a8,8,0,0,0,0,1,20.34,20.34,0,0,1,0,9L95.2,70l-.85.73,0-24.66a.92.92,0,0,1,1.35.37C96.62,48.1,96,49.59,95.29,51.07Z"/><path class="cls-233" d="M91.13,40.05c-3.09.1-6.19,2.07-10.3-.08,4-1.26,7-2.09,10.31-1.9C91.14,38.73,91.13,39.39,91.13,40.05Z"/><path class="cls-241" d="M106.32,73.37c0-.78-.09-1.57-.14-2.35.41-2.84,2.22-4.88,4-7h1.18c.78,1.77-.23,2.86-1.47,3.86Z"/><path class="cls-242" d="M71.24,84.06c1.43,0,2.88,0,2.93-2a3.31,3.31,0,0,1,2,2,2.43,2.43,0,0,1-1,1.65c-1.75.67-1.77,3.12-3.71,3.61a2.11,2.11,0,0,1-1-1C70,86.73,69.92,85.26,71.24,84.06Z"/><path class="cls-243" d="M75.16,85l1-1,1,0a2.31,2.31,0,0,1,.61,1.43c-.59,1.47.11,4.13-3,3.31A3.06,3.06,0,0,1,75.16,85Z"/><path class="cls-223" d="M77.2,85.06V84c.71-1.27,1-2.88,2.88-3.12l.21.25C80.49,83.44,80,85.19,77.2,85.06Z"/><path class="cls-244" d="M95.15,46c-.26,0-.51,0-.77.05q0-7.5,0-15l.75-.07a3.4,3.4,0,0,1,1.19,2.11,14.49,14.49,0,0,1,.2,2.46c.22,3-1.38,5.9-.83,9A1.64,1.64,0,0,1,95.15,46Z"/><path class="cls-245" d="M72.18,62.07C73.76,64.79,75,67.79,77,70.15c2.87,3.37,1.49,5.42-1.17,7.85-1.75,1.6-3,2.27-5,.49-.93-.82-2.4-1-3.63-1.49-1.63-3.07.06-5,2.36-6.6,1-.67,2.33-1.47,1.07-2.64s-1.95.51-2.72,1.23c-.35.32-.5.86-.81,1.24C66,71.57,64.81,74.1,63,72.42c-1.49-1.4.6-3.31,1.86-4.45C67.19,65.87,69.73,64,72.18,62.07Z"/><path class="cls-149" d="M53.2,29.06l2,3c-5.45,1.23-9.25,5.3-12.81,8.88-4,4-8.52,7.85-11.18,13.11-2.14-.27-1.79-1.18-.91-2.66,5.2-8.76,12.86-15,21-20.86C51.91,30.06,52.55,29.55,53.2,29.06Z"/><path class="cls-229" d="M39.2,91.09h-3a1.78,1.78,0,0,1-2.28,0c-1-9.34.94-17.82,7.29-25,3.93,1.09,6.59,5,11,5l1,2c-4.49,1.73-5.44,5.8-6.56,9.81-.83,3-.38,6.35-2.81,8.81A4.67,4.67,0,0,1,39.2,91.09Z"/><path class="cls-246" d="M41.21,66.07a61.28,61.28,0,0,0-7,25c-1.53,1.48-3.21,1.36-5,.45-1.57-1.65-1.4-3.68-1.06-5.65,1.08-6.21,2.21-12.42,5-18.18.84-1.76,1.41-3.89,4.08-3.61C39,63.94,39.83,65.5,41.21,66.07Z"/><path class="cls-247" d="M37.22,64c-3.91,2.72-4.48,7.51-5.56,11.32-1.41,5-2.88,10.24-2.47,15.63a3.38,3.38,0,0,1-5,.1l-1,0c-1.88-3.42-.87-6.4,1.41-9.18,2,.89,1.17,2.22.87,3.59,1.33-8.37,3.59-16.44,8.71-23.4Z"/><path class="cls-248" d="M25.21,82.05a22,22,0,0,0-2,9h-2c-2.29-3.2-.6-6.48.07-9.58,1.73-7.92,3.63-15.85,8.9-22.38l3,2C30.68,68.12,28,75.08,25.21,82.05Z"/><path class="cls-249" d="M30.19,59.09c-1.36,6-4.82,11.08-6.43,17-1.34,5-2.54,9.79-2.54,14.92h-2c.47-11.38,3-22.2,9-32Z"/><path class="cls-250" d="M25.21,82.05c1.29-7.52,3.45-14.7,8-21l1,1c.52,2.57-1.41,4.38-2.36,6.33C29.11,74,28,80.18,25.42,86Z"/><path class="cls-230" d="M44.2,91.05A41.41,41.41,0,0,1,48,75.36c1.24-2.71,2.71-3.32,5.25-2.31,2.06,1.25,4.68,1.65,6,4-.92,3.52-2.12,7-2.75,10.55-.32,1.84-1,3.54-2.89,4.36C50.39,92.56,47.15,93.29,44.2,91.05Z"/><path class="cls-245" d="M54.2,91.05c.67-2.89,1.44-5.75,2-8.66.4-2.21,1-4.22,3.08-5.38a32.29,32.29,0,0,1,12,7l-.06,5a3.48,3.48,0,0,1-3,2.87C63.45,92.67,58.73,93.4,54.2,91.05Z"/><path class="cls-251" d="M68.19,133l-3,3c1.82-4.3-1.45-7.17-4-8.61-4-2.27-5.86-5.4-7-9.42,1.61-3.79,5.09-4.64,8.6-5.44,1.56,2.11,3.14,4,6,4.54,3.7.68,4,3.87,4.32,6.88a7.63,7.63,0,0,1-.94,3.4C71,129.39,70,131.47,68.19,133Z"/><path class="cls-252" d="M63.2,113l-9,5c-3.05.83-5.25,4.08-8.93,3.14,2.38-1.66,5.57-2.21,7-5.18.65-3.69,3.61-4.35,6.57-5a9.17,9.17,0,0,1,2.22,0,4,4,0,0,1,2.05.76A1.13,1.13,0,0,1,63.2,113Z"/><path class="cls-226" d="M90.2,159c-4.08-1.87-8.73-1.27-12.87-3.07-4.82-2.1-10.47-2.46-14.13-6.93,1.38-2.3,2-5,4-7,1,5.95,6.6,2.47,9.46,4.66.47.35,1.78-.46,2.31-.12,3,1.88,5.82,2.37,8.86.07.44-.33,1.57.25,2.38.41Z"/><path class="cls-93" d="M71.2,135l-4,6h-2l4.9-8.06.73-.12a.85.85,0,0,1,.39,1.18Z"/><path class="cls-253" d="M68.19,133c.19-2.4,1.85-4.06,3-6,.94-.29,1.34.29,1.63,1,.31,2.28-.88,3.76-2.65,4.92l-.1,0Z"/><path class="cls-254" d="M70.2,97.06l1,1c1.44,1.35,1.59,3.11,1.63,4.92-.35,1.74-1.78,2.42-3.12,3.18-2,1-4.07,2.11-6,3.3-1.51.91-3.15,2-4.93.4-1.09-3.39-1.87-6.87-4.32-9.73-1.12-1.32-1.9-3.23.4-4.55,3.66-.06,7.32,0,11,0C67.41,95.58,69.19,95.19,70.2,97.06Z"/><path class="cls-242" d="M54.2,91.05c3.74,0,7.49-.14,11.21.07A8.54,8.54,0,0,0,71.18,89l0,0a2.93,2.93,0,0,1,1,2.34c0,.22,0,.44,0,.66-9.11,3.5-18.59,1.64-27.9,1.65-2,0-4.14.11-6.29.25.45-1.09.81-2,1.17-2.87l5,0Z"/><path class="cls-255" d="M70.2,97.06c-5.22-2.13-10.67-.52-16-1-1.8,1.59-4,1.45-6.17,1.43-3.67,0-7.44.77-10.82-1.42h-7c0-.33,0-.65,0-1,11.74,0,23.47-.06,35.2,0C67.13,95.1,69.6,94,70.2,97.06Z"/><path class="cls-242" d="M72.2,103a8.16,8.16,0,0,1-1-5A3.73,3.73,0,0,1,73,94.49c1.48-1.13,1.16-2.15-.77-2.43l0,0c-.46-1.92,1-1.59,2-1.72a3,3,0,0,1,1.21.53,4.89,4.89,0,0,1,1.18,2.29,24.34,24.34,0,0,0,.06,3.72,5.22,5.22,0,0,1,0,1.31C75.93,100.48,75.69,103.26,72.2,103Z"/><path class="cls-256" d="M24.22,91.09l5-.1,5,0,2,0c0,1.08.21,2.25-1,2.92a7.73,7.73,0,0,0-8,0C25.52,93.75,22.29,95,24.22,91.09Z"/><path class="cls-257" d="M27.21,94c1.07-2.84,5.33-2.86,8,0Z"/><path class="cls-258" d="M37.22,96.06h11c2.43,5.56,1.85,11.73,3.5,17.47.52,1.79-1.54,1.8-2.5,2.55a22.3,22.3,0,0,1-7,4C39.93,112.19,37.63,104.32,37.22,96.06Z"/><path class="cls-144" d="M49.21,116.07c.79-1.1,2.09-1.7,1.25-3.7-2.19-5.18-2.39-10.75-2.25-16.32h6A4.28,4.28,0,0,0,55.67,100c3.28,2.63,3.87,6.19,3.54,10.08a1.26,1.26,0,0,1,0,1.94c-3,.18-4.91,2.15-6.92,4Z"/><path class="cls-144" d="M110.27,122.05c-1.58-2.4-2.88-5-5.06-6.94-.63-.89,0-1.79,0-2.68a27.55,27.55,0,0,1,5.07-6.68c5.53.42,9.27,4.7,14.12,6.59,1.54,1.17,3.4,2,4.34,3.84-1.58,6.83-6.12,11-12.32,13.65C112.48,128.7,112.58,124.43,110.27,122.05Z"/><path class="cls-144" d="M111.21,130c-1.1,3.61-11.48,8.08-13.87,5.6-1.42-1.46-1.45-4.33-2-6.6a14.66,14.66,0,0,1,0-2.89c-.15-7.73-1.82-9.19,7.81-11.08Z"/><path class="cls-259" d="M95.2,151v-9c1.16,3.94,3.58,4.61,7.37,3.44,4.89-1.5,10.45-1.4,13.63-6.44,2.28.9,1.86,3.41,3,5A3,3,0,0,1,117,147C109.9,149.33,103,152.66,95.2,151Z"/><path class="cls-260" d="M110.27,122.05c3.24,1.26,3,5.47,5.92,7,2.26,2.66,4.35,5.43,5,9,0,1,0,2,0,3C116.51,135.32,112.44,129.23,110.27,122.05Z"/><path class="cls-203" d="M106.18,113l-1,2.07-2-3.09a1.81,1.81,0,0,1,2-2C106.27,110.8,105.2,112.26,106.18,113Z"/><path class="cls-261" d="M70.21,133q1-2.46,2.12-4.92c.7-3.54,3.73-6.31,3.36-10.2,2-6.26,1.58-7.27-4.25-9.38a2.84,2.84,0,0,1-1.53-1.32,2.05,2.05,0,0,1,.08-1.34,5.9,5.9,0,0,1,3.06-1.26,3.45,3.45,0,0,1,2.15,1.44c2,2.39,3.58,5.2,7,6,.79,2.12-1.42,3.06-1.83,4.7-.36,1.43-2.47,2.39-1.14,4.27-2.69,4.32-4.55,9.16-8,13.05Z"/><path class="cls-174" d="M79.18,121c-2.11-4,1.47-6.15,3-9,1.83-.5,1.38,1.37,2.1,2A15.45,15.45,0,0,0,79.18,121Z"/><path class="cls-262" d="M101.16,104.07l2,0,.53.32a9.4,9.4,0,0,0,2.11,1.27l.43.45c-1.92,3-5,3.07-8,3-1.15-.45-1.59-.2-1,1-.1,1.4-1.19,2.49-2.19,1.82-3.33-2.23-7.27-1.65-10.79-2.84a4.18,4.18,0,0,1,2.36-2.56,30.74,30.74,0,0,0,11-1A6,6,0,0,0,101.16,104.07Z"/><path class="cls-263" d="M106.18,113c-1.16-.73-.94-1.9-1-3,.67-.67,1.33-1.34,2-2,1.49-1.68-.52-3.34,0-5a5.75,5.75,0,0,1,.43-2,8.4,8.4,0,0,1,2.55-3h.07c2.14.1,2.21-2.54,3.94-3a2.72,2.72,0,0,1,1.06,1.79c-.16,3.1-.26,6.19,1.21,9.08-2,2.14-4.15-1.38-6.18.13C110.18,109.15,106.19,109.93,106.18,113Z"/><path class="cls-264" d="M86.2,107a1.83,1.83,0,0,1-2,2c-3.61-.17-4.12-5.25-8-5a2.28,2.28,0,0,1-.79-1.26c.19-4.39,2.33-3.63,4.87-1.85,1.61,1.35,3.46,2.37,5.13,3.64C86.08,105.25,86.72,106,86.2,107Z"/><path class="cls-203" d="M108.17,103c-.54,1.64,1.89,3.86-1,5a2.06,2.06,0,0,0-1-2l-.07,0C105.75,104.31,106.05,103.06,108.17,103Z"/><path class="cls-203" d="M90,114c-.89-.09-2.51-.07-2.54-.27-.16-1.23.93-.55,1.49-.66a3.56,3.56,0,0,1,1.27.28C90.17,113.58,90.09,113.8,90,114Z"/><path class="cls-203" d="M97.18,110.07c-.78-.17-2-.37-1.39-1.38s1.71-.54,2.42.34Z"/><path class="cls-265" d="M76.16,103.13a6.54,6.54,0,0,0,.06.89l-1,2a2,2,0,0,1-2-1C73.68,103.65,74.31,102.46,76.16,103.13Z"/><path class="cls-144" d="M116.19,105.93c-4-2.24-2-5.8-1.94-8.91.51-.58.83-1.56,1.93-1l22,0c.72,2.89,2.45,6-2.36,7.21-1.31.32-1.07,1.87-1.42,2.9-.9,2.61-1.35,5.47-4.21,6.86l-1-1c-1.37-1.25-1-2.85-.75-4.4a3.66,3.66,0,0,1-3,3,11,11,0,0,1-3.57-.51C119.68,109.12,117.26,108.42,116.19,105.93Z"/><path class="cls-198" d="M130.21,113a34.81,34.81,0,0,0,4-10.66c.18-.86.32-2.6,1.55-1.49,2.14,2,2.57,1.66,1.88-1-.39-1.47.73-2.53.6-3.86h7c0,5.87-1.89,11.31-3.78,16.76a48.47,48.47,0,0,0-1.24,5.26C136.37,117.34,133.75,114.27,130.21,113Z"/><path class="cls-266" d="M122.19,109.07l3,1c.67.66,2.52.12,2,2,3,3.88,7.34,5.86,11.43,8.21,1.55.89,3.05,1.86,4.58,2.79a2.08,2.08,0,0,0-2,1c-1.41-.53-2.28-2.14-4-2-4-.48-6.53-3.19-9-6-1.45-.84-3.23-1.25-4-3C123.38,111.82,121.14,111.24,122.19,109.07Z"/><path class="cls-198" d="M127.2,112l-2-2c1.19-1,2.37-2,4-3.39v5.39Z"/><path class="cls-195" d="M128.18,116.08c3.38,1.42,6.09,3.85,9,6-4.85,5.82-9,12.3-16,16a20.28,20.28,0,0,1-5-9A25.13,25.13,0,0,0,128.18,116.08Z"/><path class="cls-244" d="M127.2,28.06a11.74,11.74,0,0,1-3,6c-3.77-2.22-7.6-4.32-12.07-4.77a7.35,7.35,0,0,1-3.26-1c-1.45-1.2-3.28-1-5-1.3-.44-.08-.87-.19-1.3-.31-1.73-.6-3.61-.26-5.35-.79A2.51,2.51,0,0,1,96.18,25c0-.65,0-1.31,0-2,2.48-2.13,5.22-1.31,7.93-.71s5.27,1.7,8.07.71C117.78,23,122.26,26.21,127.2,28.06Z"/><path class="cls-240" d="M112.2,28.06c4.43,1.15,9.41,1.21,12,6h0c-.76.86-.57,2.43-2,2.77-3.83.54-6.82-2.11-10.35-2.72-.47-.13-.92-.29-1.37-.46a16,16,0,0,0-7.82-1.27c-2.66,0-5.41.16-7.33-2.26V28c4.25-2.38,8.58-1.05,12.84-.16C109.52,28.14,110.76,29.31,112.2,28.06Z"/><path class="cls-267" d="M95.3,30.13a22.67,22.67,0,0,0,7.9.93c2.63.81,5.42,1,8,2h0c.57.56,1.74.42,1.93,1.29a1.31,1.31,0,0,1-1.44,1.53C106.21,35,100.22,37,95.28,33c0-.67-.09-1.33-.14-2C95.19,30.73,95.25,30.43,95.3,30.13Z"/><path class="cls-268" d="M112.19,23.07c-2.79,1.85-5.64.84-8.56.36a59.23,59.23,0,0,0-7.44-.36,1.92,1.92,0,0,1-.93-1.94,13.15,13.15,0,0,1,7.95-.09Z"/><path class="cls-269" d="M112.2,28.06c.19.83.94,2.24-1,1.51-5.19-2-10.6-1.37-16-1.56-.08-1.11-.27-2.24.88-3l1,.06c1.86,1.24,4.16-.27,6,1h0c1.83,1.3,4.16-.28,6,1C109.92,28.24,111.1,28,112.2,28.06Z"/><path class="cls-244" d="M103.21,21l-7.95.09A7.34,7.34,0,0,1,103.21,21Z"/><path class="cls-244" d="M122.16,36.06l2-2,.12,1.12c-.65,1.88-1.15,3.86-3.08,5C119.89,38.41,121.1,37.25,122.16,36.06Z"/><path class="cls-270" d="M95.27,45.08l0-10c7.94-1.39,15.39.51,22.52,3.77,3.56,1.62,1.1,4.2.48,6.41-1.11,2.45-1.83,5.12-4,6.93,2.13-7.66,2.13-7.68-5.91-10.22-2-.65-4.09-1.25-6.16-1.75-5.26-1.27-5.85-.77-6,4.83l-.45.36Z"/><path class="cls-271" d="M118.3,45.27c1.24-3.94-.76-5.75-4.27-6.79-6.13-1.81-12.23-3.69-18.74-3.39,0-.69,0-1.37,0-2.06,5.07.67,10.14,1.37,15.21,2,2.9.36,1.47-1,.71-2,4-.2,7,3,11,3-.3,1.36-.61,2.72-.91,4.08A8.77,8.77,0,0,1,118.3,45.27Z"/><path class="cls-225" d="M109.86,67.94l1.47-3.86a15.91,15.91,0,0,1,4.74-6.18c.21,2.59-1.81,4.15-2.85,6.17C112.28,65.51,112.07,67.6,109.86,67.94Z"/><path class="cls-272" d="M116.18,96l-1.93,1c0-.65-.07-1.3-.1-2a26.34,26.34,0,0,1,16,0C125.54,95.58,120.73,94,116.18,96Z"/><path class="cls-273" d="M94.2,86c3-.87,5,0,5.94,3.1v1.95c-1.45.61-2.48-.51-3.68-.9a8.09,8.09,0,0,0-10.29,7.07c0,.85,0,1.85.86,2.1a22.43,22.43,0,0,0,10.27.19c2.59-.5,2-3.36,2.47-5.34a11.61,11.61,0,0,1-.24-1.31,2,2,0,0,1,.64-1.78l2.9,1.06c.85.48,1.93.7,2.08,1.93.37.93.83,1.87-.84,2-1.34.08-3,.36-2.39,2.15,1.3,3.79-2,3.57-3.77,4.74a2.11,2.11,0,0,1-1.34.71c-2.31,0-4.61-.44-6.93-.27-3.16.1-6.28-.08-9.11-1.72-2.87-1.45-2.14-3.5-.94-5.64a9.36,9.36,0,0,1,2.65-4.27,9,9,0,0,1,1.11-.94c2.17-1.4,2.46-4.76,5.53-5.25C90.87,85.3,92.62,84.46,94.2,86Z"/><path class="cls-274" d="M100.22,85a3.77,3.77,0,0,0-2.67-2c-2.35-.54-2.83-2.42-2.25-4.27.71-2.25,2.56,0,3.8-.54,1.84,2.38,3.91,4.41,7.06,4.91,0,1.09.21,2.25-1,3-.67.63-1.38.08-2.07.06Z"/><path class="cls-275" d="M103.14,86.12c.66-1.18,1.37-.19,2.07-.06.4,1.27,2,2.65-.12,3.75a2.36,2.36,0,0,1-2.77-.36C100.8,88,103,87.27,103.14,86.12Z"/><path class="cls-223" d="M105.15,94.09l-2.08-1.93,5.12-1.11C107.48,92.36,107.11,94,105.15,94.09Z"/><path class="cls-276" d="M97.23,103.16l.92-.2,3,1.11c.22,2.44-.6,3.34-2.94,2C96.9,105.42,96.18,104.59,97.23,103.16Z"/><path class="cls-262" d="M110.14,98.05a2.83,2.83,0,0,1-2,3,3.68,3.68,0,0,1-2.2-2.37c.07-.21.15-.42.22-.64A3.17,3.17,0,0,1,110.14,98.05Z"/><path class="cls-262" d="M103.18,104c.51-2.25-1.32-5.69,3-6l0,0c-1,2,.5,5.24-3,6Z"/><path class="cls-149" d="M84.2,21.06a75.7,75.7,0,0,0-21.54,6.26c-1.74.82-3.38,2.28-5.43.72,6.57-5.7,14.73-7.49,22.91-8.82,3-.49,6.21-2.22,9.83-.47C88.36,21.06,85.46,19.06,84.2,21.06Z"/><path class="cls-234" d="M95.26,61.07v-9c1.1.76.9,1.92.95,3C95.86,57.06,97,59.29,95.26,61.07Z"/><path class="cls-277" d="M77.2,85.06c1.86-.64,2-2.6,3.09-3.89,3.49-.08,3.55,3.72,5.76,5.08.18,1.7.38,3.4-1.81,4-1.43-.83-1-3.69-3.61-3.24-.5.09-1,.43-1,.89,0,2.56,2.84,1.53,3.8,2.93a1.31,1.31,0,0,1,0,1.31l-.11,0c-4.54,3.29-4.54,3.29-8-1.22l-.1.07c-.68-.7-2.12-1.39,0-2.14C76.58,88,76.15,86.15,77.2,85.06Z"/><path class="cls-278" d="M84.23,90c1.46-.84.86-2.68,1.82-3.76a18,18,0,0,1,5.23-4.46C94.36,80.12,94,83.9,94.2,86c-3.61-.3-6.89,0-8.17,4.26a2.77,2.77,0,0,1-2.64,1.89c-.11-.38-.23-.76-.34-1.14C83,90.18,83.31,89.74,84.23,90Z"/><path class="cls-279" d="M111.19,55.05c-4-4.6-9.77-4-15-5a5.8,5.8,0,0,1,0-5h0c5.48-.29,10.39,1.74,15.15,4C115.18,50.88,111.88,53.05,111.19,55.05Z"/><path class="cls-234" d="M96.2,45.06c0,1.67,0,3.33,0,5l-.92,1c-.05-1.68-.09-3.35-.14-5l.12-1Z"/><path class="cls-167" d="M75.14,88.92c-1.09.73.13,1.43,0,2.14-1.09,0-2.26-.18-3,1-1.17-.71-1-1.89-1-3,1.51-1.15.55-4.72,3.94-4C75.15,86.33,75.15,87.63,75.14,88.92Z"/><path class="cls-280" d="M71.22,108c3.7-2.1,4.89,1.5,6.51,3.23,2.44,2.58-.49,4.61-1.52,6.79-.14,2.79-.82,5.23-4,6-.27-3.56-1.14-6.19-5.69-6.3-2,0-4.5-1.57-3.33-4.75l0-1A12.81,12.81,0,0,1,71.22,108Z"/><path class="cls-281" d="M72.22,124.08l4-6c1.69,4.5-1.72,7-3.88,10.05l-1.1-1Z"/><path class="cls-282" d="M70.24,106.11c0,.29,0,.59-.07.88-2.29,3-5.78,3.74-9,5h-2c0-.65,0-1.3,0-1.94,3.82-.7,6.4-3.83,10-5C69.59,105.35,70.18,105.46,70.24,106.11Z"/><path class="cls-265" d="M61.16,112l9-5,1,1.05a19.91,19.91,0,0,1-8,4Z"/><path class="cls-243" d="M70.24,106.11c-.36-.35-.71-.7-1.06-1.06l3-2c2.74-1.05,2.91-3.8,4-6,1.44-1.48,3.25-1.17,5-1,.1,1.74-3.11,2.84-1,5a.62.62,0,0,1,.21.71c-.1.22-.19.33-.28.33-1.62-.74-3.91-4-4,1.06l-3,1.94Z"/><path class="cls-278" d="M81.2,96.05a8.63,8.63,0,0,1-5,1h0c-.82-1.33,1-2.68,0-4A1.9,1.9,0,0,1,75.27,91c2.47-.08,2.65,2.36,3.92,3.89,1.22-1.38,1.77-3.56,4.09-2.67C82.61,93.5,81.16,94.37,81.2,96.05Z"/><path class="cls-243" d="M76.13,93.06c2,1.32.54,2.67,0,4C74.36,95.75,75.73,94.4,76.13,93.06Z"/><path class="cls-283" d="M122.19,109.07c.17,1.58,2.43,2.15,2,4-5.15-1.34-9-5.23-13.91-7,.06-1.56.69-2.07,2.23-1.39,1.19.53,2.48.84,3.72,1.25Z"/><path class="cls-284" d="M97.23,103.16l1,2.89a13.43,13.43,0,0,1-12,1l-1-2c.16-3.49,3.52-1.67,5-3C92.56,102.19,95.07,101.6,97.23,103.16Z"/><path class="cls-285" d="M103.2,104.05c1.69-1.65.69-4.64,3-6,.63,1,2.18,1.42,2,3,0,.66,0,1.31,0,2l-2,3C104.52,106.37,102.72,106.91,103.2,104.05Z"/><path class="cls-203" d="M90.17,102.07c-1.33,1.54-3.88,1.08-5,3-2.09-.3-3.48-1.76-5-3,0-.35,0-.7.07-1C83.51,101.63,86.79,102.36,90.17,102.07Z"/><path class="cls-240" d="M103.19,26.07c-2-.31-4.23.76-6-1C99.2,25.36,101.43,24.26,103.19,26.07Z"/><path class="cls-240" d="M109.18,27.09c-2-.35-4.24.76-6-1C105.19,26.39,107.44,25.23,109.18,27.09Z"/><path class="cls-271" d="M111.2,33.06a15.05,15.05,0,0,1-8-2C106.05,31,108.85,31.13,111.2,33.06Z"/><path class="cls-286" d="M100.22,93c1.78,3.26-.1,7.85-3.33,8-3,.11-6-.07-9,0-3.5.13-3.91-2-3.18-4.52,2.23-7.59,9.64-11.1,15.39-5.46l0,0c0,.65,0,1.29,0,1.93-1.66.92-3.19,0-4.76-.34s-3.15-.42-3.34,1.67c-.13,1.35-2.26,2.73-.55,3.91a4,4,0,0,0,5-.65C98.06,96.32,98.47,94.14,100.22,93Z"/><path class="cls-287" d="M84.23,90l-1.18,1a11,11,0,0,1-2,0c-1.63-.29-3.68-.52-3.64-2.63s2.24-2.82,4-3.06c2.14-.3,2.82,1.31,2.84,3.2C84.25,89,84.23,89.51,84.23,90Z"/><path class="cls-288" d="M100.22,93c-2.22,6.73-4.93,8.6-9.69,6.6-1.48-.62-2.92-1.39-1-3.17.24-.22.74-.37.77-.6,1.12-8.7,6.17-3.51,9.94-2.83Z"/></g></g></svg>