<?xml version="1.0" encoding="utf-8"?>
<!-- Generator: Adobe Illustrator 25.2.0, SVG Export Plug-In . SVG Version: 6.00 Build 0)  -->
<svg version="1.1" id="Layer_1" xmlns="http://www.w3.org/2000/svg" xmlns:xlink="http://www.w3.org/1999/xlink" x="0px" y="0px"
	 viewBox="0 0 50.3 54.8" style="enable-background:new 0 0 50.3 54.8;" xml:space="preserve">
<style type="text/css">
	.st0{display:none;}
	.st1{display:inline;}
	.st2{display:inline;fill:#FFFFFF;}
	.st3{fill:#FFFFFF;}
</style>
<g class="st0">
	<path class="st1" d="M36.3,8.2H16.1v-2h20.1V8.2z M28.7,41.7v4.4c0,3.5,2.8,6.3,6.3,6.3h2.1v3.4H15.2v-3.4h2.1
		c3.5,0,6.3-2.8,6.3-6.3v-4.4c0-2.2-1.2-4.3-3.1-5.4c-5.5-1.7-9.5-6.4-9.5-11.8c0-3.8,1-6.5,1.9-9.1c0.6-1.8,1.2-3.5,1.5-5.5
		c0.3-2.3,0.1-7.3-0.9-9.3l-1.2-2.5h27.8l-1.5,2.6c-1.2,2-1.2,6.7-0.9,9.2c0.3,2,0.9,3.6,1.5,5.4c0.9,2.6,1.9,5.3,1.9,9.2
		c0,5.9-4.4,10.2-9.5,11.8C29.9,37.4,28.7,39.5,28.7,41.7z M25.1,33.6h2.2c5,0,10.5-3.7,10.5-9.1c0-3.3-0.8-5.6-1.7-8
		c-0.7-1.8-1.3-3.7-1.7-6.1c-0.2-1.6-0.5-5.6,0.3-8.8H17.5c0.7,3,0.7,6.9,0.4,8.8c-0.3,2.3-1,4.3-1.7,6.1c-0.9,2.5-1.7,4.8-1.7,8
		C14.6,29.4,19.4,33.6,25.1,33.6z"/>
	<path class="st1" d="M35,56.8c-3.5,0-6.3-2.8-6.3-6.3V35.5c4.7-3.7,6.4-17.7,6.4-29.9V-6.3H17.3V5.6c0,12.2,1.7,26.2,6.4,29.9v15.1
		c0,3.5-2.8,6.3-6.3,6.3h-2.1v3.4h21.9v-3.4C37.2,56.8,35,56.8,35,56.8z M31.7-2.9v6.6h-11v-6.6H31.7z M20.7,5.7h11
		c0,19.1-3.9,27.3-5.5,27.3C24.6,33,20.7,24.9,20.7,5.7z"/>
	<path class="st1" d="M13.5,57.1h25.4L44-3.2H8.4L13.5,57.1z M16.6,53.7l-0.4-4.2c1.4,0.9,3,1.4,4.8,1.4h10.3c1.8,0,3.4-0.5,4.8-1.4
		l-0.4,4.3C35.8,53.7,16.6,53.7,16.6,53.7z M15.8,43.3L12.9,8.8h26.7l-2.9,34.3c-0.5,2.5-2.7,4.4-5.3,4.4H21
		C18.5,47.4,16.3,45.7,15.8,43.3z M40.3,0.2l-0.5,6.5h-27l-0.5-6.5H40.3z"/>
	<path class="st1" d="M44.6-2H8.4l0.8,9.8c-1.1,1.4-1.7,3.2-1.7,5c0,2.3,0.9,4.5,2.6,6l2.4,37.2h27.9L43,18c1.2-1.5,1.9-3.3,1.9-5.3
		c0-1.5-0.4-2.9-1.1-4.1L44.6-2z M40.9,1.4l-0.5,6.2H12.6l-0.5-6.2H40.9z M15.8,52.5l-0.3-4.6c1.4,1,3.1,1.5,5,1.5h12.1
		c1.8,0,3.6-0.6,5-1.5l-0.3,4.6H15.8z M37.9,40.9c0,2.9-2.4,5.2-5.4,5.2H20.5c-3,0-5.4-2.3-5.4-5.2l-1.6-23.1c0-0.5-0.3-0.9-0.7-1.2
		c-1.2-0.9-1.9-2.3-1.9-3.8c0-1.2,0.4-2.3,1.2-3.2h28.1c0.7,0.9,1.2,2.2,1.2,3.2c0,1.3-0.5,2.5-1.4,3.4c-0.3,0.3-0.4,0.7-0.5,1
		L37.9,40.9z"/>
	<path class="st1" d="M36.5,1.5L34.5-18H17.9L16,1.5c-7.4,1.1-7.4,10.7-7.4,14L13.5,72h25.4l4.9-56.4l0-0.1
		C43.8,7,41.3,2.3,36.5,1.5z M31.5-14.6l1.6,16H19.4l1.6-16C21-14.6,31.5-14.6,31.5-14.6z M17.5,4.8H35c3.4,0,5.1,2.8,5.4,9H12.1
		C12.3,7.5,14,4.8,17.5,4.8z M35.8,68.5H16.6l-4.5-51.4h28.1L35.8,68.5z"/>
	<path class="st1" d="M35.6,41.4l2.5-28.9H14.3l2.5,28.9H35.6z M19.9,38l-0.4-4.3c1.4,0.9,3.1,1.5,4.9,1.5h3.4
		c1.8,0,3.5-0.6,4.9-1.5L32.5,38H19.9z M34.3,15.9l-1,10.4c0,3-2.4,5.5-5.5,5.5h-3.4c-3,0-5.5-2.4-5.5-5.5l-1-10.4
		C18.1,15.9,34.3,15.9,34.3,15.9z"/>
	<path class="st1" d="M40.9,28.2c1.1-3.1,2.3-6.7,2.3-11.5V-3.2H9.3v19.8c0,4.8,1.2,8.4,2.3,11.5c0.9,2.7,1.8,5.3,1.8,8.4v20.5H39
		V36.6C39,33.5,39.9,30.9,40.9,28.2z M39.7,0.2v6.5H12.7V0.2H39.7z M12.7,16.6V8.8h27.1v7.8c0,4.3-1.1,7.4-2.1,10.4
		c-1,2.9-2,5.8-2,9.5v5.5c0,3-2.2,5.4-4.8,5.4h-9.3c-2.6,0-4.7-2.4-4.8-5.4v-5.5c0-3.7-1-6.7-2-9.5C13.7,24,12.7,20.9,12.7,16.6z
		 M16.8,53.7v-4.5c1.3,1.1,3,1.7,4.8,1.7h9.3c1.8,0,3.4-0.6,4.8-1.7v4.5H16.8z"/>
	<path class="st1" d="M40-8.5H12.4v70.8H40V-8.5z M36.6,47.2c0,3-2.2,5.5-4.9,5.5h-11c-2.7,0-4.8-2.4-4.9-5.4V8.6h20.7
		C36.6,8.6,36.6,47.2,36.6,47.2z M36.6-5.1V6.6H15.8V-5.1H36.6z M15.8,59v-4.6c1.4,1.1,3.1,1.7,4.9,1.7h11c1.8,0,3.5-0.6,4.9-1.7V59
		L15.8,59L15.8,59z"/>
	<path class="st1" d="M12.4-2.7v59.2H40V-2.7H12.4z M36.6,0.7v40.6c0,3-2.2,5.5-4.9,5.5h-11c-2.7,0-4.8-2.4-4.9-5.4V0.7H36.6z
		 M15.8,53.2v-4.6c1.4,1.1,3.1,1.7,4.9,1.7h11c1.8,0,3.5-0.6,4.9-1.7v4.6L15.8,53.2L15.8,53.2z"/>
	<path class="st1" d="M13.4,54.6H39l2-55.2H11.4L13.4,54.6z M16.6,51.1c0-0.9-0.1-2.2-0.1-3.7c1.2,0.8,2.6,1.3,4,1.3h11.3
		c1.5,0,2.9-0.5,4-1.3c-0.1,1.5-0.1,2.8-0.1,3.7H16.6z M37.6,2.8c-0.2,6.1-0.9,25.4-1.4,38.2c-0.3,2.5-2.1,4.4-4.3,4.4H20.5
		c-2.2,0-4-1.9-4.3-4.4C15.7,28.2,15,8.9,14.8,2.8L37.6,2.8L37.6,2.8z"/>
	<path class="st1" d="M13.4,45.1H39l2-36.2H11.4L13.4,45.1z M16.6,41.7c-0.1-0.9-0.1-2.2-0.2-3.7c1.2,0.8,2.6,1.2,4,1.2H32
		c1.5,0,2.9-0.4,4-1.2c-0.1,1.5-0.2,2.7-0.2,3.7H16.6z M37.5,12.3c-0.2,3.7-0.6,11.6-1.1,18.5h0c0,2.8-2,5-4.5,5H20.4
		c-2.5,0-4.5-2.3-4.5-5h0c-0.4-6.9-0.9-14.8-1.1-18.5H37.5z"/>
	<path class="st1" d="M33,60.4l9.3-76.6H10.1l9.3,76.6c0.1,0.9,0.8,1.5,1.7,1.5h0.3c-0.2,2.7-2.4,4.8-5.1,4.8v3.4h19.8v-3.4
		c-2.7,0-4.9-2.1-5.1-4.8h0.3C32.1,61.9,32.9,61.3,33,60.4z M22.6,58.5l-0.5-4.4c1.1,0.6,2.4,0.9,3.8,0.9h0.6c1.4,0,2.7-0.3,3.8-0.9
		l-0.5,4.4H22.6z M31,48.1c-0.5,2-2.3,3.5-4.5,3.5h-0.6c-2.2,0-4-1.5-4.5-3.5L15.2-2.8h22L31,48.1z M38.4-12.8l-1,7.9H14.9l-1-7.9
		C14-12.8,38.4-12.8,38.4-12.8z M29.3,66.7h-6.1c1-1.4,1.6-3,1.7-4.8h2.8C27.6,63.7,28.3,65.4,29.3,66.7z"/>
	<path class="st1" d="M10.9,44.4L9.1,53h34.1l-1.7-8.6l3.7-33.8h1.5l1.1-9.8H4.5l1.1,9.8h1.5L10.9,44.4z M13.3,49.6l0.7-3.5h24.4
		l0.7,3.5H13.3z M38.3,42.8H14.1l-3.5-32.1h31.2L38.3,42.8z M44.1,4.3l-0.3,3H8.7l-0.3-3H44.1z"/>
	<path class="st1" d="M42.4,1.7H10L17,43.9h3.8c-0.2,2.7-2.4,4.8-5.1,4.8v3.4h21.1v-3.4c-2.7,0-4.9-2.1-5.1-4.8h3.8L42.4,1.7z
		 M33.9,32.2c0,0.3-1.5,1.6-4.7,1.6h-6.1c-3.2,0-4.7-1.3-4.7-1.6h0l-3.1-18.8H37L33.9,32.2L33.9,32.2z M38.4,5.2l-1,6.2H15.1l-1-6.2
		H38.4z M30,48.8h-7.5c1-1.4,1.6-3,1.7-4.8h4.1C28.3,45.7,28.9,47.4,30,48.8z M19.8,40.5l-0.6-3.9c1.2,0.4,2.5,0.6,4,0.6h6.1
		c1.5,0,2.8-0.2,4-0.6l-0.6,3.9H19.8z"/>
	<path class="st1" d="M8.6-10.3c0,15.6,2.4,26.9,4.6,36.9c1.4,6.3,2.5,11.1,2.9,17.3c0.4,7-0.6,13-3.2,19.6
		c-0.2,0.5-0.1,1.1,0.2,1.6c0.3,0.5,0.8,0.7,1.4,0.7H38c0.6,0,1.1-0.3,1.4-0.7c0.3-0.5,0.4-1.1,0.2-1.6c-2.6-6.6-3.7-13.1-3.2-19.6
		c0.3-4.6,1.5-11,2.9-17.3c2.1-10,4.6-21.3,4.6-36.9V-12H8.6V-10.3z M16.9,62.5c0.7-2,1.2-4,1.7-6h15.3c0.4,2,1,4,1.7,6
		C35.5,62.5,16.9,62.5,16.9,62.5z M35.9,26c-1.3,6.2-2.6,12-2.9,17.8l0,0c-0.2,3.2-0.1,6.3,0.3,9.3H19.2c0.4-3,0.5-6.1,0.3-9.3l0,0
		C19.1,38,17.9,32.1,16.5,26c-1.5-6.9-3.1-14.4-3.9-23.4h27.1C38.9,11.6,37.3,19.1,35.9,26z M40.3-8.5c0,3.2-0.2,6.2-0.4,9H12.5
		c-0.2-2.8-0.4-5.8-0.4-9H40.3z"/>
	<path class="st1" d="M44.4,53.5c-6.5-1.6-12.1-2.9-12.1-12.1c0-8.9,1.3-15.5,2.7-22.6c1.7-8.6,3.7-18.3,3.7-34.1V-17H-3.5v1.7
		c0,15.8,2.1,25.4,4,33.9c1.6,7,3,13.7,3,22.8c0,6.6-0.9,10.3-1.7,13.5c-1,4.1-1.9,7.6-0.6,14.6l0.3,1.4H21v-3.5
		c8.5,2.3,15.7,3.6,21.4,3.5c12.3-0.1,13.4-5.6,13.4-5.6C56.8,56.4,50.2,54.8,44.4,53.5z M35.2-13.6c0,4.7-0.3,8.9-0.6,12.6h-34
		C0.2-4.7,0-8.8-0.1-13.6H35.2z M52.4,64.6c-0.4,0.6-2.5,2.9-10.1,2.9c-5.8,0-13.4-1.3-22.6-4l-2.2-0.6v4.7H4.3
		c-0.8-5.3-0.1-8.2,0.8-11.8C6,52.3,7,48.3,7,41.4c0-9.5-1.5-16.3-3.1-23.5C2.8,13,1.6,7.7,0.8,1.1h33.6c-0.7,6.7-1.8,12.1-2.8,17
		c-1.4,7.2-2.8,14-2.8,23.2c0,11.9,8.2,13.8,14.7,15.4C49.7,58.2,52.9,59.3,52.4,64.6z"/>
	<path class="st1" d="M5.8,0.4l17.9,25.2v18.2c0,3.5-2.8,6.3-6.3,6.3h-4.9v3.4h27.4v-3.4H35c-3.5,0-6.3-2.8-6.3-6.3V25.6L46.6,0.4
		C46.6,0.4,5.8,0.4,5.8,0.4z M28.3,20.3c-0.5,0.1-1,0.1-1.6,0.1h-1c-0.5,0-1.1,0-1.6-0.1L12.4,3.8H40L28.3,20.3"/>
	<path class="st1" d="M43.2,18.7c0-5-3.6-23.6-3.7-24.4L39.2-7H13.2l-0.3,1.4c-0.2,0.8-3.7,19.4-3.7,24.4c0,7.6,6.5,14.1,14.5,14.7
		v17.8c0,3.5-2.8,6.3-6.3,6.3h-5.5V61h28.7v-3.4H35c-3.5,0-6.3-2.8-6.3-6.3V33.4C36.7,32.8,43.2,26.3,43.2,18.7z M16-3.6h20.4
		c0.7,3.9,2.7,14.9,3.3,20.3H12.7C13.3,11.2,15.3,0.2,16-3.6z M12.6,18.7C12.6,18.7,12.6,18.7,12.6,18.7l27.2,0c0,0,0,0,0,0
		c0,6-5.8,11.3-12.3,11.3h-2.6C18.4,30,12.6,24.8,12.6,18.7z"/>
	<path class="st1" d="M41.2,18.7c0-5-3.1-23.6-3.2-24.4L37.7-7h-23l-0.2,1.4c-0.1,0.8-3.2,19.4-3.2,24.4c0,7.5,5.6,13.9,12.4,14.6
		v17.9c0,3.5-2.8,6.3-6.3,6.3h-4.2V61h26v-3.4H35c-3.5,0-6.3-2.8-6.3-6.3V33.4C35.6,32.6,41.2,26.2,41.2,18.7z M34.8-3.6
		c0.5,3.2,1.8,11.1,2.5,16.9H15.1c0.7-5.7,1.9-13.7,2.5-16.9H34.8z M14.7,18.7c0-0.8,0.1-2,0.2-3.4h22.6c0.1,1.4,0.2,2.6,0.2,3.4
		c0,6-4.9,11.3-10.4,11.3h-2.2C19.5,30,14.7,24.8,14.7,18.7z"/>
	<path class="st1" d="M18.1-13.3c0,1.7,1.4,3.2,3.2,3.2s3.2-1.4,3.2-3.2s-1.4-3.2-3.2-3.2S18.1-15,18.1-13.3z M43.1,12.8
		c-2.1,0-4.1,0.7-5.6,2V8.1h2.4l-6-10.6h-4.6l-4.1-7.1h-7.8l-4.1,7.1H8.7l-6,10.6h2.4v49L0.3,70.3h41.9l-4.8-13.2V43.2
		c1.5,1.2,3.5,2,5.6,2c5,0,9-4.1,9-9V21.9C52.1,16.9,48.1,12.8,43.1,12.8z M19.3-6.2h3.8l2.1,3.7h-8L19.3-6.2z M10.7,1h21.2L34,4.7
		H8.5L10.7,1z M34,8.1v41.7H8.5V8.1H34z M8.5,53.2H34v2.5H8.5V53.2z M5.1,66.9L8,59.1h26.6l2.8,7.8H5.1z M48.7,36.2
		c0,3.1-2.5,5.6-5.6,5.6c-3.1,0-5.6-2.5-5.6-5.6V21.9c0-3.1,2.5-5.6,5.6-5.6c3.1,0,5.6,2.5,5.6,5.6V36.2z"/>
	<path class="st1" d="M3.4-0.2v54.4h34.4V39.6H40c5,0,9-4.1,9-9V18.3c0-5-4.1-9-9-9h-2.2v-9.5H3.4z M24,12v32.3h-6.9V12H24z
		 M17.1,10V3.2H24V10H17.1z M27.4,12h6.9v26.8c0,3.1-2.2,5.6-4.9,5.6h-2.1V12z M34.4,10h-6.9V3.2h6.9V10z M13.7,3.2V10H6.8V3.2
		C6.8,3.2,13.7,3.2,13.7,3.2z M6.8,12h6.9v32.3h-2.1c-2.7,0-4.9-2.5-4.9-5.6L6.8,12L6.8,12z M6.8,50.7V46c1.4,1.1,3.1,1.7,4.9,1.7
		h17.9c1.8,0,3.5-0.6,4.9-1.7v4.7H6.8z M40,12.6c3.1,0,5.6,2.5,5.6,5.6v12.2c0,3.1-2.5,5.6-5.6,5.6h-2.2V12.6H40z"/>
	<path class="st1" d="M33.8,41c0-4.4,2.7-6,7.1-8.3c4.5-2.3,10-5.2,10-13.6v-1.4c0-5.6-4.6-10.2-10.2-10.2c-2.6,0-5,1-6.8,2.6V7.6
		H1.5v38.8h32.3C33.8,46.4,33.8,41,33.8,41z M40.7,10.9c3.8,0,6.8,3.1,6.8,6.8v1.4c0,6.3-3.8,8.3-8.2,10.6c-1.9,1-3.9,2-5.5,3.5
		V17.7C33.8,14,36.9,10.9,40.7,10.9z M30.4,43H4.9V11h25.5V43z"/>
	<path class="st1" d="M46.1,18.6V-3.7H6.3v22.3c0,6.5,4.7,12.1,11.3,14.5l0,0c2.3,0.9,3.9,3.1,3.9,5.6v1.1c-1.1,1.2-1.7,2.7-1.7,4.4
		c0,1.7,0.7,3.2,1.7,4.4c-0.1,3.2-2.7,5.7-5.9,5.7H11v3.4h30.4v-3.4h-4.5c-3.2,0-5.8-2.5-5.9-5.7c1.1-1.2,1.7-2.7,1.7-4.4
		c0-1.7-0.7-3.2-1.7-4.4v-1.1c0-2.5,1.6-4.7,3.9-5.6l0,0C41.5,30.6,46.1,25.1,46.1,18.6z M9.7-0.3h33v6.6h-33V-0.3z M22.7,54.2
		c0.9-1.1,1.5-2.4,1.9-3.8c0.5,0.1,1,0.2,1.6,0.2c0.6,0,1.1-0.1,1.6-0.2c0.3,1.4,1,2.7,1.9,3.8H22.7z M26.2,47.8
		c-2,0-3.6-1.6-3.6-3.6c0-2,1.6-3.6,3.6-3.6c2,0,3.6,1.6,3.6,3.6C29.8,46.2,28.2,47.8,26.2,47.8z M23.7,34.2c0.3,0,4.6,0,5,0
		c-0.6,1.1-1,2.3-1.1,3.6c-0.4-0.1-0.9-0.2-1.4-0.2s-0.9,0.1-1.4,0.2C24.7,36.5,24.3,35.3,23.7,34.2z M27.7,30.8h-3.1
		c-8.3,0-15-5.5-15-12.3V8.4h33v10.2C42.7,25.3,36,30.8,27.7,30.8z"/>
	<path class="st1" d="M31.7,38c8-1.6,14-7.7,14-15c0-1.7-0.7-4.9-0.7-5c-0.1-0.7-3.5-14.6-3.6-15.1l-0.3-1.3H11.3L11,2.9
		C9.8,7.9,7.6,17.5,7.4,18c-0.2,0.8-0.7,3.5-0.7,5c0,7.3,6,13.4,14,15c1.8,1,3.1,2.9,3.1,5.1c0,3.2-2.6,5.8-5.8,5.8h-2v3.4h20.4
		v-3.4h-2c-3.2,0-5.8-2.6-5.8-5.8C28.7,40.9,29.9,39,31.7,38z M38.4,5c0.8,3.3,1.9,7.7,2.6,10.7H11.5c0.8-3.3,2-8.3,2.6-10.7H38.4z
		 M10.1,23.1c0-1.1,0.4-3.5,0.6-4.2c0-0.1,0.1-0.5,0.3-1.1h30.4c0.1,0.6,0.2,1,0.2,1c0.2,0.9,0.6,3.2,0.6,4.2
		c0,6.6-6.6,11.9-14.6,11.9h-3C16.7,35,10.1,29.7,10.1,23.1z"/>
</g>
<g>
	<g class="st0">
		<path class="st2" d="M36.8,8.6H16.7v-2h20.1L36.8,8.6L36.8,8.6z M29.3,42.1v4.4c0,3.5,2.8,6.3,6.3,6.3h2.1v3.4H15.8v-3.4H18
			c3.5,0,6.3-2.8,6.3-6.3v-4.4c0-2.2-1.2-4.3-3.1-5.4c-5.5-1.7-9.5-6.4-9.5-11.8c0-3.8,1-6.5,1.9-9.1c0.6-1.8,1.2-3.5,1.5-5.5
			C15.4,8,15.2,3,14.2,1L13-1.5h27.8l-1.5,2.6c-1.2,2-1.2,6.7-0.9,9.2c0.3,2,0.9,3.6,1.5,5.4c0.9,2.6,1.9,5.3,1.9,9.2
			c0,5.9-4.4,10.2-9.5,11.8C30.4,37.9,29.3,39.9,29.3,42.1z M25.7,34h2.2c5,0,10.5-3.7,10.5-9.1c0-3.3-0.8-5.6-1.7-8
			c-0.7-1.8-1.3-3.7-1.7-6.1c-0.2-1.6-0.5-5.6,0.3-8.8H18.1c0.7,3,0.7,6.9,0.4,8.8c-0.3,2.3-1,4.3-1.7,6.1c-0.9,2.5-1.7,4.8-1.7,8
			C15.1,29.8,20,34,25.7,34z"/>
		<path class="st2" d="M35.6,57.3c-3.5,0-6.3-2.8-6.3-6.3V35.9C34,32.2,35.7,18.2,35.7,6V-5.9H17.8V6c0,12.2,1.7,26.2,6.4,29.9V51
			c0,3.5-2.8,6.3-6.3,6.3h-2.1v3.4h21.9v-3.4L35.6,57.3L35.6,57.3z M32.3-2.5v6.6h-11v-6.6H32.3z M21.3,6.1h11
			c0,19.1-3.9,27.3-5.5,27.3C25.2,33.4,21.3,25.3,21.3,6.1z"/>
		<path class="st2" d="M14.1,57.5h25.4l5.1-60.3H9L14.1,57.5z M17.2,54.1l-0.4-4.2c1.4,0.9,3,1.4,4.8,1.4h10.3
			c1.8,0,3.4-0.5,4.8-1.4l-0.4,4.3C36.3,54.1,17.2,54.1,17.2,54.1z M16.3,43.7L13.4,9.2h26.7l-2.9,34.3c-0.5,2.5-2.7,4.4-5.3,4.4
			H21.6C19.1,47.9,16.9,46.1,16.3,43.7z M40.8,0.7l-0.6,6.5h-27l-0.5-6.5H40.8z"/>
		<path class="st2" d="M45.2-1.6H9l0.8,9.8c-1.1,1.4-1.7,3.2-1.7,5c0,2.3,0.9,4.5,2.6,6l2.4,37.2H41l2.5-37.9
			c1.2-1.5,1.9-3.3,1.9-5.3c0-1.5-0.4-2.9-1.1-4.1L45.2-1.6z M41.5,1.8L41,8H13.2l-0.5-6.2H41.5z M16.4,53l-0.3-4.6
			c1.4,1,3.1,1.5,5,1.5h12.1c1.8,0,3.6-0.6,5-1.5L37.8,53H16.4z M38.5,41.3c0,2.9-2.4,5.2-5.4,5.2H21.1c-3,0-5.4-2.3-5.4-5.2
			l-1.6-23.1c0-0.5-0.3-0.9-0.7-1.2c-1.2-0.9-1.9-2.3-1.9-3.8c0-1.2,0.4-2.3,1.2-3.2h28.1c0.7,0.9,1.2,2.2,1.2,3.2
			c0,1.3-0.5,2.5-1.4,3.4c-0.3,0.3-0.4,0.7-0.5,1L38.5,41.3z"/>
		<path class="st2" d="M37,1.9l-1.9-19.5H18.5L16.5,1.9C9.2,3,9.2,12.6,9.2,15.9l4.9,56.5h25.4L44.4,16l0-0.1
			C44.4,7.4,41.9,2.7,37,1.9z M32-14.2l1.6,16H20l1.6-16C21.6-14.2,32-14.2,32-14.2z M18,5.2h17.5c3.4,0,5.1,2.8,5.4,9H12.6
			C12.9,7.9,14.5,5.2,18,5.2z M36.4,69H17.2l-4.5-51.4h28.1L36.4,69z"/>
		<path class="st2" d="M36.2,41.8l2.5-28.9H14.9l2.5,28.9H36.2z M20.5,38.4l-0.4-4.3c1.4,0.9,3.1,1.5,4.9,1.5h3.4
			c1.8,0,3.5-0.6,4.9-1.5L33,38.4H20.5z M34.9,16.3l-1,10.4c0,3-2.4,5.5-5.5,5.5H25c-3,0-5.5-2.4-5.5-5.5l-1-10.4H34.9z"/>
		<path class="st2" d="M41.4,28.6c1.1-3.1,2.3-6.7,2.3-11.5V-2.8H9.8v19.8c0,4.8,1.2,8.4,2.3,11.5c0.9,2.7,1.8,5.3,1.8,8.4v20.5
			h25.7V37C39.6,33.9,40.5,31.3,41.4,28.6z M40.3,0.7v6.5H13.2V0.7H40.3z M13.2,17.1V9.2h27.1v7.8c0,4.3-1.1,7.4-2.1,10.4
			c-1,2.9-2,5.8-2,9.5v5.5c0,3-2.2,5.4-4.8,5.4h-9.3c-2.6,0-4.7-2.4-4.8-5.4V37c0-3.7-1-6.7-2-9.5C14.3,24.5,13.2,21.3,13.2,17.1z
			 M17.3,54.1v-4.5c1.3,1.1,3,1.7,4.8,1.7h9.3c1.8,0,3.4-0.6,4.8-1.7v4.5H17.3z"/>
		<path class="st2" d="M40.5-8H13v70.8h27.6L40.5-8L40.5-8z M37.1,47.6c0,3-2.2,5.5-4.9,5.5h-11c-2.7,0-4.8-2.4-4.9-5.4V9.1h20.7
			V47.6z M37.1-4.6V7H16.4V-4.6H37.1z M16.4,59.4v-4.6c1.4,1.1,3,1.7,4.9,1.7h11c1.8,0,3.5-0.6,4.9-1.7v4.6L16.4,59.4L16.4,59.4z"/>
		<path class="st2" d="M13-2.2V57h27.6V-2.2H13z M37.1,1.2v40.6c0,3-2.2,5.5-4.9,5.5h-11c-2.7,0-4.8-2.4-4.9-5.4V1.2H37.1z
			 M16.4,53.6V49c1.4,1.1,3,1.7,4.9,1.7h11c1.8,0,3.5-0.6,4.9-1.7v4.6L16.4,53.6L16.4,53.6z"/>
		<path class="st2" d="M13.9,55h25.7l2-55.2H12L13.9,55z M17.2,51.6c0-0.9-0.1-2.2-0.1-3.7c1.2,0.8,2.6,1.3,4,1.3h11.3
			c1.5,0,2.9-0.5,4-1.3c-0.1,1.5-0.1,2.8-0.1,3.7H17.2z M38.1,3.2c-0.2,6.1-0.9,25.4-1.4,38.2c-0.3,2.5-2.1,4.4-4.3,4.4H21.1
			c-2.2,0-4-1.9-4.3-4.4c-0.5-12.8-1.2-32.1-1.4-38.2L38.1,3.2L38.1,3.2z"/>
		<path class="st2" d="M14,45.5h25.6l2-36.2H12L14,45.5z M17.2,42.1c-0.1-0.9-0.1-2.2-0.2-3.7c1.2,0.8,2.6,1.2,4,1.2h11.6
			c1.5,0,2.9-0.4,4-1.2c-0.1,1.5-0.2,2.7-0.2,3.7H17.2z M38.1,12.7c-0.2,3.7-0.6,11.6-1.1,18.5h0c0,2.8-2,5-4.5,5H21
			c-2.5,0-4.5-2.3-4.5-5h0c-0.4-6.9-0.9-14.8-1.1-18.5C15.4,12.7,38.1,12.7,38.1,12.7z"/>
		<path class="st2" d="M33.5,60.8l9.3-76.6H10.7L20,60.8c0.1,0.9,0.8,1.5,1.7,1.5H22c-0.2,2.7-2.4,4.8-5.1,4.8v3.4h19.8v-3.4
			c-2.7,0-4.9-2.1-5.1-4.8h0.3C32.7,62.3,33.4,61.7,33.5,60.8z M23.2,58.9l-0.5-4.4c1.1,0.6,2.4,0.9,3.8,0.9h0.6
			c1.4,0,2.7-0.3,3.8-0.9l-0.5,4.4C30.3,58.9,23.2,58.9,23.2,58.9z M31.6,48.5c-0.5,2-2.3,3.5-4.5,3.5h-0.6c-2.2,0-4-1.5-4.5-3.5
			L15.7-2.4h22L31.6,48.5z M39-12.4l-1,7.9H15.5l-1-7.9C14.5-12.4,39-12.4,39-12.4z M29.8,67.1h-6.1c1-1.4,1.6-3,1.7-4.8h2.8
			C28.2,64.1,28.8,65.8,29.8,67.1z"/>
		<path class="st2" d="M42.9,2.2H10.6l6.9,42.2h3.8c-0.2,2.7-2.4,4.8-5.1,4.8v3.4h21.1v-3.4c-2.7,0-4.9-2.1-5.1-4.8H36L42.9,2.2z
			 M34.5,32.6c0,0.3-1.5,1.6-4.7,1.6h-6.1c-3.2,0-4.7-1.3-4.7-1.6h0L16,13.8h21.6L34.5,32.6L34.5,32.6z M38.9,5.6l-1,6.2H15.6
			l-1-6.2H38.9z M30.5,49.2H23c1-1.4,1.6-3,1.7-4.8h4.1C28.9,46.2,29.5,47.8,30.5,49.2z M20.4,41L19.8,37c1.2,0.4,2.5,0.6,4,0.6h6.1
			c1.5,0,2.8-0.2,4-0.6L33.1,41H20.4z"/>
		<path class="st2" d="M9.2-9.8c0,15.6,2.4,26.9,4.6,36.9c1.4,6.3,2.5,11.1,2.9,17.3c0.4,7-0.6,13-3.2,19.6
			c-0.2,0.5-0.1,1.1,0.2,1.6c0.3,0.5,0.8,0.7,1.4,0.7h23.5c0.6,0,1.1-0.3,1.4-0.7c0.3-0.5,0.4-1.1,0.2-1.6
			c-2.6-6.6-3.6-13.1-3.2-19.6c0.3-4.6,1.5-11,2.9-17.3c2.1-10,4.6-21.3,4.6-36.9v-1.7H9.2V-9.8z M17.5,62.9c0.7-2,1.2-4,1.7-6h15.3
			c0.4,2,1,4,1.7,6H17.5z M36.4,26.4c-1.3,6.2-2.6,12-2.9,17.8l0,0c-0.2,3.2-0.1,6.3,0.3,9.3H19.7c0.4-3,0.5-6.1,0.3-9.3l0,0
			c-0.3-5.8-1.6-11.6-2.9-17.8C15.6,19.5,14,12,13.2,2.9h27.1C39.5,12,37.9,19.5,36.4,26.4z M40.9-8.1c0,3.2-0.2,6.2-0.4,9H13
			c-0.2-2.8-0.4-5.8-0.4-9H40.9z"/>
		<path class="st2" d="M45,53.9c-6.5-1.6-12.1-2.9-12.1-12.1c0-8.9,1.3-15.5,2.7-22.6c1.7-8.6,3.7-18.3,3.7-34.1v-1.7H-2.9v1.7
			c0,15.8,2.1,25.4,4,33.9c1.6,7,3,13.7,3,22.8c0,6.6-0.9,10.3-1.7,13.5c-1,4.1-1.9,7.6-0.6,14.6L2,71.3h19.6v-3.5
			c8.5,2.3,15.7,3.6,21.4,3.5c12.3-0.1,13.4-5.6,13.4-5.6C57.4,56.9,50.8,55.3,45,53.9z M35.8-13.2c0,4.7-0.3,8.9-0.6,12.6h-34
			C0.8-4.3,0.5-8.4,0.5-13.2H35.8z M53,65c-0.4,0.6-2.5,2.9-10.1,2.9c-5.8,0-13.4-1.3-22.6-4l-2.2-0.6v4.7H4.9
			c-0.8-5.3-0.1-8.2,0.8-11.8c0.9-3.5,1.8-7.4,1.8-14.4c0-9.5-1.5-16.3-3.1-23.5c-1.1-4.9-2.2-10.2-3-16.8H35
			c-0.7,6.7-1.8,12.1-2.8,17c-1.4,7.2-2.8,14-2.8,23.2c0,11.9,8.2,13.8,14.7,15.4C50.3,58.7,53.5,59.7,53,65z"/>
		<path class="st2" d="M43.8,19.2c0-5-3.6-23.6-3.7-24.4l-0.3-1.4H13.7l-0.3,1.4c-0.2,0.8-3.7,19.4-3.7,24.4
			c0,7.6,6.5,14.1,14.5,14.7v17.8c0,3.5-2.8,6.3-6.3,6.3h-5.5v3.4h28.7V58h-5.5c-3.5,0-6.3-2.8-6.3-6.3V33.8
			C37.3,33.2,43.8,26.8,43.8,19.2z M16.6-3.2H37c0.7,3.9,2.7,14.9,3.3,20.3H13.3C13.8,11.7,15.8,0.7,16.6-3.2z M13.2,19.2
			C13.2,19.2,13.2,19.1,13.2,19.2l27.2,0c0,0,0,0,0,0c0,6-5.8,11.3-12.3,11.3h-2.6C18.9,30.5,13.2,25.2,13.2,19.2z"/>
		<path class="st2" d="M41.7,19.2c0-5-3.1-23.6-3.2-24.4l-0.2-1.4h-23L15-5.2c-0.1,0.8-3.2,19.4-3.2,24.4c0,7.5,5.6,13.9,12.4,14.6
			v17.9c0,3.5-2.8,6.3-6.3,6.3h-4.2v3.4h26V58h-4.2c-3.5,0-6.3-2.8-6.3-6.3V33.8C36.2,33,41.7,26.6,41.7,19.2z M35.4-3.2
			c0.5,3.2,1.8,11.1,2.5,16.9H15.7C16.4,7.9,17.6,0,18.2-3.2C18.2-3.2,35.4-3.2,35.4-3.2z M15.2,19.2c0-0.8,0.1-2,0.2-3.4h22.6
			c0.1,1.4,0.2,2.6,0.2,3.4c0,6-4.9,11.3-10.4,11.3h-2.2C20.1,30.5,15.2,25.2,15.2,19.2z"/>
		<path class="st2" d="M35,25c6.9-2.3,11.8-8,11.8-14.7c0-1.8-0.7-5.1-0.7-5.1l-0.3-1.3l-38,0L7.5,5.2C7.3,6,6.7,8.8,6.7,10.3
			c0,6.7,4.9,12.4,11.8,14.7c0,0,5.7,1.6,5.7,5.8v10.9c0,3.2-2.6,5.8-5.7,5.8h-2v3.4H37v-3.4h-2c-3.2,0-5.7-2.6-5.7-5.8V30.8
			C29.2,26.5,35,25,35,25z M10.1,10.3c0-0.7,0.2-2,0.4-3l32.5,0c0.2,1.1,0.4,2.3,0.4,3c0,9.8-12.1,12.4-15.1,12.4h-3.1
			C22.6,22.7,10.1,20.3,10.1,10.3z"/>
		<path class="st2" d="M34.4,41.5c0-4.4,2.7-6,7.1-8.3c4.5-2.3,10-5.2,10-13.6v-1.4c0-5.6-4.6-10.2-10.2-10.2c-2.6,0-5,1-6.8,2.6V8
			H2.1v38.8h32.3V41.5L34.4,41.5z M41.2,11.3c3.8,0,6.8,3.1,6.8,6.8v1.4c0,6.3-3.8,8.3-8.2,10.6c-1.9,1-3.9,2-5.5,3.5V18.2
			C34.4,14.4,37.5,11.3,41.2,11.3z M31,43.4H5.5v-32H31V43.4z"/>
		<path class="st2" d="M32.3,38.5c8-1.6,14-7.7,14-15c0-1.7-0.7-4.9-0.7-5C45.4,17.8,42.1,4,41.9,3.4l-0.3-1.3H11.9l-0.3,1.3
			c-1.2,5-3.5,14.5-3.6,15.1c-0.2,0.8-0.7,3.5-0.7,5c0,7.3,6,13.4,14,15c1.8,1,3.1,2.9,3.1,5.1c0,3.2-2.6,5.8-5.8,5.8h-2v3.4H37
			v-3.4h-2c-3.2,0-5.7-2.6-5.7-5.8C29.2,41.3,30.5,39.4,32.3,38.5z M38.9,5.5c0.8,3.3,1.9,7.7,2.6,10.7H12c0.8-3.3,2-8.3,2.6-10.7
			H38.9z M10.7,23.5c0-1.1,0.4-3.5,0.6-4.2c0-0.1,0.1-0.5,0.3-1.1H42c0.1,0.6,0.2,1,0.2,1c0.2,0.9,0.6,3.2,0.6,4.2
			c0,6.6-6.6,11.9-14.6,11.9h-3C17.2,35.4,10.7,30.1,10.7,23.5z"/>
	</g>
	<g class="st0">
		<path class="st2" d="M18.7-12.8c0,1.7,1.4,3.2,3.2,3.2c1.7,0,3.2-1.4,3.2-3.2S23.6-16,21.8-16C20.1-16,18.7-14.6,18.7-12.8z
			 M43.6,13.3c-2.1,0-4.1,0.7-5.6,2V8.6h2.4L34.4-2h-4.6l-4.1-7.1h-7.8L13.9-2H9.2l-6,10.6h2.4v49L0.8,70.7h41.9L38,57.5V43.7
			c1.5,1.2,3.5,2,5.6,2c5,0,9-4.1,9-9V22.3C52.7,17.3,48.6,13.3,43.6,13.3z M19.9-5.7h3.8L25.8-2h-8L19.9-5.7z M11.2,1.4h21.2
			l2.1,3.7H9.1L11.2,1.4z M34.6,8.6v41.7H9V8.6H34.6z M9,53.7h25.6v2.5H9V53.7z M5.7,67.3l2.8-7.8h26.6l2.8,7.8H5.7z M49.3,36.6
			c0,3.1-2.5,5.6-5.6,5.6S38,39.7,38,36.6V22.3c0-3.1,2.5-5.6,5.6-5.6c3.1,0,5.6,2.5,5.6,5.6V36.6z"/>
	</g>
	<g class="st0">
		<path class="st2" d="M6.4,0.8L24.3,26v18.2c0,3.5-2.8,6.3-6.3,6.3h-4.9v3.4h27.4v-3.4h-4.9c-3.5,0-6.3-2.8-6.3-6.3V26L47.2,0.8
			C47.2,0.8,6.4,0.8,6.4,0.8z M28.9,20.7c-0.5,0.1-1,0.1-1.6,0.1h-1c-0.5,0-1.1,0-1.6-0.1L13,4.2h27.6L28.9,20.7"/>
	</g>
	<g class="st0">
		<path class="st2" d="M11.4,44.9l-1.7,8.6h34.1l-1.7-8.6l3.7-33.8h1.5l1.1-9.8H5.1l1.1,9.8h1.5L11.4,44.9z M13.9,50.1l0.7-3.5H39
			l0.7,3.5H13.9z M38.9,43.2H14.7l-3.5-32.1h31.2L38.9,43.2z M44.6,4.7l-0.3,3H9.2l-0.3-3H44.6z"/>
	</g>
	<g class="st0">
		<path class="st2" d="M46.7,19V-3.3H6.8V19c0,6.5,4.7,12.1,11.3,14.5l0,0c2.3,0.9,3.9,3.1,3.9,5.6v1.1c-1.1,1.2-1.7,2.7-1.7,4.4
			c0,1.7,0.7,3.2,1.7,4.4c-0.1,3.2-2.7,5.7-5.9,5.7h-4.5V58H42v-3.4h-4.5c-3.2,0-5.8-2.5-5.9-5.7c1.1-1.2,1.7-2.7,1.7-4.4
			c0-1.7-0.7-3.2-1.7-4.4v-1.1c0-2.5,1.6-4.7,3.9-5.6l0,0C42,31.1,46.7,25.5,46.7,19z M10.3,0.1h33v6.6h-33V0.1z M23.3,54.6
			c0.9-1.1,1.5-2.4,1.9-3.8c0.5,0.1,1,0.2,1.6,0.2c0.6,0,1.1-0.1,1.6-0.2c0.3,1.4,1,2.7,1.9,3.8H23.3z M26.8,48.2
			c-2,0-3.6-1.6-3.6-3.6s1.6-3.6,3.6-3.6c2,0,3.6,1.6,3.6,3.6S28.8,48.2,26.8,48.2z M24.3,34.6c0.3,0,4.6,0,5,0
			c-0.6,1.1-1,2.3-1.1,3.6c-0.4-0.1-0.9-0.2-1.4-0.2s-0.9,0.1-1.4,0.2C25.3,36.9,24.9,35.7,24.3,34.6z M28.3,31.2h-3.1
			c-8.3,0-15-5.5-15-12.3V8.8h33V19C43.3,25.7,36.6,31.2,28.3,31.2z"/>
	</g>
	<path class="st3" d="M34.4,24.6c6.9-2.3,11.8-8,11.8-14.7c0-1.8-0.7-5.1-0.7-5.1l-0.3-1.3l-38,0L6.9,4.7C6.7,5.5,6.2,8.3,6.2,9.9
		c0,6.7,4.9,12.4,11.8,14.7c0,0,5.7,1.6,5.7,5.8v10.9c0,3.2-2.6,5.8-5.7,5.8h-2v3.4h20.4V47h-2c-3.2,0-5.7-2.6-5.7-5.8V30.4
		C28.7,26.1,34.4,24.6,34.4,24.6z M9.6,9.9c0-0.7,0.2-2,0.4-3l32.5,0c0.2,1.1,0.4,2.3,0.4,3c0,9.8-12.1,12.4-15.1,12.4h-3.1
		C22,22.3,9.6,19.9,9.6,9.9z"/>
</g>
</svg>
